<svg width="104" height="90" viewBox="0 0 104 90" fill="none" xmlns="http://www.w3.org/2000/svg">
<g clip-path="url(#clip0_43_21)">
<mask id="mask0_43_21" style="mask-type:luminance" maskUnits="userSpaceOnUse" x="0" y="0" width="104" height="90">
<path d="M104 0H0V90H104V0Z" fill="white"/>
</mask>
<g mask="url(#mask0_43_21)">
<mask id="mask1_43_21" style="mask-type:luminance" maskUnits="userSpaceOnUse" x="0" y="0" width="104" height="90">
<path d="M103.133 0.332031H0V89.9871H103.133V0.332031Z" fill="white"/>
</mask>
<g mask="url(#mask1_43_21)">
<path d="M100.734 45.1598L76.1466 87.908H26.9857L2.39844 45.1598L26.9857 2.41138H76.1466L100.734 45.1598Z" fill="#FF722C" stroke="#292C33" stroke-width="4.15858"/>
<path d="M37.1571 64.7913V58.8846L52.3457 44.5397C53.5458 43.4522 54.4271 42.4771 54.9896 41.6145C55.5522 40.752 55.9272 39.9644 56.1147 39.2519C56.3397 38.5393 56.4522 37.883 56.4522 37.283C56.4522 35.7078 55.9084 34.5078 54.8209 33.6827C53.7708 32.8201 52.2144 32.3888 50.1518 32.3888C48.5016 32.3888 46.964 32.7076 45.5389 33.3452C44.1513 33.9827 42.97 34.9765 41.9949 36.3266L35.3569 32.0513C36.857 29.8012 38.9572 28.0198 41.6574 26.7072C44.3576 25.3946 47.4703 24.7383 50.9956 24.7383C53.9208 24.7383 56.471 25.2258 58.6462 26.2009C60.8588 27.1385 62.5652 28.4698 63.7653 30.1949C65.0029 31.9201 65.6217 33.9827 65.6217 36.3829C65.6217 37.658 65.4529 38.9331 65.1154 40.2082C64.8154 41.4458 64.1778 42.7584 63.2027 44.146C62.2652 45.5336 60.8776 47.0899 59.0399 48.8151L46.439 60.6847L44.6951 57.3657H66.9155V64.7913H37.1571Z" fill="#292C33"/>
</g>
</g>
</g>
<defs>
<clipPath id="clip0_43_21">
<rect width="104" height="90" fill="white"/>
</clipPath>
</defs>
</svg>
