<svg width="316" height="255" viewBox="0 0 316 255" fill="none" xmlns="http://www.w3.org/2000/svg">
<path d="M220.659 170.67L220.656 170.671C210.456 173.531 197.479 174.948 184.619 174.796C171.757 174.644 159.067 172.924 149.434 169.547C144.534 167.828 140.949 165.901 138.631 163.915C136.31 161.928 135.331 159.949 135.433 158.1C135.536 156.242 136.742 154.295 139.29 152.401C141.833 150.512 145.631 148.741 150.713 147.234L150.72 147.231L150.728 147.229C151.037 147.13 151.36 147.041 151.698 146.947L151.701 146.946C161.894 144.088 174.938 142.844 187.868 143.169C200.8 143.494 213.563 145.387 223.202 148.766C228.108 150.487 231.686 152.367 233.991 154.286C236.301 156.208 237.245 158.087 237.126 159.828C237.006 161.582 235.792 163.437 233.22 165.268C230.659 167.091 226.846 168.817 221.76 170.325L221.752 170.328C221.62 170.369 221.483 170.413 221.348 170.457C221.106 170.535 220.867 170.612 220.659 170.67Z" fill="#FF722C" stroke="black" stroke-width="1.31288"/>
<path d="M186.812 152.704C186.603 152.704 186.429 152.53 186.429 152.321C186.429 152.112 186.603 151.938 186.812 151.938C187.832 151.938 188.853 151.927 189.873 151.903C190.093 151.903 190.256 152.066 190.267 152.275C190.267 152.483 190.105 152.657 189.896 152.669C188.876 152.68 187.844 152.704 186.812 152.704ZM183.75 152.68C182.718 152.669 181.686 152.634 180.666 152.599C180.457 152.588 180.283 152.414 180.295 152.205C180.306 151.996 180.48 151.822 180.689 151.834C181.698 151.869 182.73 151.892 183.75 151.915C183.959 151.915 184.133 152.089 184.133 152.309C184.121 152.518 183.959 152.68 183.75 152.68ZM192.946 152.564C192.737 152.564 192.575 152.402 192.563 152.193C192.552 151.985 192.714 151.799 192.934 151.799C193.955 151.753 194.987 151.706 195.996 151.637C196.216 151.625 196.39 151.788 196.402 151.996C196.413 152.205 196.251 152.39 196.042 152.402C195.033 152.46 194.001 152.518 192.969 152.564C192.958 152.564 192.958 152.564 192.946 152.564ZM177.616 152.46C177.605 152.46 177.605 152.46 177.593 152.46C176.572 152.402 175.54 152.333 174.52 152.263C174.311 152.251 174.149 152.066 174.172 151.857C174.184 151.648 174.381 151.486 174.578 151.509C175.587 151.59 176.619 151.648 177.639 151.706C177.848 151.718 178.01 151.903 177.999 152.112C177.987 152.309 177.813 152.46 177.616 152.46ZM199.069 152.182C198.872 152.182 198.709 152.031 198.686 151.834C198.663 151.625 198.825 151.44 199.034 151.416C200.054 151.335 201.075 151.231 202.084 151.127C202.292 151.103 202.478 151.254 202.501 151.463C202.524 151.672 202.374 151.857 202.165 151.88C201.156 151.985 200.124 152.077 199.103 152.17C199.092 152.182 199.08 152.182 199.069 152.182ZM171.493 151.996C171.482 151.996 171.47 151.996 171.459 151.996C170.427 151.892 169.406 151.788 168.397 151.66C168.189 151.637 168.038 151.44 168.061 151.231C168.084 151.022 168.281 150.871 168.49 150.895C169.487 151.011 170.508 151.127 171.528 151.219C171.737 151.243 171.888 151.428 171.876 151.637C171.853 151.846 171.691 151.996 171.493 151.996ZM205.168 151.544C204.983 151.544 204.809 151.405 204.786 151.208C204.762 150.999 204.913 150.802 205.122 150.779C206.142 150.651 207.163 150.512 208.148 150.361C208.357 150.326 208.554 150.477 208.589 150.686C208.624 150.895 208.473 151.092 208.264 151.127C207.267 151.277 206.247 151.416 205.215 151.556C205.203 151.544 205.191 151.544 205.168 151.544ZM165.394 151.266C165.371 151.266 165.359 151.266 165.336 151.266C164.316 151.115 163.284 150.953 162.298 150.79C162.089 150.756 161.95 150.558 161.985 150.35C162.02 150.141 162.217 150.002 162.425 150.037C163.411 150.211 164.431 150.361 165.452 150.512C165.661 150.547 165.811 150.732 165.777 150.941C165.753 151.127 165.591 151.266 165.394 151.266ZM211.244 150.616C211.059 150.616 210.897 150.489 210.862 150.303C210.827 150.095 210.966 149.897 211.175 149.863C212.195 149.677 213.204 149.48 214.178 149.283C214.387 149.237 214.584 149.376 214.631 149.584C214.677 149.793 214.538 149.99 214.329 150.037C213.343 150.245 212.335 150.442 211.302 150.628C211.279 150.616 211.256 150.616 211.244 150.616ZM159.352 150.234C159.329 150.234 159.306 150.234 159.271 150.222C158.251 150.013 157.242 149.793 156.256 149.573C156.048 149.526 155.92 149.318 155.966 149.109C156.013 148.9 156.222 148.773 156.43 148.819C157.404 149.051 158.402 149.26 159.422 149.468C159.631 149.515 159.77 149.712 159.724 149.921C159.689 150.106 159.526 150.234 159.352 150.234ZM217.24 149.364C217.066 149.364 216.915 149.248 216.869 149.074C216.822 148.865 216.95 148.657 217.147 148.61C218.156 148.367 219.153 148.1 220.104 147.833C220.313 147.775 220.521 147.891 220.579 148.1C220.637 148.309 220.521 148.518 220.313 148.576C219.35 148.842 218.353 149.109 217.332 149.364C217.309 149.364 217.274 149.364 217.24 149.364ZM153.381 148.831C153.346 148.831 153.311 148.831 153.276 148.819C152.673 148.657 152.059 148.483 151.479 148.309C151.143 148.205 150.806 148.112 150.482 148.007L150.319 147.961C150.122 147.891 150.006 147.683 150.064 147.474C150.134 147.277 150.342 147.161 150.551 147.219L150.713 147.265C151.038 147.37 151.374 147.474 151.699 147.567C152.279 147.741 152.882 147.915 153.473 148.077C153.682 148.135 153.798 148.344 153.74 148.552C153.705 148.715 153.543 148.831 153.381 148.831ZM223.142 147.683C222.98 147.683 222.829 147.578 222.782 147.416C222.713 147.219 222.829 146.999 223.026 146.929L223.223 146.859C223.235 146.859 223.246 146.859 223.246 146.848C224.139 146.616 225.055 146.349 225.96 146.036C226.157 145.967 226.377 146.071 226.447 146.28C226.516 146.477 226.412 146.697 226.203 146.767C225.287 147.08 224.36 147.358 223.443 147.59L223.258 147.648C223.223 147.683 223.188 147.683 223.142 147.683ZM147.536 146.964C147.49 146.964 147.443 146.952 147.397 146.941C146.388 146.57 145.426 146.175 144.533 145.769C144.336 145.688 144.254 145.456 144.336 145.259C144.417 145.062 144.649 144.981 144.846 145.062C145.727 145.456 146.678 145.851 147.664 146.21C147.861 146.28 147.965 146.5 147.884 146.709C147.838 146.871 147.687 146.964 147.536 146.964ZM228.952 145.711C228.801 145.711 228.662 145.619 228.604 145.48C228.522 145.282 228.615 145.062 228.812 144.981C229.728 144.587 230.656 144.158 231.572 143.694C231.758 143.601 231.99 143.671 232.082 143.868C232.175 144.053 232.106 144.285 231.909 144.378C230.981 144.853 230.03 145.282 229.102 145.688C229.044 145.7 228.998 145.711 228.952 145.711ZM141.947 144.424C141.889 144.424 141.819 144.413 141.761 144.378C140.799 143.833 139.918 143.276 139.141 142.697C138.967 142.569 138.932 142.326 139.059 142.163C139.187 141.989 139.431 141.955 139.593 142.082C140.347 142.639 141.193 143.184 142.132 143.705C142.318 143.81 142.388 144.042 142.283 144.227C142.214 144.355 142.086 144.424 141.947 144.424ZM234.425 142.94C234.297 142.94 234.17 142.871 234.089 142.755C233.984 142.569 234.042 142.337 234.228 142.233C235.097 141.723 235.956 141.178 236.802 140.609C236.976 140.494 237.219 140.54 237.335 140.714C237.451 140.888 237.405 141.131 237.231 141.247C236.373 141.827 235.492 142.372 234.61 142.894C234.552 142.929 234.483 142.94 234.425 142.94ZM137.088 140.737C136.984 140.737 136.879 140.691 136.798 140.609C136.566 140.343 136.346 140.076 136.149 139.809C136.021 139.635 136.056 139.404 136.23 139.276C136.404 139.148 136.636 139.183 136.763 139.357C136.949 139.601 137.146 139.856 137.366 140.099C137.506 140.262 137.494 140.505 137.332 140.644C137.274 140.702 137.181 140.737 137.088 140.737Z" fill="black"/>
<path d="M185.582 139.96C184.562 139.96 183.518 139.937 182.509 139.914C182.3 139.914 182.126 139.728 182.138 139.519C182.138 139.311 182.312 139.148 182.521 139.148H182.532C183.541 139.172 184.573 139.183 185.594 139.195C185.802 139.195 185.976 139.369 185.976 139.577C185.965 139.786 185.791 139.96 185.582 139.96ZM188.655 139.937C188.446 139.937 188.272 139.775 188.272 139.554C188.272 139.346 188.435 139.172 188.655 139.16C189.675 139.148 190.707 139.125 191.716 139.09C191.925 139.079 192.111 139.253 192.111 139.461C192.122 139.67 191.948 139.856 191.739 139.856C190.707 139.902 189.675 139.925 188.655 139.937ZM179.448 139.809H179.436C178.416 139.763 177.372 139.705 176.363 139.647C176.154 139.635 175.992 139.45 176.004 139.241C176.015 139.032 176.189 138.87 176.41 138.882C177.418 138.951 178.45 138.998 179.471 139.044C179.68 139.056 179.842 139.23 179.842 139.438C179.819 139.647 179.645 139.809 179.448 139.809ZM194.778 139.728C194.581 139.728 194.407 139.566 194.395 139.369C194.383 139.16 194.546 138.974 194.754 138.963C195.775 138.905 196.795 138.847 197.804 138.766C198.013 138.754 198.198 138.905 198.21 139.125C198.222 139.334 198.071 139.519 197.851 139.531C196.842 139.601 195.81 139.67 194.778 139.728C194.801 139.728 194.789 139.728 194.778 139.728ZM173.313 139.427C173.302 139.427 173.29 139.427 173.279 139.427C172.258 139.346 171.226 139.241 170.217 139.137C170.009 139.114 169.858 138.928 169.881 138.719C169.904 138.511 170.09 138.36 170.299 138.383C171.296 138.487 172.328 138.592 173.348 138.673C173.557 138.696 173.719 138.882 173.696 139.09C173.685 139.276 173.511 139.427 173.313 139.427ZM200.9 139.276C200.703 139.276 200.541 139.125 200.518 138.928C200.494 138.719 200.657 138.534 200.866 138.511C201.886 138.418 202.906 138.302 203.904 138.186C204.112 138.163 204.31 138.314 204.333 138.522C204.356 138.731 204.205 138.928 203.996 138.951C202.999 139.067 201.967 139.183 200.935 139.276C200.924 139.276 200.912 139.276 200.9 139.276ZM167.214 138.777C167.202 138.777 167.179 138.777 167.168 138.777C166.136 138.65 165.115 138.499 164.118 138.348C163.909 138.314 163.77 138.116 163.793 137.908C163.828 137.699 164.025 137.56 164.234 137.583C165.219 137.734 166.24 137.884 167.26 138.012C167.469 138.035 167.62 138.232 167.597 138.441C167.573 138.638 167.411 138.777 167.214 138.777ZM206.988 138.557C206.803 138.557 206.64 138.418 206.606 138.232C206.571 138.024 206.721 137.826 206.93 137.803C207.951 137.664 208.971 137.502 209.957 137.339C210.166 137.305 210.363 137.444 210.397 137.653C210.432 137.861 210.293 138.058 210.084 138.093C209.099 138.256 208.067 138.418 207.046 138.569C207.023 138.557 207.011 138.557 206.988 138.557ZM161.149 137.838C161.126 137.838 161.103 137.838 161.08 137.827C160.059 137.641 159.039 137.444 158.053 137.235C157.844 137.189 157.717 136.992 157.763 136.783C157.81 136.574 158.007 136.447 158.216 136.493C159.19 136.702 160.198 136.899 161.219 137.084C161.428 137.119 161.567 137.316 161.532 137.525C161.497 137.699 161.335 137.838 161.149 137.838ZM213.041 137.537C212.867 137.537 212.705 137.409 212.67 137.224C212.624 137.015 212.763 136.818 212.972 136.771C213.992 136.574 214.989 136.354 215.963 136.134C216.172 136.087 216.381 136.215 216.427 136.423C216.474 136.632 216.346 136.841 216.137 136.887C215.163 137.108 214.143 137.328 213.122 137.525C213.088 137.537 213.064 137.537 213.041 137.537ZM155.154 136.551C155.119 136.551 155.096 136.551 155.061 136.539C154.041 136.284 153.044 136.018 152.081 135.739C151.872 135.681 151.757 135.473 151.815 135.264C151.872 135.055 152.081 134.939 152.29 134.997C153.241 135.275 154.226 135.542 155.235 135.786C155.444 135.832 155.572 136.041 155.514 136.25C155.479 136.435 155.328 136.551 155.154 136.551ZM219.025 136.168C218.851 136.168 218.7 136.052 218.654 135.878C218.596 135.67 218.723 135.461 218.92 135.415C219.929 135.148 220.915 134.858 221.854 134.568C222.051 134.51 222.272 134.615 222.33 134.823C222.388 135.02 222.283 135.241 222.075 135.299C221.124 135.589 220.126 135.878 219.106 136.157C219.083 136.157 219.048 136.168 219.025 136.168ZM149.263 134.835C149.217 134.835 149.182 134.823 149.136 134.812C148.127 134.475 147.153 134.116 146.237 133.745C146.04 133.664 145.947 133.443 146.028 133.246C146.109 133.049 146.33 132.956 146.527 133.038C147.431 133.397 148.394 133.756 149.391 134.093C149.588 134.162 149.704 134.383 149.634 134.58C149.576 134.742 149.426 134.835 149.263 134.835ZM224.881 134.336C224.718 134.336 224.579 134.243 224.521 134.081C224.452 133.884 224.556 133.664 224.753 133.594C225.751 133.235 226.701 132.864 227.583 132.481C227.78 132.4 228 132.493 228.081 132.678C228.162 132.875 228.07 133.096 227.884 133.177C226.98 133.559 226.017 133.942 225.008 134.313C224.962 134.336 224.916 134.336 224.881 134.336ZM143.581 132.539C143.523 132.539 143.465 132.527 143.419 132.504C142.433 132.029 141.517 131.519 140.694 131.008C140.508 130.892 140.462 130.66 140.566 130.475C140.682 130.289 140.914 130.243 141.1 130.347C141.9 130.846 142.793 131.333 143.755 131.797C143.941 131.89 144.022 132.122 143.929 132.307C143.86 132.458 143.721 132.539 143.581 132.539ZM230.493 131.901C230.354 131.901 230.227 131.832 230.157 131.692C230.053 131.507 230.134 131.275 230.319 131.171C231.27 130.672 232.14 130.15 232.917 129.617C233.091 129.501 233.334 129.536 233.45 129.721C233.566 129.895 233.52 130.139 233.346 130.255C232.557 130.8 231.653 131.333 230.679 131.855C230.621 131.878 230.563 131.901 230.493 131.901ZM138.398 129.281C138.305 129.281 138.224 129.246 138.154 129.188C137.273 128.446 136.554 127.657 136.009 126.88C135.893 126.706 135.928 126.463 136.102 126.347C136.276 126.231 136.519 126.266 136.635 126.44C137.146 127.17 137.83 127.901 138.653 128.608C138.815 128.747 138.839 128.991 138.699 129.153C138.618 129.234 138.514 129.281 138.398 129.281ZM235.503 128.376C235.41 128.376 235.306 128.341 235.236 128.26C235.085 128.109 235.085 127.866 235.236 127.715C236.001 126.95 236.593 126.161 236.987 125.361C237.08 125.176 237.312 125.095 237.497 125.187C237.683 125.28 237.764 125.512 237.671 125.698C237.242 126.567 236.604 127.425 235.781 128.249C235.7 128.341 235.595 128.376 235.503 128.376ZM135.128 124.248C134.942 124.248 134.78 124.121 134.745 123.923C134.687 123.61 134.664 123.286 134.664 122.961C134.664 122.207 134.815 121.454 135.105 120.712C135.186 120.514 135.406 120.422 135.603 120.491C135.8 120.572 135.893 120.793 135.824 120.99C135.569 121.639 135.441 122.3 135.441 122.961C135.441 123.239 135.464 123.518 135.511 123.796C135.545 124.005 135.406 124.202 135.197 124.237C135.163 124.248 135.139 124.248 135.128 124.248ZM237.949 122.973C237.752 122.973 237.578 122.822 237.567 122.613C237.509 121.709 237.207 120.804 236.674 119.9C236.57 119.714 236.628 119.482 236.801 119.378C236.987 119.274 237.219 119.332 237.323 119.506C237.926 120.503 238.263 121.535 238.332 122.567C238.344 122.776 238.181 122.961 237.973 122.973C237.973 122.973 237.961 122.973 237.949 122.973ZM137.099 118.671C137.006 118.671 136.914 118.636 136.844 118.578C136.682 118.439 136.67 118.195 136.809 118.033C137.447 117.326 138.236 116.618 139.152 115.946C139.326 115.818 139.558 115.853 139.685 116.027C139.813 116.201 139.778 116.433 139.604 116.56C138.734 117.21 137.981 117.871 137.378 118.543C137.32 118.624 137.204 118.671 137.099 118.671ZM235.039 117.743C234.946 117.743 234.853 117.708 234.784 117.639C234.111 117.013 233.311 116.398 232.407 115.807C232.233 115.691 232.186 115.447 232.302 115.273C232.418 115.099 232.662 115.053 232.836 115.169C233.775 115.783 234.598 116.433 235.306 117.082C235.456 117.221 235.468 117.465 235.329 117.627C235.248 117.697 235.143 117.743 235.039 117.743ZM141.97 114.983C141.83 114.983 141.703 114.914 141.633 114.786C141.529 114.601 141.598 114.369 141.784 114.264C142.631 113.789 143.57 113.325 144.555 112.873C144.753 112.78 144.973 112.873 145.066 113.07C145.158 113.267 145.066 113.488 144.869 113.58C143.894 114.021 142.99 114.473 142.155 114.937C142.097 114.96 142.039 114.983 141.97 114.983ZM229.971 114.322C229.913 114.322 229.855 114.311 229.798 114.276C228.939 113.835 228.023 113.406 227.038 113.001C226.841 112.919 226.748 112.699 226.829 112.502C226.91 112.305 227.13 112.212 227.328 112.293C228.325 112.711 229.264 113.151 230.134 113.592C230.319 113.685 230.4 113.917 230.296 114.114C230.238 114.253 230.111 114.322 229.971 114.322ZM147.547 112.444C147.396 112.444 147.246 112.351 147.188 112.2C147.118 112.003 147.211 111.783 147.408 111.702C148.092 111.447 148.8 111.192 149.53 110.948C149.797 110.855 150.052 110.774 150.319 110.693C150.516 110.623 150.736 110.739 150.806 110.937C150.875 111.134 150.759 111.354 150.562 111.424C150.295 111.505 150.04 111.597 149.774 111.679C149.055 111.922 148.347 112.166 147.675 112.421C147.64 112.432 147.594 112.444 147.547 112.444ZM224.324 111.934C224.278 111.934 224.243 111.922 224.197 111.911C223.582 111.69 222.944 111.481 222.283 111.273C221.959 111.168 221.622 111.064 221.286 110.971C220.892 110.855 220.509 110.739 220.103 110.635C219.895 110.577 219.779 110.368 219.837 110.16C219.895 109.951 220.103 109.835 220.312 109.893C220.718 110.009 221.112 110.125 221.506 110.241C221.843 110.345 222.179 110.438 222.504 110.554C223.165 110.763 223.814 110.983 224.44 111.192C224.637 111.261 224.742 111.481 224.672 111.679C224.626 111.841 224.487 111.934 224.324 111.934ZM153.392 110.565C153.218 110.565 153.067 110.449 153.021 110.287C152.963 110.078 153.09 109.87 153.287 109.812C154.25 109.545 155.259 109.29 156.279 109.046C156.488 109 156.696 109.128 156.743 109.336C156.789 109.545 156.662 109.754 156.453 109.8C155.444 110.044 154.447 110.287 153.496 110.554C153.45 110.554 153.426 110.565 153.392 110.565ZM217.251 109.881C217.216 109.881 217.193 109.881 217.158 109.87C216.195 109.638 215.187 109.417 214.178 109.197C213.969 109.151 213.841 108.954 213.876 108.745C213.923 108.536 214.12 108.409 214.328 108.443C215.349 108.652 216.358 108.884 217.332 109.116C217.541 109.162 217.668 109.371 217.61 109.58C217.587 109.765 217.425 109.881 217.251 109.881ZM159.352 109.151C159.178 109.151 159.016 109.023 158.981 108.838C158.934 108.629 159.074 108.432 159.282 108.385C160.268 108.188 161.288 107.991 162.309 107.817C162.518 107.783 162.715 107.922 162.75 108.13C162.784 108.339 162.645 108.536 162.436 108.571C161.416 108.745 160.407 108.942 159.433 109.139C159.41 109.151 159.387 109.151 159.352 109.151ZM211.244 108.629C211.221 108.629 211.198 108.629 211.174 108.617C210.189 108.443 209.18 108.281 208.159 108.13C207.951 108.096 207.8 107.898 207.835 107.69C207.869 107.481 208.067 107.342 208.275 107.365C209.296 107.516 210.328 107.69 211.313 107.864C211.522 107.898 211.661 108.096 211.627 108.304C211.592 108.501 211.429 108.629 211.244 108.629ZM165.405 108.096C165.219 108.096 165.057 107.956 165.022 107.771C164.988 107.562 165.138 107.365 165.347 107.33C166.344 107.18 167.365 107.04 168.397 106.924C168.605 106.901 168.803 107.052 168.826 107.261C168.849 107.469 168.698 107.667 168.49 107.69C167.469 107.817 166.449 107.956 165.463 108.096C165.44 108.096 165.417 108.096 165.405 108.096ZM205.179 107.725C205.168 107.725 205.144 107.725 205.133 107.725C204.136 107.597 203.115 107.481 202.095 107.377C201.886 107.353 201.735 107.168 201.747 106.959C201.77 106.751 201.956 106.6 202.164 106.611C203.196 106.716 204.217 106.832 205.226 106.959C205.434 106.982 205.585 107.18 205.562 107.388C205.527 107.574 205.365 107.725 205.179 107.725ZM171.493 107.353C171.296 107.353 171.133 107.203 171.11 107.006C171.087 106.797 171.238 106.611 171.458 106.588C172.467 106.484 173.499 106.391 174.519 106.321C174.728 106.31 174.914 106.461 174.937 106.669C174.949 106.878 174.798 107.064 174.589 107.087C173.569 107.168 172.548 107.261 171.539 107.353C171.516 107.353 171.504 107.353 171.493 107.353ZM199.068 107.098C199.057 107.098 199.045 107.098 199.033 107.098C198.025 107.017 197.004 106.948 195.984 106.89C195.775 106.878 195.613 106.693 195.624 106.484C195.636 106.275 195.81 106.113 196.03 106.124C197.062 106.182 198.094 106.252 199.103 106.333C199.312 106.345 199.474 106.53 199.451 106.751C199.439 106.948 199.265 107.098 199.068 107.098ZM177.604 106.866C177.407 106.866 177.233 106.704 177.221 106.507C177.21 106.298 177.372 106.113 177.581 106.101C178.59 106.043 179.622 105.997 180.654 105.95C180.862 105.939 181.048 106.113 181.048 106.321C181.06 106.53 180.886 106.716 180.677 106.716C179.656 106.751 178.624 106.808 177.616 106.866C177.627 106.866 177.616 106.866 177.604 106.866ZM192.945 106.727H192.934C191.925 106.693 190.893 106.658 189.873 106.635C189.664 106.635 189.49 106.461 189.501 106.24C189.501 106.032 189.687 105.858 189.896 105.869C190.916 105.892 191.948 105.916 192.969 105.962C193.177 105.974 193.34 106.148 193.34 106.356C193.317 106.577 193.143 106.727 192.945 106.727ZM183.738 106.635C183.53 106.635 183.356 106.472 183.356 106.264C183.356 106.055 183.518 105.881 183.727 105.869C184.712 105.846 185.71 105.846 186.695 105.846H186.8C187.008 105.846 187.182 106.02 187.182 106.229C187.182 106.437 187.008 106.611 186.8 106.611H186.695C185.721 106.611 184.724 106.623 183.738 106.635Z" fill="black"/>
<path d="M237.252 107.098C236.613 108.041 235.75 108.954 234.68 109.826C232.161 111.88 228.424 113.778 223.502 115.42L223.501 115.42C213.658 118.701 200.745 120.402 187.753 120.524C174.761 120.646 161.635 119.191 151.357 116.124C151.011 116.029 150.668 115.922 150.342 115.818C150.341 115.817 150.341 115.817 150.34 115.817L150.541 115.192C142.326 112.611 137.366 109.348 135.672 105.939L237.252 107.098ZM237.252 107.098L237.26 116.99V116.991C237.265 118.815 236.214 120.747 233.862 122.665C231.513 124.58 227.939 126.416 223.098 128.032L223.098 128.032C213.425 131.261 200.659 132.952 187.752 133.072C174.848 133.192 161.858 131.741 151.741 128.722C151.57 128.669 151.403 128.619 151.24 128.571L151.239 128.57C151.073 128.521 150.912 128.473 150.748 128.422C145.623 126.806 141.824 124.94 139.319 122.978C136.809 121.011 135.682 119.018 135.682 117.14L135.682 117.139L135.673 107.235L237.252 107.098ZM237.916 116.989C237.928 121.187 233.069 125.396 223.305 128.654L237.916 116.989Z" stroke="black" stroke-width="1.31288"/>
<path d="M186.233 120.259C173.28 120.259 160.977 118.705 151.434 115.864C151.097 115.76 150.761 115.667 150.436 115.563C140.29 112.374 134.677 108.026 134.631 103.33C134.596 98.7611 139.872 94.4707 149.497 91.2588C158.959 88.1048 171.622 86.2959 185.155 86.1684C198.664 86.0408 211.559 87.6062 221.473 90.5631C221.81 90.6674 222.146 90.7602 222.471 90.8645C232.617 94.0533 238.23 98.4016 238.276 103.098C238.311 107.666 233.035 111.957 223.41 115.169C213.948 118.323 201.285 120.132 187.752 120.259C187.254 120.259 186.743 120.259 186.233 120.259ZM186.709 86.9453C173.234 86.9453 159.748 88.6266 149.752 91.9661C140.464 95.0621 135.373 99.0974 135.408 103.307C135.443 107.585 141.009 111.783 150.668 114.821C150.993 114.925 151.329 115.03 151.654 115.122C171.866 121.152 203.952 120.851 223.178 114.427C232.466 111.331 237.557 107.295 237.522 103.086C237.487 98.8075 231.921 94.6099 222.25 91.5719C221.926 91.4675 221.589 91.3631 221.253 91.2704C211.57 88.3831 199.139 86.9453 186.709 86.9453Z" fill="black"/>
<path d="M169.999 168.357C171.299 168.357 172.352 167.304 172.352 166.004C172.352 164.704 171.299 163.65 169.999 163.65C168.698 163.65 167.645 164.704 167.645 166.004C167.645 167.304 168.698 168.357 169.999 168.357Z" fill="white"/>
<path d="M188.77 167.51C188.979 166.227 188.107 165.018 186.824 164.81C185.541 164.602 184.331 165.473 184.123 166.756C183.915 168.04 184.786 169.249 186.07 169.457C187.353 169.665 188.562 168.794 188.77 167.51Z" fill="white"/>
<path d="M202.954 168.357C204.254 168.357 205.308 167.304 205.308 166.004C205.308 164.704 204.254 163.65 202.954 163.65C201.654 163.65 200.6 164.704 200.6 166.004C200.6 167.304 201.654 168.357 202.954 168.357Z" fill="white"/>
<path d="M186.313 116.282C173.36 116.282 161.057 114.728 151.514 111.887C151.177 111.783 150.841 111.69 150.516 111.586C140.335 108.385 134.723 104.026 134.711 99.3062V85.4379C134.711 85.2292 134.885 85.0553 135.094 85.0553C135.302 85.0553 135.476 85.2292 135.476 85.4379L135.488 99.2946C135.499 103.585 141.054 107.794 150.748 110.844C151.073 110.948 151.409 111.052 151.734 111.145C171.946 117.175 204.032 116.873 223.258 110.449C232.511 107.365 237.614 103.341 237.602 99.1438L237.59 85.2872C237.59 85.0785 237.764 84.9045 237.973 84.9045C238.182 84.9045 238.356 85.0785 238.356 85.2872L238.367 99.1438C238.379 103.701 233.091 107.968 223.501 111.168C214.039 114.322 201.376 116.131 187.844 116.259C187.334 116.282 186.823 116.282 186.313 116.282Z" fill="black"/>
<path d="M186.302 102.704C173.349 102.704 161.045 101.15 151.502 98.3089C151.166 98.2046 150.829 98.1118 150.505 98.0074C140.358 94.8187 134.746 90.4704 134.699 85.7742C134.665 81.2055 139.941 76.9152 149.565 73.7032C159.028 70.5493 171.691 68.7404 185.223 68.6128C198.721 68.4853 211.627 70.0507 221.542 73.0075C221.878 73.1119 222.214 73.2046 222.539 73.3206C232.685 76.5094 238.298 80.8577 238.344 85.5539C238.379 90.1225 233.103 94.4128 223.478 97.6248C214.016 100.779 201.353 102.588 187.821 102.715C187.322 102.704 186.812 102.704 186.302 102.704ZM186.777 69.3897C173.302 69.3897 159.816 71.0711 149.821 74.4106C140.532 77.5066 135.442 81.5418 135.476 85.751C135.511 90.0297 141.077 94.2273 150.737 97.2653C151.061 97.3697 151.398 97.474 151.722 97.5668C171.934 103.596 204.02 103.295 223.246 96.8711C232.535 93.7751 237.625 89.7398 237.591 85.5307C237.556 81.2519 231.99 77.0543 222.33 74.0163C222.006 73.912 221.669 73.8076 221.333 73.7148C211.639 70.8276 199.208 69.3897 186.777 69.3897Z" fill="black"/>
<path d="M237.856 67.1519L237.868 81.0085C237.879 85.2061 233.02 89.4152 223.257 92.6736C203.741 99.1903 171.898 99.457 151.501 93.3693C151.164 93.2649 150.84 93.1722 150.503 93.0678C140.171 89.8095 134.976 85.4844 134.976 81.1592L134.965 67.3026C134.976 71.6393 140.16 75.9644 150.492 79.2112C150.817 79.3155 151.153 79.4199 151.489 79.5127C171.886 85.6003 203.729 85.322 223.245 78.8169C233.009 75.5586 237.856 71.3494 237.856 67.1519Z" fill="#FF722C"/>
<path d="M186.198 79.6286C173.245 79.6286 160.942 78.0748 151.398 75.2339C151.062 75.1295 150.726 75.0367 150.401 74.9324C140.22 71.7088 134.607 67.3489 134.596 62.6411L134.584 48.7845C134.584 48.5758 134.758 48.4018 134.967 48.4018C135.175 48.4018 135.349 48.5758 135.349 48.7845C135.361 53.0748 140.915 57.284 150.61 60.3336C150.934 60.438 151.271 60.5423 151.595 60.6351C171.807 66.6648 203.893 66.3633 223.119 59.9394C232.373 56.855 237.464 52.8429 237.464 48.6453C237.464 48.4366 237.637 48.2627 237.846 48.2627C238.055 48.2627 238.229 48.4366 238.229 48.6453C238.229 48.6453 238.229 48.6453 238.229 48.6569L238.24 62.502C238.252 67.059 232.964 71.3262 223.374 74.5265C213.912 77.6805 201.249 79.4894 187.717 79.617C187.207 79.6286 186.708 79.6286 186.198 79.6286ZM135.361 51.7645L135.373 62.6411C135.384 66.9315 140.939 71.1406 150.633 74.1903C150.958 74.2946 151.294 74.399 151.618 74.4917C171.83 80.5214 203.916 80.2199 223.142 73.796C232.396 70.7116 237.487 66.688 237.487 62.4904L237.475 51.6138C235.689 55.0345 230.842 58.1769 223.374 60.6583C213.912 63.8123 201.249 65.6212 187.717 65.7487C174.207 65.8763 161.313 64.3109 151.398 61.354C151.062 61.2497 150.726 61.1569 150.401 61.0525C142.388 58.5479 137.216 55.3128 135.361 51.7645Z" fill="#5479F7"/>
<path d="M186.186 84.2783C173.234 84.2783 160.93 82.7245 151.387 79.8836C151.05 79.7793 150.714 79.6865 150.389 79.5821C140.243 76.3934 134.631 72.0451 134.584 67.3489C134.549 62.7802 139.826 58.4899 149.45 55.278C158.913 52.124 171.575 50.3151 185.108 50.1875C198.617 50.06 211.512 51.6254 221.426 54.5822C221.763 54.6866 222.099 54.7793 222.424 54.8953C232.57 58.0841 238.183 62.4324 238.229 67.1286C238.264 71.6972 232.988 75.9875 223.363 79.1995C213.901 82.3535 201.238 84.1624 187.705 84.2899C187.207 84.2783 186.696 84.2783 186.186 84.2783ZM186.662 50.9644C173.187 50.9644 159.701 52.6458 149.705 55.9853C140.417 59.0813 135.326 63.1165 135.361 67.3257C135.396 71.6044 140.962 75.802 150.621 78.84C150.946 78.9444 151.282 79.0488 151.607 79.1415C171.819 85.1712 203.905 84.8697 223.131 78.4458C232.419 75.3498 237.51 71.3145 237.475 67.1054C237.44 62.8266 231.874 58.6291 222.215 55.591C221.89 55.4867 221.554 55.3823 221.218 55.2895C211.523 52.4023 199.093 50.9644 186.662 50.9644Z" fill="#5479F7"/>
<path d="M238.263 36.0526H134.537V50.118H238.263V36.0526Z" fill="#5479F7"/>
<path d="M221.32 36.4237C221.657 36.5281 221.993 36.6209 222.318 36.7252C242.669 43.1259 243.075 53.6894 223.245 60.2989C203.729 66.8156 171.887 67.0823 151.489 60.9946C151.153 60.8903 150.828 60.7975 150.492 60.6931C130.153 54.2924 129.735 43.7289 149.565 37.1195C169.081 30.6028 200.923 30.3361 221.32 36.4237Z" fill="#FF722C"/>
<path d="M221.611 23.773C221.947 23.8774 222.283 23.9701 222.62 24.0745C243.145 30.4868 243.574 41.0387 223.559 47.6598C203.881 54.1648 171.76 54.4315 151.177 48.3323C150.841 48.2279 150.504 48.1352 150.168 48.0308C129.643 41.6185 129.226 31.0666 149.229 24.4455C168.919 17.9405 201.04 17.6738 221.611 23.773Z" fill="white"/>
<path d="M186.208 53.1096C173.128 53.1096 160.697 51.5558 151.061 48.7033C150.725 48.599 150.388 48.5062 150.052 48.4018C139.813 45.2015 134.154 40.8532 134.119 36.157C134.085 31.5884 139.407 27.298 149.113 24.0977C158.656 20.9321 171.435 19.1232 185.084 19.0072C198.709 18.8797 211.72 20.4451 221.727 23.4135C222.063 23.5179 222.4 23.6222 222.736 23.7266C232.975 26.927 238.645 31.2753 238.68 35.9715C238.715 40.5401 233.393 44.8304 223.687 48.0308C214.143 51.1848 201.364 52.9937 187.716 53.1212C187.206 53.1096 186.707 53.1096 186.208 53.1096ZM186.603 19.7957C173.012 19.7957 159.433 21.4771 149.356 24.805C139.987 27.901 134.85 31.9246 134.885 36.1338C134.919 40.4125 140.532 44.6101 150.284 47.6481C150.609 47.7525 150.945 47.8569 151.281 47.9496C161.08 50.8485 173.638 52.2863 186.197 52.2863C199.787 52.2863 213.366 50.605 223.443 47.2771C232.813 44.1811 237.95 40.1574 237.915 35.9483C237.88 31.6695 232.268 27.4719 222.504 24.4339C222.168 24.3296 221.843 24.2252 221.507 24.1324C211.708 21.2336 199.15 19.7957 186.603 19.7957Z" fill="black"/>
<path d="M186.187 176.161C173.292 176.161 161.058 174.561 151.561 171.627C151.225 171.523 150.889 171.419 150.564 171.314C140.383 167.998 134.782 163.476 134.782 158.582L134.48 38.5805C134.48 38.3718 134.654 38.1978 134.863 38.1978C135.072 38.1978 135.246 38.3718 135.246 38.5805L135.547 158.594C135.547 163.058 141.113 167.43 150.808 170.595C151.132 170.7 151.469 170.804 151.793 170.908C171.993 177.158 204.08 176.799 223.306 170.108C232.571 166.885 237.673 162.699 237.673 158.327L237.476 38.1862C237.476 37.9775 237.65 37.8036 237.859 37.8036C238.067 37.8036 238.241 37.9775 238.241 38.1862L238.438 158.327C238.438 163.047 233.151 167.488 223.561 170.827C214.098 174.12 201.424 176.01 187.892 176.161C187.323 176.161 186.755 176.161 186.187 176.161Z" fill="black"/>
<path d="M203.324 93.7867C203.138 93.7867 202.976 93.6476 202.941 93.462C202.906 93.2533 203.045 93.0562 203.266 93.0214C204.286 92.8591 205.295 92.6967 206.292 92.5344C206.501 92.4996 206.698 92.6387 206.733 92.8475C206.768 93.0562 206.628 93.2533 206.42 93.2881C205.422 93.4504 204.402 93.6128 203.382 93.7751C203.358 93.7751 203.347 93.7867 203.324 93.7867ZM209.377 92.7663C209.191 92.7663 209.029 92.6387 209.006 92.4532C208.971 92.2445 209.11 92.0474 209.319 92.0126C210.362 91.8271 211.383 91.6299 212.322 91.4444C212.531 91.398 212.728 91.5372 212.774 91.7459C212.821 91.9546 212.681 92.1517 212.473 92.1981C211.522 92.3836 210.501 92.5808 209.446 92.7663C209.423 92.7663 209.4 92.7663 209.377 92.7663ZM215.395 91.5604C215.221 91.5604 215.059 91.4444 215.024 91.2589C214.977 91.0502 215.105 90.8414 215.314 90.7951C216.346 90.5631 217.343 90.3196 218.282 90.0761C218.491 90.0182 218.7 90.1457 218.746 90.3544C218.804 90.5631 218.677 90.7719 218.468 90.8182C217.529 91.0618 216.52 91.3053 215.476 91.5372C215.453 91.5604 215.418 91.5604 215.395 91.5604ZM221.332 90.0182C221.17 90.0182 221.019 89.9138 220.961 89.7399C220.903 89.5427 221.019 89.3224 221.216 89.2644C222.237 88.963 223.211 88.6383 224.104 88.302C224.301 88.2324 224.521 88.3368 224.591 88.5339C224.66 88.7311 224.556 88.9514 224.359 89.0209C223.443 89.3572 222.457 89.6819 221.425 89.995C221.402 90.0182 221.367 90.0182 221.332 90.0182ZM227.084 87.9078C226.933 87.9078 226.794 87.8266 226.736 87.6875C226.643 87.4903 226.736 87.27 226.933 87.1773C227.907 86.7366 228.811 86.2728 229.623 85.7974C229.809 85.693 230.041 85.751 230.145 85.9365C230.249 86.1221 230.191 86.354 230.006 86.4583C229.171 86.9453 228.232 87.4208 227.246 87.873C227.2 87.8962 227.142 87.9078 227.084 87.9078Z" fill="white"/>
<path d="M202.674 88.4991C202.477 88.4991 202.314 88.3484 202.291 88.1512C202.268 87.9425 202.43 87.757 202.639 87.7338C203.66 87.641 204.692 87.5367 205.689 87.4207C205.898 87.3975 206.095 87.5483 206.118 87.757C206.141 87.9657 205.99 88.1628 205.782 88.186C204.773 88.302 203.752 88.4063 202.72 88.4991C202.697 88.4991 202.686 88.4991 202.674 88.4991ZM208.773 87.7918C208.588 87.7918 208.426 87.6526 208.391 87.4671C208.356 87.2584 208.507 87.0613 208.715 87.0265C209.736 86.8757 210.745 86.7134 211.73 86.5395C211.939 86.5047 212.136 86.6438 212.171 86.8525C212.206 87.0613 212.067 87.2584 211.858 87.2932C210.872 87.4671 209.84 87.641 208.82 87.7918C208.808 87.7918 208.797 87.7918 208.773 87.7918ZM214.815 86.7018C214.641 86.7018 214.479 86.5742 214.444 86.4003C214.397 86.1916 214.525 85.9945 214.734 85.9481C215.743 85.7278 216.74 85.4843 217.702 85.2408C217.911 85.1828 218.12 85.3103 218.166 85.5191C218.224 85.7278 218.097 85.9365 217.888 85.9829C216.914 86.238 215.905 86.4815 214.885 86.7018C214.873 86.7018 214.838 86.7018 214.815 86.7018ZM220.752 85.148C220.59 85.148 220.439 85.0436 220.381 84.8813C220.323 84.6842 220.427 84.4639 220.636 84.4059C221.622 84.0928 222.596 83.7681 223.524 83.4203C223.721 83.3507 223.941 83.4435 224.022 83.6406C224.092 83.8377 223.999 84.058 223.802 84.1392C222.863 84.4871 221.877 84.8233 220.88 85.1364C220.822 85.1364 220.787 85.148 220.752 85.148ZM226.492 83.0028C226.341 83.0028 226.202 82.9217 226.144 82.7709C226.063 82.5738 226.144 82.3535 226.341 82.2607C227.292 81.8433 228.208 81.3911 229.066 80.9272C229.252 80.8229 229.484 80.8925 229.588 81.078C229.693 81.2635 229.623 81.4954 229.437 81.5998C228.556 82.0752 227.628 82.5274 226.654 82.9564C226.596 82.9912 226.55 83.0028 226.492 83.0028ZM231.884 80.0808C231.757 80.0808 231.641 80.0228 231.56 79.9068C231.444 79.7329 231.49 79.4894 231.664 79.3734C231.884 79.2227 232.116 79.072 232.336 78.9212C232.51 78.8053 232.754 78.84 232.87 79.014C232.986 79.1879 232.951 79.4314 232.777 79.5474C232.557 79.6981 232.325 79.8604 232.093 80.0112C232.035 80.0576 231.954 80.0808 231.884 80.0808Z" fill="white"/>
<path d="M171.839 93.5665C171.828 93.5665 171.828 93.5665 171.816 93.5665C170.784 93.5085 169.752 93.4273 168.743 93.3346C168.534 93.3114 168.372 93.1259 168.395 92.9171C168.418 92.7084 168.604 92.5577 168.813 92.5693C169.81 92.662 170.83 92.7432 171.862 92.8012C172.071 92.8128 172.234 92.9983 172.222 93.207C172.21 93.4041 172.036 93.5665 171.839 93.5665ZM165.728 92.9867C165.717 92.9867 165.693 92.9867 165.67 92.9867C164.65 92.8476 163.618 92.6852 162.62 92.5113C162.412 92.4765 162.273 92.2794 162.307 92.0707C162.342 91.8619 162.551 91.7228 162.748 91.7576C163.734 91.9315 164.754 92.0939 165.763 92.233C165.972 92.2562 166.122 92.4533 166.088 92.662C166.088 92.8476 165.914 92.9867 165.728 92.9867ZM159.698 91.8967C159.675 91.8967 159.64 91.8967 159.617 91.8851C158.608 91.6532 157.611 91.3981 156.625 91.1314C156.417 91.0734 156.301 90.8647 156.359 90.656C156.417 90.4473 156.625 90.3313 156.834 90.3893C157.808 90.656 158.794 90.9111 159.791 91.1314C160 91.1778 160.127 91.3865 160.081 91.5952C160.023 91.7692 159.872 91.8967 159.698 91.8967ZM153.784 90.2502C153.75 90.2502 153.703 90.2386 153.668 90.227C152.694 89.9023 151.72 89.5544 150.758 89.195C150.561 89.1138 150.456 88.8935 150.537 88.6964C150.619 88.4992 150.839 88.3949 151.036 88.4761C151.987 88.8355 152.949 89.1834 153.912 89.4965C154.109 89.566 154.225 89.7748 154.155 89.9835C154.097 90.1574 153.947 90.2502 153.784 90.2502Z" fill="white"/>
<path d="M171.839 88.4528C171.828 88.4528 171.828 88.4528 171.816 88.4528C170.784 88.3949 169.752 88.3137 168.743 88.2209C168.534 88.1977 168.384 88.0122 168.395 87.8035C168.418 87.5948 168.604 87.444 168.813 87.4556C169.81 87.5484 170.842 87.6296 171.851 87.6875C172.06 87.6991 172.222 87.8847 172.21 88.0934C172.21 88.2905 172.036 88.4528 171.839 88.4528ZM165.728 87.8615C165.705 87.8615 165.693 87.8615 165.67 87.8615C164.65 87.7223 163.629 87.56 162.62 87.3745C162.412 87.3397 162.273 87.1426 162.307 86.9338C162.342 86.7251 162.539 86.586 162.748 86.6208C163.734 86.7947 164.754 86.957 165.763 87.0962C165.972 87.1194 166.122 87.3165 166.088 87.5252C166.088 87.7223 165.914 87.8615 165.728 87.8615ZM159.698 86.7599C159.675 86.7599 159.64 86.7599 159.617 86.7483C158.608 86.5164 157.611 86.2729 156.625 85.9946C156.417 85.9366 156.301 85.7279 156.359 85.5192C156.417 85.3105 156.625 85.1945 156.834 85.2525C157.808 85.5192 158.794 85.7743 159.791 85.9946C160 86.041 160.127 86.2497 160.081 86.4584C160.035 86.6439 159.872 86.7599 159.698 86.7599ZM153.784 85.1365C153.75 85.1365 153.703 85.1249 153.668 85.1133C152.694 84.7887 151.709 84.4524 150.758 84.0813C150.561 84.0002 150.456 83.7799 150.537 83.5827C150.619 83.3856 150.839 83.2812 151.036 83.3624C151.975 83.7219 152.938 84.0581 153.912 84.3828C154.109 84.4524 154.225 84.6611 154.155 84.8698C154.097 85.0322 153.947 85.1365 153.784 85.1365Z" fill="white"/>
<path d="M312.376 159.707H221.463C220.42 159.707 219.596 158.872 219.62 157.829L220.721 108.559C220.744 107.527 221.603 106.681 222.646 106.681H313.559C314.602 106.681 315.426 107.516 315.402 108.559L314.301 157.829C314.289 158.861 313.42 159.707 312.376 159.707Z" fill="white"/>
<path d="M312.376 160.09H221.463C220.849 160.09 220.28 159.858 219.863 159.417C219.445 158.988 219.225 158.42 219.237 157.817L220.338 108.548C220.362 107.307 221.405 106.298 222.646 106.298H313.558C314.173 106.298 314.741 106.53 315.159 106.971C315.576 107.4 315.797 107.968 315.785 108.571L314.683 157.84C314.66 159.081 313.628 160.09 312.376 160.09ZM222.658 107.064C221.823 107.064 221.127 107.736 221.115 108.559L220.014 157.829C220.002 158.223 220.153 158.594 220.42 158.872C220.698 159.151 221.069 159.313 221.475 159.313H312.387C313.222 159.313 313.918 158.64 313.93 157.817L315.031 108.548C315.043 108.153 314.892 107.782 314.625 107.504C314.347 107.226 313.976 107.064 313.57 107.064H222.658Z" fill="black"/>
<path d="M243.033 139.755L242.665 156.55H234.798L235.167 139.755H243.033Z" stroke="black" stroke-width="0.656441"/>
<path d="M232.202 144.312L231.927 156.55H224.072L224.336 144.312H232.202Z" stroke="black" stroke-width="0.656441"/>
<path d="M254.001 130.989L253.425 156.55H245.558L246.135 130.989H254.001Z" stroke="black" stroke-width="0.656441"/>
<path d="M265.124 136.16L264.675 156.55H256.808L257.258 136.16H265.124Z" stroke="black" stroke-width="0.656441"/>
<path d="M276.557 127.382L275.911 156.55H268.045L268.702 127.382H276.557Z" stroke="black" stroke-width="0.656441"/>
<path d="M287.631 135.059L287.159 156.202H279.293L279.765 135.059H287.631Z" stroke="black" stroke-width="0.656441"/>
<path d="M298.96 126.934L298.317 155.873H291.107L291.75 126.934H298.96Z" stroke="black" stroke-width="1.31288"/>
<path d="M310.117 119.872L309.322 155.873H302.113L302.918 119.872H310.117Z" stroke="black" stroke-width="1.31288"/>
<path d="M230.045 135.414C229.917 135.414 229.801 135.357 229.72 135.241C229.604 135.067 229.65 134.823 229.824 134.707L249.445 121.709C249.596 121.604 249.793 121.627 249.92 121.755L257.921 129.385L273.263 119.216C273.414 119.111 273.611 119.134 273.738 119.262L282.435 127.819L307.935 110.971C308.109 110.855 308.352 110.902 308.468 111.076C308.584 111.249 308.538 111.493 308.364 111.609L282.609 128.631C282.459 128.735 282.261 128.712 282.134 128.585L273.437 120.027L258.107 130.197C257.956 130.301 257.759 130.278 257.632 130.15L249.63 122.52L230.265 135.345C230.184 135.391 230.114 135.414 230.045 135.414Z" fill="black"/>
<path d="M252.216 121.975C252.181 123.367 251.022 124.549 249.63 124.619C248.227 124.689 247.126 123.622 247.149 122.242C247.184 120.851 248.343 119.668 249.735 119.598C251.138 119.517 252.251 120.584 252.216 121.975Z" fill="black"/>
<path d="M275.978 119.378C275.943 120.769 274.784 121.952 273.392 122.022C271.989 122.091 270.887 121.025 270.911 119.645C270.945 118.253 272.105 117.07 273.496 117.001C274.9 116.931 276.013 117.998 275.978 119.378Z" fill="#5479F7"/>
<path d="M260.646 129.628C260.611 131.02 259.452 132.203 258.06 132.272C256.657 132.342 255.555 131.275 255.578 129.895C255.613 128.504 256.773 127.321 258.164 127.251C259.568 127.17 260.681 128.237 260.646 129.628Z" fill="black"/>
<path d="M232.642 134.939C232.607 136.331 231.448 137.513 230.056 137.583C228.653 137.653 227.551 136.586 227.575 135.206C227.609 133.814 228.769 132.632 230.16 132.562C231.564 132.481 232.677 133.548 232.642 134.939Z" fill="white"/>
<path d="M229.917 137.977C229.186 137.977 228.514 137.71 228.003 137.212C227.458 136.69 227.18 135.971 227.192 135.194C227.227 133.617 228.548 132.261 230.149 132.168C230.937 132.121 231.668 132.4 232.224 132.922C232.769 133.443 233.048 134.162 233.036 134.939C233.001 136.516 231.679 137.873 230.079 137.966C230.021 137.977 229.963 137.977 229.917 137.977ZM230.299 132.945C230.265 132.945 230.218 132.945 230.184 132.945C228.978 133.003 227.98 134.023 227.957 135.217C227.946 135.774 228.154 136.296 228.537 136.667C228.931 137.05 229.453 137.235 230.033 137.212C231.239 137.154 232.236 136.134 232.259 134.939C232.271 134.383 232.062 133.861 231.679 133.49C231.32 133.13 230.833 132.945 230.299 132.945Z" fill="black"/>
<path d="M284.974 127.993C284.939 129.385 283.78 130.568 282.388 130.637C280.985 130.707 279.883 129.64 279.907 128.26C279.941 126.869 281.101 125.686 282.493 125.616C283.896 125.535 284.997 126.602 284.974 127.993Z" fill="black"/>
<path d="M310.683 111.168C310.648 112.56 309.489 113.742 308.097 113.812C306.694 113.882 305.592 112.815 305.616 111.435C305.65 110.044 306.81 108.861 308.202 108.791C309.605 108.71 310.718 109.777 310.683 111.168Z" fill="#5479F7"/>
<path d="M307.958 114.195C307.227 114.195 306.555 113.928 306.044 113.429C305.499 112.908 305.221 112.189 305.233 111.412C305.268 109.835 306.589 108.478 308.19 108.385C308.978 108.339 309.709 108.617 310.265 109.139C310.81 109.661 311.089 110.38 311.077 111.157C311.042 112.734 309.72 114.09 308.12 114.183C308.062 114.195 308.004 114.195 307.958 114.195ZM308.34 109.162C308.306 109.162 308.259 109.162 308.225 109.162C307.019 109.22 306.021 110.241 305.998 111.435C305.987 111.992 306.195 112.513 306.578 112.884C306.972 113.267 307.506 113.453 308.074 113.429C309.28 113.371 310.277 112.351 310.3 111.157C310.312 110.6 310.103 110.078 309.72 109.707C309.361 109.359 308.874 109.162 308.34 109.162Z" fill="black"/>
<path d="M265.522 30.5916H206.95C204.666 30.5916 202.811 32.4468 202.811 34.7312V99.3529C202.811 101.637 204.666 103.493 206.95 103.493H265.522C267.806 103.493 269.661 101.637 269.661 99.3529V34.7312C269.661 32.4468 267.806 30.5916 265.522 30.5916Z" fill="white"/>
<path d="M265.521 103.864H206.95C204.457 103.864 202.428 101.834 202.428 99.3413V34.7311C202.428 32.2381 204.457 30.2089 206.95 30.2089H265.521C268.015 30.2089 270.044 32.2381 270.044 34.7311V99.3529C270.044 101.846 268.015 103.864 265.521 103.864ZM206.95 30.9742C204.874 30.9742 203.193 32.6555 203.193 34.7311V99.3529C203.193 101.428 204.874 103.11 206.95 103.11H265.521C267.597 103.11 269.279 101.428 269.279 99.3529V34.7311C269.279 32.6555 267.597 30.9742 265.521 30.9742H206.95Z" fill="black"/>
<path d="M266.426 37.7691H206.103C205.895 37.7691 205.721 37.5952 205.721 37.3864C205.721 37.1777 205.895 37.0038 206.103 37.0038H266.426C266.634 37.0038 266.808 37.1777 266.808 37.3864C266.808 37.5952 266.634 37.7691 266.426 37.7691Z" fill="black"/>
<path d="M208.226 33.7803C208.226 34.3716 207.75 34.8354 207.17 34.8354C206.579 34.8354 206.115 34.36 206.115 33.7803C206.115 33.1889 206.591 32.7251 207.17 32.7251C207.75 32.7135 208.226 33.1889 208.226 33.7803Z" fill="white"/>
<path d="M212.47 33.7803C212.47 34.3717 211.994 34.8355 211.415 34.8355C210.835 34.8355 210.359 34.3601 210.359 33.7803C210.359 33.1889 210.835 32.7251 211.415 32.7251C211.994 32.7251 212.47 33.1889 212.47 33.7803Z" fill="white"/>
<path d="M216.714 33.7803C216.714 34.3716 216.239 34.8354 215.659 34.8354C215.067 34.8354 214.604 34.36 214.604 33.7803C214.604 33.1889 215.079 32.7251 215.659 32.7251C216.239 32.7135 216.714 33.1889 216.714 33.7803Z" fill="white"/>
<path d="M266.425 34.1629H260.453C260.244 34.1629 260.07 33.989 260.07 33.7802C260.07 33.5715 260.244 33.3976 260.453 33.3976H266.425C266.634 33.3976 266.808 33.5715 266.808 33.7802C266.808 33.989 266.634 34.1629 266.425 34.1629Z" fill="black"/>
<path d="M257.763 34.1629H233.006C232.797 34.1629 232.623 33.989 232.623 33.7802C232.623 33.5715 232.797 33.3976 233.006 33.3976H257.763C257.972 33.3976 258.146 33.5715 258.146 33.7802C258.146 33.989 257.972 34.1629 257.763 34.1629Z" fill="black"/>
<path d="M226.501 34.1629H221.236C221.027 34.1629 220.854 33.989 220.854 33.7802C220.854 33.5715 221.027 33.3976 221.236 33.3976H226.501C226.709 33.3976 226.883 33.5715 226.883 33.7802C226.883 33.989 226.709 34.1629 226.501 34.1629Z" fill="black"/>
<path d="M226.093 65.1692C228.018 61.7949 231.613 59.4178 235.776 58.9772L236.066 42.4884C224.087 42.5232 213.523 49.2718 208.699 59.2555L226.093 65.1692Z" fill="white"/>
<path d="M226.092 65.5518C226.045 65.5518 226.011 65.5402 225.964 65.5286L208.582 59.6033C208.477 59.5686 208.396 59.4874 208.35 59.383C208.303 59.2787 208.315 59.1627 208.361 59.0699C213.325 48.7963 224.19 42.1289 236.064 42.0941C236.157 42.0941 236.261 42.1405 236.343 42.2101C236.412 42.2796 236.459 42.384 236.459 42.4884L236.169 58.9772C236.169 59.1743 236.018 59.3366 235.821 59.3482C231.855 59.7541 228.341 62.0036 226.428 65.3431C226.358 65.4823 226.231 65.5518 226.092 65.5518ZM209.243 59.0236L225.918 64.7054C227.924 61.389 231.426 59.1511 235.403 58.6409L235.682 42.871C224.399 43.0565 214.101 49.3413 209.243 59.0236Z" fill="black"/>
<path d="M225.281 47.3469C225.131 47.3469 224.992 47.2541 224.922 47.1034C224.841 46.9063 224.934 46.686 225.131 46.6048C227.844 45.5032 230.708 44.8191 233.631 44.564C233.839 44.5408 234.025 44.7031 234.048 44.9118C234.071 45.1206 233.909 45.3061 233.7 45.3293C230.847 45.5728 228.064 46.2453 225.421 47.3121C225.374 47.3469 225.328 47.3469 225.281 47.3469Z" fill="black"/>
<path d="M215.737 53.7128C215.644 53.7128 215.54 53.678 215.47 53.6084C215.32 53.4577 215.32 53.2142 215.47 53.0635C217.523 50.9763 219.9 49.2137 222.532 47.8223C222.718 47.7295 222.95 47.7991 223.054 47.9846C223.147 48.1701 223.077 48.4021 222.892 48.5064C220.329 49.8515 218.01 51.5676 216.015 53.6084C215.934 53.678 215.83 53.7128 215.737 53.7128Z" fill="black"/>
<path d="M249.202 72.4745C248.216 77.8896 243.288 82.1567 237.235 82.3423C235.426 82.4003 233.71 82.0872 232.144 81.4726L222.705 96.0945C227.088 98.0774 232.051 99.0514 237.235 98.7499C252.31 97.8803 264.172 86.5283 265.483 72.8687L249.202 72.4745Z" fill="white"/>
<path d="M235.427 99.1905C230.962 99.1905 226.544 98.2513 222.543 96.454C222.439 96.4076 222.369 96.3148 222.335 96.2105C222.3 96.1061 222.323 95.9901 222.381 95.8974L231.82 81.2754C231.925 81.1247 232.11 81.0551 232.284 81.1247C233.85 81.7393 235.519 82.0176 237.224 81.9596C242.976 81.7856 247.857 77.762 248.832 72.4049C248.866 72.2193 249.017 72.0918 249.214 72.0918L265.495 72.486C265.599 72.486 265.704 72.5324 265.773 72.6136C265.843 72.6948 265.878 72.7991 265.866 72.9035C264.509 86.992 252.206 98.2745 237.259 99.1325C236.644 99.1673 236.03 99.1905 235.427 99.1905ZM223.262 95.9322C227.588 97.8106 232.4 98.6455 237.201 98.3672C251.638 97.5323 263.535 86.7717 265.054 73.2398L249.504 72.8687C248.333 78.4114 243.231 82.5394 237.236 82.7249C235.519 82.7829 233.861 82.5162 232.284 81.948L223.262 95.9322Z" fill="black"/>
<path d="M235.392 96.8249C232.203 96.8249 229.084 96.3147 226.127 95.3175C225.93 95.2479 225.814 95.0276 225.884 94.8305C225.953 94.6333 226.173 94.5174 226.371 94.587C229.246 95.561 232.273 96.048 235.392 96.048C235.949 96.048 236.517 96.0364 237.074 96.0016C237.282 95.99 237.468 96.1524 237.48 96.3611C237.491 96.5698 237.329 96.7553 237.12 96.7669C236.552 96.8017 235.972 96.8249 235.392 96.8249Z" fill="black"/>
<path d="M243.057 95.8045C242.883 95.8045 242.732 95.6885 242.686 95.5262C242.628 95.3175 242.756 95.1088 242.953 95.0508C252.821 92.3606 260.439 84.522 262.376 75.0949C262.422 74.8862 262.619 74.7586 262.828 74.7934C263.037 74.8398 263.164 75.0369 263.13 75.2456C261.147 84.9627 253.308 93.0216 243.161 95.7929C243.127 95.7929 243.092 95.8045 243.057 95.8045Z" fill="black"/>
<path d="M219.749 94.5638L229.281 79.907C226.428 77.7967 224.596 74.5151 224.596 70.793C224.596 69.8885 224.701 69.0189 224.909 68.1724L207.457 62.3282C206.518 65.0764 206.02 67.9985 206.02 71.0249C206.008 81.0434 211.516 89.6705 219.749 94.5638Z" fill="white"/>
<path d="M219.749 94.9465C219.679 94.9465 219.61 94.9349 219.552 94.8885C210.832 89.7169 205.625 80.7883 205.625 71.0133C205.625 68.0101 206.112 65.0416 207.086 62.1891C207.156 61.992 207.376 61.8877 207.573 61.9456L225.025 67.7898C225.211 67.8478 225.327 68.0449 225.28 68.242C225.083 69.0653 224.979 69.9233 224.979 70.7698C224.979 74.2369 226.625 77.4488 229.501 79.5824C229.663 79.6984 229.71 79.9303 229.594 80.1042L220.062 94.7609C219.992 94.8769 219.876 94.9465 219.749 94.9465ZM207.701 62.7921C206.831 65.4475 206.402 68.2072 206.402 71.0017C206.402 80.3825 211.342 88.9748 219.633 94.0304L228.771 79.9767C225.872 77.7039 224.225 74.3644 224.225 70.7698C224.225 69.9697 224.306 69.1812 224.468 68.4043L207.701 62.7921Z" fill="black"/>
<path d="M241.191 58.3511C246.699 59.1744 250.932 63.4416 251.442 68.7175L278.078 69.4944C278.078 69.4828 278.078 69.4712 278.078 69.4596C278.078 49.9212 262.516 33.2005 241.678 31.0553L241.191 58.3511Z" fill="#FF722C"/>
<path d="M278.066 69.877L251.431 69.1001C251.233 69.1001 251.083 68.9494 251.059 68.7523C250.572 63.6502 246.491 59.5338 241.133 58.7337C240.948 58.7106 240.809 58.5366 240.809 58.3511L241.284 31.0437C241.284 30.9393 241.33 30.8349 241.412 30.7654C241.493 30.6958 241.597 30.661 241.701 30.6726C251.836 31.7162 261.16 36.2616 267.955 43.4741C274.715 50.6517 278.449 59.8817 278.449 69.4596C278.449 69.5639 278.403 69.6799 278.333 69.7495C278.264 69.819 278.171 69.877 278.066 69.877ZM251.79 68.3464L277.695 69.1001C277.51 49.84 262.273 33.7686 242.061 31.4843L241.597 58.038C247.001 58.9772 251.129 63.1516 251.79 68.3464Z" fill="black"/>
<path d="M136.946 251.548C135.023 237.144 131.979 217.372 131.979 217.372L71.1376 206.801L65.0632 224.027C63.2505 229.243 60.7599 236.95 58.4353 246.442C58.0893 247.854 111.666 263.295 136.946 251.548Z" fill="black"/>
<path d="M118.683 124.128C127.386 124.086 135.342 129.012 139.148 136.788C143.562 145.796 149.788 169.359 150.024 179.654C150.452 197.641 134.692 198.665 134.222 198.693C134.222 198.693 134.208 198.693 134.208 198.706C134.263 199.232 136.104 218.783 136.242 222.242C136.505 228.593 124.729 238.5 111.211 233.616C97.7612 228.759 60.9962 219.087 57.2602 227.32C57.2602 227.334 57.2326 227.32 57.2464 227.32L72.6747 170.106C72.6747 170.093 72.6747 170.093 72.6608 170.093L60 170.701L49.6914 164.738V164.724L52.3066 153.157C57.2602 133.426 70.5299 124.349 87.6463 124.28L118.683 124.128Z" fill="white"/>
<path d="M78.0989 168.266C75.7328 167.824 76.3831 165.084 68.0671 164.586C44.0737 163.161 55.7106 150.971 69.4508 153.295C74.0032 154.07 75.802 157.003 77.5039 157.764C91.8806 164.032 82.8035 169.138 78.0989 168.266Z" fill="white"/>
<path d="M79.248 168.82C78.8191 168.82 78.404 168.778 78.0165 168.709C77.1171 168.543 76.5775 168.073 76.0102 167.588C74.9309 166.647 73.4503 165.361 68.0401 165.042C60.2083 164.572 55.227 162.87 54.0232 160.227C53.5112 159.106 53.7187 157.861 54.6043 156.713C56.7352 153.932 62.9065 151.732 69.5206 152.852C72.7308 153.392 74.6403 154.983 76.024 156.159C76.6467 156.685 77.1863 157.142 77.6844 157.349C85.2395 160.642 86.1665 163.506 85.6131 165.333C84.9489 167.491 81.8771 168.82 79.248 168.82ZM65.923 153.461C61.0524 153.461 56.9289 155.191 55.3238 157.266C54.632 158.166 54.4798 159.023 54.8534 159.854C55.3515 160.933 57.6208 163.506 68.0816 164.129C73.8101 164.475 75.429 165.873 76.6052 166.896C77.131 167.353 77.5184 167.685 78.1687 167.81C80.5487 168.252 84.1187 167.035 84.7275 165.056C85.3502 163.022 82.6519 160.504 77.3109 158.179C76.702 157.917 76.107 157.418 75.429 156.851C74.0453 155.689 72.3157 154.25 69.3546 153.752C68.1923 153.558 67.0438 153.461 65.923 153.461Z" fill="black"/>
<path d="M150.025 179.654C149.776 169.359 143.549 145.796 139.149 136.788C135.344 129.012 127.387 124.1 118.684 124.128L87.6474 124.266C70.5311 124.349 57.2614 133.426 52.2939 153.171L49.7617 164.364C49.2912 166.232 40.4909 202.013 58.8803 207.244C60.1118 207.59 61.3156 207.811 62.4779 207.922L57.2475 227.32C57.2475 227.334 57.2614 227.334 57.2614 227.32C60.9974 219.088 97.7485 228.759 111.212 233.616C124.731 238.5 136.506 228.593 136.243 222.242C136.091 218.769 134.25 199.218 134.209 198.707C134.209 198.707 134.209 198.693 134.223 198.693C134.693 198.665 150.454 197.655 150.025 179.654Z" fill="#FF722C"/>
<path d="M118.546 235.359C116.042 235.359 113.51 234.93 111.061 234.045C97.2789 229.077 61.1643 219.821 57.6912 227.514C57.5944 227.735 57.3315 227.846 57.1101 227.763C56.8887 227.68 56.7503 227.431 56.8057 227.209L61.8977 208.323C60.8599 208.198 59.8083 207.991 58.7567 207.686C50.9803 205.472 46.843 197.475 46.7877 184.552C46.7462 174.7 49.0569 165.305 49.3198 164.267L51.852 153.074C54.2873 143.402 58.7428 135.972 65.1355 130.991C71.1685 126.273 78.7512 123.865 87.6484 123.824L118.685 123.685C118.726 123.685 118.754 123.685 118.795 123.685C127.582 123.685 135.718 128.749 139.565 136.595C143.868 145.381 150.247 169.124 150.496 179.654C150.897 196.493 137.462 198.817 134.722 199.108C134.999 202.027 136.59 219.018 136.714 222.228C136.839 225.162 134.653 228.648 131 231.333C127.361 233.989 123.002 235.359 118.546 235.359ZM67.0174 223.681C80.2456 223.681 102.316 229.921 111.365 233.187C117.882 235.539 125.022 234.57 130.446 230.586C133.795 228.123 135.898 224.857 135.787 222.27C135.649 218.797 133.767 198.955 133.753 198.748C133.739 198.623 133.781 198.499 133.864 198.402C133.947 198.305 134.072 198.25 134.196 198.236C134.846 198.194 149.984 197.157 149.569 179.667C149.32 169.235 142.996 145.699 138.735 136.982C135.04 129.441 127.222 124.585 118.782 124.585C118.754 124.585 118.712 124.585 118.685 124.585L87.6484 124.723C69.7433 124.806 57.3453 134.948 52.7376 153.281L50.2054 164.461C49.818 165.983 41.0038 201.681 59.0057 206.801C60.1819 207.133 61.3719 207.354 62.5203 207.451C62.6587 207.465 62.7832 207.534 62.8524 207.645C62.9355 207.755 62.9493 207.894 62.9216 208.032L58.2032 225.521C60.0158 224.221 63.143 223.681 67.0174 223.681Z" fill="black"/>
<path d="M108.291 127.504C109.093 126.826 108.664 125.512 107.613 125.387L105.98 125.193C104.237 124.986 102.77 123.824 102.202 122.219L99.5181 102.432L94.0248 104.397L86.7604 100.8L87.4107 121.942C87.3554 123.782 86.1515 125.415 84.3804 126.051L82.2495 126.812C81.1287 127.213 81.0733 128.722 82.1665 129.206C86.5113 131.074 104.098 131.088 108.291 127.504Z" fill="white"/>
<path d="M92.89 130.922C88.1992 130.922 83.8682 130.424 82.0002 129.607C81.3222 129.317 80.9209 128.68 80.9486 127.947C80.9763 127.213 81.4191 126.619 82.1248 126.356L84.2557 125.595C85.8608 125.013 86.94 123.574 86.9815 121.9L86.3312 100.786C86.3312 100.62 86.4004 100.468 86.5388 100.385C86.6771 100.302 86.8432 100.288 86.9954 100.357L94.0938 103.871L99.4072 101.976C99.5317 101.934 99.6839 101.948 99.7946 102.017C99.9192 102.086 99.9883 102.211 100.016 102.349L102.687 122.094C103.212 123.533 104.499 124.543 106.063 124.737L107.696 124.93C108.374 125.013 108.913 125.47 109.107 126.12C109.301 126.757 109.107 127.421 108.609 127.85C106.035 130.036 99.1443 130.922 92.89 130.922ZM87.2583 101.533L87.881 121.914C87.8256 123.99 86.5111 125.761 84.5462 126.466L82.4153 127.227C82.0694 127.352 81.8619 127.629 81.848 127.974C81.8342 128.32 82.0279 128.611 82.36 128.763C86.3589 130.507 103.932 130.617 107.986 127.144C108.208 126.951 108.291 126.66 108.208 126.369C108.138 126.134 107.931 125.871 107.557 125.83L105.924 125.636C104.001 125.401 102.41 124.142 101.773 122.357C101.759 122.329 101.759 122.302 101.746 122.26L99.1443 103.027L94.1768 104.798C94.0661 104.84 93.9277 104.826 93.817 104.785L87.2583 101.533Z" fill="black"/>
<path d="M101.983 86.6867C111.351 90.1319 109.732 96.1923 109.732 96.1923C109.621 97.8527 109.552 100.911 109.856 102.017C110.119 102.931 111.614 104.646 111.683 105.158C111.752 105.67 110.95 106.708 109.317 107.082C109.317 107.082 108.708 115.176 106.577 116.504C104.46 117.833 96.2823 115.287 96.2823 115.287L94.9124 114.733C90.4846 112.962 87.7725 109.268 86.4857 104.688C86.4857 104.688 80.5219 78.7861 101.983 86.6867Z" fill="white"/>
<path d="M104.584 117.334C101.456 117.334 96.8073 115.923 96.1569 115.715C96.1431 115.715 96.1292 115.702 96.1292 115.702L94.7594 115.148C90.4976 113.432 87.4949 109.863 86.0697 104.812C85.9452 104.259 83.1501 91.806 88.8787 86.7696C91.7429 84.2375 96.2123 84.0714 102.162 86.2576C111.336 89.6337 110.34 95.6387 110.215 96.2614C110.091 98.0186 110.049 100.897 110.326 101.893C110.437 102.308 110.935 103.027 111.336 103.609C111.834 104.342 112.125 104.757 112.166 105.089C112.277 105.864 111.336 106.971 109.786 107.427C109.634 109.115 108.942 115.577 106.867 116.878C106.313 117.21 105.511 117.334 104.584 117.334ZM96.4475 114.844C98.6753 115.536 104.764 117.099 106.355 116.103C107.752 115.231 108.652 110.07 108.873 107.026C108.887 106.832 109.025 106.653 109.233 106.611C110.658 106.279 111.253 105.421 111.239 105.2C111.198 105.048 110.838 104.508 110.561 104.107C110.077 103.401 109.579 102.681 109.427 102.114C109.053 100.8 109.205 97.3544 109.288 96.1368C109.288 96.1092 109.288 96.0815 109.302 96.0538C109.357 95.8186 110.658 90.3394 101.83 87.0878C96.2261 85.0262 92.0612 85.1369 89.4598 87.4199C84.1464 92.0966 86.9138 104.425 86.9415 104.549C88.2837 109.295 91.1064 112.671 95.0915 114.263L96.4475 114.844Z" fill="black"/>
<path d="M98.8942 82.3004C101.357 82.8954 103.765 84.4312 105.038 84.5696C107.086 84.791 108.566 82.162 111.168 83.1167C113.451 83.9608 114.724 85.8979 115.056 88.084C115.111 88.4438 115.125 88.8312 115.084 89.2463C114.599 94.767 111.14 95.9431 109.742 96.1922C109.742 96.1922 101.606 95.445 100.029 95.8186C98.5483 96.1784 96.2514 98.489 95.5595 101.768C95.4765 102.197 95.1029 102.502 94.674 102.529C94.162 102.571 93.7054 102.225 93.6223 101.713C93.3456 100.136 92.6122 96.9809 91.0072 96.8979C89.1392 96.7872 86.7592 100.481 89.2083 102.792C89.9555 103.498 89.7065 104.798 88.7517 105.186C87.9492 105.504 86.9529 105.532 85.8736 104.646C85.8736 104.646 81.0583 96.206 83.3553 89.0803C85.6246 81.9822 95.6149 81.4979 98.8942 82.3004Z" fill="black"/>
<path d="M111.971 105.006C111.847 105.006 111.722 104.951 111.639 104.854C111.473 104.674 111.473 104.383 111.667 104.203C112.234 103.678 112.636 102.502 112.705 101.215C112.746 100.274 112.622 99.4022 112.345 98.7381C112.11 98.1984 111.805 97.8664 111.515 97.8525H111.501C111.017 97.8525 110.38 98.6827 110.103 100.122C110.062 100.371 109.813 100.537 109.564 100.481C109.315 100.44 109.149 100.191 109.204 99.9418C109.564 98.0878 110.519 96.884 111.57 96.9393C112.234 96.967 112.815 97.4928 113.203 98.3783C113.535 99.167 113.687 100.191 113.632 101.256C113.549 102.806 113.037 104.19 112.304 104.881C112.193 104.964 112.082 105.006 111.971 105.006Z" fill="black"/>
<path d="M105.578 105.546C105.551 105.546 105.509 105.546 105.468 105.546C104.651 105.504 103.932 104.978 103.434 104.079C102.977 103.249 102.756 102.17 102.811 101.035C102.936 98.5859 104.305 96.7456 105.911 96.8286C106.727 96.8701 107.446 97.3959 107.945 98.2953C108.401 99.1255 108.623 100.205 108.567 101.339C108.457 103.719 107.156 105.546 105.578 105.546ZM105.828 97.7418C104.79 97.7418 103.835 99.25 103.738 101.09C103.683 102.045 103.863 102.958 104.25 103.636C104.596 104.259 105.039 104.605 105.523 104.632C106.589 104.688 107.571 103.152 107.668 101.284C107.723 100.329 107.53 99.416 107.156 98.7381C106.81 98.1154 106.367 97.7695 105.883 97.7418C105.869 97.7418 105.841 97.7418 105.828 97.7418Z" fill="black"/>
<path d="M103.572 99.8034C103.558 99.8034 103.544 99.8034 103.53 99.8034L94.5916 99.0009C94.3425 98.9733 94.1488 98.7519 94.1765 98.5028C94.2041 98.2538 94.4255 98.06 94.6746 98.0877L103.613 98.8902C103.862 98.9179 104.056 99.1393 104.028 99.3883C104.001 99.6236 103.807 99.8034 103.572 99.8034Z" fill="black"/>
<path d="M89.334 138.407C89.334 138.407 92.8071 143.859 95.9481 142.904C97.5947 142.392 99.1998 137.01 99.8639 136.83C101.967 136.221 105.966 135.225 108.415 130.839C110.712 126.743 110.214 124.557 109.619 123.547C109.342 123.076 109.356 122.509 109.647 122.066C110.09 121.416 110.505 120.434 110.062 119.424C109.91 119.064 109.923 118.663 110.076 118.303C110.657 116.947 111.736 113.82 109.633 113.211C109.066 113.045 108.457 113.253 108.097 113.737C107.433 114.65 106.035 116.393 104.319 117.486C101.884 119.036 100.431 120.088 99.2136 120.78C98.162 121.374 97.6224 116.158 95.104 114.193C92.8763 112.45 92.1152 113.336 91.8938 114.152C91.6724 114.968 93.0561 115.3 93.8449 119.188C94.7719 123.741 93.8033 127.573 93.5266 129.621C93.1945 132.015 89.334 138.407 89.334 138.407Z" fill="white"/>
<path d="M95.1881 143.471C92.061 143.471 89.086 138.864 88.9476 138.656C88.8508 138.504 88.8508 138.324 88.9476 138.172C88.9892 138.103 92.7667 131.835 93.0849 129.552C93.1264 129.22 93.1956 128.832 93.2648 128.403C93.6246 126.245 94.1642 122.993 93.417 119.258C92.9604 116.988 92.2962 115.978 91.8949 115.37C91.5905 114.913 91.3414 114.525 91.4798 114C91.6459 113.377 92.0195 112.948 92.5176 112.782C93.2648 112.533 94.2195 112.865 95.4095 113.806C96.8624 114.941 97.6926 117.044 98.2876 118.593C98.5367 119.23 98.8688 120.088 99.0902 120.323C99.7405 119.949 100.488 119.451 101.415 118.842C102.176 118.331 103.048 117.763 104.113 117.085C105.76 116.034 107.116 114.359 107.766 113.46C108.223 112.824 109.039 112.547 109.8 112.768C110.409 112.948 110.852 113.322 111.115 113.861C111.723 115.148 111.128 117.085 110.533 118.483C110.423 118.732 110.423 119.008 110.52 119.23C110.935 120.185 110.782 121.25 110.063 122.302C109.869 122.592 109.855 122.98 110.049 123.298C110.782 124.543 111.17 126.909 108.845 131.046C106.396 135.419 102.411 136.567 100.28 137.19L100.073 137.245C99.8789 137.439 99.4914 138.297 99.1594 138.988C98.1077 141.244 97.2222 142.987 96.1152 143.333C95.7831 143.43 95.4787 143.471 95.1881 143.471ZM89.8747 138.393C90.9263 139.943 93.6384 143.125 95.8108 142.461C96.6272 142.212 97.6373 140.04 98.3015 138.601C98.9933 137.107 99.2977 136.498 99.7267 136.373L99.9896 136.29C102.148 135.668 105.746 134.63 108.015 130.59C110.229 126.632 109.717 124.598 109.219 123.754C108.845 123.132 108.873 122.371 109.274 121.776C109.648 121.222 110.021 120.406 109.662 119.576C109.454 119.119 109.468 118.58 109.675 118.095C110.409 116.393 110.63 114.982 110.27 114.221C110.132 113.917 109.883 113.723 109.523 113.612C109.136 113.502 108.721 113.64 108.499 113.972C107.807 114.927 106.382 116.698 104.597 117.832C103.546 118.51 102.674 119.078 101.913 119.59C100.944 120.24 100.169 120.752 99.4638 121.153C99.2562 121.264 99.0348 121.292 98.8273 121.222C98.26 121.029 97.9417 120.185 97.4436 118.925C96.8763 117.486 96.1014 115.508 94.856 114.525C93.6384 113.571 93.0572 113.571 92.8082 113.654C92.5453 113.737 92.4207 114.027 92.3654 114.249C92.3377 114.359 92.3931 114.47 92.656 114.871C93.0987 115.536 93.8183 116.642 94.3164 119.078C95.1051 122.98 94.5516 126.328 94.178 128.556C94.1088 128.971 94.0397 129.344 93.9982 129.676C93.6799 131.904 90.5942 137.176 89.8747 138.393Z" fill="black"/>
<path d="M90.264 134.118C90.264 134.118 76.0257 157.142 65.2328 164.959C64.5271 165.471 63.7384 165.817 62.9082 166.066V207.949C91.2464 209.734 100.808 140.829 100.808 140.829L90.264 134.118Z" fill="white"/>
<path d="M132.562 199.592C120.676 199.592 103.588 190.059 92.0614 181.466C91.8538 181.314 91.8123 181.023 91.9645 180.83C92.1167 180.622 92.4073 180.581 92.601 180.733C104.708 189.754 122.973 199.827 134.596 198.568C134.845 198.54 135.067 198.72 135.094 198.969C135.122 199.218 134.942 199.44 134.693 199.467C134.015 199.564 133.296 199.592 132.562 199.592Z" fill="black"/>
<path d="M116.538 170.632C109.952 170.632 97.8168 164.946 97.2495 164.683C97.0143 164.572 96.9174 164.309 97.0281 164.074C97.1388 163.839 97.4017 163.742 97.6369 163.852C97.7891 163.922 112.664 170.895 118.157 169.539C127.373 167.284 125.269 155.813 125.173 155.329C125.131 155.08 125.283 154.845 125.532 154.79C125.781 154.734 126.017 154.9 126.072 155.149C126.1 155.274 128.452 167.962 118.379 170.425C117.839 170.577 117.216 170.632 116.538 170.632Z" fill="black"/>
<path d="M64.3049 166.509C64.1665 166.509 64.0281 166.44 63.9313 166.329C63.7791 166.122 63.8206 165.845 64.0281 165.693C75.3745 157.211 89.4467 133.938 89.5851 133.703C89.7096 133.481 90.0002 133.412 90.2078 133.551C90.4292 133.675 90.4983 133.966 90.36 134.173C90.2216 134.408 76.0525 157.847 64.5678 166.426C64.4986 166.481 64.4017 166.509 64.3049 166.509Z" fill="black"/>
<path d="M63.3913 208.807C62.99 208.807 62.5749 208.793 62.1736 208.752C61.9245 208.724 61.7308 208.503 61.7585 208.254C61.7862 208.005 62.0076 207.811 62.2566 207.839C75.1942 208.959 84.8525 190.723 90.6778 175.24C96.5724 159.549 99.8241 143.444 100.295 141.05L95.9636 138.297C95.756 138.158 95.6868 137.881 95.8252 137.66C95.9636 137.453 96.2403 137.383 96.4617 137.522L101.056 140.441C101.208 140.538 101.291 140.732 101.263 140.912C101.235 141.091 97.9423 158.567 91.5496 175.558C87.7859 185.562 83.704 193.435 79.4145 198.969C74.3502 205.5 68.9676 208.807 63.3913 208.807Z" fill="black"/>
</svg>
