<svg width="361" height="343" viewBox="0 0 361 343" fill="none" xmlns="http://www.w3.org/2000/svg">
<g clip-path="url(#clip0_3749_3986)">
<path d="M343.421 281.343H288.375V285.768H343.421V281.343Z" fill="#1D2332"/>
<path d="M318.75 410L425 227.001L318.75 44H106.25L0 227.001L106.25 410H318.75Z" fill="#E3E3E3"/>
<path d="M211.725 275.993C221.088 269.1 224.484 256.547 219.442 245.847C217.281 241.32 213.886 237.513 212.137 232.883C209.462 225.68 211.211 217.552 212.96 210.041" stroke="#1D2332" stroke-width="6.17339" stroke-miterlimit="10" stroke-linecap="round" stroke-linejoin="round"/>
<path d="M245.06 278.771H184.973C183.738 278.771 182.606 277.742 182.606 276.405V275.89C182.606 274.656 183.635 273.524 184.973 273.524H245.06C246.295 273.524 247.427 274.553 247.427 275.89V276.405C247.324 277.64 246.295 278.771 245.06 278.771Z" fill="#1D2332"/>
<path d="M315.952 250.374H117.889C115.625 250.374 113.773 248.522 113.773 246.258V130.61C113.773 128.346 115.625 126.494 117.889 126.494H315.952C318.215 126.494 320.067 128.346 320.067 130.61V246.258C320.067 248.522 318.215 250.374 315.952 250.374Z" fill="white"/>
<path d="M318.934 136.269H114.697V241.011H318.934V136.269Z" fill="#4F5865"/>
<path d="M156.06 146.455H133.424V149.747H156.06V146.455Z" fill="white"/>
<path d="M198.246 146.455H160.28V149.747H198.246V146.455Z" fill="white"/>
<path d="M247.015 146.455H202.669V149.747H247.015V146.455Z" fill="white"/>
<path d="M268.724 146.455H251.747V149.747H268.724V146.455Z" fill="white"/>
<path d="M200.508 154.686H195.158V157.978H200.508V154.686Z" fill="white"/>
<path d="M212.956 154.686H210.487V157.978H212.956V154.686Z" fill="white"/>
<path d="M255.966 154.686H215.221V157.978H255.966V154.686Z" fill="white"/>
<path d="M272.838 154.686H260.903V157.978H272.838V154.686Z" fill="white"/>
<path d="M207.402 154.686H202.669V157.978H207.402V154.686Z" fill="white"/>
<path d="M193.408 154.686H171.698V157.978H193.408V154.686Z" fill="white"/>
<path d="M169.231 154.686H140.731V157.978H169.231V154.686Z" fill="white"/>
<path d="M138.157 154.686H133.424V157.978H138.157V154.686Z" fill="white"/>
<path d="M137.642 162.814H133.424V166.106H137.642V162.814Z" fill="white"/>
<path d="M182.298 162.814H141.245V166.106H182.298V162.814Z" fill="white"/>
<path d="M251.439 162.814H186.722V166.106H251.439V162.814Z" fill="white"/>
<path d="M272.941 162.814H253.7V166.106H272.941V162.814Z" fill="white"/>
<path d="M268.209 170.942H218.513V174.235H268.209V170.942Z" fill="white"/>
<path d="M141.243 170.942H133.424V174.235H141.243V170.942Z" fill="white"/>
<path d="M183.735 170.942H144.637V174.235H183.735V170.942Z" fill="white"/>
<path d="M211.621 170.942H186.207V174.235H211.621V170.942Z" fill="white"/>
<path d="M167.791 179.174H160.28V182.466H167.791V179.174Z" fill="white"/>
<path d="M156.883 179.174H133.424V182.466H156.883V179.174Z" fill="white"/>
<path d="M177.565 179.174H170.569V182.466H177.565V179.174Z" fill="white"/>
<path d="M211.828 179.174H180.343V182.466H211.828V179.174Z" fill="white"/>
<path d="M230.554 179.174H216.355V182.466H230.554V179.174Z" fill="white"/>
<path d="M251.231 179.174H236.724V182.466H251.231V179.174Z" fill="white"/>
<path d="M268.21 179.174H258.435V182.466H268.21V179.174Z" fill="white"/>
<path d="M241.868 187.302H225.92V190.594H241.868V187.302Z" fill="white"/>
<path d="M141.758 187.302H133.424V190.594H141.758V187.302Z" fill="white"/>
<path d="M187.645 187.302H147.724V190.594H187.645V187.302Z" fill="white"/>
<path d="M201.847 187.302H193.719V190.594H201.847V187.302Z" fill="white"/>
<path d="M218.618 187.302H205.756V190.594H218.618V187.302Z" fill="white"/>
<path d="M269.033 187.302H249.484V190.594H269.033V187.302Z" fill="white"/>
<path d="M156.06 194.607H133.424V197.9H156.06V194.607Z" fill="white"/>
<path d="M198.246 194.607H160.28V197.9H198.246V194.607Z" fill="white"/>
<path d="M247.015 194.607H202.669V197.9H247.015V194.607Z" fill="white"/>
<path d="M268.724 194.607H251.747V197.9H268.724V194.607Z" fill="white"/>
<path d="M200.508 202.838H195.158V206.131H200.508V202.838Z" fill="white"/>
<path d="M212.956 202.838H210.487V206.131H212.956V202.838Z" fill="white"/>
<path d="M255.966 202.838H215.221V206.131H255.966V202.838Z" fill="white"/>
<path d="M272.838 202.838H260.903V206.131H272.838V202.838Z" fill="white"/>
<path d="M207.402 202.838H202.669V206.131H207.402V202.838Z" fill="white"/>
<path d="M193.408 202.838H171.698V206.131H193.408V202.838Z" fill="white"/>
<path d="M169.231 202.838H140.731V206.131H169.231V202.838Z" fill="white"/>
<path d="M138.157 202.838H133.424V206.131H138.157V202.838Z" fill="white"/>
<path d="M137.642 210.967H133.424V214.259H137.642V210.967Z" fill="white"/>
<path d="M182.298 210.967H141.245V214.259H182.298V210.967Z" fill="white"/>
<path d="M251.439 210.967H186.722V214.259H251.439V210.967Z" fill="white"/>
<path d="M272.941 210.967H253.7V214.259H272.941V210.967Z" fill="white"/>
<path d="M268.209 219.095H218.513V222.388H268.209V219.095Z" fill="white"/>
<path d="M141.243 219.095H133.424V222.388H141.243V219.095Z" fill="white"/>
<path d="M183.735 219.095H144.637V222.388H183.735V219.095Z" fill="white"/>
<path d="M211.621 219.095H186.207V222.388H211.621V219.095Z" fill="white"/>
<path d="M167.791 227.327H160.28V230.619H167.791V227.327Z" fill="white"/>
<path d="M156.883 227.327H133.424V230.619H156.883V227.327Z" fill="white"/>
<path d="M177.565 227.327H170.569V230.619H177.565V227.327Z" fill="white"/>
<path d="M211.828 227.327H180.343V230.619H211.828V227.327Z" fill="white"/>
<path d="M230.554 227.327H216.355V230.619H230.554V227.327Z" fill="white"/>
<path d="M251.231 227.327H236.724V230.619H251.231V227.327Z" fill="white"/>
<path d="M268.21 227.327H258.435V230.619H268.21V227.327Z" fill="white"/>
<path d="M241.868 235.455H225.92V238.747H241.868V235.455Z" fill="white"/>
<path d="M141.758 235.455H133.424V238.747H141.758V235.455Z" fill="white"/>
<path d="M187.645 235.455H147.724V238.747H187.645V235.455Z" fill="white"/>
<path d="M201.847 235.455H193.719V238.747H201.847V235.455Z" fill="white"/>
<path d="M218.618 235.455H205.756V238.747H218.618V235.455Z" fill="white"/>
<path d="M269.033 235.455H249.484V238.747H269.033V235.455Z" fill="white"/>
<path d="M63.5611 241.01C59.0339 236.998 54.9183 232.265 52.1403 226.812C50.8027 224.137 49.7738 221.256 49.1565 218.375C48.8478 216.934 48.642 215.391 48.5391 213.95C48.4363 213.23 48.8478 210.246 48.4363 209.732C51.4201 213.333 55.8443 215.082 58.931 218.375C62.1206 221.667 65.1044 225.989 67.0593 230.104C68.1911 232.574 69.1172 235.146 69.5287 237.821C69.7345 239.056 70.5576 243.583 69.3229 244.509C68.9114 244.817 67.8824 244.2 67.5738 243.994C66.1333 243.171 64.7958 242.039 63.5611 241.01Z" fill="#4F5865"/>
<path d="M75.0872 272.495C74.4698 253.666 67.4733 235.146 55.5381 220.638" stroke="#1D2332" stroke-width="0.51445" stroke-miterlimit="10" stroke-linecap="round" stroke-linejoin="round"/>
<path d="M67.9861 246.669C65.7225 244.612 62.8416 243.377 59.7549 242.862C56.7711 242.348 53.6843 242.451 50.5976 242.862C46.9965 243.274 43.3954 244.097 40 245.229C41.7491 248.316 44.9387 250.476 48.3341 251.814C51.1121 252.843 54.0959 253.357 57.0797 253.357C61.4011 253.357 65.8254 252.328 70.1467 252.431C70.867 252.431 71.5872 252.431 72.1017 252.946C71.4843 250.579 69.8381 248.316 67.9861 246.669Z" fill="#4F5865"/>
<path d="M71.9978 252.637C69.4256 249.859 66.0302 248.419 62.3262 247.904C58.5193 247.39 54.7123 247.698 51.0083 248.11" stroke="#1D2332" stroke-width="0.51445" stroke-miterlimit="10" stroke-linecap="round" stroke-linejoin="round"/>
<path d="M89.9035 243.686C88.4631 245.949 86.4053 247.801 84.8619 249.962C83.833 251.402 83.3186 253.048 82.4954 254.592C81.4665 256.547 80.3348 258.399 78.6885 260.045C78.4827 260.251 78.1741 260.559 77.8654 260.457C77.6596 260.457 77.4539 260.251 77.2481 259.942C76.0134 258.09 76.1163 255.929 76.322 253.872C76.5278 251.402 76.8365 248.933 77.2481 246.464C77.6596 244.303 78.1741 242.039 79.3059 240.084C80.3348 238.232 81.5694 236.998 83.0099 235.454C85.0677 233.294 86.8168 230.721 88.0515 227.943C89.1833 230.104 90.2122 232.162 90.8295 234.425C91.4469 236.689 91.6526 239.158 90.8295 241.422C90.7266 242.245 90.418 242.965 89.9035 243.686Z" fill="#4F5865"/>
<path d="M76.8353 269.717C76.218 264.984 77.8642 260.354 78.3786 255.621C78.8931 250.682 80.5393 245.846 83.1116 241.525" stroke="#1D2332" stroke-width="0.51445" stroke-miterlimit="10" stroke-linecap="round" stroke-linejoin="round"/>
<path d="M54.3 266.116C55.5347 273.524 60.1648 281.241 66.4411 285.047C66.8526 285.356 67.3671 285.459 67.8815 285.459H81.9774C82.4919 285.459 83.0064 285.356 83.4179 285.047C89.6942 281.241 94.3242 273.524 95.5589 266.116H54.3Z" fill="#1D2332"/>
<path d="M349.079 285.665H41.7466V293.279H349.079V285.665Z" fill="white"/>
<path d="M349.079 307.786H41.7466V315.4H349.079V307.786Z" fill="white"/>
<path d="M63.8695 288.237H59.3423V370.241H63.8695V288.237Z" fill="white"/>
<path d="M331.074 288.237H326.547V370.241H331.074V288.237Z" fill="white"/>
<path d="M225.824 177.836C227.984 176.19 230.454 175.161 232.512 173.412C234.467 171.766 236.216 169.708 237.965 167.753C240.434 165.078 247.019 158.39 250.106 163.123C253.09 167.65 254.839 172.28 255.044 177.631C255.147 180.717 255.147 183.907 254.736 186.891C254.324 189.463 253.604 192.035 252.369 194.299C251.238 196.357 249.797 198.106 248.048 199.649C246.608 200.987 244.755 203.044 242.801 203.662C238.479 205.102 233.335 204.794 229.013 203.353C227.47 202.839 225.927 202.118 224.589 201.089C220.885 198.209 219.547 193.064 219.753 188.331C219.856 186.479 220.165 184.524 220.988 182.878C222.12 180.923 223.869 179.277 225.824 177.836Z" fill="#1D2332"/>
<path d="M91.2431 190.183C91.0373 189.669 90.8316 189.051 90.6258 188.537C89.494 185.965 87.642 183.598 85.4813 181.849C83.938 180.614 82.2917 179.688 80.7484 178.557C78.8964 177.116 76.8385 175.984 74.9865 174.544C72.8258 172.898 70.6652 171.149 68.5045 169.502C67.99 169.091 67.3727 168.782 66.8582 168.988C66.3438 169.194 66.138 169.708 66.0351 170.223C65.6235 172.177 66.8582 173.927 68.2987 175.161C70.0478 176.807 72.2085 178.248 73.5461 180.409C76.2212 184.524 70.6651 183.495 68.7102 181.335C67.7842 180.306 67.1669 178.968 66.5495 177.631C65.6235 175.47 65.3149 173.103 64.6975 170.84C64.4918 170.017 63.6686 165.592 61.9195 167.445C61.6108 167.753 61.5079 168.268 61.405 168.782C61.1993 170.12 61.1993 171.457 61.405 172.795C60.9935 172.486 60.3762 173.001 60.1704 173.412C59.553 174.544 59.8617 175.676 59.2444 176.705C58.5242 177.836 58.1126 179.071 58.3184 180.512C58.4212 181.643 58.9357 182.775 59.4501 183.804C60.9935 186.994 63.4628 191.521 66.5495 193.373C69.842 195.328 73.7518 196.768 76.3241 199.546C77.1472 200.472 77.5588 201.604 77.8674 202.736C83.0119 217.861 85.5842 233.911 89.494 249.448C91.5518 257.679 93.9183 265.91 97.3137 273.627C98.6512 276.714 102.252 283.196 105.133 285.048C108.117 287.105 108.837 284.533 112.541 283.813C115.731 283.196 118.2 280.829 120.464 278.463C123.859 274.862 128.078 269.923 128.284 264.675C128.386 260.457 126.843 255.21 124.991 251.506C124.477 250.58 124.065 249.654 123.551 248.728C118.406 239.673 110.998 231.751 106.471 222.388C105.442 220.227 104.413 218.066 103.384 215.906C100.503 209.629 97.6223 203.353 94.7414 197.18C94.0212 195.636 93.3009 194.093 92.4778 192.55C91.7576 191.727 91.5518 190.903 91.2431 190.183Z" fill="white" stroke="#1D2332" stroke-width="1.0289" stroke-miterlimit="10" stroke-linecap="round" stroke-linejoin="round"/>
<path d="M61.4043 172.28C61.8159 173.618 62.1245 175.058 62.5361 176.396C63.3592 179.277 64.2852 182.363 66.5488 184.113" stroke="#1D2332" stroke-width="1.0289" stroke-miterlimit="10" stroke-linecap="round" stroke-linejoin="round"/>
<path d="M59.3464 176.499C60.0667 180.203 61.61 183.701 63.8736 186.788C64.0794 187.097 64.2852 187.302 64.4909 187.508" stroke="#1D2332" stroke-width="1.0289" stroke-miterlimit="10" stroke-linecap="round" stroke-linejoin="round"/>
<path d="M91.1419 189.463C91.039 190.595 90.9361 191.624 90.6274 192.652L91.1419 189.463Z" fill="white"/>
<path d="M91.1419 189.463C91.039 190.595 90.9361 191.624 90.6274 192.652" stroke="#1D2332" stroke-width="1.0289" stroke-miterlimit="10" stroke-linecap="round" stroke-linejoin="round"/>
<path d="M227.467 168.885C227.467 167.342 227.467 165.798 227.364 164.358L199.069 164.255C199.172 173.001 198.76 181.129 198.246 188.743C197.937 192.447 197.731 195.019 196.394 198.106C202.259 200.575 206.374 203.559 212.65 204.279C218.412 204.896 225.717 204.999 230.862 202.324C226.746 191.212 227.775 179.894 227.467 168.885Z" fill="#00AF9D"/>
<path d="M264.921 337.83C266.361 337.521 267.801 337.213 269.242 336.595C273.872 334.641 277.37 330.113 278.09 325.072C279.119 317.87 274.901 310.976 273.46 303.774C272.843 300.378 272.843 296.777 271.197 293.69C270.477 292.25 269.448 291.015 268.727 289.678C266.052 284.739 268.213 279.903 268.007 274.656C267.801 269.82 267.39 264.881 267.39 259.943C267.39 256.65 267.39 253.255 268.007 250.065C268.625 246.67 269.756 243.377 270.374 239.982C273.563 223.211 264.2 202.427 248.767 194.71C235.494 188.125 220.266 186.273 205.347 186.582C192.486 186.891 164.294 193.681 156.475 203.868C146.288 217.243 151.742 236.586 162.236 248.11C160.384 258.811 158.635 269.511 157.401 280.315C156.372 289.678 157.606 299.761 154.211 308.609C153.594 310.256 152.77 311.902 152.462 313.651C152.153 315.297 152.359 316.944 152.565 318.59C153.799 327.335 157.812 336.39 165.632 340.711C171.291 343.798 177.979 344.004 184.461 343.901C209.874 343.695 235.185 341.02 260.496 338.345C261.937 338.242 263.48 338.139 264.921 337.83Z" fill="#00AF9D"/>
<path d="M191.766 187.92C178.596 189.977 166.352 195.328 155.755 203.456C148.758 208.806 142.688 215.288 137.029 221.976C131.576 228.355 126.74 237.204 120.258 242.451C116.965 237.615 114.084 232.471 111.512 227.121C110.895 225.783 110.277 224.343 109.248 223.211C108.528 222.388 107.705 221.667 107.088 220.844C106.162 219.507 105.956 217.758 105.442 216.214C104.927 214.671 103.692 213.025 102.046 212.922C96.6959 217.963 88.3618 218.375 82.4971 222.902C82.1884 223.108 81.8798 223.417 81.7769 223.725C81.674 224.034 81.674 224.445 81.7769 224.754C82.8058 230.516 83.7318 236.381 84.7607 242.142C85.7896 247.801 86.2011 254.181 87.9503 259.634C89.6994 267.453 92.4774 275.376 98.1364 281.035C100.503 283.401 104.824 285.459 108.014 286.694C112.129 288.34 116.862 288.649 121.287 288.546C130.341 288.34 139.395 285.15 146.495 279.389C149.376 277.022 151.948 274.244 154.52 271.466C159.15 266.425 163.78 262 166.867 255.93C168.925 251.814 171.188 247.904 173.452 243.892C174.789 241.422 182.609 224.445 186.21 225.166C188.062 225.577 190.017 225.886 191.972 226.092C191.972 221.153 192.281 216.317 192.486 211.378C192.589 208.806 192.692 206.131 192.795 203.456C192.795 201.707 191.869 199.135 192.281 197.488C193.31 193.578 195.264 189.977 197.94 186.891C195.985 187.302 193.824 187.611 191.766 187.92Z" fill="#00AF9D"/>
<path d="M223.869 188.537C229.836 189.36 230.145 189.463 236.113 190.183C256.485 192.55 275.519 214.054 287.557 228.87C297.023 240.497 314.926 261.486 310.193 277.846C307.209 288.032 294.348 290.604 285.191 288.958C272.021 286.591 262.761 276.096 255.044 265.91C252.369 262.309 230.865 225.063 229.733 225.269C227.881 225.68 225.926 225.989 223.972 226.195V188.537H223.869Z" fill="#00AF9D"/>
<path d="M218.518 138.738C216.049 133.594 212.139 130.301 206.994 127.935C203.805 126.494 200.101 125.774 196.705 126.803C195.059 127.215 193.619 128.038 192.178 128.861C190.944 129.478 189.812 130.096 188.783 131.022C186.211 133.285 184.564 137.298 183.844 140.487C183.227 143.163 182.815 145.941 182.404 148.719C181.581 150.879 180.552 153.04 179.008 154.686C178.391 155.304 178.597 156.332 179.42 156.641C180.14 156.95 180.963 157.156 181.786 157.259C181.786 159.008 181.786 160.757 181.786 162.506C181.992 166.827 182.712 171.56 186.211 174.132C192.281 178.454 205.76 174.647 211.007 170.428C215.843 166.621 218.827 160.86 220.061 154.789C221.193 149.439 220.782 143.677 218.518 138.738Z" fill="white" stroke="#1D2332" stroke-width="1.0289" stroke-miterlimit="10" stroke-linecap="round" stroke-linejoin="round"/>
<path d="M181.684 160.551C182.404 161.065 183.33 161.168 184.256 160.962L181.684 160.551Z" fill="white"/>
<path d="M181.684 160.551C182.404 161.065 183.33 161.168 184.256 160.962" stroke="#1D2332" stroke-width="1.0289" stroke-miterlimit="10" stroke-linecap="round" stroke-linejoin="round"/>
<path d="M187.239 146.455C187.033 146.043 186.827 145.529 186.621 145.014C186.107 143.471 187.033 142.545 185.49 141.208C185.181 141.002 183.638 140.282 182.609 140.179C182.094 140.179 181.785 139.561 181.888 139.15C183.329 133.079 188.37 128.141 194.235 125.671C200.511 122.996 207.508 122.584 214.402 122.79C219.443 122.893 224.999 123.51 228.703 127.009C232.922 131.021 233.436 137.195 235.597 142.339C237.86 147.69 242.388 151.908 245.989 156.332C249.59 160.757 252.574 165.901 253.397 171.56C254.014 175.676 253.5 180.717 251.03 184.216C248.458 187.817 243.828 189.463 240.124 191.315C234.054 194.196 228.6 198.517 222.118 200.061C215.43 201.604 208.228 200.061 202.261 196.562C198.968 194.607 195.779 191.624 195.779 187.92C195.779 186.479 196.293 184.936 196.293 183.495C196.293 181.129 194.852 178.968 193.309 177.116C191.663 175.367 189.811 173.824 188.37 171.869C185.901 168.576 185.901 164.152 187.856 160.654C189.194 158.081 190.737 156.024 190.531 153.04C189.914 150.262 188.37 148.718 187.239 146.455Z" fill="#1D2332"/>
<path d="M214.402 112.295C216.151 111.164 218.312 111.164 220.37 111.472C222.325 111.781 224.485 112.295 225.617 113.942C229.63 119.498 221.193 126.803 215.74 125.774C209.36 124.539 209.669 115.485 214.402 112.295Z" fill="#1D2332"/>
<path d="M159.148 267.248C160.589 260.457 161.618 259.737 163.161 252.843C163.881 249.242 165.528 246.258 167.071 242.966" stroke="#1D2332" stroke-width="1.0289" stroke-miterlimit="10" stroke-linecap="round" stroke-linejoin="round"/>
<path d="M267.595 280.212C266.978 270.231 263.686 259.634 261.319 249.962" stroke="#1D2332" stroke-width="1.0289" stroke-miterlimit="10" stroke-linecap="round" stroke-linejoin="round"/>
<path d="M230.762 210.967C229.733 210.864 228.704 210.658 227.675 210.658C225.823 210.658 224.074 211.276 222.222 211.584C220.37 211.893 218.312 211.79 216.974 210.555C215.431 209.218 215.534 206.337 216.871 204.896C218.518 203.147 222.016 202.736 224.177 202.221C226.132 201.81 228.086 201.192 229.733 199.958C232.511 197.9 233.848 193.27 237.141 191.932C240.125 190.698 244.96 192.653 245.578 196.048C245.989 198.517 244.343 200.781 242.388 202.427C240.433 203.97 238.273 205.308 236.832 207.263C236.112 208.292 235.7 209.424 234.671 210.144C233.642 211.07 232.202 211.07 230.762 210.967Z" fill="#1D2332"/>
<path d="M243.828 182.981C243.725 181.334 243.417 179.585 242.182 178.556C241.462 177.939 240.536 177.63 239.61 177.322C225.308 173.103 209.977 172.28 195.367 175.161C193.309 175.573 191.149 176.087 189.399 177.219C186.416 179.174 184.872 182.981 185.078 186.582C185.181 190.183 186.724 193.578 188.782 196.562C196.807 208.292 211.727 212.613 225.205 209.012C235.597 206.234 244.446 193.578 243.828 182.981Z" fill="#00AF9D"/>
<path d="M210.699 210.658C201.027 210.144 190.429 205.102 187.857 194.916" stroke="#1D2332" stroke-width="1.0289" stroke-miterlimit="10" stroke-linecap="round" stroke-linejoin="round"/>
<path d="M120.256 242.451C119.947 243.686 119.742 245.023 119.742 246.258C119.742 247.287 119.845 248.213 119.639 249.242C119.33 251.094 118.095 252.534 117.067 254.181C115.317 257.062 114.391 260.354 114.391 263.646" stroke="#1D2332" stroke-width="1.0289" stroke-miterlimit="10" stroke-linecap="round" stroke-linejoin="round"/>
<path d="M107.291 220.33C105.954 222.594 103.279 223.725 100.809 224.651C95.2532 226.812 89.3884 229.899 83.7295 231.957" stroke="#1D2332" stroke-width="1.0289" stroke-miterlimit="10" stroke-linecap="round" stroke-linejoin="round"/>
<path d="M85.5815 231.031C85.1699 228.047 84.5526 224.96 83.7295 222.079" stroke="#1D2332" stroke-width="1.0289" stroke-miterlimit="10" stroke-linecap="round" stroke-linejoin="round"/>
<path d="M88.3619 230.104C87.8474 226.915 87.1272 223.828 86.2012 220.741" stroke="#1D2332" stroke-width="1.0289" stroke-miterlimit="10" stroke-linecap="round" stroke-linejoin="round"/>
<path d="M88.3594 219.609C88.668 220.432 88.9767 221.359 89.1825 222.285C89.4912 223.416 89.6969 224.445 89.9027 225.577C90.2114 226.709 90.5201 227.841 90.9316 228.972" stroke="#1D2332" stroke-width="1.0289" stroke-miterlimit="10" stroke-linecap="round" stroke-linejoin="round"/>
<path d="M90.2114 218.684C90.1086 218.992 90.3144 219.404 90.5201 219.712C91.9606 222.182 92.1664 225.269 93.2981 227.944" stroke="#1D2332" stroke-width="1.0289" stroke-miterlimit="10" stroke-linecap="round" stroke-linejoin="round"/>
<path d="M94.0183 217.346C95.0472 220.33 96.0761 223.314 97.0021 226.195" stroke="#1D2332" stroke-width="1.0289" stroke-miterlimit="10" stroke-linecap="round" stroke-linejoin="round"/>
<path d="M95.5618 216.626C96.5907 217.964 97.4138 219.507 97.9282 221.05C98.4427 222.491 98.7514 224.034 99.3687 225.372" stroke="#1D2332" stroke-width="1.0289" stroke-miterlimit="10" stroke-linecap="round" stroke-linejoin="round"/>
<path d="M98.5479 215.083C99.2681 216.317 100.4 217.243 101.12 218.375C101.429 218.992 101.635 219.61 101.943 220.227C102.355 221.05 103.075 221.873 103.281 222.799C103.281 223.005 103.384 223.314 103.589 223.314" stroke="#1D2332" stroke-width="1.0289" stroke-miterlimit="10" stroke-linecap="round" stroke-linejoin="round"/>
<path d="M100.709 213.848C100.709 213.745 100.606 213.745 100.606 213.848C100.606 213.951 100.606 213.951 100.709 214.053C101.223 214.774 101.84 215.494 102.355 216.214C103.692 218.066 104.927 220.021 105.442 222.285" stroke="#1D2332" stroke-width="1.0289" stroke-miterlimit="10" stroke-linecap="round" stroke-linejoin="round"/>
<path d="M211.007 122.07C215.123 123.202 219.547 124.436 223.766 123.304" stroke="#00AF9D" stroke-width="1.0289" stroke-miterlimit="10" stroke-linecap="round" stroke-linejoin="round"/>
<path d="M266.151 370.858C265.328 371.167 264.505 371.372 263.682 371.681C248.763 376.517 233.535 381.456 217.896 382.484C204.932 383.308 192.07 381.456 179.209 379.604C164.496 377.443 150.297 377.237 146.799 360.878C144.844 351.823 144.227 342.563 144.844 333.406C145.153 328.364 145.976 323.117 148.857 318.898C150.606 316.429 152.869 314.474 155.03 312.211C172.316 294.205 164.702 267.762 179.209 250.168C193.099 233.294 216.97 229.281 236.313 238.747C248.557 244.715 259.669 255.415 261.727 269.306C263.99 285.151 263.373 300.584 273.662 314.166C276.234 317.458 279.321 320.442 281.276 324.249C287.244 335.67 287.038 357.688 276.131 366.125C273.045 368.286 269.649 369.726 266.151 370.858Z" fill="#1D2332"/>
<path d="M338.793 281.447H323.462L318.318 252.74H344.555L338.793 281.447Z" fill="#1D2332"/>
<path d="M335.914 261.692C338.486 260.457 341.367 259.634 344.145 259.325C344.865 259.222 345.483 259.428 346.1 259.737C347.643 260.663 347.232 262.309 346.717 263.749L343.939 272.289C343.631 273.318 342.705 273.935 341.676 273.833C337.148 273.524 332.621 273.73 328.197 274.347" stroke="#1D2332" stroke-width="1.0289" stroke-miterlimit="10" stroke-linecap="round" stroke-linejoin="round"/>
<path d="M215.942 237.41L220.983 405.635" stroke="#4F5865" stroke-width="0.51445" stroke-miterlimit="10" stroke-linecap="round" stroke-linejoin="round"/>
<path d="M261.832 367.462C261.112 367.771 260.289 367.977 259.569 368.285C245.884 372.915 231.994 377.545 217.59 378.471C205.757 379.295 193.925 377.545 182.195 375.796C168.717 373.841 155.65 373.533 152.46 358.099C150.711 349.559 150.094 340.814 150.711 332.068C151.02 327.232 151.74 322.294 154.415 318.384C155.959 316.017 158.119 314.165 160.074 312.107C175.919 295.028 168.923 270.128 182.195 253.46C194.851 237.512 216.869 233.705 234.566 242.657C245.781 248.316 255.968 258.399 257.82 271.569C259.877 286.488 259.26 301.098 268.829 313.959C271.195 317.149 273.973 319.927 275.722 323.425C281.176 334.229 281.073 355.115 270.989 363.038C268.211 365.096 265.022 366.33 261.832 367.462Z" stroke="#4F5865" stroke-width="0.51445" stroke-miterlimit="10" stroke-linecap="round" stroke-linejoin="round"/>
<path d="M211.408 53.7731C211.408 38.2016 197.9 26.007 181.954 27.6955C169.009 29.1964 159.253 39.5149 158.69 52.4599C158.315 61.2775 162.067 69.1571 168.258 74.2225C172.198 77.4119 174.824 82.1021 175.387 87.1675L176.513 97.486C176.701 99.7373 178.764 101.426 181.015 101.426H189.458C191.709 101.426 193.585 99.7373 193.773 97.486L194.711 87.1675C195.274 82.1021 197.713 77.4119 201.652 74.2225C207.844 69.3447 211.408 62.0279 211.408 53.7731Z" fill="#00AF9D"/>
<path d="M185.333 104.99C179.704 104.99 175.014 100.488 175.014 94.6717V90.1691L195.651 89.9814V94.484C195.651 100.3 191.149 104.803 185.333 104.99Z" fill="#1D2332"/>
<path d="M181.209 92.2329C179.332 83.6029 177.644 74.9729 175.393 66.3428C174.267 61.8402 167.888 48.3324 178.019 49.8333C180.27 50.2085 182.334 52.0846 182.709 54.5235C182.897 55.6492 182.709 56.9624 181.771 57.9004C181.021 58.8385 179.52 59.2137 178.394 58.4633C177.644 58.0881 177.456 57.15 177.269 56.3996C176.893 54.3359 178.207 52.2722 179.895 50.9589C182.147 49.4581 185.148 47.582 187.775 48.7076C189.276 49.2705 190.401 50.7713 190.964 52.4598C191.339 53.5855 191.715 54.7111 191.339 55.8368C190.964 56.9624 190.026 57.9005 188.9 57.7129C187.962 57.5252 187.212 56.7748 187.024 55.8368C186.837 54.8987 187.024 53.9607 187.212 53.2102C187.775 51.1465 189.276 49.4581 191.339 48.7076C193.403 48.1448 195.842 48.8952 196.78 50.7713C197.343 52.0846 197.343 53.5855 197.155 54.8987C196.405 61.465 194.153 67.4685 193.028 73.8472C191.902 79.8507 190.777 85.6666 189.839 91.67" stroke="#1D2332" stroke-width="2.0578" stroke-miterlimit="10" stroke-linecap="round" stroke-linejoin="round"/>
<path d="M144.433 47.2065C149.123 47.957 147.622 47.5818 152.5 48.3322" stroke="#1D2332" stroke-width="2.0578" stroke-miterlimit="10" stroke-linecap="round" stroke-linejoin="round"/>
<path d="M151.562 27.5078L157.754 33.1361" stroke="#1D2332" stroke-width="2.0578" stroke-miterlimit="10" stroke-linecap="round" stroke-linejoin="round"/>
<path d="M177.072 14.7505C177.447 16.8142 177.822 20.1911 178.198 22.2548" stroke="#1D2332" stroke-width="2.0578" stroke-miterlimit="10" stroke-linecap="round" stroke-linejoin="round"/>
<path d="M194.333 14C193.77 18.5026 193.395 21.5044 193.02 23.1928" stroke="#1D2332" stroke-width="2.0578" stroke-miterlimit="10" stroke-linecap="round" stroke-linejoin="round"/>
<path d="M219.29 31.8228C215.162 34.6369 215.538 34.4493 211.223 37.451" stroke="#1D2332" stroke-width="2.0578" stroke-miterlimit="10" stroke-linecap="round" stroke-linejoin="round"/>
<path d="M217.601 50.021C222.479 50.3962 221.353 50.2086 226.231 50.5838" stroke="#1D2332" stroke-width="2.0578" stroke-miterlimit="10" stroke-linecap="round" stroke-linejoin="round"/>
</g>
<defs>
<clipPath id="clip0_3749_3986">
<rect width="414" height="437" fill="white"/>
</clipPath>
</defs>
</svg>
