<svg width="17" height="28" viewBox="0 0 17 28" fill="none" xmlns="http://www.w3.org/2000/svg">
<path d="M8.66428 4.58691C10.2932 4.58691 11.6146 5.87891 11.6146 7.47148C11.6146 9.05879 10.2932 10.3508 8.66428 10.3508C7.03539 10.3508 5.71394 9.05879 5.71394 7.47148C5.71394 5.87891 7.03539 4.58691 8.66428 4.58691ZM8.66428 14.4377C12.5963 14.4377 15.7947 11.3105 15.7947 7.47148C15.7947 3.62715 12.5963 0.5 8.66428 0.5C4.73229 0.5 1.53924 3.62715 1.53924 7.47148C1.53924 11.3105 4.73229 14.4377 8.66428 14.4377ZM11.5499 20.1225C13.0008 19.7955 14.3978 19.2365 15.6868 18.4455C16.6631 17.8443 16.9544 16.584 16.3449 15.6295C15.7246 14.6697 14.4409 14.385 13.4593 14.9861C10.5413 16.7791 6.78728 16.7791 3.86391 14.9861C2.88766 14.3797 1.59857 14.6697 0.98369 15.6295C0.368811 16.584 0.665463 17.8443 1.64172 18.4455C2.93081 19.2365 4.32777 19.7955 5.77867 20.1225L1.79274 24.0143C0.978296 24.8105 0.978296 26.1025 1.79274 26.8988C2.20266 27.2943 2.73663 27.5 3.27061 27.5C3.80458 27.5 4.33855 27.2996 4.75387 26.8988L8.66428 23.0756L12.5801 26.8988C13.3945 27.7004 14.7106 27.7004 15.5304 26.8988C16.3449 26.1025 16.3449 24.8105 15.5304 24.0143L11.5499 20.1225Z" fill="#2F73F7"/>
</svg>
