<svg width="17" height="27" viewBox="0 0 17 27" fill="none" xmlns="http://www.w3.org/2000/svg">
<path d="M8.16428 4.08691C9.79317 4.08691 11.1146 5.37891 11.1146 6.97148C11.1146 8.55879 9.79317 9.85078 8.16428 9.85078C6.53539 9.85078 5.21394 8.55879 5.21394 6.97148C5.21394 5.37891 6.53539 4.08691 8.16428 4.08691ZM8.16428 13.9377C12.0963 13.9377 15.2947 10.8105 15.2947 6.97148C15.2947 3.12715 12.0963 0 8.16428 0C4.23229 0 1.03924 3.12715 1.03924 6.97148C1.03924 10.8105 4.23229 13.9377 8.16428 13.9377ZM11.0499 19.6225C12.5008 19.2955 13.8978 18.7365 15.1868 17.9455C16.1631 17.3443 16.4544 16.084 15.8449 15.1295C15.2246 14.1697 13.9409 13.885 12.9593 14.4861C10.0413 16.2791 6.28728 16.2791 3.36391 14.4861C2.38766 13.8797 1.09857 14.1697 0.48369 15.1295C-0.131189 16.084 0.165463 17.3443 1.14172 17.9455C2.43081 18.7365 3.82777 19.2955 5.27867 19.6225L1.29274 23.5143C0.478296 24.3105 0.478296 25.6025 1.29274 26.3988C1.70266 26.7943 2.23663 27 2.77061 27C3.30458 27 3.83855 26.7996 4.25387 26.3988L8.16428 22.5756L12.0801 26.3988C12.8945 27.2004 14.2106 27.2004 15.0304 26.3988C15.8449 25.6025 15.8449 24.3105 15.0304 23.5143L11.0499 19.6225Z" fill="white"/>
</svg>
