<svg width="40" height="40" viewBox="0 0 40 40" fill="none" xmlns="http://www.w3.org/2000/svg">
<path fill-rule="evenodd" clip-rule="evenodd" d="M2.4812 2.81178C-0.302734 5.62356 -0.302734 10.149 -0.302734 19.2V20.8C-0.302734 29.851 -0.302734 34.3764 2.4812 37.1882C5.26515 40 9.74582 40 18.7072 40H20.2913C29.2527 40 33.7333 40 36.5173 37.1882C39.3012 34.3764 39.3012 29.851 39.3012 20.8V19.2C39.3012 10.149 39.3012 5.62356 36.5173 2.81178C33.7333 0 29.2527 0 20.2913 0H18.7072C9.74582 0 5.26515 0 2.4812 2.81178ZM6.38086 12.167C6.59539 22.567 11.7439 28.817 20.7703 28.817H21.2819V22.867C24.5988 23.2003 27.1068 25.6503 28.1134 28.817H32.8C31.5129 24.0836 28.1299 21.467 26.0177 20.467C28.1299 19.2336 31.1002 16.2337 31.8098 12.167H27.5522C26.6281 15.467 23.8892 18.467 21.2819 18.7503V12.167H17.0243V23.7003C14.3841 23.0336 11.0508 19.8003 10.9023 12.167H6.38086Z" fill="#0077FF"/>
</svg>
