<svg width="33" height="20" viewBox="0 0 33 20" fill="none" xmlns="http://www.w3.org/2000/svg">
<g clip-path="url(#clip0_336_2378)">
<mask id="mask0_336_2378" style="mask-type:luminance" maskUnits="userSpaceOnUse" x="0" y="0" width="32" height="20">
<path d="M31.6631 0.5H0.663086V19.5H31.6631V0.5Z" fill="white"/>
</mask>
<g mask="url(#mask0_336_2378)">
<path d="M0.663086 0.5C0.89547 12.375 6.93745 19.5 17.5342 19.5H18.1383V12.6947C22.0424 13.0601 24.9704 15.8918 26.1324 19.5H31.6166C30.0829 14.1106 26.1324 11.0962 23.6691 9.95433C26.1788 8.58414 29.6646 5.15865 30.5012 0.5H25.5282C24.4592 4.29087 21.2523 7.67067 18.1848 8.03606V0.5H13.1653V13.6538C10.0514 12.9231 6.14734 9.22356 5.96144 0.5H0.663086Z" fill="#2F73F7"/>
</g>
</g>
<defs>
<clipPath id="clip0_336_2378">
<rect width="32" height="19" fill="white" transform="translate(0.5 0.5)"/>
</clipPath>
</defs>
</svg>
