<svg width="2301" height="451" viewBox="0 0 2301 451" fill="none" xmlns="http://www.w3.org/2000/svg">
<g clip-path="url(#clip0_2330_4493)">
<mask id="mask0_2330_4493" style="mask-type:luminance" maskUnits="userSpaceOnUse" x="0" y="0" width="2301" height="1804">
<path d="M2301 0H0V1804H2301V0Z" fill="white"/>
</mask>
<g mask="url(#mask0_2330_4493)">
<path d="M2267.8 517.76L2300.63 460.828L2267.55 403.927L2207.09 403.976L2176.84 351.632L2116.39 351.681L2086.14 299.337L2025.68 299.386L1995.43 247.042L1934.98 247.092L1904.73 194.747L1844.27 194.797L1814.03 142.452L1748.35 142.42L1717.64 195.692L1659.15 195.707L1629.37 247.369L1572.24 247.39L1541.99 195.045L1482.14 195.055L1452.17 143.256L1386.49 143.224L1355.78 196.496L1303.2 196.407L1273.22 144.608L1213.37 144.618L1183.4 92.819L1117.72 92.787L1087.69 144.889L1026.48 144.894L993.652 201.825L1024.32 254.799L994.278 306.901L1023.57 357.524L994.881 407.284L942.302 407.195L912.324 355.396L846.652 355.364L816.613 407.465L755.403 407.47L724.69 460.743L666.203 460.758L633.464 517.543L662.756 568.17L634.067 617.93L581.488 617.84L551.51 566.04L491.661 566.05L461.683 514.249L396.011 514.217L363.272 571L392.564 621.62L363.875 671.38L305.389 671.4L272.65 728.18L301.942 778.81L273.253 828.57L220.674 828.48L190.696 776.68L125.024 776.65L94.9852 828.75L33.1052 828.56L0.367188 885.35L33.3002 942.16L93.1482 942.15L123.127 993.95L182.975 993.94L212.954 1045.74L272.802 1045.73L302.781 1097.53L362.629 1097.52L392.608 1149.32L452.456 1149.31L482.435 1201.11L542.283 1201.1L572.262 1252.9L632.11 1252.89L662.089 1304.69L721.937 1304.68L751.916 1356.48L811.764 1356.47L841.742 1408.26L902.198 1408.21L932.447 1460.56L992.903 1460.51L1023.15 1512.85L1083.61 1512.8L1113.86 1565.15L1174.31 1565.1L1204.56 1617.44L1265.02 1617.39L1295.27 1669.74L1355.72 1669.69L1385.97 1722.03L1446.43 1721.98L1476.68 1774.33L1542.35 1774.36L1575.09 1717.58L1545.8 1666.95L1574.48 1617.19L1632.97 1617.18L1665.71 1560.39L1636.42 1509.77L1665.11 1460.01L1723.59 1460L1756.33 1403.21L1727.04 1352.59L1755.73 1302.83L1814.22 1302.81L1846.95 1246.03L1817.66 1195.41L1846.35 1145.65L1904.84 1145.63L1937.58 1088.85L1908.28 1038.22L1936.97 988.46L1995.46 988.45L2028.2 931.66L1998.91 881.04L2027.6 831.28L2086.08 831.26L2118.82 774.48L2089.53 723.86L2118.22 674.1L2176.7 674.08L2209.44 617.3L2180.15 566.67L2208.84 516.914L2267.8 517.76Z" fill="#42C66E"/>
<path d="M1520.68 112.178L1499.05 170.038L1505.8 172.579L1527.43 114.719L1520.68 112.178Z" fill="#42C66E"/>
<path d="M1537.25 142.712L1525.39 154.609L1530.48 159.715L1547.46 142.712L1530.48 125.683L1525.39 130.789L1537.25 142.712Z" fill="#42C66E"/>
<path d="M1501.63 154.609L1489.75 142.687L1501.63 130.789L1496.52 125.683L1479.56 142.687L1496.52 159.715L1501.63 154.609Z" fill="#42C66E"/>
<path d="M1540.86 187.476L1566.81 142.414L1540.86 97.353H1488.96L1463 142.414L1488.96 187.476H1540.86ZM1493.63 105.433H1536.19L1557.49 142.414L1536.19 179.395H1493.63L1472.35 142.414L1493.63 105.433Z" fill="#42C66E"/>
<path d="M1605.86 62.878L1584.23 120.738L1590.99 123.279L1612.62 65.419L1605.86 62.878Z" fill="#42C66E"/>
<path d="M1622.43 93.411L1610.57 105.309L1615.66 110.415L1632.64 93.411L1615.66 76.383L1610.57 81.489L1622.43 93.411Z" fill="#42C66E"/>
<path d="M1586.82 105.309L1574.93 93.387L1586.82 81.489L1581.7 76.383L1564.75 93.387L1581.7 110.415L1586.82 105.309Z" fill="#42C66E"/>
<path d="M1626.04 138.175L1651.99 93.114L1626.04 48.053H1574.14L1548.19 93.114L1574.14 138.175H1626.04ZM1578.81 56.133H1621.37L1642.68 93.114L1621.37 130.095H1578.81L1557.53 93.114L1578.81 56.133Z" fill="#42C66E"/>
<path d="M1605.86 163.956L1584.23 221.816L1590.99 224.357L1612.62 166.497L1605.86 163.956Z" fill="#42C66E"/>
<path d="M1622.43 194.49L1610.57 206.387L1615.66 211.493L1632.64 194.49L1615.66 177.462L1610.57 182.568L1622.43 194.49Z" fill="#42C66E"/>
<path d="M1586.82 206.387L1574.93 194.465L1586.82 182.568L1581.7 177.462L1564.75 194.465L1581.7 211.493L1586.82 206.387Z" fill="#42C66E"/>
<path d="M1626.04 239.254L1651.99 194.193L1626.04 149.131H1574.14L1548.19 194.193L1574.14 239.254H1626.04ZM1578.81 157.211H1621.37L1642.68 194.193L1621.37 231.174H1578.81L1557.53 194.193L1578.81 157.211Z" fill="#42C66E"/>
<path d="M1692.68 14.673L1671.05 72.533L1677.81 75.074L1699.44 17.214L1692.68 14.673Z" fill="#42C66E"/>
<path d="M1709.25 45.207L1697.39 57.104L1702.48 62.21L1719.46 45.207L1702.48 28.179L1697.39 33.285L1709.25 45.207Z" fill="#42C66E"/>
<path d="M1673.64 57.104L1661.75 45.182L1673.64 33.285L1668.52 28.179L1651.57 45.182L1668.52 62.21L1673.64 57.104Z" fill="#42C66E"/>
<path d="M1712.86 89.971L1738.81 44.91L1712.86 -0.152008H1660.96L1635.01 44.91L1660.96 89.971H1712.86ZM1665.63 7.92801H1708.19L1729.5 44.91L1708.19 81.891H1665.63L1644.35 44.91L1665.63 7.92801Z" fill="#42C66E"/>
<path d="M1692.68 112.465L1671.05 170.325L1677.81 172.866L1699.44 115.006L1692.68 112.465Z" fill="#42C66E"/>
<path d="M1709.25 142.999L1697.39 154.896L1702.48 160.002L1719.46 142.999L1702.48 125.97L1697.39 131.076L1709.25 142.999Z" fill="#42C66E"/>
<path d="M1673.64 154.896L1661.75 142.974L1673.64 131.076L1668.52 125.97L1651.57 142.974L1668.52 160.002L1673.64 154.896Z" fill="#42C66E"/>
<path d="M1712.86 187.763L1738.81 142.701L1712.86 97.64H1660.96L1635.01 142.701L1660.96 187.763H1712.86ZM1665.63 105.72H1708.19L1729.5 142.701L1708.19 179.682H1665.63L1644.35 142.701L1665.63 105.72Z" fill="#42C66E"/>
<g opacity="0.3">
<path d="M1335.7 220.025L1313.33 279.875L1320.32 282.503L1342.69 222.653L1335.7 220.025Z" fill="#2E8049"/>
<path d="M1352.85 251.609L1340.58 263.915L1345.84 269.197L1363.41 251.609L1345.84 233.995L1340.58 239.277L1352.85 251.609Z" fill="#2E8049"/>
<path d="M1316.01 263.915L1303.71 251.583L1316.01 239.277L1310.72 233.995L1293.18 251.583L1310.72 269.197L1316.01 263.915Z" fill="#2E8049"/>
<path d="M1356.58 297.912L1383.43 251.301L1356.58 204.69H1302.89L1276.05 251.301L1302.89 297.912H1356.58ZM1307.73 213.048H1351.75L1373.79 251.301L1351.75 289.554H1307.73L1285.71 251.301L1307.73 213.048Z" fill="#2E8049"/>
<path d="M1424.24 272.287L1401.87 332.137L1408.86 334.765L1431.23 274.915L1424.24 272.287Z" fill="#2E8049"/>
<path d="M1441.39 303.871L1429.12 316.177L1434.38 321.459L1451.95 303.871L1434.38 286.257L1429.12 291.539L1441.39 303.871Z" fill="#2E8049"/>
<path d="M1404.55 316.177L1392.25 303.845L1404.55 291.539L1399.26 286.257L1381.72 303.845L1399.26 321.459L1404.55 316.177Z" fill="#2E8049"/>
<path d="M1445.12 350.174L1471.97 303.563L1445.12 256.952H1391.43L1364.59 303.563L1391.43 350.174H1445.12ZM1396.27 265.31H1440.29L1462.33 303.563L1440.29 341.816H1396.27L1374.25 303.563L1396.27 265.31Z" fill="#2E8049"/>
<path d="M1514.63 219.541L1492.26 279.39L1499.25 282.018L1521.62 222.169L1514.63 219.541Z" fill="#2E8049"/>
<path d="M1531.78 251.124L1519.5 263.431L1524.77 268.713L1542.33 251.124L1524.77 233.511L1519.5 238.792L1531.78 251.124Z" fill="#2E8049"/>
<path d="M1494.94 263.431L1482.64 251.099L1494.94 238.792L1489.64 233.511L1472.11 251.099L1489.64 268.713L1494.94 263.431Z" fill="#2E8049"/>
<path d="M1535.51 297.428L1562.35 250.817L1535.51 204.206H1481.82L1454.98 250.817L1481.82 297.428H1535.51ZM1486.65 212.564H1530.68L1552.71 250.817L1530.68 289.07H1486.65L1464.64 250.817L1486.65 212.564Z" fill="#2E8049"/>
<path d="M1603.17 272.287L1580.8 332.137L1587.79 334.765L1610.16 274.915L1603.17 272.287Z" fill="#2E8049"/>
<path d="M1620.31 303.871L1608.04 316.177L1613.31 321.459L1630.87 303.871L1613.31 286.257L1608.04 291.539L1620.31 303.871Z" fill="#2E8049"/>
<path d="M1583.47 316.177L1571.18 303.845L1583.47 291.539L1578.18 286.257L1560.64 303.845L1578.18 321.459L1583.47 316.177Z" fill="#2E8049"/>
<path d="M1624.05 350.174L1650.89 303.563L1624.05 256.952H1570.36L1543.52 303.563L1570.36 350.174H1624.05ZM1575.19 265.31H1619.22L1641.25 303.563L1619.22 341.816H1575.19L1553.18 303.563L1575.19 265.31Z" fill="#2E8049"/>
<path d="M1335.7 323.124L1313.33 382.973L1320.32 385.601L1342.69 325.752L1335.7 323.124Z" fill="#2E8049"/>
<path d="M1352.85 354.707L1340.58 367.014L1345.84 372.295L1363.41 354.707L1345.84 337.093L1340.58 342.375L1352.85 354.707Z" fill="#2E8049"/>
<path d="M1316.01 367.014L1303.71 354.681L1316.01 342.375L1310.72 337.093L1293.18 354.681L1310.72 372.295L1316.01 367.014Z" fill="#2E8049"/>
<path d="M1356.58 401.01L1383.43 354.4L1356.58 307.788H1302.89L1276.05 354.4L1302.89 401.01H1356.58ZM1307.73 316.147H1351.75L1373.79 354.4L1351.75 392.652H1307.73L1285.71 354.4L1307.73 316.147Z" fill="#2E8049"/>
<path d="M1514.63 323.123L1492.26 382.973L1499.25 385.601L1521.62 325.751L1514.63 323.123Z" fill="#2E8049"/>
<path d="M1531.78 354.707L1519.5 367.013L1524.77 372.295L1542.33 354.707L1524.77 337.093L1519.5 342.375L1531.78 354.707Z" fill="#2E8049"/>
<path d="M1494.94 367.013L1482.64 354.681L1494.94 342.375L1489.64 337.093L1472.11 354.681L1489.64 372.295L1494.94 367.013Z" fill="#2E8049"/>
<path d="M1535.51 401.01L1562.35 354.399L1535.51 307.788H1481.82L1454.98 354.399L1481.82 401.01H1535.51ZM1486.65 316.147H1530.68L1552.71 354.399L1530.68 392.652H1486.65L1464.64 354.399L1486.65 316.147Z" fill="#2E8049"/>
<path d="M1424.97 168.399L1402.6 228.249L1409.59 230.877L1431.96 171.027L1424.97 168.399Z" fill="#2E8049"/>
<path d="M1442.12 199.983L1429.84 212.289L1435.11 217.571L1452.67 199.983L1435.11 182.369L1429.84 187.65L1442.12 199.983Z" fill="#2E8049"/>
<path d="M1405.28 212.289L1392.98 199.957L1405.28 187.65L1399.98 182.369L1382.45 199.957L1399.98 217.571L1405.28 212.289Z" fill="#2E8049"/>
<path d="M1445.85 246.286L1472.69 199.675L1445.85 153.064H1392.16L1365.32 199.675L1392.16 246.286H1445.85ZM1396.99 161.422H1441.02L1463.05 199.675L1441.02 237.928H1396.99L1374.98 199.675L1396.99 161.422Z" fill="#2E8049"/>
<path d="M1245.28 272.065L1222.91 331.915L1229.9 334.543L1252.27 274.693L1245.28 272.065Z" fill="#2E8049"/>
<path d="M1262.42 303.649L1250.15 315.955L1255.42 321.237L1272.98 303.649L1255.42 286.035L1250.15 291.316L1262.42 303.649Z" fill="#2E8049"/>
<path d="M1225.58 315.955L1213.29 303.623L1225.58 291.316L1220.29 286.035L1202.75 303.623L1220.29 321.237L1225.58 315.955Z" fill="#2E8049"/>
<path d="M1266.16 349.952L1293 303.341L1266.16 256.73H1212.47L1185.62 303.341L1212.47 349.952H1266.16ZM1217.3 265.088H1261.33L1283.36 303.341L1261.33 341.594H1217.3L1195.29 303.341L1217.3 265.088Z" fill="#2E8049"/>
<path d="M1155.44 220.025L1133.06 279.875L1140.05 282.503L1162.43 222.653L1155.44 220.025Z" fill="#2E8049"/>
<path d="M1172.58 251.609L1160.31 263.915L1165.57 269.197L1183.14 251.609L1165.57 233.995L1160.31 239.277L1172.58 251.609Z" fill="#2E8049"/>
<path d="M1135.74 263.915L1123.44 251.583L1135.74 239.277L1130.45 233.995L1112.91 251.583L1130.45 269.197L1135.74 263.915Z" fill="#2E8049"/>
<path d="M1176.31 297.912L1203.16 251.301L1176.31 204.69H1122.63L1095.78 251.301L1122.63 297.912H1176.31ZM1127.46 213.048H1171.48L1193.52 251.301L1171.48 289.554H1127.46L1105.45 251.301L1127.46 213.048Z" fill="#2E8049"/>
<path d="M1064.54 169.126L1042.17 228.976L1049.16 231.604L1071.53 171.754L1064.54 169.126Z" fill="#2E8049"/>
<path d="M1081.69 200.71L1069.42 213.016L1074.68 218.298L1092.25 200.71L1074.68 183.096L1069.42 188.378L1081.69 200.71Z" fill="#2E8049"/>
<path d="M1044.85 213.016L1032.55 200.684L1044.85 188.378L1039.56 183.096L1022.02 200.684L1039.56 218.298L1044.85 213.016Z" fill="#2E8049"/>
<path d="M1085.42 247.013L1112.27 200.402L1085.42 153.791H1031.73L1004.89 200.402L1031.73 247.013H1085.42ZM1036.57 162.149H1080.59L1102.63 200.402L1080.59 238.655H1036.57L1014.55 200.402L1036.57 162.149Z" fill="#2E8049"/>
<path d="M1155.44 118.227L1133.06 178.076L1140.05 180.704L1162.43 120.855L1155.44 118.227Z" fill="#2E8049"/>
<path d="M1172.58 149.81L1160.31 162.117L1165.57 167.399L1183.14 149.81L1165.57 132.197L1160.31 137.478L1172.58 149.81Z" fill="#2E8049"/>
<path d="M1135.74 162.117L1123.44 149.785L1135.74 137.478L1130.45 132.197L1112.91 149.785L1130.45 167.399L1135.74 162.117Z" fill="#2E8049"/>
<path d="M1176.31 196.114L1203.16 149.503L1176.31 102.892H1122.63L1095.78 149.503L1122.63 196.114H1176.31ZM1127.46 111.25H1171.48L1193.52 149.503L1171.48 187.755H1127.46L1105.45 149.503L1127.46 111.25Z" fill="#2E8049"/>
<path d="M1245.28 169.126L1222.91 228.976L1229.9 231.604L1252.27 171.754L1245.28 169.126Z" fill="#2E8049"/>
<path d="M1262.42 200.71L1250.15 213.016L1255.42 218.298L1272.98 200.71L1255.42 183.096L1250.15 188.377L1262.42 200.71Z" fill="#2E8049"/>
<path d="M1225.58 213.016L1213.29 200.684L1225.58 188.377L1220.29 183.096L1202.75 200.684L1220.29 218.298L1225.58 213.016Z" fill="#2E8049"/>
<path d="M1266.16 247.013L1293 200.402L1266.16 153.791H1212.47L1185.62 200.402L1212.47 247.013H1266.16ZM1217.3 162.149H1261.33L1283.36 200.402L1261.33 238.655H1217.3L1195.29 200.402L1217.3 162.149Z" fill="#2E8049"/>
<path d="M1155.44 323.207L1133.07 383.056L1140.06 385.684L1162.43 325.835L1155.44 323.207Z" fill="#2E8049"/>
<path d="M1172.58 354.791L1160.31 367.097L1165.57 372.379L1183.14 354.791L1165.57 337.177L1160.31 342.458L1172.58 354.791Z" fill="#2E8049"/>
<path d="M1135.74 367.097L1123.44 354.765L1135.74 342.458L1130.45 337.177L1112.91 354.765L1130.45 372.379L1135.74 367.097Z" fill="#2E8049"/>
<path d="M1176.31 401.094L1203.16 354.483L1176.31 307.872H1122.63L1095.78 354.483L1122.63 401.094H1176.31ZM1127.46 316.23H1171.48L1193.52 354.483L1171.48 392.736H1127.46L1105.45 354.483L1127.46 316.23Z" fill="#2E8049"/>
</g>
</g>
</g>
<defs>
<clipPath id="clip0_2330_4493">
<rect width="2301" height="451" fill="white"/>
</clipPath>
</defs>
</svg>
