<svg width="695" height="1118" viewBox="0 0 695 1118" fill="none" xmlns="http://www.w3.org/2000/svg">
<g clip-path="url(#clip0_2308_4391)">
<path d="M-782.726 1049.15L-809.924 1096.71L-782.726 1144.3L-810 1191.74L-782.877 1238.92L-809.899 1286.17L-779.923 1339.29L-720.639 1339.68L-692.898 1291.48H-638.198L-611.202 1244.75H-557.02L-529.506 1196.56H-474.718L-447.81 1149.87H-398.767L-371.733 1196.56H-311.452L-284.418 1149.87L-235.375 1149.91L-208.619 1196.56H-147.833L-121.026 1149.91L-67.1217 1149.87L-39.3299 1101.71L15.3572 1101.67L42.3661 1055.02H96.5229L126.663 1001.96L99.5408 954.525L124.062 911.925L178.762 911.9L205.771 865.246L259.625 865.208L287.467 817.038L342.23 817L369.163 770.346L423.408 770.321L453.561 717.062L426.337 669.852L453.7 622.504L426.337 574.965L453.473 527.314L426.337 480.079L450.985 437.492L504.713 437.454L532.555 389.297L587.33 389.259L614.251 342.605L664.708 342.567L694.874 289.32L667.638 242.111L695 194.762L662.385 146.719L609.301 146.15L581.636 193.878L532.227 192.464L502.301 143.119L532.227 100.254L499.889 48.1947H450.859L423.143 0.126221L363.784 0L336.32 48.1947L281.494 48.0432L251.935 99.4712L279.335 147.224L254.814 189.773H206.099L178.636 143.094L118.355 143.372L91.4216 189.811L37.1891 190.102L9.71301 238.006L-45.1888 237.968L-71.983 284.698H-126.216L-153.679 332.893H-202.722L-230.4 284.66L-289.481 284.698L-319.622 337.768L-292.701 384.927L-317.071 427.741L-366.114 427.779L-393.59 379.585H-453.101L-480.463 427.779H-535.188L-564.836 479.536L-537.638 526.771L-564.899 574.347L-537.638 621.392L-564.836 668.955L-537.638 716.544L-564.899 763.981L-564.369 764.916L-564.71 765.522L-538.219 811.923L-563.132 855.496L-611.202 855.533L-638.691 807.339H-698.189L-725.564 855.533H-780.276L-809.924 907.277L-782.726 954.525L-810 1002.1L-782.726 1049.15Z" fill="#42C66E"/>
</g>
<defs>
<clipPath id="clip0_2308_4391">
<rect width="1505" height="1118" fill="white" transform="translate(-810)"/>
</clipPath>
</defs>
</svg>
