<svg width="950" height="788" viewBox="0 0 950 788" fill="none" xmlns="http://www.w3.org/2000/svg">
<path d="M674.906 183H676.062L676.639 181.998L727.607 93.4984L728.182 92.5003L727.607 91.5022L676.639 3.00187L676.062 2H674.906H572.969H571.812L571.235 3.00187L520.267 91.5022L519.692 92.5003L520.267 93.4984L571.235 181.998L571.812 183H572.969H674.906Z" stroke="#1D2332" stroke-width="4"/>
<g clip-path="url(#clip0_2275_3099)">
<path d="M623.943 153.919C606.945 153.919 591.15 147.051 579.303 134.689C578.444 133.83 578.616 132.457 579.303 131.77C580.161 130.912 581.535 131.083 582.221 131.77C593.21 143.274 607.804 149.626 623.772 149.626C655.363 149.626 680.946 124.044 680.946 92.452C680.946 60.8602 655.535 35.2777 623.943 35.2777C592.351 35.2777 566.769 60.8602 566.769 92.452C566.769 102.41 569.344 112.369 574.323 120.953C574.839 121.983 574.495 123.357 573.637 123.872C572.607 124.387 571.405 124.044 570.718 123.014C565.224 113.742 562.477 103.269 562.477 92.452C562.477 58.6282 590.119 30.9854 623.943 30.9854C657.767 30.9854 685.41 58.6282 685.41 92.452C685.41 126.276 657.767 153.919 623.943 153.919Z" fill="#1D2332"/>
<path d="M623.944 153.919C604.886 153.919 589.434 126.276 589.434 92.452C589.434 76.4844 592.867 61.3753 599.048 49.8717C599.564 48.8416 600.937 48.4982 601.967 49.0133C602.997 49.5284 603.341 50.9019 602.826 51.9321C596.988 62.7488 593.726 77.1712 593.726 92.452C593.726 124.044 607.29 149.626 624.116 149.626C640.77 149.626 654.506 124.044 654.506 92.452C654.506 60.8602 640.599 35.2777 623.944 35.2777C618.107 35.2777 612.269 38.5399 607.29 44.8926C606.603 45.7511 605.229 45.9228 604.371 45.236C603.513 44.5492 603.341 43.1757 604.028 42.3172C609.694 34.7626 616.733 30.9854 623.944 30.9854C643.002 30.9854 658.455 58.6282 658.455 92.452C658.455 126.276 643.002 153.919 623.944 153.919Z" fill="#1D2332"/>
<path d="M623.943 126.963C590.119 126.963 562.477 111.51 562.477 92.452C562.477 73.3939 590.119 57.9414 623.943 57.9414C657.767 57.9414 685.41 73.3939 685.41 92.452C685.41 100.007 681.289 107.046 673.563 113.055C672.704 113.742 671.331 113.57 670.644 112.712C669.957 111.853 670.129 110.48 670.987 109.793C677.684 104.642 681.289 98.8047 681.289 92.6237C681.289 75.9693 655.707 62.2338 624.115 62.2338C592.523 62.2338 566.769 75.6259 566.769 92.452C566.769 109.106 592.351 122.842 623.943 122.842C637.164 122.842 650.041 120.438 660.342 115.802C661.373 115.287 662.574 115.802 663.09 116.833C663.605 117.863 663.09 119.065 662.059 119.58C651.071 124.387 637.85 126.963 623.943 126.963Z" fill="#1D2332"/>
<path d="M612.093 108.763C611.063 108.763 610.376 108.076 610.033 107.217L601.963 78.7161C601.62 77.5142 602.307 76.484 603.509 76.1406C604.539 75.7973 605.741 76.484 606.084 77.6859L612.093 98.8043L618.103 77.6859C618.446 76.484 619.648 75.9689 620.678 76.1406C621.88 76.484 622.395 77.6859 622.223 78.7161L614.154 107.217C613.81 108.076 612.952 108.763 612.093 108.763Z" fill="#1D2332"/>
<path d="M627.717 108.763C626.515 108.763 625.656 107.733 625.656 106.703V90.9068V78.3731C625.656 77.1712 626.686 76.3127 627.717 76.3127H641.452C643.856 76.3127 645.745 78.2014 645.745 80.4334V89.0181C645.745 91.2502 643.856 93.1388 641.452 93.1388H632.867L645.229 105.329C646.088 106.188 646.088 107.561 645.229 108.248C644.371 109.106 642.997 109.106 642.311 108.248L629.949 95.8859V106.703C629.949 107.733 628.918 108.763 627.717 108.763ZM629.949 88.6747H641.452C641.624 88.6747 641.624 88.6747 641.624 88.6747V80.4334C641.624 80.4334 641.624 80.4334 641.452 80.4334H629.777V88.6747H629.949Z" fill="#1D2332"/>
</g>
<path d="M157.906 346H159.062L159.639 344.998L210.607 256.498L211.182 255.5L210.607 254.502L159.639 166.002L159.062 165H157.906H55.9686H54.8124L54.2355 166.002L3.26687 254.502L2.69203 255.5L3.26688 256.498L54.2355 344.998L54.8124 346H55.9686H157.906Z" stroke="#1D2332" stroke-width="4"/>
<path d="M157.705 205.841H55.1463C53.9107 205.841 52.8516 206.903 52.8516 208.141V292.185C52.8516 293.424 53.9107 294.486 55.1463 294.486H95.2165V307.756H90.8035C89.5678 307.756 88.5087 308.817 88.5087 310.056C88.5087 311.294 89.5678 312.356 90.8035 312.356C97.1582 312.356 110.044 312.356 122.048 312.356C123.283 312.356 124.342 311.294 124.342 310.056C124.342 308.817 123.283 307.756 122.048 307.756H117.635V294.486H157.705C158.94 294.486 160 293.424 160 292.185V208.141C159.823 206.903 158.94 205.841 157.705 205.841ZM155.41 210.264V281.038H57.2646V210.264H155.41ZM113.045 307.579H99.6295V294.309H113.045V307.579ZM57.2646 289.885V285.462H155.234V289.885C136.346 289.885 76.5053 289.885 57.2646 289.885Z" fill="#1D2332"/>
<path d="M64.15 258.921H99.8071C101.043 258.921 102.102 257.86 102.102 256.621C102.102 250.606 102.102 227.25 102.102 216.811C102.102 215.572 101.043 214.511 99.8071 214.511H64.15C62.9143 214.511 61.8552 215.572 61.8552 216.811C61.8552 220.35 61.8552 246.536 61.8552 256.621C61.6787 258.037 62.7378 258.921 64.15 258.921ZM66.2682 254.498V232.381H97.5123V254.498H66.2682ZM66.2682 219.111H97.5123V227.958H66.2682V219.111Z" fill="#1D2332"/>
<path d="M76.682 237.512C75.7994 236.627 74.3873 236.627 73.5047 237.512L69.0916 241.936C68.209 242.82 68.209 244.236 69.0916 245.12L73.5047 249.544C74.3873 250.428 75.7994 250.428 76.682 249.544C77.5646 248.659 77.5646 247.244 76.682 246.359L73.8577 243.528L76.682 240.697C77.5646 239.812 77.5646 238.397 76.682 237.512Z" fill="#1D2332"/>
<path d="M90.0971 237.512C89.2145 236.627 87.8024 236.627 86.9198 237.512C86.0372 238.397 86.0372 239.812 86.9198 240.697L89.7441 243.528L87.0963 246.359C85.6841 247.774 86.7432 250.075 88.685 250.075C89.2145 250.075 89.7441 249.898 90.2737 249.367L94.6867 244.943C95.5693 244.059 95.5693 242.643 94.6867 241.759L90.0971 237.512Z" fill="#1D2332"/>
<path d="M72.9794 221.411H68.5664V225.835H72.9794V221.411Z" fill="#1D2332"/>
<path d="M81.8036 221.411H77.3906V225.835H81.8036V221.411Z" fill="#1D2332"/>
<path d="M113.045 276.615H148.702C149.938 276.615 150.997 275.553 150.997 274.315C150.997 268.299 150.997 244.944 150.997 234.505C150.997 233.266 149.938 232.204 148.702 232.204H113.045C111.809 232.204 110.75 233.266 110.75 234.505C110.75 238.043 110.75 264.23 110.75 274.315C110.75 275.73 111.809 276.615 113.045 276.615ZM115.163 272.192V250.075H146.407V272.192H115.163ZM115.163 236.805H146.407V245.651H115.163V236.805Z" fill="#1D2332"/>
<path d="M125.756 255.206C124.874 254.321 123.461 254.321 122.579 255.206L118.166 259.629C117.283 260.514 117.283 261.93 118.166 262.814L122.579 267.238C123.461 268.122 124.874 268.122 125.756 267.238C126.639 266.353 126.639 264.937 125.756 264.053L122.932 261.222L125.756 258.391C126.639 257.506 126.639 256.091 125.756 255.206Z" fill="#1D2332"/>
<path d="M139.171 255.206C138.289 254.321 136.877 254.321 135.994 255.206C135.111 256.091 135.111 257.506 135.994 258.391L138.818 261.222L135.994 264.053C135.111 264.937 135.111 266.353 135.994 267.238C136.877 268.122 138.289 268.122 139.171 267.238L143.584 262.814C144.467 261.93 144.467 260.514 143.584 259.629L139.171 255.206Z" fill="#1D2332"/>
<path d="M122.05 239.105H117.637V243.528H122.05V239.105Z" fill="#1D2332"/>
<path d="M130.878 239.105H126.465V243.528H130.878V239.105Z" fill="#1D2332"/>
<path d="M335.165 715.931C335.165 715.931 251.709 739.83 239.931 743.95C229.329 747.69 200.6 757.738 179.045 754.632C176.965 754.326 174.907 753.881 172.887 753.3C151.046 746.961 141.142 740.622 138.38 727.024C135.619 713.427 146.38 703.221 156.856 696.755C167.331 690.289 224.154 683.538 224.154 683.538L237.868 687.563L335.165 715.931Z" fill="#42C66E"/>
<path d="M179.174 754.632C177.094 754.326 175.036 753.881 173.016 753.3C151.175 746.961 141.271 740.622 138.509 727.024C135.748 713.427 146.509 703.221 156.985 696.755C167.46 690.289 224.283 683.538 224.283 683.538L237.997 687.563C225.585 693.268 179.301 696.438 169.206 702.238C159.111 708.039 154.223 718.974 160.191 733.744C163.365 741.605 171.873 749.212 179.174 754.632Z" fill="white"/>
<path d="M322.596 719.322C322.596 719.322 259.932 735.519 235.076 745.915C210.22 756.312 162.794 760.812 145.906 739.417C129.018 718.023 143.969 699.607 160.857 695.519C177.746 691.43 211.903 684.932 230.537 687.531" stroke="#1D2332" stroke-width="3" stroke-linecap="round" stroke-linejoin="round"/>
<path d="M180.409 753.618C180.409 753.618 148.665 736.153 159.109 711.684C166.95 693.617 209.487 697.547 230.534 687.658" stroke="#1D2332" stroke-width="3" stroke-linecap="round" stroke-linejoin="round"/>
<path d="M589.343 758.499C588.486 767.025 585.47 775.203 576.836 780.274C571.09 783.665 562.9 785.694 551.186 785.567C521.918 785.187 466.904 764.299 466.904 764.299L415.383 735.773L442.143 693.395L449.476 681.794L468.523 686.042C468.523 686.042 484.205 694.917 499.982 701.89C515.759 708.863 553.948 710.448 567.535 721.351C581.121 732.255 590.803 744.299 589.343 758.499Z" fill="#42C66E"/>
<path d="M589.344 758.498C588.487 767.025 585.471 775.202 576.836 780.274C579.31 771.801 578.795 762.738 575.376 754.6C569.662 741.7 550.901 730.321 526.267 728.419C501.633 726.517 482.777 715.012 472.905 709.877C465.191 705.883 448.937 697.198 442.176 693.522L449.509 681.921L468.556 686.168C468.556 686.168 484.237 695.043 500.014 702.016C515.791 708.989 553.98 710.574 567.567 721.477C581.154 732.381 590.804 744.299 589.344 758.498Z" fill="white"/>
<path d="M426.812 743.823C463.907 765.367 504.904 779.37 547.442 785.028C556.965 786.138 567.726 786.296 574.012 779.26C575.68 777.228 576.923 774.881 577.664 772.36C578.406 769.839 578.632 767.194 578.329 764.584C577.186 751.367 566.076 740.907 553.886 735.646C541.696 730.384 528.204 729.307 515.253 726.137C502.334 723.245 489.849 718.685 478.111 712.571C468.81 707.722 459.795 701.826 449.541 699.671C439.288 697.516 427.034 700.146 421.574 709.18" stroke="#1D2332" stroke-width="3" stroke-linecap="round" stroke-linejoin="round"/>
<path d="M570.488 782.778C575.31 780.48 579.527 777.087 582.801 772.872C586.075 768.656 588.316 763.734 589.344 758.499C591.217 746.042 584.107 733.522 574.107 725.852C564.108 718.182 551.6 714.6 539.188 712.064C526.776 709.529 514.237 707.754 502.491 703.189C484.429 696.153 466.652 682.238 447.891 687.341" stroke="#1D2332" stroke-width="3" stroke-linecap="round" stroke-linejoin="round"/>
<path d="M484.936 298.716L397.702 265.499L396.622 265.087C396.622 265.087 396.94 262.773 397.194 259.413C397.733 252.472 398.019 241.156 394.749 237.226C389.893 231.552 376.115 236.307 362.687 230.158C349.259 224.009 324.403 235.007 324.403 235.007C324.403 235.007 306.468 231.838 298.563 244.516C294.532 254.944 295.929 270.475 295.929 270.475L294.278 271.077C283.897 274.944 227.392 296.181 215.424 304.707C202.218 314.057 187.616 409.938 182.918 438.084C178.22 466.23 169.871 491.618 174.125 501.317C178.378 511.016 239.074 557.673 273.993 569.717C308.912 581.762 432.716 578.243 432.716 578.243C432.716 578.243 434.748 577.705 438.335 576.564C459.286 569.844 533.568 542.173 573.059 476.911C573.217 477.228 535.029 352.156 484.936 298.716ZM249.423 459.986C243.074 464.518 246.439 482.173 246.439 482.173L235.519 472.664L262.914 405.405L274.596 457.038C274.596 457.038 255.835 455.485 249.423 459.986ZM468.46 502.712C465.445 504.265 477.127 471.935 471.635 464.677C466.143 457.418 449.414 458.052 449.414 458.052L450.842 449.209L460.81 398.622L463.984 394.723C463.984 394.723 497.888 452.759 503.951 473.203C504.046 473.171 467.095 502.712 468.587 502.712H468.46Z" fill="#42C66E"/>
<path d="M320.339 88.9207L275.357 136.465C275.357 136.465 269.008 141.948 271.611 155.768C274.214 169.587 279.833 181.473 284.309 182.424C287.758 183.025 291.252 183.333 294.753 183.343C294.753 183.343 304.276 204.199 311.196 212.408C311.196 212.408 313.577 244.611 312.308 253.613C312.308 253.613 328.497 267.718 343.703 269.461C358.909 271.204 382.463 247.971 382.463 247.971L388.272 219.445C388.272 219.445 402.081 198.525 403.034 192.979C403.986 187.432 410.271 188.826 413.382 186.069C416.493 183.311 423.667 171.045 424.842 159.444C426.017 147.844 426.112 134.499 412.589 138.398C400.907 135.228 408.24 110.569 408.24 110.569L387.669 92.4389L320.339 88.9207Z" fill="white"/>
<path d="M397.704 265.499C397.04 267.278 396.266 269.014 395.387 270.697C387.958 284.675 355.611 311.3 355.611 311.3L345.897 281.347L340.564 311.395C329.739 306.704 296.82 278.177 296.82 278.177C296.82 278.177 295.709 275.515 294.344 271.363L295.994 270.761C295.994 270.761 294.598 255.23 298.629 244.802C306.534 231.87 324.469 235.293 324.469 235.293C324.469 235.293 349.325 224.294 362.753 230.443C376.181 236.592 389.958 231.838 394.815 237.512C399.672 243.185 396.688 265.277 396.688 265.277L397.704 265.499Z" fill="white"/>
<path d="M311.039 212.567C311.039 212.567 313.547 236.941 311.039 248.098" stroke="#1D2332" stroke-width="3" stroke-linecap="round" stroke-linejoin="round"/>
<path d="M384.781 244.833C384.818 236.99 385.734 229.176 387.511 221.537" stroke="#1D2332" stroke-width="3" stroke-linecap="round" stroke-linejoin="round"/>
<path d="M391.356 107.019C391.356 107.019 406.149 125.561 405.387 139.539C404.625 153.517 403.483 170.189 403.863 186.449C404.244 202.709 377.706 236.973 364.056 239.92C350.406 242.868 338.66 243.692 329.962 234.976C321.264 226.259 312.503 214.183 301.138 198.652C289.773 183.121 292.44 149.111 292.44 149.111" stroke="#1D2332" stroke-width="3" stroke-linecap="round" stroke-linejoin="round"/>
<path d="M355.77 162.075C354.856 167.167 354.462 172.339 354.596 177.511C354.321 181.869 355.678 186.173 358.405 189.587C360.024 191.235 362.405 192.567 362.722 194.88C362.722 195.929 362.423 196.957 361.861 197.843C361.299 198.73 360.497 199.439 359.548 199.888C357.703 200.827 355.921 201.886 354.215 203.058" stroke="#1D2332" stroke-width="3" stroke-linecap="round" stroke-linejoin="round"/>
<path d="M332.277 204.865C332.277 204.865 333.991 215.863 348.784 218.145" stroke="#1D2332" stroke-width="3" stroke-linecap="round" stroke-linejoin="round"/>
<path d="M333.833 170.411C333.833 173.581 332.468 176.148 330.659 176.148C328.849 176.148 327.484 173.581 327.484 170.411C327.484 167.241 328.881 164.642 330.659 164.642C332.437 164.642 333.833 167.241 333.833 170.411Z" fill="#1D2332"/>
<path d="M377.892 171.838C377.892 175.007 376.495 177.606 374.717 177.606C372.94 177.606 371.543 175.007 371.543 171.838C371.543 168.668 372.908 166.101 374.717 166.101C376.527 166.101 377.892 168.668 377.892 171.838Z" fill="#1D2332"/>
<path d="M369.133 157.923C369.133 157.923 383.45 143.596 395.576 159.571" stroke="#1D2332" stroke-width="3" stroke-linecap="round" stroke-linejoin="round"/>
<path d="M338.689 158.177C338.689 158.177 329.61 148.002 315.293 158.177" stroke="#1D2332" stroke-width="3" stroke-linecap="round" stroke-linejoin="round"/>
<path d="M294.597 182.582C294.597 182.582 282.915 186.671 279.804 177.606C276.693 168.541 266.026 144.579 275.359 136.623C284.692 128.667 292.152 147.146 292.152 147.146" stroke="#1D2332" stroke-width="3" stroke-linecap="round" stroke-linejoin="round"/>
<path d="M403.828 187.527C403.828 187.527 414.685 189.714 417.764 180.617C420.843 171.52 431.541 147.622 422.208 139.634C412.875 131.647 405.415 150.157 405.415 150.157" stroke="#1D2332" stroke-width="3" stroke-linecap="round" stroke-linejoin="round"/>
<path d="M292.149 170.411C296.214 169.771 299.882 167.605 302.403 164.357C303.985 161.515 304.998 158.393 305.387 155.165C306.451 149.063 306.992 142.881 307.005 136.686C306.86 134.268 307.085 131.842 307.672 129.491C308.519 127.131 309.849 124.972 311.577 123.152C315.64 118.366 320.56 114.341 324.433 109.396C326.523 107.045 328.106 104.29 329.083 101.302C330.061 98.3134 330.412 95.1563 330.115 92.0268C339.016 99.3606 349.419 104.657 360.591 107.543C371.763 110.429 383.433 110.834 394.779 108.731C415.35 104.705 435.063 86.5434 432.682 64.0709C432.232 60.2447 430.59 56.6563 427.986 53.8126C425.383 50.9689 421.951 49.0136 418.175 48.2229C408.017 45.7189 398.874 51.1073 389.605 54.5621C372.844 60.9013 356.4 50.0296 339.448 48.2229C324.941 46.6698 307.164 48.4765 299.609 62.8665C299.609 62.8665 273.547 66.0361 262.15 87.3041C250.754 108.572 272.404 138.24 272.404 138.24C272.404 138.24 281.134 127.685 292.371 149.048L292.149 170.411Z" fill="#4F5865"/>
<path d="M392.968 101.631C392.968 101.631 386.238 136.686 403.825 153.675C403.825 153.675 407.666 143.121 411.57 140.553C414.355 134.321 415.523 127.489 414.969 120.687C414.414 113.884 412.154 107.331 408.396 101.631C395.603 81.25 392.968 101.631 392.968 101.631Z" fill="#4F5865"/>
<path opacity="0.2" d="M425.161 61.7571C423.627 66.5321 421.022 70.895 417.546 74.5144C414.07 78.1337 409.813 80.9143 405.099 82.6447C380.719 92.5973 357.006 81.5671 332.562 79.4751C312.595 77.7319 290.596 95.6718 289.199 116.147" stroke="white" stroke-width="3" stroke-linecap="round" stroke-linejoin="round"/>
<path opacity="0.2" d="M274.055 110.696C274.356 102.613 276.958 94.7837 281.558 88.1257C286.157 81.4676 292.562 76.2568 300.022 73.1042" stroke="white" stroke-width="3" stroke-linecap="round" stroke-linejoin="round"/>
<path d="M305.422 244.833C316.171 256.041 329.146 264.882 343.515 270.792C343.515 270.792 372.72 262.329 387.609 241.98" stroke="#1D2332" stroke-width="3" stroke-linecap="round" stroke-linejoin="round"/>
<path d="M324.465 196.275C338.736 196.275 350.305 184.724 350.305 170.475C350.305 156.225 338.736 144.674 324.465 144.674C310.194 144.674 298.625 156.225 298.625 170.475C298.625 184.724 310.194 196.275 324.465 196.275Z" stroke="#1D2332" stroke-width="3" stroke-linecap="round" stroke-linejoin="round"/>
<path d="M382.242 196.275C396.514 196.275 408.083 184.724 408.083 170.475C408.083 156.225 396.514 144.674 382.242 144.674C367.971 144.674 356.402 156.225 356.402 170.475C356.402 184.724 367.971 196.275 382.242 196.275Z" stroke="#1D2332" stroke-width="3" stroke-linecap="round" stroke-linejoin="round"/>
<path d="M311.039 235.198C308.441 235.88 306.005 237.072 303.874 238.705C301.743 240.338 299.959 242.378 298.627 244.707C294.055 252.726 296.785 278.051 296.785 278.051C296.785 278.051 320.403 301.411 340.529 311.236L346.466 278.178L355.672 311.49C355.672 311.49 386.813 289.493 395.448 270.919C395.448 270.919 398.241 249.239 395.448 242.107C394.787 240.157 393.538 238.459 391.873 237.245C390.208 236.03 388.208 235.36 386.146 235.325" stroke="#1D2332" stroke-width="3" stroke-linecap="round" stroke-linejoin="round"/>
<path d="M274.054 457.989C274.054 457.989 264.816 396.213 252.531 371.015" stroke="#1D2332" stroke-width="3" stroke-linecap="round" stroke-linejoin="round"/>
<path d="M225.965 316.213C233.1 326.375 239.466 337.055 245.012 348.162" stroke="#1D2332" stroke-width="3" stroke-linecap="round" stroke-linejoin="round"/>
<path d="M468.59 362.299C471.061 351.966 474.461 341.878 478.748 332.156" stroke="#1D2332" stroke-width="3" stroke-linecap="round" stroke-linejoin="round"/>
<path d="M449.512 457.989C449.512 457.989 456.178 415.643 464.082 380.746" stroke="#1D2332" stroke-width="3" stroke-linecap="round" stroke-linejoin="round"/>
<path d="M460.809 398.622C467.213 390.105 476.25 383.934 486.522 381.062" stroke="#1D2332" stroke-width="3" stroke-linecap="round" stroke-linejoin="round"/>
<path d="M396.684 265.15C396.684 265.15 450.332 286.545 484.934 298.716C484.934 298.716 527.535 338.685 573.183 477.228C573.183 477.228 531.344 547.498 451.76 570.034" stroke="#1D2332" stroke-width="3" stroke-linecap="round" stroke-linejoin="round"/>
<path d="M465.574 505.216L504.049 473.171C504.049 473.171 524.365 457.704 545.539 468.29" stroke="#1D2332" stroke-width="3" stroke-linecap="round" stroke-linejoin="round"/>
<path d="M464.078 394.692C464.078 394.692 495.823 441.475 504.045 473.171" stroke="#1D2332" stroke-width="3" stroke-linecap="round" stroke-linejoin="round"/>
<path d="M246.789 483.885L235.52 473.171C235.52 473.171 218.822 470.255 199.902 482.902" stroke="#1D2332" stroke-width="3" stroke-linecap="round" stroke-linejoin="round"/>
<path d="M235.52 473.171C235.52 473.171 249.519 427.307 263.296 403.662" stroke="#1D2332" stroke-width="3" stroke-linecap="round" stroke-linejoin="round"/>
<path d="M296.122 270.792C296.122 270.792 218.983 299.699 211.427 308.098C203.872 316.498 175.112 478.211 174.35 496.69C173.651 513.235 233.776 550.414 263.457 566.072" stroke="#1D2332" stroke-width="3" stroke-linecap="round" stroke-linejoin="round"/>
<path d="M575.315 155.799H487.383C477.004 155.799 468.59 164.2 468.59 174.563V226.069C468.59 236.432 477.004 244.833 487.383 244.833H575.315C585.694 244.833 594.108 236.432 594.108 226.069V174.563C594.108 164.2 585.694 155.799 575.315 155.799Z" fill="white" stroke="#1D2332" stroke-width="3" stroke-linecap="round" stroke-linejoin="round"/>
<path d="M509.095 182.582L484.969 197.701L507.349 217.543" stroke="#1D2332" stroke-width="3" stroke-linecap="round" stroke-linejoin="round"/>
<path d="M553.06 218.969L574.773 200.522L549.727 184.135" stroke="#1D2332" stroke-width="3" stroke-linecap="round" stroke-linejoin="round"/>
<path d="M520.836 230.316L538.645 174.531" stroke="#1D2332" stroke-width="3" stroke-linecap="round" stroke-linejoin="round"/>
<path d="M353.674 325.405C353.674 326.408 353.376 327.388 352.818 328.222C352.26 329.056 351.467 329.706 350.538 330.09C349.61 330.474 348.589 330.574 347.604 330.379C346.619 330.183 345.714 329.7 345.003 328.991C344.293 328.281 343.809 327.378 343.613 326.394C343.417 325.41 343.518 324.391 343.902 323.464C344.287 322.537 344.938 321.745 345.773 321.188C346.608 320.631 347.59 320.333 348.595 320.333C349.262 320.333 349.922 320.464 350.538 320.719C351.155 320.974 351.715 321.348 352.186 321.819C352.658 322.29 353.032 322.849 353.287 323.464C353.543 324.079 353.674 324.739 353.674 325.405Z" fill="#1D2332"/>
<path d="M442.937 596.12H267.357C266.268 596.12 265.223 595.69 264.45 594.924C263.677 594.158 263.239 593.118 263.23 592.031C263.23 590.938 263.665 589.89 264.439 589.118C265.213 588.345 266.263 587.911 267.357 587.911H442.937C444.031 587.911 445.081 588.345 445.855 589.118C446.629 589.89 447.063 590.938 447.063 592.031C447.055 593.118 446.616 594.158 445.843 594.924C445.07 595.69 444.026 596.12 442.937 596.12Z" fill="#1D2332"/>
<path d="M449.097 582.459L472.619 472.125C472.984 470.416 472.961 468.647 472.552 466.948C472.144 465.249 471.36 463.662 470.259 462.304C469.157 460.946 467.766 459.851 466.186 459.099C464.606 458.347 462.878 457.957 461.128 457.957H255.963C254.226 457.957 252.511 458.341 250.941 459.082C249.371 459.823 247.986 460.902 246.884 462.242C245.782 463.582 244.991 465.149 244.568 466.83C244.145 468.512 244.101 470.266 244.439 471.967L265.518 578.624C266.03 581.254 267.427 583.63 269.476 585.359C271.526 587.088 274.105 588.067 276.787 588.133L437.32 591.968C440.089 592.019 442.788 591.094 444.942 589.355C447.096 587.615 448.567 585.174 449.097 582.459Z" fill="white" stroke="#1D2332" stroke-width="3" stroke-linecap="round" stroke-linejoin="round"/>
<path d="M374.245 521.571C374.245 524.806 373.284 527.968 371.484 530.658C369.684 533.347 367.126 535.443 364.133 536.681C361.14 537.919 357.846 538.243 354.669 537.612C351.491 536.981 348.573 535.423 346.282 533.136C343.991 530.849 342.431 527.934 341.799 524.762C341.167 521.589 341.491 518.301 342.731 515.312C343.971 512.324 346.07 509.769 348.764 507.972C351.458 506.175 354.625 505.216 357.865 505.216C362.209 505.216 366.375 506.939 369.447 510.006C372.519 513.074 374.245 517.234 374.245 521.571Z" fill="#4F5865"/>
<path d="M406.434 468.448H430.813" stroke="#1D2332" stroke-width="3" stroke-linecap="round" stroke-linejoin="round"/>
<path d="M290.023 468.448H382.559" stroke="#1D2332" stroke-width="3" stroke-linecap="round" stroke-linejoin="round"/>
<path d="M449.51 699.544L430.781 748.578C430.781 748.578 383.164 736.565 321.992 724.077C258.09 710.986 191.363 694.061 156.73 633.426C152.508 626.041 149.714 617.293 151.682 609.02C156.698 588.069 183.967 582.396 201.966 580.272C213.27 579.069 224.628 578.434 235.996 578.37C241.805 578.37 260.915 575.201 265.518 578.655C272.491 583.734 279.931 588.139 287.74 591.809C297.961 596.12 447.066 587.911 447.066 587.911C449.668 582.272 451.258 576.222 451.764 570.034C475.191 558.148 529.475 548.069 552.426 552.506C588.488 559.511 609.566 580.525 605.503 602.522C601.44 624.52 521.919 683.538 449.51 699.544Z" fill="#1D2332"/>
<path d="M449.509 699.544C449.509 699.544 404.146 687.563 366.974 662.555C329.801 637.547 300.945 608.672 249.328 614.535" stroke="white" stroke-width="3" stroke-linecap="round" stroke-linejoin="round"/>
<path d="M358.562 656.659C381.958 649.908 399.132 634.789 417.925 620.272C437.727 604.406 458.985 590.44 481.414 578.56" stroke="white" stroke-width="3" stroke-linecap="round" stroke-linejoin="round"/>
<path d="M350.34 174.531H357.197" stroke="#1D2332" stroke-width="3" stroke-linecap="round" stroke-linejoin="round"/>
<path fill-rule="evenodd" clip-rule="evenodd" d="M759.785 704.162H815.74V747.229H759.785V704.162Z" fill="white"/>
<path d="M815.742 748.84H759.787C759.576 748.84 759.366 748.799 759.171 748.718C758.975 748.637 758.797 748.518 758.648 748.369C758.498 748.219 758.379 748.041 758.298 747.846C758.217 747.65 758.176 747.441 758.176 747.229V704.162C758.176 703.734 758.346 703.324 758.648 703.022C758.95 702.72 759.36 702.55 759.787 702.55H815.742C816.17 702.55 816.579 702.72 816.882 703.022C817.184 703.324 817.354 703.734 817.354 704.162V747.229C817.354 747.441 817.312 747.65 817.231 747.846C817.15 748.041 817.031 748.219 816.882 748.369C816.732 748.518 816.554 748.637 816.359 748.718C816.163 748.799 815.954 748.84 815.742 748.84ZM761.399 745.618H814.136V705.773H761.399V745.618Z" fill="#1D2332"/>
<path fill-rule="evenodd" clip-rule="evenodd" d="M670.84 519.611H904.686C907.64 519.611 910.473 520.785 912.562 522.873C914.65 524.961 915.824 527.793 915.824 530.747V693.576C915.824 696.529 914.65 699.362 912.562 701.45C910.473 703.538 907.64 704.712 904.686 704.712H670.84C667.887 704.71 665.055 703.536 662.967 701.448C660.88 699.36 659.707 696.529 659.707 693.576V530.747C659.707 527.794 660.88 524.963 662.967 522.875C665.055 520.787 667.887 519.613 670.84 519.611Z" fill="white"/>
<path fill-rule="evenodd" clip-rule="evenodd" d="M790.946 519.617C786.073 522.982 781.431 526.518 776.976 530.175H891.338C893.953 530.182 896.46 531.223 898.309 533.072C900.159 534.92 901.202 537.425 901.211 540.04V684.266C901.211 686.887 900.172 689.4 898.321 691.256C896.47 693.111 893.959 694.157 891.338 694.164H727.742C730.183 697.895 732.914 701.427 735.91 704.728H904.693C906.156 704.727 907.604 704.438 908.955 703.878C910.306 703.318 911.533 702.497 912.567 701.463C913.601 700.428 914.421 699.2 914.98 697.849C915.539 696.497 915.826 695.049 915.826 693.587V530.741C915.826 529.28 915.538 527.833 914.978 526.483C914.418 525.133 913.598 523.906 912.565 522.873C911.531 521.84 910.303 521.021 908.953 520.462C907.602 519.903 906.155 519.616 904.693 519.617H790.946Z" fill="#42C66E"/>
<path fill-rule="evenodd" clip-rule="evenodd" d="M747.023 753.338C747.023 751.645 747.696 750.021 748.894 748.824C750.091 747.627 751.716 746.954 753.409 746.954H822.114C822.953 746.954 823.784 747.119 824.559 747.441C825.334 747.762 826.038 748.233 826.631 748.826C827.224 749.419 827.695 750.124 828.015 750.899C828.336 751.674 828.5 752.505 828.5 753.344V763.951C828.5 764.256 828.44 764.558 828.323 764.839C828.206 765.121 828.035 765.377 827.82 765.592C827.604 765.808 827.348 765.979 827.067 766.095C826.785 766.212 826.483 766.272 826.179 766.272H749.35C749.045 766.273 748.742 766.213 748.46 766.097C748.178 765.981 747.921 765.81 747.705 765.594C747.489 765.379 747.318 765.123 747.201 764.841C747.084 764.559 747.023 764.257 747.023 763.951V753.338Z" fill="white"/>
<path d="M826.181 767.878H749.352C748.309 767.878 747.308 767.464 746.569 766.727C745.831 765.99 745.416 764.99 745.414 763.946V753.339C745.416 751.218 746.258 749.185 747.758 747.685C749.257 746.185 751.29 745.341 753.412 745.338H822.116C824.237 745.341 826.27 746.185 827.77 747.685C829.269 749.185 830.112 751.218 830.113 753.339V763.946C830.112 764.989 829.697 765.988 828.96 766.725C828.223 767.462 827.223 767.877 826.181 767.878ZM753.412 748.56C752.145 748.562 750.93 749.066 750.035 749.962C749.14 750.858 748.637 752.072 748.637 753.339V763.946C748.639 764.135 748.715 764.315 748.849 764.448C748.983 764.581 749.164 764.656 749.352 764.656H826.181C826.369 764.656 826.549 764.581 826.682 764.448C826.816 764.315 826.89 764.134 826.89 763.946V753.339C826.89 752.072 826.387 750.858 825.492 749.962C824.597 749.066 823.383 748.562 822.116 748.56H753.412Z" fill="#1D2332"/>
<path d="M891.341 695.759H684.182C681.136 695.755 678.217 694.542 676.064 692.387C673.912 690.232 672.703 687.311 672.703 684.266V540.034C672.709 536.993 673.92 534.078 676.072 531.928C678.224 529.778 681.14 528.568 684.182 528.563H891.341C894.383 528.566 897.301 529.776 899.453 531.926C901.605 534.076 902.816 536.992 902.82 540.034V684.266C902.821 687.312 901.613 690.234 899.46 692.389C897.308 694.544 894.387 695.756 891.341 695.759ZM684.182 531.786C681.994 531.786 679.896 532.655 678.348 534.202C676.801 535.749 675.932 537.847 675.932 540.034V684.266C675.932 686.454 676.801 688.552 678.348 690.099C679.896 691.646 681.994 692.515 684.182 692.515H891.341C893.529 692.515 895.627 691.646 897.175 690.099C898.722 688.552 899.591 686.454 899.591 684.266V540.034C899.591 537.847 898.722 535.749 897.175 534.202C895.627 532.655 893.529 531.786 891.341 531.786H684.182Z" fill="#1D2332"/>
<path d="M904.688 706.323H670.842C667.462 706.318 664.222 704.974 661.833 702.584C659.444 700.194 658.101 696.955 658.098 693.576V530.747C658.101 527.368 659.444 524.128 661.833 521.739C664.222 519.349 667.462 518.004 670.842 518H904.688C908.068 518.004 911.308 519.349 913.698 521.738C916.089 524.128 917.433 527.367 917.438 530.747V693.576C917.433 696.955 916.089 700.195 913.698 702.584C911.308 704.974 908.068 706.318 904.688 706.323ZM670.842 521.222C668.316 521.225 665.895 522.23 664.109 524.015C662.323 525.801 661.318 528.221 661.315 530.747V693.576C661.318 696.101 662.323 698.522 664.109 700.307C665.895 702.093 668.316 703.097 670.842 703.1H904.688C907.214 703.097 909.635 702.093 911.421 700.307C913.207 698.522 914.212 696.101 914.214 693.576V530.747C914.212 528.221 913.207 525.801 911.421 524.015C909.635 522.23 907.214 521.225 904.688 521.222H670.842Z" fill="#1D2332"/>
<path d="M891.341 695.759H684.182C681.136 695.755 678.217 694.542 676.064 692.387C673.912 690.232 672.703 687.311 672.703 684.266V540.034C672.709 536.993 673.92 534.078 676.072 531.928C678.224 529.778 681.14 528.568 684.182 528.563H891.341C894.383 528.566 897.301 529.776 899.453 531.926C901.605 534.076 902.816 536.992 902.82 540.034V684.266C902.821 687.312 901.613 690.234 899.46 692.389C897.308 694.544 894.387 695.756 891.341 695.759ZM684.182 531.786C681.994 531.786 679.896 532.655 678.348 534.202C676.801 535.749 675.932 537.847 675.932 540.034V684.266C675.932 686.454 676.801 688.552 678.348 690.099C679.896 691.646 681.994 692.515 684.182 692.515H891.341C893.529 692.515 895.627 691.646 897.175 690.099C898.722 688.552 899.591 686.454 899.591 684.266V540.034C899.591 537.847 898.722 535.749 897.175 534.202C895.627 532.655 893.529 531.786 891.341 531.786H684.182Z" fill="#1D2332"/>
<path fill-rule="evenodd" clip-rule="evenodd" d="M787.766 668.352C787.766 666.224 788.611 664.183 790.116 662.677C791.621 661.172 793.662 660.325 795.791 660.324C797.92 660.324 799.963 661.17 801.469 662.675C802.975 664.181 803.821 666.223 803.821 668.352C803.822 669.407 803.615 670.451 803.211 671.425C802.808 672.4 802.216 673.285 801.471 674.031C800.725 674.776 799.839 675.368 798.865 675.771C797.89 676.174 796.845 676.381 795.791 676.381C794.736 676.381 793.692 676.173 792.718 675.769C791.744 675.366 790.859 674.774 790.114 674.029C789.369 673.283 788.778 672.398 788.375 671.424C787.972 670.45 787.765 669.406 787.766 668.352Z" fill="#42C66E"/>
<path fill-rule="evenodd" clip-rule="evenodd" d="M731.559 588.079C731.559 585.949 732.405 583.907 733.911 582.402C735.417 580.896 737.459 580.05 739.589 580.05C741.718 580.052 743.759 580.898 745.264 582.404C746.769 583.909 747.614 585.95 747.614 588.079C747.614 590.207 746.769 592.248 745.264 593.754C743.759 595.259 741.718 596.106 739.589 596.107C737.459 596.107 735.417 595.261 733.911 593.756C732.405 592.25 731.559 590.208 731.559 588.079Z" fill="#42C66E"/>
<path d="M798.051 673.202C797.367 673.202 796.693 673.039 796.084 672.726C795.476 672.413 794.951 671.96 794.553 671.404L739.803 594.765L709.248 644.553C708.954 645.034 708.567 645.452 708.111 645.784C707.654 646.115 707.137 646.353 706.588 646.484C706.039 646.616 705.47 646.638 704.913 646.549C704.356 646.46 703.821 646.262 703.341 645.966C702.86 645.671 702.442 645.285 702.11 644.829C701.778 644.372 701.54 643.855 701.408 643.307C701.276 642.759 701.254 642.19 701.342 641.632C701.43 641.075 701.627 640.541 701.922 640.06L735.87 584.735C736.242 584.132 736.758 583.629 737.371 583.272C737.984 582.915 738.676 582.715 739.385 582.69C740.093 582.666 740.796 582.818 741.431 583.131C742.066 583.445 742.614 583.911 743.026 584.488L797.88 661.27L869.066 551.841C869.373 551.367 869.771 550.959 870.236 550.64C870.701 550.32 871.225 550.096 871.777 549.979C872.33 549.862 872.899 549.855 873.454 549.958C874.009 550.062 874.538 550.273 875.011 550.581C875.485 550.889 875.893 551.286 876.212 551.752C876.532 552.217 876.756 552.74 876.873 553.292C876.99 553.844 876.997 554.414 876.894 554.969C876.791 555.524 876.579 556.053 876.271 556.526L801.654 671.245C801.272 671.832 800.753 672.317 800.141 672.658C799.53 672.999 798.844 673.186 798.144 673.202H798.051Z" fill="#42C66E"/>
<path d="M871.804 577.763H871.551C870.413 577.696 869.349 577.181 868.591 576.33C867.833 575.48 867.444 574.363 867.508 573.226L868.223 560.991L856.205 567.04C855.701 567.293 855.152 567.445 854.589 567.487C854.026 567.528 853.46 567.458 852.925 567.281C852.389 567.104 851.893 566.823 851.466 566.454C851.039 566.085 850.689 565.636 850.435 565.132C850.181 564.628 850.03 564.079 849.988 563.516C849.947 562.953 850.017 562.388 850.194 561.852C850.371 561.316 850.652 560.821 851.021 560.394C851.39 559.967 851.839 559.616 852.344 559.363L871.017 549.982C871.692 549.644 872.443 549.489 873.196 549.533C873.948 549.576 874.677 549.816 875.308 550.229C875.94 550.644 876.451 551.219 876.79 551.895C877.129 552.571 877.284 553.324 877.238 554.079L876.089 573.748C876.016 574.836 875.533 575.855 874.738 576.6C873.943 577.345 872.894 577.761 871.804 577.763Z" fill="#42C66E"/>
<path fill-rule="evenodd" clip-rule="evenodd" d="M641.667 622.315H706.973C707.96 622.322 708.937 622.523 709.847 622.907C710.756 623.291 711.582 623.851 712.275 624.554C712.968 625.258 713.516 626.091 713.887 627.006C714.258 627.921 714.444 628.9 714.436 629.887V747.818C714.444 748.805 714.258 749.785 713.887 750.7C713.516 751.615 712.968 752.448 712.275 753.151C711.582 753.854 710.756 754.414 709.847 754.798C708.937 755.182 707.96 755.384 706.973 755.39H641.667C640.68 755.384 639.703 755.182 638.793 754.798C637.883 754.414 637.058 753.854 636.365 753.151C635.672 752.448 635.124 751.615 634.753 750.7C634.382 749.785 634.195 748.805 634.203 747.818V629.887C634.195 628.9 634.382 627.921 634.753 627.006C635.124 626.091 635.672 625.258 636.365 624.554C637.058 623.851 637.883 623.291 638.793 622.907C639.703 622.523 640.68 622.322 641.667 622.315Z" fill="white"/>
<path fill-rule="evenodd" clip-rule="evenodd" d="M703.984 622.321C702.95 624.905 702.032 627.495 701.168 630.091C702.474 630.5 703.611 631.325 704.405 632.44C705.2 633.554 705.608 634.898 705.568 636.266V709.952C706.25 711.178 706.921 712.405 707.669 713.609C709.7 716.881 711.961 720.005 714.435 722.957V629.887C714.442 628.901 714.255 627.923 713.884 627.009C713.513 626.094 712.966 625.262 712.273 624.56C711.58 623.857 710.756 623.298 709.847 622.914C708.939 622.529 707.963 622.328 706.976 622.321H703.984Z" fill="#42C66E"/>
<path d="M684.062 753.509H664.574C663.818 753.506 663.094 753.204 662.561 752.667C662.028 752.131 661.729 751.406 661.73 750.65V747.026C661.73 746.27 662.03 745.546 662.562 745.01C663.095 744.474 663.818 744.171 664.574 744.167H684.062C684.817 744.171 685.541 744.474 686.074 745.01C686.606 745.546 686.905 746.27 686.905 747.026V750.65C686.907 751.406 686.608 752.131 686.075 752.667C685.542 753.204 684.818 753.506 684.062 753.509ZM664.954 750.287H683.655V747.389H664.954V750.287Z" fill="#1D2332"/>
<path fill-rule="evenodd" clip-rule="evenodd" d="M652.672 706.366C652.673 703.901 653.654 701.537 655.398 699.795C657.142 698.052 659.507 697.073 661.973 697.073C664.438 697.073 666.803 698.052 668.546 699.795C670.289 701.538 671.268 703.902 671.268 706.366C671.268 708.832 670.289 711.196 668.546 712.94C666.803 714.683 664.439 715.664 661.973 715.665C659.506 715.665 657.14 714.686 655.396 712.942C653.652 711.198 652.672 708.833 652.672 706.366Z" fill="#42C66E"/>
<path d="M661.948 709.012C661.202 709.017 660.469 708.828 659.819 708.462C659.329 708.182 658.9 707.808 658.554 707.362C658.209 706.915 657.955 706.406 657.807 705.861C657.659 705.317 657.619 704.749 657.691 704.189C657.763 703.63 657.944 703.09 658.224 702.6L699.476 630.525C699.756 630.035 700.13 629.605 700.576 629.259C701.022 628.914 701.532 628.659 702.077 628.511C702.622 628.363 703.19 628.324 703.75 628.396C704.31 628.468 704.85 628.649 705.34 628.931C705.83 629.21 706.26 629.584 706.606 630.03C706.952 630.476 707.207 630.985 707.355 631.53C707.504 632.074 707.544 632.643 707.473 633.202C707.401 633.762 707.221 634.303 706.94 634.792L665.688 706.867C665.309 707.522 664.763 708.066 664.107 708.443C663.45 708.819 662.705 709.016 661.948 709.012Z" fill="#42C66E"/>
<path d="M706.971 757.001H641.66C639.24 756.982 636.927 756.005 635.227 754.283C633.526 752.562 632.578 750.237 632.59 747.818V629.887C632.578 627.468 633.526 625.143 635.227 623.422C636.927 621.7 639.24 620.723 641.66 620.704H706.971C709.391 620.722 711.706 621.698 713.408 623.42C715.109 625.141 716.058 627.467 716.046 629.887V747.818C716.058 750.238 715.109 752.564 713.408 754.285C711.706 756.007 709.391 756.984 706.971 757.001ZM641.66 623.926C640.095 623.944 638.6 624.581 637.504 625.699C636.408 626.816 635.8 628.322 635.813 629.887V747.818C635.8 749.383 636.408 750.889 637.504 752.007C638.6 753.124 640.095 753.761 641.66 753.779H706.971C708.537 753.763 710.033 753.126 711.13 752.008C712.227 750.891 712.836 749.384 712.823 747.818V629.887C712.836 628.321 712.227 626.814 711.13 625.697C710.033 624.579 708.537 623.942 706.971 623.926H641.66Z" fill="#1D2332"/>
<path d="M699.755 743.87H648.877C644.785 743.87 641.457 740.279 641.457 735.869V636.266C641.457 631.867 644.757 628.265 648.877 628.265H699.755C703.853 628.265 707.18 631.856 707.18 636.266V735.869C707.18 740.279 703.853 743.87 699.755 743.87ZM648.877 631.477C646.561 631.477 644.68 633.621 644.68 636.255V735.858C644.68 738.492 646.561 740.636 648.877 740.636H699.755C702.076 740.636 703.957 738.492 703.957 735.858V636.266C703.957 633.632 702.076 631.488 699.755 631.488L648.877 631.477Z" fill="#1D2332"/>
<path fill-rule="evenodd" clip-rule="evenodd" d="M759.949 704.766L760.032 710.265C760.032 710.265 779.217 716.556 792.077 718.591C804.936 720.625 815.821 721.489 815.821 721.489L815.326 704.442L759.949 704.766Z" fill="#1D2332"/>
<path d="M947.523 767.779H589.612C589.184 767.779 588.774 767.609 588.472 767.307C588.17 767.005 588 766.595 588 766.168C588 765.74 588.17 765.331 588.472 765.029C588.774 764.726 589.184 764.557 589.612 764.557H947.523C947.95 764.557 948.36 764.726 948.662 765.029C948.965 765.331 949.134 765.74 949.134 766.168C949.134 766.595 948.965 767.005 948.662 767.307C948.36 767.609 947.95 767.779 947.523 767.779Z" fill="#1D2332"/>
<path d="M733.967 554.972H735.157L735.751 553.941L786.406 465.984L786.998 464.957L786.406 463.93L735.751 375.973L735.157 374.942H733.967H632.656H631.466L630.872 375.973L580.216 463.93L579.625 464.957L580.216 465.984L630.872 553.941L631.466 554.972H632.656H733.967Z" stroke="#1D2332" stroke-width="4.11638"/>
<g clip-path="url(#clip1_2275_3099)">
<path d="M708.898 442.161C708.898 442.161 705.924 443.207 701.901 443.207C695.079 443.207 690.007 440.069 687.208 433.967C685.983 431.526 684.409 430.132 684.234 429.957C683.185 429.26 681.785 429.434 681.086 430.48L678.812 433.618C673.214 441.289 666.393 442.859 661.67 442.859C658.871 442.859 656.947 442.161 656.947 442.161C655.548 441.638 654.148 442.684 654.148 444.253V477.378C654.148 486.095 659.046 493.941 668.492 499.868C675.313 504.227 682.31 506.145 682.485 506.145C682.835 506.319 683.185 506.319 683.709 506.145C684.059 506.145 690.706 504.227 697.703 499.868C706.974 493.941 712.046 485.921 712.046 477.378V444.253C711.871 442.859 710.297 441.813 708.898 442.161ZM707.498 477.553C707.498 493.592 686.683 500.914 683.01 501.961C679.337 500.74 658.521 493.592 658.521 477.553V447.043C659.396 447.217 660.62 447.217 661.845 447.217C676.188 447.217 682.66 435.536 683.185 435.188C683.185 435.362 683.36 435.536 683.36 435.711C687.908 445.474 696.129 447.74 702.076 447.74C704.175 447.74 706.099 447.391 707.673 447.217L707.498 477.553Z" fill="#1D2332"/>
<path d="M690.711 462.908C689.662 462.211 688.262 462.559 687.737 463.431L680.566 474.415L678.117 471.974C677.242 471.102 675.843 471.102 674.968 471.974C674.094 472.846 674.094 474.24 674.968 475.112L679.341 479.471C680.391 480.517 681.965 480.342 682.665 479.122L691.411 465.872C692.11 464.826 691.761 463.431 690.711 462.908Z" fill="#1D2332"/>
<path d="M733.738 449.484H720.444V431.875C720.444 430.306 718.87 429.26 717.47 429.783C717.47 429.783 713.272 431.352 708.025 431.352C698.754 431.352 691.933 426.819 688.084 417.753C686.685 414.441 684.586 412.697 684.411 412.523C683.362 411.651 681.962 412 681.263 413.046L678.289 417.405C670.767 428.388 661.497 430.829 655.2 430.829C651.352 430.829 648.728 429.957 648.728 429.957C647.329 429.434 645.754 430.48 645.754 432.049V449.658H632.286C631.061 449.658 630.012 450.704 630.012 451.924C630.012 453.145 631.061 454.191 632.286 454.191H645.579V460.293H636.834C635.609 460.293 634.56 461.339 634.56 462.559C634.56 463.78 635.609 464.826 636.834 464.826H645.579V471.451H638.758C637.533 471.451 636.484 472.497 636.484 473.717C636.484 474.938 637.533 475.984 638.758 475.984H645.404C645.754 477.204 642.606 494.464 663.946 508.934C672.867 515.036 681.787 517.477 682.312 517.651C682.662 517.826 683.187 517.826 683.536 517.651C683.886 517.477 692.632 514.862 701.903 508.934C723.418 494.464 720.269 477.378 720.444 475.984H727.091C728.315 475.984 729.365 474.938 729.365 473.717C729.365 472.497 728.315 471.451 727.091 471.451H720.444V464.826H729.19C730.414 464.826 731.464 463.78 731.464 462.559C731.464 461.339 730.414 460.293 729.19 460.293H720.444V453.668H733.738C734.962 453.668 736.012 452.622 736.012 451.401C735.837 450.355 734.787 449.484 733.738 449.484ZM716.071 477.901C716.071 488.188 710.474 497.428 699.454 504.75C692.457 509.457 685.111 512.072 682.837 512.77C680.738 512.072 673.566 509.632 666.395 504.75C655.2 497.428 649.602 488.188 649.602 477.727V434.49C651.002 434.665 652.751 435.013 654.675 435.013C662.022 435.013 672.692 432.398 681.263 419.845L682.662 417.753C683.012 418.276 683.187 418.799 683.536 419.322C689.309 432.747 699.804 435.536 707.5 435.536C710.649 435.536 713.447 435.013 715.546 434.49V477.901H716.071Z" fill="#1D2332"/>
</g>
<defs>
<clipPath id="clip0_2275_3099">
<rect width="122.933" height="122.933" fill="white" transform="translate(562.477 30.9854)"/>
</clipPath>
<clipPath id="clip1_2275_3099">
<rect width="106" height="106" fill="white" transform="translate(630 412)"/>
</clipPath>
</defs>
</svg>
