<svg width="44" height="44" viewBox="0 0 44 44" fill="none" xmlns="http://www.w3.org/2000/svg">
<circle cx="22" cy="22" r="22" fill="#42C66E"/>
<path d="M21.676 43.3147C10.319 43.3147 1.07031 34.1121 1.07031 22.8117C1.07031 11.5112 10.319 2.30859 21.676 2.30859C33.033 2.30859 42.2817 11.5112 42.2817 22.8117C42.2817 34.1121 33.0611 43.3147 21.676 43.3147ZM21.676 2.67222C10.5157 2.67222 1.43576 11.707 1.43576 22.8117C1.43576 33.9163 10.5157 42.9511 21.676 42.9511C32.8362 42.9511 41.9162 33.9163 41.9162 22.8117C41.9162 11.707 32.8643 2.67222 21.676 2.67222Z" fill="#42C66E"/>
<path d="M32.9838 15.0642C32.9838 11.4559 30.7911 8.54688 27.5583 8.54688C24.3255 8.54688 22.1328 11.4839 22.1328 15.0642C22.1328 17.9173 23.7914 20.3508 26.0965 21.2459C26.5463 21.4137 26.8555 21.8333 26.8555 22.3088L26.4057 35.9589C26.4057 36.5742 26.9118 37.1057 27.5583 37.1057C28.1768 37.1057 28.7109 36.6022 28.7109 35.9589L28.233 22.3088C28.233 21.8333 28.5422 21.4137 28.992 21.2459C31.3252 20.3508 32.9838 17.9173 32.9838 15.0642Z" fill="white"/>
<path d="M19.4038 8.5475C18.7853 8.5475 18.2512 9.05099 18.2512 9.69433V16.0718C18.2512 16.3795 18.0263 16.6872 17.6609 16.7152C17.2954 16.7152 16.9581 16.3515 16.9581 15.9879V9.69433C16.9581 9.07896 16.4521 8.5475 15.8055 8.5475C15.1871 8.5475 14.6529 9.05099 14.6529 9.69433V15.9879C14.6529 16.3795 14.3437 16.7152 13.9502 16.6872C13.5847 16.6592 13.3598 16.3795 13.3598 16.0438V9.66636C13.3598 9.05099 12.8538 8.51953 12.2073 8.51953C11.5888 8.51953 11.0547 9.02302 11.0547 9.66636V19.2885C11.0547 20.4913 15.0746 20.8549 15.0746 22.0577L14.6248 35.8756C14.6248 36.491 15.0465 37.0224 15.665 37.0784C16.3396 37.1343 16.9019 36.6028 16.9019 35.9595C16.9019 35.9595 16.4521 23.8479 16.4521 22.0577C16.4521 20.8549 20.472 20.4913 20.472 19.2885V9.66636C20.5563 9.05099 20.0222 8.5475 19.4038 8.5475Z" fill="white"/>
</svg>
