<svg width="158" height="138" viewBox="0 0 158 138" fill="none" xmlns="http://www.w3.org/2000/svg">
<path d="M158 68.6017L118.5 137.203H39.5L0 68.6017L39.5 0H118.5L158 68.6017Z" fill="#42C66E"/>
<path d="M118.355 32.5416H43.1209C42.2144 32.5416 41.4375 33.3204 41.4375 34.229V95.8814C41.4375 96.79 42.2144 97.5688 43.1209 97.5688H72.5152V107.303H69.278C68.3715 107.303 67.5946 108.082 67.5946 108.991C67.5946 109.899 68.3715 110.678 69.278 110.678C73.9396 110.678 83.3924 110.678 92.1978 110.678C93.1042 110.678 93.8812 109.899 93.8812 108.991C93.8812 108.082 93.1042 107.303 92.1978 107.303H88.9605V97.5688H118.355C119.261 97.5688 120.038 96.79 120.038 95.8814V34.229C119.909 33.3204 119.261 32.5416 118.355 32.5416ZM116.672 35.7865V87.7044H44.6748V35.7865H116.672ZM85.5938 107.174H75.7525V97.439H85.5938V107.174ZM44.6748 94.1941V90.9492H116.542V94.1941C102.687 94.1941 58.7892 94.1941 44.6748 94.1941Z" fill="#1D2332"/>
<path d="M49.7177 71.4797H75.8748C76.7812 71.4797 77.5581 70.7009 77.5581 69.7924C77.5581 65.3794 77.5581 48.2465 77.5581 40.5886C77.5581 39.68 76.7812 38.9012 75.8748 38.9012H49.7177C48.8112 38.9012 48.0343 39.68 48.0343 40.5886C48.0343 43.1845 48.0343 62.3941 48.0343 69.7924C47.9048 70.8307 48.6817 71.4797 49.7177 71.4797ZM51.2716 68.2348V52.0105H74.1914V68.2348H51.2716ZM51.2716 42.2759H74.1914V48.7656H51.2716V42.2759Z" fill="#1D2332"/>
<path d="M58.9207 55.7754C58.2732 55.1264 57.2373 55.1264 56.5899 55.7754L53.3526 59.0203C52.7052 59.6693 52.7052 60.7076 53.3526 61.3566L56.5899 64.6015C57.2373 65.2504 58.2732 65.2504 58.9207 64.6015C59.5681 63.9525 59.5681 62.9141 58.9207 62.2652L56.8489 60.1884L58.9207 58.1117C59.5681 57.4628 59.5681 56.4244 58.9207 55.7754Z" fill="#1D2332"/>
<path d="M68.7594 55.7754C68.112 55.1264 67.0761 55.1264 66.4286 55.7754C65.7812 56.4244 65.7812 57.4628 66.4286 58.1117L68.5005 60.1884L66.5581 62.2652C65.5222 63.3035 66.2991 64.9908 67.7235 64.9908C68.112 64.9908 68.5005 64.861 68.8889 64.4717L72.1262 61.2268C72.7737 60.5778 72.7737 59.5395 72.1262 58.8905L68.7594 55.7754Z" fill="#1D2332"/>
<path d="M56.1967 43.9656H52.9593V47.2107H56.1967V43.9656Z" fill="#1D2332"/>
<path d="M62.6761 43.9656H59.4387V47.2107H62.6761V43.9656Z" fill="#1D2332"/>
<path d="M85.5944 84.4599H111.752C112.658 84.4599 113.435 83.6812 113.435 82.7726C113.435 78.3596 113.435 61.2267 113.435 53.5688C113.435 52.6602 112.658 51.8815 111.752 51.8815H85.5944C84.688 51.8815 83.911 52.6602 83.911 53.5688C83.911 56.1647 83.911 75.3743 83.911 82.7726C83.911 83.8109 84.688 84.4599 85.5944 84.4599ZM87.1483 81.2151V64.9907H110.068V81.2151H87.1483ZM87.1483 55.2561H110.068V61.7459H87.1483V55.2561Z" fill="#1D2332"/>
<path d="M94.9194 68.754C94.2719 68.1051 93.236 68.1051 92.5885 68.754L89.3513 71.9989C88.7038 72.6479 88.7038 73.6862 89.3513 74.3352L92.5885 77.5801C93.236 78.229 94.2719 78.229 94.9194 77.5801C95.5668 76.9311 95.5668 75.8927 94.9194 75.2438L92.8475 73.167L94.9194 71.0903C95.5668 70.4414 95.5668 69.403 94.9194 68.754Z" fill="#1D2332"/>
<path d="M104.765 68.754C104.117 68.1051 103.081 68.1051 102.434 68.754C101.786 69.403 101.786 70.4414 102.434 71.0903L104.506 73.167L102.434 75.2438C101.786 75.8927 101.786 76.9311 102.434 77.5801C103.081 78.229 104.117 78.229 104.765 77.5801L108.002 74.3352C108.649 73.6862 108.649 72.6479 108.002 71.9989L104.765 68.754Z" fill="#1D2332"/>
<path d="M92.1972 56.9437H88.9598V60.1887H92.1972V56.9437Z" fill="#1D2332"/>
<path d="M98.6739 56.9437H95.4365V60.1887H98.6739V56.9437Z" fill="#1D2332"/>
</svg>
