<svg width="218" height="190" viewBox="0 0 218 190" fill="none" xmlns="http://www.w3.org/2000/svg">
<path d="M161 187.695H162.221L162.831 186.636L214.831 96.3457L215.438 95.2912L214.831 94.2368L162.831 3.94557L162.221 2.88719H161H57H55.7786L55.1691 3.94557L3.16911 94.2368L2.56185 95.2912L3.16912 96.3457L55.1691 186.636L55.7786 187.695H57H161Z" stroke="#1D2332" stroke-width="4.22562"/>
<g clip-path="url(#clip0_2183_4707)">
<path d="M166.375 123.822C165.016 122.734 163.476 122.643 161.303 123.187C161.393 122.734 161.484 122.19 161.484 121.737C161.393 120.65 160.941 118.927 159.039 117.477C157.861 116.571 156.322 116.48 154.42 116.933V108.051C154.42 100.166 148.805 93.4592 141.016 92.0997L129.061 90.0151C125.982 89.4713 123.537 87.2054 122.812 84.2145L121.907 80.5891C127.884 75.7855 131.778 67.6284 131.778 58.293C131.778 44.6072 122.812 35.4531 109.499 35.4531C96.1859 35.4531 87.2199 44.6072 87.2199 58.293C87.2199 67.5377 91.1142 75.6948 97.0916 80.4984L96.1859 84.1238C95.4614 87.1148 93.0161 89.3806 89.9369 89.9244L77.9821 92.009C70.1935 93.3685 64.5784 100.075 64.5784 107.961V112.946H51.1746C50.1784 112.946 49.3633 113.761 49.3633 114.758V147.296C49.3633 148.293 50.1784 149.109 51.1746 149.109H66.118C68.3821 149.834 83.7784 154.637 103.703 154.637C122.269 154.637 144.82 150.468 164.201 135.06C164.654 134.788 168.458 132.069 168.639 128.444C168.729 127.266 168.367 125.453 166.375 123.822ZM64.5784 145.483H52.9859V116.571H64.5784V145.483ZM156.865 120.287C157.861 121.012 157.861 121.646 157.861 121.828C157.861 122.734 157.137 124.003 155.869 125.181C155.507 125.362 155.054 125.544 154.692 125.725C149.801 127.81 142.918 130.71 133.318 133.157C133.499 132.523 133.59 131.979 133.68 131.435C133.771 130.438 133.68 129.532 133.59 128.625C139.295 126.994 144.276 124.909 148.261 123.187C151.522 121.737 156.05 119.743 156.865 120.287ZM130.058 93.8217L140.473 95.6344C146.541 96.722 150.888 101.888 150.888 108.051V118.112C149.62 118.565 148.261 119.199 146.812 119.834C142.827 121.556 137.937 123.64 132.322 125.181C132.05 124.637 131.688 124.184 131.235 123.822C128.699 121.284 125.167 121.465 125.076 121.465C118.737 121.556 114.39 121.375 111.31 121.012V99.9848L118.827 106.601C119.19 106.873 119.552 107.054 120.005 107.054C120.095 107.054 120.186 107.054 120.186 107.054C120.729 106.964 121.182 106.692 121.454 106.239L130.058 93.8217ZM109.59 93.8217L99.1746 86.8429C99.4463 86.299 99.6274 85.6646 99.8086 85.0302L100.443 82.583C103.25 84.1238 106.329 85.0302 109.68 85.0302C112.941 85.0302 116.02 84.1238 118.827 82.583L119.461 85.0302C119.643 85.6646 119.824 86.2084 120.095 86.8429L109.59 93.8217ZM121.907 89.9244C123.084 91.2839 124.624 92.2809 126.254 92.9154L119.643 102.613L112.397 96.2688L121.907 89.9244ZM90.8425 58.293C90.8425 55.3927 91.2954 52.7643 92.1105 50.4078C94.8274 51.858 100.171 54.0332 107.869 54.0332C111.854 54.0332 116.473 53.3987 121.726 51.858C122.722 51.5861 123.175 50.5891 122.903 49.5921C122.631 48.5951 121.635 48.0513 120.639 48.4139C106.148 52.8549 96.9104 48.9577 93.5595 47.145C96.7293 41.9788 102.254 38.9879 109.409 38.9879C120.729 38.9879 128.065 46.5105 128.065 58.293C128.065 71.0725 119.643 81.4954 109.409 81.4954C99.2652 81.4048 90.8425 71.0725 90.8425 58.293ZM97.0916 89.9244L106.51 96.2688L99.2652 102.613L92.6538 92.9154C94.4652 92.2809 95.9142 91.1933 97.0916 89.9244ZM68.201 107.961C68.201 101.798 72.5482 96.6314 78.6161 95.5438L89.0312 93.7311L97.5444 106.239C97.8161 106.692 98.2689 106.964 98.8123 107.054C98.9029 107.054 98.9935 107.054 99.084 107.054C99.5369 107.054 99.8991 106.873 100.261 106.601L107.778 99.9848V120.378C105.243 119.743 103.884 119.018 102.435 118.112C98.4501 115.755 93.8312 113.127 68.201 112.946V107.961ZM162.118 132.16C125.167 161.435 76.5331 148.474 68.201 145.937V116.571C92.835 116.752 97.001 119.109 100.624 121.284C104.337 123.459 107.597 125.362 125.258 125.091C125.258 125.091 127.341 125 128.699 126.359C129.695 127.356 130.148 128.988 129.967 131.163C129.967 131.707 129.876 133.338 126.616 134.607C126.616 134.607 126.526 134.607 126.526 134.698C123.175 136.057 115.658 137.145 99.3557 135.06C98.3595 134.879 97.4538 135.604 97.3633 136.601C97.2727 137.598 97.9067 138.504 98.9029 138.595C105.061 139.411 110.495 139.773 115.024 139.773C120.367 139.773 124.624 139.23 127.612 138.051C141.016 135.423 149.982 131.526 155.96 128.988C159.673 127.447 163.114 125.906 163.929 126.541C164.835 127.266 164.926 127.9 164.926 128.263C164.926 129.804 162.843 131.616 162.118 132.16Z" fill="#1D2332" stroke="#1D2332" stroke-width="0.8504" stroke-miterlimit="10"/>
<path d="M58.784 124.365C59.7802 124.365 60.5953 123.55 60.5953 122.553C60.5953 121.556 59.7802 120.74 58.784 120.74C57.7878 120.74 56.9727 121.556 56.9727 122.553C56.9727 123.55 57.7878 124.365 58.784 124.365Z" fill="#1D2332" stroke="#1D2332" stroke-width="0.8504" stroke-miterlimit="10"/>
</g>
<defs>
<clipPath id="clip0_2183_4707">
<rect width="120" height="120" fill="white" transform="translate(49 35)"/>
</clipPath>
</defs>
</svg>
