<svg width="161" height="325" viewBox="0 0 161 325" fill="none" xmlns="http://www.w3.org/2000/svg">
<path d="M160.801 170.357L81.2823 210.107L1.76367 170.357L81.2823 130.604L160.801 170.357Z" fill="url(#paint0_linear_543_3331)"/>
<path d="M81.2823 324.414L1.76367 284.66V170.357L81.2823 210.111V324.414Z" fill="url(#paint1_linear_543_3331)"/>
<path d="M81.2827 324.414L160.801 284.66V170.357L81.2827 210.111V324.414Z" fill="url(#paint2_linear_543_3331)"/>
<path d="M37.3251 276.252V282.168L17.9957 272.119V267.067L26.8719 258.96C27.728 258.068 28.3963 257.247 28.8769 256.499C29.3575 255.733 29.7029 255.007 29.9132 254.321C30.1235 253.617 30.2286 252.91 30.2286 252.199C30.2286 251.099 30.116 250.101 29.8907 249.205C29.6654 248.293 29.3275 247.508 28.8769 246.85C28.4414 246.184 27.9007 245.683 27.2549 245.347C26.4739 244.941 25.8281 244.876 25.3174 245.152C24.8068 245.428 24.4238 245.974 24.1685 246.789C23.9282 247.595 23.808 248.591 23.808 249.776L17.4775 246.485C17.4775 244.267 17.8755 242.443 18.6715 241.012C19.4825 239.588 20.6165 238.714 22.0733 238.388C23.5452 238.052 25.3099 238.42 27.3675 239.489C29.38 240.536 31.0622 241.833 32.4139 243.382C33.7806 244.939 34.8094 246.684 35.5003 248.617C36.2062 250.542 36.5591 252.587 36.5591 254.754C36.5591 255.99 36.4164 257.117 36.1311 258.137C35.8457 259.14 35.4402 260.08 34.9145 260.958C34.3889 261.818 33.743 262.642 32.9771 263.429C32.2111 264.216 31.3475 264.994 30.3863 265.764L26.1059 270.419L37.3251 276.252ZM60.3717 272.414V278.838C60.3717 281.614 60.1389 283.879 59.6733 285.635C59.2077 287.39 58.5544 288.693 57.7133 289.542C56.8722 290.374 55.8735 290.794 54.717 290.803C53.5606 290.811 52.2839 290.452 50.8872 289.726C49.7758 289.148 48.732 288.411 47.7557 287.514C46.7795 286.617 45.8934 285.564 45.0974 284.355C44.3164 283.136 43.6405 281.761 43.0698 280.228C42.5141 278.687 42.0861 276.983 41.7857 275.117C41.4853 273.235 41.3351 271.176 41.3351 268.942V262.518C41.3351 259.742 41.5679 257.485 42.0335 255.746C42.5141 253.999 43.1749 252.709 44.016 251.876C44.8571 251.044 45.8558 250.632 47.0123 250.641C48.1838 250.641 49.4679 251.003 50.8647 251.73C51.961 252.3 52.9973 253.033 53.9736 253.93C54.9648 254.817 55.8434 255.858 56.6094 257.052C57.3904 258.253 58.0587 259.625 58.6144 261.166C59.1852 262.699 59.6207 264.406 59.9211 266.289C60.2215 268.155 60.3717 270.196 60.3717 272.414ZM54.0412 276.537V268.082C54.0412 266.779 53.9886 265.609 53.8835 264.572C53.7933 263.544 53.6657 262.648 53.5005 261.885C53.3353 261.122 53.1175 260.459 52.8472 259.895C52.5768 259.331 52.2764 258.87 51.946 258.512C51.6156 258.138 51.2476 257.845 50.8421 257.634C50.3615 257.384 49.926 257.31 49.5355 257.412C49.145 257.513 48.8071 257.837 48.5217 258.383C48.2363 258.911 48.0186 259.704 47.8684 260.76C47.7332 261.807 47.6656 263.143 47.6656 264.768V273.223C47.6656 274.526 47.7107 275.701 47.8008 276.746C47.9059 277.8 48.0486 278.729 48.2288 279.533C48.4241 280.329 48.6418 281 48.8822 281.549C49.1375 282.104 49.4303 282.57 49.7608 282.945C50.1062 283.311 50.4817 283.599 50.8872 283.81C51.3678 284.059 51.8033 284.134 52.1938 284.032C52.5993 283.921 52.9373 283.589 53.2076 283.035C53.478 282.482 53.6807 281.673 53.8159 280.609C53.9661 279.536 54.0412 278.179 54.0412 276.537Z" fill="white"/>
<path d="M114.703 250.993V288.038L108.293 291.114V262.803L101.929 268.574V262.632L114.016 251.323L114.703 250.993ZM128.346 275.727L128.667 275.574C130.132 274.871 131.383 274.033 132.421 273.061C133.474 272.082 134.328 270.978 134.985 269.749C135.656 268.496 136.145 267.119 136.45 265.618C136.755 264.118 136.908 262.504 136.908 260.777V253.643C136.908 252.322 136.824 251.22 136.656 250.336C136.488 249.435 136.251 248.736 135.946 248.239C135.641 247.725 135.298 247.399 134.916 247.26C134.535 247.122 134.122 247.159 133.68 247.371C133.161 247.62 132.703 248.035 132.306 248.614C131.91 249.194 131.574 249.888 131.299 250.697C131.04 251.482 130.841 252.33 130.704 253.243C130.567 254.155 130.498 255.059 130.498 255.957C130.498 256.905 130.567 257.76 130.704 258.524C130.841 259.287 131.047 259.925 131.322 260.436C131.597 260.948 131.948 261.279 132.375 261.429C132.802 261.579 133.314 261.512 133.909 261.226C134.397 260.992 134.847 260.623 135.259 260.121C135.671 259.602 136.03 259.006 136.335 258.335C136.641 257.664 136.885 256.971 137.068 256.257C137.251 255.543 137.35 254.852 137.365 254.185L139.449 254.632C139.449 255.783 139.258 257.017 138.876 258.335C138.51 259.645 137.999 260.922 137.343 262.168C136.686 263.414 135.923 264.525 135.053 265.501C134.199 266.453 133.275 267.167 132.284 267.643C130.956 268.28 129.781 268.531 128.758 268.395C127.736 268.259 126.873 267.801 126.171 267.021C125.485 266.216 124.966 265.145 124.615 263.807C124.264 262.452 124.088 260.894 124.088 259.134C124.088 257.34 124.31 255.549 124.752 253.763C125.21 251.952 125.859 250.244 126.698 248.639C127.537 247.035 128.552 245.608 129.743 244.36C130.933 243.095 132.261 242.111 133.726 241.408C135.175 240.712 136.488 240.438 137.663 240.585C138.838 240.732 139.845 241.273 140.685 242.207C141.524 243.125 142.165 244.408 142.608 246.058C143.065 247.683 143.294 249.638 143.294 251.924V254.488C143.294 256.909 143.104 259.252 142.722 261.517C142.341 263.765 141.761 265.905 140.982 267.937C140.204 269.97 139.235 271.857 138.075 273.598C136.915 275.323 135.557 276.871 134 278.245C132.459 279.594 130.712 280.737 128.758 281.674L128.346 281.872V275.727Z" fill="white"/>
<path d="M80.7234 170.916L0.212891 90.4384H87.8729V92.0266H4.05033L81.8457 169.799L80.7234 170.916Z" fill="#292C33"/>
<path d="M85.9441 168.025C88.5122 169.315 88.5122 171.387 85.9441 172.685C83.376 173.984 79.2191 173.971 76.63 172.685C74.0409 171.399 74.0535 169.324 76.63 168.025C79.2065 166.727 83.3718 166.74 85.9441 168.025Z" fill="#292C33"/>
<path d="M13.859 65.3951V58.3142L32.0671 41.1177C33.5057 39.8139 34.5622 38.645 35.2366 37.611C35.911 36.5769 36.3606 35.6328 36.5854 34.7786C36.8551 33.9244 36.99 33.1376 36.99 32.4183C36.99 30.5301 36.3381 29.0914 35.0343 28.1023C33.7755 27.0683 31.9097 26.5513 29.437 26.5513C27.4588 26.5513 25.6156 26.9334 23.9071 27.6977C22.2437 28.462 20.8275 29.6534 19.6586 31.2719L11.701 26.1466C13.4993 23.4492 16.017 21.3136 19.254 19.7401C22.491 18.1666 26.2225 17.3798 30.4486 17.3798C33.9553 17.3798 37.0125 17.9643 39.62 19.1332C42.2726 20.2571 44.3182 21.8531 45.7568 23.9212C47.2404 25.9893 47.9823 28.462 47.9823 31.3393C47.9823 32.8679 47.7799 34.3965 47.3753 35.9251C47.0157 37.4087 46.2514 38.9822 45.0825 40.6457C43.9585 42.3091 42.295 44.1749 40.0921 46.243L24.9861 60.4722L22.8956 56.4934H49.5333V65.3951H13.859ZM61.3243 65.3951V22.2353L66.0449 26.9559H51.8831V18.189H72.2491V65.3951H61.3243Z" fill="#ABABAB"/>
<defs>
<linearGradient id="paint0_linear_543_3331" x1="1.76367" y1="170.353" x2="160.801" y2="170.353" gradientUnits="userSpaceOnUse">
<stop stop-color="#E6E6E6"/>
<stop offset="1" stop-color="#A4A4A4"/>
</linearGradient>
<linearGradient id="paint1_linear_543_3331" x1="-16.8813" y1="188.997" x2="99.8963" y2="305.809" gradientUnits="userSpaceOnUse">
<stop stop-color="#E6E6E6"/>
<stop offset="1" stop-color="#AFAFAF"/>
</linearGradient>
<linearGradient id="paint2_linear_543_3331" x1="83.1615" y1="209.514" x2="159.299" y2="285.679" gradientUnits="userSpaceOnUse">
<stop stop-color="#E6E6E6"/>
<stop offset="1" stop-color="#A4A4A4"/>
</linearGradient>
</defs>
</svg>
