<svg width="824" height="206" viewBox="0 0 824 206" fill="none" xmlns="http://www.w3.org/2000/svg">
<path d="M147.446 93.3264L117.316 173.469L126.711 176.989L156.841 96.8471L147.446 93.3264Z" fill="#4F5865"/>
<path d="M153.641 118.583L170.123 135.214L153.641 151.65L160.645 158.645L184.326 135.214L160.654 111.597L153.641 118.583Z" fill="#4F5865"/>
<path d="M104.02 135.214L120.502 118.583L113.498 111.597L89.8164 135.214L113.489 158.645L120.502 151.65L104.02 135.214Z" fill="#4F5865"/>
<path d="M166.715 84.1449L196.446 135.353L166.706 186.366H107.613L77.8821 135.343L107.428 84.1356L166.715 84.1449ZM173.339 72.8323H100.989L64.8555 135.186L100.989 197.539H173.154L209.334 135.186L173.339 72.8323Z" fill="#4F5865"/>
<path d="M60.2133 0L0 103.713L40.5807 103.509L80.3276 35.0495H159.173L179.63 0H60.2133Z" fill="#42C66E"/>
<path d="M150.011 42.9895H84.8782L52.043 99.5524L68.2289 108.892L75.6132 96.2355L94.7269 61.677H95.6256H95.6348H150.011V42.9895Z" fill="#42C66E"/>
<path d="M172.717 7.68066H167.148V62.1033H172.717V7.68066Z" fill="#42C66E"/>
<path d="M263.077 62.7336C264.216 64.5866 266.106 68.4038 266.106 77.1129C266.106 85.822 264.42 89.5929 263.077 91.4922C262.158 92.9078 260.895 94.0669 259.405 94.8609C257.916 95.6549 256.25 96.0579 254.562 96.032C252.869 96.1005 251.188 95.7158 249.693 94.9178C248.198 94.1197 246.943 92.9372 246.057 91.4922C244.917 89.6392 243.027 85.8127 243.027 77.1129C243.027 68.413 244.732 64.6236 246.057 62.7336C246.973 61.3169 248.234 60.1567 249.722 59.3624C251.21 58.5682 252.876 58.166 254.562 58.1937C257.212 58.379 260.622 58.9442 263.077 62.7336ZM252.292 88.0827C252.532 88.4736 252.865 88.7992 253.261 89.0304C253.657 89.2615 254.104 89.3911 254.562 89.4076C255.021 89.3911 255.468 89.2615 255.864 89.0304C256.26 88.7992 256.593 88.4736 256.832 88.0827C257.592 86.73 257.935 84.3025 257.935 77.1129C257.935 69.9232 257.555 67.4587 256.795 66.1338C256.555 65.7429 256.223 65.4173 255.827 65.1861C255.431 64.955 254.984 64.8254 254.525 64.8089C254.067 64.8254 253.62 64.955 253.224 65.1861C252.828 65.4173 252.495 65.7429 252.255 66.1338C251.505 67.4587 251.125 69.9232 251.125 77.1129C251.125 84.108 251.505 86.7578 252.255 88.0827" fill="#42C66E"/>
<path d="M270.648 58.9351H290.513V65.4206H277.838V73.3607H282.758C284.842 73.3607 288.057 73.7405 290.327 76.0105C292.18 77.8635 292.977 81.1248 292.977 84.1452C292.977 87.5547 291.838 90.9549 289.947 92.8543C287.483 95.3095 284.463 95.3095 281.813 95.3095H270.843V58.9351H270.648ZM280.84 89.0093C281.501 89.0793 282.169 88.9962 282.792 88.7664C283.415 88.5366 283.978 88.1664 284.435 87.6844C285.091 86.5357 285.412 85.2261 285.361 83.9043C285.361 82.9778 285.361 81.4398 284.222 80.4947C283.347 79.763 282.24 79.3686 281.099 79.3829H277.884V89.0278L280.84 89.0093Z" fill="#42C66E"/>
<path d="M294.865 89.2224C295.673 89.3761 296.497 89.4382 297.32 89.4077C298.439 89.4308 299.545 89.1694 300.535 88.648C301.254 88.0574 301.782 87.2678 302.054 86.378L302.24 85.8129L292.215 58.9351H300.553L304.343 72.3693C304.665 73.6795 304.916 75.0064 305.093 76.344H305.288C305.388 74.9952 305.64 73.6619 306.038 72.3693L309.429 58.9351H315.674L308.104 86.5633C307.345 89.2131 306.779 92.0482 304.704 93.753C302.962 95.2126 300.729 95.9546 298.459 95.8283C297.174 95.8405 295.896 95.6498 294.67 95.2632V89.2224H294.865Z" fill="#42C66E"/>
<path d="M331 58.9351H338.412V95.2539H331V80.1427C329.314 80.4535 327.608 80.6424 325.895 80.7078C323.625 80.7078 320.215 80.1427 318.705 76.5478C317.779 74.4632 317.945 72.3786 317.945 70.3032V58.9351H325.357V70.8684C325.268 71.9118 325.466 72.9599 325.932 73.8981C326.268 74.2491 326.683 74.5159 327.141 74.6768C327.6 74.8378 328.09 74.8884 328.572 74.8246C329.429 74.8585 330.28 74.6634 331.037 74.2594L331 58.9351Z" fill="#42C66E"/>
<path d="M356.726 58.9351L364.861 95.2632H357.292L355.781 87.5084H348.592L347.082 95.2632H340.457L348.796 58.9351H356.726ZM353.132 71.8134C352.687 69.8254 352.433 67.7996 352.372 65.7634C352.236 67.7313 351.986 69.6895 351.621 71.6281L349.722 81.6529H355.401L353.132 71.8134Z" fill="#42C66E"/>
<path d="M374.517 58.9349V73.1381H378.298C378.483 69.5433 379.428 65.1887 380.947 62.7335C381.79 61.3336 382.984 60.1782 384.411 59.3819C385.838 58.5855 387.448 58.1759 389.082 58.1937C391.352 58.1937 394.567 58.7588 397.217 62.7335C398.922 65.1887 400.052 69.358 400.052 77.1128C400.052 84.8676 398.922 88.8423 397.217 91.4921C396.371 92.8895 395.177 94.0429 393.75 94.8389C392.324 95.6348 390.715 96.046 389.082 96.032C387.438 96.1098 385.804 95.7259 384.367 94.9236C382.929 94.1213 381.745 92.9326 380.947 91.4921C379.094 88.4625 378.103 83.3574 378.298 79.7626H374.517V95.4575H367.105V58.9349H374.517ZM386.618 88.0733C386.875 88.4924 387.238 88.8358 387.671 89.0685C388.104 89.3013 388.591 89.415 389.082 89.3982C389.543 89.3976 389.995 89.2757 390.393 89.0447C390.792 88.8138 391.123 88.4819 391.352 88.0826C391.917 87.1561 392.482 85.0529 392.482 77.1128C392.482 69.358 391.917 67.0881 391.352 66.1338C391.105 65.7498 390.77 65.4296 390.376 65.1994C389.981 64.9692 389.538 64.8354 389.082 64.8089C388.622 64.8168 388.172 64.9428 387.774 65.1748C387.377 65.4068 387.045 65.737 386.812 66.1338C385.673 67.6532 385.487 70.6736 385.487 77.1128C385.487 83.3574 385.673 86.3778 386.618 88.0826" fill="#42C66E"/>
<path d="M420.674 72.9528C420.488 68.9781 420.108 67.4587 419.747 66.7082C419.476 66.1389 419.045 65.6606 418.508 65.3316C417.97 65.0026 417.348 64.8371 416.717 64.8552C416.197 64.8134 415.675 64.9147 415.208 65.1482C414.741 65.3818 414.347 65.7386 414.068 66.1801C413.503 66.9306 412.558 69.395 412.558 78.2802C412.558 83.1999 412.937 85.8497 413.484 87.3692C414.031 88.8886 414.994 89.4445 416.699 89.4445C417.363 89.4844 418.021 89.302 418.57 88.9262C419.118 88.5504 419.526 88.0026 419.729 87.3692C420.342 85.734 420.656 84.0015 420.655 82.2549L427.085 82.82C427.085 85.09 426.52 89.8244 423.87 92.8541C422.976 93.8783 421.87 94.6962 420.628 95.2513C419.387 95.8064 418.04 96.0854 416.68 96.069C415.05 96.1135 413.432 95.7775 411.954 95.0876C410.476 94.3977 409.179 93.3728 408.166 92.0943C404.951 87.9343 404.766 79.7997 404.766 77.1499C404.766 74.1202 404.951 66.7453 408.546 62.3907C409.521 61.1787 410.762 60.2073 412.172 59.5518C413.583 58.8963 415.125 58.5742 416.68 58.6106C418.008 58.5745 419.329 58.807 420.565 59.2942C421.8 59.7814 422.924 60.5132 423.87 61.4457C426.9 64.6606 427.465 69.7842 427.465 72.5637L420.674 72.9528Z" fill="#42C66E"/>
<path d="M430.898 58.9351H438.31V73.1383H443.035C444.281 73.0855 445.523 73.3127 446.669 73.8034C447.816 74.294 448.837 75.0356 449.659 75.9734C450.039 76.5478 452.124 79.0031 452.124 84.8678C452.124 89.6022 450.604 92.0575 449.094 93.2063C447.01 95.0593 443.795 95.2817 441.525 95.2817H430.703V58.9351H430.898ZM440.543 89.0093C441.054 89.0597 441.569 89.0033 442.057 88.8438C442.545 88.6843 442.995 88.4252 443.378 88.0828C444.517 87.1563 444.517 85.6276 444.517 84.3027C444.517 83.1631 444.517 81.273 443.591 80.1427C443.204 79.7256 442.735 79.3927 442.214 79.1647C441.693 78.9368 441.13 78.8187 440.561 78.8178H438.291V89.0093H440.543Z" fill="#42C66E"/>
<path d="M463.434 87.332H456.43V95.2814H463.434V87.332Z" fill="#42C66E"/>
<path d="M502.024 58.9534V95.2722H494.649V65.3833H488.784V95.2722H481.215V58.9534H502.024Z" fill="#1D2332"/>
<path d="M507.703 58.9351H516.783C520.757 58.9351 523.972 59.1204 526.242 62.3353C527.723 64.7278 528.497 67.4899 528.475 70.3032C528.475 72.7585 527.91 76.5478 526.02 78.8178C523.555 82.0327 519.961 82.0327 517.126 82.0327H515.041V95.467H507.629L507.703 58.9351ZM516.783 75.3897C517.294 75.4401 517.81 75.3838 518.298 75.2243C518.786 75.0648 519.235 74.8056 519.618 74.4632C520.192 73.8981 520.757 72.6102 520.757 69.7288C520.826 68.2566 520.428 66.8003 519.618 65.5688C519.264 65.1754 518.824 64.8687 518.332 64.6727C517.841 64.4767 517.31 64.3965 516.783 64.4385H514.93V75.4082L516.783 75.3897Z" fill="#1D2332"/>
<path d="M550.651 62.7336C551.791 64.5866 553.681 68.4038 553.681 77.1129C553.681 85.822 551.976 89.5929 550.651 91.4922C549.732 92.9078 548.469 94.0669 546.98 94.8609C545.49 95.655 543.824 96.0579 542.137 96.0321C540.442 96.0993 538.76 95.7141 537.264 94.9163C535.768 94.1184 534.51 92.9366 533.622 91.4922C532.492 89.6392 530.602 85.8128 530.602 77.1129C530.602 68.4131 532.297 64.6237 533.622 62.7336C534.54 61.3174 535.803 60.1578 537.293 59.3637C538.782 58.5696 540.449 58.167 542.137 58.1938C543.828 58.1464 545.502 58.5401 546.995 59.3361C548.488 60.1321 549.748 61.303 550.651 62.7336ZM539.867 88.0827C540.106 88.4736 540.439 88.7992 540.835 89.0304C541.231 89.2616 541.678 89.3911 542.137 89.4076C542.6 89.418 543.058 89.2997 543.459 89.0659C543.859 88.832 544.187 88.4917 544.406 88.0827C545.166 86.7578 545.546 84.3026 545.546 77.1129C545.546 69.9233 545.157 67.4588 544.406 66.1339C544.167 65.7429 543.834 65.4173 543.438 65.1862C543.042 64.955 542.595 64.8254 542.137 64.809C541.673 64.7996 541.216 64.9183 540.815 65.1521C540.415 65.3858 540.086 65.7256 539.867 66.1339C539.116 67.4588 538.736 69.9233 538.736 77.1129C538.736 84.108 539.116 86.7578 539.867 88.0827Z" fill="#1D2332"/>
<path d="M565.594 73.7125H574.488V79.7626H565.594V88.8423H577.138V95.2722H558.219V58.9534H577.138V65.3833H565.594V73.7125Z" fill="#1D2332"/>
<path d="M588.105 73.1384H590.551C593.007 73.1384 593.386 71.6282 593.581 70.8685C593.803 69.6824 593.927 68.4801 593.952 67.2737C594.007 65.6092 594.262 63.9575 594.711 62.3539C595.068 61.2017 595.803 60.2031 596.796 59.5188C598.071 58.834 599.511 58.5134 600.956 58.5923C601.673 58.5134 602.397 58.6454 603.041 58.9722V64.6424H602.661C602.086 64.6424 601.141 64.837 600.956 66.9123C600.771 68.2372 600.771 68.9969 600.391 71.0723C600.242 72.2726 599.716 73.3948 598.89 74.278C598.129 74.9707 597.224 75.4864 596.24 75.7882V75.9735C597.115 76.07 597.952 76.3798 598.679 76.8757C599.406 77.3717 600 78.0386 600.409 78.8179C601.131 80.5577 601.515 82.4192 601.54 84.3027C601.734 87.1378 601.92 87.8976 602.299 88.4627C602.434 88.73 602.664 88.9367 602.944 89.0415C603.224 89.1463 603.533 89.1414 603.81 89.0279V95.2725C603.164 95.5808 602.447 95.7118 601.734 95.6524C599.835 95.6524 597.194 95.4671 595.869 92.8173C594.943 91.1125 594.73 89.0279 594.35 84.4788C594.165 82.6258 593.97 81.2638 593.22 80.3188C592.883 79.9011 592.444 79.5769 591.946 79.3773C591.448 79.1778 590.907 79.1096 590.375 79.1792H587.92V95.2633H580.73V58.9351H588.142L588.105 73.1384Z" fill="#1D2332"/>
<path d="M618.005 95.2722H610.435V65.7632H604.57V58.9534H624.055V65.7632H618.005V95.2722Z" fill="#1D2332"/>
<path d="M626.887 58.9351H633.706V75.0284C633.645 77.0676 633.391 79.0965 632.947 81.0877H633.132C633.538 79.6635 634.046 78.2701 634.651 76.9184L641.508 60.6491V58.9351H648.317V95.2539H641.508V78.058C641.484 76.0271 641.674 73.9994 642.073 72.008H641.887C640.748 75.2229 640.748 75.7881 640.368 76.5478L633.558 92.8172V95.2724H626.684V58.9351H626.887Z" fill="#1D2332"/>
<path d="M654.135 58.9351H663.214C667.189 58.9351 670.404 59.1204 672.674 62.3353C674.164 64.7185 674.951 67.474 674.944 70.2847C674.944 72.7399 674.379 76.5293 672.489 78.7992C670.024 82.0142 666.429 82.0142 663.594 82.0142H661.51V95.4485H654.098L654.135 58.9351ZM663.214 75.3897C663.725 75.4401 664.241 75.3838 664.729 75.2243C665.217 75.0648 665.667 74.8056 666.049 74.4632C666.624 73.8981 667.189 72.6102 667.189 69.7288C667.258 68.2566 666.859 66.8003 666.049 65.5688C665.695 65.1754 665.256 64.8687 664.764 64.6727C664.272 64.4767 663.742 64.3965 663.214 64.4385H661.361V75.4082L663.214 75.3897Z" fill="#1D2332"/>
<path d="M677.974 89.2224C678.783 89.3761 679.606 89.4382 680.429 89.4077C681.548 89.4308 682.654 89.1694 683.644 88.648C684.363 88.0574 684.892 87.2678 685.164 86.378L685.349 85.8129L675.324 58.9351H683.663L687.452 72.3693C687.775 73.6795 688.025 75.0064 688.203 76.344H688.397C688.494 74.994 688.749 73.66 689.157 72.3693L692.539 58.9351H698.783L691.214 86.5633C690.463 89.2131 689.889 92.0482 687.813 93.753C686.071 95.2126 683.838 95.9546 681.569 95.8283C680.284 95.8405 679.005 95.6498 677.779 95.2632V89.2224H677.974Z" fill="#1D2332"/>
<path d="M708.623 58.9349V73.1381H712.403C712.588 69.5433 713.543 65.1887 715.053 62.7335C715.896 61.3336 717.09 60.1782 718.517 59.3819C719.943 58.5855 721.554 58.1759 723.188 58.1937C725.457 58.1937 728.672 58.7588 731.322 62.7335C733.027 65.1887 734.157 69.358 734.157 77.1128C734.157 84.8676 733.027 88.8423 731.322 91.4921C730.477 92.8902 729.283 94.0441 727.857 94.8401C726.43 95.6362 724.821 96.0469 723.188 96.032C721.543 96.1088 719.91 95.7243 718.473 94.9221C717.035 94.1199 715.851 92.9319 715.053 91.4921C713.2 88.4625 712.218 83.3574 712.403 79.7626H708.623V95.4575H701.211V58.9349H708.623ZM720.918 88.0733C721.174 88.491 721.536 88.8335 721.967 89.0661C722.398 89.2988 722.883 89.4134 723.373 89.3982C723.836 89.3983 724.291 89.2758 724.691 89.0431C725.091 88.8103 725.423 88.4758 725.652 88.0733C726.217 87.1468 726.782 85.0437 726.782 77.1036C726.782 69.3487 726.217 67.0788 725.652 66.1245C725.403 65.7403 725.067 65.4202 724.671 65.1901C724.275 64.9599 723.83 64.8261 723.373 64.7996C722.913 64.8076 722.462 64.9336 722.065 65.1656C721.667 65.3976 721.336 65.7278 721.103 66.1245C719.973 67.644 719.778 70.6644 719.778 77.1036C719.593 83.3482 719.778 86.3686 720.918 88.0733Z" fill="#1D2332"/>
<path d="M746.649 87.3323H739.645V95.2817H746.649V87.3323Z" fill="#1D2332"/>
<path d="M265.161 116.656V152.974H257.591V123.085H251.727V152.974H244.352V116.656H265.161Z" fill="#1D2332"/>
<path d="M270.832 116.646H279.921C283.886 116.646 287.11 116.841 289.38 120.056C290.87 122.439 291.657 125.194 291.65 128.005C291.65 130.46 291.076 134.25 289.186 136.52C286.731 139.735 283.136 139.735 280.291 139.735H278.021V153.169H270.609V116.646H270.832ZM279.921 133.323C280.432 133.374 280.948 133.317 281.436 133.158C281.924 132.998 282.373 132.739 282.756 132.397C283.321 131.832 283.886 130.544 283.886 127.672C283.961 126.2 283.565 124.743 282.756 123.512C282.402 123.118 281.962 122.81 281.471 122.612C280.979 122.415 280.449 122.333 279.921 122.372H278.021V133.342L279.921 133.323Z" fill="#1D2332"/>
<path d="M313.785 120.621C314.916 122.474 316.815 126.3 316.815 135C316.815 143.7 315.11 147.489 313.785 149.379C312.867 150.796 311.604 151.955 310.115 152.749C308.625 153.543 306.958 153.946 305.271 153.919C303.576 153.99 301.892 153.607 300.395 152.809C298.898 152.011 297.642 150.827 296.756 149.379C295.626 147.526 293.727 143.709 293.727 135C293.727 126.291 295.431 122.52 296.756 120.621C297.675 119.205 298.938 118.046 300.428 117.252C301.917 116.458 303.583 116.055 305.271 116.081C306.971 115.975 308.668 116.344 310.171 117.145C311.674 117.947 312.926 119.15 313.785 120.621ZM303.001 145.785C303.227 146.188 303.557 146.523 303.956 146.757C304.355 146.99 304.809 147.113 305.271 147.113C305.733 147.113 306.187 146.99 306.586 146.757C306.985 146.523 307.314 146.188 307.541 145.785C308.3 144.46 308.671 142.005 308.671 134.815C308.671 127.625 308.3 125.161 307.541 123.845C307.314 123.442 306.985 123.107 306.586 122.873C306.187 122.64 305.733 122.517 305.271 122.517C304.809 122.517 304.355 122.64 303.956 122.873C303.557 123.107 303.227 123.442 303.001 123.845C302.241 125.161 301.861 127.625 301.861 134.815C301.861 142.005 302.241 144.46 303.001 145.785Z" fill="#1D2332"/>
<path d="M321.348 116.656H339.896V123.085H328.732V152.974H321.348V116.656Z" fill="#1D2332"/>
<path d="M343.293 116.646H352.373C356.348 116.646 359.563 116.841 361.833 120.056C363.328 122.437 364.115 125.194 364.103 128.005C364.103 130.46 363.537 134.25 361.647 136.52C359.192 139.735 355.597 139.735 352.753 139.735H350.678V153.169H343.266L343.293 116.646ZM352.373 133.323C352.886 133.375 353.403 133.319 353.893 133.16C354.383 133 354.834 132.74 355.217 132.397C355.783 131.832 356.348 130.544 356.348 127.672C356.423 126.2 356.027 124.743 355.217 123.512C354.862 123.116 354.421 122.808 353.928 122.61C353.435 122.413 352.903 122.331 352.373 122.372H350.52V133.342L352.373 133.323Z" fill="#1D2332"/>
<path d="M379.24 116.646L387.375 152.974H379.805L378.295 145.22H371.106L369.595 152.974H363.156L371.495 116.646H379.24ZM375.645 129.701C375.201 127.713 374.946 125.687 374.886 123.651C374.75 125.618 374.5 127.577 374.135 129.515L372.236 139.54H377.915L375.645 129.701Z" fill="#1D2332"/>
<path d="M389.645 116.646H399.836L402.671 131.971C403.236 134.62 403.598 140.115 403.811 142.384C404.021 138.645 404.526 134.927 405.321 131.266L408.351 116.693H418.403V152.974H411.213V132.35C411.213 126.486 411.399 129.515 411.593 121.381C411.213 124.596 410.268 130.646 410.074 131.971L405.729 152.974H400.994L396.834 131.6C396.454 129.701 396.269 127.431 395.324 121.195C395.509 123.651 395.509 128.95 395.509 131.22V152.789H389.645V116.646Z" fill="#1D2332"/>
<path d="M424.074 116.646H434.266L437.101 131.971C437.675 134.62 438.027 140.115 438.24 142.384C438.456 138.645 438.96 134.928 439.751 131.266L442.78 116.693H452.805V152.974H445.643V132.35C445.643 126.486 445.838 129.515 446.023 121.381C445.643 124.596 444.698 130.646 444.513 131.971L440.158 152.974H435.433L431.264 131.6C430.893 129.701 430.699 127.431 429.754 121.195C429.948 123.651 429.948 128.95 429.948 131.22V152.789H424.074V116.646Z" fill="#1D2332"/>
<path d="M458.515 116.646H465.325V132.73C465.268 134.77 465.014 136.799 464.565 138.79H464.76C465.158 137.364 465.663 135.97 466.27 134.62L473.079 118.351V116.841H479.889V153.169H473.079V135.945C473.056 133.914 473.246 131.887 473.645 129.895H473.459C472.32 133.11 472.32 133.675 471.949 134.435L465.139 150.704V153.169H458.32V116.646H458.515Z" fill="#1D2332"/>
<path d="M485.754 116.646H494.843C498.809 116.646 502.024 116.841 504.294 120.056C505.792 122.436 506.583 125.193 506.573 128.005C506.573 130.46 505.998 134.25 504.108 136.52C501.653 139.735 498.058 139.735 495.214 139.735H493.139V153.169H485.727L485.754 116.646ZM494.843 133.323C495.354 133.374 495.87 133.317 496.358 133.158C496.846 132.998 497.296 132.739 497.678 132.397C498.244 131.832 498.809 130.544 498.809 127.672C498.884 126.2 498.488 124.743 497.678 123.512C497.324 123.118 496.885 122.81 496.393 122.612C495.902 122.415 495.372 122.333 494.843 122.372H492.944V133.342L494.843 133.323Z" fill="#1D2332"/>
<path d="M509.591 146.952C510.403 147.106 511.23 147.168 512.056 147.137C513.174 147.161 514.281 146.899 515.271 146.378C515.99 145.79 516.517 144.999 516.781 144.108L516.975 143.543L506.941 116.674H515.28L519.06 130.108C519.39 131.417 519.644 132.745 519.82 134.083H520.005C520.112 132.734 520.367 131.401 520.765 130.108L524.174 116.674H530.41L522.849 144.302C522.09 146.952 521.525 149.787 519.44 151.492C517.698 152.952 515.465 153.695 513.195 153.567C511.913 153.58 510.637 153.389 509.415 153.002V146.952H509.591Z" fill="#1D2332"/>
<path d="M540.244 116.656V130.84H544.033C544.219 127.246 545.164 122.891 546.674 120.436C547.518 119.037 548.712 117.883 550.139 117.087C551.566 116.29 553.175 115.88 554.809 115.896C557.079 115.896 560.303 116.461 562.943 120.436C564.648 122.891 565.788 127.06 565.788 134.815C565.788 142.57 564.648 146.545 562.943 149.194C562.098 150.592 560.904 151.746 559.478 152.542C558.051 153.338 556.442 153.749 554.809 153.734C553.164 153.812 551.531 153.428 550.093 152.626C548.655 151.824 547.471 150.635 546.674 149.194C544.821 146.165 543.839 141.06 544.033 137.465H540.244V153.215H532.832V116.656H540.244ZM552.566 145.785C552.823 146.204 553.187 146.547 553.62 146.78C554.053 147.013 554.54 147.127 555.031 147.11C555.492 147.108 555.945 146.985 556.344 146.752C556.742 146.52 557.073 146.186 557.301 145.785C557.866 144.858 558.431 142.755 558.431 134.815C558.431 127.06 557.866 124.79 557.301 123.845C557.055 123.46 556.721 123.138 556.326 122.908C555.932 122.678 555.487 122.545 555.031 122.52C554.57 122.525 554.118 122.649 553.72 122.882C553.322 123.114 552.992 123.446 552.761 123.845C551.621 125.356 551.436 128.385 551.436 134.815C551.242 141.245 551.436 144.275 552.566 145.785Z" fill="#1D2332"/>
<path d="M578.261 145.034H571.266V152.984H578.261V145.034Z" fill="#1D2332"/>
<path d="M596.055 116.646H615.919V123.271H603.244V131.202H608.155C610.23 131.202 613.454 131.581 615.724 133.851C617.577 135.704 618.365 138.956 618.365 141.986C618.365 145.386 617.235 148.796 615.344 150.686C612.88 153.15 609.86 153.15 607.21 153.15H596.24V116.646H596.055ZM606.302 146.952C606.962 147.022 607.63 146.939 608.254 146.709C608.877 146.479 609.439 146.109 609.897 145.627C610.553 144.475 610.874 143.163 610.823 141.838C610.823 140.911 610.823 139.383 609.684 138.438C609.266 138.02 608.761 137.702 608.205 137.504C607.649 137.307 607.055 137.237 606.469 137.298H603.244V146.952H606.302Z" fill="#1D2332"/>
<path d="M620.273 146.952C621.082 147.106 621.906 147.168 622.728 147.137C623.847 147.161 624.953 146.899 625.943 146.378C626.662 145.787 627.191 144.997 627.463 144.108L627.648 143.543L617.809 116.489H626.147L629.927 129.923C630.257 131.232 630.511 132.559 630.687 133.898H630.872C630.979 132.549 631.234 131.216 631.632 129.923L635.032 116.489H641.277L633.717 144.108C632.957 146.758 632.392 149.602 630.307 151.297C628.568 152.765 626.334 153.51 624.062 153.382C622.78 153.395 621.505 153.204 620.282 152.817L620.273 146.952Z" fill="#1D2332"/>
<path d="M637.676 146.73H640.326C641.715 144.488 642.796 142.07 643.541 139.54C644.216 136.545 644.724 133.513 645.06 130.461C645.245 128.95 645.245 126.106 645.81 116.841H663.414V146.73H667.009V161.109H660.579V153.169H644.291V161.109H637.861V146.73H637.676ZM655.844 146.545V123.086H651.703C651.518 126.681 651.138 132.545 650.573 136.52C650.172 140.016 649.145 143.412 647.543 146.545H655.844Z" fill="#1D2332"/>
<path d="M669.303 146.952C670.115 147.106 670.942 147.168 671.767 147.137C672.886 147.161 673.992 146.899 674.982 146.378C675.702 145.79 676.228 144.999 676.493 144.108L676.687 143.543L666.848 116.489H675.186L678.976 129.923C679.298 131.233 679.549 132.56 679.726 133.898H679.921C680.018 132.548 680.273 131.214 680.68 129.923L684.081 116.489H690.325L682.756 144.108C681.996 146.758 681.431 149.602 679.355 151.297C677.616 152.764 675.382 153.51 673.111 153.382C671.826 153.394 670.547 153.203 669.321 152.817L669.303 146.952Z" fill="#1D2332"/>
<path d="M692.727 116.656H699.916V146.544H705.216V116.656H712.405V146.544H717.705V116.656H724.895V146.544H728.675V160.924H722.05V152.974H692.727V116.656Z" fill="#1D2332"/>
<path d="M738.701 131.415H747.41V137.65H738.701V146.544H750.06V152.974H731.141V116.656H750.06V123.085H738.701V131.415Z" fill="#1D2332"/>
<path d="M761.03 131.415H769.73V137.65H761.03V146.544H772.38V152.974H753.461V116.656H772.38V123.085H761.03V131.415Z" fill="#1D2332"/>
<path d="M243.973 174.164H249.078C251.162 174.164 253.052 174.543 254.377 175.868C255.349 177.113 255.88 178.644 255.887 180.223C255.949 181.466 255.691 182.703 255.137 183.818C254.648 184.706 253.835 185.37 252.867 185.671C254.019 186.024 255.017 186.755 255.702 187.746C256.473 188.998 256.866 190.446 256.832 191.915C256.943 193.888 256.342 195.834 255.137 197.4C253.618 198.91 251.542 198.91 249.652 198.91H243.973V174.164ZM249.078 184.763C250.004 184.763 251.348 184.763 252.107 183.836C252.722 183.017 253.048 182.016 253.034 180.992C253.034 178.722 252.274 177.777 251.709 177.397C250.862 176.866 249.873 176.604 248.874 176.647H246.604V184.781L249.078 184.763ZM249.458 196.492C250.608 196.608 251.76 196.276 252.673 195.566C253.432 194.806 253.812 192.916 253.812 191.776C253.812 190.451 253.432 188.747 252.487 187.996C251.59 187.412 250.524 187.145 249.458 187.237H246.817V196.502L249.458 196.492Z" fill="#535762"/>
<path d="M267.617 186.458C267.558 185.243 267.167 184.067 266.486 183.058C265.997 182.541 265.341 182.213 264.633 182.132C264.214 182.1 263.794 182.189 263.425 182.39C263.055 182.59 262.751 182.893 262.549 183.262C262.169 183.836 261.622 185.347 261.622 189.127C261.622 192.907 261.808 194.991 262.549 195.936C262.779 196.28 263.088 196.564 263.451 196.762C263.814 196.96 264.22 197.068 264.633 197.076C265.072 197.066 265.504 196.958 265.896 196.761C266.289 196.564 266.633 196.282 266.903 195.936C267.323 194.967 267.634 193.954 267.83 192.916L270.285 193.296C270.138 195.017 269.494 196.659 268.432 198.021C267.951 198.47 267.386 198.819 266.768 199.046C266.151 199.274 265.494 199.376 264.837 199.346C263.282 199.339 261.79 198.728 260.677 197.641C259.751 196.715 258.824 194.806 258.824 190.072C258.824 184.781 260.149 182.66 261.094 181.557C262.054 180.653 263.304 180.119 264.621 180.051C265.938 179.983 267.236 180.385 268.284 181.187C269.414 182.113 269.979 184.022 270.137 185.912L267.617 186.458Z" fill="#535762"/>
<path d="M274.807 190.053C274.807 191.573 275.001 194.408 275.733 195.733C276.028 196.158 276.426 196.502 276.889 196.734C277.352 196.966 277.866 197.077 278.383 197.058C279.172 197.03 279.919 196.698 280.468 196.131C281.037 195.275 281.422 194.309 281.598 193.296L283.868 193.861C283.675 194.781 283.363 195.671 282.941 196.511C282.525 197.347 281.874 198.043 281.068 198.514C280.261 198.985 279.334 199.21 278.402 199.161C277.511 199.224 276.62 199.046 275.821 198.647C275.023 198.248 274.346 197.641 273.862 196.891C272.537 194.806 272.352 191.777 272.352 189.886C272.352 187.237 272.731 184.022 274.205 182.132C274.621 181.461 275.209 180.914 275.908 180.547C276.607 180.181 277.391 180.008 278.179 180.047C278.972 179.982 279.769 180.118 280.496 180.442C281.223 180.766 281.857 181.267 282.339 181.9C283.479 183.42 284.192 185.689 284.192 190.035L274.807 190.053ZM281.051 187.978C281.154 186.487 280.896 184.994 280.301 183.623C280.072 183.221 279.74 182.886 279.34 182.654C278.94 182.421 278.485 182.298 278.022 182.298C277.562 182.307 277.112 182.434 276.714 182.666C276.317 182.897 275.986 183.227 275.752 183.623C275.162 184.932 274.847 186.348 274.825 187.783H281.098L281.051 187.978Z" fill="#535762"/>
<path d="M286.92 180.593H289.384V183.623C289.564 182.783 289.953 182.003 290.515 181.353C290.853 180.99 291.264 180.702 291.72 180.508C292.176 180.313 292.668 180.216 293.164 180.223C293.921 180.21 294.667 180.394 295.33 180.758C295.993 181.122 296.549 181.653 296.944 182.298C298.269 184.151 298.649 187.412 298.649 189.488C298.686 191.888 298.235 194.271 297.324 196.492C296.955 197.336 296.346 198.054 295.575 198.558C294.803 199.062 293.901 199.329 292.979 199.327C292.091 199.396 291.21 199.124 290.515 198.568C290.091 198.168 289.712 197.724 289.384 197.243V205.377H286.734V180.593H286.92ZM289.569 191.572C289.569 193.083 289.569 194.602 290.496 195.732C290.721 196.124 291.056 196.44 291.46 196.643C291.863 196.845 292.318 196.925 292.766 196.872C293.275 196.861 293.771 196.714 294.204 196.447C294.638 196.18 294.992 195.802 295.23 195.353C295.796 194.426 295.981 191.193 295.981 189.488C295.981 188.163 295.981 185.143 295.054 183.623C294.879 183.221 294.589 182.88 294.219 182.644C293.849 182.408 293.417 182.288 292.979 182.298C292.543 182.323 292.117 182.438 291.726 182.634C291.336 182.83 290.99 183.103 290.709 183.438C289.949 184.364 289.569 186.458 289.569 188.163V191.572Z" fill="#535762"/>
<path d="M311.135 181.733C312.839 183.818 313.219 187.218 313.219 189.682C313.219 192.517 312.645 195.918 311.135 197.622C310.149 198.668 308.79 199.281 307.354 199.327C306.639 199.324 305.932 199.171 305.279 198.877C304.626 198.583 304.042 198.156 303.565 197.622C302.055 195.918 301.48 192.703 301.48 189.682C301.48 187.403 301.86 183.818 303.565 181.733C304.026 181.18 304.607 180.74 305.264 180.445C305.92 180.149 306.635 180.007 307.354 180.028C308.072 180.012 308.784 180.156 309.438 180.451C310.092 180.746 310.672 181.184 311.135 181.733ZM304.705 194.787C304.804 195.418 305.125 195.992 305.61 196.407C306.095 196.822 306.712 197.05 307.35 197.05C307.988 197.05 308.605 196.822 309.09 196.407C309.575 195.992 309.896 195.418 309.995 194.787C310.384 193.114 310.577 191.401 310.569 189.682C310.588 187.961 310.395 186.243 309.995 184.568C309.896 183.938 309.575 183.363 309.09 182.949C308.605 182.534 307.988 182.306 307.35 182.306C306.712 182.306 306.095 182.534 305.61 182.949C305.125 183.363 304.804 183.938 304.705 184.568C304.305 186.243 304.112 187.961 304.13 189.682C304.123 191.401 304.316 193.114 304.705 194.787Z" fill="#535762"/>
<path d="M324.954 186.458C324.887 185.252 324.493 184.086 323.815 183.086C323.326 182.567 322.67 182.238 321.962 182.159C321.542 182.127 321.122 182.217 320.753 182.417C320.383 182.618 320.079 182.921 319.877 183.29C319.497 183.864 318.95 185.374 318.95 189.154C318.95 192.934 319.145 195.019 319.877 195.964C320.107 196.308 320.416 196.591 320.779 196.79C321.142 196.988 321.548 197.096 321.962 197.104C322.401 197.095 322.833 196.988 323.226 196.791C323.618 196.594 323.962 196.311 324.231 195.964C324.655 194.996 324.966 193.983 325.158 192.944L327.613 193.324C327.466 195.045 326.822 196.686 325.76 198.049C325.279 198.498 324.714 198.846 324.096 199.074C323.479 199.301 322.823 199.403 322.165 199.374C320.61 199.365 319.119 198.754 318.005 197.669C317.079 196.742 316.152 194.834 316.152 190.099C316.152 184.809 317.477 182.687 318.422 181.585C319.382 180.68 320.632 180.146 321.949 180.078C323.266 180.011 324.564 180.413 325.612 181.214C326.742 182.141 327.317 184.049 327.465 185.939L324.954 186.458Z" fill="#535762"/>
<path d="M338.188 186.458C338.13 185.241 337.736 184.064 337.049 183.058C336.562 182.538 335.904 182.209 335.196 182.132C334.778 182.099 334.359 182.189 333.991 182.389C333.622 182.59 333.32 182.893 333.121 183.262C332.741 183.836 332.194 185.347 332.194 189.127C332.194 192.907 332.379 194.991 333.121 195.936C333.347 196.281 333.655 196.565 334.017 196.764C334.378 196.963 334.783 197.07 335.196 197.076C335.635 197.067 336.067 196.961 336.46 196.763C336.853 196.566 337.196 196.284 337.466 195.936C337.89 194.969 338.201 193.955 338.392 192.916L340.857 193.296C340.705 195.016 340.062 196.657 339.004 198.021C338.522 198.469 337.957 198.817 337.34 199.045C336.722 199.272 336.066 199.375 335.409 199.346C333.851 199.337 332.358 198.726 331.24 197.641C330.313 196.715 329.387 194.806 329.387 190.072C329.387 184.781 330.712 182.66 331.657 181.557C332.616 180.653 333.866 180.119 335.183 180.051C336.5 179.983 337.799 180.385 338.846 181.187C339.986 182.113 340.551 184.022 340.699 185.912L338.188 186.458Z" fill="#535762"/>
<path d="M343.676 180.603H346.131V191.952L345.946 194.028L346.891 192.138L351.625 181.548V180.603H354.275V198.948H351.625V187.413L351.81 185.523L351.051 187.413L346.131 197.632V198.948H343.676V180.603Z" fill="#535762"/>
<path d="M358.816 180.594H361.457V192.138L361.272 193.991L362.031 192.138L366.951 181.548V180.408H369.601V198.762H366.951V187.413L367.136 185.328L366.377 187.413L361.457 197.604V198.744H358.816V180.594ZM368.276 174.543C368.292 175.069 368.198 175.592 368.002 176.08C367.806 176.568 367.511 177.01 367.136 177.379C366.735 177.764 366.26 178.064 365.739 178.26C365.218 178.456 364.663 178.544 364.107 178.518C362.927 178.575 361.773 178.165 360.892 177.379C360.171 176.61 359.767 175.597 359.761 174.543H362.031C362.02 175.134 362.151 175.718 362.411 176.248C362.583 176.489 362.809 176.686 363.072 176.821C363.334 176.957 363.626 177.027 363.921 177.027C364.217 177.027 364.508 176.957 364.771 176.821C365.034 176.686 365.26 176.489 365.432 176.248C365.605 176.004 365.728 175.727 365.794 175.434C365.859 175.141 365.865 174.839 365.811 174.543H368.276Z" fill="#535762"/>
<path d="M381.896 186.458C381.837 185.241 381.443 184.064 380.756 183.058C380.269 182.538 379.611 182.209 378.903 182.132C378.485 182.099 378.066 182.189 377.698 182.389C377.329 182.59 377.027 182.893 376.828 183.262C376.448 183.836 375.901 185.347 375.901 189.127C375.901 192.907 376.096 194.991 376.828 195.936C377.054 196.281 377.362 196.565 377.724 196.764C378.085 196.963 378.49 197.07 378.903 197.076C379.342 197.067 379.774 196.961 380.167 196.763C380.56 196.566 380.903 196.284 381.173 195.936C381.597 194.969 381.908 193.955 382.099 192.916L384.564 193.296C384.412 195.016 383.769 196.657 382.711 198.021C382.23 198.469 381.664 198.817 381.047 199.045C380.429 199.272 379.773 199.375 379.116 199.346C377.558 199.338 376.064 198.727 374.947 197.641C374.02 196.715 373.094 194.806 373.094 190.072C373.094 184.781 374.419 182.66 375.364 181.557C376.323 180.653 377.573 180.119 378.89 180.051C380.207 179.983 381.506 180.385 382.553 181.187C383.693 182.113 384.258 184.022 384.406 185.912L381.896 186.458Z" fill="#535762"/>
<path d="M387.194 198.948V180.594H389.835V188.163H391.54C391.983 188.195 392.422 188.057 392.766 187.776C393.111 187.495 393.335 187.093 393.393 186.653C393.587 186.088 393.587 185.328 393.772 184.383C393.808 183.614 393.936 182.852 394.152 182.113C394.262 181.591 394.547 181.123 394.96 180.786C395.373 180.449 395.889 180.263 396.422 180.26C396.617 180.26 397.182 180.445 397.349 180.445V182.53C397.089 182.54 396.833 182.603 396.598 182.715C396.287 183.226 396.153 183.825 396.218 184.42C396.169 185.374 396.042 186.322 395.839 187.255C395.713 187.696 395.477 188.098 395.152 188.422C394.828 188.746 394.427 188.982 393.986 189.108C394.56 189.286 395.066 189.635 395.437 190.109C395.808 190.582 396.026 191.158 396.061 191.758C396.441 193.277 396.441 195.167 396.635 196.112C396.821 196.298 397.006 197.039 397.951 196.678V198.762C397.599 198.93 397.207 198.994 396.821 198.948C394.968 198.948 394.551 197.623 394.171 196.872C393.862 195.63 393.673 194.361 393.606 193.083C393.523 192.304 393.333 191.54 393.041 190.813C392.874 190.628 392.669 190.482 392.44 190.384C392.212 190.287 391.964 190.24 391.716 190.248H390.011V198.762H387.176L387.194 198.948Z" fill="#535762"/>
<path d="M400.246 180.603H402.887V191.952L402.701 194.028L403.461 192.138L408.371 181.548V180.603H410.836V198.948H408.371V187.413L408.566 185.523L407.621 187.413L402.887 197.632V198.948H400.246V180.603Z" fill="#535762"/>
<path d="M415.375 180.594H418.025V192.138L417.839 193.991L418.59 192.138L423.51 181.548V180.408H426.159V198.762H423.51V187.413L423.704 185.328L422.945 187.413L418.025 197.604V198.744H415.375V180.594ZM424.835 174.543C424.85 175.068 424.757 175.59 424.563 176.078C424.368 176.566 424.076 177.008 423.704 177.379C423.303 177.764 422.827 178.064 422.307 178.26C421.786 178.456 421.23 178.543 420.675 178.518C419.495 178.575 418.34 178.165 417.46 177.379C416.733 176.613 416.326 175.599 416.32 174.543H418.59C418.584 175.133 418.714 175.717 418.97 176.248C419.148 176.481 419.377 176.669 419.64 176.799C419.903 176.928 420.192 176.996 420.485 176.996C420.778 176.996 421.067 176.928 421.329 176.799C421.592 176.669 421.821 176.481 421.999 176.248C422.342 175.751 422.478 175.139 422.379 174.543H424.835Z" fill="#535762"/>
<path d="M437.324 180.603H440.16L442.624 186.838L444.894 180.603H447.349L443.754 189.117L448.109 198.948H445.265L442.429 191.573L439.4 198.948H436.75L441.105 189.117L437.324 180.603Z" fill="#535762"/>
<path d="M458.702 198.947C458.425 198.092 458.297 197.196 458.322 196.298C458.116 197.115 457.656 197.845 457.006 198.382C456.2 199.022 455.19 199.351 454.162 199.309C452.85 199.279 451.585 198.812 450.567 197.984C449.624 196.883 449.148 195.456 449.242 194.009C449.242 190.414 451.095 188.904 452.457 188.339C454.197 187.633 456.085 187.372 457.951 187.579C457.951 185.309 457.951 183.984 457.377 183.225C457.12 182.928 456.801 182.691 456.442 182.53C456.084 182.37 455.694 182.291 455.301 182.298C454.81 182.281 454.323 182.395 453.89 182.628C453.457 182.861 453.094 183.204 452.837 183.623C452.496 184.267 452.303 184.98 452.272 185.708L449.817 185.133C450.03 183.856 450.62 182.672 451.512 181.733C452.063 181.204 452.719 180.796 453.437 180.536C454.155 180.276 454.919 180.169 455.681 180.223C456.794 180.242 457.89 180.498 458.896 180.973C460.749 182.298 460.749 184.383 460.749 187.218V194.63C460.73 196.084 460.791 197.538 460.935 198.985L458.702 198.947ZM453.031 190.813C452.442 191.714 452.12 192.765 452.105 193.842C452.063 194.723 452.329 195.591 452.855 196.298C453.321 196.737 453.922 197.005 454.56 197.057C455.114 197.036 455.652 196.866 456.117 196.566C456.583 196.267 456.961 195.847 457.21 195.353C457.97 193.842 458.136 191.952 458.136 189.488C456.052 189.488 454.162 189.682 453.031 190.813Z" fill="#535762"/>
<path d="M464.945 198.948V180.594H467.595V188.163H469.3C469.743 188.195 470.182 188.057 470.526 187.776C470.871 187.495 471.095 187.094 471.153 186.653C471.338 186.088 471.338 185.328 471.533 184.383C471.583 183.627 471.727 182.88 471.959 182.159C472.067 181.637 472.352 181.168 472.765 180.83C473.179 180.493 473.695 180.308 474.229 180.306C474.414 180.306 474.979 180.492 475.155 180.492V182.576C474.892 182.588 474.634 182.65 474.396 182.762C474.089 183.274 473.956 183.872 474.016 184.466C473.977 185.421 473.849 186.37 473.636 187.301C473.512 187.743 473.276 188.146 472.952 188.47C472.627 188.795 472.225 189.03 471.783 189.154C472.358 189.333 472.865 189.682 473.237 190.155C473.609 190.629 473.829 191.204 473.868 191.804C474.247 193.324 474.247 195.214 474.433 196.159C474.618 196.344 474.813 197.085 475.758 196.724V198.809C475.403 198.976 475.008 199.04 474.618 198.994C472.765 198.994 472.348 197.669 471.977 196.919C471.664 195.677 471.472 194.408 471.403 193.129C471.329 192.349 471.139 191.583 470.838 190.859C470.672 190.674 470.467 190.528 470.238 190.43C470.009 190.332 469.762 190.286 469.513 190.294H467.808V198.809H464.973L464.945 198.948Z" fill="#535762"/>
<path d="M486.698 198.947C486.428 198.091 486.303 197.195 486.327 196.298C486.115 197.114 485.651 197.843 485.002 198.382C484.197 199.024 483.187 199.353 482.158 199.309C480.846 199.279 479.581 198.812 478.563 197.984C477.62 196.883 477.145 195.456 477.238 194.009C477.238 190.414 479.091 188.904 480.462 188.339C482.199 187.633 484.084 187.372 485.947 187.579C485.947 185.309 485.947 183.984 485.382 183.225C485.123 182.928 484.802 182.692 484.442 182.532C484.082 182.372 483.691 182.292 483.297 182.298C482.806 182.281 482.319 182.395 481.886 182.628C481.453 182.861 481.09 183.204 480.833 183.623C480.496 184.269 480.303 184.98 480.268 185.708L477.813 185.133C478.026 183.856 478.616 182.672 479.508 181.733C480.059 181.204 480.715 180.796 481.433 180.536C482.151 180.276 482.915 180.169 483.677 180.223C484.79 180.242 485.886 180.498 486.892 180.973C488.745 182.298 488.745 184.383 488.745 187.218V194.63C488.726 196.084 488.788 197.538 488.931 198.985L486.698 198.947ZM481.028 190.813C480.441 191.716 480.12 192.766 480.101 193.842C480.059 194.723 480.325 195.591 480.851 196.298C481.317 196.737 481.918 197.005 482.556 197.057C483.11 197.036 483.648 196.866 484.114 196.566C484.58 196.267 484.957 195.847 485.206 195.353C485.966 193.842 486.133 191.952 486.133 189.488C484.057 189.488 482.158 189.682 481.028 190.813Z" fill="#535762"/>
<path d="M494.645 182.678H490.105V180.603H501.65V182.678H497.101V198.948H494.645V182.678Z" fill="#535762"/>
<path d="M512.243 181.733C513.947 183.818 514.327 187.218 514.327 189.682C514.327 192.517 513.753 195.918 512.243 197.622C511.257 198.668 509.898 199.281 508.462 199.327C507.747 199.324 507.04 199.171 506.387 198.877C505.734 198.583 505.15 198.156 504.673 197.622C503.163 195.918 502.598 192.703 502.598 189.682C502.598 187.403 502.968 183.818 504.673 181.733C505.134 181.18 505.715 180.74 506.372 180.445C507.028 180.149 507.743 180.007 508.462 180.028C509.898 180.075 511.257 180.688 512.243 181.733ZM505.618 194.787C505.711 195.424 506.029 196.006 506.516 196.427C507.002 196.848 507.624 197.08 508.268 197.08C508.911 197.08 509.533 196.848 510.02 196.427C510.506 196.006 510.825 195.424 510.918 194.787C511.303 193.113 511.493 191.4 511.483 189.682C511.504 187.961 511.314 186.243 510.918 184.568C510.815 183.938 510.493 183.364 510.008 182.949C509.523 182.533 508.906 182.303 508.268 182.298C507.644 182.351 507.052 182.598 506.577 183.005C506.101 183.413 505.766 183.959 505.618 184.568C505.222 186.243 505.032 187.961 505.053 189.682C505.043 191.4 505.232 193.113 505.618 194.787Z" fill="#535762"/>
<path d="M517.91 180.603H520.56V188.163H525.86V180.603H528.509V198.948H525.86V190.433H520.56V198.948H517.91V180.603Z" fill="#535762"/>
<path d="M541.379 180.603H551.783V198.948H549.319V182.678H543.834V198.948H541.379V180.603Z" fill="#535762"/>
<path d="M565.221 181.733C566.916 183.818 567.296 187.218 567.296 189.682C567.296 192.518 566.731 195.918 565.221 197.623C564.23 198.666 562.869 199.278 561.431 199.327C560.717 199.325 560.011 199.171 559.359 198.878C558.708 198.584 558.126 198.156 557.651 197.623C556.132 195.918 555.566 192.703 555.566 189.682C555.566 187.403 555.946 183.818 557.651 181.733C558.111 181.181 558.69 180.741 559.345 180.446C560 180.15 560.713 180.008 561.431 180.028C562.15 180.011 562.864 180.155 563.52 180.45C564.175 180.745 564.757 181.184 565.221 181.733ZM558.781 194.787C558.874 195.424 559.193 196.006 559.679 196.427C560.166 196.849 560.788 197.08 561.431 197.08C562.075 197.08 562.697 196.849 563.183 196.427C563.67 196.006 563.988 195.424 564.081 194.787C564.467 193.113 564.656 191.4 564.646 189.682C564.667 187.961 564.477 186.243 564.081 184.568C563.978 183.938 563.656 183.364 563.171 182.949C562.686 182.534 562.07 182.303 561.431 182.298C560.807 182.351 560.215 182.598 559.74 183.005C559.264 183.413 558.929 183.96 558.781 184.568C558.385 186.243 558.195 187.961 558.216 189.682C558.206 191.4 558.396 193.113 558.781 194.787Z" fill="#535762"/>
<path d="M579.406 180.603H590.005V198.948H587.356V182.678H582.056V198.948H579.406V180.603Z" fill="#535762"/>
<path d="M594.542 180.593H597.035V183.623C597.214 182.781 597.606 182 598.174 181.353C598.512 180.992 598.921 180.704 599.375 180.51C599.83 180.315 600.32 180.217 600.815 180.223C601.572 180.21 602.32 180.395 602.984 180.759C603.649 181.122 604.207 181.653 604.604 182.298C605.929 184.151 606.309 187.412 606.309 189.488C606.346 191.888 605.895 194.271 604.984 196.492C604.613 197.337 604.003 198.055 603.229 198.559C602.456 199.063 601.552 199.33 600.629 199.327C599.744 199.397 598.865 199.125 598.174 198.568C597.747 198.169 597.365 197.724 597.035 197.243V205.377H594.348V180.593H594.542ZM597.035 191.572C597.035 193.083 597.035 194.602 597.961 195.732C598.186 196.124 598.522 196.44 598.925 196.643C599.329 196.845 599.783 196.925 600.231 196.872C600.74 196.861 601.236 196.714 601.669 196.447C602.103 196.18 602.457 195.802 602.695 195.353C603.261 194.426 603.446 191.193 603.446 189.488C603.446 188.163 603.446 185.143 602.519 183.623C602.344 183.221 602.054 182.88 601.684 182.644C601.314 182.408 600.883 182.288 600.444 182.298C600.008 182.323 599.582 182.438 599.191 182.634C598.801 182.83 598.455 183.103 598.174 183.438C597.414 184.364 597.035 186.458 597.035 188.163V191.572Z" fill="#535762"/>
<path d="M618.754 181.733C620.459 183.818 620.839 187.218 620.839 189.682C620.839 192.518 620.274 195.918 618.754 197.623C617.769 198.668 616.41 199.281 614.974 199.327C614.26 199.325 613.554 199.171 612.902 198.878C612.251 198.584 611.669 198.156 611.194 197.623C609.675 195.918 609.109 192.703 609.109 189.682C609.109 187.403 609.489 183.818 611.194 181.733C611.654 181.181 612.233 180.741 612.888 180.446C613.543 180.15 614.256 180.008 614.974 180.028C616.41 180.075 617.769 180.688 618.754 181.733ZM612.139 194.787C612.238 195.418 612.559 195.992 613.044 196.407C613.529 196.822 614.146 197.05 614.784 197.05C615.422 197.05 616.039 196.822 616.524 196.407C617.009 195.992 617.33 195.418 617.429 194.787C617.818 193.114 618.011 191.401 618.004 189.682C618.022 187.961 617.829 186.243 617.429 184.568C617.329 183.939 617.008 183.365 616.525 182.95C616.041 182.534 615.426 182.303 614.789 182.298C614.165 182.351 613.573 182.598 613.097 183.005C612.622 183.413 612.287 183.96 612.139 184.568C611.739 186.243 611.546 187.961 611.565 189.682C611.654 191.394 611.846 193.099 612.139 194.787Z" fill="#535762"/>
<path d="M624.43 180.603H633.695V182.678H627.08V198.948H624.43V180.603Z" fill="#535762"/>
<path d="M635.402 180.594H637.867V183.623C638.039 182.738 638.506 181.938 639.192 181.353C639.53 180.991 639.941 180.703 640.397 180.508C640.853 180.313 641.345 180.216 641.842 180.223C642.598 180.211 643.344 180.396 644.007 180.76C644.669 181.124 645.226 181.654 645.622 182.298C646.947 184.151 647.326 187.413 647.326 189.488C647.363 191.888 646.912 194.271 646.002 196.492C645.63 197.337 645.02 198.056 644.247 198.559C643.474 199.063 642.57 199.33 641.647 199.327C640.762 199.397 639.883 199.125 639.192 198.568C638.765 198.169 638.383 197.725 638.052 197.243V205.377H635.402V180.594ZM637.867 191.573C637.867 193.083 637.867 194.602 638.793 195.733C639.019 196.124 639.354 196.44 639.757 196.643C640.161 196.845 640.615 196.925 641.063 196.872C641.571 196.861 642.066 196.714 642.498 196.447C642.93 196.18 643.282 195.802 643.519 195.353C644.093 194.426 644.278 191.193 644.278 189.488C644.278 188.163 644.278 185.143 643.352 183.623C643.175 183.22 642.883 182.879 642.511 182.643C642.14 182.407 641.707 182.287 641.267 182.298C640.832 182.326 640.406 182.441 640.016 182.637C639.626 182.832 639.279 183.105 638.997 183.438C638.247 184.364 637.867 186.458 637.867 188.163V191.573Z" fill="#535762"/>
<path d="M659.057 198.947C658.781 198.092 658.652 197.196 658.677 196.298C658.468 197.116 658.004 197.846 657.352 198.382C656.55 199.023 655.543 199.352 654.517 199.309C653.205 199.28 651.94 198.814 650.922 197.984C649.979 196.882 649.504 195.456 649.598 194.009C649.598 190.414 651.451 188.904 652.813 188.339C654.549 187.634 656.434 187.373 658.297 187.579C658.297 185.309 658.297 183.984 657.732 183.225C657.474 182.927 657.153 182.69 656.793 182.53C656.433 182.37 656.042 182.291 655.648 182.298C655.158 182.283 654.673 182.398 654.242 182.63C653.811 182.863 653.449 183.205 653.192 183.623C652.851 184.267 652.658 184.979 652.627 185.708L650.163 185.133C650.378 183.855 650.972 182.671 651.867 181.733C652.417 181.204 653.071 180.797 653.787 180.536C654.504 180.276 655.267 180.169 656.027 180.223C657.14 180.24 658.237 180.496 659.242 180.973C661.095 182.298 661.095 184.383 661.095 187.218V194.63C661.075 196.084 661.14 197.538 661.29 198.984L659.057 198.947ZM653.378 190.813C652.791 191.716 652.47 192.766 652.451 193.842C652.413 194.724 652.682 195.592 653.211 196.298C653.675 196.74 654.277 197.008 654.916 197.057C655.468 197.035 656.004 196.865 656.468 196.565C656.933 196.265 657.308 195.847 657.556 195.353C658.311 193.495 658.628 191.488 658.483 189.488C656.398 189.488 654.313 189.682 653.368 190.813" fill="#535762"/>
<path d="M665.301 180.603H668.896L672.49 194.602L676.085 180.603H679.68V198.948H677.216V186.273L677.401 183.058L676.65 185.708L673.241 198.948H671.536L667.941 185.902L667.376 183.058V186.273V198.948H665.301V180.603Z" fill="#535762"/>
<path d="M684.219 180.603H687.814L691.408 194.602L694.994 180.603H698.589V198.948H696.134V186.273V183.058L695.568 185.708L692.159 198.948H690.454L686.859 185.902L686.294 183.058V186.273V198.948H684.219V180.603Z" fill="#535762"/>
<path d="M703.129 180.603H705.593V191.952V194.028L706.353 192.138L711.078 181.548V180.603H713.728V198.948H711.078V187.413L711.273 185.523L710.513 187.413L705.593 197.632V198.948H703.129V180.603Z" fill="#535762"/>
<path d="M718.271 180.593H720.736V183.623C720.916 182.783 721.304 182.003 721.866 181.353C722.204 180.99 722.615 180.702 723.071 180.508C723.528 180.313 724.02 180.216 724.516 180.223C725.272 180.21 726.019 180.394 726.682 180.758C727.344 181.122 727.901 181.653 728.296 182.298C729.621 184.151 730.001 187.412 730.001 189.488C730.038 191.888 729.587 194.271 728.676 196.492C728.306 197.336 727.698 198.054 726.926 198.558C726.154 199.062 725.252 199.329 724.331 199.327C723.442 199.396 722.561 199.124 721.866 198.568C721.44 198.171 721.06 197.726 720.736 197.243V205.377H718.086V180.593H718.271ZM720.736 191.572C720.736 193.083 720.736 194.602 721.662 195.732C721.888 196.124 722.223 196.44 722.626 196.643C723.03 196.845 723.484 196.925 723.932 196.872C724.44 196.86 724.935 196.713 725.366 196.446C725.798 196.179 726.15 195.801 726.387 195.353C726.953 194.426 727.147 191.193 727.147 189.488C727.147 188.163 727.147 185.143 726.221 183.623C726.044 183.22 725.751 182.879 725.38 182.643C725.009 182.407 724.576 182.287 724.136 182.298C723.7 182.326 723.275 182.441 722.885 182.636C722.495 182.832 722.148 183.105 721.866 183.438C721.106 184.364 720.736 186.458 720.736 188.163V191.572Z" fill="#535762"/>
<path d="M742.494 181.733C744.199 183.818 744.569 187.218 744.569 189.682C744.569 192.518 744.004 195.918 742.494 197.623C741.506 198.669 740.143 199.282 738.705 199.327C737.99 199.323 737.285 199.17 736.634 198.876C735.982 198.582 735.4 198.155 734.924 197.623C733.414 195.918 732.84 192.703 732.84 189.682C732.84 187.403 733.22 183.818 734.924 181.733C735.384 181.181 735.964 180.741 736.618 180.446C737.273 180.15 737.987 180.008 738.705 180.028C740.143 180.074 741.506 180.687 742.494 181.733ZM736.064 194.787C736.163 195.418 736.484 195.992 736.969 196.407C737.454 196.822 738.071 197.05 738.709 197.05C739.347 197.05 739.965 196.822 740.449 196.407C740.934 195.992 741.255 195.418 741.354 194.787C741.743 193.114 741.936 191.401 741.929 189.682C741.947 187.961 741.754 186.243 741.354 184.568C741.253 183.937 740.931 183.363 740.446 182.947C739.961 182.531 739.344 182.301 738.705 182.298C738.082 182.352 737.493 182.601 737.019 183.008C736.545 183.415 736.211 183.961 736.064 184.568C735.664 186.243 735.471 187.961 735.49 189.682C735.482 191.401 735.675 193.114 736.064 194.787Z" fill="#535762"/>
<path d="M748.156 180.593H754.401C756.105 180.593 757.05 181.168 757.43 181.733C758.222 182.687 758.625 183.904 758.561 185.142C758.554 185.992 758.361 186.83 757.995 187.598C757.816 187.991 757.56 188.345 757.242 188.638C756.923 188.931 756.55 189.157 756.142 189.302C756.96 189.61 757.68 190.132 758.227 190.813C758.761 191.73 759.022 192.781 758.978 193.842C759.02 194.529 758.925 195.217 758.698 195.866C758.47 196.516 758.115 197.113 757.653 197.622C757.241 198.058 756.742 198.402 756.187 198.63C755.633 198.858 755.037 198.967 754.438 198.947H748.008V180.593H748.156ZM753.076 188.163C753.456 188.191 753.839 188.139 754.198 188.01C754.557 187.881 754.885 187.677 755.16 187.412C755.686 186.776 755.956 185.967 755.92 185.142C755.956 184.76 755.907 184.375 755.775 184.014C755.644 183.654 755.434 183.327 755.16 183.058C754.616 182.682 753.969 182.484 753.307 182.493H750.834V188.163H753.076ZM753.076 196.872C753.875 196.937 754.673 196.735 755.346 196.297C755.99 195.57 756.323 194.618 756.272 193.648C756.288 192.685 755.959 191.749 755.346 191.007C754.699 190.501 753.897 190.232 753.076 190.247H750.621V196.872H753.076Z" fill="#535762"/>
<path d="M771.051 198.948C770.781 198.091 770.656 197.195 770.681 196.298C770.468 197.114 770.005 197.843 769.356 198.382C768.549 199.022 767.54 199.351 766.511 199.309C765.189 199.292 763.91 198.832 762.879 198.002C761.936 196.901 761.461 195.475 761.555 194.028C761.555 190.433 763.408 188.923 764.779 188.358C766.515 187.651 768.401 187.39 770.264 187.598C770.264 185.328 770.264 184.003 769.689 183.243C769.432 182.946 769.113 182.709 768.755 182.549C768.396 182.389 768.007 182.31 767.614 182.317C767.123 182.3 766.636 182.414 766.203 182.647C765.77 182.879 765.406 183.223 765.149 183.642C764.813 184.288 764.62 184.999 764.584 185.726L762.129 185.152C762.342 183.875 762.933 182.69 763.825 181.752C764.375 181.223 765.031 180.815 765.749 180.555C766.467 180.295 767.232 180.188 767.994 180.241C769.107 180.261 770.202 180.517 771.209 180.992C773.062 182.317 773.062 184.401 773.062 187.237V194.649C773.042 196.102 773.104 197.556 773.247 199.003L771.051 198.948ZM765.381 190.813C764.795 191.716 764.474 192.766 764.455 193.843C764.413 194.723 764.678 195.591 765.205 196.298C765.671 196.737 766.272 197.005 766.91 197.057C767.463 197.036 768.001 196.866 768.467 196.566C768.933 196.267 769.31 195.848 769.56 195.353C770.319 193.843 770.486 191.952 770.486 189.488C768.216 189.488 766.326 189.683 765.381 190.813Z" fill="#535762"/>
<path d="M777.297 180.603H779.947V188.163H785.237V180.603H787.887V198.948H785.237V190.433H779.947V198.948H777.297V180.603Z" fill="#535762"/>
<path d="M792.242 180.603H794.892V191.952L794.707 194.028L795.457 192.138L800.377 181.548V180.603H803.027V198.948H800.377V187.413L800.571 185.523L799.812 187.413L794.892 197.632V198.948H792.242V180.603Z" fill="#535762"/>
<path d="M807.352 180.594H809.807V188.358H812.271C812.267 186.046 812.994 183.793 814.347 181.919C814.826 181.388 815.41 180.963 816.063 180.671C816.715 180.379 817.421 180.227 818.136 180.223C818.854 180.193 819.57 180.33 820.226 180.625C820.882 180.919 821.461 181.362 821.916 181.919C823.769 184.188 824.001 188.358 824.001 189.683C824.001 195.168 822.296 197.243 821.916 197.623C820.931 198.668 819.572 199.281 818.136 199.328C817.403 199.341 816.677 199.179 816.018 198.857C815.359 198.535 814.787 198.061 814.347 197.475C813.031 195.77 812.494 192.555 812.494 190.285H810.224V198.799H807.768V180.594H807.352ZM815.486 194.788C816.051 196.863 817.339 197.058 818.136 197.058C818.754 197.053 819.349 196.818 819.803 196.398C820.257 195.978 820.538 195.404 820.591 194.788C820.977 193.114 821.167 191.4 821.156 189.683C821.178 187.961 820.988 186.244 820.591 184.568C820.026 182.493 818.738 182.298 818.136 182.298C817.502 182.317 816.893 182.553 816.411 182.966C815.929 183.379 815.602 183.944 815.486 184.568C815.111 186.247 814.921 187.962 814.921 189.683C814.889 191.402 815.079 193.117 815.486 194.788Z" fill="#535762"/>
<path d="M41.9233 103.407C41.7287 103.407 41.7287 103.602 41.9233 103.407V103.407Z" fill="#42C66E"/>
<path d="M42.1072 103.027C42.1084 103.052 42.1046 103.077 42.0958 103.101C42.0871 103.124 42.0736 103.146 42.0563 103.164C42.039 103.182 42.0181 103.197 41.995 103.206C41.9719 103.216 41.947 103.221 41.9219 103.221L42.1072 103.027Z" fill="#42C66E"/>
</svg>
