<svg width="158" height="138" viewBox="0 0 158 138" fill="none" xmlns="http://www.w3.org/2000/svg">
<path d="M158 68.6017L118.5 137.203H39.5L0 68.6017L39.5 0H118.5L158 68.6017Z" fill="#42C66E"/>
<path d="M78.9984 112.685C66.7999 112.685 55.464 107.757 46.962 98.885C46.3459 98.2689 46.4691 97.2831 46.962 96.7903C47.5781 96.1742 48.5638 96.2974 49.0567 96.7903C56.9426 105.046 67.416 109.605 78.8752 109.605C101.547 109.605 119.906 91.2455 119.906 68.5736C119.906 45.9017 101.67 27.5423 78.9984 27.5423C56.3265 27.5423 37.9671 45.9017 37.9671 68.5736C37.9671 75.7202 39.8154 82.8668 43.3887 89.0276C43.7583 89.7669 43.5119 90.7526 42.8958 91.1223C42.1565 91.4919 41.294 91.2455 40.8011 90.5062C36.8582 83.8525 34.8867 76.3363 34.8867 68.5736C34.8867 44.2998 54.7246 24.4619 78.9984 24.4619C103.272 24.4619 123.11 44.2998 123.11 68.5736C123.11 92.8473 103.272 112.685 78.9984 112.685Z" fill="#1D2332"/>
<path d="M78.9977 112.685C65.3206 112.685 54.2311 92.8473 54.2311 68.5736C54.2311 57.1144 56.6954 46.2713 61.1312 38.0158C61.5009 37.2765 62.4866 37.03 63.2259 37.3997C63.9652 37.7693 64.2117 38.7551 63.842 39.4944C59.6526 47.2571 57.3115 57.6073 57.3115 68.5736C57.3115 91.2455 67.0456 109.605 79.1209 109.605C91.073 109.605 100.93 91.2455 100.93 68.5736C100.93 45.9017 90.9497 27.5423 78.9977 27.5423C74.8083 27.5423 70.6189 29.8835 67.0456 34.4425C66.5528 35.0586 65.567 35.1818 64.951 34.6889C64.3349 34.1961 64.2117 33.2103 64.7045 32.5942C68.7707 27.1727 73.8226 24.4619 78.9977 24.4619C92.6748 24.4619 103.764 44.2998 103.764 68.5736C103.764 92.8473 92.6748 112.685 78.9977 112.685Z" fill="#1D2332"/>
<path d="M78.9984 93.3391C54.7246 93.3391 34.8867 82.2495 34.8867 68.5724C34.8867 54.8953 54.7246 43.8058 78.9984 43.8058C103.272 43.8058 123.11 54.8953 123.11 68.5724C123.11 73.994 120.153 79.0459 114.608 83.3585C113.992 83.8513 113.006 83.7281 112.513 83.112C112.021 82.496 112.144 81.5102 112.76 81.0173C117.565 77.3208 120.153 73.1315 120.153 68.6957C120.153 56.7436 101.794 46.8862 79.1216 46.8862C56.4497 46.8862 37.9671 56.4972 37.9671 68.5724C37.9671 80.5245 56.3265 90.3818 78.9984 90.3818C88.4861 90.3818 97.7274 88.6568 105.12 85.3299C105.86 84.9603 106.722 85.3299 107.092 86.0692C107.462 86.8085 107.092 87.6711 106.353 88.0407C98.4667 91.4908 88.979 93.3391 78.9984 93.3391Z" fill="#1D2332"/>
<path d="M70.5004 80.2794C69.7611 80.2794 69.2683 79.7865 69.0218 79.1704L63.2306 58.7164C62.9842 57.8539 63.4771 57.1146 64.3396 56.8682C65.0789 56.6217 65.9414 57.1146 66.1878 57.9771L70.5004 73.1328L74.813 57.9771C75.0595 57.1146 75.922 56.745 76.6613 56.8682C77.5238 57.1146 77.8935 57.9771 77.7702 58.7164L71.979 79.1704C71.7326 79.7865 71.1165 80.2794 70.5004 80.2794Z" fill="#1D2332"/>
<path d="M81.7078 80.2758C80.8453 80.2758 80.2292 79.5365 80.2292 78.7972V58.4664C80.2292 57.6039 80.9685 56.9878 81.7078 56.9878H91.5651C93.2902 56.9878 94.6456 58.3432 94.6456 59.945V66.1059C94.6456 67.7077 93.2902 69.0631 91.5651 69.0631H85.4043L94.2759 77.8115C94.892 78.4276 94.892 79.4133 94.2759 79.9062C93.6598 80.5222 92.6741 80.5222 92.1812 79.9062L83.3096 71.0345V78.7972C83.3096 79.5365 82.5703 80.2758 81.7078 80.2758ZM91.5651 65.8594C91.6883 65.8594 91.6883 65.8594 91.6883 65.8594V59.945C91.6883 59.945 91.6883 59.945 91.5651 59.945H83.1864V65.8594H91.5651Z" fill="#1D2332"/>
<path fill-rule="evenodd" clip-rule="evenodd" d="M91.6883 69.0607C93.3543 68.998 94.6456 67.6693 94.6456 66.1059V59.945C94.6456 58.3815 93.3543 57.0528 91.6883 56.9901C91.6475 56.9886 91.6064 56.9878 91.5651 56.9878H81.7078C81.5822 56.9878 81.4567 57.0056 81.3348 57.0393C80.7387 57.2041 80.2292 57.7503 80.2292 58.4664V78.7972C80.2292 79.5365 80.8453 80.2758 81.7078 80.2758C82.5703 80.2758 83.3096 79.5365 83.3096 78.7972V71.0345L92.1812 79.9062C92.1856 79.9116 92.19 79.917 92.1944 79.9223C92.6914 80.5222 93.6653 80.5168 94.2759 79.9062C94.8129 79.4765 94.8818 78.6724 94.4826 78.065C94.4239 77.9756 94.3549 77.8905 94.2759 77.8115L85.4043 69.0631H91.5651C91.6064 69.0631 91.6475 69.0623 91.6883 69.0607ZM91.6883 65.8594V59.945H83.1864V65.8594H91.6883ZM77.7702 58.7164C77.7839 58.6343 77.7915 58.5506 77.7931 58.4664C77.8048 57.8148 77.452 57.1329 76.7346 56.891C76.7105 56.8829 76.6861 56.8753 76.6613 56.8682C75.9482 56.7493 75.1205 57.089 74.8415 57.8872C74.8313 57.9166 74.8218 57.9465 74.813 57.9771L70.5004 73.1328L66.1878 57.9771C66.1791 57.9467 66.1697 57.9167 66.1595 57.8872C66.1587 57.8849 66.1579 57.8826 66.1571 57.8803C65.876 57.0782 65.0508 56.6311 64.3396 56.8682C63.4771 57.1146 62.9842 57.8539 63.2306 58.7164L69.0218 79.1704C69.2683 79.7865 69.7611 80.2794 70.5004 80.2794C71.1165 80.2794 71.7326 79.7865 71.979 79.1704L77.7702 58.7164Z" fill="#1D2332"/>
</svg>
