<svg width="24" height="25" viewBox="0 0 24 25" fill="none" xmlns="http://www.w3.org/2000/svg">
<g clip-path="url(#clip0_2502_3054)">
<path d="M12.75 9.18604C12.75 8.98712 12.671 8.79636 12.5303 8.65571C12.3897 8.51505 12.1989 8.43604 12 8.43604C11.8011 8.43604 11.6103 8.51505 11.4697 8.65571C11.329 8.79636 11.25 8.98712 11.25 9.18604V13.536H6.75C6.55109 13.536 6.36032 13.6151 6.21967 13.7557C6.07902 13.8964 6 14.0871 6 14.286C6 14.4849 6.07902 14.6757 6.21967 14.8164C6.36032 14.957 6.55109 15.036 6.75 15.036H12C12.1989 15.036 12.3897 14.957 12.5303 14.8164C12.671 14.6757 12.75 14.4849 12.75 14.286V9.18604Z" fill="#1D2332"/>
<path d="M9.75129 2.28613C9.75129 2.08722 9.83031 1.89645 9.97096 1.7558C10.1116 1.61515 10.3024 1.53613 10.5013 1.53613H13.5013C13.7002 1.53613 13.891 1.61515 14.0316 1.7558C14.1723 1.89645 14.2513 2.08722 14.2513 2.28613C14.2513 2.48505 14.1723 2.67581 14.0316 2.81646C13.891 2.95712 13.7002 3.03613 13.5013 3.03613V3.89113C15.5413 4.18513 17.3923 5.06113 18.8773 6.35113C18.8832 6.34456 18.8892 6.33806 18.8953 6.33163L19.4263 5.80063L18.8953 5.27113C18.7545 5.1305 18.6753 4.93969 18.6751 4.74066C18.675 4.54164 18.7539 4.35071 18.8945 4.20988C19.0352 4.06905 19.226 3.98986 19.425 3.98972C19.624 3.98957 19.815 4.0685 19.9558 4.20913L22.0768 6.33163C22.1484 6.40082 22.2056 6.48358 22.2449 6.57508C22.2842 6.66658 22.3049 6.765 22.3057 6.86458C22.3066 6.96417 22.2876 7.06293 22.2499 7.1551C22.2122 7.24727 22.1565 7.33101 22.0861 7.40143C22.0157 7.47185 21.9319 7.52754 21.8398 7.56525C21.7476 7.60296 21.6488 7.62194 21.5492 7.62107C21.4497 7.6202 21.3512 7.59952 21.2597 7.56021C21.1682 7.5209 21.0855 7.46376 21.0163 7.39213L20.4868 6.86113L19.9558 7.39213C19.9494 7.39824 19.9429 7.40424 19.9363 7.41013C21.4636 9.17316 22.3603 11.3946 22.485 13.7238C22.6097 16.053 21.9553 18.3574 20.625 20.2734C19.2947 22.1895 17.3643 23.608 15.1383 24.3052C12.9124 25.0023 10.5177 24.9385 8.33208 24.1236C6.14647 23.3088 4.29441 21.7894 3.06813 19.8052C1.84185 17.821 1.31118 15.485 1.55986 13.1657C1.80853 10.8464 2.8224 8.67601 4.44146 6.99689C6.06053 5.31777 8.19262 4.22557 10.5013 3.89263V3.03613C10.3024 3.03613 10.1116 2.95712 9.97096 2.81646C9.83031 2.67581 9.75129 2.48505 9.75129 2.28613ZM12.0013 5.28613C10.8194 5.28623 9.64909 5.51912 8.5572 5.9715C7.46531 6.42389 6.47321 7.0869 5.63755 7.9227C3.94986 9.61067 3.00184 11.8999 3.00204 14.2869C3.00224 16.6738 3.95064 18.9629 5.63861 20.6506C7.32658 22.3383 9.61585 23.2863 12.0028 23.2861C14.3897 23.2859 16.6788 22.3375 18.3665 20.6496C20.0542 18.9616 21.0022 16.6723 21.002 14.2854C21.0018 11.8984 20.0534 9.60933 18.3655 7.92164C16.6775 6.23395 14.3882 5.28593 12.0013 5.28613Z" fill="#1D2332"/>
</g>
<defs>
<clipPath id="clip0_2502_3054">
<rect width="24" height="24" fill="white" transform="translate(0 0.786133)"/>
</clipPath>
</defs>
</svg>
