<svg width="314" height="289" viewBox="0 0 314 289" fill="none" xmlns="http://www.w3.org/2000/svg">
<g clip-path="url(#clip0_2948_3739)">
<path d="M102.342 92.7411C102.377 92.6261 102.424 92.511 102.472 92.4075C101.409 91.7634 100.452 90.9814 99.6493 90.0842C99.543 90.1533 99.4485 90.2108 99.3304 90.2683C97.8425 91.0159 96.0121 90.4523 95.2445 89.0031C94.477 87.5539 95.0556 85.7712 96.5435 85.0236C96.6498 84.9661 96.7679 84.9201 96.886 84.8856C96.6026 83.724 96.4963 82.5163 96.579 81.2972C96.4609 81.2742 96.3428 81.2512 96.2247 81.2167C94.6305 80.7221 93.7448 79.0659 94.2526 77.5017C94.7604 75.949 96.4609 75.0864 98.0669 75.581C98.185 75.6155 98.303 75.6615 98.4093 75.7075C99.0706 74.6608 99.8736 73.7407 100.795 72.9586C100.724 72.8551 100.665 72.7631 100.606 72.6481C99.8382 71.1989 100.417 69.4162 101.905 68.6686C103.393 67.921 105.223 68.4846 105.991 69.9338C106.05 70.0373 106.097 70.1523 106.132 70.2673C107.325 69.9913 108.565 69.8878 109.817 69.9683C109.84 69.8533 109.864 69.7382 109.899 69.6232C110.407 68.0705 112.108 67.2079 113.714 67.7025C115.308 68.197 116.193 69.8533 115.686 71.4174C115.65 71.5325 115.603 71.6475 115.556 71.751C116.619 72.3951 117.575 73.1772 118.378 74.0743C118.484 74.0053 118.579 73.9478 118.697 73.8903C120.185 73.1427 122.015 73.7062 122.783 75.1554C123.55 76.6046 122.972 78.3873 121.484 79.1349C121.378 79.1924 121.259 79.2384 121.141 79.2729C121.425 80.4346 121.531 81.6422 121.448 82.8614C121.566 82.8844 121.685 82.9074 121.803 82.9419C123.397 83.4364 124.283 85.0926 123.775 86.6568C123.267 88.2095 121.566 89.0721 119.96 88.5776C119.842 88.5431 119.724 88.4971 119.618 88.451C118.957 89.4977 118.154 90.4178 117.233 91.1999C117.303 91.3034 117.363 91.3954 117.422 91.5104C118.189 92.9596 117.611 94.7423 116.123 95.4899C114.635 96.2375 112.804 95.6739 112.037 94.2248C111.978 94.1212 111.93 94.0062 111.895 93.8912C110.702 94.1672 109.462 94.2708 108.222 94.1902C108.199 94.3053 108.175 94.4203 108.14 94.5353C107.632 96.088 105.932 96.9506 104.326 96.456C102.72 95.9615 101.834 94.2938 102.342 92.7411ZM114.375 83.7355C115.32 80.8486 113.678 77.7662 110.714 76.8461C107.75 75.926 104.585 77.5247 103.641 80.4116C102.696 83.2984 104.337 86.3808 107.301 87.3009C110.265 88.221 113.43 86.6338 114.375 83.7355Z" fill="white"/>
<path d="M105.233 96.847C105.753 96.847 106.272 96.7205 106.745 96.4905C107.524 96.0994 108.103 95.4324 108.374 94.6158C108.386 94.5698 108.41 94.5123 108.422 94.4548C109.532 94.5008 110.653 94.4087 111.74 94.1787C111.763 94.2362 111.787 94.2822 111.811 94.3282C112.212 95.0873 112.897 95.6509 113.735 95.9154C114.574 96.18 115.46 96.0994 116.251 95.7084C117.869 94.8918 118.494 92.9596 117.668 91.3839C117.644 91.3379 117.621 91.2919 117.585 91.2344C118.412 90.5098 119.132 89.6702 119.734 88.7616C119.793 88.7846 119.841 88.7961 119.9 88.8191C121.624 89.3596 123.49 88.4165 124.033 86.7373C124.588 85.0466 123.619 83.2409 121.895 82.7118C121.848 82.7003 121.789 82.6773 121.73 82.6658C121.777 81.5847 121.683 80.492 121.447 79.4339C121.506 79.4109 121.553 79.3879 121.6 79.3649C123.218 78.5483 123.844 76.6161 123.017 75.0404C122.616 74.2813 121.931 73.7177 121.092 73.4532C120.254 73.1886 119.368 73.2691 118.577 73.6602C118.53 73.6832 118.483 73.7062 118.424 73.7407C117.68 72.9356 116.818 72.234 115.885 71.6474C115.908 71.5899 115.92 71.5439 115.944 71.4864C116.499 69.7957 115.53 67.99 113.806 67.4609C112.07 66.9204 110.216 67.8635 109.673 69.5427C109.661 69.6002 109.638 69.6462 109.626 69.7037C108.516 69.6462 107.394 69.7497 106.308 69.9797C106.284 69.9222 106.26 69.8762 106.237 69.8302C105.835 69.0711 105.15 68.5076 104.312 68.243C103.474 67.9785 102.588 68.059 101.797 68.45C100.179 69.2666 99.553 71.1989 100.38 72.7746C100.403 72.8206 100.439 72.8666 100.462 72.9241C99.6357 73.6487 98.9154 74.4883 98.3131 75.3969C98.2541 75.3739 98.2069 75.3624 98.1478 75.3394C96.4237 74.7988 94.5579 75.7419 94.0147 77.4211C93.4597 79.1119 94.428 80.9176 96.1521 81.4466C96.2111 81.4581 96.2584 81.4812 96.3174 81.4927C96.2702 82.5738 96.3647 83.6664 96.6008 84.7245C96.5418 84.7476 96.4946 84.7706 96.4473 84.7936C94.8295 85.6102 94.2036 87.5424 95.0303 89.1181C95.4318 89.8772 96.1167 90.4408 96.9551 90.7053C97.7935 90.9698 98.691 90.8893 99.4704 90.4983C99.5176 90.4753 99.5649 90.4523 99.6239 90.4178C100.368 91.2228 101.23 91.9244 102.163 92.511C102.139 92.5685 102.127 92.6145 102.104 92.672C101.832 93.4886 101.915 94.3627 102.316 95.1218C102.718 95.8809 103.403 96.4445 104.241 96.709C104.56 96.801 104.902 96.847 105.233 96.847ZM108.209 93.9372C108.091 93.9372 107.973 94.0177 107.949 94.1442C107.926 94.2707 107.902 94.3742 107.866 94.4663C107.642 95.1563 107.158 95.7199 106.497 96.0419C105.835 96.3755 105.091 96.433 104.383 96.2145C103.674 95.9959 103.096 95.5244 102.765 94.8803C102.423 94.2362 102.364 93.5116 102.588 92.8215C102.623 92.7295 102.659 92.626 102.706 92.511C102.765 92.396 102.718 92.258 102.612 92.189C101.572 91.5679 100.651 90.8088 99.8483 89.9232C99.7656 89.8312 99.6121 89.8082 99.5058 89.8772C99.3995 89.9462 99.3051 90.0037 99.2224 90.0497C98.5611 90.3832 97.8172 90.4408 97.1086 90.2222C96.4001 90.0037 95.8215 89.5321 95.4908 88.8881C94.7941 87.5654 95.3255 85.9322 96.6835 85.2421C96.778 85.1961 96.8724 85.1501 96.9905 85.1156C97.1086 85.0696 97.1795 84.9431 97.1558 84.8166C96.8724 83.6664 96.778 82.4933 96.8488 81.3086C96.8606 81.1821 96.7662 81.0671 96.6363 81.0441C96.5064 81.0211 96.4001 80.9981 96.3056 80.9636C94.8531 80.515 94.0383 78.9853 94.4989 77.5707C94.9594 76.156 96.53 75.3624 97.9825 75.811C98.0769 75.8455 98.1832 75.88 98.3013 75.926C98.4194 75.9835 98.5611 75.9375 98.632 75.834C99.2696 74.8218 100.049 73.9247 100.958 73.1426C101.053 73.0621 101.076 72.9126 101.006 72.8091C100.935 72.7056 100.876 72.6136 100.828 72.533C100.132 71.2104 100.663 69.5772 102.021 68.8871C102.682 68.5536 103.426 68.4961 104.135 68.7146C104.843 68.9331 105.422 69.4047 105.753 70.0487C105.8 70.1408 105.847 70.2328 105.883 70.3478C105.93 70.4628 106.06 70.5318 106.19 70.5088C107.371 70.2328 108.575 70.1293 109.791 70.2098C109.921 70.2098 110.039 70.1293 110.063 70.0027C110.087 69.8762 110.11 69.7727 110.146 69.6807C110.606 68.266 112.177 67.4724 113.629 67.921C115.082 68.3695 115.896 69.8992 115.436 71.3139C115.401 71.4059 115.365 71.5094 115.318 71.6244C115.259 71.7395 115.306 71.8775 115.412 71.9465C116.452 72.5676 117.373 73.3266 118.176 74.2123C118.258 74.3043 118.412 74.3273 118.518 74.2583C118.624 74.1893 118.719 74.1317 118.801 74.0857C119.463 73.7522 120.207 73.6947 120.915 73.9132C121.624 74.1317 122.202 74.6033 122.533 75.2474C123.23 76.57 122.698 78.2032 121.34 78.8933C121.246 78.9393 121.151 78.9853 121.033 79.0198C120.915 79.0659 120.844 79.1924 120.868 79.3189C121.151 80.469 121.246 81.6422 121.175 82.8268C121.163 82.9533 121.258 83.0683 121.388 83.0913C121.506 83.1143 121.612 83.1374 121.718 83.1719C123.171 83.6204 123.986 85.1501 123.525 86.5648C123.064 87.9794 121.494 88.773 120.041 88.3245C119.947 88.29 119.841 88.2555 119.723 88.2095C119.604 88.152 119.463 88.198 119.392 88.313C118.754 89.3251 117.975 90.2222 117.066 91.0043C116.971 91.0848 116.948 91.2344 117.018 91.3379C117.089 91.4414 117.148 91.5334 117.195 91.6139C117.892 92.9366 117.361 94.5698 116.003 95.2599C115.341 95.5934 114.598 95.6509 113.889 95.4324C113.18 95.2138 112.602 94.7423 112.271 94.0982C112.224 94.0062 112.177 93.9142 112.141 93.7992C112.094 93.6842 111.964 93.6151 111.834 93.6381C110.653 93.9142 109.449 94.0177 108.233 93.9372C108.221 93.9372 108.209 93.9372 108.209 93.9372ZM109.012 87.8184C109.945 87.8184 110.866 87.5999 111.716 87.1743C113.11 86.4728 114.149 85.2766 114.621 83.8159C115.094 82.3553 114.964 80.8026 114.243 79.4339C113.523 78.0767 112.295 77.0646 110.795 76.6046C107.701 75.6499 104.383 77.3176 103.391 80.331C102.919 81.7917 103.048 83.3444 103.769 84.7131C104.489 86.0702 105.717 87.0823 107.217 87.5424C107.807 87.7264 108.41 87.8184 109.012 87.8184ZM109.012 76.8461C109.555 76.8461 110.098 76.9266 110.642 77.0876C112.011 77.5132 113.121 78.4333 113.783 79.6754C114.444 80.9176 114.562 82.3323 114.125 83.6664C113.688 85.0006 112.744 86.0817 111.468 86.7258C110.193 87.3699 108.74 87.4849 107.371 87.0593C106.001 86.6338 104.891 85.7137 104.229 84.4715C103.568 83.2294 103.45 81.8147 103.887 80.4805C104.619 78.2608 106.733 76.8461 109.012 76.8461Z" fill="black"/>
<path d="M84.6618 70.6239C84.6854 70.5548 84.709 70.4858 84.7444 70.4168C84.095 70.0258 83.5281 69.5542 83.0322 69.0137C82.9731 69.0597 82.9141 69.0942 82.8432 69.1287C81.9457 69.5772 80.8357 69.2437 80.3752 68.3581C79.9146 67.484 80.2571 66.4028 81.1664 65.9543C81.2372 65.9198 81.2962 65.8968 81.3671 65.8623C81.19 65.1607 81.1309 64.4361 81.1782 63.7C81.1073 63.6885 81.0365 63.6655 80.9656 63.6425C79.9973 63.3435 79.4659 62.3428 79.7729 61.3997C80.0799 60.4566 81.1073 59.939 82.0756 60.2381C82.1465 60.2611 82.2173 60.2841 82.2882 60.3186C82.6897 59.686 83.1739 59.1339 83.7289 58.6509C83.6816 58.5934 83.6462 58.5359 83.6108 58.4669C83.1502 57.5927 83.4927 56.5116 84.402 56.0631C85.2994 55.6145 86.4095 55.948 86.87 56.8337C86.9055 56.9027 86.9291 56.9602 86.9645 57.0292C87.6848 56.8567 88.4288 56.7992 89.1845 56.8452C89.1964 56.7761 89.22 56.7071 89.2436 56.6381C89.5506 55.695 90.578 55.1775 91.5463 55.4765C92.5146 55.7755 93.0461 56.7761 92.739 57.7193C92.7154 57.7883 92.6918 57.8573 92.6564 57.9263C93.3059 58.3173 93.8727 58.7889 94.3686 59.3295C94.4277 59.2835 94.4867 59.249 94.5576 59.2144C95.455 58.7659 96.5651 59.0994 97.0256 59.985C97.4862 60.8592 97.1437 61.9403 96.2345 62.3888C96.1636 62.4233 96.1045 62.4463 96.0337 62.4809C96.2108 63.1824 96.2699 63.907 96.2226 64.6431C96.2935 64.6546 96.3643 64.6776 96.4352 64.7006C97.4035 64.9997 97.9349 66.0003 97.6279 66.9434C97.3208 67.8865 96.2935 68.4041 95.3251 68.105C95.2543 68.082 95.1835 68.059 95.1126 68.0245C94.7111 68.6571 94.2269 69.2092 93.6719 69.6922C93.7191 69.7497 93.7546 69.8073 93.79 69.8763C94.2505 70.7504 93.9081 71.8315 92.9988 72.2801C92.1013 72.7286 90.9913 72.3951 90.5308 71.5095C90.4953 71.4405 90.4717 71.383 90.4363 71.3139C89.716 71.4865 88.972 71.544 88.2162 71.498C88.2044 71.567 88.1808 71.636 88.1572 71.705C87.8502 72.6481 86.8228 73.1657 85.8545 72.8666C84.8861 72.5676 84.3548 71.567 84.6618 70.6239ZM91.936 65.1837C92.5028 63.4355 91.5109 61.5722 89.7278 61.0202C87.9328 60.4681 86.0198 61.4342 85.453 63.1709C84.8861 64.9076 85.8781 66.7824 87.6612 67.3345C89.4562 67.8865 91.3692 66.9204 91.936 65.1837Z" fill="white"/>
<path d="M86.4099 73.2117C87.2955 73.2117 88.1222 72.6596 88.4056 71.7855C88.4056 71.774 88.4056 71.774 88.4174 71.7625C89.0432 71.7855 89.6691 71.728 90.2832 71.613C90.2832 71.6245 90.295 71.6245 90.295 71.636C90.5548 72.119 90.9917 72.4756 91.5231 72.6481C92.0545 72.8091 92.6213 72.7631 93.1173 72.5216C94.1447 72.004 94.5462 70.7734 94.0148 69.7727C94.0148 69.7612 94.003 69.7612 94.003 69.7497C94.4635 69.3357 94.865 68.8641 95.2075 68.3581C95.2193 68.3581 95.2193 68.3581 95.2311 68.3696C96.3293 68.7146 97.5102 68.1165 97.8644 67.0469C98.2187 65.9773 97.6047 64.8271 96.5064 64.4821C96.4946 64.4821 96.4946 64.4821 96.4828 64.4706C96.5064 63.861 96.4474 63.2514 96.3293 62.6534C96.3411 62.6534 96.3411 62.6419 96.3529 62.6419C97.3803 62.1243 97.7818 60.8936 97.2504 59.893C96.9906 59.41 96.5537 59.0534 96.0223 58.8809C95.4909 58.7199 94.9241 58.7659 94.4281 59.0074C94.4163 59.0074 94.4163 59.0189 94.4045 59.0189C93.9794 58.5704 93.4952 58.1793 92.9756 57.8458C92.9756 57.8343 92.9756 57.8343 92.9874 57.8228C93.1527 57.3052 93.1055 56.7531 92.8575 56.2701C92.5977 55.787 92.1608 55.4305 91.6294 55.2579C91.098 55.0969 90.5312 55.1429 90.0352 55.3845C89.5392 55.6375 89.1732 56.063 88.996 56.5806C88.996 56.5921 88.996 56.5921 88.9842 56.6036C88.3583 56.5806 87.7325 56.6381 87.1184 56.7531C87.1184 56.7416 87.1066 56.7416 87.1066 56.7301C86.8468 56.2471 86.4099 55.8905 85.8785 55.718C85.3471 55.557 84.7802 55.603 84.2843 55.8445C83.2569 56.3621 82.8554 57.5927 83.3868 58.5934C83.3868 58.6049 83.3986 58.6049 83.3986 58.6164C82.9381 59.0304 82.5366 59.502 82.1941 60.008C82.1823 60.008 82.1823 60.008 82.1705 59.9965C81.0723 59.6515 79.8914 60.2496 79.5371 61.3192C79.3718 61.8368 79.419 62.3888 79.667 62.8719C79.9268 63.3549 80.3637 63.7115 80.8951 63.884C80.9069 63.884 80.9069 63.884 80.9187 63.8955C80.8951 64.5051 80.9542 65.1147 81.0723 65.7127C81.0605 65.7127 81.0605 65.7242 81.0487 65.7242C80.0213 66.2418 79.6198 67.4725 80.1512 68.4731C80.411 68.9561 80.8479 69.3127 81.3793 69.4852C81.9107 69.6462 82.4775 69.6002 82.9735 69.3587C82.9853 69.3587 82.9853 69.3472 82.9971 69.3472C83.4222 69.7957 83.9064 70.1868 84.426 70.5203C84.426 70.5318 84.426 70.5318 84.4142 70.5433C84.2489 71.0609 84.2961 71.613 84.5441 72.096C84.8039 72.5791 85.2408 72.9356 85.7722 73.1081C85.9848 73.1772 86.1973 73.2117 86.4099 73.2117ZM88.2048 71.2449C88.0867 71.2449 87.9686 71.3254 87.945 71.4519C87.9332 71.5094 87.9214 71.5785 87.8978 71.636C87.638 72.4411 86.7523 72.8896 85.9139 72.6366C85.5124 72.5101 85.1817 72.2455 84.9928 71.8775C84.8039 71.5094 84.7684 71.0954 84.8865 70.7043C84.9102 70.6468 84.9338 70.5893 84.9574 70.5318C85.0164 70.4168 84.9692 70.2788 84.8629 70.2098C84.2489 69.8417 83.6938 69.3817 83.2215 68.8526C83.1388 68.7606 82.9853 68.7376 82.879 68.8066C82.8318 68.8411 82.7728 68.8756 82.7137 68.8986C82.3358 69.0827 81.9107 69.1172 81.5092 69.0021C81.1077 68.8756 80.7771 68.6111 80.5881 68.243C80.1866 67.4955 80.4936 66.5638 81.2612 66.1728C81.3203 66.1383 81.3793 66.1153 81.4384 66.1038C81.5564 66.0578 81.6273 65.9313 81.6037 65.8047C81.4383 65.1147 81.3793 64.4131 81.4265 63.7115C81.4383 63.585 81.3439 63.47 81.214 63.447C81.1549 63.4355 81.0841 63.424 81.025 63.4009C80.6235 63.2744 80.2929 63.0099 80.1039 62.6419C79.915 62.2738 79.8796 61.8598 79.9977 61.4687C80.2575 60.6636 81.1431 60.2151 81.9815 60.4681C82.0406 60.4911 82.0996 60.5141 82.1587 60.5371C82.2768 60.5946 82.4185 60.5486 82.4893 60.4451C82.8672 59.847 83.3396 59.3064 83.8828 58.8349C83.9773 58.7544 84.0009 58.6049 83.93 58.5013C83.8946 58.4553 83.8592 58.3978 83.8356 58.3403C83.4341 57.5927 83.7411 56.6611 84.5087 56.2701C84.8865 56.086 85.3117 56.0515 85.7132 56.1666C86.1147 56.2931 86.4453 56.5576 86.6342 56.9257C86.6697 56.9832 86.6933 57.0407 86.7051 57.0982C86.7523 57.2132 86.8822 57.2822 87.0121 57.2592C87.7207 57.0982 88.441 57.0407 89.1613 57.0867C89.2912 57.0867 89.4093 57.0062 89.4329 56.8796C89.4447 56.8221 89.4565 56.7531 89.4802 56.6956C89.6101 56.3046 89.8817 55.9825 90.2596 55.7985C90.6374 55.6145 91.0626 55.58 91.4641 55.695C91.8656 55.8215 92.1962 56.086 92.3852 56.4541C92.5741 56.8221 92.6095 57.2362 92.4914 57.6272C92.4678 57.6847 92.4442 57.7423 92.4206 57.7998C92.3615 57.9148 92.4088 58.0528 92.5151 58.1218C93.1291 58.4898 93.6841 58.9499 94.1683 59.479C94.251 59.571 94.4045 59.594 94.5107 59.525C94.558 59.4905 94.617 59.456 94.6761 59.433C95.0539 59.2489 95.4791 59.2144 95.8806 59.3294C96.2821 59.456 96.6127 59.7205 96.8017 60.0885C97.2032 60.8361 96.8961 61.7677 96.1286 62.1588C96.0695 62.1933 96.0105 62.2163 95.9514 62.2278C95.8333 62.2738 95.7625 62.4003 95.7861 62.5268C95.9514 63.2054 96.0105 63.9185 95.9632 64.6201C95.9514 64.7466 96.0459 64.8616 96.1758 64.8846C96.2349 64.8961 96.2939 64.9076 96.3647 64.9306C97.1914 65.1837 97.6519 66.0463 97.3921 66.8629C97.1323 67.668 96.2467 68.1165 95.4082 67.8635C95.3492 67.8405 95.2901 67.8175 95.2311 67.7945C95.113 67.737 94.9713 67.783 94.9004 67.8865C94.5226 68.4846 94.0502 69.0251 93.507 69.4967C93.4125 69.5772 93.3889 69.7267 93.4598 69.8302C93.4952 69.8762 93.5306 69.9338 93.5542 69.9913C93.9557 70.7389 93.6487 71.6705 92.8811 72.0615C92.5032 72.2455 92.0781 72.28 91.6766 72.165C91.2751 72.0385 90.9445 71.774 90.7555 71.4059C90.7201 71.3484 90.6965 71.2909 90.6847 71.2334C90.6375 71.1184 90.5075 71.0494 90.3776 71.0724C89.6809 71.2334 88.9488 71.2909 88.2284 71.2449C88.2166 71.2449 88.2166 71.2449 88.2048 71.2449ZM88.689 67.7485C89.2676 67.7485 89.8462 67.6105 90.3658 67.3459C91.2397 66.9089 91.8774 66.1613 92.1726 65.2527C92.7866 63.3779 91.712 61.3652 89.7872 60.7671C87.8624 60.1691 85.7958 61.2157 85.1818 63.0904C84.5677 64.9651 85.6423 66.9779 87.5671 67.576C87.945 67.691 88.3229 67.7485 88.689 67.7485ZM91.6884 65.1032C91.4286 65.8853 90.8854 66.5178 90.1297 66.8974C89.3857 67.2769 88.5355 67.3459 87.7325 67.0929C86.0792 66.5753 85.1581 64.8501 85.6895 63.2399C86.2209 61.6297 87.9923 60.7326 89.6455 61.2502C91.2987 61.7677 92.2198 63.493 91.6884 65.1032Z" fill="black"/>
<path d="M225.815 226.882H138.489C133.765 226.882 129.904 223.121 129.904 218.521V49.8063C129.904 45.2057 133.765 41.4448 138.489 41.4448H225.815C230.539 41.4448 234.4 45.2057 234.4 49.8063V218.509C234.4 223.121 230.539 226.882 225.815 226.882Z" fill="white"/>
<path d="M138.489 227.135H225.815C230.692 227.135 234.66 223.271 234.66 218.521V49.8063C234.66 45.0562 230.692 41.1918 225.815 41.1918H138.489C133.612 41.1918 129.644 45.0562 129.644 49.8063V218.509C129.644 223.271 133.612 227.135 138.489 227.135ZM225.815 41.6978C230.409 41.6978 234.141 45.3323 234.141 49.8063V218.509C234.141 222.983 230.409 226.618 225.815 226.618H138.489C133.895 226.618 130.164 222.983 130.164 218.509V49.8063C130.164 45.3323 133.895 41.6978 138.489 41.6978H225.815Z" fill="black"/>
<path d="M222.769 220.993H141.536C137.958 220.993 135.029 218.141 135.029 214.656V53.1647C135.029 49.6798 137.958 46.8275 141.536 46.8275H222.769C226.347 46.8275 229.275 49.6798 229.275 53.1647V214.668C229.275 218.141 226.347 220.993 222.769 220.993Z" fill="white"/>
<path d="M141.536 221.246H222.769C226.5 221.246 229.535 218.291 229.535 214.656V53.1532C229.535 49.5188 226.5 46.5629 222.769 46.5629H141.536C137.804 46.5629 134.769 49.5188 134.769 53.1532V214.656C134.769 218.291 137.804 221.246 141.536 221.246ZM222.769 47.069C226.217 47.069 229.016 49.7948 229.016 53.1532V214.656C229.016 218.015 226.217 220.74 222.769 220.74H141.536C138.087 220.74 135.289 218.015 135.289 214.656V53.1532C135.289 49.7948 138.087 47.069 141.536 47.069H222.769Z" fill="black"/>
<path d="M172.357 52.3252H193.129C193.271 52.3252 193.389 52.2101 193.389 52.0721C193.389 51.9341 193.271 51.8191 193.129 51.8191H172.357C172.215 51.8191 172.097 51.9341 172.097 52.0721C172.097 52.2101 172.215 52.3252 172.357 52.3252Z" fill="black"/>
<path d="M158.116 195.529C158.116 190.239 162.52 185.949 167.952 185.949H196.364C201.796 185.949 206.201 190.239 206.201 195.529C206.201 200.82 201.796 205.11 196.364 205.11H167.952C162.52 205.11 158.116 200.82 158.116 195.529Z" fill="#5479F7"/>
<path d="M218.029 75.8049H146.287V161.491H218.029V75.8049Z" stroke="black"/>
<path d="M176.195 66.2418H218.518C218.659 66.2418 218.777 66.1268 218.777 65.9888C218.777 65.8508 218.659 65.7358 218.518 65.7358H176.195C176.053 65.7358 175.935 65.8508 175.935 65.9888C175.947 66.1268 176.053 66.2418 176.195 66.2418Z" fill="black"/>
<path d="M145.774 173.987H162.531C162.673 173.987 162.791 173.872 162.791 173.734C162.791 173.596 162.673 173.481 162.531 173.481H145.774C145.633 173.481 145.515 173.596 145.515 173.734C145.515 173.872 145.633 173.987 145.774 173.987Z" fill="black"/>
<path d="M85.8334 28.5862H144.642C150.794 28.5862 155.789 33.4513 155.789 39.4435C155.789 45.4358 150.794 50.3009 144.642 50.3009H85.8334C79.681 50.3009 74.6859 45.4358 74.6859 39.4435C74.6859 33.4513 79.681 28.5862 85.8334 28.5862Z" fill="#5479F7"/>
<path d="M145.809 72.6481C145.833 72.6481 145.856 72.6481 145.88 72.6481C146.092 72.6481 146.27 72.4755 146.27 72.2685C146.27 72.0615 146.092 71.889 145.88 71.889C145.856 71.889 145.833 71.889 145.821 71.889C141.381 71.889 137 69.7382 134.354 66.2763C131.697 62.7914 130.859 58.0528 132.158 53.9008C132.217 53.7052 132.111 53.4867 131.898 53.4292C131.697 53.3717 131.473 53.4752 131.414 53.6822C130.032 58.0528 130.918 63.0559 133.729 66.7363C136.504 70.3823 141.133 72.6481 145.809 72.6481Z" fill="#5479F7"/>
<path d="M85.9878 36.8097H96.9228C97.1354 36.8097 97.3125 36.6372 97.3125 36.4301C97.3125 36.2231 97.1354 36.0506 96.9228 36.0506H85.9878C85.7753 36.0506 85.5981 36.2231 85.5981 36.4301C85.5981 36.6372 85.7753 36.8097 85.9878 36.8097Z" fill="white"/>
<path d="M104.695 36.8097H145.352C145.565 36.8097 145.742 36.6372 145.742 36.4301C145.742 36.2231 145.565 36.0506 145.352 36.0506H104.695C104.482 36.0506 104.305 36.2231 104.305 36.4301C104.305 36.6372 104.482 36.8097 104.695 36.8097Z" fill="white"/>
<path d="M85.99 41.8818H123.778C123.991 41.8818 124.168 41.7093 124.168 41.5023C124.168 41.2953 123.991 41.1227 123.778 41.1227H85.99C85.7774 41.1227 85.6003 41.2953 85.6003 41.5023C85.6003 41.7093 85.7774 41.8818 85.99 41.8818Z" fill="white"/>
<path d="M132.292 41.8818H145.352C145.565 41.8818 145.742 41.7093 145.742 41.5023C145.742 41.2953 145.565 41.1227 145.352 41.1227H132.304C132.091 41.1227 131.914 41.2953 131.914 41.5023C131.914 41.7093 132.079 41.8818 132.292 41.8818Z" fill="white"/>
<path d="M165.018 154.636H97.538V175.201H165.018V154.636Z" fill="white" stroke="black"/>
<path d="M126.452 169.686C126.523 169.686 126.582 169.663 126.641 169.617C126.747 169.513 126.747 169.352 126.641 169.26L122.201 164.936L126.641 160.611C126.747 160.508 126.747 160.347 126.641 160.255C126.535 160.151 126.369 160.151 126.275 160.255L121.646 164.763C121.54 164.867 121.54 165.028 121.646 165.12L126.275 169.628C126.31 169.663 126.381 169.686 126.452 169.686Z" fill="black"/>
<path d="M136.112 169.686C136.183 169.686 136.242 169.663 136.301 169.617L140.93 165.108C141.036 165.005 141.036 164.844 140.93 164.752L136.301 160.243C136.195 160.139 136.029 160.139 135.935 160.243C135.829 160.346 135.829 160.508 135.935 160.6L140.375 164.924L135.935 169.249C135.829 169.352 135.829 169.513 135.935 169.605C135.97 169.663 136.041 169.686 136.112 169.686Z" fill="black"/>
<path d="M133.737 169.789C133.772 169.789 133.819 169.778 133.855 169.766C133.985 169.697 134.032 169.548 133.973 169.421L129.143 160.185C129.084 160.059 128.919 160.013 128.789 160.07C128.659 160.139 128.612 160.289 128.671 160.415L133.501 169.651C133.56 169.743 133.642 169.789 133.737 169.789Z" fill="black"/>
<path d="M210.688 90.0836H193.486C192.6 90.0836 191.887 89.2576 191.887 88.233C191.887 87.2083 192.6 86.3823 193.486 86.3823H210.688C211.573 86.3823 212.287 87.2083 212.287 88.233C212.278 89.2576 211.564 90.0836 210.688 90.0836Z" fill="white"/>
<path d="M193.486 90.3136H210.688C211.682 90.3136 212.486 89.3831 212.486 88.233C212.486 87.0828 211.682 86.1523 210.688 86.1523H193.486C192.492 86.1523 191.688 87.0828 191.688 88.233C191.688 89.3831 192.492 90.3136 193.486 90.3136ZM210.688 86.6228C211.456 86.6228 212.089 87.3442 212.089 88.2434C212.089 89.1426 211.465 89.864 210.688 89.864H193.486C192.718 89.864 192.086 89.1426 192.086 88.2434C192.086 87.3442 192.709 86.6228 193.486 86.6228H210.688Z" fill="black"/>
<path d="M210.688 103.167H197.56C196.675 103.167 195.961 102.341 195.961 101.316C195.961 100.291 196.675 99.4653 197.56 99.4653H210.688C211.573 99.4653 212.287 100.291 212.287 101.316C212.278 102.341 211.564 103.167 210.688 103.167Z" fill="white"/>
<path d="M197.552 103.397H210.688C211.682 103.397 212.486 102.466 212.486 101.316C212.486 100.166 211.682 99.2352 210.688 99.2352H197.561C196.567 99.2352 195.763 100.166 195.763 101.316C195.763 102.466 196.567 103.397 197.552 103.397ZM210.688 99.7057C211.456 99.7057 212.089 100.427 212.089 101.326C212.089 102.215 211.465 102.947 210.688 102.947H197.561C196.793 102.947 196.16 102.226 196.16 101.326C196.16 100.438 196.784 99.7057 197.561 99.7057H210.688Z" fill="black"/>
<path d="M210.688 117.885H200.876C199.991 117.885 199.277 117.059 199.277 116.034C199.277 115.01 199.991 114.184 200.876 114.184H210.688C211.573 114.184 212.287 115.01 212.287 116.034C212.287 117.059 211.573 117.885 210.688 117.885Z" fill="white"/>
<path d="M200.877 118.115H210.688C211.682 118.115 212.486 117.184 212.486 116.034C212.486 114.884 211.682 113.954 210.688 113.954H200.877C199.883 113.954 199.079 114.884 199.079 116.034C199.088 117.184 199.892 118.115 200.877 118.115ZM210.688 114.424C211.456 114.424 212.089 115.146 212.089 116.045C212.089 116.944 211.465 117.665 210.688 117.665H200.877C200.109 117.665 199.476 116.944 199.476 116.045C199.476 115.146 200.1 114.424 200.877 114.424H210.688Z" fill="black"/>
<path d="M210.688 131.795H200.876C199.991 131.795 199.277 130.969 199.277 129.945C199.277 128.92 199.991 128.094 200.876 128.094H210.688C211.573 128.094 212.287 128.92 212.287 129.945C212.287 130.969 211.573 131.795 210.688 131.795Z" fill="white"/>
<path d="M200.877 132.025H210.688C211.682 132.025 212.486 131.095 212.486 129.945C212.486 128.794 211.682 127.864 210.688 127.864H200.877C199.883 127.864 199.079 128.794 199.079 129.945C199.088 131.095 199.892 132.025 200.877 132.025ZM210.688 128.324C211.456 128.324 212.089 129.045 212.089 129.945C212.089 130.833 211.465 131.565 210.688 131.565H200.877C200.109 131.565 199.476 130.844 199.476 129.945C199.476 129.056 200.1 128.324 200.877 128.324H210.688Z" fill="black"/>
<path d="M187.604 90.0836H174.476C173.591 90.0836 172.877 89.2576 172.877 88.233C172.877 87.2083 173.591 86.3823 174.476 86.3823H187.604C188.489 86.3823 189.203 87.2083 189.203 88.233C189.203 89.2576 188.48 90.0836 187.604 90.0836Z" fill="#5479F7"/>
<path d="M187.561 103.167H155.424C154.539 103.167 153.825 102.341 153.825 101.316C153.825 100.291 154.539 99.4653 155.424 99.4653H187.561C188.446 99.4653 189.16 100.291 189.16 101.316C189.151 102.341 188.437 103.167 187.561 103.167Z" fill="#5479F7"/>
<path d="M190.387 117.885H182.69C181.804 117.885 181.09 117.059 181.09 116.034C181.09 115.01 181.804 114.184 182.69 114.184H190.387C191.273 114.184 191.986 115.01 191.986 116.034C191.977 117.059 191.264 117.885 190.387 117.885Z" fill="#5479F7"/>
<path d="M195.002 131.795H181.875C180.989 131.795 180.276 130.969 180.276 129.945C180.276 128.92 180.989 128.094 181.875 128.094H195.002C195.888 128.094 196.602 128.92 196.602 129.945C196.593 130.969 195.879 131.795 195.002 131.795Z" fill="#5479F7"/>
<path d="M168.596 90.0836H155.469C154.583 90.0836 153.869 89.2576 153.869 88.233C153.869 87.2083 154.583 86.3823 155.469 86.3823H168.596C169.482 86.3823 170.195 87.2083 170.195 88.233C170.195 89.2576 169.482 90.0836 168.596 90.0836Z" fill="white"/>
<path d="M155.469 90.3136H168.597C169.59 90.3136 170.395 89.3831 170.395 88.233C170.395 87.0828 169.59 86.1523 168.597 86.1523H155.469C154.475 86.1523 153.671 87.0828 153.671 88.233C153.671 89.3831 154.475 90.3136 155.469 90.3136ZM168.597 86.6228C169.365 86.6228 169.997 87.3442 169.997 88.2434C169.997 89.1426 169.374 89.864 168.597 89.864H155.469C154.701 89.864 154.069 89.1426 154.069 88.2434C154.069 87.3442 154.692 86.6228 155.469 86.6228H168.597Z" fill="black"/>
<path d="M173.93 117.885H155.373C154.487 117.885 153.774 117.059 153.774 116.034C153.774 115.01 154.487 114.184 155.373 114.184H173.93C174.816 114.184 175.529 115.01 175.529 116.034C175.529 117.059 174.807 117.885 173.93 117.885Z" fill="white"/>
<path d="M155.373 118.115H173.931C174.924 118.115 175.729 117.184 175.729 116.034C175.729 114.884 174.924 113.954 173.931 113.954H155.373C154.379 113.954 153.575 114.884 153.575 116.034C153.575 117.184 154.379 118.115 155.373 118.115ZM173.931 114.424C174.699 114.424 175.331 115.146 175.331 116.045C175.331 116.944 174.708 117.665 173.931 117.665H155.373C154.605 117.665 153.973 116.944 153.973 116.045C153.973 115.146 154.596 114.424 155.373 114.424H173.931Z" fill="black"/>
<path d="M173.264 131.943H154.862C154.281 131.943 153.813 131.03 153.813 129.898C153.813 128.767 154.281 127.854 154.862 127.854H173.264C173.844 127.854 174.312 128.767 174.312 129.898C174.307 131.03 173.839 131.943 173.264 131.943Z" fill="#5479F7"/>
<path d="M230.947 282.304C213.594 265.404 213.594 238.002 230.947 221.101C248.299 204.201 276.433 204.201 293.786 221.101C311.138 238.002 311.138 265.404 293.786 282.304C276.433 299.205 248.299 299.205 230.947 282.304Z" fill="white"/>
<path d="M262.366 295.293C287.045 295.293 307.139 275.737 307.139 251.686C307.139 227.635 287.06 208.079 262.366 208.079C237.687 208.079 217.593 227.635 217.593 251.686C217.593 275.737 237.672 295.293 262.366 295.293ZM262.366 208.753C286.676 208.753 306.462 228.009 306.462 251.701C306.462 275.393 286.691 294.649 262.366 294.649C238.041 294.649 218.27 275.393 218.27 251.701C218.27 228.009 238.056 208.753 262.366 208.753Z" fill="black"/>
<path d="M260.104 279.289C260.12 279.289 260.12 279.289 260.135 279.289C280.875 277.82 285.753 267.705 285.953 267.271C286.029 267.106 285.953 266.911 285.783 266.836C285.614 266.761 285.414 266.836 285.337 267.001C285.291 267.106 280.383 277.191 260.089 278.63C259.904 278.645 259.766 278.794 259.781 278.989C259.781 279.154 259.92 279.289 260.104 279.289Z" fill="black"/>
<path d="M315.799 338.766C315.845 338.766 315.891 338.751 315.938 338.736C316.107 338.661 316.184 338.466 316.107 338.301L291.136 284.789C291.059 284.624 290.859 284.549 290.689 284.624C290.52 284.699 290.443 284.893 290.52 285.058L315.491 338.571C315.538 338.691 315.661 338.766 315.799 338.766Z" fill="black"/>
<path d="M208.933 338.766C209.056 338.766 209.18 338.691 209.241 338.571L234.212 285.058C234.289 284.893 234.212 284.699 234.043 284.624C233.874 284.549 233.674 284.624 233.597 284.789L208.626 338.301C208.549 338.466 208.626 338.661 208.795 338.736C208.841 338.765 208.887 338.766 208.933 338.766Z" fill="black"/>
<path d="M174.098 345.823H224.887C231.687 345.823 236.365 339.17 233.918 332.996L205.362 261.127H152.696L181.16 332.801L172.344 341.927C170.944 343.396 172.006 345.823 174.098 345.823Z" fill="white"/>
<path d="M174.097 346.153H224.886C228.194 346.153 231.286 344.565 233.148 341.912C235.009 339.26 235.425 335.873 234.225 332.876L205.669 261.007C205.623 260.887 205.499 260.797 205.346 260.797H152.68C152.572 260.797 152.464 260.857 152.403 260.947C152.341 261.037 152.326 261.157 152.372 261.247L180.759 332.726L172.097 341.703C171.343 342.482 171.143 343.576 171.589 344.565C172.035 345.539 172.989 346.153 174.097 346.153ZM205.13 261.441L233.594 333.101C234.717 335.948 234.363 339.005 232.594 341.523C230.825 344.04 228.024 345.479 224.886 345.479H174.082C173.251 345.479 172.543 345.014 172.22 344.28C171.897 343.546 172.035 342.722 172.605 342.137L181.421 333.026C181.513 332.936 181.544 332.801 181.482 332.681L153.188 261.456H205.13V261.441Z" fill="black"/>
<path d="M275.891 237.974L271.275 250.517C265.905 265.068 251.735 274.778 235.857 274.778H191.176L158.435 340.069C156.512 343.905 152.527 346.333 148.142 346.333H94.7995C93.2916 346.333 92.6608 344.46 93.8763 343.591L108.139 333.476L139.326 262.251C145.773 247.52 160.62 237.974 177.067 237.974H275.891Z" fill="white"/>
<path d="M94.7986 346.663H148.157C152.634 346.663 156.788 344.13 158.742 340.219L191.375 275.108H235.84C251.811 275.108 266.181 265.263 271.582 250.622L276.198 238.079C276.228 237.974 276.213 237.87 276.151 237.78C276.09 237.69 275.982 237.645 275.874 237.645H177.051C160.45 237.645 145.51 247.25 139.002 262.131L107.846 333.266L93.66 343.321C92.9831 343.8 92.7061 344.61 92.9677 345.389C93.2446 346.168 93.9524 346.663 94.7986 346.663ZM275.413 238.304L270.951 250.397C265.643 264.783 251.549 274.449 235.856 274.449H191.175C191.052 274.449 190.929 274.524 190.868 274.628L158.127 339.919C156.28 343.606 152.357 345.988 148.141 345.988H94.7986C94.1524 345.988 93.7678 345.569 93.6447 345.164C93.5062 344.774 93.5524 344.205 94.0909 343.83L108.354 333.715C108.4 333.685 108.446 333.64 108.461 333.58L139.648 262.355C146.049 247.73 160.742 238.274 177.082 238.274H275.413V238.304Z" fill="black"/>
<path d="M234.441 159.437C233.195 155.705 231.118 152.049 232.641 147.793C234.18 143.462 236.149 140.271 240.549 138.652C245.888 136.704 251.92 138.982 256.597 142.159C261.274 145.336 265.336 149.457 270.475 151.869C274.121 153.577 278.152 154.357 282.06 155.376C285.968 156.41 289.923 157.773 292.938 160.426C295.938 163.078 297.8 167.274 296.631 171.05C303.724 172.654 310.078 177.779 312.232 184.552C314.386 191.325 311.786 199.492 305.631 203.284C301.277 205.966 295.831 206.311 290.692 206.116C285.538 205.921 280.337 205.247 275.275 206.206C270.567 207.09 266.136 209.338 261.336 209.532C253.335 209.862 246.319 204.422 240.98 198.608C238.288 195.686 235.703 192.314 235.411 188.403C235.164 185.047 231.179 181.51 233.303 178.783C233.041 175.171 238.919 172.834 234.441 159.437Z" fill="black"/>
<path d="M214.314 182.484L206.098 175.051L190.143 173.748C190.143 173.748 180.404 155.511 177.881 150.356C175.358 145.201 172.711 139.207 168.049 141.469C168.049 141.469 163.618 139.746 162.064 143.687C162.064 143.687 159.51 143.208 156.941 146.594C154.371 149.981 154.694 151.944 156.002 153.173C157.31 154.402 161.218 150.685 161.218 150.685L163.218 152.828C163.726 153.368 163.849 154.162 163.51 154.821C163.033 155.72 162.141 156.784 160.541 156.605C158.387 156.365 156.341 155.645 155.171 156.799C154.602 157.369 154.71 158.298 155.387 158.747C157.018 159.811 160.526 161.954 163.972 163.183C163.972 163.183 165.649 169.777 167.711 177.074C170.834 188.164 180.466 196.375 192.174 197.919L202.006 199.223L214.314 182.484Z" fill="white"/>
<path d="M202.007 199.552C202.115 199.552 202.223 199.507 202.284 199.417L214.593 182.664C214.685 182.529 214.67 182.349 214.547 182.229L206.331 174.797C206.269 174.752 206.208 174.722 206.131 174.707L190.376 173.418C189.406 171.605 180.575 155.031 178.206 150.191L177.836 149.442C175.99 145.68 174.098 141.784 171.297 140.84C170.266 140.495 169.174 140.585 168.051 141.095C167.528 140.915 165.697 140.405 164.035 141.11C163.066 141.514 162.343 142.264 161.881 143.328C161.112 143.298 158.896 143.492 156.712 146.4C154.373 149.486 154.081 151.779 155.819 153.413C157.158 154.671 160.204 152.124 161.266 151.165L163.02 153.053C163.435 153.503 163.527 154.147 163.25 154.671C162.62 155.87 161.743 156.41 160.62 156.29C160.143 156.23 159.666 156.155 159.204 156.08C157.558 155.81 156.004 155.556 154.973 156.575C154.634 156.919 154.465 157.384 154.511 157.848C154.557 158.328 154.819 158.747 155.234 159.017C156.973 160.141 160.358 162.194 163.712 163.423C163.989 164.502 165.558 170.586 167.405 177.149C170.574 188.388 180.283 196.66 192.145 198.234L201.977 199.537C201.977 199.552 201.992 199.552 202.007 199.552ZM213.87 182.529L201.854 198.878L192.222 197.604C180.621 196.061 171.128 187.969 168.035 176.984C166.005 169.777 164.312 163.168 164.297 163.093C164.266 162.988 164.189 162.898 164.081 162.868C160.727 161.67 157.312 159.602 155.573 158.478C155.327 158.328 155.173 158.073 155.142 157.788C155.111 157.504 155.204 157.234 155.404 157.039C156.188 156.26 157.512 156.485 159.05 156.724C159.512 156.799 160.004 156.874 160.496 156.934C161.881 157.084 163.066 156.395 163.804 154.971C164.204 154.207 164.066 153.263 163.466 152.618L161.466 150.476C161.404 150.416 161.312 150.371 161.22 150.371C161.127 150.356 161.035 150.401 160.973 150.461C159.45 151.914 156.958 153.637 156.219 152.948C154.773 151.584 155.096 149.576 157.188 146.804C159.604 143.612 161.958 144.017 161.973 144.017C162.143 144.047 162.297 143.957 162.358 143.807C162.758 142.788 163.404 142.099 164.251 141.724C165.912 141.02 167.866 141.754 167.897 141.769C167.989 141.799 168.082 141.799 168.174 141.754C169.189 141.26 170.128 141.17 171.036 141.469C173.559 142.324 175.405 146.085 177.175 149.741L177.544 150.491C180.052 155.585 189.714 173.703 189.822 173.897C189.868 174.002 189.976 174.062 190.099 174.077L205.931 175.366L213.87 182.529Z" fill="black"/>
<path d="M170.143 147.973C170.235 147.973 170.328 147.928 170.389 147.868C170.512 147.733 170.497 147.523 170.358 147.404C168.097 145.455 165.343 144.077 162.389 143.447C162.204 143.403 162.019 143.522 161.989 143.702C161.942 143.882 162.065 144.062 162.25 144.092C165.096 144.706 167.743 146.01 169.928 147.898C169.974 147.943 170.051 147.973 170.143 147.973Z" fill="black"/>
<path d="M174.25 148.093C174.312 148.093 174.373 148.078 174.435 148.048C174.589 147.943 174.635 147.748 174.542 147.598C172.942 145.171 170.927 143.073 168.542 141.379C168.388 141.275 168.173 141.305 168.065 141.454C167.957 141.604 167.988 141.814 168.142 141.919C170.465 143.567 172.419 145.605 173.973 147.973C174.019 148.033 174.127 148.093 174.25 148.093Z" fill="black"/>
<path d="M206.102 175.051L201.087 200.736L227.658 204.722L227.55 223.274L220.442 235.202L277.847 233.764L279.139 217.984L300.018 218.449C300.018 218.449 298.31 209.547 296.094 200.227C293.417 188.973 283.786 180.551 272 179.217C267.861 178.753 263.076 178.378 257.722 178.198C236.459 177.524 206.102 175.051 206.102 175.051Z" fill="#FF722C"/>
<path d="M220.457 235.532L277.877 234.093C278.046 234.093 278.184 233.958 278.2 233.794L279.462 218.329L300.017 218.778C300.125 218.778 300.217 218.733 300.279 218.659C300.34 218.584 300.371 218.479 300.355 218.389C300.34 218.299 298.617 209.383 296.432 200.152C293.724 188.778 283.923 180.221 272.061 178.888C267.461 178.363 262.645 178.033 257.752 177.869C236.735 177.194 206.44 174.737 206.133 174.707C205.963 174.692 205.81 174.812 205.779 174.976L200.763 200.661C200.748 200.751 200.763 200.841 200.825 200.916C200.871 200.991 200.963 201.036 201.055 201.051L227.334 204.992L227.227 223.169L220.165 235.022C220.103 235.127 220.103 235.247 220.165 235.352C220.226 235.472 220.334 235.532 220.457 235.532ZM277.554 233.449L221.057 234.858L227.857 223.439C227.888 223.394 227.904 223.334 227.904 223.274L228.011 204.722C228.011 204.557 227.888 204.422 227.719 204.393L201.486 200.451L206.379 175.396C209.61 175.651 237.827 177.899 257.721 178.528C262.599 178.678 267.399 179.022 271.969 179.547C283.554 180.851 293.124 189.197 295.77 200.302C297.694 208.409 299.263 216.276 299.617 218.119L279.154 217.669C278.985 217.669 278.815 217.804 278.815 217.969L277.554 233.449Z" fill="black"/>
<path d="M264.169 193.378C264.353 193.378 264.507 193.243 264.507 193.064C264.692 188.148 265.63 183.308 267.323 178.678C267.384 178.513 267.292 178.318 267.123 178.258C266.953 178.198 266.753 178.288 266.692 178.453C264.969 183.143 264.015 188.059 263.83 193.034C263.815 193.228 263.969 193.378 264.169 193.378Z" fill="black"/>
<path d="M235.767 190.067C235.782 190.067 235.782 190.067 235.797 190.067C235.982 190.052 236.12 189.902 236.105 189.707C235.782 185.451 236.413 181.105 237.936 177.104C237.997 176.94 237.905 176.745 237.736 176.685C237.567 176.625 237.367 176.715 237.305 176.88C235.751 180.956 235.105 185.421 235.443 189.752C235.443 189.932 235.597 190.067 235.767 190.067Z" fill="black"/>
<path d="M300.033 218.449L301.618 228.923C302.418 234.198 298.156 238.919 292.663 238.814L226.151 237.495C226.151 237.495 227.581 221.76 241.259 221.086C255.384 220.382 277.062 221.85 277.062 221.85L277.093 217.984L300.033 218.449Z" fill="white"/>
<path d="M300.031 218.778C300.215 218.778 300.369 218.629 300.369 218.449C300.369 218.269 300.231 218.119 300.031 218.119L277.09 217.654C276.906 217.654 276.752 217.804 276.752 217.984C276.752 218.164 276.89 218.314 277.09 218.314L300.031 218.778Z" fill="black"/>
<path d="M292.847 239.143C295.493 239.143 298.001 238.049 299.74 236.101C301.54 234.123 302.34 231.486 301.94 228.878L300.355 218.404C300.325 218.224 300.155 218.104 299.971 218.119C299.786 218.149 299.663 218.314 299.678 218.494L301.263 228.968C301.632 231.396 300.878 233.824 299.217 235.667C297.555 237.495 295.155 238.529 292.647 238.484L226.503 237.18C226.719 235.592 227.873 228.998 232.488 224.877C232.627 224.758 232.642 224.548 232.504 224.413C232.381 224.278 232.165 224.263 232.027 224.398C226.596 229.268 225.811 237.15 225.78 237.48C225.765 237.57 225.796 237.66 225.873 237.735C225.934 237.81 226.026 237.84 226.119 237.84L292.632 239.158C292.724 239.143 292.785 239.143 292.847 239.143Z" fill="black"/>
<path d="M282.846 222.57C283.015 222.57 283.169 222.435 283.184 222.27C283.2 222.09 283.061 221.925 282.877 221.925L277.092 221.536C276.907 221.521 276.738 221.656 276.738 221.835C276.722 222.015 276.861 222.18 277.045 222.18L282.831 222.57H282.846Z" fill="black"/>
<path d="M236.489 237.315H236.505C236.689 237.3 236.828 237.15 236.828 236.97C236.72 234.903 237.874 232.835 239.72 231.816C241.074 231.066 242.659 230.886 244.167 230.752C246.936 230.512 249.752 230.437 252.537 230.542C252.721 230.557 252.875 230.407 252.891 230.227C252.891 230.047 252.752 229.897 252.568 229.882C249.752 229.778 246.921 229.837 244.121 230.092C242.598 230.227 240.859 230.437 239.397 231.246C237.336 232.385 236.028 234.708 236.151 237.015C236.166 237.18 236.32 237.315 236.489 237.315Z" fill="black"/>
<path d="M231.796 236.776C231.996 236.776 232.135 236.626 232.135 236.431C232.073 233.869 232.981 231.261 234.642 229.268C236.304 227.275 238.735 225.866 241.32 225.402C241.505 225.372 241.628 225.192 241.597 225.012C241.566 224.832 241.381 224.713 241.197 224.743C238.458 225.237 235.873 226.736 234.119 228.833C232.365 230.946 231.396 233.704 231.473 236.416C231.458 236.626 231.611 236.776 231.796 236.776Z" fill="black"/>
<path d="M251.935 162.719L259.935 177.779L264.32 178.588C264.32 178.588 259.058 184.462 249.735 183.638C240.411 182.829 240.934 177.449 240.934 177.449L247.134 176.999L243.242 168.188L251.935 162.719Z" fill="white"/>
<path d="M251.488 184.043C259.781 184.043 264.535 178.858 264.596 178.798C264.673 178.708 264.704 178.588 264.658 178.468C264.612 178.363 264.52 178.273 264.396 178.258L260.165 177.479L252.226 162.569C252.18 162.494 252.103 162.419 252.011 162.404C251.919 162.374 251.826 162.389 251.734 162.449L243.041 167.903C242.902 167.993 242.841 168.158 242.918 168.308L246.626 176.7L240.902 177.119C240.733 177.134 240.61 177.254 240.595 177.419C240.595 177.494 240.441 179.157 241.872 180.821C243.379 182.589 246.026 183.653 249.703 183.968C250.318 184.013 250.903 184.043 251.488 184.043ZM263.643 178.798C262.212 180.116 257.319 183.968 249.78 183.308C246.272 183.009 243.795 182.019 242.41 180.401C241.487 179.322 241.318 178.243 241.287 177.749L247.164 177.314C247.272 177.299 247.364 177.254 247.426 177.149C247.487 177.059 247.487 176.939 247.441 176.85L243.656 168.293L251.795 163.183L259.642 177.929C259.688 178.018 259.781 178.078 259.873 178.093L263.643 178.798Z" fill="black"/>
<path d="M252.627 165.671C252.627 165.671 248.934 171.425 243.195 170.106C237.471 168.788 238.256 163.108 238.841 158.598C239.425 154.087 240.41 147.793 240.41 147.793C240.41 147.793 249.503 148.168 250.996 151.614C252.488 155.061 248.426 158.433 250.996 160.171C253.565 161.909 253.242 155.75 256.565 158.313C259.381 160.486 257.888 165.76 252.627 165.671Z" fill="white"/>
<path d="M244.902 170.631C249.287 170.631 252.225 166.824 252.81 166C255.779 165.985 257.441 164.307 258.026 162.733C258.657 161.01 258.164 159.122 256.78 158.058C256.056 157.504 255.426 157.279 254.856 157.369C254.025 157.504 253.518 158.283 253.072 158.987C252.718 159.542 252.379 160.066 251.964 160.156C251.748 160.201 251.487 160.126 251.195 159.916C250.117 159.182 250.394 158.178 250.979 156.455C251.487 154.956 252.071 153.263 251.302 151.495C249.733 147.898 240.794 147.493 240.409 147.478C240.24 147.464 240.086 147.598 240.055 147.763C240.04 147.823 239.055 154.102 238.486 158.568L238.47 158.702C237.901 163.078 237.132 169.057 243.102 170.436C243.748 170.571 244.332 170.631 244.902 170.631ZM252.625 165.341C252.502 165.341 252.395 165.401 252.333 165.491C252.302 165.551 248.687 171.02 243.271 169.777C237.901 168.533 238.563 163.348 239.163 158.762L239.178 158.628C239.686 154.731 240.501 149.442 240.701 148.138C242.271 148.243 249.441 148.872 250.687 151.734C251.348 153.263 250.81 154.836 250.333 156.23C249.779 157.848 249.256 159.392 250.794 160.441C251.256 160.755 251.687 160.875 252.087 160.785C252.779 160.651 253.21 159.976 253.625 159.332C254.01 158.732 254.41 158.118 254.949 158.028C255.318 157.968 255.795 158.148 256.333 158.583C257.503 159.482 257.903 161.04 257.364 162.524C256.733 164.322 254.933 165.386 252.625 165.341C252.641 165.341 252.641 165.341 252.625 165.341Z" fill="black"/>
<path d="M252.563 164.232C252.686 164.232 252.794 164.172 252.855 164.067C253.178 163.513 253.532 162.943 253.994 162.494C254.471 162.029 255.056 161.774 255.579 161.804C255.763 161.819 255.917 161.67 255.933 161.49C255.948 161.31 255.794 161.16 255.609 161.145C254.902 161.115 254.132 161.43 253.517 162.014C252.994 162.524 252.625 163.123 252.271 163.723C252.178 163.887 252.225 164.082 252.394 164.172C252.44 164.217 252.501 164.232 252.563 164.232Z" fill="black"/>
<path d="M174.791 234.093H213.395L200.563 199.732H161.975L174.791 234.093Z" fill="black"/>
<path d="M225.056 229.987H173.113L174.79 234.393H227.01L225.056 229.987Z" fill="black"/>
<path d="M115.742 233.179H261.83V238.484H115.742V233.179Z" fill="black"/>
<path d="M82.49 339.26C82.6131 339.26 82.7362 339.185 82.7978 339.065L129.632 239.968C129.709 239.803 129.632 239.608 129.463 239.533C129.294 239.458 129.094 239.533 129.017 239.698L82.1823 338.795C82.1054 338.96 82.1823 339.155 82.3516 339.23C82.3977 339.245 82.4439 339.26 82.49 339.26Z" fill="black"/>
<path d="M278.846 339.26C278.892 339.26 278.938 339.245 278.984 339.23C279.154 339.155 279.231 338.96 279.154 338.795L232.319 239.698C232.242 239.533 232.042 239.458 231.873 239.533C231.704 239.608 231.627 239.803 231.704 239.968L278.538 339.065C278.6 339.185 278.723 339.26 278.846 339.26Z" fill="black"/>
</g>
<defs>
<clipPath id="clip0_2948_3739">
<rect width="314" height="290" fill="white" transform="matrix(-1 0 0 1 314 0)"/>
</clipPath>
</defs>
</svg>
