<svg width="104" height="90" viewBox="0 0 104 90" fill="none" xmlns="http://www.w3.org/2000/svg">
<g clip-path="url(#clip0_205_204)">
<mask id="mask0_205_204" style="mask-type:luminance" maskUnits="userSpaceOnUse" x="0" y="0" width="104" height="90">
<path d="M104 0H0V90H104V0Z" fill="white"/>
</mask>
<g mask="url(#mask0_205_204)">
<mask id="mask1_205_204" style="mask-type:luminance" maskUnits="userSpaceOnUse" x="0" y="0" width="104" height="90">
<path d="M104 0H0V90H104V0Z" fill="white"/>
</mask>
<g mask="url(#mask1_205_204)">
<mask id="mask2_205_204" style="mask-type:luminance" maskUnits="userSpaceOnUse" x="0" y="0" width="104" height="90">
<path d="M103.133 0.332031H0V89.9871H103.133V0.332031Z" fill="white"/>
</mask>
<g mask="url(#mask2_205_204)">
<path d="M100.734 45.1605L76.1466 87.9087H26.9857L2.39844 45.1605L26.9857 2.41211H76.1466L100.734 45.1605Z" fill="#1F75BA" stroke="white" stroke-width="4.15858"/>
</g>
</g>
</g>
<path d="M31.539 56.862V49.509L49.437 24.6H61.122L43.737 49.509L38.379 47.913H69.558V56.862H31.539ZM52.629 64.5V56.862L52.971 47.913V41.13H63.63V64.5H52.629Z" fill="white"/>
</g>
<defs>
<clipPath id="clip0_205_204">
<rect width="104" height="90" fill="white"/>
</clipPath>
</defs>
</svg>
