<svg width="431" height="303" viewBox="0 0 431 303" fill="none" xmlns="http://www.w3.org/2000/svg">
<path d="M22.9564 20.7264H20.3476V3.36139H10.8906V20.7264H8.2002V1.32324H22.8749V20.7264H22.9564Z" fill="#B3B3B3"/>
<path d="M38.7725 20.7265H36.1636V14.612H29.7231V20.7265H27.1143V6.29639H29.7231V12.5739H36.1636V6.29639H38.7725V20.7265Z" fill="#B3B3B3"/>
<path d="M73 20.7264V1.32324H79.359C81.3972 1.32324 82.9462 1.73087 84.0875 2.62766C85.2289 3.52444 85.7996 4.82886 85.7996 6.5409C85.7996 7.35616 85.555 8.08989 85.0658 8.82363C84.5767 9.55736 83.8429 9.96499 83.0277 10.2911C84.3321 10.4541 85.3104 11.0248 86.0441 11.9216C86.7779 12.8184 87.1855 13.9598 87.1855 15.1826C87.1855 16.9762 86.6148 18.2806 85.4735 19.2589C84.3321 20.2373 82.7831 20.6449 80.745 20.6449H73V20.7264ZM75.6904 9.55736H79.9297C80.908 9.55736 81.7233 9.31278 82.294 8.7421C82.9462 8.17142 83.1907 7.43769 83.1907 6.45937C83.1907 5.39954 82.8646 4.6658 82.2124 4.09512C81.5602 3.60597 80.5819 3.27986 79.359 3.27986H75.6904V9.55736ZM75.6904 11.5955V18.6067H80.745C81.9678 18.6067 82.8646 18.2806 83.5168 17.71C84.1691 17.1393 84.4952 16.2425 84.4952 15.1826C84.4952 14.1228 84.1691 13.226 83.5168 12.5738C82.8646 11.9216 81.9678 11.5955 80.745 11.514H80.5819H75.6904V11.5955Z" fill="#B3B3B3"/>
<path d="M101.126 8.33453H96.3976V20.7265H93.7888V8.33453H89.0603V6.29639H101.126V8.33453Z" fill="#B3B3B3"/>
<path d="M150.512 14.5304C150.593 16.4055 149.941 17.9545 148.637 19.1773C147.332 20.4002 145.62 21.0524 143.419 21.0524C141.218 21.0524 139.424 20.2372 138.038 18.6882C136.652 17.1392 136 15.1826 136 12.7368V9.31271C136 6.94846 136.652 4.91031 138.038 3.36132C139.424 1.81233 141.218 0.99707 143.419 0.99707C145.62 0.99707 147.332 1.56775 148.637 2.70911C149.941 3.85048 150.593 5.39947 150.512 7.35609V7.43762H147.984C147.984 6.05168 147.577 4.99184 146.761 4.17658C145.946 3.36132 144.805 2.95369 143.337 2.95369C141.87 2.95369 140.729 3.52437 139.832 4.74726C138.935 5.88862 138.527 7.35609 138.527 9.14966V12.6553C138.527 14.4488 138.935 15.9163 139.832 17.0577C140.729 18.199 141.87 18.8512 143.337 18.8512C144.805 18.8512 145.946 18.4436 146.761 17.7099C147.577 16.8946 147.984 15.8348 147.984 14.4488H150.512V14.5304Z" fill="#B3B3B3"/>
<path d="M165.92 14.0413C165.92 16.161 165.431 17.7915 164.453 19.0959C163.474 20.4003 162.088 20.971 160.295 20.971C159.398 20.971 158.664 20.8079 157.93 20.5634C157.278 20.2373 156.708 19.8296 156.218 19.259V26.2702H153.61V6.29634H155.648L156.055 8.17143C156.545 7.4377 157.115 6.94854 157.849 6.62244C158.583 6.29634 159.398 6.05176 160.295 6.05176C162.088 6.05176 163.474 6.78549 164.453 8.17143C165.431 9.55737 165.92 11.4325 165.92 13.7967V14.0413ZM163.311 13.7967C163.311 12.1662 162.985 10.7803 162.333 9.80195C161.681 8.82364 160.702 8.25296 159.479 8.25296C158.746 8.25296 158.094 8.41601 157.523 8.74211C156.952 9.06822 156.545 9.55737 156.218 10.1281V17.1393C156.545 17.71 156.952 18.1991 157.523 18.5252C158.094 18.8513 158.746 19.0144 159.479 19.0144C160.702 19.0144 161.681 18.5252 162.333 17.6284C162.985 16.7317 163.311 15.5088 163.311 14.1228V13.7967Z" fill="#B3B3B3"/>
<path d="M215.43 1.32324V20.7264H212.821V12.6553C212.006 12.8999 211.191 13.063 210.375 13.226C209.56 13.3076 208.663 13.3891 207.522 13.3891C205.402 13.3891 203.772 12.8999 202.631 12.0031C201.489 11.1064 201 9.55736 201 7.43769V1.32324H203.609V7.43769C203.609 8.90515 203.935 9.88346 204.506 10.4541C205.158 11.0248 206.136 11.2694 207.441 11.2694C208.337 11.2694 209.234 11.1879 210.131 11.1064C210.946 10.9433 211.843 10.7802 212.74 10.5357V1.32324H215.43Z" fill="#B3B3B3"/>
<path d="M230.675 8.33453H225.947V20.7265H223.338V8.33453H218.61V6.29639H230.675V8.33453Z" fill="#B3B3B3"/>
<path d="M279.675 20.7264H277.066V3.36139H267.609V20.7264H265V1.32324H279.675V20.7264Z" fill="#B3B3B3"/>
<path d="M294.92 8.33453H290.192V20.7265H287.583V8.33453H282.854V6.29639H294.92V8.33453Z" fill="#B3B3B3"/>
<path d="M344.512 14.5301C344.593 16.4052 343.941 17.9542 342.637 19.1771C341.332 20.4 339.62 21.0522 337.419 21.0522C335.218 21.0522 333.424 20.2369 332.038 18.6879C330.652 17.139 330 15.1823 330 12.7366V9.31247C330 6.94822 330.652 4.91007 332.038 3.36108C333.424 1.81209 335.218 0.996826 337.419 0.996826C339.62 0.996826 341.332 1.56751 342.637 2.70887C343.941 3.85023 344.593 5.39922 344.512 7.35585V7.43737H341.984C341.984 6.05143 341.577 4.9916 340.761 4.17634C339.946 3.36108 338.805 2.95345 337.337 2.95345C335.87 2.95345 334.729 3.52413 333.832 4.74702C332.935 5.88838 332.527 7.35585 332.527 9.14942V12.655C332.527 14.4486 332.935 15.9161 333.832 17.0574C334.729 18.1988 335.87 18.851 337.337 18.851C338.805 18.851 339.946 18.4434 340.761 17.7096C341.577 16.8944 341.984 15.8345 341.984 14.4486H344.512V14.5301Z" fill="#B3B3B3"/>
<path d="M353.887 6.05149C355.762 6.05149 357.148 6.7037 358.208 8.08964C359.268 9.47558 359.838 11.1876 359.838 13.3888V13.7149C359.838 15.8346 359.268 17.6282 358.126 19.0141C356.985 20.4 355.436 21.0523 353.398 21.0523C351.36 21.0523 349.811 20.4 348.669 19.0141C347.528 17.6282 346.957 15.9161 346.957 13.7149V13.3888C346.957 13.3073 346.957 13.2258 346.957 13.2258C346.957 13.1442 346.957 13.1442 346.957 13.0627V9.96473C346.957 7.19285 347.528 5.23623 348.588 3.93182C349.648 2.6274 351.278 1.97519 353.398 1.81214C354.621 1.73062 355.599 1.56756 356.251 1.32299C356.903 1.07841 357.23 0.670779 357.23 0.100098H359.268V0.181624C359.349 1.56756 358.86 2.54587 357.882 3.11656C356.903 3.68724 355.517 4.01334 353.642 4.01334C352.256 4.01334 351.197 4.42097 350.381 5.1547C349.566 5.88844 349.158 6.94827 349.158 8.33421V8.41574C349.648 7.76353 350.381 7.19285 351.197 6.78522C352.012 6.37759 352.99 6.05149 353.887 6.05149ZM353.398 8.08964C352.175 8.08964 351.197 8.57879 350.544 9.5571C349.892 10.5354 349.566 11.8398 349.566 13.3073V13.6334C349.566 15.1824 349.892 16.4053 350.544 17.3836C351.197 18.3619 352.175 18.8511 353.398 18.8511C354.621 18.8511 355.599 18.3619 356.251 17.3836C356.903 16.4053 357.23 15.1009 357.23 13.6334V13.3073C357.23 11.7583 356.903 10.5354 356.251 9.5571C355.599 8.57879 354.621 8.08964 353.398 8.08964Z" fill="#B3B3B3"/>
<path d="M394 20.7264V1.32324H400.359C402.397 1.32324 403.946 1.73087 405.088 2.62766C406.229 3.52444 406.8 4.82886 406.8 6.5409C406.8 7.35616 406.555 8.08989 406.066 8.82363C405.577 9.55736 404.843 9.96499 404.028 10.3726C405.332 10.5357 406.31 11.1064 407.044 12.0031C407.778 12.8999 408.186 14.0413 408.186 15.2642C408.186 17.0577 407.615 18.3622 406.473 19.3405C405.332 20.3188 403.783 20.7264 401.745 20.7264H394ZM396.69 9.55736H400.93C401.908 9.55736 402.723 9.31278 403.294 8.7421C403.946 8.17142 404.191 7.43769 404.191 6.45937C404.191 5.39954 403.865 4.6658 403.212 4.09512C402.56 3.60597 401.582 3.27986 400.359 3.27986H396.69V9.55736ZM396.69 11.5955V18.6067H401.745C402.968 18.6067 403.865 18.2806 404.517 17.71C405.169 17.1393 405.495 16.2425 405.495 15.1826C405.495 14.1228 405.169 13.226 404.517 12.5738C403.865 11.9216 402.968 11.5955 401.745 11.514H401.582H396.69V11.5955Z" fill="#B3B3B3"/>
<path d="M416.745 18.9326C417.561 18.9326 418.294 18.688 418.865 18.1174C419.436 17.5467 419.762 16.8945 419.762 16.1607H422.126V16.2423C422.126 17.4652 421.637 18.6065 420.496 19.5848C419.354 20.5631 418.131 21.0523 416.664 21.0523C414.626 21.0523 413.077 20.4001 411.935 19.0141C410.794 17.6282 410.305 15.9162 410.305 13.878V13.3073C410.305 11.2692 410.876 9.55714 411.935 8.1712C413.077 6.78526 414.626 6.13306 416.582 6.13306C418.213 6.13306 419.517 6.62221 420.496 7.60052C421.474 8.57883 422.045 9.80172 421.963 11.2692V11.3507H419.599C419.599 10.4539 419.273 9.7202 418.702 9.06799C418.131 8.41578 417.398 8.1712 416.501 8.1712C415.196 8.1712 414.3 8.66036 413.647 9.63867C413.077 10.617 412.751 11.8399 412.751 13.3073V13.878C412.751 15.3455 413.077 16.5684 413.647 17.5467C414.544 18.4435 415.441 18.9326 416.745 18.9326Z" fill="#B3B3B3"/>
<path d="M20.4488 52.1H29.9578V78H26.2948V55.319H20.4488V52.1Z" fill="#292C33"/>
<path d="M32.7062 116.421C35.6662 117.568 37.2942 119.714 37.2942 122.674C37.2942 127.373 33.2982 130.296 26.9712 130.296C20.6812 130.296 16.7222 127.373 16.7222 122.674C16.7222 119.714 18.3502 117.531 21.2732 116.421C18.9052 115.311 17.6472 113.387 17.6472 110.834C17.6472 106.505 21.3842 103.804 26.9712 103.804C32.5952 103.804 36.3692 106.505 36.3692 110.834C36.3692 113.387 35.0742 115.311 32.7062 116.421ZM26.9712 106.801C23.4932 106.801 21.3102 108.392 21.3102 110.982C21.3102 113.535 23.4192 115.126 26.9712 115.126C30.5602 115.126 32.7432 113.535 32.7432 110.982C32.7432 108.392 30.4492 106.801 26.9712 106.801ZM26.9712 127.299C31.0782 127.299 33.5942 125.486 33.5942 122.563C33.5942 119.714 31.0782 117.938 26.9712 117.938C22.8642 117.938 20.4222 119.714 20.4222 122.563C20.4222 125.486 22.8642 127.299 26.9712 127.299Z" fill="#292C33"/>
<path d="M9.32579 157.1H18.8348V183H15.1718V160.319H9.32579V157.1ZM31.9001 167.423C39.6331 167.423 42.6671 170.642 42.6671 175.23C42.6671 179.707 39.4851 183.296 32.8621 183.296C29.1991 183.296 25.5731 182.112 23.3531 180.151L25.0551 177.228C26.7941 178.856 29.6801 180.003 32.8251 180.003C36.7471 180.003 38.9671 178.19 38.9671 175.378C38.9671 172.455 37.1171 170.642 31.1231 170.642H25.2401L26.6091 157.1H41.2241V160.319H29.7171L29.0141 167.423H31.9001Z" fill="#292C33"/>
<path d="M11.9509 232.781H25.2339V236H6.62291V233.484L17.1679 223.309C19.9059 220.645 20.4239 219.017 20.4239 217.389C20.4239 214.725 18.5369 213.097 14.9109 213.097C12.1359 213.097 9.87891 213.985 8.28791 215.909L5.77191 213.726C7.76991 211.247 11.2109 209.804 15.2439 209.804C20.6459 209.804 24.1239 212.579 24.1239 217.019C24.1239 219.535 23.3839 221.792 19.8689 225.159L11.9509 232.781ZM33.197 232.781H46.48V236H27.869V233.484L38.414 223.309C41.152 220.645 41.67 219.017 41.67 217.389C41.67 214.725 39.783 213.097 36.157 213.097C33.382 213.097 31.125 213.985 29.534 215.909L27.018 213.726C29.016 211.247 32.457 209.804 36.49 209.804C41.892 209.804 45.37 212.579 45.37 217.019C45.37 219.535 44.63 221.792 41.115 225.159L33.197 232.781Z" fill="#292C33"/>
<path d="M11.156 290.781H24.439V294H5.82798V291.484L16.373 281.309C19.111 278.645 19.629 277.017 19.629 275.389C19.629 272.725 17.742 271.097 14.116 271.097C11.341 271.097 9.08398 271.985 7.49298 273.909L4.97698 271.726C6.97498 269.247 10.416 267.804 14.449 267.804C19.851 267.804 23.329 270.579 23.329 275.019C23.329 277.535 22.589 279.792 19.074 283.159L11.156 290.781ZM35.8801 267.804C42.8361 267.804 46.7581 272.466 46.7581 280.717C46.7581 289.56 41.7631 294.296 34.5111 294.296C32.0691 294.296 29.7381 293.815 28.0731 292.779L29.4791 289.893C30.8481 290.781 32.5871 291.114 34.4741 291.114C39.7281 291.114 43.0581 287.821 43.0581 281.346V280.421C41.5411 282.678 38.8031 283.825 35.5841 283.825C30.4411 283.825 26.7411 280.754 26.7411 275.981C26.7411 270.986 30.7371 267.804 35.8801 267.804ZM36.2131 280.828C39.7651 280.828 42.2071 278.645 42.2071 275.796C42.2071 273.132 40.0611 270.801 36.0281 270.801C32.6611 270.801 30.3301 272.762 30.3301 275.833C30.3301 278.867 32.5871 280.828 36.2131 280.828Z" fill="#292C33"/>
<path d="M86.074 74.781H99.357V78H80.746V75.484L91.291 65.309C94.029 62.645 94.547 61.017 94.547 59.389C94.547 56.725 92.66 55.097 89.034 55.097C86.259 55.097 84.002 55.985 82.411 57.909L79.895 55.726C81.893 53.247 85.334 51.804 89.367 51.804C94.769 51.804 98.247 54.579 98.247 59.019C98.247 61.535 97.507 63.792 93.992 67.159L86.074 74.781Z" fill="#292C33"/>
<path d="M89.257 103.804C96.213 103.804 100.135 108.466 100.135 116.717C100.135 125.56 95.14 130.296 87.888 130.296C85.446 130.296 83.115 129.815 81.45 128.779L82.856 125.893C84.225 126.781 85.964 127.114 87.851 127.114C93.105 127.114 96.435 123.821 96.435 117.346V116.421C94.918 118.678 92.18 119.825 88.961 119.825C83.818 119.825 80.118 116.754 80.118 111.981C80.118 106.986 84.114 103.804 89.257 103.804ZM89.59 116.828C93.142 116.828 95.584 114.645 95.584 111.796C95.584 109.132 93.438 106.801 89.405 106.801C86.038 106.801 83.707 108.762 83.707 111.833C83.707 114.867 85.964 116.828 89.59 116.828Z" fill="#292C33"/>
<path d="M78.3769 183V158.58L79.9679 160.319H72.5309V157.1H82.0399V183H78.3769ZM98.5832 183.296C96.2892 183.296 94.3282 182.79 92.7002 181.779C91.0722 180.768 89.8265 179.312 88.9632 177.413C88.1245 175.489 87.7052 173.146 87.7052 170.383C87.7052 167.448 88.2232 164.969 89.2592 162.946C90.2952 160.923 91.7382 159.394 93.5882 158.358C95.4382 157.322 97.5595 156.804 99.9522 156.804C101.186 156.804 102.357 156.927 103.467 157.174C104.602 157.421 105.576 157.803 106.39 158.321L104.984 161.207C104.318 160.738 103.554 160.418 102.69 160.245C101.852 160.072 100.964 159.986 100.026 159.986C97.3869 159.986 95.2902 160.812 93.7362 162.465C92.1822 164.093 91.4052 166.523 91.4052 169.754C91.4052 170.272 91.4299 170.889 91.4792 171.604C91.5285 172.319 91.6519 173.022 91.8492 173.713L90.5912 172.455C90.9612 171.32 91.5409 170.371 92.3302 169.606C93.1442 168.817 94.1062 168.237 95.2162 167.867C96.3509 167.472 97.5719 167.275 98.8792 167.275C100.606 167.275 102.135 167.596 103.467 168.237C104.799 168.878 105.848 169.791 106.612 170.975C107.377 172.134 107.759 173.516 107.759 175.119C107.759 176.772 107.352 178.215 106.538 179.448C105.724 180.681 104.627 181.631 103.245 182.297C101.864 182.963 100.31 183.296 98.5832 183.296ZM98.4352 180.299C99.5699 180.299 100.557 180.089 101.395 179.67C102.259 179.251 102.937 178.671 103.43 177.931C103.924 177.166 104.17 176.278 104.17 175.267C104.17 173.738 103.64 172.529 102.579 171.641C101.519 170.728 100.076 170.272 98.2502 170.272C97.0662 170.272 96.0302 170.494 95.1422 170.938C94.2542 171.382 93.5512 171.986 93.0332 172.751C92.5399 173.491 92.2932 174.342 92.2932 175.304C92.2932 176.192 92.5275 177.018 92.9962 177.783C93.4649 178.523 94.1555 179.127 95.0682 179.596C95.9809 180.065 97.1032 180.299 98.4352 180.299Z" fill="#292C33"/>
<path d="M75.987 232.781H89.27V236H70.659V233.484L81.204 223.309C83.942 220.645 84.46 219.017 84.46 217.389C84.46 214.725 82.573 213.097 78.947 213.097C76.172 213.097 73.915 213.985 72.324 215.909L69.808 213.726C71.806 211.247 75.247 209.804 79.28 209.804C84.682 209.804 88.16 212.579 88.16 217.019C88.16 219.535 87.42 221.792 83.905 225.159L75.987 232.781ZM102.228 220.978C107.408 221.459 110.035 224.382 110.035 228.378C110.035 232.744 106.816 236.296 100.23 236.296C96.5301 236.296 92.9041 235.112 90.7211 233.151L92.4231 230.228C94.1621 231.856 97.0481 233.003 100.23 233.003C104.115 233.003 106.335 231.227 106.335 228.415C106.335 225.677 104.374 223.901 99.9341 223.901H97.8621V221.311L104.374 213.319H91.9051V210.1H108.999V212.616L102.228 220.978Z" fill="#292C33"/>
<path d="M78.7657 278.978C83.9457 279.459 86.5727 282.382 86.5727 286.378C86.5727 290.744 83.3537 294.296 76.7677 294.296C73.0677 294.296 69.4417 293.112 67.2587 291.151L68.9607 288.228C70.6997 289.856 73.5857 291.003 76.7677 291.003C80.6527 291.003 82.8727 289.227 82.8727 286.415C82.8727 283.677 80.9117 281.901 76.4717 281.901H74.3997V279.311L80.9117 271.319H68.4427V268.1H85.5367V270.616L78.7657 278.978ZM100.606 294.296C94.5376 294.296 90.0236 289.486 90.0236 281.05C90.0236 272.614 94.5376 267.804 100.606 267.804C106.637 267.804 111.151 272.614 111.151 281.05C111.151 289.486 106.637 294.296 100.606 294.296ZM100.606 291.003C104.639 291.003 107.451 287.673 107.451 281.05C107.451 274.427 104.639 271.097 100.606 271.097C96.5356 271.097 93.7236 274.427 93.7236 281.05C93.7236 287.673 96.5356 291.003 100.606 291.003Z" fill="#292C33"/>
<path d="M155.105 62.978C160.285 63.459 162.912 66.382 162.912 70.378C162.912 74.744 159.693 78.296 153.107 78.296C149.407 78.296 145.781 77.112 143.598 75.151L145.3 72.228C147.039 73.856 149.925 75.003 153.107 75.003C156.992 75.003 159.212 73.227 159.212 70.415C159.212 67.677 157.251 65.901 152.811 65.901H150.739V63.311L157.251 55.319H144.782V52.1H161.876V54.616L155.105 62.978Z" fill="#292C33"/>
<path d="M135.609 104.1H145.118V130H141.455V107.319H135.609V104.1ZM161.366 130.296C155.298 130.296 150.784 125.486 150.784 117.05C150.784 108.614 155.298 103.804 161.366 103.804C167.397 103.804 171.911 108.614 171.911 117.05C171.911 125.486 167.397 130.296 161.366 130.296ZM161.366 127.003C165.399 127.003 168.211 123.673 168.211 117.05C168.211 110.427 165.399 107.097 161.366 107.097C157.296 107.097 154.484 110.427 154.484 117.05C154.484 123.673 157.296 127.003 161.366 127.003Z" fill="#292C33"/>
<path d="M142.238 183V158.58L143.829 160.319H136.392V157.1H145.901V183H142.238ZM156.044 183L167.033 158.654L167.995 160.319H152.603L154.453 158.506V164.944H150.901V157.1H170.437V159.616L159.966 183H156.044Z" fill="#292C33"/>
<path d="M138.042 232.781H151.325V236H132.714V233.484L143.259 223.309C145.997 220.645 146.515 219.017 146.515 217.389C146.515 214.725 144.628 213.097 141.002 213.097C138.227 213.097 135.97 213.985 134.379 215.909L131.863 213.726C133.861 211.247 137.302 209.804 141.335 209.804C146.737 209.804 150.215 212.579 150.215 217.019C150.215 219.535 149.475 221.792 145.96 225.159L138.042 232.781ZM176.213 226.454V229.636H171.292V236H167.703V229.636H153.31V227.046L166.556 210.1H170.552L157.861 226.454H167.814V220.83H171.292V226.454H176.213Z" fill="#292C33"/>
<path d="M146.76 294.296C144.935 294.296 143.159 294.012 141.432 293.445C139.73 292.878 138.336 292.113 137.251 291.151L138.953 288.228C139.816 289.042 140.939 289.708 142.32 290.226C143.701 290.744 145.181 291.003 146.76 291.003C148.684 291.003 150.176 290.596 151.237 289.782C152.322 288.943 152.865 287.821 152.865 286.415C152.865 285.058 152.347 283.973 151.311 283.159C150.3 282.32 148.684 281.901 146.464 281.901H144.392V279.311L152.088 269.839L152.606 271.319H138.435V268.1H155.529V270.616L147.87 280.051L145.946 278.904H147.167C150.3 278.904 152.643 279.607 154.197 281.013C155.776 282.419 156.565 284.207 156.565 286.378C156.565 287.833 156.207 289.165 155.492 290.374C154.777 291.583 153.691 292.545 152.236 293.26C150.805 293.951 148.98 294.296 146.76 294.296ZM164.382 294V269.58L165.973 271.319H158.536V268.1H168.045V294H164.382Z" fill="#292C33"/>
<path d="M230.434 68.454V71.636H225.513V78H221.924V71.636H207.531V69.046L220.777 52.1H224.773L212.082 68.454H222.035V62.83H225.513V68.454H230.434Z" fill="#292C33"/>
<path d="M205.602 104.1H215.111V130H211.448V107.319H205.602V104.1ZM219.296 104.1H228.805V130H225.142V107.319H219.296V104.1Z" fill="#292C33"/>
<path d="M206.389 183V158.58L207.98 160.319H200.543V157.1H210.052V183H206.389ZM225.818 183.296C223.722 183.296 221.909 182.988 220.379 182.371C218.85 181.754 217.666 180.879 216.827 179.744C215.989 178.585 215.569 177.228 215.569 175.674C215.569 174.145 215.964 172.85 216.753 171.789C217.567 170.704 218.739 169.89 220.268 169.347C221.798 168.78 223.648 168.496 225.818 168.496C227.989 168.496 229.839 168.78 231.368 169.347C232.922 169.89 234.106 170.704 234.92 171.789C235.734 172.874 236.141 174.169 236.141 175.674C236.141 177.228 235.722 178.585 234.883 179.744C234.045 180.879 232.848 181.754 231.294 182.371C229.74 182.988 227.915 183.296 225.818 183.296ZM225.818 180.299C227.89 180.299 229.506 179.88 230.665 179.041C231.849 178.178 232.441 177.018 232.441 175.563C232.441 174.132 231.849 173.01 230.665 172.196C229.506 171.357 227.89 170.938 225.818 170.938C223.771 170.938 222.168 171.357 221.008 172.196C219.849 173.01 219.269 174.132 219.269 175.563C219.269 177.018 219.849 178.178 221.008 179.041C222.168 179.88 223.771 180.299 225.818 180.299ZM225.818 170.494C223.845 170.494 222.168 170.235 220.786 169.717C219.405 169.174 218.344 168.41 217.604 167.423C216.864 166.412 216.494 165.215 216.494 163.834C216.494 162.379 216.877 161.133 217.641 160.097C218.431 159.036 219.528 158.222 220.934 157.655C222.34 157.088 223.968 156.804 225.818 156.804C227.693 156.804 229.333 157.088 230.739 157.655C232.145 158.222 233.243 159.036 234.032 160.097C234.822 161.133 235.216 162.379 235.216 163.834C235.216 165.215 234.846 166.412 234.106 167.423C233.366 168.41 232.293 169.174 230.887 169.717C229.481 170.235 227.792 170.494 225.818 170.494ZM225.818 168.126C227.619 168.126 229.025 167.756 230.036 167.016C231.072 166.276 231.59 165.265 231.59 163.982C231.59 162.675 231.06 161.651 229.999 160.911C228.939 160.171 227.545 159.801 225.818 159.801C224.092 159.801 222.71 160.171 221.674 160.911C220.663 161.651 220.157 162.675 220.157 163.982C220.157 165.265 220.651 166.276 221.637 167.016C222.649 167.756 224.042 168.126 225.818 168.126Z" fill="#292C33"/>
<path d="M203.951 232.781H217.234V236H198.623V233.484L209.168 223.309C211.906 220.645 212.424 219.017 212.424 217.389C212.424 214.725 210.537 213.097 206.911 213.097C204.136 213.097 201.879 213.985 200.288 215.909L197.772 213.726C199.77 211.247 203.211 209.804 207.244 209.804C212.646 209.804 216.124 212.579 216.124 217.019C216.124 219.535 215.384 221.792 211.869 225.159L203.951 232.781ZM227.676 220.423C235.409 220.423 238.443 223.642 238.443 228.23C238.443 232.707 235.261 236.296 228.638 236.296C224.975 236.296 221.349 235.112 219.129 233.151L220.831 230.228C222.57 231.856 225.456 233.003 228.601 233.003C232.523 233.003 234.743 231.19 234.743 228.378C234.743 225.455 232.893 223.642 226.899 223.642H221.016L222.385 210.1H237V213.319H225.493L224.79 220.423H227.676Z" fill="#292C33"/>
<path d="M280.553 62.423C288.286 62.423 291.32 65.642 291.32 70.23C291.32 74.707 288.138 78.296 281.515 78.296C277.852 78.296 274.226 77.112 272.006 75.151L273.708 72.228C275.447 73.856 278.333 75.003 281.478 75.003C285.4 75.003 287.62 73.19 287.62 70.378C287.62 67.455 285.77 65.642 279.776 65.642H273.893L275.262 52.1H289.877V55.319H278.37L277.667 62.423H280.553Z" fill="#292C33"/>
<path d="M265.326 104.1H274.835V130H271.172V107.319H265.326V104.1ZM285.421 126.781H298.704V130H280.093V127.484L290.638 117.309C293.376 114.645 293.894 113.017 293.894 111.389C293.894 108.725 292.007 107.097 288.381 107.097C285.606 107.097 283.349 107.985 281.758 109.909L279.242 107.726C281.24 105.247 284.681 103.804 288.714 103.804C294.116 103.804 297.594 106.579 297.594 111.019C297.594 113.535 296.854 115.792 293.339 119.159L285.421 126.781Z" fill="#292C33"/>
<path d="M270.377 183V158.58L271.968 160.319H264.531V157.1H274.04V183H270.377ZM288.104 156.804C290.448 156.804 292.421 157.31 294.024 158.321C295.652 159.332 296.886 160.8 297.724 162.724C298.563 164.623 298.982 166.954 298.982 169.717C298.982 172.652 298.464 175.131 297.428 177.154C296.392 179.177 294.962 180.706 293.136 181.742C291.311 182.778 289.177 183.296 286.735 183.296C285.527 183.296 284.355 183.173 283.22 182.926C282.11 182.679 281.136 182.297 280.297 181.779L281.703 178.893C282.394 179.337 283.159 179.658 283.997 179.855C284.861 180.028 285.761 180.114 286.698 180.114C289.313 180.114 291.397 179.3 292.951 177.672C294.505 176.019 295.282 173.577 295.282 170.346C295.282 169.828 295.258 169.211 295.208 168.496C295.159 167.781 295.048 167.078 294.875 166.387L296.096 167.645C295.751 168.78 295.171 169.742 294.357 170.531C293.568 171.296 292.606 171.875 291.471 172.27C290.361 172.64 289.14 172.825 287.808 172.825C286.106 172.825 284.589 172.504 283.257 171.863C281.925 171.222 280.877 170.321 280.112 169.162C279.348 167.978 278.965 166.584 278.965 164.981C278.965 163.304 279.36 161.861 280.149 160.652C280.963 159.419 282.061 158.469 283.442 157.803C284.848 157.137 286.402 156.804 288.104 156.804ZM288.252 159.801C287.142 159.801 286.156 160.011 285.292 160.43C284.429 160.849 283.751 161.429 283.257 162.169C282.789 162.909 282.554 163.797 282.554 164.833C282.554 166.362 283.085 167.583 284.145 168.496C285.206 169.384 286.637 169.828 288.437 169.828C289.621 169.828 290.657 169.606 291.545 169.162C292.458 168.718 293.161 168.114 293.654 167.349C294.172 166.584 294.431 165.733 294.431 164.796C294.431 163.883 294.197 163.057 293.728 162.317C293.26 161.577 292.569 160.973 291.656 160.504C290.744 160.035 289.609 159.801 288.252 159.801Z" fill="#292C33"/>
<path d="M266.71 232.781H279.993V236H261.382V233.484L271.927 223.309C274.665 220.645 275.183 219.017 275.183 217.389C275.183 214.725 273.296 213.097 269.67 213.097C266.895 213.097 264.638 213.985 263.047 215.909L260.531 213.726C262.529 211.247 265.97 209.804 270.003 209.804C275.405 209.804 278.883 212.579 278.883 217.019C278.883 219.535 278.143 221.792 274.628 225.159L266.71 232.781ZM294.101 220.275C299.244 220.275 302.981 223.346 302.981 228.119C302.981 233.114 298.948 236.296 293.805 236.296C286.849 236.296 282.927 231.634 282.927 223.383C282.927 214.54 287.922 209.804 295.174 209.804C297.616 209.804 299.947 210.285 301.612 211.321L300.206 214.207C298.874 213.319 297.098 212.986 295.248 212.986C289.994 212.986 286.627 216.279 286.627 222.754C286.627 223.05 286.627 223.346 286.664 223.679C288.144 221.459 290.882 220.275 294.101 220.275ZM293.657 233.299C297.024 233.299 299.392 231.338 299.392 228.267C299.392 225.233 297.098 223.272 293.472 223.272C289.957 223.272 287.515 225.455 287.515 228.304C287.515 230.968 289.661 233.299 293.657 233.299Z" fill="#292C33"/>
<path d="M348.032 62.275C353.175 62.275 356.912 65.346 356.912 70.119C356.912 75.114 352.879 78.296 347.736 78.296C340.78 78.296 336.858 73.634 336.858 65.383C336.858 56.54 341.853 51.804 349.105 51.804C351.547 51.804 353.878 52.285 355.543 53.321L354.137 56.207C352.805 55.319 351.029 54.986 349.179 54.986C343.925 54.986 340.558 58.279 340.558 64.754C340.558 65.05 340.558 65.346 340.595 65.679C342.075 63.459 344.813 62.275 348.032 62.275ZM347.588 75.299C350.955 75.299 353.323 73.338 353.323 70.267C353.323 67.233 351.029 65.272 347.403 65.272C343.888 65.272 341.446 67.455 341.446 70.304C341.446 72.968 343.592 75.299 347.588 75.299Z" fill="#292C33"/>
<path d="M329.362 104.1H338.871V130H335.208V107.319H329.362V104.1ZM354.452 114.978C359.632 115.459 362.259 118.382 362.259 122.378C362.259 126.744 359.04 130.296 352.454 130.296C348.754 130.296 345.128 129.112 342.945 127.151L344.647 124.228C346.386 125.856 349.272 127.003 352.454 127.003C356.339 127.003 358.559 125.227 358.559 122.415C358.559 119.677 356.598 117.901 352.158 117.901H350.086V115.311L356.598 107.319H344.129V104.1H361.223V106.616L354.452 114.978Z" fill="#292C33"/>
<path d="M329.789 179.781H343.072V183H324.461V180.484L335.006 170.309C337.744 167.645 338.262 166.017 338.262 164.389C338.262 161.725 336.375 160.097 332.749 160.097C329.974 160.097 327.717 160.985 326.126 162.909L323.61 160.726C325.608 158.247 329.049 156.804 333.082 156.804C338.484 156.804 341.962 159.579 341.962 164.019C341.962 166.535 341.222 168.792 337.707 172.159L329.789 179.781ZM356.587 183.296C350.519 183.296 346.005 178.486 346.005 170.05C346.005 161.614 350.519 156.804 356.587 156.804C362.618 156.804 367.132 161.614 367.132 170.05C367.132 178.486 362.618 183.296 356.587 183.296ZM356.587 180.003C360.62 180.003 363.432 176.673 363.432 170.05C363.432 163.427 360.62 160.097 356.587 160.097C352.517 160.097 349.705 163.427 349.705 170.05C349.705 176.673 352.517 180.003 356.587 180.003Z" fill="#292C33"/>
<path d="M331.072 232.781H344.355V236H325.744V233.484L336.289 223.309C339.027 220.645 339.545 219.017 339.545 217.389C339.545 214.725 337.658 213.097 334.032 213.097C331.257 213.097 329 213.985 327.409 215.909L324.893 213.726C326.891 211.247 330.332 209.804 334.365 209.804C339.767 209.804 343.245 212.579 343.245 217.019C343.245 219.535 342.505 221.792 338.99 225.159L331.072 232.781ZM346.622 210.1H366.158V212.616L355.687 236H351.765L362.014 213.319H350.174V217.944H346.622V210.1Z" fill="#292C33"/>
<path d="M388.573 104.1H398.082V130H394.419V107.319H388.573V104.1ZM426.281 120.454V123.636H421.36V130H417.771V123.636H403.378V121.046L416.624 104.1H420.62L407.929 120.454H417.882V114.83H421.36V120.454H426.281Z" fill="#292C33"/>
<path d="M396.727 179.781H410.01V183H391.399V180.484L401.944 170.309C404.682 167.645 405.2 166.017 405.2 164.389C405.2 161.725 403.313 160.097 399.687 160.097C396.912 160.097 394.655 160.985 393.064 162.909L390.548 160.726C392.546 158.247 395.987 156.804 400.02 156.804C405.422 156.804 408.9 159.579 408.9 164.019C408.9 166.535 408.16 168.792 404.645 172.159L396.727 179.781ZM411.572 157.1H421.081V183H417.418V160.319H411.572V157.1Z" fill="#292C33"/>
<path d="M391.168 232.781H404.451V236H385.84V233.484L396.385 223.309C399.123 220.645 399.641 219.017 399.641 217.389C399.641 214.725 397.754 213.097 394.128 213.097C391.353 213.097 389.096 213.985 387.505 215.909L384.989 213.726C386.987 211.247 390.428 209.804 394.461 209.804C399.863 209.804 403.341 212.579 403.341 217.019C403.341 219.535 402.601 221.792 399.086 225.159L391.168 232.781ZM423.329 222.421C426.289 223.568 427.917 225.714 427.917 228.674C427.917 233.373 423.921 236.296 417.594 236.296C411.304 236.296 407.345 233.373 407.345 228.674C407.345 225.714 408.973 223.531 411.896 222.421C409.528 221.311 408.27 219.387 408.27 216.834C408.27 212.505 412.007 209.804 417.594 209.804C423.218 209.804 426.992 212.505 426.992 216.834C426.992 219.387 425.697 221.311 423.329 222.421ZM417.594 212.801C414.116 212.801 411.933 214.392 411.933 216.982C411.933 219.535 414.042 221.126 417.594 221.126C421.183 221.126 423.366 219.535 423.366 216.982C423.366 214.392 421.072 212.801 417.594 212.801ZM417.594 233.299C421.701 233.299 424.217 231.486 424.217 228.563C424.217 225.714 421.701 223.938 417.594 223.938C413.487 223.938 411.045 225.714 411.045 228.563C411.045 231.486 413.487 233.299 417.594 233.299Z" fill="#292C33"/>
<path d="M398.239 51.1H417.775V53.616L407.304 77H403.382L413.631 54.319H401.791V58.944H398.239V51.1Z" fill="#292C33"/>
</svg>
