<svg width="132" height="97" viewBox="0 0 132 97" fill="none" xmlns="http://www.w3.org/2000/svg">
<path d="M22.2323 53.9197V59.8358L2.9029 49.7875V44.7348L11.7791 36.6283C12.6352 35.7361 13.3035 34.9155 13.7841 34.1667C14.2647 33.4009 14.6102 32.6749 14.8204 31.9886C15.0307 31.2854 15.1358 30.5783 15.1358 29.8674C15.1358 28.7672 15.0232 27.7691 14.7979 26.8734C14.5726 25.9607 14.2347 25.1757 13.7841 24.5183C13.3486 23.8517 12.8079 23.3506 12.1621 23.0149C11.3811 22.6089 10.7353 22.544 10.2246 22.8202C9.71399 23.0964 9.33101 23.6421 9.07569 24.4573C8.83538 25.2634 8.71523 26.2589 8.71523 27.4438L2.38474 24.1529C2.38474 21.9355 2.78274 20.1111 3.57875 18.6798C4.38977 17.2564 5.5237 16.3817 6.98054 16.0557C8.4524 15.7205 10.2171 16.0878 12.2747 17.1574C14.2873 18.2036 15.9694 19.5012 17.3211 21.0503C18.6878 22.6071 19.7166 24.3522 20.4075 26.2856C21.1134 28.2098 21.4663 30.2553 21.4663 32.4219C21.4663 33.6576 21.3236 34.7853 21.0383 35.8049C20.7529 36.8076 20.3474 37.7478 19.8217 38.6256C19.2961 39.4865 18.6503 40.3103 17.8843 41.097C17.1183 41.8837 16.2547 42.662 15.2935 43.4318L11.0131 48.0875L22.2323 53.9197ZM45.2789 50.082V56.5058C45.2789 59.2819 45.0461 61.5476 44.5805 63.3029C44.1149 65.0583 43.4616 66.3606 42.6205 67.2098C41.7795 68.0421 40.7807 68.4624 39.6242 68.4706C38.4678 68.4788 37.1912 68.1198 35.7944 67.3937C34.683 66.816 33.6392 66.0787 32.663 65.1819C31.6867 64.2851 30.8006 63.232 30.0046 62.0226C29.2236 60.8041 28.5478 59.4287 27.977 57.8963C27.4213 56.3549 26.9933 54.6512 26.6929 52.7854C26.3925 50.9027 26.2424 48.8442 26.2424 46.6098V40.186C26.2424 37.4099 26.4751 35.1527 26.9407 33.4143C27.4213 31.6667 28.0822 30.3768 28.9232 29.5445C29.7643 28.7122 30.7631 28.3004 31.9195 28.3091C33.091 28.3087 34.3751 28.6716 35.7719 29.3977C36.8683 29.9676 37.9046 30.701 38.8808 31.5978C39.8721 32.4855 40.7507 33.5262 41.5166 34.72C42.2976 35.9215 42.966 37.2931 43.5217 38.8345C44.0924 40.3669 44.5279 42.0744 44.8283 43.9571C45.1287 45.8229 45.2789 47.8645 45.2789 50.082ZM38.9484 54.2052V45.7501C38.9484 44.4467 38.8958 43.2768 38.7907 42.2404C38.7006 41.2118 38.5729 40.316 38.4077 39.553C38.2425 38.7901 38.0247 38.1267 37.7544 37.563C37.484 36.9993 37.1837 36.5385 36.8532 36.1805C36.5228 35.8056 36.1549 35.5128 35.7494 35.302C35.2687 35.0521 34.8332 34.978 34.4427 35.0797C34.0522 35.1814 33.7143 35.5051 33.4289 36.0508C33.1436 36.5795 32.9258 37.3719 32.7756 38.428C32.6404 39.4749 32.5728 40.8108 32.5728 42.4358V50.8909C32.5728 52.1943 32.6179 53.3688 32.708 54.4143C32.8131 55.4677 32.9558 56.3966 33.1361 57.2013C33.3313 57.9968 33.5491 58.6686 33.7894 59.2167C34.0447 59.7726 34.3376 60.238 34.668 60.6129C35.0134 60.9786 35.3889 61.2669 35.7944 61.4777C36.275 61.7276 36.7106 61.8016 37.1011 61.7C37.5066 61.5891 37.8445 61.257 38.1148 60.7035C38.3852 60.15 38.5879 59.3414 38.7231 58.2775C38.8733 57.2046 38.9484 55.8471 38.9484 54.2052Z" fill="white"/>
<path d="M105.034 57.1823V63.0983L85.3934 72.5231V67.4704L94.4127 50.4217C95.2826 48.6671 95.9617 47.1732 96.4501 45.9402C96.9384 44.6902 97.2894 43.6162 97.5031 42.7181C97.7167 41.8031 97.8235 40.9901 97.8235 40.2792C97.8235 39.1789 97.7091 38.2944 97.4802 37.6256C97.2513 36.9398 96.9079 36.4952 96.4501 36.2918C96.0075 36.064 95.4581 36.1076 94.8019 36.4225C94.0083 36.8033 93.3521 37.389 92.8332 38.1797C92.3143 38.9703 91.9252 39.9019 91.6657 40.9743C91.4215 42.0224 91.2995 43.1389 91.2995 44.3238L84.8669 47.4105C84.8669 45.1931 85.2714 42.9678 86.0802 40.7346C86.9043 38.4941 88.0565 36.477 89.5368 34.6833C91.0324 32.8654 92.8256 31.4548 94.9163 30.4516C96.9613 29.4703 98.6705 29.0733 100.044 29.2605C101.433 29.4405 102.478 30.1491 103.18 31.3865C103.897 32.5996 104.256 34.2895 104.256 36.4562C104.256 37.6918 104.111 38.9632 103.821 40.2703C103.531 41.5605 103.119 42.9093 102.585 44.3166C102.051 45.7071 101.395 47.1814 100.616 48.7398C99.838 50.2982 98.9605 51.9465 97.9838 53.6847L93.6344 62.6526L105.034 57.1823ZM128.75 45.8022V51.7182L109.109 61.143V56.0903L118.128 39.0417C118.998 37.287 119.677 35.7932 120.166 34.5601C120.654 33.3102 121.005 32.2361 121.219 31.338C121.432 30.423 121.539 29.61 121.539 28.8991C121.539 27.7988 121.425 26.9143 121.196 26.2455C120.967 25.5598 120.624 25.1152 120.166 24.9117C119.723 24.684 119.174 24.7275 118.517 25.0424C117.724 25.4232 117.068 26.009 116.549 26.7996C116.03 27.5903 115.641 28.5218 115.381 29.5942C115.137 30.6424 115.015 31.7589 115.015 32.9438L108.583 36.0305C108.583 33.813 108.987 31.5877 109.796 29.3545C110.62 27.114 111.772 25.0969 113.252 23.3033C114.748 21.4853 116.541 20.0747 118.632 19.0715C120.677 18.0902 122.386 17.6932 123.76 17.8805C125.148 18.0604 126.194 18.7691 126.896 20.0064C127.613 21.2195 127.972 22.9094 127.972 25.0761C127.972 26.3118 127.827 27.5832 127.537 28.8903C127.247 30.1804 126.835 31.5292 126.301 32.9366C125.766 34.327 125.11 35.8014 124.332 37.3598C123.554 38.9181 122.676 40.5664 121.699 42.3046L117.35 51.2726L128.75 45.8022Z" fill="white"/>
</svg>
