<svg width="104" height="90" viewBox="0 0 104 90" fill="none" xmlns="http://www.w3.org/2000/svg">
<g clip-path="url(#clip0_205_246)">
<mask id="mask0_205_246" style="mask-type:luminance" maskUnits="userSpaceOnUse" x="0" y="0" width="104" height="90">
<path d="M104 0H0V90H104V0Z" fill="white"/>
</mask>
<g mask="url(#mask0_205_246)">
<mask id="mask1_205_246" style="mask-type:luminance" maskUnits="userSpaceOnUse" x="0" y="0" width="104" height="90">
<path d="M104 0H0V90H104V0Z" fill="white"/>
</mask>
<g mask="url(#mask1_205_246)">
<mask id="mask2_205_246" style="mask-type:luminance" maskUnits="userSpaceOnUse" x="0" y="0" width="104" height="90">
<path d="M103.133 0.332031H0V89.9871H103.133V0.332031Z" fill="white"/>
</mask>
<g mask="url(#mask2_205_246)">
<path d="M100.734 45.1605L76.1466 87.9087H26.9857L2.39844 45.1605L26.9857 2.41211H76.1466L100.734 45.1605Z" fill="#1F75BA" stroke="white" stroke-width="4.15858"/>
</g>
</g>
</g>
<path d="M31.752 66.5V30.647L36.597 35.321H24.342V26.6H43.038V66.5H31.752ZM64.3716 67.298C60.9516 67.298 57.9116 66.481 55.2516 64.847C52.6296 63.213 50.5586 60.857 49.0386 57.779C47.5186 54.701 46.7586 50.958 46.7586 46.55C46.7586 42.142 47.5186 38.399 49.0386 35.321C50.5586 32.243 52.6296 29.887 55.2516 28.253C57.9116 26.619 60.9516 25.802 64.3716 25.802C67.7536 25.802 70.7556 26.619 73.3776 28.253C76.0376 29.887 78.1276 32.243 79.6476 35.321C81.1676 38.399 81.9276 42.142 81.9276 46.55C81.9276 50.958 81.1676 54.701 79.6476 57.779C78.1276 60.857 76.0376 63.213 73.3776 64.847C70.7556 66.481 67.7536 67.298 64.3716 67.298ZM64.3716 58.064C65.5876 58.064 66.6516 57.684 67.5636 56.924C68.5136 56.164 69.2546 54.948 69.7866 53.276C70.3186 51.566 70.5846 49.324 70.5846 46.55C70.5846 43.738 70.3186 41.496 69.7866 39.824C69.2546 38.152 68.5136 36.936 67.5636 36.176C66.6516 35.416 65.5876 35.036 64.3716 35.036C63.1556 35.036 62.0726 35.416 61.1226 36.176C60.2106 36.936 59.4696 38.152 58.8996 39.824C58.3676 41.496 58.1016 43.738 58.1016 46.55C58.1016 49.324 58.3676 51.566 58.8996 53.276C59.4696 54.948 60.2106 56.164 61.1226 56.924C62.0726 57.684 63.1556 58.064 64.3716 58.064Z" fill="white"/>
</g>
<defs>
<clipPath id="clip0_205_246">
<rect width="104" height="90" fill="white"/>
</clipPath>
</defs>
</svg>
