<svg width="103" height="90" viewBox="0 0 103 90" fill="none" xmlns="http://www.w3.org/2000/svg">
<g clip-path="url(#clip0_203_32)">
<mask id="mask0_203_32" style="mask-type:luminance" maskUnits="userSpaceOnUse" x="0" y="0" width="104" height="90">
<path d="M104 0H0V90H104V0Z" fill="white"/>
</mask>
<g mask="url(#mask0_203_32)">
<mask id="mask1_203_32" style="mask-type:luminance" maskUnits="userSpaceOnUse" x="0" y="0" width="104" height="90">
<path d="M103.133 0.332031H0V89.9871H103.133V0.332031Z" fill="white"/>
</mask>
<g mask="url(#mask1_203_32)">
<path d="M100.734 45.1605L76.1466 87.9087H26.9857L2.39844 45.1605L26.9857 2.41211H76.1466L100.734 45.1605Z" fill="#1F75BA" stroke="white" stroke-width="4.15858"/>
</g>
</g>
<path d="M36.71 64V56.932L51.644 42.967C52.708 41.979 53.487 41.105 53.981 40.345C54.513 39.585 54.855 38.901 55.007 38.293C55.197 37.647 55.292 37.058 55.292 36.526C55.292 35.234 54.855 34.227 53.981 33.505C53.145 32.783 51.872 32.422 50.162 32.422C48.718 32.422 47.369 32.745 46.115 33.391C44.861 34.037 43.835 35.006 43.037 36.298L34.658 31.624C36.14 29.116 38.287 27.102 41.099 25.582C43.911 24.062 47.274 23.302 51.188 23.302C54.266 23.302 56.964 23.796 59.282 24.784C61.6 25.772 63.405 27.178 64.697 29.002C66.027 30.826 66.692 32.973 66.692 35.443C66.692 36.735 66.521 38.027 66.179 39.319C65.837 40.573 65.172 41.922 64.184 43.366C63.234 44.772 61.809 46.349 59.909 48.097L48.053 59.041L46.172 55.051H67.775V64H36.71Z" fill="white"/>
</g>
<defs>
<clipPath id="clip0_203_32">
<rect width="103" height="90" fill="white"/>
</clipPath>
</defs>
</svg>
