<svg width="104" height="90" viewBox="0 0 104 90" fill="none" xmlns="http://www.w3.org/2000/svg">
<g clip-path="url(#clip0_203_43)">
<mask id="mask0_203_43" style="mask-type:luminance" maskUnits="userSpaceOnUse" x="0" y="0" width="104" height="90">
<path d="M104 0H0V90H104V0Z" fill="white"/>
</mask>
<g mask="url(#mask0_203_43)">
<mask id="mask1_203_43" style="mask-type:luminance" maskUnits="userSpaceOnUse" x="0" y="0" width="104" height="90">
<path d="M104 0.332031H0.867188V89.9871H104V0.332031Z" fill="white"/>
</mask>
<g mask="url(#mask1_203_43)">
<path d="M101.601 45.1605L77.0141 87.9087H27.8533L3.26611 45.1605L27.8533 2.41211H77.0141L101.601 45.1605Z" fill="#1F75BA" stroke="white" stroke-width="4.15858"/>
</g>
</g>
<path d="M51.276 65.798C48.502 65.798 45.728 65.456 42.954 64.772C40.218 64.088 37.824 63.119 35.772 61.865L39.876 53.372C41.472 54.436 43.239 55.253 45.177 55.823C47.153 56.393 49.072 56.678 50.934 56.678C52.872 56.678 54.411 56.317 55.551 55.595C56.691 54.873 57.261 53.847 57.261 52.517C57.261 51.339 56.786 50.408 55.836 49.724C54.886 49.002 53.328 48.641 51.162 48.641H46.431V41.516L57.147 29.945L58.23 33.821H37.824V25.1H66.666V32.168L55.95 43.739L50.421 40.604H53.499C58.477 40.604 62.239 41.725 64.785 43.967C67.369 46.171 68.661 49.021 68.661 52.517C68.661 54.797 68.034 56.944 66.78 58.958C65.564 60.972 63.683 62.625 61.137 63.917C58.591 65.171 55.304 65.798 51.276 65.798Z" fill="white"/>
</g>
<defs>
<clipPath id="clip0_203_43">
<rect width="104" height="90" fill="white"/>
</clipPath>
</defs>
</svg>
