<svg width="104" height="90" viewBox="0 0 104 90" fill="none" xmlns="http://www.w3.org/2000/svg">
<g clip-path="url(#clip0_205_84)">
<mask id="mask0_205_84" style="mask-type:luminance" maskUnits="userSpaceOnUse" x="0" y="0" width="104" height="90">
<path d="M104 0H0V90H104V0Z" fill="white"/>
</mask>
<g mask="url(#mask0_205_84)">
<mask id="mask1_205_84" style="mask-type:luminance" maskUnits="userSpaceOnUse" x="0" y="0" width="104" height="90">
<path d="M104 0H0V90H104V0Z" fill="white"/>
</mask>
<g mask="url(#mask1_205_84)">
<mask id="mask2_205_84" style="mask-type:luminance" maskUnits="userSpaceOnUse" x="0" y="0" width="104" height="90">
<path d="M103.133 0.332031H0V89.9871H103.133V0.332031Z" fill="white"/>
</mask>
<g mask="url(#mask2_205_84)">
<path d="M100.734 45.1605L76.1466 87.9087H26.9857L2.39844 45.1605L26.9857 2.41211H76.1466L100.734 45.1605Z" fill="#1F75BA" stroke="white" stroke-width="4.15858"/>
</g>
</g>
</g>
<path d="M52.406 65.298C48.682 65.298 45.433 64.557 42.659 63.075C39.923 61.593 37.776 59.389 36.218 56.463C34.698 53.537 33.938 49.927 33.938 45.633C33.938 40.997 34.831 37.064 36.617 33.834C38.441 30.566 40.93 28.077 44.084 26.367C47.276 24.657 50.962 23.802 55.142 23.802C57.384 23.802 59.531 24.068 61.583 24.6C63.673 25.094 65.44 25.797 66.884 26.709L62.78 34.803C61.64 34.005 60.443 33.473 59.189 33.207C57.973 32.903 56.719 32.751 55.427 32.751C52.349 32.751 49.879 33.682 48.017 35.544C46.193 37.406 45.281 40.123 45.281 43.695C45.281 44.341 45.281 45.025 45.281 45.747C45.319 46.431 45.395 47.134 45.509 47.856L42.659 45.519C43.419 44.113 44.331 42.935 45.395 41.985C46.497 41.035 47.789 40.313 49.271 39.819C50.791 39.325 52.482 39.078 54.344 39.078C56.852 39.078 59.132 39.61 61.184 40.674C63.274 41.7 64.946 43.163 66.2 45.063C67.454 46.925 68.081 49.129 68.081 51.675C68.081 54.449 67.378 56.862 65.972 58.914C64.566 60.928 62.685 62.505 60.329 63.645C57.973 64.747 55.332 65.298 52.406 65.298ZM51.722 57.261C52.786 57.261 53.717 57.052 54.515 56.634C55.351 56.216 55.997 55.627 56.453 54.867C56.909 54.107 57.137 53.214 57.137 52.188C57.137 50.668 56.624 49.452 55.598 48.54C54.61 47.628 53.299 47.172 51.665 47.172C50.563 47.172 49.594 47.381 48.758 47.799C47.96 48.217 47.314 48.806 46.82 49.566C46.364 50.326 46.136 51.219 46.136 52.245C46.136 53.233 46.364 54.107 46.82 54.867C47.276 55.589 47.922 56.178 48.758 56.634C49.594 57.052 50.582 57.261 51.722 57.261Z" fill="white"/>
</g>
<defs>
<clipPath id="clip0_205_84">
<rect width="104" height="90" fill="white"/>
</clipPath>
</defs>
</svg>
