<svg width="104" height="90" viewBox="0 0 104 90" fill="none" xmlns="http://www.w3.org/2000/svg">
<g clip-path="url(#clip0_205_218)">
<mask id="mask0_205_218" style="mask-type:luminance" maskUnits="userSpaceOnUse" x="0" y="0" width="104" height="90">
<path d="M104 0H0V90H104V0Z" fill="white"/>
</mask>
<g mask="url(#mask0_205_218)">
<mask id="mask1_205_218" style="mask-type:luminance" maskUnits="userSpaceOnUse" x="0" y="0" width="104" height="90">
<path d="M104 0H0V90H104V0Z" fill="white"/>
</mask>
<g mask="url(#mask1_205_218)">
<mask id="mask2_205_218" style="mask-type:luminance" maskUnits="userSpaceOnUse" x="0" y="0" width="104" height="90">
<path d="M103.133 0.332031H0V89.9871H103.133V0.332031Z" fill="white"/>
</mask>
<g mask="url(#mask2_205_218)">
<path d="M100.734 45.1605L76.1466 87.9087H26.9857L2.39844 45.1605L26.9857 2.41211H76.1466L100.734 45.1605Z" fill="#1F75BA" stroke="white" stroke-width="4.15858"/>
</g>
</g>
</g>
<path d="M51.538 66.298C48.08 66.298 45.059 65.785 42.475 64.759C39.891 63.733 37.858 62.289 36.376 60.427C34.932 58.527 34.21 56.304 34.21 53.758C34.21 51.25 34.932 49.122 36.376 47.374C37.858 45.588 39.891 44.239 42.475 43.327C45.097 42.377 48.118 41.902 51.538 41.902C54.958 41.902 57.96 42.377 60.544 43.327C63.166 44.239 65.199 45.588 66.643 47.374C68.125 49.122 68.866 51.25 68.866 53.758C68.866 56.304 68.144 58.527 66.7 60.427C65.256 62.289 63.223 63.733 60.601 64.759C58.017 65.785 54.996 66.298 51.538 66.298ZM51.538 58.375C53.362 58.375 54.806 57.938 55.87 57.064C56.972 56.19 57.523 54.974 57.523 53.416C57.523 51.896 56.972 50.699 55.87 49.825C54.806 48.913 53.362 48.457 51.538 48.457C49.714 48.457 48.251 48.913 47.149 49.825C46.085 50.699 45.553 51.896 45.553 53.416C45.553 54.974 46.085 56.19 47.149 57.064C48.251 57.938 49.714 58.375 51.538 58.375ZM51.538 47.488C48.422 47.488 45.667 47.051 43.273 46.177C40.917 45.303 39.055 44.049 37.687 42.415C36.319 40.743 35.635 38.748 35.635 36.43C35.635 34.036 36.3 31.984 37.63 30.274C38.998 28.564 40.879 27.234 43.273 26.284C45.667 25.296 48.422 24.802 51.538 24.802C54.692 24.802 57.447 25.296 59.803 26.284C62.197 27.234 64.059 28.564 65.389 30.274C66.757 31.984 67.441 34.036 67.441 36.43C67.441 38.748 66.757 40.743 65.389 42.415C64.059 44.049 62.197 45.303 59.803 46.177C57.409 47.051 54.654 47.488 51.538 47.488ZM51.538 41.104C52.982 41.104 54.141 40.743 55.015 40.021C55.889 39.261 56.326 38.235 56.326 36.943C56.326 35.575 55.87 34.53 54.958 33.808C54.084 33.086 52.944 32.725 51.538 32.725C50.132 32.725 48.992 33.086 48.118 33.808C47.244 34.53 46.807 35.575 46.807 36.943C46.807 38.235 47.244 39.261 48.118 40.021C48.992 40.743 50.132 41.104 51.538 41.104Z" fill="white"/>
</g>
<defs>
<clipPath id="clip0_205_218">
<rect width="104" height="90" fill="white"/>
</clipPath>
</defs>
</svg>
