<svg width="104" height="90" viewBox="0 0 104 90" fill="none" xmlns="http://www.w3.org/2000/svg">
<g clip-path="url(#clip0_205_190)">
<mask id="mask0_205_190" style="mask-type:luminance" maskUnits="userSpaceOnUse" x="0" y="0" width="104" height="90">
<path d="M104 0H0V90H104V0Z" fill="white"/>
</mask>
<g mask="url(#mask0_205_190)">
<mask id="mask1_205_190" style="mask-type:luminance" maskUnits="userSpaceOnUse" x="0" y="0" width="104" height="90">
<path d="M104 0H0V90H104V0Z" fill="white"/>
</mask>
<g mask="url(#mask1_205_190)">
<mask id="mask2_205_190" style="mask-type:luminance" maskUnits="userSpaceOnUse" x="0" y="0" width="104" height="90">
<path d="M103.133 0.332031H0V89.9871H103.133V0.332031Z" fill="white"/>
</mask>
<g mask="url(#mask2_205_190)">
<path d="M100.734 45.1605L76.1466 87.9087H26.9857L2.39844 45.1605L26.9857 2.41211H76.1466L100.734 45.1605Z" fill="#1F75BA" stroke="white" stroke-width="4.15858"/>
</g>
</g>
</g>
<path d="M50.53 24.802C54.292 24.802 57.541 25.543 60.277 27.025C63.051 28.507 65.198 30.711 66.718 33.637C68.276 36.525 69.055 40.135 69.055 44.467C69.055 49.103 68.143 53.055 66.319 56.323C64.533 59.553 62.044 62.023 58.852 63.733C55.698 65.443 52.012 66.298 47.794 66.298C45.59 66.298 43.462 66.032 41.41 65.5C39.358 65.006 37.591 64.303 36.109 63.391L40.213 55.297C41.353 56.095 42.531 56.646 43.747 56.95C45.001 57.216 46.274 57.349 47.566 57.349C50.644 57.349 53.095 56.418 54.919 54.556C56.743 52.694 57.655 49.977 57.655 46.405C57.655 45.759 57.655 45.094 57.655 44.41C57.655 43.688 57.598 42.966 57.484 42.244L60.277 44.581C59.593 45.987 58.7 47.165 57.598 48.115C56.496 49.065 55.204 49.787 53.722 50.281C52.24 50.775 50.549 51.022 48.649 51.022C46.141 51.022 43.842 50.509 41.752 49.483C39.7 48.419 38.047 46.956 36.793 45.094C35.539 43.194 34.912 40.971 34.912 38.425C34.912 35.651 35.615 33.257 37.021 31.243C38.427 29.191 40.308 27.614 42.664 26.512C45.02 25.372 47.642 24.802 50.53 24.802ZM51.271 32.839C50.207 32.839 49.276 33.048 48.478 33.466C47.68 33.884 47.034 34.473 46.54 35.233C46.084 35.955 45.856 36.848 45.856 37.912C45.856 39.432 46.35 40.648 47.338 41.56C48.364 42.472 49.694 42.928 51.328 42.928C52.43 42.928 53.399 42.719 54.235 42.301C55.071 41.883 55.717 41.294 56.173 40.534C56.629 39.774 56.857 38.881 56.857 37.855C56.857 36.867 56.629 36.012 56.173 35.29C55.717 34.53 55.071 33.941 54.235 33.523C53.399 33.067 52.411 32.839 51.271 32.839Z" fill="white"/>
</g>
<defs>
<clipPath id="clip0_205_190">
<rect width="104" height="90" fill="white"/>
</clipPath>
</defs>
</svg>
