<svg width="603" height="475" viewBox="0 0 603 475" fill="none" xmlns="http://www.w3.org/2000/svg">
<g clip-path="url(#clip0_1_1549)">
<path d="M129.214 1.61914H479.491C482.192 1.61914 484.783 2.6907 486.694 4.5981C488.604 6.5055 489.677 9.09248 489.677 11.7899V255.152H119.129V11.7518C119.139 9.07848 120.202 6.51654 122.09 4.62026C123.977 2.72398 126.536 1.64586 129.214 1.61914Z" fill="#263238" stroke="#263238" stroke-width="1.00965" stroke-linecap="round" stroke-linejoin="round"/>
<path d="M545.26 367.221H63.483L119.065 255.152H489.665L545.26 367.221Z" fill="#4F5865" stroke="#263238" stroke-width="1.00965" stroke-linecap="round" stroke-linejoin="round"/>
<path d="M467.215 21.6938H141.515V235.077H467.215V21.6938Z" fill="#1F75BA" stroke="#263238" stroke-width="1.00965" stroke-linecap="round" stroke-linejoin="round"/>
<path d="M288.906 290.623L289.556 276.968H269.972L268.673 290.623H288.906Z" fill="#263238" stroke="white" stroke-width="1.00965" stroke-linecap="round" stroke-linejoin="round"/>
<path d="M329.387 290.623L328.712 276.968H309.127L309.14 290.623H329.387Z" fill="#263238" stroke="white" stroke-width="1.00965" stroke-linecap="round" stroke-linejoin="round"/>
<path d="M434.783 305.23H455.717L450.802 290.623H430.568L434.783 305.23Z" fill="#263238" stroke="white" stroke-width="1.00965" stroke-linecap="round" stroke-linejoin="round"/>
<path d="M268.673 290.623L269.971 276.968H250.387L248.439 290.623H268.673Z" fill="#263238" stroke="white" stroke-width="1.00965" stroke-linecap="round" stroke-linejoin="round"/>
<path d="M228.205 290.623L230.803 276.968H211.219L207.959 290.623H228.205Z" fill="#263238" stroke="white" stroke-width="1.00965" stroke-linecap="round" stroke-linejoin="round"/>
<path d="M410.334 290.623L407.036 276.968H387.465L390.088 290.623H410.334Z" fill="#263238" stroke="white" stroke-width="1.00965" stroke-linecap="round" stroke-linejoin="round"/>
<path d="M430.568 290.623L426.62 276.968H407.036L410.334 290.623H430.568Z" fill="#263238" stroke="white" stroke-width="1.00965" stroke-linecap="round" stroke-linejoin="round"/>
<path d="M207.959 290.623L211.219 276.968H191.647L187.725 290.623H207.959Z" fill="#263238" stroke="white" stroke-width="1.00965" stroke-linecap="round" stroke-linejoin="round"/>
<path d="M349.62 290.623L348.296 276.968H328.712L329.386 290.623H349.62Z" fill="#263238" stroke="white" stroke-width="1.00965" stroke-linecap="round" stroke-linejoin="round"/>
<path d="M450.802 290.623L446.205 276.968H426.621L430.568 290.623H450.802Z" fill="#263238" stroke="white" stroke-width="1.00965" stroke-linecap="round" stroke-linejoin="round"/>
<path d="M390.088 290.623L387.465 276.968H367.88L369.854 290.623H390.088Z" fill="#263238" stroke="white" stroke-width="1.00965" stroke-linecap="round" stroke-linejoin="round"/>
<path d="M369.854 290.623L367.88 276.968H348.296L349.62 290.623H369.854Z" fill="#263238" stroke="white" stroke-width="1.00965" stroke-linecap="round" stroke-linejoin="round"/>
<path d="M309.14 290.623L309.127 276.968H289.556L288.906 290.623H309.14Z" fill="#263238" stroke="white" stroke-width="1.00965" stroke-linecap="round" stroke-linejoin="round"/>
<path d="M167.491 290.623H147.258L141.667 305.23H162.602L167.491 290.623Z" fill="#263238" stroke="white" stroke-width="1.00965" stroke-linecap="round" stroke-linejoin="round"/>
<path d="M172.063 276.968H152.478L147.258 290.623H167.491L172.063 276.968Z" fill="#263238" stroke="white" stroke-width="1.00965" stroke-linecap="round" stroke-linejoin="round"/>
<path d="M187.725 290.623L191.647 276.968H172.062L167.491 290.623H187.725Z" fill="#263238" stroke="white" stroke-width="1.00965" stroke-linecap="round" stroke-linejoin="round"/>
<path d="M135.683 320.881L129.24 337.688H151.74L157.368 320.881H135.683Z" fill="#263238" stroke="white" stroke-width="1.00965" stroke-linecap="round" stroke-linejoin="round"/>
<path d="M162.601 305.23H141.667L135.683 320.881H157.368L162.601 305.23Z" fill="#263238" stroke="white" stroke-width="1.00965" stroke-linecap="round" stroke-linejoin="round"/>
<path d="M157.368 320.881L151.74 337.688H174.227L179.054 320.881H157.368Z" fill="#263238" stroke="white" stroke-width="1.00965" stroke-linecap="round" stroke-linejoin="round"/>
<path d="M248.439 290.623L250.387 276.968H230.803L228.205 290.623H248.439Z" fill="#263238" stroke="white" stroke-width="1.00965" stroke-linecap="round" stroke-linejoin="round"/>
<path d="M246.351 305.23L248.439 290.623H228.205L225.416 305.23H246.351Z" fill="#263238" stroke="white" stroke-width="1.00965" stroke-linecap="round" stroke-linejoin="round"/>
<path d="M225.416 305.23L228.205 290.623H207.959L204.47 305.23H225.416Z" fill="#263238" stroke="white" stroke-width="1.00965" stroke-linecap="round" stroke-linejoin="round"/>
<path d="M267.285 305.23L268.673 290.623H248.439L246.35 305.23H267.285Z" fill="#263238" stroke="white" stroke-width="1.00965" stroke-linecap="round" stroke-linejoin="round"/>
<path d="M187.725 290.623H167.491L162.602 305.23H183.536L187.725 290.623Z" fill="#263238" stroke="white" stroke-width="1.00965" stroke-linecap="round" stroke-linejoin="round"/>
<path d="M439.291 320.881H460.976L455.717 305.23H434.783L439.291 320.881Z" fill="#263238" stroke="white" stroke-width="1.00965" stroke-linecap="round" stroke-linejoin="round"/>
<path d="M204.47 305.23L207.959 290.623H187.725L183.536 305.23H204.47Z" fill="#263238" stroke="white" stroke-width="1.00965" stroke-linecap="round" stroke-linejoin="round"/>
<path d="M162.601 305.23L157.368 320.881H179.053L183.536 305.23H162.601Z" fill="#263238" stroke="white" stroke-width="1.00965" stroke-linecap="round" stroke-linejoin="round"/>
<path d="M392.902 305.23L390.088 290.623H369.854L371.968 305.23H392.902Z" fill="#263238" stroke="white" stroke-width="1.00965" stroke-linecap="round" stroke-linejoin="round"/>
<path d="M371.968 305.23L369.854 290.623H349.62L351.034 305.23H371.968Z" fill="#263238" stroke="white" stroke-width="1.00965" stroke-linecap="round" stroke-linejoin="round"/>
<path d="M434.783 305.23L430.568 290.623H410.334L413.836 305.23H434.783Z" fill="#263238" stroke="white" stroke-width="1.00965" stroke-linecap="round" stroke-linejoin="round"/>
<path d="M309.153 305.23L309.14 290.623H288.907L288.219 305.23H309.153Z" fill="#263238" stroke="white" stroke-width="1.00965" stroke-linecap="round" stroke-linejoin="round"/>
<path d="M351.034 305.23L349.62 290.623H329.387L330.1 305.23H351.034Z" fill="#263238" stroke="white" stroke-width="1.00965" stroke-linecap="round" stroke-linejoin="round"/>
<path d="M330.1 305.23L329.387 290.623H309.14L309.153 305.23H330.1Z" fill="#263238" stroke="white" stroke-width="1.00965" stroke-linecap="round" stroke-linejoin="round"/>
<path d="M288.219 305.23L288.907 290.623H268.673L267.285 305.23H288.219Z" fill="#263238" stroke="white" stroke-width="1.00965" stroke-linecap="round" stroke-linejoin="round"/>
<path d="M351.034 305.23L352.549 320.881H374.235L371.968 305.23H351.034Z" fill="#263238" stroke="white" stroke-width="1.00965" stroke-linecap="round" stroke-linejoin="round"/>
<path d="M371.968 305.23L374.235 320.881H395.92L392.902 305.23H371.968Z" fill="#263238" stroke="white" stroke-width="1.00965" stroke-linecap="round" stroke-linejoin="round"/>
<path d="M183.535 305.23L179.053 320.881H200.739L204.47 305.23H183.535Z" fill="#263238" stroke="white" stroke-width="1.00965" stroke-linecap="round" stroke-linejoin="round"/>
<path d="M392.902 305.23L395.92 320.881H417.605L413.836 305.23H392.902Z" fill="#263238" stroke="white" stroke-width="1.00965" stroke-linecap="round" stroke-linejoin="round"/>
<path d="M309.153 305.23L309.179 320.881H330.864L330.1 305.23H309.153Z" fill="#263238" stroke="white" stroke-width="1.00965" stroke-linecap="round" stroke-linejoin="round"/>
<path d="M413.836 305.23L417.605 320.881H439.291L434.783 305.23H413.836Z" fill="#263238" stroke="white" stroke-width="1.00965" stroke-linecap="round" stroke-linejoin="round"/>
<path d="M330.1 305.23L330.864 320.881H352.549L351.034 305.23H330.1Z" fill="#263238" stroke="white" stroke-width="1.00965" stroke-linecap="round" stroke-linejoin="round"/>
<path d="M225.416 305.23L222.424 320.881H244.109L246.35 305.23H225.416Z" fill="#263238" stroke="white" stroke-width="1.00965" stroke-linecap="round" stroke-linejoin="round"/>
<path d="M204.47 305.23L200.739 320.881H222.424L225.416 305.23H204.47Z" fill="#263238" stroke="white" stroke-width="1.00965" stroke-linecap="round" stroke-linejoin="round"/>
<path d="M288.219 305.23L287.481 320.881H309.179L309.153 305.23H288.219Z" fill="#263238" stroke="white" stroke-width="1.00965" stroke-linecap="round" stroke-linejoin="round"/>
<path d="M267.285 305.23L265.795 320.881H287.48L288.219 305.23H267.285Z" fill="#263238" stroke="white" stroke-width="1.00965" stroke-linecap="round" stroke-linejoin="round"/>
<path d="M246.35 305.23L244.109 320.881H265.795L267.285 305.23H246.35Z" fill="#263238" stroke="white" stroke-width="1.00965" stroke-linecap="round" stroke-linejoin="round"/>
<path d="M413.836 305.23L410.334 290.623H390.088L392.902 305.23H413.836Z" fill="#263238" stroke="white" stroke-width="1.00965" stroke-linecap="round" stroke-linejoin="round"/>
<path d="M172.063 276.968L176.736 262.983H157.826L152.478 276.968H172.063Z" fill="#263238" stroke="white" stroke-width="1.00965" stroke-linecap="round" stroke-linejoin="round"/>
<path d="M152.479 276.968H134.409L128.577 290.623H147.258L152.479 276.968Z" fill="#263238" stroke="white" stroke-width="1.00965" stroke-linecap="round" stroke-linejoin="round"/>
<path d="M157.826 262.983H140.368L134.409 276.968H152.478L157.826 262.983Z" fill="#263238" stroke="white" stroke-width="1.00965" stroke-linecap="round" stroke-linejoin="round"/>
<path d="M147.257 290.623H128.577L122.338 305.23H141.667L147.257 290.623Z" fill="#263238" stroke="white" stroke-width="1.00965" stroke-linecap="round" stroke-linejoin="round"/>
<path d="M141.667 305.23H122.338L115.653 320.881H135.683L141.667 305.23Z" fill="#263238" stroke="white" stroke-width="1.00965" stroke-linecap="round" stroke-linejoin="round"/>
<path d="M135.683 320.881H115.653L108.484 337.688H129.239L135.683 320.881Z" fill="#263238" stroke="white" stroke-width="1.00965" stroke-linecap="round" stroke-linejoin="round"/>
<path d="M471.036 290.623L476.651 305.23H495.179L488.939 290.623H471.036Z" fill="#263238" stroke="white" stroke-width="1.00965" stroke-linecap="round" stroke-linejoin="round"/>
<path d="M482.674 320.881H501.851L495.178 305.23H476.651L482.674 320.881Z" fill="#263238" stroke="white" stroke-width="1.00965" stroke-linecap="round" stroke-linejoin="round"/>
<path d="M489.13 337.688H509.033L501.851 320.881H482.674L489.13 337.688Z" fill="#263238" stroke="white" stroke-width="1.00965" stroke-linecap="round" stroke-linejoin="round"/>
<path d="M328.712 276.968L328.037 262.983H309.115L309.127 276.968H328.712Z" fill="#263238" stroke="white" stroke-width="1.00965" stroke-linecap="round" stroke-linejoin="round"/>
<path d="M471.036 290.623H488.939L483.107 276.968H465.789L471.036 290.623Z" fill="#263238" stroke="white" stroke-width="1.00965" stroke-linecap="round" stroke-linejoin="round"/>
<path d="M460.976 320.881H482.674L476.651 305.23H455.717L460.976 320.881Z" fill="#263238" stroke="white" stroke-width="1.00965" stroke-linecap="round" stroke-linejoin="round"/>
<path d="M191.647 276.968L195.645 262.983H176.736L172.063 276.968H191.647Z" fill="#263238" stroke="white" stroke-width="1.00965" stroke-linecap="round" stroke-linejoin="round"/>
<path d="M446.205 276.968L450.802 290.623H471.036L465.789 276.968H446.205Z" fill="#263238" stroke="white" stroke-width="1.00965" stroke-linecap="round" stroke-linejoin="round"/>
<path d="M483.107 276.968L477.135 262.983H460.416L465.789 276.968H483.107Z" fill="#263238" stroke="white" stroke-width="1.00965" stroke-linecap="round" stroke-linejoin="round"/>
<path d="M465.789 276.968L460.416 262.983H441.506L446.205 276.968H465.789Z" fill="#263238" stroke="white" stroke-width="1.00965" stroke-linecap="round" stroke-linejoin="round"/>
<path d="M395.92 320.881L399.167 337.688H421.655L417.605 320.881H395.92Z" fill="#263238" stroke="white" stroke-width="1.00965" stroke-linecap="round" stroke-linejoin="round"/>
<path d="M466.643 337.688H489.13L482.674 320.881H460.976L466.643 337.688Z" fill="#263238" stroke="white" stroke-width="1.00965" stroke-linecap="round" stroke-linejoin="round"/>
<path d="M446.205 276.968L441.506 262.983H422.584L426.621 276.968H446.205Z" fill="#263238" stroke="white" stroke-width="1.00965" stroke-linecap="round" stroke-linejoin="round"/>
<path d="M439.291 320.881L444.142 337.688H466.643L460.976 320.881H439.291Z" fill="#263238" stroke="white" stroke-width="1.00965" stroke-linecap="round" stroke-linejoin="round"/>
<path d="M417.605 320.881L421.655 337.688H444.142L439.291 320.881H417.605Z" fill="#263238" stroke="white" stroke-width="1.00965" stroke-linecap="round" stroke-linejoin="round"/>
<path d="M455.717 305.23H476.651L471.035 290.623H450.802L455.717 305.23Z" fill="#263238" stroke="white" stroke-width="1.00965" stroke-linecap="round" stroke-linejoin="round"/>
<path d="M269.971 276.968L271.296 262.983H252.386L250.387 276.968H269.971Z" fill="#263238" stroke="white" stroke-width="1.00965" stroke-linecap="round" stroke-linejoin="round"/>
<path d="M426.621 276.968L422.584 262.983H403.675L407.037 276.968H426.621Z" fill="#263238" stroke="white" stroke-width="1.00965" stroke-linecap="round" stroke-linejoin="round"/>
<path d="M250.387 276.968L252.386 262.983H233.477L230.803 276.968H250.387Z" fill="#263238" stroke="white" stroke-width="1.00965" stroke-linecap="round" stroke-linejoin="round"/>
<path d="M309.128 276.968L309.115 262.983H290.205L289.556 276.968H309.128Z" fill="#263238" stroke="white" stroke-width="1.00965" stroke-linecap="round" stroke-linejoin="round"/>
<path d="M230.803 276.968L233.477 262.983H214.568L211.219 276.968H230.803Z" fill="#263238" stroke="white" stroke-width="1.00965" stroke-linecap="round" stroke-linejoin="round"/>
<path d="M211.218 276.968L214.567 262.983H195.645L191.647 276.968H211.218Z" fill="#263238" stroke="white" stroke-width="1.00965" stroke-linecap="round" stroke-linejoin="round"/>
<path d="M289.556 276.968L290.205 262.983H271.296L269.971 276.968H289.556Z" fill="#263238" stroke="white" stroke-width="1.00965" stroke-linecap="round" stroke-linejoin="round"/>
<path d="M407.036 276.968L403.675 262.983H384.765L387.465 276.968H407.036Z" fill="#263238" stroke="white" stroke-width="1.00965" stroke-linecap="round" stroke-linejoin="round"/>
<path d="M387.465 276.968L384.765 262.983H365.856L367.88 276.968H387.465Z" fill="#263238" stroke="white" stroke-width="1.00965" stroke-linecap="round" stroke-linejoin="round"/>
<path d="M348.296 276.968L346.946 262.983H328.037L328.712 276.968H348.296Z" fill="#263238" stroke="white" stroke-width="1.00965" stroke-linecap="round" stroke-linejoin="round"/>
<path d="M395.92 320.881H374.234H352.549H330.864H309.178H287.48H265.795H244.109H222.424H200.739H179.053L174.227 337.688H196.728H219.215H241.703H264.203H286.691H309.191H331.679H354.179H376.667H399.167L395.92 320.881Z" fill="#263238" stroke="white" stroke-width="1.00965" stroke-linecap="round" stroke-linejoin="round"/>
<path d="M367.881 276.968L365.856 262.983H346.947L348.296 276.968H367.881Z" fill="#263238" stroke="white" stroke-width="1.00965" stroke-linecap="round" stroke-linejoin="round"/>
<path d="M545.476 367.221H63.483V374.048H545.476V367.221Z" fill="#263238" stroke="#263238" stroke-width="1.00965" stroke-linecap="round" stroke-linejoin="round"/>
<path d="M162.512 38.5264H183.51" stroke="#263238" stroke-width="3.02896" stroke-linecap="round" stroke-linejoin="round"/>
<path d="M162.512 49.2822H241.397" stroke="white" stroke-width="3.02896" stroke-linecap="round" stroke-linejoin="round"/>
<path d="M284.526 49.2822H363.41" stroke="white" stroke-width="3.02896" stroke-linecap="round" stroke-linejoin="round"/>
<path d="M246.503 49.2822H277.726" stroke="#263238" stroke-width="3.02896" stroke-linecap="round" stroke-linejoin="round"/>
<path d="M162.512 60.0503H207.921" stroke="#263238" stroke-width="3.02896" stroke-linecap="round" stroke-linejoin="round"/>
<path d="M213.587 60.0503H258.995" stroke="#263238" stroke-width="3.02896" stroke-linecap="round" stroke-linejoin="round"/>
<path d="M264.661 60.0503H310.07" stroke="#263238" stroke-width="3.02896" stroke-linecap="round" stroke-linejoin="round"/>
<path d="M315.748 60.0503H335.04" stroke="#263238" stroke-width="3.02896" stroke-linecap="round" stroke-linejoin="round"/>
<path d="M189.189 38.5264H210.187" stroke="#263238" stroke-width="3.02896" stroke-linecap="round" stroke-linejoin="round"/>
<path d="M314.042 38.5264H335.04" stroke="#263238" stroke-width="3.02896" stroke-linecap="round" stroke-linejoin="round"/>
<path d="M286.232 38.5264H307.23" stroke="white" stroke-width="3.02896" stroke-linecap="round" stroke-linejoin="round"/>
<path d="M215.866 38.5264H277.153" stroke="#263238" stroke-width="3.02896" stroke-linecap="round" stroke-linejoin="round"/>
<path d="M162.512 104.243H183.51" stroke="#263238" stroke-width="3.02896" stroke-linecap="round" stroke-linejoin="round"/>
<path d="M162.512 115.011H241.397" stroke="white" stroke-width="3.02896" stroke-linecap="round" stroke-linejoin="round"/>
<path d="M284.526 115.011H363.41" stroke="#263238" stroke-width="3.02896" stroke-linecap="round" stroke-linejoin="round"/>
<path d="M246.503 115.011H277.726" stroke="#263238" stroke-width="3.02896" stroke-linecap="round" stroke-linejoin="round"/>
<path d="M162.512 125.779H207.921" stroke="#263238" stroke-width="3.02896" stroke-linecap="round" stroke-linejoin="round"/>
<path d="M213.587 125.779H258.995" stroke="#263238" stroke-width="3.02896" stroke-linecap="round" stroke-linejoin="round"/>
<path d="M264.661 125.779H310.07" stroke="white" stroke-width="3.02896" stroke-linecap="round" stroke-linejoin="round"/>
<path d="M315.748 125.779H335.04" stroke="#263238" stroke-width="3.02896" stroke-linecap="round" stroke-linejoin="round"/>
<path d="M189.189 104.243H210.187" stroke="#263238" stroke-width="3.02896" stroke-linecap="round" stroke-linejoin="round"/>
<path d="M314.042 104.243H335.04" stroke="#263238" stroke-width="3.02896" stroke-linecap="round" stroke-linejoin="round"/>
<path d="M286.232 104.243H307.23" stroke="white" stroke-width="3.02896" stroke-linecap="round" stroke-linejoin="round"/>
<path d="M215.866 104.243H277.153" stroke="#263238" stroke-width="3.02896" stroke-linecap="round" stroke-linejoin="round"/>
<path d="M162.512 201.145H183.51" stroke="#263238" stroke-width="3.02896" stroke-linecap="round" stroke-linejoin="round"/>
<path d="M162.512 211.913H241.397" stroke="white" stroke-width="3.02896" stroke-linecap="round" stroke-linejoin="round"/>
<path d="M284.526 211.913H363.41" stroke="#263238" stroke-width="3.02896" stroke-linecap="round" stroke-linejoin="round"/>
<path d="M246.503 211.913H277.726" stroke="#263238" stroke-width="3.02896" stroke-linecap="round" stroke-linejoin="round"/>
<path d="M162.512 222.669H207.921" stroke="#263238" stroke-width="3.02896" stroke-linecap="round" stroke-linejoin="round"/>
<path d="M213.587 222.669H258.995" stroke="#263238" stroke-width="3.02896" stroke-linecap="round" stroke-linejoin="round"/>
<path d="M264.661 222.669H310.07" stroke="white" stroke-width="3.02896" stroke-linecap="round" stroke-linejoin="round"/>
<path d="M315.748 222.669H335.04" stroke="#263238" stroke-width="3.02896" stroke-linecap="round" stroke-linejoin="round"/>
<path d="M189.189 201.145H210.187" stroke="#263238" stroke-width="3.02896" stroke-linecap="round" stroke-linejoin="round"/>
<path d="M314.042 201.145H335.04" stroke="#263238" stroke-width="3.02896" stroke-linecap="round" stroke-linejoin="round"/>
<path d="M286.232 201.145H307.23" stroke="white" stroke-width="3.02896" stroke-linecap="round" stroke-linejoin="round"/>
<path d="M215.866 201.145H277.153" stroke="#263238" stroke-width="3.02896" stroke-linecap="round" stroke-linejoin="round"/>
<path d="M280.553 71.3906H301.551" stroke="#263238" stroke-width="3.02896" stroke-linecap="round" stroke-linejoin="round"/>
<path d="M252.743 71.3906H273.753" stroke="#263238" stroke-width="3.02896" stroke-linecap="round" stroke-linejoin="round"/>
<path d="M182.377 71.3906H243.664" stroke="#263238" stroke-width="3.02896" stroke-linecap="round" stroke-linejoin="round"/>
<path d="M280.553 90.6519H301.551" stroke="#263238" stroke-width="3.02896" stroke-linecap="round" stroke-linejoin="round"/>
<path d="M252.743 90.6519H273.753" stroke="#263238" stroke-width="3.02896" stroke-linecap="round" stroke-linejoin="round"/>
<path d="M182.377 90.6519H243.664" stroke="white" stroke-width="3.02896" stroke-linecap="round" stroke-linejoin="round"/>
<path d="M203.374 81.0146H182.377" stroke="#263238" stroke-width="3.02896" stroke-linecap="round" stroke-linejoin="round"/>
<path d="M231.185 81.0146H210.187" stroke="#263238" stroke-width="3.02896" stroke-linecap="round" stroke-linejoin="round"/>
<path d="M301.551 81.0146H240.264" stroke="white" stroke-width="3.02896" stroke-linecap="round" stroke-linejoin="round"/>
<path d="M280.553 138.811H301.551" stroke="#263238" stroke-width="3.02896" stroke-linecap="round" stroke-linejoin="round"/>
<path d="M252.743 138.811H273.753" stroke="#263238" stroke-width="3.02896" stroke-linecap="round" stroke-linejoin="round"/>
<path d="M182.377 138.811H243.664" stroke="#263238" stroke-width="3.02896" stroke-linecap="round" stroke-linejoin="round"/>
<path d="M280.553 158.084H301.551" stroke="#263238" stroke-width="3.02896" stroke-linecap="round" stroke-linejoin="round"/>
<path d="M252.743 158.084H273.753" stroke="#263238" stroke-width="3.02896" stroke-linecap="round" stroke-linejoin="round"/>
<path d="M182.377 158.084H243.664" stroke="white" stroke-width="3.02896" stroke-linecap="round" stroke-linejoin="round"/>
<path d="M203.374 148.447H182.377" stroke="#263238" stroke-width="3.02896" stroke-linecap="round" stroke-linejoin="round"/>
<path d="M231.185 148.447H210.187" stroke="#263238" stroke-width="3.02896" stroke-linecap="round" stroke-linejoin="round"/>
<path d="M301.551 148.447H240.264" stroke="white" stroke-width="3.02896" stroke-linecap="round" stroke-linejoin="round"/>
<path d="M203.374 169.412H182.377" stroke="#263238" stroke-width="3.02896" stroke-linecap="round" stroke-linejoin="round"/>
<path d="M231.185 169.412H210.187" stroke="#263238" stroke-width="3.02896" stroke-linecap="round" stroke-linejoin="round"/>
<path d="M301.551 169.412H240.264" stroke="white" stroke-width="3.02896" stroke-linecap="round" stroke-linejoin="round"/>
<path d="M203.374 188.673H182.377" stroke="#263238" stroke-width="3.02896" stroke-linecap="round" stroke-linejoin="round"/>
<path d="M231.185 188.673H210.187" stroke="#263238" stroke-width="3.02896" stroke-linecap="round" stroke-linejoin="round"/>
<path d="M301.551 188.673H240.264" stroke="white" stroke-width="3.02896" stroke-linecap="round" stroke-linejoin="round"/>
<path d="M280.553 179.049H301.551" stroke="#263238" stroke-width="3.02896" stroke-linecap="round" stroke-linejoin="round"/>
<path d="M252.743 179.049H273.753" stroke="#263238" stroke-width="3.02896" stroke-linecap="round" stroke-linejoin="round"/>
<path d="M182.377 179.049H243.664" stroke="white" stroke-width="3.02896" stroke-linecap="round" stroke-linejoin="round"/>
<path d="M154.732 34.7759H148.021V41.3869H154.732V34.7759Z" fill="#263238"/>
<path d="M154.732 45.646H148.021V52.257H154.732V45.646Z" fill="#263238"/>
<path d="M154.732 56.5029H148.021V63.114H154.732V56.5029Z" fill="#263238"/>
<path d="M154.732 67.3608H148.021V73.9719H154.732V67.3608Z" fill="#263238"/>
<path d="M154.732 78.2305H148.021V84.8415H154.732V78.2305Z" fill="#263238"/>
<path d="M154.732 89.0879H148.021V95.6989H154.732V89.0879Z" fill="#263238"/>
<path d="M154.732 99.9453H148.021V106.556H154.732V99.9453Z" fill="#263238"/>
<path d="M154.732 110.815H148.021V117.426H154.732V110.815Z" fill="#263238"/>
<path d="M154.732 121.672H148.021V128.283H154.732V121.672Z" fill="#263238"/>
<path d="M154.732 132.53H148.021V139.141H154.732V132.53Z" fill="#263238"/>
<path d="M154.732 143.4H148.021V150.011H154.732V143.4Z" fill="#263238"/>
<path d="M154.732 154.257H148.021V160.868H154.732V154.257Z" fill="#263238"/>
<path d="M154.732 165.115H148.021V171.726H154.732V165.115Z" fill="#263238"/>
<path d="M154.732 175.985H148.021V182.596H154.732V175.985Z" fill="#263238"/>
<path d="M154.732 186.842H148.021V193.453H154.732V186.842Z" fill="#263238"/>
<path d="M154.732 197.7H148.021V204.311H154.732V197.7Z" fill="#263238"/>
<path d="M154.732 208.569H148.021V215.18H154.732V208.569Z" fill="#263238"/>
<path d="M154.732 219.427H148.021V226.038H154.732V219.427Z" fill="#263238"/>
<path d="M407.991 374.799L452.088 411.147C454.297 416.42 457.214 421.368 460.759 425.856C466.833 433.65 537.925 463.081 537.925 463.081L550.06 466.539L417.414 366.993L407.991 374.799Z" fill="#263238" stroke="#263238" stroke-width="1.00965" stroke-linecap="round" stroke-linejoin="round"/>
<path d="M493.88 345.926C493.88 345.926 482.05 331.484 476.791 322.304C471.532 313.125 464.058 291.678 458.378 278.99C452.699 266.301 444.371 262.373 434.286 258.432C424.201 254.491 420.279 255.368 420.279 258C420.279 260.631 424.227 265.437 424.227 265.437L407.138 268.501C407.138 268.501 400.122 264.56 395.742 265.869C391.361 267.179 383.008 275.493 383.008 275.493C383.008 275.493 374.247 272.429 369.001 273.739C363.755 275.048 349.289 282.053 343.152 285.117C337.014 288.181 330.418 288.614 330.876 291.245C331.335 293.877 337.46 298.238 343.152 297.373C348.844 296.509 358.432 292.987 364.621 292.987C370.809 292.987 373.814 294.258 376.883 296.496C379.952 298.734 392.66 316.622 394.417 318.808C396.175 320.995 397.919 329.742 397.919 329.742C397.919 329.742 390.19 326.449 385.376 322.114C380.563 317.778 373.662 307.481 365.767 306.616C357.872 305.751 349.289 312.731 353.67 316.227C358.05 319.724 362.43 321.91 365.499 325.852C368.568 329.793 373.381 341.604 381.709 354.292C390.037 366.98 407.991 374.849 407.991 374.849L445.237 390.106C445.237 390.106 454.877 367.361 472.844 361.233C490.811 355.105 496.07 352.512 496.07 352.512L493.88 345.926Z" fill="white" stroke="#263238" stroke-width="1.00965" stroke-linecap="round" stroke-linejoin="round"/>
<path d="M330.876 291.245C330.876 291.245 335.155 290.152 336.39 289.745C337.357 289.339 338.255 288.786 339.051 288.105" stroke="#263238" stroke-width="1.00965" stroke-linecap="round" stroke-linejoin="round"/>
<path d="M383.021 275.493C383.021 275.493 403.203 286.77 408.895 289.821C411.238 291.093 416.79 293.635 418.496 299.407C419.619 303.353 421.721 306.952 424.609 309.87" stroke="#263238" stroke-width="1.00965" stroke-linecap="round" stroke-linejoin="round"/>
<path d="M407.125 268.501C407.125 268.501 426.837 283.757 428.149 284.24C429.46 284.723 434.286 285.118 436.477 289.059C438.667 293 440.857 297.373 440.857 297.373" stroke="#263238" stroke-width="1.00965" stroke-linecap="round" stroke-linejoin="round"/>
<path d="M424.214 265.437C424.214 265.437 431.218 264.166 433.853 269.365C436.489 274.565 447.86 287.304 447.86 287.304" stroke="#263238" stroke-width="1.00965" stroke-linecap="round" stroke-linejoin="round"/>
<path d="M361.552 321.86C361.552 321.86 366.811 319.241 364.175 315.3C361.539 311.358 356.293 311.371 356.293 311.371" stroke="#263238" stroke-width="1.00965" stroke-linecap="round" stroke-linejoin="round"/>
<path d="M493.001 340.243C493.001 340.243 469.342 346.358 454.444 362.988C439.545 379.617 439.545 393.615 440.857 395.801C442.168 397.988 470.602 413.295 470.602 413.295C470.602 413.295 488.124 379.604 500.399 371.341C512.674 363.077 521.537 360.801 521.537 360.801C521.537 360.801 499.635 346.816 498.757 345.049C497.878 343.282 496.07 338.921 493.001 340.243Z" fill="#1F75BA" stroke="#263238" stroke-width="1.00965" stroke-linecap="round" stroke-linejoin="round"/>
<path d="M559.598 471.917C559.598 471.917 535.493 459.661 529.801 456.597L485.106 432.607C482.562 431.92 480.072 431.044 477.657 429.988C475.034 428.717 471.086 429.111 469.342 419.919C467.597 410.727 471.965 392.356 491.689 373.985C511.414 355.614 523.664 356.491 523.664 356.491C523.664 356.491 531.991 355.614 534.182 357.369C536.372 359.123 536.817 364.361 539.008 365.238C541.198 366.115 601.823 384.308 601.823 384.308" fill="#1F75BA"/>
<path d="M559.598 471.917C559.598 471.917 535.493 459.661 529.801 456.597L485.106 432.607C482.562 431.92 480.072 431.044 477.657 429.988C475.034 428.717 471.086 429.111 469.342 419.919C467.597 410.727 471.965 392.356 491.689 373.985C511.414 355.614 523.664 356.491 523.664 356.491C523.664 356.491 531.991 355.614 534.182 357.369C536.372 359.123 536.817 364.361 539.008 365.238C541.198 366.115 601.823 384.308 601.823 384.308" stroke="#263238" stroke-width="1.00965" stroke-linecap="round" stroke-linejoin="round"/>
<path d="M490.811 404.548C490.811 404.548 488.175 417.669 494.312 428.602" stroke="#263238" stroke-width="1.00965" stroke-linecap="round" stroke-linejoin="round"/>
<path d="M496.936 421.61C496.936 421.61 494.313 422.487 501.329 433.853" stroke="#263238" stroke-width="1.00965" stroke-linecap="round" stroke-linejoin="round"/>
<path d="M226.945 336.188C226.945 336.188 198.065 370.514 189.393 377.379C184.193 381.539 178.685 385.301 172.916 388.631L141.706 419.804C141.706 419.804 142.572 424.127 133.913 429.327C125.254 434.526 107.898 440.578 103.568 442.307C99.239 444.036 51.5388 465.662 51.5388 465.662L226.945 336.188Z" fill="#263238" stroke="#263238" stroke-width="1.00965" stroke-linecap="round" stroke-linejoin="round"/>
<path d="M268.838 283.745C265.807 284.66 254.831 284.05 254.831 284.05C254.831 284.05 248.158 278.964 244.822 275.862C241.486 272.76 232.98 254.948 228.727 254.033C224.474 253.118 206.558 263.441 206.558 263.441C206.558 263.441 191.99 257.084 188.349 257.682C184.707 258.279 172.852 268.895 172.852 268.895C172.852 268.895 156.464 266.467 153.42 271.323C150.377 276.18 145.525 291.665 140.687 301.327C135.848 310.99 118.212 336.798 118.212 336.798L115.792 340.129C115.792 340.129 119.434 341.4 130.665 347.109C141.896 352.817 159.812 380.164 159.812 380.164C159.812 380.164 184.707 368.645 198.675 362.276C212.644 355.906 223.875 341.934 226.919 336.2C229.962 330.467 235.119 324.987 241.486 319.838C247.853 314.689 259.708 312.553 262.446 308.917C265.183 305.281 260.612 299.827 260.612 299.827C262.297 298.92 263.922 297.905 265.476 296.789C266.991 295.517 273.116 292.25 273.677 288.614C274.237 284.978 271.881 282.842 268.838 283.745ZM222.08 312.846L227.848 295.301C230.28 297.119 240.913 301.06 240.913 301.06C233.922 302.84 222.08 312.846 222.08 312.846Z" fill="white" stroke="#263238" stroke-width="1.00965" stroke-linecap="round" stroke-linejoin="round"/>
<path d="M161.354 288.944C161.354 288.944 160.449 283.782 161.061 281.964C161.672 280.146 172.89 268.933 172.89 268.933" stroke="#263238" stroke-width="1.00965" stroke-linecap="round" stroke-linejoin="round"/>
<path d="M171.069 294.97L173.501 287.088L206.596 263.441" stroke="#263238" stroke-width="1.00965" stroke-linecap="round" stroke-linejoin="round"/>
<path d="M187.47 300.717C187.47 300.717 188.68 293.089 190.208 291.932C191.736 290.775 203.26 287.991 203.26 287.991C203.26 287.991 220.871 272.836 223.901 272.836C226.932 272.836 249.101 284.66 254.869 284.05" stroke="#263238" stroke-width="1.00965" stroke-linecap="round" stroke-linejoin="round"/>
<path d="M264.585 285.257C264.585 285.257 260.638 285.257 262.764 287.698C264.891 290.139 269.437 288.97 271.563 288.309" stroke="#263238" stroke-width="1.00965" stroke-linecap="round" stroke-linejoin="round"/>
<path d="M240.913 301.022C240.913 301.022 251.839 294.666 260.638 299.815" stroke="#263238" stroke-width="1.00965" stroke-linecap="round" stroke-linejoin="round"/>
<path d="M257.951 301.658L251.877 303.781C252.983 305.917 253.899 308.146 254.614 310.443L254.907 312.274" stroke="#263238" stroke-width="1.00965" stroke-linecap="round" stroke-linejoin="round"/>
<path d="M222.08 312.858L216.618 324.974" stroke="#263238" stroke-width="1.00965" stroke-linecap="round" stroke-linejoin="round"/>
<path d="M77.8588 359.835C77.8588 359.835 96.9593 347.414 103.976 342.252C110.992 337.091 114.595 338.006 118.237 336.798C121.879 335.59 140.101 341.07 152.261 356.199C164.422 371.328 163.187 382.567 161.672 385.605C160.156 388.644 121.904 411.681 121.904 411.681C121.904 411.681 116.429 389.852 100.346 376.808C84.2638 363.764 77.8588 359.835 77.8588 359.835Z" fill="#1F75BA" stroke="#263238" stroke-width="1.00965" stroke-linecap="round" stroke-linejoin="round"/>
<path d="M1.34259 396.106C1.34259 396.106 36.7803 374.493 42.6887 370.934C48.5971 367.374 55.4223 362.543 55.4223 362.543C55.4223 362.543 57.2814 353.186 66.2968 352.868C75.3122 352.55 84.0221 356.097 95.8261 362.543C107.63 368.989 122.248 392.559 123.84 401.955C125.432 411.35 128.501 414.21 126.018 420.338C123.535 426.466 114.201 426.797 112.342 426.797C110.483 426.797 106.128 430.674 106.128 430.674L39.6072 473.9" fill="#1F75BA"/>
<path d="M1.34259 396.106C1.34259 396.106 36.7803 374.493 42.6887 370.934C48.5971 367.374 55.4223 362.543 55.4223 362.543C55.4223 362.543 57.2814 353.186 66.2968 352.868C75.3123 352.55 84.0221 356.097 95.8261 362.543C107.63 368.989 122.248 392.559 123.84 401.955C125.432 411.35 128.501 414.21 126.018 420.338C123.535 426.466 114.201 426.797 112.342 426.797C110.483 426.797 106.128 430.674 106.128 430.674L39.6072 473.9" stroke="#263238" stroke-width="1.00965" stroke-linecap="round" stroke-linejoin="round"/>
<path d="M111.298 410.333C111.298 410.333 114.073 412.393 108.522 421.05" stroke="#263238" stroke-width="1.00965" stroke-linecap="round" stroke-linejoin="round"/>
<path d="M107.325 414.452C107.325 414.452 106.93 423.53 98.5892 431.768" stroke="#263238" stroke-width="1.00965" stroke-linecap="round" stroke-linejoin="round"/>
</g>
<defs>
<clipPath id="clip0_1_1549">
<rect width="601.753" height="473.527" fill="white" transform="translate(0.706055 0.983398)"/>
</clipPath>
</defs>
</svg>
