<svg width="1520" height="1403" viewBox="0 0 1520 1403" fill="none" xmlns="http://www.w3.org/2000/svg">
<path d="M1492.24 293.633L1519.7 245.611L1492.24 197.563L1519.78 149.668L1492.39 102.028L1519.68 54.3243L1489.41 0.691197L1429.56 0.295898L1401.55 48.9559H1346.32L1319.06 96.1368H1264.36L1236.58 144.797H1181.26L1154.09 191.939H1104.58L1077.28 144.797H1016.42L989.123 191.939L939.607 191.901L912.592 144.797H851.22L824.154 191.901L769.73 191.939L741.669 240.561L686.454 240.599L659.185 287.704H604.505L574.074 341.273L601.458 389.168L576.7 432.179L521.472 432.205L494.203 479.309L439.829 479.347L411.718 527.982L356.427 528.02L329.233 575.124L274.465 575.15L244.021 628.923L271.507 676.589L243.88 724.394L271.507 772.391L244.11 820.503L271.507 868.194L246.621 911.192L192.375 911.23L164.264 959.852L108.96 959.89L81.7795 1006.99L30.8353 1007.03L0.378464 1060.79L27.8776 1108.46L0.250977 1156.26L33.1811 1204.77L86.777 1205.35L114.71 1157.16L164.596 1158.59L194.81 1208.41L164.596 1251.68L197.245 1304.25H246.749L274.732 1352.78L334.664 1352.91L362.393 1304.25L417.748 1304.4L447.593 1252.48L419.928 1204.26L444.686 1161.3H493.871L521.6 1208.43L582.463 1208.15L609.656 1161.26L664.412 1160.97L692.153 1112.6L747.585 1112.64L774.638 1065.46H829.394L857.122 1016.8H906.639L934.584 1065.5L994.236 1065.46L1024.67 1011.88L997.487 964.264L1022.09 921.036L1071.61 920.998L1099.35 969.658H1159.43L1187.06 920.998H1242.31L1272.25 868.742L1244.79 821.051L1272.31 773.016L1244.79 725.516L1272.25 677.494L1244.79 629.446L1272.31 581.551L1271.78 580.607L1272.12 579.995L1245.37 533.146L1270.53 489.153L1319.06 489.115L1346.82 537.775H1406.89L1434.53 489.115H1489.77L1519.7 436.872L1492.24 389.168L1519.78 341.133L1492.24 293.633Z" fill="#1F75BA"/>
<path d="M563.733 1235.03L543.105 1290.25L549.479 1292.67L570.12 1237.46L563.733 1235.03Z" fill="#DCDEE0"/>
<path d="M579.557 1264.17L568.236 1275.52L573.093 1280.4L589.284 1264.17L573.093 1247.93L568.236 1252.8L579.557 1264.17Z" fill="#DCDEE0"/>
<path d="M545.569 1275.52L534.236 1264.15L545.569 1252.8L540.687 1247.93L524.521 1264.15L540.687 1280.4L545.569 1275.52Z" fill="#DCDEE0"/>
<path d="M582.997 1306.89L607.755 1263.89L582.997 1220.89H533.468L508.71 1263.89L533.468 1306.89H582.997ZM537.93 1228.59H578.535L598.856 1263.89L578.535 1299.17H537.93L517.621 1263.89L537.93 1228.59Z" fill="#DCDEE0"/>
<path d="M563.733 1330.84L543.105 1386.05L549.479 1388.47L570.12 1333.26L563.733 1330.84Z" fill="#DCDEE0"/>
<path d="M579.557 1359.97L568.236 1371.34L573.093 1376.21L589.284 1359.97L573.093 1343.73L568.236 1348.6L579.557 1359.97Z" fill="#DCDEE0"/>
<path d="M545.569 1371.34L534.236 1359.95L545.569 1348.6L540.687 1343.73L524.521 1359.95L540.687 1376.18L545.569 1371.34Z" fill="#DCDEE0"/>
<path d="M582.997 1402.69L607.755 1359.69L582.997 1316.7H533.468L508.71 1359.69L533.468 1402.69H582.997ZM537.93 1324.4H578.535L598.856 1359.69L578.535 1394.98H537.93L517.621 1359.69L537.93 1324.4Z" fill="#DCDEE0"/>
<path d="M646.22 1186.37L625.593 1241.59L631.967 1244.01L652.607 1188.8L646.22 1186.37Z" fill="#DCDEE0"/>
<path d="M662.041 1215.51L650.72 1226.86L655.577 1231.74L671.781 1215.51L655.577 1199.27L650.72 1204.14L662.041 1215.51Z" fill="#DCDEE0"/>
<path d="M628.079 1226.86L616.745 1215.49L628.079 1204.14L623.196 1199.27L607.005 1215.51L623.171 1231.77L628.079 1226.86Z" fill="#DCDEE0"/>
<path d="M665.481 1258.23L690.239 1215.23L665.481 1172.23H615.952L591.194 1215.23L615.952 1258.23H665.481ZM620.427 1179.93H661.032L681.43 1215.23L661.032 1250.51H620.427L600.131 1215.23L620.427 1179.93Z" fill="#DCDEE0"/>
<path d="M646.22 1282.18L625.593 1337.39L631.967 1339.81L652.607 1284.6L646.22 1282.18Z" fill="#DCDEE0"/>
<path d="M662.041 1311.31L650.72 1322.68L655.577 1327.55L671.781 1311.31L655.577 1295.07L650.72 1299.94L662.041 1311.31Z" fill="#DCDEE0"/>
<path d="M628.077 1322.62L616.743 1311.24L628.077 1299.89L623.194 1295.02L607.029 1311.24L623.194 1327.5L628.077 1322.62Z" fill="#DCDEE0"/>
<path d="M665.481 1354.03L690.239 1311.03L665.481 1268.04H615.952L591.194 1311.03L615.952 1354.03H665.481ZM620.414 1275.74H661.019L681.417 1311.03L661.019 1346.32H620.427L600.131 1311.03L620.414 1275.74Z" fill="#DCDEE0"/>
<path d="M728.704 1136.68L708.077 1191.89L714.451 1194.32L735.091 1139.1L728.704 1136.68Z" fill="#DCDEE0"/>
<path d="M744.525 1165.78L733.204 1177.13L738.061 1182L754.29 1165.78L738.087 1149.54L733.229 1154.41L744.525 1165.78Z" fill="#DCDEE0"/>
<path d="M710.537 1177.17L699.204 1165.79L710.537 1154.44L705.654 1149.57L689.489 1165.78L705.654 1182.03L710.537 1177.17Z" fill="#DCDEE0"/>
<path d="M747.918 1208.54L772.676 1165.54L747.918 1122.54H698.452L673.682 1165.54L698.452 1208.54H747.918ZM702.851 1130.24H743.456L763.854 1165.54L743.456 1200.82H702.851L682.555 1165.54L702.851 1130.24Z" fill="#DCDEE0"/>
<path d="M728.704 1235.03L708.077 1290.25L714.451 1292.67L735.091 1237.46L728.704 1235.03Z" fill="#DCDEE0"/>
<path d="M744.525 1264.17L733.204 1275.52L738.061 1280.4L754.265 1264.17L738.061 1247.93L733.204 1252.8L744.525 1264.17Z" fill="#DCDEE0"/>
<path d="M710.537 1275.52L699.204 1264.15L710.537 1252.8L705.654 1247.93L689.489 1264.15L705.654 1280.4L710.537 1275.52Z" fill="#DCDEE0"/>
<path d="M747.918 1306.89L772.676 1263.89L747.918 1220.89H698.452L673.682 1263.89L698.452 1306.89H747.918ZM702.851 1228.59H743.456L763.854 1263.89L743.456 1299.17H702.851L682.555 1263.89L702.851 1228.59Z" fill="#DCDEE0"/>
<path d="M728.704 1330.84L708.077 1386.05L714.451 1388.47L735.091 1333.26L728.704 1330.84Z" fill="#DCDEE0"/>
<path d="M744.525 1359.97L733.204 1371.34L738.061 1376.21L754.265 1359.97L738.061 1343.73L733.204 1348.6L744.525 1359.97Z" fill="#DCDEE0"/>
<path d="M710.537 1371.34L699.204 1359.95L710.537 1348.6L705.654 1343.73L689.489 1359.95L705.654 1376.21L710.537 1371.34Z" fill="#DCDEE0"/>
<path d="M747.918 1402.69L772.676 1359.69L747.918 1316.7H698.452L673.682 1359.69L698.452 1402.69H747.918ZM702.851 1324.4H743.456L763.854 1359.69L743.456 1394.98H702.851L682.555 1359.69L702.851 1324.4Z" fill="#DCDEE0"/>
<path d="M811.188 1086.72L790.561 1141.94L796.935 1144.36L817.575 1089.14L811.188 1086.72Z" fill="#DCDEE0"/>
<path d="M826.957 1115.88L815.636 1127.23L820.494 1132.1L836.697 1115.88L820.583 1099.64L815.726 1104.51L826.957 1115.88Z" fill="#DCDEE0"/>
<path d="M793.021 1127.23L781.687 1115.86L793.021 1104.51L788.151 1099.64L771.973 1115.86L788.151 1132.1L793.021 1127.23Z" fill="#DCDEE0"/>
<path d="M830.452 1158.6L855.21 1115.6L830.452 1072.59H780.936L756.177 1115.6L780.936 1158.6H830.452ZM785.385 1080.31H825.99L846.388 1115.6L825.99 1150.89H785.385L765.089 1115.6L785.385 1080.31Z" fill="#DCDEE0"/>
<path d="M811.188 1186.37L790.561 1241.59L796.935 1244.01L817.575 1188.8L811.188 1186.37Z" fill="#DCDEE0"/>
<path d="M826.957 1215.51L815.636 1226.86L820.494 1231.74L836.697 1215.51L820.583 1199.27L815.726 1204.14L826.957 1215.51Z" fill="#DCDEE0"/>
<path d="M793.021 1226.86L781.687 1215.49L793.021 1204.14L788.151 1199.27L771.973 1215.51L788.151 1231.77L793.021 1226.86Z" fill="#DCDEE0"/>
<path d="M830.452 1258.23L855.21 1215.23L830.452 1172.23H780.936L756.177 1215.23L780.936 1258.23H830.452ZM785.385 1179.93H825.99L846.388 1215.23L825.99 1250.51H785.385L765.089 1215.23L785.385 1179.93Z" fill="#DCDEE0"/>
<path d="M811.188 1282.18L790.561 1337.39L796.935 1339.81L817.575 1284.6L811.188 1282.18Z" fill="#DCDEE0"/>
<path d="M826.957 1311.31L815.636 1322.68L820.494 1327.55L836.697 1311.31L820.583 1295.07L815.726 1299.94L826.957 1311.31Z" fill="#DCDEE0"/>
<path d="M793.021 1322.62L781.687 1311.24L793.021 1299.89L788.151 1295.02L771.973 1311.24L788.151 1327.5L793.021 1322.62Z" fill="#DCDEE0"/>
<path d="M830.452 1354.03L855.21 1311.03L830.452 1268.04H780.936L756.177 1311.03L780.936 1354.03H830.452ZM785.385 1275.74H825.99L846.388 1311.03L825.99 1346.32H785.385L765.089 1311.03L785.385 1275.74Z" fill="#DCDEE0"/>
<path d="M893.672 1136.68L873.045 1191.89L879.495 1194.32L900.123 1139.1L893.672 1136.68Z" fill="#DCDEE0"/>
<path d="M909.493 1165.78L898.172 1177.13L903.029 1182L919.233 1165.78L903.029 1149.54L898.172 1154.41L909.493 1165.78Z" fill="#DCDEE0"/>
<path d="M875.518 1177.17L864.171 1165.79L875.518 1154.44L870.635 1149.57L854.457 1165.78L870.635 1182.03L875.518 1177.17Z" fill="#DCDEE0"/>
<path d="M912.936 1208.54L937.694 1165.54L912.936 1122.54H863.419L838.661 1165.54L863.419 1208.54H912.936ZM867.869 1130.24H908.473L928.872 1165.54L908.473 1200.82H867.869L847.573 1165.54L867.869 1130.24Z" fill="#DCDEE0"/>
<path d="M973.57 1088L952.93 1143.21L959.38 1145.63L980.008 1090.42L973.57 1088Z" fill="#DCDEE0"/>
<path d="M989.428 1117.16L978.108 1128.51L982.965 1133.38L999.169 1117.16L982.965 1100.91L978.108 1105.78L989.428 1117.16Z" fill="#DCDEE0"/>
<path d="M955.454 1128.51L944.107 1117.13L955.454 1105.78L950.571 1100.91L934.393 1117.13L950.571 1133.38L955.454 1128.51Z" fill="#DCDEE0"/>
<path d="M992.872 1159.88L1017.63 1116.88L992.872 1073.87H943.356L918.597 1116.88L943.356 1159.88H992.872ZM947.805 1081.58H988.41L1008.74 1116.88L988.41 1152.16H947.805L927.509 1116.88L947.805 1081.58Z" fill="#DCDEE0"/>
<g opacity="0.2">
<path d="M229.972 1127.75L209.332 1182.97L215.783 1185.39L236.423 1130.18L229.972 1127.75Z" fill="#1F75BA"/>
<path d="M245.78 1156.85L234.459 1168.2L239.316 1173.07L255.52 1156.85L239.316 1140.61L234.459 1145.48L245.78 1156.85Z" fill="#1F75BA"/>
<path d="M211.805 1168.24L200.459 1156.87L211.805 1145.52L206.923 1140.65L190.795 1156.85L206.974 1173.1L211.805 1168.24Z" fill="#1F75BA"/>
<path d="M249.222 1199.61L273.98 1156.61L249.222 1113.61H199.718L174.96 1156.61L199.718 1199.61H249.222ZM204.168 1121.32H244.773L265.094 1156.61L244.773 1191.9H204.168L183.859 1156.61L204.168 1121.32Z" fill="#1F75BA"/>
<path d="M229.972 1223.56L209.332 1278.77L215.783 1281.19L236.423 1225.98L229.972 1223.56Z" fill="#1F75BA"/>
<path d="M245.78 1252.69L234.459 1264.04L239.316 1268.93L255.52 1252.69L239.316 1236.45L234.459 1241.32L245.78 1252.69Z" fill="#1F75BA"/>
<path d="M211.805 1264.04L200.459 1252.67L211.805 1241.32L206.923 1236.45L190.795 1252.67L206.974 1268.93L211.805 1264.04Z" fill="#1F75BA"/>
<path d="M249.222 1295.41L273.98 1252.41L249.222 1209.42H199.718L174.96 1252.41L199.718 1295.41H249.222ZM204.168 1217.12H244.773L265.094 1252.41L244.773 1287.7H204.168L183.859 1252.41L204.168 1217.12Z" fill="#1F75BA"/>
<path d="M312.456 1174.9L291.816 1230.11L298.267 1232.53L318.907 1177.32L312.456 1174.9Z" fill="#1F75BA"/>
<path d="M328.264 1204.03L316.943 1215.38L321.8 1220.27L338.004 1204.03L321.8 1187.79L316.943 1192.66L328.264 1204.03Z" fill="#1F75BA"/>
<path d="M294.289 1215.38L282.943 1204.01L294.289 1192.66L289.406 1187.79L273.228 1204.03L289.406 1220.29L294.289 1215.38Z" fill="#1F75BA"/>
<path d="M331.707 1246.75L356.529 1203.75L331.771 1160.76H282.191L257.432 1203.75L282.191 1246.75H331.707ZM286.653 1168.46H327.206L347.605 1203.75L327.206 1239.04H286.653L266.344 1203.75L286.653 1168.46Z" fill="#1F75BA"/>
<path d="M312.456 1270.7L291.816 1325.91L298.267 1328.34L318.907 1273.12L312.456 1270.7Z" fill="#1F75BA"/>
<path d="M328.263 1299.84L317.006 1311.15L321.863 1316.02L338.067 1299.79L321.863 1283.54L317.006 1288.41L328.263 1299.84Z" fill="#1F75BA"/>
<path d="M294.289 1311.15L282.943 1299.76L294.289 1288.41L289.406 1283.54L273.228 1299.76L289.406 1316.02L294.289 1311.15Z" fill="#1F75BA"/>
<path d="M331.707 1342.56L356.529 1299.56L331.771 1256.56H282.191L257.432 1299.56L282.191 1342.56H331.707ZM286.653 1264.26H327.206L347.605 1299.56L327.206 1334.84H286.653L266.344 1299.56L286.653 1264.26Z" fill="#1F75BA"/>
<path d="M394.94 1127.75L374.3 1182.97L380.751 1185.39L401.391 1130.18L394.94 1127.75Z" fill="#1F75BA"/>
<path d="M410.751 1156.85L399.442 1168.2L404.3 1173.07L420.491 1156.85L404.3 1140.61L399.442 1145.48L410.751 1156.85Z" fill="#1F75BA"/>
<path d="M376.773 1168.24L365.452 1156.85L376.798 1145.5L371.916 1140.63L355.712 1156.85L371.89 1173.1L376.773 1168.24Z" fill="#1F75BA"/>
<path d="M414.192 1199.61L438.95 1156.61L414.192 1113.61H364.676L339.956 1156.61L364.714 1199.61H414.192ZM369.138 1121.32H409.743L430.064 1156.61L409.743 1191.9H369.138L348.88 1156.61L369.138 1121.32Z" fill="#1F75BA"/>
<path d="M394.94 1223.56L374.3 1278.77L380.751 1281.19L401.391 1225.98L394.94 1223.56Z" fill="#1F75BA"/>
<path d="M410.751 1252.69L399.442 1264.04L404.3 1268.93L420.491 1252.69L404.3 1236.45L399.442 1241.32L410.751 1252.69Z" fill="#1F75BA"/>
<path d="M376.773 1264.04L365.426 1252.67L376.773 1241.32L371.89 1236.45L355.712 1252.67L371.89 1268.93L376.773 1264.04Z" fill="#1F75BA"/>
<path d="M414.192 1295.41L438.95 1252.41L414.192 1209.42H364.676L339.956 1252.41L364.714 1295.41H414.192ZM369.138 1217.12H409.743L430.064 1252.41L409.743 1287.7H369.138L348.88 1252.41L369.138 1217.12Z" fill="#1F75BA"/>
<path d="M477.424 983.292L456.784 1038.51L463.235 1040.93L483.875 985.715L477.424 983.292Z" fill="#1F75BA"/>
<path d="M493.235 1012.43L481.926 1023.78L486.784 1028.65L502.975 1012.43L486.784 996.184L481.926 1001.05L493.235 1012.43Z" fill="#1F75BA"/>
<path d="M459.257 1023.78L447.91 1012.4L459.257 1001.05L454.374 996.184L438.196 1012.4L454.374 1028.65L459.257 1023.78Z" fill="#1F75BA"/>
<path d="M496.675 1055.15L521.446 1012.15L496.675 969.138H447.158L422.4 1012.15L447.158 1055.15H496.675ZM451.621 976.852H492.225L512.547 1012.15L492.225 1047.43H451.621L431.312 1012.15L451.621 976.852Z" fill="#1F75BA"/>
<path d="M477.424 1079.07L456.784 1134.28L463.235 1136.71L483.875 1081.49L477.424 1079.07Z" fill="#1F75BA"/>
<path d="M493.235 1108.23L481.926 1119.58L486.784 1124.45L502.975 1108.23L486.784 1091.99L481.926 1096.86L493.235 1108.23Z" fill="#1F75BA"/>
<path d="M459.257 1119.58L447.91 1108.21L459.257 1096.86L454.374 1091.99L438.196 1108.21L454.374 1124.45L459.257 1119.58Z" fill="#1F75BA"/>
<path d="M496.675 1150.95L521.446 1107.95L496.675 1064.94H447.158L422.4 1107.95L447.158 1150.95H496.675ZM451.621 1072.69H492.225L512.547 1107.99L492.225 1143.27H451.621L431.312 1107.99L451.621 1072.69Z" fill="#1F75BA"/>
<path d="M559.911 936.149L539.283 991.364L545.658 993.786L566.298 938.572L559.911 936.149Z" fill="#1F75BA"/>
<path d="M575.731 965.287L564.41 976.636L569.268 981.507L585.459 965.287L569.268 949.003L564.41 953.874L575.731 965.287Z" fill="#1F75BA"/>
<path d="M541.744 976.635L530.41 965.261L541.744 953.912L536.861 949.041L520.695 965.261L536.861 981.506L541.744 976.635Z" fill="#1F75BA"/>
<path d="M579.175 1008L603.933 965.005L579.175 921.994H529.646L504.888 965.005L529.646 1008H579.175ZM534.108 929.709H574.713L595.035 965.005L574.713 1000.29H534.108L513.8 965.005L534.108 929.709Z" fill="#1F75BA"/>
<path d="M559.911 1031.95L539.283 1087.17L545.658 1089.59L566.298 1034.37L559.911 1031.95Z" fill="#1F75BA"/>
<path d="M575.731 1061.09L564.41 1072.44L569.268 1077.31L585.459 1061.09L569.268 1044.84L564.41 1049.71L575.731 1061.09Z" fill="#1F75BA"/>
<path d="M541.744 1072.44L530.41 1061.06L541.744 1049.71L536.861 1044.84L520.695 1061.06L536.861 1077.31L541.744 1072.44Z" fill="#1F75BA"/>
<path d="M579.175 1103.81L603.933 1060.81L579.175 1017.86H529.646L504.888 1060.87L529.646 1103.87L579.175 1103.81ZM534.108 1025.51H574.713L595.035 1060.81L574.713 1096.09H534.108L513.8 1060.81L534.108 1025.51Z" fill="#1F75BA"/>
<path d="M559.911 1127.75L539.283 1182.97L545.658 1185.39L566.298 1130.18L559.911 1127.75Z" fill="#1F75BA"/>
<path d="M575.731 1156.85L564.41 1168.2L569.268 1173.07L585.459 1156.85L569.268 1140.61L564.41 1145.48L575.731 1156.85Z" fill="#1F75BA"/>
<path d="M541.744 1168.24L530.41 1156.87L541.744 1145.52L536.861 1140.65L520.695 1156.85L536.861 1173.1L541.744 1168.24Z" fill="#1F75BA"/>
<path d="M579.175 1199.61L603.933 1156.61L579.175 1113.61H529.646L504.888 1156.61L529.646 1199.61H579.175ZM534.108 1121.32H574.713L595.035 1156.61L574.713 1191.9H534.108L513.8 1156.61L534.108 1121.32Z" fill="#1F75BA"/>
<path d="M642.395 695.884L621.767 751.098L628.142 753.521L648.782 698.307L642.395 695.884Z" fill="#1F75BA"/>
<path d="M658.215 725.021L646.894 736.37L651.751 741.241L667.955 725.021L651.751 708.763L646.894 713.634L658.215 725.021Z" fill="#1F75BA"/>
<path d="M624.251 736.37L612.918 724.996L624.251 713.634L619.369 708.763L603.203 724.996L619.369 741.241L624.251 736.37Z" fill="#1F75BA"/>
<path d="M661.659 767.726L686.417 724.728L661.659 681.729H612.13L587.372 724.728L612.13 767.726H661.659ZM616.605 689.444H657.21L677.608 724.728L657.21 760.024H616.605L596.309 724.728L616.605 689.444Z" fill="#1F75BA"/>
<path d="M642.395 791.687L621.767 846.901L628.142 849.324L648.782 794.109L642.395 791.687Z" fill="#1F75BA"/>
<path d="M658.215 820.824L646.894 832.173L651.751 837.044L667.955 820.824L651.751 804.565L646.894 809.437L658.215 820.824Z" fill="#1F75BA"/>
<path d="M624.251 832.173L612.918 820.798L624.251 809.437L619.369 804.565L603.203 820.798L619.369 837.044L624.251 832.173Z" fill="#1F75BA"/>
<path d="M661.659 863.567L686.417 820.556L661.659 777.558H612.13L587.372 820.556L612.13 863.567H661.659ZM616.592 785.272H657.197L677.595 820.556L657.197 855.852H616.605L596.309 820.556L616.592 785.272Z" fill="#1F75BA"/>
<path d="M642.395 887.489L621.767 942.704L628.142 945.126L648.782 889.912L642.395 887.489Z" fill="#1F75BA"/>
<path d="M658.215 916.626L646.894 927.975L651.751 932.846L667.955 916.626L651.751 900.368L646.894 905.252L658.215 916.626Z" fill="#1F75BA"/>
<path d="M624.251 927.975L612.918 916.601L624.251 905.252L619.369 900.368L603.203 916.601L619.369 932.846L624.251 927.975Z" fill="#1F75BA"/>
<path d="M661.659 959.344L686.417 916.333L661.659 873.335H612.13L587.372 916.333L612.13 959.344H661.659ZM616.592 881.05H657.197L677.595 916.333L657.197 951.63H616.605L596.309 916.333L616.592 881.05Z" fill="#1F75BA"/>
<path d="M642.395 983.292L621.767 1038.51L628.142 1040.93L648.782 985.715L642.395 983.292Z" fill="#1F75BA"/>
<path d="M658.215 1012.43L646.894 1023.78L651.751 1028.65L667.955 1012.43L651.751 996.184L646.894 1001.05L658.215 1012.43Z" fill="#1F75BA"/>
<path d="M624.251 1023.78L612.918 1012.4L624.251 1001.05L619.369 996.184L603.203 1012.4L619.369 1028.65L624.251 1023.78Z" fill="#1F75BA"/>
<path d="M661.659 1055.15L686.417 1012.15L661.659 969.138H612.13L587.372 1012.15L612.13 1055.15H661.659ZM616.592 976.852H657.197L677.595 1012.15L657.197 1047.43H616.605L596.309 1012.15L616.592 976.852Z" fill="#1F75BA"/>
<path d="M642.395 1079.07L621.767 1134.28L628.142 1136.71L648.782 1081.49L642.395 1079.07Z" fill="#1F75BA"/>
<path d="M658.215 1108.23L646.894 1119.58L651.751 1124.45L667.955 1108.23L651.751 1091.99L646.894 1096.86L658.215 1108.23Z" fill="#1F75BA"/>
<path d="M624.251 1119.58L612.918 1108.21L624.251 1096.86L619.369 1091.99L603.203 1108.21L619.369 1124.45L624.251 1119.58Z" fill="#1F75BA"/>
<path d="M661.659 1150.95L686.417 1107.95L661.659 1064.94H612.13L587.372 1107.95L612.13 1150.95H661.659ZM616.605 1072.69H657.21L677.608 1107.99L657.21 1143.27H616.605L596.309 1107.99L616.605 1072.69Z" fill="#1F75BA"/>
<path d="M724.879 744.544L704.251 799.758L710.626 802.181L731.266 746.967L724.879 744.544Z" fill="#1F75BA"/>
<path d="M740.699 773.681L729.378 785.03L734.236 789.901L750.465 773.681L734.261 757.423L729.404 762.294L740.699 773.681Z" fill="#1F75BA"/>
<path d="M706.712 785.03L695.378 773.656L706.712 762.294L701.829 757.423L685.663 773.656L701.829 789.901L706.712 785.03Z" fill="#1F75BA"/>
<path d="M744.092 816.386L768.85 773.375L744.092 730.39H694.627L669.856 773.388L694.627 816.386H744.092ZM699.025 738.092H739.63L760.028 773.375L739.63 808.672H699.025L678.729 773.375L699.025 738.092Z" fill="#1F75BA"/>
<path d="M724.879 840.347L704.251 895.561L710.626 897.984L731.266 842.769L724.879 840.347Z" fill="#1F75BA"/>
<path d="M740.699 869.484L729.378 880.833L734.236 885.704L750.439 869.484L734.236 853.226L729.378 858.109L740.699 869.484Z" fill="#1F75BA"/>
<path d="M706.712 880.833L695.378 869.458L706.712 858.109L701.829 853.226L685.663 869.458L701.829 885.704L706.712 880.833Z" fill="#1F75BA"/>
<path d="M744.092 912.202L768.85 869.191L744.092 826.192H694.627L669.856 869.191L694.627 912.202H744.092ZM699.025 833.907H739.63L760.028 869.191L739.63 904.487H699.025L678.729 869.191L699.025 833.907Z" fill="#1F75BA"/>
<path d="M724.879 936.149L704.251 991.364L710.626 993.786L731.266 938.572L724.879 936.149Z" fill="#1F75BA"/>
<path d="M740.699 965.287L729.378 976.636L734.236 981.507L750.439 965.287L734.236 949.003L729.378 953.874L740.699 965.287Z" fill="#1F75BA"/>
<path d="M706.712 976.635L695.378 965.261L706.712 953.912L701.829 949.041L685.663 965.261L701.829 981.506L706.712 976.635Z" fill="#1F75BA"/>
<path d="M744.092 1008L768.85 965.005L744.092 921.994H694.627L669.856 965.005L694.627 1008H744.092ZM699.025 929.709H739.63L760.028 965.005L739.63 1000.29H699.025L678.729 965.005L699.025 929.709Z" fill="#1F75BA"/>
<path d="M724.879 1031.95L704.251 1087.17L710.626 1089.59L731.342 1034.44L724.879 1031.95Z" fill="#1F75BA"/>
<path d="M740.699 1061.09L729.378 1072.44L734.236 1077.31L750.465 1061.09L734.261 1044.84L729.404 1049.71L740.699 1061.09Z" fill="#1F75BA"/>
<path d="M706.712 1072.44L695.378 1061.06L706.712 1049.71L701.829 1044.84L685.663 1061.06L701.829 1077.31L706.712 1072.44Z" fill="#1F75BA"/>
<path d="M744.092 1103.81L768.85 1060.81L744.092 1017.86H694.627L669.856 1060.87L694.627 1103.87L744.092 1103.81ZM699.025 1025.51H739.63L760.028 1060.81L739.63 1096.09H699.025L678.729 1060.81L699.025 1025.51Z" fill="#1F75BA"/>
<path d="M807.363 791.687L786.735 846.901L793.109 849.324L813.75 794.109L807.363 791.687Z" fill="#1F75BA"/>
<path d="M823.136 820.824L811.815 832.173L816.672 837.044L832.876 820.824L816.761 804.565L811.904 809.437L823.136 820.824Z" fill="#1F75BA"/>
<path d="M789.196 832.173L777.862 820.798L789.196 809.437L784.326 804.565L768.147 820.798L784.326 837.044L789.196 832.173Z" fill="#1F75BA"/>
<path d="M826.626 863.567L851.384 820.556L826.626 777.558H777.11L752.352 820.556L777.11 863.567H826.626ZM781.559 785.272H822.164L842.562 820.556L822.164 855.852H781.559L761.263 820.556L781.559 785.272Z" fill="#1F75BA"/>
<path d="M807.363 887.489L786.735 942.704L793.109 945.126L813.75 889.912L807.363 887.489Z" fill="#1F75BA"/>
<path d="M823.136 916.626L811.815 927.975L816.672 932.846L832.876 916.626L816.761 900.368L811.904 905.252L823.136 916.626Z" fill="#1F75BA"/>
<path d="M789.196 927.975L777.862 916.601L789.196 905.252L784.326 900.368L768.147 916.601L784.326 932.846L789.196 927.975Z" fill="#1F75BA"/>
<path d="M826.626 959.344L851.384 916.333L826.626 873.335H777.11L752.352 916.333L777.11 959.344H826.626ZM781.559 881.05H822.164L842.562 916.333L822.164 951.63H781.559L761.263 916.333L781.559 881.05Z" fill="#1F75BA"/>
<path d="M807.363 983.292L786.735 1038.51L793.109 1040.93L813.75 985.715L807.363 983.292Z" fill="#1F75BA"/>
<path d="M823.136 1012.43L811.815 1023.78L816.672 1028.65L832.876 1012.43L816.761 996.184L811.904 1001.05L823.136 1012.43Z" fill="#1F75BA"/>
<path d="M789.196 1023.78L777.862 1012.4L789.196 1001.05L784.326 996.184L768.147 1012.4L784.326 1028.65L789.196 1023.78Z" fill="#1F75BA"/>
<path d="M826.626 1055.15L851.384 1012.15L826.626 969.138H777.11L752.352 1012.15L777.11 1055.15H826.626ZM781.559 976.852H822.164L842.562 1012.15L822.164 1047.43H781.559L761.263 1012.15L781.559 976.852Z" fill="#1F75BA"/>
<path d="M889.85 744.544L869.223 799.758L875.674 802.181L896.301 746.967L889.85 744.544Z" fill="#1F75BA"/>
<path d="M905.671 773.681L894.35 785.03L899.207 789.901L915.411 773.681L899.207 757.423L894.35 762.294L905.671 773.681Z" fill="#1F75BA"/>
<path d="M871.692 785.03L860.346 773.656L871.692 762.294L866.809 757.423L850.631 773.656L866.809 789.901L871.692 785.03Z" fill="#1F75BA"/>
<path d="M909.114 816.386L933.872 773.375L909.114 730.377H859.598L834.84 773.375L859.598 816.386H909.114ZM864.047 738.092H904.652L925.05 773.375L904.652 808.672H864.047L843.751 773.375L864.047 738.092Z" fill="#1F75BA"/>
<path d="M889.85 840.347L869.223 895.561L875.674 897.984L896.301 842.769L889.85 840.347Z" fill="#1F75BA"/>
<path d="M905.671 869.484L894.35 880.833L899.207 885.704L915.411 869.484L899.207 853.226L894.35 858.109L905.671 869.484Z" fill="#1F75BA"/>
<path d="M871.692 880.833L860.346 869.458L871.692 858.109L866.809 853.226L850.631 869.458L866.809 885.704L871.692 880.833Z" fill="#1F75BA"/>
<path d="M909.114 912.202L933.872 869.191L909.114 826.192H859.598L834.84 869.191L859.598 912.202H909.114ZM864.047 833.907H904.652L925.05 869.191L904.652 904.487H864.047L843.751 869.191L864.047 833.907Z" fill="#1F75BA"/>
<path d="M889.85 936.149L869.223 991.364L875.674 993.786L896.301 938.572L889.85 936.149Z" fill="#1F75BA"/>
<path d="M905.671 965.287L894.35 976.636L899.207 981.507L915.411 965.287L899.207 949.003L894.35 953.874L905.671 965.287Z" fill="#1F75BA"/>
<path d="M871.692 976.635L860.346 965.261L871.692 953.912L866.809 949.041L850.631 965.261L866.809 981.506L871.692 976.635Z" fill="#1F75BA"/>
<path d="M909.114 1008L933.872 965.005L909.114 921.994H859.598L834.84 965.005L859.598 1008H909.114ZM864.047 929.709H904.652L925.05 965.005L904.652 1000.29H864.047L843.751 965.005L864.047 929.709Z" fill="#1F75BA"/>
<path d="M972.296 695.884L951.656 751.098L958.106 753.521L978.734 698.307L972.296 695.884Z" fill="#1F75BA"/>
<path d="M988.155 725.021L976.834 736.37L981.691 741.241L997.895 725.021L981.691 708.763L976.834 713.634L988.155 725.021Z" fill="#1F75BA"/>
<path d="M954.18 736.37L942.834 724.996L954.18 713.634L949.348 708.763L933.17 724.996L949.348 741.241L954.18 736.37Z" fill="#1F75BA"/>
<path d="M991.598 767.726L1016.36 724.728L991.598 681.729H942.082L917.323 724.728L942.082 767.726H991.598ZM946.531 689.444H987.136L1007.47 724.728L987.136 760.024H946.531L926.235 724.728L946.531 689.444Z" fill="#1F75BA"/>
<path d="M972.296 791.687L951.656 846.901L958.106 849.324L978.734 794.109L972.296 791.687Z" fill="#1F75BA"/>
<path d="M988.155 820.824L976.834 832.173L981.691 837.044L997.895 820.824L981.691 804.565L976.834 809.437L988.155 820.824Z" fill="#1F75BA"/>
<path d="M954.18 832.173L942.834 820.798L954.18 809.437L949.297 804.565L933.119 820.798L949.348 837.044L954.18 832.173Z" fill="#1F75BA"/>
<path d="M991.598 863.567L1016.36 820.556L991.598 777.558H942.082L917.323 820.556L942.082 863.567H991.598ZM946.531 785.272H987.136L1007.47 820.556L987.136 855.852H946.531L926.235 820.556L946.531 785.272Z" fill="#1F75BA"/>
<path d="M972.296 887.489L951.656 942.704L958.106 945.126L978.734 889.912L972.296 887.489Z" fill="#1F75BA"/>
<path d="M988.155 916.626L976.834 927.975L981.691 932.846L997.895 916.626L981.691 900.368L976.834 905.252L988.155 916.626Z" fill="#1F75BA"/>
<path d="M954.18 927.975L942.834 916.601L954.18 905.252L949.297 900.368L933.119 916.601L949.297 932.846L954.18 927.975Z" fill="#1F75BA"/>
<path d="M991.598 959.344L1016.36 916.333L991.598 873.335H942.082L917.323 916.333L942.082 959.344H991.598ZM946.531 881.05H987.136L1007.47 916.333L987.136 951.63H946.531L926.235 916.333L946.531 881.05Z" fill="#1F75BA"/>
<path d="M972.296 983.292L951.656 1038.51L958.106 1040.93L978.734 985.715L972.296 983.292Z" fill="#1F75BA"/>
<path d="M988.155 1012.43L976.834 1023.78L981.691 1028.65L997.895 1012.43L981.691 996.184L976.834 1001.05L988.155 1012.43Z" fill="#1F75BA"/>
<path d="M954.18 1023.78L942.834 1012.4L954.18 1001.05L949.348 996.184L933.17 1012.4L949.348 1028.65L954.18 1023.78Z" fill="#1F75BA"/>
<path d="M991.598 1055.15L1016.36 1012.15L991.598 969.138H942.082L917.323 1012.15L942.082 1055.15H991.598ZM946.531 976.852H987.136L1007.47 1012.15L987.136 1047.43H946.531L926.235 1012.15L946.531 976.852Z" fill="#1F75BA"/>
<path d="M1054.83 744.544L1034.19 799.758L1040.64 802.181L1061.27 746.967L1054.83 744.544Z" fill="#1F75BA"/>
<path d="M1070.64 773.681L1059.32 785.03L1064.17 789.901L1080.38 773.681L1064.17 757.423L1059.32 762.294L1070.64 773.681Z" fill="#1F75BA"/>
<path d="M1036.67 785.03L1025.32 773.656L1036.67 762.294L1031.78 757.423L1015.64 773.656L1031.82 789.901L1036.67 785.03Z" fill="#1F75BA"/>
<path d="M1074.08 816.386L1098.84 773.375L1074.08 730.377H1024.57L999.807 773.375L1024.57 816.386H1074.08ZM1029.03 738.092H1069.63L1089.95 773.375L1069.63 808.735H1029.03L1008.72 773.439L1029.03 738.092Z" fill="#1F75BA"/>
<path d="M1054.83 840.347L1034.19 895.561L1040.64 897.984L1061.27 842.769L1054.83 840.347Z" fill="#1F75BA"/>
<path d="M1070.64 869.484L1059.32 880.833L1064.17 885.704L1080.38 869.484L1064.17 853.226L1059.32 858.109L1070.64 869.484Z" fill="#1F75BA"/>
<path d="M1036.67 880.833L1025.32 869.458L1036.67 858.109L1031.78 853.226L1015.64 869.458L1031.82 885.704L1036.67 880.833Z" fill="#1F75BA"/>
<path d="M1074.08 912.202L1098.84 869.191L1074.08 826.192H1024.57L999.807 869.191L1024.57 912.202H1074.08ZM1029.03 833.907H1069.63L1089.95 869.191L1069.63 904.487H1029.03L1008.72 869.191L1029.03 833.907Z" fill="#1F75BA"/>
<path d="M1137.31 600.068L1116.67 655.283L1123.13 657.718L1143.77 602.504L1137.31 600.068Z" fill="#1F75BA"/>
<path d="M1153.12 629.207L1141.8 640.568L1146.66 645.439L1162.86 629.207L1146.66 612.961L1141.8 617.832L1153.12 629.207Z" fill="#1F75BA"/>
<path d="M1119.15 640.568L1107.8 629.194L1119.15 617.832L1114.26 612.961L1098.09 629.194L1114.26 645.439L1119.15 640.568Z" fill="#1F75BA"/>
<path d="M1156.57 671.923L1181.37 628.938L1156.62 585.939H1107.05L1082.29 628.938L1107.05 671.936L1156.57 671.923ZM1111.51 593.641H1152.12L1172.45 628.938L1152.13 664.234H1111.51L1091.2 628.938L1111.51 593.641Z" fill="#1F75BA"/>
<path d="M1137.31 695.884L1116.67 751.098L1123.13 753.521L1143.77 698.307L1137.31 695.884Z" fill="#1F75BA"/>
<path d="M1153.12 725.021L1141.8 736.37L1146.66 741.241L1162.86 725.021L1146.66 708.763L1141.8 713.634L1153.12 725.021Z" fill="#1F75BA"/>
<path d="M1119.15 736.37L1107.8 724.996L1119.15 713.634L1114.26 708.763L1098.09 724.996L1114.26 741.241L1119.15 736.37Z" fill="#1F75BA"/>
<path d="M1156.57 767.726L1181.37 724.728L1156.62 681.729H1107.05L1082.29 724.728L1107.05 767.726H1156.57ZM1111.51 689.444H1152.12L1172.45 724.728L1152.13 760.024H1111.51L1091.2 724.728L1111.51 689.444Z" fill="#1F75BA"/>
<path d="M1137.31 791.687L1116.67 846.901L1123.13 849.324L1143.77 794.109L1137.31 791.687Z" fill="#1F75BA"/>
<path d="M1153.12 820.824L1141.8 832.173L1146.66 837.044L1162.86 820.824L1146.66 804.565L1141.8 809.437L1153.12 820.824Z" fill="#1F75BA"/>
<path d="M1119.15 832.173L1107.8 820.798L1119.15 809.437L1114.26 804.565L1098.09 820.798L1114.26 837.044L1119.15 832.173Z" fill="#1F75BA"/>
<path d="M1156.57 863.567L1181.32 820.556L1156.57 777.558H1107.05L1082.29 820.556L1107.05 863.567H1156.57ZM1111.51 785.272H1152.12L1172.44 820.556L1152.12 855.852H1111.51L1091.2 820.556L1111.51 785.272Z" fill="#1F75BA"/>
<path d="M1137.31 887.489L1116.67 942.704L1123.13 945.126L1143.77 889.912L1137.31 887.489Z" fill="#1F75BA"/>
<path d="M1153.12 916.626L1141.8 927.975L1146.66 932.846L1162.86 916.626L1146.66 900.368L1141.8 905.252L1153.12 916.626Z" fill="#1F75BA"/>
<path d="M1119.15 927.975L1107.8 916.601L1119.15 905.252L1114.26 900.368L1098.09 916.601L1114.26 932.846L1119.15 927.975Z" fill="#1F75BA"/>
<path d="M1156.57 959.344L1181.32 916.333L1156.57 873.335H1107.05L1082.29 916.333L1107.05 959.344H1156.57ZM1111.51 881.05H1152.12L1172.44 916.333L1152.12 951.63H1111.51L1091.2 916.333L1111.51 881.05Z" fill="#1F75BA"/>
<path d="M1219.8 169.716L1199.22 224.93L1205.67 227.353L1226.31 172.139L1219.8 169.716Z" fill="#1F75BA"/>
<path d="M1235.61 198.853L1224.3 210.202L1229.16 215.073L1245.35 198.853L1229.16 182.633L1224.3 187.504L1235.61 198.853Z" fill="#1F75BA"/>
<path d="M1201.63 210.202L1190.29 198.827L1201.63 187.479L1196.75 182.607L1180.57 198.827L1196.75 215.073L1201.63 210.202Z" fill="#1F75BA"/>
<path d="M1239.05 241.571L1263.81 198.573L1239.05 155.574H1189.54L1164.8 198.573L1189.56 241.571H1239.05ZM1194 163.276H1234.6L1254.92 198.573L1234.6 233.856H1194L1173.73 198.573L1194 163.276Z" fill="#1F75BA"/>
<path d="M1219.8 265.518L1199.22 320.732L1205.67 323.155L1226.31 267.94L1219.8 265.518Z" fill="#1F75BA"/>
<path d="M1235.61 294.656L1224.3 306.005L1229.16 310.888L1245.35 294.656L1229.16 278.41L1224.3 283.281L1235.61 294.656Z" fill="#1F75BA"/>
<path d="M1201.63 306.005L1190.29 294.63L1201.63 283.281L1196.75 278.41L1180.57 294.63L1196.75 310.888L1201.63 306.005Z" fill="#1F75BA"/>
<path d="M1239.05 337.374L1263.81 294.375L1239.05 251.377H1189.54L1164.8 294.375L1189.56 337.374H1239.05ZM1194 259.143H1234.6L1254.92 294.439L1234.6 329.723H1194L1173.73 294.375L1194 259.143Z" fill="#1F75BA"/>
<path d="M1219.8 361.32L1199.22 416.535L1205.67 418.957L1226.25 363.705L1219.8 361.32Z" fill="#1F75BA"/>
<path d="M1235.61 390.484L1224.3 401.845L1229.16 406.717L1245.35 390.484L1229.16 374.238L1224.3 379.109L1235.61 390.484Z" fill="#1F75BA"/>
<path d="M1219.8 457.123L1199.22 512.337L1205.67 514.76L1226.31 459.546L1219.8 457.123Z" fill="#1F75BA"/>
<path d="M1235.61 486.261L1224.3 497.623L1229.16 502.494L1245.35 486.261L1229.16 470.016L1224.3 474.887L1235.61 486.261Z" fill="#1F75BA"/>
<path d="M1219.8 552.926L1199.22 608.14L1205.67 610.576L1226.31 555.361L1219.8 552.926Z" fill="#1F75BA"/>
<path d="M1235.61 582.063L1224.3 593.425L1229.16 598.296L1245.35 582.063L1229.16 565.817L1224.3 570.688L1235.61 582.063Z" fill="#1F75BA"/>
<path d="M1201.63 593.425L1190.29 582.05L1201.63 570.688L1196.75 565.817L1180.57 582.05L1196.75 598.334L1201.63 593.425Z" fill="#1F75BA"/>
<path d="M1239.05 624.782L1263.81 581.758L1239.05 538.76H1189.54L1164.8 581.758L1189.56 624.756L1239.05 624.782ZM1194 546.5H1234.6L1254.92 581.758L1234.6 617.054H1194L1173.73 581.758L1194 546.5Z" fill="#1F75BA"/>
<path d="M1219.8 648.741L1199.22 703.943L1205.67 706.378L1226.31 651.164L1219.8 648.741Z" fill="#1F75BA"/>
<path d="M1235.61 677.878L1224.3 689.227L1229.16 694.098L1245.35 677.878L1229.16 661.62L1224.3 666.491L1235.61 677.878Z" fill="#1F75BA"/>
<path d="M1201.63 689.227L1190.29 677.853L1201.63 666.491L1196.75 661.62L1180.57 677.853L1196.75 694.098L1201.63 689.227Z" fill="#1F75BA"/>
<path d="M1239.05 720.584L1263.81 677.585L1239.05 634.587H1189.54L1164.8 677.585L1189.56 720.584H1239.05ZM1194 642.302H1234.6L1254.92 677.585L1234.6 712.882H1194L1173.73 677.585L1194 642.302Z" fill="#1F75BA"/>
<path d="M1219.8 744.544L1199.22 799.809L1205.67 802.232L1226.31 747.018L1219.8 744.544Z" fill="#1F75BA"/>
<path d="M1235.61 773.681L1224.3 785.03L1229.16 789.901L1245.35 773.681L1229.16 757.423L1224.3 762.294L1235.61 773.681Z" fill="#1F75BA"/>
<path d="M1201.63 785.03L1190.29 773.656L1201.63 762.294L1196.75 757.423L1180.57 773.656L1196.75 789.901L1201.63 785.03Z" fill="#1F75BA"/>
<path d="M1239.05 816.386L1263.81 773.375L1239.05 730.377H1189.54L1164.8 773.388L1189.54 816.386H1239.05ZM1194 738.092H1234.6L1254.92 773.375L1234.6 808.735H1194L1173.73 773.388L1194 738.092Z" fill="#1F75BA"/>
<path d="M1219.8 840.347L1199.16 895.561L1205.61 897.984L1226.25 842.769L1219.8 840.347Z" fill="#1F75BA"/>
<path d="M1235.61 869.484L1224.3 880.833L1229.16 885.704L1245.35 869.484L1229.16 853.226L1224.3 858.109L1235.61 869.484Z" fill="#1F75BA"/>
<path d="M1201.63 880.833L1190.29 869.458L1201.63 858.109L1196.75 853.226L1180.57 869.458L1196.75 885.704L1201.63 880.833Z" fill="#1F75BA"/>
<path d="M1239.05 912.202L1263.81 869.191L1239.05 826.192H1189.54L1164.8 869.191L1189.56 912.202H1239.05ZM1194 833.907H1234.6L1254.92 869.191L1234.6 904.487H1194L1173.73 869.191L1194 833.907Z" fill="#1F75BA"/>
<path d="M1302.28 121.056L1281.64 176.257L1288.09 178.68L1308.73 123.466L1302.28 121.056Z" fill="#1F75BA"/>
<path d="M1318.09 150.193L1306.79 161.542L1311.64 166.413L1327.83 150.193L1311.64 133.947L1306.79 138.818L1318.09 150.193Z" fill="#1F75BA"/>
<path d="M1284.12 161.542L1272.77 150.167L1284.12 138.818L1279.23 133.947L1263.05 150.167L1279.23 166.413L1284.12 161.542Z" fill="#1F75BA"/>
<path d="M1321.53 192.911L1346.3 149.912L1321.53 106.901H1272.02L1247.26 149.912L1272.02 192.911H1321.53ZM1276.48 114.616H1317.08L1337.41 149.912L1317.08 185.183H1276.48L1256.17 149.9L1276.48 114.616Z" fill="#1F75BA"/>
<path d="M1302.28 216.858L1281.64 272.073L1288.09 274.495L1308.73 219.281L1302.28 216.858Z" fill="#1F75BA"/>
<path d="M1318.09 245.995L1306.79 257.344L1311.64 262.215L1327.83 245.995L1311.64 229.813L1306.79 234.685L1318.09 245.995Z" fill="#1F75BA"/>
<path d="M1284.12 257.344L1272.77 245.97L1284.12 234.621L1279.23 229.75L1263.05 245.97L1279.23 262.215L1284.12 257.344Z" fill="#1F75BA"/>
<path d="M1321.53 288.713L1346.3 245.715L1321.53 202.717H1272.02L1247.26 245.715L1272.02 288.713H1321.53ZM1276.48 210.419H1317.08L1337.41 245.715L1317.08 280.999H1276.48L1256.17 245.715L1276.48 210.419Z" fill="#1F75BA"/>
<path d="M1302.28 312.699L1281.64 367.914L1288.09 370.336L1308.73 315.122L1302.28 312.699Z" fill="#1F75BA"/>
<path d="M1318.09 341.798L1306.79 353.147L1311.64 358.031L1327.83 341.798L1311.64 325.553L1306.79 330.424L1318.09 341.798Z" fill="#1F75BA"/>
<path d="M1284.12 353.147L1272.77 341.773L1284.12 330.424L1279.23 325.553L1263.05 341.773L1279.23 358.031L1284.12 353.147Z" fill="#1F75BA"/>
<path d="M1321.53 384.516L1346.3 341.518L1321.53 298.52H1272.02L1247.26 341.518L1272.02 384.516H1321.53ZM1276.48 306.221H1317.08L1337.41 341.518L1317.08 376.801H1276.48L1256.17 341.518L1276.48 306.221Z" fill="#1F75BA"/>
<path d="M1384.77 73.9131L1364.14 129.076L1370.58 131.499L1391.21 76.2849L1384.77 73.9131Z" fill="#1F75BA"/>
<path d="M1400.58 103.05L1389.26 114.399L1394.11 119.27L1410.32 103.05L1394.11 86.8047L1389.26 91.6758L1400.58 103.05Z" fill="#1F75BA"/>
<path d="M1366.6 114.399L1355.27 103.025L1366.6 91.6758L1361.72 86.8047L1345.55 103.025L1361.72 119.27L1366.6 114.399Z" fill="#1F75BA"/>
<path d="M1404.02 145.768L1428.78 102.77L1404.02 59.7588H1354.5L1329.74 102.77L1354.5 145.768H1404.02ZM1358.96 67.4735H1399.57L1419.89 102.77L1399.57 138.002H1358.96L1338.65 102.719L1358.96 67.4735Z" fill="#1F75BA"/>
</g>
</svg>
