<svg width="418" height="347" viewBox="0 0 418 347" fill="none" xmlns="http://www.w3.org/2000/svg">
<g clip-path="url(#clip0_7756_2276)">
<path d="M346.767 284.276H291.189V288.743H346.767V284.276Z" fill="#1D2332"/>
<path d="M321.858 414.174L429.134 229.408L321.858 44.6414H107.307L0.03125 229.408L107.307 414.174H321.858Z" fill="#E3E3E3"/>
<path d="M213.8 278.874C223.254 271.914 226.682 259.24 221.592 248.436C219.41 243.866 215.982 240.022 214.216 235.347C211.515 228.075 213.281 219.869 215.047 212.285" stroke="#1D2332" stroke-width="6.23299" stroke-miterlimit="10" stroke-linecap="round" stroke-linejoin="round"/>
<path d="M247.457 281.679H186.789C185.543 281.679 184.4 280.64 184.4 279.29V278.77C184.4 277.524 185.439 276.381 186.789 276.381H247.457C248.704 276.381 249.846 277.42 249.846 278.77V279.29C249.742 280.536 248.704 281.679 247.457 281.679Z" fill="#1D2332"/>
<path d="M319.033 253.007H119.058C116.772 253.007 114.902 251.137 114.902 248.852V132.087C114.902 129.802 116.772 127.932 119.058 127.932H319.033C321.318 127.932 323.188 129.802 323.188 132.087V248.852C323.188 251.137 321.318 253.007 319.033 253.007Z" fill="white"/>
<path d="M322.044 137.8H115.836V243.553H322.044V137.8Z" fill="#4F5865"/>
<path d="M157.597 148.085H134.743V151.409H157.597V148.085Z" fill="white"/>
<path d="M200.191 148.085H161.858V151.409H200.191V148.085Z" fill="white"/>
<path d="M249.431 148.085H204.657V151.409H249.431V148.085Z" fill="white"/>
<path d="M271.349 148.085H254.208V151.409H271.349V148.085Z" fill="white"/>
<path d="M202.475 156.396H197.073V159.72H202.475V156.396Z" fill="white"/>
<path d="M215.043 156.396H212.55V159.72H215.043V156.396Z" fill="white"/>
<path d="M258.468 156.396H217.33V159.72H258.468V156.396Z" fill="white"/>
<path d="M275.503 156.396H263.453V159.72H275.503V156.396Z" fill="white"/>
<path d="M209.436 156.396H204.657V159.72H209.436V156.396Z" fill="white"/>
<path d="M195.306 156.396H173.387V159.72H195.306V156.396Z" fill="white"/>
<path d="M170.896 156.396H142.12V159.72H170.896V156.396Z" fill="white"/>
<path d="M139.522 156.396H134.743V159.72H139.522V156.396Z" fill="white"/>
<path d="M139.002 164.603H134.743V167.927H139.002V164.603Z" fill="white"/>
<path d="M184.089 164.603H142.64V167.927H184.089V164.603Z" fill="white"/>
<path d="M253.898 164.603H188.555V167.927H253.898V164.603Z" fill="white"/>
<path d="M275.607 164.603H256.181V167.927H275.607V164.603Z" fill="white"/>
<path d="M270.829 172.809H220.654V176.134H270.829V172.809Z" fill="white"/>
<path d="M142.638 172.809H134.743V176.134H142.638V172.809Z" fill="white"/>
<path d="M185.54 172.809H146.064V176.134H185.54V172.809Z" fill="white"/>
<path d="M213.695 172.809H188.036V176.134H213.695V172.809Z" fill="white"/>
<path d="M169.442 181.12H161.858V184.444H169.442V181.12Z" fill="white"/>
<path d="M158.429 181.12H134.743V184.444H158.429V181.12Z" fill="white"/>
<path d="M179.311 181.12H172.247V184.444H179.311V181.12Z" fill="white"/>
<path d="M213.903 181.12H182.115V184.444H213.903V181.12Z" fill="white"/>
<path d="M232.81 181.12H218.474V184.444H232.81V181.12Z" fill="white"/>
<path d="M253.688 181.12H239.04V184.444H253.688V181.12Z" fill="white"/>
<path d="M270.83 181.12H260.961V184.444H270.83V181.12Z" fill="white"/>
<path d="M244.234 189.327H228.132V192.651H244.234V189.327Z" fill="white"/>
<path d="M143.158 189.327H134.743V192.651H143.158V189.327Z" fill="white"/>
<path d="M189.488 189.327H149.181V192.651H189.488V189.327Z" fill="white"/>
<path d="M203.827 189.327H195.62V192.651H203.827V189.327Z" fill="white"/>
<path d="M220.759 189.327H207.774V192.651H220.759V189.327Z" fill="white"/>
<path d="M271.662 189.327H251.924V192.651H271.662V189.327Z" fill="white"/>
<path d="M157.597 196.703H134.743V200.027H157.597V196.703Z" fill="white"/>
<path d="M200.191 196.703H161.858V200.027H200.191V196.703Z" fill="white"/>
<path d="M249.431 196.703H204.657V200.027H249.431V196.703Z" fill="white"/>
<path d="M271.349 196.703H254.208V200.027H271.349V196.703Z" fill="white"/>
<path d="M202.475 205.013H197.073V208.337H202.475V205.013Z" fill="white"/>
<path d="M215.043 205.013H212.55V208.337H215.043V205.013Z" fill="white"/>
<path d="M258.468 205.013H217.33V208.337H258.468V205.013Z" fill="white"/>
<path d="M275.503 205.013H263.453V208.337H275.503V205.013Z" fill="white"/>
<path d="M209.436 205.013H204.657V208.337H209.436V205.013Z" fill="white"/>
<path d="M195.306 205.013H173.387V208.337H195.306V205.013Z" fill="white"/>
<path d="M170.896 205.013H142.12V208.337H170.896V205.013Z" fill="white"/>
<path d="M139.522 205.013H134.743V208.337H139.522V205.013Z" fill="white"/>
<path d="M139.002 213.22H134.743V216.544H139.002V213.22Z" fill="white"/>
<path d="M184.089 213.22H142.64V216.544H184.089V213.22Z" fill="white"/>
<path d="M253.898 213.22H188.555V216.544H253.898V213.22Z" fill="white"/>
<path d="M275.607 213.22H256.181V216.544H275.607V213.22Z" fill="white"/>
<path d="M270.829 221.427H220.654V224.751H270.829V221.427Z" fill="white"/>
<path d="M142.638 221.427H134.743V224.751H142.638V221.427Z" fill="white"/>
<path d="M185.54 221.427H146.064V224.751H185.54V221.427Z" fill="white"/>
<path d="M213.695 221.427H188.036V224.751H213.695V221.427Z" fill="white"/>
<path d="M169.442 229.738H161.858V233.062H169.442V229.738Z" fill="white"/>
<path d="M158.429 229.738H134.743V233.062H158.429V229.738Z" fill="white"/>
<path d="M179.311 229.738H172.247V233.062H179.311V229.738Z" fill="white"/>
<path d="M213.903 229.738H182.115V233.062H213.903V229.738Z" fill="white"/>
<path d="M232.81 229.738H218.474V233.062H232.81V229.738Z" fill="white"/>
<path d="M253.688 229.738H239.04V233.062H253.688V229.738Z" fill="white"/>
<path d="M270.83 229.738H260.961V233.062H270.83V229.738Z" fill="white"/>
<path d="M244.234 237.944H228.132V241.269H244.234V237.944Z" fill="white"/>
<path d="M143.158 237.944H134.743V241.269H143.158V237.944Z" fill="white"/>
<path d="M189.488 237.944H149.181V241.269H189.488V237.944Z" fill="white"/>
<path d="M203.827 237.944H195.62V241.269H203.827V237.944Z" fill="white"/>
<path d="M220.759 237.944H207.774V241.269H220.759V237.944Z" fill="white"/>
<path d="M271.662 237.944H251.924V241.269H271.662V237.944Z" fill="white"/>
<path d="M64.2059 243.554C59.635 239.502 55.4797 234.724 52.6748 229.218C51.3243 226.517 50.2855 223.608 49.6622 220.7C49.3506 219.245 49.1428 217.687 49.0389 216.233C48.935 215.505 49.3506 212.493 48.9351 211.973C51.9477 215.609 56.4146 217.375 59.5311 220.7C62.7515 224.024 65.7641 228.387 67.7379 232.542C68.8806 235.035 69.8156 237.633 70.2311 240.333C70.4389 241.58 71.2699 246.151 70.0233 247.086C69.6078 247.398 68.5689 246.774 68.2573 246.566C66.8029 245.735 65.4525 244.593 64.2059 243.554Z" fill="#4F5865"/>
<path d="M75.8433 275.342C75.22 256.331 68.1559 237.632 56.1055 222.985" stroke="#1D2332" stroke-width="0.519415" stroke-miterlimit="10" stroke-linecap="round" stroke-linejoin="round"/>
<path d="M68.6737 249.267C66.3883 247.19 63.4795 245.943 60.3631 245.424C57.3504 244.904 54.2339 245.008 51.1174 245.424C47.4815 245.839 43.8456 246.67 40.4175 247.813C42.1835 250.929 45.4039 253.111 48.832 254.462C51.6369 255.5 54.6495 256.02 57.6621 256.02C62.0252 256.02 66.4921 254.981 70.8552 255.085C71.5824 255.085 72.3096 255.085 72.829 255.604C72.2057 253.215 70.5436 250.93 68.6737 249.267Z" fill="#4F5865"/>
<path d="M72.7239 255.293C70.1268 252.488 66.6987 251.034 62.9589 250.514C59.1152 249.995 55.2715 250.307 51.5317 250.722" stroke="#1D2332" stroke-width="0.519415" stroke-miterlimit="10" stroke-linecap="round" stroke-linejoin="round"/>
<path d="M90.8029 246.255C89.3486 248.54 87.2709 250.41 85.7127 252.592C84.6738 254.046 84.1544 255.708 83.3233 257.266C82.2845 259.24 81.1418 261.11 79.4797 262.772C79.2719 262.98 78.9602 263.292 78.6486 263.188C78.4408 263.188 78.2331 262.98 78.0253 262.668C76.7787 260.798 76.8826 258.617 77.0903 256.539C77.2981 254.046 77.6098 251.553 78.0253 249.06C78.4408 246.878 78.9603 244.593 80.103 242.619C81.1418 240.749 82.3884 239.502 83.8427 237.944C85.9204 235.763 87.6864 233.165 88.933 230.361C90.0758 232.542 91.1146 234.62 91.7379 236.905C92.3612 239.191 92.5689 241.684 91.7379 243.969C91.634 244.8 91.3223 245.528 90.8029 246.255Z" fill="#4F5865"/>
<path d="M77.6086 272.537C76.9853 267.759 78.6474 263.084 79.1668 258.305C79.6862 253.319 81.3484 248.436 83.9455 244.073" stroke="#1D2332" stroke-width="0.519415" stroke-miterlimit="10" stroke-linecap="round" stroke-linejoin="round"/>
<path d="M54.856 268.901C56.1026 276.381 60.7773 284.172 67.1142 288.016C67.5297 288.328 68.0491 288.431 68.5685 288.431H82.8005C83.3199 288.431 83.8394 288.328 84.2549 288.016C90.5918 284.172 95.2665 276.381 96.5131 268.901H54.856Z" fill="#1D2332"/>
<path d="M352.48 288.639H42.1807V296.327H352.48V288.639Z" fill="white"/>
<path d="M352.48 310.974H42.1807V318.661H352.48V310.974Z" fill="white"/>
<path d="M64.5172 291.237H59.9463V374.031H64.5172V291.237Z" fill="white"/>
<path d="M334.301 291.237H329.73V374.031H334.301V291.237Z" fill="white"/>
<path d="M228.035 179.77C230.217 178.108 232.71 177.069 234.788 175.303C236.762 173.641 238.528 171.563 240.294 169.589C242.787 166.888 249.435 160.136 252.552 164.915C255.564 169.486 257.33 174.16 257.538 179.562C257.642 182.679 257.642 185.899 257.227 188.912C256.811 191.509 256.084 194.106 254.837 196.391C253.694 198.469 252.24 200.235 250.474 201.793C249.02 203.144 247.15 205.221 245.176 205.845C240.813 207.299 235.619 206.987 231.256 205.533C229.698 205.014 228.139 204.286 226.789 203.248C223.049 200.339 221.699 195.145 221.906 190.366C222.01 188.496 222.322 186.522 223.153 184.86C224.296 182.886 226.062 181.224 228.035 179.77Z" fill="#1D2332"/>
<path d="M92.1555 192.236C91.9477 191.716 91.7399 191.093 91.5322 190.574C90.3895 187.977 88.5196 185.587 86.338 183.821C84.7798 182.575 83.1176 181.64 81.5594 180.497C79.6895 179.043 77.6118 177.9 75.7419 176.446C73.5604 174.784 71.3789 173.017 69.1973 171.355C68.6779 170.94 68.0546 170.628 67.5352 170.836C67.0158 171.044 66.808 171.563 66.7041 172.083C66.2886 174.056 67.5352 175.822 68.9895 177.069C70.7555 178.731 72.9371 180.185 74.2876 182.367C76.9885 186.522 71.3788 185.483 69.4051 183.302C68.4701 182.263 67.8468 180.913 67.2235 179.562C66.2886 177.381 65.9769 174.991 65.3536 172.706C65.1459 171.875 64.3148 167.408 62.5488 169.278C62.2371 169.589 62.1332 170.109 62.0293 170.628C61.8216 171.979 61.8216 173.329 62.0293 174.68C61.6138 174.368 60.9905 174.887 60.7828 175.303C60.1595 176.446 60.4711 177.588 59.8478 178.627C59.1206 179.77 58.7051 181.016 58.9129 182.471C59.0167 183.614 59.5362 184.756 60.0556 185.795C61.6138 189.016 64.107 193.586 67.2235 195.456C70.5478 197.43 74.4953 198.884 77.0924 201.689C77.9235 202.624 78.339 203.767 78.6506 204.91C83.8448 220.18 86.4419 236.386 90.3895 252.073C92.4671 260.383 94.8564 268.694 98.2846 276.485C99.6351 279.602 103.271 286.146 106.18 288.016C109.192 290.094 109.919 287.497 113.659 286.769C116.88 286.146 119.373 283.757 121.658 281.368C125.086 277.732 129.346 272.745 129.553 267.447C129.657 263.188 128.099 257.89 126.229 254.15C125.71 253.215 125.294 252.28 124.775 251.345C119.581 242.204 112.101 234.205 107.53 224.751C106.491 222.57 105.453 220.388 104.414 218.207C101.505 211.87 98.5962 205.533 95.6875 199.3C94.9603 197.742 94.2331 196.183 93.4021 194.625C92.6749 193.794 92.4671 192.963 92.1555 192.236Z" fill="white" stroke="#1D2332" stroke-width="1.03883" stroke-miterlimit="10" stroke-linecap="round" stroke-linejoin="round"/>
<path d="M62.0288 174.16C62.4443 175.511 62.756 176.965 63.1715 178.316C64.0026 181.224 64.9375 184.341 67.223 186.107" stroke="#1D2332" stroke-width="1.03883" stroke-miterlimit="10" stroke-linecap="round" stroke-linejoin="round"/>
<path d="M59.9507 178.42C60.6779 182.16 62.2361 185.692 64.5216 188.808C64.7293 189.12 64.9371 189.328 65.1448 189.535" stroke="#1D2332" stroke-width="1.03883" stroke-miterlimit="10" stroke-linecap="round" stroke-linejoin="round"/>
<path d="M92.0536 191.509C91.9497 192.652 91.8458 193.69 91.5342 194.729Z" fill="white"/>
<path d="M92.0536 191.509C91.9497 192.652 91.8458 193.69 91.5342 194.729" stroke="#1D2332" stroke-width="1.03883" stroke-miterlimit="10" stroke-linecap="round" stroke-linejoin="round"/>
<path d="M229.694 170.732C229.694 169.174 229.694 167.615 229.59 166.161L201.022 166.057C201.126 174.887 200.711 183.094 200.191 190.781C199.88 194.521 199.672 197.118 198.321 200.235C204.243 202.728 208.398 205.74 214.735 206.468C220.552 207.091 227.928 207.195 233.122 204.494C228.967 193.275 230.006 181.847 229.694 170.732Z" fill="#1F75BA"/>
<path d="M267.509 341.308C268.964 340.996 270.418 340.685 271.872 340.061C276.547 338.088 280.079 333.517 280.806 328.427C281.845 321.155 277.586 314.195 276.131 306.923C275.508 303.495 275.508 299.859 273.846 296.742C273.119 295.288 272.08 294.041 271.353 292.691C268.652 287.704 270.833 282.822 270.626 277.524C270.418 272.641 270.002 267.655 270.002 262.669C270.002 259.344 270.002 255.916 270.626 252.696C271.249 249.268 272.392 245.943 273.015 242.515C276.235 225.582 266.782 204.598 251.2 196.807C237.799 190.158 222.424 188.288 207.361 188.6C194.375 188.912 165.911 195.768 158.016 206.052C147.732 219.557 153.238 239.087 163.834 250.722C161.964 261.526 160.198 272.33 158.951 283.237C157.912 292.691 159.159 302.871 155.731 311.805C155.108 313.467 154.277 315.129 153.965 316.896C153.653 318.558 153.861 320.22 154.069 321.882C155.315 330.712 159.367 339.854 167.262 344.217C172.976 347.333 179.728 347.541 186.273 347.437C211.932 347.229 237.487 344.528 263.042 341.827C264.497 341.724 266.055 341.62 267.509 341.308Z" fill="#1F75BA"/>
<path d="M193.649 189.95C180.352 192.028 167.99 197.43 157.29 205.637C150.226 211.038 144.097 217.583 138.383 224.336C132.877 230.776 127.995 239.71 121.45 245.008C118.126 240.126 115.217 234.932 112.62 229.53C111.997 228.179 111.374 226.725 110.335 225.582C109.608 224.751 108.776 224.024 108.153 223.193C107.218 221.842 107.01 220.076 106.491 218.518C105.972 216.96 104.725 215.298 103.063 215.194C97.661 220.284 89.2464 220.7 83.3251 225.27C83.0134 225.478 82.7018 225.79 82.5979 226.102C82.494 226.413 82.494 226.829 82.5979 227.14C83.6368 232.958 84.5717 238.879 85.6105 244.697C86.6494 250.41 87.0649 256.851 88.8309 262.357C90.5969 270.252 93.4018 278.251 99.1153 283.964C101.505 286.354 105.868 288.431 109.088 289.678C113.243 291.34 118.022 291.652 122.489 291.548C131.631 291.34 140.772 288.12 147.94 282.302C150.849 279.913 153.446 277.108 156.043 274.303C160.718 269.213 165.393 264.746 168.509 258.617C170.587 254.462 172.872 250.514 175.158 246.463C176.508 243.969 184.403 226.829 188.039 227.556C189.909 227.971 191.883 228.283 193.857 228.491C193.857 223.504 194.168 218.622 194.376 213.636C194.48 211.038 194.584 208.338 194.688 205.637C194.688 203.871 193.753 201.273 194.168 199.611C195.207 195.664 197.181 192.028 199.882 188.911C197.908 189.327 195.727 189.639 193.649 189.95Z" fill="#1F75BA"/>
<path d="M226.062 190.574C232.087 191.405 232.398 191.509 238.424 192.236C258.992 194.625 278.211 216.337 290.365 231.296C299.922 243.035 317.998 264.227 313.219 280.745C310.207 291.029 297.221 293.626 287.976 291.964C274.679 289.575 265.329 278.978 257.538 268.694C254.837 265.058 233.126 227.452 231.983 227.66C230.113 228.076 228.139 228.387 226.165 228.595V190.574H226.062Z" fill="#1F75BA"/>
<path d="M220.659 140.294C218.166 135.1 214.218 131.776 209.024 129.387C205.803 127.932 202.064 127.205 198.636 128.244C196.973 128.66 195.519 129.491 194.065 130.322C192.818 130.945 191.675 131.568 190.637 132.503C188.04 134.789 186.377 138.84 185.65 142.06C185.027 144.761 184.611 147.566 184.196 150.371C183.365 152.553 182.326 154.734 180.768 156.396C180.144 157.02 180.352 158.058 181.183 158.37C181.91 158.682 182.741 158.89 183.573 158.993C183.573 160.759 183.573 162.525 183.573 164.291C183.78 168.655 184.507 173.433 188.04 176.03C194.169 180.393 207.777 176.55 213.075 172.29C217.958 168.447 220.97 162.629 222.217 156.5C223.36 151.098 222.944 145.281 220.659 140.294Z" fill="white" stroke="#1D2332" stroke-width="1.03883" stroke-miterlimit="10" stroke-linecap="round" stroke-linejoin="round"/>
<path d="M183.469 162.317C184.196 162.837 185.131 162.941 186.066 162.733Z" fill="white"/>
<path d="M183.469 162.317C184.196 162.837 185.131 162.941 186.066 162.733" stroke="#1D2332" stroke-width="1.03883" stroke-miterlimit="10" stroke-linecap="round" stroke-linejoin="round"/>
<path d="M189.078 148.085C188.87 147.67 188.663 147.15 188.455 146.631C187.935 145.073 188.87 144.138 187.312 142.787C187 142.58 185.442 141.852 184.403 141.749C183.884 141.749 183.572 141.125 183.676 140.71C185.131 134.581 190.221 129.594 196.142 127.101C202.479 124.4 209.543 123.985 216.503 124.192C221.593 124.296 227.203 124.919 230.943 128.451C235.202 132.503 235.722 138.736 237.903 143.93C240.189 149.332 244.759 153.591 248.395 158.058C252.031 162.525 255.044 167.719 255.875 173.433C256.498 177.588 255.979 182.678 253.486 186.211C250.889 189.846 246.214 191.509 242.474 193.378C236.345 196.287 230.839 200.65 224.294 202.208C217.542 203.767 210.27 202.209 204.245 198.676C200.921 196.703 197.7 193.69 197.7 189.95C197.7 188.496 198.22 186.938 198.22 185.483C198.22 183.094 196.765 180.912 195.207 179.043C193.545 177.277 191.675 175.718 190.221 173.745C187.728 170.42 187.728 165.953 189.701 162.421C191.052 159.824 192.61 157.747 192.402 154.734C191.779 151.929 190.221 150.371 189.078 148.085Z" fill="#1D2332"/>
<path d="M216.503 113.596C218.269 112.454 220.451 112.454 222.528 112.765C224.502 113.077 226.684 113.596 227.826 115.258C231.878 120.868 223.359 128.244 217.853 127.205C211.413 125.958 211.724 116.817 216.503 113.596Z" fill="#1D2332"/>
<path d="M160.716 270.044C162.171 263.188 163.21 262.461 164.768 255.501C165.495 251.865 167.157 248.852 168.715 245.528" stroke="#1D2332" stroke-width="1.03883" stroke-miterlimit="10" stroke-linecap="round" stroke-linejoin="round"/>
<path d="M270.21 283.133C269.587 273.057 266.262 262.357 263.873 252.592" stroke="#1D2332" stroke-width="1.03883" stroke-miterlimit="10" stroke-linecap="round" stroke-linejoin="round"/>
<path d="M233.021 213.22C231.982 213.116 230.943 212.909 229.904 212.909C228.034 212.909 226.268 213.532 224.398 213.844C222.528 214.155 220.451 214.051 219.1 212.805C217.542 211.454 217.646 208.545 218.996 207.091C220.658 205.325 224.191 204.91 226.372 204.39C228.346 203.975 230.32 203.351 231.982 202.105C234.787 200.027 236.137 195.352 239.461 194.002C242.474 192.755 247.356 194.729 247.98 198.157C248.395 200.65 246.733 202.936 244.759 204.598C242.786 206.156 240.604 207.507 239.15 209.48C238.422 210.519 238.007 211.662 236.968 212.389C235.929 213.324 234.475 213.324 233.021 213.22Z" fill="#1D2332"/>
<path d="M246.214 184.964C246.11 183.302 245.798 181.536 244.551 180.497C243.824 179.874 242.889 179.562 241.954 179.25C227.515 174.991 212.036 174.16 197.285 177.069C195.207 177.484 193.025 178.004 191.259 179.146C188.247 181.12 186.689 184.964 186.896 188.6C187 192.236 188.558 195.664 190.636 198.677C198.739 210.519 213.802 214.882 227.411 211.246C237.903 208.442 246.837 195.664 246.214 184.964Z" fill="#1F75BA"/>
<path d="M212.764 212.909C202.999 212.389 192.299 207.299 189.702 197.014" stroke="#1D2332" stroke-width="1.03883" stroke-miterlimit="10" stroke-linecap="round" stroke-linejoin="round"/>
<path d="M121.449 245.008C121.137 246.255 120.929 247.605 120.929 248.852C120.929 249.891 121.033 250.826 120.825 251.865C120.514 253.734 119.267 255.189 118.228 256.851C116.462 259.76 115.527 263.084 115.527 266.408" stroke="#1D2332" stroke-width="1.03883" stroke-miterlimit="10" stroke-linecap="round" stroke-linejoin="round"/>
<path d="M108.358 222.674C107.008 224.959 104.307 226.102 101.813 227.037C96.2038 229.218 90.2824 232.335 84.5688 234.413" stroke="#1D2332" stroke-width="1.03883" stroke-miterlimit="10" stroke-linecap="round" stroke-linejoin="round"/>
<path d="M86.4387 233.478C86.0232 230.465 85.3999 227.348 84.5688 224.44" stroke="#1D2332" stroke-width="1.03883" stroke-miterlimit="10" stroke-linecap="round" stroke-linejoin="round"/>
<path d="M89.246 232.542C88.7266 229.322 87.9994 226.205 87.0645 223.089" stroke="#1D2332" stroke-width="1.03883" stroke-miterlimit="10" stroke-linecap="round" stroke-linejoin="round"/>
<path d="M89.2441 221.946C89.5558 222.777 89.8674 223.712 90.0752 224.647C90.3868 225.79 90.5946 226.829 90.8024 227.971C91.114 229.114 91.4257 230.257 91.8412 231.399" stroke="#1D2332" stroke-width="1.03883" stroke-miterlimit="10" stroke-linecap="round" stroke-linejoin="round"/>
<path d="M91.1141 221.011C91.0102 221.323 91.218 221.739 91.4257 222.05C92.8801 224.544 93.0878 227.66 94.2305 230.361" stroke="#1D2332" stroke-width="1.03883" stroke-miterlimit="10" stroke-linecap="round" stroke-linejoin="round"/>
<path d="M94.9575 219.661C95.9964 222.674 97.0352 225.686 97.9701 228.595" stroke="#1D2332" stroke-width="1.03883" stroke-miterlimit="10" stroke-linecap="round" stroke-linejoin="round"/>
<path d="M96.5156 218.934C97.5545 220.284 98.3855 221.843 98.9049 223.401C99.4243 224.855 99.736 226.413 100.359 227.764" stroke="#1D2332" stroke-width="1.03883" stroke-miterlimit="10" stroke-linecap="round" stroke-linejoin="round"/>
<path d="M99.5308 217.375C100.258 218.622 101.401 219.557 102.128 220.7C102.439 221.323 102.647 221.946 102.959 222.57C103.374 223.401 104.102 224.232 104.309 225.167C104.309 225.374 104.413 225.686 104.621 225.686" stroke="#1D2332" stroke-width="1.03883" stroke-miterlimit="10" stroke-linecap="round" stroke-linejoin="round"/>
<path d="M101.712 216.129C101.712 216.025 101.608 216.025 101.608 216.129C101.608 216.233 101.608 216.233 101.712 216.336C102.232 217.064 102.855 217.791 103.374 218.518C104.725 220.388 105.972 222.362 106.491 224.647" stroke="#1D2332" stroke-width="1.03883" stroke-miterlimit="10" stroke-linecap="round" stroke-linejoin="round"/>
<path d="M213.076 123.465C217.231 124.608 221.698 125.854 225.958 124.712" stroke="#1F75BA" stroke-width="1.03883" stroke-miterlimit="10" stroke-linecap="round" stroke-linejoin="round"/>
<path d="M268.752 374.654C267.921 374.966 267.09 375.174 266.259 375.486C251.196 380.368 235.821 385.354 220.031 386.393C206.941 387.224 193.956 385.354 180.971 383.485C166.115 381.303 151.779 381.095 148.247 364.578C146.274 355.436 145.65 346.087 146.274 336.841C146.585 331.751 147.416 326.453 150.325 322.193C152.091 319.7 154.377 317.727 156.558 315.441C174.01 297.262 166.323 270.564 180.971 252.8C194.995 235.763 219.096 231.711 238.626 241.269C250.988 247.294 262.207 258.098 264.285 272.122C266.57 288.12 265.947 303.702 276.335 317.415C278.932 320.739 282.049 323.752 284.023 327.595C290.048 339.126 289.84 361.357 278.828 369.876C275.712 372.057 272.284 373.512 268.752 374.654Z" fill="#1D2332"/>
<path d="M342.095 284.38H326.616L321.422 255.396H347.912L342.095 284.38Z" fill="#1D2332"/>
<path d="M339.187 264.434C341.784 263.187 344.693 262.356 347.498 262.045C348.225 261.941 348.848 262.148 349.472 262.46C351.03 263.395 350.614 265.057 350.095 266.512L347.29 275.134C346.979 276.173 346.044 276.796 345.005 276.692C340.434 276.38 335.863 276.588 331.396 277.212" stroke="#1D2332" stroke-width="1.03883" stroke-miterlimit="10" stroke-linecap="round" stroke-linejoin="round"/>
<path d="M218.058 239.918L223.148 409.767" stroke="#4F5865" stroke-width="0.519415" stroke-miterlimit="10" stroke-linecap="round" stroke-linejoin="round"/>
<path d="M264.391 371.226C263.664 371.538 262.833 371.745 262.106 372.057C248.289 376.732 234.265 381.406 219.721 382.341C207.775 383.172 195.828 381.406 183.986 379.64C170.377 377.667 157.184 377.355 153.963 361.773C152.197 353.15 151.574 344.32 152.197 335.49C152.509 330.608 153.236 325.621 155.937 321.674C157.495 319.284 159.677 317.414 161.651 315.337C177.649 298.092 170.585 272.952 183.986 256.123C196.763 240.022 218.994 236.178 236.862 245.216C248.185 250.929 258.47 261.11 260.34 274.407C262.417 289.47 261.794 304.221 271.455 317.207C273.844 320.427 276.649 323.232 278.415 326.764C283.921 337.672 283.817 358.76 273.637 366.759C270.832 368.837 267.611 370.083 264.391 371.226Z" stroke="#4F5865" stroke-width="0.519415" stroke-miterlimit="10" stroke-linecap="round" stroke-linejoin="round"/>
<path d="M213.481 54.5088C213.481 38.787 199.842 26.4747 183.742 28.1795C170.672 29.6948 160.822 40.1129 160.254 53.1829C159.875 62.0856 163.663 70.0412 169.914 75.1556C173.892 78.3757 176.544 83.1112 177.112 88.2255L178.248 98.6436C178.438 100.917 180.521 102.621 182.794 102.621H191.318C193.591 102.621 195.486 100.917 195.675 98.6436L196.622 88.2255C197.19 83.1112 199.653 78.3757 203.631 75.1556C209.882 70.2307 213.481 62.8433 213.481 54.5088Z" fill="#1F75BA"/>
<path d="M187.153 106.22C181.47 106.22 176.735 101.674 176.735 95.8021V91.2561L197.571 91.0667V95.6127C197.571 101.485 193.025 106.031 187.153 106.22Z" fill="#1D2332"/>
<path d="M182.989 93.3397C181.095 84.6264 179.39 75.9131 177.117 67.1997C175.98 62.6537 169.54 49.0155 179.769 50.5308C182.042 50.9097 184.125 52.8039 184.504 55.2663C184.694 56.4028 184.504 57.7288 183.557 58.6759C182.799 59.623 181.284 60.0018 180.148 59.2441C179.39 58.8653 179.2 57.9182 179.011 57.1605C178.632 55.0769 179.958 52.9933 181.663 51.6673C183.936 50.152 186.967 48.2578 189.619 49.3943C191.134 49.9626 192.27 51.4779 192.839 53.1827C193.217 54.3192 193.596 55.4557 193.217 56.5923C192.839 57.7288 191.892 58.6759 190.755 58.4864C189.808 58.297 189.05 57.5394 188.861 56.5923C188.671 55.6452 188.861 54.698 189.05 53.9404C189.618 51.8567 191.134 50.152 193.217 49.3943C195.301 48.826 197.764 49.5837 198.711 51.4779C199.279 52.8039 199.279 54.3192 199.09 55.6452C198.332 62.2748 196.059 68.3363 194.922 74.7765C193.786 80.838 192.649 86.71 191.702 92.7714" stroke="#1D2332" stroke-width="2.07766" stroke-miterlimit="10" stroke-linecap="round" stroke-linejoin="round"/>
<path d="M145.858 47.8789C150.593 48.6366 149.078 48.2578 154.003 49.0154" stroke="#1D2332" stroke-width="2.07766" stroke-miterlimit="10" stroke-linecap="round" stroke-linejoin="round"/>
<path d="M153.057 27.99L159.308 33.6726" stroke="#1D2332" stroke-width="2.07766" stroke-miterlimit="10" stroke-linecap="round" stroke-linejoin="round"/>
<path d="M178.813 15.1094C179.192 17.193 179.571 20.6026 179.95 22.6862" stroke="#1D2332" stroke-width="2.07766" stroke-miterlimit="10" stroke-linecap="round" stroke-linejoin="round"/>
<path d="M196.241 14.3518C195.672 18.8979 195.293 21.9286 194.915 23.6334" stroke="#1D2332" stroke-width="2.07766" stroke-miterlimit="10" stroke-linecap="round" stroke-linejoin="round"/>
<path d="M221.438 32.3464C217.271 35.1877 217.65 34.9983 213.293 38.029" stroke="#1D2332" stroke-width="2.07766" stroke-miterlimit="10" stroke-linecap="round" stroke-linejoin="round"/>
<path d="M219.733 50.7205C224.658 51.0993 223.521 50.9099 228.446 51.2887" stroke="#1D2332" stroke-width="2.07766" stroke-miterlimit="10" stroke-linecap="round" stroke-linejoin="round"/>
</g>
<defs>
<clipPath id="clip0_7756_2276">
<rect width="418" height="347" fill="white"/>
</clipPath>
</defs>
</svg>
