<svg width="527" height="634" viewBox="0 0 527 634" fill="none" xmlns="http://www.w3.org/2000/svg">
<path d="M162.465 466.631C162.058 466.631 161.718 466.292 161.718 465.885V179.552C161.718 179.145 162.058 178.806 162.465 178.806C162.873 178.806 163.212 179.145 163.212 179.552V465.885C163.212 466.292 162.873 466.631 162.465 466.631Z" fill="black"/>
<path d="M192.038 421.732C191.631 421.732 191.291 421.393 191.291 420.985V179.552C191.291 179.145 191.631 178.806 192.038 178.806C192.445 178.806 192.785 179.145 192.785 179.552V420.951C192.785 421.392 192.445 421.732 192.038 421.732Z" fill="black"/>
<path d="M221.606 421.731C221.199 421.731 220.859 421.392 220.859 420.984V112.185C220.859 111.778 221.199 111.438 221.606 111.438C222.014 111.438 222.353 111.778 222.353 112.185V420.95C222.353 421.392 222.014 421.731 221.606 421.731Z" fill="black"/>
<path d="M251.181 421.731C250.774 421.731 250.434 421.392 250.434 420.985V149.619C250.434 149.211 250.774 148.872 251.181 148.872C251.589 148.872 251.928 149.211 251.928 149.619V420.985C251.928 421.392 251.589 421.731 251.181 421.731Z" fill="black"/>
<path d="M280.754 421.732C280.346 421.732 280.007 421.393 280.007 420.985V179.552C280.007 179.145 280.346 178.806 280.754 178.806C281.161 178.806 281.501 179.145 281.501 179.552V420.951C281.501 421.392 281.195 421.732 280.754 421.732Z" fill="black"/>
<path d="M357.145 374.931H115.648C115.241 374.931 114.901 374.591 114.901 374.184C114.901 373.777 115.241 373.438 115.648 373.438H357.145C357.552 373.438 357.892 373.777 357.892 374.184C357.926 374.591 357.586 374.931 357.145 374.931Z" fill="black"/>
<path d="M357.145 345.371H115.648C115.241 345.371 114.901 345.032 114.901 344.625C114.901 344.217 115.241 343.878 115.648 343.878H357.145C357.552 343.878 357.892 344.217 357.892 344.625C357.926 345.032 357.586 345.371 357.145 345.371Z" fill="black"/>
<path d="M357.145 315.777H115.648C115.241 315.777 114.901 315.438 114.901 315.031C114.901 314.624 115.241 314.284 115.648 314.284H357.145C357.552 314.284 357.892 314.624 357.892 315.031C357.926 315.472 357.586 315.777 357.145 315.777Z" fill="black"/>
<path d="M33.6376 351.765C33.5018 351.765 33.366 351.731 33.2641 351.664C32.8907 351.46 32.7889 350.985 32.9926 350.645L77.5558 285.131C77.6916 284.894 77.9293 284.758 78.2009 284.758H357.146C357.554 284.758 357.893 285.097 357.893 285.504C357.893 285.912 357.554 286.251 357.146 286.251H78.6423L34.2827 351.392C34.1469 351.63 33.9092 351.765 33.6376 351.765Z" fill="black"/>
<path d="M257.782 157.071C261.787 153.069 261.787 146.58 257.782 142.577C253.778 138.574 247.286 138.574 243.282 142.577C239.278 146.58 239.278 153.069 243.282 157.071C247.286 161.074 253.778 161.074 257.782 157.071Z" fill="white"/>
<path d="M250.533 160.818C244.456 160.818 239.533 155.897 239.533 149.822C239.533 143.747 244.456 138.826 250.533 138.826C256.611 138.826 261.534 143.747 261.534 149.822C261.534 155.863 256.611 160.818 250.533 160.818ZM250.533 140.319C245.305 140.319 241.027 144.562 241.027 149.822C241.027 155.048 245.271 159.325 250.533 159.325C255.762 159.325 260.04 155.082 260.04 149.822C260.04 144.596 255.762 140.319 250.533 140.319Z" fill="black"/>
<path d="M29.8866 368.467C35.1184 366.301 37.6028 360.305 35.4357 355.076C33.2685 349.846 27.2705 347.363 22.0386 349.529C16.8068 351.695 14.3224 357.691 16.4895 362.92C18.6567 368.15 24.6547 370.634 29.8866 368.467Z" fill="white"/>
<path d="M25.9495 369.996C19.8722 369.996 14.9492 365.075 14.9492 359C14.9492 352.925 19.8722 348.004 25.9495 348.004C32.0268 348.004 36.9498 352.925 36.9498 359C36.9498 365.075 32.0268 369.996 25.9495 369.996ZM25.9495 349.497C20.721 349.497 16.4431 353.739 16.4431 359C16.4431 364.26 20.687 368.502 25.9495 368.502C31.178 368.502 35.4559 364.26 35.4559 359C35.4559 353.739 31.178 349.497 25.9495 349.497Z" fill="black"/>
<path d="M169.743 477.243C173.747 473.241 173.747 466.751 169.743 462.749C165.739 458.746 159.247 458.746 155.243 462.749C151.239 466.751 151.239 473.241 155.243 477.243C159.247 481.246 165.739 481.246 169.743 477.243Z" fill="white"/>
<path d="M162.501 480.986C156.423 480.986 151.5 476.065 151.5 469.99C151.5 463.915 156.423 458.994 162.501 458.994C168.578 458.994 173.501 463.915 173.501 469.99C173.501 476.065 168.578 480.986 162.501 480.986ZM162.501 460.487C157.272 460.487 152.994 464.73 152.994 469.99C152.994 475.216 157.238 479.492 162.501 479.492C167.729 479.492 172.007 475.25 172.007 469.99C172.007 464.764 167.729 460.487 162.501 460.487Z" fill="black"/>
<path d="M357.145 227.098H115.648C115.241 227.098 114.901 226.758 114.901 226.351C114.901 225.944 115.241 225.604 115.648 225.604H357.145C357.552 225.604 357.892 225.944 357.892 226.351C357.926 226.758 357.586 227.098 357.145 227.098Z" fill="black"/>
<path d="M357.145 257.492H115.648C115.241 257.492 114.901 257.153 114.901 256.746C114.901 256.338 115.241 255.999 115.648 255.999H357.145C357.552 255.999 357.892 256.338 357.892 256.746C357.926 257.153 357.586 257.492 357.145 257.492Z" fill="black"/>
<path d="M312.802 394.003H160.021C150.412 394.003 142.637 386.231 142.637 376.627V223.907C142.637 214.303 150.412 206.531 160.021 206.531H312.802C322.41 206.531 330.185 214.303 330.185 223.907V376.627C330.185 386.231 322.41 394.003 312.802 394.003Z" fill="white"/>
<path d="M312.802 394.75H160.02C150.005 394.75 141.89 386.605 141.89 376.628V223.908C141.89 213.896 150.039 205.785 160.02 205.785H312.802C322.818 205.785 330.932 213.93 330.932 223.908V376.628C330.932 386.605 322.784 394.75 312.802 394.75ZM160.02 207.278C150.854 207.278 143.384 214.745 143.384 223.908V376.628C143.384 385.791 150.854 393.257 160.02 393.257H312.802C321.969 393.257 329.438 385.791 329.438 376.628V223.908C329.438 214.745 321.969 207.278 312.802 207.278H160.02Z" fill="black"/>
<path d="M293.042 243.66H179.78V356.876H293.042V243.66Z" fill="#1F75BA"/>
<path d="M293.042 357.623H179.78C179.372 357.623 179.033 357.283 179.033 356.876V243.66C179.033 243.252 179.372 242.913 179.78 242.913H293.042C293.449 242.913 293.789 243.252 293.789 243.66V356.876C293.789 357.283 293.449 357.623 293.042 357.623ZM180.526 356.129H292.295V244.406H180.526V356.129Z" fill="black"/>
<path d="M315.058 110.18C309.197 99.3819 298.279 91.6851 285.484 90.2683C285.599 88.9281 285.676 87.6262 285.676 86.2477C285.676 61.2045 265.373 40.948 240.358 40.948C233.577 40.948 227.18 42.4414 221.434 45.0835C215.075 26.5501 197.491 13.2627 176.805 13.2627C154.74 13.2627 136.237 28.3881 131.027 48.8362C122.102 43.054 111.414 39.7226 99.9981 39.7226C68.3559 39.7226 42.6897 65.3784 42.6897 97.0078C42.6897 101.565 43.226 105.968 44.222 110.219H315.058V110.18Z" fill="white"/>
<path d="M315.059 111.023H44.1845C43.8014 111.023 43.4567 110.755 43.3801 110.372C42.3457 106.007 41.8094 101.489 41.8094 96.9701C41.8478 64.9195 67.897 38.8425 99.9606 38.8425C110.802 38.8425 121.336 41.8293 130.492 47.4966C136.276 26.7805 155.162 12.4209 176.768 12.4209C196.956 12.4209 214.999 25.0573 221.894 43.9737C227.717 41.4081 233.923 40.1445 240.358 40.1445C265.833 40.1445 286.519 60.8605 286.519 86.2866C286.519 87.3204 286.481 88.4309 286.404 89.5414C298.854 91.1497 309.772 98.6932 315.786 109.798C315.94 110.066 315.94 110.372 315.786 110.64C315.633 110.87 315.365 111.023 315.059 111.023ZM44.8741 109.338H313.603C307.588 99.191 297.131 92.4133 285.408 91.1114C284.949 91.0731 284.604 90.6519 284.642 90.1924C284.757 88.7756 284.834 87.5119 284.834 86.2483C284.834 61.7413 264.875 41.791 240.358 41.791C233.884 41.791 227.64 43.1695 221.779 45.85C221.549 45.9649 221.32 45.9649 221.09 45.85C220.86 45.7734 220.707 45.5819 220.63 45.3522C214.194 26.6656 196.573 14.0675 176.768 14.0675C155.507 14.0675 137.042 28.427 131.833 48.99C131.756 49.258 131.564 49.4495 131.335 49.5643C131.066 49.6792 130.798 49.6409 130.568 49.4878C121.451 43.5908 110.878 40.4891 99.9989 40.4891C68.8547 40.4891 43.5333 65.8002 43.5333 96.9318C43.5333 101.144 43.993 105.279 44.8741 109.338Z" fill="black"/>
<path d="M453.5 88.1445L454.082 89.1562L496.003 161.916L496.583 162.924L496.003 163.932L454.082 236.691L453.5 237.702H367.322L366.74 236.691L324.818 163.932L324.238 162.924L324.818 161.916L366.74 89.1562L367.322 88.1445H453.5Z" stroke="#1D2332" stroke-width="4.03861"/>
<g clip-path="url(#clip0_7759_2759)">
<path d="M410.415 213.418C396.435 213.418 383.443 207.772 373.699 197.609C372.993 196.903 373.134 195.774 373.699 195.209C374.405 194.503 375.535 194.644 376.099 195.209C385.137 204.666 397.141 209.889 410.274 209.889C436.258 209.889 457.3 188.857 457.3 162.884C457.3 136.911 436.399 115.879 410.415 115.879C384.431 115.879 363.39 136.911 363.39 162.884C363.39 171.071 365.508 179.258 369.603 186.316C370.027 187.163 369.745 188.292 369.039 188.716C368.191 189.139 367.203 188.857 366.638 188.01C362.119 180.387 359.859 171.777 359.859 162.884C359.859 135.076 382.595 112.35 410.415 112.35C438.235 112.35 460.971 135.076 460.971 162.884C460.971 190.692 438.235 213.418 410.415 213.418Z" fill="#1D2332"/>
<path d="M410.415 213.418C394.739 213.418 382.03 190.692 382.03 162.884C382.03 149.756 384.854 137.334 389.938 127.877C390.362 127.03 391.491 126.748 392.339 127.171C393.186 127.595 393.468 128.724 393.045 129.571C388.243 138.464 385.56 150.321 385.56 162.884C385.56 188.857 396.716 209.889 410.556 209.889C424.254 209.889 435.551 188.857 435.551 162.884C435.551 136.911 424.113 115.879 410.415 115.879C405.613 115.879 400.812 118.561 396.716 123.783C396.152 124.489 395.022 124.63 394.316 124.066C393.61 123.501 393.468 122.372 394.033 121.666C398.693 115.455 404.483 112.35 410.415 112.35C426.09 112.35 438.799 135.076 438.799 162.884C438.799 190.692 426.09 213.418 410.415 213.418Z" fill="#1D2332"/>
<path d="M410.415 191.256C382.595 191.256 359.859 178.552 359.859 162.883C359.859 147.215 382.595 134.511 410.415 134.511C438.235 134.511 460.971 147.215 460.971 162.883C460.971 169.094 457.582 174.882 451.227 179.822C450.521 180.387 449.391 180.246 448.826 179.54C448.261 178.834 448.402 177.705 449.109 177.14C454.616 172.906 457.582 168.106 457.582 163.024C457.582 149.332 436.54 138.04 410.556 138.04C384.572 138.04 363.389 149.05 363.389 162.883C363.389 176.576 384.431 187.868 410.415 187.868C421.289 187.868 431.88 185.892 440.353 182.081C441.2 181.657 442.189 182.081 442.613 182.928C443.036 183.775 442.613 184.763 441.765 185.186C432.727 189.139 421.854 191.256 410.415 191.256Z" fill="#1D2332"/>
<path d="M400.67 176.294C399.823 176.294 399.258 175.729 398.976 175.023L392.339 151.591C392.056 150.603 392.621 149.756 393.61 149.474C394.457 149.192 395.445 149.756 395.728 150.744L400.67 168.107L405.613 150.744C405.895 149.756 406.884 149.333 407.731 149.474C408.72 149.756 409.143 150.744 409.002 151.591L402.365 175.023C402.083 175.729 401.377 176.294 400.67 176.294Z" fill="#1D2332"/>
<path d="M413.52 176.294C412.532 176.294 411.825 175.447 411.825 174.6V161.614V151.309C411.825 150.321 412.673 149.615 413.52 149.615H424.817C426.795 149.615 428.348 151.168 428.348 153.003V160.061C428.348 161.896 426.795 163.449 424.817 163.449H417.757L427.924 173.471C428.63 174.177 428.63 175.306 427.924 175.87C427.218 176.576 426.088 176.576 425.524 175.87L415.356 165.707V174.6C415.356 175.447 414.509 176.294 413.52 176.294ZM415.356 159.779H424.817C424.959 159.779 424.959 159.779 424.959 159.779V153.003C424.959 153.003 424.959 153.003 424.817 153.003H415.215V159.779H415.356Z" fill="#1D2332"/>
</g>
<path d="M467.918 354.635L468.518 355.676L516.243 438.51L516.841 439.547L516.243 440.584L468.518 523.418L467.918 524.459H370.063L369.464 523.418L321.738 440.584L321.141 439.547L321.738 438.51L369.464 355.676L370.063 354.635H467.918Z" fill="#1F75BA" stroke="#1D2332" stroke-width="4.15611"/>
<g clip-path="url(#clip1_7759_2759)">
<path d="M443.096 418.079C443.096 418.079 440.294 419.064 436.504 419.064C430.076 419.064 425.297 416.108 422.66 410.362C421.507 408.063 420.024 406.75 419.859 406.585C418.87 405.929 417.552 406.093 416.892 407.078L414.75 410.033C409.476 417.258 403.049 418.735 398.599 418.735C395.963 418.735 394.15 418.079 394.15 418.079C392.831 417.586 391.513 418.571 391.513 420.049V451.245C391.513 459.454 396.127 466.842 405.027 472.425C411.454 476.529 418.046 478.336 418.211 478.336C418.54 478.5 418.87 478.5 419.364 478.336C419.694 478.336 425.956 476.529 432.548 472.425C441.283 466.842 446.062 459.29 446.062 451.245V420.049C445.897 418.735 444.414 417.75 443.096 418.079ZM441.777 451.409C441.777 466.514 422.166 473.41 418.705 474.395C415.244 473.246 395.633 466.514 395.633 451.409V422.676C396.457 422.84 397.611 422.84 398.764 422.84C412.278 422.84 418.376 411.839 418.87 411.511C418.87 411.675 419.035 411.839 419.035 412.004C423.32 421.198 431.065 423.333 436.668 423.333C438.646 423.333 440.459 423.004 441.942 422.84L441.777 451.409Z" fill="#1D2332"/>
<path d="M425.961 437.617C424.972 436.96 423.654 437.289 423.16 438.11L416.403 448.453L414.096 446.155C413.272 445.334 411.953 445.334 411.129 446.155C410.305 446.976 410.305 448.289 411.129 449.11L415.249 453.215C416.238 454.2 417.721 454.036 418.38 452.886L426.62 440.408C427.28 439.423 426.95 438.11 425.961 437.617Z" fill="#1D2332"/>
<path d="M466.5 424.974H453.975V408.391C453.975 406.914 452.492 405.928 451.174 406.421C451.174 406.421 447.218 407.899 442.274 407.899C433.54 407.899 427.113 403.63 423.487 395.092C422.169 391.973 420.191 390.331 420.026 390.166C419.038 389.346 417.719 389.674 417.06 390.659L414.258 394.764C407.172 405.108 398.438 407.406 392.505 407.406C388.879 407.406 386.407 406.585 386.407 406.585C385.089 406.093 383.605 407.078 383.605 408.556V425.138H370.916C369.762 425.138 368.773 426.124 368.773 427.273C368.773 428.422 369.762 429.407 370.916 429.407H383.441V435.154H375.201C374.047 435.154 373.058 436.139 373.058 437.288C373.058 438.438 374.047 439.423 375.201 439.423H383.441V445.662H377.013C375.86 445.662 374.871 446.647 374.871 447.796C374.871 448.946 375.86 449.931 377.013 449.931H383.276C383.605 451.08 380.639 467.335 400.745 480.962C409.15 486.709 417.554 489.008 418.049 489.172C418.378 489.336 418.873 489.336 419.202 489.172C419.532 489.008 427.772 486.545 436.506 480.962C456.777 467.335 453.811 451.244 453.975 449.931H460.238C461.391 449.931 462.38 448.946 462.38 447.796C462.38 446.647 461.391 445.662 460.238 445.662H453.975V439.423H462.215C463.369 439.423 464.358 438.438 464.358 437.288C464.358 436.139 463.369 435.154 462.215 435.154H453.975V428.915H466.5C467.654 428.915 468.643 427.93 468.643 426.78C468.478 425.795 467.489 424.974 466.5 424.974ZM449.855 451.737C449.855 461.424 444.582 470.126 434.199 477.022C427.607 481.455 420.686 483.918 418.543 484.574C416.566 483.918 409.809 481.619 403.052 477.022C392.505 470.126 387.231 461.424 387.231 451.573V410.854C388.55 411.018 390.198 411.347 392.01 411.347C398.932 411.347 408.985 408.884 417.06 397.062L418.378 395.092C418.708 395.585 418.873 396.077 419.202 396.57C424.641 409.212 434.529 411.839 441.78 411.839C444.746 411.839 447.383 411.347 449.361 410.854V451.737H449.855Z" fill="#1D2332"/>
</g>
<path d="M235.15 596.539H97.7328V491.545H124.517L133.529 501.056H235.15V596.539Z" fill="white"/>
<path d="M235.149 597.088H97.7319C97.4323 597.088 97.1827 596.838 97.1827 596.539V491.545C97.1827 491.246 97.4323 490.996 97.7319 490.996H124.516C124.666 490.996 124.816 491.046 124.916 491.171L133.777 500.507H235.149C235.448 500.507 235.698 500.757 235.698 501.056V596.539C235.723 596.863 235.473 597.088 235.149 597.088ZM98.2811 595.99H234.6V501.605H133.528C133.378 501.605 133.228 501.555 133.128 501.431L124.267 492.094H98.2811V595.99Z" fill="black"/>
<path d="M224.14 607.572H86.723V502.554H113.507L122.519 512.089H224.14V607.572Z" fill="white"/>
<path d="M224.139 608.121H86.7219C86.4224 608.121 86.1727 607.872 86.1727 607.572V502.578C86.1727 502.279 86.4224 502.029 86.7219 502.029H113.506C113.656 502.029 113.806 502.079 113.906 502.204L122.767 511.54H224.164C224.463 511.54 224.713 511.79 224.713 512.089V607.572C224.688 607.872 224.463 608.121 224.139 608.121ZM87.2711 606.998H223.59V512.614H122.518C122.368 512.614 122.218 512.564 122.118 512.439L113.257 503.103H87.2711V606.998Z" fill="black"/>
<path d="M213.131 618.58H75.714V513.562H102.498L111.51 523.097H213.131V618.58Z" fill="white"/>
<path d="M213.13 619.13H75.7132C75.4137 619.13 75.1641 618.88 75.1641 618.581V513.587C75.1641 513.288 75.4137 513.038 75.7132 513.038H102.498C102.647 513.038 102.797 513.088 102.897 513.213L111.759 522.549H213.155C213.455 522.549 213.704 522.799 213.704 523.098V618.581C213.679 618.88 213.43 619.13 213.13 619.13ZM76.2624 618.032H212.581V523.647H111.509C111.359 523.647 111.21 523.597 111.11 523.473L102.248 514.136H76.2624V618.032Z" fill="black"/>
<path d="M160.308 584.631C160.158 584.631 160.033 584.581 159.909 584.481C159.684 584.257 159.684 583.907 159.909 583.708L174.137 569.479L159.909 555.25C159.684 555.025 159.684 554.676 159.909 554.476C160.133 554.251 160.483 554.251 160.682 554.476L175.31 569.104C175.535 569.329 175.535 569.678 175.31 569.878L160.682 584.506C160.583 584.581 160.458 584.631 160.308 584.631Z" fill="black"/>
<path d="M129.78 584.631C129.63 584.631 129.505 584.581 129.38 584.482L114.752 569.853C114.652 569.753 114.603 569.604 114.603 569.454C114.603 569.304 114.652 569.179 114.752 569.055L129.38 554.426C129.605 554.202 129.954 554.202 130.154 554.426C130.379 554.651 130.379 555 130.154 555.2L115.926 569.429L130.154 583.658C130.379 583.882 130.379 584.232 130.154 584.432C130.054 584.581 129.929 584.631 129.78 584.631Z" fill="black"/>
<path d="M137.245 584.98C137.17 584.98 137.07 584.955 136.995 584.93C136.72 584.781 136.62 584.456 136.745 584.182L151.997 554.201C152.147 553.927 152.471 553.827 152.746 553.952C153.021 554.101 153.12 554.426 152.996 554.7L137.744 584.681C137.644 584.881 137.444 584.98 137.245 584.98Z" fill="black"/>
<defs>
<clipPath id="clip0_7759_2759">
<rect width="101.112" height="101.069" fill="white" transform="translate(359.857 112.35)"/>
</clipPath>
<clipPath id="clip1_7759_2759">
<rect width="99.8691" height="99.8262" fill="white" transform="translate(368.764 389.674)"/>
</clipPath>
</defs>
</svg>
