<svg width="132" height="97" viewBox="0 0 132 97" fill="none" xmlns="http://www.w3.org/2000/svg">
<path d="M21.7655 53.5793V59.4954L2.4361 49.4471V44.3944L11.3123 36.2879C12.1684 35.3957 12.8367 34.5752 13.3173 33.8263C13.7979 33.0605 14.1434 32.3345 14.3536 31.6482C14.5639 30.945 14.669 30.238 14.669 29.527C14.669 28.4268 14.5564 27.4287 14.3311 26.533C14.1058 25.6203 13.7679 24.8353 13.3173 24.1779C12.8818 23.5113 12.3411 23.0102 11.6953 22.6745C10.9143 22.2685 10.2685 22.2036 9.75784 22.4798C9.2472 22.756 8.86421 23.3017 8.60889 24.1169C8.36859 24.923 8.24844 25.9185 8.24844 27.1034L1.91795 23.8125C1.91795 21.5951 2.31595 19.7707 3.11195 18.3395C3.92298 16.916 5.05691 16.0413 6.51375 15.7153C7.9856 15.3802 9.75033 15.7474 11.8079 16.817C13.8205 17.8632 15.5026 19.1609 16.8543 20.7099C18.221 22.2667 19.2498 24.0118 19.9407 25.9452C20.6466 27.8694 20.9995 29.9149 20.9995 32.0816C20.9995 33.3172 20.8568 34.4449 20.5715 35.4645C20.2861 36.4672 19.8806 37.4074 19.355 38.2852C18.8293 39.1461 18.1835 39.9699 17.4175 40.7566C16.6515 41.5433 15.788 42.3216 14.8267 43.0914L10.5463 47.7471L21.7655 53.5793ZM44.8121 49.7416V56.1654C44.8121 58.9415 44.5793 61.2072 44.1137 62.9625C43.6481 64.7179 42.9948 66.0202 42.1537 66.8694C41.3127 67.7018 40.3139 68.122 39.1574 68.1302C38.001 68.1384 36.7244 67.7794 35.3276 67.0534C34.2162 66.4756 33.1724 65.7383 32.1962 64.8415C31.2199 63.9447 30.3338 62.8916 29.5378 61.6822C28.7568 60.4637 28.081 59.0883 27.5102 57.556C26.9545 56.0145 26.5265 54.3108 26.2261 52.4451C25.9257 50.5623 25.7756 48.5038 25.7756 46.2694V39.8456C25.7756 37.0695 26.0083 34.8123 26.4739 33.0739C26.9545 31.3263 27.6154 30.0364 28.4564 29.2041C29.2975 28.3718 30.2963 27.96 31.4527 27.9687C32.6242 27.9683 33.9083 28.3312 35.3051 29.0573C36.4015 29.6272 37.4378 30.3606 38.414 31.2574C39.4053 32.1451 40.2839 33.1858 41.0498 34.3796C41.8308 35.5811 42.4992 36.9527 43.0549 38.4941C43.6256 40.0265 44.0611 41.734 44.3615 43.6168C44.6619 45.4825 44.8121 47.5242 44.8121 49.7416ZM38.4816 53.8648V45.4097C38.4816 44.1063 38.429 42.9364 38.3239 41.9C38.2338 40.8714 38.1061 39.9756 37.9409 39.2126C37.7757 38.4497 37.5579 37.7863 37.2876 37.2226C37.0172 36.6589 36.7169 36.1981 36.3864 35.8401C36.056 35.4652 35.6881 35.1724 35.2826 34.9616C34.8019 34.7117 34.3664 34.6377 33.9759 34.7393C33.5854 34.841 33.2475 35.1647 32.9621 35.7104C32.6768 36.2391 32.459 37.0315 32.3088 38.0876C32.1736 39.1345 32.106 40.4704 32.106 42.0954V50.5505C32.106 51.8539 32.1511 53.0284 32.2412 54.0739C32.3463 55.1273 32.489 56.0562 32.6693 56.8609C32.8645 57.6564 33.0823 58.3282 33.3226 58.8763C33.5779 59.4322 33.8708 59.8976 34.2012 60.2725C34.5466 60.6382 34.9221 60.9265 35.3276 61.1373C35.8082 61.3872 36.2438 61.4612 36.6343 61.3596C37.0398 61.2487 37.3777 60.9166 37.648 60.3631C37.9184 59.8097 38.1211 59.001 38.2563 57.9371C38.4065 56.8642 38.4816 55.5067 38.4816 53.8648Z" fill="white"/>
<path d="M104.569 55.8419V61.7579L84.9276 71.1827V66.13L93.9469 49.0813C94.8168 47.3267 95.4959 45.8328 95.9842 44.5998C96.4726 43.3498 96.8236 42.2758 97.0372 41.3777C97.2509 40.4627 97.3577 39.6497 97.3577 38.9388C97.3577 37.8385 97.2433 36.954 97.0143 36.2852C96.7854 35.5995 96.4421 35.1548 95.9842 34.9514C95.5417 34.7236 94.9923 34.7672 94.336 35.0821C93.5425 35.4629 92.8862 36.0486 92.3674 36.8393C91.8485 37.6299 91.4593 38.5615 91.1999 39.6339C90.9557 40.682 90.8336 41.7986 90.8336 42.9835L84.4011 46.0701C84.4011 43.8527 84.8055 41.6274 85.6144 39.3942C86.4385 37.1537 87.5907 35.1366 89.071 33.3429C90.5666 31.525 92.3597 30.1144 94.4505 29.1112C96.4955 28.1299 98.2047 27.7329 99.5782 27.9201C100.967 28.1001 102.012 28.8087 102.714 30.0461C103.432 31.2592 103.79 32.9491 103.79 35.1158C103.79 36.3514 103.645 37.6228 103.355 38.9299C103.065 40.2201 102.653 41.5689 102.119 42.9762C101.585 44.3667 100.929 45.8411 100.15 47.3994C99.3722 48.9578 98.4947 50.6061 97.518 52.3443L93.1686 61.3122L104.569 55.8419ZM127.987 28.7863V35.2101C127.987 37.9861 127.75 40.4864 127.277 42.7108C126.804 44.9352 126.14 46.8957 125.285 48.5922C124.431 50.2718 123.416 51.6983 122.241 52.8715C121.066 54.0448 119.769 54.9719 118.349 55.653C117.22 56.1949 116.159 56.5092 115.167 56.5959C114.175 56.6825 113.275 56.5222 112.466 56.1147C111.673 55.683 110.986 54.9885 110.406 54.0311C109.841 53.0494 109.406 51.777 109.101 50.2138C108.796 48.6337 108.643 46.7265 108.643 44.4921V38.0683C108.643 35.2922 108.88 32.8005 109.353 30.593C109.841 28.3613 110.513 26.4056 111.367 24.7259C112.222 23.0463 113.237 21.6283 114.412 20.472C115.602 19.2914 116.907 18.3606 118.326 17.6796C119.44 17.145 120.493 16.8344 121.485 16.7477C122.493 16.6368 123.385 16.7924 124.164 17.2144C124.957 17.6292 125.636 18.3274 126.201 19.3091C126.781 20.2665 127.224 21.5352 127.529 23.1153C127.834 24.6785 127.987 26.5688 127.987 28.7863ZM121.554 39.287V30.8319C121.554 29.5285 121.501 28.4116 121.394 27.4811C121.302 26.5433 121.173 25.7761 121.005 25.1795C120.837 24.583 120.616 24.1391 120.341 23.8477C120.066 23.5563 119.761 23.3981 119.425 23.373C119.089 23.331 118.716 23.4089 118.303 23.6066C117.815 23.8409 117.373 24.2056 116.976 24.7007C116.579 25.1958 116.236 25.8599 115.946 26.6931C115.656 27.5093 115.434 28.5211 115.282 29.7284C115.144 30.9115 115.076 32.3156 115.076 33.9406V42.3957C115.076 43.699 115.122 44.8281 115.213 45.7829C115.32 46.7303 115.465 47.5156 115.648 48.1386C115.846 48.7374 116.068 49.1898 116.312 49.4958C116.571 49.7945 116.869 49.9649 117.205 50.0069C117.556 50.0247 117.937 49.9347 118.349 49.737C118.838 49.5026 119.28 49.1379 119.677 48.6428C120.089 48.1235 120.432 47.4509 120.707 46.6251C120.982 45.7993 121.188 44.7863 121.325 43.5863C121.478 42.362 121.554 40.9289 121.554 39.287Z" fill="white"/>
</svg>
