<svg width="132" height="97" viewBox="0 0 132 97" fill="none" xmlns="http://www.w3.org/2000/svg">
<path d="M22.3251 53.2516V59.1677L2.99567 49.1194V44.0667L11.8719 35.9602C12.728 35.068 13.3963 34.2475 13.8769 33.4986C14.3575 32.7328 14.7029 32.0068 14.9132 31.3205C15.1235 30.6173 15.2286 29.9103 15.2286 29.1993C15.2286 28.0991 15.116 27.1011 14.8907 26.2053C14.6654 25.2926 14.3275 24.5076 13.8769 23.8502C13.4414 23.1836 12.9007 22.6825 12.2549 22.3468C11.4739 21.9408 10.8281 21.8759 10.3174 22.1521C9.80677 22.4283 9.42378 22.974 9.16846 23.7892C8.92816 24.5953 8.80801 25.5908 8.80801 26.7757L2.47752 23.4848C2.47752 21.2674 2.87552 19.443 3.67152 18.0118C4.48255 16.5883 5.61648 15.7136 7.07332 15.3876C8.54517 15.0525 10.3099 15.4197 12.3675 16.4893C14.38 17.5355 16.0622 18.8332 17.4139 20.3822C18.7806 21.939 19.8094 23.6841 20.5003 25.6175C21.2062 27.5417 21.5591 29.5872 21.5591 31.7539C21.5591 32.9895 21.4164 34.1172 21.1311 35.1368C20.8457 36.1395 20.4402 37.0797 19.9145 37.9575C19.3889 38.8184 18.743 39.6422 17.9771 40.4289C17.2111 41.2156 16.3475 41.9939 15.3863 42.7637L11.1059 47.4194L22.3251 53.2516ZM45.3717 49.4139V55.8377C45.3717 58.6138 45.1389 60.8795 44.6733 62.6348C44.2077 64.3902 43.5544 65.6925 42.7133 66.5417C41.8722 67.3741 40.8735 67.7943 39.717 67.8025C38.5606 67.8107 37.2839 67.4518 35.8872 66.7257C34.7758 66.1479 33.732 65.4106 32.7557 64.5138C31.7795 63.617 30.8934 62.5639 30.0974 61.3545C29.3164 60.136 28.6405 58.7606 28.0698 57.2283C27.5141 55.6868 27.0861 53.9831 26.7857 52.1174C26.4853 50.2346 26.3351 48.1761 26.3351 45.9417V39.5179C26.3351 36.7419 26.5679 34.4846 27.0335 32.7462C27.5141 30.9986 28.1749 29.7087 29.016 28.8764C29.8571 28.0441 30.8558 27.6323 32.0123 27.641C33.1838 27.6406 34.4679 28.0035 35.8647 28.7296C36.961 29.2995 37.9973 30.0329 38.9736 30.9297C39.9648 31.8174 40.8434 32.8581 41.6094 34.0519C42.3904 35.2534 43.0587 36.625 43.6144 38.1664C44.1852 39.6988 44.6207 41.4063 44.9211 43.2891C45.2215 45.1548 45.3717 47.1965 45.3717 49.4139ZM39.0412 53.5371V45.082C39.0412 43.7786 38.9886 42.6087 38.8835 41.5723C38.7933 40.5437 38.6657 39.6479 38.5005 38.8849C38.3353 38.122 38.1175 37.4586 37.8472 36.8949C37.5768 36.3312 37.2764 35.8704 36.946 35.5124C36.6156 35.1375 36.2476 34.8447 35.8421 34.6339C35.3615 34.384 34.926 34.31 34.5355 34.4116C34.145 34.5133 33.8071 34.837 33.5217 35.3827C33.2363 35.9114 33.0186 36.7038 32.8684 37.7599C32.7332 38.8068 32.6656 40.1427 32.6656 41.7677V50.2228C32.6656 51.5262 32.7107 52.7007 32.8008 53.7462C32.9059 54.7996 33.0486 55.7286 33.2288 56.5332C33.4241 57.3287 33.6418 58.0005 33.8822 58.5486C34.1375 59.1045 34.4303 59.5699 34.7608 59.9448C35.1062 60.3105 35.4817 60.5988 35.8872 60.8096C36.3678 61.0595 36.8033 61.1336 37.1938 61.0319C37.5993 60.921 37.9373 60.5889 38.2076 60.0354C38.478 59.482 38.6807 58.6733 38.8159 57.6094C38.9661 56.5365 39.0412 55.179 39.0412 53.5371Z" fill="white"/>
<path d="M99.7028 27.993V65.038L93.2932 68.1137V39.8031L86.9294 45.5736V39.6322L99.0161 28.3226L99.7028 27.993ZM113.346 52.7275L113.667 52.5737C115.132 51.8707 116.383 51.0332 117.421 50.0613C118.474 49.082 119.328 47.9779 119.985 46.7489C120.656 45.4957 121.145 44.1188 121.45 42.6182C121.755 41.1176 121.908 39.504 121.908 37.7774V30.6426C121.908 29.3223 121.824 28.22 121.656 27.3357C121.488 26.4345 121.251 25.7355 120.946 25.2388C120.641 24.7251 120.298 24.399 119.916 24.2604C119.535 24.1219 119.122 24.1588 118.68 24.3712C118.161 24.6201 117.703 25.0345 117.306 25.6142C116.91 26.1939 116.574 26.8883 116.299 27.6972C116.04 28.4818 115.841 29.3303 115.704 30.2425C115.567 31.1548 115.498 32.0595 115.498 32.9566C115.498 33.9045 115.567 34.7603 115.704 35.5238C115.841 36.2873 116.047 36.9248 116.322 37.4362C116.597 37.9476 116.948 38.2785 117.375 38.4289C117.802 38.5794 118.314 38.5118 118.909 38.2262C119.397 37.9918 119.847 37.6234 120.259 37.121C120.671 36.6017 121.03 36.0064 121.335 35.3352C121.641 34.664 121.885 33.9713 122.068 33.2572C122.251 32.543 122.35 31.8522 122.365 31.1847L124.449 31.6323C124.449 32.7834 124.258 34.0175 123.876 35.3347C123.51 36.6446 122.999 37.9224 122.343 39.1683C121.686 40.4142 120.923 41.5251 120.053 42.5012C119.199 43.4529 118.275 44.1668 117.284 44.6428C115.956 45.2799 114.781 45.5306 113.758 45.395C112.736 45.2593 111.873 44.8013 111.171 44.021C110.485 43.2164 109.966 42.1451 109.615 40.807C109.264 39.452 109.088 37.8943 109.088 36.1339C109.088 34.3396 109.31 32.5492 109.752 30.7626C110.21 28.9518 110.859 27.244 111.698 25.6394C112.537 24.0349 113.552 22.6084 114.743 21.3601C115.933 20.0949 117.261 19.1108 118.726 18.4078C120.175 17.7121 121.488 17.4378 122.663 17.5848C123.838 17.7319 124.845 18.2727 125.685 19.2071C126.524 20.1247 127.165 21.4083 127.608 23.0579C128.065 24.6832 128.294 26.6385 128.294 28.9236V31.4881C128.294 33.9087 128.104 36.2515 127.722 38.5166C127.341 40.7648 126.761 42.9051 125.982 44.9374C125.204 46.9697 124.235 48.8566 123.075 50.5981C121.915 52.3226 120.557 53.8715 119 55.2447C117.459 56.5937 115.712 57.7369 113.758 58.6743L113.346 58.872V52.7275Z" fill="white"/>
</svg>
