<svg width="1103" height="387" viewBox="0 0 1103 387" fill="none" xmlns="http://www.w3.org/2000/svg">
<g opacity="0.07">
<path d="M1057.38 374.709L1074.41 329.148L1069.09 327.147L1052.06 372.709L1057.38 374.709Z" fill="#4E75D8"/>
<path d="M1044.35 350.667L1053.69 341.298L1049.68 337.277L1036.31 350.667L1049.68 364.075L1053.69 360.055L1044.35 350.667Z" fill="#4E75D8"/>
<path d="M1072.39 341.298L1081.75 350.686L1072.39 360.055L1076.42 364.075L1089.77 350.686L1076.42 337.277L1072.39 341.298Z" fill="#4E75D8"/>
<path d="M1041.5 315.417L1021.06 350.9L1041.5 386.384H1082.37L1102.8 350.9L1082.37 315.417H1041.5ZM1078.69 380.021H1045.18L1028.4 350.9L1045.18 321.779H1078.69L1095.45 350.9L1078.69 380.021Z" fill="#4E75D8"/>
<path d="M990 334.555L1007.03 288.993L1001.71 286.992L984.678 332.554L990 334.555Z" fill="#4E75D8"/>
<path d="M976.947 310.512L986.289 301.144L982.28 297.123L968.909 310.512L982.28 323.921L986.289 319.9L976.947 310.512Z" fill="#4E75D8"/>
<path d="M1005 301.144L1014.36 310.532L1005 319.9L1009.02 323.921L1022.38 310.532L1009.02 297.123L1005 301.144Z" fill="#4E75D8"/>
<path d="M974.1 275.263L953.664 310.746L974.1 346.23H1014.97L1035.41 310.746L1014.97 275.263H974.1ZM1011.29 339.867H977.778L961.001 310.746L977.778 281.626H1011.29L1028.05 310.746L1011.29 339.867Z" fill="#4E75D8"/>
<path d="M445.047 334.554L462.078 288.993L456.757 286.992L439.725 332.554L445.047 334.554Z" fill="#4E75D8"/>
<path d="M432.01 310.512L441.352 301.144L437.342 297.123L423.972 310.512L437.342 323.921L441.352 319.901L432.01 310.512Z" fill="#4E75D8"/>
<path d="M460.058 301.144L469.419 310.532L460.058 319.901L464.086 323.921L477.438 310.532L464.086 297.123L460.058 301.144Z" fill="#4E75D8"/>
<path d="M429.162 275.263L408.727 310.746L429.162 346.23H470.033L490.469 310.746L470.033 275.263H429.162ZM466.355 339.867H432.84L416.064 310.746L432.84 281.626H466.355L483.112 310.746L466.355 339.867Z" fill="#4E75D8"/>
<path d="M376.195 374.709L393.227 329.148L387.905 327.147L370.873 372.709L376.195 374.709Z" fill="#4E75D8"/>
<path d="M363.158 350.667L372.5 341.298L368.491 337.277L355.12 350.667L368.491 364.075L372.5 360.055L363.158 350.667Z" fill="#4E75D8"/>
<path d="M391.206 341.298L400.567 350.686L391.206 360.055L395.235 364.075L408.586 350.686L395.235 337.277L391.206 341.298Z" fill="#4E75D8"/>
<path d="M360.311 315.417L339.875 350.9L360.311 386.384H401.182L421.617 350.9L401.182 315.417H360.311ZM397.503 380.021H363.989L347.212 350.9L363.989 321.779H397.503L414.26 350.9L397.503 380.021Z" fill="#4E75D8"/>
<path d="M308.812 334.555L325.844 288.993L320.522 286.992L303.491 332.554L308.812 334.555Z" fill="#4E75D8"/>
<path d="M295.775 310.512L305.117 301.144L301.108 297.123L287.737 310.512L301.108 323.921L305.117 319.9L295.775 310.512Z" fill="#4E75D8"/>
<path d="M323.823 301.144L333.185 310.532L323.823 319.9L327.852 323.921L341.203 310.532L327.852 297.123L323.823 301.144Z" fill="#4E75D8"/>
<path d="M292.928 275.263L272.492 310.746L292.928 346.23H333.799L354.234 310.746L333.799 275.263H292.928ZM330.12 339.867H296.606L279.829 310.746L296.606 281.626H330.12L346.878 310.746L330.12 339.867Z" fill="#4E75D8"/>
<path d="M172.578 334.555L189.609 288.993L184.288 286.992L167.256 332.554L172.578 334.555Z" fill="#4E75D8"/>
<path d="M159.541 310.512L168.883 301.144L164.874 297.123L151.503 310.512L164.874 323.921L168.883 319.9L159.541 310.512Z" fill="#4E75D8"/>
<path d="M187.589 301.144L196.95 310.532L187.589 319.9L191.618 323.921L204.969 310.532L191.618 297.123L187.589 301.144Z" fill="#4E75D8"/>
<path d="M156.693 275.263L136.258 310.746L156.693 346.23H197.564L218 310.746L197.564 275.263H156.693ZM193.886 339.867H160.372L143.595 310.746L160.372 281.626H193.886L210.643 310.746L193.886 339.867Z" fill="#4E75D8"/>
<path d="M1057.38 295.856L1074.41 250.294L1069.09 248.293L1052.06 293.855L1057.38 295.856Z" fill="#4E75D8"/>
<path d="M1044.35 271.812L1053.69 262.444L1049.68 258.423L1036.31 271.812L1049.68 285.221L1053.69 281.201L1044.35 271.812Z" fill="#4E75D8"/>
<path d="M1072.39 262.444L1081.75 271.832L1072.39 281.201L1076.42 285.221L1089.77 271.832L1076.42 258.423L1072.39 262.444Z" fill="#4E75D8"/>
<path d="M1041.5 236.563L1021.06 272.047L1041.5 307.53H1082.37L1102.8 272.047L1082.37 236.563H1041.5ZM1078.69 301.167H1045.18L1028.4 272.047L1045.18 242.926H1078.69L1095.45 272.047L1078.69 301.167Z" fill="#4E75D8"/>
<path d="M990 255.701L1007.03 210.139L1001.71 208.138L984.678 253.7L990 255.701Z" fill="#4E75D8"/>
<path d="M976.947 231.658L986.289 222.29L982.28 218.269L968.909 231.658L982.28 245.067L986.289 241.047L976.947 231.658Z" fill="#4E75D8"/>
<path d="M1005 222.29L1014.36 231.678L1005 241.047L1009.02 245.067L1022.38 231.678L1009.02 218.269L1005 222.29Z" fill="#4E75D8"/>
<path d="M974.1 196.409L953.664 231.893L974.1 267.376H1014.97L1035.41 231.893L1014.97 196.409H974.1ZM1011.29 261.013H977.778L961.001 231.893L977.778 202.772H1011.29L1028.05 231.893L1011.29 261.013Z" fill="#4E75D8"/>
<path d="M921.172 295.856L938.203 250.294L932.882 248.293L915.85 293.855L921.172 295.856Z" fill="#4E75D8"/>
<path d="M908.119 271.812L917.461 262.444L913.452 258.423L900.081 271.812L913.452 285.221L917.461 281.2L908.119 271.812Z" fill="#4E75D8"/>
<path d="M936.167 262.444L945.528 271.832L936.167 281.2L940.196 285.221L953.547 271.832L940.196 258.423L936.167 262.444Z" fill="#4E75D8"/>
<path d="M905.272 236.563L884.836 272.046L905.272 307.53H946.143L966.578 272.046L946.143 236.563H905.272ZM942.464 301.167H908.95L892.173 272.046L908.95 242.925H942.464L959.221 272.046L942.464 301.167Z" fill="#4E75D8"/>
<path d="M717.507 255.7L734.539 210.139L729.218 208.138L712.186 253.7L717.507 255.7Z" fill="#4E75D8"/>
<path d="M704.471 231.658L713.812 222.29L709.803 218.269L696.433 231.658L709.803 245.067L713.812 241.046L704.471 231.658Z" fill="#4E75D8"/>
<path d="M732.519 222.29L741.88 231.678L732.519 241.046L736.547 245.067L749.898 231.678L736.547 218.269L732.519 222.29Z" fill="#4E75D8"/>
<path d="M701.623 196.409L681.188 231.893L701.623 267.376H742.494L762.93 231.893L742.494 196.409H701.623ZM738.816 261.013H705.301L688.525 231.893L705.301 202.772H738.816L755.573 231.893L738.816 261.013Z" fill="#4E75D8"/>
<path d="M581.265 255.7L598.297 210.139L592.975 208.138L575.944 253.7L581.265 255.7Z" fill="#4E75D8"/>
<path d="M568.213 231.658L577.555 222.29L573.545 218.269L560.175 231.658L573.545 245.067L577.555 241.046L568.213 231.658Z" fill="#4E75D8"/>
<path d="M596.276 222.29L605.638 231.678L596.276 241.046L600.305 245.067L613.656 231.678L600.305 218.269L596.276 222.29Z" fill="#4E75D8"/>
<path d="M565.381 196.409L544.945 231.893L565.381 267.376H606.252L626.688 231.893L606.252 196.409H565.381ZM602.574 261.013H569.059L552.283 231.893L569.059 202.772H602.574L619.331 231.893L602.574 261.013Z" fill="#4E75D8"/>
<path d="M512.437 295.856L529.469 250.294L524.147 248.293L507.116 293.855L512.437 295.856Z" fill="#4E75D8"/>
<path d="M499.4 271.812L508.742 262.444L504.733 258.423L491.362 271.812L504.733 285.221L508.742 281.2L499.4 271.812Z" fill="#4E75D8"/>
<path d="M527.448 262.444L536.81 271.832L527.448 281.2L531.477 285.221L544.828 271.832L531.477 258.423L527.448 262.444Z" fill="#4E75D8"/>
<path d="M496.553 236.563L476.117 272.047L496.553 307.531H537.424L557.859 272.047L537.424 236.563H496.553ZM533.745 301.168H500.231L483.454 272.047L500.231 242.926H533.745L550.503 272.047L533.745 301.168Z" fill="#4E75D8"/>
<path d="M445.047 255.7L462.078 210.139L456.757 208.138L439.725 253.7L445.047 255.7Z" fill="#4E75D8"/>
<path d="M432.01 231.658L441.352 222.29L437.342 218.269L423.972 231.658L437.342 245.067L441.352 241.046L432.01 231.658Z" fill="#4E75D8"/>
<path d="M460.058 222.29L469.419 231.678L460.058 241.046L464.086 245.067L477.438 231.678L464.086 218.269L460.058 222.29Z" fill="#4E75D8"/>
<path d="M429.162 196.409L408.727 231.893L429.162 267.376H470.033L490.469 231.893L470.033 196.409H429.162ZM466.355 261.013H432.84L416.064 231.893L432.84 202.772H466.355L483.112 231.893L466.355 261.013Z" fill="#4E75D8"/>
<path d="M376.195 295.856L393.227 250.294L387.905 248.293L370.873 293.855L376.195 295.856Z" fill="#4E75D8"/>
<path d="M363.158 271.813L372.5 262.444L368.491 258.423L355.12 271.813L368.491 285.221L372.5 281.201L363.158 271.813Z" fill="#4E75D8"/>
<path d="M391.206 262.444L400.567 271.832L391.206 281.201L395.235 285.221L408.586 271.832L395.235 258.423L391.206 262.444Z" fill="#4E75D8"/>
<path d="M360.311 236.563L339.875 272.047L360.311 307.53H401.182L421.617 272.047L401.182 236.563H360.311ZM397.503 301.167H363.989L347.212 272.047L363.989 242.926H397.503L414.26 272.047L397.503 301.167Z" fill="#4E75D8"/>
<path d="M308.812 255.7L325.844 210.138L320.522 208.138L303.491 253.699L308.812 255.7Z" fill="#4E75D8"/>
<path d="M295.775 231.658L305.117 222.289L301.108 218.268L287.737 231.658L301.108 245.067L305.117 241.046L295.775 231.658Z" fill="#4E75D8"/>
<path d="M323.823 222.289L333.185 231.677L323.823 241.046L327.852 245.067L341.203 231.677L327.852 218.268L323.823 222.289Z" fill="#4E75D8"/>
<path d="M292.928 196.408L272.492 231.892L292.928 267.375H333.799L354.234 231.892L333.799 196.408H292.928ZM330.12 261.012H296.606L279.829 231.892L296.606 202.771H330.12L346.878 231.892L330.12 261.012Z" fill="#4E75D8"/>
<path d="M239.961 295.856L256.992 250.294L251.671 248.294L234.639 293.855L239.961 295.856Z" fill="#4E75D8"/>
<path d="M226.924 271.813L236.266 262.444L232.256 258.423L218.886 271.813L232.256 285.221L236.266 281.201L226.924 271.813Z" fill="#4E75D8"/>
<path d="M254.972 262.444L264.333 271.832L254.972 281.201L259 285.221L272.352 271.832L259 258.423L254.972 262.444Z" fill="#4E75D8"/>
<path d="M224.076 236.563L203.641 272.047L224.076 307.53H264.947L285.383 272.047L264.947 236.563H224.076ZM261.269 301.167H227.754L210.978 272.047L227.754 242.926H261.269L278.026 272.047L261.269 301.167Z" fill="#4E75D8"/>
<path d="M172.578 255.7L189.609 210.139L184.288 208.138L167.256 253.7L172.578 255.7Z" fill="#4E75D8"/>
<path d="M159.541 231.658L168.883 222.29L164.874 218.269L151.503 231.658L164.874 245.067L168.883 241.046L159.541 231.658Z" fill="#4E75D8"/>
<path d="M187.589 222.29L196.95 231.678L187.589 241.046L191.618 245.067L204.969 231.678L191.618 218.269L187.589 222.29Z" fill="#4E75D8"/>
<path d="M156.693 196.409L136.258 231.893L156.693 267.376H197.564L218 231.893L197.564 196.409H156.693ZM193.886 261.013H160.372L143.595 231.893L160.372 202.772H193.886L210.643 231.893L193.886 261.013Z" fill="#4E75D8"/>
<path d="M103.718 295.856L120.75 250.294L115.429 248.294L98.3969 293.855L103.718 295.856Z" fill="#4E75D8"/>
<path d="M90.6815 271.812L100.023 262.443L96.0142 258.423L82.6435 271.812L96.0142 285.221L100.023 281.2L90.6815 271.812Z" fill="#4E75D8"/>
<path d="M118.729 262.443L128.091 271.831L118.729 281.2L122.758 285.221L136.109 271.831L122.758 258.423L118.729 262.443Z" fill="#4E75D8"/>
<path d="M87.834 236.563L67.3985 272.047L87.834 307.53H128.705L149.141 272.047L128.705 236.563H87.834ZM125.027 301.167H91.5122L74.7356 272.047L91.5122 242.926H125.027L141.784 272.047L125.027 301.167Z" fill="#4E75D8"/>
<path d="M36.32 255.7L53.3516 210.139L48.0301 208.138L30.9985 253.7L36.32 255.7Z" fill="#4E75D8"/>
<path d="M23.283 231.658L32.625 222.29L28.6157 218.269L15.2451 231.658L28.6157 245.067L32.625 241.046L23.283 231.658Z" fill="#4E75D8"/>
<path d="M51.331 222.29L60.6924 231.678L51.331 241.046L55.3597 245.067L68.7109 231.678L55.3597 218.269L51.331 222.29Z" fill="#4E75D8"/>
<path d="M20.4356 196.409L7.4625e-05 231.893L20.4356 267.376H61.3067L81.7422 231.893L61.3067 196.409H20.4356ZM57.6282 261.013H24.1138L7.3372 231.893L24.1138 202.772H57.6282L74.3853 231.893L57.6282 261.013Z" fill="#4E75D8"/>
<path d="M1057.38 217.001L1074.41 171.439L1069.09 169.438L1052.06 215L1057.38 217.001Z" fill="#4E75D8"/>
<path d="M1044.35 192.957L1053.69 183.589L1049.68 179.568L1036.31 192.957L1049.68 206.366L1053.69 202.345L1044.35 192.957Z" fill="#4E75D8"/>
<path d="M1072.39 183.589L1081.75 192.977L1072.39 202.345L1076.42 206.366L1089.77 192.977L1076.42 179.568L1072.39 183.589Z" fill="#4E75D8"/>
<path d="M1041.5 157.708L1021.06 193.191L1041.5 228.675H1082.37L1102.8 193.191L1082.37 157.708H1041.5ZM1078.69 222.312H1045.18L1028.4 193.191L1045.18 164.07H1078.69L1095.45 193.191L1078.69 222.312Z" fill="#4E75D8"/>
<path d="M990 176.847L1007.03 131.285L1001.71 129.285L984.678 174.846L990 176.847Z" fill="#4E75D8"/>
<path d="M976.947 152.804L986.289 143.436L982.28 139.415L968.909 152.804L982.28 166.213L986.289 162.192L976.947 152.804Z" fill="#4E75D8"/>
<path d="M1005 143.436L1014.36 152.824L1005 162.192L1009.02 166.213L1022.38 152.824L1009.02 139.415L1005 143.436Z" fill="#4E75D8"/>
<path d="M974.1 117.555L953.664 153.038L974.1 188.522H1014.97L1035.41 153.038L1014.97 117.555H974.1ZM1011.29 182.159H977.778L961.001 153.038L977.778 123.918H1011.29L1028.05 153.038L1011.29 182.159Z" fill="#4E75D8"/>
<path d="M921.172 217.001L938.203 171.439L932.882 169.439L915.85 215L921.172 217.001Z" fill="#4E75D8"/>
<path d="M908.119 192.957L917.461 183.589L913.452 179.568L900.081 192.957L913.452 206.366L917.461 202.346L908.119 192.957Z" fill="#4E75D8"/>
<path d="M936.167 183.589L945.528 192.977L936.167 202.346L940.196 206.366L953.547 192.977L940.196 179.568L936.167 183.589Z" fill="#4E75D8"/>
<path d="M905.272 157.708L884.836 193.191L905.272 228.675H946.143L966.578 193.191L946.143 157.708H905.272ZM942.464 222.312H908.95L892.173 193.191L908.95 164.071H942.464L959.221 193.191L942.464 222.312Z" fill="#4E75D8"/>
<path d="M853.75 176.847L870.781 131.285L865.46 129.284L848.428 174.846L853.75 176.847Z" fill="#4E75D8"/>
<path d="M840.713 152.804L850.055 143.436L846.045 139.415L832.675 152.804L846.045 166.213L850.055 162.192L840.713 152.804Z" fill="#4E75D8"/>
<path d="M868.761 143.436L878.122 152.824L868.761 162.192L872.789 166.213L886.141 152.824L872.789 139.415L868.761 143.436Z" fill="#4E75D8"/>
<path d="M837.865 117.555L817.43 153.038L837.865 188.522H878.736L899.172 153.038L878.736 117.555H837.865ZM875.058 182.159H841.543L824.767 153.038L841.543 123.918H875.058L891.815 153.038L875.058 182.159Z" fill="#4E75D8"/>
<path d="M784.922 217.001L801.953 171.439L796.632 169.438L779.6 215L784.922 217.001Z" fill="#4E75D8"/>
<path d="M771.869 192.957L781.211 183.589L777.202 179.568L763.831 192.957L777.202 206.366L781.211 202.346L771.869 192.957Z" fill="#4E75D8"/>
<path d="M799.917 183.589L809.278 192.977L799.917 202.346L803.946 206.366L817.297 192.977L803.946 179.568L799.917 183.589Z" fill="#4E75D8"/>
<path d="M769.022 157.708L748.586 193.191L769.022 228.675H809.893L830.328 193.191L809.893 157.708H769.022ZM806.214 222.312H772.7L755.923 193.191L772.7 164.07H806.214L822.971 193.191L806.214 222.312Z" fill="#4E75D8"/>
<path d="M717.507 176.846L734.539 131.284L729.218 129.284L712.186 174.845L717.507 176.846Z" fill="#4E75D8"/>
<path d="M704.471 152.803L713.812 143.434L709.803 139.413L696.433 152.803L709.803 166.211L713.812 162.191L704.471 152.803Z" fill="#4E75D8"/>
<path d="M732.519 143.434L741.88 152.822L732.519 162.191L736.547 166.211L749.898 152.822L736.547 139.413L732.519 143.434Z" fill="#4E75D8"/>
<path d="M701.623 117.554L681.188 153.037L701.623 188.521H742.494L762.93 153.037L742.494 117.554H701.623ZM738.816 182.158H705.301L688.525 153.037L705.301 123.917H738.816L755.573 153.037L738.816 182.158Z" fill="#4E75D8"/>
<path d="M648.687 217.001L665.719 171.439L660.397 169.438L643.366 215L648.687 217.001Z" fill="#4E75D8"/>
<path d="M635.635 192.957L644.977 183.589L640.967 179.568L627.597 192.957L640.967 206.366L644.977 202.345L635.635 192.957Z" fill="#4E75D8"/>
<path d="M663.683 183.589L673.044 192.977L663.683 202.345L667.711 206.366L681.062 192.977L667.711 179.568L663.683 183.589Z" fill="#4E75D8"/>
<path d="M632.787 157.707L612.352 193.191L632.787 228.674H673.658L694.094 193.191L673.658 157.707H632.787ZM669.98 222.312H636.465L619.689 193.191L636.465 164.07H669.98L686.737 193.191L669.98 222.312Z" fill="#4E75D8"/>
<path d="M581.265 176.846L598.297 131.284L592.975 129.284L575.944 174.845L581.265 176.846Z" fill="#4E75D8"/>
<path d="M568.213 152.803L577.555 143.434L573.545 139.413L560.175 152.803L573.545 166.211L577.555 162.191L568.213 152.803Z" fill="#4E75D8"/>
<path d="M596.276 143.434L605.638 152.822L596.276 162.191L600.305 166.211L613.656 152.822L600.305 139.413L596.276 143.434Z" fill="#4E75D8"/>
<path d="M565.381 117.554L544.945 153.037L565.381 188.521H606.252L626.688 153.037L606.252 117.554H565.381ZM602.574 182.158H569.059L552.283 153.037L569.059 123.917H602.574L619.331 153.037L602.574 182.158Z" fill="#4E75D8"/>
<path d="M512.437 217.001L529.469 171.439L524.147 169.438L507.116 215L512.437 217.001Z" fill="#4E75D8"/>
<path d="M499.4 192.957L508.742 183.588L504.733 179.568L491.362 192.957L504.733 206.366L508.742 202.345L499.4 192.957Z" fill="#4E75D8"/>
<path d="M527.448 183.588L536.81 192.977L527.448 202.345L531.477 206.366L544.828 192.977L531.477 179.568L527.448 183.588Z" fill="#4E75D8"/>
<path d="M496.553 157.707L476.117 193.191L496.553 228.674H537.424L557.859 193.191L537.424 157.707H496.553ZM533.745 222.311H500.231L483.454 193.191L500.231 164.07H533.745L550.503 193.191L533.745 222.311Z" fill="#4E75D8"/>
<path d="M445.047 176.846L462.078 131.285L456.757 129.284L439.725 174.846L445.047 176.846Z" fill="#4E75D8"/>
<path d="M432.01 152.804L441.352 143.435L437.342 139.415L423.972 152.804L437.342 166.213L441.352 162.192L432.01 152.804Z" fill="#4E75D8"/>
<path d="M460.058 143.435L469.419 152.823L460.058 162.192L464.086 166.213L477.438 152.823L464.086 139.415L460.058 143.435Z" fill="#4E75D8"/>
<path d="M429.162 117.554L408.727 153.038L429.162 188.521H470.033L490.469 153.038L470.033 117.554H429.162ZM466.355 182.159H432.84L416.064 153.038L432.84 123.917H466.355L483.112 153.038L466.355 182.159Z" fill="#4E75D8"/>
<path d="M376.195 217.001L393.227 171.439L387.905 169.438L370.873 215L376.195 217.001Z" fill="#4E75D8"/>
<path d="M363.158 192.957L372.5 183.589L368.491 179.568L355.12 192.957L368.491 206.366L372.5 202.345L363.158 192.957Z" fill="#4E75D8"/>
<path d="M391.206 183.589L400.567 192.977L391.206 202.345L395.235 206.366L408.586 192.977L395.235 179.568L391.206 183.589Z" fill="#4E75D8"/>
<path d="M360.311 157.707L339.875 193.191L360.311 228.674H401.182L421.617 193.191L401.182 157.707H360.311ZM397.503 222.312H363.989L347.212 193.191L363.989 164.07H397.503L414.26 193.191L397.503 222.312Z" fill="#4E75D8"/>
<path d="M308.812 176.847L325.844 131.285L320.522 129.284L303.491 174.846L308.812 176.847Z" fill="#4E75D8"/>
<path d="M295.775 152.804L305.117 143.436L301.108 139.415L287.737 152.804L301.108 166.213L305.117 162.192L295.775 152.804Z" fill="#4E75D8"/>
<path d="M323.823 143.436L333.185 152.824L323.823 162.192L327.852 166.213L341.203 152.824L327.852 139.415L323.823 143.436Z" fill="#4E75D8"/>
<path d="M292.928 117.555L272.492 153.038L292.928 188.522H333.799L354.234 153.038L333.799 117.555H292.928ZM330.12 182.159H296.606L279.829 153.038L296.606 123.918H330.12L346.878 153.038L330.12 182.159Z" fill="#4E75D8"/>
<path d="M239.961 217.001L256.992 171.439L251.671 169.438L234.639 215L239.961 217.001Z" fill="#4E75D8"/>
<path d="M226.924 192.957L236.266 183.589L232.256 179.568L218.886 192.957L232.256 206.366L236.266 202.345L226.924 192.957Z" fill="#4E75D8"/>
<path d="M254.972 183.589L264.333 192.977L254.972 202.345L259 206.366L272.352 192.977L259 179.568L254.972 183.589Z" fill="#4E75D8"/>
<path d="M224.076 157.707L203.641 193.191L224.076 228.674H264.947L285.383 193.191L264.947 157.707H224.076ZM261.269 222.312H227.754L210.978 193.191L227.754 164.07H261.269L278.026 193.191L261.269 222.312Z" fill="#4E75D8"/>
<path d="M172.578 176.846L189.609 131.284L184.288 129.284L167.256 174.845L172.578 176.846Z" fill="#4E75D8"/>
<path d="M159.541 152.803L168.883 143.434L164.874 139.413L151.503 152.803L164.874 166.211L168.883 162.191L159.541 152.803Z" fill="#4E75D8"/>
<path d="M187.589 143.434L196.95 152.822L187.589 162.191L191.618 166.211L204.969 152.822L191.618 139.413L187.589 143.434Z" fill="#4E75D8"/>
<path d="M156.693 117.554L136.258 153.037L156.693 188.521H197.564L218 153.037L197.564 117.554H156.693ZM193.886 182.158H160.372L143.595 153.037L160.372 123.917H193.886L210.643 153.037L193.886 182.158Z" fill="#4E75D8"/>
<path d="M103.718 217L120.75 171.438L115.429 169.438L98.3969 215L103.718 217Z" fill="#4E75D8"/>
<path d="M90.6815 192.957L100.023 183.588L96.0142 179.568L82.6435 192.957L96.0142 206.366L100.023 202.345L90.6815 192.957Z" fill="#4E75D8"/>
<path d="M118.729 183.588L128.091 192.977L118.729 202.345L122.758 206.366L136.109 192.977L122.758 179.568L118.729 183.588Z" fill="#4E75D8"/>
<path d="M87.834 157.708L67.3985 193.191L87.834 228.675H128.705L149.141 193.191L128.705 157.708H87.834ZM125.027 222.312H91.5122L74.7356 193.191L91.5122 164.07H125.027L141.784 193.191L125.027 222.312Z" fill="#4E75D8"/>
<path d="M921.156 138.145L938.188 92.5837L932.866 90.5831L915.834 136.145L921.156 138.145Z" fill="#4E75D8"/>
<path d="M908.119 114.103L917.461 104.734L913.452 100.713L900.081 114.103L913.452 127.511L917.461 123.491L908.119 114.103Z" fill="#4E75D8"/>
<path d="M936.167 104.734L945.528 114.122L936.167 123.491L940.196 127.511L953.547 114.122L940.196 100.713L936.167 104.734Z" fill="#4E75D8"/>
<path d="M905.272 78.8532L884.836 114.337L905.272 149.82H946.143L966.578 114.337L946.143 78.8532H905.272ZM942.464 143.457H908.95L892.173 114.337L908.95 85.216H942.464L959.221 114.337L942.464 143.457Z" fill="#4E75D8"/>
<path d="M853.75 97.9916L870.781 52.4299L865.46 50.4293L848.428 95.991L853.75 97.9916Z" fill="#4E75D8"/>
<path d="M840.713 73.9495L850.055 64.5809L846.045 60.5602L832.675 73.9495L846.045 87.3583L850.055 83.3376L840.713 73.9495Z" fill="#4E75D8"/>
<path d="M868.761 64.5809L878.122 73.969L868.761 83.3376L872.789 87.3583L886.141 73.969L872.789 60.5602L868.761 64.5809Z" fill="#4E75D8"/>
<path d="M837.865 38.7L817.43 74.1834L837.865 109.667H878.736L899.172 74.1834L878.736 38.7H837.865ZM875.058 103.304H841.543L824.767 74.1834L841.543 45.0628H875.058L891.815 74.1834L875.058 103.304Z" fill="#4E75D8"/>
<path d="M784.906 138.145L801.938 92.5837L796.616 90.5831L779.584 136.145L784.906 138.145Z" fill="#4E75D8"/>
<path d="M771.869 114.103L781.211 104.734L777.202 100.713L763.831 114.103L777.202 127.511L781.211 123.491L771.869 114.103Z" fill="#4E75D8"/>
<path d="M799.917 104.734L809.278 114.122L799.917 123.491L803.946 127.511L817.297 114.122L803.946 100.713L799.917 104.734Z" fill="#4E75D8"/>
<path d="M769.022 78.8532L748.586 114.337L769.022 149.82H809.893L830.328 114.337L809.893 78.8532H769.022ZM806.214 143.457H772.7L755.923 114.337L772.7 85.216H806.214L822.971 114.337L806.214 143.457Z" fill="#4E75D8"/>
<path d="M648.679 138.145L665.711 92.5836L660.389 90.583L643.358 136.145L648.679 138.145Z" fill="#4E75D8"/>
<path d="M635.642 114.103L644.984 104.734L640.975 100.713L627.604 114.103L640.975 127.511L644.984 123.491L635.642 114.103Z" fill="#4E75D8"/>
<path d="M663.69 104.734L673.052 114.122L663.69 123.491L667.719 127.511L681.07 114.122L667.719 100.713L663.69 104.734Z" fill="#4E75D8"/>
<path d="M632.795 78.8529L612.359 114.336L632.795 149.82H673.666L694.102 114.336L673.666 78.8529H632.795ZM669.988 143.457H636.473L619.697 114.336L636.473 85.2158H669.988L686.745 114.336L669.988 143.457Z" fill="#4E75D8"/>
<path d="M581.265 97.9916L598.297 52.4299L592.975 50.4293L575.944 95.991L581.265 97.9916Z" fill="#4E75D8"/>
<path d="M568.213 73.9495L577.555 64.5809L573.545 60.5602L560.175 73.9495L573.545 87.3583L577.555 83.3376L568.213 73.9495Z" fill="#4E75D8"/>
<path d="M596.276 64.5809L605.638 73.969L596.276 83.3376L600.305 87.3583L613.656 73.969L600.305 60.5602L596.276 64.5809Z" fill="#4E75D8"/>
<path d="M565.381 38.7L544.945 74.1834L565.381 109.667H606.252L626.688 74.1834L606.252 38.7H565.381ZM602.574 103.304H569.059L552.283 74.1834L569.059 45.0628H602.574L619.331 74.1834L602.574 103.304Z" fill="#4E75D8"/>
<path d="M512.437 138.145L529.469 92.5837L524.147 90.5831L507.116 136.145L512.437 138.145Z" fill="#4E75D8"/>
<path d="M499.4 114.103L508.742 104.734L504.733 100.713L491.362 114.103L504.733 127.511L508.742 123.491L499.4 114.103Z" fill="#4E75D8"/>
<path d="M527.448 104.734L536.81 114.122L527.448 123.491L531.477 127.511L544.828 114.122L531.477 100.713L527.448 104.734Z" fill="#4E75D8"/>
<path d="M496.553 78.8532L476.117 114.337L496.553 149.82H537.424L557.859 114.337L537.424 78.8532H496.553ZM533.745 143.457H500.231L483.454 114.337L500.231 85.216H533.745L550.503 114.337L533.745 143.457Z" fill="#4E75D8"/>
<path d="M445.047 97.9911L462.078 52.4294L456.757 50.4288L439.725 95.9905L445.047 97.9911Z" fill="#4E75D8"/>
<path d="M432.01 73.9495L441.352 64.5809L437.342 60.5602L423.972 73.9495L437.342 87.3583L441.352 83.3376L432.01 73.9495Z" fill="#4E75D8"/>
<path d="M460.058 64.5809L469.419 73.969L460.058 83.3376L464.086 87.3583L477.438 73.969L464.086 60.5602L460.058 64.5809Z" fill="#4E75D8"/>
<path d="M429.162 38.7L408.727 74.1834L429.162 109.667H470.033L490.469 74.1834L470.033 38.7H429.162ZM466.355 103.304H432.84L416.064 74.1834L432.84 45.0628H466.355L483.112 74.1834L466.355 103.304Z" fill="#4E75D8"/>
<path d="M376.195 138.145L393.227 92.5837L387.905 90.5831L370.873 136.145L376.195 138.145Z" fill="#4E75D8"/>
<path d="M363.158 114.103L372.5 104.734L368.491 100.713L355.12 114.103L368.491 127.511L372.5 123.491L363.158 114.103Z" fill="#4E75D8"/>
<path d="M391.206 104.734L400.567 114.122L391.206 123.491L395.235 127.511L408.586 114.122L395.235 100.713L391.206 104.734Z" fill="#4E75D8"/>
<path d="M360.311 78.8532L339.875 114.337L360.311 149.82H401.182L421.617 114.337L401.182 78.8532H360.311ZM397.503 143.457H363.989L347.212 114.337L363.989 85.216H397.503L414.26 114.337L397.503 143.457Z" fill="#4E75D8"/>
<path d="M308.812 97.9916L325.844 52.4299L320.522 50.4293L303.491 95.991L308.812 97.9916Z" fill="#4E75D8"/>
<path d="M295.775 73.9495L305.117 64.5809L301.108 60.5602L287.737 73.9495L301.108 87.3583L305.117 83.3376L295.775 73.9495Z" fill="#4E75D8"/>
<path d="M323.823 64.5809L333.185 73.969L323.823 83.3376L327.852 87.3583L341.203 73.969L327.852 60.5602L323.823 64.5809Z" fill="#4E75D8"/>
<path d="M292.928 38.7L272.492 74.1834L292.928 109.667H333.799L354.234 74.1834L333.799 38.7H292.928ZM330.12 103.304H296.606L279.829 74.1834L296.606 45.0628H330.12L346.878 74.1834L330.12 103.304Z" fill="#4E75D8"/>
<path d="M239.961 138.145L256.992 92.5837L251.671 90.5831L234.639 136.145L239.961 138.145Z" fill="#4E75D8"/>
<path d="M226.924 114.103L236.266 104.734L232.256 100.713L218.886 114.103L232.256 127.511L236.266 123.491L226.924 114.103Z" fill="#4E75D8"/>
<path d="M254.972 104.734L264.333 114.122L254.972 123.491L259 127.511L272.352 114.122L259 100.713L254.972 104.734Z" fill="#4E75D8"/>
<path d="M224.076 78.8532L203.641 114.337L224.076 149.82H264.947L285.383 114.337L264.947 78.8532H224.076ZM261.269 143.457H227.754L210.978 114.337L227.754 85.216H261.269L278.026 114.337L261.269 143.457Z" fill="#4E75D8"/>
<path d="M172.578 97.9916L189.609 52.4299L184.288 50.4293L167.256 95.991L172.578 97.9916Z" fill="#4E75D8"/>
<path d="M159.541 73.9495L168.883 64.5809L164.874 60.5602L151.503 73.9495L164.874 87.3583L168.883 83.3376L159.541 73.9495Z" fill="#4E75D8"/>
<path d="M187.589 64.5809L196.95 73.969L187.589 83.3376L191.618 87.3583L204.969 73.969L191.618 60.5602L187.589 64.5809Z" fill="#4E75D8"/>
<path d="M156.693 38.7L136.258 74.1834L156.693 109.667H197.564L218 74.1834L197.564 38.7H156.693ZM193.886 103.304H160.372L143.595 74.1834L160.372 45.0628H193.886L210.643 74.1834L193.886 103.304Z" fill="#4E75D8"/>
<path d="M103.718 138.145L120.75 92.5837L115.429 90.5831L98.3969 136.145L103.718 138.145Z" fill="#4E75D8"/>
<path d="M90.6815 114.103L100.023 104.734L96.0142 100.713L82.6435 114.103L96.0142 127.511L100.023 123.491L90.6815 114.103Z" fill="#4E75D8"/>
<path d="M118.729 104.734L128.091 114.122L118.729 123.491L122.758 127.511L136.109 114.122L122.758 100.713L118.729 104.734Z" fill="#4E75D8"/>
<path d="M87.834 78.8532L67.3985 114.337L87.834 149.82H128.705L149.141 114.337L128.705 78.8532H87.834ZM125.027 143.457H91.5122L74.7356 114.337L91.5122 85.216H125.027L141.784 114.337L125.027 143.457Z" fill="#4E75D8"/>
<path d="M921.172 59.292L938.203 13.7303L932.882 11.7297L915.85 57.2914L921.172 59.292Z" fill="#4E75D8"/>
<path d="M908.119 35.2494L917.461 25.8808L913.452 21.8601L900.081 35.2494L913.452 48.6582L917.461 44.6375L908.119 35.2494Z" fill="#4E75D8"/>
<path d="M936.167 25.8808L945.528 35.2689L936.167 44.6375L940.196 48.6582L953.547 35.2689L940.196 21.8601L936.167 25.8808Z" fill="#4E75D8"/>
<path d="M905.272 2.07848e-05L884.836 35.4834L905.272 70.967H946.143L966.578 35.4834L946.143 2.07848e-05H905.272ZM942.464 64.6042H908.95L892.173 35.4834L908.95 6.36287H942.464L959.221 35.4834L942.464 64.6042Z" fill="#4E75D8"/>
<path d="M784.922 59.2925L801.953 13.7308L796.632 11.7302L779.6 57.2919L784.922 59.2925Z" fill="#4E75D8"/>
<path d="M771.869 35.2494L781.211 25.8808L777.202 21.8601L763.831 35.2494L777.202 48.6582L781.211 44.6375L771.869 35.2494Z" fill="#4E75D8"/>
<path d="M799.917 25.8808L809.278 35.2689L799.917 44.6375L803.946 48.6582L817.297 35.2689L803.946 21.8601L799.917 25.8808Z" fill="#4E75D8"/>
<path d="M769.022 2.07848e-05L748.586 35.4834L769.022 70.967H809.893L830.328 35.4834L809.893 2.07848e-05H769.022ZM806.214 64.6042H772.7L755.923 35.4834L772.7 6.36287H806.214L822.971 35.4834L806.214 64.6042Z" fill="#4E75D8"/>
<path d="M376.195 59.2925L393.227 13.7308L387.905 11.7302L370.873 57.2919L376.195 59.2925Z" fill="#4E75D8"/>
<path d="M363.158 35.2494L372.5 25.8808L368.491 21.8601L355.12 35.2494L368.491 48.6582L372.5 44.6375L363.158 35.2494Z" fill="#4E75D8"/>
<path d="M391.206 25.8808L400.567 35.2689L391.206 44.6375L395.235 48.6582L408.586 35.2689L395.235 21.8601L391.206 25.8808Z" fill="#4E75D8"/>
<path d="M360.311 -9.73274e-06L339.875 35.4834L360.311 70.967H401.182L421.617 35.4834L401.182 -9.73274e-06H360.311ZM397.503 64.6042H363.989L347.212 35.4834L363.989 6.36284H397.503L414.26 35.4834L397.503 64.6042Z" fill="#4E75D8"/>
</g>
</svg>
