<svg width="1554" height="621" viewBox="0 0 1554 621" fill="none" xmlns="http://www.w3.org/2000/svg">
<g opacity="0.1">
<path d="M837.949 83.2739L810.584 156.478L819.134 159.692L846.499 86.4882L837.949 83.2739Z" fill="#4E75D8"/>
<path d="M858.895 121.902L843.885 136.955L850.326 143.415L871.809 121.902L850.326 100.358L843.885 106.818L858.895 121.902Z" fill="#4E75D8"/>
<path d="M813.829 136.955L798.788 121.871L813.829 106.818L807.356 100.358L785.904 121.871L807.356 143.415L813.829 136.955Z" fill="#4E75D8"/>
<path d="M863.47 178.538L896.304 121.526L863.47 64.5146H797.803L764.969 121.526L797.803 178.538H863.47ZM803.713 74.7379H857.561L884.516 121.526L857.561 168.314H803.713L776.789 121.526L803.713 74.7379Z" fill="#4E75D8"/>
<path d="M948.57 18.7568L921.205 91.9609L929.755 95.1753L957.12 21.9711L948.57 18.7568Z" fill="#4E75D8"/>
<path d="M969.516 57.3867L954.506 72.4393L960.948 78.8994L982.43 57.3867L960.948 35.8428L954.506 42.3028L969.516 57.3867Z" fill="#4E75D8"/>
<path d="M924.45 72.4393L909.409 57.3554L924.45 42.3028L917.977 35.8428L896.525 57.3554L917.977 78.8994L924.45 72.4393Z" fill="#4E75D8"/>
<path d="M974.091 114.023L1006.93 57.0117L974.091 0H908.424L875.59 57.0117L908.424 114.023H974.091ZM914.334 10.2232H968.182L995.137 57.0117L968.182 103.8H914.334L887.41 57.0117L914.334 10.2232Z" fill="#4E75D8"/>
<path d="M1056.84 83.2736L1029.47 156.478L1038.02 159.692L1065.39 86.488L1056.84 83.2736Z" fill="#4E75D8"/>
<path d="M1077.79 121.903L1062.78 136.956L1069.22 143.416L1090.7 121.903L1069.22 100.359L1062.78 106.819L1077.79 121.903Z" fill="#4E75D8"/>
<path d="M1032.72 136.956L1017.68 121.872L1032.72 106.819L1026.25 100.359L1004.79 121.872L1026.25 143.416L1032.72 136.956Z" fill="#4E75D8"/>
<path d="M1082.36 178.538L1115.19 121.527L1082.36 64.5154H1016.69L983.859 121.527L1016.69 178.538H1082.36ZM1022.6 74.7386H1076.45L1103.41 121.527L1076.45 168.315H1022.6L995.68 121.527L1022.6 74.7386Z" fill="#4E75D8"/>
<path d="M1275.73 83.2736L1248.36 156.478L1256.91 159.692L1284.28 86.488L1275.73 83.2736Z" fill="#4E75D8"/>
<path d="M1296.67 121.903L1281.66 136.956L1288.1 143.416L1309.59 121.903L1288.1 100.359L1281.66 106.819L1296.67 121.903Z" fill="#4E75D8"/>
<path d="M1251.61 136.956L1236.57 121.872L1251.61 106.819L1245.14 100.359L1223.68 121.872L1245.14 143.416L1251.61 136.956Z" fill="#4E75D8"/>
<path d="M1301.25 178.538L1334.08 121.527L1301.25 64.5154H1235.58L1202.75 121.527L1235.58 178.538H1301.25ZM1241.49 74.7386H1295.34L1322.29 121.527L1295.34 168.315H1241.49L1214.57 121.527L1241.49 74.7386Z" fill="#4E75D8"/>
<path d="M400.179 209.969L372.814 283.173L381.364 286.387L408.729 213.183L400.179 209.969Z" fill="#4E75D8"/>
<path d="M421.125 248.597L406.115 263.65L412.557 270.11L434.04 248.597L412.557 227.053L406.115 233.514L421.125 248.597Z" fill="#4E75D8"/>
<path d="M376.061 263.65L361.02 248.566L376.061 233.514L369.588 227.053L348.137 248.566L369.588 270.11L376.061 263.65Z" fill="#4E75D8"/>
<path d="M425.701 305.233L458.535 248.221L425.701 191.209H360.033L327.199 248.221L360.033 305.233H425.701ZM365.943 201.433H419.791L446.746 248.221L419.791 295.009H365.943L339.019 248.221L365.943 201.433Z" fill="#4E75D8"/>
<path d="M619.082 209.969L591.717 283.173L600.267 286.387L627.632 213.183L619.082 209.969Z" fill="#4E75D8"/>
<path d="M640.053 248.597L625.043 263.65L631.485 270.11L652.967 248.597L631.485 227.053L625.043 233.514L640.053 248.597Z" fill="#4E75D8"/>
<path d="M594.962 263.65L579.92 248.566L594.962 233.514L588.489 227.053L567.037 248.566L588.489 270.11L594.962 263.65Z" fill="#4E75D8"/>
<path d="M644.603 305.233L677.437 248.221L644.603 191.209H578.935L546.102 248.221L578.935 305.233H644.603ZM584.846 201.433H638.693L665.648 248.221L638.693 295.009H584.846L557.922 248.221L584.846 201.433Z" fill="#4E75D8"/>
<path d="M729.669 145.451L702.305 218.656L710.855 221.87L738.219 148.666L729.669 145.451Z" fill="#4E75D8"/>
<path d="M750.613 184.082L735.604 199.135L742.045 205.595L763.528 184.082L742.045 162.538L735.604 168.998L750.613 184.082Z" fill="#4E75D8"/>
<path d="M705.549 199.135L690.508 184.051L705.549 168.998L699.076 162.538L677.625 184.051L699.076 205.595L705.549 199.135Z" fill="#4E75D8"/>
<path d="M755.191 240.717L788.025 183.705L755.191 126.694H689.523L656.689 183.705L689.523 240.717H755.191ZM695.433 136.917H749.281L776.236 183.705L749.281 230.493H695.433L668.51 183.705L695.433 136.917Z" fill="#4E75D8"/>
<path d="M837.949 209.969L810.584 283.173L819.134 286.387L846.499 213.183L837.949 209.969Z" fill="#4E75D8"/>
<path d="M858.895 248.597L843.885 263.65L850.326 270.11L871.809 248.597L850.326 227.053L843.885 233.514L858.895 248.597Z" fill="#4E75D8"/>
<path d="M813.829 263.65L798.788 248.566L813.829 233.514L807.356 227.053L785.904 248.566L807.356 270.11L813.829 263.65Z" fill="#4E75D8"/>
<path d="M863.47 305.233L896.304 248.221L863.47 191.209H797.803L764.969 248.221L797.803 305.233H863.47ZM803.713 201.433H857.561L884.516 248.221L857.561 295.009H803.713L776.789 248.221L803.713 201.433Z" fill="#4E75D8"/>
<path d="M948.57 145.451L921.205 218.656L929.755 221.87L957.12 148.666L948.57 145.451Z" fill="#4E75D8"/>
<path d="M969.516 184.082L954.506 199.134L960.948 205.594L982.43 184.082L960.948 162.538L954.506 168.998L969.516 184.082Z" fill="#4E75D8"/>
<path d="M924.45 199.134L909.409 184.05L924.45 168.998L917.977 162.538L896.525 184.05L917.977 205.594L924.45 199.134Z" fill="#4E75D8"/>
<path d="M974.091 240.717L1006.93 183.706L974.091 126.694H908.424L875.59 183.706L908.424 240.717H974.091ZM914.334 136.917H968.182L995.137 183.706L968.182 230.494H914.334L887.41 183.706L914.334 136.917Z" fill="#4E75D8"/>
<path d="M1056.84 209.97L1029.47 283.174L1038.02 286.389L1065.39 213.185L1056.84 209.97Z" fill="#4E75D8"/>
<path d="M1077.79 248.599L1062.78 263.651L1069.22 270.111L1090.7 248.599L1069.22 227.055L1062.78 233.515L1077.79 248.599Z" fill="#4E75D8"/>
<path d="M1032.72 263.651L1017.68 248.567L1032.72 233.515L1026.25 227.055L1004.79 248.567L1026.25 270.111L1032.72 263.651Z" fill="#4E75D8"/>
<path d="M1082.36 305.234L1115.19 248.223L1082.36 191.211H1016.69L983.859 248.223L1016.69 305.234H1082.36ZM1022.6 201.434H1076.45L1103.41 248.223L1076.45 295.011H1022.6L995.68 248.223L1022.6 201.434Z" fill="#4E75D8"/>
<path d="M1167.45 145.451L1140.09 218.655L1148.64 221.87L1176 148.665L1167.45 145.451Z" fill="#4E75D8"/>
<path d="M1188.4 184.082L1173.39 199.134L1179.83 205.594L1201.32 184.082L1179.83 162.538L1173.39 168.998L1188.4 184.082Z" fill="#4E75D8"/>
<path d="M1143.33 199.134L1128.29 184.05L1143.33 168.998L1136.86 162.538L1115.41 184.05L1136.86 205.594L1143.33 199.134Z" fill="#4E75D8"/>
<path d="M1192.98 240.717L1225.81 183.706L1192.98 126.694H1127.31L1094.47 183.706L1127.31 240.717H1192.98ZM1133.22 136.917H1187.07L1214.02 183.706L1187.07 230.494H1133.22L1106.29 183.706L1133.22 136.917Z" fill="#4E75D8"/>
<path d="M1275.73 209.969L1248.36 283.173L1256.91 286.387L1284.28 213.183L1275.73 209.969Z" fill="#4E75D8"/>
<path d="M1296.67 248.597L1281.66 263.65L1288.1 270.11L1309.59 248.597L1288.1 227.053L1281.66 233.514L1296.67 248.597Z" fill="#4E75D8"/>
<path d="M1251.61 263.65L1236.57 248.566L1251.61 233.514L1245.14 227.053L1223.68 248.566L1245.14 270.11L1251.61 263.65Z" fill="#4E75D8"/>
<path d="M1301.25 305.233L1334.08 248.221L1301.25 191.209H1235.58L1202.75 248.221L1235.58 305.233H1301.25ZM1241.49 201.433H1295.34L1322.29 248.221L1295.34 295.009H1241.49L1214.57 248.221L1241.49 201.433Z" fill="#4E75D8"/>
<path d="M1386.36 145.451L1358.99 218.655L1367.54 221.87L1394.91 148.665L1386.36 145.451Z" fill="#4E75D8"/>
<path d="M1407.3 184.083L1392.29 199.135L1398.74 205.595L1420.22 184.083L1398.74 162.539L1392.29 168.999L1407.3 184.083Z" fill="#4E75D8"/>
<path d="M1362.24 199.135L1347.2 184.051L1362.24 168.999L1355.77 162.539L1334.31 184.051L1355.77 205.595L1362.24 199.135Z" fill="#4E75D8"/>
<path d="M1411.88 240.717L1444.71 183.706L1411.88 126.694H1346.21L1313.38 183.706L1346.21 240.717H1411.88ZM1352.12 136.917H1405.97L1432.93 183.706L1405.97 230.494H1352.12L1325.2 183.706L1352.12 136.917Z" fill="#4E75D8"/>
<path d="M1494.65 209.969L1467.28 283.173L1475.83 286.387L1503.2 213.183L1494.65 209.969Z" fill="#4E75D8"/>
<path d="M1515.59 248.597L1500.58 263.65L1507.03 270.11L1528.51 248.597L1507.03 227.053L1500.58 233.514L1515.59 248.597Z" fill="#4E75D8"/>
<path d="M1470.53 263.65L1455.49 248.566L1470.53 233.514L1464.05 227.053L1442.6 248.566L1464.05 270.11L1470.53 263.65Z" fill="#4E75D8"/>
<path d="M1520.17 305.233L1553 248.221L1520.17 191.209H1454.5L1421.67 248.221L1454.5 305.233H1520.17ZM1460.41 201.433H1514.26L1541.21 248.221L1514.26 295.009H1460.41L1433.49 248.221L1460.41 201.433Z" fill="#4E75D8"/>
<path d="M181.281 336.664L153.916 409.868L162.466 413.082L189.831 339.878L181.281 336.664Z" fill="#4E75D8"/>
<path d="M202.227 375.293L187.217 390.346L193.658 396.806L215.141 375.293L193.658 353.749L187.217 360.209L202.227 375.293Z" fill="#4E75D8"/>
<path d="M157.163 390.346L142.122 375.262L157.163 360.209L150.69 353.749L129.238 375.262L150.69 396.806L157.163 390.346Z" fill="#4E75D8"/>
<path d="M206.802 431.928L239.636 374.917L206.802 317.905H141.135L108.301 374.917L141.135 431.928H206.802ZM147.045 328.128H200.893L227.848 374.917L200.893 421.705H147.045L120.121 374.917L147.045 328.128Z" fill="#4E75D8"/>
<path d="M291.865 272.148L264.5 345.352L273.05 348.567L300.415 275.362L291.865 272.148Z" fill="#4E75D8"/>
<path d="M312.836 310.779L297.826 325.831L304.268 332.291L325.751 310.779L304.268 289.235L297.826 295.695L312.836 310.779Z" fill="#4E75D8"/>
<path d="M267.772 325.831L252.731 310.747L267.772 295.695L261.299 289.235L239.848 310.747L261.299 332.291L267.772 325.831Z" fill="#4E75D8"/>
<path d="M317.412 367.415L350.246 310.403L317.412 253.392H251.744L218.91 310.403L251.744 367.415H317.412ZM257.654 263.615H311.502L338.457 310.403L311.502 357.191H257.654L230.73 310.403L257.654 263.615Z" fill="#4E75D8"/>
<path d="M400.179 336.665L372.814 409.869L381.364 413.084L408.729 339.88L400.179 336.665Z" fill="#4E75D8"/>
<path d="M421.125 375.296L406.115 390.348L412.557 396.808L434.04 375.296L412.557 353.752L406.115 360.212L421.125 375.296Z" fill="#4E75D8"/>
<path d="M376.061 390.348L361.02 375.264L376.061 360.212L369.588 353.752L348.137 375.264L369.588 396.808L376.061 390.348Z" fill="#4E75D8"/>
<path d="M425.701 431.93L458.535 374.918L425.701 317.907H360.033L327.199 374.918L360.033 431.93H425.701ZM365.943 328.13H419.791L446.746 374.918L419.791 421.707H365.943L339.019 374.918L365.943 328.13Z" fill="#4E75D8"/>
<path d="M510.759 272.148L483.395 345.353L491.945 348.567L519.309 275.363L510.759 272.148Z" fill="#4E75D8"/>
<path d="M531.732 310.779L516.723 325.831L523.164 332.291L544.647 310.779L523.164 289.235L516.723 295.695L531.732 310.779Z" fill="#4E75D8"/>
<path d="M486.667 325.831L471.626 310.747L486.667 295.695L480.194 289.235L458.742 310.747L480.194 332.291L486.667 325.831Z" fill="#4E75D8"/>
<path d="M536.308 367.415L569.142 310.404L536.308 253.392H470.64L437.807 310.404L470.64 367.415H536.308ZM476.551 263.615H530.398L557.353 310.404L530.398 357.192H476.551L449.627 310.404L476.551 263.615Z" fill="#4E75D8"/>
<path d="M619.082 336.665L591.717 409.869L600.267 413.084L627.632 339.88L619.082 336.665Z" fill="#4E75D8"/>
<path d="M640.053 375.295L625.043 390.348L631.485 396.808L652.967 375.295L631.485 353.751L625.043 360.212L640.053 375.295Z" fill="#4E75D8"/>
<path d="M594.962 390.348L579.92 375.264L594.962 360.212L588.489 353.751L567.037 375.264L588.489 396.808L594.962 390.348Z" fill="#4E75D8"/>
<path d="M644.603 431.93L677.437 374.918L644.603 317.907H578.935L546.102 374.918L578.935 431.93H644.603ZM584.846 328.13H638.693L665.648 374.918L638.693 421.707H584.846L557.922 374.918L584.846 328.13Z" fill="#4E75D8"/>
<path d="M729.669 272.149L702.305 345.353L710.855 348.567L738.219 275.363L729.669 272.149Z" fill="#4E75D8"/>
<path d="M750.613 310.78L735.604 325.832L742.045 332.292L763.528 310.78L742.045 289.236L735.604 295.696L750.613 310.78Z" fill="#4E75D8"/>
<path d="M705.549 325.832L690.508 310.748L705.549 295.696L699.076 289.236L677.625 310.748L699.076 332.292L705.549 325.832Z" fill="#4E75D8"/>
<path d="M755.191 367.416L788.025 310.404L755.191 253.393H689.523L656.689 310.404L689.523 367.416H755.191ZM695.433 263.616H749.281L776.236 310.404L749.281 357.192H695.433L668.51 310.404L695.433 263.616Z" fill="#4E75D8"/>
<path d="M837.949 336.664L810.584 409.869L819.134 413.083L846.499 339.879L837.949 336.664Z" fill="#4E75D8"/>
<path d="M858.895 375.293L843.885 390.346L850.326 396.806L871.809 375.293L850.326 353.749L843.885 360.209L858.895 375.293Z" fill="#4E75D8"/>
<path d="M813.829 390.346L798.788 375.262L813.829 360.209L807.356 353.749L785.904 375.262L807.356 396.806L813.829 390.346Z" fill="#4E75D8"/>
<path d="M863.47 431.929L896.304 374.918L863.47 317.906H797.803L764.969 374.918L797.803 431.929H863.47ZM803.713 328.129H857.561L884.516 374.918L857.561 421.706H803.713L776.789 374.918L803.713 328.129Z" fill="#4E75D8"/>
<path d="M948.57 272.148L921.205 345.353L929.755 348.567L957.12 275.363L948.57 272.148Z" fill="#4E75D8"/>
<path d="M969.516 310.779L954.506 325.831L960.948 332.291L982.43 310.779L960.948 289.235L954.506 295.695L969.516 310.779Z" fill="#4E75D8"/>
<path d="M924.45 325.831L909.409 310.747L924.45 295.695L917.977 289.235L896.525 310.747L917.977 332.291L924.45 325.831Z" fill="#4E75D8"/>
<path d="M974.091 367.415L1006.93 310.404L974.091 253.392H908.424L875.59 310.404L908.424 367.415H974.091ZM914.334 263.615H968.182L995.137 310.404L968.182 357.192H914.334L887.41 310.404L914.334 263.615Z" fill="#4E75D8"/>
<path d="M1056.84 336.664L1029.47 409.868L1038.02 413.082L1065.39 339.878L1056.84 336.664Z" fill="#4E75D8"/>
<path d="M1077.79 375.293L1062.78 390.346L1069.22 396.806L1090.7 375.293L1069.22 353.749L1062.78 360.209L1077.79 375.293Z" fill="#4E75D8"/>
<path d="M1032.72 390.346L1017.68 375.262L1032.72 360.209L1026.25 353.749L1004.79 375.262L1026.25 396.806L1032.72 390.346Z" fill="#4E75D8"/>
<path d="M1082.36 431.928L1115.19 374.917L1082.36 317.905H1016.69L983.859 374.917L1016.69 431.928H1082.36ZM1022.6 328.128H1076.45L1103.41 374.917L1076.45 421.705H1022.6L995.68 374.917L1022.6 328.128Z" fill="#4E75D8"/>
<path d="M1167.45 272.148L1140.09 345.353L1148.64 348.567L1176 275.363L1167.45 272.148Z" fill="#4E75D8"/>
<path d="M1188.4 310.779L1173.39 325.831L1179.83 332.291L1201.32 310.779L1179.83 289.235L1173.39 295.695L1188.4 310.779Z" fill="#4E75D8"/>
<path d="M1143.33 325.831L1128.29 310.747L1143.33 295.695L1136.86 289.235L1115.41 310.747L1136.86 332.291L1143.33 325.831Z" fill="#4E75D8"/>
<path d="M1192.98 367.415L1225.81 310.404L1192.98 253.392H1127.31L1094.47 310.404L1127.31 367.415H1192.98ZM1133.22 263.615H1187.07L1214.02 310.404L1187.07 357.192H1133.22L1106.29 310.404L1133.22 263.615Z" fill="#4E75D8"/>
<path d="M1275.73 336.665L1248.36 409.869L1256.91 413.084L1284.28 339.88L1275.73 336.665Z" fill="#4E75D8"/>
<path d="M1296.67 375.295L1281.66 390.348L1288.1 396.808L1309.59 375.295L1288.1 353.751L1281.66 360.212L1296.67 375.295Z" fill="#4E75D8"/>
<path d="M1251.61 390.348L1236.57 375.264L1251.61 360.212L1245.14 353.751L1223.68 375.264L1245.14 396.808L1251.61 390.348Z" fill="#4E75D8"/>
<path d="M1301.25 431.93L1334.08 374.918L1301.25 317.907H1235.58L1202.75 374.918L1235.58 431.93H1301.25ZM1241.49 328.13H1295.34L1322.29 374.918L1295.34 421.707H1241.49L1214.57 374.918L1241.49 328.13Z" fill="#4E75D8"/>
<path d="M1386.36 272.149L1358.99 345.353L1367.54 348.567L1394.91 275.363L1386.36 272.149Z" fill="#4E75D8"/>
<path d="M1407.3 310.779L1392.29 325.832L1398.74 332.292L1420.22 310.779L1398.74 289.235L1392.29 295.695L1407.3 310.779Z" fill="#4E75D8"/>
<path d="M1362.24 325.832L1347.2 310.748L1362.24 295.695L1355.77 289.235L1334.31 310.748L1355.77 332.292L1362.24 325.832Z" fill="#4E75D8"/>
<path d="M1411.88 367.415L1444.71 310.403L1411.88 253.392H1346.21L1313.38 310.403L1346.21 367.415H1411.88ZM1352.12 263.615H1405.97L1432.93 310.403L1405.97 357.191H1352.12L1325.2 310.403L1352.12 263.615Z" fill="#4E75D8"/>
<path d="M72.98 398.845L45.6152 472.049L54.1653 475.264L81.53 402.06L72.98 398.845Z" fill="#4E75D8"/>
<path d="M93.9258 437.475L78.916 452.527L85.3577 458.987L106.84 437.475L85.3577 415.931L78.916 422.391L93.9258 437.475Z" fill="#4E75D8"/>
<path d="M48.8619 452.527L33.8209 437.444L48.8619 422.391L42.389 415.931L20.9375 437.444L42.389 458.987L48.8619 452.527Z" fill="#4E75D8"/>
<path d="M98.5016 494.11L131.335 437.099L98.5016 380.087H32.8339L0 437.099L32.8339 494.11H98.5016ZM38.744 390.311H92.5918L119.547 437.099L92.5918 483.887H38.744L11.8203 437.099L38.744 390.311Z" fill="#4E75D8"/>
<path d="M181.281 463.361L153.916 536.565L162.466 539.779L189.831 466.575L181.281 463.361Z" fill="#4E75D8"/>
<path d="M202.227 501.989L187.217 517.042L193.658 523.502L215.141 501.989L193.658 480.445L187.217 486.905L202.227 501.989Z" fill="#4E75D8"/>
<path d="M157.163 517.042L142.122 501.958L157.163 486.905L150.69 480.445L129.238 501.958L150.69 523.502L157.163 517.042Z" fill="#4E75D8"/>
<path d="M206.802 558.625L239.636 501.613L206.802 444.602H141.135L108.301 501.613L141.135 558.625H206.802ZM147.045 454.825H200.893L227.848 501.613L200.893 548.401H147.045L120.121 501.613L147.045 454.825Z" fill="#4E75D8"/>
<path d="M291.89 398.845L264.525 472.05L273.075 475.264L300.44 402.06L291.89 398.845Z" fill="#4E75D8"/>
<path d="M312.836 437.475L297.826 452.527L304.268 458.987L325.751 437.475L304.268 415.931L297.826 422.391L312.836 437.475Z" fill="#4E75D8"/>
<path d="M267.772 452.527L252.731 437.444L267.772 422.391L261.299 415.931L239.848 437.444L261.299 458.987L267.772 452.527Z" fill="#4E75D8"/>
<path d="M317.412 494.11L350.246 437.099L317.412 380.087H251.744L218.91 437.099L251.744 494.11H317.412ZM257.654 390.311H311.502L338.457 437.099L311.502 483.887H257.654L230.73 437.099L257.654 390.311Z" fill="#4E75D8"/>
<path d="M510.769 398.845L483.404 472.05L491.954 475.264L519.319 402.06L510.769 398.845Z" fill="#4E75D8"/>
<path d="M531.715 437.475L516.705 452.527L523.147 458.987L544.629 437.475L523.147 415.931L516.705 422.391L531.715 437.475Z" fill="#4E75D8"/>
<path d="M486.649 452.527L471.608 437.444L486.649 422.391L480.176 415.931L458.725 437.444L480.176 458.987L486.649 452.527Z" fill="#4E75D8"/>
<path d="M536.291 494.111L569.124 437.099L536.291 380.088H470.623L437.789 437.099L470.623 494.111H536.291ZM476.533 390.311H530.381L557.336 437.099L530.381 483.887H476.533L449.609 437.099L476.533 390.311Z" fill="#4E75D8"/>
<path d="M619.082 463.361L591.717 536.565L600.267 539.779L627.632 466.575L619.082 463.361Z" fill="#4E75D8"/>
<path d="M640.053 501.989L625.043 517.042L631.485 523.502L652.967 501.989L631.485 480.445L625.043 486.905L640.053 501.989Z" fill="#4E75D8"/>
<path d="M594.962 517.042L579.92 501.958L594.962 486.905L588.489 480.445L567.037 501.958L588.489 523.502L594.962 517.042Z" fill="#4E75D8"/>
<path d="M644.603 558.625L677.437 501.613L644.603 444.602H578.935L546.102 501.613L578.935 558.625H644.603ZM584.846 454.825H638.693L665.648 501.613L638.693 548.401H584.846L557.922 501.613L584.846 454.825Z" fill="#4E75D8"/>
<path d="M729.669 398.845L702.305 472.05L710.855 475.264L738.219 402.06L729.669 398.845Z" fill="#4E75D8"/>
<path d="M750.613 437.475L735.604 452.527L742.045 458.987L763.528 437.475L742.045 415.931L735.604 422.391L750.613 437.475Z" fill="#4E75D8"/>
<path d="M705.549 452.527L690.508 437.444L705.549 422.391L699.076 415.931L677.625 437.444L699.076 458.987L705.549 452.527Z" fill="#4E75D8"/>
<path d="M755.191 494.11L788.025 437.099L755.191 380.087H689.523L656.689 437.099L689.523 494.11H755.191ZM695.433 390.311H749.281L776.236 437.099L749.281 483.887H695.433L668.51 437.099L695.433 390.311Z" fill="#4E75D8"/>
<path d="M837.949 463.361L810.584 536.565L819.134 539.78L846.499 466.576L837.949 463.361Z" fill="#4E75D8"/>
<path d="M858.895 501.989L843.885 517.042L850.326 523.502L871.809 501.989L850.326 480.445L843.885 486.905L858.895 501.989Z" fill="#4E75D8"/>
<path d="M813.829 517.042L798.788 501.958L813.829 486.905L807.356 480.445L785.904 501.958L807.356 523.502L813.829 517.042Z" fill="#4E75D8"/>
<path d="M863.47 558.625L896.304 501.613L863.47 444.602H797.803L764.969 501.613L797.803 558.625H863.47ZM803.713 454.825H857.561L884.516 501.613L857.561 548.401H803.713L776.789 501.613L803.713 454.825Z" fill="#4E75D8"/>
<path d="M948.57 398.845L921.205 472.05L929.755 475.264L957.12 402.06L948.57 398.845Z" fill="#4E75D8"/>
<path d="M969.516 437.475L954.506 452.527L960.948 458.987L982.43 437.475L960.948 415.931L954.506 422.391L969.516 437.475Z" fill="#4E75D8"/>
<path d="M924.45 452.527L909.409 437.444L924.45 422.391L917.977 415.931L896.525 437.444L917.977 458.987L924.45 452.527Z" fill="#4E75D8"/>
<path d="M974.091 494.11L1006.93 437.099L974.091 380.087H908.424L875.59 437.099L908.424 494.11H974.091ZM914.334 390.311H968.182L995.137 437.099L968.182 483.887H914.334L887.41 437.099L914.334 390.311Z" fill="#4E75D8"/>
<path d="M1056.84 463.361L1029.47 536.565L1038.02 539.779L1065.39 466.575L1056.84 463.361Z" fill="#4E75D8"/>
<path d="M1077.79 501.989L1062.78 517.042L1069.22 523.502L1090.7 501.989L1069.22 480.445L1062.78 486.905L1077.79 501.989Z" fill="#4E75D8"/>
<path d="M1032.72 517.042L1017.68 501.958L1032.72 486.905L1026.25 480.445L1004.79 501.958L1026.25 523.502L1032.72 517.042Z" fill="#4E75D8"/>
<path d="M1082.36 558.625L1115.19 501.613L1082.36 444.602H1016.69L983.859 501.613L1016.69 558.625H1082.36ZM1022.6 454.825H1076.45L1103.41 501.613L1076.45 548.401H1022.6L995.68 501.613L1022.6 454.825Z" fill="#4E75D8"/>
<path d="M1167.45 398.845L1140.09 472.05L1148.64 475.264L1176 402.06L1167.45 398.845Z" fill="#4E75D8"/>
<path d="M1188.4 437.475L1173.39 452.527L1179.83 458.987L1201.32 437.475L1179.83 415.931L1173.39 422.391L1188.4 437.475Z" fill="#4E75D8"/>
<path d="M1143.33 452.527L1128.29 437.444L1143.33 422.391L1136.86 415.931L1115.41 437.444L1136.86 458.987L1143.33 452.527Z" fill="#4E75D8"/>
<path d="M1192.98 494.11L1225.81 437.099L1192.98 380.087H1127.31L1094.47 437.099L1127.31 494.11H1192.98ZM1133.22 390.311H1187.07L1214.02 437.099L1187.07 483.887H1133.22L1106.29 437.099L1133.22 390.311Z" fill="#4E75D8"/>
<path d="M1275.73 463.361L1248.36 536.565L1256.91 539.779L1284.28 466.575L1275.73 463.361Z" fill="#4E75D8"/>
<path d="M1296.67 501.989L1281.66 517.042L1288.1 523.502L1309.59 501.989L1288.1 480.445L1281.66 486.905L1296.67 501.989Z" fill="#4E75D8"/>
<path d="M1251.61 517.042L1236.57 501.958L1251.61 486.905L1245.14 480.445L1223.68 501.958L1245.14 523.502L1251.61 517.042Z" fill="#4E75D8"/>
<path d="M1301.25 558.625L1334.08 501.613L1301.25 444.602H1235.58L1202.75 501.613L1235.58 558.625H1301.25ZM1241.49 454.825H1295.34L1322.29 501.613L1295.34 548.401H1241.49L1214.57 501.613L1241.49 454.825Z" fill="#4E75D8"/>
<path d="M1386.36 398.845L1358.99 472.05L1367.54 475.264L1394.91 402.06L1386.36 398.845Z" fill="#4E75D8"/>
<path d="M1407.3 437.475L1392.29 452.527L1398.74 458.987L1420.22 437.475L1398.74 415.931L1392.29 422.391L1407.3 437.475Z" fill="#4E75D8"/>
<path d="M1362.24 452.527L1347.2 437.444L1362.24 422.391L1355.77 415.931L1334.31 437.444L1355.77 458.987L1362.24 452.527Z" fill="#4E75D8"/>
<path d="M1411.88 494.11L1444.71 437.099L1411.88 380.087H1346.21L1313.38 437.099L1346.21 494.11H1411.88ZM1352.12 390.311H1405.97L1432.93 437.099L1405.97 483.887H1352.12L1325.2 437.099L1352.12 390.311Z" fill="#4E75D8"/>
<path d="M291.865 525.539L264.5 598.743L273.05 601.957L300.415 528.753L291.865 525.539Z" fill="#4E75D8"/>
<path d="M312.836 564.169L297.826 579.221L304.268 585.681L325.751 564.169L304.268 542.625L297.826 549.085L312.836 564.169Z" fill="#4E75D8"/>
<path d="M267.772 579.221L252.731 564.137L267.772 549.085L261.299 542.625L239.848 564.137L261.299 585.681L267.772 579.221Z" fill="#4E75D8"/>
<path d="M317.412 620.804L350.246 563.793L317.412 506.781H251.744L218.91 563.793L251.744 620.804H317.412ZM257.654 517.004H311.502L338.457 563.793L311.502 610.581H257.654L230.73 563.793L257.654 517.004Z" fill="#4E75D8"/>
<path d="M948.57 525.539L921.205 598.743L929.755 601.957L957.12 528.753L948.57 525.539Z" fill="#4E75D8"/>
<path d="M969.516 564.169L954.506 579.221L960.948 585.681L982.43 564.169L960.948 542.625L954.506 549.085L969.516 564.169Z" fill="#4E75D8"/>
<path d="M924.45 579.221L909.409 564.137L924.45 549.085L917.977 542.625L896.525 564.137L917.977 585.681L924.45 579.221Z" fill="#4E75D8"/>
<path d="M974.091 620.804L1006.93 563.793L974.091 506.781H908.424L875.59 563.793L908.424 620.804H974.091ZM914.334 517.004H968.182L995.137 563.793L968.182 610.581H914.334L887.41 563.793L914.334 517.004Z" fill="#4E75D8"/>
</g>
</svg>
