<svg width="860" height="117" viewBox="0 0 860 117" fill="none" xmlns="http://www.w3.org/2000/svg">
<path d="M69.3911 0.8125L82.8843 60.1825H70.5476L68.2345 47.2676H56.4762L53.9703 60.1825H43.1758L56.669 0.8125H69.3911ZM63.4155 22.0161C62.4517 17.3898 62.259 14.1129 62.0662 11.9926C62.0662 12.9564 61.6807 16.0405 60.7169 21.4378L57.44 37.8224H66.6925L63.4155 22.0161Z" fill="#1D2332"/>
<path d="M99.6582 24.7147H103.513C107.561 24.7147 108.332 22.2088 108.525 21.0523C108.718 19.8957 108.718 19.1247 109.296 15.2695C109.682 11.4143 110.067 9.10116 110.645 7.17357C111.416 5.24597 112.573 3.51114 114.115 2.35458C116.043 1.00526 118.549 0.8125 120.862 0.8125C122.404 0.8125 123.175 0.8125 124.331 1.39078V10.836H123.56C122.597 10.836 121.054 11.0288 120.669 14.4984C120.476 16.6188 120.283 17.9681 119.705 21.4378C119.32 23.1726 118.934 25.1002 117.199 26.8351C116.235 27.7989 114.693 28.7626 112.959 29.1482C115.85 29.5337 118.356 31.0758 119.898 33.9672C121.054 36.2803 121.44 39.1717 121.826 42.8341C122.211 47.4603 122.404 48.6169 122.982 49.5807C123.56 50.5445 124.331 50.93 125.488 50.5445V60.7608C124.331 61.339 123.368 61.339 122.018 61.339C118.741 61.339 114.693 60.9535 112.573 56.7128C111.031 54.0142 110.838 50.3517 110.26 43.0269C110.067 39.9427 109.682 37.8224 108.525 36.2803C107.176 34.5454 105.055 34.5454 103.706 34.5454H99.8509V60.7608H87.707V1.39078H99.8509V24.7147H99.6582Z" fill="#1D2332"/>
<path d="M12.1347 24.7147H15.9899C20.0378 24.7147 20.8089 22.2088 21.0016 21.0523C21.1944 19.8957 21.1944 19.1247 21.7727 15.2695C22.1582 11.4143 22.5437 9.10116 23.122 7.17357C23.893 5.24597 25.0496 3.51114 26.5917 2.35458C28.5193 1.00526 31.0251 0.8125 33.3382 0.8125C34.8803 0.8125 35.6514 0.8125 36.8079 1.39078V10.836H36.0369C35.0731 10.836 33.531 11.0288 33.1455 14.4984C32.9527 16.6188 32.76 17.9681 32.1817 21.4378C31.7962 23.1726 31.4107 25.1002 29.6758 26.8351C28.712 27.7989 27.17 28.7626 25.4351 29.1482C28.3265 29.5337 30.8324 31.0758 32.3744 33.9672C33.531 36.2803 33.9165 39.1717 34.302 42.8341C34.6876 47.4603 34.8803 48.6169 35.4586 49.5807C36.0369 50.5445 36.8079 50.93 37.9645 50.5445V60.7608C36.8079 61.339 35.8441 61.339 34.4948 61.339C31.2179 61.339 27.1699 60.9535 25.0496 56.7128C23.5075 54.0142 23.3147 50.3517 22.7365 43.0269C22.5437 39.9427 22.1582 37.8224 21.0016 36.2803C19.6523 34.5454 17.532 34.5454 16.1827 34.5454H12.3275V60.7608H0.183594V1.39078H12.3275V24.7147H12.1347Z" fill="#3973B9"/>
<path d="M157.501 50.3528C158.85 50.5456 160.2 50.7383 161.549 50.7383C163.091 50.7383 165.211 50.5456 166.754 49.5818C168.296 48.4252 168.874 46.6904 169.259 45.9193L169.452 45.1483L153.453 1.00635H167.139L173.5 23.1737C173.886 24.7158 174.657 28.3782 174.849 29.7275H175.042C175.428 26.0651 176.006 24.523 176.392 23.1737L181.982 1.00635H192.198L179.668 46.3049C178.512 50.7383 177.355 55.1718 174.078 58.256C171.38 60.7618 167.91 61.5329 163.862 61.5329C161.742 61.5329 159.429 61.1474 157.694 60.5691V50.3528H157.501Z" fill="#3973B9"/>
<path d="M233.833 1.00635V60.3763H221.497V11.4154H211.859V60.3763H199.715V1.00635H233.833Z" fill="#1D2332"/>
<path d="M242.883 1.00635H257.725C264.279 1.00635 269.291 1.39187 273.146 6.59638C275.652 10.0661 276.808 15.4633 276.808 19.5113C276.808 23.3665 275.845 29.7275 272.761 33.39C268.713 38.5945 262.737 38.5945 258.304 38.5945H254.834V60.5691H242.883V1.00635ZM257.725 27.9927C259.075 27.9927 260.809 27.9927 262.159 26.4506C262.93 25.4868 264.086 23.5592 264.086 18.7402C264.086 17.0054 263.894 13.9212 262.352 11.9937C261.002 10.4516 259.267 10.2588 257.725 10.2588H254.834V27.9927H257.725Z" fill="#1D2332"/>
<path d="M299.767 1.00635L313.261 60.3763H300.924L298.611 47.4614H286.66L284.154 60.3763H273.359L286.853 1.00635H299.767ZM293.792 22.2099C292.828 17.5837 292.635 14.3068 292.443 12.1864C292.443 13.1502 292.057 16.2344 291.093 21.6316L287.816 38.0162H297.069L293.792 22.2099Z" fill="#1D2332"/>
<path d="M316.711 1.00612H332.903C338.107 1.00612 343.697 0.813358 347.745 5.24683C350.251 7.94547 351.408 12.1862 351.408 16.4269C351.408 19.7038 350.637 23.3662 349.287 25.2938C349.095 25.6794 347.552 27.9925 344.083 29.5345C346.781 30.3056 349.095 32.0404 350.444 33.7753C352.371 36.4739 353.142 41.1001 353.142 44.3771C353.142 47.8467 352.371 51.3164 350.444 54.4005C346.589 60.3761 340.613 60.3761 335.216 60.3761H316.904V1.00612H316.711ZM332.903 24.9083C335.409 24.9083 337.336 24.1373 338.107 22.9807C339.071 21.6314 339.457 19.3183 339.457 17.7762C339.457 15.8486 338.878 13.5355 337.722 12.1862C336.372 10.6441 334.252 10.4513 332.903 10.4513H328.469V24.9083H332.903ZM333.288 50.3526C335.216 50.3526 337.529 50.3526 339.071 48.425C340.228 47.0757 340.806 44.3771 340.806 42.4495C340.806 39.1725 339.842 36.8594 338.3 35.7029C336.565 34.3535 334.638 34.5463 332.903 34.5463H328.469V50.3526H333.288Z" fill="#1D2332"/>
<path d="M355.271 50.3528C356.813 50.3528 359.126 50.1601 360.475 49.389C362.789 48.0397 363.367 45.1483 363.56 42.8352C363.56 42.2569 364.138 38.0162 364.523 25.1013C364.716 18.3547 365.102 3.51222 365.102 1.00635H394.787V60.3763H382.643V11.4154H374.932C374.932 14.885 374.74 18.3547 374.547 22.0172C374.547 25.1013 374.354 28.3782 374.354 31.4624C373.776 43.6062 373.005 52.0877 369.15 56.9067C367.222 59.4125 363.945 61.3401 358.933 61.3401C357.584 61.3401 356.427 61.1474 355.078 60.5691V50.3528H355.271Z" fill="#1D2332"/>
<path d="M409.823 34.1599C408.281 33.5816 406.16 32.2323 404.426 29.5337C402.112 26.064 401.92 22.2088 401.92 18.7391C401.92 14.3057 402.691 8.13736 406.546 4.47493C410.401 1.00526 416.184 0.8125 419.461 0.8125H437.002V60.1825H424.858V36.6658H420.617L414.256 60.3752H400.57L409.823 34.1599ZM424.858 10.4505H421.388C418.304 10.4505 416.569 11.7998 415.991 12.5708C414.835 13.9202 414.256 16.2333 414.256 18.9319C414.256 22.4016 415.22 23.9437 415.606 24.5219C416.569 25.8713 418.497 27.0278 421.388 27.0278H424.858V10.4505Z" fill="#1D2332"/>
<path d="M464.564 60.3763H452.228V12.1864H442.59V1.00635H474.588V12.1864H464.564V60.3763Z" fill="#1D2332"/>
<path d="M479.609 60.3763H494.452C501.006 60.3763 506.017 59.9908 509.873 54.7863C512.378 51.3166 513.535 45.9194 513.535 41.8714C513.535 38.0162 512.571 31.6551 509.487 27.9927C505.439 22.7882 499.464 22.7882 495.03 22.7882H491.56V1.00635H479.609V60.3763ZM494.452 33.39C495.801 33.39 497.536 33.39 498.885 34.9321C499.656 35.8959 500.813 37.8234 500.813 42.6424C500.813 44.3773 500.62 47.4614 499.078 49.389C497.729 50.9311 495.994 51.1239 494.452 51.1239H491.56V33.39H494.452Z" fill="#1D2332"/>
<path d="M812.922 0.8125H829.692L834.318 25.8713C835.089 30.112 835.86 39.1717 836.053 42.8341C836.824 33.9672 837.788 28.9554 838.559 24.5219L843.571 0.8125H859.955V60.1825H848.39V26.6423C848.39 17.1971 848.582 22.2088 848.968 8.71564C848.197 13.9202 846.848 23.9437 846.462 26.064L839.33 60.3752H831.62L824.68 25.4857C824.102 22.4016 823.716 18.5464 822.174 8.52289C822.367 12.5708 822.56 21.245 822.56 25.1002V60.3752H812.922V0.8125Z" fill="#1D2332"/>
<path d="M768.391 0.8125H779.571V27.0278C779.571 28.7626 779.378 33.0034 778.414 36.8586H778.607C779.571 33.3889 780.342 31.654 781.113 29.9192L792.486 3.51114V1.00526H803.666V60.3752H792.486V32.2323C792.486 28.9554 792.486 28.5699 793.257 22.4016H793.064C791.329 27.7989 791.136 28.5699 790.751 29.7264L779.571 56.3273V60.3752H768.391V0.8125Z" fill="#1D2332"/>
<path d="M541.512 0.8125H573.895V11.4143H553.27V24.7147H561.173C564.643 24.7147 569.847 25.293 573.51 28.9554C576.401 32.0396 577.751 37.2441 577.751 42.2558C577.751 47.8459 576.016 53.2431 572.739 56.3273C568.691 60.1825 563.872 60.3752 559.438 60.3752H541.512V0.8125ZM558.475 50.3517C560.017 50.3517 562.715 50.3517 564.257 48.2314C565.607 46.4965 565.799 43.9907 565.799 42.2558C565.799 40.521 565.799 38.4006 564.065 36.473C562.33 34.7382 560.402 34.7382 558.667 34.7382H553.463V50.3517H558.475Z" fill="#3973B9"/>
<path d="M585.067 50.3528C586.417 50.5456 587.766 50.7383 589.115 50.7383C590.658 50.7383 592.778 50.5456 594.32 49.5818C595.862 48.4252 596.44 46.6904 596.826 45.9194L597.019 45.1483L581.02 1.00635H594.705L601.067 23.1737C601.452 24.7158 602.223 28.3782 602.416 29.7275H602.609C602.994 26.0651 603.572 24.523 603.958 23.1737L609.548 1.00635H619.764L607.235 46.3049C606.078 50.7383 604.922 55.1718 601.645 58.256C598.946 60.7618 595.476 61.5329 591.429 61.5329C589.308 61.5329 586.995 61.1474 585.26 60.5691V50.3528H585.067Z" fill="#1D2332"/>
<path d="M613.609 49.9662H617.85C620.356 45.9183 621.898 42.2558 623.055 38.0151C624.404 33.0034 624.982 27.7989 625.368 22.9799C625.56 20.474 625.753 15.8478 626.524 0.8125H655.438V49.5807H661.221V73.2901H650.812V60.3753H624.211V73.4829H613.802V49.9662H613.609ZM643.102 49.7735V11.2215H636.162C635.969 17.0043 635.391 26.6423 634.427 33.1961C633.464 39.3644 632.114 44.1834 629.608 49.5807H643.102V49.7735Z" fill="#1D2332"/>
<path d="M665.067 50.3528C666.417 50.5456 667.766 50.7383 669.115 50.7383C670.658 50.7383 672.778 50.5456 674.32 49.5818C675.862 48.4252 676.44 46.6904 676.826 45.9194L677.019 45.1483L661.02 1.00635H674.705L681.067 23.1737C681.452 24.7158 682.223 28.3782 682.416 29.7275H682.609C682.994 26.0651 683.572 24.523 683.958 23.1737L689.548 1.00635H699.764L687.235 46.3049C686.078 50.7383 684.922 55.1718 681.645 58.256C678.946 60.7618 675.476 61.5329 671.429 61.5329C669.308 61.5329 666.995 61.1474 665.26 60.5691V50.3528H665.067Z" fill="#1D2332"/>
<path d="M703.434 0.8125H715.192V49.7735H723.866V0.8125H735.624V49.7735H744.491V0.8125H756.25V49.7735H762.225V73.2901H751.624V60.3753H703.434V0.8125Z" fill="#1D2332"/>
<path d="M0 90.9854H4.08956C5.75568 90.9854 7.27034 91.2849 8.3306 92.3332C9.08792 93.2318 9.54232 94.5796 9.54232 95.7777C9.54232 96.826 9.39085 97.8744 8.93646 98.6232C8.63353 99.2222 8.02767 99.8213 7.11887 100.121C8.02767 100.42 8.93646 101.019 9.39085 101.768C9.99671 102.667 10.2996 103.865 10.2996 105.063C10.2996 107.16 9.69378 108.507 8.93646 109.406C7.72473 110.604 6.05862 110.604 4.54396 110.604H0V90.9854ZM4.08956 99.372C4.84689 99.372 5.90715 99.372 6.51301 98.6232C7.11887 98.0241 7.27034 96.826 7.27034 96.3768C7.27034 94.5796 6.66448 93.8308 6.21008 93.5313C5.60422 93.082 4.69543 92.9322 3.9381 92.9322H2.27198V99.372H4.08956ZM4.3925 108.657C4.99836 108.657 6.21008 108.657 6.96741 107.908C7.57327 107.309 7.8762 105.812 7.8762 104.913C7.8762 103.865 7.57327 102.517 6.81594 101.918C6.05862 101.319 4.99836 101.319 4.3925 101.319H2.27198V108.657H4.3925Z" fill="#535762"/>
<path d="M18.9392 100.87C18.9392 99.9716 18.4848 98.7735 18.0304 98.1745C17.7275 97.875 17.1216 97.4257 16.5157 97.4257C15.7584 97.4257 15.1526 97.7252 14.8496 98.3243C14.5467 98.7735 14.0923 99.9716 14.0923 102.967C14.0923 105.962 14.2438 107.609 14.8496 108.358C15.1526 108.808 15.7584 109.257 16.5157 109.257C17.1216 109.257 17.8789 108.957 18.3333 108.358C18.6363 107.759 18.9392 106.861 19.0907 105.962L21.0597 106.262C20.9082 107.609 20.3024 109.257 19.545 110.006C19.0907 110.455 18.1819 111.054 16.6672 111.054C15.304 111.054 14.0923 110.455 13.335 109.706C12.5776 108.957 11.8203 107.46 11.8203 103.716C11.8203 99.5224 12.8806 97.875 13.6379 96.9764C14.6982 95.9281 15.7584 95.7783 16.6672 95.7783C17.576 95.7783 18.4848 95.9281 19.3936 96.6769C20.3024 97.4257 20.7568 98.9233 20.9082 100.421L18.9392 100.87Z" fill="#535762"/>
<path d="M24.6956 103.565C24.6956 104.763 24.8471 107.01 25.4529 108.058C25.9073 108.807 26.8161 109.106 27.5735 109.106C28.1793 109.106 28.7852 108.807 29.2396 108.358C29.694 107.908 29.9969 106.71 30.1484 106.111L31.966 106.561C31.8145 107.01 31.663 107.908 31.2086 108.657C30.2998 110.305 28.9366 110.754 27.5735 110.754C26.0588 110.754 24.8471 110.305 23.9383 108.957C22.878 107.309 22.7266 104.913 22.7266 103.416C22.7266 101.169 23.0295 98.7729 24.2412 97.2753C25.3015 95.7777 26.5132 95.6279 27.422 95.6279C28.4822 95.6279 29.694 95.7777 30.7542 97.1255C31.663 98.3236 32.2689 100.121 32.2689 103.565H24.6956ZM29.8454 101.918C29.694 99.971 29.5425 99.0724 29.0881 98.4734C28.7852 97.8743 28.0279 97.4251 27.2705 97.4251C26.6647 97.4251 25.9073 97.7246 25.4529 98.4734C24.9985 99.2222 24.8471 100.271 24.6956 101.768H29.8454V101.918Z" fill="#535762"/>
<path d="M34.3961 96.0774H36.3651V98.4735C36.5166 97.8745 36.8195 97.1257 37.2739 96.6764C38.0313 95.9276 38.7886 95.7778 39.3945 95.7778C40.7576 95.7778 41.6664 96.3769 42.4238 97.4252C43.484 98.9228 43.787 101.469 43.787 103.116C43.787 104.764 43.484 107.16 42.7267 108.657C41.8179 110.305 40.6062 110.904 39.243 110.904C38.0313 110.904 37.4254 110.454 37.2739 110.305C36.971 110.005 36.6681 109.706 36.3651 109.256V115.696H34.2446V96.0774H34.3961ZM36.5166 104.764C36.5166 105.962 36.5166 107.16 37.2739 108.058C37.7283 108.807 38.3342 108.957 39.0915 108.957C40.0003 108.957 40.7576 108.358 41.0606 107.759C41.515 107.01 41.6664 104.464 41.6664 103.116C41.6664 102.068 41.6664 99.6716 40.9091 98.4735C40.4547 97.7247 40.0003 97.4252 39.243 97.4252C38.3342 97.4252 37.7283 98.0243 37.4254 98.3238C36.8195 99.0726 36.5166 100.72 36.5166 102.068V104.764Z" fill="#535762"/>
<path d="M53.9142 97.1257C55.2774 98.6233 55.5803 101.469 55.5803 103.416C55.5803 105.662 55.1259 108.358 53.9142 109.706C53.1569 110.454 52.0966 111.053 50.8849 111.053C49.6732 111.053 48.4614 110.454 47.8556 109.706C46.6438 108.358 46.1895 105.812 46.1895 103.416C46.1895 101.619 46.4924 98.7731 47.8556 97.1257C48.6129 96.2271 49.6732 95.7778 50.8849 95.7778C52.0966 95.7778 53.1569 96.2271 53.9142 97.1257ZM48.6129 107.459C49.0673 108.957 50.1276 109.256 50.7334 109.256C51.3393 109.256 52.3995 108.957 52.8539 107.459C53.1569 106.411 53.3083 104.614 53.3083 103.416C53.3083 102.218 53.1569 100.271 52.8539 99.3721C52.3995 97.7247 51.1878 97.575 50.7334 97.575C50.279 97.575 49.2188 97.575 48.6129 99.2223C48.31 100.121 48.1585 102.068 48.1585 103.266C48.1585 104.464 48.31 106.411 48.6129 107.459Z" fill="#535762"/>
<path d="M64.8225 100.87C64.8225 99.9711 64.3681 98.7731 63.9137 98.174C63.6108 97.8745 63.0049 97.4252 62.399 97.4252C61.6417 97.4252 61.0359 97.7247 60.7329 98.3238C60.43 98.7731 59.9756 99.9711 59.9756 102.966C59.9756 105.962 60.1271 107.609 60.7329 108.358C61.0359 108.807 61.6417 109.256 62.399 109.256C63.0049 109.256 63.7622 108.957 64.2166 108.358C64.5196 107.759 64.8225 106.86 64.974 105.962L66.943 106.261C66.7915 107.609 66.1857 109.256 65.4284 110.005C64.974 110.454 64.0652 111.053 62.5505 111.053C61.1873 111.053 59.9756 110.454 59.2183 109.706C58.4609 108.957 57.7036 107.459 57.7036 103.715C57.7036 99.5219 58.7639 97.8745 59.5212 96.9759C60.5815 95.9276 61.6417 95.7778 62.5505 95.7778C63.4593 95.7778 64.3681 95.9276 65.2769 96.6764C66.1857 97.4252 66.6401 98.9228 66.7915 100.42L64.8225 100.87Z" fill="#535762"/>
<path d="M75.4343 100.87C75.4343 99.9716 74.9799 98.7735 74.5255 98.1745C74.2226 97.875 73.6167 97.4257 73.0109 97.4257C72.2535 97.4257 71.6477 97.7252 71.3447 98.3243C71.0418 98.7735 70.5874 99.9716 70.5874 102.967C70.5874 105.962 70.7389 107.609 71.3447 108.358C71.6477 108.808 72.2535 109.257 73.0109 109.257C73.6167 109.257 74.3741 108.957 74.8284 108.358C75.1314 107.759 75.4343 106.861 75.5858 105.962L77.5548 106.262C77.4034 107.609 76.7975 109.257 76.0402 110.006C75.5858 110.455 74.677 111.054 73.1623 111.054C71.7991 111.054 70.5874 110.455 69.8301 109.706C69.0728 108.957 68.3154 107.46 68.3154 103.716C68.3154 99.5224 69.3757 97.875 70.133 96.9764C71.1933 95.9281 72.2535 95.7783 73.1623 95.7783C74.0711 95.7783 74.9799 95.9281 75.8887 96.6769C76.7975 97.4257 77.2519 98.9233 77.4034 100.421L75.4343 100.87Z" fill="#535762"/>
<path d="M79.8296 96.0776H81.7986V105.213V106.711L82.4045 105.213L86.1911 96.9762V96.0776H88.3117V110.604H86.1911V101.619L86.3426 99.9714L85.7367 101.619L81.7986 109.706V110.604H79.8296V96.0776Z" fill="#535762"/>
<path d="M91.9337 96.0785H94.0542V105.214L93.9027 106.861L94.5086 105.364L98.2952 96.9771V96.0785H100.416V110.605H98.2952V101.62L98.4467 99.9723L97.8408 101.62L93.9027 109.707V110.605H91.7822V96.0785H91.9337ZM99.507 91.2861C99.507 92.1847 99.204 92.9335 98.5982 93.5326C97.8408 94.2814 96.9321 94.4311 96.1747 94.4311C95.4174 94.4311 94.3571 94.2814 93.5998 93.5326C92.994 92.9335 92.691 92.0349 92.691 91.2861H94.5086C94.5086 91.8852 94.6601 92.3345 94.8115 92.634C95.1145 93.0833 95.5689 93.233 96.0233 93.233C96.4777 93.233 96.932 93.0833 97.235 92.634C97.3864 92.3345 97.6894 91.8852 97.5379 91.2861H99.507Z" fill="#535762"/>
<path d="M110.411 100.87C110.411 99.9711 109.957 98.7731 109.503 98.174C109.2 97.8745 108.594 97.4252 107.988 97.4252C107.231 97.4252 106.625 97.7247 106.322 98.3238C106.019 98.7731 105.564 99.9711 105.564 102.966C105.564 105.962 105.716 107.609 106.322 108.358C106.625 108.807 107.231 109.256 107.988 109.256C108.594 109.256 109.351 108.957 109.805 108.358C110.108 107.759 110.411 106.86 110.563 105.962L112.532 106.261C112.38 107.609 111.775 109.256 111.017 110.005C110.563 110.454 109.654 111.053 108.139 111.053C106.776 111.053 105.564 110.454 104.807 109.706C104.05 108.957 103.292 107.459 103.292 103.715C103.292 99.5219 104.353 97.8745 105.11 96.9759C106.17 95.9276 107.231 95.7778 108.139 95.7778C109.048 95.7778 109.957 95.9276 110.866 96.6764C111.775 97.4252 112.229 98.9228 112.38 100.42L110.411 100.87Z" fill="#535762"/>
<path d="M114.651 110.604V96.0774H116.771V102.068H118.135C118.74 102.068 119.346 101.918 119.649 100.87C119.801 100.42 119.801 99.8214 119.952 99.0726C119.952 98.4735 120.104 97.8745 120.255 97.2754C120.71 95.9276 121.618 95.7778 122.073 95.7778C122.224 95.7778 122.679 95.9276 122.83 95.9276V97.575C122.527 97.575 122.224 97.7247 122.224 97.7247C121.921 98.174 121.921 98.4735 121.77 99.2223C121.618 100.57 121.618 101.019 121.467 101.469C121.164 102.367 120.709 102.667 119.952 102.966C121.164 103.266 121.467 104.314 121.618 105.063C121.921 106.261 121.921 107.759 122.073 108.508C122.224 108.657 122.376 109.256 123.133 108.957V110.604C122.83 110.754 122.679 110.754 122.224 110.754C120.709 110.754 120.407 109.706 120.104 109.107C119.952 108.657 119.801 107.759 119.649 106.111C119.498 105.512 119.498 104.764 119.195 104.314C118.892 104.015 118.589 103.865 118.135 103.865H116.771V110.604H114.651Z" fill="#535762"/>
<path d="M125.103 96.0776H127.224V105.213L127.072 106.711L127.678 105.213L131.616 96.9762V96.0776H133.737V110.604H131.616V101.619L131.768 99.9714L131.01 101.619L127.224 109.706V110.604H125.103V96.0776Z" fill="#535762"/>
<path d="M137.235 96.0785H139.355V105.214L139.204 106.861L139.81 105.364L143.748 96.9771V96.0785H145.868V110.605H143.748V101.62L143.899 99.9723L143.293 101.62L139.355 109.707V110.605H137.235V96.0785ZM144.808 91.2861C144.808 92.1847 144.505 92.9335 143.899 93.5326C143.142 94.2814 142.233 94.4311 141.476 94.4311C140.719 94.4311 139.658 94.2814 138.901 93.5326C138.295 92.9335 137.992 92.0349 137.992 91.2861H139.81C139.81 91.8852 139.961 92.3345 140.113 92.634C140.416 93.0833 140.87 93.233 141.324 93.233C141.779 93.233 142.233 93.0833 142.536 92.634C142.688 92.3345 142.991 91.8852 142.839 91.2861H144.808Z" fill="#535762"/>
<path d="M162.52 100.87C162.52 99.9711 162.066 98.7731 161.611 98.174C161.309 97.8745 160.703 97.4252 160.097 97.4252C159.339 97.4252 158.734 97.7247 158.431 98.3238C158.128 98.7731 157.673 99.9711 157.673 102.966C157.673 105.962 157.825 107.609 158.431 108.358C158.734 108.807 159.339 109.256 160.097 109.256C160.703 109.256 161.46 108.957 161.914 108.358C162.217 107.759 162.52 106.86 162.672 105.962L164.641 106.261C164.489 107.609 163.883 109.256 163.126 110.005C162.672 110.454 161.763 111.053 160.248 111.053C158.885 111.053 157.673 110.454 156.916 109.706C156.159 108.957 155.401 107.459 155.401 103.715C155.401 99.5219 156.462 97.8745 157.219 96.9759C158.279 95.9276 159.339 95.7778 160.248 95.7778C161.157 95.7778 162.066 95.9276 162.975 96.6764C163.883 97.4252 164.338 98.9228 164.489 100.42L162.52 100.87Z" fill="#535762"/>
<path d="M168.422 97.725H164.938V96.0776H170.542V101.918H172.814C173.874 101.918 175.389 102.068 176.298 103.116C177.207 104.015 177.358 105.363 177.358 106.261C177.358 107.16 177.207 108.208 176.752 108.957C176.449 109.406 175.389 110.604 172.814 110.604H168.573V97.725H168.422ZM172.057 108.957C172.814 108.957 173.874 108.957 174.48 108.208C174.935 107.759 175.086 106.86 175.086 106.261C175.086 105.213 174.783 104.464 174.329 104.165C173.723 103.715 172.663 103.715 172.208 103.715H170.391V108.957H172.057Z" fill="#535762"/>
<path d="M181.453 103.565C181.453 104.763 181.604 107.01 182.21 108.058C182.664 108.807 183.573 109.106 184.33 109.106C184.936 109.106 185.542 108.807 185.845 108.358C186.299 107.908 186.602 106.71 186.754 106.111L188.571 106.561C188.42 107.01 188.268 107.908 187.814 108.657C186.905 110.305 185.542 110.754 184.179 110.754C182.664 110.754 181.453 110.305 180.544 108.957C179.483 107.309 179.332 104.913 179.332 103.416C179.332 101.169 179.635 98.7729 180.847 97.2753C181.907 95.7777 183.119 95.6279 184.027 95.6279C185.088 95.6279 186.299 95.7777 187.36 97.1255C188.268 98.3236 188.874 100.121 188.874 103.565H181.453ZM186.602 101.918C186.602 99.971 186.299 99.0724 185.997 98.4734C185.694 97.8743 184.936 97.4251 184.179 97.4251C183.573 97.4251 182.816 97.7246 182.361 98.4734C181.907 99.2222 181.755 100.271 181.604 101.768H186.602V101.918Z" fill="#535762"/>
<path d="M192.666 106.111C192.666 106.71 192.818 107.758 193.121 108.208C193.575 109.106 194.484 109.106 195.09 109.106C195.696 109.106 196.453 108.956 196.907 108.357C197.362 107.758 197.362 107.01 197.362 106.411C197.362 105.811 197.21 104.913 196.604 104.314C196.15 104.014 195.393 103.565 194.484 103.565H193.575V102.067H194.484C195.393 102.067 196.15 101.768 196.453 101.468C197.059 101.019 197.059 100.27 197.059 99.6713C197.059 99.222 197.059 98.6229 196.604 98.1737C196.302 97.8741 195.696 97.5746 194.938 97.5746C193.878 97.5746 193.272 98.1737 192.969 98.4732C192.666 98.9225 192.515 99.6713 192.363 100.27L190.546 99.9708C190.697 98.7727 191.303 97.5746 192.06 96.8258C192.969 96.077 194.181 95.9272 194.938 95.9272C195.847 95.9272 197.059 96.077 197.968 96.9756C198.573 97.5746 198.876 98.4732 198.876 99.6713C198.876 100.42 198.725 101.169 198.271 101.618C197.816 102.217 197.21 102.667 196.302 102.966C197.059 103.116 197.665 103.415 198.119 103.865C198.725 104.464 199.028 105.362 199.028 106.71C199.028 108.058 198.573 109.106 197.968 109.705C196.907 110.754 195.696 111.053 194.484 111.053C193.272 111.053 191.909 110.903 190.849 109.556C190.243 108.657 189.94 107.309 189.94 106.411L192.666 106.111Z" fill="#535762"/>
<path d="M210.232 110.604H202.356V114.199H200.539V108.957H201.75C202.508 107.609 202.962 106.112 203.265 104.464C203.568 102.517 203.871 98.4738 203.871 96.0776H210.687V108.957H212.05V114.199H210.232V110.604ZM208.869 108.957V97.8748H205.84C205.688 99.5221 205.537 102.368 205.385 104.165C205.083 105.812 204.78 107.31 204.174 108.957H208.869Z" fill="#535762"/>
<path d="M221.002 96.0774H222.971V98.4735C223.123 97.8745 223.425 97.1257 223.88 96.6764C224.637 95.9276 225.395 95.7778 226 95.7778C227.364 95.7778 228.272 96.3769 229.03 97.4252C230.09 98.9228 230.393 101.469 230.393 103.116C230.393 104.764 230.09 107.16 229.333 108.657C228.424 110.305 227.212 110.904 225.849 110.904C224.637 110.904 224.031 110.454 223.88 110.305C223.577 110.005 223.274 109.706 222.971 109.256V115.696H220.851V96.0774H221.002ZM223.123 104.764C223.123 105.962 223.123 107.16 223.88 108.058C224.334 108.807 224.94 108.957 225.697 108.957C226.606 108.957 227.364 108.358 227.667 107.759C228.121 107.01 228.272 104.464 228.272 103.116C228.272 102.068 228.272 99.6716 227.515 98.4735C227.061 97.7247 226.606 97.4252 225.849 97.4252C224.94 97.4252 224.334 98.0243 224.031 98.3238C223.425 99.0726 223.123 100.72 223.123 102.068V104.764Z" fill="#535762"/>
<path d="M233.557 96.0776L235.981 106.112L238.555 96.0776H240.525L236.284 111.952C235.981 112.851 235.526 114.199 234.92 114.948C234.163 115.696 233.406 115.846 232.8 115.846C232.345 115.846 231.891 115.696 231.588 115.696V113.899C231.891 114.049 232.194 114.199 232.648 114.199C233.406 114.199 233.557 113.899 233.86 113.3C234.012 112.851 234.314 111.952 234.314 111.653L234.769 109.856L231.285 96.3772H233.557V96.0776Z" fill="#535762"/>
<path d="M242.199 110.605V96.0778H244.32V102.068H245.683C246.289 102.068 246.895 101.919 247.198 100.87C247.349 100.421 247.349 99.8219 247.501 99.0731C247.501 98.474 247.652 97.875 247.803 97.2759C248.258 95.9281 249.167 95.7783 249.621 95.7783C249.773 95.7783 250.227 95.9281 250.378 95.9281V97.5755C250.075 97.5755 249.772 97.7252 249.772 97.7252C249.621 97.875 249.47 98.3243 249.47 99.0731C249.318 100.421 249.318 100.87 249.167 101.319C248.864 102.218 248.409 102.518 247.652 102.817C248.864 103.117 249.167 104.165 249.318 104.914C249.621 106.112 249.621 107.609 249.772 108.358C249.924 108.508 250.075 109.107 250.833 108.808V110.455C250.53 110.605 250.378 110.605 249.924 110.605C248.409 110.605 248.106 109.556 247.803 108.957C247.652 108.508 247.501 107.609 247.349 105.962C247.198 105.363 247.198 104.614 246.895 104.165C246.592 103.865 246.289 103.716 245.834 103.716H244.471V110.455H242.199V110.605Z" fill="#535762"/>
<path d="M259.918 97.1262C261.281 98.6238 261.584 101.469 261.584 103.416C261.584 105.663 261.13 108.358 259.918 109.706C259.161 110.455 258.101 111.054 256.889 111.054C255.677 111.054 254.465 110.455 253.859 109.706C252.648 108.358 252.193 105.812 252.193 103.416C252.193 101.619 252.496 98.7735 253.859 97.1262C254.617 96.2276 255.677 95.7783 256.889 95.7783C258.252 95.7783 259.312 96.2276 259.918 97.1262ZM254.768 107.46C255.223 108.957 256.283 109.257 256.889 109.257C257.495 109.257 258.555 108.957 259.009 107.46C259.312 106.411 259.464 104.614 259.464 103.416C259.464 102.218 259.312 100.271 259.009 99.3726C258.555 97.7252 257.343 97.5755 256.889 97.5755C256.586 97.5755 255.374 97.7252 254.768 99.3726C254.465 100.271 254.314 102.218 254.314 103.416C254.314 104.464 254.465 106.411 254.768 107.46Z" fill="#535762"/>
<path d="M264.611 96.0776H269.61C270.973 96.0776 271.73 96.5269 272.033 96.9762C272.639 97.5752 272.942 98.6236 272.942 99.6719C272.942 100.271 272.791 101.02 272.488 101.619C272.033 102.368 271.579 102.817 270.973 102.967C271.882 103.266 272.336 103.865 272.639 104.165C273.093 104.764 273.245 105.812 273.245 106.561C273.245 107.759 272.942 108.807 272.185 109.556C271.73 110.005 270.973 110.604 269.61 110.604H264.46V96.0776H264.611ZM268.398 102.068C269.307 102.068 269.761 101.769 270.064 101.469C270.519 101.02 270.67 100.271 270.67 99.6719C270.67 98.9231 270.519 98.4738 270.064 98.0245C269.61 97.725 269.155 97.5752 268.55 97.5752H266.58V102.068H268.398ZM268.398 108.957C268.852 108.957 269.61 108.957 270.216 108.508C270.67 108.059 270.973 107.31 270.973 106.411C270.973 105.662 270.67 104.764 270.216 104.315C269.761 103.865 268.852 103.715 268.398 103.715H266.429V108.957H268.398Z" fill="#535762"/>
<path d="M283.235 97.1257C284.598 98.6233 284.901 101.469 284.901 103.416C284.901 105.662 284.447 108.358 283.235 109.706C282.478 110.454 281.417 111.053 280.206 111.053C278.994 111.053 277.782 110.454 277.176 109.706C275.965 108.358 275.51 105.812 275.51 103.416C275.51 101.619 275.813 98.7731 277.176 97.1257C277.934 96.2271 278.994 95.7778 280.206 95.7778C281.569 95.7778 282.478 96.2271 283.235 97.1257ZM278.085 107.459C278.54 108.957 279.6 109.256 280.206 109.256C280.812 109.256 281.872 108.957 282.326 107.459C282.629 106.411 282.781 104.614 282.781 103.416C282.781 102.218 282.629 100.271 282.326 99.3721C281.872 97.7247 280.66 97.575 280.206 97.575C279.903 97.575 278.691 97.7247 278.085 99.3721C277.782 100.271 277.631 102.218 277.631 103.416C277.631 104.464 277.782 106.411 278.085 107.459Z" fill="#535762"/>
<path d="M295.056 110.604H287.18V114.199H285.362V108.957H286.574C287.331 107.609 287.786 106.112 288.089 104.464C288.392 102.517 288.695 98.4738 288.695 96.0776H295.511V108.957H296.874V114.199H295.056V110.604ZM293.541 108.957V97.8748H290.512C290.361 99.5221 290.209 102.368 290.058 104.165C289.755 105.812 289.452 107.31 288.846 108.957H293.541Z" fill="#535762"/>
<path d="M299.139 96.0776H301.108V105.213V106.711L301.714 105.213L305.5 96.9762V96.0776H307.621V110.604H305.5V101.619L305.652 99.9714L305.046 101.619L301.108 109.706V110.604H299.139V96.0776Z" fill="#535762"/>
<path d="M312.478 97.725H308.995V96.0776H318.083V97.725H314.599V110.604H312.478V97.725Z" fill="#535762"/>
<path d="M320.809 103.565C320.809 104.763 320.961 107.01 321.567 108.058C322.021 108.807 322.93 109.106 323.687 109.106C324.293 109.106 324.899 108.807 325.202 108.358C325.656 107.908 325.959 106.71 326.111 106.111L327.928 106.561C327.777 107.01 327.625 107.908 327.171 108.657C326.262 110.305 324.899 110.754 323.536 110.754C322.021 110.754 320.809 110.305 319.901 108.957C318.84 107.309 318.689 104.913 318.689 103.416C318.689 101.169 318.992 98.7729 320.204 97.2753C321.264 95.7777 322.476 95.6279 323.384 95.6279C324.445 95.6279 325.656 95.7777 326.717 97.1255C327.625 98.3236 328.231 100.121 328.231 103.565H320.809ZM325.959 101.918C325.959 99.971 325.656 99.0724 325.353 98.4734C325.051 97.8743 324.293 97.4251 323.536 97.4251C322.93 97.4251 322.173 97.7246 321.718 98.4734C321.264 99.2222 321.112 100.271 320.961 101.768H325.959V101.918Z" fill="#535762"/>
<path d="M328.99 108.957C329.899 108.957 330.505 108.508 330.808 107.759C331.111 107.16 331.414 105.812 331.565 101.02C331.565 99.6719 331.717 96.8264 331.717 96.0776H338.533V110.604H336.412V97.8748H333.383C333.383 100.421 333.383 101.319 333.231 102.218C333.231 103.715 333.08 104.614 332.928 106.112C332.777 107.31 332.626 108.358 331.868 109.406C330.808 110.604 329.445 110.604 328.839 110.455V108.957H328.99Z" fill="#535762"/>
<path d="M343.512 103.565C343.512 104.763 343.664 107.01 344.269 108.058C344.724 108.807 345.633 109.106 346.39 109.106C346.996 109.106 347.602 108.807 347.905 108.358C348.359 107.908 348.662 106.71 348.813 106.111L350.631 106.561C350.48 107.01 350.328 107.908 349.874 108.657C348.965 110.305 347.602 110.754 346.239 110.754C344.724 110.754 343.512 110.305 342.603 108.957C341.543 107.309 341.392 104.913 341.392 103.416C341.392 101.169 341.695 98.7729 342.906 97.2753C343.967 95.7777 345.178 95.6279 346.087 95.6279C347.147 95.6279 348.359 95.7777 349.419 97.1255C350.328 98.3236 350.934 100.121 350.934 103.565H343.512ZM348.662 101.918C348.662 99.971 348.359 99.0724 348.056 98.4734C347.753 97.8743 346.996 97.4251 346.239 97.4251C345.633 97.4251 344.875 97.7246 344.421 98.4734C343.967 99.2222 343.815 100.271 343.664 101.768H348.662V101.918Z" fill="#535762"/>
<path d="M353.224 96.0785H355.344V105.214L355.193 106.861L355.799 105.364L359.737 96.9771V96.0785H361.857V110.605H359.737V101.62L359.888 99.9723L359.282 101.62L355.344 109.707V110.605H353.224V96.0785ZM360.797 91.2861C360.797 92.1847 360.494 92.9335 359.888 93.5326C359.131 94.2814 358.222 94.4311 357.465 94.4311C356.707 94.4311 355.647 94.2814 354.89 93.5326C354.284 92.9335 353.981 92.0349 353.981 91.2861H355.799C355.799 91.8852 355.95 92.3345 356.101 92.634C356.404 93.0833 356.859 93.233 357.313 93.233C357.768 93.233 358.222 93.0833 358.525 92.634C358.676 92.3345 358.979 91.8852 358.828 91.2861H360.797Z" fill="#535762"/>
<path d="M387.69 104.464C387.69 105.662 387.842 107.908 388.448 108.957C388.902 109.705 389.811 110.005 390.568 110.005C391.174 110.005 391.78 109.705 392.234 109.256C392.689 108.807 392.992 107.609 393.143 107.01L394.961 107.459C394.809 107.908 394.658 108.807 394.203 109.556C393.294 111.203 391.931 111.652 390.568 111.652C389.053 111.652 387.842 111.203 386.933 109.855C385.873 108.208 385.721 105.812 385.721 104.314C385.721 102.068 386.024 99.6714 387.236 98.1737C388.296 96.6761 389.508 96.5264 390.417 96.5264C391.477 96.5264 392.689 96.6761 393.749 98.024C394.658 99.2221 395.264 101.019 395.264 104.464H387.69ZM392.84 102.816C392.84 100.869 392.537 99.9709 392.234 99.3718C391.931 98.7728 391.174 98.3235 390.417 98.3235C389.811 98.3235 389.053 98.623 388.599 99.3718C388.145 100.121 387.993 101.169 387.842 102.667H392.84V102.816Z" fill="#535762"/>
<path d="M397.536 96.9751H399.505V102.966H403.897V96.9751H405.866V111.502H403.897V104.613H399.505V111.502H397.536V96.9751Z" fill="#535762"/>
<path d="M410.706 98.6225H407.222V96.9751H416.31V98.6225H412.826V111.502H410.706V98.6225Z" fill="#535762"/>
<path d="M417.676 96.9748H419.645V99.371C419.796 98.7719 420.099 98.0231 420.554 97.5739C421.311 96.8251 422.068 96.6753 422.674 96.6753C424.037 96.6753 424.946 97.2743 425.704 98.3227C426.764 99.8203 427.067 102.366 427.067 104.014C427.067 105.661 426.764 108.057 426.006 109.555C425.098 111.202 423.886 111.801 422.523 111.801C421.311 111.801 420.705 111.352 420.554 111.202C420.251 110.903 419.948 110.603 419.645 110.154V116.594H417.524V96.9748H417.676ZM419.796 105.661C419.796 106.859 419.796 108.057 420.554 108.956C421.008 109.705 421.614 109.854 422.371 109.854C423.28 109.854 424.037 109.255 424.34 108.656C424.795 107.907 424.946 105.361 424.946 104.014C424.946 102.965 424.946 100.569 424.189 99.371C423.734 98.6222 423.28 98.3227 422.523 98.3227C421.614 98.3227 421.008 98.9217 420.705 99.2212C420.099 99.97 419.796 101.617 419.796 102.965V105.661Z" fill="#535762"/>
<path d="M437.053 97.8747C438.417 99.3723 438.719 102.218 438.719 104.165C438.719 106.411 438.265 109.107 437.053 110.455C436.296 111.203 435.236 111.803 434.024 111.803C432.812 111.803 431.601 111.203 430.995 110.455C429.783 109.107 429.329 106.561 429.329 104.165C429.329 102.368 429.632 99.5221 430.995 97.8747C431.752 96.9761 432.812 96.5269 434.024 96.5269C435.387 96.5269 436.296 97.1259 437.053 97.8747ZM431.904 108.208C432.358 109.706 433.418 110.005 434.024 110.005C434.63 110.005 435.69 109.706 436.145 108.208C436.447 107.16 436.599 105.363 436.599 104.165C436.599 102.967 436.447 101.02 436.145 100.121C435.69 98.4738 434.478 98.324 434.024 98.324C433.57 98.324 432.358 98.4738 431.904 100.121C431.601 101.02 431.449 102.967 431.449 104.165C431.449 105.363 431.601 107.16 431.904 108.208Z" fill="#535762"/>
<path d="M441.754 96.9751H446.753C448.116 96.9751 448.873 97.4244 449.176 97.8737C449.782 98.4727 450.085 99.521 450.085 100.569C450.085 101.168 449.934 101.917 449.631 102.516C449.176 103.265 448.722 103.714 448.116 103.864C449.025 104.164 449.479 104.763 449.782 105.062C450.237 105.661 450.388 106.71 450.388 107.458C450.388 108.656 450.085 109.705 449.328 110.454C448.873 110.903 448.116 111.502 446.753 111.502H441.603V96.9751H441.754ZM445.541 102.966C446.45 102.966 446.904 102.666 447.207 102.367C447.662 101.917 447.813 101.168 447.813 100.569C447.813 99.8206 447.662 99.3713 447.207 98.922C446.753 98.6225 446.298 98.4727 445.693 98.4727H443.724V102.966H445.541ZM445.541 109.855C445.996 109.855 446.753 109.855 447.359 109.405C447.813 108.956 448.116 108.207 448.116 107.309C448.116 106.56 447.813 105.661 447.359 105.212C446.904 104.763 445.996 104.613 445.541 104.613H443.572V109.855H445.541Z" fill="#535762"/>
<path d="M459.931 96.9751H462.052V109.705H466.293V96.9751H468.413V109.705H469.776V114.797H467.959V111.502H459.931V96.9751Z" fill="#535762"/>
<path d="M374.931 96.9751H377.052V109.705H381.293V96.9751H383.413V109.705H384.776V114.797H382.959V111.502H374.931V96.9751Z" fill="#535762"/>
<path d="M471.748 96.9751H473.717V105.961V107.608L474.322 106.111L478.109 97.7239V96.9751H480.23V111.502H478.109V102.367L478.261 100.869L477.655 102.367L473.717 110.454V111.502H471.748V96.9751Z" fill="#535762"/>
<path d="M490.974 91.8833V96.6757C492.943 96.6757 494.307 97.724 495.064 98.4728C496.579 100.27 496.881 102.666 496.881 104.313C496.881 106.41 496.427 108.507 495.367 109.855C494.761 110.603 493.398 111.951 490.974 111.951V116.594H489.005V111.951C486.582 111.951 485.219 110.603 484.613 109.855C483.553 108.507 483.098 106.41 483.098 104.313C483.098 103.415 483.098 100.42 484.916 98.4728C485.673 97.724 486.885 96.6757 489.005 96.6757V91.8833H490.974ZM489.005 98.323C487.036 98.4728 486.279 99.6709 485.976 100.42C485.673 100.869 485.37 101.917 485.37 104.164C485.37 106.859 485.825 108.058 486.127 108.357C486.885 109.855 488.248 110.154 489.005 110.154V98.323ZM490.823 110.004C491.732 110.004 492.943 109.705 493.701 108.207C493.852 107.908 494.458 106.71 494.458 104.014C494.458 101.768 494.155 100.719 493.852 100.27C493.549 99.6709 492.792 98.4728 490.823 98.1733V110.004Z" fill="#535762"/>
<path d="M499.618 96.9748H501.587V99.371C501.739 98.7719 502.042 98.0231 502.496 97.5739C503.253 96.8251 504.011 96.6753 504.617 96.6753C505.98 96.6753 506.889 97.2743 507.646 98.3227C508.706 99.8203 509.009 102.366 509.009 104.014C509.009 105.661 508.706 108.057 507.949 109.555C507.04 111.202 505.828 111.801 504.465 111.801C503.253 111.801 502.647 111.352 502.496 111.202C502.193 110.903 501.89 110.603 501.587 110.154V116.594H499.618V96.9748ZM501.739 105.661C501.739 106.859 501.739 108.057 502.496 108.956C502.95 109.705 503.556 109.854 504.314 109.854C505.222 109.854 505.98 109.255 506.283 108.656C506.737 107.907 506.889 105.361 506.889 104.014C506.889 102.965 506.889 100.569 506.131 99.371C505.677 98.6222 505.222 98.3227 504.465 98.3227C503.556 98.3227 502.95 98.9217 502.647 99.2212C502.042 99.97 501.739 101.617 501.739 102.965V105.661Z" fill="#535762"/>
<path d="M519.003 97.8742C520.366 99.3718 520.669 102.217 520.669 104.164C520.669 106.411 520.215 109.106 519.003 110.454C518.246 111.203 517.185 111.802 515.974 111.802C514.762 111.802 513.55 111.203 512.944 110.454C511.733 109.106 511.278 106.56 511.278 104.164C511.278 102.367 511.581 99.5216 512.944 97.8742C513.702 96.9757 514.762 96.5264 515.974 96.5264C517.185 96.5264 518.246 97.1254 519.003 97.8742ZM513.853 108.208C514.308 109.705 515.368 110.005 515.974 110.005C516.58 110.005 517.64 109.705 518.094 108.208C518.397 107.159 518.549 105.362 518.549 104.164C518.549 102.966 518.397 101.019 518.094 100.121C517.64 98.4733 516.428 98.3235 515.974 98.3235C515.671 98.3235 514.459 98.4733 513.853 100.121C513.55 101.019 513.399 102.966 513.399 104.164C513.399 105.362 513.55 107.159 513.853 108.208Z" fill="#535762"/>
<path d="M523.544 96.9751H528.542C529.906 96.9751 530.663 97.4244 530.966 97.8737C531.572 98.4727 531.875 99.521 531.875 100.569C531.875 101.168 531.723 101.917 531.42 102.516C530.966 103.265 530.511 103.714 529.906 103.864C530.814 104.164 531.269 104.763 531.572 105.062C532.026 105.661 532.178 106.71 532.178 107.458C532.178 108.656 531.875 109.705 531.117 110.454C530.663 110.903 529.906 111.502 528.542 111.502H523.393V96.9751H523.544ZM527.482 102.966C528.391 102.966 528.845 102.666 529.148 102.367C529.603 101.917 529.754 101.168 529.754 100.569C529.754 99.8206 529.603 99.3713 529.148 98.922C528.694 98.6225 528.239 98.4727 527.634 98.4727H525.665V102.966H527.482ZM527.482 109.855C527.937 109.855 528.694 109.855 529.3 109.405C529.754 108.956 530.057 108.207 530.057 107.309C530.057 106.56 529.754 105.661 529.3 105.212C528.845 104.763 527.937 104.613 527.482 104.613H525.513V109.855H527.482Z" fill="#535762"/>
<path d="M542.326 97.8747C543.689 99.3723 543.992 102.218 543.992 104.165C543.992 106.411 543.538 109.107 542.326 110.455C541.568 111.203 540.508 111.803 539.296 111.803C538.085 111.803 536.873 111.203 536.267 110.455C535.055 109.107 534.601 106.561 534.601 104.165C534.601 102.368 534.904 99.5221 536.267 97.8747C537.025 96.9761 538.085 96.5269 539.296 96.5269C540.508 96.5269 541.568 97.1259 542.326 97.8747ZM537.176 108.208C537.63 109.706 538.691 110.005 539.296 110.005C539.902 110.005 540.963 109.706 541.417 108.208C541.72 107.16 541.871 105.363 541.871 104.165C541.871 102.967 541.72 101.02 541.417 100.121C540.963 98.4738 539.751 98.324 539.296 98.324C538.994 98.324 537.782 98.4738 537.176 100.121C536.873 101.02 536.722 102.967 536.722 104.165C536.722 105.363 536.873 107.16 537.176 108.208Z" fill="#535762"/>
<path d="M546.877 96.9751H554.299V98.6225H548.997V111.502H546.877V96.9751Z" fill="#535762"/>
<path d="M562.476 97.8747C563.839 99.3723 564.142 102.218 564.142 104.165C564.142 106.411 563.688 109.107 562.476 110.455C561.719 111.203 560.659 111.803 559.447 111.803C558.235 111.803 557.023 111.203 556.418 110.455C555.206 109.107 554.751 106.561 554.751 104.165C554.751 102.368 555.054 99.5221 556.418 97.8747C557.175 96.9761 558.235 96.5269 559.447 96.5269C560.659 96.5269 561.719 97.1259 562.476 97.8747ZM557.326 108.208C557.781 109.706 558.841 110.005 559.447 110.005C560.053 110.005 561.113 109.706 561.567 108.208C561.87 107.16 562.022 105.363 562.022 104.165C562.022 102.967 561.87 101.02 561.567 100.121C561.113 98.4738 559.901 98.324 559.447 98.324C559.144 98.324 557.932 98.4738 557.326 100.121C557.023 101.02 556.872 102.967 556.872 104.165C556.872 105.363 557.023 107.16 557.326 108.208Z" fill="#535762"/>
<path d="M580.95 97.8747C582.313 99.3723 582.616 102.218 582.616 104.165C582.616 106.411 582.162 109.107 580.95 110.455C580.193 111.203 579.133 111.803 577.921 111.803C576.709 111.803 575.498 111.203 574.892 110.455C573.68 109.107 573.226 106.561 573.226 104.165C573.226 102.368 573.529 99.5221 574.892 97.8747C575.649 96.9761 576.709 96.5269 577.921 96.5269C579.284 96.5269 580.193 97.1259 580.95 97.8747ZM575.8 108.208C576.255 109.706 577.315 110.005 577.921 110.005C578.527 110.005 579.587 109.706 580.042 108.208C580.344 107.16 580.496 105.363 580.496 104.165C580.496 102.967 580.344 101.02 580.042 100.121C579.587 98.4738 578.375 98.324 577.921 98.324C577.618 98.324 576.406 98.4738 575.8 100.121C575.498 101.02 575.346 102.967 575.346 104.165C575.346 105.363 575.498 107.16 575.8 108.208Z" fill="#535762"/>
<path d="M586.857 98.772C587.615 97.7236 588.675 96.9748 590.038 96.9748C591.704 96.9748 592.764 97.8734 593.522 99.2212C593.976 100.27 594.431 101.767 594.431 104.014C594.431 107.907 593.219 109.705 593.067 110.004C592.159 111.352 590.644 111.801 589.584 111.801C588.372 111.801 587.312 111.202 586.706 110.603C585.04 108.956 584.888 105.811 584.888 103.415C584.888 101.917 585.04 99.8203 585.343 97.5739C585.646 95.627 586.1 93.8298 587.917 92.7815C588.826 92.1825 589.887 92.0327 590.644 91.7332C592.916 91.2839 592.461 91.4337 594.128 90.9844V92.7815C593.37 92.9313 592.764 93.081 592.159 93.2308C590.947 93.5303 590.189 93.6801 589.432 93.9796C588.826 94.2791 588.22 94.5786 587.766 95.1777C587.16 96.0763 586.857 97.7236 586.857 98.772ZM591.856 108.207C592.159 107.308 592.31 105.511 592.31 104.313C592.31 103.115 592.159 101.168 591.856 100.27C591.401 99.0715 590.492 98.772 589.887 98.772C589.432 98.772 588.22 98.9217 587.615 100.719C587.312 101.617 587.312 103.115 587.312 104.163C587.312 105.361 587.463 107.458 587.766 108.207C588.22 109.705 589.281 110.004 589.887 110.004C590.189 110.004 591.25 109.705 591.856 108.207Z" fill="#535762"/>
<path d="M597.325 96.9748H599.294V99.371C599.446 98.7719 599.749 98.0231 600.203 97.5739C600.96 96.8251 601.718 96.6753 602.324 96.6753C603.687 96.6753 604.596 97.2743 605.353 98.3227C606.413 99.8203 606.716 102.366 606.716 104.014C606.716 105.661 606.413 108.057 605.656 109.555C604.747 111.202 603.535 111.801 602.172 111.801C600.96 111.801 600.355 111.352 600.203 111.202C599.9 110.903 599.597 110.603 599.294 110.154V116.594H597.174V96.9748H597.325ZM599.446 105.661C599.446 106.859 599.446 108.057 600.203 108.956C600.658 109.705 601.263 109.854 602.021 109.854C602.93 109.854 603.687 109.255 603.99 108.656C604.444 107.907 604.596 105.361 604.596 104.014C604.596 102.965 604.596 100.569 603.838 99.371C603.384 98.6222 602.93 98.3227 602.172 98.3227C601.263 98.3227 600.658 98.9217 600.355 99.2212C599.749 99.97 599.446 101.617 599.446 102.965V105.661Z" fill="#535762"/>
<path d="M616.238 111.502C615.935 110.603 615.935 109.854 615.935 109.405C615.783 110.004 615.329 110.753 614.875 111.052C614.117 111.651 613.36 111.801 612.603 111.801C611.088 111.801 610.179 111.052 609.725 110.753C609.119 110.154 608.665 109.105 608.665 107.608C608.665 104.762 610.179 103.564 611.239 103.115C612.603 102.516 614.42 102.366 615.632 102.516C615.632 100.719 615.632 99.6705 615.178 99.0715C614.875 98.772 614.42 98.3227 613.511 98.3227C612.906 98.3227 612.148 98.4724 611.542 99.371C611.239 99.8203 611.088 100.719 611.088 101.018L609.119 100.569C609.27 99.5208 609.876 98.4724 610.482 97.8734C611.542 96.8251 612.754 96.6753 613.814 96.6753C614.42 96.6753 615.481 96.8251 616.389 97.2743C617.904 98.3227 617.904 99.97 617.904 102.216V108.057C617.904 108.956 617.904 110.154 618.055 111.502H616.238ZM611.694 105.062C611.239 105.661 610.937 106.709 610.937 107.458C610.937 108.057 611.088 108.956 611.542 109.405C611.845 109.705 612.451 110.004 612.906 110.004C613.511 110.004 614.42 109.705 615.026 108.656C615.632 107.458 615.783 105.96 615.783 104.014C614.117 104.014 612.603 104.163 611.694 105.062Z" fill="#535762"/>
<path d="M622.599 107.01C622.599 107.609 622.751 108.658 623.054 109.107C623.508 110.005 624.417 110.005 625.023 110.005C625.629 110.005 626.386 109.856 626.84 109.257C627.295 108.658 627.295 107.909 627.295 107.31C627.295 106.711 627.143 105.812 626.538 105.213C626.083 104.913 625.326 104.464 624.417 104.464H623.508V102.667H624.417C625.326 102.667 626.083 102.368 626.386 102.068C626.992 101.619 626.992 100.87 626.992 100.271C626.992 99.8216 626.992 99.2226 626.538 98.7733C626.235 98.4738 625.629 98.1742 624.871 98.1742C623.811 98.1742 623.205 98.7733 622.902 99.0728C622.599 99.5221 622.448 100.271 622.297 100.87L620.479 100.57C620.63 99.3723 621.236 98.1742 621.994 97.4254C622.902 96.6766 624.114 96.5269 624.871 96.5269C625.78 96.5269 626.992 96.6766 627.901 97.5752C628.507 98.1742 628.81 99.0728 628.81 100.271C628.81 101.02 628.658 101.768 628.204 102.218C627.749 102.817 627.143 103.266 626.235 103.566C626.992 103.715 627.598 104.015 628.052 104.464C628.658 105.063 628.961 105.962 628.961 107.31C628.961 108.658 628.507 109.706 627.901 110.305C626.84 111.353 625.629 111.653 624.417 111.653C623.205 111.653 621.842 111.503 620.782 110.155C620.176 109.257 619.873 107.909 619.873 107.01H622.599Z" fill="#535762"/>
<path d="M639.716 97.8747C641.079 99.3723 641.382 102.218 641.382 104.165C641.382 106.411 640.928 109.107 639.716 110.455C638.959 111.203 637.898 111.803 636.687 111.803C635.475 111.803 634.263 111.203 633.657 110.455C632.446 109.107 631.991 106.561 631.991 104.165C631.991 102.368 632.294 99.5221 633.657 97.8747C634.415 96.9761 635.475 96.5269 636.687 96.5269C637.898 96.5269 638.959 97.1259 639.716 97.8747ZM634.566 108.208C635.021 109.706 636.081 110.005 636.687 110.005C637.293 110.005 638.353 109.706 638.807 108.208C639.11 107.16 639.262 105.363 639.262 104.165C639.262 102.967 639.11 101.02 638.807 100.121C638.353 98.4738 637.141 98.324 636.687 98.324C636.384 98.324 635.172 98.4738 634.566 100.121C634.263 101.02 634.112 102.967 634.112 104.165C634.112 105.363 634.112 107.16 634.566 108.208Z" fill="#535762"/>
<path d="M644.269 96.9751H649.267C650.63 96.9751 651.388 97.4244 651.69 97.8737C652.296 98.4727 652.599 99.521 652.599 100.569C652.599 101.168 652.448 101.917 652.145 102.516C651.69 103.265 651.236 103.714 650.63 103.864C651.539 104.164 651.993 104.763 652.296 105.062C652.751 105.661 652.902 106.71 652.902 107.458C652.902 108.656 652.599 109.705 651.842 110.454C651.388 110.903 650.63 111.502 649.267 111.502H644.117V96.9751H644.269ZM648.207 102.966C649.116 102.966 649.57 102.666 649.873 102.367C650.327 101.917 650.479 101.168 650.479 100.569C650.479 99.8206 650.327 99.3713 649.873 98.922C649.418 98.6225 648.964 98.4727 648.358 98.4727H646.389V102.966H648.207ZM648.207 109.855C648.661 109.855 649.418 109.855 650.024 109.405C650.479 108.956 650.782 108.207 650.782 107.309C650.782 106.56 650.479 105.661 650.024 105.212C649.57 104.763 648.661 104.613 648.207 104.613H646.238V109.855H648.207Z" fill="#535762"/>
<path d="M662.585 111.502C662.282 110.603 662.282 109.854 662.282 109.405C662.131 110.004 661.676 110.753 661.222 111.052C660.464 111.651 659.707 111.801 658.95 111.801C657.435 111.801 656.526 111.052 656.072 110.753C655.466 110.154 655.012 109.105 655.012 107.608C655.012 104.762 656.526 103.564 657.587 103.115C658.95 102.516 660.767 102.366 661.979 102.516C661.979 100.719 661.979 99.6705 661.525 99.0715C661.222 98.772 660.767 98.3227 659.859 98.3227C659.253 98.3227 658.495 98.4724 657.89 99.371C657.587 99.8203 657.435 100.719 657.435 101.018L655.466 100.569C655.618 99.5208 656.223 98.4724 656.829 97.8734C657.89 96.8251 659.101 96.6753 660.162 96.6753C660.767 96.6753 661.828 96.8251 662.736 97.2743C664.251 98.3227 664.251 99.97 664.251 102.216V108.057C664.251 108.956 664.251 110.154 664.403 111.502H662.585ZM658.041 105.062C657.587 105.661 657.284 106.709 657.284 107.458C657.284 108.057 657.435 108.956 657.89 109.405C658.192 109.705 658.798 110.004 659.253 110.004C659.859 110.004 660.767 109.705 661.373 108.656C661.979 107.458 662.131 105.96 662.131 104.014C660.313 104.014 658.798 104.163 658.041 105.062Z" fill="#535762"/>
<path d="M667.588 96.9751H669.557V102.966H673.949V96.9751H675.918V111.502H673.949V104.613H669.557V111.502H667.588V96.9751Z" fill="#535762"/>
<path d="M679.556 96.9751H681.677V105.961L681.525 107.608L682.131 106.111L686.069 97.7239V96.9751H688.19V111.502H686.069V102.367L686.221 100.869L685.463 102.367L681.677 110.454V111.502H679.556V96.9751Z" fill="#535762"/>
<path d="M697.736 105.063H695.464L692.738 111.502H690.314L693.344 104.913C692.738 104.763 692.132 104.314 691.829 103.864C690.92 102.966 690.92 101.768 690.92 100.869C690.92 99.8209 691.072 98.4731 692.435 97.5745C693.495 96.8257 694.555 96.8257 695.616 96.8257H700.008V111.353H697.888V105.063H697.736ZM697.736 98.6228H695.464C694.858 98.6228 693.95 98.6228 693.495 99.2219C693.192 99.5214 692.889 100.12 692.889 101.019C692.889 101.618 693.041 102.217 693.344 102.666C693.95 103.415 694.707 103.415 695.464 103.415H697.736V98.6228Z" fill="#535762"/>
<path d="M717.878 111.502H710.002V115.096H708.185V109.855H709.396C710.154 108.507 710.608 107.009 710.911 105.362C711.214 103.415 711.517 99.3713 711.517 96.9751H718.333V109.855H719.696V115.096H717.878V111.502ZM716.364 109.705V98.6225H713.334C713.183 100.27 713.031 103.115 712.88 104.912C712.577 106.56 712.274 108.057 711.668 109.705H716.364Z" fill="#535762"/>
<path d="M723.339 104.464C723.339 105.662 723.491 107.909 724.097 108.957C724.551 109.706 725.46 110.005 726.217 110.005C726.823 110.005 727.429 109.706 727.732 109.257C728.186 108.807 728.489 107.609 728.641 107.01L730.458 107.459C730.307 107.909 730.155 108.807 729.701 109.556C728.792 111.203 727.429 111.653 726.066 111.653C724.551 111.653 723.339 111.203 722.43 109.856C721.37 108.208 721.219 105.812 721.219 104.314C721.219 102.068 721.522 99.6718 722.733 98.1742C723.794 96.6766 725.005 96.5269 725.914 96.5269C726.974 96.5269 728.186 96.6766 729.246 98.0245C730.155 99.2226 730.761 101.02 730.761 104.464H723.339ZM728.489 102.817C728.489 100.87 728.186 99.9714 727.883 99.3723C727.58 98.7733 726.823 98.324 726.066 98.324C725.46 98.324 724.702 98.6235 724.248 99.3723C723.794 100.121 723.642 101.169 723.491 102.667H728.489V102.817Z" fill="#535762"/>
<path d="M734.989 98.6225H731.505V96.9751H740.593V98.6225H737.11V111.502H734.989V98.6225Z" fill="#535762"/>
<path d="M743.322 104.464C743.322 105.662 743.474 107.908 744.079 108.957C744.534 109.705 745.443 110.005 746.2 110.005C746.806 110.005 747.412 109.705 747.715 109.256C748.169 108.807 748.472 107.609 748.623 107.01L750.441 107.459C750.29 107.908 750.138 108.807 749.684 109.556C748.775 111.203 747.412 111.652 746.049 111.652C744.534 111.652 743.322 111.203 742.413 109.855C741.353 108.208 741.202 105.812 741.202 104.314C741.202 102.068 741.505 99.6714 742.716 98.1737C743.777 96.6761 744.988 96.5264 745.897 96.5264C746.957 96.5264 748.169 96.6761 749.229 98.024C750.138 99.2221 750.744 101.019 750.744 104.464H743.322ZM748.472 102.816C748.472 100.869 748.169 99.9709 747.866 99.3718C747.563 98.7728 746.806 98.3235 746.049 98.3235C745.443 98.3235 744.685 98.623 744.231 99.3718C743.777 100.121 743.625 101.169 743.474 102.667H748.472V102.816Z" fill="#535762"/>
<path d="M753.168 96.9745H755.288V106.11L755.137 107.608L755.743 106.11L759.681 97.7233V96.8247H761.802V111.352H759.681V102.366L759.832 100.719L759.227 102.366L755.288 110.453V111.352H753.168V96.9745ZM760.741 92.1821C760.741 93.0807 760.438 93.8295 759.832 94.4285C759.075 95.1774 758.166 95.3271 757.409 95.3271C756.652 95.3271 755.591 95.1774 754.834 94.4285C754.228 93.8295 753.925 92.9309 753.925 92.1821H755.743C755.743 92.7812 755.894 93.2305 756.046 93.53C756.349 93.9793 756.803 94.129 757.258 94.129C757.712 94.129 758.166 93.9793 758.469 93.53C758.621 93.2305 758.924 92.7812 758.772 92.1821H760.741Z" fill="#535762"/>
<path d="M774.826 108.207H773.614L771.19 104.014L773.614 99.521H774.826L773.462 104.014L774.826 108.207ZM778.309 108.207H777.098L774.674 104.014L777.098 99.521H778.309L776.946 104.014L778.309 108.207Z" fill="#535762"/>
<path d="M783.605 91.8833H781.333V111.502H783.605V91.8833Z" fill="#535762"/>
<path d="M788.757 93.6804H784.971V91.8833H794.967V93.6804H791.029V111.502H788.757V93.6804Z" fill="#535762"/>
<path d="M800.887 103.114H795.889V104.911H800.887V103.114Z" fill="#535762"/>
<path d="M803.765 111.502V96.9748H805.885V102.965H807.248C807.854 102.965 808.46 102.816 808.763 101.767C808.914 101.318 808.914 100.719 809.066 99.97C809.066 99.371 809.217 98.772 809.369 98.1729C809.823 96.8251 810.732 96.6753 811.186 96.6753C811.338 96.6753 811.792 96.8251 811.944 96.8251V98.4724C811.641 98.4724 811.338 98.6222 811.338 98.6222C811.186 98.772 811.035 99.2212 811.035 99.97C810.884 101.318 810.884 101.767 810.732 102.216C810.429 103.115 809.975 103.415 809.217 103.714C810.429 104.014 810.732 105.062 810.884 105.811C811.186 107.009 811.186 108.506 811.338 109.255C811.489 109.405 811.641 110.004 812.398 109.705V111.352C812.095 111.502 811.944 111.502 811.489 111.502C809.975 111.502 809.672 110.453 809.369 109.854C809.217 109.405 809.066 108.506 808.915 106.859C808.763 106.26 808.763 105.511 808.46 105.062C808.157 104.762 807.854 104.613 807.4 104.613H806.037V111.352H803.765V111.502Z" fill="#535762"/>
<path d="M814.665 96.9751L817.089 107.009L819.663 96.9751H821.632L817.391 112.85C817.088 113.748 816.634 115.096 816.028 115.845C815.271 116.594 814.514 116.744 813.908 116.744C813.453 116.744 812.999 116.594 812.696 116.594V114.797C812.999 114.946 813.302 115.096 813.756 115.096C814.514 115.096 814.665 114.797 814.968 114.198C815.119 113.748 815.422 112.85 815.422 112.55L815.877 110.753L812.393 97.2746H814.665V96.9751Z" fill="#535762"/>
<path d="M824.5 98.772C825.258 97.7236 826.318 96.9748 827.681 96.9748C829.347 96.9748 830.407 97.8734 831.165 99.2212C831.619 100.27 832.074 101.767 832.074 104.014C832.074 107.907 830.862 109.705 830.71 110.004C829.802 111.352 828.287 111.801 827.227 111.801C826.015 111.801 824.955 111.202 824.349 110.603C822.683 108.956 822.531 105.811 822.531 103.415C822.531 101.917 822.683 99.8203 822.986 97.5739C823.289 95.627 823.743 93.8298 825.561 92.7815C826.469 92.1825 827.53 92.0327 828.287 91.7332C830.559 91.2839 830.104 91.4337 831.771 90.9844V92.7815C831.013 92.9313 830.407 93.081 829.802 93.2308C828.59 93.5303 827.833 93.6801 827.075 93.9796C826.469 94.2791 825.863 94.5786 825.409 95.1777C824.803 96.0763 824.5 97.7236 824.5 98.772ZM829.499 108.207C829.802 107.308 829.953 105.511 829.953 104.313C829.953 103.115 829.802 101.168 829.499 100.27C829.044 99.0715 828.135 98.772 827.53 98.772C827.075 98.772 825.863 98.9217 825.258 100.719C824.955 101.617 824.955 103.115 824.955 104.163C824.955 105.361 825.106 107.458 825.409 108.207C825.863 109.705 826.924 110.004 827.53 110.004C827.833 110.004 828.893 109.705 829.499 108.207Z" fill="#535762"/>
<path d="M834.208 99.521H835.419L837.843 104.014L835.419 108.207H834.208L835.571 104.014L834.208 99.521ZM837.691 99.521H838.903L841.326 104.014L838.903 108.207H837.691L839.054 104.014L837.691 99.521Z" fill="#535762"/>
</svg>
