<svg width="52" height="52" viewBox="0 0 52 52" fill="none" xmlns="http://www.w3.org/2000/svg">
<g clip-path="url(#clip0_5464_8423)">
<mask id="mask0_5464_8423" style="mask-type:luminance" maskUnits="userSpaceOnUse" x="0" y="0" width="52" height="52">
<path d="M52 0H0V52H52V0Z" fill="white"/>
</mask>
<g mask="url(#mask0_5464_8423)">
<path d="M26 52C40.3594 52 52 40.3594 52 26C52 11.6406 40.3594 0 26 0C11.6406 0 0 11.6406 0 26C0 40.3594 11.6406 52 26 52Z" fill="#FFA275"/>
<path d="M38.9781 17.8029C38.9781 13.5385 36.3868 10.1006 32.5662 10.1006C28.7456 10.1006 26.1543 13.5716 26.1543 17.8029C26.1543 21.1747 28.1144 24.0507 30.8386 25.1085C31.3702 25.3068 31.7356 25.8027 31.7356 26.3647L31.2041 42.4965C31.2041 43.2238 31.8021 43.8519 32.5662 43.8519C33.2971 43.8519 33.9283 43.2569 33.9283 42.4965L33.3635 26.3647C33.3635 25.8027 33.729 25.3068 34.2606 25.1085C37.018 24.0507 38.9781 21.1747 38.9781 17.8029Z" fill="#292C33"/>
<path d="M22.9316 10.1014C22.2007 10.1014 21.5695 10.6964 21.5695 11.4568V18.9938C21.5695 19.3574 21.3037 19.721 20.8718 19.7541C20.4399 19.7541 20.0412 19.3243 20.0412 18.8946V11.4568C20.0412 10.7295 19.4432 10.1014 18.6791 10.1014C17.9482 10.1014 17.317 10.6964 17.317 11.4568V18.8946C17.317 19.3574 16.9515 19.7541 16.4864 19.721C16.0545 19.688 15.7887 19.3574 15.7887 18.9607V11.4237C15.7887 10.6964 15.1907 10.0684 14.4266 10.0684C13.6957 10.0684 13.0645 10.6634 13.0645 11.4237V22.7953C13.0645 24.2168 17.8153 24.6465 17.8153 26.068L17.2838 42.3982C17.2838 43.1255 17.7821 43.7535 18.513 43.8197C19.3103 43.8858 19.9748 43.2577 19.9748 42.4974C19.9748 42.4974 19.4432 28.1836 19.4432 26.068C19.4432 24.6465 24.194 24.2168 24.194 22.7953V11.4237C24.2937 10.6964 23.6625 10.1014 22.9316 10.1014Z" fill="#292C33"/>
</g>
</g>
<defs>
<clipPath id="clip0_5464_8423">
<rect width="52" height="52" fill="white"/>
</clipPath>
</defs>
</svg>
