<svg width="1920" height="338" viewBox="0 0 1920 338" fill="none" xmlns="http://www.w3.org/2000/svg">
<path d="M1411.1 216.577H1411.8L1462.74 191.029L1462.75 131.137L1520.88 97.5514L1572.72 127.494L1623.66 98.0631L1623.66 38.1709L1681.8 4.58544L1739.97 38.2497L1739.98 99.5362L1793.02 130.18L1793.02 191.467L1839.56 218.475L1890.51 189.045L1890.51 129.153L1948.64 95.5672L2000.48 125.509L2055.02 94.0014L2109.26 125.347L2162.6 94.5318L2220.78 128.196L2220.78 189.482L2269.09 217.808L2322.11 187.174L2318.27 127.168L2371.61 96.3528L2371.61 33.672L2429.89 0L2484.13 31.3459L2537.47 0.530338L2595.65 34.1946L2595.65 95.4811L2648.69 126.125L2648.7 187.412L2695.24 214.42L2749.78 182.912L2807.96 216.577L2807.96 277.863L2861 308.507L2860.98 338H-149.873L-149.873 320.867L-202.913 290.223L-202.914 228.937L-255.955 198.293L-256 131.043L-197.867 97.4576L-143.127 129.316L-89.788 98.5002L-31.6091 132.165L-31.6082 193.451L14.9395 220.46L65.8812 191.029L65.8857 131.137L124.019 97.5514L175.855 127.494L226.797 98.0631L226.801 38.1709L284.935 4.58544L343.114 38.2497L343.115 99.5362L396.155 130.18L396.156 191.467L442.704 218.475L493.645 189.045L493.65 129.153L551.783 95.5672L603.619 125.509L658.157 94.0014L712.401 125.347L765.74 94.5318L823.919 128.196L823.92 189.482L872.227 217.808L925.252 187.174L921.414 127.168L974.753 96.3528L974.746 33.672L1033.03 0L1087.27 31.3459L1140.61 0.530338L1198.79 34.1946L1198.79 95.4811L1251.83 126.125V128.209L1253.73 129.316L1307.07 98.5002L1365.25 132.165L1365.25 190.049L1411.1 216.577Z" fill="#343843"/>
</svg>
