<svg width="431" height="362" viewBox="0 0 431 362" fill="none" xmlns="http://www.w3.org/2000/svg">
<g clip-path="url(#clip0_557_3453)">
<path d="M22.9564 20.7264H20.3476V3.36139H10.8906V20.7264H8.2002V1.32324H22.8749V20.7264H22.9564Z" fill="#B3B3B3"/>
<path d="M38.7725 20.7264H36.1636V14.6119H29.7231V20.7264H27.1143V6.29626H29.7231V12.5738H36.1636V6.29626H38.7725V20.7264Z" fill="#B3B3B3"/>
<path d="M73 20.7264V1.32324H79.359C81.3972 1.32324 82.9462 1.73087 84.0875 2.62766C85.2289 3.52444 85.7996 4.82886 85.7996 6.5409C85.7996 7.35616 85.555 8.08989 85.0658 8.82363C84.5767 9.55736 83.8429 9.96499 83.0277 10.2911C84.3321 10.4541 85.3104 11.0248 86.0441 11.9216C86.7779 12.8184 87.1855 13.9598 87.1855 15.1826C87.1855 16.9762 86.6148 18.2806 85.4735 19.2589C84.3321 20.2373 82.7831 20.6449 80.745 20.6449H73V20.7264ZM75.6904 9.55736H79.9297C80.908 9.55736 81.7233 9.31278 82.294 8.7421C82.9462 8.17142 83.1907 7.43769 83.1907 6.45937C83.1907 5.39954 82.8646 4.6658 82.2124 4.09512C81.5602 3.60597 80.5819 3.27986 79.359 3.27986H75.6904V9.55736ZM75.6904 11.5955V18.6067H80.745C81.9678 18.6067 82.8646 18.2806 83.5168 17.71C84.1691 17.1393 84.4952 16.2425 84.4952 15.1826C84.4952 14.1228 84.1691 13.226 83.5168 12.5738C82.8646 11.9216 81.9678 11.5955 80.745 11.514H80.5819H75.6904V11.5955Z" fill="#B3B3B3"/>
<path d="M101.126 8.33441H96.3976V20.7264H93.7888V8.33441H89.0603V6.29626H101.126V8.33441Z" fill="#B3B3B3"/>
<path d="M150.512 14.5304C150.593 16.4055 149.941 17.9545 148.637 19.1773C147.332 20.4002 145.62 21.0524 143.419 21.0524C141.218 21.0524 139.424 20.2372 138.038 18.6882C136.652 17.1392 136 15.1826 136 12.7368V9.31271C136 6.94846 136.652 4.91031 138.038 3.36132C139.424 1.81233 141.218 0.99707 143.419 0.99707C145.62 0.99707 147.332 1.56775 148.637 2.70911C149.941 3.85048 150.593 5.39947 150.512 7.35609V7.43762H147.984C147.984 6.05168 147.577 4.99184 146.761 4.17658C145.946 3.36132 144.805 2.95369 143.337 2.95369C141.87 2.95369 140.729 3.52437 139.832 4.74726C138.935 5.88862 138.527 7.35609 138.527 9.14966V12.6553C138.527 14.4488 138.935 15.9163 139.832 17.0577C140.729 18.199 141.87 18.8512 143.337 18.8512C144.805 18.8512 145.946 18.4436 146.761 17.7099C147.577 16.8946 147.984 15.8348 147.984 14.4488H150.512V14.5304Z" fill="#B3B3B3"/>
<path d="M165.92 14.0413C165.92 16.161 165.431 17.7915 164.453 19.0959C163.474 20.4003 162.088 20.971 160.295 20.971C159.398 20.971 158.664 20.8079 157.93 20.5634C157.278 20.2373 156.708 19.8296 156.218 19.259V26.2702H153.61V6.29634H155.648L156.055 8.17143C156.545 7.4377 157.115 6.94854 157.849 6.62244C158.583 6.29634 159.398 6.05176 160.295 6.05176C162.088 6.05176 163.474 6.78549 164.453 8.17143C165.431 9.55737 165.92 11.4325 165.92 13.7967V14.0413ZM163.311 13.7967C163.311 12.1662 162.985 10.7803 162.333 9.80195C161.681 8.82364 160.702 8.25296 159.479 8.25296C158.746 8.25296 158.094 8.41601 157.523 8.74211C156.952 9.06822 156.545 9.55737 156.218 10.1281V17.1393C156.545 17.71 156.952 18.1991 157.523 18.5252C158.094 18.8513 158.746 19.0144 159.479 19.0144C160.702 19.0144 161.681 18.5252 162.333 17.6284C162.985 16.7317 163.311 15.5088 163.311 14.1228V13.7967Z" fill="#B3B3B3"/>
<path d="M215.43 1.32324V20.7264H212.821V12.6553C212.006 12.8999 211.191 13.063 210.375 13.226C209.56 13.3076 208.663 13.3891 207.522 13.3891C205.402 13.3891 203.772 12.8999 202.631 12.0031C201.489 11.1064 201 9.55736 201 7.43769V1.32324H203.609V7.43769C203.609 8.90515 203.935 9.88346 204.506 10.4541C205.158 11.0248 206.136 11.2694 207.441 11.2694C208.337 11.2694 209.234 11.1879 210.131 11.1064C210.946 10.9433 211.843 10.7802 212.74 10.5357V1.32324H215.43Z" fill="#B3B3B3"/>
<path d="M230.675 8.33441H225.947V20.7264H223.338V8.33441H218.61V6.29626H230.675V8.33441Z" fill="#B3B3B3"/>
<path d="M279.675 20.7264H277.066V3.36139H267.609V20.7264H265V1.32324H279.675V20.7264Z" fill="#B3B3B3"/>
<path d="M294.92 8.33453H290.192V20.7265H287.583V8.33453H282.854V6.29639H294.92V8.33453Z" fill="#B3B3B3"/>
<path d="M344.512 14.5302C344.593 16.4053 343.941 17.9543 342.637 19.1772C341.332 20.4001 339.62 21.0523 337.419 21.0523C335.218 21.0523 333.424 20.2371 332.038 18.6881C330.652 17.1391 330 15.1825 330 12.7367V9.31259C330 6.94834 330.652 4.91019 332.038 3.3612C333.424 1.81221 335.218 0.996948 337.419 0.996948C339.62 0.996948 341.332 1.56763 342.637 2.70899C343.941 3.85035 344.593 5.39935 344.512 7.35597V7.43749H341.984C341.984 6.05155 341.577 4.99172 340.761 4.17646C339.946 3.3612 338.805 2.95357 337.337 2.95357C335.87 2.95357 334.729 3.52425 333.832 4.74714C332.935 5.8885 332.527 7.35597 332.527 9.14954V12.6552C332.527 14.4487 332.935 15.9162 333.832 17.0575C334.729 18.1989 335.87 18.8511 337.337 18.8511C338.805 18.8511 339.946 18.4435 340.761 17.7098C341.577 16.8945 341.984 15.8347 341.984 14.4487H344.512V14.5302Z" fill="#B3B3B3"/>
<path d="M353.887 6.05149C355.762 6.05149 357.148 6.7037 358.208 8.08964C359.268 9.47558 359.838 11.1876 359.838 13.3888V13.7149C359.838 15.8346 359.268 17.6282 358.126 19.0141C356.985 20.4 355.436 21.0523 353.398 21.0523C351.36 21.0523 349.811 20.4 348.669 19.0141C347.528 17.6282 346.957 15.9161 346.957 13.7149V13.3888C346.957 13.3073 346.957 13.2258 346.957 13.2258C346.957 13.1442 346.957 13.1442 346.957 13.0627V9.96473C346.957 7.19285 347.528 5.23623 348.588 3.93182C349.648 2.6274 351.278 1.97519 353.398 1.81214C354.621 1.73062 355.599 1.56756 356.251 1.32299C356.903 1.07841 357.23 0.670779 357.23 0.100098H359.268V0.181624C359.349 1.56756 358.86 2.54587 357.882 3.11656C356.903 3.68724 355.517 4.01334 353.642 4.01334C352.256 4.01334 351.197 4.42097 350.381 5.1547C349.566 5.88844 349.158 6.94827 349.158 8.33421V8.41574C349.648 7.76353 350.381 7.19285 351.197 6.78522C352.012 6.37759 352.99 6.05149 353.887 6.05149ZM353.398 8.08964C352.175 8.08964 351.197 8.57879 350.544 9.5571C349.892 10.5354 349.566 11.8398 349.566 13.3073V13.6334C349.566 15.1824 349.892 16.4053 350.544 17.3836C351.197 18.3619 352.175 18.8511 353.398 18.8511C354.621 18.8511 355.599 18.3619 356.251 17.3836C356.903 16.4053 357.23 15.1009 357.23 13.6334V13.3073C357.23 11.7583 356.903 10.5354 356.251 9.5571C355.599 8.57879 354.621 8.08964 353.398 8.08964Z" fill="#B3B3B3"/>
<path d="M394 20.7264V1.32324H400.359C402.397 1.32324 403.946 1.73087 405.088 2.62766C406.229 3.52444 406.8 4.82886 406.8 6.5409C406.8 7.35616 406.555 8.08989 406.066 8.82363C405.577 9.55736 404.843 9.96499 404.028 10.3726C405.332 10.5357 406.31 11.1064 407.044 12.0031C407.778 12.8999 408.186 14.0413 408.186 15.2642C408.186 17.0577 407.615 18.3622 406.473 19.3405C405.332 20.3188 403.783 20.7264 401.745 20.7264H394ZM396.69 9.55736H400.93C401.908 9.55736 402.723 9.31278 403.294 8.7421C403.946 8.17142 404.191 7.43769 404.191 6.45937C404.191 5.39954 403.865 4.6658 403.212 4.09512C402.56 3.60597 401.582 3.27986 400.359 3.27986H396.69V9.55736ZM396.69 11.5955V18.6067H401.745C402.968 18.6067 403.865 18.2806 404.517 17.71C405.169 17.1393 405.495 16.2425 405.495 15.1826C405.495 14.1228 405.169 13.226 404.517 12.5738C403.865 11.9216 402.968 11.5955 401.745 11.514H401.582H396.69V11.5955Z" fill="#B3B3B3"/>
<path d="M416.745 18.9325C417.561 18.9325 418.294 18.6879 418.865 18.1172C419.436 17.5466 419.762 16.8944 419.762 16.1606H422.126V16.2421C422.126 17.465 421.637 18.6064 420.496 19.5847C419.354 20.563 418.131 21.0522 416.664 21.0522C414.626 21.0522 413.077 20.4 411.935 19.014C410.794 17.6281 410.305 15.916 410.305 13.8779V13.3072C410.305 11.2691 410.876 9.55702 411.935 8.17108C413.077 6.78514 414.626 6.13293 416.582 6.13293C418.213 6.13293 419.517 6.62209 420.496 7.6004C421.474 8.57871 422.045 9.8016 421.963 11.2691V11.3506H419.599C419.599 10.4538 419.273 9.72007 418.702 9.06787C418.131 8.41566 417.398 8.17108 416.501 8.17108C415.196 8.17108 414.3 8.66024 413.647 9.63855C413.077 10.6169 412.751 11.8397 412.751 13.3072V13.8779C412.751 15.3454 413.077 16.5683 413.647 17.5466C414.544 18.4433 415.441 18.9325 416.745 18.9325Z" fill="#B3B3B3"/>
<path d="M22.9564 20.7264H20.3476V3.36139H10.8906V20.7264H8.2002V1.32324H22.8749V20.7264H22.9564Z" fill="#B3B3B3"/>
<path d="M38.7725 20.7264H36.1636V14.6119H29.7231V20.7264H27.1143V6.29626H29.7231V12.5738H36.1636V6.29626H38.7725V20.7264Z" fill="#B3B3B3"/>
<path d="M73 20.7264V1.32324H79.359C81.3972 1.32324 82.9462 1.73087 84.0875 2.62766C85.2289 3.52444 85.7996 4.82886 85.7996 6.5409C85.7996 7.35616 85.555 8.08989 85.0658 8.82363C84.5767 9.55736 83.8429 9.96499 83.0277 10.2911C84.3321 10.4541 85.3104 11.0248 86.0441 11.9216C86.7779 12.8184 87.1855 13.9598 87.1855 15.1826C87.1855 16.9762 86.6148 18.2806 85.4735 19.2589C84.3321 20.2373 82.7831 20.6449 80.745 20.6449H73V20.7264ZM75.6904 9.55736H79.9297C80.908 9.55736 81.7233 9.31278 82.294 8.7421C82.9462 8.17142 83.1907 7.43769 83.1907 6.45937C83.1907 5.39954 82.8646 4.6658 82.2124 4.09512C81.5602 3.60597 80.5819 3.27986 79.359 3.27986H75.6904V9.55736ZM75.6904 11.5955V18.6067H80.745C81.9678 18.6067 82.8646 18.2806 83.5168 17.71C84.1691 17.1393 84.4952 16.2425 84.4952 15.1826C84.4952 14.1228 84.1691 13.226 83.5168 12.5738C82.8646 11.9216 81.9678 11.5955 80.745 11.514H80.5819H75.6904V11.5955Z" fill="#B3B3B3"/>
<path d="M101.126 8.33441H96.3976V20.7264H93.7888V8.33441H89.0603V6.29626H101.126V8.33441Z" fill="#B3B3B3"/>
<path d="M150.512 14.5304C150.593 16.4055 149.941 17.9545 148.637 19.1773C147.332 20.4002 145.62 21.0524 143.419 21.0524C141.218 21.0524 139.424 20.2372 138.038 18.6882C136.652 17.1392 136 15.1826 136 12.7368V9.31271C136 6.94846 136.652 4.91031 138.038 3.36132C139.424 1.81233 141.218 0.99707 143.419 0.99707C145.62 0.99707 147.332 1.56775 148.637 2.70911C149.941 3.85048 150.593 5.39947 150.512 7.35609V7.43762H147.984C147.984 6.05168 147.577 4.99184 146.761 4.17658C145.946 3.36132 144.805 2.95369 143.337 2.95369C141.87 2.95369 140.729 3.52437 139.832 4.74726C138.935 5.88862 138.527 7.35609 138.527 9.14966V12.6553C138.527 14.4488 138.935 15.9163 139.832 17.0577C140.729 18.199 141.87 18.8512 143.337 18.8512C144.805 18.8512 145.946 18.4436 146.761 17.7099C147.577 16.8946 147.984 15.8348 147.984 14.4488H150.512V14.5304Z" fill="#B3B3B3"/>
<path d="M165.92 14.0413C165.92 16.161 165.431 17.7915 164.453 19.0959C163.474 20.4003 162.088 20.971 160.295 20.971C159.398 20.971 158.664 20.8079 157.93 20.5634C157.278 20.2373 156.708 19.8296 156.218 19.259V26.2702H153.61V6.29634H155.648L156.055 8.17143C156.545 7.4377 157.115 6.94854 157.849 6.62244C158.583 6.29634 159.398 6.05176 160.295 6.05176C162.088 6.05176 163.474 6.78549 164.453 8.17143C165.431 9.55737 165.92 11.4325 165.92 13.7967V14.0413ZM163.311 13.7967C163.311 12.1662 162.985 10.7803 162.333 9.80195C161.681 8.82364 160.702 8.25296 159.479 8.25296C158.746 8.25296 158.094 8.41601 157.523 8.74211C156.952 9.06822 156.545 9.55737 156.218 10.1281V17.1393C156.545 17.71 156.952 18.1991 157.523 18.5252C158.094 18.8513 158.746 19.0144 159.479 19.0144C160.702 19.0144 161.681 18.5252 162.333 17.6284C162.985 16.7317 163.311 15.5088 163.311 14.1228V13.7967Z" fill="#B3B3B3"/>
<path d="M215.43 1.32324V20.7264H212.821V12.6553C212.006 12.8999 211.191 13.063 210.375 13.226C209.56 13.3076 208.663 13.3891 207.522 13.3891C205.402 13.3891 203.772 12.8999 202.631 12.0031C201.489 11.1064 201 9.55736 201 7.43769V1.32324H203.609V7.43769C203.609 8.90515 203.935 9.88346 204.506 10.4541C205.158 11.0248 206.136 11.2694 207.441 11.2694C208.337 11.2694 209.234 11.1879 210.131 11.1064C210.946 10.9433 211.843 10.7802 212.74 10.5357V1.32324H215.43Z" fill="#B3B3B3"/>
<path d="M230.675 8.33441H225.947V20.7264H223.338V8.33441H218.61V6.29626H230.675V8.33441Z" fill="#B3B3B3"/>
<path d="M279.675 20.7264H277.066V3.36139H267.609V20.7264H265V1.32324H279.675V20.7264Z" fill="#B3B3B3"/>
<path d="M294.92 8.33453H290.192V20.7265H287.583V8.33453H282.854V6.29639H294.92V8.33453Z" fill="#B3B3B3"/>
<path d="M344.512 14.5302C344.593 16.4053 343.941 17.9543 342.637 19.1772C341.332 20.4001 339.62 21.0523 337.419 21.0523C335.218 21.0523 333.424 20.2371 332.038 18.6881C330.652 17.1391 330 15.1825 330 12.7367V9.31259C330 6.94834 330.652 4.91019 332.038 3.3612C333.424 1.81221 335.218 0.996948 337.419 0.996948C339.62 0.996948 341.332 1.56763 342.637 2.70899C343.941 3.85035 344.593 5.39935 344.512 7.35597V7.43749H341.984C341.984 6.05155 341.577 4.99172 340.761 4.17646C339.946 3.3612 338.805 2.95357 337.337 2.95357C335.87 2.95357 334.729 3.52425 333.832 4.74714C332.935 5.8885 332.527 7.35597 332.527 9.14954V12.6552C332.527 14.4487 332.935 15.9162 333.832 17.0575C334.729 18.1989 335.87 18.8511 337.337 18.8511C338.805 18.8511 339.946 18.4435 340.761 17.7098C341.577 16.8945 341.984 15.8347 341.984 14.4487H344.512V14.5302Z" fill="#B3B3B3"/>
<path d="M353.887 6.05149C355.762 6.05149 357.148 6.7037 358.208 8.08964C359.268 9.47558 359.838 11.1876 359.838 13.3888V13.7149C359.838 15.8346 359.268 17.6282 358.126 19.0141C356.985 20.4 355.436 21.0523 353.398 21.0523C351.36 21.0523 349.811 20.4 348.669 19.0141C347.528 17.6282 346.957 15.9161 346.957 13.7149V13.3888C346.957 13.3073 346.957 13.2258 346.957 13.2258C346.957 13.1442 346.957 13.1442 346.957 13.0627V9.96473C346.957 7.19285 347.528 5.23623 348.588 3.93182C349.648 2.6274 351.278 1.97519 353.398 1.81214C354.621 1.73062 355.599 1.56756 356.251 1.32299C356.903 1.07841 357.23 0.670779 357.23 0.100098H359.268V0.181624C359.349 1.56756 358.86 2.54587 357.882 3.11656C356.903 3.68724 355.517 4.01334 353.642 4.01334C352.256 4.01334 351.197 4.42097 350.381 5.1547C349.566 5.88844 349.158 6.94827 349.158 8.33421V8.41574C349.648 7.76353 350.381 7.19285 351.197 6.78522C352.012 6.37759 352.99 6.05149 353.887 6.05149ZM353.398 8.08964C352.175 8.08964 351.197 8.57879 350.544 9.5571C349.892 10.5354 349.566 11.8398 349.566 13.3073V13.6334C349.566 15.1824 349.892 16.4053 350.544 17.3836C351.197 18.3619 352.175 18.8511 353.398 18.8511C354.621 18.8511 355.599 18.3619 356.251 17.3836C356.903 16.4053 357.23 15.1009 357.23 13.6334V13.3073C357.23 11.7583 356.903 10.5354 356.251 9.5571C355.599 8.57879 354.621 8.08964 353.398 8.08964Z" fill="#B3B3B3"/>
<path d="M394 20.7264V1.32324H400.359C402.397 1.32324 403.946 1.73087 405.088 2.62766C406.229 3.52444 406.8 4.82886 406.8 6.5409C406.8 7.35616 406.555 8.08989 406.066 8.82363C405.577 9.55736 404.843 9.96499 404.028 10.3726C405.332 10.5357 406.31 11.1064 407.044 12.0031C407.778 12.8999 408.186 14.0413 408.186 15.2642C408.186 17.0577 407.615 18.3622 406.473 19.3405C405.332 20.3188 403.783 20.7264 401.745 20.7264H394ZM396.69 9.55736H400.93C401.908 9.55736 402.723 9.31278 403.294 8.7421C403.946 8.17142 404.191 7.43769 404.191 6.45937C404.191 5.39954 403.865 4.6658 403.212 4.09512C402.56 3.60597 401.582 3.27986 400.359 3.27986H396.69V9.55736ZM396.69 11.5955V18.6067H401.745C402.968 18.6067 403.865 18.2806 404.517 17.71C405.169 17.1393 405.495 16.2425 405.495 15.1826C405.495 14.1228 405.169 13.226 404.517 12.5738C403.865 11.9216 402.968 11.5955 401.745 11.514H401.582H396.69V11.5955Z" fill="#B3B3B3"/>
<path d="M416.745 18.9325C417.561 18.9325 418.294 18.6879 418.865 18.1172C419.436 17.5466 419.762 16.8944 419.762 16.1606H422.126V16.2421C422.126 17.465 421.637 18.6064 420.496 19.5847C419.354 20.563 418.131 21.0522 416.664 21.0522C414.626 21.0522 413.077 20.4 411.935 19.014C410.794 17.6281 410.305 15.916 410.305 13.8779V13.3072C410.305 11.2691 410.876 9.55702 411.935 8.17108C413.077 6.78514 414.626 6.13293 416.582 6.13293C418.213 6.13293 419.517 6.62209 420.496 7.6004C421.474 8.57871 422.045 9.8016 421.963 11.2691V11.3506H419.599C419.599 10.4538 419.273 9.72007 418.702 9.06787C418.131 8.41566 417.398 8.17108 416.501 8.17108C415.196 8.17108 414.3 8.66024 413.647 9.63855C413.077 10.6169 412.751 11.8397 412.751 13.3072V13.8779C412.751 15.3454 413.077 16.5683 413.647 17.5466C414.544 18.4433 415.441 18.9325 416.745 18.9325Z" fill="#B3B3B3"/>
<path d="M143.795 78V53.58L145.386 55.319H137.949V52.1H147.458V78H143.795Z" fill="#292C33" fill-opacity="0.8"/>
<path d="M154.181 136.546C152.085 136.546 150.272 136.238 148.742 135.621C147.213 135.004 146.029 134.129 145.19 132.994C144.352 131.835 143.932 130.478 143.932 128.924C143.932 127.395 144.327 126.1 145.116 125.039C145.93 123.954 147.102 123.14 148.631 122.597C150.161 122.03 152.011 121.746 154.181 121.746C156.352 121.746 158.202 122.03 159.731 122.597C161.285 123.14 162.469 123.954 163.283 125.039C164.097 126.124 164.504 127.419 164.504 128.924C164.504 130.478 164.085 131.835 163.246 132.994C162.408 134.129 161.211 135.004 159.657 135.621C158.103 136.238 156.278 136.546 154.181 136.546ZM154.181 133.549C156.253 133.549 157.869 133.13 159.028 132.291C160.212 131.428 160.804 130.268 160.804 128.813C160.804 127.382 160.212 126.26 159.028 125.446C157.869 124.607 156.253 124.188 154.181 124.188C152.134 124.188 150.531 124.607 149.371 125.446C148.212 126.26 147.632 127.382 147.632 128.813C147.632 130.268 148.212 131.428 149.371 132.291C150.531 133.13 152.134 133.549 154.181 133.549ZM154.181 123.744C152.208 123.744 150.531 123.485 149.149 122.967C147.768 122.424 146.707 121.66 145.967 120.673C145.227 119.662 144.857 118.465 144.857 117.084C144.857 115.629 145.24 114.383 146.004 113.347C146.794 112.286 147.891 111.472 149.297 110.905C150.703 110.338 152.331 110.054 154.181 110.054C156.056 110.054 157.696 110.338 159.102 110.905C160.508 111.472 161.606 112.286 162.395 113.347C163.185 114.383 163.579 115.629 163.579 117.084C163.579 118.465 163.209 119.662 162.469 120.673C161.729 121.66 160.656 122.424 159.25 122.967C157.844 123.485 156.155 123.744 154.181 123.744ZM154.181 121.376C155.982 121.376 157.388 121.006 158.399 120.266C159.435 119.526 159.953 118.515 159.953 117.232C159.953 115.925 159.423 114.901 158.362 114.161C157.302 113.421 155.908 113.051 154.181 113.051C152.455 113.051 151.073 113.421 150.037 114.161C149.026 114.901 148.52 115.925 148.52 117.232C148.52 118.515 149.014 119.526 150 120.266C151.012 121.006 152.405 121.376 154.181 121.376Z" fill="#292C33" fill-opacity="0.8"/>
<path d="M142.882 193.25V168.83L144.473 170.569H137.036V167.35H146.545V193.25H142.882ZM160.572 193.546C158.747 193.546 156.971 193.262 155.244 192.695C153.542 192.128 152.149 191.363 151.063 190.401L152.765 187.478C153.629 188.292 154.751 188.958 156.132 189.476C157.514 189.994 158.981 190.253 160.535 190.253C162.509 190.253 164.026 189.834 165.086 188.995C166.147 188.156 166.677 187.034 166.677 185.628C166.677 184.666 166.443 183.827 165.974 183.112C165.506 182.397 164.692 181.854 163.532 181.484C162.398 181.089 160.831 180.892 158.833 180.892H152.95L154.319 167.35H168.934V170.569H155.688L157.612 168.756L156.539 179.449L154.615 177.673H159.61C162.2 177.673 164.285 178.006 165.863 178.672C167.442 179.338 168.589 180.263 169.304 181.447C170.02 182.606 170.377 183.951 170.377 185.48C170.377 186.96 170.02 188.317 169.304 189.55C168.589 190.759 167.504 191.733 166.048 192.473C164.618 193.188 162.792 193.546 160.572 193.546Z" fill="#292C33" fill-opacity="0.8"/>
<path d="M134.333 250.25V247.734L144.878 237.559C145.815 236.671 146.506 235.894 146.95 235.228C147.419 234.537 147.727 233.908 147.875 233.341C148.048 232.749 148.134 232.182 148.134 231.639C148.134 230.307 147.665 229.259 146.728 228.494C145.791 227.729 144.422 227.347 142.621 227.347C141.24 227.347 139.994 227.581 138.884 228.05C137.774 228.494 136.812 229.197 135.998 230.159L133.482 227.976C134.469 226.718 135.788 225.756 137.441 225.09C139.118 224.399 140.956 224.054 142.954 224.054C144.755 224.054 146.321 224.35 147.653 224.942C148.985 225.509 150.009 226.336 150.724 227.421C151.464 228.506 151.834 229.789 151.834 231.269C151.834 232.108 151.723 232.934 151.501 233.748C151.279 234.562 150.86 235.425 150.243 236.338C149.626 237.251 148.738 238.274 147.579 239.409L138.181 248.474L137.293 247.031H152.944V250.25H134.333ZM155.579 250.25V247.734L166.124 237.559C167.062 236.671 167.752 235.894 168.196 235.228C168.665 234.537 168.973 233.908 169.121 233.341C169.294 232.749 169.38 232.182 169.38 231.639C169.38 230.307 168.912 229.259 167.974 228.494C167.037 227.729 165.668 227.347 163.867 227.347C162.486 227.347 161.24 227.581 160.13 228.05C159.02 228.494 158.058 229.197 157.244 230.159L154.728 227.976C155.715 226.718 157.035 225.756 158.687 225.09C160.365 224.399 162.202 224.054 164.2 224.054C166.001 224.054 167.567 224.35 168.899 224.942C170.231 225.509 171.255 226.336 171.97 227.421C172.71 228.506 173.08 229.789 173.08 231.269C173.08 232.108 172.969 232.934 172.747 233.748C172.525 234.562 172.106 235.425 171.489 236.338C170.873 237.251 169.985 238.274 168.825 239.409L159.427 248.474L158.539 247.031H174.19V250.25H155.579Z" fill="#292C33" fill-opacity="0.8"/>
<path d="M199.246 78V75.484L209.791 65.309C210.728 64.421 211.419 63.644 211.863 62.978C212.332 62.2873 212.64 61.6583 212.788 61.091C212.961 60.499 213.047 59.9317 213.047 59.389C213.047 58.057 212.578 57.0087 211.641 56.244C210.704 55.4793 209.335 55.097 207.534 55.097C206.153 55.097 204.907 55.3313 203.797 55.8C202.687 56.244 201.725 56.947 200.911 57.909L198.395 55.726C199.382 54.468 200.701 53.506 202.354 52.84C204.031 52.1493 205.869 51.804 207.867 51.804C209.668 51.804 211.234 52.1 212.566 52.692C213.898 53.2593 214.922 54.0857 215.637 55.171C216.377 56.2563 216.747 57.539 216.747 59.019C216.747 59.8577 216.636 60.684 216.414 61.498C216.192 62.312 215.773 63.1753 215.156 64.088C214.539 65.0007 213.651 66.0243 212.492 67.159L203.094 76.224L202.206 74.781H217.857V78H199.246Z" fill="#292C33" fill-opacity="0.8"/>
<path d="M215.967 110.054C218.311 110.054 220.284 110.56 221.887 111.571C223.515 112.582 224.749 114.05 225.587 115.974C226.426 117.873 226.845 120.204 226.845 122.967C226.845 125.902 226.327 128.381 225.291 130.404C224.255 132.427 222.825 133.956 220.999 134.992C219.174 136.028 217.04 136.546 214.598 136.546C213.39 136.546 212.218 136.423 211.083 136.176C209.973 135.929 208.999 135.547 208.16 135.029L209.566 132.143C210.257 132.587 211.022 132.908 211.86 133.105C212.724 133.278 213.624 133.364 214.561 133.364C217.176 133.364 219.26 132.55 220.814 130.922C222.368 129.269 223.145 126.827 223.145 123.596C223.145 123.078 223.121 122.461 223.071 121.746C223.022 121.031 222.911 120.328 222.738 119.637L223.959 120.895C223.614 122.03 223.034 122.992 222.22 123.781C221.431 124.546 220.469 125.125 219.334 125.52C218.224 125.89 217.003 126.075 215.671 126.075C213.969 126.075 212.452 125.754 211.12 125.113C209.788 124.472 208.74 123.571 207.975 122.412C207.211 121.228 206.828 119.834 206.828 118.231C206.828 116.554 207.223 115.111 208.012 113.902C208.826 112.669 209.924 111.719 211.305 111.053C212.711 110.387 214.265 110.054 215.967 110.054ZM216.115 113.051C215.005 113.051 214.019 113.261 213.155 113.68C212.292 114.099 211.614 114.679 211.12 115.419C210.652 116.159 210.417 117.047 210.417 118.083C210.417 119.612 210.948 120.833 212.008 121.746C213.069 122.634 214.5 123.078 216.3 123.078C217.484 123.078 218.52 122.856 219.408 122.412C220.321 121.968 221.024 121.364 221.517 120.599C222.035 119.834 222.294 118.983 222.294 118.046C222.294 117.133 222.06 116.307 221.591 115.567C221.123 114.827 220.432 114.223 219.519 113.754C218.607 113.285 217.472 113.051 216.115 113.051Z" fill="#292C33" fill-opacity="0.8"/>
<path d="M205.087 193.25V168.83L206.678 170.569H199.241V167.35H208.75V193.25H205.087ZM225.293 193.546C222.999 193.546 221.038 193.04 219.41 192.029C217.782 191.018 216.537 189.562 215.673 187.663C214.835 185.739 214.415 183.396 214.415 180.633C214.415 177.698 214.933 175.219 215.969 173.196C217.005 171.173 218.448 169.644 220.298 168.608C222.148 167.572 224.27 167.054 226.662 167.054C227.896 167.054 229.067 167.177 230.177 167.424C231.312 167.671 232.286 168.053 233.1 168.571L231.694 171.457C231.028 170.988 230.264 170.668 229.4 170.495C228.562 170.322 227.674 170.236 226.736 170.236C224.097 170.236 222 171.062 220.446 172.715C218.892 174.343 218.115 176.773 218.115 180.004C218.115 180.522 218.14 181.139 218.189 181.854C218.239 182.569 218.362 183.272 218.559 183.963L217.301 182.705C217.671 181.57 218.251 180.621 219.04 179.856C219.854 179.067 220.816 178.487 221.926 178.117C223.061 177.722 224.282 177.525 225.589 177.525C227.316 177.525 228.845 177.846 230.177 178.487C231.509 179.128 232.558 180.041 233.322 181.225C234.087 182.384 234.469 183.766 234.469 185.369C234.469 187.022 234.062 188.465 233.248 189.698C232.434 190.931 231.337 191.881 229.955 192.547C228.574 193.213 227.02 193.546 225.293 193.546ZM225.145 190.549C226.28 190.549 227.267 190.339 228.105 189.92C228.969 189.501 229.647 188.921 230.14 188.181C230.634 187.416 230.88 186.528 230.88 185.517C230.88 183.988 230.35 182.779 229.289 181.891C228.229 180.978 226.786 180.522 224.96 180.522C223.776 180.522 222.74 180.744 221.852 181.188C220.964 181.632 220.261 182.236 219.743 183.001C219.25 183.741 219.003 184.592 219.003 185.554C219.003 186.442 219.238 187.268 219.706 188.033C220.175 188.773 220.866 189.377 221.778 189.846C222.691 190.315 223.813 190.549 225.145 190.549Z" fill="#292C33" fill-opacity="0.8"/>
<path d="M197.369 250.25V247.734L207.914 237.559C208.852 236.671 209.542 235.894 209.986 235.228C210.455 234.537 210.763 233.908 210.911 233.341C211.084 232.749 211.17 232.182 211.17 231.639C211.17 230.307 210.702 229.259 209.764 228.494C208.827 227.729 207.458 227.347 205.657 227.347C204.276 227.347 203.03 227.581 201.92 228.05C200.81 228.494 199.848 229.197 199.034 230.159L196.518 227.976C197.505 226.718 198.825 225.756 200.477 225.09C202.155 224.399 203.992 224.054 205.99 224.054C207.791 224.054 209.357 224.35 210.689 224.942C212.021 225.509 213.045 226.336 213.76 227.421C214.5 228.506 214.87 229.789 214.87 231.269C214.87 232.108 214.759 232.934 214.537 233.748C214.315 234.562 213.896 235.425 213.279 236.338C212.663 237.251 211.775 238.274 210.615 239.409L201.217 248.474L200.329 247.031H215.98V250.25H197.369ZM226.94 250.546C225.115 250.546 223.339 250.262 221.612 249.695C219.91 249.128 218.517 248.363 217.431 247.401L219.133 244.478C219.997 245.292 221.119 245.958 222.5 246.476C223.882 246.994 225.362 247.253 226.94 247.253C228.864 247.253 230.357 246.846 231.417 246.032C232.503 245.193 233.045 244.071 233.045 242.665C233.045 241.308 232.527 240.223 231.491 239.409C230.48 238.57 228.864 238.151 226.644 238.151H224.572V235.561L232.268 226.089L232.786 227.569H218.615V224.35H235.709V226.866L228.05 236.301L226.126 235.154H227.347C230.48 235.154 232.823 235.857 234.377 237.263C235.956 238.669 236.745 240.457 236.745 242.628C236.745 244.083 236.388 245.415 235.672 246.624C234.957 247.833 233.872 248.795 232.416 249.51C230.986 250.201 229.16 250.546 226.94 250.546Z" fill="#292C33" fill-opacity="0.8"/>
<path d="M279.067 78.296C277.242 78.296 275.466 78.0123 273.739 77.445C272.037 76.8777 270.644 76.113 269.558 75.151L271.26 72.228C272.124 73.042 273.246 73.708 274.627 74.226C276.009 74.744 277.489 75.003 279.067 75.003C280.991 75.003 282.484 74.596 283.544 73.782C284.63 72.9433 285.172 71.821 285.172 70.415C285.172 69.0583 284.654 67.973 283.618 67.159C282.607 66.3203 280.991 65.901 278.771 65.901H276.699V63.311L284.395 53.839L284.913 55.319H270.742V52.1H287.836V54.616L280.177 64.051L278.253 62.904H279.474C282.607 62.904 284.95 63.607 286.504 65.013C288.083 66.419 288.872 68.2073 288.872 70.378C288.872 71.8333 288.515 73.1653 287.799 74.374C287.084 75.5827 285.999 76.5447 284.543 77.26C283.113 77.9507 281.287 78.296 279.067 78.296Z" fill="#292C33" fill-opacity="0.8"/>
<path d="M268.666 136.25V111.83L270.257 113.569H262.82V110.35H272.329V136.25H268.666ZM288.576 136.546C286.553 136.546 284.74 136.028 283.137 134.992C281.558 133.956 280.3 132.451 279.363 130.478C278.45 128.505 277.994 126.112 277.994 123.3C277.994 120.488 278.45 118.095 279.363 116.122C280.3 114.149 281.558 112.644 283.137 111.608C284.74 110.572 286.553 110.054 288.576 110.054C290.574 110.054 292.375 110.572 293.978 111.608C295.581 112.644 296.839 114.149 297.752 116.122C298.665 118.095 299.121 120.488 299.121 123.3C299.121 126.112 298.665 128.505 297.752 130.478C296.839 132.451 295.581 133.956 293.978 134.992C292.375 136.028 290.574 136.546 288.576 136.546ZM288.576 133.253C289.933 133.253 291.117 132.883 292.128 132.143C293.164 131.403 293.966 130.293 294.533 128.813C295.125 127.333 295.421 125.495 295.421 123.3C295.421 121.105 295.125 119.267 294.533 117.787C293.966 116.307 293.164 115.197 292.128 114.457C291.117 113.717 289.933 113.347 288.576 113.347C287.219 113.347 286.023 113.717 284.987 114.457C283.951 115.197 283.137 116.307 282.545 117.787C281.978 119.267 281.694 121.105 281.694 123.3C281.694 125.495 281.978 127.333 282.545 128.813C283.137 130.293 283.951 131.403 284.987 132.143C286.023 132.883 287.219 133.253 288.576 133.253Z" fill="#292C33" fill-opacity="0.8"/>
<path d="M269.948 193.25V168.83L271.539 170.569H264.102V167.35H273.611V193.25H269.948ZM283.753 193.25L294.742 168.904L295.704 170.569H280.312L282.162 168.756V175.194H278.61V167.35H298.146V169.866L287.675 193.25H283.753Z" fill="#292C33" fill-opacity="0.8"/>
<path d="M260.442 250.25V247.734L270.987 237.559C271.924 236.671 272.615 235.894 273.059 235.228C273.528 234.537 273.836 233.908 273.984 233.341C274.157 232.749 274.243 232.182 274.243 231.639C274.243 230.307 273.774 229.259 272.837 228.494C271.9 227.729 270.531 227.347 268.73 227.347C267.349 227.347 266.103 227.581 264.993 228.05C263.883 228.494 262.921 229.197 262.107 230.159L259.591 227.976C260.578 226.718 261.897 225.756 263.55 225.09C265.227 224.399 267.065 224.054 269.063 224.054C270.864 224.054 272.43 224.35 273.762 224.942C275.094 225.509 276.118 226.336 276.833 227.421C277.573 228.506 277.943 229.789 277.943 231.269C277.943 232.108 277.832 232.934 277.61 233.748C277.388 234.562 276.969 235.425 276.352 236.338C275.735 237.251 274.847 238.274 273.688 239.409L264.29 248.474L263.402 247.031H279.053V250.25H260.442ZM281.002 243.886V241.296L294.248 224.35H298.244L285.109 241.296L283.222 240.704H303.905V243.886H281.002ZM295.395 250.25V243.886L295.506 240.704V235.08H298.984V250.25H295.395Z" fill="#292C33" fill-opacity="0.8"/>
<path d="M332.491 71.636V69.046L345.737 52.1H349.733L336.598 69.046L334.711 68.454H355.394V71.636H332.491ZM346.884 78V71.636L346.995 68.454V62.83H350.473V78H346.884Z" fill="#292C33" fill-opacity="0.8"/>
<path d="M338.658 136.25V111.83L340.249 113.569H332.812V110.35H342.321V136.25H338.658ZM352.352 136.25V111.83L353.943 113.569H346.506V110.35H356.015V136.25H352.352Z" fill="#292C33" fill-opacity="0.8"/>
<path d="M333.599 193.25V168.83L335.19 170.569H327.753V167.35H337.262V193.25H333.599ZM353.028 193.546C350.932 193.546 349.119 193.238 347.589 192.621C346.06 192.004 344.876 191.129 344.037 189.994C343.199 188.835 342.779 187.478 342.779 185.924C342.779 184.395 343.174 183.1 343.963 182.039C344.777 180.954 345.949 180.14 347.478 179.597C349.008 179.03 350.858 178.746 353.028 178.746C355.199 178.746 357.049 179.03 358.578 179.597C360.132 180.14 361.316 180.954 362.13 182.039C362.944 183.124 363.351 184.419 363.351 185.924C363.351 187.478 362.932 188.835 362.093 189.994C361.255 191.129 360.058 192.004 358.504 192.621C356.95 193.238 355.125 193.546 353.028 193.546ZM353.028 190.549C355.1 190.549 356.716 190.13 357.875 189.291C359.059 188.428 359.651 187.268 359.651 185.813C359.651 184.382 359.059 183.26 357.875 182.446C356.716 181.607 355.1 181.188 353.028 181.188C350.981 181.188 349.378 181.607 348.218 182.446C347.059 183.26 346.479 184.382 346.479 185.813C346.479 187.268 347.059 188.428 348.218 189.291C349.378 190.13 350.981 190.549 353.028 190.549ZM353.028 180.744C351.055 180.744 349.378 180.485 347.996 179.967C346.615 179.424 345.554 178.66 344.814 177.673C344.074 176.662 343.704 175.465 343.704 174.084C343.704 172.629 344.087 171.383 344.851 170.347C345.641 169.286 346.738 168.472 348.144 167.905C349.55 167.338 351.178 167.054 353.028 167.054C354.903 167.054 356.543 167.338 357.949 167.905C359.355 168.472 360.453 169.286 361.242 170.347C362.032 171.383 362.426 172.629 362.426 174.084C362.426 175.465 362.056 176.662 361.316 177.673C360.576 178.66 359.503 179.424 358.097 179.967C356.691 180.485 355.002 180.744 353.028 180.744ZM353.028 178.376C354.829 178.376 356.235 178.006 357.246 177.266C358.282 176.526 358.8 175.515 358.8 174.232C358.8 172.925 358.27 171.901 357.209 171.161C356.149 170.421 354.755 170.051 353.028 170.051C351.302 170.051 349.92 170.421 348.884 171.161C347.873 171.901 347.367 172.925 347.367 174.232C347.367 175.515 347.861 176.526 348.847 177.266C349.859 178.006 351.252 178.376 353.028 178.376Z" fill="#292C33" fill-opacity="0.8"/>
<path d="M326.333 250.25V247.734L336.878 237.559C337.815 236.671 338.506 235.894 338.95 235.228C339.419 234.537 339.727 233.908 339.875 233.341C340.048 232.749 340.134 232.182 340.134 231.639C340.134 230.307 339.665 229.259 338.728 228.494C337.791 227.729 336.422 227.347 334.621 227.347C333.24 227.347 331.994 227.581 330.884 228.05C329.774 228.494 328.812 229.197 327.998 230.159L325.482 227.976C326.469 226.718 327.788 225.756 329.441 225.09C331.118 224.399 332.956 224.054 334.954 224.054C336.755 224.054 338.321 224.35 339.653 224.942C340.985 225.509 342.009 226.336 342.724 227.421C343.464 228.506 343.834 229.789 343.834 231.269C343.834 232.108 343.723 232.934 343.501 233.748C343.279 234.562 342.86 235.425 342.243 236.338C341.626 237.251 340.738 238.274 339.579 239.409L330.181 248.474L329.293 247.031H344.944V250.25H326.333ZM356.348 250.546C354.523 250.546 352.747 250.262 351.02 249.695C349.318 249.128 347.925 248.363 346.839 247.401L348.541 244.478C349.405 245.292 350.527 245.958 351.908 246.476C353.29 246.994 354.757 247.253 356.311 247.253C358.285 247.253 359.802 246.834 360.862 245.995C361.923 245.156 362.453 244.034 362.453 242.628C362.453 241.666 362.219 240.827 361.75 240.112C361.282 239.397 360.468 238.854 359.308 238.484C358.174 238.089 356.607 237.892 354.609 237.892H348.726L350.095 224.35H364.71V227.569H351.464L353.388 225.756L352.315 236.449L350.391 234.673H355.386C357.976 234.673 360.061 235.006 361.639 235.672C363.218 236.338 364.365 237.263 365.08 238.447C365.796 239.606 366.153 240.951 366.153 242.48C366.153 243.96 365.796 245.317 365.08 246.55C364.365 247.759 363.28 248.733 361.824 249.473C360.394 250.188 358.568 250.546 356.348 250.546Z" fill="#292C33" fill-opacity="0.8"/>
<path d="M406.935 78.296C405.11 78.296 403.334 78.0123 401.607 77.445C399.905 76.8777 398.512 76.113 397.426 75.151L399.128 72.228C399.992 73.042 401.114 73.708 402.495 74.226C403.877 74.744 405.344 75.003 406.898 75.003C408.872 75.003 410.389 74.5837 411.449 73.745C412.51 72.9063 413.04 71.784 413.04 70.378C413.04 69.416 412.806 68.5773 412.337 67.862C411.869 67.1467 411.055 66.604 409.895 66.234C408.761 65.8393 407.194 65.642 405.196 65.642H399.313L400.682 52.1H415.297V55.319H402.051L403.975 53.506L402.902 64.199L400.978 62.423H405.973C408.563 62.423 410.648 62.756 412.226 63.422C413.805 64.088 414.952 65.013 415.667 66.197C416.383 67.3563 416.74 68.7007 416.74 70.23C416.74 71.71 416.383 73.0667 415.667 74.3C414.952 75.5087 413.867 76.483 412.411 77.223C410.981 77.9383 409.155 78.296 406.935 78.296Z" fill="#292C33" fill-opacity="0.8"/>
<path d="M398.882 136.25V111.83L400.473 113.569H393.036V110.35H402.545V136.25H398.882ZM407.803 136.25V133.734L418.348 123.559C419.285 122.671 419.976 121.894 420.42 121.228C420.889 120.537 421.197 119.908 421.345 119.341C421.518 118.749 421.604 118.182 421.604 117.639C421.604 116.307 421.135 115.259 420.198 114.494C419.261 113.729 417.892 113.347 416.091 113.347C414.71 113.347 413.464 113.581 412.354 114.05C411.244 114.494 410.282 115.197 409.468 116.159L406.952 113.976C407.939 112.718 409.258 111.756 410.911 111.09C412.588 110.399 414.426 110.054 416.424 110.054C418.225 110.054 419.791 110.35 421.123 110.942C422.455 111.509 423.479 112.336 424.194 113.421C424.934 114.506 425.304 115.789 425.304 117.269C425.304 118.108 425.193 118.934 424.971 119.748C424.749 120.562 424.33 121.425 423.713 122.338C423.096 123.251 422.208 124.274 421.049 125.409L411.651 134.474L410.763 133.031H426.414V136.25H407.803Z" fill="#292C33" fill-opacity="0.8"/>
<path d="M398.087 193.25V168.83L399.678 170.569H392.241V167.35H401.75V193.25H398.087ZM415.815 167.054C418.158 167.054 420.131 167.56 421.735 168.571C423.363 169.582 424.596 171.05 425.435 172.974C426.273 174.873 426.693 177.204 426.693 179.967C426.693 182.902 426.175 185.381 425.139 187.404C424.103 189.427 422.672 190.956 420.847 191.992C419.021 193.028 416.888 193.546 414.446 193.546C413.237 193.546 412.065 193.423 410.931 193.176C409.821 192.929 408.846 192.547 408.008 192.029L409.414 189.143C410.104 189.587 410.869 189.908 411.708 190.105C412.571 190.278 413.471 190.364 414.409 190.364C417.023 190.364 419.108 189.55 420.662 187.922C422.216 186.269 422.993 183.827 422.993 180.596C422.993 180.078 422.968 179.461 422.919 178.746C422.869 178.031 422.758 177.328 422.586 176.637L423.807 177.895C423.461 179.03 422.882 179.992 422.068 180.781C421.278 181.546 420.316 182.125 419.182 182.52C418.072 182.89 416.851 183.075 415.519 183.075C413.817 183.075 412.3 182.754 410.968 182.113C409.636 181.472 408.587 180.571 407.823 179.412C407.058 178.228 406.676 176.834 406.676 175.231C406.676 173.554 407.07 172.111 407.86 170.902C408.674 169.669 409.771 168.719 411.153 168.053C412.559 167.387 414.113 167.054 415.815 167.054ZM415.963 170.051C414.853 170.051 413.866 170.261 413.003 170.68C412.139 171.099 411.461 171.679 410.968 172.419C410.499 173.159 410.265 174.047 410.265 175.083C410.265 176.612 410.795 177.833 411.856 178.746C412.916 179.634 414.347 180.078 416.148 180.078C417.332 180.078 418.368 179.856 419.256 179.412C420.168 178.968 420.871 178.364 421.365 177.599C421.883 176.834 422.142 175.983 422.142 175.046C422.142 174.133 421.907 173.307 421.439 172.567C420.97 171.827 420.279 171.223 419.367 170.754C418.454 170.285 417.319 170.051 415.963 170.051Z" fill="#292C33" fill-opacity="0.8"/>
<path d="M389.556 250.25V247.734L400.101 237.559C401.039 236.671 401.729 235.894 402.173 235.228C402.642 234.537 402.95 233.908 403.098 233.341C403.271 232.749 403.357 232.182 403.357 231.639C403.357 230.307 402.889 229.259 401.951 228.494C401.014 227.729 399.645 227.347 397.844 227.347C396.463 227.347 395.217 227.581 394.107 228.05C392.997 228.494 392.035 229.197 391.221 230.159L388.705 227.976C389.692 226.718 391.012 225.756 392.664 225.09C394.342 224.399 396.179 224.054 398.177 224.054C399.978 224.054 401.544 224.35 402.876 224.942C404.208 225.509 405.232 226.336 405.947 227.421C406.687 228.506 407.057 229.789 407.057 231.269C407.057 232.108 406.946 232.934 406.724 233.748C406.502 234.562 406.083 235.425 405.466 236.338C404.85 237.251 403.962 238.274 402.802 239.409L393.404 248.474L392.516 247.031H408.167V250.25H389.556ZM422.051 250.546C419.757 250.546 417.796 250.04 416.168 249.029C414.54 248.018 413.295 246.562 412.431 244.663C411.593 242.739 411.173 240.396 411.173 237.633C411.173 234.698 411.691 232.219 412.727 230.196C413.763 228.173 415.206 226.644 417.056 225.608C418.906 224.572 421.028 224.054 423.42 224.054C424.654 224.054 425.825 224.177 426.935 224.424C428.07 224.671 429.044 225.053 429.858 225.571L428.452 228.457C427.786 227.988 427.022 227.668 426.158 227.495C425.32 227.322 424.432 227.236 423.494 227.236C420.855 227.236 418.758 228.062 417.204 229.715C415.65 231.343 414.873 233.773 414.873 237.004C414.873 237.522 414.898 238.139 414.947 238.854C414.997 239.569 415.12 240.272 415.317 240.963L414.059 239.705C414.429 238.57 415.009 237.621 415.798 236.856C416.612 236.067 417.574 235.487 418.684 235.117C419.819 234.722 421.04 234.525 422.347 234.525C424.074 234.525 425.603 234.846 426.935 235.487C428.267 236.128 429.316 237.041 430.08 238.225C430.845 239.384 431.227 240.766 431.227 242.369C431.227 244.022 430.82 245.465 430.006 246.698C429.192 247.931 428.095 248.881 426.713 249.547C425.332 250.213 423.778 250.546 422.051 250.546ZM421.903 247.549C423.038 247.549 424.025 247.339 424.863 246.92C425.727 246.501 426.405 245.921 426.898 245.181C427.392 244.416 427.638 243.528 427.638 242.517C427.638 240.988 427.108 239.779 426.047 238.891C424.987 237.978 423.544 237.522 421.718 237.522C420.534 237.522 419.498 237.744 418.61 238.188C417.722 238.632 417.019 239.236 416.501 240.001C416.008 240.741 415.761 241.592 415.761 242.554C415.761 243.442 415.996 244.268 416.464 245.033C416.933 245.773 417.624 246.377 418.536 246.846C419.449 247.315 420.571 247.549 421.903 247.549Z" fill="#292C33" fill-opacity="0.8"/>
<path d="M24.9462 136.546C22.6522 136.546 20.6912 136.04 19.0632 135.029C17.4352 134.018 16.1896 132.562 15.3262 130.663C14.4876 128.739 14.0682 126.396 14.0682 123.633C14.0682 120.698 14.5862 118.219 15.6222 116.196C16.6582 114.173 18.1012 112.644 19.9512 111.608C21.8012 110.572 23.9226 110.054 26.3152 110.054C27.5486 110.054 28.7202 110.177 29.8302 110.424C30.9649 110.671 31.9392 111.053 32.7532 111.571L31.3472 114.457C30.6812 113.988 29.9166 113.668 29.0532 113.495C28.2146 113.322 27.3266 113.236 26.3892 113.236C23.7499 113.236 21.6532 114.062 20.0992 115.715C18.5452 117.343 17.7682 119.773 17.7682 123.004C17.7682 123.522 17.7929 124.139 17.8422 124.854C17.8916 125.569 18.0149 126.272 18.2122 126.963L16.9542 125.705C17.3242 124.57 17.9039 123.621 18.6932 122.856C19.5072 122.067 20.4692 121.487 21.5792 121.117C22.7139 120.722 23.9349 120.525 25.2422 120.525C26.9689 120.525 28.4982 120.846 29.8302 121.487C31.1622 122.128 32.2106 123.041 32.9752 124.225C33.7399 125.384 34.1222 126.766 34.1222 128.369C34.1222 130.022 33.7152 131.465 32.9012 132.698C32.0872 133.931 30.9896 134.881 29.6082 135.547C28.2269 136.213 26.6729 136.546 24.9462 136.546ZM24.7982 133.549C25.9329 133.549 26.9196 133.339 27.7582 132.92C28.6216 132.501 29.2999 131.921 29.7932 131.181C30.2866 130.416 30.5332 129.528 30.5332 128.517C30.5332 126.988 30.0029 125.779 28.9422 124.891C27.8816 123.978 26.4386 123.522 24.6132 123.522C23.4292 123.522 22.3932 123.744 21.5052 124.188C20.6172 124.632 19.9142 125.236 19.3962 126.001C18.9029 126.741 18.6562 127.592 18.6562 128.554C18.6562 129.442 18.8906 130.268 19.3592 131.033C19.8279 131.773 20.5186 132.377 21.4312 132.846C22.3439 133.315 23.4662 133.549 24.7982 133.549Z" fill="#292C33" fill-opacity="0.8"/>
<path d="M12.4181 193.25V168.83L14.0091 170.569H6.57212V167.35H16.0811V193.25H12.4181ZM29.6645 193.546C27.8391 193.546 26.0631 193.262 24.3365 192.695C22.6345 192.128 21.2408 191.363 20.1555 190.401L21.8575 187.478C22.7208 188.292 23.8431 188.958 25.2245 189.476C26.6058 189.994 28.0858 190.253 29.6645 190.253C31.5885 190.253 33.0808 189.846 34.1415 189.032C35.2268 188.193 35.7695 187.071 35.7695 185.665C35.7695 184.308 35.2515 183.223 34.2155 182.409C33.2041 181.57 31.5885 181.151 29.3685 181.151H27.2965V178.561L34.9925 169.089L35.5105 170.569H21.3395V167.35H38.4335V169.866L30.7745 179.301L28.8505 178.154H30.0715C33.2041 178.154 35.5475 178.857 37.1015 180.263C38.6801 181.669 39.4695 183.457 39.4695 185.628C39.4695 187.083 39.1118 188.415 38.3965 189.624C37.6811 190.833 36.5958 191.795 35.1405 192.51C33.7098 193.201 31.8845 193.546 29.6645 193.546Z" fill="#292C33" fill-opacity="0.8"/>
<path d="M2.13487 250.25V247.734L12.6799 237.559C13.6172 236.671 14.3079 235.894 14.7519 235.228C15.2205 234.537 15.5289 233.908 15.6769 233.341C15.8495 232.749 15.9359 232.182 15.9359 231.639C15.9359 230.307 15.4672 229.259 14.5299 228.494C13.5925 227.729 12.2235 227.347 10.4229 227.347C9.04154 227.347 7.79587 227.581 6.68587 228.05C5.57587 228.494 4.61387 229.197 3.79987 230.159L1.28387 227.976C2.27054 226.718 3.5902 225.756 5.24287 225.09C6.9202 224.399 8.75787 224.054 10.7559 224.054C12.5565 224.054 14.1229 224.35 15.4549 224.942C16.7869 225.509 17.8105 226.336 18.5259 227.421C19.2659 228.506 19.6359 229.789 19.6359 231.269C19.6359 232.108 19.5249 232.934 19.3029 233.748C19.0809 234.562 18.6615 235.425 18.0449 236.338C17.4282 237.251 16.5402 238.274 15.3809 239.409L5.98287 248.474L5.09487 247.031H20.7459V250.25H2.13487ZM34.3338 250.546C32.3112 250.546 30.4982 250.028 28.8948 248.992C27.3162 247.956 26.0582 246.451 25.1208 244.478C24.2082 242.505 23.7518 240.112 23.7518 237.3C23.7518 234.488 24.2082 232.095 25.1208 230.122C26.0582 228.149 27.3162 226.644 28.8948 225.608C30.4982 224.572 32.3112 224.054 34.3338 224.054C36.3318 224.054 38.1325 224.572 39.7358 225.608C41.3392 226.644 42.5972 228.149 43.5098 230.122C44.4225 232.095 44.8788 234.488 44.8788 237.3C44.8788 240.112 44.4225 242.505 43.5098 244.478C42.5972 246.451 41.3392 247.956 39.7358 248.992C38.1325 250.028 36.3318 250.546 34.3338 250.546ZM34.3338 247.253C35.6905 247.253 36.8745 246.883 37.8858 246.143C38.9218 245.403 39.7235 244.293 40.2908 242.813C40.8828 241.333 41.1788 239.495 41.1788 237.3C41.1788 235.105 40.8828 233.267 40.2908 231.787C39.7235 230.307 38.9218 229.197 37.8858 228.457C36.8745 227.717 35.6905 227.347 34.3338 227.347C32.9772 227.347 31.7808 227.717 30.7448 228.457C29.7088 229.197 28.8948 230.307 28.3028 231.787C27.7355 233.267 27.4518 235.105 27.4518 237.3C27.4518 239.495 27.7355 241.333 28.3028 242.813C28.8948 244.293 29.7088 245.403 30.7448 246.143C31.7808 246.883 32.9772 247.253 34.3338 247.253Z" fill="#292C33" fill-opacity="0.8"/>
<path d="M3.41758 307.25V304.734L13.9626 294.559C14.8999 293.671 15.5906 292.894 16.0346 292.228C16.5033 291.537 16.8116 290.908 16.9596 290.341C17.1323 289.749 17.2186 289.182 17.2186 288.639C17.2186 287.307 16.7499 286.259 15.8126 285.494C14.8753 284.729 13.5063 284.347 11.7056 284.347C10.3243 284.347 9.07858 284.581 7.96858 285.05C6.85858 285.494 5.89658 286.197 5.08258 287.159L2.56658 284.976C3.55325 283.718 4.87292 282.756 6.52558 282.09C8.20292 281.399 10.0406 281.054 12.0386 281.054C13.8393 281.054 15.4056 281.35 16.7376 281.942C18.0696 282.509 19.0933 283.336 19.8086 284.421C20.5486 285.506 20.9186 286.789 20.9186 288.269C20.9186 289.108 20.8076 289.934 20.5856 290.748C20.3636 291.562 19.9443 292.425 19.3276 293.338C18.7109 294.251 17.8229 295.274 16.6636 296.409L7.26558 305.474L6.37758 304.031H22.0286V307.25H3.41758ZM29.5115 307.25L40.5005 282.904L41.4625 284.569H26.0705L27.9205 282.756V289.194H24.3685V281.35H43.9045V283.866L33.4335 307.25H29.5115Z" fill="#292C33" fill-opacity="0.8"/>
<path d="M76.6295 193.25V168.83L78.2205 170.569H70.7835V167.35H80.2925V193.25H76.6295ZM85.5879 186.886V184.296L98.8339 167.35H102.83L89.6949 184.296L87.8079 183.704H108.491V186.886H85.5879ZM99.9809 193.25V186.886L100.092 183.704V178.08H103.57V193.25H99.9809Z" fill="#292C33" fill-opacity="0.8"/>
<path d="M73.609 250.25V247.734L84.154 237.559C85.0913 236.671 85.782 235.894 86.226 235.228C86.6947 234.537 87.003 233.908 87.151 233.341C87.3237 232.749 87.41 232.182 87.41 231.639C87.41 230.307 86.9413 229.259 86.004 228.494C85.0667 227.729 83.6977 227.347 81.897 227.347C80.5157 227.347 79.27 227.581 78.16 228.05C77.05 228.494 76.088 229.197 75.274 230.159L72.758 227.976C73.7447 226.718 75.0643 225.756 76.717 225.09C78.3943 224.399 80.232 224.054 82.23 224.054C84.0307 224.054 85.597 224.35 86.929 224.942C88.261 225.509 89.2847 226.336 90 227.421C90.74 228.506 91.11 229.789 91.11 231.269C91.11 232.108 90.999 232.934 90.777 233.748C90.555 234.562 90.1357 235.425 89.519 236.338C88.9023 237.251 88.0143 238.274 86.855 239.409L77.457 248.474L76.569 247.031H92.22V250.25H73.609ZM99.6281 250.25V225.83L101.219 227.569H93.7821V224.35H103.291V250.25H99.6281Z" fill="#292C33" fill-opacity="0.8"/>
<path d="M68.5504 307.25V304.734L79.0954 294.559C80.0327 293.671 80.7234 292.894 81.1674 292.228C81.6361 291.537 81.9444 290.908 82.0924 290.341C82.2651 289.749 82.3514 289.182 82.3514 288.639C82.3514 287.307 81.8827 286.259 80.9454 285.494C80.0081 284.729 78.6391 284.347 76.8384 284.347C75.4571 284.347 74.2114 284.581 73.1014 285.05C71.9914 285.494 71.0294 286.197 70.2154 287.159L67.6994 284.976C68.6861 283.718 70.0057 282.756 71.6584 282.09C73.3357 281.399 75.1734 281.054 77.1714 281.054C78.9721 281.054 80.5384 281.35 81.8704 281.942C83.2024 282.509 84.2261 283.336 84.9414 284.421C85.6814 285.506 86.0514 286.789 86.0514 288.269C86.0514 289.108 85.9404 289.934 85.7184 290.748C85.4964 291.562 85.0771 292.425 84.4604 293.338C83.8437 294.251 82.9557 295.274 81.7964 296.409L72.3984 305.474L71.5104 304.031H87.1614V307.25H68.5504ZM100.304 307.546C98.2078 307.546 96.3948 307.238 94.8655 306.621C93.3362 306.004 92.1522 305.129 91.3135 303.994C90.4748 302.835 90.0555 301.478 90.0555 299.924C90.0555 298.395 90.4502 297.1 91.2395 296.039C92.0535 294.954 93.2252 294.14 94.7545 293.597C96.2838 293.03 98.1338 292.746 100.304 292.746C102.475 292.746 104.325 293.03 105.854 293.597C107.408 294.14 108.592 294.954 109.406 296.039C110.22 297.124 110.627 298.419 110.627 299.924C110.627 301.478 110.208 302.835 109.369 303.994C108.531 305.129 107.334 306.004 105.78 306.621C104.226 307.238 102.401 307.546 100.304 307.546ZM100.304 304.549C102.376 304.549 103.992 304.13 105.151 303.291C106.335 302.428 106.927 301.268 106.927 299.813C106.927 298.382 106.335 297.26 105.151 296.446C103.992 295.607 102.376 295.188 100.304 295.188C98.2572 295.188 96.6538 295.607 95.4945 296.446C94.3352 297.26 93.7555 298.382 93.7555 299.813C93.7555 301.268 94.3352 302.428 95.4945 303.291C96.6538 304.13 98.2572 304.549 100.304 304.549ZM100.304 294.744C98.3312 294.744 96.6538 294.485 95.2725 293.967C93.8912 293.424 92.8305 292.66 92.0905 291.673C91.3505 290.662 90.9805 289.465 90.9805 288.084C90.9805 286.629 91.3628 285.383 92.1275 284.347C92.9168 283.286 94.0145 282.472 95.4205 281.905C96.8265 281.338 98.4545 281.054 100.304 281.054C102.179 281.054 103.819 281.338 105.225 281.905C106.631 282.472 107.729 283.286 108.518 284.347C109.308 285.383 109.702 286.629 109.702 288.084C109.702 289.465 109.332 290.662 108.592 291.673C107.852 292.66 106.779 293.424 105.373 293.967C103.967 294.485 102.278 294.744 100.304 294.744ZM100.304 292.376C102.105 292.376 103.511 292.006 104.522 291.266C105.558 290.526 106.076 289.515 106.076 288.232C106.076 286.925 105.546 285.901 104.485 285.161C103.425 284.421 102.031 284.051 100.304 284.051C98.5778 284.051 97.1965 284.421 96.1605 285.161C95.1492 285.901 94.6435 286.925 94.6435 288.232C94.6435 289.515 95.1368 290.526 96.1235 291.266C97.1348 292.006 98.5285 292.376 100.304 292.376Z" fill="#292C33" fill-opacity="0.8"/>
<path d="M84.9066 136.25L95.8956 111.904L96.8576 113.569H81.4656L83.3156 111.756V118.194H79.7636V110.35H99.2996V112.866L88.8286 136.25H84.9066Z" fill="#292C33" fill-opacity="0.8"/>
</g>
<defs>
<clipPath id="clip0_557_3453">
<rect width="431" height="362" fill="white"/>
</clipPath>
</defs>
</svg>
