<svg width="431" height="313" viewBox="0 0 431 313" fill="none" xmlns="http://www.w3.org/2000/svg">
<path d="M22.9564 20.7264H20.3476V3.36139H10.8906V20.7264H8.2002V1.32324H22.8749V20.7264H22.9564Z" fill="#B3B3B3"/>
<path d="M38.7725 20.7265H36.1636V14.612H29.7231V20.7265H27.1143V6.29639H29.7231V12.5739H36.1636V6.29639H38.7725V20.7265Z" fill="#B3B3B3"/>
<path d="M73 20.7264V1.32324H79.359C81.3972 1.32324 82.9462 1.73087 84.0875 2.62766C85.2289 3.52444 85.7996 4.82886 85.7996 6.5409C85.7996 7.35616 85.555 8.08989 85.0658 8.82363C84.5767 9.55736 83.8429 9.96499 83.0277 10.2911C84.3321 10.4541 85.3104 11.0248 86.0441 11.9216C86.7779 12.8184 87.1855 13.9598 87.1855 15.1826C87.1855 16.9762 86.6148 18.2806 85.4735 19.2589C84.3321 20.2373 82.7831 20.6449 80.745 20.6449H73V20.7264ZM75.6904 9.55736H79.9297C80.908 9.55736 81.7233 9.31278 82.294 8.7421C82.9462 8.17142 83.1907 7.43769 83.1907 6.45937C83.1907 5.39954 82.8646 4.6658 82.2124 4.09512C81.5602 3.60597 80.5819 3.27986 79.359 3.27986H75.6904V9.55736ZM75.6904 11.5955V18.6067H80.745C81.9678 18.6067 82.8646 18.2806 83.5168 17.71C84.1691 17.1393 84.4952 16.2425 84.4952 15.1826C84.4952 14.1228 84.1691 13.226 83.5168 12.5738C82.8646 11.9216 81.9678 11.5955 80.745 11.514H80.5819H75.6904V11.5955Z" fill="#B3B3B3"/>
<path d="M101.126 8.33453H96.3976V20.7265H93.7888V8.33453H89.0603V6.29639H101.126V8.33453Z" fill="#B3B3B3"/>
<path d="M150.512 14.5304C150.593 16.4055 149.941 17.9545 148.637 19.1773C147.332 20.4002 145.62 21.0524 143.419 21.0524C141.218 21.0524 139.424 20.2372 138.038 18.6882C136.652 17.1392 136 15.1826 136 12.7368V9.31271C136 6.94846 136.652 4.91031 138.038 3.36132C139.424 1.81233 141.218 0.99707 143.419 0.99707C145.62 0.99707 147.332 1.56775 148.637 2.70911C149.941 3.85048 150.593 5.39947 150.512 7.35609V7.43762H147.984C147.984 6.05168 147.577 4.99184 146.761 4.17658C145.946 3.36132 144.805 2.95369 143.337 2.95369C141.87 2.95369 140.729 3.52437 139.832 4.74726C138.935 5.88862 138.527 7.35609 138.527 9.14966V12.6553C138.527 14.4488 138.935 15.9163 139.832 17.0577C140.729 18.199 141.87 18.8512 143.337 18.8512C144.805 18.8512 145.946 18.4436 146.761 17.7099C147.577 16.8946 147.984 15.8348 147.984 14.4488H150.512V14.5304Z" fill="#B3B3B3"/>
<path d="M165.92 14.0413C165.92 16.161 165.431 17.7915 164.453 19.0959C163.474 20.4003 162.088 20.971 160.295 20.971C159.398 20.971 158.664 20.8079 157.93 20.5634C157.278 20.2373 156.708 19.8296 156.218 19.259V26.2702H153.61V6.29634H155.648L156.055 8.17143C156.545 7.4377 157.115 6.94854 157.849 6.62244C158.583 6.29634 159.398 6.05176 160.295 6.05176C162.088 6.05176 163.474 6.78549 164.453 8.17143C165.431 9.55737 165.92 11.4325 165.92 13.7967V14.0413ZM163.311 13.7967C163.311 12.1662 162.985 10.7803 162.333 9.80195C161.681 8.82364 160.702 8.25296 159.479 8.25296C158.746 8.25296 158.094 8.41601 157.523 8.74211C156.952 9.06822 156.545 9.55737 156.218 10.1281V17.1393C156.545 17.71 156.952 18.1991 157.523 18.5252C158.094 18.8513 158.746 19.0144 159.479 19.0144C160.702 19.0144 161.681 18.5252 162.333 17.6284C162.985 16.7317 163.311 15.5088 163.311 14.1228V13.7967Z" fill="#B3B3B3"/>
<path d="M215.43 1.32324V20.7264H212.821V12.6553C212.006 12.8999 211.191 13.063 210.375 13.226C209.56 13.3076 208.663 13.3891 207.522 13.3891C205.402 13.3891 203.772 12.8999 202.631 12.0031C201.489 11.1064 201 9.55736 201 7.43769V1.32324H203.609V7.43769C203.609 8.90515 203.935 9.88346 204.506 10.4541C205.158 11.0248 206.136 11.2694 207.441 11.2694C208.337 11.2694 209.234 11.1879 210.131 11.1064C210.946 10.9433 211.843 10.7802 212.74 10.5357V1.32324H215.43Z" fill="#B3B3B3"/>
<path d="M230.675 8.33453H225.947V20.7265H223.338V8.33453H218.61V6.29639H230.675V8.33453Z" fill="#B3B3B3"/>
<path d="M279.675 20.7264H277.066V3.36139H267.609V20.7264H265V1.32324H279.675V20.7264Z" fill="#B3B3B3"/>
<path d="M294.92 8.33453H290.192V20.7265H287.583V8.33453H282.854V6.29639H294.92V8.33453Z" fill="#B3B3B3"/>
<path d="M344.512 14.5301C344.593 16.4052 343.941 17.9542 342.637 19.1771C341.332 20.4 339.62 21.0522 337.419 21.0522C335.218 21.0522 333.424 20.2369 332.038 18.6879C330.652 17.139 330 15.1823 330 12.7366V9.31247C330 6.94822 330.652 4.91007 332.038 3.36108C333.424 1.81209 335.218 0.996826 337.419 0.996826C339.62 0.996826 341.332 1.56751 342.637 2.70887C343.941 3.85023 344.593 5.39922 344.512 7.35585V7.43737H341.984C341.984 6.05143 341.577 4.9916 340.761 4.17634C339.946 3.36108 338.805 2.95345 337.337 2.95345C335.87 2.95345 334.729 3.52413 333.832 4.74702C332.935 5.88838 332.527 7.35585 332.527 9.14942V12.655C332.527 14.4486 332.935 15.9161 333.832 17.0574C334.729 18.1988 335.87 18.851 337.337 18.851C338.805 18.851 339.946 18.4434 340.761 17.7096C341.577 16.8944 341.984 15.8345 341.984 14.4486H344.512V14.5301Z" fill="#B3B3B3"/>
<path d="M353.887 6.05149C355.762 6.05149 357.148 6.7037 358.208 8.08964C359.268 9.47558 359.838 11.1876 359.838 13.3888V13.7149C359.838 15.8346 359.268 17.6282 358.126 19.0141C356.985 20.4 355.436 21.0523 353.398 21.0523C351.36 21.0523 349.811 20.4 348.669 19.0141C347.528 17.6282 346.957 15.9161 346.957 13.7149V13.3888C346.957 13.3073 346.957 13.2258 346.957 13.2258C346.957 13.1442 346.957 13.1442 346.957 13.0627V9.96473C346.957 7.19285 347.528 5.23623 348.588 3.93182C349.648 2.6274 351.278 1.97519 353.398 1.81214C354.621 1.73062 355.599 1.56756 356.251 1.32299C356.903 1.07841 357.23 0.670779 357.23 0.100098H359.268V0.181624C359.349 1.56756 358.86 2.54587 357.882 3.11656C356.903 3.68724 355.517 4.01334 353.642 4.01334C352.256 4.01334 351.197 4.42097 350.381 5.1547C349.566 5.88844 349.158 6.94827 349.158 8.33421V8.41574C349.648 7.76353 350.381 7.19285 351.197 6.78522C352.012 6.37759 352.99 6.05149 353.887 6.05149ZM353.398 8.08964C352.175 8.08964 351.197 8.57879 350.544 9.5571C349.892 10.5354 349.566 11.8398 349.566 13.3073V13.6334C349.566 15.1824 349.892 16.4053 350.544 17.3836C351.197 18.3619 352.175 18.8511 353.398 18.8511C354.621 18.8511 355.599 18.3619 356.251 17.3836C356.903 16.4053 357.23 15.1009 357.23 13.6334V13.3073C357.23 11.7583 356.903 10.5354 356.251 9.5571C355.599 8.57879 354.621 8.08964 353.398 8.08964Z" fill="#B3B3B3"/>
<path d="M394 20.7264V1.32324H400.359C402.397 1.32324 403.946 1.73087 405.088 2.62766C406.229 3.52444 406.8 4.82886 406.8 6.5409C406.8 7.35616 406.555 8.08989 406.066 8.82363C405.577 9.55736 404.843 9.96499 404.028 10.3726C405.332 10.5357 406.31 11.1064 407.044 12.0031C407.778 12.8999 408.186 14.0413 408.186 15.2642C408.186 17.0577 407.615 18.3622 406.473 19.3405C405.332 20.3188 403.783 20.7264 401.745 20.7264H394ZM396.69 9.55736H400.93C401.908 9.55736 402.723 9.31278 403.294 8.7421C403.946 8.17142 404.191 7.43769 404.191 6.45937C404.191 5.39954 403.865 4.6658 403.212 4.09512C402.56 3.60597 401.582 3.27986 400.359 3.27986H396.69V9.55736ZM396.69 11.5955V18.6067H401.745C402.968 18.6067 403.865 18.2806 404.517 17.71C405.169 17.1393 405.495 16.2425 405.495 15.1826C405.495 14.1228 405.169 13.226 404.517 12.5738C403.865 11.9216 402.968 11.5955 401.745 11.514H401.582H396.69V11.5955Z" fill="#B3B3B3"/>
<path d="M416.745 18.9326C417.561 18.9326 418.294 18.688 418.865 18.1174C419.436 17.5467 419.762 16.8945 419.762 16.1607H422.126V16.2423C422.126 17.4652 421.637 18.6065 420.496 19.5848C419.354 20.5631 418.131 21.0523 416.664 21.0523C414.626 21.0523 413.077 20.4001 411.935 19.0141C410.794 17.6282 410.305 15.9162 410.305 13.878V13.3073C410.305 11.2692 410.876 9.55714 411.935 8.1712C413.077 6.78526 414.626 6.13306 416.582 6.13306C418.213 6.13306 419.517 6.62221 420.496 7.60052C421.474 8.57883 422.045 9.80172 421.963 11.2692V11.3507H419.599C419.599 10.4539 419.273 9.7202 418.702 9.06799C418.131 8.41578 417.398 8.1712 416.501 8.1712C415.196 8.1712 414.3 8.66036 413.647 9.63867C413.077 10.617 412.751 11.8399 412.751 13.3073V13.878C412.751 15.3455 413.077 16.5684 413.647 17.5467C414.544 18.4435 415.441 18.9326 416.745 18.9326Z" fill="#B3B3B3"/>
<path d="M347.105 61.978C352.285 62.459 354.912 65.382 354.912 69.378C354.912 73.744 351.693 77.296 345.107 77.296C341.407 77.296 337.781 76.112 335.598 74.151L337.3 71.228C339.039 72.856 341.925 74.003 345.107 74.003C348.992 74.003 351.212 72.227 351.212 69.415C351.212 66.677 349.251 64.901 344.811 64.901H342.739V62.311L349.251 54.319H336.782V51.1H353.876V53.616L347.105 61.978Z" fill="#292C33"/>
<path d="M330.144 135V110.58L331.735 112.319H324.298V109.1H333.807V135H330.144ZM350.054 135.296C348.031 135.296 346.218 134.778 344.615 133.742C343.036 132.706 341.778 131.201 340.841 129.228C339.928 127.255 339.472 124.862 339.472 122.05C339.472 119.238 339.928 116.845 340.841 114.872C341.778 112.899 343.036 111.394 344.615 110.358C346.218 109.322 348.031 108.804 350.054 108.804C352.052 108.804 353.853 109.322 355.456 110.358C357.059 111.394 358.317 112.899 359.23 114.872C360.143 116.845 360.599 119.238 360.599 122.05C360.599 124.862 360.143 127.255 359.23 129.228C358.317 131.201 357.059 132.706 355.456 133.742C353.853 134.778 352.052 135.296 350.054 135.296ZM350.054 132.003C351.411 132.003 352.595 131.633 353.606 130.893C354.642 130.153 355.444 129.043 356.011 127.563C356.603 126.083 356.899 124.245 356.899 122.05C356.899 119.855 356.603 118.017 356.011 116.537C355.444 115.057 354.642 113.947 353.606 113.207C352.595 112.467 351.411 112.097 350.054 112.097C348.697 112.097 347.501 112.467 346.465 113.207C345.429 113.947 344.615 115.057 344.023 116.537C343.456 118.017 343.172 119.855 343.172 122.05C343.172 124.245 343.456 126.083 344.023 127.563C344.615 129.043 345.429 130.153 346.465 130.893C347.501 131.633 348.697 132.003 350.054 132.003Z" fill="#292C33"/>
<path d="M331.427 192V167.58L333.018 169.319H325.581V166.1H335.09V192H331.427ZM345.232 192L356.221 167.654L357.183 169.319H341.791L343.641 167.506V173.944H340.089V166.1H359.625V168.616L349.154 192H345.232Z" fill="#292C33"/>
<path d="M321.92 249V246.484L332.465 236.309C333.403 235.421 334.093 234.644 334.537 233.978C335.006 233.287 335.314 232.658 335.462 232.091C335.635 231.499 335.721 230.932 335.721 230.389C335.721 229.057 335.253 228.009 334.315 227.244C333.378 226.479 332.009 226.097 330.208 226.097C328.827 226.097 327.581 226.331 326.471 226.8C325.361 227.244 324.399 227.947 323.585 228.909L321.069 226.726C322.056 225.468 323.376 224.506 325.028 223.84C326.706 223.149 328.543 222.804 330.541 222.804C332.342 222.804 333.908 223.1 335.24 223.692C336.572 224.259 337.596 225.086 338.311 226.171C339.051 227.256 339.421 228.539 339.421 230.019C339.421 230.858 339.31 231.684 339.088 232.498C338.866 233.312 338.447 234.175 337.83 235.088C337.214 236.001 336.326 237.024 335.166 238.159L325.768 247.224L324.88 245.781H340.531V249H321.92ZM342.481 242.636V240.046L355.727 223.1H359.723L346.588 240.046L344.701 239.454H365.384V242.636H342.481ZM356.874 249V242.636L356.985 239.454V233.83H360.463V249H356.874Z" fill="#292C33"/>
<path d="M415.774 67.454V70.636H410.853V77H407.264V70.636H392.871V68.046L406.117 51.1H410.113L397.422 67.454H407.375V61.83H410.853V67.454H415.774Z" fill="#292C33"/>
<path d="M398.411 135V110.58L400.002 112.319H392.565V109.1H402.074V135H398.411ZM412.105 135V110.58L413.696 112.319H406.259V109.1H415.768V135H412.105Z" fill="#292C33"/>
<path d="M393.352 192V167.58L394.943 169.319H387.506V166.1H397.015V192H393.352ZM412.781 192.296C410.685 192.296 408.872 191.988 407.342 191.371C405.813 190.754 404.629 189.879 403.79 188.744C402.952 187.585 402.532 186.228 402.532 184.674C402.532 183.145 402.927 181.85 403.716 180.789C404.53 179.704 405.702 178.89 407.231 178.347C408.761 177.78 410.611 177.496 412.781 177.496C414.952 177.496 416.802 177.78 418.331 178.347C419.885 178.89 421.069 179.704 421.883 180.789C422.697 181.874 423.104 183.169 423.104 184.674C423.104 186.228 422.685 187.585 421.846 188.744C421.008 189.879 419.811 190.754 418.257 191.371C416.703 191.988 414.878 192.296 412.781 192.296ZM412.781 189.299C414.853 189.299 416.469 188.88 417.628 188.041C418.812 187.178 419.404 186.018 419.404 184.563C419.404 183.132 418.812 182.01 417.628 181.196C416.469 180.357 414.853 179.938 412.781 179.938C410.734 179.938 409.131 180.357 407.971 181.196C406.812 182.01 406.232 183.132 406.232 184.563C406.232 186.018 406.812 187.178 407.971 188.041C409.131 188.88 410.734 189.299 412.781 189.299ZM412.781 179.494C410.808 179.494 409.131 179.235 407.749 178.717C406.368 178.174 405.307 177.41 404.567 176.423C403.827 175.412 403.457 174.215 403.457 172.834C403.457 171.379 403.84 170.133 404.604 169.097C405.394 168.036 406.491 167.222 407.897 166.655C409.303 166.088 410.931 165.804 412.781 165.804C414.656 165.804 416.296 166.088 417.702 166.655C419.108 167.222 420.206 168.036 420.995 169.097C421.785 170.133 422.179 171.379 422.179 172.834C422.179 174.215 421.809 175.412 421.069 176.423C420.329 177.41 419.256 178.174 417.85 178.717C416.444 179.235 414.755 179.494 412.781 179.494ZM412.781 177.126C414.582 177.126 415.988 176.756 416.999 176.016C418.035 175.276 418.553 174.265 418.553 172.982C418.553 171.675 418.023 170.651 416.962 169.911C415.902 169.171 414.508 168.801 412.781 168.801C411.055 168.801 409.673 169.171 408.637 169.911C407.626 170.651 407.12 171.675 407.12 172.982C407.12 174.265 407.614 175.276 408.6 176.016C409.612 176.756 411.005 177.126 412.781 177.126Z" fill="#292C33"/>
<path d="M386.086 249V246.484L396.631 236.309C397.568 235.421 398.259 234.644 398.703 233.978C399.171 233.287 399.48 232.658 399.628 232.091C399.8 231.499 399.887 230.932 399.887 230.389C399.887 229.057 399.418 228.009 398.481 227.244C397.543 226.479 396.174 226.097 394.374 226.097C392.992 226.097 391.747 226.331 390.637 226.8C389.527 227.244 388.565 227.947 387.751 228.909L385.235 226.726C386.221 225.468 387.541 224.506 389.194 223.84C390.871 223.149 392.709 222.804 394.707 222.804C396.507 222.804 398.074 223.1 399.406 223.692C400.738 224.259 401.761 225.086 402.477 226.171C403.217 227.256 403.587 228.539 403.587 230.019C403.587 230.858 403.476 231.684 403.254 232.498C403.032 233.312 402.612 234.175 401.996 235.088C401.379 236.001 400.491 237.024 399.332 238.159L389.934 247.224L389.046 245.781H404.697V249H386.086ZM416.101 249.296C414.276 249.296 412.5 249.012 410.773 248.445C409.071 247.878 407.677 247.113 406.592 246.151L408.294 243.228C409.157 244.042 410.28 244.708 411.661 245.226C413.042 245.744 414.51 246.003 416.064 246.003C418.037 246.003 419.554 245.584 420.615 244.745C421.676 243.906 422.206 242.784 422.206 241.378C422.206 240.416 421.972 239.577 421.503 238.862C421.034 238.147 420.22 237.604 419.061 237.234C417.926 236.839 416.36 236.642 414.362 236.642H408.479L409.848 223.1H424.463V226.319H411.217L413.141 224.506L412.068 235.199L410.144 233.423H415.139C417.729 233.423 419.813 233.756 421.392 234.422C422.971 235.088 424.118 236.013 424.833 237.197C425.548 238.356 425.906 239.701 425.906 241.23C425.906 242.71 425.548 244.067 424.833 245.3C424.118 246.509 423.032 247.483 421.577 248.223C420.146 248.938 418.321 249.296 416.101 249.296Z" fill="#292C33"/>
<path d="M66.6548 306V303.484L77.1998 293.309C78.1372 292.421 78.8278 291.644 79.2718 290.978C79.7405 290.287 80.0488 289.658 80.1968 289.091C80.3695 288.499 80.4558 287.932 80.4558 287.389C80.4558 286.057 79.9872 285.009 79.0498 284.244C78.1125 283.479 76.7435 283.097 74.9428 283.097C73.5615 283.097 72.3158 283.331 71.2058 283.8C70.0958 284.244 69.1338 284.947 68.3198 285.909L65.8038 283.726C66.7905 282.468 68.1102 281.506 69.7628 280.84C71.4402 280.149 73.2778 279.804 75.2758 279.804C77.0765 279.804 78.6428 280.1 79.9748 280.692C81.3068 281.259 82.3305 282.086 83.0458 283.171C83.7858 284.256 84.1558 285.539 84.1558 287.019C84.1558 287.858 84.0448 288.684 83.8228 289.498C83.6008 290.312 83.1815 291.175 82.5648 292.088C81.9482 293.001 81.0602 294.024 79.9008 295.159L70.5028 304.224L69.6148 302.781H85.2658V306H66.6548ZM92.7488 306L103.738 281.654L104.7 283.319H89.3078L91.1578 281.506V287.944H87.6058V280.1H107.142V282.616L96.6708 306H92.7488Z" fill="#292C33"/>
<path d="M130.105 306V303.484L140.65 293.309C141.587 292.421 142.278 291.644 142.722 290.978C143.191 290.287 143.499 289.658 143.647 289.091C143.82 288.499 143.906 287.932 143.906 287.389C143.906 286.057 143.437 285.009 142.5 284.244C141.563 283.479 140.194 283.097 138.393 283.097C137.012 283.097 135.766 283.331 134.656 283.8C133.546 284.244 132.584 284.947 131.77 285.909L129.254 283.726C130.241 282.468 131.56 281.506 133.213 280.84C134.89 280.149 136.728 279.804 138.726 279.804C140.527 279.804 142.093 280.1 143.425 280.692C144.757 281.259 145.781 282.086 146.496 283.171C147.236 284.256 147.606 285.539 147.606 287.019C147.606 287.858 147.495 288.684 147.273 289.498C147.051 290.312 146.632 291.175 146.015 292.088C145.398 293.001 144.51 294.024 143.351 295.159L133.953 304.224L133.065 302.781H148.716V306H130.105ZM161.859 306.296C159.763 306.296 157.95 305.988 156.42 305.371C154.891 304.754 153.707 303.879 152.868 302.744C152.03 301.585 151.61 300.228 151.61 298.674C151.61 297.145 152.005 295.85 152.794 294.789C153.608 293.704 154.78 292.89 156.309 292.347C157.839 291.78 159.689 291.496 161.859 291.496C164.03 291.496 165.88 291.78 167.409 292.347C168.963 292.89 170.147 293.704 170.961 294.789C171.775 295.874 172.182 297.169 172.182 298.674C172.182 300.228 171.763 301.585 170.924 302.744C170.086 303.879 168.889 304.754 167.335 305.371C165.781 305.988 163.956 306.296 161.859 306.296ZM161.859 303.299C163.931 303.299 165.547 302.88 166.706 302.041C167.89 301.178 168.482 300.018 168.482 298.563C168.482 297.132 167.89 296.01 166.706 295.196C165.547 294.357 163.931 293.938 161.859 293.938C159.812 293.938 158.209 294.357 157.049 295.196C155.89 296.01 155.31 297.132 155.31 298.563C155.31 300.018 155.89 301.178 157.049 302.041C158.209 302.88 159.812 303.299 161.859 303.299ZM161.859 293.494C159.886 293.494 158.209 293.235 156.827 292.717C155.446 292.174 154.385 291.41 153.645 290.423C152.905 289.412 152.535 288.215 152.535 286.834C152.535 285.379 152.918 284.133 153.682 283.097C154.472 282.036 155.569 281.222 156.975 280.655C158.381 280.088 160.009 279.804 161.859 279.804C163.734 279.804 165.374 280.088 166.78 280.655C168.186 281.222 169.284 282.036 170.073 283.097C170.863 284.133 171.257 285.379 171.257 286.834C171.257 288.215 170.887 289.412 170.147 290.423C169.407 291.41 168.334 292.174 166.928 292.717C165.522 293.235 163.833 293.494 161.859 293.494ZM161.859 291.126C163.66 291.126 165.066 290.756 166.077 290.016C167.113 289.276 167.631 288.265 167.631 286.982C167.631 285.675 167.101 284.651 166.04 283.911C164.98 283.171 163.586 282.801 161.859 282.801C160.133 282.801 158.751 283.171 157.715 283.911C156.704 284.651 156.198 285.675 156.198 286.982C156.198 288.265 156.692 289.276 157.678 290.016C158.69 290.756 160.083 291.126 161.859 291.126Z" fill="#292C33"/>
<path d="M194.396 306V303.484L204.941 293.309C205.878 292.421 206.569 291.644 207.013 290.978C207.482 290.287 207.79 289.658 207.938 289.091C208.111 288.499 208.197 287.932 208.197 287.389C208.197 286.057 207.728 285.009 206.791 284.244C205.854 283.479 204.485 283.097 202.684 283.097C201.303 283.097 200.057 283.331 198.947 283.8C197.837 284.244 196.875 284.947 196.061 285.909L193.545 283.726C194.532 282.468 195.851 281.506 197.504 280.84C199.181 280.149 201.019 279.804 203.017 279.804C204.818 279.804 206.384 280.1 207.716 280.692C209.048 281.259 210.072 282.086 210.787 283.171C211.527 284.256 211.897 285.539 211.897 287.019C211.897 287.858 211.786 288.684 211.564 289.498C211.342 290.312 210.923 291.175 210.306 292.088C209.689 293.001 208.801 294.024 207.642 295.159L198.244 304.224L197.356 302.781H213.007V306H194.396ZM224.448 279.804C226.791 279.804 228.765 280.31 230.368 281.321C231.996 282.332 233.229 283.8 234.068 285.724C234.907 287.623 235.326 289.954 235.326 292.717C235.326 295.652 234.808 298.131 233.772 300.154C232.736 302.177 231.305 303.706 229.48 304.742C227.655 305.778 225.521 306.296 223.079 306.296C221.87 306.296 220.699 306.173 219.564 305.926C218.454 305.679 217.48 305.297 216.641 304.779L218.047 301.893C218.738 302.337 219.502 302.658 220.341 302.855C221.204 303.028 222.105 303.114 223.042 303.114C225.657 303.114 227.741 302.3 229.295 300.672C230.849 299.019 231.626 296.577 231.626 293.346C231.626 292.828 231.601 292.211 231.552 291.496C231.503 290.781 231.392 290.078 231.219 289.387L232.44 290.645C232.095 291.78 231.515 292.742 230.701 293.531C229.912 294.296 228.95 294.875 227.815 295.27C226.705 295.64 225.484 295.825 224.152 295.825C222.45 295.825 220.933 295.504 219.601 294.863C218.269 294.222 217.221 293.321 216.456 292.162C215.691 290.978 215.309 289.584 215.309 287.981C215.309 286.304 215.704 284.861 216.493 283.652C217.307 282.419 218.405 281.469 219.786 280.803C221.192 280.137 222.746 279.804 224.448 279.804ZM224.596 282.801C223.486 282.801 222.499 283.011 221.636 283.43C220.773 283.849 220.094 284.429 219.601 285.169C219.132 285.909 218.898 286.797 218.898 287.833C218.898 289.362 219.428 290.583 220.489 291.496C221.55 292.384 222.98 292.828 224.781 292.828C225.965 292.828 227.001 292.606 227.889 292.162C228.802 291.718 229.505 291.114 229.998 290.349C230.516 289.584 230.775 288.733 230.775 287.796C230.775 286.883 230.541 286.057 230.072 285.317C229.603 284.577 228.913 283.973 228 283.504C227.087 283.035 225.953 282.801 224.596 282.801Z" fill="#292C33"/>
<path d="M22.6593 135.296C20.834 135.296 19.058 135.012 17.3313 134.445C15.6293 133.878 14.2357 133.113 13.1503 132.151L14.8523 129.228C15.7157 130.042 16.838 130.708 18.2193 131.226C19.6007 131.744 21.0683 132.003 22.6223 132.003C24.5957 132.003 26.1127 131.584 27.1733 130.745C28.234 129.906 28.7643 128.784 28.7643 127.378C28.7643 126.416 28.53 125.577 28.0613 124.862C27.5927 124.147 26.7787 123.604 25.6193 123.234C24.4847 122.839 22.9183 122.642 20.9203 122.642H15.0373L16.4063 109.1H31.0213V112.319H17.7753L19.6993 110.506L18.6263 121.199L16.7023 119.423H21.6973C24.2873 119.423 26.3717 119.756 27.9503 120.422C29.529 121.088 30.676 122.013 31.3913 123.197C32.1067 124.356 32.4643 125.701 32.4643 127.23C32.4643 128.71 32.1067 130.067 31.3913 131.3C30.676 132.509 29.5907 133.483 28.1353 134.223C26.7047 134.938 24.8793 135.296 22.6593 135.296Z" fill="#292C33"/>
<path d="M11.816 192V167.58L13.407 169.319H5.97004V166.1H15.479V192H11.816ZM20.7374 192V189.484L31.2824 179.309C32.2197 178.421 32.9104 177.644 33.3544 176.978C33.823 176.287 34.1314 175.658 34.2794 175.091C34.452 174.499 34.5384 173.932 34.5384 173.389C34.5384 172.057 34.0697 171.009 33.1324 170.244C32.195 169.479 30.826 169.097 29.0254 169.097C27.644 169.097 26.3984 169.331 25.2884 169.8C24.1784 170.244 23.2164 170.947 22.4024 171.909L19.8864 169.726C20.873 168.468 22.1927 167.506 23.8454 166.84C25.5227 166.149 27.3604 165.804 29.3584 165.804C31.159 165.804 32.7254 166.1 34.0574 166.692C35.3894 167.259 36.413 168.086 37.1284 169.171C37.8684 170.256 38.2384 171.539 38.2384 173.019C38.2384 173.858 38.1274 174.684 37.9054 175.498C37.6834 176.312 37.264 177.175 36.6474 178.088C36.0307 179.001 35.1427 180.024 33.9834 181.159L24.5854 190.224L23.6974 188.781H39.3484V192H20.7374Z" fill="#292C33"/>
<path d="M11.0212 249V224.58L12.6122 226.319H5.17519V223.1H14.6842V249H11.0212ZM28.7485 222.804C31.0919 222.804 33.0652 223.31 34.6685 224.321C36.2965 225.332 37.5299 226.8 38.3685 228.724C39.2072 230.623 39.6265 232.954 39.6265 235.717C39.6265 238.652 39.1085 241.131 38.0725 243.154C37.0365 245.177 35.6059 246.706 33.7805 247.742C31.9552 248.778 29.8215 249.296 27.3795 249.296C26.1709 249.296 24.9992 249.173 23.8645 248.926C22.7545 248.679 21.7802 248.297 20.9415 247.779L22.3475 244.893C23.0382 245.337 23.8029 245.658 24.6415 245.855C25.5049 246.028 26.4052 246.114 27.3425 246.114C29.9572 246.114 32.0415 245.3 33.5955 243.672C35.1495 242.019 35.9265 239.577 35.9265 236.346C35.9265 235.828 35.9019 235.211 35.8525 234.496C35.8032 233.781 35.6922 233.078 35.5195 232.387L36.7405 233.645C36.3952 234.78 35.8155 235.742 35.0015 236.531C34.2122 237.296 33.2502 237.875 32.1155 238.27C31.0055 238.64 29.7845 238.825 28.4525 238.825C26.7505 238.825 25.2335 238.504 23.9015 237.863C22.5695 237.222 21.5212 236.321 20.7565 235.162C19.9919 233.978 19.6095 232.584 19.6095 230.981C19.6095 229.304 20.0042 227.861 20.7935 226.652C21.6075 225.419 22.7052 224.469 24.0865 223.803C25.4925 223.137 27.0465 222.804 28.7485 222.804ZM28.8965 225.801C27.7865 225.801 26.7999 226.011 25.9365 226.43C25.0732 226.849 24.3949 227.429 23.9015 228.169C23.4329 228.909 23.1985 229.797 23.1985 230.833C23.1985 232.362 23.7289 233.583 24.7895 234.496C25.8502 235.384 27.2809 235.828 29.0815 235.828C30.2655 235.828 31.3015 235.606 32.1895 235.162C33.1022 234.718 33.8052 234.114 34.2985 233.349C34.8165 232.584 35.0755 231.733 35.0755 230.796C35.0755 229.883 34.8412 229.057 34.3725 228.317C33.9039 227.577 33.2132 226.973 32.3005 226.504C31.3879 226.035 30.2532 225.801 28.8965 225.801Z" fill="#292C33"/>
<path d="M2.49044 306V303.484L13.0354 293.309C13.9728 292.421 14.6634 291.644 15.1074 290.978C15.5761 290.287 15.8844 289.658 16.0324 289.091C16.2051 288.499 16.2914 287.932 16.2914 287.389C16.2914 286.057 15.8228 285.009 14.8854 284.244C13.9481 283.479 12.5791 283.097 10.7784 283.097C9.3971 283.097 8.15144 283.331 7.04144 283.8C5.93144 284.244 4.96944 284.947 4.15544 285.909L1.63944 283.726C2.6261 282.468 3.94577 281.506 5.59844 280.84C7.27577 280.149 9.11344 279.804 11.1114 279.804C12.9121 279.804 14.4784 280.1 15.8104 280.692C17.1424 281.259 18.1661 282.086 18.8814 283.171C19.6214 284.256 19.9914 285.539 19.9914 287.019C19.9914 287.858 19.8804 288.684 19.6584 289.498C19.4364 290.312 19.0171 291.175 18.4004 292.088C17.7838 293.001 16.8958 294.024 15.7364 295.159L6.33844 304.224L5.45044 302.781H21.1014V306H2.49044ZM34.9854 306.296C32.6914 306.296 30.7304 305.79 29.1024 304.779C27.4744 303.768 26.2287 302.312 25.3654 300.413C24.5267 298.489 24.1074 296.146 24.1074 293.383C24.1074 290.448 24.6254 287.969 25.6614 285.946C26.6974 283.923 28.1404 282.394 29.9904 281.358C31.8404 280.322 33.9617 279.804 36.3544 279.804C37.5877 279.804 38.7594 279.927 39.8694 280.174C41.0041 280.421 41.9784 280.803 42.7924 281.321L41.3864 284.207C40.7204 283.738 39.9557 283.418 39.0924 283.245C38.2537 283.072 37.3657 282.986 36.4284 282.986C33.7891 282.986 31.6924 283.812 30.1384 285.465C28.5844 287.093 27.8074 289.523 27.8074 292.754C27.8074 293.272 27.8321 293.889 27.8814 294.604C27.9307 295.319 28.0541 296.022 28.2514 296.713L26.9934 295.455C27.3634 294.32 27.9431 293.371 28.7324 292.606C29.5464 291.817 30.5084 291.237 31.6184 290.867C32.7531 290.472 33.9741 290.275 35.2814 290.275C37.0081 290.275 38.5374 290.596 39.8694 291.237C41.2014 291.878 42.2497 292.791 43.0144 293.975C43.7791 295.134 44.1614 296.516 44.1614 298.119C44.1614 299.772 43.7544 301.215 42.9404 302.448C42.1264 303.681 41.0287 304.631 39.6474 305.297C38.2661 305.963 36.7121 306.296 34.9854 306.296ZM34.8374 303.299C35.9721 303.299 36.9587 303.089 37.7974 302.67C38.6607 302.251 39.3391 301.671 39.8324 300.931C40.3257 300.166 40.5724 299.278 40.5724 298.267C40.5724 296.738 40.0421 295.529 38.9814 294.641C37.9207 293.728 36.4777 293.272 34.6524 293.272C33.4684 293.272 32.4324 293.494 31.5444 293.938C30.6564 294.382 29.9534 294.986 29.4354 295.751C28.9421 296.491 28.6954 297.342 28.6954 298.304C28.6954 299.192 28.9297 300.018 29.3984 300.783C29.8671 301.523 30.5577 302.127 31.4704 302.596C32.3831 303.065 33.5054 303.299 34.8374 303.299Z" fill="#292C33"/>
<path d="M88.1835 135.296C85.8895 135.296 83.9285 134.79 82.3005 133.779C80.6725 132.768 79.4269 131.312 78.5635 129.413C77.7249 127.489 77.3055 125.146 77.3055 122.383C77.3055 119.448 77.8235 116.969 78.8595 114.946C79.8955 112.923 81.3385 111.394 83.1885 110.358C85.0385 109.322 87.1599 108.804 89.5525 108.804C90.7859 108.804 91.9575 108.927 93.0675 109.174C94.2022 109.421 95.1765 109.803 95.9905 110.321L94.5845 113.207C93.9185 112.738 93.1539 112.418 92.2905 112.245C91.4519 112.072 90.5639 111.986 89.6265 111.986C86.9872 111.986 84.8905 112.812 83.3365 114.465C81.7825 116.093 81.0055 118.523 81.0055 121.754C81.0055 122.272 81.0302 122.889 81.0795 123.604C81.1289 124.319 81.2522 125.022 81.4495 125.713L80.1915 124.455C80.5615 123.32 81.1412 122.371 81.9305 121.606C82.7445 120.817 83.7065 120.237 84.8165 119.867C85.9512 119.472 87.1722 119.275 88.4795 119.275C90.2062 119.275 91.7355 119.596 93.0675 120.237C94.3995 120.878 95.4479 121.791 96.2125 122.975C96.9772 124.134 97.3595 125.516 97.3595 127.119C97.3595 128.772 96.9525 130.215 96.1385 131.448C95.3245 132.681 94.2269 133.631 92.8455 134.297C91.4642 134.963 89.9102 135.296 88.1835 135.296ZM88.0355 132.299C89.1702 132.299 90.1569 132.089 90.9955 131.67C91.8589 131.251 92.5372 130.671 93.0305 129.931C93.5239 129.166 93.7705 128.278 93.7705 127.267C93.7705 125.738 93.2402 124.529 92.1795 123.641C91.1189 122.728 89.6759 122.272 87.8505 122.272C86.6665 122.272 85.6305 122.494 84.7425 122.938C83.8545 123.382 83.1515 123.986 82.6335 124.751C82.1402 125.491 81.8935 126.342 81.8935 127.304C81.8935 128.192 82.1279 129.018 82.5965 129.783C83.0652 130.523 83.7559 131.127 84.6685 131.596C85.5812 132.065 86.7035 132.299 88.0355 132.299Z" fill="#292C33"/>
<path d="M75.6554 192V167.58L77.2464 169.319H69.8094V166.1H79.3184V192H75.6554ZM92.9017 192.296C91.0764 192.296 89.3004 192.012 87.5737 191.445C85.8717 190.878 84.4781 190.113 83.3927 189.151L85.0947 186.228C85.9581 187.042 87.0804 187.708 88.4617 188.226C89.8431 188.744 91.3231 189.003 92.9017 189.003C94.8257 189.003 96.3181 188.596 97.3787 187.782C98.4641 186.943 99.0067 185.821 99.0067 184.415C99.0067 183.058 98.4887 181.973 97.4527 181.159C96.4414 180.32 94.8257 179.901 92.6057 179.901H90.5337V177.311L98.2297 167.839L98.7477 169.319H84.5767V166.1H101.671V168.616L94.0117 178.051L92.0877 176.904H93.3087C96.4414 176.904 98.7847 177.607 100.339 179.013C101.917 180.419 102.707 182.207 102.707 184.378C102.707 185.833 102.349 187.165 101.634 188.374C100.918 189.583 99.8331 190.545 98.3777 191.26C96.9471 191.951 95.1217 192.296 92.9017 192.296Z" fill="#292C33"/>
<path d="M65.3722 249V246.484L75.9172 236.309C76.8545 235.421 77.5452 234.644 77.9892 233.978C78.4579 233.287 78.7662 232.658 78.9142 232.091C79.0869 231.499 79.1732 230.932 79.1732 230.389C79.1732 229.057 78.7045 228.009 77.7672 227.244C76.8299 226.479 75.4609 226.097 73.6602 226.097C72.2789 226.097 71.0332 226.331 69.9232 226.8C68.8132 227.244 67.8512 227.947 67.0372 228.909L64.5212 226.726C65.5079 225.468 66.8275 224.506 68.4802 223.84C70.1575 223.149 71.9952 222.804 73.9932 222.804C75.7939 222.804 77.3602 223.1 78.6922 223.692C80.0242 224.259 81.0479 225.086 81.7632 226.171C82.5032 227.256 82.8732 228.539 82.8732 230.019C82.8732 230.858 82.7622 231.684 82.5402 232.498C82.3182 233.312 81.8989 234.175 81.2822 235.088C80.6655 236.001 79.7775 237.024 78.6182 238.159L69.2202 247.224L68.3322 245.781H83.9832V249H65.3722ZM97.5711 249.296C95.5485 249.296 93.7355 248.778 92.1321 247.742C90.5535 246.706 89.2955 245.201 88.3581 243.228C87.4455 241.255 86.9891 238.862 86.9891 236.05C86.9891 233.238 87.4455 230.845 88.3581 228.872C89.2955 226.899 90.5535 225.394 92.1321 224.358C93.7355 223.322 95.5485 222.804 97.5711 222.804C99.5691 222.804 101.37 223.322 102.973 224.358C104.576 225.394 105.834 226.899 106.747 228.872C107.66 230.845 108.116 233.238 108.116 236.05C108.116 238.862 107.66 241.255 106.747 243.228C105.834 245.201 104.576 246.706 102.973 247.742C101.37 248.778 99.5691 249.296 97.5711 249.296ZM97.5711 246.003C98.9278 246.003 100.112 245.633 101.123 244.893C102.159 244.153 102.961 243.043 103.528 241.563C104.12 240.083 104.416 238.245 104.416 236.05C104.416 233.855 104.12 232.017 103.528 230.537C102.961 229.057 102.159 227.947 101.123 227.207C100.112 226.467 98.9278 226.097 97.5711 226.097C96.2145 226.097 95.0181 226.467 93.9821 227.207C92.9461 227.947 92.1321 229.057 91.5401 230.537C90.9728 232.017 90.6891 233.855 90.6891 236.05C90.6891 238.245 90.9728 240.083 91.5401 241.563C92.1321 243.043 92.9461 244.153 93.9821 244.893C95.0181 245.633 96.2145 246.003 97.5711 246.003Z" fill="#292C33"/>
<path d="M146.461 135L157.45 110.654L158.412 112.319H143.02L144.87 110.506V116.944H141.318V109.1H160.854V111.616L150.383 135H146.461Z" fill="#292C33"/>
<path d="M138.184 192V167.58L139.775 169.319H132.338V166.1H141.847V192H138.184ZM147.143 185.636V183.046L160.389 166.1H164.385L151.25 183.046L149.363 182.454H170.046V185.636H147.143ZM161.536 192V185.636L161.647 182.454V176.83H165.125V192H161.536Z" fill="#292C33"/>
<path d="M135.164 249V246.484L145.709 236.309C146.646 235.421 147.337 234.644 147.781 233.978C148.249 233.287 148.558 232.658 148.706 232.091C148.878 231.499 148.965 230.932 148.965 230.389C148.965 229.057 148.496 228.009 147.559 227.244C146.621 226.479 145.252 226.097 143.452 226.097C142.07 226.097 140.825 226.331 139.715 226.8C138.605 227.244 137.643 227.947 136.829 228.909L134.313 226.726C135.299 225.468 136.619 224.506 138.272 223.84C139.949 223.149 141.787 222.804 143.785 222.804C145.585 222.804 147.152 223.1 148.484 223.692C149.816 224.259 150.839 225.086 151.555 226.171C152.295 227.256 152.665 228.539 152.665 230.019C152.665 230.858 152.554 231.684 152.332 232.498C152.11 233.312 151.69 234.175 151.074 235.088C150.457 236.001 149.569 237.024 148.41 238.159L139.012 247.224L138.124 245.781H153.775V249H135.164ZM161.183 249V224.58L162.774 226.319H155.337V223.1H164.846V249H161.183Z" fill="#292C33"/>
<path d="M211.449 52.1H220.958V78H217.295V55.319H211.449V52.1Z" fill="#292C33"/>
<path d="M215.04 135.296C212.943 135.296 211.13 134.988 209.601 134.371C208.071 133.754 206.887 132.879 206.049 131.744C205.21 130.585 204.791 129.228 204.791 127.674C204.791 126.145 205.185 124.85 205.975 123.789C206.789 122.704 207.96 121.89 209.49 121.347C211.019 120.78 212.869 120.496 215.04 120.496C217.21 120.496 219.06 120.78 220.59 121.347C222.144 121.89 223.328 122.704 224.142 123.789C224.956 124.874 225.363 126.169 225.363 127.674C225.363 129.228 224.943 130.585 224.105 131.744C223.266 132.879 222.07 133.754 220.516 134.371C218.962 134.988 217.136 135.296 215.04 135.296ZM215.04 132.299C217.112 132.299 218.727 131.88 219.887 131.041C221.071 130.178 221.663 129.018 221.663 127.563C221.663 126.132 221.071 125.01 219.887 124.196C218.727 123.357 217.112 122.938 215.04 122.938C212.992 122.938 211.389 123.357 210.23 124.196C209.07 125.01 208.491 126.132 208.491 127.563C208.491 129.018 209.07 130.178 210.23 131.041C211.389 131.88 212.992 132.299 215.04 132.299ZM215.04 122.494C213.066 122.494 211.389 122.235 210.008 121.717C208.626 121.174 207.566 120.41 206.826 119.423C206.086 118.412 205.716 117.215 205.716 115.834C205.716 114.379 206.098 113.133 206.863 112.097C207.652 111.036 208.75 110.222 210.156 109.655C211.562 109.088 213.19 108.804 215.04 108.804C216.914 108.804 218.555 109.088 219.961 109.655C221.367 110.222 222.464 111.036 223.254 112.097C224.043 113.133 224.438 114.379 224.438 115.834C224.438 117.215 224.068 118.412 223.328 119.423C222.588 120.41 221.515 121.174 220.109 121.717C218.703 122.235 217.013 122.494 215.04 122.494ZM215.04 120.126C216.84 120.126 218.246 119.756 219.258 119.016C220.294 118.276 220.812 117.265 220.812 115.982C220.812 114.675 220.281 113.651 219.221 112.911C218.16 112.171 216.766 111.801 215.04 111.801C213.313 111.801 211.932 112.171 210.896 112.911C209.884 113.651 209.379 114.675 209.379 115.982C209.379 117.265 209.872 118.276 210.859 119.016C211.87 119.756 213.264 120.126 215.04 120.126Z" fill="#292C33"/>
<path d="M203.74 192V167.58L205.331 169.319H197.894V166.1H207.403V192H203.74ZM221.43 192.296C219.605 192.296 217.829 192.012 216.102 191.445C214.4 190.878 213.007 190.113 211.921 189.151L213.623 186.228C214.487 187.042 215.609 187.708 216.99 188.226C218.372 188.744 219.839 189.003 221.393 189.003C223.367 189.003 224.884 188.584 225.944 187.745C227.005 186.906 227.535 185.784 227.535 184.378C227.535 183.416 227.301 182.577 226.832 181.862C226.364 181.147 225.55 180.604 224.39 180.234C223.256 179.839 221.689 179.642 219.691 179.642H213.808L215.177 166.1H229.792V169.319H216.546L218.47 167.506L217.397 178.199L215.473 176.423H220.468C223.058 176.423 225.143 176.756 226.721 177.422C228.3 178.088 229.447 179.013 230.162 180.197C230.878 181.356 231.235 182.701 231.235 184.23C231.235 185.71 230.878 187.067 230.162 188.3C229.447 189.509 228.362 190.483 226.906 191.223C225.476 191.938 223.65 192.296 221.43 192.296Z" fill="#292C33"/>
<path d="M195.191 249V246.484L205.736 236.309C206.674 235.421 207.364 234.644 207.808 233.978C208.277 233.287 208.585 232.658 208.733 232.091C208.906 231.499 208.992 230.932 208.992 230.389C208.992 229.057 208.524 228.009 207.586 227.244C206.649 226.479 205.28 226.097 203.479 226.097C202.098 226.097 200.852 226.331 199.742 226.8C198.632 227.244 197.67 227.947 196.856 228.909L194.34 226.726C195.327 225.468 196.647 224.506 198.299 223.84C199.977 223.149 201.814 222.804 203.812 222.804C205.613 222.804 207.179 223.1 208.511 223.692C209.843 224.259 210.867 225.086 211.582 226.171C212.322 227.256 212.692 228.539 212.692 230.019C212.692 230.858 212.581 231.684 212.359 232.498C212.137 233.312 211.718 234.175 211.101 235.088C210.485 236.001 209.597 237.024 208.437 238.159L199.039 247.224L198.151 245.781H213.802V249H195.191ZM216.437 249V246.484L226.982 236.309C227.92 235.421 228.61 234.644 229.054 233.978C229.523 233.287 229.831 232.658 229.979 232.091C230.152 231.499 230.238 230.932 230.238 230.389C230.238 229.057 229.77 228.009 228.832 227.244C227.895 226.479 226.526 226.097 224.725 226.097C223.344 226.097 222.098 226.331 220.988 226.8C219.878 227.244 218.916 227.947 218.102 228.909L215.586 226.726C216.573 225.468 217.893 224.506 219.545 223.84C221.223 223.149 223.06 222.804 225.058 222.804C226.859 222.804 228.425 223.1 229.757 223.692C231.089 224.259 232.113 225.086 232.828 226.171C233.568 227.256 233.938 228.539 233.938 230.019C233.938 230.858 233.827 231.684 233.605 232.498C233.383 233.312 232.964 234.175 232.347 235.088C231.731 236.001 230.843 237.024 229.683 238.159L220.285 247.224L219.397 245.781H235.048V249H216.437Z" fill="#292C33"/>
<path d="M277.628 108.804C279.972 108.804 281.945 109.31 283.548 110.321C285.176 111.332 286.41 112.8 287.248 114.724C288.087 116.623 288.506 118.954 288.506 121.717C288.506 124.652 287.988 127.131 286.952 129.154C285.916 131.177 284.486 132.706 282.66 133.742C280.835 134.778 278.701 135.296 276.259 135.296C275.051 135.296 273.879 135.173 272.744 134.926C271.634 134.679 270.66 134.297 269.821 133.779L271.227 130.893C271.918 131.337 272.683 131.658 273.521 131.855C274.385 132.028 275.285 132.114 276.222 132.114C278.837 132.114 280.921 131.3 282.475 129.672C284.029 128.019 284.806 125.577 284.806 122.346C284.806 121.828 284.782 121.211 284.732 120.496C284.683 119.781 284.572 119.078 284.399 118.387L285.62 119.645C285.275 120.78 284.695 121.742 283.881 122.531C283.092 123.296 282.13 123.875 280.995 124.27C279.885 124.64 278.664 124.825 277.332 124.825C275.63 124.825 274.113 124.504 272.781 123.863C271.449 123.222 270.401 122.321 269.636 121.162C268.872 119.978 268.489 118.584 268.489 116.981C268.489 115.304 268.884 113.861 269.673 112.652C270.487 111.419 271.585 110.469 272.966 109.803C274.372 109.137 275.926 108.804 277.628 108.804ZM277.776 111.801C276.666 111.801 275.68 112.011 274.816 112.43C273.953 112.849 273.275 113.429 272.781 114.169C272.313 114.909 272.078 115.797 272.078 116.833C272.078 118.362 272.609 119.583 273.669 120.496C274.73 121.384 276.161 121.828 277.961 121.828C279.145 121.828 280.181 121.606 281.069 121.162C281.982 120.718 282.685 120.114 283.178 119.349C283.696 118.584 283.955 117.733 283.955 116.796C283.955 115.883 283.721 115.057 283.252 114.317C282.784 113.577 282.093 112.973 281.18 112.504C280.268 112.035 279.133 111.801 277.776 111.801Z" fill="#292C33"/>
<path d="M266.748 192V167.58L268.339 169.319H260.902V166.1H270.411V192H266.748ZM286.955 192.296C284.661 192.296 282.7 191.79 281.072 190.779C279.444 189.768 278.198 188.312 277.335 186.413C276.496 184.489 276.077 182.146 276.077 179.383C276.077 176.448 276.595 173.969 277.631 171.946C278.667 169.923 280.11 168.394 281.96 167.358C283.81 166.322 285.931 165.804 288.324 165.804C289.557 165.804 290.729 165.927 291.839 166.174C292.973 166.421 293.948 166.803 294.762 167.321L293.356 170.207C292.69 169.738 291.925 169.418 291.062 169.245C290.223 169.072 289.335 168.986 288.398 168.986C285.758 168.986 283.662 169.812 282.108 171.465C280.554 173.093 279.777 175.523 279.777 178.754C279.777 179.272 279.801 179.889 279.851 180.604C279.9 181.319 280.023 182.022 280.221 182.713L278.963 181.455C279.333 180.32 279.912 179.371 280.702 178.606C281.516 177.817 282.478 177.237 283.588 176.867C284.722 176.472 285.943 176.275 287.251 176.275C288.977 176.275 290.507 176.596 291.839 177.237C293.171 177.878 294.219 178.791 294.984 179.975C295.748 181.134 296.131 182.516 296.131 184.119C296.131 185.772 295.724 187.215 294.91 188.448C294.096 189.681 292.998 190.631 291.617 191.297C290.235 191.963 288.681 192.296 286.955 192.296ZM286.807 189.299C287.941 189.299 288.928 189.089 289.767 188.67C290.63 188.251 291.308 187.671 291.802 186.931C292.295 186.166 292.542 185.278 292.542 184.267C292.542 182.738 292.011 181.529 290.951 180.641C289.89 179.728 288.447 179.272 286.622 179.272C285.438 179.272 284.402 179.494 283.514 179.938C282.626 180.382 281.923 180.986 281.405 181.751C280.911 182.491 280.665 183.342 280.665 184.304C280.665 185.192 280.899 186.018 281.368 186.783C281.836 187.523 282.527 188.127 283.44 188.596C284.352 189.065 285.475 189.299 286.807 189.299Z" fill="#292C33"/>
<path d="M259.03 249V246.484L269.575 236.309C270.513 235.421 271.203 234.644 271.647 233.978C272.116 233.287 272.424 232.658 272.572 232.091C272.745 231.499 272.831 230.932 272.831 230.389C272.831 229.057 272.363 228.009 271.425 227.244C270.488 226.479 269.119 226.097 267.318 226.097C265.937 226.097 264.691 226.331 263.581 226.8C262.471 227.244 261.509 227.947 260.695 228.909L258.179 226.726C259.166 225.468 260.486 224.506 262.138 223.84C263.816 223.149 265.653 222.804 267.651 222.804C269.452 222.804 271.018 223.1 272.35 223.692C273.682 224.259 274.706 225.086 275.421 226.171C276.161 227.256 276.531 228.539 276.531 230.019C276.531 230.858 276.42 231.684 276.198 232.498C275.976 233.312 275.557 234.175 274.94 235.088C274.324 236.001 273.436 237.024 272.276 238.159L262.878 247.224L261.99 245.781H277.641V249H259.03ZM288.601 249.296C286.776 249.296 285 249.012 283.273 248.445C281.571 247.878 280.178 247.113 279.092 246.151L280.794 243.228C281.658 244.042 282.78 244.708 284.161 245.226C285.543 245.744 287.023 246.003 288.601 246.003C290.525 246.003 292.018 245.596 293.078 244.782C294.164 243.943 294.706 242.821 294.706 241.415C294.706 240.058 294.188 238.973 293.152 238.159C292.141 237.32 290.525 236.901 288.305 236.901H286.233V234.311L293.929 224.839L294.447 226.319H280.276V223.1H297.37V225.616L289.711 235.051L287.787 233.904H289.008C292.141 233.904 294.484 234.607 296.038 236.013C297.617 237.419 298.406 239.207 298.406 241.378C298.406 242.833 298.049 244.165 297.333 245.374C296.618 246.583 295.533 247.545 294.077 248.26C292.647 248.951 290.821 249.296 288.601 249.296Z" fill="#292C33"/>
<path d="M279.074 74.781H292.357V78H273.746V75.484L284.291 65.309C287.029 62.645 287.547 61.017 287.547 59.389C287.547 56.725 285.66 55.097 282.034 55.097C279.259 55.097 277.002 55.985 275.411 57.909L272.895 55.726C274.893 53.247 278.334 51.804 282.367 51.804C287.769 51.804 291.247 54.579 291.247 59.019C291.247 61.535 290.507 63.792 286.992 67.159L279.074 74.781Z" fill="#292C33"/>
</svg>
