<svg width="432" height="359" viewBox="0 0 432 359" fill="none" xmlns="http://www.w3.org/2000/svg">
<g clip-path="url(#clip0_5595_6578)">
<path d="M22.5413 21.2264H19.9325V3.86139H10.4755V21.2264H7.78516V1.82324H22.4598V21.2264H22.5413Z" fill="#B3B3B3"/>
<path d="M38.3574 21.2261H35.7485V15.1116H29.308V21.2261H26.6992V6.7959H29.308V13.0735H35.7485V6.7959H38.3574V21.2261Z" fill="#B3B3B3"/>
<path d="M72.5859 21.2264V1.82324H78.9449C80.9831 1.82324 82.5321 2.23087 83.6734 3.12766C84.8148 4.02444 85.3855 5.32886 85.3855 7.0409C85.3855 7.85616 85.1409 8.58989 84.6517 9.32363C84.1626 10.0574 83.4288 10.465 82.6136 10.7911C83.918 10.9541 84.8963 11.5248 85.63 12.4216C86.3638 13.3184 86.7714 14.4598 86.7714 15.6826C86.7714 17.4762 86.2007 18.7806 85.0594 19.7589C83.918 20.7373 82.369 21.1449 80.3309 21.1449H72.5859V21.2264ZM75.2763 10.0574H79.5156C80.4939 10.0574 81.3092 9.81278 81.8799 9.2421C82.5321 8.67142 82.7766 7.93769 82.7766 6.95937C82.7766 5.89954 82.4505 5.1658 81.7983 4.59512C81.1461 4.10597 80.1678 3.77986 78.9449 3.77986H75.2763V10.0574ZM75.2763 12.0955V19.1067H80.3309C81.5537 19.1067 82.4505 18.7806 83.1027 18.21C83.755 17.6393 84.0811 16.7425 84.0811 15.6826C84.0811 14.6228 83.755 13.726 83.1027 13.0738C82.4505 12.4216 81.5537 12.0955 80.3309 12.014H80.1678H75.2763V12.0955Z" fill="#B3B3B3"/>
<path d="M100.71 8.83405H95.9818V21.2261H93.373V8.83405H88.6445V6.7959H100.71V8.83405Z" fill="#B3B3B3"/>
<path d="M150.098 15.0304C150.179 16.9055 149.527 18.4545 148.223 19.6773C146.918 20.9002 145.206 21.5524 143.005 21.5524C140.804 21.5524 139.01 20.7372 137.624 19.1882C136.238 17.6392 135.586 15.6826 135.586 13.2368V9.81271C135.586 7.44846 136.238 5.41031 137.624 3.86132C139.01 2.31233 140.804 1.49707 143.005 1.49707C145.206 1.49707 146.918 2.06775 148.223 3.20911C149.527 4.35048 150.179 5.89947 150.098 7.85609V7.93762H147.57C147.57 6.55168 147.163 5.49184 146.347 4.67658C145.532 3.86132 144.391 3.45369 142.923 3.45369C141.456 3.45369 140.315 4.02437 139.418 5.24726C138.521 6.38862 138.113 7.85609 138.113 9.64966V13.1553C138.113 14.9488 138.521 16.4163 139.418 17.5577C140.315 18.699 141.456 19.3512 142.923 19.3512C144.391 19.3512 145.532 18.9436 146.347 18.2099C147.163 17.3946 147.57 16.3348 147.57 14.9488H150.098V15.0304Z" fill="#B3B3B3"/>
<path d="M165.505 14.5413C165.505 16.661 165.016 18.2915 164.038 19.5959C163.059 20.9003 161.673 21.471 159.88 21.471C158.983 21.471 158.249 21.3079 157.515 21.0634C156.863 20.7373 156.293 20.3296 155.803 19.7589V26.7702H153.195V6.79634H155.233L155.64 8.67144C156.13 7.9377 156.7 7.44855 157.434 7.12244C158.168 6.79634 158.983 6.55176 159.88 6.55176C161.673 6.55176 163.059 7.2855 164.038 8.67144C165.016 10.0574 165.505 11.9325 165.505 14.2967V14.5413ZM162.896 14.2967C162.896 12.6662 162.57 11.2802 161.918 10.3019C161.266 9.32364 160.287 8.75296 159.064 8.75296C158.331 8.75296 157.679 8.91601 157.108 9.24212C156.537 9.56822 156.13 10.0574 155.803 10.628V17.6393C156.13 18.2099 156.537 18.6991 157.108 19.0252C157.679 19.3513 158.331 19.5144 159.064 19.5144C160.287 19.5144 161.266 19.0252 161.918 18.1284C162.57 17.2316 162.896 16.0087 162.896 14.6228V14.2967Z" fill="#B3B3B3"/>
<path d="M215.016 1.82324V21.2264H212.407V13.1553C211.592 13.3999 210.777 13.563 209.961 13.726C209.146 13.8076 208.249 13.8891 207.108 13.8891C204.988 13.8891 203.358 13.3999 202.217 12.5031C201.075 11.6064 200.586 10.0574 200.586 7.93769V1.82324H203.195V7.93769C203.195 9.40515 203.521 10.3835 204.092 10.9541C204.744 11.5248 205.722 11.7694 207.027 11.7694C207.923 11.7694 208.82 11.6879 209.717 11.6064C210.532 11.4433 211.429 11.2802 212.326 11.0357V1.82324H215.016Z" fill="#B3B3B3"/>
<path d="M230.26 8.83405H225.532V21.2261H222.923V8.83405H218.195V6.7959H230.26V8.83405Z" fill="#B3B3B3"/>
<path d="M279.261 21.2264H276.652V3.86139H267.195V21.2264H264.586V1.82324H279.261V21.2264Z" fill="#B3B3B3"/>
<path d="M294.504 8.83453H289.776V21.2265H287.167V8.83453H282.438V6.79639H294.504V8.83453Z" fill="#B3B3B3"/>
<path d="M344.098 15.0303C344.179 16.9054 343.527 18.4544 342.223 19.6773C340.918 20.9002 339.206 21.5524 337.005 21.5524C334.804 21.5524 333.01 20.7371 331.624 19.1881C330.238 17.6391 329.586 15.6825 329.586 13.2367V9.8127C329.586 7.44845 330.238 5.41031 331.624 3.86131C333.01 2.31232 334.804 1.49707 337.005 1.49707C339.206 1.49707 340.918 2.06774 342.223 3.20911C343.527 4.35047 344.179 5.89946 344.098 7.85608V7.93761H341.57C341.57 6.55167 341.163 5.49183 340.347 4.67657C339.532 3.86131 338.391 3.45368 336.923 3.45368C335.456 3.45368 334.315 4.02437 333.418 5.24725C332.521 6.38862 332.113 7.85608 332.113 9.64965V13.1552C332.113 14.9488 332.521 16.4162 333.418 17.5576C334.315 18.699 335.456 19.3512 336.923 19.3512C338.391 19.3512 339.532 18.9435 340.347 18.2098C341.163 17.3946 341.57 16.3347 341.57 14.9488H344.098V15.0303Z" fill="#B3B3B3"/>
<path d="M353.469 6.55149C355.344 6.55149 356.73 7.2037 357.79 8.58964C358.85 9.97558 359.42 11.6876 359.42 13.8888V14.2149C359.42 16.3346 358.85 18.1282 357.708 19.5141C356.567 20.9 355.018 21.5523 352.98 21.5523C350.942 21.5523 349.393 20.9 348.251 19.5141C347.11 18.1282 346.539 16.4161 346.539 14.2149V13.8888C346.539 13.8073 346.539 13.7258 346.539 13.7258C346.539 13.6442 346.539 13.6442 346.539 13.5627V10.4647C346.539 7.69285 347.11 5.73623 348.17 4.43182C349.23 3.1274 350.86 2.47519 352.98 2.31214C354.203 2.23062 355.181 2.06756 355.833 1.82299C356.485 1.57841 356.812 1.17078 356.812 0.600098H358.85V0.681624C358.931 2.06756 358.442 3.04587 357.464 3.61656C356.485 4.18724 355.099 4.51334 353.224 4.51334C351.838 4.51334 350.779 4.92097 349.963 5.6547C349.148 6.38844 348.74 7.44827 348.74 8.83421V8.91574C349.23 8.26353 349.963 7.69285 350.779 7.28522C351.594 6.87759 352.572 6.55149 353.469 6.55149ZM352.98 8.58964C351.757 8.58964 350.779 9.07879 350.126 10.0571C349.474 11.0354 349.148 12.3398 349.148 13.8073V14.1334C349.148 15.6824 349.474 16.9053 350.126 17.8836C350.779 18.8619 351.757 19.3511 352.98 19.3511C354.203 19.3511 355.181 18.8619 355.833 17.8836C356.485 16.9053 356.812 15.6009 356.812 14.1334V13.8073C356.812 12.2583 356.485 11.0354 355.833 10.0571C355.181 9.07879 354.203 8.58964 352.98 8.58964Z" fill="#B3B3B3"/>
<path d="M393.586 21.2264V1.82324H399.945C401.983 1.82324 403.532 2.23087 404.674 3.12766C405.815 4.02444 406.386 5.32886 406.386 7.0409C406.386 7.85616 406.141 8.58989 405.652 9.32363C405.163 10.0574 404.429 10.465 403.614 10.8726C404.918 11.0357 405.896 11.6064 406.63 12.5031C407.364 13.3999 407.772 14.5413 407.772 15.7642C407.772 17.5577 407.201 18.8622 406.059 19.8405C404.918 20.8188 403.369 21.2264 401.331 21.2264H393.586ZM396.276 10.0574H400.516C401.494 10.0574 402.309 9.81278 402.88 9.2421C403.532 8.67142 403.777 7.93769 403.777 6.95937C403.777 5.89954 403.451 5.1658 402.798 4.59512C402.146 4.10597 401.168 3.77986 399.945 3.77986H396.276V10.0574ZM396.276 12.0955V19.1067H401.331C402.554 19.1067 403.451 18.7806 404.103 18.21C404.755 17.6393 405.081 16.7425 405.081 15.6826C405.081 14.6228 404.755 13.726 404.103 13.0738C403.451 12.4216 402.554 12.0955 401.331 12.014H401.168H396.276V12.0955Z" fill="#B3B3B3"/>
<path d="M416.331 19.4328C417.147 19.4328 417.88 19.1883 418.451 18.6176C419.022 18.0469 419.348 17.3947 419.348 16.661H421.712V16.7425C421.712 17.9654 421.223 19.1067 420.082 20.085C418.94 21.0634 417.717 21.5525 416.25 21.5525C414.212 21.5525 412.663 20.9003 411.521 19.5144C410.38 18.1284 409.891 16.4164 409.891 14.3782V13.8075C409.891 11.7694 410.462 10.0573 411.521 8.67144C412.663 7.2855 414.212 6.6333 416.168 6.6333C417.799 6.6333 419.103 7.12245 420.082 8.10076C421.06 9.07907 421.631 10.3019 421.549 11.7694V11.8509H419.185C419.185 10.9541 418.859 10.2204 418.288 9.56823C417.717 8.91602 416.984 8.67144 416.087 8.67144C414.782 8.67144 413.886 9.1606 413.233 10.1389C412.663 11.1172 412.337 12.3401 412.337 13.8075V14.3782C412.337 15.8457 412.663 17.0686 413.233 18.0469C414.13 18.9437 415.027 19.4328 416.331 19.4328Z" fill="#B3B3B3"/>
<path d="M22.5413 21.2264H19.9325V3.86139H10.4755V21.2264H7.78516V1.82324H22.4598V21.2264H22.5413Z" fill="#B3B3B3"/>
<path d="M38.3574 21.2261H35.7485V15.1116H29.308V21.2261H26.6992V6.7959H29.308V13.0735H35.7485V6.7959H38.3574V21.2261Z" fill="#B3B3B3"/>
<path d="M72.5859 21.2264V1.82324H78.9449C80.9831 1.82324 82.5321 2.23087 83.6734 3.12766C84.8148 4.02444 85.3855 5.32886 85.3855 7.0409C85.3855 7.85616 85.1409 8.58989 84.6517 9.32363C84.1626 10.0574 83.4288 10.465 82.6136 10.7911C83.918 10.9541 84.8963 11.5248 85.63 12.4216C86.3638 13.3184 86.7714 14.4598 86.7714 15.6826C86.7714 17.4762 86.2007 18.7806 85.0594 19.7589C83.918 20.7373 82.369 21.1449 80.3309 21.1449H72.5859V21.2264ZM75.2763 10.0574H79.5156C80.4939 10.0574 81.3092 9.81278 81.8799 9.2421C82.5321 8.67142 82.7766 7.93769 82.7766 6.95937C82.7766 5.89954 82.4505 5.1658 81.7983 4.59512C81.1461 4.10597 80.1678 3.77986 78.9449 3.77986H75.2763V10.0574ZM75.2763 12.0955V19.1067H80.3309C81.5537 19.1067 82.4505 18.7806 83.1027 18.21C83.755 17.6393 84.0811 16.7425 84.0811 15.6826C84.0811 14.6228 83.755 13.726 83.1027 13.0738C82.4505 12.4216 81.5537 12.0955 80.3309 12.014H80.1678H75.2763V12.0955Z" fill="#B3B3B3"/>
<path d="M100.71 8.83405H95.9818V21.2261H93.373V8.83405H88.6445V6.7959H100.71V8.83405Z" fill="#B3B3B3"/>
<path d="M150.098 15.0304C150.179 16.9055 149.527 18.4545 148.223 19.6773C146.918 20.9002 145.206 21.5524 143.005 21.5524C140.804 21.5524 139.01 20.7372 137.624 19.1882C136.238 17.6392 135.586 15.6826 135.586 13.2368V9.81271C135.586 7.44846 136.238 5.41031 137.624 3.86132C139.01 2.31233 140.804 1.49707 143.005 1.49707C145.206 1.49707 146.918 2.06775 148.223 3.20911C149.527 4.35048 150.179 5.89947 150.098 7.85609V7.93762H147.57C147.57 6.55168 147.163 5.49184 146.347 4.67658C145.532 3.86132 144.391 3.45369 142.923 3.45369C141.456 3.45369 140.315 4.02437 139.418 5.24726C138.521 6.38862 138.113 7.85609 138.113 9.64966V13.1553C138.113 14.9488 138.521 16.4163 139.418 17.5577C140.315 18.699 141.456 19.3512 142.923 19.3512C144.391 19.3512 145.532 18.9436 146.347 18.2099C147.163 17.3946 147.57 16.3348 147.57 14.9488H150.098V15.0304Z" fill="#B3B3B3"/>
<path d="M165.505 14.5413C165.505 16.661 165.016 18.2915 164.038 19.5959C163.059 20.9003 161.673 21.471 159.88 21.471C158.983 21.471 158.249 21.3079 157.515 21.0634C156.863 20.7373 156.293 20.3296 155.803 19.7589V26.7702H153.195V6.79634H155.233L155.64 8.67144C156.13 7.9377 156.7 7.44855 157.434 7.12244C158.168 6.79634 158.983 6.55176 159.88 6.55176C161.673 6.55176 163.059 7.2855 164.038 8.67144C165.016 10.0574 165.505 11.9325 165.505 14.2967V14.5413ZM162.896 14.2967C162.896 12.6662 162.57 11.2802 161.918 10.3019C161.266 9.32364 160.287 8.75296 159.064 8.75296C158.331 8.75296 157.679 8.91601 157.108 9.24212C156.537 9.56822 156.13 10.0574 155.803 10.628V17.6393C156.13 18.2099 156.537 18.6991 157.108 19.0252C157.679 19.3513 158.331 19.5144 159.064 19.5144C160.287 19.5144 161.266 19.0252 161.918 18.1284C162.57 17.2316 162.896 16.0087 162.896 14.6228V14.2967Z" fill="#B3B3B3"/>
<path d="M215.016 1.82324V21.2264H212.407V13.1553C211.592 13.3999 210.777 13.563 209.961 13.726C209.146 13.8076 208.249 13.8891 207.108 13.8891C204.988 13.8891 203.358 13.3999 202.217 12.5031C201.075 11.6064 200.586 10.0574 200.586 7.93769V1.82324H203.195V7.93769C203.195 9.40515 203.521 10.3835 204.092 10.9541C204.744 11.5248 205.722 11.7694 207.027 11.7694C207.923 11.7694 208.82 11.6879 209.717 11.6064C210.532 11.4433 211.429 11.2802 212.326 11.0357V1.82324H215.016Z" fill="#B3B3B3"/>
<path d="M230.26 8.83405H225.532V21.2261H222.923V8.83405H218.195V6.7959H230.26V8.83405Z" fill="#B3B3B3"/>
<path d="M279.261 21.2264H276.652V3.86139H267.195V21.2264H264.586V1.82324H279.261V21.2264Z" fill="#B3B3B3"/>
<path d="M294.504 8.83453H289.776V21.2265H287.167V8.83453H282.438V6.79639H294.504V8.83453Z" fill="#B3B3B3"/>
<path d="M344.098 15.0303C344.179 16.9054 343.527 18.4544 342.223 19.6773C340.918 20.9002 339.206 21.5524 337.005 21.5524C334.804 21.5524 333.01 20.7371 331.624 19.1881C330.238 17.6391 329.586 15.6825 329.586 13.2367V9.8127C329.586 7.44845 330.238 5.41031 331.624 3.86131C333.01 2.31232 334.804 1.49707 337.005 1.49707C339.206 1.49707 340.918 2.06774 342.223 3.20911C343.527 4.35047 344.179 5.89946 344.098 7.85608V7.93761H341.57C341.57 6.55167 341.163 5.49183 340.347 4.67657C339.532 3.86131 338.391 3.45368 336.923 3.45368C335.456 3.45368 334.315 4.02437 333.418 5.24725C332.521 6.38862 332.113 7.85608 332.113 9.64965V13.1552C332.113 14.9488 332.521 16.4162 333.418 17.5576C334.315 18.699 335.456 19.3512 336.923 19.3512C338.391 19.3512 339.532 18.9435 340.347 18.2098C341.163 17.3946 341.57 16.3347 341.57 14.9488H344.098V15.0303Z" fill="#B3B3B3"/>
<path d="M353.469 6.55149C355.344 6.55149 356.73 7.2037 357.79 8.58964C358.85 9.97558 359.42 11.6876 359.42 13.8888V14.2149C359.42 16.3346 358.85 18.1282 357.708 19.5141C356.567 20.9 355.018 21.5523 352.98 21.5523C350.942 21.5523 349.393 20.9 348.251 19.5141C347.11 18.1282 346.539 16.4161 346.539 14.2149V13.8888C346.539 13.8073 346.539 13.7258 346.539 13.7258C346.539 13.6442 346.539 13.6442 346.539 13.5627V10.4647C346.539 7.69285 347.11 5.73623 348.17 4.43182C349.23 3.1274 350.86 2.47519 352.98 2.31214C354.203 2.23062 355.181 2.06756 355.833 1.82299C356.485 1.57841 356.812 1.17078 356.812 0.600098H358.85V0.681624C358.931 2.06756 358.442 3.04587 357.464 3.61656C356.485 4.18724 355.099 4.51334 353.224 4.51334C351.838 4.51334 350.779 4.92097 349.963 5.6547C349.148 6.38844 348.74 7.44827 348.74 8.83421V8.91574C349.23 8.26353 349.963 7.69285 350.779 7.28522C351.594 6.87759 352.572 6.55149 353.469 6.55149ZM352.98 8.58964C351.757 8.58964 350.779 9.07879 350.126 10.0571C349.474 11.0354 349.148 12.3398 349.148 13.8073V14.1334C349.148 15.6824 349.474 16.9053 350.126 17.8836C350.779 18.8619 351.757 19.3511 352.98 19.3511C354.203 19.3511 355.181 18.8619 355.833 17.8836C356.485 16.9053 356.812 15.6009 356.812 14.1334V13.8073C356.812 12.2583 356.485 11.0354 355.833 10.0571C355.181 9.07879 354.203 8.58964 352.98 8.58964Z" fill="#B3B3B3"/>
<path d="M393.586 21.2264V1.82324H399.945C401.983 1.82324 403.532 2.23087 404.674 3.12766C405.815 4.02444 406.386 5.32886 406.386 7.0409C406.386 7.85616 406.141 8.58989 405.652 9.32363C405.163 10.0574 404.429 10.465 403.614 10.8726C404.918 11.0357 405.896 11.6064 406.63 12.5031C407.364 13.3999 407.772 14.5413 407.772 15.7642C407.772 17.5577 407.201 18.8622 406.059 19.8405C404.918 20.8188 403.369 21.2264 401.331 21.2264H393.586ZM396.276 10.0574H400.516C401.494 10.0574 402.309 9.81278 402.88 9.2421C403.532 8.67142 403.777 7.93769 403.777 6.95937C403.777 5.89954 403.451 5.1658 402.798 4.59512C402.146 4.10597 401.168 3.77986 399.945 3.77986H396.276V10.0574ZM396.276 12.0955V19.1067H401.331C402.554 19.1067 403.451 18.7806 404.103 18.21C404.755 17.6393 405.081 16.7425 405.081 15.6826C405.081 14.6228 404.755 13.726 404.103 13.0738C403.451 12.4216 402.554 12.0955 401.331 12.014H401.168H396.276V12.0955Z" fill="#B3B3B3"/>
<path d="M416.331 19.4328C417.147 19.4328 417.88 19.1883 418.451 18.6176C419.022 18.0469 419.348 17.3947 419.348 16.661H421.712V16.7425C421.712 17.9654 421.223 19.1067 420.082 20.085C418.94 21.0634 417.717 21.5525 416.25 21.5525C414.212 21.5525 412.663 20.9003 411.521 19.5144C410.38 18.1284 409.891 16.4164 409.891 14.3782V13.8075C409.891 11.7694 410.462 10.0573 411.521 8.67144C412.663 7.2855 414.212 6.6333 416.168 6.6333C417.799 6.6333 419.103 7.12245 420.082 8.10076C421.06 9.07907 421.631 10.3019 421.549 11.7694V11.8509H419.185C419.185 10.9541 418.859 10.2204 418.288 9.56823C417.717 8.91602 416.984 8.67144 416.087 8.67144C414.782 8.67144 413.886 9.1606 413.233 10.1389C412.663 11.1172 412.337 12.3401 412.337 13.8075V14.3782C412.337 15.8457 412.663 17.0686 413.233 18.0469C414.13 18.9437 415.027 19.4328 416.331 19.4328Z" fill="#B3B3B3"/>
<path d="M343.377 78.5001V54.0801L344.968 55.8191H337.531V52.6001H347.04V78.5001H343.377Z" fill="#292C33"/>
<path d="M344.058 129.296C341.962 129.296 340.149 128.988 338.619 128.371C337.09 127.754 335.906 126.879 335.067 125.744C334.229 124.585 333.809 123.228 333.809 121.674C333.809 120.145 334.204 118.85 334.993 117.789C335.807 116.704 336.979 115.89 338.508 115.347C340.038 114.78 341.888 114.496 344.058 114.496C346.229 114.496 348.079 114.78 349.608 115.347C351.162 115.89 352.346 116.704 353.16 117.789C353.974 118.874 354.381 120.169 354.381 121.674C354.381 123.228 353.962 124.585 353.123 125.744C352.285 126.879 351.088 127.754 349.534 128.371C347.98 128.988 346.155 129.296 344.058 129.296ZM344.058 126.299C346.13 126.299 347.746 125.88 348.905 125.041C350.089 124.178 350.681 123.018 350.681 121.563C350.681 120.132 350.089 119.01 348.905 118.196C347.746 117.357 346.13 116.938 344.058 116.938C342.011 116.938 340.408 117.357 339.248 118.196C338.089 119.01 337.509 120.132 337.509 121.563C337.509 123.018 338.089 124.178 339.248 125.041C340.408 125.88 342.011 126.299 344.058 126.299ZM344.058 116.494C342.085 116.494 340.408 116.235 339.026 115.717C337.645 115.174 336.584 114.41 335.844 113.423C335.104 112.412 334.734 111.215 334.734 109.834C334.734 108.379 335.117 107.133 335.881 106.097C336.671 105.036 337.768 104.222 339.174 103.655C340.58 103.088 342.208 102.804 344.058 102.804C345.933 102.804 347.573 103.088 348.979 103.655C350.385 104.222 351.483 105.036 352.272 106.097C353.062 107.133 353.456 108.379 353.456 109.834C353.456 111.215 353.086 112.412 352.346 113.423C351.606 114.41 350.533 115.174 349.127 115.717C347.721 116.235 346.032 116.494 344.058 116.494ZM344.058 114.126C345.859 114.126 347.265 113.756 348.276 113.016C349.312 112.276 349.83 111.265 349.83 109.982C349.83 108.675 349.3 107.651 348.239 106.911C347.179 106.171 345.785 105.801 344.058 105.801C342.332 105.801 340.95 106.171 339.914 106.911C338.903 107.651 338.397 108.675 338.397 109.982C338.397 111.265 338.891 112.276 339.877 113.016C340.889 113.756 342.282 114.126 344.058 114.126Z" fill="#292C33"/>
<path d="M332.756 187V162.58L334.347 164.319H326.91V161.1H336.419V187H332.756ZM350.446 187.296C348.621 187.296 346.845 187.012 345.118 186.445C343.416 185.878 342.022 185.113 340.937 184.151L342.639 181.228C343.502 182.042 344.625 182.708 346.006 183.226C347.387 183.744 348.855 184.003 350.409 184.003C352.382 184.003 353.899 183.584 354.96 182.745C356.021 181.906 356.551 180.784 356.551 179.378C356.551 178.416 356.317 177.577 355.848 176.862C355.379 176.147 354.565 175.604 353.406 175.234C352.271 174.839 350.705 174.642 348.707 174.642H342.824L344.193 161.1H358.808V164.319H345.562L347.486 162.506L346.413 173.199L344.489 171.423H349.484C352.074 171.423 354.158 171.756 355.737 172.422C357.316 173.088 358.463 174.013 359.178 175.197C359.893 176.356 360.251 177.701 360.251 179.23C360.251 180.71 359.893 182.067 359.178 183.3C358.463 184.509 357.377 185.483 355.922 186.223C354.491 186.938 352.666 187.296 350.446 187.296Z" fill="#292C33"/>
<path d="M324.206 245V242.484L334.751 232.309C335.688 231.421 336.379 230.644 336.823 229.978C337.292 229.287 337.6 228.658 337.748 228.091C337.921 227.499 338.007 226.932 338.007 226.389C338.007 225.057 337.538 224.009 336.601 223.244C335.664 222.479 334.295 222.097 332.494 222.097C331.113 222.097 329.867 222.331 328.757 222.8C327.647 223.244 326.685 223.947 325.871 224.909L323.355 222.726C324.342 221.468 325.661 220.506 327.314 219.84C328.991 219.149 330.829 218.804 332.827 218.804C334.628 218.804 336.194 219.1 337.526 219.692C338.858 220.259 339.882 221.086 340.597 222.171C341.337 223.256 341.707 224.539 341.707 226.019C341.707 226.858 341.596 227.684 341.374 228.498C341.152 229.312 340.733 230.175 340.116 231.088C339.499 232.001 338.611 233.024 337.452 234.159L328.054 243.224L327.166 241.781H342.817V245H324.206ZM345.452 245V242.484L355.997 232.309C356.934 231.421 357.625 230.644 358.069 229.978C358.538 229.287 358.846 228.658 358.994 228.091C359.167 227.499 359.253 226.932 359.253 226.389C359.253 225.057 358.784 224.009 357.847 223.244C356.91 222.479 355.541 222.097 353.74 222.097C352.359 222.097 351.113 222.331 350.003 222.8C348.893 223.244 347.931 223.947 347.117 224.909L344.601 222.726C345.588 221.468 346.907 220.506 348.56 219.84C350.237 219.149 352.075 218.804 354.073 218.804C355.874 218.804 357.44 219.1 358.772 219.692C360.104 220.259 361.128 221.086 361.843 222.171C362.583 223.256 362.953 224.539 362.953 226.019C362.953 226.858 362.842 227.684 362.62 228.498C362.398 229.312 361.979 230.175 361.362 231.088C360.745 232.001 359.857 233.024 358.698 234.159L349.3 243.224L348.412 241.781H364.063V245H345.452Z" fill="#292C33"/>
<path d="M323.414 303V300.484L333.958 290.309C334.895 289.421 335.587 288.644 336.031 287.978C336.5 287.287 336.808 286.658 336.956 286.091C337.129 285.499 337.215 284.932 337.215 284.389C337.215 283.057 336.746 282.009 335.809 281.244C334.872 280.479 333.503 280.097 331.702 280.097C330.321 280.097 329.075 280.331 327.965 280.8C326.855 281.244 325.893 281.947 325.079 282.909L322.562 280.726C323.549 279.468 324.869 278.506 326.522 277.84C328.199 277.149 330.037 276.804 332.035 276.804C333.836 276.804 335.402 277.1 336.734 277.692C338.066 278.259 339.09 279.086 339.805 280.171C340.545 281.256 340.915 282.539 340.915 284.019C340.915 284.858 340.804 285.684 340.582 286.498C340.36 287.312 339.941 288.175 339.324 289.088C338.707 290.001 337.819 291.024 336.66 292.159L327.262 301.224L326.374 299.781H342.025V303H323.414ZM353.466 276.804C355.809 276.804 357.782 277.31 359.385 278.321C361.013 279.332 362.247 280.8 363.086 282.724C363.925 284.623 364.344 286.954 364.344 289.717C364.344 292.652 363.826 295.131 362.79 297.154C361.754 299.177 360.322 300.706 358.497 301.742C356.672 302.778 354.538 303.296 352.096 303.296C350.887 303.296 349.717 303.173 348.582 302.926C347.472 302.679 346.498 302.297 345.659 301.779L347.065 298.893C347.756 299.337 348.52 299.658 349.359 299.855C350.222 300.028 351.123 300.114 352.06 300.114C354.675 300.114 356.758 299.3 358.312 297.672C359.867 296.019 360.644 293.577 360.644 290.346C360.644 289.828 360.619 289.211 360.57 288.496C360.521 287.781 360.41 287.078 360.237 286.387L361.458 287.645C361.113 288.78 360.533 289.742 359.719 290.531C358.93 291.296 357.968 291.875 356.833 292.27C355.723 292.64 354.502 292.825 353.17 292.825C351.468 292.825 349.95 292.504 348.618 291.863C347.286 291.222 346.239 290.321 345.474 289.162C344.709 287.978 344.327 286.584 344.327 284.981C344.327 283.304 344.721 281.861 345.51 280.652C346.324 279.419 347.422 278.469 348.803 277.803C350.209 277.137 351.764 276.804 353.466 276.804ZM353.614 279.801C352.504 279.801 351.517 280.011 350.654 280.43C349.791 280.849 349.111 281.429 348.618 282.169C348.149 282.909 347.915 283.797 347.915 284.833C347.915 286.362 348.446 287.583 349.507 288.496C350.568 289.384 351.998 289.828 353.799 289.828C354.983 289.828 356.019 289.606 356.907 289.162C357.82 288.718 358.523 288.114 359.016 287.349C359.534 286.584 359.793 285.733 359.793 284.796C359.793 283.883 359.559 283.057 359.09 282.317C358.621 281.577 357.931 280.973 357.018 280.504C356.105 280.035 354.971 279.801 353.614 279.801Z" fill="#292C33"/>
<path d="M398.831 78.5002V75.9842L409.376 65.8092C410.313 64.9212 411.004 64.1442 411.448 63.4782C411.917 62.7875 412.225 62.1585 412.373 61.5912C412.546 60.9992 412.632 60.4319 412.632 59.8892C412.632 58.5572 412.163 57.5089 411.226 56.7442C410.289 55.9795 408.92 55.5972 407.119 55.5972C405.738 55.5972 404.492 55.8315 403.382 56.3002C402.272 56.7442 401.31 57.4472 400.496 58.4092L397.98 56.2262C398.967 54.9682 400.286 54.0062 401.939 53.3402C403.616 52.6495 405.454 52.3042 407.452 52.3042C409.253 52.3042 410.819 52.6002 412.151 53.1922C413.483 53.7595 414.507 54.5859 415.222 55.6712C415.962 56.7565 416.332 58.0392 416.332 59.5192C416.332 60.3579 416.221 61.1842 415.999 61.9982C415.777 62.8122 415.358 63.6755 414.741 64.5882C414.124 65.5009 413.236 66.5245 412.077 67.6592L402.679 76.7242L401.791 75.2812H417.442V78.5002H398.831Z" fill="#292C33"/>
<path d="M406.842 102.804C409.185 102.804 411.159 103.31 412.762 104.321C414.39 105.332 415.623 106.8 416.462 108.724C417.301 110.623 417.72 112.954 417.72 115.717C417.72 118.652 417.202 121.131 416.166 123.154C415.13 125.177 413.699 126.706 411.874 127.742C410.049 128.778 407.915 129.296 405.473 129.296C404.264 129.296 403.093 129.173 401.958 128.926C400.848 128.679 399.874 128.297 399.035 127.779L400.441 124.893C401.132 125.337 401.896 125.658 402.735 125.855C403.598 126.028 404.499 126.114 405.436 126.114C408.051 126.114 410.135 125.3 411.689 123.672C413.243 122.019 414.02 119.577 414.02 116.346C414.02 115.828 413.995 115.211 413.946 114.496C413.897 113.781 413.786 113.078 413.613 112.387L414.834 113.645C414.489 114.78 413.909 115.742 413.095 116.531C412.306 117.296 411.344 117.875 410.209 118.27C409.099 118.64 407.878 118.825 406.546 118.825C404.844 118.825 403.327 118.504 401.995 117.863C400.663 117.222 399.615 116.321 398.85 115.162C398.085 113.978 397.703 112.584 397.703 110.981C397.703 109.304 398.098 107.861 398.887 106.652C399.701 105.419 400.799 104.469 402.18 103.803C403.586 103.137 405.14 102.804 406.842 102.804ZM406.99 105.801C405.88 105.801 404.893 106.011 404.03 106.43C403.167 106.849 402.488 107.429 401.995 108.169C401.526 108.909 401.292 109.797 401.292 110.833C401.292 112.362 401.822 113.583 402.883 114.496C403.944 115.384 405.374 115.828 407.175 115.828C408.359 115.828 409.395 115.606 410.283 115.162C411.196 114.718 411.899 114.114 412.392 113.349C412.91 112.584 413.169 111.733 413.169 110.796C413.169 109.883 412.935 109.057 412.466 108.317C411.997 107.577 411.307 106.973 410.394 106.504C409.481 106.035 408.347 105.801 406.99 105.801Z" fill="#292C33"/>
<path d="M395.959 187V162.58L397.55 164.319H390.113V161.1H399.622V187H395.959ZM416.165 187.296C413.871 187.296 411.91 186.79 410.282 185.779C408.654 184.768 407.409 183.312 406.545 181.413C405.707 179.489 405.287 177.146 405.287 174.383C405.287 171.448 405.805 168.969 406.841 166.946C407.877 164.923 409.32 163.394 411.17 162.358C413.02 161.322 415.142 160.804 417.534 160.804C418.768 160.804 419.939 160.927 421.049 161.174C422.184 161.421 423.158 161.803 423.972 162.321L422.566 165.207C421.9 164.738 421.136 164.418 420.272 164.245C419.434 164.072 418.546 163.986 417.608 163.986C414.969 163.986 412.872 164.812 411.318 166.465C409.764 168.093 408.987 170.523 408.987 173.754C408.987 174.272 409.012 174.889 409.061 175.604C409.111 176.319 409.234 177.022 409.431 177.713L408.173 176.455C408.543 175.32 409.123 174.371 409.912 173.606C410.726 172.817 411.688 172.237 412.798 171.867C413.933 171.472 415.154 171.275 416.461 171.275C418.188 171.275 419.717 171.596 421.049 172.237C422.381 172.878 423.43 173.791 424.194 174.975C424.959 176.134 425.341 177.516 425.341 179.119C425.341 180.772 424.934 182.215 424.12 183.448C423.306 184.681 422.209 185.631 420.827 186.297C419.446 186.963 417.892 187.296 416.165 187.296ZM416.017 184.299C417.152 184.299 418.139 184.089 418.977 183.67C419.841 183.251 420.519 182.671 421.012 181.931C421.506 181.166 421.752 180.278 421.752 179.267C421.752 177.738 421.222 176.529 420.161 175.641C419.101 174.728 417.658 174.272 415.832 174.272C414.648 174.272 413.612 174.494 412.724 174.938C411.836 175.382 411.133 175.986 410.615 176.751C410.122 177.491 409.875 178.342 409.875 179.304C409.875 180.192 410.11 181.018 410.578 181.783C411.047 182.523 411.738 183.127 412.65 183.596C413.563 184.065 414.685 184.299 416.017 184.299Z" fill="#292C33"/>
<path d="M388.246 245V242.484L398.791 232.309C399.728 231.421 400.419 230.644 400.863 229.978C401.332 229.287 401.64 228.658 401.788 228.091C401.961 227.499 402.047 226.932 402.047 226.389C402.047 225.057 401.578 224.009 400.641 223.244C399.704 222.479 398.335 222.097 396.534 222.097C395.153 222.097 393.907 222.331 392.797 222.8C391.687 223.244 390.725 223.947 389.911 224.909L387.395 222.726C388.382 221.468 389.701 220.506 391.354 219.84C393.031 219.149 394.869 218.804 396.867 218.804C398.668 218.804 400.234 219.1 401.566 219.692C402.898 220.259 403.922 221.086 404.637 222.171C405.377 223.256 405.747 224.539 405.747 226.019C405.747 226.858 405.636 227.684 405.414 228.498C405.192 229.312 404.773 230.175 404.156 231.088C403.539 232.001 402.651 233.024 401.492 234.159L392.094 243.224L391.206 241.781H406.857V245H388.246ZM417.817 245.296C415.992 245.296 414.216 245.012 412.489 244.445C410.787 243.878 409.393 243.113 408.308 242.151L410.01 239.228C410.873 240.042 411.996 240.708 413.377 241.226C414.758 241.744 416.238 242.003 417.817 242.003C419.741 242.003 421.233 241.596 422.294 240.782C423.379 239.943 423.922 238.821 423.922 237.415C423.922 236.058 423.404 234.973 422.368 234.159C421.357 233.32 419.741 232.901 417.521 232.901H415.449V230.311L423.145 220.839L423.663 222.319H409.492V219.1H426.586V221.616L418.927 231.051L417.003 229.904H418.224C421.357 229.904 423.7 230.607 425.254 232.013C426.833 233.419 427.622 235.207 427.622 237.378C427.622 238.833 427.264 240.165 426.549 241.374C425.834 242.583 424.748 243.545 423.293 244.26C421.862 244.951 420.037 245.296 417.817 245.296Z" fill="#292C33"/>
<path d="M394.853 303.296C393.027 303.296 391.251 303.012 389.525 302.445C387.823 301.878 386.429 301.113 385.344 300.151L387.046 297.228C387.909 298.042 389.031 298.708 390.413 299.226C391.794 299.744 393.274 300.003 394.853 300.003C396.777 300.003 398.269 299.596 399.33 298.782C400.415 297.943 400.958 296.821 400.958 295.415C400.958 294.058 400.44 292.973 399.404 292.159C398.392 291.32 396.777 290.901 394.557 290.901H392.485V288.311L400.181 278.839L400.699 280.319H386.528V277.1H403.622V279.616L395.963 289.051L394.039 287.904H395.26C398.392 287.904 400.736 288.607 402.29 290.013C403.868 291.419 404.658 293.207 404.658 295.378C404.658 296.833 404.3 298.165 403.585 299.374C402.869 300.583 401.784 301.545 400.329 302.26C398.898 302.951 397.073 303.296 394.853 303.296ZM418.691 303.296C416.668 303.296 414.855 302.778 413.252 301.742C411.673 300.706 410.415 299.201 409.478 297.228C408.565 295.255 408.109 292.862 408.109 290.05C408.109 287.238 408.565 284.845 409.478 282.872C410.415 280.899 411.673 279.394 413.252 278.358C414.855 277.322 416.668 276.804 418.691 276.804C420.689 276.804 422.489 277.322 424.093 278.358C425.696 279.394 426.954 280.899 427.867 282.872C428.779 284.845 429.236 287.238 429.236 290.05C429.236 292.862 428.779 295.255 427.867 297.228C426.954 299.201 425.696 300.706 424.093 301.742C422.489 302.778 420.689 303.296 418.691 303.296ZM418.691 300.003C420.047 300.003 421.231 299.633 422.243 298.893C423.279 298.153 424.08 297.043 424.648 295.563C425.24 294.083 425.536 292.245 425.536 290.05C425.536 287.855 425.24 286.017 424.648 284.537C424.08 283.057 423.279 281.947 422.243 281.207C421.231 280.467 420.047 280.097 418.691 280.097C417.334 280.097 416.138 280.467 415.102 281.207C414.066 281.947 413.252 283.057 412.66 284.537C412.092 286.017 411.809 287.855 411.809 290.05C411.809 292.245 412.092 294.083 412.66 295.563C413.252 297.043 414.066 298.153 415.102 298.893C416.138 299.633 417.334 300.003 418.691 300.003Z" fill="#292C33"/>
<path d="M23.1535 129.296C21.3282 129.296 19.5522 129.012 17.8255 128.445C16.1235 127.878 14.7298 127.113 13.6445 126.151L15.3465 123.228C16.2098 124.042 17.3322 124.708 18.7135 125.226C20.0948 125.744 21.5748 126.003 23.1535 126.003C25.0775 126.003 26.5698 125.596 27.6305 124.782C28.7158 123.943 29.2585 122.821 29.2585 121.415C29.2585 120.058 28.7405 118.973 27.7045 118.159C26.6932 117.32 25.0775 116.901 22.8575 116.901H20.7855V114.311L28.4815 104.839L28.9995 106.319H14.8285V103.1H31.9225V105.616L24.2635 115.051L22.3395 113.904H23.5605C26.6932 113.904 29.0365 114.607 30.5905 116.013C32.1692 117.419 32.9585 119.207 32.9585 121.378C32.9585 122.833 32.6008 124.165 31.8855 125.374C31.1702 126.583 30.0848 127.545 28.6295 128.26C27.1988 128.951 25.3735 129.296 23.1535 129.296Z" fill="#292C33"/>
<path d="M11.0022 187V162.58L12.5932 164.319H5.15625V161.1H14.6652V187H11.0022ZM30.9125 187.296C28.8899 187.296 27.0769 186.778 25.4735 185.742C23.8949 184.706 22.6369 183.201 21.6995 181.228C20.7869 179.255 20.3305 176.862 20.3305 174.05C20.3305 171.238 20.7869 168.845 21.6995 166.872C22.6369 164.899 23.8949 163.394 25.4735 162.358C27.0769 161.322 28.8899 160.804 30.9125 160.804C32.9105 160.804 34.7112 161.322 36.3145 162.358C37.9179 163.394 39.1759 164.899 40.0885 166.872C41.0012 168.845 41.4575 171.238 41.4575 174.05C41.4575 176.862 41.0012 179.255 40.0885 181.228C39.1759 183.201 37.9179 184.706 36.3145 185.742C34.7112 186.778 32.9105 187.296 30.9125 187.296ZM30.9125 184.003C32.2692 184.003 33.4532 183.633 34.4645 182.893C35.5005 182.153 36.3022 181.043 36.8695 179.563C37.4615 178.083 37.7575 176.245 37.7575 174.05C37.7575 171.855 37.4615 170.017 36.8695 168.537C36.3022 167.057 35.5005 165.947 34.4645 165.207C33.4532 164.467 32.2692 164.097 30.9125 164.097C29.5559 164.097 28.3595 164.467 27.3235 165.207C26.2875 165.947 25.4735 167.057 24.8815 168.537C24.3142 170.017 24.0305 171.855 24.0305 174.05C24.0305 176.245 24.3142 178.083 24.8815 179.563C25.4735 181.043 26.2875 182.153 27.3235 182.893C28.3595 183.633 29.5559 184.003 30.9125 184.003Z" fill="#292C33"/>
<path d="M12.2835 245V220.58L13.8745 222.319H6.4375V219.1H15.9465V245H12.2835ZM26.0888 245L37.0778 220.654L38.0398 222.319H22.6478L24.4978 220.506V226.944H20.9458V219.1H40.4818V221.616L30.0108 245H26.0888Z" fill="#292C33"/>
<path d="M2.77678 303V300.484L13.3217 290.309C14.259 289.421 14.9497 288.644 15.3937 287.978C15.8624 287.287 16.1707 286.658 16.3187 286.091C16.4914 285.499 16.5777 284.932 16.5777 284.389C16.5777 283.057 16.109 282.009 15.1717 281.244C14.2344 280.479 12.8654 280.097 11.0647 280.097C9.68344 280.097 8.43778 280.331 7.32778 280.8C6.21778 281.244 5.25578 281.947 4.44178 282.909L1.92578 280.726C2.91244 279.468 4.23211 278.506 5.88478 277.84C7.56211 277.149 9.39974 276.804 11.3977 276.804C13.1984 276.804 14.7647 277.1 16.0967 277.692C17.4287 278.259 18.4524 279.086 19.1677 280.171C19.9077 281.256 20.2777 282.539 20.2777 284.019C20.2777 284.858 20.1667 285.684 19.9447 286.498C19.7227 287.312 19.3034 288.175 18.6867 289.088C18.07 290.001 17.182 291.024 16.0227 292.159L6.62478 301.224L5.73678 299.781H21.3877V303H2.77678ZM23.3371 296.636V294.046L36.5831 277.1H40.5791L27.4441 294.046L25.5571 293.454H46.2401V296.636H23.3371ZM37.7301 303V296.636L37.8411 293.454V287.83H41.3191V303H37.7301Z" fill="#292C33"/>
<path d="M76.5742 122.636V120.046L89.8202 103.1H93.8162L80.6812 120.046L78.7942 119.454H99.4779V122.636H76.5742ZM90.9672 129V122.636L91.0782 119.454V113.83H94.5562V129H90.9672Z" fill="#292C33"/>
<path d="M79.9944 187V162.58L81.5854 164.319H74.1484V161.1H83.6574V187H79.9944ZM93.6887 187V162.58L95.2797 164.319H87.8427V161.1H97.3517V187H93.6887Z" fill="#292C33"/>
<path d="M74.9358 245V220.58L76.5268 222.319H69.0898V219.1H78.5988V245H74.9358ZM94.3651 245.296C92.2684 245.296 90.4554 244.988 88.9261 244.371C87.3968 243.754 86.2128 242.879 85.3741 241.744C84.5354 240.585 84.1161 239.228 84.1161 237.674C84.1161 236.145 84.5108 234.85 85.3001 233.789C86.1141 232.704 87.2858 231.89 88.8151 231.347C90.3444 230.78 92.1944 230.496 94.3651 230.496C96.5358 230.496 98.3858 230.78 99.9159 231.347C101.47 231.89 102.654 232.704 103.468 233.789C104.281 234.874 104.689 236.169 104.689 237.674C104.689 239.228 104.269 240.585 103.431 241.744C102.592 242.879 101.396 243.754 99.8419 244.371C98.2871 244.988 96.4618 245.296 94.3651 245.296ZM94.3651 242.299C96.4371 242.299 98.0528 241.88 99.2129 241.041C100.397 240.178 100.989 239.018 100.989 237.563C100.989 236.132 100.397 235.01 99.2129 234.196C98.0528 233.357 96.4371 232.938 94.3651 232.938C92.3178 232.938 90.7144 233.357 89.5551 234.196C88.3958 235.01 87.8161 236.132 87.8161 237.563C87.8161 239.018 88.3958 240.178 89.5551 241.041C90.7144 241.88 92.3178 242.299 94.3651 242.299ZM94.3651 232.494C92.3918 232.494 90.7144 232.235 89.3331 231.717C87.9518 231.174 86.8911 230.41 86.1511 229.423C85.4111 228.412 85.0411 227.215 85.0411 225.834C85.0411 224.379 85.4234 223.133 86.1881 222.097C86.9774 221.036 88.0751 220.222 89.4811 219.655C90.8871 219.088 92.5151 218.804 94.3651 218.804C96.2398 218.804 97.8801 219.088 99.2869 219.655C100.693 220.222 101.789 221.036 102.579 222.097C103.369 223.133 103.764 224.379 103.764 225.834C103.764 227.215 103.394 228.412 102.654 229.423C101.914 230.41 100.841 231.174 99.4349 231.717C98.0281 232.235 96.3384 232.494 94.3651 232.494ZM94.3651 230.126C96.1658 230.126 97.5718 229.756 98.5831 229.016C99.6199 228.276 100.138 227.265 100.138 225.982C100.138 224.675 99.6069 223.651 98.5461 222.911C97.4854 222.171 96.0918 221.801 94.3651 221.801C92.6384 221.801 91.2571 222.171 90.2211 222.911C89.2098 223.651 88.7041 224.675 88.7041 225.982C88.7041 227.265 89.1974 228.276 90.1841 229.016C91.1954 229.756 92.5891 230.126 94.3651 230.126Z" fill="#292C33"/>
<path d="M67.6674 303V300.484L78.2124 290.309C79.1497 289.421 79.8404 288.644 80.2844 287.978C80.7531 287.287 81.0614 286.658 81.2094 286.091C81.3821 285.499 81.4684 284.932 81.4684 284.389C81.4684 283.057 80.9997 282.009 80.0624 281.244C79.1251 280.479 77.7561 280.097 75.9554 280.097C74.5741 280.097 73.3284 280.331 72.2184 280.8C71.1084 281.244 70.1464 281.947 69.3324 282.909L66.8164 280.726C67.8031 279.468 69.1227 278.506 70.7754 277.84C72.4527 277.149 74.2904 276.804 76.2884 276.804C78.0891 276.804 79.6554 277.1 80.9874 277.692C82.3194 278.259 83.3431 279.086 84.0584 280.171C84.7984 281.256 85.1684 282.539 85.1684 284.019C85.1684 284.858 85.0574 285.684 84.8354 286.498C84.6134 287.312 84.1941 288.175 83.5774 289.088C82.9607 290.001 82.0727 291.024 80.9134 292.159L71.5154 301.224L70.6274 299.781H86.2784V303H67.6674ZM97.6825 303.296C95.8572 303.296 94.0812 303.012 92.3545 302.445C90.6525 301.878 89.2588 301.113 88.1735 300.151L89.8755 297.228C90.7388 298.042 91.8612 298.708 93.2425 299.226C94.6238 299.744 96.0915 300.003 97.6455 300.003C99.6189 300.003 101.136 299.584 102.196 298.745C103.257 297.906 103.787 296.784 103.787 295.378C103.787 294.416 103.553 293.577 103.084 292.862C102.616 292.147 101.802 291.604 100.642 291.234C99.5079 290.839 97.9415 290.642 95.9435 290.642H90.0605L91.4295 277.1H106.044V280.319H92.7985L94.7225 278.506L93.6495 289.199L91.7255 287.423H96.7205C99.3099 287.423 101.395 287.756 102.973 288.422C104.552 289.088 105.699 290.013 106.414 291.197C107.13 292.356 107.487 293.701 107.487 295.23C107.487 296.71 107.13 298.067 106.414 299.3C105.699 300.509 104.614 301.483 103.158 302.223C101.728 302.938 99.9019 303.296 97.6825 303.296Z" fill="#292C33"/>
<path d="M151.021 129.296C149.196 129.296 147.42 129.012 145.693 128.445C143.991 127.878 142.598 127.113 141.512 126.151L143.214 123.228C144.078 124.042 145.2 124.708 146.581 125.226C147.963 125.744 149.43 126.003 150.984 126.003C152.958 126.003 154.475 125.584 155.535 124.745C156.596 123.906 157.126 122.784 157.126 121.378C157.126 120.416 156.892 119.577 156.423 118.862C155.955 118.147 155.141 117.604 153.981 117.234C152.847 116.839 151.28 116.642 149.282 116.642H143.399L144.768 103.1H159.383V106.319H146.137L148.061 104.506L146.988 115.199L145.064 113.423H150.059C152.649 113.423 154.734 113.756 156.312 114.422C157.891 115.088 159.038 116.013 159.753 117.197C160.469 118.356 160.826 119.701 160.826 121.23C160.826 122.71 160.469 124.067 159.753 125.3C159.038 126.509 157.953 127.483 156.497 128.223C155.067 128.938 153.241 129.296 151.021 129.296Z" fill="#292C33"/>
<path d="M140.178 187V162.58L141.769 164.319H134.332V161.1H143.841V187H140.178ZM149.1 187V184.484L159.645 174.309C160.582 173.421 161.273 172.644 161.717 171.978C162.185 171.287 162.494 170.658 162.642 170.091C162.814 169.499 162.901 168.932 162.901 168.389C162.901 167.057 162.432 166.009 161.495 165.244C160.557 164.479 159.188 164.097 157.388 164.097C156.006 164.097 154.761 164.331 153.651 164.8C152.541 165.244 151.579 165.947 150.765 166.909L148.249 164.726C149.235 163.468 150.555 162.506 152.208 161.84C153.885 161.149 155.723 160.804 157.721 160.804C159.521 160.804 161.088 161.1 162.42 161.692C163.752 162.259 164.775 163.086 165.491 164.171C166.231 165.256 166.601 166.539 166.601 168.019C166.601 168.858 166.49 169.684 166.268 170.498C166.046 171.312 165.626 172.175 165.01 173.088C164.393 174.001 163.505 175.024 162.346 176.159L152.948 185.224L152.06 183.781H167.711V187H149.1Z" fill="#292C33"/>
<path d="M139.381 245V220.58L140.972 222.319H133.535V219.1H143.044V245H139.381ZM157.109 218.804C159.452 218.804 161.425 219.31 163.029 220.321C164.657 221.332 165.89 222.8 166.729 224.724C167.567 226.623 167.987 228.954 167.987 231.717C167.987 234.652 167.469 237.131 166.433 239.154C165.397 241.177 163.966 242.706 162.141 243.742C160.315 244.778 158.182 245.296 155.74 245.296C154.531 245.296 153.359 245.173 152.225 244.926C151.115 244.679 150.14 244.297 149.302 243.779L150.708 240.893C151.398 241.337 152.163 241.658 153.002 241.855C153.865 242.028 154.765 242.114 155.703 242.114C158.317 242.114 160.402 241.3 161.956 239.672C163.51 238.019 164.287 235.577 164.287 232.346C164.287 231.828 164.262 231.211 164.213 230.496C164.163 229.781 164.052 229.078 163.88 228.387L165.101 229.645C164.755 230.78 164.176 231.742 163.362 232.531C162.572 233.296 161.61 233.875 160.476 234.27C159.366 234.64 158.145 234.825 156.813 234.825C155.111 234.825 153.594 234.504 152.262 233.863C150.93 233.222 149.881 232.321 149.117 231.162C148.352 229.978 147.97 228.584 147.97 226.981C147.97 225.304 148.364 223.861 149.154 222.652C149.968 221.419 151.065 220.469 152.447 219.803C153.853 219.137 155.407 218.804 157.109 218.804ZM157.257 221.801C156.147 221.801 155.16 222.011 154.297 222.43C153.433 222.849 152.755 223.429 152.262 224.169C151.793 224.909 151.559 225.797 151.559 226.833C151.559 228.362 152.089 229.583 153.15 230.496C154.21 231.384 155.641 231.828 157.442 231.828C158.626 231.828 159.662 231.606 160.55 231.162C161.462 230.718 162.165 230.114 162.659 229.349C163.177 228.584 163.436 227.733 163.436 226.796C163.436 225.883 163.201 225.057 162.733 224.317C162.264 223.577 161.573 222.973 160.661 222.504C159.748 222.035 158.613 221.801 157.257 221.801Z" fill="#292C33"/>
<path d="M130.851 303V300.484L141.396 290.309C142.334 289.421 143.024 288.644 143.468 287.978C143.937 287.287 144.245 286.658 144.393 286.091C144.566 285.499 144.652 284.932 144.652 284.389C144.652 283.057 144.184 282.009 143.246 281.244C142.309 280.479 140.94 280.097 139.139 280.097C137.758 280.097 136.512 280.331 135.402 280.8C134.292 281.244 133.33 281.947 132.516 282.909L130 280.726C130.987 279.468 132.307 278.506 133.959 277.84C135.637 277.149 137.474 276.804 139.472 276.804C141.273 276.804 142.839 277.1 144.171 277.692C145.503 278.259 146.527 279.086 147.242 280.171C147.982 281.256 148.352 282.539 148.352 284.019C148.352 284.858 148.241 285.684 148.019 286.498C147.797 287.312 147.378 288.175 146.761 289.088C146.145 290.001 145.257 291.024 144.097 292.159L134.699 301.224L133.811 299.781H149.462V303H130.851ZM163.346 303.296C161.052 303.296 159.091 302.79 157.463 301.779C155.835 300.768 154.59 299.312 153.726 297.413C152.888 295.489 152.468 293.146 152.468 290.383C152.468 287.448 152.986 284.969 154.022 282.946C155.058 280.923 156.501 279.394 158.351 278.358C160.201 277.322 162.323 276.804 164.715 276.804C165.949 276.804 167.12 276.927 168.23 277.174C169.365 277.421 170.339 277.803 171.153 278.321L169.747 281.207C169.081 280.738 168.317 280.418 167.453 280.245C166.615 280.072 165.727 279.986 164.789 279.986C162.15 279.986 160.053 280.812 158.499 282.465C156.945 284.093 156.168 286.523 156.168 289.754C156.168 290.272 156.193 290.889 156.242 291.604C156.292 292.319 156.415 293.022 156.612 293.713L155.354 292.455C155.724 291.32 156.304 290.371 157.093 289.606C157.907 288.817 158.869 288.237 159.979 287.867C161.114 287.472 162.335 287.275 163.642 287.275C165.369 287.275 166.898 287.596 168.23 288.237C169.562 288.878 170.611 289.791 171.375 290.975C172.14 292.134 172.522 293.516 172.522 295.119C172.522 296.772 172.115 298.215 171.301 299.448C170.487 300.681 169.39 301.631 168.008 302.297C166.627 302.963 165.073 303.296 163.346 303.296ZM163.198 300.299C164.333 300.299 165.32 300.089 166.158 299.67C167.022 299.251 167.7 298.671 168.193 297.931C168.687 297.166 168.933 296.278 168.933 295.267C168.933 293.738 168.403 292.529 167.342 291.641C166.282 290.728 164.839 290.272 163.013 290.272C161.829 290.272 160.793 290.494 159.905 290.938C159.017 291.382 158.314 291.986 157.796 292.751C157.303 293.491 157.056 294.342 157.056 295.304C157.056 296.192 157.291 297.018 157.759 297.783C158.228 298.523 158.919 299.127 159.831 299.596C160.744 300.065 161.866 300.299 163.198 300.299Z" fill="#292C33"/>
<path d="M216.28 129.296C213.986 129.296 212.025 128.79 210.397 127.779C208.769 126.768 207.524 125.312 206.66 123.413C205.822 121.489 205.402 119.146 205.402 116.383C205.402 113.448 205.92 110.969 206.956 108.946C207.992 106.923 209.435 105.394 211.285 104.358C213.135 103.322 215.257 102.804 217.649 102.804C218.883 102.804 220.054 102.927 221.164 103.174C222.299 103.421 223.273 103.803 224.087 104.321L222.681 107.207C222.015 106.738 221.251 106.418 220.387 106.245C219.549 106.072 218.661 105.986 217.723 105.986C215.084 105.986 212.987 106.812 211.433 108.465C209.879 110.093 209.102 112.523 209.102 115.754C209.102 116.272 209.127 116.889 209.176 117.604C209.226 118.319 209.349 119.022 209.546 119.713L208.288 118.455C208.658 117.32 209.238 116.371 210.027 115.606C210.841 114.817 211.803 114.237 212.913 113.867C214.048 113.472 215.269 113.275 216.576 113.275C218.303 113.275 219.832 113.596 221.164 114.237C222.496 114.878 223.545 115.791 224.309 116.975C225.074 118.134 225.456 119.516 225.456 121.119C225.456 122.772 225.049 124.215 224.235 125.448C223.421 126.681 222.324 127.631 220.942 128.297C219.561 128.963 218.007 129.296 216.28 129.296ZM216.132 126.299C217.267 126.299 218.254 126.089 219.092 125.67C219.956 125.251 220.634 124.671 221.127 123.931C221.621 123.166 221.867 122.278 221.867 121.267C221.867 119.738 221.337 118.529 220.276 117.641C219.216 116.728 217.773 116.272 215.947 116.272C214.763 116.272 213.727 116.494 212.839 116.938C211.951 117.382 211.248 117.986 210.73 118.751C210.237 119.491 209.99 120.342 209.99 121.304C209.99 122.192 210.225 123.018 210.693 123.783C211.162 124.523 211.853 125.127 212.765 125.596C213.678 126.065 214.8 126.299 216.132 126.299Z" fill="#292C33"/>
<path d="M203.752 187V162.58L205.343 164.319H197.906V161.1H207.415V187H203.752ZM220.998 187.296C219.173 187.296 217.397 187.012 215.67 186.445C213.968 185.878 212.575 185.113 211.489 184.151L213.191 181.228C214.055 182.042 215.177 182.708 216.558 183.226C217.94 183.744 219.42 184.003 220.998 184.003C222.922 184.003 224.415 183.596 225.475 182.782C226.561 181.943 227.103 180.821 227.103 179.415C227.103 178.058 226.585 176.973 225.549 176.159C224.538 175.32 222.922 174.901 220.702 174.901H218.63V172.311L226.326 162.839L226.844 164.319H212.673V161.1H229.767V163.616L222.108 173.051L220.184 171.904H221.405C224.538 171.904 226.881 172.607 228.435 174.013C230.014 175.419 230.803 177.207 230.803 179.378C230.803 180.833 230.446 182.165 229.73 183.374C229.015 184.583 227.93 185.545 226.474 186.26C225.044 186.951 223.218 187.296 220.998 187.296Z" fill="#292C33"/>
<path d="M193.468 245V242.484L204.013 232.309C204.95 231.421 205.641 230.644 206.085 229.978C206.554 229.287 206.862 228.658 207.01 228.091C207.183 227.499 207.269 226.932 207.269 226.389C207.269 225.057 206.8 224.009 205.863 223.244C204.926 222.479 203.557 222.097 201.756 222.097C200.375 222.097 199.129 222.331 198.019 222.8C196.909 223.244 195.947 223.947 195.133 224.909L192.617 222.726C193.604 221.468 194.923 220.506 196.576 219.84C198.253 219.149 200.091 218.804 202.089 218.804C203.89 218.804 205.456 219.1 206.788 219.692C208.12 220.259 209.144 221.086 209.859 222.171C210.599 223.256 210.969 224.539 210.969 226.019C210.969 226.858 210.858 227.684 210.636 228.498C210.414 229.312 209.995 230.175 209.378 231.088C208.761 232.001 207.873 233.024 206.714 234.159L197.316 243.224L196.428 241.781H212.079V245H193.468ZM225.667 245.296C223.644 245.296 221.831 244.778 220.228 243.742C218.649 242.706 217.391 241.201 216.454 239.228C215.541 237.255 215.085 234.862 215.085 232.05C215.085 229.238 215.541 226.845 216.454 224.872C217.391 222.899 218.649 221.394 220.228 220.358C221.831 219.322 223.644 218.804 225.667 218.804C227.665 218.804 229.465 219.322 231.069 220.358C232.672 221.394 233.93 222.899 234.843 224.872C235.755 226.845 236.212 229.238 236.212 232.05C236.212 234.862 235.755 237.255 234.843 239.228C233.93 241.201 232.672 242.706 231.069 243.742C229.465 244.778 227.665 245.296 225.667 245.296ZM225.667 242.003C227.023 242.003 228.207 241.633 229.219 240.893C230.255 240.153 231.056 239.043 231.624 237.563C232.216 236.083 232.512 234.245 232.512 232.05C232.512 229.855 232.216 228.017 231.624 226.537C231.056 225.057 230.255 223.947 229.219 223.207C228.207 222.467 227.023 222.097 225.667 222.097C224.31 222.097 223.114 222.467 222.078 223.207C221.042 223.947 220.228 225.057 219.636 226.537C219.068 228.017 218.785 229.855 218.785 232.05C218.785 234.245 219.068 236.083 219.636 237.563C220.228 239.043 221.042 240.153 222.078 240.893C223.114 241.633 224.31 242.003 225.667 242.003Z" fill="#292C33"/>
<path d="M194.753 303V300.484L205.298 290.309C206.235 289.421 206.926 288.644 207.37 287.978C207.838 287.287 208.147 286.658 208.295 286.091C208.467 285.499 208.554 284.932 208.554 284.389C208.554 283.057 208.085 282.009 207.148 281.244C206.21 280.479 204.841 280.097 203.041 280.097C201.659 280.097 200.414 280.331 199.304 280.8C198.194 281.244 197.232 281.947 196.418 282.909L193.902 280.726C194.888 279.468 196.208 278.506 197.861 277.84C199.538 277.149 201.376 276.804 203.374 276.804C205.174 276.804 206.741 277.1 208.073 277.692C209.405 278.259 210.428 279.086 211.144 280.171C211.884 281.256 212.254 282.539 212.254 284.019C212.254 284.858 212.143 285.684 211.921 286.498C211.699 287.312 211.279 288.175 210.663 289.088C210.046 290.001 209.158 291.024 207.999 292.159L198.601 301.224L197.713 299.781H213.364V303H194.753ZM220.847 303L231.836 278.654L232.798 280.319H217.406L219.256 278.506V284.944H215.704V277.1H235.24V279.616L224.769 303H220.847Z" fill="#292C33"/>
<path d="M266.963 187V162.58L268.554 164.319H261.117V161.1H270.626V187H266.963ZM275.921 180.636V178.046L289.167 161.1H293.163L280.028 178.046L278.141 177.454H298.824V180.636H275.921ZM290.314 187V180.636L290.425 177.454V171.83H293.903V187H290.314Z" fill="#292C33"/>
<path d="M263.945 245V242.484L274.49 232.309C275.427 231.421 276.118 230.644 276.562 229.978C277.031 229.287 277.339 228.658 277.487 228.091C277.66 227.499 277.746 226.932 277.746 226.389C277.746 225.057 277.277 224.009 276.34 223.244C275.403 222.479 274.034 222.097 272.233 222.097C270.852 222.097 269.606 222.331 268.496 222.8C267.386 223.244 266.424 223.947 265.61 224.909L263.094 222.726C264.081 221.468 265.4 220.506 267.053 219.84C268.73 219.149 270.568 218.804 272.566 218.804C274.367 218.804 275.933 219.1 277.265 219.692C278.597 220.259 279.621 221.086 280.336 222.171C281.076 223.256 281.446 224.539 281.446 226.019C281.446 226.858 281.335 227.684 281.113 228.498C280.891 229.312 280.472 230.175 279.855 231.088C279.238 232.001 278.35 233.024 277.191 234.159L267.793 243.224L266.905 241.781H282.556V245H263.945ZM289.964 245V220.58L291.555 222.319H284.118V219.1H293.627V245H289.964Z" fill="#292C33"/>
<path d="M258.886 303V300.484L269.431 290.309C270.369 289.421 271.059 288.644 271.503 287.978C271.972 287.287 272.28 286.658 272.428 286.091C272.601 285.499 272.687 284.932 272.687 284.389C272.687 283.057 272.219 282.009 271.281 281.244C270.344 280.479 268.975 280.097 267.174 280.097C265.793 280.097 264.547 280.331 263.437 280.8C262.327 281.244 261.365 281.947 260.551 282.909L258.035 280.726C259.022 279.468 260.342 278.506 261.994 277.84C263.672 277.149 265.509 276.804 267.507 276.804C269.308 276.804 270.874 277.1 272.206 277.692C273.538 278.259 274.562 279.086 275.277 280.171C276.017 281.256 276.387 282.539 276.387 284.019C276.387 284.858 276.276 285.684 276.054 286.498C275.832 287.312 275.413 288.175 274.796 289.088C274.18 290.001 273.292 291.024 272.132 292.159L262.734 301.224L261.846 299.781H277.497V303H258.886ZM290.64 303.296C288.544 303.296 286.731 302.988 285.201 302.371C283.672 301.754 282.488 300.879 281.649 299.744C280.811 298.585 280.391 297.228 280.391 295.674C280.391 294.145 280.786 292.85 281.575 291.789C282.389 290.704 283.561 289.89 285.09 289.347C286.62 288.78 288.47 288.496 290.64 288.496C292.811 288.496 294.661 288.78 296.19 289.347C297.744 289.89 298.928 290.704 299.742 291.789C300.556 292.874 300.963 294.169 300.963 295.674C300.963 297.228 300.544 298.585 299.705 299.744C298.867 300.879 297.67 301.754 296.116 302.371C294.562 302.988 292.737 303.296 290.64 303.296ZM290.64 300.299C292.712 300.299 294.328 299.88 295.487 299.041C296.671 298.178 297.263 297.018 297.263 295.563C297.263 294.132 296.671 293.01 295.487 292.196C294.328 291.357 292.712 290.938 290.64 290.938C288.593 290.938 286.99 291.357 285.83 292.196C284.671 293.01 284.091 294.132 284.091 295.563C284.091 297.018 284.671 298.178 285.83 299.041C286.99 299.88 288.593 300.299 290.64 300.299ZM290.64 290.494C288.667 290.494 286.99 290.235 285.608 289.717C284.227 289.174 283.166 288.41 282.426 287.423C281.686 286.412 281.316 285.215 281.316 283.834C281.316 282.379 281.699 281.133 282.463 280.097C283.253 279.036 284.35 278.222 285.756 277.655C287.162 277.088 288.79 276.804 290.64 276.804C292.515 276.804 294.155 277.088 295.561 277.655C296.967 278.222 298.065 279.036 298.854 280.097C299.644 281.133 300.038 282.379 300.038 283.834C300.038 285.215 299.668 286.412 298.928 287.423C298.188 288.41 297.115 289.174 295.709 289.717C294.303 290.235 292.614 290.494 290.64 290.494ZM290.64 288.126C292.441 288.126 293.847 287.756 294.858 287.016C295.894 286.276 296.412 285.265 296.412 283.982C296.412 282.675 295.882 281.651 294.821 280.911C293.761 280.171 292.367 279.801 290.64 279.801C288.914 279.801 287.532 280.171 286.496 280.911C285.485 281.651 284.979 282.675 284.979 283.982C284.979 285.265 285.473 286.276 286.459 287.016C287.471 287.756 288.864 288.126 290.64 288.126Z" fill="#292C33"/>
<path d="M275.241 129L286.23 104.654L287.192 106.319H271.8L273.65 104.506V110.944H270.098V103.1H289.634V105.616L279.163 129H275.241Z" fill="#292C33"/>
<path d="M16.2043 359.346C14.379 359.346 12.603 359.062 10.8763 358.495C9.17431 357.928 7.78071 357.163 6.69531 356.201L8.39732 353.278C9.26072 354.092 10.383 354.758 11.7643 355.276C13.1457 355.794 14.6257 356.053 16.2043 356.053C18.1283 356.053 19.6207 355.646 20.6813 354.832C21.7667 353.993 22.3093 352.871 22.3093 351.465C22.3093 350.108 21.7913 349.023 20.7553 348.209C19.744 347.37 18.1283 346.951 15.9083 346.951H13.8363V344.361L21.5323 334.889L22.0503 336.369H7.87931V333.15H24.9733V335.666L17.3143 345.101L15.3903 343.954H16.6113C19.744 343.954 22.0873 344.657 23.6413 346.063C25.22 347.469 26.0093 349.257 26.0093 351.428C26.0093 352.883 25.6517 354.215 24.9363 355.424C24.221 356.633 23.1357 357.595 21.6803 358.31C20.2497 359.001 18.4243 359.346 16.2043 359.346ZM33.8258 359.05V334.63L35.4168 336.369H27.9802V333.15H37.4888V359.05H33.8258Z" fill="#292C33"/>
</g>
<defs>
<clipPath id="clip0_5595_6578">
<rect width="432" height="359" fill="white"/>
</clipPath>
</defs>
</svg>
