<svg width="432" height="366" viewBox="0 0 432 366" fill="none" xmlns="http://www.w3.org/2000/svg">
<path d="M23.4554 20.7264H20.8466V3.36139H11.3896V20.7264H8.69922V1.32324H23.3739V20.7264H23.4554Z" fill="#B3B3B3"/>
<path d="M39.2715 20.7265H36.6626V14.612H30.2221V20.7265H27.6133V6.29639H30.2221V12.5739H36.6626V6.29639H39.2715V20.7265Z" fill="#B3B3B3"/>
<path d="M73.4961 20.7264V1.32324H79.8551C81.8933 1.32324 83.4423 1.73087 84.5836 2.62766C85.725 3.52444 86.2957 4.82886 86.2957 6.5409C86.2957 7.35616 86.0511 8.08989 85.5619 8.82363C85.0728 9.55736 84.339 9.96499 83.5238 10.2911C84.8282 10.4541 85.8065 11.0248 86.5402 11.9216C87.274 12.8184 87.6816 13.9598 87.6816 15.1826C87.6816 16.9762 87.1109 18.2806 85.9696 19.2589C84.8282 20.2373 83.2792 20.6449 81.2411 20.6449H73.4961V20.7264ZM76.1865 9.55736H80.4258C81.4041 9.55736 82.2194 9.31278 82.7901 8.7421C83.4423 8.17142 83.6868 7.43769 83.6868 6.45937C83.6868 5.39954 83.3607 4.6658 82.7085 4.09512C82.0563 3.60597 81.078 3.27986 79.8551 3.27986H76.1865V9.55736ZM76.1865 11.5955V18.6067H81.2411C82.4639 18.6067 83.3607 18.2806 84.0129 17.71C84.6652 17.1393 84.9913 16.2425 84.9913 15.1826C84.9913 14.1228 84.6652 13.226 84.0129 12.5738C83.3607 11.9216 82.4639 11.5955 81.2411 11.514H81.078H76.1865V11.5955Z" fill="#B3B3B3"/>
<path d="M101.624 8.33454H96.896V20.7265H94.2871V8.33454H89.5586V6.29639H101.624V8.33454Z" fill="#B3B3B3"/>
<path d="M151.008 14.5304C151.089 16.4055 150.437 17.9545 149.133 19.1773C147.828 20.4002 146.116 21.0524 143.915 21.0524C141.714 21.0524 139.92 20.2372 138.534 18.6882C137.148 17.1392 136.496 15.1826 136.496 12.7368V9.31271C136.496 6.94846 137.148 4.91031 138.534 3.36132C139.92 1.81233 141.714 0.99707 143.915 0.99707C146.116 0.99707 147.828 1.56775 149.133 2.70911C150.437 3.85048 151.089 5.39947 151.008 7.35609V7.43762H148.48C148.48 6.05168 148.073 4.99184 147.257 4.17658C146.442 3.36132 145.301 2.95369 143.833 2.95369C142.366 2.95369 141.225 3.52437 140.328 4.74726C139.431 5.88862 139.023 7.35609 139.023 9.14966V12.6553C139.023 14.4488 139.431 15.9163 140.328 17.0577C141.225 18.199 142.366 18.8512 143.833 18.8512C145.301 18.8512 146.442 18.4436 147.257 17.7099C148.073 16.8946 148.48 15.8348 148.48 14.4488H151.008V14.5304Z" fill="#B3B3B3"/>
<path d="M166.416 14.0413C166.416 16.161 165.927 17.7915 164.948 19.0959C163.97 20.4003 162.584 20.971 160.791 20.971C159.894 20.971 159.16 20.8079 158.426 20.5634C157.774 20.2373 157.203 19.8296 156.714 19.259V26.2702H154.105V6.29634H156.144L156.551 8.17143C157.04 7.4377 157.611 6.94854 158.345 6.62244C159.079 6.29634 159.894 6.05176 160.791 6.05176C162.584 6.05176 163.97 6.78549 164.948 8.17143C165.927 9.55737 166.416 11.4325 166.416 13.7967V14.0413ZM163.807 13.7967C163.807 12.1662 163.481 10.7803 162.829 9.80195C162.177 8.82364 161.198 8.25296 159.975 8.25296C159.242 8.25296 158.589 8.41601 158.019 8.74211C157.448 9.06822 157.04 9.55737 156.714 10.1281V17.1393C157.04 17.71 157.448 18.1991 158.019 18.5252C158.589 18.8513 159.242 19.0144 159.975 19.0144C161.198 19.0144 162.177 18.5252 162.829 17.6284C163.481 16.7317 163.807 15.5088 163.807 14.1228V13.7967Z" fill="#B3B3B3"/>
<path d="M215.926 1.32324V20.7264H213.317V12.6553C212.502 12.8999 211.687 13.063 210.871 13.226C210.056 13.3076 209.159 13.3891 208.018 13.3891C205.898 13.3891 204.268 12.8999 203.127 12.0031C201.985 11.1064 201.496 9.55736 201.496 7.43769V1.32324H204.105V7.43769C204.105 8.90515 204.431 9.88346 205.002 10.4541C205.654 11.0248 206.632 11.2694 207.937 11.2694C208.833 11.2694 209.73 11.1879 210.627 11.1064C211.442 10.9433 212.339 10.7802 213.236 10.5357V1.32324H215.926Z" fill="#B3B3B3"/>
<path d="M231.17 8.33454H226.442V20.7265H223.833V8.33454H219.105V6.29639H231.17V8.33454Z" fill="#B3B3B3"/>
<path d="M280.171 20.7264H277.562V3.36139H268.105V20.7264H265.496V1.32324H280.171V20.7264Z" fill="#B3B3B3"/>
<path d="M295.418 8.33453H290.689V20.7265H288.081V8.33453H283.352V6.29639H295.418V8.33453Z" fill="#B3B3B3"/>
<path d="M345.008 14.5299C345.089 16.405 344.437 17.954 343.133 19.1769C341.828 20.3998 340.116 21.052 337.915 21.052C335.714 21.052 333.92 20.2367 332.534 18.6877C331.148 17.1387 330.496 15.1821 330.496 12.7363V9.31223C330.496 6.94798 331.148 4.90983 332.534 3.36084C333.92 1.81185 335.714 0.996582 337.915 0.996582C340.116 0.996582 341.828 1.56727 343.133 2.70863C344.437 3.84999 345.089 5.39899 345.008 7.35561V7.43713H342.48C342.48 6.05119 342.073 4.99136 341.257 4.1761C340.442 3.36084 339.301 2.95321 337.833 2.95321C336.366 2.95321 335.225 3.52389 334.328 4.74678C333.431 5.88814 333.023 7.35561 333.023 9.14918V12.6548C333.023 14.4484 333.431 15.9158 334.328 17.0572C335.225 18.1986 336.366 18.8508 337.833 18.8508C339.301 18.8508 340.442 18.4431 341.257 17.7094C342.073 16.8941 342.48 15.8343 342.48 14.4484H345.008V14.5299Z" fill="#B3B3B3"/>
<path d="M354.383 6.05149C356.258 6.05149 357.644 6.7037 358.704 8.08964C359.764 9.47558 360.334 11.1876 360.334 13.3888V13.7149C360.334 15.8346 359.764 17.6282 358.622 19.0141C357.481 20.4 355.932 21.0523 353.894 21.0523C351.856 21.0523 350.307 20.4 349.165 19.0141C348.024 17.6282 347.453 15.9161 347.453 13.7149V13.3888C347.453 13.3073 347.453 13.2258 347.453 13.2258C347.453 13.1442 347.453 13.1442 347.453 13.0627V9.96473C347.453 7.19285 348.024 5.23623 349.084 3.93182C350.144 2.6274 351.774 1.97519 353.894 1.81214C355.117 1.73062 356.095 1.56756 356.747 1.32299C357.399 1.07841 357.726 0.670779 357.726 0.100098H359.764V0.181624C359.845 1.56756 359.356 2.54587 358.378 3.11656C357.399 3.68724 356.013 4.01334 354.138 4.01334C352.752 4.01334 351.693 4.42097 350.877 5.1547C350.062 5.88844 349.654 6.94827 349.654 8.33421V8.41574C350.144 7.76353 350.877 7.19285 351.693 6.78522C352.508 6.37759 353.486 6.05149 354.383 6.05149ZM353.894 8.08964C352.671 8.08964 351.693 8.57879 351.04 9.5571C350.388 10.5354 350.062 11.8398 350.062 13.3073V13.6334C350.062 15.1824 350.388 16.4053 351.04 17.3836C351.693 18.3619 352.671 18.8511 353.894 18.8511C355.117 18.8511 356.095 18.3619 356.747 17.3836C357.399 16.4053 357.726 15.1009 357.726 13.6334V13.3073C357.726 11.7583 357.399 10.5354 356.747 9.5571C356.095 8.57879 355.117 8.08964 353.894 8.08964Z" fill="#B3B3B3"/>
<path d="M394.496 20.7264V1.32324H400.855C402.893 1.32324 404.442 1.73087 405.584 2.62766C406.725 3.52444 407.296 4.82886 407.296 6.5409C407.296 7.35616 407.051 8.08989 406.562 8.82363C406.073 9.55736 405.339 9.96499 404.524 10.3726C405.828 10.5357 406.806 11.1064 407.54 12.0031C408.274 12.8999 408.682 14.0413 408.682 15.2642C408.682 17.0577 408.111 18.3622 406.969 19.3405C405.828 20.3188 404.279 20.7264 402.241 20.7264H394.496ZM397.186 9.55736H401.426C402.404 9.55736 403.219 9.31278 403.79 8.7421C404.442 8.17142 404.687 7.43769 404.687 6.45937C404.687 5.39954 404.361 4.6658 403.708 4.09512C403.056 3.60597 402.078 3.27986 400.855 3.27986H397.186V9.55736ZM397.186 11.5955V18.6067H402.241C403.464 18.6067 404.361 18.2806 405.013 17.71C405.665 17.1393 405.991 16.2425 405.991 15.1826C405.991 14.1228 405.665 13.226 405.013 12.5738C404.361 11.9216 403.464 11.5955 402.241 11.514H402.078H397.186V11.5955Z" fill="#B3B3B3"/>
<path d="M417.245 18.9329C418.061 18.9329 418.794 18.6883 419.365 18.1176C419.936 17.5469 420.262 16.8947 420.262 16.161H422.626V16.2425C422.626 17.4654 422.137 18.6068 420.996 19.5851C419.854 20.5634 418.631 21.0525 417.164 21.0525C415.126 21.0525 413.577 20.4003 412.435 19.0144C411.294 17.6284 410.805 15.9164 410.805 13.8783V13.3076C410.805 11.2694 411.376 9.55738 412.435 8.17144C413.577 6.7855 415.126 6.1333 417.082 6.1333C418.713 6.1333 420.017 6.62245 420.996 7.60076C421.974 8.57907 422.545 9.80196 422.463 11.2694V11.351H420.099C420.099 10.4542 419.773 9.72044 419.202 9.06823C418.631 8.41602 417.898 8.17144 417.001 8.17144C415.696 8.17144 414.8 8.6606 414.147 9.63891C413.577 10.6172 413.251 11.8401 413.251 13.3076V13.8783C413.251 15.3457 413.577 16.5686 414.147 17.5469C415.044 18.4437 415.941 18.9329 417.245 18.9329Z" fill="#B3B3B3"/>
<path d="M347.605 61.9781C352.785 62.4591 355.412 65.3821 355.412 69.3781C355.412 73.7441 352.193 77.2961 345.607 77.2961C341.907 77.2961 338.281 76.1121 336.098 74.1511L337.8 71.2281C339.539 72.8561 342.425 74.0031 345.607 74.0031C349.492 74.0031 351.712 72.2271 351.712 69.4151C351.712 66.6771 349.751 64.9011 345.311 64.9011H343.239V62.3111L349.751 54.3191H337.282V51.1001H354.376V53.6161L347.605 61.9781Z" fill="#292C33"/>
<path d="M330.643 135V110.58L332.234 112.319H324.797V109.1H334.306V135H330.643ZM350.553 135.296C348.53 135.296 346.717 134.778 345.114 133.742C343.535 132.706 342.277 131.201 341.34 129.228C340.427 127.255 339.971 124.862 339.971 122.05C339.971 119.238 340.427 116.845 341.34 114.872C342.277 112.899 343.535 111.394 345.114 110.358C346.717 109.322 348.53 108.804 350.553 108.804C352.551 108.804 354.352 109.322 355.955 110.358C357.558 111.394 358.816 112.899 359.729 114.872C360.642 116.845 361.098 119.238 361.098 122.05C361.098 124.862 360.642 127.255 359.729 129.228C358.816 131.201 357.558 132.706 355.955 133.742C354.352 134.778 352.551 135.296 350.553 135.296ZM350.553 132.003C351.91 132.003 353.094 131.633 354.105 130.893C355.141 130.153 355.943 129.043 356.51 127.563C357.102 126.083 357.398 124.245 357.398 122.05C357.398 119.855 357.102 118.017 356.51 116.537C355.943 115.057 355.141 113.947 354.105 113.207C353.094 112.467 351.91 112.097 350.553 112.097C349.196 112.097 348 112.467 346.964 113.207C345.928 113.947 345.114 115.057 344.522 116.537C343.955 118.017 343.671 119.855 343.671 122.05C343.671 124.245 343.955 126.083 344.522 127.563C345.114 129.043 345.928 130.153 346.964 130.893C348 131.633 349.196 132.003 350.553 132.003Z" fill="#292C33"/>
<path d="M331.924 192V167.58L333.515 169.319H326.078V166.1H335.587V192H331.924ZM345.729 192L356.718 167.654L357.68 169.319H342.288L344.138 167.506V173.944H340.586V166.1H360.122V168.616L349.651 192H345.729Z" fill="#292C33"/>
<path d="M322.417 249V246.484L332.962 236.309C333.9 235.421 334.59 234.644 335.034 233.978C335.503 233.287 335.811 232.658 335.959 232.091C336.132 231.499 336.218 230.932 336.218 230.389C336.218 229.057 335.75 228.009 334.812 227.244C333.875 226.479 332.506 226.097 330.705 226.097C329.324 226.097 328.078 226.331 326.968 226.8C325.858 227.244 324.896 227.947 324.082 228.909L321.566 226.726C322.553 225.468 323.873 224.506 325.525 223.84C327.203 223.149 329.04 222.804 331.038 222.804C332.839 222.804 334.405 223.1 335.737 223.692C337.069 224.259 338.093 225.086 338.808 226.171C339.548 227.256 339.918 228.539 339.918 230.019C339.918 230.858 339.807 231.684 339.585 232.498C339.363 233.312 338.944 234.175 338.327 235.088C337.711 236.001 336.823 237.024 335.663 238.159L326.265 247.224L325.377 245.781H341.028V249H322.417ZM342.978 242.636V240.046L356.224 223.1H360.22L347.085 240.046L345.198 239.454H365.881V242.636H342.978ZM357.371 249V242.636L357.482 239.454V233.83H360.96V249H357.371Z" fill="#292C33"/>
<path d="M416.27 67.4541V70.6361H411.349V77.0001H407.76V70.6361H393.367V68.0461L406.613 51.1001H410.609L397.918 67.4541H407.871V61.8301H411.349V67.4541H416.27Z" fill="#292C33"/>
<path d="M398.909 135V110.58L400.5 112.319H393.062V109.1H402.572V135H398.909ZM412.603 135V110.58L414.194 112.319H406.757V109.1H416.266V135H412.603Z" fill="#292C33"/>
<path d="M393.85 192V167.58L395.441 169.319H388.004V166.1H397.513V192H393.85ZM413.279 192.296C411.183 192.296 409.37 191.988 407.84 191.371C406.311 190.754 405.127 189.879 404.288 188.744C403.45 187.585 403.03 186.228 403.03 184.674C403.03 183.145 403.425 181.85 404.214 180.789C405.028 179.704 406.2 178.89 407.729 178.347C409.259 177.78 411.109 177.496 413.279 177.496C415.45 177.496 417.3 177.78 418.829 178.347C420.383 178.89 421.567 179.704 422.381 180.789C423.195 181.874 423.602 183.169 423.602 184.674C423.602 186.228 423.183 187.585 422.344 188.744C421.506 189.879 420.309 190.754 418.755 191.371C417.201 191.988 415.376 192.296 413.279 192.296ZM413.279 189.299C415.351 189.299 416.967 188.88 418.126 188.041C419.31 187.178 419.902 186.018 419.902 184.563C419.902 183.132 419.31 182.01 418.126 181.196C416.967 180.357 415.351 179.938 413.279 179.938C411.232 179.938 409.629 180.357 408.469 181.196C407.31 182.01 406.73 183.132 406.73 184.563C406.73 186.018 407.31 187.178 408.469 188.041C409.629 188.88 411.232 189.299 413.279 189.299ZM413.279 179.494C411.306 179.494 409.629 179.235 408.247 178.717C406.866 178.174 405.805 177.41 405.065 176.423C404.325 175.412 403.955 174.215 403.955 172.834C403.955 171.379 404.338 170.133 405.102 169.097C405.892 168.036 406.989 167.222 408.395 166.655C409.801 166.088 411.429 165.804 413.279 165.804C415.154 165.804 416.794 166.088 418.2 166.655C419.606 167.222 420.704 168.036 421.493 169.097C422.283 170.133 422.677 171.379 422.677 172.834C422.677 174.215 422.307 175.412 421.567 176.423C420.827 177.41 419.754 178.174 418.348 178.717C416.942 179.235 415.253 179.494 413.279 179.494ZM413.279 177.126C415.08 177.126 416.486 176.756 417.497 176.016C418.533 175.276 419.051 174.265 419.051 172.982C419.051 171.675 418.521 170.651 417.46 169.911C416.4 169.171 415.006 168.801 413.279 168.801C411.553 168.801 410.171 169.171 409.135 169.911C408.124 170.651 407.618 171.675 407.618 172.982C407.618 174.265 408.112 175.276 409.098 176.016C410.11 176.756 411.503 177.126 413.279 177.126Z" fill="#292C33"/>
<path d="M386.581 249V246.484L397.126 236.309C398.063 235.421 398.754 234.644 399.198 233.978C399.666 233.287 399.975 232.658 400.123 232.091C400.295 231.499 400.382 230.932 400.382 230.389C400.382 229.057 399.913 228.009 398.976 227.244C398.038 226.479 396.669 226.097 394.869 226.097C393.487 226.097 392.242 226.331 391.132 226.8C390.022 227.244 389.06 227.947 388.246 228.909L385.73 226.726C386.716 225.468 388.036 224.506 389.689 223.84C391.366 223.149 393.204 222.804 395.202 222.804C397.002 222.804 398.569 223.1 399.901 223.692C401.233 224.259 402.256 225.086 402.972 226.171C403.712 227.256 404.082 228.539 404.082 230.019C404.082 230.858 403.971 231.684 403.749 232.498C403.527 233.312 403.107 234.175 402.491 235.088C401.874 236.001 400.986 237.024 399.827 238.159L390.429 247.224L389.541 245.781H405.192V249H386.581ZM416.596 249.296C414.771 249.296 412.995 249.012 411.268 248.445C409.566 247.878 408.172 247.113 407.087 246.151L408.789 243.228C409.652 244.042 410.775 244.708 412.156 245.226C413.537 245.744 415.005 246.003 416.559 246.003C418.532 246.003 420.049 245.584 421.11 244.745C422.171 243.906 422.701 242.784 422.701 241.378C422.701 240.416 422.467 239.577 421.998 238.862C421.529 238.147 420.715 237.604 419.556 237.234C418.421 236.839 416.855 236.642 414.857 236.642H408.974L410.343 223.1H424.958V226.319H411.712L413.636 224.506L412.563 235.199L410.639 233.423H415.634C418.224 233.423 420.308 233.756 421.887 234.422C423.466 235.088 424.613 236.013 425.328 237.197C426.043 238.356 426.401 239.701 426.401 241.23C426.401 242.71 426.043 244.067 425.328 245.3C424.613 246.509 423.527 247.483 422.072 248.223C420.641 248.938 418.816 249.296 416.596 249.296Z" fill="#292C33"/>
<path d="M67.1518 306V303.484L77.6968 293.309C78.6342 292.421 79.3248 291.644 79.7688 290.978C80.2375 290.287 80.5458 289.658 80.6938 289.091C80.8665 288.499 80.9528 287.932 80.9528 287.389C80.9528 286.057 80.4842 285.009 79.5468 284.244C78.6095 283.479 77.2405 283.097 75.4398 283.097C74.0585 283.097 72.8128 283.331 71.7028 283.8C70.5928 284.244 69.6308 284.947 68.8168 285.909L66.3008 283.726C67.2875 282.468 68.6072 281.506 70.2598 280.84C71.9372 280.149 73.7748 279.804 75.7728 279.804C77.5735 279.804 79.1398 280.1 80.4718 280.692C81.8038 281.259 82.8275 282.086 83.5428 283.171C84.2828 284.256 84.6528 285.539 84.6528 287.019C84.6528 287.858 84.5418 288.684 84.3198 289.498C84.0978 290.312 83.6785 291.175 83.0618 292.088C82.4452 293.001 81.5572 294.024 80.3978 295.159L70.9998 304.224L70.1118 302.781H85.7628V306H67.1518ZM93.2458 306L104.235 281.654L105.197 283.319H89.8048L91.6548 281.506V287.944H88.1028V280.1H107.639V282.616L97.1678 306H93.2458Z" fill="#292C33"/>
<path d="M130.605 306V303.484L141.15 293.309C142.087 292.421 142.778 291.644 143.222 290.978C143.691 290.287 143.999 289.658 144.147 289.091C144.32 288.499 144.406 287.932 144.406 287.389C144.406 286.057 143.937 285.009 143 284.244C142.063 283.479 140.694 283.097 138.893 283.097C137.512 283.097 136.266 283.331 135.156 283.8C134.046 284.244 133.084 284.947 132.27 285.909L129.754 283.726C130.741 282.468 132.06 281.506 133.713 280.84C135.39 280.149 137.228 279.804 139.226 279.804C141.027 279.804 142.593 280.1 143.925 280.692C145.257 281.259 146.281 282.086 146.996 283.171C147.736 284.256 148.106 285.539 148.106 287.019C148.106 287.858 147.995 288.684 147.773 289.498C147.551 290.312 147.132 291.175 146.515 292.088C145.898 293.001 145.01 294.024 143.851 295.159L134.453 304.224L133.565 302.781H149.216V306H130.605ZM162.359 306.296C160.263 306.296 158.45 305.988 156.92 305.371C155.391 304.754 154.207 303.879 153.368 302.744C152.53 301.585 152.11 300.228 152.11 298.674C152.11 297.145 152.505 295.85 153.294 294.789C154.108 293.704 155.28 292.89 156.809 292.347C158.339 291.78 160.189 291.496 162.359 291.496C164.53 291.496 166.38 291.78 167.909 292.347C169.463 292.89 170.647 293.704 171.461 294.789C172.275 295.874 172.682 297.169 172.682 298.674C172.682 300.228 172.263 301.585 171.424 302.744C170.586 303.879 169.389 304.754 167.835 305.371C166.281 305.988 164.456 306.296 162.359 306.296ZM162.359 303.299C164.431 303.299 166.047 302.88 167.206 302.041C168.39 301.178 168.982 300.018 168.982 298.563C168.982 297.132 168.39 296.01 167.206 295.196C166.047 294.357 164.431 293.938 162.359 293.938C160.312 293.938 158.709 294.357 157.549 295.196C156.39 296.01 155.81 297.132 155.81 298.563C155.81 300.018 156.39 301.178 157.549 302.041C158.709 302.88 160.312 303.299 162.359 303.299ZM162.359 293.494C160.386 293.494 158.709 293.235 157.327 292.717C155.946 292.174 154.885 291.41 154.145 290.423C153.405 289.412 153.035 288.215 153.035 286.834C153.035 285.379 153.418 284.133 154.182 283.097C154.972 282.036 156.069 281.222 157.475 280.655C158.881 280.088 160.509 279.804 162.359 279.804C164.234 279.804 165.874 280.088 167.28 280.655C168.686 281.222 169.784 282.036 170.573 283.097C171.363 284.133 171.757 285.379 171.757 286.834C171.757 288.215 171.387 289.412 170.647 290.423C169.907 291.41 168.834 292.174 167.428 292.717C166.022 293.235 164.333 293.494 162.359 293.494ZM162.359 291.126C164.16 291.126 165.566 290.756 166.577 290.016C167.613 289.276 168.131 288.265 168.131 286.982C168.131 285.675 167.601 284.651 166.54 283.911C165.48 283.171 164.086 282.801 162.359 282.801C160.633 282.801 159.251 283.171 158.215 283.911C157.204 284.651 156.698 285.675 156.698 286.982C156.698 288.265 157.192 289.276 158.178 290.016C159.19 290.756 160.583 291.126 162.359 291.126Z" fill="#292C33"/>
<path d="M194.894 306V303.484L205.439 293.309C206.376 292.421 207.067 291.644 207.511 290.978C207.98 290.287 208.288 289.658 208.436 289.091C208.609 288.499 208.695 287.932 208.695 287.389C208.695 286.057 208.226 285.009 207.289 284.244C206.352 283.479 204.983 283.097 203.182 283.097C201.801 283.097 200.555 283.331 199.445 283.8C198.335 284.244 197.373 284.947 196.559 285.909L194.043 283.726C195.03 282.468 196.349 281.506 198.002 280.84C199.679 280.149 201.517 279.804 203.515 279.804C205.316 279.804 206.882 280.1 208.214 280.692C209.546 281.259 210.57 282.086 211.285 283.171C212.025 284.256 212.395 285.539 212.395 287.019C212.395 287.858 212.284 288.684 212.062 289.498C211.84 290.312 211.421 291.175 210.804 292.088C210.187 293.001 209.299 294.024 208.14 295.159L198.742 304.224L197.854 302.781H213.505V306H194.894ZM224.946 279.804C227.289 279.804 229.263 280.31 230.866 281.321C232.494 282.332 233.727 283.8 234.566 285.724C235.405 287.623 235.824 289.954 235.824 292.717C235.824 295.652 235.306 298.131 234.27 300.154C233.234 302.177 231.803 303.706 229.978 304.742C228.153 305.778 226.019 306.296 223.577 306.296C222.368 306.296 221.197 306.173 220.062 305.926C218.952 305.679 217.978 305.297 217.139 304.779L218.545 301.893C219.236 302.337 220 302.658 220.839 302.855C221.702 303.028 222.603 303.114 223.54 303.114C226.155 303.114 228.239 302.3 229.793 300.672C231.347 299.019 232.124 296.577 232.124 293.346C232.124 292.828 232.099 292.211 232.05 291.496C232.001 290.781 231.89 290.078 231.717 289.387L232.938 290.645C232.593 291.78 232.013 292.742 231.199 293.531C230.41 294.296 229.448 294.875 228.313 295.27C227.203 295.64 225.982 295.825 224.65 295.825C222.948 295.825 221.431 295.504 220.099 294.863C218.767 294.222 217.719 293.321 216.954 292.162C216.189 290.978 215.807 289.584 215.807 287.981C215.807 286.304 216.202 284.861 216.991 283.652C217.805 282.419 218.903 281.469 220.284 280.803C221.69 280.137 223.244 279.804 224.946 279.804ZM225.094 282.801C223.984 282.801 222.997 283.011 222.134 283.43C221.271 283.849 220.592 284.429 220.099 285.169C219.63 285.909 219.396 286.797 219.396 287.833C219.396 289.362 219.926 290.583 220.987 291.496C222.048 292.384 223.478 292.828 225.279 292.828C226.463 292.828 227.499 292.606 228.387 292.162C229.3 291.718 230.003 291.114 230.496 290.349C231.014 289.584 231.273 288.733 231.273 287.796C231.273 286.883 231.039 286.057 230.57 285.317C230.101 284.577 229.411 283.973 228.498 283.504C227.585 283.035 226.451 282.801 225.094 282.801Z" fill="#292C33"/>
<path d="M266.138 306.296C264.313 306.296 262.537 306.012 260.81 305.445C259.108 304.878 257.714 304.113 256.629 303.151L258.331 300.228C259.194 301.042 260.317 301.708 261.698 302.226C263.079 302.744 264.559 303.003 266.138 303.003C268.062 303.003 269.554 302.596 270.615 301.782C271.7 300.943 272.243 299.821 272.243 298.415C272.243 297.058 271.725 295.973 270.689 295.159C269.678 294.32 268.062 293.901 265.842 293.901H263.77V291.311L271.466 281.839L271.984 283.319H257.813V280.1H274.907V282.616L267.248 292.051L265.324 290.904H266.545C269.678 290.904 272.021 291.607 273.575 293.013C275.154 294.419 275.943 296.207 275.943 298.378C275.943 299.833 275.585 301.165 274.87 302.374C274.155 303.583 273.069 304.545 271.614 305.26C270.183 305.951 268.358 306.296 266.138 306.296ZM289.976 306.296C287.953 306.296 286.14 305.778 284.537 304.742C282.958 303.706 281.7 302.201 280.763 300.228C279.85 298.255 279.394 295.862 279.394 293.05C279.394 290.238 279.85 287.845 280.763 285.872C281.7 283.899 282.958 282.394 284.537 281.358C286.14 280.322 287.953 279.804 289.976 279.804C291.974 279.804 293.774 280.322 295.378 281.358C296.981 282.394 298.239 283.899 299.152 285.872C300.064 287.845 300.521 290.238 300.521 293.05C300.521 295.862 300.064 298.255 299.152 300.228C298.239 302.201 296.981 303.706 295.378 304.742C293.774 305.778 291.974 306.296 289.976 306.296ZM289.976 303.003C291.332 303.003 292.516 302.633 293.528 301.893C294.564 301.153 295.365 300.043 295.933 298.563C296.525 297.083 296.821 295.245 296.821 293.05C296.821 290.855 296.525 289.017 295.933 287.537C295.365 286.057 294.564 284.947 293.528 284.207C292.516 283.467 291.332 283.097 289.976 283.097C288.619 283.097 287.423 283.467 286.387 284.207C285.351 284.947 284.537 286.057 283.945 287.537C283.377 289.017 283.094 290.855 283.094 293.05C283.094 295.245 283.377 297.083 283.945 298.563C284.537 300.043 285.351 301.153 286.387 301.893C287.423 302.633 288.619 303.003 289.976 303.003Z" fill="#292C33"/>
<path d="M23.1574 135.296C21.3321 135.296 19.5561 135.012 17.8294 134.445C16.1274 133.878 14.7338 133.113 13.6484 132.151L15.3504 129.228C16.2138 130.042 17.3361 130.708 18.7174 131.226C20.0988 131.744 21.5664 132.003 23.1204 132.003C25.0938 132.003 26.6108 131.584 27.6714 130.745C28.7321 129.906 29.2624 128.784 29.2624 127.378C29.2624 126.416 29.0281 125.577 28.5594 124.862C28.0908 124.147 27.2768 123.604 26.1174 123.234C24.9828 122.839 23.4164 122.642 21.4184 122.642H15.5354L16.9044 109.1H31.5194V112.319H18.2734L20.1974 110.506L19.1244 121.199L17.2004 119.423H22.1954C24.7854 119.423 26.8698 119.756 28.4484 120.422C30.0271 121.088 31.1741 122.013 31.8894 123.197C32.6048 124.356 32.9624 125.701 32.9624 127.23C32.9624 128.71 32.6048 130.067 31.8894 131.3C31.1741 132.509 30.0888 133.483 28.6334 134.223C27.2028 134.938 25.3774 135.296 23.1574 135.296Z" fill="#292C33"/>
<path d="M12.3148 192V167.58L13.9058 169.319H6.46875V166.1H15.9778V192H12.3148ZM21.2361 192V189.484L31.7811 179.309C32.7184 178.421 33.4091 177.644 33.8531 176.978C34.3218 176.287 34.6301 175.658 34.7781 175.091C34.9508 174.499 35.0371 173.932 35.0371 173.389C35.0371 172.057 34.5684 171.009 33.6311 170.244C32.6938 169.479 31.3248 169.097 29.5241 169.097C28.1428 169.097 26.8971 169.331 25.7871 169.8C24.6771 170.244 23.7151 170.947 22.9011 171.909L20.3851 169.726C21.3718 168.468 22.6914 167.506 24.3441 166.84C26.0214 166.149 27.8591 165.804 29.8571 165.804C31.6578 165.804 33.2241 166.1 34.5561 166.692C35.8881 167.259 36.9118 168.086 37.6271 169.171C38.3671 170.256 38.7371 171.539 38.7371 173.019C38.7371 173.858 38.6261 174.684 38.4041 175.498C38.1821 176.312 37.7628 177.175 37.1461 178.088C36.5294 179.001 35.6414 180.024 34.4821 181.159L25.0841 190.224L24.1961 188.781H39.8471V192H21.2361Z" fill="#292C33"/>
<path d="M11.5179 249V224.58L13.1089 226.319H5.67188V223.1H15.1809V249H11.5179ZM29.2452 222.804C31.5886 222.804 33.5619 223.31 35.1652 224.321C36.7932 225.332 38.0266 226.8 38.8652 228.724C39.7039 230.623 40.1232 232.954 40.1232 235.717C40.1232 238.652 39.6052 241.131 38.5692 243.154C37.5332 245.177 36.1026 246.706 34.2772 247.742C32.4519 248.778 30.3182 249.296 27.8762 249.296C26.6676 249.296 25.4959 249.173 24.3612 248.926C23.2512 248.679 22.2769 248.297 21.4382 247.779L22.8442 244.893C23.5349 245.337 24.2996 245.658 25.1382 245.855C26.0016 246.028 26.9019 246.114 27.8392 246.114C30.4539 246.114 32.5382 245.3 34.0922 243.672C35.6462 242.019 36.4232 239.577 36.4232 236.346C36.4232 235.828 36.3986 235.211 36.3492 234.496C36.2999 233.781 36.1889 233.078 36.0162 232.387L37.2372 233.645C36.8919 234.78 36.3122 235.742 35.4982 236.531C34.7089 237.296 33.7469 237.875 32.6122 238.27C31.5022 238.64 30.2812 238.825 28.9492 238.825C27.2472 238.825 25.7302 238.504 24.3982 237.863C23.0662 237.222 22.0179 236.321 21.2532 235.162C20.4886 233.978 20.1062 232.584 20.1062 230.981C20.1062 229.304 20.5009 227.861 21.2902 226.652C22.1042 225.419 23.2019 224.469 24.5832 223.803C25.9892 223.137 27.5432 222.804 29.2452 222.804ZM29.3932 225.801C28.2832 225.801 27.2966 226.011 26.4332 226.43C25.5699 226.849 24.8916 227.429 24.3982 228.169C23.9296 228.909 23.6952 229.797 23.6952 230.833C23.6952 232.362 24.2256 233.583 25.2862 234.496C26.3469 235.384 27.7776 235.828 29.5782 235.828C30.7622 235.828 31.7982 235.606 32.6862 235.162C33.5989 234.718 34.3019 234.114 34.7952 233.349C35.3132 232.584 35.5722 231.733 35.5722 230.796C35.5722 229.883 35.3379 229.057 34.8692 228.317C34.4006 227.577 33.7099 226.973 32.7972 226.504C31.8846 226.035 30.7499 225.801 29.3932 225.801Z" fill="#292C33"/>
<path d="M2.98772 306V303.484L13.5327 293.309C14.4701 292.421 15.1607 291.644 15.6047 290.978C16.0734 290.287 16.3817 289.658 16.5297 289.091C16.7024 288.499 16.7887 287.932 16.7887 287.389C16.7887 286.057 16.3201 285.009 15.3827 284.244C14.4454 283.479 13.0764 283.097 11.2757 283.097C9.89439 283.097 8.64872 283.331 7.53872 283.8C6.42872 284.244 5.46672 284.947 4.65272 285.909L2.13672 283.726C3.12338 282.468 4.44305 281.506 6.09572 280.84C7.77305 280.149 9.61072 279.804 11.6087 279.804C13.4094 279.804 14.9757 280.1 16.3077 280.692C17.6397 281.259 18.6634 282.086 19.3787 283.171C20.1187 284.256 20.4887 285.539 20.4887 287.019C20.4887 287.858 20.3777 288.684 20.1557 289.498C19.9337 290.312 19.5144 291.175 18.8977 292.088C18.2811 293.001 17.3931 294.024 16.2337 295.159L6.83572 304.224L5.94772 302.781H21.5987V306H2.98772ZM35.4827 306.296C33.1888 306.296 31.2277 305.79 29.5997 304.779C27.9717 303.768 26.726 302.312 25.8627 300.413C25.024 298.489 24.6047 296.146 24.6047 293.383C24.6047 290.448 25.1227 287.969 26.1587 285.946C27.1947 283.923 28.6377 282.394 30.4877 281.358C32.3377 280.322 34.459 279.804 36.8517 279.804C38.085 279.804 39.2567 279.927 40.3667 280.174C41.5014 280.421 42.4757 280.803 43.2897 281.321L41.8838 284.207C41.2178 283.738 40.4531 283.418 39.5898 283.245C38.7511 283.072 37.8631 282.986 36.9258 282.986C34.2865 282.986 32.1897 283.812 30.6357 285.465C29.0817 287.093 28.3047 289.523 28.3047 292.754C28.3047 293.272 28.3294 293.889 28.3787 294.604C28.428 295.319 28.5514 296.022 28.7487 296.713L27.4907 295.455C27.8607 294.32 28.4404 293.371 29.2297 292.606C30.0437 291.817 31.0057 291.237 32.1157 290.867C33.2504 290.472 34.4714 290.275 35.7787 290.275C37.5054 290.275 39.0347 290.596 40.3667 291.237C41.6987 291.878 42.747 292.791 43.5117 293.975C44.2764 295.134 44.6588 296.516 44.6588 298.119C44.6588 299.772 44.2518 301.215 43.4378 302.448C42.6238 303.681 41.5261 304.631 40.1448 305.297C38.7635 305.963 37.2094 306.296 35.4827 306.296ZM35.3347 303.299C36.4694 303.299 37.456 303.089 38.2947 302.67C39.158 302.251 39.8365 301.671 40.3298 300.931C40.8231 300.166 41.0697 299.278 41.0697 298.267C41.0697 296.738 40.5395 295.529 39.4788 294.641C38.4181 293.728 36.975 293.272 35.1497 293.272C33.9657 293.272 32.9297 293.494 32.0417 293.938C31.1537 294.382 30.4507 294.986 29.9327 295.751C29.4394 296.491 29.1927 297.342 29.1927 298.304C29.1927 299.192 29.427 300.018 29.8957 300.783C30.3644 301.523 31.055 302.127 31.9677 302.596C32.8804 303.065 34.0027 303.299 35.3347 303.299Z" fill="#292C33"/>
<path d="M88.6827 135.296C86.3887 135.296 84.4277 134.79 82.7997 133.779C81.1717 132.768 79.9261 131.312 79.0627 129.413C78.2241 127.489 77.8047 125.146 77.8047 122.383C77.8047 119.448 78.3227 116.969 79.3587 114.946C80.3947 112.923 81.8377 111.394 83.6877 110.358C85.5377 109.322 87.6591 108.804 90.0517 108.804C91.2851 108.804 92.4567 108.927 93.5667 109.174C94.7014 109.421 95.6757 109.803 96.4897 110.321L95.0837 113.207C94.4177 112.738 93.6531 112.418 92.7897 112.245C91.9511 112.072 91.0631 111.986 90.1257 111.986C87.4864 111.986 85.3897 112.812 83.8357 114.465C82.2817 116.093 81.5047 118.523 81.5047 121.754C81.5047 122.272 81.5294 122.889 81.5787 123.604C81.6281 124.319 81.7514 125.022 81.9487 125.713L80.6907 124.455C81.0607 123.32 81.6404 122.371 82.4297 121.606C83.2437 120.817 84.2057 120.237 85.3157 119.867C86.4504 119.472 87.6714 119.275 88.9787 119.275C90.7054 119.275 92.2347 119.596 93.5667 120.237C94.8987 120.878 95.9471 121.791 96.7117 122.975C97.4764 124.134 97.8587 125.516 97.8587 127.119C97.8587 128.772 97.4517 130.215 96.6377 131.448C95.8237 132.681 94.7261 133.631 93.3447 134.297C91.9634 134.963 90.4094 135.296 88.6827 135.296ZM88.5347 132.299C89.6694 132.299 90.6561 132.089 91.4947 131.67C92.3581 131.251 93.0364 130.671 93.5297 129.931C94.0231 129.166 94.2697 128.278 94.2697 127.267C94.2697 125.738 93.7394 124.529 92.6787 123.641C91.6181 122.728 90.1751 122.272 88.3497 122.272C87.1657 122.272 86.1297 122.494 85.2417 122.938C84.3537 123.382 83.6507 123.986 83.1327 124.751C82.6394 125.491 82.3927 126.342 82.3927 127.304C82.3927 128.192 82.6271 129.018 83.0957 129.783C83.5644 130.523 84.2551 131.127 85.1677 131.596C86.0804 132.065 87.2027 132.299 88.5347 132.299Z" fill="#292C33"/>
<path d="M76.1546 192V167.58L77.7456 169.319H70.3086V166.1H79.8176V192H76.1546ZM93.4009 192.296C91.5756 192.296 89.7996 192.012 88.0729 191.445C86.3709 190.878 84.9773 190.113 83.8919 189.151L85.5939 186.228C86.4573 187.042 87.5796 187.708 88.9609 188.226C90.3423 188.744 91.8223 189.003 93.4009 189.003C95.3249 189.003 96.8173 188.596 97.8779 187.782C98.9633 186.943 99.5059 185.821 99.5059 184.415C99.5059 183.058 98.9879 181.973 97.9519 181.159C96.9406 180.32 95.3249 179.901 93.1049 179.901H91.0329V177.311L98.7289 167.839L99.2469 169.319H85.0759V166.1H102.17V168.616L94.5109 178.051L92.5869 176.904H93.8079C96.9406 176.904 99.2839 177.607 100.838 179.013C102.416 180.419 103.206 182.207 103.206 184.378C103.206 185.833 102.848 187.165 102.133 188.374C101.417 189.583 100.332 190.545 98.8769 191.26C97.4463 191.951 95.6209 192.296 93.4009 192.296Z" fill="#292C33"/>
<path d="M65.8666 249V246.484L76.4116 236.309C77.3489 235.421 78.0396 234.644 78.4836 233.978C78.9523 233.287 79.2606 232.658 79.4086 232.091C79.5813 231.499 79.6676 230.932 79.6676 230.389C79.6676 229.057 79.1989 228.009 78.2616 227.244C77.3243 226.479 75.9553 226.097 74.1546 226.097C72.7733 226.097 71.5276 226.331 70.4176 226.8C69.3076 227.244 68.3456 227.947 67.5316 228.909L65.0156 226.726C66.0023 225.468 67.3219 224.506 68.9746 223.84C70.6519 223.149 72.4896 222.804 74.4876 222.804C76.2883 222.804 77.8546 223.1 79.1866 223.692C80.5186 224.259 81.5423 225.086 82.2576 226.171C82.9976 227.256 83.3676 228.539 83.3676 230.019C83.3676 230.858 83.2566 231.684 83.0346 232.498C82.8126 233.312 82.3933 234.175 81.7766 235.088C81.1599 236.001 80.2719 237.024 79.1126 238.159L69.7146 247.224L68.8266 245.781H84.4776V249H65.8666ZM98.0655 249.296C96.0429 249.296 94.2299 248.778 92.6265 247.742C91.0479 246.706 89.7899 245.201 88.8525 243.228C87.9399 241.255 87.4835 238.862 87.4835 236.05C87.4835 233.238 87.9399 230.845 88.8525 228.872C89.7899 226.899 91.0479 225.394 92.6265 224.358C94.2299 223.322 96.0429 222.804 98.0655 222.804C100.063 222.804 101.864 223.322 103.467 224.358C105.07 225.394 106.328 226.899 107.241 228.872C108.154 230.845 108.61 233.238 108.61 236.05C108.61 238.862 108.154 241.255 107.241 243.228C106.328 245.201 105.07 246.706 103.467 247.742C101.864 248.778 100.063 249.296 98.0655 249.296ZM98.0655 246.003C99.4222 246.003 100.606 245.633 101.617 244.893C102.653 244.153 103.455 243.043 104.022 241.563C104.614 240.083 104.91 238.245 104.91 236.05C104.91 233.855 104.614 232.017 104.022 230.537C103.455 229.057 102.653 227.947 101.617 227.207C100.606 226.467 99.4222 226.097 98.0655 226.097C96.7089 226.097 95.5125 226.467 94.4765 227.207C93.4405 227.947 92.6265 229.057 92.0345 230.537C91.4672 232.017 91.1835 233.855 91.1835 236.05C91.1835 238.245 91.4672 240.083 92.0345 241.563C92.6265 243.043 93.4405 244.153 94.4765 244.893C95.5125 245.633 96.7089 246.003 98.0655 246.003Z" fill="#292C33"/>
<path d="M146.956 135L157.945 110.654L158.907 112.319H143.515L145.365 110.506V116.944H141.812V109.1H161.349V111.616L150.878 135H146.956Z" fill="#292C33"/>
<path d="M138.682 192V167.58L140.273 169.319H132.836V166.1H142.345V192H138.682ZM147.641 185.636V183.046L160.887 166.1H164.883L151.748 183.046L149.861 182.454H170.544V185.636H147.641ZM162.034 192V185.636L162.145 182.454V176.83H165.623V192H162.034Z" fill="#292C33"/>
<path d="M135.66 249V246.484L146.205 236.309C147.142 235.421 147.834 234.644 148.278 233.978C148.746 233.287 149.054 232.658 149.202 232.091C149.374 231.499 149.461 230.932 149.461 230.389C149.461 229.057 148.993 228.009 148.056 227.244C147.118 226.479 145.748 226.097 143.948 226.097C142.566 226.097 141.321 226.331 140.211 226.8C139.101 227.244 138.139 227.947 137.325 228.909L134.809 226.726C135.796 225.468 137.115 224.506 138.768 223.84C140.445 223.149 142.283 222.804 144.282 222.804C146.082 222.804 147.648 223.1 148.98 223.692C150.312 224.259 151.335 225.086 152.051 226.171C152.791 227.256 153.161 228.539 153.161 230.019C153.161 230.858 153.05 231.684 152.828 232.498C152.606 233.312 152.187 234.175 151.571 235.088C150.954 236.001 150.066 237.024 148.907 238.159L139.508 247.224L138.62 245.781H154.271V249H135.66ZM161.679 249V224.58L163.27 226.319H155.834V223.1H165.342V249H161.679Z" fill="#292C33"/>
<path d="M211.945 52.1001H221.454V78.0001H217.791V55.3191H211.945V52.1001Z" fill="#292C33"/>
<path d="M215.534 135.296C213.438 135.296 211.625 134.988 210.095 134.371C208.566 133.754 207.382 132.879 206.543 131.744C205.705 130.585 205.285 129.228 205.285 127.674C205.285 126.145 205.68 124.85 206.469 123.789C207.283 122.704 208.455 121.89 209.984 121.347C211.514 120.78 213.364 120.496 215.534 120.496C217.705 120.496 219.555 120.78 221.084 121.347C222.638 121.89 223.822 122.704 224.636 123.789C225.45 124.874 225.857 126.169 225.857 127.674C225.857 129.228 225.438 130.585 224.599 131.744C223.761 132.879 222.564 133.754 221.01 134.371C219.456 134.988 217.631 135.296 215.534 135.296ZM215.534 132.299C217.606 132.299 219.222 131.88 220.381 131.041C221.565 130.178 222.157 129.018 222.157 127.563C222.157 126.132 221.565 125.01 220.381 124.196C219.222 123.357 217.606 122.938 215.534 122.938C213.487 122.938 211.884 123.357 210.724 124.196C209.565 125.01 208.985 126.132 208.985 127.563C208.985 129.018 209.565 130.178 210.724 131.041C211.884 131.88 213.487 132.299 215.534 132.299ZM215.534 122.494C213.561 122.494 211.884 122.235 210.502 121.717C209.121 121.174 208.06 120.41 207.32 119.423C206.58 118.412 206.21 117.215 206.21 115.834C206.21 114.379 206.593 113.133 207.357 112.097C208.147 111.036 209.244 110.222 210.65 109.655C212.056 109.088 213.684 108.804 215.534 108.804C217.409 108.804 219.049 109.088 220.455 109.655C221.861 110.222 222.959 111.036 223.748 112.097C224.538 113.133 224.932 114.379 224.932 115.834C224.932 117.215 224.562 118.412 223.822 119.423C223.082 120.41 222.009 121.174 220.603 121.717C219.197 122.235 217.508 122.494 215.534 122.494ZM215.534 120.126C217.335 120.126 218.741 119.756 219.752 119.016C220.788 118.276 221.306 117.265 221.306 115.982C221.306 114.675 220.776 113.651 219.715 112.911C218.655 112.171 217.261 111.801 215.534 111.801C213.808 111.801 212.426 112.171 211.39 112.911C210.379 113.651 209.873 114.675 209.873 115.982C209.873 117.265 210.367 118.276 211.353 119.016C212.365 119.756 213.758 120.126 215.534 120.126Z" fill="#292C33"/>
<path d="M204.237 192V167.58L205.828 169.319H198.391V166.1H207.9V192H204.237ZM221.927 192.296C220.102 192.296 218.326 192.012 216.599 191.445C214.897 190.878 213.504 190.113 212.418 189.151L214.12 186.228C214.984 187.042 216.106 187.708 217.487 188.226C218.869 188.744 220.336 189.003 221.89 189.003C223.864 189.003 225.381 188.584 226.441 187.745C227.502 186.906 228.032 185.784 228.032 184.378C228.032 183.416 227.798 182.577 227.329 181.862C226.861 181.147 226.047 180.604 224.887 180.234C223.753 179.839 222.186 179.642 220.188 179.642H214.305L215.674 166.1H230.289V169.319H217.043L218.967 167.506L217.894 178.199L215.97 176.423H220.965C223.555 176.423 225.64 176.756 227.218 177.422C228.797 178.088 229.944 179.013 230.659 180.197C231.375 181.356 231.732 182.701 231.732 184.23C231.732 185.71 231.375 187.067 230.659 188.3C229.944 189.509 228.859 190.483 227.403 191.223C225.973 191.938 224.147 192.296 221.927 192.296Z" fill="#292C33"/>
<path d="M195.691 249V246.484L206.236 236.309C207.174 235.421 207.864 234.644 208.308 233.978C208.777 233.287 209.085 232.658 209.233 232.091C209.406 231.499 209.492 230.932 209.492 230.389C209.492 229.057 209.024 228.009 208.086 227.244C207.149 226.479 205.78 226.097 203.979 226.097C202.598 226.097 201.352 226.331 200.242 226.8C199.132 227.244 198.17 227.947 197.356 228.909L194.84 226.726C195.827 225.468 197.146 224.506 198.799 223.84C200.477 223.149 202.314 222.804 204.312 222.804C206.113 222.804 207.679 223.1 209.011 223.692C210.343 224.259 211.367 225.086 212.082 226.171C212.822 227.256 213.192 228.539 213.192 230.019C213.192 230.858 213.081 231.684 212.859 232.498C212.637 233.312 212.218 234.175 211.601 235.088C210.985 236.001 210.097 237.024 208.937 238.159L199.539 247.224L198.651 245.781H214.302V249H195.691ZM216.937 249V246.484L227.482 236.309C228.42 235.421 229.11 234.644 229.554 233.978C230.023 233.287 230.331 232.658 230.479 232.091C230.652 231.499 230.738 230.932 230.738 230.389C230.738 229.057 230.27 228.009 229.332 227.244C228.395 226.479 227.026 226.097 225.225 226.097C223.844 226.097 222.598 226.331 221.488 226.8C220.378 227.244 219.416 227.947 218.602 228.909L216.086 226.726C217.073 225.468 218.393 224.506 220.045 223.84C221.723 223.149 223.56 222.804 225.558 222.804C227.359 222.804 228.925 223.1 230.257 223.692C231.589 224.259 232.613 225.086 233.328 226.171C234.068 227.256 234.438 228.539 234.438 230.019C234.438 230.858 234.327 231.684 234.105 232.498C233.883 233.312 233.464 234.175 232.847 235.088C232.231 236.001 231.343 237.024 230.183 238.159L220.785 247.224L219.897 245.781H235.548V249H216.937Z" fill="#292C33"/>
<path d="M278.123 108.804C280.467 108.804 282.44 109.31 284.043 110.321C285.671 111.332 286.905 112.8 287.743 114.724C288.582 116.623 289.001 118.954 289.001 121.717C289.001 124.652 288.483 127.131 287.447 129.154C286.411 131.177 284.981 132.706 283.155 133.742C281.33 134.778 279.196 135.296 276.754 135.296C275.546 135.296 274.374 135.173 273.239 134.926C272.129 134.679 271.155 134.297 270.316 133.779L271.722 130.893C272.413 131.337 273.178 131.658 274.016 131.855C274.88 132.028 275.78 132.114 276.717 132.114C279.332 132.114 281.416 131.3 282.97 129.672C284.524 128.019 285.301 125.577 285.301 122.346C285.301 121.828 285.277 121.211 285.227 120.496C285.178 119.781 285.067 119.078 284.894 118.387L286.115 119.645C285.77 120.78 285.19 121.742 284.376 122.531C283.587 123.296 282.625 123.875 281.49 124.27C280.38 124.64 279.159 124.825 277.827 124.825C276.125 124.825 274.608 124.504 273.276 123.863C271.944 123.222 270.896 122.321 270.131 121.162C269.367 119.978 268.984 118.584 268.984 116.981C268.984 115.304 269.379 113.861 270.168 112.652C270.982 111.419 272.08 110.469 273.461 109.803C274.867 109.137 276.421 108.804 278.123 108.804ZM278.271 111.801C277.161 111.801 276.175 112.011 275.311 112.43C274.448 112.849 273.77 113.429 273.276 114.169C272.808 114.909 272.573 115.797 272.573 116.833C272.573 118.362 273.104 119.583 274.164 120.496C275.225 121.384 276.656 121.828 278.456 121.828C279.64 121.828 280.676 121.606 281.564 121.162C282.477 120.718 283.18 120.114 283.673 119.349C284.191 118.584 284.45 117.733 284.45 116.796C284.45 115.883 284.216 115.057 283.747 114.317C283.279 113.577 282.588 112.973 281.675 112.504C280.763 112.035 279.628 111.801 278.271 111.801Z" fill="#292C33"/>
<path d="M267.244 192V167.58L268.835 169.319H261.398V166.1H270.907V192H267.244ZM287.451 192.296C285.157 192.296 283.196 191.79 281.568 190.779C279.94 189.768 278.694 188.312 277.831 186.413C276.992 184.489 276.573 182.146 276.573 179.383C276.573 176.448 277.091 173.969 278.127 171.946C279.163 169.923 280.606 168.394 282.456 167.358C284.306 166.322 286.427 165.804 288.82 165.804C290.053 165.804 291.225 165.927 292.335 166.174C293.469 166.421 294.444 166.803 295.258 167.321L293.852 170.207C293.186 169.738 292.421 169.418 291.558 169.245C290.719 169.072 289.831 168.986 288.894 168.986C286.254 168.986 284.158 169.812 282.604 171.465C281.05 173.093 280.273 175.523 280.273 178.754C280.273 179.272 280.297 179.889 280.347 180.604C280.396 181.319 280.519 182.022 280.717 182.713L279.459 181.455C279.829 180.32 280.408 179.371 281.198 178.606C282.012 177.817 282.974 177.237 284.084 176.867C285.218 176.472 286.439 176.275 287.747 176.275C289.473 176.275 291.003 176.596 292.335 177.237C293.667 177.878 294.715 178.791 295.48 179.975C296.244 181.134 296.627 182.516 296.627 184.119C296.627 185.772 296.22 187.215 295.406 188.448C294.592 189.681 293.494 190.631 292.113 191.297C290.731 191.963 289.177 192.296 287.451 192.296ZM287.303 189.299C288.437 189.299 289.424 189.089 290.263 188.67C291.126 188.251 291.804 187.671 292.298 186.931C292.791 186.166 293.038 185.278 293.038 184.267C293.038 182.738 292.507 181.529 291.447 180.641C290.386 179.728 288.943 179.272 287.118 179.272C285.934 179.272 284.898 179.494 284.01 179.938C283.122 180.382 282.419 180.986 281.901 181.751C281.407 182.491 281.161 183.342 281.161 184.304C281.161 185.192 281.395 186.018 281.864 186.783C282.332 187.523 283.023 188.127 283.936 188.596C284.848 189.065 285.971 189.299 287.303 189.299Z" fill="#292C33"/>
<path d="M259.527 249V246.484L270.072 236.309C271.01 235.421 271.7 234.644 272.144 233.978C272.613 233.287 272.921 232.658 273.069 232.091C273.242 231.499 273.328 230.932 273.328 230.389C273.328 229.057 272.86 228.009 271.922 227.244C270.985 226.479 269.616 226.097 267.815 226.097C266.434 226.097 265.188 226.331 264.078 226.8C262.968 227.244 262.006 227.947 261.192 228.909L258.676 226.726C259.663 225.468 260.983 224.506 262.635 223.84C264.313 223.149 266.15 222.804 268.148 222.804C269.949 222.804 271.515 223.1 272.847 223.692C274.179 224.259 275.203 225.086 275.918 226.171C276.658 227.256 277.028 228.539 277.028 230.019C277.028 230.858 276.917 231.684 276.695 232.498C276.473 233.312 276.054 234.175 275.437 235.088C274.821 236.001 273.933 237.024 272.773 238.159L263.375 247.224L262.487 245.781H278.138V249H259.527ZM289.098 249.296C287.273 249.296 285.497 249.012 283.77 248.445C282.068 247.878 280.675 247.113 279.589 246.151L281.291 243.228C282.155 244.042 283.277 244.708 284.658 245.226C286.04 245.744 287.52 246.003 289.098 246.003C291.022 246.003 292.515 245.596 293.575 244.782C294.661 243.943 295.203 242.821 295.203 241.415C295.203 240.058 294.685 238.973 293.649 238.159C292.638 237.32 291.022 236.901 288.802 236.901H286.73V234.311L294.426 224.839L294.944 226.319H280.773V223.1H297.867V225.616L290.208 235.051L288.284 233.904H289.505C292.638 233.904 294.981 234.607 296.535 236.013C298.114 237.419 298.903 239.207 298.903 241.378C298.903 242.833 298.546 244.165 297.83 245.374C297.115 246.583 296.03 247.545 294.574 248.26C293.144 248.951 291.318 249.296 289.098 249.296Z" fill="#292C33"/>
<path d="M279.574 74.7812H292.857V78.0002H274.246V75.4842L284.791 65.3092C287.529 62.6452 288.047 61.0172 288.047 59.3892C288.047 56.7252 286.16 55.0972 282.534 55.0972C279.759 55.0972 277.502 55.9852 275.911 57.9092L273.395 55.7262C275.393 53.2472 278.834 51.8042 282.867 51.8042C288.269 51.8042 291.747 54.5792 291.747 59.0192C291.747 61.5352 291.007 63.7922 287.492 67.1592L279.574 74.7812Z" fill="#292C33"/>
<path d="M335.509 306.196C333.684 306.196 331.908 305.912 330.181 305.345C328.479 304.778 327.086 304.013 326 303.051L327.702 300.128C328.566 300.942 329.688 301.608 331.069 302.126C332.451 302.644 333.931 302.903 335.509 302.903C337.433 302.903 338.926 302.496 339.986 301.682C341.072 300.843 341.614 299.721 341.614 298.315C341.614 296.958 341.096 295.873 340.06 295.059C339.049 294.22 337.433 293.801 335.213 293.801H333.141V291.211L340.837 281.739L341.355 283.219H327.184V280H344.278V282.516L336.619 291.951L334.695 290.804H335.916C339.049 290.804 341.392 291.507 342.946 292.913C344.525 294.319 345.314 296.107 345.314 298.278C345.314 299.733 344.957 301.065 344.241 302.274C343.526 303.483 342.441 304.445 340.985 305.16C339.555 305.851 337.729 306.196 335.509 306.196ZM353.131 305.9V281.48L354.722 283.219H347.285V280H356.794V305.9H353.131Z" fill="#292C33"/>
</svg>
