<svg width="432" height="313" viewBox="0 0 432 313" fill="none" xmlns="http://www.w3.org/2000/svg">
<g clip-path="url(#clip0_3525_5307)">
<mask id="mask0_3525_5307" style="mask-type:luminance" maskUnits="userSpaceOnUse" x="0" y="0" width="432" height="313">
<path d="M431.5 0H0.5V313H431.5V0Z" fill="white"/>
</mask>
<g mask="url(#mask0_3525_5307)">
<path d="M180.018 272H123.018V319H180.018V272Z" fill="#3C78EC" fill-opacity="0.6"/>
<path d="M23.4564 20.7264H20.8476V3.36139H11.3906V20.7264H8.7002V1.32324H23.3749V20.7264H23.4564Z" fill="#B3B3B3" fill-opacity="0.6"/>
<path d="M39.2725 20.7264H36.6636V14.6119H30.2231V20.7264H27.6143V6.29626H30.2231V12.5738H36.6636V6.29626H39.2725V20.7264Z" fill="#B3B3B3" fill-opacity="0.6"/>
<path d="M73.5 20.7264V1.32324H79.859C81.8972 1.32324 83.4462 1.73087 84.5875 2.62766C85.7289 3.52444 86.2996 4.82886 86.2996 6.5409C86.2996 7.35616 86.055 8.08989 85.5658 8.82363C85.0767 9.55736 84.3429 9.96499 83.5277 10.2911C84.8321 10.4541 85.8104 11.0248 86.5441 11.9216C87.2779 12.8184 87.6855 13.9598 87.6855 15.1826C87.6855 16.9762 87.1148 18.2806 85.9735 19.2589C84.8321 20.2373 83.2831 20.6449 81.245 20.6449H73.5V20.7264ZM76.1904 9.55736H80.4297C81.408 9.55736 82.2233 9.31278 82.794 8.7421C83.4462 8.17142 83.6907 7.43769 83.6907 6.45937C83.6907 5.39954 83.3646 4.6658 82.7124 4.09512C82.0602 3.60597 81.0819 3.27986 79.859 3.27986H76.1904V9.55736ZM76.1904 11.5955V18.6067H81.245C82.4678 18.6067 83.3646 18.2806 84.0168 17.71C84.6691 17.1393 84.9952 16.2425 84.9952 15.1826C84.9952 14.1228 84.6691 13.226 84.0168 12.5738C83.3646 11.9216 82.4678 11.5955 81.245 11.514H81.0819H76.1904V11.5955Z" fill="#B3B3B3" fill-opacity="0.6"/>
<path d="M101.626 8.33441H96.8977V20.7264H94.2888V8.33441H89.5603V6.29626H101.626V8.33441Z" fill="#B3B3B3" fill-opacity="0.6"/>
<path d="M151.012 14.5304C151.093 16.4055 150.441 17.9545 149.137 19.1773C147.832 20.4002 146.12 21.0524 143.919 21.0524C141.718 21.0524 139.924 20.2372 138.538 18.6882C137.152 17.1392 136.5 15.1826 136.5 12.7368V9.31271C136.5 6.94846 137.152 4.91031 138.538 3.36132C139.924 1.81233 141.718 0.99707 143.919 0.99707C146.12 0.99707 147.832 1.56775 149.137 2.70911C150.441 3.85048 151.093 5.39947 151.012 7.35609V7.43762H148.484C148.484 6.05168 148.077 4.99184 147.261 4.17658C146.446 3.36132 145.305 2.95369 143.837 2.95369C142.37 2.95369 141.229 3.52437 140.332 4.74726C139.435 5.88862 139.027 7.35609 139.027 9.14966V12.6553C139.027 14.4488 139.435 15.9163 140.332 17.0577C141.229 18.199 142.37 18.8512 143.837 18.8512C145.305 18.8512 146.446 18.4436 147.261 17.7099C148.077 16.8946 148.484 15.8348 148.484 14.4488H151.012V14.5304Z" fill="#B3B3B3" fill-opacity="0.6"/>
<path d="M166.42 14.0413C166.42 16.161 165.931 17.7915 164.952 19.0959C163.974 20.4003 162.588 20.971 160.795 20.971C159.898 20.971 159.164 20.8079 158.43 20.5634C157.778 20.2373 157.207 19.8296 156.718 19.259V26.2702H154.109V6.29634H156.148L156.555 8.17143C157.044 7.4377 157.615 6.94854 158.349 6.62244C159.083 6.29634 159.898 6.05176 160.795 6.05176C162.588 6.05176 163.974 6.78549 164.952 8.17143C165.931 9.55737 166.42 11.4325 166.42 13.7967V14.0413ZM163.811 13.7967C163.811 12.1662 163.485 10.7803 162.833 9.80195C162.181 8.82364 161.202 8.25296 159.979 8.25296C159.246 8.25296 158.593 8.41601 158.023 8.74211C157.452 9.06822 157.044 9.55737 156.718 10.1281V17.1393C157.044 17.71 157.452 18.1991 158.023 18.5252C158.593 18.8513 159.246 19.0144 159.979 19.0144C161.202 19.0144 162.181 18.5252 162.833 17.6284C163.485 16.7317 163.811 15.5088 163.811 14.1228V13.7967Z" fill="#B3B3B3" fill-opacity="0.6"/>
<path d="M215.93 1.32324V20.7264H213.321V12.6553C212.506 12.8999 211.691 13.063 210.875 13.226C210.06 13.3076 209.163 13.3891 208.022 13.3891C205.902 13.3891 204.272 12.8999 203.131 12.0031C201.989 11.1064 201.5 9.55736 201.5 7.43769V1.32324H204.109V7.43769C204.109 8.90515 204.435 9.88346 205.006 10.4541C205.658 11.0248 206.636 11.2694 207.941 11.2694C208.837 11.2694 209.734 11.1879 210.631 11.1064C211.446 10.9433 212.343 10.7802 213.24 10.5357V1.32324H215.93Z" fill="#B3B3B3" fill-opacity="0.6"/>
<path d="M231.175 8.33441H226.447V20.7264H223.838V8.33441H219.11V6.29626H231.175V8.33441Z" fill="#B3B3B3" fill-opacity="0.6"/>
<path d="M280.175 20.7264H277.566V3.36139H268.109V20.7264H265.5V1.32324H280.175V20.7264Z" fill="#B3B3B3" fill-opacity="0.6"/>
<path d="M295.42 8.33453H290.692V20.7265H288.083V8.33453H283.354V6.29639H295.42V8.33453Z" fill="#B3B3B3" fill-opacity="0.6"/>
<path d="M345.012 14.5301C345.093 16.4052 344.441 17.9542 343.137 19.1771C341.832 20.4 340.12 21.0522 337.919 21.0522C335.718 21.0522 333.924 20.2369 332.538 18.6879C331.152 17.1389 330.5 15.1823 330.5 12.7365V9.31247C330.5 6.94822 331.152 4.91007 332.538 3.36108C333.924 1.81209 335.718 0.996826 337.919 0.996826C340.12 0.996826 341.832 1.56751 343.137 2.70887C344.441 3.85023 345.093 5.39923 345.012 7.35585V7.43737H342.484C342.484 6.05143 342.077 4.9916 341.261 4.17634C340.446 3.36108 339.305 2.95345 337.837 2.95345C336.37 2.95345 335.229 3.52413 334.332 4.74702C333.435 5.88838 333.027 7.35585 333.027 9.14942V12.655C333.027 14.4486 333.435 15.916 334.332 17.0574C335.229 18.1988 336.37 18.851 337.837 18.851C339.305 18.851 340.446 18.4433 341.261 17.7096C342.077 16.8943 342.484 15.8345 342.484 14.4486H345.012V14.5301Z" fill="#B3B3B3" fill-opacity="0.6"/>
<path d="M354.387 6.05149C356.262 6.05149 357.648 6.7037 358.708 8.08964C359.768 9.47558 360.338 11.1876 360.338 13.3888V13.7149C360.338 15.8346 359.768 17.6282 358.626 19.0141C357.485 20.4 355.936 21.0523 353.898 21.0523C351.86 21.0523 350.311 20.4 349.169 19.0141C348.028 17.6282 347.457 15.9161 347.457 13.7149V13.3888C347.457 13.3073 347.457 13.2258 347.457 13.2258C347.457 13.1442 347.457 13.1442 347.457 13.0627V9.96473C347.457 7.19285 348.028 5.23623 349.088 3.93182C350.148 2.6274 351.778 1.97519 353.898 1.81214C355.121 1.73062 356.099 1.56756 356.751 1.32299C357.403 1.07841 357.73 0.670779 357.73 0.100098H359.768V0.181624C359.849 1.56756 359.36 2.54587 358.382 3.11656C357.403 3.68724 356.017 4.01334 354.142 4.01334C352.756 4.01334 351.697 4.42097 350.881 5.1547C350.066 5.88844 349.658 6.94827 349.658 8.33421V8.41574C350.148 7.76353 350.881 7.19285 351.697 6.78522C352.512 6.37759 353.49 6.05149 354.387 6.05149ZM353.898 8.08964C352.675 8.08964 351.697 8.57879 351.044 9.5571C350.392 10.5354 350.066 11.8398 350.066 13.3073V13.6334C350.066 15.1824 350.392 16.4053 351.044 17.3836C351.697 18.3619 352.675 18.8511 353.898 18.8511C355.121 18.8511 356.099 18.3619 356.751 17.3836C357.403 16.4053 357.73 15.1009 357.73 13.6334V13.3073C357.73 11.7583 357.403 10.5354 356.751 9.5571C356.099 8.57879 355.121 8.08964 353.898 8.08964Z" fill="#B3B3B3" fill-opacity="0.6"/>
<path d="M394.5 20.7264V1.32324H400.859C402.897 1.32324 404.446 1.73087 405.588 2.62766C406.729 3.52444 407.3 4.82886 407.3 6.5409C407.3 7.35616 407.055 8.08989 406.566 8.82363C406.077 9.55736 405.343 9.96499 404.528 10.3726C405.832 10.5357 406.81 11.1064 407.544 12.0031C408.278 12.8999 408.686 14.0413 408.686 15.2642C408.686 17.0577 408.115 18.3622 406.973 19.3405C405.832 20.3188 404.283 20.7264 402.245 20.7264H394.5ZM397.19 9.55736H401.43C402.408 9.55736 403.223 9.31278 403.794 8.7421C404.446 8.17142 404.691 7.43769 404.691 6.45937C404.691 5.39954 404.365 4.6658 403.712 4.09512C403.06 3.60597 402.082 3.27986 400.859 3.27986H397.19V9.55736ZM397.19 11.5955V18.6067H402.245C403.468 18.6067 404.365 18.2806 405.017 17.71C405.669 17.1393 405.995 16.2425 405.995 15.1826C405.995 14.1228 405.669 13.226 405.017 12.5738C404.365 11.9216 403.468 11.5955 402.245 11.514H402.082H397.19V11.5955Z" fill="#B3B3B3" fill-opacity="0.6"/>
<path d="M417.245 18.9327C418.061 18.9327 418.794 18.6881 419.365 18.1174C419.936 17.5467 420.262 16.8945 420.262 16.1608H422.626V16.2423C422.626 17.4652 422.137 18.6066 420.996 19.5849C419.854 20.5632 418.631 21.0523 417.164 21.0523C415.126 21.0523 413.577 20.4001 412.435 19.0142C411.294 17.6282 410.805 15.9162 410.805 13.8781V13.3074C410.805 11.2692 411.376 9.55714 412.435 8.1712C413.577 6.78526 415.126 6.13306 417.082 6.13306C418.713 6.13306 420.017 6.62221 420.996 7.60052C421.974 8.57883 422.545 9.80172 422.463 11.2692V11.3508H420.099C420.099 10.454 419.773 9.7202 419.202 9.06799C418.631 8.41578 417.898 8.1712 417.001 8.1712C415.696 8.1712 414.8 8.66036 414.147 9.63867C413.577 10.617 413.251 11.8399 413.251 13.3074V13.8781C413.251 15.3455 413.577 16.5684 414.147 17.5467C415.044 18.4435 415.941 18.9327 417.245 18.9327Z" fill="#B3B3B3" fill-opacity="0.6"/>
<path d="M347.605 61.978C352.785 62.459 355.412 65.382 355.412 69.378C355.412 73.744 352.193 77.296 345.607 77.296C341.907 77.296 338.281 76.112 336.098 74.151L337.8 71.228C339.539 72.856 342.425 74.003 345.607 74.003C349.492 74.003 351.712 72.227 351.712 69.415C351.712 66.677 349.751 64.901 345.311 64.901H343.239V62.311L349.751 54.319H337.282V51.1H354.376V53.616L347.605 61.978Z" fill="#292C33" fill-opacity="0.6"/>
<path d="M330.644 135V110.58L332.235 112.319H324.798V109.1H334.307V135H330.644ZM350.554 135.296C348.531 135.296 346.718 134.778 345.115 133.742C343.536 132.706 342.278 131.201 341.341 129.228C340.428 127.255 339.972 124.862 339.972 122.05C339.972 119.238 340.428 116.845 341.341 114.872C342.278 112.899 343.536 111.394 345.115 110.358C346.718 109.322 348.531 108.804 350.554 108.804C352.552 108.804 354.353 109.322 355.956 110.358C357.559 111.394 358.817 112.899 359.73 114.872C360.643 116.845 361.099 119.238 361.099 122.05C361.099 124.862 360.643 127.255 359.73 129.228C358.817 131.201 357.559 132.706 355.956 133.742C354.353 134.778 352.552 135.296 350.554 135.296ZM350.554 132.003C351.911 132.003 353.095 131.633 354.106 130.893C355.142 130.153 355.944 129.043 356.511 127.563C357.103 126.083 357.399 124.245 357.399 122.05C357.399 119.855 357.103 118.017 356.511 116.537C355.944 115.057 355.142 113.947 354.106 113.207C353.095 112.467 351.911 112.097 350.554 112.097C349.197 112.097 348.001 112.467 346.965 113.207C345.929 113.947 345.115 115.057 344.523 116.537C343.956 118.017 343.672 119.855 343.672 122.05C343.672 124.245 343.956 126.083 344.523 127.563C345.115 129.043 345.929 130.153 346.965 130.893C348.001 131.633 349.197 132.003 350.554 132.003Z" fill="#292C33" fill-opacity="0.6"/>
<path d="M331.927 192V167.58L333.518 169.319H326.081V166.1H335.59V192H331.927ZM345.732 192L356.721 167.654L357.683 169.319H342.291L344.141 167.506V173.944H340.589V166.1H360.125V168.616L349.654 192H345.732Z" fill="#292C33" fill-opacity="0.6"/>
<path d="M322.42 249V246.484L332.965 236.309C333.903 235.421 334.593 234.644 335.037 233.978C335.506 233.287 335.814 232.658 335.962 232.091C336.135 231.499 336.221 230.932 336.221 230.389C336.221 229.057 335.753 228.009 334.815 227.244C333.878 226.479 332.509 226.097 330.708 226.097C329.327 226.097 328.081 226.331 326.971 226.8C325.861 227.244 324.899 227.947 324.085 228.909L321.569 226.726C322.556 225.468 323.876 224.506 325.528 223.84C327.206 223.149 329.043 222.804 331.041 222.804C332.842 222.804 334.408 223.1 335.74 223.692C337.072 224.259 338.096 225.086 338.811 226.171C339.551 227.256 339.921 228.539 339.921 230.019C339.921 230.858 339.81 231.684 339.588 232.498C339.366 233.312 338.947 234.175 338.33 235.088C337.714 236.001 336.826 237.024 335.666 238.159L326.268 247.224L325.38 245.781H341.031V249H322.42ZM342.981 242.636V240.046L356.227 223.1H360.223L347.088 240.046L345.201 239.454H365.884V242.636H342.981ZM357.374 249V242.636L357.485 239.454V233.83H360.963V249H357.374Z" fill="#292C33" fill-opacity="0.6"/>
<path d="M416.274 67.454V70.636H411.353V77H407.764V70.636H393.371V68.046L406.617 51.1H410.613L397.922 67.454H407.875V61.83H411.353V67.454H416.274Z" fill="#292C33" fill-opacity="0.6"/>
<path d="M398.911 135V110.58L400.502 112.319H393.065V109.1H402.574V135H398.911ZM412.605 135V110.58L414.196 112.319H406.759V109.1H416.268V135H412.605Z" fill="#292C33" fill-opacity="0.6"/>
<path d="M393.852 192V167.58L395.443 169.319H388.006V166.1H397.515V192H393.852ZM413.281 192.296C411.185 192.296 409.372 191.988 407.842 191.371C406.313 190.754 405.129 189.879 404.29 188.744C403.452 187.585 403.032 186.228 403.032 184.674C403.032 183.145 403.427 181.85 404.216 180.789C405.03 179.704 406.202 178.89 407.731 178.347C409.261 177.78 411.111 177.496 413.281 177.496C415.452 177.496 417.302 177.78 418.831 178.347C420.385 178.89 421.569 179.704 422.383 180.789C423.197 181.874 423.604 183.169 423.604 184.674C423.604 186.228 423.185 187.585 422.346 188.744C421.508 189.879 420.311 190.754 418.757 191.371C417.203 191.988 415.378 192.296 413.281 192.296ZM413.281 189.299C415.353 189.299 416.969 188.88 418.128 188.041C419.312 187.178 419.904 186.018 419.904 184.563C419.904 183.132 419.312 182.01 418.128 181.196C416.969 180.357 415.353 179.938 413.281 179.938C411.234 179.938 409.631 180.357 408.471 181.196C407.312 182.01 406.732 183.132 406.732 184.563C406.732 186.018 407.312 187.178 408.471 188.041C409.631 188.88 411.234 189.299 413.281 189.299ZM413.281 179.494C411.308 179.494 409.631 179.235 408.249 178.717C406.868 178.174 405.807 177.41 405.067 176.423C404.327 175.412 403.957 174.215 403.957 172.834C403.957 171.379 404.34 170.133 405.104 169.097C405.894 168.036 406.991 167.222 408.397 166.655C409.803 166.088 411.431 165.804 413.281 165.804C415.156 165.804 416.796 166.088 418.202 166.655C419.608 167.222 420.706 168.036 421.495 169.097C422.285 170.133 422.679 171.379 422.679 172.834C422.679 174.215 422.309 175.412 421.569 176.423C420.829 177.41 419.756 178.174 418.35 178.717C416.944 179.235 415.255 179.494 413.281 179.494ZM413.281 177.126C415.082 177.126 416.488 176.756 417.499 176.016C418.535 175.276 419.053 174.265 419.053 172.982C419.053 171.675 418.523 170.651 417.462 169.911C416.402 169.171 415.008 168.801 413.281 168.801C411.555 168.801 410.173 169.171 409.137 169.911C408.126 170.651 407.62 171.675 407.62 172.982C407.62 174.265 408.114 175.276 409.1 176.016C410.112 176.756 411.505 177.126 413.281 177.126Z" fill="#292C33" fill-opacity="0.6"/>
<path d="M386.586 249V246.484L397.131 236.309C398.068 235.421 398.759 234.644 399.203 233.978C399.671 233.287 399.98 232.658 400.128 232.091C400.3 231.499 400.387 230.932 400.387 230.389C400.387 229.057 399.918 228.009 398.981 227.244C398.043 226.479 396.674 226.097 394.874 226.097C393.492 226.097 392.247 226.331 391.137 226.8C390.027 227.244 389.065 227.947 388.251 228.909L385.735 226.726C386.721 225.468 388.041 224.506 389.694 223.84C391.371 223.149 393.209 222.804 395.207 222.804C397.007 222.804 398.574 223.1 399.906 223.692C401.238 224.259 402.261 225.086 402.977 226.171C403.717 227.256 404.087 228.539 404.087 230.019C404.087 230.858 403.976 231.684 403.754 232.498C403.532 233.312 403.112 234.175 402.496 235.088C401.879 236.001 400.991 237.024 399.832 238.159L390.434 247.224L389.546 245.781H405.197V249H386.586ZM416.601 249.296C414.776 249.296 413 249.012 411.273 248.445C409.571 247.878 408.177 247.113 407.092 246.151L408.794 243.228C409.657 244.042 410.78 244.708 412.161 245.226C413.542 245.744 415.01 246.003 416.564 246.003C418.537 246.003 420.054 245.584 421.115 244.745C422.176 243.906 422.706 242.784 422.706 241.378C422.706 240.416 422.472 239.577 422.003 238.862C421.534 238.147 420.72 237.604 419.561 237.234C418.426 236.839 416.86 236.642 414.862 236.642H408.979L410.348 223.1H424.963V226.319H411.717L413.641 224.506L412.568 235.199L410.644 233.423H415.639C418.229 233.423 420.313 233.756 421.892 234.422C423.471 235.088 424.618 236.013 425.333 237.197C426.048 238.356 426.406 239.701 426.406 241.23C426.406 242.71 426.048 244.067 425.333 245.3C424.618 246.509 423.532 247.483 422.077 248.223C420.646 248.938 418.821 249.296 416.601 249.296Z" fill="#292C33" fill-opacity="0.6"/>
<path d="M67.1547 306V303.484L77.6997 293.309C78.6371 292.421 79.3277 291.644 79.7717 290.978C80.2404 290.287 80.5487 289.658 80.6967 289.091C80.8694 288.499 80.9557 287.932 80.9557 287.389C80.9557 286.057 80.4871 285.009 79.5497 284.244C78.6124 283.479 77.2434 283.097 75.4427 283.097C74.0614 283.097 72.8157 283.331 71.7057 283.8C70.5957 284.244 69.6337 284.947 68.8197 285.909L66.3037 283.726C67.2904 282.468 68.6101 281.506 70.2627 280.84C71.9401 280.149 73.7777 279.804 75.7757 279.804C77.5764 279.804 79.1427 280.1 80.4747 280.692C81.8067 281.259 82.8304 282.086 83.5457 283.171C84.2857 284.256 84.6557 285.539 84.6557 287.019C84.6557 287.858 84.5447 288.684 84.3227 289.498C84.1007 290.312 83.6814 291.175 83.0647 292.088C82.4481 293.001 81.5601 294.024 80.4007 295.159L71.0027 304.224L70.1147 302.781H85.7657V306H67.1547ZM93.2487 306L104.238 281.654L105.2 283.319H89.8077L91.6577 281.506V287.944H88.1057V280.1H107.642V282.616L97.1707 306H93.2487Z" fill="#292C33" fill-opacity="0.6"/>
<path d="M130.605 306V303.484L141.15 293.309C142.087 292.421 142.778 291.644 143.222 290.978C143.691 290.287 143.999 289.658 144.147 289.091C144.32 288.499 144.406 287.932 144.406 287.389C144.406 286.057 143.937 285.009 143 284.244C142.063 283.479 140.694 283.097 138.893 283.097C137.512 283.097 136.266 283.331 135.156 283.8C134.046 284.244 133.084 284.947 132.27 285.909L129.754 283.726C130.741 282.468 132.06 281.506 133.713 280.84C135.39 280.149 137.228 279.804 139.226 279.804C141.027 279.804 142.593 280.1 143.925 280.692C145.257 281.259 146.281 282.086 146.996 283.171C147.736 284.256 148.106 285.539 148.106 287.019C148.106 287.858 147.995 288.684 147.773 289.498C147.551 290.312 147.132 291.175 146.515 292.088C145.898 293.001 145.01 294.024 143.851 295.159L134.453 304.224L133.565 302.781H149.216V306H130.605ZM162.359 306.296C160.263 306.296 158.45 305.988 156.92 305.371C155.391 304.754 154.207 303.879 153.368 302.744C152.53 301.585 152.11 300.228 152.11 298.674C152.11 297.145 152.505 295.85 153.294 294.789C154.108 293.704 155.28 292.89 156.809 292.347C158.339 291.78 160.189 291.496 162.359 291.496C164.53 291.496 166.38 291.78 167.909 292.347C169.463 292.89 170.647 293.704 171.461 294.789C172.275 295.874 172.682 297.169 172.682 298.674C172.682 300.228 172.263 301.585 171.424 302.744C170.586 303.879 169.389 304.754 167.835 305.371C166.281 305.988 164.456 306.296 162.359 306.296ZM162.359 303.299C164.431 303.299 166.047 302.88 167.206 302.041C168.39 301.178 168.982 300.018 168.982 298.563C168.982 297.132 168.39 296.01 167.206 295.196C166.047 294.357 164.431 293.938 162.359 293.938C160.312 293.938 158.709 294.357 157.549 295.196C156.39 296.01 155.81 297.132 155.81 298.563C155.81 300.018 156.39 301.178 157.549 302.041C158.709 302.88 160.312 303.299 162.359 303.299ZM162.359 293.494C160.386 293.494 158.709 293.235 157.327 292.717C155.946 292.174 154.885 291.41 154.145 290.423C153.405 289.412 153.035 288.215 153.035 286.834C153.035 285.379 153.418 284.133 154.182 283.097C154.972 282.036 156.069 281.222 157.475 280.655C158.881 280.088 160.509 279.804 162.359 279.804C164.234 279.804 165.874 280.088 167.28 280.655C168.686 281.222 169.784 282.036 170.573 283.097C171.363 284.133 171.757 285.379 171.757 286.834C171.757 288.215 171.387 289.412 170.647 290.423C169.907 291.41 168.834 292.174 167.428 292.717C166.022 293.235 164.333 293.494 162.359 293.494ZM162.359 291.126C164.16 291.126 165.566 290.756 166.577 290.016C167.613 289.276 168.131 288.265 168.131 286.982C168.131 285.675 167.601 284.651 166.54 283.911C165.48 283.171 164.086 282.801 162.359 282.801C160.633 282.801 159.251 283.171 158.215 283.911C157.204 284.651 156.698 285.675 156.698 286.982C156.698 288.265 157.192 289.276 158.178 290.016C159.19 290.756 160.583 291.126 162.359 291.126Z" fill="white"/>
<path d="M194.896 306V303.484L205.441 293.309C206.378 292.421 207.069 291.644 207.513 290.978C207.982 290.287 208.29 289.658 208.438 289.091C208.611 288.499 208.697 287.932 208.697 287.389C208.697 286.057 208.228 285.009 207.291 284.244C206.354 283.479 204.985 283.097 203.184 283.097C201.803 283.097 200.557 283.331 199.447 283.8C198.337 284.244 197.375 284.947 196.561 285.909L194.045 283.726C195.032 282.468 196.351 281.506 198.004 280.84C199.681 280.149 201.519 279.804 203.517 279.804C205.318 279.804 206.884 280.1 208.216 280.692C209.548 281.259 210.572 282.086 211.287 283.171C212.027 284.256 212.397 285.539 212.397 287.019C212.397 287.858 212.286 288.684 212.064 289.498C211.842 290.312 211.423 291.175 210.806 292.088C210.189 293.001 209.301 294.024 208.142 295.159L198.744 304.224L197.856 302.781H213.507V306H194.896ZM224.948 279.804C227.291 279.804 229.265 280.31 230.868 281.321C232.496 282.332 233.729 283.8 234.568 285.724C235.407 287.623 235.826 289.954 235.826 292.717C235.826 295.652 235.308 298.131 234.272 300.154C233.236 302.177 231.805 303.706 229.98 304.742C228.155 305.778 226.021 306.296 223.579 306.296C222.37 306.296 221.199 306.173 220.064 305.926C218.954 305.679 217.98 305.297 217.141 304.779L218.547 301.893C219.238 302.337 220.002 302.658 220.841 302.855C221.704 303.028 222.605 303.114 223.542 303.114C226.157 303.114 228.241 302.3 229.795 300.672C231.349 299.019 232.126 296.577 232.126 293.346C232.126 292.828 232.101 292.211 232.052 291.496C232.003 290.781 231.892 290.078 231.719 289.387L232.94 290.645C232.595 291.78 232.015 292.742 231.201 293.531C230.412 294.296 229.45 294.875 228.315 295.27C227.205 295.64 225.984 295.825 224.652 295.825C222.95 295.825 221.433 295.504 220.101 294.863C218.769 294.222 217.721 293.321 216.956 292.162C216.191 290.978 215.809 289.584 215.809 287.981C215.809 286.304 216.204 284.861 216.993 283.652C217.807 282.419 218.905 281.469 220.286 280.803C221.692 280.137 223.246 279.804 224.948 279.804ZM225.096 282.801C223.986 282.801 222.999 283.011 222.136 283.43C221.273 283.849 220.594 284.429 220.101 285.169C219.632 285.909 219.398 286.797 219.398 287.833C219.398 289.362 219.928 290.583 220.989 291.496C222.05 292.384 223.48 292.828 225.281 292.828C226.465 292.828 227.501 292.606 228.389 292.162C229.302 291.718 230.005 291.114 230.498 290.349C231.016 289.584 231.275 288.733 231.275 287.796C231.275 286.883 231.041 286.057 230.572 285.317C230.103 284.577 229.413 283.973 228.5 283.504C227.587 283.035 226.453 282.801 225.096 282.801Z" fill="#292C33" fill-opacity="0.6"/>
<path d="M266.139 306.296C264.314 306.296 262.538 306.012 260.811 305.445C259.109 304.878 257.715 304.113 256.63 303.151L258.332 300.228C259.195 301.042 260.318 301.708 261.699 302.226C263.08 302.744 264.56 303.003 266.139 303.003C268.063 303.003 269.555 302.596 270.616 301.782C271.701 300.943 272.244 299.821 272.244 298.415C272.244 297.058 271.726 295.973 270.69 295.159C269.679 294.32 268.063 293.901 265.843 293.901H263.771V291.311L271.467 281.839L271.985 283.319H257.814V280.1H274.908V282.616L267.249 292.051L265.325 290.904H266.546C269.679 290.904 272.022 291.607 273.576 293.013C275.155 294.419 275.944 296.207 275.944 298.378C275.944 299.833 275.586 301.165 274.871 302.374C274.156 303.583 273.07 304.545 271.615 305.26C270.184 305.951 268.359 306.296 266.139 306.296ZM289.977 306.296C287.954 306.296 286.141 305.778 284.538 304.742C282.959 303.706 281.701 302.201 280.764 300.228C279.851 298.255 279.395 295.862 279.395 293.05C279.395 290.238 279.851 287.845 280.764 285.872C281.701 283.899 282.959 282.394 284.538 281.358C286.141 280.322 287.954 279.804 289.977 279.804C291.975 279.804 293.775 280.322 295.379 281.358C296.982 282.394 298.24 283.899 299.153 285.872C300.065 287.845 300.522 290.238 300.522 293.05C300.522 295.862 300.065 298.255 299.153 300.228C298.24 302.201 296.982 303.706 295.379 304.742C293.775 305.778 291.975 306.296 289.977 306.296ZM289.977 303.003C291.333 303.003 292.517 302.633 293.529 301.893C294.565 301.153 295.366 300.043 295.934 298.563C296.526 297.083 296.822 295.245 296.822 293.05C296.822 290.855 296.526 289.017 295.934 287.537C295.366 286.057 294.565 284.947 293.529 284.207C292.517 283.467 291.333 283.097 289.977 283.097C288.62 283.097 287.424 283.467 286.388 284.207C285.352 284.947 284.538 286.057 283.946 287.537C283.378 289.017 283.095 290.855 283.095 293.05C283.095 295.245 283.378 297.083 283.946 298.563C284.538 300.043 285.352 301.153 286.388 301.893C287.424 302.633 288.62 303.003 289.977 303.003Z" fill="#292C33" fill-opacity="0.6"/>
<path d="M23.1593 135.296C21.334 135.296 19.558 135.012 17.8313 134.445C16.1293 133.878 14.7357 133.113 13.6503 132.151L15.3523 129.228C16.2157 130.042 17.338 130.708 18.7193 131.226C20.1007 131.744 21.5683 132.003 23.1223 132.003C25.0957 132.003 26.6127 131.584 27.6733 130.745C28.734 129.906 29.2643 128.784 29.2643 127.378C29.2643 126.416 29.03 125.577 28.5613 124.862C28.0927 124.147 27.2787 123.604 26.1193 123.234C24.9847 122.839 23.4183 122.642 21.4203 122.642H15.5373L16.9063 109.1H31.5213V112.319H18.2753L20.1993 110.506L19.1263 121.199L17.2023 119.423H22.1973C24.7873 119.423 26.8717 119.756 28.4503 120.422C30.029 121.088 31.176 122.013 31.8913 123.197C32.6067 124.356 32.9643 125.701 32.9643 127.23C32.9643 128.71 32.6067 130.067 31.8913 131.3C31.176 132.509 30.0907 133.483 28.6353 134.223C27.2047 134.938 25.3793 135.296 23.1593 135.296Z" fill="#292C33" fill-opacity="0.6"/>
<path d="M12.3161 192V167.58L13.9071 169.319H6.47009V166.1H15.9791V192H12.3161ZM21.2374 192V189.484L31.7824 179.309C32.7197 178.421 33.4104 177.644 33.8544 176.978C34.3231 176.287 34.6314 175.658 34.7794 175.091C34.9521 174.499 35.0384 173.932 35.0384 173.389C35.0384 172.057 34.5697 171.009 33.6324 170.244C32.6951 169.479 31.3261 169.097 29.5254 169.097C28.1441 169.097 26.8984 169.331 25.7884 169.8C24.6784 170.244 23.7164 170.947 22.9024 171.909L20.3864 169.726C21.3731 168.468 22.6927 167.506 24.3454 166.84C26.0227 166.149 27.8604 165.804 29.8584 165.804C31.6591 165.804 33.2254 166.1 34.5574 166.692C35.8894 167.259 36.9131 168.086 37.6284 169.171C38.3684 170.256 38.7384 171.539 38.7384 173.019C38.7384 173.858 38.6274 174.684 38.4054 175.498C38.1834 176.312 37.7641 177.175 37.1474 178.088C36.5307 179.001 35.6427 180.024 34.4834 181.159L25.0854 190.224L24.1974 188.781H39.8484V192H21.2374Z" fill="#292C33" fill-opacity="0.6"/>
<path d="M11.5212 249V224.58L13.1122 226.319H5.67517V223.1H15.1842V249H11.5212ZM29.2485 222.804C31.5919 222.804 33.5652 223.31 35.1685 224.321C36.7965 225.332 38.0299 226.8 38.8685 228.724C39.7072 230.623 40.1265 232.954 40.1265 235.717C40.1265 238.652 39.6085 241.131 38.5725 243.154C37.5365 245.177 36.1059 246.706 34.2805 247.742C32.4552 248.778 30.3215 249.296 27.8795 249.296C26.6709 249.296 25.4992 249.173 24.3645 248.926C23.2545 248.679 22.2802 248.297 21.4415 247.779L22.8475 244.893C23.5382 245.337 24.3029 245.658 25.1415 245.855C26.0049 246.028 26.9052 246.114 27.8425 246.114C30.4572 246.114 32.5415 245.3 34.0955 243.672C35.6495 242.019 36.4265 239.577 36.4265 236.346C36.4265 235.828 36.4019 235.211 36.3525 234.496C36.3032 233.781 36.1922 233.078 36.0195 232.387L37.2405 233.645C36.8952 234.78 36.3155 235.742 35.5015 236.531C34.7122 237.296 33.7502 237.875 32.6155 238.27C31.5055 238.64 30.2845 238.825 28.9525 238.825C27.2505 238.825 25.7335 238.504 24.4015 237.863C23.0695 237.222 22.0212 236.321 21.2565 235.162C20.4919 233.978 20.1095 232.584 20.1095 230.981C20.1095 229.304 20.5042 227.861 21.2935 226.652C22.1075 225.419 23.2052 224.469 24.5865 223.803C25.9925 223.137 27.5465 222.804 29.2485 222.804ZM29.3965 225.801C28.2865 225.801 27.2999 226.011 26.4365 226.43C25.5732 226.849 24.8949 227.429 24.4015 228.169C23.9329 228.909 23.6985 229.797 23.6985 230.833C23.6985 232.362 24.2289 233.583 25.2895 234.496C26.3502 235.384 27.7809 235.828 29.5815 235.828C30.7655 235.828 31.8015 235.606 32.6895 235.162C33.6022 234.718 34.3052 234.114 34.7985 233.349C35.3165 232.584 35.5755 231.733 35.5755 230.796C35.5755 229.883 35.3412 229.057 34.8725 228.317C34.4039 227.577 33.7132 226.973 32.8005 226.504C31.8879 226.035 30.7532 225.801 29.3965 225.801Z" fill="#292C33" fill-opacity="0.6"/>
<path d="M2.9904 306V303.484L13.5354 293.309C14.4728 292.421 15.1634 291.644 15.6074 290.978C16.0761 290.287 16.3844 289.658 16.5324 289.091C16.7051 288.499 16.7914 287.932 16.7914 287.389C16.7914 286.057 16.3228 285.009 15.3854 284.244C14.4481 283.479 13.0791 283.097 11.2784 283.097C9.89707 283.097 8.6514 283.331 7.5414 283.8C6.4314 284.244 5.4694 284.947 4.6554 285.909L2.1394 283.726C3.12606 282.468 4.44573 281.506 6.0984 280.84C7.77573 280.149 9.6134 279.804 11.6114 279.804C13.4121 279.804 14.9784 280.1 16.3104 280.692C17.6424 281.259 18.6661 282.086 19.3814 283.171C20.1214 284.256 20.4914 285.539 20.4914 287.019C20.4914 287.858 20.3804 288.684 20.1584 289.498C19.9364 290.312 19.5171 291.175 18.9004 292.088C18.2838 293.001 17.3958 294.024 16.2364 295.159L6.8384 304.224L5.9504 302.781H21.6014V306H2.9904ZM35.4854 306.296C33.1914 306.296 31.2304 305.79 29.6024 304.779C27.9744 303.768 26.7287 302.312 25.8654 300.413C25.0267 298.489 24.6074 296.146 24.6074 293.383C24.6074 290.448 25.1254 287.969 26.1614 285.946C27.1974 283.923 28.6404 282.394 30.4904 281.358C32.3404 280.322 34.4617 279.804 36.8544 279.804C38.0877 279.804 39.2594 279.927 40.3694 280.174C41.5041 280.421 42.4784 280.803 43.2924 281.321L41.8864 284.207C41.2204 283.738 40.4557 283.418 39.5924 283.245C38.7537 283.072 37.8657 282.986 36.9284 282.986C34.2891 282.986 32.1924 283.812 30.6384 285.465C29.0844 287.093 28.3074 289.523 28.3074 292.754C28.3074 293.272 28.3321 293.889 28.3814 294.604C28.4307 295.319 28.5541 296.022 28.7514 296.713L27.4934 295.455C27.8634 294.32 28.4431 293.371 29.2324 292.606C30.0464 291.817 31.0084 291.237 32.1184 290.867C33.2531 290.472 34.4741 290.275 35.7814 290.275C37.5081 290.275 39.0374 290.596 40.3694 291.237C41.7014 291.878 42.7497 292.791 43.5144 293.975C44.2791 295.134 44.6614 296.516 44.6614 298.119C44.6614 299.772 44.2544 301.215 43.4404 302.448C42.6264 303.681 41.5287 304.631 40.1474 305.297C38.7661 305.963 37.2121 306.296 35.4854 306.296ZM35.3374 303.299C36.4721 303.299 37.4587 303.089 38.2974 302.67C39.1607 302.251 39.8391 301.671 40.3324 300.931C40.8257 300.166 41.0724 299.278 41.0724 298.267C41.0724 296.738 40.5421 295.529 39.4814 294.641C38.4207 293.728 36.9777 293.272 35.1524 293.272C33.9684 293.272 32.9324 293.494 32.0444 293.938C31.1564 294.382 30.4534 294.986 29.9354 295.751C29.4421 296.491 29.1954 297.342 29.1954 298.304C29.1954 299.192 29.4297 300.018 29.8984 300.783C30.3671 301.523 31.0577 302.127 31.9704 302.596C32.8831 303.065 34.0054 303.299 35.3374 303.299Z" fill="#292C33" fill-opacity="0.6"/>
<path d="M88.6834 135.296C86.3894 135.296 84.4284 134.79 82.8004 133.779C81.1724 132.768 79.9268 131.312 79.0634 129.413C78.2248 127.489 77.8054 125.146 77.8054 122.383C77.8054 119.448 78.3234 116.969 79.3594 114.946C80.3954 112.923 81.8384 111.394 83.6884 110.358C85.5384 109.322 87.6598 108.804 90.0524 108.804C91.2858 108.804 92.4574 108.927 93.5674 109.174C94.7021 109.421 95.6764 109.803 96.4904 110.321L95.0844 113.207C94.4184 112.738 93.6538 112.418 92.7904 112.245C91.9518 112.072 91.0638 111.986 90.1264 111.986C87.4871 111.986 85.3904 112.812 83.8364 114.465C82.2824 116.093 81.5054 118.523 81.5054 121.754C81.5054 122.272 81.5301 122.889 81.5794 123.604C81.6288 124.319 81.7521 125.022 81.9494 125.713L80.6914 124.455C81.0614 123.32 81.6411 122.371 82.4304 121.606C83.2444 120.817 84.2064 120.237 85.3164 119.867C86.4511 119.472 87.6721 119.275 88.9794 119.275C90.7061 119.275 92.2354 119.596 93.5674 120.237C94.8994 120.878 95.9478 121.791 96.7124 122.975C97.4771 124.134 97.8594 125.516 97.8594 127.119C97.8594 128.772 97.4524 130.215 96.6384 131.448C95.8244 132.681 94.7268 133.631 93.3454 134.297C91.9641 134.963 90.4101 135.296 88.6834 135.296ZM88.5354 132.299C89.6701 132.299 90.6568 132.089 91.4954 131.67C92.3588 131.251 93.0371 130.671 93.5304 129.931C94.0238 129.166 94.2704 128.278 94.2704 127.267C94.2704 125.738 93.7401 124.529 92.6794 123.641C91.6188 122.728 90.1758 122.272 88.3504 122.272C87.1664 122.272 86.1304 122.494 85.2424 122.938C84.3544 123.382 83.6514 123.986 83.1334 124.751C82.6401 125.491 82.3934 126.342 82.3934 127.304C82.3934 128.192 82.6278 129.018 83.0964 129.783C83.5651 130.523 84.2558 131.127 85.1684 131.596C86.0811 132.065 87.2034 132.299 88.5354 132.299Z" fill="#292C33" fill-opacity="0.6"/>
<path d="M76.1553 192V167.58L77.7463 169.319H70.3093V166.1H79.8183V192H76.1553ZM93.4016 192.296C91.5763 192.296 89.8003 192.012 88.0736 191.445C86.3716 190.878 84.978 190.113 83.8926 189.151L85.5946 186.228C86.458 187.042 87.5803 187.708 88.9616 188.226C90.343 188.744 91.823 189.003 93.4016 189.003C95.3256 189.003 96.818 188.596 97.8786 187.782C98.964 186.943 99.5066 185.821 99.5066 184.415C99.5066 183.058 98.9886 181.973 97.9526 181.159C96.9413 180.32 95.3256 179.901 93.1056 179.901H91.0336V177.311L98.7296 167.839L99.2476 169.319H85.0766V166.1H102.171V168.616L94.5116 178.051L92.5876 176.904H93.8086C96.9413 176.904 99.2846 177.607 100.839 179.013C102.417 180.419 103.207 182.207 103.207 184.378C103.207 185.833 102.849 187.165 102.134 188.374C101.418 189.583 100.333 190.545 98.8776 191.26C97.447 191.951 95.6216 192.296 93.4016 192.296Z" fill="#292C33" fill-opacity="0.6"/>
<path d="M65.8721 249V246.484L76.4171 236.309C77.3544 235.421 78.0451 234.644 78.4891 233.978C78.9578 233.287 79.2661 232.658 79.4141 232.091C79.5868 231.499 79.6731 230.932 79.6731 230.389C79.6731 229.057 79.2044 228.009 78.2671 227.244C77.3298 226.479 75.9608 226.097 74.1601 226.097C72.7788 226.097 71.5331 226.331 70.4231 226.8C69.3131 227.244 68.3511 227.947 67.5371 228.909L65.0211 226.726C66.0078 225.468 67.3274 224.506 68.9801 223.84C70.6574 223.149 72.4951 222.804 74.4931 222.804C76.2938 222.804 77.8601 223.1 79.1921 223.692C80.5241 224.259 81.5478 225.086 82.2631 226.171C83.0031 227.256 83.3731 228.539 83.3731 230.019C83.3731 230.858 83.2621 231.684 83.0401 232.498C82.8181 233.312 82.3988 234.175 81.7821 235.088C81.1654 236.001 80.2774 237.024 79.1181 238.159L69.7201 247.224L68.8321 245.781H84.4831V249H65.8721ZM98.071 249.296C96.0484 249.296 94.2354 248.778 92.632 247.742C91.0534 246.706 89.7954 245.201 88.858 243.228C87.9454 241.255 87.489 238.862 87.489 236.05C87.489 233.238 87.9454 230.845 88.858 228.872C89.7954 226.899 91.0534 225.394 92.632 224.358C94.2354 223.322 96.0484 222.804 98.071 222.804C100.069 222.804 101.87 223.322 103.473 224.358C105.076 225.394 106.334 226.899 107.247 228.872C108.16 230.845 108.616 233.238 108.616 236.05C108.616 238.862 108.16 241.255 107.247 243.228C106.334 245.201 105.076 246.706 103.473 247.742C101.87 248.778 100.069 249.296 98.071 249.296ZM98.071 246.003C99.4277 246.003 100.612 245.633 101.623 244.893C102.659 244.153 103.461 243.043 104.028 241.563C104.62 240.083 104.916 238.245 104.916 236.05C104.916 233.855 104.62 232.017 104.028 230.537C103.461 229.057 102.659 227.947 101.623 227.207C100.612 226.467 99.4277 226.097 98.071 226.097C96.7144 226.097 95.518 226.467 94.482 227.207C93.446 227.947 92.632 229.057 92.04 230.537C91.4727 232.017 91.189 233.855 91.189 236.05C91.189 238.245 91.4727 240.083 92.04 241.563C92.632 243.043 93.446 244.153 94.482 244.893C95.518 245.633 96.7144 246.003 98.071 246.003Z" fill="#292C33" fill-opacity="0.6"/>
<path d="M146.961 135L157.95 110.654L158.912 112.319H143.52L145.37 110.506V116.944H141.818V109.1H161.354V111.616L150.883 135H146.961Z" fill="#292C33" fill-opacity="0.6"/>
<path d="M138.684 192V167.58L140.275 169.319H132.838V166.1H142.347V192H138.684ZM147.643 185.636V183.046L160.889 166.1H164.885L151.75 183.046L149.863 182.454H170.546V185.636H147.643ZM162.036 192V185.636L162.147 182.454V176.83H165.625V192H162.036Z" fill="#292C33" fill-opacity="0.6"/>
<path d="M135.664 249V246.484L146.209 236.309C147.146 235.421 147.837 234.644 148.281 233.978C148.749 233.287 149.058 232.658 149.206 232.091C149.378 231.499 149.465 230.932 149.465 230.389C149.465 229.057 148.996 228.009 148.059 227.244C147.121 226.479 145.752 226.097 143.952 226.097C142.57 226.097 141.325 226.331 140.215 226.8C139.105 227.244 138.143 227.947 137.329 228.909L134.813 226.726C135.799 225.468 137.119 224.506 138.772 223.84C140.449 223.149 142.287 222.804 144.285 222.804C146.085 222.804 147.652 223.1 148.984 223.692C150.316 224.259 151.339 225.086 152.055 226.171C152.795 227.256 153.165 228.539 153.165 230.019C153.165 230.858 153.054 231.684 152.832 232.498C152.61 233.312 152.19 234.175 151.574 235.088C150.957 236.001 150.069 237.024 148.91 238.159L139.512 247.224L138.624 245.781H154.275V249H135.664ZM161.683 249V224.58L163.274 226.319H155.837V223.1H165.346V249H161.683Z" fill="#292C33" fill-opacity="0.6"/>
<path d="M211.949 52.1H221.458V78H217.795V55.319H211.949V52.1Z" fill="#292C33" fill-opacity="0.6"/>
<path d="M215.539 135.296C213.443 135.296 211.63 134.988 210.1 134.371C208.571 133.754 207.387 132.879 206.548 131.744C205.71 130.585 205.29 129.228 205.29 127.674C205.29 126.145 205.685 124.85 206.474 123.789C207.288 122.704 208.46 121.89 209.989 121.347C211.519 120.78 213.369 120.496 215.539 120.496C217.71 120.496 219.56 120.78 221.089 121.347C222.643 121.89 223.827 122.704 224.641 123.789C225.455 124.874 225.862 126.169 225.862 127.674C225.862 129.228 225.443 130.585 224.604 131.744C223.766 132.879 222.569 133.754 221.015 134.371C219.461 134.988 217.636 135.296 215.539 135.296ZM215.539 132.299C217.611 132.299 219.227 131.88 220.386 131.041C221.57 130.178 222.162 129.018 222.162 127.563C222.162 126.132 221.57 125.01 220.386 124.196C219.227 123.357 217.611 122.938 215.539 122.938C213.492 122.938 211.889 123.357 210.729 124.196C209.57 125.01 208.99 126.132 208.99 127.563C208.99 129.018 209.57 130.178 210.729 131.041C211.889 131.88 213.492 132.299 215.539 132.299ZM215.539 122.494C213.566 122.494 211.889 122.235 210.507 121.717C209.126 121.174 208.065 120.41 207.325 119.423C206.585 118.412 206.215 117.215 206.215 115.834C206.215 114.379 206.598 113.133 207.362 112.097C208.152 111.036 209.249 110.222 210.655 109.655C212.061 109.088 213.689 108.804 215.539 108.804C217.414 108.804 219.054 109.088 220.46 109.655C221.866 110.222 222.964 111.036 223.753 112.097C224.543 113.133 224.937 114.379 224.937 115.834C224.937 117.215 224.567 118.412 223.827 119.423C223.087 120.41 222.014 121.174 220.608 121.717C219.202 122.235 217.513 122.494 215.539 122.494ZM215.539 120.126C217.34 120.126 218.746 119.756 219.757 119.016C220.793 118.276 221.311 117.265 221.311 115.982C221.311 114.675 220.781 113.651 219.72 112.911C218.66 112.171 217.266 111.801 215.539 111.801C213.813 111.801 212.431 112.171 211.395 112.911C210.384 113.651 209.878 114.675 209.878 115.982C209.878 117.265 210.372 118.276 211.358 119.016C212.37 119.756 213.763 120.126 215.539 120.126Z" fill="#292C33" fill-opacity="0.6"/>
<path d="M204.24 192V167.58L205.831 169.319H198.394V166.1H207.903V192H204.24ZM221.93 192.296C220.105 192.296 218.329 192.012 216.602 191.445C214.9 190.878 213.507 190.113 212.421 189.151L214.123 186.228C214.987 187.042 216.109 187.708 217.49 188.226C218.872 188.744 220.339 189.003 221.893 189.003C223.867 189.003 225.384 188.584 226.444 187.745C227.505 186.906 228.035 185.784 228.035 184.378C228.035 183.416 227.801 182.577 227.332 181.862C226.864 181.147 226.05 180.604 224.89 180.234C223.756 179.839 222.189 179.642 220.191 179.642H214.308L215.677 166.1H230.292V169.319H217.046L218.97 167.506L217.897 178.199L215.973 176.423H220.968C223.558 176.423 225.643 176.756 227.221 177.422C228.8 178.088 229.947 179.013 230.662 180.197C231.378 181.356 231.735 182.701 231.735 184.23C231.735 185.71 231.378 187.067 230.662 188.3C229.947 189.509 228.862 190.483 227.406 191.223C225.976 191.938 224.15 192.296 221.93 192.296Z" fill="#292C33" fill-opacity="0.6"/>
<path d="M195.691 249V246.484L206.236 236.309C207.174 235.421 207.864 234.644 208.308 233.978C208.777 233.287 209.085 232.658 209.233 232.091C209.406 231.499 209.492 230.932 209.492 230.389C209.492 229.057 209.024 228.009 208.086 227.244C207.149 226.479 205.78 226.097 203.979 226.097C202.598 226.097 201.352 226.331 200.242 226.8C199.132 227.244 198.17 227.947 197.356 228.909L194.84 226.726C195.827 225.468 197.146 224.506 198.799 223.84C200.477 223.149 202.314 222.804 204.312 222.804C206.113 222.804 207.679 223.1 209.011 223.692C210.343 224.259 211.367 225.086 212.082 226.171C212.822 227.256 213.192 228.539 213.192 230.019C213.192 230.858 213.081 231.684 212.859 232.498C212.637 233.312 212.218 234.175 211.601 235.088C210.985 236.001 210.097 237.024 208.937 238.159L199.539 247.224L198.651 245.781H214.302V249H195.691ZM216.937 249V246.484L227.482 236.309C228.42 235.421 229.11 234.644 229.554 233.978C230.023 233.287 230.331 232.658 230.479 232.091C230.652 231.499 230.738 230.932 230.738 230.389C230.738 229.057 230.27 228.009 229.332 227.244C228.395 226.479 227.026 226.097 225.225 226.097C223.844 226.097 222.598 226.331 221.488 226.8C220.378 227.244 219.416 227.947 218.602 228.909L216.086 226.726C217.073 225.468 218.393 224.506 220.045 223.84C221.723 223.149 223.56 222.804 225.558 222.804C227.359 222.804 228.925 223.1 230.257 223.692C231.589 224.259 232.613 225.086 233.328 226.171C234.068 227.256 234.438 228.539 234.438 230.019C234.438 230.858 234.327 231.684 234.105 232.498C233.883 233.312 233.464 234.175 232.847 235.088C232.231 236.001 231.343 237.024 230.183 238.159L220.785 247.224L219.897 245.781H235.548V249H216.937Z" fill="#292C33" fill-opacity="0.6"/>
<path d="M278.128 108.804C280.472 108.804 282.445 109.31 284.048 110.321C285.676 111.332 286.91 112.8 287.748 114.724C288.587 116.623 289.006 118.954 289.006 121.717C289.006 124.652 288.488 127.131 287.452 129.154C286.416 131.177 284.986 132.706 283.16 133.742C281.335 134.778 279.201 135.296 276.759 135.296C275.551 135.296 274.379 135.173 273.244 134.926C272.134 134.679 271.16 134.297 270.321 133.779L271.727 130.893C272.418 131.337 273.183 131.658 274.021 131.855C274.885 132.028 275.785 132.114 276.722 132.114C279.337 132.114 281.421 131.3 282.975 129.672C284.529 128.019 285.306 125.577 285.306 122.346C285.306 121.828 285.282 121.211 285.232 120.496C285.183 119.781 285.072 119.078 284.899 118.387L286.12 119.645C285.775 120.78 285.195 121.742 284.381 122.531C283.592 123.296 282.63 123.875 281.495 124.27C280.385 124.64 279.164 124.825 277.832 124.825C276.13 124.825 274.613 124.504 273.281 123.863C271.949 123.222 270.901 122.321 270.136 121.162C269.372 119.978 268.989 118.584 268.989 116.981C268.989 115.304 269.384 113.861 270.173 112.652C270.987 111.419 272.085 110.469 273.466 109.803C274.872 109.137 276.426 108.804 278.128 108.804ZM278.276 111.801C277.166 111.801 276.18 112.011 275.316 112.43C274.453 112.849 273.775 113.429 273.281 114.169C272.813 114.909 272.578 115.797 272.578 116.833C272.578 118.362 273.109 119.583 274.169 120.496C275.23 121.384 276.661 121.828 278.461 121.828C279.645 121.828 280.681 121.606 281.569 121.162C282.482 120.718 283.185 120.114 283.678 119.349C284.196 118.584 284.455 117.733 284.455 116.796C284.455 115.883 284.221 115.057 283.752 114.317C283.284 113.577 282.593 112.973 281.68 112.504C280.768 112.035 279.633 111.801 278.276 111.801Z" fill="#292C33" fill-opacity="0.6"/>
<path d="M267.248 192V167.58L268.839 169.319H261.402V166.1H270.911V192H267.248ZM287.455 192.296C285.161 192.296 283.2 191.79 281.572 190.779C279.944 189.768 278.698 188.312 277.835 186.413C276.996 184.489 276.577 182.146 276.577 179.383C276.577 176.448 277.095 173.969 278.131 171.946C279.167 169.923 280.61 168.394 282.46 167.358C284.31 166.322 286.431 165.804 288.824 165.804C290.057 165.804 291.229 165.927 292.339 166.174C293.473 166.421 294.448 166.803 295.262 167.321L293.856 170.207C293.19 169.738 292.425 169.418 291.562 169.245C290.723 169.072 289.835 168.986 288.898 168.986C286.258 168.986 284.162 169.812 282.608 171.465C281.054 173.093 280.277 175.523 280.277 178.754C280.277 179.272 280.301 179.889 280.351 180.604C280.4 181.319 280.523 182.022 280.721 182.713L279.463 181.455C279.833 180.32 280.412 179.371 281.202 178.606C282.016 177.817 282.978 177.237 284.088 176.867C285.222 176.472 286.443 176.275 287.751 176.275C289.477 176.275 291.007 176.596 292.339 177.237C293.671 177.878 294.719 178.791 295.484 179.975C296.248 181.134 296.631 182.516 296.631 184.119C296.631 185.772 296.224 187.215 295.41 188.448C294.596 189.681 293.498 190.631 292.117 191.297C290.735 191.963 289.181 192.296 287.455 192.296ZM287.307 189.299C288.441 189.299 289.428 189.089 290.267 188.67C291.13 188.251 291.808 187.671 292.302 186.931C292.795 186.166 293.042 185.278 293.042 184.267C293.042 182.738 292.511 181.529 291.451 180.641C290.39 179.728 288.947 179.272 287.122 179.272C285.938 179.272 284.902 179.494 284.014 179.938C283.126 180.382 282.423 180.986 281.905 181.751C281.411 182.491 281.165 183.342 281.165 184.304C281.165 185.192 281.399 186.018 281.868 186.783C282.336 187.523 283.027 188.127 283.94 188.596C284.852 189.065 285.975 189.299 287.307 189.299Z" fill="#292C33" fill-opacity="0.6"/>
<path d="M259.53 249V246.484L270.075 236.309C271.013 235.421 271.703 234.644 272.147 233.978C272.616 233.287 272.924 232.658 273.072 232.091C273.245 231.499 273.331 230.932 273.331 230.389C273.331 229.057 272.863 228.009 271.925 227.244C270.988 226.479 269.619 226.097 267.818 226.097C266.437 226.097 265.191 226.331 264.081 226.8C262.971 227.244 262.009 227.947 261.195 228.909L258.679 226.726C259.666 225.468 260.986 224.506 262.638 223.84C264.316 223.149 266.153 222.804 268.151 222.804C269.952 222.804 271.518 223.1 272.85 223.692C274.182 224.259 275.206 225.086 275.921 226.171C276.661 227.256 277.031 228.539 277.031 230.019C277.031 230.858 276.92 231.684 276.698 232.498C276.476 233.312 276.057 234.175 275.44 235.088C274.824 236.001 273.936 237.024 272.776 238.159L263.378 247.224L262.49 245.781H278.141V249H259.53ZM289.101 249.296C287.276 249.296 285.5 249.012 283.773 248.445C282.071 247.878 280.678 247.113 279.592 246.151L281.294 243.228C282.158 244.042 283.28 244.708 284.661 245.226C286.043 245.744 287.523 246.003 289.101 246.003C291.025 246.003 292.518 245.596 293.578 244.782C294.664 243.943 295.206 242.821 295.206 241.415C295.206 240.058 294.688 238.973 293.652 238.159C292.641 237.32 291.025 236.901 288.805 236.901H286.733V234.311L294.429 224.839L294.947 226.319H280.776V223.1H297.87V225.616L290.211 235.051L288.287 233.904H289.508C292.641 233.904 294.984 234.607 296.538 236.013C298.117 237.419 298.906 239.207 298.906 241.378C298.906 242.833 298.549 244.165 297.833 245.374C297.118 246.583 296.033 247.545 294.577 248.26C293.147 248.951 291.321 249.296 289.101 249.296Z" fill="#292C33" fill-opacity="0.6"/>
<path d="M279.574 74.781H292.857V78H274.246V75.484L284.791 65.309C287.529 62.645 288.047 61.017 288.047 59.389C288.047 56.725 286.16 55.097 282.534 55.097C279.759 55.097 277.502 55.985 275.911 57.909L273.395 55.726C275.393 53.247 278.834 51.804 282.867 51.804C288.269 51.804 291.747 54.579 291.747 59.019C291.747 61.535 291.007 63.792 287.492 67.159L279.574 74.781Z" fill="#292C33" fill-opacity="0.6"/>
</g>
</g>
<defs>
<clipPath id="clip0_3525_5307">
<rect width="431" height="313" fill="white" transform="translate(0.5)"/>
</clipPath>
</defs>
</svg>
