<svg width="431" height="362" viewBox="0 0 431 362" fill="none" xmlns="http://www.w3.org/2000/svg">
<g clip-path="url(#clip0_525_2619)">
<path d="M22.9564 20.7264H20.3476V3.36139H10.8906V20.7264H8.2002V1.32324H22.8749V20.7264H22.9564Z" fill="#B3B3B3"/>
<path d="M38.7725 20.7264H36.1636V14.6119H29.7231V20.7264H27.1143V6.29626H29.7231V12.5738H36.1636V6.29626H38.7725V20.7264Z" fill="#B3B3B3"/>
<path d="M73 20.7264V1.32324H79.359C81.3972 1.32324 82.9462 1.73087 84.0875 2.62766C85.2289 3.52444 85.7996 4.82886 85.7996 6.5409C85.7996 7.35616 85.555 8.08989 85.0658 8.82363C84.5767 9.55736 83.8429 9.96499 83.0277 10.2911C84.3321 10.4541 85.3104 11.0248 86.0441 11.9216C86.7779 12.8184 87.1855 13.9598 87.1855 15.1826C87.1855 16.9762 86.6148 18.2806 85.4735 19.2589C84.3321 20.2373 82.7831 20.6449 80.745 20.6449H73V20.7264ZM75.6904 9.55736H79.9297C80.908 9.55736 81.7233 9.31278 82.294 8.7421C82.9462 8.17142 83.1907 7.43769 83.1907 6.45937C83.1907 5.39954 82.8646 4.6658 82.2124 4.09512C81.5602 3.60597 80.5819 3.27986 79.359 3.27986H75.6904V9.55736ZM75.6904 11.5955V18.6067H80.745C81.9678 18.6067 82.8646 18.2806 83.5168 17.71C84.1691 17.1393 84.4952 16.2425 84.4952 15.1826C84.4952 14.1228 84.1691 13.226 83.5168 12.5738C82.8646 11.9216 81.9678 11.5955 80.745 11.514H80.5819H75.6904V11.5955Z" fill="#B3B3B3"/>
<path d="M101.126 8.33441H96.3976V20.7264H93.7888V8.33441H89.0603V6.29626H101.126V8.33441Z" fill="#B3B3B3"/>
<path d="M150.512 14.5304C150.593 16.4055 149.941 17.9545 148.637 19.1773C147.332 20.4002 145.62 21.0524 143.419 21.0524C141.218 21.0524 139.424 20.2372 138.038 18.6882C136.652 17.1392 136 15.1826 136 12.7368V9.31271C136 6.94846 136.652 4.91031 138.038 3.36132C139.424 1.81233 141.218 0.99707 143.419 0.99707C145.62 0.99707 147.332 1.56775 148.637 2.70911C149.941 3.85048 150.593 5.39947 150.512 7.35609V7.43762H147.984C147.984 6.05168 147.577 4.99184 146.761 4.17658C145.946 3.36132 144.805 2.95369 143.337 2.95369C141.87 2.95369 140.729 3.52437 139.832 4.74726C138.935 5.88862 138.527 7.35609 138.527 9.14966V12.6553C138.527 14.4488 138.935 15.9163 139.832 17.0577C140.729 18.199 141.87 18.8512 143.337 18.8512C144.805 18.8512 145.946 18.4436 146.761 17.7099C147.577 16.8946 147.984 15.8348 147.984 14.4488H150.512V14.5304Z" fill="#B3B3B3"/>
<path d="M165.92 14.0413C165.92 16.161 165.431 17.7915 164.453 19.0959C163.474 20.4003 162.088 20.971 160.295 20.971C159.398 20.971 158.664 20.8079 157.93 20.5634C157.278 20.2373 156.708 19.8296 156.218 19.2589V26.2702H153.61V6.29632H155.648L156.055 8.17142C156.545 7.43768 157.115 6.94853 157.849 6.62242C158.583 6.29632 159.398 6.05174 160.295 6.05174C162.088 6.05174 163.474 6.78548 164.453 8.17142C165.431 9.55736 165.92 11.4325 165.92 13.7967V14.0413ZM163.311 13.7967C163.311 12.1662 162.985 10.7802 162.333 9.80193C161.681 8.82362 160.702 8.25294 159.479 8.25294C158.746 8.25294 158.094 8.41599 157.523 8.7421C156.952 9.0682 156.545 9.55736 156.218 10.128V17.1393C156.545 17.7099 156.952 18.1991 157.523 18.5252C158.094 18.8513 158.746 19.0144 159.479 19.0144C160.702 19.0144 161.681 18.5252 162.333 17.6284C162.985 16.7316 163.311 15.5087 163.311 14.1228V13.7967Z" fill="#B3B3B3"/>
<path d="M215.43 1.32324V20.7264H212.821V12.6553C212.006 12.8999 211.191 13.063 210.375 13.226C209.56 13.3076 208.663 13.3891 207.522 13.3891C205.402 13.3891 203.772 12.8999 202.631 12.0031C201.489 11.1064 201 9.55736 201 7.43769V1.32324H203.609V7.43769C203.609 8.90515 203.935 9.88346 204.506 10.4541C205.158 11.0248 206.136 11.2694 207.441 11.2694C208.337 11.2694 209.234 11.1879 210.131 11.1064C210.946 10.9433 211.843 10.7802 212.74 10.5357V1.32324H215.43Z" fill="#B3B3B3"/>
<path d="M230.675 8.33441H225.947V20.7264H223.338V8.33441H218.61V6.29626H230.675V8.33441Z" fill="#B3B3B3"/>
<path d="M279.675 20.7264H277.066V3.36139H267.609V20.7264H265V1.32324H279.675V20.7264Z" fill="#B3B3B3"/>
<path d="M294.92 8.33453H290.192V20.7265H287.583V8.33453H282.854V6.29639H294.92V8.33453Z" fill="#B3B3B3"/>
<path d="M344.512 14.5302C344.593 16.4053 343.941 17.9543 342.637 19.1772C341.332 20.4001 339.62 21.0523 337.419 21.0523C335.218 21.0523 333.424 20.237 332.038 18.688C330.652 17.139 330 15.1824 330 12.7366V9.31254C330 6.94829 330.652 4.91015 332.038 3.36115C333.424 1.81216 335.218 0.996902 337.419 0.996902C339.62 0.996902 341.332 1.56758 342.637 2.70895C343.941 3.85031 344.593 5.3993 344.512 7.35592V7.43745H341.984C341.984 6.05151 341.577 4.99167 340.761 4.17641C339.946 3.36115 338.805 2.95352 337.337 2.95352C335.87 2.95352 334.729 3.52421 333.832 4.74709C332.935 5.88846 332.527 7.35592 332.527 9.14949V12.6551C332.527 14.4487 332.935 15.9161 333.832 17.0575C334.729 18.1989 335.87 18.8511 337.337 18.8511C338.805 18.8511 339.946 18.4434 340.761 17.7097C341.577 16.8945 341.984 15.8346 341.984 14.4487H344.512V14.5302Z" fill="#B3B3B3"/>
<path d="M353.887 6.05149C355.762 6.05149 357.148 6.7037 358.208 8.08964C359.268 9.47558 359.838 11.1876 359.838 13.3888V13.7149C359.838 15.8346 359.268 17.6282 358.126 19.0141C356.985 20.4 355.436 21.0523 353.398 21.0523C351.36 21.0523 349.811 20.4 348.669 19.0141C347.528 17.6282 346.957 15.9161 346.957 13.7149V13.3888C346.957 13.3073 346.957 13.2258 346.957 13.2258C346.957 13.1442 346.957 13.1442 346.957 13.0627V9.96473C346.957 7.19285 347.528 5.23623 348.588 3.93182C349.648 2.6274 351.278 1.97519 353.398 1.81214C354.621 1.73062 355.599 1.56756 356.251 1.32299C356.903 1.07841 357.23 0.670779 357.23 0.100098H359.268V0.181624C359.349 1.56756 358.86 2.54587 357.882 3.11656C356.903 3.68724 355.517 4.01334 353.642 4.01334C352.256 4.01334 351.197 4.42097 350.381 5.1547C349.566 5.88844 349.158 6.94827 349.158 8.33421V8.41574C349.648 7.76353 350.381 7.19285 351.197 6.78522C352.012 6.37759 352.99 6.05149 353.887 6.05149ZM353.398 8.08964C352.175 8.08964 351.197 8.57879 350.544 9.5571C349.892 10.5354 349.566 11.8398 349.566 13.3073V13.6334C349.566 15.1824 349.892 16.4053 350.544 17.3836C351.197 18.3619 352.175 18.8511 353.398 18.8511C354.621 18.8511 355.599 18.3619 356.251 17.3836C356.903 16.4053 357.23 15.1009 357.23 13.6334V13.3073C357.23 11.7583 356.903 10.5354 356.251 9.5571C355.599 8.57879 354.621 8.08964 353.398 8.08964Z" fill="#B3B3B3"/>
<path d="M394 20.7264V1.32324H400.359C402.397 1.32324 403.946 1.73087 405.088 2.62766C406.229 3.52444 406.8 4.82886 406.8 6.5409C406.8 7.35616 406.555 8.08989 406.066 8.82363C405.577 9.55736 404.843 9.96499 404.028 10.3726C405.332 10.5357 406.31 11.1064 407.044 12.0031C407.778 12.8999 408.186 14.0413 408.186 15.2642C408.186 17.0577 407.615 18.3622 406.473 19.3405C405.332 20.3188 403.783 20.7264 401.745 20.7264H394ZM396.69 9.55736H400.93C401.908 9.55736 402.723 9.31278 403.294 8.7421C403.946 8.17142 404.191 7.43769 404.191 6.45937C404.191 5.39954 403.865 4.6658 403.212 4.09512C402.56 3.60597 401.582 3.27986 400.359 3.27986H396.69V9.55736ZM396.69 11.5955V18.6067H401.745C402.968 18.6067 403.865 18.2806 404.517 17.71C405.169 17.1393 405.495 16.2425 405.495 15.1826C405.495 14.1228 405.169 13.226 404.517 12.5738C403.865 11.9216 402.968 11.5955 401.745 11.514H401.582H396.69V11.5955Z" fill="#B3B3B3"/>
<path d="M416.745 18.9325C417.561 18.9325 418.294 18.688 418.865 18.1173C419.436 17.5466 419.762 16.8944 419.762 16.1607H422.126V16.2422C422.126 17.4651 421.637 18.6064 420.496 19.5847C419.354 20.5631 418.131 21.0522 416.664 21.0522C414.626 21.0522 413.077 20.4 411.935 19.0141C410.794 17.6281 410.305 15.9161 410.305 13.8779V13.3072C410.305 11.2691 410.876 9.55705 411.935 8.17111C413.077 6.78517 414.626 6.13297 416.582 6.13297C418.213 6.13297 419.517 6.62212 420.496 7.60043C421.474 8.57874 422.045 9.80163 421.963 11.2691V11.3506H419.599C419.599 10.4538 419.273 9.72011 418.702 9.0679C418.131 8.41569 417.398 8.17111 416.501 8.17111C415.196 8.17111 414.3 8.66027 413.647 9.63858C413.077 10.6169 412.751 11.8398 412.751 13.3072V13.8779C412.751 15.3454 413.077 16.5683 413.647 17.5466C414.544 18.4434 415.441 18.9325 416.745 18.9325Z" fill="#B3B3B3"/>
<path d="M22.9564 20.7264H20.3476V3.36139H10.8906V20.7264H8.2002V1.32324H22.8749V20.7264H22.9564Z" fill="#B3B3B3"/>
<path d="M38.7725 20.7264H36.1636V14.6119H29.7231V20.7264H27.1143V6.29626H29.7231V12.5738H36.1636V6.29626H38.7725V20.7264Z" fill="#B3B3B3"/>
<path d="M73 20.7264V1.32324H79.359C81.3972 1.32324 82.9462 1.73087 84.0875 2.62766C85.2289 3.52444 85.7996 4.82886 85.7996 6.5409C85.7996 7.35616 85.555 8.08989 85.0658 8.82363C84.5767 9.55736 83.8429 9.96499 83.0277 10.2911C84.3321 10.4541 85.3104 11.0248 86.0441 11.9216C86.7779 12.8184 87.1855 13.9598 87.1855 15.1826C87.1855 16.9762 86.6148 18.2806 85.4735 19.2589C84.3321 20.2373 82.7831 20.6449 80.745 20.6449H73V20.7264ZM75.6904 9.55736H79.9297C80.908 9.55736 81.7233 9.31278 82.294 8.7421C82.9462 8.17142 83.1907 7.43769 83.1907 6.45937C83.1907 5.39954 82.8646 4.6658 82.2124 4.09512C81.5602 3.60597 80.5819 3.27986 79.359 3.27986H75.6904V9.55736ZM75.6904 11.5955V18.6067H80.745C81.9678 18.6067 82.8646 18.2806 83.5168 17.71C84.1691 17.1393 84.4952 16.2425 84.4952 15.1826C84.4952 14.1228 84.1691 13.226 83.5168 12.5738C82.8646 11.9216 81.9678 11.5955 80.745 11.514H80.5819H75.6904V11.5955Z" fill="#B3B3B3"/>
<path d="M101.126 8.33441H96.3976V20.7264H93.7888V8.33441H89.0603V6.29626H101.126V8.33441Z" fill="#B3B3B3"/>
<path d="M150.512 14.5304C150.593 16.4055 149.941 17.9545 148.637 19.1773C147.332 20.4002 145.62 21.0524 143.419 21.0524C141.218 21.0524 139.424 20.2372 138.038 18.6882C136.652 17.1392 136 15.1826 136 12.7368V9.31271C136 6.94846 136.652 4.91031 138.038 3.36132C139.424 1.81233 141.218 0.99707 143.419 0.99707C145.62 0.99707 147.332 1.56775 148.637 2.70911C149.941 3.85048 150.593 5.39947 150.512 7.35609V7.43762H147.984C147.984 6.05168 147.577 4.99184 146.761 4.17658C145.946 3.36132 144.805 2.95369 143.337 2.95369C141.87 2.95369 140.729 3.52437 139.832 4.74726C138.935 5.88862 138.527 7.35609 138.527 9.14966V12.6553C138.527 14.4488 138.935 15.9163 139.832 17.0577C140.729 18.199 141.87 18.8512 143.337 18.8512C144.805 18.8512 145.946 18.4436 146.761 17.7099C147.577 16.8946 147.984 15.8348 147.984 14.4488H150.512V14.5304Z" fill="#B3B3B3"/>
<path d="M165.92 14.0413C165.92 16.161 165.431 17.7915 164.453 19.0959C163.474 20.4003 162.088 20.971 160.295 20.971C159.398 20.971 158.664 20.8079 157.93 20.5634C157.278 20.2373 156.708 19.8296 156.218 19.2589V26.2702H153.61V6.29632H155.648L156.055 8.17142C156.545 7.43768 157.115 6.94853 157.849 6.62242C158.583 6.29632 159.398 6.05174 160.295 6.05174C162.088 6.05174 163.474 6.78548 164.453 8.17142C165.431 9.55736 165.92 11.4325 165.92 13.7967V14.0413ZM163.311 13.7967C163.311 12.1662 162.985 10.7802 162.333 9.80193C161.681 8.82362 160.702 8.25294 159.479 8.25294C158.746 8.25294 158.094 8.41599 157.523 8.7421C156.952 9.0682 156.545 9.55736 156.218 10.128V17.1393C156.545 17.7099 156.952 18.1991 157.523 18.5252C158.094 18.8513 158.746 19.0144 159.479 19.0144C160.702 19.0144 161.681 18.5252 162.333 17.6284C162.985 16.7316 163.311 15.5087 163.311 14.1228V13.7967Z" fill="#B3B3B3"/>
<path d="M215.43 1.32324V20.7264H212.821V12.6553C212.006 12.8999 211.191 13.063 210.375 13.226C209.56 13.3076 208.663 13.3891 207.522 13.3891C205.402 13.3891 203.772 12.8999 202.631 12.0031C201.489 11.1064 201 9.55736 201 7.43769V1.32324H203.609V7.43769C203.609 8.90515 203.935 9.88346 204.506 10.4541C205.158 11.0248 206.136 11.2694 207.441 11.2694C208.337 11.2694 209.234 11.1879 210.131 11.1064C210.946 10.9433 211.843 10.7802 212.74 10.5357V1.32324H215.43Z" fill="#B3B3B3"/>
<path d="M230.675 8.33441H225.947V20.7264H223.338V8.33441H218.61V6.29626H230.675V8.33441Z" fill="#B3B3B3"/>
<path d="M279.675 20.7264H277.066V3.36139H267.609V20.7264H265V1.32324H279.675V20.7264Z" fill="#B3B3B3"/>
<path d="M294.92 8.33453H290.192V20.7265H287.583V8.33453H282.854V6.29639H294.92V8.33453Z" fill="#B3B3B3"/>
<path d="M344.512 14.5302C344.593 16.4053 343.941 17.9543 342.637 19.1772C341.332 20.4001 339.62 21.0523 337.419 21.0523C335.218 21.0523 333.424 20.237 332.038 18.688C330.652 17.139 330 15.1824 330 12.7366V9.31254C330 6.94829 330.652 4.91015 332.038 3.36115C333.424 1.81216 335.218 0.996902 337.419 0.996902C339.62 0.996902 341.332 1.56758 342.637 2.70895C343.941 3.85031 344.593 5.3993 344.512 7.35592V7.43745H341.984C341.984 6.05151 341.577 4.99167 340.761 4.17641C339.946 3.36115 338.805 2.95352 337.337 2.95352C335.87 2.95352 334.729 3.52421 333.832 4.74709C332.935 5.88846 332.527 7.35592 332.527 9.14949V12.6551C332.527 14.4487 332.935 15.9161 333.832 17.0575C334.729 18.1989 335.87 18.8511 337.337 18.8511C338.805 18.8511 339.946 18.4434 340.761 17.7097C341.577 16.8945 341.984 15.8346 341.984 14.4487H344.512V14.5302Z" fill="#B3B3B3"/>
<path d="M353.887 6.05149C355.762 6.05149 357.148 6.7037 358.208 8.08964C359.268 9.47558 359.838 11.1876 359.838 13.3888V13.7149C359.838 15.8346 359.268 17.6282 358.126 19.0141C356.985 20.4 355.436 21.0523 353.398 21.0523C351.36 21.0523 349.811 20.4 348.669 19.0141C347.528 17.6282 346.957 15.9161 346.957 13.7149V13.3888C346.957 13.3073 346.957 13.2258 346.957 13.2258C346.957 13.1442 346.957 13.1442 346.957 13.0627V9.96473C346.957 7.19285 347.528 5.23623 348.588 3.93182C349.648 2.6274 351.278 1.97519 353.398 1.81214C354.621 1.73062 355.599 1.56756 356.251 1.32299C356.903 1.07841 357.23 0.670779 357.23 0.100098H359.268V0.181624C359.349 1.56756 358.86 2.54587 357.882 3.11656C356.903 3.68724 355.517 4.01334 353.642 4.01334C352.256 4.01334 351.197 4.42097 350.381 5.1547C349.566 5.88844 349.158 6.94827 349.158 8.33421V8.41574C349.648 7.76353 350.381 7.19285 351.197 6.78522C352.012 6.37759 352.99 6.05149 353.887 6.05149ZM353.398 8.08964C352.175 8.08964 351.197 8.57879 350.544 9.5571C349.892 10.5354 349.566 11.8398 349.566 13.3073V13.6334C349.566 15.1824 349.892 16.4053 350.544 17.3836C351.197 18.3619 352.175 18.8511 353.398 18.8511C354.621 18.8511 355.599 18.3619 356.251 17.3836C356.903 16.4053 357.23 15.1009 357.23 13.6334V13.3073C357.23 11.7583 356.903 10.5354 356.251 9.5571C355.599 8.57879 354.621 8.08964 353.398 8.08964Z" fill="#B3B3B3"/>
<path d="M394 20.7264V1.32324H400.359C402.397 1.32324 403.946 1.73087 405.088 2.62766C406.229 3.52444 406.8 4.82886 406.8 6.5409C406.8 7.35616 406.555 8.08989 406.066 8.82363C405.577 9.55736 404.843 9.96499 404.028 10.3726C405.332 10.5357 406.31 11.1064 407.044 12.0031C407.778 12.8999 408.186 14.0413 408.186 15.2642C408.186 17.0577 407.615 18.3622 406.473 19.3405C405.332 20.3188 403.783 20.7264 401.745 20.7264H394ZM396.69 9.55736H400.93C401.908 9.55736 402.723 9.31278 403.294 8.7421C403.946 8.17142 404.191 7.43769 404.191 6.45937C404.191 5.39954 403.865 4.6658 403.212 4.09512C402.56 3.60597 401.582 3.27986 400.359 3.27986H396.69V9.55736ZM396.69 11.5955V18.6067H401.745C402.968 18.6067 403.865 18.2806 404.517 17.71C405.169 17.1393 405.495 16.2425 405.495 15.1826C405.495 14.1228 405.169 13.226 404.517 12.5738C403.865 11.9216 402.968 11.5955 401.745 11.514H401.582H396.69V11.5955Z" fill="#B3B3B3"/>
<path d="M416.745 18.9325C417.561 18.9325 418.294 18.688 418.865 18.1173C419.436 17.5466 419.762 16.8944 419.762 16.1607H422.126V16.2422C422.126 17.4651 421.637 18.6064 420.496 19.5847C419.354 20.5631 418.131 21.0522 416.664 21.0522C414.626 21.0522 413.077 20.4 411.935 19.0141C410.794 17.6281 410.305 15.9161 410.305 13.8779V13.3072C410.305 11.2691 410.876 9.55705 411.935 8.17111C413.077 6.78517 414.626 6.13297 416.582 6.13297C418.213 6.13297 419.517 6.62212 420.496 7.60043C421.474 8.57874 422.045 9.80163 421.963 11.2691V11.3506H419.599C419.599 10.4538 419.273 9.72011 418.702 9.0679C418.131 8.41569 417.398 8.17111 416.501 8.17111C415.196 8.17111 414.3 8.66027 413.647 9.63858C413.077 10.6169 412.751 11.8398 412.751 13.3072V13.8779C412.751 15.3454 413.077 16.5683 413.647 17.5466C414.544 18.4434 415.441 18.9325 416.745 18.9325Z" fill="#B3B3B3"/>
<path d="M343.795 78V53.58L345.386 55.319H337.949V52.1H347.458V78H343.795Z" fill="#292C33" fill-opacity="0.8"/>
<path d="M344.471 128.796C342.375 128.796 340.562 128.488 339.032 127.871C337.503 127.254 336.319 126.379 335.48 125.244C334.642 124.085 334.222 122.728 334.222 121.174C334.222 119.645 334.617 118.35 335.406 117.289C336.22 116.204 337.392 115.39 338.921 114.847C340.451 114.28 342.301 113.996 344.471 113.996C346.642 113.996 348.492 114.28 350.021 114.847C351.575 115.39 352.759 116.204 353.573 117.289C354.387 118.374 354.794 119.669 354.794 121.174C354.794 122.728 354.375 124.085 353.536 125.244C352.698 126.379 351.501 127.254 349.947 127.871C348.393 128.488 346.568 128.796 344.471 128.796ZM344.471 125.799C346.543 125.799 348.159 125.38 349.318 124.541C350.502 123.678 351.094 122.518 351.094 121.063C351.094 119.632 350.502 118.51 349.318 117.696C348.159 116.857 346.543 116.438 344.471 116.438C342.424 116.438 340.821 116.857 339.661 117.696C338.502 118.51 337.922 119.632 337.922 121.063C337.922 122.518 338.502 123.678 339.661 124.541C340.821 125.38 342.424 125.799 344.471 125.799ZM344.471 115.994C342.498 115.994 340.821 115.735 339.439 115.217C338.058 114.674 336.997 113.91 336.257 112.923C335.517 111.912 335.147 110.715 335.147 109.334C335.147 107.879 335.53 106.633 336.294 105.597C337.084 104.536 338.181 103.722 339.587 103.155C340.993 102.588 342.621 102.304 344.471 102.304C346.346 102.304 347.986 102.588 349.392 103.155C350.798 103.722 351.896 104.536 352.685 105.597C353.475 106.633 353.869 107.879 353.869 109.334C353.869 110.715 353.499 111.912 352.759 112.923C352.019 113.91 350.946 114.674 349.54 115.217C348.134 115.735 346.445 115.994 344.471 115.994ZM344.471 113.626C346.272 113.626 347.678 113.256 348.689 112.516C349.725 111.776 350.243 110.765 350.243 109.482C350.243 108.175 349.713 107.151 348.652 106.411C347.592 105.671 346.198 105.301 344.471 105.301C342.745 105.301 341.363 105.671 340.327 106.411C339.316 107.151 338.81 108.175 338.81 109.482C338.81 110.765 339.304 111.776 340.29 112.516C341.302 113.256 342.695 113.626 344.471 113.626Z" fill="#292C33" fill-opacity="0.8"/>
<path d="M333.172 186.5V162.08L334.763 163.819H327.326V160.6H336.835V186.5H333.172ZM350.862 186.796C349.037 186.796 347.261 186.512 345.534 185.945C343.832 185.378 342.438 184.613 341.353 183.651L343.055 180.728C343.918 181.542 345.041 182.208 346.422 182.726C347.803 183.244 349.271 183.503 350.825 183.503C352.798 183.503 354.315 183.084 355.376 182.245C356.437 181.406 356.967 180.284 356.967 178.878C356.967 177.916 356.733 177.077 356.264 176.362C355.795 175.647 354.981 175.104 353.822 174.734C352.687 174.339 351.121 174.142 349.123 174.142H343.24L344.609 160.6H359.224V163.819H345.978L347.902 162.006L346.829 172.699L344.905 170.923H349.9C352.49 170.923 354.574 171.256 356.153 171.922C357.732 172.588 358.879 173.513 359.594 174.697C360.309 175.856 360.667 177.201 360.667 178.73C360.667 180.21 360.309 181.567 359.594 182.8C358.879 184.009 357.793 184.983 356.338 185.723C354.907 186.438 353.082 186.796 350.862 186.796Z" fill="#292C33" fill-opacity="0.8"/>
<path d="M324.623 244.5V241.984L335.168 231.809C336.105 230.921 336.796 230.144 337.24 229.478C337.709 228.787 338.017 228.158 338.165 227.591C338.338 226.999 338.424 226.432 338.424 225.889C338.424 224.557 337.955 223.509 337.018 222.744C336.081 221.979 334.712 221.597 332.911 221.597C331.53 221.597 330.284 221.831 329.174 222.3C328.064 222.744 327.102 223.447 326.288 224.409L323.772 222.226C324.759 220.968 326.078 220.006 327.731 219.34C329.408 218.649 331.246 218.304 333.244 218.304C335.045 218.304 336.611 218.6 337.943 219.192C339.275 219.759 340.299 220.586 341.014 221.671C341.754 222.756 342.124 224.039 342.124 225.519C342.124 226.358 342.013 227.184 341.791 227.998C341.569 228.812 341.15 229.675 340.533 230.588C339.916 231.501 339.028 232.524 337.869 233.659L328.471 242.724L327.583 241.281H343.234V244.5H324.623ZM345.869 244.5V241.984L356.414 231.809C357.351 230.921 358.042 230.144 358.486 229.478C358.955 228.787 359.263 228.158 359.411 227.591C359.584 226.999 359.67 226.432 359.67 225.889C359.67 224.557 359.201 223.509 358.264 222.744C357.327 221.979 355.958 221.597 354.157 221.597C352.776 221.597 351.53 221.831 350.42 222.3C349.31 222.744 348.348 223.447 347.534 224.409L345.018 222.226C346.005 220.968 347.324 220.006 348.977 219.34C350.654 218.649 352.492 218.304 354.49 218.304C356.291 218.304 357.857 218.6 359.189 219.192C360.521 219.759 361.545 220.586 362.26 221.671C363 222.756 363.37 224.039 363.37 225.519C363.37 226.358 363.259 227.184 363.037 227.998C362.815 228.812 362.396 229.675 361.779 230.588C361.162 231.501 360.274 232.524 359.115 233.659L349.717 242.724L348.829 241.281H364.48V244.5H345.869Z" fill="#292C33" fill-opacity="0.8"/>
<path d="M323.828 302.5V299.984L334.373 289.809C335.31 288.921 336.001 288.144 336.445 287.478C336.914 286.787 337.222 286.158 337.37 285.591C337.543 284.999 337.629 284.432 337.629 283.889C337.629 282.557 337.16 281.509 336.223 280.744C335.286 279.979 333.917 279.597 332.116 279.597C330.735 279.597 329.489 279.831 328.379 280.3C327.269 280.744 326.307 281.447 325.493 282.409L322.977 280.226C323.964 278.968 325.283 278.006 326.936 277.34C328.613 276.649 330.451 276.304 332.449 276.304C334.25 276.304 335.816 276.6 337.148 277.192C338.48 277.759 339.504 278.586 340.219 279.671C340.959 280.756 341.329 282.039 341.329 283.519C341.329 284.358 341.218 285.184 340.996 285.998C340.774 286.812 340.355 287.675 339.738 288.588C339.121 289.501 338.233 290.524 337.074 291.659L327.676 300.724L326.788 299.281H342.439V302.5H323.828ZM353.88 276.304C356.223 276.304 358.197 276.81 359.8 277.821C361.428 278.832 362.661 280.3 363.5 282.224C364.339 284.123 364.758 286.454 364.758 289.217C364.758 292.152 364.24 294.631 363.204 296.654C362.168 298.677 360.737 300.206 358.912 301.242C357.087 302.278 354.953 302.796 352.511 302.796C351.302 302.796 350.131 302.673 348.996 302.426C347.886 302.179 346.912 301.797 346.073 301.279L347.479 298.393C348.17 298.837 348.934 299.158 349.773 299.355C350.636 299.528 351.537 299.614 352.474 299.614C355.089 299.614 357.173 298.8 358.727 297.172C360.281 295.519 361.058 293.077 361.058 289.846C361.058 289.328 361.033 288.711 360.984 287.996C360.935 287.281 360.824 286.578 360.651 285.887L361.872 287.145C361.527 288.28 360.947 289.242 360.133 290.031C359.344 290.796 358.382 291.375 357.247 291.77C356.137 292.14 354.916 292.325 353.584 292.325C351.882 292.325 350.365 292.004 349.033 291.363C347.701 290.722 346.653 289.821 345.888 288.662C345.123 287.478 344.741 286.084 344.741 284.481C344.741 282.804 345.136 281.361 345.925 280.152C346.739 278.919 347.837 277.969 349.218 277.303C350.624 276.637 352.178 276.304 353.88 276.304ZM354.028 279.301C352.918 279.301 351.931 279.511 351.068 279.93C350.205 280.349 349.526 280.929 349.033 281.669C348.564 282.409 348.33 283.297 348.33 284.333C348.33 285.862 348.86 287.083 349.921 287.996C350.982 288.884 352.412 289.328 354.213 289.328C355.397 289.328 356.433 289.106 357.321 288.662C358.234 288.218 358.937 287.614 359.43 286.849C359.948 286.084 360.207 285.233 360.207 284.296C360.207 283.383 359.973 282.557 359.504 281.817C359.035 281.077 358.345 280.473 357.432 280.004C356.519 279.535 355.385 279.301 354.028 279.301Z" fill="#292C33" fill-opacity="0.8"/>
<path d="M399.246 78V75.484L409.791 65.309C410.728 64.421 411.419 63.644 411.863 62.978C412.332 62.2873 412.64 61.6583 412.788 61.091C412.961 60.499 413.047 59.9317 413.047 59.389C413.047 58.057 412.578 57.0087 411.641 56.244C410.704 55.4793 409.335 55.097 407.534 55.097C406.153 55.097 404.907 55.3313 403.797 55.8C402.687 56.244 401.725 56.947 400.911 57.909L398.395 55.726C399.382 54.468 400.701 53.506 402.354 52.84C404.031 52.1493 405.869 51.804 407.867 51.804C409.668 51.804 411.234 52.1 412.566 52.692C413.898 53.2593 414.922 54.0857 415.637 55.171C416.377 56.2563 416.747 57.539 416.747 59.019C416.747 59.8577 416.636 60.684 416.414 61.498C416.192 62.312 415.773 63.1753 415.156 64.088C414.539 65.0007 413.651 66.0243 412.492 67.159L403.094 76.224L402.206 74.781H417.857V78H399.246Z" fill="#292C33" fill-opacity="0.8"/>
<path d="M407.257 102.304C409.6 102.304 411.574 102.81 413.177 103.821C414.805 104.832 416.038 106.3 416.877 108.224C417.716 110.123 418.135 112.454 418.135 115.217C418.135 118.152 417.617 120.631 416.581 122.654C415.545 124.677 414.114 126.206 412.289 127.242C410.464 128.278 408.33 128.796 405.888 128.796C404.679 128.796 403.508 128.673 402.373 128.426C401.263 128.179 400.289 127.797 399.45 127.279L400.856 124.393C401.547 124.837 402.311 125.158 403.15 125.355C404.013 125.528 404.914 125.614 405.851 125.614C408.466 125.614 410.55 124.8 412.104 123.172C413.658 121.519 414.435 119.077 414.435 115.846C414.435 115.328 414.41 114.711 414.361 113.996C414.312 113.281 414.201 112.578 414.028 111.887L415.249 113.145C414.904 114.28 414.324 115.242 413.51 116.031C412.721 116.796 411.759 117.375 410.624 117.77C409.514 118.14 408.293 118.325 406.961 118.325C405.259 118.325 403.742 118.004 402.41 117.363C401.078 116.722 400.03 115.821 399.265 114.662C398.5 113.478 398.118 112.084 398.118 110.481C398.118 108.804 398.513 107.361 399.302 106.152C400.116 104.919 401.214 103.969 402.595 103.303C404.001 102.637 405.555 102.304 407.257 102.304ZM407.405 105.301C406.295 105.301 405.308 105.511 404.445 105.93C403.582 106.349 402.903 106.929 402.41 107.669C401.941 108.409 401.707 109.297 401.707 110.333C401.707 111.862 402.237 113.083 403.298 113.996C404.359 114.884 405.789 115.328 407.59 115.328C408.774 115.328 409.81 115.106 410.698 114.662C411.611 114.218 412.314 113.614 412.807 112.849C413.325 112.084 413.584 111.233 413.584 110.296C413.584 109.383 413.35 108.557 412.881 107.817C412.412 107.077 411.722 106.473 410.809 106.004C409.896 105.535 408.762 105.301 407.405 105.301Z" fill="#292C33" fill-opacity="0.8"/>
<path d="M396.377 186.5V162.08L397.968 163.819H390.531V160.6H400.04V186.5H396.377ZM416.583 186.796C414.289 186.796 412.328 186.29 410.7 185.279C409.072 184.268 407.827 182.812 406.963 180.913C406.125 178.989 405.705 176.646 405.705 173.883C405.705 170.948 406.223 168.469 407.259 166.446C408.295 164.423 409.738 162.894 411.588 161.858C413.438 160.822 415.56 160.304 417.952 160.304C419.186 160.304 420.357 160.427 421.467 160.674C422.602 160.921 423.576 161.303 424.39 161.821L422.984 164.707C422.318 164.238 421.554 163.918 420.69 163.745C419.852 163.572 418.964 163.486 418.026 163.486C415.387 163.486 413.29 164.312 411.736 165.965C410.182 167.593 409.405 170.023 409.405 173.254C409.405 173.772 409.43 174.389 409.479 175.104C409.529 175.819 409.652 176.522 409.849 177.213L408.591 175.955C408.961 174.82 409.541 173.871 410.33 173.106C411.144 172.317 412.106 171.737 413.216 171.367C414.351 170.972 415.572 170.775 416.879 170.775C418.606 170.775 420.135 171.096 421.467 171.737C422.799 172.378 423.848 173.291 424.612 174.475C425.377 175.634 425.759 177.016 425.759 178.619C425.759 180.272 425.352 181.715 424.538 182.948C423.724 184.181 422.627 185.131 421.245 185.797C419.864 186.463 418.31 186.796 416.583 186.796ZM416.435 183.799C417.57 183.799 418.557 183.589 419.395 183.17C420.259 182.751 420.937 182.171 421.43 181.431C421.924 180.666 422.17 179.778 422.17 178.767C422.17 177.238 421.64 176.029 420.579 175.141C419.519 174.228 418.076 173.772 416.25 173.772C415.066 173.772 414.03 173.994 413.142 174.438C412.254 174.882 411.551 175.486 411.033 176.251C410.54 176.991 410.293 177.842 410.293 178.804C410.293 179.692 410.528 180.518 410.996 181.283C411.465 182.023 412.156 182.627 413.068 183.096C413.981 183.565 415.103 183.799 416.435 183.799Z" fill="#292C33" fill-opacity="0.8"/>
<path d="M388.659 244.5V241.984L399.204 231.809C400.141 230.921 400.832 230.144 401.276 229.478C401.745 228.787 402.053 228.158 402.201 227.591C402.374 226.999 402.46 226.432 402.46 225.889C402.46 224.557 401.991 223.509 401.054 222.744C400.117 221.979 398.748 221.597 396.947 221.597C395.566 221.597 394.32 221.831 393.21 222.3C392.1 222.744 391.138 223.447 390.324 224.409L387.808 222.226C388.795 220.968 390.114 220.006 391.767 219.34C393.444 218.649 395.282 218.304 397.28 218.304C399.081 218.304 400.647 218.6 401.979 219.192C403.311 219.759 404.335 220.586 405.05 221.671C405.79 222.756 406.16 224.039 406.16 225.519C406.16 226.358 406.049 227.184 405.827 227.998C405.605 228.812 405.186 229.675 404.569 230.588C403.952 231.501 403.064 232.524 401.905 233.659L392.507 242.724L391.619 241.281H407.27V244.5H388.659ZM418.23 244.796C416.405 244.796 414.629 244.512 412.902 243.945C411.2 243.378 409.806 242.613 408.721 241.651L410.423 238.728C411.286 239.542 412.409 240.208 413.79 240.726C415.171 241.244 416.651 241.503 418.23 241.503C420.154 241.503 421.646 241.096 422.707 240.282C423.792 239.443 424.335 238.321 424.335 236.915C424.335 235.558 423.817 234.473 422.781 233.659C421.77 232.82 420.154 232.401 417.934 232.401H415.862V229.811L423.558 220.339L424.076 221.819H409.905V218.6H426.999V221.116L419.34 230.551L417.416 229.404H418.637C421.77 229.404 424.113 230.107 425.667 231.513C427.246 232.919 428.035 234.707 428.035 236.878C428.035 238.333 427.677 239.665 426.962 240.874C426.247 242.083 425.161 243.045 423.706 243.76C422.275 244.451 420.45 244.796 418.23 244.796Z" fill="#292C33" fill-opacity="0.8"/>
<path d="M395.268 302.796C393.442 302.796 391.666 302.512 389.94 301.945C388.238 301.378 386.844 300.613 385.759 299.651L387.461 296.728C388.324 297.542 389.446 298.208 390.828 298.726C392.209 299.244 393.689 299.503 395.268 299.503C397.192 299.503 398.684 299.096 399.745 298.282C400.83 297.443 401.373 296.321 401.373 294.915C401.373 293.558 400.855 292.473 399.819 291.659C398.807 290.82 397.192 290.401 394.972 290.401H392.9V287.811L400.596 278.339L401.114 279.819H386.943V276.6H404.037V279.116L396.378 288.551L394.454 287.404H395.675C398.807 287.404 401.151 288.107 402.705 289.513C404.283 290.919 405.073 292.707 405.073 294.878C405.073 296.333 404.715 297.665 404 298.874C403.284 300.083 402.199 301.045 400.744 301.76C399.313 302.451 397.488 302.796 395.268 302.796ZM419.106 302.796C417.083 302.796 415.27 302.278 413.667 301.242C412.088 300.206 410.83 298.701 409.893 296.728C408.98 294.755 408.524 292.362 408.524 289.55C408.524 286.738 408.98 284.345 409.893 282.372C410.83 280.399 412.088 278.894 413.667 277.858C415.27 276.822 417.083 276.304 419.106 276.304C421.104 276.304 422.904 276.822 424.508 277.858C426.111 278.894 427.369 280.399 428.282 282.372C429.194 284.345 429.651 286.738 429.651 289.55C429.651 292.362 429.194 294.755 428.282 296.728C427.369 298.701 426.111 300.206 424.508 301.242C422.904 302.278 421.104 302.796 419.106 302.796ZM419.106 299.503C420.462 299.503 421.646 299.133 422.658 298.393C423.694 297.653 424.495 296.543 425.063 295.063C425.655 293.583 425.951 291.745 425.951 289.55C425.951 287.355 425.655 285.517 425.063 284.037C424.495 282.557 423.694 281.447 422.658 280.707C421.646 279.967 420.462 279.597 419.106 279.597C417.749 279.597 416.553 279.967 415.517 280.707C414.481 281.447 413.667 282.557 413.075 284.037C412.507 285.517 412.224 287.355 412.224 289.55C412.224 291.745 412.507 293.583 413.075 295.063C413.667 296.543 414.481 297.653 415.517 298.393C416.553 299.133 417.749 299.503 419.106 299.503Z" fill="#292C33" fill-opacity="0.8"/>
<path d="M23.5673 128.796C21.742 128.796 19.966 128.512 18.2393 127.945C16.5373 127.378 15.1436 126.613 14.0583 125.651L15.7603 122.728C16.6236 123.542 17.746 124.208 19.1273 124.726C20.5086 125.244 21.9886 125.503 23.5673 125.503C25.4913 125.503 26.9836 125.096 28.0443 124.282C29.1296 123.443 29.6723 122.321 29.6723 120.915C29.6723 119.558 29.1543 118.473 28.1183 117.659C27.107 116.82 25.4913 116.401 23.2713 116.401H21.1993V113.811L28.8953 104.339L29.4133 105.819H15.2423V102.6H32.3363V105.116L24.6773 114.551L22.7533 113.404H23.9743C27.107 113.404 29.4503 114.107 31.0043 115.513C32.583 116.919 33.3723 118.707 33.3723 120.878C33.3723 122.333 33.0146 123.665 32.2993 124.874C31.584 126.083 30.4986 127.045 29.0433 127.76C27.6126 128.451 25.7873 128.796 23.5673 128.796Z" fill="#292C33" fill-opacity="0.8"/>
<path d="M11.4157 186.5V162.08L13.0067 163.819H5.56968V160.6H15.0787V186.5H11.4157ZM31.326 186.796C29.3034 186.796 27.4904 186.278 25.887 185.242C24.3084 184.206 23.0504 182.701 22.113 180.728C21.2004 178.755 20.744 176.362 20.744 173.55C20.744 170.738 21.2004 168.345 22.113 166.372C23.0504 164.399 24.3084 162.894 25.887 161.858C27.4904 160.822 29.3034 160.304 31.326 160.304C33.324 160.304 35.1247 160.822 36.728 161.858C38.3314 162.894 39.5894 164.399 40.502 166.372C41.4147 168.345 41.871 170.738 41.871 173.55C41.871 176.362 41.4147 178.755 40.502 180.728C39.5894 182.701 38.3314 184.206 36.728 185.242C35.1247 186.278 33.324 186.796 31.326 186.796ZM31.326 183.503C32.6827 183.503 33.8667 183.133 34.878 182.393C35.914 181.653 36.7157 180.543 37.283 179.063C37.875 177.583 38.171 175.745 38.171 173.55C38.171 171.355 37.875 169.517 37.283 168.037C36.7157 166.557 35.914 165.447 34.878 164.707C33.8667 163.967 32.6827 163.597 31.326 163.597C29.9694 163.597 28.773 163.967 27.737 164.707C26.701 165.447 25.887 166.557 25.295 168.037C24.7277 169.517 24.444 171.355 24.444 173.55C24.444 175.745 24.7277 177.583 25.295 179.063C25.887 180.543 26.701 181.653 27.737 182.393C28.773 183.133 29.9694 183.503 31.326 183.503Z" fill="#292C33" fill-opacity="0.8"/>
<path d="M12.6984 244.5V220.08L14.2894 221.819H6.8524V218.6H16.3614V244.5H12.6984ZM26.5037 244.5L37.4927 220.154L38.4547 221.819H23.0627L24.9127 220.006V226.444H21.3607V218.6H40.8967V221.116L30.4257 244.5H26.5037Z" fill="#292C33" fill-opacity="0.8"/>
<path d="M3.192 302.5V299.984L13.737 289.809C14.6743 288.921 15.365 288.144 15.809 287.478C16.2777 286.787 16.586 286.158 16.734 285.591C16.9067 284.999 16.993 284.432 16.993 283.889C16.993 282.557 16.5243 281.509 15.587 280.744C14.6497 279.979 13.2807 279.597 11.48 279.597C10.0987 279.597 8.853 279.831 7.743 280.3C6.633 280.744 5.671 281.447 4.857 282.409L2.341 280.226C3.32766 278.968 4.64733 278.006 6.3 277.34C7.97733 276.649 9.815 276.304 11.813 276.304C13.6137 276.304 15.18 276.6 16.512 277.192C17.844 277.759 18.8677 278.586 19.583 279.671C20.323 280.756 20.693 282.039 20.693 283.519C20.693 284.358 20.582 285.184 20.36 285.998C20.138 286.812 19.7187 287.675 19.102 288.588C18.4853 289.501 17.5973 290.524 16.438 291.659L7.04 300.724L6.152 299.281H21.803V302.5H3.192ZM23.7524 296.136V293.546L36.9984 276.6H40.9944L27.8594 293.546L25.9724 292.954H46.6554V296.136H23.7524ZM38.1454 302.5V296.136L38.2564 292.954V287.33H41.7344V302.5H38.1454Z" fill="#292C33" fill-opacity="0.8"/>
<path d="M16.7201 360.796C14.8948 360.796 13.1188 360.512 11.3921 359.945C9.69012 359.378 8.29646 358.613 7.21112 357.651L8.91312 354.728C9.77646 355.542 10.8988 356.208 12.2801 356.726C13.6615 357.244 15.1415 357.503 16.7201 357.503C18.6441 357.503 20.1365 357.096 21.1971 356.282C22.2825 355.443 22.8251 354.321 22.8251 352.915C22.8251 351.558 22.3071 350.473 21.2711 349.659C20.2598 348.82 18.6441 348.401 16.4241 348.401H14.3521V345.811L22.0481 336.339L22.5661 337.819H8.39512V334.6H25.4891V337.116L17.8301 346.551L15.9061 345.404H17.1271C20.2598 345.404 22.6031 346.107 24.1571 347.513C25.7358 348.919 26.5251 350.707 26.5251 352.878C26.5251 354.333 26.1675 355.665 25.4521 356.874C24.7368 358.083 23.6515 359.045 22.1961 359.76C20.7655 360.451 18.9401 360.796 16.7201 360.796ZM34.342 360.5V336.08L35.933 337.819H28.496V334.6H38.005V360.5H34.342Z" fill="#292C33" fill-opacity="0.8"/>
<path d="M76.9907 122.136V119.546L90.2367 102.6H94.2327L81.0977 119.546L79.2107 118.954H99.8937V122.136H76.9907ZM91.3837 128.5V122.136L91.4947 118.954V113.33H94.9727V128.5H91.3837Z" fill="#292C33" fill-opacity="0.8"/>
<path d="M80.4079 186.5V162.08L81.9989 163.819H74.5619V160.6H84.0709V186.5H80.4079ZM94.1022 186.5V162.08L95.6932 163.819H88.2562V160.6H97.7652V186.5H94.1022Z" fill="#292C33" fill-opacity="0.8"/>
<path d="M75.3493 244.5V220.08L76.9403 221.819H69.5033V218.6H79.0123V244.5H75.3493ZM94.7786 244.796C92.6819 244.796 90.8689 244.488 89.3396 243.871C87.8103 243.254 86.6263 242.379 85.7876 241.244C84.9489 240.085 84.5296 238.728 84.5296 237.174C84.5296 235.645 84.9243 234.35 85.7136 233.289C86.5276 232.204 87.6993 231.39 89.2286 230.847C90.7579 230.28 92.6079 229.996 94.7786 229.996C96.9493 229.996 98.7993 230.28 100.329 230.847C101.883 231.39 103.067 232.204 103.881 233.289C104.695 234.374 105.102 235.669 105.102 237.174C105.102 238.728 104.682 240.085 103.844 241.244C103.005 242.379 101.809 243.254 100.255 243.871C98.7006 244.488 96.8753 244.796 94.7786 244.796ZM94.7786 241.799C96.8506 241.799 98.4663 241.38 99.6256 240.541C100.81 239.678 101.402 238.518 101.402 237.063C101.402 235.632 100.81 234.51 99.6256 233.696C98.4663 232.857 96.8506 232.438 94.7786 232.438C92.7313 232.438 91.1279 232.857 89.9686 233.696C88.8093 234.51 88.2296 235.632 88.2296 237.063C88.2296 238.518 88.8093 239.678 89.9686 240.541C91.1279 241.38 92.7313 241.799 94.7786 241.799ZM94.7786 231.994C92.8053 231.994 91.1279 231.735 89.7466 231.217C88.3653 230.674 87.3046 229.91 86.5646 228.923C85.8246 227.912 85.4546 226.715 85.4546 225.334C85.4546 223.879 85.8369 222.633 86.6016 221.597C87.3909 220.536 88.4886 219.722 89.8946 219.155C91.3006 218.588 92.9286 218.304 94.7786 218.304C96.6533 218.304 98.2936 218.588 99.6996 219.155C101.106 219.722 102.203 220.536 102.993 221.597C103.782 222.633 104.177 223.879 104.177 225.334C104.177 226.715 103.807 227.912 103.067 228.923C102.327 229.91 101.254 230.674 99.8476 231.217C98.4416 231.735 96.7519 231.994 94.7786 231.994ZM94.7786 229.626C96.5793 229.626 97.9853 229.256 98.9966 228.516C100.033 227.776 100.551 226.765 100.551 225.482C100.551 224.175 100.02 223.151 98.9596 222.411C97.8989 221.671 96.5053 221.301 94.7786 221.301C93.0519 221.301 91.6706 221.671 90.6346 222.411C89.6233 223.151 89.1176 224.175 89.1176 225.482C89.1176 226.765 89.6109 227.776 90.5976 228.516C91.6089 229.256 93.0026 229.626 94.7786 229.626Z" fill="#292C33" fill-opacity="0.8"/>
<path d="M68.0831 302.5V299.984L78.6281 289.809C79.5654 288.921 80.2561 288.144 80.7001 287.478C81.1688 286.787 81.4771 286.158 81.6251 285.591C81.7978 284.999 81.8841 284.432 81.8841 283.889C81.8841 282.557 81.4154 281.509 80.4781 280.744C79.5408 279.979 78.1718 279.597 76.3711 279.597C74.9898 279.597 73.7441 279.831 72.6341 280.3C71.5241 280.744 70.5621 281.447 69.7481 282.409L67.2321 280.226C68.2188 278.968 69.5384 278.006 71.1911 277.34C72.8684 276.649 74.7061 276.304 76.7041 276.304C78.5048 276.304 80.0711 276.6 81.4031 277.192C82.7351 277.759 83.7588 278.586 84.4741 279.671C85.2141 280.756 85.5841 282.039 85.5841 283.519C85.5841 284.358 85.4731 285.184 85.2511 285.998C85.0291 286.812 84.6098 287.675 83.9931 288.588C83.3764 289.501 82.4884 290.524 81.3291 291.659L71.9311 300.724L71.0431 299.281H86.6941V302.5H68.0831ZM98.0982 302.796C96.2729 302.796 94.4969 302.512 92.7702 301.945C91.0682 301.378 89.6745 300.613 88.5892 299.651L90.2912 296.728C91.1545 297.542 92.2769 298.208 93.6582 298.726C95.0395 299.244 96.5072 299.503 98.0612 299.503C100.035 299.503 101.552 299.084 102.612 298.245C103.673 297.406 104.203 296.284 104.203 294.878C104.203 293.916 103.969 293.077 103.5 292.362C103.032 291.647 102.218 291.104 101.058 290.734C99.9235 290.339 98.3572 290.142 96.3592 290.142H90.4762L91.8452 276.6H106.46V279.819H93.2142L95.1382 278.006L94.0652 288.699L92.1412 286.923H97.1362C99.7262 286.923 101.811 287.256 103.389 287.922C104.968 288.588 106.115 289.513 106.83 290.697C107.546 291.856 107.903 293.201 107.903 294.73C107.903 296.21 107.546 297.567 106.83 298.8C106.115 300.009 105.03 300.983 103.574 301.723C102.144 302.438 100.318 302.796 98.0982 302.796Z" fill="#292C33" fill-opacity="0.8"/>
<path d="M151.435 128.796C149.61 128.796 147.834 128.512 146.107 127.945C144.405 127.378 143.012 126.613 141.926 125.651L143.628 122.728C144.492 123.542 145.614 124.208 146.995 124.726C148.377 125.244 149.844 125.503 151.398 125.503C153.372 125.503 154.889 125.084 155.949 124.245C157.01 123.406 157.54 122.284 157.54 120.878C157.54 119.916 157.306 119.077 156.837 118.362C156.369 117.647 155.555 117.104 154.395 116.734C153.261 116.339 151.694 116.142 149.696 116.142H143.813L145.182 102.6H159.797V105.819H146.551L148.475 104.006L147.402 114.699L145.478 112.923H150.473C153.063 112.923 155.148 113.256 156.726 113.922C158.305 114.588 159.452 115.513 160.167 116.697C160.883 117.856 161.24 119.201 161.24 120.73C161.24 122.21 160.883 123.567 160.167 124.8C159.452 126.009 158.367 126.983 156.911 127.723C155.481 128.438 153.655 128.796 151.435 128.796Z" fill="#292C33" fill-opacity="0.8"/>
<path d="M140.592 186.5V162.08L142.183 163.819H134.746V160.6H144.255V186.5H140.592ZM149.514 186.5V183.984L160.059 173.809C160.996 172.921 161.687 172.144 162.131 171.478C162.599 170.787 162.908 170.158 163.056 169.591C163.228 168.999 163.315 168.432 163.315 167.889C163.315 166.557 162.846 165.509 161.909 164.744C160.971 163.979 159.602 163.597 157.802 163.597C156.42 163.597 155.175 163.831 154.065 164.3C152.955 164.744 151.993 165.447 151.179 166.409L148.663 164.226C149.649 162.968 150.969 162.006 152.622 161.34C154.299 160.649 156.137 160.304 158.135 160.304C159.935 160.304 161.502 160.6 162.834 161.192C164.166 161.759 165.189 162.586 165.905 163.671C166.645 164.756 167.015 166.039 167.015 167.519C167.015 168.358 166.904 169.184 166.682 169.998C166.46 170.812 166.04 171.675 165.424 172.588C164.807 173.501 163.919 174.524 162.76 175.659L153.362 184.724L152.474 183.281H168.125V186.5H149.514Z" fill="#292C33" fill-opacity="0.8"/>
<path d="M139.797 244.5V220.08L141.388 221.819H133.951V218.6H143.46V244.5H139.797ZM157.525 218.304C159.868 218.304 161.841 218.81 163.445 219.821C165.073 220.832 166.306 222.3 167.145 224.224C167.983 226.123 168.403 228.454 168.403 231.217C168.403 234.152 167.885 236.631 166.849 238.654C165.813 240.677 164.382 242.206 162.557 243.242C160.731 244.278 158.598 244.796 156.156 244.796C154.947 244.796 153.775 244.673 152.641 244.426C151.531 244.179 150.556 243.797 149.718 243.279L151.124 240.393C151.814 240.837 152.579 241.158 153.418 241.355C154.281 241.528 155.181 241.614 156.119 241.614C158.733 241.614 160.818 240.8 162.372 239.172C163.926 237.519 164.703 235.077 164.703 231.846C164.703 231.328 164.678 230.711 164.629 229.996C164.579 229.281 164.468 228.578 164.296 227.887L165.517 229.145C165.171 230.28 164.592 231.242 163.778 232.031C162.988 232.796 162.026 233.375 160.892 233.77C159.782 234.14 158.561 234.325 157.229 234.325C155.527 234.325 154.01 234.004 152.678 233.363C151.346 232.722 150.297 231.821 149.533 230.662C148.768 229.478 148.386 228.084 148.386 226.481C148.386 224.804 148.78 223.361 149.57 222.152C150.384 220.919 151.481 219.969 152.863 219.303C154.269 218.637 155.823 218.304 157.525 218.304ZM157.673 221.301C156.563 221.301 155.576 221.511 154.713 221.93C153.849 222.349 153.171 222.929 152.678 223.669C152.209 224.409 151.975 225.297 151.975 226.333C151.975 227.862 152.505 229.083 153.566 229.996C154.626 230.884 156.057 231.328 157.858 231.328C159.042 231.328 160.078 231.106 160.966 230.662C161.878 230.218 162.581 229.614 163.075 228.849C163.593 228.084 163.852 227.233 163.852 226.296C163.852 225.383 163.617 224.557 163.149 223.817C162.68 223.077 161.989 222.473 161.077 222.004C160.164 221.535 159.029 221.301 157.673 221.301Z" fill="#292C33" fill-opacity="0.8"/>
<path d="M131.266 302.5V299.984L141.811 289.809C142.749 288.921 143.439 288.144 143.883 287.478C144.352 286.787 144.66 286.158 144.808 285.591C144.981 284.999 145.067 284.432 145.067 283.889C145.067 282.557 144.599 281.509 143.661 280.744C142.724 279.979 141.355 279.597 139.554 279.597C138.173 279.597 136.927 279.831 135.817 280.3C134.707 280.744 133.745 281.447 132.931 282.409L130.415 280.226C131.402 278.968 132.722 278.006 134.374 277.34C136.052 276.649 137.889 276.304 139.887 276.304C141.688 276.304 143.254 276.6 144.586 277.192C145.918 277.759 146.942 278.586 147.657 279.671C148.397 280.756 148.767 282.039 148.767 283.519C148.767 284.358 148.656 285.184 148.434 285.998C148.212 286.812 147.793 287.675 147.176 288.588C146.56 289.501 145.672 290.524 144.512 291.659L135.114 300.724L134.226 299.281H149.877V302.5H131.266ZM163.761 302.796C161.467 302.796 159.506 302.29 157.878 301.279C156.25 300.268 155.005 298.812 154.141 296.913C153.303 294.989 152.883 292.646 152.883 289.883C152.883 286.948 153.401 284.469 154.437 282.446C155.473 280.423 156.916 278.894 158.766 277.858C160.616 276.822 162.738 276.304 165.13 276.304C166.364 276.304 167.535 276.427 168.645 276.674C169.78 276.921 170.754 277.303 171.568 277.821L170.162 280.707C169.496 280.238 168.732 279.918 167.868 279.745C167.03 279.572 166.142 279.486 165.204 279.486C162.565 279.486 160.468 280.312 158.914 281.965C157.36 283.593 156.583 286.023 156.583 289.254C156.583 289.772 156.608 290.389 156.657 291.104C156.707 291.819 156.83 292.522 157.027 293.213L155.769 291.955C156.139 290.82 156.719 289.871 157.508 289.106C158.322 288.317 159.284 287.737 160.394 287.367C161.529 286.972 162.75 286.775 164.057 286.775C165.784 286.775 167.313 287.096 168.645 287.737C169.977 288.378 171.026 289.291 171.79 290.475C172.555 291.634 172.937 293.016 172.937 294.619C172.937 296.272 172.53 297.715 171.716 298.948C170.902 300.181 169.805 301.131 168.423 301.797C167.042 302.463 165.488 302.796 163.761 302.796ZM163.613 299.799C164.748 299.799 165.735 299.589 166.573 299.17C167.437 298.751 168.115 298.171 168.608 297.431C169.102 296.666 169.348 295.778 169.348 294.767C169.348 293.238 168.818 292.029 167.757 291.141C166.697 290.228 165.254 289.772 163.428 289.772C162.244 289.772 161.208 289.994 160.32 290.438C159.432 290.882 158.729 291.486 158.211 292.251C157.718 292.991 157.471 293.842 157.471 294.804C157.471 295.692 157.706 296.518 158.174 297.283C158.643 298.023 159.334 298.627 160.246 299.096C161.159 299.565 162.281 299.799 163.613 299.799Z" fill="#292C33" fill-opacity="0.8"/>
<path d="M216.696 128.796C214.402 128.796 212.441 128.29 210.813 127.279C209.185 126.268 207.94 124.812 207.076 122.913C206.238 120.989 205.818 118.646 205.818 115.883C205.818 112.948 206.336 110.469 207.372 108.446C208.408 106.423 209.851 104.894 211.701 103.858C213.551 102.822 215.673 102.304 218.065 102.304C219.299 102.304 220.47 102.427 221.58 102.674C222.715 102.921 223.689 103.303 224.503 103.821L223.097 106.707C222.431 106.238 221.667 105.918 220.803 105.745C219.965 105.572 219.077 105.486 218.139 105.486C215.5 105.486 213.403 106.312 211.849 107.965C210.295 109.593 209.518 112.023 209.518 115.254C209.518 115.772 209.543 116.389 209.592 117.104C209.642 117.819 209.765 118.522 209.962 119.213L208.704 117.955C209.074 116.82 209.654 115.871 210.443 115.106C211.257 114.317 212.219 113.737 213.329 113.367C214.464 112.972 215.685 112.775 216.992 112.775C218.719 112.775 220.248 113.096 221.58 113.737C222.912 114.378 223.961 115.291 224.725 116.475C225.49 117.634 225.872 119.016 225.872 120.619C225.872 122.272 225.465 123.715 224.651 124.948C223.837 126.181 222.74 127.131 221.358 127.797C219.977 128.463 218.423 128.796 216.696 128.796ZM216.548 125.799C217.683 125.799 218.67 125.589 219.508 125.17C220.372 124.751 221.05 124.171 221.543 123.431C222.037 122.666 222.283 121.778 222.283 120.767C222.283 119.238 221.753 118.029 220.692 117.141C219.632 116.228 218.189 115.772 216.363 115.772C215.179 115.772 214.143 115.994 213.255 116.438C212.367 116.882 211.664 117.486 211.146 118.251C210.653 118.991 210.406 119.842 210.406 120.804C210.406 121.692 210.641 122.518 211.109 123.283C211.578 124.023 212.269 124.627 213.181 125.096C214.094 125.565 215.216 125.799 216.548 125.799Z" fill="#292C33" fill-opacity="0.8"/>
<path d="M204.168 186.5V162.08L205.759 163.819H198.322V160.6H207.831V186.5H204.168ZM221.414 186.796C219.589 186.796 217.813 186.512 216.086 185.945C214.384 185.378 212.991 184.613 211.905 183.651L213.607 180.728C214.471 181.542 215.593 182.208 216.974 182.726C218.356 183.244 219.836 183.503 221.414 183.503C223.338 183.503 224.831 183.096 225.891 182.282C226.977 181.443 227.519 180.321 227.519 178.915C227.519 177.558 227.001 176.473 225.965 175.659C224.954 174.82 223.338 174.401 221.118 174.401H219.046V171.811L226.742 162.339L227.26 163.819H213.089V160.6H230.183V163.116L222.524 172.551L220.6 171.404H221.821C224.954 171.404 227.297 172.107 228.851 173.513C230.43 174.919 231.219 176.707 231.219 178.878C231.219 180.333 230.862 181.665 230.146 182.874C229.431 184.083 228.346 185.045 226.89 185.76C225.46 186.451 223.634 186.796 221.414 186.796Z" fill="#292C33" fill-opacity="0.8"/>
<path d="M193.885 244.5V241.984L204.43 231.809C205.367 230.921 206.058 230.144 206.502 229.478C206.971 228.787 207.279 228.158 207.427 227.591C207.6 226.999 207.686 226.432 207.686 225.889C207.686 224.557 207.217 223.509 206.28 222.744C205.343 221.979 203.974 221.597 202.173 221.597C200.792 221.597 199.546 221.831 198.436 222.3C197.326 222.744 196.364 223.447 195.55 224.409L193.034 222.226C194.021 220.968 195.34 220.006 196.993 219.34C198.67 218.649 200.508 218.304 202.506 218.304C204.307 218.304 205.873 218.6 207.205 219.192C208.537 219.759 209.561 220.586 210.276 221.671C211.016 222.756 211.386 224.039 211.386 225.519C211.386 226.358 211.275 227.184 211.053 227.998C210.831 228.812 210.412 229.675 209.795 230.588C209.178 231.501 208.29 232.524 207.131 233.659L197.733 242.724L196.845 241.281H212.496V244.5H193.885ZM226.084 244.796C224.061 244.796 222.248 244.278 220.645 243.242C219.066 242.206 217.808 240.701 216.871 238.728C215.958 236.755 215.502 234.362 215.502 231.55C215.502 228.738 215.958 226.345 216.871 224.372C217.808 222.399 219.066 220.894 220.645 219.858C222.248 218.822 224.061 218.304 226.084 218.304C228.082 218.304 229.882 218.822 231.486 219.858C233.089 220.894 234.347 222.399 235.26 224.372C236.172 226.345 236.629 228.738 236.629 231.55C236.629 234.362 236.172 236.755 235.26 238.728C234.347 240.701 233.089 242.206 231.486 243.242C229.882 244.278 228.082 244.796 226.084 244.796ZM226.084 241.503C227.44 241.503 228.624 241.133 229.636 240.393C230.672 239.653 231.473 238.543 232.041 237.063C232.633 235.583 232.929 233.745 232.929 231.55C232.929 229.355 232.633 227.517 232.041 226.037C231.473 224.557 230.672 223.447 229.636 222.707C228.624 221.967 227.44 221.597 226.084 221.597C224.727 221.597 223.531 221.967 222.495 222.707C221.459 223.447 220.645 224.557 220.053 226.037C219.485 227.517 219.202 229.355 219.202 231.55C219.202 233.745 219.485 235.583 220.053 237.063C220.645 238.543 221.459 239.653 222.495 240.393C223.531 241.133 224.727 241.503 226.084 241.503Z" fill="#292C33" fill-opacity="0.8"/>
<path d="M195.168 302.5V299.984L205.713 289.809C206.65 288.921 207.341 288.144 207.785 287.478C208.253 286.787 208.562 286.158 208.71 285.591C208.882 284.999 208.969 284.432 208.969 283.889C208.969 282.557 208.5 281.509 207.563 280.744C206.625 279.979 205.256 279.597 203.456 279.597C202.074 279.597 200.829 279.831 199.719 280.3C198.609 280.744 197.647 281.447 196.833 282.409L194.317 280.226C195.303 278.968 196.623 278.006 198.276 277.34C199.953 276.649 201.791 276.304 203.789 276.304C205.589 276.304 207.156 276.6 208.488 277.192C209.82 277.759 210.843 278.586 211.559 279.671C212.299 280.756 212.669 282.039 212.669 283.519C212.669 284.358 212.558 285.184 212.336 285.998C212.114 286.812 211.694 287.675 211.078 288.588C210.461 289.501 209.573 290.524 208.414 291.659L199.016 300.724L198.128 299.281H213.779V302.5H195.168ZM221.262 302.5L232.251 278.154L233.213 279.819H217.821L219.671 278.006V284.444H216.119V276.6H235.655V279.116L225.184 302.5H221.262Z" fill="#292C33" fill-opacity="0.8"/>
<path d="M267.38 186.5V162.08L268.971 163.819H261.534V160.6H271.043V186.5H267.38ZM276.338 180.136V177.546L289.584 160.6H293.58L280.445 177.546L278.558 176.954H299.241V180.136H276.338ZM290.731 186.5V180.136L290.842 176.954V171.33H294.32V186.5H290.731Z" fill="#292C33" fill-opacity="0.8"/>
<path d="M264.359 244.5V241.984L274.904 231.809C275.841 230.921 276.532 230.144 276.976 229.478C277.445 228.787 277.753 228.158 277.901 227.591C278.074 226.999 278.16 226.432 278.16 225.889C278.16 224.557 277.691 223.509 276.754 222.744C275.817 221.979 274.448 221.597 272.647 221.597C271.266 221.597 270.02 221.831 268.91 222.3C267.8 222.744 266.838 223.447 266.024 224.409L263.508 222.226C264.495 220.968 265.814 220.006 267.467 219.34C269.144 218.649 270.982 218.304 272.98 218.304C274.781 218.304 276.347 218.6 277.679 219.192C279.011 219.759 280.035 220.586 280.75 221.671C281.49 222.756 281.86 224.039 281.86 225.519C281.86 226.358 281.749 227.184 281.527 227.998C281.305 228.812 280.886 229.675 280.269 230.588C279.652 231.501 278.764 232.524 277.605 233.659L268.207 242.724L267.319 241.281H282.97V244.5H264.359ZM290.378 244.5V220.08L291.969 221.819H284.532V218.6H294.041V244.5H290.378Z" fill="#292C33" fill-opacity="0.8"/>
<path d="M259.3 302.5V299.984L269.845 289.809C270.783 288.921 271.473 288.144 271.917 287.478C272.386 286.787 272.694 286.158 272.842 285.591C273.015 284.999 273.101 284.432 273.101 283.889C273.101 282.557 272.633 281.509 271.695 280.744C270.758 279.979 269.389 279.597 267.588 279.597C266.207 279.597 264.961 279.831 263.851 280.3C262.741 280.744 261.779 281.447 260.965 282.409L258.449 280.226C259.436 278.968 260.756 278.006 262.408 277.34C264.086 276.649 265.923 276.304 267.921 276.304C269.722 276.304 271.288 276.6 272.62 277.192C273.952 277.759 274.976 278.586 275.691 279.671C276.431 280.756 276.801 282.039 276.801 283.519C276.801 284.358 276.69 285.184 276.468 285.998C276.246 286.812 275.827 287.675 275.21 288.588C274.594 289.501 273.706 290.524 272.546 291.659L263.148 300.724L262.26 299.281H277.911V302.5H259.3ZM291.054 302.796C288.958 302.796 287.145 302.488 285.615 301.871C284.086 301.254 282.902 300.379 282.063 299.244C281.225 298.085 280.805 296.728 280.805 295.174C280.805 293.645 281.2 292.35 281.989 291.289C282.803 290.204 283.975 289.39 285.504 288.847C287.034 288.28 288.884 287.996 291.054 287.996C293.225 287.996 295.075 288.28 296.604 288.847C298.158 289.39 299.342 290.204 300.156 291.289C300.97 292.374 301.377 293.669 301.377 295.174C301.377 296.728 300.958 298.085 300.119 299.244C299.281 300.379 298.084 301.254 296.53 301.871C294.976 302.488 293.151 302.796 291.054 302.796ZM291.054 299.799C293.126 299.799 294.742 299.38 295.901 298.541C297.085 297.678 297.677 296.518 297.677 295.063C297.677 293.632 297.085 292.51 295.901 291.696C294.742 290.857 293.126 290.438 291.054 290.438C289.007 290.438 287.404 290.857 286.244 291.696C285.085 292.51 284.505 293.632 284.505 295.063C284.505 296.518 285.085 297.678 286.244 298.541C287.404 299.38 289.007 299.799 291.054 299.799ZM291.054 289.994C289.081 289.994 287.404 289.735 286.022 289.217C284.641 288.674 283.58 287.91 282.84 286.923C282.1 285.912 281.73 284.715 281.73 283.334C281.73 281.879 282.113 280.633 282.877 279.597C283.667 278.536 284.764 277.722 286.17 277.155C287.576 276.588 289.204 276.304 291.054 276.304C292.929 276.304 294.569 276.588 295.975 277.155C297.381 277.722 298.479 278.536 299.268 279.597C300.058 280.633 300.452 281.879 300.452 283.334C300.452 284.715 300.082 285.912 299.342 286.923C298.602 287.91 297.529 288.674 296.123 289.217C294.717 289.735 293.028 289.994 291.054 289.994ZM291.054 287.626C292.855 287.626 294.261 287.256 295.272 286.516C296.308 285.776 296.826 284.765 296.826 283.482C296.826 282.175 296.296 281.151 295.235 280.411C294.175 279.671 292.781 279.301 291.054 279.301C289.328 279.301 287.946 279.671 286.91 280.411C285.899 281.151 285.393 282.175 285.393 283.482C285.393 284.765 285.887 285.776 286.873 286.516C287.885 287.256 289.278 287.626 291.054 287.626Z" fill="#292C33" fill-opacity="0.8"/>
<path d="M275.657 128.5L286.646 104.154L287.608 105.819H272.216L274.066 104.006V110.444H270.514V102.6H290.05V105.116L279.579 128.5H275.657Z" fill="#292C33" fill-opacity="0.8"/>
</g>
<defs>
<clipPath id="clip0_525_2619">
<rect width="431" height="362" fill="white"/>
</clipPath>
</defs>
</svg>
