<svg width="431" height="362" viewBox="0 0 431 362" fill="none" xmlns="http://www.w3.org/2000/svg">
<g clip-path="url(#clip0_525_2619)">
<path d="M22.9564 20.7264H20.3476V3.36139H10.8906V20.7264H8.2002V1.32324H22.8749V20.7264H22.9564Z" fill="#B3B3B3"/>
<path d="M38.7725 20.7264H36.1636V14.6119H29.7231V20.7264H27.1143V6.29626H29.7231V12.5738H36.1636V6.29626H38.7725V20.7264Z" fill="#B3B3B3"/>
<path d="M73 20.7264V1.32324H79.359C81.3972 1.32324 82.9462 1.73087 84.0875 2.62766C85.2289 3.52444 85.7996 4.82886 85.7996 6.5409C85.7996 7.35616 85.555 8.08989 85.0658 8.82363C84.5767 9.55736 83.8429 9.96499 83.0277 10.2911C84.3321 10.4541 85.3104 11.0248 86.0441 11.9216C86.7779 12.8184 87.1855 13.9598 87.1855 15.1826C87.1855 16.9762 86.6148 18.2806 85.4735 19.2589C84.3321 20.2373 82.7831 20.6449 80.745 20.6449H73V20.7264ZM75.6904 9.55736H79.9297C80.908 9.55736 81.7233 9.31278 82.294 8.7421C82.9462 8.17142 83.1907 7.43769 83.1907 6.45937C83.1907 5.39954 82.8646 4.6658 82.2124 4.09512C81.5602 3.60597 80.5819 3.27986 79.359 3.27986H75.6904V9.55736ZM75.6904 11.5955V18.6067H80.745C81.9678 18.6067 82.8646 18.2806 83.5168 17.71C84.1691 17.1393 84.4952 16.2425 84.4952 15.1826C84.4952 14.1228 84.1691 13.226 83.5168 12.5738C82.8646 11.9216 81.9678 11.5955 80.745 11.514H80.5819H75.6904V11.5955Z" fill="#B3B3B3"/>
<path d="M101.126 8.33441H96.3976V20.7264H93.7888V8.33441H89.0603V6.29626H101.126V8.33441Z" fill="#B3B3B3"/>
<path d="M150.512 14.5304C150.593 16.4055 149.941 17.9545 148.637 19.1773C147.332 20.4002 145.62 21.0524 143.419 21.0524C141.218 21.0524 139.424 20.2372 138.038 18.6882C136.652 17.1392 136 15.1826 136 12.7368V9.31271C136 6.94846 136.652 4.91031 138.038 3.36132C139.424 1.81233 141.218 0.99707 143.419 0.99707C145.62 0.99707 147.332 1.56775 148.637 2.70911C149.941 3.85048 150.593 5.39947 150.512 7.35609V7.43762H147.984C147.984 6.05168 147.577 4.99184 146.761 4.17658C145.946 3.36132 144.805 2.95369 143.337 2.95369C141.87 2.95369 140.729 3.52437 139.832 4.74726C138.935 5.88862 138.527 7.35609 138.527 9.14966V12.6553C138.527 14.4488 138.935 15.9163 139.832 17.0577C140.729 18.199 141.87 18.8512 143.337 18.8512C144.805 18.8512 145.946 18.4436 146.761 17.7099C147.577 16.8946 147.984 15.8348 147.984 14.4488H150.512V14.5304Z" fill="#B3B3B3"/>
<path d="M165.92 14.0413C165.92 16.161 165.431 17.7915 164.453 19.0959C163.474 20.4003 162.088 20.971 160.295 20.971C159.398 20.971 158.664 20.8079 157.93 20.5634C157.278 20.2373 156.708 19.8296 156.218 19.2589V26.2702H153.61V6.29632H155.648L156.055 8.17142C156.545 7.43768 157.115 6.94853 157.849 6.62242C158.583 6.29632 159.398 6.05174 160.295 6.05174C162.088 6.05174 163.474 6.78548 164.453 8.17142C165.431 9.55736 165.92 11.4325 165.92 13.7967V14.0413ZM163.311 13.7967C163.311 12.1662 162.985 10.7802 162.333 9.80193C161.681 8.82362 160.702 8.25294 159.479 8.25294C158.746 8.25294 158.094 8.41599 157.523 8.7421C156.952 9.0682 156.545 9.55736 156.218 10.128V17.1393C156.545 17.7099 156.952 18.1991 157.523 18.5252C158.094 18.8513 158.746 19.0144 159.479 19.0144C160.702 19.0144 161.681 18.5252 162.333 17.6284C162.985 16.7316 163.311 15.5087 163.311 14.1228V13.7967Z" fill="#B3B3B3"/>
<path d="M215.43 1.32324V20.7264H212.821V12.6553C212.006 12.8999 211.191 13.063 210.375 13.226C209.56 13.3076 208.663 13.3891 207.522 13.3891C205.402 13.3891 203.772 12.8999 202.631 12.0031C201.489 11.1064 201 9.55736 201 7.43769V1.32324H203.609V7.43769C203.609 8.90515 203.935 9.88346 204.506 10.4541C205.158 11.0248 206.136 11.2694 207.441 11.2694C208.337 11.2694 209.234 11.1879 210.131 11.1064C210.946 10.9433 211.843 10.7802 212.74 10.5357V1.32324H215.43Z" fill="#B3B3B3"/>
<path d="M230.675 8.33441H225.947V20.7264H223.338V8.33441H218.61V6.29626H230.675V8.33441Z" fill="#B3B3B3"/>
<path d="M279.675 20.7264H277.066V3.36139H267.609V20.7264H265V1.32324H279.675V20.7264Z" fill="#B3B3B3"/>
<path d="M294.92 8.33453H290.192V20.7265H287.583V8.33453H282.854V6.29639H294.92V8.33453Z" fill="#B3B3B3"/>
<path d="M344.512 14.5302C344.593 16.4053 343.941 17.9543 342.637 19.1772C341.332 20.4001 339.62 21.0523 337.419 21.0523C335.218 21.0523 333.424 20.237 332.038 18.688C330.652 17.139 330 15.1824 330 12.7366V9.31254C330 6.94829 330.652 4.91015 332.038 3.36115C333.424 1.81216 335.218 0.996902 337.419 0.996902C339.62 0.996902 341.332 1.56758 342.637 2.70895C343.941 3.85031 344.593 5.3993 344.512 7.35592V7.43745H341.984C341.984 6.05151 341.577 4.99167 340.761 4.17641C339.946 3.36115 338.805 2.95352 337.337 2.95352C335.87 2.95352 334.729 3.52421 333.832 4.74709C332.935 5.88846 332.527 7.35592 332.527 9.14949V12.6551C332.527 14.4487 332.935 15.9161 333.832 17.0575C334.729 18.1989 335.87 18.8511 337.337 18.8511C338.805 18.8511 339.946 18.4434 340.761 17.7097C341.577 16.8945 341.984 15.8346 341.984 14.4487H344.512V14.5302Z" fill="#B3B3B3"/>
<path d="M353.887 6.05149C355.762 6.05149 357.148 6.7037 358.208 8.08964C359.268 9.47558 359.838 11.1876 359.838 13.3888V13.7149C359.838 15.8346 359.268 17.6282 358.126 19.0141C356.985 20.4 355.436 21.0523 353.398 21.0523C351.36 21.0523 349.811 20.4 348.669 19.0141C347.528 17.6282 346.957 15.9161 346.957 13.7149V13.3888C346.957 13.3073 346.957 13.2258 346.957 13.2258C346.957 13.1442 346.957 13.1442 346.957 13.0627V9.96473C346.957 7.19285 347.528 5.23623 348.588 3.93182C349.648 2.6274 351.278 1.97519 353.398 1.81214C354.621 1.73062 355.599 1.56756 356.251 1.32299C356.903 1.07841 357.23 0.670779 357.23 0.100098H359.268V0.181624C359.349 1.56756 358.86 2.54587 357.882 3.11656C356.903 3.68724 355.517 4.01334 353.642 4.01334C352.256 4.01334 351.197 4.42097 350.381 5.1547C349.566 5.88844 349.158 6.94827 349.158 8.33421V8.41574C349.648 7.76353 350.381 7.19285 351.197 6.78522C352.012 6.37759 352.99 6.05149 353.887 6.05149ZM353.398 8.08964C352.175 8.08964 351.197 8.57879 350.544 9.5571C349.892 10.5354 349.566 11.8398 349.566 13.3073V13.6334C349.566 15.1824 349.892 16.4053 350.544 17.3836C351.197 18.3619 352.175 18.8511 353.398 18.8511C354.621 18.8511 355.599 18.3619 356.251 17.3836C356.903 16.4053 357.23 15.1009 357.23 13.6334V13.3073C357.23 11.7583 356.903 10.5354 356.251 9.5571C355.599 8.57879 354.621 8.08964 353.398 8.08964Z" fill="#B3B3B3"/>
<path d="M394 20.7264V1.32324H400.359C402.397 1.32324 403.946 1.73087 405.088 2.62766C406.229 3.52444 406.8 4.82886 406.8 6.5409C406.8 7.35616 406.555 8.08989 406.066 8.82363C405.577 9.55736 404.843 9.96499 404.028 10.3726C405.332 10.5357 406.31 11.1064 407.044 12.0031C407.778 12.8999 408.186 14.0413 408.186 15.2642C408.186 17.0577 407.615 18.3622 406.473 19.3405C405.332 20.3188 403.783 20.7264 401.745 20.7264H394ZM396.69 9.55736H400.93C401.908 9.55736 402.723 9.31278 403.294 8.7421C403.946 8.17142 404.191 7.43769 404.191 6.45937C404.191 5.39954 403.865 4.6658 403.212 4.09512C402.56 3.60597 401.582 3.27986 400.359 3.27986H396.69V9.55736ZM396.69 11.5955V18.6067H401.745C402.968 18.6067 403.865 18.2806 404.517 17.71C405.169 17.1393 405.495 16.2425 405.495 15.1826C405.495 14.1228 405.169 13.226 404.517 12.5738C403.865 11.9216 402.968 11.5955 401.745 11.514H401.582H396.69V11.5955Z" fill="#B3B3B3"/>
<path d="M416.745 18.9325C417.561 18.9325 418.294 18.688 418.865 18.1173C419.436 17.5466 419.762 16.8944 419.762 16.1607H422.126V16.2422C422.126 17.4651 421.637 18.6064 420.496 19.5847C419.354 20.5631 418.131 21.0522 416.664 21.0522C414.626 21.0522 413.077 20.4 411.935 19.0141C410.794 17.6281 410.305 15.9161 410.305 13.8779V13.3072C410.305 11.2691 410.876 9.55705 411.935 8.17111C413.077 6.78517 414.626 6.13297 416.582 6.13297C418.213 6.13297 419.517 6.62212 420.496 7.60043C421.474 8.57874 422.045 9.80163 421.963 11.2691V11.3506H419.599C419.599 10.4538 419.273 9.72011 418.702 9.0679C418.131 8.41569 417.398 8.17111 416.501 8.17111C415.196 8.17111 414.3 8.66027 413.647 9.63858C413.077 10.6169 412.751 11.8398 412.751 13.3072V13.8779C412.751 15.3454 413.077 16.5683 413.647 17.5466C414.544 18.4434 415.441 18.9325 416.745 18.9325Z" fill="#B3B3B3"/>
<path d="M343.795 78V53.58L345.386 55.319H337.949V52.1H347.458V78H343.795Z" fill="#292C33" fill-opacity="0.8"/>
<path d="M344.471 128.796C342.375 128.796 340.562 128.488 339.032 127.871C337.503 127.254 336.319 126.379 335.48 125.244C334.642 124.085 334.222 122.728 334.222 121.174C334.222 119.645 334.617 118.35 335.406 117.289C336.22 116.204 337.392 115.39 338.921 114.847C340.451 114.28 342.301 113.996 344.471 113.996C346.642 113.996 348.492 114.28 350.021 114.847C351.575 115.39 352.759 116.204 353.573 117.289C354.387 118.374 354.794 119.669 354.794 121.174C354.794 122.728 354.375 124.085 353.536 125.244C352.698 126.379 351.501 127.254 349.947 127.871C348.393 128.488 346.568 128.796 344.471 128.796ZM344.471 125.799C346.543 125.799 348.159 125.38 349.318 124.541C350.502 123.678 351.094 122.518 351.094 121.063C351.094 119.632 350.502 118.51 349.318 117.696C348.159 116.857 346.543 116.438 344.471 116.438C342.424 116.438 340.821 116.857 339.661 117.696C338.502 118.51 337.922 119.632 337.922 121.063C337.922 122.518 338.502 123.678 339.661 124.541C340.821 125.38 342.424 125.799 344.471 125.799ZM344.471 115.994C342.498 115.994 340.821 115.735 339.439 115.217C338.058 114.674 336.997 113.91 336.257 112.923C335.517 111.912 335.147 110.715 335.147 109.334C335.147 107.879 335.53 106.633 336.294 105.597C337.084 104.536 338.181 103.722 339.587 103.155C340.993 102.588 342.621 102.304 344.471 102.304C346.346 102.304 347.986 102.588 349.392 103.155C350.798 103.722 351.896 104.536 352.685 105.597C353.475 106.633 353.869 107.879 353.869 109.334C353.869 110.715 353.499 111.912 352.759 112.923C352.019 113.91 350.946 114.674 349.54 115.217C348.134 115.735 346.445 115.994 344.471 115.994ZM344.471 113.626C346.272 113.626 347.678 113.256 348.689 112.516C349.725 111.776 350.243 110.765 350.243 109.482C350.243 108.175 349.713 107.151 348.652 106.411C347.592 105.671 346.198 105.301 344.471 105.301C342.745 105.301 341.363 105.671 340.327 106.411C339.316 107.151 338.81 108.175 338.81 109.482C338.81 110.765 339.304 111.776 340.29 112.516C341.302 113.256 342.695 113.626 344.471 113.626Z" fill="#292C33" fill-opacity="0.8"/>
<path d="M333.172 184V159.58L334.763 161.319H327.326V158.1H336.835V184H333.172ZM350.862 184.296C349.037 184.296 347.261 184.012 345.534 183.445C343.832 182.878 342.438 182.113 341.353 181.151L343.055 178.228C343.918 179.042 345.041 179.708 346.422 180.226C347.803 180.744 349.271 181.003 350.825 181.003C352.798 181.003 354.315 180.584 355.376 179.745C356.437 178.906 356.967 177.784 356.967 176.378C356.967 175.416 356.733 174.577 356.264 173.862C355.795 173.147 354.981 172.604 353.822 172.234C352.687 171.839 351.121 171.642 349.123 171.642H343.24L344.609 158.1H359.224V161.319H345.978L347.902 159.506L346.829 170.199L344.905 168.423H349.9C352.49 168.423 354.574 168.756 356.153 169.422C357.732 170.088 358.879 171.013 359.594 172.197C360.309 173.356 360.667 174.701 360.667 176.23C360.667 177.71 360.309 179.067 359.594 180.3C358.879 181.509 357.793 182.483 356.338 183.223C354.907 183.938 353.082 184.296 350.862 184.296Z" fill="#292C33" fill-opacity="0.8"/>
<path d="M324.623 239V236.484L335.168 226.309C336.105 225.421 336.796 224.644 337.24 223.978C337.709 223.287 338.017 222.658 338.165 222.091C338.338 221.499 338.424 220.932 338.424 220.389C338.424 219.057 337.955 218.009 337.018 217.244C336.081 216.479 334.712 216.097 332.911 216.097C331.53 216.097 330.284 216.331 329.174 216.8C328.064 217.244 327.102 217.947 326.288 218.909L323.772 216.726C324.759 215.468 326.078 214.506 327.731 213.84C329.408 213.149 331.246 212.804 333.244 212.804C335.045 212.804 336.611 213.1 337.943 213.692C339.275 214.259 340.299 215.086 341.014 216.171C341.754 217.256 342.124 218.539 342.124 220.019C342.124 220.858 342.013 221.684 341.791 222.498C341.569 223.312 341.15 224.175 340.533 225.088C339.916 226.001 339.028 227.024 337.869 228.159L328.471 237.224L327.583 235.781H343.234V239H324.623ZM345.869 239V236.484L356.414 226.309C357.351 225.421 358.042 224.644 358.486 223.978C358.955 223.287 359.263 222.658 359.411 222.091C359.584 221.499 359.67 220.932 359.67 220.389C359.67 219.057 359.201 218.009 358.264 217.244C357.327 216.479 355.958 216.097 354.157 216.097C352.776 216.097 351.53 216.331 350.42 216.8C349.31 217.244 348.348 217.947 347.534 218.909L345.018 216.726C346.005 215.468 347.324 214.506 348.977 213.84C350.654 213.149 352.492 212.804 354.49 212.804C356.291 212.804 357.857 213.1 359.189 213.692C360.521 214.259 361.545 215.086 362.26 216.171C363 217.256 363.37 218.539 363.37 220.019C363.37 220.858 363.259 221.684 363.037 222.498C362.815 223.312 362.396 224.175 361.779 225.088C361.162 226.001 360.274 227.024 359.115 228.159L349.717 237.224L348.829 235.781H364.48V239H345.869Z" fill="#292C33" fill-opacity="0.8"/>
<path d="M323.828 297V294.484L334.373 284.309C335.31 283.421 336.001 282.644 336.445 281.978C336.914 281.287 337.222 280.658 337.37 280.091C337.543 279.499 337.629 278.932 337.629 278.389C337.629 277.057 337.16 276.009 336.223 275.244C335.286 274.479 333.917 274.097 332.116 274.097C330.735 274.097 329.489 274.331 328.379 274.8C327.269 275.244 326.307 275.947 325.493 276.909L322.977 274.726C323.964 273.468 325.283 272.506 326.936 271.84C328.613 271.149 330.451 270.804 332.449 270.804C334.25 270.804 335.816 271.1 337.148 271.692C338.48 272.259 339.504 273.086 340.219 274.171C340.959 275.256 341.329 276.539 341.329 278.019C341.329 278.858 341.218 279.684 340.996 280.498C340.774 281.312 340.355 282.175 339.738 283.088C339.121 284.001 338.233 285.024 337.074 286.159L327.676 295.224L326.788 293.781H342.439V297H323.828ZM353.88 270.804C356.223 270.804 358.197 271.31 359.8 272.321C361.428 273.332 362.661 274.8 363.5 276.724C364.339 278.623 364.758 280.954 364.758 283.717C364.758 286.652 364.24 289.131 363.204 291.154C362.168 293.177 360.737 294.706 358.912 295.742C357.087 296.778 354.953 297.296 352.511 297.296C351.302 297.296 350.131 297.173 348.996 296.926C347.886 296.679 346.912 296.297 346.073 295.779L347.479 292.893C348.17 293.337 348.934 293.658 349.773 293.855C350.636 294.028 351.537 294.114 352.474 294.114C355.089 294.114 357.173 293.3 358.727 291.672C360.281 290.019 361.058 287.577 361.058 284.346C361.058 283.828 361.033 283.211 360.984 282.496C360.935 281.781 360.824 281.078 360.651 280.387L361.872 281.645C361.527 282.78 360.947 283.742 360.133 284.531C359.344 285.296 358.382 285.875 357.247 286.27C356.137 286.64 354.916 286.825 353.584 286.825C351.882 286.825 350.365 286.504 349.033 285.863C347.701 285.222 346.653 284.321 345.888 283.162C345.123 281.978 344.741 280.584 344.741 278.981C344.741 277.304 345.136 275.861 345.925 274.652C346.739 273.419 347.837 272.469 349.218 271.803C350.624 271.137 352.178 270.804 353.88 270.804ZM354.028 273.801C352.918 273.801 351.931 274.011 351.068 274.43C350.205 274.849 349.526 275.429 349.033 276.169C348.564 276.909 348.33 277.797 348.33 278.833C348.33 280.362 348.86 281.583 349.921 282.496C350.982 283.384 352.412 283.828 354.213 283.828C355.397 283.828 356.433 283.606 357.321 283.162C358.234 282.718 358.937 282.114 359.43 281.349C359.948 280.584 360.207 279.733 360.207 278.796C360.207 277.883 359.973 277.057 359.504 276.317C359.035 275.577 358.345 274.973 357.432 274.504C356.519 274.035 355.385 273.801 354.028 273.801Z" fill="#292C33" fill-opacity="0.8"/>
<path d="M399.246 78V75.484L409.791 65.309C410.728 64.421 411.419 63.644 411.863 62.978C412.332 62.2873 412.64 61.6583 412.788 61.091C412.961 60.499 413.047 59.9317 413.047 59.389C413.047 58.057 412.578 57.0087 411.641 56.244C410.704 55.4793 409.335 55.097 407.534 55.097C406.153 55.097 404.907 55.3313 403.797 55.8C402.687 56.244 401.725 56.947 400.911 57.909L398.395 55.726C399.382 54.468 400.701 53.506 402.354 52.84C404.031 52.1493 405.869 51.804 407.867 51.804C409.668 51.804 411.234 52.1 412.566 52.692C413.898 53.2593 414.922 54.0857 415.637 55.171C416.377 56.2563 416.747 57.539 416.747 59.019C416.747 59.8577 416.636 60.684 416.414 61.498C416.192 62.312 415.773 63.1753 415.156 64.088C414.539 65.0007 413.651 66.0243 412.492 67.159L403.094 76.224L402.206 74.781H417.857V78H399.246Z" fill="#292C33" fill-opacity="0.8"/>
<path d="M407.257 102.304C409.6 102.304 411.574 102.81 413.177 103.821C414.805 104.832 416.038 106.3 416.877 108.224C417.716 110.123 418.135 112.454 418.135 115.217C418.135 118.152 417.617 120.631 416.581 122.654C415.545 124.677 414.114 126.206 412.289 127.242C410.464 128.278 408.33 128.796 405.888 128.796C404.679 128.796 403.508 128.673 402.373 128.426C401.263 128.179 400.289 127.797 399.45 127.279L400.856 124.393C401.547 124.837 402.311 125.158 403.15 125.355C404.013 125.528 404.914 125.614 405.851 125.614C408.466 125.614 410.55 124.8 412.104 123.172C413.658 121.519 414.435 119.077 414.435 115.846C414.435 115.328 414.41 114.711 414.361 113.996C414.312 113.281 414.201 112.578 414.028 111.887L415.249 113.145C414.904 114.28 414.324 115.242 413.51 116.031C412.721 116.796 411.759 117.375 410.624 117.77C409.514 118.14 408.293 118.325 406.961 118.325C405.259 118.325 403.742 118.004 402.41 117.363C401.078 116.722 400.03 115.821 399.265 114.662C398.5 113.478 398.118 112.084 398.118 110.481C398.118 108.804 398.513 107.361 399.302 106.152C400.116 104.919 401.214 103.969 402.595 103.303C404.001 102.637 405.555 102.304 407.257 102.304ZM407.405 105.301C406.295 105.301 405.308 105.511 404.445 105.93C403.582 106.349 402.903 106.929 402.41 107.669C401.941 108.409 401.707 109.297 401.707 110.333C401.707 111.862 402.237 113.083 403.298 113.996C404.359 114.884 405.789 115.328 407.59 115.328C408.774 115.328 409.81 115.106 410.698 114.662C411.611 114.218 412.314 113.614 412.807 112.849C413.325 112.084 413.584 111.233 413.584 110.296C413.584 109.383 413.35 108.557 412.881 107.817C412.412 107.077 411.722 106.473 410.809 106.004C409.896 105.535 408.762 105.301 407.405 105.301Z" fill="#292C33" fill-opacity="0.8"/>
<path d="M396.377 184V159.58L397.968 161.319H390.531V158.1H400.04V184H396.377ZM416.583 184.296C414.289 184.296 412.328 183.79 410.7 182.779C409.072 181.768 407.827 180.312 406.963 178.413C406.125 176.489 405.705 174.146 405.705 171.383C405.705 168.448 406.223 165.969 407.259 163.946C408.295 161.923 409.738 160.394 411.588 159.358C413.438 158.322 415.56 157.804 417.952 157.804C419.186 157.804 420.357 157.927 421.467 158.174C422.602 158.421 423.576 158.803 424.39 159.321L422.984 162.207C422.318 161.738 421.554 161.418 420.69 161.245C419.852 161.072 418.964 160.986 418.026 160.986C415.387 160.986 413.29 161.812 411.736 163.465C410.182 165.093 409.405 167.523 409.405 170.754C409.405 171.272 409.43 171.889 409.479 172.604C409.529 173.319 409.652 174.022 409.849 174.713L408.591 173.455C408.961 172.32 409.541 171.371 410.33 170.606C411.144 169.817 412.106 169.237 413.216 168.867C414.351 168.472 415.572 168.275 416.879 168.275C418.606 168.275 420.135 168.596 421.467 169.237C422.799 169.878 423.848 170.791 424.612 171.975C425.377 173.134 425.759 174.516 425.759 176.119C425.759 177.772 425.352 179.215 424.538 180.448C423.724 181.681 422.627 182.631 421.245 183.297C419.864 183.963 418.31 184.296 416.583 184.296ZM416.435 181.299C417.57 181.299 418.557 181.089 419.395 180.67C420.259 180.251 420.937 179.671 421.43 178.931C421.924 178.166 422.17 177.278 422.17 176.267C422.17 174.738 421.64 173.529 420.579 172.641C419.519 171.728 418.076 171.272 416.25 171.272C415.066 171.272 414.03 171.494 413.142 171.938C412.254 172.382 411.551 172.986 411.033 173.751C410.54 174.491 410.293 175.342 410.293 176.304C410.293 177.192 410.528 178.018 410.996 178.783C411.465 179.523 412.156 180.127 413.068 180.596C413.981 181.065 415.103 181.299 416.435 181.299Z" fill="#292C33" fill-opacity="0.8"/>
<path d="M388.659 239V236.484L399.204 226.309C400.141 225.421 400.832 224.644 401.276 223.978C401.745 223.287 402.053 222.658 402.201 222.091C402.374 221.499 402.46 220.932 402.46 220.389C402.46 219.057 401.991 218.009 401.054 217.244C400.117 216.479 398.748 216.097 396.947 216.097C395.566 216.097 394.32 216.331 393.21 216.8C392.1 217.244 391.138 217.947 390.324 218.909L387.808 216.726C388.795 215.468 390.114 214.506 391.767 213.84C393.444 213.149 395.282 212.804 397.28 212.804C399.081 212.804 400.647 213.1 401.979 213.692C403.311 214.259 404.335 215.086 405.05 216.171C405.79 217.256 406.16 218.539 406.16 220.019C406.16 220.858 406.049 221.684 405.827 222.498C405.605 223.312 405.186 224.175 404.569 225.088C403.952 226.001 403.064 227.024 401.905 228.159L392.507 237.224L391.619 235.781H407.27V239H388.659ZM418.23 239.296C416.405 239.296 414.629 239.012 412.902 238.445C411.2 237.878 409.806 237.113 408.721 236.151L410.423 233.228C411.286 234.042 412.409 234.708 413.79 235.226C415.171 235.744 416.651 236.003 418.23 236.003C420.154 236.003 421.646 235.596 422.707 234.782C423.792 233.943 424.335 232.821 424.335 231.415C424.335 230.058 423.817 228.973 422.781 228.159C421.77 227.32 420.154 226.901 417.934 226.901H415.862V224.311L423.558 214.839L424.076 216.319H409.905V213.1H426.999V215.616L419.34 225.051L417.416 223.904H418.637C421.77 223.904 424.113 224.607 425.667 226.013C427.246 227.419 428.035 229.207 428.035 231.378C428.035 232.833 427.677 234.165 426.962 235.374C426.247 236.583 425.161 237.545 423.706 238.26C422.275 238.951 420.45 239.296 418.23 239.296Z" fill="#292C33" fill-opacity="0.8"/>
<path d="M395.268 297.296C393.442 297.296 391.666 297.012 389.94 296.445C388.238 295.878 386.844 295.113 385.759 294.151L387.461 291.228C388.324 292.042 389.446 292.708 390.828 293.226C392.209 293.744 393.689 294.003 395.268 294.003C397.192 294.003 398.684 293.596 399.745 292.782C400.83 291.943 401.373 290.821 401.373 289.415C401.373 288.058 400.855 286.973 399.819 286.159C398.807 285.32 397.192 284.901 394.972 284.901H392.9V282.311L400.596 272.839L401.114 274.319H386.943V271.1H404.037V273.616L396.378 283.051L394.454 281.904H395.675C398.807 281.904 401.151 282.607 402.705 284.013C404.283 285.419 405.073 287.207 405.073 289.378C405.073 290.833 404.715 292.165 404 293.374C403.284 294.583 402.199 295.545 400.744 296.26C399.313 296.951 397.488 297.296 395.268 297.296ZM419.106 297.296C417.083 297.296 415.27 296.778 413.667 295.742C412.088 294.706 410.83 293.201 409.893 291.228C408.98 289.255 408.524 286.862 408.524 284.05C408.524 281.238 408.98 278.845 409.893 276.872C410.83 274.899 412.088 273.394 413.667 272.358C415.27 271.322 417.083 270.804 419.106 270.804C421.104 270.804 422.904 271.322 424.508 272.358C426.111 273.394 427.369 274.899 428.282 276.872C429.194 278.845 429.651 281.238 429.651 284.05C429.651 286.862 429.194 289.255 428.282 291.228C427.369 293.201 426.111 294.706 424.508 295.742C422.904 296.778 421.104 297.296 419.106 297.296ZM419.106 294.003C420.462 294.003 421.646 293.633 422.658 292.893C423.694 292.153 424.495 291.043 425.063 289.563C425.655 288.083 425.951 286.245 425.951 284.05C425.951 281.855 425.655 280.017 425.063 278.537C424.495 277.057 423.694 275.947 422.658 275.207C421.646 274.467 420.462 274.097 419.106 274.097C417.749 274.097 416.553 274.467 415.517 275.207C414.481 275.947 413.667 277.057 413.075 278.537C412.507 280.017 412.224 281.855 412.224 284.05C412.224 286.245 412.507 288.083 413.075 289.563C413.667 291.043 414.481 292.153 415.517 292.893C416.553 293.633 417.749 294.003 419.106 294.003Z" fill="#292C33" fill-opacity="0.8"/>
<path d="M23.5673 128.796C21.742 128.796 19.966 128.512 18.2393 127.945C16.5373 127.378 15.1436 126.613 14.0583 125.651L15.7603 122.728C16.6236 123.542 17.746 124.208 19.1273 124.726C20.5086 125.244 21.9886 125.503 23.5673 125.503C25.4913 125.503 26.9836 125.096 28.0443 124.282C29.1296 123.443 29.6723 122.321 29.6723 120.915C29.6723 119.558 29.1543 118.473 28.1183 117.659C27.107 116.82 25.4913 116.401 23.2713 116.401H21.1993V113.811L28.8953 104.339L29.4133 105.819H15.2423V102.6H32.3363V105.116L24.6773 114.551L22.7533 113.404H23.9743C27.107 113.404 29.4503 114.107 31.0043 115.513C32.583 116.919 33.3723 118.707 33.3723 120.878C33.3723 122.333 33.0146 123.665 32.2993 124.874C31.584 126.083 30.4986 127.045 29.0433 127.76C27.6126 128.451 25.7873 128.796 23.5673 128.796Z" fill="#292C33" fill-opacity="0.8"/>
<path d="M11.4157 184V159.58L13.0067 161.319H5.56968V158.1H15.0787V184H11.4157ZM31.326 184.296C29.3034 184.296 27.4904 183.778 25.887 182.742C24.3084 181.706 23.0504 180.201 22.113 178.228C21.2004 176.255 20.744 173.862 20.744 171.05C20.744 168.238 21.2004 165.845 22.113 163.872C23.0504 161.899 24.3084 160.394 25.887 159.358C27.4904 158.322 29.3034 157.804 31.326 157.804C33.324 157.804 35.1247 158.322 36.728 159.358C38.3314 160.394 39.5894 161.899 40.502 163.872C41.4147 165.845 41.871 168.238 41.871 171.05C41.871 173.862 41.4147 176.255 40.502 178.228C39.5894 180.201 38.3314 181.706 36.728 182.742C35.1247 183.778 33.324 184.296 31.326 184.296ZM31.326 181.003C32.6827 181.003 33.8667 180.633 34.878 179.893C35.914 179.153 36.7157 178.043 37.283 176.563C37.875 175.083 38.171 173.245 38.171 171.05C38.171 168.855 37.875 167.017 37.283 165.537C36.7157 164.057 35.914 162.947 34.878 162.207C33.8667 161.467 32.6827 161.097 31.326 161.097C29.9694 161.097 28.773 161.467 27.737 162.207C26.701 162.947 25.887 164.057 25.295 165.537C24.7277 167.017 24.444 168.855 24.444 171.05C24.444 173.245 24.7277 175.083 25.295 176.563C25.887 178.043 26.701 179.153 27.737 179.893C28.773 180.633 29.9694 181.003 31.326 181.003Z" fill="#292C33" fill-opacity="0.8"/>
<path d="M12.6984 239V214.58L14.2894 216.319H6.8524V213.1H16.3614V239H12.6984ZM26.5037 239L37.4927 214.654L38.4547 216.319H23.0627L24.9127 214.506V220.944H21.3607V213.1H40.8967V215.616L30.4257 239H26.5037Z" fill="#292C33" fill-opacity="0.8"/>
<path d="M3.192 297V294.484L13.737 284.309C14.6743 283.421 15.365 282.644 15.809 281.978C16.2777 281.287 16.586 280.658 16.734 280.091C16.9067 279.499 16.993 278.932 16.993 278.389C16.993 277.057 16.5243 276.009 15.587 275.244C14.6497 274.479 13.2807 274.097 11.48 274.097C10.0987 274.097 8.853 274.331 7.743 274.8C6.633 275.244 5.671 275.947 4.857 276.909L2.341 274.726C3.32766 273.468 4.64733 272.506 6.3 271.84C7.97733 271.149 9.815 270.804 11.813 270.804C13.6137 270.804 15.18 271.1 16.512 271.692C17.844 272.259 18.8677 273.086 19.583 274.171C20.323 275.256 20.693 276.539 20.693 278.019C20.693 278.858 20.582 279.684 20.36 280.498C20.138 281.312 19.7187 282.175 19.102 283.088C18.4853 284.001 17.5973 285.024 16.438 286.159L7.04 295.224L6.152 293.781H21.803V297H3.192ZM23.7524 290.636V288.046L36.9984 271.1H40.9944L27.8594 288.046L25.9724 287.454H46.6554V290.636H23.7524ZM38.1454 297V290.636L38.2564 287.454V281.83H41.7344V297H38.1454Z" fill="#292C33" fill-opacity="0.8"/>
<path d="M16.7201 355.296C14.8948 355.296 13.1188 355.012 11.3921 354.445C9.69012 353.878 8.29646 353.113 7.21112 352.151L8.91312 349.228C9.77646 350.042 10.8988 350.708 12.2801 351.226C13.6615 351.744 15.1415 352.003 16.7201 352.003C18.6441 352.003 20.1365 351.596 21.1971 350.782C22.2825 349.943 22.8251 348.821 22.8251 347.415C22.8251 346.058 22.3071 344.973 21.2711 344.159C20.2598 343.32 18.6441 342.901 16.4241 342.901H14.3521V340.311L22.0481 330.839L22.5661 332.319H8.39512V329.1H25.4891V331.616L17.8301 341.051L15.9061 339.904H17.1271C20.2598 339.904 22.6031 340.607 24.1571 342.013C25.7358 343.419 26.5251 345.207 26.5251 347.378C26.5251 348.833 26.1675 350.165 25.4521 351.374C24.7368 352.583 23.6515 353.545 22.1961 354.26C20.7655 354.951 18.9401 355.296 16.7201 355.296ZM34.342 355V330.58L35.933 332.319H28.496V329.1H38.005V355H34.342Z" fill="#292C33" fill-opacity="0.8"/>
<path d="M78.4509 122.136V119.546L91.6969 102.6H95.6929L82.5579 119.546L80.6709 118.954H101.354V122.136H78.4509ZM92.8439 128.5V122.136L92.9549 118.954V113.33H96.4329V128.5H92.8439Z" fill="#292C33" fill-opacity="0.8"/>
<path d="M81.8681 184V159.58L83.4591 161.319H76.0221V158.1H85.5311V184H81.8681ZM95.5624 184V159.58L97.1534 161.319H89.7164V158.1H99.2254V184H95.5624Z" fill="#292C33" fill-opacity="0.8"/>
<path d="M76.8095 239V214.58L78.4005 216.319H70.9635V213.1H80.4725V239H76.8095ZM96.2388 239.296C94.1422 239.296 92.3292 238.988 90.7998 238.371C89.2705 237.754 88.0865 236.879 87.2478 235.744C86.4091 234.585 85.9898 233.228 85.9898 231.674C85.9898 230.145 86.3845 228.85 87.1738 227.789C87.9878 226.704 89.1595 225.89 90.6888 225.347C92.2182 224.78 94.0682 224.496 96.2388 224.496C98.4095 224.496 100.259 224.78 101.789 225.347C103.343 225.89 104.527 226.704 105.341 227.789C106.155 228.874 106.562 230.169 106.562 231.674C106.562 233.228 106.142 234.585 105.304 235.744C104.465 236.879 103.269 237.754 101.715 238.371C100.161 238.988 98.3355 239.296 96.2388 239.296ZM96.2388 236.299C98.3108 236.299 99.9265 235.88 101.086 235.041C102.27 234.178 102.862 233.018 102.862 231.563C102.862 230.132 102.27 229.01 101.086 228.196C99.9265 227.357 98.3108 226.938 96.2388 226.938C94.1915 226.938 92.5882 227.357 91.4288 228.196C90.2695 229.01 89.6898 230.132 89.6898 231.563C89.6898 233.018 90.2695 234.178 91.4288 235.041C92.5882 235.88 94.1915 236.299 96.2388 236.299ZM96.2388 226.494C94.2655 226.494 92.5882 226.235 91.2068 225.717C89.8255 225.174 88.7648 224.41 88.0248 223.423C87.2848 222.412 86.9148 221.215 86.9148 219.834C86.9148 218.379 87.2971 217.133 88.0618 216.097C88.8511 215.036 89.9488 214.222 91.3548 213.655C92.7608 213.088 94.3888 212.804 96.2388 212.804C98.1135 212.804 99.7538 213.088 101.16 213.655C102.566 214.222 103.663 215.036 104.453 216.097C105.242 217.133 105.637 218.379 105.637 219.834C105.637 221.215 105.267 222.412 104.527 223.423C103.787 224.41 102.714 225.174 101.308 225.717C99.9018 226.235 98.2122 226.494 96.2388 226.494ZM96.2388 224.126C98.0395 224.126 99.4455 223.756 100.457 223.016C101.493 222.276 102.011 221.265 102.011 219.982C102.011 218.675 101.48 217.651 100.42 216.911C99.3592 216.171 97.9655 215.801 96.2388 215.801C94.5122 215.801 93.1308 216.171 92.0948 216.911C91.0835 217.651 90.5778 218.675 90.5778 219.982C90.5778 221.265 91.0712 222.276 92.0578 223.016C93.0692 223.756 94.4628 224.126 96.2388 224.126Z" fill="#292C33" fill-opacity="0.8"/>
<path d="M69.5433 297V294.484L80.0883 284.309C81.0257 283.421 81.7163 282.644 82.1603 281.978C82.629 281.287 82.9373 280.658 83.0853 280.091C83.258 279.499 83.3443 278.932 83.3443 278.389C83.3443 277.057 82.8757 276.009 81.9383 275.244C81.001 274.479 79.632 274.097 77.8313 274.097C76.45 274.097 75.2043 274.331 74.0943 274.8C72.9843 275.244 72.0223 275.947 71.2083 276.909L68.6923 274.726C69.679 273.468 70.9986 272.506 72.6513 271.84C74.3287 271.149 76.1663 270.804 78.1643 270.804C79.965 270.804 81.5313 271.1 82.8633 271.692C84.1953 272.259 85.219 273.086 85.9343 274.171C86.6743 275.256 87.0443 276.539 87.0443 278.019C87.0443 278.858 86.9333 279.684 86.7113 280.498C86.4893 281.312 86.07 282.175 85.4533 283.088C84.8367 284.001 83.9487 285.024 82.7893 286.159L73.3913 295.224L72.5033 293.781H88.1543V297H69.5433ZM99.5584 297.296C97.7331 297.296 95.9571 297.012 94.2304 296.445C92.5284 295.878 91.1347 295.113 90.0494 294.151L91.7514 291.228C92.6147 292.042 93.7371 292.708 95.1184 293.226C96.4997 293.744 97.9674 294.003 99.5214 294.003C101.495 294.003 103.012 293.584 104.072 292.745C105.133 291.906 105.663 290.784 105.663 289.378C105.663 288.416 105.429 287.577 104.96 286.862C104.492 286.147 103.678 285.604 102.518 285.234C101.384 284.839 99.8174 284.642 97.8194 284.642H91.9364L93.3054 271.1H107.92V274.319H94.6744L96.5984 272.506L95.5254 283.199L93.6014 281.423H98.5964C101.186 281.423 103.271 281.756 104.849 282.422C106.428 283.088 107.575 284.013 108.29 285.197C109.006 286.356 109.363 287.701 109.363 289.23C109.363 290.71 109.006 292.067 108.29 293.3C107.575 294.509 106.49 295.483 105.034 296.223C103.604 296.938 101.778 297.296 99.5584 297.296Z" fill="#292C33" fill-opacity="0.8"/>
<path d="M150.935 128.796C149.11 128.796 147.334 128.512 145.607 127.945C143.905 127.378 142.512 126.613 141.426 125.651L143.128 122.728C143.992 123.542 145.114 124.208 146.495 124.726C147.877 125.244 149.344 125.503 150.898 125.503C152.872 125.503 154.389 125.084 155.449 124.245C156.51 123.406 157.04 122.284 157.04 120.878C157.04 119.916 156.806 119.077 156.337 118.362C155.869 117.647 155.055 117.104 153.895 116.734C152.761 116.339 151.194 116.142 149.196 116.142H143.313L144.682 102.6H159.297V105.819H146.051L147.975 104.006L146.902 114.699L144.978 112.923H149.973C152.563 112.923 154.648 113.256 156.226 113.922C157.805 114.588 158.952 115.513 159.667 116.697C160.383 117.856 160.74 119.201 160.74 120.73C160.74 122.21 160.383 123.567 159.667 124.8C158.952 126.009 157.867 126.983 156.411 127.723C154.981 128.438 153.155 128.796 150.935 128.796Z" fill="#292C33" fill-opacity="0.8"/>
<path d="M140.092 184V159.58L141.683 161.319H134.246V158.1H143.755V184H140.092ZM149.014 184V181.484L159.559 171.309C160.496 170.421 161.187 169.644 161.631 168.978C162.099 168.287 162.408 167.658 162.556 167.091C162.728 166.499 162.815 165.932 162.815 165.389C162.815 164.057 162.346 163.009 161.409 162.244C160.471 161.479 159.102 161.097 157.302 161.097C155.92 161.097 154.675 161.331 153.565 161.8C152.455 162.244 151.493 162.947 150.679 163.909L148.163 161.726C149.149 160.468 150.469 159.506 152.122 158.84C153.799 158.149 155.637 157.804 157.635 157.804C159.435 157.804 161.002 158.1 162.334 158.692C163.666 159.259 164.689 160.086 165.405 161.171C166.145 162.256 166.515 163.539 166.515 165.019C166.515 165.858 166.404 166.684 166.182 167.498C165.96 168.312 165.54 169.175 164.924 170.088C164.307 171.001 163.419 172.024 162.26 173.159L152.862 182.224L151.974 180.781H167.625V184H149.014Z" fill="#292C33" fill-opacity="0.8"/>
<path d="M139.297 239V214.58L140.888 216.319H133.451V213.1H142.96V239H139.297ZM157.025 212.804C159.368 212.804 161.341 213.31 162.945 214.321C164.573 215.332 165.806 216.8 166.645 218.724C167.483 220.623 167.903 222.954 167.903 225.717C167.903 228.652 167.385 231.131 166.349 233.154C165.313 235.177 163.882 236.706 162.057 237.742C160.231 238.778 158.098 239.296 155.656 239.296C154.447 239.296 153.275 239.173 152.141 238.926C151.031 238.679 150.056 238.297 149.218 237.779L150.624 234.893C151.314 235.337 152.079 235.658 152.918 235.855C153.781 236.028 154.681 236.114 155.619 236.114C158.233 236.114 160.318 235.3 161.872 233.672C163.426 232.019 164.203 229.577 164.203 226.346C164.203 225.828 164.178 225.211 164.129 224.496C164.079 223.781 163.968 223.078 163.796 222.387L165.017 223.645C164.671 224.78 164.092 225.742 163.278 226.531C162.488 227.296 161.526 227.875 160.392 228.27C159.282 228.64 158.061 228.825 156.729 228.825C155.027 228.825 153.51 228.504 152.178 227.863C150.846 227.222 149.797 226.321 149.033 225.162C148.268 223.978 147.886 222.584 147.886 220.981C147.886 219.304 148.28 217.861 149.07 216.652C149.884 215.419 150.981 214.469 152.363 213.803C153.769 213.137 155.323 212.804 157.025 212.804ZM157.173 215.801C156.063 215.801 155.076 216.011 154.213 216.43C153.349 216.849 152.671 217.429 152.178 218.169C151.709 218.909 151.475 219.797 151.475 220.833C151.475 222.362 152.005 223.583 153.066 224.496C154.126 225.384 155.557 225.828 157.358 225.828C158.542 225.828 159.578 225.606 160.466 225.162C161.378 224.718 162.081 224.114 162.575 223.349C163.093 222.584 163.352 221.733 163.352 220.796C163.352 219.883 163.117 219.057 162.649 218.317C162.18 217.577 161.489 216.973 160.577 216.504C159.664 216.035 158.529 215.801 157.173 215.801Z" fill="#292C33" fill-opacity="0.8"/>
<path d="M131.266 297V294.484L141.811 284.309C142.749 283.421 143.439 282.644 143.883 281.978C144.352 281.287 144.66 280.658 144.808 280.091C144.981 279.499 145.067 278.932 145.067 278.389C145.067 277.057 144.599 276.009 143.661 275.244C142.724 274.479 141.355 274.097 139.554 274.097C138.173 274.097 136.927 274.331 135.817 274.8C134.707 275.244 133.745 275.947 132.931 276.909L130.415 274.726C131.402 273.468 132.722 272.506 134.374 271.84C136.052 271.149 137.889 270.804 139.887 270.804C141.688 270.804 143.254 271.1 144.586 271.692C145.918 272.259 146.942 273.086 147.657 274.171C148.397 275.256 148.767 276.539 148.767 278.019C148.767 278.858 148.656 279.684 148.434 280.498C148.212 281.312 147.793 282.175 147.176 283.088C146.56 284.001 145.672 285.024 144.512 286.159L135.114 295.224L134.226 293.781H149.877V297H131.266ZM163.761 297.296C161.467 297.296 159.506 296.79 157.878 295.779C156.25 294.768 155.005 293.312 154.141 291.413C153.303 289.489 152.883 287.146 152.883 284.383C152.883 281.448 153.401 278.969 154.437 276.946C155.473 274.923 156.916 273.394 158.766 272.358C160.616 271.322 162.738 270.804 165.13 270.804C166.364 270.804 167.535 270.927 168.645 271.174C169.78 271.421 170.754 271.803 171.568 272.321L170.162 275.207C169.496 274.738 168.732 274.418 167.868 274.245C167.03 274.072 166.142 273.986 165.204 273.986C162.565 273.986 160.468 274.812 158.914 276.465C157.36 278.093 156.583 280.523 156.583 283.754C156.583 284.272 156.608 284.889 156.657 285.604C156.707 286.319 156.83 287.022 157.027 287.713L155.769 286.455C156.139 285.32 156.719 284.371 157.508 283.606C158.322 282.817 159.284 282.237 160.394 281.867C161.529 281.472 162.75 281.275 164.057 281.275C165.784 281.275 167.313 281.596 168.645 282.237C169.977 282.878 171.026 283.791 171.79 284.975C172.555 286.134 172.937 287.516 172.937 289.119C172.937 290.772 172.53 292.215 171.716 293.448C170.902 294.681 169.805 295.631 168.423 296.297C167.042 296.963 165.488 297.296 163.761 297.296ZM163.613 294.299C164.748 294.299 165.735 294.089 166.573 293.67C167.437 293.251 168.115 292.671 168.608 291.931C169.102 291.166 169.348 290.278 169.348 289.267C169.348 287.738 168.818 286.529 167.757 285.641C166.697 284.728 165.254 284.272 163.428 284.272C162.244 284.272 161.208 284.494 160.32 284.938C159.432 285.382 158.729 285.986 158.211 286.751C157.718 287.491 157.471 288.342 157.471 289.304C157.471 290.192 157.706 291.018 158.174 291.783C158.643 292.523 159.334 293.127 160.246 293.596C161.159 294.065 162.281 294.299 163.613 294.299Z" fill="#292C33" fill-opacity="0.8"/>
<path d="M218.696 128.796C216.402 128.796 214.441 128.29 212.813 127.279C211.185 126.268 209.94 124.812 209.076 122.913C208.238 120.989 207.818 118.646 207.818 115.883C207.818 112.948 208.336 110.469 209.372 108.446C210.408 106.423 211.851 104.894 213.701 103.858C215.551 102.822 217.673 102.304 220.065 102.304C221.299 102.304 222.47 102.427 223.58 102.674C224.715 102.921 225.689 103.303 226.503 103.821L225.097 106.707C224.431 106.238 223.667 105.918 222.803 105.745C221.965 105.572 221.077 105.486 220.139 105.486C217.5 105.486 215.403 106.312 213.849 107.965C212.295 109.593 211.518 112.023 211.518 115.254C211.518 115.772 211.543 116.389 211.592 117.104C211.642 117.819 211.765 118.522 211.962 119.213L210.704 117.955C211.074 116.82 211.654 115.871 212.443 115.106C213.257 114.317 214.219 113.737 215.329 113.367C216.464 112.972 217.685 112.775 218.992 112.775C220.719 112.775 222.248 113.096 223.58 113.737C224.912 114.378 225.961 115.291 226.725 116.475C227.49 117.634 227.872 119.016 227.872 120.619C227.872 122.272 227.465 123.715 226.651 124.948C225.837 126.181 224.74 127.131 223.358 127.797C221.977 128.463 220.423 128.796 218.696 128.796ZM218.548 125.799C219.683 125.799 220.67 125.589 221.508 125.17C222.372 124.751 223.05 124.171 223.543 123.431C224.037 122.666 224.283 121.778 224.283 120.767C224.283 119.238 223.753 118.029 222.692 117.141C221.632 116.228 220.189 115.772 218.363 115.772C217.179 115.772 216.143 115.994 215.255 116.438C214.367 116.882 213.664 117.486 213.146 118.251C212.653 118.991 212.406 119.842 212.406 120.804C212.406 121.692 212.641 122.518 213.109 123.283C213.578 124.023 214.269 124.627 215.181 125.096C216.094 125.565 217.216 125.799 218.548 125.799Z" fill="#292C33" fill-opacity="0.8"/>
<path d="M206.168 184V159.58L207.759 161.319H200.322V158.1H209.831V184H206.168ZM223.414 184.296C221.589 184.296 219.813 184.012 218.086 183.445C216.384 182.878 214.991 182.113 213.905 181.151L215.607 178.228C216.471 179.042 217.593 179.708 218.974 180.226C220.356 180.744 221.836 181.003 223.414 181.003C225.338 181.003 226.831 180.596 227.891 179.782C228.977 178.943 229.519 177.821 229.519 176.415C229.519 175.058 229.001 173.973 227.965 173.159C226.954 172.32 225.338 171.901 223.118 171.901H221.046V169.311L228.742 159.839L229.26 161.319H215.089V158.1H232.183V160.616L224.524 170.051L222.6 168.904H223.821C226.954 168.904 229.297 169.607 230.851 171.013C232.43 172.419 233.219 174.207 233.219 176.378C233.219 177.833 232.862 179.165 232.146 180.374C231.431 181.583 230.346 182.545 228.89 183.26C227.46 183.951 225.634 184.296 223.414 184.296Z" fill="#292C33" fill-opacity="0.8"/>
<path d="M195.885 239V236.484L206.43 226.309C207.367 225.421 208.058 224.644 208.502 223.978C208.971 223.287 209.279 222.658 209.427 222.091C209.6 221.499 209.686 220.932 209.686 220.389C209.686 219.057 209.217 218.009 208.28 217.244C207.343 216.479 205.974 216.097 204.173 216.097C202.792 216.097 201.546 216.331 200.436 216.8C199.326 217.244 198.364 217.947 197.55 218.909L195.034 216.726C196.021 215.468 197.34 214.506 198.993 213.84C200.67 213.149 202.508 212.804 204.506 212.804C206.307 212.804 207.873 213.1 209.205 213.692C210.537 214.259 211.561 215.086 212.276 216.171C213.016 217.256 213.386 218.539 213.386 220.019C213.386 220.858 213.275 221.684 213.053 222.498C212.831 223.312 212.412 224.175 211.795 225.088C211.178 226.001 210.29 227.024 209.131 228.159L199.733 237.224L198.845 235.781H214.496V239H195.885ZM228.084 239.296C226.061 239.296 224.248 238.778 222.645 237.742C221.066 236.706 219.808 235.201 218.871 233.228C217.958 231.255 217.502 228.862 217.502 226.05C217.502 223.238 217.958 220.845 218.871 218.872C219.808 216.899 221.066 215.394 222.645 214.358C224.248 213.322 226.061 212.804 228.084 212.804C230.082 212.804 231.882 213.322 233.486 214.358C235.089 215.394 236.347 216.899 237.26 218.872C238.172 220.845 238.629 223.238 238.629 226.05C238.629 228.862 238.172 231.255 237.26 233.228C236.347 235.201 235.089 236.706 233.486 237.742C231.882 238.778 230.082 239.296 228.084 239.296ZM228.084 236.003C229.44 236.003 230.624 235.633 231.636 234.893C232.672 234.153 233.473 233.043 234.041 231.563C234.633 230.083 234.929 228.245 234.929 226.05C234.929 223.855 234.633 222.017 234.041 220.537C233.473 219.057 232.672 217.947 231.636 217.207C230.624 216.467 229.44 216.097 228.084 216.097C226.727 216.097 225.531 216.467 224.495 217.207C223.459 217.947 222.645 219.057 222.053 220.537C221.485 222.017 221.202 223.855 221.202 226.05C221.202 228.245 221.485 230.083 222.053 231.563C222.645 233.043 223.459 234.153 224.495 234.893C225.531 235.633 226.727 236.003 228.084 236.003Z" fill="#292C33" fill-opacity="0.8"/>
<path d="M197.168 297V294.484L207.713 284.309C208.65 283.421 209.341 282.644 209.785 281.978C210.253 281.287 210.562 280.658 210.71 280.091C210.882 279.499 210.969 278.932 210.969 278.389C210.969 277.057 210.5 276.009 209.563 275.244C208.625 274.479 207.256 274.097 205.456 274.097C204.074 274.097 202.829 274.331 201.719 274.8C200.609 275.244 199.647 275.947 198.833 276.909L196.317 274.726C197.303 273.468 198.623 272.506 200.276 271.84C201.953 271.149 203.791 270.804 205.789 270.804C207.589 270.804 209.156 271.1 210.488 271.692C211.82 272.259 212.843 273.086 213.559 274.171C214.299 275.256 214.669 276.539 214.669 278.019C214.669 278.858 214.558 279.684 214.336 280.498C214.114 281.312 213.694 282.175 213.078 283.088C212.461 284.001 211.573 285.024 210.414 286.159L201.016 295.224L200.128 293.781H215.779V297H197.168ZM223.262 297L234.251 272.654L235.213 274.319H219.821L221.671 272.506V278.944H218.119V271.1H237.655V273.616L227.184 297H223.262Z" fill="#292C33" fill-opacity="0.8"/>
<path d="M265.419 184V159.58L267.01 161.319H259.573V158.1H269.082V184H265.419ZM274.378 177.636V175.046L287.624 158.1H291.62L278.485 175.046L276.598 174.454H297.281V177.636H274.378ZM288.771 184V177.636L288.882 174.454V168.83H292.36V184H288.771Z" fill="#292C33" fill-opacity="0.8"/>
<path d="M262.399 239V236.484L272.944 226.309C273.881 225.421 274.572 224.644 275.016 223.978C275.484 223.287 275.793 222.658 275.941 222.091C276.113 221.499 276.2 220.932 276.2 220.389C276.2 219.057 275.731 218.009 274.794 217.244C273.856 216.479 272.487 216.097 270.687 216.097C269.305 216.097 268.06 216.331 266.95 216.8C265.84 217.244 264.878 217.947 264.064 218.909L261.548 216.726C262.534 215.468 263.854 214.506 265.507 213.84C267.184 213.149 269.022 212.804 271.02 212.804C272.82 212.804 274.387 213.1 275.719 213.692C277.051 214.259 278.074 215.086 278.79 216.171C279.53 217.256 279.9 218.539 279.9 220.019C279.9 220.858 279.789 221.684 279.567 222.498C279.345 223.312 278.925 224.175 278.309 225.088C277.692 226.001 276.804 227.024 275.645 228.159L266.247 237.224L265.359 235.781H281.01V239H262.399ZM288.418 239V214.58L290.009 216.319H282.572V213.1H292.081V239H288.418Z" fill="#292C33" fill-opacity="0.8"/>
<path d="M257.34 297V294.484L267.885 284.309C268.823 283.421 269.513 282.644 269.957 281.978C270.426 281.287 270.734 280.658 270.882 280.091C271.055 279.499 271.141 278.932 271.141 278.389C271.141 277.057 270.673 276.009 269.735 275.244C268.798 274.479 267.429 274.097 265.628 274.097C264.247 274.097 263.001 274.331 261.891 274.8C260.781 275.244 259.819 275.947 259.005 276.909L256.489 274.726C257.476 273.468 258.796 272.506 260.448 271.84C262.126 271.149 263.963 270.804 265.961 270.804C267.762 270.804 269.328 271.1 270.66 271.692C271.992 272.259 273.016 273.086 273.731 274.171C274.471 275.256 274.841 276.539 274.841 278.019C274.841 278.858 274.73 279.684 274.508 280.498C274.286 281.312 273.867 282.175 273.25 283.088C272.634 284.001 271.746 285.024 270.586 286.159L261.188 295.224L260.3 293.781H275.951V297H257.34ZM289.094 297.296C286.998 297.296 285.185 296.988 283.655 296.371C282.126 295.754 280.942 294.879 280.103 293.744C279.265 292.585 278.845 291.228 278.845 289.674C278.845 288.145 279.24 286.85 280.029 285.789C280.843 284.704 282.015 283.89 283.544 283.347C285.074 282.78 286.924 282.496 289.094 282.496C291.265 282.496 293.115 282.78 294.644 283.347C296.198 283.89 297.382 284.704 298.196 285.789C299.01 286.874 299.417 288.169 299.417 289.674C299.417 291.228 298.998 292.585 298.159 293.744C297.321 294.879 296.124 295.754 294.57 296.371C293.016 296.988 291.191 297.296 289.094 297.296ZM289.094 294.299C291.166 294.299 292.782 293.88 293.941 293.041C295.125 292.178 295.717 291.018 295.717 289.563C295.717 288.132 295.125 287.01 293.941 286.196C292.782 285.357 291.166 284.938 289.094 284.938C287.047 284.938 285.444 285.357 284.284 286.196C283.125 287.01 282.545 288.132 282.545 289.563C282.545 291.018 283.125 292.178 284.284 293.041C285.444 293.88 287.047 294.299 289.094 294.299ZM289.094 284.494C287.121 284.494 285.444 284.235 284.062 283.717C282.681 283.174 281.62 282.41 280.88 281.423C280.14 280.412 279.77 279.215 279.77 277.834C279.77 276.379 280.153 275.133 280.917 274.097C281.707 273.036 282.804 272.222 284.21 271.655C285.616 271.088 287.244 270.804 289.094 270.804C290.969 270.804 292.609 271.088 294.015 271.655C295.421 272.222 296.519 273.036 297.308 274.097C298.098 275.133 298.492 276.379 298.492 277.834C298.492 279.215 298.122 280.412 297.382 281.423C296.642 282.41 295.569 283.174 294.163 283.717C292.757 284.235 291.068 284.494 289.094 284.494ZM289.094 282.126C290.895 282.126 292.301 281.756 293.312 281.016C294.348 280.276 294.866 279.265 294.866 277.982C294.866 276.675 294.336 275.651 293.275 274.911C292.215 274.171 290.821 273.801 289.094 273.801C287.368 273.801 285.986 274.171 284.95 274.911C283.939 275.651 283.433 276.675 283.433 277.982C283.433 279.265 283.927 280.276 284.913 281.016C285.925 281.756 287.318 282.126 289.094 282.126Z" fill="#292C33" fill-opacity="0.8"/>
<path d="M273.696 128.5L284.685 104.154L285.647 105.819H270.255L272.105 104.006V110.444H268.553V102.6H288.089V105.116L277.618 128.5H273.696Z" fill="#292C33" fill-opacity="0.8"/>
</g>
<defs>
<clipPath id="clip0_525_2619">
<rect width="431" height="362" fill="white"/>
</clipPath>
</defs>
</svg>
