<svg width="431" height="363" viewBox="0 0 431 363" fill="none" xmlns="http://www.w3.org/2000/svg">
<g clip-path="url(#clip0_1035_4885)">
<rect width="57" height="47" transform="translate(-8 151)" fill="#E4793D"/>
<mask id="mask0_1035_4885" style="mask-type:luminance" maskUnits="userSpaceOnUse" x="0" y="0" width="431" height="363">
<path d="M431 0.5H0V362.5H431V0.5Z" fill="white"/>
</mask>
<g mask="url(#mask0_1035_4885)">
<path d="M22.9564 21.2264H20.3476V3.86139H10.8906V21.2264H8.2002V1.82324H22.8749V21.2264H22.9564Z" fill="#B3B3B3"/>
<path d="M38.7725 21.2263H36.1636V15.1118H29.7231V21.2263H27.1143V6.79614H29.7231V13.0737H36.1636V6.79614H38.7725V21.2263Z" fill="#B3B3B3"/>
<path d="M73 21.2264V1.82324H79.359C81.3972 1.82324 82.9462 2.23087 84.0875 3.12766C85.2289 4.02444 85.7996 5.32886 85.7996 7.0409C85.7996 7.85616 85.555 8.58989 85.0658 9.32363C84.5767 10.0574 83.8429 10.465 83.0277 10.7911C84.3321 10.9541 85.3104 11.5248 86.0441 12.4216C86.7779 13.3184 87.1855 14.4598 87.1855 15.6826C87.1855 17.4762 86.6148 18.7806 85.4735 19.7589C84.3321 20.7373 82.7831 21.1449 80.745 21.1449H73V21.2264ZM75.6904 10.0574H79.9297C80.908 10.0574 81.7233 9.81278 82.294 9.2421C82.9462 8.67142 83.1907 7.93769 83.1907 6.95937C83.1907 5.89954 82.8646 5.1658 82.2124 4.59512C81.5602 4.10597 80.5819 3.77986 79.359 3.77986H75.6904V10.0574ZM75.6904 12.0955V19.1067H80.745C81.9678 19.1067 82.8646 18.7806 83.5168 18.21C84.1691 17.6393 84.4952 16.7425 84.4952 15.6826C84.4952 14.6228 84.1691 13.726 83.5168 13.0738C82.8646 12.4216 81.9678 12.0955 80.745 12.014H80.5819H75.6904V12.0955Z" fill="#B3B3B3"/>
<path d="M101.126 8.83429H96.3976V21.2263H93.7888V8.83429H89.0603V6.79614H101.126V8.83429Z" fill="#B3B3B3"/>
<path d="M150.512 15.0304C150.593 16.9055 149.941 18.4545 148.637 19.6773C147.332 20.9002 145.62 21.5524 143.419 21.5524C141.218 21.5524 139.424 20.7372 138.038 19.1882C136.652 17.6392 136 15.6826 136 13.2368V9.81271C136 7.44846 136.652 5.41031 138.038 3.86132C139.424 2.31233 141.218 1.49707 143.419 1.49707C145.62 1.49707 147.332 2.06775 148.637 3.20911C149.941 4.35048 150.593 5.89947 150.512 7.85609V7.93762H147.984C147.984 6.55168 147.577 5.49184 146.761 4.67658C145.946 3.86132 144.805 3.45369 143.337 3.45369C141.87 3.45369 140.729 4.02437 139.832 5.24726C138.935 6.38862 138.527 7.85609 138.527 9.64966V13.1553C138.527 14.9488 138.935 16.4163 139.832 17.5577C140.729 18.699 141.87 19.3512 143.337 19.3512C144.805 19.3512 145.946 18.9436 146.761 18.2099C147.577 17.3946 147.984 16.3348 147.984 14.9488H150.512V15.0304Z" fill="#B3B3B3"/>
<path d="M165.92 14.5413C165.92 16.661 165.431 18.2915 164.453 19.5959C163.474 20.9003 162.088 21.471 160.295 21.471C159.398 21.471 158.664 21.3079 157.93 21.0634C157.278 20.7373 156.708 20.3296 156.218 19.7589V26.7702H153.61V6.79634H155.648L156.055 8.67144C156.545 7.9377 157.115 7.44855 157.849 7.12244C158.583 6.79634 159.398 6.55176 160.295 6.55176C162.088 6.55176 163.474 7.2855 164.453 8.67144C165.431 10.0574 165.92 11.9325 165.92 14.2967V14.5413ZM163.311 14.2967C163.311 12.6662 162.985 11.2802 162.333 10.3019C161.681 9.32364 160.702 8.75296 159.479 8.75296C158.746 8.75296 158.094 8.91601 157.523 9.24212C156.952 9.56822 156.545 10.0574 156.218 10.628V17.6393C156.545 18.2099 156.952 18.6991 157.523 19.0252C158.094 19.3513 158.746 19.5144 159.479 19.5144C160.702 19.5144 161.681 19.0252 162.333 18.1284C162.985 17.2316 163.311 16.0087 163.311 14.6228V14.2967Z" fill="#B3B3B3"/>
<path d="M215.43 1.82324V21.2264H212.821V13.1553C212.006 13.3999 211.191 13.563 210.375 13.726C209.56 13.8076 208.663 13.8891 207.522 13.8891C205.402 13.8891 203.772 13.3999 202.631 12.5031C201.489 11.6064 201 10.0574 201 7.93769V1.82324H203.609V7.93769C203.609 9.40515 203.935 10.3835 204.506 10.9541C205.158 11.5248 206.136 11.7694 207.441 11.7694C208.337 11.7694 209.234 11.6879 210.131 11.6064C210.946 11.4433 211.843 11.2802 212.74 11.0357V1.82324H215.43Z" fill="#B3B3B3"/>
<path d="M230.675 8.83429H225.947V21.2263H223.338V8.83429H218.61V6.79614H230.675V8.83429Z" fill="#B3B3B3"/>
<path d="M279.675 21.2264H277.066V3.86139H267.609V21.2264H265V1.82324H279.675V21.2264Z" fill="#B3B3B3"/>
<path d="M294.92 8.83453H290.192V21.2265H287.583V8.83453H282.854V6.79639H294.92V8.83453Z" fill="#B3B3B3"/>
<path d="M344.512 15.0301C344.593 16.9052 343.941 18.4542 342.637 19.6771C341.332 20.9 339.62 21.5522 337.419 21.5522C335.218 21.5522 333.424 20.7369 332.038 19.1879C330.652 17.6389 330 15.6823 330 13.2365V9.81246C330 7.44821 330.652 5.41007 332.038 3.86107C333.424 2.31208 335.218 1.49683 337.419 1.49683C339.62 1.49683 341.332 2.0675 342.637 3.20887C343.941 4.35023 344.593 5.89922 344.512 7.85584V7.93737H341.984C341.984 6.55143 341.577 5.49159 340.761 4.67633C339.946 3.86107 338.805 3.45344 337.337 3.45344C335.87 3.45344 334.729 4.02413 333.832 5.24701C332.935 6.38838 332.527 7.85584 332.527 9.64941V13.155C332.527 14.9486 332.935 16.416 333.832 17.5574C334.729 18.6988 335.87 19.351 337.337 19.351C338.805 19.351 339.946 18.9433 340.761 18.2096C341.577 17.3944 341.984 16.3345 341.984 14.9486H344.512V15.0301Z" fill="#B3B3B3"/>
<path d="M353.887 6.55149C355.762 6.55149 357.148 7.2037 358.208 8.58964C359.268 9.97558 359.838 11.6876 359.838 13.8888V14.2149C359.838 16.3346 359.268 18.1282 358.126 19.5141C356.985 20.9 355.436 21.5523 353.398 21.5523C351.36 21.5523 349.811 20.9 348.669 19.5141C347.528 18.1282 346.957 16.4161 346.957 14.2149V13.8888C346.957 13.8073 346.957 13.7258 346.957 13.7258C346.957 13.6442 346.957 13.6442 346.957 13.5627V10.4647C346.957 7.69285 347.528 5.73623 348.588 4.43182C349.648 3.1274 351.278 2.47519 353.398 2.31214C354.621 2.23062 355.599 2.06756 356.251 1.82299C356.903 1.57841 357.23 1.17078 357.23 0.600098H359.268V0.681624C359.349 2.06756 358.86 3.04587 357.882 3.61656C356.903 4.18724 355.517 4.51334 353.642 4.51334C352.256 4.51334 351.197 4.92097 350.381 5.6547C349.566 6.38844 349.158 7.44827 349.158 8.83421V8.91574C349.648 8.26353 350.381 7.69285 351.197 7.28522C352.012 6.87759 352.99 6.55149 353.887 6.55149ZM353.398 8.58964C352.175 8.58964 351.197 9.07879 350.544 10.0571C349.892 11.0354 349.566 12.3398 349.566 13.8073V14.1334C349.566 15.6824 349.892 16.9053 350.544 17.8836C351.197 18.8619 352.175 19.3511 353.398 19.3511C354.621 19.3511 355.599 18.8619 356.251 17.8836C356.903 16.9053 357.23 15.6009 357.23 14.1334V13.8073C357.23 12.2583 356.903 11.0354 356.251 10.0571C355.599 9.07879 354.621 8.58964 353.398 8.58964Z" fill="#B3B3B3"/>
<path d="M394 21.2264V1.82324H400.359C402.397 1.82324 403.946 2.23087 405.088 3.12766C406.229 4.02444 406.8 5.32886 406.8 7.0409C406.8 7.85616 406.555 8.58989 406.066 9.32363C405.577 10.0574 404.843 10.465 404.028 10.8726C405.332 11.0357 406.31 11.6064 407.044 12.5031C407.778 13.3999 408.186 14.5413 408.186 15.7642C408.186 17.5577 407.615 18.8622 406.473 19.8405C405.332 20.8188 403.783 21.2264 401.745 21.2264H394ZM396.69 10.0574H400.93C401.908 10.0574 402.723 9.81278 403.294 9.2421C403.946 8.67142 404.191 7.93769 404.191 6.95937C404.191 5.89954 403.865 5.1658 403.212 4.59512C402.56 4.10597 401.582 3.77986 400.359 3.77986H396.69V10.0574ZM396.69 12.0955V19.1067H401.745C402.968 19.1067 403.865 18.7806 404.517 18.21C405.169 17.6393 405.495 16.7425 405.495 15.6826C405.495 14.6228 405.169 13.726 404.517 13.0738C403.865 12.4216 402.968 12.0955 401.745 12.014H401.582H396.69V12.0955Z" fill="#B3B3B3"/>
<path d="M416.745 19.4326C417.561 19.4326 418.294 19.1881 418.865 18.6174C419.436 18.0467 419.762 17.3945 419.762 16.6608H422.126V16.7423C422.126 17.9652 421.637 19.1065 420.496 20.0848C419.354 21.0632 418.131 21.5523 416.664 21.5523C414.626 21.5523 413.077 20.9001 411.935 19.5142C410.794 18.1282 410.305 16.4162 410.305 14.378V13.8073C410.305 11.7692 410.876 10.0571 411.935 8.6712C413.077 7.28526 414.626 6.63306 416.582 6.63306C418.213 6.63306 419.517 7.12221 420.496 8.10052C421.474 9.07883 422.045 10.3017 421.963 11.7692V11.8507H419.599C419.599 10.9539 419.273 10.2202 418.702 9.56799C418.131 8.91578 417.398 8.6712 416.501 8.6712C415.196 8.6712 414.3 9.16036 413.647 10.1387C413.077 11.117 412.751 12.3399 412.751 13.8073V14.378C412.751 15.8455 413.077 17.0684 413.647 18.0467C414.544 18.9435 415.441 19.4326 416.745 19.4326Z" fill="#B3B3B3"/>
<path d="M22.9564 21.2264H20.3476V3.86139H10.8906V21.2264H8.2002V1.82324H22.8749V21.2264H22.9564Z" fill="#B3B3B3"/>
<path d="M38.7725 21.2263H36.1636V15.1118H29.7231V21.2263H27.1143V6.79614H29.7231V13.0737H36.1636V6.79614H38.7725V21.2263Z" fill="#B3B3B3"/>
<path d="M73 21.2264V1.82324H79.359C81.3972 1.82324 82.9462 2.23087 84.0875 3.12766C85.2289 4.02444 85.7996 5.32886 85.7996 7.0409C85.7996 7.85616 85.555 8.58989 85.0658 9.32363C84.5767 10.0574 83.8429 10.465 83.0277 10.7911C84.3321 10.9541 85.3104 11.5248 86.0441 12.4216C86.7779 13.3184 87.1855 14.4598 87.1855 15.6826C87.1855 17.4762 86.6148 18.7806 85.4735 19.7589C84.3321 20.7373 82.7831 21.1449 80.745 21.1449H73V21.2264ZM75.6904 10.0574H79.9297C80.908 10.0574 81.7233 9.81278 82.294 9.2421C82.9462 8.67142 83.1907 7.93769 83.1907 6.95937C83.1907 5.89954 82.8646 5.1658 82.2124 4.59512C81.5602 4.10597 80.5819 3.77986 79.359 3.77986H75.6904V10.0574ZM75.6904 12.0955V19.1067H80.745C81.9678 19.1067 82.8646 18.7806 83.5168 18.21C84.1691 17.6393 84.4952 16.7425 84.4952 15.6826C84.4952 14.6228 84.1691 13.726 83.5168 13.0738C82.8646 12.4216 81.9678 12.0955 80.745 12.014H80.5819H75.6904V12.0955Z" fill="#B3B3B3"/>
<path d="M101.126 8.83429H96.3976V21.2263H93.7888V8.83429H89.0603V6.79614H101.126V8.83429Z" fill="#B3B3B3"/>
<path d="M150.512 15.0304C150.593 16.9055 149.941 18.4545 148.637 19.6773C147.332 20.9002 145.62 21.5524 143.419 21.5524C141.218 21.5524 139.424 20.7372 138.038 19.1882C136.652 17.6392 136 15.6826 136 13.2368V9.81271C136 7.44846 136.652 5.41031 138.038 3.86132C139.424 2.31233 141.218 1.49707 143.419 1.49707C145.62 1.49707 147.332 2.06775 148.637 3.20911C149.941 4.35048 150.593 5.89947 150.512 7.85609V7.93762H147.984C147.984 6.55168 147.577 5.49184 146.761 4.67658C145.946 3.86132 144.805 3.45369 143.337 3.45369C141.87 3.45369 140.729 4.02437 139.832 5.24726C138.935 6.38862 138.527 7.85609 138.527 9.64966V13.1553C138.527 14.9488 138.935 16.4163 139.832 17.5577C140.729 18.699 141.87 19.3512 143.337 19.3512C144.805 19.3512 145.946 18.9436 146.761 18.2099C147.577 17.3946 147.984 16.3348 147.984 14.9488H150.512V15.0304Z" fill="#B3B3B3"/>
<path d="M165.92 14.5413C165.92 16.661 165.431 18.2915 164.453 19.5959C163.474 20.9003 162.088 21.471 160.295 21.471C159.398 21.471 158.664 21.3079 157.93 21.0634C157.278 20.7373 156.708 20.3296 156.218 19.7589V26.7702H153.61V6.79634H155.648L156.055 8.67144C156.545 7.9377 157.115 7.44855 157.849 7.12244C158.583 6.79634 159.398 6.55176 160.295 6.55176C162.088 6.55176 163.474 7.2855 164.453 8.67144C165.431 10.0574 165.92 11.9325 165.92 14.2967V14.5413ZM163.311 14.2967C163.311 12.6662 162.985 11.2802 162.333 10.3019C161.681 9.32364 160.702 8.75296 159.479 8.75296C158.746 8.75296 158.094 8.91601 157.523 9.24212C156.952 9.56822 156.545 10.0574 156.218 10.628V17.6393C156.545 18.2099 156.952 18.6991 157.523 19.0252C158.094 19.3513 158.746 19.5144 159.479 19.5144C160.702 19.5144 161.681 19.0252 162.333 18.1284C162.985 17.2316 163.311 16.0087 163.311 14.6228V14.2967Z" fill="#B3B3B3"/>
<path d="M215.43 1.82324V21.2264H212.821V13.1553C212.006 13.3999 211.191 13.563 210.375 13.726C209.56 13.8076 208.663 13.8891 207.522 13.8891C205.402 13.8891 203.772 13.3999 202.631 12.5031C201.489 11.6064 201 10.0574 201 7.93769V1.82324H203.609V7.93769C203.609 9.40515 203.935 10.3835 204.506 10.9541C205.158 11.5248 206.136 11.7694 207.441 11.7694C208.337 11.7694 209.234 11.6879 210.131 11.6064C210.946 11.4433 211.843 11.2802 212.74 11.0357V1.82324H215.43Z" fill="#B3B3B3"/>
<path d="M230.675 8.83429H225.947V21.2263H223.338V8.83429H218.61V6.79614H230.675V8.83429Z" fill="#B3B3B3"/>
<path d="M279.675 21.2264H277.066V3.86139H267.609V21.2264H265V1.82324H279.675V21.2264Z" fill="#B3B3B3"/>
<path d="M294.92 8.83453H290.192V21.2265H287.583V8.83453H282.854V6.79639H294.92V8.83453Z" fill="#B3B3B3"/>
<path d="M344.512 15.0301C344.593 16.9052 343.941 18.4542 342.637 19.6771C341.332 20.9 339.62 21.5522 337.419 21.5522C335.218 21.5522 333.424 20.7369 332.038 19.1879C330.652 17.6389 330 15.6823 330 13.2365V9.81246C330 7.44821 330.652 5.41007 332.038 3.86107C333.424 2.31208 335.218 1.49683 337.419 1.49683C339.62 1.49683 341.332 2.0675 342.637 3.20887C343.941 4.35023 344.593 5.89922 344.512 7.85584V7.93737H341.984C341.984 6.55143 341.577 5.49159 340.761 4.67633C339.946 3.86107 338.805 3.45344 337.337 3.45344C335.87 3.45344 334.729 4.02413 333.832 5.24701C332.935 6.38838 332.527 7.85584 332.527 9.64941V13.155C332.527 14.9486 332.935 16.416 333.832 17.5574C334.729 18.6988 335.87 19.351 337.337 19.351C338.805 19.351 339.946 18.9433 340.761 18.2096C341.577 17.3944 341.984 16.3345 341.984 14.9486H344.512V15.0301Z" fill="#B3B3B3"/>
<path d="M353.887 6.55149C355.762 6.55149 357.148 7.2037 358.208 8.58964C359.268 9.97558 359.838 11.6876 359.838 13.8888V14.2149C359.838 16.3346 359.268 18.1282 358.126 19.5141C356.985 20.9 355.436 21.5523 353.398 21.5523C351.36 21.5523 349.811 20.9 348.669 19.5141C347.528 18.1282 346.957 16.4161 346.957 14.2149V13.8888C346.957 13.8073 346.957 13.7258 346.957 13.7258C346.957 13.6442 346.957 13.6442 346.957 13.5627V10.4647C346.957 7.69285 347.528 5.73623 348.588 4.43182C349.648 3.1274 351.278 2.47519 353.398 2.31214C354.621 2.23062 355.599 2.06756 356.251 1.82299C356.903 1.57841 357.23 1.17078 357.23 0.600098H359.268V0.681624C359.349 2.06756 358.86 3.04587 357.882 3.61656C356.903 4.18724 355.517 4.51334 353.642 4.51334C352.256 4.51334 351.197 4.92097 350.381 5.6547C349.566 6.38844 349.158 7.44827 349.158 8.83421V8.91574C349.648 8.26353 350.381 7.69285 351.197 7.28522C352.012 6.87759 352.99 6.55149 353.887 6.55149ZM353.398 8.58964C352.175 8.58964 351.197 9.07879 350.544 10.0571C349.892 11.0354 349.566 12.3398 349.566 13.8073V14.1334C349.566 15.6824 349.892 16.9053 350.544 17.8836C351.197 18.8619 352.175 19.3511 353.398 19.3511C354.621 19.3511 355.599 18.8619 356.251 17.8836C356.903 16.9053 357.23 15.6009 357.23 14.1334V13.8073C357.23 12.2583 356.903 11.0354 356.251 10.0571C355.599 9.07879 354.621 8.58964 353.398 8.58964Z" fill="#B3B3B3"/>
<path d="M394 21.2264V1.82324H400.359C402.397 1.82324 403.946 2.23087 405.088 3.12766C406.229 4.02444 406.8 5.32886 406.8 7.0409C406.8 7.85616 406.555 8.58989 406.066 9.32363C405.577 10.0574 404.843 10.465 404.028 10.8726C405.332 11.0357 406.31 11.6064 407.044 12.5031C407.778 13.3999 408.186 14.5413 408.186 15.7642C408.186 17.5577 407.615 18.8622 406.473 19.8405C405.332 20.8188 403.783 21.2264 401.745 21.2264H394ZM396.69 10.0574H400.93C401.908 10.0574 402.723 9.81278 403.294 9.2421C403.946 8.67142 404.191 7.93769 404.191 6.95937C404.191 5.89954 403.865 5.1658 403.212 4.59512C402.56 4.10597 401.582 3.77986 400.359 3.77986H396.69V10.0574ZM396.69 12.0955V19.1067H401.745C402.968 19.1067 403.865 18.7806 404.517 18.21C405.169 17.6393 405.495 16.7425 405.495 15.6826C405.495 14.6228 405.169 13.726 404.517 13.0738C403.865 12.4216 402.968 12.0955 401.745 12.014H401.582H396.69V12.0955Z" fill="#B3B3B3"/>
<path d="M416.745 19.4326C417.561 19.4326 418.294 19.1881 418.865 18.6174C419.436 18.0467 419.762 17.3945 419.762 16.6608H422.126V16.7423C422.126 17.9652 421.637 19.1065 420.496 20.0848C419.354 21.0632 418.131 21.5523 416.664 21.5523C414.626 21.5523 413.077 20.9001 411.935 19.5142C410.794 18.1282 410.305 16.4162 410.305 14.378V13.8073C410.305 11.7692 410.876 10.0571 411.935 8.6712C413.077 7.28526 414.626 6.63306 416.582 6.63306C418.213 6.63306 419.517 7.12221 420.496 8.10052C421.474 9.07883 422.045 10.3017 421.963 11.7692V11.8507H419.599C419.599 10.9539 419.273 10.2202 418.702 9.56799C418.131 8.91578 417.398 8.6712 416.501 8.6712C415.196 8.6712 414.3 9.16036 413.647 10.1387C413.077 11.117 412.751 12.3399 412.751 13.8073V14.378C412.751 15.8455 413.077 17.0684 413.647 18.0467C414.544 18.9435 415.441 19.4326 416.745 19.4326Z" fill="#B3B3B3"/>
<path d="M343.795 78.5001V54.0801L345.386 55.8191H337.949V52.6001H347.458V78.5001H343.795Z" fill="#292C33" fill-opacity="0.8"/>
<path d="M344.471 129.296C342.375 129.296 340.562 128.988 339.032 128.371C337.503 127.754 336.319 126.879 335.48 125.744C334.642 124.585 334.222 123.228 334.222 121.674C334.222 120.145 334.617 118.85 335.406 117.789C336.22 116.704 337.392 115.89 338.921 115.347C340.451 114.78 342.301 114.496 344.471 114.496C346.642 114.496 348.492 114.78 350.021 115.347C351.575 115.89 352.759 116.704 353.573 117.789C354.387 118.874 354.794 120.169 354.794 121.674C354.794 123.228 354.375 124.585 353.536 125.744C352.698 126.879 351.501 127.754 349.947 128.371C348.393 128.988 346.568 129.296 344.471 129.296ZM344.471 126.299C346.543 126.299 348.159 125.88 349.318 125.041C350.502 124.178 351.094 123.018 351.094 121.563C351.094 120.132 350.502 119.01 349.318 118.196C348.159 117.357 346.543 116.938 344.471 116.938C342.424 116.938 340.821 117.357 339.661 118.196C338.502 119.01 337.922 120.132 337.922 121.563C337.922 123.018 338.502 124.178 339.661 125.041C340.821 125.88 342.424 126.299 344.471 126.299ZM344.471 116.494C342.498 116.494 340.821 116.235 339.439 115.717C338.058 115.174 336.997 114.41 336.257 113.423C335.517 112.412 335.147 111.215 335.147 109.834C335.147 108.379 335.53 107.133 336.294 106.097C337.084 105.036 338.181 104.222 339.587 103.655C340.993 103.088 342.621 102.804 344.471 102.804C346.346 102.804 347.986 103.088 349.392 103.655C350.798 104.222 351.896 105.036 352.685 106.097C353.475 107.133 353.869 108.379 353.869 109.834C353.869 111.215 353.499 112.412 352.759 113.423C352.019 114.41 350.946 115.174 349.54 115.717C348.134 116.235 346.445 116.494 344.471 116.494ZM344.471 114.126C346.272 114.126 347.678 113.756 348.689 113.016C349.725 112.276 350.243 111.265 350.243 109.982C350.243 108.675 349.713 107.651 348.652 106.911C347.592 106.171 346.198 105.801 344.471 105.801C342.745 105.801 341.363 106.171 340.327 106.911C339.316 107.651 338.81 108.675 338.81 109.982C338.81 111.265 339.304 112.276 340.29 113.016C341.302 113.756 342.695 114.126 344.471 114.126Z" fill="#292C33" fill-opacity="0.8"/>
<path d="M333.172 187V162.58L334.763 164.319H327.326V161.1H336.835V187H333.172ZM350.862 187.296C349.037 187.296 347.261 187.012 345.534 186.445C343.832 185.878 342.438 185.113 341.353 184.151L343.055 181.228C343.918 182.042 345.041 182.708 346.422 183.226C347.803 183.744 349.271 184.003 350.825 184.003C352.798 184.003 354.315 183.584 355.376 182.745C356.437 181.906 356.967 180.784 356.967 179.378C356.967 178.416 356.733 177.577 356.264 176.862C355.795 176.147 354.981 175.604 353.822 175.234C352.687 174.839 351.121 174.642 349.123 174.642H343.24L344.609 161.1H359.224V164.319H345.978L347.902 162.506L346.829 173.199L344.905 171.423H349.9C352.49 171.423 354.574 171.756 356.153 172.422C357.732 173.088 358.879 174.013 359.594 175.197C360.309 176.356 360.667 177.701 360.667 179.23C360.667 180.71 360.309 182.067 359.594 183.3C358.879 184.509 357.793 185.483 356.338 186.223C354.907 186.938 353.082 187.296 350.862 187.296Z" fill="#292C33" fill-opacity="0.8"/>
<path d="M324.623 245V242.484L335.168 232.309C336.105 231.421 336.796 230.644 337.24 229.978C337.709 229.287 338.017 228.658 338.165 228.091C338.338 227.499 338.424 226.932 338.424 226.389C338.424 225.057 337.955 224.009 337.018 223.244C336.081 222.479 334.712 222.097 332.911 222.097C331.53 222.097 330.284 222.331 329.174 222.8C328.064 223.244 327.102 223.947 326.288 224.909L323.772 222.726C324.759 221.468 326.078 220.506 327.731 219.84C329.408 219.149 331.246 218.804 333.244 218.804C335.045 218.804 336.611 219.1 337.943 219.692C339.275 220.259 340.299 221.086 341.014 222.171C341.754 223.256 342.124 224.539 342.124 226.019C342.124 226.858 342.013 227.684 341.791 228.498C341.569 229.312 341.15 230.175 340.533 231.088C339.916 232.001 339.028 233.024 337.869 234.159L328.471 243.224L327.583 241.781H343.234V245H324.623ZM345.869 245V242.484L356.414 232.309C357.351 231.421 358.042 230.644 358.486 229.978C358.955 229.287 359.263 228.658 359.411 228.091C359.584 227.499 359.67 226.932 359.67 226.389C359.67 225.057 359.201 224.009 358.264 223.244C357.327 222.479 355.958 222.097 354.157 222.097C352.776 222.097 351.53 222.331 350.42 222.8C349.31 223.244 348.348 223.947 347.534 224.909L345.018 222.726C346.005 221.468 347.324 220.506 348.977 219.84C350.654 219.149 352.492 218.804 354.49 218.804C356.291 218.804 357.857 219.1 359.189 219.692C360.521 220.259 361.545 221.086 362.26 222.171C363 223.256 363.37 224.539 363.37 226.019C363.37 226.858 363.259 227.684 363.037 228.498C362.815 229.312 362.396 230.175 361.779 231.088C361.162 232.001 360.274 233.024 359.115 234.159L349.717 243.224L348.829 241.781H364.48V245H345.869Z" fill="#292C33" fill-opacity="0.8"/>
<path d="M323.828 303V300.484L334.373 290.309C335.31 289.421 336.001 288.644 336.445 287.978C336.914 287.287 337.222 286.658 337.37 286.091C337.543 285.499 337.629 284.932 337.629 284.389C337.629 283.057 337.16 282.009 336.223 281.244C335.286 280.479 333.917 280.097 332.116 280.097C330.735 280.097 329.489 280.331 328.379 280.8C327.269 281.244 326.307 281.947 325.493 282.909L322.977 280.726C323.964 279.468 325.283 278.506 326.936 277.84C328.613 277.149 330.451 276.804 332.449 276.804C334.25 276.804 335.816 277.1 337.148 277.692C338.48 278.259 339.504 279.086 340.219 280.171C340.959 281.256 341.329 282.539 341.329 284.019C341.329 284.858 341.218 285.684 340.996 286.498C340.774 287.312 340.355 288.175 339.738 289.088C339.121 290.001 338.233 291.024 337.074 292.159L327.676 301.224L326.788 299.781H342.439V303H323.828ZM353.88 276.804C356.223 276.804 358.197 277.31 359.8 278.321C361.428 279.332 362.661 280.8 363.5 282.724C364.339 284.623 364.758 286.954 364.758 289.717C364.758 292.652 364.24 295.131 363.204 297.154C362.168 299.177 360.737 300.706 358.912 301.742C357.087 302.778 354.953 303.296 352.511 303.296C351.302 303.296 350.131 303.173 348.996 302.926C347.886 302.679 346.912 302.297 346.073 301.779L347.479 298.893C348.17 299.337 348.934 299.658 349.773 299.855C350.636 300.028 351.537 300.114 352.474 300.114C355.089 300.114 357.173 299.3 358.727 297.672C360.281 296.019 361.058 293.577 361.058 290.346C361.058 289.828 361.033 289.211 360.984 288.496C360.935 287.781 360.824 287.078 360.651 286.387L361.872 287.645C361.527 288.78 360.947 289.742 360.133 290.531C359.344 291.296 358.382 291.875 357.247 292.27C356.137 292.64 354.916 292.825 353.584 292.825C351.882 292.825 350.365 292.504 349.033 291.863C347.701 291.222 346.653 290.321 345.888 289.162C345.123 287.978 344.741 286.584 344.741 284.981C344.741 283.304 345.136 281.861 345.925 280.652C346.739 279.419 347.837 278.469 349.218 277.803C350.624 277.137 352.178 276.804 353.88 276.804ZM354.028 279.801C352.918 279.801 351.931 280.011 351.068 280.43C350.205 280.849 349.526 281.429 349.033 282.169C348.564 282.909 348.33 283.797 348.33 284.833C348.33 286.362 348.86 287.583 349.921 288.496C350.982 289.384 352.412 289.828 354.213 289.828C355.397 289.828 356.433 289.606 357.321 289.162C358.234 288.718 358.937 288.114 359.43 287.349C359.948 286.584 360.207 285.733 360.207 284.796C360.207 283.883 359.973 283.057 359.504 282.317C359.035 281.577 358.345 280.973 357.432 280.504C356.519 280.035 355.385 279.801 354.028 279.801Z" fill="#292C33" fill-opacity="0.8"/>
<path d="M399.246 78.5V75.984L409.791 65.809C410.728 64.921 411.419 64.144 411.863 63.478C412.332 62.7873 412.64 62.1583 412.788 61.591C412.961 60.999 413.047 60.4317 413.047 59.889C413.047 58.557 412.578 57.5087 411.641 56.744C410.704 55.9793 409.335 55.597 407.534 55.597C406.153 55.597 404.907 55.8313 403.797 56.3C402.687 56.744 401.725 57.447 400.911 58.409L398.395 56.226C399.382 54.968 400.701 54.006 402.354 53.34C404.031 52.6493 405.869 52.304 407.867 52.304C409.668 52.304 411.234 52.6 412.566 53.192C413.898 53.7593 414.922 54.5857 415.637 55.671C416.377 56.7563 416.747 58.039 416.747 59.519C416.747 60.3577 416.636 61.184 416.414 61.998C416.192 62.812 415.773 63.6753 415.156 64.588C414.539 65.5007 413.651 66.5243 412.492 67.659L403.094 76.724L402.206 75.281H417.857V78.5H399.246Z" fill="#292C33" fill-opacity="0.8"/>
<path d="M407.257 102.804C409.6 102.804 411.574 103.31 413.177 104.321C414.805 105.332 416.038 106.8 416.877 108.724C417.716 110.623 418.135 112.954 418.135 115.717C418.135 118.652 417.617 121.131 416.581 123.154C415.545 125.177 414.114 126.706 412.289 127.742C410.464 128.778 408.33 129.296 405.888 129.296C404.679 129.296 403.508 129.173 402.373 128.926C401.263 128.679 400.289 128.297 399.45 127.779L400.856 124.893C401.547 125.337 402.311 125.658 403.15 125.855C404.013 126.028 404.914 126.114 405.851 126.114C408.466 126.114 410.55 125.3 412.104 123.672C413.658 122.019 414.435 119.577 414.435 116.346C414.435 115.828 414.41 115.211 414.361 114.496C414.312 113.781 414.201 113.078 414.028 112.387L415.249 113.645C414.904 114.78 414.324 115.742 413.51 116.531C412.721 117.296 411.759 117.875 410.624 118.27C409.514 118.64 408.293 118.825 406.961 118.825C405.259 118.825 403.742 118.504 402.41 117.863C401.078 117.222 400.03 116.321 399.265 115.162C398.5 113.978 398.118 112.584 398.118 110.981C398.118 109.304 398.513 107.861 399.302 106.652C400.116 105.419 401.214 104.469 402.595 103.803C404.001 103.137 405.555 102.804 407.257 102.804ZM407.405 105.801C406.295 105.801 405.308 106.011 404.445 106.43C403.582 106.849 402.903 107.429 402.41 108.169C401.941 108.909 401.707 109.797 401.707 110.833C401.707 112.362 402.237 113.583 403.298 114.496C404.359 115.384 405.789 115.828 407.59 115.828C408.774 115.828 409.81 115.606 410.698 115.162C411.611 114.718 412.314 114.114 412.807 113.349C413.325 112.584 413.584 111.733 413.584 110.796C413.584 109.883 413.35 109.057 412.881 108.317C412.412 107.577 411.722 106.973 410.809 106.504C409.896 106.035 408.762 105.801 407.405 105.801Z" fill="#292C33" fill-opacity="0.8"/>
<path d="M396.377 187V162.58L397.968 164.319H390.531V161.1H400.04V187H396.377ZM416.583 187.296C414.289 187.296 412.328 186.79 410.7 185.779C409.072 184.768 407.827 183.312 406.963 181.413C406.125 179.489 405.705 177.146 405.705 174.383C405.705 171.448 406.223 168.969 407.259 166.946C408.295 164.923 409.738 163.394 411.588 162.358C413.438 161.322 415.56 160.804 417.952 160.804C419.186 160.804 420.357 160.927 421.467 161.174C422.602 161.421 423.576 161.803 424.39 162.321L422.984 165.207C422.318 164.738 421.554 164.418 420.69 164.245C419.852 164.072 418.964 163.986 418.026 163.986C415.387 163.986 413.29 164.812 411.736 166.465C410.182 168.093 409.405 170.523 409.405 173.754C409.405 174.272 409.43 174.889 409.479 175.604C409.529 176.319 409.652 177.022 409.849 177.713L408.591 176.455C408.961 175.32 409.541 174.371 410.33 173.606C411.144 172.817 412.106 172.237 413.216 171.867C414.351 171.472 415.572 171.275 416.879 171.275C418.606 171.275 420.135 171.596 421.467 172.237C422.799 172.878 423.848 173.791 424.612 174.975C425.377 176.134 425.759 177.516 425.759 179.119C425.759 180.772 425.352 182.215 424.538 183.448C423.724 184.681 422.627 185.631 421.245 186.297C419.864 186.963 418.31 187.296 416.583 187.296ZM416.435 184.299C417.57 184.299 418.557 184.089 419.395 183.67C420.259 183.251 420.937 182.671 421.43 181.931C421.924 181.166 422.17 180.278 422.17 179.267C422.17 177.738 421.64 176.529 420.579 175.641C419.519 174.728 418.076 174.272 416.25 174.272C415.066 174.272 414.03 174.494 413.142 174.938C412.254 175.382 411.551 175.986 411.033 176.751C410.54 177.491 410.293 178.342 410.293 179.304C410.293 180.192 410.528 181.018 410.996 181.783C411.465 182.523 412.156 183.127 413.068 183.596C413.981 184.065 415.103 184.299 416.435 184.299Z" fill="#292C33" fill-opacity="0.8"/>
<path d="M388.659 245V242.484L399.204 232.309C400.141 231.421 400.832 230.644 401.276 229.978C401.745 229.287 402.053 228.658 402.201 228.091C402.374 227.499 402.46 226.932 402.46 226.389C402.46 225.057 401.991 224.009 401.054 223.244C400.117 222.479 398.748 222.097 396.947 222.097C395.566 222.097 394.32 222.331 393.21 222.8C392.1 223.244 391.138 223.947 390.324 224.909L387.808 222.726C388.795 221.468 390.114 220.506 391.767 219.84C393.444 219.149 395.282 218.804 397.28 218.804C399.081 218.804 400.647 219.1 401.979 219.692C403.311 220.259 404.335 221.086 405.05 222.171C405.79 223.256 406.16 224.539 406.16 226.019C406.16 226.858 406.049 227.684 405.827 228.498C405.605 229.312 405.186 230.175 404.569 231.088C403.952 232.001 403.064 233.024 401.905 234.159L392.507 243.224L391.619 241.781H407.27V245H388.659ZM418.23 245.296C416.405 245.296 414.629 245.012 412.902 244.445C411.2 243.878 409.806 243.113 408.721 242.151L410.423 239.228C411.286 240.042 412.409 240.708 413.79 241.226C415.171 241.744 416.651 242.003 418.23 242.003C420.154 242.003 421.646 241.596 422.707 240.782C423.792 239.943 424.335 238.821 424.335 237.415C424.335 236.058 423.817 234.973 422.781 234.159C421.77 233.32 420.154 232.901 417.934 232.901H415.862V230.311L423.558 220.839L424.076 222.319H409.905V219.1H426.999V221.616L419.34 231.051L417.416 229.904H418.637C421.77 229.904 424.113 230.607 425.667 232.013C427.246 233.419 428.035 235.207 428.035 237.378C428.035 238.833 427.677 240.165 426.962 241.374C426.247 242.583 425.161 243.545 423.706 244.26C422.275 244.951 420.45 245.296 418.23 245.296Z" fill="#292C33" fill-opacity="0.8"/>
<path d="M395.268 303.296C393.442 303.296 391.666 303.012 389.94 302.445C388.238 301.878 386.844 301.113 385.759 300.151L387.461 297.228C388.324 298.042 389.446 298.708 390.828 299.226C392.209 299.744 393.689 300.003 395.268 300.003C397.192 300.003 398.684 299.596 399.745 298.782C400.83 297.943 401.373 296.821 401.373 295.415C401.373 294.058 400.855 292.973 399.819 292.159C398.807 291.32 397.192 290.901 394.972 290.901H392.9V288.311L400.596 278.839L401.114 280.319H386.943V277.1H404.037V279.616L396.378 289.051L394.454 287.904H395.675C398.807 287.904 401.151 288.607 402.705 290.013C404.283 291.419 405.073 293.207 405.073 295.378C405.073 296.833 404.715 298.165 404 299.374C403.284 300.583 402.199 301.545 400.744 302.26C399.313 302.951 397.488 303.296 395.268 303.296ZM419.106 303.296C417.083 303.296 415.27 302.778 413.667 301.742C412.088 300.706 410.83 299.201 409.893 297.228C408.98 295.255 408.524 292.862 408.524 290.05C408.524 287.238 408.98 284.845 409.893 282.872C410.83 280.899 412.088 279.394 413.667 278.358C415.27 277.322 417.083 276.804 419.106 276.804C421.104 276.804 422.904 277.322 424.508 278.358C426.111 279.394 427.369 280.899 428.282 282.872C429.194 284.845 429.651 287.238 429.651 290.05C429.651 292.862 429.194 295.255 428.282 297.228C427.369 299.201 426.111 300.706 424.508 301.742C422.904 302.778 421.104 303.296 419.106 303.296ZM419.106 300.003C420.462 300.003 421.646 299.633 422.658 298.893C423.694 298.153 424.495 297.043 425.063 295.563C425.655 294.083 425.951 292.245 425.951 290.05C425.951 287.855 425.655 286.017 425.063 284.537C424.495 283.057 423.694 281.947 422.658 281.207C421.646 280.467 420.462 280.097 419.106 280.097C417.749 280.097 416.553 280.467 415.517 281.207C414.481 281.947 413.667 283.057 413.075 284.537C412.507 286.017 412.224 287.855 412.224 290.05C412.224 292.245 412.507 294.083 413.075 295.563C413.667 297.043 414.481 298.153 415.517 298.893C416.553 299.633 417.749 300.003 419.106 300.003Z" fill="#292C33" fill-opacity="0.8"/>
<path d="M23.5672 129.296C21.7419 129.296 19.9659 129.012 18.2392 128.445C16.5372 127.878 15.1435 127.113 14.0582 126.151L15.7602 123.228C16.6235 124.042 17.7459 124.708 19.1272 125.226C20.5085 125.744 21.9885 126.003 23.5672 126.003C25.4912 126.003 26.9835 125.596 28.0442 124.782C29.1295 123.943 29.6722 122.821 29.6722 121.415C29.6722 120.058 29.1542 118.973 28.1182 118.159C27.1069 117.32 25.4912 116.901 23.2712 116.901H21.1992V114.311L28.8952 104.839L29.4132 106.319H15.2422V103.1H32.3362V105.616L24.6772 115.051L22.7532 113.904H23.9742C27.1069 113.904 29.4502 114.607 31.0042 116.013C32.5829 117.419 33.3722 119.207 33.3722 121.378C33.3722 122.833 33.0145 124.165 32.2992 125.374C31.5839 126.583 30.4985 127.545 29.0432 128.26C27.6125 128.951 25.7872 129.296 23.5672 129.296Z" fill="#292C33" fill-opacity="0.8"/>
<path d="M11.4156 187V162.58L13.0066 164.319H5.56958V161.1H15.0786V187H11.4156ZM31.3259 187.296C29.3033 187.296 27.4903 186.778 25.8869 185.742C24.3083 184.706 23.0503 183.201 22.1129 181.228C21.2003 179.255 20.7439 176.862 20.7439 174.05C20.7439 171.238 21.2003 168.845 22.1129 166.872C23.0503 164.899 24.3083 163.394 25.8869 162.358C27.4903 161.322 29.3033 160.804 31.3259 160.804C33.3239 160.804 35.1246 161.322 36.7279 162.358C38.3313 163.394 39.5893 164.899 40.5019 166.872C41.4146 168.845 41.8709 171.238 41.8709 174.05C41.8709 176.862 41.4146 179.255 40.5019 181.228C39.5893 183.201 38.3313 184.706 36.7279 185.742C35.1246 186.778 33.3239 187.296 31.3259 187.296ZM31.3259 184.003C32.6826 184.003 33.8666 183.633 34.8779 182.893C35.9139 182.153 36.7156 181.043 37.2829 179.563C37.8749 178.083 38.1709 176.245 38.1709 174.05C38.1709 171.855 37.8749 170.017 37.2829 168.537C36.7156 167.057 35.9139 165.947 34.8779 165.207C33.8666 164.467 32.6826 164.097 31.3259 164.097C29.9693 164.097 28.7729 164.467 27.7369 165.207C26.7009 165.947 25.8869 167.057 25.2949 168.537C24.7276 170.017 24.4439 171.855 24.4439 174.05C24.4439 176.245 24.7276 178.083 25.2949 179.563C25.8869 181.043 26.7009 182.153 27.7369 182.893C28.7729 183.633 29.9693 184.003 31.3259 184.003Z" fill="white"/>
<path d="M12.6983 245V220.58L14.2893 222.319H6.85229V219.1H16.3613V245H12.6983ZM26.5036 245L37.4926 220.654L38.4546 222.319H23.0626L24.9126 220.506V226.944H21.3606V219.1H40.8966V221.616L30.4256 245H26.5036Z" fill="#292C33" fill-opacity="0.8"/>
<path d="M3.19194 303V300.484L13.7369 290.309C14.6742 289.421 15.3649 288.644 15.8089 287.978C16.2776 287.287 16.5859 286.658 16.7339 286.091C16.9066 285.499 16.9929 284.932 16.9929 284.389C16.9929 283.057 16.5242 282.009 15.5869 281.244C14.6496 280.479 13.2806 280.097 11.4799 280.097C10.0986 280.097 8.85294 280.331 7.74294 280.8C6.63294 281.244 5.67094 281.947 4.85694 282.909L2.34094 280.726C3.3276 279.468 4.64727 278.506 6.29994 277.84C7.97727 277.149 9.81494 276.804 11.8129 276.804C13.6136 276.804 15.1799 277.1 16.5119 277.692C17.8439 278.259 18.8676 279.086 19.5829 280.171C20.3229 281.256 20.6929 282.539 20.6929 284.019C20.6929 284.858 20.5819 285.684 20.3599 286.498C20.1379 287.312 19.7186 288.175 19.1019 289.088C18.4852 290.001 17.5972 291.024 16.4379 292.159L7.03994 301.224L6.15194 299.781H21.8029V303H3.19194ZM23.7523 296.636V294.046L36.9983 277.1H40.9943L27.8593 294.046L25.9723 293.454H46.6553V296.636H23.7523ZM38.1453 303V296.636L38.2563 293.454V287.83H41.7343V303H38.1453Z" fill="#292C33" fill-opacity="0.8"/>
<path d="M16.72 361.296C14.8947 361.296 13.1187 361.012 11.392 360.445C9.69006 359.878 8.2964 359.113 7.21106 358.151L8.91306 355.228C9.7764 356.042 10.8987 356.708 12.28 357.226C13.6614 357.744 15.1414 358.003 16.72 358.003C18.644 358.003 20.1364 357.596 21.197 356.782C22.2824 355.943 22.825 354.821 22.825 353.415C22.825 352.058 22.307 350.973 21.271 350.159C20.2597 349.32 18.644 348.901 16.424 348.901H14.352V346.311L22.048 336.839L22.566 338.319H8.39506V335.1H25.489V337.616L17.83 347.051L15.906 345.904H17.127C20.2597 345.904 22.603 346.607 24.157 348.013C25.7357 349.419 26.525 351.207 26.525 353.378C26.525 354.833 26.1674 356.165 25.452 357.374C24.7367 358.583 23.6514 359.545 22.196 360.26C20.7654 360.951 18.94 361.296 16.72 361.296ZM34.3419 361V336.58L35.9329 338.319H28.4959V335.1H38.0049V361H34.3419Z" fill="#292C33" fill-opacity="0.8"/>
<path d="M76.9906 122.636V120.046L90.2366 103.1H94.2326L81.0976 120.046L79.2106 119.454H99.8936V122.636H76.9906ZM91.3836 129V122.636L91.4946 119.454V113.83H94.9726V129H91.3836Z" fill="#292C33" fill-opacity="0.8"/>
<path d="M80.4079 187V162.58L81.9989 164.319H74.5619V161.1H84.0709V187H80.4079ZM94.1022 187V162.58L95.6932 164.319H88.2562V161.1H97.7652V187H94.1022Z" fill="#292C33" fill-opacity="0.8"/>
<path d="M75.3493 245V220.58L76.9403 222.319H69.5033V219.1H79.0123V245H75.3493ZM94.7786 245.296C92.6819 245.296 90.8689 244.988 89.3396 244.371C87.8103 243.754 86.6263 242.879 85.7876 241.744C84.9489 240.585 84.5296 239.228 84.5296 237.674C84.5296 236.145 84.9243 234.85 85.7136 233.789C86.5276 232.704 87.6993 231.89 89.2286 231.347C90.7579 230.78 92.6079 230.496 94.7786 230.496C96.9493 230.496 98.7993 230.78 100.329 231.347C101.883 231.89 103.067 232.704 103.881 233.789C104.695 234.874 105.102 236.169 105.102 237.674C105.102 239.228 104.682 240.585 103.844 241.744C103.005 242.879 101.809 243.754 100.255 244.371C98.7006 244.988 96.8753 245.296 94.7786 245.296ZM94.7786 242.299C96.8506 242.299 98.4663 241.88 99.6256 241.041C100.81 240.178 101.402 239.018 101.402 237.563C101.402 236.132 100.81 235.01 99.6256 234.196C98.4663 233.357 96.8506 232.938 94.7786 232.938C92.7313 232.938 91.1279 233.357 89.9686 234.196C88.8093 235.01 88.2296 236.132 88.2296 237.563C88.2296 239.018 88.8093 240.178 89.9686 241.041C91.1279 241.88 92.7313 242.299 94.7786 242.299ZM94.7786 232.494C92.8053 232.494 91.1279 232.235 89.7466 231.717C88.3653 231.174 87.3046 230.41 86.5646 229.423C85.8246 228.412 85.4546 227.215 85.4546 225.834C85.4546 224.379 85.8369 223.133 86.6016 222.097C87.3909 221.036 88.4886 220.222 89.8946 219.655C91.3006 219.088 92.9286 218.804 94.7786 218.804C96.6533 218.804 98.2936 219.088 99.6996 219.655C101.106 220.222 102.203 221.036 102.993 222.097C103.782 223.133 104.177 224.379 104.177 225.834C104.177 227.215 103.807 228.412 103.067 229.423C102.327 230.41 101.254 231.174 99.8476 231.717C98.4416 232.235 96.7519 232.494 94.7786 232.494ZM94.7786 230.126C96.5793 230.126 97.9853 229.756 98.9966 229.016C100.033 228.276 100.551 227.265 100.551 225.982C100.551 224.675 100.02 223.651 98.9596 222.911C97.8989 222.171 96.5053 221.801 94.7786 221.801C93.0519 221.801 91.6706 222.171 90.6346 222.911C89.6233 223.651 89.1176 224.675 89.1176 225.982C89.1176 227.265 89.6109 228.276 90.5976 229.016C91.6089 229.756 93.0026 230.126 94.7786 230.126Z" fill="#292C33" fill-opacity="0.8"/>
<path d="M68.0831 303V300.484L78.6281 290.309C79.5654 289.421 80.2561 288.644 80.7001 287.978C81.1688 287.287 81.4771 286.658 81.6251 286.091C81.7978 285.499 81.8841 284.932 81.8841 284.389C81.8841 283.057 81.4154 282.009 80.4781 281.244C79.5408 280.479 78.1718 280.097 76.3711 280.097C74.9898 280.097 73.7441 280.331 72.6341 280.8C71.5241 281.244 70.5621 281.947 69.7481 282.909L67.2321 280.726C68.2188 279.468 69.5384 278.506 71.1911 277.84C72.8684 277.149 74.7061 276.804 76.7041 276.804C78.5048 276.804 80.0711 277.1 81.4031 277.692C82.7351 278.259 83.7588 279.086 84.4741 280.171C85.2141 281.256 85.5841 282.539 85.5841 284.019C85.5841 284.858 85.4731 285.684 85.2511 286.498C85.0291 287.312 84.6098 288.175 83.9931 289.088C83.3764 290.001 82.4884 291.024 81.3291 292.159L71.9311 301.224L71.0431 299.781H86.6941V303H68.0831ZM98.0982 303.296C96.2729 303.296 94.4969 303.012 92.7702 302.445C91.0682 301.878 89.6745 301.113 88.5892 300.151L90.2912 297.228C91.1545 298.042 92.2769 298.708 93.6582 299.226C95.0395 299.744 96.5072 300.003 98.0612 300.003C100.035 300.003 101.552 299.584 102.612 298.745C103.673 297.906 104.203 296.784 104.203 295.378C104.203 294.416 103.969 293.577 103.5 292.862C103.032 292.147 102.218 291.604 101.058 291.234C99.9235 290.839 98.3572 290.642 96.3592 290.642H90.4762L91.8452 277.1H106.46V280.319H93.2142L95.1382 278.506L94.0652 289.199L92.1412 287.423H97.1362C99.7262 287.423 101.811 287.756 103.389 288.422C104.968 289.088 106.115 290.013 106.83 291.197C107.546 292.356 107.903 293.701 107.903 295.23C107.903 296.71 107.546 298.067 106.83 299.3C106.115 300.509 105.03 301.483 103.574 302.223C102.144 302.938 100.318 303.296 98.0982 303.296Z" fill="#292C33" fill-opacity="0.8"/>
<path d="M151.435 129.296C149.61 129.296 147.834 129.012 146.107 128.445C144.405 127.878 143.012 127.113 141.926 126.151L143.628 123.228C144.492 124.042 145.614 124.708 146.995 125.226C148.377 125.744 149.844 126.003 151.398 126.003C153.372 126.003 154.889 125.584 155.949 124.745C157.01 123.906 157.54 122.784 157.54 121.378C157.54 120.416 157.306 119.577 156.837 118.862C156.369 118.147 155.555 117.604 154.395 117.234C153.261 116.839 151.694 116.642 149.696 116.642H143.813L145.182 103.1H159.797V106.319H146.551L148.475 104.506L147.402 115.199L145.478 113.423H150.473C153.063 113.423 155.148 113.756 156.726 114.422C158.305 115.088 159.452 116.013 160.167 117.197C160.883 118.356 161.24 119.701 161.24 121.23C161.24 122.71 160.883 124.067 160.167 125.3C159.452 126.509 158.367 127.483 156.911 128.223C155.481 128.938 153.655 129.296 151.435 129.296Z" fill="#292C33" fill-opacity="0.8"/>
<path d="M140.592 187V162.58L142.183 164.319H134.746V161.1H144.255V187H140.592ZM149.514 187V184.484L160.059 174.309C160.996 173.421 161.687 172.644 162.131 171.978C162.599 171.287 162.908 170.658 163.056 170.091C163.228 169.499 163.315 168.932 163.315 168.389C163.315 167.057 162.846 166.009 161.909 165.244C160.971 164.479 159.602 164.097 157.802 164.097C156.42 164.097 155.175 164.331 154.065 164.8C152.955 165.244 151.993 165.947 151.179 166.909L148.663 164.726C149.649 163.468 150.969 162.506 152.622 161.84C154.299 161.149 156.137 160.804 158.135 160.804C159.935 160.804 161.502 161.1 162.834 161.692C164.166 162.259 165.189 163.086 165.905 164.171C166.645 165.256 167.015 166.539 167.015 168.019C167.015 168.858 166.904 169.684 166.682 170.498C166.46 171.312 166.04 172.175 165.424 173.088C164.807 174.001 163.919 175.024 162.76 176.159L153.362 185.224L152.474 183.781H168.125V187H149.514Z" fill="#292C33" fill-opacity="0.8"/>
<path d="M139.797 245V220.58L141.388 222.319H133.951V219.1H143.46V245H139.797ZM157.525 218.804C159.868 218.804 161.841 219.31 163.445 220.321C165.073 221.332 166.306 222.8 167.145 224.724C167.983 226.623 168.403 228.954 168.403 231.717C168.403 234.652 167.885 237.131 166.849 239.154C165.813 241.177 164.382 242.706 162.557 243.742C160.731 244.778 158.598 245.296 156.156 245.296C154.947 245.296 153.775 245.173 152.641 244.926C151.531 244.679 150.556 244.297 149.718 243.779L151.124 240.893C151.814 241.337 152.579 241.658 153.418 241.855C154.281 242.028 155.181 242.114 156.119 242.114C158.733 242.114 160.818 241.3 162.372 239.672C163.926 238.019 164.703 235.577 164.703 232.346C164.703 231.828 164.678 231.211 164.629 230.496C164.579 229.781 164.468 229.078 164.296 228.387L165.517 229.645C165.171 230.78 164.592 231.742 163.778 232.531C162.988 233.296 162.026 233.875 160.892 234.27C159.782 234.64 158.561 234.825 157.229 234.825C155.527 234.825 154.01 234.504 152.678 233.863C151.346 233.222 150.297 232.321 149.533 231.162C148.768 229.978 148.386 228.584 148.386 226.981C148.386 225.304 148.78 223.861 149.57 222.652C150.384 221.419 151.481 220.469 152.863 219.803C154.269 219.137 155.823 218.804 157.525 218.804ZM157.673 221.801C156.563 221.801 155.576 222.011 154.713 222.43C153.849 222.849 153.171 223.429 152.678 224.169C152.209 224.909 151.975 225.797 151.975 226.833C151.975 228.362 152.505 229.583 153.566 230.496C154.626 231.384 156.057 231.828 157.858 231.828C159.042 231.828 160.078 231.606 160.966 231.162C161.878 230.718 162.581 230.114 163.075 229.349C163.593 228.584 163.852 227.733 163.852 226.796C163.852 225.883 163.617 225.057 163.149 224.317C162.68 223.577 161.989 222.973 161.077 222.504C160.164 222.035 159.029 221.801 157.673 221.801Z" fill="#292C33" fill-opacity="0.8"/>
<path d="M131.266 303V300.484L141.811 290.309C142.749 289.421 143.439 288.644 143.883 287.978C144.352 287.287 144.66 286.658 144.808 286.091C144.981 285.499 145.067 284.932 145.067 284.389C145.067 283.057 144.599 282.009 143.661 281.244C142.724 280.479 141.355 280.097 139.554 280.097C138.173 280.097 136.927 280.331 135.817 280.8C134.707 281.244 133.745 281.947 132.931 282.909L130.415 280.726C131.402 279.468 132.722 278.506 134.374 277.84C136.052 277.149 137.889 276.804 139.887 276.804C141.688 276.804 143.254 277.1 144.586 277.692C145.918 278.259 146.942 279.086 147.657 280.171C148.397 281.256 148.767 282.539 148.767 284.019C148.767 284.858 148.656 285.684 148.434 286.498C148.212 287.312 147.793 288.175 147.176 289.088C146.56 290.001 145.672 291.024 144.512 292.159L135.114 301.224L134.226 299.781H149.877V303H131.266ZM163.761 303.296C161.467 303.296 159.506 302.79 157.878 301.779C156.25 300.768 155.005 299.312 154.141 297.413C153.303 295.489 152.883 293.146 152.883 290.383C152.883 287.448 153.401 284.969 154.437 282.946C155.473 280.923 156.916 279.394 158.766 278.358C160.616 277.322 162.738 276.804 165.13 276.804C166.364 276.804 167.535 276.927 168.645 277.174C169.78 277.421 170.754 277.803 171.568 278.321L170.162 281.207C169.496 280.738 168.732 280.418 167.868 280.245C167.03 280.072 166.142 279.986 165.204 279.986C162.565 279.986 160.468 280.812 158.914 282.465C157.36 284.093 156.583 286.523 156.583 289.754C156.583 290.272 156.608 290.889 156.657 291.604C156.707 292.319 156.83 293.022 157.027 293.713L155.769 292.455C156.139 291.32 156.719 290.371 157.508 289.606C158.322 288.817 159.284 288.237 160.394 287.867C161.529 287.472 162.75 287.275 164.057 287.275C165.784 287.275 167.313 287.596 168.645 288.237C169.977 288.878 171.026 289.791 171.79 290.975C172.555 292.134 172.937 293.516 172.937 295.119C172.937 296.772 172.53 298.215 171.716 299.448C170.902 300.681 169.805 301.631 168.423 302.297C167.042 302.963 165.488 303.296 163.761 303.296ZM163.613 300.299C164.748 300.299 165.735 300.089 166.573 299.67C167.437 299.251 168.115 298.671 168.608 297.931C169.102 297.166 169.348 296.278 169.348 295.267C169.348 293.738 168.818 292.529 167.757 291.641C166.697 290.728 165.254 290.272 163.428 290.272C162.244 290.272 161.208 290.494 160.32 290.938C159.432 291.382 158.729 291.986 158.211 292.751C157.718 293.491 157.471 294.342 157.471 295.304C157.471 296.192 157.706 297.018 158.174 297.783C158.643 298.523 159.334 299.127 160.246 299.596C161.159 300.065 162.281 300.299 163.613 300.299Z" fill="#292C33" fill-opacity="0.8"/>
<path d="M216.696 129.296C214.402 129.296 212.441 128.79 210.813 127.779C209.185 126.768 207.94 125.312 207.076 123.413C206.238 121.489 205.818 119.146 205.818 116.383C205.818 113.448 206.336 110.969 207.372 108.946C208.408 106.923 209.851 105.394 211.701 104.358C213.551 103.322 215.673 102.804 218.065 102.804C219.299 102.804 220.47 102.927 221.58 103.174C222.715 103.421 223.689 103.803 224.503 104.321L223.097 107.207C222.431 106.738 221.667 106.418 220.803 106.245C219.965 106.072 219.077 105.986 218.139 105.986C215.5 105.986 213.403 106.812 211.849 108.465C210.295 110.093 209.518 112.523 209.518 115.754C209.518 116.272 209.543 116.889 209.592 117.604C209.642 118.319 209.765 119.022 209.962 119.713L208.704 118.455C209.074 117.32 209.654 116.371 210.443 115.606C211.257 114.817 212.219 114.237 213.329 113.867C214.464 113.472 215.685 113.275 216.992 113.275C218.719 113.275 220.248 113.596 221.58 114.237C222.912 114.878 223.961 115.791 224.725 116.975C225.49 118.134 225.872 119.516 225.872 121.119C225.872 122.772 225.465 124.215 224.651 125.448C223.837 126.681 222.74 127.631 221.358 128.297C219.977 128.963 218.423 129.296 216.696 129.296ZM216.548 126.299C217.683 126.299 218.67 126.089 219.508 125.67C220.372 125.251 221.05 124.671 221.543 123.931C222.037 123.166 222.283 122.278 222.283 121.267C222.283 119.738 221.753 118.529 220.692 117.641C219.632 116.728 218.189 116.272 216.363 116.272C215.179 116.272 214.143 116.494 213.255 116.938C212.367 117.382 211.664 117.986 211.146 118.751C210.653 119.491 210.406 120.342 210.406 121.304C210.406 122.192 210.641 123.018 211.109 123.783C211.578 124.523 212.269 125.127 213.181 125.596C214.094 126.065 215.216 126.299 216.548 126.299Z" fill="#292C33" fill-opacity="0.8"/>
<path d="M204.168 187V162.58L205.759 164.319H198.322V161.1H207.831V187H204.168ZM221.414 187.296C219.589 187.296 217.813 187.012 216.086 186.445C214.384 185.878 212.991 185.113 211.905 184.151L213.607 181.228C214.471 182.042 215.593 182.708 216.974 183.226C218.356 183.744 219.836 184.003 221.414 184.003C223.338 184.003 224.831 183.596 225.891 182.782C226.977 181.943 227.519 180.821 227.519 179.415C227.519 178.058 227.001 176.973 225.965 176.159C224.954 175.32 223.338 174.901 221.118 174.901H219.046V172.311L226.742 162.839L227.26 164.319H213.089V161.1H230.183V163.616L222.524 173.051L220.6 171.904H221.821C224.954 171.904 227.297 172.607 228.851 174.013C230.43 175.419 231.219 177.207 231.219 179.378C231.219 180.833 230.862 182.165 230.146 183.374C229.431 184.583 228.346 185.545 226.89 186.26C225.46 186.951 223.634 187.296 221.414 187.296Z" fill="#292C33" fill-opacity="0.8"/>
<path d="M193.885 245V242.484L204.43 232.309C205.367 231.421 206.058 230.644 206.502 229.978C206.971 229.287 207.279 228.658 207.427 228.091C207.6 227.499 207.686 226.932 207.686 226.389C207.686 225.057 207.217 224.009 206.28 223.244C205.343 222.479 203.974 222.097 202.173 222.097C200.792 222.097 199.546 222.331 198.436 222.8C197.326 223.244 196.364 223.947 195.55 224.909L193.034 222.726C194.021 221.468 195.34 220.506 196.993 219.84C198.67 219.149 200.508 218.804 202.506 218.804C204.307 218.804 205.873 219.1 207.205 219.692C208.537 220.259 209.561 221.086 210.276 222.171C211.016 223.256 211.386 224.539 211.386 226.019C211.386 226.858 211.275 227.684 211.053 228.498C210.831 229.312 210.412 230.175 209.795 231.088C209.178 232.001 208.29 233.024 207.131 234.159L197.733 243.224L196.845 241.781H212.496V245H193.885ZM226.084 245.296C224.061 245.296 222.248 244.778 220.645 243.742C219.066 242.706 217.808 241.201 216.871 239.228C215.958 237.255 215.502 234.862 215.502 232.05C215.502 229.238 215.958 226.845 216.871 224.872C217.808 222.899 219.066 221.394 220.645 220.358C222.248 219.322 224.061 218.804 226.084 218.804C228.082 218.804 229.882 219.322 231.486 220.358C233.089 221.394 234.347 222.899 235.26 224.872C236.172 226.845 236.629 229.238 236.629 232.05C236.629 234.862 236.172 237.255 235.26 239.228C234.347 241.201 233.089 242.706 231.486 243.742C229.882 244.778 228.082 245.296 226.084 245.296ZM226.084 242.003C227.44 242.003 228.624 241.633 229.636 240.893C230.672 240.153 231.473 239.043 232.041 237.563C232.633 236.083 232.929 234.245 232.929 232.05C232.929 229.855 232.633 228.017 232.041 226.537C231.473 225.057 230.672 223.947 229.636 223.207C228.624 222.467 227.44 222.097 226.084 222.097C224.727 222.097 223.531 222.467 222.495 223.207C221.459 223.947 220.645 225.057 220.053 226.537C219.485 228.017 219.202 229.855 219.202 232.05C219.202 234.245 219.485 236.083 220.053 237.563C220.645 239.043 221.459 240.153 222.495 240.893C223.531 241.633 224.727 242.003 226.084 242.003Z" fill="#292C33" fill-opacity="0.8"/>
<path d="M195.168 303V300.484L205.713 290.309C206.65 289.421 207.341 288.644 207.785 287.978C208.253 287.287 208.562 286.658 208.71 286.091C208.882 285.499 208.969 284.932 208.969 284.389C208.969 283.057 208.5 282.009 207.563 281.244C206.625 280.479 205.256 280.097 203.456 280.097C202.074 280.097 200.829 280.331 199.719 280.8C198.609 281.244 197.647 281.947 196.833 282.909L194.317 280.726C195.303 279.468 196.623 278.506 198.276 277.84C199.953 277.149 201.791 276.804 203.789 276.804C205.589 276.804 207.156 277.1 208.488 277.692C209.82 278.259 210.843 279.086 211.559 280.171C212.299 281.256 212.669 282.539 212.669 284.019C212.669 284.858 212.558 285.684 212.336 286.498C212.114 287.312 211.694 288.175 211.078 289.088C210.461 290.001 209.573 291.024 208.414 292.159L199.016 301.224L198.128 299.781H213.779V303H195.168ZM221.262 303L232.251 278.654L233.213 280.319H217.821L219.671 278.506V284.944H216.119V277.1H235.655V279.616L225.184 303H221.262Z" fill="#292C33" fill-opacity="0.8"/>
<path d="M267.38 187V162.58L268.971 164.319H261.534V161.1H271.043V187H267.38ZM276.338 180.636V178.046L289.584 161.1H293.58L280.445 178.046L278.558 177.454H299.241V180.636H276.338ZM290.731 187V180.636L290.842 177.454V171.83H294.32V187H290.731Z" fill="#292C33" fill-opacity="0.8"/>
<path d="M264.359 245V242.484L274.904 232.309C275.841 231.421 276.532 230.644 276.976 229.978C277.445 229.287 277.753 228.658 277.901 228.091C278.074 227.499 278.16 226.932 278.16 226.389C278.16 225.057 277.691 224.009 276.754 223.244C275.817 222.479 274.448 222.097 272.647 222.097C271.266 222.097 270.02 222.331 268.91 222.8C267.8 223.244 266.838 223.947 266.024 224.909L263.508 222.726C264.495 221.468 265.814 220.506 267.467 219.84C269.144 219.149 270.982 218.804 272.98 218.804C274.781 218.804 276.347 219.1 277.679 219.692C279.011 220.259 280.035 221.086 280.75 222.171C281.49 223.256 281.86 224.539 281.86 226.019C281.86 226.858 281.749 227.684 281.527 228.498C281.305 229.312 280.886 230.175 280.269 231.088C279.652 232.001 278.764 233.024 277.605 234.159L268.207 243.224L267.319 241.781H282.97V245H264.359ZM290.378 245V220.58L291.969 222.319H284.532V219.1H294.041V245H290.378Z" fill="#292C33" fill-opacity="0.8"/>
<path d="M259.3 303V300.484L269.845 290.309C270.783 289.421 271.473 288.644 271.917 287.978C272.386 287.287 272.694 286.658 272.842 286.091C273.015 285.499 273.101 284.932 273.101 284.389C273.101 283.057 272.633 282.009 271.695 281.244C270.758 280.479 269.389 280.097 267.588 280.097C266.207 280.097 264.961 280.331 263.851 280.8C262.741 281.244 261.779 281.947 260.965 282.909L258.449 280.726C259.436 279.468 260.756 278.506 262.408 277.84C264.086 277.149 265.923 276.804 267.921 276.804C269.722 276.804 271.288 277.1 272.62 277.692C273.952 278.259 274.976 279.086 275.691 280.171C276.431 281.256 276.801 282.539 276.801 284.019C276.801 284.858 276.69 285.684 276.468 286.498C276.246 287.312 275.827 288.175 275.21 289.088C274.594 290.001 273.706 291.024 272.546 292.159L263.148 301.224L262.26 299.781H277.911V303H259.3ZM291.054 303.296C288.958 303.296 287.145 302.988 285.615 302.371C284.086 301.754 282.902 300.879 282.063 299.744C281.225 298.585 280.805 297.228 280.805 295.674C280.805 294.145 281.2 292.85 281.989 291.789C282.803 290.704 283.975 289.89 285.504 289.347C287.034 288.78 288.884 288.496 291.054 288.496C293.225 288.496 295.075 288.78 296.604 289.347C298.158 289.89 299.342 290.704 300.156 291.789C300.97 292.874 301.377 294.169 301.377 295.674C301.377 297.228 300.958 298.585 300.119 299.744C299.281 300.879 298.084 301.754 296.53 302.371C294.976 302.988 293.151 303.296 291.054 303.296ZM291.054 300.299C293.126 300.299 294.742 299.88 295.901 299.041C297.085 298.178 297.677 297.018 297.677 295.563C297.677 294.132 297.085 293.01 295.901 292.196C294.742 291.357 293.126 290.938 291.054 290.938C289.007 290.938 287.404 291.357 286.244 292.196C285.085 293.01 284.505 294.132 284.505 295.563C284.505 297.018 285.085 298.178 286.244 299.041C287.404 299.88 289.007 300.299 291.054 300.299ZM291.054 290.494C289.081 290.494 287.404 290.235 286.022 289.717C284.641 289.174 283.58 288.41 282.84 287.423C282.1 286.412 281.73 285.215 281.73 283.834C281.73 282.379 282.113 281.133 282.877 280.097C283.667 279.036 284.764 278.222 286.17 277.655C287.576 277.088 289.204 276.804 291.054 276.804C292.929 276.804 294.569 277.088 295.975 277.655C297.381 278.222 298.479 279.036 299.268 280.097C300.058 281.133 300.452 282.379 300.452 283.834C300.452 285.215 300.082 286.412 299.342 287.423C298.602 288.41 297.529 289.174 296.123 289.717C294.717 290.235 293.028 290.494 291.054 290.494ZM291.054 288.126C292.855 288.126 294.261 287.756 295.272 287.016C296.308 286.276 296.826 285.265 296.826 283.982C296.826 282.675 296.296 281.651 295.235 280.911C294.175 280.171 292.781 279.801 291.054 279.801C289.328 279.801 287.946 280.171 286.91 280.911C285.899 281.651 285.393 282.675 285.393 283.982C285.393 285.265 285.887 286.276 286.873 287.016C287.885 287.756 289.278 288.126 291.054 288.126Z" fill="#292C33" fill-opacity="0.8"/>
<path d="M275.657 129L286.646 104.654L287.608 106.319H272.216L274.066 104.506V110.944H270.514V103.1H290.05V105.616L279.579 129H275.657Z" fill="#292C33" fill-opacity="0.8"/>
</g>
</g>
<defs>
<clipPath id="clip0_1035_4885">
<rect width="431" height="362" fill="white" transform="translate(0 0.5)"/>
</clipPath>
</defs>
</svg>
