<svg width="431" height="318" viewBox="0 0 431 318" fill="none" xmlns="http://www.w3.org/2000/svg">
<g clip-path="url(#clip0_1035_4949)">
<rect width="57" height="47" transform="translate(123 153)" fill="#E4793D"/>
<rect width="57" height="47" transform="translate(186 153)" fill="#E4793D"/>
<rect width="57" height="47" transform="translate(251 153)" fill="#E4793D"/>
<rect width="57" height="47" transform="translate(314 153)" fill="#E4793D"/>
<mask id="mask0_1035_4949" style="mask-type:luminance" maskUnits="userSpaceOnUse" x="0" y="0" width="431" height="318">
<path d="M431 0.5H0V317.5H431V0.5Z" fill="white"/>
</mask>
<g mask="url(#mask0_1035_4949)">
<path d="M179.519 272.5H122.519V319.5H179.519V272.5Z" fill="#3C78EC"/>
<path d="M22.9564 21.2264H20.3476V3.86139H10.8906V21.2264H8.2002V1.82324H22.8749V21.2264H22.9564Z" fill="#B3B3B3"/>
<path d="M38.7725 21.2263H36.1636V15.1118H29.7231V21.2263H27.1143V6.79614H29.7231V13.0737H36.1636V6.79614H38.7725V21.2263Z" fill="#B3B3B3"/>
<path d="M73 21.2264V1.82324H79.359C81.3972 1.82324 82.9462 2.23087 84.0875 3.12766C85.2289 4.02444 85.7996 5.32886 85.7996 7.0409C85.7996 7.85616 85.555 8.58989 85.0658 9.32363C84.5767 10.0574 83.8429 10.465 83.0277 10.7911C84.3321 10.9541 85.3104 11.5248 86.0441 12.4216C86.7779 13.3184 87.1855 14.4598 87.1855 15.6826C87.1855 17.4762 86.6148 18.7806 85.4735 19.7589C84.3321 20.7373 82.7831 21.1449 80.745 21.1449H73V21.2264ZM75.6904 10.0574H79.9297C80.908 10.0574 81.7233 9.81278 82.294 9.2421C82.9462 8.67142 83.1907 7.93769 83.1907 6.95937C83.1907 5.89954 82.8646 5.1658 82.2124 4.59512C81.5602 4.10597 80.5819 3.77986 79.359 3.77986H75.6904V10.0574ZM75.6904 12.0955V19.1067H80.745C81.9678 19.1067 82.8646 18.7806 83.5168 18.21C84.1691 17.6393 84.4952 16.7425 84.4952 15.6826C84.4952 14.6228 84.1691 13.726 83.5168 13.0738C82.8646 12.4216 81.9678 12.0955 80.745 12.014H80.5819H75.6904V12.0955Z" fill="#B3B3B3"/>
<path d="M101.126 8.83429H96.3978V21.2263H93.7889V8.83429H89.0604V6.79614H101.126V8.83429Z" fill="#B3B3B3"/>
<path d="M150.512 15.0304C150.593 16.9055 149.941 18.4545 148.637 19.6773C147.332 20.9002 145.62 21.5524 143.419 21.5524C141.218 21.5524 139.424 20.7372 138.038 19.1882C136.652 17.6392 136 15.6826 136 13.2368V9.81271C136 7.44846 136.652 5.41031 138.038 3.86132C139.424 2.31233 141.218 1.49707 143.419 1.49707C145.62 1.49707 147.332 2.06775 148.637 3.20911C149.941 4.35048 150.593 5.89947 150.512 7.85609V7.93762H147.984C147.984 6.55168 147.577 5.49184 146.761 4.67658C145.946 3.86132 144.805 3.45369 143.337 3.45369C141.87 3.45369 140.729 4.02437 139.832 5.24726C138.935 6.38862 138.527 7.85609 138.527 9.64966V13.1553C138.527 14.9488 138.935 16.4163 139.832 17.5577C140.729 18.699 141.87 19.3512 143.337 19.3512C144.805 19.3512 145.946 18.9436 146.761 18.2099C147.577 17.3946 147.984 16.3348 147.984 14.9488H150.512V15.0304Z" fill="#B3B3B3"/>
<path d="M165.92 14.5413C165.92 16.661 165.431 18.2915 164.452 19.5959C163.474 20.9003 162.088 21.471 160.295 21.471C159.398 21.471 158.664 21.3079 157.93 21.0634C157.278 20.7373 156.707 20.3296 156.218 19.759V26.7702H153.609V6.79634H155.648L156.055 8.67143C156.544 7.9377 157.115 7.44854 157.849 7.12244C158.583 6.79634 159.398 6.55176 160.295 6.55176C162.088 6.55176 163.474 7.28549 164.452 8.67143C165.431 10.0574 165.92 11.9325 165.92 14.2967V14.5413ZM163.311 14.2967C163.311 12.6662 162.985 11.2803 162.333 10.3019C161.681 9.32364 160.702 8.75296 159.479 8.75296C158.746 8.75296 158.093 8.91601 157.523 9.24211C156.952 9.56822 156.544 10.0574 156.218 10.6281V17.6393C156.544 18.21 156.952 18.6991 157.523 19.0252C158.093 19.3513 158.746 19.5144 159.479 19.5144C160.702 19.5144 161.681 19.0252 162.333 18.1284C162.985 17.2317 163.311 16.0088 163.311 14.6228V14.2967Z" fill="#B3B3B3"/>
<path d="M215.43 1.82324V21.2264H212.821V13.1553C212.006 13.3999 211.191 13.563 210.375 13.726C209.56 13.8076 208.663 13.8891 207.522 13.8891C205.402 13.8891 203.772 13.3999 202.631 12.5031C201.489 11.6064 201 10.0574 201 7.93769V1.82324H203.609V7.93769C203.609 9.40515 203.935 10.3835 204.506 10.9541C205.158 11.5248 206.136 11.7694 207.441 11.7694C208.337 11.7694 209.234 11.6879 210.131 11.6064C210.946 11.4433 211.843 11.2802 212.74 11.0357V1.82324H215.43Z" fill="#B3B3B3"/>
<path d="M230.675 8.83429H225.947V21.2263H223.338V8.83429H218.61V6.79614H230.675V8.83429Z" fill="#B3B3B3"/>
<path d="M279.675 21.2264H277.066V3.86139H267.609V21.2264H265V1.82324H279.675V21.2264Z" fill="#B3B3B3"/>
<path d="M294.92 8.83453H290.192V21.2265H287.583V8.83453H282.854V6.79639H294.92V8.83453Z" fill="#B3B3B3"/>
<path d="M344.512 15.0301C344.593 16.9052 343.941 18.4542 342.637 19.6771C341.332 20.9 339.62 21.5522 337.419 21.5522C335.218 21.5522 333.424 20.7369 332.038 19.1879C330.652 17.6389 330 15.6823 330 13.2365V9.81247C330 7.44822 330.652 5.41007 332.038 3.86108C333.424 2.31209 335.218 1.49683 337.419 1.49683C339.62 1.49683 341.332 2.06751 342.637 3.20887C343.941 4.35023 344.593 5.89923 344.512 7.85585V7.93737H341.984C341.984 6.55143 341.577 5.4916 340.761 4.67634C339.946 3.86108 338.805 3.45345 337.337 3.45345C335.87 3.45345 334.729 4.02413 333.832 5.24702C332.935 6.38838 332.527 7.85585 332.527 9.64942V13.155C332.527 14.9486 332.935 16.416 333.832 17.5574C334.729 18.6988 335.87 19.351 337.337 19.351C338.805 19.351 339.946 18.9433 340.761 18.2096C341.577 17.3943 341.984 16.3345 341.984 14.9486H344.512V15.0301Z" fill="#B3B3B3"/>
<path d="M353.887 6.55149C355.762 6.55149 357.148 7.2037 358.208 8.58964C359.268 9.97558 359.838 11.6876 359.838 13.8888V14.2149C359.838 16.3346 359.268 18.1282 358.126 19.5141C356.985 20.9 355.436 21.5523 353.398 21.5523C351.36 21.5523 349.811 20.9 348.669 19.5141C347.528 18.1282 346.957 16.4161 346.957 14.2149V13.8888C346.957 13.8073 346.957 13.7258 346.957 13.7258C346.957 13.6442 346.957 13.6442 346.957 13.5627V10.4647C346.957 7.69285 347.528 5.73623 348.588 4.43182C349.648 3.1274 351.278 2.47519 353.398 2.31214C354.621 2.23062 355.599 2.06756 356.251 1.82299C356.903 1.57841 357.23 1.17078 357.23 0.600098H359.268V0.681624C359.349 2.06756 358.86 3.04587 357.882 3.61656C356.903 4.18724 355.517 4.51334 353.642 4.51334C352.256 4.51334 351.197 4.92097 350.381 5.6547C349.566 6.38844 349.158 7.44827 349.158 8.83421V8.91574C349.648 8.26353 350.381 7.69285 351.197 7.28522C352.012 6.87759 352.99 6.55149 353.887 6.55149ZM353.398 8.58964C352.175 8.58964 351.197 9.07879 350.544 10.0571C349.892 11.0354 349.566 12.3398 349.566 13.8073V14.1334C349.566 15.6824 349.892 16.9053 350.544 17.8836C351.197 18.8619 352.175 19.3511 353.398 19.3511C354.621 19.3511 355.599 18.8619 356.251 17.8836C356.903 16.9053 357.23 15.6009 357.23 14.1334V13.8073C357.23 12.2583 356.903 11.0354 356.251 10.0571C355.599 9.07879 354.621 8.58964 353.398 8.58964Z" fill="#B3B3B3"/>
<path d="M394 21.2264V1.82324H400.359C402.397 1.82324 403.946 2.23087 405.088 3.12766C406.229 4.02444 406.8 5.32886 406.8 7.0409C406.8 7.85616 406.555 8.58989 406.066 9.32363C405.577 10.0574 404.843 10.465 404.028 10.8726C405.332 11.0357 406.31 11.6064 407.044 12.5031C407.778 13.3999 408.186 14.5413 408.186 15.7642C408.186 17.5577 407.615 18.8622 406.473 19.8405C405.332 20.8188 403.783 21.2264 401.745 21.2264H394ZM396.69 10.0574H400.93C401.908 10.0574 402.723 9.81278 403.294 9.2421C403.946 8.67142 404.191 7.93769 404.191 6.95937C404.191 5.89954 403.865 5.1658 403.212 4.59512C402.56 4.10597 401.582 3.77986 400.359 3.77986H396.69V10.0574ZM396.69 12.0955V19.1067H401.745C402.968 19.1067 403.865 18.7806 404.517 18.21C405.169 17.6393 405.495 16.7425 405.495 15.6826C405.495 14.6228 405.169 13.726 404.517 13.0738C403.865 12.4216 402.968 12.0955 401.745 12.014H401.582H396.69V12.0955Z" fill="#B3B3B3"/>
<path d="M416.745 19.4327C417.561 19.4327 418.294 19.1881 418.865 18.6174C419.436 18.0467 419.762 17.3945 419.762 16.6608H422.126V16.7423C422.126 17.9652 421.637 19.1066 420.496 20.0849C419.354 21.0632 418.131 21.5523 416.664 21.5523C414.626 21.5523 413.077 20.9001 411.935 19.5142C410.794 18.1282 410.305 16.4162 410.305 14.3781V13.8074C410.305 11.7692 410.876 10.0571 411.935 8.6712C413.077 7.28526 414.626 6.63306 416.582 6.63306C418.213 6.63306 419.517 7.12221 420.496 8.10052C421.474 9.07883 422.045 10.3017 421.963 11.7692V11.8508H419.599C419.599 10.954 419.273 10.2202 418.702 9.56799C418.131 8.91578 417.398 8.6712 416.501 8.6712C415.196 8.6712 414.3 9.16036 413.647 10.1387C413.077 11.117 412.751 12.3399 412.751 13.8074V14.3781C412.751 15.8455 413.077 17.0684 413.647 18.0467C414.544 18.9435 415.441 19.4327 416.745 19.4327Z" fill="#B3B3B3"/>
<path d="M217.812 63.5406C222.992 64.0216 225.619 66.9446 225.619 70.9406C225.619 75.3066 222.4 78.8586 215.814 78.8586C212.114 78.8586 208.488 77.6746 206.305 75.7136L208.007 72.7906C209.746 74.4186 212.632 75.5656 215.814 75.5656C219.699 75.5656 221.919 73.7896 221.919 70.9776C221.919 68.2396 219.958 66.4636 215.518 66.4636H213.446V63.8736L219.958 55.8816H207.489V52.6626H224.583V55.1786L217.812 63.5406Z" fill="#292C33"/>
<path d="M197.128 104.975H206.637V130.875H202.974V108.194H197.128V104.975ZM222.884 131.171C216.816 131.171 212.302 126.361 212.302 117.925C212.302 109.489 216.816 104.679 222.884 104.679C228.915 104.679 233.429 109.489 233.429 117.925C233.429 126.361 228.915 131.171 222.884 131.171ZM222.884 127.878C226.917 127.878 229.729 124.548 229.729 117.925C229.729 111.302 226.917 107.972 222.884 107.972C218.814 107.972 216.002 111.302 216.002 117.925C216.002 124.548 218.814 127.878 222.884 127.878Z" fill="#292C33"/>
<path d="M198.411 163.975H207.92V189.875H204.257V167.194H198.411V163.975ZM212.919 163.975H232.455V166.491L221.984 189.875H218.062L228.311 167.194H216.471V171.819H212.919V163.975Z" fill="white"/>
<path d="M200.06 245.656H213.343V248.875H194.732V246.359L205.277 236.184C208.015 233.52 208.533 231.892 208.533 230.264C208.533 227.6 206.646 225.972 203.02 225.972C200.245 225.972 197.988 226.86 196.397 228.784L193.881 226.601C195.879 224.122 199.32 222.679 203.353 222.679C208.755 222.679 212.233 225.454 212.233 229.894C212.233 232.41 211.493 234.667 207.978 238.034L200.06 245.656ZM238.232 239.329V242.511H233.311V248.875H229.722V242.511H215.329V239.921L228.575 222.975H232.571L219.88 239.329H229.833V233.705H233.311V239.329H238.232Z" fill="#292C33"/>
<path d="M291.794 69.0166V72.1986H286.873V78.5626H283.284V72.1986H268.891V69.6086L282.137 52.6626H286.133L273.442 69.0166H283.395V63.3926H286.873V69.0166H291.794Z" fill="#292C33"/>
<path d="M266.12 104.975H275.629V130.875H271.966V108.194H266.12V104.975ZM279.815 104.975H289.324V130.875H285.661V108.194H279.815V104.975Z" fill="#292C33"/>
<path d="M261.062 163.975H270.571V189.875H266.908V167.194H261.062V163.975ZM292.072 176.296C295.032 177.443 296.66 179.589 296.66 182.549C296.66 187.248 292.664 190.171 286.337 190.171C280.047 190.171 276.088 187.248 276.088 182.549C276.088 179.589 277.716 177.406 280.639 176.296C278.271 175.186 277.013 173.262 277.013 170.709C277.013 166.38 280.75 163.679 286.337 163.679C291.961 163.679 295.735 166.38 295.735 170.709C295.735 173.262 294.44 175.186 292.072 176.296ZM286.337 166.676C282.859 166.676 280.676 168.267 280.676 170.857C280.676 173.41 282.785 175.001 286.337 175.001C289.926 175.001 292.109 173.41 292.109 170.857C292.109 168.267 289.815 166.676 286.337 166.676ZM286.337 187.174C290.444 187.174 292.96 185.361 292.96 182.438C292.96 179.589 290.444 177.813 286.337 177.813C282.23 177.813 279.788 179.589 279.788 182.438C279.788 185.361 282.23 187.174 286.337 187.174Z" fill="white"/>
<path d="M264.969 245.656H278.252V248.875H259.641V246.359L270.186 236.184C272.924 233.52 273.442 231.892 273.442 230.264C273.442 227.6 271.555 225.972 267.929 225.972C265.154 225.972 262.897 226.86 261.306 228.784L258.79 226.601C260.788 224.122 264.229 222.679 268.262 222.679C273.664 222.679 277.142 225.454 277.142 229.894C277.142 232.41 276.402 234.667 272.887 238.034L264.969 245.656ZM288.695 233.298C296.428 233.298 299.462 236.517 299.462 241.105C299.462 245.582 296.28 249.171 289.657 249.171C285.994 249.171 282.368 247.987 280.148 246.026L281.85 243.103C283.589 244.731 286.475 245.878 289.62 245.878C293.542 245.878 295.762 244.065 295.762 241.253C295.762 238.33 293.912 236.517 287.918 236.517H282.035L283.404 222.975H298.019V226.194H286.512L285.809 233.298H288.695Z" fill="#292C33"/>
<path d="M392.09 245.656H405.373V248.875H386.762V246.359L397.307 236.184C400.045 233.52 400.563 231.892 400.563 230.264C400.563 227.6 398.676 225.972 395.05 225.972C392.275 225.972 390.018 226.86 388.427 228.784L385.911 226.601C387.909 224.122 391.35 222.679 395.383 222.679C400.785 222.679 404.263 225.454 404.263 229.894C404.263 232.41 403.523 234.667 400.008 238.034L392.09 245.656ZM407.641 222.975H427.177V225.491L416.706 248.875H412.784L423.033 226.194H411.193V230.819H407.641V222.975Z" fill="#292C33"/>
<path d="M0.858629 307.875V305.359L11.4036 295.184C12.341 294.296 13.0316 293.519 13.4756 292.853C13.9443 292.162 14.2526 291.533 14.4006 290.966C14.5733 290.374 14.6596 289.807 14.6596 289.264C14.6596 287.932 14.191 286.884 13.2536 286.119C12.3163 285.354 10.9473 284.972 9.14663 284.972C7.7653 284.972 6.51963 285.206 5.40963 285.675C4.29963 286.119 3.33763 286.822 2.52363 287.784L0.00762939 285.601C0.994296 284.343 2.31397 283.381 3.96663 282.715C5.64397 282.024 7.48163 281.679 9.47963 281.679C11.2803 281.679 12.8466 281.975 14.1786 282.567C15.5106 283.134 16.5343 283.961 17.2496 285.046C17.9896 286.131 18.3596 287.414 18.3596 288.894C18.3596 289.733 18.2486 290.559 18.0266 291.373C17.8046 292.187 17.3853 293.05 16.7686 293.963C16.152 294.876 15.264 295.899 14.1046 297.034L4.70663 306.099L3.81863 304.656H19.4696V307.875H0.858629ZM32.6127 308.171C30.5161 308.171 28.7031 307.863 27.1737 307.246C25.6444 306.629 24.4604 305.754 23.6217 304.619C22.7831 303.46 22.3637 302.103 22.3637 300.549C22.3637 299.02 22.7584 297.725 23.5477 296.664C24.3617 295.579 25.5334 294.765 27.0627 294.222C28.5921 293.655 30.4421 293.371 32.6127 293.371C34.7834 293.371 36.6334 293.655 38.1627 294.222C39.7167 294.765 40.9007 295.579 41.7147 296.664C42.5287 297.749 42.9357 299.044 42.9357 300.549C42.9357 302.103 42.5164 303.46 41.6777 304.619C40.8391 305.754 39.6427 306.629 38.0887 307.246C36.5347 307.863 34.7094 308.171 32.6127 308.171ZM32.6127 305.174C34.6847 305.174 36.3004 304.755 37.4597 303.916C38.6437 303.053 39.2357 301.893 39.2357 300.438C39.2357 299.007 38.6437 297.885 37.4597 297.071C36.3004 296.232 34.6847 295.813 32.6127 295.813C30.5654 295.813 28.9621 296.232 27.8027 297.071C26.6434 297.885 26.0637 299.007 26.0637 300.438C26.0637 301.893 26.6434 303.053 27.8027 303.916C28.9621 304.755 30.5654 305.174 32.6127 305.174ZM32.6127 295.369C30.6394 295.369 28.9621 295.11 27.5807 294.592C26.1994 294.049 25.1387 293.285 24.3987 292.298C23.6587 291.287 23.2887 290.09 23.2887 288.709C23.2887 287.254 23.6711 286.008 24.4357 284.972C25.2251 283.911 26.3227 283.097 27.7287 282.53C29.1347 281.963 30.7627 281.679 32.6127 281.679C34.4874 281.679 36.1277 281.963 37.5337 282.53C38.9397 283.097 40.0374 283.911 40.8267 284.972C41.6161 286.008 42.0107 287.254 42.0107 288.709C42.0107 290.09 41.6407 291.287 40.9007 292.298C40.1607 293.285 39.0877 294.049 37.6817 294.592C36.2757 295.11 34.5861 295.369 32.6127 295.369ZM32.6127 293.001C34.4134 293.001 35.8194 292.631 36.8307 291.891C37.8667 291.151 38.3847 290.14 38.3847 288.857C38.3847 287.55 37.8544 286.526 36.7937 285.786C35.7331 285.046 34.3394 284.676 32.6127 284.676C30.8861 284.676 29.5047 285.046 28.4687 285.786C27.4574 286.526 26.9517 287.55 26.9517 288.857C26.9517 290.14 27.4451 291.151 28.4317 291.891C29.4431 292.631 30.8367 293.001 32.6127 293.001Z" fill="#292C33"/>
<path d="M71.1744 304.656H84.4574V307.875H65.8464V305.359L76.3914 295.184C79.1294 292.52 79.6474 290.892 79.6474 289.264C79.6474 286.6 77.7604 284.972 74.1344 284.972C71.3594 284.972 69.1024 285.86 67.5114 287.784L64.9954 285.601C66.9934 283.122 70.4344 281.679 74.4674 281.679C79.8694 281.679 83.3474 284.454 83.3474 288.894C83.3474 291.41 82.6074 293.667 79.0924 297.034L71.1744 304.656ZM95.8985 281.679C102.855 281.679 106.777 286.341 106.777 294.592C106.777 303.435 101.782 308.171 94.5295 308.171C92.0875 308.171 89.7565 307.69 88.0915 306.654L89.4975 303.768C90.8665 304.656 92.6055 304.989 94.4925 304.989C99.7465 304.989 103.077 301.696 103.077 295.221V294.296C101.56 296.553 98.8215 297.7 95.6025 297.7C90.4595 297.7 86.7595 294.629 86.7595 289.856C86.7595 284.861 90.7555 281.679 95.8985 281.679ZM96.2315 294.703C99.7835 294.703 102.226 292.52 102.226 289.671C102.226 287.007 100.08 284.676 96.0465 284.676C92.6795 284.676 90.3485 286.637 90.3485 289.708C90.3485 292.742 92.6055 294.703 96.2315 294.703Z" fill="#292C33"/>
<path d="M137.786 308.171C135.961 308.171 134.185 307.887 132.458 307.32C130.756 306.753 129.362 305.988 128.277 305.026L129.979 302.103C130.842 302.917 131.965 303.583 133.346 304.101C134.727 304.619 136.207 304.878 137.786 304.878C139.71 304.878 141.202 304.471 142.263 303.657C143.348 302.818 143.891 301.696 143.891 300.29C143.891 298.933 143.373 297.848 142.337 297.034C141.326 296.195 139.71 295.776 137.49 295.776H135.418V293.186L143.114 283.714L143.632 285.194H129.461V281.975H146.555V284.491L138.896 293.926L136.972 292.779H138.193C141.326 292.779 143.669 293.482 145.223 294.888C146.802 296.294 147.591 298.082 147.591 300.253C147.591 301.708 147.233 303.04 146.518 304.249C145.803 305.458 144.717 306.42 143.262 307.135C141.831 307.826 140.006 308.171 137.786 308.171ZM161.624 308.171C159.601 308.171 157.788 307.653 156.185 306.617C154.606 305.581 153.348 304.076 152.411 302.103C151.498 300.13 151.042 297.737 151.042 294.925C151.042 292.113 151.498 289.72 152.411 287.747C153.348 285.774 154.606 284.269 156.185 283.233C157.788 282.197 159.601 281.679 161.624 281.679C163.622 281.679 165.423 282.197 167.026 283.233C168.629 284.269 169.887 285.774 170.8 287.747C171.713 289.72 172.169 292.113 172.169 294.925C172.169 297.737 171.713 300.13 170.8 302.103C169.887 304.076 168.629 305.581 167.026 306.617C165.423 307.653 163.622 308.171 161.624 308.171ZM161.624 304.878C162.981 304.878 164.165 304.508 165.176 303.768C166.212 303.028 167.014 301.918 167.581 300.438C168.173 298.958 168.469 297.12 168.469 294.925C168.469 292.73 168.173 290.892 167.581 289.412C167.014 287.932 166.212 286.822 165.176 286.082C164.165 285.342 162.981 284.972 161.624 284.972C160.267 284.972 159.071 285.342 158.035 286.082C156.999 286.822 156.185 287.932 155.593 289.412C155.026 290.892 154.742 292.73 154.742 294.925C154.742 297.12 155.026 298.958 155.593 300.438C156.185 301.918 156.999 303.028 158.035 303.768C159.071 304.508 160.267 304.878 161.624 304.878Z" fill="white"/>
<path d="M344.312 62.9856C352.045 62.9856 355.079 66.2046 355.079 70.7926C355.079 75.2696 351.897 78.8586 345.274 78.8586C341.611 78.8586 337.985 77.6746 335.765 75.7136L337.467 72.7906C339.206 74.4186 342.092 75.5656 345.237 75.5656C349.159 75.5656 351.379 73.7526 351.379 70.9406C351.379 68.0176 349.529 66.2046 343.535 66.2046H337.652L339.021 52.6626H353.636V55.8816H342.129L341.426 62.9856H344.312Z" fill="#292C33"/>
<path d="M325.344 104.975H334.853V130.875H331.19V108.194H325.344V104.975ZM345.44 127.656H358.723V130.875H340.112V128.359L350.657 118.184C353.395 115.52 353.913 113.892 353.913 112.264C353.913 109.6 352.026 107.972 348.4 107.972C345.625 107.972 343.368 108.86 341.777 110.784L339.261 108.601C341.259 106.122 344.7 104.679 348.733 104.679C354.135 104.679 357.613 107.454 357.613 111.894C357.613 114.41 356.873 116.667 353.358 120.034L345.44 127.656Z" fill="#292C33"/>
<path d="M324.549 163.975H334.058V189.875H330.395V167.194H324.549V163.975ZM348.123 163.679C355.079 163.679 359.001 168.341 359.001 176.592C359.001 185.435 354.006 190.171 346.754 190.171C344.312 190.171 341.981 189.69 340.316 188.654L341.722 185.768C343.091 186.656 344.83 186.989 346.717 186.989C351.971 186.989 355.301 183.696 355.301 177.221V176.296C353.784 178.553 351.046 179.7 347.827 179.7C342.684 179.7 338.984 176.629 338.984 171.856C338.984 166.861 342.98 163.679 348.123 163.679ZM348.456 176.703C352.008 176.703 354.45 174.52 354.45 171.671C354.45 169.007 352.304 166.676 348.271 166.676C344.904 166.676 342.573 168.637 342.573 171.708C342.573 174.742 344.83 176.703 348.456 176.703Z" fill="white"/>
<path d="M321.865 248.875V246.359L332.41 236.184C333.347 235.296 334.038 234.519 334.482 233.853C334.95 233.162 335.259 232.533 335.407 231.966C335.579 231.374 335.666 230.807 335.666 230.264C335.666 228.932 335.197 227.884 334.26 227.119C333.322 226.354 331.953 225.972 330.153 225.972C328.771 225.972 327.526 226.206 326.416 226.675C325.306 227.119 324.344 227.822 323.53 228.784L321.014 226.601C322 225.343 323.32 224.381 324.973 223.715C326.65 223.024 328.488 222.679 330.486 222.679C332.286 222.679 333.853 222.975 335.185 223.567C336.517 224.134 337.54 224.961 338.256 226.046C338.996 227.131 339.366 228.414 339.366 229.894C339.366 230.733 339.255 231.559 339.033 232.373C338.811 233.187 338.391 234.05 337.775 234.963C337.158 235.876 336.27 236.899 335.111 238.034L325.713 247.099L324.825 245.656H340.476V248.875H321.865ZM354.36 249.171C352.066 249.171 350.105 248.665 348.477 247.654C346.849 246.643 345.603 245.187 344.74 243.288C343.901 241.364 343.482 239.021 343.482 236.258C343.482 233.323 344 230.844 345.036 228.821C346.072 226.798 347.515 225.269 349.365 224.233C351.215 223.197 353.336 222.679 355.729 222.679C356.962 222.679 358.134 222.802 359.244 223.049C360.378 223.296 361.353 223.678 362.167 224.196L360.761 227.082C360.095 226.613 359.33 226.293 358.467 226.12C357.628 225.947 356.74 225.861 355.803 225.861C353.163 225.861 351.067 226.687 349.513 228.34C347.959 229.968 347.182 232.398 347.182 235.629C347.182 236.147 347.206 236.764 347.256 237.479C347.305 238.194 347.428 238.897 347.626 239.588L346.368 238.33C346.738 237.195 347.317 236.246 348.107 235.481C348.921 234.692 349.883 234.112 350.993 233.742C352.127 233.347 353.348 233.15 354.656 233.15C356.382 233.15 357.912 233.471 359.244 234.112C360.576 234.753 361.624 235.666 362.389 236.85C363.153 238.009 363.536 239.391 363.536 240.994C363.536 242.647 363.129 244.09 362.315 245.323C361.501 246.556 360.403 247.506 359.022 248.172C357.64 248.838 356.086 249.171 354.36 249.171ZM354.212 246.174C355.346 246.174 356.333 245.964 357.172 245.545C358.035 245.126 358.713 244.546 359.207 243.806C359.7 243.041 359.947 242.153 359.947 241.142C359.947 239.613 359.416 238.404 358.356 237.516C357.295 236.603 355.852 236.147 354.027 236.147C352.843 236.147 351.807 236.369 350.919 236.813C350.031 237.257 349.328 237.861 348.81 238.626C348.316 239.366 348.07 240.217 348.07 241.179C348.07 242.067 348.304 242.893 348.773 243.658C349.241 244.398 349.932 245.002 350.845 245.471C351.757 245.94 352.88 246.174 354.212 246.174Z" fill="#292C33"/>
<path d="M408.403 62.8375C413.546 62.8375 417.283 65.9085 417.283 70.6815C417.283 75.6765 413.25 78.8585 408.107 78.8585C401.151 78.8585 397.229 74.1965 397.229 65.9455C397.229 57.1025 402.224 52.3665 409.476 52.3665C411.918 52.3665 414.249 52.8475 415.914 53.8835L414.508 56.7695C413.176 55.8815 411.4 55.5485 409.55 55.5485C404.296 55.5485 400.929 58.8415 400.929 65.3165C400.929 65.6125 400.929 65.9085 400.966 66.2415C402.446 64.0215 405.184 62.8375 408.403 62.8375ZM407.959 75.8615C411.326 75.8615 413.694 73.9005 413.694 70.8295C413.694 67.7955 411.4 65.8345 407.774 65.8345C404.259 65.8345 401.817 68.0175 401.817 70.8665C401.817 73.5305 403.963 75.8615 407.959 75.8615Z" fill="#292C33"/>
<path d="M389.88 104.975H399.389V130.875H395.726V108.194H389.88V104.975ZM414.971 115.853C420.151 116.334 422.778 119.257 422.778 123.253C422.778 127.619 419.559 131.171 412.973 131.171C409.273 131.171 405.647 129.987 403.464 128.026L405.166 125.103C406.905 126.731 409.791 127.878 412.973 127.878C416.858 127.878 419.078 126.102 419.078 123.29C419.078 120.552 417.117 118.776 412.677 118.776H410.605V116.186L417.117 108.194H404.648V104.975H421.742V107.491L414.971 115.853Z" fill="#292C33"/>
<path d="M390.807 186.656H404.09V189.875H385.479V187.359L396.024 177.184C398.762 174.52 399.28 172.892 399.28 171.264C399.28 168.6 397.393 166.972 393.767 166.972C390.992 166.972 388.735 167.86 387.144 169.784L384.628 167.601C386.626 165.122 390.067 163.679 394.1 163.679C399.502 163.679 402.98 166.454 402.98 170.894C402.98 173.41 402.24 175.667 398.725 179.034L390.807 186.656ZM417.606 190.171C411.538 190.171 407.024 185.361 407.024 176.925C407.024 168.489 411.538 163.679 417.606 163.679C423.637 163.679 428.151 168.489 428.151 176.925C428.151 185.361 423.637 190.171 417.606 190.171ZM417.606 186.878C421.639 186.878 424.451 183.548 424.451 176.925C424.451 170.302 421.639 166.972 417.606 166.972C413.536 166.972 410.724 170.302 410.724 176.925C410.724 183.548 413.536 186.878 417.606 186.878Z" fill="#292C33"/>
<path d="M12.0718 104.975H31.6078V107.491L21.1368 130.875H17.2148L27.4638 108.194H15.6238V112.819H12.0718V104.975Z" fill="#292C33"/>
<path d="M3.0918 163.975H12.6008V189.875H8.9378V167.194H3.0918V163.975ZM40.7991 180.329V183.511H35.8781V189.875H32.2891V183.511H17.8961V180.921L31.1421 163.975H35.1381L22.4471 180.329H32.4001V174.705H35.8781V180.329H40.7991Z" fill="#292C33"/>
<path d="M11.2452 245.656H24.5282V248.875H5.91722V246.359L16.4622 236.184C19.2002 233.52 19.7182 231.892 19.7182 230.264C19.7182 227.6 17.8312 225.972 14.2052 225.972C11.4302 225.972 9.17322 226.86 7.58222 228.784L5.06622 226.601C7.06422 224.122 10.5052 222.679 14.5382 222.679C19.9402 222.679 23.4182 225.454 23.4182 229.894C23.4182 232.41 22.6782 234.667 19.1632 238.034L11.2452 245.656ZM26.0903 222.975H35.5993V248.875H31.9363V226.194H26.0903V222.975Z" fill="#292C33"/>
<path d="M78.7628 52.6626H88.2718V78.5626H84.6088V55.8816H78.7628V52.6626Z" fill="#292C33"/>
<path d="M92.2247 117.296C95.1847 118.443 96.8127 120.589 96.8127 123.549C96.8127 128.248 92.8167 131.171 86.4897 131.171C80.1997 131.171 76.2407 128.248 76.2407 123.549C76.2407 120.589 77.8687 118.406 80.7917 117.296C78.4237 116.186 77.1657 114.262 77.1657 111.709C77.1657 107.38 80.9027 104.679 86.4897 104.679C92.1137 104.679 95.8877 107.38 95.8877 111.709C95.8877 114.262 94.5927 116.186 92.2247 117.296ZM86.4897 107.676C83.0117 107.676 80.8287 109.267 80.8287 111.857C80.8287 114.41 82.9377 116.001 86.4897 116.001C90.0787 116.001 92.2617 114.41 92.2617 111.857C92.2617 109.267 89.9677 107.676 86.4897 107.676ZM86.4897 128.174C90.5967 128.174 93.1127 126.361 93.1127 123.438C93.1127 120.589 90.5967 118.813 86.4897 118.813C82.3827 118.813 79.9407 120.589 79.9407 123.438C79.9407 126.361 82.3827 128.174 86.4897 128.174Z" fill="#292C33"/>
<path d="M69.3442 163.975H78.8532V189.875H75.1902V167.194H69.3442V163.975ZM91.9186 174.298C99.6516 174.298 102.686 177.517 102.686 182.105C102.686 186.582 99.5036 190.171 92.8806 190.171C89.2176 190.171 85.5916 188.987 83.3716 187.026L85.0736 184.103C86.8126 185.731 89.6986 186.878 92.8436 186.878C96.7656 186.878 98.9856 185.065 98.9856 182.253C98.9856 179.33 97.1356 177.517 91.1416 177.517H85.2586L86.6276 163.975H101.243V167.194H89.7356L89.0326 174.298H91.9186Z" fill="#292C33"/>
<path d="M71.9693 245.656H85.2523V248.875H66.6413V246.359L77.1863 236.184C79.9243 233.52 80.4423 231.892 80.4423 230.264C80.4423 227.6 78.5553 225.972 74.9293 225.972C72.1543 225.972 69.8973 226.86 68.3063 228.784L65.7903 226.601C67.7883 224.122 71.2293 222.679 75.2623 222.679C80.6643 222.679 84.1423 225.454 84.1423 229.894C84.1423 232.41 83.4023 234.667 79.8873 238.034L71.9693 245.656ZM93.2154 245.656H106.498V248.875H87.8874V246.359L98.4324 236.184C101.17 233.52 101.688 231.892 101.688 230.264C101.688 227.6 99.8014 225.972 96.1754 225.972C93.4004 225.972 91.1434 226.86 89.5524 228.784L87.0364 226.601C89.0344 224.122 92.4754 222.679 96.5084 222.679C101.91 222.679 105.388 225.454 105.388 229.894C105.388 232.41 104.648 234.667 101.133 238.034L93.2154 245.656Z" fill="#292C33"/>
<path d="M149.775 104.679C156.731 104.679 160.653 109.341 160.653 117.592C160.653 126.435 155.658 131.171 148.406 131.171C145.964 131.171 143.633 130.69 141.968 129.654L143.374 126.768C144.743 127.656 146.482 127.989 148.369 127.989C153.623 127.989 156.953 124.696 156.953 118.221V117.296C155.436 119.553 152.698 120.7 149.479 120.7C144.336 120.7 140.636 117.629 140.636 112.856C140.636 107.861 144.632 104.679 149.775 104.679ZM150.108 117.703C153.66 117.703 156.102 115.52 156.102 112.671C156.102 110.007 153.956 107.676 149.923 107.676C146.556 107.676 144.225 109.637 144.225 112.708C144.225 115.742 146.482 117.703 150.108 117.703Z" fill="#292C33"/>
<path d="M133.049 163.975H142.558V189.875H138.895V167.194H133.049V163.975ZM159.398 174.15C164.541 174.15 168.278 177.221 168.278 181.994C168.278 186.989 164.245 190.171 159.102 190.171C152.146 190.171 148.224 185.509 148.224 177.258C148.224 168.415 153.219 163.679 160.471 163.679C162.913 163.679 165.244 164.16 166.909 165.196L165.503 168.082C164.171 167.194 162.395 166.861 160.545 166.861C155.291 166.861 151.924 170.154 151.924 176.629C151.924 176.925 151.924 177.221 151.961 177.554C153.441 175.334 156.179 174.15 159.398 174.15ZM158.954 187.174C162.321 187.174 164.689 185.213 164.689 182.142C164.689 179.108 162.395 177.147 158.769 177.147C155.254 177.147 152.812 179.33 152.812 182.179C152.812 184.843 154.958 187.174 158.954 187.174Z" fill="white"/>
<path d="M136.505 245.656H149.788V248.875H131.177V246.359L141.722 236.184C144.46 233.52 144.978 231.892 144.978 230.264C144.978 227.6 143.091 225.972 139.465 225.972C136.69 225.972 134.433 226.86 132.842 228.784L130.326 226.601C132.324 224.122 135.765 222.679 139.798 222.679C145.2 222.679 148.678 225.454 148.678 229.894C148.678 232.41 147.938 234.667 144.423 238.034L136.505 245.656ZM162.747 233.853C167.927 234.334 170.554 237.257 170.554 241.253C170.554 245.619 167.335 249.171 160.749 249.171C157.049 249.171 153.423 247.987 151.24 246.026L152.942 243.103C154.681 244.731 157.567 245.878 160.749 245.878C164.634 245.878 166.854 244.102 166.854 241.29C166.854 238.552 164.893 236.776 160.453 236.776H158.381V234.186L164.893 226.194H152.424V222.975H169.518V225.491L162.747 233.853Z" fill="#292C33"/>
<path d="M148.343 75.3435H161.626V78.5625H143.015V76.0465L153.56 65.8715C156.298 63.2075 156.816 61.5795 156.816 59.9515C156.816 57.2875 154.929 55.6595 151.303 55.6595C148.528 55.6595 146.271 56.5475 144.68 58.4715L142.164 56.2885C144.162 53.8095 147.603 52.3665 151.636 52.3665C157.038 52.3665 160.516 55.1415 160.516 59.5815C160.516 62.0975 159.776 64.3545 156.261 67.7215L148.343 75.3435Z" fill="#292C33"/>
<path d="M208.278 308.171C206.453 308.171 204.677 307.887 202.95 307.32C201.248 306.753 199.855 305.988 198.769 305.026L200.471 302.103C201.335 302.917 202.457 303.583 203.838 304.101C205.22 304.619 206.7 304.878 208.278 304.878C210.202 304.878 211.695 304.471 212.755 303.657C213.841 302.818 214.383 301.696 214.383 300.29C214.383 298.933 213.865 297.848 212.829 297.034C211.818 296.195 210.202 295.776 207.982 295.776H205.91V293.186L213.606 283.714L214.124 285.194H199.953V281.975H217.047V284.491L209.388 293.926L207.464 292.779H208.685C211.818 292.779 214.161 293.482 215.715 294.888C217.294 296.294 218.083 298.082 218.083 300.253C218.083 301.708 217.726 303.04 217.01 304.249C216.295 305.458 215.21 306.42 213.754 307.135C212.324 307.826 210.498 308.171 208.278 308.171ZM225.9 307.875V283.455L227.491 285.194H220.054V281.975H229.563V307.875H225.9Z" fill="#292C33"/>
</g>
</g>
<defs>
<clipPath id="clip0_1035_4949">
<rect width="431" height="317" fill="white" transform="translate(0 0.5)"/>
</clipPath>
</defs>
</svg>
