<svg width="432" height="313" viewBox="0 0 432 313" fill="none" xmlns="http://www.w3.org/2000/svg">
<path d="M180 213H123V260H180V213Z" fill="#E4793D"/>
<path d="M114 213H57V260H114V213Z" fill="#E4793D"/>
<mask id="mask0_3949_8254" style="mask-type:luminance" maskUnits="userSpaceOnUse" x="0" y="0" width="432" height="313">
<path d="M431.5 0H0.5V313H431.5V0Z" fill="white"/>
</mask>
<g mask="url(#mask0_3949_8254)">
<mask id="mask1_3949_8254" style="mask-type:luminance" maskUnits="userSpaceOnUse" x="0" y="0" width="432" height="313">
<path d="M431.5 0H0.5V313H431.5V0Z" fill="white"/>
</mask>
<g mask="url(#mask1_3949_8254)">
<path d="M23.4554 20.7264H20.8466V3.36139H11.3896V20.7264H8.69922V1.32324H23.3739V20.7264H23.4554Z" fill="#B3B3B3"/>
<path d="M39.2715 20.7265H36.6626V14.612H30.2221V20.7265H27.6133V6.29639H30.2221V12.5739H36.6626V6.29639H39.2715V20.7265Z" fill="#B3B3B3"/>
<path d="M73.5 20.7264V1.32324H79.859C81.8972 1.32324 83.4462 1.73087 84.5875 2.62766C85.7289 3.52444 86.2996 4.82886 86.2996 6.5409C86.2996 7.35616 86.055 8.08989 85.5658 8.82363C85.0767 9.55736 84.3429 9.96499 83.5277 10.2911C84.8321 10.4541 85.8104 11.0248 86.5441 11.9216C87.2779 12.8184 87.6855 13.9598 87.6855 15.1826C87.6855 16.9762 87.1148 18.2806 85.9735 19.2589C84.8321 20.2373 83.2831 20.6449 81.245 20.6449H73.5V20.7264ZM76.1904 9.55736H80.4297C81.408 9.55736 82.2233 9.31278 82.794 8.7421C83.4462 8.17142 83.6907 7.43769 83.6907 6.45937C83.6907 5.39954 83.3646 4.6658 82.7124 4.09512C82.0602 3.60597 81.0819 3.27986 79.859 3.27986H76.1904V9.55736ZM76.1904 11.5955V18.6067H81.245C82.4678 18.6067 83.3646 18.2806 84.0168 17.71C84.6691 17.1393 84.9952 16.2425 84.9952 15.1826C84.9952 14.1228 84.6691 13.226 84.0168 12.5738C83.3646 11.9216 82.4678 11.5955 81.245 11.514H81.0819H76.1904V11.5955Z" fill="#B3B3B3"/>
<path d="M101.626 8.33454H96.8979V20.7265H94.289V8.33454H89.5605V6.29639H101.626V8.33454Z" fill="#B3B3B3"/>
<path d="M151.012 14.5304C151.093 16.4055 150.441 17.9545 149.137 19.1773C147.832 20.4002 146.12 21.0524 143.919 21.0524C141.718 21.0524 139.924 20.2372 138.538 18.6882C137.152 17.1392 136.5 15.1826 136.5 12.7368V9.31271C136.5 6.94846 137.152 4.91031 138.538 3.36132C139.924 1.81233 141.718 0.99707 143.919 0.99707C146.12 0.99707 147.832 1.56775 149.137 2.70911C150.441 3.85048 151.093 5.39947 151.012 7.35609V7.43762H148.484C148.484 6.05168 148.077 4.99184 147.261 4.17658C146.446 3.36132 145.305 2.95369 143.837 2.95369C142.37 2.95369 141.229 3.52437 140.332 4.74726C139.435 5.88862 139.027 7.35609 139.027 9.14966V12.6553C139.027 14.4488 139.435 15.9163 140.332 17.0577C141.229 18.199 142.37 18.8512 143.837 18.8512C145.305 18.8512 146.446 18.4436 147.261 17.7099C148.077 16.8946 148.484 15.8348 148.484 14.4488H151.012V14.5304Z" fill="#B3B3B3"/>
<path d="M166.418 14.0413C166.418 16.161 165.929 17.7915 164.95 19.0959C163.972 20.4003 162.586 20.971 160.793 20.971C159.896 20.971 159.162 20.8079 158.428 20.5634C157.776 20.2373 157.205 19.8296 156.716 19.259V26.2702H154.107V6.29634H156.146L156.553 8.17143C157.042 7.4377 157.613 6.94854 158.347 6.62244C159.081 6.29634 159.896 6.05176 160.793 6.05176C162.586 6.05176 163.972 6.78549 164.95 8.17143C165.929 9.55737 166.418 11.4325 166.418 13.7967V14.0413ZM163.809 13.7967C163.809 12.1662 163.483 10.7803 162.831 9.80195C162.179 8.82364 161.2 8.25296 159.977 8.25296C159.244 8.25296 158.591 8.41601 158.021 8.74211C157.45 9.06822 157.042 9.55737 156.716 10.1281V17.1393C157.042 17.71 157.45 18.1991 158.021 18.5252C158.591 18.8513 159.244 19.0144 159.977 19.0144C161.2 19.0144 162.179 18.5252 162.831 17.6284C163.483 16.7317 163.809 15.5088 163.809 14.1228V13.7967Z" fill="#B3B3B3"/>
<path d="M215.93 1.32324V20.7264H213.321V12.6553C212.506 12.8999 211.691 13.063 210.875 13.226C210.06 13.3076 209.163 13.3891 208.022 13.3891C205.902 13.3891 204.272 12.8999 203.131 12.0031C201.989 11.1064 201.5 9.55736 201.5 7.43769V1.32324H204.109V7.43769C204.109 8.90515 204.435 9.88346 205.006 10.4541C205.658 11.0248 206.636 11.2694 207.941 11.2694C208.837 11.2694 209.734 11.1879 210.631 11.1064C211.446 10.9433 212.343 10.7802 213.24 10.5357V1.32324H215.93Z" fill="#B3B3B3"/>
<path d="M231.174 8.33454H226.446V20.7265H223.837V8.33454H219.109V6.29639H231.174V8.33454Z" fill="#B3B3B3"/>
<path d="M280.175 20.7264H277.566V3.36139H268.109V20.7264H265.5V1.32324H280.175V20.7264Z" fill="#B3B3B3"/>
<path d="M295.42 8.33453H290.691V20.7265H288.083V8.33453H283.354V6.29639H295.42V8.33453Z" fill="#B3B3B3"/>
<path d="M345.012 14.5299C345.093 16.405 344.441 17.954 343.137 19.1769C341.832 20.3998 340.12 21.052 337.919 21.052C335.718 21.052 333.924 20.2367 332.538 18.6877C331.152 17.1387 330.5 15.1821 330.5 12.7363V9.31223C330.5 6.94798 331.152 4.90983 332.538 3.36084C333.924 1.81185 335.718 0.996582 337.919 0.996582C340.12 0.996582 341.832 1.56727 343.137 2.70863C344.441 3.84999 345.093 5.39899 345.012 7.35561V7.43713H342.484C342.484 6.05119 342.077 4.99136 341.261 4.1761C340.446 3.36084 339.305 2.95321 337.837 2.95321C336.37 2.95321 335.229 3.52389 334.332 4.74678C333.435 5.88814 333.027 7.35561 333.027 9.14918V12.6548C333.027 14.4484 333.435 15.9158 334.332 17.0572C335.229 18.1986 336.37 18.8508 337.837 18.8508C339.305 18.8508 340.446 18.4431 341.261 17.7094C342.077 16.8941 342.484 15.8343 342.484 14.4484H345.012V14.5299Z" fill="#B3B3B3"/>
<path d="M354.387 6.05149C356.262 6.05149 357.648 6.7037 358.708 8.08964C359.768 9.47558 360.338 11.1876 360.338 13.3888V13.7149C360.338 15.8346 359.768 17.6282 358.626 19.0141C357.485 20.4 355.936 21.0523 353.898 21.0523C351.86 21.0523 350.311 20.4 349.169 19.0141C348.028 17.6282 347.457 15.9161 347.457 13.7149V13.3888C347.457 13.3073 347.457 13.2258 347.457 13.2258C347.457 13.1442 347.457 13.1442 347.457 13.0627V9.96473C347.457 7.19285 348.028 5.23623 349.088 3.93182C350.148 2.6274 351.778 1.97519 353.898 1.81214C355.121 1.73062 356.099 1.56756 356.751 1.32299C357.403 1.07841 357.73 0.670779 357.73 0.100098H359.768V0.181624C359.849 1.56756 359.36 2.54587 358.382 3.11656C357.403 3.68724 356.017 4.01334 354.142 4.01334C352.756 4.01334 351.697 4.42097 350.881 5.1547C350.066 5.88844 349.658 6.94827 349.658 8.33421V8.41574C350.148 7.76353 350.881 7.19285 351.697 6.78522C352.512 6.37759 353.49 6.05149 354.387 6.05149ZM353.898 8.08964C352.675 8.08964 351.697 8.57879 351.044 9.5571C350.392 10.5354 350.066 11.8398 350.066 13.3073V13.6334C350.066 15.1824 350.392 16.4053 351.044 17.3836C351.697 18.3619 352.675 18.8511 353.898 18.8511C355.121 18.8511 356.099 18.3619 356.751 17.3836C357.403 16.4053 357.73 15.1009 357.73 13.6334V13.3073C357.73 11.7583 357.403 10.5354 356.751 9.5571C356.099 8.57879 355.121 8.08964 353.898 8.08964Z" fill="#B3B3B3"/>
<path d="M394.5 20.7264V1.32324H400.859C402.897 1.32324 404.446 1.73087 405.588 2.62766C406.729 3.52444 407.3 4.82886 407.3 6.5409C407.3 7.35616 407.055 8.08989 406.566 8.82363C406.077 9.55736 405.343 9.96499 404.528 10.3726C405.832 10.5357 406.81 11.1064 407.544 12.0031C408.278 12.8999 408.686 14.0413 408.686 15.2642C408.686 17.0577 408.115 18.3622 406.973 19.3405C405.832 20.3188 404.283 20.7264 402.245 20.7264H394.5ZM397.19 9.55736H401.43C402.408 9.55736 403.223 9.31278 403.794 8.7421C404.446 8.17142 404.691 7.43769 404.691 6.45937C404.691 5.39954 404.365 4.6658 403.712 4.09512C403.06 3.60597 402.082 3.27986 400.859 3.27986H397.19V9.55736ZM397.19 11.5955V18.6067H402.245C403.468 18.6067 404.365 18.2806 405.017 17.71C405.669 17.1393 405.995 16.2425 405.995 15.1826C405.995 14.1228 405.669 13.226 405.017 12.5738C404.365 11.9216 403.468 11.5955 402.245 11.514H402.082H397.19V11.5955Z" fill="#B3B3B3"/>
<path d="M417.245 18.9329C418.061 18.9329 418.794 18.6883 419.365 18.1176C419.936 17.5469 420.262 16.8947 420.262 16.161H422.626V16.2425C422.626 17.4654 422.137 18.6068 420.996 19.5851C419.854 20.5634 418.631 21.0525 417.164 21.0525C415.126 21.0525 413.577 20.4003 412.435 19.0144C411.294 17.6284 410.805 15.9164 410.805 13.8783V13.3076C410.805 11.2694 411.376 9.55738 412.435 8.17144C413.577 6.7855 415.126 6.1333 417.082 6.1333C418.713 6.1333 420.017 6.62245 420.996 7.60076C421.974 8.57907 422.545 9.80196 422.463 11.2694V11.351H420.099C420.099 10.4542 419.773 9.72044 419.202 9.06823C418.631 8.41602 417.898 8.17144 417.001 8.17144C415.696 8.17144 414.8 8.6606 414.147 9.63891C413.577 10.6172 413.251 11.8401 413.251 13.3076V13.8783C413.251 15.3457 413.577 16.5686 414.147 17.5469C415.044 18.4437 415.941 18.9329 417.245 18.9329Z" fill="#B3B3B3"/>
<path d="M347.605 61.9781C352.785 62.4591 355.412 65.3821 355.412 69.3781C355.412 73.7441 352.193 77.2961 345.607 77.2961C341.907 77.2961 338.281 76.1121 336.098 74.1511L337.8 71.2281C339.539 72.8561 342.425 74.0031 345.607 74.0031C349.492 74.0031 351.712 72.2271 351.712 69.4151C351.712 66.6771 349.751 64.9011 345.311 64.9011H343.239V62.3111L349.751 54.3191H337.282V51.1001H354.376V53.6161L347.605 61.9781Z" fill="#292C33"/>
<path d="M330.643 135V110.58L332.234 112.319H324.797V109.1H334.306V135H330.643ZM350.553 135.296C348.53 135.296 346.717 134.778 345.114 133.742C343.535 132.706 342.277 131.201 341.34 129.228C340.427 127.255 339.971 124.862 339.971 122.05C339.971 119.238 340.427 116.845 341.34 114.872C342.277 112.899 343.535 111.394 345.114 110.358C346.717 109.322 348.53 108.804 350.553 108.804C352.551 108.804 354.352 109.322 355.955 110.358C357.558 111.394 358.816 112.899 359.729 114.872C360.642 116.845 361.098 119.238 361.098 122.05C361.098 124.862 360.642 127.255 359.729 129.228C358.816 131.201 357.558 132.706 355.955 133.742C354.352 134.778 352.551 135.296 350.553 135.296ZM350.553 132.003C351.91 132.003 353.094 131.633 354.105 130.893C355.141 130.153 355.943 129.043 356.51 127.563C357.102 126.083 357.398 124.245 357.398 122.05C357.398 119.855 357.102 118.017 356.51 116.537C355.943 115.057 355.141 113.947 354.105 113.207C353.094 112.467 351.91 112.097 350.553 112.097C349.196 112.097 348 112.467 346.964 113.207C345.928 113.947 345.114 115.057 344.522 116.537C343.955 118.017 343.671 119.855 343.671 122.05C343.671 124.245 343.955 126.083 344.522 127.563C345.114 129.043 345.928 130.153 346.964 130.893C348 131.633 349.196 132.003 350.553 132.003Z" fill="#292C33"/>
<path d="M331.926 192V167.58L333.517 169.319H326.08V166.1H335.589V192H331.926ZM345.731 192L356.72 167.654L357.682 169.319H342.29L344.14 167.506V173.944H340.588V166.1H360.124V168.616L349.653 192H345.731Z" fill="#292C33"/>
<path d="M322.419 249V246.484L332.964 236.309C333.902 235.421 334.592 234.644 335.036 233.978C335.505 233.287 335.813 232.658 335.961 232.091C336.134 231.499 336.22 230.932 336.22 230.389C336.22 229.057 335.752 228.009 334.814 227.244C333.877 226.479 332.508 226.097 330.707 226.097C329.326 226.097 328.08 226.331 326.97 226.8C325.86 227.244 324.898 227.947 324.084 228.909L321.568 226.726C322.555 225.468 323.875 224.506 325.527 223.84C327.205 223.149 329.042 222.804 331.04 222.804C332.841 222.804 334.407 223.1 335.739 223.692C337.071 224.259 338.095 225.086 338.81 226.171C339.55 227.256 339.92 228.539 339.92 230.019C339.92 230.858 339.809 231.684 339.587 232.498C339.365 233.312 338.946 234.175 338.329 235.088C337.713 236.001 336.825 237.024 335.665 238.159L326.267 247.224L325.379 245.781H341.03V249H322.419ZM342.98 242.636V240.046L356.226 223.1H360.222L347.087 240.046L345.2 239.454H365.883V242.636H342.98ZM357.373 249V242.636L357.484 239.454V233.83H360.962V249H357.373Z" fill="#292C33"/>
<path d="M416.274 67.4541V70.6361H411.353V77.0001H407.764V70.6361H393.371V68.0461L406.617 51.1001H410.613L397.922 67.4541H407.875V61.8301H411.353V67.4541H416.274Z" fill="#292C33"/>
<path d="M398.91 135V110.58L400.501 112.319H393.064V109.1H402.573V135H398.91ZM412.604 135V110.58L414.195 112.319H406.758V109.1H416.267V135H412.604Z" fill="#292C33"/>
<path d="M393.852 192V167.58L395.443 169.319H388.006V166.1H397.515V192H393.852ZM413.281 192.296C411.185 192.296 409.372 191.988 407.842 191.371C406.313 190.754 405.129 189.879 404.29 188.744C403.452 187.585 403.032 186.228 403.032 184.674C403.032 183.145 403.427 181.85 404.216 180.789C405.03 179.704 406.202 178.89 407.731 178.347C409.261 177.78 411.111 177.496 413.281 177.496C415.452 177.496 417.302 177.78 418.831 178.347C420.385 178.89 421.569 179.704 422.383 180.789C423.197 181.874 423.604 183.169 423.604 184.674C423.604 186.228 423.185 187.585 422.346 188.744C421.508 189.879 420.311 190.754 418.757 191.371C417.203 191.988 415.378 192.296 413.281 192.296ZM413.281 189.299C415.353 189.299 416.969 188.88 418.128 188.041C419.312 187.178 419.904 186.018 419.904 184.563C419.904 183.132 419.312 182.01 418.128 181.196C416.969 180.357 415.353 179.938 413.281 179.938C411.234 179.938 409.631 180.357 408.471 181.196C407.312 182.01 406.732 183.132 406.732 184.563C406.732 186.018 407.312 187.178 408.471 188.041C409.631 188.88 411.234 189.299 413.281 189.299ZM413.281 179.494C411.308 179.494 409.631 179.235 408.249 178.717C406.868 178.174 405.807 177.41 405.067 176.423C404.327 175.412 403.957 174.215 403.957 172.834C403.957 171.379 404.34 170.133 405.104 169.097C405.894 168.036 406.991 167.222 408.397 166.655C409.803 166.088 411.431 165.804 413.281 165.804C415.156 165.804 416.796 166.088 418.202 166.655C419.608 167.222 420.706 168.036 421.495 169.097C422.285 170.133 422.679 171.379 422.679 172.834C422.679 174.215 422.309 175.412 421.569 176.423C420.829 177.41 419.756 178.174 418.35 178.717C416.944 179.235 415.255 179.494 413.281 179.494ZM413.281 177.126C415.082 177.126 416.488 176.756 417.499 176.016C418.535 175.276 419.053 174.265 419.053 172.982C419.053 171.675 418.523 170.651 417.462 169.911C416.402 169.171 415.008 168.801 413.281 168.801C411.555 168.801 410.173 169.171 409.137 169.911C408.126 170.651 407.62 171.675 407.62 172.982C407.62 174.265 408.114 175.276 409.1 176.016C410.112 176.756 411.505 177.126 413.281 177.126Z" fill="#292C33"/>
<path d="M386.585 249V246.484L397.13 236.309C398.067 235.421 398.758 234.644 399.202 233.978C399.67 233.287 399.979 232.658 400.127 232.091C400.299 231.499 400.386 230.932 400.386 230.389C400.386 229.057 399.917 228.009 398.98 227.244C398.042 226.479 396.673 226.097 394.873 226.097C393.491 226.097 392.246 226.331 391.136 226.8C390.026 227.244 389.064 227.947 388.25 228.909L385.734 226.726C386.72 225.468 388.04 224.506 389.693 223.84C391.37 223.149 393.208 222.804 395.206 222.804C397.006 222.804 398.573 223.1 399.905 223.692C401.237 224.259 402.26 225.086 402.976 226.171C403.716 227.256 404.086 228.539 404.086 230.019C404.086 230.858 403.975 231.684 403.753 232.498C403.531 233.312 403.111 234.175 402.495 235.088C401.878 236.001 400.99 237.024 399.831 238.159L390.433 247.224L389.545 245.781H405.196V249H386.585ZM416.6 249.296C414.775 249.296 412.999 249.012 411.272 248.445C409.57 247.878 408.176 247.113 407.091 246.151L408.793 243.228C409.656 244.042 410.779 244.708 412.16 245.226C413.541 245.744 415.009 246.003 416.563 246.003C418.536 246.003 420.053 245.584 421.114 244.745C422.175 243.906 422.705 242.784 422.705 241.378C422.705 240.416 422.471 239.577 422.002 238.862C421.533 238.147 420.719 237.604 419.56 237.234C418.425 236.839 416.859 236.642 414.861 236.642H408.978L410.347 223.1H424.962V226.319H411.716L413.64 224.506L412.567 235.199L410.643 233.423H415.638C418.228 233.423 420.312 233.756 421.891 234.422C423.47 235.088 424.617 236.013 425.332 237.197C426.047 238.356 426.405 239.701 426.405 241.23C426.405 242.71 426.047 244.067 425.332 245.3C424.617 246.509 423.531 247.483 422.076 248.223C420.645 248.938 418.82 249.296 416.6 249.296Z" fill="#292C33"/>
<path d="M67.1537 306V303.484L77.6987 293.309C78.6361 292.421 79.3267 291.644 79.7707 290.978C80.2394 290.287 80.5477 289.658 80.6957 289.091C80.8684 288.499 80.9547 287.932 80.9547 287.389C80.9547 286.057 80.4861 285.009 79.5487 284.244C78.6114 283.479 77.2424 283.097 75.4417 283.097C74.0604 283.097 72.8147 283.331 71.7047 283.8C70.5947 284.244 69.6327 284.947 68.8187 285.909L66.3027 283.726C67.2894 282.468 68.6091 281.506 70.2617 280.84C71.9391 280.149 73.7767 279.804 75.7747 279.804C77.5754 279.804 79.1417 280.1 80.4737 280.692C81.8057 281.259 82.8294 282.086 83.5447 283.171C84.2847 284.256 84.6547 285.539 84.6547 287.019C84.6547 287.858 84.5437 288.684 84.3217 289.498C84.0997 290.312 83.6804 291.175 83.0637 292.088C82.4471 293.001 81.5591 294.024 80.3997 295.159L71.0017 304.224L70.1137 302.781H85.7647V306H67.1537ZM93.2477 306L104.237 281.654L105.199 283.319H89.8067L91.6567 281.506V287.944H88.1047V280.1H107.641V282.616L97.1697 306H93.2477Z" fill="#292C33"/>
<path d="M130.605 306V303.484L141.15 293.309C142.087 292.421 142.778 291.644 143.222 290.978C143.691 290.287 143.999 289.658 144.147 289.091C144.32 288.499 144.406 287.932 144.406 287.389C144.406 286.057 143.937 285.009 143 284.244C142.063 283.479 140.694 283.097 138.893 283.097C137.512 283.097 136.266 283.331 135.156 283.8C134.046 284.244 133.084 284.947 132.27 285.909L129.754 283.726C130.741 282.468 132.06 281.506 133.713 280.84C135.39 280.149 137.228 279.804 139.226 279.804C141.027 279.804 142.593 280.1 143.925 280.692C145.257 281.259 146.281 282.086 146.996 283.171C147.736 284.256 148.106 285.539 148.106 287.019C148.106 287.858 147.995 288.684 147.773 289.498C147.551 290.312 147.132 291.175 146.515 292.088C145.898 293.001 145.01 294.024 143.851 295.159L134.453 304.224L133.565 302.781H149.216V306H130.605ZM162.359 306.296C160.263 306.296 158.45 305.988 156.92 305.371C155.391 304.754 154.207 303.879 153.368 302.744C152.53 301.585 152.11 300.228 152.11 298.674C152.11 297.145 152.505 295.85 153.294 294.789C154.108 293.704 155.28 292.89 156.809 292.347C158.339 291.78 160.189 291.496 162.359 291.496C164.53 291.496 166.38 291.78 167.909 292.347C169.463 292.89 170.647 293.704 171.461 294.789C172.275 295.874 172.682 297.169 172.682 298.674C172.682 300.228 172.263 301.585 171.424 302.744C170.586 303.879 169.389 304.754 167.835 305.371C166.281 305.988 164.456 306.296 162.359 306.296ZM162.359 303.299C164.431 303.299 166.047 302.88 167.206 302.041C168.39 301.178 168.982 300.018 168.982 298.563C168.982 297.132 168.39 296.01 167.206 295.196C166.047 294.357 164.431 293.938 162.359 293.938C160.312 293.938 158.709 294.357 157.549 295.196C156.39 296.01 155.81 297.132 155.81 298.563C155.81 300.018 156.39 301.178 157.549 302.041C158.709 302.88 160.312 303.299 162.359 303.299ZM162.359 293.494C160.386 293.494 158.709 293.235 157.327 292.717C155.946 292.174 154.885 291.41 154.145 290.423C153.405 289.412 153.035 288.215 153.035 286.834C153.035 285.379 153.418 284.133 154.182 283.097C154.972 282.036 156.069 281.222 157.475 280.655C158.881 280.088 160.509 279.804 162.359 279.804C164.234 279.804 165.874 280.088 167.28 280.655C168.686 281.222 169.784 282.036 170.573 283.097C171.363 284.133 171.757 285.379 171.757 286.834C171.757 288.215 171.387 289.412 170.647 290.423C169.907 291.41 168.834 292.174 167.428 292.717C166.022 293.235 164.333 293.494 162.359 293.494ZM162.359 291.126C164.16 291.126 165.566 290.756 166.577 290.016C167.613 289.276 168.131 288.265 168.131 286.982C168.131 285.675 167.601 284.651 166.54 283.911C165.48 283.171 164.086 282.801 162.359 282.801C160.633 282.801 159.251 283.171 158.215 283.911C157.204 284.651 156.698 285.675 156.698 286.982C156.698 288.265 157.192 289.276 158.178 290.016C159.19 290.756 160.583 291.126 162.359 291.126Z" fill="#292C33"/>
<path d="M194.896 306V303.484L205.441 293.309C206.378 292.421 207.069 291.644 207.513 290.978C207.982 290.287 208.29 289.658 208.438 289.091C208.611 288.499 208.697 287.932 208.697 287.389C208.697 286.057 208.228 285.009 207.291 284.244C206.354 283.479 204.985 283.097 203.184 283.097C201.803 283.097 200.557 283.331 199.447 283.8C198.337 284.244 197.375 284.947 196.561 285.909L194.045 283.726C195.032 282.468 196.351 281.506 198.004 280.84C199.681 280.149 201.519 279.804 203.517 279.804C205.318 279.804 206.884 280.1 208.216 280.692C209.548 281.259 210.572 282.086 211.287 283.171C212.027 284.256 212.397 285.539 212.397 287.019C212.397 287.858 212.286 288.684 212.064 289.498C211.842 290.312 211.423 291.175 210.806 292.088C210.189 293.001 209.301 294.024 208.142 295.159L198.744 304.224L197.856 302.781H213.507V306H194.896ZM224.948 279.804C227.291 279.804 229.265 280.31 230.868 281.321C232.496 282.332 233.729 283.8 234.568 285.724C235.407 287.623 235.826 289.954 235.826 292.717C235.826 295.652 235.308 298.131 234.272 300.154C233.236 302.177 231.805 303.706 229.98 304.742C228.155 305.778 226.021 306.296 223.579 306.296C222.37 306.296 221.199 306.173 220.064 305.926C218.954 305.679 217.98 305.297 217.141 304.779L218.547 301.893C219.238 302.337 220.002 302.658 220.841 302.855C221.704 303.028 222.605 303.114 223.542 303.114C226.157 303.114 228.241 302.3 229.795 300.672C231.349 299.019 232.126 296.577 232.126 293.346C232.126 292.828 232.101 292.211 232.052 291.496C232.003 290.781 231.892 290.078 231.719 289.387L232.94 290.645C232.595 291.78 232.015 292.742 231.201 293.531C230.412 294.296 229.45 294.875 228.315 295.27C227.205 295.64 225.984 295.825 224.652 295.825C222.95 295.825 221.433 295.504 220.101 294.863C218.769 294.222 217.721 293.321 216.956 292.162C216.191 290.978 215.809 289.584 215.809 287.981C215.809 286.304 216.204 284.861 216.993 283.652C217.807 282.419 218.905 281.469 220.286 280.803C221.692 280.137 223.246 279.804 224.948 279.804ZM225.096 282.801C223.986 282.801 222.999 283.011 222.136 283.43C221.273 283.849 220.594 284.429 220.101 285.169C219.632 285.909 219.398 286.797 219.398 287.833C219.398 289.362 219.928 290.583 220.989 291.496C222.05 292.384 223.48 292.828 225.281 292.828C226.465 292.828 227.501 292.606 228.389 292.162C229.302 291.718 230.005 291.114 230.498 290.349C231.016 289.584 231.275 288.733 231.275 287.796C231.275 286.883 231.041 286.057 230.572 285.317C230.103 284.577 229.413 283.973 228.5 283.504C227.587 283.035 226.453 282.801 225.096 282.801Z" fill="#292C33"/>
<path d="M266.138 306.296C264.313 306.296 262.537 306.012 260.81 305.445C259.108 304.878 257.714 304.113 256.629 303.151L258.331 300.228C259.194 301.042 260.317 301.708 261.698 302.226C263.079 302.744 264.559 303.003 266.138 303.003C268.062 303.003 269.554 302.596 270.615 301.782C271.7 300.943 272.243 299.821 272.243 298.415C272.243 297.058 271.725 295.973 270.689 295.159C269.678 294.32 268.062 293.901 265.842 293.901H263.77V291.311L271.466 281.839L271.984 283.319H257.813V280.1H274.907V282.616L267.248 292.051L265.324 290.904H266.545C269.678 290.904 272.021 291.607 273.575 293.013C275.154 294.419 275.943 296.207 275.943 298.378C275.943 299.833 275.585 301.165 274.87 302.374C274.155 303.583 273.069 304.545 271.614 305.26C270.183 305.951 268.358 306.296 266.138 306.296ZM289.976 306.296C287.953 306.296 286.14 305.778 284.537 304.742C282.958 303.706 281.7 302.201 280.763 300.228C279.85 298.255 279.394 295.862 279.394 293.05C279.394 290.238 279.85 287.845 280.763 285.872C281.7 283.899 282.958 282.394 284.537 281.358C286.14 280.322 287.953 279.804 289.976 279.804C291.974 279.804 293.774 280.322 295.378 281.358C296.981 282.394 298.239 283.899 299.152 285.872C300.064 287.845 300.521 290.238 300.521 293.05C300.521 295.862 300.064 298.255 299.152 300.228C298.239 302.201 296.981 303.706 295.378 304.742C293.774 305.778 291.974 306.296 289.976 306.296ZM289.976 303.003C291.332 303.003 292.516 302.633 293.528 301.893C294.564 301.153 295.365 300.043 295.933 298.563C296.525 297.083 296.821 295.245 296.821 293.05C296.821 290.855 296.525 289.017 295.933 287.537C295.365 286.057 294.564 284.947 293.528 284.207C292.516 283.467 291.332 283.097 289.976 283.097C288.619 283.097 287.423 283.467 286.387 284.207C285.351 284.947 284.537 286.057 283.945 287.537C283.377 289.017 283.094 290.855 283.094 293.05C283.094 295.245 283.377 297.083 283.945 298.563C284.537 300.043 285.351 301.153 286.387 301.893C287.423 302.633 288.619 303.003 289.976 303.003Z" fill="#292C33"/>
<path d="M23.1594 135.296C21.3341 135.296 19.5581 135.012 17.8314 134.445C16.1294 133.878 14.7358 133.113 13.6504 132.151L15.3524 129.228C16.2158 130.042 17.3381 130.708 18.7194 131.226C20.1008 131.744 21.5684 132.003 23.1224 132.003C25.0958 132.003 26.6128 131.584 27.6734 130.745C28.7341 129.906 29.2644 128.784 29.2644 127.378C29.2644 126.416 29.0301 125.577 28.5614 124.862C28.0928 124.147 27.2788 123.604 26.1194 123.234C24.9848 122.839 23.4184 122.642 21.4204 122.642H15.5374L16.9064 109.1H31.5214V112.319H18.2754L20.1994 110.506L19.1264 121.199L17.2024 119.423H22.1974C24.7874 119.423 26.8718 119.756 28.4504 120.422C30.0291 121.088 31.1761 122.013 31.8914 123.197C32.6068 124.356 32.9644 125.701 32.9644 127.23C32.9644 128.71 32.6068 130.067 31.8914 131.3C31.1761 132.509 30.0908 133.483 28.6354 134.223C27.2048 134.938 25.3794 135.296 23.1594 135.296Z" fill="#292C33"/>
<path d="M12.3148 192V167.58L13.9058 169.319H6.46875V166.1H15.9778V192H12.3148ZM21.2361 192V189.484L31.7811 179.309C32.7184 178.421 33.4091 177.644 33.8531 176.978C34.3218 176.287 34.6301 175.658 34.7781 175.091C34.9508 174.499 35.0371 173.932 35.0371 173.389C35.0371 172.057 34.5684 171.009 33.6311 170.244C32.6938 169.479 31.3248 169.097 29.5241 169.097C28.1428 169.097 26.8971 169.331 25.7871 169.8C24.6771 170.244 23.7151 170.947 22.9011 171.909L20.3851 169.726C21.3718 168.468 22.6914 167.506 24.3441 166.84C26.0214 166.149 27.8591 165.804 29.8571 165.804C31.6578 165.804 33.2241 166.1 34.5561 166.692C35.8881 167.259 36.9118 168.086 37.6271 169.171C38.3671 170.256 38.7371 171.539 38.7371 173.019C38.7371 173.858 38.6261 174.684 38.4041 175.498C38.1821 176.312 37.7628 177.175 37.1461 178.088C36.5294 179.001 35.6414 180.024 34.4821 181.159L25.0841 190.224L24.1961 188.781H39.8471V192H21.2361Z" fill="#292C33"/>
<path d="M11.5199 249V224.58L13.1109 226.319H5.67383V223.1H15.1829V249H11.5199ZM29.2472 222.804C31.5906 222.804 33.5639 223.31 35.1672 224.321C36.7952 225.332 38.0286 226.8 38.8672 228.724C39.7059 230.623 40.1252 232.954 40.1252 235.717C40.1252 238.652 39.6072 241.131 38.5712 243.154C37.5352 245.177 36.1046 246.706 34.2792 247.742C32.4539 248.778 30.3202 249.296 27.8782 249.296C26.6696 249.296 25.4979 249.173 24.3632 248.926C23.2532 248.679 22.2789 248.297 21.4402 247.779L22.8462 244.893C23.5369 245.337 24.3016 245.658 25.1402 245.855C26.0036 246.028 26.9039 246.114 27.8412 246.114C30.4559 246.114 32.5402 245.3 34.0942 243.672C35.6482 242.019 36.4252 239.577 36.4252 236.346C36.4252 235.828 36.4006 235.211 36.3512 234.496C36.3019 233.781 36.1909 233.078 36.0182 232.387L37.2392 233.645C36.8939 234.78 36.3142 235.742 35.5002 236.531C34.7109 237.296 33.7489 237.875 32.6142 238.27C31.5042 238.64 30.2832 238.825 28.9512 238.825C27.2492 238.825 25.7322 238.504 24.4002 237.863C23.0682 237.222 22.0199 236.321 21.2552 235.162C20.4906 233.978 20.1082 232.584 20.1082 230.981C20.1082 229.304 20.5029 227.861 21.2922 226.652C22.1062 225.419 23.2039 224.469 24.5852 223.803C25.9912 223.137 27.5452 222.804 29.2472 222.804ZM29.3952 225.801C28.2852 225.801 27.2986 226.011 26.4352 226.43C25.5719 226.849 24.8936 227.429 24.4002 228.169C23.9316 228.909 23.6972 229.797 23.6972 230.833C23.6972 232.362 24.2276 233.583 25.2882 234.496C26.3489 235.384 27.7796 235.828 29.5802 235.828C30.7642 235.828 31.8002 235.606 32.6882 235.162C33.6009 234.718 34.3039 234.114 34.7972 233.349C35.3152 232.584 35.5742 231.733 35.5742 230.796C35.5742 229.883 35.3399 229.057 34.8712 228.317C34.4026 227.577 33.7119 226.973 32.7992 226.504C31.8866 226.035 30.7519 225.801 29.3952 225.801Z" fill="#292C33"/>
<path d="M2.98967 306V303.484L13.5347 293.309C14.4721 292.421 15.1627 291.644 15.6067 290.978C16.0754 290.287 16.3837 289.658 16.5317 289.091C16.7044 288.499 16.7907 287.932 16.7907 287.389C16.7907 286.057 16.3221 285.009 15.3847 284.244C14.4474 283.479 13.0784 283.097 11.2777 283.097C9.89634 283.097 8.65067 283.331 7.54067 283.8C6.43067 284.244 5.46867 284.947 4.65467 285.909L2.13867 283.726C3.12533 282.468 4.445 281.506 6.09767 280.84C7.775 280.149 9.61267 279.804 11.6107 279.804C13.4114 279.804 14.9777 280.1 16.3097 280.692C17.6417 281.259 18.6654 282.086 19.3807 283.171C20.1207 284.256 20.4907 285.539 20.4907 287.019C20.4907 287.858 20.3797 288.684 20.1577 289.498C19.9357 290.312 19.5164 291.175 18.8997 292.088C18.2831 293.001 17.3951 294.024 16.2357 295.159L6.83767 304.224L5.94967 302.781H21.6007V306H2.98967ZM35.4847 306.296C33.1907 306.296 31.2297 305.79 29.6017 304.779C27.9737 303.768 26.728 302.312 25.8647 300.413C25.026 298.489 24.6067 296.146 24.6067 293.383C24.6067 290.448 25.1247 287.969 26.1607 285.946C27.1967 283.923 28.6397 282.394 30.4897 281.358C32.3397 280.322 34.461 279.804 36.8537 279.804C38.087 279.804 39.2587 279.927 40.3687 280.174C41.5034 280.421 42.4777 280.803 43.2917 281.321L41.8857 284.207C41.2197 283.738 40.455 283.418 39.5917 283.245C38.753 283.072 37.865 282.986 36.9277 282.986C34.2884 282.986 32.1917 283.812 30.6377 285.465C29.0837 287.093 28.3067 289.523 28.3067 292.754C28.3067 293.272 28.3314 293.889 28.3807 294.604C28.43 295.319 28.5534 296.022 28.7507 296.713L27.4927 295.455C27.8627 294.32 28.4424 293.371 29.2317 292.606C30.0457 291.817 31.0077 291.237 32.1177 290.867C33.2524 290.472 34.4734 290.275 35.7807 290.275C37.5074 290.275 39.0367 290.596 40.3687 291.237C41.7007 291.878 42.749 292.791 43.5137 293.975C44.2784 295.134 44.6607 296.516 44.6607 298.119C44.6607 299.772 44.2537 301.215 43.4397 302.448C42.6257 303.681 41.528 304.631 40.1467 305.297C38.7654 305.963 37.2114 306.296 35.4847 306.296ZM35.3367 303.299C36.4714 303.299 37.458 303.089 38.2967 302.67C39.16 302.251 39.8384 301.671 40.3317 300.931C40.825 300.166 41.0717 299.278 41.0717 298.267C41.0717 296.738 40.5414 295.529 39.4807 294.641C38.42 293.728 36.977 293.272 35.1517 293.272C33.9677 293.272 32.9317 293.494 32.0437 293.938C31.1557 294.382 30.4527 294.986 29.9347 295.751C29.4414 296.491 29.1947 297.342 29.1947 298.304C29.1947 299.192 29.429 300.018 29.8977 300.783C30.3664 301.523 31.057 302.127 31.9697 302.596C32.8824 303.065 34.0047 303.299 35.3367 303.299Z" fill="#292C33"/>
<path d="M88.6827 135.296C86.3887 135.296 84.4277 134.79 82.7997 133.779C81.1717 132.768 79.9261 131.312 79.0627 129.413C78.2241 127.489 77.8047 125.146 77.8047 122.383C77.8047 119.448 78.3227 116.969 79.3587 114.946C80.3947 112.923 81.8377 111.394 83.6877 110.358C85.5377 109.322 87.6591 108.804 90.0517 108.804C91.2851 108.804 92.4567 108.927 93.5667 109.174C94.7014 109.421 95.6757 109.803 96.4897 110.321L95.0837 113.207C94.4177 112.738 93.6531 112.418 92.7897 112.245C91.9511 112.072 91.0631 111.986 90.1257 111.986C87.4864 111.986 85.3897 112.812 83.8357 114.465C82.2817 116.093 81.5047 118.523 81.5047 121.754C81.5047 122.272 81.5294 122.889 81.5787 123.604C81.6281 124.319 81.7514 125.022 81.9487 125.713L80.6907 124.455C81.0607 123.32 81.6404 122.371 82.4297 121.606C83.2437 120.817 84.2057 120.237 85.3157 119.867C86.4504 119.472 87.6714 119.275 88.9787 119.275C90.7054 119.275 92.2347 119.596 93.5667 120.237C94.8987 120.878 95.9471 121.791 96.7117 122.975C97.4764 124.134 97.8587 125.516 97.8587 127.119C97.8587 128.772 97.4517 130.215 96.6377 131.448C95.8237 132.681 94.7261 133.631 93.3447 134.297C91.9634 134.963 90.4094 135.296 88.6827 135.296ZM88.5347 132.299C89.6694 132.299 90.6561 132.089 91.4947 131.67C92.3581 131.251 93.0364 130.671 93.5297 129.931C94.0231 129.166 94.2697 128.278 94.2697 127.267C94.2697 125.738 93.7394 124.529 92.6787 123.641C91.6181 122.728 90.1751 122.272 88.3497 122.272C87.1657 122.272 86.1297 122.494 85.2417 122.938C84.3537 123.382 83.6507 123.986 83.1327 124.751C82.6394 125.491 82.3927 126.342 82.3927 127.304C82.3927 128.192 82.6271 129.018 83.0957 129.783C83.5644 130.523 84.2551 131.127 85.1677 131.596C86.0804 132.065 87.2027 132.299 88.5347 132.299Z" fill="#292C33"/>
<path d="M76.1546 192V167.58L77.7456 169.319H70.3086V166.1H79.8176V192H76.1546ZM93.4009 192.296C91.5756 192.296 89.7996 192.012 88.0729 191.445C86.3709 190.878 84.9773 190.113 83.8919 189.151L85.5939 186.228C86.4573 187.042 87.5796 187.708 88.9609 188.226C90.3423 188.744 91.8223 189.003 93.4009 189.003C95.3249 189.003 96.8173 188.596 97.8779 187.782C98.9633 186.943 99.5059 185.821 99.5059 184.415C99.5059 183.058 98.9879 181.973 97.9519 181.159C96.9406 180.32 95.3249 179.901 93.1049 179.901H91.0329V177.311L98.7289 167.839L99.2469 169.319H85.0759V166.1H102.17V168.616L94.5109 178.051L92.5869 176.904H93.8079C96.9406 176.904 99.2839 177.607 100.838 179.013C102.416 180.419 103.206 182.207 103.206 184.378C103.206 185.833 102.848 187.165 102.133 188.374C101.417 189.583 100.332 190.545 98.8769 191.26C97.4463 191.951 95.6209 192.296 93.4009 192.296Z" fill="#292C33"/>
<path d="M65.8705 249V246.484L76.4155 236.309C77.3528 235.421 78.0435 234.644 78.4875 233.978C78.9562 233.287 79.2645 232.658 79.4125 232.091C79.5852 231.499 79.6715 230.932 79.6715 230.389C79.6715 229.057 79.2028 228.009 78.2655 227.244C77.3282 226.479 75.9592 226.097 74.1585 226.097C72.7772 226.097 71.5315 226.331 70.4215 226.8C69.3115 227.244 68.3495 227.947 67.5355 228.909L65.0195 226.726C66.0062 225.468 67.3258 224.506 68.9785 223.84C70.6558 223.149 72.4935 222.804 74.4915 222.804C76.2922 222.804 77.8585 223.1 79.1905 223.692C80.5225 224.259 81.5462 225.086 82.2615 226.171C83.0015 227.256 83.3715 228.539 83.3715 230.019C83.3715 230.858 83.2605 231.684 83.0385 232.498C82.8165 233.312 82.3972 234.175 81.7805 235.088C81.1638 236.001 80.2758 237.024 79.1165 238.159L69.7185 247.224L68.8305 245.781H84.4815V249H65.8705ZM98.0694 249.296C96.0468 249.296 94.2338 248.778 92.6304 247.742C91.0518 246.706 89.7938 245.201 88.8564 243.228C87.9438 241.255 87.4874 238.862 87.4874 236.05C87.4874 233.238 87.9438 230.845 88.8564 228.872C89.7938 226.899 91.0518 225.394 92.6304 224.358C94.2338 223.322 96.0468 222.804 98.0694 222.804C100.067 222.804 101.868 223.322 103.471 224.358C105.074 225.394 106.332 226.899 107.245 228.872C108.158 230.845 108.614 233.238 108.614 236.05C108.614 238.862 108.158 241.255 107.245 243.228C106.332 245.201 105.074 246.706 103.471 247.742C101.868 248.778 100.067 249.296 98.0694 249.296ZM98.0694 246.003C99.4261 246.003 100.61 245.633 101.621 244.893C102.657 244.153 103.459 243.043 104.026 241.563C104.618 240.083 104.914 238.245 104.914 236.05C104.914 233.855 104.618 232.017 104.026 230.537C103.459 229.057 102.657 227.947 101.621 227.207C100.61 226.467 99.4261 226.097 98.0694 226.097C96.7128 226.097 95.5164 226.467 94.4804 227.207C93.4444 227.947 92.6304 229.057 92.0384 230.537C91.4711 232.017 91.1874 233.855 91.1874 236.05C91.1874 238.245 91.4711 240.083 92.0384 241.563C92.6304 243.043 93.4444 244.153 94.4804 244.893C95.5164 245.633 96.7128 246.003 98.0694 246.003Z" fill="white"/>
<path d="M146.959 135L157.948 110.654L158.91 112.319H143.518L145.368 110.506V116.944H141.816V109.1H161.352V111.616L150.881 135H146.959Z" fill="#292C33"/>
<path d="M138.684 192V167.58L140.275 169.319H132.838V166.1H142.347V192H138.684ZM147.643 185.636V183.046L160.889 166.1H164.885L151.75 183.046L149.863 182.454H170.546V185.636H147.643ZM162.036 192V185.636L162.147 182.454V176.83H165.625V192H162.036Z" fill="#292C33"/>
<path d="M135.663 249V246.484L146.208 236.309C147.145 235.421 147.837 234.644 148.281 233.978C148.749 233.287 149.057 232.658 149.205 232.091C149.377 231.499 149.464 230.932 149.464 230.389C149.464 229.057 148.996 228.009 148.059 227.244C147.121 226.479 145.751 226.097 143.951 226.097C142.569 226.097 141.324 226.331 140.214 226.8C139.104 227.244 138.142 227.947 137.328 228.909L134.812 226.726C135.799 225.468 137.118 224.506 138.771 223.84C140.448 223.149 142.287 222.804 144.285 222.804C146.085 222.804 147.651 223.1 148.983 223.692C150.315 224.259 151.338 225.086 152.054 226.171C152.794 227.256 153.164 228.539 153.164 230.019C153.164 230.858 153.053 231.684 152.831 232.498C152.609 233.312 152.19 234.175 151.574 235.088C150.957 236.001 150.069 237.024 148.91 238.159L139.511 247.224L138.623 245.781H154.274V249H135.663ZM161.682 249V224.58L163.273 226.319H155.837V223.1H165.345V249H161.682Z" fill="white"/>
<path d="M211.949 52.1001H221.458V78.0001H217.795V55.3191H211.949V52.1001Z" fill="#292C33"/>
<path d="M215.538 135.296C213.442 135.296 211.629 134.988 210.099 134.371C208.57 133.754 207.386 132.879 206.547 131.744C205.709 130.585 205.289 129.228 205.289 127.674C205.289 126.145 205.684 124.85 206.473 123.789C207.287 122.704 208.459 121.89 209.988 121.347C211.518 120.78 213.368 120.496 215.538 120.496C217.709 120.496 219.559 120.78 221.088 121.347C222.642 121.89 223.826 122.704 224.64 123.789C225.454 124.874 225.861 126.169 225.861 127.674C225.861 129.228 225.442 130.585 224.603 131.744C223.765 132.879 222.568 133.754 221.014 134.371C219.46 134.988 217.635 135.296 215.538 135.296ZM215.538 132.299C217.61 132.299 219.226 131.88 220.385 131.041C221.569 130.178 222.161 129.018 222.161 127.563C222.161 126.132 221.569 125.01 220.385 124.196C219.226 123.357 217.61 122.938 215.538 122.938C213.491 122.938 211.888 123.357 210.728 124.196C209.569 125.01 208.989 126.132 208.989 127.563C208.989 129.018 209.569 130.178 210.728 131.041C211.888 131.88 213.491 132.299 215.538 132.299ZM215.538 122.494C213.565 122.494 211.888 122.235 210.506 121.717C209.125 121.174 208.064 120.41 207.324 119.423C206.584 118.412 206.214 117.215 206.214 115.834C206.214 114.379 206.597 113.133 207.361 112.097C208.151 111.036 209.248 110.222 210.654 109.655C212.06 109.088 213.688 108.804 215.538 108.804C217.413 108.804 219.053 109.088 220.459 109.655C221.865 110.222 222.963 111.036 223.752 112.097C224.542 113.133 224.936 114.379 224.936 115.834C224.936 117.215 224.566 118.412 223.826 119.423C223.086 120.41 222.013 121.174 220.607 121.717C219.201 122.235 217.512 122.494 215.538 122.494ZM215.538 120.126C217.339 120.126 218.745 119.756 219.756 119.016C220.792 118.276 221.31 117.265 221.31 115.982C221.31 114.675 220.78 113.651 219.719 112.911C218.659 112.171 217.265 111.801 215.538 111.801C213.812 111.801 212.43 112.171 211.394 112.911C210.383 113.651 209.877 114.675 209.877 115.982C209.877 117.265 210.371 118.276 211.357 119.016C212.369 119.756 213.762 120.126 215.538 120.126Z" fill="#292C33"/>
<path d="M204.239 192V167.58L205.83 169.319H198.393V166.1H207.902V192H204.239ZM221.929 192.296C220.104 192.296 218.328 192.012 216.601 191.445C214.899 190.878 213.506 190.113 212.42 189.151L214.122 186.228C214.986 187.042 216.108 187.708 217.489 188.226C218.871 188.744 220.338 189.003 221.892 189.003C223.866 189.003 225.383 188.584 226.443 187.745C227.504 186.906 228.034 185.784 228.034 184.378C228.034 183.416 227.8 182.577 227.331 181.862C226.863 181.147 226.049 180.604 224.889 180.234C223.755 179.839 222.188 179.642 220.19 179.642H214.307L215.676 166.1H230.291V169.319H217.045L218.969 167.506L217.896 178.199L215.972 176.423H220.967C223.557 176.423 225.642 176.756 227.22 177.422C228.799 178.088 229.946 179.013 230.661 180.197C231.377 181.356 231.734 182.701 231.734 184.23C231.734 185.71 231.377 187.067 230.661 188.3C229.946 189.509 228.861 190.483 227.405 191.223C225.975 191.938 224.149 192.296 221.929 192.296Z" fill="#292C33"/>
<path d="M195.691 249V246.484L206.236 236.309C207.174 235.421 207.864 234.644 208.308 233.978C208.777 233.287 209.085 232.658 209.233 232.091C209.406 231.499 209.492 230.932 209.492 230.389C209.492 229.057 209.024 228.009 208.086 227.244C207.149 226.479 205.78 226.097 203.979 226.097C202.598 226.097 201.352 226.331 200.242 226.8C199.132 227.244 198.17 227.947 197.356 228.909L194.84 226.726C195.827 225.468 197.146 224.506 198.799 223.84C200.477 223.149 202.314 222.804 204.312 222.804C206.113 222.804 207.679 223.1 209.011 223.692C210.343 224.259 211.367 225.086 212.082 226.171C212.822 227.256 213.192 228.539 213.192 230.019C213.192 230.858 213.081 231.684 212.859 232.498C212.637 233.312 212.218 234.175 211.601 235.088C210.985 236.001 210.097 237.024 208.937 238.159L199.539 247.224L198.651 245.781H214.302V249H195.691ZM216.937 249V246.484L227.482 236.309C228.42 235.421 229.11 234.644 229.554 233.978C230.023 233.287 230.331 232.658 230.479 232.091C230.652 231.499 230.738 230.932 230.738 230.389C230.738 229.057 230.27 228.009 229.332 227.244C228.395 226.479 227.026 226.097 225.225 226.097C223.844 226.097 222.598 226.331 221.488 226.8C220.378 227.244 219.416 227.947 218.602 228.909L216.086 226.726C217.073 225.468 218.393 224.506 220.045 223.84C221.723 223.149 223.56 222.804 225.558 222.804C227.359 222.804 228.925 223.1 230.257 223.692C231.589 224.259 232.613 225.086 233.328 226.171C234.068 227.256 234.438 228.539 234.438 230.019C234.438 230.858 234.327 231.684 234.105 232.498C233.883 233.312 233.464 234.175 232.847 235.088C232.231 236.001 231.343 237.024 230.183 238.159L220.785 247.224L219.897 245.781H235.548V249H216.937Z" fill="#292C33"/>
<path d="M278.127 108.804C280.471 108.804 282.444 109.31 284.047 110.321C285.675 111.332 286.909 112.8 287.747 114.724C288.586 116.623 289.005 118.954 289.005 121.717C289.005 124.652 288.487 127.131 287.451 129.154C286.415 131.177 284.985 132.706 283.159 133.742C281.334 134.778 279.2 135.296 276.758 135.296C275.55 135.296 274.378 135.173 273.243 134.926C272.133 134.679 271.159 134.297 270.32 133.779L271.726 130.893C272.417 131.337 273.182 131.658 274.02 131.855C274.884 132.028 275.784 132.114 276.721 132.114C279.336 132.114 281.42 131.3 282.974 129.672C284.528 128.019 285.305 125.577 285.305 122.346C285.305 121.828 285.281 121.211 285.231 120.496C285.182 119.781 285.071 119.078 284.898 118.387L286.119 119.645C285.774 120.78 285.194 121.742 284.38 122.531C283.591 123.296 282.629 123.875 281.494 124.27C280.384 124.64 279.163 124.825 277.831 124.825C276.129 124.825 274.612 124.504 273.28 123.863C271.948 123.222 270.9 122.321 270.135 121.162C269.371 119.978 268.988 118.584 268.988 116.981C268.988 115.304 269.383 113.861 270.172 112.652C270.986 111.419 272.084 110.469 273.465 109.803C274.871 109.137 276.425 108.804 278.127 108.804ZM278.275 111.801C277.165 111.801 276.179 112.011 275.315 112.43C274.452 112.849 273.774 113.429 273.28 114.169C272.812 114.909 272.577 115.797 272.577 116.833C272.577 118.362 273.108 119.583 274.168 120.496C275.229 121.384 276.66 121.828 278.46 121.828C279.644 121.828 280.68 121.606 281.568 121.162C282.481 120.718 283.184 120.114 283.677 119.349C284.195 118.584 284.454 117.733 284.454 116.796C284.454 115.883 284.22 115.057 283.751 114.317C283.283 113.577 282.592 112.973 281.679 112.504C280.767 112.035 279.632 111.801 278.275 111.801Z" fill="#292C33"/>
<path d="M267.246 192V167.58L268.837 169.319H261.4V166.1H270.909V192H267.246ZM287.453 192.296C285.159 192.296 283.198 191.79 281.57 190.779C279.942 189.768 278.696 188.312 277.833 186.413C276.994 184.489 276.575 182.146 276.575 179.383C276.575 176.448 277.093 173.969 278.129 171.946C279.165 169.923 280.608 168.394 282.458 167.358C284.308 166.322 286.429 165.804 288.822 165.804C290.055 165.804 291.227 165.927 292.337 166.174C293.471 166.421 294.446 166.803 295.26 167.321L293.854 170.207C293.188 169.738 292.423 169.418 291.56 169.245C290.721 169.072 289.833 168.986 288.896 168.986C286.256 168.986 284.16 169.812 282.606 171.465C281.052 173.093 280.275 175.523 280.275 178.754C280.275 179.272 280.299 179.889 280.349 180.604C280.398 181.319 280.521 182.022 280.719 182.713L279.461 181.455C279.831 180.32 280.41 179.371 281.2 178.606C282.014 177.817 282.976 177.237 284.086 176.867C285.22 176.472 286.441 176.275 287.749 176.275C289.475 176.275 291.005 176.596 292.337 177.237C293.669 177.878 294.717 178.791 295.482 179.975C296.246 181.134 296.629 182.516 296.629 184.119C296.629 185.772 296.222 187.215 295.408 188.448C294.594 189.681 293.496 190.631 292.115 191.297C290.733 191.963 289.179 192.296 287.453 192.296ZM287.305 189.299C288.439 189.299 289.426 189.089 290.265 188.67C291.128 188.251 291.806 187.671 292.3 186.931C292.793 186.166 293.04 185.278 293.04 184.267C293.04 182.738 292.509 181.529 291.449 180.641C290.388 179.728 288.945 179.272 287.12 179.272C285.936 179.272 284.9 179.494 284.012 179.938C283.124 180.382 282.421 180.986 281.903 181.751C281.409 182.491 281.163 183.342 281.163 184.304C281.163 185.192 281.397 186.018 281.866 186.783C282.334 187.523 283.025 188.127 283.938 188.596C284.85 189.065 285.973 189.299 287.305 189.299Z" fill="#292C33"/>
<path d="M259.529 249V246.484L270.074 236.309C271.012 235.421 271.702 234.644 272.146 233.978C272.615 233.287 272.923 232.658 273.071 232.091C273.244 231.499 273.33 230.932 273.33 230.389C273.33 229.057 272.862 228.009 271.924 227.244C270.987 226.479 269.618 226.097 267.817 226.097C266.436 226.097 265.19 226.331 264.08 226.8C262.97 227.244 262.008 227.947 261.194 228.909L258.678 226.726C259.665 225.468 260.985 224.506 262.637 223.84C264.315 223.149 266.152 222.804 268.15 222.804C269.951 222.804 271.517 223.1 272.849 223.692C274.181 224.259 275.205 225.086 275.92 226.171C276.66 227.256 277.03 228.539 277.03 230.019C277.03 230.858 276.919 231.684 276.697 232.498C276.475 233.312 276.056 234.175 275.439 235.088C274.823 236.001 273.935 237.024 272.775 238.159L263.377 247.224L262.489 245.781H278.14V249H259.529ZM289.1 249.296C287.275 249.296 285.499 249.012 283.772 248.445C282.07 247.878 280.677 247.113 279.591 246.151L281.293 243.228C282.157 244.042 283.279 244.708 284.66 245.226C286.042 245.744 287.522 246.003 289.1 246.003C291.024 246.003 292.517 245.596 293.577 244.782C294.663 243.943 295.205 242.821 295.205 241.415C295.205 240.058 294.687 238.973 293.651 238.159C292.64 237.32 291.024 236.901 288.804 236.901H286.732V234.311L294.428 224.839L294.946 226.319H280.775V223.1H297.869V225.616L290.21 235.051L288.286 233.904H289.507C292.64 233.904 294.983 234.607 296.537 236.013C298.116 237.419 298.905 239.207 298.905 241.378C298.905 242.833 298.548 244.165 297.832 245.374C297.117 246.583 296.032 247.545 294.576 248.26C293.146 248.951 291.32 249.296 289.1 249.296Z" fill="#292C33"/>
<path d="M279.574 74.7812H292.857V78.0002H274.246V75.4842L284.791 65.3092C287.529 62.6452 288.047 61.0172 288.047 59.3892C288.047 56.7252 286.16 55.0972 282.534 55.0972C279.759 55.0972 277.502 55.9852 275.911 57.9092L273.395 55.7262C275.393 53.2472 278.834 51.8042 282.867 51.8042C288.269 51.8042 291.747 54.5792 291.747 59.0192C291.747 61.5352 291.007 63.7922 287.492 67.1592L279.574 74.7812Z" fill="#292C33"/>
</g>
<path d="M335.509 306.196C333.684 306.196 331.908 305.912 330.181 305.345C328.479 304.778 327.086 304.013 326 303.051L327.702 300.128C328.566 300.942 329.688 301.608 331.069 302.126C332.451 302.644 333.931 302.903 335.509 302.903C337.433 302.903 338.926 302.496 339.986 301.682C341.072 300.843 341.614 299.721 341.614 298.315C341.614 296.958 341.096 295.873 340.06 295.059C339.049 294.22 337.433 293.801 335.213 293.801H333.141V291.211L340.837 281.739L341.355 283.219H327.184V280H344.278V282.516L336.619 291.951L334.695 290.804H335.916C339.049 290.804 341.392 291.507 342.946 292.913C344.525 294.319 345.314 296.107 345.314 298.278C345.314 299.733 344.957 301.065 344.241 302.274C343.526 303.483 342.441 304.445 340.985 305.16C339.555 305.851 337.729 306.196 335.509 306.196ZM353.131 305.9V281.48L354.722 283.219H347.285V280H356.794V305.9H353.131Z" fill="#292C33"/>
</g>
</svg>
