<svg width="431" height="314" viewBox="0 0 431 314" fill="none" xmlns="http://www.w3.org/2000/svg">
<g clip-path="url(#clip0_525_2678)">
<rect width="57" height="47" transform="translate(123.518 267.125)" fill="#3C78EC"/>
<path d="M22.9564 20.7264H20.3476V3.36139H10.8906V20.7264H8.2002V1.32324H22.8749V20.7264H22.9564Z" fill="#B3B3B3"/>
<path d="M38.7725 20.7264H36.1636V14.6119H29.7231V20.7264H27.1143V6.29626H29.7231V12.5738H36.1636V6.29626H38.7725V20.7264Z" fill="#B3B3B3"/>
<path d="M73 20.7264V1.32324H79.359C81.3972 1.32324 82.9462 1.73087 84.0875 2.62766C85.2289 3.52444 85.7996 4.82886 85.7996 6.5409C85.7996 7.35616 85.555 8.08989 85.0658 8.82363C84.5767 9.55736 83.8429 9.96499 83.0277 10.2911C84.3321 10.4541 85.3104 11.0248 86.0441 11.9216C86.7779 12.8184 87.1855 13.9598 87.1855 15.1826C87.1855 16.9762 86.6148 18.2806 85.4735 19.2589C84.3321 20.2373 82.7831 20.6449 80.745 20.6449H73V20.7264ZM75.6904 9.55736H79.9297C80.908 9.55736 81.7233 9.31278 82.294 8.7421C82.9462 8.17142 83.1907 7.43769 83.1907 6.45937C83.1907 5.39954 82.8646 4.6658 82.2124 4.09512C81.5602 3.60597 80.5819 3.27986 79.359 3.27986H75.6904V9.55736ZM75.6904 11.5955V18.6067H80.745C81.9678 18.6067 82.8646 18.2806 83.5168 17.71C84.1691 17.1393 84.4952 16.2425 84.4952 15.1826C84.4952 14.1228 84.1691 13.226 83.5168 12.5738C82.8646 11.9216 81.9678 11.5955 80.745 11.514H80.5819H75.6904V11.5955Z" fill="#B3B3B3"/>
<path d="M101.126 8.33441H96.3978V20.7264H93.7889V8.33441H89.0604V6.29626H101.126V8.33441Z" fill="#B3B3B3"/>
<path d="M150.512 14.5304C150.593 16.4055 149.941 17.9545 148.637 19.1773C147.332 20.4002 145.62 21.0524 143.419 21.0524C141.218 21.0524 139.424 20.2372 138.038 18.6882C136.652 17.1392 136 15.1826 136 12.7368V9.31271C136 6.94846 136.652 4.91031 138.038 3.36132C139.424 1.81233 141.218 0.99707 143.419 0.99707C145.62 0.99707 147.332 1.56775 148.637 2.70911C149.941 3.85048 150.593 5.39947 150.512 7.35609V7.43762H147.984C147.984 6.05168 147.577 4.99184 146.761 4.17658C145.946 3.36132 144.805 2.95369 143.337 2.95369C141.87 2.95369 140.729 3.52437 139.832 4.74726C138.935 5.88862 138.527 7.35609 138.527 9.14966V12.6553C138.527 14.4488 138.935 15.9163 139.832 17.0577C140.729 18.199 141.87 18.8512 143.337 18.8512C144.805 18.8512 145.946 18.4436 146.761 17.7099C147.577 16.8946 147.984 15.8348 147.984 14.4488H150.512V14.5304Z" fill="#B3B3B3"/>
<path d="M165.92 14.0413C165.92 16.161 165.431 17.7915 164.452 19.0959C163.474 20.4003 162.088 20.971 160.295 20.971C159.398 20.971 158.664 20.8079 157.93 20.5634C157.278 20.2373 156.707 19.8296 156.218 19.259V26.2702H153.609V6.29634H155.648L156.055 8.17143C156.544 7.4377 157.115 6.94854 157.849 6.62244C158.583 6.29634 159.398 6.05176 160.295 6.05176C162.088 6.05176 163.474 6.78549 164.452 8.17143C165.431 9.55737 165.92 11.4325 165.92 13.7967V14.0413ZM163.311 13.7967C163.311 12.1662 162.985 10.7803 162.333 9.80195C161.681 8.82364 160.702 8.25296 159.479 8.25296C158.746 8.25296 158.093 8.41601 157.523 8.74211C156.952 9.06822 156.544 9.55737 156.218 10.1281V17.1393C156.544 17.71 156.952 18.1991 157.523 18.5252C158.093 18.8513 158.746 19.0144 159.479 19.0144C160.702 19.0144 161.681 18.5252 162.333 17.6284C162.985 16.7317 163.311 15.5088 163.311 14.1228V13.7967Z" fill="#B3B3B3"/>
<path d="M215.43 1.32324V20.7264H212.821V12.6553C212.006 12.8999 211.191 13.063 210.375 13.226C209.56 13.3076 208.663 13.3891 207.522 13.3891C205.402 13.3891 203.772 12.8999 202.631 12.0031C201.489 11.1064 201 9.55736 201 7.43769V1.32324H203.609V7.43769C203.609 8.90515 203.935 9.88346 204.506 10.4541C205.158 11.0248 206.136 11.2694 207.441 11.2694C208.337 11.2694 209.234 11.1879 210.131 11.1064C210.946 10.9433 211.843 10.7802 212.74 10.5357V1.32324H215.43Z" fill="#B3B3B3"/>
<path d="M230.675 8.33441H225.947V20.7264H223.338V8.33441H218.61V6.29626H230.675V8.33441Z" fill="#B3B3B3"/>
<path d="M279.675 20.7264H277.066V3.36139H267.609V20.7264H265V1.32324H279.675V20.7264Z" fill="#B3B3B3"/>
<path d="M294.92 8.33453H290.192V20.7265H287.583V8.33453H282.854V6.29639H294.92V8.33453Z" fill="#B3B3B3"/>
<path d="M344.512 14.5302C344.593 16.4053 343.941 17.9543 342.637 19.1772C341.332 20.4001 339.62 21.0523 337.419 21.0523C335.218 21.0523 333.424 20.237 332.038 18.688C330.652 17.139 330 15.1824 330 12.7366V9.31253C330 6.94828 330.652 4.91013 332.038 3.36114C333.424 1.81215 335.218 0.996887 337.419 0.996887C339.62 0.996887 341.332 1.56757 342.637 2.70893C343.941 3.85029 344.593 5.39929 344.512 7.35591V7.43743H341.984C341.984 6.05149 341.577 4.99166 340.761 4.1764C339.946 3.36114 338.805 2.95351 337.337 2.95351C335.87 2.95351 334.729 3.52419 333.832 4.74708C332.935 5.88844 332.527 7.35591 332.527 9.14948V12.6551C332.527 14.4487 332.935 15.9161 333.832 17.0575C334.729 18.1989 335.87 18.8511 337.337 18.8511C338.805 18.8511 339.946 18.4434 340.761 17.7097C341.577 16.8944 341.984 15.8346 341.984 14.4487H344.512V14.5302Z" fill="#B3B3B3"/>
<path d="M353.887 6.05149C355.762 6.05149 357.148 6.7037 358.208 8.08964C359.268 9.47558 359.838 11.1876 359.838 13.3888V13.7149C359.838 15.8346 359.268 17.6282 358.126 19.0141C356.985 20.4 355.436 21.0523 353.398 21.0523C351.36 21.0523 349.811 20.4 348.669 19.0141C347.528 17.6282 346.957 15.9161 346.957 13.7149V13.3888C346.957 13.3073 346.957 13.2258 346.957 13.2258C346.957 13.1442 346.957 13.1442 346.957 13.0627V9.96473C346.957 7.19285 347.528 5.23623 348.588 3.93182C349.648 2.6274 351.278 1.97519 353.398 1.81214C354.621 1.73062 355.599 1.56756 356.251 1.32299C356.903 1.07841 357.23 0.670779 357.23 0.100098H359.268V0.181624C359.349 1.56756 358.86 2.54587 357.882 3.11656C356.903 3.68724 355.517 4.01334 353.642 4.01334C352.256 4.01334 351.197 4.42097 350.381 5.1547C349.566 5.88844 349.158 6.94827 349.158 8.33421V8.41574C349.648 7.76353 350.381 7.19285 351.197 6.78522C352.012 6.37759 352.99 6.05149 353.887 6.05149ZM353.398 8.08964C352.175 8.08964 351.197 8.57879 350.544 9.5571C349.892 10.5354 349.566 11.8398 349.566 13.3073V13.6334C349.566 15.1824 349.892 16.4053 350.544 17.3836C351.197 18.3619 352.175 18.8511 353.398 18.8511C354.621 18.8511 355.599 18.3619 356.251 17.3836C356.903 16.4053 357.23 15.1009 357.23 13.6334V13.3073C357.23 11.7583 356.903 10.5354 356.251 9.5571C355.599 8.57879 354.621 8.08964 353.398 8.08964Z" fill="#B3B3B3"/>
<path d="M394 20.7264V1.32324H400.359C402.397 1.32324 403.946 1.73087 405.088 2.62766C406.229 3.52444 406.8 4.82886 406.8 6.5409C406.8 7.35616 406.555 8.08989 406.066 8.82363C405.577 9.55736 404.843 9.96499 404.028 10.3726C405.332 10.5357 406.31 11.1064 407.044 12.0031C407.778 12.8999 408.186 14.0413 408.186 15.2642C408.186 17.0577 407.615 18.3622 406.473 19.3405C405.332 20.3188 403.783 20.7264 401.745 20.7264H394ZM396.69 9.55736H400.93C401.908 9.55736 402.723 9.31278 403.294 8.7421C403.946 8.17142 404.191 7.43769 404.191 6.45937C404.191 5.39954 403.865 4.6658 403.212 4.09512C402.56 3.60597 401.582 3.27986 400.359 3.27986H396.69V9.55736ZM396.69 11.5955V18.6067H401.745C402.968 18.6067 403.865 18.2806 404.517 17.71C405.169 17.1393 405.495 16.2425 405.495 15.1826C405.495 14.1228 405.169 13.226 404.517 12.5738C403.865 11.9216 402.968 11.5955 401.745 11.514H401.582H396.69V11.5955Z" fill="#B3B3B3"/>
<path d="M416.745 18.9326C417.561 18.9326 418.294 18.688 418.865 18.1173C419.436 17.5466 419.762 16.8944 419.762 16.1607H422.126V16.2422C422.126 17.4651 421.637 18.6065 420.496 19.5848C419.354 20.5631 418.131 21.0522 416.664 21.0522C414.626 21.0522 413.077 20.4 411.935 19.0141C410.794 17.6281 410.305 15.9161 410.305 13.878V13.3073C410.305 11.2691 410.876 9.55708 411.935 8.17114C413.077 6.7852 414.626 6.133 416.582 6.133C418.213 6.133 419.517 6.62215 420.496 7.60046C421.474 8.57877 422.045 9.80166 421.963 11.2691V11.3507H419.599C419.599 10.4539 419.273 9.72014 418.702 9.06793C418.131 8.41572 417.398 8.17114 416.501 8.17114C415.196 8.17114 414.3 8.6603 413.647 9.63861C413.077 10.6169 412.751 11.8398 412.751 13.3073V13.878C412.751 15.3454 413.077 16.5683 413.647 17.5466C414.544 18.4434 415.441 18.9326 416.745 18.9326Z" fill="#B3B3B3"/>
<path d="M217.812 63.0405C222.992 63.5215 225.619 66.4445 225.619 70.4405C225.619 74.8065 222.4 78.3585 215.814 78.3585C212.114 78.3585 208.488 77.1745 206.305 75.2135L208.007 72.2905C209.746 73.9185 212.632 75.0655 215.814 75.0655C219.699 75.0655 221.919 73.2895 221.919 70.4775C221.919 67.7395 219.958 65.9635 215.518 65.9635H213.446V63.3735L219.958 55.3815H207.489V52.1625H224.583V54.6785L217.812 63.0405Z" fill="#292C33"/>
<path d="M197.817 104.475H207.326V130.375H203.663V107.694H197.817V104.475ZM223.573 130.671C217.505 130.671 212.991 125.861 212.991 117.425C212.991 108.989 217.505 104.179 223.573 104.179C229.604 104.179 234.118 108.989 234.118 117.425C234.118 125.861 229.604 130.671 223.573 130.671ZM223.573 127.378C227.606 127.378 230.418 124.048 230.418 117.425C230.418 110.802 227.606 107.472 223.573 107.472C219.503 107.472 216.691 110.802 216.691 117.425C216.691 124.048 219.503 127.378 223.573 127.378Z" fill="#292C33"/>
<path d="M199.099 157.6H208.608V183.5H204.945V160.819H199.099V157.6ZM213.608 157.6H233.144V160.116L222.673 183.5H218.751L229 160.819H217.16V165.444H213.608V157.6Z" fill="#292C33"/>
<path d="M200.749 239.906H214.032V243.125H195.421V240.609L205.966 230.434C208.704 227.77 209.222 226.142 209.222 224.514C209.222 221.85 207.335 220.222 203.709 220.222C200.934 220.222 198.677 221.11 197.086 223.034L194.57 220.851C196.568 218.372 200.009 216.929 204.042 216.929C209.444 216.929 212.922 219.704 212.922 224.144C212.922 226.66 212.182 228.917 208.667 232.284L200.749 239.906ZM238.921 233.579V236.761H234V243.125H230.411V236.761H216.018V234.171L229.264 217.225H233.26L220.569 233.579H230.522V227.955H234V233.579H238.921Z" fill="#292C33"/>
<path d="M291.794 68.5165V71.6985H286.873V78.0625H283.284V71.6985H268.891V69.1085L282.137 52.1625H286.133L273.442 68.5165H283.395V62.8925H286.873V68.5165H291.794Z" fill="#292C33"/>
<path d="M266.462 104.475H275.971V130.375H272.308V107.694H266.462V104.475ZM280.156 104.475H289.665V130.375H286.002V107.694H280.156V104.475Z" fill="#292C33"/>
<path d="M261.403 157.6H270.912V183.5H267.249V160.819H261.403V157.6ZM292.414 169.921C295.374 171.068 297.002 173.214 297.002 176.174C297.002 180.873 293.006 183.796 286.679 183.796C280.389 183.796 276.43 180.873 276.43 176.174C276.43 173.214 278.058 171.031 280.981 169.921C278.613 168.811 277.355 166.887 277.355 164.334C277.355 160.005 281.092 157.304 286.679 157.304C292.303 157.304 296.077 160.005 296.077 164.334C296.077 166.887 294.782 168.811 292.414 169.921ZM286.679 160.301C283.201 160.301 281.018 161.892 281.018 164.482C281.018 167.035 283.127 168.626 286.679 168.626C290.268 168.626 292.451 167.035 292.451 164.482C292.451 161.892 290.157 160.301 286.679 160.301ZM286.679 180.799C290.786 180.799 293.302 178.986 293.302 176.063C293.302 173.214 290.786 171.438 286.679 171.438C282.572 171.438 280.13 173.214 280.13 176.063C280.13 178.986 282.572 180.799 286.679 180.799Z" fill="#292C33"/>
<path d="M265.311 239.906H278.594V243.125H259.983V240.609L270.528 230.434C273.266 227.77 273.784 226.142 273.784 224.514C273.784 221.85 271.897 220.222 268.271 220.222C265.496 220.222 263.239 221.11 261.648 223.034L259.132 220.851C261.13 218.372 264.571 216.929 268.604 216.929C274.006 216.929 277.484 219.704 277.484 224.144C277.484 226.66 276.744 228.917 273.229 232.284L265.311 239.906ZM289.036 227.548C296.769 227.548 299.803 230.767 299.803 235.355C299.803 239.832 296.621 243.421 289.998 243.421C286.335 243.421 282.709 242.237 280.489 240.276L282.191 237.353C283.93 238.981 286.816 240.128 289.961 240.128C293.883 240.128 296.103 238.315 296.103 235.503C296.103 232.58 294.253 230.767 288.259 230.767H282.376L283.745 217.225H298.36V220.444H286.853L286.15 227.548H289.036Z" fill="#292C33"/>
<path d="M391.942 239.906H405.225V243.125H386.614V240.609L397.159 230.434C399.897 227.77 400.415 226.142 400.415 224.514C400.415 221.85 398.528 220.222 394.902 220.222C392.127 220.222 389.87 221.11 388.279 223.034L385.763 220.851C387.761 218.372 391.202 216.929 395.235 216.929C400.637 216.929 404.115 219.704 404.115 224.144C404.115 226.66 403.375 228.917 399.86 232.284L391.942 239.906ZM407.493 217.225H427.029V219.741L416.558 243.125H412.636L422.885 220.444H411.045V225.069H407.493V217.225Z" fill="#292C33"/>
<path d="M-1.14138 305.125V302.609L9.40363 292.434C10.341 291.546 11.0316 290.769 11.4756 290.103C11.9443 289.412 12.2526 288.783 12.4006 288.216C12.5733 287.624 12.6596 287.057 12.6596 286.514C12.6596 285.182 12.191 284.134 11.2536 283.369C10.3163 282.604 8.94729 282.222 7.14662 282.222C5.76529 282.222 4.51962 282.456 3.40962 282.925C2.29962 283.369 1.33762 284.072 0.523624 285.034L-1.99238 282.851C-1.00571 281.593 0.313957 280.631 1.96662 279.965C3.64396 279.274 5.48162 278.929 7.47962 278.929C9.28029 278.929 10.8466 279.225 12.1786 279.817C13.5106 280.384 14.5343 281.211 15.2496 282.296C15.9896 283.381 16.3596 284.664 16.3596 286.144C16.3596 286.983 16.2486 287.809 16.0266 288.623C15.8046 289.437 15.3853 290.3 14.7686 291.213C14.152 292.126 13.264 293.149 12.1046 294.284L2.70662 303.349L1.81862 301.906H17.4696V305.125H-1.14138ZM30.6127 305.421C28.5161 305.421 26.7031 305.113 25.1737 304.496C23.6444 303.879 22.4604 303.004 21.6217 301.869C20.7831 300.71 20.3637 299.353 20.3637 297.799C20.3637 296.27 20.7584 294.975 21.5477 293.914C22.3617 292.829 23.5334 292.015 25.0627 291.472C26.5921 290.905 28.4421 290.621 30.6127 290.621C32.7834 290.621 34.6334 290.905 36.1627 291.472C37.7167 292.015 38.9007 292.829 39.7147 293.914C40.5287 294.999 40.9357 296.294 40.9357 297.799C40.9357 299.353 40.5164 300.71 39.6777 301.869C38.8391 303.004 37.6427 303.879 36.0887 304.496C34.5347 305.113 32.7094 305.421 30.6127 305.421ZM30.6127 302.424C32.6847 302.424 34.3004 302.005 35.4597 301.166C36.6437 300.303 37.2357 299.143 37.2357 297.688C37.2357 296.257 36.6437 295.135 35.4597 294.321C34.3004 293.482 32.6847 293.063 30.6127 293.063C28.5654 293.063 26.9621 293.482 25.8027 294.321C24.6434 295.135 24.0637 296.257 24.0637 297.688C24.0637 299.143 24.6434 300.303 25.8027 301.166C26.9621 302.005 28.5654 302.424 30.6127 302.424ZM30.6127 292.619C28.6394 292.619 26.9621 292.36 25.5807 291.842C24.1994 291.299 23.1387 290.535 22.3987 289.548C21.6587 288.537 21.2887 287.34 21.2887 285.959C21.2887 284.504 21.6711 283.258 22.4357 282.222C23.2251 281.161 24.3227 280.347 25.7287 279.78C27.1347 279.213 28.7627 278.929 30.6127 278.929C32.4874 278.929 34.1277 279.213 35.5337 279.78C36.9397 280.347 38.0374 281.161 38.8267 282.222C39.6161 283.258 40.0107 284.504 40.0107 285.959C40.0107 287.34 39.6407 288.537 38.9007 289.548C38.1607 290.535 37.0877 291.299 35.6817 291.842C34.2757 292.36 32.5861 292.619 30.6127 292.619ZM30.6127 290.251C32.4134 290.251 33.8194 289.881 34.8307 289.141C35.8667 288.401 36.3847 287.39 36.3847 286.107C36.3847 284.8 35.8544 283.776 34.7937 283.036C33.7331 282.296 32.3394 281.926 30.6127 281.926C28.8861 281.926 27.5047 282.296 26.4687 283.036C25.4574 283.776 24.9517 284.8 24.9517 286.107C24.9517 287.39 25.4451 288.401 26.4317 289.141C27.4431 289.881 28.8367 290.251 30.6127 290.251Z" fill="#292C33"/>
<path d="M69.9699 301.906H83.253V305.125H64.6419V302.609L75.187 292.434C77.925 289.77 78.443 288.142 78.443 286.514C78.443 283.85 76.556 282.222 72.9299 282.222C70.1549 282.222 67.8979 283.11 66.3069 285.034L63.7909 282.851C65.7889 280.372 69.2299 278.929 73.2629 278.929C78.6649 278.929 82.143 281.704 82.143 286.144C82.143 288.66 81.4029 290.917 77.8879 294.284L69.9699 301.906ZM94.694 278.929C101.65 278.929 105.572 283.591 105.572 291.842C105.572 300.685 100.577 305.421 93.325 305.421C90.883 305.421 88.552 304.94 86.887 303.904L88.293 301.018C89.662 301.906 91.401 302.239 93.288 302.239C98.542 302.239 101.872 298.946 101.872 292.471V291.546C100.355 293.803 97.617 294.95 94.398 294.95C89.255 294.95 85.555 291.879 85.555 287.106C85.555 282.111 89.551 278.929 94.694 278.929ZM95.027 291.953C98.579 291.953 101.021 289.77 101.021 286.921C101.021 284.257 98.875 281.926 94.842 281.926C91.475 281.926 89.144 283.887 89.144 286.958C89.144 289.992 91.401 291.953 95.027 291.953Z" fill="#292C33"/>
<path d="M139.036 305.421C137.211 305.421 135.435 305.137 133.708 304.57C132.006 304.003 130.613 303.238 129.527 302.276L131.229 299.353C132.093 300.167 133.215 300.833 134.596 301.351C135.978 301.869 137.458 302.128 139.036 302.128C140.96 302.128 142.453 301.721 143.513 300.907C144.599 300.068 145.141 298.946 145.141 297.54C145.141 296.183 144.623 295.098 143.587 294.284C142.576 293.445 140.96 293.026 138.74 293.026H136.668V290.436L144.364 280.964L144.882 282.444H130.711V279.225H147.805V281.741L140.146 291.176L138.222 290.029H139.443C142.576 290.029 144.919 290.732 146.473 292.138C148.052 293.544 148.841 295.332 148.841 297.503C148.841 298.958 148.484 300.29 147.768 301.499C147.053 302.708 145.968 303.67 144.512 304.385C143.082 305.076 141.256 305.421 139.036 305.421ZM162.874 305.421C160.851 305.421 159.038 304.903 157.435 303.867C155.856 302.831 154.598 301.326 153.661 299.353C152.748 297.38 152.292 294.987 152.292 292.175C152.292 289.363 152.748 286.97 153.661 284.997C154.598 283.024 155.856 281.519 157.435 280.483C159.038 279.447 160.851 278.929 162.874 278.929C164.872 278.929 166.673 279.447 168.276 280.483C169.879 281.519 171.137 283.024 172.05 284.997C172.963 286.97 173.419 289.363 173.419 292.175C173.419 294.987 172.963 297.38 172.05 299.353C171.137 301.326 169.879 302.831 168.276 303.867C166.673 304.903 164.872 305.421 162.874 305.421ZM162.874 302.128C164.231 302.128 165.415 301.758 166.426 301.018C167.462 300.278 168.264 299.168 168.831 297.688C169.423 296.208 169.719 294.37 169.719 292.175C169.719 289.98 169.423 288.142 168.831 286.662C168.264 285.182 167.462 284.072 166.426 283.332C165.415 282.592 164.231 282.222 162.874 282.222C161.517 282.222 160.321 282.592 159.285 283.332C158.249 284.072 157.435 285.182 156.843 286.662C156.276 288.142 155.992 289.98 155.992 292.175C155.992 294.37 156.276 296.208 156.843 297.688C157.435 299.168 158.249 300.278 159.285 301.018C160.321 301.758 161.517 302.128 162.874 302.128Z" fill="white"/>
<path d="M344.312 62.4855C352.045 62.4855 355.079 65.7045 355.079 70.2925C355.079 74.7695 351.897 78.3585 345.274 78.3585C341.611 78.3585 337.985 77.1745 335.765 75.2135L337.467 72.2905C339.206 73.9185 342.092 75.0655 345.237 75.0655C349.159 75.0655 351.379 73.2525 351.379 70.4405C351.379 67.5175 349.529 65.7045 343.535 65.7045H337.652L339.021 52.1625H353.636V55.3815H342.129L341.426 62.4855H344.312Z" fill="#292C33"/>
<path d="M328.585 104.475H338.094V130.375H334.431V107.694H328.585V104.475ZM348.68 127.156H361.963V130.375H343.352V127.859L353.897 117.684C356.635 115.02 357.153 113.392 357.153 111.764C357.153 109.1 355.266 107.472 351.64 107.472C348.865 107.472 346.608 108.36 345.017 110.284L342.501 108.101C344.499 105.622 347.94 104.179 351.973 104.179C357.375 104.179 360.853 106.954 360.853 111.394C360.853 113.91 360.113 116.167 356.598 119.534L348.68 127.156Z" fill="#292C33"/>
<path d="M327.79 157.6H337.299V183.5H333.636V160.819H327.79V157.6ZM351.363 157.304C358.319 157.304 362.241 161.966 362.241 170.217C362.241 179.06 357.246 183.796 349.994 183.796C347.552 183.796 345.221 183.315 343.556 182.279L344.962 179.393C346.331 180.281 348.07 180.614 349.957 180.614C355.211 180.614 358.541 177.321 358.541 170.846V169.921C357.024 172.178 354.286 173.325 351.067 173.325C345.924 173.325 342.224 170.254 342.224 165.481C342.224 160.486 346.22 157.304 351.363 157.304ZM351.696 170.328C355.248 170.328 357.69 168.145 357.69 165.296C357.69 162.632 355.544 160.301 351.511 160.301C348.144 160.301 345.813 162.262 345.813 165.333C345.813 168.367 348.07 170.328 351.696 170.328Z" fill="#292C33"/>
<path d="M325.105 243.125V240.609L335.65 230.434C336.588 229.546 337.278 228.769 337.722 228.103C338.191 227.412 338.499 226.783 338.647 226.216C338.82 225.624 338.906 225.057 338.906 224.514C338.906 223.182 338.438 222.134 337.5 221.369C336.563 220.604 335.194 220.222 333.393 220.222C332.012 220.222 330.766 220.456 329.656 220.925C328.546 221.369 327.584 222.072 326.77 223.034L324.254 220.851C325.241 219.593 326.561 218.631 328.213 217.965C329.891 217.274 331.728 216.929 333.726 216.929C335.527 216.929 337.093 217.225 338.425 217.817C339.757 218.384 340.781 219.211 341.496 220.296C342.236 221.381 342.606 222.664 342.606 224.144C342.606 224.983 342.495 225.809 342.273 226.623C342.051 227.437 341.632 228.3 341.015 229.213C340.399 230.126 339.511 231.149 338.351 232.284L328.953 241.349L328.065 239.906H343.716V243.125H325.105ZM357.6 243.421C355.306 243.421 353.345 242.915 351.717 241.904C350.089 240.893 348.844 239.437 347.98 237.538C347.142 235.614 346.722 233.271 346.722 230.508C346.722 227.573 347.24 225.094 348.276 223.071C349.312 221.048 350.755 219.519 352.605 218.483C354.455 217.447 356.577 216.929 358.969 216.929C360.203 216.929 361.374 217.052 362.484 217.299C363.619 217.546 364.593 217.928 365.407 218.446L364.001 221.332C363.335 220.863 362.571 220.543 361.707 220.37C360.869 220.197 359.981 220.111 359.043 220.111C356.404 220.111 354.307 220.937 352.753 222.59C351.199 224.218 350.422 226.648 350.422 229.879C350.422 230.397 350.447 231.014 350.496 231.729C350.546 232.444 350.669 233.147 350.866 233.838L349.608 232.58C349.978 231.445 350.558 230.496 351.347 229.731C352.161 228.942 353.123 228.362 354.233 227.992C355.368 227.597 356.589 227.4 357.896 227.4C359.623 227.4 361.152 227.721 362.484 228.362C363.816 229.003 364.865 229.916 365.629 231.1C366.394 232.259 366.776 233.641 366.776 235.244C366.776 236.897 366.369 238.34 365.555 239.573C364.741 240.806 363.644 241.756 362.262 242.422C360.881 243.088 359.327 243.421 357.6 243.421ZM357.452 240.424C358.587 240.424 359.574 240.214 360.412 239.795C361.276 239.376 361.954 238.796 362.447 238.056C362.941 237.291 363.187 236.403 363.187 235.392C363.187 233.863 362.657 232.654 361.596 231.766C360.536 230.853 359.093 230.397 357.267 230.397C356.083 230.397 355.047 230.619 354.159 231.063C353.271 231.507 352.568 232.111 352.05 232.876C351.557 233.616 351.31 234.467 351.31 235.429C351.31 236.317 351.545 237.143 352.013 237.908C352.482 238.648 353.173 239.252 354.085 239.721C354.998 240.19 356.12 240.424 357.452 240.424Z" fill="#292C33"/>
<path d="M408.403 62.3375C413.546 62.3375 417.283 65.4085 417.283 70.1815C417.283 75.1765 413.25 78.3585 408.107 78.3585C401.151 78.3585 397.229 73.6965 397.229 65.4455C397.229 56.6025 402.224 51.8665 409.476 51.8665C411.918 51.8665 414.249 52.3475 415.914 53.3835L414.508 56.2695C413.176 55.3815 411.4 55.0485 409.55 55.0485C404.296 55.0485 400.929 58.3415 400.929 64.8165C400.929 65.1125 400.929 65.4085 400.966 65.7415C402.446 63.5215 405.184 62.3375 408.403 62.3375ZM407.959 75.3615C411.326 75.3615 413.694 73.4005 413.694 70.3295C413.694 67.2955 411.4 65.3345 407.774 65.3345C404.259 65.3345 401.817 67.5175 401.817 70.3665C401.817 73.0305 403.963 75.3615 407.959 75.3615Z" fill="#292C33"/>
<path d="M389.732 104.475H399.241V130.375H395.578V107.694H389.732V104.475ZM414.823 115.353C420.003 115.834 422.63 118.757 422.63 122.753C422.63 127.119 419.411 130.671 412.825 130.671C409.125 130.671 405.499 129.487 403.316 127.526L405.018 124.603C406.757 126.231 409.643 127.378 412.825 127.378C416.71 127.378 418.93 125.602 418.93 122.79C418.93 120.052 416.969 118.276 412.529 118.276H410.457V115.686L416.969 107.694H404.5V104.475H421.594V106.991L414.823 115.353Z" fill="#292C33"/>
<path d="M390.659 180.281H403.942V183.5H385.331V180.984L395.876 170.809C398.614 168.145 399.132 166.517 399.132 164.889C399.132 162.225 397.245 160.597 393.619 160.597C390.844 160.597 388.587 161.485 386.996 163.409L384.48 161.226C386.478 158.747 389.919 157.304 393.952 157.304C399.354 157.304 402.832 160.079 402.832 164.519C402.832 167.035 402.092 169.292 398.577 172.659L390.659 180.281ZM417.458 183.796C411.39 183.796 406.876 178.986 406.876 170.55C406.876 162.114 411.39 157.304 417.458 157.304C423.489 157.304 428.003 162.114 428.003 170.55C428.003 178.986 423.489 183.796 417.458 183.796ZM417.458 180.503C421.491 180.503 424.303 177.173 424.303 170.55C424.303 163.927 421.491 160.597 417.458 160.597C413.388 160.597 410.576 163.927 410.576 170.55C410.576 177.173 413.388 180.503 417.458 180.503Z" fill="#292C33"/>
<path d="M10.0718 104.475H29.6078V106.991L19.1368 130.375H15.2148L25.4638 107.694H13.6238V112.319H10.0718V104.475Z" fill="#292C33"/>
<path d="M1.09178 157.6H10.6008V183.5H6.93778V160.819H1.09178V157.6ZM38.7991 173.954V177.136H33.8781V183.5H30.2891V177.136H15.8961V174.546L29.1421 157.6H33.1381L20.4471 173.954H30.4001V168.33H33.8781V173.954H38.7991Z" fill="#292C33"/>
<path d="M9.24522 239.906H22.5282V243.125H3.91722V240.609L14.4622 230.434C17.2002 227.77 17.7182 226.142 17.7182 224.514C17.7182 221.85 15.8312 220.222 12.2052 220.222C9.43022 220.222 7.17322 221.11 5.58222 223.034L3.06622 220.851C5.06422 218.372 8.50522 216.929 12.5382 216.929C17.9402 216.929 21.4182 219.704 21.4182 224.144C21.4182 226.66 20.6782 228.917 17.1632 232.284L9.24522 239.906ZM24.0903 217.225H33.5993V243.125H29.9363V220.444H24.0903V217.225Z" fill="#292C33"/>
<path d="M78.7628 52.1625H88.2718V78.0625H84.6088V55.3815H78.7628V52.1625Z" fill="#292C33"/>
<path d="M91.0202 116.796C93.9802 117.943 95.6082 120.089 95.6082 123.049C95.6082 127.748 91.6122 130.671 85.2852 130.671C78.9952 130.671 75.0362 127.748 75.0362 123.049C75.0362 120.089 76.6642 117.906 79.5872 116.796C77.2192 115.686 75.9612 113.762 75.9612 111.209C75.9612 106.88 79.6982 104.179 85.2852 104.179C90.9092 104.179 94.6832 106.88 94.6832 111.209C94.6832 113.762 93.3882 115.686 91.0202 116.796ZM85.2852 107.176C81.8072 107.176 79.6242 108.767 79.6242 111.357C79.6242 113.91 81.7332 115.501 85.2852 115.501C88.8742 115.501 91.0572 113.91 91.0572 111.357C91.0572 108.767 88.7632 107.176 85.2852 107.176ZM85.2852 127.674C89.3922 127.674 91.9082 125.861 91.9082 122.938C91.9082 120.089 89.3922 118.313 85.2852 118.313C81.1782 118.313 78.7362 120.089 78.7362 122.938C78.7362 125.861 81.1782 127.674 85.2852 127.674Z" fill="#292C33"/>
<path d="M68.1398 157.6H77.6488V183.5H73.9858V160.819H68.1398V157.6ZM90.7141 167.923C98.4471 167.923 101.481 171.142 101.481 175.73C101.481 180.207 98.2991 183.796 91.6761 183.796C88.0131 183.796 84.3871 182.612 82.1671 180.651L83.8691 177.728C85.6081 179.356 88.4941 180.503 91.6391 180.503C95.5611 180.503 97.7811 178.69 97.7811 175.878C97.7811 172.955 95.9311 171.142 89.9371 171.142H84.0541L85.4231 157.6H100.038V160.819H88.5311L87.8281 167.923H90.7141Z" fill="#292C33"/>
<path d="M70.7649 239.906H84.0479V243.125H65.4369V240.609L75.9819 230.434C78.7199 227.77 79.2379 226.142 79.2379 224.514C79.2379 221.85 77.3509 220.222 73.7249 220.222C70.9499 220.222 68.6929 221.11 67.1019 223.034L64.5859 220.851C66.5839 218.372 70.0249 216.929 74.0579 216.929C79.4599 216.929 82.9379 219.704 82.9379 224.144C82.9379 226.66 82.1979 228.917 78.6829 232.284L70.7649 239.906ZM92.011 239.906H105.294V243.125H86.683V240.609L97.228 230.434C99.966 227.77 100.484 226.142 100.484 224.514C100.484 221.85 98.597 220.222 94.971 220.222C92.196 220.222 89.939 221.11 88.348 223.034L85.832 220.851C87.83 218.372 91.271 216.929 95.304 216.929C100.706 216.929 104.184 219.704 104.184 224.144C104.184 226.66 103.444 228.917 99.929 232.284L92.011 239.906Z" fill="#292C33"/>
<path d="M151.026 104.179C157.982 104.179 161.904 108.841 161.904 117.092C161.904 125.935 156.909 130.671 149.657 130.671C147.215 130.671 144.884 130.19 143.219 129.154L144.625 126.268C145.994 127.156 147.733 127.489 149.62 127.489C154.874 127.489 158.204 124.196 158.204 117.721V116.796C156.687 119.053 153.949 120.2 150.73 120.2C145.587 120.2 141.887 117.129 141.887 112.356C141.887 107.361 145.883 104.179 151.026 104.179ZM151.359 117.203C154.911 117.203 157.353 115.02 157.353 112.171C157.353 109.507 155.207 107.176 151.174 107.176C147.807 107.176 145.476 109.137 145.476 112.208C145.476 115.242 147.733 117.203 151.359 117.203Z" fill="#292C33"/>
<path d="M134.299 157.6H143.808V183.5H140.145V160.819H134.299V157.6ZM160.648 167.775C165.791 167.775 169.528 170.846 169.528 175.619C169.528 180.614 165.495 183.796 160.352 183.796C153.396 183.796 149.474 179.134 149.474 170.883C149.474 162.04 154.469 157.304 161.721 157.304C164.163 157.304 166.494 157.785 168.159 158.821L166.753 161.707C165.421 160.819 163.645 160.486 161.795 160.486C156.541 160.486 153.174 163.779 153.174 170.254C153.174 170.55 153.174 170.846 153.211 171.179C154.691 168.959 157.429 167.775 160.648 167.775ZM160.204 180.799C163.571 180.799 165.939 178.838 165.939 175.767C165.939 172.733 163.645 170.772 160.019 170.772C156.504 170.772 154.062 172.955 154.062 175.804C154.062 178.468 156.208 180.799 160.204 180.799Z" fill="#292C33"/>
<path d="M137.756 239.906H151.039V243.125H132.428V240.609L142.973 230.434C145.711 227.77 146.229 226.142 146.229 224.514C146.229 221.85 144.342 220.222 140.716 220.222C137.941 220.222 135.684 221.11 134.093 223.034L131.577 220.851C133.575 218.372 137.016 216.929 141.049 216.929C146.451 216.929 149.929 219.704 149.929 224.144C149.929 226.66 149.189 228.917 145.674 232.284L137.756 239.906ZM163.997 228.103C169.177 228.584 171.804 231.507 171.804 235.503C171.804 239.869 168.585 243.421 161.999 243.421C158.299 243.421 154.673 242.237 152.49 240.276L154.192 237.353C155.931 238.981 158.817 240.128 161.999 240.128C165.884 240.128 168.104 238.352 168.104 235.54C168.104 232.802 166.143 231.026 161.703 231.026H159.631V228.436L166.143 220.444H153.674V217.225H170.768V219.741L163.997 228.103Z" fill="#292C33"/>
<path d="M148.343 74.8435H161.626V78.0625H143.015V75.5465L153.56 65.3715C156.298 62.7075 156.816 61.0795 156.816 59.4515C156.816 56.7875 154.929 55.1595 151.303 55.1595C148.528 55.1595 146.271 56.0475 144.68 57.9715L142.164 55.7885C144.162 53.3095 147.603 51.8665 151.636 51.8665C157.038 51.8665 160.516 54.6415 160.516 59.0815C160.516 61.5975 159.776 63.8545 156.261 67.2215L148.343 74.8435Z" fill="#292C33"/>
<path d="M208.967 305.421C207.142 305.421 205.366 305.137 203.639 304.57C201.937 304.003 200.544 303.238 199.458 302.276L201.16 299.353C202.024 300.167 203.146 300.833 204.527 301.351C205.909 301.869 207.389 302.128 208.967 302.128C210.891 302.128 212.384 301.721 213.444 300.907C214.53 300.068 215.072 298.946 215.072 297.54C215.072 296.183 214.554 295.098 213.518 294.284C212.507 293.445 210.891 293.026 208.671 293.026H206.599V290.436L214.295 280.964L214.813 282.444H200.642V279.225H217.736V281.741L210.077 291.176L208.153 290.029H209.374C212.507 290.029 214.85 290.732 216.404 292.138C217.983 293.544 218.772 295.332 218.772 297.503C218.772 298.958 218.415 300.29 217.699 301.499C216.984 302.708 215.899 303.67 214.443 304.385C213.013 305.076 211.187 305.421 208.967 305.421ZM226.589 305.125V280.705L228.18 282.444H220.743V279.225H230.252V305.125H226.589Z" fill="#292C33"/>
</g>
<defs>
<clipPath id="clip0_525_2678">
<rect width="431" height="314" fill="white"/>
</clipPath>
</defs>
</svg>
