<svg width="432" height="318" viewBox="0 0 432 318" fill="none" xmlns="http://www.w3.org/2000/svg">
<g clip-path="url(#clip0_3525_5426)">
<mask id="mask0_3525_5426" style="mask-type:luminance" maskUnits="userSpaceOnUse" x="0" y="0" width="432" height="318">
<path d="M431.5 0H0.5V318H431.5V0Z" fill="white"/>
</mask>
<g mask="url(#mask0_3525_5426)">
<path d="M243.5 153H186.5V200H243.5V153Z" fill="#E4793D" fill-opacity="0.6"/>
<path d="M308.5 153H251.5V200H308.5V153Z" fill="#E4793D" fill-opacity="0.6"/>
<path d="M180.019 272.5H123.019V319.5H180.019V272.5Z" fill="#3C78EC" fill-opacity="0.6"/>
<path d="M23.4564 21.2264H20.8476V3.86139H11.3906V21.2264H8.7002V1.82324H23.3749V21.2264H23.4564Z" fill="#B3B3B3" fill-opacity="0.6"/>
<path d="M39.2725 21.2263H36.6636V15.1118H30.2231V21.2263H27.6143V6.79614H30.2231V13.0737H36.6636V6.79614H39.2725V21.2263Z" fill="#B3B3B3" fill-opacity="0.6"/>
<path d="M73.5 21.2264V1.82324H79.859C81.8972 1.82324 83.4462 2.23087 84.5875 3.12766C85.7289 4.02444 86.2996 5.32886 86.2996 7.0409C86.2996 7.85616 86.055 8.58989 85.5658 9.32363C85.0767 10.0574 84.3429 10.465 83.5277 10.7911C84.8321 10.9541 85.8104 11.5248 86.5441 12.4216C87.2779 13.3184 87.6855 14.4598 87.6855 15.6826C87.6855 17.4762 87.1148 18.7806 85.9735 19.7589C84.8321 20.7373 83.2831 21.1449 81.245 21.1449H73.5V21.2264ZM76.1904 10.0574H80.4297C81.408 10.0574 82.2233 9.81278 82.794 9.2421C83.4462 8.67142 83.6907 7.93769 83.6907 6.95937C83.6907 5.89954 83.3646 5.1658 82.7124 4.59512C82.0602 4.10597 81.0819 3.77986 79.859 3.77986H76.1904V10.0574ZM76.1904 12.0955V19.1067H81.245C82.4678 19.1067 83.3646 18.7806 84.0168 18.21C84.6691 17.6393 84.9952 16.7425 84.9952 15.6826C84.9952 14.6228 84.6691 13.726 84.0168 13.0738C83.3646 12.4216 82.4678 12.0955 81.245 12.014H81.0819H76.1904V12.0955Z" fill="#B3B3B3" fill-opacity="0.6"/>
<path d="M101.626 8.83429H96.8977V21.2263H94.2888V8.83429H89.5603V6.79614H101.626V8.83429Z" fill="#B3B3B3" fill-opacity="0.6"/>
<path d="M151.012 15.0304C151.093 16.9055 150.441 18.4545 149.137 19.6773C147.832 20.9002 146.12 21.5524 143.919 21.5524C141.718 21.5524 139.924 20.7372 138.538 19.1882C137.152 17.6392 136.5 15.6826 136.5 13.2368V9.81271C136.5 7.44846 137.152 5.41031 138.538 3.86132C139.924 2.31233 141.718 1.49707 143.919 1.49707C146.12 1.49707 147.832 2.06775 149.137 3.20911C150.441 4.35048 151.093 5.89947 151.012 7.85609V7.93762H148.484C148.484 6.55168 148.077 5.49184 147.261 4.67658C146.446 3.86132 145.305 3.45369 143.837 3.45369C142.37 3.45369 141.229 4.02437 140.332 5.24726C139.435 6.38862 139.027 7.85609 139.027 9.64966V13.1553C139.027 14.9488 139.435 16.4163 140.332 17.5577C141.229 18.699 142.37 19.3512 143.837 19.3512C145.305 19.3512 146.446 18.9436 147.261 18.2099C148.077 17.3946 148.484 16.3348 148.484 14.9488H151.012V15.0304Z" fill="#B3B3B3" fill-opacity="0.6"/>
<path d="M166.42 14.5413C166.42 16.661 165.931 18.2915 164.952 19.5959C163.974 20.9003 162.588 21.471 160.795 21.471C159.898 21.471 159.164 21.3079 158.43 21.0634C157.778 20.7373 157.207 20.3296 156.718 19.759V26.7702H154.109V6.79634H156.148L156.555 8.67143C157.044 7.9377 157.615 7.44854 158.349 7.12244C159.083 6.79634 159.898 6.55176 160.795 6.55176C162.588 6.55176 163.974 7.28549 164.952 8.67143C165.931 10.0574 166.42 11.9325 166.42 14.2967V14.5413ZM163.811 14.2967C163.811 12.6662 163.485 11.2803 162.833 10.3019C162.181 9.32364 161.202 8.75296 159.979 8.75296C159.246 8.75296 158.593 8.91601 158.023 9.24211C157.452 9.56822 157.044 10.0574 156.718 10.6281V17.6393C157.044 18.21 157.452 18.6991 158.023 19.0252C158.593 19.3513 159.246 19.5144 159.979 19.5144C161.202 19.5144 162.181 19.0252 162.833 18.1284C163.485 17.2317 163.811 16.0088 163.811 14.6228V14.2967Z" fill="#B3B3B3" fill-opacity="0.6"/>
<path d="M215.93 1.82324V21.2264H213.321V13.1553C212.506 13.3999 211.691 13.563 210.875 13.726C210.06 13.8076 209.163 13.8891 208.022 13.8891C205.902 13.8891 204.272 13.3999 203.131 12.5031C201.989 11.6064 201.5 10.0574 201.5 7.93769V1.82324H204.109V7.93769C204.109 9.40515 204.435 10.3835 205.006 10.9541C205.658 11.5248 206.636 11.7694 207.941 11.7694C208.837 11.7694 209.734 11.6879 210.631 11.6064C211.446 11.4433 212.343 11.2802 213.24 11.0357V1.82324H215.93Z" fill="#B3B3B3" fill-opacity="0.6"/>
<path d="M231.175 8.83429H226.447V21.2263H223.838V8.83429H219.11V6.79614H231.175V8.83429Z" fill="#B3B3B3" fill-opacity="0.6"/>
<path d="M280.175 21.2264H277.566V3.86139H268.109V21.2264H265.5V1.82324H280.175V21.2264Z" fill="#B3B3B3" fill-opacity="0.6"/>
<path d="M295.42 8.83453H290.692V21.2265H288.083V8.83453H283.354V6.79639H295.42V8.83453Z" fill="#B3B3B3" fill-opacity="0.6"/>
<path d="M345.012 15.0301C345.093 16.9052 344.441 18.4542 343.137 19.6771C341.832 20.9 340.12 21.5522 337.919 21.5522C335.718 21.5522 333.924 20.7369 332.538 19.1879C331.152 17.6389 330.5 15.6823 330.5 13.2365V9.81247C330.5 7.44822 331.152 5.41007 332.538 3.86108C333.924 2.31209 335.718 1.49683 337.919 1.49683C340.12 1.49683 341.832 2.06751 343.137 3.20887C344.441 4.35023 345.093 5.89923 345.012 7.85585V7.93737H342.484C342.484 6.55143 342.077 5.4916 341.261 4.67634C340.446 3.86108 339.305 3.45345 337.837 3.45345C336.37 3.45345 335.229 4.02413 334.332 5.24702C333.435 6.38838 333.027 7.85585 333.027 9.64942V13.155C333.027 14.9486 333.435 16.416 334.332 17.5574C335.229 18.6988 336.37 19.351 337.837 19.351C339.305 19.351 340.446 18.9433 341.261 18.2096C342.077 17.3943 342.484 16.3345 342.484 14.9486H345.012V15.0301Z" fill="#B3B3B3" fill-opacity="0.6"/>
<path d="M354.387 6.55149C356.262 6.55149 357.648 7.2037 358.708 8.58964C359.768 9.97558 360.338 11.6876 360.338 13.8888V14.2149C360.338 16.3346 359.768 18.1282 358.626 19.5141C357.485 20.9 355.936 21.5523 353.898 21.5523C351.86 21.5523 350.311 20.9 349.169 19.5141C348.028 18.1282 347.457 16.4161 347.457 14.2149V13.8888C347.457 13.8073 347.457 13.7258 347.457 13.7258C347.457 13.6442 347.457 13.6442 347.457 13.5627V10.4647C347.457 7.69285 348.028 5.73623 349.088 4.43182C350.148 3.1274 351.778 2.47519 353.898 2.31214C355.121 2.23062 356.099 2.06756 356.751 1.82299C357.403 1.57841 357.73 1.17078 357.73 0.600098H359.768V0.681624C359.849 2.06756 359.36 3.04587 358.382 3.61656C357.403 4.18724 356.017 4.51334 354.142 4.51334C352.756 4.51334 351.697 4.92097 350.881 5.6547C350.066 6.38844 349.658 7.44827 349.658 8.83421V8.91574C350.148 8.26353 350.881 7.69285 351.697 7.28522C352.512 6.87759 353.49 6.55149 354.387 6.55149ZM353.898 8.58964C352.675 8.58964 351.697 9.07879 351.044 10.0571C350.392 11.0354 350.066 12.3398 350.066 13.8073V14.1334C350.066 15.6824 350.392 16.9053 351.044 17.8836C351.697 18.8619 352.675 19.3511 353.898 19.3511C355.121 19.3511 356.099 18.8619 356.751 17.8836C357.403 16.9053 357.73 15.6009 357.73 14.1334V13.8073C357.73 12.2583 357.403 11.0354 356.751 10.0571C356.099 9.07879 355.121 8.58964 353.898 8.58964Z" fill="#B3B3B3" fill-opacity="0.6"/>
<path d="M394.5 21.2264V1.82324H400.859C402.897 1.82324 404.446 2.23087 405.588 3.12766C406.729 4.02444 407.3 5.32886 407.3 7.0409C407.3 7.85616 407.055 8.58989 406.566 9.32363C406.077 10.0574 405.343 10.465 404.528 10.8726C405.832 11.0357 406.81 11.6064 407.544 12.5031C408.278 13.3999 408.686 14.5413 408.686 15.7642C408.686 17.5577 408.115 18.8622 406.973 19.8405C405.832 20.8188 404.283 21.2264 402.245 21.2264H394.5ZM397.19 10.0574H401.43C402.408 10.0574 403.223 9.81278 403.794 9.2421C404.446 8.67142 404.691 7.93769 404.691 6.95937C404.691 5.89954 404.365 5.1658 403.712 4.59512C403.06 4.10597 402.082 3.77986 400.859 3.77986H397.19V10.0574ZM397.19 12.0955V19.1067H402.245C403.468 19.1067 404.365 18.7806 405.017 18.21C405.669 17.6393 405.995 16.7425 405.995 15.6826C405.995 14.6228 405.669 13.726 405.017 13.0738C404.365 12.4216 403.468 12.0955 402.245 12.014H402.082H397.19V12.0955Z" fill="#B3B3B3" fill-opacity="0.6"/>
<path d="M417.245 19.4327C418.061 19.4327 418.794 19.1881 419.365 18.6174C419.936 18.0467 420.262 17.3945 420.262 16.6608H422.626V16.7423C422.626 17.9652 422.137 19.1066 420.996 20.0849C419.854 21.0632 418.631 21.5523 417.164 21.5523C415.126 21.5523 413.577 20.9001 412.435 19.5142C411.294 18.1282 410.805 16.4162 410.805 14.3781V13.8074C410.805 11.7692 411.376 10.0571 412.435 8.6712C413.577 7.28526 415.126 6.63306 417.082 6.63306C418.713 6.63306 420.017 7.12221 420.996 8.10052C421.974 9.07883 422.545 10.3017 422.463 11.7692V11.8508H420.099C420.099 10.954 419.773 10.2202 419.202 9.56799C418.631 8.91578 417.898 8.6712 417.001 8.6712C415.696 8.6712 414.8 9.16036 414.147 10.1387C413.577 11.117 413.251 12.3399 413.251 13.8074V14.3781C413.251 15.8455 413.577 17.0684 414.147 18.0467C415.044 18.9435 415.941 19.4327 417.245 19.4327Z" fill="#B3B3B3" fill-opacity="0.6"/>
<path d="M218.312 63.5406C223.492 64.0216 226.119 66.9446 226.119 70.9406C226.119 75.3066 222.9 78.8586 216.314 78.8586C212.614 78.8586 208.988 77.6746 206.805 75.7136L208.507 72.7906C210.246 74.4186 213.132 75.5656 216.314 75.5656C220.199 75.5656 222.419 73.7896 222.419 70.9776C222.419 68.2396 220.458 66.4636 216.018 66.4636H213.946V63.8736L220.458 55.8816H207.989V52.6626H225.083V55.1786L218.312 63.5406Z" fill="#292C33" fill-opacity="0.6"/>
<path d="M197.628 104.975H207.137V130.875H203.474V108.194H197.628V104.975ZM223.384 131.171C217.316 131.171 212.802 126.361 212.802 117.925C212.802 109.489 217.316 104.679 223.384 104.679C229.415 104.679 233.929 109.489 233.929 117.925C233.929 126.361 229.415 131.171 223.384 131.171ZM223.384 127.878C227.417 127.878 230.229 124.548 230.229 117.925C230.229 111.302 227.417 107.972 223.384 107.972C219.314 107.972 216.502 111.302 216.502 117.925C216.502 124.548 219.314 127.878 223.384 127.878Z" fill="#292C33" fill-opacity="0.6"/>
<path d="M198.911 163.975H208.42V189.875H204.757V167.194H198.911V163.975ZM213.419 163.975H232.955V166.491L222.484 189.875H218.562L228.811 167.194H216.971V171.819H213.419V163.975Z" fill="white"/>
<path d="M200.56 245.656H213.843V248.875H195.232V246.359L205.777 236.184C208.515 233.52 209.033 231.892 209.033 230.264C209.033 227.6 207.146 225.972 203.52 225.972C200.745 225.972 198.488 226.86 196.897 228.784L194.381 226.601C196.379 224.122 199.82 222.679 203.853 222.679C209.255 222.679 212.733 225.454 212.733 229.894C212.733 232.41 211.993 234.667 208.478 238.034L200.56 245.656ZM238.732 239.329V242.511H233.811V248.875H230.222V242.511H215.829V239.921L229.075 222.975H233.071L220.38 239.329H230.333V233.705H233.811V239.329H238.732Z" fill="#292C33" fill-opacity="0.6"/>
<path d="M292.294 69.0166V72.1986H287.373V78.5626H283.784V72.1986H269.391V69.6086L282.637 52.6626H286.633L273.942 69.0166H283.895V63.3926H287.373V69.0166H292.294Z" fill="#292C33" fill-opacity="0.6"/>
<path d="M266.62 104.975H276.129V130.875H272.466V108.194H266.62V104.975ZM280.315 104.975H289.824V130.875H286.161V108.194H280.315V104.975Z" fill="#292C33" fill-opacity="0.6"/>
<path d="M261.562 163.975H271.071V189.875H267.408V167.194H261.562V163.975ZM292.572 176.296C295.532 177.443 297.16 179.589 297.16 182.549C297.16 187.248 293.164 190.171 286.837 190.171C280.547 190.171 276.588 187.248 276.588 182.549C276.588 179.589 278.216 177.406 281.139 176.296C278.771 175.186 277.513 173.262 277.513 170.709C277.513 166.38 281.25 163.679 286.837 163.679C292.461 163.679 296.235 166.38 296.235 170.709C296.235 173.262 294.94 175.186 292.572 176.296ZM286.837 166.676C283.359 166.676 281.176 168.267 281.176 170.857C281.176 173.41 283.285 175.001 286.837 175.001C290.426 175.001 292.609 173.41 292.609 170.857C292.609 168.267 290.315 166.676 286.837 166.676ZM286.837 187.174C290.944 187.174 293.46 185.361 293.46 182.438C293.46 179.589 290.944 177.813 286.837 177.813C282.73 177.813 280.288 179.589 280.288 182.438C280.288 185.361 282.73 187.174 286.837 187.174Z" fill="white"/>
<path d="M265.469 245.656H278.752V248.875H260.141V246.359L270.686 236.184C273.424 233.52 273.942 231.892 273.942 230.264C273.942 227.6 272.055 225.972 268.429 225.972C265.654 225.972 263.397 226.86 261.806 228.784L259.29 226.601C261.288 224.122 264.729 222.679 268.762 222.679C274.164 222.679 277.642 225.454 277.642 229.894C277.642 232.41 276.902 234.667 273.387 238.034L265.469 245.656ZM289.195 233.298C296.928 233.298 299.962 236.517 299.962 241.105C299.962 245.582 296.78 249.171 290.157 249.171C286.494 249.171 282.868 247.987 280.648 246.026L282.35 243.103C284.089 244.731 286.975 245.878 290.12 245.878C294.042 245.878 296.262 244.065 296.262 241.253C296.262 238.33 294.412 236.517 288.418 236.517H282.535L283.904 222.975H298.519V226.194H287.012L286.309 233.298H289.195Z" fill="#292C33" fill-opacity="0.6"/>
<path d="M392.59 245.656H405.873V248.875H387.262V246.359L397.807 236.184C400.545 233.52 401.063 231.892 401.063 230.264C401.063 227.6 399.176 225.972 395.55 225.972C392.775 225.972 390.518 226.86 388.927 228.784L386.411 226.601C388.409 224.122 391.85 222.679 395.883 222.679C401.285 222.679 404.763 225.454 404.763 229.894C404.763 232.41 404.023 234.667 400.508 238.034L392.59 245.656ZM408.141 222.975H427.677V225.491L417.206 248.875H413.284L423.533 226.194H411.693V230.819H408.141V222.975Z" fill="#292C33" fill-opacity="0.6"/>
<path d="M1.35857 307.875V305.359L11.9035 295.184C12.8409 294.296 13.5315 293.519 13.9755 292.853C14.4442 292.162 14.7525 291.533 14.9005 290.966C15.0732 290.374 15.1595 289.807 15.1595 289.264C15.1595 287.932 14.6909 286.884 13.7535 286.119C12.8162 285.354 11.4472 284.972 9.64657 284.972C8.26524 284.972 7.01957 285.206 5.90957 285.675C4.79957 286.119 3.83757 286.822 3.02357 287.784L0.507568 285.601C1.49423 284.343 2.81391 283.381 4.46657 282.715C6.14391 282.024 7.98157 281.679 9.97957 281.679C11.7802 281.679 13.3465 281.975 14.6785 282.567C16.0105 283.134 17.0342 283.961 17.7495 285.046C18.4895 286.131 18.8595 287.414 18.8595 288.894C18.8595 289.733 18.7485 290.559 18.5265 291.373C18.3045 292.187 17.8852 293.05 17.2685 293.963C16.6519 294.876 15.7639 295.899 14.6045 297.034L5.20657 306.099L4.31857 304.656H19.9695V307.875H1.35857ZM33.1126 308.171C31.016 308.171 29.203 307.863 27.6736 307.246C26.1443 306.629 24.9603 305.754 24.1216 304.619C23.283 303.46 22.8636 302.103 22.8636 300.549C22.8636 299.02 23.2583 297.725 24.0476 296.664C24.8616 295.579 26.0333 294.765 27.5626 294.222C29.092 293.655 30.942 293.371 33.1126 293.371C35.2833 293.371 37.1333 293.655 38.6626 294.222C40.2166 294.765 41.4006 295.579 42.2146 296.664C43.0286 297.749 43.4356 299.044 43.4356 300.549C43.4356 302.103 43.0163 303.46 42.1776 304.619C41.339 305.754 40.1426 306.629 38.5886 307.246C37.0346 307.863 35.2093 308.171 33.1126 308.171ZM33.1126 305.174C35.1846 305.174 36.8003 304.755 37.9596 303.916C39.1436 303.053 39.7356 301.893 39.7356 300.438C39.7356 299.007 39.1436 297.885 37.9596 297.071C36.8003 296.232 35.1846 295.813 33.1126 295.813C31.0653 295.813 29.462 296.232 28.3026 297.071C27.1433 297.885 26.5636 299.007 26.5636 300.438C26.5636 301.893 27.1433 303.053 28.3026 303.916C29.462 304.755 31.0653 305.174 33.1126 305.174ZM33.1126 295.369C31.1393 295.369 29.462 295.11 28.0806 294.592C26.6993 294.049 25.6386 293.285 24.8986 292.298C24.1586 291.287 23.7886 290.09 23.7886 288.709C23.7886 287.254 24.171 286.008 24.9356 284.972C25.725 283.911 26.8226 283.097 28.2286 282.53C29.6346 281.963 31.2626 281.679 33.1126 281.679C34.9873 281.679 36.6276 281.963 38.0336 282.53C39.4396 283.097 40.5373 283.911 41.3266 284.972C42.116 286.008 42.5106 287.254 42.5106 288.709C42.5106 290.09 42.1406 291.287 41.4006 292.298C40.6606 293.285 39.5876 294.049 38.1816 294.592C36.7756 295.11 35.086 295.369 33.1126 295.369ZM33.1126 293.001C34.9133 293.001 36.3193 292.631 37.3306 291.891C38.3666 291.151 38.8846 290.14 38.8846 288.857C38.8846 287.55 38.3543 286.526 37.2936 285.786C36.233 285.046 34.8393 284.676 33.1126 284.676C31.386 284.676 30.0046 285.046 28.9686 285.786C27.9573 286.526 27.4516 287.55 27.4516 288.857C27.4516 290.14 27.945 291.151 28.9316 291.891C29.943 292.631 31.3366 293.001 33.1126 293.001Z" fill="#292C33" fill-opacity="0.6"/>
<path d="M71.6744 304.656H84.9574V307.875H66.3464V305.359L76.8914 295.184C79.6294 292.52 80.1474 290.892 80.1474 289.264C80.1474 286.6 78.2604 284.972 74.6344 284.972C71.8594 284.972 69.6024 285.86 68.0114 287.784L65.4954 285.601C67.4934 283.122 70.9344 281.679 74.9674 281.679C80.3694 281.679 83.8474 284.454 83.8474 288.894C83.8474 291.41 83.1074 293.667 79.5924 297.034L71.6744 304.656ZM96.3985 281.679C103.355 281.679 107.277 286.341 107.277 294.592C107.277 303.435 102.282 308.171 95.0295 308.171C92.5875 308.171 90.2565 307.69 88.5915 306.654L89.9975 303.768C91.3665 304.656 93.1055 304.989 94.9925 304.989C100.246 304.989 103.577 301.696 103.577 295.221V294.296C102.06 296.553 99.3215 297.7 96.1025 297.7C90.9595 297.7 87.2595 294.629 87.2595 289.856C87.2595 284.861 91.2555 281.679 96.3985 281.679ZM96.7315 294.703C100.283 294.703 102.726 292.52 102.726 289.671C102.726 287.007 100.58 284.676 96.5465 284.676C93.1795 284.676 90.8485 286.637 90.8485 289.708C90.8485 292.742 93.1055 294.703 96.7315 294.703Z" fill="#292C33" fill-opacity="0.6"/>
<path d="M138.286 308.171C136.461 308.171 134.685 307.887 132.958 307.32C131.256 306.753 129.862 305.988 128.777 305.026L130.479 302.103C131.342 302.917 132.465 303.583 133.846 304.101C135.227 304.619 136.707 304.878 138.286 304.878C140.21 304.878 141.702 304.471 142.763 303.657C143.848 302.818 144.391 301.696 144.391 300.29C144.391 298.933 143.873 297.848 142.837 297.034C141.826 296.195 140.21 295.776 137.99 295.776H135.918V293.186L143.614 283.714L144.132 285.194H129.961V281.975H147.055V284.491L139.396 293.926L137.472 292.779H138.693C141.826 292.779 144.169 293.482 145.723 294.888C147.302 296.294 148.091 298.082 148.091 300.253C148.091 301.708 147.733 303.04 147.018 304.249C146.303 305.458 145.217 306.42 143.762 307.135C142.331 307.826 140.506 308.171 138.286 308.171ZM162.124 308.171C160.101 308.171 158.288 307.653 156.685 306.617C155.106 305.581 153.848 304.076 152.911 302.103C151.998 300.13 151.542 297.737 151.542 294.925C151.542 292.113 151.998 289.72 152.911 287.747C153.848 285.774 155.106 284.269 156.685 283.233C158.288 282.197 160.101 281.679 162.124 281.679C164.122 281.679 165.923 282.197 167.526 283.233C169.129 284.269 170.387 285.774 171.3 287.747C172.213 289.72 172.669 292.113 172.669 294.925C172.669 297.737 172.213 300.13 171.3 302.103C170.387 304.076 169.129 305.581 167.526 306.617C165.923 307.653 164.122 308.171 162.124 308.171ZM162.124 304.878C163.481 304.878 164.665 304.508 165.676 303.768C166.712 303.028 167.514 301.918 168.081 300.438C168.673 298.958 168.969 297.12 168.969 294.925C168.969 292.73 168.673 290.892 168.081 289.412C167.514 287.932 166.712 286.822 165.676 286.082C164.665 285.342 163.481 284.972 162.124 284.972C160.767 284.972 159.571 285.342 158.535 286.082C157.499 286.822 156.685 287.932 156.093 289.412C155.526 290.892 155.242 292.73 155.242 294.925C155.242 297.12 155.526 298.958 156.093 300.438C156.685 301.918 157.499 303.028 158.535 303.768C159.571 304.508 160.767 304.878 162.124 304.878Z" fill="white"/>
<path d="M344.812 62.9856C352.545 62.9856 355.579 66.2046 355.579 70.7926C355.579 75.2696 352.397 78.8586 345.774 78.8586C342.111 78.8586 338.485 77.6746 336.265 75.7136L337.967 72.7906C339.706 74.4186 342.592 75.5656 345.737 75.5656C349.659 75.5656 351.879 73.7526 351.879 70.9406C351.879 68.0176 350.029 66.2046 344.035 66.2046H338.152L339.521 52.6626H354.136V55.8816H342.629L341.926 62.9856H344.812Z" fill="#292C33" fill-opacity="0.6"/>
<path d="M325.844 104.975H335.353V130.875H331.69V108.194H325.844V104.975ZM345.94 127.656H359.223V130.875H340.612V128.359L351.157 118.184C353.895 115.52 354.413 113.892 354.413 112.264C354.413 109.6 352.526 107.972 348.9 107.972C346.125 107.972 343.868 108.86 342.277 110.784L339.761 108.601C341.759 106.122 345.2 104.679 349.233 104.679C354.635 104.679 358.113 107.454 358.113 111.894C358.113 114.41 357.373 116.667 353.858 120.034L345.94 127.656Z" fill="#292C33" fill-opacity="0.6"/>
<path d="M325.049 163.975H334.558V189.875H330.895V167.194H325.049V163.975ZM348.623 163.679C355.579 163.679 359.501 168.341 359.501 176.592C359.501 185.435 354.506 190.171 347.254 190.171C344.812 190.171 342.481 189.69 340.816 188.654L342.222 185.768C343.591 186.656 345.33 186.989 347.217 186.989C352.471 186.989 355.801 183.696 355.801 177.221V176.296C354.284 178.553 351.546 179.7 348.327 179.7C343.184 179.7 339.484 176.629 339.484 171.856C339.484 166.861 343.48 163.679 348.623 163.679ZM348.956 176.703C352.508 176.703 354.95 174.52 354.95 171.671C354.95 169.007 352.804 166.676 348.771 166.676C345.404 166.676 343.073 168.637 343.073 171.708C343.073 174.742 345.33 176.703 348.956 176.703Z" fill="#292C33" fill-opacity="0.6"/>
<path d="M322.365 248.875V246.359L332.91 236.184C333.847 235.296 334.538 234.519 334.982 233.853C335.45 233.162 335.759 232.533 335.907 231.966C336.079 231.374 336.166 230.807 336.166 230.264C336.166 228.932 335.697 227.884 334.76 227.119C333.822 226.354 332.453 225.972 330.653 225.972C329.271 225.972 328.026 226.206 326.916 226.675C325.806 227.119 324.844 227.822 324.03 228.784L321.514 226.601C322.5 225.343 323.82 224.381 325.473 223.715C327.15 223.024 328.988 222.679 330.986 222.679C332.786 222.679 334.353 222.975 335.685 223.567C337.017 224.134 338.04 224.961 338.756 226.046C339.496 227.131 339.866 228.414 339.866 229.894C339.866 230.733 339.755 231.559 339.533 232.373C339.311 233.187 338.891 234.05 338.275 234.963C337.658 235.876 336.77 236.899 335.611 238.034L326.213 247.099L325.325 245.656H340.976V248.875H322.365ZM354.86 249.171C352.566 249.171 350.605 248.665 348.977 247.654C347.349 246.643 346.103 245.187 345.24 243.288C344.401 241.364 343.982 239.021 343.982 236.258C343.982 233.323 344.5 230.844 345.536 228.821C346.572 226.798 348.015 225.269 349.865 224.233C351.715 223.197 353.836 222.679 356.229 222.679C357.462 222.679 358.634 222.802 359.744 223.049C360.878 223.296 361.853 223.678 362.667 224.196L361.261 227.082C360.595 226.613 359.83 226.293 358.967 226.12C358.128 225.947 357.24 225.861 356.303 225.861C353.663 225.861 351.567 226.687 350.013 228.34C348.459 229.968 347.682 232.398 347.682 235.629C347.682 236.147 347.706 236.764 347.756 237.479C347.805 238.194 347.928 238.897 348.126 239.588L346.868 238.33C347.238 237.195 347.817 236.246 348.607 235.481C349.421 234.692 350.383 234.112 351.493 233.742C352.627 233.347 353.848 233.15 355.156 233.15C356.882 233.15 358.412 233.471 359.744 234.112C361.076 234.753 362.124 235.666 362.889 236.85C363.653 238.009 364.036 239.391 364.036 240.994C364.036 242.647 363.629 244.09 362.815 245.323C362.001 246.556 360.903 247.506 359.522 248.172C358.14 248.838 356.586 249.171 354.86 249.171ZM354.712 246.174C355.846 246.174 356.833 245.964 357.672 245.545C358.535 245.126 359.213 244.546 359.707 243.806C360.2 243.041 360.447 242.153 360.447 241.142C360.447 239.613 359.916 238.404 358.856 237.516C357.795 236.603 356.352 236.147 354.527 236.147C353.343 236.147 352.307 236.369 351.419 236.813C350.531 237.257 349.828 237.861 349.31 238.626C348.816 239.366 348.57 240.217 348.57 241.179C348.57 242.067 348.804 242.893 349.273 243.658C349.741 244.398 350.432 245.002 351.345 245.471C352.257 245.94 353.38 246.174 354.712 246.174Z" fill="#292C33" fill-opacity="0.6"/>
<path d="M408.903 62.8375C414.046 62.8375 417.783 65.9085 417.783 70.6815C417.783 75.6765 413.75 78.8585 408.607 78.8585C401.651 78.8585 397.729 74.1965 397.729 65.9455C397.729 57.1025 402.724 52.3665 409.976 52.3665C412.418 52.3665 414.749 52.8475 416.414 53.8835L415.008 56.7695C413.676 55.8815 411.9 55.5485 410.05 55.5485C404.796 55.5485 401.429 58.8415 401.429 65.3165C401.429 65.6125 401.429 65.9085 401.466 66.2415C402.946 64.0215 405.684 62.8375 408.903 62.8375ZM408.459 75.8615C411.826 75.8615 414.194 73.9005 414.194 70.8295C414.194 67.7955 411.9 65.8345 408.274 65.8345C404.759 65.8345 402.317 68.0175 402.317 70.8665C402.317 73.5305 404.463 75.8615 408.459 75.8615Z" fill="#292C33" fill-opacity="0.6"/>
<path d="M390.38 104.975H399.889V130.875H396.226V108.194H390.38V104.975ZM415.471 115.853C420.651 116.334 423.278 119.257 423.278 123.253C423.278 127.619 420.059 131.171 413.473 131.171C409.773 131.171 406.147 129.987 403.964 128.026L405.666 125.103C407.405 126.731 410.291 127.878 413.473 127.878C417.358 127.878 419.578 126.102 419.578 123.29C419.578 120.552 417.617 118.776 413.177 118.776H411.105V116.186L417.617 108.194H405.148V104.975H422.242V107.491L415.471 115.853Z" fill="#292C33" fill-opacity="0.6"/>
<path d="M391.307 186.656H404.59V189.875H385.979V187.359L396.524 177.184C399.262 174.52 399.78 172.892 399.78 171.264C399.78 168.6 397.893 166.972 394.267 166.972C391.492 166.972 389.235 167.86 387.644 169.784L385.128 167.601C387.126 165.122 390.567 163.679 394.6 163.679C400.002 163.679 403.48 166.454 403.48 170.894C403.48 173.41 402.74 175.667 399.225 179.034L391.307 186.656ZM418.106 190.171C412.038 190.171 407.524 185.361 407.524 176.925C407.524 168.489 412.038 163.679 418.106 163.679C424.137 163.679 428.651 168.489 428.651 176.925C428.651 185.361 424.137 190.171 418.106 190.171ZM418.106 186.878C422.139 186.878 424.951 183.548 424.951 176.925C424.951 170.302 422.139 166.972 418.106 166.972C414.036 166.972 411.224 170.302 411.224 176.925C411.224 183.548 414.036 186.878 418.106 186.878Z" fill="#292C33" fill-opacity="0.6"/>
<path d="M12.5718 104.975H32.1078V107.491L21.6368 130.875H17.7148L27.9638 108.194H16.1238V112.819H12.5718V104.975Z" fill="#292C33" fill-opacity="0.6"/>
<path d="M3.5918 163.975H13.1008V189.875H9.4378V167.194H3.5918V163.975ZM41.2991 180.329V183.511H36.3781V189.875H32.7891V183.511H18.3961V180.921L31.6421 163.975H35.6381L22.9471 180.329H32.9001V174.705H36.3781V180.329H41.2991Z" fill="#292C33" fill-opacity="0.6"/>
<path d="M11.7451 245.656H25.0281V248.875H6.41716V246.359L16.9621 236.184C19.7001 233.52 20.2181 231.892 20.2181 230.264C20.2181 227.6 18.3311 225.972 14.7051 225.972C11.9301 225.972 9.67316 226.86 8.08216 228.784L5.56616 226.601C7.56416 224.122 11.0051 222.679 15.0381 222.679C20.4401 222.679 23.9181 225.454 23.9181 229.894C23.9181 232.41 23.1781 234.667 19.6631 238.034L11.7451 245.656ZM26.5902 222.975H36.0992V248.875H32.4362V226.194H26.5902V222.975Z" fill="#292C33" fill-opacity="0.6"/>
<path d="M79.2627 52.6626H88.7717V78.5626H85.1087V55.8816H79.2627V52.6626Z" fill="#292C33" fill-opacity="0.6"/>
<path d="M92.7247 117.296C95.6847 118.443 97.3127 120.589 97.3127 123.549C97.3127 128.248 93.3167 131.171 86.9897 131.171C80.6997 131.171 76.7407 128.248 76.7407 123.549C76.7407 120.589 78.3687 118.406 81.2917 117.296C78.9237 116.186 77.6657 114.262 77.6657 111.709C77.6657 107.38 81.4027 104.679 86.9897 104.679C92.6137 104.679 96.3877 107.38 96.3877 111.709C96.3877 114.262 95.0927 116.186 92.7247 117.296ZM86.9897 107.676C83.5117 107.676 81.3287 109.267 81.3287 111.857C81.3287 114.41 83.4377 116.001 86.9897 116.001C90.5787 116.001 92.7617 114.41 92.7617 111.857C92.7617 109.267 90.4677 107.676 86.9897 107.676ZM86.9897 128.174C91.0967 128.174 93.6127 126.361 93.6127 123.438C93.6127 120.589 91.0967 118.813 86.9897 118.813C82.8827 118.813 80.4407 120.589 80.4407 123.438C80.4407 126.361 82.8827 128.174 86.9897 128.174Z" fill="#292C33" fill-opacity="0.6"/>
<path d="M69.8442 163.975H79.3532V189.875H75.6902V167.194H69.8442V163.975ZM92.4186 174.298C100.152 174.298 103.186 177.517 103.186 182.105C103.186 186.582 100.004 190.171 93.3806 190.171C89.7176 190.171 86.0916 188.987 83.8716 187.026L85.5736 184.103C87.3126 185.731 90.1986 186.878 93.3436 186.878C97.2656 186.878 99.4856 185.065 99.4856 182.253C99.4856 179.33 97.6356 177.517 91.6416 177.517H85.7586L87.1276 163.975H101.743V167.194H90.2356L89.5326 174.298H92.4186Z" fill="#292C33" fill-opacity="0.6"/>
<path d="M72.4693 245.656H85.7523V248.875H67.1413V246.359L77.6863 236.184C80.4243 233.52 80.9423 231.892 80.9423 230.264C80.9423 227.6 79.0553 225.972 75.4293 225.972C72.6543 225.972 70.3973 226.86 68.8063 228.784L66.2903 226.601C68.2883 224.122 71.7293 222.679 75.7623 222.679C81.1643 222.679 84.6423 225.454 84.6423 229.894C84.6423 232.41 83.9023 234.667 80.3873 238.034L72.4693 245.656ZM93.7154 245.656H106.998V248.875H88.3874V246.359L98.9324 236.184C101.67 233.52 102.188 231.892 102.188 230.264C102.188 227.6 100.301 225.972 96.6754 225.972C93.9004 225.972 91.6434 226.86 90.0524 228.784L87.5364 226.601C89.5344 224.122 92.9754 222.679 97.0084 222.679C102.41 222.679 105.888 225.454 105.888 229.894C105.888 232.41 105.148 234.667 101.633 238.034L93.7154 245.656Z" fill="#292C33" fill-opacity="0.6"/>
<path d="M150.275 104.679C157.231 104.679 161.153 109.341 161.153 117.592C161.153 126.435 156.158 131.171 148.906 131.171C146.464 131.171 144.133 130.69 142.468 129.654L143.874 126.768C145.243 127.656 146.982 127.989 148.869 127.989C154.123 127.989 157.453 124.696 157.453 118.221V117.296C155.936 119.553 153.198 120.7 149.979 120.7C144.836 120.7 141.136 117.629 141.136 112.856C141.136 107.861 145.132 104.679 150.275 104.679ZM150.608 117.703C154.16 117.703 156.602 115.52 156.602 112.671C156.602 110.007 154.456 107.676 150.423 107.676C147.056 107.676 144.725 109.637 144.725 112.708C144.725 115.742 146.982 117.703 150.608 117.703Z" fill="#292C33" fill-opacity="0.6"/>
<path d="M133.549 163.975H143.058V189.875H139.395V167.194H133.549V163.975ZM159.898 174.15C165.041 174.15 168.778 177.221 168.778 181.994C168.778 186.989 164.745 190.171 159.602 190.171C152.646 190.171 148.724 185.509 148.724 177.258C148.724 168.415 153.719 163.679 160.971 163.679C163.413 163.679 165.744 164.16 167.409 165.196L166.003 168.082C164.671 167.194 162.895 166.861 161.045 166.861C155.791 166.861 152.424 170.154 152.424 176.629C152.424 176.925 152.424 177.221 152.461 177.554C153.941 175.334 156.679 174.15 159.898 174.15ZM159.454 187.174C162.821 187.174 165.189 185.213 165.189 182.142C165.189 179.108 162.895 177.147 159.269 177.147C155.754 177.147 153.312 179.33 153.312 182.179C153.312 184.843 155.458 187.174 159.454 187.174Z" fill="#292C33" fill-opacity="0.6"/>
<path d="M137.005 245.656H150.288V248.875H131.677V246.359L142.222 236.184C144.96 233.52 145.478 231.892 145.478 230.264C145.478 227.6 143.591 225.972 139.965 225.972C137.19 225.972 134.933 226.86 133.342 228.784L130.826 226.601C132.824 224.122 136.265 222.679 140.298 222.679C145.7 222.679 149.178 225.454 149.178 229.894C149.178 232.41 148.438 234.667 144.923 238.034L137.005 245.656ZM163.247 233.853C168.427 234.334 171.054 237.257 171.054 241.253C171.054 245.619 167.835 249.171 161.249 249.171C157.549 249.171 153.923 247.987 151.74 246.026L153.442 243.103C155.181 244.731 158.067 245.878 161.249 245.878C165.134 245.878 167.354 244.102 167.354 241.29C167.354 238.552 165.393 236.776 160.953 236.776H158.881V234.186L165.393 226.194H152.924V222.975H170.018V225.491L163.247 233.853Z" fill="#292C33" fill-opacity="0.6"/>
<path d="M148.843 75.3435H162.126V78.5625H143.515V76.0465L154.06 65.8715C156.798 63.2075 157.316 61.5795 157.316 59.9515C157.316 57.2875 155.429 55.6595 151.803 55.6595C149.028 55.6595 146.771 56.5475 145.18 58.4715L142.664 56.2885C144.662 53.8095 148.103 52.3665 152.136 52.3665C157.538 52.3665 161.016 55.1415 161.016 59.5815C161.016 62.0975 160.276 64.3545 156.761 67.7215L148.843 75.3435Z" fill="#292C33" fill-opacity="0.6"/>
<path d="M208.778 308.171C206.953 308.171 205.177 307.887 203.45 307.32C201.748 306.753 200.355 305.988 199.269 305.026L200.971 302.103C201.835 302.917 202.957 303.583 204.338 304.101C205.72 304.619 207.2 304.878 208.778 304.878C210.702 304.878 212.195 304.471 213.255 303.657C214.341 302.818 214.883 301.696 214.883 300.29C214.883 298.933 214.365 297.848 213.329 297.034C212.318 296.195 210.702 295.776 208.482 295.776H206.41V293.186L214.106 283.714L214.624 285.194H200.453V281.975H217.547V284.491L209.888 293.926L207.964 292.779H209.185C212.318 292.779 214.661 293.482 216.215 294.888C217.794 296.294 218.583 298.082 218.583 300.253C218.583 301.708 218.226 303.04 217.51 304.249C216.795 305.458 215.71 306.42 214.254 307.135C212.824 307.826 210.998 308.171 208.778 308.171ZM226.4 307.875V283.455L227.991 285.194H220.554V281.975H230.063V307.875H226.4Z" fill="#292C33" fill-opacity="0.6"/>
</g>
</g>
<defs>
<clipPath id="clip0_3525_5426">
<rect width="431" height="318" fill="white" transform="translate(0.5)"/>
</clipPath>
</defs>
</svg>
