<svg width="431" height="313" viewBox="0 0 431 313" fill="none" xmlns="http://www.w3.org/2000/svg">
<g clip-path="url(#clip0_528_2792)">
<rect width="57" height="47" transform="translate(121.19 267)" fill="#3C78EC"/>
<path d="M22.9564 20.2099H20.3476V3.27762H10.8906V20.2099H8.2002V1.29027H22.8749V20.2099H22.9564Z" fill="#B3B3B3"/>
<path d="M38.7725 20.2098H36.1636V14.2478H29.7231V20.2098H27.1143V6.13936H29.7231V12.2604H36.1636V6.13936H38.7725V20.2098Z" fill="#B3B3B3"/>
<path d="M73 20.2099V1.29027H79.359C81.3972 1.29027 82.9462 1.68774 84.0875 2.56217C85.2289 3.43661 85.7996 4.70851 85.7996 6.37789C85.7996 7.17283 85.555 7.88828 85.0658 8.60373C84.5767 9.31917 83.8429 9.71664 83.0277 10.0346C84.3321 10.1936 85.3104 10.7501 86.0441 11.6245C86.7779 12.4989 87.1855 13.6119 87.1855 14.8043C87.1855 16.5531 86.6148 17.825 85.4735 18.779C84.3321 19.7329 82.7831 20.1304 80.745 20.1304H73V20.2099ZM75.6904 9.31917H79.9297C80.908 9.31917 81.7233 9.08069 82.294 8.52423C82.9462 7.96777 83.1907 7.25233 83.1907 6.2984C83.1907 5.26497 82.8646 4.54953 82.2124 3.99307C81.5602 3.5161 80.5819 3.19813 79.359 3.19813H75.6904V9.31917ZM75.6904 11.3065V18.143H80.745C81.9678 18.143 82.8646 17.825 83.5168 17.2686C84.1691 16.7121 84.4952 15.8377 84.4952 14.8043C84.4952 13.7708 84.1691 12.8964 83.5168 12.2605C82.8646 11.6245 81.9678 11.3065 80.745 11.227H80.5819H75.6904V11.3065Z" fill="#B3B3B3"/>
<path d="M101.126 8.12671H96.3976V20.2098H93.7888V8.12671H89.0603V6.13936H101.126V8.12671Z" fill="#B3B3B3"/>
<path d="M150.512 14.1682C150.593 15.9966 149.941 17.507 148.637 18.6994C147.332 19.8918 145.62 20.5278 143.419 20.5278C141.218 20.5278 139.424 19.7328 138.038 18.2224C136.652 16.7121 136 14.8042 136 12.4194V9.08063C136 6.7753 136.652 4.78795 138.038 3.27756C139.424 1.76717 141.218 0.972229 143.419 0.972229C145.62 0.972229 147.332 1.52869 148.637 2.64161C149.941 3.75452 150.593 5.26491 150.512 7.17277V7.25226H147.984C147.984 5.90086 147.577 4.86744 146.761 4.0725C145.946 3.27756 144.805 2.88009 143.337 2.88009C141.87 2.88009 140.729 3.43655 139.832 4.62896C138.935 5.74188 138.527 7.17277 138.527 8.92164V12.3399C138.527 14.0888 138.935 15.5196 139.832 16.6326C140.729 17.7455 141.87 18.3814 143.337 18.3814C144.805 18.3814 145.946 17.984 146.761 17.2685C147.577 16.4736 147.984 15.4402 147.984 14.0888H150.512V14.1682Z" fill="#B3B3B3"/>
<path d="M165.92 13.6914C165.92 15.7582 165.431 17.3481 164.453 18.62C163.474 19.8919 162.088 20.4484 160.295 20.4484C159.398 20.4484 158.664 20.2894 157.93 20.0509C157.278 19.7329 156.708 19.3354 156.218 18.779V25.6155H153.61V6.13942H155.648L156.055 7.96779C156.545 7.25234 157.115 6.77538 157.849 6.4574C158.583 6.13942 159.398 5.90094 160.295 5.90094C162.088 5.90094 163.474 6.61639 164.453 7.96779C165.431 9.31919 165.92 11.1476 165.92 13.4529V13.6914ZM163.311 13.4529C163.311 11.863 162.985 10.5116 162.333 9.55767C161.681 8.60374 160.702 8.04728 159.479 8.04728C158.746 8.04728 158.094 8.20627 157.523 8.52425C156.952 8.84222 156.545 9.31919 156.218 9.87565V16.7121C156.545 17.2686 156.952 17.7456 157.523 18.0635C158.094 18.3815 158.746 18.5405 159.479 18.5405C160.702 18.5405 161.681 18.0635 162.333 17.1891C162.985 16.3147 163.311 15.1223 163.311 13.7709V13.4529Z" fill="#B3B3B3"/>
<path d="M215.43 1.29027V20.2099H212.821V12.3399C212.006 12.5784 211.191 12.7374 210.375 12.8964C209.56 12.9759 208.663 13.0554 207.522 13.0554C205.402 13.0554 203.772 12.5784 202.631 11.704C201.489 10.8296 201 9.31917 201 7.25233V1.29027H203.609V7.25233C203.609 8.68322 203.935 9.63715 204.506 10.1936C205.158 10.7501 206.136 10.9885 207.441 10.9885C208.337 10.9885 209.234 10.9091 210.131 10.8296C210.946 10.6706 211.843 10.5116 212.74 10.2731V1.29027H215.43Z" fill="#B3B3B3"/>
<path d="M230.675 8.12671H225.947V20.2098H223.338V8.12671H218.61V6.13936H230.675V8.12671Z" fill="#B3B3B3"/>
<path d="M279.675 20.2099H277.066V3.27762H267.609V20.2099H265V1.29027H279.675V20.2099Z" fill="#B3B3B3"/>
<path d="M294.92 8.12682H290.192V20.2099H287.583V8.12682H282.854V6.13947H294.92V8.12682Z" fill="#B3B3B3"/>
<path d="M344.512 14.1681C344.593 15.9964 343.941 17.5068 342.637 18.6992C341.332 19.8917 339.62 20.5276 337.419 20.5276C335.218 20.5276 333.424 19.7327 332.038 18.2223C330.652 16.7119 330 14.804 330 12.4192V9.08046C330 6.77513 330.652 4.78778 332.038 3.27739C333.424 1.767 335.218 0.972061 337.419 0.972061C339.62 0.972061 341.332 1.52852 342.637 2.64144C343.941 3.75435 344.593 5.26474 344.512 7.1726V7.2521H341.984C341.984 5.9007 341.577 4.86727 340.761 4.07233C339.946 3.27739 338.805 2.87992 337.337 2.87992C335.87 2.87992 334.729 3.43638 333.832 4.62879C332.935 5.74171 332.527 7.1726 332.527 8.92147V12.3397C332.527 14.0886 332.935 15.5195 333.832 16.6324C334.729 17.7453 335.87 18.3813 337.337 18.3813C338.805 18.3813 339.946 17.9838 340.761 17.2684C341.577 16.4734 341.984 15.44 341.984 14.0886H344.512V14.1681Z" fill="#B3B3B3"/>
<path d="M353.887 5.90068C355.762 5.90068 357.148 6.53663 358.208 7.88803C359.268 9.23943 359.838 10.9088 359.838 13.0551V13.3731C359.838 15.44 359.268 17.1888 358.126 18.5402C356.985 19.8916 355.436 20.5276 353.398 20.5276C351.36 20.5276 349.811 19.8916 348.669 18.5402C347.528 17.1888 346.957 15.5195 346.957 13.3731V13.0551C346.957 12.9757 346.957 12.8962 346.957 12.8962C346.957 12.8167 346.957 12.8167 346.957 12.7372V9.7164C346.957 7.0136 347.528 5.10574 348.588 3.83383C349.648 2.56193 351.278 1.92597 353.398 1.76699C354.621 1.68749 355.599 1.5285 356.251 1.29002C356.903 1.05154 357.23 0.654069 357.23 0.0976105H359.268V0.177105C359.349 1.5285 358.86 2.48243 357.882 3.03889C356.903 3.59535 355.517 3.91333 353.642 3.91333C352.256 3.91333 351.197 4.3108 350.381 5.02624C349.566 5.74169 349.158 6.77511 349.158 8.12651V8.20601C349.648 7.57006 350.381 7.0136 351.197 6.61613C352.012 6.21866 352.99 5.90068 353.887 5.90068ZM353.398 7.88803C352.175 7.88803 351.197 8.365 350.544 9.31893C349.892 10.2729 349.566 11.5448 349.566 12.9757V13.2936C349.566 14.804 349.892 15.9964 350.544 16.9504C351.197 17.9043 352.175 18.3813 353.398 18.3813C354.621 18.3813 355.599 17.9043 356.251 16.9504C356.903 15.9964 357.23 14.7245 357.23 13.2936V12.9757C357.23 11.4653 356.903 10.2729 356.251 9.31893C355.599 8.365 354.621 7.88803 353.398 7.88803Z" fill="#B3B3B3"/>
<path d="M394 20.2099V1.29027H400.359C402.397 1.29027 403.946 1.68774 405.088 2.56217C406.229 3.43661 406.8 4.70851 406.8 6.37789C406.8 7.17283 406.555 7.88828 406.066 8.60373C405.577 9.31917 404.843 9.71664 404.028 10.1141C405.332 10.2731 406.31 10.8296 407.044 11.704C407.778 12.5784 408.186 13.6913 408.186 14.8838C408.186 16.6326 407.615 17.9045 406.473 18.8585C405.332 19.8124 403.783 20.2099 401.745 20.2099H394ZM396.69 9.31917H400.93C401.908 9.31917 402.723 9.08069 403.294 8.52423C403.946 7.96777 404.191 7.25233 404.191 6.2984C404.191 5.26497 403.865 4.54953 403.212 3.99307C402.56 3.5161 401.582 3.19813 400.359 3.19813H396.69V9.31917ZM396.69 11.3065V18.143H401.745C402.968 18.143 403.865 17.825 404.517 17.2686C405.169 16.7121 405.495 15.8377 405.495 14.8043C405.495 13.7708 405.169 12.8964 404.517 12.2605C403.865 11.6245 402.968 11.3065 401.745 11.227H401.582H396.69V11.3065Z" fill="#B3B3B3"/>
<path d="M416.745 18.4607C417.561 18.4607 418.294 18.2222 418.865 17.6658C419.436 17.1093 419.762 16.4734 419.762 15.7579H422.126V15.8374C422.126 17.0298 421.637 18.1427 420.496 19.0967C419.354 20.0506 418.131 20.5276 416.664 20.5276C414.626 20.5276 413.077 19.8916 411.935 18.5402C410.794 17.1888 410.305 15.5194 410.305 13.5321V12.9756C410.305 10.9883 410.876 9.31889 411.935 7.96749C413.077 6.61609 414.626 5.98013 416.582 5.98013C418.213 5.98013 419.517 6.4571 420.496 7.41103C421.474 8.36496 422.045 9.55737 421.963 10.9883V11.0678H419.599C419.599 10.1933 419.273 9.47787 418.702 8.84192C418.131 8.20597 417.398 7.96749 416.501 7.96749C415.196 7.96749 414.3 8.44445 413.647 9.39838C413.077 10.3523 412.751 11.5447 412.751 12.9756V13.5321C412.751 14.963 413.077 16.1554 413.647 17.1093C414.544 17.9837 415.441 18.4607 416.745 18.4607Z" fill="#B3B3B3"/>
<path d="M279.295 74V49.58L280.886 51.319H273.449V48.1H282.958V74H279.295Z" fill="#292C33"/>
<path d="M278.912 126.296C276.815 126.296 275.002 125.988 273.473 125.371C271.943 124.754 270.759 123.879 269.921 122.744C269.082 121.585 268.663 120.228 268.663 118.674C268.663 117.145 269.057 115.85 269.847 114.789C270.661 113.704 271.832 112.89 273.362 112.347C274.891 111.78 276.741 111.496 278.912 111.496C281.082 111.496 282.932 111.78 284.462 112.347C286.016 112.89 287.2 113.704 288.014 114.789C288.828 115.874 289.235 117.169 289.235 118.674C289.235 120.228 288.815 121.585 287.977 122.744C287.138 123.879 285.942 124.754 284.388 125.371C282.834 125.988 281.008 126.296 278.912 126.296ZM278.912 123.299C280.984 123.299 282.599 122.88 283.759 122.041C284.943 121.178 285.535 120.018 285.535 118.563C285.535 117.132 284.943 116.01 283.759 115.196C282.599 114.357 280.984 113.938 278.912 113.938C276.864 113.938 275.261 114.357 274.102 115.196C272.942 116.01 272.363 117.132 272.363 118.563C272.363 120.018 272.942 121.178 274.102 122.041C275.261 122.88 276.864 123.299 278.912 123.299ZM278.912 113.494C276.938 113.494 275.261 113.235 273.88 112.717C272.498 112.174 271.438 111.41 270.698 110.423C269.958 109.412 269.588 108.215 269.588 106.834C269.588 105.379 269.97 104.133 270.735 103.097C271.524 102.036 272.622 101.222 274.028 100.655C275.434 100.088 277.062 99.804 278.912 99.804C280.786 99.804 282.427 100.088 283.833 100.655C285.239 101.222 286.336 102.036 287.126 103.097C287.915 104.133 288.31 105.379 288.31 106.834C288.31 108.215 287.94 109.412 287.2 110.423C286.46 111.41 285.387 112.174 283.981 112.717C282.575 113.235 280.885 113.494 278.912 113.494ZM278.912 111.126C280.712 111.126 282.118 110.756 283.13 110.016C284.166 109.276 284.684 108.265 284.684 106.982C284.684 105.675 284.153 104.651 283.093 103.911C282.032 103.171 280.638 102.801 278.912 102.801C277.185 102.801 275.804 103.171 274.768 103.911C273.756 104.651 273.251 105.675 273.251 106.982C273.251 108.265 273.744 109.276 274.731 110.016C275.742 110.756 277.136 111.126 278.912 111.126Z" fill="#292C33"/>
<path d="M267.612 185V160.58L269.203 162.319H261.766V159.1H271.275V185H267.612ZM285.303 185.296C283.477 185.296 281.701 185.012 279.975 184.445C278.273 183.878 276.879 183.113 275.794 182.151L277.496 179.228C278.359 180.042 279.481 180.708 280.863 181.226C282.244 181.744 283.712 182.003 285.266 182.003C287.239 182.003 288.756 181.584 289.817 180.745C290.877 179.906 291.408 178.784 291.408 177.378C291.408 176.416 291.173 175.577 290.705 174.862C290.236 174.147 289.422 173.604 288.263 173.234C287.128 172.839 285.562 172.642 283.564 172.642H277.681L279.05 159.1H293.665V162.319H280.419L282.343 160.506L281.27 171.199L279.346 169.423H284.341C286.931 169.423 289.015 169.756 290.594 170.422C292.172 171.088 293.319 172.013 294.035 173.197C294.75 174.356 295.108 175.701 295.108 177.23C295.108 178.71 294.75 180.067 294.035 181.3C293.319 182.509 292.234 183.483 290.779 184.223C289.348 184.938 287.523 185.296 285.303 185.296Z" fill="#292C33"/>
<path d="M259.063 244V241.484L269.608 231.309C270.546 230.421 271.236 229.644 271.68 228.978C272.149 228.287 272.457 227.658 272.605 227.091C272.778 226.499 272.864 225.932 272.864 225.389C272.864 224.057 272.396 223.009 271.458 222.244C270.521 221.479 269.152 221.097 267.351 221.097C265.97 221.097 264.724 221.331 263.614 221.8C262.504 222.244 261.542 222.947 260.728 223.909L258.212 221.726C259.199 220.468 260.519 219.506 262.171 218.84C263.849 218.149 265.686 217.804 267.684 217.804C269.485 217.804 271.051 218.1 272.383 218.692C273.715 219.259 274.739 220.086 275.454 221.171C276.194 222.256 276.564 223.539 276.564 225.019C276.564 225.858 276.453 226.684 276.231 227.498C276.009 228.312 275.59 229.175 274.973 230.088C274.357 231.001 273.469 232.024 272.309 233.159L262.911 242.224L262.023 240.781H277.674V244H259.063ZM280.309 244V241.484L290.854 231.309C291.792 230.421 292.482 229.644 292.926 228.978C293.395 228.287 293.703 227.658 293.851 227.091C294.024 226.499 294.11 225.932 294.11 225.389C294.11 224.057 293.642 223.009 292.704 222.244C291.767 221.479 290.398 221.097 288.597 221.097C287.216 221.097 285.97 221.331 284.86 221.8C283.75 222.244 282.788 222.947 281.974 223.909L279.458 221.726C280.445 220.468 281.765 219.506 283.417 218.84C285.095 218.149 286.932 217.804 288.93 217.804C290.731 217.804 292.297 218.1 293.629 218.692C294.961 219.259 295.985 220.086 296.7 221.171C297.44 222.256 297.81 223.539 297.81 225.019C297.81 225.858 297.699 226.684 297.477 227.498C297.255 228.312 296.836 229.175 296.219 230.088C295.603 231.001 294.715 232.024 293.555 233.159L284.157 242.224L283.269 240.781H298.92V244H280.309Z" fill="#292C33"/>
<path d="M258.268 303V300.484L268.813 290.309C269.751 289.421 270.441 288.644 270.885 287.978C271.354 287.287 271.662 286.658 271.81 286.091C271.983 285.499 272.069 284.932 272.069 284.389C272.069 283.057 271.601 282.009 270.663 281.244C269.726 280.479 268.357 280.097 266.556 280.097C265.175 280.097 263.929 280.331 262.819 280.8C261.709 281.244 260.747 281.947 259.933 282.909L257.417 280.726C258.404 279.468 259.724 278.506 261.376 277.84C263.054 277.149 264.891 276.804 266.889 276.804C268.69 276.804 270.256 277.1 271.588 277.692C272.92 278.259 273.944 279.086 274.659 280.171C275.399 281.256 275.769 282.539 275.769 284.019C275.769 284.858 275.658 285.684 275.436 286.498C275.214 287.312 274.795 288.175 274.178 289.088C273.562 290.001 272.674 291.024 271.514 292.159L262.116 301.224L261.228 299.781H276.879V303H258.268ZM288.321 276.804C290.664 276.804 292.637 277.31 294.241 278.321C295.869 279.332 297.102 280.8 297.941 282.724C298.779 284.623 299.199 286.954 299.199 289.717C299.199 292.652 298.681 295.131 297.645 297.154C296.609 299.177 295.178 300.706 293.353 301.742C291.527 302.778 289.394 303.296 286.952 303.296C285.743 303.296 284.571 303.173 283.437 302.926C282.327 302.679 281.352 302.297 280.514 301.779L281.92 298.893C282.61 299.337 283.375 299.658 284.214 299.855C285.077 300.028 285.977 300.114 286.915 300.114C289.529 300.114 291.614 299.3 293.168 297.672C294.722 296.019 295.499 293.577 295.499 290.346C295.499 289.828 295.474 289.211 295.425 288.496C295.375 287.781 295.264 287.078 295.092 286.387L296.313 287.645C295.967 288.78 295.388 289.742 294.574 290.531C293.784 291.296 292.822 291.875 291.688 292.27C290.578 292.64 289.357 292.825 288.025 292.825C286.323 292.825 284.806 292.504 283.474 291.863C282.142 291.222 281.093 290.321 280.329 289.162C279.564 287.978 279.182 286.584 279.182 284.981C279.182 283.304 279.576 281.861 280.366 280.652C281.18 279.419 282.277 278.469 283.659 277.803C285.065 277.137 286.619 276.804 288.321 276.804ZM288.469 279.801C287.359 279.801 286.372 280.011 285.509 280.43C284.645 280.849 283.967 281.429 283.474 282.169C283.005 282.909 282.771 283.797 282.771 284.833C282.771 286.362 283.301 287.583 284.362 288.496C285.422 289.384 286.853 289.828 288.654 289.828C289.838 289.828 290.874 289.606 291.762 289.162C292.674 288.718 293.377 288.114 293.871 287.349C294.389 286.584 294.648 285.733 294.648 284.796C294.648 283.883 294.413 283.057 293.945 282.317C293.476 281.577 292.785 280.973 291.873 280.504C290.96 280.035 289.825 279.801 288.469 279.801Z" fill="#292C33"/>
<path d="M331.496 74V71.484L342.041 61.309C342.978 60.421 343.669 59.644 344.113 58.978C344.582 58.2873 344.89 57.6583 345.038 57.091C345.211 56.499 345.297 55.9317 345.297 55.389C345.297 54.057 344.828 53.0087 343.891 52.244C342.954 51.4793 341.585 51.097 339.784 51.097C338.403 51.097 337.157 51.3313 336.047 51.8C334.937 52.244 333.975 52.947 333.161 53.909L330.645 51.726C331.632 50.468 332.951 49.506 334.604 48.84C336.281 48.1493 338.119 47.804 340.117 47.804C341.918 47.804 343.484 48.1 344.816 48.692C346.148 49.2593 347.172 50.0857 347.887 51.171C348.627 52.2563 348.997 53.539 348.997 55.019C348.997 55.8577 348.886 56.684 348.664 57.498C348.442 58.312 348.023 59.1753 347.406 60.088C346.789 61.0007 345.901 62.0243 344.742 63.159L335.344 72.224L334.456 70.781H350.107V74H331.496Z" fill="#292C33"/>
<path d="M342.197 99.804C344.541 99.804 346.514 100.31 348.117 101.321C349.745 102.332 350.979 103.8 351.817 105.724C352.656 107.623 353.075 109.954 353.075 112.717C353.075 115.652 352.557 118.131 351.521 120.154C350.485 122.177 349.055 123.706 347.229 124.742C345.404 125.778 343.27 126.296 340.828 126.296C339.62 126.296 338.448 126.173 337.313 125.926C336.203 125.679 335.229 125.297 334.39 124.779L335.796 121.893C336.487 122.337 337.252 122.658 338.09 122.855C338.954 123.028 339.854 123.114 340.791 123.114C343.406 123.114 345.49 122.3 347.044 120.672C348.598 119.019 349.375 116.577 349.375 113.346C349.375 112.828 349.351 112.211 349.301 111.496C349.252 110.781 349.141 110.078 348.968 109.387L350.189 110.645C349.844 111.78 349.264 112.742 348.45 113.531C347.661 114.296 346.699 114.875 345.564 115.27C344.454 115.64 343.233 115.825 341.901 115.825C340.199 115.825 338.682 115.504 337.35 114.863C336.018 114.222 334.97 113.321 334.205 112.162C333.441 110.978 333.058 109.584 333.058 107.981C333.058 106.304 333.453 104.861 334.242 103.652C335.056 102.419 336.154 101.469 337.535 100.803C338.941 100.137 340.495 99.804 342.197 99.804ZM342.345 102.801C341.235 102.801 340.249 103.011 339.385 103.43C338.522 103.849 337.844 104.429 337.35 105.169C336.882 105.909 336.647 106.797 336.647 107.833C336.647 109.362 337.178 110.583 338.238 111.496C339.299 112.384 340.73 112.828 342.53 112.828C343.714 112.828 344.75 112.606 345.638 112.162C346.551 111.718 347.254 111.114 347.747 110.349C348.265 109.584 348.524 108.733 348.524 107.796C348.524 106.883 348.29 106.057 347.821 105.317C347.353 104.577 346.662 103.973 345.749 103.504C344.837 103.035 343.702 102.801 342.345 102.801Z" fill="#292C33"/>
<path d="M331.317 185V160.58L332.908 162.319H325.471V159.1H334.98V185H331.317ZM351.524 185.296C349.23 185.296 347.269 184.79 345.641 183.779C344.013 182.768 342.767 181.312 341.904 179.413C341.065 177.489 340.646 175.146 340.646 172.383C340.646 169.448 341.164 166.969 342.2 164.946C343.236 162.923 344.679 161.394 346.529 160.358C348.379 159.322 350.5 158.804 352.893 158.804C354.126 158.804 355.298 158.927 356.408 159.174C357.542 159.421 358.517 159.803 359.331 160.321L357.925 163.207C357.259 162.738 356.494 162.418 355.631 162.245C354.792 162.072 353.904 161.986 352.967 161.986C350.327 161.986 348.231 162.812 346.677 164.465C345.123 166.093 344.346 168.523 344.346 171.754C344.346 172.272 344.37 172.889 344.42 173.604C344.469 174.319 344.592 175.022 344.79 175.713L343.532 174.455C343.902 173.32 344.481 172.371 345.271 171.606C346.085 170.817 347.047 170.237 348.157 169.867C349.291 169.472 350.512 169.275 351.82 169.275C353.546 169.275 355.076 169.596 356.408 170.237C357.74 170.878 358.788 171.791 359.553 172.975C360.317 174.134 360.7 175.516 360.7 177.119C360.7 178.772 360.293 180.215 359.479 181.448C358.665 182.681 357.567 183.631 356.186 184.297C354.804 184.963 353.25 185.296 351.524 185.296ZM351.376 182.299C352.51 182.299 353.497 182.089 354.336 181.67C355.199 181.251 355.877 180.671 356.371 179.931C356.864 179.166 357.111 178.278 357.111 177.267C357.111 175.738 356.58 174.529 355.52 173.641C354.459 172.728 353.016 172.272 351.191 172.272C350.007 172.272 348.971 172.494 348.083 172.938C347.195 173.382 346.492 173.986 345.974 174.751C345.48 175.491 345.234 176.342 345.234 177.304C345.234 178.192 345.468 179.018 345.937 179.783C346.405 180.523 347.096 181.127 348.009 181.596C348.921 182.065 350.044 182.299 351.376 182.299Z" fill="#292C33"/>
<path d="M323.599 244V241.484L334.144 231.309C335.082 230.421 335.772 229.644 336.216 228.978C336.685 228.287 336.993 227.658 337.141 227.091C337.314 226.499 337.4 225.932 337.4 225.389C337.4 224.057 336.932 223.009 335.994 222.244C335.057 221.479 333.688 221.097 331.887 221.097C330.506 221.097 329.26 221.331 328.15 221.8C327.04 222.244 326.078 222.947 325.264 223.909L322.748 221.726C323.735 220.468 325.055 219.506 326.707 218.84C328.385 218.149 330.222 217.804 332.22 217.804C334.021 217.804 335.587 218.1 336.919 218.692C338.251 219.259 339.275 220.086 339.99 221.171C340.73 222.256 341.1 223.539 341.1 225.019C341.1 225.858 340.989 226.684 340.767 227.498C340.545 228.312 340.126 229.175 339.509 230.088C338.893 231.001 338.005 232.024 336.845 233.159L327.447 242.224L326.559 240.781H342.21V244H323.599ZM353.171 244.296C351.345 244.296 349.569 244.012 347.843 243.445C346.141 242.878 344.747 242.113 343.662 241.151L345.364 238.228C346.227 239.042 347.349 239.708 348.731 240.226C350.112 240.744 351.592 241.003 353.171 241.003C355.095 241.003 356.587 240.596 357.648 239.782C358.733 238.943 359.276 237.821 359.276 236.415C359.276 235.058 358.758 233.973 357.722 233.159C356.71 232.32 355.095 231.901 352.875 231.901H350.803V229.311L358.499 219.839L359.017 221.319H344.846V218.1H361.94V220.616L354.281 230.051L352.357 228.904H353.578C356.71 228.904 359.054 229.607 360.608 231.013C362.186 232.419 362.976 234.207 362.976 236.378C362.976 237.833 362.618 239.165 361.903 240.374C361.187 241.583 360.102 242.545 358.647 243.26C357.216 243.951 355.391 244.296 353.171 244.296Z" fill="#292C33"/>
<path d="M330.208 303.296C328.383 303.296 326.607 303.012 324.88 302.445C323.178 301.878 321.784 301.113 320.699 300.151L322.401 297.228C323.264 298.042 324.387 298.708 325.768 299.226C327.149 299.744 328.629 300.003 330.208 300.003C332.132 300.003 333.624 299.596 334.685 298.782C335.77 297.943 336.313 296.821 336.313 295.415C336.313 294.058 335.795 292.973 334.759 292.159C333.748 291.32 332.132 290.901 329.912 290.901H327.84V288.311L335.536 278.839L336.054 280.319H321.883V277.1H338.977V279.616L331.318 289.051L329.394 287.904H330.615C333.748 287.904 336.091 288.607 337.645 290.013C339.224 291.419 340.013 293.207 340.013 295.378C340.013 296.833 339.655 298.165 338.94 299.374C338.225 300.583 337.139 301.545 335.684 302.26C334.253 302.951 332.428 303.296 330.208 303.296ZM354.046 303.296C352.023 303.296 350.21 302.778 348.607 301.742C347.028 300.706 345.77 299.201 344.833 297.228C343.92 295.255 343.464 292.862 343.464 290.05C343.464 287.238 343.92 284.845 344.833 282.872C345.77 280.899 347.028 279.394 348.607 278.358C350.21 277.322 352.023 276.804 354.046 276.804C356.044 276.804 357.845 277.322 359.448 278.358C361.051 279.394 362.309 280.899 363.222 282.872C364.135 284.845 364.591 287.238 364.591 290.05C364.591 292.862 364.135 295.255 363.222 297.228C362.309 299.201 361.051 300.706 359.448 301.742C357.845 302.778 356.044 303.296 354.046 303.296ZM354.046 300.003C355.403 300.003 356.587 299.633 357.598 298.893C358.634 298.153 359.436 297.043 360.003 295.563C360.595 294.083 360.891 292.245 360.891 290.05C360.891 287.855 360.595 286.017 360.003 284.537C359.436 283.057 358.634 281.947 357.598 281.207C356.587 280.467 355.403 280.097 354.046 280.097C352.689 280.097 351.493 280.467 350.457 281.207C349.421 281.947 348.607 283.057 348.015 284.537C347.448 286.017 347.164 287.855 347.164 290.05C347.164 292.245 347.448 294.083 348.015 295.563C348.607 297.043 349.421 298.153 350.457 298.893C351.493 299.633 352.689 300.003 354.046 300.003Z" fill="#292C33"/>
<path d="M404.423 74.296C402.598 74.296 400.822 74.0123 399.095 73.445C397.393 72.8777 396 72.113 394.914 71.151L396.616 68.228C397.48 69.042 398.602 69.708 399.983 70.226C401.365 70.744 402.845 71.003 404.423 71.003C406.347 71.003 407.84 70.596 408.9 69.782C409.986 68.9433 410.528 67.821 410.528 66.415C410.528 65.0583 410.01 63.973 408.974 63.159C407.963 62.3203 406.347 61.901 404.127 61.901H402.055V59.311L409.751 49.839L410.269 51.319H396.098V48.1H413.192V50.616L405.533 60.051L403.609 58.904H404.83C407.963 58.904 410.306 59.607 411.86 61.013C413.439 62.419 414.228 64.2073 414.228 66.378C414.228 67.8333 413.871 69.1653 413.155 70.374C412.44 71.5827 411.355 72.5447 409.899 73.26C408.469 73.9507 406.643 74.296 404.423 74.296Z" fill="#292C33"/>
<path d="M395.396 126V101.58L396.987 103.319H389.55V100.1H399.059V126H395.396ZM415.306 126.296C413.284 126.296 411.471 125.778 409.867 124.742C408.289 123.706 407.031 122.201 406.093 120.228C405.181 118.255 404.724 115.862 404.724 113.05C404.724 110.238 405.181 107.845 406.093 105.872C407.031 103.899 408.289 102.394 409.867 101.358C411.471 100.322 413.284 99.804 415.306 99.804C417.304 99.804 419.105 100.322 420.708 101.358C422.312 102.394 423.57 103.899 424.482 105.872C425.395 107.845 425.851 110.238 425.851 113.05C425.851 115.862 425.395 118.255 424.482 120.228C423.57 122.201 422.312 123.706 420.708 124.742C419.105 125.778 417.304 126.296 415.306 126.296ZM415.306 123.003C416.663 123.003 417.847 122.633 418.858 121.893C419.894 121.153 420.696 120.043 421.263 118.563C421.855 117.083 422.151 115.245 422.151 113.05C422.151 110.855 421.855 109.017 421.263 107.537C420.696 106.057 419.894 104.947 418.858 104.207C417.847 103.467 416.663 103.097 415.306 103.097C413.95 103.097 412.753 103.467 411.717 104.207C410.681 104.947 409.867 106.057 409.275 107.537C408.708 109.017 408.424 110.855 408.424 113.05C408.424 115.245 408.708 117.083 409.275 118.563C409.867 120.043 410.681 121.153 411.717 121.893C412.753 122.633 413.95 123.003 415.306 123.003Z" fill="#292C33"/>
<path d="M387.172 244V241.484L397.717 231.309C398.655 230.421 399.345 229.644 399.789 228.978C400.258 228.287 400.566 227.658 400.714 227.091C400.887 226.499 400.973 225.932 400.973 225.389C400.973 224.057 400.505 223.009 399.567 222.244C398.63 221.479 397.261 221.097 395.46 221.097C394.079 221.097 392.833 221.331 391.723 221.8C390.613 222.244 389.651 222.947 388.837 223.909L386.321 221.726C387.308 220.468 388.628 219.506 390.28 218.84C391.958 218.149 393.795 217.804 395.793 217.804C397.594 217.804 399.16 218.1 400.492 218.692C401.824 219.259 402.848 220.086 403.563 221.171C404.303 222.256 404.673 223.539 404.673 225.019C404.673 225.858 404.562 226.684 404.34 227.498C404.118 228.312 403.699 229.175 403.082 230.088C402.466 231.001 401.578 232.024 400.418 233.159L391.02 242.224L390.132 240.781H405.783V244H387.172ZM407.733 237.636V235.046L420.979 218.1H424.975L411.84 235.046L409.953 234.454H430.636V237.636H407.733ZM422.126 244V237.636L422.237 234.454V228.83H425.715V244H422.126Z" fill="#292C33"/>
<path d="M10.9709 119.636V117.046L24.2169 100.1H28.2129L15.0779 117.046L13.1909 116.454H33.8739V119.636H10.9709ZM25.3639 126V119.636L25.4749 116.454V110.83H28.9529V126H25.3639Z" fill="#292C33"/>
<path d="M14.3881 185V160.58L15.9791 162.319H8.54209V159.1H18.0511V185H14.3881ZM28.0824 185V160.58L29.6734 162.319H22.2364V159.1H31.7454V185H28.0824Z" fill="#292C33"/>
<path d="M9.3295 244V219.58L10.9205 221.319H3.4835V218.1H12.9925V244H9.3295ZM28.7588 244.296C26.6622 244.296 24.8492 243.988 23.3198 243.371C21.7905 242.754 20.6065 241.879 19.7678 240.744C18.9292 239.585 18.5098 238.228 18.5098 236.674C18.5098 235.145 18.9045 233.85 19.6938 232.789C20.5078 231.704 21.6795 230.89 23.2088 230.347C24.7382 229.78 26.5882 229.496 28.7588 229.496C30.9295 229.496 32.7795 229.78 34.3088 230.347C35.8628 230.89 37.0468 231.704 37.8608 232.789C38.6748 233.874 39.0818 235.169 39.0818 236.674C39.0818 238.228 38.6625 239.585 37.8238 240.744C36.9852 241.879 35.7888 242.754 34.2348 243.371C32.6808 243.988 30.8555 244.296 28.7588 244.296ZM28.7588 241.299C30.8308 241.299 32.4465 240.88 33.6058 240.041C34.7898 239.178 35.3818 238.018 35.3818 236.563C35.3818 235.132 34.7898 234.01 33.6058 233.196C32.4465 232.357 30.8308 231.938 28.7588 231.938C26.7115 231.938 25.1082 232.357 23.9488 233.196C22.7895 234.01 22.2098 235.132 22.2098 236.563C22.2098 238.018 22.7895 239.178 23.9488 240.041C25.1082 240.88 26.7115 241.299 28.7588 241.299ZM28.7588 231.494C26.7855 231.494 25.1082 231.235 23.7268 230.717C22.3455 230.174 21.2848 229.41 20.5448 228.423C19.8048 227.412 19.4348 226.215 19.4348 224.834C19.4348 223.379 19.8172 222.133 20.5818 221.097C21.3712 220.036 22.4688 219.222 23.8748 218.655C25.2808 218.088 26.9088 217.804 28.7588 217.804C30.6335 217.804 32.2738 218.088 33.6798 218.655C35.0858 219.222 36.1835 220.036 36.9728 221.097C37.7622 222.133 38.1568 223.379 38.1568 224.834C38.1568 226.215 37.7868 227.412 37.0468 228.423C36.3068 229.41 35.2338 230.174 33.8278 230.717C32.4218 231.235 30.7322 231.494 28.7588 231.494ZM28.7588 229.126C30.5595 229.126 31.9655 228.756 32.9768 228.016C34.0128 227.276 34.5308 226.265 34.5308 224.982C34.5308 223.675 34.0005 222.651 32.9398 221.911C31.8792 221.171 30.4855 220.801 28.7588 220.801C27.0322 220.801 25.6508 221.171 24.6148 221.911C23.6035 222.651 23.0978 223.675 23.0978 224.982C23.0978 226.265 23.5912 227.276 24.5778 228.016C25.5892 228.756 26.9828 229.126 28.7588 229.126Z" fill="#292C33"/>
<path d="M2.06334 303V300.484L12.6083 290.309C13.5457 289.421 14.2363 288.644 14.6803 287.978C15.149 287.287 15.4573 286.658 15.6053 286.091C15.778 285.499 15.8643 284.932 15.8643 284.389C15.8643 283.057 15.3957 282.009 14.4583 281.244C13.521 280.479 12.152 280.097 10.3513 280.097C8.97 280.097 7.72434 280.331 6.61434 280.8C5.50434 281.244 4.54234 281.947 3.72834 282.909L1.21234 280.726C2.199 279.468 3.51867 278.506 5.17134 277.84C6.84867 277.149 8.68634 276.804 10.6843 276.804C12.485 276.804 14.0513 277.1 15.3833 277.692C16.7153 278.259 17.739 279.086 18.4543 280.171C19.1943 281.256 19.5643 282.539 19.5643 284.019C19.5643 284.858 19.4533 285.684 19.2313 286.498C19.0093 287.312 18.59 288.175 17.9733 289.088C17.3567 290.001 16.4687 291.024 15.3093 292.159L5.91134 301.224L5.02334 299.781H20.6743V303H2.06334ZM32.0784 303.296C30.2531 303.296 28.4771 303.012 26.7504 302.445C25.0484 301.878 23.6548 301.113 22.5694 300.151L24.2714 297.228C25.1348 298.042 26.2571 298.708 27.6384 299.226C29.0198 299.744 30.4874 300.003 32.0414 300.003C34.0148 300.003 35.5318 299.584 36.5924 298.745C37.6531 297.906 38.1834 296.784 38.1834 295.378C38.1834 294.416 37.9491 293.577 37.4804 292.862C37.0118 292.147 36.1978 291.604 35.0384 291.234C33.9038 290.839 32.3374 290.642 30.3394 290.642H24.4564L25.8254 277.1H40.4404V280.319H27.1944L29.1184 278.506L28.0454 289.199L26.1214 287.423H31.1164C33.7064 287.423 35.7908 287.756 37.3694 288.422C38.9481 289.088 40.0951 290.013 40.8104 291.197C41.5258 292.356 41.8834 293.701 41.8834 295.23C41.8834 296.71 41.5258 298.067 40.8104 299.3C40.0951 300.509 39.0098 301.483 37.5544 302.223C36.1238 302.938 34.2984 303.296 32.0784 303.296Z" fill="#292C33"/>
<path d="M84.4554 126.296C82.63 126.296 80.854 126.012 79.1274 125.445C77.4254 124.878 76.0317 124.113 74.9464 123.151L76.6484 120.228C77.5117 121.042 78.634 121.708 80.0154 122.226C81.3967 122.744 82.8644 123.003 84.4184 123.003C86.3917 123.003 87.9087 122.584 88.9694 121.745C90.0301 120.906 90.5604 119.784 90.5604 118.378C90.5604 117.416 90.326 116.577 89.8574 115.862C89.3887 115.147 88.5747 114.604 87.4154 114.234C86.2807 113.839 84.7144 113.642 82.7164 113.642H76.8334L78.2024 100.1H92.8174V103.319H79.5714L81.4954 101.506L80.4224 112.199L78.4984 110.423H83.4934C86.0834 110.423 88.1677 110.756 89.7464 111.422C91.3251 112.088 92.4721 113.013 93.1874 114.197C93.9027 115.356 94.2604 116.701 94.2604 118.23C94.2604 119.71 93.9027 121.067 93.1874 122.3C92.4721 123.509 91.3867 124.483 89.9314 125.223C88.5007 125.938 86.6754 126.296 84.4554 126.296Z" fill="#292C33"/>
<path d="M73.6122 185V160.58L75.2032 162.319H67.7662V159.1H77.2752V185H73.6122ZM82.5336 185V182.484L93.0786 172.309C94.0159 171.421 94.7066 170.644 95.1506 169.978C95.6192 169.287 95.9276 168.658 96.0756 168.091C96.2482 167.499 96.3346 166.932 96.3346 166.389C96.3346 165.057 95.8659 164.009 94.9286 163.244C93.9912 162.479 92.6222 162.097 90.8216 162.097C89.4402 162.097 88.1946 162.331 87.0846 162.8C85.9746 163.244 85.0126 163.947 84.1986 164.909L81.6826 162.726C82.6692 161.468 83.9889 160.506 85.6416 159.84C87.3189 159.149 89.1566 158.804 91.1546 158.804C92.9552 158.804 94.5216 159.1 95.8536 159.692C97.1856 160.259 98.2092 161.086 98.9246 162.171C99.6646 163.256 100.035 164.539 100.035 166.019C100.035 166.858 99.9236 167.684 99.7016 168.498C99.4796 169.312 99.0602 170.175 98.4436 171.088C97.8269 172.001 96.9389 173.024 95.7796 174.159L86.3816 183.224L85.4936 181.781H101.145V185H82.5336Z" fill="#292C33"/>
<path d="M72.8173 244V219.58L74.4083 221.319H66.9713V218.1H76.4803V244H72.8173ZM90.5446 217.804C92.888 217.804 94.8613 218.31 96.4646 219.321C98.0926 220.332 99.326 221.8 100.165 223.724C101.003 225.623 101.423 227.954 101.423 230.717C101.423 233.652 100.905 236.131 99.8686 238.154C98.8326 240.177 97.402 241.706 95.5766 242.742C93.7513 243.778 91.6176 244.296 89.1756 244.296C87.967 244.296 86.7953 244.173 85.6606 243.926C84.5506 243.679 83.5763 243.297 82.7376 242.779L84.1436 239.893C84.8343 240.337 85.599 240.658 86.4376 240.855C87.301 241.028 88.2013 241.114 89.1386 241.114C91.7533 241.114 93.8376 240.3 95.3916 238.672C96.9456 237.019 97.7226 234.577 97.7226 231.346C97.7226 230.828 97.698 230.211 97.6486 229.496C97.5993 228.781 97.4883 228.078 97.3156 227.387L98.5366 228.645C98.1913 229.78 97.6116 230.742 96.7976 231.531C96.0083 232.296 95.0463 232.875 93.9116 233.27C92.8016 233.64 91.5806 233.825 90.2486 233.825C88.5466 233.825 87.0296 233.504 85.6976 232.863C84.3656 232.222 83.3173 231.321 82.5526 230.162C81.788 228.978 81.4056 227.584 81.4056 225.981C81.4056 224.304 81.8003 222.861 82.5896 221.652C83.4036 220.419 84.5013 219.469 85.8826 218.803C87.2886 218.137 88.8426 217.804 90.5446 217.804ZM90.6926 220.801C89.5826 220.801 88.596 221.011 87.7326 221.43C86.8693 221.849 86.191 222.429 85.6976 223.169C85.229 223.909 84.9946 224.797 84.9946 225.833C84.9946 227.362 85.525 228.583 86.5856 229.496C87.6463 230.384 89.077 230.828 90.8776 230.828C92.0616 230.828 93.0976 230.606 93.9856 230.162C94.8983 229.718 95.6013 229.114 96.0946 228.349C96.6126 227.584 96.8716 226.733 96.8716 225.796C96.8716 224.883 96.6373 224.057 96.1686 223.317C95.7 222.577 95.0093 221.973 94.0966 221.504C93.184 221.035 92.0493 220.801 90.6926 220.801Z" fill="#292C33"/>
<path d="M64.2865 303V300.484L74.8315 290.309C75.7688 289.421 76.4595 288.644 76.9035 287.978C77.3721 287.287 77.6805 286.658 77.8285 286.091C78.0011 285.499 78.0875 284.932 78.0875 284.389C78.0875 283.057 77.6188 282.009 76.6815 281.244C75.7441 280.479 74.3751 280.097 72.5745 280.097C71.1931 280.097 69.9475 280.331 68.8375 280.8C67.7275 281.244 66.7655 281.947 65.9515 282.909L63.4355 280.726C64.4221 279.468 65.7418 278.506 67.3945 277.84C69.0718 277.149 70.9095 276.804 72.9075 276.804C74.7081 276.804 76.2745 277.1 77.6065 277.692C78.9385 278.259 79.9621 279.086 80.6775 280.171C81.4175 281.256 81.7875 282.539 81.7875 284.019C81.7875 284.858 81.6765 285.684 81.4545 286.498C81.2325 287.312 80.8131 288.175 80.1965 289.088C79.5798 290.001 78.6918 291.024 77.5325 292.159L68.1345 301.224L67.2465 299.781H82.8975V303H64.2865ZM96.7814 303.296C94.4874 303.296 92.5264 302.79 90.8984 301.779C89.2704 300.768 88.0248 299.312 87.1614 297.413C86.3228 295.489 85.9034 293.146 85.9034 290.383C85.9034 287.448 86.4214 284.969 87.4574 282.946C88.4934 280.923 89.9364 279.394 91.7864 278.358C93.6364 277.322 95.7578 276.804 98.1504 276.804C99.3838 276.804 100.555 276.927 101.665 277.174C102.8 277.421 103.774 277.803 104.588 278.321L103.182 281.207C102.516 280.738 101.752 280.418 100.888 280.245C100.05 280.072 99.1618 279.986 98.2244 279.986C95.5851 279.986 93.4884 280.812 91.9344 282.465C90.3804 284.093 89.6034 286.523 89.6034 289.754C89.6034 290.272 89.6281 290.889 89.6774 291.604C89.7268 292.319 89.8501 293.022 90.0474 293.713L88.7894 292.455C89.1594 291.32 89.7391 290.371 90.5284 289.606C91.3424 288.817 92.3044 288.237 93.4144 287.867C94.5491 287.472 95.7701 287.275 97.0774 287.275C98.8041 287.275 100.333 287.596 101.665 288.237C102.997 288.878 104.046 289.791 104.81 290.975C105.575 292.134 105.957 293.516 105.957 295.119C105.957 296.772 105.55 298.215 104.736 299.448C103.922 300.681 102.825 301.631 101.443 302.297C100.062 302.963 98.5081 303.296 96.7814 303.296ZM96.6334 300.299C97.7681 300.299 98.7548 300.089 99.5934 299.67C100.457 299.251 101.135 298.671 101.628 297.931C102.122 297.166 102.368 296.278 102.368 295.267C102.368 293.738 101.838 292.529 100.777 291.641C99.7168 290.728 98.2738 290.272 96.4484 290.272C95.2644 290.272 94.2284 290.494 93.3404 290.938C92.4524 291.382 91.7494 291.986 91.2314 292.751C90.7381 293.491 90.4914 294.342 90.4914 295.304C90.4914 296.192 90.7258 297.018 91.1944 297.783C91.6631 298.523 92.3538 299.127 93.2664 299.596C94.1791 300.065 95.3014 300.299 96.6334 300.299Z" fill="#292C33"/>
<path d="M150.676 126.296C148.382 126.296 146.421 125.79 144.793 124.779C143.165 123.768 141.92 122.312 141.056 120.413C140.218 118.489 139.798 116.146 139.798 113.383C139.798 110.448 140.316 107.969 141.352 105.946C142.388 103.923 143.831 102.394 145.681 101.358C147.531 100.322 149.653 99.804 152.045 99.804C153.279 99.804 154.45 99.9273 155.56 100.174C156.695 100.421 157.669 100.803 158.483 101.321L157.077 104.207C156.411 103.738 155.647 103.418 154.783 103.245C153.945 103.072 153.057 102.986 152.119 102.986C149.48 102.986 147.383 103.812 145.829 105.465C144.275 107.093 143.498 109.523 143.498 112.754C143.498 113.272 143.523 113.889 143.572 114.604C143.622 115.319 143.745 116.022 143.942 116.713L142.684 115.455C143.054 114.32 143.634 113.371 144.423 112.606C145.237 111.817 146.199 111.237 147.309 110.867C148.444 110.472 149.665 110.275 150.972 110.275C152.699 110.275 154.228 110.596 155.56 111.237C156.892 111.878 157.941 112.791 158.705 113.975C159.47 115.134 159.852 116.516 159.852 118.119C159.852 119.772 159.445 121.215 158.631 122.448C157.817 123.681 156.72 124.631 155.338 125.297C153.957 125.963 152.403 126.296 150.676 126.296ZM150.528 123.299C151.663 123.299 152.65 123.089 153.488 122.67C154.352 122.251 155.03 121.671 155.523 120.931C156.017 120.166 156.263 119.278 156.263 118.267C156.263 116.738 155.733 115.529 154.672 114.641C153.612 113.728 152.169 113.272 150.343 113.272C149.159 113.272 148.123 113.494 147.235 113.938C146.347 114.382 145.644 114.986 145.126 115.751C144.633 116.491 144.386 117.342 144.386 118.304C144.386 119.192 144.621 120.018 145.089 120.783C145.558 121.523 146.249 122.127 147.161 122.596C148.074 123.065 149.196 123.299 150.528 123.299Z" fill="#292C33"/>
<path d="M138.148 185V160.58L139.739 162.319H132.302V159.1H141.811V185H138.148ZM155.395 185.296C153.569 185.296 151.793 185.012 150.067 184.445C148.365 183.878 146.971 183.113 145.886 182.151L147.588 179.228C148.451 180.042 149.573 180.708 150.955 181.226C152.336 181.744 153.816 182.003 155.395 182.003C157.319 182.003 158.811 181.596 159.872 180.782C160.957 179.943 161.5 178.821 161.5 177.415C161.5 176.058 160.982 174.973 159.946 174.159C158.934 173.32 157.319 172.901 155.099 172.901H153.027V170.311L160.723 160.839L161.241 162.319H147.07V159.1H164.164V161.616L156.505 171.051L154.581 169.904H155.802C158.934 169.904 161.278 170.607 162.832 172.013C164.41 173.419 165.2 175.207 165.2 177.378C165.2 178.833 164.842 180.165 164.127 181.374C163.411 182.583 162.326 183.545 160.871 184.26C159.44 184.951 157.615 185.296 155.395 185.296Z" fill="#292C33"/>
<path d="M127.865 244V241.484L138.41 231.309C139.347 230.421 140.038 229.644 140.482 228.978C140.951 228.287 141.259 227.658 141.407 227.091C141.58 226.499 141.666 225.932 141.666 225.389C141.666 224.057 141.197 223.009 140.26 222.244C139.323 221.479 137.954 221.097 136.153 221.097C134.772 221.097 133.526 221.331 132.416 221.8C131.306 222.244 130.344 222.947 129.53 223.909L127.014 221.726C128.001 220.468 129.32 219.506 130.973 218.84C132.65 218.149 134.488 217.804 136.486 217.804C138.287 217.804 139.853 218.1 141.185 218.692C142.517 219.259 143.541 220.086 144.256 221.171C144.996 222.256 145.366 223.539 145.366 225.019C145.366 225.858 145.255 226.684 145.033 227.498C144.811 228.312 144.392 229.175 143.775 230.088C143.158 231.001 142.27 232.024 141.111 233.159L131.713 242.224L130.825 240.781H146.476V244H127.865ZM160.064 244.296C158.041 244.296 156.228 243.778 154.625 242.742C153.046 241.706 151.788 240.201 150.851 238.228C149.938 236.255 149.482 233.862 149.482 231.05C149.482 228.238 149.938 225.845 150.851 223.872C151.788 221.899 153.046 220.394 154.625 219.358C156.228 218.322 158.041 217.804 160.064 217.804C162.062 217.804 163.863 218.322 165.466 219.358C167.069 220.394 168.327 221.899 169.24 223.872C170.153 225.845 170.609 228.238 170.609 231.05C170.609 233.862 170.153 236.255 169.24 238.228C168.327 240.201 167.069 241.706 165.466 242.742C163.863 243.778 162.062 244.296 160.064 244.296ZM160.064 241.003C161.421 241.003 162.605 240.633 163.616 239.893C164.652 239.153 165.454 238.043 166.021 236.563C166.613 235.083 166.909 233.245 166.909 231.05C166.909 228.855 166.613 227.017 166.021 225.537C165.454 224.057 164.652 222.947 163.616 222.207C162.605 221.467 161.421 221.097 160.064 221.097C158.707 221.097 157.511 221.467 156.475 222.207C155.439 222.947 154.625 224.057 154.033 225.537C153.466 227.017 153.182 228.855 153.182 231.05C153.182 233.245 153.466 235.083 154.033 236.563C154.625 238.043 155.439 239.153 156.475 239.893C157.511 240.633 158.707 241.003 160.064 241.003Z" fill="#292C33"/>
<path d="M129.148 303V300.484L139.693 290.309C140.63 289.421 141.321 288.644 141.765 287.978C142.233 287.287 142.542 286.658 142.69 286.091C142.862 285.499 142.949 284.932 142.949 284.389C142.949 283.057 142.48 282.009 141.543 281.244C140.605 280.479 139.236 280.097 137.436 280.097C136.054 280.097 134.809 280.331 133.699 280.8C132.589 281.244 131.627 281.947 130.813 282.909L128.297 280.726C129.283 279.468 130.603 278.506 132.256 277.84C133.933 277.149 135.771 276.804 137.769 276.804C139.569 276.804 141.136 277.1 142.468 277.692C143.8 278.259 144.823 279.086 145.539 280.171C146.279 281.256 146.649 282.539 146.649 284.019C146.649 284.858 146.538 285.684 146.316 286.498C146.094 287.312 145.674 288.175 145.058 289.088C144.441 290.001 143.553 291.024 142.394 292.159L132.996 301.224L132.108 299.781H147.759V303H129.148ZM155.242 303L166.231 278.654L167.193 280.319H151.801L153.651 278.506V284.944H150.099V277.1H169.635V279.616L159.164 303H155.242Z" fill="white"/>
<path d="M201.36 185V160.58L202.951 162.319H195.514V159.1H205.023V185H201.36ZM210.318 178.636V176.046L223.564 159.1H227.56L214.425 176.046L212.538 175.454H233.221V178.636H210.318ZM224.711 185V178.636L224.822 175.454V169.83H228.3V185H224.711Z" fill="#292C33"/>
<path d="M198.339 244V241.484L208.884 231.309C209.822 230.421 210.512 229.644 210.956 228.978C211.425 228.287 211.733 227.658 211.881 227.091C212.054 226.499 212.14 225.932 212.14 225.389C212.14 224.057 211.672 223.009 210.734 222.244C209.797 221.479 208.428 221.097 206.627 221.097C205.246 221.097 204 221.331 202.89 221.8C201.78 222.244 200.818 222.947 200.004 223.909L197.488 221.726C198.475 220.468 199.795 219.506 201.447 218.84C203.125 218.149 204.962 217.804 206.96 217.804C208.761 217.804 210.327 218.1 211.659 218.692C212.991 219.259 214.015 220.086 214.73 221.171C215.47 222.256 215.84 223.539 215.84 225.019C215.84 225.858 215.729 226.684 215.507 227.498C215.285 228.312 214.866 229.175 214.249 230.088C213.633 231.001 212.745 232.024 211.585 233.159L202.187 242.224L201.299 240.781H216.95V244H198.339ZM224.358 244V219.58L225.949 221.319H218.512V218.1H228.021V244H224.358Z" fill="#292C33"/>
<path d="M193.281 303V300.484L203.826 290.309C204.763 289.421 205.454 288.644 205.898 287.978C206.366 287.287 206.675 286.658 206.823 286.091C206.995 285.499 207.082 284.932 207.082 284.389C207.082 283.057 206.613 282.009 205.676 281.244C204.738 280.479 203.369 280.097 201.569 280.097C200.187 280.097 198.942 280.331 197.832 280.8C196.722 281.244 195.76 281.947 194.946 282.909L192.43 280.726C193.416 279.468 194.736 278.506 196.389 277.84C198.066 277.149 199.904 276.804 201.902 276.804C203.702 276.804 205.269 277.1 206.601 277.692C207.933 278.259 208.956 279.086 209.672 280.171C210.412 281.256 210.782 282.539 210.782 284.019C210.782 284.858 210.671 285.684 210.449 286.498C210.227 287.312 209.807 288.175 209.191 289.088C208.574 290.001 207.686 291.024 206.527 292.159L197.129 301.224L196.241 299.781H211.892V303H193.281ZM225.035 303.296C222.938 303.296 221.125 302.988 219.596 302.371C218.066 301.754 216.882 300.879 216.044 299.744C215.205 298.585 214.786 297.228 214.786 295.674C214.786 294.145 215.18 292.85 215.97 291.789C216.784 290.704 217.955 289.89 219.485 289.347C221.014 288.78 222.864 288.496 225.035 288.496C227.205 288.496 229.055 288.78 230.585 289.347C232.139 289.89 233.323 290.704 234.137 291.789C234.951 292.874 235.358 294.169 235.358 295.674C235.358 297.228 234.938 298.585 234.1 299.744C233.261 300.879 232.065 301.754 230.511 302.371C228.957 302.988 227.131 303.296 225.035 303.296ZM225.035 300.299C227.107 300.299 228.722 299.88 229.882 299.041C231.066 298.178 231.658 297.018 231.658 295.563C231.658 294.132 231.066 293.01 229.882 292.196C228.722 291.357 227.107 290.938 225.035 290.938C222.987 290.938 221.384 291.357 220.225 292.196C219.065 293.01 218.486 294.132 218.486 295.563C218.486 297.018 219.065 298.178 220.225 299.041C221.384 299.88 222.987 300.299 225.035 300.299ZM225.035 290.494C223.061 290.494 221.384 290.235 220.003 289.717C218.621 289.174 217.561 288.41 216.821 287.423C216.081 286.412 215.711 285.215 215.711 283.834C215.711 282.379 216.093 281.133 216.858 280.097C217.647 279.036 218.745 278.222 220.151 277.655C221.557 277.088 223.185 276.804 225.035 276.804C226.909 276.804 228.55 277.088 229.956 277.655C231.362 278.222 232.459 279.036 233.249 280.097C234.038 281.133 234.433 282.379 234.433 283.834C234.433 285.215 234.063 286.412 233.323 287.423C232.583 288.41 231.51 289.174 230.104 289.717C228.698 290.235 227.008 290.494 225.035 290.494ZM225.035 288.126C226.835 288.126 228.241 287.756 229.253 287.016C230.289 286.276 230.807 285.265 230.807 283.982C230.807 282.675 230.276 281.651 229.216 280.911C228.155 280.171 226.761 279.801 225.035 279.801C223.308 279.801 221.927 280.171 220.891 280.911C219.879 281.651 219.374 282.675 219.374 283.982C219.374 285.265 219.867 286.276 220.854 287.016C221.865 287.756 223.259 288.126 225.035 288.126Z" fill="#292C33"/>
<path d="M209.637 126L220.626 101.654L221.588 103.319H206.196L208.046 101.506V107.944H204.494V100.1H224.03V102.616L213.559 126H209.637Z" fill="#292C33"/>
<path d="M396.679 185V160.58L398.27 162.319H390.833V159.1H400.342V185H396.679ZM410.484 185L421.473 160.654L422.435 162.319H407.043L408.893 160.506V166.944H405.341V159.1H424.877V161.616L414.406 185H410.484Z" fill="#292C33"/>
</g>
<defs>
<clipPath id="clip0_528_2792">
<rect width="431" height="313" fill="white"/>
</clipPath>
</defs>
</svg>
