<svg width="432" height="366" viewBox="0 0 432 366" fill="none" xmlns="http://www.w3.org/2000/svg">
<g clip-path="url(#clip0_3949_8311)">
<path d="M438 152H381V199H438V152Z" fill="#41A05C"/>
<mask id="mask0_3949_8311" style="mask-type:luminance" maskUnits="userSpaceOnUse" x="0" y="0" width="432" height="366">
<path d="M431.5 0H0.5V366H431.5V0Z" fill="white"/>
</mask>
<g mask="url(#mask0_3949_8311)">
<mask id="mask1_3949_8311" style="mask-type:luminance" maskUnits="userSpaceOnUse" x="0" y="0" width="432" height="366">
<path d="M431.5 0H0.5V366H431.5V0Z" fill="white"/>
</mask>
<g mask="url(#mask1_3949_8311)">
<path d="M119 152H62V199H119V152Z" fill="#E4793D"/>
<mask id="mask2_3949_8311" style="mask-type:luminance" maskUnits="userSpaceOnUse" x="0" y="0" width="432" height="366">
<path d="M431.5 0H0.5V366H431.5V0Z" fill="white"/>
</mask>
<g mask="url(#mask2_3949_8311)">
<path d="M23.4554 20.7264H20.8466V3.36139H11.3896V20.7264H8.69922V1.32324H23.3739V20.7264H23.4554Z" fill="#B3B3B3"/>
<path d="M39.2715 20.726H36.6626V14.6116H30.2221V20.726H27.6133V6.2959H30.2221V12.5735H36.6626V6.2959H39.2715V20.726Z" fill="#B3B3B3"/>
<path d="M73.5 20.7264V1.32324H79.859C81.8972 1.32324 83.4462 1.73087 84.5875 2.62766C85.7289 3.52444 86.2996 4.82886 86.2996 6.5409C86.2996 7.35616 86.055 8.08989 85.5658 8.82363C85.0767 9.55736 84.3429 9.96499 83.5277 10.2911C84.8321 10.4541 85.8104 11.0248 86.5441 11.9216C87.2779 12.8184 87.6855 13.9598 87.6855 15.1826C87.6855 16.9762 87.1148 18.2806 85.9735 19.2589C84.8321 20.2373 83.2831 20.6449 81.245 20.6449H73.5V20.7264ZM76.1904 9.55736H80.4297C81.408 9.55736 82.2233 9.31278 82.794 8.7421C83.4462 8.17142 83.6907 7.43769 83.6907 6.45937C83.6907 5.39954 83.3646 4.6658 82.7124 4.09512C82.0602 3.60597 81.0819 3.27986 79.859 3.27986H76.1904V9.55736ZM76.1904 11.5955V18.6067H81.245C82.4678 18.6067 83.3646 18.2806 84.0168 17.7099C84.6691 17.1393 84.9952 16.2425 84.9952 15.1826C84.9952 14.1228 84.6691 13.226 84.0168 12.5738C83.3646 11.9216 82.4678 11.5955 81.245 11.514H81.0819H76.1904V11.5955Z" fill="#B3B3B3"/>
<path d="M101.624 8.33405H96.8959V20.726H94.2871V8.33405H89.5586V6.2959H101.624V8.33405Z" fill="#B3B3B3"/>
<path d="M151.012 14.5304C151.093 16.4055 150.441 17.9545 149.137 19.1773C147.832 20.4002 146.12 21.0524 143.919 21.0524C141.718 21.0524 139.924 20.2372 138.538 18.6882C137.152 17.1392 136.5 15.1826 136.5 12.7368V9.31271C136.5 6.94846 137.152 4.91031 138.538 3.36132C139.924 1.81233 141.718 0.99707 143.919 0.99707C146.12 0.99707 147.832 1.56775 149.137 2.70911C150.441 3.85048 151.093 5.39947 151.012 7.35609V7.43762H148.484C148.484 6.05168 148.077 4.99184 147.261 4.17658C146.446 3.36132 145.305 2.95369 143.837 2.95369C142.37 2.95369 141.229 3.52437 140.332 4.74726C139.435 5.88862 139.027 7.35609 139.027 9.14966V12.6553C139.027 14.4488 139.435 15.9163 140.332 17.0577C141.229 18.199 142.37 18.8512 143.837 18.8512C145.305 18.8512 146.446 18.4436 147.261 17.7099C148.077 16.8946 148.484 15.8348 148.484 14.4488H151.012V14.5304Z" fill="#B3B3B3"/>
<path d="M166.419 14.0413C166.419 16.161 165.93 17.7915 164.952 19.0959C163.973 20.4003 162.587 20.971 160.794 20.971C159.897 20.971 159.163 20.8079 158.429 20.5634C157.777 20.2373 157.207 19.8296 156.717 19.259V26.2702H154.109V6.29634H156.147L156.554 8.17143C157.044 7.4377 157.614 6.94854 158.348 6.62244C159.082 6.29634 159.897 6.05176 160.794 6.05176C162.587 6.05176 163.973 6.78549 164.952 8.17143C165.93 9.55737 166.419 11.4325 166.419 13.7967V14.0413ZM163.81 13.7967C163.81 12.1662 163.484 10.7803 162.832 9.80195C162.18 8.82364 161.201 8.25296 159.978 8.25296C159.245 8.25296 158.593 8.41601 158.022 8.74211C157.451 9.06822 157.044 9.55737 156.717 10.1281V17.1393C157.044 17.71 157.451 18.1991 158.022 18.5252C158.593 18.8513 159.245 19.0144 159.978 19.0144C161.201 19.0144 162.18 18.5252 162.832 17.6284C163.484 16.7317 163.81 15.5088 163.81 14.1228V13.7967Z" fill="#B3B3B3"/>
<path d="M215.93 1.32324V20.7264H213.321V12.6553C212.506 12.8999 211.691 13.063 210.875 13.226C210.06 13.3076 209.163 13.3891 208.022 13.3891C205.902 13.3891 204.272 12.8999 203.131 12.0031C201.989 11.1064 201.5 9.55736 201.5 7.43769V1.32324H204.109V7.43769C204.109 8.90515 204.435 9.88346 205.006 10.4541C205.658 11.0248 206.636 11.2694 207.941 11.2694C208.837 11.2694 209.734 11.1879 210.631 11.1064C211.446 10.9433 212.343 10.7802 213.24 10.5357V1.32324H215.93Z" fill="#B3B3B3"/>
<path d="M231.174 8.33405H226.446V20.726H223.837V8.33405H219.109V6.2959H231.174V8.33405Z" fill="#B3B3B3"/>
<path d="M280.175 20.7264H277.566V3.36139H268.109V20.7264H265.5V1.32324H280.175V20.7264Z" fill="#B3B3B3"/>
<path d="M295.418 8.33453H290.69V20.7265H288.081V8.33453H283.352V6.29639H295.418V8.33453Z" fill="#B3B3B3"/>
<path d="M345.012 14.5299C345.093 16.405 344.441 17.954 343.137 19.1769C341.832 20.3998 340.12 21.052 337.919 21.052C335.718 21.052 333.924 20.2367 332.538 18.6877C331.152 17.1387 330.5 15.1821 330.5 12.7363V9.31223C330.5 6.94798 331.152 4.90983 332.538 3.36084C333.924 1.81185 335.718 0.996582 337.919 0.996582C340.12 0.996582 341.832 1.56727 343.137 2.70863C344.441 3.84999 345.093 5.39899 345.012 7.35561V7.43713H342.484C342.484 6.05119 342.077 4.99136 341.261 4.1761C340.446 3.36084 339.305 2.95321 337.837 2.95321C336.37 2.95321 335.229 3.52389 334.332 4.74678C333.435 5.88814 333.027 7.35561 333.027 9.14918V12.6548C333.027 14.4484 333.435 15.9158 334.332 17.0572C335.229 18.1986 336.37 18.8508 337.837 18.8508C339.305 18.8508 340.446 18.4431 341.261 17.7094C342.077 16.8941 342.484 15.8343 342.484 14.4484H345.012V14.5299Z" fill="#B3B3B3"/>
<path d="M354.385 6.05149C356.26 6.05149 357.646 6.7037 358.706 8.08964C359.766 9.47558 360.336 11.1876 360.336 13.3888V13.7149C360.336 15.8346 359.766 17.6282 358.624 19.0141C357.483 20.4 355.934 21.0523 353.896 21.0523C351.858 21.0523 350.309 20.4 349.167 19.0141C348.026 17.6282 347.455 15.9161 347.455 13.7149V13.3888C347.455 13.3073 347.455 13.2258 347.455 13.2258C347.455 13.1442 347.455 13.1442 347.455 13.0627V9.96473C347.455 7.19285 348.026 5.23623 349.086 3.93182C350.146 2.6274 351.776 1.97519 353.896 1.81214C355.119 1.73062 356.097 1.56756 356.749 1.32299C357.401 1.07841 357.728 0.670779 357.728 0.100098H359.766V0.181624C359.847 1.56756 359.358 2.54587 358.38 3.11656C357.401 3.68724 356.015 4.01334 354.14 4.01334C352.754 4.01334 351.695 4.42097 350.879 5.1547C350.064 5.88844 349.656 6.94827 349.656 8.33421V8.41574C350.146 7.76353 350.879 7.19285 351.695 6.78522C352.51 6.37759 353.488 6.05149 354.385 6.05149ZM353.896 8.08964C352.673 8.08964 351.695 8.57879 351.042 9.5571C350.39 10.5354 350.064 11.8398 350.064 13.3073V13.6334C350.064 15.1824 350.39 16.4053 351.042 17.3836C351.695 18.3619 352.673 18.8511 353.896 18.8511C355.119 18.8511 356.097 18.3619 356.749 17.3836C357.401 16.4053 357.728 15.1009 357.728 13.6334V13.3073C357.728 11.7583 357.401 10.5354 356.749 9.5571C356.097 8.57879 355.119 8.08964 353.896 8.08964Z" fill="#B3B3B3"/>
<path d="M394.498 20.7264V1.32324H400.857C402.895 1.32324 404.444 1.73087 405.586 2.62766C406.727 3.52444 407.298 4.82886 407.298 6.5409C407.298 7.35616 407.053 8.08989 406.564 8.82363C406.075 9.55736 405.341 9.96499 404.526 10.3726C405.83 10.5357 406.808 11.1064 407.542 12.0031C408.276 12.8999 408.684 14.0413 408.684 15.2642C408.684 17.0577 408.113 18.3622 406.971 19.3405C405.83 20.3188 404.281 20.7264 402.243 20.7264H394.498ZM397.188 9.55736H401.428C402.406 9.55736 403.221 9.31278 403.792 8.7421C404.444 8.17142 404.689 7.43769 404.689 6.45937C404.689 5.39954 404.363 4.6658 403.71 4.09512C403.058 3.60597 402.08 3.27986 400.857 3.27986H397.188V9.55736ZM397.188 11.5955V18.6067H402.243C403.466 18.6067 404.363 18.2806 405.015 17.7099C405.667 17.1393 405.993 16.2425 405.993 15.1826C405.993 14.1228 405.667 13.226 405.015 12.5738C404.363 11.9216 403.466 11.5955 402.243 11.514H402.08H397.188V11.5955Z" fill="#B3B3B3"/>
<path d="M417.243 18.9329C418.059 18.9329 418.792 18.6883 419.363 18.1176C419.934 17.5469 420.26 16.8947 420.26 16.161H422.624V16.2425C422.624 17.4654 422.135 18.6068 420.994 19.5851C419.852 20.5634 418.629 21.0525 417.162 21.0525C415.124 21.0525 413.575 20.4003 412.433 19.0144C411.292 17.6284 410.803 15.9164 410.803 13.8783V13.3076C410.803 11.2694 411.374 9.55738 412.433 8.17144C413.575 6.7855 415.124 6.1333 417.08 6.1333C418.711 6.1333 420.015 6.62245 420.994 7.60076C421.972 8.57907 422.543 9.80196 422.461 11.2694V11.351H420.097C420.097 10.4542 419.771 9.72044 419.2 9.06823C418.629 8.41602 417.896 8.17144 416.999 8.17144C415.694 8.17144 414.798 8.6606 414.145 9.63891C413.575 10.6172 413.249 11.8401 413.249 13.3076V13.8783C413.249 15.3457 413.575 16.5686 414.145 17.5469C415.042 18.4437 415.939 18.9329 417.243 18.9329Z" fill="#B3B3B3"/>
<path d="M406.948 132.296C404.851 132.296 403.038 131.988 401.509 131.371C399.98 130.754 398.796 129.879 397.957 128.744C397.118 127.585 396.699 126.228 396.699 124.674C396.699 123.145 397.094 121.85 397.883 120.789C398.697 119.704 399.869 118.89 401.398 118.347C402.927 117.78 404.777 117.496 406.948 117.496C409.119 117.496 410.969 117.78 412.498 118.347C414.052 118.89 415.236 119.704 416.05 120.789C416.864 121.874 417.271 123.169 417.271 124.674C417.271 126.228 416.852 127.585 416.013 128.744C415.174 129.879 413.978 130.754 412.424 131.371C410.87 131.988 409.045 132.296 406.948 132.296ZM406.948 129.299C409.02 129.299 410.636 128.88 411.795 128.041C412.979 127.178 413.571 126.018 413.571 124.563C413.571 123.132 412.979 122.01 411.795 121.196C410.636 120.357 409.02 119.938 406.948 119.938C404.901 119.938 403.297 120.357 402.138 121.196C400.979 122.01 400.399 123.132 400.399 124.563C400.399 126.018 400.979 127.178 402.138 128.041C403.297 128.88 404.901 129.299 406.948 129.299ZM406.948 119.494C404.975 119.494 403.297 119.235 401.916 118.717C400.535 118.174 399.474 117.41 398.734 116.423C397.994 115.412 397.624 114.215 397.624 112.834C397.624 111.379 398.006 110.133 398.771 109.097C399.56 108.036 400.658 107.222 402.064 106.655C403.47 106.088 405.098 105.804 406.948 105.804C408.823 105.804 410.463 106.088 411.869 106.655C413.275 107.222 414.373 108.036 415.162 109.097C415.951 110.133 416.346 111.379 416.346 112.834C416.346 114.215 415.976 115.412 415.236 116.423C414.496 117.41 413.423 118.174 412.017 118.717C410.611 119.235 408.921 119.494 406.948 119.494ZM406.948 117.126C408.749 117.126 410.155 116.756 411.166 116.016C412.202 115.276 412.72 114.265 412.72 112.982C412.72 111.675 412.19 110.651 411.129 109.911C410.068 109.171 408.675 108.801 406.948 108.801C405.221 108.801 403.84 109.171 402.804 109.911C401.793 110.651 401.287 111.675 401.287 112.982C401.287 114.265 401.78 115.276 402.767 116.016C403.778 116.756 405.172 117.126 406.948 117.126Z" fill="#292C33"/>
<path d="M395.649 189V164.58L397.24 166.319H389.803V163.1H399.312V189H395.649ZM413.339 189.296C411.514 189.296 409.738 189.012 408.011 188.445C406.309 187.878 404.915 187.113 403.83 186.151L405.532 183.228C406.395 184.042 407.518 184.708 408.899 185.226C410.28 185.744 411.748 186.003 413.302 186.003C415.275 186.003 416.792 185.584 417.853 184.745C418.914 183.906 419.444 182.784 419.444 181.378C419.444 180.416 419.21 179.577 418.741 178.862C418.272 178.147 417.458 177.604 416.299 177.234C415.164 176.839 413.598 176.642 411.6 176.642H405.717L407.086 163.1H421.701V166.319H408.455L410.379 164.506L409.306 175.199L407.382 173.423H412.377C414.967 173.423 417.051 173.756 418.63 174.422C420.209 175.088 421.356 176.013 422.071 177.197C422.786 178.356 423.144 179.701 423.144 181.23C423.144 182.71 422.786 184.067 422.071 185.3C421.356 186.509 420.27 187.483 418.815 188.223C417.384 188.938 415.559 189.296 413.339 189.296Z" fill="white"/>
<path d="M387.101 246V243.484L397.646 233.309C398.583 232.421 399.274 231.644 399.718 230.978C400.186 230.287 400.495 229.658 400.643 229.091C400.815 228.499 400.902 227.932 400.902 227.389C400.902 226.057 400.433 225.009 399.496 224.244C398.558 223.479 397.189 223.097 395.389 223.097C394.007 223.097 392.762 223.331 391.652 223.8C390.542 224.244 389.58 224.947 388.766 225.909L386.25 223.726C387.236 222.468 388.556 221.506 390.209 220.84C391.886 220.149 393.724 219.804 395.722 219.804C397.522 219.804 399.089 220.1 400.421 220.692C401.753 221.259 402.776 222.086 403.492 223.171C404.232 224.256 404.602 225.539 404.602 227.019C404.602 227.858 404.491 228.684 404.269 229.498C404.047 230.312 403.627 231.175 403.011 232.088C402.394 233.001 401.506 234.024 400.347 235.159L390.949 244.224L390.061 242.781H405.712V246H387.101ZM408.347 246V243.484L418.892 233.309C419.829 232.421 420.52 231.644 420.964 230.978C421.432 230.287 421.741 229.658 421.889 229.091C422.061 228.499 422.148 227.932 422.148 227.389C422.148 226.057 421.679 225.009 420.742 224.244C419.804 223.479 418.435 223.097 416.635 223.097C415.253 223.097 414.008 223.331 412.898 223.8C411.788 224.244 410.826 224.947 410.012 225.909L407.496 223.726C408.482 222.468 409.802 221.506 411.455 220.84C413.132 220.149 414.97 219.804 416.968 219.804C418.768 219.804 420.335 220.1 421.667 220.692C422.999 221.259 424.022 222.086 424.738 223.171C425.478 224.256 425.848 225.539 425.848 227.019C425.848 227.858 425.737 228.684 425.515 229.498C425.293 230.312 424.873 231.175 424.257 232.088C423.64 233.001 422.752 234.024 421.593 235.159L412.195 244.224L411.307 242.781H426.958V246H408.347Z" fill="#292C33"/>
<path d="M386.306 303V300.484L396.851 290.309C397.788 289.421 398.479 288.644 398.923 287.978C399.392 287.287 399.7 286.658 399.848 286.091C400.021 285.499 400.107 284.932 400.107 284.389C400.107 283.057 399.638 282.009 398.701 281.244C397.764 280.479 396.395 280.097 394.594 280.097C393.213 280.097 391.967 280.331 390.857 280.8C389.747 281.244 388.785 281.947 387.971 282.909L385.455 280.726C386.442 279.468 387.761 278.506 389.414 277.84C391.091 277.149 392.929 276.804 394.927 276.804C396.728 276.804 398.294 277.1 399.626 277.692C400.958 278.259 401.982 279.086 402.697 280.171C403.437 281.256 403.807 282.539 403.807 284.019C403.807 284.858 403.696 285.684 403.474 286.498C403.252 287.312 402.833 288.175 402.216 289.088C401.599 290.001 400.711 291.024 399.552 292.159L390.154 301.224L389.266 299.781H404.917V303H386.306ZM416.358 276.804C418.701 276.804 420.675 277.31 422.278 278.321C423.906 279.332 425.139 280.8 425.978 282.724C426.817 284.623 427.236 286.954 427.236 289.717C427.236 292.652 426.718 295.131 425.682 297.154C424.646 299.177 423.215 300.706 421.39 301.742C419.565 302.778 417.431 303.296 414.989 303.296C413.78 303.296 412.609 303.173 411.474 302.926C410.364 302.679 409.39 302.297 408.551 301.779L409.957 298.893C410.648 299.337 411.412 299.658 412.251 299.855C413.114 300.028 414.015 300.114 414.952 300.114C417.567 300.114 419.651 299.3 421.205 297.672C422.759 296.019 423.536 293.577 423.536 290.346C423.536 289.828 423.511 289.211 423.462 288.496C423.413 287.781 423.302 287.078 423.129 286.387L424.35 287.645C424.005 288.78 423.425 289.742 422.611 290.531C421.822 291.296 420.86 291.875 419.725 292.27C418.615 292.64 417.394 292.825 416.062 292.825C414.36 292.825 412.843 292.504 411.511 291.863C410.179 291.222 409.131 290.321 408.366 289.162C407.601 287.978 407.219 286.584 407.219 284.981C407.219 283.304 407.614 281.861 408.403 280.652C409.217 279.419 410.315 278.469 411.696 277.803C413.102 277.137 414.656 276.804 416.358 276.804ZM416.506 279.801C415.396 279.801 414.409 280.011 413.546 280.43C412.683 280.849 412.004 281.429 411.511 282.169C411.042 282.909 410.808 283.797 410.808 284.833C410.808 286.362 411.338 287.583 412.399 288.496C413.46 289.384 414.89 289.828 416.691 289.828C417.875 289.828 418.911 289.606 419.799 289.162C420.712 288.718 421.415 288.114 421.908 287.349C422.426 286.584 422.685 285.733 422.685 284.796C422.685 283.883 422.451 283.057 421.982 282.317C421.513 281.577 420.823 280.973 419.91 280.504C418.997 280.035 417.863 279.801 416.506 279.801Z" fill="#292C33"/>
<path d="M19.4877 132V129.484L30.0327 119.309C30.97 118.421 31.6607 117.644 32.1047 116.978C32.5733 116.287 32.8817 115.658 33.0297 115.091C33.2023 114.499 33.2887 113.932 33.2887 113.389C33.2887 112.057 32.82 111.009 31.8827 110.244C30.9453 109.479 29.5763 109.097 27.7757 109.097C26.3943 109.097 25.1487 109.331 24.0387 109.8C22.9287 110.244 21.9667 110.947 21.1527 111.909L18.6367 109.726C19.6233 108.468 20.943 107.506 22.5957 106.84C24.273 106.149 26.1107 105.804 28.1087 105.804C29.9093 105.804 31.4757 106.1 32.8077 106.692C34.1397 107.259 35.1633 108.086 35.8787 109.171C36.6187 110.256 36.9887 111.539 36.9887 113.019C36.9887 113.858 36.8777 114.684 36.6557 115.498C36.4337 116.312 36.0143 117.175 35.3977 118.088C34.781 119.001 33.893 120.024 32.7337 121.159L23.3357 130.224L22.4477 128.781H38.0987V132H19.4877Z" fill="#292C33"/>
<path d="M27.4984 162.804C29.8417 162.804 31.815 163.31 33.4184 164.321C35.0464 165.332 36.2797 166.8 37.1184 168.724C37.957 170.623 38.3764 172.954 38.3764 175.717C38.3764 178.652 37.8584 181.131 36.8224 183.154C35.7864 185.177 34.3557 186.706 32.5304 187.742C30.705 188.778 28.5714 189.296 26.1294 189.296C24.9207 189.296 23.749 189.173 22.6144 188.926C21.5044 188.679 20.53 188.297 19.6914 187.779L21.0974 184.893C21.788 185.337 22.5527 185.658 23.3914 185.855C24.2547 186.028 25.155 186.114 26.0924 186.114C28.707 186.114 30.7914 185.3 32.3454 183.672C33.8994 182.019 34.6764 179.577 34.6764 176.346C34.6764 175.828 34.6517 175.211 34.6024 174.496C34.553 173.781 34.442 173.078 34.2694 172.387L35.4904 173.645C35.145 174.78 34.5654 175.742 33.7514 176.531C32.962 177.296 32 177.875 30.8654 178.27C29.7554 178.64 28.5344 178.825 27.2024 178.825C25.5004 178.825 23.9834 178.504 22.6514 177.863C21.3194 177.222 20.271 176.321 19.5064 175.162C18.7417 173.978 18.3594 172.584 18.3594 170.981C18.3594 169.304 18.754 167.861 19.5434 166.652C20.3574 165.419 21.455 164.469 22.8364 163.803C24.2424 163.137 25.7964 162.804 27.4984 162.804ZM27.6464 165.801C26.5364 165.801 25.5497 166.011 24.6864 166.43C23.823 166.849 23.1447 167.429 22.6514 168.169C22.1827 168.909 21.9484 169.797 21.9484 170.833C21.9484 172.362 22.4787 173.583 23.5394 174.496C24.6 175.384 26.0307 175.828 27.8314 175.828C29.0154 175.828 30.0514 175.606 30.9394 175.162C31.852 174.718 32.555 174.114 33.0484 173.349C33.5664 172.584 33.8254 171.733 33.8254 170.796C33.8254 169.883 33.591 169.057 33.1224 168.317C32.6537 167.577 31.963 166.973 31.0504 166.504C30.1377 166.035 29.003 165.801 27.6464 165.801Z" fill="#292C33"/>
<path d="M16.6194 246V221.58L18.2104 223.319H10.7734V220.1H20.2824V246H16.6194ZM36.8258 246.296C34.5318 246.296 32.5708 245.79 30.9428 244.779C29.3148 243.768 28.0691 242.312 27.2058 240.413C26.3671 238.489 25.9478 236.146 25.9478 233.383C25.9478 230.448 26.4658 227.969 27.5018 225.946C28.5378 223.923 29.9808 222.394 31.8308 221.358C33.6808 220.322 35.8021 219.804 38.1948 219.804C39.4281 219.804 40.5998 219.927 41.7098 220.174C42.8444 220.421 43.8188 220.803 44.6328 221.321L43.2268 224.207C42.5608 223.738 41.7961 223.418 40.9328 223.245C40.0941 223.072 39.2061 222.986 38.2688 222.986C35.6294 222.986 33.5328 223.812 31.9788 225.465C30.4248 227.093 29.6478 229.523 29.6478 232.754C29.6478 233.272 29.6724 233.889 29.7218 234.604C29.7711 235.319 29.8944 236.022 30.0918 236.713L28.8338 235.455C29.2038 234.32 29.7834 233.371 30.5728 232.606C31.3868 231.817 32.3488 231.237 33.4588 230.867C34.5934 230.472 35.8144 230.275 37.1218 230.275C38.8484 230.275 40.3778 230.596 41.7098 231.237C43.0418 231.878 44.0901 232.791 44.8548 233.975C45.6194 235.134 46.0018 236.516 46.0018 238.119C46.0018 239.772 45.5948 241.215 44.7808 242.448C43.9668 243.681 42.8691 244.631 41.4878 245.297C40.1064 245.963 38.5524 246.296 36.8258 246.296ZM36.6778 243.299C37.8124 243.299 38.7991 243.089 39.6378 242.67C40.5011 242.251 41.1794 241.671 41.6728 240.931C42.1661 240.166 42.4128 239.278 42.4128 238.267C42.4128 236.738 41.8824 235.529 40.8218 234.641C39.7611 233.728 38.3181 233.272 36.4928 233.272C35.3088 233.272 34.2728 233.494 33.3848 233.938C32.4968 234.382 31.7938 234.986 31.2758 235.751C30.7824 236.491 30.5358 237.342 30.5358 238.304C30.5358 239.192 30.7701 240.018 31.2388 240.783C31.7074 241.523 32.3981 242.127 33.3108 242.596C34.2234 243.065 35.3458 243.299 36.6778 243.299Z" fill="#292C33"/>
<path d="M8.90178 303V300.484L19.4468 290.309C20.3841 289.421 21.0748 288.644 21.5188 287.978C21.9874 287.287 22.2958 286.658 22.4438 286.091C22.6164 285.499 22.7028 284.932 22.7028 284.389C22.7028 283.057 22.2341 282.009 21.2968 281.244C20.3594 280.479 18.9904 280.097 17.1898 280.097C15.8084 280.097 14.5628 280.331 13.4528 280.8C12.3428 281.244 11.3808 281.947 10.5668 282.909L8.05078 280.726C9.03744 279.468 10.3571 278.506 12.0098 277.84C13.6871 277.149 15.5248 276.804 17.5228 276.804C19.3234 276.804 20.8898 277.1 22.2218 277.692C23.5538 278.259 24.5774 279.086 25.2928 280.171C26.0328 281.256 26.4028 282.539 26.4028 284.019C26.4028 284.858 26.2918 285.684 26.0698 286.498C25.8478 287.312 25.4284 288.175 24.8118 289.088C24.1951 290.001 23.3071 291.024 22.1478 292.159L12.7498 301.224L11.8618 299.781H27.5128V303H8.90178ZM38.4729 303.296C36.6475 303.296 34.8715 303.012 33.1449 302.445C31.4429 301.878 30.0492 301.113 28.9639 300.151L30.6659 297.228C31.5292 298.042 32.6515 298.708 34.0329 299.226C35.4142 299.744 36.8942 300.003 38.4729 300.003C40.3969 300.003 41.8892 299.596 42.9499 298.782C44.0352 297.943 44.5779 296.821 44.5779 295.415C44.5779 294.058 44.0599 292.973 43.0239 292.159C42.0125 291.32 40.3969 290.901 38.1769 290.901H36.1049V288.311L43.8009 278.839L44.3189 280.319H30.1479V277.1H47.2419V279.616L39.5829 289.051L37.6589 287.904H38.8799C42.0125 287.904 44.3559 288.607 45.9099 290.013C47.4885 291.419 48.2779 293.207 48.2779 295.378C48.2779 296.833 47.9202 298.165 47.2049 299.374C46.4895 300.583 45.4042 301.545 43.9489 302.26C42.5182 302.951 40.6929 303.296 38.4729 303.296Z" fill="#292C33"/>
<path d="M15.509 360.296C13.6836 360.296 11.9076 360.012 10.181 359.445C8.479 358.878 7.08534 358.113 6 357.151L7.702 354.228C8.56534 355.042 9.68767 355.708 11.069 356.226C12.4503 356.744 13.9303 357.003 15.509 357.003C17.433 357.003 18.9253 356.596 19.986 355.782C21.0713 354.943 21.614 353.821 21.614 352.415C21.614 351.058 21.096 349.973 20.06 349.159C19.0486 348.32 17.433 347.901 15.213 347.901H13.141V345.311L20.837 335.839L21.355 337.319H7.184V334.1H24.278V336.616L16.619 346.051L14.695 344.904H15.916C19.0486 344.904 21.392 345.607 22.946 347.013C24.5246 348.419 25.314 350.207 25.314 352.378C25.314 353.833 24.9563 355.165 24.241 356.374C23.5256 357.583 22.4403 358.545 20.985 359.26C19.5543 359.951 17.729 360.296 15.509 360.296ZM39.3468 360.296C37.3241 360.296 35.5111 359.778 33.9078 358.742C32.3291 357.706 31.0711 356.201 30.1338 354.228C29.2211 352.255 28.7648 349.862 28.7648 347.05C28.7648 344.238 29.2211 341.845 30.1338 339.872C31.0711 337.899 32.3291 336.394 33.9078 335.358C35.5111 334.322 37.3241 333.804 39.3468 333.804C41.3448 333.804 43.1454 334.322 44.7488 335.358C46.3521 336.394 47.6101 337.899 48.5228 339.872C49.4354 341.845 49.8918 344.238 49.8918 347.05C49.8918 349.862 49.4354 352.255 48.5228 354.228C47.6101 356.201 46.3521 357.706 44.7488 358.742C43.1454 359.778 41.3448 360.296 39.3468 360.296ZM39.3468 357.003C40.7034 357.003 41.8874 356.633 42.8988 355.893C43.9348 355.153 44.7364 354.043 45.3038 352.563C45.8958 351.083 46.1918 349.245 46.1918 347.05C46.1918 344.855 45.8958 343.017 45.3038 341.537C44.7364 340.057 43.9348 338.947 42.8988 338.207C41.8874 337.467 40.7034 337.097 39.3468 337.097C37.9901 337.097 36.7938 337.467 35.7578 338.207C34.7218 338.947 33.9078 340.057 33.3158 341.537C32.7484 343.017 32.4648 344.855 32.4648 347.05C32.4648 349.245 32.7484 351.083 33.3158 352.563C33.9078 354.043 34.7218 355.153 35.7578 355.893C36.7938 356.633 37.9901 357.003 39.3468 357.003Z" fill="#292C33"/>
<path d="M91.3332 132.296C89.5079 132.296 87.7319 132.012 86.0052 131.445C84.3032 130.878 82.9096 130.113 81.8242 129.151L83.5262 126.228C84.3896 127.042 85.5119 127.708 86.8932 128.226C88.2746 128.744 89.7546 129.003 91.3332 129.003C93.2572 129.003 94.7496 128.596 95.8102 127.782C96.8956 126.943 97.4382 125.821 97.4382 124.415C97.4382 123.058 96.9202 121.973 95.8842 121.159C94.8729 120.32 93.2572 119.901 91.0372 119.901H88.9652V117.311L96.6612 107.839L97.1792 109.319H83.0082V106.1H100.103V108.616L92.4432 118.051L90.5192 116.904H91.7402C94.8729 116.904 97.2162 117.607 98.7702 119.013C100.349 120.419 101.139 122.207 101.139 124.378C101.139 125.833 100.781 127.165 100.066 128.374C99.3499 129.583 98.2646 130.545 96.8092 131.26C95.3786 131.951 93.5532 132.296 91.3332 132.296Z" fill="#292C33"/>
<path d="M79.1819 189V164.58L80.7729 166.319H73.3359V163.1H82.8449V189H79.1819ZM99.0922 189.296C97.0696 189.296 95.2566 188.778 93.6532 187.742C92.0746 186.706 90.8166 185.201 89.8792 183.228C88.9666 181.255 88.5102 178.862 88.5102 176.05C88.5102 173.238 88.9666 170.845 89.8792 168.872C90.8166 166.899 92.0746 165.394 93.6532 164.358C95.2566 163.322 97.0696 162.804 99.0922 162.804C101.09 162.804 102.891 163.322 104.494 164.358C106.098 165.394 107.356 166.899 108.268 168.872C109.181 170.845 109.637 173.238 109.637 176.05C109.637 178.862 109.181 181.255 108.268 183.228C107.356 185.201 106.098 186.706 104.494 187.742C102.891 188.778 101.09 189.296 99.0922 189.296ZM99.0922 186.003C100.449 186.003 101.633 185.633 102.644 184.893C103.68 184.153 104.482 183.043 105.049 181.563C105.641 180.083 105.937 178.245 105.937 176.05C105.937 173.855 105.641 172.017 105.049 170.537C104.482 169.057 103.68 167.947 102.644 167.207C101.633 166.467 100.449 166.097 99.0922 166.097C97.7356 166.097 96.5392 166.467 95.5032 167.207C94.4672 167.947 93.6532 169.057 93.0612 170.537C92.4939 172.017 92.2102 173.855 92.2102 176.05C92.2102 178.245 92.4939 180.083 93.0612 181.563C93.6532 183.043 94.4672 184.153 95.5032 184.893C96.5392 185.633 97.7356 186.003 99.0922 186.003Z" fill="white"/>
<path d="M80.4632 246V221.58L82.0542 223.319H74.6172V220.1H84.1262V246H80.4632ZM94.2686 246L105.257 221.654L106.219 223.319H90.8276L92.6776 221.506V227.944H89.1256V220.1H108.661V222.616L98.1906 246H94.2686Z" fill="#292C33"/>
<path d="M70.9604 303V300.484L81.5054 290.309C82.4427 289.421 83.1334 288.644 83.5774 287.978C84.0461 287.287 84.3544 286.658 84.5024 286.091C84.6751 285.499 84.7614 284.932 84.7614 284.389C84.7614 283.057 84.2927 282.009 83.3554 281.244C82.4181 280.479 81.0491 280.097 79.2484 280.097C77.8671 280.097 76.6214 280.331 75.5114 280.8C74.4014 281.244 73.4394 281.947 72.6254 282.909L70.1094 280.726C71.0961 279.468 72.4157 278.506 74.0684 277.84C75.7457 277.149 77.5834 276.804 79.5814 276.804C81.3821 276.804 82.9484 277.1 84.2804 277.692C85.6124 278.259 86.636 279.086 87.3513 280.171C88.0913 281.256 88.4614 282.539 88.4614 284.019C88.4614 284.858 88.3504 285.684 88.1284 286.498C87.9064 287.312 87.4871 288.175 86.8704 289.088C86.2537 290.001 85.3657 291.024 84.2064 292.159L74.8084 301.224L73.9203 299.781H89.5714V303H70.9604ZM91.5208 296.636V294.046L104.767 277.1H108.763L95.6278 294.046L93.7408 293.454H114.424V296.636H91.5208ZM105.914 303V296.636L106.025 293.454V287.83H109.503V303H105.914Z" fill="#292C33"/>
<path d="M143.195 125.636V123.046L156.441 106.1H160.437L147.302 123.046L145.415 122.454H166.098V125.636H143.195ZM157.588 132V125.636L157.699 122.454V116.83H161.177V132H157.588Z" fill="#292C33"/>
<path d="M146.612 189V164.58L148.203 166.319H140.766V163.1H150.275V189H146.612ZM160.307 189V164.58L161.898 166.319H154.461V163.1H163.97V189H160.307Z" fill="#292C33"/>
<path d="M141.553 246V221.58L143.144 223.319H135.707V220.1H145.216V246H141.553ZM160.982 246.296C158.885 246.296 157.072 245.988 155.543 245.371C154.014 244.754 152.83 243.879 151.991 242.744C151.152 241.585 150.733 240.228 150.733 238.674C150.733 237.145 151.128 235.85 151.917 234.789C152.731 233.704 153.903 232.89 155.432 232.347C156.961 231.78 158.811 231.496 160.982 231.496C163.153 231.496 165.003 231.78 166.532 232.347C168.086 232.89 169.27 233.704 170.084 234.789C170.898 235.874 171.305 237.169 171.305 238.674C171.305 240.228 170.886 241.585 170.047 242.744C169.208 243.879 168.012 244.754 166.458 245.371C164.904 245.988 163.079 246.296 160.982 246.296ZM160.982 243.299C163.054 243.299 164.67 242.88 165.829 242.041C167.013 241.178 167.605 240.018 167.605 238.563C167.605 237.132 167.013 236.01 165.829 235.196C164.67 234.357 163.054 233.938 160.982 233.938C158.935 233.938 157.331 234.357 156.172 235.196C155.013 236.01 154.433 237.132 154.433 238.563C154.433 240.018 155.013 241.178 156.172 242.041C157.331 242.88 158.935 243.299 160.982 243.299ZM160.982 233.494C159.009 233.494 157.331 233.235 155.95 232.717C154.569 232.174 153.508 231.41 152.768 230.423C152.028 229.412 151.658 228.215 151.658 226.834C151.658 225.379 152.04 224.133 152.805 223.097C153.594 222.036 154.692 221.222 156.098 220.655C157.504 220.088 159.132 219.804 160.982 219.804C162.857 219.804 164.497 220.088 165.903 220.655C167.309 221.222 168.407 222.036 169.196 223.097C169.985 224.133 170.38 225.379 170.38 226.834C170.38 228.215 170.01 229.412 169.27 230.423C168.53 231.41 167.457 232.174 166.051 232.717C164.645 233.235 162.955 233.494 160.982 233.494ZM160.982 231.126C162.783 231.126 164.189 230.756 165.2 230.016C166.236 229.276 166.754 228.265 166.754 226.982C166.754 225.675 166.224 224.651 165.163 223.911C164.102 223.171 162.709 222.801 160.982 222.801C159.255 222.801 157.874 223.171 156.838 223.911C155.827 224.651 155.321 225.675 155.321 226.982C155.321 228.265 155.814 229.276 156.801 230.016C157.812 230.756 159.206 231.126 160.982 231.126Z" fill="#292C33"/>
<path d="M134.285 303V300.484L144.83 290.309C145.768 289.421 146.458 288.644 146.902 287.978C147.371 287.287 147.679 286.658 147.827 286.091C148 285.499 148.086 284.932 148.086 284.389C148.086 283.057 147.618 282.009 146.68 281.244C145.743 280.479 144.374 280.097 142.573 280.097C141.192 280.097 139.946 280.331 138.836 280.8C137.726 281.244 136.764 281.947 135.95 282.909L133.434 280.726C134.421 279.468 135.741 278.506 137.393 277.84C139.071 277.149 140.908 276.804 142.906 276.804C144.707 276.804 146.273 277.1 147.605 277.692C148.937 278.259 149.961 279.086 150.676 280.171C151.416 281.256 151.786 282.539 151.786 284.019C151.786 284.858 151.675 285.684 151.453 286.498C151.231 287.312 150.812 288.175 150.195 289.088C149.579 290.001 148.691 291.024 147.531 292.159L138.133 301.224L137.245 299.781H152.896V303H134.285ZM164.301 303.296C162.475 303.296 160.699 303.012 158.973 302.445C157.271 301.878 155.877 301.113 154.792 300.151L156.494 297.228C157.357 298.042 158.479 298.708 159.861 299.226C161.242 299.744 162.71 300.003 164.264 300.003C166.237 300.003 167.754 299.584 168.815 298.745C169.875 297.906 170.406 296.784 170.406 295.378C170.406 294.416 170.171 293.577 169.703 292.862C169.234 292.147 168.42 291.604 167.261 291.234C166.126 290.839 164.56 290.642 162.562 290.642H156.679L158.048 277.1H172.663V280.319H159.417L161.341 278.506L160.268 289.199L158.344 287.423H163.339C165.929 287.423 168.013 287.756 169.592 288.422C171.17 289.088 172.317 290.013 173.033 291.197C173.748 292.356 174.106 293.701 174.106 295.23C174.106 296.71 173.748 298.067 173.033 299.3C172.317 300.509 171.232 301.483 169.777 302.223C168.346 302.938 166.521 303.296 164.301 303.296Z" fill="#292C33"/>
<path d="M214.583 132.296C212.757 132.296 210.981 132.012 209.255 131.445C207.553 130.878 206.159 130.113 205.074 129.151L206.776 126.228C207.639 127.042 208.761 127.708 210.143 128.226C211.524 128.744 212.992 129.003 214.546 129.003C216.519 129.003 218.036 128.584 219.097 127.745C220.157 126.906 220.688 125.784 220.688 124.378C220.688 123.416 220.453 122.577 219.985 121.862C219.516 121.147 218.702 120.604 217.543 120.234C216.408 119.839 214.842 119.642 212.844 119.642H206.961L208.33 106.1H222.945V109.319H209.699L211.623 107.506L210.55 118.199L208.626 116.423H213.621C216.211 116.423 218.295 116.756 219.874 117.422C221.452 118.088 222.599 119.013 223.315 120.197C224.03 121.356 224.388 122.701 224.388 124.23C224.388 125.71 224.03 127.067 223.315 128.3C222.599 129.509 221.514 130.483 220.059 131.223C218.628 131.938 216.803 132.296 214.583 132.296Z" fill="#292C33"/>
<path d="M203.741 189V164.58L205.332 166.319H197.895V163.1H207.404V189H203.741ZM212.663 189V186.484L223.208 176.309C224.145 175.421 224.836 174.644 225.28 173.978C225.748 173.287 226.057 172.658 226.205 172.091C226.377 171.499 226.464 170.932 226.464 170.389C226.464 169.057 225.995 168.009 225.058 167.244C224.12 166.479 222.751 166.097 220.951 166.097C219.569 166.097 218.324 166.331 217.214 166.8C216.104 167.244 215.142 167.947 214.328 168.909L211.812 166.726C212.798 165.468 214.118 164.506 215.771 163.84C217.448 163.149 219.286 162.804 221.284 162.804C223.084 162.804 224.651 163.1 225.983 163.692C227.315 164.259 228.338 165.086 229.054 166.171C229.794 167.256 230.164 168.539 230.164 170.019C230.164 170.858 230.053 171.684 229.831 172.498C229.609 173.312 229.189 174.175 228.573 175.088C227.956 176.001 227.068 177.024 225.909 178.159L216.511 187.224L215.623 185.781H231.274V189H212.663Z" fill="#292C33"/>
<path d="M202.944 246V221.58L204.535 223.319H197.098V220.1H206.607V246H202.944ZM220.672 219.804C223.015 219.804 224.988 220.31 226.592 221.321C228.22 222.332 229.453 223.8 230.292 225.724C231.13 227.623 231.55 229.954 231.55 232.717C231.55 235.652 231.032 238.131 229.996 240.154C228.96 242.177 227.529 243.706 225.704 244.742C223.878 245.778 221.745 246.296 219.303 246.296C218.094 246.296 216.922 246.173 215.788 245.926C214.678 245.679 213.703 245.297 212.865 244.779L214.271 241.893C214.961 242.337 215.726 242.658 216.565 242.855C217.428 243.028 218.328 243.114 219.266 243.114C221.88 243.114 223.965 242.3 225.519 240.672C227.073 239.019 227.85 236.577 227.85 233.346C227.85 232.828 227.825 232.211 227.776 231.496C227.726 230.781 227.615 230.078 227.443 229.387L228.664 230.645C228.318 231.78 227.739 232.742 226.925 233.531C226.135 234.296 225.173 234.875 224.039 235.27C222.929 235.64 221.708 235.825 220.376 235.825C218.674 235.825 217.157 235.504 215.825 234.863C214.493 234.222 213.444 233.321 212.68 232.162C211.915 230.978 211.533 229.584 211.533 227.981C211.533 226.304 211.927 224.861 212.717 223.652C213.531 222.419 214.628 221.469 216.01 220.803C217.416 220.137 218.97 219.804 220.672 219.804ZM220.82 222.801C219.71 222.801 218.723 223.011 217.86 223.43C216.996 223.849 216.318 224.429 215.825 225.169C215.356 225.909 215.122 226.797 215.122 227.833C215.122 229.362 215.652 230.583 216.713 231.496C217.773 232.384 219.204 232.828 221.005 232.828C222.189 232.828 223.225 232.606 224.113 232.162C225.025 231.718 225.728 231.114 226.222 230.349C226.74 229.584 226.999 228.733 226.999 227.796C226.999 226.883 226.764 226.057 226.296 225.317C225.827 224.577 225.136 223.973 224.224 223.504C223.311 223.035 222.176 222.801 220.82 222.801Z" fill="#292C33"/>
<path d="M194.413 303V300.484L204.958 290.309C205.896 289.421 206.587 288.644 207.031 287.978C207.5 287.287 207.807 286.658 207.955 286.091C208.128 285.499 208.214 284.932 208.214 284.389C208.214 283.057 207.747 282.009 206.809 281.244C205.872 280.479 204.502 280.097 202.701 280.097C201.32 280.097 200.074 280.331 198.964 280.8C197.854 281.244 196.892 281.947 196.078 282.909L193.562 280.726C194.549 279.468 195.869 278.506 197.521 277.84C199.199 277.149 201.037 276.804 203.035 276.804C204.836 276.804 206.401 277.1 207.733 277.692C209.065 278.259 210.09 279.086 210.805 280.171C211.545 281.256 211.915 282.539 211.915 284.019C211.915 284.858 211.803 285.684 211.581 286.498C211.359 287.312 210.941 288.175 210.324 289.088C209.708 290.001 208.82 291.024 207.66 292.159L198.262 301.224L197.374 299.781H213.024V303H194.413ZM226.908 303.296C224.614 303.296 222.653 302.79 221.025 301.779C219.397 300.768 218.152 299.312 217.288 297.413C216.45 295.489 216.031 293.146 216.031 290.383C216.031 287.448 216.549 284.969 217.585 282.946C218.621 280.923 220.063 279.394 221.913 278.358C223.763 277.322 225.885 276.804 228.277 276.804C229.511 276.804 230.682 276.927 231.792 277.174C232.927 277.421 233.901 277.803 234.715 278.321L233.309 281.207C232.643 280.738 231.88 280.418 231.016 280.245C230.178 280.072 229.29 279.986 228.352 279.986C225.713 279.986 223.615 280.812 222.061 282.465C220.507 284.093 219.73 286.523 219.73 289.754C219.73 290.272 219.756 290.889 219.805 291.604C219.855 292.319 219.977 293.022 220.174 293.713L218.917 292.455C219.287 291.32 219.867 290.371 220.656 289.606C221.47 288.817 222.432 288.237 223.542 287.867C224.677 287.472 225.897 287.275 227.204 287.275C228.931 287.275 230.46 287.596 231.792 288.237C233.124 288.878 234.174 289.791 234.938 290.975C235.702 292.134 236.085 293.516 236.085 295.119C236.085 296.772 235.677 298.215 234.863 299.448C234.049 300.681 232.952 301.631 231.57 302.297C230.189 302.963 228.635 303.296 226.908 303.296ZM226.76 300.299C227.895 300.299 228.883 300.089 229.721 299.67C230.585 299.251 231.262 298.671 231.755 297.931C232.249 297.166 232.495 296.278 232.495 295.267C232.495 293.738 231.965 292.529 230.904 291.641C229.844 290.728 228.402 290.272 226.576 290.272C225.392 290.272 224.355 290.494 223.467 290.938C222.579 291.382 221.876 291.986 221.358 292.751C220.865 293.491 220.618 294.342 220.618 295.304C220.618 296.192 220.854 297.018 221.322 297.783C221.791 298.523 222.481 299.127 223.393 299.596C224.306 300.065 225.428 300.299 226.76 300.299Z" fill="#292C33"/>
<path d="M278.757 132.296C276.463 132.296 274.502 131.79 272.874 130.779C271.246 129.768 270 128.312 269.137 126.413C268.298 124.489 267.879 122.146 267.879 119.383C267.879 116.448 268.397 113.969 269.433 111.946C270.469 109.923 271.912 108.394 273.762 107.358C275.612 106.322 277.733 105.804 280.126 105.804C281.359 105.804 282.531 105.927 283.641 106.174C284.776 106.421 285.75 106.803 286.564 107.321L285.158 110.207C284.492 109.738 283.727 109.418 282.864 109.245C282.025 109.072 281.137 108.986 280.2 108.986C277.561 108.986 275.464 109.812 273.91 111.465C272.356 113.093 271.579 115.523 271.579 118.754C271.579 119.272 271.604 119.889 271.653 120.604C271.702 121.319 271.826 122.022 272.023 122.713L270.765 121.455C271.135 120.32 271.715 119.371 272.504 118.606C273.318 117.817 274.28 117.237 275.39 116.867C276.525 116.472 277.746 116.275 279.053 116.275C280.78 116.275 282.309 116.596 283.641 117.237C284.973 117.878 286.021 118.791 286.786 119.975C287.551 121.134 287.933 122.516 287.933 124.119C287.933 125.772 287.526 127.215 286.712 128.448C285.898 129.681 284.8 130.631 283.419 131.297C282.038 131.963 280.484 132.296 278.757 132.296ZM278.609 129.299C279.744 129.299 280.73 129.089 281.569 128.67C282.432 128.251 283.111 127.671 283.604 126.931C284.097 126.166 284.344 125.278 284.344 124.267C284.344 122.738 283.814 121.529 282.753 120.641C281.692 119.728 280.249 119.272 278.424 119.272C277.24 119.272 276.204 119.494 275.316 119.938C274.428 120.382 273.725 120.986 273.207 121.751C272.714 122.491 272.467 123.342 272.467 124.304C272.467 125.192 272.701 126.018 273.17 126.783C273.639 127.523 274.329 128.127 275.242 128.596C276.155 129.065 277.277 129.299 278.609 129.299Z" fill="#292C33"/>
<path d="M266.229 189V164.58L267.82 166.319H260.383V163.1H269.892V189H266.229ZM283.475 189.296C281.65 189.296 279.874 189.012 278.147 188.445C276.445 187.878 275.052 187.113 273.966 186.151L275.668 183.228C276.532 184.042 277.654 184.708 279.035 185.226C280.417 185.744 281.897 186.003 283.475 186.003C285.399 186.003 286.892 185.596 287.952 184.782C289.038 183.943 289.58 182.821 289.58 181.415C289.58 180.058 289.062 178.973 288.026 178.159C287.015 177.32 285.399 176.901 283.179 176.901H281.107V174.311L288.803 164.839L289.321 166.319H275.15V163.1H292.244V165.616L284.585 175.051L282.661 173.904H283.882C287.015 173.904 289.358 174.607 290.912 176.013C292.491 177.419 293.28 179.207 293.28 181.378C293.28 182.833 292.923 184.165 292.207 185.374C291.492 186.583 290.407 187.545 288.951 188.26C287.521 188.951 285.695 189.296 283.475 189.296Z" fill="#292C33"/>
<path d="M255.945 246V243.484L266.49 233.309C267.428 232.421 268.118 231.644 268.562 230.978C269.031 230.287 269.339 229.658 269.487 229.091C269.66 228.499 269.746 227.932 269.746 227.389C269.746 226.057 269.278 225.009 268.34 224.244C267.403 223.479 266.034 223.097 264.233 223.097C262.852 223.097 261.606 223.331 260.496 223.8C259.386 224.244 258.424 224.947 257.61 225.909L255.094 223.726C256.081 222.468 257.401 221.506 259.053 220.84C260.731 220.149 262.568 219.804 264.566 219.804C266.367 219.804 267.933 220.1 269.265 220.692C270.597 221.259 271.621 222.086 272.336 223.171C273.076 224.256 273.446 225.539 273.446 227.019C273.446 227.858 273.335 228.684 273.113 229.498C272.891 230.312 272.472 231.175 271.855 232.088C271.239 233.001 270.351 234.024 269.191 235.159L259.793 244.224L258.905 242.781H274.556V246H255.945ZM288.144 246.296C286.122 246.296 284.309 245.778 282.705 244.742C281.127 243.706 279.869 242.201 278.931 240.228C278.019 238.255 277.562 235.862 277.562 233.05C277.562 230.238 278.019 227.845 278.931 225.872C279.869 223.899 281.127 222.394 282.705 221.358C284.309 220.322 286.122 219.804 288.144 219.804C290.142 219.804 291.943 220.322 293.546 221.358C295.15 222.394 296.408 223.899 297.32 225.872C298.233 227.845 298.689 230.238 298.689 233.05C298.689 235.862 298.233 238.255 297.32 240.228C296.408 242.201 295.15 243.706 293.546 244.742C291.943 245.778 290.142 246.296 288.144 246.296ZM288.144 243.003C289.501 243.003 290.685 242.633 291.696 241.893C292.732 241.153 293.534 240.043 294.101 238.563C294.693 237.083 294.989 235.245 294.989 233.05C294.989 230.855 294.693 229.017 294.101 227.537C293.534 226.057 292.732 224.947 291.696 224.207C290.685 223.467 289.501 223.097 288.144 223.097C286.788 223.097 285.591 223.467 284.555 224.207C283.519 224.947 282.705 226.057 282.113 227.537C281.546 229.017 281.262 230.855 281.262 233.05C281.262 235.245 281.546 237.083 282.113 238.563C282.705 240.043 283.519 241.153 284.555 241.893C285.591 242.633 286.788 243.003 288.144 243.003Z" fill="#292C33"/>
<path d="M257.23 303V300.484L267.775 290.309C268.713 289.421 269.403 288.644 269.847 287.978C270.316 287.287 270.624 286.658 270.772 286.091C270.945 285.499 271.031 284.932 271.031 284.389C271.031 283.057 270.563 282.009 269.625 281.244C268.688 280.479 267.319 280.097 265.518 280.097C264.137 280.097 262.891 280.331 261.781 280.8C260.671 281.244 259.709 281.947 258.895 282.909L256.379 280.726C257.366 279.468 258.686 278.506 260.338 277.84C262.016 277.149 263.853 276.804 265.851 276.804C267.652 276.804 269.218 277.1 270.55 277.692C271.882 278.259 272.906 279.086 273.621 280.171C274.361 281.256 274.731 282.539 274.731 284.019C274.731 284.858 274.62 285.684 274.398 286.498C274.176 287.312 273.757 288.175 273.14 289.088C272.524 290.001 271.636 291.024 270.476 292.159L261.078 301.224L260.19 299.781H275.841V303H257.23ZM283.324 303L294.313 278.654L295.275 280.319H279.883L281.733 278.506V284.944H278.181V277.1H297.717V279.616L287.246 303H283.324Z" fill="#292C33"/>
<path d="M327.928 189V164.58L329.519 166.319H322.082V163.1H331.591V189H327.928ZM336.886 182.636V180.046L350.132 163.1H354.128L340.993 180.046L339.106 179.454H359.789V182.636H336.886ZM351.279 189V182.636L351.39 179.454V173.83H354.868V189H351.279Z" fill="#292C33"/>
<path d="M324.906 246V243.484L335.451 233.309C336.389 232.421 337.079 231.644 337.523 230.978C337.992 230.287 338.3 229.658 338.448 229.091C338.621 228.499 338.707 227.932 338.707 227.389C338.707 226.057 338.239 225.009 337.301 224.244C336.364 223.479 334.995 223.097 333.194 223.097C331.813 223.097 330.567 223.331 329.457 223.8C328.347 224.244 327.385 224.947 326.571 225.909L324.055 223.726C325.042 222.468 326.362 221.506 328.014 220.84C329.692 220.149 331.529 219.804 333.527 219.804C335.328 219.804 336.894 220.1 338.226 220.692C339.558 221.259 340.582 222.086 341.297 223.171C342.037 224.256 342.407 225.539 342.407 227.019C342.407 227.858 342.296 228.684 342.074 229.498C341.852 230.312 341.433 231.175 340.816 232.088C340.2 233.001 339.312 234.024 338.152 235.159L328.754 244.224L327.866 242.781H343.517V246H324.906ZM350.925 246V221.58L352.516 223.319H345.079V220.1H354.588V246H350.925Z" fill="#292C33"/>
<path d="M319.847 303V300.484L330.392 290.309C331.329 289.421 332.02 288.644 332.464 287.978C332.932 287.287 333.241 286.658 333.389 286.091C333.561 285.499 333.648 284.932 333.648 284.389C333.648 283.057 333.179 282.009 332.242 281.244C331.304 280.479 329.935 280.097 328.135 280.097C326.753 280.097 325.508 280.331 324.398 280.8C323.288 281.244 322.326 281.947 321.512 282.909L318.996 280.726C319.982 279.468 321.302 278.506 322.955 277.84C324.632 277.149 326.47 276.804 328.468 276.804C330.268 276.804 331.835 277.1 333.167 277.692C334.499 278.259 335.522 279.086 336.238 280.171C336.978 281.256 337.348 282.539 337.348 284.019C337.348 284.858 337.237 285.684 337.015 286.498C336.793 287.312 336.373 288.175 335.757 289.088C335.14 290.001 334.252 291.024 333.093 292.159L323.695 301.224L322.807 299.781H338.458V303H319.847ZM351.601 303.296C349.504 303.296 347.691 302.988 346.162 302.371C344.632 301.754 343.448 300.879 342.61 299.744C341.771 298.585 341.352 297.228 341.352 295.674C341.352 294.145 341.746 292.85 342.536 291.789C343.35 290.704 344.521 289.89 346.051 289.347C347.58 288.78 349.43 288.496 351.601 288.496C353.771 288.496 355.621 288.78 357.151 289.347C358.705 289.89 359.889 290.704 360.703 291.789C361.517 292.874 361.924 294.169 361.924 295.674C361.924 297.228 361.504 298.585 360.666 299.744C359.827 300.879 358.631 301.754 357.077 302.371C355.523 302.988 353.697 303.296 351.601 303.296ZM351.601 300.299C353.673 300.299 355.288 299.88 356.448 299.041C357.632 298.178 358.224 297.018 358.224 295.563C358.224 294.132 357.632 293.01 356.448 292.196C355.288 291.357 353.673 290.938 351.601 290.938C349.553 290.938 347.95 291.357 346.791 292.196C345.631 293.01 345.052 294.132 345.052 295.563C345.052 297.018 345.631 298.178 346.791 299.041C347.95 299.88 349.553 300.299 351.601 300.299ZM351.601 290.494C349.627 290.494 347.95 290.235 346.569 289.717C345.187 289.174 344.127 288.41 343.387 287.423C342.647 286.412 342.277 285.215 342.277 283.834C342.277 282.379 342.659 281.133 343.424 280.097C344.213 279.036 345.311 278.222 346.717 277.655C348.123 277.088 349.751 276.804 351.601 276.804C353.475 276.804 355.116 277.088 356.522 277.655C357.928 278.222 359.025 279.036 359.815 280.097C360.604 281.133 360.999 282.379 360.999 283.834C360.999 285.215 360.629 286.412 359.889 287.423C359.149 288.41 358.076 289.174 356.67 289.717C355.264 290.235 353.574 290.494 351.601 290.494ZM351.601 288.126C353.401 288.126 354.807 287.756 355.819 287.016C356.855 286.276 357.373 285.265 357.373 283.982C357.373 282.675 356.842 281.651 355.782 280.911C354.721 280.171 353.327 279.801 351.601 279.801C349.874 279.801 348.493 280.171 347.457 280.911C346.445 281.651 345.94 282.675 345.94 283.982C345.94 285.265 346.433 286.276 347.42 287.016C348.431 287.756 349.825 288.126 351.601 288.126Z" fill="#292C33"/>
<path d="M336.206 132L347.195 107.654L348.157 109.319H332.765L334.615 107.506V113.944H331.062V106.1H350.599V108.616L340.128 132H336.206Z" fill="#292C33"/>
<path d="M407.567 78.1349V53.7149L409.158 55.4539H401.721V52.2349H411.23V78.1349H407.567Z" fill="#292C33"/>
</g>
</g>
</g>
</g>
<defs>
<clipPath id="clip0_3949_8311">
<rect width="432" height="366" fill="white"/>
</clipPath>
</defs>
</svg>
