<svg width="431" height="313" viewBox="0 0 431 313" fill="none" xmlns="http://www.w3.org/2000/svg">
<g clip-path="url(#clip0_532_3271)">
<rect width="57" height="47" transform="translate(122.519 268)" fill="#3C78EC"/>
<path d="M22.9564 20.7264H20.3476V3.36139H10.8906V20.7264H8.2002V1.32324H22.8749V20.7264H22.9564Z" fill="#B3B3B3"/>
<path d="M38.7725 20.7264H36.1636V14.6119H29.7231V20.7264H27.1143V6.29626H29.7231V12.5738H36.1636V6.29626H38.7725V20.7264Z" fill="#B3B3B3"/>
<path d="M73 20.7264V1.32324H79.359C81.3972 1.32324 82.9462 1.73087 84.0875 2.62766C85.2289 3.52444 85.7996 4.82886 85.7996 6.5409C85.7996 7.35616 85.555 8.08989 85.0658 8.82363C84.5767 9.55736 83.8429 9.96499 83.0277 10.2911C84.3321 10.4541 85.3104 11.0248 86.0441 11.9216C86.7779 12.8184 87.1855 13.9598 87.1855 15.1826C87.1855 16.9762 86.6148 18.2806 85.4735 19.2589C84.3321 20.2373 82.7831 20.6449 80.745 20.6449H73V20.7264ZM75.6904 9.55736H79.9297C80.908 9.55736 81.7233 9.31278 82.294 8.7421C82.9462 8.17142 83.1907 7.43769 83.1907 6.45937C83.1907 5.39954 82.8646 4.6658 82.2124 4.09512C81.5602 3.60597 80.5819 3.27986 79.359 3.27986H75.6904V9.55736ZM75.6904 11.5955V18.6067H80.745C81.9678 18.6067 82.8646 18.2806 83.5168 17.71C84.1691 17.1393 84.4952 16.2425 84.4952 15.1826C84.4952 14.1228 84.1691 13.226 83.5168 12.5738C82.8646 11.9216 81.9678 11.5955 80.745 11.514H80.5819H75.6904V11.5955Z" fill="#B3B3B3"/>
<path d="M101.126 8.33441H96.3976V20.7264H93.7888V8.33441H89.0603V6.29626H101.126V8.33441Z" fill="#B3B3B3"/>
<path d="M150.512 14.5304C150.593 16.4055 149.941 17.9545 148.637 19.1773C147.332 20.4002 145.62 21.0524 143.419 21.0524C141.218 21.0524 139.424 20.2372 138.038 18.6882C136.652 17.1392 136 15.1826 136 12.7368V9.31271C136 6.94846 136.652 4.91031 138.038 3.36132C139.424 1.81233 141.218 0.99707 143.419 0.99707C145.62 0.99707 147.332 1.56775 148.637 2.70911C149.941 3.85048 150.593 5.39947 150.512 7.35609V7.43762H147.984C147.984 6.05168 147.577 4.99184 146.761 4.17658C145.946 3.36132 144.805 2.95369 143.337 2.95369C141.87 2.95369 140.729 3.52437 139.832 4.74726C138.935 5.88862 138.527 7.35609 138.527 9.14966V12.6553C138.527 14.4488 138.935 15.9163 139.832 17.0577C140.729 18.199 141.87 18.8512 143.337 18.8512C144.805 18.8512 145.946 18.4436 146.761 17.7099C147.577 16.8946 147.984 15.8348 147.984 14.4488H150.512V14.5304Z" fill="#B3B3B3"/>
<path d="M165.92 14.0413C165.92 16.161 165.431 17.7915 164.453 19.0959C163.474 20.4003 162.088 20.971 160.295 20.971C159.398 20.971 158.664 20.8079 157.93 20.5634C157.278 20.2373 156.708 19.8296 156.218 19.259V26.2702H153.61V6.29634H155.648L156.055 8.17143C156.545 7.4377 157.115 6.94854 157.849 6.62244C158.583 6.29634 159.398 6.05176 160.295 6.05176C162.088 6.05176 163.474 6.78549 164.453 8.17143C165.431 9.55737 165.92 11.4325 165.92 13.7967V14.0413ZM163.311 13.7967C163.311 12.1662 162.985 10.7803 162.333 9.80195C161.681 8.82364 160.702 8.25296 159.479 8.25296C158.746 8.25296 158.094 8.41601 157.523 8.74211C156.952 9.06822 156.545 9.55737 156.218 10.1281V17.1393C156.545 17.71 156.952 18.1991 157.523 18.5252C158.094 18.8513 158.746 19.0144 159.479 19.0144C160.702 19.0144 161.681 18.5252 162.333 17.6284C162.985 16.7317 163.311 15.5088 163.311 14.1228V13.7967Z" fill="#B3B3B3"/>
<path d="M215.43 1.32324V20.7264H212.821V12.6553C212.006 12.8999 211.191 13.063 210.375 13.226C209.56 13.3076 208.663 13.3891 207.522 13.3891C205.402 13.3891 203.772 12.8999 202.631 12.0031C201.489 11.1064 201 9.55736 201 7.43769V1.32324H203.609V7.43769C203.609 8.90515 203.935 9.88346 204.506 10.4541C205.158 11.0248 206.136 11.2694 207.441 11.2694C208.337 11.2694 209.234 11.1879 210.131 11.1064C210.946 10.9433 211.843 10.7802 212.74 10.5357V1.32324H215.43Z" fill="#B3B3B3"/>
<path d="M230.675 8.33441H225.947V20.7264H223.338V8.33441H218.61V6.29626H230.675V8.33441Z" fill="#B3B3B3"/>
<path d="M279.675 20.7264H277.066V3.36139H267.609V20.7264H265V1.32324H279.675V20.7264Z" fill="#B3B3B3"/>
<path d="M294.92 8.33453H290.192V20.7265H287.583V8.33453H282.854V6.29639H294.92V8.33453Z" fill="#B3B3B3"/>
<path d="M344.512 14.5302C344.593 16.4053 343.941 17.9543 342.637 19.1772C341.332 20.4001 339.62 21.0523 337.419 21.0523C335.218 21.0523 333.424 20.2371 332.038 18.6881C330.652 17.1391 330 15.1825 330 12.7367V9.31259C330 6.94834 330.652 4.91019 332.038 3.3612C333.424 1.81221 335.218 0.996948 337.419 0.996948C339.62 0.996948 341.332 1.56763 342.637 2.70899C343.941 3.85035 344.593 5.39935 344.512 7.35597V7.43749H341.984C341.984 6.05155 341.577 4.99172 340.761 4.17646C339.946 3.3612 338.805 2.95357 337.337 2.95357C335.87 2.95357 334.729 3.52425 333.832 4.74714C332.935 5.8885 332.527 7.35597 332.527 9.14954V12.6552C332.527 14.4487 332.935 15.9162 333.832 17.0575C334.729 18.1989 335.87 18.8511 337.337 18.8511C338.805 18.8511 339.946 18.4435 340.761 17.7098C341.577 16.8945 341.984 15.8347 341.984 14.4487H344.512V14.5302Z" fill="#B3B3B3"/>
<path d="M353.887 6.05149C355.762 6.05149 357.148 6.7037 358.208 8.08964C359.268 9.47558 359.838 11.1876 359.838 13.3888V13.7149C359.838 15.8346 359.268 17.6282 358.126 19.0141C356.985 20.4 355.436 21.0523 353.398 21.0523C351.36 21.0523 349.811 20.4 348.669 19.0141C347.528 17.6282 346.957 15.9161 346.957 13.7149V13.3888C346.957 13.3073 346.957 13.2258 346.957 13.2258C346.957 13.1442 346.957 13.1442 346.957 13.0627V9.96473C346.957 7.19285 347.528 5.23623 348.588 3.93182C349.648 2.6274 351.278 1.97519 353.398 1.81214C354.621 1.73062 355.599 1.56756 356.251 1.32299C356.903 1.07841 357.23 0.670779 357.23 0.100098H359.268V0.181624C359.349 1.56756 358.86 2.54587 357.882 3.11656C356.903 3.68724 355.517 4.01334 353.642 4.01334C352.256 4.01334 351.197 4.42097 350.381 5.1547C349.566 5.88844 349.158 6.94827 349.158 8.33421V8.41574C349.648 7.76353 350.381 7.19285 351.197 6.78522C352.012 6.37759 352.99 6.05149 353.887 6.05149ZM353.398 8.08964C352.175 8.08964 351.197 8.57879 350.544 9.5571C349.892 10.5354 349.566 11.8398 349.566 13.3073V13.6334C349.566 15.1824 349.892 16.4053 350.544 17.3836C351.197 18.3619 352.175 18.8511 353.398 18.8511C354.621 18.8511 355.599 18.3619 356.251 17.3836C356.903 16.4053 357.23 15.1009 357.23 13.6334V13.3073C357.23 11.7583 356.903 10.5354 356.251 9.5571C355.599 8.57879 354.621 8.08964 353.398 8.08964Z" fill="#B3B3B3"/>
<path d="M394 20.7264V1.32324H400.359C402.397 1.32324 403.946 1.73087 405.088 2.62766C406.229 3.52444 406.8 4.82886 406.8 6.5409C406.8 7.35616 406.555 8.08989 406.066 8.82363C405.577 9.55736 404.843 9.96499 404.028 10.3726C405.332 10.5357 406.31 11.1064 407.044 12.0031C407.778 12.8999 408.186 14.0413 408.186 15.2642C408.186 17.0577 407.615 18.3622 406.473 19.3405C405.332 20.3188 403.783 20.7264 401.745 20.7264H394ZM396.69 9.55736H400.93C401.908 9.55736 402.723 9.31278 403.294 8.7421C403.946 8.17142 404.191 7.43769 404.191 6.45937C404.191 5.39954 403.865 4.6658 403.212 4.09512C402.56 3.60597 401.582 3.27986 400.359 3.27986H396.69V9.55736ZM396.69 11.5955V18.6067H401.745C402.968 18.6067 403.865 18.2806 404.517 17.71C405.169 17.1393 405.495 16.2425 405.495 15.1826C405.495 14.1228 405.169 13.226 404.517 12.5738C403.865 11.9216 402.968 11.5955 401.745 11.514H401.582H396.69V11.5955Z" fill="#B3B3B3"/>
<path d="M416.745 18.9325C417.561 18.9325 418.294 18.6879 418.865 18.1172C419.436 17.5466 419.762 16.8944 419.762 16.1606H422.126V16.2421C422.126 17.465 421.637 18.6064 420.496 19.5847C419.354 20.563 418.131 21.0522 416.664 21.0522C414.626 21.0522 413.077 20.4 411.935 19.014C410.794 17.6281 410.305 15.916 410.305 13.8779V13.3072C410.305 11.2691 410.876 9.55702 411.935 8.17108C413.077 6.78514 414.626 6.13293 416.582 6.13293C418.213 6.13293 419.517 6.62209 420.496 7.6004C421.474 8.57871 422.045 9.8016 421.963 11.2691V11.3506H419.599C419.599 10.4538 419.273 9.72007 418.702 9.06787C418.131 8.41566 417.398 8.17108 416.501 8.17108C415.196 8.17108 414.3 8.66024 413.647 9.63855C413.077 10.6169 412.751 11.8397 412.751 13.3072V13.8779C412.751 15.3454 413.077 16.5683 413.647 17.5466C414.544 18.4433 415.441 18.9325 416.745 18.9325Z" fill="#B3B3B3"/>
<path d="M281.584 62.978C286.764 63.459 289.391 66.382 289.391 70.378C289.391 74.744 286.172 78.296 279.586 78.296C275.886 78.296 272.26 77.112 270.077 75.151L271.779 72.228C273.518 73.856 276.404 75.003 279.586 75.003C283.471 75.003 285.691 73.227 285.691 70.415C285.691 67.677 283.73 65.901 279.29 65.901H277.218V63.311L283.73 55.319H271.261V52.1H288.355V54.616L281.584 62.978Z" fill="#292C33"/>
<path d="M261.588 105.1H271.097V131H267.434V108.319H261.588V105.1ZM287.344 131.296C281.276 131.296 276.762 126.486 276.762 118.05C276.762 109.614 281.276 104.804 287.344 104.804C293.375 104.804 297.889 109.614 297.889 118.05C297.889 126.486 293.375 131.296 287.344 131.296ZM287.344 128.003C291.377 128.003 294.189 124.673 294.189 118.05C294.189 111.427 291.377 108.097 287.344 108.097C283.274 108.097 280.462 111.427 280.462 118.05C280.462 124.673 283.274 128.003 287.344 128.003Z" fill="#292C33"/>
<path d="M262.871 163.6H272.38V189.5H268.717V166.819H262.871V163.6ZM277.379 163.6H296.915V166.116L286.444 189.5H282.522L292.771 166.819H280.931V171.444H277.379V163.6Z" fill="#292C33"/>
<path d="M264.52 243.531H277.803V246.75H259.192V244.234L269.737 234.059C272.475 231.395 272.993 229.767 272.993 228.139C272.993 225.475 271.106 223.847 267.48 223.847C264.705 223.847 262.448 224.735 260.857 226.659L258.341 224.476C260.339 221.997 263.78 220.554 267.813 220.554C273.215 220.554 276.693 223.329 276.693 227.769C276.693 230.285 275.953 232.542 272.438 235.909L264.52 243.531ZM302.692 237.204V240.386H297.771V246.75H294.182V240.386H279.789V237.796L293.035 220.85H297.031L284.34 237.204H294.293V231.58H297.771V237.204H302.692Z" fill="#292C33"/>
<path d="M358.989 68.454V71.636H354.068V78H350.479V71.636H336.086V69.046L349.332 52.1H353.328L340.637 68.454H350.59V62.83H354.068V68.454H358.989Z" fill="#292C33"/>
<path d="M333.657 105.1H343.166V131H339.503V108.319H333.657V105.1ZM347.351 105.1H356.86V131H353.197V108.319H347.351V105.1Z" fill="#292C33"/>
<path d="M328.598 163.6H338.107V189.5H334.444V166.819H328.598V163.6ZM359.609 175.921C362.569 177.068 364.197 179.214 364.197 182.174C364.197 186.873 360.201 189.796 353.874 189.796C347.584 189.796 343.625 186.873 343.625 182.174C343.625 179.214 345.253 177.031 348.176 175.921C345.808 174.811 344.55 172.887 344.55 170.334C344.55 166.005 348.287 163.304 353.874 163.304C359.498 163.304 363.272 166.005 363.272 170.334C363.272 172.887 361.977 174.811 359.609 175.921ZM353.874 166.301C350.396 166.301 348.213 167.892 348.213 170.482C348.213 173.035 350.322 174.626 353.874 174.626C357.463 174.626 359.646 173.035 359.646 170.482C359.646 167.892 357.352 166.301 353.874 166.301ZM353.874 186.799C357.981 186.799 360.497 184.986 360.497 182.063C360.497 179.214 357.981 177.438 353.874 177.438C349.767 177.438 347.325 179.214 347.325 182.063C347.325 184.986 349.767 186.799 353.874 186.799Z" fill="#292C33"/>
<path d="M332.506 243.531H345.789V246.75H327.178V244.234L337.723 234.059C340.461 231.395 340.979 229.767 340.979 228.139C340.979 225.475 339.092 223.847 335.466 223.847C332.691 223.847 330.434 224.735 328.843 226.659L326.327 224.476C328.325 221.997 331.766 220.554 335.799 220.554C341.201 220.554 344.679 223.329 344.679 227.769C344.679 230.285 343.939 232.542 340.424 235.909L332.506 243.531ZM356.231 231.173C363.964 231.173 366.998 234.392 366.998 238.98C366.998 243.457 363.816 247.046 357.193 247.046C353.53 247.046 349.904 245.862 347.684 243.901L349.386 240.978C351.125 242.606 354.011 243.753 357.156 243.753C361.078 243.753 363.298 241.94 363.298 239.128C363.298 236.205 361.448 234.392 355.454 234.392H349.571L350.94 220.85H365.555V224.069H354.048L353.345 231.173H356.231Z" fill="#292C33"/>
<path d="M6.58079 300.781H19.8638V304H1.25279V301.484L11.7978 291.309C14.5358 288.645 15.0538 287.017 15.0538 285.389C15.0538 282.725 13.1668 281.097 9.54079 281.097C6.76579 281.097 4.50879 281.985 2.91779 283.909L0.401789 281.726C2.39979 279.247 5.84079 277.804 9.87379 277.804C15.2758 277.804 18.7538 280.579 18.7538 285.019C18.7538 287.535 18.0138 289.792 14.4988 293.159L6.58079 300.781ZM22.1315 278.1H41.6675V280.616L31.1965 304H27.2745L37.5235 281.319H25.6835V285.944H22.1315V278.1Z" fill="#292C33"/>
<path d="M62.8587 304V301.484L73.4037 291.309C74.3411 290.421 75.0317 289.644 75.4757 288.978C75.9444 288.287 76.2527 287.658 76.4007 287.091C76.5734 286.499 76.6597 285.932 76.6597 285.389C76.6597 284.057 76.1911 283.009 75.2537 282.244C74.3164 281.479 72.9474 281.097 71.1467 281.097C69.7654 281.097 68.5197 281.331 67.4097 281.8C66.2997 282.244 65.3377 282.947 64.5237 283.909L62.0077 281.726C62.9944 280.468 64.3141 279.506 65.9667 278.84C67.6441 278.149 69.4817 277.804 71.4797 277.804C73.2804 277.804 74.8467 278.1 76.1787 278.692C77.5107 279.259 78.5344 280.086 79.2497 281.171C79.9897 282.256 80.3597 283.539 80.3597 285.019C80.3597 285.858 80.2487 286.684 80.0267 287.498C79.8047 288.312 79.3854 289.175 78.7687 290.088C78.1521 291.001 77.2641 292.024 76.1047 293.159L66.7067 302.224L65.8187 300.781H81.4697V304H62.8587ZM94.6128 304.296C92.5162 304.296 90.7032 303.988 89.1738 303.371C87.6445 302.754 86.4605 301.879 85.6218 300.744C84.7832 299.585 84.3638 298.228 84.3638 296.674C84.3638 295.145 84.7585 293.85 85.5478 292.789C86.3618 291.704 87.5335 290.89 89.0628 290.347C90.5922 289.78 92.4422 289.496 94.6128 289.496C96.7835 289.496 98.6335 289.78 100.163 290.347C101.717 290.89 102.901 291.704 103.715 292.789C104.529 293.874 104.936 295.169 104.936 296.674C104.936 298.228 104.517 299.585 103.678 300.744C102.839 301.879 101.643 302.754 100.089 303.371C98.5348 303.988 96.7095 304.296 94.6128 304.296ZM94.6128 301.299C96.6848 301.299 98.3005 300.88 99.4598 300.041C100.644 299.178 101.236 298.018 101.236 296.563C101.236 295.132 100.644 294.01 99.4598 293.196C98.3005 292.357 96.6848 291.938 94.6128 291.938C92.5655 291.938 90.9622 292.357 89.8028 293.196C88.6435 294.01 88.0638 295.132 88.0638 296.563C88.0638 298.018 88.6435 299.178 89.8028 300.041C90.9622 300.88 92.5655 301.299 94.6128 301.299ZM94.6128 291.494C92.6395 291.494 90.9622 291.235 89.5808 290.717C88.1995 290.174 87.1388 289.41 86.3988 288.423C85.6588 287.412 85.2888 286.215 85.2888 284.834C85.2888 283.379 85.6712 282.133 86.4358 281.097C87.2252 280.036 88.3228 279.222 89.7288 278.655C91.1348 278.088 92.7628 277.804 94.6128 277.804C96.4875 277.804 98.1278 278.088 99.5338 278.655C100.94 279.222 102.038 280.036 102.827 281.097C103.616 282.133 104.011 283.379 104.011 284.834C104.011 286.215 103.641 287.412 102.901 288.423C102.161 289.41 101.088 290.174 99.6818 290.717C98.2758 291.235 96.5862 291.494 94.6128 291.494ZM94.6128 289.126C96.4135 289.126 97.8195 288.756 98.8308 288.016C99.8668 287.276 100.385 286.265 100.385 284.982C100.385 283.675 99.8545 282.651 98.7938 281.911C97.7332 281.171 96.3395 280.801 94.6128 280.801C92.8862 280.801 91.5048 281.171 90.4688 281.911C89.4575 282.651 88.9518 283.675 88.9518 284.982C88.9518 286.265 89.4452 287.276 90.4318 288.016C91.4432 288.756 92.8368 289.126 94.6128 289.126Z" fill="#292C33"/>
<path d="M131.142 304V301.484L141.687 291.309C142.624 290.421 143.315 289.644 143.759 288.978C144.228 288.287 144.536 287.658 144.684 287.091C144.857 286.499 144.943 285.932 144.943 285.389C144.943 284.057 144.474 283.009 143.537 282.244C142.6 281.479 141.231 281.097 139.43 281.097C138.049 281.097 136.803 281.331 135.693 281.8C134.583 282.244 133.621 282.947 132.807 283.909L130.291 281.726C131.278 280.468 132.597 279.506 134.25 278.84C135.927 278.149 137.765 277.804 139.763 277.804C141.564 277.804 143.13 278.1 144.462 278.692C145.794 279.259 146.818 280.086 147.533 281.171C148.273 282.256 148.643 283.539 148.643 285.019C148.643 285.858 148.532 286.684 148.31 287.498C148.088 288.312 147.669 289.175 147.052 290.088C146.435 291.001 145.547 292.024 144.388 293.159L134.99 302.224L134.102 300.781H149.753V304H131.142ZM161.194 277.804C163.537 277.804 165.511 278.31 167.114 279.321C168.742 280.332 169.975 281.8 170.814 283.724C171.653 285.623 172.072 287.954 172.072 290.717C172.072 293.652 171.554 296.131 170.518 298.154C169.482 300.177 168.051 301.706 166.226 302.742C164.401 303.778 162.267 304.296 159.825 304.296C158.616 304.296 157.445 304.173 156.31 303.926C155.2 303.679 154.226 303.297 153.387 302.779L154.793 299.893C155.484 300.337 156.248 300.658 157.087 300.855C157.95 301.028 158.851 301.114 159.788 301.114C162.403 301.114 164.487 300.3 166.041 298.672C167.595 297.019 168.372 294.577 168.372 291.346C168.372 290.828 168.347 290.211 168.298 289.496C168.249 288.781 168.138 288.078 167.965 287.387L169.186 288.645C168.841 289.78 168.261 290.742 167.447 291.531C166.658 292.296 165.696 292.875 164.561 293.27C163.451 293.64 162.23 293.825 160.898 293.825C159.196 293.825 157.679 293.504 156.347 292.863C155.015 292.222 153.967 291.321 153.202 290.162C152.437 288.978 152.055 287.584 152.055 285.981C152.055 284.304 152.45 282.861 153.239 281.652C154.053 280.419 155.151 279.469 156.532 278.803C157.938 278.137 159.492 277.804 161.194 277.804ZM161.342 280.801C160.232 280.801 159.245 281.011 158.382 281.43C157.519 281.849 156.84 282.429 156.347 283.169C155.878 283.909 155.644 284.797 155.644 285.833C155.644 287.362 156.174 288.583 157.235 289.496C158.296 290.384 159.726 290.828 161.527 290.828C162.711 290.828 163.747 290.606 164.635 290.162C165.548 289.718 166.251 289.114 166.744 288.349C167.262 287.584 167.521 286.733 167.521 285.796C167.521 284.883 167.287 284.057 166.818 283.317C166.349 282.577 165.659 281.973 164.746 281.504C163.833 281.035 162.699 280.801 161.342 280.801Z" fill="white"/>
<path d="M206.525 288.978C211.705 289.459 214.332 292.382 214.332 296.378C214.332 300.744 211.113 304.296 204.527 304.296C200.827 304.296 197.201 303.112 195.018 301.151L196.72 298.228C198.459 299.856 201.345 301.003 204.527 301.003C208.412 301.003 210.632 299.227 210.632 296.415C210.632 293.677 208.671 291.901 204.231 291.901H202.159V289.311L208.671 281.319H196.202V278.1H213.296V280.616L206.525 288.978ZM228.365 304.296C222.297 304.296 217.783 299.486 217.783 291.05C217.783 282.614 222.297 277.804 228.365 277.804C234.396 277.804 238.91 282.614 238.91 291.05C238.91 299.486 234.396 304.296 228.365 304.296ZM228.365 301.003C232.398 301.003 235.21 297.673 235.21 291.05C235.21 284.427 232.398 281.097 228.365 281.097C224.295 281.097 221.483 284.427 221.483 291.05C221.483 297.673 224.295 301.003 228.365 301.003Z" fill="#292C33"/>
<path d="M407.656 62.423C415.389 62.423 418.423 65.642 418.423 70.23C418.423 74.707 415.241 78.296 408.618 78.296C404.955 78.296 401.329 77.112 399.109 75.151L400.811 72.228C402.55 73.856 405.436 75.003 408.581 75.003C412.503 75.003 414.723 73.19 414.723 70.378C414.723 67.455 412.873 65.642 406.879 65.642H400.996L402.365 52.1H416.98V55.319H405.473L404.77 62.423H407.656Z" fill="#292C33"/>
<path d="M391.929 106.35H401.438V132.25H397.775V109.569H391.929V106.35ZM412.024 129.031H425.307V132.25H406.696V129.734L417.241 119.559C419.979 116.895 420.497 115.267 420.497 113.639C420.497 110.975 418.61 109.347 414.984 109.347C412.209 109.347 409.952 110.235 408.361 112.159L405.845 109.976C407.843 107.497 411.284 106.054 415.317 106.054C420.719 106.054 424.197 108.829 424.197 113.269C424.197 115.785 423.457 118.042 419.942 121.409L412.024 129.031Z" fill="#292C33"/>
<path d="M396.98 189.5V165.08L398.571 166.819H391.134V163.6H400.643V189.5H396.98ZM414.707 163.304C417.051 163.304 419.024 163.81 420.627 164.821C422.255 165.832 423.489 167.3 424.327 169.224C425.166 171.123 425.585 173.454 425.585 176.217C425.585 179.152 425.067 181.631 424.031 183.654C422.995 185.677 421.565 187.206 419.739 188.242C417.914 189.278 415.78 189.796 413.338 189.796C412.13 189.796 410.958 189.673 409.823 189.426C408.713 189.179 407.739 188.797 406.9 188.279L408.306 185.393C408.997 185.837 409.762 186.158 410.6 186.355C411.464 186.528 412.364 186.614 413.301 186.614C415.916 186.614 418 185.8 419.554 184.172C421.108 182.519 421.885 180.077 421.885 176.846C421.885 176.328 421.861 175.711 421.811 174.996C421.762 174.281 421.651 173.578 421.478 172.887L422.699 174.145C422.354 175.28 421.774 176.242 420.96 177.031C420.171 177.796 419.209 178.375 418.074 178.77C416.964 179.14 415.743 179.325 414.411 179.325C412.709 179.325 411.192 179.004 409.86 178.363C408.528 177.722 407.48 176.821 406.715 175.662C405.951 174.478 405.568 173.084 405.568 171.481C405.568 169.804 405.963 168.361 406.752 167.152C407.566 165.919 408.664 164.969 410.045 164.303C411.451 163.637 413.005 163.304 414.707 163.304ZM414.855 166.301C413.745 166.301 412.759 166.511 411.895 166.93C411.032 167.349 410.354 167.929 409.86 168.669C409.392 169.409 409.157 170.297 409.157 171.333C409.157 172.862 409.688 174.083 410.748 174.996C411.809 175.884 413.24 176.328 415.04 176.328C416.224 176.328 417.26 176.106 418.148 175.662C419.061 175.218 419.764 174.614 420.257 173.849C420.775 173.084 421.034 172.233 421.034 171.296C421.034 170.383 420.8 169.557 420.331 168.817C419.863 168.077 419.172 167.473 418.259 167.004C417.347 166.535 416.212 166.301 414.855 166.301Z" fill="#292C33"/>
<path d="M388.449 246.75V244.234L398.994 234.059C399.932 233.171 400.622 232.394 401.066 231.728C401.535 231.037 401.843 230.408 401.991 229.841C402.164 229.249 402.25 228.682 402.25 228.139C402.25 226.807 401.782 225.759 400.844 224.994C399.907 224.229 398.538 223.847 396.737 223.847C395.356 223.847 394.11 224.081 393 224.55C391.89 224.994 390.928 225.697 390.114 226.659L387.598 224.476C388.585 223.218 389.905 222.256 391.557 221.59C393.235 220.899 395.072 220.554 397.07 220.554C398.871 220.554 400.437 220.85 401.769 221.442C403.101 222.009 404.125 222.836 404.84 223.921C405.58 225.006 405.95 226.289 405.95 227.769C405.95 228.608 405.839 229.434 405.617 230.248C405.395 231.062 404.976 231.925 404.359 232.838C403.743 233.751 402.855 234.774 401.695 235.909L392.297 244.974L391.409 243.531H407.06V246.75H388.449ZM420.944 247.046C418.65 247.046 416.689 246.54 415.061 245.529C413.433 244.518 412.188 243.062 411.324 241.163C410.486 239.239 410.066 236.896 410.066 234.133C410.066 231.198 410.584 228.719 411.62 226.696C412.656 224.673 414.099 223.144 415.949 222.108C417.799 221.072 419.921 220.554 422.313 220.554C423.547 220.554 424.718 220.677 425.828 220.924C426.963 221.171 427.937 221.553 428.751 222.071L427.345 224.957C426.679 224.488 425.915 224.168 425.051 223.995C424.213 223.822 423.325 223.736 422.387 223.736C419.748 223.736 417.651 224.562 416.097 226.215C414.543 227.843 413.766 230.273 413.766 233.504C413.766 234.022 413.791 234.639 413.84 235.354C413.89 236.069 414.013 236.772 414.21 237.463L412.952 236.205C413.322 235.07 413.902 234.121 414.691 233.356C415.505 232.567 416.467 231.987 417.577 231.617C418.712 231.222 419.933 231.025 421.24 231.025C422.967 231.025 424.496 231.346 425.828 231.987C427.16 232.628 428.209 233.541 428.973 234.725C429.738 235.884 430.12 237.266 430.12 238.869C430.12 240.522 429.713 241.965 428.899 243.198C428.085 244.431 426.988 245.381 425.606 246.047C424.225 246.713 422.671 247.046 420.944 247.046ZM420.796 244.049C421.931 244.049 422.918 243.839 423.756 243.42C424.62 243.001 425.298 242.421 425.791 241.681C426.285 240.916 426.531 240.028 426.531 239.017C426.531 237.488 426.001 236.279 424.94 235.391C423.88 234.478 422.437 234.022 420.611 234.022C419.427 234.022 418.391 234.244 417.503 234.688C416.615 235.132 415.912 235.736 415.394 236.501C414.901 237.241 414.654 238.092 414.654 239.054C414.654 239.942 414.889 240.768 415.357 241.533C415.826 242.273 416.517 242.877 417.429 243.346C418.342 243.815 419.464 244.049 420.796 244.049Z" fill="#292C33"/>
<path d="M23.0413 115.275C28.1843 115.275 31.9213 118.346 31.9213 123.119C31.9213 128.114 27.8883 131.296 22.7453 131.296C15.7893 131.296 11.8673 126.634 11.8673 118.383C11.8673 109.54 16.8623 104.804 24.1143 104.804C26.5563 104.804 28.8873 105.285 30.5523 106.321L29.1463 109.207C27.8143 108.319 26.0383 107.986 24.1883 107.986C18.9343 107.986 15.5673 111.279 15.5673 117.754C15.5673 118.05 15.5673 118.346 15.6043 118.679C17.0843 116.459 19.8223 115.275 23.0413 115.275ZM22.5973 128.299C25.9643 128.299 28.3323 126.338 28.3323 123.267C28.3323 120.233 26.0383 118.272 22.4123 118.272C18.8973 118.272 16.4553 120.455 16.4553 123.304C16.4553 125.968 18.6013 128.299 22.5973 128.299Z" fill="#292C33"/>
<path d="M4.3712 161.1H13.8802V187H10.2172V164.319H4.3712V161.1ZM29.4615 171.978C34.6415 172.459 37.2685 175.382 37.2685 179.378C37.2685 183.744 34.0495 187.296 27.4635 187.296C23.7635 187.296 20.1375 186.112 17.9545 184.151L19.6565 181.228C21.3955 182.856 24.2815 184.003 27.4635 184.003C31.3485 184.003 33.5685 182.227 33.5685 179.415C33.5685 176.677 31.6075 174.901 27.1675 174.901H25.0955V172.311L31.6075 164.319H19.1385V161.1H36.2325V163.616L29.4615 171.978Z" fill="#292C33"/>
<path d="M5.29807 242.281H18.5811V245.5H-0.0299258V242.984L10.5151 232.809C13.2531 230.145 13.7711 228.517 13.7711 226.889C13.7711 224.225 11.8841 222.597 8.25807 222.597C5.48307 222.597 3.22607 223.485 1.63507 225.409L-0.880926 223.226C1.11707 220.747 4.55807 219.304 8.59107 219.304C13.9931 219.304 17.4711 222.079 17.4711 226.519C17.4711 229.035 16.7311 231.292 13.2161 234.659L5.29807 242.281ZM32.0968 245.796C26.0288 245.796 21.5148 240.986 21.5148 232.55C21.5148 224.114 26.0288 219.304 32.0968 219.304C38.1278 219.304 42.6418 224.114 42.6418 232.55C42.6418 240.986 38.1278 245.796 32.0968 245.796ZM32.0968 242.503C36.1298 242.503 38.9418 239.173 38.9418 232.55C38.9418 225.927 36.1298 222.597 32.0968 222.597C28.0268 222.597 25.2148 225.927 25.2148 232.55C25.2148 239.173 28.0268 242.503 32.0968 242.503Z" fill="#292C33"/>
<path d="M74.0719 105.1H93.6079V107.616L83.1369 131H79.2149L89.4639 108.319H77.6239V112.944H74.0719V105.1Z" fill="#292C33"/>
<path d="M65.0919 161.1H74.6009V187H70.9379V164.319H65.0919V161.1ZM102.799 177.454V180.636H97.8782V187H94.2892V180.636H79.8962V178.046L93.1422 161.1H97.1382L84.4472 177.454H94.4002V171.83H97.8782V177.454H102.799Z" fill="#292C33"/>
<path d="M73.2453 242.281H86.5283V245.5H67.9173V242.984L78.4623 232.809C81.2003 230.145 81.7183 228.517 81.7183 226.889C81.7183 224.225 79.8313 222.597 76.2053 222.597C73.4303 222.597 71.1733 223.485 69.5823 225.409L67.0663 223.226C69.0643 220.747 72.5053 219.304 76.5383 219.304C81.9403 219.304 85.4183 222.079 85.4183 226.519C85.4183 229.035 84.6783 231.292 81.1633 234.659L73.2453 242.281ZM88.0904 219.6H97.5994V245.5H93.9364V222.819H88.0904V219.6Z" fill="#292C33"/>
<path d="M145.263 53.1H154.772V79H151.109V56.319H145.263V53.1Z" fill="#292C33"/>
<path d="M157.52 117.421C160.48 118.568 162.108 120.714 162.108 123.674C162.108 128.373 158.112 131.296 151.785 131.296C145.495 131.296 141.536 128.373 141.536 123.674C141.536 120.714 143.164 118.531 146.087 117.421C143.719 116.311 142.461 114.387 142.461 111.834C142.461 107.505 146.198 104.804 151.785 104.804C157.409 104.804 161.183 107.505 161.183 111.834C161.183 114.387 159.888 116.311 157.52 117.421ZM151.785 107.801C148.307 107.801 146.124 109.392 146.124 111.982C146.124 114.535 148.233 116.126 151.785 116.126C155.374 116.126 157.557 114.535 157.557 111.982C157.557 109.392 155.263 107.801 151.785 107.801ZM151.785 128.299C155.892 128.299 158.408 126.486 158.408 123.563C158.408 120.714 155.892 118.938 151.785 118.938C147.678 118.938 145.236 120.714 145.236 123.563C145.236 126.486 147.678 128.299 151.785 128.299Z" fill="#292C33"/>
<path d="M134.64 161.1H144.149V187H140.486V164.319H134.64V161.1ZM157.214 171.423C164.947 171.423 167.981 174.642 167.981 179.23C167.981 183.707 164.799 187.296 158.176 187.296C154.513 187.296 150.887 186.112 148.667 184.151L150.369 181.228C152.108 182.856 154.994 184.003 158.139 184.003C162.061 184.003 164.281 182.19 164.281 179.378C164.281 176.455 162.431 174.642 156.437 174.642H150.554L151.923 161.1H166.538V164.319H155.031L154.328 171.423H157.214Z" fill="#292C33"/>
<path d="M137.265 242.281H150.548V245.5H131.937V242.984L142.482 232.809C145.22 230.145 145.738 228.517 145.738 226.889C145.738 224.225 143.851 222.597 140.225 222.597C137.45 222.597 135.193 223.485 133.602 225.409L131.086 223.226C133.084 220.747 136.525 219.304 140.558 219.304C145.96 219.304 149.438 222.079 149.438 226.519C149.438 229.035 148.698 231.292 145.183 234.659L137.265 242.281ZM158.511 242.281H171.794V245.5H153.183V242.984L163.728 232.809C166.466 230.145 166.984 228.517 166.984 226.889C166.984 224.225 165.097 222.597 161.471 222.597C158.696 222.597 156.439 223.485 154.848 225.409L152.332 223.226C154.33 220.747 157.771 219.304 161.804 219.304C167.206 219.304 170.684 222.079 170.684 226.519C170.684 229.035 169.944 231.292 166.429 234.659L158.511 242.281Z" fill="#292C33"/>
<path d="M216.516 104.804C223.472 104.804 227.394 109.466 227.394 117.717C227.394 126.56 222.399 131.296 215.147 131.296C212.705 131.296 210.374 130.815 208.709 129.779L210.115 126.893C211.484 127.781 213.223 128.114 215.11 128.114C220.364 128.114 223.694 124.821 223.694 118.346V117.421C222.177 119.678 219.439 120.825 216.22 120.825C211.077 120.825 207.377 117.754 207.377 112.981C207.377 107.986 211.373 104.804 216.516 104.804ZM216.849 117.828C220.401 117.828 222.843 115.645 222.843 112.796C222.843 110.132 220.697 107.801 216.664 107.801C213.297 107.801 210.966 109.762 210.966 112.833C210.966 115.867 213.223 117.828 216.849 117.828Z" fill="#292C33"/>
<path d="M199.79 161.1H209.299V187H205.636V164.319H199.79V161.1ZM226.138 171.275C231.281 171.275 235.018 174.346 235.018 179.119C235.018 184.114 230.985 187.296 225.842 187.296C218.886 187.296 214.964 182.634 214.964 174.383C214.964 165.54 219.959 160.804 227.211 160.804C229.653 160.804 231.984 161.285 233.649 162.321L232.243 165.207C230.911 164.319 229.135 163.986 227.285 163.986C222.031 163.986 218.664 167.279 218.664 173.754C218.664 174.05 218.664 174.346 218.701 174.679C220.181 172.459 222.919 171.275 226.138 171.275ZM225.694 184.299C229.061 184.299 231.429 182.338 231.429 179.267C231.429 176.233 229.135 174.272 225.509 174.272C221.994 174.272 219.552 176.455 219.552 179.304C219.552 181.968 221.698 184.299 225.694 184.299Z" fill="#292C33"/>
<path d="M203.246 242.281H216.529V245.5H197.918V242.984L208.463 232.809C211.201 230.145 211.719 228.517 211.719 226.889C211.719 224.225 209.832 222.597 206.206 222.597C203.431 222.597 201.174 223.485 199.583 225.409L197.067 223.226C199.065 220.747 202.506 219.304 206.539 219.304C211.941 219.304 215.419 222.079 215.419 226.519C215.419 229.035 214.679 231.292 211.164 234.659L203.246 242.281ZM229.487 230.478C234.667 230.959 237.294 233.882 237.294 237.878C237.294 242.244 234.075 245.796 227.489 245.796C223.789 245.796 220.163 244.612 217.98 242.651L219.682 239.728C221.421 241.356 224.307 242.503 227.489 242.503C231.374 242.503 233.594 240.727 233.594 237.915C233.594 235.177 231.633 233.401 227.193 233.401H225.121V230.811L231.633 222.819H219.164V219.6H236.258V222.116L229.487 230.478Z" fill="#292C33"/>
<path d="M213.833 75.781H227.116V79H208.505V76.484L219.05 66.309C221.788 63.645 222.306 62.017 222.306 60.389C222.306 57.725 220.419 56.097 216.793 56.097C214.018 56.097 211.761 56.985 210.17 58.909L207.654 56.726C209.652 54.247 213.093 52.804 217.126 52.804C222.528 52.804 226.006 55.579 226.006 60.019C226.006 62.535 225.266 64.792 221.751 68.159L213.833 75.781Z" fill="#292C33"/>
</g>
<defs>
<clipPath id="clip0_532_3271">
<rect width="431" height="313" fill="white"/>
</clipPath>
</defs>
</svg>
