<svg width="436" height="314" viewBox="0 0 436 314" fill="none" xmlns="http://www.w3.org/2000/svg">
<g clip-path="url(#clip0_3949_8483)">
<path d="M312.221 90.374H255.221V137.374H312.221V90.374Z" fill="#41A05C"/>
<path d="M57.5 267H0.5V314H57.5V267Z" fill="#41A05C"/>
<path d="M439.502 90.374H382.502V137.374H439.502V90.374Z" fill="#41A05C"/>
<path d="M375.861 90.374H318.861V137.374H375.861V90.374Z" fill="#41A05C"/>
<path d="M247.346 267H190.346V314H247.346V267Z" fill="#41A05C"/>
<path d="M311.346 267H254.346V314H311.346V267Z" fill="#41A05C"/>
<mask id="mask0_3949_8483" style="mask-type:luminance" maskUnits="userSpaceOnUse" x="0" y="0" width="436" height="314">
<path d="M435.5 0H0.5V314H435.5V0Z" fill="white"/>
</mask>
<g mask="url(#mask0_3949_8483)">
<mask id="mask1_3949_8483" style="mask-type:luminance" maskUnits="userSpaceOnUse" x="0" y="0" width="436" height="314">
<path d="M435.5 0H0.5V314H435.5V0Z" fill="white"/>
</mask>
<g mask="url(#mask1_3949_8483)">
<path d="M312 149H255V196H312V149Z" fill="#E4793D"/>
<mask id="mask2_3949_8483" style="mask-type:luminance" maskUnits="userSpaceOnUse" x="4" y="0" width="432" height="314">
<path d="M435.5 0.5H4.5V313.5H435.5V0.5Z" fill="white"/>
</mask>
<g mask="url(#mask2_3949_8483)">
<mask id="mask3_3949_8483" style="mask-type:luminance" maskUnits="userSpaceOnUse" x="4" y="0" width="432" height="314">
<path d="M435.5 0.5H4.5V313.5H435.5V0.5Z" fill="white"/>
</mask>
<g mask="url(#mask3_3949_8483)">
<path d="M27.4574 20.7097H24.8486V3.77739H15.3916V20.7097H12.7012V1.79004H27.3759V20.7097H27.4574Z" fill="#B3B3B3"/>
<path d="M43.2734 20.7096H40.6645V14.7476H34.224V20.7096H31.6152V6.63916H34.224V12.7602H40.6645V6.63916H43.2734V20.7096Z" fill="#B3B3B3"/>
<path d="M77.5 20.7097V1.79004H83.859C85.8972 1.79004 87.4462 2.18751 88.5875 3.06194C89.7289 3.93638 90.2996 5.20828 90.2996 6.87766C90.2996 7.6726 90.055 8.38805 89.5658 9.1035C89.0767 9.81894 88.3429 10.2165 87.5277 10.5344C88.8321 10.6934 89.8104 11.2499 90.5441 12.1243C91.2779 12.9987 91.6855 14.1117 91.6855 15.3041C91.6855 17.0529 91.1148 18.3248 89.9735 19.2788C88.8321 20.2327 87.2831 20.6302 85.245 20.6302H77.5V20.7097ZM80.1904 9.81894H84.4297C85.408 9.81894 86.2233 9.58046 86.794 9.024C87.4462 8.46754 87.6907 7.7521 87.6907 6.79817C87.6907 5.76474 87.3646 5.0493 86.7124 4.49284C86.0602 4.01587 85.0819 3.6979 83.859 3.6979H80.1904V9.81894ZM80.1904 11.8063V18.6428H85.245C86.4678 18.6428 87.3646 18.3248 88.0168 17.7684C88.6691 17.2119 88.9952 16.3375 88.9952 15.3041C88.9952 14.2706 88.6691 13.3962 88.0168 12.7603C87.3646 12.1243 86.4678 11.8063 85.245 11.7268H85.0819H80.1904V11.8063Z" fill="#B3B3B3"/>
<path d="M105.626 8.62651H100.898V20.7096H98.289V8.62651H93.5605V6.63916H105.626V8.62651Z" fill="#B3B3B3"/>
<path d="M155.012 14.6681C155.093 16.4965 154.441 18.0069 153.137 19.1993C151.832 20.3917 150.12 21.0277 147.919 21.0277C145.718 21.0277 143.924 20.2327 142.538 18.7223C141.152 17.212 140.5 15.3041 140.5 12.9193V9.58057C140.5 7.27524 141.152 5.28789 142.538 3.7775C143.924 2.26711 145.718 1.47217 147.919 1.47217C150.12 1.47217 151.832 2.02863 153.137 3.14155C154.441 4.25446 155.093 5.76485 155.012 7.67271V7.7522H152.484C152.484 6.4008 152.077 5.36738 151.261 4.57244C150.446 3.7775 149.305 3.38003 147.837 3.38003C146.37 3.38003 145.229 3.93649 144.332 5.1289C143.435 6.24182 143.027 7.67271 143.027 9.42158V12.8398C143.027 14.5887 143.435 16.0195 144.332 17.1325C145.229 18.2454 146.37 18.8813 147.837 18.8813C149.305 18.8813 150.446 18.4839 151.261 17.7684C152.077 16.9735 152.484 15.9401 152.484 14.5887H155.012V14.6681Z" fill="#B3B3B3"/>
<path d="M170.421 14.1913C170.421 16.2581 169.932 17.848 168.954 19.1199C167.975 20.3918 166.589 20.9483 164.796 20.9483C163.899 20.9483 163.165 20.7893 162.431 20.5508C161.779 20.2328 161.209 19.8353 160.719 19.2789V26.1154H158.111V6.63936H160.149L160.556 8.46773C161.046 7.75228 161.616 7.27532 162.35 6.95734C163.084 6.63936 163.899 6.40088 164.796 6.40088C166.589 6.40088 167.975 7.11633 168.954 8.46773C169.932 9.81913 170.421 11.6475 170.421 13.9528V14.1913ZM167.812 13.9528C167.812 12.3629 167.486 11.0115 166.834 10.0576C166.182 9.10368 165.203 8.54722 163.98 8.54722C163.247 8.54722 162.595 8.70621 162.024 9.02419C161.453 9.34216 161.046 9.81913 160.719 10.3756V17.212C161.046 17.7685 161.453 18.2455 162.024 18.5634C162.595 18.8814 163.247 19.0404 163.98 19.0404C165.203 19.0404 166.182 18.5634 166.834 17.689C167.486 16.8146 167.812 15.6222 167.812 14.2708V13.9528Z" fill="#B3B3B3"/>
<path d="M219.93 1.79004V20.7097H217.321V12.8397C216.506 13.0782 215.691 13.2372 214.875 13.3962C214.06 13.4757 213.163 13.5552 212.022 13.5552C209.902 13.5552 208.272 13.0782 207.131 12.2038C205.989 11.3294 205.5 9.81894 205.5 7.7521V1.79004H208.109V7.7521C208.109 9.18299 208.435 10.137 209.006 10.6934C209.658 11.2499 210.636 11.4883 211.941 11.4883C212.837 11.4883 213.734 11.4089 214.631 11.3294C215.446 11.1704 216.343 11.0114 217.24 10.7729V1.79004H219.93Z" fill="#B3B3B3"/>
<path d="M235.176 8.62651H230.448V20.7096H227.839V8.62651H223.111V6.63916H235.176V8.62651Z" fill="#B3B3B3"/>
<path d="M284.175 20.7097H281.566V3.77739H272.109V20.7097H269.5V1.79004H284.175V20.7097Z" fill="#B3B3B3"/>
<path d="M299.421 8.62651H294.693V20.7096H292.084V8.62651H287.355V6.63916H299.421V8.62651Z" fill="#B3B3B3"/>
<path d="M349.012 14.6682C349.093 16.4965 348.441 18.0069 347.137 19.1993C345.832 20.3918 344.12 21.0277 341.919 21.0277C339.718 21.0277 337.924 20.2328 336.538 18.7224C335.152 17.212 334.5 15.3041 334.5 12.9193V9.58057C334.5 7.27524 335.152 5.28789 336.538 3.7775C337.924 2.26711 339.718 1.47217 341.919 1.47217C344.12 1.47217 345.832 2.02863 347.137 3.14155C348.441 4.25446 349.093 5.76485 349.012 7.67271V7.75221H346.484C346.484 6.40081 346.077 5.36738 345.261 4.57244C344.446 3.7775 343.305 3.38003 341.837 3.38003C340.37 3.38003 339.229 3.93649 338.332 5.1289C337.435 6.24182 337.027 7.67271 337.027 9.42158V12.8398C337.027 14.5887 337.435 16.0196 338.332 17.1325C339.229 18.2454 340.37 18.8814 341.837 18.8814C343.305 18.8814 344.446 18.4839 345.261 17.7685C346.077 16.9735 346.484 15.9401 346.484 14.5887H349.012V14.6682Z" fill="#B3B3B3"/>
<path d="M358.387 6.40073C360.262 6.40073 361.648 7.03668 362.708 8.38808C363.768 9.73948 364.338 11.4088 364.338 13.5551V13.8731C364.338 15.94 363.768 17.6888 362.626 19.0402C361.485 20.3916 359.936 21.0276 357.898 21.0276C355.86 21.0276 354.311 20.3916 353.169 19.0402C352.028 17.6888 351.457 16.0195 351.457 13.8731V13.5551C351.457 13.4757 351.457 13.3962 351.457 13.3962C351.457 13.3167 351.457 13.3167 351.457 13.2372V10.2164C351.457 7.51365 352.028 5.60579 353.088 4.33388C354.148 3.06198 355.778 2.42602 357.898 2.26704C359.121 2.18754 360.099 2.02855 360.751 1.79007C361.403 1.55159 361.73 1.15411 361.73 0.597656H363.768V0.677151C363.849 2.02855 363.36 2.98248 362.382 3.53894C361.403 4.0954 360.017 4.41338 358.142 4.41338C356.756 4.41338 355.697 4.81085 354.881 5.52629C354.066 6.24174 353.658 7.27516 353.658 8.62656V8.70606C354.148 8.07011 354.881 7.51365 355.697 7.11618C356.512 6.71871 357.49 6.40073 358.387 6.40073ZM357.898 8.38808C356.675 8.38808 355.697 8.86505 355.044 9.81898C354.392 10.7729 354.066 12.0448 354.066 13.4757V13.7936C354.066 15.304 354.392 16.4964 355.044 17.4504C355.697 18.4043 356.675 18.8813 357.898 18.8813C359.121 18.8813 360.099 18.4043 360.751 17.4504C361.403 16.4964 361.73 15.2245 361.73 13.7936V13.4757C361.73 11.9653 361.403 10.7729 360.751 9.81898C360.099 8.86505 359.121 8.38808 357.898 8.38808Z" fill="#B3B3B3"/>
<path d="M398.5 20.7097V1.79004H404.859C406.897 1.79004 408.446 2.18751 409.588 3.06194C410.729 3.93638 411.3 5.20828 411.3 6.87766C411.3 7.6726 411.055 8.38805 410.566 9.1035C410.077 9.81894 409.343 10.2165 408.528 10.6139C409.832 10.7729 410.81 11.3294 411.544 12.2038C412.278 13.0782 412.686 14.1911 412.686 15.3836C412.686 17.1324 412.115 18.4043 410.973 19.3583C409.832 20.3122 408.283 20.7097 406.245 20.7097H398.5ZM401.19 9.81894H405.43C406.408 9.81894 407.223 9.58046 407.794 9.024C408.446 8.46754 408.691 7.7521 408.691 6.79817C408.691 5.76474 408.365 5.0493 407.712 4.49284C407.06 4.01587 406.082 3.6979 404.859 3.6979H401.19V9.81894ZM401.19 11.8063V18.6428H406.245C407.468 18.6428 408.365 18.3248 409.017 17.7684C409.669 17.2119 409.995 16.3375 409.995 15.3041C409.995 14.2706 409.669 13.3962 409.017 12.7603C408.365 12.1243 407.468 11.8063 406.245 11.7268H406.082H401.19V11.8063Z" fill="#B3B3B3"/>
<path d="M421.245 18.9606C422.061 18.9606 422.794 18.7221 423.365 18.1657C423.936 17.6092 424.262 16.9733 424.262 16.2578H426.626V16.3373C426.626 17.5297 426.137 18.6426 424.996 19.5966C423.854 20.5505 422.631 21.0275 421.164 21.0275C419.126 21.0275 417.577 20.3915 416.435 19.0401C415.294 17.6887 414.805 16.0193 414.805 14.032V13.4755C414.805 11.4882 415.376 9.81874 416.435 8.46734C417.577 7.11594 419.126 6.47998 421.082 6.47998C422.713 6.47998 424.017 6.95695 424.996 7.91088C425.974 8.86481 426.545 10.0573 426.463 11.4882V11.5677H424.099C424.099 10.6932 423.773 9.97772 423.202 9.34177C422.631 8.70582 421.898 8.46734 421.001 8.46734C419.696 8.46734 418.8 8.9443 418.147 9.89823C417.577 10.8522 417.251 12.0446 417.251 13.4755V14.032C417.251 15.4629 417.577 16.6553 418.147 17.6092C419.044 18.4836 419.941 18.9606 421.245 18.9606Z" fill="#B3B3B3"/>
<path d="M283.795 74.5001V50.0801L285.386 51.8191H277.949V48.6001H287.458V74.5001H283.795Z" fill="#292C33"/>
<path d="M283.413 126.796C281.316 126.796 279.503 126.488 277.974 125.871C276.444 125.254 275.26 124.379 274.422 123.244C273.583 122.085 273.164 120.728 273.164 119.174C273.164 117.645 273.558 116.35 274.348 115.289C275.162 114.204 276.333 113.39 277.863 112.847C279.392 112.28 281.242 111.996 283.413 111.996C285.583 111.996 287.433 112.28 288.963 112.847C290.517 113.39 291.701 114.204 292.515 115.289C293.329 116.374 293.736 117.669 293.736 119.174C293.736 120.728 293.316 122.085 292.478 123.244C291.639 124.379 290.443 125.254 288.889 125.871C287.335 126.488 285.509 126.796 283.413 126.796ZM283.413 123.799C285.485 123.799 287.1 123.38 288.26 122.541C289.444 121.678 290.036 120.518 290.036 119.063C290.036 117.632 289.444 116.51 288.26 115.696C287.1 114.857 285.485 114.438 283.413 114.438C281.365 114.438 279.762 114.857 278.603 115.696C277.443 116.51 276.864 117.632 276.864 119.063C276.864 120.518 277.443 121.678 278.603 122.541C279.762 123.38 281.365 123.799 283.413 123.799ZM283.413 113.994C281.439 113.994 279.762 113.735 278.381 113.217C276.999 112.674 275.939 111.91 275.199 110.923C274.459 109.912 274.089 108.715 274.089 107.334C274.089 105.879 274.471 104.633 275.236 103.597C276.025 102.536 277.123 101.722 278.529 101.155C279.935 100.588 281.563 100.304 283.413 100.304C285.287 100.304 286.928 100.588 288.334 101.155C289.74 101.722 290.837 102.536 291.627 103.597C292.416 104.633 292.811 105.879 292.811 107.334C292.811 108.715 292.441 109.912 291.701 110.923C290.961 111.91 289.888 112.674 288.482 113.217C287.076 113.735 285.386 113.994 283.413 113.994ZM283.413 111.626C285.213 111.626 286.619 111.256 287.631 110.516C288.667 109.776 289.185 108.765 289.185 107.482C289.185 106.175 288.654 105.151 287.594 104.411C286.533 103.671 285.139 103.301 283.413 103.301C281.686 103.301 280.305 103.671 279.269 104.411C278.257 105.151 277.752 106.175 277.752 107.482C277.752 108.765 278.245 109.776 279.232 110.516C280.243 111.256 281.637 111.626 283.413 111.626Z" fill="white"/>
<path d="M272.112 185.5V161.08L273.703 162.819H266.266V159.6H275.775V185.5H272.112ZM289.803 185.796C287.977 185.796 286.201 185.512 284.475 184.945C282.773 184.378 281.379 183.613 280.294 182.651L281.996 179.728C282.859 180.542 283.981 181.208 285.363 181.726C286.744 182.244 288.212 182.503 289.766 182.503C291.739 182.503 293.256 182.084 294.317 181.245C295.377 180.406 295.908 179.284 295.908 177.878C295.908 176.916 295.673 176.077 295.205 175.362C294.736 174.647 293.922 174.104 292.763 173.734C291.628 173.339 290.062 173.142 288.064 173.142H282.181L283.55 159.6H298.165V162.819H284.919L286.843 161.006L285.77 171.699L283.846 169.923H288.841C291.431 169.923 293.515 170.256 295.094 170.922C296.672 171.588 297.819 172.513 298.535 173.697C299.25 174.856 299.608 176.201 299.608 177.73C299.608 179.21 299.25 180.567 298.535 181.8C297.819 183.009 296.734 183.983 295.279 184.723C293.848 185.438 292.023 185.796 289.803 185.796Z" fill="white"/>
<path d="M263.564 244.5V241.984L274.109 231.809C275.047 230.921 275.737 230.144 276.181 229.478C276.65 228.787 276.958 228.158 277.106 227.591C277.279 226.999 277.365 226.432 277.365 225.889C277.365 224.557 276.897 223.509 275.959 222.744C275.022 221.979 273.653 221.597 271.852 221.597C270.471 221.597 269.225 221.831 268.115 222.3C267.005 222.744 266.043 223.447 265.229 224.409L262.713 222.226C263.7 220.968 265.02 220.006 266.672 219.34C268.35 218.649 270.187 218.304 272.185 218.304C273.986 218.304 275.552 218.6 276.884 219.192C278.216 219.759 279.24 220.586 279.955 221.671C280.695 222.756 281.065 224.039 281.065 225.519C281.065 226.358 280.954 227.184 280.732 227.998C280.51 228.812 280.091 229.675 279.474 230.588C278.858 231.501 277.97 232.524 276.81 233.659L267.412 242.724L266.524 241.281H282.175V244.5H263.564ZM284.81 244.5V241.984L295.355 231.809C296.293 230.921 296.983 230.144 297.427 229.478C297.896 228.787 298.204 228.158 298.352 227.591C298.525 226.999 298.611 226.432 298.611 225.889C298.611 224.557 298.143 223.509 297.205 222.744C296.268 221.979 294.899 221.597 293.098 221.597C291.717 221.597 290.471 221.831 289.361 222.3C288.251 222.744 287.289 223.447 286.475 224.409L283.959 222.226C284.946 220.968 286.266 220.006 287.918 219.34C289.596 218.649 291.433 218.304 293.431 218.304C295.232 218.304 296.798 218.6 298.13 219.192C299.462 219.759 300.486 220.586 301.201 221.671C301.941 222.756 302.311 224.039 302.311 225.519C302.311 226.358 302.2 227.184 301.978 227.998C301.756 228.812 301.337 229.675 300.72 230.588C300.104 231.501 299.216 232.524 298.056 233.659L288.658 242.724L287.77 241.281H303.421V244.5H284.81Z" fill="#292C33"/>
<path d="M262.769 303.5V300.984L273.314 290.809C274.252 289.921 274.942 289.144 275.386 288.478C275.855 287.787 276.163 287.158 276.311 286.591C276.484 285.999 276.57 285.432 276.57 284.889C276.57 283.557 276.102 282.509 275.164 281.744C274.227 280.979 272.858 280.597 271.057 280.597C269.676 280.597 268.43 280.831 267.32 281.3C266.21 281.744 265.248 282.447 264.434 283.409L261.918 281.226C262.905 279.968 264.225 279.006 265.877 278.34C267.555 277.649 269.392 277.304 271.39 277.304C273.191 277.304 274.757 277.6 276.089 278.192C277.421 278.759 278.445 279.586 279.16 280.671C279.9 281.756 280.27 283.039 280.27 284.519C280.27 285.358 280.159 286.184 279.937 286.998C279.715 287.812 279.296 288.675 278.679 289.588C278.063 290.501 277.175 291.524 276.015 292.659L266.617 301.724L265.729 300.281H281.38V303.5H262.769ZM292.822 277.304C295.165 277.304 297.138 277.81 298.742 278.821C300.37 279.832 301.603 281.3 302.442 283.224C303.28 285.123 303.7 287.454 303.7 290.217C303.7 293.152 303.182 295.631 302.146 297.654C301.11 299.677 299.679 301.206 297.854 302.242C296.028 303.278 293.895 303.796 291.453 303.796C290.244 303.796 289.072 303.673 287.938 303.426C286.828 303.179 285.853 302.797 285.015 302.279L286.421 299.393C287.111 299.837 287.876 300.158 288.715 300.355C289.578 300.528 290.478 300.614 291.416 300.614C294.03 300.614 296.115 299.8 297.669 298.172C299.223 296.519 300 294.077 300 290.846C300 290.328 299.975 289.711 299.926 288.996C299.876 288.281 299.765 287.578 299.593 286.887L300.814 288.145C300.468 289.28 299.889 290.242 299.075 291.031C298.285 291.796 297.323 292.375 296.189 292.77C295.079 293.14 293.858 293.325 292.526 293.325C290.824 293.325 289.307 293.004 287.975 292.363C286.643 291.722 285.594 290.821 284.83 289.662C284.065 288.478 283.683 287.084 283.683 285.481C283.683 283.804 284.077 282.361 284.867 281.152C285.681 279.919 286.778 278.969 288.16 278.303C289.566 277.637 291.12 277.304 292.822 277.304ZM292.97 280.301C291.86 280.301 290.873 280.511 290.01 280.93C289.146 281.349 288.468 281.929 287.975 282.669C287.506 283.409 287.272 284.297 287.272 285.333C287.272 286.862 287.802 288.083 288.863 288.996C289.923 289.884 291.354 290.328 293.155 290.328C294.339 290.328 295.375 290.106 296.263 289.662C297.175 289.218 297.878 288.614 298.372 287.849C298.89 287.084 299.149 286.233 299.149 285.296C299.149 284.383 298.914 283.557 298.446 282.817C297.977 282.077 297.286 281.473 296.374 281.004C295.461 280.535 294.326 280.301 292.97 280.301Z" fill="white"/>
<path d="M335.997 74.5002V71.9842L346.542 61.8092C347.479 60.9212 348.171 60.1442 348.615 59.4782C349.084 58.7875 349.391 58.1585 349.539 57.5912C349.712 56.9992 349.798 56.4319 349.798 55.8892C349.798 54.5572 349.329 53.5089 348.392 52.7442C347.455 51.9795 346.086 51.5972 344.285 51.5972C342.904 51.5972 341.658 51.8315 340.548 52.3002C339.438 52.7442 338.477 53.4472 337.663 54.4092L335.146 52.2262C336.133 50.9682 337.452 50.0062 339.105 49.3402C340.782 48.6495 342.62 48.3042 344.618 48.3042C346.419 48.3042 347.986 48.6002 349.318 49.1922C350.65 49.7595 351.673 50.5859 352.388 51.6712C353.128 52.7565 353.499 54.0392 353.499 55.5192C353.499 56.3579 353.387 57.1842 353.165 57.9982C352.943 58.8122 352.525 59.6755 351.908 60.5882C351.291 61.5009 350.403 62.5245 349.243 63.6592L339.845 72.7242L338.957 71.2812H354.608V74.5002H335.997Z" fill="#292C33"/>
<path d="M346.698 100.304C349.042 100.304 351.015 100.81 352.618 101.821C354.246 102.832 355.48 104.3 356.318 106.224C357.157 108.123 357.576 110.454 357.576 113.217C357.576 116.152 357.058 118.631 356.022 120.654C354.986 122.677 353.556 124.206 351.73 125.242C349.905 126.278 347.771 126.796 345.329 126.796C344.121 126.796 342.949 126.673 341.814 126.426C340.704 126.179 339.73 125.797 338.891 125.279L340.297 122.393C340.988 122.837 341.753 123.158 342.591 123.355C343.455 123.528 344.355 123.614 345.292 123.614C347.907 123.614 349.991 122.8 351.545 121.172C353.099 119.519 353.876 117.077 353.876 113.846C353.876 113.328 353.852 112.711 353.802 111.996C353.753 111.281 353.642 110.578 353.469 109.887L354.69 111.145C354.345 112.28 353.765 113.242 352.951 114.031C352.162 114.796 351.2 115.375 350.065 115.77C348.955 116.14 347.734 116.325 346.402 116.325C344.7 116.325 343.183 116.004 341.851 115.363C340.519 114.722 339.471 113.821 338.706 112.662C337.942 111.478 337.559 110.084 337.559 108.481C337.559 106.804 337.954 105.361 338.743 104.152C339.557 102.919 340.655 101.969 342.036 101.303C343.442 100.637 344.996 100.304 346.698 100.304ZM346.846 103.301C345.736 103.301 344.75 103.511 343.886 103.93C343.023 104.349 342.345 104.929 341.851 105.669C341.383 106.409 341.148 107.297 341.148 108.333C341.148 109.862 341.679 111.083 342.739 111.996C343.8 112.884 345.231 113.328 347.031 113.328C348.215 113.328 349.251 113.106 350.139 112.662C351.052 112.218 351.755 111.614 352.248 110.849C352.766 110.084 353.025 109.233 353.025 108.296C353.025 107.383 352.791 106.557 352.322 105.817C351.854 105.077 351.163 104.473 350.25 104.004C349.338 103.535 348.203 103.301 346.846 103.301Z" fill="white"/>
<path d="M335.817 185.5V161.08L337.408 162.819H329.971V159.6H339.48V185.5H335.817ZM356.024 185.796C353.73 185.796 351.769 185.29 350.141 184.279C348.513 183.268 347.267 181.812 346.404 179.913C345.565 177.989 345.146 175.646 345.146 172.883C345.146 169.948 345.664 167.469 346.7 165.446C347.736 163.423 349.179 161.894 351.029 160.858C352.879 159.822 355 159.304 357.393 159.304C358.626 159.304 359.798 159.427 360.908 159.674C362.042 159.921 363.017 160.303 363.831 160.821L362.425 163.707C361.759 163.238 360.994 162.918 360.131 162.745C359.292 162.572 358.404 162.486 357.467 162.486C354.827 162.486 352.731 163.312 351.177 164.965C349.623 166.593 348.846 169.023 348.846 172.254C348.846 172.772 348.87 173.389 348.92 174.104C348.969 174.819 349.092 175.522 349.29 176.213L348.032 174.955C348.402 173.82 348.981 172.871 349.771 172.106C350.585 171.317 351.547 170.737 352.657 170.367C353.791 169.972 355.012 169.775 356.32 169.775C358.046 169.775 359.576 170.096 360.908 170.737C362.24 171.378 363.288 172.291 364.053 173.475C364.817 174.634 365.2 176.016 365.2 177.619C365.2 179.272 364.793 180.715 363.979 181.948C363.165 183.181 362.067 184.131 360.686 184.797C359.304 185.463 357.75 185.796 356.024 185.796ZM355.876 182.799C357.01 182.799 357.997 182.589 358.836 182.17C359.699 181.751 360.377 181.171 360.871 180.431C361.364 179.666 361.611 178.778 361.611 177.767C361.611 176.238 361.08 175.029 360.02 174.141C358.959 173.228 357.516 172.772 355.691 172.772C354.507 172.772 353.471 172.994 352.583 173.438C351.695 173.882 350.992 174.486 350.474 175.251C349.98 175.991 349.734 176.842 349.734 177.804C349.734 178.692 349.968 179.518 350.437 180.283C350.905 181.023 351.596 181.627 352.509 182.096C353.421 182.565 354.544 182.799 355.876 182.799Z" fill="#292C33"/>
<path d="M328.099 244.5V241.984L338.644 231.809C339.582 230.921 340.272 230.144 340.716 229.478C341.185 228.787 341.493 228.158 341.641 227.591C341.814 226.999 341.9 226.432 341.9 225.889C341.9 224.557 341.432 223.509 340.494 222.744C339.557 221.979 338.188 221.597 336.387 221.597C335.006 221.597 333.76 221.831 332.65 222.3C331.54 222.744 330.578 223.447 329.764 224.409L327.248 222.226C328.235 220.968 329.555 220.006 331.207 219.34C332.885 218.649 334.722 218.304 336.72 218.304C338.521 218.304 340.087 218.6 341.419 219.192C342.751 219.759 343.775 220.586 344.49 221.671C345.23 222.756 345.6 224.039 345.6 225.519C345.6 226.358 345.489 227.184 345.267 227.998C345.045 228.812 344.626 229.675 344.009 230.588C343.393 231.501 342.505 232.524 341.345 233.659L331.947 242.724L331.059 241.281H346.71V244.5H328.099ZM357.671 244.796C355.845 244.796 354.069 244.512 352.343 243.945C350.641 243.378 349.247 242.613 348.162 241.651L349.864 238.728C350.727 239.542 351.849 240.208 353.231 240.726C354.612 241.244 356.092 241.503 357.671 241.503C359.595 241.503 361.087 241.096 362.148 240.282C363.233 239.443 363.776 238.321 363.776 236.915C363.776 235.558 363.258 234.473 362.222 233.659C361.21 232.82 359.595 232.401 357.375 232.401H355.303V229.811L362.999 220.339L363.517 221.819H349.346V218.6H366.44V221.116L358.781 230.551L356.857 229.404H358.078C361.21 229.404 363.554 230.107 365.108 231.513C366.686 232.919 367.476 234.707 367.476 236.878C367.476 238.333 367.118 239.665 366.403 240.874C365.687 242.083 364.602 243.045 363.147 243.76C361.716 244.451 359.891 244.796 357.671 244.796Z" fill="#292C33"/>
<path d="M334.708 303.796C332.883 303.796 331.107 303.512 329.38 302.945C327.678 302.378 326.284 301.613 325.199 300.651L326.901 297.728C327.764 298.542 328.887 299.208 330.268 299.726C331.649 300.244 333.129 300.503 334.708 300.503C336.632 300.503 338.124 300.096 339.185 299.282C340.27 298.443 340.813 297.321 340.813 295.915C340.813 294.558 340.295 293.473 339.259 292.659C338.248 291.82 336.632 291.401 334.412 291.401H332.34V288.811L340.036 279.339L340.554 280.819H326.383V277.6H343.477V280.116L335.818 289.551L333.894 288.404H335.115C338.248 288.404 340.591 289.107 342.145 290.513C343.724 291.919 344.513 293.707 344.513 295.878C344.513 297.333 344.155 298.665 343.44 299.874C342.725 301.083 341.639 302.045 340.184 302.76C338.753 303.451 336.928 303.796 334.708 303.796ZM358.546 303.796C356.523 303.796 354.71 303.278 353.107 302.242C351.528 301.206 350.27 299.701 349.333 297.728C348.42 295.755 347.964 293.362 347.964 290.55C347.964 287.738 348.42 285.345 349.333 283.372C350.27 281.399 351.528 279.894 353.107 278.858C354.71 277.822 356.523 277.304 358.546 277.304C360.544 277.304 362.345 277.822 363.948 278.858C365.551 279.894 366.809 281.399 367.722 283.372C368.635 285.345 369.091 287.738 369.091 290.55C369.091 293.362 368.635 295.755 367.722 297.728C366.809 299.701 365.551 301.206 363.948 302.242C362.345 303.278 360.544 303.796 358.546 303.796ZM358.546 300.503C359.903 300.503 361.087 300.133 362.098 299.393C363.134 298.653 363.936 297.543 364.503 296.063C365.095 294.583 365.391 292.745 365.391 290.55C365.391 288.355 365.095 286.517 364.503 285.037C363.936 283.557 363.134 282.447 362.098 281.707C361.087 280.967 359.903 280.597 358.546 280.597C357.189 280.597 355.993 280.967 354.957 281.707C353.921 282.447 353.107 283.557 352.515 285.037C351.948 286.517 351.664 288.355 351.664 290.55C351.664 292.745 351.948 294.583 352.515 296.063C353.107 297.543 353.921 298.653 354.957 299.393C355.993 300.133 357.189 300.503 358.546 300.503Z" fill="#292C33"/>
<path d="M408.923 74.7961C407.098 74.7961 405.322 74.5124 403.595 73.9451C401.893 73.3778 400.5 72.6131 399.414 71.6511L401.116 68.7281C401.98 69.5421 403.102 70.2081 404.483 70.7261C405.865 71.2441 407.345 71.5031 408.923 71.5031C410.847 71.5031 412.34 71.0961 413.4 70.2821C414.486 69.4434 415.028 68.3211 415.028 66.9151C415.028 65.5584 414.51 64.4731 413.474 63.6591C412.463 62.8204 410.847 62.4011 408.627 62.4011H406.555V59.8111L414.251 50.3391L414.769 51.8191H400.598V48.6001H417.692V51.1161L410.033 60.5511L408.109 59.4041H409.33C412.463 59.4041 414.806 60.1071 416.36 61.5131C417.939 62.9191 418.728 64.7074 418.728 66.8781C418.728 68.3334 418.371 69.6654 417.655 70.8741C416.94 72.0828 415.855 73.0448 414.399 73.7601C412.969 74.4508 411.143 74.7961 408.923 74.7961Z" fill="#292C33"/>
<path d="M399.897 126.5V102.08L401.488 103.819H394.051V100.6H403.56V126.5H399.897ZM419.807 126.796C417.785 126.796 415.972 126.278 414.368 125.242C412.79 124.206 411.532 122.701 410.594 120.728C409.682 118.755 409.225 116.362 409.225 113.55C409.225 110.738 409.682 108.345 410.594 106.372C411.532 104.399 412.79 102.894 414.368 101.858C415.972 100.822 417.785 100.304 419.807 100.304C421.805 100.304 423.606 100.822 425.209 101.858C426.813 102.894 428.071 104.399 428.983 106.372C429.896 108.345 430.352 110.738 430.352 113.55C430.352 116.362 429.896 118.755 428.983 120.728C428.071 122.701 426.813 124.206 425.209 125.242C423.606 126.278 421.805 126.796 419.807 126.796ZM419.807 123.503C421.164 123.503 422.348 123.133 423.359 122.393C424.395 121.653 425.197 120.543 425.764 119.063C426.356 117.583 426.652 115.745 426.652 113.55C426.652 111.355 426.356 109.517 425.764 108.037C425.197 106.557 424.395 105.447 423.359 104.707C422.348 103.967 421.164 103.597 419.807 103.597C418.451 103.597 417.254 103.967 416.218 104.707C415.182 105.447 414.368 106.557 413.776 108.037C413.209 109.517 412.925 111.355 412.925 113.55C412.925 115.745 413.209 117.583 413.776 119.063C414.368 120.543 415.182 121.653 416.218 122.393C417.254 123.133 418.451 123.503 419.807 123.503Z" fill="white"/>
<path d="M391.673 244.5V241.984L402.218 231.809C403.156 230.921 403.846 230.144 404.29 229.478C404.759 228.787 405.067 228.158 405.215 227.591C405.388 226.999 405.474 226.432 405.474 225.889C405.474 224.557 405.006 223.509 404.068 222.744C403.131 221.979 401.762 221.597 399.961 221.597C398.58 221.597 397.334 221.831 396.224 222.3C395.114 222.744 394.152 223.447 393.338 224.409L390.822 222.226C391.809 220.968 393.129 220.006 394.781 219.34C396.459 218.649 398.296 218.304 400.294 218.304C402.095 218.304 403.661 218.6 404.993 219.192C406.325 219.759 407.349 220.586 408.064 221.671C408.804 222.756 409.174 224.039 409.174 225.519C409.174 226.358 409.063 227.184 408.841 227.998C408.619 228.812 408.2 229.675 407.583 230.588C406.967 231.501 406.079 232.524 404.919 233.659L395.521 242.724L394.633 241.281H410.284V244.5H391.673ZM412.234 238.136V235.546L425.48 218.6H429.476L416.341 235.546L414.454 234.954H435.137V238.136H412.234ZM426.627 244.5V238.136L426.738 234.954V229.33H430.216V244.5H426.627Z" fill="#292C33"/>
<path d="M15.4707 120.136V117.546L28.7167 100.6H32.7127L19.5777 117.546L17.6907 116.954H38.3737V120.136H15.4707ZM29.8637 126.5V120.136L29.9747 116.954V111.33H33.4527V126.5H29.8637Z" fill="#292C33"/>
<path d="M18.889 185.5V161.08L20.48 162.819H13.043V159.6H22.552V185.5H18.889ZM32.5833 185.5V161.08L34.1743 162.819H26.7373V159.6H36.2463V185.5H32.5833Z" fill="#292C33"/>
<path d="M13.8304 244.5V220.08L15.4214 221.819H7.98438V218.6H17.4934V244.5H13.8304ZM33.2597 244.796C31.1631 244.796 29.3501 244.488 27.8207 243.871C26.2914 243.254 25.1074 242.379 24.2687 241.244C23.4301 240.085 23.0107 238.728 23.0107 237.174C23.0107 235.645 23.4054 234.35 24.1947 233.289C25.0087 232.204 26.1804 231.39 27.7097 230.847C29.2391 230.28 31.0891 229.996 33.2597 229.996C35.4304 229.996 37.2804 230.28 38.8097 230.847C40.3637 231.39 41.5477 232.204 42.3617 233.289C43.1757 234.374 43.5827 235.669 43.5827 237.174C43.5827 238.728 43.1634 240.085 42.3247 241.244C41.4861 242.379 40.2897 243.254 38.7357 243.871C37.1817 244.488 35.3564 244.796 33.2597 244.796ZM33.2597 241.799C35.3317 241.799 36.9474 241.38 38.1067 240.541C39.2907 239.678 39.8827 238.518 39.8827 237.063C39.8827 235.632 39.2907 234.51 38.1067 233.696C36.9474 232.857 35.3317 232.438 33.2597 232.438C31.2124 232.438 29.6091 232.857 28.4497 233.696C27.2904 234.51 26.7107 235.632 26.7107 237.063C26.7107 238.518 27.2904 239.678 28.4497 240.541C29.6091 241.38 31.2124 241.799 33.2597 241.799ZM33.2597 231.994C31.2864 231.994 29.6091 231.735 28.2277 231.217C26.8464 230.674 25.7857 229.91 25.0457 228.923C24.3057 227.912 23.9357 226.715 23.9357 225.334C23.9357 223.879 24.3181 222.633 25.0827 221.597C25.8721 220.536 26.9697 219.722 28.3757 219.155C29.7817 218.588 31.4097 218.304 33.2597 218.304C35.1344 218.304 36.7747 218.588 38.1807 219.155C39.5867 219.722 40.6844 220.536 41.4737 221.597C42.2631 222.633 42.6577 223.879 42.6577 225.334C42.6577 226.715 42.2877 227.912 41.5477 228.923C40.8077 229.91 39.7347 230.674 38.3287 231.217C36.9227 231.735 35.2331 231.994 33.2597 231.994ZM33.2597 229.626C35.0604 229.626 36.4664 229.256 37.4777 228.516C38.5137 227.776 39.0317 226.765 39.0317 225.482C39.0317 224.175 38.5014 223.151 37.4407 222.411C36.3801 221.671 34.9864 221.301 33.2597 221.301C31.5331 221.301 30.1517 221.671 29.1157 222.411C28.1044 223.151 27.5987 224.175 27.5987 225.482C27.5987 226.765 28.0921 227.776 29.0787 228.516C30.0901 229.256 31.4837 229.626 33.2597 229.626Z" fill="#292C33"/>
<path d="M6.56389 303.5V300.984L17.1088 290.809C18.0462 289.921 18.7368 289.144 19.1808 288.478C19.6495 287.787 19.9578 287.158 20.1058 286.591C20.2785 285.999 20.3648 285.432 20.3648 284.889C20.3648 283.557 19.8962 282.509 18.9588 281.744C18.0215 280.979 16.6525 280.597 14.8518 280.597C13.4705 280.597 12.2249 280.831 11.1149 281.3C10.0049 281.744 9.04289 282.447 8.22889 283.409L5.71289 281.226C6.69955 279.968 8.01922 279.006 9.67189 278.34C11.3492 277.649 13.1869 277.304 15.1848 277.304C16.9855 277.304 18.5518 277.6 19.8838 278.192C21.2158 278.759 22.2395 279.586 22.9548 280.671C23.6948 281.756 24.0648 283.039 24.0648 284.519C24.0648 285.358 23.9538 286.184 23.7318 286.998C23.5098 287.812 23.0905 288.675 22.4738 289.588C21.8572 290.501 20.9692 291.524 19.8098 292.659L10.4119 301.724L9.52389 300.281H25.1748V303.5H6.56389ZM36.5789 303.796C34.7536 303.796 32.9776 303.512 31.2509 302.945C29.5489 302.378 28.1553 301.613 27.0699 300.651L28.7719 297.728C29.6353 298.542 30.7576 299.208 32.1389 299.726C33.5203 300.244 34.9879 300.503 36.5419 300.503C38.5153 300.503 40.0323 300.084 41.0929 299.245C42.1536 298.406 42.6839 297.284 42.6839 295.878C42.6839 294.916 42.4496 294.077 41.9809 293.362C41.5123 292.647 40.6983 292.104 39.5389 291.734C38.4043 291.339 36.8379 291.142 34.8399 291.142H28.9569L30.3259 277.6H44.9409V280.819H31.6949L33.6189 279.006L32.5459 289.699L30.6219 287.923H35.6169C38.2069 287.923 40.2913 288.256 41.8699 288.922C43.4486 289.588 44.5956 290.513 45.3109 291.697C46.0263 292.856 46.3839 294.201 46.3839 295.73C46.3839 297.21 46.0263 298.567 45.3109 299.8C44.5956 301.009 43.5103 301.983 42.0549 302.723C40.6243 303.438 38.7989 303.796 36.5789 303.796Z" fill="white"/>
<path d="M88.9563 126.796C87.1309 126.796 85.3549 126.512 83.6283 125.945C81.9263 125.378 80.5326 124.613 79.4473 123.651L81.1493 120.728C82.0126 121.542 83.1349 122.208 84.5163 122.726C85.8976 123.244 87.3653 123.503 88.9193 123.503C90.8926 123.503 92.4096 123.084 93.4703 122.245C94.531 121.406 95.0613 120.284 95.0613 118.878C95.0613 117.916 94.8269 117.077 94.3583 116.362C93.8896 115.647 93.0756 115.104 91.9163 114.734C90.7816 114.339 89.2153 114.142 87.2173 114.142H81.3343L82.7033 100.6H97.3183V103.819H84.0723L85.9963 102.006L84.9233 112.699L82.9993 110.923H87.9943C90.5843 110.923 92.6686 111.256 94.2473 111.922C95.826 112.588 96.973 113.513 97.6883 114.697C98.4036 115.856 98.7613 117.201 98.7613 118.73C98.7613 120.21 98.4036 121.567 97.6883 122.8C96.973 124.009 95.8876 124.983 94.4323 125.723C93.0016 126.438 91.1763 126.796 88.9563 126.796Z" fill="#292C33"/>
<path d="M78.1136 185.5V161.08L79.7046 162.819H72.2676V159.6H81.7766V185.5H78.1136ZM87.035 185.5V182.984L97.58 172.809C98.5173 171.921 99.208 171.144 99.652 170.478C100.12 169.787 100.429 169.158 100.577 168.591C100.749 167.999 100.836 167.432 100.836 166.889C100.836 165.557 100.367 164.509 99.43 163.744C98.4926 162.979 97.1236 162.597 95.323 162.597C93.9416 162.597 92.696 162.831 91.586 163.3C90.476 163.744 89.514 164.447 88.7 165.409L86.184 163.226C87.1706 161.968 88.4903 161.006 90.143 160.34C91.8203 159.649 93.658 159.304 95.656 159.304C97.4566 159.304 99.023 159.6 100.355 160.192C101.687 160.759 102.71 161.586 103.426 162.671C104.166 163.756 104.536 165.039 104.536 166.519C104.536 167.358 104.425 168.184 104.203 168.998C103.981 169.812 103.561 170.675 102.945 171.588C102.328 172.501 101.44 173.524 100.281 174.659L90.883 183.724L89.995 182.281H105.646V185.5H87.035Z" fill="#292C33"/>
<path d="M77.3187 244.5V220.08L78.9097 221.819H71.4727V218.6H80.9817V244.5H77.3187ZM95.046 218.304C97.3894 218.304 99.3627 218.81 100.965 219.821C102.593 220.832 103.827 222.3 104.666 224.224C105.504 226.123 105.924 228.454 105.924 231.217C105.924 234.152 105.406 236.631 104.369 238.654C103.333 240.677 101.903 242.206 100.077 243.242C98.2527 244.278 96.119 244.796 93.677 244.796C92.4684 244.796 91.2967 244.673 90.162 244.426C89.052 244.179 88.0777 243.797 87.239 243.279L88.645 240.393C89.3357 240.837 90.1004 241.158 90.939 241.355C91.8024 241.528 92.7027 241.614 93.64 241.614C96.2547 241.614 98.339 240.8 99.893 239.172C101.446 237.519 102.223 235.077 102.223 231.846C102.223 231.328 102.199 230.711 102.149 229.996C102.1 229.281 101.989 228.578 101.816 227.887L103.037 229.145C102.692 230.28 102.112 231.242 101.298 232.031C100.509 232.796 99.5477 233.375 98.413 233.77C97.303 234.14 96.082 234.325 94.75 234.325C93.048 234.325 91.531 234.004 90.199 233.363C88.867 232.722 87.8187 231.821 87.054 230.662C86.2894 229.478 85.907 228.084 85.907 226.481C85.907 224.804 86.3017 223.361 87.091 222.152C87.905 220.919 89.0027 219.969 90.384 219.303C91.79 218.637 93.344 218.304 95.046 218.304ZM95.194 221.301C94.084 221.301 93.0974 221.511 92.234 221.93C91.3707 222.349 90.6924 222.929 90.199 223.669C89.7304 224.409 89.496 225.297 89.496 226.333C89.496 227.862 90.0264 229.083 91.087 229.996C92.1477 230.884 93.5784 231.328 95.379 231.328C96.563 231.328 97.599 231.106 98.487 230.662C99.3997 230.218 100.102 229.614 100.595 228.849C101.113 228.084 101.372 227.233 101.372 226.296C101.372 225.383 101.138 224.557 100.669 223.817C100.201 223.077 99.5107 222.473 98.598 222.004C97.6854 221.535 96.5507 221.301 95.194 221.301Z" fill="#292C33"/>
<path d="M68.7865 303.5V300.984L79.3315 290.809C80.2688 289.921 80.9595 289.144 81.4035 288.478C81.8721 287.787 82.1805 287.158 82.3285 286.591C82.5011 285.999 82.5875 285.432 82.5875 284.889C82.5875 283.557 82.1188 282.509 81.1815 281.744C80.2441 280.979 78.8751 280.597 77.0745 280.597C75.6931 280.597 74.4475 280.831 73.3375 281.3C72.2275 281.744 71.2655 282.447 70.4515 283.409L67.9355 281.226C68.9221 279.968 70.2418 279.006 71.8945 278.34C73.5718 277.649 75.4095 277.304 77.4075 277.304C79.2081 277.304 80.7745 277.6 82.1065 278.192C83.4385 278.759 84.4621 279.586 85.1775 280.671C85.9175 281.756 86.2875 283.039 86.2875 284.519C86.2875 285.358 86.1765 286.184 85.9545 286.998C85.7325 287.812 85.3131 288.675 84.6965 289.588C84.0798 290.501 83.1918 291.524 82.0325 292.659L72.6345 301.724L71.7465 300.281H87.3975V303.5H68.7865ZM101.281 303.796C98.9874 303.796 97.0264 303.29 95.3984 302.279C93.7704 301.268 92.5248 299.812 91.6614 297.913C90.8228 295.989 90.4034 293.646 90.4034 290.883C90.4034 287.948 90.9214 285.469 91.9574 283.446C92.9934 281.423 94.4364 279.894 96.2864 278.858C98.1364 277.822 100.258 277.304 102.65 277.304C103.884 277.304 105.055 277.427 106.165 277.674C107.3 277.921 108.274 278.303 109.088 278.821L107.682 281.707C107.016 281.238 106.252 280.918 105.388 280.745C104.55 280.572 103.662 280.486 102.724 280.486C100.085 280.486 97.9884 281.312 96.4344 282.965C94.8804 284.593 94.1034 287.023 94.1034 290.254C94.1034 290.772 94.1281 291.389 94.1774 292.104C94.2268 292.819 94.3501 293.522 94.5474 294.213L93.2894 292.955C93.6594 291.82 94.2391 290.871 95.0284 290.106C95.8424 289.317 96.8044 288.737 97.9144 288.367C99.0491 287.972 100.27 287.775 101.577 287.775C103.304 287.775 104.833 288.096 106.165 288.737C107.497 289.378 108.546 290.291 109.31 291.475C110.075 292.634 110.457 294.016 110.457 295.619C110.457 297.272 110.05 298.715 109.236 299.948C108.422 301.181 107.325 302.131 105.943 302.797C104.562 303.463 103.008 303.796 101.281 303.796ZM101.133 300.799C102.268 300.799 103.255 300.589 104.093 300.17C104.957 299.751 105.635 299.171 106.128 298.431C106.622 297.666 106.868 296.778 106.868 295.767C106.868 294.238 106.338 293.029 105.277 292.141C104.217 291.228 102.774 290.772 100.948 290.772C99.7644 290.772 98.7284 290.994 97.8404 291.438C96.9524 291.882 96.2494 292.486 95.7314 293.251C95.2381 293.991 94.9914 294.842 94.9914 295.804C94.9914 296.692 95.2258 297.518 95.6944 298.283C96.1631 299.023 96.8538 299.627 97.7664 300.096C98.6791 300.565 99.8014 300.799 101.133 300.799Z" fill="#292C33"/>
<path d="M155.177 126.796C152.883 126.796 150.922 126.29 149.294 125.279C147.666 124.268 146.421 122.812 145.557 120.913C144.719 118.989 144.299 116.646 144.299 113.883C144.299 110.948 144.817 108.469 145.853 106.446C146.889 104.423 148.332 102.894 150.182 101.858C152.032 100.822 154.154 100.304 156.546 100.304C157.78 100.304 158.951 100.427 160.061 100.674C161.196 100.921 162.17 101.303 162.984 101.821L161.578 104.707C160.912 104.238 160.148 103.918 159.284 103.745C158.446 103.572 157.558 103.486 156.62 103.486C153.981 103.486 151.884 104.312 150.33 105.965C148.776 107.593 147.999 110.023 147.999 113.254C147.999 113.772 148.024 114.389 148.073 115.104C148.123 115.819 148.246 116.522 148.443 117.213L147.185 115.955C147.555 114.82 148.135 113.871 148.924 113.106C149.738 112.317 150.7 111.737 151.81 111.367C152.945 110.972 154.166 110.775 155.473 110.775C157.2 110.775 158.729 111.096 160.061 111.737C161.393 112.378 162.442 113.291 163.206 114.475C163.971 115.634 164.353 117.016 164.353 118.619C164.353 120.272 163.946 121.715 163.132 122.948C162.318 124.181 161.221 125.131 159.839 125.797C158.458 126.463 156.904 126.796 155.177 126.796ZM155.029 123.799C156.164 123.799 157.151 123.589 157.989 123.17C158.853 122.751 159.531 122.171 160.024 121.431C160.518 120.666 160.764 119.778 160.764 118.767C160.764 117.238 160.234 116.029 159.173 115.141C158.113 114.228 156.67 113.772 154.844 113.772C153.66 113.772 152.624 113.994 151.736 114.438C150.848 114.882 150.145 115.486 149.627 116.251C149.134 116.991 148.887 117.842 148.887 118.804C148.887 119.692 149.122 120.518 149.59 121.283C150.059 122.023 150.75 122.627 151.662 123.096C152.575 123.565 153.697 123.799 155.029 123.799Z" fill="#292C33"/>
<path d="M142.649 185.5V161.08L144.24 162.819H136.803V159.6H146.312V185.5H142.649ZM159.896 185.796C158.07 185.796 156.294 185.512 154.568 184.945C152.866 184.378 151.472 183.613 150.387 182.651L152.089 179.728C152.952 180.542 154.074 181.208 155.456 181.726C156.837 182.244 158.317 182.503 159.896 182.503C161.82 182.503 163.312 182.096 164.373 181.282C165.458 180.443 166.001 179.321 166.001 177.915C166.001 176.558 165.483 175.473 164.447 174.659C163.435 173.82 161.82 173.401 159.6 173.401H157.528V170.811L165.224 161.339L165.742 162.819H151.571V159.6H168.665V162.116L161.006 171.551L159.082 170.404H160.303C163.435 170.404 165.779 171.107 167.333 172.513C168.911 173.919 169.701 175.707 169.701 177.878C169.701 179.333 169.343 180.665 168.628 181.874C167.912 183.083 166.827 184.045 165.372 184.76C163.941 185.451 162.116 185.796 159.896 185.796Z" fill="#292C33"/>
<path d="M132.365 244.5V241.984L142.91 231.809C143.847 230.921 144.538 230.144 144.982 229.478C145.451 228.787 145.759 228.158 145.907 227.591C146.08 226.999 146.166 226.432 146.166 225.889C146.166 224.557 145.697 223.509 144.76 222.744C143.823 221.979 142.454 221.597 140.653 221.597C139.272 221.597 138.026 221.831 136.916 222.3C135.806 222.744 134.844 223.447 134.03 224.409L131.514 222.226C132.501 220.968 133.82 220.006 135.473 219.34C137.15 218.649 138.988 218.304 140.986 218.304C142.787 218.304 144.353 218.6 145.685 219.192C147.017 219.759 148.041 220.586 148.756 221.671C149.496 222.756 149.866 224.039 149.866 225.519C149.866 226.358 149.755 227.184 149.533 227.998C149.311 228.812 148.892 229.675 148.275 230.588C147.658 231.501 146.77 232.524 145.611 233.659L136.213 242.724L135.325 241.281H150.976V244.5H132.365ZM164.564 244.796C162.541 244.796 160.728 244.278 159.125 243.242C157.546 242.206 156.288 240.701 155.351 238.728C154.438 236.755 153.982 234.362 153.982 231.55C153.982 228.738 154.438 226.345 155.351 224.372C156.288 222.399 157.546 220.894 159.125 219.858C160.728 218.822 162.541 218.304 164.564 218.304C166.562 218.304 168.363 218.822 169.966 219.858C171.569 220.894 172.827 222.399 173.74 224.372C174.653 226.345 175.109 228.738 175.109 231.55C175.109 234.362 174.653 236.755 173.74 238.728C172.827 240.701 171.569 242.206 169.966 243.242C168.363 244.278 166.562 244.796 164.564 244.796ZM164.564 241.503C165.921 241.503 167.105 241.133 168.116 240.393C169.152 239.653 169.954 238.543 170.521 237.063C171.113 235.583 171.409 233.745 171.409 231.55C171.409 229.355 171.113 227.517 170.521 226.037C169.954 224.557 169.152 223.447 168.116 222.707C167.105 221.967 165.921 221.597 164.564 221.597C163.207 221.597 162.011 221.967 160.975 222.707C159.939 223.447 159.125 224.557 158.533 226.037C157.966 227.517 157.682 229.355 157.682 231.55C157.682 233.745 157.966 235.583 158.533 237.063C159.125 238.543 159.939 239.653 160.975 240.393C162.011 241.133 163.207 241.503 164.564 241.503Z" fill="#292C33"/>
<path d="M133.648 303.5V300.984L144.193 290.809C145.13 289.921 145.821 289.144 146.265 288.478C146.733 287.787 147.042 287.158 147.19 286.591C147.362 285.999 147.449 285.432 147.449 284.889C147.449 283.557 146.98 282.509 146.043 281.744C145.105 280.979 143.736 280.597 141.936 280.597C140.554 280.597 139.309 280.831 138.199 281.3C137.089 281.744 136.127 282.447 135.313 283.409L132.797 281.226C133.783 279.968 135.103 279.006 136.756 278.34C138.433 277.649 140.271 277.304 142.269 277.304C144.069 277.304 145.636 277.6 146.968 278.192C148.3 278.759 149.323 279.586 150.039 280.671C150.779 281.756 151.149 283.039 151.149 284.519C151.149 285.358 151.038 286.184 150.816 286.998C150.594 287.812 150.174 288.675 149.558 289.588C148.941 290.501 148.053 291.524 146.894 292.659L137.496 301.724L136.608 300.281H152.259V303.5H133.648ZM159.742 303.5L170.731 279.154L171.693 280.819H156.301L158.151 279.006V285.444H154.599V277.6H174.135V280.116L163.664 303.5H159.742Z" fill="#292C33"/>
<path d="M205.86 185.5V161.08L207.451 162.819H200.014V159.6H209.523V185.5H205.86ZM214.818 179.136V176.546L228.064 159.6H232.06L218.925 176.546L217.038 175.954H237.721V179.136H214.818ZM229.211 185.5V179.136L229.322 175.954V170.33H232.8V185.5H229.211Z" fill="#292C33"/>
<path d="M202.839 244.5V241.984L213.384 231.809C214.322 230.921 215.012 230.144 215.456 229.478C215.925 228.787 216.233 228.158 216.381 227.591C216.554 226.999 216.64 226.432 216.64 225.889C216.64 224.557 216.172 223.509 215.234 222.744C214.297 221.979 212.928 221.597 211.127 221.597C209.746 221.597 208.5 221.831 207.39 222.3C206.28 222.744 205.318 223.447 204.504 224.409L201.988 222.226C202.975 220.968 204.295 220.006 205.947 219.34C207.625 218.649 209.462 218.304 211.46 218.304C213.261 218.304 214.827 218.6 216.159 219.192C217.491 219.759 218.515 220.586 219.23 221.671C219.97 222.756 220.34 224.039 220.34 225.519C220.34 226.358 220.229 227.184 220.007 227.998C219.785 228.812 219.366 229.675 218.749 230.588C218.133 231.501 217.245 232.524 216.085 233.659L206.687 242.724L205.799 241.281H221.45V244.5H202.839ZM228.858 244.5V220.08L230.449 221.819H223.012V218.6H232.521V244.5H228.858Z" fill="#292C33"/>
<path d="M197.781 303.5V300.984L208.326 290.809C209.263 289.921 209.954 289.144 210.398 288.478C210.866 287.787 211.175 287.158 211.323 286.591C211.495 285.999 211.582 285.432 211.582 284.889C211.582 283.557 211.113 282.509 210.176 281.744C209.238 280.979 207.869 280.597 206.069 280.597C204.687 280.597 203.442 280.831 202.332 281.3C201.222 281.744 200.26 282.447 199.446 283.409L196.93 281.226C197.916 279.968 199.236 279.006 200.889 278.34C202.566 277.649 204.404 277.304 206.402 277.304C208.202 277.304 209.769 277.6 211.101 278.192C212.433 278.759 213.456 279.586 214.172 280.671C214.912 281.756 215.282 283.039 215.282 284.519C215.282 285.358 215.171 286.184 214.949 286.998C214.727 287.812 214.307 288.675 213.691 289.588C213.074 290.501 212.186 291.524 211.027 292.659L201.629 301.724L200.741 300.281H216.392V303.5H197.781ZM229.535 303.796C227.438 303.796 225.625 303.488 224.096 302.871C222.566 302.254 221.382 301.379 220.544 300.244C219.705 299.085 219.286 297.728 219.286 296.174C219.286 294.645 219.68 293.35 220.47 292.289C221.284 291.204 222.455 290.39 223.985 289.847C225.514 289.28 227.364 288.996 229.535 288.996C231.705 288.996 233.555 289.28 235.085 289.847C236.639 290.39 237.823 291.204 238.637 292.289C239.451 293.374 239.858 294.669 239.858 296.174C239.858 297.728 239.438 299.085 238.6 300.244C237.761 301.379 236.565 302.254 235.011 302.871C233.457 303.488 231.631 303.796 229.535 303.796ZM229.535 300.799C231.607 300.799 233.222 300.38 234.382 299.541C235.566 298.678 236.158 297.518 236.158 296.063C236.158 294.632 235.566 293.51 234.382 292.696C233.222 291.857 231.607 291.438 229.535 291.438C227.487 291.438 225.884 291.857 224.725 292.696C223.565 293.51 222.986 294.632 222.986 296.063C222.986 297.518 223.565 298.678 224.725 299.541C225.884 300.38 227.487 300.799 229.535 300.799ZM229.535 290.994C227.561 290.994 225.884 290.735 224.503 290.217C223.121 289.674 222.061 288.91 221.321 287.923C220.581 286.912 220.211 285.715 220.211 284.334C220.211 282.879 220.593 281.633 221.358 280.597C222.147 279.536 223.245 278.722 224.651 278.155C226.057 277.588 227.685 277.304 229.535 277.304C231.409 277.304 233.05 277.588 234.456 278.155C235.862 278.722 236.959 279.536 237.749 280.597C238.538 281.633 238.933 282.879 238.933 284.334C238.933 285.715 238.563 286.912 237.823 287.923C237.083 288.91 236.01 289.674 234.604 290.217C233.198 290.735 231.508 290.994 229.535 290.994ZM229.535 288.626C231.335 288.626 232.741 288.256 233.753 287.516C234.789 286.776 235.307 285.765 235.307 284.482C235.307 283.175 234.776 282.151 233.716 281.411C232.655 280.671 231.261 280.301 229.535 280.301C227.808 280.301 226.427 280.671 225.391 281.411C224.379 282.151 223.874 283.175 223.874 284.482C223.874 285.765 224.367 286.776 225.354 287.516C226.365 288.256 227.759 288.626 229.535 288.626Z" fill="white"/>
<path d="M214.137 126.5L225.126 102.154L226.088 103.819H210.696L212.546 102.006V108.444H208.994V100.6H228.53V103.116L218.059 126.5H214.137Z" fill="#292C33"/>
<path d="M401.18 185.5V161.08L402.771 162.819H395.334V159.6H404.843V185.5H401.18ZM414.985 185.5L425.974 161.154L426.936 162.819H411.544L413.394 161.006V167.444H409.842V159.6H429.378V162.116L418.907 185.5H414.985Z" fill="#292C33"/>
</g>
</g>
</g>
</g>
</g>
<defs>
<clipPath id="clip0_3949_8483">
<rect width="436" height="314" fill="white"/>
</clipPath>
</defs>
</svg>
