<svg width="442" height="317" viewBox="0 0 442 317" fill="none" xmlns="http://www.w3.org/2000/svg">
<g clip-path="url(#clip0_3525_5597)">
<path d="M309.5 212H252.5V259H309.5V212Z" fill="#41A05C" fill-opacity="0.6"/>
<path d="M373.5 212H316.5V259H373.5V212Z" fill="#41A05C" fill-opacity="0.6"/>
<path d="M435.5 212H378.5V259H435.5V212Z" fill="#41A05C" fill-opacity="0.6"/>
<mask id="mask0_3525_5597" style="mask-type:luminance" maskUnits="userSpaceOnUse" x="0" y="0" width="432" height="317">
<path d="M431.5 0H0.5V317H431.5V0Z" fill="white"/>
</mask>
<g mask="url(#mask0_3525_5597)">
<path d="M180.019 270H123.019V317H180.019V270Z" fill="#3C78EC" fill-opacity="0.6"/>
<path d="M23.4564 20.7264H20.8476V3.36139H11.3906V20.7264H8.7002V1.32324H23.3749V20.7264H23.4564Z" fill="#B3B3B3" fill-opacity="0.6"/>
<path d="M39.2725 20.7263H36.6636V14.6118H30.2231V20.7263H27.6143V6.29614H30.2231V12.5737H36.6636V6.29614H39.2725V20.7263Z" fill="#B3B3B3" fill-opacity="0.6"/>
<path d="M73.5 20.7264V1.32324H79.859C81.8972 1.32324 83.4462 1.73087 84.5875 2.62766C85.7289 3.52444 86.2996 4.82886 86.2996 6.5409C86.2996 7.35616 86.055 8.08989 85.5658 8.82363C85.0767 9.55736 84.3429 9.96499 83.5277 10.2911C84.8321 10.4541 85.8104 11.0248 86.5441 11.9216C87.2779 12.8184 87.6855 13.9598 87.6855 15.1826C87.6855 16.9762 87.1148 18.2806 85.9735 19.2589C84.8321 20.2373 83.2831 20.6449 81.245 20.6449H73.5V20.7264ZM76.1904 9.55736H80.4297C81.408 9.55736 82.2233 9.31278 82.794 8.7421C83.4462 8.17142 83.6907 7.43769 83.6907 6.45937C83.6907 5.39954 83.3646 4.6658 82.7124 4.09512C82.0602 3.60597 81.0819 3.27986 79.859 3.27986H76.1904V9.55736ZM76.1904 11.5955V18.6067H81.245C82.4678 18.6067 83.3646 18.2806 84.0168 17.71C84.6691 17.1393 84.9952 16.2425 84.9952 15.1826C84.9952 14.1228 84.6691 13.226 84.0168 12.5738C83.3646 11.9216 82.4678 11.5955 81.245 11.514H81.0819H76.1904V11.5955Z" fill="#B3B3B3" fill-opacity="0.6"/>
<path d="M101.626 8.33429H96.8976V20.7263H94.2888V8.33429H89.5603V6.29614H101.626V8.33429Z" fill="#B3B3B3" fill-opacity="0.6"/>
<path d="M151.012 14.5304C151.093 16.4055 150.441 17.9545 149.137 19.1773C147.832 20.4002 146.12 21.0524 143.919 21.0524C141.718 21.0524 139.924 20.2372 138.538 18.6882C137.152 17.1392 136.5 15.1826 136.5 12.7368V9.31271C136.5 6.94846 137.152 4.91031 138.538 3.36132C139.924 1.81233 141.718 0.99707 143.919 0.99707C146.12 0.99707 147.832 1.56775 149.137 2.70911C150.441 3.85048 151.093 5.39947 151.012 7.35609V7.43762H148.484C148.484 6.05168 148.077 4.99184 147.261 4.17658C146.446 3.36132 145.305 2.95369 143.837 2.95369C142.37 2.95369 141.229 3.52437 140.332 4.74726C139.435 5.88862 139.027 7.35609 139.027 9.14966V12.6553C139.027 14.4488 139.435 15.9163 140.332 17.0577C141.229 18.199 142.37 18.8512 143.837 18.8512C145.305 18.8512 146.446 18.4436 147.261 17.7099C148.077 16.8946 148.484 15.8348 148.484 14.4488H151.012V14.5304Z" fill="#B3B3B3" fill-opacity="0.6"/>
<path d="M166.42 14.0413C166.42 16.161 165.931 17.7915 164.953 19.0959C163.974 20.4003 162.588 20.971 160.795 20.971C159.898 20.971 159.164 20.8079 158.43 20.5634C157.778 20.2373 157.208 19.8296 156.718 19.259V26.2702H154.11V6.29634H156.148L156.555 8.17143C157.045 7.4377 157.615 6.94854 158.349 6.62244C159.083 6.29634 159.898 6.05176 160.795 6.05176C162.588 6.05176 163.974 6.78549 164.953 8.17143C165.931 9.55737 166.42 11.4325 166.42 13.7967V14.0413ZM163.811 13.7967C163.811 12.1662 163.485 10.7803 162.833 9.80195C162.181 8.82364 161.202 8.25296 159.979 8.25296C159.246 8.25296 158.594 8.41601 158.023 8.74211C157.452 9.06822 157.045 9.55737 156.718 10.1281V17.1393C157.045 17.71 157.452 18.1991 158.023 18.5252C158.594 18.8513 159.246 19.0144 159.979 19.0144C161.202 19.0144 162.181 18.5252 162.833 17.6284C163.485 16.7317 163.811 15.5088 163.811 14.1228V13.7967Z" fill="#B3B3B3" fill-opacity="0.6"/>
<path d="M215.93 1.32324V20.7264H213.321V12.6553C212.506 12.8999 211.691 13.063 210.875 13.226C210.06 13.3076 209.163 13.3891 208.022 13.3891C205.902 13.3891 204.272 12.8999 203.131 12.0031C201.989 11.1064 201.5 9.55736 201.5 7.43769V1.32324H204.109V7.43769C204.109 8.90515 204.435 9.88346 205.006 10.4541C205.658 11.0248 206.636 11.2694 207.941 11.2694C208.837 11.2694 209.734 11.1879 210.631 11.1064C211.446 10.9433 212.343 10.7802 213.24 10.5357V1.32324H215.93Z" fill="#B3B3B3" fill-opacity="0.6"/>
<path d="M231.175 8.33429H226.447V20.7263H223.838V8.33429H219.11V6.29614H231.175V8.33429Z" fill="#B3B3B3" fill-opacity="0.6"/>
<path d="M280.175 20.7264H277.566V3.36139H268.109V20.7264H265.5V1.32324H280.175V20.7264Z" fill="#B3B3B3" fill-opacity="0.6"/>
<path d="M295.42 8.33453H290.692V20.7265H288.083V8.33453H283.354V6.29639H295.42V8.33453Z" fill="#B3B3B3" fill-opacity="0.6"/>
<path d="M345.012 14.5301C345.093 16.4052 344.441 17.9542 343.137 19.1771C341.832 20.4 340.12 21.0522 337.919 21.0522C335.718 21.0522 333.924 20.237 332.538 18.688C331.152 17.139 330.5 15.1824 330.5 12.7366V9.31247C330.5 6.94822 331.152 4.91007 332.538 3.36108C333.924 1.81209 335.718 0.996826 337.919 0.996826C340.12 0.996826 341.832 1.56751 343.137 2.70887C344.441 3.85023 345.093 5.39923 345.012 7.35585V7.43737H342.484C342.484 6.05143 342.077 4.9916 341.261 4.17634C340.446 3.36108 339.305 2.95345 337.837 2.95345C336.37 2.95345 335.229 3.52413 334.332 4.74702C333.435 5.88838 333.027 7.35585 333.027 9.14942V12.6551C333.027 14.4486 333.435 15.9161 334.332 17.0574C335.229 18.1988 336.37 18.851 337.837 18.851C339.305 18.851 340.446 18.4434 341.261 17.7097C342.077 16.8944 342.484 15.8346 342.484 14.4486H345.012V14.5301Z" fill="#B3B3B3" fill-opacity="0.6"/>
<path d="M354.387 6.05149C356.262 6.05149 357.648 6.7037 358.708 8.08964C359.768 9.47558 360.338 11.1876 360.338 13.3888V13.7149C360.338 15.8346 359.768 17.6282 358.626 19.0141C357.485 20.4 355.936 21.0523 353.898 21.0523C351.86 21.0523 350.311 20.4 349.169 19.0141C348.028 17.6282 347.457 15.9161 347.457 13.7149V13.3888C347.457 13.3073 347.457 13.2258 347.457 13.2258C347.457 13.1442 347.457 13.1442 347.457 13.0627V9.96473C347.457 7.19285 348.028 5.23623 349.088 3.93182C350.148 2.6274 351.778 1.97519 353.898 1.81214C355.121 1.73062 356.099 1.56756 356.751 1.32299C357.403 1.07841 357.73 0.670779 357.73 0.100098H359.768V0.181624C359.849 1.56756 359.36 2.54587 358.382 3.11656C357.403 3.68724 356.017 4.01334 354.142 4.01334C352.756 4.01334 351.697 4.42097 350.881 5.1547C350.066 5.88844 349.658 6.94827 349.658 8.33421V8.41574C350.148 7.76353 350.881 7.19285 351.697 6.78522C352.512 6.37759 353.49 6.05149 354.387 6.05149ZM353.898 8.08964C352.675 8.08964 351.697 8.57879 351.044 9.5571C350.392 10.5354 350.066 11.8398 350.066 13.3073V13.6334C350.066 15.1824 350.392 16.4053 351.044 17.3836C351.697 18.3619 352.675 18.8511 353.898 18.8511C355.121 18.8511 356.099 18.3619 356.751 17.3836C357.403 16.4053 357.73 15.1009 357.73 13.6334V13.3073C357.73 11.7583 357.403 10.5354 356.751 9.5571C356.099 8.57879 355.121 8.08964 353.898 8.08964Z" fill="#B3B3B3" fill-opacity="0.6"/>
<path d="M394.5 20.7264V1.32324H400.859C402.897 1.32324 404.446 1.73087 405.588 2.62766C406.729 3.52444 407.3 4.82886 407.3 6.5409C407.3 7.35616 407.055 8.08989 406.566 8.82363C406.077 9.55736 405.343 9.96499 404.528 10.3726C405.832 10.5357 406.81 11.1064 407.544 12.0031C408.278 12.8999 408.686 14.0413 408.686 15.2642C408.686 17.0577 408.115 18.3622 406.973 19.3405C405.832 20.3188 404.283 20.7264 402.245 20.7264H394.5ZM397.19 9.55736H401.43C402.408 9.55736 403.223 9.31278 403.794 8.7421C404.446 8.17142 404.691 7.43769 404.691 6.45937C404.691 5.39954 404.365 4.6658 403.712 4.09512C403.06 3.60597 402.082 3.27986 400.859 3.27986H397.19V9.55736ZM397.19 11.5955V18.6067H402.245C403.468 18.6067 404.365 18.2806 405.017 17.71C405.669 17.1393 405.995 16.2425 405.995 15.1826C405.995 14.1228 405.669 13.226 405.017 12.5738C404.365 11.9216 403.468 11.5955 402.245 11.514H402.082H397.19V11.5955Z" fill="#B3B3B3" fill-opacity="0.6"/>
<path d="M417.245 18.9324C418.061 18.9324 418.794 18.6878 419.365 18.1171C419.936 17.5465 420.262 16.8943 420.262 16.1605H422.626V16.242C422.626 17.4649 422.137 18.6063 420.996 19.5846C419.854 20.5629 418.631 21.0521 417.164 21.0521C415.126 21.0521 413.577 20.3999 412.435 19.0139C411.294 17.628 410.805 15.9159 410.805 13.8778V13.3071C410.805 11.269 411.376 9.5569 412.435 8.17096C413.577 6.78502 415.126 6.13281 417.082 6.13281C418.713 6.13281 420.017 6.62197 420.996 7.60028C421.974 8.57859 422.545 9.80148 422.463 11.269V11.3505H420.099C420.099 10.4537 419.773 9.71995 419.202 9.06775C418.631 8.41554 417.898 8.17096 417.001 8.17096C415.696 8.17096 414.8 8.66012 414.147 9.63843C413.577 10.6168 413.251 11.8396 413.251 13.3071V13.8778C413.251 15.3453 413.577 16.5682 414.147 17.5465C415.044 18.4432 415.941 18.9324 417.245 18.9324Z" fill="#B3B3B3" fill-opacity="0.6"/>
<path d="M282.084 62.9781C287.264 63.4591 289.891 66.3821 289.891 70.3781C289.891 74.7441 286.672 78.2961 280.086 78.2961C276.386 78.2961 272.76 77.1121 270.577 75.1511L272.279 72.2281C274.018 73.8561 276.904 75.0031 280.086 75.0031C283.971 75.0031 286.191 73.2271 286.191 70.4151C286.191 67.6771 284.23 65.9011 279.79 65.9011H277.718V63.3111L284.23 55.3191H271.761V52.1001H288.855V54.6161L282.084 62.9781Z" fill="#292C33" fill-opacity="0.6"/>
<path d="M263.119 105.1H272.628V131H268.965V108.319H263.119V105.1ZM288.875 131.296C282.807 131.296 278.293 126.486 278.293 118.05C278.293 109.614 282.807 104.804 288.875 104.804C294.906 104.804 299.42 109.614 299.42 118.05C299.42 126.486 294.906 131.296 288.875 131.296ZM288.875 128.003C292.908 128.003 295.72 124.673 295.72 118.05C295.72 111.427 292.908 108.097 288.875 108.097C284.805 108.097 281.993 111.427 281.993 118.05C281.993 124.673 284.805 128.003 288.875 128.003Z" fill="#292C33" fill-opacity="0.6"/>
<path d="M264.401 164.1H273.91V190H270.247V167.319H264.401V164.1ZM278.91 164.1H298.446V166.616L287.975 190H284.053L294.302 167.319H282.462V171.944H278.91V164.1Z" fill="#292C33" fill-opacity="0.6"/>
<path d="M266.051 245.781H279.334V249H260.723V246.484L271.268 236.309C274.006 233.645 274.524 232.017 274.524 230.389C274.524 227.725 272.637 226.097 269.011 226.097C266.236 226.097 263.979 226.985 262.388 228.909L259.872 226.726C261.87 224.247 265.311 222.804 269.344 222.804C274.746 222.804 278.224 225.579 278.224 230.019C278.224 232.535 277.484 234.792 273.969 238.159L266.051 245.781ZM304.223 239.454V242.636H299.302V249H295.713V242.636H281.32V240.046L294.566 223.1H298.562L285.871 239.454H295.824V233.83H299.302V239.454H304.223Z" fill="white"/>
<path d="M359.489 68.4541V71.6361H354.568V78.0001H350.979V71.6361H336.586V69.0461L349.832 52.1001H353.828L341.137 68.4541H351.09V62.8301H354.568V68.4541H359.489Z" fill="#292C33" fill-opacity="0.6"/>
<path d="M332.111 105.1H341.62V131H337.957V108.319H332.111V105.1ZM345.805 105.1H355.314V131H351.651V108.319H345.805V105.1Z" fill="#292C33" fill-opacity="0.6"/>
<path d="M327.052 164.1H336.561V190H332.898V167.319H327.052V164.1ZM358.063 176.421C361.023 177.568 362.651 179.714 362.651 182.674C362.651 187.373 358.655 190.296 352.328 190.296C346.038 190.296 342.079 187.373 342.079 182.674C342.079 179.714 343.707 177.531 346.63 176.421C344.262 175.311 343.004 173.387 343.004 170.834C343.004 166.505 346.741 163.804 352.328 163.804C357.952 163.804 361.726 166.505 361.726 170.834C361.726 173.387 360.431 175.311 358.063 176.421ZM352.328 166.801C348.85 166.801 346.667 168.392 346.667 170.982C346.667 173.535 348.776 175.126 352.328 175.126C355.917 175.126 358.1 173.535 358.1 170.982C358.1 168.392 355.806 166.801 352.328 166.801ZM352.328 187.299C356.435 187.299 358.951 185.486 358.951 182.563C358.951 179.714 356.435 177.938 352.328 177.938C348.221 177.938 345.779 179.714 345.779 182.563C345.779 185.486 348.221 187.299 352.328 187.299Z" fill="#292C33" fill-opacity="0.6"/>
<path d="M330.96 245.781H344.243V249H325.632V246.484L336.177 236.309C338.915 233.645 339.433 232.017 339.433 230.389C339.433 227.725 337.546 226.097 333.92 226.097C331.145 226.097 328.888 226.985 327.297 228.909L324.781 226.726C326.779 224.247 330.22 222.804 334.253 222.804C339.655 222.804 343.133 225.579 343.133 230.019C343.133 232.535 342.393 234.792 338.878 238.159L330.96 245.781ZM354.685 233.423C362.418 233.423 365.452 236.642 365.452 241.23C365.452 245.707 362.27 249.296 355.647 249.296C351.984 249.296 348.358 248.112 346.138 246.151L347.84 243.228C349.579 244.856 352.465 246.003 355.61 246.003C359.532 246.003 361.752 244.19 361.752 241.378C361.752 238.455 359.902 236.642 353.908 236.642H348.025L349.394 223.1H364.009V226.319H352.502L351.799 233.423H354.685Z" fill="white"/>
<path d="M8.08086 304.781H21.3639V308H2.75286V305.484L13.2979 295.309C16.0359 292.645 16.5539 291.017 16.5539 289.389C16.5539 286.725 14.6669 285.097 11.0409 285.097C8.26586 285.097 6.00886 285.985 4.41786 287.909L1.90186 285.726C3.89986 283.247 7.34086 281.804 11.3739 281.804C16.7759 281.804 20.2539 284.579 20.2539 289.019C20.2539 291.535 19.5139 293.792 15.9989 297.159L8.08086 304.781ZM23.6316 282.1H43.1676V284.616L32.6966 308H28.7746L39.0236 285.319H27.1836V289.944H23.6316V282.1Z" fill="#292C33" fill-opacity="0.6"/>
<path d="M66.8495 308V305.484L77.3945 295.309C78.3318 294.421 79.0225 293.644 79.4665 292.978C79.9351 292.287 80.2435 291.658 80.3915 291.091C80.5641 290.499 80.6505 289.932 80.6505 289.389C80.6505 288.057 80.1818 287.009 79.2445 286.244C78.3071 285.479 76.9381 285.097 75.1375 285.097C73.7561 285.097 72.5105 285.331 71.4005 285.8C70.2905 286.244 69.3285 286.947 68.5145 287.909L65.9985 285.726C66.9851 284.468 68.3048 283.506 69.9575 282.84C71.6348 282.149 73.4725 281.804 75.4705 281.804C77.2711 281.804 78.8375 282.1 80.1695 282.692C81.5015 283.259 82.5251 284.086 83.2405 285.171C83.9805 286.256 84.3505 287.539 84.3505 289.019C84.3505 289.858 84.2395 290.684 84.0175 291.498C83.7955 292.312 83.3761 293.175 82.7595 294.088C82.1428 295.001 81.2548 296.024 80.0955 297.159L70.6975 306.224L69.8095 304.781H85.4605V308H66.8495ZM98.6036 308.296C96.5069 308.296 94.6939 307.988 93.1646 307.371C91.6352 306.754 90.4512 305.879 89.6126 304.744C88.7739 303.585 88.3546 302.228 88.3546 300.674C88.3546 299.145 88.7492 297.85 89.5386 296.789C90.3526 295.704 91.5242 294.89 93.0536 294.347C94.5829 293.78 96.4329 293.496 98.6036 293.496C100.774 293.496 102.624 293.78 104.154 294.347C105.708 294.89 106.892 295.704 107.706 296.789C108.52 297.874 108.927 299.169 108.927 300.674C108.927 302.228 108.507 303.585 107.669 304.744C106.83 305.879 105.634 306.754 104.08 307.371C102.526 307.988 100.7 308.296 98.6036 308.296ZM98.6036 305.299C100.676 305.299 102.291 304.88 103.451 304.041C104.635 303.178 105.227 302.018 105.227 300.563C105.227 299.132 104.635 298.01 103.451 297.196C102.291 296.357 100.676 295.938 98.6036 295.938C96.5562 295.938 94.9529 296.357 93.7936 297.196C92.6342 298.01 92.0546 299.132 92.0546 300.563C92.0546 302.018 92.6342 303.178 93.7936 304.041C94.9529 304.88 96.5562 305.299 98.6036 305.299ZM98.6036 295.494C96.6302 295.494 94.9529 295.235 93.5716 294.717C92.1902 294.174 91.1296 293.41 90.3896 292.423C89.6496 291.412 89.2796 290.215 89.2796 288.834C89.2796 287.379 89.6619 286.133 90.4266 285.097C91.2159 284.036 92.3136 283.222 93.7196 282.655C95.1256 282.088 96.7536 281.804 98.6036 281.804C100.478 281.804 102.119 282.088 103.525 282.655C104.931 283.222 106.028 284.036 106.818 285.097C107.607 286.133 108.002 287.379 108.002 288.834C108.002 290.215 107.632 291.412 106.892 292.423C106.152 293.41 105.079 294.174 103.673 294.717C102.267 295.235 100.577 295.494 98.6036 295.494ZM98.6036 293.126C100.404 293.126 101.81 292.756 102.822 292.016C103.858 291.276 104.376 290.265 104.376 288.982C104.376 287.675 103.845 286.651 102.785 285.911C101.724 285.171 100.33 284.801 98.6036 284.801C96.8769 284.801 95.4956 285.171 94.4596 285.911C93.4482 286.651 92.9426 287.675 92.9426 288.982C92.9426 290.265 93.4359 291.276 94.4226 292.016C95.4339 292.756 96.8276 293.126 98.6036 293.126Z" fill="#292C33" fill-opacity="0.6"/>
<path d="M131.837 308V305.484L142.382 295.309C143.32 294.421 144.01 293.644 144.454 292.978C144.923 292.287 145.231 291.658 145.379 291.091C145.552 290.499 145.638 289.932 145.638 289.389C145.638 288.057 145.17 287.009 144.232 286.244C143.295 285.479 141.926 285.097 140.125 285.097C138.744 285.097 137.498 285.331 136.388 285.8C135.278 286.244 134.316 286.947 133.502 287.909L130.986 285.726C131.973 284.468 133.293 283.506 134.945 282.84C136.623 282.149 138.46 281.804 140.458 281.804C142.259 281.804 143.825 282.1 145.157 282.692C146.489 283.259 147.513 284.086 148.228 285.171C148.968 286.256 149.338 287.539 149.338 289.019C149.338 289.858 149.227 290.684 149.005 291.498C148.783 292.312 148.364 293.175 147.747 294.088C147.131 295.001 146.243 296.024 145.083 297.159L135.685 306.224L134.797 304.781H150.448V308H131.837ZM161.889 281.804C164.233 281.804 166.206 282.31 167.809 283.321C169.437 284.332 170.671 285.8 171.509 287.724C172.348 289.623 172.767 291.954 172.767 294.717C172.767 297.652 172.249 300.131 171.213 302.154C170.177 304.177 168.747 305.706 166.921 306.742C165.096 307.778 162.962 308.296 160.52 308.296C159.312 308.296 158.14 308.173 157.005 307.926C155.895 307.679 154.921 307.297 154.082 306.779L155.488 303.893C156.179 304.337 156.944 304.658 157.782 304.855C158.646 305.028 159.546 305.114 160.483 305.114C163.098 305.114 165.182 304.3 166.736 302.672C168.29 301.019 169.067 298.577 169.067 295.346C169.067 294.828 169.043 294.211 168.993 293.496C168.944 292.781 168.833 292.078 168.66 291.387L169.881 292.645C169.536 293.78 168.956 294.742 168.142 295.531C167.353 296.296 166.391 296.875 165.256 297.27C164.146 297.64 162.925 297.825 161.593 297.825C159.891 297.825 158.374 297.504 157.042 296.863C155.71 296.222 154.662 295.321 153.897 294.162C153.133 292.978 152.75 291.584 152.75 289.981C152.75 288.304 153.145 286.861 153.934 285.652C154.748 284.419 155.846 283.469 157.227 282.803C158.633 282.137 160.187 281.804 161.889 281.804ZM162.037 284.801C160.927 284.801 159.941 285.011 159.077 285.43C158.214 285.849 157.536 286.429 157.042 287.169C156.574 287.909 156.339 288.797 156.339 289.833C156.339 291.362 156.87 292.583 157.93 293.496C158.991 294.384 160.422 294.828 162.222 294.828C163.406 294.828 164.442 294.606 165.33 294.162C166.243 293.718 166.946 293.114 167.439 292.349C167.957 291.584 168.216 290.733 168.216 289.796C168.216 288.883 167.982 288.057 167.513 287.317C167.045 286.577 166.354 285.973 165.441 285.504C164.529 285.035 163.394 284.801 162.037 284.801Z" fill="white"/>
<path d="M205.775 292.978C210.955 293.459 213.582 296.382 213.582 300.378C213.582 304.744 210.363 308.296 203.777 308.296C200.077 308.296 196.451 307.112 194.268 305.151L195.97 302.228C197.709 303.856 200.595 305.003 203.777 305.003C207.662 305.003 209.882 303.227 209.882 300.415C209.882 297.677 207.921 295.901 203.481 295.901H201.409V293.311L207.921 285.319H195.452V282.1H212.546V284.616L205.775 292.978ZM227.615 308.296C221.547 308.296 217.033 303.486 217.033 295.05C217.033 286.614 221.547 281.804 227.615 281.804C233.646 281.804 238.16 286.614 238.16 295.05C238.16 303.486 233.646 308.296 227.615 308.296ZM227.615 305.003C231.648 305.003 234.46 301.673 234.46 295.05C234.46 288.427 231.648 285.097 227.615 285.097C223.545 285.097 220.733 288.427 220.733 295.05C220.733 301.673 223.545 305.003 227.615 305.003Z" fill="#292C33" fill-opacity="0.6"/>
<path d="M408.156 62.4231C415.889 62.4231 418.923 65.6421 418.923 70.2301C418.923 74.7071 415.741 78.2961 409.118 78.2961C405.455 78.2961 401.829 77.1121 399.609 75.1511L401.311 72.2281C403.05 73.8561 405.936 75.0031 409.081 75.0031C413.003 75.0031 415.223 73.1901 415.223 70.3781C415.223 67.4551 413.373 65.6421 407.379 65.6421H401.496L402.865 52.1001H417.48V55.3191H405.973L405.27 62.4231H408.156Z" fill="#292C33" fill-opacity="0.6"/>
<path d="M391.335 105.1H400.844V131H397.181V108.319H391.335V105.1ZM411.43 127.781H424.713V131H406.102V128.484L416.647 118.309C419.385 115.645 419.903 114.017 419.903 112.389C419.903 109.725 418.016 108.097 414.39 108.097C411.615 108.097 409.358 108.985 407.767 110.909L405.251 108.726C407.249 106.247 410.69 104.804 414.723 104.804C420.125 104.804 423.603 107.579 423.603 112.019C423.603 114.535 422.863 116.792 419.348 120.159L411.43 127.781Z" fill="#292C33" fill-opacity="0.6"/>
<path d="M396.386 190V165.58L397.977 167.319H390.54V164.1H400.049V190H396.386ZM414.113 163.804C416.457 163.804 418.43 164.31 420.033 165.321C421.661 166.332 422.895 167.8 423.733 169.724C424.572 171.623 424.991 173.954 424.991 176.717C424.991 179.652 424.473 182.131 423.437 184.154C422.401 186.177 420.971 187.706 419.145 188.742C417.32 189.778 415.186 190.296 412.744 190.296C411.536 190.296 410.364 190.173 409.229 189.926C408.119 189.679 407.145 189.297 406.306 188.779L407.712 185.893C408.403 186.337 409.168 186.658 410.006 186.855C410.87 187.028 411.77 187.114 412.707 187.114C415.322 187.114 417.406 186.3 418.96 184.672C420.514 183.019 421.291 180.577 421.291 177.346C421.291 176.828 421.267 176.211 421.217 175.496C421.168 174.781 421.057 174.078 420.884 173.387L422.105 174.645C421.76 175.78 421.18 176.742 420.366 177.531C419.577 178.296 418.615 178.875 417.48 179.27C416.37 179.64 415.149 179.825 413.817 179.825C412.115 179.825 410.598 179.504 409.266 178.863C407.934 178.222 406.886 177.321 406.121 176.162C405.357 174.978 404.974 173.584 404.974 171.981C404.974 170.304 405.369 168.861 406.158 167.652C406.972 166.419 408.07 165.469 409.451 164.803C410.857 164.137 412.411 163.804 414.113 163.804ZM414.261 166.801C413.151 166.801 412.165 167.011 411.301 167.43C410.438 167.849 409.76 168.429 409.266 169.169C408.798 169.909 408.563 170.797 408.563 171.833C408.563 173.362 409.094 174.583 410.154 175.496C411.215 176.384 412.646 176.828 414.446 176.828C415.63 176.828 416.666 176.606 417.554 176.162C418.467 175.718 419.17 175.114 419.663 174.349C420.181 173.584 420.44 172.733 420.44 171.796C420.44 170.883 420.206 170.057 419.737 169.317C419.269 168.577 418.578 167.973 417.665 167.504C416.753 167.035 415.618 166.801 414.261 166.801Z" fill="#292C33" fill-opacity="0.6"/>
<path d="M387.855 249V246.484L398.4 236.309C399.338 235.421 400.028 234.644 400.472 233.978C400.941 233.287 401.249 232.658 401.397 232.091C401.57 231.499 401.656 230.932 401.656 230.389C401.656 229.057 401.188 228.009 400.25 227.244C399.313 226.479 397.944 226.097 396.143 226.097C394.762 226.097 393.516 226.331 392.406 226.8C391.296 227.244 390.334 227.947 389.52 228.909L387.004 226.726C387.991 225.468 389.311 224.506 390.963 223.84C392.641 223.149 394.478 222.804 396.476 222.804C398.277 222.804 399.843 223.1 401.175 223.692C402.507 224.259 403.531 225.086 404.246 226.171C404.986 227.256 405.356 228.539 405.356 230.019C405.356 230.858 405.245 231.684 405.023 232.498C404.801 233.312 404.382 234.175 403.765 235.088C403.149 236.001 402.261 237.024 401.101 238.159L391.703 247.224L390.815 245.781H406.466V249H387.855ZM420.35 249.296C418.056 249.296 416.095 248.79 414.467 247.779C412.839 246.768 411.594 245.312 410.73 243.413C409.892 241.489 409.472 239.146 409.472 236.383C409.472 233.448 409.99 230.969 411.026 228.946C412.062 226.923 413.505 225.394 415.355 224.358C417.205 223.322 419.327 222.804 421.719 222.804C422.953 222.804 424.124 222.927 425.234 223.174C426.369 223.421 427.343 223.803 428.157 224.321L426.751 227.207C426.085 226.738 425.321 226.418 424.457 226.245C423.619 226.072 422.731 225.986 421.793 225.986C419.154 225.986 417.057 226.812 415.503 228.465C413.949 230.093 413.172 232.523 413.172 235.754C413.172 236.272 413.197 236.889 413.246 237.604C413.296 238.319 413.419 239.022 413.616 239.713L412.358 238.455C412.728 237.32 413.308 236.371 414.097 235.606C414.911 234.817 415.873 234.237 416.983 233.867C418.118 233.472 419.339 233.275 420.646 233.275C422.373 233.275 423.902 233.596 425.234 234.237C426.566 234.878 427.615 235.791 428.379 236.975C429.144 238.134 429.526 239.516 429.526 241.119C429.526 242.772 429.119 244.215 428.305 245.448C427.491 246.681 426.394 247.631 425.012 248.297C423.631 248.963 422.077 249.296 420.35 249.296ZM420.202 246.299C421.337 246.299 422.324 246.089 423.162 245.67C424.026 245.251 424.704 244.671 425.197 243.931C425.691 243.166 425.937 242.278 425.937 241.267C425.937 239.738 425.407 238.529 424.346 237.641C423.286 236.728 421.843 236.272 420.017 236.272C418.833 236.272 417.797 236.494 416.909 236.938C416.021 237.382 415.318 237.986 414.8 238.751C414.307 239.491 414.06 240.342 414.06 241.304C414.06 242.192 414.295 243.018 414.763 243.783C415.232 244.523 415.923 245.127 416.835 245.596C417.748 246.065 418.87 246.299 420.202 246.299Z" fill="white"/>
<path d="M24.5414 115.275C29.6844 115.275 33.4214 118.346 33.4214 123.119C33.4214 128.114 29.3884 131.296 24.2454 131.296C17.2894 131.296 13.3674 126.634 13.3674 118.383C13.3674 109.54 18.3624 104.804 25.6144 104.804C28.0564 104.804 30.3874 105.285 32.0524 106.321L30.6464 109.207C29.3144 108.319 27.5384 107.986 25.6884 107.986C20.4344 107.986 17.0674 111.279 17.0674 117.754C17.0674 118.05 17.0674 118.346 17.1044 118.679C18.5844 116.459 21.3224 115.275 24.5414 115.275ZM24.0974 128.299C27.4644 128.299 29.8324 126.338 29.8324 123.267C29.8324 120.233 27.5384 118.272 23.9124 118.272C20.3974 118.272 17.9554 120.455 17.9554 123.304C17.9554 125.968 20.1014 128.299 24.0974 128.299Z" fill="#292C33" fill-opacity="0.6"/>
<path d="M5.87134 164.1H15.3803V190H11.7173V167.319H5.87134V164.1ZM30.9616 174.978C36.1416 175.459 38.7686 178.382 38.7686 182.378C38.7686 186.744 35.5496 190.296 28.9636 190.296C25.2636 190.296 21.6376 189.112 19.4546 187.151L21.1566 184.228C22.8956 185.856 25.7816 187.003 28.9636 187.003C32.8486 187.003 35.0686 185.227 35.0686 182.415C35.0686 179.677 33.1076 177.901 28.6676 177.901H26.5956V175.311L33.1076 167.319H20.6386V164.1H37.7326V166.616L30.9616 174.978Z" fill="#292C33" fill-opacity="0.6"/>
<path d="M6.79814 245.781H20.0812V249H1.47014V246.484L12.0152 236.309C14.7532 233.645 15.2712 232.017 15.2712 230.389C15.2712 227.725 13.3842 226.097 9.75814 226.097C6.98314 226.097 4.72614 226.985 3.13514 228.909L0.619141 226.726C2.61714 224.247 6.05814 222.804 10.0911 222.804C15.4932 222.804 18.9712 225.579 18.9712 230.019C18.9712 232.535 18.2312 234.792 14.7162 238.159L6.79814 245.781ZM33.5969 249.296C27.5289 249.296 23.0149 244.486 23.0149 236.05C23.0149 227.614 27.5289 222.804 33.5969 222.804C39.6279 222.804 44.1419 227.614 44.1419 236.05C44.1419 244.486 39.6279 249.296 33.5969 249.296ZM33.5969 246.003C37.6299 246.003 40.4419 242.673 40.4419 236.05C40.4419 229.427 37.6299 226.097 33.5969 226.097C29.5269 226.097 26.7149 229.427 26.7149 236.05C26.7149 242.673 29.5269 246.003 33.5969 246.003Z" fill="#292C33" fill-opacity="0.6"/>
<path d="M78.0627 105.1H97.5987V107.616L87.1277 131H83.2057L93.4547 108.319H81.6147V112.944H78.0627V105.1Z" fill="#292C33" fill-opacity="0.6"/>
<path d="M69.0828 164.1H78.5918V190H74.9288V167.319H69.0828V164.1ZM106.79 180.454V183.636H101.869V190H98.2802V183.636H83.8872V181.046L97.1332 164.1H101.129L88.4382 180.454H98.3912V174.83H101.869V180.454H106.79Z" fill="#292C33" fill-opacity="0.6"/>
<path d="M77.2361 245.781H90.5191V249H71.9081V246.484L82.4531 236.309C85.1911 233.645 85.7091 232.017 85.7091 230.389C85.7091 227.725 83.8221 226.097 80.1961 226.097C77.4211 226.097 75.1641 226.985 73.5731 228.909L71.0571 226.726C73.0551 224.247 76.4961 222.804 80.5291 222.804C85.9311 222.804 89.4091 225.579 89.4091 230.019C89.4091 232.535 88.6691 234.792 85.1541 238.159L77.2361 245.781ZM92.0812 223.1H101.59V249H97.9272V226.319H92.0812V223.1Z" fill="#292C33" fill-opacity="0.6"/>
<path d="M145.763 53.1001H155.272V79.0001H151.609V56.3191H145.763V53.1001Z" fill="#292C33" fill-opacity="0.6"/>
<path d="M158.216 117.421C161.176 118.568 162.804 120.714 162.804 123.674C162.804 128.373 158.808 131.296 152.481 131.296C146.191 131.296 142.232 128.373 142.232 123.674C142.232 120.714 143.86 118.531 146.783 117.421C144.415 116.311 143.157 114.387 143.157 111.834C143.157 107.505 146.894 104.804 152.481 104.804C158.105 104.804 161.879 107.505 161.879 111.834C161.879 114.387 160.584 116.311 158.216 117.421ZM152.481 107.801C149.003 107.801 146.82 109.392 146.82 111.982C146.82 114.535 148.929 116.126 152.481 116.126C156.07 116.126 158.253 114.535 158.253 111.982C158.253 109.392 155.959 107.801 152.481 107.801ZM152.481 128.299C156.588 128.299 159.104 126.486 159.104 123.563C159.104 120.714 156.588 118.938 152.481 118.938C148.374 118.938 145.932 120.714 145.932 123.563C145.932 126.486 148.374 128.299 152.481 128.299Z" fill="#292C33" fill-opacity="0.6"/>
<path d="M135.335 164.1H144.844V190H141.181V167.319H135.335V164.1ZM157.909 174.423C165.642 174.423 168.676 177.642 168.676 182.23C168.676 186.707 165.494 190.296 158.871 190.296C155.208 190.296 151.582 189.112 149.362 187.151L151.064 184.228C152.803 185.856 155.689 187.003 158.834 187.003C162.756 187.003 164.976 185.19 164.976 182.378C164.976 179.455 163.126 177.642 157.132 177.642H151.249L152.618 164.1H167.233V167.319H155.726L155.023 174.423H157.909Z" fill="#292C33" fill-opacity="0.6"/>
<path d="M137.96 245.781H151.243V249H132.632V246.484L143.177 236.309C145.915 233.645 146.433 232.017 146.433 230.389C146.433 227.725 144.546 226.097 140.92 226.097C138.145 226.097 135.888 226.985 134.297 228.909L131.781 226.726C133.779 224.247 137.22 222.804 141.253 222.804C146.655 222.804 150.133 225.579 150.133 230.019C150.133 232.535 149.393 234.792 145.878 238.159L137.96 245.781ZM159.206 245.781H172.489V249H153.878V246.484L164.423 236.309C167.161 233.645 167.679 232.017 167.679 230.389C167.679 227.725 165.792 226.097 162.166 226.097C159.391 226.097 157.134 226.985 155.543 228.909L153.027 226.726C155.025 224.247 158.466 222.804 162.499 222.804C167.901 222.804 171.379 225.579 171.379 230.019C171.379 232.535 170.639 234.792 167.124 238.159L159.206 245.781Z" fill="#292C33" fill-opacity="0.6"/>
<path d="M215.766 104.804C222.722 104.804 226.644 109.466 226.644 117.717C226.644 126.56 221.649 131.296 214.397 131.296C211.955 131.296 209.624 130.815 207.959 129.779L209.365 126.893C210.734 127.781 212.473 128.114 214.36 128.114C219.614 128.114 222.944 124.821 222.944 118.346V117.421C221.427 119.678 218.689 120.825 215.47 120.825C210.327 120.825 206.627 117.754 206.627 112.981C206.627 107.986 210.623 104.804 215.766 104.804ZM216.099 117.828C219.651 117.828 222.093 115.645 222.093 112.796C222.093 110.132 219.947 107.801 215.914 107.801C212.547 107.801 210.216 109.762 210.216 112.833C210.216 115.867 212.473 117.828 216.099 117.828Z" fill="#292C33" fill-opacity="0.6"/>
<path d="M199.04 164.1H208.549V190H204.886V167.319H199.04V164.1ZM225.388 174.275C230.531 174.275 234.268 177.346 234.268 182.119C234.268 187.114 230.235 190.296 225.092 190.296C218.136 190.296 214.214 185.634 214.214 177.383C214.214 168.54 219.209 163.804 226.461 163.804C228.903 163.804 231.234 164.285 232.899 165.321L231.493 168.207C230.161 167.319 228.385 166.986 226.535 166.986C221.281 166.986 217.914 170.279 217.914 176.754C217.914 177.05 217.914 177.346 217.951 177.679C219.431 175.459 222.169 174.275 225.388 174.275ZM224.944 187.299C228.311 187.299 230.679 185.338 230.679 182.267C230.679 179.233 228.385 177.272 224.759 177.272C221.244 177.272 218.802 179.455 218.802 182.304C218.802 184.968 220.948 187.299 224.944 187.299Z" fill="#292C33" fill-opacity="0.6"/>
<path d="M202.496 245.781H215.779V249H197.168V246.484L207.713 236.309C210.451 233.645 210.969 232.017 210.969 230.389C210.969 227.725 209.082 226.097 205.456 226.097C202.681 226.097 200.424 226.985 198.833 228.909L196.317 226.726C198.315 224.247 201.756 222.804 205.789 222.804C211.191 222.804 214.669 225.579 214.669 230.019C214.669 232.535 213.929 234.792 210.414 238.159L202.496 245.781ZM228.737 233.978C233.917 234.459 236.544 237.382 236.544 241.378C236.544 245.744 233.325 249.296 226.739 249.296C223.039 249.296 219.413 248.112 217.23 246.151L218.932 243.228C220.671 244.856 223.557 246.003 226.739 246.003C230.624 246.003 232.844 244.227 232.844 241.415C232.844 238.677 230.883 236.901 226.443 236.901H224.371V234.311L230.883 226.319H218.414V223.1H235.508V225.616L228.737 233.978Z" fill="#292C33" fill-opacity="0.6"/>
<path d="M214.333 75.781H227.616V79H209.005V76.484L219.55 66.309C222.288 63.645 222.806 62.017 222.806 60.389C222.806 57.725 220.919 56.097 217.293 56.097C214.518 56.097 212.261 56.985 210.67 58.909L208.154 56.726C210.152 54.247 213.593 52.804 217.626 52.804C223.028 52.804 226.506 55.579 226.506 60.019C226.506 62.535 225.766 64.792 222.251 68.159L214.333 75.781Z" fill="#292C33" fill-opacity="0.6"/>
</g>
</g>
<defs>
<clipPath id="clip0_3525_5597">
<rect width="441" height="317" fill="white" transform="translate(0.5)"/>
</clipPath>
</defs>
</svg>
