<svg width="431" height="313" viewBox="0 0 431 313" fill="none" xmlns="http://www.w3.org/2000/svg">
<g clip-path="url(#clip0_532_3149)">
<rect width="57" height="47" transform="translate(126.19 266)" fill="#3C78EC"/>
<path d="M22.9564 20.7264H20.3476V3.36139H10.8906V20.7264H8.2002V1.32324H22.8749V20.7264H22.9564Z" fill="#B3B3B3"/>
<path d="M38.7725 20.7264H36.1636V14.6119H29.7231V20.7264H27.1143V6.29626H29.7231V12.5738H36.1636V6.29626H38.7725V20.7264Z" fill="#B3B3B3"/>
<path d="M73 20.7264V1.32324H79.359C81.3972 1.32324 82.9462 1.73087 84.0875 2.62766C85.2289 3.52444 85.7996 4.82886 85.7996 6.5409C85.7996 7.35616 85.555 8.08989 85.0658 8.82363C84.5767 9.55736 83.8429 9.96499 83.0277 10.2911C84.3321 10.4541 85.3104 11.0248 86.0441 11.9216C86.7779 12.8184 87.1855 13.9598 87.1855 15.1826C87.1855 16.9762 86.6148 18.2806 85.4735 19.2589C84.3321 20.2373 82.7831 20.6449 80.745 20.6449H73V20.7264ZM75.6904 9.55736H79.9297C80.908 9.55736 81.7233 9.31278 82.294 8.7421C82.9462 8.17142 83.1907 7.43769 83.1907 6.45937C83.1907 5.39954 82.8646 4.6658 82.2124 4.09512C81.5602 3.60597 80.5819 3.27986 79.359 3.27986H75.6904V9.55736ZM75.6904 11.5955V18.6067H80.745C81.9678 18.6067 82.8646 18.2806 83.5168 17.71C84.1691 17.1393 84.4952 16.2425 84.4952 15.1826C84.4952 14.1228 84.1691 13.226 83.5168 12.5738C82.8646 11.9216 81.9678 11.5955 80.745 11.514H80.5819H75.6904V11.5955Z" fill="#B3B3B3"/>
<path d="M101.126 8.33441H96.3976V20.7264H93.7888V8.33441H89.0603V6.29626H101.126V8.33441Z" fill="#B3B3B3"/>
<path d="M150.512 14.5304C150.593 16.4055 149.941 17.9545 148.637 19.1773C147.332 20.4002 145.62 21.0524 143.419 21.0524C141.218 21.0524 139.424 20.2372 138.038 18.6882C136.652 17.1392 136 15.1826 136 12.7368V9.31271C136 6.94846 136.652 4.91031 138.038 3.36132C139.424 1.81233 141.218 0.99707 143.419 0.99707C145.62 0.99707 147.332 1.56775 148.637 2.70911C149.941 3.85048 150.593 5.39947 150.512 7.35609V7.43762H147.984C147.984 6.05168 147.577 4.99184 146.761 4.17658C145.946 3.36132 144.805 2.95369 143.337 2.95369C141.87 2.95369 140.729 3.52437 139.832 4.74726C138.935 5.88862 138.527 7.35609 138.527 9.14966V12.6553C138.527 14.4488 138.935 15.9163 139.832 17.0577C140.729 18.199 141.87 18.8512 143.337 18.8512C144.805 18.8512 145.946 18.4436 146.761 17.7099C147.577 16.8946 147.984 15.8348 147.984 14.4488H150.512V14.5304Z" fill="#B3B3B3"/>
<path d="M165.92 14.0413C165.92 16.161 165.431 17.7915 164.453 19.0959C163.474 20.4003 162.088 20.971 160.295 20.971C159.398 20.971 158.664 20.8079 157.93 20.5634C157.278 20.2373 156.708 19.8296 156.218 19.259V26.2702H153.61V6.29634H155.648L156.055 8.17143C156.545 7.4377 157.115 6.94854 157.849 6.62244C158.583 6.29634 159.398 6.05176 160.295 6.05176C162.088 6.05176 163.474 6.78549 164.453 8.17143C165.431 9.55737 165.92 11.4325 165.92 13.7967V14.0413ZM163.311 13.7967C163.311 12.1662 162.985 10.7803 162.333 9.80195C161.681 8.82364 160.702 8.25296 159.479 8.25296C158.746 8.25296 158.094 8.41601 157.523 8.74211C156.952 9.06822 156.545 9.55737 156.218 10.1281V17.1393C156.545 17.71 156.952 18.1991 157.523 18.5252C158.094 18.8513 158.746 19.0144 159.479 19.0144C160.702 19.0144 161.681 18.5252 162.333 17.6284C162.985 16.7317 163.311 15.5088 163.311 14.1228V13.7967Z" fill="#B3B3B3"/>
<path d="M215.43 1.32324V20.7264H212.821V12.6553C212.006 12.8999 211.191 13.063 210.375 13.226C209.56 13.3076 208.663 13.3891 207.522 13.3891C205.402 13.3891 203.772 12.8999 202.631 12.0031C201.489 11.1064 201 9.55736 201 7.43769V1.32324H203.609V7.43769C203.609 8.90515 203.935 9.88346 204.506 10.4541C205.158 11.0248 206.136 11.2694 207.441 11.2694C208.337 11.2694 209.234 11.1879 210.131 11.1064C210.946 10.9433 211.843 10.7802 212.74 10.5357V1.32324H215.43Z" fill="#B3B3B3"/>
<path d="M230.675 8.33441H225.947V20.7264H223.338V8.33441H218.61V6.29626H230.675V8.33441Z" fill="#B3B3B3"/>
<path d="M279.675 20.7264H277.066V3.36139H267.609V20.7264H265V1.32324H279.675V20.7264Z" fill="#B3B3B3"/>
<path d="M294.92 8.33453H290.192V20.7265H287.583V8.33453H282.854V6.29639H294.92V8.33453Z" fill="#B3B3B3"/>
<path d="M344.512 14.5302C344.593 16.4053 343.941 17.9543 342.637 19.1772C341.332 20.4001 339.62 21.0523 337.419 21.0523C335.218 21.0523 333.424 20.237 332.038 18.688C330.652 17.139 330 15.1824 330 12.7366V9.31253C330 6.94828 330.652 4.91013 332.038 3.36114C333.424 1.81215 335.218 0.996887 337.419 0.996887C339.62 0.996887 341.332 1.56757 342.637 2.70893C343.941 3.85029 344.593 5.39929 344.512 7.35591V7.43743H341.984C341.984 6.05149 341.577 4.99166 340.761 4.1764C339.946 3.36114 338.805 2.95351 337.337 2.95351C335.87 2.95351 334.729 3.52419 333.832 4.74708C332.935 5.88844 332.527 7.35591 332.527 9.14948V12.6551C332.527 14.4487 332.935 15.9161 333.832 17.0575C334.729 18.1989 335.87 18.8511 337.337 18.8511C338.805 18.8511 339.946 18.4434 340.761 17.7097C341.577 16.8944 341.984 15.8346 341.984 14.4487H344.512V14.5302Z" fill="#B3B3B3"/>
<path d="M353.887 6.05149C355.762 6.05149 357.148 6.7037 358.208 8.08964C359.268 9.47558 359.838 11.1876 359.838 13.3888V13.7149C359.838 15.8346 359.268 17.6282 358.126 19.0141C356.985 20.4 355.436 21.0523 353.398 21.0523C351.36 21.0523 349.811 20.4 348.669 19.0141C347.528 17.6282 346.957 15.9161 346.957 13.7149V13.3888C346.957 13.3073 346.957 13.2258 346.957 13.2258C346.957 13.1442 346.957 13.1442 346.957 13.0627V9.96473C346.957 7.19285 347.528 5.23623 348.588 3.93182C349.648 2.6274 351.278 1.97519 353.398 1.81214C354.621 1.73062 355.599 1.56756 356.251 1.32299C356.903 1.07841 357.23 0.670779 357.23 0.100098H359.268V0.181624C359.349 1.56756 358.86 2.54587 357.882 3.11656C356.903 3.68724 355.517 4.01334 353.642 4.01334C352.256 4.01334 351.197 4.42097 350.381 5.1547C349.566 5.88844 349.158 6.94827 349.158 8.33421V8.41574C349.648 7.76353 350.381 7.19285 351.197 6.78522C352.012 6.37759 352.99 6.05149 353.887 6.05149ZM353.398 8.08964C352.175 8.08964 351.197 8.57879 350.544 9.5571C349.892 10.5354 349.566 11.8398 349.566 13.3073V13.6334C349.566 15.1824 349.892 16.4053 350.544 17.3836C351.197 18.3619 352.175 18.8511 353.398 18.8511C354.621 18.8511 355.599 18.3619 356.251 17.3836C356.903 16.4053 357.23 15.1009 357.23 13.6334V13.3073C357.23 11.7583 356.903 10.5354 356.251 9.5571C355.599 8.57879 354.621 8.08964 353.398 8.08964Z" fill="#B3B3B3"/>
<path d="M394 20.7264V1.32324H400.359C402.397 1.32324 403.946 1.73087 405.088 2.62766C406.229 3.52444 406.8 4.82886 406.8 6.5409C406.8 7.35616 406.555 8.08989 406.066 8.82363C405.577 9.55736 404.843 9.96499 404.028 10.3726C405.332 10.5357 406.31 11.1064 407.044 12.0031C407.778 12.8999 408.186 14.0413 408.186 15.2642C408.186 17.0577 407.615 18.3622 406.473 19.3405C405.332 20.3188 403.783 20.7264 401.745 20.7264H394ZM396.69 9.55736H400.93C401.908 9.55736 402.723 9.31278 403.294 8.7421C403.946 8.17142 404.191 7.43769 404.191 6.45937C404.191 5.39954 403.865 4.6658 403.212 4.09512C402.56 3.60597 401.582 3.27986 400.359 3.27986H396.69V9.55736ZM396.69 11.5955V18.6067H401.745C402.968 18.6067 403.865 18.2806 404.517 17.71C405.169 17.1393 405.495 16.2425 405.495 15.1826C405.495 14.1228 405.169 13.226 404.517 12.5738C403.865 11.9216 402.968 11.5955 401.745 11.514H401.582H396.69V11.5955Z" fill="#B3B3B3"/>
<path d="M416.745 18.9326C417.561 18.9326 418.294 18.688 418.865 18.1173C419.436 17.5466 419.762 16.8944 419.762 16.1607H422.126V16.2422C422.126 17.4651 421.637 18.6065 420.496 19.5848C419.354 20.5631 418.131 21.0522 416.664 21.0522C414.626 21.0522 413.077 20.4 411.935 19.0141C410.794 17.6281 410.305 15.9161 410.305 13.878V13.3073C410.305 11.2691 410.876 9.55708 411.935 8.17114C413.077 6.7852 414.626 6.133 416.582 6.133C418.213 6.133 419.517 6.62215 420.496 7.60046C421.474 8.57877 422.045 9.80166 421.963 11.2691V11.3507H419.599C419.599 10.4539 419.273 9.72014 418.702 9.06793C418.131 8.41572 417.398 8.17114 416.501 8.17114C415.196 8.17114 414.3 8.6603 413.647 9.63861C413.077 10.6169 412.751 11.8398 412.751 13.3073V13.878C412.751 15.3454 413.077 16.5683 413.647 17.5466C414.544 18.4434 415.441 18.9326 416.745 18.9326Z" fill="#B3B3B3"/>
<path d="M279.971 130.296C277.875 130.296 276.062 129.988 274.532 129.371C273.003 128.754 271.819 127.879 270.98 126.744C270.142 125.585 269.722 124.228 269.722 122.674C269.722 121.145 270.117 119.85 270.906 118.789C271.72 117.704 272.892 116.89 274.421 116.347C275.951 115.78 277.801 115.496 279.971 115.496C282.142 115.496 283.992 115.78 285.521 116.347C287.075 116.89 288.259 117.704 289.073 118.789C289.887 119.874 290.294 121.169 290.294 122.674C290.294 124.228 289.875 125.585 289.036 126.744C288.198 127.879 287.001 128.754 285.447 129.371C283.893 129.988 282.068 130.296 279.971 130.296ZM279.971 127.299C282.043 127.299 283.659 126.88 284.818 126.041C286.002 125.178 286.594 124.018 286.594 122.563C286.594 121.132 286.002 120.01 284.818 119.196C283.659 118.357 282.043 117.938 279.971 117.938C277.924 117.938 276.321 118.357 275.161 119.196C274.002 120.01 273.422 121.132 273.422 122.563C273.422 124.018 274.002 125.178 275.161 126.041C276.321 126.88 277.924 127.299 279.971 127.299ZM279.971 117.494C277.998 117.494 276.321 117.235 274.939 116.717C273.558 116.174 272.497 115.41 271.757 114.423C271.017 113.412 270.647 112.215 270.647 110.834C270.647 109.379 271.03 108.133 271.794 107.097C272.584 106.036 273.681 105.222 275.087 104.655C276.493 104.088 278.121 103.804 279.971 103.804C281.846 103.804 283.486 104.088 284.892 104.655C286.298 105.222 287.396 106.036 288.185 107.097C288.975 108.133 289.369 109.379 289.369 110.834C289.369 112.215 288.999 113.412 288.259 114.423C287.519 115.41 286.446 116.174 285.04 116.717C283.634 117.235 281.945 117.494 279.971 117.494ZM279.971 115.126C281.772 115.126 283.178 114.756 284.189 114.016C285.225 113.276 285.743 112.265 285.743 110.982C285.743 109.675 285.213 108.651 284.152 107.911C283.092 107.171 281.698 106.801 279.971 106.801C278.245 106.801 276.863 107.171 275.827 107.911C274.816 108.651 274.31 109.675 274.31 110.982C274.31 112.265 274.804 113.276 275.79 114.016C276.802 114.756 278.195 115.126 279.971 115.126Z" fill="#292C33"/>
<path d="M268.672 187V162.58L270.263 164.319H262.826V161.1H272.335V187H268.672ZM286.362 187.296C284.537 187.296 282.761 187.012 281.034 186.445C279.332 185.878 277.938 185.113 276.853 184.151L278.555 181.228C279.418 182.042 280.541 182.708 281.922 183.226C283.303 183.744 284.771 184.003 286.325 184.003C288.298 184.003 289.815 183.584 290.876 182.745C291.937 181.906 292.467 180.784 292.467 179.378C292.467 178.416 292.233 177.577 291.764 176.862C291.295 176.147 290.481 175.604 289.322 175.234C288.187 174.839 286.621 174.642 284.623 174.642H278.74L280.109 161.1H294.724V164.319H281.478L283.402 162.506L282.329 173.199L280.405 171.423H285.4C287.99 171.423 290.074 171.756 291.653 172.422C293.232 173.088 294.379 174.013 295.094 175.197C295.809 176.356 296.167 177.701 296.167 179.23C296.167 180.71 295.809 182.067 295.094 183.3C294.379 184.509 293.293 185.483 291.838 186.223C290.407 186.938 288.582 187.296 286.362 187.296Z" fill="#292C33"/>
<path d="M260.123 245V242.484L270.668 232.309C271.605 231.421 272.296 230.644 272.74 229.978C273.209 229.287 273.517 228.658 273.665 228.091C273.838 227.499 273.924 226.932 273.924 226.389C273.924 225.057 273.455 224.009 272.518 223.244C271.581 222.479 270.212 222.097 268.411 222.097C267.03 222.097 265.784 222.331 264.674 222.8C263.564 223.244 262.602 223.947 261.788 224.909L259.272 222.726C260.259 221.468 261.578 220.506 263.231 219.84C264.908 219.149 266.746 218.804 268.744 218.804C270.545 218.804 272.111 219.1 273.443 219.692C274.775 220.259 275.799 221.086 276.514 222.171C277.254 223.256 277.624 224.539 277.624 226.019C277.624 226.858 277.513 227.684 277.291 228.498C277.069 229.312 276.65 230.175 276.033 231.088C275.416 232.001 274.528 233.024 273.369 234.159L263.971 243.224L263.083 241.781H278.734V245H260.123ZM281.369 245V242.484L291.914 232.309C292.851 231.421 293.542 230.644 293.986 229.978C294.455 229.287 294.763 228.658 294.911 228.091C295.084 227.499 295.17 226.932 295.17 226.389C295.17 225.057 294.701 224.009 293.764 223.244C292.827 222.479 291.458 222.097 289.657 222.097C288.276 222.097 287.03 222.331 285.92 222.8C284.81 223.244 283.848 223.947 283.034 224.909L280.518 222.726C281.505 221.468 282.824 220.506 284.477 219.84C286.154 219.149 287.992 218.804 289.99 218.804C291.791 218.804 293.357 219.1 294.689 219.692C296.021 220.259 297.045 221.086 297.76 222.171C298.5 223.256 298.87 224.539 298.87 226.019C298.87 226.858 298.759 227.684 298.537 228.498C298.315 229.312 297.896 230.175 297.279 231.088C296.662 232.001 295.774 233.024 294.615 234.159L285.217 243.224L284.329 241.781H299.98V245H281.369Z" fill="#292C33"/>
<path d="M259.328 303V300.484L269.873 290.309C270.81 289.421 271.501 288.644 271.945 287.978C272.414 287.287 272.722 286.658 272.87 286.091C273.043 285.499 273.129 284.932 273.129 284.389C273.129 283.057 272.66 282.009 271.723 281.244C270.786 280.479 269.417 280.097 267.616 280.097C266.235 280.097 264.989 280.331 263.879 280.8C262.769 281.244 261.807 281.947 260.993 282.909L258.477 280.726C259.464 279.468 260.783 278.506 262.436 277.84C264.113 277.149 265.951 276.804 267.949 276.804C269.75 276.804 271.316 277.1 272.648 277.692C273.98 278.259 275.004 279.086 275.719 280.171C276.459 281.256 276.829 282.539 276.829 284.019C276.829 284.858 276.718 285.684 276.496 286.498C276.274 287.312 275.855 288.175 275.238 289.088C274.621 290.001 273.733 291.024 272.574 292.159L263.176 301.224L262.288 299.781H277.939V303H259.328ZM289.38 276.804C291.723 276.804 293.697 277.31 295.3 278.321C296.928 279.332 298.161 280.8 299 282.724C299.839 284.623 300.258 286.954 300.258 289.717C300.258 292.652 299.74 295.131 298.704 297.154C297.668 299.177 296.237 300.706 294.412 301.742C292.587 302.778 290.453 303.296 288.011 303.296C286.802 303.296 285.631 303.173 284.496 302.926C283.386 302.679 282.412 302.297 281.573 301.779L282.979 298.893C283.67 299.337 284.434 299.658 285.273 299.855C286.136 300.028 287.037 300.114 287.974 300.114C290.589 300.114 292.673 299.3 294.227 297.672C295.781 296.019 296.558 293.577 296.558 290.346C296.558 289.828 296.533 289.211 296.484 288.496C296.435 287.781 296.324 287.078 296.151 286.387L297.372 287.645C297.027 288.78 296.447 289.742 295.633 290.531C294.844 291.296 293.882 291.875 292.747 292.27C291.637 292.64 290.416 292.825 289.084 292.825C287.382 292.825 285.865 292.504 284.533 291.863C283.201 291.222 282.153 290.321 281.388 289.162C280.623 287.978 280.241 286.584 280.241 284.981C280.241 283.304 280.636 281.861 281.425 280.652C282.239 279.419 283.337 278.469 284.718 277.803C286.124 277.137 287.678 276.804 289.38 276.804ZM289.528 279.801C288.418 279.801 287.431 280.011 286.568 280.43C285.705 280.849 285.026 281.429 284.533 282.169C284.064 282.909 283.83 283.797 283.83 284.833C283.83 286.362 284.36 287.583 285.421 288.496C286.482 289.384 287.912 289.828 289.713 289.828C290.897 289.828 291.933 289.606 292.821 289.162C293.734 288.718 294.437 288.114 294.93 287.349C295.448 286.584 295.707 285.733 295.707 284.796C295.707 283.883 295.473 283.057 295.004 282.317C294.535 281.577 293.845 280.973 292.932 280.504C292.019 280.035 290.885 279.801 289.528 279.801Z" fill="#292C33"/>
<path d="M331.496 78.1351V75.6191L342.041 65.4441C342.978 64.5561 343.669 63.7791 344.113 63.1131C344.582 62.4225 344.89 61.7935 345.038 61.2261C345.211 60.6341 345.297 60.0668 345.297 59.5241C345.297 58.1921 344.828 57.1438 343.891 56.3791C342.954 55.6145 341.585 55.2321 339.784 55.2321C338.403 55.2321 337.157 55.4665 336.047 55.9351C334.937 56.3791 333.975 57.0821 333.161 58.0441L330.645 55.8611C331.632 54.6031 332.951 53.6411 334.604 52.9751C336.281 52.2845 338.119 51.9391 340.117 51.9391C341.918 51.9391 343.484 52.2351 344.816 52.8271C346.148 53.3945 347.172 54.2208 347.887 55.3061C348.627 56.3915 348.997 57.6741 348.997 59.1541C348.997 59.9928 348.886 60.8191 348.664 61.6331C348.442 62.4471 348.023 63.3105 347.406 64.2231C346.789 65.1358 345.901 66.1595 344.742 67.2941L335.344 76.3591L334.456 74.9161H350.107V78.1351H331.496Z" fill="#292C33"/>
<path d="M339.507 103.804C341.85 103.804 343.824 104.31 345.427 105.321C347.055 106.332 348.288 107.8 349.127 109.724C349.966 111.623 350.385 113.954 350.385 116.717C350.385 119.652 349.867 122.131 348.831 124.154C347.795 126.177 346.364 127.706 344.539 128.742C342.714 129.778 340.58 130.296 338.138 130.296C336.929 130.296 335.758 130.173 334.623 129.926C333.513 129.679 332.539 129.297 331.7 128.779L333.106 125.893C333.797 126.337 334.561 126.658 335.4 126.855C336.263 127.028 337.164 127.114 338.101 127.114C340.716 127.114 342.8 126.3 344.354 124.672C345.908 123.019 346.685 120.577 346.685 117.346C346.685 116.828 346.66 116.211 346.611 115.496C346.562 114.781 346.451 114.078 346.278 113.387L347.499 114.645C347.154 115.78 346.574 116.742 345.76 117.531C344.971 118.296 344.009 118.875 342.874 119.27C341.764 119.64 340.543 119.825 339.211 119.825C337.509 119.825 335.992 119.504 334.66 118.863C333.328 118.222 332.28 117.321 331.515 116.162C330.75 114.978 330.368 113.584 330.368 111.981C330.368 110.304 330.763 108.861 331.552 107.652C332.366 106.419 333.464 105.469 334.845 104.803C336.251 104.137 337.805 103.804 339.507 103.804ZM339.655 106.801C338.545 106.801 337.558 107.011 336.695 107.43C335.832 107.849 335.153 108.429 334.66 109.169C334.191 109.909 333.957 110.797 333.957 111.833C333.957 113.362 334.487 114.583 335.548 115.496C336.609 116.384 338.039 116.828 339.84 116.828C341.024 116.828 342.06 116.606 342.948 116.162C343.861 115.718 344.564 115.114 345.057 114.349C345.575 113.584 345.834 112.733 345.834 111.796C345.834 110.883 345.6 110.057 345.131 109.317C344.662 108.577 343.972 107.973 343.059 107.504C342.146 107.035 341.012 106.801 339.655 106.801Z" fill="#292C33"/>
<path d="M328.627 187V162.58L330.218 164.319H322.781V161.1H332.29V187H328.627ZM348.833 187.296C346.539 187.296 344.578 186.79 342.95 185.779C341.322 184.768 340.077 183.312 339.213 181.413C338.375 179.489 337.955 177.146 337.955 174.383C337.955 171.448 338.473 168.969 339.509 166.946C340.545 164.923 341.988 163.394 343.838 162.358C345.688 161.322 347.81 160.804 350.202 160.804C351.436 160.804 352.607 160.927 353.717 161.174C354.852 161.421 355.826 161.803 356.64 162.321L355.234 165.207C354.568 164.738 353.804 164.418 352.94 164.245C352.102 164.072 351.214 163.986 350.276 163.986C347.637 163.986 345.54 164.812 343.986 166.465C342.432 168.093 341.655 170.523 341.655 173.754C341.655 174.272 341.68 174.889 341.729 175.604C341.779 176.319 341.902 177.022 342.099 177.713L340.841 176.455C341.211 175.32 341.791 174.371 342.58 173.606C343.394 172.817 344.356 172.237 345.466 171.867C346.601 171.472 347.822 171.275 349.129 171.275C350.856 171.275 352.385 171.596 353.717 172.237C355.049 172.878 356.098 173.791 356.862 174.975C357.627 176.134 358.009 177.516 358.009 179.119C358.009 180.772 357.602 182.215 356.788 183.448C355.974 184.681 354.877 185.631 353.495 186.297C352.114 186.963 350.56 187.296 348.833 187.296ZM348.685 184.299C349.82 184.299 350.807 184.089 351.645 183.67C352.509 183.251 353.187 182.671 353.68 181.931C354.174 181.166 354.42 180.278 354.42 179.267C354.42 177.738 353.89 176.529 352.829 175.641C351.769 174.728 350.326 174.272 348.5 174.272C347.316 174.272 346.28 174.494 345.392 174.938C344.504 175.382 343.801 175.986 343.283 176.751C342.79 177.491 342.543 178.342 342.543 179.304C342.543 180.192 342.778 181.018 343.246 181.783C343.715 182.523 344.406 183.127 345.318 183.596C346.231 184.065 347.353 184.299 348.685 184.299Z" fill="#292C33"/>
<path d="M320.909 245V242.484L331.454 232.309C332.391 231.421 333.082 230.644 333.526 229.978C333.995 229.287 334.303 228.658 334.451 228.091C334.624 227.499 334.71 226.932 334.71 226.389C334.71 225.057 334.241 224.009 333.304 223.244C332.367 222.479 330.998 222.097 329.197 222.097C327.816 222.097 326.57 222.331 325.46 222.8C324.35 223.244 323.388 223.947 322.574 224.909L320.058 222.726C321.045 221.468 322.364 220.506 324.017 219.84C325.694 219.149 327.532 218.804 329.53 218.804C331.331 218.804 332.897 219.1 334.229 219.692C335.561 220.259 336.585 221.086 337.3 222.171C338.04 223.256 338.41 224.539 338.41 226.019C338.41 226.858 338.299 227.684 338.077 228.498C337.855 229.312 337.436 230.175 336.819 231.088C336.202 232.001 335.314 233.024 334.155 234.159L324.757 243.224L323.869 241.781H339.52V245H320.909ZM350.48 245.296C348.655 245.296 346.879 245.012 345.152 244.445C343.45 243.878 342.056 243.113 340.971 242.151L342.673 239.228C343.536 240.042 344.659 240.708 346.04 241.226C347.421 241.744 348.901 242.003 350.48 242.003C352.404 242.003 353.896 241.596 354.957 240.782C356.042 239.943 356.585 238.821 356.585 237.415C356.585 236.058 356.067 234.973 355.031 234.159C354.02 233.32 352.404 232.901 350.184 232.901H348.112V230.311L355.808 220.839L356.326 222.319H342.155V219.1H359.249V221.616L351.59 231.051L349.666 229.904H350.887C354.02 229.904 356.363 230.607 357.917 232.013C359.496 233.419 360.285 235.207 360.285 237.378C360.285 238.833 359.927 240.165 359.212 241.374C358.497 242.583 357.411 243.545 355.956 244.26C354.525 244.951 352.7 245.296 350.48 245.296Z" fill="#292C33"/>
<path d="M327.518 303.296C325.692 303.296 323.916 303.012 322.19 302.445C320.488 301.878 319.094 301.113 318.009 300.151L319.711 297.228C320.574 298.042 321.696 298.708 323.078 299.226C324.459 299.744 325.939 300.003 327.518 300.003C329.442 300.003 330.934 299.596 331.995 298.782C333.08 297.943 333.623 296.821 333.623 295.415C333.623 294.058 333.105 292.973 332.069 292.159C331.057 291.32 329.442 290.901 327.222 290.901H325.15V288.311L332.846 278.839L333.364 280.319H319.193V277.1H336.287V279.616L328.628 289.051L326.704 287.904H327.925C331.057 287.904 333.401 288.607 334.955 290.013C336.533 291.419 337.323 293.207 337.323 295.378C337.323 296.833 336.965 298.165 336.25 299.374C335.534 300.583 334.449 301.545 332.994 302.26C331.563 302.951 329.738 303.296 327.518 303.296ZM351.356 303.296C349.333 303.296 347.52 302.778 345.917 301.742C344.338 300.706 343.08 299.201 342.143 297.228C341.23 295.255 340.774 292.862 340.774 290.05C340.774 287.238 341.23 284.845 342.143 282.872C343.08 280.899 344.338 279.394 345.917 278.358C347.52 277.322 349.333 276.804 351.356 276.804C353.354 276.804 355.154 277.322 356.758 278.358C358.361 279.394 359.619 280.899 360.532 282.872C361.444 284.845 361.901 287.238 361.901 290.05C361.901 292.862 361.444 295.255 360.532 297.228C359.619 299.201 358.361 300.706 356.758 301.742C355.154 302.778 353.354 303.296 351.356 303.296ZM351.356 300.003C352.712 300.003 353.896 299.633 354.908 298.893C355.944 298.153 356.745 297.043 357.313 295.563C357.905 294.083 358.201 292.245 358.201 290.05C358.201 287.855 357.905 286.017 357.313 284.537C356.745 283.057 355.944 281.947 354.908 281.207C353.896 280.467 352.712 280.097 351.356 280.097C349.999 280.097 348.803 280.467 347.767 281.207C346.731 281.947 345.917 283.057 345.325 284.537C344.757 286.017 344.474 287.855 344.474 290.05C344.474 292.245 344.757 294.083 345.325 295.563C345.917 297.043 346.731 298.153 347.767 298.893C348.803 299.633 349.999 300.003 351.356 300.003Z" fill="#292C33"/>
<path d="M404.423 78.4311C402.598 78.4311 400.822 78.1475 399.095 77.5801C397.393 77.0128 396 76.2481 394.914 75.2861L396.616 72.3631C397.48 73.1771 398.602 73.8431 399.983 74.3611C401.365 74.8791 402.845 75.1381 404.423 75.1381C406.347 75.1381 407.84 74.7311 408.9 73.9171C409.986 73.0785 410.528 71.9561 410.528 70.5501C410.528 69.1935 410.01 68.1081 408.974 67.2941C407.963 66.4555 406.347 66.0361 404.127 66.0361H402.055V63.4461L409.751 53.9741L410.269 55.4541H396.098V52.2351H413.192V54.7511L405.533 64.1861L403.609 63.0391H404.83C407.963 63.0391 410.306 63.7421 411.86 65.1481C413.439 66.5541 414.228 68.3425 414.228 70.5131C414.228 71.9685 413.871 73.3005 413.155 74.5091C412.44 75.7178 411.355 76.6798 409.899 77.3951C408.469 78.0858 406.643 78.4311 404.423 78.4311Z" fill="#292C33"/>
<path d="M392.272 130V105.58L393.863 107.319H386.426V104.1H395.935V130H392.272ZM412.182 130.296C410.16 130.296 408.347 129.778 406.743 128.742C405.165 127.706 403.907 126.201 402.969 124.228C402.057 122.255 401.6 119.862 401.6 117.05C401.6 114.238 402.057 111.845 402.969 109.872C403.907 107.899 405.165 106.394 406.743 105.358C408.347 104.322 410.16 103.804 412.182 103.804C414.18 103.804 415.981 104.322 417.584 105.358C419.188 106.394 420.446 107.899 421.358 109.872C422.271 111.845 422.727 114.238 422.727 117.05C422.727 119.862 422.271 122.255 421.358 124.228C420.446 126.201 419.188 127.706 417.584 128.742C415.981 129.778 414.18 130.296 412.182 130.296ZM412.182 127.003C413.539 127.003 414.723 126.633 415.734 125.893C416.77 125.153 417.572 124.043 418.139 122.563C418.731 121.083 419.027 119.245 419.027 117.05C419.027 114.855 418.731 113.017 418.139 111.537C417.572 110.057 416.77 108.947 415.734 108.207C414.723 107.467 413.539 107.097 412.182 107.097C410.826 107.097 409.629 107.467 408.593 108.207C407.557 108.947 406.743 110.057 406.151 111.537C405.584 113.017 405.3 114.855 405.3 117.05C405.3 119.245 405.584 121.083 406.151 122.563C406.743 124.043 407.557 125.153 408.593 125.893C409.629 126.633 410.826 127.003 412.182 127.003Z" fill="#292C33"/>
<path d="M384.048 245V242.484L394.593 232.309C395.531 231.421 396.221 230.644 396.665 229.978C397.134 229.287 397.442 228.658 397.59 228.091C397.763 227.499 397.849 226.932 397.849 226.389C397.849 225.057 397.381 224.009 396.443 223.244C395.506 222.479 394.137 222.097 392.336 222.097C390.955 222.097 389.709 222.331 388.599 222.8C387.489 223.244 386.527 223.947 385.713 224.909L383.197 222.726C384.184 221.468 385.504 220.506 387.156 219.84C388.834 219.149 390.671 218.804 392.669 218.804C394.47 218.804 396.036 219.1 397.368 219.692C398.7 220.259 399.724 221.086 400.439 222.171C401.179 223.256 401.549 224.539 401.549 226.019C401.549 226.858 401.438 227.684 401.216 228.498C400.994 229.312 400.575 230.175 399.958 231.088C399.342 232.001 398.454 233.024 397.294 234.159L387.896 243.224L387.008 241.781H402.659V245H384.048ZM404.609 238.636V236.046L417.855 219.1H421.851L408.716 236.046L406.829 235.454H427.512V238.636H404.609ZM419.002 245V238.636L419.113 235.454V229.83H422.591V245H419.002Z" fill="#292C33"/>
<path d="M10.9709 123.636V121.046L24.2169 104.1H28.2129L15.0779 121.046L13.1909 120.454H33.8739V123.636H10.9709ZM25.3639 130V123.636L25.4749 120.454V114.83H28.9529V130H25.3639Z" fill="#292C33"/>
<path d="M14.3881 187V162.58L15.9791 164.319H8.54209V161.1H18.0511V187H14.3881ZM28.0824 187V162.58L29.6734 164.319H22.2364V161.1H31.7454V187H28.0824Z" fill="#292C33"/>
<path d="M9.3295 245V220.58L10.9205 222.319H3.4835V219.1H12.9925V245H9.3295ZM28.7588 245.296C26.6622 245.296 24.8492 244.988 23.3198 244.371C21.7905 243.754 20.6065 242.879 19.7678 241.744C18.9292 240.585 18.5098 239.228 18.5098 237.674C18.5098 236.145 18.9045 234.85 19.6938 233.789C20.5078 232.704 21.6795 231.89 23.2088 231.347C24.7382 230.78 26.5882 230.496 28.7588 230.496C30.9295 230.496 32.7795 230.78 34.3088 231.347C35.8628 231.89 37.0468 232.704 37.8608 233.789C38.6748 234.874 39.0818 236.169 39.0818 237.674C39.0818 239.228 38.6625 240.585 37.8238 241.744C36.9852 242.879 35.7888 243.754 34.2348 244.371C32.6808 244.988 30.8555 245.296 28.7588 245.296ZM28.7588 242.299C30.8308 242.299 32.4465 241.88 33.6058 241.041C34.7898 240.178 35.3818 239.018 35.3818 237.563C35.3818 236.132 34.7898 235.01 33.6058 234.196C32.4465 233.357 30.8308 232.938 28.7588 232.938C26.7115 232.938 25.1082 233.357 23.9488 234.196C22.7895 235.01 22.2098 236.132 22.2098 237.563C22.2098 239.018 22.7895 240.178 23.9488 241.041C25.1082 241.88 26.7115 242.299 28.7588 242.299ZM28.7588 232.494C26.7855 232.494 25.1082 232.235 23.7268 231.717C22.3455 231.174 21.2848 230.41 20.5448 229.423C19.8048 228.412 19.4348 227.215 19.4348 225.834C19.4348 224.379 19.8172 223.133 20.5818 222.097C21.3712 221.036 22.4688 220.222 23.8748 219.655C25.2808 219.088 26.9088 218.804 28.7588 218.804C30.6335 218.804 32.2738 219.088 33.6798 219.655C35.0858 220.222 36.1835 221.036 36.9728 222.097C37.7622 223.133 38.1568 224.379 38.1568 225.834C38.1568 227.215 37.7868 228.412 37.0468 229.423C36.3068 230.41 35.2338 231.174 33.8278 231.717C32.4218 232.235 30.7322 232.494 28.7588 232.494ZM28.7588 230.126C30.5595 230.126 31.9655 229.756 32.9768 229.016C34.0128 228.276 34.5308 227.265 34.5308 225.982C34.5308 224.675 34.0005 223.651 32.9398 222.911C31.8792 222.171 30.4855 221.801 28.7588 221.801C27.0322 221.801 25.6508 222.171 24.6148 222.911C23.6035 223.651 23.0978 224.675 23.0978 225.982C23.0978 227.265 23.5912 228.276 24.5778 229.016C25.5892 229.756 26.9828 230.126 28.7588 230.126Z" fill="#292C33"/>
<path d="M2.06334 303V300.484L12.6083 290.309C13.5457 289.421 14.2363 288.644 14.6803 287.978C15.149 287.287 15.4573 286.658 15.6053 286.091C15.778 285.499 15.8643 284.932 15.8643 284.389C15.8643 283.057 15.3957 282.009 14.4583 281.244C13.521 280.479 12.152 280.097 10.3513 280.097C8.97 280.097 7.72434 280.331 6.61434 280.8C5.50434 281.244 4.54234 281.947 3.72834 282.909L1.21234 280.726C2.199 279.468 3.51867 278.506 5.17134 277.84C6.84867 277.149 8.68634 276.804 10.6843 276.804C12.485 276.804 14.0513 277.1 15.3833 277.692C16.7153 278.259 17.739 279.086 18.4543 280.171C19.1943 281.256 19.5643 282.539 19.5643 284.019C19.5643 284.858 19.4533 285.684 19.2313 286.498C19.0093 287.312 18.59 288.175 17.9733 289.088C17.3567 290.001 16.4687 291.024 15.3093 292.159L5.91134 301.224L5.02334 299.781H20.6743V303H2.06334ZM32.0784 303.296C30.2531 303.296 28.4771 303.012 26.7504 302.445C25.0484 301.878 23.6548 301.113 22.5694 300.151L24.2714 297.228C25.1348 298.042 26.2571 298.708 27.6384 299.226C29.0198 299.744 30.4874 300.003 32.0414 300.003C34.0148 300.003 35.5318 299.584 36.5924 298.745C37.6531 297.906 38.1834 296.784 38.1834 295.378C38.1834 294.416 37.9491 293.577 37.4804 292.862C37.0118 292.147 36.1978 291.604 35.0384 291.234C33.9038 290.839 32.3374 290.642 30.3394 290.642H24.4564L25.8254 277.1H40.4404V280.319H27.1944L29.1184 278.506L28.0454 289.199L26.1214 287.423H31.1164C33.7064 287.423 35.7908 287.756 37.3694 288.422C38.9481 289.088 40.0951 290.013 40.8104 291.197C41.5258 292.356 41.8834 293.701 41.8834 295.23C41.8834 296.71 41.5258 298.067 40.8104 299.3C40.0951 300.509 39.0098 301.483 37.5544 302.223C36.1238 302.938 34.2984 303.296 32.0784 303.296Z" fill="#292C33"/>
<path d="M88.1854 130.296C86.36 130.296 84.584 130.012 82.8574 129.445C81.1554 128.878 79.7617 128.113 78.6764 127.151L80.3784 124.228C81.2417 125.042 82.364 125.708 83.7454 126.226C85.1267 126.744 86.5944 127.003 88.1484 127.003C90.1217 127.003 91.6387 126.584 92.6994 125.745C93.76 124.906 94.2904 123.784 94.2904 122.378C94.2904 121.416 94.056 120.577 93.5874 119.862C93.1187 119.147 92.3047 118.604 91.1454 118.234C90.0107 117.839 88.4444 117.642 86.4464 117.642H80.5634L81.9324 104.1H96.5474V107.319H83.3014L85.2254 105.506L84.1524 116.199L82.2284 114.423H87.2234C89.8134 114.423 91.8977 114.756 93.4764 115.422C95.055 116.088 96.202 117.013 96.9174 118.197C97.6327 119.356 97.9904 120.701 97.9904 122.23C97.9904 123.71 97.6327 125.067 96.9174 126.3C96.202 127.509 95.1167 128.483 93.6614 129.223C92.2307 129.938 90.4054 130.296 88.1854 130.296Z" fill="#292C33"/>
<path d="M77.3422 187V162.58L78.9332 164.319H71.4962V161.1H81.0052V187H77.3422ZM86.2635 187V184.484L96.8085 174.309C97.7459 173.421 98.4365 172.644 98.8805 171.978C99.3492 171.287 99.6575 170.658 99.8055 170.091C99.9782 169.499 100.065 168.932 100.065 168.389C100.065 167.057 99.5959 166.009 98.6585 165.244C97.7212 164.479 96.3522 164.097 94.5515 164.097C93.1702 164.097 91.9245 164.331 90.8145 164.8C89.7045 165.244 88.7425 165.947 87.9285 166.909L85.4125 164.726C86.3992 163.468 87.7189 162.506 89.3715 161.84C91.0489 161.149 92.8865 160.804 94.8845 160.804C96.6852 160.804 98.2515 161.1 99.5835 161.692C100.916 162.259 101.939 163.086 102.655 164.171C103.395 165.256 103.765 166.539 103.765 168.019C103.765 168.858 103.654 169.684 103.432 170.498C103.21 171.312 102.79 172.175 102.174 173.088C101.557 174.001 100.669 175.024 99.5095 176.159L90.1115 185.224L89.2235 183.781H104.875V187H86.2635Z" fill="#292C33"/>
<path d="M76.5473 245V220.58L78.1383 222.319H70.7013V219.1H80.2103V245H76.5473ZM94.2746 218.804C96.6179 218.804 98.5913 219.31 100.195 220.321C101.823 221.332 103.056 222.8 103.895 224.724C104.733 226.623 105.153 228.954 105.153 231.717C105.153 234.652 104.635 237.131 103.599 239.154C102.563 241.177 101.132 242.706 99.3066 243.742C97.4813 244.778 95.3476 245.296 92.9056 245.296C91.6969 245.296 90.5253 245.173 89.3906 244.926C88.2806 244.679 87.3063 244.297 86.4676 243.779L87.8736 240.893C88.5643 241.337 89.3289 241.658 90.1676 241.855C91.0309 242.028 91.9313 242.114 92.8686 242.114C95.4833 242.114 97.5676 241.3 99.1216 239.672C100.676 238.019 101.453 235.577 101.453 232.346C101.453 231.828 101.428 231.211 101.379 230.496C101.329 229.781 101.218 229.078 101.046 228.387L102.267 229.645C101.921 230.78 101.342 231.742 100.528 232.531C99.7383 233.296 98.7763 233.875 97.6416 234.27C96.5316 234.64 95.3106 234.825 93.9786 234.825C92.2766 234.825 90.7596 234.504 89.4276 233.863C88.0956 233.222 87.0473 232.321 86.2826 231.162C85.5179 229.978 85.1356 228.584 85.1356 226.981C85.1356 225.304 85.5303 223.861 86.3196 222.652C87.1336 221.419 88.2313 220.469 89.6126 219.803C91.0186 219.137 92.5726 218.804 94.2746 218.804ZM94.4226 221.801C93.3126 221.801 92.3259 222.011 91.4626 222.43C90.5993 222.849 89.9209 223.429 89.4276 224.169C88.9589 224.909 88.7246 225.797 88.7246 226.833C88.7246 228.362 89.2549 229.583 90.3156 230.496C91.3763 231.384 92.8069 231.828 94.6076 231.828C95.7916 231.828 96.8276 231.606 97.7156 231.162C98.6283 230.718 99.3313 230.114 99.8246 229.349C100.343 228.584 100.602 227.733 100.602 226.796C100.602 225.883 100.367 225.057 99.8986 224.317C99.4299 223.577 98.7393 222.973 97.8266 222.504C96.9139 222.035 95.7793 221.801 94.4226 221.801Z" fill="#292C33"/>
<path d="M68.0165 303V300.484L78.5615 290.309C79.4988 289.421 80.1895 288.644 80.6335 287.978C81.1021 287.287 81.4105 286.658 81.5585 286.091C81.7311 285.499 81.8175 284.932 81.8175 284.389C81.8175 283.057 81.3488 282.009 80.4115 281.244C79.4741 280.479 78.1051 280.097 76.3045 280.097C74.9231 280.097 73.6775 280.331 72.5675 280.8C71.4575 281.244 70.4955 281.947 69.6815 282.909L67.1655 280.726C68.1521 279.468 69.4718 278.506 71.1245 277.84C72.8018 277.149 74.6395 276.804 76.6375 276.804C78.4381 276.804 80.0045 277.1 81.3365 277.692C82.6685 278.259 83.6921 279.086 84.4075 280.171C85.1475 281.256 85.5175 282.539 85.5175 284.019C85.5175 284.858 85.4065 285.684 85.1845 286.498C84.9625 287.312 84.5431 288.175 83.9265 289.088C83.3098 290.001 82.4218 291.024 81.2625 292.159L71.8645 301.224L70.9765 299.781H86.6275V303H68.0165ZM100.511 303.296C98.2174 303.296 96.2564 302.79 94.6284 301.779C93.0004 300.768 91.7548 299.312 90.8914 297.413C90.0528 295.489 89.6334 293.146 89.6334 290.383C89.6334 287.448 90.1514 284.969 91.1874 282.946C92.2234 280.923 93.6664 279.394 95.5164 278.358C97.3664 277.322 99.4878 276.804 101.88 276.804C103.114 276.804 104.285 276.927 105.395 277.174C106.53 277.421 107.504 277.803 108.318 278.321L106.912 281.207C106.246 280.738 105.482 280.418 104.618 280.245C103.78 280.072 102.892 279.986 101.954 279.986C99.3151 279.986 97.2184 280.812 95.6644 282.465C94.1104 284.093 93.3334 286.523 93.3334 289.754C93.3334 290.272 93.3581 290.889 93.4074 291.604C93.4568 292.319 93.5801 293.022 93.7774 293.713L92.5194 292.455C92.8894 291.32 93.4691 290.371 94.2584 289.606C95.0724 288.817 96.0344 288.237 97.1444 287.867C98.2791 287.472 99.5001 287.275 100.807 287.275C102.534 287.275 104.063 287.596 105.395 288.237C106.727 288.878 107.776 289.791 108.54 290.975C109.305 292.134 109.687 293.516 109.687 295.119C109.687 296.772 109.28 298.215 108.466 299.448C107.652 300.681 106.555 301.631 105.173 302.297C103.792 302.963 102.238 303.296 100.511 303.296ZM100.363 300.299C101.498 300.299 102.485 300.089 103.323 299.67C104.187 299.251 104.865 298.671 105.358 297.931C105.852 297.166 106.098 296.278 106.098 295.267C106.098 293.738 105.568 292.529 104.507 291.641C103.447 290.728 102.004 290.272 100.178 290.272C98.9944 290.272 97.9584 290.494 97.0704 290.938C96.1824 291.382 95.4794 291.986 94.9614 292.751C94.4681 293.491 94.2214 294.342 94.2214 295.304C94.2214 296.192 94.4558 297.018 94.9244 297.783C95.3931 298.523 96.0838 299.127 96.9964 299.596C97.9091 300.065 99.0314 300.299 100.363 300.299Z" fill="#292C33"/>
<path d="M155.926 130.296C153.632 130.296 151.671 129.79 150.043 128.779C148.415 127.768 147.17 126.312 146.306 124.413C145.468 122.489 145.048 120.146 145.048 117.383C145.048 114.448 145.566 111.969 146.602 109.946C147.638 107.923 149.081 106.394 150.931 105.358C152.781 104.322 154.903 103.804 157.295 103.804C158.529 103.804 159.7 103.927 160.81 104.174C161.945 104.421 162.919 104.803 163.733 105.321L162.327 108.207C161.661 107.738 160.897 107.418 160.033 107.245C159.195 107.072 158.307 106.986 157.369 106.986C154.73 106.986 152.633 107.812 151.079 109.465C149.525 111.093 148.748 113.523 148.748 116.754C148.748 117.272 148.773 117.889 148.822 118.604C148.872 119.319 148.995 120.022 149.192 120.713L147.934 119.455C148.304 118.32 148.884 117.371 149.673 116.606C150.487 115.817 151.449 115.237 152.559 114.867C153.694 114.472 154.915 114.275 156.222 114.275C157.949 114.275 159.478 114.596 160.81 115.237C162.142 115.878 163.191 116.791 163.955 117.975C164.72 119.134 165.102 120.516 165.102 122.119C165.102 123.772 164.695 125.215 163.881 126.448C163.067 127.681 161.97 128.631 160.588 129.297C159.207 129.963 157.653 130.296 155.926 130.296ZM155.778 127.299C156.913 127.299 157.9 127.089 158.738 126.67C159.602 126.251 160.28 125.671 160.773 124.931C161.267 124.166 161.513 123.278 161.513 122.267C161.513 120.738 160.983 119.529 159.922 118.641C158.862 117.728 157.419 117.272 155.593 117.272C154.409 117.272 153.373 117.494 152.485 117.938C151.597 118.382 150.894 118.986 150.376 119.751C149.883 120.491 149.636 121.342 149.636 122.304C149.636 123.192 149.871 124.018 150.339 124.783C150.808 125.523 151.499 126.127 152.411 126.596C153.324 127.065 154.446 127.299 155.778 127.299Z" fill="#292C33"/>
<path d="M143.398 187V162.58L144.989 164.319H137.552V161.1H147.061V187H143.398ZM160.645 187.296C158.819 187.296 157.043 187.012 155.317 186.445C153.615 185.878 152.221 185.113 151.136 184.151L152.838 181.228C153.701 182.042 154.823 182.708 156.205 183.226C157.586 183.744 159.066 184.003 160.645 184.003C162.569 184.003 164.061 183.596 165.122 182.782C166.207 181.943 166.75 180.821 166.75 179.415C166.75 178.058 166.232 176.973 165.196 176.159C164.184 175.32 162.569 174.901 160.349 174.901H158.277V172.311L165.973 162.839L166.491 164.319H152.32V161.1H169.414V163.616L161.755 173.051L159.831 171.904H161.052C164.184 171.904 166.528 172.607 168.082 174.013C169.66 175.419 170.45 177.207 170.45 179.378C170.45 180.833 170.092 182.165 169.377 183.374C168.661 184.583 167.576 185.545 166.121 186.26C164.69 186.951 162.865 187.296 160.645 187.296Z" fill="#292C33"/>
<path d="M133.115 245V242.484L143.66 232.309C144.597 231.421 145.288 230.644 145.732 229.978C146.201 229.287 146.509 228.658 146.657 228.091C146.83 227.499 146.916 226.932 146.916 226.389C146.916 225.057 146.447 224.009 145.51 223.244C144.573 222.479 143.204 222.097 141.403 222.097C140.022 222.097 138.776 222.331 137.666 222.8C136.556 223.244 135.594 223.947 134.78 224.909L132.264 222.726C133.251 221.468 134.57 220.506 136.223 219.84C137.9 219.149 139.738 218.804 141.736 218.804C143.537 218.804 145.103 219.1 146.435 219.692C147.767 220.259 148.791 221.086 149.506 222.171C150.246 223.256 150.616 224.539 150.616 226.019C150.616 226.858 150.505 227.684 150.283 228.498C150.061 229.312 149.642 230.175 149.025 231.088C148.408 232.001 147.52 233.024 146.361 234.159L136.963 243.224L136.075 241.781H151.726V245H133.115ZM165.314 245.296C163.291 245.296 161.478 244.778 159.875 243.742C158.296 242.706 157.038 241.201 156.101 239.228C155.188 237.255 154.732 234.862 154.732 232.05C154.732 229.238 155.188 226.845 156.101 224.872C157.038 222.899 158.296 221.394 159.875 220.358C161.478 219.322 163.291 218.804 165.314 218.804C167.312 218.804 169.113 219.322 170.716 220.358C172.319 221.394 173.577 222.899 174.49 224.872C175.403 226.845 175.859 229.238 175.859 232.05C175.859 234.862 175.403 237.255 174.49 239.228C173.577 241.201 172.319 242.706 170.716 243.742C169.113 244.778 167.312 245.296 165.314 245.296ZM165.314 242.003C166.671 242.003 167.855 241.633 168.866 240.893C169.902 240.153 170.704 239.043 171.271 237.563C171.863 236.083 172.159 234.245 172.159 232.05C172.159 229.855 171.863 228.017 171.271 226.537C170.704 225.057 169.902 223.947 168.866 223.207C167.855 222.467 166.671 222.097 165.314 222.097C163.957 222.097 162.761 222.467 161.725 223.207C160.689 223.947 159.875 225.057 159.283 226.537C158.716 228.017 158.432 229.855 158.432 232.05C158.432 234.245 158.716 236.083 159.283 237.563C159.875 239.043 160.689 240.153 161.725 240.893C162.761 241.633 163.957 242.003 165.314 242.003Z" fill="#292C33"/>
<path d="M134.398 303V300.484L144.943 290.309C145.88 289.421 146.571 288.644 147.015 287.978C147.483 287.287 147.792 286.658 147.94 286.091C148.112 285.499 148.199 284.932 148.199 284.389C148.199 283.057 147.73 282.009 146.793 281.244C145.855 280.479 144.486 280.097 142.686 280.097C141.304 280.097 140.059 280.331 138.949 280.8C137.839 281.244 136.877 281.947 136.063 282.909L133.547 280.726C134.533 279.468 135.853 278.506 137.506 277.84C139.183 277.149 141.021 276.804 143.019 276.804C144.819 276.804 146.386 277.1 147.718 277.692C149.05 278.259 150.073 279.086 150.789 280.171C151.529 281.256 151.899 282.539 151.899 284.019C151.899 284.858 151.788 285.684 151.566 286.498C151.344 287.312 150.924 288.175 150.308 289.088C149.691 290.001 148.803 291.024 147.644 292.159L138.246 301.224L137.358 299.781H153.009V303H134.398ZM160.492 303L171.481 278.654L172.443 280.319H157.051L158.901 278.506V284.944H155.349V277.1H174.885V279.616L164.414 303H160.492Z" fill="white"/>
<path d="M202.169 187V162.58L203.76 164.319H196.323V161.1H205.832V187H202.169ZM211.128 180.636V178.046L224.374 161.1H228.37L215.235 178.046L213.348 177.454H234.031V180.636H211.128ZM225.521 187V180.636L225.632 177.454V171.83H229.11V187H225.521Z" fill="#292C33"/>
<path d="M199.149 245V242.484L209.694 232.309C210.631 231.421 211.322 230.644 211.766 229.978C212.234 229.287 212.543 228.658 212.691 228.091C212.863 227.499 212.95 226.932 212.95 226.389C212.95 225.057 212.481 224.009 211.544 223.244C210.606 222.479 209.237 222.097 207.437 222.097C206.055 222.097 204.81 222.331 203.7 222.8C202.59 223.244 201.628 223.947 200.814 224.909L198.298 222.726C199.284 221.468 200.604 220.506 202.257 219.84C203.934 219.149 205.772 218.804 207.77 218.804C209.57 218.804 211.137 219.1 212.469 219.692C213.801 220.259 214.824 221.086 215.54 222.171C216.28 223.256 216.65 224.539 216.65 226.019C216.65 226.858 216.539 227.684 216.317 228.498C216.095 229.312 215.675 230.175 215.059 231.088C214.442 232.001 213.554 233.024 212.395 234.159L202.997 243.224L202.109 241.781H217.76V245H199.149ZM225.168 245V220.58L226.759 222.319H219.322V219.1H228.831V245H225.168Z" fill="#292C33"/>
<path d="M194.09 303V300.484L204.635 290.309C205.573 289.421 206.263 288.644 206.707 287.978C207.176 287.287 207.484 286.658 207.632 286.091C207.805 285.499 207.891 284.932 207.891 284.389C207.891 283.057 207.423 282.009 206.485 281.244C205.548 280.479 204.179 280.097 202.378 280.097C200.997 280.097 199.751 280.331 198.641 280.8C197.531 281.244 196.569 281.947 195.755 282.909L193.239 280.726C194.226 279.468 195.546 278.506 197.198 277.84C198.876 277.149 200.713 276.804 202.711 276.804C204.512 276.804 206.078 277.1 207.41 277.692C208.742 278.259 209.766 279.086 210.481 280.171C211.221 281.256 211.591 282.539 211.591 284.019C211.591 284.858 211.48 285.684 211.258 286.498C211.036 287.312 210.617 288.175 210 289.088C209.384 290.001 208.496 291.024 207.336 292.159L197.938 301.224L197.05 299.781H212.701V303H194.09ZM225.844 303.296C223.748 303.296 221.935 302.988 220.405 302.371C218.876 301.754 217.692 300.879 216.853 299.744C216.015 298.585 215.595 297.228 215.595 295.674C215.595 294.145 215.99 292.85 216.779 291.789C217.593 290.704 218.765 289.89 220.294 289.347C221.824 288.78 223.674 288.496 225.844 288.496C228.015 288.496 229.865 288.78 231.394 289.347C232.948 289.89 234.132 290.704 234.946 291.789C235.76 292.874 236.167 294.169 236.167 295.674C236.167 297.228 235.748 298.585 234.909 299.744C234.071 300.879 232.874 301.754 231.32 302.371C229.766 302.988 227.941 303.296 225.844 303.296ZM225.844 300.299C227.916 300.299 229.532 299.88 230.691 299.041C231.875 298.178 232.467 297.018 232.467 295.563C232.467 294.132 231.875 293.01 230.691 292.196C229.532 291.357 227.916 290.938 225.844 290.938C223.797 290.938 222.194 291.357 221.034 292.196C219.875 293.01 219.295 294.132 219.295 295.563C219.295 297.018 219.875 298.178 221.034 299.041C222.194 299.88 223.797 300.299 225.844 300.299ZM225.844 290.494C223.871 290.494 222.194 290.235 220.812 289.717C219.431 289.174 218.37 288.41 217.63 287.423C216.89 286.412 216.52 285.215 216.52 283.834C216.52 282.379 216.903 281.133 217.667 280.097C218.457 279.036 219.554 278.222 220.96 277.655C222.366 277.088 223.994 276.804 225.844 276.804C227.719 276.804 229.359 277.088 230.765 277.655C232.171 278.222 233.269 279.036 234.058 280.097C234.848 281.133 235.242 282.379 235.242 283.834C235.242 285.215 234.872 286.412 234.132 287.423C233.392 288.41 232.319 289.174 230.913 289.717C229.507 290.235 227.818 290.494 225.844 290.494ZM225.844 288.126C227.645 288.126 229.051 287.756 230.062 287.016C231.098 286.276 231.616 285.265 231.616 283.982C231.616 282.675 231.086 281.651 230.025 280.911C228.965 280.171 227.571 279.801 225.844 279.801C224.118 279.801 222.736 280.171 221.7 280.911C220.689 281.651 220.183 282.675 220.183 283.982C220.183 285.265 220.677 286.276 221.663 287.016C222.675 287.756 224.068 288.126 225.844 288.126Z" fill="#292C33"/>
<path d="M210.446 130L221.435 105.654L222.397 107.319H207.005L208.855 105.506V111.944H205.303V104.1H224.839V106.616L214.368 130H210.446Z" fill="#292C33"/>
<path d="M393.555 187V162.58L395.146 164.319H387.709V161.1H397.218V187H393.555ZM407.36 187L418.349 162.654L419.311 164.319H403.919L405.769 162.506V168.944H402.217V161.1H421.753V163.616L411.282 187H407.36Z" fill="#292C33"/>
<path d="M277.307 78.1351V53.7151L278.898 55.4541H271.461V52.2351H280.97V78.1351H277.307Z" fill="#292C33"/>
<path d="M395.967 303.421C394.142 303.421 392.366 303.137 390.639 302.57C388.937 302.003 387.544 301.238 386.458 300.276L388.16 297.353C389.024 298.167 390.146 298.833 391.527 299.351C392.909 299.869 394.389 300.128 395.967 300.128C397.891 300.128 399.384 299.721 400.444 298.907C401.53 298.068 402.072 296.946 402.072 295.54C402.072 294.183 401.554 293.098 400.518 292.284C399.507 291.445 397.891 291.026 395.671 291.026H393.599V288.436L401.295 278.964L401.813 280.444H387.642V277.225H404.736V279.741L397.077 289.176L395.153 288.029H396.374C399.507 288.029 401.85 288.732 403.404 290.138C404.983 291.544 405.772 293.332 405.772 295.503C405.772 296.958 405.415 298.29 404.699 299.499C403.984 300.708 402.899 301.67 401.443 302.385C400.013 303.076 398.187 303.421 395.967 303.421ZM413.589 303.125V278.705L415.18 280.444H407.743V277.225H417.252V303.125H413.589Z" fill="#292C33"/>
</g>
<defs>
<clipPath id="clip0_532_3149">
<rect width="431" height="313" fill="white"/>
</clipPath>
</defs>
</svg>
