<svg width="439" height="313" viewBox="0 0 439 313" fill="none" xmlns="http://www.w3.org/2000/svg">
<g clip-path="url(#clip0_3525_5650)">
<mask id="mask0_3525_5650" style="mask-type:luminance" maskUnits="userSpaceOnUse" x="0" y="0" width="439" height="313">
<path d="M438.5 0H0.5V313H438.5V0Z" fill="white"/>
</mask>
<g mask="url(#mask0_3525_5650)">
<path d="M56.5 149H-0.5V196H56.5V149Z" fill="#E4793D" fill-opacity="0.6"/>
<path d="M121.5 149H64.5V196H121.5V149Z" fill="#E4793D" fill-opacity="0.6"/>
<mask id="mask1_3525_5650" style="mask-type:luminance" maskUnits="userSpaceOnUse" x="7" y="0" width="432" height="313">
<path d="M438.5 0H7.5V313H438.5V0Z" fill="white"/>
</mask>
<g mask="url(#mask1_3525_5650)">
<path d="M185.69 265H128.69V312H185.69V265Z" fill="#3C78EC" fill-opacity="0.6"/>
<path d="M30.4564 20.7264H27.8476V3.36139H18.3906V20.7264H15.7002V1.32324H30.3749V20.7264H30.4564Z" fill="#B3B3B3" fill-opacity="0.6"/>
<path d="M46.2725 20.7263H43.6636V14.6118H37.2231V20.7263H34.6143V6.29614H37.2231V12.5737H43.6636V6.29614H46.2725V20.7263Z" fill="#B3B3B3" fill-opacity="0.6"/>
<path d="M80.5 20.7264V1.32324H86.859C88.8972 1.32324 90.4462 1.73087 91.5875 2.62766C92.7289 3.52444 93.2996 4.82886 93.2996 6.5409C93.2996 7.35616 93.055 8.08989 92.5658 8.82363C92.0767 9.55736 91.3429 9.96499 90.5277 10.2911C91.8321 10.4541 92.8104 11.0248 93.5441 11.9216C94.2779 12.8184 94.6855 13.9598 94.6855 15.1826C94.6855 16.9762 94.1148 18.2806 92.9735 19.2589C91.8321 20.2373 90.2831 20.6449 88.245 20.6449H80.5V20.7264ZM83.1904 9.55736H87.4297C88.408 9.55736 89.2233 9.31278 89.794 8.7421C90.4462 8.17142 90.6907 7.43769 90.6907 6.45937C90.6907 5.39954 90.3646 4.6658 89.7124 4.09512C89.0602 3.60597 88.0819 3.27986 86.859 3.27986H83.1904V9.55736ZM83.1904 11.5955V18.6067H88.245C89.4678 18.6067 90.3646 18.2806 91.0168 17.71C91.6691 17.1393 91.9952 16.2425 91.9952 15.1826C91.9952 14.1228 91.6691 13.226 91.0168 12.5738C90.3646 11.9216 89.4678 11.5955 88.245 11.514H88.0819H83.1904V11.5955Z" fill="#B3B3B3" fill-opacity="0.6"/>
<path d="M108.626 8.33429H103.898V20.7263H101.289V8.33429H96.5603V6.29614H108.626V8.33429Z" fill="#B3B3B3" fill-opacity="0.6"/>
<path d="M158.012 14.5304C158.093 16.4055 157.441 17.9545 156.137 19.1773C154.832 20.4002 153.12 21.0524 150.919 21.0524C148.718 21.0524 146.924 20.2372 145.538 18.6882C144.152 17.1392 143.5 15.1826 143.5 12.7368V9.31271C143.5 6.94846 144.152 4.91031 145.538 3.36132C146.924 1.81233 148.718 0.99707 150.919 0.99707C153.12 0.99707 154.832 1.56775 156.137 2.70911C157.441 3.85048 158.093 5.39947 158.012 7.35609V7.43762H155.484C155.484 6.05168 155.077 4.99184 154.261 4.17658C153.446 3.36132 152.305 2.95369 150.837 2.95369C149.37 2.95369 148.229 3.52437 147.332 4.74726C146.435 5.88862 146.027 7.35609 146.027 9.14966V12.6553C146.027 14.4488 146.435 15.9163 147.332 17.0577C148.229 18.199 149.37 18.8512 150.837 18.8512C152.305 18.8512 153.446 18.4436 154.261 17.7099C155.077 16.8946 155.484 15.8348 155.484 14.4488H158.012V14.5304Z" fill="#B3B3B3" fill-opacity="0.6"/>
<path d="M173.42 14.0413C173.42 16.161 172.931 17.7915 171.953 19.0959C170.974 20.4003 169.588 20.971 167.795 20.971C166.898 20.971 166.164 20.8079 165.43 20.5634C164.778 20.2373 164.208 19.8296 163.718 19.259V26.2702H161.11V6.29634H163.148L163.555 8.17143C164.045 7.4377 164.615 6.94854 165.349 6.62244C166.083 6.29634 166.898 6.05176 167.795 6.05176C169.588 6.05176 170.974 6.78549 171.953 8.17143C172.931 9.55737 173.42 11.4325 173.42 13.7967V14.0413ZM170.811 13.7967C170.811 12.1662 170.485 10.7803 169.833 9.80195C169.181 8.82364 168.202 8.25296 166.979 8.25296C166.246 8.25296 165.594 8.41601 165.023 8.74211C164.452 9.06822 164.045 9.55737 163.718 10.1281V17.1393C164.045 17.71 164.452 18.1991 165.023 18.5252C165.594 18.8513 166.246 19.0144 166.979 19.0144C168.202 19.0144 169.181 18.5252 169.833 17.6284C170.485 16.7317 170.811 15.5088 170.811 14.1228V13.7967Z" fill="#B3B3B3" fill-opacity="0.6"/>
<path d="M222.93 1.32324V20.7264H220.321V12.6553C219.506 12.8999 218.691 13.063 217.875 13.226C217.06 13.3076 216.163 13.3891 215.022 13.3891C212.902 13.3891 211.272 12.8999 210.131 12.0031C208.989 11.1064 208.5 9.55736 208.5 7.43769V1.32324H211.109V7.43769C211.109 8.90515 211.435 9.88346 212.006 10.4541C212.658 11.0248 213.636 11.2694 214.941 11.2694C215.837 11.2694 216.734 11.1879 217.631 11.1064C218.446 10.9433 219.343 10.7802 220.24 10.5357V1.32324H222.93Z" fill="#B3B3B3" fill-opacity="0.6"/>
<path d="M238.175 8.33429H233.447V20.7263H230.838V8.33429H226.11V6.29614H238.175V8.33429Z" fill="#B3B3B3" fill-opacity="0.6"/>
<path d="M287.175 20.7264H284.566V3.36139H275.109V20.7264H272.5V1.32324H287.175V20.7264Z" fill="#B3B3B3" fill-opacity="0.6"/>
<path d="M302.42 8.33453H297.692V20.7265H295.083V8.33453H290.354V6.29639H302.42V8.33453Z" fill="#B3B3B3" fill-opacity="0.6"/>
<path d="M352.012 14.5301C352.093 16.4052 351.441 17.9542 350.137 19.1771C348.832 20.4 347.12 21.0522 344.919 21.0522C342.718 21.0522 340.924 20.2369 339.538 18.6879C338.152 17.1389 337.5 15.1823 337.5 12.7365V9.31247C337.5 6.94822 338.152 4.91007 339.538 3.36108C340.924 1.81209 342.718 0.996826 344.919 0.996826C347.12 0.996826 348.832 1.56751 350.137 2.70887C351.441 3.85023 352.093 5.39923 352.012 7.35585V7.43737H349.484C349.484 6.05143 349.077 4.9916 348.261 4.17634C347.446 3.36108 346.305 2.95345 344.837 2.95345C343.37 2.95345 342.229 3.52413 341.332 4.74702C340.435 5.88838 340.027 7.35585 340.027 9.14942V12.655C340.027 14.4486 340.435 15.916 341.332 17.0574C342.229 18.1988 343.37 18.851 344.837 18.851C346.305 18.851 347.446 18.4433 348.261 17.7096C349.077 16.8943 349.484 15.8345 349.484 14.4486H352.012V14.5301Z" fill="#B3B3B3" fill-opacity="0.6"/>
<path d="M361.387 6.05149C363.262 6.05149 364.648 6.7037 365.708 8.08964C366.768 9.47558 367.338 11.1876 367.338 13.3888V13.7149C367.338 15.8346 366.768 17.6282 365.626 19.0141C364.485 20.4 362.936 21.0523 360.898 21.0523C358.86 21.0523 357.311 20.4 356.169 19.0141C355.028 17.6282 354.457 15.9161 354.457 13.7149V13.3888C354.457 13.3073 354.457 13.2258 354.457 13.2258C354.457 13.1442 354.457 13.1442 354.457 13.0627V9.96473C354.457 7.19285 355.028 5.23623 356.088 3.93182C357.148 2.6274 358.778 1.97519 360.898 1.81214C362.121 1.73062 363.099 1.56756 363.751 1.32299C364.403 1.07841 364.73 0.670779 364.73 0.100098H366.768V0.181624C366.849 1.56756 366.36 2.54587 365.382 3.11656C364.403 3.68724 363.017 4.01334 361.142 4.01334C359.756 4.01334 358.697 4.42097 357.881 5.1547C357.066 5.88844 356.658 6.94827 356.658 8.33421V8.41574C357.148 7.76353 357.881 7.19285 358.697 6.78522C359.512 6.37759 360.49 6.05149 361.387 6.05149ZM360.898 8.08964C359.675 8.08964 358.697 8.57879 358.044 9.5571C357.392 10.5354 357.066 11.8398 357.066 13.3073V13.6334C357.066 15.1824 357.392 16.4053 358.044 17.3836C358.697 18.3619 359.675 18.8511 360.898 18.8511C362.121 18.8511 363.099 18.3619 363.751 17.3836C364.403 16.4053 364.73 15.1009 364.73 13.6334V13.3073C364.73 11.7583 364.403 10.5354 363.751 9.5571C363.099 8.57879 362.121 8.08964 360.898 8.08964Z" fill="#B3B3B3" fill-opacity="0.6"/>
<path d="M401.5 20.7264V1.32324H407.859C409.897 1.32324 411.446 1.73087 412.588 2.62766C413.729 3.52444 414.3 4.82886 414.3 6.5409C414.3 7.35616 414.055 8.08989 413.566 8.82363C413.077 9.55736 412.343 9.96499 411.528 10.3726C412.832 10.5357 413.81 11.1064 414.544 12.0031C415.278 12.8999 415.686 14.0413 415.686 15.2642C415.686 17.0577 415.115 18.3622 413.973 19.3405C412.832 20.3188 411.283 20.7264 409.245 20.7264H401.5ZM404.19 9.55736H408.43C409.408 9.55736 410.223 9.31278 410.794 8.7421C411.446 8.17142 411.691 7.43769 411.691 6.45937C411.691 5.39954 411.365 4.6658 410.712 4.09512C410.06 3.60597 409.082 3.27986 407.859 3.27986H404.19V9.55736ZM404.19 11.5955V18.6067H409.245C410.468 18.6067 411.365 18.2806 412.017 17.71C412.669 17.1393 412.995 16.2425 412.995 15.1826C412.995 14.1228 412.669 13.226 412.017 12.5738C411.365 11.9216 410.468 11.5955 409.245 11.514H409.082H404.19V11.5955Z" fill="#B3B3B3" fill-opacity="0.6"/>
<path d="M424.245 18.9327C425.061 18.9327 425.794 18.6881 426.365 18.1174C426.936 17.5467 427.262 16.8945 427.262 16.1608H429.626V16.2423C429.626 17.4652 429.137 18.6066 427.996 19.5849C426.854 20.5632 425.631 21.0523 424.164 21.0523C422.126 21.0523 420.577 20.4001 419.435 19.0142C418.294 17.6282 417.805 15.9162 417.805 13.8781V13.3074C417.805 11.2692 418.376 9.55714 419.435 8.1712C420.577 6.78526 422.126 6.13306 424.082 6.13306C425.713 6.13306 427.017 6.62221 427.996 7.60052C428.974 8.57883 429.545 9.80172 429.463 11.2692V11.3508H427.099C427.099 10.454 426.773 9.7202 426.202 9.06799C425.631 8.41578 424.898 8.1712 424.001 8.1712C422.696 8.1712 421.8 8.66036 421.147 9.63867C420.577 10.617 420.251 11.8399 420.251 13.3074V13.8781C420.251 15.3455 420.577 16.5684 421.147 17.5467C422.044 18.4435 422.941 18.9327 424.245 18.9327Z" fill="#B3B3B3" fill-opacity="0.6"/>
<path d="M286.412 130.296C284.315 130.296 282.502 129.988 280.973 129.371C279.443 128.754 278.259 127.879 277.421 126.744C276.582 125.585 276.163 124.228 276.163 122.674C276.163 121.145 276.557 119.85 277.347 118.789C278.161 117.704 279.332 116.89 280.862 116.347C282.391 115.78 284.241 115.496 286.412 115.496C288.582 115.496 290.432 115.78 291.962 116.347C293.516 116.89 294.7 117.704 295.514 118.789C296.328 119.874 296.735 121.169 296.735 122.674C296.735 124.228 296.315 125.585 295.477 126.744C294.638 127.879 293.442 128.754 291.888 129.371C290.334 129.988 288.508 130.296 286.412 130.296ZM286.412 127.299C288.484 127.299 290.099 126.88 291.259 126.041C292.443 125.178 293.035 124.018 293.035 122.563C293.035 121.132 292.443 120.01 291.259 119.196C290.099 118.357 288.484 117.938 286.412 117.938C284.364 117.938 282.761 118.357 281.602 119.196C280.442 120.01 279.863 121.132 279.863 122.563C279.863 124.018 280.442 125.178 281.602 126.041C282.761 126.88 284.364 127.299 286.412 127.299ZM286.412 117.494C284.438 117.494 282.761 117.235 281.38 116.717C279.998 116.174 278.938 115.41 278.198 114.423C277.458 113.412 277.088 112.215 277.088 110.834C277.088 109.379 277.47 108.133 278.235 107.097C279.024 106.036 280.122 105.222 281.528 104.655C282.934 104.088 284.562 103.804 286.412 103.804C288.286 103.804 289.927 104.088 291.333 104.655C292.739 105.222 293.836 106.036 294.626 107.097C295.415 108.133 295.81 109.379 295.81 110.834C295.81 112.215 295.44 113.412 294.7 114.423C293.96 115.41 292.887 116.174 291.481 116.717C290.075 117.235 288.385 117.494 286.412 117.494ZM286.412 115.126C288.212 115.126 289.618 114.756 290.63 114.016C291.666 113.276 292.184 112.265 292.184 110.982C292.184 109.675 291.653 108.651 290.593 107.911C289.532 107.171 288.138 106.801 286.412 106.801C284.685 106.801 283.304 107.171 282.268 107.911C281.256 108.651 280.751 109.675 280.751 110.982C280.751 112.265 281.244 113.276 282.231 114.016C283.242 114.756 284.636 115.126 286.412 115.126Z" fill="#292C33" fill-opacity="0.6"/>
<path d="M275.112 187V162.58L276.703 164.319H269.266V161.1H278.775V187H275.112ZM292.803 187.296C290.977 187.296 289.201 187.012 287.475 186.445C285.773 185.878 284.379 185.113 283.294 184.151L284.996 181.228C285.859 182.042 286.981 182.708 288.363 183.226C289.744 183.744 291.212 184.003 292.766 184.003C294.739 184.003 296.256 183.584 297.317 182.745C298.377 181.906 298.908 180.784 298.908 179.378C298.908 178.416 298.673 177.577 298.205 176.862C297.736 176.147 296.922 175.604 295.763 175.234C294.628 174.839 293.062 174.642 291.064 174.642H285.181L286.55 161.1H301.165V164.319H287.919L289.843 162.506L288.77 173.199L286.846 171.423H291.841C294.431 171.423 296.515 171.756 298.094 172.422C299.672 173.088 300.819 174.013 301.535 175.197C302.25 176.356 302.608 177.701 302.608 179.23C302.608 180.71 302.25 182.067 301.535 183.3C300.819 184.509 299.734 185.483 298.279 186.223C296.848 186.938 295.023 187.296 292.803 187.296Z" fill="#292C33" fill-opacity="0.6"/>
<path d="M266.563 244V241.484L277.108 231.309C278.046 230.421 278.736 229.644 279.18 228.978C279.649 228.287 279.957 227.658 280.105 227.091C280.278 226.499 280.364 225.932 280.364 225.389C280.364 224.057 279.896 223.009 278.958 222.244C278.021 221.479 276.652 221.097 274.851 221.097C273.47 221.097 272.224 221.331 271.114 221.8C270.004 222.244 269.042 222.947 268.228 223.909L265.712 221.726C266.699 220.468 268.019 219.506 269.671 218.84C271.349 218.149 273.186 217.804 275.184 217.804C276.985 217.804 278.551 218.1 279.883 218.692C281.215 219.259 282.239 220.086 282.954 221.171C283.694 222.256 284.064 223.539 284.064 225.019C284.064 225.858 283.953 226.684 283.731 227.498C283.509 228.312 283.09 229.175 282.473 230.088C281.857 231.001 280.969 232.024 279.809 233.159L270.411 242.224L269.523 240.781H285.174V244H266.563ZM287.809 244V241.484L298.354 231.309C299.292 230.421 299.982 229.644 300.426 228.978C300.895 228.287 301.203 227.658 301.351 227.091C301.524 226.499 301.61 225.932 301.61 225.389C301.61 224.057 301.142 223.009 300.204 222.244C299.267 221.479 297.898 221.097 296.097 221.097C294.716 221.097 293.47 221.331 292.36 221.8C291.25 222.244 290.288 222.947 289.474 223.909L286.958 221.726C287.945 220.468 289.265 219.506 290.917 218.84C292.595 218.149 294.432 217.804 296.43 217.804C298.231 217.804 299.797 218.1 301.129 218.692C302.461 219.259 303.485 220.086 304.2 221.171C304.94 222.256 305.31 223.539 305.31 225.019C305.31 225.858 305.199 226.684 304.977 227.498C304.755 228.312 304.336 229.175 303.719 230.088C303.103 231.001 302.215 232.024 301.055 233.159L291.657 242.224L290.769 240.781H306.42V244H287.809Z" fill="#292C33" fill-opacity="0.6"/>
<path d="M265.768 301V298.484L276.313 288.309C277.251 287.421 277.941 286.644 278.385 285.978C278.854 285.287 279.162 284.658 279.31 284.091C279.483 283.499 279.569 282.932 279.569 282.389C279.569 281.057 279.101 280.009 278.163 279.244C277.226 278.479 275.857 278.097 274.056 278.097C272.675 278.097 271.429 278.331 270.319 278.8C269.209 279.244 268.247 279.947 267.433 280.909L264.917 278.726C265.904 277.468 267.224 276.506 268.876 275.84C270.554 275.149 272.391 274.804 274.389 274.804C276.19 274.804 277.756 275.1 279.088 275.692C280.42 276.259 281.444 277.086 282.159 278.171C282.899 279.256 283.269 280.539 283.269 282.019C283.269 282.858 283.158 283.684 282.936 284.498C282.714 285.312 282.295 286.175 281.678 287.088C281.062 288.001 280.174 289.024 279.014 290.159L269.616 299.224L268.728 297.781H284.379V301H265.768ZM295.821 274.804C298.164 274.804 300.137 275.31 301.741 276.321C303.369 277.332 304.602 278.8 305.441 280.724C306.279 282.623 306.699 284.954 306.699 287.717C306.699 290.652 306.181 293.131 305.145 295.154C304.109 297.177 302.678 298.706 300.853 299.742C299.027 300.778 296.894 301.296 294.452 301.296C293.243 301.296 292.071 301.173 290.937 300.926C289.827 300.679 288.852 300.297 288.014 299.779L289.42 296.893C290.11 297.337 290.875 297.658 291.714 297.855C292.577 298.028 293.477 298.114 294.415 298.114C297.029 298.114 299.114 297.3 300.668 295.672C302.222 294.019 302.999 291.577 302.999 288.346C302.999 287.828 302.974 287.211 302.925 286.496C302.875 285.781 302.764 285.078 302.592 284.387L303.813 285.645C303.467 286.78 302.888 287.742 302.074 288.531C301.284 289.296 300.322 289.875 299.188 290.27C298.078 290.64 296.857 290.825 295.525 290.825C293.823 290.825 292.306 290.504 290.974 289.863C289.642 289.222 288.593 288.321 287.829 287.162C287.064 285.978 286.682 284.584 286.682 282.981C286.682 281.304 287.076 279.861 287.866 278.652C288.68 277.419 289.777 276.469 291.159 275.803C292.565 275.137 294.119 274.804 295.821 274.804ZM295.969 277.801C294.859 277.801 293.872 278.011 293.009 278.43C292.145 278.849 291.467 279.429 290.974 280.169C290.505 280.909 290.271 281.797 290.271 282.833C290.271 284.362 290.801 285.583 291.862 286.496C292.922 287.384 294.353 287.828 296.154 287.828C297.338 287.828 298.374 287.606 299.262 287.162C300.174 286.718 300.877 286.114 301.371 285.349C301.889 284.584 302.148 283.733 302.148 282.796C302.148 281.883 301.913 281.057 301.445 280.317C300.976 279.577 300.285 278.973 299.373 278.504C298.46 278.035 297.325 277.801 295.969 277.801Z" fill="#292C33" fill-opacity="0.6"/>
<path d="M341.686 78.1352V75.6192L352.231 65.4442C353.169 64.5562 353.859 63.7792 354.303 63.1132C354.772 62.4226 355.08 61.7936 355.228 61.2262C355.401 60.6342 355.487 60.0669 355.487 59.5242C355.487 58.1922 355.019 57.1439 354.081 56.3792C353.144 55.6146 351.775 55.2322 349.974 55.2322C348.593 55.2322 347.347 55.4666 346.237 55.9352C345.127 56.3792 344.165 57.0822 343.351 58.0442L340.835 55.8612C341.822 54.6032 343.142 53.6412 344.794 52.9752C346.472 52.2846 348.309 51.9392 350.307 51.9392C352.108 51.9392 353.674 52.2352 355.006 52.8272C356.338 53.3946 357.362 54.2209 358.077 55.3062C358.817 56.3916 359.187 57.6742 359.187 59.1542C359.187 59.9929 359.076 60.8192 358.854 61.6332C358.632 62.4472 358.213 63.3106 357.596 64.2232C356.98 65.1359 356.092 66.1596 354.932 67.2942L345.534 76.3592L344.646 74.9162H360.297V78.1352H341.686Z" fill="#292C33" fill-opacity="0.6"/>
<path d="M349.697 103.804C352.041 103.804 354.014 104.31 355.617 105.321C357.245 106.332 358.479 107.8 359.317 109.724C360.156 111.623 360.575 113.954 360.575 116.717C360.575 119.652 360.057 122.131 359.021 124.154C357.985 126.177 356.555 127.706 354.729 128.742C352.904 129.778 350.77 130.296 348.328 130.296C347.12 130.296 345.948 130.173 344.813 129.926C343.703 129.679 342.729 129.297 341.89 128.779L343.296 125.893C343.987 126.337 344.752 126.658 345.59 126.855C346.454 127.028 347.354 127.114 348.291 127.114C350.906 127.114 352.99 126.3 354.544 124.672C356.098 123.019 356.875 120.577 356.875 117.346C356.875 116.828 356.851 116.211 356.801 115.496C356.752 114.781 356.641 114.078 356.468 113.387L357.689 114.645C357.344 115.78 356.764 116.742 355.95 117.531C355.161 118.296 354.199 118.875 353.064 119.27C351.954 119.64 350.733 119.825 349.401 119.825C347.699 119.825 346.182 119.504 344.85 118.863C343.518 118.222 342.47 117.321 341.705 116.162C340.941 114.978 340.558 113.584 340.558 111.981C340.558 110.304 340.953 108.861 341.742 107.652C342.556 106.419 343.654 105.469 345.035 104.803C346.441 104.137 347.995 103.804 349.697 103.804ZM349.845 106.801C348.735 106.801 347.749 107.011 346.885 107.43C346.022 107.849 345.344 108.429 344.85 109.169C344.382 109.909 344.147 110.797 344.147 111.833C344.147 113.362 344.678 114.583 345.738 115.496C346.799 116.384 348.23 116.828 350.03 116.828C351.214 116.828 352.25 116.606 353.138 116.162C354.051 115.718 354.754 115.114 355.247 114.349C355.765 113.584 356.024 112.733 356.024 111.796C356.024 110.883 355.79 110.057 355.321 109.317C354.853 108.577 354.162 107.973 353.249 107.504C352.337 107.035 351.202 106.801 349.845 106.801Z" fill="#292C33" fill-opacity="0.6"/>
<path d="M338.817 187V162.58L340.408 164.319H332.971V161.1H342.48V187H338.817ZM359.024 187.296C356.73 187.296 354.769 186.79 353.141 185.779C351.513 184.768 350.267 183.312 349.404 181.413C348.565 179.489 348.146 177.146 348.146 174.383C348.146 171.448 348.664 168.969 349.7 166.946C350.736 164.923 352.179 163.394 354.029 162.358C355.879 161.322 358 160.804 360.393 160.804C361.626 160.804 362.798 160.927 363.908 161.174C365.042 161.421 366.017 161.803 366.831 162.321L365.425 165.207C364.759 164.738 363.994 164.418 363.131 164.245C362.292 164.072 361.404 163.986 360.467 163.986C357.827 163.986 355.731 164.812 354.177 166.465C352.623 168.093 351.846 170.523 351.846 173.754C351.846 174.272 351.87 174.889 351.92 175.604C351.969 176.319 352.092 177.022 352.29 177.713L351.032 176.455C351.402 175.32 351.981 174.371 352.771 173.606C353.585 172.817 354.547 172.237 355.657 171.867C356.791 171.472 358.012 171.275 359.32 171.275C361.046 171.275 362.576 171.596 363.908 172.237C365.24 172.878 366.288 173.791 367.053 174.975C367.817 176.134 368.2 177.516 368.2 179.119C368.2 180.772 367.793 182.215 366.979 183.448C366.165 184.681 365.067 185.631 363.686 186.297C362.304 186.963 360.75 187.296 359.024 187.296ZM358.876 184.299C360.01 184.299 360.997 184.089 361.836 183.67C362.699 183.251 363.377 182.671 363.871 181.931C364.364 181.166 364.611 180.278 364.611 179.267C364.611 177.738 364.08 176.529 363.02 175.641C361.959 174.728 360.516 174.272 358.691 174.272C357.507 174.272 356.471 174.494 355.583 174.938C354.695 175.382 353.992 175.986 353.474 176.751C352.98 177.491 352.734 178.342 352.734 179.304C352.734 180.192 352.968 181.018 353.437 181.783C353.905 182.523 354.596 183.127 355.509 183.596C356.421 184.065 357.544 184.299 358.876 184.299Z" fill="#292C33" fill-opacity="0.6"/>
<path d="M331.099 244V241.484L341.644 231.309C342.582 230.421 343.272 229.644 343.716 228.978C344.185 228.287 344.493 227.658 344.641 227.091C344.814 226.499 344.9 225.932 344.9 225.389C344.9 224.057 344.432 223.009 343.494 222.244C342.557 221.479 341.188 221.097 339.387 221.097C338.006 221.097 336.76 221.331 335.65 221.8C334.54 222.244 333.578 222.947 332.764 223.909L330.248 221.726C331.235 220.468 332.555 219.506 334.207 218.84C335.885 218.149 337.722 217.804 339.72 217.804C341.521 217.804 343.087 218.1 344.419 218.692C345.751 219.259 346.775 220.086 347.49 221.171C348.23 222.256 348.6 223.539 348.6 225.019C348.6 225.858 348.489 226.684 348.267 227.498C348.045 228.312 347.626 229.175 347.009 230.088C346.393 231.001 345.505 232.024 344.345 233.159L334.947 242.224L334.059 240.781H349.71V244H331.099ZM360.671 244.296C358.845 244.296 357.069 244.012 355.343 243.445C353.641 242.878 352.247 242.113 351.162 241.151L352.864 238.228C353.727 239.042 354.849 239.708 356.231 240.226C357.612 240.744 359.092 241.003 360.671 241.003C362.595 241.003 364.087 240.596 365.148 239.782C366.233 238.943 366.776 237.821 366.776 236.415C366.776 235.058 366.258 233.973 365.222 233.159C364.21 232.32 362.595 231.901 360.375 231.901H358.303V229.311L365.999 219.839L366.517 221.319H352.346V218.1H369.44V220.616L361.781 230.051L359.857 228.904H361.078C364.21 228.904 366.554 229.607 368.108 231.013C369.686 232.419 370.476 234.207 370.476 236.378C370.476 237.833 370.118 239.165 369.403 240.374C368.687 241.583 367.602 242.545 366.147 243.26C364.716 243.951 362.891 244.296 360.671 244.296Z" fill="#292C33" fill-opacity="0.6"/>
<path d="M337.708 301.296C335.883 301.296 334.107 301.012 332.38 300.445C330.678 299.878 329.284 299.113 328.199 298.151L329.901 295.228C330.764 296.042 331.887 296.708 333.268 297.226C334.649 297.744 336.129 298.003 337.708 298.003C339.632 298.003 341.124 297.596 342.185 296.782C343.27 295.943 343.813 294.821 343.813 293.415C343.813 292.058 343.295 290.973 342.259 290.159C341.248 289.32 339.632 288.901 337.412 288.901H335.34V286.311L343.036 276.839L343.554 278.319H329.383V275.1H346.477V277.616L338.818 287.051L336.894 285.904H338.115C341.248 285.904 343.591 286.607 345.145 288.013C346.724 289.419 347.513 291.207 347.513 293.378C347.513 294.833 347.155 296.165 346.44 297.374C345.725 298.583 344.639 299.545 343.184 300.26C341.753 300.951 339.928 301.296 337.708 301.296ZM361.546 301.296C359.523 301.296 357.71 300.778 356.107 299.742C354.528 298.706 353.27 297.201 352.333 295.228C351.42 293.255 350.964 290.862 350.964 288.05C350.964 285.238 351.42 282.845 352.333 280.872C353.27 278.899 354.528 277.394 356.107 276.358C357.71 275.322 359.523 274.804 361.546 274.804C363.544 274.804 365.345 275.322 366.948 276.358C368.551 277.394 369.809 278.899 370.722 280.872C371.635 282.845 372.091 285.238 372.091 288.05C372.091 290.862 371.635 293.255 370.722 295.228C369.809 297.201 368.551 298.706 366.948 299.742C365.345 300.778 363.544 301.296 361.546 301.296ZM361.546 298.003C362.903 298.003 364.087 297.633 365.098 296.893C366.134 296.153 366.936 295.043 367.503 293.563C368.095 292.083 368.391 290.245 368.391 288.05C368.391 285.855 368.095 284.017 367.503 282.537C366.936 281.057 366.134 279.947 365.098 279.207C364.087 278.467 362.903 278.097 361.546 278.097C360.189 278.097 358.993 278.467 357.957 279.207C356.921 279.947 356.107 281.057 355.515 282.537C354.948 284.017 354.664 285.855 354.664 288.05C354.664 290.245 354.948 292.083 355.515 293.563C356.107 295.043 356.921 296.153 357.957 296.893C358.993 297.633 360.189 298.003 361.546 298.003Z" fill="#292C33" fill-opacity="0.6"/>
<path d="M415.048 78.4311C413.222 78.4311 411.446 78.1475 409.72 77.5801C408.018 77.0128 406.624 76.2481 405.539 75.2861L407.241 72.3631C408.104 73.1771 409.226 73.8431 410.608 74.3611C411.989 74.8791 413.469 75.1381 415.048 75.1381C416.972 75.1381 418.464 74.7311 419.525 73.9171C420.61 73.0785 421.153 71.9561 421.153 70.5501C421.153 69.1935 420.635 68.1081 419.599 67.2941C418.587 66.4555 416.972 66.0361 414.752 66.0361H412.68V63.4461L420.376 53.9741L420.894 55.4541H406.723V52.2351H423.817V54.7511L416.158 64.1861L414.234 63.0391H415.455C418.587 63.0391 420.931 63.7421 422.485 65.1481C424.063 66.5541 424.853 68.3425 424.853 70.5131C424.853 71.9685 424.495 73.3005 423.78 74.5091C423.064 75.7178 421.979 76.6798 420.524 77.3951C419.093 78.0858 417.268 78.4311 415.048 78.4311Z" fill="#292C33" fill-opacity="0.6"/>
<path d="M402.896 130V105.58L404.487 107.319H397.05V104.1H406.559V130H402.896ZM422.806 130.296C420.784 130.296 418.971 129.778 417.367 128.742C415.789 127.706 414.531 126.201 413.593 124.228C412.681 122.255 412.224 119.862 412.224 117.05C412.224 114.238 412.681 111.845 413.593 109.872C414.531 107.899 415.789 106.394 417.367 105.358C418.971 104.322 420.784 103.804 422.806 103.804C424.804 103.804 426.605 104.322 428.208 105.358C429.812 106.394 431.07 107.899 431.982 109.872C432.895 111.845 433.351 114.238 433.351 117.05C433.351 119.862 432.895 122.255 431.982 124.228C431.07 126.201 429.812 127.706 428.208 128.742C426.605 129.778 424.804 130.296 422.806 130.296ZM422.806 127.003C424.163 127.003 425.347 126.633 426.358 125.893C427.394 125.153 428.196 124.043 428.763 122.563C429.355 121.083 429.651 119.245 429.651 117.05C429.651 114.855 429.355 113.017 428.763 111.537C428.196 110.057 427.394 108.947 426.358 108.207C425.347 107.467 424.163 107.097 422.806 107.097C421.45 107.097 420.253 107.467 419.217 108.207C418.181 108.947 417.367 110.057 416.775 111.537C416.208 113.017 415.924 114.855 415.924 117.05C415.924 119.245 416.208 121.083 416.775 122.563C417.367 124.043 418.181 125.153 419.217 125.893C420.253 126.633 421.45 127.003 422.806 127.003Z" fill="#292C33" fill-opacity="0.6"/>
<path d="M394.672 244V241.484L405.217 231.309C406.155 230.421 406.845 229.644 407.289 228.978C407.758 228.287 408.066 227.658 408.214 227.091C408.387 226.499 408.473 225.932 408.473 225.389C408.473 224.057 408.005 223.009 407.067 222.244C406.13 221.479 404.761 221.097 402.96 221.097C401.579 221.097 400.333 221.331 399.223 221.8C398.113 222.244 397.151 222.947 396.337 223.909L393.821 221.726C394.808 220.468 396.128 219.506 397.78 218.84C399.458 218.149 401.295 217.804 403.293 217.804C405.094 217.804 406.66 218.1 407.992 218.692C409.324 219.259 410.348 220.086 411.063 221.171C411.803 222.256 412.173 223.539 412.173 225.019C412.173 225.858 412.062 226.684 411.84 227.498C411.618 228.312 411.199 229.175 410.582 230.088C409.966 231.001 409.078 232.024 407.918 233.159L398.52 242.224L397.632 240.781H413.283V244H394.672ZM415.233 237.636V235.046L428.479 218.1H432.475L419.34 235.046L417.453 234.454H438.136V237.636H415.233ZM429.626 244V237.636L429.737 234.454V228.83H433.215V244H429.626Z" fill="#292C33" fill-opacity="0.6"/>
<path d="M18.4709 123.636V121.046L31.7169 104.1H35.7129L22.5779 121.046L20.6909 120.454H41.3739V123.636H18.4709ZM32.8639 130V123.636L32.9749 120.454V114.83H36.4529V130H32.8639Z" fill="#292C33" fill-opacity="0.6"/>
<path d="M21.8882 187V162.58L23.4792 164.319H16.0422V161.1H25.5512V187H21.8882ZM35.5825 187V162.58L37.1735 164.319H29.7365V161.1H39.2455V187H35.5825Z" fill="white"/>
<path d="M16.8296 244V219.58L18.4206 221.319H10.9836V218.1H20.4926V244H16.8296ZM36.2589 244.296C34.1623 244.296 32.3493 243.988 30.8199 243.371C29.2906 242.754 28.1066 241.879 27.2679 240.744C26.4293 239.585 26.0099 238.228 26.0099 236.674C26.0099 235.145 26.4046 233.85 27.1939 232.789C28.0079 231.704 29.1796 230.89 30.7089 230.347C32.2383 229.78 34.0883 229.496 36.2589 229.496C38.4296 229.496 40.2796 229.78 41.8089 230.347C43.3629 230.89 44.5469 231.704 45.3609 232.789C46.1749 233.874 46.5819 235.169 46.5819 236.674C46.5819 238.228 46.1626 239.585 45.3239 240.744C44.4853 241.879 43.2889 242.754 41.7349 243.371C40.1809 243.988 38.3556 244.296 36.2589 244.296ZM36.2589 241.299C38.3309 241.299 39.9466 240.88 41.1059 240.041C42.2899 239.178 42.8819 238.018 42.8819 236.563C42.8819 235.132 42.2899 234.01 41.1059 233.196C39.9466 232.357 38.3309 231.938 36.2589 231.938C34.2116 231.938 32.6083 232.357 31.4489 233.196C30.2896 234.01 29.7099 235.132 29.7099 236.563C29.7099 238.018 30.2896 239.178 31.4489 240.041C32.6083 240.88 34.2116 241.299 36.2589 241.299ZM36.2589 231.494C34.2856 231.494 32.6083 231.235 31.2269 230.717C29.8456 230.174 28.7849 229.41 28.0449 228.423C27.3049 227.412 26.9349 226.215 26.9349 224.834C26.9349 223.379 27.3173 222.133 28.0819 221.097C28.8713 220.036 29.9689 219.222 31.3749 218.655C32.7809 218.088 34.4089 217.804 36.2589 217.804C38.1336 217.804 39.7739 218.088 41.1799 218.655C42.5859 219.222 43.6836 220.036 44.4729 221.097C45.2623 222.133 45.6569 223.379 45.6569 224.834C45.6569 226.215 45.2869 227.412 44.5469 228.423C43.8069 229.41 42.7339 230.174 41.3279 230.717C39.9219 231.235 38.2323 231.494 36.2589 231.494ZM36.2589 229.126C38.0596 229.126 39.4656 228.756 40.4769 228.016C41.5129 227.276 42.0309 226.265 42.0309 224.982C42.0309 223.675 41.5006 222.651 40.4399 221.911C39.3793 221.171 37.9856 220.801 36.2589 220.801C34.5323 220.801 33.1509 221.171 32.1149 221.911C31.1036 222.651 30.5979 223.675 30.5979 224.982C30.5979 226.265 31.0913 227.276 32.0779 228.016C33.0893 228.756 34.4829 229.126 36.2589 229.126Z" fill="#292C33" fill-opacity="0.6"/>
<path d="M9.5634 301V298.484L20.1084 288.309C21.0458 287.421 21.7364 286.644 22.1804 285.978C22.6491 285.287 22.9574 284.658 23.1054 284.091C23.2781 283.499 23.3644 282.932 23.3644 282.389C23.3644 281.057 22.8958 280.009 21.9584 279.244C21.0211 278.479 19.6521 278.097 17.8514 278.097C16.4701 278.097 15.2244 278.331 14.1144 278.8C13.0044 279.244 12.0424 279.947 11.2284 280.909L8.7124 278.726C9.69906 277.468 11.0187 276.506 12.6714 275.84C14.3487 275.149 16.1864 274.804 18.1844 274.804C19.9851 274.804 21.5514 275.1 22.8834 275.692C24.2154 276.259 25.2391 277.086 25.9544 278.171C26.6944 279.256 27.0644 280.539 27.0644 282.019C27.0644 282.858 26.9534 283.684 26.7314 284.498C26.5094 285.312 26.0901 286.175 25.4734 287.088C24.8568 288.001 23.9688 289.024 22.8094 290.159L13.4114 299.224L12.5234 297.781H28.1744V301H9.5634ZM39.5785 301.296C37.7532 301.296 35.9772 301.012 34.2505 300.445C32.5485 299.878 31.1549 299.113 30.0695 298.151L31.7715 295.228C32.6349 296.042 33.7572 296.708 35.1385 297.226C36.5199 297.744 37.9875 298.003 39.5415 298.003C41.5149 298.003 43.0319 297.584 44.0925 296.745C45.1532 295.906 45.6835 294.784 45.6835 293.378C45.6835 292.416 45.4492 291.577 44.9805 290.862C44.5119 290.147 43.6979 289.604 42.5385 289.234C41.4039 288.839 39.8375 288.642 37.8395 288.642H31.9565L33.3255 275.1H47.9405V278.319H34.6945L36.6185 276.506L35.5455 287.199L33.6215 285.423H38.6165C41.2065 285.423 43.2909 285.756 44.8695 286.422C46.4482 287.088 47.5952 288.013 48.3105 289.197C49.0259 290.356 49.3835 291.701 49.3835 293.23C49.3835 294.71 49.0259 296.067 48.3105 297.3C47.5952 298.509 46.5099 299.483 45.0545 300.223C43.6239 300.938 41.7985 301.296 39.5785 301.296Z" fill="#292C33" fill-opacity="0.6"/>
<path d="M91.9555 130.296C90.1301 130.296 88.3541 130.012 86.6275 129.445C84.9255 128.878 83.5318 128.113 82.4465 127.151L84.1485 124.228C85.0118 125.042 86.1341 125.708 87.5155 126.226C88.8968 126.744 90.3645 127.003 91.9185 127.003C93.8918 127.003 95.4088 126.584 96.4695 125.745C97.5302 124.906 98.0605 123.784 98.0605 122.378C98.0605 121.416 97.8261 120.577 97.3575 119.862C96.8888 119.147 96.0748 118.604 94.9155 118.234C93.7808 117.839 92.2145 117.642 90.2165 117.642H84.3335L85.7025 104.1H100.318V107.319H87.0715L88.9955 105.506L87.9225 116.199L85.9985 114.423H90.9935C93.5835 114.423 95.6678 114.756 97.2465 115.422C98.8252 116.088 99.9722 117.013 100.688 118.197C101.403 119.356 101.761 120.701 101.761 122.23C101.761 123.71 101.403 125.067 100.688 126.3C99.9722 127.509 98.8868 128.483 97.4315 129.223C96.0008 129.938 94.1755 130.296 91.9555 130.296Z" fill="#292C33" fill-opacity="0.6"/>
<path d="M81.1124 187V162.58L82.7034 164.319H75.2664V161.1H84.7754V187H81.1124ZM90.0338 187V184.484L100.579 174.309C101.516 173.421 102.207 172.644 102.651 171.978C103.119 171.287 103.428 170.658 103.576 170.091C103.748 169.499 103.835 168.932 103.835 168.389C103.835 167.057 103.366 166.009 102.429 165.244C101.491 164.479 100.122 164.097 98.3218 164.097C96.9404 164.097 95.6948 164.331 94.5848 164.8C93.4748 165.244 92.5128 165.947 91.6988 166.909L89.1828 164.726C90.1694 163.468 91.4891 162.506 93.1418 161.84C94.8191 161.149 96.6568 160.804 98.6548 160.804C100.455 160.804 102.022 161.1 103.354 161.692C104.686 162.259 105.709 163.086 106.425 164.171C107.165 165.256 107.535 166.539 107.535 168.019C107.535 168.858 107.424 169.684 107.202 170.498C106.98 171.312 106.56 172.175 105.944 173.088C105.327 174.001 104.439 175.024 103.28 176.159L93.8818 185.224L92.9938 183.781H108.645V187H90.0338Z" fill="white"/>
<path d="M80.3174 244V219.58L81.9084 221.319H74.4714V218.1H83.9804V244H80.3174ZM98.0447 217.804C100.388 217.804 102.361 218.31 103.965 219.321C105.593 220.332 106.826 221.8 107.665 223.724C108.503 225.623 108.923 227.954 108.923 230.717C108.923 233.652 108.405 236.131 107.369 238.154C106.333 240.177 104.902 241.706 103.077 242.742C101.251 243.778 99.1177 244.296 96.6757 244.296C95.4671 244.296 94.2954 244.173 93.1607 243.926C92.0507 243.679 91.0764 243.297 90.2377 242.779L91.6437 239.893C92.3344 240.337 93.0991 240.658 93.9377 240.855C94.8011 241.028 95.7014 241.114 96.6387 241.114C99.2534 241.114 101.338 240.3 102.892 238.672C104.446 237.019 105.223 234.577 105.223 231.346C105.223 230.828 105.198 230.211 105.149 229.496C105.099 228.781 104.988 228.078 104.816 227.387L106.037 228.645C105.691 229.78 105.112 230.742 104.298 231.531C103.508 232.296 102.546 232.875 101.412 233.27C100.302 233.64 99.0807 233.825 97.7487 233.825C96.0467 233.825 94.5297 233.504 93.1977 232.863C91.8657 232.222 90.8174 231.321 90.0527 230.162C89.2881 228.978 88.9057 227.584 88.9057 225.981C88.9057 224.304 89.3004 222.861 90.0897 221.652C90.9037 220.419 92.0014 219.469 93.3827 218.803C94.7887 218.137 96.3427 217.804 98.0447 217.804ZM98.1927 220.801C97.0827 220.801 96.0961 221.011 95.2327 221.43C94.3694 221.849 93.6911 222.429 93.1977 223.169C92.7291 223.909 92.4947 224.797 92.4947 225.833C92.4947 227.362 93.0251 228.583 94.0857 229.496C95.1464 230.384 96.5771 230.828 98.3777 230.828C99.5617 230.828 100.598 230.606 101.486 230.162C102.398 229.718 103.101 229.114 103.595 228.349C104.113 227.584 104.372 226.733 104.372 225.796C104.372 224.883 104.137 224.057 103.669 223.317C103.2 222.577 102.509 221.973 101.597 221.504C100.684 221.035 99.5494 220.801 98.1927 220.801Z" fill="#292C33" fill-opacity="0.6"/>
<path d="M71.7865 301V298.484L82.3315 288.309C83.2688 287.421 83.9595 286.644 84.4035 285.978C84.8721 285.287 85.1805 284.658 85.3285 284.091C85.5011 283.499 85.5875 282.932 85.5875 282.389C85.5875 281.057 85.1188 280.009 84.1815 279.244C83.2441 278.479 81.8751 278.097 80.0745 278.097C78.6931 278.097 77.4475 278.331 76.3375 278.8C75.2275 279.244 74.2655 279.947 73.4515 280.909L70.9355 278.726C71.9221 277.468 73.2418 276.506 74.8945 275.84C76.5718 275.149 78.4095 274.804 80.4075 274.804C82.2081 274.804 83.7745 275.1 85.1065 275.692C86.4385 276.259 87.4621 277.086 88.1775 278.171C88.9175 279.256 89.2875 280.539 89.2875 282.019C89.2875 282.858 89.1765 283.684 88.9545 284.498C88.7325 285.312 88.3131 286.175 87.6965 287.088C87.0798 288.001 86.1918 289.024 85.0325 290.159L75.6345 299.224L74.7465 297.781H90.3975V301H71.7865ZM104.281 301.296C101.987 301.296 100.026 300.79 98.3984 299.779C96.7704 298.768 95.5248 297.312 94.6614 295.413C93.8228 293.489 93.4034 291.146 93.4034 288.383C93.4034 285.448 93.9214 282.969 94.9574 280.946C95.9934 278.923 97.4364 277.394 99.2864 276.358C101.136 275.322 103.258 274.804 105.65 274.804C106.884 274.804 108.055 274.927 109.165 275.174C110.3 275.421 111.274 275.803 112.088 276.321L110.682 279.207C110.016 278.738 109.252 278.418 108.388 278.245C107.55 278.072 106.662 277.986 105.724 277.986C103.085 277.986 100.988 278.812 99.4344 280.465C97.8804 282.093 97.1034 284.523 97.1034 287.754C97.1034 288.272 97.1281 288.889 97.1774 289.604C97.2268 290.319 97.3501 291.022 97.5474 291.713L96.2894 290.455C96.6594 289.32 97.2391 288.371 98.0284 287.606C98.8424 286.817 99.8044 286.237 100.914 285.867C102.049 285.472 103.27 285.275 104.577 285.275C106.304 285.275 107.833 285.596 109.165 286.237C110.497 286.878 111.546 287.791 112.31 288.975C113.075 290.134 113.457 291.516 113.457 293.119C113.457 294.772 113.05 296.215 112.236 297.448C111.422 298.681 110.325 299.631 108.943 300.297C107.562 300.963 106.008 301.296 104.281 301.296ZM104.133 298.299C105.268 298.299 106.255 298.089 107.093 297.67C107.957 297.251 108.635 296.671 109.128 295.931C109.622 295.166 109.868 294.278 109.868 293.267C109.868 291.738 109.338 290.529 108.277 289.641C107.217 288.728 105.774 288.272 103.948 288.272C102.764 288.272 101.728 288.494 100.84 288.938C99.9524 289.382 99.2494 289.986 98.7314 290.751C98.2381 291.491 97.9914 292.342 97.9914 293.304C97.9914 294.192 98.2258 295.018 98.6944 295.783C99.1631 296.523 99.8538 297.127 100.766 297.596C101.679 298.065 102.801 298.299 104.133 298.299Z" fill="#292C33" fill-opacity="0.6"/>
<path d="M158.176 130.296C155.882 130.296 153.921 129.79 152.293 128.779C150.665 127.768 149.42 126.312 148.556 124.413C147.718 122.489 147.298 120.146 147.298 117.383C147.298 114.448 147.816 111.969 148.852 109.946C149.888 107.923 151.331 106.394 153.181 105.358C155.031 104.322 157.153 103.804 159.545 103.804C160.779 103.804 161.95 103.927 163.06 104.174C164.195 104.421 165.169 104.803 165.983 105.321L164.577 108.207C163.911 107.738 163.147 107.418 162.283 107.245C161.445 107.072 160.557 106.986 159.619 106.986C156.98 106.986 154.883 107.812 153.329 109.465C151.775 111.093 150.998 113.523 150.998 116.754C150.998 117.272 151.023 117.889 151.072 118.604C151.122 119.319 151.245 120.022 151.442 120.713L150.184 119.455C150.554 118.32 151.134 117.371 151.923 116.606C152.737 115.817 153.699 115.237 154.809 114.867C155.944 114.472 157.165 114.275 158.472 114.275C160.199 114.275 161.728 114.596 163.06 115.237C164.392 115.878 165.441 116.791 166.205 117.975C166.97 119.134 167.352 120.516 167.352 122.119C167.352 123.772 166.945 125.215 166.131 126.448C165.317 127.681 164.22 128.631 162.838 129.297C161.457 129.963 159.903 130.296 158.176 130.296ZM158.028 127.299C159.163 127.299 160.15 127.089 160.988 126.67C161.852 126.251 162.53 125.671 163.023 124.931C163.517 124.166 163.763 123.278 163.763 122.267C163.763 120.738 163.233 119.529 162.172 118.641C161.112 117.728 159.669 117.272 157.843 117.272C156.659 117.272 155.623 117.494 154.735 117.938C153.847 118.382 153.144 118.986 152.626 119.751C152.133 120.491 151.886 121.342 151.886 122.304C151.886 123.192 152.121 124.018 152.589 124.783C153.058 125.523 153.749 126.127 154.661 126.596C155.574 127.065 156.696 127.299 158.028 127.299Z" fill="#292C33" fill-opacity="0.6"/>
<path d="M145.648 187V162.58L147.239 164.319H139.802V161.1H149.311V187H145.648ZM162.895 187.296C161.069 187.296 159.293 187.012 157.567 186.445C155.865 185.878 154.471 185.113 153.386 184.151L155.088 181.228C155.951 182.042 157.073 182.708 158.455 183.226C159.836 183.744 161.316 184.003 162.895 184.003C164.819 184.003 166.311 183.596 167.372 182.782C168.457 181.943 169 180.821 169 179.415C169 178.058 168.482 176.973 167.446 176.159C166.434 175.32 164.819 174.901 162.599 174.901H160.527V172.311L168.223 162.839L168.741 164.319H154.57V161.1H171.664V163.616L164.005 173.051L162.081 171.904H163.302C166.434 171.904 168.778 172.607 170.332 174.013C171.91 175.419 172.7 177.207 172.7 179.378C172.7 180.833 172.342 182.165 171.627 183.374C170.911 184.583 169.826 185.545 168.371 186.26C166.94 186.951 165.115 187.296 162.895 187.296Z" fill="#292C33" fill-opacity="0.6"/>
<path d="M135.365 244V241.484L145.91 231.309C146.847 230.421 147.538 229.644 147.982 228.978C148.451 228.287 148.759 227.658 148.907 227.091C149.08 226.499 149.166 225.932 149.166 225.389C149.166 224.057 148.697 223.009 147.76 222.244C146.823 221.479 145.454 221.097 143.653 221.097C142.272 221.097 141.026 221.331 139.916 221.8C138.806 222.244 137.844 222.947 137.03 223.909L134.514 221.726C135.501 220.468 136.82 219.506 138.473 218.84C140.15 218.149 141.988 217.804 143.986 217.804C145.787 217.804 147.353 218.1 148.685 218.692C150.017 219.259 151.041 220.086 151.756 221.171C152.496 222.256 152.866 223.539 152.866 225.019C152.866 225.858 152.755 226.684 152.533 227.498C152.311 228.312 151.892 229.175 151.275 230.088C150.658 231.001 149.77 232.024 148.611 233.159L139.213 242.224L138.325 240.781H153.976V244H135.365ZM167.564 244.296C165.541 244.296 163.728 243.778 162.125 242.742C160.546 241.706 159.288 240.201 158.351 238.228C157.438 236.255 156.982 233.862 156.982 231.05C156.982 228.238 157.438 225.845 158.351 223.872C159.288 221.899 160.546 220.394 162.125 219.358C163.728 218.322 165.541 217.804 167.564 217.804C169.562 217.804 171.363 218.322 172.966 219.358C174.569 220.394 175.827 221.899 176.74 223.872C177.653 225.845 178.109 228.238 178.109 231.05C178.109 233.862 177.653 236.255 176.74 238.228C175.827 240.201 174.569 241.706 172.966 242.742C171.363 243.778 169.562 244.296 167.564 244.296ZM167.564 241.003C168.921 241.003 170.105 240.633 171.116 239.893C172.152 239.153 172.954 238.043 173.521 236.563C174.113 235.083 174.409 233.245 174.409 231.05C174.409 228.855 174.113 227.017 173.521 225.537C172.954 224.057 172.152 222.947 171.116 222.207C170.105 221.467 168.921 221.097 167.564 221.097C166.207 221.097 165.011 221.467 163.975 222.207C162.939 222.947 162.125 224.057 161.533 225.537C160.966 227.017 160.682 228.855 160.682 231.05C160.682 233.245 160.966 235.083 161.533 236.563C162.125 238.043 162.939 239.153 163.975 239.893C165.011 240.633 166.207 241.003 167.564 241.003Z" fill="#292C33" fill-opacity="0.6"/>
<path d="M136.648 301V298.484L147.193 288.309C148.13 287.421 148.821 286.644 149.265 285.978C149.733 285.287 150.042 284.658 150.19 284.091C150.362 283.499 150.449 282.932 150.449 282.389C150.449 281.057 149.98 280.009 149.043 279.244C148.105 278.479 146.736 278.097 144.936 278.097C143.554 278.097 142.309 278.331 141.199 278.8C140.089 279.244 139.127 279.947 138.313 280.909L135.797 278.726C136.783 277.468 138.103 276.506 139.756 275.84C141.433 275.149 143.271 274.804 145.269 274.804C147.069 274.804 148.636 275.1 149.968 275.692C151.3 276.259 152.323 277.086 153.039 278.171C153.779 279.256 154.149 280.539 154.149 282.019C154.149 282.858 154.038 283.684 153.816 284.498C153.594 285.312 153.174 286.175 152.558 287.088C151.941 288.001 151.053 289.024 149.894 290.159L140.496 299.224L139.608 297.781H155.259V301H136.648ZM162.742 301L173.731 276.654L174.693 278.319H159.301L161.151 276.506V282.944H157.599V275.1H177.135V277.616L166.664 301H162.742Z" fill="white"/>
<path d="M208.86 187V162.58L210.451 164.319H203.014V161.1H212.523V187H208.86ZM217.818 180.636V178.046L231.064 161.1H235.06L221.925 178.046L220.038 177.454H240.721V180.636H217.818ZM232.211 187V180.636L232.322 177.454V171.83H235.8V187H232.211Z" fill="#292C33" fill-opacity="0.6"/>
<path d="M205.839 244V241.484L216.384 231.309C217.322 230.421 218.012 229.644 218.456 228.978C218.925 228.287 219.233 227.658 219.381 227.091C219.554 226.499 219.64 225.932 219.64 225.389C219.64 224.057 219.172 223.009 218.234 222.244C217.297 221.479 215.928 221.097 214.127 221.097C212.746 221.097 211.5 221.331 210.39 221.8C209.28 222.244 208.318 222.947 207.504 223.909L204.988 221.726C205.975 220.468 207.295 219.506 208.947 218.84C210.625 218.149 212.462 217.804 214.46 217.804C216.261 217.804 217.827 218.1 219.159 218.692C220.491 219.259 221.515 220.086 222.23 221.171C222.97 222.256 223.34 223.539 223.34 225.019C223.34 225.858 223.229 226.684 223.007 227.498C222.785 228.312 222.366 229.175 221.749 230.088C221.133 231.001 220.245 232.024 219.085 233.159L209.687 242.224L208.799 240.781H224.45V244H205.839ZM231.858 244V219.58L233.449 221.319H226.012V218.1H235.521V244H231.858Z" fill="#292C33" fill-opacity="0.6"/>
<path d="M200.781 301V298.484L211.326 288.309C212.263 287.421 212.954 286.644 213.398 285.978C213.866 285.287 214.175 284.658 214.323 284.091C214.495 283.499 214.582 282.932 214.582 282.389C214.582 281.057 214.113 280.009 213.176 279.244C212.238 278.479 210.869 278.097 209.069 278.097C207.687 278.097 206.442 278.331 205.332 278.8C204.222 279.244 203.26 279.947 202.446 280.909L199.93 278.726C200.916 277.468 202.236 276.506 203.889 275.84C205.566 275.149 207.404 274.804 209.402 274.804C211.202 274.804 212.769 275.1 214.101 275.692C215.433 276.259 216.456 277.086 217.172 278.171C217.912 279.256 218.282 280.539 218.282 282.019C218.282 282.858 218.171 283.684 217.949 284.498C217.727 285.312 217.307 286.175 216.691 287.088C216.074 288.001 215.186 289.024 214.027 290.159L204.629 299.224L203.741 297.781H219.392V301H200.781ZM232.535 301.296C230.438 301.296 228.625 300.988 227.096 300.371C225.566 299.754 224.382 298.879 223.544 297.744C222.705 296.585 222.286 295.228 222.286 293.674C222.286 292.145 222.68 290.85 223.47 289.789C224.284 288.704 225.455 287.89 226.985 287.347C228.514 286.78 230.364 286.496 232.535 286.496C234.705 286.496 236.555 286.78 238.085 287.347C239.639 287.89 240.823 288.704 241.637 289.789C242.451 290.874 242.858 292.169 242.858 293.674C242.858 295.228 242.438 296.585 241.6 297.744C240.761 298.879 239.565 299.754 238.011 300.371C236.457 300.988 234.631 301.296 232.535 301.296ZM232.535 298.299C234.607 298.299 236.222 297.88 237.382 297.041C238.566 296.178 239.158 295.018 239.158 293.563C239.158 292.132 238.566 291.01 237.382 290.196C236.222 289.357 234.607 288.938 232.535 288.938C230.487 288.938 228.884 289.357 227.725 290.196C226.565 291.01 225.986 292.132 225.986 293.563C225.986 295.018 226.565 296.178 227.725 297.041C228.884 297.88 230.487 298.299 232.535 298.299ZM232.535 288.494C230.561 288.494 228.884 288.235 227.503 287.717C226.121 287.174 225.061 286.41 224.321 285.423C223.581 284.412 223.211 283.215 223.211 281.834C223.211 280.379 223.593 279.133 224.358 278.097C225.147 277.036 226.245 276.222 227.651 275.655C229.057 275.088 230.685 274.804 232.535 274.804C234.409 274.804 236.05 275.088 237.456 275.655C238.862 276.222 239.959 277.036 240.749 278.097C241.538 279.133 241.933 280.379 241.933 281.834C241.933 283.215 241.563 284.412 240.823 285.423C240.083 286.41 239.01 287.174 237.604 287.717C236.198 288.235 234.508 288.494 232.535 288.494ZM232.535 286.126C234.335 286.126 235.741 285.756 236.753 285.016C237.789 284.276 238.307 283.265 238.307 281.982C238.307 280.675 237.776 279.651 236.716 278.911C235.655 278.171 234.261 277.801 232.535 277.801C230.808 277.801 229.427 278.171 228.391 278.911C227.379 279.651 226.874 280.675 226.874 281.982C226.874 283.265 227.367 284.276 228.354 285.016C229.365 285.756 230.759 286.126 232.535 286.126Z" fill="#292C33" fill-opacity="0.6"/>
<path d="M217.137 130L228.126 105.654L229.088 107.319H213.696L215.546 105.506V111.944H211.994V104.1H231.53V106.616L221.059 130H217.137Z" fill="#292C33" fill-opacity="0.6"/>
<path d="M404.179 187V162.58L405.77 164.319H398.333V161.1H407.842V187H404.179ZM417.984 187L428.973 162.654L429.935 164.319H414.543L416.393 162.506V168.944H412.841V161.1H432.377V163.616L421.906 187H417.984Z" fill="#292C33" fill-opacity="0.6"/>
<path d="M285.735 78.1351V53.7151L287.326 55.4541H279.889V52.2351H289.398V78.1351H285.735Z" fill="#292C33" fill-opacity="0.6"/>
<path d="M408.2 301.296C406.375 301.296 404.599 301.012 402.872 300.445C401.17 299.878 399.777 299.113 398.691 298.151L400.393 295.228C401.257 296.042 402.379 296.708 403.76 297.226C405.142 297.744 406.622 298.003 408.2 298.003C410.124 298.003 411.617 297.596 412.677 296.782C413.763 295.943 414.305 294.821 414.305 293.415C414.305 292.058 413.787 290.973 412.751 290.159C411.74 289.32 410.124 288.901 407.904 288.901H405.832V286.311L413.528 276.839L414.046 278.319H399.875V275.1H416.969V277.616L409.31 287.051L407.386 285.904H408.607C411.74 285.904 414.083 286.607 415.637 288.013C417.216 289.419 418.005 291.207 418.005 293.378C418.005 294.833 417.648 296.165 416.932 297.374C416.217 298.583 415.132 299.545 413.676 300.26C412.246 300.951 410.42 301.296 408.2 301.296ZM425.822 301V276.58L427.413 278.319H419.976V275.1H429.485V301H425.822Z" fill="#292C33" fill-opacity="0.6"/>
</g>
</g>
</g>
<defs>
<clipPath id="clip0_3525_5650">
<rect width="438" height="313" fill="white" transform="translate(0.5)"/>
</clipPath>
</defs>
</svg>
