<svg width="2849" height="625" viewBox="0 0 2849 625" fill="none" xmlns="http://www.w3.org/2000/svg">
<g clip-path="url(#clip0_2022_3990)">
<path d="M1612.1 216.577V220.052L1612.8 220.46L1663.74 191.029L1663.75 131.137L1721.88 97.5514L1773.72 127.494L1824.66 98.0631L1824.66 38.1709L1882.8 4.58544L1940.97 38.2497L1940.98 99.5362L1994.02 130.18L1994.02 191.467L2040.56 218.475L2091.51 189.045L2091.51 129.153L2149.64 95.5672L2201.48 125.509L2256.02 94.0014L2310.26 125.347L2363.6 94.5318L2421.78 128.196L2421.78 189.483L2470.09 217.808L2523.11 187.174L2519.27 127.168L2572.61 96.3528L2572.61 33.672L2630.89 0L2685.13 31.3459L2738.47 0.530338L2796.65 34.1946L2796.65 95.4811L2849.69 126.125L2849.7 187.412L2896.24 214.42L2950.78 182.912L3008.96 216.577L3008.96 277.863L3062 308.507L3061.98 338H51.1271L51.1268 320.867L-1.91334 290.223L-1.91438 228.937L-54.9545 198.293L-55 131.043L3.13337 97.4576L57.8731 129.316L111.212 98.5002L169.391 132.165L169.392 193.451L215.94 220.46L266.881 191.029L266.886 131.137L325.019 97.5514L376.855 127.494L427.797 98.0631L427.801 38.1709L485.935 4.58544L544.114 38.2497L544.115 99.5362L597.155 130.18L597.156 191.467L643.704 218.475L694.645 189.045L694.65 129.153L752.783 95.5672L804.619 125.509L859.157 94.0014L913.401 125.347L966.74 94.5318L1024.92 128.196L1024.92 189.483L1073.23 217.808L1126.25 187.174L1122.41 127.168L1175.75 96.3528L1175.75 33.672L1234.03 0L1288.27 31.3459L1341.61 0.530338L1399.79 34.1946L1399.79 95.4811L1452.83 126.125V128.209L1454.73 129.316L1508.07 98.5002L1566.25 132.165L1566.25 190.049L1612.1 216.577Z" fill="#191B3E"/>
<rect x="-2" y="219" width="3064" height="407" fill="#191B3E"/>
</g>
<defs>
<clipPath id="clip0_2022_3990">
<rect width="2849" height="625" fill="white"/>
</clipPath>
</defs>
</svg>
