<svg width="48" height="35" viewBox="0 0 48 35" fill="none" xmlns="http://www.w3.org/2000/svg">
<path d="M32.3415 0.221558C32.9103 0.221558 33.4557 0.447483 33.8578 0.849633C34.26 1.25178 34.4859 1.79721 34.4859 2.36594V11.3723L45.6646 3.54535C45.8253 3.43268 46.0139 3.36629 46.2098 3.35343C46.4057 3.34057 46.6013 3.38174 46.7754 3.47243C46.9495 3.56313 47.0953 3.69987 47.1971 3.86776C47.2988 4.03566 47.3524 4.22825 47.3522 4.42455V30.3287C47.3524 30.525 47.2988 30.7176 47.1971 30.8855C47.0953 31.0534 46.9495 31.1901 46.7754 31.2808C46.6013 31.3715 46.4057 31.4127 46.2098 31.3998C46.0139 31.387 45.8253 31.3206 45.6646 31.2079L34.4859 23.3809V32.3873C34.4859 32.956 34.26 33.5015 33.8578 33.9036C33.4557 34.3058 32.9103 34.5317 32.3415 34.5317H2.32016C1.75144 34.5317 1.20601 34.3058 0.803856 33.9036C0.401707 33.5015 0.175781 32.956 0.175781 32.3873V2.36594C0.175781 1.79721 0.401707 1.25178 0.803856 0.849633C1.20601 0.447483 1.75144 0.221558 2.32016 0.221558H32.3415ZM19.4752 8.79909H15.1865V17.3766H8.75331L17.3308 25.9542L25.9084 17.3766H19.4752V8.79909Z" fill="#4E75D8"/>
</svg>
