<svg width="345" height="19" viewBox="0 0 345 19" fill="none" xmlns="http://www.w3.org/2000/svg">
<g clip-path="url(#clip0_4077_985)">
<mask id="mask0_4077_985" style="mask-type:luminance" maskUnits="userSpaceOnUse" x="0" y="-121" width="345" height="253">
<path d="M289.871 -121L0 -6.1709L54.4201 131.206L344.292 16.3767L289.871 -121Z" fill="white"/>
</mask>
<g mask="url(#mask0_4077_985)">
<path d="M89.5782 7.35205L81.6927 7.43105L81.6777 12.06L89.5632 11.98L89.5782 7.35205Z" fill="white"/>
<path d="M47.4142 7.52588L39.5287 7.60487L39.5137 12.2329L47.3992 12.1539L47.4142 7.52588Z" fill="white"/>
<path d="M75.4483 7.41113L67.5629 7.49014L67.5479 12.1181L75.4333 12.0391L75.4483 7.41113Z" fill="white"/>
<path d="M33.2832 7.58398L25.3978 7.66399L25.3828 12.292L33.2682 12.213L33.2832 7.58398Z" fill="white"/>
<path d="M61.3185 7.46777L53.433 7.54677L53.418 12.1758L61.3035 12.0968L61.3185 7.46777Z" fill="white"/>
<path d="M19.1534 7.64307L11.2679 7.72206L11.2529 12.3501L19.1384 12.2711L19.1534 7.64307Z" fill="white"/>
<path d="M170.887 9.20398L154.693 0.833984L154.685 7.00099L96.0997 7.47499L96.0938 12.188L154.679 11.714L154.671 17.881L170.887 9.20398Z" fill="white"/>
<path d="M256.944 8.375L249.059 8.45399L249.044 13.083L256.929 13.003L256.944 8.375Z" fill="white"/>
<path d="M214.78 8.54785L206.895 8.62685L206.88 13.2558L214.765 13.1768L214.78 8.54785Z" fill="white"/>
<path d="M242.814 8.43311L234.929 8.5121L234.914 13.1401L242.799 13.0611L242.814 8.43311Z" fill="white"/>
<path d="M200.649 8.60693L192.764 8.68594L192.749 13.3139L200.634 13.2349L200.649 8.60693Z" fill="white"/>
<path d="M228.683 8.49121L220.798 8.57022L220.783 13.1992L228.668 13.1202L228.683 8.49121Z" fill="white"/>
<path d="M186.519 8.66406L178.634 8.74406L178.619 13.3721L186.504 13.2931L186.519 8.66406Z" fill="white"/>
<path d="M338.252 10.2269L322.058 1.85693L322.05 8.02393L263.465 8.49793L263.459 13.2109L322.045 12.7369L322.037 18.9039L338.252 10.2269Z" fill="white"/>
</g>
</g>
<defs>
<clipPath id="clip0_4077_985">
<rect width="345" height="19" fill="white"/>
</clipPath>
</defs>
</svg>
