<svg width="796" height="783" viewBox="0 0 796 783" fill="none" xmlns="http://www.w3.org/2000/svg">
<g opacity="0.72">
<path d="M152.695 223.052L334.702 122.924L277.221 91.2983L22.9557 231.182L135.459 293.078L207.721 253.322L152.695 223.052Z" fill="#00A7E4"/>
<path d="M422.173 687.013L355.793 650.496L269.297 698.082L381.803 759.975L636.065 620.091L589.943 594.716L422.173 687.013Z" fill="#00A7E4"/>
<path d="M202.243 242.89L298.919 189.701L395.599 242.89V349.268L298.919 402.456L202.243 349.268V242.89Z" fill="#37C9FF"/>
<path d="M636.893 40.3662L490.794 120.743V182.687L546.535 152.023L692.632 232.4V331.211L782.989 281.499V120.743L636.893 40.3662Z" fill="#37C9FF"/>
<path d="M578.33 434.332L474.631 377.28L451.784 389.852V496.228L548.461 549.416L645.137 496.228V397.576L578.33 434.332Z" fill="#37C9FF"/>
<path d="M782.989 281.499V120.743H782.986L636.333 201.426L692.632 232.4V331.212L782.989 281.499Z" fill="#8EE4FF"/>
<path d="M395.599 349.268V242.89L202.243 349.265V349.268L298.919 402.456L395.599 349.268Z" fill="#00A7E4"/>
<path d="M183.31 625.016L230.366 599.127L277.423 625.016V676.794L230.366 702.683L183.31 676.794V625.016Z" fill="#37C9FF"/>
<path d="M202.242 349.265V349.268L298.919 402.456V296.078L202.242 349.265Z" fill="#37C9FF"/>
<path d="M181.442 514.928L181.417 485.471L0.000244141 585.276V627.55L74.085 668.306L267.844 561.712L181.442 514.928Z" fill="#00A7E4"/>
<path d="M836.802 0.311035H756.312L555.925 110.554L668.428 172.448L836.802 79.8192V0.311035Z" fill="#00A7E4"/>
<path d="M230.366 650.905V702.683L277.423 676.794V625.016L230.366 650.905Z" fill="#8EE4FF"/>
<path d="M479.312 255.555L566.326 207.684L653.338 255.555V351.298L566.326 399.169L479.312 351.298V255.555Z" fill="#37C9FF"/>
<path d="M566.326 303.427V399.17L653.338 351.298V255.555L566.326 303.427Z" fill="#8EE4FF"/>
<path d="M262.818 449.557L337.236 408.617L411.652 449.557V531.444L337.236 572.384L262.818 531.444V449.557Z" fill="#37C9FF"/>
<path d="M337.236 490.5V572.384L411.652 531.444V449.557L337.236 490.5Z" fill="#8EE4FF"/>
<path d="M103.093 151.263L138.388 131.848L173.68 151.263V190.095L138.388 209.515L103.093 190.095V151.263Z" fill="#37C9FF"/>
<path d="M138.388 170.682V209.515L173.68 190.095V151.263L138.388 170.682Z" fill="#8EE4FF"/>
<path d="M20.1477 320.109L82.9517 285.56L145.749 320.109V389.214L82.9517 423.762L20.1477 389.214V320.109Z" fill="#37C9FF"/>
<path d="M82.9517 354.66V423.761L145.749 389.214V320.109L82.9517 354.66Z" fill="#8EE4FF"/>
<path d="M371.12 306.993L413.594 283.625L456.066 306.993V353.727L413.594 377.093L371.12 353.727V306.993Z" fill="#37C9FF"/>
<path d="M413.594 330.356V377.094L456.066 353.727V306.993L413.594 330.356Z" fill="#8EE4FF"/>
<path d="M723.76 340.626L773.305 313.366L822.85 340.626V395.143L773.305 422.399L723.76 395.143V340.626Z" fill="#8EE4FF"/>
<path d="M773.305 367.879V422.397L822.85 395.142V340.625L773.305 367.879Z" fill="#00A7E4"/>
<path d="M82.3269 440.884L119.704 420.322L157.079 440.884V482.012L119.704 502.577L82.3269 482.012V440.884Z" fill="#8EE4FF"/>
<path d="M119.704 461.448V502.578L157.079 482.013V440.885L119.704 461.448Z" fill="#00A7E4"/>
<path d="M290.971 209.865L323.101 192.187L355.231 209.865V245.218L323.101 262.896L290.971 245.218V209.865Z" fill="#93E3FF"/>
<path d="M323.101 227.54V262.893L355.231 245.218V209.865L323.101 227.54Z" fill="#00A7E4"/>
<path d="M734.306 170.248L766.436 152.573L798.565 170.248V205.601L766.436 223.279L734.306 205.601V170.248Z" fill="#93E3FF"/>
<path d="M766.436 187.926V223.279L798.565 205.601V170.248L766.436 187.926Z" fill="#00A7E4"/>
<path d="M219.066 118.866L243.879 105.215L268.692 118.866V146.17L243.879 159.82L219.066 146.17V118.866Z" fill="#93E3FF"/>
<path d="M243.879 132.517V159.817L268.692 146.169V118.866L243.879 132.517Z" fill="#00A7E4"/>
<path d="M553.388 207.45L585.517 189.771L617.646 207.45V242.803L585.517 260.478L553.388 242.803V207.45Z" fill="#93E3FF"/>
<path d="M585.517 225.125V260.478L617.646 242.803V207.45L585.517 225.125Z" fill="#00A7E4"/>
<path d="M361.137 541.661L387.365 527.23L413.593 541.661V570.519L387.365 584.949L361.137 570.519V541.661Z" fill="#93E3FF"/>
<path d="M387.365 556.092V584.946L413.593 570.519V541.661L387.365 556.092Z" fill="#00A7E4"/>
<path d="M38.838 552.185L70.9643 534.507L103.094 552.185V587.538L70.9643 605.215L38.838 587.538V552.185Z" fill="#93E3FF"/>
<path d="M70.9643 569.86V605.213L103.094 587.538V552.185L70.9643 569.86Z" fill="#00A7E4"/>
<path d="M614.342 42.4761L672.038 10.7363L729.734 42.4761V105.962L672.038 137.708L614.342 105.962V42.4761Z" fill="#93E3FF"/>
<path d="M672.038 74.2228V137.706L729.734 105.963V42.4766L672.038 74.2228Z" fill="#00A7E4"/>
<path d="M239.612 450.97L269.265 434.654L298.919 450.97V483.597L269.265 499.912L239.612 483.597V450.97Z" fill="#8EE4FF"/>
<path d="M269.265 467.282V499.913L298.919 483.598V450.97L269.265 467.282Z" fill="#00A7E4"/>
<path d="M374.243 139.363L411.621 118.797L448.995 139.363V180.49L411.621 201.055L374.243 180.49V139.363Z" fill="#8EE4FF"/>
<path d="M411.621 159.928V201.052L448.995 180.49V139.363L411.621 159.928Z" fill="#00A7E4"/>
<path d="M453.521 552.073L490.899 531.508L528.276 552.073V593.199L490.899 613.763L453.521 593.199V552.073Z" fill="#8EE4FF"/>
<path d="M490.899 572.634V613.762L528.276 593.199V552.072L490.899 572.634Z" fill="#37C9FF"/>
<path d="M757.515 442.956L786.572 426.971L815.625 442.956V474.924L786.572 490.911L757.515 474.924V442.956Z" fill="#8EE4FF"/>
<path d="M786.572 458.94V490.911L815.625 474.925V442.956L786.572 458.94Z" fill="#37C9FF"/>
<path d="M167.715 729.425L199.845 711.747L231.975 729.425V764.778L199.845 782.456L167.715 764.778V729.425Z" fill="#93E3FF"/>
<path d="M199.845 747.098V782.451L231.975 764.776V729.423L199.845 747.098Z" fill="#00A7E4"/>
</g>
<path d="M577.582 353.214C578.111 353.214 578.625 352.954 578.909 352.487C579.333 351.789 579.082 350.896 578.35 350.492L513.867 314.963L513.871 244.907L577.583 209.799L641.297 244.907V315.804C641.297 316.609 641.984 317.263 642.83 317.263C643.675 317.263 644.361 316.609 644.361 315.804V244.064C644.361 243.544 644.069 243.063 643.596 242.801L578.349 206.85C577.874 206.59 577.291 206.59 576.817 206.85L511.574 242.802C511.102 243.064 510.81 243.545 510.81 244.065L510.807 315.805C510.807 316.325 511.099 316.808 511.571 317.068L576.818 353.019C577.058 353.151 577.322 353.214 577.582 353.214Z" fill="#7DDCFF"/>
<path d="M577.582 353.214C578.111 353.214 578.625 352.954 578.909 352.487C579.333 351.789 579.082 350.896 578.35 350.492L513.867 314.963L513.871 244.907L577.583 209.799L641.297 244.907V315.804C641.297 316.609 641.984 317.263 642.83 317.263C643.675 317.263 644.361 316.609 644.361 315.804V244.064C644.361 243.544 644.069 243.063 643.596 242.801L578.349 206.85C577.874 206.59 577.291 206.59 576.817 206.85L511.574 242.802C511.102 243.064 510.81 243.545 510.81 244.065L510.807 315.805C510.807 316.325 511.099 316.808 511.571 317.068L576.818 353.019C577.058 353.151 577.322 353.214 577.582 353.214Z" fill="#1D2332"/>
<path d="M577.585 281.395C577.845 281.395 578.107 281.331 578.348 281.198L643.595 245.329C644.327 244.927 644.578 244.034 644.156 243.336C643.734 242.639 642.796 242.397 642.065 242.802L576.819 278.672C576.087 279.074 575.834 279.967 576.257 280.665C576.541 281.133 577.056 281.395 577.585 281.395Z" fill="#7DDCFF"/>
<path d="M577.585 281.395C577.845 281.395 578.107 281.331 578.348 281.198L643.595 245.329C644.327 244.927 644.578 244.034 644.156 243.336C643.734 242.639 642.796 242.397 642.065 242.802L576.819 278.672C576.087 279.074 575.834 279.967 576.257 280.665C576.541 281.133 577.056 281.395 577.585 281.395Z" fill="#1D2332"/>
<path d="M577.584 353.213C578.429 353.213 579.115 352.561 579.115 351.754V279.934C579.115 279.129 578.429 278.475 577.584 278.475C576.737 278.475 576.052 279.129 576.052 279.934V351.754C576.053 352.561 576.737 353.213 577.584 353.213Z" fill="#7DDCFF"/>
<path d="M577.584 353.213C578.429 353.213 579.115 352.561 579.115 351.754V279.934C579.115 279.129 578.429 278.475 577.584 278.475C576.737 278.475 576.052 279.129 576.052 279.934V351.754C576.053 352.561 576.737 353.213 577.584 353.213Z" fill="#1D2332"/>
<path d="M447.084 353.213C447.349 353.213 447.613 353.149 447.85 353.018L513.096 317.067C513.568 316.807 513.859 316.324 513.859 315.804L513.863 244.064C513.863 243.544 513.571 243.063 513.099 242.801L447.85 206.85C447.375 206.59 446.792 206.59 446.317 206.85L381.072 242.801C380.599 243.063 380.308 243.544 380.308 244.064V315.804C380.308 316.324 380.599 316.807 381.071 317.067L446.317 353.018C446.553 353.149 446.818 353.213 447.084 353.213ZM510.798 314.963L447.084 350.069L383.369 314.963V244.907L447.084 209.799L510.801 244.907L510.798 314.963Z" fill="#7DDCFF"/>
<path d="M447.084 353.213C447.349 353.213 447.613 353.149 447.85 353.018L513.096 317.067C513.568 316.807 513.859 316.324 513.859 315.804L513.863 244.064C513.863 243.544 513.571 243.063 513.099 242.801L447.85 206.85C447.375 206.59 446.792 206.59 446.317 206.85L381.072 242.801C380.599 243.063 380.308 243.544 380.308 244.064V315.804C380.308 316.324 380.599 316.807 381.071 317.067L446.317 353.018C446.553 353.149 446.818 353.213 447.084 353.213ZM510.798 314.963L447.084 350.069L383.369 314.963V244.907L447.084 209.799L510.801 244.907L510.798 314.963Z" fill="#1D2332"/>
<path d="M447.083 281.394C447.345 281.394 447.607 281.33 447.847 281.197L513.096 245.327C513.828 244.925 514.081 244.032 513.657 243.334C513.235 242.637 512.3 242.395 511.567 242.8L446.316 278.67C445.583 279.072 445.332 279.965 445.754 280.663C446.039 281.132 446.556 281.394 447.083 281.394Z" fill="#7DDCFF"/>
<path d="M447.083 281.394C447.345 281.394 447.607 281.33 447.847 281.197L513.096 245.327C513.828 244.925 514.081 244.032 513.657 243.334C513.235 242.637 512.3 242.395 511.567 242.8L446.316 278.67C445.583 279.072 445.332 279.965 445.754 280.663C446.039 281.132 446.556 281.394 447.083 281.394Z" fill="#1D2332"/>
<path d="M447.082 353.213C447.927 353.213 448.613 352.561 448.613 351.754V279.934C448.613 279.129 447.927 278.475 447.082 278.475C446.234 278.475 445.549 279.129 445.549 279.934V351.754C445.548 352.561 446.234 353.213 447.082 353.213Z" fill="#7DDCFF"/>
<path d="M447.082 353.213C447.927 353.213 448.613 352.561 448.613 351.754V279.934C448.613 279.129 447.927 278.475 447.082 278.475C446.234 278.475 445.549 279.129 445.549 279.934V351.754C445.548 352.561 446.234 353.213 447.082 353.213Z" fill="#1D2332"/>
<path d="M316.602 353.212C316.865 353.212 317.131 353.149 317.368 353.018L382.612 317.066C383.085 316.806 383.377 316.324 383.377 315.804V244.063C383.377 243.543 383.086 243.063 382.612 242.8L317.368 206.85C316.893 206.59 316.308 206.59 315.835 206.85L250.589 242.8C250.116 243.063 249.825 243.543 249.825 244.063L249.822 315.804C249.822 316.324 250.114 316.806 250.586 317.066L315.835 353.018C316.071 353.149 316.336 353.212 316.602 353.212ZM380.316 314.963L316.602 350.068L252.884 314.963L252.885 244.906L316.602 209.798L380.316 244.906V314.963Z" fill="#7DDCFF"/>
<path d="M316.602 353.212C316.865 353.212 317.131 353.149 317.368 353.018L382.612 317.066C383.085 316.806 383.377 316.324 383.377 315.804V244.063C383.377 243.543 383.086 243.063 382.612 242.8L317.368 206.85C316.893 206.59 316.308 206.59 315.835 206.85L250.589 242.8C250.116 243.063 249.825 243.543 249.825 244.063L249.822 315.804C249.822 316.324 250.114 316.806 250.586 317.066L315.835 353.018C316.071 353.149 316.336 353.212 316.602 353.212ZM380.316 314.963L316.602 350.068L252.884 314.963L252.885 244.906L316.602 209.798L380.316 244.906V314.963Z" fill="#1D2332"/>
<path d="M316.604 281.393C317.134 281.393 317.649 281.131 317.932 280.663C318.354 279.966 318.104 279.073 317.37 278.67L252.124 242.8C251.393 242.396 250.454 242.636 250.032 243.335C249.61 244.034 249.86 244.926 250.594 245.328L315.84 281.198C316.081 281.33 316.345 281.393 316.604 281.393Z" fill="#7DDCFF"/>
<path d="M316.604 281.393C317.134 281.393 317.649 281.131 317.932 280.663C318.354 279.966 318.104 279.073 317.37 278.67L252.124 242.8C251.393 242.396 250.454 242.636 250.032 243.335C249.61 244.034 249.86 244.926 250.594 245.328L315.84 281.198C316.081 281.33 316.345 281.393 316.604 281.393Z" fill="#1D2332"/>
<path d="M316.605 353.212C317.451 353.212 318.137 352.56 318.137 351.753V279.933C318.137 279.127 317.451 278.474 316.605 278.474C315.758 278.474 315.073 279.127 315.073 279.933V351.753C315.073 352.56 315.759 353.212 316.605 353.212Z" fill="#7DDCFF"/>
<path d="M316.605 353.212C317.451 353.212 318.137 352.56 318.137 351.753V279.933C318.137 279.127 317.451 278.474 316.605 278.474C315.758 278.474 315.073 279.127 315.073 279.933V351.753C315.073 352.56 315.759 353.212 316.605 353.212Z" fill="#1D2332"/>
<path d="M512.334 460.905C512.596 460.905 512.858 460.842 513.101 460.709L578.345 424.757C578.818 424.497 579.109 424.015 579.109 423.495V351.754C579.109 351.234 578.818 350.754 578.345 350.491L513.101 314.541C512.626 314.279 512.041 314.279 511.566 314.541L446.321 350.491C445.847 350.754 445.555 351.234 445.555 351.754V423.495C445.555 424.3 446.241 424.954 447.088 424.954C447.933 424.954 448.619 424.3 448.619 423.495V352.597L512.334 317.489L576.049 352.597V422.653L511.566 458.182C510.835 458.587 510.585 459.477 511.007 460.175C511.292 460.643 511.805 460.905 512.334 460.905Z" fill="#7DDCFF"/>
<path d="M512.334 460.905C512.596 460.905 512.858 460.842 513.101 460.709L578.345 424.757C578.818 424.497 579.109 424.015 579.109 423.495V351.754C579.109 351.234 578.818 350.754 578.345 350.491L513.101 314.541C512.626 314.279 512.041 314.279 511.566 314.541L446.321 350.491C445.847 350.754 445.555 351.234 445.555 351.754V423.495C445.555 424.3 446.241 424.954 447.088 424.954C447.933 424.954 448.619 424.3 448.619 423.495V352.597L512.334 317.489L576.049 352.597V422.653L511.566 458.182C510.835 458.587 510.585 459.477 511.007 460.175C511.292 460.643 511.805 460.905 512.334 460.905Z" fill="#1D2332"/>
<path d="M512.339 389.084C512.599 389.084 512.863 389.022 513.104 388.888L578.349 353.018C579.081 352.616 579.334 351.723 578.91 351.025C578.488 350.327 577.551 350.088 576.82 350.49L511.573 386.36C510.839 386.762 510.59 387.655 511.012 388.353C511.297 388.823 511.81 389.084 512.339 389.084Z" fill="#7DDCFF"/>
<path d="M512.339 389.084C512.599 389.084 512.863 389.022 513.104 388.888L578.349 353.018C579.081 352.616 579.334 351.723 578.91 351.025C578.488 350.327 577.551 350.088 576.82 350.49L511.573 386.36C510.839 386.762 510.59 387.655 511.012 388.353C511.297 388.823 511.81 389.084 512.339 389.084Z" fill="#1D2332"/>
<path d="M512.334 460.905C513.179 460.905 513.863 460.251 513.863 459.444V387.626C513.863 386.818 513.179 386.166 512.334 386.166C511.488 386.166 510.802 386.819 510.802 387.626V459.444C510.802 460.251 511.488 460.905 512.334 460.905Z" fill="#7DDCFF"/>
<path d="M512.334 460.905C513.179 460.905 513.863 460.251 513.863 459.444V387.626C513.863 386.818 513.179 386.166 512.334 386.166C511.488 386.166 510.802 386.819 510.802 387.626V459.444C510.802 460.251 511.488 460.905 512.334 460.905Z" fill="#1D2332"/>
<path d="M381.844 460.905C382.107 460.905 382.373 460.84 382.61 460.709L447.856 424.757C448.328 424.497 448.62 424.015 448.62 423.495V351.754C448.62 351.234 448.328 350.754 447.856 350.491L382.61 314.541C382.135 314.279 381.55 314.279 381.075 314.541L315.832 350.491C315.357 350.754 315.066 351.234 315.066 351.754V423.495C315.066 424.015 315.357 424.497 315.83 424.757L381.075 460.709C381.314 460.84 381.577 460.905 381.844 460.905ZM445.555 422.652L381.844 457.759L318.128 422.652L318.13 352.596L381.844 317.489L445.556 352.597V422.652H445.555Z" fill="#7DDCFF"/>
<path d="M381.844 460.905C382.107 460.905 382.373 460.84 382.61 460.709L447.856 424.757C448.328 424.497 448.62 424.015 448.62 423.495V351.754C448.62 351.234 448.328 350.754 447.856 350.491L382.61 314.541C382.135 314.279 381.55 314.279 381.075 314.541L315.832 350.491C315.357 350.754 315.066 351.234 315.066 351.754V423.495C315.066 424.015 315.357 424.497 315.83 424.757L381.075 460.709C381.314 460.84 381.577 460.905 381.844 460.905ZM445.555 422.652L381.844 457.759L318.128 422.652L318.13 352.596L381.844 317.489L445.556 352.597V422.652H445.555Z" fill="#1D2332"/>
<path d="M381.843 389.084C382.101 389.084 382.365 389.021 382.606 388.887L447.852 353.017C448.585 352.615 448.837 351.722 448.414 351.024C447.99 350.327 447.053 350.087 446.321 350.49L381.077 386.36C380.345 386.762 380.092 387.655 380.515 388.353C380.799 388.823 381.313 389.084 381.843 389.084Z" fill="#7DDCFF"/>
<path d="M381.843 389.084C382.101 389.084 382.365 389.021 382.606 388.887L447.852 353.017C448.585 352.615 448.837 351.722 448.414 351.024C447.99 350.327 447.053 350.087 446.321 350.49L381.077 386.36C380.345 386.762 380.092 387.655 380.515 388.353C380.799 388.823 381.313 389.084 381.843 389.084Z" fill="#1D2332"/>
<path d="M381.84 460.905C382.685 460.905 383.371 460.251 383.371 459.444V387.626C383.371 386.818 382.685 386.166 381.84 386.166C380.993 386.166 380.309 386.819 380.309 387.626V459.444C380.309 460.251 380.993 460.905 381.84 460.905Z" fill="#7DDCFF"/>
<path d="M381.84 460.905C382.685 460.905 383.371 460.251 383.371 459.444V387.626C383.371 386.818 382.685 386.166 381.84 386.166C380.993 386.166 380.309 386.819 380.309 387.626V459.444C380.309 460.251 380.993 460.905 381.84 460.905Z" fill="#1D2332"/>
<path d="M512.334 245.525C512.597 245.525 512.862 245.459 513.101 245.329L578.345 209.377C578.818 209.117 579.109 208.634 579.109 208.114V136.374C579.109 135.854 578.818 135.373 578.345 135.111L513.101 99.1605C512.626 98.8983 512.041 98.8983 511.566 99.1605L446.321 135.111C445.847 135.373 445.555 135.854 445.555 136.374V208.114C445.555 208.634 445.847 209.117 446.321 209.377L511.566 245.329C511.804 245.459 512.069 245.525 512.334 245.525ZM576.049 207.272L512.334 242.38L448.619 207.272V137.217L512.334 102.109L576.049 137.217V207.272Z" fill="#7DDCFF"/>
<path d="M512.334 245.525C512.597 245.525 512.862 245.459 513.101 245.329L578.345 209.377C578.818 209.117 579.109 208.634 579.109 208.114V136.374C579.109 135.854 578.818 135.373 578.345 135.111L513.101 99.1605C512.626 98.8983 512.041 98.8983 511.566 99.1605L446.321 135.111C445.847 135.373 445.555 135.854 445.555 136.374V208.114C445.555 208.634 445.847 209.117 446.321 209.377L511.566 245.329C511.804 245.459 512.069 245.525 512.334 245.525ZM576.049 207.272L512.334 242.38L448.619 207.272V137.217L512.334 102.109L576.049 137.217V207.272Z" fill="#1D2332"/>
<path d="M512.339 173.703C512.599 173.703 512.863 173.641 513.104 173.509L578.349 137.639C579.081 137.237 579.334 136.344 578.91 135.646C578.488 134.948 577.551 134.707 576.82 135.111L511.573 170.981C510.839 171.383 510.59 172.276 511.012 172.974C511.297 173.443 511.81 173.703 512.339 173.703Z" fill="#7DDCFF"/>
<path d="M512.339 173.703C512.599 173.703 512.863 173.641 513.104 173.509L578.349 137.639C579.081 137.237 579.334 136.344 578.91 135.646C578.488 134.948 577.551 134.707 576.82 135.111L511.573 170.981C510.839 171.383 510.59 172.276 511.012 172.974C511.297 173.443 511.81 173.703 512.339 173.703Z" fill="#1D2332"/>
<path d="M512.334 245.524C513.179 245.524 513.863 244.87 513.863 244.064V172.245C513.863 171.439 513.179 170.785 512.334 170.785C511.488 170.785 510.802 171.439 510.802 172.245V244.064C510.802 244.87 511.488 245.524 512.334 245.524Z" fill="#7DDCFF"/>
<path d="M512.334 245.524C513.179 245.524 513.863 244.87 513.863 244.064V172.245C513.863 171.439 513.179 170.785 512.334 170.785C511.488 170.785 510.802 171.439 510.802 172.245V244.064C510.802 244.87 511.488 245.524 512.334 245.524Z" fill="#1D2332"/>
<path d="M381.844 245.524C382.107 245.524 382.373 245.458 382.61 245.328L447.856 209.376C448.328 209.116 448.62 208.633 448.62 208.113V136.373C448.62 135.568 447.933 134.914 447.088 134.914C446.241 134.914 445.556 135.568 445.556 136.373V207.27L381.844 242.379L318.128 207.271L318.13 137.216L382.611 101.686C383.342 101.282 383.592 100.389 383.17 99.6932C382.746 98.9955 381.809 98.7563 381.076 99.1605L315.833 135.111C315.358 135.373 315.067 135.854 315.067 136.374V208.114C315.067 208.634 315.358 209.117 315.831 209.377L381.076 245.329C381.314 245.458 381.577 245.524 381.844 245.524Z" fill="#7DDCFF"/>
<path d="M381.844 245.524C382.107 245.524 382.373 245.458 382.61 245.328L447.856 209.376C448.328 209.116 448.62 208.633 448.62 208.113V136.373C448.62 135.568 447.933 134.914 447.088 134.914C446.241 134.914 445.556 135.568 445.556 136.373V207.27L381.844 242.379L318.128 207.271L318.13 137.216L382.611 101.686C383.342 101.282 383.592 100.389 383.17 99.6932C382.746 98.9955 381.809 98.7563 381.076 99.1605L315.833 135.111C315.358 135.373 315.067 135.854 315.067 136.374V208.114C315.067 208.634 315.358 209.117 315.831 209.377L381.076 245.329C381.314 245.458 381.577 245.524 381.844 245.524Z" fill="#1D2332"/>
<path d="M381.843 173.703C382.101 173.703 382.365 173.64 382.606 173.508L447.852 137.638C448.585 137.236 448.837 136.343 448.414 135.645C447.99 134.948 447.053 134.706 446.321 135.111L381.077 170.981C380.345 171.383 380.092 172.276 380.515 172.974C380.799 173.443 381.313 173.703 381.843 173.703Z" fill="#7DDCFF"/>
<path d="M381.843 173.703C382.101 173.703 382.365 173.64 382.606 173.508L447.852 137.638C448.585 137.236 448.837 136.343 448.414 135.645C447.99 134.948 447.053 134.706 446.321 135.111L381.077 170.981C380.345 171.383 380.092 172.276 380.515 172.974C380.799 173.443 381.313 173.703 381.843 173.703Z" fill="#1D2332"/>
<path d="M381.839 173.703C382.368 173.703 382.882 173.443 383.166 172.975C383.588 172.276 383.338 171.384 382.605 170.982L317.36 135.112C316.628 134.708 315.691 134.948 315.269 135.647C314.847 136.345 315.097 137.237 315.83 137.64L381.077 173.51C381.315 173.64 381.579 173.703 381.839 173.703Z" fill="#7DDCFF"/>
<path d="M381.839 173.703C382.368 173.703 382.882 173.443 383.166 172.975C383.588 172.276 383.338 171.384 382.605 170.982L317.36 135.112C316.628 134.708 315.691 134.948 315.269 135.647C314.847 136.345 315.097 137.237 315.83 137.64L381.077 173.51C381.315 173.64 381.579 173.703 381.839 173.703Z" fill="#1D2332"/>
<path d="M381.84 245.524C382.685 245.524 383.371 244.87 383.371 244.064V172.245C383.371 171.439 382.685 170.785 381.84 170.785C380.993 170.785 380.309 171.439 380.309 172.245V244.064C380.309 244.87 380.993 245.524 381.84 245.524Z" fill="#7DDCFF"/>
<path d="M381.84 245.524C382.685 245.524 383.371 244.87 383.371 244.064V172.245C383.371 171.439 382.685 170.785 381.84 170.785C380.993 170.785 380.309 171.439 380.309 172.245V244.064C380.309 244.87 380.993 245.524 381.84 245.524Z" fill="#1D2332"/>
<path d="M251.356 389.003C252.201 389.003 252.886 388.349 252.886 387.544L252.888 172.327C252.888 171.522 252.204 170.868 251.358 170.868C250.512 170.868 249.826 171.522 249.826 172.327L249.824 387.544C249.824 388.349 250.51 389.003 251.356 389.003Z" fill="#7DDCFF"/>
<path d="M251.356 389.003C252.201 389.003 252.886 388.349 252.886 387.544L252.888 172.327C252.888 171.522 252.204 170.868 251.358 170.868C250.512 170.868 249.826 171.522 249.826 172.327L249.824 387.544C249.824 388.349 250.51 389.003 251.356 389.003Z" fill="#1D2332"/>
<path d="M447.088 496.857C447.348 496.857 447.612 496.793 447.853 496.661L643.59 388.809C644.064 388.547 644.355 388.064 644.355 387.544L644.359 172.327C644.359 171.807 644.067 171.324 643.594 171.062L447.853 63.2105C447.122 62.8084 446.184 63.0465 445.762 63.7453C445.338 64.442 445.588 65.334 446.321 65.7382L641.296 173.168L641.291 386.703L446.32 494.133C445.587 494.537 445.337 495.43 445.761 496.126C446.046 496.595 446.56 496.857 447.088 496.857Z" fill="#7DDCFF"/>
<path d="M447.088 496.857C447.348 496.857 447.612 496.793 447.853 496.661L643.59 388.809C644.064 388.547 644.355 388.064 644.355 387.544L644.359 172.327C644.359 171.807 644.067 171.324 643.594 171.062L447.853 63.2105C447.122 62.8084 446.184 63.0465 445.762 63.7453C445.338 64.442 445.588 65.334 446.321 65.7382L641.296 173.168L641.291 386.703L446.32 494.133C445.587 494.537 445.337 495.43 445.761 496.126C446.046 496.595 446.56 496.857 447.088 496.857Z" fill="#1D2332"/>
<path d="M447.094 503.207C447.272 503.207 447.444 503.12 447.537 502.965C447.68 502.733 447.595 502.435 447.352 502.301L245.212 390.922L245.217 168.669C245.217 168.4 244.989 168.183 244.706 168.183C244.423 168.183 244.195 168.4 244.195 168.669L244.192 391.203C244.192 391.377 244.289 391.538 244.446 391.623L446.84 503.142C446.92 503.188 447.009 503.207 447.094 503.207Z" fill="#7DDCFF"/>
<path d="M447.094 503.207C447.272 503.207 447.444 503.12 447.537 502.965C447.68 502.733 447.595 502.435 447.352 502.301L245.212 390.922L245.217 168.669C245.217 168.4 244.989 168.183 244.706 168.183C244.423 168.183 244.195 168.4 244.195 168.669L244.192 391.203C244.192 391.377 244.289 391.538 244.446 391.623L446.84 503.142C446.92 503.188 447.009 503.207 447.094 503.207Z" fill="#1D2332"/>
<path d="M649.484 391.689C649.767 391.689 649.995 391.471 649.995 391.202L650 168.669C650 168.494 649.903 168.333 649.744 168.248L447.35 56.7296C447.103 56.5928 446.793 56.6722 446.651 56.9062C446.51 57.138 446.595 57.4368 446.838 57.5705L648.979 168.948L648.973 391.203C648.973 391.471 649.201 391.689 649.484 391.689Z" fill="#7DDCFF"/>
<path d="M649.484 391.689C649.767 391.689 649.995 391.471 649.995 391.202L650 168.669C650 168.494 649.903 168.333 649.744 168.248L447.35 56.7296C447.103 56.5928 446.793 56.6722 446.651 56.9062C446.51 57.138 446.595 57.4368 446.838 57.5705L648.979 168.948L648.973 391.203C648.973 391.471 649.201 391.689 649.484 391.689Z" fill="#1D2332"/>
<path d="M265.119 380.463C265.4 380.463 265.631 380.246 265.631 379.977L265.634 179.891C265.634 179.623 265.406 179.406 265.122 179.406C264.841 179.406 264.613 179.623 264.613 179.891L264.608 379.977C264.608 380.246 264.838 380.463 265.119 380.463Z" fill="#7DDCFF"/>
<path d="M265.119 380.463C265.4 380.463 265.631 380.246 265.631 379.977L265.634 179.891C265.634 179.623 265.406 179.406 265.122 179.406C264.841 179.406 264.613 179.623 264.613 179.891L264.608 379.977C264.608 380.246 264.838 380.463 265.119 380.463Z" fill="#1D2332"/>
<path d="M629.071 180.379C629.246 180.379 629.419 180.291 629.513 180.137C629.655 179.905 629.571 179.606 629.328 179.472L447.35 79.2028C447.103 79.067 446.793 79.1474 446.651 79.3814C446.51 79.6132 446.595 79.912 446.838 80.0457L628.815 180.314C628.897 180.357 628.985 180.379 629.071 180.379Z" fill="#7DDCFF"/>
<path d="M629.071 180.379C629.246 180.379 629.419 180.291 629.513 180.137C629.655 179.905 629.571 179.606 629.328 179.472L447.35 79.2028C447.103 79.067 446.793 79.1474 446.651 79.3814C446.51 79.6132 446.595 79.912 446.838 80.0457L628.815 180.314C628.897 180.357 628.985 180.379 629.071 180.379Z" fill="#1D2332"/>
<path d="M447.092 369.489C447.18 369.489 447.267 369.468 447.348 369.425L528.263 324.84C528.422 324.753 528.519 324.592 528.519 324.42L528.522 235.451C528.522 235.181 528.294 234.964 528.011 234.964C527.729 234.964 527.5 235.181 527.5 235.451L527.497 324.139L447.092 368.443L366.432 323.999C366.187 323.863 365.875 323.946 365.735 324.177C365.593 324.409 365.676 324.707 365.92 324.841L446.836 369.426C446.914 369.468 447.004 369.489 447.092 369.489Z" fill="#7DDCFF"/>
<path d="M447.092 369.489C447.18 369.489 447.267 369.468 447.348 369.425L528.263 324.84C528.422 324.753 528.519 324.592 528.519 324.42L528.522 235.451C528.522 235.181 528.294 234.964 528.011 234.964C527.729 234.964 527.5 235.181 527.5 235.451L527.497 324.139L447.092 368.443L366.432 323.999C366.187 323.863 365.875 323.946 365.735 324.177C365.593 324.409 365.676 324.707 365.92 324.841L446.836 369.426C446.914 369.468 447.004 369.489 447.092 369.489Z" fill="#1D2332"/>
<path d="M366.181 235.936C366.267 235.936 366.354 235.916 366.436 235.87L447.352 191.287C447.596 191.151 447.679 190.856 447.538 190.623C447.397 190.39 447.085 190.307 446.84 190.444L365.926 235.03C365.681 235.163 365.597 235.461 365.738 235.694C365.833 235.85 366.003 235.936 366.181 235.936Z" fill="#7DDCFF"/>
<path d="M366.181 235.936C366.267 235.936 366.354 235.916 366.436 235.87L447.352 191.287C447.596 191.151 447.679 190.856 447.538 190.623C447.397 190.39 447.085 190.307 446.84 190.444L365.926 235.03C365.681 235.163 365.597 235.461 365.738 235.694C365.833 235.85 366.003 235.936 366.181 235.936Z" fill="#1D2332"/>
<path d="M447.094 343.646C447.272 343.646 447.444 343.558 447.537 343.402C447.68 343.17 447.595 342.872 447.352 342.739L390.169 311.23V248.356C390.169 248.089 389.941 247.87 389.658 247.87C389.376 247.87 389.148 248.089 389.148 248.356V311.511C389.148 311.685 389.245 311.846 389.402 311.931L446.839 343.579C446.92 343.625 447.009 343.646 447.094 343.646Z" fill="#7DDCFF"/>
<path d="M447.094 343.646C447.272 343.646 447.444 343.558 447.537 343.402C447.68 343.17 447.595 342.872 447.352 342.739L390.169 311.23V248.356C390.169 248.089 389.941 247.87 389.658 247.87C389.376 247.87 389.148 248.089 389.148 248.356V311.511C389.148 311.685 389.245 311.846 389.402 311.931L446.839 343.579C446.92 343.625 447.009 343.646 447.094 343.646Z" fill="#1D2332"/>
<path d="M504.532 311.997C504.815 311.997 505.043 311.78 505.043 311.51L505.045 248.356C505.045 248.184 504.947 248.023 504.791 247.936L447.351 216.289C447.105 216.152 446.794 216.233 446.652 216.465C446.512 216.698 446.596 216.996 446.839 217.13L504.024 248.638L504.022 311.511C504.021 311.78 504.249 311.997 504.532 311.997Z" fill="#7DDCFF"/>
<path d="M504.532 311.997C504.815 311.997 505.043 311.78 505.043 311.51L505.045 248.356C505.045 248.184 504.947 248.023 504.791 247.936L447.351 216.289C447.105 216.152 446.794 216.233 446.652 216.465C446.512 216.698 446.596 216.996 446.839 217.13L504.024 248.638L504.022 311.511C504.021 311.78 504.249 311.997 504.532 311.997Z" fill="#1D2332"/>
<path d="M251.35 173.786H642.828C643.674 173.786 644.359 173.133 644.359 172.327C644.359 171.522 643.675 170.868 642.828 170.868H251.35C250.504 170.868 249.819 171.522 249.819 172.327C249.819 173.133 250.503 173.786 251.35 173.786Z" fill="#7DDCFF"/>
<path d="M251.35 173.786H642.828C643.674 173.786 644.359 173.133 644.359 172.327C644.359 171.522 643.675 170.868 642.828 170.868H251.35C250.504 170.868 249.819 171.522 249.819 172.327C249.819 173.133 250.503 173.786 251.35 173.786Z" fill="#1D2332"/>
<path d="M447.096 496.857C447.625 496.857 448.139 496.595 448.423 496.127L644.166 173.056C644.588 172.358 644.338 171.468 643.604 171.064C642.872 170.661 641.933 170.902 641.513 171.598L445.773 494.669C445.348 495.368 445.601 496.26 446.332 496.662C446.572 496.793 446.836 496.857 447.096 496.857Z" fill="#7DDCFF"/>
<path d="M447.096 496.857C447.625 496.857 448.139 496.595 448.423 496.127L644.166 173.056C644.588 172.358 644.338 171.468 643.604 171.064C642.872 170.661 641.933 170.902 641.513 171.598L445.773 494.669C445.348 495.368 445.601 496.26 446.332 496.662C446.572 496.793 446.836 496.857 447.096 496.857Z" fill="#1D2332"/>
<path d="M316.601 136.859H577.582C577.865 136.859 578.093 136.642 578.093 136.373C578.093 136.104 577.865 135.887 577.582 135.887H316.601C316.317 135.887 316.089 136.104 316.089 136.373C316.089 136.642 316.317 136.859 316.601 136.859Z" fill="#7DDCFF"/>
<path d="M316.601 136.859H577.582C577.865 136.859 578.093 136.642 578.093 136.373C578.093 136.104 577.865 135.887 577.582 135.887H316.601C316.317 135.887 316.089 136.104 316.089 136.373C316.089 136.642 316.317 136.859 316.601 136.859Z" fill="#1D2332"/>
<path d="M306.093 136.373C306.093 141.903 310.8 146.39 316.606 146.39C322.41 146.39 327.117 141.903 327.117 136.373C327.117 130.84 322.41 126.357 316.606 126.357C310.8 126.356 306.093 130.84 306.093 136.373Z" fill="#7DDCFF"/>
<path d="M306.093 136.373C306.093 141.903 310.8 146.39 316.606 146.39C322.41 146.39 327.117 141.903 327.117 136.373C327.117 130.84 322.41 126.357 316.606 126.357C310.8 126.356 306.093 130.84 306.093 136.373Z" fill="#1D2332"/>
<path d="M436.583 64.4743C436.583 70.0029 441.287 74.49 447.093 74.49C452.897 74.49 457.604 70.0029 457.604 64.4743C457.604 58.9416 452.897 54.4565 447.093 54.4565C441.287 54.4565 436.583 58.9416 436.583 64.4743Z" fill="#7DDCFF"/>
<path d="M436.583 64.4743C436.583 70.0029 441.287 74.49 447.093 74.49C452.897 74.49 457.604 70.0029 457.604 64.4743C457.604 58.9416 452.897 54.4565 447.093 54.4565C441.287 54.4565 436.583 58.9416 436.583 64.4743Z" fill="#1D2332"/>
<path d="M240.836 244.063C240.836 249.594 245.543 254.081 251.349 254.081C257.155 254.081 261.86 249.594 261.86 244.063C261.86 238.53 257.155 234.047 251.349 234.047C245.543 234.047 240.836 238.53 240.836 244.063Z" fill="#7DDCFF"/>
<path d="M240.836 244.063C240.836 249.594 245.543 254.081 251.349 254.081C257.155 254.081 261.86 249.594 261.86 244.063C261.86 238.53 257.155 234.047 251.349 234.047C245.543 234.047 240.836 238.53 240.836 244.063Z" fill="#1D2332"/>
<path d="M436.583 495.396C436.583 500.926 441.287 505.413 447.093 505.413C452.897 505.413 457.604 500.926 457.604 495.396C457.604 489.863 452.897 485.38 447.093 485.38C441.287 485.38 436.583 489.863 436.583 495.396Z" fill="#7DDCFF"/>
<path d="M436.583 495.396C436.583 500.926 441.287 505.413 447.093 505.413C452.897 505.413 457.604 500.926 457.604 495.396C457.604 489.863 452.897 485.38 447.093 485.38C441.287 485.38 436.583 489.863 436.583 495.396Z" fill="#1D2332"/>
<path d="M436.578 279.933C436.578 285.463 441.285 289.95 447.091 289.95C452.895 289.95 457.602 285.463 457.602 279.933C457.602 274.4 452.895 269.917 447.091 269.917C441.285 269.917 436.578 274.4 436.578 279.933Z" fill="#7DDCFF"/>
<path d="M436.578 279.933C436.578 285.463 441.285 289.95 447.091 289.95C452.895 289.95 457.602 285.463 457.602 279.933C457.602 274.4 452.895 269.917 447.091 269.917C441.285 269.917 436.578 274.4 436.578 279.933Z" fill="#1D2332"/>
<path d="M501.821 244.063C501.821 249.594 506.527 254.081 512.333 254.081C518.137 254.081 522.844 249.594 522.844 244.063C522.844 238.53 518.137 234.047 512.333 234.047C506.527 234.047 501.821 238.53 501.821 244.063Z" fill="#7DDCFF"/>
<path d="M501.821 244.063C501.821 249.594 506.527 254.081 512.333 254.081C518.137 254.081 522.844 249.594 522.844 244.063C522.844 238.53 518.137 234.047 512.333 234.047C506.527 234.047 501.821 238.53 501.821 244.063Z" fill="#1D2332"/>
<path d="M245.683 172.326C245.683 175.31 248.222 177.73 251.352 177.73C254.485 177.73 257.026 175.31 257.026 172.326C257.026 169.343 254.486 166.921 251.352 166.921C248.221 166.922 245.683 169.343 245.683 172.326Z" fill="#7DDCFF"/>
<path d="M245.683 172.326C245.683 175.31 248.222 177.73 251.352 177.73C254.485 177.73 257.026 175.31 257.026 172.326C257.026 169.343 254.486 166.921 251.352 166.921C248.221 166.922 245.683 169.343 245.683 172.326Z" fill="#1D2332"/>
<path d="M637.164 172.326C637.164 175.31 639.702 177.73 642.835 177.73C645.966 177.73 648.506 175.31 648.506 172.326C648.506 169.343 645.966 166.922 642.835 166.922C639.702 166.923 637.164 169.343 637.164 172.326Z" fill="#7DDCFF"/>
<path d="M637.164 172.326C637.164 175.31 639.702 177.73 642.835 177.73C645.966 177.73 648.506 175.31 648.506 172.326C648.506 169.343 645.966 166.922 642.835 166.922C639.702 166.923 637.164 169.343 637.164 172.326Z" fill="#1D2332"/>
<path d="M571.906 136.375C571.906 139.357 574.444 141.777 577.575 141.777C580.708 141.777 583.248 139.357 583.248 136.375C583.248 133.389 580.708 130.968 577.575 130.968C574.444 130.969 571.906 133.389 571.906 136.375Z" fill="#7DDCFF"/>
<path d="M571.906 136.375C571.906 139.357 574.444 141.777 577.575 141.777C580.708 141.777 583.248 139.357 583.248 136.375C583.248 133.389 580.708 130.968 577.575 130.968C574.444 130.969 571.906 133.389 571.906 136.375Z" fill="#1D2332"/>
<path d="M506.665 172.244C506.665 175.226 509.201 177.648 512.334 177.648C515.464 177.648 518.005 175.226 518.005 172.244C518.005 169.259 515.465 166.838 512.334 166.838C509.201 166.838 506.665 169.259 506.665 172.244Z" fill="#7DDCFF"/>
<path d="M506.665 172.244C506.665 175.226 509.201 177.648 512.334 177.648C515.464 177.648 518.005 175.226 518.005 172.244C518.005 169.259 515.465 166.838 512.334 166.838C509.201 166.838 506.665 169.259 506.665 172.244Z" fill="#1D2332"/>
<path d="M376.174 100.422C376.174 103.405 378.713 105.827 381.845 105.827C384.978 105.827 387.519 103.405 387.519 100.422C387.519 97.4392 384.979 95.0181 381.845 95.0181C378.713 95.0181 376.174 97.4392 376.174 100.422Z" fill="#7DDCFF"/>
<path d="M376.174 100.422C376.174 103.405 378.713 105.827 381.845 105.827C384.978 105.827 387.519 103.405 387.519 100.422C387.519 97.4392 384.979 95.0181 381.845 95.0181C378.713 95.0181 376.174 97.4392 376.174 100.422Z" fill="#1D2332"/>
<path d="M376.174 172.244C376.174 175.226 378.713 177.646 381.845 177.646C384.978 177.646 387.519 175.226 387.519 172.244C387.519 169.259 384.979 166.838 381.845 166.838C378.713 166.838 376.174 169.259 376.174 172.244Z" fill="#7DDCFF"/>
<path d="M376.174 172.244C376.174 175.226 378.713 177.646 381.845 177.646C384.978 177.646 387.519 175.226 387.519 172.244C387.519 169.259 384.979 166.838 381.845 166.838C378.713 166.838 376.174 169.259 376.174 172.244Z" fill="#1D2332"/>
<path d="M441.419 208.115C441.419 211.097 443.957 213.517 447.088 213.517C450.22 213.517 452.761 211.097 452.761 208.115C452.761 205.13 450.22 202.708 447.088 202.708C443.957 202.708 441.419 205.13 441.419 208.115Z" fill="#7DDCFF"/>
<path d="M441.419 208.115C441.419 211.097 443.957 213.517 447.088 213.517C450.22 213.517 452.761 211.097 452.761 208.115C452.761 205.13 450.22 202.708 447.088 202.708C443.957 202.708 441.419 205.13 441.419 208.115Z" fill="#1D2332"/>
<path d="M637.162 387.545C637.162 390.527 639.7 392.947 642.833 392.947C645.966 392.947 648.506 390.526 648.506 387.545C648.506 384.56 645.966 382.139 642.833 382.139C639.7 382.139 637.162 384.56 637.162 387.545Z" fill="#7DDCFF"/>
<path d="M637.162 387.545C637.162 390.527 639.7 392.947 642.833 392.947C645.966 392.947 648.506 390.526 648.506 387.545C648.506 384.56 645.966 382.139 642.833 382.139C639.7 382.139 637.162 384.56 637.162 387.545Z" fill="#1D2332"/>
<path d="M571.906 351.755C571.906 354.737 574.444 357.16 577.575 357.16C580.708 357.16 583.248 354.737 583.248 351.755C583.248 348.77 580.708 346.349 577.575 346.349C574.444 346.349 571.906 348.77 571.906 351.755Z" fill="#7DDCFF"/>
<path d="M571.906 351.755C571.906 354.737 574.444 357.16 577.575 357.16C580.708 357.16 583.248 354.737 583.248 351.755C583.248 348.77 580.708 346.349 577.575 346.349C574.444 346.349 571.906 348.77 571.906 351.755Z" fill="#1D2332"/>
<path d="M441.419 351.755C441.419 354.737 443.957 357.16 447.088 357.16C450.22 357.16 452.761 354.737 452.761 351.755C452.761 348.77 450.22 346.349 447.088 346.349C443.957 346.349 441.419 348.77 441.419 351.755Z" fill="#7DDCFF"/>
<path d="M441.419 351.755C441.419 354.737 443.957 357.16 447.088 357.16C450.22 357.16 452.761 354.737 452.761 351.755C452.761 348.77 450.22 346.349 447.088 346.349C443.957 346.349 441.419 348.77 441.419 351.755Z" fill="#1D2332"/>
<path d="M376.174 387.627C376.174 390.61 378.713 393.031 381.845 393.031C384.978 393.031 387.519 390.61 387.519 387.627C387.519 384.642 384.979 382.221 381.845 382.221C378.713 382.221 376.174 384.642 376.174 387.627Z" fill="#7DDCFF"/>
<path d="M376.174 387.627C376.174 390.61 378.713 393.031 381.845 393.031C384.978 393.031 387.519 390.61 387.519 387.627C387.519 384.642 384.979 382.221 381.845 382.221C378.713 382.221 376.174 384.642 376.174 387.627Z" fill="#1D2332"/>
<path d="M245.683 387.545C245.683 390.527 248.222 392.947 251.355 392.947C254.485 392.947 257.026 390.526 257.026 387.545C257.026 384.56 254.485 382.139 251.355 382.139C248.222 382.139 245.683 384.56 245.683 387.545Z" fill="#7DDCFF"/>
<path d="M245.683 387.545C245.683 390.527 248.222 392.947 251.355 392.947C254.485 392.947 257.026 390.526 257.026 387.545C257.026 384.56 254.485 382.139 251.355 382.139C248.222 382.139 245.683 384.56 245.683 387.545Z" fill="#1D2332"/>
<path d="M310.926 279.935C310.926 282.918 313.465 285.337 316.595 285.337C319.728 285.337 322.269 282.918 322.269 279.935C322.269 276.949 319.728 274.528 316.595 274.528C313.465 274.529 310.926 276.949 310.926 279.935Z" fill="#7DDCFF"/>
<path d="M310.926 279.935C310.926 282.918 313.465 285.337 316.595 285.337C319.728 285.337 322.269 282.918 322.269 279.935C322.269 276.949 319.728 274.528 316.595 274.528C313.465 274.529 310.926 276.949 310.926 279.935Z" fill="#1D2332"/>
<path d="M310.926 351.755C310.926 354.737 313.465 357.16 316.595 357.16C319.728 357.16 322.269 354.737 322.269 351.755C322.269 348.77 319.728 346.349 316.595 346.349C313.465 346.349 310.926 348.77 310.926 351.755Z" fill="#7DDCFF"/>
<path d="M310.926 351.755C310.926 354.737 313.465 357.16 316.595 357.16C319.728 357.16 322.269 354.737 322.269 351.755C322.269 348.77 319.728 346.349 316.595 346.349C313.465 346.349 310.926 348.77 310.926 351.755Z" fill="#1D2332"/>
<path d="M447.086 304.931C461.548 304.931 473.317 293.716 473.317 279.935C473.317 266.152 461.548 254.939 447.086 254.939C432.624 254.939 420.859 266.152 420.859 279.935C420.859 293.717 432.624 304.931 447.086 304.931ZM447.086 255.912C460.988 255.912 472.294 266.689 472.294 279.936C472.294 293.183 460.988 303.959 447.086 303.959C433.188 303.959 421.88 293.183 421.88 279.936C421.88 266.689 433.188 255.912 447.086 255.912Z" fill="#7DDCFF"/>
<path d="M447.086 304.931C461.548 304.931 473.317 293.716 473.317 279.935C473.317 266.152 461.548 254.939 447.086 254.939C432.624 254.939 420.859 266.152 420.859 279.935C420.859 293.717 432.624 304.931 447.086 304.931ZM447.086 255.912C460.988 255.912 472.294 266.689 472.294 279.936C472.294 293.183 460.988 303.959 447.086 303.959C433.188 303.959 421.88 293.183 421.88 279.936C421.88 266.689 433.188 255.912 447.086 255.912Z" fill="#1D2332"/>
<path d="M381.849 111.79C388.374 111.79 393.724 106.731 393.776 100.513C393.803 97.478 392.587 94.614 390.352 92.4498C388.116 90.2856 385.129 89.0792 381.944 89.0552C375.319 89.0552 369.97 94.1137 369.92 100.331C369.893 103.368 371.11 106.232 373.346 108.396C375.58 110.56 378.565 111.766 381.75 111.791C381.751 111.79 381.846 111.79 381.849 111.79ZM381.842 90.0276C384.848 90.0506 387.579 91.1536 389.622 93.1319C391.668 95.1112 392.779 97.7297 392.755 100.506C392.709 106.191 387.815 110.817 381.849 110.817V111.302L381.759 110.817C378.844 110.794 376.115 109.691 374.073 107.713C372.03 105.733 370.916 103.114 370.94 100.337C370.986 94.6516 375.878 90.0276 381.842 90.0276Z" fill="#7DDCFF"/>
<path d="M381.849 111.79C388.374 111.79 393.724 106.731 393.776 100.513C393.803 97.478 392.587 94.614 390.352 92.4498C388.116 90.2856 385.129 89.0792 381.944 89.0552C375.319 89.0552 369.97 94.1137 369.92 100.331C369.893 103.368 371.11 106.232 373.346 108.396C375.58 110.56 378.565 111.766 381.75 111.791C381.751 111.79 381.846 111.79 381.849 111.79ZM381.842 90.0276C384.848 90.0506 387.579 91.1536 389.622 93.1319C391.668 95.1112 392.779 97.7297 392.755 100.506C392.709 106.191 387.815 110.817 381.849 110.817V111.302L381.759 110.817C378.844 110.794 376.115 109.691 374.073 107.713C372.03 105.733 370.916 103.114 370.94 100.337C370.986 94.6516 375.878 90.0276 381.842 90.0276Z" fill="#1D2332"/>
<path d="M512.338 183.611C518.863 183.611 524.213 178.552 524.266 172.335C524.292 169.298 523.075 166.434 520.839 164.27C518.605 162.105 515.621 160.901 512.431 160.876C505.808 160.876 500.458 165.933 500.408 172.151C500.381 175.187 501.597 178.051 503.832 180.215C506.068 182.379 509.053 183.584 512.238 183.609C512.24 183.611 512.336 183.611 512.338 183.611ZM512.332 161.849C515.338 161.872 518.069 162.973 520.112 164.953C522.156 166.932 523.269 169.552 523.245 172.327C523.197 178.012 518.305 182.638 512.338 182.638V183.125L512.248 182.638C509.333 182.615 506.605 181.514 504.562 179.534C502.517 177.555 501.405 174.935 501.429 172.16C501.475 166.473 506.367 161.849 512.332 161.849Z" fill="#7DDCFF"/>
<path d="M512.338 183.611C518.863 183.611 524.213 178.552 524.266 172.335C524.292 169.298 523.075 166.434 520.839 164.27C518.605 162.105 515.621 160.901 512.431 160.876C505.808 160.876 500.458 165.933 500.408 172.151C500.381 175.187 501.597 178.051 503.832 180.215C506.068 182.379 509.053 183.584 512.238 183.609C512.24 183.611 512.336 183.611 512.338 183.611ZM512.332 161.849C515.338 161.872 518.069 162.973 520.112 164.953C522.156 166.932 523.269 169.552 523.245 172.327C523.197 178.012 518.305 182.638 512.338 182.638V183.125L512.248 182.638C509.333 182.615 506.605 181.514 504.562 179.534C502.517 177.555 501.405 174.935 501.429 172.16C501.475 166.473 506.367 161.849 512.332 161.849Z" fill="#1D2332"/>
<path d="M316.599 291.3C323.124 291.3 328.477 286.242 328.527 280.025C328.556 276.989 327.337 274.124 325.101 271.959C322.867 269.795 319.882 268.591 316.695 268.566C310.072 268.566 304.722 273.623 304.669 279.841C304.643 282.877 305.86 285.741 308.094 287.905C310.33 290.071 313.314 291.274 316.5 291.299C316.502 291.3 316.597 291.3 316.599 291.3ZM316.596 269.539C319.602 269.562 322.331 270.663 324.376 272.643C326.419 274.622 327.532 277.24 327.507 280.017C327.461 285.702 322.567 290.328 316.6 290.328V290.815L316.511 290.328C313.596 290.305 310.867 289.202 308.825 287.224C306.779 285.244 305.668 282.625 305.692 279.85C305.739 274.163 310.629 269.539 316.596 269.539Z" fill="#7DDCFF"/>
<path d="M316.599 291.3C323.124 291.3 328.477 286.242 328.527 280.025C328.556 276.989 327.337 274.124 325.101 271.959C322.867 269.795 319.882 268.591 316.695 268.566C310.072 268.566 304.722 273.623 304.669 279.841C304.643 282.877 305.86 285.741 308.094 287.905C310.33 290.071 313.314 291.274 316.5 291.299C316.502 291.3 316.597 291.3 316.599 291.3ZM316.596 269.539C319.602 269.562 322.331 270.663 324.376 272.643C326.419 274.622 327.532 277.24 327.507 280.017C327.461 285.702 322.567 290.328 316.6 290.328V290.815L316.511 290.328C313.596 290.305 310.867 289.202 308.825 287.224C306.779 285.244 305.668 282.625 305.692 279.85C305.739 274.163 310.629 269.539 316.596 269.539Z" fill="#1D2332"/>
<path d="M381.849 398.989C388.374 398.989 393.724 393.931 393.776 387.714C393.803 384.677 392.587 381.813 390.352 379.648C388.116 377.484 385.129 376.28 381.944 376.255C375.319 376.255 369.97 381.312 369.92 387.53C369.893 390.566 371.11 393.43 373.346 395.594C375.58 397.758 378.565 398.963 381.75 398.988C381.751 398.989 381.846 398.989 381.849 398.989ZM381.842 377.228C384.848 377.251 387.579 378.352 389.622 380.332C391.668 382.311 392.779 384.93 392.755 387.706C392.709 393.391 387.815 398.017 381.849 398.017V398.504L381.759 398.017C378.844 397.994 376.115 396.893 374.073 394.913C372.03 392.933 370.916 390.314 370.94 387.539C370.986 381.853 375.878 377.228 381.842 377.228Z" fill="#7DDCFF"/>
<path d="M381.849 398.989C388.374 398.989 393.724 393.931 393.776 387.714C393.803 384.677 392.587 381.813 390.352 379.648C388.116 377.484 385.129 376.28 381.944 376.255C375.319 376.255 369.97 381.312 369.92 387.53C369.893 390.566 371.11 393.43 373.346 395.594C375.58 397.758 378.565 398.963 381.75 398.988C381.751 398.989 381.846 398.989 381.849 398.989ZM381.842 377.228C384.848 377.251 387.579 378.352 389.622 380.332C391.668 382.311 392.779 384.93 392.755 387.706C392.709 393.391 387.815 398.017 381.849 398.017V398.504L381.759 398.017C378.844 397.994 376.115 396.893 374.073 394.913C372.03 392.933 370.916 390.314 370.94 387.539C370.986 381.853 375.878 377.228 381.842 377.228Z" fill="#1D2332"/>
<path d="M251.359 183.695C257.884 183.695 263.236 178.636 263.288 172.418C263.314 169.381 262.097 166.517 259.861 164.355C257.626 162.19 254.64 160.984 251.453 160.96C244.83 160.96 239.481 166.018 239.429 172.235C239.402 175.271 240.619 178.135 242.855 180.301C245.091 182.465 248.074 183.67 251.261 183.696C251.261 183.695 251.356 183.695 251.359 183.695ZM251.354 161.931C254.36 161.954 257.089 163.057 259.133 165.035C261.177 167.015 262.29 169.633 262.264 172.411C262.217 178.096 257.326 182.721 251.357 182.721V183.208L251.267 182.721C248.352 182.698 245.624 181.597 243.581 179.617C241.538 177.637 240.424 175.02 240.45 172.243C240.499 166.555 245.39 161.931 251.354 161.931Z" fill="#7DDCFF"/>
<path d="M251.359 183.695C257.884 183.695 263.236 178.636 263.288 172.418C263.314 169.381 262.097 166.517 259.861 164.355C257.626 162.19 254.64 160.984 251.453 160.96C244.83 160.96 239.481 166.018 239.429 172.235C239.402 175.271 240.619 178.135 242.855 180.301C245.091 182.465 248.074 183.67 251.261 183.696C251.261 183.695 251.356 183.695 251.359 183.695ZM251.354 161.931C254.36 161.954 257.089 163.057 259.133 165.035C261.177 167.015 262.29 169.633 262.264 172.411C262.217 178.096 257.326 182.721 251.357 182.721V183.208L251.267 182.721C248.352 182.698 245.624 181.597 243.581 179.617C241.538 177.637 240.424 175.02 240.45 172.243C240.499 166.555 245.39 161.931 251.354 161.931Z" fill="#1D2332"/>
</svg>
