<svg width="311" height="206" viewBox="0 0 311 206" fill="none" xmlns="http://www.w3.org/2000/svg">
<path d="M180.122 74.1649C179.864 74.1649 179.606 74.1242 179.391 74.0427C178.66 73.7576 178.187 73.0653 178.187 72.3322V56.6928H176.123C166.578 56.6928 158.839 49.3618 158.839 40.3203V16.3725C158.839 7.33096 166.578 0 176.123 0H293.716C303.261 0 311 7.33096 311 16.3725V40.2796C311 49.3211 303.261 56.652 293.716 56.652H199.427L181.541 73.5947C181.154 73.9613 180.638 74.1649 180.122 74.1649ZM176.123 3.70621C168.728 3.70621 162.709 9.40807 162.709 16.4132V40.3203C162.709 47.3254 168.728 53.0273 176.123 53.0273H180.165C181.24 53.0273 182.1 53.8418 182.1 54.86V67.8929L197.234 53.5567C197.621 53.1902 198.094 53.0273 198.61 53.0273H293.716C301.111 53.0273 307.13 47.3254 307.13 40.3203V16.3725C307.13 9.36734 301.111 3.66548 293.716 3.66548H176.123V3.70621Z" fill="#292C33"/>
<path d="M92.6689 175.251H102.343C104.02 175.251 105.353 173.947 105.353 172.4C105.353 170.811 103.977 169.549 102.343 169.549H92.6689C90.9921 169.549 89.6593 170.852 89.6593 172.4C89.6593 173.947 91.0351 175.251 92.6689 175.251Z" fill="#292C33"/>
<path d="M98.4733 162.584H105.998C107.674 162.584 109.007 161.281 109.007 159.733C109.007 158.145 107.631 156.883 105.998 156.883H98.4733C96.7965 156.883 95.4637 158.186 95.4637 159.733C95.4637 161.322 96.7965 162.584 98.4733 162.584Z" fill="#292C33"/>
<path d="M119.025 175.251H128.699C130.376 175.251 131.709 173.947 131.709 172.4C131.709 170.811 130.333 169.549 128.699 169.549H119.025C117.348 169.549 116.015 170.852 116.015 172.4C116.015 173.947 117.391 175.251 119.025 175.251Z" fill="#292C33"/>
<path d="M51.6083 162.584H59.1325C60.8093 162.584 62.1422 161.281 62.1422 159.733C62.1422 158.145 60.7663 156.883 59.1325 156.883H51.6083C49.9314 156.883 48.5986 158.186 48.5986 159.733C48.5556 161.322 49.9314 162.584 51.6083 162.584Z" fill="#292C33"/>
<path d="M75.0408 162.584H82.565C84.2418 162.584 85.5747 161.281 85.5747 159.733C85.5747 158.145 84.1988 156.883 82.565 156.883H75.0408C73.364 156.883 72.0311 158.186 72.0311 159.733C72.0311 161.322 73.364 162.584 75.0408 162.584Z" fill="#292C33"/>
<path d="M168.814 162.584H176.295C177.972 162.584 179.305 161.281 179.305 159.733C179.305 158.145 177.929 156.883 176.295 156.883H168.771C167.094 156.883 165.761 158.186 165.761 159.733C165.761 161.322 167.137 162.584 168.814 162.584Z" fill="#292C33"/>
<path d="M41.1604 183.966H31.4864C29.8095 183.966 28.4767 185.27 28.4767 186.817C28.4767 188.406 29.8525 189.668 31.4864 189.668H41.1604C42.8372 189.668 44.17 188.365 44.17 186.817C44.213 185.229 42.8372 183.966 41.1604 183.966Z" fill="#292C33"/>
<path d="M192.247 162.584H199.771C201.448 162.584 202.78 161.281 202.78 159.733C202.78 158.145 201.405 156.883 199.771 156.883H192.247C190.57 156.883 189.237 158.186 189.237 159.733C189.237 161.322 190.57 162.584 192.247 162.584Z" fill="#292C33"/>
<path d="M121.906 162.584H129.43C131.107 162.584 132.44 161.281 132.44 159.733C132.44 158.145 131.064 156.883 129.43 156.883H121.906C120.229 156.883 118.896 158.186 118.896 159.733C118.896 161.322 120.229 162.584 121.906 162.584Z" fill="#292C33"/>
<path d="M145.424 169.508C143.748 169.508 142.415 170.811 142.415 172.359C142.415 173.947 143.791 175.21 145.424 175.21H155.098C156.775 175.21 158.108 173.907 158.108 172.359C158.108 170.771 156.732 169.508 155.098 169.508H145.424Z" fill="#292C33"/>
<path d="M145.338 162.584H152.863C154.539 162.584 155.872 161.281 155.872 159.733C155.872 158.145 154.496 156.883 152.863 156.883H145.338C143.662 156.883 142.329 158.186 142.329 159.733C142.329 161.322 143.705 162.584 145.338 162.584Z" fill="#292C33"/>
<path d="M148.391 109.191C147.832 109.72 147.488 110.453 147.488 111.227C147.488 112.001 147.789 112.693 148.391 113.263C148.993 113.834 149.724 114.119 150.541 114.119C151.358 114.119 152.089 113.834 152.691 113.263L174.704 92.4108C175.263 91.8814 175.607 91.1483 175.607 90.3745C175.607 89.6006 175.306 88.9083 174.704 88.3381L152.132 66.9561C151.573 66.4267 150.799 66.1008 149.982 66.1008C149.165 66.1008 148.434 66.3859 147.832 66.9561C147.273 67.4856 146.929 68.2187 146.929 68.9925C146.929 69.7663 147.23 70.4587 147.832 71.0289L168.255 90.3745L148.391 109.191Z" fill="#292C33"/>
<path d="M210.821 172.4C210.821 170.811 209.445 169.549 207.811 169.549H198.137C196.46 169.549 195.127 170.852 195.127 172.4C195.127 173.988 196.503 175.251 198.137 175.251H207.811C209.488 175.251 210.821 173.947 210.821 172.4Z" fill="#292C33"/>
<path d="M250.032 195.94L212.497 146.497L212.325 146.293V64.6346H206.306V144.501H44.772V40.7276C44.772 37.9581 47.1367 35.7181 50.0604 35.7181H150.67V30.0162H50.0604C43.7831 29.9755 38.7096 34.8221 38.7096 40.7276V146.619L38.5376 146.823L1.26055 195.94C-0.201298 197.895 -0.416276 200.42 0.744602 202.538C1.90548 204.656 4.18424 206 6.72097 206H244.615C247.152 206 249.43 204.697 250.591 202.538C251.752 200.38 251.537 197.854 250.032 195.94ZM5.43111 200.257L43.1811 150.57L43.4391 150.244H207.897L208.155 150.57L245.905 200.257H5.43111Z" fill="#292C33"/>
<path d="M218.99 183.966H209.316C207.639 183.966 206.306 185.27 206.306 186.817C206.306 188.406 207.682 189.668 209.316 189.668H218.99C220.667 189.668 221.999 188.365 221.999 186.817C221.999 185.229 220.667 183.966 218.99 183.966Z" fill="#292C33"/>
<path d="M138.76 66.1008C137.685 66.1008 136.696 66.6303 136.137 67.4856L109.695 109.72C108.835 111.064 109.308 112.856 110.77 113.63C111.243 113.874 111.759 114.037 112.318 114.037C113.393 114.037 114.382 113.508 114.941 112.652L141.383 70.4179C142.243 69.0739 141.77 67.3227 140.308 66.5081C139.792 66.2637 139.276 66.1008 138.76 66.1008Z" fill="#292C33"/>
<path d="M103.203 70.9881C103.762 70.4587 104.106 69.7256 104.106 68.9518C104.106 68.1779 103.805 67.4856 103.203 66.9154C102.644 66.3859 101.87 66.0601 101.053 66.0601C100.236 66.0601 99.5052 66.3452 98.9033 66.9154L76.3307 88.2974C75.7717 88.8268 75.4278 89.5599 75.4278 90.3337C75.4278 91.1076 75.7287 91.7999 76.3307 92.3701L98.3444 113.223C98.9033 113.752 99.6772 114.078 100.494 114.078C101.311 114.078 102.042 113.793 102.644 113.223C103.203 112.693 103.547 111.96 103.547 111.186C103.547 110.412 103.246 109.72 102.644 109.15L82.78 90.3337L103.203 70.9881Z" fill="#292C33"/>
<path d="M79.0394 172.4C79.0394 170.811 77.6635 169.549 76.0297 169.549H66.3557C64.6789 169.549 63.346 170.852 63.346 172.4C63.346 173.988 64.7219 175.251 66.3557 175.251H76.0297C77.6635 175.251 79.0394 173.947 79.0394 172.4Z" fill="#292C33"/>
<path d="M65.2808 183.966H55.6068C53.93 183.966 52.5972 185.27 52.5972 186.817C52.5972 188.406 53.973 189.668 55.6068 189.668H65.2808C66.9576 189.668 68.2905 188.365 68.2905 186.817C68.2905 185.229 66.9147 183.966 65.2808 183.966Z" fill="#292C33"/>
<path d="M49.6305 169.508H39.9565C38.2797 169.508 36.9468 170.811 36.9468 172.359C36.9468 173.947 38.3227 175.21 39.9565 175.21H49.6305C51.3073 175.21 52.6402 173.907 52.6402 172.359C52.6402 170.811 51.3073 169.508 49.6305 169.508Z" fill="#292C33"/>
<path d="M170.319 183.966H81.0172C79.3403 183.966 78.0075 185.27 78.0075 186.817C78.0075 188.406 79.3833 189.668 81.0172 189.668H170.276C171.953 189.668 173.285 188.365 173.285 186.817C173.328 185.229 171.953 183.966 170.319 183.966Z" fill="#292C33"/>
<path d="M184.464 172.4C184.464 170.811 183.088 169.549 181.455 169.549H171.781C170.104 169.549 168.771 170.852 168.771 172.4C168.771 173.988 170.147 175.251 171.781 175.251H181.455C183.131 175.251 184.464 173.947 184.464 172.4Z" fill="#292C33"/>
<path d="M194.912 183.966H185.238C183.561 183.966 182.229 185.27 182.229 186.817C182.229 188.406 183.604 189.668 185.238 189.668H194.912C196.589 189.668 197.922 188.365 197.922 186.817C197.922 185.229 196.546 183.966 194.912 183.966Z" fill="#292C33"/>
<path d="M185.539 19.59C188.033 19.59 190.011 20.1601 191.43 21.3005C192.891 22.4409 193.579 23.9885 193.579 25.9842C193.579 27.9391 192.848 29.4868 191.43 30.6271C189.968 31.7675 188.033 32.3377 185.539 32.3377H181.283V37.5101H177.757V19.59H185.539ZM185.41 29.5275C186.958 29.5275 188.119 29.2017 188.893 28.5907C189.667 27.9798 190.097 27.0838 190.097 25.9435C190.097 24.8031 189.71 23.9071 188.893 23.2962C188.076 22.6853 186.958 22.3594 185.41 22.3594H181.283V29.4868H185.41V29.5275Z" fill="#292C33"/>
<path d="M212.712 19.59L205.317 31.1973V37.5101H201.791V31.238L194.353 19.59H198.094L203.64 28.3057L209.23 19.59H212.712Z" fill="#292C33"/>
<path d="M218.56 37.5101V22.4002H212.282V19.59H228.363V22.4002H222.085V37.5101H218.56Z" fill="#292C33"/>
<path d="M244.314 19.59H247.84V37.5101H244.314V29.8126H234.511V37.5101H230.985V19.59H234.511V27.0024H244.314V19.59Z" fill="#292C33"/>
<path d="M269.036 35.1479C267.102 36.8992 264.694 37.7544 261.727 37.7544C258.804 37.7544 256.353 36.8992 254.418 35.1479C252.483 33.3966 251.537 31.1973 251.537 28.55C251.537 25.9027 252.483 23.7034 254.418 21.9522C256.353 20.2009 258.761 19.3456 261.727 19.3456C264.651 19.3456 267.102 20.2009 269.036 21.9522C270.971 23.7034 271.917 25.9027 271.917 28.55C271.96 31.1973 270.971 33.3966 269.036 35.1479ZM256.998 33.0708C258.245 34.2519 259.835 34.8628 261.77 34.8628C263.662 34.8628 265.253 34.2519 266.543 33.0708C267.79 31.8897 268.434 30.3828 268.434 28.55C268.434 26.7173 267.79 25.2104 266.543 24.0293C265.296 22.8482 263.705 22.2372 261.77 22.2372C259.878 22.2372 258.288 22.8482 256.998 24.0293C255.751 25.2104 255.106 26.7173 255.106 28.55C255.106 30.342 255.751 31.849 256.998 33.0708Z" fill="#292C33"/>
<path d="M288.986 19.59H292.469V37.5101H289.588L279.14 25.3733V37.5101H275.658V19.59H278.538L288.986 31.7268V19.59Z" fill="#292C33"/>
</svg>
