<svg width="116" height="206" viewBox="0 0 116 206" fill="none" xmlns="http://www.w3.org/2000/svg">
<path d="M113.526 166.441H2.30743C1.67813 166.441 1.09079 166.692 0.671253 167.111C0.25172 167.529 0 168.115 0 168.743C0 169.371 0.25172 169.957 0.671253 170.376C1.09079 170.795 1.67813 171.046 2.30743 171.046H113.484C114.113 171.046 114.7 170.795 115.12 170.376C115.539 169.957 115.791 169.371 115.791 168.743C115.791 168.115 115.539 167.529 115.12 167.111C114.742 166.692 114.155 166.441 113.526 166.441Z" fill="#292C33"/>
<path d="M115.833 18.2097C115.833 13.1863 113.777 8.62345 110.463 5.3164C107.191 2.05121 102.618 0 97.5834 0H18.2497C13.2153 0 8.64238 2.05121 5.32807 5.35826C2.05571 8.62345 0 13.1863 0 18.2097V187.748C0 192.772 2.05571 197.335 5.37002 200.642C8.68433 203.949 13.2572 206 18.2916 206H97.6253C102.66 206 107.233 203.949 110.505 200.642C113.819 197.335 115.875 192.772 115.875 187.748V18.2097H115.833ZM97.5834 201.312H18.2497C10.74 201.312 4.65682 195.242 4.65682 187.748V18.2097C4.65682 10.7165 10.74 4.64662 18.2497 4.64662H97.5834C105.093 4.64662 111.176 10.7165 111.176 18.2097V187.748C111.176 195.242 105.093 201.312 97.5834 201.312Z" fill="#292C33"/>
<path d="M113.526 17.1213H2.30743C1.67813 17.1213 1.09079 17.3725 0.671253 17.7911C0.25172 18.2097 0 18.7958 0 19.4237C0 20.0516 0.25172 20.6377 0.671253 21.0563C1.09079 21.4749 1.67813 21.7261 2.30743 21.7261H113.484C114.113 21.7261 114.7 21.4749 115.12 21.0563C115.539 20.6377 115.791 20.0516 115.791 19.4237C115.791 18.7958 115.539 18.2097 115.12 17.7911C114.742 17.3725 114.155 17.1213 113.526 17.1213Z" fill="#292C33"/>
<path d="M49.1273 186.409C49.5468 186.827 50.1342 187.079 50.7635 187.079H65.0696C65.6989 187.079 66.2862 186.827 66.7057 186.409C67.1253 185.99 67.377 185.404 67.377 184.776C67.377 184.148 67.1253 183.562 66.7057 183.144C66.2862 182.725 65.6989 182.474 65.0696 182.474H50.7635C50.1342 182.474 49.5468 182.725 49.1273 183.144C48.7078 183.562 48.4561 184.148 48.4561 184.776C48.4561 185.404 48.7078 185.99 49.1273 186.409Z" fill="#292C33"/>
<path d="M36.8769 107.668L22.3192 93.1416L37.2965 78.1971C37.8419 77.6529 38.0936 76.9413 38.0936 76.2715C38.0936 75.5598 37.8419 74.8482 37.2965 74.3459C36.7511 73.8017 36.0379 73.5505 35.3666 73.5505C34.6534 73.5505 33.9402 73.8017 33.4368 74.3459L16.5296 91.216C15.9842 91.7602 15.7325 92.4719 15.7325 93.1416C15.7325 93.8533 15.9842 94.5649 16.5296 95.0673L33.0592 111.561C33.6046 112.105 34.3178 112.356 34.989 112.356C35.7023 112.356 36.4155 112.105 36.9189 111.561C37.4643 111.016 37.716 110.305 37.716 109.635C37.716 108.923 37.4223 108.212 36.8769 107.668Z" fill="#292C33"/>
<path d="M100.143 93.1416C100.143 92.43 99.8908 91.7183 99.3454 91.216L82.4382 74.3459C81.8928 73.8017 81.1796 73.5505 80.5084 73.5505C79.7952 73.5505 79.082 73.8017 78.5785 74.3459C78.0331 74.8901 77.7814 75.6017 77.7814 76.2715C77.7814 76.9831 78.0331 77.6948 78.5785 78.1971L93.5558 93.1416L78.9981 107.668C78.4527 108.212 78.2009 108.923 78.2009 109.593C78.2009 110.305 78.4527 111.016 78.9981 111.519C79.5434 112.063 80.2566 112.314 80.9279 112.314C81.6411 112.314 82.3543 112.063 82.8578 111.519L99.3874 95.0254C99.8908 94.5231 100.143 93.8533 100.143 93.1416Z" fill="#292C33"/>
<path d="M70.1879 77.6529C70.4396 77.1924 70.5654 76.732 70.5654 76.2715C70.5654 75.3505 70.104 74.4296 69.2229 73.9273C68.7615 73.6761 68.3 73.5505 67.8385 73.5505C66.9155 73.5505 65.9925 74.011 65.4891 74.8901L45.6871 108.254C45.4354 108.714 45.3096 109.175 45.3096 109.635C45.3096 110.556 45.771 111.477 46.6521 111.979C47.1136 112.23 47.575 112.356 48.0365 112.356C48.9595 112.356 49.8825 111.896 50.3859 111.016L70.1879 77.6529Z" fill="#292C33"/>
</svg>
