<svg width="220" height="206" viewBox="0 0 220 206" fill="none" xmlns="http://www.w3.org/2000/svg">
<path d="M30.5085 25.2572C30.5085 24.5238 30.1865 23.8362 29.6804 23.3778L4.23844 0.641744C3.77837 0.229194 3.18027 0 2.53617 0C1.80006 0 1.10995 0.320872 0.649878 0.8251C0.189807 1.32933 -0.0402294 1.97107 0.00577781 2.65866C0.051785 3.34624 0.327828 3.94214 0.833907 4.40053L23.3774 24.5238L24.1596 25.2114L23.3774 25.899L0.879914 45.518C-0.178251 46.4348 -0.270265 48.0392 0.649878 49.0935C1.10995 49.6435 1.84607 49.9644 2.53617 49.9644C3.13427 49.9644 3.73236 49.7352 4.19243 49.3226L29.6344 27.1366C30.1865 26.6782 30.5085 25.9907 30.5085 25.2572Z" fill="#292C33"/>
<path d="M65.9805 1.10013H54.0186C52.6384 1.10013 51.4882 2.24611 51.4882 3.62127C51.4882 4.99644 52.6384 6.14241 54.0186 6.14241H65.9805C67.3607 6.14241 68.5109 4.99644 68.5109 3.62127C68.5109 2.24611 67.4067 1.10013 65.9805 1.10013Z" fill="#292C33"/>
<path d="M128.504 1.10013H86.5457C85.1655 1.10013 84.0153 2.24611 84.0153 3.62127C84.0153 4.99644 85.1655 6.14241 86.5457 6.14241H128.504C129.884 6.14241 131.035 4.99644 131.035 3.62127C131.035 2.24611 129.93 1.10013 128.504 1.10013Z" fill="#292C33"/>
<path d="M159.237 1.10013H150.128C148.747 1.10013 147.597 2.24611 147.597 3.62127C147.597 4.99644 148.747 6.14241 150.128 6.14241H159.237C160.617 6.14241 161.767 4.99644 161.767 3.62127C161.767 2.24611 160.663 1.10013 159.237 1.10013Z" fill="#292C33"/>
<path d="M187.762 1.10013H178.652C177.272 1.10013 176.122 2.24611 176.122 3.62127C176.122 4.99644 177.272 6.14241 178.652 6.14241H187.762C189.142 6.14241 190.292 4.99644 190.292 3.62127C190.292 2.24611 189.142 1.10013 187.762 1.10013Z" fill="#292C33"/>
<path d="M190.522 22.4611H183.161C181.781 22.4611 180.63 23.607 180.63 24.9822C180.63 26.3574 181.735 27.5033 183.115 27.5033H190.476C191.856 27.5033 193.006 26.3574 193.006 24.9822C193.006 23.607 191.902 22.4611 190.522 22.4611Z" fill="#292C33"/>
<path d="M216.884 1.10013H207.177C205.796 1.10013 204.646 2.24611 204.646 3.62127C204.646 4.99644 205.796 6.14241 207.177 6.14241H216.884C218.264 6.14241 219.414 4.99644 219.414 3.62127C219.414 2.24611 218.264 1.10013 216.884 1.10013Z" fill="#292C33"/>
<path d="M216.884 22.4611H204.324C202.944 22.4611 201.794 23.607 201.794 24.9822C201.794 26.3574 202.944 27.5033 204.324 27.5033H216.884C218.264 27.5033 219.414 26.3574 219.414 24.9822C219.414 23.607 218.264 22.4611 216.884 22.4611Z" fill="#292C33"/>
<path d="M169.359 22.4611H146.677C145.297 22.4611 144.147 23.607 144.147 24.9822C144.147 26.3574 145.297 27.5033 146.677 27.5033H169.359C170.739 27.5033 171.889 26.3574 171.889 24.9822C171.889 23.607 170.785 22.4611 169.359 22.4611Z" fill="#292C33"/>
<path d="M63.128 22.4611H54.0186C52.6384 22.4611 51.4882 23.607 51.4882 24.9822C51.4882 26.3574 52.6384 27.5033 54.0186 27.5033H63.128C64.5082 27.5033 65.6584 26.3574 65.6584 24.9822C65.6584 23.607 64.5543 22.4611 63.128 22.4611Z" fill="#292C33"/>
<path d="M216.884 116.935H177.134C175.754 116.935 174.603 118.081 174.603 119.456C174.603 120.831 175.754 121.977 177.134 121.977H216.838C218.218 121.977 219.368 120.831 219.368 119.456C219.368 118.081 218.264 116.935 216.884 116.935Z" fill="#292C33"/>
<path d="M187.762 74.259H180.032C178.652 74.259 177.502 75.405 177.502 76.7802C177.502 78.1553 178.652 79.3013 180.032 79.3013H187.762C189.142 79.3013 190.292 78.1553 190.292 76.7802C190.292 75.405 189.142 74.259 187.762 74.259Z" fill="#292C33"/>
<path d="M191.12 95.6199H182.379C180.998 95.6199 179.848 96.7659 179.848 98.1411C179.848 99.5163 180.998 100.662 182.379 100.662H191.12C192.5 100.662 193.65 99.5163 193.65 98.1411C193.65 96.7659 192.5 95.6199 191.12 95.6199Z" fill="#292C33"/>
<path d="M216.884 74.259H207.177C205.796 74.259 204.646 75.405 204.646 76.7802C204.646 78.1553 205.796 79.3013 207.177 79.3013H216.884C218.264 79.3013 219.414 78.1553 219.414 76.7802C219.414 75.405 218.264 74.259 216.884 74.259Z" fill="#292C33"/>
<path d="M216.884 95.6199H207.729C206.348 95.6199 205.198 96.7659 205.198 98.1411C205.198 99.5163 206.348 100.662 207.729 100.662H216.884C218.264 100.662 219.414 99.5163 219.414 98.1411C219.414 96.7659 218.264 95.6199 216.884 95.6199Z" fill="#292C33"/>
<path d="M25.4481 74.259H3.64074C2.26053 74.259 1.11035 75.405 1.11035 76.7802C1.11035 78.1553 2.26053 79.3013 3.64074 79.3013H25.4481C26.8284 79.3013 27.9785 78.1553 27.9785 76.7802C27.9785 75.405 26.8284 74.259 25.4481 74.259Z" fill="#292C33"/>
<path d="M21.9516 95.6199H3.64074C2.26052 95.6199 1.11035 96.7659 1.11035 98.1411C1.11035 99.5163 2.26052 100.662 3.64074 100.662H21.9516C23.3318 100.662 24.482 99.5163 24.482 98.1411C24.482 96.7659 23.3778 95.6199 21.9516 95.6199Z" fill="#292C33"/>
<path d="M28.8067 116.935H3.64074C2.26053 116.935 1.11035 118.081 1.11035 119.456C1.11035 120.831 2.26053 121.977 3.64074 121.977H28.8067C30.1869 121.977 31.3371 120.831 31.3371 119.456C31.3371 118.081 30.1869 116.935 28.8067 116.935Z" fill="#292C33"/>
<path d="M214.078 198.437L152.152 136.737L152.75 136.096C164.16 123.582 170.417 107.355 170.417 90.486C170.371 52.9439 139.776 22.4611 102.142 22.4611C64.5082 22.4611 33.8675 52.9439 33.8675 90.4401C33.8675 127.936 64.5082 158.465 102.142 158.465C119.073 158.465 135.313 152.231 147.919 140.863L148.563 140.267L210.489 201.966C210.949 202.425 211.593 202.7 212.283 202.7C212.973 202.7 213.618 202.425 214.078 201.966C215.044 201.004 215.044 199.399 214.078 198.437ZM147.137 134.583L147.045 134.675C146.907 134.766 146.861 134.812 146.769 134.904C146.677 134.996 146.631 135.041 146.539 135.179L146.447 135.271C134.531 146.96 118.797 153.377 102.142 153.377C67.3147 153.377 38.9743 125.14 38.9743 90.4401C38.9743 55.7401 67.3147 27.5033 102.142 27.5033C136.97 27.5033 165.31 55.7401 165.31 90.4401C165.31 107.034 158.869 122.711 147.137 134.583Z" fill="#292C33"/>
<path d="M11.2319 136.6H3.50272C2.1225 136.6 0.972324 137.746 0.972324 139.121C0.972324 140.496 2.1225 141.642 3.50272 141.642H11.2319C12.6121 141.642 13.7623 140.496 13.7623 139.121C13.7623 137.746 12.6121 136.6 11.2319 136.6Z" fill="#292C33"/>
<path d="M41.3206 136.6H24.436C23.0558 136.6 21.9056 137.746 21.9056 139.121C21.9056 140.496 23.0558 141.642 24.436 141.642H41.3206C42.7008 141.642 43.851 140.496 43.851 139.121C43.851 137.746 42.7469 136.6 41.3206 136.6Z" fill="#292C33"/>
<path d="M184.863 136.6H177.134C175.754 136.6 174.603 137.746 174.603 139.121C174.603 140.496 175.754 141.642 177.134 141.642H184.863C186.243 141.642 187.393 140.496 187.393 139.121C187.393 137.746 186.243 136.6 184.863 136.6Z" fill="#292C33"/>
<path d="M216.884 136.6H198.113C196.733 136.6 195.583 137.746 195.583 139.121C195.583 140.496 196.733 141.642 198.113 141.642H216.884C218.264 141.642 219.414 140.496 219.414 139.121C219.414 137.746 218.264 136.6 216.884 136.6Z" fill="#292C33"/>
<path d="M63.082 156.311H40.7225C39.3423 156.311 38.1921 157.457 38.1921 158.832C38.1921 160.207 39.3423 161.353 40.7225 161.353H63.128C64.5083 161.353 65.6584 160.207 65.6584 158.832C65.6584 157.457 64.5083 156.311 63.082 156.311Z" fill="#292C33"/>
<path d="M27.7025 156.311H21.8596C20.4794 156.311 19.3292 157.457 19.3292 158.832C19.3292 160.207 20.4794 161.353 21.8596 161.353H27.7485C29.1287 161.353 30.2789 160.207 30.2789 158.832C30.2789 157.457 29.1287 156.311 27.7025 156.311Z" fill="#292C33"/>
<path d="M9.39164 156.311H3.50272C2.1225 156.311 0.972324 157.457 0.972324 158.832C0.972324 160.207 2.1225 161.353 3.50272 161.353H9.39164C10.7719 161.353 11.922 160.207 11.922 158.832C11.922 157.457 10.7719 156.311 9.39164 156.311Z" fill="#292C33"/>
<path d="M11.2319 181.247H3.50272C2.1225 181.247 0.972324 182.393 0.972324 183.768C0.972324 185.143 2.1225 186.289 3.50272 186.289H11.2319C12.6121 186.289 13.7623 185.143 13.7623 183.768C13.7623 182.393 12.6121 181.247 11.2319 181.247Z" fill="#292C33"/>
<path d="M50.5221 181.247H24.436C23.0558 181.247 21.9056 182.393 21.9056 183.768C21.9056 185.143 23.0558 186.289 24.436 186.289H50.5221C51.9023 186.289 53.0525 185.143 53.0525 183.768C53.0525 182.393 51.9483 181.247 50.5221 181.247Z" fill="#292C33"/>
<path d="M70.3052 181.247H64.4162C63.036 181.247 61.8858 182.393 61.8858 183.768C61.8858 185.143 63.036 186.289 64.4162 186.289H70.3052C71.6854 186.289 72.8355 185.143 72.8355 183.768C72.8355 182.393 71.6854 181.247 70.3052 181.247Z" fill="#292C33"/>
<path d="M88.662 181.247H82.7731C81.3929 181.247 80.2427 182.393 80.2427 183.768C80.2427 185.143 81.3929 186.289 82.7731 186.289H88.662C90.0422 186.289 91.1924 185.143 91.1924 183.768C91.1924 182.393 90.0422 181.247 88.662 181.247Z" fill="#292C33"/>
<path d="M88.662 200.958H80.9328C79.5526 200.958 78.4024 202.104 78.4024 203.479C78.4024 204.854 79.5526 206 80.9328 206H88.662C90.0422 206 91.1924 204.854 91.1924 203.479C91.1924 202.104 90.0422 200.958 88.662 200.958Z" fill="#292C33"/>
<path d="M67.6828 200.958H40.7225C39.3423 200.958 38.1921 202.104 38.1921 203.479C38.1921 204.854 39.3423 206 40.7225 206H67.7288C69.109 206 70.2591 204.854 70.2591 203.479C70.2591 202.104 69.109 200.958 67.6828 200.958Z" fill="#292C33"/>
<path d="M27.7025 200.958H21.8596C20.4794 200.958 19.3292 202.104 19.3292 203.479C19.3292 204.854 20.4794 206 21.8596 206H27.7485C29.1287 206 30.2789 204.854 30.2789 203.479C30.2789 202.104 29.1287 200.958 27.7025 200.958Z" fill="#292C33"/>
<path d="M9.39164 200.958H3.50272C2.1225 200.958 0.972324 202.104 0.972324 203.479C0.972324 204.854 2.1225 206 3.50272 206H9.39164C10.7719 206 11.922 204.854 11.922 203.479C11.922 202.104 10.7719 200.958 9.39164 200.958Z" fill="#292C33"/>
<path d="M128.504 181.247H104.212C102.832 181.247 101.682 182.393 101.682 183.768C101.682 185.143 102.832 186.289 104.212 186.289H128.504C129.884 186.289 131.035 185.143 131.035 183.768C131.035 182.393 129.93 181.247 128.504 181.247Z" fill="#292C33"/>
<path d="M162.78 181.247H147.459C146.079 181.247 144.929 182.393 144.929 183.768C144.929 185.143 146.079 186.289 147.459 186.289H162.78C164.16 186.289 165.31 185.143 165.31 183.768C165.31 182.393 164.206 181.247 162.78 181.247Z" fill="#292C33"/>
<path d="M148.931 99.7454C149.161 99.1037 149.115 98.4161 148.793 97.8202C148.517 97.2243 147.965 96.7659 147.321 96.5367C147.045 96.445 146.769 96.3992 146.493 96.3992C145.389 96.3992 144.423 97.0868 144.101 98.0952L142.997 101.304L142.72 102.083L141.938 101.9L137.108 100.846L136.095 100.616L136.464 99.6538C137.43 96.9493 138.074 94.1989 138.396 91.4028L138.488 90.486L139.408 90.5777L147.045 91.4028C147.137 91.4028 147.229 91.4028 147.321 91.4028C147.965 91.4028 148.563 91.1736 149.023 90.7152C149.576 90.2109 149.852 89.5234 149.852 88.7899L149.576 79.0721C149.53 77.7428 148.379 76.6426 147.045 76.6426H146.999C146.309 76.6426 145.711 76.9177 145.251 77.4219C144.791 77.9261 144.561 78.5679 144.561 79.2096L144.699 84.9853L144.745 86.0396L143.687 85.9479L139.408 85.4895L138.626 85.3979L138.58 84.6186C138.488 82.9226 138.212 81.2724 137.89 79.6222V79.5305C137.89 79.3471 137.844 79.1638 137.752 78.9346V78.8429C136.325 72.9755 133.381 67.6582 129.194 63.4869C125.008 59.3155 119.671 56.3818 113.782 54.9608H113.69C113.506 54.915 113.322 54.8692 113.092 54.8233H113C111.39 54.4566 109.687 54.2274 108.031 54.1357L107.249 54.0899L107.157 53.3106L106.697 49.0476L106.605 47.9933L107.663 48.0392L113.46 48.1767H113.552C114.932 48.1767 116.036 47.0765 116.082 45.7014C116.082 45.0138 115.852 44.3721 115.392 43.9137C114.932 43.4094 114.288 43.1344 113.644 43.1344L103.89 42.8594H103.798C103.108 42.8594 102.418 43.1344 101.958 43.6845C101.452 44.2345 101.222 44.9221 101.314 45.6555L102.142 53.219L102.234 54.1357L101.314 54.2274C98.5076 54.5483 95.7011 55.19 93.0327 56.1526L92.0666 56.5194L91.8365 55.5109L90.7784 50.6978L90.5943 49.9186L91.3765 49.6435L94.597 48.5434C95.9312 48.085 96.6213 46.664 96.1612 45.3347C95.7931 44.3262 94.827 43.6386 93.7688 43.6386C93.4928 43.6386 93.2167 43.6845 92.9407 43.7761L86.8217 45.8389C85.6256 46.2514 84.8894 47.4891 85.1655 48.7726L87.1438 58.032L87.2818 58.6738L86.6837 58.9947C83.4632 60.7824 80.5188 63.0285 77.8503 65.6413L77.4823 66.008L76.9762 65.8705L64.0482 62.7534C63.8642 62.7076 63.6341 62.6618 63.4501 62.6618C62.3459 62.6618 61.3338 63.3952 61.0117 64.4495L59.1714 70.6377C58.9874 71.2795 59.0334 71.9671 59.3554 72.563C59.6775 73.1589 60.2296 73.5714 60.8737 73.8006C61.1037 73.8923 61.3338 73.8923 61.6098 73.8923C62.714 73.8923 63.7261 73.1589 64.0482 72.1046L64.9683 69.0792L65.1984 68.2541L66.0265 68.4833L72.4215 70.0418L73.7097 70.3627L72.9276 71.4628C71.2713 73.8465 69.8451 76.4134 68.7409 79.0721L68.4649 79.7138L67.7748 79.668L58.2513 78.7971C58.1593 78.7971 58.1133 78.7971 58.0212 78.7971C56.779 78.7971 55.7209 79.7138 55.5368 80.9515L54.5247 87.644C54.2947 89.0191 55.2608 90.3026 56.641 90.5318C56.779 90.5318 56.9171 90.5777 57.0091 90.5777C58.2513 90.5777 59.3094 89.6609 59.4935 88.4232L59.9995 84.9395L60.1376 84.0685L61.0117 84.1602L65.8425 84.6186L66.9006 84.7103L66.6706 85.7187C66.2105 87.8273 65.9345 89.9359 65.8425 91.9987C65.8425 92.1362 65.8425 92.3195 65.8425 92.4571C65.8425 92.5487 65.8425 92.6404 65.8425 92.7779V93.4197L65.2444 93.6489L56.227 96.9951C54.9848 97.4535 54.3407 98.737 54.6627 100.02L56.8251 108.042C57.1011 109.142 58.1133 109.922 59.2634 109.922C59.4935 109.922 59.7235 109.876 59.9075 109.83C61.2417 109.463 62.0699 108.088 61.7018 106.759L60.3676 101.762L60.1376 100.937L60.9197 100.662L65.0603 99.1037L66.1185 98.737L66.3025 99.8371C67.4527 106.575 70.5812 112.626 75.3199 117.393C80.1507 122.206 86.3157 125.324 93.1707 126.424L94.2289 126.607L93.9068 127.615L92.4806 132.154L92.2046 132.979L91.3305 132.749L86.4997 131.466C86.2697 131.42 86.0396 131.374 85.8556 131.374C84.7054 131.374 83.6933 132.154 83.4172 133.254C83.0492 134.583 83.8313 136.004 85.2115 136.325L93.2627 138.479C93.4928 138.525 93.7228 138.571 93.9068 138.571C95.011 138.571 95.9772 137.883 96.2992 136.829L99.2437 127.524L99.4277 126.882H100.072C100.164 126.882 100.256 126.882 100.348 126.882C100.486 126.882 100.578 126.882 100.716 126.882C102.694 126.79 104.719 126.515 106.697 126.103L107.801 125.874V126.974L107.893 131.695V132.52L107.111 132.658L103.384 133.208C102.004 133.437 101.038 134.721 101.268 136.096C101.452 137.333 102.51 138.25 103.752 138.25C103.89 138.25 104.028 138.25 104.12 138.204L110.837 137.196C112.08 137.012 113 135.912 113 134.675L112.816 124.957V124.315L113.414 124.086C116.082 122.986 118.659 121.611 121.051 119.96L122.201 119.181L122.477 120.556L123.443 125.415L123.628 126.24L122.845 126.47L119.671 127.432C119.027 127.615 118.475 128.074 118.153 128.67C117.831 129.266 117.739 129.953 117.969 130.595C118.291 131.649 119.303 132.383 120.407 132.383C120.637 132.383 120.913 132.337 121.143 132.291L127.354 130.458C128.596 130.091 129.378 128.853 129.102 127.57L126.802 115.927L126.71 115.468L127.032 115.101C129.654 112.443 131.909 109.463 133.703 106.3L134.025 105.704L134.669 105.842L144.009 107.813C144.193 107.859 144.377 107.859 144.561 107.859C145.665 107.859 146.585 107.171 146.953 106.163L148.931 99.7454ZM118.383 62.0659C121.051 63.3952 123.443 65.0912 125.468 67.154C127.538 69.2167 129.24 71.6004 130.575 74.2132L131.495 76.0926L129.47 75.4967L119.947 72.6546L117.094 63.166L116.496 61.1491L118.383 62.0659ZM77.1142 111.755L76.4701 110.93C72.4215 105.659 70.4432 99.1495 70.8112 92.1362C70.9493 89.2942 71.4553 86.4522 72.3755 83.656V83.6101L72.4215 83.5643C72.5135 83.3351 72.6055 83.1059 72.6515 82.8767V82.785L72.6975 82.6934C74.4458 77.7886 77.3443 73.2047 81.1628 69.4459C87.7419 62.891 96.6213 59.1322 105.455 59.1322C107.019 59.1322 108.629 59.2697 110.193 59.4989L110.745 59.5906L110.93 60.1406L114.886 73.4798L115.024 73.984L77.1142 111.755ZM123.167 111.343C119.303 115.193 114.656 118.127 109.687 119.823H109.595C109.503 119.869 109.365 119.869 109.273 119.915H109.181C106.283 120.877 103.338 121.427 100.394 121.565C99.8878 121.611 99.3817 121.611 98.8756 121.611C92.4346 121.611 86.4077 119.64 81.5309 115.927L80.7028 115.285L118.613 77.5136L119.119 77.6511L132.507 81.5932L133.059 81.7766L133.151 82.3267C134.807 92.6862 131.035 103.504 123.167 111.343Z" fill="#292C33"/>
</svg>
