<svg width="243" height="206" viewBox="0 0 243 206" fill="none" xmlns="http://www.w3.org/2000/svg">
<path d="M226.645 88.6909C219.518 88.6909 213.402 93.5535 211.734 100.493L211.532 101.253H136.321L136.22 100.341C135.31 92.5911 128.789 86.7662 121.005 86.7662C113.879 86.7662 107.763 91.6287 106.095 98.568L105.892 99.3278H104.528C84.9161 99.3278 68.9943 83.3219 68.9943 63.7197V53.792C68.9943 40.3693 62.4234 27.7064 51.4045 20.0074L48.7762 18.1839H105.892L106.095 18.9437C107.763 25.883 113.879 30.7455 121.005 30.7455C128.132 30.7455 134.248 25.883 135.916 18.9437L136.118 18.1839H211.583L211.785 18.9437C213.453 25.883 219.569 30.7455 226.696 30.7455C235.137 30.7455 242.011 23.8569 242.011 15.3981C242.011 6.93927 235.137 0.0506516 226.696 0.0506516C219.569 0.0506516 213.453 4.9132 211.785 11.8525L211.583 12.6122H136.068L135.866 11.8525C134.248 4.86255 128.132 0 121.005 0C113.879 0 107.763 4.86255 106.095 11.8018L105.892 12.5616H30.4283L30.2261 11.8018C28.6086 4.86255 22.4421 0 15.3152 0C6.87416 0 0 6.88861 0 15.3474C0 23.8062 6.87416 30.6949 15.3152 30.6949C22.3916 30.6949 28.5075 25.883 30.1755 19.045L30.3777 18.1839L31.237 18.2852C49.5849 20.058 63.3838 35.3042 63.3838 53.7413V63.669C63.3838 86.4116 81.8328 104.849 104.477 104.849H105.842L106.044 105.609C107.712 112.548 113.828 117.41 120.955 117.41C127.273 117.41 133.035 113.409 135.31 107.483L135.562 106.774L136.321 106.824C154.669 108.293 169.074 123.843 169.074 142.331V152.259C169.074 175.001 187.523 193.438 210.167 193.438H211.532L211.734 194.198C213.402 201.137 219.518 206 226.645 206C235.086 206 241.96 199.111 241.96 190.653C241.96 182.194 235.086 175.305 226.645 175.305C219.518 175.305 213.402 180.168 211.734 187.107L211.532 187.867H210.167C190.556 187.867 174.634 171.861 174.634 152.259V142.331C174.634 128.908 168.063 116.245 157.044 108.546L154.416 106.723H211.532L211.734 107.483C213.402 114.422 219.518 119.284 226.645 119.284C235.086 119.284 241.96 112.396 241.96 103.937C241.96 95.5795 235.086 88.6909 226.645 88.6909ZM226.645 5.57167C232.053 5.57167 236.4 9.97836 236.4 15.3474C236.4 20.7671 232.003 25.1232 226.645 25.1232C221.287 25.1232 216.839 20.7671 216.839 15.3474C216.839 9.97836 221.237 5.57167 226.645 5.57167ZM121.005 5.57167C126.414 5.57167 130.761 9.97836 130.761 15.3474C130.761 20.7671 126.363 25.1232 121.005 25.1232C115.648 25.1232 111.2 20.7671 111.2 15.3474C111.2 9.97836 115.597 5.57167 121.005 5.57167ZM15.3152 25.1738C9.95742 25.1738 5.55998 20.7671 5.55998 15.3474C5.55998 9.97836 9.95742 5.57167 15.3152 5.57167C20.7236 5.57167 25.0705 9.97836 25.0705 15.3474C25.121 20.7671 20.7236 25.1738 15.3152 25.1738ZM121.005 111.94C115.597 111.94 111.25 107.533 111.25 102.164C111.25 96.7445 115.648 92.3885 121.005 92.3885C126.363 92.3885 130.761 96.7952 130.761 102.164C130.761 107.533 126.363 111.94 121.005 111.94ZM226.645 181.029C232.053 181.029 236.4 185.435 236.4 190.805C236.4 196.224 232.003 200.58 226.645 200.58C221.287 200.58 216.89 196.174 216.89 190.805C216.839 185.435 221.237 181.029 226.645 181.029ZM226.645 113.814C221.237 113.814 216.89 109.407 216.89 104.038C216.89 98.6186 221.287 94.2626 226.645 94.2626C232.003 94.2626 236.4 98.6693 236.4 104.038C236.4 109.458 232.003 113.814 226.645 113.814Z" fill="#292C33"/>
</svg>
