<svg width="249" height="207" viewBox="0 0 249 207" fill="none" xmlns="http://www.w3.org/2000/svg">
<path fill-rule="evenodd" clip-rule="evenodd" d="M169.929 74.0574C170.132 74.1389 170.377 74.1794 170.621 74.1794C170.903 74.1794 171.185 74.1118 171.443 73.9841C171.633 73.8904 171.81 73.7644 171.965 73.6091L188.908 56.6633H232.202C241.243 56.6633 248.574 49.3308 248.574 40.2876V16.3757C248.574 7.33252 241.243 0 232.202 0H166.834C157.792 0 150.461 7.33252 150.461 16.3757V40.3284C150.461 49.3716 157.792 56.7039 166.834 56.7039H168.789V72.3464C168.789 73.0796 169.236 73.7722 169.929 74.0574ZM154.126 16.4165C154.126 9.40991 159.828 3.70703 166.834 3.70703V3.66626H232.202C239.207 3.66626 244.909 9.36914 244.909 16.3757V40.3284C244.909 47.3347 239.207 53.0378 232.202 53.0378H188.134C187.83 53.0378 187.54 53.1013 187.277 53.238C187.118 53.3203 186.969 53.4294 186.831 53.5674L172.495 67.9062V54.8708C172.495 53.8525 171.68 53.0378 170.662 53.0378H166.834C159.828 53.0378 154.126 47.3347 154.126 40.3284V16.4165ZM96.9453 175.285H87.7818C86.2339 175.285 84.9307 173.982 84.9307 172.434C84.9307 170.886 86.1934 169.583 87.7818 169.583H96.9453C98.4932 169.583 99.7964 170.845 99.7964 172.434C99.7964 173.982 98.5337 175.285 96.9453 175.285ZM93.2798 162.616H100.407C101.996 162.616 103.258 161.313 103.258 159.765C103.258 158.176 101.955 156.914 100.407 156.914H93.2798C91.6914 156.914 90.4287 158.217 90.4287 159.765C90.4287 161.354 91.6914 162.616 93.2798 162.616ZM121.911 175.285H112.748C111.2 175.285 109.897 173.982 109.897 172.434C109.897 170.886 111.159 169.583 112.748 169.583H121.911C123.459 169.583 124.762 170.845 124.762 172.434C124.762 173.982 123.5 175.285 121.911 175.285ZM48.8868 162.616H56.0142C57.6026 162.616 58.8648 161.313 58.8648 159.765C58.8648 158.176 57.5616 156.914 56.0142 156.914H48.8868C47.2984 156.914 46.0357 158.217 46.0357 159.765C45.9947 161.354 47.2984 162.616 48.8868 162.616ZM78.2105 162.616H71.083C69.4947 162.616 68.232 161.354 68.232 159.765C68.232 158.217 69.4947 156.914 71.083 156.914H78.2105C79.7578 156.914 81.0611 158.176 81.0611 159.765C81.0611 161.313 79.7989 162.616 78.2105 162.616ZM159.91 162.616H166.997C168.585 162.616 169.848 161.313 169.848 159.765C169.848 158.176 168.544 156.914 166.997 156.914H159.87C158.281 156.914 157.019 158.217 157.019 159.765C157.019 161.354 158.322 162.616 159.91 162.616ZM29.8257 184.003H38.9893C40.5777 184.003 41.8809 185.266 41.8404 186.854C41.8404 188.402 40.5777 189.706 38.9893 189.706H29.8257C28.2784 189.706 26.9746 188.443 26.9746 186.854C26.9746 185.306 28.2373 184.003 29.8257 184.003ZM182.107 162.616H189.235C190.823 162.616 192.085 161.313 192.085 159.765C192.085 158.176 190.782 156.914 189.235 156.914H182.107C180.519 156.914 179.256 158.217 179.256 159.765C179.256 161.354 180.519 162.616 182.107 162.616ZM122.604 162.616H115.477C113.888 162.616 112.626 161.354 112.626 159.765C112.626 158.217 113.888 156.914 115.477 156.914H122.604C124.151 156.914 125.455 158.176 125.455 159.765C125.455 161.313 124.192 162.616 122.604 162.616ZM137.754 169.542C136.166 169.542 134.903 170.845 134.903 172.393C134.903 173.982 136.207 175.245 137.754 175.245H146.918C148.506 175.245 149.769 173.941 149.769 172.393C149.769 170.804 148.466 169.542 146.918 169.542H137.754ZM144.801 162.616H137.673C136.126 162.616 134.822 161.354 134.822 159.765C134.822 158.217 136.085 156.914 137.673 156.914H144.801C146.348 156.914 147.651 158.176 147.651 159.765C147.651 161.313 146.389 162.616 144.801 162.616ZM140.565 109.212C140.036 109.742 139.71 110.475 139.71 111.249C139.71 112.023 139.995 112.716 140.565 113.286C141.135 113.856 141.828 114.141 142.601 114.141C143.375 114.141 144.067 113.856 144.638 113.286L165.49 92.4292C166.02 91.8997 166.346 91.1665 166.346 90.3923C166.346 89.6184 166.061 88.926 165.49 88.3557L144.108 66.9695C143.579 66.4399 142.846 66.114 142.072 66.114C141.298 66.114 140.605 66.3992 140.036 66.9695C139.506 67.499 139.18 68.2322 139.18 69.0063C139.18 69.7803 139.465 70.4727 140.036 71.043L158.811 89.822L159.381 90.3923L158.811 90.9626L140.565 109.212ZM196.851 169.583C198.398 169.583 199.702 170.845 199.702 172.434C199.702 173.982 198.439 175.285 196.851 175.285H187.687C186.139 175.285 184.836 174.023 184.836 172.434C184.836 170.886 186.099 169.583 187.687 169.583H196.851ZM236.845 195.979L201.29 146.526L201.127 146.323V146.078V64.6475H195.425V143.715V144.53H194.61H43.2251H42.4107V143.715V40.7356C42.4107 37.9656 44.6509 35.7251 47.42 35.7251H142.723V30.0222H47.42C41.4742 29.9814 36.668 34.8291 36.668 40.7356V146.404V146.648L36.5049 146.852L1.19437 195.979C-0.190396 197.934 -0.394498 200.46 0.705112 202.578C1.80472 204.697 3.9639 206.041 6.36624 206.041H231.713C234.117 206.041 236.275 204.737 237.375 202.578C238.475 200.419 238.271 197.894 236.845 195.979ZM231.347 200.297H6.73343H5.14456L6.08109 198.994L40.9038 150.6L41.148 150.274H41.5552H196.525H196.932L197.176 150.6L231.999 198.994L232.936 200.297H231.347ZM198.276 184.003H207.44C209.028 184.003 210.291 185.266 210.291 186.854C210.291 188.402 209.028 189.706 207.44 189.706H198.276C196.729 189.706 195.425 188.443 195.425 186.854C195.425 185.306 196.688 184.003 198.276 184.003ZM131.442 66.114C130.423 66.114 129.487 66.6436 128.958 67.499L103.91 109.742C103.095 111.086 103.543 112.878 104.928 113.653C105.376 113.897 105.865 114.06 106.394 114.06C107.412 114.06 108.349 113.53 108.878 112.675L133.926 70.4319C134.741 69.0876 134.293 67.3362 132.908 66.5215C132.652 66.3936 132.397 66.2881 132.142 66.2166C132.054 66.1921 131.967 66.1716 131.879 66.1555C131.734 66.1284 131.588 66.114 131.442 66.114ZM98.5581 69.5271C98.4429 70.0881 98.1592 70.603 97.7598 71.0022L78.9844 89.7812L78.4141 90.3516L78.9844 90.9219L97.2305 109.172C97.8008 109.742 98.086 110.434 98.086 111.208C98.086 111.982 97.7598 112.716 97.2305 113.245C96.6602 113.815 95.9678 114.101 95.1939 114.101C94.8443 114.101 94.503 114.034 94.1851 113.912C93.7993 113.764 93.4478 113.535 93.1577 113.245L72.3052 92.3884C71.7349 91.8181 71.4497 91.1257 71.4497 90.3516C71.4497 89.5776 71.7754 88.8445 72.3052 88.3149L93.687 66.9287C94.2574 66.3584 94.9497 66.0732 95.7237 66.0732C96.4976 66.0732 97.2305 66.3992 97.7598 66.9287C98.3301 67.499 98.6153 68.1914 98.6153 68.9656L98.6133 69.0686L98.6109 69.1204L98.606 69.1912L98.5987 69.2668L98.5904 69.3337C98.5821 69.3987 98.5713 69.4631 98.5581 69.5271ZM74.8706 172.434C74.8706 170.845 73.5674 169.583 72.0196 169.583H62.856C61.2676 169.583 60.0049 170.886 60.0049 172.434C60.0049 174.023 61.3081 175.285 62.856 175.285H72.0196C73.5674 175.285 74.8706 173.982 74.8706 172.434ZM52.6744 184.003H61.8379C63.3858 184.003 64.689 185.266 64.689 186.854C64.689 188.402 63.4263 189.706 61.8379 189.706H52.6744C51.1265 189.706 49.8233 188.443 49.8233 186.854C49.8233 185.306 51.086 184.003 52.6744 184.003ZM47.0127 169.542H37.8492C36.2608 169.542 34.9981 170.845 34.9981 172.393C34.9981 173.982 36.3013 175.245 37.8492 175.245H47.0127C48.6011 175.245 49.8638 173.941 49.8638 172.393C49.8638 170.845 48.6011 169.542 47.0127 169.542ZM76.7442 184.003H161.336C162.883 184.003 164.187 185.266 164.146 186.854C164.146 188.402 162.883 189.706 161.295 189.706H76.7442C75.1963 189.706 73.8931 188.443 73.8931 186.854C73.8931 185.306 75.1558 184.003 76.7442 184.003ZM174.735 172.434C174.735 170.845 173.432 169.583 171.884 169.583H162.721C161.132 169.583 159.87 170.886 159.87 172.434C159.87 174.023 161.173 175.285 162.721 175.285H171.884C173.473 175.285 174.735 173.982 174.735 172.434ZM175.469 184.003H184.632C186.18 184.003 187.483 185.266 187.483 186.854C187.483 188.402 186.221 189.706 184.632 189.706H175.469C173.921 189.706 172.618 188.443 172.618 186.854C172.618 185.306 173.88 184.003 175.469 184.003ZM170.173 36.6211C168.952 36.6211 167.852 36.3767 166.834 35.8879C165.815 35.3992 164.96 34.7473 164.309 33.8511L166.304 31.4478C167.363 32.9143 168.626 33.6067 170.092 33.6067C172.047 33.6067 173.065 32.4253 173.065 30.1035V20.2861H166.304V17.3125H176.608V29.8999C176.568 34.3806 174.45 36.6211 170.173 36.6211ZM193.47 31.9365L195.343 36.3359H199.05L190.456 17.3125H186.994L178.441 36.3359H182.066L183.98 31.9365H193.47ZM192.248 29.1665H185.121L188.664 20.8564L192.248 29.1665ZM214.323 17.3125H217.866L209.598 36.3359H206.096L197.787 17.3125H201.616L207.928 31.9773L214.323 17.3125ZM231.591 31.9365L233.505 36.3359H237.211L228.618 17.3125H225.156L216.603 36.3359H220.228L222.101 31.9365H231.591ZM230.41 29.1665H223.282L226.826 20.8564L230.41 29.1665Z" fill="#292C33"/>
</svg>
