<svg width="237" height="173" viewBox="0 0 237 173" fill="none" xmlns="http://www.w3.org/2000/svg">
<path d="M195.225 23.102C193.2 23.102 191.559 21.461 191.559 19.4366C191.559 17.4122 193.2 15.7711 195.225 15.7711C197.249 15.7711 198.891 17.4122 198.891 19.4366C198.891 21.461 197.249 23.102 195.225 23.102Z" fill="#292C33"/>
<path d="M212.35 23.102C210.325 23.102 208.684 21.461 208.684 19.4366C208.684 17.4122 210.325 15.7711 212.35 15.7711C214.374 15.7711 216.016 17.4122 216.016 19.4366C216.016 21.461 214.374 23.102 212.35 23.102Z" fill="#292C33"/>
<path d="M63.6277 148.548C51.9056 148.548 42.3542 138.998 42.3542 127.278C42.3542 115.558 51.9056 106.009 63.6277 106.009C75.3499 106.009 84.9013 115.558 84.9013 127.278C84.9013 138.998 75.3499 148.548 63.6277 148.548ZM63.6277 111.362C54.8482 111.362 47.6605 118.5 47.6605 127.326C47.6605 136.152 54.8482 143.242 63.6277 143.242C72.4073 143.242 79.5949 136.104 79.5949 127.278C79.5949 118.452 72.4073 111.362 63.6277 111.362Z" fill="#292C33"/>
<path d="M178.051 23.102C176.027 23.102 174.385 21.461 174.385 19.4366C174.385 17.4122 176.027 15.7711 178.051 15.7711C180.076 15.7711 181.718 17.4122 181.718 19.4366C181.718 21.461 180.076 23.102 178.051 23.102Z" fill="#292C33"/>
<path d="M18.7651 33.0856H218.524C219.971 33.0856 221.178 34.2913 221.178 35.7382C221.178 37.1851 219.971 38.3909 218.524 38.3909H18.7169C17.2697 38.3909 16.0637 37.1851 16.0637 35.7382C16.0637 34.2913 17.3179 33.0856 18.7651 33.0856Z" fill="#292C33"/>
<path d="M0 13.7937C0 6.1734 6.17463 0 13.7964 0H223.204C230.825 0 237 6.1734 237 13.7937V159.206C237 166.827 230.825 173 223.204 173H13.7964C6.17463 173 0 166.827 0 159.206V13.7937ZM5.30633 159.206C5.30633 163.885 9.11723 167.695 13.7964 167.695H223.204C227.883 167.695 231.694 163.885 231.694 159.206V13.7937C231.694 9.11542 227.883 5.30527 223.204 5.30527H13.7964C9.11723 5.30527 5.30633 9.11542 5.30633 13.7937V159.206Z" fill="#292C33"/>
<path d="M42.9331 77.4087C41.2929 78.0839 39.6045 78.4215 37.9161 78.4215C34.5394 78.4215 31.3556 77.0711 28.8954 74.6114C27.4482 73.1645 25.5669 72.3928 23.5408 72.3928C21.5148 72.3928 19.6334 73.1645 18.1863 74.6114C17.7039 75.0937 17.0285 75.383 16.3049 75.383C15.5813 75.383 14.9542 75.0937 14.4236 74.6114C13.4106 73.5985 13.4106 71.9105 14.4236 70.8494C16.8356 68.438 20.0676 67.0875 23.4926 67.0875C26.9176 67.0875 30.1496 68.438 32.5616 70.8494C34.0088 72.2963 35.8901 73.068 37.8197 73.068C38.8327 73.068 39.7975 72.8751 40.7623 72.441C43.6566 71.2353 45.4415 68.6309 45.4415 65.496C45.4415 58.4062 51.2302 52.6668 58.2732 52.6668H68.6929C75.784 52.6668 81.5245 58.4544 81.5245 65.496C81.5245 68.6309 83.2612 71.2353 86.2038 72.441C87.1685 72.8269 88.1816 73.068 89.1464 73.068C91.0759 73.068 92.9573 72.2963 94.4044 70.8494C96.8164 68.438 100.048 67.0875 103.473 67.0875C106.898 67.0875 110.13 68.438 112.542 70.8494L119.875 78.1804C124.892 83.1963 124.892 91.3471 119.875 96.363C117.656 98.5815 117.029 101.668 118.235 104.562C119.441 107.456 122.046 109.24 125.181 109.24C132.272 109.24 138.013 115.028 138.013 122.069V132.487C138.013 139.577 132.224 145.316 125.181 145.316C122.046 145.316 119.441 147.052 118.235 149.994C117.029 152.936 117.656 155.975 119.875 158.193C120.888 159.206 120.888 160.894 119.875 161.955C119.392 162.438 118.717 162.727 117.993 162.727C117.27 162.727 116.595 162.438 116.112 161.955C112.349 158.193 111.288 152.84 113.314 147.969C115.34 143.098 119.875 140.059 125.181 140.059C129.33 140.059 132.707 136.683 132.707 132.535V122.118C132.707 117.97 129.33 114.594 125.181 114.594C119.875 114.594 115.34 111.555 113.314 106.684C111.288 101.813 112.349 96.4112 116.112 92.6975C119.055 89.7555 119.055 84.9808 116.112 82.0387L108.78 74.7078C107.333 73.2609 105.451 72.4893 103.425 72.4893C101.399 72.4893 99.5178 73.2609 98.0706 74.7078C95.6104 77.1675 92.4266 78.518 89.0499 78.518C87.3615 78.518 85.6731 78.1804 84.033 77.5051C79.1608 75.4795 76.1217 70.9459 76.1217 65.6406C76.1217 61.4929 72.745 58.1168 68.5964 58.1168H58.1767C54.0281 58.1168 50.6514 61.4929 50.6514 65.6406C50.8926 70.8012 47.8535 75.383 42.9331 77.4087Z" fill="#292C33"/>
</svg>
