<svg width="231" height="206" viewBox="0 0 231 206" fill="none" xmlns="http://www.w3.org/2000/svg">
<path fill-rule="evenodd" clip-rule="evenodd" d="M224.099 0C227.804 0 230.792 3.00024 230.792 6.67651H230.75V163.828C230.75 167.504 227.761 170.505 224.099 170.505H137.581H135.896V172.195V199.281V200.971H137.581H145.285C146.633 200.971 147.77 202.112 147.77 203.465C147.77 204.817 146.675 205.958 145.285 205.958H137.581H93.6699H85.9648C84.6182 205.958 83.4814 204.817 83.4814 203.465C83.4814 202.112 84.5762 200.971 85.9648 200.971H93.6699H95.3535V199.281V172.195V170.505H93.6699H7.15234C3.48926 170.505 0.5 167.504 0.5 163.828V6.67651C0.5 3.00024 3.48926 0 7.15234 0H224.099ZM5.46777 6.67651V140.207V141.897H7.15234H224.099H225.782V140.207V6.67651V4.98633H224.099H7.15234H5.46777V6.67651ZM130.929 199.323V172.237V170.547H129.245H102.006H100.321V172.237V199.323V201.014H102.006H129.245H130.929V199.323ZM137.581 165.518H224.141H225.782V163.828V148.573V146.883H224.099H7.15234H5.46777V148.573V163.828V165.518H7.15234H93.6699H137.581ZM35.1064 58.9055H31.2334V63.8918H35.1064V58.9055ZM164.272 105.514H201.826V110.5H164.272V105.514ZM31.2334 114.557H35.1064V119.543H31.2334V114.557ZM31.2334 96.0066H35.1064V100.993H31.2334V96.0066ZM35.1064 77.4561H31.2334V82.4424H35.1064V77.4561ZM202.669 21.762H163.431C161.578 21.762 160.104 23.241 160.104 25.1003V57.7222C160.104 59.5815 161.578 61.0605 163.431 61.0605H202.711C204.563 61.0605 206.037 59.5815 206.037 57.7222V25.1003C205.994 23.2832 204.521 21.762 202.669 21.762ZM201.026 28.4807V54.384V56.0742H199.343H166.757H165.072V54.384V28.4807V26.7905H166.757H199.343H201.026V28.4807ZM175.472 34.4812H190.628V39.4675H175.472V34.4812ZM201.826 88.8652H164.272V93.8516H201.826V88.8652ZM164.272 72.2163H201.826V77.2026H164.272V72.2163ZM138.212 45.0029L99.5215 22.2268C99.3994 22.1553 99.2725 22.0913 99.1416 22.0354C99.0117 21.9797 98.8779 21.9319 98.7422 21.8926C98.4482 21.8074 98.1426 21.762 97.8369 21.762C97.5859 21.762 97.335 21.7927 97.0898 21.8508C96.7607 21.929 96.4434 22.0569 96.1533 22.2268L57.4619 45.0029C56.4521 45.5945 55.8203 46.6934 55.8203 47.8765V93.429C55.8203 94.6121 56.4521 95.7107 57.4619 96.3022L96.1533 119.036C96.6582 119.332 97.248 119.501 97.8789 119.501C98.4688 119.501 99.0576 119.332 99.5635 119.036L138.254 96.26C139.265 95.6685 139.896 94.5698 139.896 93.3865V47.8765C139.854 46.6934 139.223 45.5945 138.212 45.0029ZM95.3535 73.188V109.866V112.824L92.8271 111.345L61.6299 92.9641L60.7881 92.457V91.4851V54.8064V51.8486L63.3145 53.3274L94.5107 71.6667L95.3535 72.1738V73.188ZM98.7217 67.3989L97.8789 67.906L97.0371 67.3989L65.6719 48.9329L63.1875 47.4539L65.6719 45.9749L97.0371 27.5088L97.8789 27.0017L98.7217 27.5088L130.087 45.9749L132.57 47.4539L130.087 48.9329L98.7217 67.3989ZM134.886 91.5273V92.4993L134.044 93.0063L102.847 111.345L100.321 112.824V109.866V73.188V72.2161L101.163 71.709L132.36 53.3699L134.886 51.8909V54.8486V91.5273ZM18.6875 58.9055H22.5605V63.8918H18.6875V58.9055ZM35.1064 40.355H31.2334V45.3413H35.1064V40.355ZM18.6875 40.355H22.5605V45.3413H18.6875V40.355ZM35.1494 21.762H18.6875V26.7483H35.1494V21.762ZM18.6875 114.557H22.5605V119.543H18.6875V114.557ZM22.5605 77.4561H18.6875V82.4424H22.5605V77.4561ZM18.6875 96.0066H22.5605V100.993H18.6875V96.0066Z" fill="#292C33"/>
</svg>
