<svg id="e2rzio7k8Bp1" xmlns="http://www.w3.org/2000/svg" xmlns:xlink="http://www.w3.org/1999/xlink" viewBox="0 0 667 544" shape-rendering="geometricPrecision" text-rendering="geometricPrecision"><defs><filter id="e2rzio7k8Bp4-filter" x="-150%" width="400%" y="-150%" height="400%"><feComponentTransfer id="e2rzio7k8Bp4-filter-opacity-0" result="result"><feFuncA id="e2rzio7k8Bp4-filter-opacity-0-A" type="table" tableValues="0 1"/></feComponentTransfer></filter><filter id="e2rzio7k8Bp8-filter" x="-150%" width="400%" y="-150%" height="400%"><feComponentTransfer id="e2rzio7k8Bp8-filter-opacity-0" result="result"><feFuncA id="e2rzio7k8Bp8-filter-opacity-0-A" type="table" tableValues="0 1"/></feComponentTransfer></filter><filter id="e2rzio7k8Bp12-filter" x="-150%" width="400%" y="-150%" height="400%"><feComponentTransfer id="e2rzio7k8Bp12-filter-opacity-0" result="result"><feFuncA id="e2rzio7k8Bp12-filter-opacity-0-A" type="table" tableValues="0 1"/></feComponentTransfer></filter><filter id="e2rzio7k8Bp16-filter" x="-150%" width="400%" y="-150%" height="400%"><feComponentTransfer id="e2rzio7k8Bp16-filter-opacity-0" result="result"><feFuncA id="e2rzio7k8Bp16-filter-opacity-0-A" type="table" tableValues="0 1"/></feComponentTransfer></filter><filter id="e2rzio7k8Bp20-filter" x="-150%" width="400%" y="-150%" height="400%"><feComponentTransfer id="e2rzio7k8Bp20-filter-opacity-0" result="result"><feFuncA id="e2rzio7k8Bp20-filter-opacity-0-A" type="table" tableValues="0 1"/></feComponentTransfer></filter><filter id="e2rzio7k8Bp24-filter" x="-150%" width="400%" y="-150%" height="400%"><feComponentTransfer id="e2rzio7k8Bp24-filter-opacity-0" result="result"><feFuncA id="e2rzio7k8Bp24-filter-opacity-0-A" type="table" tableValues="0 1"/></feComponentTransfer></filter><filter id="e2rzio7k8Bp28-filter" x="-150%" width="400%" y="-150%" height="400%"><feComponentTransfer id="e2rzio7k8Bp28-filter-opacity-0" result="result"><feFuncA id="e2rzio7k8Bp28-filter-opacity-0-A" type="table" tableValues="0 1"/></feComponentTransfer></filter><filter id="e2rzio7k8Bp32-filter" x="-150%" width="400%" y="-150%" height="400%"><feComponentTransfer id="e2rzio7k8Bp32-filter-opacity-0" result="result"><feFuncA id="e2rzio7k8Bp32-filter-opacity-0-A" type="table" tableValues="0 1"/></feComponentTransfer></filter></defs><g transform="translate(49.996994 50.521199)"><g transform="matrix(.287266 0 0 0.287266 523.438109 225.632173)"><ellipse rx="13.290642" ry="13.290642" transform="matrix(.52 0 0 0.52 129.543864 22.167008)" filter="url(#e2rzio7k8Bp4-filter)" fill="#c3c7ca" stroke="#c3c7ca" stroke-width="3" stroke-miterlimit="1"/><line x1="39.069784" y1="0" x2="-167.369895" y2="0" transform="translate(74.170631 22.167008)" fill="none" stroke="#c3c7ca" stroke-width="2" stroke-linecap="round"/><line x1="20.773232" y1="-38.916496" x2="-89.475044" y2="19.209608" transform="translate(-114.226768 61.083504)" fill="none" stroke="#c3c7ca" stroke-width="2" stroke-linecap="round" stroke-linejoin="round"/></g><g transform="matrix(.287266 0 0 0.287266 447.438109 18.632173)"><ellipse rx="13.290642" ry="13.290642" transform="matrix(.52 0 0 0.52 129.543864 22.167008)" filter="url(#e2rzio7k8Bp8-filter)" fill="#c3c7ca" stroke="#c3c7ca" stroke-width="3" stroke-miterlimit="1"/><line x1="39.069784" y1="0" x2="-167.369895" y2="0" transform="translate(74.170631 22.167008)" fill="none" stroke="#c3c7ca" stroke-width="2" stroke-linecap="round"/><line x1="20.773232" y1="-38.916496" x2="-77.17122" y2="152.083503" transform="translate(-114.226768 61.083504)" fill="none" stroke="#c3c7ca" stroke-width="2" stroke-linecap="round" stroke-linejoin="round"/></g><g transform="matrix(-.287266 0 0 0.287266 94.561891 43.632173)"><ellipse rx="13.290642" ry="13.290642" transform="matrix(.52 0 0 0.52 129.543864 22.167008)" filter="url(#e2rzio7k8Bp12-filter)" fill="#c3c7ca" stroke="#c3c7ca" stroke-width="3" stroke-miterlimit="1"/><line x1="39.069784" y1="0" x2="-167.369895" y2="0" transform="translate(74.170631 22.167008)" fill="none" stroke="#c3c7ca" stroke-width="2" stroke-linecap="round"/><line x1="20.773232" y1="-38.916496" x2="-77.17122" y2="152.083503" transform="translate(-114.226768 61.083504)" fill="none" stroke="#c3c7ca" stroke-width="2" stroke-linecap="round" stroke-linejoin="round"/></g><g transform="matrix(.287266 0 0-.287266 430.438109 411.367827)"><ellipse rx="13.290642" ry="13.290642" transform="matrix(.52 0 0 0.52 129.543864 25.648102)" filter="url(#e2rzio7k8Bp16-filter)" fill="#c3c7ca" stroke="#c3c7ca" stroke-width="3" stroke-miterlimit="1"/><line x1="39.069784" y1="0" x2="-167.369895" y2="0" transform="translate(74.170631 22.167008)" fill="none" stroke="#c3c7ca" stroke-width="2" stroke-linecap="round"/><line x1="20.773232" y1="-38.916496" x2="-77.17122" y2="152.083503" transform="translate(-114.226768 61.083504)" fill="none" stroke="#c3c7ca" stroke-width="2" stroke-linecap="round" stroke-linejoin="round"/></g><g transform="matrix(-.287266 0 0-.287266 132.561891 390.367827)"><ellipse rx="13.290642" ry="13.290642" transform="matrix(.52 0 0 0.52 129.543864 22.167008)" filter="url(#e2rzio7k8Bp24-filter)" fill="#c3c7ca" stroke="#c3c7ca" stroke-width="3" stroke-miterlimit="1"/><line x1="39.069784" y1="0" x2="-167.369895" y2="0" transform="translate(74.170631 22.167008)" fill="none" stroke="#c3c7ca" stroke-width="2" stroke-linecap="round"/><line x1="20.773232" y1="-38.916496" x2="-83.438246" y2="89.361825" transform="translate(-114.226768 61.083504)" fill="none" stroke="#c3c7ca" stroke-width="2" stroke-linecap="round" stroke-linejoin="round"/></g><g transform="matrix(-.287266 0 0-.287266 68.561891 337.367827)"><ellipse rx="13.290642" ry="13.290642" transform="matrix(.52 0 0 0.52 129.543864 22.167008)" filter="url(#e2rzio7k8Bp28-filter)" fill="#c3c7ca" stroke="#c3c7ca" stroke-width="3" stroke-miterlimit="1"/><line x1="39.069784" y1="0" x2="-167.369895" y2="0" transform="translate(74.170631 22.167008)" fill="none" stroke="#c3c7ca" stroke-width="2" stroke-linecap="round"/><line x1="20.773232" y1="-38.916496" x2="-83.438246" y2="89.361825" transform="translate(-114.226768 61.083504)" fill="none" stroke="#c3c7ca" stroke-width="2" stroke-linecap="round" stroke-linejoin="round"/></g><g transform="matrix(-.287266 0 0-.287266 48.561891 259.367827)"><ellipse rx="13.290642" ry="13.290642" transform="matrix(.52 0 0 0.52 129.543864 22.167008)" filter="url(#e2rzio7k8Bp32-filter)" fill="#c3c7ca" stroke="#c3c7ca" stroke-width="3" stroke-miterlimit="1"/><line x1="39.069784" y1="0" x2="-167.369895" y2="0" transform="translate(74.170631 22.167008)" fill="none" stroke="#c3c7ca" stroke-width="2" stroke-linecap="round"/><line x1="20.773232" y1="-38.916496" x2="-83.438246" y2="89.361825" transform="translate(-114.226768 61.083504)" fill="none" stroke="#c3c7ca" stroke-width="2" stroke-linecap="round" stroke-linejoin="round"/></g><g><g transform="translate(89.155219-.260851)"><g><path d="M0.796769,204.802C-0.592395,154.86,16.8298,106.22,49.611,68.5175C82.3922,30.8154,128.14,6.80338,177.79,1.2395L199.981,199.261L0.796769,204.802Z" fill="#5b20a6"/><path d="M160.495,103.621v-2.275l6.885-9.2638h3.547l-6.739,9.2638-1.649-.48h11.497v2.755h-13.541Zm7.866,3.067v-3.067l.104-2.755v-2.7329h3.192v8.5549h-3.296Zm8.167,0l5.884-13.3121.876,1.4605h-7.866l1.503-1.5857v3.9643h-3.005v-5.1328h11.705v2.1908L180.2,106.688h-3.672Z" transform="translate(-92.259998 0.314899)" fill="#fff"/></g><g transform="translate(0 0.000001)"><path d="M177.712,1.24825c45.937-5.16614,92.241,5.80013,130.982,31.02055s67.507,63.1259,81.373,107.2242L199.981,199.261L177.712,1.24825Z" fill="#4f54ce"/><path d="M359.149,77.8872v-2.2743l6.885-9.2641h3.547l-6.739,9.2641-1.648-.4799h11.496v2.7542h-13.541Zm7.866,3.0671v-3.0671l.104-2.7542v-2.7333h3.193v8.5546h-3.297Zm11.3.2504c-1.015,0-2.024-.1321-3.025-.3964-1.002-.2782-1.85-.6677-2.546-1.1685l1.315-2.5872c.556.4034,1.203.7233,1.94.9598.738.2364,1.482.3547,2.233.3547.848,0,1.516-.1669,2.003-.5008.487-.3338.73-.7929.73-1.3771c0-.5564-.215-.9945-.647-1.3145-.431-.3199-1.126-.4799-2.086-.4799h-1.544v-2.2325l4.069-4.6112.375,1.2102h-7.657v-2.7125h10.224v2.1908l-4.048,4.6112-1.711-.9806h.98c1.795,0,3.151.4034,4.069,1.2101s1.377,1.8431,1.377,3.1089c0,.8207-.215,1.5927-.647,2.316-.431.7095-1.092,1.2867-1.982,1.7318s-2.031.6677-3.422.6677Z" transform="translate(-80.757492 0.003251)" fill="#fff"/></g><g><path d="M389.998,139.274c9.949,31.513,11.903,65.006,5.688,97.462-6.215,32.457-20.404,62.858-41.291,88.466L199.981,199.261l190.017-59.987Z" fill="#658cda"/><path d="M428.656,232.378c-1.015,0-2.024-.132-3.025-.397-1.002-.278-1.85-.667-2.546-1.168l1.315-2.587c.556.403,1.203.723,1.94.959.737.237,1.481.355,2.233.355.848,0,1.516-.167,2.003-.501.486-.333.73-.792.73-1.377c0-.556-.216-.994-.647-1.314s-1.127-.48-2.086-.48h-1.544v-2.233l4.068-4.611.376,1.21h-7.658v-2.712h10.224v2.191l-4.048,4.611-1.711-.981h.981c1.794,0,3.151.404,4.069,1.21.918.807,1.377,1.844,1.377,3.109c0,.821-.216,1.593-.647,2.316-.431.71-1.092,1.287-1.982,1.732s-2.031.668-3.422.668Zm9.865-.251v-13.353l1.46,1.46h-4.381v-2.712h6.301v14.605h-3.38Z" transform="translate(-81.692996 0.249995)" fill="#fff"/></g><g transform="translate(0 0.000001)"><path d="M356.479,322.603c-29.631,37.596-71.805,63.269-118.81,72.323L199.981,199.261L356.479,322.603Z" fill="#4fad5b"/><path d="M362.543,333.796v-2.191l5.633-5.32c.445-.404.772-.765.981-1.085.208-.32.348-.612.417-.877.084-.264.125-.507.125-.73c0-.584-.201-1.029-.605-1.335-.389-.32-.967-.48-1.732-.48-.612,0-1.182.118-1.711.355-.514.236-.952.605-1.314,1.105l-2.462-1.585c.556-.835,1.335-1.496,2.337-1.982c1.001-.487,2.156-.731,3.463-.731c1.085,0,2.031.181,2.838.543.821.347,1.454.841,1.899,1.481.459.64.688,1.405.688,2.295c0,.473-.062.946-.188,1.419-.111.459-.347.946-.709,1.461-.348.514-.862,1.092-1.544,1.731l-4.674,4.403-.647-1.231h8.242v2.754h-11.037Zm12.307,0v-2.191l5.633-5.32c.445-.404.772-.765.981-1.085s.348-.612.417-.877c.084-.264.125-.507.125-.73c0-.584-.201-1.029-.605-1.335-.389-.32-.966-.48-1.731-.48-.613,0-1.183.118-1.711.355-.515.236-.953.605-1.315,1.105l-2.462-1.585c.556-.835,1.335-1.496,2.337-1.982c1.001-.487,2.156-.731,3.463-.731c1.085,0,2.031.181,2.838.543.821.347,1.454.841,1.899,1.481.459.64.688,1.405.688,2.295c0,.473-.062.946-.187,1.419-.112.459-.348.946-.71,1.461-.348.514-.862,1.092-1.544,1.731l-4.674,4.403-.646-1.231h8.241v2.754h-11.037Z" transform="translate(-93.030997 0.282004)" fill="#fff"/></g><g transform="translate(-3 30)"><path d="M238.572,394.749c-36.145,7.136-73.561,4.11-108.09-8.74l69.499-186.748l38.591,195.488Z" fill="#a8e4a0"/><path d="M271.156,356.623v-13.354l1.46,1.46h-4.381v-2.712h6.301v14.606h-3.38Zm8.254,0l5.884-13.312.876,1.46h-7.866l1.503-1.586v3.965h-3.005v-5.133h11.705v2.191l-5.425,12.415h-3.672Z" transform="matrix(1.13 0 0 1.13-123.759215-53.131591)" fill="#fff"/></g><g transform="translate(0 0.000001)"><path d="M131.561,386.407c-33.3277-12.184-62.7972-33.048-85.3626-60.434L199.981,199.261l-68.42,187.146Z" fill="#f5c242"/><path d="M187.758,328.802v-13.353l1.46,1.46h-4.382v-2.712h6.302v14.605h-3.38Zm8.254,0l5.884-13.311.876,1.46h-7.866l1.502-1.586v3.965h-3.004v-5.133h11.705v2.191l-5.425,12.414h-3.672Z" transform="translate(-84.072496 0.200504)" fill="#fff"/></g><g transform="translate(0 0.000001)"><path d="M47.1973,327.176c-16.2832-19.449-28.7033-41.828-36.5931-65.935l189.3768-61.98L47.1973,327.176Z" fill="#f1a13c"/><path d="M148.626,277.273v-13.354l1.461,1.461h-4.382v-2.713h6.301v14.606h-3.38Zm5.792,0v-2.191l5.634-5.32c.445-.404.772-.766.98-1.085.209-.32.348-.612.418-.877.083-.264.125-.507.125-.73c0-.584-.202-1.029-.605-1.335-.39-.32-.967-.48-1.732-.48-.612,0-1.182.118-1.711.354-.515.237-.953.605-1.314,1.106l-2.462-1.586c.556-.834,1.335-1.495,2.336-1.982c1.002-.487,2.156-.73,3.464-.73c1.085,0,2.031.181,2.838.543.82.347,1.453.841,1.898,1.481.459.64.689,1.405.689,2.295c0,.473-.063.946-.188,1.419-.111.459-.348.946-.709,1.46-.348.515-.863,1.092-1.544,1.732l-4.674,4.403-.647-1.231h8.242v2.754h-11.038Z" transform="translate(-94.680498 0.254999)" fill="#fff"/></g><g transform="translate(0 0.000001)"><path d="M10.7059,261.551c-6.4202-19.509-9.785764-39.893-9.977491-60.43L199.981,199.261L10.7059,261.551Z" fill="#be5a27"/><path d="M138.386,215.819c1.349,0,2.511.278,3.484.834.974.557,1.725,1.37,2.254,2.441.528,1.058.793,2.379.793,3.965c0,1.683-.32,3.109-.96,4.277-.626,1.169-1.495,2.059-2.608,2.671s-2.407.918-3.881.918c-.765,0-1.502-.084-2.212-.25-.709-.167-1.321-.418-1.836-.752l1.252-2.483c.403.279.835.473,1.294.585.459.097.939.146,1.439.146c1.252,0,2.247-.383,2.984-1.148.751-.765,1.127-1.899,1.127-3.401c0-.25-.007-.528-.021-.834s-.049-.612-.104-.918l.918.876c-.237.542-.571,1.001-1.002,1.377-.431.362-.932.64-1.502.835-.571.18-1.21.271-1.92.271-.932,0-1.78-.188-2.545-.564-.751-.375-1.357-.904-1.816-1.585-.445-.682-.667-1.482-.667-2.4c0-1.001.243-1.864.73-2.587.501-.723,1.168-1.28,2.003-1.669.849-.404,1.781-.605,2.796-.605Zm.209,2.524c-.487,0-.911.091-1.273.272-.362.166-.647.417-.856.751-.208.32-.313.702-.313,1.147c0,.668.223,1.204.668,1.607.459.389,1.064.584,1.815.584.487,0,.918-.09,1.294-.271.389-.195.689-.459.897-.793.209-.334.313-.709.313-1.127c0-.417-.104-.786-.313-1.106-.195-.333-.48-.591-.855-.772-.376-.194-.835-.292-1.377-.292Z" transform="translate(-87.987001 0.227998)" fill="#fff"/></g></g></g><g transform="translate(.000001 0.000001)"><path d="M427.824,17v-12.6h2.898v10.224h5.616v-10.224h2.898v12.6h-11.412Zm10.53,2.664v-3.348l.63.684h-2.646v-2.376h4.698v5.04h-2.682Zm11.265-3.456c-1.632,0-3.018-.216-4.158-.648-1.128-.432-1.986-1.056-2.574-1.872-.588-.828-.882-1.836-.882-3.024s.294-2.19.882-3.006c.588-.828,1.446-1.458,2.574-1.89c1.14-.432,2.526-.648,4.158-.648.024,0,.09,0,.198,0c.12,0,.234,0,.342,0c.12,0,.186,0,.198,0c1.62,0,2.988.216,4.104.648c1.128.432,1.98,1.062,2.556,1.89s.864,1.83.864,3.006c0,1.164-.288,2.166-.864,3.006-.564.828-1.398,1.458-2.502,1.89-1.092.432-2.43.648-4.014.648-.036,0-.12,0-.252,0s-.264,0-.396,0c-.12,0-.198,0-.234,0Zm.738-2.25c0,0-.384,0-.324,0s.102,0,.126,0c1.104,0,2.016-.12,2.736-.36.732-.252,1.278-.618,1.638-1.098.36-.492.54-1.11.54-1.854s.301829-.81-.269495-1.836-1.566-1.152-1.566-1.152-1.962505-.27-3.042505-.27c-.024,0-.072,0-.144,0-.06,0-.114,0-.162,0-1.14,0-2.082.114-2.826.342s-1.302.588-1.674,1.08c-.372.48-.558,1.098-.558,1.854s.198,1.38.594,1.872c.396.48.966.84,1.71,1.08.756.228,2.142.342,3.222.342Zm-1.746.486q0,0,0-10.584h2.682v13.698c0,0-2.682,0-2.682,0s0-3.114,0-3.114Zm17.481,2.772c-.996,0-1.92-.162-2.772-.486-.84-.324-1.572-.78-2.196-1.368-.612-.588-1.092-1.278-1.44-2.07-.336-.792-.504-1.656-.504-2.592s.168-1.8.504-2.592c.348-.792.834-1.482,1.458-2.07s1.356-1.044,2.196-1.368s1.752-.486,2.736-.486c.996,0,1.908.162,2.736.486.84.324,1.566.78,2.178,1.368.624.588,1.11,1.278,1.458,2.07.348.78.522,1.644.522,2.592c0,.936-.174,1.806-.522,2.61-.348.792-.834,1.482-1.458,2.07-.612.576-1.338,1.026-2.178,1.35-.828.324-1.734.486-2.718.486Zm-.018-2.484c.564,0,1.08-.096,1.548-.288.48-.192.9-.468,1.26-.828s.636-.786.828-1.278c.204-.492.306-1.038.306-1.638s-.102-1.146-.306-1.638c-.192-.492-.468-.918-.828-1.278-.348-.36-.762-.636-1.242-.828s-1.002-.288-1.566-.288-1.086.096-1.566.288c-.468.192-.882.468-1.242.828s-.642.786-.846,1.278c-.192.492-.288,1.038-.288,1.638c0,.588.096,1.134.288,1.638.204.492.48.918.828,1.278.36.36.78.636,1.26.828s1.002.288,1.566.288Z" transform="translate(6.175999 0)" fill="#07074a"/><path d="M528.068,249.773999v-7.917999h-4.32l-.054,1.836c-.036.78-.09,1.518-.162,2.214-.06.696-.156,1.332-.288,1.908-.132.564-.306,1.044-.522,1.44-.204.396-.462.678-.774.846l-3.114-.396c.432.012.786-.138,1.062-.45.288-.312.516-.75.684-1.314.168-.576.288-1.248.36-2.016.084-.768.144-1.602.18-2.502l.144-3.942h9.684v11.304l-2.88-1.010001ZM518.42,254.69l.018-4.986h14.274v4.986h-2.7v-2.61h-8.892v2.61h-2.7Zm22.915-3.402c-1.632,0-3.018-.216-4.158-.648-1.128-.432-1.986-1.056-2.574-1.872-.588-.828-.882-1.836-.882-3.024s.294-2.19.882-3.006c.588-.828,1.446-1.458,2.574-1.89c1.14-.432,2.526-.648,4.158-.648.024,0,.09,0,.198,0c.12,0,.234,0,.342,0c.12,0,.186,0,.198,0c1.62,0,2.988.216,4.104.648c1.128.432,1.98,1.062,2.556,1.89s.864,1.83.864,3.006c0,1.164-.288,2.166-.864,3.006-.564.828-1.398,1.458-2.502,1.89-1.092.432-2.43.648-4.014.648-.036,0-.12,0-.252,0s-.264,0-.396,0c-.12,0-.198,0-.234,0Zm0-1.881001c0,0,.354-.368999.414-.368999s.102,0,.126,0c1.104,0,2.016-.12,2.736-.36.732-.252,1.278-.618,1.638-1.098.36-.492.54-1.11.54-1.854s-.186-1.356-.558-1.836-.918-.834-1.638-1.062c-.708-.24-1.602-.36-2.682-.36-.024,0-.072,0-.144,0-.06,0-.114,0-.162,0-1.14,0-2.082.114-2.826.342s-1.302.588-1.674,1.08c-.372.48-.558,1.098-.558,1.854s.198,1.38.594,1.872c.396.48.966.84,1.71,1.08.756.228,1.404.710999,2.484.710999ZM540.327,252.638v-13.698h2.682v13.698h-2.682Zm17.482-.342c-.996,0-1.92-.162-2.772-.486-.84-.324-1.572-.78-2.196-1.368-.612-.588-1.092-1.278-1.44-2.07-.336-.792-.504-1.656-.504-2.592s.168-1.8.504-2.592c.348-.792.834-1.482,1.458-2.07s1.356-1.044,2.196-1.368s1.752-.486,2.736-.486c.996,0,1.908.162,2.736.486.84.324,1.566.78,2.178,1.368.624.588,1.11,1.278,1.458,2.07.348.78.522,1.644.522,2.592c0,.936-.174,1.806-.522,2.61-.348.792-.834,1.482-1.458,2.07-.612.576-1.338,1.026-2.178,1.35-.828.324-1.734.486-2.718.486Zm-.018-2.484c.564,0,1.08-.096,1.548-.288.48-.192.9-.468,1.26-.828s.636-.786.828-1.278c.204-.492.306-1.038.306-1.638s-.102-1.146-.306-1.638c-.192-.492-.468-.918-.828-1.278-.348-.36-.762-.636-1.242-.828s-1.002-.288-1.566-.288-1.086.096-1.566.288c-.468.192-.882.468-1.242.828s-.642.786-.846,1.278c-.192.492-.288,1.038-.288,1.638c0,.588.096,1.134.288,1.638.204.492.48.918.828,1.278.36.36.78.636,1.26.828s1.002.288,1.566.288Z" transform="translate(-11.55249-30)" fill="#07074a"/><path d="M412.351,415.042c-.972,0-1.878-.156-2.718-.468-.828-.324-1.548-.78-2.16-1.368s-1.092-1.278-1.44-2.07c-.336-.792-.504-1.662-.504-2.61s.168-1.818.504-2.61c.348-.792.828-1.482,1.44-2.07.624-.588,1.35-1.038,2.178-1.35.828-.324,1.734-.486,2.718-.486c1.092,0,2.076.192,2.952.576.888.372,1.632.924,2.232,1.656l-1.872,1.728c-.432-.492-.912-.858-1.44-1.098-.528-.252-1.104-.378-1.728-.378-.588,0-1.128.096-1.62.288s-.918.468-1.278.828-.642.786-.846,1.278c-.192.492-.288,1.038-.288,1.638s.096,1.146.288,1.638c.204.492.486.918.846,1.278s.786.636,1.278.828s1.032.288,1.62.288c.624,0,1.2-.12,1.728-.36.528-.252,1.008-.63,1.44-1.134l1.872,1.728c-.6.732-1.344,1.29-2.232,1.674-.876.384-1.866.576-2.97.576Zm5.969-1.332l.9-2.088c.54.324,1.116.576,1.728.756.624.168,1.23.264,1.818.288.6.012,1.14-.048,1.62-.18.492-.132.882-.33,1.17-.594.3-.264.45-.6.45-1.008c0-.48-.198-.834-.594-1.062-.396-.24-.924-.36-1.584-.36h-3.078v-2.196h2.862c.588,0,1.044-.12,1.368-.36.336-.24.504-.57.504-.99c0-.36-.12-.648-.36-.864-.24-.228-.57-.396-.99-.504-.408-.108-.87-.156-1.386-.144s-1.05.096-1.602.252-1.08.372-1.584.648l-.882-2.25c.816-.42,1.674-.708,2.574-.864.912-.168,1.788-.21,2.628-.126.852.072,1.62.264,2.304.576.684.3,1.23.696,1.638,1.188s.612,1.074.612,1.746c0,.6-.156,1.134-.468,1.602s-.75.828-1.314,1.08c-.552.252-1.188.378-1.908.378l.072-.648c.84,0,1.566.144,2.178.432.624.276,1.104.666,1.44,1.17.348.492.522,1.062.522,1.71c0,.6-.162,1.14-.486,1.62-.312.468-.744.864-1.296,1.188s-1.182.564-1.89.72-1.464.222-2.268.198c-.792-.024-1.59-.138-2.394-.342-.804-.216-1.572-.54-2.304-.972Zm19.606.324c-1.632,0-3.018-.216-4.158-.648-1.128-.432-1.986-1.056-2.574-1.872-.588-.828-.882-1.836-.882-3.024s.294-2.19.882-3.006c.588-.828,1.446-1.458,2.574-1.89c1.14-.432,2.526-.648,4.158-.648.024,0,.09,0,.198,0c.12,0,.234,0,.342,0c.12,0,.186,0,.198,0c1.62,0,2.988.216,4.104.648c1.128.432,1.98,1.062,2.556,1.89s.864,1.83.864,3.006c0,1.164-.288,2.166-.864,3.006-.564.828-1.398,1.458-2.502,1.89-1.092.432-2.43.648-4.014.648-.036,0-.12,0-.252,0s-.264,0-.396,0c-.12,0-.198,0-.234,0Zm.27-2.25c.036,0,.084,0,.144,0s.102,0,.126,0c1.104,0,2.016-.12,2.736-.36.732-.252,1.278-.618,1.638-1.098.36-.492.54-1.11.54-1.854s-.186-1.356-.558-1.836-.918-.834-1.638-1.062c-.708-.24-1.602-.36-2.682-.36-.024,0-.072,0-.144,0-.06,0-.114,0-.162,0-1.14,0-2.082.114-2.826.342s-1.302.588-1.674,1.08c-.372.48-.437355,1.998-.437355,1.998s.077355,1.236.473355,1.728c.396.48.966.84,1.71,1.08.756.228,1.674.342,2.754.342Zm-1.278,3.6v-13.698h2.682v13.698h-2.682Zm17.482-.342c-.996,0-1.92-.162-2.772-.486-.84-.324-1.572-.78-2.196-1.368-.612-.588-1.092-1.278-1.44-2.07-.336-.792-.504-1.656-.504-2.592s.168-1.8.504-2.592c.348-.792.834-1.482,1.458-2.07s1.356-1.044,2.196-1.368s1.752-.486,2.736-.486c.996,0,1.908.162,2.736.486.84.324,1.566.78,2.178,1.368.624.588,1.11,1.278,1.458,2.07.348.78.522,1.644.522,2.592c0,.936-.174,1.806-.522,2.61-.348.792-.834,1.482-1.458,2.07-.612.576-1.338,1.026-2.178,1.35-.828.324-1.734.486-2.718.486Zm-.018-2.484c.564,0,1.08-.096,1.548-.288.48-.192.9-.468,1.26-.828s.636-.786.828-1.278c.204-.492.306-1.038.306-1.638s-.102-1.146-.306-1.638c-.192-.492-.468-.918-.828-1.278-.348-.36-.762-.636-1.242-.828s-1.002-.288-1.566-.288-1.086.096-1.566.288c-.468.192-.882.468-1.242.828s-.642.786-.846,1.278c-.192.492-.288,1.038-.288,1.638c0,.588.096,1.134.288,1.638.204.492.48.918.828,1.278.36.36.78.636,1.26.828s1.002.288,1.566.288Z" transform="translate(6.597504-17.535004)" fill="#07074a"/><path d="M261.465,437.994c-.972,0-1.878-.156-2.718-.468-.828-.324-1.548-.78-2.16-1.368s-1.092-1.278-1.44-2.07c-.336-.792-.504-1.662-.504-2.61s.168-1.818.504-2.61c.348-.792.828-1.482,1.44-2.07.624-.588,1.35-1.038,2.178-1.35.828-.324,1.734-.486,2.718-.486c1.092,0,2.076.192,2.952.576.888.372,1.632.924,2.232,1.656l-1.872,1.728c-.432-.492-.912-.858-1.44-1.098-.528-.252-1.104-.378-1.728-.378-.588,0-1.128.096-1.62.288s-.918.468-1.278.828-.642.786-.846,1.278c-.192.492-.288,1.038-.288,1.638s.096,1.146.288,1.638c.204.492.486.918.846,1.278s.786.636,1.278.828s1.032.288,1.62.288c.624,0,1.2-.12,1.728-.36.528-.252,1.008-.63,1.44-1.134l1.872,1.728c-.6.732-1.344,1.29-2.232,1.674-.876.384-1.866.576-2.97.576Zm13.499-1.008c-1.632,0-3.018-.216-4.158-.648-1.128-.432-1.986-1.056-2.574-1.872-.588-.828-.882-1.836-.882-3.024s.294-2.19.882-3.006c.588-.828,1.446-1.458,2.574-1.89c1.14-.432,2.526-.648,4.158-.648.024,0,.09,0,.198,0c.12,0,.234,0,.342,0c.12,0,.186,0,.198,0c1.62,0,2.988.216,4.104.648c1.128.432,1.98,1.062,2.556,1.89s.864,1.83.864,3.006c0,1.164-.288,2.166-.864,3.006-.564.828-1.398,1.458-2.502,1.89-1.092.432-2.43.648-4.014.648-.036,0-.12,0-.252,0s-.264,0-.396,0c-.12,0-.198,0-.234,0Zm.27-2.25c.036,0,.084,0,.144,0s.102,0,.126,0c1.104,0,2.016-.12,2.736-.36.732-.252,1.278-.618,1.638-1.098.36-.492.54-1.11.54-1.854s-.186-1.356-.558-1.836-.918-.834-1.638-1.062c-.708-.24-1.602-.36-2.682-.36-.024,0-.072,0-.144,0-.06,0-.114,0-.162,0-1.14,0-2.082.114-2.826.342s-1.302.588-1.674,1.08c-.372.48-.558,1.098-.558,1.854s.198,1.38.594,1.872c.396.48.966.84,1.71,1.08.756.228,1.674.342,2.754.342Zm-1.278,3.6v-13.698h2.682v13.698h-2.682Zm17.482-.342c-.996,0-1.92-.162-2.772-.486-.84-.324-1.572-.78-2.196-1.368-.612-.588-1.092-1.278-1.44-2.07-.336-.792-.504-1.656-.504-2.592s.168-1.8.504-2.592c.348-.792.834-1.482,1.458-2.07s1.356-1.044,2.196-1.368s1.752-.486,2.736-.486c.996,0,1.908.162,2.736.486.84.324,1.566.78,2.178,1.368.624.588,1.11,1.278,1.458,2.07.348.78.522,1.644.522,2.592c0,.936-.174,1.806-.522,2.61-.348.792-.834,1.482-1.458,2.07-.612.576-1.338,1.026-2.178,1.35-.828.324-1.734.486-2.718.486Zm-.018-2.484c.564,0,1.08-.096,1.548-.288.48-.192.9-.468,1.26-.828s.636-.786.828-1.278c.204-.492.306-1.038.306-1.638s-.102-1.146-.306-1.638c-.192-.492-.468-.918-.828-1.278-.348-.36-.762-.636-1.242-.828s-1.002-.288-1.566-.288-1.086.096-1.566.288c-.468.192-.882.468-1.242.828s-.642.786-.846,1.278c-.192.492-.288,1.038-.288,1.638c0,.588.096,1.134.288,1.638.204.492.48.918.828,1.278.36.36.78.636,1.26.828s1.002.288,1.566.288Z" transform="matrix(1.15 0 0 1.15-51.950275-43.21005)" fill="#07074a"/><path d="M110.168,395.063c.696.204,1.278.264,1.746.18.48-.096.906-.432,1.278-1.008l.612-.918.27-.306l4.176-8.172h2.862l-5.364,9.972c-.48.9-1.05,1.59-1.71,2.07-.648.48-1.362.75-2.142.81-.78.072-1.59-.066-2.43-.414l.702-2.214Zm3.852.378l-5.688-10.602h3.114l4.176,8.46-1.602,2.142Zm14.997,1.206c-1.632,0-3.018-.216-4.158-.648-1.128-.432-1.986-1.056-2.574-1.872-.588-.828-.882-1.836-.882-3.024s.294-2.19.882-3.006c.588-.828,1.446-1.458,2.574-1.89c1.14-.432,2.526-.648,4.158-.648.024,0,.09,0,.198,0c.12,0,.234,0,.342,0c.12,0,.186,0,.198,0c1.62,0,2.988.216,4.104.648c1.128.432,1.98,1.062,2.556,1.89s.864,1.83.864,3.006c0,1.164-.288,2.166-.864,3.006-.564.828-1.398,1.458-2.502,1.89-1.092.432-2.43.648-4.014.648-.036,0-.12,0-.252,0s-.264,0-.396,0c-.12,0-.198,0-.234,0Zm.27-2.25c.036,0,.084,0,.144,0s.102,0,.126,0c1.104,0,2.016-.12,2.736-.36.732-.252,1.278-.618,1.638-1.098.36-.492.54-1.11.54-1.854s-.186-1.356-.558-1.836-.918-.834-1.638-1.062c-.708-.24-1.602-.36-2.682-.36-.024,0-.072,0-.144,0-.06,0-.114,0-.162,0-1.14,0-2.082.114-2.826.342s-1.302.588-1.674,1.08c-.372.48-.558,1.098-.558,1.854s.198,1.38.594,1.872c.396.48.966.84,1.71,1.08.756.228,1.674.342,2.754.342Zm-1.278,3.6v-13.698h2.682v13.698h-2.682Zm17.482-.342c-.996,0-1.92-.162-2.772-.486-.84-.324-1.572-.78-2.196-1.368-.612-.588-1.092-1.278-1.44-2.07-.336-.792-.504-1.656-.504-2.592s.168-1.8.504-2.592c.348-.792.834-1.482,1.458-2.07s1.356-1.044,2.196-1.368s1.752-.486,2.736-.486c.996,0,1.908.162,2.736.486.84.324,1.566.78,2.178,1.368.624.588,1.11,1.278,1.458,2.07.348.78.522,1.644.522,2.592c0,.936-.174,1.806-.522,2.61-.348.792-.834,1.482-1.458,2.07-.612.576-1.338,1.026-2.178,1.35-.828.324-1.734.486-2.718.486Zm-.018-2.484c.564,0,1.08-.096,1.548-.288.48-.192.9-.468,1.26-.828s.636-.786.828-1.278c.204-.492.306-1.038.306-1.638s-.102-1.146-.306-1.638c-.192-.492-.468-.918-.828-1.278-.348-.36-.762-.636-1.242-.828s-1.002-.288-1.566-.288-1.086.096-1.566.288c-.468.192-.882.468-1.242.828s-.642.786-.846,1.278c-.192.492-.288,1.038-.288,1.638c0,.588.096,1.134.288,1.638.204.492.48.918.828,1.278.36.36.78.636,1.26.828s1.002.288,1.566.288Z" transform="translate(-2.349503-20)" fill="#07074a"/><path d="M33.5133,324.412v-12.6h2.898v4.95h3.258v2.52h-3.258v5.13h-2.898Zm11.124.216c-.96,0-1.848-.162-2.664-.486-.804-.324-1.506-.774-2.106-1.35-.6-.588-1.068-1.278-1.404-2.07-.324-.804-.486-1.674-.486-2.61c0-.948.162-1.818.486-2.61.336-.792.804-1.476,1.404-2.052.6-.588,1.302-1.044,2.106-1.368.816-.324,1.704-.486,2.664-.486.948,0,1.83.162,2.646.486s1.518.78,2.106,1.368c.6.576,1.068,1.266,1.404,2.07.336.792.504,1.656.504,2.592s-.168,1.806-.504,2.61c-.336.792-.804,1.482-1.404,2.07-.588.576-1.29,1.026-2.106,1.35s-1.698.486-2.646.486Zm0-2.484c.528,0,1.014-.096,1.458-.288s.834-.462,1.17-.81c.336-.36.6-.786.792-1.278s.288-1.044.288-1.656-.096-1.164-.288-1.656-.456-.912-.792-1.26c-.336-.36-.726-.636-1.17-.828s-.93-.288-1.458-.288c-.516,0-1.002.096-1.458.288-.444.192-.834.468-1.17.828-.336.348-.6.768-.792,1.26s-.288,1.044-.288,1.656.096,1.164.288,1.656.456.918.792,1.278c.336.348.726.618,1.17.81.456.192.942.288,1.458.288Zm15.5926,1.476c-1.632,0-3.018-.216-4.158-.648-1.128-.432-1.986-1.056-2.574-1.872-.588-.828-.882-1.836-.882-3.024s.294-2.19.882-3.006c.588-.828,1.446-1.458,2.574-1.89c1.14-.432,2.526-.648,4.158-.648.024,0,.09,0,.198,0c.12,0,.234,0,.342,0c.12,0,.186,0,.198,0c1.62,0,2.988.216,4.104.648c1.128.432,1.98,1.062,2.556,1.89s.864,1.83.864,3.006c0,1.164-.288,2.166-.864,3.006-.564.828-1.398,1.458-2.502,1.89-1.092.432-2.43.648-4.014.648-.036,0-.12,0-.252,0s-.264,0-.396,0c-.12,0-.198,0-.234,0Zm.27-2.25c.036,0,.084,0,.144,0s.102,0,.126,0c1.104,0,2.016-.12,2.736-.36.732-.252,1.278-.618,1.638-1.098.36-.492.54-1.11.54-1.854s-.186-1.356-.558-1.836-.918-.834-1.638-1.062c-.708-.24-1.602-.36-2.682-.36-.024,0-.072,0-.144,0-.06,0-.114,0-.162,0-1.14,0-2.082.114-2.826.342s-1.302.588-1.674,1.08c-.372.48-.558,1.098-.558,1.854s.198,1.38.594,1.872c.396.48.966.84,1.71,1.08.756.228,1.674.342,2.754.342Zm-1.278,3.6v-13.698h2.682v13.698h-2.682Zm17.4815-.342c-.996,0-1.92-.162-2.772-.486-.84-.324-1.572-.78-2.196-1.368-.612-.588-1.092-1.278-1.44-2.07-.336-.792-.504-1.656-.504-2.592s.168-1.8.504-2.592c.348-.792.834-1.482,1.458-2.07s1.356-1.044,2.196-1.368s1.752-.486,2.736-.486c.996,0,1.908.162,2.736.486.84.324,1.566.78,2.178,1.368.624.588,1.11,1.278,1.458,2.07.348.78.522,1.644.522,2.592c0,.936-.174,1.806-.522,2.61-.348.792-.834,1.482-1.458,2.07-.612.576-1.338,1.026-2.178,1.35-.828.324-1.734.486-2.718.486Zm-.018-2.484c.564,0,1.08-.096,1.548-.288.48-.192.9-.468,1.26-.828s.636-.786.828-1.278c.204-.492.306-1.038.306-1.638s-.102-1.146-.306-1.638c-.192-.492-.468-.918-.828-1.278-.348-.36-.762-.636-1.242-.828s-1.002-.288-1.566-.288-1.086.096-1.566.288c-.468.192-.882.468-1.242.828s-.642.786-.846,1.278c-.192.492-.288,1.038-.288,1.638c0,.588.096,1.134.288,1.638.204.492.48.918.828,1.278.36.36.78.636,1.26.828s1.002.288,1.566.288Z" transform="translate(6.45365 0)" fill="#07074a"/><path d="M8.97615,246.036c-.972,0-1.878-.156-2.718-.468-.828-.324-1.548-.78-2.16-1.368s-1.092-1.278-1.44-2.07c-.336-.792-.504-1.662-.504-2.61s.168-1.818.504-2.61c.348-.792.828-1.482,1.44-2.07.624-.588,1.35-1.038,2.178-1.35.828-.324,1.734-.486,2.718-.486c1.09195,0,2.07595.192,2.95195.576.888.372,1.632.924,2.232,1.656l-1.872,1.728c-.432-.492-.912-.858-1.44-1.098-.528-.252-1.10395-.378-1.72795-.378-.588,0-1.128.096-1.62.288s-.918.468-1.278.828-.642.786-.846,1.278c-.192.492-.288,1.038-.288,1.638s.096,1.146.288,1.638c.204.492.486.918.846,1.278s.786.636,1.278.828s1.032.288,1.62.288c.624,0,1.19995-.12,1.72795-.36.528-.252,1.008-.63,1.44-1.134l1.872,1.728c-.6.732-1.344,1.29-2.232,1.674-.876.384-1.866.576-2.96995.576Zm15.25655-.216l-3.924-6.066l2.358-1.422l4.878,7.488h-3.312Zm-8.19,0v-12.6h2.898v12.6h-2.898Zm2.052-5.076v-2.43h4.392v2.43h-4.392Zm4.842-.9l-2.682-.324l4.086-6.3h3.078l-4.482,6.624Zm12.5813,5.184c-1.632,0-3.018-.216-4.158-.648-1.128-.432-1.986-1.056-2.574-1.872-.588-.828-.882-1.836-.882-3.024s.294-2.19.882-3.006c.588-.828,1.446-1.458,2.574-1.89c1.14-.432,2.526-.648,4.158-.648.024,0,.09,0,.198,0c.12,0,.234,0,.342,0c.12,0,.186,0,.198,0c1.62,0,2.988.216,4.104.648c1.128.432,1.98,1.062,2.556,1.89s.864,1.83.864,3.006c0,1.164-.288,2.166-.864,3.006-.564.828-1.398,1.458-2.502,1.89-1.092.432-2.43.648-4.014.648-.036,0-.12,0-.252,0s-.264,0-.396,0c-.12,0-.198,0-.234,0Zm.27-2.25c.036,0,.084,0,.144,0s.102,0,.126,0c1.104,0,2.016-.12,2.736-.36.732-.252,1.278-.618,1.638-1.098.36-.492.54-1.11.54-1.854s-.186-1.356-.558-1.836-.918-.834-1.638-1.062c-.708-.24-1.602-.36-2.682-.36-.024,0-.072,0-.144,0-.06,0-.114,0-.162,0-1.14,0-2.082.114-2.826.342s-1.302.588-1.674,1.08c-.372.48-.558,1.098-.558,1.854s.198,1.38.594,1.872c.396.48.966.84,1.71,1.08.756.228,1.674.342,2.754.342Zm-1.278,3.6v-13.698h2.682v13.698h-2.682Zm17.4815-.342c-.996,0-1.92-.162-2.772-.486-.84-.324-1.572-.78-2.196-1.368-.612-.588-1.092-1.278-1.44-2.07-.336-.792-.504-1.656-.504-2.592s.168-1.8.504-2.592c.348-.792.834-1.482,1.458-2.07s1.356-1.044,2.196-1.368s1.752-.486,2.736-.486c.996,0,1.908.162,2.736.486.84.324,1.566.78,2.178,1.368.624.588,1.11,1.278,1.458,2.07.348.78.522,1.644.522,2.592c0,.936-.174,1.806-.522,2.61-.348.792-.834,1.482-1.458,2.07-.612.576-1.338,1.026-2.178,1.35-.828.324-1.734.486-2.718.486Zm-.018-2.484c.564,0,1.08-.096,1.548-.288.48-.192.9-.468,1.26-.828s.636-.786.828-1.278c.204-.492.306-1.038.306-1.638s-.102-1.146-.306-1.638c-.192-.492-.468-.918-.828-1.278-.348-.36-.762-.636-1.242-.828s-1.002-.288-1.566-.288-1.086.096-1.566.288c-.468.192-.882.468-1.242.828s-.642.786-.846,1.278c-.192.492-.288,1.038-.288,1.638c0,.588.096,1.134.288,1.638.204.492.48.918.828,1.278.36.36.78.636,1.26.828s1.002.288,1.566.288Z" transform="translate(13.489176 0)" fill="#07074a"/><path d="M50.6246,41.3423v-12.6h11.484v12.6h-2.898v-10.89l.666.666h-7.02l.666-.666v10.89h-2.898Zm21.2674-.792c-1.632,0-3.018-.216-4.158-.648-1.128-.432-1.986-1.056-2.574-1.872-.588-.828-.882-1.836-.882-3.024s.294-2.19.882-3.006c.588-.828,1.446-1.458,2.574-1.89c1.14-.432,2.526-.648,4.158-.648.024,0,.09,0,.198,0c.12,0,.234,0,.342,0c.12,0,.186,0,.198,0c1.62,0,2.988.216,4.104.648c1.128.432,1.98,1.062,2.556,1.89s.864,1.83.864,3.006c0,1.164-.288,2.166-.864,3.006-.564.828-1.398,1.458-2.502,1.89-1.092.432-2.43.648-4.014.648-.036,0-.12,0-.252,0s-.264,0-.396,0c-.12,0-.198,0-.234,0Zm.27-2.25c.036,0,.084,0,.144,0s.102,0,.126,0c1.104,0,2.016-.12,2.736-.36.732-.252,1.278-.618,1.638-1.098.36-.492.54-1.11.54-1.854s-.186-1.356-.558-1.836-.918-.834-1.638-1.062c-.708-.24-1.602-.36-2.682-.36-.024,0-.072,0-.144,0-.06,0-.114,0-.162,0-1.14,0-2.082.114-2.826.342s-1.302.588-1.674,1.08c-.372.48-.558,1.098-.558,1.854s.198,1.38.594,1.872c.396.48.966.84,1.71,1.08.756.228,1.674.342,2.754.342Zm-1.278,3.6v-13.698h2.682v13.698h-2.682Zm17.4815-.342c-.996,0-1.92-.162-2.772-.486-.84-.324-1.572-.78-2.196-1.368-.612-.588-1.092-1.278-1.44-2.07-.336-.792-.504-1.656-.504-2.592s.168-1.8.504-2.592c.348-.792.834-1.482,1.458-2.07s1.356-1.044,2.196-1.368s1.752-.486,2.736-.486c.996,0,1.908.162,2.736.486.84.324,1.566.78,2.178,1.368.624.588,1.11,1.278,1.458,2.07.348.78.522,1.644.522,2.592c0,.936-.174,1.806-.522,2.61-.348.792-.834,1.482-1.458,2.07-.612.576-1.338,1.026-2.178,1.35-.828.324-1.734.486-2.718.486Zm-.018-2.484c.564,0,1.08-.096,1.548-.288.48-.192.9-.468,1.26-.828s.636-.786.828-1.278c.204-.492.306-1.038.306-1.638s-.102-1.146-.306-1.638c-.192-.492-.468-.918-.828-1.278-.348-.36-.762-.636-1.242-.828s-1.002-.288-1.566-.288-1.086.096-1.566.288c-.468.192-.882.468-1.242.828s-.642.786-.846,1.278c-.192.492-.288,1.038-.288,1.638c0,.588.096,1.134.288,1.638.204.492.48.918.828,1.278.36.36.78.636,1.26.828s1.002.288,1.566.288Z" transform="translate(17.06695 0)" fill="#07074a"/></g><g transform="translate(.000001 0)"><circle r="108.498" transform="translate(287.546 197.33)" fill="#fff" fill-rule="evenodd" stroke="#000" stroke-width="0"/><path d="M9.32616,44v-39.17063L13.6104,9.11366h-12.852813v-7.95653h18.483613v42.84287h-9.91504ZM41.7399,0.422682c3.9579,0,7.3649.816058,10.2211,2.448158s5.0596,4.01907,6.6101,7.16086c1.5505,3.101,2.3257,6.9773,2.3257,11.6288c0,4.9371-.9384,9.1194-2.8154,12.5468-1.8361,3.4275-4.3863,6.0388-7.6505,7.8342-3.2642,1.7953-7.0588,2.6929-11.3839,2.6929-2.2442,0-4.4067-.2448-6.4877-.7344-2.0809-.4896-3.8762-1.2241-5.3859-2.2033l3.6722-7.2833c1.1833.816,2.4482,1.3873,3.7947,1.7137c1.3465.2856,2.7542.4284,4.2231.4284c3.6722,0,6.5896-1.1221,8.7521-3.3662c2.2034-2.2442,3.3051-5.5696,3.3051-9.9763c0-.7344-.0204-1.5505-.0612-2.4482s-.1428-1.7953-.3061-2.6929l2.693,2.5705c-.6936,1.5913-1.6729,2.9378-2.9378,4.0395-1.2649,1.0609-2.7338,1.8769-4.4067,2.4482-1.6729.5304-3.5498.7956-5.6308.7956-2.7337,0-5.2227-.5508-7.4668-1.6525-2.2034-1.1017-3.9783-2.6522-5.3248-4.6515-1.3057-1.9993-1.9585-4.3455-1.9585-7.0385c0-2.9378.714-5.46753,2.1421-7.58927c1.4689-2.12175,3.4274-3.75385,5.8756-4.89633c2.489-1.18328,5.2227-1.774918,8.2013-1.774918ZM42.352,7.82838c-1.4281,0-2.6726.26521-3.7335.79565-1.0608.48963-1.8973,1.22408-2.5093,2.20337-.6121.9384-.9181,2.0605-.9181,3.3662c0,1.9585.6529,3.5294,1.9585,4.7127c1.3465,1.1425,3.1215,1.7137,5.3248,1.7137c1.4281,0,2.693-.2652,3.7947-.7956c1.1424-.5713,2.0197-1.3465,2.6317-2.3258.6121-.9792.9181-2.0809.9181-3.305s-.306-2.3054-.9181-3.2438c-.5712-.97928-1.4077-1.73413-2.5093-2.26457-1.1017-.57123-2.4482-.85685-4.0395-.85685ZM83.4027,44.7344c-3.5906,0-6.7324-.5304-9.4254-1.5913-2.693-1.1016-4.7943-2.6317-6.304-4.5903-1.5097-1.9993-2.2646-4.3251-2.2646-6.9772c0-2.6522.7345-4.8964,2.2034-6.7325c1.5097-1.8769,3.611-3.2846,6.304-4.2231c2.693-.9792,5.8552-1.4689,9.4866-1.4689c3.6723,0,6.8549.4897,9.5479,1.4689c2.7337.9385,4.8351,2.3462,6.304,4.2231c1.5094,1.8361,2.2644,4.0803,2.2644,6.7325c0,2.6521-.755,4.9779-2.2644,6.9772-1.5097,1.9586-3.6315,3.4887-6.3652,4.5903-2.693,1.0609-5.8552,1.5913-9.4867,1.5913Zm0-7.2832c2.489,0,4.4475-.5509,5.8756-1.6525c1.4689-1.1017,2.2034-2.6114,2.2034-4.5292s-.7345-3.407-2.2034-4.4679c-1.4281-1.1016-3.3866-1.6525-5.8756-1.6525-2.4481,0-4.3863.5509-5.8144,1.6525-1.4281,1.0609-2.1421,2.5502-2.1421,4.4679s.714,3.4275,2.1421,4.5292s3.3663,1.6525,5.8144,1.6525Zm0-13.2813c-3.305,0-6.202-.4489-8.691-1.3465-2.4481-.8977-4.3659-2.2034-5.7531-3.9171-1.3465-1.7545-2.0198-3.8354-2.0198-6.2428c0-2.5298.6937-4.69231,2.081-6.48763c1.3873-1.83613,3.3254-3.24382,5.8143-4.22309c2.489-1.020065,5.3452-1.530098,8.5686-1.530098c3.305,0,6.1816.510033,8.6298,1.530098c2.489.97927,4.4271,2.38696,5.8144,4.22309C99.275,7.97119,99.989,10.1337,99.989,12.6635c0,2.4074-.6936,4.4883-2.0809,6.2428-1.3465,1.7137-3.2642,3.0194-5.7532,3.9171s-5.4064,1.3465-8.7522,1.3465Zm0-5.8144c2.081,0,3.7131-.4693,4.8964-1.4077c1.224-.9385,1.8361-2.2238,1.8361-3.8559c0-1.7137-.6325-3.0398-1.8974-3.97824-1.224-.93846-2.8357-1.40769-4.8351-1.40769-1.9585,0-3.5498.46923-4.7739,1.40769s-1.8361,2.26454-1.8361,3.97824c0,1.6321.5916,2.9174,1.7749,3.8559c1.1833.9384,2.795,1.4077,4.8351,1.4077Z" transform="matrix(1.3 0 0 1.3 221.362516 143.961602)" fill="#34299a"/><path d="M14.0582,11.7957v-11.225435h3.2341v8.554665h4.5277v-8.554665h3.255v11.225435h-11.0168ZM23.677,14.216v-2.4621l.7512.0418h-2.6082v-2.67077h4.8824v5.09107h-3.0254Zm10.5598-2.2534c-1.2797,0-2.4064-.2504-3.3801-.7512-.9598-.5007-1.704-1.1823-2.2326-2.04474-.5285-.87633-.7928-1.8709-.7928-2.9837c0-1.12671.2573-2.12128.772-2.9837.5286-.87633,1.2449-1.55792,2.1491-2.04477.9041-.500764,1.9265-.751144,3.0671-.751144c1.0989,0,2.0865.23647,2.9629.709414.8902.45903,1.5927,1.12671,2.1073,2.00304.5147.86242.7721,1.89872.7721,3.10889c0,.12519-.007.27125-.0209.43817-.0139.15301-.0278.29906-.0417.43816h-9.1181v-1.89872h7.4071l-1.2519.56336c0-.58422-.1182-1.09194-.3547-1.52315s-.5633-.76505-.9806-1.00152c-.4173-.25038-.9042-.37557-1.4606-.37557s-1.0502.12519-1.4814.37557c-.4173.23647-.7442.57727-.9807,1.02239-.2364.43121-.3547.94588-.3547,1.54401v.50076c0,.61204.1322,1.15453.3965,1.62747.2782.45903.6607.81374,1.1475,1.06412.5008.23647,1.085.35471,1.7527.35471.5981,0,1.1198-.09042,1.5649-.27125.459-.18083.8763-.45208,1.2519-.81374l1.7318,1.87784c-.5147.5842-1.1615,1.0363-1.9405,1.3562-.7789.3061-1.6761.4591-2.6916.4591Zm7.92-.1669v-11.225435h3.234v4.381655h4.8825v-4.381655h3.2549v11.225435h-3.2549v-4.19392h-4.8825v4.19392h-3.234Zm16.8868,0v-9.30585l.7303.75114h-4.5278v-2.670725h10.829v2.670725h-4.5277l.7303-.75114v9.30585h-3.2341Zm15.3808.1669c-.9459,0-1.7736-.2087-2.483-.626s-1.2658-1.0502-1.6692-1.89869c-.3895-.86243-.5842-1.94741-.5842-3.25495c0-1.32145.1878-2.40643.5634-3.25495.3755-.84851.918-1.48141,1.6274-1.89871s1.558-.625954,2.5456-.625954c1.0571,0,2.003.243425,2.8376.730274.8485.47294,1.5162,1.14062,2.0031,2.00304.5007.86243.7511,1.87786.7511,3.0463c0,1.18235-.2504,2.20474-.7511,3.06716-.4869.86238-1.1546,1.53008-2.0031,2.00308-.8346.4729-1.7805.7094-2.8376.7094Zm-6.6351,3.8809v-15.273235h3.1089v2.295155l-.0626,3.33841.2086,3.31754v6.32213h-3.2549ZM73.861,9.29185c.5425,0,1.0224-.12519,1.4397-.37557.4312-.25038.772-.60509,1.0224-1.06412.2643-.47294.3964-1.02934.3964-1.6692c0-.65377-.1321-1.21017-.3964-1.6692-.2504-.45903-.5912-.81374-1.0224-1.06412-.4173-.25038-.8972-.37557-1.4397-.37557s-1.0293.12519-1.4605.37557-.7721.60509-1.0224,1.06412c-.2504.45903-.3756,1.01543-.3756,1.6692c0,.63986.1252,1.19626.3756,1.6692.2503.45903.5911.81374,1.0224,1.06412s.918.37557,1.4605.37557ZM87.5555,11.9626c-1.1963,0-2.2604-.2504-3.1924-.7512-.918-.5007-1.6483-1.1823-2.1908-2.04474-.5286-.87633-.7929-1.8709-.7929-2.9837c0-1.12671.2643-2.12128.7929-2.9837.5425-.87633,1.2728-1.55792,2.1908-2.04477.932-.500764,1.9961-.751144,3.1924-.751144c1.1823,0,2.2395.25038,3.1715.751144.9319.48685,1.6622,1.16148,2.1908,2.0239s.7929,1.86395.7929,3.00457c0,1.1128-.2643,2.10737-.7929,2.9837-.5286.86244-1.2589,1.54404-2.1908,2.04474-.932.5008-1.9892.7512-3.1715.7512Zm0-2.67075c.5425,0,1.0293-.12519,1.4605-.37557s.772-.60509,1.0224-1.06412c.2504-.47294.3756-1.02934.3756-1.6692c0-.65377-.1252-1.21017-.3756-1.6692s-.5911-.81374-1.0224-1.06412-.918-.37557-1.4605-.37557-1.0294.12519-1.4606.37557-.7789.60509-1.0432,1.06412c-.2504.45903-.3756,1.01543-.3756,1.6692c0,.63986.1252,1.19626.3756,1.6692.2643.45903.612.81374,1.0432,1.06412s.9181.37557,1.4606.37557Zm8.3939,2.50385v-11.225435h5.7376c1.405,0,2.504.257335,3.297.772005.793.50076,1.189,1.21017,1.189,2.12824s-.375,1.64138-1.126,2.16996c-.738.51467-1.718.77201-2.942.77201l.333-.75115c1.364,0,2.379.25038,3.047.75115.681.50076,1.022,1.23103,1.022,2.19082c0,.98762-.375,1.7666-1.127,2.3369-.751.5703-1.898.8555-3.442.8555h-5.9886Zm2.9837-2.21174h2.7329c.599,0,1.044-.09737,1.336-.29211.306-.20865.459-.52163.459-.93893c0-.43121-.139-.74418-.417-.93892-.279-.20865-.717-.31298-1.315-.31298h-2.7959v2.48294Zm0-4.40252h2.4619c.57,0,.995-.10433,1.273-.31298.292-.20865.438-.50771.438-.89719c0-.40339-.146-.70246-.438-.8972-.278-.19474-.703-.29211-1.273-.29211h-2.4619v2.39948ZM0.385934,36.7957v-11.2254h5.737886c1.40491,0,2.5038.2573,3.29667.772.79291.5007,1.18931,1.2101,1.18931,2.1282s-.3756,1.6414-1.12671,2.17c-.73723.5146-1.71789.772-2.94197.772l.33384-.7512c1.36318,0,2.37861.2504,3.04629.7512.68155.5007,1.02235,1.231,1.02235,2.1908c0,.9876-.3755,1.7666-1.12667,2.3369s-1.89872.8555-3.44273.8555h-5.988266ZM3.36963,34.584h2.73332c.59813,0,1.04326-.0974,1.33537-.2921.30602-.2087.45903-.5217.45903-.939c0-.4312-.1391-.7442-.4173-.9389-.2782-.2087-.71637-.313-1.3145-.313h-2.79592v2.483Zm0-4.4026h2.46208c.57031,0,.99456-.1043,1.27277-.3129.29211-.2087.43816-.5078.43816-.8972c0-.4034-.14605-.7025-.43816-.8972-.27821-.1948-.70246-.2921-1.27277-.2921h-2.46208v2.3994ZM18.7069,36.9626c-1.2102,0-2.2882-.2435-3.2341-.7303-.9459-.5008-1.69-1.1893-2.2325-2.0656-.5286-.8764-.7929-1.8709-.7929-2.9837c0-1.1268.2643-2.1213.7929-2.9837.5425-.8764,1.2866-1.558,2.2325-2.0448.9459-.5008,2.0239-.7512,3.2341-.7512c1.1824,0,2.2117.2504,3.088.7512.8764.4868,1.5232,1.1893,1.9405,2.1074l-2.5247,1.3562c-.2921-.5286-.6607-.9181-1.1058-1.1685-.4313-.2503-.9042-.3755-1.4189-.3755-.5564,0-1.0571.1252-1.5022.3755s-.7999.6051-1.0642,1.0642c-.2503.459-.3755,1.0154-.3755,1.6692s.1252,1.2101.3755,1.6692c.2643.459.619.8137,1.0642,1.0641s.9458.3756,1.5022.3756c.5147,0,.9876-.1183,1.4189-.3548.4451-.2503.8137-.6468,1.1058-1.1893l2.5247,1.3771c-.4173.9042-1.0641,1.6066-1.9405,2.1074-.8763.4868-1.9056.7303-3.088.7303Zm12.3513,0c-1.2797,0-2.4064-.2504-3.3801-.7512-.9598-.5007-1.704-1.1823-2.2326-2.0447-.5286-.8764-.7929-1.8709-.7929-2.9837c0-1.1268.2574-2.1213.772-2.9837.5286-.8764,1.245-1.558,2.1491-2.0448.9042-.5008,1.9266-.7512,3.0672-.7512c1.0989,0,2.0865.2365,2.9628.7095.8903.459,1.5927,1.1267,2.1074,2.003.5147.8624.772,1.8987.772,3.1089c0,.1252-.007.2712-.0209.4382-.0139.153-.0278.299-.0417.4381h-9.118v-1.8987h7.4071l-1.2519.5634c0-.5843-.1183-1.092-.3547-1.5232-.2365-.4312-.5634-.765-.9807-1.0015-.4173-.2504-.9041-.3756-1.4605-.3756s-1.0503.1252-1.4815.3756c-.4173.2365-.7442.5773-.9806,1.0224-.2365.4312-.3547.9459-.3547,1.544v.5008c0,.612.1321,1.1545.3964,1.6274.2782.4591.6607.8138,1.1476,1.0641.5007.2365,1.085.3547,1.7526.3547.5982,0,1.1198-.0904,1.5649-.2712.4591-.1808.8764-.4521,1.2519-.8137l1.7318,1.8778c-.5146.5842-1.1615,1.0363-1.9404,1.3562-.779.3061-1.6762.4591-2.6916.4591Zm7.9199-.1669v-11.2254h8.9928v2.6707h-6.489l.7303-.7094v9.2641h-3.2341Zm15.5071.1669c-1.1962,0-2.2604-.2504-3.1923-.7512-.9181-.5007-1.6484-1.1823-2.1909-2.0447-.5285-.8764-.7928-1.8709-.7928-2.9837c0-1.1268.2643-2.1213.7928-2.9837.5425-.8764,1.2728-1.558,2.1909-2.0448.9319-.5008,1.9961-.7512,3.1923-.7512c1.1824,0,2.2395.2504,3.1715.7512.932.4868,1.6622,1.1615,2.1908,2.0239s.7929,1.8639.7929,3.0046c0,1.1128-.2643,2.1073-.7929,2.9837-.5286.8624-1.2588,1.544-2.1908,2.0447-.932.5008-1.9891.7512-3.1715.7512Zm0-2.6707c.5425,0,1.0294-.1252,1.4606-.3756s.772-.6051,1.0224-1.0641c.2503-.473.3755-1.0294.3755-1.6692c0-.6538-.1252-1.2102-.3755-1.6692-.2504-.4591-.5912-.8138-1.0224-1.0642s-.9181-.3755-1.4606-.3755-1.0293.1252-1.4605.3755-.779.6051-1.0433,1.0642c-.2504.459-.3756,1.0154-.3756,1.6692c0,.6398.1252,1.1962.3756,1.6692.2643.459.6121.8137,1.0433,1.0641s.918.3756,1.4605.3756Zm14.303,2.5038v-11.2254h5.7379c1.4049,0,2.5038.2573,3.2967.772.7928.5007,1.1893,1.2101,1.1893,2.1282s-.3756,1.6414-1.1267,2.17c-.7373.5146-1.7179.772-2.942.772l.3338-.7512c1.3632,0,2.3786.2504,3.0463.7512.6816.5007,1.0224,1.231,1.0224,2.1908c0,.9876-.3756,1.7666-1.1267,2.3369s-1.8987.8555-3.4427.8555h-5.9883Zm2.9837-2.2117h2.7333c.5982,0,1.0433-.0974,1.3354-.2921.306-.2087.459-.5217.459-.939c0-.4312-.1391-.7442-.4173-.9389-.2782-.2087-.7163-.313-1.3145-.313h-2.7959v2.483Zm0-4.4026h2.4621c.5703,0,.9945-.1043,1.2727-.3129.2922-.2087.4382-.5078.4382-.8972c0-.4034-.146-.7025-.4382-.8972-.2782-.1948-.7024-.2921-1.2727-.2921h-2.4621v2.3994Zm16.1552,6.6143v-14.6056h6.3221c1.3076,0,2.4343.2156,3.3802.6468.9459.4173,1.6761,1.0224,2.1908,1.8153s.7718,1.7388.7718,2.8376c0,1.085-.257,2.024-.7718,2.8168s-1.2449,1.4049-2.1908,1.8362c-.9459.4173-2.0726.6259-3.3802.6259h-4.4442l1.5023-1.5231v5.5501h-3.3802Zm3.3802-5.1746L89.805,30.0145h4.2565c1.0432,0,1.8222-.2225,2.3368-.6677s.772-1.0641.772-1.857c0-.8067-.2573-1.4327-.772-1.8778s-1.2936-.6677-2.3368-.6677h-4.2565l1.5023-1.6066v8.2834Zm19.4387,4.2565c-1.892,0-3.499-.2504-4.82-.7511-1.308-.5008-2.302-1.2241-2.984-2.17-.681-.9598-1.022-2.1282-1.022-3.5053s.341-2.5386,1.022-3.4845c.682-.9598,1.676-1.6901,2.984-2.1908c1.321-.5008,2.928-.7512,4.82-.7512.028,0,.104,0,.229,0c.139,0,.272,0,.397,0c.139,0,.215,0,.229,0c1.878,0,3.464.2504,4.758.7512c1.307.5007,2.295,1.231,2.962,2.1908.668.9598,1.002,2.1213,1.002,3.4845c0,1.3492-.334,2.5107-1.002,3.4844-.653.9598-1.62,1.6901-2.9,2.1909-1.266.5007-2.817.7511-4.653.7511-.042,0-.139,0-.292,0s-.306,0-.459,0c-.139,0-.229,0-.271,0Zm.313-2.6081c.042,0,.097,0,.167,0c.069,0,.118,0,.146,0c1.28,0,2.337-.1391,3.171-.4173.849-.2921,1.482-.7164,1.899-1.2728.417-.5703.626-1.2867.626-2.1491s-.216-1.5718-.647-2.1282-1.064-.9668-1.899-1.2311c-.82-.2782-1.857-.4173-3.108-.4173-.028,0-.084,0-.167,0-.07,0-.133,0-.188,0-1.322,0-2.414.1322-3.276.3965s-1.509.6816-1.94,1.2519c-.432.5564-.647,1.2727-.647,2.1491s.229,1.5996.688,2.1699c.459.5564,1.12.9737,1.982,1.2519.877.2643,1.941.3965,3.193.3965Zm-1.482,4.173v-15.8783h3.109v15.8783h-3.109Z" transform="translate(226.645533 219.596654)" fill="#34299a"/></g></g></svg>
