<svg width="126" height="139" viewBox="0 0 126 139" fill="none" xmlns="http://www.w3.org/2000/svg">
<path d="M64.088 12.1226H61.7367C61.5359 12.1226 61.3926 12.1226 61.3926 11.9481C61.4499 11.7737 61.5359 11.5993 61.622 11.4539C61.622 11.3377 61.7653 11.3086 61.966 11.3086H63.8586C63.9159 11.3086 63.9733 11.3086 64.0306 11.3377C64.088 11.3667 64.1453 11.3958 64.174 11.4539C64.26 11.6284 64.346 11.7737 64.4034 11.9481C64.4321 12.0353 64.26 12.1226 64.088 12.1226ZM68.9914 9.53527C68.8193 9.27363 68.5899 9.09921 68.3032 8.95386C68.0164 8.83758 67.7297 8.77943 67.4142 8.80851H58.6111C57.7509 8.80851 57.2921 9.07014 57.0627 9.53527C56.6326 10.2911 56.2885 11.076 56.0304 11.89C56.0304 12.3842 56.7186 12.6458 57.5788 12.6458H68.4179C69.2781 12.6458 69.9376 12.297 69.995 11.89C69.7369 11.076 69.3928 10.2911 68.9914 9.53527Z" fill="#292C33"/>
<path d="M67.1849 2.50008H62.2241V1.91866H67.1849V2.50008ZM67.1849 3.69197H62.2241V3.13963H67.1849V3.69197ZM67.1849 4.88387H62.2241V4.33153H67.1849V4.88387ZM67.1849 6.07577H58.8692V5.52342H67.1849V6.07577ZM58.8405 1.91866H61.4786V4.8548H58.8405V1.91866ZM67.4143 0H58.6111C58.4104 0 58.2097 0.0290706 58.0089 0.116283C57.8082 0.203495 57.6362 0.319777 57.4928 0.46513C57.3494 0.610484 57.2347 0.784908 57.1487 0.988402C57.12 1.16283 57.0627 1.36632 57.0627 1.59889V6.56997C57.0627 6.97696 57.2347 7.38394 57.5215 7.67465C57.8082 7.96536 58.2097 8.13978 58.6111 8.13978H67.4143C67.615 8.13978 67.8157 8.11071 68.0164 8.0235C68.2171 7.93629 68.3892 7.82 68.5326 7.67465C68.6759 7.5293 68.7906 7.35487 68.8767 7.15138C68.9627 6.94788 68.9914 6.74439 68.9914 6.5409V1.59889C68.9914 1.39539 68.9627 1.1919 68.8767 0.988402C68.7906 0.784908 68.6759 0.610484 68.5326 0.46513C68.3892 0.319777 68.2171 0.203495 68.0164 0.116283C67.8157 0.0290706 67.615 0 67.4143 0Z" fill="#292C33"/>
<path d="M64.088 78.1709H61.7367C61.5359 78.1709 61.3926 78.1709 61.3926 78.0256C61.4499 77.8512 61.5359 77.6768 61.622 77.5314C61.622 77.4151 61.7653 77.386 61.966 77.386H63.8586C63.9159 77.386 63.9733 77.386 64.0306 77.4151C64.088 77.4442 64.1453 77.4733 64.174 77.5314C64.26 77.7058 64.346 77.8512 64.4034 78.0256C64.4321 78.0837 64.26 78.1709 64.088 78.1709ZM68.9914 75.5837C68.8193 75.322 68.5899 75.1185 68.3032 75.0022C68.0164 74.8569 67.7297 74.8278 67.4142 74.8569H58.6111C57.7509 74.8569 57.2921 75.1185 57.0627 75.6127C56.6326 76.3686 56.2885 77.1535 56.0304 77.9675C56.0304 78.4326 56.7186 78.6942 57.5788 78.6942H68.4179C69.2781 78.6942 69.9376 78.3454 69.995 77.9675C69.7369 77.1244 69.3928 76.3395 68.9914 75.5837Z" fill="#292C33"/>
<path d="M67.1849 68.5195H62.2241V67.9671H67.1849V68.5195ZM67.1849 69.7114H62.2241V69.159H67.1849V69.7114ZM67.1849 70.9324H62.2241V70.3509H67.1849V70.9324ZM67.1849 72.1243H58.8692V71.5719H67.1849V72.1243ZM58.8405 67.9671H61.4786V70.9033H58.8405V67.9671ZM67.4143 66.0485H58.6111C58.2097 66.0485 57.8082 66.2229 57.5215 66.5136C57.2347 66.8043 57.0627 67.2113 57.0627 67.6183V72.5894C57.0627 72.7929 57.0914 72.9964 57.1774 73.1999C57.2634 73.4034 57.3781 73.5778 57.5215 73.7231C57.6649 73.8685 57.8369 73.9848 58.0376 74.072C58.2383 74.1592 58.4391 74.1883 58.6398 74.1883H67.4429C67.6437 74.1883 67.8444 74.1592 68.0451 74.072C68.2458 73.9848 68.4179 73.8685 68.5612 73.7231C68.7046 73.5778 68.8193 73.4034 68.9053 73.1999C68.9914 72.9964 69.02 72.7929 69.02 72.5894V67.6183C69.02 67.4148 68.9914 67.2113 68.9053 67.0078C68.8193 66.8043 68.7046 66.6299 68.5612 66.4845C68.4179 66.3392 68.2458 66.2229 68.0451 66.1357C67.8157 66.0776 67.615 66.0485 67.4143 66.0485Z" fill="#292C33"/>
<path d="M64.088 138.347H61.7367C61.5359 138.347 61.3926 138.347 61.3926 138.202C61.4499 138.027 61.5359 137.853 61.622 137.708C61.622 137.591 61.7653 137.533 61.966 137.533H63.8586C63.9159 137.533 63.9733 137.533 64.0306 137.562C64.088 137.591 64.1453 137.62 64.174 137.679C64.26 137.853 64.346 137.998 64.4034 138.173C64.4321 138.26 64.26 138.347 64.088 138.347ZM68.9914 135.76C68.8193 135.498 68.5899 135.295 68.3032 135.178C68.0164 135.062 67.7297 135.004 67.4142 135.004H58.6111C57.7509 135.004 57.2921 135.266 57.0627 135.76C56.6326 136.516 56.2885 137.301 56.0304 138.115C56.0304 138.609 56.7186 138.87 57.5788 138.87H68.4179C69.2781 138.87 69.9376 138.522 69.995 138.115C69.7369 137.301 69.3928 136.516 68.9914 135.76Z" fill="#292C33"/>
<path d="M67.1849 128.725H62.2241V128.172H67.1849V128.725ZM67.1849 129.917H62.2241V129.393H67.1849V129.917ZM67.1849 131.109H62.2241V130.556H67.1849V131.109ZM67.1849 132.3H58.8692V131.748H67.1849V132.3ZM58.8405 128.143H61.4786V131.08H58.8405V128.143ZM67.4143 126.225H58.6111C58.4104 126.225 58.2097 126.254 58.0089 126.341C57.8082 126.428 57.6362 126.544 57.4928 126.69C57.3494 126.835 57.2347 127.01 57.1487 127.213C57.0627 127.417 57.034 127.62 57.034 127.824V132.795C57.034 133.202 57.2061 133.609 57.4928 133.899C57.7795 134.19 58.181 134.365 58.5824 134.365H67.3856C67.5863 134.365 67.787 134.335 67.9877 134.248C68.1885 134.161 68.3605 134.045 68.5039 133.899C68.6473 133.754 68.762 133.58 68.848 133.376C68.934 133.173 68.9627 132.969 68.9627 132.766V127.795C68.9627 127.591 68.934 127.388 68.848 127.184C68.762 126.981 68.6473 126.806 68.5039 126.661C68.3605 126.515 68.1885 126.399 67.9877 126.312C67.8157 126.254 67.615 126.225 67.4143 126.225Z" fill="#292C33"/>
<path d="M8.08627 44.5653H5.73494C5.5629 44.5653 5.39085 44.5653 5.41952 44.3908C5.47687 44.2164 5.56289 44.042 5.64892 43.8966C5.64892 43.7804 5.79229 43.7222 5.96434 43.7222H7.85687C7.91422 43.7222 7.97157 43.7222 8.02892 43.7513C8.08627 43.7804 8.14362 43.8094 8.17229 43.8676C8.25832 44.0129 8.34434 44.1873 8.40169 44.3618C8.40169 44.5071 8.25832 44.5653 8.08627 44.5653ZM12.961 41.978C12.7889 41.7163 12.5595 41.5419 12.2728 41.3966C12.0147 41.2803 11.6993 41.2221 11.4125 41.2221H2.6094C1.74916 41.2221 1.29036 41.4838 1.06096 41.978C0.630844 42.7338 0.286747 43.5187 0 44.3327C0 44.7978 0.688193 45.0595 1.57711 45.0595H12.4448C13.3051 45.0595 13.9646 44.7106 13.9933 44.3327C13.7352 43.5187 13.3911 42.7338 12.961 41.978Z" fill="#292C33"/>
<path d="M11.1831 34.9429H6.19374V34.3906H11.1831V34.9429ZM11.1831 36.1348H6.19374V35.5825H11.1831V36.1348ZM11.1831 37.3267H6.19374V36.7744H11.1831V37.3267ZM11.1831 38.5186H2.86747V37.9663H11.1831V38.5186ZM2.81012 34.3906H5.4482V37.3267H2.81012V34.3906ZM11.4125 32.4428H2.6094C2.40868 32.4428 2.20795 32.4719 2.00723 32.5591C1.80651 32.6463 1.63446 32.7626 1.49108 32.908C1.34771 33.0533 1.23301 33.2277 1.14699 33.4312C1.06096 33.6347 1.03229 33.8382 1.03229 34.0417V39.0128C1.03229 39.2163 1.06096 39.4198 1.14699 39.6233C1.23301 39.8268 1.34771 40.0012 1.49108 40.1466C1.63446 40.2919 1.80651 40.4082 2.00723 40.4954C2.20795 40.5826 2.40868 40.6117 2.6094 40.6117H11.4125C11.814 40.6117 12.2154 40.4373 12.5022 40.1466C12.7889 39.8559 12.961 39.4489 12.961 39.0419V34.0708C12.961 33.8673 12.9323 33.6638 12.8463 33.4603C12.7602 33.2568 12.6455 33.0824 12.5022 32.937C12.3588 32.7917 12.1868 32.6754 11.986 32.5882C11.814 32.501 11.6133 32.4428 11.4125 32.4428Z" fill="#292C33"/>
<path d="M119.172 44.5653H116.821C116.649 44.5653 116.477 44.5653 116.505 44.3908C116.563 44.2164 116.649 44.042 116.735 43.8966C116.735 43.7804 116.878 43.7222 117.05 43.7222H118.943C119 43.7222 119.086 43.7222 119.143 43.7513C119.201 43.7804 119.258 43.8094 119.287 43.8676C119.373 44.0129 119.459 44.1873 119.516 44.3618C119.516 44.5071 119.373 44.5653 119.172 44.5653ZM124.075 41.978C123.903 41.7163 123.674 41.5419 123.387 41.3966C123.129 41.2803 122.814 41.2221 122.527 41.2221H113.724C112.864 41.2221 112.405 41.4838 112.147 41.978C111.717 42.7338 111.373 43.5187 111.115 44.3327C111.115 44.7978 111.803 45.0595 112.692 45.0595H123.559C124.42 45.0595 125.079 44.7106 125.108 44.3327C124.85 43.5187 124.506 42.7338 124.075 41.978Z" fill="#292C33"/>
<path d="M122.326 34.9429H117.366V34.3906H122.326V34.9429ZM122.326 36.1348H117.366V35.5825H122.326V36.1348ZM122.326 37.3267H117.366V36.7744H122.326V37.3267ZM122.326 38.5186H114.011V37.9663H122.326V38.5186ZM113.982 34.3906H116.62V37.3267H113.982V34.3906ZM122.556 32.4428H113.753C113.351 32.4428 112.95 32.6173 112.634 32.908C112.348 33.1987 112.175 33.6057 112.175 34.0417V39.0128C112.175 39.2163 112.204 39.4198 112.29 39.6233C112.376 39.8268 112.491 40.0012 112.634 40.1466C112.778 40.2919 112.95 40.4082 113.15 40.4954C113.351 40.5826 113.552 40.6117 113.753 40.6117H122.556C122.957 40.6117 123.359 40.4373 123.645 40.1466C123.932 39.8559 124.104 39.4489 124.104 39.0419V34.0708C124.104 33.8673 124.075 33.6638 123.989 33.4603C123.903 33.2568 123.789 33.0824 123.645 32.937C123.502 32.7917 123.33 32.6754 123.129 32.5882C122.986 32.501 122.756 32.4428 122.556 32.4428Z" fill="#292C33"/>
<path d="M8.08627 104.073H5.73494C5.5629 104.073 5.39085 104.015 5.41952 103.899C5.47687 103.724 5.56289 103.55 5.64892 103.404C5.64892 103.288 5.79229 103.23 5.96434 103.23H7.85687C7.91422 103.23 7.97157 103.23 8.02892 103.259C8.08627 103.288 8.14362 103.317 8.17229 103.375C8.25832 103.521 8.34434 103.695 8.40169 103.869C8.40169 103.986 8.25832 104.073 8.08627 104.073ZM12.961 101.486C12.7889 101.224 12.5595 101.021 12.2728 100.904C11.986 100.759 11.6993 100.73 11.3839 100.759H2.6094C1.74916 100.759 1.29036 101.021 1.06096 101.515C0.630844 102.241 0.286747 103.026 0 103.84C0 104.335 0.688193 104.596 1.57711 104.596H12.4448C13.3051 104.596 13.9646 104.247 13.9933 103.84C13.7352 102.997 13.3911 102.212 12.961 101.486Z" fill="#292C33"/>
<path d="M11.1831 94.4796H6.19374V93.9273H11.1831V94.4796ZM11.1831 95.6715H6.19374V95.1192H11.1831V95.6715ZM11.1831 96.8925H6.19374V96.3401H11.1831V96.8925ZM11.1831 98.0844H2.86747V97.532H11.1831V98.0844ZM2.81012 93.9273H5.4482V96.8634H2.81012V93.9273ZM11.4125 92.0086H2.6094C2.40868 92.0086 2.20795 92.0377 2.00723 92.1249C1.80651 92.2121 1.63446 92.3284 1.49108 92.4737C1.34771 92.6191 1.23301 92.7935 1.14699 92.997C1.06096 93.2005 1.03229 93.404 1.03229 93.6075V98.5495C1.03229 98.753 1.06096 98.9565 1.14699 99.16C1.23301 99.3635 1.34771 99.5379 1.49108 99.6833C1.63446 99.8286 1.80651 99.9449 2.00723 100.032C2.20795 100.119 2.40868 100.148 2.6094 100.148H11.4125C11.6133 100.148 11.814 100.119 12.0147 100.032C12.2154 99.9449 12.3875 99.8286 12.5309 99.6833C12.6742 99.5379 12.7889 99.3635 12.8749 99.16C12.961 98.9565 12.9896 98.753 12.9896 98.5495V93.5784C12.9896 93.1714 12.8176 92.7644 12.5309 92.4737C12.2154 92.183 11.814 92.0086 11.4125 92.0086Z" fill="#292C33"/>
<path d="M119.287 104.073H116.935C116.735 104.073 116.591 104.015 116.591 103.899C116.649 103.724 116.735 103.55 116.821 103.404C116.821 103.288 116.964 103.23 117.165 103.23H119.057C119.115 103.23 119.172 103.23 119.229 103.259C119.287 103.288 119.344 103.317 119.373 103.375C119.459 103.521 119.545 103.695 119.602 103.869C119.602 103.986 119.459 104.073 119.287 104.073ZM124.162 101.486C123.989 101.224 123.76 101.021 123.473 100.904C123.187 100.759 122.9 100.73 122.584 100.759H113.781C112.921 100.759 112.462 101.021 112.233 101.515C111.803 102.241 111.459 103.026 111.201 103.84C111.201 104.335 111.889 104.596 112.749 104.596H123.617C124.477 104.596 125.136 104.247 125.194 103.84C124.936 102.997 124.592 102.241 124.162 101.486Z" fill="#292C33"/>
<path d="M122.326 94.4796H117.366V93.9273H122.326V94.4796ZM122.326 95.6715H117.366V95.1192H122.326V95.6715ZM122.326 96.8925H117.366V96.3401H122.326V96.8925ZM122.326 98.0844H114.011V97.532H122.326V98.0844ZM113.982 93.9273H116.62V96.8634H113.982V93.9273ZM122.556 92.0086H113.753C113.351 92.0086 112.95 92.183 112.663 92.4737C112.376 92.7644 112.204 93.1714 112.204 93.5784V98.5495C112.204 98.753 112.233 98.9565 112.319 99.16C112.405 99.3635 112.52 99.5379 112.663 99.6833C112.806 99.8286 112.978 99.9449 113.179 100.032C113.38 100.119 113.581 100.148 113.781 100.148H122.584C122.986 100.148 123.387 99.974 123.703 99.6833C123.989 99.3925 124.162 98.9856 124.162 98.5495V93.5784C124.162 93.3749 124.133 93.1714 124.047 92.9679C123.961 92.7644 123.846 92.59 123.703 92.4447C123.559 92.2993 123.387 92.183 123.187 92.0958C122.957 92.0377 122.756 92.0086 122.556 92.0086Z" fill="#292C33"/>
<path d="M7.34073 48.4608H6.10772V90.497H7.34073V48.4608Z" fill="#292C33"/>
<path d="M119.172 46.4839H117.939V90.4969H119.172V46.4839Z" fill="#292C33"/>
<path d="M63.8012 18.2565H62.5682V62.2694H63.8012V18.2565Z" fill="#292C33"/>
<path d="M74.4682 10.3492L73.8661 11.4248L106.555 30.3498L107.157 29.2742L74.4682 10.3492Z" fill="#292C33"/>
<path d="M15.0829 108.753L14.4807 109.829L51.4138 131.225L52.0159 130.149L15.0829 108.753Z" fill="#292C33"/>
<path d="M75.1278 77.7349L74.5256 78.8105L107.014 97.6482L107.616 96.5726L75.1278 77.7349Z" fill="#292C33"/>
<path d="M109.623 109.335L73.3212 130.585L73.9234 131.661L110.226 110.41L109.623 109.335Z" fill="#292C33"/>
<path d="M52.3887 77.6477L16.0865 98.8983L16.6887 99.9739L52.9909 78.7233L52.3887 77.6477Z" fill="#292C33"/>
<path d="M50.9836 10.3492L17.2048 30.03L17.807 31.1056L51.5858 11.4248L50.9836 10.3492Z" fill="#292C33"/>
<path d="M56.6039 115.701C56.6612 116.661 55.6289 118.056 53.9085 119.132C51.9586 120.353 49.7506 121.021 47.4567 121.079C45.1914 121.137 42.926 120.585 40.9188 119.48C37.3918 117.387 36.847 114.277 41.2342 111.544C42.7827 110.585 44.5605 110.003 46.3957 109.887L47.1986 111.951C46.0229 112.096 44.8759 112.503 43.8436 113.114C41.8938 114.335 41.607 116.108 44.0157 117.562C45.1914 118.201 46.4817 118.521 47.8008 118.492C49.1198 118.463 50.4102 118.085 51.5571 117.387C52.4461 116.893 53.1056 116.108 53.421 115.149L56.6039 115.701Z" fill="#292C33"/>
<path d="M65.3497 105.585C69.0774 107.823 68.1311 110.265 65.407 111.98C63.8012 113.027 61.9087 113.637 59.9875 113.666C58.0663 113.695 56.1738 113.201 54.5106 112.213L47.3993 107.968L50.2954 106.166L56.7759 110.032C57.6362 110.672 58.6398 111.05 59.7008 111.137C60.7617 111.195 61.8227 110.963 62.7403 110.41C64.4894 109.306 63.7726 108.259 61.8227 107.067L55.2562 103.055L58.1523 101.253L65.3497 105.585Z" fill="#292C33"/>
<path d="M71.4287 101.922L73.7227 103.259C74.0955 103.114 74.4682 102.939 74.8123 102.707C75.9306 102.009 76.0167 101.369 75.2138 100.875C74.7836 100.672 74.3249 100.584 73.8661 100.643C73.4073 100.701 72.9485 100.875 72.6044 101.166L71.4287 101.922ZM66.7547 99.1308L68.9627 100.468L69.9376 99.8576C70.6832 99.3925 70.9699 98.8401 70.081 98.3168C69.6796 98.1424 69.2494 98.0552 68.7906 98.0843C68.3605 98.1133 67.9304 98.2587 67.5576 98.5203C67.2996 98.7238 67.0128 98.9273 66.7547 99.1308ZM61.2492 99.3925C61.9087 98.9273 63.6292 97.7936 65.0056 96.9505C68.0164 95.0609 70.5971 95.09 72.289 96.1075C73.608 96.8924 73.8947 97.7064 73.608 98.6657C74.3822 98.4331 75.1851 98.375 75.9593 98.4622C76.7622 98.5494 77.5078 98.811 78.1959 99.218C80.834 100.759 79.9164 102.765 77.1637 104.538C75.9306 105.294 74.2102 106.311 73.4073 106.747L61.2492 99.3925Z" fill="#292C33"/>
<path d="M72.4036 92.3866L79.9451 87.7062L82.5545 89.276L77.9379 92.154L80.0885 93.4331L84.1603 90.904L86.7697 92.4738L82.6979 95.032L84.9058 96.3693L89.6945 93.375L92.3326 94.9448L84.6191 99.7415L72.4036 92.3866Z" fill="#292C33"/>
<path d="M37.5065 41.0188V29.8556L27.8145 35.3791L37.5065 41.0188Z" fill="#292C33"/>
<path d="M26.9542 36.5999V82.6769L37.5065 76.6593V42.7338L26.9542 36.5999Z" fill="#292C33"/>
<path d="M85.4506 74.7407L95.0567 80.2932V47.2108L85.4506 52.6761V74.7407Z" fill="#292C33"/>
<path d="M74.755 24.1868V33.6929L85.4506 39.914V51.0481L95.0567 45.4665L99.2719 47.9085L107.53 43.199L74.755 24.1868Z" fill="#292C33"/>
<path d="M100.677 48.7223L107.645 52.7632V44.7687L100.677 48.7223Z" fill="#292C33"/>
</svg>
