<svg width="431" height="362" viewBox="0 0 431 362" fill="none" xmlns="http://www.w3.org/2000/svg">
<g clip-path="url(#clip0_557_3377)">
<path d="M22.9564 20.7264H20.3476V3.36139H10.8906V20.7264H8.2002V1.32324H22.8749V20.7264H22.9564Z" fill="#B3B3B3"/>
<path d="M38.7725 20.7264H36.1636V14.6119H29.7231V20.7264H27.1143V6.29626H29.7231V12.5738H36.1636V6.29626H38.7725V20.7264Z" fill="#B3B3B3"/>
<path d="M73 20.7264V1.32324H79.359C81.3972 1.32324 82.9462 1.73087 84.0875 2.62766C85.2289 3.52444 85.7996 4.82886 85.7996 6.5409C85.7996 7.35616 85.555 8.08989 85.0658 8.82363C84.5767 9.55736 83.8429 9.96499 83.0277 10.2911C84.3321 10.4541 85.3104 11.0248 86.0441 11.9216C86.7779 12.8184 87.1855 13.9598 87.1855 15.1826C87.1855 16.9762 86.6148 18.2806 85.4735 19.2589C84.3321 20.2373 82.7831 20.6449 80.745 20.6449H73V20.7264ZM75.6904 9.55736H79.9297C80.908 9.55736 81.7233 9.31278 82.294 8.7421C82.9462 8.17142 83.1907 7.43769 83.1907 6.45937C83.1907 5.39954 82.8646 4.6658 82.2124 4.09512C81.5602 3.60597 80.5819 3.27986 79.359 3.27986H75.6904V9.55736ZM75.6904 11.5955V18.6067H80.745C81.9678 18.6067 82.8646 18.2806 83.5168 17.71C84.1691 17.1393 84.4952 16.2425 84.4952 15.1826C84.4952 14.1228 84.1691 13.226 83.5168 12.5738C82.8646 11.9216 81.9678 11.5955 80.745 11.514H80.5819H75.6904V11.5955Z" fill="#B3B3B3"/>
<path d="M101.126 8.33441H96.3978V20.7264H93.7889V8.33441H89.0604V6.29626H101.126V8.33441Z" fill="#B3B3B3"/>
<path d="M150.512 14.5304C150.593 16.4055 149.941 17.9545 148.637 19.1773C147.332 20.4002 145.62 21.0524 143.419 21.0524C141.218 21.0524 139.424 20.2372 138.038 18.6882C136.652 17.1392 136 15.1826 136 12.7368V9.31271C136 6.94846 136.652 4.91031 138.038 3.36132C139.424 1.81233 141.218 0.99707 143.419 0.99707C145.62 0.99707 147.332 1.56775 148.637 2.70911C149.941 3.85048 150.593 5.39947 150.512 7.35609V7.43762H147.984C147.984 6.05168 147.577 4.99184 146.761 4.17658C145.946 3.36132 144.805 2.95369 143.337 2.95369C141.87 2.95369 140.729 3.52437 139.832 4.74726C138.935 5.88862 138.527 7.35609 138.527 9.14966V12.6553C138.527 14.4488 138.935 15.9163 139.832 17.0577C140.729 18.199 141.87 18.8512 143.337 18.8512C144.805 18.8512 145.946 18.4436 146.761 17.7099C147.577 16.8946 147.984 15.8348 147.984 14.4488H150.512V14.5304Z" fill="#B3B3B3"/>
<path d="M165.92 14.0413C165.92 16.161 165.431 17.7915 164.452 19.0959C163.474 20.4003 162.088 20.971 160.295 20.971C159.398 20.971 158.664 20.8079 157.93 20.5634C157.278 20.2373 156.707 19.8296 156.218 19.259V26.2702H153.609V6.29634H155.648L156.055 8.17143C156.544 7.4377 157.115 6.94854 157.849 6.62244C158.583 6.29634 159.398 6.05176 160.295 6.05176C162.088 6.05176 163.474 6.78549 164.452 8.17143C165.431 9.55737 165.92 11.4325 165.92 13.7967V14.0413ZM163.311 13.7967C163.311 12.1662 162.985 10.7803 162.333 9.80195C161.681 8.82364 160.702 8.25296 159.479 8.25296C158.746 8.25296 158.093 8.41601 157.523 8.74211C156.952 9.06822 156.544 9.55737 156.218 10.1281V17.1393C156.544 17.71 156.952 18.1991 157.523 18.5252C158.093 18.8513 158.746 19.0144 159.479 19.0144C160.702 19.0144 161.681 18.5252 162.333 17.6284C162.985 16.7317 163.311 15.5088 163.311 14.1228V13.7967Z" fill="#B3B3B3"/>
<path d="M215.43 1.32324V20.7264H212.821V12.6553C212.006 12.8999 211.191 13.063 210.375 13.226C209.56 13.3076 208.663 13.3891 207.522 13.3891C205.402 13.3891 203.772 12.8999 202.631 12.0031C201.489 11.1064 201 9.55736 201 7.43769V1.32324H203.609V7.43769C203.609 8.90515 203.935 9.88346 204.506 10.4541C205.158 11.0248 206.136 11.2694 207.441 11.2694C208.337 11.2694 209.234 11.1879 210.131 11.1064C210.946 10.9433 211.843 10.7802 212.74 10.5357V1.32324H215.43Z" fill="#B3B3B3"/>
<path d="M230.675 8.33441H225.947V20.7264H223.338V8.33441H218.61V6.29626H230.675V8.33441Z" fill="#B3B3B3"/>
<path d="M279.675 20.7264H277.066V3.36139H267.609V20.7264H265V1.32324H279.675V20.7264Z" fill="#B3B3B3"/>
<path d="M294.92 8.33453H290.192V20.7265H287.583V8.33453H282.854V6.29639H294.92V8.33453Z" fill="#B3B3B3"/>
<path d="M344.512 14.5302C344.593 16.4053 343.941 17.9543 342.637 19.1772C341.332 20.4001 339.62 21.0523 337.419 21.0523C335.218 21.0523 333.424 20.2371 332.038 18.6881C330.652 17.1391 330 15.1825 330 12.7367V9.31259C330 6.94834 330.652 4.91019 332.038 3.3612C333.424 1.81221 335.218 0.996948 337.419 0.996948C339.62 0.996948 341.332 1.56763 342.637 2.70899C343.941 3.85035 344.593 5.39935 344.512 7.35597V7.43749H341.984C341.984 6.05155 341.577 4.99172 340.761 4.17646C339.946 3.3612 338.805 2.95357 337.337 2.95357C335.87 2.95357 334.729 3.52425 333.832 4.74714C332.935 5.8885 332.527 7.35597 332.527 9.14954V12.6552C332.527 14.4487 332.935 15.9162 333.832 17.0575C334.729 18.1989 335.87 18.8511 337.337 18.8511C338.805 18.8511 339.946 18.4435 340.761 17.7098C341.577 16.8945 341.984 15.8347 341.984 14.4487H344.512V14.5302Z" fill="#B3B3B3"/>
<path d="M353.887 6.05149C355.762 6.05149 357.148 6.7037 358.208 8.08964C359.268 9.47558 359.838 11.1876 359.838 13.3888V13.7149C359.838 15.8346 359.268 17.6282 358.126 19.0141C356.985 20.4 355.436 21.0523 353.398 21.0523C351.36 21.0523 349.811 20.4 348.669 19.0141C347.528 17.6282 346.957 15.9161 346.957 13.7149V13.3888C346.957 13.3073 346.957 13.2258 346.957 13.2258C346.957 13.1442 346.957 13.1442 346.957 13.0627V9.96473C346.957 7.19285 347.528 5.23623 348.588 3.93182C349.648 2.6274 351.278 1.97519 353.398 1.81214C354.621 1.73062 355.599 1.56756 356.251 1.32299C356.903 1.07841 357.23 0.670779 357.23 0.100098H359.268V0.181624C359.349 1.56756 358.86 2.54587 357.882 3.11656C356.903 3.68724 355.517 4.01334 353.642 4.01334C352.256 4.01334 351.197 4.42097 350.381 5.1547C349.566 5.88844 349.158 6.94827 349.158 8.33421V8.41574C349.648 7.76353 350.381 7.19285 351.197 6.78522C352.012 6.37759 352.99 6.05149 353.887 6.05149ZM353.398 8.08964C352.175 8.08964 351.197 8.57879 350.544 9.5571C349.892 10.5354 349.566 11.8398 349.566 13.3073V13.6334C349.566 15.1824 349.892 16.4053 350.544 17.3836C351.197 18.3619 352.175 18.8511 353.398 18.8511C354.621 18.8511 355.599 18.3619 356.251 17.3836C356.903 16.4053 357.23 15.1009 357.23 13.6334V13.3073C357.23 11.7583 356.903 10.5354 356.251 9.5571C355.599 8.57879 354.621 8.08964 353.398 8.08964Z" fill="#B3B3B3"/>
<path d="M394 20.7264V1.32324H400.359C402.397 1.32324 403.946 1.73087 405.088 2.62766C406.229 3.52444 406.8 4.82886 406.8 6.5409C406.8 7.35616 406.555 8.08989 406.066 8.82363C405.577 9.55736 404.843 9.96499 404.028 10.3726C405.332 10.5357 406.31 11.1064 407.044 12.0031C407.778 12.8999 408.186 14.0413 408.186 15.2642C408.186 17.0577 407.615 18.3622 406.473 19.3405C405.332 20.3188 403.783 20.7264 401.745 20.7264H394ZM396.69 9.55736H400.93C401.908 9.55736 402.723 9.31278 403.294 8.7421C403.946 8.17142 404.191 7.43769 404.191 6.45937C404.191 5.39954 403.865 4.6658 403.212 4.09512C402.56 3.60597 401.582 3.27986 400.359 3.27986H396.69V9.55736ZM396.69 11.5955V18.6067H401.745C402.968 18.6067 403.865 18.2806 404.517 17.71C405.169 17.1393 405.495 16.2425 405.495 15.1826C405.495 14.1228 405.169 13.226 404.517 12.5738C403.865 11.9216 402.968 11.5955 401.745 11.514H401.582H396.69V11.5955Z" fill="#B3B3B3"/>
<path d="M416.745 18.9325C417.561 18.9325 418.294 18.6879 418.865 18.1172C419.436 17.5466 419.762 16.8944 419.762 16.1606H422.126V16.2421C422.126 17.465 421.637 18.6064 420.496 19.5847C419.354 20.563 418.131 21.0522 416.664 21.0522C414.626 21.0522 413.077 20.4 411.935 19.014C410.794 17.6281 410.305 15.916 410.305 13.8779V13.3072C410.305 11.2691 410.876 9.55702 411.935 8.17108C413.077 6.78514 414.626 6.13293 416.582 6.13293C418.213 6.13293 419.517 6.62209 420.496 7.6004C421.474 8.57871 422.045 9.8016 421.963 11.2691V11.3506H419.599C419.599 10.4538 419.273 9.72007 418.702 9.06787C418.131 8.41566 417.398 8.17108 416.501 8.17108C415.196 8.17108 414.3 8.66024 413.647 9.63855C413.077 10.6169 412.751 11.8397 412.751 13.3072V13.8779C412.751 15.3454 413.077 16.5683 413.647 17.5466C414.544 18.4433 415.441 18.9325 416.745 18.9325Z" fill="#B3B3B3"/>
<path d="M22.9564 20.7264H20.3476V3.36139H10.8906V20.7264H8.2002V1.32324H22.8749V20.7264H22.9564Z" fill="#B3B3B3"/>
<path d="M38.7725 20.7264H36.1636V14.6119H29.7231V20.7264H27.1143V6.29626H29.7231V12.5738H36.1636V6.29626H38.7725V20.7264Z" fill="#B3B3B3"/>
<path d="M73 20.7264V1.32324H79.359C81.3972 1.32324 82.9462 1.73087 84.0875 2.62766C85.2289 3.52444 85.7996 4.82886 85.7996 6.5409C85.7996 7.35616 85.555 8.08989 85.0658 8.82363C84.5767 9.55736 83.8429 9.96499 83.0277 10.2911C84.3321 10.4541 85.3104 11.0248 86.0441 11.9216C86.7779 12.8184 87.1855 13.9598 87.1855 15.1826C87.1855 16.9762 86.6148 18.2806 85.4735 19.2589C84.3321 20.2373 82.7831 20.6449 80.745 20.6449H73V20.7264ZM75.6904 9.55736H79.9297C80.908 9.55736 81.7233 9.31278 82.294 8.7421C82.9462 8.17142 83.1907 7.43769 83.1907 6.45937C83.1907 5.39954 82.8646 4.6658 82.2124 4.09512C81.5602 3.60597 80.5819 3.27986 79.359 3.27986H75.6904V9.55736ZM75.6904 11.5955V18.6067H80.745C81.9678 18.6067 82.8646 18.2806 83.5168 17.71C84.1691 17.1393 84.4952 16.2425 84.4952 15.1826C84.4952 14.1228 84.1691 13.226 83.5168 12.5738C82.8646 11.9216 81.9678 11.5955 80.745 11.514H80.5819H75.6904V11.5955Z" fill="#B3B3B3"/>
<path d="M101.126 8.33441H96.3978V20.7264H93.7889V8.33441H89.0604V6.29626H101.126V8.33441Z" fill="#B3B3B3"/>
<path d="M150.512 14.5304C150.593 16.4055 149.941 17.9545 148.637 19.1773C147.332 20.4002 145.62 21.0524 143.419 21.0524C141.218 21.0524 139.424 20.2372 138.038 18.6882C136.652 17.1392 136 15.1826 136 12.7368V9.31271C136 6.94846 136.652 4.91031 138.038 3.36132C139.424 1.81233 141.218 0.99707 143.419 0.99707C145.62 0.99707 147.332 1.56775 148.637 2.70911C149.941 3.85048 150.593 5.39947 150.512 7.35609V7.43762H147.984C147.984 6.05168 147.577 4.99184 146.761 4.17658C145.946 3.36132 144.805 2.95369 143.337 2.95369C141.87 2.95369 140.729 3.52437 139.832 4.74726C138.935 5.88862 138.527 7.35609 138.527 9.14966V12.6553C138.527 14.4488 138.935 15.9163 139.832 17.0577C140.729 18.199 141.87 18.8512 143.337 18.8512C144.805 18.8512 145.946 18.4436 146.761 17.7099C147.577 16.8946 147.984 15.8348 147.984 14.4488H150.512V14.5304Z" fill="#B3B3B3"/>
<path d="M165.92 14.0413C165.92 16.161 165.431 17.7915 164.452 19.0959C163.474 20.4003 162.088 20.971 160.295 20.971C159.398 20.971 158.664 20.8079 157.93 20.5634C157.278 20.2373 156.707 19.8296 156.218 19.259V26.2702H153.609V6.29634H155.648L156.055 8.17143C156.544 7.4377 157.115 6.94854 157.849 6.62244C158.583 6.29634 159.398 6.05176 160.295 6.05176C162.088 6.05176 163.474 6.78549 164.452 8.17143C165.431 9.55737 165.92 11.4325 165.92 13.7967V14.0413ZM163.311 13.7967C163.311 12.1662 162.985 10.7803 162.333 9.80195C161.681 8.82364 160.702 8.25296 159.479 8.25296C158.746 8.25296 158.093 8.41601 157.523 8.74211C156.952 9.06822 156.544 9.55737 156.218 10.1281V17.1393C156.544 17.71 156.952 18.1991 157.523 18.5252C158.093 18.8513 158.746 19.0144 159.479 19.0144C160.702 19.0144 161.681 18.5252 162.333 17.6284C162.985 16.7317 163.311 15.5088 163.311 14.1228V13.7967Z" fill="#B3B3B3"/>
<path d="M215.43 1.32324V20.7264H212.821V12.6553C212.006 12.8999 211.191 13.063 210.375 13.226C209.56 13.3076 208.663 13.3891 207.522 13.3891C205.402 13.3891 203.772 12.8999 202.631 12.0031C201.489 11.1064 201 9.55736 201 7.43769V1.32324H203.609V7.43769C203.609 8.90515 203.935 9.88346 204.506 10.4541C205.158 11.0248 206.136 11.2694 207.441 11.2694C208.337 11.2694 209.234 11.1879 210.131 11.1064C210.946 10.9433 211.843 10.7802 212.74 10.5357V1.32324H215.43Z" fill="#B3B3B3"/>
<path d="M230.675 8.33441H225.947V20.7264H223.338V8.33441H218.61V6.29626H230.675V8.33441Z" fill="#B3B3B3"/>
<path d="M279.675 20.7264H277.066V3.36139H267.609V20.7264H265V1.32324H279.675V20.7264Z" fill="#B3B3B3"/>
<path d="M294.92 8.33453H290.192V20.7265H287.583V8.33453H282.854V6.29639H294.92V8.33453Z" fill="#B3B3B3"/>
<path d="M344.512 14.5302C344.593 16.4053 343.941 17.9543 342.637 19.1772C341.332 20.4001 339.62 21.0523 337.419 21.0523C335.218 21.0523 333.424 20.2371 332.038 18.6881C330.652 17.1391 330 15.1825 330 12.7367V9.31259C330 6.94834 330.652 4.91019 332.038 3.3612C333.424 1.81221 335.218 0.996948 337.419 0.996948C339.62 0.996948 341.332 1.56763 342.637 2.70899C343.941 3.85035 344.593 5.39935 344.512 7.35597V7.43749H341.984C341.984 6.05155 341.577 4.99172 340.761 4.17646C339.946 3.3612 338.805 2.95357 337.337 2.95357C335.87 2.95357 334.729 3.52425 333.832 4.74714C332.935 5.8885 332.527 7.35597 332.527 9.14954V12.6552C332.527 14.4487 332.935 15.9162 333.832 17.0575C334.729 18.1989 335.87 18.8511 337.337 18.8511C338.805 18.8511 339.946 18.4435 340.761 17.7098C341.577 16.8945 341.984 15.8347 341.984 14.4487H344.512V14.5302Z" fill="#B3B3B3"/>
<path d="M353.887 6.05149C355.762 6.05149 357.148 6.7037 358.208 8.08964C359.268 9.47558 359.838 11.1876 359.838 13.3888V13.7149C359.838 15.8346 359.268 17.6282 358.126 19.0141C356.985 20.4 355.436 21.0523 353.398 21.0523C351.36 21.0523 349.811 20.4 348.669 19.0141C347.528 17.6282 346.957 15.9161 346.957 13.7149V13.3888C346.957 13.3073 346.957 13.2258 346.957 13.2258C346.957 13.1442 346.957 13.1442 346.957 13.0627V9.96473C346.957 7.19285 347.528 5.23623 348.588 3.93182C349.648 2.6274 351.278 1.97519 353.398 1.81214C354.621 1.73062 355.599 1.56756 356.251 1.32299C356.903 1.07841 357.23 0.670779 357.23 0.100098H359.268V0.181624C359.349 1.56756 358.86 2.54587 357.882 3.11656C356.903 3.68724 355.517 4.01334 353.642 4.01334C352.256 4.01334 351.197 4.42097 350.381 5.1547C349.566 5.88844 349.158 6.94827 349.158 8.33421V8.41574C349.648 7.76353 350.381 7.19285 351.197 6.78522C352.012 6.37759 352.99 6.05149 353.887 6.05149ZM353.398 8.08964C352.175 8.08964 351.197 8.57879 350.544 9.5571C349.892 10.5354 349.566 11.8398 349.566 13.3073V13.6334C349.566 15.1824 349.892 16.4053 350.544 17.3836C351.197 18.3619 352.175 18.8511 353.398 18.8511C354.621 18.8511 355.599 18.3619 356.251 17.3836C356.903 16.4053 357.23 15.1009 357.23 13.6334V13.3073C357.23 11.7583 356.903 10.5354 356.251 9.5571C355.599 8.57879 354.621 8.08964 353.398 8.08964Z" fill="#B3B3B3"/>
<path d="M394 20.7264V1.32324H400.359C402.397 1.32324 403.946 1.73087 405.088 2.62766C406.229 3.52444 406.8 4.82886 406.8 6.5409C406.8 7.35616 406.555 8.08989 406.066 8.82363C405.577 9.55736 404.843 9.96499 404.028 10.3726C405.332 10.5357 406.31 11.1064 407.044 12.0031C407.778 12.8999 408.186 14.0413 408.186 15.2642C408.186 17.0577 407.615 18.3622 406.473 19.3405C405.332 20.3188 403.783 20.7264 401.745 20.7264H394ZM396.69 9.55736H400.93C401.908 9.55736 402.723 9.31278 403.294 8.7421C403.946 8.17142 404.191 7.43769 404.191 6.45937C404.191 5.39954 403.865 4.6658 403.212 4.09512C402.56 3.60597 401.582 3.27986 400.359 3.27986H396.69V9.55736ZM396.69 11.5955V18.6067H401.745C402.968 18.6067 403.865 18.2806 404.517 17.71C405.169 17.1393 405.495 16.2425 405.495 15.1826C405.495 14.1228 405.169 13.226 404.517 12.5738C403.865 11.9216 402.968 11.5955 401.745 11.514H401.582H396.69V11.5955Z" fill="#B3B3B3"/>
<path d="M416.745 18.9325C417.561 18.9325 418.294 18.6879 418.865 18.1172C419.436 17.5466 419.762 16.8944 419.762 16.1606H422.126V16.2421C422.126 17.465 421.637 18.6064 420.496 19.5847C419.354 20.563 418.131 21.0522 416.664 21.0522C414.626 21.0522 413.077 20.4 411.935 19.014C410.794 17.6281 410.305 15.916 410.305 13.8779V13.3072C410.305 11.2691 410.876 9.55702 411.935 8.17108C413.077 6.78514 414.626 6.13293 416.582 6.13293C418.213 6.13293 419.517 6.62209 420.496 7.6004C421.474 8.57871 422.045 9.8016 421.963 11.2691V11.3506H419.599C419.599 10.4538 419.273 9.72007 418.702 9.06787C418.131 8.41566 417.398 8.17108 416.501 8.17108C415.196 8.17108 414.3 8.66024 413.647 9.63855C413.077 10.6169 412.751 11.8397 412.751 13.3072V13.8779C412.751 15.3454 413.077 16.5683 413.647 17.5466C414.544 18.4433 415.441 18.9325 416.745 18.9325Z" fill="#B3B3B3"/>
<path d="M405.795 78V53.58L407.386 55.319H399.949V52.1H409.458V78H405.795Z" fill="#292C33" fill-opacity="0.8"/>
<path d="M410.468 128.796C408.372 128.796 406.559 128.488 405.029 127.871C403.5 127.254 402.316 126.379 401.477 125.244C400.639 124.085 400.219 122.728 400.219 121.174C400.219 119.645 400.614 118.35 401.403 117.289C402.217 116.204 403.389 115.39 404.918 114.847C406.448 114.28 408.298 113.996 410.468 113.996C412.639 113.996 414.489 114.28 416.018 114.847C417.572 115.39 418.756 116.204 419.57 117.289C420.384 118.374 420.791 119.669 420.791 121.174C420.791 122.728 420.372 124.085 419.533 125.244C418.695 126.379 417.498 127.254 415.944 127.871C414.39 128.488 412.565 128.796 410.468 128.796ZM410.468 125.799C412.54 125.799 414.156 125.38 415.315 124.541C416.499 123.678 417.091 122.518 417.091 121.063C417.091 119.632 416.499 118.51 415.315 117.696C414.156 116.857 412.54 116.438 410.468 116.438C408.421 116.438 406.818 116.857 405.658 117.696C404.499 118.51 403.919 119.632 403.919 121.063C403.919 122.518 404.499 123.678 405.658 124.541C406.818 125.38 408.421 125.799 410.468 125.799ZM410.468 115.994C408.495 115.994 406.818 115.735 405.436 115.217C404.055 114.674 402.994 113.91 402.254 112.923C401.514 111.912 401.144 110.715 401.144 109.334C401.144 107.879 401.527 106.633 402.291 105.597C403.081 104.536 404.178 103.722 405.584 103.155C406.99 102.588 408.618 102.304 410.468 102.304C412.343 102.304 413.983 102.588 415.389 103.155C416.795 103.722 417.893 104.536 418.682 105.597C419.472 106.633 419.866 107.879 419.866 109.334C419.866 110.715 419.496 111.912 418.756 112.923C418.016 113.91 416.943 114.674 415.537 115.217C414.131 115.735 412.442 115.994 410.468 115.994ZM410.468 113.626C412.269 113.626 413.675 113.256 414.686 112.516C415.722 111.776 416.24 110.765 416.24 109.482C416.24 108.175 415.71 107.151 414.649 106.411C413.589 105.671 412.195 105.301 410.468 105.301C408.742 105.301 407.36 105.671 406.324 106.411C405.313 107.151 404.807 108.175 404.807 109.482C404.807 110.765 405.301 111.776 406.287 112.516C407.299 113.256 408.692 113.626 410.468 113.626Z" fill="#292C33" fill-opacity="0.8"/>
<path d="M399.169 186.5V162.08L400.76 163.819H393.323V160.6H402.832V186.5H399.169ZM416.859 186.796C415.034 186.796 413.258 186.512 411.531 185.945C409.829 185.378 408.436 184.613 407.35 183.651L409.052 180.728C409.916 181.542 411.038 182.208 412.419 182.726C413.801 183.244 415.268 183.503 416.822 183.503C418.796 183.503 420.313 183.084 421.373 182.245C422.434 181.406 422.964 180.284 422.964 178.878C422.964 177.916 422.73 177.077 422.261 176.362C421.793 175.647 420.979 175.104 419.819 174.734C418.685 174.339 417.118 174.142 415.12 174.142H409.237L410.606 160.6H425.221V163.819H411.975L413.899 162.006L412.826 172.699L410.902 170.923H415.897C418.487 170.923 420.572 171.256 422.15 171.922C423.729 172.588 424.876 173.513 425.591 174.697C426.307 175.856 426.664 177.201 426.664 178.73C426.664 180.21 426.307 181.567 425.591 182.8C424.876 184.009 423.791 184.983 422.335 185.723C420.905 186.438 419.079 186.796 416.859 186.796Z" fill="#292C33" fill-opacity="0.8"/>
<path d="M390.62 244.5V241.984L401.165 231.809C402.102 230.921 402.793 230.144 403.237 229.478C403.706 228.787 404.014 228.158 404.162 227.591C404.335 226.999 404.421 226.432 404.421 225.889C404.421 224.557 403.952 223.509 403.015 222.744C402.078 221.979 400.709 221.597 398.908 221.597C397.527 221.597 396.281 221.831 395.171 222.3C394.061 222.744 393.099 223.447 392.285 224.409L389.769 222.226C390.756 220.968 392.075 220.006 393.728 219.34C395.405 218.649 397.243 218.304 399.241 218.304C401.042 218.304 402.608 218.6 403.94 219.192C405.272 219.759 406.296 220.586 407.011 221.671C407.751 222.756 408.121 224.039 408.121 225.519C408.121 226.358 408.01 227.184 407.788 227.998C407.566 228.812 407.147 229.675 406.53 230.588C405.913 231.501 405.025 232.524 403.866 233.659L394.468 242.724L393.58 241.281H409.231V244.5H390.62ZM411.866 244.5V241.984L422.411 231.809C423.348 230.921 424.039 230.144 424.483 229.478C424.952 228.787 425.26 228.158 425.408 227.591C425.581 226.999 425.667 226.432 425.667 225.889C425.667 224.557 425.198 223.509 424.261 222.744C423.324 221.979 421.955 221.597 420.154 221.597C418.773 221.597 417.527 221.831 416.417 222.3C415.307 222.744 414.345 223.447 413.531 224.409L411.015 222.226C412.002 220.968 413.321 220.006 414.974 219.34C416.651 218.649 418.489 218.304 420.487 218.304C422.288 218.304 423.854 218.6 425.186 219.192C426.518 219.759 427.542 220.586 428.257 221.671C428.997 222.756 429.367 224.039 429.367 225.519C429.367 226.358 429.256 227.184 429.034 227.998C428.812 228.812 428.393 229.675 427.776 230.588C427.159 231.501 426.271 232.524 425.112 233.659L415.714 242.724L414.826 241.281H430.477V244.5H411.866Z" fill="#292C33" fill-opacity="0.8"/>
<path d="M389.825 302.5V299.984L400.37 289.809C401.307 288.921 401.998 288.144 402.442 287.478C402.911 286.787 403.219 286.158 403.367 285.591C403.54 284.999 403.626 284.432 403.626 283.889C403.626 282.557 403.157 281.509 402.22 280.744C401.283 279.979 399.914 279.597 398.113 279.597C396.732 279.597 395.486 279.831 394.376 280.3C393.266 280.744 392.304 281.447 391.49 282.409L388.974 280.226C389.961 278.968 391.28 278.006 392.933 277.34C394.61 276.649 396.448 276.304 398.446 276.304C400.247 276.304 401.813 276.6 403.145 277.192C404.477 277.759 405.501 278.586 406.216 279.671C406.956 280.756 407.326 282.039 407.326 283.519C407.326 284.358 407.215 285.184 406.993 285.998C406.771 286.812 406.352 287.675 405.735 288.588C405.118 289.501 404.23 290.524 403.071 291.659L393.673 300.724L392.785 299.281H408.436V302.5H389.825ZM419.877 276.304C422.22 276.304 424.194 276.81 425.797 277.821C427.425 278.832 428.658 280.3 429.497 282.224C430.336 284.123 430.755 286.454 430.755 289.217C430.755 292.152 430.237 294.631 429.201 296.654C428.165 298.677 426.734 300.206 424.909 301.242C423.084 302.278 420.95 302.796 418.508 302.796C417.299 302.796 416.128 302.673 414.993 302.426C413.883 302.179 412.909 301.797 412.07 301.279L413.476 298.393C414.167 298.837 414.931 299.158 415.77 299.355C416.633 299.528 417.534 299.614 418.471 299.614C421.086 299.614 423.17 298.8 424.724 297.172C426.278 295.519 427.055 293.077 427.055 289.846C427.055 289.328 427.03 288.711 426.981 287.996C426.932 287.281 426.821 286.578 426.648 285.887L427.869 287.145C427.524 288.28 426.944 289.242 426.13 290.031C425.341 290.796 424.379 291.375 423.244 291.77C422.134 292.14 420.913 292.325 419.581 292.325C417.879 292.325 416.362 292.004 415.03 291.363C413.698 290.722 412.65 289.821 411.885 288.662C411.12 287.478 410.738 286.084 410.738 284.481C410.738 282.804 411.133 281.361 411.922 280.152C412.736 278.919 413.834 277.969 415.215 277.303C416.621 276.637 418.175 276.304 419.877 276.304ZM420.025 279.301C418.915 279.301 417.928 279.511 417.065 279.93C416.202 280.349 415.523 280.929 415.03 281.669C414.561 282.409 414.327 283.297 414.327 284.333C414.327 285.862 414.857 287.083 415.918 287.996C416.979 288.884 418.409 289.328 420.21 289.328C421.394 289.328 422.43 289.106 423.318 288.662C424.231 288.218 424.934 287.614 425.427 286.849C425.945 286.084 426.204 285.233 426.204 284.296C426.204 283.383 425.97 282.557 425.501 281.817C425.032 281.077 424.342 280.473 423.429 280.004C422.516 279.535 421.382 279.301 420.025 279.301Z" fill="#292C33" fill-opacity="0.8"/>
<path d="M15.743 128.5V125.984L26.288 115.809C27.2254 114.921 27.916 114.144 28.36 113.478C28.8287 112.787 29.137 112.158 29.285 111.591C29.4577 110.999 29.544 110.432 29.544 109.889C29.544 108.557 29.0754 107.509 28.138 106.744C27.2007 105.979 25.8317 105.597 24.031 105.597C22.6497 105.597 21.404 105.831 20.294 106.3C19.184 106.744 18.222 107.447 17.408 108.409L14.892 106.226C15.8787 104.968 17.1984 104.006 18.851 103.34C20.5284 102.649 22.366 102.304 24.364 102.304C26.1647 102.304 27.731 102.6 29.063 103.192C30.395 103.759 31.4187 104.586 32.134 105.671C32.874 106.756 33.244 108.039 33.244 109.519C33.244 110.358 33.133 111.184 32.911 111.998C32.689 112.812 32.2697 113.675 31.653 114.588C31.0364 115.501 30.1484 116.524 28.989 117.659L19.591 126.724L18.703 125.281H34.354V128.5H15.743Z" fill="#292C33" fill-opacity="0.8"/>
<path d="M23.7541 160.304C26.0974 160.304 28.0708 160.81 29.6741 161.821C31.3021 162.832 32.5354 164.3 33.3741 166.224C34.2128 168.123 34.6321 170.454 34.6321 173.217C34.6321 176.152 34.1141 178.631 33.0781 180.654C32.0421 182.677 30.6114 184.206 28.7861 185.242C26.9608 186.278 24.8271 186.796 22.3851 186.796C21.1764 186.796 20.0048 186.673 18.8701 186.426C17.7601 186.179 16.7858 185.797 15.9471 185.279L17.3531 182.393C18.0438 182.837 18.8084 183.158 19.6471 183.355C20.5104 183.528 21.4108 183.614 22.3481 183.614C24.9628 183.614 27.0471 182.8 28.6011 181.172C30.1551 179.519 30.9321 177.077 30.9321 173.846C30.9321 173.328 30.9074 172.711 30.8581 171.996C30.8088 171.281 30.6978 170.578 30.5251 169.887L31.7461 171.145C31.4008 172.28 30.8211 173.242 30.0071 174.031C29.2178 174.796 28.2558 175.375 27.1211 175.77C26.0111 176.14 24.7901 176.325 23.4581 176.325C21.7561 176.325 20.2391 176.004 18.9071 175.363C17.5751 174.722 16.5268 173.821 15.7621 172.662C14.9974 171.478 14.6151 170.084 14.6151 168.481C14.6151 166.804 15.0098 165.361 15.7991 164.152C16.6131 162.919 17.7108 161.969 19.0921 161.303C20.4981 160.637 22.0521 160.304 23.7541 160.304ZM23.9021 163.301C22.7921 163.301 21.8054 163.511 20.9421 163.93C20.0788 164.349 19.4004 164.929 18.9071 165.669C18.4384 166.409 18.2041 167.297 18.2041 168.333C18.2041 169.862 18.7344 171.083 19.7951 171.996C20.8558 172.884 22.2864 173.328 24.0871 173.328C25.2711 173.328 26.3071 173.106 27.1951 172.662C28.1078 172.218 28.8108 171.614 29.3041 170.849C29.8221 170.084 30.0811 169.233 30.0811 168.296C30.0811 167.383 29.8468 166.557 29.3781 165.817C28.9094 165.077 28.2188 164.473 27.3061 164.004C26.3934 163.535 25.2588 163.301 23.9021 163.301Z" fill="#292C33" fill-opacity="0.8"/>
<path d="M12.8739 244.5V220.08L14.4649 221.819H7.02793V218.6H16.5369V244.5H12.8739ZM33.0803 244.796C30.7863 244.796 28.8253 244.29 27.1973 243.279C25.5693 242.268 24.3236 240.812 23.4603 238.913C22.6216 236.989 22.2023 234.646 22.2023 231.883C22.2023 228.948 22.7203 226.469 23.7563 224.446C24.7923 222.423 26.2353 220.894 28.0853 219.858C29.9353 218.822 32.0566 218.304 34.4493 218.304C35.6826 218.304 36.8543 218.427 37.9643 218.674C39.0989 218.921 40.0733 219.303 40.8873 219.821L39.4813 222.707C38.8153 222.238 38.0506 221.918 37.1873 221.745C36.3486 221.572 35.4606 221.486 34.5233 221.486C31.8839 221.486 29.7873 222.312 28.2333 223.965C26.6793 225.593 25.9023 228.023 25.9023 231.254C25.9023 231.772 25.9269 232.389 25.9763 233.104C26.0256 233.819 26.1489 234.522 26.3463 235.213L25.0883 233.955C25.4583 232.82 26.0379 231.871 26.8273 231.106C27.6413 230.317 28.6033 229.737 29.7133 229.367C30.8479 228.972 32.0689 228.775 33.3763 228.775C35.1029 228.775 36.6323 229.096 37.9643 229.737C39.2963 230.378 40.3446 231.291 41.1093 232.475C41.8739 233.634 42.2563 235.016 42.2563 236.619C42.2563 238.272 41.8493 239.715 41.0353 240.948C40.2213 242.181 39.1236 243.131 37.7423 243.797C36.3609 244.463 34.8069 244.796 33.0803 244.796ZM32.9323 241.799C34.0669 241.799 35.0536 241.589 35.8923 241.17C36.7556 240.751 37.4339 240.171 37.9273 239.431C38.4206 238.666 38.6673 237.778 38.6673 236.767C38.6673 235.238 38.1369 234.029 37.0763 233.141C36.0156 232.228 34.5726 231.772 32.7473 231.772C31.5633 231.772 30.5273 231.994 29.6393 232.438C28.7513 232.882 28.0483 233.486 27.5303 234.251C27.0369 234.991 26.7903 235.842 26.7903 236.804C26.7903 237.692 27.0246 238.518 27.4933 239.283C27.9619 240.023 28.6526 240.627 29.5653 241.096C30.4779 241.565 31.6003 241.799 32.9323 241.799Z" fill="#292C33" fill-opacity="0.8"/>
<path d="M5.15611 302.5V299.984L15.7011 289.809C16.6384 288.921 17.3291 288.144 17.7731 287.478C18.2418 286.787 18.5501 286.158 18.6981 285.591C18.8708 284.999 18.9571 284.432 18.9571 283.889C18.9571 282.557 18.4884 281.509 17.5511 280.744C16.6138 279.979 15.2448 279.597 13.4441 279.597C12.0628 279.597 10.8171 279.831 9.70711 280.3C8.59711 280.744 7.63511 281.447 6.82111 282.409L4.30511 280.226C5.29178 278.968 6.61144 278.006 8.26411 277.34C9.94144 276.649 11.7791 276.304 13.7771 276.304C15.5778 276.304 17.1441 276.6 18.4761 277.192C19.8081 277.759 20.8318 278.586 21.5471 279.671C22.2871 280.756 22.6571 282.039 22.6571 283.519C22.6571 284.358 22.5461 285.184 22.3241 285.998C22.1021 286.812 21.6828 287.675 21.0661 288.588C20.4494 289.501 19.5614 290.524 18.4021 291.659L9.00411 300.724L8.11611 299.281H23.7671V302.5H5.15611ZM34.7272 302.796C32.9019 302.796 31.1259 302.512 29.3992 301.945C27.6972 301.378 26.3035 300.613 25.2182 299.651L26.9202 296.728C27.7835 297.542 28.9059 298.208 30.2872 298.726C31.6685 299.244 33.1485 299.503 34.7272 299.503C36.6512 299.503 38.1435 299.096 39.2042 298.282C40.2895 297.443 40.8322 296.321 40.8322 294.915C40.8322 293.558 40.3142 292.473 39.2782 291.659C38.2669 290.82 36.6512 290.401 34.4312 290.401H32.3592V287.811L40.0552 278.339L40.5732 279.819H26.4022V276.6H43.4962V279.116L35.8372 288.551L33.9132 287.404H35.1342C38.2669 287.404 40.6102 288.107 42.1642 289.513C43.7429 290.919 44.5322 292.707 44.5322 294.878C44.5322 296.333 44.1745 297.665 43.4592 298.874C42.7439 300.083 41.6585 301.045 40.2032 301.76C38.7725 302.451 36.9472 302.796 34.7272 302.796Z" fill="#292C33" fill-opacity="0.8"/>
<path d="M11.7648 360.796C9.93947 360.796 8.16347 360.512 6.4368 359.945C4.7348 359.378 3.34113 358.613 2.2558 357.651L3.9578 354.728C4.82113 355.542 5.94347 356.208 7.3248 356.726C8.70613 357.244 10.1861 357.503 11.7648 357.503C13.6888 357.503 15.1811 357.096 16.2418 356.282C17.3271 355.443 17.8698 354.321 17.8698 352.915C17.8698 351.558 17.3518 350.473 16.3158 349.659C15.3045 348.82 13.6888 348.401 11.4688 348.401H9.3968V345.811L17.0928 336.339L17.6108 337.819H3.4398V334.6H20.5338V337.116L12.8748 346.551L10.9508 345.404H12.1718C15.3045 345.404 17.6478 346.107 19.2018 347.513C20.7805 348.919 21.5698 350.707 21.5698 352.878C21.5698 354.333 21.2121 355.665 20.4968 356.874C19.7815 358.083 18.6961 359.045 17.2408 359.76C15.8101 360.451 13.9848 360.796 11.7648 360.796ZM35.6026 360.796C33.58 360.796 31.767 360.278 30.1636 359.242C28.585 358.206 27.327 356.701 26.3896 354.728C25.477 352.755 25.0206 350.362 25.0206 347.55C25.0206 344.738 25.477 342.345 26.3896 340.372C27.327 338.399 28.585 336.894 30.1636 335.858C31.767 334.822 33.58 334.304 35.6026 334.304C37.6006 334.304 39.4013 334.822 41.0046 335.858C42.608 336.894 43.866 338.399 44.7786 340.372C45.6913 342.345 46.1476 344.738 46.1476 347.55C46.1476 350.362 45.6913 352.755 44.7786 354.728C43.866 356.701 42.608 358.206 41.0046 359.242C39.4013 360.278 37.6006 360.796 35.6026 360.796ZM35.6026 357.503C36.9593 357.503 38.1433 357.133 39.1546 356.393C40.1906 355.653 40.9923 354.543 41.5596 353.063C42.1516 351.583 42.4476 349.745 42.4476 347.55C42.4476 345.355 42.1516 343.517 41.5596 342.037C40.9923 340.557 40.1906 339.447 39.1546 338.707C38.1433 337.967 36.9593 337.597 35.6026 337.597C34.246 337.597 33.0496 337.967 32.0136 338.707C30.9776 339.447 30.1636 340.557 29.5716 342.037C29.0043 343.517 28.7206 345.355 28.7206 347.55C28.7206 349.745 29.0043 351.583 29.5716 353.063C30.1636 354.543 30.9776 355.653 32.0136 356.393C33.0496 357.133 34.246 357.503 35.6026 357.503Z" fill="#292C33" fill-opacity="0.8"/>
<path d="M89.1042 128.796C87.2788 128.796 85.5028 128.512 83.7762 127.945C82.0742 127.378 80.6805 126.613 79.5952 125.651L81.2972 122.728C82.1605 123.542 83.2828 124.208 84.6642 124.726C86.0455 125.244 87.5255 125.503 89.1042 125.503C91.0282 125.503 92.5205 125.096 93.5812 124.282C94.6665 123.443 95.2092 122.321 95.2092 120.915C95.2092 119.558 94.6912 118.473 93.6552 117.659C92.6438 116.82 91.0282 116.401 88.8082 116.401H86.7362V113.811L94.4322 104.339L94.9502 105.819H80.7792V102.6H97.8732V105.116L90.2142 114.551L88.2902 113.404H89.5112C92.6438 113.404 94.9872 114.107 96.5412 115.513C98.1198 116.919 98.9092 118.707 98.9092 120.878C98.9092 122.333 98.5515 123.665 97.8362 124.874C97.1208 126.083 96.0355 127.045 94.5802 127.76C93.1495 128.451 91.3242 128.796 89.1042 128.796Z" fill="#292C33" fill-opacity="0.8"/>
<path d="M76.9525 186.5V162.08L78.5435 163.819H71.1065V160.6H80.6155V186.5H76.9525ZM96.8629 186.796C94.8402 186.796 93.0272 186.278 91.4239 185.242C89.8452 184.206 88.5872 182.701 87.6499 180.728C86.7372 178.755 86.2809 176.362 86.2809 173.55C86.2809 170.738 86.7372 168.345 87.6499 166.372C88.5872 164.399 89.8452 162.894 91.4239 161.858C93.0272 160.822 94.8402 160.304 96.8629 160.304C98.8609 160.304 100.662 160.822 102.265 161.858C103.868 162.894 105.126 164.399 106.039 166.372C106.952 168.345 107.408 170.738 107.408 173.55C107.408 176.362 106.952 178.755 106.039 180.728C105.126 182.701 103.868 184.206 102.265 185.242C100.662 186.278 98.8609 186.796 96.8629 186.796ZM96.8629 183.503C98.2196 183.503 99.4036 183.133 100.415 182.393C101.451 181.653 102.253 180.543 102.82 179.063C103.412 177.583 103.708 175.745 103.708 173.55C103.708 171.355 103.412 169.517 102.82 168.037C102.253 166.557 101.451 165.447 100.415 164.707C99.4036 163.967 98.2196 163.597 96.8629 163.597C95.5062 163.597 94.3099 163.967 93.2739 164.707C92.2379 165.447 91.4239 166.557 90.8319 168.037C90.2645 169.517 89.9809 171.355 89.9809 173.55C89.9809 175.745 90.2645 177.583 90.8319 179.063C91.4239 180.543 92.2379 181.653 93.2739 182.393C94.3099 183.133 95.5062 183.503 96.8629 183.503Z" fill="#292C33" fill-opacity="0.8"/>
<path d="M78.2353 244.5V220.08L79.8263 221.819H72.3893V218.6H81.8983V244.5H78.2353ZM92.0406 244.5L103.03 220.154L103.992 221.819H88.5996L90.4496 220.006V226.444H86.8976V218.6H106.434V221.116L95.9626 244.5H92.0406Z" fill="#292C33" fill-opacity="0.8"/>
<path d="M68.7289 302.5V299.984L79.2739 289.809C80.2112 288.921 80.9019 288.144 81.3459 287.478C81.8145 286.787 82.1229 286.158 82.2709 285.591C82.4435 284.999 82.5299 284.432 82.5299 283.889C82.5299 282.557 82.0612 281.509 81.1239 280.744C80.1865 279.979 78.8175 279.597 77.0169 279.597C75.6355 279.597 74.3899 279.831 73.2799 280.3C72.1699 280.744 71.2079 281.447 70.3939 282.409L67.8779 280.226C68.8645 278.968 70.1842 278.006 71.8369 277.34C73.5142 276.649 75.3519 276.304 77.3499 276.304C79.1505 276.304 80.7169 276.6 82.0489 277.192C83.3809 277.759 84.4045 278.586 85.1199 279.671C85.8599 280.756 86.2299 282.039 86.2299 283.519C86.2299 284.358 86.1189 285.184 85.8969 285.998C85.6749 286.812 85.2555 287.675 84.6389 288.588C84.0222 289.501 83.1342 290.524 81.9749 291.659L72.5769 300.724L71.6889 299.281H87.3399V302.5H68.7289ZM89.2893 296.136V293.546L102.535 276.6H106.531L93.3963 293.546L91.5093 292.954H112.192V296.136H89.2893ZM103.682 302.5V296.136L103.793 292.954V287.33H107.271V302.5H103.682Z" fill="#292C33" fill-opacity="0.8"/>
<path d="M82.257 360.796C80.4317 360.796 78.6557 360.512 76.929 359.945C75.227 359.378 73.8333 358.613 72.748 357.651L74.45 354.728C75.3133 355.542 76.4357 356.208 77.817 356.726C79.1983 357.244 80.6783 357.503 82.257 357.503C84.181 357.503 85.6733 357.096 86.734 356.282C87.8193 355.443 88.362 354.321 88.362 352.915C88.362 351.558 87.844 350.473 86.808 349.659C85.7967 348.82 84.181 348.401 81.961 348.401H79.889V345.811L87.585 336.339L88.103 337.819H73.932V334.6H91.026V337.116L83.367 346.551L81.443 345.404H82.664C85.7967 345.404 88.14 346.107 89.694 347.513C91.2727 348.919 92.062 350.707 92.062 352.878C92.062 354.333 91.7043 355.665 90.989 356.874C90.2737 358.083 89.1883 359.045 87.733 359.76C86.3023 360.451 84.477 360.796 82.257 360.796ZM99.8788 360.5V336.08L101.47 337.819H94.0328V334.6H103.542V360.5H99.8788Z" fill="#292C33" fill-opacity="0.8"/>
<path d="M142.528 122.136V119.546L155.774 102.6H159.77L146.635 119.546L144.748 118.954H165.431V122.136H142.528ZM156.921 128.5V122.136L157.032 118.954V113.33H160.51V128.5H156.921Z" fill="#292C33" fill-opacity="0.8"/>
<path d="M145.945 186.5V162.08L147.536 163.819H140.099V160.6H149.608V186.5H145.945ZM159.639 186.5V162.08L161.23 163.819H153.793V160.6H163.302V186.5H159.639Z" fill="#292C33" fill-opacity="0.8"/>
<path d="M140.886 244.5V220.08L142.477 221.819H135.04V218.6H144.549V244.5H140.886ZM160.315 244.796C158.219 244.796 156.406 244.488 154.876 243.871C153.347 243.254 152.163 242.379 151.324 241.244C150.486 240.085 150.066 238.728 150.066 237.174C150.066 235.645 150.461 234.35 151.25 233.289C152.064 232.204 153.236 231.39 154.765 230.847C156.295 230.28 158.145 229.996 160.315 229.996C162.486 229.996 164.336 230.28 165.865 230.847C167.419 231.39 168.603 232.204 169.417 233.289C170.231 234.374 170.638 235.669 170.638 237.174C170.638 238.728 170.219 240.085 169.38 241.244C168.542 242.379 167.345 243.254 165.791 243.871C164.237 244.488 162.412 244.796 160.315 244.796ZM160.315 241.799C162.387 241.799 164.003 241.38 165.162 240.541C166.346 239.678 166.938 238.518 166.938 237.063C166.938 235.632 166.346 234.51 165.162 233.696C164.003 232.857 162.387 232.438 160.315 232.438C158.268 232.438 156.665 232.857 155.505 233.696C154.346 234.51 153.766 235.632 153.766 237.063C153.766 238.518 154.346 239.678 155.505 240.541C156.665 241.38 158.268 241.799 160.315 241.799ZM160.315 231.994C158.342 231.994 156.665 231.735 155.283 231.217C153.902 230.674 152.841 229.91 152.101 228.923C151.361 227.912 150.991 226.715 150.991 225.334C150.991 223.879 151.374 222.633 152.138 221.597C152.928 220.536 154.025 219.722 155.431 219.155C156.837 218.588 158.465 218.304 160.315 218.304C162.19 218.304 163.83 218.588 165.236 219.155C166.642 219.722 167.74 220.536 168.529 221.597C169.319 222.633 169.713 223.879 169.713 225.334C169.713 226.715 169.343 227.912 168.603 228.923C167.863 229.91 166.79 230.674 165.384 231.217C163.978 231.735 162.289 231.994 160.315 231.994ZM160.315 229.626C162.116 229.626 163.522 229.256 164.533 228.516C165.569 227.776 166.087 226.765 166.087 225.482C166.087 224.175 165.557 223.151 164.496 222.411C163.436 221.671 162.042 221.301 160.315 221.301C158.589 221.301 157.207 221.671 156.171 222.411C155.16 223.151 154.654 224.175 154.654 225.482C154.654 226.765 155.148 227.776 156.134 228.516C157.146 229.256 158.539 229.626 160.315 229.626Z" fill="#292C33" fill-opacity="0.8"/>
<path d="M133.62 302.5V299.984L144.165 289.809C145.102 288.921 145.793 288.144 146.237 287.478C146.706 286.787 147.014 286.158 147.162 285.591C147.335 284.999 147.421 284.432 147.421 283.889C147.421 282.557 146.952 281.509 146.015 280.744C145.078 279.979 143.709 279.597 141.908 279.597C140.527 279.597 139.281 279.831 138.171 280.3C137.061 280.744 136.099 281.447 135.285 282.409L132.769 280.226C133.756 278.968 135.075 278.006 136.728 277.34C138.405 276.649 140.243 276.304 142.241 276.304C144.042 276.304 145.608 276.6 146.94 277.192C148.272 277.759 149.296 278.586 150.011 279.671C150.751 280.756 151.121 282.039 151.121 283.519C151.121 284.358 151.01 285.184 150.788 285.998C150.566 286.812 150.147 287.675 149.53 288.588C148.913 289.501 148.025 290.524 146.866 291.659L137.468 300.724L136.58 299.281H152.231V302.5H133.62ZM163.635 302.796C161.81 302.796 160.034 302.512 158.307 301.945C156.605 301.378 155.211 300.613 154.126 299.651L155.828 296.728C156.691 297.542 157.814 298.208 159.195 298.726C160.576 299.244 162.044 299.503 163.598 299.503C165.571 299.503 167.088 299.084 168.149 298.245C169.21 297.406 169.74 296.284 169.74 294.878C169.74 293.916 169.506 293.077 169.037 292.362C168.568 291.647 167.754 291.104 166.595 290.734C165.46 290.339 163.894 290.142 161.896 290.142H156.013L157.382 276.6H171.997V279.819H158.751L160.675 278.006L159.602 288.699L157.678 286.923H162.673C165.263 286.923 167.347 287.256 168.926 287.922C170.505 288.588 171.652 289.513 172.367 290.697C173.082 291.856 173.44 293.201 173.44 294.73C173.44 296.21 173.082 297.567 172.367 298.8C171.652 300.009 170.566 300.983 169.111 301.723C167.68 302.438 165.855 302.796 163.635 302.796Z" fill="#292C33" fill-opacity="0.8"/>
<path d="M216.012 128.796C214.187 128.796 212.411 128.512 210.684 127.945C208.982 127.378 207.588 126.613 206.503 125.651L208.205 122.728C209.068 123.542 210.191 124.208 211.572 124.726C212.953 125.244 214.421 125.503 215.975 125.503C217.948 125.503 219.465 125.084 220.526 124.245C221.587 123.406 222.117 122.284 222.117 120.878C222.117 119.916 221.883 119.077 221.414 118.362C220.945 117.647 220.131 117.104 218.972 116.734C217.837 116.339 216.271 116.142 214.273 116.142H208.39L209.759 102.6H224.374V105.819H211.128L213.052 104.006L211.979 114.699L210.055 112.923H215.05C217.64 112.923 219.724 113.256 221.303 113.922C222.882 114.588 224.029 115.513 224.744 116.697C225.459 117.856 225.817 119.201 225.817 120.73C225.817 122.21 225.459 123.567 224.744 124.8C224.029 126.009 222.943 126.983 221.488 127.723C220.057 128.438 218.232 128.796 216.012 128.796Z" fill="#292C33" fill-opacity="0.8"/>
<path d="M205.169 186.5V162.08L206.76 163.819H199.323V160.6H208.832V186.5H205.169ZM214.09 186.5V183.984L224.635 173.809C225.573 172.921 226.263 172.144 226.707 171.478C227.176 170.787 227.484 170.158 227.632 169.591C227.805 168.999 227.891 168.432 227.891 167.889C227.891 166.557 227.423 165.509 226.485 164.744C225.548 163.979 224.179 163.597 222.378 163.597C220.997 163.597 219.751 163.831 218.641 164.3C217.531 164.744 216.569 165.447 215.755 166.409L213.239 164.226C214.226 162.968 215.546 162.006 217.198 161.34C218.876 160.649 220.713 160.304 222.711 160.304C224.512 160.304 226.078 160.6 227.41 161.192C228.742 161.759 229.766 162.586 230.481 163.671C231.221 164.756 231.591 166.039 231.591 167.519C231.591 168.358 231.48 169.184 231.258 169.998C231.036 170.812 230.617 171.675 230 172.588C229.384 173.501 228.496 174.524 227.336 175.659L217.938 184.724L217.05 183.281H232.701V186.5H214.09Z" fill="#292C33" fill-opacity="0.8"/>
<path d="M204.374 244.5V220.08L205.965 221.819H198.528V218.6H208.037V244.5H204.374ZM222.101 218.304C224.445 218.304 226.418 218.81 228.021 219.821C229.649 220.832 230.883 222.3 231.721 224.224C232.56 226.123 232.979 228.454 232.979 231.217C232.979 234.152 232.461 236.631 231.425 238.654C230.389 240.677 228.959 242.206 227.133 243.242C225.308 244.278 223.174 244.796 220.732 244.796C219.524 244.796 218.352 244.673 217.217 244.426C216.107 244.179 215.133 243.797 214.294 243.279L215.7 240.393C216.391 240.837 217.156 241.158 217.994 241.355C218.858 241.528 219.758 241.614 220.695 241.614C223.31 241.614 225.394 240.8 226.948 239.172C228.502 237.519 229.279 235.077 229.279 231.846C229.279 231.328 229.255 230.711 229.205 229.996C229.156 229.281 229.045 228.578 228.872 227.887L230.093 229.145C229.748 230.28 229.168 231.242 228.354 232.031C227.565 232.796 226.603 233.375 225.468 233.77C224.358 234.14 223.137 234.325 221.805 234.325C220.103 234.325 218.586 234.004 217.254 233.363C215.922 232.722 214.874 231.821 214.109 230.662C213.345 229.478 212.962 228.084 212.962 226.481C212.962 224.804 213.357 223.361 214.146 222.152C214.96 220.919 216.058 219.969 217.439 219.303C218.845 218.637 220.399 218.304 222.101 218.304ZM222.249 221.301C221.139 221.301 220.153 221.511 219.289 221.93C218.426 222.349 217.748 222.929 217.254 223.669C216.786 224.409 216.551 225.297 216.551 226.333C216.551 227.862 217.082 229.083 218.142 229.996C219.203 230.884 220.634 231.328 222.434 231.328C223.618 231.328 224.654 231.106 225.542 230.662C226.455 230.218 227.158 229.614 227.651 228.849C228.169 228.084 228.428 227.233 228.428 226.296C228.428 225.383 228.194 224.557 227.725 223.817C227.257 223.077 226.566 222.473 225.653 222.004C224.741 221.535 223.606 221.301 222.249 221.301Z" fill="#292C33" fill-opacity="0.8"/>
<path d="M195.843 302.5V299.984L206.388 289.809C207.325 288.921 208.016 288.144 208.46 287.478C208.929 286.787 209.237 286.158 209.385 285.591C209.558 284.999 209.644 284.432 209.644 283.889C209.644 282.557 209.175 281.509 208.238 280.744C207.301 279.979 205.932 279.597 204.131 279.597C202.75 279.597 201.504 279.831 200.394 280.3C199.284 280.744 198.322 281.447 197.508 282.409L194.992 280.226C195.979 278.968 197.298 278.006 198.951 277.34C200.628 276.649 202.466 276.304 204.464 276.304C206.265 276.304 207.831 276.6 209.163 277.192C210.495 277.759 211.519 278.586 212.234 279.671C212.974 280.756 213.344 282.039 213.344 283.519C213.344 284.358 213.233 285.184 213.011 285.998C212.789 286.812 212.37 287.675 211.753 288.588C211.136 289.501 210.248 290.524 209.089 291.659L199.691 300.724L198.803 299.281H214.454V302.5H195.843ZM228.338 302.796C226.044 302.796 224.083 302.29 222.455 301.279C220.827 300.268 219.581 298.812 218.718 296.913C217.879 294.989 217.46 292.646 217.46 289.883C217.46 286.948 217.978 284.469 219.014 282.446C220.05 280.423 221.493 278.894 223.343 277.858C225.193 276.822 227.314 276.304 229.707 276.304C230.94 276.304 232.112 276.427 233.222 276.674C234.357 276.921 235.331 277.303 236.145 277.821L234.739 280.707C234.073 280.238 233.308 279.918 232.445 279.745C231.606 279.572 230.718 279.486 229.781 279.486C227.142 279.486 225.045 280.312 223.491 281.965C221.937 283.593 221.16 286.023 221.16 289.254C221.16 289.772 221.185 290.389 221.234 291.104C221.283 291.819 221.407 292.522 221.604 293.213L220.346 291.955C220.716 290.82 221.296 289.871 222.085 289.106C222.899 288.317 223.861 287.737 224.971 287.367C226.106 286.972 227.327 286.775 228.634 286.775C230.361 286.775 231.89 287.096 233.222 287.737C234.554 288.378 235.602 289.291 236.367 290.475C237.132 291.634 237.514 293.016 237.514 294.619C237.514 296.272 237.107 297.715 236.293 298.948C235.479 300.181 234.381 301.131 233 301.797C231.619 302.463 230.065 302.796 228.338 302.796ZM228.19 299.799C229.325 299.799 230.311 299.589 231.15 299.17C232.013 298.751 232.692 298.171 233.185 297.431C233.678 296.666 233.925 295.778 233.925 294.767C233.925 293.238 233.395 292.029 232.334 291.141C231.273 290.228 229.83 289.772 228.005 289.772C226.821 289.772 225.785 289.994 224.897 290.438C224.009 290.882 223.306 291.486 222.788 292.251C222.295 292.991 222.048 293.842 222.048 294.804C222.048 295.692 222.282 296.518 222.751 297.283C223.22 298.023 223.91 298.627 224.823 299.096C225.736 299.565 226.858 299.799 228.19 299.799Z" fill="#292C33" fill-opacity="0.8"/>
<path d="M282.233 128.796C279.939 128.796 277.978 128.29 276.35 127.279C274.722 126.268 273.476 124.812 272.613 122.913C271.774 120.989 271.355 118.646 271.355 115.883C271.355 112.948 271.873 110.469 272.909 108.446C273.945 106.423 275.388 104.894 277.238 103.858C279.088 102.822 281.209 102.304 283.602 102.304C284.835 102.304 286.007 102.427 287.117 102.674C288.252 102.921 289.226 103.303 290.04 103.821L288.634 106.707C287.968 106.238 287.203 105.918 286.34 105.745C285.501 105.572 284.613 105.486 283.676 105.486C281.037 105.486 278.94 106.312 277.386 107.965C275.832 109.593 275.055 112.023 275.055 115.254C275.055 115.772 275.08 116.389 275.129 117.104C275.178 117.819 275.302 118.522 275.499 119.213L274.241 117.955C274.611 116.82 275.191 115.871 275.98 115.106C276.794 114.317 277.756 113.737 278.866 113.367C280.001 112.972 281.222 112.775 282.529 112.775C284.256 112.775 285.785 113.096 287.117 113.737C288.449 114.378 289.497 115.291 290.262 116.475C291.027 117.634 291.409 119.016 291.409 120.619C291.409 122.272 291.002 123.715 290.188 124.948C289.374 126.181 288.276 127.131 286.895 127.797C285.514 128.463 283.96 128.796 282.233 128.796ZM282.085 125.799C283.22 125.799 284.206 125.589 285.045 125.17C285.908 124.751 286.587 124.171 287.08 123.431C287.573 122.666 287.82 121.778 287.82 120.767C287.82 119.238 287.29 118.029 286.229 117.141C285.168 116.228 283.725 115.772 281.9 115.772C280.716 115.772 279.68 115.994 278.792 116.438C277.904 116.882 277.201 117.486 276.683 118.251C276.19 118.991 275.943 119.842 275.943 120.804C275.943 121.692 276.177 122.518 276.646 123.283C277.115 124.023 277.805 124.627 278.718 125.096C279.631 125.565 280.753 125.799 282.085 125.799Z" fill="#292C33" fill-opacity="0.8"/>
<path d="M269.705 186.5V162.08L271.296 163.819H263.859V160.6H273.368V186.5H269.705ZM286.951 186.796C285.126 186.796 283.35 186.512 281.623 185.945C279.921 185.378 278.528 184.613 277.442 183.651L279.144 180.728C280.008 181.542 281.13 182.208 282.511 182.726C283.893 183.244 285.373 183.503 286.951 183.503C288.875 183.503 290.368 183.096 291.428 182.282C292.514 181.443 293.056 180.321 293.056 178.915C293.056 177.558 292.538 176.473 291.502 175.659C290.491 174.82 288.875 174.401 286.655 174.401H284.583V171.811L292.279 162.339L292.797 163.819H278.626V160.6H295.72V163.116L288.061 172.551L286.137 171.404H287.358C290.491 171.404 292.834 172.107 294.388 173.513C295.967 174.919 296.756 176.707 296.756 178.878C296.756 180.333 296.399 181.665 295.683 182.874C294.968 184.083 293.883 185.045 292.427 185.76C290.997 186.451 289.171 186.796 286.951 186.796Z" fill="#292C33" fill-opacity="0.8"/>
<path d="M259.422 244.5V241.984L269.967 231.809C270.904 230.921 271.595 230.144 272.039 229.478C272.507 228.787 272.816 228.158 272.964 227.591C273.136 226.999 273.223 226.432 273.223 225.889C273.223 224.557 272.754 223.509 271.817 222.744C270.879 221.979 269.51 221.597 267.71 221.597C266.328 221.597 265.083 221.831 263.973 222.3C262.863 222.744 261.901 223.447 261.087 224.409L258.571 222.226C259.557 220.968 260.877 220.006 262.53 219.34C264.207 218.649 266.045 218.304 268.043 218.304C269.843 218.304 271.41 218.6 272.742 219.192C274.074 219.759 275.097 220.586 275.813 221.671C276.553 222.756 276.923 224.039 276.923 225.519C276.923 226.358 276.812 227.184 276.59 227.998C276.368 228.812 275.948 229.675 275.332 230.588C274.715 231.501 273.827 232.524 272.668 233.659L263.27 242.724L262.382 241.281H278.033V244.5H259.422ZM291.621 244.796C289.598 244.796 287.785 244.278 286.182 243.242C284.603 242.206 283.345 240.701 282.408 238.728C281.495 236.755 281.039 234.362 281.039 231.55C281.039 228.738 281.495 226.345 282.408 224.372C283.345 222.399 284.603 220.894 286.182 219.858C287.785 218.822 289.598 218.304 291.621 218.304C293.619 218.304 295.419 218.822 297.023 219.858C298.626 220.894 299.884 222.399 300.797 224.372C301.709 226.345 302.166 228.738 302.166 231.55C302.166 234.362 301.709 236.755 300.797 238.728C299.884 240.701 298.626 242.206 297.023 243.242C295.419 244.278 293.619 244.796 291.621 244.796ZM291.621 241.503C292.977 241.503 294.161 241.133 295.173 240.393C296.209 239.653 297.01 238.543 297.578 237.063C298.17 235.583 298.466 233.745 298.466 231.55C298.466 229.355 298.17 227.517 297.578 226.037C297.01 224.557 296.209 223.447 295.173 222.707C294.161 221.967 292.977 221.597 291.621 221.597C290.264 221.597 289.068 221.967 288.032 222.707C286.996 223.447 286.182 224.557 285.59 226.037C285.022 227.517 284.739 229.355 284.739 231.55C284.739 233.745 285.022 235.583 285.59 237.063C286.182 238.543 286.996 239.653 288.032 240.393C289.068 241.133 290.264 241.503 291.621 241.503Z" fill="#292C33" fill-opacity="0.8"/>
<path d="M260.704 302.5V299.984L271.249 289.809C272.187 288.921 272.877 288.144 273.321 287.478C273.79 286.787 274.098 286.158 274.246 285.591C274.419 284.999 274.505 284.432 274.505 283.889C274.505 282.557 274.037 281.509 273.099 280.744C272.162 279.979 270.793 279.597 268.992 279.597C267.611 279.597 266.365 279.831 265.255 280.3C264.145 280.744 263.183 281.447 262.369 282.409L259.853 280.226C260.84 278.968 262.16 278.006 263.812 277.34C265.49 276.649 267.327 276.304 269.325 276.304C271.126 276.304 272.692 276.6 274.024 277.192C275.356 277.759 276.38 278.586 277.095 279.671C277.835 280.756 278.205 282.039 278.205 283.519C278.205 284.358 278.094 285.184 277.872 285.998C277.65 286.812 277.231 287.675 276.614 288.588C275.998 289.501 275.11 290.524 273.95 291.659L264.552 300.724L263.664 299.281H279.315V302.5H260.704ZM286.798 302.5L297.787 278.154L298.749 279.819H283.357L285.207 278.006V284.444H281.655V276.6H301.191V279.116L290.72 302.5H286.798Z" fill="#292C33" fill-opacity="0.8"/>
<path d="M332.916 186.5V162.08L334.507 163.819H327.07V160.6H336.579V186.5H332.916ZM341.875 180.136V177.546L355.121 160.6H359.117L345.982 177.546L344.095 176.954H364.778V180.136H341.875ZM356.268 186.5V180.136L356.379 176.954V171.33H359.857V186.5H356.268Z" fill="#292C33" fill-opacity="0.8"/>
<path d="M329.896 244.5V241.984L340.441 231.809C341.378 230.921 342.069 230.144 342.513 229.478C342.982 228.787 343.29 228.158 343.438 227.591C343.611 226.999 343.697 226.432 343.697 225.889C343.697 224.557 343.228 223.509 342.291 222.744C341.354 221.979 339.985 221.597 338.184 221.597C336.803 221.597 335.557 221.831 334.447 222.3C333.337 222.744 332.375 223.447 331.561 224.409L329.045 222.226C330.032 220.968 331.351 220.006 333.004 219.34C334.681 218.649 336.519 218.304 338.517 218.304C340.318 218.304 341.884 218.6 343.216 219.192C344.548 219.759 345.572 220.586 346.287 221.671C347.027 222.756 347.397 224.039 347.397 225.519C347.397 226.358 347.286 227.184 347.064 227.998C346.842 228.812 346.423 229.675 345.806 230.588C345.189 231.501 344.301 232.524 343.142 233.659L333.744 242.724L332.856 241.281H348.507V244.5H329.896ZM355.915 244.5V220.08L357.506 221.819H350.069V218.6H359.578V244.5H355.915Z" fill="#292C33" fill-opacity="0.8"/>
<path d="M324.837 302.5V299.984L335.382 289.809C336.32 288.921 337.01 288.144 337.454 287.478C337.923 286.787 338.231 286.158 338.379 285.591C338.552 284.999 338.638 284.432 338.638 283.889C338.638 282.557 338.17 281.509 337.232 280.744C336.295 279.979 334.926 279.597 333.125 279.597C331.744 279.597 330.498 279.831 329.388 280.3C328.278 280.744 327.316 281.447 326.502 282.409L323.986 280.226C324.973 278.968 326.293 278.006 327.945 277.34C329.623 276.649 331.46 276.304 333.458 276.304C335.259 276.304 336.825 276.6 338.157 277.192C339.489 277.759 340.513 278.586 341.228 279.671C341.968 280.756 342.338 282.039 342.338 283.519C342.338 284.358 342.227 285.184 342.005 285.998C341.783 286.812 341.364 287.675 340.747 288.588C340.131 289.501 339.243 290.524 338.083 291.659L328.685 300.724L327.797 299.281H343.448V302.5H324.837ZM356.591 302.796C354.495 302.796 352.682 302.488 351.152 301.871C349.623 301.254 348.439 300.379 347.6 299.244C346.762 298.085 346.342 296.728 346.342 295.174C346.342 293.645 346.737 292.35 347.526 291.289C348.34 290.204 349.512 289.39 351.041 288.847C352.571 288.28 354.421 287.996 356.591 287.996C358.762 287.996 360.612 288.28 362.141 288.847C363.695 289.39 364.879 290.204 365.693 291.289C366.507 292.374 366.914 293.669 366.914 295.174C366.914 296.728 366.495 298.085 365.656 299.244C364.818 300.379 363.621 301.254 362.067 301.871C360.513 302.488 358.688 302.796 356.591 302.796ZM356.591 299.799C358.663 299.799 360.279 299.38 361.438 298.541C362.622 297.678 363.214 296.518 363.214 295.063C363.214 293.632 362.622 292.51 361.438 291.696C360.279 290.857 358.663 290.438 356.591 290.438C354.544 290.438 352.941 290.857 351.781 291.696C350.622 292.51 350.042 293.632 350.042 295.063C350.042 296.518 350.622 297.678 351.781 298.541C352.941 299.38 354.544 299.799 356.591 299.799ZM356.591 289.994C354.618 289.994 352.941 289.735 351.559 289.217C350.178 288.674 349.117 287.91 348.377 286.923C347.637 285.912 347.267 284.715 347.267 283.334C347.267 281.879 347.65 280.633 348.414 279.597C349.204 278.536 350.301 277.722 351.707 277.155C353.113 276.588 354.741 276.304 356.591 276.304C358.466 276.304 360.106 276.588 361.512 277.155C362.918 277.722 364.016 278.536 364.805 279.597C365.595 280.633 365.989 281.879 365.989 283.334C365.989 284.715 365.619 285.912 364.879 286.923C364.139 287.91 363.066 288.674 361.66 289.217C360.254 289.735 358.565 289.994 356.591 289.994ZM356.591 287.626C358.392 287.626 359.798 287.256 360.809 286.516C361.845 285.776 362.363 284.765 362.363 283.482C362.363 282.175 361.833 281.151 360.772 280.411C359.712 279.671 358.318 279.301 356.591 279.301C354.865 279.301 353.483 279.671 352.447 280.411C351.436 281.151 350.93 282.175 350.93 283.482C350.93 284.765 351.424 285.776 352.41 286.516C353.422 287.256 354.815 287.626 356.591 287.626Z" fill="#292C33" fill-opacity="0.8"/>
<path d="M341.193 128.5L352.182 104.154L353.144 105.819H337.752L339.602 104.006V110.444H336.05V102.6H355.586V105.116L345.115 128.5H341.193Z" fill="#292C33" fill-opacity="0.8"/>
</g>
<defs>
<clipPath id="clip0_557_3377">
<rect width="431" height="362" fill="white"/>
</clipPath>
</defs>
</svg>
