<svg width="431" height="314" viewBox="0 0 431 314" fill="none" xmlns="http://www.w3.org/2000/svg">
<g clip-path="url(#clip0_557_3605)">
<path d="M22.9564 20.7264H20.3476V3.36139H10.8906V20.7264H8.2002V1.32324H22.8749V20.7264H22.9564Z" fill="#B3B3B3"/>
<path d="M38.7725 20.7264H36.1636V14.6119H29.7231V20.7264H27.1143V6.29626H29.7231V12.5738H36.1636V6.29626H38.7725V20.7264Z" fill="#B3B3B3"/>
<path d="M73 20.7264V1.32324H79.359C81.3972 1.32324 82.9462 1.73087 84.0875 2.62766C85.2289 3.52444 85.7996 4.82886 85.7996 6.5409C85.7996 7.35616 85.555 8.08989 85.0658 8.82363C84.5767 9.55736 83.8429 9.96499 83.0277 10.2911C84.3321 10.4541 85.3104 11.0248 86.0441 11.9216C86.7779 12.8184 87.1855 13.9598 87.1855 15.1826C87.1855 16.9762 86.6148 18.2806 85.4735 19.2589C84.3321 20.2373 82.7831 20.6449 80.745 20.6449H73V20.7264ZM75.6904 9.55736H79.9297C80.908 9.55736 81.7233 9.31278 82.294 8.7421C82.9462 8.17142 83.1907 7.43769 83.1907 6.45937C83.1907 5.39954 82.8646 4.6658 82.2124 4.09512C81.5602 3.60597 80.5819 3.27986 79.359 3.27986H75.6904V9.55736ZM75.6904 11.5955V18.6067H80.745C81.9678 18.6067 82.8646 18.2806 83.5168 17.71C84.1691 17.1393 84.4952 16.2425 84.4952 15.1826C84.4952 14.1228 84.1691 13.226 83.5168 12.5738C82.8646 11.9216 81.9678 11.5955 80.745 11.514H80.5819H75.6904V11.5955Z" fill="#B3B3B3"/>
<path d="M101.126 8.33441H96.3976V20.7264H93.7888V8.33441H89.0603V6.29626H101.126V8.33441Z" fill="#B3B3B3"/>
<path d="M150.512 14.5304C150.593 16.4055 149.941 17.9545 148.637 19.1773C147.332 20.4002 145.62 21.0524 143.419 21.0524C141.218 21.0524 139.424 20.2372 138.038 18.6882C136.652 17.1392 136 15.1826 136 12.7368V9.31271C136 6.94846 136.652 4.91031 138.038 3.36132C139.424 1.81233 141.218 0.99707 143.419 0.99707C145.62 0.99707 147.332 1.56775 148.637 2.70911C149.941 3.85048 150.593 5.39947 150.512 7.35609V7.43762H147.984C147.984 6.05168 147.577 4.99184 146.761 4.17658C145.946 3.36132 144.805 2.95369 143.337 2.95369C141.87 2.95369 140.729 3.52437 139.832 4.74726C138.935 5.88862 138.527 7.35609 138.527 9.14966V12.6553C138.527 14.4488 138.935 15.9163 139.832 17.0577C140.729 18.199 141.87 18.8512 143.337 18.8512C144.805 18.8512 145.946 18.4436 146.761 17.7099C147.577 16.8946 147.984 15.8348 147.984 14.4488H150.512V14.5304Z" fill="#B3B3B3"/>
<path d="M165.92 14.0413C165.92 16.161 165.431 17.7915 164.453 19.0959C163.474 20.4003 162.088 20.971 160.295 20.971C159.398 20.971 158.664 20.8079 157.93 20.5634C157.278 20.2373 156.708 19.8296 156.218 19.259V26.2702H153.61V6.29634H155.648L156.055 8.17143C156.545 7.4377 157.115 6.94854 157.849 6.62244C158.583 6.29634 159.398 6.05176 160.295 6.05176C162.088 6.05176 163.474 6.78549 164.453 8.17143C165.431 9.55737 165.92 11.4325 165.92 13.7967V14.0413ZM163.311 13.7967C163.311 12.1662 162.985 10.7803 162.333 9.80195C161.681 8.82364 160.702 8.25296 159.479 8.25296C158.746 8.25296 158.094 8.41601 157.523 8.74211C156.952 9.06822 156.545 9.55737 156.218 10.1281V17.1393C156.545 17.71 156.952 18.1991 157.523 18.5252C158.094 18.8513 158.746 19.0144 159.479 19.0144C160.702 19.0144 161.681 18.5252 162.333 17.6284C162.985 16.7317 163.311 15.5088 163.311 14.1228V13.7967Z" fill="#B3B3B3"/>
<path d="M215.43 1.32324V20.7264H212.821V12.6553C212.006 12.8999 211.191 13.063 210.375 13.226C209.56 13.3076 208.663 13.3891 207.522 13.3891C205.402 13.3891 203.772 12.8999 202.631 12.0031C201.489 11.1064 201 9.55736 201 7.43769V1.32324H203.609V7.43769C203.609 8.90515 203.935 9.88346 204.506 10.4541C205.158 11.0248 206.136 11.2694 207.441 11.2694C208.337 11.2694 209.234 11.1879 210.131 11.1064C210.946 10.9433 211.843 10.7802 212.74 10.5357V1.32324H215.43Z" fill="#B3B3B3"/>
<path d="M230.675 8.33441H225.947V20.7264H223.338V8.33441H218.61V6.29626H230.675V8.33441Z" fill="#B3B3B3"/>
<path d="M279.675 20.7264H277.066V3.36139H267.609V20.7264H265V1.32324H279.675V20.7264Z" fill="#B3B3B3"/>
<path d="M294.92 8.33453H290.192V20.7265H287.583V8.33453H282.854V6.29639H294.92V8.33453Z" fill="#B3B3B3"/>
<path d="M344.512 14.5302C344.593 16.4053 343.941 17.9543 342.637 19.1772C341.332 20.4001 339.62 21.0523 337.419 21.0523C335.218 21.0523 333.424 20.2371 332.038 18.6881C330.652 17.1391 330 15.1825 330 12.7367V9.31259C330 6.94834 330.652 4.91019 332.038 3.3612C333.424 1.81221 335.218 0.996948 337.419 0.996948C339.62 0.996948 341.332 1.56763 342.637 2.70899C343.941 3.85035 344.593 5.39935 344.512 7.35597V7.43749H341.984C341.984 6.05155 341.577 4.99172 340.761 4.17646C339.946 3.3612 338.805 2.95357 337.337 2.95357C335.87 2.95357 334.729 3.52425 333.832 4.74714C332.935 5.8885 332.527 7.35597 332.527 9.14954V12.6552C332.527 14.4487 332.935 15.9162 333.832 17.0575C334.729 18.1989 335.87 18.8511 337.337 18.8511C338.805 18.8511 339.946 18.4435 340.761 17.7098C341.577 16.8945 341.984 15.8347 341.984 14.4487H344.512V14.5302Z" fill="#B3B3B3"/>
<path d="M353.887 6.05149C355.762 6.05149 357.148 6.7037 358.208 8.08964C359.268 9.47558 359.838 11.1876 359.838 13.3888V13.7149C359.838 15.8346 359.268 17.6282 358.126 19.0141C356.985 20.4 355.436 21.0523 353.398 21.0523C351.36 21.0523 349.811 20.4 348.669 19.0141C347.528 17.6282 346.957 15.9161 346.957 13.7149V13.3888C346.957 13.3073 346.957 13.2258 346.957 13.2258C346.957 13.1442 346.957 13.1442 346.957 13.0627V9.96473C346.957 7.19285 347.528 5.23623 348.588 3.93182C349.648 2.6274 351.278 1.97519 353.398 1.81214C354.621 1.73062 355.599 1.56756 356.251 1.32299C356.903 1.07841 357.23 0.670779 357.23 0.100098H359.268V0.181624C359.349 1.56756 358.86 2.54587 357.882 3.11656C356.903 3.68724 355.517 4.01334 353.642 4.01334C352.256 4.01334 351.197 4.42097 350.381 5.1547C349.566 5.88844 349.158 6.94827 349.158 8.33421V8.41574C349.648 7.76353 350.381 7.19285 351.197 6.78522C352.012 6.37759 352.99 6.05149 353.887 6.05149ZM353.398 8.08964C352.175 8.08964 351.197 8.57879 350.544 9.5571C349.892 10.5354 349.566 11.8398 349.566 13.3073V13.6334C349.566 15.1824 349.892 16.4053 350.544 17.3836C351.197 18.3619 352.175 18.8511 353.398 18.8511C354.621 18.8511 355.599 18.3619 356.251 17.3836C356.903 16.4053 357.23 15.1009 357.23 13.6334V13.3073C357.23 11.7583 356.903 10.5354 356.251 9.5571C355.599 8.57879 354.621 8.08964 353.398 8.08964Z" fill="#B3B3B3"/>
<path d="M394 20.7264V1.32324H400.359C402.397 1.32324 403.946 1.73087 405.088 2.62766C406.229 3.52444 406.8 4.82886 406.8 6.5409C406.8 7.35616 406.555 8.08989 406.066 8.82363C405.577 9.55736 404.843 9.96499 404.028 10.3726C405.332 10.5357 406.31 11.1064 407.044 12.0031C407.778 12.8999 408.186 14.0413 408.186 15.2642C408.186 17.0577 407.615 18.3622 406.473 19.3405C405.332 20.3188 403.783 20.7264 401.745 20.7264H394ZM396.69 9.55736H400.93C401.908 9.55736 402.723 9.31278 403.294 8.7421C403.946 8.17142 404.191 7.43769 404.191 6.45937C404.191 5.39954 403.865 4.6658 403.212 4.09512C402.56 3.60597 401.582 3.27986 400.359 3.27986H396.69V9.55736ZM396.69 11.5955V18.6067H401.745C402.968 18.6067 403.865 18.2806 404.517 17.71C405.169 17.1393 405.495 16.2425 405.495 15.1826C405.495 14.1228 405.169 13.226 404.517 12.5738C403.865 11.9216 402.968 11.5955 401.745 11.514H401.582H396.69V11.5955Z" fill="#B3B3B3"/>
<path d="M416.745 18.9325C417.561 18.9325 418.294 18.6879 418.865 18.1172C419.436 17.5466 419.762 16.8944 419.762 16.1606H422.126V16.2421C422.126 17.465 421.637 18.6064 420.496 19.5847C419.354 20.563 418.131 21.0522 416.664 21.0522C414.626 21.0522 413.077 20.4 411.935 19.014C410.794 17.6281 410.305 15.916 410.305 13.8779V13.3072C410.305 11.2691 410.876 9.55702 411.935 8.17108C413.077 6.78514 414.626 6.13293 416.582 6.13293C418.213 6.13293 419.517 6.62209 420.496 7.6004C421.474 8.57871 422.045 9.8016 421.963 11.2691V11.3506H419.599C419.599 10.4538 419.273 9.72007 418.702 9.06787C418.131 8.41566 417.398 8.17108 416.501 8.17108C415.196 8.17108 414.3 8.66024 413.647 9.63855C413.077 10.6169 412.751 11.8397 412.751 13.3072V13.8779C412.751 15.3454 413.077 16.5683 413.647 17.5466C414.544 18.4433 415.441 18.9325 416.745 18.9325Z" fill="#B3B3B3"/>
<path d="M22.9564 20.7264H20.3476V3.36139H10.8906V20.7264H8.2002V1.32324H22.8749V20.7264H22.9564Z" fill="#B3B3B3"/>
<path d="M38.7725 20.7264H36.1636V14.6119H29.7231V20.7264H27.1143V6.29626H29.7231V12.5738H36.1636V6.29626H38.7725V20.7264Z" fill="#B3B3B3"/>
<path d="M73 20.7264V1.32324H79.359C81.3972 1.32324 82.9462 1.73087 84.0875 2.62766C85.2289 3.52444 85.7996 4.82886 85.7996 6.5409C85.7996 7.35616 85.555 8.08989 85.0658 8.82363C84.5767 9.55736 83.8429 9.96499 83.0277 10.2911C84.3321 10.4541 85.3104 11.0248 86.0441 11.9216C86.7779 12.8184 87.1855 13.9598 87.1855 15.1826C87.1855 16.9762 86.6148 18.2806 85.4735 19.2589C84.3321 20.2373 82.7831 20.6449 80.745 20.6449H73V20.7264ZM75.6904 9.55736H79.9297C80.908 9.55736 81.7233 9.31278 82.294 8.7421C82.9462 8.17142 83.1907 7.43769 83.1907 6.45937C83.1907 5.39954 82.8646 4.6658 82.2124 4.09512C81.5602 3.60597 80.5819 3.27986 79.359 3.27986H75.6904V9.55736ZM75.6904 11.5955V18.6067H80.745C81.9678 18.6067 82.8646 18.2806 83.5168 17.71C84.1691 17.1393 84.4952 16.2425 84.4952 15.1826C84.4952 14.1228 84.1691 13.226 83.5168 12.5738C82.8646 11.9216 81.9678 11.5955 80.745 11.514H80.5819H75.6904V11.5955Z" fill="#B3B3B3"/>
<path d="M101.126 8.33441H96.3976V20.7264H93.7888V8.33441H89.0603V6.29626H101.126V8.33441Z" fill="#B3B3B3"/>
<path d="M150.512 14.5304C150.593 16.4055 149.941 17.9545 148.637 19.1773C147.332 20.4002 145.62 21.0524 143.419 21.0524C141.218 21.0524 139.424 20.2372 138.038 18.6882C136.652 17.1392 136 15.1826 136 12.7368V9.31271C136 6.94846 136.652 4.91031 138.038 3.36132C139.424 1.81233 141.218 0.99707 143.419 0.99707C145.62 0.99707 147.332 1.56775 148.637 2.70911C149.941 3.85048 150.593 5.39947 150.512 7.35609V7.43762H147.984C147.984 6.05168 147.577 4.99184 146.761 4.17658C145.946 3.36132 144.805 2.95369 143.337 2.95369C141.87 2.95369 140.729 3.52437 139.832 4.74726C138.935 5.88862 138.527 7.35609 138.527 9.14966V12.6553C138.527 14.4488 138.935 15.9163 139.832 17.0577C140.729 18.199 141.87 18.8512 143.337 18.8512C144.805 18.8512 145.946 18.4436 146.761 17.7099C147.577 16.8946 147.984 15.8348 147.984 14.4488H150.512V14.5304Z" fill="#B3B3B3"/>
<path d="M165.92 14.0413C165.92 16.161 165.431 17.7915 164.453 19.0959C163.474 20.4003 162.088 20.971 160.295 20.971C159.398 20.971 158.664 20.8079 157.93 20.5634C157.278 20.2373 156.708 19.8296 156.218 19.259V26.2702H153.61V6.29634H155.648L156.055 8.17143C156.545 7.4377 157.115 6.94854 157.849 6.62244C158.583 6.29634 159.398 6.05176 160.295 6.05176C162.088 6.05176 163.474 6.78549 164.453 8.17143C165.431 9.55737 165.92 11.4325 165.92 13.7967V14.0413ZM163.311 13.7967C163.311 12.1662 162.985 10.7803 162.333 9.80195C161.681 8.82364 160.702 8.25296 159.479 8.25296C158.746 8.25296 158.094 8.41601 157.523 8.74211C156.952 9.06822 156.545 9.55737 156.218 10.1281V17.1393C156.545 17.71 156.952 18.1991 157.523 18.5252C158.094 18.8513 158.746 19.0144 159.479 19.0144C160.702 19.0144 161.681 18.5252 162.333 17.6284C162.985 16.7317 163.311 15.5088 163.311 14.1228V13.7967Z" fill="#B3B3B3"/>
<path d="M215.43 1.32324V20.7264H212.821V12.6553C212.006 12.8999 211.191 13.063 210.375 13.226C209.56 13.3076 208.663 13.3891 207.522 13.3891C205.402 13.3891 203.772 12.8999 202.631 12.0031C201.489 11.1064 201 9.55736 201 7.43769V1.32324H203.609V7.43769C203.609 8.90515 203.935 9.88346 204.506 10.4541C205.158 11.0248 206.136 11.2694 207.441 11.2694C208.337 11.2694 209.234 11.1879 210.131 11.1064C210.946 10.9433 211.843 10.7802 212.74 10.5357V1.32324H215.43Z" fill="#B3B3B3"/>
<path d="M230.675 8.33441H225.947V20.7264H223.338V8.33441H218.61V6.29626H230.675V8.33441Z" fill="#B3B3B3"/>
<path d="M279.675 20.7264H277.066V3.36139H267.609V20.7264H265V1.32324H279.675V20.7264Z" fill="#B3B3B3"/>
<path d="M294.92 8.33453H290.192V20.7265H287.583V8.33453H282.854V6.29639H294.92V8.33453Z" fill="#B3B3B3"/>
<path d="M344.512 14.5302C344.593 16.4053 343.941 17.9543 342.637 19.1772C341.332 20.4001 339.62 21.0523 337.419 21.0523C335.218 21.0523 333.424 20.2371 332.038 18.6881C330.652 17.1391 330 15.1825 330 12.7367V9.31259C330 6.94834 330.652 4.91019 332.038 3.3612C333.424 1.81221 335.218 0.996948 337.419 0.996948C339.62 0.996948 341.332 1.56763 342.637 2.70899C343.941 3.85035 344.593 5.39935 344.512 7.35597V7.43749H341.984C341.984 6.05155 341.577 4.99172 340.761 4.17646C339.946 3.3612 338.805 2.95357 337.337 2.95357C335.87 2.95357 334.729 3.52425 333.832 4.74714C332.935 5.8885 332.527 7.35597 332.527 9.14954V12.6552C332.527 14.4487 332.935 15.9162 333.832 17.0575C334.729 18.1989 335.87 18.8511 337.337 18.8511C338.805 18.8511 339.946 18.4435 340.761 17.7098C341.577 16.8945 341.984 15.8347 341.984 14.4487H344.512V14.5302Z" fill="#B3B3B3"/>
<path d="M353.887 6.05149C355.762 6.05149 357.148 6.7037 358.208 8.08964C359.268 9.47558 359.838 11.1876 359.838 13.3888V13.7149C359.838 15.8346 359.268 17.6282 358.126 19.0141C356.985 20.4 355.436 21.0523 353.398 21.0523C351.36 21.0523 349.811 20.4 348.669 19.0141C347.528 17.6282 346.957 15.9161 346.957 13.7149V13.3888C346.957 13.3073 346.957 13.2258 346.957 13.2258C346.957 13.1442 346.957 13.1442 346.957 13.0627V9.96473C346.957 7.19285 347.528 5.23623 348.588 3.93182C349.648 2.6274 351.278 1.97519 353.398 1.81214C354.621 1.73062 355.599 1.56756 356.251 1.32299C356.903 1.07841 357.23 0.670779 357.23 0.100098H359.268V0.181624C359.349 1.56756 358.86 2.54587 357.882 3.11656C356.903 3.68724 355.517 4.01334 353.642 4.01334C352.256 4.01334 351.197 4.42097 350.381 5.1547C349.566 5.88844 349.158 6.94827 349.158 8.33421V8.41574C349.648 7.76353 350.381 7.19285 351.197 6.78522C352.012 6.37759 352.99 6.05149 353.887 6.05149ZM353.398 8.08964C352.175 8.08964 351.197 8.57879 350.544 9.5571C349.892 10.5354 349.566 11.8398 349.566 13.3073V13.6334C349.566 15.1824 349.892 16.4053 350.544 17.3836C351.197 18.3619 352.175 18.8511 353.398 18.8511C354.621 18.8511 355.599 18.3619 356.251 17.3836C356.903 16.4053 357.23 15.1009 357.23 13.6334V13.3073C357.23 11.7583 356.903 10.5354 356.251 9.5571C355.599 8.57879 354.621 8.08964 353.398 8.08964Z" fill="#B3B3B3"/>
<path d="M394 20.7264V1.32324H400.359C402.397 1.32324 403.946 1.73087 405.088 2.62766C406.229 3.52444 406.8 4.82886 406.8 6.5409C406.8 7.35616 406.555 8.08989 406.066 8.82363C405.577 9.55736 404.843 9.96499 404.028 10.3726C405.332 10.5357 406.31 11.1064 407.044 12.0031C407.778 12.8999 408.186 14.0413 408.186 15.2642C408.186 17.0577 407.615 18.3622 406.473 19.3405C405.332 20.3188 403.783 20.7264 401.745 20.7264H394ZM396.69 9.55736H400.93C401.908 9.55736 402.723 9.31278 403.294 8.7421C403.946 8.17142 404.191 7.43769 404.191 6.45937C404.191 5.39954 403.865 4.6658 403.212 4.09512C402.56 3.60597 401.582 3.27986 400.359 3.27986H396.69V9.55736ZM396.69 11.5955V18.6067H401.745C402.968 18.6067 403.865 18.2806 404.517 17.71C405.169 17.1393 405.495 16.2425 405.495 15.1826C405.495 14.1228 405.169 13.226 404.517 12.5738C403.865 11.9216 402.968 11.5955 401.745 11.514H401.582H396.69V11.5955Z" fill="#B3B3B3"/>
<path d="M416.745 18.9325C417.561 18.9325 418.294 18.6879 418.865 18.1172C419.436 17.5466 419.762 16.8944 419.762 16.1606H422.126V16.2421C422.126 17.465 421.637 18.6064 420.496 19.5847C419.354 20.563 418.131 21.0522 416.664 21.0522C414.626 21.0522 413.077 20.4 411.935 19.014C410.794 17.6281 410.305 15.916 410.305 13.8779V13.3072C410.305 11.2691 410.876 9.55702 411.935 8.17108C413.077 6.78514 414.626 6.13293 416.582 6.13293C418.213 6.13293 419.517 6.62209 420.496 7.6004C421.474 8.57871 422.045 9.8016 421.963 11.2691V11.3506H419.599C419.599 10.4538 419.273 9.72007 418.702 9.06787C418.131 8.41566 417.398 8.17108 416.501 8.17108C415.196 8.17108 414.3 8.66024 413.647 9.63855C413.077 10.6169 412.751 11.8397 412.751 13.3072V13.8779C412.751 15.3454 413.077 16.5683 413.647 17.5466C414.544 18.4433 415.441 18.9325 416.745 18.9325Z" fill="#B3B3B3"/>
<path d="M143.795 78V53.58L145.386 55.319H137.949V52.1H147.458V78H143.795Z" fill="#292C33" fill-opacity="0.8"/>
<path d="M153.181 136.546C151.085 136.546 149.272 136.238 147.742 135.621C146.213 135.004 145.029 134.129 144.19 132.994C143.352 131.835 142.932 130.478 142.932 128.924C142.932 127.395 143.327 126.1 144.116 125.039C144.93 123.954 146.102 123.14 147.631 122.597C149.161 122.03 151.011 121.746 153.181 121.746C155.352 121.746 157.202 122.03 158.731 122.597C160.285 123.14 161.469 123.954 162.283 125.039C163.097 126.124 163.504 127.419 163.504 128.924C163.504 130.478 163.085 131.835 162.246 132.994C161.408 134.129 160.211 135.004 158.657 135.621C157.103 136.238 155.278 136.546 153.181 136.546ZM153.181 133.549C155.253 133.549 156.869 133.13 158.028 132.291C159.212 131.428 159.804 130.268 159.804 128.813C159.804 127.382 159.212 126.26 158.028 125.446C156.869 124.607 155.253 124.188 153.181 124.188C151.134 124.188 149.531 124.607 148.371 125.446C147.212 126.26 146.632 127.382 146.632 128.813C146.632 130.268 147.212 131.428 148.371 132.291C149.531 133.13 151.134 133.549 153.181 133.549ZM153.181 123.744C151.208 123.744 149.531 123.485 148.149 122.967C146.768 122.424 145.707 121.66 144.967 120.673C144.227 119.662 143.857 118.465 143.857 117.084C143.857 115.629 144.24 114.383 145.004 113.347C145.794 112.286 146.891 111.472 148.297 110.905C149.703 110.338 151.331 110.054 153.181 110.054C155.056 110.054 156.696 110.338 158.102 110.905C159.508 111.472 160.606 112.286 161.395 113.347C162.185 114.383 162.579 115.629 162.579 117.084C162.579 118.465 162.209 119.662 161.469 120.673C160.729 121.66 159.656 122.424 158.25 122.967C156.844 123.485 155.155 123.744 153.181 123.744ZM153.181 121.376C154.982 121.376 156.388 121.006 157.399 120.266C158.435 119.526 158.953 118.515 158.953 117.232C158.953 115.925 158.423 114.901 157.362 114.161C156.302 113.421 154.908 113.051 153.181 113.051C151.455 113.051 150.073 113.421 149.037 114.161C148.026 114.901 147.52 115.925 147.52 117.232C147.52 118.515 148.014 119.526 149 120.266C150.012 121.006 151.405 121.376 153.181 121.376Z" fill="#292C33" fill-opacity="0.8"/>
<path d="M141.882 193.25V168.83L143.473 170.569H136.036V167.35H145.545V193.25H141.882ZM159.572 193.546C157.747 193.546 155.971 193.262 154.244 192.695C152.542 192.128 151.149 191.363 150.063 190.401L151.765 187.478C152.629 188.292 153.751 188.958 155.132 189.476C156.514 189.994 157.981 190.253 159.535 190.253C161.509 190.253 163.026 189.834 164.086 188.995C165.147 188.156 165.677 187.034 165.677 185.628C165.677 184.666 165.443 183.827 164.974 183.112C164.506 182.397 163.692 181.854 162.532 181.484C161.398 181.089 159.831 180.892 157.833 180.892H151.95L153.319 167.35H167.934V170.569H154.688L156.612 168.756L155.539 179.449L153.615 177.673H158.61C161.2 177.673 163.285 178.006 164.863 178.672C166.442 179.338 167.589 180.263 168.304 181.447C169.02 182.606 169.377 183.951 169.377 185.48C169.377 186.96 169.02 188.317 168.304 189.55C167.589 190.759 166.504 191.733 165.048 192.473C163.618 193.188 161.792 193.546 159.572 193.546Z" fill="#292C33" fill-opacity="0.8"/>
<path d="M133.333 250.25V247.734L143.878 237.559C144.815 236.671 145.506 235.894 145.95 235.228C146.419 234.537 146.727 233.908 146.875 233.341C147.048 232.749 147.134 232.182 147.134 231.639C147.134 230.307 146.665 229.259 145.728 228.494C144.791 227.729 143.422 227.347 141.621 227.347C140.24 227.347 138.994 227.581 137.884 228.05C136.774 228.494 135.812 229.197 134.998 230.159L132.482 227.976C133.469 226.718 134.788 225.756 136.441 225.09C138.118 224.399 139.956 224.054 141.954 224.054C143.755 224.054 145.321 224.35 146.653 224.942C147.985 225.509 149.009 226.336 149.724 227.421C150.464 228.506 150.834 229.789 150.834 231.269C150.834 232.108 150.723 232.934 150.501 233.748C150.279 234.562 149.86 235.425 149.243 236.338C148.626 237.251 147.738 238.274 146.579 239.409L137.181 248.474L136.293 247.031H151.944V250.25H133.333ZM154.579 250.25V247.734L165.124 237.559C166.062 236.671 166.752 235.894 167.196 235.228C167.665 234.537 167.973 233.908 168.121 233.341C168.294 232.749 168.38 232.182 168.38 231.639C168.38 230.307 167.912 229.259 166.974 228.494C166.037 227.729 164.668 227.347 162.867 227.347C161.486 227.347 160.24 227.581 159.13 228.05C158.02 228.494 157.058 229.197 156.244 230.159L153.728 227.976C154.715 226.718 156.035 225.756 157.687 225.09C159.365 224.399 161.202 224.054 163.2 224.054C165.001 224.054 166.567 224.35 167.899 224.942C169.231 225.509 170.255 226.336 170.97 227.421C171.71 228.506 172.08 229.789 172.08 231.269C172.08 232.108 171.969 232.934 171.747 233.748C171.525 234.562 171.106 235.425 170.489 236.338C169.873 237.251 168.985 238.274 167.825 239.409L158.427 248.474L157.539 247.031H173.19V250.25H154.579Z" fill="#292C33" fill-opacity="0.8"/>
<path d="M199.246 78V75.484L209.791 65.309C210.728 64.421 211.419 63.644 211.863 62.978C212.332 62.2873 212.64 61.6583 212.788 61.091C212.961 60.499 213.047 59.9317 213.047 59.389C213.047 58.057 212.578 57.0087 211.641 56.244C210.704 55.4793 209.335 55.097 207.534 55.097C206.153 55.097 204.907 55.3313 203.797 55.8C202.687 56.244 201.725 56.947 200.911 57.909L198.395 55.726C199.382 54.468 200.701 53.506 202.354 52.84C204.031 52.1493 205.869 51.804 207.867 51.804C209.668 51.804 211.234 52.1 212.566 52.692C213.898 53.2593 214.922 54.0857 215.637 55.171C216.377 56.2563 216.747 57.539 216.747 59.019C216.747 59.8577 216.636 60.684 216.414 61.498C216.192 62.312 215.773 63.1753 215.156 64.088C214.539 65.0007 213.651 66.0243 212.492 67.159L203.094 76.224L202.206 74.781H217.857V78H199.246Z" fill="#292C33" fill-opacity="0.8"/>
<path d="M216.467 110.054C218.811 110.054 220.784 110.56 222.387 111.571C224.015 112.582 225.249 114.05 226.087 115.974C226.926 117.873 227.345 120.204 227.345 122.967C227.345 125.902 226.827 128.381 225.791 130.404C224.755 132.427 223.325 133.956 221.499 134.992C219.674 136.028 217.54 136.546 215.098 136.546C213.89 136.546 212.718 136.423 211.583 136.176C210.473 135.929 209.499 135.547 208.66 135.029L210.066 132.143C210.757 132.587 211.522 132.908 212.36 133.105C213.224 133.278 214.124 133.364 215.061 133.364C217.676 133.364 219.76 132.55 221.314 130.922C222.868 129.269 223.645 126.827 223.645 123.596C223.645 123.078 223.621 122.461 223.571 121.746C223.522 121.031 223.411 120.328 223.238 119.637L224.459 120.895C224.114 122.03 223.534 122.992 222.72 123.781C221.931 124.546 220.969 125.125 219.834 125.52C218.724 125.89 217.503 126.075 216.171 126.075C214.469 126.075 212.952 125.754 211.62 125.113C210.288 124.472 209.24 123.571 208.475 122.412C207.711 121.228 207.328 119.834 207.328 118.231C207.328 116.554 207.723 115.111 208.512 113.902C209.326 112.669 210.424 111.719 211.805 111.053C213.211 110.387 214.765 110.054 216.467 110.054ZM216.615 113.051C215.505 113.051 214.519 113.261 213.655 113.68C212.792 114.099 212.114 114.679 211.62 115.419C211.152 116.159 210.917 117.047 210.917 118.083C210.917 119.612 211.448 120.833 212.508 121.746C213.569 122.634 215 123.078 216.8 123.078C217.984 123.078 219.02 122.856 219.908 122.412C220.821 121.968 221.524 121.364 222.017 120.599C222.535 119.834 222.794 118.983 222.794 118.046C222.794 117.133 222.56 116.307 222.091 115.567C221.623 114.827 220.932 114.223 220.019 113.754C219.107 113.285 217.972 113.051 216.615 113.051Z" fill="#292C33" fill-opacity="0.8"/>
<path d="M205.587 193.25V168.83L207.178 170.569H199.741V167.35H209.25V193.25H205.587ZM225.793 193.546C223.499 193.546 221.538 193.04 219.91 192.029C218.282 191.018 217.037 189.562 216.173 187.663C215.335 185.739 214.915 183.396 214.915 180.633C214.915 177.698 215.433 175.219 216.469 173.196C217.505 171.173 218.948 169.644 220.798 168.608C222.648 167.572 224.77 167.054 227.162 167.054C228.396 167.054 229.567 167.177 230.677 167.424C231.812 167.671 232.786 168.053 233.6 168.571L232.194 171.457C231.528 170.988 230.764 170.668 229.9 170.495C229.062 170.322 228.174 170.236 227.236 170.236C224.597 170.236 222.5 171.062 220.946 172.715C219.392 174.343 218.615 176.773 218.615 180.004C218.615 180.522 218.64 181.139 218.689 181.854C218.739 182.569 218.862 183.272 219.059 183.963L217.801 182.705C218.171 181.57 218.751 180.621 219.54 179.856C220.354 179.067 221.316 178.487 222.426 178.117C223.561 177.722 224.782 177.525 226.089 177.525C227.816 177.525 229.345 177.846 230.677 178.487C232.009 179.128 233.058 180.041 233.822 181.225C234.587 182.384 234.969 183.766 234.969 185.369C234.969 187.022 234.562 188.465 233.748 189.698C232.934 190.931 231.837 191.881 230.455 192.547C229.074 193.213 227.52 193.546 225.793 193.546ZM225.645 190.549C226.78 190.549 227.767 190.339 228.605 189.92C229.469 189.501 230.147 188.921 230.64 188.181C231.134 187.416 231.38 186.528 231.38 185.517C231.38 183.988 230.85 182.779 229.789 181.891C228.729 180.978 227.286 180.522 225.46 180.522C224.276 180.522 223.24 180.744 222.352 181.188C221.464 181.632 220.761 182.236 220.243 183.001C219.75 183.741 219.503 184.592 219.503 185.554C219.503 186.442 219.738 187.268 220.206 188.033C220.675 188.773 221.366 189.377 222.278 189.846C223.191 190.315 224.313 190.549 225.645 190.549Z" fill="#292C33" fill-opacity="0.8"/>
<path d="M197.869 250.25V247.734L208.414 237.559C209.352 236.671 210.042 235.894 210.486 235.228C210.955 234.537 211.263 233.908 211.411 233.341C211.584 232.749 211.67 232.182 211.67 231.639C211.67 230.307 211.202 229.259 210.264 228.494C209.327 227.729 207.958 227.347 206.157 227.347C204.776 227.347 203.53 227.581 202.42 228.05C201.31 228.494 200.348 229.197 199.534 230.159L197.018 227.976C198.005 226.718 199.325 225.756 200.977 225.09C202.655 224.399 204.492 224.054 206.49 224.054C208.291 224.054 209.857 224.35 211.189 224.942C212.521 225.509 213.545 226.336 214.26 227.421C215 228.506 215.37 229.789 215.37 231.269C215.37 232.108 215.259 232.934 215.037 233.748C214.815 234.562 214.396 235.425 213.779 236.338C213.163 237.251 212.275 238.274 211.115 239.409L201.717 248.474L200.829 247.031H216.48V250.25H197.869ZM227.44 250.546C225.615 250.546 223.839 250.262 222.112 249.695C220.41 249.128 219.017 248.363 217.931 247.401L219.633 244.478C220.497 245.292 221.619 245.958 223 246.476C224.382 246.994 225.862 247.253 227.44 247.253C229.364 247.253 230.857 246.846 231.917 246.032C233.003 245.193 233.545 244.071 233.545 242.665C233.545 241.308 233.027 240.223 231.991 239.409C230.98 238.57 229.364 238.151 227.144 238.151H225.072V235.561L232.768 226.089L233.286 227.569H219.115V224.35H236.209V226.866L228.55 236.301L226.626 235.154H227.847C230.98 235.154 233.323 235.857 234.877 237.263C236.456 238.669 237.245 240.457 237.245 242.628C237.245 244.083 236.888 245.415 236.172 246.624C235.457 247.833 234.372 248.795 232.916 249.51C231.486 250.201 229.66 250.546 227.44 250.546Z" fill="#292C33" fill-opacity="0.8"/>
<path d="M279.067 78.296C277.242 78.296 275.466 78.0123 273.739 77.445C272.037 76.8777 270.644 76.113 269.558 75.151L271.26 72.228C272.124 73.042 273.246 73.708 274.627 74.226C276.009 74.744 277.489 75.003 279.067 75.003C280.991 75.003 282.484 74.596 283.544 73.782C284.63 72.9433 285.172 71.821 285.172 70.415C285.172 69.0583 284.654 67.973 283.618 67.159C282.607 66.3203 280.991 65.901 278.771 65.901H276.699V63.311L284.395 53.839L284.913 55.319H270.742V52.1H287.836V54.616L280.177 64.051L278.253 62.904H279.474C282.607 62.904 284.95 63.607 286.504 65.013C288.083 66.419 288.872 68.2073 288.872 70.378C288.872 71.8333 288.515 73.1653 287.799 74.374C287.084 75.5827 285.999 76.5447 284.543 77.26C283.113 77.9507 281.287 78.296 279.067 78.296Z" fill="#292C33" fill-opacity="0.8"/>
<path d="M269.666 136.25V111.83L271.257 113.569H263.82V110.35H273.329V136.25H269.666ZM289.576 136.546C287.553 136.546 285.74 136.028 284.137 134.992C282.558 133.956 281.3 132.451 280.363 130.478C279.45 128.505 278.994 126.112 278.994 123.3C278.994 120.488 279.45 118.095 280.363 116.122C281.3 114.149 282.558 112.644 284.137 111.608C285.74 110.572 287.553 110.054 289.576 110.054C291.574 110.054 293.375 110.572 294.978 111.608C296.581 112.644 297.839 114.149 298.752 116.122C299.665 118.095 300.121 120.488 300.121 123.3C300.121 126.112 299.665 128.505 298.752 130.478C297.839 132.451 296.581 133.956 294.978 134.992C293.375 136.028 291.574 136.546 289.576 136.546ZM289.576 133.253C290.933 133.253 292.117 132.883 293.128 132.143C294.164 131.403 294.966 130.293 295.533 128.813C296.125 127.333 296.421 125.495 296.421 123.3C296.421 121.105 296.125 119.267 295.533 117.787C294.966 116.307 294.164 115.197 293.128 114.457C292.117 113.717 290.933 113.347 289.576 113.347C288.219 113.347 287.023 113.717 285.987 114.457C284.951 115.197 284.137 116.307 283.545 117.787C282.978 119.267 282.694 121.105 282.694 123.3C282.694 125.495 282.978 127.333 283.545 128.813C284.137 130.293 284.951 131.403 285.987 132.143C287.023 132.883 288.219 133.253 289.576 133.253Z" fill="#292C33" fill-opacity="0.8"/>
<path d="M270.948 193.25V168.83L272.539 170.569H265.102V167.35H274.611V193.25H270.948ZM284.754 193.25L295.743 168.904L296.705 170.569H281.313L283.163 168.756V175.194H279.611V167.35H299.147V169.866L288.676 193.25H284.754Z" fill="#292C33" fill-opacity="0.8"/>
<path d="M261.442 250.25V247.734L271.987 237.559C272.924 236.671 273.615 235.894 274.059 235.228C274.528 234.537 274.836 233.908 274.984 233.341C275.157 232.749 275.243 232.182 275.243 231.639C275.243 230.307 274.774 229.259 273.837 228.494C272.9 227.729 271.531 227.347 269.73 227.347C268.349 227.347 267.103 227.581 265.993 228.05C264.883 228.494 263.921 229.197 263.107 230.159L260.591 227.976C261.578 226.718 262.897 225.756 264.55 225.09C266.227 224.399 268.065 224.054 270.063 224.054C271.864 224.054 273.43 224.35 274.762 224.942C276.094 225.509 277.118 226.336 277.833 227.421C278.573 228.506 278.943 229.789 278.943 231.269C278.943 232.108 278.832 232.934 278.61 233.748C278.388 234.562 277.969 235.425 277.352 236.338C276.735 237.251 275.847 238.274 274.688 239.409L265.29 248.474L264.402 247.031H280.053V250.25H261.442ZM282.002 243.886V241.296L295.248 224.35H299.244L286.109 241.296L284.222 240.704H304.905V243.886H282.002ZM296.395 250.25V243.886L296.506 240.704V235.08H299.984V250.25H296.395Z" fill="#292C33" fill-opacity="0.8"/>
<path d="M332.491 71.636V69.046L345.737 52.1H349.733L336.598 69.046L334.711 68.454H355.394V71.636H332.491ZM346.884 78V71.636L346.995 68.454V62.83H350.473V78H346.884Z" fill="#292C33" fill-opacity="0.8"/>
<path d="M338.658 136.25V111.83L340.249 113.569H332.812V110.35H342.321V136.25H338.658ZM352.352 136.25V111.83L353.943 113.569H346.506V110.35H356.015V136.25H352.352Z" fill="#292C33" fill-opacity="0.8"/>
<path d="M333.599 193.25V168.83L335.19 170.569H327.753V167.35H337.262V193.25H333.599ZM353.029 193.546C350.932 193.546 349.119 193.238 347.59 192.621C346.06 192.004 344.876 191.129 344.038 189.994C343.199 188.835 342.78 187.478 342.78 185.924C342.78 184.395 343.174 183.1 343.964 182.039C344.778 180.954 345.949 180.14 347.479 179.597C349.008 179.03 350.858 178.746 353.029 178.746C355.199 178.746 357.049 179.03 358.579 179.597C360.133 180.14 361.317 180.954 362.131 182.039C362.945 183.124 363.352 184.419 363.352 185.924C363.352 187.478 362.932 188.835 362.094 189.994C361.255 191.129 360.059 192.004 358.505 192.621C356.951 193.238 355.125 193.546 353.029 193.546ZM353.029 190.549C355.101 190.549 356.716 190.13 357.876 189.291C359.06 188.428 359.652 187.268 359.652 185.813C359.652 184.382 359.06 183.26 357.876 182.446C356.716 181.607 355.101 181.188 353.029 181.188C350.981 181.188 349.378 181.607 348.219 182.446C347.059 183.26 346.48 184.382 346.48 185.813C346.48 187.268 347.059 188.428 348.219 189.291C349.378 190.13 350.981 190.549 353.029 190.549ZM353.029 180.744C351.055 180.744 349.378 180.485 347.997 179.967C346.615 179.424 345.555 178.66 344.815 177.673C344.075 176.662 343.705 175.465 343.705 174.084C343.705 172.629 344.087 171.383 344.852 170.347C345.641 169.286 346.739 168.472 348.145 167.905C349.551 167.338 351.179 167.054 353.029 167.054C354.903 167.054 356.544 167.338 357.95 167.905C359.356 168.472 360.453 169.286 361.243 170.347C362.032 171.383 362.427 172.629 362.427 174.084C362.427 175.465 362.057 176.662 361.317 177.673C360.577 178.66 359.504 179.424 358.098 179.967C356.692 180.485 355.002 180.744 353.029 180.744ZM353.029 178.376C354.829 178.376 356.235 178.006 357.247 177.266C358.283 176.526 358.801 175.515 358.801 174.232C358.801 172.925 358.27 171.901 357.21 171.161C356.149 170.421 354.755 170.051 353.029 170.051C351.302 170.051 349.921 170.421 348.885 171.161C347.873 171.901 347.368 172.925 347.368 174.232C347.368 175.515 347.861 176.526 348.848 177.266C349.859 178.006 351.253 178.376 353.029 178.376Z" fill="#292C33" fill-opacity="0.8"/>
<path d="M326.333 250.25V247.734L336.878 237.559C337.815 236.671 338.506 235.894 338.95 235.228C339.419 234.537 339.727 233.908 339.875 233.341C340.048 232.749 340.134 232.182 340.134 231.639C340.134 230.307 339.665 229.259 338.728 228.494C337.791 227.729 336.422 227.347 334.621 227.347C333.24 227.347 331.994 227.581 330.884 228.05C329.774 228.494 328.812 229.197 327.998 230.159L325.482 227.976C326.469 226.718 327.788 225.756 329.441 225.09C331.118 224.399 332.956 224.054 334.954 224.054C336.755 224.054 338.321 224.35 339.653 224.942C340.985 225.509 342.009 226.336 342.724 227.421C343.464 228.506 343.834 229.789 343.834 231.269C343.834 232.108 343.723 232.934 343.501 233.748C343.279 234.562 342.86 235.425 342.243 236.338C341.626 237.251 340.738 238.274 339.579 239.409L330.181 248.474L329.293 247.031H344.944V250.25H326.333ZM356.348 250.546C354.523 250.546 352.747 250.262 351.02 249.695C349.318 249.128 347.925 248.363 346.839 247.401L348.541 244.478C349.405 245.292 350.527 245.958 351.908 246.476C353.29 246.994 354.757 247.253 356.311 247.253C358.285 247.253 359.802 246.834 360.862 245.995C361.923 245.156 362.453 244.034 362.453 242.628C362.453 241.666 362.219 240.827 361.75 240.112C361.282 239.397 360.468 238.854 359.308 238.484C358.174 238.089 356.607 237.892 354.609 237.892H348.726L350.095 224.35H364.71V227.569H351.464L353.388 225.756L352.315 236.449L350.391 234.673H355.386C357.976 234.673 360.061 235.006 361.639 235.672C363.218 236.338 364.365 237.263 365.08 238.447C365.796 239.606 366.153 240.951 366.153 242.48C366.153 243.96 365.796 245.317 365.08 246.55C364.365 247.759 363.28 248.733 361.824 249.473C360.394 250.188 358.568 250.546 356.348 250.546Z" fill="#292C33" fill-opacity="0.8"/>
<path d="M406.935 78.296C405.11 78.296 403.334 78.0123 401.607 77.445C399.905 76.8777 398.512 76.113 397.426 75.151L399.128 72.228C399.992 73.042 401.114 73.708 402.495 74.226C403.877 74.744 405.344 75.003 406.898 75.003C408.872 75.003 410.389 74.5837 411.449 73.745C412.51 72.9063 413.04 71.784 413.04 70.378C413.04 69.416 412.806 68.5773 412.337 67.862C411.869 67.1467 411.055 66.604 409.895 66.234C408.761 65.8393 407.194 65.642 405.196 65.642H399.313L400.682 52.1H415.297V55.319H402.051L403.975 53.506L402.902 64.199L400.978 62.423H405.973C408.563 62.423 410.648 62.756 412.226 63.422C413.805 64.088 414.952 65.013 415.667 66.197C416.383 67.3563 416.74 68.7007 416.74 70.23C416.74 71.71 416.383 73.0667 415.667 74.3C414.952 75.5087 413.867 76.483 412.411 77.223C410.981 77.9383 409.155 78.296 406.935 78.296Z" fill="#292C33" fill-opacity="0.8"/>
<path d="M397.882 136.25V111.83L399.473 113.569H392.036V110.35H401.545V136.25H397.882ZM406.803 136.25V133.734L417.348 123.559C418.286 122.671 418.976 121.894 419.42 121.228C419.889 120.537 420.197 119.908 420.345 119.341C420.518 118.749 420.604 118.182 420.604 117.639C420.604 116.307 420.136 115.259 419.198 114.494C418.261 113.729 416.892 113.347 415.091 113.347C413.71 113.347 412.464 113.581 411.354 114.05C410.244 114.494 409.282 115.197 408.468 116.159L405.952 113.976C406.939 112.718 408.259 111.756 409.911 111.09C411.589 110.399 413.426 110.054 415.424 110.054C417.225 110.054 418.791 110.35 420.123 110.942C421.455 111.509 422.479 112.336 423.194 113.421C423.934 114.506 424.304 115.789 424.304 117.269C424.304 118.108 424.193 118.934 423.971 119.748C423.749 120.562 423.33 121.425 422.713 122.338C422.097 123.251 421.209 124.274 420.049 125.409L410.651 134.474L409.763 133.031H425.414V136.25H406.803Z" fill="#292C33" fill-opacity="0.8"/>
<path d="M397.087 193.25V168.83L398.678 170.569H391.241V167.35H400.75V193.25H397.087ZM414.814 167.054C417.158 167.054 419.131 167.56 420.734 168.571C422.362 169.582 423.596 171.05 424.434 172.974C425.273 174.873 425.692 177.204 425.692 179.967C425.692 182.902 425.174 185.381 424.138 187.404C423.102 189.427 421.672 190.956 419.846 191.992C418.021 193.028 415.887 193.546 413.445 193.546C412.237 193.546 411.065 193.423 409.93 193.176C408.82 192.929 407.846 192.547 407.007 192.029L408.413 189.143C409.104 189.587 409.869 189.908 410.707 190.105C411.571 190.278 412.471 190.364 413.408 190.364C416.023 190.364 418.107 189.55 419.661 187.922C421.215 186.269 421.992 183.827 421.992 180.596C421.992 180.078 421.968 179.461 421.918 178.746C421.869 178.031 421.758 177.328 421.585 176.637L422.806 177.895C422.461 179.03 421.881 179.992 421.067 180.781C420.278 181.546 419.316 182.125 418.181 182.52C417.071 182.89 415.85 183.075 414.518 183.075C412.816 183.075 411.299 182.754 409.967 182.113C408.635 181.472 407.587 180.571 406.822 179.412C406.058 178.228 405.675 176.834 405.675 175.231C405.675 173.554 406.07 172.111 406.859 170.902C407.673 169.669 408.771 168.719 410.152 168.053C411.558 167.387 413.112 167.054 414.814 167.054ZM414.962 170.051C413.852 170.051 412.866 170.261 412.002 170.68C411.139 171.099 410.461 171.679 409.967 172.419C409.499 173.159 409.264 174.047 409.264 175.083C409.264 176.612 409.795 177.833 410.855 178.746C411.916 179.634 413.347 180.078 415.147 180.078C416.331 180.078 417.367 179.856 418.255 179.412C419.168 178.968 419.871 178.364 420.364 177.599C420.882 176.834 421.141 175.983 421.141 175.046C421.141 174.133 420.907 173.307 420.438 172.567C419.97 171.827 419.279 171.223 418.366 170.754C417.454 170.285 416.319 170.051 414.962 170.051Z" fill="#292C33" fill-opacity="0.8"/>
<path d="M388.556 250.25V247.734L399.101 237.559C400.039 236.671 400.729 235.894 401.173 235.228C401.642 234.537 401.95 233.908 402.098 233.341C402.271 232.749 402.357 232.182 402.357 231.639C402.357 230.307 401.889 229.259 400.951 228.494C400.014 227.729 398.645 227.347 396.844 227.347C395.463 227.347 394.217 227.581 393.107 228.05C391.997 228.494 391.035 229.197 390.221 230.159L387.705 227.976C388.692 226.718 390.012 225.756 391.664 225.09C393.342 224.399 395.179 224.054 397.177 224.054C398.978 224.054 400.544 224.35 401.876 224.942C403.208 225.509 404.232 226.336 404.947 227.421C405.687 228.506 406.057 229.789 406.057 231.269C406.057 232.108 405.946 232.934 405.724 233.748C405.502 234.562 405.083 235.425 404.466 236.338C403.85 237.251 402.962 238.274 401.802 239.409L392.404 248.474L391.516 247.031H407.167V250.25H388.556ZM421.051 250.546C418.757 250.546 416.796 250.04 415.168 249.029C413.54 248.018 412.295 246.562 411.431 244.663C410.593 242.739 410.173 240.396 410.173 237.633C410.173 234.698 410.691 232.219 411.727 230.196C412.763 228.173 414.206 226.644 416.056 225.608C417.906 224.572 420.028 224.054 422.42 224.054C423.654 224.054 424.825 224.177 425.935 224.424C427.07 224.671 428.044 225.053 428.858 225.571L427.452 228.457C426.786 227.988 426.022 227.668 425.158 227.495C424.32 227.322 423.432 227.236 422.494 227.236C419.855 227.236 417.758 228.062 416.204 229.715C414.65 231.343 413.873 233.773 413.873 237.004C413.873 237.522 413.898 238.139 413.947 238.854C413.997 239.569 414.12 240.272 414.317 240.963L413.059 239.705C413.429 238.57 414.009 237.621 414.798 236.856C415.612 236.067 416.574 235.487 417.684 235.117C418.819 234.722 420.04 234.525 421.347 234.525C423.074 234.525 424.603 234.846 425.935 235.487C427.267 236.128 428.316 237.041 429.08 238.225C429.845 239.384 430.227 240.766 430.227 242.369C430.227 244.022 429.82 245.465 429.006 246.698C428.192 247.931 427.095 248.881 425.713 249.547C424.332 250.213 422.778 250.546 421.051 250.546ZM420.903 247.549C422.038 247.549 423.025 247.339 423.863 246.92C424.727 246.501 425.405 245.921 425.898 245.181C426.392 244.416 426.638 243.528 426.638 242.517C426.638 240.988 426.108 239.779 425.047 238.891C423.987 237.978 422.544 237.522 420.718 237.522C419.534 237.522 418.498 237.744 417.61 238.188C416.722 238.632 416.019 239.236 415.501 240.001C415.008 240.741 414.761 241.592 414.761 242.554C414.761 243.442 414.996 244.268 415.464 245.033C415.933 245.773 416.624 246.377 417.536 246.846C418.449 247.315 419.571 247.549 420.903 247.549Z" fill="#292C33" fill-opacity="0.8"/>
<path d="M24.9462 136.546C22.6522 136.546 20.6912 136.04 19.0632 135.029C17.4352 134.018 16.1896 132.562 15.3262 130.663C14.4876 128.739 14.0682 126.396 14.0682 123.633C14.0682 120.698 14.5862 118.219 15.6222 116.196C16.6582 114.173 18.1012 112.644 19.9512 111.608C21.8012 110.572 23.9226 110.054 26.3152 110.054C27.5486 110.054 28.7202 110.177 29.8302 110.424C30.9649 110.671 31.9392 111.053 32.7532 111.571L31.3472 114.457C30.6812 113.988 29.9166 113.668 29.0532 113.495C28.2146 113.322 27.3266 113.236 26.3892 113.236C23.7499 113.236 21.6532 114.062 20.0992 115.715C18.5452 117.343 17.7682 119.773 17.7682 123.004C17.7682 123.522 17.7929 124.139 17.8422 124.854C17.8916 125.569 18.0149 126.272 18.2122 126.963L16.9542 125.705C17.3242 124.57 17.9039 123.621 18.6932 122.856C19.5072 122.067 20.4692 121.487 21.5792 121.117C22.7139 120.722 23.9349 120.525 25.2422 120.525C26.9689 120.525 28.4982 120.846 29.8302 121.487C31.1622 122.128 32.2106 123.041 32.9752 124.225C33.7399 125.384 34.1222 126.766 34.1222 128.369C34.1222 130.022 33.7152 131.465 32.9012 132.698C32.0872 133.931 30.9896 134.881 29.6082 135.547C28.2269 136.213 26.6729 136.546 24.9462 136.546ZM24.7982 133.549C25.9329 133.549 26.9196 133.339 27.7582 132.92C28.6216 132.501 29.2999 131.921 29.7932 131.181C30.2866 130.416 30.5332 129.528 30.5332 128.517C30.5332 126.988 30.0029 125.779 28.9422 124.891C27.8816 123.978 26.4386 123.522 24.6132 123.522C23.4292 123.522 22.3932 123.744 21.5052 124.188C20.6172 124.632 19.9142 125.236 19.3962 126.001C18.9029 126.741 18.6562 127.592 18.6562 128.554C18.6562 129.442 18.8906 130.268 19.3592 131.033C19.8279 131.773 20.5186 132.377 21.4312 132.846C22.3439 133.315 23.4662 133.549 24.7982 133.549Z" fill="#292C33" fill-opacity="0.8"/>
<path d="M12.4181 193.25V168.83L14.0091 170.569H6.57212V167.35H16.0811V193.25H12.4181ZM29.6645 193.546C27.8391 193.546 26.0631 193.262 24.3365 192.695C22.6345 192.128 21.2408 191.363 20.1555 190.401L21.8575 187.478C22.7208 188.292 23.8431 188.958 25.2245 189.476C26.6058 189.994 28.0858 190.253 29.6645 190.253C31.5885 190.253 33.0808 189.846 34.1415 189.032C35.2268 188.193 35.7695 187.071 35.7695 185.665C35.7695 184.308 35.2515 183.223 34.2155 182.409C33.2041 181.57 31.5885 181.151 29.3685 181.151H27.2965V178.561L34.9925 169.089L35.5105 170.569H21.3395V167.35H38.4335V169.866L30.7745 179.301L28.8505 178.154H30.0715C33.2041 178.154 35.5475 178.857 37.1015 180.263C38.6801 181.669 39.4695 183.457 39.4695 185.628C39.4695 187.083 39.1118 188.415 38.3965 189.624C37.6811 190.833 36.5958 191.795 35.1405 192.51C33.7098 193.201 31.8845 193.546 29.6645 193.546Z" fill="#292C33" fill-opacity="0.8"/>
<path d="M2.13487 250.25V247.734L12.6799 237.559C13.6172 236.671 14.3079 235.894 14.7519 235.228C15.2205 234.537 15.5289 233.908 15.6769 233.341C15.8495 232.749 15.9359 232.182 15.9359 231.639C15.9359 230.307 15.4672 229.259 14.5299 228.494C13.5925 227.729 12.2235 227.347 10.4229 227.347C9.04154 227.347 7.79587 227.581 6.68587 228.05C5.57587 228.494 4.61387 229.197 3.79987 230.159L1.28387 227.976C2.27054 226.718 3.5902 225.756 5.24287 225.09C6.9202 224.399 8.75787 224.054 10.7559 224.054C12.5565 224.054 14.1229 224.35 15.4549 224.942C16.7869 225.509 17.8105 226.336 18.5259 227.421C19.2659 228.506 19.6359 229.789 19.6359 231.269C19.6359 232.108 19.5249 232.934 19.3029 233.748C19.0809 234.562 18.6615 235.425 18.0449 236.338C17.4282 237.251 16.5402 238.274 15.3809 239.409L5.98287 248.474L5.09487 247.031H20.7459V250.25H2.13487ZM34.3338 250.546C32.3112 250.546 30.4982 250.028 28.8948 248.992C27.3162 247.956 26.0582 246.451 25.1208 244.478C24.2082 242.505 23.7518 240.112 23.7518 237.3C23.7518 234.488 24.2082 232.095 25.1208 230.122C26.0582 228.149 27.3162 226.644 28.8948 225.608C30.4982 224.572 32.3112 224.054 34.3338 224.054C36.3318 224.054 38.1325 224.572 39.7358 225.608C41.3392 226.644 42.5972 228.149 43.5098 230.122C44.4225 232.095 44.8788 234.488 44.8788 237.3C44.8788 240.112 44.4225 242.505 43.5098 244.478C42.5972 246.451 41.3392 247.956 39.7358 248.992C38.1325 250.028 36.3318 250.546 34.3338 250.546ZM34.3338 247.253C35.6905 247.253 36.8745 246.883 37.8858 246.143C38.9218 245.403 39.7235 244.293 40.2908 242.813C40.8828 241.333 41.1788 239.495 41.1788 237.3C41.1788 235.105 40.8828 233.267 40.2908 231.787C39.7235 230.307 38.9218 229.197 37.8858 228.457C36.8745 227.717 35.6905 227.347 34.3338 227.347C32.9772 227.347 31.7808 227.717 30.7448 228.457C29.7088 229.197 28.8948 230.307 28.3028 231.787C27.7355 233.267 27.4518 235.105 27.4518 237.3C27.4518 239.495 27.7355 241.333 28.3028 242.813C28.8948 244.293 29.7088 245.403 30.7448 246.143C31.7808 246.883 32.9772 247.253 34.3338 247.253Z" fill="#292C33" fill-opacity="0.8"/>
<path d="M3.41758 307.25V304.734L13.9626 294.559C14.8999 293.671 15.5906 292.894 16.0346 292.228C16.5033 291.537 16.8116 290.908 16.9596 290.341C17.1323 289.749 17.2186 289.182 17.2186 288.639C17.2186 287.307 16.7499 286.259 15.8126 285.494C14.8753 284.729 13.5063 284.347 11.7056 284.347C10.3243 284.347 9.07858 284.581 7.96858 285.05C6.85858 285.494 5.89658 286.197 5.08258 287.159L2.56658 284.976C3.55325 283.718 4.87292 282.756 6.52558 282.09C8.20292 281.399 10.0406 281.054 12.0386 281.054C13.8393 281.054 15.4056 281.35 16.7376 281.942C18.0696 282.509 19.0933 283.336 19.8086 284.421C20.5486 285.506 20.9186 286.789 20.9186 288.269C20.9186 289.108 20.8076 289.934 20.5856 290.748C20.3636 291.562 19.9443 292.425 19.3276 293.338C18.7109 294.251 17.8229 295.274 16.6636 296.409L7.26558 305.474L6.37758 304.031H22.0286V307.25H3.41758ZM29.5115 307.25L40.5005 282.904L41.4625 284.569H26.0705L27.9205 282.756V289.194H24.3685V281.35H43.9045V283.866L33.4335 307.25H29.5115Z" fill="#292C33" fill-opacity="0.8"/>
<path d="M75.6295 193.25V168.83L77.2205 170.569H69.7835V167.35H79.2925V193.25H75.6295ZM84.5879 186.886V184.296L97.8339 167.35H101.83L88.6949 184.296L86.8079 183.704H107.491V186.886H84.5879ZM98.9809 193.25V186.886L99.0919 183.704V178.08H102.57V193.25H98.9809Z" fill="#292C33" fill-opacity="0.8"/>
<path d="M72.609 250.25V247.734L83.154 237.559C84.0913 236.671 84.782 235.894 85.226 235.228C85.6947 234.537 86.003 233.908 86.151 233.341C86.3237 232.749 86.41 232.182 86.41 231.639C86.41 230.307 85.9413 229.259 85.004 228.494C84.0667 227.729 82.6977 227.347 80.897 227.347C79.5157 227.347 78.27 227.581 77.16 228.05C76.05 228.494 75.088 229.197 74.274 230.159L71.758 227.976C72.7447 226.718 74.0643 225.756 75.717 225.09C77.3943 224.399 79.232 224.054 81.23 224.054C83.0307 224.054 84.597 224.35 85.929 224.942C87.261 225.509 88.2847 226.336 89 227.421C89.74 228.506 90.11 229.789 90.11 231.269C90.11 232.108 89.999 232.934 89.777 233.748C89.555 234.562 89.1357 235.425 88.519 236.338C87.9023 237.251 87.0143 238.274 85.855 239.409L76.457 248.474L75.569 247.031H91.22V250.25H72.609ZM98.6281 250.25V225.83L100.219 227.569H92.7821V224.35H102.291V250.25H98.6281Z" fill="#292C33" fill-opacity="0.8"/>
<path d="M67.5504 307.25V304.734L78.0954 294.559C79.0327 293.671 79.7234 292.894 80.1674 292.228C80.6361 291.537 80.9444 290.908 81.0924 290.341C81.2651 289.749 81.3514 289.182 81.3514 288.639C81.3514 287.307 80.8827 286.259 79.9454 285.494C79.0081 284.729 77.6391 284.347 75.8384 284.347C74.4571 284.347 73.2114 284.581 72.1014 285.05C70.9914 285.494 70.0294 286.197 69.2154 287.159L66.6994 284.976C67.6861 283.718 69.0057 282.756 70.6584 282.09C72.3357 281.399 74.1734 281.054 76.1714 281.054C77.9721 281.054 79.5384 281.35 80.8704 281.942C82.2024 282.509 83.2261 283.336 83.9414 284.421C84.6814 285.506 85.0514 286.789 85.0514 288.269C85.0514 289.108 84.9404 289.934 84.7184 290.748C84.4964 291.562 84.0771 292.425 83.4604 293.338C82.8437 294.251 81.9557 295.274 80.7964 296.409L71.3984 305.474L70.5104 304.031H86.1614V307.25H67.5504ZM99.3045 307.546C97.2078 307.546 95.3948 307.238 93.8655 306.621C92.3362 306.004 91.1522 305.129 90.3135 303.994C89.4748 302.835 89.0555 301.478 89.0555 299.924C89.0555 298.395 89.4502 297.1 90.2395 296.039C91.0535 294.954 92.2252 294.14 93.7545 293.597C95.2838 293.03 97.1338 292.746 99.3045 292.746C101.475 292.746 103.325 293.03 104.854 293.597C106.408 294.14 107.592 294.954 108.406 296.039C109.22 297.124 109.627 298.419 109.627 299.924C109.627 301.478 109.208 302.835 108.369 303.994C107.531 305.129 106.334 306.004 104.78 306.621C103.226 307.238 101.401 307.546 99.3045 307.546ZM99.3045 304.549C101.376 304.549 102.992 304.13 104.151 303.291C105.335 302.428 105.927 301.268 105.927 299.813C105.927 298.382 105.335 297.26 104.151 296.446C102.992 295.607 101.376 295.188 99.3045 295.188C97.2572 295.188 95.6538 295.607 94.4945 296.446C93.3352 297.26 92.7555 298.382 92.7555 299.813C92.7555 301.268 93.3352 302.428 94.4945 303.291C95.6538 304.13 97.2572 304.549 99.3045 304.549ZM99.3045 294.744C97.3312 294.744 95.6538 294.485 94.2725 293.967C92.8912 293.424 91.8305 292.66 91.0905 291.673C90.3505 290.662 89.9805 289.465 89.9805 288.084C89.9805 286.629 90.3628 285.383 91.1275 284.347C91.9168 283.286 93.0145 282.472 94.4205 281.905C95.8265 281.338 97.4545 281.054 99.3045 281.054C101.179 281.054 102.819 281.338 104.225 281.905C105.631 282.472 106.729 283.286 107.518 284.347C108.308 285.383 108.702 286.629 108.702 288.084C108.702 289.465 108.332 290.662 107.592 291.673C106.852 292.66 105.779 293.424 104.373 293.967C102.967 294.485 101.278 294.744 99.3045 294.744ZM99.3045 292.376C101.105 292.376 102.511 292.006 103.522 291.266C104.558 290.526 105.076 289.515 105.076 288.232C105.076 286.925 104.546 285.901 103.485 285.161C102.425 284.421 101.031 284.051 99.3045 284.051C97.5778 284.051 96.1965 284.421 95.1605 285.161C94.1492 285.901 93.6435 286.925 93.6435 288.232C93.6435 289.515 94.1368 290.526 95.1235 291.266C96.1348 292.006 97.5285 292.376 99.3045 292.376Z" fill="#292C33" fill-opacity="0.8"/>
<path d="M132.538 307.25V304.734L143.083 294.559C144.021 293.671 144.711 292.894 145.155 292.228C145.624 291.537 145.932 290.908 146.08 290.341C146.253 289.749 146.339 289.182 146.339 288.639C146.339 287.307 145.871 286.259 144.933 285.494C143.996 284.729 142.627 284.347 140.826 284.347C139.445 284.347 138.199 284.581 137.089 285.05C135.979 285.494 135.017 286.197 134.203 287.159L131.687 284.976C132.674 283.718 133.994 282.756 135.646 282.09C137.324 281.399 139.161 281.054 141.159 281.054C142.96 281.054 144.526 281.35 145.858 281.942C147.19 282.509 148.214 283.336 148.929 284.421C149.669 285.506 150.039 286.789 150.039 288.269C150.039 289.108 149.928 289.934 149.706 290.748C149.484 291.562 149.065 292.425 148.448 293.338C147.832 294.251 146.944 295.274 145.784 296.409L136.386 305.474L135.498 304.031H151.149V307.25H132.538ZM162.59 281.054C164.934 281.054 166.907 281.56 168.51 282.571C170.138 283.582 171.372 285.05 172.21 286.974C173.049 288.873 173.468 291.204 173.468 293.967C173.468 296.902 172.95 299.381 171.914 301.404C170.878 303.427 169.448 304.956 167.622 305.992C165.797 307.028 163.663 307.546 161.221 307.546C160.013 307.546 158.841 307.423 157.706 307.176C156.596 306.929 155.622 306.547 154.783 306.029L156.189 303.143C156.88 303.587 157.645 303.908 158.483 304.105C159.347 304.278 160.247 304.364 161.184 304.364C163.799 304.364 165.883 303.55 167.437 301.922C168.991 300.269 169.768 297.827 169.768 294.596C169.768 294.078 169.744 293.461 169.694 292.746C169.645 292.031 169.534 291.328 169.361 290.637L170.582 291.895C170.237 293.03 169.657 293.992 168.843 294.781C168.054 295.546 167.092 296.125 165.957 296.52C164.847 296.89 163.626 297.075 162.294 297.075C160.592 297.075 159.075 296.754 157.743 296.113C156.411 295.472 155.363 294.571 154.598 293.412C153.834 292.228 153.451 290.834 153.451 289.231C153.451 287.554 153.846 286.111 154.635 284.902C155.449 283.669 156.547 282.719 157.928 282.053C159.334 281.387 160.888 281.054 162.59 281.054ZM162.738 284.051C161.628 284.051 160.642 284.261 159.778 284.68C158.915 285.099 158.237 285.679 157.743 286.419C157.275 287.159 157.04 288.047 157.04 289.083C157.04 290.612 157.571 291.833 158.631 292.746C159.692 293.634 161.123 294.078 162.923 294.078C164.107 294.078 165.143 293.856 166.031 293.412C166.944 292.968 167.647 292.364 168.14 291.599C168.658 290.834 168.917 289.983 168.917 289.046C168.917 288.133 168.683 287.307 168.214 286.567C167.746 285.827 167.055 285.223 166.142 284.754C165.23 284.285 164.095 284.051 162.738 284.051Z" fill="#292C33" fill-opacity="0.8"/>
<path d="M204.478 307.546C202.653 307.546 200.877 307.262 199.15 306.695C197.448 306.128 196.054 305.363 194.969 304.401L196.671 301.478C197.534 302.292 198.657 302.958 200.038 303.476C201.419 303.994 202.899 304.253 204.478 304.253C206.402 304.253 207.894 303.846 208.955 303.032C210.04 302.193 210.583 301.071 210.583 299.665C210.583 298.308 210.065 297.223 209.029 296.409C208.018 295.57 206.402 295.151 204.182 295.151H202.11V292.561L209.806 283.089L210.324 284.569H196.153V281.35H213.247V283.866L205.588 293.301L203.664 292.154H204.885C208.018 292.154 210.361 292.857 211.915 294.263C213.494 295.669 214.283 297.457 214.283 299.628C214.283 301.083 213.925 302.415 213.21 303.624C212.495 304.833 211.409 305.795 209.954 306.51C208.523 307.201 206.698 307.546 204.478 307.546ZM228.316 307.546C226.293 307.546 224.48 307.028 222.877 305.992C221.298 304.956 220.04 303.451 219.103 301.478C218.19 299.505 217.734 297.112 217.734 294.3C217.734 291.488 218.19 289.095 219.103 287.122C220.04 285.149 221.298 283.644 222.877 282.608C224.48 281.572 226.293 281.054 228.316 281.054C230.314 281.054 232.114 281.572 233.718 282.608C235.321 283.644 236.579 285.149 237.492 287.122C238.404 289.095 238.861 291.488 238.861 294.3C238.861 297.112 238.404 299.505 237.492 301.478C236.579 303.451 235.321 304.956 233.718 305.992C232.114 307.028 230.314 307.546 228.316 307.546ZM228.316 304.253C229.672 304.253 230.856 303.883 231.868 303.143C232.904 302.403 233.705 301.293 234.273 299.813C234.865 298.333 235.161 296.495 235.161 294.3C235.161 292.105 234.865 290.267 234.273 288.787C233.705 287.307 232.904 286.197 231.868 285.457C230.856 284.717 229.672 284.347 228.316 284.347C226.959 284.347 225.763 284.717 224.727 285.457C223.691 286.197 222.877 287.307 222.285 288.787C221.717 290.267 221.434 292.105 221.434 294.3C221.434 296.495 221.717 298.333 222.285 299.813C222.877 301.293 223.691 302.403 224.727 303.143C225.763 303.883 226.959 304.253 228.316 304.253Z" fill="#292C33" fill-opacity="0.8"/>
<path d="M274.97 307.546C273.145 307.546 271.369 307.262 269.642 306.695C267.94 306.128 266.546 305.363 265.461 304.401L267.163 301.478C268.026 302.292 269.149 302.958 270.53 303.476C271.911 303.994 273.391 304.253 274.97 304.253C276.894 304.253 278.386 303.846 279.447 303.032C280.532 302.193 281.075 301.071 281.075 299.665C281.075 298.308 280.557 297.223 279.521 296.409C278.51 295.57 276.894 295.151 274.674 295.151H272.602V292.561L280.298 283.089L280.816 284.569H266.645V281.35H283.739V283.866L276.08 293.301L274.156 292.154H275.377C278.51 292.154 280.853 292.857 282.407 294.263C283.986 295.669 284.775 297.457 284.775 299.628C284.775 301.083 284.417 302.415 283.702 303.624C282.987 304.833 281.901 305.795 280.446 306.51C279.015 307.201 277.19 307.546 274.97 307.546ZM292.592 307.25V282.83L294.183 284.569H286.746V281.35H296.255V307.25H292.592Z" fill="#292C33" fill-opacity="0.8"/>
<path d="M83.9066 136.25L94.8956 111.904L95.8576 113.569H80.4656L82.3156 111.756V118.194H78.7636V110.35H98.2996V112.866L87.8286 136.25H83.9066Z" fill="#292C33" fill-opacity="0.8"/>
</g>
<defs>
<clipPath id="clip0_557_3605">
<rect width="431" height="314" fill="white"/>
</clipPath>
</defs>
</svg>
