<svg width="435" height="314" viewBox="0 0 435 314" fill="none" xmlns="http://www.w3.org/2000/svg">
<g clip-path="url(#clip0_1577_6218)">
<rect width="57" height="47" transform="translate(60 208)" fill="#E4793D"/>
<rect width="57" height="47" transform="translate(-4 208)" fill="#41A05C"/>
<mask id="mask0_1577_6218" style="mask-type:luminance" maskUnits="userSpaceOnUse" x="4" y="0" width="431" height="314">
<path d="M435 0.5H4V313.5H435V0.5Z" fill="white"/>
</mask>
<g mask="url(#mask0_1577_6218)">
<mask id="mask1_1577_6218" style="mask-type:luminance" maskUnits="userSpaceOnUse" x="4" y="0" width="431" height="314">
<path d="M435 0.5H4V313.5H435V0.5Z" fill="white"/>
</mask>
<g mask="url(#mask1_1577_6218)">
<path d="M182.19 267.5H125.19V314.5H182.19V267.5Z" fill="#3C78EC"/>
<path d="M26.9564 20.7099H24.3476V3.77763H14.8906V20.7099H12.2002V1.79028H26.8749V20.7099H26.9564Z" fill="#B3B3B3"/>
<path d="M42.7725 20.7098H40.1636V14.7478H33.7231V20.7098H31.1143V6.6394H33.7231V12.7604H40.1636V6.6394H42.7725V20.7098Z" fill="#B3B3B3"/>
<path d="M77 20.7099V1.79028H83.359C85.3972 1.79028 86.9462 2.18775 88.0875 3.06218C89.2289 3.93662 89.7996 5.20852 89.7996 6.8779C89.7996 7.67284 89.555 8.38829 89.0658 9.10374C88.5767 9.81918 87.8429 10.2167 87.0277 10.5346C88.3321 10.6936 89.3104 11.2501 90.0441 12.1245C90.7779 12.9989 91.1855 14.1119 91.1855 15.3043C91.1855 17.0531 90.6148 18.325 89.4735 19.279C88.3321 20.2329 86.7831 20.6304 84.745 20.6304H77V20.7099ZM79.6904 9.81918H83.9297C84.908 9.81918 85.7233 9.5807 86.294 9.02424C86.9462 8.46778 87.1907 7.75234 87.1907 6.79841C87.1907 5.76498 86.8646 5.04954 86.2124 4.49308C85.5602 4.01611 84.5819 3.69814 83.359 3.69814H79.6904V9.81918ZM79.6904 11.8065V18.643H84.745C85.9678 18.643 86.8646 18.325 87.5168 17.7686C88.1691 17.2121 88.4952 16.3377 88.4952 15.3043C88.4952 14.2708 88.1691 13.3964 87.5168 12.7605C86.8646 12.1245 85.9678 11.8065 84.745 11.727H84.5819H79.6904V11.8065Z" fill="#B3B3B3"/>
<path d="M105.126 8.62675H100.398V20.7098H97.7888V8.62675H93.0603V6.6394H105.126V8.62675Z" fill="#B3B3B3"/>
<path d="M154.512 14.6681C154.593 16.4965 153.941 18.0069 152.637 19.1993C151.332 20.3917 149.62 21.0277 147.419 21.0277C145.218 21.0277 143.424 20.2327 142.038 18.7223C140.652 17.212 140 15.3041 140 12.9193V9.58057C140 7.27524 140.652 5.28789 142.038 3.7775C143.424 2.26711 145.218 1.47217 147.419 1.47217C149.62 1.47217 151.332 2.02863 152.637 3.14155C153.941 4.25446 154.593 5.76485 154.512 7.67271V7.7522H151.984C151.984 6.4008 151.577 5.36738 150.761 4.57244C149.946 3.7775 148.805 3.38003 147.337 3.38003C145.87 3.38003 144.729 3.93649 143.832 5.1289C142.935 6.24182 142.527 7.67271 142.527 9.42158V12.8398C142.527 14.5887 142.935 16.0195 143.832 17.1325C144.729 18.2454 145.87 18.8813 147.337 18.8813C148.805 18.8813 149.946 18.4839 150.761 17.7684C151.577 16.9735 151.984 15.9401 151.984 14.5887H154.512V14.6681Z" fill="#B3B3B3"/>
<path d="M169.92 14.1913C169.92 16.2581 169.431 17.848 168.453 19.1199C167.474 20.3918 166.088 20.9483 164.295 20.9483C163.398 20.9483 162.664 20.7893 161.93 20.5508C161.278 20.2328 160.708 19.8353 160.218 19.2789V26.1154H157.61V6.63936H159.648L160.055 8.46773C160.545 7.75228 161.115 7.27532 161.849 6.95734C162.583 6.63936 163.398 6.40088 164.295 6.40088C166.088 6.40088 167.474 7.11633 168.453 8.46773C169.431 9.81913 169.92 11.6475 169.92 13.9528V14.1913ZM167.311 13.9528C167.311 12.3629 166.985 11.0115 166.333 10.0576C165.681 9.10368 164.702 8.54722 163.479 8.54722C162.746 8.54722 162.094 8.70621 161.523 9.02419C160.952 9.34216 160.545 9.81913 160.218 10.3756V17.212C160.545 17.7685 160.952 18.2455 161.523 18.5634C162.094 18.8814 162.746 19.0404 163.479 19.0404C164.702 19.0404 165.681 18.5634 166.333 17.689C166.985 16.8146 167.311 15.6222 167.311 14.2708V13.9528Z" fill="#B3B3B3"/>
<path d="M219.43 1.79028V20.7099H216.821V12.8399C216.006 13.0784 215.191 13.2374 214.375 13.3964C213.56 13.4759 212.663 13.5554 211.522 13.5554C209.402 13.5554 207.772 13.0784 206.631 12.204C205.489 11.3296 205 9.81918 205 7.75234V1.79028H207.609V7.75234C207.609 9.18323 207.935 10.1372 208.506 10.6936C209.158 11.2501 210.136 11.4885 211.441 11.4885C212.337 11.4885 213.234 11.4091 214.131 11.3296C214.946 11.1706 215.843 11.0116 216.74 10.7731V1.79028H219.43Z" fill="#B3B3B3"/>
<path d="M234.675 8.62675H229.947V20.7098H227.338V8.62675H222.61V6.6394H234.675V8.62675Z" fill="#B3B3B3"/>
<path d="M283.675 20.7099H281.066V3.77763H271.609V20.7099H269V1.79028H283.675V20.7099Z" fill="#B3B3B3"/>
<path d="M298.92 8.62675H294.192V20.7098H291.583V8.62675H286.854V6.6394H298.92V8.62675Z" fill="#B3B3B3"/>
<path d="M348.512 14.6682C348.593 16.4965 347.941 18.0069 346.637 19.1993C345.332 20.3918 343.62 21.0277 341.419 21.0277C339.218 21.0277 337.424 20.2328 336.038 18.7224C334.652 17.212 334 15.3041 334 12.9193V9.58057C334 7.27524 334.652 5.28789 336.038 3.7775C337.424 2.26711 339.218 1.47217 341.419 1.47217C343.62 1.47217 345.332 2.02863 346.637 3.14155C347.941 4.25446 348.593 5.76485 348.512 7.67271V7.75221H345.984C345.984 6.40081 345.577 5.36738 344.761 4.57244C343.946 3.7775 342.805 3.38003 341.337 3.38003C339.87 3.38003 338.729 3.93649 337.832 5.1289C336.935 6.24182 336.527 7.67271 336.527 9.42158V12.8398C336.527 14.5887 336.935 16.0196 337.832 17.1325C338.729 18.2454 339.87 18.8814 341.337 18.8814C342.805 18.8814 343.946 18.4839 344.761 17.7685C345.577 16.9735 345.984 15.9401 345.984 14.5887H348.512V14.6682Z" fill="#B3B3B3"/>
<path d="M357.887 6.40073C359.762 6.40073 361.148 7.03668 362.208 8.38808C363.268 9.73948 363.838 11.4088 363.838 13.5551V13.8731C363.838 15.94 363.268 17.6888 362.126 19.0402C360.985 20.3916 359.436 21.0276 357.398 21.0276C355.36 21.0276 353.811 20.3916 352.669 19.0402C351.528 17.6888 350.957 16.0195 350.957 13.8731V13.5551C350.957 13.4757 350.957 13.3962 350.957 13.3962C350.957 13.3167 350.957 13.3167 350.957 13.2372V10.2164C350.957 7.51365 351.528 5.60579 352.588 4.33388C353.648 3.06198 355.278 2.42602 357.398 2.26704C358.621 2.18754 359.599 2.02855 360.251 1.79007C360.903 1.55159 361.23 1.15411 361.23 0.597656H363.268V0.677151C363.349 2.02855 362.86 2.98248 361.882 3.53894C360.903 4.0954 359.517 4.41338 357.642 4.41338C356.256 4.41338 355.197 4.81085 354.381 5.52629C353.566 6.24174 353.158 7.27516 353.158 8.62656V8.70606C353.648 8.07011 354.381 7.51365 355.197 7.11618C356.012 6.71871 356.99 6.40073 357.887 6.40073ZM357.398 8.38808C356.175 8.38808 355.197 8.86505 354.544 9.81898C353.892 10.7729 353.566 12.0448 353.566 13.4757V13.7936C353.566 15.304 353.892 16.4964 354.544 17.4504C355.197 18.4043 356.175 18.8813 357.398 18.8813C358.621 18.8813 359.599 18.4043 360.251 17.4504C360.903 16.4964 361.23 15.2245 361.23 13.7936V13.4757C361.23 11.9653 360.903 10.7729 360.251 9.81898C359.599 8.86505 358.621 8.38808 357.398 8.38808Z" fill="#B3B3B3"/>
<path d="M398 20.7099V1.79028H404.359C406.397 1.79028 407.946 2.18775 409.088 3.06218C410.229 3.93662 410.8 5.20852 410.8 6.8779C410.8 7.67284 410.555 8.38829 410.066 9.10374C409.577 9.81918 408.843 10.2167 408.028 10.6141C409.332 10.7731 410.31 11.3296 411.044 12.204C411.778 13.0784 412.186 14.1913 412.186 15.3838C412.186 17.1326 411.615 18.4045 410.473 19.3585C409.332 20.3124 407.783 20.7099 405.745 20.7099H398ZM400.69 9.81918H404.93C405.908 9.81918 406.723 9.5807 407.294 9.02424C407.946 8.46778 408.191 7.75234 408.191 6.79841C408.191 5.76498 407.865 5.04954 407.212 4.49308C406.56 4.01611 405.582 3.69814 404.359 3.69814H400.69V9.81918ZM400.69 11.8065V18.643H405.745C406.968 18.643 407.865 18.325 408.517 17.7686C409.169 17.2121 409.495 16.3377 409.495 15.3043C409.495 14.2708 409.169 13.3964 408.517 12.7605C407.865 12.1245 406.968 11.8065 405.745 11.727H405.582H400.69V11.8065Z" fill="#B3B3B3"/>
<path d="M420.745 18.9608C421.561 18.9608 422.294 18.7223 422.865 18.1659C423.436 17.6094 423.762 16.9735 423.762 16.258H426.126V16.3375C426.126 17.5299 425.637 18.6428 424.496 19.5968C423.354 20.5507 422.131 21.0277 420.664 21.0277C418.626 21.0277 417.077 20.3917 415.935 19.0403C414.794 17.6889 414.305 16.0195 414.305 14.0322V13.4757C414.305 11.4884 414.876 9.81898 415.935 8.46758C417.077 7.11618 418.626 6.48022 420.582 6.48022C422.213 6.48022 423.517 6.95719 424.496 7.91112C425.474 8.86505 426.045 10.0575 425.963 11.4884V11.5679H423.599C423.599 10.6934 423.273 9.97796 422.702 9.34201C422.131 8.70606 421.398 8.46758 420.501 8.46758C419.196 8.46758 418.3 8.94454 417.647 9.89847C417.077 10.8524 416.751 12.0448 416.751 13.4757V14.0322C416.751 15.4631 417.077 16.6555 417.647 17.6094C418.544 18.4838 419.441 18.9608 420.745 18.9608Z" fill="#B3B3B3"/>
<path d="M283.295 74.5001V50.0801L284.886 51.8191H277.449V48.6001H286.958V74.5001H283.295Z" fill="#292C33"/>
<path d="M282.912 126.796C280.815 126.796 279.002 126.488 277.473 125.871C275.943 125.254 274.759 124.379 273.921 123.244C273.082 122.085 272.663 120.728 272.663 119.174C272.663 117.645 273.057 116.35 273.847 115.289C274.661 114.204 275.832 113.39 277.362 112.847C278.891 112.28 280.741 111.996 282.912 111.996C285.082 111.996 286.932 112.28 288.462 112.847C290.016 113.39 291.2 114.204 292.014 115.289C292.828 116.374 293.235 117.669 293.235 119.174C293.235 120.728 292.815 122.085 291.977 123.244C291.138 124.379 289.942 125.254 288.388 125.871C286.834 126.488 285.008 126.796 282.912 126.796ZM282.912 123.799C284.984 123.799 286.599 123.38 287.759 122.541C288.943 121.678 289.535 120.518 289.535 119.063C289.535 117.632 288.943 116.51 287.759 115.696C286.599 114.857 284.984 114.438 282.912 114.438C280.864 114.438 279.261 114.857 278.102 115.696C276.942 116.51 276.363 117.632 276.363 119.063C276.363 120.518 276.942 121.678 278.102 122.541C279.261 123.38 280.864 123.799 282.912 123.799ZM282.912 113.994C280.938 113.994 279.261 113.735 277.88 113.217C276.498 112.674 275.438 111.91 274.698 110.923C273.958 109.912 273.588 108.715 273.588 107.334C273.588 105.879 273.97 104.633 274.735 103.597C275.524 102.536 276.622 101.722 278.028 101.155C279.434 100.588 281.062 100.304 282.912 100.304C284.786 100.304 286.427 100.588 287.833 101.155C289.239 101.722 290.336 102.536 291.126 103.597C291.915 104.633 292.31 105.879 292.31 107.334C292.31 108.715 291.94 109.912 291.2 110.923C290.46 111.91 289.387 112.674 287.981 113.217C286.575 113.735 284.885 113.994 282.912 113.994ZM282.912 111.626C284.712 111.626 286.118 111.256 287.13 110.516C288.166 109.776 288.684 108.765 288.684 107.482C288.684 106.175 288.153 105.151 287.093 104.411C286.032 103.671 284.638 103.301 282.912 103.301C281.185 103.301 279.804 103.671 278.768 104.411C277.756 105.151 277.251 106.175 277.251 107.482C277.251 108.765 277.744 109.776 278.731 110.516C279.742 111.256 281.136 111.626 282.912 111.626Z" fill="#292C33"/>
<path d="M271.612 185.5V161.08L273.203 162.819H265.766V159.6H275.275V185.5H271.612ZM289.303 185.796C287.477 185.796 285.701 185.512 283.975 184.945C282.273 184.378 280.879 183.613 279.794 182.651L281.496 179.728C282.359 180.542 283.481 181.208 284.863 181.726C286.244 182.244 287.712 182.503 289.266 182.503C291.239 182.503 292.756 182.084 293.817 181.245C294.877 180.406 295.408 179.284 295.408 177.878C295.408 176.916 295.173 176.077 294.705 175.362C294.236 174.647 293.422 174.104 292.263 173.734C291.128 173.339 289.562 173.142 287.564 173.142H281.681L283.05 159.6H297.665V162.819H284.419L286.343 161.006L285.27 171.699L283.346 169.923H288.341C290.931 169.923 293.015 170.256 294.594 170.922C296.172 171.588 297.319 172.513 298.035 173.697C298.75 174.856 299.108 176.201 299.108 177.73C299.108 179.21 298.75 180.567 298.035 181.8C297.319 183.009 296.234 183.983 294.779 184.723C293.348 185.438 291.523 185.796 289.303 185.796Z" fill="#292C33"/>
<path d="M263.063 244.5V241.984L273.608 231.809C274.546 230.921 275.236 230.144 275.68 229.478C276.149 228.787 276.457 228.158 276.605 227.591C276.778 226.999 276.864 226.432 276.864 225.889C276.864 224.557 276.396 223.509 275.458 222.744C274.521 221.979 273.152 221.597 271.351 221.597C269.97 221.597 268.724 221.831 267.614 222.3C266.504 222.744 265.542 223.447 264.728 224.409L262.212 222.226C263.199 220.968 264.519 220.006 266.171 219.34C267.849 218.649 269.686 218.304 271.684 218.304C273.485 218.304 275.051 218.6 276.383 219.192C277.715 219.759 278.739 220.586 279.454 221.671C280.194 222.756 280.564 224.039 280.564 225.519C280.564 226.358 280.453 227.184 280.231 227.998C280.009 228.812 279.59 229.675 278.973 230.588C278.357 231.501 277.469 232.524 276.309 233.659L266.911 242.724L266.023 241.281H281.674V244.5H263.063ZM284.309 244.5V241.984L294.854 231.809C295.792 230.921 296.482 230.144 296.926 229.478C297.395 228.787 297.703 228.158 297.851 227.591C298.024 226.999 298.11 226.432 298.11 225.889C298.11 224.557 297.642 223.509 296.704 222.744C295.767 221.979 294.398 221.597 292.597 221.597C291.216 221.597 289.97 221.831 288.86 222.3C287.75 222.744 286.788 223.447 285.974 224.409L283.458 222.226C284.445 220.968 285.765 220.006 287.417 219.34C289.095 218.649 290.932 218.304 292.93 218.304C294.731 218.304 296.297 218.6 297.629 219.192C298.961 219.759 299.985 220.586 300.7 221.671C301.44 222.756 301.81 224.039 301.81 225.519C301.81 226.358 301.699 227.184 301.477 227.998C301.255 228.812 300.836 229.675 300.219 230.588C299.603 231.501 298.715 232.524 297.555 233.659L288.157 242.724L287.269 241.281H302.92V244.5H284.309Z" fill="#292C33"/>
<path d="M262.268 303.5V300.984L272.813 290.809C273.751 289.921 274.441 289.144 274.885 288.478C275.354 287.787 275.662 287.158 275.81 286.591C275.983 285.999 276.069 285.432 276.069 284.889C276.069 283.557 275.601 282.509 274.663 281.744C273.726 280.979 272.357 280.597 270.556 280.597C269.175 280.597 267.929 280.831 266.819 281.3C265.709 281.744 264.747 282.447 263.933 283.409L261.417 281.226C262.404 279.968 263.724 279.006 265.376 278.34C267.054 277.649 268.891 277.304 270.889 277.304C272.69 277.304 274.256 277.6 275.588 278.192C276.92 278.759 277.944 279.586 278.659 280.671C279.399 281.756 279.769 283.039 279.769 284.519C279.769 285.358 279.658 286.184 279.436 286.998C279.214 287.812 278.795 288.675 278.178 289.588C277.562 290.501 276.674 291.524 275.514 292.659L266.116 301.724L265.228 300.281H280.879V303.5H262.268ZM292.321 277.304C294.664 277.304 296.637 277.81 298.241 278.821C299.869 279.832 301.102 281.3 301.941 283.224C302.779 285.123 303.199 287.454 303.199 290.217C303.199 293.152 302.681 295.631 301.645 297.654C300.609 299.677 299.178 301.206 297.353 302.242C295.527 303.278 293.394 303.796 290.952 303.796C289.743 303.796 288.571 303.673 287.437 303.426C286.327 303.179 285.352 302.797 284.514 302.279L285.92 299.393C286.61 299.837 287.375 300.158 288.214 300.355C289.077 300.528 289.977 300.614 290.915 300.614C293.529 300.614 295.614 299.8 297.168 298.172C298.722 296.519 299.499 294.077 299.499 290.846C299.499 290.328 299.474 289.711 299.425 288.996C299.375 288.281 299.264 287.578 299.092 286.887L300.313 288.145C299.967 289.28 299.388 290.242 298.574 291.031C297.784 291.796 296.822 292.375 295.688 292.77C294.578 293.14 293.357 293.325 292.025 293.325C290.323 293.325 288.806 293.004 287.474 292.363C286.142 291.722 285.093 290.821 284.329 289.662C283.564 288.478 283.182 287.084 283.182 285.481C283.182 283.804 283.576 282.361 284.366 281.152C285.18 279.919 286.277 278.969 287.659 278.303C289.065 277.637 290.619 277.304 292.321 277.304ZM292.469 280.301C291.359 280.301 290.372 280.511 289.509 280.93C288.645 281.349 287.967 281.929 287.474 282.669C287.005 283.409 286.771 284.297 286.771 285.333C286.771 286.862 287.301 288.083 288.362 288.996C289.422 289.884 290.853 290.328 292.654 290.328C293.838 290.328 294.874 290.106 295.762 289.662C296.674 289.218 297.377 288.614 297.871 287.849C298.389 287.084 298.648 286.233 298.648 285.296C298.648 284.383 298.413 283.557 297.945 282.817C297.476 282.077 296.785 281.473 295.873 281.004C294.96 280.535 293.825 280.301 292.469 280.301Z" fill="#292C33"/>
<path d="M335.496 74.5V71.984L346.041 61.809C346.978 60.921 347.669 60.144 348.113 59.478C348.582 58.7873 348.89 58.1583 349.038 57.591C349.211 56.999 349.297 56.4317 349.297 55.889C349.297 54.557 348.828 53.5087 347.891 52.744C346.954 51.9793 345.585 51.597 343.784 51.597C342.403 51.597 341.157 51.8313 340.047 52.3C338.937 52.744 337.975 53.447 337.161 54.409L334.645 52.226C335.632 50.968 336.951 50.006 338.604 49.34C340.281 48.6493 342.119 48.304 344.117 48.304C345.918 48.304 347.484 48.6 348.816 49.192C350.148 49.7593 351.172 50.5857 351.887 51.671C352.627 52.7563 352.997 54.039 352.997 55.519C352.997 56.3577 352.886 57.184 352.664 57.998C352.442 58.812 352.023 59.6753 351.406 60.588C350.789 61.5007 349.901 62.5243 348.742 63.659L339.344 72.724L338.456 71.281H354.107V74.5H335.496Z" fill="#292C33"/>
<path d="M346.197 100.304C348.541 100.304 350.514 100.81 352.117 101.821C353.745 102.832 354.979 104.3 355.817 106.224C356.656 108.123 357.075 110.454 357.075 113.217C357.075 116.152 356.557 118.631 355.521 120.654C354.485 122.677 353.055 124.206 351.229 125.242C349.404 126.278 347.27 126.796 344.828 126.796C343.62 126.796 342.448 126.673 341.313 126.426C340.203 126.179 339.229 125.797 338.39 125.279L339.796 122.393C340.487 122.837 341.252 123.158 342.09 123.355C342.954 123.528 343.854 123.614 344.791 123.614C347.406 123.614 349.49 122.8 351.044 121.172C352.598 119.519 353.375 117.077 353.375 113.846C353.375 113.328 353.351 112.711 353.301 111.996C353.252 111.281 353.141 110.578 352.968 109.887L354.189 111.145C353.844 112.28 353.264 113.242 352.45 114.031C351.661 114.796 350.699 115.375 349.564 115.77C348.454 116.14 347.233 116.325 345.901 116.325C344.199 116.325 342.682 116.004 341.35 115.363C340.018 114.722 338.97 113.821 338.205 112.662C337.441 111.478 337.058 110.084 337.058 108.481C337.058 106.804 337.453 105.361 338.242 104.152C339.056 102.919 340.154 101.969 341.535 101.303C342.941 100.637 344.495 100.304 346.197 100.304ZM346.345 103.301C345.235 103.301 344.249 103.511 343.385 103.93C342.522 104.349 341.844 104.929 341.35 105.669C340.882 106.409 340.647 107.297 340.647 108.333C340.647 109.862 341.178 111.083 342.238 111.996C343.299 112.884 344.73 113.328 346.53 113.328C347.714 113.328 348.75 113.106 349.638 112.662C350.551 112.218 351.254 111.614 351.747 110.849C352.265 110.084 352.524 109.233 352.524 108.296C352.524 107.383 352.29 106.557 351.821 105.817C351.353 105.077 350.662 104.473 349.749 104.004C348.837 103.535 347.702 103.301 346.345 103.301Z" fill="#292C33"/>
<path d="M335.317 185.5V161.08L336.908 162.819H329.471V159.6H338.98V185.5H335.317ZM355.524 185.796C353.23 185.796 351.269 185.29 349.641 184.279C348.013 183.268 346.767 181.812 345.904 179.913C345.065 177.989 344.646 175.646 344.646 172.883C344.646 169.948 345.164 167.469 346.2 165.446C347.236 163.423 348.679 161.894 350.529 160.858C352.379 159.822 354.5 159.304 356.893 159.304C358.126 159.304 359.298 159.427 360.408 159.674C361.542 159.921 362.517 160.303 363.331 160.821L361.925 163.707C361.259 163.238 360.494 162.918 359.631 162.745C358.792 162.572 357.904 162.486 356.967 162.486C354.327 162.486 352.231 163.312 350.677 164.965C349.123 166.593 348.346 169.023 348.346 172.254C348.346 172.772 348.37 173.389 348.42 174.104C348.469 174.819 348.592 175.522 348.79 176.213L347.532 174.955C347.902 173.82 348.481 172.871 349.271 172.106C350.085 171.317 351.047 170.737 352.157 170.367C353.291 169.972 354.512 169.775 355.82 169.775C357.546 169.775 359.076 170.096 360.408 170.737C361.74 171.378 362.788 172.291 363.553 173.475C364.317 174.634 364.7 176.016 364.7 177.619C364.7 179.272 364.293 180.715 363.479 181.948C362.665 183.181 361.567 184.131 360.186 184.797C358.804 185.463 357.25 185.796 355.524 185.796ZM355.376 182.799C356.51 182.799 357.497 182.589 358.336 182.17C359.199 181.751 359.877 181.171 360.371 180.431C360.864 179.666 361.111 178.778 361.111 177.767C361.111 176.238 360.58 175.029 359.52 174.141C358.459 173.228 357.016 172.772 355.191 172.772C354.007 172.772 352.971 172.994 352.083 173.438C351.195 173.882 350.492 174.486 349.974 175.251C349.48 175.991 349.234 176.842 349.234 177.804C349.234 178.692 349.468 179.518 349.937 180.283C350.405 181.023 351.096 181.627 352.009 182.096C352.921 182.565 354.044 182.799 355.376 182.799Z" fill="#292C33"/>
<path d="M327.599 244.5V241.984L338.144 231.809C339.082 230.921 339.772 230.144 340.216 229.478C340.685 228.787 340.993 228.158 341.141 227.591C341.314 226.999 341.4 226.432 341.4 225.889C341.4 224.557 340.932 223.509 339.994 222.744C339.057 221.979 337.688 221.597 335.887 221.597C334.506 221.597 333.26 221.831 332.15 222.3C331.04 222.744 330.078 223.447 329.264 224.409L326.748 222.226C327.735 220.968 329.055 220.006 330.707 219.34C332.385 218.649 334.222 218.304 336.22 218.304C338.021 218.304 339.587 218.6 340.919 219.192C342.251 219.759 343.275 220.586 343.99 221.671C344.73 222.756 345.1 224.039 345.1 225.519C345.1 226.358 344.989 227.184 344.767 227.998C344.545 228.812 344.126 229.675 343.509 230.588C342.893 231.501 342.005 232.524 340.845 233.659L331.447 242.724L330.559 241.281H346.21V244.5H327.599ZM357.171 244.796C355.345 244.796 353.569 244.512 351.843 243.945C350.141 243.378 348.747 242.613 347.662 241.651L349.364 238.728C350.227 239.542 351.349 240.208 352.731 240.726C354.112 241.244 355.592 241.503 357.171 241.503C359.095 241.503 360.587 241.096 361.648 240.282C362.733 239.443 363.276 238.321 363.276 236.915C363.276 235.558 362.758 234.473 361.722 233.659C360.71 232.82 359.095 232.401 356.875 232.401H354.803V229.811L362.499 220.339L363.017 221.819H348.846V218.6H365.94V221.116L358.281 230.551L356.357 229.404H357.578C360.71 229.404 363.054 230.107 364.608 231.513C366.186 232.919 366.976 234.707 366.976 236.878C366.976 238.333 366.618 239.665 365.903 240.874C365.187 242.083 364.102 243.045 362.647 243.76C361.216 244.451 359.391 244.796 357.171 244.796Z" fill="#292C33"/>
<path d="M334.208 303.796C332.383 303.796 330.607 303.512 328.88 302.945C327.178 302.378 325.784 301.613 324.699 300.651L326.401 297.728C327.264 298.542 328.387 299.208 329.768 299.726C331.149 300.244 332.629 300.503 334.208 300.503C336.132 300.503 337.624 300.096 338.685 299.282C339.77 298.443 340.313 297.321 340.313 295.915C340.313 294.558 339.795 293.473 338.759 292.659C337.748 291.82 336.132 291.401 333.912 291.401H331.84V288.811L339.536 279.339L340.054 280.819H325.883V277.6H342.977V280.116L335.318 289.551L333.394 288.404H334.615C337.748 288.404 340.091 289.107 341.645 290.513C343.224 291.919 344.013 293.707 344.013 295.878C344.013 297.333 343.655 298.665 342.94 299.874C342.225 301.083 341.139 302.045 339.684 302.76C338.253 303.451 336.428 303.796 334.208 303.796ZM358.046 303.796C356.023 303.796 354.21 303.278 352.607 302.242C351.028 301.206 349.77 299.701 348.833 297.728C347.92 295.755 347.464 293.362 347.464 290.55C347.464 287.738 347.92 285.345 348.833 283.372C349.77 281.399 351.028 279.894 352.607 278.858C354.21 277.822 356.023 277.304 358.046 277.304C360.044 277.304 361.845 277.822 363.448 278.858C365.051 279.894 366.309 281.399 367.222 283.372C368.135 285.345 368.591 287.738 368.591 290.55C368.591 293.362 368.135 295.755 367.222 297.728C366.309 299.701 365.051 301.206 363.448 302.242C361.845 303.278 360.044 303.796 358.046 303.796ZM358.046 300.503C359.403 300.503 360.587 300.133 361.598 299.393C362.634 298.653 363.436 297.543 364.003 296.063C364.595 294.583 364.891 292.745 364.891 290.55C364.891 288.355 364.595 286.517 364.003 285.037C363.436 283.557 362.634 282.447 361.598 281.707C360.587 280.967 359.403 280.597 358.046 280.597C356.689 280.597 355.493 280.967 354.457 281.707C353.421 282.447 352.607 283.557 352.015 285.037C351.448 286.517 351.164 288.355 351.164 290.55C351.164 292.745 351.448 294.583 352.015 296.063C352.607 297.543 353.421 298.653 354.457 299.393C355.493 300.133 356.689 300.503 358.046 300.503Z" fill="#292C33"/>
<path d="M408.423 74.7961C406.598 74.7961 404.822 74.5124 403.095 73.9451C401.393 73.3778 400 72.6131 398.914 71.6511L400.616 68.7281C401.48 69.5421 402.602 70.2081 403.983 70.7261C405.365 71.2441 406.845 71.5031 408.423 71.5031C410.347 71.5031 411.84 71.0961 412.9 70.2821C413.986 69.4434 414.528 68.3211 414.528 66.9151C414.528 65.5584 414.01 64.4731 412.974 63.6591C411.963 62.8204 410.347 62.4011 408.127 62.4011H406.055V59.8111L413.751 50.3391L414.269 51.8191H400.098V48.6001H417.192V51.1161L409.533 60.5511L407.609 59.4041H408.83C411.963 59.4041 414.306 60.1071 415.86 61.5131C417.439 62.9191 418.228 64.7074 418.228 66.8781C418.228 68.3334 417.871 69.6654 417.155 70.8741C416.44 72.0828 415.355 73.0448 413.899 73.7601C412.469 74.4508 410.643 74.7961 408.423 74.7961Z" fill="#292C33"/>
<path d="M399.396 126.5V102.08L400.987 103.819H393.55V100.6H403.059V126.5H399.396ZM419.306 126.796C417.284 126.796 415.471 126.278 413.867 125.242C412.289 124.206 411.031 122.701 410.093 120.728C409.181 118.755 408.724 116.362 408.724 113.55C408.724 110.738 409.181 108.345 410.093 106.372C411.031 104.399 412.289 102.894 413.867 101.858C415.471 100.822 417.284 100.304 419.306 100.304C421.304 100.304 423.105 100.822 424.708 101.858C426.312 102.894 427.57 104.399 428.482 106.372C429.395 108.345 429.851 110.738 429.851 113.55C429.851 116.362 429.395 118.755 428.482 120.728C427.57 122.701 426.312 124.206 424.708 125.242C423.105 126.278 421.304 126.796 419.306 126.796ZM419.306 123.503C420.663 123.503 421.847 123.133 422.858 122.393C423.894 121.653 424.696 120.543 425.263 119.063C425.855 117.583 426.151 115.745 426.151 113.55C426.151 111.355 425.855 109.517 425.263 108.037C424.696 106.557 423.894 105.447 422.858 104.707C421.847 103.967 420.663 103.597 419.306 103.597C417.95 103.597 416.753 103.967 415.717 104.707C414.681 105.447 413.867 106.557 413.275 108.037C412.708 109.517 412.424 111.355 412.424 113.55C412.424 115.745 412.708 117.583 413.275 119.063C413.867 120.543 414.681 121.653 415.717 122.393C416.753 123.133 417.95 123.503 419.306 123.503Z" fill="#292C33"/>
<path d="M391.172 244.5V241.984L401.717 231.809C402.655 230.921 403.345 230.144 403.789 229.478C404.258 228.787 404.566 228.158 404.714 227.591C404.887 226.999 404.973 226.432 404.973 225.889C404.973 224.557 404.505 223.509 403.567 222.744C402.63 221.979 401.261 221.597 399.46 221.597C398.079 221.597 396.833 221.831 395.723 222.3C394.613 222.744 393.651 223.447 392.837 224.409L390.321 222.226C391.308 220.968 392.628 220.006 394.28 219.34C395.958 218.649 397.795 218.304 399.793 218.304C401.594 218.304 403.16 218.6 404.492 219.192C405.824 219.759 406.848 220.586 407.563 221.671C408.303 222.756 408.673 224.039 408.673 225.519C408.673 226.358 408.562 227.184 408.34 227.998C408.118 228.812 407.699 229.675 407.082 230.588C406.466 231.501 405.578 232.524 404.418 233.659L395.02 242.724L394.132 241.281H409.783V244.5H391.172ZM411.733 238.136V235.546L424.979 218.6H428.975L415.84 235.546L413.953 234.954H434.636V238.136H411.733ZM426.126 244.5V238.136L426.237 234.954V229.33H429.715V244.5H426.126Z" fill="#292C33"/>
<path d="M14.9708 120.136V117.546L28.2168 100.6H32.2128L19.0778 117.546L17.1908 116.954H37.8738V120.136H14.9708ZM29.3638 126.5V120.136L29.4748 116.954V111.33H32.9528V126.5H29.3638Z" fill="#292C33"/>
<path d="M18.388 185.5V161.08L19.979 162.819H12.542V159.6H22.051V185.5H18.388ZM32.0823 185.5V161.08L33.6733 162.819H26.2363V159.6H35.7453V185.5H32.0823Z" fill="#292C33"/>
<path d="M13.3294 244.5V220.08L14.9204 221.819H7.4834V218.6H16.9924V244.5H13.3294ZM32.7587 244.796C30.6621 244.796 28.8491 244.488 27.3197 243.871C25.7904 243.254 24.6064 242.379 23.7677 241.244C22.9291 240.085 22.5097 238.728 22.5097 237.174C22.5097 235.645 22.9044 234.35 23.6937 233.289C24.5077 232.204 25.6794 231.39 27.2087 230.847C28.7381 230.28 30.5881 229.996 32.7587 229.996C34.9294 229.996 36.7794 230.28 38.3087 230.847C39.8627 231.39 41.0467 232.204 41.8607 233.289C42.6747 234.374 43.0817 235.669 43.0817 237.174C43.0817 238.728 42.6624 240.085 41.8237 241.244C40.9851 242.379 39.7887 243.254 38.2347 243.871C36.6807 244.488 34.8554 244.796 32.7587 244.796ZM32.7587 241.799C34.8307 241.799 36.4464 241.38 37.6057 240.541C38.7897 239.678 39.3817 238.518 39.3817 237.063C39.3817 235.632 38.7897 234.51 37.6057 233.696C36.4464 232.857 34.8307 232.438 32.7587 232.438C30.7114 232.438 29.1081 232.857 27.9487 233.696C26.7894 234.51 26.2097 235.632 26.2097 237.063C26.2097 238.518 26.7894 239.678 27.9487 240.541C29.1081 241.38 30.7114 241.799 32.7587 241.799ZM32.7587 231.994C30.7854 231.994 29.1081 231.735 27.7267 231.217C26.3454 230.674 25.2847 229.91 24.5447 228.923C23.8047 227.912 23.4347 226.715 23.4347 225.334C23.4347 223.879 23.8171 222.633 24.5817 221.597C25.3711 220.536 26.4687 219.722 27.8747 219.155C29.2807 218.588 30.9087 218.304 32.7587 218.304C34.6334 218.304 36.2737 218.588 37.6797 219.155C39.0857 219.722 40.1834 220.536 40.9727 221.597C41.7621 222.633 42.1567 223.879 42.1567 225.334C42.1567 226.715 41.7867 227.912 41.0467 228.923C40.3067 229.91 39.2337 230.674 37.8277 231.217C36.4217 231.735 34.7321 231.994 32.7587 231.994ZM32.7587 229.626C34.5594 229.626 35.9654 229.256 36.9767 228.516C38.0127 227.776 38.5307 226.765 38.5307 225.482C38.5307 224.175 38.0004 223.151 36.9397 222.411C35.8791 221.671 34.4854 221.301 32.7587 221.301C31.0321 221.301 29.6507 221.671 28.6147 222.411C27.6034 223.151 27.0977 224.175 27.0977 225.482C27.0977 226.765 27.5911 227.776 28.5777 228.516C29.5891 229.256 30.9827 229.626 32.7587 229.626Z" fill="white"/>
<path d="M6.06328 303.5V300.984L16.6082 290.809C17.5456 289.921 18.2362 289.144 18.6802 288.478C19.1489 287.787 19.4572 287.158 19.6052 286.591C19.7779 285.999 19.8642 285.432 19.8642 284.889C19.8642 283.557 19.3956 282.509 18.4582 281.744C17.5209 280.979 16.1519 280.597 14.3512 280.597C12.9699 280.597 11.7243 280.831 10.6143 281.3C9.50428 281.744 8.54228 282.447 7.72828 283.409L5.21228 281.226C6.19894 279.968 7.51861 279.006 9.17128 278.34C10.8486 277.649 12.6863 277.304 14.6842 277.304C16.4849 277.304 18.0512 277.6 19.3832 278.192C20.7152 278.759 21.7389 279.586 22.4542 280.671C23.1942 281.756 23.5642 283.039 23.5642 284.519C23.5642 285.358 23.4532 286.184 23.2312 286.998C23.0092 287.812 22.5899 288.675 21.9732 289.588C21.3566 290.501 20.4686 291.524 19.3092 292.659L9.91128 301.724L9.02328 300.281H24.6742V303.5H6.06328ZM36.0783 303.796C34.253 303.796 32.477 303.512 30.7503 302.945C29.0483 302.378 27.6547 301.613 26.5693 300.651L28.2713 297.728C29.1347 298.542 30.257 299.208 31.6383 299.726C33.0197 300.244 34.4873 300.503 36.0413 300.503C38.0147 300.503 39.5317 300.084 40.5923 299.245C41.653 298.406 42.1833 297.284 42.1833 295.878C42.1833 294.916 41.949 294.077 41.4803 293.362C41.0117 292.647 40.1977 292.104 39.0383 291.734C37.9037 291.339 36.3373 291.142 34.3393 291.142H28.4563L29.8253 277.6H44.4403V280.819H31.1943L33.1183 279.006L32.0453 289.699L30.1213 287.923H35.1163C37.7063 287.923 39.7907 288.256 41.3693 288.922C42.948 289.588 44.095 290.513 44.8103 291.697C45.5257 292.856 45.8833 294.201 45.8833 295.73C45.8833 297.21 45.5257 298.567 44.8103 299.8C44.095 301.009 43.0097 301.983 41.5543 302.723C40.1237 303.438 38.2983 303.796 36.0783 303.796Z" fill="#292C33"/>
<path d="M88.4553 126.796C86.6299 126.796 84.8539 126.512 83.1273 125.945C81.4253 125.378 80.0316 124.613 78.9463 123.651L80.6483 120.728C81.5116 121.542 82.6339 122.208 84.0153 122.726C85.3966 123.244 86.8643 123.503 88.4183 123.503C90.3916 123.503 91.9086 123.084 92.9693 122.245C94.03 121.406 94.5603 120.284 94.5603 118.878C94.5603 117.916 94.3259 117.077 93.8573 116.362C93.3886 115.647 92.5746 115.104 91.4153 114.734C90.2806 114.339 88.7143 114.142 86.7163 114.142H80.8333L82.2023 100.6H96.8173V103.819H83.5713L85.4953 102.006L84.4223 112.699L82.4983 110.923H87.4933C90.0833 110.923 92.1676 111.256 93.7463 111.922C95.325 112.588 96.472 113.513 97.1873 114.697C97.9026 115.856 98.2603 117.201 98.2603 118.73C98.2603 120.21 97.9026 121.567 97.1873 122.8C96.472 124.009 95.3866 124.983 93.9313 125.723C92.5006 126.438 90.6753 126.796 88.4553 126.796Z" fill="#292C33"/>
<path d="M77.6121 185.5V161.08L79.2031 162.819H71.7661V159.6H81.2751V185.5H77.6121ZM86.5335 185.5V182.984L97.0785 172.809C98.0158 171.921 98.7065 171.144 99.1505 170.478C99.6191 169.787 99.9275 169.158 100.076 168.591C100.248 167.999 100.335 167.432 100.335 166.889C100.335 165.557 99.8658 164.509 98.9285 163.744C97.9911 162.979 96.6221 162.597 94.8215 162.597C93.4401 162.597 92.1945 162.831 91.0845 163.3C89.9745 163.744 89.0125 164.447 88.1985 165.409L85.6825 163.226C86.6691 161.968 87.9888 161.006 89.6415 160.34C91.3188 159.649 93.1565 159.304 95.1545 159.304C96.9551 159.304 98.5215 159.6 99.8535 160.192C101.186 160.759 102.209 161.586 102.925 162.671C103.665 163.756 104.035 165.039 104.035 166.519C104.035 167.358 103.924 168.184 103.702 168.998C103.48 169.812 103.06 170.675 102.444 171.588C101.827 172.501 100.939 173.524 99.7795 174.659L90.3815 183.724L89.4935 182.281H105.145V185.5H86.5335Z" fill="#292C33"/>
<path d="M76.8172 244.5V220.08L78.4082 221.819H70.9712V218.6H80.4802V244.5H76.8172ZM94.5445 218.304C96.8879 218.304 98.8612 218.81 100.464 219.821C102.092 220.832 103.326 222.3 104.165 224.224C105.003 226.123 105.423 228.454 105.423 231.217C105.423 234.152 104.905 236.631 103.868 238.654C102.832 240.677 101.402 242.206 99.5765 243.242C97.7512 244.278 95.6175 244.796 93.1755 244.796C91.9669 244.796 90.7952 244.673 89.6605 244.426C88.5505 244.179 87.5762 243.797 86.7375 243.279L88.1435 240.393C88.8342 240.837 89.5989 241.158 90.4375 241.355C91.3009 241.528 92.2012 241.614 93.1385 241.614C95.7532 241.614 97.8375 240.8 99.3915 239.172C100.945 237.519 101.722 235.077 101.722 231.846C101.722 231.328 101.698 230.711 101.648 229.996C101.599 229.281 101.488 228.578 101.315 227.887L102.536 229.145C102.191 230.28 101.611 231.242 100.797 232.031C100.008 232.796 99.0462 233.375 97.9115 233.77C96.8015 234.14 95.5805 234.325 94.2485 234.325C92.5465 234.325 91.0295 234.004 89.6975 233.363C88.3655 232.722 87.3172 231.821 86.5525 230.662C85.7879 229.478 85.4055 228.084 85.4055 226.481C85.4055 224.804 85.8002 223.361 86.5895 222.152C87.4035 220.919 88.5012 219.969 89.8825 219.303C91.2885 218.637 92.8425 218.304 94.5445 218.304ZM94.6925 221.301C93.5825 221.301 92.5959 221.511 91.7325 221.93C90.8692 222.349 90.1909 222.929 89.6975 223.669C89.2289 224.409 88.9945 225.297 88.9945 226.333C88.9945 227.862 89.5249 229.083 90.5855 229.996C91.6462 230.884 93.0769 231.328 94.8775 231.328C96.0615 231.328 97.0975 231.106 97.9855 230.662C98.8982 230.218 99.6012 229.614 100.094 228.849C100.612 228.084 100.871 227.233 100.871 226.296C100.871 225.383 100.637 224.557 100.168 223.817C99.6999 223.077 99.0092 222.473 98.0965 222.004C97.1839 221.535 96.0492 221.301 94.6925 221.301Z" fill="white"/>
<path d="M68.2864 303.5V300.984L78.8314 290.809C79.7687 289.921 80.4594 289.144 80.9034 288.478C81.372 287.787 81.6804 287.158 81.8284 286.591C82.001 285.999 82.0874 285.432 82.0874 284.889C82.0874 283.557 81.6187 282.509 80.6814 281.744C79.744 280.979 78.375 280.597 76.5744 280.597C75.193 280.597 73.9474 280.831 72.8374 281.3C71.7274 281.744 70.7654 282.447 69.9514 283.409L67.4354 281.226C68.422 279.968 69.7417 279.006 71.3944 278.34C73.0717 277.649 74.9094 277.304 76.9074 277.304C78.708 277.304 80.2744 277.6 81.6064 278.192C82.9384 278.759 83.962 279.586 84.6774 280.671C85.4174 281.756 85.7874 283.039 85.7874 284.519C85.7874 285.358 85.6764 286.184 85.4544 286.998C85.2324 287.812 84.813 288.675 84.1964 289.588C83.5797 290.501 82.6917 291.524 81.5324 292.659L72.1344 301.724L71.2464 300.281H86.8974V303.5H68.2864ZM100.781 303.796C98.4873 303.796 96.5263 303.29 94.8983 302.279C93.2703 301.268 92.0247 299.812 91.1613 297.913C90.3227 295.989 89.9033 293.646 89.9033 290.883C89.9033 287.948 90.4213 285.469 91.4573 283.446C92.4933 281.423 93.9363 279.894 95.7863 278.858C97.6363 277.822 99.7577 277.304 102.15 277.304C103.384 277.304 104.555 277.427 105.665 277.674C106.8 277.921 107.774 278.303 108.588 278.821L107.182 281.707C106.516 281.238 105.752 280.918 104.888 280.745C104.05 280.572 103.162 280.486 102.224 280.486C99.585 280.486 97.4883 281.312 95.9343 282.965C94.3803 284.593 93.6033 287.023 93.6033 290.254C93.6033 290.772 93.628 291.389 93.6773 292.104C93.7267 292.819 93.85 293.522 94.0473 294.213L92.7893 292.955C93.1593 291.82 93.739 290.871 94.5283 290.106C95.3423 289.317 96.3043 288.737 97.4143 288.367C98.549 287.972 99.77 287.775 101.077 287.775C102.804 287.775 104.333 288.096 105.665 288.737C106.997 289.378 108.046 290.291 108.81 291.475C109.575 292.634 109.957 294.016 109.957 295.619C109.957 297.272 109.55 298.715 108.736 299.948C107.922 301.181 106.825 302.131 105.443 302.797C104.062 303.463 102.508 303.796 100.781 303.796ZM100.633 300.799C101.768 300.799 102.755 300.589 103.593 300.17C104.457 299.751 105.135 299.171 105.628 298.431C106.122 297.666 106.368 296.778 106.368 295.767C106.368 294.238 105.838 293.029 104.777 292.141C103.717 291.228 102.274 290.772 100.448 290.772C99.2643 290.772 98.2283 290.994 97.3403 291.438C96.4523 291.882 95.7493 292.486 95.2313 293.251C94.738 293.991 94.4913 294.842 94.4913 295.804C94.4913 296.692 94.7257 297.518 95.1943 298.283C95.663 299.023 96.3537 299.627 97.2663 300.096C98.179 300.565 99.3013 300.799 100.633 300.799Z" fill="#292C33"/>
<path d="M154.676 126.796C152.382 126.796 150.421 126.29 148.793 125.279C147.165 124.268 145.92 122.812 145.056 120.913C144.218 118.989 143.798 116.646 143.798 113.883C143.798 110.948 144.316 108.469 145.352 106.446C146.388 104.423 147.831 102.894 149.681 101.858C151.531 100.822 153.653 100.304 156.045 100.304C157.279 100.304 158.45 100.427 159.56 100.674C160.695 100.921 161.669 101.303 162.483 101.821L161.077 104.707C160.411 104.238 159.647 103.918 158.783 103.745C157.945 103.572 157.057 103.486 156.119 103.486C153.48 103.486 151.383 104.312 149.829 105.965C148.275 107.593 147.498 110.023 147.498 113.254C147.498 113.772 147.523 114.389 147.572 115.104C147.622 115.819 147.745 116.522 147.942 117.213L146.684 115.955C147.054 114.82 147.634 113.871 148.423 113.106C149.237 112.317 150.199 111.737 151.309 111.367C152.444 110.972 153.665 110.775 154.972 110.775C156.699 110.775 158.228 111.096 159.56 111.737C160.892 112.378 161.941 113.291 162.705 114.475C163.47 115.634 163.852 117.016 163.852 118.619C163.852 120.272 163.445 121.715 162.631 122.948C161.817 124.181 160.72 125.131 159.338 125.797C157.957 126.463 156.403 126.796 154.676 126.796ZM154.528 123.799C155.663 123.799 156.65 123.589 157.488 123.17C158.352 122.751 159.03 122.171 159.523 121.431C160.017 120.666 160.263 119.778 160.263 118.767C160.263 117.238 159.733 116.029 158.672 115.141C157.612 114.228 156.169 113.772 154.343 113.772C153.159 113.772 152.123 113.994 151.235 114.438C150.347 114.882 149.644 115.486 149.126 116.251C148.633 116.991 148.386 117.842 148.386 118.804C148.386 119.692 148.621 120.518 149.089 121.283C149.558 122.023 150.249 122.627 151.161 123.096C152.074 123.565 153.196 123.799 154.528 123.799Z" fill="#292C33"/>
<path d="M142.148 185.5V161.08L143.739 162.819H136.302V159.6H145.811V185.5H142.148ZM159.395 185.796C157.569 185.796 155.793 185.512 154.067 184.945C152.365 184.378 150.971 183.613 149.886 182.651L151.588 179.728C152.451 180.542 153.573 181.208 154.955 181.726C156.336 182.244 157.816 182.503 159.395 182.503C161.319 182.503 162.811 182.096 163.872 181.282C164.957 180.443 165.5 179.321 165.5 177.915C165.5 176.558 164.982 175.473 163.946 174.659C162.934 173.82 161.319 173.401 159.099 173.401H157.027V170.811L164.723 161.339L165.241 162.819H151.07V159.6H168.164V162.116L160.505 171.551L158.581 170.404H159.802C162.934 170.404 165.278 171.107 166.832 172.513C168.41 173.919 169.2 175.707 169.2 177.878C169.2 179.333 168.842 180.665 168.127 181.874C167.411 183.083 166.326 184.045 164.871 184.76C163.44 185.451 161.615 185.796 159.395 185.796Z" fill="#292C33"/>
<path d="M131.865 244.5V241.984L142.41 231.809C143.347 230.921 144.038 230.144 144.482 229.478C144.951 228.787 145.259 228.158 145.407 227.591C145.58 226.999 145.666 226.432 145.666 225.889C145.666 224.557 145.197 223.509 144.26 222.744C143.323 221.979 141.954 221.597 140.153 221.597C138.772 221.597 137.526 221.831 136.416 222.3C135.306 222.744 134.344 223.447 133.53 224.409L131.014 222.226C132.001 220.968 133.32 220.006 134.973 219.34C136.65 218.649 138.488 218.304 140.486 218.304C142.287 218.304 143.853 218.6 145.185 219.192C146.517 219.759 147.541 220.586 148.256 221.671C148.996 222.756 149.366 224.039 149.366 225.519C149.366 226.358 149.255 227.184 149.033 227.998C148.811 228.812 148.392 229.675 147.775 230.588C147.158 231.501 146.27 232.524 145.111 233.659L135.713 242.724L134.825 241.281H150.476V244.5H131.865ZM164.064 244.796C162.041 244.796 160.228 244.278 158.625 243.242C157.046 242.206 155.788 240.701 154.851 238.728C153.938 236.755 153.482 234.362 153.482 231.55C153.482 228.738 153.938 226.345 154.851 224.372C155.788 222.399 157.046 220.894 158.625 219.858C160.228 218.822 162.041 218.304 164.064 218.304C166.062 218.304 167.863 218.822 169.466 219.858C171.069 220.894 172.327 222.399 173.24 224.372C174.153 226.345 174.609 228.738 174.609 231.55C174.609 234.362 174.153 236.755 173.24 238.728C172.327 240.701 171.069 242.206 169.466 243.242C167.863 244.278 166.062 244.796 164.064 244.796ZM164.064 241.503C165.421 241.503 166.605 241.133 167.616 240.393C168.652 239.653 169.454 238.543 170.021 237.063C170.613 235.583 170.909 233.745 170.909 231.55C170.909 229.355 170.613 227.517 170.021 226.037C169.454 224.557 168.652 223.447 167.616 222.707C166.605 221.967 165.421 221.597 164.064 221.597C162.707 221.597 161.511 221.967 160.475 222.707C159.439 223.447 158.625 224.557 158.033 226.037C157.466 227.517 157.182 229.355 157.182 231.55C157.182 233.745 157.466 235.583 158.033 237.063C158.625 238.543 159.439 239.653 160.475 240.393C161.511 241.133 162.707 241.503 164.064 241.503Z" fill="#292C33"/>
<path d="M133.148 303.5V300.984L143.693 290.809C144.63 289.921 145.321 289.144 145.765 288.478C146.233 287.787 146.542 287.158 146.69 286.591C146.862 285.999 146.949 285.432 146.949 284.889C146.949 283.557 146.48 282.509 145.543 281.744C144.605 280.979 143.236 280.597 141.436 280.597C140.054 280.597 138.809 280.831 137.699 281.3C136.589 281.744 135.627 282.447 134.813 283.409L132.297 281.226C133.283 279.968 134.603 279.006 136.256 278.34C137.933 277.649 139.771 277.304 141.769 277.304C143.569 277.304 145.136 277.6 146.468 278.192C147.8 278.759 148.823 279.586 149.539 280.671C150.279 281.756 150.649 283.039 150.649 284.519C150.649 285.358 150.538 286.184 150.316 286.998C150.094 287.812 149.674 288.675 149.058 289.588C148.441 290.501 147.553 291.524 146.394 292.659L136.996 301.724L136.108 300.281H151.759V303.5H133.148ZM159.242 303.5L170.231 279.154L171.193 280.819H155.801L157.651 279.006V285.444H154.099V277.6H173.635V280.116L163.164 303.5H159.242Z" fill="white"/>
<path d="M205.36 185.5V161.08L206.951 162.819H199.514V159.6H209.023V185.5H205.36ZM214.318 179.136V176.546L227.564 159.6H231.56L218.425 176.546L216.538 175.954H237.221V179.136H214.318ZM228.711 185.5V179.136L228.822 175.954V170.33H232.3V185.5H228.711Z" fill="#292C33"/>
<path d="M202.339 244.5V241.984L212.884 231.809C213.822 230.921 214.512 230.144 214.956 229.478C215.425 228.787 215.733 228.158 215.881 227.591C216.054 226.999 216.14 226.432 216.14 225.889C216.14 224.557 215.672 223.509 214.734 222.744C213.797 221.979 212.428 221.597 210.627 221.597C209.246 221.597 208 221.831 206.89 222.3C205.78 222.744 204.818 223.447 204.004 224.409L201.488 222.226C202.475 220.968 203.795 220.006 205.447 219.34C207.125 218.649 208.962 218.304 210.96 218.304C212.761 218.304 214.327 218.6 215.659 219.192C216.991 219.759 218.015 220.586 218.73 221.671C219.47 222.756 219.84 224.039 219.84 225.519C219.84 226.358 219.729 227.184 219.507 227.998C219.285 228.812 218.866 229.675 218.249 230.588C217.633 231.501 216.745 232.524 215.585 233.659L206.187 242.724L205.299 241.281H220.95V244.5H202.339ZM228.358 244.5V220.08L229.949 221.819H222.512V218.6H232.021V244.5H228.358Z" fill="#292C33"/>
<path d="M197.281 303.5V300.984L207.826 290.809C208.763 289.921 209.454 289.144 209.898 288.478C210.366 287.787 210.675 287.158 210.823 286.591C210.995 285.999 211.082 285.432 211.082 284.889C211.082 283.557 210.613 282.509 209.676 281.744C208.738 280.979 207.369 280.597 205.569 280.597C204.187 280.597 202.942 280.831 201.832 281.3C200.722 281.744 199.76 282.447 198.946 283.409L196.43 281.226C197.416 279.968 198.736 279.006 200.389 278.34C202.066 277.649 203.904 277.304 205.902 277.304C207.702 277.304 209.269 277.6 210.601 278.192C211.933 278.759 212.956 279.586 213.672 280.671C214.412 281.756 214.782 283.039 214.782 284.519C214.782 285.358 214.671 286.184 214.449 286.998C214.227 287.812 213.807 288.675 213.191 289.588C212.574 290.501 211.686 291.524 210.527 292.659L201.129 301.724L200.241 300.281H215.892V303.5H197.281ZM229.035 303.796C226.938 303.796 225.125 303.488 223.596 302.871C222.066 302.254 220.882 301.379 220.044 300.244C219.205 299.085 218.786 297.728 218.786 296.174C218.786 294.645 219.18 293.35 219.97 292.289C220.784 291.204 221.955 290.39 223.485 289.847C225.014 289.28 226.864 288.996 229.035 288.996C231.205 288.996 233.055 289.28 234.585 289.847C236.139 290.39 237.323 291.204 238.137 292.289C238.951 293.374 239.358 294.669 239.358 296.174C239.358 297.728 238.938 299.085 238.1 300.244C237.261 301.379 236.065 302.254 234.511 302.871C232.957 303.488 231.131 303.796 229.035 303.796ZM229.035 300.799C231.107 300.799 232.722 300.38 233.882 299.541C235.066 298.678 235.658 297.518 235.658 296.063C235.658 294.632 235.066 293.51 233.882 292.696C232.722 291.857 231.107 291.438 229.035 291.438C226.987 291.438 225.384 291.857 224.225 292.696C223.065 293.51 222.486 294.632 222.486 296.063C222.486 297.518 223.065 298.678 224.225 299.541C225.384 300.38 226.987 300.799 229.035 300.799ZM229.035 290.994C227.061 290.994 225.384 290.735 224.003 290.217C222.621 289.674 221.561 288.91 220.821 287.923C220.081 286.912 219.711 285.715 219.711 284.334C219.711 282.879 220.093 281.633 220.858 280.597C221.647 279.536 222.745 278.722 224.151 278.155C225.557 277.588 227.185 277.304 229.035 277.304C230.909 277.304 232.55 277.588 233.956 278.155C235.362 278.722 236.459 279.536 237.249 280.597C238.038 281.633 238.433 282.879 238.433 284.334C238.433 285.715 238.063 286.912 237.323 287.923C236.583 288.91 235.51 289.674 234.104 290.217C232.698 290.735 231.008 290.994 229.035 290.994ZM229.035 288.626C230.835 288.626 232.241 288.256 233.253 287.516C234.289 286.776 234.807 285.765 234.807 284.482C234.807 283.175 234.276 282.151 233.216 281.411C232.155 280.671 230.761 280.301 229.035 280.301C227.308 280.301 225.927 280.671 224.891 281.411C223.879 282.151 223.374 283.175 223.374 284.482C223.374 285.765 223.867 286.776 224.854 287.516C225.865 288.256 227.259 288.626 229.035 288.626Z" fill="#292C33"/>
<path d="M213.637 126.5L224.626 102.154L225.588 103.819H210.196L212.046 102.006V108.444H208.494V100.6H228.03V103.116L217.559 126.5H213.637Z" fill="#292C33"/>
<path d="M400.679 185.5V161.08L402.27 162.819H394.833V159.6H404.342V185.5H400.679ZM414.484 185.5L425.473 161.154L426.435 162.819H411.043L412.893 161.006V167.444H409.341V159.6H428.877V162.116L418.406 185.5H414.484Z" fill="#292C33"/>
</g>
</g>
</g>
<defs>
<clipPath id="clip0_1577_6218">
<rect width="435" height="314" fill="white"/>
</clipPath>
</defs>
</svg>
