<svg width="438" height="313" viewBox="0 0 438 313" fill="none" xmlns="http://www.w3.org/2000/svg">
<g clip-path="url(#clip0_3025_4432)">
<rect width="57" height="47" transform="translate(-1 149)" fill="#E4793D"/>
<rect width="57" height="47" transform="translate(64 149)" fill="#E4793D"/>
<mask id="mask0_3025_4432" style="mask-type:luminance" maskUnits="userSpaceOnUse" x="7" y="0" width="431" height="313">
<path d="M438 0H7V313H438V0Z" fill="white"/>
</mask>
<g mask="url(#mask0_3025_4432)">
<path d="M185.19 265H128.19V312H185.19V265Z" fill="#3C78EC"/>
<path d="M29.9564 20.7264H27.3476V3.36139H17.8906V20.7264H15.2002V1.32324H29.8749V20.7264H29.9564Z" fill="#B3B3B3"/>
<path d="M45.7725 20.7263H43.1636V14.6118H36.7231V20.7263H34.1143V6.29614H36.7231V12.5737H43.1636V6.29614H45.7725V20.7263Z" fill="#B3B3B3"/>
<path d="M80 20.7264V1.32324H86.359C88.3972 1.32324 89.9462 1.73087 91.0875 2.62766C92.2289 3.52444 92.7996 4.82886 92.7996 6.5409C92.7996 7.35616 92.555 8.08989 92.0658 8.82363C91.5767 9.55736 90.8429 9.96499 90.0277 10.2911C91.3321 10.4541 92.3104 11.0248 93.0441 11.9216C93.7779 12.8184 94.1855 13.9598 94.1855 15.1826C94.1855 16.9762 93.6148 18.2806 92.4735 19.2589C91.3321 20.2373 89.7831 20.6449 87.745 20.6449H80V20.7264ZM82.6904 9.55736H86.9297C87.908 9.55736 88.7233 9.31278 89.294 8.7421C89.9462 8.17142 90.1907 7.43769 90.1907 6.45937C90.1907 5.39954 89.8646 4.6658 89.2124 4.09512C88.5602 3.60597 87.5819 3.27986 86.359 3.27986H82.6904V9.55736ZM82.6904 11.5955V18.6067H87.745C88.9678 18.6067 89.8646 18.2806 90.5168 17.71C91.1691 17.1393 91.4952 16.2425 91.4952 15.1826C91.4952 14.1228 91.1691 13.226 90.5168 12.5738C89.8646 11.9216 88.9678 11.5955 87.745 11.514H87.5819H82.6904V11.5955Z" fill="#B3B3B3"/>
<path d="M108.126 8.33429H103.398V20.7263H100.789V8.33429H96.0603V6.29614H108.126V8.33429Z" fill="#B3B3B3"/>
<path d="M157.512 14.5304C157.593 16.4055 156.941 17.9545 155.637 19.1773C154.332 20.4002 152.62 21.0524 150.419 21.0524C148.218 21.0524 146.424 20.2372 145.038 18.6882C143.652 17.1392 143 15.1826 143 12.7368V9.31271C143 6.94846 143.652 4.91031 145.038 3.36132C146.424 1.81233 148.218 0.99707 150.419 0.99707C152.62 0.99707 154.332 1.56775 155.637 2.70911C156.941 3.85048 157.593 5.39947 157.512 7.35609V7.43762H154.984C154.984 6.05168 154.577 4.99184 153.761 4.17658C152.946 3.36132 151.805 2.95369 150.337 2.95369C148.87 2.95369 147.729 3.52437 146.832 4.74726C145.935 5.88862 145.527 7.35609 145.527 9.14966V12.6553C145.527 14.4488 145.935 15.9163 146.832 17.0577C147.729 18.199 148.87 18.8512 150.337 18.8512C151.805 18.8512 152.946 18.4436 153.761 17.7099C154.577 16.8946 154.984 15.8348 154.984 14.4488H157.512V14.5304Z" fill="#B3B3B3"/>
<path d="M172.92 14.0413C172.92 16.161 172.431 17.7915 171.453 19.0959C170.474 20.4003 169.088 20.971 167.295 20.971C166.398 20.971 165.664 20.8079 164.93 20.5634C164.278 20.2373 163.708 19.8296 163.218 19.259V26.2702H160.61V6.29634H162.648L163.055 8.17143C163.545 7.4377 164.115 6.94854 164.849 6.62244C165.583 6.29634 166.398 6.05176 167.295 6.05176C169.088 6.05176 170.474 6.78549 171.453 8.17143C172.431 9.55737 172.92 11.4325 172.92 13.7967V14.0413ZM170.311 13.7967C170.311 12.1662 169.985 10.7803 169.333 9.80195C168.681 8.82364 167.702 8.25296 166.479 8.25296C165.746 8.25296 165.094 8.41601 164.523 8.74211C163.952 9.06822 163.545 9.55737 163.218 10.1281V17.1393C163.545 17.71 163.952 18.1991 164.523 18.5252C165.094 18.8513 165.746 19.0144 166.479 19.0144C167.702 19.0144 168.681 18.5252 169.333 17.6284C169.985 16.7317 170.311 15.5088 170.311 14.1228V13.7967Z" fill="#B3B3B3"/>
<path d="M222.43 1.32324V20.7264H219.821V12.6553C219.006 12.8999 218.191 13.063 217.375 13.226C216.56 13.3076 215.663 13.3891 214.522 13.3891C212.402 13.3891 210.772 12.8999 209.631 12.0031C208.489 11.1064 208 9.55736 208 7.43769V1.32324H210.609V7.43769C210.609 8.90515 210.935 9.88346 211.506 10.4541C212.158 11.0248 213.136 11.2694 214.441 11.2694C215.337 11.2694 216.234 11.1879 217.131 11.1064C217.946 10.9433 218.843 10.7802 219.74 10.5357V1.32324H222.43Z" fill="#B3B3B3"/>
<path d="M237.675 8.33429H232.947V20.7263H230.338V8.33429H225.61V6.29614H237.675V8.33429Z" fill="#B3B3B3"/>
<path d="M286.675 20.7264H284.066V3.36139H274.609V20.7264H272V1.32324H286.675V20.7264Z" fill="#B3B3B3"/>
<path d="M301.92 8.33453H297.192V20.7265H294.583V8.33453H289.854V6.29639H301.92V8.33453Z" fill="#B3B3B3"/>
<path d="M351.512 14.5301C351.593 16.4052 350.941 17.9542 349.637 19.1771C348.332 20.4 346.62 21.0522 344.419 21.0522C342.218 21.0522 340.424 20.2369 339.038 18.6879C337.652 17.1389 337 15.1823 337 12.7365V9.31247C337 6.94822 337.652 4.91007 339.038 3.36108C340.424 1.81209 342.218 0.996826 344.419 0.996826C346.62 0.996826 348.332 1.56751 349.637 2.70887C350.941 3.85023 351.593 5.39923 351.512 7.35585V7.43737H348.984C348.984 6.05143 348.577 4.9916 347.761 4.17634C346.946 3.36108 345.805 2.95345 344.337 2.95345C342.87 2.95345 341.729 3.52413 340.832 4.74702C339.935 5.88838 339.527 7.35585 339.527 9.14942V12.655C339.527 14.4486 339.935 15.916 340.832 17.0574C341.729 18.1988 342.87 18.851 344.337 18.851C345.805 18.851 346.946 18.4433 347.761 17.7096C348.577 16.8943 348.984 15.8345 348.984 14.4486H351.512V14.5301Z" fill="#B3B3B3"/>
<path d="M360.887 6.05149C362.762 6.05149 364.148 6.7037 365.208 8.08964C366.268 9.47558 366.838 11.1876 366.838 13.3888V13.7149C366.838 15.8346 366.268 17.6282 365.126 19.0141C363.985 20.4 362.436 21.0523 360.398 21.0523C358.36 21.0523 356.811 20.4 355.669 19.0141C354.528 17.6282 353.957 15.9161 353.957 13.7149V13.3888C353.957 13.3073 353.957 13.2258 353.957 13.2258C353.957 13.1442 353.957 13.1442 353.957 13.0627V9.96473C353.957 7.19285 354.528 5.23623 355.588 3.93182C356.648 2.6274 358.278 1.97519 360.398 1.81214C361.621 1.73062 362.599 1.56756 363.251 1.32299C363.903 1.07841 364.23 0.670779 364.23 0.100098H366.268V0.181624C366.349 1.56756 365.86 2.54587 364.882 3.11656C363.903 3.68724 362.517 4.01334 360.642 4.01334C359.256 4.01334 358.197 4.42097 357.381 5.1547C356.566 5.88844 356.158 6.94827 356.158 8.33421V8.41574C356.648 7.76353 357.381 7.19285 358.197 6.78522C359.012 6.37759 359.99 6.05149 360.887 6.05149ZM360.398 8.08964C359.175 8.08964 358.197 8.57879 357.544 9.5571C356.892 10.5354 356.566 11.8398 356.566 13.3073V13.6334C356.566 15.1824 356.892 16.4053 357.544 17.3836C358.197 18.3619 359.175 18.8511 360.398 18.8511C361.621 18.8511 362.599 18.3619 363.251 17.3836C363.903 16.4053 364.23 15.1009 364.23 13.6334V13.3073C364.23 11.7583 363.903 10.5354 363.251 9.5571C362.599 8.57879 361.621 8.08964 360.398 8.08964Z" fill="#B3B3B3"/>
<path d="M401 20.7264V1.32324H407.359C409.397 1.32324 410.946 1.73087 412.088 2.62766C413.229 3.52444 413.8 4.82886 413.8 6.5409C413.8 7.35616 413.555 8.08989 413.066 8.82363C412.577 9.55736 411.843 9.96499 411.028 10.3726C412.332 10.5357 413.31 11.1064 414.044 12.0031C414.778 12.8999 415.186 14.0413 415.186 15.2642C415.186 17.0577 414.615 18.3622 413.473 19.3405C412.332 20.3188 410.783 20.7264 408.745 20.7264H401ZM403.69 9.55736H407.93C408.908 9.55736 409.723 9.31278 410.294 8.7421C410.946 8.17142 411.191 7.43769 411.191 6.45937C411.191 5.39954 410.865 4.6658 410.212 4.09512C409.56 3.60597 408.582 3.27986 407.359 3.27986H403.69V9.55736ZM403.69 11.5955V18.6067H408.745C409.968 18.6067 410.865 18.2806 411.517 17.71C412.169 17.1393 412.495 16.2425 412.495 15.1826C412.495 14.1228 412.169 13.226 411.517 12.5738C410.865 11.9216 409.968 11.5955 408.745 11.514H408.582H403.69V11.5955Z" fill="#B3B3B3"/>
<path d="M423.745 18.9327C424.561 18.9327 425.294 18.6881 425.865 18.1174C426.436 17.5467 426.762 16.8945 426.762 16.1608H429.126V16.2423C429.126 17.4652 428.637 18.6066 427.496 19.5849C426.354 20.5632 425.131 21.0523 423.664 21.0523C421.626 21.0523 420.077 20.4001 418.935 19.0142C417.794 17.6282 417.305 15.9162 417.305 13.8781V13.3074C417.305 11.2692 417.876 9.55714 418.935 8.1712C420.077 6.78526 421.626 6.13306 423.582 6.13306C425.213 6.13306 426.517 6.62221 427.496 7.60052C428.474 8.57883 429.045 9.80172 428.963 11.2692V11.3508H426.599C426.599 10.454 426.273 9.7202 425.702 9.06799C425.131 8.41578 424.398 8.1712 423.501 8.1712C422.196 8.1712 421.3 8.66036 420.647 9.63867C420.077 10.617 419.751 11.8399 419.751 13.3074V13.8781C419.751 15.3455 420.077 16.5684 420.647 17.5467C421.544 18.4435 422.441 18.9327 423.745 18.9327Z" fill="#B3B3B3"/>
<path d="M285.912 130.296C283.815 130.296 282.002 129.988 280.473 129.371C278.943 128.754 277.759 127.879 276.921 126.744C276.082 125.585 275.663 124.228 275.663 122.674C275.663 121.145 276.057 119.85 276.847 118.789C277.661 117.704 278.832 116.89 280.362 116.347C281.891 115.78 283.741 115.496 285.912 115.496C288.082 115.496 289.932 115.78 291.462 116.347C293.016 116.89 294.2 117.704 295.014 118.789C295.828 119.874 296.235 121.169 296.235 122.674C296.235 124.228 295.815 125.585 294.977 126.744C294.138 127.879 292.942 128.754 291.388 129.371C289.834 129.988 288.008 130.296 285.912 130.296ZM285.912 127.299C287.984 127.299 289.599 126.88 290.759 126.041C291.943 125.178 292.535 124.018 292.535 122.563C292.535 121.132 291.943 120.01 290.759 119.196C289.599 118.357 287.984 117.938 285.912 117.938C283.864 117.938 282.261 118.357 281.102 119.196C279.942 120.01 279.363 121.132 279.363 122.563C279.363 124.018 279.942 125.178 281.102 126.041C282.261 126.88 283.864 127.299 285.912 127.299ZM285.912 117.494C283.938 117.494 282.261 117.235 280.88 116.717C279.498 116.174 278.438 115.41 277.698 114.423C276.958 113.412 276.588 112.215 276.588 110.834C276.588 109.379 276.97 108.133 277.735 107.097C278.524 106.036 279.622 105.222 281.028 104.655C282.434 104.088 284.062 103.804 285.912 103.804C287.786 103.804 289.427 104.088 290.833 104.655C292.239 105.222 293.336 106.036 294.126 107.097C294.915 108.133 295.31 109.379 295.31 110.834C295.31 112.215 294.94 113.412 294.2 114.423C293.46 115.41 292.387 116.174 290.981 116.717C289.575 117.235 287.885 117.494 285.912 117.494ZM285.912 115.126C287.712 115.126 289.118 114.756 290.13 114.016C291.166 113.276 291.684 112.265 291.684 110.982C291.684 109.675 291.153 108.651 290.093 107.911C289.032 107.171 287.638 106.801 285.912 106.801C284.185 106.801 282.804 107.171 281.768 107.911C280.756 108.651 280.251 109.675 280.251 110.982C280.251 112.265 280.744 113.276 281.731 114.016C282.742 114.756 284.136 115.126 285.912 115.126Z" fill="#292C33"/>
<path d="M274.612 187V162.58L276.203 164.319H268.766V161.1H278.275V187H274.612ZM292.303 187.296C290.477 187.296 288.701 187.012 286.975 186.445C285.273 185.878 283.879 185.113 282.794 184.151L284.496 181.228C285.359 182.042 286.481 182.708 287.863 183.226C289.244 183.744 290.712 184.003 292.266 184.003C294.239 184.003 295.756 183.584 296.817 182.745C297.877 181.906 298.408 180.784 298.408 179.378C298.408 178.416 298.173 177.577 297.705 176.862C297.236 176.147 296.422 175.604 295.263 175.234C294.128 174.839 292.562 174.642 290.564 174.642H284.681L286.05 161.1H300.665V164.319H287.419L289.343 162.506L288.27 173.199L286.346 171.423H291.341C293.931 171.423 296.015 171.756 297.594 172.422C299.172 173.088 300.319 174.013 301.035 175.197C301.75 176.356 302.108 177.701 302.108 179.23C302.108 180.71 301.75 182.067 301.035 183.3C300.319 184.509 299.234 185.483 297.779 186.223C296.348 186.938 294.523 187.296 292.303 187.296Z" fill="#292C33"/>
<path d="M266.063 244V241.484L276.608 231.309C277.546 230.421 278.236 229.644 278.68 228.978C279.149 228.287 279.457 227.658 279.605 227.091C279.778 226.499 279.864 225.932 279.864 225.389C279.864 224.057 279.396 223.009 278.458 222.244C277.521 221.479 276.152 221.097 274.351 221.097C272.97 221.097 271.724 221.331 270.614 221.8C269.504 222.244 268.542 222.947 267.728 223.909L265.212 221.726C266.199 220.468 267.519 219.506 269.171 218.84C270.849 218.149 272.686 217.804 274.684 217.804C276.485 217.804 278.051 218.1 279.383 218.692C280.715 219.259 281.739 220.086 282.454 221.171C283.194 222.256 283.564 223.539 283.564 225.019C283.564 225.858 283.453 226.684 283.231 227.498C283.009 228.312 282.59 229.175 281.973 230.088C281.357 231.001 280.469 232.024 279.309 233.159L269.911 242.224L269.023 240.781H284.674V244H266.063ZM287.309 244V241.484L297.854 231.309C298.792 230.421 299.482 229.644 299.926 228.978C300.395 228.287 300.703 227.658 300.851 227.091C301.024 226.499 301.11 225.932 301.11 225.389C301.11 224.057 300.642 223.009 299.704 222.244C298.767 221.479 297.398 221.097 295.597 221.097C294.216 221.097 292.97 221.331 291.86 221.8C290.75 222.244 289.788 222.947 288.974 223.909L286.458 221.726C287.445 220.468 288.765 219.506 290.417 218.84C292.095 218.149 293.932 217.804 295.93 217.804C297.731 217.804 299.297 218.1 300.629 218.692C301.961 219.259 302.985 220.086 303.7 221.171C304.44 222.256 304.81 223.539 304.81 225.019C304.81 225.858 304.699 226.684 304.477 227.498C304.255 228.312 303.836 229.175 303.219 230.088C302.603 231.001 301.715 232.024 300.555 233.159L291.157 242.224L290.269 240.781H305.92V244H287.309Z" fill="#292C33"/>
<path d="M265.268 301V298.484L275.813 288.309C276.751 287.421 277.441 286.644 277.885 285.978C278.354 285.287 278.662 284.658 278.81 284.091C278.983 283.499 279.069 282.932 279.069 282.389C279.069 281.057 278.601 280.009 277.663 279.244C276.726 278.479 275.357 278.097 273.556 278.097C272.175 278.097 270.929 278.331 269.819 278.8C268.709 279.244 267.747 279.947 266.933 280.909L264.417 278.726C265.404 277.468 266.724 276.506 268.376 275.84C270.054 275.149 271.891 274.804 273.889 274.804C275.69 274.804 277.256 275.1 278.588 275.692C279.92 276.259 280.944 277.086 281.659 278.171C282.399 279.256 282.769 280.539 282.769 282.019C282.769 282.858 282.658 283.684 282.436 284.498C282.214 285.312 281.795 286.175 281.178 287.088C280.562 288.001 279.674 289.024 278.514 290.159L269.116 299.224L268.228 297.781H283.879V301H265.268ZM295.321 274.804C297.664 274.804 299.637 275.31 301.241 276.321C302.869 277.332 304.102 278.8 304.941 280.724C305.779 282.623 306.199 284.954 306.199 287.717C306.199 290.652 305.681 293.131 304.645 295.154C303.609 297.177 302.178 298.706 300.353 299.742C298.527 300.778 296.394 301.296 293.952 301.296C292.743 301.296 291.571 301.173 290.437 300.926C289.327 300.679 288.352 300.297 287.514 299.779L288.92 296.893C289.61 297.337 290.375 297.658 291.214 297.855C292.077 298.028 292.977 298.114 293.915 298.114C296.529 298.114 298.614 297.3 300.168 295.672C301.722 294.019 302.499 291.577 302.499 288.346C302.499 287.828 302.474 287.211 302.425 286.496C302.375 285.781 302.264 285.078 302.092 284.387L303.313 285.645C302.967 286.78 302.388 287.742 301.574 288.531C300.784 289.296 299.822 289.875 298.688 290.27C297.578 290.64 296.357 290.825 295.025 290.825C293.323 290.825 291.806 290.504 290.474 289.863C289.142 289.222 288.093 288.321 287.329 287.162C286.564 285.978 286.182 284.584 286.182 282.981C286.182 281.304 286.576 279.861 287.366 278.652C288.18 277.419 289.277 276.469 290.659 275.803C292.065 275.137 293.619 274.804 295.321 274.804ZM295.469 277.801C294.359 277.801 293.372 278.011 292.509 278.43C291.645 278.849 290.967 279.429 290.474 280.169C290.005 280.909 289.771 281.797 289.771 282.833C289.771 284.362 290.301 285.583 291.362 286.496C292.422 287.384 293.853 287.828 295.654 287.828C296.838 287.828 297.874 287.606 298.762 287.162C299.674 286.718 300.377 286.114 300.871 285.349C301.389 284.584 301.648 283.733 301.648 282.796C301.648 281.883 301.413 281.057 300.945 280.317C300.476 279.577 299.785 278.973 298.873 278.504C297.96 278.035 296.825 277.801 295.469 277.801Z" fill="#292C33"/>
<path d="M341.186 78.1352V75.6192L351.731 65.4442C352.669 64.5562 353.359 63.7792 353.803 63.1132C354.272 62.4226 354.58 61.7936 354.728 61.2262C354.901 60.6342 354.987 60.0669 354.987 59.5242C354.987 58.1922 354.519 57.1439 353.581 56.3792C352.644 55.6146 351.275 55.2322 349.474 55.2322C348.093 55.2322 346.847 55.4666 345.737 55.9352C344.627 56.3792 343.665 57.0822 342.851 58.0442L340.335 55.8612C341.322 54.6032 342.642 53.6412 344.294 52.9752C345.972 52.2846 347.809 51.9392 349.807 51.9392C351.608 51.9392 353.174 52.2352 354.506 52.8272C355.838 53.3946 356.862 54.2209 357.577 55.3062C358.317 56.3916 358.687 57.6742 358.687 59.1542C358.687 59.9929 358.576 60.8192 358.354 61.6332C358.132 62.4472 357.713 63.3106 357.096 64.2232C356.48 65.1359 355.592 66.1596 354.432 67.2942L345.034 76.3592L344.146 74.9162H359.797V78.1352H341.186Z" fill="#292C33"/>
<path d="M349.197 103.804C351.541 103.804 353.514 104.31 355.117 105.321C356.745 106.332 357.979 107.8 358.817 109.724C359.656 111.623 360.075 113.954 360.075 116.717C360.075 119.652 359.557 122.131 358.521 124.154C357.485 126.177 356.055 127.706 354.229 128.742C352.404 129.778 350.27 130.296 347.828 130.296C346.62 130.296 345.448 130.173 344.313 129.926C343.203 129.679 342.229 129.297 341.39 128.779L342.796 125.893C343.487 126.337 344.252 126.658 345.09 126.855C345.954 127.028 346.854 127.114 347.791 127.114C350.406 127.114 352.49 126.3 354.044 124.672C355.598 123.019 356.375 120.577 356.375 117.346C356.375 116.828 356.351 116.211 356.301 115.496C356.252 114.781 356.141 114.078 355.968 113.387L357.189 114.645C356.844 115.78 356.264 116.742 355.45 117.531C354.661 118.296 353.699 118.875 352.564 119.27C351.454 119.64 350.233 119.825 348.901 119.825C347.199 119.825 345.682 119.504 344.35 118.863C343.018 118.222 341.97 117.321 341.205 116.162C340.441 114.978 340.058 113.584 340.058 111.981C340.058 110.304 340.453 108.861 341.242 107.652C342.056 106.419 343.154 105.469 344.535 104.803C345.941 104.137 347.495 103.804 349.197 103.804ZM349.345 106.801C348.235 106.801 347.249 107.011 346.385 107.43C345.522 107.849 344.844 108.429 344.35 109.169C343.882 109.909 343.647 110.797 343.647 111.833C343.647 113.362 344.178 114.583 345.238 115.496C346.299 116.384 347.73 116.828 349.53 116.828C350.714 116.828 351.75 116.606 352.638 116.162C353.551 115.718 354.254 115.114 354.747 114.349C355.265 113.584 355.524 112.733 355.524 111.796C355.524 110.883 355.29 110.057 354.821 109.317C354.353 108.577 353.662 107.973 352.749 107.504C351.837 107.035 350.702 106.801 349.345 106.801Z" fill="#292C33"/>
<path d="M338.317 187V162.58L339.908 164.319H332.471V161.1H341.98V187H338.317ZM358.524 187.296C356.23 187.296 354.269 186.79 352.641 185.779C351.013 184.768 349.767 183.312 348.904 181.413C348.065 179.489 347.646 177.146 347.646 174.383C347.646 171.448 348.164 168.969 349.2 166.946C350.236 164.923 351.679 163.394 353.529 162.358C355.379 161.322 357.5 160.804 359.893 160.804C361.126 160.804 362.298 160.927 363.408 161.174C364.542 161.421 365.517 161.803 366.331 162.321L364.925 165.207C364.259 164.738 363.494 164.418 362.631 164.245C361.792 164.072 360.904 163.986 359.967 163.986C357.327 163.986 355.231 164.812 353.677 166.465C352.123 168.093 351.346 170.523 351.346 173.754C351.346 174.272 351.37 174.889 351.42 175.604C351.469 176.319 351.592 177.022 351.79 177.713L350.532 176.455C350.902 175.32 351.481 174.371 352.271 173.606C353.085 172.817 354.047 172.237 355.157 171.867C356.291 171.472 357.512 171.275 358.82 171.275C360.546 171.275 362.076 171.596 363.408 172.237C364.74 172.878 365.788 173.791 366.553 174.975C367.317 176.134 367.7 177.516 367.7 179.119C367.7 180.772 367.293 182.215 366.479 183.448C365.665 184.681 364.567 185.631 363.186 186.297C361.804 186.963 360.25 187.296 358.524 187.296ZM358.376 184.299C359.51 184.299 360.497 184.089 361.336 183.67C362.199 183.251 362.877 182.671 363.371 181.931C363.864 181.166 364.111 180.278 364.111 179.267C364.111 177.738 363.58 176.529 362.52 175.641C361.459 174.728 360.016 174.272 358.191 174.272C357.007 174.272 355.971 174.494 355.083 174.938C354.195 175.382 353.492 175.986 352.974 176.751C352.48 177.491 352.234 178.342 352.234 179.304C352.234 180.192 352.468 181.018 352.937 181.783C353.405 182.523 354.096 183.127 355.009 183.596C355.921 184.065 357.044 184.299 358.376 184.299Z" fill="#292C33"/>
<path d="M330.599 244V241.484L341.144 231.309C342.082 230.421 342.772 229.644 343.216 228.978C343.685 228.287 343.993 227.658 344.141 227.091C344.314 226.499 344.4 225.932 344.4 225.389C344.4 224.057 343.932 223.009 342.994 222.244C342.057 221.479 340.688 221.097 338.887 221.097C337.506 221.097 336.26 221.331 335.15 221.8C334.04 222.244 333.078 222.947 332.264 223.909L329.748 221.726C330.735 220.468 332.055 219.506 333.707 218.84C335.385 218.149 337.222 217.804 339.22 217.804C341.021 217.804 342.587 218.1 343.919 218.692C345.251 219.259 346.275 220.086 346.99 221.171C347.73 222.256 348.1 223.539 348.1 225.019C348.1 225.858 347.989 226.684 347.767 227.498C347.545 228.312 347.126 229.175 346.509 230.088C345.893 231.001 345.005 232.024 343.845 233.159L334.447 242.224L333.559 240.781H349.21V244H330.599ZM360.171 244.296C358.345 244.296 356.569 244.012 354.843 243.445C353.141 242.878 351.747 242.113 350.662 241.151L352.364 238.228C353.227 239.042 354.349 239.708 355.731 240.226C357.112 240.744 358.592 241.003 360.171 241.003C362.095 241.003 363.587 240.596 364.648 239.782C365.733 238.943 366.276 237.821 366.276 236.415C366.276 235.058 365.758 233.973 364.722 233.159C363.71 232.32 362.095 231.901 359.875 231.901H357.803V229.311L365.499 219.839L366.017 221.319H351.846V218.1H368.94V220.616L361.281 230.051L359.357 228.904H360.578C363.71 228.904 366.054 229.607 367.608 231.013C369.186 232.419 369.976 234.207 369.976 236.378C369.976 237.833 369.618 239.165 368.903 240.374C368.187 241.583 367.102 242.545 365.647 243.26C364.216 243.951 362.391 244.296 360.171 244.296Z" fill="#292C33"/>
<path d="M337.208 301.296C335.383 301.296 333.607 301.012 331.88 300.445C330.178 299.878 328.784 299.113 327.699 298.151L329.401 295.228C330.264 296.042 331.387 296.708 332.768 297.226C334.149 297.744 335.629 298.003 337.208 298.003C339.132 298.003 340.624 297.596 341.685 296.782C342.77 295.943 343.313 294.821 343.313 293.415C343.313 292.058 342.795 290.973 341.759 290.159C340.748 289.32 339.132 288.901 336.912 288.901H334.84V286.311L342.536 276.839L343.054 278.319H328.883V275.1H345.977V277.616L338.318 287.051L336.394 285.904H337.615C340.748 285.904 343.091 286.607 344.645 288.013C346.224 289.419 347.013 291.207 347.013 293.378C347.013 294.833 346.655 296.165 345.94 297.374C345.225 298.583 344.139 299.545 342.684 300.26C341.253 300.951 339.428 301.296 337.208 301.296ZM361.046 301.296C359.023 301.296 357.21 300.778 355.607 299.742C354.028 298.706 352.77 297.201 351.833 295.228C350.92 293.255 350.464 290.862 350.464 288.05C350.464 285.238 350.92 282.845 351.833 280.872C352.77 278.899 354.028 277.394 355.607 276.358C357.21 275.322 359.023 274.804 361.046 274.804C363.044 274.804 364.845 275.322 366.448 276.358C368.051 277.394 369.309 278.899 370.222 280.872C371.135 282.845 371.591 285.238 371.591 288.05C371.591 290.862 371.135 293.255 370.222 295.228C369.309 297.201 368.051 298.706 366.448 299.742C364.845 300.778 363.044 301.296 361.046 301.296ZM361.046 298.003C362.403 298.003 363.587 297.633 364.598 296.893C365.634 296.153 366.436 295.043 367.003 293.563C367.595 292.083 367.891 290.245 367.891 288.05C367.891 285.855 367.595 284.017 367.003 282.537C366.436 281.057 365.634 279.947 364.598 279.207C363.587 278.467 362.403 278.097 361.046 278.097C359.689 278.097 358.493 278.467 357.457 279.207C356.421 279.947 355.607 281.057 355.015 282.537C354.448 284.017 354.164 285.855 354.164 288.05C354.164 290.245 354.448 292.083 355.015 293.563C355.607 295.043 356.421 296.153 357.457 296.893C358.493 297.633 359.689 298.003 361.046 298.003Z" fill="#292C33"/>
<path d="M414.548 78.4311C412.722 78.4311 410.946 78.1475 409.22 77.5801C407.518 77.0128 406.124 76.2481 405.039 75.2861L406.741 72.3631C407.604 73.1771 408.726 73.8431 410.108 74.3611C411.489 74.8791 412.969 75.1381 414.548 75.1381C416.472 75.1381 417.964 74.7311 419.025 73.9171C420.11 73.0785 420.653 71.9561 420.653 70.5501C420.653 69.1935 420.135 68.1081 419.099 67.2941C418.087 66.4555 416.472 66.0361 414.252 66.0361H412.18V63.4461L419.876 53.9741L420.394 55.4541H406.223V52.2351H423.317V54.7511L415.658 64.1861L413.734 63.0391H414.955C418.087 63.0391 420.431 63.7421 421.985 65.1481C423.563 66.5541 424.353 68.3425 424.353 70.5131C424.353 71.9685 423.995 73.3005 423.28 74.5091C422.564 75.7178 421.479 76.6798 420.024 77.3951C418.593 78.0858 416.768 78.4311 414.548 78.4311Z" fill="#292C33"/>
<path d="M402.396 130V105.58L403.987 107.319H396.55V104.1H406.059V130H402.396ZM422.306 130.296C420.284 130.296 418.471 129.778 416.867 128.742C415.289 127.706 414.031 126.201 413.093 124.228C412.181 122.255 411.724 119.862 411.724 117.05C411.724 114.238 412.181 111.845 413.093 109.872C414.031 107.899 415.289 106.394 416.867 105.358C418.471 104.322 420.284 103.804 422.306 103.804C424.304 103.804 426.105 104.322 427.708 105.358C429.312 106.394 430.57 107.899 431.482 109.872C432.395 111.845 432.851 114.238 432.851 117.05C432.851 119.862 432.395 122.255 431.482 124.228C430.57 126.201 429.312 127.706 427.708 128.742C426.105 129.778 424.304 130.296 422.306 130.296ZM422.306 127.003C423.663 127.003 424.847 126.633 425.858 125.893C426.894 125.153 427.696 124.043 428.263 122.563C428.855 121.083 429.151 119.245 429.151 117.05C429.151 114.855 428.855 113.017 428.263 111.537C427.696 110.057 426.894 108.947 425.858 108.207C424.847 107.467 423.663 107.097 422.306 107.097C420.95 107.097 419.753 107.467 418.717 108.207C417.681 108.947 416.867 110.057 416.275 111.537C415.708 113.017 415.424 114.855 415.424 117.05C415.424 119.245 415.708 121.083 416.275 122.563C416.867 124.043 417.681 125.153 418.717 125.893C419.753 126.633 420.95 127.003 422.306 127.003Z" fill="#292C33"/>
<path d="M394.172 244V241.484L404.717 231.309C405.655 230.421 406.345 229.644 406.789 228.978C407.258 228.287 407.566 227.658 407.714 227.091C407.887 226.499 407.973 225.932 407.973 225.389C407.973 224.057 407.505 223.009 406.567 222.244C405.63 221.479 404.261 221.097 402.46 221.097C401.079 221.097 399.833 221.331 398.723 221.8C397.613 222.244 396.651 222.947 395.837 223.909L393.321 221.726C394.308 220.468 395.628 219.506 397.28 218.84C398.958 218.149 400.795 217.804 402.793 217.804C404.594 217.804 406.16 218.1 407.492 218.692C408.824 219.259 409.848 220.086 410.563 221.171C411.303 222.256 411.673 223.539 411.673 225.019C411.673 225.858 411.562 226.684 411.34 227.498C411.118 228.312 410.699 229.175 410.082 230.088C409.466 231.001 408.578 232.024 407.418 233.159L398.02 242.224L397.132 240.781H412.783V244H394.172ZM414.733 237.636V235.046L427.979 218.1H431.975L418.84 235.046L416.953 234.454H437.636V237.636H414.733ZM429.126 244V237.636L429.237 234.454V228.83H432.715V244H429.126Z" fill="#292C33"/>
<path d="M17.9709 123.636V121.046L31.2169 104.1H35.2129L22.0779 121.046L20.1909 120.454H40.8739V123.636H17.9709ZM32.3639 130V123.636L32.4749 120.454V114.83H35.9529V130H32.3639Z" fill="#292C33"/>
<path d="M21.3882 187V162.58L22.9792 164.319H15.5422V161.1H25.0512V187H21.3882ZM35.0825 187V162.58L36.6735 164.319H29.2365V161.1H38.7455V187H35.0825Z" fill="white"/>
<path d="M16.3296 244V219.58L17.9206 221.319H10.4836V218.1H19.9926V244H16.3296ZM35.7589 244.296C33.6623 244.296 31.8493 243.988 30.3199 243.371C28.7906 242.754 27.6066 241.879 26.7679 240.744C25.9293 239.585 25.5099 238.228 25.5099 236.674C25.5099 235.145 25.9046 233.85 26.6939 232.789C27.5079 231.704 28.6796 230.89 30.2089 230.347C31.7383 229.78 33.5883 229.496 35.7589 229.496C37.9296 229.496 39.7796 229.78 41.3089 230.347C42.8629 230.89 44.0469 231.704 44.8609 232.789C45.6749 233.874 46.0819 235.169 46.0819 236.674C46.0819 238.228 45.6626 239.585 44.8239 240.744C43.9853 241.879 42.7889 242.754 41.2349 243.371C39.6809 243.988 37.8556 244.296 35.7589 244.296ZM35.7589 241.299C37.8309 241.299 39.4466 240.88 40.6059 240.041C41.7899 239.178 42.3819 238.018 42.3819 236.563C42.3819 235.132 41.7899 234.01 40.6059 233.196C39.4466 232.357 37.8309 231.938 35.7589 231.938C33.7116 231.938 32.1083 232.357 30.9489 233.196C29.7896 234.01 29.2099 235.132 29.2099 236.563C29.2099 238.018 29.7896 239.178 30.9489 240.041C32.1083 240.88 33.7116 241.299 35.7589 241.299ZM35.7589 231.494C33.7856 231.494 32.1083 231.235 30.7269 230.717C29.3456 230.174 28.2849 229.41 27.5449 228.423C26.8049 227.412 26.4349 226.215 26.4349 224.834C26.4349 223.379 26.8173 222.133 27.5819 221.097C28.3713 220.036 29.4689 219.222 30.8749 218.655C32.2809 218.088 33.9089 217.804 35.7589 217.804C37.6336 217.804 39.2739 218.088 40.6799 218.655C42.0859 219.222 43.1836 220.036 43.9729 221.097C44.7623 222.133 45.1569 223.379 45.1569 224.834C45.1569 226.215 44.7869 227.412 44.0469 228.423C43.3069 229.41 42.2339 230.174 40.8279 230.717C39.4219 231.235 37.7323 231.494 35.7589 231.494ZM35.7589 229.126C37.5596 229.126 38.9656 228.756 39.9769 228.016C41.0129 227.276 41.5309 226.265 41.5309 224.982C41.5309 223.675 41.0006 222.651 39.9399 221.911C38.8793 221.171 37.4856 220.801 35.7589 220.801C34.0323 220.801 32.6509 221.171 31.6149 221.911C30.6036 222.651 30.0979 223.675 30.0979 224.982C30.0979 226.265 30.5913 227.276 31.5779 228.016C32.5893 228.756 33.9829 229.126 35.7589 229.126Z" fill="#292C33"/>
<path d="M9.0634 301V298.484L19.6084 288.309C20.5458 287.421 21.2364 286.644 21.6804 285.978C22.1491 285.287 22.4574 284.658 22.6054 284.091C22.7781 283.499 22.8644 282.932 22.8644 282.389C22.8644 281.057 22.3958 280.009 21.4584 279.244C20.5211 278.479 19.1521 278.097 17.3514 278.097C15.9701 278.097 14.7244 278.331 13.6144 278.8C12.5044 279.244 11.5424 279.947 10.7284 280.909L8.2124 278.726C9.19906 277.468 10.5187 276.506 12.1714 275.84C13.8487 275.149 15.6864 274.804 17.6844 274.804C19.4851 274.804 21.0514 275.1 22.3834 275.692C23.7154 276.259 24.7391 277.086 25.4544 278.171C26.1944 279.256 26.5644 280.539 26.5644 282.019C26.5644 282.858 26.4534 283.684 26.2314 284.498C26.0094 285.312 25.5901 286.175 24.9734 287.088C24.3568 288.001 23.4688 289.024 22.3094 290.159L12.9114 299.224L12.0234 297.781H27.6744V301H9.0634ZM39.0785 301.296C37.2532 301.296 35.4772 301.012 33.7505 300.445C32.0485 299.878 30.6549 299.113 29.5695 298.151L31.2715 295.228C32.1349 296.042 33.2572 296.708 34.6385 297.226C36.0199 297.744 37.4875 298.003 39.0415 298.003C41.0149 298.003 42.5319 297.584 43.5925 296.745C44.6532 295.906 45.1835 294.784 45.1835 293.378C45.1835 292.416 44.9492 291.577 44.4805 290.862C44.0119 290.147 43.1979 289.604 42.0385 289.234C40.9039 288.839 39.3375 288.642 37.3395 288.642H31.4565L32.8255 275.1H47.4405V278.319H34.1945L36.1185 276.506L35.0455 287.199L33.1215 285.423H38.1165C40.7065 285.423 42.7909 285.756 44.3695 286.422C45.9482 287.088 47.0952 288.013 47.8105 289.197C48.5259 290.356 48.8835 291.701 48.8835 293.23C48.8835 294.71 48.5259 296.067 47.8105 297.3C47.0952 298.509 46.0099 299.483 44.5545 300.223C43.1239 300.938 41.2985 301.296 39.0785 301.296Z" fill="#292C33"/>
<path d="M91.4555 130.296C89.6301 130.296 87.8541 130.012 86.1275 129.445C84.4255 128.878 83.0318 128.113 81.9465 127.151L83.6485 124.228C84.5118 125.042 85.6341 125.708 87.0155 126.226C88.3968 126.744 89.8645 127.003 91.4185 127.003C93.3918 127.003 94.9088 126.584 95.9695 125.745C97.0302 124.906 97.5605 123.784 97.5605 122.378C97.5605 121.416 97.3261 120.577 96.8575 119.862C96.3888 119.147 95.5748 118.604 94.4155 118.234C93.2808 117.839 91.7145 117.642 89.7165 117.642H83.8335L85.2025 104.1H99.8175V107.319H86.5715L88.4955 105.506L87.4225 116.199L85.4985 114.423H90.4935C93.0835 114.423 95.1678 114.756 96.7465 115.422C98.3252 116.088 99.4722 117.013 100.188 118.197C100.903 119.356 101.261 120.701 101.261 122.23C101.261 123.71 100.903 125.067 100.188 126.3C99.4722 127.509 98.3868 128.483 96.9315 129.223C95.5008 129.938 93.6755 130.296 91.4555 130.296Z" fill="#292C33"/>
<path d="M80.6124 187V162.58L82.2034 164.319H74.7664V161.1H84.2754V187H80.6124ZM89.5338 187V184.484L100.079 174.309C101.016 173.421 101.707 172.644 102.151 171.978C102.619 171.287 102.928 170.658 103.076 170.091C103.248 169.499 103.335 168.932 103.335 168.389C103.335 167.057 102.866 166.009 101.929 165.244C100.991 164.479 99.6224 164.097 97.8218 164.097C96.4404 164.097 95.1948 164.331 94.0848 164.8C92.9748 165.244 92.0128 165.947 91.1988 166.909L88.6828 164.726C89.6694 163.468 90.9891 162.506 92.6418 161.84C94.3191 161.149 96.1568 160.804 98.1548 160.804C99.9554 160.804 101.522 161.1 102.854 161.692C104.186 162.259 105.209 163.086 105.925 164.171C106.665 165.256 107.035 166.539 107.035 168.019C107.035 168.858 106.924 169.684 106.702 170.498C106.48 171.312 106.06 172.175 105.444 173.088C104.827 174.001 103.939 175.024 102.78 176.159L93.3818 185.224L92.4938 183.781H108.145V187H89.5338Z" fill="white"/>
<path d="M79.8174 244V219.58L81.4084 221.319H73.9714V218.1H83.4804V244H79.8174ZM97.5447 217.804C99.8881 217.804 101.861 218.31 103.465 219.321C105.093 220.332 106.326 221.8 107.165 223.724C108.003 225.623 108.423 227.954 108.423 230.717C108.423 233.652 107.905 236.131 106.869 238.154C105.833 240.177 104.402 241.706 102.577 242.742C100.751 243.778 98.6177 244.296 96.1757 244.296C94.9671 244.296 93.7954 244.173 92.6607 243.926C91.5507 243.679 90.5764 243.297 89.7377 242.779L91.1437 239.893C91.8344 240.337 92.5991 240.658 93.4377 240.855C94.3011 241.028 95.2014 241.114 96.1387 241.114C98.7534 241.114 100.838 240.3 102.392 238.672C103.946 237.019 104.723 234.577 104.723 231.346C104.723 230.828 104.698 230.211 104.649 229.496C104.599 228.781 104.488 228.078 104.316 227.387L105.537 228.645C105.191 229.78 104.612 230.742 103.798 231.531C103.008 232.296 102.046 232.875 100.912 233.27C99.8017 233.64 98.5807 233.825 97.2487 233.825C95.5467 233.825 94.0297 233.504 92.6977 232.863C91.3657 232.222 90.3174 231.321 89.5527 230.162C88.7881 228.978 88.4057 227.584 88.4057 225.981C88.4057 224.304 88.8004 222.861 89.5897 221.652C90.4037 220.419 91.5014 219.469 92.8827 218.803C94.2887 218.137 95.8427 217.804 97.5447 217.804ZM97.6927 220.801C96.5827 220.801 95.5961 221.011 94.7327 221.43C93.8694 221.849 93.1911 222.429 92.6977 223.169C92.2291 223.909 91.9947 224.797 91.9947 225.833C91.9947 227.362 92.5251 228.583 93.5857 229.496C94.6464 230.384 96.0771 230.828 97.8777 230.828C99.0617 230.828 100.098 230.606 100.986 230.162C101.898 229.718 102.601 229.114 103.095 228.349C103.613 227.584 103.872 226.733 103.872 225.796C103.872 224.883 103.637 224.057 103.169 223.317C102.7 222.577 102.009 221.973 101.097 221.504C100.184 221.035 99.0494 220.801 97.6927 220.801Z" fill="#292C33"/>
<path d="M71.2865 301V298.484L81.8315 288.309C82.7688 287.421 83.4595 286.644 83.9035 285.978C84.3721 285.287 84.6805 284.658 84.8285 284.091C85.0011 283.499 85.0875 282.932 85.0875 282.389C85.0875 281.057 84.6188 280.009 83.6815 279.244C82.7441 278.479 81.3751 278.097 79.5745 278.097C78.1931 278.097 76.9475 278.331 75.8375 278.8C74.7275 279.244 73.7655 279.947 72.9515 280.909L70.4355 278.726C71.4221 277.468 72.7418 276.506 74.3945 275.84C76.0718 275.149 77.9095 274.804 79.9075 274.804C81.7081 274.804 83.2745 275.1 84.6065 275.692C85.9385 276.259 86.9621 277.086 87.6775 278.171C88.4175 279.256 88.7875 280.539 88.7875 282.019C88.7875 282.858 88.6765 283.684 88.4545 284.498C88.2325 285.312 87.8131 286.175 87.1965 287.088C86.5798 288.001 85.6918 289.024 84.5325 290.159L75.1345 299.224L74.2465 297.781H89.8975V301H71.2865ZM103.781 301.296C101.487 301.296 99.5264 300.79 97.8984 299.779C96.2704 298.768 95.0248 297.312 94.1614 295.413C93.3228 293.489 92.9034 291.146 92.9034 288.383C92.9034 285.448 93.4214 282.969 94.4574 280.946C95.4934 278.923 96.9364 277.394 98.7864 276.358C100.636 275.322 102.758 274.804 105.15 274.804C106.384 274.804 107.555 274.927 108.665 275.174C109.8 275.421 110.774 275.803 111.588 276.321L110.182 279.207C109.516 278.738 108.752 278.418 107.888 278.245C107.05 278.072 106.162 277.986 105.224 277.986C102.585 277.986 100.488 278.812 98.9344 280.465C97.3804 282.093 96.6034 284.523 96.6034 287.754C96.6034 288.272 96.6281 288.889 96.6774 289.604C96.7268 290.319 96.8501 291.022 97.0474 291.713L95.7894 290.455C96.1594 289.32 96.7391 288.371 97.5284 287.606C98.3424 286.817 99.3044 286.237 100.414 285.867C101.549 285.472 102.77 285.275 104.077 285.275C105.804 285.275 107.333 285.596 108.665 286.237C109.997 286.878 111.046 287.791 111.81 288.975C112.575 290.134 112.957 291.516 112.957 293.119C112.957 294.772 112.55 296.215 111.736 297.448C110.922 298.681 109.825 299.631 108.443 300.297C107.062 300.963 105.508 301.296 103.781 301.296ZM103.633 298.299C104.768 298.299 105.755 298.089 106.593 297.67C107.457 297.251 108.135 296.671 108.628 295.931C109.122 295.166 109.368 294.278 109.368 293.267C109.368 291.738 108.838 290.529 107.777 289.641C106.717 288.728 105.274 288.272 103.448 288.272C102.264 288.272 101.228 288.494 100.34 288.938C99.4524 289.382 98.7494 289.986 98.2314 290.751C97.7381 291.491 97.4914 292.342 97.4914 293.304C97.4914 294.192 97.7258 295.018 98.1944 295.783C98.6631 296.523 99.3538 297.127 100.266 297.596C101.179 298.065 102.301 298.299 103.633 298.299Z" fill="#292C33"/>
<path d="M157.676 130.296C155.382 130.296 153.421 129.79 151.793 128.779C150.165 127.768 148.92 126.312 148.056 124.413C147.218 122.489 146.798 120.146 146.798 117.383C146.798 114.448 147.316 111.969 148.352 109.946C149.388 107.923 150.831 106.394 152.681 105.358C154.531 104.322 156.653 103.804 159.045 103.804C160.279 103.804 161.45 103.927 162.56 104.174C163.695 104.421 164.669 104.803 165.483 105.321L164.077 108.207C163.411 107.738 162.647 107.418 161.783 107.245C160.945 107.072 160.057 106.986 159.119 106.986C156.48 106.986 154.383 107.812 152.829 109.465C151.275 111.093 150.498 113.523 150.498 116.754C150.498 117.272 150.523 117.889 150.572 118.604C150.622 119.319 150.745 120.022 150.942 120.713L149.684 119.455C150.054 118.32 150.634 117.371 151.423 116.606C152.237 115.817 153.199 115.237 154.309 114.867C155.444 114.472 156.665 114.275 157.972 114.275C159.699 114.275 161.228 114.596 162.56 115.237C163.892 115.878 164.941 116.791 165.705 117.975C166.47 119.134 166.852 120.516 166.852 122.119C166.852 123.772 166.445 125.215 165.631 126.448C164.817 127.681 163.72 128.631 162.338 129.297C160.957 129.963 159.403 130.296 157.676 130.296ZM157.528 127.299C158.663 127.299 159.65 127.089 160.488 126.67C161.352 126.251 162.03 125.671 162.523 124.931C163.017 124.166 163.263 123.278 163.263 122.267C163.263 120.738 162.733 119.529 161.672 118.641C160.612 117.728 159.169 117.272 157.343 117.272C156.159 117.272 155.123 117.494 154.235 117.938C153.347 118.382 152.644 118.986 152.126 119.751C151.633 120.491 151.386 121.342 151.386 122.304C151.386 123.192 151.621 124.018 152.089 124.783C152.558 125.523 153.249 126.127 154.161 126.596C155.074 127.065 156.196 127.299 157.528 127.299Z" fill="#292C33"/>
<path d="M145.148 187V162.58L146.739 164.319H139.302V161.1H148.811V187H145.148ZM162.395 187.296C160.569 187.296 158.793 187.012 157.067 186.445C155.365 185.878 153.971 185.113 152.886 184.151L154.588 181.228C155.451 182.042 156.573 182.708 157.955 183.226C159.336 183.744 160.816 184.003 162.395 184.003C164.319 184.003 165.811 183.596 166.872 182.782C167.957 181.943 168.5 180.821 168.5 179.415C168.5 178.058 167.982 176.973 166.946 176.159C165.934 175.32 164.319 174.901 162.099 174.901H160.027V172.311L167.723 162.839L168.241 164.319H154.07V161.1H171.164V163.616L163.505 173.051L161.581 171.904H162.802C165.934 171.904 168.278 172.607 169.832 174.013C171.41 175.419 172.2 177.207 172.2 179.378C172.2 180.833 171.842 182.165 171.127 183.374C170.411 184.583 169.326 185.545 167.871 186.26C166.44 186.951 164.615 187.296 162.395 187.296Z" fill="#292C33"/>
<path d="M134.865 244V241.484L145.41 231.309C146.347 230.421 147.038 229.644 147.482 228.978C147.951 228.287 148.259 227.658 148.407 227.091C148.58 226.499 148.666 225.932 148.666 225.389C148.666 224.057 148.197 223.009 147.26 222.244C146.323 221.479 144.954 221.097 143.153 221.097C141.772 221.097 140.526 221.331 139.416 221.8C138.306 222.244 137.344 222.947 136.53 223.909L134.014 221.726C135.001 220.468 136.32 219.506 137.973 218.84C139.65 218.149 141.488 217.804 143.486 217.804C145.287 217.804 146.853 218.1 148.185 218.692C149.517 219.259 150.541 220.086 151.256 221.171C151.996 222.256 152.366 223.539 152.366 225.019C152.366 225.858 152.255 226.684 152.033 227.498C151.811 228.312 151.392 229.175 150.775 230.088C150.158 231.001 149.27 232.024 148.111 233.159L138.713 242.224L137.825 240.781H153.476V244H134.865ZM167.064 244.296C165.041 244.296 163.228 243.778 161.625 242.742C160.046 241.706 158.788 240.201 157.851 238.228C156.938 236.255 156.482 233.862 156.482 231.05C156.482 228.238 156.938 225.845 157.851 223.872C158.788 221.899 160.046 220.394 161.625 219.358C163.228 218.322 165.041 217.804 167.064 217.804C169.062 217.804 170.863 218.322 172.466 219.358C174.069 220.394 175.327 221.899 176.24 223.872C177.153 225.845 177.609 228.238 177.609 231.05C177.609 233.862 177.153 236.255 176.24 238.228C175.327 240.201 174.069 241.706 172.466 242.742C170.863 243.778 169.062 244.296 167.064 244.296ZM167.064 241.003C168.421 241.003 169.605 240.633 170.616 239.893C171.652 239.153 172.454 238.043 173.021 236.563C173.613 235.083 173.909 233.245 173.909 231.05C173.909 228.855 173.613 227.017 173.021 225.537C172.454 224.057 171.652 222.947 170.616 222.207C169.605 221.467 168.421 221.097 167.064 221.097C165.707 221.097 164.511 221.467 163.475 222.207C162.439 222.947 161.625 224.057 161.033 225.537C160.466 227.017 160.182 228.855 160.182 231.05C160.182 233.245 160.466 235.083 161.033 236.563C161.625 238.043 162.439 239.153 163.475 239.893C164.511 240.633 165.707 241.003 167.064 241.003Z" fill="#292C33"/>
<path d="M136.148 301V298.484L146.693 288.309C147.63 287.421 148.321 286.644 148.765 285.978C149.233 285.287 149.542 284.658 149.69 284.091C149.862 283.499 149.949 282.932 149.949 282.389C149.949 281.057 149.48 280.009 148.543 279.244C147.605 278.479 146.236 278.097 144.436 278.097C143.054 278.097 141.809 278.331 140.699 278.8C139.589 279.244 138.627 279.947 137.813 280.909L135.297 278.726C136.283 277.468 137.603 276.506 139.256 275.84C140.933 275.149 142.771 274.804 144.769 274.804C146.569 274.804 148.136 275.1 149.468 275.692C150.8 276.259 151.823 277.086 152.539 278.171C153.279 279.256 153.649 280.539 153.649 282.019C153.649 282.858 153.538 283.684 153.316 284.498C153.094 285.312 152.674 286.175 152.058 287.088C151.441 288.001 150.553 289.024 149.394 290.159L139.996 299.224L139.108 297.781H154.759V301H136.148ZM162.242 301L173.231 276.654L174.193 278.319H158.801L160.651 276.506V282.944H157.099V275.1H176.635V277.616L166.164 301H162.242Z" fill="white"/>
<path d="M208.36 187V162.58L209.951 164.319H202.514V161.1H212.023V187H208.36ZM217.318 180.636V178.046L230.564 161.1H234.56L221.425 178.046L219.538 177.454H240.221V180.636H217.318ZM231.711 187V180.636L231.822 177.454V171.83H235.3V187H231.711Z" fill="#292C33"/>
<path d="M205.339 244V241.484L215.884 231.309C216.822 230.421 217.512 229.644 217.956 228.978C218.425 228.287 218.733 227.658 218.881 227.091C219.054 226.499 219.14 225.932 219.14 225.389C219.14 224.057 218.672 223.009 217.734 222.244C216.797 221.479 215.428 221.097 213.627 221.097C212.246 221.097 211 221.331 209.89 221.8C208.78 222.244 207.818 222.947 207.004 223.909L204.488 221.726C205.475 220.468 206.795 219.506 208.447 218.84C210.125 218.149 211.962 217.804 213.96 217.804C215.761 217.804 217.327 218.1 218.659 218.692C219.991 219.259 221.015 220.086 221.73 221.171C222.47 222.256 222.84 223.539 222.84 225.019C222.84 225.858 222.729 226.684 222.507 227.498C222.285 228.312 221.866 229.175 221.249 230.088C220.633 231.001 219.745 232.024 218.585 233.159L209.187 242.224L208.299 240.781H223.95V244H205.339ZM231.358 244V219.58L232.949 221.319H225.512V218.1H235.021V244H231.358Z" fill="#292C33"/>
<path d="M200.281 301V298.484L210.826 288.309C211.763 287.421 212.454 286.644 212.898 285.978C213.366 285.287 213.675 284.658 213.823 284.091C213.995 283.499 214.082 282.932 214.082 282.389C214.082 281.057 213.613 280.009 212.676 279.244C211.738 278.479 210.369 278.097 208.569 278.097C207.187 278.097 205.942 278.331 204.832 278.8C203.722 279.244 202.76 279.947 201.946 280.909L199.43 278.726C200.416 277.468 201.736 276.506 203.389 275.84C205.066 275.149 206.904 274.804 208.902 274.804C210.702 274.804 212.269 275.1 213.601 275.692C214.933 276.259 215.956 277.086 216.672 278.171C217.412 279.256 217.782 280.539 217.782 282.019C217.782 282.858 217.671 283.684 217.449 284.498C217.227 285.312 216.807 286.175 216.191 287.088C215.574 288.001 214.686 289.024 213.527 290.159L204.129 299.224L203.241 297.781H218.892V301H200.281ZM232.035 301.296C229.938 301.296 228.125 300.988 226.596 300.371C225.066 299.754 223.882 298.879 223.044 297.744C222.205 296.585 221.786 295.228 221.786 293.674C221.786 292.145 222.18 290.85 222.97 289.789C223.784 288.704 224.955 287.89 226.485 287.347C228.014 286.78 229.864 286.496 232.035 286.496C234.205 286.496 236.055 286.78 237.585 287.347C239.139 287.89 240.323 288.704 241.137 289.789C241.951 290.874 242.358 292.169 242.358 293.674C242.358 295.228 241.938 296.585 241.1 297.744C240.261 298.879 239.065 299.754 237.511 300.371C235.957 300.988 234.131 301.296 232.035 301.296ZM232.035 298.299C234.107 298.299 235.722 297.88 236.882 297.041C238.066 296.178 238.658 295.018 238.658 293.563C238.658 292.132 238.066 291.01 236.882 290.196C235.722 289.357 234.107 288.938 232.035 288.938C229.987 288.938 228.384 289.357 227.225 290.196C226.065 291.01 225.486 292.132 225.486 293.563C225.486 295.018 226.065 296.178 227.225 297.041C228.384 297.88 229.987 298.299 232.035 298.299ZM232.035 288.494C230.061 288.494 228.384 288.235 227.003 287.717C225.621 287.174 224.561 286.41 223.821 285.423C223.081 284.412 222.711 283.215 222.711 281.834C222.711 280.379 223.093 279.133 223.858 278.097C224.647 277.036 225.745 276.222 227.151 275.655C228.557 275.088 230.185 274.804 232.035 274.804C233.909 274.804 235.55 275.088 236.956 275.655C238.362 276.222 239.459 277.036 240.249 278.097C241.038 279.133 241.433 280.379 241.433 281.834C241.433 283.215 241.063 284.412 240.323 285.423C239.583 286.41 238.51 287.174 237.104 287.717C235.698 288.235 234.008 288.494 232.035 288.494ZM232.035 286.126C233.835 286.126 235.241 285.756 236.253 285.016C237.289 284.276 237.807 283.265 237.807 281.982C237.807 280.675 237.276 279.651 236.216 278.911C235.155 278.171 233.761 277.801 232.035 277.801C230.308 277.801 228.927 278.171 227.891 278.911C226.879 279.651 226.374 280.675 226.374 281.982C226.374 283.265 226.867 284.276 227.854 285.016C228.865 285.756 230.259 286.126 232.035 286.126Z" fill="#292C33"/>
<path d="M216.637 130L227.626 105.654L228.588 107.319H213.196L215.046 105.506V111.944H211.494V104.1H231.03V106.616L220.559 130H216.637Z" fill="#292C33"/>
<path d="M403.679 187V162.58L405.27 164.319H397.833V161.1H407.342V187H403.679ZM417.484 187L428.473 162.654L429.435 164.319H414.043L415.893 162.506V168.944H412.341V161.1H431.877V163.616L421.406 187H417.484Z" fill="#292C33"/>
<path d="M285.235 78.1351V53.7151L286.826 55.4541H279.389V52.2351H288.898V78.1351H285.235Z" fill="#292C33"/>
<path d="M407.7 301.296C405.875 301.296 404.099 301.012 402.372 300.445C400.67 299.878 399.277 299.113 398.191 298.151L399.893 295.228C400.757 296.042 401.879 296.708 403.26 297.226C404.642 297.744 406.122 298.003 407.7 298.003C409.624 298.003 411.117 297.596 412.177 296.782C413.263 295.943 413.805 294.821 413.805 293.415C413.805 292.058 413.287 290.973 412.251 290.159C411.24 289.32 409.624 288.901 407.404 288.901H405.332V286.311L413.028 276.839L413.546 278.319H399.375V275.1H416.469V277.616L408.81 287.051L406.886 285.904H408.107C411.24 285.904 413.583 286.607 415.137 288.013C416.716 289.419 417.505 291.207 417.505 293.378C417.505 294.833 417.148 296.165 416.432 297.374C415.717 298.583 414.632 299.545 413.176 300.26C411.746 300.951 409.92 301.296 407.7 301.296ZM425.322 301V276.58L426.913 278.319H419.476V275.1H428.985V301H425.322Z" fill="#292C33"/>
</g>
</g>
<defs>
<clipPath id="clip0_3025_4432">
<rect width="438" height="313" fill="white"/>
</clipPath>
</defs>
</svg>
