<svg width="104" height="90" viewBox="0 0 104 90" fill="none" xmlns="http://www.w3.org/2000/svg">
<g clip-path="url(#clip0_2894_6642)">
<path d="M100.734 45.1597L76.1468 87.9079H26.9859L2.39868 45.1597L26.9859 2.41132H76.1468L100.734 45.1597Z" fill="#42C66E" stroke="white" stroke-width="4.15858"/>
<path d="M37.1573 64.7913V58.8846L52.3459 44.5397C53.546 43.4522 54.4273 42.4771 54.9898 41.6145C55.5524 40.752 55.9274 39.9644 56.1149 39.2519C56.3399 38.5393 56.4524 37.883 56.4524 37.283C56.4524 35.7078 55.9086 34.5078 54.8211 33.6827C53.771 32.8201 52.2146 32.3888 50.152 32.3888C48.5018 32.3888 46.9642 32.7076 45.5391 33.3452C44.1515 33.9827 42.9702 34.9765 41.9951 36.3266L35.3571 32.0513C36.8572 29.8012 38.9574 28.0198 41.6576 26.7072C44.3578 25.3946 47.4705 24.7383 50.9958 24.7383C53.921 24.7383 56.4712 25.2258 58.6464 26.2009C60.859 27.1385 62.5654 28.4698 63.7655 30.1949C65.0031 31.9201 65.6219 33.9827 65.6219 36.3829C65.6219 37.658 65.4531 38.9331 65.1156 40.2082C64.8156 41.4458 64.178 42.7584 63.2029 44.146C62.2654 45.5336 60.8778 47.0899 59.0401 48.8151L46.4392 60.6847L44.6953 57.3657H66.9157V64.7913H37.1573Z" fill="white"/>
</g>
<defs>
<clipPath id="clip0_2894_6642">
<rect width="103.133" height="89.6551" fill="white" transform="translate(0 0.332031)"/>
</clipPath>
</defs>
</svg>
