<svg width="104" height="90" viewBox="0 0 104 90" fill="none" xmlns="http://www.w3.org/2000/svg">
<g clip-path="url(#clip0_2894_6633)">
<path d="M101.601 45.1597L77.0139 87.9079H27.8531L3.26587 45.1597L27.8531 2.41132H77.0139L101.601 45.1597Z" fill="#42C66E" stroke="white" stroke-width="4.15858"/>
<path d="M51.0767 65.4663C48.339 65.4663 45.6201 65.11 42.9199 64.3975C40.2197 63.6474 37.932 62.5973 36.0569 61.2472L39.6009 54.2717C41.101 55.3593 42.8449 56.2219 44.8325 56.8594C46.8202 57.497 48.8266 57.8157 50.8517 57.8157C53.1394 57.8157 54.9395 57.3657 56.2521 56.4656C57.5647 55.5656 58.221 54.328 58.221 52.7529C58.221 51.2528 57.6397 50.0714 56.4771 49.2088C55.3145 48.3463 53.4394 47.915 50.8517 47.915H46.6889V41.8958L57.6585 29.4636L58.671 32.7264H38.0258V25.4133H65.5903V31.32L54.677 43.7522L50.0642 41.1082H52.7081C57.546 41.1082 61.2025 42.1958 63.6777 44.371C66.1529 46.5461 67.3904 49.3401 67.3904 52.7529C67.3904 54.9655 66.8092 57.0469 65.6466 58.9971C64.484 60.9097 62.7026 62.4661 60.3024 63.6662C57.9022 64.8663 54.827 65.4663 51.0767 65.4663Z" fill="white"/>
</g>
<defs>
<clipPath id="clip0_2894_6633">
<rect width="103.133" height="89.6551" fill="white" transform="translate(0.867188 0.332031)"/>
</clipPath>
</defs>
</svg>
