<svg width="94" height="94" viewBox="0 0 94 94" fill="none" xmlns="http://www.w3.org/2000/svg">
<g clip-path="url(#clip0_2897_6888)">
<path d="M69.8397 26.7051C69.8397 26.7051 67.207 27.6312 63.6451 27.6312C57.6054 27.6312 53.1144 24.8528 50.6365 19.4504C49.5525 17.2894 48.1587 16.0546 48.0038 15.9002C47.0747 15.2828 45.8357 15.4372 45.2163 16.3633L43.2031 19.1417C38.2474 25.9333 32.2077 27.3225 28.0264 27.3225C25.5485 27.3225 23.845 26.7051 23.845 26.7051C22.6061 26.242 21.3672 27.1681 21.3672 28.5573V57.8848C21.3672 65.6025 25.7034 72.5485 34.0661 77.7965C40.1058 81.6554 46.3003 83.3533 46.4552 83.3533C46.7649 83.5077 47.0747 83.5077 47.5393 83.3533C47.849 83.3533 53.7338 81.6554 59.9284 77.7965C68.1362 72.5485 72.6273 65.4481 72.6273 57.8848V28.5573C72.4724 27.3225 71.0786 26.3964 69.8397 26.7051ZM68.6008 58.0391C68.6008 72.2398 50.1719 78.7227 46.9198 79.6488C43.6676 78.5683 25.2388 72.2398 25.2388 58.0391V31.027C26.0131 31.1814 27.0972 31.1814 28.1812 31.1814C40.8801 31.1814 46.6101 20.8396 47.0747 20.5309C47.0747 20.6852 47.2295 20.8396 47.2295 20.9939C51.256 29.6378 58.5346 31.6444 63.8 31.6444C65.6584 31.6444 67.3619 31.3357 68.7557 31.1814L68.6008 58.0391Z" fill="#42C66E"/>
<path d="M53.7451 45.0728C52.8159 44.4554 51.577 44.7641 51.1124 45.5359L44.763 55.2603L42.5949 53.0993C41.8205 52.3275 40.5816 52.3275 39.8073 53.0993C39.033 53.8711 39.033 55.1059 39.8073 55.8777L43.6789 59.7365C44.6081 60.6627 46.0019 60.5083 46.6213 59.4278L54.3645 47.6969C54.984 46.7707 54.6743 45.5359 53.7451 45.0728Z" fill="#42C66E"/>
<path d="M91.8345 33.188H80.0648V17.5982C80.0648 16.209 78.671 15.2828 77.4321 15.7459C77.4321 15.7459 73.7154 17.1351 69.0695 17.1351C60.8617 17.1351 54.8219 13.1219 51.4149 5.09541C50.176 2.16267 48.3176 0.619118 48.1628 0.464764C47.2336 -0.307011 45.9947 0.00169902 45.3752 0.927828L42.7425 4.7867C36.0834 14.5111 27.8756 16.672 22.3005 16.672C18.8934 16.672 16.5705 15.9002 16.5705 15.9002C15.3316 15.4372 13.9378 16.3633 13.9378 17.7525V33.3423H2.01324C0.929186 33.3423 0 34.2685 0 35.349C0 36.4294 0.929186 37.3556 2.01324 37.3556H13.7829V42.758H6.03971C4.95566 42.758 4.02647 43.6841 4.02647 44.7646C4.02647 45.8451 4.95566 46.7712 6.03971 46.7712H13.7829V52.6367H7.74321C6.65916 52.6367 5.72998 53.5628 5.72998 54.6433C5.72998 55.7238 6.65916 56.6499 7.74321 56.6499H13.6281C13.9378 57.7304 11.1502 73.0115 30.0437 85.823C37.9417 91.2254 45.8398 93.3864 46.3044 93.5407C46.6141 93.6951 47.0787 93.6951 47.3885 93.5407C47.6982 93.3864 55.4414 91.0711 63.6492 85.823C82.6975 73.0115 79.91 57.8848 80.0648 56.6499H85.9497C87.0337 56.6499 87.9629 55.7238 87.9629 54.6433C87.9629 53.5628 87.0337 52.6367 85.9497 52.6367H80.0648V46.7712H87.808C88.8921 46.7712 89.8213 45.8451 89.8213 44.7646C89.8213 43.6841 88.8921 42.758 87.808 42.758H80.0648V36.8925H91.8345C92.9186 36.8925 93.8477 35.9664 93.8477 34.8859C93.6929 33.9598 92.7637 33.188 91.8345 33.188ZM76.1932 58.3478C76.1932 67.4548 71.2376 75.6356 61.4811 82.1185C55.2865 86.2861 48.7822 88.6014 46.769 89.2188C44.9106 88.6014 38.5612 86.4404 32.2118 82.1185C22.3005 75.6356 17.3448 67.4548 17.3448 58.1935V19.9135C18.5837 20.0678 20.1324 20.3765 21.8359 20.3765C28.3402 20.3765 37.7869 18.0612 45.3752 6.94767L46.6141 5.09541C46.9239 5.55847 47.0787 6.02154 47.3885 6.4846C52.499 18.3699 61.7908 20.8396 68.6049 20.8396C71.3924 20.8396 73.8703 20.3765 75.7286 19.9135V58.3478H76.1932Z" fill="#42C66E"/>
</g>
<defs>
<clipPath id="clip0_2897_6888">
<rect width="93.8477" height="93.8478" fill="white"/>
</clipPath>
</defs>
</svg>
