<svg width="100" height="100" viewBox="0 0 100 100" fill="none" xmlns="http://www.w3.org/2000/svg">
<path d="M14.6033 82.6403L14.5928 82.6293L14.582 82.6185C14.5562 82.5928 14.5294 82.5496 14.533 82.4596C14.5349 82.4131 14.5455 82.3678 14.5607 82.3312C14.5723 82.3034 14.5823 82.2902 14.5839 82.2882C14.6098 82.263 14.6531 82.2375 14.7409 82.241C14.7874 82.2429 14.8327 82.2535 14.8693 82.2687C14.8927 82.2785 14.9057 82.2871 14.9105 82.2906C24.0354 91.8308 36.1678 97.1096 49.431 97.1096C75.699 97.1096 96.9711 75.8375 96.9711 49.5695C96.9711 23.3071 75.8431 2.02941 49.5695 2.02941C23.3015 2.02941 2.02941 23.3015 2.02941 49.5695C2.02941 57.8213 4.15707 66.0806 8.28363 73.2185C8.31641 73.2999 8.33098 73.4226 8.29975 73.5527C8.28849 73.5996 8.27376 73.636 8.26056 73.6615C8.20954 73.6711 8.16319 73.6669 8.12027 73.6544C8.05207 73.6345 7.95106 73.5801 7.85436 73.4453C3.57628 66.2091 1.43215 58.0316 1.43215 49.5695C1.43215 23.0834 23.0834 1.43215 49.5695 1.43215C76.0556 1.43215 97.7068 23.0834 97.7068 49.5695C97.7068 76.0556 76.0556 97.7068 49.5695 97.7068C36.261 97.7068 23.8933 92.3342 14.6033 82.6403Z" fill="#42C66E" stroke="#42C66E" stroke-width="2.8643"/>
<path d="M30.7498 15.9087L30.7598 15.8902L30.7692 15.8713L30.7692 15.8713C30.7702 15.8694 30.7921 15.8255 30.8956 15.7965C31.0053 15.7658 31.1221 15.7797 31.2016 15.8195L31.2017 15.8195C31.2035 15.8204 31.2475 15.8424 31.2765 15.9458C31.3057 16.0503 31.2945 16.1611 31.2591 16.2401C26.4249 25.2118 23.7638 37.0759 23.7638 49.5695C23.7638 62.4939 26.5352 74.261 31.0965 82.8491C35.6252 91.3757 42.1311 97.1096 49.7037 97.1096C57.2094 97.1096 63.7144 91.3725 68.258 82.8512C72.8364 74.2643 75.6437 62.497 75.6437 49.5695C75.6437 36.6391 72.8007 24.8706 68.1865 16.2837C63.6078 7.76273 57.068 2.02941 49.5653 2.02941C44.2883 2.02941 39.2064 4.9786 35.0146 10.3226C34.9976 10.3424 34.9414 10.387 34.8388 10.3993C34.7337 10.4119 34.6816 10.3791 34.6752 10.374C34.6566 10.3591 34.6095 10.3026 34.5968 10.1967C34.5842 10.0917 34.6169 10.0395 34.622 10.0332L34.636 10.0157L34.6494 9.9978C39.0115 4.18164 44.2967 1.43215 49.5653 1.43215C56.4989 1.43215 63.0726 6.47702 67.995 15.2563C72.8912 23.9885 75.9641 36.1306 75.9641 49.5695C75.9641 63.0083 72.8912 75.1504 67.995 83.8827C63.0726 92.6619 56.4989 97.7068 49.5653 97.7068C42.6317 97.7068 36.058 92.6619 31.1355 83.8827C26.2394 75.1504 23.1665 63.0083 23.1665 49.5695C23.1665 36.8794 25.8985 24.9375 30.7498 15.9087Z" fill="#42C66E" stroke="#42C66E" stroke-width="2.8643"/>
<path d="M88.7058 65.0535L88.6981 65.0595L88.6904 65.0656C88.6841 65.0707 88.6319 65.1034 88.5268 65.0908C88.421 65.0781 88.3645 65.031 88.3495 65.0123C88.3445 65.006 88.3117 64.9539 88.3243 64.8488C88.3363 64.7491 88.3787 64.6932 88.3992 64.6745C93.9829 60.3739 97.248 55.2974 97.248 49.7069C97.248 42.2012 91.5109 35.6962 82.9896 31.1527C74.4027 26.5742 62.6354 23.767 49.7079 23.767C36.7865 23.767 24.9869 26.5026 16.3654 31.0272C7.80738 35.5183 2.02941 41.9885 2.02941 49.5685C2.02941 57.0741 7.76649 63.5791 16.2878 68.1227C24.8747 72.7011 36.642 75.5084 49.5695 75.5084C60.3883 75.5084 70.9814 73.5438 79.5112 69.7053L79.5378 69.6933L79.5639 69.6803C79.5834 69.6705 79.5957 69.6688 79.6051 69.6686C79.6164 69.6682 79.6366 69.6699 79.6651 69.6811C79.7261 69.7049 79.8054 69.7655 79.8579 69.8706C79.8677 69.8901 79.8694 69.9024 79.8696 69.9117C79.8698 69.9164 79.8696 69.9228 79.8684 69.9306C79.8669 69.9414 79.8636 69.9551 79.8571 69.9717C79.8349 70.0284 79.7811 70.1008 79.6893 70.153C71.0426 73.9272 60.5978 75.9672 49.5695 75.9672C36.1306 75.9672 23.9885 72.8943 15.2563 67.9982C6.47702 63.0758 1.43215 56.5021 1.43215 49.5685C1.43215 42.6348 6.47702 36.0612 15.2563 31.1387C23.9885 26.2426 36.1306 23.1697 49.5695 23.1697C63.0083 23.1697 75.1504 26.2426 83.8827 31.1387C92.6619 36.0612 97.7068 42.6348 97.7068 49.5685C97.7068 55.0827 94.7115 60.3824 88.7058 65.0535Z" fill="#42C66E" stroke="#42C66E" stroke-width="2.8643"/>
<path d="M41.3993 55.085L46.245 38.0556C46.2451 38.0553 46.2452 38.0551 46.2453 38.0548C46.27 37.9688 46.3132 37.9199 46.3846 37.881C46.4518 37.8443 46.5379 37.8231 46.6229 37.8222C46.6679 37.8478 46.6994 37.8835 46.7261 37.9326C46.7677 38.0089 46.7894 38.1093 46.7842 38.205L40.3324 60.9921C40.2898 61.0746 40.2211 61.1595 40.1384 61.2227C40.0657 61.2783 40.0203 61.2896 40.0127 61.2916C39.9727 61.2907 39.9503 61.2843 39.9387 61.2801C39.9255 61.2753 39.9086 61.2669 39.8864 61.2489C39.8431 61.2137 39.7762 61.1375 39.714 61.0017L33.2305 38.1028L33.2305 38.1028L33.2296 38.0995C33.2104 38.0324 33.2128 37.9948 33.2146 37.9813C33.2163 37.968 33.2196 37.959 33.226 37.9487C33.2374 37.9303 33.2996 37.8481 33.4921 37.7931L33.5221 37.7845L33.5442 37.7771C33.5536 37.7776 33.5776 37.7819 33.6163 37.8048C33.6858 37.8458 33.7621 37.9283 33.7984 38.0551C33.7985 38.0553 33.7985 38.0554 33.7986 38.0556L38.6443 55.085L40.0218 59.9258L41.3993 55.085ZM33.5395 37.7773C33.5395 37.7772 33.5405 37.7771 33.5424 37.7771C33.5405 37.7774 33.5395 37.7774 33.5395 37.7773Z" fill="#42C66E" stroke="#42C66E" stroke-width="2.8643"/>
<path d="M56.7685 48.6877H53.2765L55.763 51.1396L65.7274 60.9656C65.8009 61.0403 65.8249 61.1239 65.8249 61.1795C65.8249 61.1891 65.8242 61.1965 65.8234 61.202L65.7812 61.2357L65.7251 61.2918C65.6499 61.3671 65.5651 61.3916 65.509 61.3916C65.4994 61.3916 65.492 61.3909 65.4865 61.3901L65.4527 61.3479L65.3966 61.2918L55.4274 51.3225L52.9825 48.8777V52.3352V61.0395C52.9814 61.0424 52.9798 61.0463 52.9775 61.0511C52.9648 61.0776 52.9383 61.1183 52.8932 61.161C52.7966 61.2525 52.6888 61.2877 52.6147 61.2877C52.5592 61.2877 52.5104 61.2689 52.4616 61.2173C52.4018 61.154 52.3853 61.0845 52.3853 61.0584V48.3198V38.2121C52.3853 38.1566 52.4041 38.1078 52.4557 38.059C52.519 37.9992 52.5885 37.9827 52.6147 37.9827H63.6917C64.8775 37.9827 65.7211 38.9023 65.7211 39.8736V46.7967C65.7211 47.768 64.8775 48.6877 63.6917 48.6877H56.7685ZM63.8301 47.952V46.5198H65.2623V39.8736H63.8301V38.4415H63.8301H63.8301H63.8301H63.8301H63.8301H63.8301H63.8301H63.83H63.83H63.83H63.83H63.83H63.83H63.83H63.83H63.83H63.83H63.8299H63.8299H63.8299H63.8299H63.8299H63.8299H63.8299H63.8299H63.8299H63.8298H63.8298H63.8298H63.8298H63.8298H63.8298H63.8298H63.8297H63.8297H63.8297H63.8297H63.8297H63.8297H63.8296H63.8296H63.8296H63.8296H63.8296H63.8295H63.8295H63.8295H63.8295H63.8295H63.8294H63.8294H63.8294H63.8294H63.8293H63.8293H63.8293H63.8293H63.8292H63.8292H63.8292H63.8291H63.8291H63.8291H63.8291H63.829H63.829H63.829H63.8289H63.8289H63.8288H63.8288H63.8288H63.8287H63.8287H63.8287H63.8286H63.8286H63.8285H63.8285H63.8285H63.8284H63.8284H63.8283H63.8283H63.8282H63.8282H63.8281H63.8281H63.828H63.828H63.8279H63.8279H63.8278H63.8278H63.8277H63.8277H63.8276H63.8276H63.8275H63.8275H63.8274H63.8273H63.8273H63.8272H63.8272H63.8271H63.827H63.827H63.8269H63.8268H63.8268H63.8267H63.8266H63.8266H63.8265H63.8264H63.8263H63.8263H63.8262H63.8261H63.826H63.826H63.8259H63.8258H63.8257H63.8256H63.8256H63.8255H63.8254H63.8253H63.8252H63.8251H63.825H63.825H63.8249H63.8248H63.8247H63.8246H63.8245H63.8244H63.8243H63.8242H63.8241H63.824H63.8239H63.8238H63.8237H63.8236H63.8235H63.8234H63.8233H63.8231H63.823H63.8229H63.8228H63.8227H63.8226H63.8225H63.8223H63.8222H63.8221H63.822H63.8219H63.8217H63.8216H63.8215H63.8214H63.8212H63.8211H63.821H63.8208H63.8207H63.8206H63.8204H63.8203H63.8201H63.82H63.8199H63.8197H63.8196H63.8194H63.8193H63.8191H63.819H63.8188H63.8187H63.8185H63.8184H63.8182H63.818H63.8179H63.8177H63.8176H63.8174H63.8172H63.8171H63.8169H63.8167H63.8166H63.8164H63.8162H63.816H63.8159H63.8157H63.8155H63.8153H63.8151H63.8149H63.8148H63.8146H63.8144H63.8142H63.814H63.8138H63.8136H63.8134H63.8132H63.813H63.8128H63.8126H63.8124H63.8122H63.812H63.8118H63.8116H63.8113H63.8111H63.8109H63.8107H63.8105H63.8103H63.81H63.8098H63.8096H63.8094H63.8091H63.8089H63.8087H63.8084H63.8082H63.808H63.8077H63.8075H63.8072H63.807H63.8067H63.8065H63.8062H63.806H63.8057H63.8055H63.8052H63.805H63.8047H63.8044H63.8042H63.8039H63.8036H63.8034H63.8031H63.8028H63.8025H63.8023H63.802H63.8017H63.8014H63.8011H63.8008H63.8006H63.8003H63.8H63.7997H63.7994H63.7991H63.7988H63.7985H63.7982H63.7979H63.7976H63.7973H63.7969H63.7966H63.7963H63.796H63.7957H63.7954H63.795H63.7947H63.7944H63.794H63.7937H63.7934H63.793H63.7927H63.7924H63.792H63.7917H63.7913H63.791H63.7906H63.7903H63.7899H63.7896H63.7892H63.7888H63.7885H63.7881H63.7878H63.7874H63.787H63.7866H63.7863H63.7859H63.7855H63.7851H63.7847H63.7843H63.784H63.7836H63.7832H63.7828H63.7824H63.782H63.7816H63.7812H63.7808H63.7804H63.7799H63.7795H63.7791H63.7787H63.7783H63.7779H63.7774H63.777H63.7766H63.7761H63.7757H63.7753H63.7748H63.7744H63.774H63.7735H63.7731H63.7726H63.7722H63.7717H63.7712H63.7708H63.7703H63.7699H63.7694H63.7689H63.7684H63.768H63.7675H63.767H63.7665H63.7661H63.7656H63.7651H63.7646H63.7641H63.7636H63.7631H63.7626H63.7621H63.7616H63.7611H63.7606H63.76H63.7595H63.759H63.7585H63.758H63.7574H63.7569H63.7564H63.7558H63.7553H63.7548H63.7542H63.7537H63.7531H63.7526H63.752H63.7515H63.7509H63.7504H63.7498H63.7492H63.7487H63.7481H63.7475H63.7469H63.7464H63.7458H63.7452H63.7446H63.744H63.7434H63.7428H63.7422H63.7416H63.741H63.7404H63.7398H63.7392H63.7386H63.738H63.7374H63.7367H63.7361H63.7355H63.7348H63.7342H63.7336H63.7329H63.7323H63.7317H63.731H63.7304H63.7297H63.729H63.7284H63.7277H63.7271H63.7264H63.7257H63.725H63.7244H63.7237H63.723H63.7223H63.7216H63.7209H63.7203H63.7196H63.7189H63.7182H63.7174H63.7167H63.716H63.7153H63.7146H63.7139H63.7131H63.7124H63.7117H63.711H63.7102H63.7095H63.7087H63.708H63.7073H63.7065H63.7057H63.705H63.7042H63.7035H63.7027H63.7019H63.7012H63.7004H63.6996H63.6988H63.698H63.6973H63.6965H63.6957H63.6949H63.6941H63.6933H63.6925H63.6917H62.398H54.2762H52.8441V39.8736V46.5198V47.952H54.2762H54.4147H62.398H63.6917H63.6925H63.6933H63.6941H63.6949H63.6957H63.6965H63.6973H63.698H63.6988H63.6996H63.7004H63.7012H63.7019H63.7027H63.7035H63.7042H63.705H63.7057H63.7065H63.7073H63.708H63.7087H63.7095H63.7102H63.711H63.7117H63.7124H63.7131H63.7139H63.7146H63.7153H63.716H63.7167H63.7174H63.7182H63.7189H63.7196H63.7203H63.7209H63.7216H63.7223H63.723H63.7237H63.7244H63.725H63.7257H63.7264H63.7271H63.7277H63.7284H63.729H63.7297H63.7304H63.731H63.7317H63.7323H63.7329H63.7336H63.7342H63.7348H63.7355H63.7361H63.7367H63.7374H63.738H63.7386H63.7392H63.7398H63.7404H63.741H63.7416H63.7422H63.7428H63.7434H63.744H63.7446H63.7452H63.7458H63.7464H63.7469H63.7475H63.7481H63.7487H63.7492H63.7498H63.7504H63.7509H63.7515H63.752H63.7526H63.7531H63.7537H63.7542H63.7548H63.7553H63.7558H63.7564H63.7569H63.7574H63.758H63.7585H63.759H63.7595H63.76H63.7606H63.7611H63.7616H63.7621H63.7626H63.7631H63.7636H63.7641H63.7646H63.7651H63.7656H63.7661H63.7665H63.767H63.7675H63.768H63.7684H63.7689H63.7694H63.7699H63.7703H63.7708H63.7712H63.7717H63.7722H63.7726H63.7731H63.7735H63.774H63.7744H63.7748H63.7753H63.7757H63.7761H63.7766H63.777H63.7774H63.7779H63.7783H63.7787H63.7791H63.7795H63.7799H63.7804H63.7808H63.7812H63.7816H63.782H63.7824H63.7828H63.7832H63.7836H63.784H63.7843H63.7847H63.7851H63.7855H63.7859H63.7863H63.7866H63.787H63.7874H63.7878H63.7881H63.7885H63.7888H63.7892H63.7896H63.7899H63.7903H63.7906H63.791H63.7913H63.7917H63.792H63.7924H63.7927H63.793H63.7934H63.7937H63.794H63.7944H63.7947H63.795H63.7954H63.7957H63.796H63.7963H63.7966H63.7969H63.7973H63.7976H63.7979H63.7982H63.7985H63.7988H63.7991H63.7994H63.7997H63.8H63.8003H63.8006H63.8008H63.8011H63.8014H63.8017H63.802H63.8023H63.8025H63.8028H63.8031H63.8034H63.8036H63.8039H63.8042H63.8044H63.8047H63.805H63.8052H63.8055H63.8057H63.806H63.8062H63.8065H63.8067H63.807H63.8072H63.8075H63.8077H63.808H63.8082H63.8084H63.8087H63.8089H63.8091H63.8094H63.8096H63.8098H63.81H63.8103H63.8105H63.8107H63.8109H63.8111H63.8113H63.8116H63.8118H63.812H63.8122H63.8124H63.8126H63.8128H63.813H63.8132H63.8134H63.8136H63.8138H63.814H63.8142H63.8144H63.8146H63.8148H63.8149H63.8151H63.8153H63.8155H63.8157H63.8159H63.816H63.8162H63.8164H63.8166H63.8167H63.8169H63.8171H63.8172H63.8174H63.8176H63.8177H63.8179H63.818H63.8182H63.8184H63.8185H63.8187H63.8188H63.819H63.8191H63.8193H63.8194H63.8196H63.8197H63.8199H63.82H63.8201H63.8203H63.8204H63.8206H63.8207H63.8208H63.821H63.8211H63.8212H63.8214H63.8215H63.8216H63.8217H63.8219H63.822H63.8221H63.8222H63.8223H63.8225H63.8226H63.8227H63.8228H63.8229H63.823H63.8231H63.8233H63.8234H63.8235H63.8236H63.8237H63.8238H63.8239H63.824H63.8241H63.8242H63.8243H63.8244H63.8245H63.8246H63.8247H63.8248H63.8249H63.825H63.825H63.8251H63.8252H63.8253H63.8254H63.8255H63.8256H63.8256H63.8257H63.8258H63.8259H63.826H63.826H63.8261H63.8262H63.8263H63.8263H63.8264H63.8265H63.8266H63.8266H63.8267H63.8268H63.8268H63.8269H63.827H63.827H63.8271H63.8272H63.8272H63.8273H63.8273H63.8274H63.8275H63.8275H63.8276H63.8276H63.8277H63.8277H63.8278H63.8278H63.8279H63.8279H63.828H63.828H63.8281H63.8281H63.8282H63.8282H63.8283H63.8283H63.8284H63.8284H63.8285H63.8285H63.8285H63.8286H63.8286H63.8287H63.8287H63.8287H63.8288H63.8288H63.8288H63.8289H63.8289H63.829H63.829H63.829H63.8291H63.8291H63.8291H63.8291H63.8292H63.8292H63.8292H63.8293H63.8293H63.8293H63.8293H63.8294H63.8294H63.8294H63.8294H63.8295H63.8295H63.8295H63.8295H63.8295H63.8296H63.8296H63.8296H63.8296H63.8296H63.8297H63.8297H63.8297H63.8297H63.8297H63.8297H63.8298H63.8298H63.8298H63.8298H63.8298H63.8298H63.8298H63.8299H63.8299H63.8299H63.8299H63.8299H63.8299H63.8299H63.8299H63.8299H63.83H63.83H63.83H63.83H63.83H63.83H63.83H63.83H63.83H63.83H63.8301H63.8301H63.8301H63.8301H63.8301H63.8301H63.8301H63.8301Z" fill="#42C66E" stroke="#42C66E" stroke-width="2.8643"/>
</svg>
