<svg width="161" height="491" viewBox="0 0 161 491" fill="none" xmlns="http://www.w3.org/2000/svg">
<g opacity="0.2">
<path d="M81.6016 490.355L160.979 450.306V349.428L81.6016 389.231V490.355Z" fill="url(#paint0_linear_588_2475)"/>
<path d="M81.6016 490.063L1.90332 449.975V349.487L81.6016 389.328V490.063Z" fill="url(#paint1_linear_588_2475)"/>
<path d="M80.8238 389.057L81.4417 449.644L82.0596 389.057H80.8238Z" fill="#0057AD"/>
</g>
<path d="M160.959 171.758L81.44 211.508L1.92139 171.758L81.44 132.009L160.959 171.758Z" fill="url(#paint2_linear_588_2475)"/>
<path d="M81.44 389.414L1.92139 349.66V171.758L81.44 211.512V389.414Z" fill="url(#paint3_linear_588_2475)"/>
<path d="M81.4399 389.414L160.959 349.66V171.758L81.4399 211.512V389.414Z" fill="url(#paint4_linear_588_2475)"/>
<path d="M80.8812 174.523L0.370605 94.0453H88.0264V95.6336H4.20805L81.9992 173.401L80.8812 174.523Z" fill="#292C33"/>
<path d="M86.0973 171.636C88.6738 172.918 88.6738 174.998 86.0973 176.288C83.5208 177.578 79.3723 177.578 76.7832 176.288C74.1941 174.998 74.2109 172.926 76.7832 171.636C79.3555 170.347 83.525 170.351 86.0973 171.636Z" fill="#292C33"/>
<path d="M38.7655 343.579V349.495L19.4361 339.447V334.394L28.3123 326.288C29.1684 325.396 29.8367 324.575 30.3173 323.826C30.7979 323.061 31.1434 322.334 31.3536 321.648C31.5639 320.945 31.669 320.238 31.669 319.527C31.669 318.427 31.5564 317.429 31.3311 316.533C31.1058 315.62 30.7679 314.835 30.3173 314.178C29.8818 313.511 29.3411 313.01 28.6953 312.674C27.9143 312.269 27.2685 312.204 26.7578 312.48C26.2472 312.756 25.8642 313.302 25.6089 314.117C25.3686 314.923 25.2484 315.918 25.2484 317.103L18.9179 313.813C18.9179 311.595 19.3159 309.771 20.112 308.339C20.923 306.916 22.0569 306.041 23.5137 305.715C24.9856 305.38 26.7503 305.747 28.8079 306.817C30.8205 307.863 32.5026 309.161 33.8543 310.71C35.221 312.267 36.2498 314.012 36.9407 315.945C37.6466 317.869 37.9995 319.915 37.9995 322.082C37.9995 323.317 37.8568 324.445 37.5715 325.465C37.2861 326.467 36.8806 327.407 36.355 328.285C35.8293 329.146 35.1835 329.97 34.4175 330.757C33.6515 331.543 32.788 332.322 31.8267 333.091L27.5463 337.747L38.7655 343.579ZM61.8121 339.742V346.165C61.8121 348.941 61.5793 351.207 61.1137 352.963C60.6481 354.718 59.9948 356.02 59.1537 356.869C58.3127 357.702 57.3139 358.122 56.1574 358.13C55.001 358.138 53.7244 357.779 52.3276 357.053C51.2162 356.476 50.1724 355.738 49.1962 354.842C48.2199 353.945 47.3338 352.892 46.5378 351.682C45.7568 350.464 45.081 349.088 44.5102 347.556C43.9545 346.014 43.5265 344.311 43.2261 342.445C42.9257 340.562 42.7756 338.504 42.7756 336.269V329.846C42.7756 327.07 43.0083 324.812 43.4739 323.074C43.9545 321.326 44.6154 320.036 45.4564 319.204C46.2975 318.372 47.2963 317.96 48.4527 317.969C49.6242 317.968 50.9083 318.331 52.3051 319.057C53.4015 319.627 54.4378 320.361 55.414 321.257C56.4053 322.145 57.2839 323.186 58.0498 324.38C58.8308 325.581 59.4992 326.953 60.0549 328.494C60.6256 330.027 61.0611 331.734 61.3615 333.617C61.6619 335.483 61.8121 337.524 61.8121 339.742ZM55.4816 343.865V335.41C55.4816 334.106 55.429 332.936 55.3239 331.9C55.2338 330.871 55.1061 329.976 54.9409 329.213C54.7757 328.45 54.5579 327.786 54.2876 327.223C54.0172 326.659 53.7169 326.198 53.3864 325.84C53.056 325.465 52.6881 325.172 52.2826 324.962C51.8019 324.712 51.3664 324.638 50.9759 324.739C50.5854 324.841 50.2475 325.165 49.9621 325.71C49.6768 326.239 49.459 327.032 49.3088 328.088C49.1736 329.134 49.106 330.47 49.106 332.095V340.551C49.106 341.854 49.1511 343.028 49.2412 344.074C49.3463 345.127 49.489 346.056 49.6693 346.861C49.8645 347.656 50.0823 348.328 50.3226 348.876C50.5779 349.432 50.8708 349.898 51.2012 350.272C51.5466 350.638 51.9221 350.927 52.3276 351.137C52.8082 351.387 53.2438 351.461 53.6343 351.36C54.0398 351.249 54.3777 350.917 54.648 350.363C54.9184 349.81 55.1211 349.001 55.2563 347.937C55.4065 346.864 55.4816 345.507 55.4816 343.865Z" fill="white"/>
<path d="M121.569 345.842V351.758L101.928 361.183V356.13L110.947 339.081C111.817 337.327 112.496 335.833 112.984 334.6C113.473 333.35 113.824 332.276 114.037 331.378C114.251 330.463 114.358 329.65 114.358 328.939C114.358 327.839 114.243 326.954 114.014 326.285C113.785 325.599 113.442 325.155 112.984 324.951C112.542 324.724 111.992 324.767 111.336 325.082C110.542 325.463 109.886 326.049 109.367 326.839C108.848 327.63 108.459 328.561 108.2 329.634C107.956 330.682 107.834 331.799 107.834 332.983L101.401 336.07C101.401 333.853 101.806 331.627 102.614 329.394C103.438 327.154 104.591 325.137 106.071 323.343C107.567 321.525 109.36 320.114 111.45 319.111C113.495 318.13 115.205 317.733 116.578 317.92C117.967 318.1 119.012 318.809 119.714 320.046C120.432 321.259 120.79 322.949 120.79 325.116C120.79 326.351 120.645 327.623 120.355 328.93C120.065 330.22 119.653 331.569 119.119 332.976C118.585 334.367 117.929 335.841 117.15 337.399C116.372 338.958 115.495 340.606 114.518 342.344L110.169 351.312L121.569 345.842ZM144.987 318.786V325.21C144.987 327.986 144.75 330.486 144.277 332.711C143.804 334.935 143.14 336.896 142.285 338.592C141.431 340.272 140.416 341.698 139.241 342.872C138.066 344.045 136.769 344.972 135.349 345.653C134.22 346.195 133.159 346.509 132.167 346.596C131.175 346.683 130.275 346.522 129.466 346.115C128.673 345.683 127.986 344.988 127.406 344.031C126.841 343.049 126.406 341.777 126.101 340.214C125.796 338.634 125.643 336.726 125.643 334.492V328.068C125.643 325.292 125.88 322.8 126.353 320.593C126.841 318.361 127.513 316.406 128.367 314.726C129.222 313.046 130.237 311.628 131.412 310.472C132.602 309.291 133.907 308.361 135.326 307.68C136.44 307.145 137.493 306.834 138.485 306.748C139.493 306.637 140.385 306.792 141.164 307.214C141.957 307.629 142.636 308.327 143.201 309.309C143.781 310.266 144.224 311.535 144.529 313.115C144.834 314.679 144.987 316.569 144.987 318.786ZM138.554 329.287V320.832C138.554 319.529 138.501 318.412 138.394 317.481C138.302 316.543 138.173 315.776 138.005 315.18C137.837 314.583 137.616 314.139 137.341 313.848C137.066 313.556 136.761 313.398 136.425 313.373C136.089 313.331 135.716 313.409 135.303 313.607C134.815 313.841 134.373 314.206 133.976 314.701C133.579 315.196 133.236 315.86 132.946 316.693C132.656 317.509 132.434 318.521 132.282 319.728C132.144 320.912 132.076 322.316 132.076 323.941V332.396C132.076 333.699 132.122 334.828 132.213 335.783C132.32 336.73 132.465 337.516 132.648 338.139C132.846 338.737 133.068 339.19 133.312 339.496C133.571 339.795 133.869 339.965 134.205 340.007C134.556 340.025 134.937 339.935 135.349 339.737C135.838 339.503 136.28 339.138 136.677 338.643C137.089 338.123 137.432 337.451 137.707 336.625C137.982 335.799 138.188 334.786 138.325 333.586C138.478 332.362 138.554 330.929 138.554 329.287Z" fill="white"/>
<path d="M16.7073 65.679L35.7246 22.654L38.5569 27.3746H13.1331L17.9886 22.2494V35.0625H8.2776V18.4729H46.1099V25.5538L28.5762 65.679H16.7073ZM58.9151 65.679V22.5191L63.6357 27.2397H49.4739V18.4729H69.8399V65.679H58.9151Z" fill="#419EF8"/>
<defs>
<linearGradient id="paint0_linear_588_2475" x1="120.817" y1="348.566" x2="120.847" y2="449.722" gradientUnits="userSpaceOnUse">
<stop stop-color="#87BCED"/>
<stop offset="1" stop-color="#2E87DB" stop-opacity="0"/>
</linearGradient>
<linearGradient id="paint1_linear_588_2475" x1="41.7524" y1="355.988" x2="-12.8988" y2="419.791" gradientUnits="userSpaceOnUse">
<stop offset="0.0343749" stop-color="#0F82DB"/>
<stop offset="1" stop-color="#0C78F4" stop-opacity="0"/>
</linearGradient>
<linearGradient id="paint2_linear_588_2475" x1="1.92139" y1="171.758" x2="160.959" y2="171.758" gradientUnits="userSpaceOnUse">
<stop stop-color="#47A4F5"/>
<stop offset="1" stop-color="#2D69DE"/>
</linearGradient>
<linearGradient id="paint3_linear_588_2475" x1="-32.6282" y1="206.297" x2="115.949" y2="354.919" gradientUnits="userSpaceOnUse">
<stop stop-color="#4986FD"/>
<stop offset="1" stop-color="#006AD0"/>
</linearGradient>
<linearGradient id="paint4_linear_588_2475" x1="91.7934" y1="218.119" x2="135.588" y2="349.635" gradientUnits="userSpaceOnUse">
<stop stop-color="#4EC3FC"/>
<stop offset="1" stop-color="#3274F3"/>
</linearGradient>
</defs>
</svg>
