<svg width="173" height="600" viewBox="0 0 173 600" fill="none" xmlns="http://www.w3.org/2000/svg">
<g opacity="0.2">
<path d="M92.3219 600L132.083 580L171.845 560V459.637L92.3219 499.399V600Z" fill="url(#paint0_linear_586_2474)"/>
<path d="M92.3218 600L13.0749 560.468V459.59L92.3218 499.401V600Z" fill="url(#paint1_linear_586_2474)"/>
<path d="M91.7042 499.414L92.3221 560L92.9399 499.414H91.7042Z" fill="#1329B1"/>
</g>
<path d="M172.121 170.464L92.5982 210.209L13.0796 170.464L92.5982 130.715L172.121 170.464Z" fill="url(#paint2_linear_586_2474)"/>
<path d="M92.5982 499.414L13.0796 459.66V170.464L92.5982 207.996V499.414Z" fill="url(#paint3_linear_586_2474)"/>
<path d="M92.5948 499.413L171.843 459.68V170.484L92.3203 208.552L92.5948 499.413Z" fill="url(#paint4_linear_586_2474)"/>
<path d="M92.0352 171.023L11.5288 90.5408H99.1846V92.1291H15.3662L93.1574 169.901L92.0352 171.023Z" fill="#292C33"/>
<path d="M97.255 168.136C99.8273 169.418 99.8273 171.498 97.255 172.792C94.6827 174.086 90.53 174.078 87.9409 172.792C85.3518 171.506 85.3686 169.43 87.9409 168.136C90.5132 166.842 94.6659 166.851 97.255 168.136Z" fill="#292C33"/>
<path d="M49.9276 449.251V455.167L30.5982 445.119V440.066L39.4744 431.96C40.3305 431.068 40.9988 430.247 41.4794 429.498C41.96 428.732 42.3055 428.006 42.5158 427.32C42.726 426.617 42.8311 425.91 42.8311 425.199C42.8311 424.099 42.7185 423.101 42.4932 422.205C42.2679 421.292 41.93 420.507 41.4794 419.85C41.0439 419.183 40.5032 418.682 39.8574 418.346C39.0764 417.94 38.4306 417.876 37.9199 418.152C37.4093 418.428 37.0263 418.974 36.771 419.789C36.5307 420.595 36.4105 421.59 36.4105 422.775L30.0801 419.484C30.0801 417.267 30.4781 415.443 31.2741 414.011C32.0851 412.588 33.219 411.713 34.6759 411.387C36.1477 411.052 37.9124 411.419 39.97 412.489C41.9826 413.535 43.6647 414.833 45.0164 416.382C46.3831 417.939 47.4119 419.684 48.1028 421.617C48.8087 423.541 49.1616 425.587 49.1616 427.753C49.1616 428.989 49.019 430.117 48.7336 431.136C48.4482 432.139 48.0427 433.079 47.5171 433.957C46.9914 434.818 46.3456 435.642 45.5796 436.429C44.8137 437.215 43.9501 437.994 42.9888 438.763L38.7084 443.419L49.9276 449.251ZM72.9742 445.414V451.837C72.9742 454.613 72.7414 456.879 72.2758 458.634C71.8102 460.39 71.1569 461.692 70.3158 462.541C69.4748 463.374 68.476 463.794 67.3196 463.802C66.1631 463.81 64.8865 463.451 63.4897 462.725C62.3783 462.148 61.3345 461.41 60.3583 460.513C59.382 459.617 58.4959 458.564 57.6999 457.354C56.9189 456.136 56.2431 454.76 55.6724 453.228C55.1167 451.686 54.6886 449.983 54.3882 448.117C54.0879 446.234 53.9377 444.176 53.9377 441.941V435.518C53.9377 432.741 54.1705 430.484 54.636 428.746C55.1167 426.998 55.7775 425.708 56.6185 424.876C57.4596 424.044 58.4584 423.632 59.6148 423.641C60.7863 423.64 62.0704 424.003 63.4672 424.729C64.5636 425.299 65.5999 426.033 66.5761 426.929C67.5674 427.817 68.446 428.858 69.2119 430.052C69.9929 431.253 70.6613 432.625 71.217 434.166C71.7877 435.698 72.2232 437.406 72.5236 439.289C72.824 441.154 72.9742 443.196 72.9742 445.414ZM66.6437 449.537V441.082C66.6437 439.778 66.5911 438.608 66.486 437.572C66.3959 436.543 66.2682 435.648 66.103 434.885C65.9378 434.122 65.72 433.458 65.4497 432.895C65.1794 432.331 64.879 431.87 64.5486 431.512C64.2181 431.137 63.8502 430.844 63.4447 430.634C62.9641 430.384 62.5285 430.31 62.138 430.411C61.7475 430.513 61.4096 430.837 61.1242 431.382C60.8389 431.911 60.6211 432.703 60.4709 433.76C60.3357 434.806 60.2682 436.142 60.2682 437.767V446.222C60.2682 447.526 60.3132 448.7 60.4033 449.746C60.5085 450.799 60.6511 451.728 60.8314 452.533C61.0266 453.328 61.2444 454 61.4847 454.548C61.74 455.104 62.0329 455.57 62.3633 455.944C62.7087 456.31 63.0842 456.598 63.4897 456.809C63.9703 457.059 64.4059 457.133 64.7964 457.032C65.2019 456.921 65.5398 456.589 65.8101 456.035C66.0805 455.482 66.2832 454.673 66.4184 453.609C66.5686 452.536 66.6437 451.179 66.6437 449.537Z" fill="white"/>
<path d="M132.73 449.514V455.43L113.089 464.855V459.802L122.108 442.754C122.978 440.999 123.657 439.505 124.145 438.272C124.634 437.022 124.985 435.948 125.198 435.05C125.412 434.135 125.519 433.322 125.519 432.611C125.519 431.511 125.404 430.626 125.175 429.957C124.947 429.272 124.603 428.827 124.145 428.624C123.703 428.396 123.153 428.439 122.497 428.754C121.704 429.135 121.047 429.721 120.529 430.511C120.01 431.302 119.62 432.234 119.361 433.306C119.117 434.354 118.995 435.471 118.995 436.656L112.562 439.742C112.562 437.525 112.967 435.3 113.776 433.066C114.6 430.826 115.752 428.809 117.232 427.015C118.728 425.197 120.521 423.787 122.612 422.783C124.657 421.802 126.366 421.405 127.739 421.592C129.128 421.772 130.173 422.481 130.875 423.718C131.593 424.931 131.951 426.621 131.951 428.788C131.951 430.024 131.806 431.295 131.516 432.602C131.226 433.892 130.814 435.241 130.28 436.648C129.746 438.039 129.09 439.513 128.312 441.072C127.533 442.63 126.656 444.278 125.679 446.016L121.33 454.984L132.73 449.514ZM151.02 409.608V446.653L144.61 449.729V421.419L138.247 427.189V421.248L150.333 409.938L151.02 409.608Z" fill="white"/>
<path d="M10.456 65.6063V22.4464L15.1766 27.167H1.01476V18.4002H21.3808V65.6063H10.456ZM29.1767 65.6063V58.5253L47.3847 41.3288C48.8234 40.0251 49.8799 38.8561 50.5543 37.8221C51.2287 36.7881 51.6782 35.8439 51.903 34.9897C52.1728 34.1355 52.3076 33.3488 52.3076 32.6294C52.3076 30.7412 51.6558 29.3025 50.352 28.3134C49.0931 27.2794 47.2274 26.7624 44.7547 26.7624C42.7765 26.7624 40.9332 27.1445 39.2248 27.9088C37.5614 28.6731 36.1452 29.8645 34.9763 31.483L27.0187 26.3578C28.817 23.6603 31.3347 21.5248 34.5716 19.9512C37.8086 18.3777 41.5402 17.5909 45.7662 17.5909C49.273 17.5909 52.3301 18.1754 54.9377 19.3443C57.5902 20.4682 59.6358 22.0643 61.0745 24.1323C62.5581 26.2004 63.2999 28.6731 63.2999 31.5504C63.2999 33.079 63.0976 34.6076 62.693 36.1362C62.3333 37.6198 61.569 39.1933 60.4001 40.8568C59.2762 42.5202 57.6127 44.386 55.4098 46.4541L40.3038 60.6833L38.2133 56.7045H64.851V65.6063H29.1767ZM90.4666 66.4155C86.1506 66.4155 82.3966 65.5163 79.2046 63.718C76.0575 61.9197 73.6298 59.2896 71.9214 55.8279C70.213 52.3661 69.3587 48.095 69.3587 43.0148C69.3587 37.5748 70.3703 32.9666 72.3934 29.1901C74.4615 25.4136 77.2939 22.5363 80.8905 20.5582C84.5321 18.58 88.7132 17.5909 93.4339 17.5909C95.9515 17.5909 98.3568 17.8607 100.65 18.4002C102.943 18.9397 104.921 19.7489 106.584 20.8279L102.538 28.8529C101.234 27.9538 99.8404 27.3468 98.3568 27.0321C96.8732 26.6725 95.3221 26.4926 93.7036 26.4926C89.6124 26.4926 86.3754 27.729 83.9926 30.2017C81.6098 32.6744 80.4185 36.3385 80.4185 41.194C80.4185 42.0032 80.4185 42.9024 80.4185 43.8915C80.4634 44.8805 80.5983 45.8696 80.8231 46.8587L77.7884 44.0263C78.6426 42.273 79.7441 40.8118 81.0928 39.6429C82.4416 38.429 84.0376 37.5299 85.8809 36.9454C87.7691 36.316 89.8372 36.0013 92.0851 36.0013C95.1423 36.0013 97.8847 36.6082 100.312 37.8221C102.74 39.036 104.673 40.7444 106.112 42.9473C107.596 45.1503 108.337 47.7354 108.337 50.7026C108.337 53.8947 107.528 56.6821 105.91 59.0648C104.336 61.4027 102.201 63.2235 99.5032 64.5273C96.8507 65.7861 93.8385 66.4155 90.4666 66.4155ZM89.8597 58.2556C91.3883 58.2556 92.737 57.9859 93.9059 57.4464C95.1198 56.8619 96.0639 56.0302 96.7383 54.9512C97.4127 53.8722 97.7498 52.6358 97.7498 51.2421C97.7498 49.0841 97.008 47.3757 95.5244 46.1169C94.0857 44.8131 92.1525 44.1612 89.7248 44.1612C88.1063 44.1612 86.6901 44.4759 85.4763 45.1053C84.2624 45.6898 83.2958 46.5215 82.5765 47.6005C81.9021 48.6345 81.5649 49.8484 81.5649 51.2421C81.5649 52.5909 81.9021 53.8047 82.5765 54.8837C83.2508 55.9178 84.1949 56.7495 85.4088 57.3789C86.6227 57.9634 88.1063 58.2556 89.8597 58.2556Z" fill="#080969"/>
<defs>
<linearGradient id="paint0_linear_586_2474" x1="132.219" y1="458.844" x2="132.25" y2="560" gradientUnits="userSpaceOnUse">
<stop stop-color="#001CDD" stop-opacity="0.84"/>
<stop offset="1" stop-color="#2E87DB" stop-opacity="0"/>
</linearGradient>
<linearGradient id="paint1_linear_586_2474" x1="55.4198" y1="493.042" x2="16.4572" y2="541.776" gradientUnits="userSpaceOnUse">
<stop stop-color="#002980"/>
<stop offset="1" stop-color="#2365B0" stop-opacity="0"/>
</linearGradient>
<linearGradient id="paint2_linear_586_2474" x1="13.0796" y1="170.464" x2="172.121" y2="170.464" gradientUnits="userSpaceOnUse">
<stop stop-color="#3551B7"/>
<stop offset="1" stop-color="#1F2E9E"/>
</linearGradient>
<linearGradient id="paint3_linear_586_2474" x1="-9.25736" y1="199.566" x2="92.2341" y2="485.362" gradientUnits="userSpaceOnUse">
<stop stop-color="#3E5DBB"/>
<stop offset="1" stop-color="#19196B"/>
</linearGradient>
<linearGradient id="paint4_linear_586_2474" x1="73.9183" y1="138.471" x2="203.193" y2="538.076" gradientUnits="userSpaceOnUse">
<stop stop-color="#5F95FB"/>
<stop offset="1" stop-color="#201DB5"/>
</linearGradient>
</defs>
</svg>
