<svg width="129" height="643" viewBox="0 0 129 643" fill="none" xmlns="http://www.w3.org/2000/svg">
<g opacity="0.4">
<path d="M68.8095 642.298L9.19629 612.311V536.686L68.8095 566.488V642.298Z" fill="url(#paint0_linear_3294_3512)"/>
<path d="M68.8096 642.298L128.426 612.311V536.686L68.8096 566.488V642.298Z" fill="url(#paint1_linear_3294_3512)" fill-opacity="0.6"/>
<path d="M69.273 566.891L68.8099 612.311L68.3467 566.891H69.273Z" fill="#AE1607" fill-opacity="0.8"/>
</g>
<path d="M128.426 132.217L68.8063 162.017L9.19629 132.217L68.8063 102.418L128.426 132.217Z" fill="url(#paint2_linear_3294_3512)"/>
<path d="M68.8095 566.891L9.19629 537.089V132.194L68.8095 162V566.891Z" fill="url(#paint3_linear_3294_3512)"/>
<path d="M68.8096 566.891L128.426 537.089V132.195L68.8096 162V566.891Z" fill="url(#paint4_linear_3294_3512)"/>
<path d="M68.39 130.17L8.0332 69.8345H73.7467V71.0252H10.91L69.2313 129.329L68.39 130.17Z" fill="#292C33"/>
<path d="M72.3007 128.003C74.2323 128.967 74.2323 130.523 72.3007 131.493C70.3692 132.463 67.2592 132.46 65.3213 131.493C63.3835 130.526 63.3866 128.973 65.3213 128.003C67.256 127.032 70.3755 127.039 72.3007 128.003Z" fill="#292C33"/>
<path d="M36.1802 534.987L21.6894 527.454V523.647L28.3437 517.57C29.1882 516.689 29.8074 515.856 30.2015 515.071C30.6068 514.28 30.8095 513.427 30.8095 512.513C30.8095 511.282 30.6181 510.218 30.2353 509.321C29.8637 508.43 29.3233 507.8 28.6139 507.432C27.837 507.028 27.2178 507.112 26.7561 507.684C26.3058 508.262 26.0806 509.287 26.0806 510.759L21.2841 508.266C21.2841 506.565 21.5937 505.172 22.213 504.085C22.8435 503.004 23.7217 502.37 24.8477 502.181C25.9849 501.985 27.2684 502.259 28.6984 503.002C30.894 504.144 32.5941 505.713 33.7989 507.71C35.0149 509.7 35.6229 511.951 35.6229 514.463C35.6229 516.024 35.2851 517.435 34.6095 518.695C33.9452 519.949 32.7349 521.293 30.9784 522.727L27.8201 526.168L36.1802 530.514V534.987ZM53.4746 532.519C53.4746 536.351 52.8554 538.96 51.6168 540.347C50.3896 541.739 48.6331 541.841 46.3474 540.653C44.0843 539.477 42.3335 537.583 41.0949 534.972C39.8677 532.355 39.2315 529.194 39.1865 525.491V520.256C39.1865 516.436 39.8001 513.837 41.0274 512.457C42.2547 511.065 44.0168 510.966 46.3137 512.16C48.6106 513.354 50.3727 515.272 51.5999 517.915C52.8272 520.558 53.4521 523.744 53.4746 527.474V532.519ZM48.6781 524.41C48.6781 522.227 48.4867 520.491 48.1039 519.2C47.7211 517.91 47.1243 517.054 46.3137 516.633C44.7936 515.843 44.0055 517.431 43.9492 521.4V528.309C43.9492 530.543 44.1406 532.304 44.5234 533.595C44.9175 534.891 45.5255 535.753 46.3474 536.18C47.1243 536.584 47.6986 536.375 48.0701 535.553C48.4529 534.724 48.6556 533.262 48.6781 531.167V524.41Z" fill="white"/>
<path d="M98.2551 537.433L83.5307 544.498V540.692L90.2922 527.911C91.1503 526.179 91.7796 524.722 92.18 523.54C92.5919 522.34 92.7978 521.283 92.7978 520.37C92.7978 519.139 92.6033 518.268 92.2143 517.756C91.8368 517.24 91.2876 517.154 90.5668 517.5C89.7774 517.879 89.1482 518.587 88.6791 519.624C88.2215 520.656 87.9926 521.908 87.9926 523.38L83.1188 525.718C83.1188 524.018 83.4335 522.313 84.0627 520.602C84.7034 518.886 85.5958 517.366 86.7399 516.043C87.8954 514.702 89.1996 513.683 90.6526 512.986C92.8836 511.915 94.6112 511.771 95.8353 512.554C97.0709 513.319 97.6887 514.958 97.6887 517.471C97.6887 519.032 97.3455 520.782 96.6591 522.723C95.9841 524.646 94.7542 527.21 92.9694 530.414L89.7602 537.036L98.2551 532.96V537.433ZM105.634 517.579L107.985 516.451C108.878 516.023 109.53 515.367 109.942 514.484C110.365 513.583 110.577 512.555 110.577 511.4C110.577 510.296 110.359 509.544 109.925 509.144C109.501 508.725 108.929 508.689 108.209 509.035C107.534 509.358 106.979 509.917 106.544 510.709C106.121 511.496 105.909 512.333 105.909 513.222L101.052 515.552C101.052 514.105 101.35 512.668 101.945 511.241C102.551 509.795 103.392 508.491 104.467 507.327C105.554 506.159 106.756 505.259 108.071 504.627C110.371 503.524 112.173 503.363 113.477 504.146C114.781 504.929 115.433 506.545 115.433 508.994C115.433 510.25 115.136 511.56 114.541 512.924C113.958 514.27 113.185 515.459 112.224 516.492C113.403 516.485 114.278 516.902 114.85 517.744C115.433 518.581 115.725 519.761 115.725 521.284C115.725 523.745 115.016 526.059 113.597 528.225C112.19 530.384 110.337 532.016 108.037 533.12C105.898 534.146 104.159 534.251 102.82 533.434C101.493 532.599 100.829 530.988 100.829 528.603L105.686 526.272C105.686 527.262 105.92 527.981 106.39 528.428C106.859 528.876 107.454 528.927 108.174 528.581C109.009 528.18 109.667 527.522 110.148 526.606C110.64 525.684 110.886 524.653 110.886 523.511C110.886 520.782 109.93 519.87 108.02 520.774L105.634 521.919V517.579Z" fill="white"/>
<path d="M1.76425 49V43.6916L15.4144 30.7998C16.493 29.8224 17.285 28.946 17.7906 28.1708C18.2961 27.3957 18.6332 26.6879 18.8017 26.0475C19.0039 25.4071 19.105 24.8173 19.105 24.278C19.105 22.8624 18.6163 21.7839 17.6389 21.0424C16.6952 20.2672 15.2965 19.8796 13.4427 19.8796C11.9597 19.8796 10.5779 20.1661 9.29712 20.7391C8.05007 21.3121 6.98839 22.2052 6.11208 23.4186L0.14645 19.5763C1.49462 17.554 3.38205 15.9531 5.80874 14.7735C8.23544 13.5938 11.0329 13.004 14.2011 13.004C16.83 13.004 19.1219 13.4421 21.0767 14.3185C23.0653 15.1611 24.5988 16.3576 25.6773 17.9079C26.7896 19.4583 27.3457 21.3121 27.3457 23.4691C27.3457 24.6151 27.194 25.761 26.8907 26.9069C26.621 28.0192 26.0481 29.1988 25.1718 30.4459C24.3292 31.6929 23.0821 33.0917 21.4306 34.642L10.106 45.3094L8.53878 42.3266H28.5085V49H1.76425ZM47.7119 49.6067C44.4763 49.6067 41.662 48.9326 39.269 47.5844C36.9098 46.2363 35.0897 44.2646 33.809 41.6694C32.5282 39.0741 31.8878 35.8722 31.8878 32.0637C31.8878 27.9855 32.6462 24.5308 34.1629 21.6997C35.7133 18.8685 37.8366 16.7114 40.5329 15.2285C43.263 13.7455 46.3975 13.004 49.9364 13.004C51.8238 13.004 53.627 13.2062 55.3459 13.6107C57.0648 14.0151 58.5478 14.6218 59.7949 15.4307L56.7615 21.4469C55.7841 20.7728 54.7392 20.3178 53.627 20.0819C52.5148 19.8122 51.352 19.6774 50.1386 19.6774C47.0715 19.6774 44.6449 20.6043 42.8585 22.458C41.0722 24.3117 40.1791 27.0586 40.1791 30.6987C40.1791 31.3053 40.1791 31.9794 40.1791 32.7209C40.2128 33.4624 40.3139 34.2039 40.4824 34.9454L38.2074 32.822C38.8477 31.5076 39.6735 30.4122 40.6846 29.5359C41.6957 28.6259 42.8922 27.9518 44.2741 27.5136C45.6897 27.0418 47.2401 26.8058 48.9253 26.8058C51.2172 26.8058 53.2731 27.2608 55.0931 28.1708C56.9132 29.0809 58.3624 30.3616 59.441 32.0131C60.5532 33.6646 61.1093 35.6026 61.1093 37.8271C61.1093 40.2201 60.5026 42.3097 59.2893 44.096C58.1097 45.8487 56.5087 47.2137 54.4865 48.1911C52.4979 49.1348 50.2397 49.6067 47.7119 49.6067ZM47.2569 43.4894C48.4029 43.4894 49.414 43.2872 50.2903 42.8827C51.2003 42.4445 51.9081 41.821 52.4137 41.0121C52.9192 40.2032 53.172 39.2764 53.172 38.2315C53.172 36.6137 52.6159 35.333 51.5036 34.3893C50.4251 33.4118 48.9758 32.9231 47.1558 32.9231C45.9425 32.9231 44.8808 33.1591 43.9708 33.6309C43.0608 34.0691 42.3361 34.6926 41.7969 35.5015C41.2913 36.2767 41.0385 37.1867 41.0385 38.2315C41.0385 39.2427 41.2913 40.1527 41.7969 40.9616C42.3024 41.7368 43.0102 42.3603 43.9202 42.8321C44.8302 43.2703 45.9425 43.4894 47.2569 43.4894ZM69.538 49V16.644L73.0769 20.183H62.4601V13.6107H77.7281V49H69.538Z" fill="#C56621"/>
<defs>
<linearGradient id="paint0_linear_3294_3512" x1="49.0308" y1="559.122" x2="16.2603" y2="611.761" gradientUnits="userSpaceOnUse">
<stop stop-color="#B24101"/>
<stop offset="1" stop-color="#AE1708" stop-opacity="0"/>
</linearGradient>
<linearGradient id="paint1_linear_3294_3512" x1="80.1468" y1="556.033" x2="120.672" y2="602.619" gradientUnits="userSpaceOnUse">
<stop stop-color="#E09C76"/>
<stop offset="1" stop-color="#B41C0E" stop-opacity="0"/>
</linearGradient>
<linearGradient id="paint2_linear_3294_3512" x1="9.19629" y1="132.217" x2="128.426" y2="132.217" gradientUnits="userSpaceOnUse">
<stop stop-color="#DA7237"/>
<stop offset="1" stop-color="#AC6A06"/>
</linearGradient>
<linearGradient id="paint3_linear_3294_3512" x1="-64.3977" y1="286.58" x2="142.341" y2="493.384" gradientUnits="userSpaceOnUse">
<stop stop-color="#DD883A"/>
<stop offset="1" stop-color="#B04509"/>
</linearGradient>
<linearGradient id="paint4_linear_3294_3512" x1="98.5483" y1="344.63" x2="164.859" y2="492.211" gradientUnits="userSpaceOnUse">
<stop stop-color="#FBA97B"/>
<stop offset="1" stop-color="#D9763F"/>
</linearGradient>
</defs>
</svg>
