<svg width="175" height="649" viewBox="0 0 175 649" fill="none" xmlns="http://www.w3.org/2000/svg">
<path d="M174.279 176.366L94.7517 216.116L15.2373 176.366L94.7517 136.617L174.279 176.366Z" fill="url(#paint0_linear_540_3328)"/>
<path d="M94.7559 648.414L15.2373 608.66V176.366L94.7559 216.124V648.414Z" fill="url(#paint1_linear_540_3328)"/>
<path d="M94.7559 648.414L174.279 608.66V176.366L94.7559 216.124V648.414Z" fill="url(#paint2_linear_540_3328)"/>
<path d="M94.1971 173.635L13.6865 93.1529H101.342V94.7412H17.524L95.3193 172.513L94.1971 173.635Z" fill="#292C33"/>
<path d="M99.413 170.744C101.989 172.03 101.989 174.106 99.413 175.4C96.8365 176.694 92.688 176.69 90.1031 175.4C87.5182 174.11 87.5224 172.038 90.1031 170.744C92.6838 169.45 96.8449 169.458 99.413 170.744Z" fill="#292C33"/>
<path d="M51.2323 599.92V605.836L31.9029 595.787V590.735L40.7791 582.628C41.6352 581.736 42.3035 580.916 42.7841 580.167C43.2647 579.401 43.6102 578.675 43.8204 577.989C44.0307 577.285 44.1358 576.578 44.1358 575.867C44.1358 574.767 44.0232 573.769 43.7979 572.873C43.5726 571.961 43.2347 571.176 42.7841 570.518C42.3486 569.852 41.8079 569.351 41.1621 569.015C40.3811 568.609 39.7353 568.544 39.2246 568.82C38.714 569.096 38.331 569.642 38.0757 570.457C37.8354 571.263 37.7152 572.259 37.7152 573.444L31.3847 570.153C31.3847 567.935 31.7827 566.111 32.5787 564.68C33.3898 563.256 34.5237 562.382 35.9805 562.056C37.4524 561.721 39.2171 562.088 41.2747 563.157C43.2873 564.204 44.9694 565.501 46.3211 567.05C47.6878 568.607 48.7166 570.352 49.4075 572.286C50.1134 574.21 50.4663 576.255 50.4663 578.422C50.4663 579.658 50.3236 580.785 50.0383 581.805C49.7529 582.808 49.3474 583.748 48.8217 584.626C48.2961 585.486 47.6503 586.31 46.8843 587.097C46.1183 587.884 45.2547 588.662 44.2935 589.432L40.0131 594.088L51.2323 599.92ZM74.2789 596.082V602.506C74.2789 605.282 74.0461 607.548 73.5805 609.303C73.1149 611.058 72.4616 612.361 71.6205 613.21C70.7795 614.042 69.7807 614.462 68.6242 614.471C67.4678 614.479 66.1912 614.12 64.7944 613.394C63.683 612.816 62.6392 612.079 61.663 611.182C60.6867 610.285 59.8006 609.232 59.0046 608.023C58.2236 606.804 57.5478 605.429 56.977 603.896C56.4213 602.355 55.9933 600.651 55.6929 598.785C55.3925 596.903 55.2424 594.844 55.2424 592.61V586.186C55.2424 583.41 55.4751 581.153 55.9407 579.414C56.4213 577.667 57.0822 576.377 57.9232 575.544C58.7643 574.712 59.7631 574.3 60.9195 574.309C62.091 574.309 63.3751 574.672 64.7719 575.398C65.8683 575.968 66.9046 576.701 67.8808 577.598C68.8721 578.485 69.7507 579.526 70.5166 580.72C71.2976 581.922 71.966 583.293 72.5217 584.835C73.0924 586.367 73.5279 588.074 73.8283 589.957C74.1287 591.823 74.2789 593.865 74.2789 596.082ZM67.9484 600.205V591.75C67.9484 590.447 67.8958 589.277 67.7907 588.24C67.7006 587.212 67.5729 586.316 67.4077 585.553C67.2425 584.79 67.0247 584.127 66.7544 583.563C66.484 582.999 66.1837 582.538 65.8532 582.181C65.5228 581.806 65.1549 581.513 64.7494 581.302C64.2687 581.052 63.8332 580.978 63.4427 581.08C63.0522 581.181 62.7143 581.505 62.4289 582.051C62.1436 582.58 61.9258 583.372 61.7756 584.428C61.6404 585.475 61.5728 586.811 61.5728 588.436V596.891C61.5728 598.194 61.6179 599.369 61.708 600.414C61.8131 601.468 61.9558 602.397 62.1361 603.201C62.3313 603.997 62.5491 604.669 62.7894 605.217C63.0447 605.773 63.3376 606.238 63.668 606.613C64.0134 606.979 64.3889 607.267 64.7944 607.478C65.275 607.728 65.7106 607.802 66.1011 607.7C66.5066 607.589 66.8445 607.257 67.1148 606.704C67.3852 606.15 67.5879 605.341 67.7231 604.278C67.8733 603.205 67.9484 601.847 67.9484 600.205Z" fill="white"/>
<path d="M134.034 603.182V609.098L114.393 618.523V613.47L123.413 596.422C124.283 594.667 124.962 593.173 125.45 591.94C125.938 590.69 126.289 589.616 126.503 588.718C126.717 587.803 126.824 586.99 126.824 586.279C126.824 585.179 126.709 584.294 126.48 583.626C126.251 582.94 125.908 582.495 125.45 582.292C125.007 582.064 124.458 582.108 123.802 582.422C123.008 582.803 122.352 583.389 121.833 584.18C121.314 584.97 120.925 585.902 120.666 586.974C120.422 588.022 120.299 589.139 120.299 590.324L113.867 593.411C113.867 591.193 114.271 588.968 115.08 586.735C115.904 584.494 117.056 582.477 118.537 580.683C120.032 578.865 121.826 577.455 123.916 576.452C125.961 575.47 127.671 575.073 129.044 575.261C130.433 575.44 131.478 576.149 132.18 577.386C132.897 578.6 133.256 580.289 133.256 582.456C133.256 583.692 133.111 584.963 132.821 586.27C132.531 587.561 132.119 588.909 131.585 590.317C131.051 591.707 130.395 593.181 129.616 594.74C128.838 596.298 127.96 597.946 126.984 599.685L122.634 608.653L134.034 603.182ZM157.75 591.802V597.718L138.109 607.143V602.09L147.128 585.042C147.998 583.287 148.677 581.793 149.166 580.56C149.654 579.31 150.005 578.236 150.219 577.338C150.432 576.423 150.539 575.61 150.539 574.899C150.539 573.799 150.425 572.914 150.196 572.246C149.967 571.56 149.624 571.115 149.166 570.912C148.723 570.684 148.174 570.728 147.517 571.042C146.724 571.423 146.068 572.009 145.549 572.8C145.03 573.59 144.641 574.522 144.381 575.594C144.137 576.642 144.015 577.759 144.015 578.944L137.583 582.03C137.583 579.813 137.987 577.588 138.796 575.355C139.62 573.114 140.772 571.097 142.252 569.303C143.748 567.485 145.541 566.075 147.632 565.071C149.677 564.09 151.386 563.693 152.76 563.88C154.148 564.06 155.194 564.769 155.896 566.006C156.613 567.22 156.972 568.909 156.972 571.076C156.972 572.312 156.827 573.583 156.537 574.89C156.247 576.18 155.835 577.529 155.301 578.937C154.766 580.327 154.11 581.801 153.332 583.36C152.554 584.918 151.676 586.566 150.699 588.305L146.35 597.273L157.75 591.802Z" fill="white"/>
<path d="M10.2829 65V21.8401L15.0035 26.5608H0.841671V17.7939H21.2077V65H10.2829ZM45.9978 16.9847C50.3587 16.9847 54.1127 17.8838 57.2598 19.6822C60.4069 21.4805 62.8346 24.1105 64.543 27.5723C66.2514 30.9891 67.1056 35.2602 67.1056 40.3854C67.1056 45.8253 66.0716 50.4335 64.0035 54.21C61.9804 57.9865 59.1705 60.8638 55.5739 62.842C51.9772 64.8202 47.7961 65.8092 43.0305 65.8092C40.5578 65.8092 38.175 65.5395 35.8822 65C33.5893 64.4605 31.6112 63.6513 29.9477 62.5723L33.9939 54.5472C35.2977 55.4464 36.6914 56.0758 38.1751 56.4355C39.6587 56.7502 41.2097 56.9075 42.8282 56.9075C46.8745 56.9075 50.089 55.6712 52.4718 53.1985C54.8995 50.7258 56.1134 47.0617 56.1134 42.2062C56.1134 41.397 56.0909 40.4978 56.0459 39.5087C56.001 38.5196 55.8886 37.5306 55.7087 36.5415L58.676 39.3738C57.9117 41.1272 56.8327 42.6108 55.439 43.8247C54.0453 44.9936 52.4268 45.8928 50.5835 46.5222C48.7402 47.1066 46.6721 47.3989 44.3793 47.3989C41.3671 47.3989 38.6246 46.7919 36.1519 45.5781C33.7242 44.3642 31.7685 42.6558 30.2849 40.4528C28.8462 38.2499 28.1269 35.6648 28.1269 32.6975C28.1269 29.4606 28.9137 26.6731 30.4872 24.3353C32.1057 21.9975 34.2637 20.1992 36.9612 18.9403C39.7036 17.6366 42.7158 16.9847 45.9978 16.9847ZM46.6721 25.1446C45.0986 25.1446 43.7274 25.4368 42.5585 26.0213C41.3896 26.5608 40.4679 27.37 39.7935 28.449C39.1192 29.483 38.782 30.7194 38.782 32.158C38.782 34.316 39.5013 36.0469 40.94 37.3507C42.4236 38.6095 44.3793 39.239 46.807 39.239C48.3806 39.239 49.7743 38.9467 50.9881 38.3623C52.247 37.7329 53.2136 36.8787 53.8879 35.7997C54.5623 34.7207 54.8995 33.5068 54.8995 32.158C54.8995 30.8093 54.5623 29.6179 53.8879 28.5839C53.2585 27.5049 52.3369 26.6731 51.123 26.0887C49.9091 25.4593 48.4255 25.1446 46.6721 25.1446ZM91.9036 65.8092C87.9473 65.8092 84.4855 65.2248 81.5182 64.0559C78.551 62.842 76.2357 61.1561 74.5722 58.9981C72.9088 56.7951 72.077 54.2325 72.077 51.3102C72.077 48.388 72.8863 45.9153 74.5048 43.8921C76.1682 41.8241 78.4836 40.273 81.4508 39.239C84.418 38.16 87.9023 37.6205 91.9036 37.6205C95.9498 37.6205 99.4566 38.16 102.424 39.239C105.436 40.273 107.751 41.8241 109.37 43.8921C111.033 45.9153 111.865 48.388 111.865 51.3102C111.865 54.2325 111.033 56.7951 109.37 58.9981C107.706 61.1561 105.369 62.842 102.356 64.0559C99.3891 65.2248 95.9049 65.8092 91.9036 65.8092ZM91.9036 57.7842C94.646 57.7842 96.804 57.1773 98.3776 55.9634C99.9961 54.7495 100.805 53.0861 100.805 50.973C100.805 48.86 99.9961 47.219 98.3776 46.0501C96.804 44.8363 94.646 44.2293 91.9036 44.2293C89.2061 44.2293 87.0706 44.8363 85.497 46.0501C83.9235 47.219 83.1367 48.86 83.1367 50.973C83.1367 53.0861 83.9235 54.7495 85.497 55.9634C87.0706 57.1773 89.2061 57.7842 91.9036 57.7842ZM91.9036 43.1503C88.262 43.1503 85.0699 42.6558 82.3275 41.6667C79.63 40.6776 77.517 39.239 75.9884 37.3507C74.5048 35.4175 73.763 33.1246 73.763 30.4721C73.763 27.6847 74.5272 25.3019 76.0558 23.3238C77.5844 21.3006 79.7199 19.7496 82.4624 18.6706C85.2048 17.5466 88.3519 16.9847 91.9036 16.9847C95.5452 16.9847 98.7147 17.5466 101.412 18.6706C104.155 19.7496 106.29 21.3006 107.819 23.3238C109.392 25.3019 110.179 27.6847 110.179 30.4721C110.179 33.1246 109.415 35.4175 107.886 37.3507C106.403 39.239 104.29 40.6776 101.547 41.6667C98.8047 42.6558 95.5902 43.1503 91.9036 43.1503ZM91.9036 36.7438C94.1965 36.7438 95.9948 36.2268 97.2986 35.1927C98.6473 34.1587 99.3217 32.7425 99.3217 30.9442C99.3217 29.0559 98.6248 27.5948 97.2311 26.5608C95.8824 25.5267 94.1065 25.0097 91.9036 25.0097C89.7456 25.0097 87.9922 25.5267 86.6435 26.5608C85.2947 27.5948 84.6204 29.0559 84.6204 30.9442C84.6204 32.7425 85.2723 34.1587 86.576 35.1927C87.8798 36.2268 89.6557 36.7438 91.9036 36.7438Z" fill="#D53931"/>
<defs>
<linearGradient id="paint0_linear_540_3328" x1="15.2373" y1="176.366" x2="174.279" y2="176.366" gradientUnits="userSpaceOnUse">
<stop stop-color="#DA3D37"/>
<stop offset="1" stop-color="#AC1606"/>
</linearGradient>
<linearGradient id="paint1_linear_540_3328" x1="-82.9305" y1="274.504" x2="192.841" y2="550.363" gradientUnits="userSpaceOnUse">
<stop stop-color="#DD403A"/>
<stop offset="1" stop-color="#B01809"/>
</linearGradient>
<linearGradient id="paint2_linear_540_3328" x1="134.425" y1="351.938" x2="222.877" y2="548.797" gradientUnits="userSpaceOnUse">
<stop stop-color="#FB7F7B"/>
<stop offset="1" stop-color="#D9463F"/>
</linearGradient>
</defs>
</svg>
