<svg width="1103" height="387" viewBox="0 0 1103 387" fill="none" xmlns="http://www.w3.org/2000/svg">
<path d="M45.4222 11.6742L28.3906 57.2358L33.7121 59.2364L50.7437 13.6748L45.4222 11.6742Z" fill="#4E75D8" fill-opacity="0.2"/>
<path d="M58.4591 35.7169L49.1172 45.0855L53.1264 49.1062L66.4971 35.7169L53.1264 22.3081L49.1172 26.3288L58.4591 35.7169Z" fill="#4E75D8" fill-opacity="0.2"/>
<path d="M30.4112 45.0855L21.0498 35.6974L30.4112 26.3288L26.3825 22.3081L13.0312 35.6974L26.3825 49.1062L30.4112 45.0855Z" fill="#4E75D8" fill-opacity="0.2"/>
<path d="M61.3066 70.967L81.7421 35.4836L61.3066 0H20.4355L0 35.4836L20.4355 70.967H61.3066ZM24.114 6.36285H57.6284L74.405 35.4836L57.6284 64.6042H24.114L7.35685 35.4836L24.114 6.36285Z" fill="#4E75D8" fill-opacity="0.2"/>
<path d="M112.805 51.8288L95.7734 97.3905L101.095 99.3911L118.127 53.8294L112.805 51.8288Z" fill="#4E75D8" fill-opacity="0.2"/>
<path d="M125.858 75.8714L116.516 85.24L120.525 89.2607L133.896 75.8714L120.525 62.4626L116.516 66.4833L125.858 75.8714Z" fill="#4E75D8" fill-opacity="0.2"/>
<path d="M97.8096 85.24L88.4482 75.8519L97.8096 66.4833L93.7809 62.4626L80.4297 75.8519L93.7809 89.2607L97.8096 85.24Z" fill="#4E75D8" fill-opacity="0.2"/>
<path d="M128.705 111.121L149.141 75.6374L128.705 40.1538H87.834L67.3984 75.6374L87.834 111.121H128.705ZM91.5124 46.5167H125.027L141.803 75.6374L125.027 104.758H91.5124L74.7553 75.6374L91.5124 46.5167Z" fill="#4E75D8" fill-opacity="0.2"/>
<path d="M657.758 51.8291L640.727 97.3907L646.048 99.3913L663.08 53.8297L657.758 51.8291Z" fill="#4E75D8" fill-opacity="0.2"/>
<path d="M670.795 75.8711L661.453 85.2397L665.462 89.2603L678.833 75.8711L665.462 62.4623L661.453 66.483L670.795 75.8711Z" fill="#4E75D8" fill-opacity="0.2"/>
<path d="M642.747 85.2397L633.386 75.8516L642.747 66.483L638.718 62.4623L625.367 75.8516L638.718 89.2603L642.747 85.2397Z" fill="#4E75D8" fill-opacity="0.2"/>
<path d="M673.643 111.12L694.078 75.6371L673.643 40.1534H632.771L612.336 75.6371L632.771 111.12H673.643ZM636.45 46.5163H669.964L686.741 75.6371L669.964 104.758H636.45L619.693 75.6371L636.45 46.5163Z" fill="#4E75D8" fill-opacity="0.2"/>
<path d="M726.61 11.6742L709.578 57.2358L714.9 59.2364L731.931 13.6748L726.61 11.6742Z" fill="#4E75D8" fill-opacity="0.2"/>
<path d="M739.647 35.7169L730.305 45.0855L734.314 49.1062L747.685 35.7169L734.314 22.3081L730.305 26.3288L739.647 35.7169Z" fill="#4E75D8" fill-opacity="0.2"/>
<path d="M711.599 45.0855L702.237 35.6974L711.599 26.3288L707.57 22.3081L694.219 35.6974L707.57 49.1062L711.599 45.0855Z" fill="#4E75D8" fill-opacity="0.2"/>
<path d="M742.494 70.967L762.93 35.4836L742.494 0H701.623L681.188 35.4836L701.623 70.967H742.494ZM705.301 6.36285H738.816L755.592 35.4836L738.816 64.6042H705.301L688.544 35.4836L705.301 6.36285Z" fill="#4E75D8" fill-opacity="0.2"/>
<path d="M793.993 51.8288L776.961 97.3905L782.282 99.3911L799.314 53.8294L793.993 51.8288Z" fill="#4E75D8" fill-opacity="0.2"/>
<path d="M807.029 75.8714L797.688 85.24L801.697 89.2607L815.067 75.8714L801.697 62.4626L797.688 66.4833L807.029 75.8714Z" fill="#4E75D8" fill-opacity="0.2"/>
<path d="M778.981 85.24L769.62 75.8519L778.981 66.4833L774.953 62.4626L761.602 75.8519L774.953 89.2607L778.981 85.24Z" fill="#4E75D8" fill-opacity="0.2"/>
<path d="M809.877 111.121L830.312 75.6374L809.877 40.1538H769.006L748.57 75.6374L769.006 111.121H809.877ZM772.684 46.5167H806.199L822.975 75.6374L806.199 104.758H772.684L755.927 75.6374L772.684 46.5167Z" fill="#4E75D8" fill-opacity="0.2"/>
<path d="M930.227 51.8288L913.195 97.3905L918.517 99.3911L935.548 53.8294L930.227 51.8288Z" fill="#4E75D8" fill-opacity="0.2"/>
<path d="M943.264 75.8714L933.922 85.24L937.931 89.2607L951.302 75.8714L937.931 62.4626L933.922 66.4833L943.264 75.8714Z" fill="#4E75D8" fill-opacity="0.2"/>
<path d="M915.216 85.24L905.854 75.8519L915.216 66.4833L911.187 62.4626L897.836 75.8519L911.187 89.2607L915.216 85.24Z" fill="#4E75D8" fill-opacity="0.2"/>
<path d="M946.111 111.121L966.547 75.6374L946.111 40.1538H905.24L884.805 75.6374L905.24 111.121H946.111ZM908.919 46.5167H942.433L959.21 75.6374L942.433 104.758H908.919L892.162 75.6374L908.919 46.5167Z" fill="#4E75D8" fill-opacity="0.2"/>
<path d="M45.4222 90.5279L28.3906 136.09L33.7121 138.09L50.7437 92.5285L45.4222 90.5279Z" fill="#4E75D8" fill-opacity="0.2"/>
<path d="M58.4591 114.571L49.1172 123.94L53.1264 127.96L66.4971 114.571L53.1264 101.162L49.1172 105.183L58.4591 114.571Z" fill="#4E75D8" fill-opacity="0.2"/>
<path d="M30.4112 123.94L21.0498 114.552L30.4112 105.183L26.3825 101.162L13.0312 114.552L26.3825 127.96L30.4112 123.94Z" fill="#4E75D8" fill-opacity="0.2"/>
<path d="M61.3066 149.82L81.7421 114.337L61.3066 78.8532H20.4355L0 114.337L20.4355 149.82H61.3066ZM24.114 85.2161H57.6284L74.405 114.337L57.6284 143.457H24.114L7.35685 114.337L24.114 85.2161Z" fill="#4E75D8" fill-opacity="0.2"/>
<path d="M112.805 130.683L95.7734 176.245L101.095 178.245L118.127 132.684L112.805 130.683Z" fill="#4E75D8" fill-opacity="0.2"/>
<path d="M125.858 154.725L116.516 164.094L120.525 168.114L133.896 154.725L120.525 141.316L116.516 145.337L125.858 154.725Z" fill="#4E75D8" fill-opacity="0.2"/>
<path d="M97.8096 164.094L88.4482 154.706L97.8096 145.337L93.7809 141.316L80.4297 154.706L93.7809 168.114L97.8096 164.094Z" fill="#4E75D8" fill-opacity="0.2"/>
<path d="M128.705 189.974L149.141 154.491L128.705 119.007H87.834L67.3984 154.491L87.834 189.974H128.705ZM91.5124 125.37H125.027L141.803 154.491L125.027 183.611H91.5124L74.7553 154.491L91.5124 125.37Z" fill="#4E75D8" fill-opacity="0.2"/>
<path d="M181.633 90.5279L164.602 136.09L169.923 138.09L186.955 92.5285L181.633 90.5279Z" fill="#4E75D8" fill-opacity="0.2"/>
<path d="M194.686 114.571L185.344 123.94L189.353 127.961L202.724 114.571L189.353 101.162L185.344 105.183L194.686 114.571Z" fill="#4E75D8" fill-opacity="0.2"/>
<path d="M166.638 123.94L157.276 114.552L166.638 105.183L162.609 101.162L149.258 114.552L162.609 127.961L166.638 123.94Z" fill="#4E75D8" fill-opacity="0.2"/>
<path d="M197.533 149.821L217.969 114.338L197.533 78.8539H156.662L136.227 114.338L156.662 149.821H197.533ZM160.341 85.2167H193.855L210.632 114.338L193.855 143.458H160.341L143.583 114.338L160.341 85.2167Z" fill="#4E75D8" fill-opacity="0.2"/>
<path d="M385.297 130.683L368.266 176.245L373.587 178.245L390.619 132.684L385.297 130.683Z" fill="#4E75D8" fill-opacity="0.2"/>
<path d="M398.334 154.725L388.992 164.094L393.001 168.114L406.372 154.725L393.001 141.316L388.992 145.337L398.334 154.725Z" fill="#4E75D8" fill-opacity="0.2"/>
<path d="M370.286 164.094L360.925 154.706L370.286 145.337L366.257 141.316L352.906 154.706L366.257 168.114L370.286 164.094Z" fill="#4E75D8" fill-opacity="0.2"/>
<path d="M401.182 189.974L421.617 154.491L401.182 119.007H360.311L339.875 154.491L360.311 189.974H401.182ZM363.989 125.37H397.503L414.28 154.491L397.503 183.611H363.989L347.232 154.491L363.989 125.37Z" fill="#4E75D8" fill-opacity="0.2"/>
<path d="M521.539 130.683L504.508 176.245L509.829 178.245L526.861 132.684L521.539 130.683Z" fill="#4E75D8" fill-opacity="0.2"/>
<path d="M534.592 154.725L525.25 164.094L529.259 168.114L542.63 154.725L529.259 141.316L525.25 145.337L534.592 154.725Z" fill="#4E75D8" fill-opacity="0.2"/>
<path d="M506.528 164.094L497.167 154.706L506.528 145.337L502.5 141.316L489.148 154.706L502.5 168.114L506.528 164.094Z" fill="#4E75D8" fill-opacity="0.2"/>
<path d="M537.424 189.974L557.859 154.491L537.424 119.007H496.553L476.117 154.491L496.553 189.974H537.424ZM500.231 125.37H533.746L550.522 154.491L533.746 183.611H500.231L483.474 154.491L500.231 125.37Z" fill="#4E75D8" fill-opacity="0.2"/>
<path d="M590.368 90.5278L573.336 136.089L578.657 138.09L595.689 92.5284L590.368 90.5278Z" fill="#4E75D8" fill-opacity="0.2"/>
<path d="M603.404 114.571L594.062 123.94L598.072 127.961L611.442 114.571L598.072 101.163L594.062 105.183L603.404 114.571Z" fill="#4E75D8" fill-opacity="0.2"/>
<path d="M575.356 123.94L565.995 114.552L575.356 105.183L571.328 101.163L557.977 114.552L571.328 127.961L575.356 123.94Z" fill="#4E75D8" fill-opacity="0.2"/>
<path d="M606.252 149.82L626.687 114.337L606.252 78.853H565.381L544.945 114.337L565.381 149.82H606.252ZM569.059 85.2159H602.574L619.35 114.337L602.574 143.457H569.059L552.302 114.337L569.059 85.2159Z" fill="#4E75D8" fill-opacity="0.2"/>
<path d="M657.758 130.683L640.727 176.245L646.048 178.245L663.08 132.684L657.758 130.683Z" fill="#4E75D8" fill-opacity="0.2"/>
<path d="M670.795 154.725L661.453 164.094L665.462 168.114L678.833 154.725L665.462 141.316L661.453 145.337L670.795 154.725Z" fill="#4E75D8" fill-opacity="0.2"/>
<path d="M642.747 164.094L633.386 154.706L642.747 145.337L638.718 141.316L625.367 154.706L638.718 168.114L642.747 164.094Z" fill="#4E75D8" fill-opacity="0.2"/>
<path d="M673.643 189.974L694.078 154.491L673.643 119.007H632.771L612.336 154.491L632.771 189.974H673.643ZM636.45 125.37H669.964L686.741 154.491L669.964 183.611H636.45L619.693 154.491L636.45 125.37Z" fill="#4E75D8" fill-opacity="0.2"/>
<path d="M726.61 90.5278L709.578 136.089L714.9 138.09L731.931 92.5284L726.61 90.5278Z" fill="#4E75D8" fill-opacity="0.2"/>
<path d="M739.647 114.571L730.305 123.94L734.314 127.96L747.685 114.571L734.314 101.162L730.305 105.183L739.647 114.571Z" fill="#4E75D8" fill-opacity="0.2"/>
<path d="M711.599 123.94L702.237 114.552L711.599 105.183L707.57 101.162L694.219 114.552L707.57 127.96L711.599 123.94Z" fill="#4E75D8" fill-opacity="0.2"/>
<path d="M742.494 149.82L762.93 114.337L742.494 78.8534H701.623L681.188 114.337L701.623 149.82H742.494ZM705.301 85.2162H738.816L755.592 114.337L738.816 143.458H705.301L688.544 114.337L705.301 85.2162Z" fill="#4E75D8" fill-opacity="0.2"/>
<path d="M793.993 130.684L776.961 176.245L782.282 178.246L799.314 132.684L793.993 130.684Z" fill="#4E75D8" fill-opacity="0.2"/>
<path d="M807.029 154.726L797.688 164.094L801.697 168.115L815.067 154.726L801.697 141.317L797.688 145.338L807.029 154.726Z" fill="#4E75D8" fill-opacity="0.2"/>
<path d="M778.981 164.094L769.62 154.706L778.981 145.338L774.953 141.317L761.602 154.706L774.953 168.115L778.981 164.094Z" fill="#4E75D8" fill-opacity="0.2"/>
<path d="M809.877 189.975L830.312 154.492L809.877 119.008H769.006L748.57 154.492L769.006 189.975H809.877ZM772.684 125.371H806.199L822.975 154.492L806.199 183.612H772.684L755.927 154.492L772.684 125.371Z" fill="#4E75D8" fill-opacity="0.2"/>
<path d="M862.844 90.5277L845.812 136.089L851.134 138.09L868.166 92.5283L862.844 90.5277Z" fill="#4E75D8" fill-opacity="0.2"/>
<path d="M875.881 114.571L866.539 123.939L870.548 127.96L883.919 114.571L870.548 101.162L866.539 105.183L875.881 114.571Z" fill="#4E75D8" fill-opacity="0.2"/>
<path d="M847.833 123.939L838.472 114.551L847.833 105.183L843.804 101.162L830.453 114.551L843.804 127.96L847.833 123.939Z" fill="#4E75D8" fill-opacity="0.2"/>
<path d="M878.728 149.82L899.164 114.337L878.728 78.8533H837.857L817.422 114.337L837.857 149.82H878.728ZM841.536 85.2161H875.05L891.827 114.337L875.05 143.457H841.536L824.779 114.337L841.536 85.2161Z" fill="#4E75D8" fill-opacity="0.2"/>
<path d="M930.227 130.683L913.195 176.245L918.517 178.245L935.548 132.684L930.227 130.683Z" fill="#4E75D8" fill-opacity="0.2"/>
<path d="M943.264 154.725L933.922 164.094L937.931 168.114L951.302 154.725L937.931 141.316L933.922 145.337L943.264 154.725Z" fill="#4E75D8" fill-opacity="0.2"/>
<path d="M915.216 164.094L905.854 154.706L915.216 145.337L911.187 141.316L897.836 154.706L911.187 168.114L915.216 164.094Z" fill="#4E75D8" fill-opacity="0.2"/>
<path d="M946.111 189.974L966.547 154.491L946.111 119.007H905.24L884.805 154.491L905.24 189.974H946.111ZM908.919 125.37H942.433L959.21 154.491L942.433 183.611H908.919L892.162 154.491L908.919 125.37Z" fill="#4E75D8" fill-opacity="0.2"/>
<path d="M999.086 90.5277L982.055 136.089L987.376 138.09L1004.41 92.5283L999.086 90.5277Z" fill="#4E75D8" fill-opacity="0.2"/>
<path d="M1012.12 114.572L1002.78 123.94L1006.79 127.961L1020.16 114.572L1006.79 101.163L1002.78 105.184L1012.12 114.572Z" fill="#4E75D8" fill-opacity="0.2"/>
<path d="M984.075 123.94L974.714 114.552L984.075 105.184L980.047 101.163L966.695 114.552L980.047 127.961L984.075 123.94Z" fill="#4E75D8" fill-opacity="0.2"/>
<path d="M1014.97 149.82L1035.41 114.337L1014.97 78.8533H974.1L953.664 114.337L974.1 149.82H1014.97ZM977.778 85.2161H1011.29L1028.07 114.337L1011.29 143.457H977.778L961.021 114.337L977.778 85.2161Z" fill="#4E75D8" fill-opacity="0.2"/>
<path d="M1066.48 130.683L1049.45 176.245L1054.77 178.245L1071.81 132.684L1066.48 130.683Z" fill="#4E75D8" fill-opacity="0.2"/>
<path d="M1079.52 154.725L1070.18 164.094L1074.19 168.114L1087.56 154.725L1074.19 141.316L1070.18 145.337L1079.52 154.725Z" fill="#4E75D8" fill-opacity="0.2"/>
<path d="M1051.47 164.094L1042.11 154.706L1051.47 145.337L1047.44 141.316L1034.09 154.706L1047.44 168.114L1051.47 164.094Z" fill="#4E75D8" fill-opacity="0.2"/>
<path d="M1082.37 189.974L1102.8 154.491L1082.37 119.007H1041.5L1021.06 154.491L1041.5 189.974H1082.37ZM1045.18 125.37H1078.69L1095.47 154.491L1078.69 183.611H1045.18L1028.42 154.491L1045.18 125.37Z" fill="#4E75D8" fill-opacity="0.2"/>
<path d="M45.4222 169.383L28.3906 214.945L33.7121 216.945L50.7437 171.383L45.4222 169.383Z" fill="#4E75D8" fill-opacity="0.2"/>
<path d="M58.4591 193.426L49.1172 202.795L53.1264 206.815L66.4971 193.426L53.1264 180.017L49.1172 184.038L58.4591 193.426Z" fill="#4E75D8" fill-opacity="0.2"/>
<path d="M30.4112 202.795L21.0498 193.407L30.4112 184.038L26.3825 180.017L13.0312 193.407L26.3825 206.815L30.4112 202.795Z" fill="#4E75D8" fill-opacity="0.2"/>
<path d="M61.3066 228.676L81.7421 193.193L61.3066 157.709H20.4355L0 193.193L20.4355 228.676H61.3066ZM24.114 164.072H57.6284L74.405 193.193L57.6284 222.313H24.114L7.35685 193.193L24.114 164.072Z" fill="#4E75D8" fill-opacity="0.2"/>
<path d="M112.805 209.537L95.7734 255.098L101.095 257.099L118.127 211.537L112.805 209.537Z" fill="#4E75D8" fill-opacity="0.2"/>
<path d="M125.858 233.579L116.516 242.948L120.525 246.968L133.896 233.579L120.525 220.17L116.516 224.191L125.858 233.579Z" fill="#4E75D8" fill-opacity="0.2"/>
<path d="M97.8096 242.948L88.4482 233.56L97.8096 224.191L93.7809 220.17L80.4297 233.56L93.7809 246.968L97.8096 242.948Z" fill="#4E75D8" fill-opacity="0.2"/>
<path d="M128.705 268.829L149.141 233.345L128.705 197.862H87.834L67.3984 233.345L87.834 268.829H128.705ZM91.5124 204.224H125.027L141.803 233.345L125.027 262.466H91.5124L74.7553 233.345L91.5124 204.224Z" fill="#4E75D8" fill-opacity="0.2"/>
<path d="M181.633 169.383L164.602 214.944L169.923 216.945L186.955 171.383L181.633 169.383Z" fill="#4E75D8" fill-opacity="0.2"/>
<path d="M194.686 193.426L185.344 202.795L189.353 206.815L202.724 193.426L189.353 180.017L185.344 184.038L194.686 193.426Z" fill="#4E75D8" fill-opacity="0.2"/>
<path d="M166.638 202.795L157.276 193.407L166.638 184.038L162.609 180.017L149.258 193.407L162.609 206.815L166.638 202.795Z" fill="#4E75D8" fill-opacity="0.2"/>
<path d="M197.533 228.676L217.969 193.192L197.533 157.709H156.662L136.227 193.192L156.662 228.676H197.533ZM160.341 164.071H193.855L210.632 193.192L193.855 222.313H160.341L143.583 193.192L160.341 164.071Z" fill="#4E75D8" fill-opacity="0.2"/>
<path d="M249.055 209.537L232.023 255.099L237.345 257.099L254.377 211.537L249.055 209.537Z" fill="#4E75D8" fill-opacity="0.2"/>
<path d="M262.092 233.579L252.75 242.948L256.759 246.969L270.13 233.579L256.759 220.171L252.75 224.191L262.092 233.579Z" fill="#4E75D8" fill-opacity="0.2"/>
<path d="M234.044 242.948L224.683 233.56L234.044 224.191L230.015 220.171L216.664 233.56L230.015 246.969L234.044 242.948Z" fill="#4E75D8" fill-opacity="0.2"/>
<path d="M264.939 268.829L285.375 233.345L264.939 197.862H224.068L203.633 233.345L224.068 268.829H264.939ZM227.747 204.225H261.261L278.038 233.345L261.261 262.466H227.747L210.99 233.345L227.747 204.225Z" fill="#4E75D8" fill-opacity="0.2"/>
<path d="M317.883 169.383L300.852 214.945L306.173 216.945L323.205 171.383L317.883 169.383Z" fill="#4E75D8" fill-opacity="0.2"/>
<path d="M330.936 193.426L321.594 202.795L325.603 206.815L338.974 193.426L325.603 180.017L321.594 184.038L330.936 193.426Z" fill="#4E75D8" fill-opacity="0.2"/>
<path d="M302.888 202.795L293.526 193.407L302.888 184.038L298.859 180.017L285.508 193.407L298.859 206.815L302.888 202.795Z" fill="#4E75D8" fill-opacity="0.2"/>
<path d="M333.783 228.676L354.219 193.193L333.783 157.709H292.912L272.477 193.193L292.912 228.676H333.783ZM296.591 164.072H330.105L346.882 193.193L330.105 222.313H296.591L279.833 193.193L296.591 164.072Z" fill="#4E75D8" fill-opacity="0.2"/>
<path d="M385.297 209.538L368.266 255.099L373.587 257.1L390.619 211.538L385.297 209.538Z" fill="#4E75D8" fill-opacity="0.2"/>
<path d="M398.334 233.581L388.992 242.949L393.001 246.97L406.372 233.581L393.001 220.172L388.992 224.193L398.334 233.581Z" fill="#4E75D8" fill-opacity="0.2"/>
<path d="M370.286 242.949L360.925 233.561L370.286 224.193L366.257 220.172L352.906 233.561L366.257 246.97L370.286 242.949Z" fill="#4E75D8" fill-opacity="0.2"/>
<path d="M401.182 268.83L421.617 233.346L401.182 197.863H360.311L339.875 233.346L360.311 268.83H401.182ZM363.989 204.225H397.503L414.28 233.346L397.503 262.467H363.989L347.232 233.346L363.989 204.225Z" fill="#4E75D8" fill-opacity="0.2"/>
<path d="M454.118 169.383L437.086 214.945L442.407 216.945L459.439 171.384L454.118 169.383Z" fill="#4E75D8" fill-opacity="0.2"/>
<path d="M467.17 193.426L457.828 202.795L461.837 206.816L475.208 193.426L461.837 180.017L457.828 184.038L467.17 193.426Z" fill="#4E75D8" fill-opacity="0.2"/>
<path d="M439.122 202.795L429.761 193.407L439.122 184.038L435.093 180.017L421.742 193.407L435.093 206.816L439.122 202.795Z" fill="#4E75D8" fill-opacity="0.2"/>
<path d="M470.018 228.676L490.453 193.193L470.018 157.709H429.146L408.711 193.193L429.146 228.676H470.018ZM432.825 164.072H466.339L483.116 193.193L466.339 222.313H432.825L416.068 193.193L432.825 164.072Z" fill="#4E75D8" fill-opacity="0.2"/>
<path d="M521.539 209.538L504.508 255.099L509.829 257.1L526.861 211.538L521.539 209.538Z" fill="#4E75D8" fill-opacity="0.2"/>
<path d="M534.592 233.581L525.25 242.949L529.259 246.97L542.63 233.581L529.259 220.172L525.25 224.193L534.592 233.581Z" fill="#4E75D8" fill-opacity="0.2"/>
<path d="M506.528 242.949L497.167 233.561L506.528 224.193L502.5 220.172L489.148 233.561L502.5 246.97L506.528 242.949Z" fill="#4E75D8" fill-opacity="0.2"/>
<path d="M537.424 268.83L557.859 233.346L537.424 197.863H496.553L476.117 233.346L496.553 268.83H537.424ZM500.231 204.225H533.746L550.522 233.346L533.746 262.467H500.231L483.474 233.346L500.231 204.225Z" fill="#4E75D8" fill-opacity="0.2"/>
<path d="M590.368 169.383L573.336 214.945L578.657 216.945L595.689 171.384L590.368 169.383Z" fill="#4E75D8" fill-opacity="0.2"/>
<path d="M603.404 193.426L594.062 202.795L598.072 206.816L611.442 193.426L598.072 180.018L594.062 184.038L603.404 193.426Z" fill="#4E75D8" fill-opacity="0.2"/>
<path d="M575.356 202.795L565.995 193.407L575.356 184.038L571.328 180.018L557.977 193.407L571.328 206.816L575.356 202.795Z" fill="#4E75D8" fill-opacity="0.2"/>
<path d="M606.252 228.676L626.687 193.193L606.252 157.709H565.381L544.945 193.193L565.381 228.676H606.252ZM569.059 164.072H602.574L619.35 193.193L602.574 222.314H569.059L552.302 193.193L569.059 164.072Z" fill="#4E75D8" fill-opacity="0.2"/>
<path d="M657.758 209.537L640.727 255.099L646.048 257.1L663.08 211.538L657.758 209.537Z" fill="#4E75D8" fill-opacity="0.2"/>
<path d="M670.795 233.58L661.453 242.948L665.462 246.969L678.833 233.58L665.462 220.171L661.453 224.191L670.795 233.58Z" fill="#4E75D8" fill-opacity="0.2"/>
<path d="M642.747 242.948L633.386 233.56L642.747 224.191L638.718 220.171L625.367 233.56L638.718 246.969L642.747 242.948Z" fill="#4E75D8" fill-opacity="0.2"/>
<path d="M673.643 268.829L694.078 233.346L673.643 197.862H632.771L612.336 233.346L632.771 268.829H673.643ZM636.45 204.225H669.964L686.741 233.346L669.964 262.466H636.45L619.693 233.346L636.45 204.225Z" fill="#4E75D8" fill-opacity="0.2"/>
<path d="M726.61 169.383L709.578 214.945L714.9 216.945L731.931 171.384L726.61 169.383Z" fill="#4E75D8" fill-opacity="0.2"/>
<path d="M739.647 193.426L730.305 202.795L734.314 206.816L747.685 193.426L734.314 180.017L730.305 184.038L739.647 193.426Z" fill="#4E75D8" fill-opacity="0.2"/>
<path d="M711.599 202.795L702.237 193.407L711.599 184.038L707.57 180.017L694.219 193.407L707.57 206.816L711.599 202.795Z" fill="#4E75D8" fill-opacity="0.2"/>
<path d="M742.494 228.676L762.93 193.193L742.494 157.709H701.623L681.188 193.193L701.623 228.676H742.494ZM705.301 164.072H738.816L755.592 193.193L738.816 222.313H705.301L688.544 193.193L705.301 164.072Z" fill="#4E75D8" fill-opacity="0.2"/>
<path d="M793.993 209.537L776.961 255.099L782.282 257.099L799.314 211.537L793.993 209.537Z" fill="#4E75D8" fill-opacity="0.2"/>
<path d="M807.029 233.579L797.688 242.948L801.697 246.969L815.067 233.579L801.697 220.171L797.688 224.191L807.029 233.579Z" fill="#4E75D8" fill-opacity="0.2"/>
<path d="M778.981 242.948L769.62 233.56L778.981 224.191L774.953 220.171L761.602 233.56L774.953 246.969L778.981 242.948Z" fill="#4E75D8" fill-opacity="0.2"/>
<path d="M809.877 268.829L830.312 233.345L809.877 197.862H769.006L748.57 233.345L769.006 268.829H809.877ZM772.684 204.225H806.199L822.975 233.345L806.199 262.466H772.684L755.927 233.345L772.684 204.225Z" fill="#4E75D8" fill-opacity="0.2"/>
<path d="M862.844 169.383L845.812 214.945L851.134 216.945L868.166 171.384L862.844 169.383Z" fill="#4E75D8" fill-opacity="0.2"/>
<path d="M875.881 193.426L866.539 202.795L870.548 206.816L883.919 193.426L870.548 180.017L866.539 184.038L875.881 193.426Z" fill="#4E75D8" fill-opacity="0.2"/>
<path d="M847.833 202.795L838.472 193.407L847.833 184.038L843.804 180.017L830.453 193.407L843.804 206.816L847.833 202.795Z" fill="#4E75D8" fill-opacity="0.2"/>
<path d="M878.728 228.676L899.164 193.193L878.728 157.709H837.857L817.422 193.193L837.857 228.676H878.728ZM841.536 164.072H875.05L891.827 193.193L875.05 222.313H841.536L824.779 193.193L841.536 164.072Z" fill="#4E75D8" fill-opacity="0.2"/>
<path d="M930.227 209.538L913.195 255.099L918.517 257.1L935.548 211.538L930.227 209.538Z" fill="#4E75D8" fill-opacity="0.2"/>
<path d="M943.264 233.581L933.922 242.949L937.931 246.97L951.302 233.581L937.931 220.172L933.922 224.193L943.264 233.581Z" fill="#4E75D8" fill-opacity="0.2"/>
<path d="M915.216 242.949L905.854 233.561L915.216 224.193L911.187 220.172L897.836 233.561L911.187 246.97L915.216 242.949Z" fill="#4E75D8" fill-opacity="0.2"/>
<path d="M946.111 268.83L966.547 233.346L946.111 197.863H905.24L884.805 233.346L905.24 268.83H946.111ZM908.919 204.225H942.433L959.21 233.346L942.433 262.467H908.919L892.162 233.346L908.919 204.225Z" fill="#4E75D8" fill-opacity="0.2"/>
<path d="M999.086 169.383L982.055 214.945L987.376 216.946L1004.41 171.384L999.086 169.383Z" fill="#4E75D8" fill-opacity="0.2"/>
<path d="M1012.12 193.426L1002.78 202.795L1006.79 206.816L1020.16 193.426L1006.79 180.018L1002.78 184.038L1012.12 193.426Z" fill="#4E75D8" fill-opacity="0.2"/>
<path d="M984.075 202.795L974.714 193.407L984.075 184.038L980.047 180.018L966.695 193.407L980.047 206.816L984.075 202.795Z" fill="#4E75D8" fill-opacity="0.2"/>
<path d="M1014.97 228.676L1035.41 193.193L1014.97 157.709H974.1L953.664 193.193L974.1 228.676H1014.97ZM977.778 164.072H1011.29L1028.07 193.193L1011.29 222.313H977.778L961.021 193.193L977.778 164.072Z" fill="#4E75D8" fill-opacity="0.2"/>
<path d="M181.649 248.238L164.617 293.8L169.939 295.8L186.97 250.239L181.649 248.238Z" fill="#4E75D8" fill-opacity="0.2"/>
<path d="M194.686 272.281L185.344 281.649L189.353 285.67L202.724 272.281L189.353 258.872L185.344 262.893L194.686 272.281Z" fill="#4E75D8" fill-opacity="0.2"/>
<path d="M166.638 281.649L157.276 272.261L166.638 262.893L162.609 258.872L149.258 272.261L162.609 285.67L166.638 281.649Z" fill="#4E75D8" fill-opacity="0.2"/>
<path d="M197.533 307.53L217.969 272.047L197.533 236.563H156.662L136.227 272.047L156.662 307.53H197.533ZM160.341 242.926H193.855L210.632 272.047L193.855 301.168H160.341L143.583 272.047L160.341 242.926Z" fill="#4E75D8" fill-opacity="0.2"/>
<path d="M249.055 288.392L232.023 333.954L237.345 335.954L254.377 290.393L249.055 288.392Z" fill="#4E75D8" fill-opacity="0.2"/>
<path d="M262.092 312.434L252.75 321.803L256.759 325.823L270.13 312.434L256.759 299.025L252.75 303.046L262.092 312.434Z" fill="#4E75D8" fill-opacity="0.2"/>
<path d="M234.044 321.803L224.683 312.415L234.044 303.046L230.015 299.025L216.664 312.415L230.015 325.823L234.044 321.803Z" fill="#4E75D8" fill-opacity="0.2"/>
<path d="M264.939 347.684L285.375 312.2L264.939 276.717H224.068L203.633 312.2L224.068 347.684H264.939ZM227.747 283.079H261.261L278.038 312.2L261.261 341.321H227.747L210.99 312.2L227.747 283.079Z" fill="#4E75D8" fill-opacity="0.2"/>
<path d="M317.899 248.238L300.867 293.8L306.189 295.8L323.22 250.239L317.899 248.238Z" fill="#4E75D8" fill-opacity="0.2"/>
<path d="M330.936 272.281L321.594 281.649L325.603 285.67L338.974 272.281L325.603 258.872L321.594 262.893L330.936 272.281Z" fill="#4E75D8" fill-opacity="0.2"/>
<path d="M302.888 281.649L293.526 272.261L302.888 262.893L298.859 258.872L285.508 272.261L298.859 285.67L302.888 281.649Z" fill="#4E75D8" fill-opacity="0.2"/>
<path d="M333.783 307.53L354.219 272.047L333.783 236.563H292.912L272.477 272.047L292.912 307.53H333.783ZM296.591 242.926H330.105L346.882 272.047L330.105 301.168H296.591L279.833 272.047L296.591 242.926Z" fill="#4E75D8" fill-opacity="0.2"/>
<path d="M454.125 248.238L437.094 293.8L442.415 295.801L459.447 250.239L454.125 248.238Z" fill="#4E75D8" fill-opacity="0.2"/>
<path d="M467.162 272.281L457.82 281.65L461.83 285.67L475.2 272.281L461.83 258.872L457.82 262.893L467.162 272.281Z" fill="#4E75D8" fill-opacity="0.2"/>
<path d="M439.114 281.65L429.753 272.261L439.114 262.893L435.086 258.872L421.734 272.261L435.086 285.67L439.114 281.65Z" fill="#4E75D8" fill-opacity="0.2"/>
<path d="M470.01 307.531L490.445 272.047L470.01 236.564H429.139L408.703 272.047L429.139 307.531H470.01ZM432.817 242.926H466.332L483.108 272.047L466.332 301.168H432.817L416.06 272.047L432.817 242.926Z" fill="#4E75D8" fill-opacity="0.2"/>
<path d="M521.539 288.392L504.508 333.954L509.829 335.954L526.861 290.393L521.539 288.392Z" fill="#4E75D8" fill-opacity="0.2"/>
<path d="M534.592 312.434L525.25 321.803L529.259 325.823L542.63 312.434L529.259 299.025L525.25 303.046L534.592 312.434Z" fill="#4E75D8" fill-opacity="0.2"/>
<path d="M506.528 321.803L497.167 312.415L506.528 303.046L502.5 299.025L489.148 312.415L502.5 325.823L506.528 321.803Z" fill="#4E75D8" fill-opacity="0.2"/>
<path d="M537.424 347.684L557.859 312.2L537.424 276.717H496.553L476.117 312.2L496.553 347.684H537.424ZM500.231 283.079H533.746L550.522 312.2L533.746 341.321H500.231L483.474 312.2L500.231 283.079Z" fill="#4E75D8" fill-opacity="0.2"/>
<path d="M590.368 248.238L573.336 293.8L578.657 295.8L595.689 250.239L590.368 248.238Z" fill="#4E75D8" fill-opacity="0.2"/>
<path d="M603.404 272.281L594.062 281.649L598.072 285.67L611.442 272.281L598.072 258.872L594.062 262.893L603.404 272.281Z" fill="#4E75D8" fill-opacity="0.2"/>
<path d="M575.356 281.649L565.995 272.261L575.356 262.893L571.328 258.872L557.977 272.261L571.328 285.67L575.356 281.649Z" fill="#4E75D8" fill-opacity="0.2"/>
<path d="M606.252 307.53L626.687 272.047L606.252 236.563H565.381L544.945 272.047L565.381 307.53H606.252ZM569.059 242.926H602.574L619.35 272.047L602.574 301.168H569.059L552.302 272.047L569.059 242.926Z" fill="#4E75D8" fill-opacity="0.2"/>
<path d="M657.758 288.392L640.727 333.954L646.048 335.955L663.08 290.393L657.758 288.392Z" fill="#4E75D8" fill-opacity="0.2"/>
<path d="M670.795 312.434L661.453 321.803L665.462 325.823L678.833 312.434L665.462 299.025L661.453 303.046L670.795 312.434Z" fill="#4E75D8" fill-opacity="0.2"/>
<path d="M642.747 321.803L633.386 312.415L642.747 303.046L638.718 299.025L625.367 312.415L638.718 325.823L642.747 321.803Z" fill="#4E75D8" fill-opacity="0.2"/>
<path d="M673.643 347.684L694.078 312.2L673.643 276.717H632.771L612.336 312.2L632.771 347.684H673.643ZM636.45 283.079H669.964L686.741 312.2L669.964 341.321H636.45L619.693 312.2L636.45 283.079Z" fill="#4E75D8" fill-opacity="0.2"/>
<path d="M726.61 248.238L709.578 293.8L714.9 295.8L731.931 250.239L726.61 248.238Z" fill="#4E75D8" fill-opacity="0.2"/>
<path d="M739.647 272.281L730.305 281.649L734.314 285.67L747.685 272.281L734.314 258.872L730.305 262.893L739.647 272.281Z" fill="#4E75D8" fill-opacity="0.2"/>
<path d="M711.599 281.649L702.237 272.261L711.599 262.893L707.57 258.872L694.219 272.261L707.57 285.67L711.599 281.649Z" fill="#4E75D8" fill-opacity="0.2"/>
<path d="M742.494 307.53L762.93 272.047L742.494 236.563H701.623L681.188 272.047L701.623 307.53H742.494ZM705.301 242.926H738.816L755.592 272.047L738.816 301.168H705.301L688.544 272.047L705.301 242.926Z" fill="#4E75D8" fill-opacity="0.2"/>
<path d="M793.993 288.392L776.961 333.954L782.282 335.954L799.314 290.393L793.993 288.392Z" fill="#4E75D8" fill-opacity="0.2"/>
<path d="M807.029 312.434L797.688 321.803L801.697 325.823L815.067 312.434L801.697 299.025L797.688 303.046L807.029 312.434Z" fill="#4E75D8" fill-opacity="0.2"/>
<path d="M778.981 321.803L769.62 312.415L778.981 303.046L774.953 299.025L761.602 312.415L774.953 325.823L778.981 321.803Z" fill="#4E75D8" fill-opacity="0.2"/>
<path d="M809.877 347.684L830.312 312.2L809.877 276.717H769.006L748.57 312.2L769.006 347.684H809.877ZM772.684 283.079H806.199L822.975 312.2L806.199 341.321H772.684L755.927 312.2L772.684 283.079Z" fill="#4E75D8" fill-opacity="0.2"/>
<path d="M862.844 248.238L845.812 293.8L851.134 295.8L868.166 250.239L862.844 248.238Z" fill="#4E75D8" fill-opacity="0.2"/>
<path d="M875.881 272.281L866.539 281.649L870.548 285.67L883.919 272.281L870.548 258.872L866.539 262.893L875.881 272.281Z" fill="#4E75D8" fill-opacity="0.2"/>
<path d="M847.833 281.649L838.472 272.261L847.833 262.893L843.804 258.872L830.453 272.261L843.804 285.67L847.833 281.649Z" fill="#4E75D8" fill-opacity="0.2"/>
<path d="M878.728 307.53L899.164 272.047L878.728 236.563H837.857L817.422 272.047L837.857 307.53H878.728ZM841.536 242.926H875.05L891.827 272.047L875.05 301.168H841.536L824.779 272.047L841.536 242.926Z" fill="#4E75D8" fill-opacity="0.2"/>
<path d="M930.227 288.392L913.195 333.954L918.517 335.954L935.548 290.393L930.227 288.392Z" fill="#4E75D8" fill-opacity="0.2"/>
<path d="M943.264 312.434L933.922 321.803L937.931 325.823L951.302 312.434L937.931 299.025L933.922 303.046L943.264 312.434Z" fill="#4E75D8" fill-opacity="0.2"/>
<path d="M915.216 321.803L905.854 312.415L915.216 303.046L911.187 299.025L897.836 312.415L911.187 325.823L915.216 321.803Z" fill="#4E75D8" fill-opacity="0.2"/>
<path d="M946.111 347.684L966.547 312.2L946.111 276.717H905.24L884.805 312.2L905.24 347.684H946.111ZM908.919 283.079H942.433L959.21 312.2L942.433 341.321H908.919L892.162 312.2L908.919 283.079Z" fill="#4E75D8" fill-opacity="0.2"/>
<path d="M999.086 248.238L982.055 293.8L987.376 295.8L1004.41 250.239L999.086 248.238Z" fill="#4E75D8" fill-opacity="0.2"/>
<path d="M1012.12 272.281L1002.78 281.649L1006.79 285.67L1020.16 272.281L1006.79 258.872L1002.78 262.893L1012.12 272.281Z" fill="#4E75D8" fill-opacity="0.2"/>
<path d="M984.075 281.649L974.714 272.261L984.075 262.893L980.047 258.872L966.695 272.261L980.047 285.67L984.075 281.649Z" fill="#4E75D8" fill-opacity="0.2"/>
<path d="M1014.97 307.53L1035.41 272.047L1014.97 236.563H974.1L953.664 272.047L974.1 307.53H1014.97ZM977.778 242.926H1011.29L1028.07 272.047L1011.29 301.168H977.778L961.021 272.047L977.778 242.926Z" fill="#4E75D8" fill-opacity="0.2"/>
<path d="M181.633 327.092L164.602 372.653L169.923 374.654L186.955 329.092L181.633 327.092Z" fill="#4E75D8" fill-opacity="0.2"/>
<path d="M194.686 351.134L185.344 360.503L189.353 364.523L202.724 351.134L189.353 337.725L185.344 341.746L194.686 351.134Z" fill="#4E75D8" fill-opacity="0.2"/>
<path d="M166.638 360.503L157.276 351.115L166.638 341.746L162.609 337.725L149.258 351.115L162.609 364.523L166.638 360.503Z" fill="#4E75D8" fill-opacity="0.2"/>
<path d="M197.533 386.384L217.969 350.9L197.533 315.417H156.662L136.227 350.9L156.662 386.384H197.533ZM160.341 321.779H193.855L210.632 350.9L193.855 380.021H160.341L143.583 350.9L160.341 321.779Z" fill="#4E75D8" fill-opacity="0.2"/>
<path d="M317.883 327.091L300.852 372.653L306.173 374.653L323.205 329.092L317.883 327.091Z" fill="#4E75D8" fill-opacity="0.2"/>
<path d="M330.936 351.134L321.594 360.503L325.603 364.523L338.974 351.134L325.603 337.725L321.594 341.746L330.936 351.134Z" fill="#4E75D8" fill-opacity="0.2"/>
<path d="M302.888 360.503L293.526 351.115L302.888 341.746L298.859 337.725L285.508 351.115L298.859 364.523L302.888 360.503Z" fill="#4E75D8" fill-opacity="0.2"/>
<path d="M333.783 386.384L354.219 350.9L333.783 315.417H292.912L272.477 350.9L292.912 386.384H333.783ZM296.591 321.779H330.105L346.882 350.9L330.105 380.021H296.591L279.833 350.9L296.591 321.779Z" fill="#4E75D8" fill-opacity="0.2"/>
<path d="M726.61 327.091L709.578 372.653L714.9 374.653L731.931 329.092L726.61 327.091Z" fill="#4E75D8" fill-opacity="0.2"/>
<path d="M739.647 351.134L730.305 360.503L734.314 364.523L747.685 351.134L734.314 337.725L730.305 341.746L739.647 351.134Z" fill="#4E75D8" fill-opacity="0.2"/>
<path d="M711.599 360.503L702.237 351.115L711.599 341.746L707.57 337.725L694.219 351.115L707.57 364.523L711.599 360.503Z" fill="#4E75D8" fill-opacity="0.2"/>
<path d="M742.494 386.384L762.93 350.9L742.494 315.417H701.623L681.188 350.9L701.623 386.384H742.494ZM705.301 321.779H738.816L755.592 350.9L738.816 380.021H705.301L688.544 350.9L705.301 321.779Z" fill="#4E75D8" fill-opacity="0.2"/>
</svg>
