<svg width="66" height="66" viewBox="0 0 66 66" fill="none" xmlns="http://www.w3.org/2000/svg">
<g clip-path="url(#clip0_1678_2459)">
<path d="M33 0C14.8072 0 0 14.8072 0 33C0 51.1928 14.8072 66 33 66C51.1928 66 66 51.1928 66 33C66 14.8072 51.1928 0 33 0ZM33 63.7306C16.0722 63.7306 2.26945 49.9278 2.26945 33C2.26945 16.0722 16.0349 2.26945 33 2.26945C49.9278 2.26945 63.7306 16.0722 63.7306 33C63.7306 49.9278 49.9278 63.7306 33 63.7306Z" fill="#4E75D8"/>
<path d="M32.9982 6.06427C18.1538 6.06427 6.0625 18.1556 6.0625 33C6.0625 47.8444 18.1538 59.9357 32.9982 59.9357C47.8427 59.9357 59.934 47.8444 59.934 33C59.8968 18.1556 47.8427 6.06427 32.9982 6.06427ZM32.9982 57.6663C19.4188 57.6663 8.33195 46.6167 8.33195 33C8.33195 19.4205 19.3816 8.33372 32.9982 8.33372C46.5777 8.33372 57.6645 19.3833 57.6645 33C57.6645 46.5795 46.5777 57.6663 32.9982 57.6663Z" fill="#4E75D8"/>
<circle cx="33" cy="33" r="27" fill="#4E75D8"/>
<path d="M33.0008 15.2164C33.6333 15.2164 34.1169 14.6956 34.1169 14.1003V10.8636C34.1169 10.2311 33.5961 9.74744 33.0008 9.74744C32.3683 9.74744 31.8847 10.2683 31.8847 10.8636V14.1003C31.8475 14.6956 32.3683 15.2164 33.0008 15.2164Z" fill="white"/>
<path d="M32.9989 50.7836C32.3665 50.7836 31.8828 51.3044 31.8828 51.8997V55.1364C31.8828 55.7689 32.4037 56.2526 32.9989 56.2526C33.6314 56.2526 34.1151 55.7317 34.1151 55.1364V51.8997C34.1151 51.3044 33.6314 50.7836 32.9989 50.7836Z" fill="white"/>
<path d="M22.5478 17.1511C22.8454 17.7092 23.5523 17.8952 24.1104 17.5603C24.6684 17.2627 24.8544 16.5558 24.5196 15.9978L22.9198 13.2075C22.6222 12.6494 21.9153 12.4634 21.3573 12.7982C20.7992 13.0959 20.6132 13.8027 20.948 14.3608L22.5478 17.1511Z" fill="white"/>
<path d="M43.4511 48.8117C43.1534 48.2537 42.4466 48.0676 41.8885 48.4025C41.3304 48.7001 41.1444 49.407 41.4793 49.965L43.079 52.7553C43.3767 53.3134 44.0835 53.4994 44.6416 53.1646C45.1997 52.867 45.3857 52.1601 45.0508 51.602L43.4511 48.8117Z" fill="white"/>
<path d="M17.1512 22.5457L14.3609 20.9459C13.8028 20.6482 13.1331 20.8343 12.7983 21.3551C12.5007 21.9132 12.6867 22.5829 13.2075 22.9177L15.9978 24.5175C16.5187 24.8151 17.2256 24.6291 17.5604 24.1082C17.8953 23.5502 17.7092 22.8805 17.1512 22.5457Z" fill="white"/>
<path d="M52.7527 43.0823L49.9624 41.4825C49.4044 41.1849 48.7347 41.3709 48.3999 41.8917C48.1022 42.4498 48.2882 43.1195 48.8091 43.4543L51.5994 45.0541C52.1203 45.3517 52.8271 45.2029 53.162 44.6448C53.4968 44.0868 53.3108 43.4171 52.7527 43.0823Z" fill="white"/>
<path d="M15.219 33C15.219 32.3676 14.6981 31.8839 14.1029 31.8839H10.8661C10.2337 31.8839 9.75 32.4048 9.75 33C9.75 33.6325 10.2709 34.1162 10.8661 34.1162H14.1029C14.6981 34.1162 15.219 33.6325 15.219 33Z" fill="white"/>
<path d="M55.1732 31.8467H51.9364C51.304 31.8467 50.8203 32.3675 50.8203 32.9628C50.8203 33.5953 51.3412 34.0789 51.9364 34.0789H55.1732C55.8057 34.0789 56.2893 33.5581 56.2893 32.9628C56.2893 32.3675 55.7685 31.8467 55.1732 31.8467Z" fill="white"/>
<path d="M16.0382 41.4825L13.2479 43.0823C12.6898 43.3799 12.5038 44.0868 12.8386 44.6448C13.1735 45.2029 13.8431 45.3517 14.4012 45.0541L17.1915 43.4543C17.7496 43.1567 17.9356 42.4498 17.6008 41.8917C17.2659 41.3709 16.559 41.1849 16.0382 41.4825Z" fill="white"/>
<path d="M49.9637 24.5175L52.754 22.9177C53.3121 22.6201 53.4981 21.9132 53.1632 21.3551C52.8656 20.7971 52.1587 20.611 51.6007 20.9459L48.8104 22.5456C48.2523 22.8433 48.0663 23.5502 48.4011 24.1082C48.736 24.6291 49.4056 24.8151 49.9637 24.5175Z" fill="white"/>
<path d="M24.1091 48.4025C23.551 48.1048 22.8813 48.2909 22.5465 48.8117L20.9467 51.602C20.6491 52.1601 20.8351 52.8298 21.356 53.1646C21.8768 53.4622 22.5837 53.2762 22.9185 52.7554L24.5183 49.9651C24.816 49.407 24.6299 48.7373 24.1091 48.4025Z" fill="white"/>
<path d="M44.6481 12.8354C44.0901 12.5378 43.4204 12.7238 43.0856 13.2446L41.4858 16.035C41.1882 16.593 41.3742 17.2627 41.895 17.5975C42.4159 17.8952 43.1228 17.7091 43.4576 17.1883L45.0574 14.398C45.3922 13.8399 45.2062 13.133 44.6481 12.8354Z" fill="white"/>
<path d="M34.1148 28.4983V18.7881C34.1148 18.1556 33.5939 17.6719 32.9986 17.6719C32.3662 17.6719 31.8825 18.1928 31.8825 18.7881V28.4983C30.2455 28.9076 28.9434 30.2097 28.4969 31.8839H23.1396C22.5071 31.8839 22.0234 32.4047 22.0234 33C22.0234 33.6325 22.5443 34.1161 23.1396 34.1161H28.4969C29.0178 36.1251 30.8408 37.6505 32.9986 37.6505C35.5657 37.6505 37.6491 35.5671 37.6491 33C37.6491 30.805 36.161 29.0192 34.1148 28.4983ZM32.9986 35.3811C31.6965 35.3811 30.6176 34.3021 30.6176 33C30.6176 31.6979 31.6965 30.6189 32.9986 30.6189C34.3008 30.6189 35.3797 31.6979 35.3797 33C35.3797 34.3021 34.3008 35.3811 32.9986 35.3811Z" fill="white"/>
</g>
<defs>
<clipPath id="clip0_1678_2459">
<rect width="66" height="66" fill="white"/>
</clipPath>
</defs>
</svg>
