<svg width="63" height="63" viewBox="0 0 63 63" fill="none" xmlns="http://www.w3.org/2000/svg">
<circle cx="31.5" cy="31.5" r="31.5" fill="#A39BFF"/>
<path d="M31.0348 62.0185C14.7736 62.0185 1.53125 48.842 1.53125 32.6618C1.53125 16.4816 14.7736 3.30518 31.0348 3.30518C47.296 3.30518 60.5384 16.4816 60.5384 32.6618C60.5384 48.842 47.3363 62.0185 31.0348 62.0185ZM31.0348 3.82583C15.0554 3.82583 2.05451 16.762 2.05451 32.6618C2.05451 48.5617 15.0554 61.4978 31.0348 61.4978C47.0143 61.4978 60.0151 48.5617 60.0151 32.6618C60.0151 16.762 47.0545 3.82583 31.0348 3.82583Z" fill="#A39BFF"/>
<path d="M47.2164 21.5681C47.2164 16.4017 44.0768 12.2365 39.448 12.2365C34.8192 12.2365 31.6797 16.4417 31.6797 21.5681C31.6797 25.6532 34.0545 29.1376 37.355 30.4192C37.999 30.6595 38.4418 31.2602 38.4418 31.9411L37.7978 51.4855C37.7978 52.3666 38.5223 53.1275 39.448 53.1275C40.3335 53.1275 41.0983 52.4066 41.0983 51.4855L40.414 31.9411C40.414 31.2602 40.8568 30.6595 41.5008 30.4192C44.8416 29.1376 47.2164 25.6532 47.2164 21.5681Z" fill="white"/>
<path d="M27.7747 12.2363C26.8892 12.2363 26.1244 12.9572 26.1244 13.8784V23.0098C26.1244 23.4503 25.8024 23.8909 25.2792 23.9309C24.7559 23.9309 24.2729 23.4103 24.2729 22.8896V13.8784C24.2729 12.9973 23.5484 12.2363 22.6226 12.2363C21.7371 12.2363 20.9724 12.9572 20.9724 13.8784V22.8896C20.9724 23.4503 20.5296 23.9309 19.9661 23.8909C19.4429 23.8508 19.1208 23.4503 19.1208 22.9697V13.8383C19.1208 12.9572 18.3963 12.1963 17.4706 12.1963C16.5851 12.1963 15.8203 12.9172 15.8203 13.8383V27.6155C15.8203 29.3377 21.5761 29.8583 21.5761 31.5805L20.9321 51.3652C20.9321 52.2463 21.5359 53.0072 22.4214 53.0873C23.3874 53.1674 24.1924 52.4065 24.1924 51.4853C24.1924 51.4853 23.5484 34.1437 23.5484 31.5805C23.5484 29.8583 29.3042 29.3377 29.3042 27.6155V13.8383C29.425 12.9572 28.6602 12.2363 27.7747 12.2363Z" fill="white"/>
</svg>
