<svg width="27" height="174" viewBox="0 0 27 174" fill="none" xmlns="http://www.w3.org/2000/svg">
<path d="M8.89024 100V157.333C8.89024 166.667 16.4634 174 25.3537 174H26.6707V166.667H25.6829C20.4146 166.667 16.4634 162.667 16.4634 157.333V100C16.4634 95.6667 14.8171 91.3333 11.5244 88L10.5366 87L11.5244 86C14.8171 82.6667 16.4634 78.6667 16.4634 74V16.6667C16.4634 11.6667 20.4146 7.33333 25.6829 7.33333H27V0H25.6829C16.4634 0 9.21951 7.66667 9.21951 16.6667V74C9.21951 76.3333 8.23171 78.6667 6.58537 80.6667L0 87L6.2561 93.3333C8.23171 95.3333 8.89024 97.6667 8.89024 100Z" fill="#4E75D8"/>
</svg>
