<svg width="214" height="253" viewBox="0 0 214 253" fill="none" xmlns="http://www.w3.org/2000/svg">
<path d="M92.4823 133.277L57.9219 225.507L68.7763 229.58L103.337 137.35L92.4823 133.277Z" fill="#1D2332"/>
<path d="M99.7031 162.417L118.673 181.401L99.7031 200.384L107.924 208.611L134.903 181.401L107.924 154.191L99.7031 162.417Z" fill="#1D2332"/>
<path d="M42.8082 181.401L61.7785 162.417L53.558 154.191L26.5781 181.401L53.558 208.611L61.7785 200.384L42.8082 181.401Z" fill="#1D2332"/>
<path d="M116.983 121.919L150.919 180.979L116.983 240.04H48.9011L14.9654 180.979L48.9011 121.919H116.983ZM124.361 109.052H41.5238L0 180.979L41.5238 252.907H124.361L165.884 180.979L124.361 109.052Z" fill="#1D2332"/>
<path d="M181.69 150.605L213.307 98.5048L188.857 0L90.6327 24.2571L59.0156 76.3571L128.362 59.2716L104.544 98.9267L128.784 99.7704L141.22 120.02L164.617 81.2085L181.69 150.605Z" fill="#4E75D8"/>
</svg>
