<svg width="567" height="444" viewBox="0 0 567 444" fill="none" xmlns="http://www.w3.org/2000/svg">
<line x1="436.342" y1="30.8291" x2="418.954" y2="50.9986" stroke="#A4C2FF" stroke-width="0.695501"/>
<line x1="506.247" y1="246.546" x2="479.122" y2="240.287" stroke="#A4C2FF" stroke-width="0.695501"/>
<line x1="408.654" y1="391.74" x2="394.744" y2="367.397" stroke="#A4C2FF" stroke-width="0.695501"/>
<line x1="275.767" y1="415.91" x2="275.767" y2="394.349" stroke="#A4C2FF" stroke-width="0.695501"/>
<line x1="154.133" y1="378.827" x2="170.825" y2="358.657" stroke="#A4C2FF" stroke-width="0.695501"/>
<line x1="93.7118" y1="309.897" x2="115.272" y2="296.682" stroke="#A4C2FF" stroke-width="0.695501"/>
<line x1="72.9274" y1="234.747" x2="93.7925" y2="228.487" stroke="#A4C2FF" stroke-width="0.695501"/>
<line x1="105.907" y1="47.0028" x2="138.359" y2="68.1915" stroke="#A4C2FF" stroke-width="0.695501"/>
<path d="M89.7968 204.802C88.4076 154.86 105.83 106.22 138.611 68.5175C171.392 30.8154 217.14 6.80338 266.79 1.2395L288.981 199.261L89.7968 204.802Z" fill="#5B20A6"/>
<path d="M266.712 1.24825C312.649 -3.91789 358.953 7.04838 397.694 32.2688C436.435 57.4893 465.201 95.3947 479.067 139.493L288.981 199.261L266.712 1.24825Z" fill="#4F54CE"/>
<path d="M478.998 139.274C488.947 170.787 490.901 204.28 484.686 236.736C478.471 269.193 464.282 299.594 443.395 325.202L288.981 199.261L478.998 139.274Z" fill="#658CDA"/>
<path d="M445.479 322.603C415.848 360.199 373.674 385.872 326.669 394.926L288.981 199.261L445.479 322.603Z" fill="#4FAD5B"/>
<path d="M327.572 394.749C291.427 401.885 254.011 398.859 219.482 386.009L288.981 199.261L327.572 394.749Z" fill="#67DC63"/>
<path d="M220.561 386.407C187.233 374.223 157.764 353.359 135.198 325.973L288.981 199.261L220.561 386.407Z" fill="#F5C242"/>
<path d="M136.197 327.176C119.914 307.727 107.494 285.348 99.6042 261.241L288.981 199.261L136.197 327.176Z" fill="#F1A13C"/>
<path d="M99.7059 261.551C93.2857 242.042 89.9201 221.658 89.7284 201.121L288.981 199.261L99.7059 261.551Z" fill="#BE5A27"/>
<circle cx="286.546" cy="198.913" r="108.498" fill="white"/>
<path d="M237.616 198.796V159.625L241.9 163.909H229.047V155.953H247.531V198.796H237.616ZM270.029 155.218C273.987 155.218 277.394 156.034 280.25 157.666C283.107 159.299 285.31 161.686 286.861 164.827C288.411 167.928 289.186 171.805 289.186 176.456C289.186 181.393 288.248 185.576 286.371 189.003C284.535 192.43 281.985 195.042 278.72 196.837C275.456 198.632 271.662 199.53 267.336 199.53C265.092 199.53 262.93 199.285 260.849 198.796C258.768 198.306 256.973 197.572 255.463 196.592L259.135 189.309C260.318 190.125 261.583 190.696 262.93 191.023C264.276 191.308 265.684 191.451 267.153 191.451C270.825 191.451 273.742 190.329 275.905 188.085C278.108 185.841 279.21 182.515 279.21 178.109C279.21 177.374 279.19 176.558 279.149 175.661C279.108 174.763 279.006 173.865 278.843 172.968L281.536 175.538C280.842 177.129 279.863 178.476 278.598 179.578C277.333 180.638 275.864 181.454 274.191 182.026C272.518 182.556 270.641 182.821 268.561 182.821C265.827 182.821 263.338 182.271 261.094 181.169C258.89 180.067 257.115 178.517 255.769 176.517C254.463 174.518 253.81 172.172 253.81 169.479C253.81 166.541 254.524 164.011 255.952 161.89C257.421 159.768 259.38 158.136 261.828 156.993C264.317 155.81 267.051 155.218 270.029 155.218ZM270.641 162.624C269.213 162.624 267.969 162.889 266.908 163.42C265.847 163.909 265.011 164.644 264.399 165.623C263.787 166.561 263.481 167.684 263.481 168.989C263.481 170.948 264.133 172.519 265.439 173.702C266.786 174.844 268.561 175.416 270.764 175.416C272.192 175.416 273.457 175.15 274.559 174.62C275.701 174.049 276.578 173.274 277.19 172.294C277.802 171.315 278.108 170.213 278.108 168.989C278.108 167.765 277.802 166.684 277.19 165.745C276.619 164.766 275.783 164.011 274.681 163.481C273.579 162.91 272.233 162.624 270.641 162.624ZM311.692 199.53C308.102 199.53 304.96 199 302.267 197.939C299.574 196.837 297.472 195.307 295.963 193.348C294.453 191.349 293.698 189.023 293.698 186.371C293.698 183.719 294.433 181.475 295.902 179.639C297.411 177.762 299.513 176.354 302.206 175.416C304.899 174.436 308.061 173.947 311.692 173.947C315.364 173.947 318.547 174.436 321.24 175.416C323.974 176.354 326.075 177.762 327.544 179.639C329.054 181.475 329.809 183.719 329.809 186.371C329.809 189.023 329.054 191.349 327.544 193.348C326.034 195.307 323.913 196.837 321.179 197.939C318.486 199 315.324 199.53 311.692 199.53ZM311.692 192.247C314.181 192.247 316.14 191.696 317.568 190.594C319.037 189.493 319.771 187.983 319.771 186.065C319.771 184.147 319.037 182.658 317.568 181.597C316.14 180.496 314.181 179.945 311.692 179.945C309.244 179.945 307.306 180.496 305.878 181.597C304.45 182.658 303.736 184.147 303.736 186.065C303.736 187.983 304.45 189.493 305.878 190.594C307.306 191.696 309.244 192.247 311.692 192.247ZM311.692 178.966C308.387 178.966 305.49 178.517 303.001 177.619C300.553 176.721 298.635 175.416 297.248 173.702C295.902 171.947 295.228 169.867 295.228 167.459C295.228 164.929 295.922 162.767 297.309 160.972C298.697 159.135 300.635 157.728 303.124 156.748C305.613 155.728 308.469 155.218 311.692 155.218C314.997 155.218 317.874 155.728 320.322 156.748C322.811 157.728 324.749 159.135 326.136 160.972C327.564 162.767 328.278 164.929 328.278 167.459C328.278 169.867 327.585 171.947 326.198 173.702C324.851 175.416 322.933 176.721 320.444 177.619C317.955 178.517 315.038 178.966 311.692 178.966ZM311.692 173.151C313.773 173.151 315.405 172.682 316.589 171.743C317.813 170.805 318.425 169.52 318.425 167.888C318.425 166.174 317.792 164.848 316.527 163.909C315.303 162.971 313.692 162.502 311.692 162.502C309.734 162.502 308.142 162.971 306.918 163.909C305.694 164.848 305.082 166.174 305.082 167.888C305.082 169.52 305.674 170.805 306.857 171.743C308.04 172.682 309.652 173.151 311.692 173.151ZM243.058 223.796V212.57H246.292V221.125H250.82V212.57H254.075V223.796H243.058ZM252.677 226.216V223.754L253.428 223.796H250.82V221.125H255.702V226.216H252.677ZM263.237 223.963C261.957 223.963 260.83 223.712 259.857 223.211C258.897 222.711 258.153 222.029 257.624 221.167C257.096 220.29 256.831 219.296 256.831 218.183C256.831 217.056 257.089 216.062 257.603 215.199C258.132 214.323 258.848 213.641 259.752 213.154C260.657 212.654 261.679 212.403 262.82 212.403C263.918 212.403 264.906 212.64 265.782 213.113C266.673 213.572 267.375 214.239 267.89 215.116C268.404 215.978 268.662 217.015 268.662 218.225C268.662 218.35 268.655 218.496 268.641 218.663C268.627 218.816 268.613 218.962 268.599 219.101H259.481V217.202H266.888L265.636 217.766C265.636 217.181 265.518 216.674 265.282 216.243C265.045 215.811 264.718 215.477 264.301 215.241C263.884 214.991 263.397 214.865 262.84 214.865C262.284 214.865 261.79 214.991 261.359 215.241C260.942 215.477 260.615 215.818 260.378 216.263C260.142 216.695 260.024 217.209 260.024 217.807V218.308C260.024 218.92 260.156 219.463 260.42 219.936C260.698 220.395 261.081 220.749 261.568 221C262.068 221.236 262.653 221.354 263.32 221.354C263.918 221.354 264.44 221.264 264.885 221.083C265.344 220.902 265.762 220.631 266.137 220.269L267.869 222.147C267.354 222.732 266.707 223.184 265.928 223.504C265.149 223.81 264.252 223.963 263.237 223.963ZM271.157 223.796V212.57H274.391V216.952H279.273V212.57H282.528V223.796H279.273V219.602H274.391V223.796H271.157ZM288.044 223.796V214.49L288.774 215.241H284.246V212.57H295.075V215.241H290.547L291.278 214.49V223.796H288.044ZM303.424 223.963C302.478 223.963 301.651 223.754 300.941 223.337C300.232 222.919 299.676 222.286 299.272 221.438C298.883 220.575 298.688 219.491 298.688 218.183C298.688 216.862 298.876 215.777 299.251 214.928C299.627 214.08 300.169 213.447 300.879 213.029C301.588 212.612 302.437 212.403 303.424 212.403C304.482 212.403 305.427 212.647 306.262 213.134C307.111 213.607 307.778 214.274 308.265 215.137C308.766 215.999 309.016 217.015 309.016 218.183C309.016 219.365 308.766 220.388 308.265 221.25C307.778 222.113 307.111 222.78 306.262 223.253C305.427 223.726 304.482 223.963 303.424 223.963ZM296.789 227.843V212.57H299.898V214.865L299.836 218.204L300.044 221.521V227.843H296.789ZM302.861 221.292C303.403 221.292 303.883 221.167 304.301 220.916C304.732 220.666 305.073 220.311 305.323 219.852C305.587 219.379 305.72 218.823 305.72 218.183C305.72 217.529 305.587 216.973 305.323 216.514C305.073 216.055 304.732 215.7 304.301 215.45C303.883 215.199 303.403 215.074 302.861 215.074C302.319 215.074 301.832 215.199 301.4 215.45C300.969 215.7 300.628 216.055 300.378 216.514C300.128 216.973 300.002 217.529 300.002 218.183C300.002 218.823 300.128 219.379 300.378 219.852C300.628 220.311 300.969 220.666 301.4 220.916C301.832 221.167 302.319 221.292 302.861 221.292ZM316.555 223.963C315.359 223.963 314.295 223.712 313.363 223.211C312.445 222.711 311.715 222.029 311.172 221.167C310.644 220.29 310.379 219.296 310.379 218.183C310.379 217.056 310.644 216.062 311.172 215.199C311.715 214.323 312.445 213.641 313.363 213.154C314.295 212.654 315.359 212.403 316.555 212.403C317.738 212.403 318.795 212.654 319.727 213.154C320.659 213.641 321.389 214.316 321.918 215.178C322.446 216.041 322.711 217.042 322.711 218.183C322.711 219.296 322.446 220.29 321.918 221.167C321.389 222.029 320.659 222.711 319.727 223.211C318.795 223.712 317.738 223.963 316.555 223.963ZM316.555 221.292C317.098 221.292 317.585 221.167 318.016 220.916C318.447 220.666 318.788 220.311 319.038 219.852C319.289 219.379 319.414 218.823 319.414 218.183C319.414 217.529 319.289 216.973 319.038 216.514C318.788 216.055 318.447 215.7 318.016 215.45C317.585 215.199 317.098 215.074 316.555 215.074C316.013 215.074 315.526 215.199 315.095 215.45C314.664 215.7 314.316 216.055 314.052 216.514C313.801 216.973 313.676 217.529 313.676 218.183C313.676 218.823 313.801 219.379 314.052 219.852C314.316 220.311 314.664 220.666 315.095 220.916C315.526 221.167 316.013 221.292 316.555 221.292ZM324.949 223.796V212.57H330.687C332.092 212.57 333.191 212.828 333.984 213.342C334.777 213.843 335.173 214.552 335.173 215.471C335.173 216.389 334.798 217.112 334.047 217.64C333.309 218.155 332.329 218.412 331.105 218.412L331.438 217.661C332.802 217.661 333.817 217.912 334.485 218.412C335.166 218.913 335.507 219.644 335.507 220.603C335.507 221.591 335.132 222.37 334.38 222.94C333.629 223.51 332.482 223.796 330.938 223.796H324.949ZM327.933 221.584H330.666C331.265 221.584 331.71 221.487 332.002 221.292C332.308 221.083 332.461 220.77 332.461 220.353C332.461 219.922 332.322 219.609 332.044 219.414C331.765 219.205 331.327 219.101 330.729 219.101H327.933V221.584ZM327.933 217.181H330.395C330.965 217.181 331.39 217.077 331.668 216.868C331.96 216.66 332.106 216.361 332.106 215.971C332.106 215.568 331.96 215.269 331.668 215.074C331.39 214.879 330.965 214.782 330.395 214.782H327.933V217.181ZM229.386 248.796V237.57H235.124C236.529 237.57 237.628 237.828 238.42 238.342C239.213 238.843 239.61 239.552 239.61 240.471C239.61 241.389 239.234 242.112 238.483 242.64C237.746 243.155 236.765 243.412 235.541 243.412L235.875 242.661C237.238 242.661 238.254 242.912 238.921 243.412C239.603 243.913 239.944 244.644 239.944 245.603C239.944 246.591 239.568 247.37 238.817 247.94C238.066 248.51 236.918 248.796 235.374 248.796H229.386ZM232.37 246.584H235.103C235.701 246.584 236.146 246.487 236.438 246.292C236.744 246.083 236.897 245.77 236.897 245.353C236.897 244.922 236.758 244.609 236.48 244.414C236.202 244.205 235.764 244.101 235.166 244.101H232.37V246.584ZM232.37 242.181H234.832C235.402 242.181 235.826 242.077 236.104 241.868C236.397 241.66 236.543 241.361 236.543 240.971C236.543 240.568 236.397 240.269 236.104 240.074C235.826 239.879 235.402 239.782 234.832 239.782H232.37V242.181ZM247.707 248.963C246.497 248.963 245.419 248.719 244.473 248.232C243.527 247.732 242.783 247.043 242.24 246.167C241.712 245.29 241.447 244.296 241.447 243.183C241.447 242.056 241.712 241.062 242.24 240.199C242.783 239.323 243.527 238.641 244.473 238.154C245.419 237.654 246.497 237.403 247.707 237.403C248.889 237.403 249.919 237.654 250.795 238.154C251.671 238.641 252.318 239.344 252.735 240.262L250.211 241.618C249.919 241.09 249.55 240.7 249.105 240.45C248.674 240.199 248.201 240.074 247.686 240.074C247.13 240.074 246.629 240.199 246.184 240.45C245.739 240.7 245.384 241.055 245.12 241.514C244.869 241.973 244.744 242.529 244.744 243.183C244.744 243.837 244.869 244.393 245.12 244.852C245.384 245.311 245.739 245.666 246.184 245.916C246.629 246.167 247.13 246.292 247.686 246.292C248.201 246.292 248.674 246.174 249.105 245.937C249.55 245.687 249.919 245.29 250.211 244.748L252.735 246.125C252.318 247.029 251.671 247.732 250.795 248.232C249.919 248.719 248.889 248.963 247.707 248.963ZM260.058 248.963C258.778 248.963 257.652 248.712 256.678 248.211C255.718 247.711 254.974 247.029 254.445 246.167C253.917 245.29 253.653 244.296 253.653 243.183C253.653 242.056 253.91 241.062 254.425 240.199C254.953 239.323 255.67 238.641 256.574 238.154C257.478 237.654 258.5 237.403 259.641 237.403C260.74 237.403 261.727 237.64 262.604 238.113C263.494 238.572 264.196 239.239 264.711 240.116C265.226 240.978 265.483 242.015 265.483 243.225C265.483 243.35 265.476 243.496 265.462 243.663C265.448 243.816 265.434 243.962 265.42 244.101H256.302V242.202H263.71L262.458 242.766C262.458 242.181 262.339 241.674 262.103 241.243C261.866 240.811 261.54 240.477 261.122 240.241C260.705 239.991 260.218 239.865 259.662 239.865C259.105 239.865 258.612 239.991 258.18 240.241C257.763 240.477 257.436 240.818 257.2 241.263C256.963 241.695 256.845 242.209 256.845 242.807V243.308C256.845 243.92 256.977 244.463 257.241 244.936C257.52 245.395 257.902 245.749 258.389 246C258.89 246.236 259.474 246.354 260.142 246.354C260.74 246.354 261.261 246.264 261.707 246.083C262.166 245.902 262.583 245.631 262.958 245.269L264.69 247.147C264.176 247.732 263.529 248.184 262.75 248.504C261.971 248.81 261.074 248.963 260.058 248.963ZM267.978 248.796V237.57H276.971V240.241H270.482L271.212 239.532V248.796H267.978ZM283.485 248.963C282.289 248.963 281.225 248.712 280.293 248.211C279.375 247.711 278.645 247.029 278.102 246.167C277.573 245.29 277.309 244.296 277.309 243.183C277.309 242.056 277.573 241.062 278.102 240.199C278.645 239.323 279.375 238.641 280.293 238.154C281.225 237.654 282.289 237.403 283.485 237.403C284.668 237.403 285.725 237.654 286.657 238.154C287.589 238.641 288.319 239.316 288.848 240.178C289.376 241.041 289.64 242.042 289.64 243.183C289.64 244.296 289.376 245.29 288.848 246.167C288.319 247.029 287.589 247.711 286.657 248.211C285.725 248.712 284.668 248.963 283.485 248.963ZM283.485 246.292C284.028 246.292 284.515 246.167 284.946 245.916C285.377 245.666 285.718 245.311 285.968 244.852C286.219 244.379 286.344 243.823 286.344 243.183C286.344 242.529 286.219 241.973 285.968 241.514C285.718 241.055 285.377 240.7 284.946 240.45C284.515 240.199 284.028 240.074 283.485 240.074C282.943 240.074 282.456 240.199 282.025 240.45C281.593 240.7 281.246 241.055 280.981 241.514C280.731 241.973 280.606 242.529 280.606 243.183C280.606 243.823 280.731 244.379 280.981 244.852C281.246 245.311 281.593 245.666 282.025 245.916C282.456 246.167 282.943 246.292 283.485 246.292ZM297.788 248.796V237.57H303.526C304.931 237.57 306.03 237.828 306.823 238.342C307.616 238.843 308.012 239.552 308.012 240.471C308.012 241.389 307.637 242.112 306.885 242.64C306.148 243.155 305.167 243.412 303.943 243.412L304.277 242.661C305.64 242.661 306.656 242.912 307.324 243.412C308.005 243.913 308.346 244.644 308.346 245.603C308.346 246.591 307.97 247.37 307.219 247.94C306.468 248.51 305.32 248.796 303.776 248.796H297.788ZM300.772 246.584H303.505C304.103 246.584 304.548 246.487 304.841 246.292C305.147 246.083 305.3 245.77 305.3 245.353C305.3 244.922 305.161 244.609 304.882 244.414C304.604 244.205 304.166 244.101 303.568 244.101H300.772V246.584ZM300.772 242.181H303.234C303.804 242.181 304.229 242.077 304.507 241.868C304.799 241.66 304.945 241.361 304.945 240.971C304.945 240.568 304.799 240.269 304.507 240.074C304.229 239.879 303.804 239.782 303.234 239.782H300.772V242.181ZM316.927 248.796V234.19H323.249C324.557 234.19 325.683 234.406 326.629 234.837C327.575 235.254 328.306 235.859 328.82 236.652C329.335 237.445 329.592 238.391 329.592 239.49C329.592 240.575 329.335 241.514 328.82 242.307C328.306 243.099 327.575 243.712 326.629 244.143C325.683 244.56 324.557 244.769 323.249 244.769H318.805L320.307 243.246V248.796H316.927ZM320.307 243.621L318.805 242.015H323.061C324.105 242.015 324.884 241.792 325.398 241.347C325.913 240.902 326.17 240.283 326.17 239.49C326.17 238.683 325.913 238.057 325.398 237.612C324.884 237.167 324.105 236.944 323.061 236.944H318.805L320.307 235.338V243.621ZM339.746 247.878C337.854 247.878 336.247 247.627 334.926 247.126C333.618 246.626 332.624 245.902 331.942 244.956C331.261 243.997 330.92 242.828 330.92 241.451C330.92 240.074 331.261 238.913 331.942 237.967C332.624 237.007 333.618 236.277 334.926 235.776C336.247 235.275 337.854 235.025 339.746 235.025C339.774 235.025 339.85 235.025 339.975 235.025C340.114 235.025 340.247 235.025 340.372 235.025C340.511 235.025 340.587 235.025 340.601 235.025C342.479 235.025 344.065 235.275 345.359 235.776C346.666 236.277 347.654 237.007 348.321 237.967C348.989 238.926 349.323 240.088 349.323 241.451C349.323 242.8 348.989 243.962 348.321 244.936C347.668 245.895 346.701 246.626 345.421 247.126C344.155 247.627 342.604 247.878 340.768 247.878C340.726 247.878 340.629 247.878 340.476 247.878C340.323 247.878 340.17 247.878 340.017 247.878C339.878 247.878 339.788 247.878 339.746 247.878ZM340.059 245.269C340.101 245.269 340.156 245.269 340.226 245.269C340.295 245.269 340.344 245.269 340.372 245.269C341.652 245.269 342.709 245.13 343.543 244.852C344.392 244.56 345.025 244.136 345.442 243.579C345.859 243.009 346.068 242.293 346.068 241.43C346.068 240.568 345.852 239.858 345.421 239.302C344.99 238.746 344.357 238.335 343.522 238.071C342.702 237.793 341.665 237.654 340.414 237.654C340.386 237.654 340.33 237.654 340.247 237.654C340.177 237.654 340.114 237.654 340.059 237.654C338.737 237.654 337.645 237.786 336.783 238.05C335.921 238.314 335.274 238.732 334.843 239.302C334.411 239.858 334.196 240.575 334.196 241.451C334.196 242.327 334.425 243.051 334.884 243.621C335.343 244.178 336.004 244.595 336.866 244.873C337.743 245.137 338.807 245.269 340.059 245.269ZM338.577 249.442V233.564H341.686V249.442H338.577Z" fill="#34299A"/>
<path d="M359.149 77.8872V75.6129L366.034 66.3488H369.581L362.842 75.6129L361.194 75.133H372.69V77.8872H359.149ZM367.015 80.9543V77.8872L367.119 75.133V72.3997H370.312V80.9543H367.015ZM378.315 81.2047C377.3 81.2047 376.291 81.0726 375.29 80.8083C374.288 80.5301 373.44 80.1406 372.744 79.6398L374.059 77.0526C374.615 77.456 375.262 77.7759 375.999 78.0124C376.737 78.2488 377.481 78.3671 378.232 78.3671C379.08 78.3671 379.748 78.2002 380.235 77.8663C380.722 77.5325 380.965 77.0734 380.965 76.4892C380.965 75.9328 380.75 75.4947 380.318 75.1747C379.887 74.8548 379.192 74.6948 378.232 74.6948H376.688V72.4623L380.757 67.8511L381.132 69.0613H373.475V66.3488H383.699V68.5396L379.651 73.1508L377.94 72.1702H378.92C380.715 72.1702 382.071 72.5736 382.989 73.3803C383.907 74.1871 384.366 75.2234 384.366 76.4892C384.366 77.3099 384.151 78.0819 383.719 78.8052C383.288 79.5147 382.627 80.0919 381.737 80.537C380.847 80.9822 379.706 81.2047 378.315 81.2047Z" fill="white"/>
<path d="M428.656 232.378C427.641 232.378 426.632 232.246 425.631 231.981C424.629 231.703 423.781 231.314 423.085 230.813L424.4 228.226C424.956 228.629 425.603 228.949 426.34 229.185C427.077 229.422 427.821 229.54 428.573 229.54C429.421 229.54 430.089 229.373 430.576 229.039C431.062 228.706 431.306 228.247 431.306 227.662C431.306 227.106 431.09 226.668 430.659 226.348C430.228 226.028 429.532 225.868 428.573 225.868H427.029V223.635L431.097 219.024L431.473 220.234H423.815V217.522H434.039V219.713L429.991 224.324L428.28 223.343H429.261C431.055 223.343 432.412 223.747 433.33 224.553C434.248 225.36 434.707 226.397 434.707 227.662C434.707 228.483 434.491 229.255 434.06 229.978C433.629 230.688 432.968 231.265 432.078 231.71C431.188 232.155 430.047 232.378 428.656 232.378ZM438.521 232.127V218.774L439.981 220.234H435.6V217.522H441.901V232.127H438.521Z" fill="white"/>
<path d="M362.543 333.796V331.605L368.176 326.285C368.621 325.881 368.948 325.52 369.157 325.2C369.365 324.88 369.505 324.588 369.574 324.323C369.658 324.059 369.699 323.816 369.699 323.593C369.699 323.009 369.498 322.564 369.094 322.258C368.705 321.938 368.127 321.778 367.362 321.778C366.75 321.778 366.18 321.896 365.651 322.133C365.137 322.369 364.699 322.738 364.337 323.238L361.875 321.653C362.431 320.818 363.21 320.157 364.212 319.671C365.213 319.184 366.368 318.94 367.675 318.94C368.76 318.94 369.706 319.121 370.513 319.483C371.334 319.83 371.967 320.324 372.412 320.964C372.871 321.604 373.1 322.369 373.1 323.259C373.1 323.732 373.038 324.205 372.912 324.678C372.801 325.137 372.565 325.624 372.203 326.139C371.855 326.653 371.341 327.231 370.659 327.87L365.985 332.273L365.338 331.042H373.58V333.796H362.543ZM374.85 333.796V331.605L380.483 326.285C380.928 325.881 381.255 325.52 381.464 325.2C381.673 324.88 381.812 324.588 381.881 324.323C381.965 324.059 382.006 323.816 382.006 323.593C382.006 323.009 381.805 322.564 381.401 322.258C381.012 321.938 380.435 321.778 379.67 321.778C379.057 321.778 378.487 321.896 377.959 322.133C377.444 322.369 377.006 322.738 376.644 323.238L374.182 321.653C374.738 320.818 375.517 320.157 376.519 319.671C377.52 319.184 378.675 318.94 379.982 318.94C381.067 318.94 382.013 319.121 382.82 319.483C383.641 319.83 384.274 320.324 384.719 320.964C385.178 321.604 385.407 322.369 385.407 323.259C385.407 323.732 385.345 324.205 385.22 324.678C385.108 325.137 384.872 325.624 384.51 326.139C384.162 326.653 383.648 327.231 382.966 327.87L378.292 332.273L377.646 331.042H385.887V333.796H374.85Z" fill="white"/>
<path d="M271.156 356.623V343.269L272.616 344.729H268.235V342.017H274.536V356.623H271.156ZM279.41 356.623L285.294 343.311L286.17 344.771H278.304L279.807 343.185V347.15H276.802V342.017H288.507V344.208L283.082 356.623H279.41Z" fill="white"/>
<path d="M187.758 328.802V315.449L189.218 316.909H184.836V314.197H191.138V328.802H187.758ZM196.012 328.802L201.896 315.491L202.772 316.951H194.906L196.408 315.365V319.33H193.404V314.197H205.109V316.388L199.684 328.802H196.012Z" fill="white"/>
<path d="M148.626 277.273V263.919L150.087 265.38H145.705V262.667H152.006V277.273H148.626ZM154.418 277.273V275.082L160.052 269.762C160.497 269.358 160.824 268.996 161.032 268.677C161.241 268.357 161.38 268.065 161.45 267.8C161.533 267.536 161.575 267.293 161.575 267.07C161.575 266.486 161.373 266.041 160.97 265.735C160.58 265.415 160.003 265.255 159.238 265.255C158.626 265.255 158.056 265.373 157.527 265.609C157.012 265.846 156.574 266.214 156.213 266.715L153.751 265.129C154.307 264.295 155.086 263.634 156.087 263.147C157.089 262.66 158.243 262.417 159.551 262.417C160.636 262.417 161.582 262.598 162.389 262.96C163.209 263.307 163.842 263.801 164.287 264.441C164.746 265.081 164.976 265.846 164.976 266.736C164.976 267.209 164.913 267.682 164.788 268.155C164.677 268.614 164.44 269.101 164.079 269.615C163.731 270.13 163.216 270.707 162.535 271.347L157.861 275.75L157.214 274.519H165.456V277.273H154.418Z" fill="white"/>
<path d="M138.386 215.819C139.735 215.819 140.897 216.097 141.87 216.653C142.844 217.21 143.595 218.023 144.124 219.094C144.652 220.152 144.917 221.473 144.917 223.059C144.917 224.742 144.597 226.168 143.957 227.336C143.331 228.505 142.462 229.395 141.349 230.007C140.236 230.619 138.942 230.925 137.468 230.925C136.703 230.925 135.966 230.841 135.256 230.675C134.547 230.508 133.935 230.257 133.42 229.923L134.672 227.44C135.075 227.719 135.507 227.913 135.966 228.025C136.425 228.122 136.905 228.171 137.405 228.171C138.657 228.171 139.652 227.788 140.389 227.023C141.14 226.258 141.516 225.124 141.516 223.622C141.516 223.372 141.509 223.094 141.495 222.788C141.481 222.482 141.446 222.176 141.391 221.87L142.309 222.746C142.072 223.288 141.738 223.747 141.307 224.123C140.876 224.485 140.375 224.763 139.805 224.958C139.234 225.138 138.595 225.229 137.885 225.229C136.953 225.229 136.105 225.041 135.34 224.665C134.589 224.29 133.983 223.761 133.524 223.08C133.079 222.398 132.857 221.598 132.857 220.68C132.857 219.679 133.1 218.816 133.587 218.093C134.088 217.37 134.755 216.813 135.59 216.424C136.439 216.02 137.371 215.819 138.386 215.819ZM138.595 218.343C138.108 218.343 137.684 218.434 137.322 218.615C136.96 218.781 136.675 219.032 136.466 219.366C136.258 219.686 136.153 220.068 136.153 220.513C136.153 221.181 136.376 221.717 136.821 222.12C137.28 222.509 137.885 222.704 138.636 222.704C139.123 222.704 139.554 222.614 139.93 222.433C140.319 222.238 140.619 221.974 140.827 221.64C141.036 221.306 141.14 220.931 141.14 220.513C141.14 220.096 141.036 219.727 140.827 219.407C140.632 219.074 140.347 218.816 139.972 218.635C139.596 218.441 139.137 218.343 138.595 218.343Z" fill="white"/>
<path d="M160.495 103.621V101.346L167.38 92.0822H170.927L164.188 101.346L162.539 100.866H174.036V103.621H160.495ZM168.361 106.688V103.621L168.465 100.866V98.1331H171.657V106.688H168.361ZM176.528 106.688L182.412 93.3759L183.288 94.8364H175.422L176.925 93.2507V97.215H173.92V92.0822H185.625V94.273L180.2 106.688H176.528Z" fill="white"/>
<path d="M427.824 17V4.4H430.722V14.624H436.338V4.4H439.236V17H427.824ZM438.354 19.664V16.316L438.984 17H436.338V14.624H441.036V19.664H438.354ZM449.619 16.208C447.987 16.208 446.601 15.992 445.461 15.56C444.333 15.128 443.475 14.504 442.887 13.688C442.299 12.86 442.005 11.852 442.005 10.664C442.005 9.476 442.299 8.474 442.887 7.658C443.475 6.83 444.333 6.2 445.461 5.768C446.601 5.336 447.987 5.12 449.619 5.12C449.643 5.12 449.709 5.12 449.817 5.12C449.937 5.12 450.051 5.12 450.159 5.12C450.279 5.12 450.345 5.12 450.357 5.12C451.977 5.12 453.345 5.336 454.461 5.768C455.589 6.2 456.441 6.83 457.017 7.658C457.593 8.486 457.881 9.488 457.881 10.664C457.881 11.828 457.593 12.83 457.017 13.67C456.453 14.498 455.619 15.128 454.515 15.56C453.423 15.992 452.085 16.208 450.501 16.208C450.465 16.208 450.381 16.208 450.249 16.208C450.117 16.208 449.985 16.208 449.853 16.208C449.733 16.208 449.655 16.208 449.619 16.208ZM449.889 13.958C449.925 13.958 449.973 13.958 450.033 13.958C450.093 13.958 450.135 13.958 450.159 13.958C451.263 13.958 452.175 13.838 452.895 13.598C453.627 13.346 454.173 12.98 454.533 12.5C454.893 12.008 455.073 11.39 455.073 10.646C455.073 9.902 454.887 9.29 454.515 8.81C454.143 8.33 453.597 7.976 452.877 7.748C452.169 7.508 451.275 7.388 450.195 7.388C450.171 7.388 450.123 7.388 450.051 7.388C449.991 7.388 449.937 7.388 449.889 7.388C448.749 7.388 447.807 7.502 447.063 7.73C446.319 7.958 445.761 8.318 445.389 8.81C445.017 9.29 444.831 9.908 444.831 10.664C444.831 11.42 445.029 12.044 445.425 12.536C445.821 13.016 446.391 13.376 447.135 13.616C447.891 13.844 448.809 13.958 449.889 13.958ZM448.611 17.558V3.86H451.293V17.558H448.611ZM466.092 17.216C465.096 17.216 464.172 17.054 463.32 16.73C462.48 16.406 461.748 15.95 461.124 15.362C460.512 14.774 460.032 14.084 459.684 13.292C459.348 12.5 459.18 11.636 459.18 10.7C459.18 9.764 459.348 8.9 459.684 8.108C460.032 7.316 460.518 6.626 461.142 6.038C461.766 5.45 462.498 4.994 463.338 4.67C464.178 4.346 465.09 4.184 466.074 4.184C467.07 4.184 467.982 4.346 468.81 4.67C469.65 4.994 470.376 5.45 470.988 6.038C471.612 6.626 472.098 7.316 472.446 8.108C472.794 8.888 472.968 9.752 472.968 10.7C472.968 11.636 472.794 12.506 472.446 13.31C472.098 14.102 471.612 14.792 470.988 15.38C470.376 15.956 469.65 16.406 468.81 16.73C467.982 17.054 467.076 17.216 466.092 17.216ZM466.074 14.732C466.638 14.732 467.154 14.636 467.622 14.444C468.102 14.252 468.522 13.976 468.882 13.616C469.242 13.256 469.518 12.83 469.71 12.338C469.914 11.846 470.016 11.3 470.016 10.7C470.016 10.1 469.914 9.554 469.71 9.062C469.518 8.57 469.242 8.144 468.882 7.784C468.534 7.424 468.12 7.148 467.64 6.956C467.16 6.764 466.638 6.668 466.074 6.668C465.51 6.668 464.988 6.764 464.508 6.956C464.04 7.148 463.626 7.424 463.266 7.784C462.906 8.144 462.624 8.57 462.42 9.062C462.228 9.554 462.132 10.1 462.132 10.7C462.132 11.288 462.228 11.834 462.42 12.338C462.624 12.83 462.9 13.256 463.248 13.616C463.608 13.976 464.028 14.252 464.508 14.444C464.988 14.636 465.51 14.732 466.074 14.732Z" fill="#07074A"/>
<path d="M528.068 250.784V241.856H523.748L523.694 243.692C523.658 244.472 523.604 245.21 523.532 245.906C523.472 246.602 523.376 247.238 523.244 247.814C523.112 248.378 522.938 248.858 522.722 249.254C522.518 249.65 522.26 249.932 521.948 250.1L518.834 249.704C519.266 249.716 519.62 249.566 519.896 249.254C520.184 248.942 520.412 248.504 520.58 247.94C520.748 247.364 520.868 246.692 520.94 245.924C521.024 245.156 521.084 244.322 521.12 243.422L521.264 239.48H530.948V250.784H528.068ZM518.42 254.69L518.438 249.704H532.712V254.69H530.012V252.08H521.12V254.69H518.42ZM541.335 251.288C539.703 251.288 538.317 251.072 537.177 250.64C536.049 250.208 535.191 249.584 534.603 248.768C534.015 247.94 533.721 246.932 533.721 245.744C533.721 244.556 534.015 243.554 534.603 242.738C535.191 241.91 536.049 241.28 537.177 240.848C538.317 240.416 539.703 240.2 541.335 240.2C541.359 240.2 541.425 240.2 541.533 240.2C541.653 240.2 541.767 240.2 541.875 240.2C541.995 240.2 542.061 240.2 542.073 240.2C543.693 240.2 545.061 240.416 546.177 240.848C547.305 241.28 548.157 241.91 548.733 242.738C549.309 243.566 549.597 244.568 549.597 245.744C549.597 246.908 549.309 247.91 548.733 248.75C548.169 249.578 547.335 250.208 546.231 250.64C545.139 251.072 543.801 251.288 542.217 251.288C542.181 251.288 542.097 251.288 541.965 251.288C541.833 251.288 541.701 251.288 541.569 251.288C541.449 251.288 541.371 251.288 541.335 251.288ZM541.605 249.038C541.641 249.038 541.689 249.038 541.749 249.038C541.809 249.038 541.851 249.038 541.875 249.038C542.979 249.038 543.891 248.918 544.611 248.678C545.343 248.426 545.889 248.06 546.249 247.58C546.609 247.088 546.789 246.47 546.789 245.726C546.789 244.982 546.603 244.37 546.231 243.89C545.859 243.41 545.313 243.056 544.593 242.828C543.885 242.588 542.991 242.468 541.911 242.468C541.887 242.468 541.839 242.468 541.767 242.468C541.707 242.468 541.653 242.468 541.605 242.468C540.465 242.468 539.523 242.582 538.779 242.81C538.035 243.038 537.477 243.398 537.105 243.89C536.733 244.37 536.547 244.988 536.547 245.744C536.547 246.5 536.745 247.124 537.141 247.616C537.537 248.096 538.107 248.456 538.851 248.696C539.607 248.924 540.525 249.038 541.605 249.038ZM540.327 252.638V238.94H543.009V252.638H540.327ZM557.809 252.296C556.813 252.296 555.889 252.134 555.037 251.81C554.197 251.486 553.465 251.03 552.841 250.442C552.229 249.854 551.749 249.164 551.401 248.372C551.065 247.58 550.897 246.716 550.897 245.78C550.897 244.844 551.065 243.98 551.401 243.188C551.749 242.396 552.235 241.706 552.859 241.118C553.483 240.53 554.215 240.074 555.055 239.75C555.895 239.426 556.807 239.264 557.791 239.264C558.787 239.264 559.699 239.426 560.527 239.75C561.367 240.074 562.093 240.53 562.705 241.118C563.329 241.706 563.815 242.396 564.163 243.188C564.511 243.968 564.685 244.832 564.685 245.78C564.685 246.716 564.511 247.586 564.163 248.39C563.815 249.182 563.329 249.872 562.705 250.46C562.093 251.036 561.367 251.486 560.527 251.81C559.699 252.134 558.793 252.296 557.809 252.296ZM557.791 249.812C558.355 249.812 558.871 249.716 559.339 249.524C559.819 249.332 560.239 249.056 560.599 248.696C560.959 248.336 561.235 247.91 561.427 247.418C561.631 246.926 561.733 246.38 561.733 245.78C561.733 245.18 561.631 244.634 561.427 244.142C561.235 243.65 560.959 243.224 560.599 242.864C560.251 242.504 559.837 242.228 559.357 242.036C558.877 241.844 558.355 241.748 557.791 241.748C557.227 241.748 556.705 241.844 556.225 242.036C555.757 242.228 555.343 242.504 554.983 242.864C554.623 243.224 554.341 243.65 554.137 244.142C553.945 244.634 553.849 245.18 553.849 245.78C553.849 246.368 553.945 246.914 554.137 247.418C554.341 247.91 554.617 248.336 554.965 248.696C555.325 249.056 555.745 249.332 556.225 249.524C556.705 249.716 557.227 249.812 557.791 249.812Z" fill="#07074A"/>
<path d="M412.351 415.042C411.379 415.042 410.473 414.886 409.633 414.574C408.805 414.25 408.085 413.794 407.473 413.206C406.861 412.618 406.381 411.928 406.033 411.136C405.697 410.344 405.529 409.474 405.529 408.526C405.529 407.578 405.697 406.708 406.033 405.916C406.381 405.124 406.861 404.434 407.473 403.846C408.097 403.258 408.823 402.808 409.651 402.496C410.479 402.172 411.385 402.01 412.369 402.01C413.461 402.01 414.445 402.202 415.321 402.586C416.209 402.958 416.953 403.51 417.553 404.242L415.681 405.97C415.249 405.478 414.769 405.112 414.241 404.872C413.713 404.62 413.137 404.494 412.513 404.494C411.925 404.494 411.385 404.59 410.893 404.782C410.401 404.974 409.975 405.25 409.615 405.61C409.255 405.97 408.973 406.396 408.769 406.888C408.577 407.38 408.481 407.926 408.481 408.526C408.481 409.126 408.577 409.672 408.769 410.164C408.973 410.656 409.255 411.082 409.615 411.442C409.975 411.802 410.401 412.078 410.893 412.27C411.385 412.462 411.925 412.558 412.513 412.558C413.137 412.558 413.713 412.438 414.241 412.198C414.769 411.946 415.249 411.568 415.681 411.064L417.553 412.792C416.953 413.524 416.209 414.082 415.321 414.466C414.445 414.85 413.455 415.042 412.351 415.042ZM418.32 413.71L419.22 411.622C419.76 411.946 420.336 412.198 420.948 412.378C421.572 412.546 422.178 412.642 422.766 412.666C423.366 412.678 423.906 412.618 424.386 412.486C424.878 412.354 425.268 412.156 425.556 411.892C425.856 411.628 426.006 411.292 426.006 410.884C426.006 410.404 425.808 410.05 425.412 409.822C425.016 409.582 424.488 409.462 423.828 409.462H420.75V407.266H423.612C424.2 407.266 424.656 407.146 424.98 406.906C425.316 406.666 425.484 406.336 425.484 405.916C425.484 405.556 425.364 405.268 425.124 405.052C424.884 404.824 424.554 404.656 424.134 404.548C423.726 404.44 423.264 404.392 422.748 404.404C422.232 404.416 421.698 404.5 421.146 404.656C420.594 404.812 420.066 405.028 419.562 405.304L418.68 403.054C419.496 402.634 420.354 402.346 421.254 402.19C422.166 402.022 423.042 401.98 423.882 402.064C424.734 402.136 425.502 402.328 426.186 402.64C426.87 402.94 427.416 403.336 427.824 403.828C428.232 404.32 428.436 404.902 428.436 405.574C428.436 406.174 428.28 406.708 427.968 407.176C427.656 407.644 427.218 408.004 426.654 408.256C426.102 408.508 425.466 408.634 424.746 408.634L424.818 407.986C425.658 407.986 426.384 408.13 426.996 408.418C427.62 408.694 428.1 409.084 428.436 409.588C428.784 410.08 428.958 410.65 428.958 411.298C428.958 411.898 428.796 412.438 428.472 412.918C428.16 413.386 427.728 413.782 427.176 414.106C426.624 414.43 425.994 414.67 425.286 414.826C424.578 414.982 423.822 415.048 423.018 415.024C422.226 415 421.428 414.886 420.624 414.682C419.82 414.466 419.052 414.142 418.32 413.71ZM437.926 414.034C436.294 414.034 434.908 413.818 433.768 413.386C432.64 412.954 431.782 412.33 431.194 411.514C430.606 410.686 430.312 409.678 430.312 408.49C430.312 407.302 430.606 406.3 431.194 405.484C431.782 404.656 432.64 404.026 433.768 403.594C434.908 403.162 436.294 402.946 437.926 402.946C437.95 402.946 438.016 402.946 438.124 402.946C438.244 402.946 438.358 402.946 438.466 402.946C438.586 402.946 438.652 402.946 438.664 402.946C440.284 402.946 441.652 403.162 442.768 403.594C443.896 404.026 444.748 404.656 445.324 405.484C445.9 406.312 446.188 407.314 446.188 408.49C446.188 409.654 445.9 410.656 445.324 411.496C444.76 412.324 443.926 412.954 442.822 413.386C441.73 413.818 440.392 414.034 438.808 414.034C438.772 414.034 438.688 414.034 438.556 414.034C438.424 414.034 438.292 414.034 438.16 414.034C438.04 414.034 437.962 414.034 437.926 414.034ZM438.196 411.784C438.232 411.784 438.28 411.784 438.34 411.784C438.4 411.784 438.442 411.784 438.466 411.784C439.57 411.784 440.482 411.664 441.202 411.424C441.934 411.172 442.48 410.806 442.84 410.326C443.2 409.834 443.38 409.216 443.38 408.472C443.38 407.728 443.194 407.116 442.822 406.636C442.45 406.156 441.904 405.802 441.184 405.574C440.476 405.334 439.582 405.214 438.502 405.214C438.478 405.214 438.43 405.214 438.358 405.214C438.298 405.214 438.244 405.214 438.196 405.214C437.056 405.214 436.114 405.328 435.37 405.556C434.626 405.784 434.068 406.144 433.696 406.636C433.324 407.116 433.138 407.734 433.138 408.49C433.138 409.246 433.336 409.87 433.732 410.362C434.128 410.842 434.698 411.202 435.442 411.442C436.198 411.67 437.116 411.784 438.196 411.784ZM436.918 415.384V401.686H439.6V415.384H436.918ZM454.4 415.042C453.404 415.042 452.48 414.88 451.628 414.556C450.788 414.232 450.056 413.776 449.432 413.188C448.82 412.6 448.34 411.91 447.992 411.118C447.656 410.326 447.488 409.462 447.488 408.526C447.488 407.59 447.656 406.726 447.992 405.934C448.34 405.142 448.826 404.452 449.45 403.864C450.074 403.276 450.806 402.82 451.646 402.496C452.486 402.172 453.398 402.01 454.382 402.01C455.378 402.01 456.29 402.172 457.118 402.496C457.958 402.82 458.684 403.276 459.296 403.864C459.92 404.452 460.406 405.142 460.754 405.934C461.102 406.714 461.276 407.578 461.276 408.526C461.276 409.462 461.102 410.332 460.754 411.136C460.406 411.928 459.92 412.618 459.296 413.206C458.684 413.782 457.958 414.232 457.118 414.556C456.29 414.88 455.384 415.042 454.4 415.042ZM454.382 412.558C454.946 412.558 455.462 412.462 455.93 412.27C456.41 412.078 456.83 411.802 457.19 411.442C457.55 411.082 457.826 410.656 458.018 410.164C458.222 409.672 458.324 409.126 458.324 408.526C458.324 407.926 458.222 407.38 458.018 406.888C457.826 406.396 457.55 405.97 457.19 405.61C456.842 405.25 456.428 404.974 455.948 404.782C455.468 404.59 454.946 404.494 454.382 404.494C453.818 404.494 453.296 404.59 452.816 404.782C452.348 404.974 451.934 405.25 451.574 405.61C451.214 405.97 450.932 406.396 450.728 406.888C450.536 407.38 450.44 407.926 450.44 408.526C450.44 409.114 450.536 409.66 450.728 410.164C450.932 410.656 451.208 411.082 451.556 411.442C451.916 411.802 452.336 412.078 452.816 412.27C453.296 412.462 453.818 412.558 454.382 412.558Z" fill="#07074A"/>
<path d="M261.465 437.994C260.493 437.994 259.587 437.838 258.747 437.526C257.919 437.202 257.199 436.746 256.587 436.158C255.975 435.57 255.495 434.88 255.147 434.088C254.811 433.296 254.643 432.426 254.643 431.478C254.643 430.53 254.811 429.66 255.147 428.868C255.495 428.076 255.975 427.386 256.587 426.798C257.211 426.21 257.937 425.76 258.765 425.448C259.593 425.124 260.499 424.962 261.483 424.962C262.575 424.962 263.559 425.154 264.435 425.538C265.323 425.91 266.067 426.462 266.667 427.194L264.795 428.922C264.363 428.43 263.883 428.064 263.355 427.824C262.827 427.572 262.251 427.446 261.627 427.446C261.039 427.446 260.499 427.542 260.007 427.734C259.515 427.926 259.089 428.202 258.729 428.562C258.369 428.922 258.087 429.348 257.883 429.84C257.691 430.332 257.595 430.878 257.595 431.478C257.595 432.078 257.691 432.624 257.883 433.116C258.087 433.608 258.369 434.034 258.729 434.394C259.089 434.754 259.515 435.03 260.007 435.222C260.499 435.414 261.039 435.51 261.627 435.51C262.251 435.51 262.827 435.39 263.355 435.15C263.883 434.898 264.363 434.52 264.795 434.016L266.667 435.744C266.067 436.476 265.323 437.034 264.435 437.418C263.559 437.802 262.569 437.994 261.465 437.994ZM274.964 436.986C273.332 436.986 271.946 436.77 270.806 436.338C269.678 435.906 268.82 435.282 268.232 434.466C267.644 433.638 267.35 432.63 267.35 431.442C267.35 430.254 267.644 429.252 268.232 428.436C268.82 427.608 269.678 426.978 270.806 426.546C271.946 426.114 273.332 425.898 274.964 425.898C274.988 425.898 275.054 425.898 275.162 425.898C275.282 425.898 275.396 425.898 275.504 425.898C275.624 425.898 275.69 425.898 275.702 425.898C277.322 425.898 278.69 426.114 279.806 426.546C280.934 426.978 281.786 427.608 282.362 428.436C282.938 429.264 283.226 430.266 283.226 431.442C283.226 432.606 282.938 433.608 282.362 434.448C281.798 435.276 280.964 435.906 279.86 436.338C278.768 436.77 277.43 436.986 275.846 436.986C275.81 436.986 275.726 436.986 275.594 436.986C275.462 436.986 275.33 436.986 275.198 436.986C275.078 436.986 275 436.986 274.964 436.986ZM275.234 434.736C275.27 434.736 275.318 434.736 275.378 434.736C275.438 434.736 275.48 434.736 275.504 434.736C276.608 434.736 277.52 434.616 278.24 434.376C278.972 434.124 279.518 433.758 279.878 433.278C280.238 432.786 280.418 432.168 280.418 431.424C280.418 430.68 280.232 430.068 279.86 429.588C279.488 429.108 278.942 428.754 278.222 428.526C277.514 428.286 276.62 428.166 275.54 428.166C275.516 428.166 275.468 428.166 275.396 428.166C275.336 428.166 275.282 428.166 275.234 428.166C274.094 428.166 273.152 428.28 272.408 428.508C271.664 428.736 271.106 429.096 270.734 429.588C270.362 430.068 270.176 430.686 270.176 431.442C270.176 432.198 270.374 432.822 270.77 433.314C271.166 433.794 271.736 434.154 272.48 434.394C273.236 434.622 274.154 434.736 275.234 434.736ZM273.956 438.336V424.638H276.638V438.336H273.956ZM291.438 437.994C290.442 437.994 289.518 437.832 288.666 437.508C287.826 437.184 287.094 436.728 286.47 436.14C285.858 435.552 285.378 434.862 285.03 434.07C284.694 433.278 284.526 432.414 284.526 431.478C284.526 430.542 284.694 429.678 285.03 428.886C285.378 428.094 285.864 427.404 286.488 426.816C287.112 426.228 287.844 425.772 288.684 425.448C289.524 425.124 290.436 424.962 291.42 424.962C292.416 424.962 293.328 425.124 294.156 425.448C294.996 425.772 295.722 426.228 296.334 426.816C296.958 427.404 297.444 428.094 297.792 428.886C298.14 429.666 298.314 430.53 298.314 431.478C298.314 432.414 298.14 433.284 297.792 434.088C297.444 434.88 296.958 435.57 296.334 436.158C295.722 436.734 294.996 437.184 294.156 437.508C293.328 437.832 292.422 437.994 291.438 437.994ZM291.42 435.51C291.984 435.51 292.5 435.414 292.968 435.222C293.448 435.03 293.868 434.754 294.228 434.394C294.588 434.034 294.864 433.608 295.056 433.116C295.26 432.624 295.362 432.078 295.362 431.478C295.362 430.878 295.26 430.332 295.056 429.84C294.864 429.348 294.588 428.922 294.228 428.562C293.88 428.202 293.466 427.926 292.986 427.734C292.506 427.542 291.984 427.446 291.42 427.446C290.856 427.446 290.334 427.542 289.854 427.734C289.386 427.926 288.972 428.202 288.612 428.562C288.252 428.922 287.97 429.348 287.766 429.84C287.574 430.332 287.478 430.878 287.478 431.478C287.478 432.066 287.574 432.612 287.766 433.116C287.97 433.608 288.246 434.034 288.594 434.394C288.954 434.754 289.374 435.03 289.854 435.222C290.334 435.414 290.856 435.51 291.42 435.51Z" fill="#07074A"/>
<path d="M110.168 395.063C110.864 395.267 111.446 395.327 111.914 395.243C112.394 395.147 112.82 394.811 113.192 394.235L113.804 393.317L114.074 393.011L118.25 384.839H121.112L115.748 394.811C115.268 395.711 114.698 396.401 114.038 396.881C113.39 397.361 112.676 397.631 111.896 397.691C111.116 397.763 110.306 397.625 109.466 397.277L110.168 395.063ZM114.02 395.441L108.332 384.839H111.446L115.622 393.299L114.02 395.441ZM129.017 396.647C127.385 396.647 125.999 396.431 124.859 395.999C123.731 395.567 122.873 394.943 122.285 394.127C121.697 393.299 121.403 392.291 121.403 391.103C121.403 389.915 121.697 388.913 122.285 388.097C122.873 387.269 123.731 386.639 124.859 386.207C125.999 385.775 127.385 385.559 129.017 385.559C129.041 385.559 129.107 385.559 129.215 385.559C129.335 385.559 129.449 385.559 129.557 385.559C129.677 385.559 129.743 385.559 129.755 385.559C131.375 385.559 132.743 385.775 133.859 386.207C134.987 386.639 135.839 387.269 136.415 388.097C136.991 388.925 137.279 389.927 137.279 391.103C137.279 392.267 136.991 393.269 136.415 394.109C135.851 394.937 135.017 395.567 133.913 395.999C132.821 396.431 131.483 396.647 129.899 396.647C129.863 396.647 129.779 396.647 129.647 396.647C129.515 396.647 129.383 396.647 129.251 396.647C129.131 396.647 129.053 396.647 129.017 396.647ZM129.287 394.397C129.323 394.397 129.371 394.397 129.431 394.397C129.491 394.397 129.533 394.397 129.557 394.397C130.661 394.397 131.573 394.277 132.293 394.037C133.025 393.785 133.571 393.419 133.931 392.939C134.291 392.447 134.471 391.829 134.471 391.085C134.471 390.341 134.285 389.729 133.913 389.249C133.541 388.769 132.995 388.415 132.275 388.187C131.567 387.947 130.673 387.827 129.593 387.827C129.569 387.827 129.521 387.827 129.449 387.827C129.389 387.827 129.335 387.827 129.287 387.827C128.147 387.827 127.205 387.941 126.461 388.169C125.717 388.397 125.159 388.757 124.787 389.249C124.415 389.729 124.229 390.347 124.229 391.103C124.229 391.859 124.427 392.483 124.823 392.975C125.219 393.455 125.789 393.815 126.533 394.055C127.289 394.283 128.207 394.397 129.287 394.397ZM128.009 397.997V384.299H130.691V397.997H128.009ZM145.491 397.655C144.495 397.655 143.571 397.493 142.719 397.169C141.879 396.845 141.147 396.389 140.523 395.801C139.911 395.213 139.431 394.523 139.083 393.731C138.747 392.939 138.579 392.075 138.579 391.139C138.579 390.203 138.747 389.339 139.083 388.547C139.431 387.755 139.917 387.065 140.541 386.477C141.165 385.889 141.897 385.433 142.737 385.109C143.577 384.785 144.489 384.623 145.473 384.623C146.469 384.623 147.381 384.785 148.209 385.109C149.049 385.433 149.775 385.889 150.387 386.477C151.011 387.065 151.497 387.755 151.845 388.547C152.193 389.327 152.367 390.191 152.367 391.139C152.367 392.075 152.193 392.945 151.845 393.749C151.497 394.541 151.011 395.231 150.387 395.819C149.775 396.395 149.049 396.845 148.209 397.169C147.381 397.493 146.475 397.655 145.491 397.655ZM145.473 395.171C146.037 395.171 146.553 395.075 147.021 394.883C147.501 394.691 147.921 394.415 148.281 394.055C148.641 393.695 148.917 393.269 149.109 392.777C149.313 392.285 149.415 391.739 149.415 391.139C149.415 390.539 149.313 389.993 149.109 389.501C148.917 389.009 148.641 388.583 148.281 388.223C147.933 387.863 147.519 387.587 147.039 387.395C146.559 387.203 146.037 387.107 145.473 387.107C144.909 387.107 144.387 387.203 143.907 387.395C143.439 387.587 143.025 387.863 142.665 388.223C142.305 388.583 142.023 389.009 141.819 389.501C141.627 389.993 141.531 390.539 141.531 391.139C141.531 391.727 141.627 392.273 141.819 392.777C142.023 393.269 142.299 393.695 142.647 394.055C143.007 394.415 143.427 394.691 143.907 394.883C144.387 395.075 144.909 395.171 145.473 395.171Z" fill="#07074A"/>
<path d="M33.5133 324.412V311.812H36.4113V316.762H39.6693V319.282H36.4113V324.412H33.5133ZM44.6373 324.628C43.6773 324.628 42.7893 324.466 41.9733 324.142C41.1693 323.818 40.4673 323.368 39.8673 322.792C39.2673 322.204 38.7993 321.514 38.4633 320.722C38.1393 319.918 37.9773 319.048 37.9773 318.112C37.9773 317.164 38.1393 316.294 38.4633 315.502C38.7993 314.71 39.2673 314.026 39.8673 313.45C40.4673 312.862 41.1693 312.406 41.9733 312.082C42.7893 311.758 43.6773 311.596 44.6373 311.596C45.5853 311.596 46.4673 311.758 47.2833 312.082C48.0993 312.406 48.8013 312.862 49.3893 313.45C49.9893 314.026 50.4573 314.716 50.7933 315.52C51.1293 316.312 51.2973 317.176 51.2973 318.112C51.2973 319.048 51.1293 319.918 50.7933 320.722C50.4573 321.514 49.9893 322.204 49.3893 322.792C48.8013 323.368 48.0993 323.818 47.2833 324.142C46.4673 324.466 45.5853 324.628 44.6373 324.628ZM44.6373 322.144C45.1653 322.144 45.6513 322.048 46.0953 321.856C46.5393 321.664 46.9293 321.394 47.2653 321.046C47.6013 320.686 47.8653 320.26 48.0573 319.768C48.2493 319.276 48.3453 318.724 48.3453 318.112C48.3453 317.5 48.2493 316.948 48.0573 316.456C47.8653 315.964 47.6013 315.544 47.2653 315.196C46.9293 314.836 46.5393 314.56 46.0953 314.368C45.6513 314.176 45.1653 314.08 44.6373 314.08C44.1213 314.08 43.6353 314.176 43.1793 314.368C42.7353 314.56 42.3453 314.836 42.0093 315.196C41.6733 315.544 41.4093 315.964 41.2173 316.456C41.0253 316.948 40.9293 317.5 40.9293 318.112C40.9293 318.724 41.0253 319.276 41.2173 319.768C41.4093 320.26 41.6733 320.686 42.0093 321.046C42.3453 321.394 42.7353 321.664 43.1793 321.856C43.6353 322.048 44.1213 322.144 44.6373 322.144ZM60.2299 323.62C58.5979 323.62 57.2119 323.404 56.0719 322.972C54.9439 322.54 54.0859 321.916 53.4979 321.1C52.9099 320.272 52.6159 319.264 52.6159 318.076C52.6159 316.888 52.9099 315.886 53.4979 315.07C54.0859 314.242 54.9439 313.612 56.0719 313.18C57.2119 312.748 58.5979 312.532 60.2299 312.532C60.2539 312.532 60.3199 312.532 60.4279 312.532C60.5479 312.532 60.6619 312.532 60.7699 312.532C60.8899 312.532 60.9559 312.532 60.9679 312.532C62.5879 312.532 63.9559 312.748 65.0719 313.18C66.1999 313.612 67.0519 314.242 67.6279 315.07C68.2039 315.898 68.4919 316.9 68.4919 318.076C68.4919 319.24 68.2039 320.242 67.6279 321.082C67.0639 321.91 66.2299 322.54 65.1259 322.972C64.0339 323.404 62.6959 323.62 61.1119 323.62C61.0759 323.62 60.9919 323.62 60.8599 323.62C60.7279 323.62 60.5959 323.62 60.4639 323.62C60.3439 323.62 60.2659 323.62 60.2299 323.62ZM60.4999 321.37C60.5359 321.37 60.5839 321.37 60.6439 321.37C60.7039 321.37 60.7459 321.37 60.7699 321.37C61.8739 321.37 62.7859 321.25 63.5059 321.01C64.2379 320.758 64.7839 320.392 65.1439 319.912C65.5039 319.42 65.6839 318.802 65.6839 318.058C65.6839 317.314 65.4979 316.702 65.1259 316.222C64.7539 315.742 64.2079 315.388 63.4879 315.16C62.7799 314.92 61.8859 314.8 60.8059 314.8C60.7819 314.8 60.7339 314.8 60.6619 314.8C60.6019 314.8 60.5479 314.8 60.4999 314.8C59.3599 314.8 58.4179 314.914 57.6739 315.142C56.9299 315.37 56.3719 315.73 55.9999 316.222C55.6279 316.702 55.4419 317.32 55.4419 318.076C55.4419 318.832 55.6399 319.456 56.0359 319.948C56.4319 320.428 57.0019 320.788 57.7459 321.028C58.5019 321.256 59.4199 321.37 60.4999 321.37ZM59.2219 324.97V311.272H61.9039V324.97H59.2219ZM76.7034 324.628C75.7074 324.628 74.7834 324.466 73.9314 324.142C73.0914 323.818 72.3594 323.362 71.7354 322.774C71.1234 322.186 70.6434 321.496 70.2954 320.704C69.9594 319.912 69.7914 319.048 69.7914 318.112C69.7914 317.176 69.9594 316.312 70.2954 315.52C70.6434 314.728 71.1294 314.038 71.7534 313.45C72.3774 312.862 73.1094 312.406 73.9494 312.082C74.7894 311.758 75.7014 311.596 76.6854 311.596C77.6814 311.596 78.5934 311.758 79.4214 312.082C80.2614 312.406 80.9874 312.862 81.5994 313.45C82.2234 314.038 82.7094 314.728 83.0574 315.52C83.4054 316.3 83.5794 317.164 83.5794 318.112C83.5794 319.048 83.4054 319.918 83.0574 320.722C82.7094 321.514 82.2234 322.204 81.5994 322.792C80.9874 323.368 80.2614 323.818 79.4214 324.142C78.5934 324.466 77.6874 324.628 76.7034 324.628ZM76.6854 322.144C77.2494 322.144 77.7654 322.048 78.2334 321.856C78.7134 321.664 79.1334 321.388 79.4934 321.028C79.8534 320.668 80.1294 320.242 80.3214 319.75C80.5254 319.258 80.6274 318.712 80.6274 318.112C80.6274 317.512 80.5254 316.966 80.3214 316.474C80.1294 315.982 79.8534 315.556 79.4934 315.196C79.1454 314.836 78.7314 314.56 78.2514 314.368C77.7714 314.176 77.2494 314.08 76.6854 314.08C76.1214 314.08 75.5994 314.176 75.1194 314.368C74.6514 314.56 74.2374 314.836 73.8774 315.196C73.5174 315.556 73.2354 315.982 73.0314 316.474C72.8394 316.966 72.7434 317.512 72.7434 318.112C72.7434 318.7 72.8394 319.246 73.0314 319.75C73.2354 320.242 73.5114 320.668 73.8594 321.028C74.2194 321.388 74.6394 321.664 75.1194 321.856C75.5994 322.048 76.1214 322.144 76.6854 322.144Z" fill="#07074A"/>
<path d="M8.97615 246.036C8.00415 246.036 7.09815 245.88 6.25815 245.568C5.43015 245.244 4.71015 244.788 4.09815 244.2C3.48615 243.612 3.00615 242.922 2.65815 242.13C2.32215 241.338 2.15415 240.468 2.15415 239.52C2.15415 238.572 2.32215 237.702 2.65815 236.91C3.00615 236.118 3.48615 235.428 4.09815 234.84C4.72215 234.252 5.44815 233.802 6.27615 233.49C7.10415 233.166 8.01015 233.004 8.99415 233.004C10.0861 233.004 11.0701 233.196 11.9461 233.58C12.8341 233.952 13.5781 234.504 14.1781 235.236L12.3061 236.964C11.8741 236.472 11.3941 236.106 10.8661 235.866C10.3381 235.614 9.76215 235.488 9.13815 235.488C8.55015 235.488 8.01015 235.584 7.51815 235.776C7.02615 235.968 6.60015 236.244 6.24015 236.604C5.88015 236.964 5.59815 237.39 5.39415 237.882C5.20215 238.374 5.10615 238.92 5.10615 239.52C5.10615 240.12 5.20215 240.666 5.39415 241.158C5.59815 241.65 5.88015 242.076 6.24015 242.436C6.60015 242.796 7.02615 243.072 7.51815 243.264C8.01015 243.456 8.55015 243.552 9.13815 243.552C9.76215 243.552 10.3381 243.432 10.8661 243.192C11.3941 242.94 11.8741 242.562 12.3061 242.058L14.1781 243.786C13.5781 244.518 12.8341 245.076 11.9461 245.46C11.0701 245.844 10.0801 246.036 8.97615 246.036ZM24.2327 245.82L20.3087 239.754L22.6667 238.332L27.5447 245.82H24.2327ZM16.0427 245.82V233.22H18.9407V245.82H16.0427ZM18.0947 240.744V238.314H22.4867V240.744H18.0947ZM22.9367 239.844L20.2547 239.52L24.3407 233.22H27.4187L22.9367 239.844ZM35.518 245.028C33.886 245.028 32.5 244.812 31.36 244.38C30.232 243.948 29.374 243.324 28.786 242.508C28.198 241.68 27.904 240.672 27.904 239.484C27.904 238.296 28.198 237.294 28.786 236.478C29.374 235.65 30.232 235.02 31.36 234.588C32.5 234.156 33.886 233.94 35.518 233.94C35.542 233.94 35.608 233.94 35.716 233.94C35.836 233.94 35.95 233.94 36.058 233.94C36.178 233.94 36.244 233.94 36.256 233.94C37.876 233.94 39.244 234.156 40.36 234.588C41.488 235.02 42.34 235.65 42.916 236.478C43.492 237.306 43.78 238.308 43.78 239.484C43.78 240.648 43.492 241.65 42.916 242.49C42.352 243.318 41.518 243.948 40.414 244.38C39.322 244.812 37.984 245.028 36.4 245.028C36.364 245.028 36.28 245.028 36.148 245.028C36.016 245.028 35.884 245.028 35.752 245.028C35.632 245.028 35.554 245.028 35.518 245.028ZM35.788 242.778C35.824 242.778 35.872 242.778 35.932 242.778C35.992 242.778 36.034 242.778 36.058 242.778C37.162 242.778 38.074 242.658 38.794 242.418C39.526 242.166 40.072 241.8 40.432 241.32C40.792 240.828 40.972 240.21 40.972 239.466C40.972 238.722 40.786 238.11 40.414 237.63C40.042 237.15 39.496 236.796 38.776 236.568C38.068 236.328 37.174 236.208 36.094 236.208C36.07 236.208 36.022 236.208 35.95 236.208C35.89 236.208 35.836 236.208 35.788 236.208C34.648 236.208 33.706 236.322 32.962 236.55C32.218 236.778 31.66 237.138 31.288 237.63C30.916 238.11 30.73 238.728 30.73 239.484C30.73 240.24 30.928 240.864 31.324 241.356C31.72 241.836 32.29 242.196 33.034 242.436C33.79 242.664 34.708 242.778 35.788 242.778ZM34.51 246.378V232.68H37.192V246.378H34.51ZM51.9915 246.036C50.9955 246.036 50.0715 245.874 49.2195 245.55C48.3795 245.226 47.6475 244.77 47.0235 244.182C46.4115 243.594 45.9315 242.904 45.5835 242.112C45.2475 241.32 45.0795 240.456 45.0795 239.52C45.0795 238.584 45.2475 237.72 45.5835 236.928C45.9315 236.136 46.4175 235.446 47.0415 234.858C47.6655 234.27 48.3975 233.814 49.2375 233.49C50.0775 233.166 50.9895 233.004 51.9735 233.004C52.9695 233.004 53.8815 233.166 54.7095 233.49C55.5495 233.814 56.2755 234.27 56.8875 234.858C57.5115 235.446 57.9975 236.136 58.3455 236.928C58.6935 237.708 58.8675 238.572 58.8675 239.52C58.8675 240.456 58.6935 241.326 58.3455 242.13C57.9975 242.922 57.5115 243.612 56.8875 244.2C56.2755 244.776 55.5495 245.226 54.7095 245.55C53.8815 245.874 52.9755 246.036 51.9915 246.036ZM51.9735 243.552C52.5375 243.552 53.0535 243.456 53.5215 243.264C54.0015 243.072 54.4215 242.796 54.7815 242.436C55.1415 242.076 55.4175 241.65 55.6095 241.158C55.8135 240.666 55.9155 240.12 55.9155 239.52C55.9155 238.92 55.8135 238.374 55.6095 237.882C55.4175 237.39 55.1415 236.964 54.7815 236.604C54.4335 236.244 54.0195 235.968 53.5395 235.776C53.0595 235.584 52.5375 235.488 51.9735 235.488C51.4095 235.488 50.8875 235.584 50.4075 235.776C49.9395 235.968 49.5255 236.244 49.1655 236.604C48.8055 236.964 48.5235 237.39 48.3195 237.882C48.1275 238.374 48.0315 238.92 48.0315 239.52C48.0315 240.108 48.1275 240.654 48.3195 241.158C48.5235 241.65 48.7995 242.076 49.1475 242.436C49.5075 242.796 49.9275 243.072 50.4075 243.264C50.8875 243.456 51.4095 243.552 51.9735 243.552Z" fill="#07074A"/>
<path d="M50.6246 41.3423V28.7423H62.1086V41.3423H59.2106V30.4523L59.8766 31.1183H52.8566L53.5226 30.4523V41.3423H50.6246ZM71.892 40.5503C70.26 40.5503 68.874 40.3343 67.734 39.9023C66.606 39.4703 65.748 38.8463 65.16 38.0303C64.572 37.2023 64.278 36.1943 64.278 35.0063C64.278 33.8183 64.572 32.8163 65.16 32.0003C65.748 31.1723 66.606 30.5423 67.734 30.1103C68.874 29.6783 70.26 29.4623 71.892 29.4623C71.916 29.4623 71.982 29.4623 72.09 29.4623C72.21 29.4623 72.324 29.4623 72.432 29.4623C72.552 29.4623 72.618 29.4623 72.63 29.4623C74.25 29.4623 75.618 29.6783 76.734 30.1103C77.862 30.5423 78.714 31.1723 79.29 32.0003C79.866 32.8283 80.154 33.8303 80.154 35.0063C80.154 36.1703 79.866 37.1723 79.29 38.0123C78.726 38.8403 77.892 39.4703 76.788 39.9023C75.696 40.3343 74.358 40.5503 72.774 40.5503C72.738 40.5503 72.654 40.5503 72.522 40.5503C72.39 40.5503 72.258 40.5503 72.126 40.5503C72.006 40.5503 71.928 40.5503 71.892 40.5503ZM72.162 38.3003C72.198 38.3003 72.246 38.3003 72.306 38.3003C72.366 38.3003 72.408 38.3003 72.432 38.3003C73.536 38.3003 74.448 38.1803 75.168 37.9403C75.9 37.6883 76.446 37.3223 76.806 36.8423C77.166 36.3503 77.346 35.7323 77.346 34.9883C77.346 34.2443 77.16 33.6323 76.788 33.1523C76.416 32.6723 75.87 32.3183 75.15 32.0903C74.442 31.8503 73.548 31.7303 72.468 31.7303C72.444 31.7303 72.396 31.7303 72.324 31.7303C72.264 31.7303 72.21 31.7303 72.162 31.7303C71.022 31.7303 70.08 31.8443 69.336 32.0723C68.592 32.3003 68.034 32.6603 67.662 33.1523C67.29 33.6323 67.104 34.2503 67.104 35.0063C67.104 35.7623 67.302 36.3863 67.698 36.8783C68.094 37.3583 68.664 37.7183 69.408 37.9583C70.164 38.1863 71.082 38.3003 72.162 38.3003ZM70.884 41.9003V28.2023H73.566V41.9003H70.884ZM88.3655 41.5583C87.3695 41.5583 86.4455 41.3963 85.5935 41.0723C84.7535 40.7483 84.0215 40.2923 83.3975 39.7043C82.7855 39.1163 82.3055 38.4263 81.9575 37.6343C81.6215 36.8423 81.4535 35.9783 81.4535 35.0423C81.4535 34.1063 81.6215 33.2423 81.9575 32.4503C82.3055 31.6583 82.7915 30.9683 83.4155 30.3803C84.0395 29.7923 84.7715 29.3363 85.6115 29.0123C86.4515 28.6883 87.3635 28.5263 88.3475 28.5263C89.3435 28.5263 90.2555 28.6883 91.0835 29.0123C91.9235 29.3363 92.6495 29.7923 93.2615 30.3803C93.8855 30.9683 94.3715 31.6583 94.7195 32.4503C95.0675 33.2303 95.2415 34.0943 95.2415 35.0423C95.2415 35.9783 95.0675 36.8483 94.7195 37.6523C94.3715 38.4443 93.8855 39.1343 93.2615 39.7223C92.6495 40.2983 91.9235 40.7483 91.0835 41.0723C90.2555 41.3963 89.3495 41.5583 88.3655 41.5583ZM88.3475 39.0743C88.9115 39.0743 89.4275 38.9783 89.8955 38.7863C90.3755 38.5943 90.7955 38.3183 91.1555 37.9583C91.5155 37.5983 91.7915 37.1723 91.9835 36.6803C92.1875 36.1883 92.2895 35.6423 92.2895 35.0423C92.2895 34.4423 92.1875 33.8963 91.9835 33.4043C91.7915 32.9123 91.5155 32.4863 91.1555 32.1263C90.8075 31.7663 90.3935 31.4903 89.9135 31.2983C89.4335 31.1063 88.9115 31.0103 88.3475 31.0103C87.7835 31.0103 87.2615 31.1063 86.7815 31.2983C86.3135 31.4903 85.8995 31.7663 85.5395 32.1263C85.1795 32.4863 84.8975 32.9123 84.6935 33.4043C84.5015 33.8963 84.4055 34.4423 84.4055 35.0423C84.4055 35.6303 84.5015 36.1763 84.6935 36.6803C84.8975 37.1723 85.1735 37.5983 85.5215 37.9583C85.8815 38.3183 86.3015 38.5943 86.7815 38.7863C87.2615 38.9783 87.7835 39.0743 88.3475 39.0743Z" fill="#07074A"/>
</svg>
