<svg width="247" height="266" viewBox="0 0 247 266" fill="none" xmlns="http://www.w3.org/2000/svg">
<g clip-path="url(#clip0_2948_3548)">
<mask id="path-1-inside-1_2948_3548" fill="white">
<path fill-rule="evenodd" clip-rule="evenodd" d="M0.600433 181.554C0.478317 180.307 0.261215 177.705 0.261215 174.126C0.261215 168.135 0.885361 159.42 3.54469 149.877L17.574 151.68L52.4575 156.153L53.3801 156.275L55.5238 156.546L59.2686 157.034L63.339 157.549L244.947 180.836C243.509 186.583 241.637 192.303 239.262 197.969C237.973 201.019 236.589 203.987 235.083 206.874C233.928 209.077 232.721 211.239 231.454 213.342C231.273 213.658 231.09 213.974 230.905 214.289C229.711 216.322 228.45 218.315 227.133 220.253C198.926 261.866 143.948 280.761 98.0878 273.455C95.1436 272.994 92.1857 272.398 89.255 271.693C83.5972 270.324 77.9664 268.534 72.4578 266.339H72.4442C51.2509 257.894 31.7808 243.54 18.362 225.255C18.3145 225.187 18.267 225.122 18.2195 225.058C18.172 224.994 18.1246 224.929 18.0771 224.861C13.9795 219.236 10.4654 213.218 7.64326 206.902C5.94727 203.106 4.50905 199.203 3.34221 195.19C3.3354 195.17 3.32861 195.146 3.32182 195.122C3.31505 195.099 3.30827 195.075 3.3015 195.055C2.47404 192.168 1.78223 189.228 1.25311 186.233L1.23813 186.231C1.22456 186.136 1.211 186.055 1.19742 185.96C1.19064 185.905 1.18047 185.848 1.1703 185.79C1.16013 185.733 1.14995 185.675 1.14316 185.621C0.926071 184.279 0.736115 182.91 0.600433 181.554Z"/>
</mask>
<path fill-rule="evenodd" clip-rule="evenodd" d="M0.600433 181.554C0.478317 180.307 0.261215 177.705 0.261215 174.126C0.261215 168.135 0.885361 159.42 3.54469 149.877L17.574 151.68L52.4575 156.153L53.3801 156.275L55.5238 156.546L59.2686 157.034L63.339 157.549L244.947 180.836C243.509 186.583 241.637 192.303 239.262 197.969C237.973 201.019 236.589 203.987 235.083 206.874C233.928 209.077 232.721 211.239 231.454 213.342C231.273 213.658 231.09 213.974 230.905 214.289C229.711 216.322 228.45 218.315 227.133 220.253C198.926 261.866 143.948 280.761 98.0878 273.455C95.1436 272.994 92.1857 272.398 89.255 271.693C83.5972 270.324 77.9664 268.534 72.4578 266.339H72.4442C51.2509 257.894 31.7808 243.54 18.362 225.255C18.3145 225.187 18.267 225.122 18.2195 225.058C18.172 224.994 18.1246 224.929 18.0771 224.861C13.9795 219.236 10.4654 213.218 7.64326 206.902C5.94727 203.106 4.50905 199.203 3.34221 195.19C3.3354 195.17 3.32861 195.146 3.32182 195.122C3.31505 195.099 3.30827 195.075 3.3015 195.055C2.47404 192.168 1.78223 189.228 1.25311 186.233L1.23813 186.231C1.22456 186.136 1.211 186.055 1.19742 185.96C1.19064 185.905 1.18047 185.848 1.1703 185.79C1.16013 185.733 1.14995 185.675 1.14316 185.621C0.926071 184.279 0.736115 182.91 0.600433 181.554Z" fill="white"/>
<path d="M0.600433 181.554L-0.276474 181.642L-0.276672 181.64L0.600433 181.554ZM3.54469 149.877L2.69576 149.641L2.90051 148.906L3.65701 149.003L3.54469 149.877ZM17.574 151.68L17.4619 152.554L17.4617 152.554L17.574 151.68ZM52.4575 156.153L52.5696 155.279L52.573 155.279L52.4575 156.153ZM53.3801 156.275L53.2695 157.149L53.2646 157.149L53.3801 156.275ZM55.5238 156.546L55.6344 155.672L55.6377 155.672L55.5238 156.546ZM59.2686 157.034L59.158 157.908L59.1548 157.908L59.2686 157.034ZM63.339 157.549L63.4497 156.675L63.4511 156.675L63.339 157.549ZM244.947 180.836L245.059 179.962L246.043 180.088L245.802 181.05L244.947 180.836ZM239.262 197.969L240.075 198.31L240.074 198.312L239.262 197.969ZM235.083 206.874L235.865 207.282L235.864 207.284L235.083 206.874ZM231.454 213.342L230.69 212.904L230.694 212.895L230.699 212.887L231.454 213.342ZM230.905 214.289L231.666 214.735L231.665 214.735L230.905 214.289ZM227.133 220.253L226.404 219.758L226.404 219.758L227.133 220.253ZM98.0878 273.455L98.2241 272.584L98.2265 272.584L98.0878 273.455ZM89.255 271.693L89.049 272.55L89.0478 272.549L89.255 271.693ZM72.4578 266.339V265.457H72.627L72.7841 265.52L72.4578 266.339ZM72.4442 266.339V267.22H72.2751L72.118 267.157L72.4442 266.339ZM18.362 225.255L17.6515 225.776L17.6458 225.768L17.6403 225.76L18.362 225.255ZM18.2195 225.058L17.5102 225.581L17.5102 225.581L18.2195 225.058ZM18.0771 224.861L18.7894 224.343L18.7942 224.349L18.7988 224.356L18.0771 224.861ZM7.64326 206.902L8.44788 206.542L8.44791 206.542L7.64326 206.902ZM3.34221 195.19L4.17809 194.911L4.18359 194.928L4.18845 194.944L3.34221 195.19ZM3.32182 195.122L4.16911 194.88L4.1692 194.88L3.32182 195.122ZM3.3015 195.055L2.46556 195.334L2.45955 195.316L2.45433 195.298L3.3015 195.055ZM1.25311 186.233L1.38423 185.361L2.01074 185.456L2.12097 186.08L1.25311 186.233ZM1.23813 186.231L1.10701 187.102L0.458527 187.005L0.365707 186.355L1.23813 186.231ZM1.19742 185.96L0.325012 186.084L0.323898 186.077L0.322922 186.069L1.19742 185.96ZM1.1703 185.79L2.03816 185.637L2.03819 185.637L1.1703 185.79ZM1.14316 185.621L2.01314 185.48L2.01566 185.496L2.01762 185.511L1.14316 185.621ZM1.14252 174.126C1.14252 177.669 1.35741 180.242 1.47754 181.468L-0.276672 181.64C-0.400772 180.373 -0.620087 177.741 -0.620087 174.126H1.14252ZM4.39363 150.114C1.76109 159.56 1.14252 168.193 1.14252 174.126H-0.620087C-0.620087 168.078 0.0096283 159.279 2.69576 149.641L4.39363 150.114ZM17.4617 152.554L3.43237 150.751L3.65701 149.003L17.6864 150.806L17.4617 152.554ZM52.3454 157.027L17.4619 152.554L17.6861 150.806L52.5696 155.279L52.3454 157.027ZM53.2646 157.149L52.3419 157.027L52.573 155.279L53.4956 155.401L53.2646 157.149ZM55.4133 157.42L53.2695 157.149L53.4907 155.401L55.6344 155.672L55.4133 157.42ZM59.1548 157.908L55.41 157.42L55.6377 155.672L59.3825 156.16L59.1548 157.908ZM63.2284 158.423L59.158 157.908L59.3793 156.16L63.4497 156.675L63.2284 158.423ZM244.835 181.71L63.2269 158.423L63.4511 156.675L245.059 179.962L244.835 181.71ZM238.449 197.628C240.806 192.005 242.664 186.328 244.092 180.622L245.802 181.05C244.354 186.838 242.467 192.601 240.075 198.31L238.449 197.628ZM234.302 206.467C235.796 203.603 237.17 200.656 238.45 197.626L240.074 198.312C238.777 201.381 237.383 204.372 235.865 207.282L234.302 206.467ZM230.699 212.887C231.956 210.801 233.154 208.654 234.303 206.465L235.864 207.284C234.701 209.5 233.486 211.677 232.209 213.796L230.699 212.887ZM230.145 213.843C230.328 213.531 230.51 213.218 230.69 212.904L232.219 213.78C232.036 214.099 231.852 214.417 231.666 214.735L230.145 213.843ZM226.404 219.758C227.71 217.835 228.961 215.859 230.145 213.843L231.665 214.735C230.461 216.785 229.189 218.794 227.863 220.748L226.404 219.758ZM98.2265 272.584C143.798 279.845 198.415 261.049 226.404 219.758L227.863 220.747C199.436 262.683 144.097 281.677 97.9492 274.325L98.2265 272.584ZM89.4611 270.836C92.3708 271.536 95.3053 272.127 98.2241 272.584L97.9515 274.326C94.9818 273.861 92.0006 273.259 89.049 272.55L89.4611 270.836ZM72.7841 265.52C78.254 267.7 83.8449 269.477 89.4623 270.836L89.0478 272.549C83.3494 271.17 77.6788 269.369 72.1315 267.157L72.7841 265.52ZM72.4442 265.457H72.4578V267.22H72.4442V265.457ZM19.0725 224.733C32.3847 242.873 51.716 257.131 72.7704 265.52L72.118 267.157C50.7859 258.657 31.1769 244.206 17.6515 225.776L19.0725 224.733ZM18.9287 224.535C18.9753 224.598 19.0291 224.671 19.0837 224.749L17.6403 225.76C17.5999 225.703 17.5587 225.647 17.5102 225.581L18.9287 224.535ZM18.7988 224.356C18.8392 224.413 18.8804 224.469 18.9288 224.535L17.5102 225.581C17.4636 225.518 17.4099 225.445 17.3554 225.367L18.7988 224.356ZM8.44791 206.542C11.244 212.8 14.7267 218.765 18.7894 224.343L17.3647 225.38C13.2323 219.707 9.68684 213.636 6.83862 207.261L8.44791 206.542ZM4.18845 194.944C5.34383 198.917 6.76805 202.783 8.44788 206.542L6.83865 207.261C5.12648 203.43 3.67427 199.488 2.49597 195.436L4.18845 194.944ZM4.1692 194.88C4.17284 194.893 4.17502 194.901 4.17696 194.907C4.17888 194.914 4.17912 194.914 4.17809 194.911L2.50633 195.47C2.49214 195.427 2.47977 195.383 2.47444 195.365L4.1692 194.88ZM4.13744 194.776C4.15149 194.818 4.16374 194.861 4.16911 194.88L2.47453 195.365C2.47093 195.352 2.46873 195.345 2.46678 195.338C2.46486 195.332 2.46458 195.331 2.46556 195.334L4.13744 194.776ZM2.12097 186.08C2.64438 189.042 3.32906 191.953 4.14867 194.812L2.45433 195.298C1.61903 192.384 0.920074 189.413 0.385254 186.386L2.12097 186.08ZM1.36925 185.359L1.38423 185.361L1.12199 187.104L1.10701 187.102L1.36925 185.359ZM2.06982 185.835C2.07585 185.877 2.08194 185.916 2.08881 185.961C2.09552 186.005 2.103 186.053 2.11055 186.106L0.365707 186.355C0.359695 186.313 0.353607 186.274 0.346756 186.229C0.340057 186.186 0.332565 186.137 0.325012 186.084L2.06982 185.835ZM2.03819 185.637C2.04749 185.69 2.06187 185.77 2.07191 185.85L0.322922 186.069C0.319412 186.041 0.313446 186.006 0.302414 185.943L2.03819 185.637ZM2.01762 185.511C2.02115 185.539 2.02715 185.575 2.03816 185.637L0.302444 185.944C0.293106 185.891 0.278748 185.81 0.268692 185.73L2.01762 185.511ZM1.47734 181.467C1.61082 182.8 1.79811 184.151 2.01314 185.48L0.273178 185.761C0.0540314 184.407 -0.138596 183.02 -0.276474 181.642L1.47734 181.467Z" fill="black" mask="url(#path-1-inside-1_2948_3548)"/>
<path d="M191.256 208.979L191.256 208.979L191.257 208.978C191.255 208.974 191.253 208.971 191.251 208.97C191.251 208.969 191.25 208.968 191.248 208.967C191.247 208.967 191.244 208.966 191.238 208.965C191.238 208.965 191.238 208.965 191.237 208.965L75.1071 194.334L36.9846 221.402L152.176 242.229L191.256 208.979Z" fill="black" stroke="black" stroke-width="0.881295"/>
<path d="M190.971 203.595L74.8099 188.953L36.6874 216.021L151.879 236.847L190.971 203.595Z" fill="white" stroke="black" stroke-width="0.881295"/>
<path d="M191.628 204.193L152.458 237.512L152.696 241.788L190.688 209.467L190.688 209.467L190.69 209.465C191.439 208.836 191.841 207.9 191.782 206.928L191.782 206.926L191.628 204.193Z" fill="black" stroke="black" stroke-width="0.881295"/>
<path d="M137.173 230.452C137.175 230.452 137.176 230.451 137.177 230.451L166.848 206.868L166.848 206.868L166.849 206.867C166.85 206.866 166.85 206.865 166.85 206.863C166.85 206.862 166.85 206.86 166.85 206.859C166.85 206.858 166.849 206.856 166.846 206.852L166.846 206.852L166.843 206.849C166.843 206.849 166.842 206.848 166.84 206.848C166.838 206.848 166.836 206.848 166.835 206.848C166.834 206.848 166.831 206.849 166.827 206.853L166.827 206.853L166.826 206.853L137.153 230.438L137.151 230.44C137.151 230.44 137.15 230.441 137.15 230.443C137.156 230.447 137.161 230.449 137.164 230.451C137.165 230.452 137.167 230.452 137.167 230.452C137.169 230.452 137.171 230.452 137.173 230.452Z" fill="#99B9FF" stroke="black" stroke-width="0.881295"/>
<path d="M126.454 228.147C126.461 228.152 126.467 228.155 126.473 228.158L155.436 205.362L155.436 205.362L155.437 205.362C155.437 205.362 155.439 205.359 155.44 205.353C155.44 205.349 155.44 205.345 155.44 205.342C155.438 205.342 155.436 205.341 155.434 205.341C155.427 205.34 155.421 205.341 155.416 205.344L126.457 228.135L126.457 228.136C126.457 228.136 126.455 228.139 126.454 228.145C126.454 228.146 126.454 228.146 126.454 228.147Z" fill="#99B9FF" stroke="black" stroke-width="0.881295"/>
<path d="M116.698 226.562C116.699 226.561 116.7 226.561 116.701 226.561L144.973 203.874L144.973 203.874L144.976 203.871C144.977 203.871 144.977 203.87 144.977 203.868C144.977 203.866 144.977 203.865 144.977 203.864C144.977 203.863 144.976 203.86 144.973 203.856L144.973 203.856L144.97 203.853C144.97 203.853 144.969 203.852 144.967 203.852C144.965 203.852 144.963 203.852 144.962 203.853C144.961 203.853 144.958 203.854 144.954 203.857C144.954 203.857 144.954 203.857 144.954 203.857L116.679 226.547L116.679 226.547L116.675 226.55C116.675 226.55 116.675 226.551 116.674 226.553C116.674 226.555 116.674 226.556 116.675 226.557C116.675 226.558 116.675 226.559 116.677 226.561C116.68 226.562 116.684 226.562 116.688 226.562C116.691 226.562 116.694 226.562 116.698 226.562Z" fill="#99B9FF" stroke="black" stroke-width="0.881295"/>
<path d="M97.096 222.575C97.0971 222.576 97.1011 222.577 97.1086 222.577L97.1091 222.577L124.286 201.174L124.286 201.174L124.286 201.174C124.287 201.173 124.289 201.171 124.29 201.164C124.29 201.16 124.29 201.157 124.289 201.154C124.288 201.153 124.286 201.153 124.284 201.152C124.276 201.151 124.27 201.153 124.265 201.156L97.098 222.551L97.0977 222.551C97.0972 222.552 97.0952 222.554 97.0943 222.561C97.0936 222.566 97.0942 222.571 97.096 222.575Z" fill="#99B9FF" stroke="black" stroke-width="0.881295"/>
<path d="M134.487 202.381L134.487 202.381L134.488 202.38C134.488 202.38 134.489 202.379 134.489 202.377C134.489 202.375 134.489 202.374 134.489 202.373C134.488 202.372 134.488 202.369 134.484 202.365L134.484 202.365L134.482 202.362C134.482 202.362 134.48 202.361 134.478 202.361C134.477 202.361 134.475 202.361 134.473 202.361C134.472 202.362 134.47 202.363 134.466 202.366L134.466 202.366L134.464 202.367L106.69 224.366L106.689 224.367C106.689 224.368 106.688 224.369 106.688 224.371C106.688 224.372 106.688 224.373 106.688 224.374C106.69 224.375 106.691 224.376 106.693 224.376C106.697 224.378 106.7 224.379 106.702 224.38C106.704 224.38 106.704 224.38 106.702 224.38C106.706 224.38 106.708 224.38 106.709 224.379C106.71 224.379 106.715 224.377 106.724 224.371L134.487 202.381Z" fill="#99B9FF" stroke="black" stroke-width="0.881295"/>
<path d="M85.9083 221.192C85.9104 221.193 85.9121 221.193 85.9135 221.194L85.9145 221.193L113.483 199.696C113.484 199.696 113.486 199.693 113.487 199.687C113.487 199.683 113.487 199.679 113.486 199.676C113.485 199.676 113.483 199.675 113.481 199.675C113.473 199.674 113.467 199.675 113.462 199.678L85.9015 221.169C85.9009 221.169 85.8989 221.172 85.8981 221.178C85.8978 221.181 85.8977 221.183 85.898 221.186C85.9016 221.188 85.9051 221.19 85.9083 221.192Z" fill="#99B9FF" stroke="black" stroke-width="0.881295"/>
<path d="M148.252 232.533L148.252 232.533L177.012 208.653C177.017 208.649 177.018 208.645 177.018 208.642C177.018 208.64 177.018 208.639 177.018 208.639C177.018 208.639 177.018 208.639 177.018 208.639C177.018 208.64 177.018 208.64 177.018 208.64C177.018 208.64 177.018 208.639 177.018 208.639C177.013 208.634 177.009 208.632 177.005 208.631C177.003 208.631 177.002 208.632 177.002 208.632C177.002 208.632 177.002 208.632 177.002 208.632L177.002 208.632C177.002 208.632 177.002 208.632 177.002 208.632L177.002 208.632L177.002 208.632L177.001 208.632L177.001 208.632L176.996 208.637L148.394 232.384L148.235 232.517L148.031 232.478L43.9601 212.812C43.9593 212.812 43.9585 212.812 43.9578 212.812C43.947 212.811 43.9415 212.813 43.9394 212.815C43.9388 212.815 43.9384 212.816 43.9379 212.816C43.9386 212.819 43.9397 212.821 43.9404 212.822C43.9413 212.824 43.9422 212.825 43.9432 212.825C43.9435 212.825 43.944 212.826 43.9448 212.826C43.9456 212.827 43.9469 212.827 43.9485 212.828C43.9494 212.828 43.9505 212.828 43.9516 212.828L148.235 232.534L148.248 232.536C148.249 232.536 148.25 232.535 148.252 232.533Z" fill="#99B9FF" stroke="black" stroke-width="0.881295"/>
<path d="M155.048 226.562C155.055 226.562 155.059 226.56 155.061 226.559C155.06 226.558 155.059 226.556 155.058 226.554C155.054 226.548 155.048 226.543 155.038 226.54L59.5516 209.22C59.5512 209.22 59.5508 209.22 59.5504 209.22C59.5486 209.22 59.5475 209.22 59.5466 209.22C59.5451 209.221 59.5427 209.222 59.5398 209.224C59.5367 209.226 59.5337 209.229 59.531 209.233C59.5314 209.233 59.532 209.234 59.5326 209.235C59.5362 209.24 59.5427 209.246 59.5526 209.249L155.006 226.562H155.006H155.006H155.006H155.006H155.006H155.007H155.007H155.007H155.007H155.007H155.007H155.008H155.008H155.008H155.008H155.008H155.008H155.009H155.009H155.009H155.009H155.009H155.009H155.009H155.01H155.01H155.01H155.01H155.01H155.01H155.011H155.011H155.011H155.011H155.011H155.011H155.012H155.012H155.012H155.012H155.012H155.012H155.013H155.013H155.013H155.013H155.013H155.013H155.013H155.014H155.014H155.014H155.014H155.014H155.014H155.015H155.015H155.015H155.015H155.015H155.015H155.016H155.016H155.016H155.016H155.016H155.016H155.016H155.017H155.017H155.017H155.017H155.017H155.017H155.018H155.018H155.018H155.018H155.018H155.018H155.019H155.019H155.019H155.019H155.019H155.019H155.02H155.02H155.02H155.02H155.02H155.02H155.02H155.021H155.021H155.021H155.021H155.021H155.021H155.022H155.022H155.022H155.022H155.022H155.022H155.023H155.023H155.023H155.023H155.023H155.023H155.023H155.024H155.024H155.024H155.024H155.024H155.024H155.025H155.025H155.025H155.025H155.025H155.025H155.026H155.026H155.026H155.026H155.026H155.026H155.027H155.027H155.027H155.027H155.027H155.027H155.027H155.028H155.028H155.028H155.028H155.028H155.028H155.029H155.029H155.029H155.029H155.029H155.029H155.03H155.03H155.03H155.03H155.03H155.03H155.03H155.031H155.031H155.031H155.031H155.031H155.031H155.032H155.032H155.032H155.032H155.032H155.032H155.033H155.033H155.033H155.033H155.033H155.033H155.034H155.034H155.034H155.034H155.034H155.034H155.034H155.035H155.035H155.035H155.035H155.035H155.035H155.036H155.036H155.036H155.036H155.036H155.036H155.037H155.037H155.037H155.037H155.037H155.037H155.037H155.038H155.038H155.038H155.038H155.038H155.038H155.039H155.039H155.039H155.039H155.039H155.039H155.04H155.04H155.04H155.04H155.04H155.04H155.041H155.041H155.041H155.041H155.041H155.041H155.041H155.042H155.042H155.042H155.042H155.042H155.042H155.043H155.043H155.043H155.043H155.043H155.043H155.044H155.044H155.044H155.044H155.044H155.044H155.044H155.045H155.045H155.045H155.045H155.045H155.045H155.046H155.046H155.046H155.046H155.046H155.046H155.047H155.047H155.047H155.047H155.047H155.047H155.047H155.048H155.048H155.048Z" fill="#99B9FF" stroke="black" stroke-width="0.881295"/>
<path d="M160.971 221.487C161.006 221.486 161.035 221.488 161.054 221.491C161.055 221.49 161.056 221.49 161.057 221.489C161.056 221.488 161.056 221.486 161.054 221.484C161.05 221.479 161.044 221.473 161.034 221.47L65.5477 204.151C65.5473 204.151 65.5469 204.151 65.5465 204.151C65.5447 204.15 65.5436 204.151 65.5427 204.151C65.5413 204.151 65.5388 204.152 65.5359 204.154C65.5328 204.156 65.5298 204.159 65.5271 204.163C65.5275 204.164 65.528 204.165 65.5287 204.166C65.5323 204.171 65.5387 204.176 65.5486 204.179L160.971 221.487Z" fill="#99B9FF" stroke="black" stroke-width="0.881295"/>
<path d="M73.6112 197.237L73.5388 197.672L170.442 213.802L170.442 213.802L170.444 213.802L170.444 213.802C170.444 213.802 170.444 213.803 170.445 213.803C170.445 213.804 170.446 213.805 170.446 213.806C170.446 213.806 170.446 213.807 170.446 213.808C170.446 213.808 170.446 213.809 170.446 213.81L73.6112 197.237ZM73.6112 197.237L73.5388 197.672C73.5378 197.671 73.537 197.671 73.5363 197.671M73.6112 197.237L73.5363 197.671M73.5363 197.671C73.5354 197.671 73.5348 197.672 73.5344 197.672M73.5363 197.671L73.5344 197.672M73.5344 197.672C73.534 197.672 73.5335 197.672 73.533 197.672M73.5344 197.672L73.533 197.672M73.533 197.672C73.5326 197.672 73.5322 197.673 73.5318 197.673M73.533 197.672L73.5318 197.673M73.5318 197.673C73.531 197.673 73.5307 197.674 73.5307 197.674M73.5318 197.673L73.5307 197.674M73.5307 197.674C73.5306 197.674 73.5306 197.674 73.5306 197.674L73.5307 197.674ZM170.437 213.813L170.444 213.815L73.5306 197.674L73.5306 197.674L73.5303 197.675C73.5298 197.678 73.5301 197.679 73.5302 197.679C73.5303 197.68 73.5307 197.681 73.5313 197.682C73.5315 197.682 73.5318 197.682 73.532 197.683C73.5322 197.683 73.5323 197.683 73.5324 197.683L73.5326 197.683L73.5343 197.683L170.437 213.813Z" fill="#99B9FF" stroke="black" stroke-width="0.881295"/>
<path d="M177.035 207.842C177.034 207.841 177.034 207.84 177.034 207.84L71.1361 193.512L71.136 193.513L71.131 193.512C71.1312 193.514 71.1315 193.516 71.132 193.518C71.1323 193.519 71.1326 193.519 71.1329 193.52L177.02 207.846C177.026 207.847 177.031 207.847 177.036 207.848C177.036 207.846 177.035 207.844 177.035 207.842Z" fill="#99B9FF" stroke="black" stroke-width="0.881295"/>
<path d="M171.687 243.704L171.687 243.705C170.855 246.904 173.438 250.01 176.785 249.823C186.124 249.277 194.863 246.589 200.556 242.731C203.402 240.802 205.456 238.601 206.466 236.261C207.458 233.961 207.456 231.497 206.156 228.945C202.267 225.509 198.458 223.67 194.875 223.082C191.277 222.492 187.879 223.16 184.818 224.785C178.683 228.041 173.886 235.16 171.687 243.704Z" fill="black" stroke="black" stroke-width="0.881295"/>
<path d="M187.561 230.472L187.561 230.472C185.843 229.594 183.304 228.54 178.764 229.228L178.763 229.228C176.502 229.569 175.063 230.508 173.326 231.641C173.178 231.737 173.028 231.835 172.876 231.934C170.922 233.2 168.577 234.596 164.488 235.458L164.488 235.459C161.074 236.175 158.993 237.2 157.767 238.293C156.557 239.373 156.163 240.535 156.151 241.603C156.138 242.691 156.522 243.715 156.926 244.482C157.126 244.863 157.327 245.173 157.478 245.388C157.492 245.408 157.507 245.428 157.52 245.447L167.947 240.739L167.947 240.739C168.711 240.394 169.563 240.26 170.4 240.35L170.401 240.35C172.737 240.606 178.281 241.019 183.309 239.884L183.31 239.884C184.339 239.654 185.43 239.698 186.504 239.839C187.259 239.939 188.033 240.091 188.78 240.238C189.089 240.299 189.393 240.359 189.69 240.414C190.724 240.606 191.683 240.741 192.539 240.691C193.386 240.642 194.105 240.414 194.688 239.901L194.69 239.9C194.766 239.834 194.834 239.712 194.84 239.468C194.846 239.22 194.783 238.888 194.64 238.482C194.354 237.672 193.784 236.666 193.033 235.622C191.525 233.527 189.373 231.397 187.561 230.472Z" fill="white" stroke="black" stroke-width="0.881295"/>
<path d="M155.975 240.155C156.406 238.91 157.368 237.873 158.781 237.031C160.191 236.191 162.074 235.53 164.401 235.043C168.744 234.125 171.05 232.628 173.11 231.284C174.805 230.172 176.342 229.172 178.699 228.817L178.699 228.817C183.133 228.151 185.777 229.084 187.757 230.094L187.758 230.094C189.397 230.934 191.189 232.631 192.597 234.367C193.305 235.239 193.926 236.135 194.39 236.957C194.847 237.767 195.174 238.546 195.253 239.175L195.253 239.175L195.253 239.178C195.269 239.31 195.28 239.484 195.256 239.659C195.232 239.828 195.167 240.058 194.978 240.232L194.978 240.232L194.971 240.238C194.415 240.728 193.756 240.978 193.05 241.082C193.791 240.979 194.447 240.723 195.001 240.239L195.001 240.239L195.007 240.234C195.14 240.122 195.366 239.84 195.287 239.16C195.212 238.571 194.918 237.807 194.438 236.946C193.963 236.091 193.323 235.171 192.591 234.278C191.119 232.483 189.316 230.847 187.79 230.066C185.807 229.055 183.2 228.106 178.722 228.781L178.721 228.781C176.371 229.131 174.828 230.136 173.118 231.261L173.118 231.262C171.094 232.586 168.76 234.113 164.419 235.025C159.503 236.064 156.766 237.836 155.966 240.159L155.966 240.159C155.473 241.587 155.784 243.002 156.26 244.108C156.707 245.148 157.282 245.87 157.386 245.999C157.388 245.999 157.391 246 157.395 246C157.395 246 157.396 246 157.396 246L157.396 246L157.4 245.998C157.404 245.997 157.408 245.996 157.414 245.993L168.148 241.146C168.148 241.146 168.149 241.146 168.149 241.146C168.845 240.828 169.617 240.707 170.375 240.797C172.605 241.04 178.296 241.48 183.43 240.318L183.432 240.317C185.06 239.957 186.961 240.328 188.661 240.66L188.699 240.667L188.7 240.667L188.708 240.669C188.843 240.695 188.978 240.722 189.112 240.748C188.976 240.721 188.841 240.694 188.705 240.667L188.692 240.664C188.692 240.664 188.692 240.664 188.692 240.664C188.692 240.664 188.692 240.664 188.692 240.664C186.827 240.295 185.022 239.954 183.406 240.31C178.262 241.464 172.565 241.025 170.364 240.779C170.203 240.766 170.045 240.754 169.891 240.754C169.286 240.754 168.685 240.878 168.137 241.133L168.137 241.133L168.132 241.135L157.712 245.839L157.381 245.988L157.171 245.692C156.894 245.302 156.393 244.524 156.061 243.55C155.728 242.577 155.551 241.371 155.975 240.155ZM155.975 240.155C155.975 240.156 155.975 240.156 155.975 240.156L156.391 240.3L155.975 240.155C155.975 240.155 155.975 240.155 155.975 240.155Z" fill="black" stroke="black" stroke-width="0.881295"/>
<path d="M81.3733 259.459L80.6947 260.014L90.6488 274.503C87.5309 274.511 81.4526 274.189 75.9257 273.849C72.9015 273.662 70.0508 273.471 67.9561 273.326C66.9088 273.254 66.0505 273.193 65.4542 273.15C65.156 273.129 64.9233 273.112 64.7651 273.101L64.585 273.088L64.539 273.084L64.5296 273.084C58.3453 272.457 49.6217 270.21 41.2504 267.091C32.8698 263.969 24.9035 259.996 20.2081 255.947C15.0429 251.492 11.1377 247.397 9.45593 242.449L9.4558 242.449C7.01234 235.284 6.81401 232.449 6.32999 225.531C6.23775 224.213 6.13513 222.746 6.00461 221.073L6.00459 221.072C5.73126 217.583 6.22444 213.392 7.3382 209.381C8.45244 205.369 10.1777 201.572 12.3413 198.853L12.3415 198.853C18.7121 190.841 30.54 185.04 53.8102 188.023C53.8106 188.023 53.8111 188.023 53.8115 188.023L53.8123 188.023L53.8229 188.025L53.8658 188.031C53.9039 188.036 53.9611 188.044 54.0361 188.055C54.1863 188.077 54.4081 188.11 54.6932 188.155C55.2635 188.246 56.0869 188.385 57.0968 188.578C59.1171 188.963 61.8804 189.564 64.8539 190.424C67.8288 191.284 71.0047 192.402 73.8542 193.819C76.7086 195.239 79.2053 196.944 80.8519 198.966C81.3653 199.596 82.2829 200.453 83.4387 201.512C83.6157 201.674 83.7988 201.841 83.9876 202.013C85.0442 202.979 86.2803 204.108 87.6239 205.406C90.7904 208.464 94.5425 212.449 97.8841 217.369L97.8841 217.369C99.3156 219.476 100.719 221.776 102.124 224.079C102.273 224.324 102.422 224.568 102.572 224.812C104.124 227.354 105.683 229.875 107.276 232.092C108.868 234.308 110.51 236.244 112.236 237.604C113.965 238.966 115.811 239.775 117.796 239.669C117.796 239.669 117.796 239.669 117.796 239.669L117.773 239.229C133.359 238.405 145.307 235.431 153.142 233.48C158.314 232.193 161.693 231.352 163.145 231.869C166.604 233.103 169.114 237.616 168.83 241.872L81.3733 259.459ZM81.3733 259.459C81.3742 259.458 81.3742 259.458 81.3742 259.458L81.3743 259.458L81.3733 259.459Z" fill="#5479F7" stroke="black" stroke-width="0.881295"/>
<path d="M99.33 217.532C99.3334 217.534 99.3358 217.534 99.3372 217.535C99.3378 217.535 99.3386 217.534 99.3394 217.534C99.3417 217.532 99.3432 217.53 99.3443 217.528L99.3414 217.524C93.3516 208.987 86.9387 202.193 80.3098 197.307C76.595 194.574 71.8231 192.209 66.8983 190.663L66.8983 190.663L66.8911 190.661C66.8905 190.661 66.89 190.661 66.8896 190.661C66.8879 190.662 66.8852 190.665 66.8825 190.671C66.8825 190.674 66.8833 190.678 66.8854 190.682C66.8869 190.685 66.8886 190.687 66.89 190.688C66.891 190.689 66.8928 190.69 66.8963 190.692C71.8205 192.223 76.5847 194.588 80.3035 197.33L80.3037 197.33C86.9373 202.225 93.3395 209.017 99.3111 217.519C99.3176 217.525 99.3242 217.529 99.33 217.532Z" fill="#CADDFF" stroke="black" stroke-width="0.881295"/>
<path d="M122.123 239.063L122.123 239.063C125.203 238.71 131.591 237.966 137.392 236.832C139.094 236.494 141.027 236.049 143.077 235.574L143.077 235.574L143.166 235.553C149.006 234.203 156.306 232.515 163.763 232.242C163.766 232.242 163.769 232.241 163.773 232.24C163.775 232.239 163.776 232.238 163.778 232.237C163.778 232.236 163.777 232.236 163.777 232.235C163.776 232.232 163.774 232.23 163.773 232.228C156.279 232.498 148.98 234.195 143.087 235.565L143.086 235.565L143.085 235.565L142.978 235.59C140.972 236.055 139.074 236.494 137.398 236.815C131.6 237.944 125.194 238.691 122.128 239.044L122.126 239.044C121.266 239.139 120.711 239.206 120.481 239.244L120.479 239.244L120.479 239.244C120.479 239.244 120.479 239.244 120.479 239.245C120.479 239.245 120.478 239.245 120.478 239.245C120.478 239.246 120.477 239.247 120.477 239.248C120.477 239.248 120.477 239.249 120.477 239.252L120.479 239.261L120.479 239.263H120.479H120.479H120.479H120.48H120.48H120.48H120.48H120.48H120.48H120.481H120.481H120.481H120.481H120.481H120.481H120.481H120.482H120.482H120.482H120.482H120.482H120.482H120.483H120.483H120.483H120.483H120.483H120.483H120.484H120.484H120.484H120.484H120.484H120.484H120.484H120.485H120.485H120.485H120.485H120.485H120.485H120.486H120.486H120.486H120.486H120.486H120.486H120.487H120.487H120.487H120.487H120.487H120.487H120.487H120.488H120.488H120.488H120.488H120.488H120.488H120.489H120.489H120.489H120.489H120.489H120.489H120.49H120.49H120.49H120.49H120.49H120.49H120.49H120.491H120.491H120.491H120.491H120.491H120.491H120.492H120.492H120.492H120.492H120.492H120.492H120.492H120.493H120.493H120.493H120.493H120.493H120.493H120.494H120.494H120.494H120.494H120.494H120.494H120.495H120.495H120.495H120.495H120.495H120.495H120.495H120.496H120.496H120.496H120.496H120.496H120.496H120.497H120.497H120.497H120.497H120.497H120.497H120.497H120.498H120.498H120.498H120.498H120.498H120.498H120.499H120.499H120.499H120.499H120.499H120.499H120.499H120.5H120.5H120.5H120.5H120.5H120.5H120.501H120.501H120.501H120.501H120.501H120.501H120.501H120.502H120.502H120.502H120.502H120.502H120.502H120.502H120.503H120.503H120.503H120.503H120.503H120.503H120.504H120.504H120.504H120.504H120.504H120.504H120.504H120.505H120.505H120.505H120.505H120.505H120.505H120.505H120.506H120.506C120.768 239.218 121.352 239.151 122.123 239.063Z" fill="#CADDFF" stroke="black" stroke-width="0.881295"/>
<path d="M106.984 272.561L106.985 272.561L106.986 272.562L106.987 272.562C106.987 272.562 106.987 272.562 106.988 272.563C106.988 272.564 106.989 272.564 106.989 272.565C106.989 272.565 106.989 272.566 106.989 272.568C106.989 272.568 106.989 272.568 106.989 272.569L106.984 272.561ZM106.984 272.561C102.464 271.797 98.6242 270.759 94.1617 269.083C92.148 268.327 89.9991 267.096 87.7782 265.494M106.984 272.561L87.7782 265.494M87.7782 265.494C90.0226 267.119 92.1713 268.351 94.1595 269.098C98.6259 270.769 102.452 271.819 106.98 272.573L106.987 272.574L87.7782 265.494ZM55.1412 223.356L55.1406 223.355C55.1389 223.351 55.1373 223.35 55.1363 223.349C55.1358 223.348 55.1354 223.348 55.135 223.348C55.1347 223.347 55.1343 223.347 55.134 223.347L55.1297 223.349C55.126 223.351 55.1242 223.352 55.1233 223.353C55.1228 223.354 55.1224 223.355 55.122 223.355L55.1232 223.358C58.0088 229.43 62.0097 236.121 66.5248 242.494C62.0238 236.131 58.0289 229.441 55.1412 223.356Z" fill="#CADDFF" stroke="black" stroke-width="0.881295"/>
<mask id="path-24-inside-2_2948_3548" fill="white">
<path d="M31.2082 75.503C31.2217 75.503 31.2217 75.503 31.2353 75.503L35.3871 75.2726C35.5906 75.259 35.767 75.1099 35.8077 74.893L36.5133 70.7047C37.2731 70.5149 38.0329 70.2574 38.7656 69.9727L41.8184 72.9276C41.9676 73.0767 42.1983 73.0903 42.3747 72.9818L45.8616 70.7047C46.038 70.5962 46.1059 70.3658 46.038 70.176L44.5591 66.2045C45.1154 65.6623 45.6446 65.0659 46.1466 64.4289L50.2713 65.459C50.4748 65.5132 50.6919 65.4184 50.7869 65.2286L52.6728 61.5146C52.7678 61.3249 52.7135 61.0944 52.5643 60.9589L49.2944 58.2615C49.5115 57.4889 49.6743 56.7163 49.7828 55.9437L53.8668 54.7915C54.0703 54.7373 54.206 54.5475 54.1924 54.3307L53.9618 50.1829C53.9482 49.9796 53.799 49.8034 53.5819 49.7628L49.3893 49.0579C49.1994 48.2989 48.9416 47.5398 48.6431 46.8078L51.6009 43.7581C51.7502 43.609 51.7638 43.3785 51.6552 43.2023L49.3758 39.7188C49.2672 39.5426 49.0366 39.4748 48.8466 39.5426L44.8712 41.02C44.3285 40.4643 43.7315 39.9356 43.0938 39.4341L44.1249 35.3135C44.1792 35.1102 44.0842 34.8933 43.8943 34.7984L40.1767 32.9143C39.9867 32.8195 39.756 32.8737 39.6203 33.0228L36.9203 36.2895C36.1469 36.0726 35.3736 35.9099 34.6002 35.8015L33.4469 31.7215C33.3926 31.5182 33.1891 31.3962 32.9856 31.3962L28.8338 31.6267C28.6302 31.6402 28.4539 31.7893 28.4131 32.0062L27.7076 36.1946C26.9478 36.3843 26.188 36.6419 25.4553 36.9265L22.4025 33.9716C22.2533 33.8225 22.0226 33.809 21.8462 33.9174L18.3592 36.1946C18.1828 36.303 18.115 36.5334 18.1828 36.7232L19.6482 40.7354C19.0919 41.2776 18.5628 41.874 18.0607 42.511L13.9361 41.4809C13.7325 41.4267 13.5154 41.5215 13.4205 41.7113L11.5345 45.4253C11.4395 45.615 11.4938 45.8455 11.6431 45.981L14.9129 48.6784C14.6959 49.451 14.533 50.2236 14.4245 50.9962L10.3405 52.1484C10.137 52.2026 10.0013 52.3924 10.0149 52.6092L10.2455 56.7569C10.2591 56.9603 10.4084 57.1365 10.6255 57.1771L14.818 57.882C15.0079 58.641 15.2657 59.4001 15.5507 60.132L12.5928 63.1818C12.4436 63.3309 12.43 63.5614 12.5385 63.7376L14.818 67.2211C14.9265 67.3973 15.1572 67.4651 15.3471 67.3973L19.3226 65.9199C19.8653 66.4756 20.4623 67.0043 21.1 67.5058L20.0688 71.6264C20.0145 71.8297 20.1095 72.0466 20.2995 72.1415L24.0171 74.0255C24.2071 74.1204 24.4377 74.0662 24.5734 73.9171L27.2734 70.6504C28.0468 70.8673 28.8202 71.03 29.5936 71.1384L30.7469 75.2184C30.8283 75.3675 31.0046 75.503 31.2082 75.503ZM34.9801 74.3915L31.5474 74.5813L30.4077 70.5691C30.3534 70.3929 30.2041 70.2709 30.0277 70.2438C29.1051 70.1354 28.1825 69.9321 27.2599 69.661C27.0835 69.6067 26.8935 69.661 26.785 69.8101L24.1257 73.0361L21.0593 71.4773L22.0769 67.4244C22.1176 67.2482 22.0497 67.0585 21.9141 66.95C21.1542 66.3807 20.4487 65.7437 19.811 65.0659C19.6889 64.9304 19.4989 64.8897 19.3226 64.9575L15.4014 66.4214L13.5155 63.5478L16.4326 60.5522C16.5547 60.4167 16.5954 60.2269 16.5275 60.0643C16.1612 59.1968 15.8627 58.3022 15.6456 57.3805C15.6049 57.2042 15.4557 57.0687 15.2793 57.0416L11.1546 56.3503L10.9647 52.921L14.9808 51.7824C15.1572 51.7282 15.2793 51.5791 15.3064 51.4029C15.415 50.4811 15.6185 49.5594 15.8899 48.6377C15.9441 48.4615 15.8898 48.2717 15.7406 48.1633L12.5114 45.5066L14.0717 42.4433L18.1286 43.4599C18.305 43.5005 18.4949 43.4327 18.6035 43.2972C19.1733 42.5381 19.811 41.8333 20.4894 41.1962C20.6251 41.0742 20.6658 40.8845 20.598 40.7083L19.1326 36.791L22.009 34.9069L25.0076 37.8211C25.1433 37.9431 25.3332 37.9838 25.496 37.916C26.3644 37.55 27.2599 37.2518 28.1825 37.035C28.3589 36.9943 28.4946 36.8452 28.5217 36.669L29.2137 32.5484L32.6464 32.3586L33.7861 36.3708C33.8404 36.547 33.9896 36.669 34.166 36.6961C35.0886 36.8045 36.0113 37.0078 36.9339 37.2789C37.1103 37.3332 37.3002 37.2789 37.4088 37.1298L40.0681 33.9038L43.1345 35.4626L42.1169 39.5155C42.0762 39.6917 42.144 39.8814 42.2797 39.9899C43.0395 40.5592 43.745 41.1962 44.3827 41.874C44.5049 42.0095 44.6948 42.0502 44.8712 41.9824L48.7924 40.5185L50.6783 43.3921L47.7612 46.3877C47.6391 46.5232 47.5984 46.713 47.6662 46.8756C48.0325 47.7431 48.331 48.6377 48.5481 49.5594C48.5888 49.7356 48.7381 49.8712 48.9145 49.8983L53.0391 50.5896L53.2291 54.0189L49.213 55.1575C49.0366 55.2117 48.9145 55.3608 48.8873 55.537C48.7788 56.4587 48.5753 57.3805 48.3039 58.3022C48.2496 58.4784 48.3039 58.6681 48.4532 58.7766L51.6823 61.4333L50.122 64.4966L46.0652 63.48C45.8888 63.4394 45.6988 63.5072 45.5903 63.6427C45.0204 64.4018 44.3827 65.1066 43.7043 65.7437C43.5687 65.8657 43.528 66.0554 43.5958 66.2316L45.0611 70.1489L42.1847 72.033L39.1862 69.1188C39.0505 68.9968 38.8605 68.9561 38.6977 69.0239C37.8294 69.3899 36.9339 69.6881 36.0113 69.9049C35.8349 69.9456 35.6992 70.0947 35.6721 70.2709L34.9801 74.3915ZM32.0901 64.6186C33.2569 64.6186 34.4374 64.4289 35.5771 64.0629C38.4128 63.1412 40.7058 61.1622 42.0626 58.5055C43.4058 55.8488 43.6365 52.8261 42.7139 49.9932C41.7912 47.1603 39.8103 44.8695 37.151 43.5141C31.6559 40.7354 24.9262 42.9448 22.1583 48.4208C19.3768 53.9105 21.5884 60.62 27.0699 63.3987C28.6438 64.212 30.3669 64.6186 32.0901 64.6186ZM32.1172 43.2159C33.6776 43.2159 35.2514 43.5683 36.7304 44.3138C39.1726 45.5473 40.9907 47.6618 41.8455 50.2643C42.7003 52.8668 42.4832 55.6455 41.2485 58.0853C38.6977 63.1276 32.5107 65.1473 27.4634 62.599C22.4161 60.0507 20.3944 53.8698 22.9452 48.8275C24.7498 45.2762 28.3724 43.2159 32.1172 43.2159Z"/>
</mask>
<path d="M31.2082 75.503C31.2217 75.503 31.2217 75.503 31.2353 75.503L35.3871 75.2726C35.5906 75.259 35.767 75.1099 35.8077 74.893L36.5133 70.7047C37.2731 70.5149 38.0329 70.2574 38.7656 69.9727L41.8184 72.9276C41.9676 73.0767 42.1983 73.0903 42.3747 72.9818L45.8616 70.7047C46.038 70.5962 46.1059 70.3658 46.038 70.176L44.5591 66.2045C45.1154 65.6623 45.6446 65.0659 46.1466 64.4289L50.2713 65.459C50.4748 65.5132 50.6919 65.4184 50.7869 65.2286L52.6728 61.5146C52.7678 61.3249 52.7135 61.0944 52.5643 60.9589L49.2944 58.2615C49.5115 57.4889 49.6743 56.7163 49.7828 55.9437L53.8668 54.7915C54.0703 54.7373 54.206 54.5475 54.1924 54.3307L53.9618 50.1829C53.9482 49.9796 53.799 49.8034 53.5819 49.7628L49.3893 49.0579C49.1994 48.2989 48.9416 47.5398 48.6431 46.8078L51.6009 43.7581C51.7502 43.609 51.7638 43.3785 51.6552 43.2023L49.3758 39.7188C49.2672 39.5426 49.0366 39.4748 48.8466 39.5426L44.8712 41.02C44.3285 40.4643 43.7315 39.9356 43.0938 39.4341L44.1249 35.3135C44.1792 35.1102 44.0842 34.8933 43.8943 34.7984L40.1767 32.9143C39.9867 32.8195 39.756 32.8737 39.6203 33.0228L36.9203 36.2895C36.1469 36.0726 35.3736 35.9099 34.6002 35.8015L33.4469 31.7215C33.3926 31.5182 33.1891 31.3962 32.9856 31.3962L28.8338 31.6267C28.6302 31.6402 28.4539 31.7893 28.4131 32.0062L27.7076 36.1946C26.9478 36.3843 26.188 36.6419 25.4553 36.9265L22.4025 33.9716C22.2533 33.8225 22.0226 33.809 21.8462 33.9174L18.3592 36.1946C18.1828 36.303 18.115 36.5334 18.1828 36.7232L19.6482 40.7354C19.0919 41.2776 18.5628 41.874 18.0607 42.511L13.9361 41.4809C13.7325 41.4267 13.5154 41.5215 13.4205 41.7113L11.5345 45.4253C11.4395 45.615 11.4938 45.8455 11.6431 45.981L14.9129 48.6784C14.6959 49.451 14.533 50.2236 14.4245 50.9962L10.3405 52.1484C10.137 52.2026 10.0013 52.3924 10.0149 52.6092L10.2455 56.7569C10.2591 56.9603 10.4084 57.1365 10.6255 57.1771L14.818 57.882C15.0079 58.641 15.2657 59.4001 15.5507 60.132L12.5928 63.1818C12.4436 63.3309 12.43 63.5614 12.5385 63.7376L14.818 67.2211C14.9265 67.3973 15.1572 67.4651 15.3471 67.3973L19.3226 65.9199C19.8653 66.4756 20.4623 67.0043 21.1 67.5058L20.0688 71.6264C20.0145 71.8297 20.1095 72.0466 20.2995 72.1415L24.0171 74.0255C24.2071 74.1204 24.4377 74.0662 24.5734 73.9171L27.2734 70.6504C28.0468 70.8673 28.8202 71.03 29.5936 71.1384L30.7469 75.2184C30.8283 75.3675 31.0046 75.503 31.2082 75.503ZM34.9801 74.3915L31.5474 74.5813L30.4077 70.5691C30.3534 70.3929 30.2041 70.2709 30.0277 70.2438C29.1051 70.1354 28.1825 69.9321 27.2599 69.661C27.0835 69.6067 26.8935 69.661 26.785 69.8101L24.1257 73.0361L21.0593 71.4773L22.0769 67.4244C22.1176 67.2482 22.0497 67.0585 21.9141 66.95C21.1542 66.3807 20.4487 65.7437 19.811 65.0659C19.6889 64.9304 19.4989 64.8897 19.3226 64.9575L15.4014 66.4214L13.5155 63.5478L16.4326 60.5522C16.5547 60.4167 16.5954 60.2269 16.5275 60.0643C16.1612 59.1968 15.8627 58.3022 15.6456 57.3805C15.6049 57.2042 15.4557 57.0687 15.2793 57.0416L11.1546 56.3503L10.9647 52.921L14.9808 51.7824C15.1572 51.7282 15.2793 51.5791 15.3064 51.4029C15.415 50.4811 15.6185 49.5594 15.8899 48.6377C15.9441 48.4615 15.8898 48.2717 15.7406 48.1633L12.5114 45.5066L14.0717 42.4433L18.1286 43.4599C18.305 43.5005 18.4949 43.4327 18.6035 43.2972C19.1733 42.5381 19.811 41.8333 20.4894 41.1962C20.6251 41.0742 20.6658 40.8845 20.598 40.7083L19.1326 36.791L22.009 34.9069L25.0076 37.8211C25.1433 37.9431 25.3332 37.9838 25.496 37.916C26.3644 37.55 27.2599 37.2518 28.1825 37.035C28.3589 36.9943 28.4946 36.8452 28.5217 36.669L29.2137 32.5484L32.6464 32.3586L33.7861 36.3708C33.8404 36.547 33.9896 36.669 34.166 36.6961C35.0886 36.8045 36.0113 37.0078 36.9339 37.2789C37.1103 37.3332 37.3002 37.2789 37.4088 37.1298L40.0681 33.9038L43.1345 35.4626L42.1169 39.5155C42.0762 39.6917 42.144 39.8814 42.2797 39.9899C43.0395 40.5592 43.745 41.1962 44.3827 41.874C44.5049 42.0095 44.6948 42.0502 44.8712 41.9824L48.7924 40.5185L50.6783 43.3921L47.7612 46.3877C47.6391 46.5232 47.5984 46.713 47.6662 46.8756C48.0325 47.7431 48.331 48.6377 48.5481 49.5594C48.5888 49.7356 48.7381 49.8712 48.9145 49.8983L53.0391 50.5896L53.2291 54.0189L49.213 55.1575C49.0366 55.2117 48.9145 55.3608 48.8873 55.537C48.7788 56.4587 48.5753 57.3805 48.3039 58.3022C48.2496 58.4784 48.3039 58.6681 48.4532 58.7766L51.6823 61.4333L50.122 64.4966L46.0652 63.48C45.8888 63.4394 45.6988 63.5072 45.5903 63.6427C45.0204 64.4018 44.3827 65.1066 43.7043 65.7437C43.5687 65.8657 43.528 66.0554 43.5958 66.2316L45.0611 70.1489L42.1847 72.033L39.1862 69.1188C39.0505 68.9968 38.8605 68.9561 38.6977 69.0239C37.8294 69.3899 36.9339 69.6881 36.0113 69.9049C35.8349 69.9456 35.6992 70.0947 35.6721 70.2709L34.9801 74.3915ZM32.0901 64.6186C33.2569 64.6186 34.4374 64.4289 35.5771 64.0629C38.4128 63.1412 40.7058 61.1622 42.0626 58.5055C43.4058 55.8488 43.6365 52.8261 42.7139 49.9932C41.7912 47.1603 39.8103 44.8695 37.151 43.5141C31.6559 40.7354 24.9262 42.9448 22.1583 48.4208C19.3768 53.9105 21.5884 60.62 27.0699 63.3987C28.6438 64.212 30.3669 64.6186 32.0901 64.6186ZM32.1172 43.2159C33.6776 43.2159 35.2514 43.5683 36.7304 44.3138C39.1726 45.5473 40.9907 47.6618 41.8455 50.2643C42.7003 52.8668 42.4832 55.6455 41.2485 58.0853C38.6977 63.1276 32.5107 65.1473 27.4634 62.599C22.4161 60.0507 20.3944 53.8698 22.9452 48.8275C24.7498 45.2762 28.3724 43.2159 32.1172 43.2159Z" stroke="black" stroke-width="3.52518" mask="url(#path-24-inside-2_2948_3548)"/>
<path d="M68.0358 67.538L67.6576 67.9779L67.1041 67.8045L61.5881 66.0764L59.3118 69.9835L63.5311 73.9088L63.9576 74.3056L63.7597 74.8534C63.3001 76.126 62.9472 77.407 62.7125 78.6969L62.6078 79.2721L62.0372 79.3993L56.4024 80.6556L56.392 85.1705L62.0289 86.4635L62.596 86.5936L62.6992 87.1662C62.9349 88.4746 63.2754 89.7567 63.7208 91.0131L63.9157 91.563L63.4857 91.9572L59.2293 95.8591L61.473 99.774L66.9871 98.0827L67.5432 97.9122L67.9186 98.3565C68.7683 99.362 69.7116 100.305 70.7365 101.184L71.1775 101.563L71.0035 102.117L69.2741 107.626L73.1851 109.9L77.1152 105.672L77.5117 105.245L78.0596 105.443C79.3335 105.902 80.6159 106.255 81.9072 106.489L82.4824 106.594L82.6098 107.164L83.8673 112.793L88.3887 112.803L89.6829 107.172L89.8132 106.605L90.3858 106.502C91.6956 106.267 92.9792 105.927 94.2369 105.482L94.7859 105.287L95.1799 105.716L99.0864 109.969L103.006 107.727L101.314 102.22L101.142 101.663L101.588 101.288C102.594 100.439 103.538 99.4966 104.418 98.4727L104.797 98.0329L105.35 98.2063L110.866 99.9344L113.142 96.0281L108.911 92.1028L108.483 91.706L108.681 91.1573C109.141 89.8847 109.494 88.6037 109.728 87.3138L109.833 86.7387L110.404 86.6114L116.038 85.3551L116.049 80.8402L110.412 79.5472L109.845 79.4171L109.742 78.8445C109.506 77.5361 109.165 76.254 108.72 74.9976L108.525 74.4477L108.955 74.0535L113.211 70.1517L110.968 66.2368L105.454 67.928L104.898 68.0986L104.522 67.6543C103.672 66.6488 102.729 65.706 101.704 64.8265L101.262 64.4472L101.438 63.892L103.179 58.3839L99.2692 56.1106L95.3391 60.3388L94.9426 60.7654L94.3948 60.5679C93.1208 60.1087 91.8384 59.7561 90.5471 59.5216L89.972 59.4171L89.8445 58.8466L88.587 53.2177L84.0657 53.2074L82.7714 58.8383L82.6411 59.4053L82.0685 59.5083C80.7587 59.7438 79.4752 60.084 78.2175 60.529L77.6684 60.7233L77.2745 60.2943L73.3679 56.0413L69.4483 58.2833L71.1407 63.7903L71.3119 64.3473L70.8665 64.7229C69.8599 65.5717 68.9162 66.5141 68.0358 67.538ZM94.3491 69.0613C102.056 73.5345 104.683 83.4133 100.191 91.1271L99.4289 90.6841C95.1956 97.9629 85.8473 100.443 78.5477 96.2008C71.2481 91.9582 68.7787 82.6191 73.0255 75.3402L72.2636 74.8972C72.2637 74.897 72.2639 74.8968 72.264 74.8966C76.742 67.1975 86.6292 64.5747 94.3491 69.0613Z" stroke="black" stroke-width="1.76259"/>
<path d="M48.3648 148.901L75.4195 149.078C75.5959 149.078 75.6501 149.24 75.6501 149.403V172.405C75.6501 174.601 91.0227 180.334 91.172 180.036L91.1855 182.476C91.1855 182.923 90.7921 183.33 90.2765 183.33H89.9373H67.2515C66.1932 183.33 65.1621 183.1 64.2123 182.693L51.7433 177.447C49.5045 176.499 48.0799 174.479 48.0799 172.256V149.213C48.0799 149.064 48.1884 148.901 48.3648 148.901Z" fill="white"/>
<path d="M78.3897 147.722V170.724C78.3897 172.988 79.8551 175.062 82.1481 176.038L90.5603 179.63C91.1166 179.86 90.9266 180.606 90.3161 180.606H67.1961C66.1514 180.606 65.1338 180.402 64.184 180.009L54.8628 176.092C52.5562 175.116 51.0773 173.042 51.0773 170.765V147.722C51.0773 147.627 51.1587 147.546 51.2672 147.546H78.1998C78.3083 147.559 78.3897 147.627 78.3897 147.722Z" fill="black"/>
<path d="M67.1955 181.053H90.3154C90.8175 181.053 91.2245 180.727 91.3195 180.28C91.4144 179.833 91.1702 179.413 90.7361 179.223L82.3239 175.631C80.2073 174.723 78.8369 172.812 78.8369 170.738V147.722C78.8369 147.383 78.5519 147.098 78.1992 147.098H51.2666C50.9138 147.098 50.6289 147.383 50.6289 147.722V170.751C50.6289 173.205 52.2299 175.455 54.6858 176.485L64.007 180.402C64.9975 180.836 66.0965 181.053 67.1955 181.053ZM77.9414 148.007V170.738C77.9414 173.178 79.5289 175.414 81.9711 176.458L90.3833 180.05C90.424 180.063 90.4375 180.077 90.4375 180.09C90.4375 180.118 90.3969 180.145 90.3154 180.145H67.1955C66.2186 180.145 65.2417 179.955 64.3598 179.575L55.0385 175.658C52.9084 174.763 51.5244 172.839 51.5244 170.751V148.007H77.9414Z" fill="black"/>
<path d="M8.17611 83.4189C6.16804 83.4189 4.36348 85.4521 4.62128 87.4446L13.8204 159.216C13.9561 160.233 15.0415 161.087 16.0591 161.087L130.628 160.897C131.849 160.897 132.663 159.881 132.514 158.661L122.975 85.5741C122.84 84.5575 122.175 83.4189 121.157 83.4189H8.17611Z" fill="black"/>
<path d="M16.0582 161.372L123.666 161.236C123.734 161.236 123.788 161.222 123.843 161.195L130.627 161.182C131.319 161.182 131.956 160.911 132.391 160.409C132.838 159.894 133.055 159.176 132.96 158.444L123.436 85.3436C123.273 84.1101 122.432 82.8089 121.17 82.8089H8.20228C7.10327 82.8089 6.03139 83.324 5.23087 84.2321C4.44392 85.1267 4.06403 86.2653 4.19971 87.3361L13.3988 159.108C13.5345 160.314 14.7828 161.372 16.0582 161.372ZM123.476 160.341L16.0446 160.477C15.217 160.477 14.3486 159.759 14.2536 158.999L5.0545 87.2277C4.94595 86.4144 5.24445 85.5334 5.86858 84.8285C6.49271 84.1101 7.33393 83.7035 8.17516 83.7035H121.156C121.875 83.7035 122.418 84.5981 122.527 85.4656L132.051 158.566C132.119 159.054 131.984 159.487 131.699 159.826C131.427 160.125 131.047 160.301 130.613 160.301L123.653 160.314C123.598 160.301 123.544 160.314 123.476 160.341Z" fill="black"/>
<path d="M11.5122 86.3738C9.66695 86.3738 7.99809 88.2443 8.24231 90.0742L16.7088 156.099C16.8309 157.034 17.8213 157.82 18.7711 157.82L127.017 157.644C128.143 157.644 128.889 156.709 128.754 155.597L119.989 88.3527C119.867 87.4175 119.256 86.3738 118.306 86.3738H11.5122Z" fill="white"/>
<path d="M22.8778 95.4824H66.8789L66.5804 93.273H22.5793L22.8778 95.4824Z" fill="#E0DDDD"/>
<path d="M13.3958 99.1151H58.2246L57.9261 96.9057H13.0973L13.3958 99.1151Z" fill="#E0DDDD"/>
<path d="M19.2828 102.748H42.457L42.1585 100.538H18.9843L19.2828 102.748Z" fill="#E0DDDD"/>
<path d="M26.8015 124.544H70.7891L70.5041 122.348H26.503L26.8015 124.544Z" fill="#E0DDDD"/>
<path d="M17.304 128.176H62.1328L61.8343 125.98H17.0055L17.304 128.176Z" fill="#E0DDDD"/>
<path d="M17.7909 131.809H46.3652L46.0667 129.613H17.4924L17.7909 131.809Z" fill="#E0DDDD"/>
<path d="M36.5986 135.292H63.2598L62.9613 133.097H36.3001L36.5986 135.292Z" fill="#E0DDDD"/>
<path d="M24.3445 106.38H68.3457L68.0472 104.171H24.0596L24.3445 106.38Z" fill="#E0DDDD"/>
<path d="M14.8606 110.013H59.6895L59.391 107.817H14.5622L14.8606 110.013Z" fill="#E0DDDD"/>
<path d="M26.6535 117.278H44.4141L44.1156 115.082H26.355L26.6535 117.278Z" fill="#E0DDDD"/>
<path d="M21.8215 120.911H39.582L39.2971 118.701H21.523L21.8215 120.911Z" fill="#E0DDDD"/>
<path d="M15.3495 113.646H43.9238L43.6253 111.45H15.051L15.3495 113.646Z" fill="#E0DDDD"/>
<path d="M28.7527 139.074H72.7539L72.4554 136.878H28.4543L28.7527 139.074Z" fill="#E0DDDD"/>
<path d="M20.6934 142.707H64.084L63.7855 140.511H20.3949L20.6934 142.707Z" fill="#E0DDDD"/>
<path d="M19.746 146.353H48.3203L48.0218 144.144H19.4475L19.746 146.353Z" fill="#E0DDDD"/>
<path d="M30.2196 149.986H74.2207L73.9222 147.776H29.9211L30.2196 149.986Z" fill="#E0DDDD"/>
<path d="M20.7239 153.618H65.5527L65.2542 151.409H20.4254L20.7239 153.618Z" fill="#E0DDDD"/>
<path d="M73.9664 120.87H78.2539L77.969 118.756H73.6815L73.9664 120.87Z" fill="#E0DDDD"/>
<path d="M70.3839 95.4824H74.8613L74.5628 93.273H70.0854L70.3839 95.4824Z" fill="#E0DDDD"/>
<path d="M69.9365 92.148H74.4004L74.1155 89.9386H69.638L69.9365 92.148Z" fill="#E0DDDD"/>
<path d="M70.9109 99.1151H75.3477L75.0492 96.9057H70.6124L70.9109 99.1151Z" fill="#E0DDDD"/>
<path d="M71.5498 102.748H75.7559L75.4574 100.538H71.2513L71.5498 102.748Z" fill="#E0DDDD"/>
<path d="M72.0113 106.38H76.2988L76.0003 104.185H71.7128L72.0113 106.38Z" fill="#E0DDDD"/>
<path d="M72.525 110.013H76.8125L76.514 107.817H72.2265L72.525 110.013Z" fill="#E0DDDD"/>
<path d="M73.3801 117.129H77.627L77.3284 114.933H73.0817L73.3801 117.129Z" fill="#E0DDDD"/>
<path d="M73.0017 113.497H77.0586L76.7601 111.301H72.7033L73.0017 113.497Z" fill="#E0DDDD"/>
<path d="M75.443 131.904H79.7305L79.4455 129.789H75.158L75.443 131.904Z" fill="#E0DDDD"/>
<path d="M74.8587 128.176H79.1055L78.807 125.967H74.5602L74.8587 128.176Z" fill="#E0DDDD"/>
<path d="M74.4803 124.544H78.5371L78.2386 122.334H74.1818L74.4803 124.544Z" fill="#E0DDDD"/>
<path d="M78.3473 153.401H82.6348L82.3498 151.287H78.0623L78.3473 153.401Z" fill="#E0DDDD"/>
<path d="M75.9326 135.279H80.1387L79.8402 133.069H75.6341L75.9326 135.279Z" fill="#E0DDDD"/>
<path d="M76.3961 138.911H80.6836L80.3851 136.702H76.0976L76.3961 138.911Z" fill="#E0DDDD"/>
<path d="M76.9097 142.544H81.1836L80.8851 140.335H76.6112L76.9097 142.544Z" fill="#E0DDDD"/>
<path d="M77.7493 149.66H81.9961L81.6976 147.464H77.4644L77.7493 149.66Z" fill="#E0DDDD"/>
<path d="M77.3689 146.028H81.4258L81.1273 143.832H77.0704L77.3689 146.028Z" fill="#E0DDDD"/>
<path d="M93.1094 91.66H114.289L114.004 89.5455H92.8244L93.1094 91.66Z" fill="#E0DDDD"/>
<path d="M89.3799 95.3333H111.713L111.414 93.1375H89.095L89.3799 95.3333Z" fill="#E0DDDD"/>
<path d="M83.5448 98.966H109.555L109.256 96.7701H83.2462L83.5448 98.966Z" fill="#E0DDDD"/>
<path d="M80.2207 102.599H101.916L101.618 100.403H79.9222L80.2207 102.599Z" fill="#E0DDDD"/>
<path d="M101.049 120.721H118.199L117.914 118.607H100.764L101.049 120.721Z" fill="#E0DDDD"/>
<path d="M100.776 124.408H113.326L113.028 122.199H100.477L100.776 124.408Z" fill="#E0DDDD"/>
<path d="M96.2853 128.041H108.293L107.994 125.831H95.9867L96.2853 128.041Z" fill="#E0DDDD"/>
<path d="M88.3331 131.673H103.529L103.231 129.464H88.0346L88.3331 131.673Z" fill="#E0DDDD"/>
<path d="M100.641 106.231H115.973L115.674 104.035H100.342L100.641 106.231Z" fill="#E0DDDD"/>
<path d="M81.5778 109.864H105.268L104.983 107.668H81.2793L81.5778 109.864Z" fill="#E0DDDD"/>
<path d="M101.412 113.496H116.758L116.459 111.287H101.127L101.412 113.496Z" fill="#E0DDDD"/>
<path d="M82.3494 117.129H106.053L105.754 114.92H82.0644L82.3494 117.129Z" fill="#E0DDDD"/>
<path d="M101.087 135.252H120.15L119.865 133.137H100.802L101.087 135.252Z" fill="#E0DDDD"/>
<path d="M88.7422 138.939H119.881L119.582 136.729H88.4437L88.7422 138.939Z" fill="#E0DDDD"/>
<path d="M88.8341 142.571H106.717L106.418 140.362H88.5356L88.8341 142.571Z" fill="#E0DDDD"/>
<path d="M96.3393 149.836H116.936L116.637 147.627H96.0408L96.3393 149.836Z" fill="#E0DDDD"/>
<path d="M85.268 145.919H102.418L102.119 143.71H84.9695L85.268 145.919Z" fill="#E0DDDD"/>
<path d="M92.7961 153.469H109.023L108.725 151.26H92.5111L92.7961 153.469Z" fill="#E0DDDD"/>
<path d="M4.07355 218.667C11.0882 223.33 25.5789 230.188 52.7828 228.521C54.6416 228.413 56.3648 229.511 57.0161 231.273L58.6307 237.806C61.3714 248.867 66.5408 259.182 73.7319 267.979L78.7792 274.146C78.9285 274.322 78.7928 274.593 78.5621 274.566L60.0824 273.197C31.481 269.388 9.25655 254.926 2.11976 228.603L0.125244 221.852C-0.308929 220.226 2.67603 217.732 4.07355 218.667Z" fill="black"/>
<path d="M78.6687 274.526C78.7636 274.526 78.8722 274.499 78.9536 274.431C79.1435 274.282 79.1707 273.997 79.0214 273.794L74.2048 267.816C67.0137 259.033 61.7764 248.555 59.0357 237.508L57.4618 231.151C57.4618 231.137 57.4482 231.124 57.4482 231.097C56.7156 229.145 54.8432 227.925 52.7673 228.047C27.1915 229.619 11.439 222.584 4.32936 218.26C3.24391 217.596 1.94138 217.664 0.923782 218.423C-0.0938187 219.196 -0.527992 220.443 -0.188789 221.676L1.71074 228.697C5.02134 240.924 11.6425 250.995 21.4115 258.626C30.5835 265.796 42.2385 270.649 56.0643 273.021C56.3085 273.062 56.5392 272.899 56.5799 272.655C56.6206 272.411 56.4578 272.181 56.2135 272.14C27.9377 267.287 8.88821 251.767 2.57908 228.467L0.67955 221.446C0.394623 220.402 0.896645 219.575 1.46651 219.141C2.0228 218.721 2.94541 218.477 3.86804 219.033C11.0727 223.425 27.0016 230.541 52.8351 228.955C54.504 228.847 56.01 229.836 56.607 231.395L58.1809 237.725C60.9488 248.894 66.2539 259.507 73.5264 268.385L78.343 274.349C78.3973 274.471 78.533 274.526 78.6687 274.526Z" fill="black"/>
<path d="M57.0867 146.516C63.0295 143.032 63.83 132.554 59.4204 130.277C55.4449 128.217 50.5333 130.467 44.3734 133.395C41.4427 134.791 37.1959 134.723 32.6778 135.604C11.8644 139.671 12.8413 164.95 33.2612 181.31C47.969 193.089 56.6118 152.032 56.6118 152.032L57.0867 146.516Z" fill="black"/>
<path d="M52.459 148.983C52.8389 145.58 56.448 145.404 57.0857 146.516C58.6189 149.227 59.3516 151.111 59.5958 152.263C59.9214 153.808 58.4968 155.353 59.2702 157.007C60.0436 158.661 61.2375 160.545 61.3597 163.527C61.4682 166.441 64.3989 179.792 54.1008 179.372C53.6937 179.359 53.3545 179.67 53.3681 180.077C53.3952 182.11 53.5038 187.708 53.9515 190.731C54.1957 192.385 53.1781 193.943 51.5771 194.404C47.4524 195.583 39.7729 197.224 34.0336 195.353C32.5411 194.865 31.7542 193.211 32.2833 191.72C32.9617 189.823 33.9115 184.482 33.2874 181.31C33.2874 181.31 36.7337 180.972 40.5598 179.196C46.4484 176.471 49.3519 169.843 47.7238 163.527C47.371 162.171 46.6112 160.233 47.4117 158.186C48.6464 154.974 50.261 155.679 51.3329 156.736C51.7671 157.156 52.4862 156.844 52.4862 156.248L52.459 148.983Z" fill="white"/>
<path d="M40.0724 196.654C44.4685 196.654 48.9052 195.638 51.6867 194.838C53.4912 194.323 54.6581 192.534 54.3731 190.663C53.939 187.695 53.8304 182.273 53.8033 180.063C53.8033 179.968 53.844 179.914 53.8847 179.874C53.939 179.819 54.0068 179.792 54.0746 179.806C56.5847 179.914 58.5657 179.223 59.936 177.746C62.9753 174.492 62.2969 168.311 61.9441 165.004C61.8763 164.381 61.822 163.838 61.8084 163.486C61.7134 160.911 60.818 159.094 60.0853 157.63C59.936 157.346 59.8004 157.061 59.6782 156.79C59.3255 156.017 59.5426 155.231 59.7868 154.404C59.9903 153.672 60.2074 152.927 60.0446 152.127C59.8411 151.138 59.2169 149.321 57.4938 146.258C57.1139 145.58 56.0556 145.255 54.943 145.485C53.3148 145.824 52.2294 147.098 52.0394 148.901C52.0394 148.915 52.0394 148.928 52.0394 148.955V156.221C52.0394 156.37 51.9445 156.424 51.9037 156.438C51.8495 156.465 51.7545 156.478 51.6595 156.383C50.8319 155.57 50.0178 155.245 49.2444 155.421C48.3489 155.611 47.5891 156.492 47.0057 158.01C46.273 159.921 46.775 161.724 47.1549 163.052C47.2092 163.256 47.2635 163.445 47.3042 163.622C48.8917 169.816 45.9881 176.187 40.3981 178.762C36.694 180.484 33.302 180.836 33.2748 180.836C33.1527 180.85 33.0306 180.917 32.9628 181.012C32.8814 181.107 32.8542 181.243 32.8814 181.365C33.4919 184.469 32.5422 189.714 31.8909 191.544C31.5924 192.385 31.6331 193.293 32.0401 194.106C32.4336 194.892 33.0984 195.475 33.9261 195.746C35.7985 196.41 37.9287 196.654 40.0724 196.654ZM54.0611 178.925C53.7626 178.925 53.4641 179.047 53.247 179.25C53.0163 179.467 52.8942 179.765 52.8942 180.09C52.9214 182.3 53.0299 187.776 53.4777 190.799C53.6812 192.222 52.8128 193.577 51.4289 193.97C47.3992 195.123 39.7875 196.763 34.1432 194.919C33.5462 194.729 33.0713 194.309 32.7864 193.726C32.5015 193.144 32.4607 192.479 32.6778 191.869C33.3427 189.999 34.2653 185.011 33.7768 181.69C34.8623 181.527 37.6573 181.012 40.7101 179.602C46.7072 176.837 49.8143 170.019 48.1183 163.418C48.064 163.228 48.0097 163.039 47.9555 162.835C47.6027 161.575 47.1549 159.989 47.7791 158.362C48.2404 157.156 48.7967 156.465 49.3665 156.329C49.9364 156.207 50.547 156.654 50.9676 157.061C51.2932 157.386 51.7681 157.468 52.1887 157.292C52.6093 157.115 52.8807 156.709 52.8807 156.248V149.01C53.1113 146.963 54.6174 146.502 55.0787 146.407C55.8521 146.245 56.5033 146.461 56.6661 146.733C58.43 149.85 58.9591 151.585 59.122 152.344C59.2441 152.913 59.0677 153.537 58.8777 154.188C58.6199 155.096 58.3214 156.112 58.8234 157.197C58.9591 157.481 59.0948 157.766 59.2441 158.064C59.9632 159.515 60.7773 161.155 60.8722 163.54C60.8858 163.92 60.9401 164.448 61.0215 165.113C61.3743 168.284 62.0119 174.194 59.2576 177.149C58.0772 178.41 56.3269 179.006 54.0882 178.925C54.0882 178.925 54.0746 178.925 54.0611 178.925Z" fill="black"/>
<path d="M61.3726 162.334C61.454 162.334 61.5354 162.307 61.6033 162.266C65.9722 159.623 62.4852 152.222 62.336 151.897C62.2817 151.788 62.1867 151.707 62.0782 151.666C61.9696 151.626 61.8475 151.639 61.739 151.694L52.0785 156.411C51.8614 156.519 51.7665 156.79 51.875 157.007C51.9835 157.224 52.2549 157.319 52.472 157.21L61.7118 152.697C62.3495 154.228 64.2898 159.582 61.142 161.494C60.9249 161.616 60.857 161.9 60.9927 162.104C61.0741 162.266 61.2234 162.334 61.3726 162.334Z" fill="black"/>
<path d="M61.6447 166.197C61.7532 166.197 61.8753 166.156 61.9567 166.061L63.2728 164.747C63.9512 164.069 64.0326 163.025 63.4763 162.239L62.5673 160.965C62.418 160.762 62.1467 160.721 61.9431 160.856C61.7396 161.006 61.6989 161.277 61.8346 161.48L62.7437 162.754C63.0422 163.174 62.9879 163.744 62.6351 164.096L61.319 165.411C61.1426 165.587 61.1426 165.872 61.319 166.048C61.414 166.156 61.5225 166.197 61.6447 166.197Z" fill="black"/>
<path d="M51.0339 167.349C52.038 167.349 52.7571 166.834 52.7978 166.807C53.0013 166.658 53.042 166.373 52.8928 166.183C52.7435 165.98 52.4586 165.939 52.2686 166.089C52.2279 166.116 51.4952 166.644 50.5455 166.4C49.65 166.17 48.8359 165.329 48.1575 163.906C48.049 163.689 47.7776 163.581 47.5605 163.689C47.3298 163.798 47.2484 164.069 47.3434 164.286C48.1575 165.98 49.1615 166.983 50.342 167.268C50.5726 167.336 50.8168 167.349 51.0339 167.349Z" fill="black"/>
<path d="M187.84 157.725L160.433 157.901C160.256 157.901 160.202 158.064 160.202 158.227V181.514C160.202 183.75 144.639 189.538 144.477 189.24L144.463 191.707C144.463 192.168 144.87 192.574 145.386 192.574H145.725C145.725 192.574 145.725 192.574 145.738 192.574H168.709C169.781 192.574 170.826 192.33 171.789 191.937L184.421 186.624C186.7 185.661 188.125 183.615 188.125 181.378V158.064C188.125 157.901 188.016 157.725 187.84 157.725Z" fill="white"/>
<path d="M157.434 156.546V179.846C157.434 182.137 155.955 184.238 153.635 185.228L145.114 188.86C144.558 189.104 144.748 189.836 145.359 189.836H168.764C169.822 189.836 170.853 189.633 171.803 189.226L181.246 185.255C183.593 184.265 185.086 182.164 185.086 179.86V156.546C185.086 156.451 185.005 156.37 184.896 156.37H157.624C157.516 156.37 157.434 156.451 157.434 156.546Z" fill="black"/>
<path d="M145.36 190.283H168.765C169.864 190.283 170.99 190.067 171.981 189.646L181.424 185.675C183.921 184.618 185.535 182.34 185.535 179.873V156.559C185.535 156.221 185.25 155.936 184.897 155.936H157.626C157.273 155.936 156.988 156.221 156.988 156.559V179.86C156.988 181.961 155.604 183.913 153.46 184.821L144.94 188.454C144.505 188.643 144.261 189.064 144.356 189.511C144.438 189.958 144.858 190.283 145.36 190.283ZM184.64 156.817V179.86C184.64 181.974 183.242 183.926 181.085 184.834L171.641 188.806C170.746 189.185 169.756 189.375 168.765 189.375H145.347C145.265 189.375 145.225 189.335 145.211 189.307C145.211 189.294 145.211 189.28 145.265 189.253L153.786 185.621C156.269 184.563 157.856 182.286 157.856 179.833V156.817H184.64Z" fill="black"/>
<path d="M228.533 91.4161C230.568 91.4161 232.399 93.4764 232.142 95.496L222.82 168.176C222.685 169.206 221.586 170.074 220.555 170.074L104.534 169.884C103.3 169.884 102.472 168.854 102.621 167.62L112.268 93.5984C112.404 92.5682 113.082 91.4161 114.113 91.4161H228.533Z" fill="black"/>
<path d="M220.553 170.358C221.842 170.358 223.104 169.287 223.267 168.068L232.588 95.3876C232.724 94.3032 232.344 93.1646 231.543 92.2565C230.729 91.3347 229.644 90.8061 228.531 90.8061H114.126C112.85 90.8061 111.995 92.1345 111.833 93.3815L102.186 167.403C102.091 168.149 102.294 168.867 102.756 169.382C103.203 169.884 103.827 170.168 104.533 170.168L111.398 170.182C111.453 170.209 111.521 170.223 111.575 170.223L220.553 170.358ZM228.531 91.7143C229.373 91.7143 230.227 92.1345 230.865 92.8529C231.503 93.5713 231.801 94.4523 231.693 95.2792L222.371 167.959C222.277 168.732 221.395 169.464 220.553 169.464L111.765 169.328C111.711 169.301 111.643 169.287 111.588 169.287L104.547 169.274C104.099 169.274 103.705 169.111 103.434 168.799C103.136 168.474 103.013 168.013 103.081 167.525L112.728 93.4899C112.837 92.6089 113.393 91.7007 114.126 91.7007H228.531V91.7143Z" fill="black"/>
<path d="M225.166 94.4116C227.039 94.4116 228.721 96.3093 228.49 98.1663L219.915 165.018C219.793 165.967 218.776 166.766 217.826 166.766L108.21 166.59C107.07 166.59 106.31 165.641 106.46 164.516L115.333 96.4177C115.455 95.4689 116.079 94.4116 117.029 94.4116H225.166Z" fill="white"/>
<path d="M212.104 103.778H168.103L168.401 101.582H212.402L212.104 103.778Z" fill="#E0DDDD"/>
<path d="M221.6 107.411H176.771L177.07 105.215H221.898L221.6 107.411Z" fill="#E0DDDD"/>
<path d="M215.698 111.043H192.537L192.835 108.847H215.996L215.698 111.043Z" fill="#E0DDDD"/>
<path d="M208.194 132.839H164.193L164.491 130.643H208.492L208.194 132.839Z" fill="#E0DDDD"/>
<path d="M217.692 136.472H172.863L173.148 134.276H217.977L217.692 136.472Z" fill="#E0DDDD"/>
<path d="M217.205 140.118H188.617L188.916 137.909H217.49L217.205 140.118Z" fill="#E0DDDD"/>
<path d="M198.399 143.588H171.738L172.036 141.392H198.697L198.399 143.588Z" fill="#E0DDDD"/>
<path d="M210.639 114.676H166.638L166.936 112.48H210.938L210.639 114.676Z" fill="#E0DDDD"/>
<path d="M220.133 118.309H175.304L175.603 116.113H220.432L220.133 118.309Z" fill="#E0DDDD"/>
<path d="M208.344 125.574H190.584L190.868 123.378H208.643L208.344 125.574Z" fill="#E0DDDD"/>
<path d="M213.162 129.206H195.402L195.7 127.011H213.461L213.162 129.206Z" fill="#E0DDDD"/>
<path d="M219.649 121.941H191.074L191.359 119.745H219.947L219.649 121.941Z" fill="#E0DDDD"/>
<path d="M206.243 147.383H162.241L162.54 145.174H206.541L206.243 147.383Z" fill="#E0DDDD"/>
<path d="M214.287 151.016H170.897L171.195 148.807H214.586L214.287 151.016Z" fill="#E0DDDD"/>
<path d="M215.235 154.649H186.66L186.959 152.439H215.533L215.235 154.649Z" fill="#E0DDDD"/>
<path d="M204.774 158.281H160.772L161.071 156.072H205.059L204.774 158.281Z" fill="#E0DDDD"/>
<path d="M214.26 161.914H169.431L169.73 159.704H214.559L214.26 161.914Z" fill="#E0DDDD"/>
<path d="M161.022 129.166H156.748L157.033 127.051H161.307L161.022 129.166Z" fill="#E0DDDD"/>
<path d="M164.6 103.778H160.136L160.435 101.582H164.898L164.6 103.778Z" fill="#E0DDDD"/>
<path d="M165.049 100.443H160.585L160.884 98.2341H165.348L165.049 100.443Z" fill="#E0DDDD"/>
<path d="M164.086 107.411H159.649L159.948 105.215H164.371L164.086 107.411Z" fill="#E0DDDD"/>
<path d="M163.434 111.043H159.228L159.526 108.847H163.732L163.434 111.043Z" fill="#E0DDDD"/>
<path d="M162.973 114.676H158.685L158.984 112.48H163.271L162.973 114.676Z" fill="#E0DDDD"/>
<path d="M162.459 118.308H158.185L158.484 116.113H162.758L162.459 118.308Z" fill="#E0DDDD"/>
<path d="M161.617 125.438H157.371L157.669 123.229H161.902L161.617 125.438Z" fill="#E0DDDD"/>
<path d="M161.996 121.806H157.94L158.238 119.596H162.295L161.996 121.806Z" fill="#E0DDDD"/>
<path d="M159.541 140.199H155.254L155.539 138.085H159.826L159.541 140.199Z" fill="#E0DDDD"/>
<path d="M160.123 136.472H155.877L156.175 134.262H160.422L160.123 136.472Z" fill="#E0DDDD"/>
<path d="M160.502 132.839H156.445L156.744 130.63H160.801L160.502 132.839Z" fill="#E0DDDD"/>
<path d="M156.651 161.697H152.363L152.648 159.582H156.936L156.651 161.697Z" fill="#E0DDDD"/>
<path d="M159.069 143.574H154.863L155.161 141.365H159.367L159.069 143.574Z" fill="#E0DDDD"/>
<path d="M158.59 147.207H154.316L154.615 144.998H158.889L158.59 147.207Z" fill="#E0DDDD"/>
<path d="M158.088 150.84H153.801L154.099 148.63H158.387L158.088 150.84Z" fill="#E0DDDD"/>
<path d="M157.233 157.956H152.986L153.284 155.76H157.531L157.233 157.956Z" fill="#E0DDDD"/>
<path d="M157.614 154.323H153.557L153.855 152.127H157.912L157.614 154.323Z" fill="#E0DDDD"/>
<path d="M141.885 99.9556H120.705L120.99 97.8411H142.17L141.885 99.9556Z" fill="#E0DDDD"/>
<path d="M145.604 103.629H123.284L123.569 101.433H145.902L145.604 103.629Z" fill="#E0DDDD"/>
<path d="M151.438 107.262H125.428L125.726 105.066H151.736L151.438 107.262Z" fill="#E0DDDD"/>
<path d="M154.776 110.894H133.067L133.365 108.698H155.074L154.776 110.894Z" fill="#E0DDDD"/>
<path d="M133.951 129.017H116.788L117.073 126.902H134.236L133.951 129.017Z" fill="#E0DDDD"/>
<path d="M134.207 132.704H121.67L121.969 130.494H134.506L134.207 132.704Z" fill="#E0DDDD"/>
<path d="M138.713 136.336H126.692L126.99 134.127H138.998L138.713 136.336Z" fill="#E0DDDD"/>
<path d="M146.662 139.969H131.453L131.751 137.759H146.947L146.662 139.969Z" fill="#E0DDDD"/>
<path d="M134.356 114.527H119.01L119.309 112.331H134.654L134.356 114.527Z" fill="#E0DDDD"/>
<path d="M153.42 118.173H129.717L130.015 115.964H153.719L153.42 118.173Z" fill="#E0DDDD"/>
<path d="M133.569 121.792H118.223L118.522 119.596H133.867L133.569 121.792Z" fill="#E0DDDD"/>
<path d="M152.633 125.425H128.93L129.228 123.229H152.932L152.633 125.425Z" fill="#E0DDDD"/>
<path d="M133.906 143.561H114.83L115.115 141.433H134.191L133.906 143.561Z" fill="#E0DDDD"/>
<path d="M146.256 147.234H115.104L115.402 145.025H146.555L146.256 147.234Z" fill="#E0DDDD"/>
<path d="M146.147 150.867H128.264L128.563 148.657H146.445L146.147 150.867Z" fill="#E0DDDD"/>
<path d="M138.645 158.132H118.049L118.347 155.923H138.943L138.645 158.132Z" fill="#E0DDDD"/>
<path d="M149.727 154.215H132.577L132.862 152.005H150.012L149.727 154.215Z" fill="#E0DDDD"/>
<path d="M142.184 161.765H125.957L126.255 159.555H142.482L142.184 161.765Z" fill="#E0DDDD"/>
<path d="M230.125 109.959C220.9 109.932 213.444 102.44 213.471 93.2249C213.498 84.0096 220.997 76.5608 230.222 76.5875C239.446 76.6142 246.902 84.1063 246.875 93.3216C246.849 102.537 239.349 109.986 230.125 109.959Z" fill="white"/>
<path d="M230.172 110.42C239.602 110.42 247.295 102.761 247.322 93.3271C247.336 88.7457 245.558 84.4353 242.329 81.1957C239.1 77.9426 234.799 76.1534 230.213 76.1399C230.199 76.1399 230.186 76.1399 230.159 76.1399C220.715 76.1399 213.036 83.7982 213.009 93.2323C212.981 102.68 220.661 110.392 230.118 110.42C230.131 110.42 230.145 110.42 230.172 110.42ZM230.172 77.0345C230.186 77.0345 230.199 77.0345 230.226 77.0345C234.568 77.048 238.652 78.7424 241.705 81.8193C244.771 84.8962 246.44 88.9761 246.427 93.3136C246.413 97.6511 244.717 101.731 241.637 104.781C238.571 107.831 234.5 109.498 230.172 109.498C230.159 109.498 230.145 109.498 230.118 109.498C221.149 109.471 213.877 102.165 213.904 93.2051C213.931 84.2862 221.217 77.0345 230.172 77.0345Z" fill="black"/>
<path d="M240.838 93.2865L235.14 95.4282L235.126 97.7731L243.213 94.2082V92.3512L235.153 88.7457L235.14 91.0907L240.838 93.2865Z" fill="black"/>
<path d="M231.897 100.538H233.742L228.261 85.3028H226.415L231.897 100.538Z" fill="black"/>
<path d="M218.776 93.1645L224.746 90.9958V88.6915L216.402 92.2564V94.1133L224.719 97.7189V95.4146L218.776 93.1645Z" fill="black"/>
</g>
<defs>
<clipPath id="clip0_2948_3548">
<rect width="247" height="275" fill="white" transform="matrix(-1 0 0 1 247 0)"/>
</clipPath>
</defs>
</svg>
