<svg width="396" height="283" viewBox="0 0 396 283" fill="none" xmlns="http://www.w3.org/2000/svg">
<g clip-path="url(#clip0_2948_4003)">
<path d="M109.91 79.0359C111.042 76.1265 109.601 72.8367 106.689 71.7058C106.473 71.6235 106.257 71.5516 106.031 71.5002C106.329 69.1768 106.278 66.8533 105.887 64.6122C106.103 64.5505 106.319 64.4682 106.535 64.3757C109.406 63.1215 110.702 59.7803 109.447 56.912C108.192 54.0539 104.848 52.7483 101.977 54.0025C101.761 54.0951 101.565 54.2082 101.37 54.3212C99.981 52.5119 98.3039 50.8978 96.3902 49.551C96.4931 49.3557 96.5959 49.1398 96.6783 48.9239C97.81 46.0145 96.3696 42.7247 93.4578 41.5938C90.5461 40.463 87.2536 41.9022 86.1219 44.8117C86.0396 45.0276 85.9675 45.2434 85.9161 45.4696C83.5908 45.1715 81.2655 45.2229 79.0225 45.6136C78.9608 45.3977 78.8785 45.1818 78.7859 44.9659C77.5306 42.1079 74.1868 40.8022 71.3162 42.0565C68.4456 43.3107 67.1492 46.6519 68.4044 49.5202C68.497 49.7361 68.6102 49.9314 68.7234 50.1267C66.9125 51.5146 65.2972 53.1904 63.9493 55.1026C63.7538 54.9998 63.5378 54.897 63.3217 54.8147C60.41 53.6838 57.1175 55.1231 55.9857 58.0326C54.854 60.942 56.2944 64.2318 59.2062 65.3626C59.4222 65.4449 59.6383 65.5169 59.8646 65.5683C59.5663 67.8917 59.6177 70.2151 60.0087 72.4563C59.7926 72.518 59.5766 72.6002 59.3605 72.6927C56.4899 73.947 55.1935 77.2882 56.4487 80.1565C57.704 83.0145 61.0479 84.3201 63.9185 83.0659C64.1345 82.9734 64.33 82.8603 64.5255 82.7472C65.9145 84.5566 67.5916 86.1706 69.5053 87.5174C69.4024 87.7127 69.2995 87.9286 69.2172 88.1445C68.0855 91.0539 69.5259 94.3437 72.4377 95.4746C75.3494 96.6055 78.6418 95.1662 79.7736 92.2568C79.8559 92.0409 79.928 91.825 79.9794 91.5988C82.3047 91.897 84.63 91.8456 86.873 91.4549C86.9347 91.6708 87.017 91.8867 87.1096 92.1026C88.3648 94.9606 91.7087 96.2662 94.5793 95.012C97.4499 93.7578 98.7463 90.4165 97.4911 87.5482C97.3985 87.3324 97.2853 87.137 97.1721 86.9417C98.983 85.5538 100.598 83.8781 101.946 81.9659C102.142 82.0687 102.358 82.1715 102.574 82.2537C105.486 83.3949 108.778 81.9556 109.91 79.0359ZM92.7479 72.3535C90.6387 77.7611 84.5374 80.4443 79.1151 78.3265C73.7032 76.219 71.0178 70.1226 73.127 64.715C75.2362 59.3074 81.3375 56.6241 86.7598 58.7419C92.182 60.8494 94.8674 66.9459 92.7479 72.3535Z" fill="white"/>
<path d="M74.4953 96.0915C73.7854 96.0915 73.0651 95.9578 72.3655 95.6905C69.3406 94.5082 67.8384 91.0951 69.0113 88.0623C69.0731 87.9081 69.1451 87.7539 69.2274 87.5894C67.4371 86.3043 65.8423 84.7725 64.4842 83.0453C64.3196 83.1379 64.1653 83.2098 64.0212 83.2715C61.0477 84.5771 57.5598 83.2201 56.2531 80.249C55.6152 78.8097 55.5843 77.2059 56.1605 75.7461C56.7367 74.276 57.8376 73.1245 59.278 72.4974C59.4221 72.4357 59.5867 72.374 59.7616 72.3124C59.4015 70.1431 59.3604 67.9328 59.6176 65.743C59.4427 65.6916 59.278 65.6402 59.1237 65.5785C57.6524 65.0028 56.5 63.9028 55.8621 62.4635C55.2242 61.0242 55.1934 59.4204 55.7695 57.9606C56.9528 54.9381 60.3687 53.4371 63.4039 54.6091C63.5582 54.6708 63.7125 54.7325 63.8772 54.825C65.1633 53.0362 66.6963 51.4427 68.4249 50.0856C68.3323 49.9211 68.2602 49.7669 68.1985 49.623C67.5606 48.1837 67.5297 46.5799 68.1059 45.1201C68.6821 43.6499 69.783 42.4985 71.2234 41.8714C74.1969 40.5658 77.6849 41.9228 78.9915 44.8939C79.0533 45.0378 79.115 45.2023 79.1767 45.3771C81.3477 45.0173 83.5598 44.9761 85.7513 45.2434C85.8028 45.0687 85.8542 44.9042 85.916 44.75C87.0992 41.7275 90.5151 40.2265 93.5503 41.3985C96.5752 42.5808 98.0774 45.9939 96.9045 49.0267C96.8427 49.1809 96.781 49.3351 96.6884 49.4996C98.4787 50.7847 100.073 52.3165 101.432 54.0437C101.596 53.9511 101.751 53.8792 101.895 53.8175C104.868 52.5119 108.356 53.8689 109.663 56.84C110.301 58.2793 110.331 59.8831 109.755 61.3429C109.179 62.813 108.078 63.9645 106.638 64.5916C106.494 64.6533 106.329 64.715 106.154 64.7766C106.514 66.9459 106.555 69.1562 106.298 71.346C106.473 71.3974 106.638 71.4488 106.792 71.5105C109.817 72.6927 111.319 76.1059 110.146 79.1387C108.963 82.1612 105.547 83.6622 102.512 82.4902C102.358 82.4285 102.203 82.3668 102.039 82.2743C100.753 84.0631 99.2195 85.6566 97.4909 87.0137C97.5835 87.1781 97.6556 87.3221 97.7173 87.4763C98.3552 88.9156 98.3861 90.5194 97.8099 91.9792C97.2337 93.4493 96.1328 94.6008 94.6924 95.2279C91.7189 96.5335 88.2309 95.1765 86.9243 92.2054C86.8625 92.0614 86.8008 91.897 86.7391 91.7222C84.5681 92.082 82.356 92.1231 80.1645 91.8558C80.113 92.0306 80.0616 92.1951 79.9998 92.3493C79.0841 94.6624 76.8514 96.0915 74.4953 96.0915ZM64.5254 82.521C64.5974 82.521 64.6591 82.5519 64.7003 82.6135C66.0996 84.4229 67.7561 86.0164 69.6287 87.3324C69.7213 87.394 69.7521 87.5277 69.7007 87.6202C69.5875 87.8361 69.4949 88.0314 69.4229 88.2165C68.3323 91.0128 69.7213 94.169 72.5198 95.2587C75.3184 96.3485 78.4771 94.9606 79.5677 92.1643C79.6397 91.9792 79.7015 91.7736 79.7632 91.5371C79.7941 91.424 79.897 91.3521 80.0101 91.3726C82.284 91.6708 84.5784 91.6194 86.842 91.2287C86.9551 91.2082 87.0683 91.2801 87.0992 91.3829C87.1712 91.6194 87.2432 91.825 87.3255 91.9998C88.5293 94.7447 91.7497 95.9989 94.4969 94.7961C95.8241 94.2101 96.853 93.1512 97.3778 91.7942C97.9025 90.4371 97.8716 88.967 97.2852 87.6305C97.2029 87.4454 97.1 87.2501 96.9765 87.0445C96.9148 86.9417 96.9456 86.8183 97.0279 86.7464C98.8388 85.3482 100.434 83.693 101.751 81.8219C101.812 81.7294 101.946 81.6986 102.039 81.75C102.255 81.8733 102.45 81.9556 102.635 82.0275C105.434 83.1173 108.593 81.7294 109.683 78.9331C110.774 76.1367 109.385 72.9806 106.586 71.8908C106.401 71.8189 106.195 71.7572 105.959 71.6955C105.846 71.6647 105.773 71.5619 105.794 71.4488C106.092 69.1768 106.041 66.8842 105.65 64.6224C105.629 64.5093 105.701 64.3963 105.804 64.3654C106.041 64.2935 106.247 64.2215 106.432 64.1392C107.759 63.5533 108.788 62.4943 109.313 61.1373C109.838 59.7803 109.807 58.3101 109.22 56.9736C108.016 54.2287 104.796 52.9745 102.049 54.1773C101.864 54.2596 101.679 54.3624 101.462 54.4857C101.36 54.5474 101.236 54.5166 101.164 54.4343C99.7854 52.6558 98.1289 51.0623 96.2563 49.7464C96.1637 49.6847 96.1328 49.551 96.1843 49.4585C96.2974 49.2426 96.39 49.0473 96.4621 48.8622C97.5527 46.0659 96.1637 42.9097 93.3651 41.82C90.5665 40.7302 87.4078 42.1181 86.3172 44.9145C86.2452 45.0995 86.1835 45.3051 86.1217 45.5416C86.0909 45.6547 85.988 45.7266 85.8748 45.7061C83.601 45.4079 81.3065 45.4593 79.043 45.85C78.9298 45.8706 78.8166 45.7986 78.7858 45.6958C78.7137 45.4593 78.6417 45.2537 78.5594 45.079C77.3556 42.3237 74.1455 41.0695 71.3983 42.2723C70.0711 42.8583 69.0422 43.9172 68.5175 45.2743C67.9927 46.6313 68.0236 48.1015 68.6101 49.4379C68.6924 49.623 68.785 49.808 68.9187 50.0239C68.9805 50.1267 68.9496 50.2501 68.8673 50.3221C67.0564 51.7202 65.4617 53.3754 64.1447 55.2465C64.0829 55.339 63.9492 55.3699 63.8566 55.3185C63.6405 55.2054 63.445 55.1129 63.2598 55.0409C60.4613 53.9511 57.3026 55.339 56.212 58.1354C55.6872 59.4924 55.7181 60.9625 56.3046 62.299C56.891 63.6252 57.9611 64.6533 59.3089 65.1776C59.4941 65.2496 59.6999 65.3112 59.9365 65.3729C60.0497 65.4038 60.1217 65.5066 60.1012 65.6197C59.8028 67.8917 59.8542 70.1843 60.2452 72.446C60.2658 72.5591 60.1938 72.6722 60.0909 72.703C59.8542 72.775 59.6484 72.8469 59.4735 72.9292C58.1463 73.5152 57.1174 74.5741 56.5926 75.9311C56.0679 77.2882 56.0988 78.7583 56.6852 80.0948C57.889 82.8397 61.1095 84.094 63.8566 82.8911C64.0418 82.8089 64.227 82.7061 64.4431 82.5827C64.4533 82.5313 64.4842 82.521 64.5254 82.521ZM82.9528 79.2826C81.6358 79.2826 80.3085 79.0359 79.043 78.5424C76.3679 77.5041 74.2587 75.4788 73.1063 72.8572C71.9539 70.2254 71.8922 67.316 72.9314 64.643C73.9706 61.97 75.9975 59.8625 78.6211 58.7111C81.2551 57.5596 84.1771 57.498 86.8522 58.5363C89.5273 59.5746 91.6366 61.5999 92.7889 64.2215C93.9413 66.8533 94.003 69.7628 92.9638 72.4357C91.9247 75.1087 89.8978 77.2162 87.2741 78.3676C85.8851 78.9742 84.4138 79.2826 82.9528 79.2826ZM82.9425 58.2484C81.5329 58.2484 80.1336 58.5363 78.8063 59.1223C76.2856 60.2223 74.3512 62.2476 73.3532 64.8075C72.3552 67.3674 72.4169 70.1637 73.5179 72.6825C74.6291 75.2012 76.6457 77.134 79.2076 78.1312C81.7695 79.1284 84.5681 79.0667 87.0889 77.9667C89.6097 76.8667 91.544 74.8414 92.542 72.2815C93.54 69.7216 93.4783 66.9253 92.3774 64.4065C91.2662 61.8878 89.2495 59.955 86.6876 58.9578C85.4735 58.4746 84.208 58.2484 82.9425 58.2484Z" fill="black"/>
<path d="M62.5687 110.556C63.258 108.798 62.3835 106.804 60.6241 106.125C60.4903 106.074 60.3566 106.033 60.2228 106.002C60.408 104.594 60.3669 103.195 60.1302 101.838C60.264 101.797 60.3977 101.756 60.5212 101.694C62.2497 100.934 63.042 98.9187 62.2806 97.1813C61.5192 95.4541 59.4923 94.6625 57.7638 95.4233C57.63 95.485 57.5168 95.5466 57.3934 95.6186C56.5497 94.5289 55.5414 93.5522 54.3787 92.7298C54.4405 92.6064 54.5022 92.483 54.5536 92.3494C55.243 90.5914 54.3684 88.5969 52.5988 87.9184C50.8394 87.2296 48.8433 88.1035 48.1642 89.8615C48.1128 89.9951 48.0716 90.1288 48.0408 90.2624C46.6312 90.0773 45.2319 90.1185 43.8738 90.3446C43.8326 90.211 43.7915 90.0773 43.7297 89.954C42.9684 88.2268 40.9415 87.4352 39.2129 88.196C37.4844 88.9568 36.6921 90.9718 37.4535 92.7092C37.5153 92.8428 37.577 92.9559 37.649 93.0793C36.5584 93.9223 35.581 94.9298 34.7578 96.0915C34.6344 96.0298 34.5109 95.9682 34.3772 95.9167C32.6178 95.2279 30.6217 96.1018 29.9426 97.8598C29.2533 99.6178 30.1278 101.612 31.8975 102.291C32.0313 102.342 32.165 102.383 32.2988 102.414C32.1136 103.823 32.1548 105.221 32.3914 106.578C32.2576 106.619 32.1239 106.66 32.0004 106.722C30.2719 107.482 29.4796 109.497 30.241 111.235C31.0024 112.962 33.0293 113.754 34.7578 112.993C34.8916 112.931 35.0048 112.87 35.1282 112.798C35.9719 113.887 36.9802 114.864 38.1429 115.686C38.0811 115.81 38.0194 115.933 37.968 116.067C37.2786 117.825 38.1532 119.819 39.9229 120.498C41.6823 121.187 43.6783 120.313 44.3574 118.555C44.4088 118.421 44.45 118.287 44.4808 118.154C45.8904 118.339 47.2897 118.298 48.6478 118.072C48.689 118.205 48.7301 118.339 48.7919 118.462C49.5532 120.189 51.5802 120.981 53.3087 120.22C55.0372 119.459 55.8295 117.444 55.0681 115.707C55.0063 115.573 54.9446 115.46 54.8726 115.337C55.9632 114.494 56.9407 113.486 57.7638 112.325C57.8872 112.386 58.0107 112.448 58.1445 112.499C59.8936 113.198 61.8896 112.325 62.5687 110.556ZM52.1975 106.516C50.9217 109.785 47.228 111.41 43.9561 110.135C40.6842 108.86 39.0586 105.169 40.3344 101.9C41.6102 98.6308 45.3039 97.0065 48.5758 98.2813C51.8477 99.5561 53.4733 103.247 52.1975 106.516Z" fill="white"/>
<path d="M41.1588 120.96C40.7061 120.96 40.2637 120.878 39.8315 120.714C38.9261 120.364 38.2059 119.675 37.8149 118.781C37.4239 117.887 37.4033 116.9 37.7532 115.985C37.784 115.913 37.8149 115.841 37.8561 115.758C36.8066 114.998 35.8806 114.103 35.0781 113.096C35.006 113.137 34.934 113.168 34.862 113.199C33.0203 114.011 30.8596 113.168 30.0468 111.327C29.6558 110.433 29.6352 109.446 29.9851 108.531C30.3349 107.626 31.0242 106.907 31.9194 106.516C31.9914 106.485 32.0634 106.454 32.1457 106.424C31.94 105.149 31.9194 103.853 32.0634 102.579C31.9811 102.558 31.9091 102.527 31.8268 102.496C29.9542 101.766 29.0179 99.6487 29.7484 97.7673C30.4789 95.8962 32.5984 94.9607 34.4813 95.6906C34.5533 95.7215 34.6254 95.7523 34.7077 95.7934C35.469 94.7448 36.3642 93.8195 37.3725 93.0177C37.3313 92.9457 37.3005 92.8737 37.2696 92.8018C36.8786 91.9073 36.858 90.9204 37.2079 90.0054C37.5577 89.1007 38.247 88.3811 39.1422 87.9904C40.9839 87.1783 43.1445 88.0213 43.9574 89.8615C43.9882 89.9335 44.0191 90.0054 44.05 90.0877C45.3258 89.8821 46.6222 89.8615 47.898 90.0054C47.9186 89.9232 47.9494 89.8512 47.9803 89.7793C48.7108 87.9082 50.8303 86.9726 52.7132 87.7026C54.5858 88.4325 55.5221 90.5503 54.7916 92.4317C54.7607 92.5036 54.7298 92.5756 54.6887 92.6578C55.7381 93.4186 56.6641 94.313 57.4667 95.3205C57.5387 95.2794 57.6107 95.2486 57.6827 95.2177C59.5244 94.4055 61.6851 95.2486 62.4979 97.0888C62.8889 97.9832 62.9095 98.9701 62.5597 99.8851C62.2098 100.79 61.5205 101.509 60.6253 101.9C60.5533 101.931 60.4813 101.962 60.399 101.993C60.6048 103.267 60.6253 104.563 60.4813 105.838C60.5636 105.858 60.6356 105.889 60.7179 105.92C61.6234 106.269 62.3436 106.958 62.7346 107.853C63.1255 108.747 63.1461 109.734 62.7963 110.649C62.4465 111.554 61.7571 112.273 60.862 112.664C59.9669 113.055 58.9791 113.075 58.0634 112.726C57.9914 112.695 57.9194 112.664 57.8371 112.633C57.0757 113.671 56.1805 114.607 55.1722 115.409C55.2134 115.481 55.2443 115.553 55.2751 115.625C55.6661 116.519 55.6867 117.506 55.3369 118.421C54.987 119.326 54.2977 120.045 53.4026 120.436C51.5608 121.248 49.4002 120.405 48.5874 118.565C48.5565 118.493 48.5256 118.421 48.4948 118.339C47.2189 118.544 45.9328 118.565 44.6467 118.421C44.6261 118.503 44.5953 118.575 44.5644 118.658C44.2146 119.562 43.5252 120.282 42.6301 120.673C42.1568 120.858 41.6527 120.96 41.1588 120.96ZM35.1192 112.582C35.1912 112.582 35.253 112.613 35.2941 112.674C36.1378 113.764 37.1358 114.72 38.2573 115.512C38.3499 115.573 38.3808 115.707 38.3293 115.8C38.2573 115.933 38.2059 116.046 38.1647 116.149C37.8561 116.941 37.8766 117.815 38.2162 118.596C38.5557 119.377 39.1936 119.984 39.9859 120.292C40.7781 120.601 41.6527 120.58 42.4346 120.241C43.2166 119.902 43.8236 119.274 44.1323 118.473C44.1734 118.359 44.2146 118.246 44.2455 118.102C44.2763 117.989 44.3792 117.917 44.4924 117.938C45.8608 118.113 47.2395 118.082 48.5976 117.856C48.7108 117.835 48.824 117.907 48.8549 118.01C48.896 118.144 48.9372 118.267 48.9886 118.38C49.6986 119.994 51.5917 120.734 53.2071 120.025C53.989 119.686 54.5961 119.058 54.9047 118.257C55.2134 117.465 55.1928 116.591 54.8533 115.81C54.8018 115.707 54.7504 115.594 54.6681 115.46C54.6064 115.357 54.6372 115.234 54.7195 115.162C55.8102 114.319 56.767 113.322 57.5593 112.201C57.621 112.109 57.7547 112.078 57.8473 112.129C57.9811 112.201 58.0943 112.253 58.1972 112.294C58.9894 112.602 59.864 112.582 60.6459 112.242C61.4279 111.903 62.0349 111.276 62.3436 110.474C62.6523 109.683 62.6317 108.809 62.2921 108.027C61.9526 107.246 61.3147 106.639 60.5225 106.331C60.4093 106.29 60.2961 106.249 60.1521 106.218C60.0389 106.187 59.9669 106.084 59.9874 105.971C60.1623 104.604 60.1315 103.226 59.9051 101.869C59.8845 101.756 59.9566 101.643 60.0595 101.612C60.1932 101.571 60.3167 101.53 60.4299 101.479C61.2118 101.139 61.8189 100.512 62.1275 99.7104C62.4362 98.9187 62.4156 98.0449 62.0761 97.2636C61.3661 95.6495 59.473 94.9093 57.8576 95.6187C57.7445 95.6701 57.6313 95.7215 57.5078 95.7934C57.4049 95.8551 57.2815 95.8243 57.2094 95.742C56.3658 94.6523 55.3677 93.6962 54.2462 92.9046C54.1536 92.8429 54.1228 92.7092 54.1742 92.6167C54.2462 92.4933 54.2977 92.37 54.3388 92.2672C54.9768 90.6223 54.1639 88.7615 52.5177 88.1241C50.8715 87.4867 49.0092 88.2988 48.3713 89.9437C48.3301 90.0568 48.289 90.1802 48.2581 90.3138C48.2272 90.4269 48.1244 90.4989 48.0112 90.4783C46.6428 90.3036 45.2641 90.3344 43.9059 90.5606C43.7927 90.5811 43.6796 90.5092 43.6487 90.4064C43.6075 90.2727 43.5664 90.1494 43.5149 90.0363C42.805 88.4222 40.9119 87.682 39.2965 88.3914C38.5145 88.7306 37.9075 89.3578 37.5988 90.1596C37.2902 90.9512 37.3107 91.8251 37.6503 92.6064C37.7017 92.7195 37.7532 92.8326 37.8355 92.956C37.8972 93.0588 37.8663 93.1821 37.784 93.2541C36.6934 94.0971 35.7365 95.0841 34.9443 96.2149C34.8826 96.3075 34.7488 96.3383 34.6562 96.2869C34.5225 96.2149 34.4093 96.1635 34.3064 96.1224C32.6602 95.485 30.7979 96.2972 30.16 97.9421C29.5221 99.587 30.3349 101.448 31.9811 102.085C32.0943 102.126 32.2075 102.167 32.3515 102.198C32.4647 102.229 32.5367 102.332 32.5161 102.445C32.3412 103.812 32.3721 105.19 32.5984 106.547C32.619 106.66 32.547 106.773 32.4441 106.804C32.3001 106.845 32.1869 106.886 32.0737 106.938C31.2918 107.277 30.6847 107.904 30.376 108.706C30.0674 109.498 30.088 110.371 30.4275 111.153C31.1374 112.767 33.0306 113.507 34.6459 112.798C34.7488 112.746 34.862 112.695 34.9958 112.623C35.0472 112.592 35.0883 112.582 35.1192 112.582ZM46.2621 110.803C45.4492 110.803 44.6467 110.649 43.8648 110.351C40.4797 109.035 38.7923 105.21 40.1196 101.818C40.7575 100.183 42.0025 98.8879 43.6075 98.1785C45.2229 97.4692 47.0132 97.4383 48.6491 98.0757C50.285 98.7131 51.5814 99.9571 52.2914 101.561C53.0013 103.175 53.0424 104.964 52.3942 106.598C51.7563 108.233 50.5114 109.528 48.9063 110.238C48.0626 110.608 47.1675 110.803 46.2621 110.803ZM46.2621 98.0757C45.4287 98.0757 44.585 98.2505 43.7927 98.6C42.2906 99.258 41.1382 100.461 40.5415 101.993C39.3171 105.139 40.881 108.706 44.0294 109.94C45.5521 110.536 47.2292 110.495 48.7314 109.837C50.2336 109.179 51.3859 107.976 51.9827 106.444C52.5794 104.923 52.5383 103.247 51.8798 101.746C51.2213 100.245 50.0175 99.0935 48.4845 98.4972C47.7642 98.2094 47.0132 98.0757 46.2621 98.0757Z" fill="black"/>
<path d="M292.838 265.736C299.017 265.736 304.027 261.209 304.027 255.624C304.027 250.038 299.017 245.511 292.838 245.511C286.658 245.511 281.648 250.038 281.648 255.624C281.648 261.209 286.658 265.736 292.838 265.736Z" fill="white"/>
<path d="M292.837 266.054C286.499 266.054 281.33 261.38 281.33 255.624C281.33 249.867 286.484 245.193 292.837 245.193C299.175 245.193 304.344 249.867 304.344 255.624C304.344 261.38 299.175 266.054 292.837 266.054ZM292.837 245.828C286.845 245.828 281.965 250.228 281.965 255.624C281.965 261.019 286.845 265.419 292.837 265.419C298.829 265.419 303.709 261.019 303.709 255.624C303.709 250.228 298.829 245.828 292.837 245.828Z" fill="black"/>
<path d="M307.391 237.432H278.27V255.537H307.391V237.432Z" fill="white"/>
<path d="M307.392 255.854H278.271C278.098 255.854 277.953 255.71 277.953 255.537V237.432C277.953 237.259 278.098 237.115 278.271 237.115H307.392C307.565 237.115 307.709 237.259 307.709 237.432V255.537C307.709 255.725 307.565 255.854 307.392 255.854ZM278.588 255.22H307.074V237.75H278.588V255.22Z" fill="black"/>
<path d="M333.812 187.532C333.812 164.911 315.462 146.59 292.838 146.59C270.214 146.59 251.863 164.926 251.863 187.532C251.863 204.973 262.793 219.861 278.169 225.761V237.432H307.507V225.761C322.883 219.875 333.812 204.987 333.812 187.532Z" fill="white"/>
<path d="M307.507 237.749H278.169C277.996 237.749 277.851 237.605 277.851 237.432V225.978C270.228 223.006 263.702 217.884 258.981 211.162C254.116 204.208 251.531 196.043 251.531 187.532C251.531 164.782 270.055 146.273 292.823 146.273C315.592 146.273 334.115 164.782 334.115 187.532C334.115 196.043 331.546 204.208 326.68 211.162C321.959 217.884 315.447 223.006 307.81 225.978V237.432C307.824 237.605 307.68 237.749 307.507 237.749ZM278.487 237.115H307.189V225.761C307.189 225.631 307.276 225.516 307.391 225.458C322.998 219.471 333.495 204.223 333.495 187.517C333.495 165.113 315.26 146.893 292.838 146.893C270.416 146.893 252.181 165.113 252.181 187.517C252.181 204.223 262.677 219.471 278.284 225.458C278.414 225.502 278.487 225.617 278.487 225.761V237.115Z" fill="black"/>
<path d="M307.29 246.376H278.386C278.213 246.376 278.068 246.232 278.068 246.059C278.068 245.886 278.213 245.742 278.386 245.742H307.29C307.464 245.742 307.608 245.886 307.608 246.059C307.608 246.232 307.464 246.376 307.29 246.376Z" fill="black"/>
<path d="M290.497 232.614C290.353 232.614 290.223 232.513 290.18 232.354L278.673 175.976C278.644 175.803 278.745 175.63 278.918 175.601C279.092 175.572 279.25 175.673 279.294 175.846L290.801 232.224C290.829 232.397 290.728 232.57 290.555 232.599C290.541 232.614 290.526 232.614 290.497 232.614Z" fill="black"/>
<path d="M295.16 232.614C295.146 232.614 295.117 232.614 295.102 232.614C294.929 232.585 294.813 232.412 294.857 232.239L306.364 175.861C306.393 175.688 306.566 175.572 306.739 175.616C306.912 175.644 307.028 175.818 306.985 175.991L295.478 232.368C295.434 232.513 295.304 232.614 295.16 232.614Z" fill="black"/>
<path d="M291.523 181.112C291.509 181.112 291.494 181.112 291.48 181.112C291.335 181.098 291.22 180.982 291.205 180.852L289.559 170.812L286.585 176.784C286.528 176.885 286.426 176.957 286.297 176.957H282.976C282.803 176.957 282.658 176.813 282.658 176.64C282.658 176.467 282.803 176.323 282.976 176.323H286.094L289.415 169.643C289.473 169.513 289.603 169.441 289.747 169.47C289.877 169.485 289.993 169.6 290.007 169.73L291.639 179.655L295.363 170.841C295.421 170.725 295.522 170.639 295.667 170.653C295.797 170.653 295.912 170.74 295.955 170.87L297.89 176.337H302.294C302.467 176.337 302.611 176.481 302.611 176.654C302.611 176.828 302.467 176.972 302.294 176.972H297.674C297.544 176.972 297.414 176.885 297.37 176.755L295.638 171.851L291.797 180.925C291.754 181.04 291.639 181.112 291.523 181.112Z" fill="black"/>
<path d="M214.484 126.538C214.368 123.148 213.444 119.772 211.553 116.93C209.676 114.102 206.832 112.155 204.551 109.659C203.324 108.317 202.313 106.788 201.836 105.028C201.302 103.081 201.403 101.018 201.678 99.0413C202.197 95.1895 204.262 86.3751 200.422 79.8833C197.058 74.1849 190.272 71.141 183.818 71.5161C180.165 71.7325 176.614 72.9299 173.452 74.7476C170.247 76.5941 167.576 79.0754 165.136 81.8309C162.681 84.5863 160.27 87.5725 156.949 89.3469C153.917 90.9627 150.423 91.3954 147.045 91.7272C143.71 92.0446 140.274 92.2466 137.097 93.4151C134.296 94.4394 131.972 96.2571 130.355 98.7528C127.164 103.643 126.702 109.717 124.71 115.098C123.714 117.824 122.27 120.421 119.974 122.282C117.231 124.504 113.723 125.297 110.301 125.744C106.807 126.206 103.255 126.321 99.8045 127.172C96.7437 127.923 93.885 129.351 91.4162 131.298C86.4784 135.193 83.0567 141.079 82.3059 147.355C81.4829 154.164 84.1251 160.872 88.4853 166.051C93.3508 171.836 100.093 175.529 107.269 177.664C114.546 179.843 122.255 180.651 129.835 180.708C137.025 180.752 144.23 180.016 151.275 178.53C158.321 177.044 165.208 174.822 171.791 171.908C178.375 168.994 184.655 165.402 190.459 161.175C196.336 156.905 201.909 151.971 206.543 146.359C211.163 140.748 214.758 133.982 214.484 126.538Z" fill="black"/>
<path d="M144.011 209.46C144.011 209.46 129.472 243.52 129.66 283.683H248.613L203.841 202.91L144.011 209.46Z" fill="white"/>
<path d="M248.628 284C248.513 284 248.412 283.942 248.354 283.841L203.683 203.256L144.243 209.777C143.146 212.446 129.805 245.511 129.993 283.697C129.993 283.87 129.848 284.014 129.675 284.014C129.502 284.014 129.358 283.87 129.358 283.697C129.155 243.924 143.579 209.69 143.738 209.359C143.781 209.258 143.882 209.186 143.998 209.171L203.842 202.607C203.972 202.593 204.088 202.65 204.16 202.766L248.931 283.538C249.018 283.697 248.96 283.885 248.802 283.971C248.729 283.986 248.672 284 248.628 284Z" fill="black"/>
<path d="M185.548 282.384C185.534 282.384 185.519 282.384 185.505 282.384C185.332 282.37 185.202 282.211 185.231 282.023L187.035 267.352C187.584 262.894 190.515 259.071 194.687 257.383L196.391 256.691C196.55 256.619 196.738 256.705 196.81 256.864C196.882 257.023 196.795 257.21 196.636 257.282L194.933 257.975C190.977 259.576 188.205 263.197 187.685 267.424L185.88 282.096C185.851 282.269 185.707 282.384 185.548 282.384Z" fill="black"/>
<path d="M250.794 114.218C250.794 114.218 268.683 115.04 279.323 107.798L266.243 76.7671C266.243 76.7671 267.744 74.7475 266.806 72.0065C265.882 69.2655 263.788 65.8753 260.872 68.0248C260.872 68.0248 258.562 64.8944 256.642 68.977C256.642 68.977 253.263 64.6203 250.289 70.8812L246.261 63.0478C245.611 61.7783 244.081 61.2157 242.752 61.7639C241.482 62.2976 240.789 63.697 241.164 65.0242L245.308 80.1717C245.308 80.1717 242.305 84.9612 243.431 88.6976C244.557 92.4629 250.794 114.218 250.794 114.218Z" fill="white"/>
<path d="M250.795 114.535C250.65 114.535 250.535 114.449 250.492 114.304C250.434 114.088 244.24 92.5062 243.128 88.8131C242.06 85.2643 244.5 80.9364 244.962 80.143L240.862 65.1252C240.457 63.6393 241.223 62.0813 242.637 61.4898C244.096 60.8839 245.814 61.5043 246.55 62.918L250.304 70.2033C251.286 68.3567 252.426 67.3613 253.682 67.217C254.996 67.0728 256.079 67.9239 256.584 68.4433C257.205 67.2892 257.941 66.6689 258.764 66.5823C259.761 66.4813 260.584 67.217 260.945 67.621C261.811 67.0584 262.663 66.9141 263.5 67.1738C265.536 67.8229 266.72 70.7082 267.124 71.92C267.961 74.3725 266.951 76.2623 266.619 76.8105L279.627 107.683C279.699 107.841 279.613 108.029 279.454 108.101C279.295 108.173 279.107 108.087 279.035 107.928L265.954 76.897C265.911 76.7961 265.926 76.6807 265.998 76.5797C266.056 76.5075 267.384 74.6466 266.518 72.1075C265.723 69.7705 264.525 68.1403 263.298 67.7508C262.59 67.5344 261.84 67.7075 261.06 68.2702C260.916 68.3711 260.728 68.3423 260.612 68.198C260.598 68.1836 259.775 67.0872 258.808 67.1882C258.129 67.2603 257.494 67.8951 256.931 69.1069C256.888 69.2079 256.786 69.28 256.685 69.2944C256.584 69.3089 256.469 69.2656 256.397 69.179C256.382 69.1646 255.198 67.6787 253.74 67.8374C252.599 67.9672 251.531 69.0348 250.593 71.0256C250.535 71.141 250.434 71.1987 250.304 71.2131C250.174 71.2131 250.073 71.141 250.015 71.04L245.987 63.2066C245.409 62.0957 244.052 61.5908 242.897 62.0813C241.771 62.543 241.165 63.7836 241.482 64.9666L245.626 80.1141C245.655 80.2007 245.64 80.2872 245.583 80.3593C245.554 80.4026 242.666 85.0623 243.749 88.6256C244.861 92.3331 251.055 113.915 251.112 114.131C251.156 114.304 251.069 114.477 250.896 114.521C250.853 114.521 250.824 114.535 250.795 114.535Z" fill="black"/>
<path d="M254.158 93.5017C254.043 93.5017 253.927 93.4296 253.869 93.3142C253.797 93.1555 253.869 92.9679 254.028 92.8958C254.938 92.4919 255.212 91.2801 255.082 90.328C254.995 89.7365 254.808 89.1739 254.606 88.5824C254.447 88.1063 254.274 87.6158 254.172 87.1109C253.653 84.6873 254.692 81.9607 256.685 80.4893C256.973 80.2729 257.277 80.0853 257.58 79.9122C258.027 79.6381 258.432 79.3784 258.793 79.0466C259.283 78.5994 259.774 77.806 259.529 77.0702C259.37 76.5942 258.894 76.1902 258.287 76.0316C257.739 75.8729 257.147 75.9017 256.425 76.0027C252.642 76.4643 249.061 77.9502 246.044 80.2729C245.9 80.3739 245.712 80.3594 245.596 80.2152C245.495 80.0709 245.51 79.8834 245.654 79.7679C248.758 77.3732 252.454 75.844 256.338 75.3679C257.017 75.2814 257.753 75.2381 258.446 75.4257C259.255 75.6421 259.89 76.2047 260.121 76.8827C260.453 77.907 259.832 78.9457 259.211 79.5227C258.807 79.8978 258.345 80.1719 257.897 80.4604C257.609 80.6335 257.32 80.8211 257.06 81.0086C255.255 82.3358 254.331 84.7883 254.793 86.9811C254.894 87.4571 255.053 87.9332 255.212 88.3804C255.414 88.9863 255.631 89.5922 255.717 90.2558C255.891 91.4388 255.515 92.9535 254.302 93.4873C254.245 93.4873 254.201 93.5017 254.158 93.5017Z" fill="black"/>
<path d="M252.008 76.8826C251.863 76.8826 251.733 76.7816 251.704 76.6373C251.3 74.7619 250.708 72.901 249.957 71.141C249.885 70.9823 249.957 70.7947 250.131 70.7226C250.29 70.6505 250.477 70.7226 250.549 70.8957C251.315 72.699 251.921 74.5888 252.34 76.5075C252.383 76.6806 252.268 76.8537 252.094 76.8826C252.051 76.8826 252.022 76.8826 252.008 76.8826Z" fill="black"/>
<path d="M258.778 76.0314C258.648 76.0314 258.518 75.9449 258.475 75.815L256.266 69.3954C256.208 69.2367 256.295 69.0491 256.468 68.9914C256.641 68.9337 256.814 69.0203 256.872 69.1934L259.081 75.6131C259.139 75.7718 259.052 75.9593 258.879 76.017C258.85 76.0314 258.821 76.0314 258.778 76.0314Z" fill="black"/>
<path d="M261.464 80.7921C260.959 80.7921 260.453 80.5901 260.063 80.2439C259.674 79.8976 259.457 79.436 259.457 78.9599C259.457 78.7868 259.601 78.6426 259.775 78.6426C259.948 78.6426 260.092 78.7868 260.092 78.9599C260.092 79.2485 260.222 79.537 260.482 79.7678C260.785 80.0419 261.218 80.1862 261.608 80.1429C262.316 80.0563 262.98 79.4793 263.297 78.657C263.615 77.8203 263.572 76.8681 263.485 76.1324C263.211 73.4924 262.301 70.939 260.858 68.7173C260.756 68.5731 260.8 68.3711 260.944 68.2845C261.089 68.1835 261.291 68.2268 261.377 68.3711C262.879 70.6793 263.817 73.3337 264.106 76.0747C264.193 76.8826 264.236 77.9357 263.875 78.8878C263.485 79.9265 262.619 80.6622 261.666 80.7776C261.608 80.7776 261.536 80.7921 261.464 80.7921Z" fill="black"/>
<path d="M263.831 78.7868C263.658 78.7868 263.514 78.6425 263.514 78.4839C263.514 78.3107 263.644 78.1665 263.817 78.1665C264.539 78.1521 265.246 77.7337 265.593 77.0989C265.679 76.9402 265.867 76.897 266.026 76.9835C266.185 77.0701 266.228 77.2576 266.141 77.4163C265.694 78.2098 264.784 78.758 263.831 78.7868Z" fill="black"/>
<mask id="path-26-inside-1_2948_4003" fill="white">
<path fill-rule="evenodd" clip-rule="evenodd" d="M250.796 114.218L279.325 107.798C287.526 126.018 294.773 145.811 283.498 155.967C276.158 162.583 249.174 163.681 231.807 163.668C229.811 172.807 226.496 180.333 226.496 180.333C226.496 180.333 219.61 199.708 213.863 208.334C208.132 216.961 181.104 219.342 150.712 215.677C120.321 211.999 141.227 177.102 141.227 177.102C133.705 188.383 127.136 198.077 122.588 204.728C117.91 211.58 109.031 214.249 101.407 210.96C89.3374 205.752 83.0425 193.028 90.2325 160.483C91.2308 155.973 95.4209 155.685 100.004 155.369C103.44 155.133 107.098 154.881 109.796 152.822C122.992 142.738 137.747 136.376 146.193 133.232C150.409 131.659 154.842 130.765 159.346 130.577C166.149 130.291 177.636 129.993 189.259 130.101C189.222 130.053 189.184 130.005 189.146 129.957C214.889 130.332 253.12 129.005 253.12 129.005L250.796 114.218Z"/>
</mask>
<path fill-rule="evenodd" clip-rule="evenodd" d="M250.796 114.218L279.325 107.798C287.526 126.018 294.773 145.811 283.498 155.967C276.158 162.583 249.174 163.681 231.807 163.668C229.811 172.807 226.496 180.333 226.496 180.333C226.496 180.333 219.61 199.708 213.863 208.334C208.132 216.961 181.104 219.342 150.712 215.677C120.321 211.999 141.227 177.102 141.227 177.102C133.705 188.383 127.136 198.077 122.588 204.728C117.91 211.58 109.031 214.249 101.407 210.96C89.3374 205.752 83.0425 193.028 90.2325 160.483C91.2308 155.973 95.4209 155.685 100.004 155.369C103.44 155.133 107.098 154.881 109.796 152.822C122.992 142.738 137.747 136.376 146.193 133.232C150.409 131.659 154.842 130.765 159.346 130.577C166.149 130.291 177.636 129.993 189.259 130.101C189.222 130.053 189.184 130.005 189.146 129.957C214.889 130.332 253.12 129.005 253.12 129.005L250.796 114.218Z" fill="#5479F7"/>
<path d="M279.325 107.798L280.237 107.388L279.902 106.643L279.105 106.822L279.325 107.798ZM250.796 114.218L250.576 113.242L249.663 113.448L249.808 114.373L250.796 114.218ZM283.498 155.967L282.828 155.224L282.828 155.225L283.498 155.967ZM231.807 163.668L231.807 162.668L231.001 162.667L230.83 163.455L231.807 163.668ZM226.496 180.333L225.581 179.93L225.567 179.964L225.554 179.998L226.496 180.333ZM213.863 208.334L213.031 207.78L213.031 207.781L213.863 208.334ZM150.712 215.677L150.592 216.67L150.593 216.67L150.712 215.677ZM141.227 177.102L142.085 177.616L140.395 176.547L141.227 177.102ZM122.588 204.728L121.762 204.163L121.762 204.164L122.588 204.728ZM101.407 210.96L101.011 211.878H101.011L101.407 210.96ZM90.2325 160.483L89.2562 160.267L89.2561 160.267L90.2325 160.483ZM100.004 155.369L100.072 156.367H100.072L100.004 155.369ZM109.796 152.822L110.402 153.617L110.403 153.617L109.796 152.822ZM146.193 133.232L146.542 134.169L146.543 134.168L146.193 133.232ZM159.346 130.577L159.388 131.576L159.388 131.576L159.346 130.577ZM189.259 130.101L189.25 131.101L191.321 131.121L190.048 129.487L189.259 130.101ZM189.146 129.957L189.161 128.957L187.074 128.926L188.358 130.572L189.146 129.957ZM253.12 129.005L253.155 130.004L254.284 129.965L254.108 128.849L253.12 129.005ZM279.105 106.822L250.576 113.242L251.015 115.193L279.545 108.774L279.105 106.822ZM284.167 156.71C290.18 151.294 291.152 143.373 289.701 134.741C288.25 126.106 284.337 116.498 280.237 107.388L278.413 108.209C282.513 117.318 286.325 126.717 287.729 135.073C289.133 143.431 288.091 150.484 282.828 155.224L284.167 156.71ZM231.806 164.668C240.504 164.674 251.635 164.403 261.524 163.297C266.467 162.744 271.126 161.98 275.027 160.929C278.896 159.886 282.15 158.528 284.167 156.71L282.828 155.225C281.175 156.715 278.304 157.975 274.507 158.998C270.741 160.013 266.193 160.763 261.301 161.31C251.521 162.403 240.476 162.674 231.807 162.668L231.806 164.668ZM226.496 180.333C227.412 180.736 227.412 180.736 227.412 180.736C227.412 180.736 227.412 180.736 227.412 180.736C227.412 180.735 227.412 180.735 227.413 180.734C227.413 180.733 227.414 180.731 227.415 180.729C227.417 180.725 227.419 180.719 227.423 180.711C227.429 180.695 227.439 180.673 227.452 180.643C227.478 180.583 227.516 180.496 227.564 180.381C227.66 180.153 227.8 179.818 227.973 179.388C228.319 178.529 228.801 177.29 229.345 175.764C230.433 172.713 231.774 168.505 232.784 163.881L230.83 163.455C229.844 167.971 228.53 172.095 227.461 175.092C226.927 176.59 226.456 177.803 226.118 178.641C225.949 179.059 225.814 179.384 225.722 179.603C225.675 179.712 225.64 179.795 225.616 179.85C225.604 179.878 225.595 179.898 225.589 179.911C225.587 179.918 225.584 179.923 225.583 179.926C225.582 179.928 225.582 179.929 225.582 179.93C225.581 179.93 225.581 179.93 225.581 179.93C225.581 179.93 225.581 179.93 225.581 179.93C225.581 179.93 225.581 179.93 226.496 180.333ZM214.696 208.889C217.63 204.484 220.82 197.4 223.259 191.48C224.484 188.507 225.528 185.806 226.266 183.848C226.635 182.869 226.928 182.075 227.129 181.525C227.229 181.251 227.306 181.037 227.359 180.892C227.385 180.819 227.405 180.763 227.418 180.726C227.425 180.707 227.43 180.693 227.433 180.683C227.435 180.678 227.436 180.675 227.437 180.672C227.438 180.671 227.438 180.67 227.438 180.669C227.438 180.669 227.439 180.669 227.439 180.668C227.439 180.668 227.439 180.668 226.496 180.333C225.554 179.998 225.554 179.998 225.554 179.998C225.554 179.998 225.554 179.999 225.554 179.999C225.554 179.999 225.554 180 225.553 180.001C225.552 180.004 225.551 180.007 225.55 180.011C225.546 180.02 225.541 180.034 225.535 180.052C225.522 180.089 225.503 180.143 225.477 180.214C225.425 180.357 225.349 180.568 225.25 180.84C225.051 181.383 224.761 182.171 224.395 183.143C223.662 185.087 222.625 187.768 221.41 190.718C218.969 196.642 215.843 203.558 213.031 207.78L214.696 208.889ZM150.593 216.67C165.84 218.509 180.274 218.835 191.643 217.609C197.324 216.997 202.276 215.993 206.192 214.577C210.081 213.171 213.087 211.31 214.696 208.888L213.031 207.781C211.774 209.673 209.252 211.344 205.512 212.696C201.799 214.039 197.019 215.018 191.428 215.621C180.252 216.826 165.976 216.511 150.832 214.685L150.593 216.67ZM141.227 177.102C140.369 176.588 140.369 176.588 140.368 176.589C140.368 176.589 140.368 176.59 140.367 176.591C140.366 176.592 140.365 176.594 140.364 176.596C140.361 176.601 140.357 176.609 140.351 176.618C140.34 176.636 140.325 176.663 140.304 176.698C140.264 176.767 140.205 176.869 140.13 177.001C139.98 177.264 139.766 177.649 139.505 178.138C138.984 179.116 138.276 180.515 137.522 182.204C136.019 185.574 134.317 190.142 133.585 194.856C132.854 199.556 133.065 204.541 135.555 208.619C138.073 212.742 142.787 215.725 150.592 216.67L150.833 214.685C143.442 213.79 139.372 211.032 137.262 207.577C135.125 204.077 134.864 199.648 135.561 195.164C136.256 190.694 137.881 186.308 139.348 183.019C140.08 181.38 140.767 180.023 141.27 179.079C141.522 178.606 141.727 178.238 141.869 177.988C141.94 177.864 141.995 177.769 142.031 177.706C142.05 177.675 142.063 177.651 142.072 177.636C142.077 177.629 142.08 177.623 142.082 177.62C142.083 177.618 142.084 177.617 142.084 177.616C142.085 177.616 142.085 177.616 142.085 177.615C142.085 177.615 142.085 177.616 141.227 177.102ZM123.413 205.292C127.963 198.639 134.535 188.941 142.059 177.656L140.395 176.547C132.875 187.825 126.308 197.516 121.762 204.163L123.413 205.292ZM101.011 211.878C109.083 215.361 118.471 212.532 123.414 205.292L121.762 204.164C117.348 210.629 108.978 213.137 101.804 210.042L101.011 211.878ZM89.2561 160.267C85.6479 176.599 85.3855 188.106 87.6336 196.239C89.903 204.45 94.7156 209.162 101.011 211.878L101.804 210.042C96.0292 207.55 91.6593 203.297 89.5613 195.707C87.442 188.039 87.6271 176.912 91.209 160.698L89.2561 160.267ZM99.9349 154.372C97.6898 154.526 95.3286 154.68 93.4131 155.421C92.4318 155.8 91.5283 156.347 90.7956 157.153C90.0597 157.964 89.5386 158.991 89.2562 160.267L91.2089 160.699C91.4256 159.72 91.8026 159.02 92.2763 158.498C92.7533 157.973 93.3709 157.582 94.1348 157.286C95.7096 156.677 97.7347 156.528 100.072 156.367L99.9349 154.372ZM109.189 152.027C106.774 153.871 103.447 154.13 99.9349 154.372L100.072 156.367C103.434 156.136 107.422 155.892 110.402 153.617L109.189 152.027ZM145.845 132.294C137.355 135.455 122.496 141.859 109.189 152.028L110.403 153.617C123.487 143.618 138.14 137.297 146.542 134.169L145.845 132.294ZM159.305 129.578C154.695 129.77 150.159 130.685 145.844 132.295L146.543 134.168C150.66 132.633 154.988 131.759 159.388 131.576L159.305 129.578ZM189.268 129.101C177.625 128.993 166.121 129.291 159.304 129.578L159.388 131.576C166.178 131.29 177.646 130.993 189.25 131.101L189.268 129.101ZM188.358 130.572C188.396 130.62 188.433 130.668 188.47 130.716L190.048 129.487C190.01 129.438 189.973 129.39 189.935 129.341L188.358 130.572ZM253.12 129.005C253.086 128.005 253.086 128.005 253.085 128.005C253.085 128.005 253.085 128.005 253.084 128.005C253.083 128.005 253.081 128.005 253.079 128.005C253.074 128.006 253.067 128.006 253.058 128.006C253.04 128.007 253.012 128.008 252.976 128.009C252.903 128.012 252.794 128.015 252.651 128.02C252.365 128.03 251.942 128.044 251.395 128.061C250.3 128.097 248.707 128.147 246.715 128.207C242.73 128.325 237.149 128.479 230.765 128.622C217.992 128.906 202.013 129.144 189.161 128.957L189.132 130.957C202.022 131.144 218.031 130.906 230.809 130.621C237.2 130.479 242.786 130.324 246.774 130.206C248.768 130.146 250.363 130.096 251.46 130.06C252.008 130.043 252.432 130.029 252.718 130.019C252.862 130.014 252.971 130.01 253.044 130.008C253.081 130.007 253.108 130.006 253.127 130.005C253.136 130.005 253.143 130.004 253.148 130.004C253.15 130.004 253.152 130.004 253.153 130.004C253.154 130.004 253.154 130.004 253.155 130.004C253.155 130.004 253.155 130.004 253.12 129.005ZM249.808 114.373L252.133 129.16L254.108 128.849L251.784 114.062L249.808 114.373Z" fill="black" mask="url(#path-26-inside-1_2948_4003)"/>
<path d="M100.498 112.617C96.5707 109.472 92.9035 105.346 90.8678 107.394C88.8465 109.443 94.2462 114.954 94.2462 114.954C88.0524 114.016 84.2841 106.298 81.8586 107.221C79.433 108.144 81.1944 112.025 81.1944 112.025C81.1944 112.025 78.7978 107.163 75.9246 108.952C73.0515 110.741 77.2096 115.877 77.2096 115.877C77.2096 115.877 73.5135 111.563 71.1169 114.925C68.7202 118.286 80.0972 124.864 80.0972 124.864C77.816 123.71 74.091 123.177 73.5135 124.908C72.936 126.639 77.1085 128.485 81.3099 131.068C85.5258 133.65 92.1527 135.352 92.1527 135.352C91.3731 143.878 90.4924 151.322 90.1459 157.583C89.9726 160.569 91.9939 163.267 94.9104 163.945C95.4879 164.075 96.0509 164.19 96.6284 164.306C101.581 165.215 106.677 165.215 111.658 164.594L111.716 164.58C115.022 164.161 117.318 161.089 116.769 157.814C115.484 150.053 112.857 137.531 111.745 129.784C110.315 119.512 104.425 115.761 100.498 112.617Z" fill="white"/>
<path d="M90.2317 160.786C90.0585 160.786 89.9141 160.641 89.9141 160.468C90.0007 153.5 90.5782 145.826 91.8055 135.597C90.506 135.251 84.8609 133.636 81.1359 131.356C80.2408 130.808 79.3601 130.303 78.4938 129.798C75.1009 127.851 72.6609 126.437 73.1951 124.821C73.3539 124.345 73.7149 123.984 74.2635 123.754C75.1298 123.393 76.3714 123.436 77.5842 123.681C74.971 121.936 71.0294 118.964 70.5097 116.526C70.3653 115.862 70.4808 115.256 70.8418 114.752C71.477 113.857 72.2711 113.381 73.1951 113.338C74.0758 113.295 74.9277 113.67 75.6495 114.131C75.0143 112.992 74.4223 111.549 74.6245 110.352C74.74 109.645 75.1153 109.082 75.7506 108.693C76.4581 108.245 77.1944 108.144 77.9452 108.346C78.8836 108.62 79.7066 109.371 80.313 110.106C80.2263 109.457 80.2263 108.75 80.4718 108.144C80.7028 107.567 81.1359 107.149 81.7423 106.918C83.0128 106.428 84.4277 107.798 86.2325 109.544C88.1382 111.39 90.4627 113.641 93.3359 114.434C91.8632 112.775 88.8601 108.981 90.6504 107.178C92.484 105.331 95.2128 107.697 98.3891 110.424C99.1398 111.073 99.9195 111.751 100.714 112.371C101.046 112.645 101.407 112.919 101.768 113.194C105.565 116.151 110.762 120.219 112.119 129.726C112.206 130.361 112.885 134.011 113.664 138.237C114.819 144.513 116.263 152.332 116.436 153.717C116.451 153.89 116.335 154.049 116.162 154.063C115.989 154.077 115.83 153.962 115.816 153.789C115.657 152.433 114.213 144.628 113.058 138.353C112.278 134.126 111.6 130.462 111.513 129.813C110.199 120.551 105.319 116.742 101.407 113.684C101.046 113.396 100.685 113.121 100.353 112.847C99.5585 112.213 98.7789 111.535 98.0137 110.885C95.0828 108.361 92.5562 106.182 91.1413 107.611C89.6542 109.111 93.076 113.251 94.5198 114.723C94.6208 114.824 94.6353 114.968 94.5775 115.083C94.5198 115.199 94.3754 115.271 94.2454 115.256C90.7226 114.723 88.0083 112.097 85.8282 109.991C84.2545 108.476 82.9118 107.163 82.0166 107.51C81.569 107.683 81.2803 107.957 81.107 108.375C80.5584 109.717 81.5257 111.852 81.5257 111.881C81.5979 112.039 81.5257 112.227 81.3669 112.299C81.2081 112.371 81.0204 112.314 80.9482 112.155C80.9338 112.126 79.5911 109.457 77.8152 108.952C77.2377 108.794 76.6746 108.88 76.126 109.226C75.664 109.515 75.3897 109.919 75.303 110.453C74.9565 112.516 77.4687 115.66 77.4976 115.689C77.6131 115.819 77.5842 116.021 77.4543 116.137C77.3243 116.252 77.1222 116.237 77.0067 116.093C76.9923 116.064 75.0865 113.886 73.2673 113.973C72.5599 114.001 71.9246 114.391 71.4048 115.127C71.145 115.487 71.0728 115.906 71.1738 116.396C71.8957 119.729 80.1975 124.547 80.2841 124.59C80.4285 124.677 80.4862 124.864 80.3996 125.023C80.313 125.167 80.1253 125.239 79.9809 125.153C78.3783 124.345 75.8517 123.811 74.5523 124.331C74.1769 124.489 73.9459 124.706 73.8448 125.009C73.4694 126.119 75.9672 127.562 78.8547 129.236C79.721 129.726 80.6017 130.245 81.5113 130.794C85.6261 133.318 92.2097 135.02 92.2675 135.035C92.4263 135.078 92.5273 135.222 92.4985 135.381C91.2568 145.725 90.6649 153.457 90.5782 160.468C90.5494 160.641 90.4194 160.786 90.2317 160.786Z" fill="black"/>
<path d="M83.9671 126.985C83.9238 126.985 83.8661 126.971 83.8227 126.956L80.3577 125.153C80.1989 125.066 80.1411 124.879 80.2277 124.72C80.3144 124.561 80.5021 124.504 80.6609 124.59L84.1259 126.394C84.2848 126.48 84.3425 126.668 84.2559 126.826C84.1837 126.913 84.0826 126.985 83.9671 126.985Z" fill="black"/>
<path d="M86.5497 121.618C86.5064 121.618 86.4631 121.604 86.4342 121.59C83.2723 120.291 80.2982 118.56 77.5839 116.454C77.4395 116.353 77.425 116.151 77.5261 116.007C77.6272 115.862 77.8293 115.848 77.9737 115.949C80.6302 118.012 83.5611 119.714 86.6652 120.998C86.824 121.07 86.9107 121.243 86.8385 121.416C86.7952 121.546 86.6797 121.618 86.5497 121.618Z" fill="black"/>
<path d="M89.6117 117.55C89.5828 117.55 89.5395 117.55 89.5106 117.536C86.522 116.569 83.7067 114.954 81.3533 112.847C81.2233 112.732 81.2089 112.53 81.3244 112.4C81.4399 112.27 81.642 112.256 81.772 112.371C84.0532 114.405 86.7963 115.978 89.6983 116.93C89.8716 116.988 89.9582 117.161 89.9005 117.334C89.8716 117.464 89.7417 117.55 89.6117 117.55Z" fill="black"/>
<path d="M95.6026 124.908C95.4438 124.908 95.2994 124.792 95.285 124.619C95.1695 123.537 95.3572 122.47 95.5449 121.445C95.6315 120.998 95.7181 120.522 95.7759 120.06C95.9058 119.036 95.9202 117.175 94.7075 116.18C94.5775 116.064 94.5487 115.862 94.6642 115.733C94.7797 115.603 94.9818 115.574 95.1117 115.689C96.5699 116.887 96.5411 118.993 96.4111 120.133C96.3534 120.609 96.2668 121.085 96.1801 121.546C95.9924 122.585 95.8192 123.552 95.9202 124.533C95.9347 124.706 95.8192 124.864 95.6459 124.879C95.6315 124.908 95.6171 124.908 95.6026 124.908Z" fill="black"/>
<path d="M95.7022 137.516C95.63 137.516 95.5578 137.487 95.5001 137.444C94.706 136.766 93.8108 136.218 92.8435 135.828C92.6847 135.771 92.5981 135.583 92.6703 135.41C92.7425 135.251 92.9157 135.165 93.089 135.237C94.1285 135.655 95.0814 136.232 95.9332 136.954C96.0631 137.069 96.0776 137.271 95.9621 137.401C95.8755 137.473 95.7888 137.516 95.7022 137.516Z" fill="black"/>
<path d="M119.44 184.17C119.266 184.17 119.136 184.041 119.122 183.867L117.837 162.747C117.823 162.574 117.953 162.416 118.14 162.416C118.313 162.401 118.472 162.531 118.472 162.719L119.757 183.839C119.772 184.012 119.642 184.17 119.454 184.17H119.44Z" fill="black"/>
<path d="M177.984 104.682L174.187 126.033C173.884 127.721 172.512 129.005 170.809 129.192L156.559 130.765C156.559 130.765 167.243 139.536 187.658 139.132C208.073 138.728 212.592 130.995 212.592 130.995L196.826 129.264C194.819 129.048 193.317 127.346 193.332 125.326L193.49 112.573C193.49 112.573 182.402 102.23 177.984 104.682Z" fill="white"/>
<path d="M176.7 103.615C175.776 104.177 175.357 105.375 175.574 106.413C175.805 107.466 176.599 108.332 177.58 108.779C178.562 109.226 179.688 109.284 180.742 109.068C181.739 112.443 193.419 118.603 197.201 114.405C199.858 111.462 199.425 103.918 198.458 100.051C197.49 96.1995 195.815 92.5208 195.18 88.6113C190.748 89.6644 186.344 91.1503 182.605 93.7471C181.782 94.3241 180.973 94.9589 180.381 95.7812C179.789 96.6035 179.443 97.6277 179.587 98.6231C179.746 99.6474 180.41 100.513 180.713 101.494C180.944 102.23 180.887 103.975 179.804 104.033C179.313 104.062 178.822 103.485 178.331 103.369C177.797 103.24 177.191 103.312 176.7 103.615Z" fill="white"/>
<path d="M193.404 116.151C192.596 116.151 191.701 116.036 190.733 115.819C186.388 114.824 181.508 111.751 180.54 109.443C179.703 109.573 178.562 109.587 177.451 109.082C176.339 108.577 175.501 107.582 175.27 106.485C175.011 105.274 175.545 103.946 176.541 103.34C177.09 103.009 177.783 102.908 178.432 103.066C178.692 103.124 178.923 103.283 179.154 103.427C179.385 103.571 179.631 103.73 179.804 103.73C179.992 103.716 180.136 103.643 180.251 103.47C180.569 103.009 180.569 102.071 180.425 101.609C180.309 101.22 180.122 100.845 179.934 100.455C179.66 99.8926 179.385 99.33 179.284 98.6808C179.125 97.671 179.428 96.5746 180.136 95.608C180.786 94.6992 181.666 94.0356 182.432 93.5018C185.709 91.2369 189.737 89.5923 195.122 88.3228C195.209 88.3084 195.296 88.3228 195.368 88.3661C195.44 88.4093 195.498 88.4959 195.498 88.5825C195.873 90.8762 196.624 93.1411 197.346 95.3195C197.851 96.8487 198.371 98.4211 198.775 100.008C199.815 104.163 200.103 111.693 197.447 114.651C196.537 115.632 195.151 116.151 193.404 116.151ZM180.742 108.765C180.887 108.765 181.002 108.851 181.046 108.996C181.609 110.914 186.258 114.146 190.878 115.199C192.841 115.646 195.498 115.834 196.97 114.203C199.483 111.419 199.165 104.177 198.154 100.152C197.764 98.5943 197.245 97.0218 196.739 95.5215C196.046 93.4153 195.324 91.2513 194.935 89.0297C189.795 90.2703 185.925 91.8716 182.792 94.0356C182.056 94.5405 181.233 95.1752 180.641 95.9975C180.049 96.8198 179.775 97.772 179.905 98.6087C179.992 99.1569 180.237 99.6618 180.497 100.196C180.685 100.585 180.887 101.003 181.017 101.436C181.19 102.013 181.233 103.167 180.757 103.845C180.526 104.177 180.208 104.365 179.818 104.379C179.443 104.394 179.096 104.177 178.793 103.975C178.606 103.86 178.418 103.73 178.259 103.701C177.768 103.586 177.248 103.658 176.844 103.903C176.064 104.379 175.66 105.403 175.862 106.37C176.05 107.264 176.758 108.087 177.696 108.52C178.764 109.01 179.905 108.938 180.656 108.794C180.699 108.765 180.728 108.765 180.742 108.765Z" fill="black"/>
<path d="M181.622 107.163C181.564 107.163 181.506 107.149 181.463 107.12C180.496 106.543 179.442 106.139 178.344 105.937C178.171 105.908 178.056 105.735 178.085 105.562C178.113 105.389 178.287 105.273 178.46 105.302C179.644 105.519 180.77 105.951 181.795 106.572C181.939 106.658 181.997 106.86 181.896 107.005C181.824 107.12 181.723 107.163 181.622 107.163Z" fill="black"/>
<path d="M202.86 85.9279L178.446 92.6506C176.165 93.2853 174.836 95.6368 175.457 97.9017L177.262 104.451C177.897 106.731 180.251 108.058 182.517 107.437L190.891 105.129C190.631 103.167 191.844 101.277 193.793 100.729C195.757 100.195 197.764 101.205 198.543 103.009L206.917 100.7C209.198 100.08 210.527 97.7142 209.906 95.4492L208.101 88.8997C207.48 86.6348 205.127 85.3076 202.86 85.9279Z" fill="#5479F7"/>
<path d="M178.374 96.9928C178.229 96.9928 178.114 96.9063 178.071 96.762C178.027 96.5889 178.128 96.4158 178.287 96.3725L204.867 89.044C205.04 89.0007 205.214 89.1017 205.257 89.2604C205.3 89.4335 205.199 89.6066 205.04 89.6499L178.46 96.9784C178.432 96.9928 178.403 96.9928 178.374 96.9928Z" fill="black"/>
<path d="M179.399 100.672C179.255 100.672 179.139 100.585 179.096 100.441C179.053 100.268 179.154 100.095 179.313 100.051L205.893 92.7227C206.066 92.6794 206.239 92.7804 206.282 92.9391C206.326 93.1122 206.225 93.2853 206.066 93.3286L179.486 100.657C179.457 100.672 179.428 100.672 179.399 100.672Z" fill="black"/>
<path d="M342.908 126.783C372.332 126.783 396.184 102.95 396.184 73.5502C396.184 44.1505 372.332 20.3174 342.908 20.3174C313.485 20.3174 289.633 44.1505 289.633 73.5502C289.633 102.95 313.485 126.783 342.908 126.783Z" fill="white"/>
<path d="M342.908 127.086C313.353 127.086 289.314 103.066 289.314 73.5357C289.329 44.0197 313.368 20 342.908 20C372.462 20 396.501 44.0197 396.501 73.5502C396.501 103.066 372.462 127.086 342.908 127.086ZM342.908 20.6348C313.714 20.6348 289.95 44.3659 289.95 73.5502C289.95 102.734 313.7 126.466 342.908 126.466C372.101 126.466 395.865 102.734 395.865 73.5502C395.865 44.3659 372.115 20.6348 342.908 20.6348Z" fill="black"/>
<path d="M330.924 104.437C330.852 104.437 330.795 104.422 330.737 104.379L309.21 88.3516C309.123 88.2939 309.08 88.1929 309.08 88.0919V45.0873C309.08 44.9719 309.152 44.8565 309.253 44.7988C309.354 44.7411 309.484 44.7555 309.585 44.8276L331.112 60.8552C331.199 60.9129 331.242 61.0139 331.242 61.1149V104.119C331.242 104.235 331.17 104.35 331.069 104.408C331.026 104.422 330.968 104.437 330.924 104.437ZM309.715 87.9332L330.607 103.485V61.2735L309.715 45.7221V87.9332Z" fill="black"/>
<path d="M378.555 104.437C378.483 104.437 378.425 104.422 378.368 104.379L356.841 88.3516C356.754 88.2939 356.711 88.1929 356.711 88.0919V45.0873C356.711 44.9719 356.783 44.8565 356.884 44.7988C356.985 44.7411 357.115 44.7555 357.216 44.8276L378.743 60.8552C378.83 60.9129 378.873 61.0139 378.873 61.1149V104.119C378.873 104.235 378.801 104.35 378.7 104.408C378.642 104.422 378.599 104.437 378.555 104.437ZM357.346 87.9332L378.238 103.485V61.2735L357.346 45.7221V87.9332Z" fill="black"/>
<path d="M378.553 104.379H330.923C330.75 104.379 330.605 104.235 330.605 104.062V61.1147C330.605 60.9416 330.75 60.7974 330.923 60.7974H378.553C378.727 60.7974 378.871 60.9416 378.871 61.1147V104.062C378.871 104.235 378.727 104.379 378.553 104.379ZM331.241 103.744H378.236V61.4321H331.241V103.744Z" fill="black"/>
<path d="M357.028 88.4092H309.398C309.224 88.4092 309.08 88.2649 309.08 88.0918C309.08 87.9187 309.224 87.7744 309.398 87.7744H357.028C357.201 87.7744 357.346 87.9187 357.346 88.0918C357.346 88.2793 357.201 88.4092 357.028 88.4092Z" fill="black"/>
<path d="M357.028 45.405H309.398C309.224 45.405 309.08 45.2608 309.08 45.0876C309.08 44.9145 309.224 44.7703 309.398 44.7703H357.028C357.201 44.7703 357.346 44.9145 357.346 45.0876C357.346 45.2608 357.201 45.405 357.028 45.405Z" fill="black"/>
<path d="M335.557 65.7481C338.117 63.1904 338.117 59.0435 335.557 56.4858C332.997 53.9281 328.847 53.9281 326.287 56.4858C323.727 59.0435 323.727 63.1904 326.287 65.7481C328.847 68.3058 332.997 68.3058 335.557 65.7481Z" fill="#5479F7"/>
<path d="M337.319 105.584C338.151 102.064 335.969 98.5361 332.446 97.7049C328.923 96.8736 325.393 99.0535 324.561 102.574C323.729 106.094 325.911 109.622 329.434 110.453C332.957 111.284 336.487 109.104 337.319 105.584Z" fill="#5479F7"/>
<path d="M242.638 57.2917C242.465 57.2917 242.32 57.1475 242.32 56.9744V45.0872C242.32 44.914 242.465 44.7698 242.638 44.7698H309.413C309.586 44.7698 309.73 44.914 309.73 45.0872C309.73 45.2603 309.586 45.4045 309.413 45.4045H242.956V56.9744C242.956 57.1475 242.811 57.2917 242.638 57.2917Z" fill="black"/>
<path d="M249.64 62.7259C250.528 58.8589 248.111 55.0042 244.241 54.1162C240.371 53.2283 236.513 55.6432 235.625 59.5102C234.736 63.3772 237.153 67.2318 241.023 68.1198C244.893 69.0078 248.751 66.5928 249.64 62.7259Z" fill="#5479F7"/>
<path d="M357.028 190.734H340.583C340.41 190.734 340.266 190.59 340.266 190.417C340.266 190.244 340.41 190.1 340.583 190.1H356.71V130.058C356.71 129.884 356.855 129.74 357.028 129.74C357.201 129.74 357.346 129.884 357.346 130.058V190.417C357.346 190.59 357.201 190.734 357.028 190.734Z" fill="black"/>
<path d="M42.3251 262.043C65.2497 262.043 83.8338 243.474 83.8338 220.568C83.8338 197.662 65.2497 179.093 42.3251 179.093C19.4005 179.093 0.816406 197.662 0.816406 220.568C0.816406 243.474 19.4005 262.043 42.3251 262.043Z" fill="white"/>
<path d="M42.3263 262.361C19.2547 262.361 0.5 243.607 0.5 220.568C0.5 197.529 19.2547 178.775 42.3263 178.775C65.3979 178.775 84.1526 197.515 84.1526 220.568C84.1382 243.607 65.3835 262.361 42.3263 262.361ZM42.3263 179.41C19.6157 179.41 1.13526 197.875 1.13526 220.568C1.13526 243.26 19.6157 261.726 42.3263 261.726C65.037 261.726 83.5174 243.26 83.5174 220.568C83.5174 197.875 65.037 179.41 42.3263 179.41Z" fill="black"/>
<path d="M25.5077 240.563C25.3778 240.563 25.2622 240.491 25.2189 240.361L15.5023 216.63C15.4301 216.471 15.5167 216.283 15.6756 216.211C15.8344 216.139 16.0221 216.226 16.0942 216.384L25.5077 239.409L40.884 200.761C40.9273 200.645 41.0428 200.559 41.1727 200.559H65.5293C65.7025 200.559 65.8469 200.703 65.8469 200.876C65.8469 201.049 65.7025 201.194 65.5293 201.194H41.3893L25.7964 240.361C25.7531 240.491 25.6376 240.563 25.5077 240.563Z" fill="black"/>
<path d="M58.5978 240.563C58.4823 240.563 58.3812 240.505 58.3234 240.39L44.3332 214.48C44.2466 214.321 44.3043 214.134 44.4631 214.047C44.622 213.961 44.8097 214.018 44.8963 214.177L58.8865 240.087C58.9731 240.245 58.9154 240.433 58.7566 240.519C58.6988 240.563 58.6411 240.563 58.5978 240.563Z" fill="black"/>
<path d="M44.6075 240.563C44.5498 240.563 44.5065 240.548 44.4631 240.519C44.3043 240.433 44.2466 240.245 44.3332 240.087L58.3234 214.177C58.4101 214.018 58.5978 213.961 58.7566 214.047C58.9154 214.134 58.9731 214.321 58.8865 214.48L44.8963 240.39C44.8241 240.505 44.723 240.563 44.6075 240.563Z" fill="black"/>
<path d="M118.153 284H42.3254C42.1522 284 42.0078 283.856 42.0078 283.683V269.531C42.0078 269.357 42.1522 269.213 42.3254 269.213C42.4987 269.213 42.6431 269.357 42.6431 269.531V283.365H118.153C118.326 283.365 118.47 283.51 118.47 283.683C118.47 283.856 118.326 284 118.153 284Z" fill="black"/>
<path d="M42.3254 172.658C42.1522 172.658 42.0078 172.514 42.0078 172.341V137.199C42.0078 137.026 42.1522 136.881 42.3254 136.881C42.4987 136.881 42.6431 137.026 42.6431 137.199V172.341C42.6431 172.514 42.4987 172.658 42.3254 172.658Z" fill="black"/>
</g>
<defs>
<clipPath id="clip0_2948_4003">
<rect width="396" height="284" fill="white"/>
</clipPath>
</defs>
</svg>
