<svg width="1537" height="444" viewBox="0 0 1537 444" fill="none" xmlns="http://www.w3.org/2000/svg">
<rect y="95" width="1400" height="268" fill="#1F59C9"/>
<g clip-path="url(#clip0_2921_45617)">
<path d="M1191.58 270.767L1154.4 249.116L1117.27 270.806L1154.83 292.727L1191.58 270.767Z" fill="#3C78EC"/>
<path d="M1154.83 294C1154.6 294 1154.4 293.923 1154.17 293.846L1116.62 271.886C1116.23 271.654 1116 271.23 1116 270.767C1116 270.304 1116.23 269.879 1116.62 269.648L1153.75 248.035C1154.13 247.804 1154.63 247.804 1155.02 248.035L1192.19 269.686C1192.58 269.918 1192.81 270.342 1192.81 270.767C1192.81 271.23 1192.58 271.654 1192.19 271.886L1155.44 293.846C1155.29 293.923 1155.06 294 1154.83 294ZM1119.81 270.805L1154.83 291.26L1189.07 270.805L1154.4 250.621L1119.81 270.805Z" fill="black"/>
<path d="M1154.4 205.274V249.309L1191.73 270.844V227.311L1154.4 205.274Z" fill="#FF722C"/>
<path d="M1191.73 272.118C1191.5 272.118 1191.31 272.079 1191.11 271.963L1153.79 250.428C1153.4 250.196 1153.13 249.772 1153.13 249.309V205.274C1153.13 204.81 1153.36 204.386 1153.79 204.154C1154.17 203.923 1154.67 203.923 1155.06 204.154L1192.38 226.191C1192.77 226.423 1193 226.847 1193 227.272V270.805C1193 271.268 1192.77 271.693 1192.38 271.925C1192.15 272.079 1191.96 272.118 1191.73 272.118ZM1155.68 248.575L1190.46 268.644V228.044L1155.68 207.512V248.575Z" fill="black"/>
<path d="M1154.4 205.274V249.309L1117.43 270.883V227.233L1154.4 205.274Z" fill="white"/>
<path d="M1117.43 272.156C1117.19 272.156 1117 272.117 1116.81 272.002C1116.42 271.77 1116.15 271.346 1116.15 270.882V227.233C1116.15 226.77 1116.39 226.346 1116.77 226.114L1153.75 204.193C1154.13 203.961 1154.64 203.961 1155.02 204.193C1155.41 204.425 1155.68 204.849 1155.68 205.312V249.347C1155.68 249.81 1155.44 250.235 1155.06 250.467L1118.08 272.04C1117.85 272.079 1117.66 272.156 1117.43 272.156ZM1118.7 227.967V268.683L1153.13 248.575V207.512L1118.7 227.967Z" fill="black"/>
</g>
<g clip-path="url(#clip1_2921_45617)">
<path d="M1202.58 131.767L1165.4 110.116L1128.27 131.806L1165.83 153.727L1202.58 131.767Z" fill="#3C78EC"/>
<path d="M1165.83 155C1165.6 155 1165.4 154.923 1165.17 154.846L1127.62 132.886C1127.23 132.654 1127 132.23 1127 131.767C1127 131.304 1127.23 130.879 1127.62 130.648L1164.75 109.035C1165.13 108.804 1165.63 108.804 1166.02 109.035L1203.19 130.686C1203.58 130.918 1203.81 131.342 1203.81 131.767C1203.81 132.23 1203.58 132.654 1203.19 132.886L1166.44 154.846C1166.29 154.923 1166.06 155 1165.83 155ZM1130.81 131.805L1165.83 152.26L1200.07 131.805L1165.4 111.621L1130.81 131.805Z" fill="black"/>
<path d="M1165.4 66.2737V110.309L1202.73 131.844V88.3106L1165.4 66.2737Z" fill="#FF722C"/>
<path d="M1202.73 133.118C1202.5 133.118 1202.31 133.079 1202.11 132.963L1164.79 111.428C1164.4 111.196 1164.13 110.772 1164.13 110.309V66.2736C1164.13 65.8105 1164.36 65.3859 1164.79 65.1544C1165.17 64.9228 1165.67 64.9228 1166.06 65.1544L1203.38 87.1913C1203.77 87.4228 1204 87.8474 1204 88.2719V131.805C1204 132.268 1203.77 132.693 1203.38 132.925C1203.15 133.079 1202.96 133.118 1202.73 133.118ZM1166.68 109.575L1201.46 129.644V89.0437L1166.68 68.512V109.575Z" fill="black"/>
<path d="M1165.4 66.2737V110.309L1128.43 131.883V88.2334L1165.4 66.2737Z" fill="white"/>
<path d="M1128.43 133.156C1128.19 133.156 1128 133.117 1127.81 133.002C1127.42 132.77 1127.15 132.346 1127.15 131.882V88.2333C1127.15 87.7701 1127.39 87.3456 1127.77 87.1141L1164.75 65.193C1165.13 64.9614 1165.64 64.9614 1166.02 65.193C1166.41 65.4245 1166.68 65.849 1166.68 66.3122V110.347C1166.68 110.81 1166.44 111.235 1166.06 111.467L1129.08 133.04C1128.85 133.079 1128.66 133.156 1128.43 133.156ZM1129.7 88.9665V129.683L1164.13 109.575V68.512L1129.7 88.9665Z" fill="black"/>
</g>
<g clip-path="url(#clip2_2921_45617)">
<path d="M1239.58 66.7669L1202.4 45.116L1165.27 66.8055L1202.83 88.7266L1239.58 66.7669Z" fill="#3C78EC"/>
<path d="M1202.83 90.0001C1202.6 90.0001 1202.4 89.9229 1202.17 89.8457L1164.62 67.886C1164.23 67.6545 1164 67.2299 1164 66.7668C1164 66.3037 1164.23 65.8792 1164.62 65.6476L1201.75 44.0352C1202.13 43.8037 1202.63 43.8037 1203.02 44.0352L1240.19 65.6862C1240.58 65.9177 1240.81 66.3423 1240.81 66.7668C1240.81 67.2299 1240.58 67.6545 1240.19 67.886L1203.44 89.8457C1203.29 89.9229 1203.06 90.0001 1202.83 90.0001ZM1167.81 66.8054L1202.83 87.2599L1237.07 66.8054L1202.4 46.621L1167.81 66.8054Z" fill="black"/>
<path d="M1202.4 1.27368V45.3088L1239.73 66.844V23.3106L1202.4 1.27368Z" fill="#FF722C"/>
<path d="M1239.73 68.1175C1239.5 68.1175 1239.31 68.0789 1239.11 67.9631L1201.79 46.428C1201.4 46.1964 1201.13 45.7719 1201.13 45.3088V1.27359C1201.13 0.810473 1201.36 0.385944 1201.79 0.154384C1202.17 -0.0771773 1202.67 -0.0771773 1203.06 0.154384L1240.38 22.1913C1240.77 22.4228 1241 22.8474 1241 23.2719V66.8053C1241 67.2685 1240.77 67.693 1240.38 67.9245C1240.15 68.0789 1239.96 68.1175 1239.73 68.1175ZM1203.68 44.5755L1238.46 64.6441V24.0437L1203.68 3.51202V44.5755Z" fill="black"/>
<path d="M1202.4 1.27368V45.3088L1165.43 66.8826V23.2334L1202.4 1.27368Z" fill="white"/>
<path d="M1165.43 68.1561C1165.19 68.1561 1165 68.1175 1164.81 68.0017C1164.42 67.7701 1164.15 67.3456 1164.15 66.8825V23.2333C1164.15 22.7701 1164.39 22.3456 1164.77 22.1141L1201.75 0.192958C1202.13 -0.0386031 1202.64 -0.0386031 1203.02 0.192958C1203.41 0.424519 1203.68 0.849047 1203.68 1.31217V45.3473C1203.68 45.8105 1203.44 46.235 1203.06 46.4665L1166.08 68.0403C1165.85 68.0789 1165.66 68.1561 1165.43 68.1561ZM1166.7 23.9665V64.6827L1201.13 44.5755V3.512L1166.7 23.9665Z" fill="black"/>
</g>
<g clip-path="url(#clip3_2921_45617)">
<path d="M1350.58 394.767L1313.4 373.116L1276.27 394.806L1313.83 416.727L1350.58 394.767Z" fill="#3C78EC"/>
<path d="M1313.83 418C1313.6 418 1313.4 417.923 1313.17 417.846L1275.62 395.886C1275.23 395.654 1275 395.23 1275 394.767C1275 394.304 1275.23 393.879 1275.62 393.648L1312.75 372.035C1313.13 371.804 1313.63 371.804 1314.02 372.035L1351.19 393.686C1351.58 393.918 1351.81 394.342 1351.81 394.767C1351.81 395.23 1351.58 395.654 1351.19 395.886L1314.44 417.846C1314.29 417.923 1314.06 418 1313.83 418ZM1278.81 394.805L1313.83 415.26L1348.07 394.805L1313.4 374.621L1278.81 394.805Z" fill="black"/>
<path d="M1313.4 329.274V373.309L1350.73 394.844V351.311L1313.4 329.274Z" fill="#FF722C"/>
<path d="M1350.73 396.118C1350.5 396.118 1350.31 396.079 1350.11 395.963L1312.79 374.428C1312.4 374.196 1312.13 373.772 1312.13 373.309V329.274C1312.13 328.81 1312.36 328.386 1312.79 328.154C1313.17 327.923 1313.67 327.923 1314.06 328.154L1351.38 350.191C1351.77 350.423 1352 350.847 1352 351.272V394.805C1352 395.268 1351.77 395.693 1351.38 395.925C1351.15 396.079 1350.96 396.118 1350.73 396.118ZM1314.68 372.575L1349.46 392.644V352.044L1314.68 331.512V372.575Z" fill="black"/>
<path d="M1313.4 329.274V373.309L1276.43 394.883V351.233L1313.4 329.274Z" fill="white"/>
<path d="M1276.43 396.156C1276.19 396.156 1276 396.117 1275.81 396.002C1275.42 395.77 1275.15 395.346 1275.15 394.882V351.233C1275.15 350.77 1275.39 350.346 1275.77 350.114L1312.75 328.193C1313.13 327.961 1313.64 327.961 1314.02 328.193C1314.41 328.425 1314.68 328.849 1314.68 329.312V373.347C1314.68 373.81 1314.44 374.235 1314.06 374.467L1277.08 396.04C1276.85 396.079 1276.66 396.156 1276.43 396.156ZM1277.7 351.967V392.683L1312.13 372.575V331.512L1277.7 351.967Z" fill="black"/>
</g>
<g clip-path="url(#clip4_2921_45617)">
<path d="M1350.58 131.767L1313.4 110.116L1276.27 131.806L1313.83 153.727L1350.58 131.767Z" fill="#3C78EC"/>
<path d="M1313.83 155C1313.6 155 1313.4 154.923 1313.17 154.846L1275.62 132.886C1275.23 132.654 1275 132.23 1275 131.767C1275 131.304 1275.23 130.879 1275.62 130.648L1312.75 109.035C1313.13 108.804 1313.63 108.804 1314.02 109.035L1351.19 130.686C1351.58 130.918 1351.81 131.342 1351.81 131.767C1351.81 132.23 1351.58 132.654 1351.19 132.886L1314.44 154.846C1314.29 154.923 1314.06 155 1313.83 155ZM1278.81 131.805L1313.83 152.26L1348.07 131.805L1313.4 111.621L1278.81 131.805Z" fill="black"/>
<path d="M1313.4 66.2737V110.309L1350.73 131.844V88.3106L1313.4 66.2737Z" fill="#FF722C"/>
<path d="M1350.73 133.118C1350.5 133.118 1350.31 133.079 1350.11 132.963L1312.79 111.428C1312.4 111.196 1312.13 110.772 1312.13 110.309V66.2736C1312.13 65.8105 1312.36 65.3859 1312.79 65.1544C1313.17 64.9228 1313.67 64.9228 1314.06 65.1544L1351.38 87.1913C1351.77 87.4228 1352 87.8474 1352 88.2719V131.805C1352 132.268 1351.77 132.693 1351.38 132.925C1351.15 133.079 1350.96 133.118 1350.73 133.118ZM1314.68 109.575L1349.46 129.644V89.0437L1314.68 68.512V109.575Z" fill="black"/>
<path d="M1313.4 66.2737V110.309L1276.43 131.883V88.2334L1313.4 66.2737Z" fill="white"/>
<path d="M1276.43 133.156C1276.19 133.156 1276 133.117 1275.81 133.002C1275.42 132.77 1275.15 132.346 1275.15 131.882V88.2333C1275.15 87.7701 1275.39 87.3456 1275.77 87.1141L1312.75 65.193C1313.13 64.9614 1313.64 64.9614 1314.02 65.193C1314.41 65.4245 1314.68 65.849 1314.68 66.3122V110.347C1314.68 110.81 1314.44 111.235 1314.06 111.467L1277.08 133.04C1276.85 133.079 1276.66 133.156 1276.43 133.156ZM1277.7 88.9665V129.683L1312.13 109.575V68.512L1277.7 88.9665Z" fill="black"/>
</g>
<g clip-path="url(#clip5_2921_45617)">
<path d="M1387.58 66.7669L1350.4 45.116L1313.27 66.8055L1350.83 88.7266L1387.58 66.7669Z" fill="#3C78EC"/>
<path d="M1350.83 90.0001C1350.6 90.0001 1350.4 89.9229 1350.17 89.8457L1312.62 67.886C1312.23 67.6545 1312 67.2299 1312 66.7668C1312 66.3037 1312.23 65.8792 1312.62 65.6476L1349.75 44.0352C1350.13 43.8037 1350.63 43.8037 1351.02 44.0352L1388.19 65.6862C1388.58 65.9177 1388.81 66.3423 1388.81 66.7668C1388.81 67.2299 1388.58 67.6545 1388.19 67.886L1351.44 89.8457C1351.29 89.9229 1351.06 90.0001 1350.83 90.0001ZM1315.81 66.8054L1350.83 87.2599L1385.07 66.8054L1350.4 46.621L1315.81 66.8054Z" fill="black"/>
<path d="M1350.4 1.27368V45.3088L1387.73 66.844V23.3106L1350.4 1.27368Z" fill="#FF722C"/>
<path d="M1387.73 68.1175C1387.5 68.1175 1387.31 68.0789 1387.11 67.9631L1349.79 46.428C1349.4 46.1964 1349.13 45.7719 1349.13 45.3088V1.27359C1349.13 0.810473 1349.36 0.385944 1349.79 0.154384C1350.17 -0.0771773 1350.67 -0.0771773 1351.06 0.154384L1388.38 22.1913C1388.77 22.4228 1389 22.8474 1389 23.2719V66.8053C1389 67.2685 1388.77 67.693 1388.38 67.9245C1388.15 68.0789 1387.96 68.1175 1387.73 68.1175ZM1351.68 44.5755L1386.46 64.6441V24.0437L1351.68 3.51202V44.5755Z" fill="black"/>
<path d="M1350.4 1.27368V45.3088L1313.43 66.8826V23.2334L1350.4 1.27368Z" fill="white"/>
<path d="M1313.43 68.1561C1313.19 68.1561 1313 68.1175 1312.81 68.0017C1312.42 67.7701 1312.15 67.3456 1312.15 66.8825V23.2333C1312.15 22.7701 1312.39 22.3456 1312.77 22.1141L1349.75 0.192958C1350.13 -0.0386031 1350.64 -0.0386031 1351.02 0.192958C1351.41 0.424519 1351.68 0.849047 1351.68 1.31217V45.3473C1351.68 45.8105 1351.44 46.235 1351.06 46.4665L1314.08 68.0403C1313.85 68.0789 1313.66 68.1561 1313.43 68.1561ZM1314.7 23.9665V64.6827L1349.13 44.5755V3.512L1314.7 23.9665Z" fill="black"/>
</g>
<g clip-path="url(#clip6_2921_45617)">
<path d="M1498.58 394.767L1461.4 373.116L1424.27 394.806L1461.83 416.727L1498.58 394.767Z" fill="#3C78EC"/>
<path d="M1461.83 418C1461.6 418 1461.4 417.923 1461.17 417.846L1423.62 395.886C1423.23 395.654 1423 395.23 1423 394.767C1423 394.304 1423.23 393.879 1423.62 393.648L1460.75 372.035C1461.13 371.804 1461.63 371.804 1462.02 372.035L1499.19 393.686C1499.58 393.918 1499.81 394.342 1499.81 394.767C1499.81 395.23 1499.58 395.654 1499.19 395.886L1462.44 417.846C1462.29 417.923 1462.06 418 1461.83 418ZM1426.81 394.805L1461.83 415.26L1496.07 394.805L1461.4 374.621L1426.81 394.805Z" fill="black"/>
<path d="M1461.4 329.274V373.309L1498.73 394.844V351.311L1461.4 329.274Z" fill="#FF722C"/>
<path d="M1498.73 396.118C1498.5 396.118 1498.31 396.079 1498.11 395.963L1460.79 374.428C1460.4 374.196 1460.13 373.772 1460.13 373.309V329.274C1460.13 328.81 1460.36 328.386 1460.79 328.154C1461.17 327.923 1461.67 327.923 1462.06 328.154L1499.38 350.191C1499.77 350.423 1500 350.847 1500 351.272V394.805C1500 395.268 1499.77 395.693 1499.38 395.925C1499.15 396.079 1498.96 396.118 1498.73 396.118ZM1462.68 372.575L1497.46 392.644V352.044L1462.68 331.512V372.575Z" fill="black"/>
<path d="M1461.4 329.274V373.309L1424.43 394.883V351.233L1461.4 329.274Z" fill="white"/>
<path d="M1424.43 396.156C1424.19 396.156 1424 396.117 1423.81 396.002C1423.42 395.77 1423.15 395.346 1423.15 394.882V351.233C1423.15 350.77 1423.39 350.346 1423.77 350.114L1460.75 328.193C1461.13 327.961 1461.64 327.961 1462.02 328.193C1462.41 328.425 1462.68 328.849 1462.68 329.312V373.347C1462.68 373.81 1462.44 374.235 1462.06 374.467L1425.08 396.04C1424.85 396.079 1424.66 396.156 1424.43 396.156ZM1425.7 351.967V392.683L1460.13 372.575V331.512L1425.7 351.967Z" fill="black"/>
</g>
<g clip-path="url(#clip7_2921_45617)">
<path d="M1276.58 131.767L1239.4 110.116L1202.27 131.806L1239.83 153.727L1276.58 131.767Z" fill="#3C78EC"/>
<path d="M1239.83 155C1239.6 155 1239.4 154.923 1239.17 154.846L1201.62 132.886C1201.23 132.654 1201 132.23 1201 131.767C1201 131.304 1201.23 130.879 1201.62 130.648L1238.75 109.035C1239.13 108.804 1239.63 108.804 1240.02 109.035L1277.19 130.686C1277.58 130.918 1277.81 131.342 1277.81 131.767C1277.81 132.23 1277.58 132.654 1277.19 132.886L1240.44 154.846C1240.29 154.923 1240.06 155 1239.83 155ZM1204.81 131.805L1239.83 152.26L1274.07 131.805L1239.4 111.621L1204.81 131.805Z" fill="black"/>
<path d="M1239.4 66.2737V110.309L1276.73 131.844V88.3106L1239.4 66.2737Z" fill="#FF722C"/>
<path d="M1276.73 133.118C1276.5 133.118 1276.31 133.079 1276.11 132.963L1238.79 111.428C1238.4 111.196 1238.13 110.772 1238.13 110.309V66.2736C1238.13 65.8105 1238.36 65.3859 1238.79 65.1544C1239.17 64.9228 1239.67 64.9228 1240.06 65.1544L1277.38 87.1913C1277.77 87.4228 1278 87.8474 1278 88.2719V131.805C1278 132.268 1277.77 132.693 1277.38 132.925C1277.15 133.079 1276.96 133.118 1276.73 133.118ZM1240.68 109.575L1275.46 129.644V89.0437L1240.68 68.512V109.575Z" fill="black"/>
<path d="M1239.4 66.2737V110.309L1202.43 131.883V88.2334L1239.4 66.2737Z" fill="white"/>
<path d="M1202.43 133.156C1202.19 133.156 1202 133.117 1201.81 133.002C1201.42 132.77 1201.15 132.346 1201.15 131.882V88.2333C1201.15 87.7701 1201.39 87.3456 1201.77 87.1141L1238.75 65.193C1239.13 64.9614 1239.64 64.9614 1240.02 65.193C1240.41 65.4245 1240.68 65.849 1240.68 66.3122V110.347C1240.68 110.81 1240.44 111.235 1240.06 111.467L1203.08 133.04C1202.85 133.079 1202.66 133.156 1202.43 133.156ZM1203.7 88.9665V129.683L1238.13 109.575V68.512L1203.7 88.9665Z" fill="black"/>
</g>
<g clip-path="url(#clip8_2921_45617)">
<path d="M1313.58 66.7669L1276.4 45.116L1239.27 66.8055L1276.83 88.7266L1313.58 66.7669Z" fill="#3C78EC"/>
<path d="M1276.83 90.0001C1276.6 90.0001 1276.4 89.9229 1276.17 89.8457L1238.62 67.886C1238.23 67.6545 1238 67.2299 1238 66.7668C1238 66.3037 1238.23 65.8792 1238.62 65.6476L1275.75 44.0352C1276.13 43.8037 1276.63 43.8037 1277.02 44.0352L1314.19 65.6862C1314.58 65.9177 1314.81 66.3423 1314.81 66.7668C1314.81 67.2299 1314.58 67.6545 1314.19 67.886L1277.44 89.8457C1277.29 89.9229 1277.06 90.0001 1276.83 90.0001ZM1241.81 66.8054L1276.83 87.2599L1311.07 66.8054L1276.4 46.621L1241.81 66.8054Z" fill="black"/>
<path d="M1276.4 1.27368V45.3088L1313.73 66.844V23.3106L1276.4 1.27368Z" fill="#FF722C"/>
<path d="M1313.73 68.1175C1313.5 68.1175 1313.31 68.0789 1313.11 67.9631L1275.79 46.428C1275.4 46.1964 1275.13 45.7719 1275.13 45.3088V1.27359C1275.13 0.810473 1275.36 0.385944 1275.79 0.154384C1276.17 -0.0771773 1276.67 -0.0771773 1277.06 0.154384L1314.38 22.1913C1314.77 22.4228 1315 22.8474 1315 23.2719V66.8053C1315 67.2685 1314.77 67.693 1314.38 67.9245C1314.15 68.0789 1313.96 68.1175 1313.73 68.1175ZM1277.68 44.5755L1312.46 64.6441V24.0437L1277.68 3.51202V44.5755Z" fill="black"/>
<path d="M1276.4 1.27368V45.3088L1239.43 66.8826V23.2334L1276.4 1.27368Z" fill="white"/>
<path d="M1239.43 68.1561C1239.19 68.1561 1239 68.1175 1238.81 68.0017C1238.42 67.7701 1238.15 67.3456 1238.15 66.8825V23.2333C1238.15 22.7701 1238.39 22.3456 1238.77 22.1141L1275.75 0.192958C1276.13 -0.0386031 1276.64 -0.0386031 1277.02 0.192958C1277.41 0.424519 1277.68 0.849047 1277.68 1.31217V45.3473C1277.68 45.8105 1277.44 46.235 1277.06 46.4665L1240.08 68.0403C1239.85 68.0789 1239.66 68.1561 1239.43 68.1561ZM1240.7 23.9665V64.6827L1275.13 44.5755V3.512L1240.7 23.9665Z" fill="black"/>
</g>
<g clip-path="url(#clip9_2921_45617)">
<path d="M1424.58 394.767L1387.4 373.116L1350.27 394.806L1387.83 416.727L1424.58 394.767Z" fill="#3C78EC"/>
<path d="M1387.83 418C1387.6 418 1387.4 417.923 1387.17 417.846L1349.62 395.886C1349.23 395.654 1349 395.23 1349 394.767C1349 394.304 1349.23 393.879 1349.62 393.648L1386.75 372.035C1387.13 371.804 1387.63 371.804 1388.02 372.035L1425.19 393.686C1425.58 393.918 1425.81 394.342 1425.81 394.767C1425.81 395.23 1425.58 395.654 1425.19 395.886L1388.44 417.846C1388.29 417.923 1388.06 418 1387.83 418ZM1352.81 394.805L1387.83 415.26L1422.07 394.805L1387.4 374.621L1352.81 394.805Z" fill="black"/>
<path d="M1387.4 329.274V373.309L1424.73 394.844V351.311L1387.4 329.274Z" fill="#FF722C"/>
<path d="M1424.73 396.118C1424.5 396.118 1424.31 396.079 1424.11 395.963L1386.79 374.428C1386.4 374.196 1386.13 373.772 1386.13 373.309V329.274C1386.13 328.81 1386.36 328.386 1386.79 328.154C1387.17 327.923 1387.67 327.923 1388.06 328.154L1425.38 350.191C1425.77 350.423 1426 350.847 1426 351.272V394.805C1426 395.268 1425.77 395.693 1425.38 395.925C1425.15 396.079 1424.96 396.118 1424.73 396.118ZM1388.68 372.575L1423.46 392.644V352.044L1388.68 331.512V372.575Z" fill="black"/>
<path d="M1387.4 329.274V373.309L1350.43 394.883V351.233L1387.4 329.274Z" fill="white"/>
<path d="M1350.43 396.156C1350.19 396.156 1350 396.117 1349.81 396.002C1349.42 395.77 1349.15 395.346 1349.15 394.882V351.233C1349.15 350.77 1349.39 350.346 1349.77 350.114L1386.75 328.193C1387.13 327.961 1387.64 327.961 1388.02 328.193C1388.41 328.425 1388.68 328.849 1388.68 329.312V373.347C1388.68 373.81 1388.44 374.235 1388.06 374.467L1351.08 396.04C1350.85 396.079 1350.66 396.156 1350.43 396.156ZM1351.7 351.967V392.683L1386.13 372.575V331.512L1351.7 351.967Z" fill="black"/>
</g>
<g clip-path="url(#clip10_2921_45617)">
<path d="M1424.58 131.767L1387.4 110.116L1350.27 131.806L1387.83 153.727L1424.58 131.767Z" fill="#3C78EC"/>
<path d="M1387.83 155C1387.6 155 1387.4 154.923 1387.17 154.846L1349.62 132.886C1349.23 132.654 1349 132.23 1349 131.767C1349 131.304 1349.23 130.879 1349.62 130.648L1386.75 109.035C1387.13 108.804 1387.63 108.804 1388.02 109.035L1425.19 130.686C1425.58 130.918 1425.81 131.342 1425.81 131.767C1425.81 132.23 1425.58 132.654 1425.19 132.886L1388.44 154.846C1388.29 154.923 1388.06 155 1387.83 155ZM1352.81 131.805L1387.83 152.26L1422.07 131.805L1387.4 111.621L1352.81 131.805Z" fill="black"/>
<path d="M1387.4 66.2737V110.309L1424.73 131.844V88.3106L1387.4 66.2737Z" fill="#FF722C"/>
<path d="M1424.73 133.118C1424.5 133.118 1424.31 133.079 1424.11 132.963L1386.79 111.428C1386.4 111.196 1386.13 110.772 1386.13 110.309V66.2736C1386.13 65.8105 1386.36 65.3859 1386.79 65.1544C1387.17 64.9228 1387.67 64.9228 1388.06 65.1544L1425.38 87.1913C1425.77 87.4228 1426 87.8474 1426 88.2719V131.805C1426 132.268 1425.77 132.693 1425.38 132.925C1425.15 133.079 1424.96 133.118 1424.73 133.118ZM1388.68 109.575L1423.46 129.644V89.0437L1388.68 68.512V109.575Z" fill="black"/>
<path d="M1387.4 66.2737V110.309L1350.43 131.883V88.2334L1387.4 66.2737Z" fill="white"/>
<path d="M1350.43 133.156C1350.19 133.156 1350 133.117 1349.81 133.002C1349.42 132.77 1349.15 132.346 1349.15 131.882V88.2333C1349.15 87.7701 1349.39 87.3456 1349.77 87.1141L1386.75 65.193C1387.13 64.9614 1387.64 64.9614 1388.02 65.193C1388.41 65.4245 1388.68 65.849 1388.68 66.3122V110.347C1388.68 110.81 1388.44 111.235 1388.06 111.467L1351.08 133.04C1350.85 133.079 1350.66 133.156 1350.43 133.156ZM1351.7 88.9665V129.683L1386.13 109.575V68.512L1351.7 88.9665Z" fill="black"/>
</g>
<g clip-path="url(#clip11_2921_45617)">
<path d="M1239.58 197.767L1202.4 176.116L1165.27 197.806L1202.83 219.727L1239.58 197.767Z" fill="#3C78EC"/>
<path d="M1202.83 221C1202.6 221 1202.4 220.923 1202.17 220.846L1164.62 198.886C1164.23 198.654 1164 198.23 1164 197.767C1164 197.304 1164.23 196.879 1164.62 196.648L1201.75 175.035C1202.13 174.804 1202.63 174.804 1203.02 175.035L1240.19 196.686C1240.58 196.918 1240.81 197.342 1240.81 197.767C1240.81 198.23 1240.58 198.654 1240.19 198.886L1203.44 220.846C1203.29 220.923 1203.06 221 1202.83 221ZM1167.81 197.805L1202.83 218.26L1237.07 197.805L1202.4 177.621L1167.81 197.805Z" fill="black"/>
<path d="M1202.4 132.274V176.309L1239.73 197.844V154.311L1202.4 132.274Z" fill="#FF722C"/>
<path d="M1239.73 199.118C1239.5 199.118 1239.31 199.079 1239.11 198.963L1201.79 177.428C1201.4 177.196 1201.13 176.772 1201.13 176.309V132.274C1201.13 131.81 1201.36 131.386 1201.79 131.154C1202.17 130.923 1202.67 130.923 1203.06 131.154L1240.38 153.191C1240.77 153.423 1241 153.847 1241 154.272V197.805C1241 198.268 1240.77 198.693 1240.38 198.925C1240.15 199.079 1239.96 199.118 1239.73 199.118ZM1203.68 175.575L1238.46 195.644V155.044L1203.68 134.512V175.575Z" fill="black"/>
<path d="M1202.4 132.274V176.309L1165.43 197.883V154.233L1202.4 132.274Z" fill="white"/>
<path d="M1165.43 199.156C1165.19 199.156 1165 199.117 1164.81 199.002C1164.42 198.77 1164.15 198.346 1164.15 197.882V154.233C1164.15 153.77 1164.39 153.346 1164.77 153.114L1201.75 131.193C1202.13 130.961 1202.64 130.961 1203.02 131.193C1203.41 131.425 1203.68 131.849 1203.68 132.312V176.347C1203.68 176.81 1203.44 177.235 1203.06 177.467L1166.08 199.04C1165.85 199.079 1165.66 199.156 1165.43 199.156ZM1166.7 154.967V195.683L1201.13 175.575V134.512L1166.7 154.967Z" fill="black"/>
</g>
<g clip-path="url(#clip12_2921_45617)">
<path d="M1387.58 197.767L1350.4 176.116L1313.27 197.806L1350.83 219.727L1387.58 197.767Z" fill="#3C78EC"/>
<path d="M1350.83 221C1350.6 221 1350.4 220.923 1350.17 220.846L1312.62 198.886C1312.23 198.654 1312 198.23 1312 197.767C1312 197.304 1312.23 196.879 1312.62 196.648L1349.75 175.035C1350.13 174.804 1350.63 174.804 1351.02 175.035L1388.19 196.686C1388.58 196.918 1388.81 197.342 1388.81 197.767C1388.81 198.23 1388.58 198.654 1388.19 198.886L1351.44 220.846C1351.29 220.923 1351.06 221 1350.83 221ZM1315.81 197.805L1350.83 218.26L1385.07 197.805L1350.4 177.621L1315.81 197.805Z" fill="black"/>
<path d="M1350.4 132.274V176.309L1387.73 197.844V154.311L1350.4 132.274Z" fill="#FF722C"/>
<path d="M1387.73 199.118C1387.5 199.118 1387.31 199.079 1387.11 198.963L1349.79 177.428C1349.4 177.196 1349.13 176.772 1349.13 176.309V132.274C1349.13 131.81 1349.36 131.386 1349.79 131.154C1350.17 130.923 1350.67 130.923 1351.06 131.154L1388.38 153.191C1388.77 153.423 1389 153.847 1389 154.272V197.805C1389 198.268 1388.77 198.693 1388.38 198.925C1388.15 199.079 1387.96 199.118 1387.73 199.118ZM1351.68 175.575L1386.46 195.644V155.044L1351.68 134.512V175.575Z" fill="black"/>
<path d="M1350.4 132.274V176.309L1313.43 197.883V154.233L1350.4 132.274Z" fill="white"/>
<path d="M1313.43 199.156C1313.19 199.156 1313 199.117 1312.81 199.002C1312.42 198.77 1312.15 198.346 1312.15 197.882V154.233C1312.15 153.77 1312.39 153.346 1312.77 153.114L1349.75 131.193C1350.13 130.961 1350.64 130.961 1351.02 131.193C1351.41 131.425 1351.68 131.849 1351.68 132.312V176.347C1351.68 176.81 1351.44 177.235 1351.06 177.467L1314.08 199.04C1313.85 199.079 1313.66 199.156 1313.43 199.156ZM1314.7 154.967V195.683L1349.13 175.575V134.512L1314.7 154.967Z" fill="black"/>
</g>
<g clip-path="url(#clip13_2921_45617)">
<path d="M1313.58 197.767L1276.4 176.116L1239.27 197.806L1276.83 219.727L1313.58 197.767Z" fill="#3C78EC"/>
<path d="M1276.83 221C1276.6 221 1276.4 220.923 1276.17 220.846L1238.62 198.886C1238.23 198.654 1238 198.23 1238 197.767C1238 197.304 1238.23 196.879 1238.62 196.648L1275.75 175.035C1276.13 174.804 1276.63 174.804 1277.02 175.035L1314.19 196.686C1314.58 196.918 1314.81 197.342 1314.81 197.767C1314.81 198.23 1314.58 198.654 1314.19 198.886L1277.44 220.846C1277.29 220.923 1277.06 221 1276.83 221ZM1241.81 197.805L1276.83 218.26L1311.07 197.805L1276.4 177.621L1241.81 197.805Z" fill="black"/>
<path d="M1276.4 132.274V176.309L1313.73 197.844V154.311L1276.4 132.274Z" fill="#FF722C"/>
<path d="M1313.73 199.118C1313.5 199.118 1313.31 199.079 1313.11 198.963L1275.79 177.428C1275.4 177.196 1275.13 176.772 1275.13 176.309V132.274C1275.13 131.81 1275.36 131.386 1275.79 131.154C1276.17 130.923 1276.67 130.923 1277.06 131.154L1314.38 153.191C1314.77 153.423 1315 153.847 1315 154.272V197.805C1315 198.268 1314.77 198.693 1314.38 198.925C1314.15 199.079 1313.96 199.118 1313.73 199.118ZM1277.68 175.575L1312.46 195.644V155.044L1277.68 134.512V175.575Z" fill="black"/>
<path d="M1276.4 132.274V176.309L1239.43 197.883V154.233L1276.4 132.274Z" fill="white"/>
<path d="M1239.43 199.156C1239.19 199.156 1239 199.117 1238.81 199.002C1238.42 198.77 1238.15 198.346 1238.15 197.882V154.233C1238.15 153.77 1238.39 153.346 1238.77 153.114L1275.75 131.193C1276.13 130.961 1276.64 130.961 1277.02 131.193C1277.41 131.425 1277.68 131.849 1277.68 132.312V176.347C1277.68 176.81 1277.44 177.235 1277.06 177.467L1240.08 199.04C1239.85 199.079 1239.66 199.156 1239.43 199.156ZM1240.7 154.967V195.683L1275.13 175.575V134.512L1240.7 154.967Z" fill="black"/>
</g>
<g clip-path="url(#clip14_2921_45617)">
<path d="M1461.58 197.767L1424.4 176.116L1387.27 197.806L1424.83 219.727L1461.58 197.767Z" fill="#3C78EC"/>
<path d="M1424.83 221C1424.6 221 1424.4 220.923 1424.17 220.846L1386.62 198.886C1386.23 198.654 1386 198.23 1386 197.767C1386 197.304 1386.23 196.879 1386.62 196.648L1423.75 175.035C1424.13 174.804 1424.63 174.804 1425.02 175.035L1462.19 196.686C1462.58 196.918 1462.81 197.342 1462.81 197.767C1462.81 198.23 1462.58 198.654 1462.19 198.886L1425.44 220.846C1425.29 220.923 1425.06 221 1424.83 221ZM1389.81 197.805L1424.83 218.26L1459.07 197.805L1424.4 177.621L1389.81 197.805Z" fill="black"/>
<path d="M1424.4 132.274V176.309L1461.73 197.844V154.311L1424.4 132.274Z" fill="#FF722C"/>
<path d="M1461.73 199.118C1461.5 199.118 1461.31 199.079 1461.11 198.963L1423.79 177.428C1423.4 177.196 1423.13 176.772 1423.13 176.309V132.274C1423.13 131.81 1423.36 131.386 1423.79 131.154C1424.17 130.923 1424.67 130.923 1425.06 131.154L1462.38 153.191C1462.77 153.423 1463 153.847 1463 154.272V197.805C1463 198.268 1462.77 198.693 1462.38 198.925C1462.15 199.079 1461.96 199.118 1461.73 199.118ZM1425.68 175.575L1460.46 195.644V155.044L1425.68 134.512V175.575Z" fill="black"/>
<path d="M1424.4 132.274V176.309L1387.43 197.883V154.233L1424.4 132.274Z" fill="white"/>
<path d="M1387.43 199.156C1387.19 199.156 1387 199.117 1386.81 199.002C1386.42 198.77 1386.15 198.346 1386.15 197.882V154.233C1386.15 153.77 1386.39 153.346 1386.77 153.114L1423.75 131.193C1424.13 130.961 1424.64 130.961 1425.02 131.193C1425.41 131.425 1425.68 131.849 1425.68 132.312V176.347C1425.68 176.81 1425.44 177.235 1425.06 177.467L1388.08 199.04C1387.85 199.079 1387.66 199.156 1387.43 199.156ZM1388.7 154.967V195.683L1423.13 175.575V134.512L1388.7 154.967Z" fill="black"/>
</g>
<g clip-path="url(#clip15_2921_45617)">
<path d="M1276.58 263.767L1239.4 242.116L1202.27 263.806L1239.83 285.727L1276.58 263.767Z" fill="#3C78EC"/>
<path d="M1239.83 287C1239.6 287 1239.4 286.923 1239.17 286.846L1201.62 264.886C1201.23 264.654 1201 264.23 1201 263.767C1201 263.304 1201.23 262.879 1201.62 262.648L1238.75 241.035C1239.13 240.804 1239.63 240.804 1240.02 241.035L1277.19 262.686C1277.58 262.918 1277.81 263.342 1277.81 263.767C1277.81 264.23 1277.58 264.654 1277.19 264.886L1240.44 286.846C1240.29 286.923 1240.06 287 1239.83 287ZM1204.81 263.805L1239.83 284.26L1274.07 263.805L1239.4 243.621L1204.81 263.805Z" fill="black"/>
<path d="M1239.4 198.274V242.309L1276.73 263.844V220.311L1239.4 198.274Z" fill="#FF722C"/>
<path d="M1276.73 265.118C1276.5 265.118 1276.31 265.079 1276.11 264.963L1238.79 243.428C1238.4 243.196 1238.13 242.772 1238.13 242.309V198.274C1238.13 197.81 1238.36 197.386 1238.79 197.154C1239.17 196.923 1239.67 196.923 1240.06 197.154L1277.38 219.191C1277.77 219.423 1278 219.847 1278 220.272V263.805C1278 264.268 1277.77 264.693 1277.38 264.925C1277.15 265.079 1276.96 265.118 1276.73 265.118ZM1240.68 241.575L1275.46 261.644V221.044L1240.68 200.512V241.575Z" fill="black"/>
<path d="M1239.4 198.274V242.309L1202.43 263.883V220.233L1239.4 198.274Z" fill="white"/>
<path d="M1202.43 265.156C1202.19 265.156 1202 265.117 1201.81 265.002C1201.42 264.77 1201.15 264.346 1201.15 263.882V220.233C1201.15 219.77 1201.39 219.346 1201.77 219.114L1238.75 197.193C1239.13 196.961 1239.64 196.961 1240.02 197.193C1240.41 197.425 1240.68 197.849 1240.68 198.312V242.347C1240.68 242.81 1240.44 243.235 1240.06 243.467L1203.08 265.04C1202.85 265.079 1202.66 265.156 1202.43 265.156ZM1203.7 220.967V261.683L1238.13 241.575V200.512L1203.7 220.967Z" fill="black"/>
</g>
<g clip-path="url(#clip16_2921_45617)">
<path d="M1424.58 263.767L1387.4 242.116L1350.27 263.806L1387.83 285.727L1424.58 263.767Z" fill="#3C78EC"/>
<path d="M1387.83 287C1387.6 287 1387.4 286.923 1387.17 286.846L1349.62 264.886C1349.23 264.654 1349 264.23 1349 263.767C1349 263.304 1349.23 262.879 1349.62 262.648L1386.75 241.035C1387.13 240.804 1387.63 240.804 1388.02 241.035L1425.19 262.686C1425.58 262.918 1425.81 263.342 1425.81 263.767C1425.81 264.23 1425.58 264.654 1425.19 264.886L1388.44 286.846C1388.29 286.923 1388.06 287 1387.83 287ZM1352.81 263.805L1387.83 284.26L1422.07 263.805L1387.4 243.621L1352.81 263.805Z" fill="black"/>
<path d="M1387.4 198.274V242.309L1424.73 263.844V220.311L1387.4 198.274Z" fill="#FF722C"/>
<path d="M1424.73 265.118C1424.5 265.118 1424.31 265.079 1424.11 264.963L1386.79 243.428C1386.4 243.196 1386.13 242.772 1386.13 242.309V198.274C1386.13 197.81 1386.36 197.386 1386.79 197.154C1387.17 196.923 1387.67 196.923 1388.06 197.154L1425.38 219.191C1425.77 219.423 1426 219.847 1426 220.272V263.805C1426 264.268 1425.77 264.693 1425.38 264.925C1425.15 265.079 1424.96 265.118 1424.73 265.118ZM1388.68 241.575L1423.46 261.644V221.044L1388.68 200.512V241.575Z" fill="black"/>
<path d="M1387.4 198.274V242.309L1350.43 263.883V220.233L1387.4 198.274Z" fill="white"/>
<path d="M1350.43 265.156C1350.19 265.156 1350 265.117 1349.81 265.002C1349.42 264.77 1349.15 264.346 1349.15 263.882V220.233C1349.15 219.77 1349.39 219.346 1349.77 219.114L1386.75 197.193C1387.13 196.961 1387.64 196.961 1388.02 197.193C1388.41 197.425 1388.68 197.849 1388.68 198.312V242.347C1388.68 242.81 1388.44 243.235 1388.06 243.467L1351.08 265.04C1350.85 265.079 1350.66 265.156 1350.43 265.156ZM1351.7 220.967V261.683L1386.13 241.575V200.512L1351.7 220.967Z" fill="black"/>
</g>
<g clip-path="url(#clip17_2921_45617)">
<path d="M1350.58 263.767L1313.4 242.116L1276.27 263.806L1313.83 285.727L1350.58 263.767Z" fill="#3C78EC"/>
<path d="M1313.83 287C1313.6 287 1313.4 286.923 1313.17 286.846L1275.62 264.886C1275.23 264.654 1275 264.23 1275 263.767C1275 263.304 1275.23 262.879 1275.62 262.648L1312.75 241.035C1313.13 240.804 1313.63 240.804 1314.02 241.035L1351.19 262.686C1351.58 262.918 1351.81 263.342 1351.81 263.767C1351.81 264.23 1351.58 264.654 1351.19 264.886L1314.44 286.846C1314.29 286.923 1314.06 287 1313.83 287ZM1278.81 263.805L1313.83 284.26L1348.07 263.805L1313.4 243.621L1278.81 263.805Z" fill="black"/>
<path d="M1313.4 198.274V242.309L1350.73 263.844V220.311L1313.4 198.274Z" fill="#FF722C"/>
<path d="M1350.73 265.118C1350.5 265.118 1350.31 265.079 1350.11 264.963L1312.79 243.428C1312.4 243.196 1312.13 242.772 1312.13 242.309V198.274C1312.13 197.81 1312.36 197.386 1312.79 197.154C1313.17 196.923 1313.67 196.923 1314.06 197.154L1351.38 219.191C1351.77 219.423 1352 219.847 1352 220.272V263.805C1352 264.268 1351.77 264.693 1351.38 264.925C1351.15 265.079 1350.96 265.118 1350.73 265.118ZM1314.68 241.575L1349.46 261.644V221.044L1314.68 200.512V241.575Z" fill="black"/>
<path d="M1313.4 198.274V242.309L1276.43 263.883V220.233L1313.4 198.274Z" fill="white"/>
<path d="M1276.43 265.156C1276.19 265.156 1276 265.117 1275.81 265.002C1275.42 264.77 1275.15 264.346 1275.15 263.882V220.233C1275.15 219.77 1275.39 219.346 1275.77 219.114L1312.75 197.193C1313.13 196.961 1313.64 196.961 1314.02 197.193C1314.41 197.425 1314.68 197.849 1314.68 198.312V242.347C1314.68 242.81 1314.44 243.235 1314.06 243.467L1277.08 265.04C1276.85 265.079 1276.66 265.156 1276.43 265.156ZM1277.7 220.967V261.683L1312.13 241.575V200.512L1277.7 220.967Z" fill="black"/>
</g>
<g clip-path="url(#clip18_2921_45617)">
<path d="M1498.58 263.767L1461.4 242.116L1424.27 263.806L1461.83 285.727L1498.58 263.767Z" fill="#3C78EC"/>
<path d="M1461.83 287C1461.6 287 1461.4 286.923 1461.17 286.846L1423.62 264.886C1423.23 264.654 1423 264.23 1423 263.767C1423 263.304 1423.23 262.879 1423.62 262.648L1460.75 241.035C1461.13 240.804 1461.63 240.804 1462.02 241.035L1499.19 262.686C1499.58 262.918 1499.81 263.342 1499.81 263.767C1499.81 264.23 1499.58 264.654 1499.19 264.886L1462.44 286.846C1462.29 286.923 1462.06 287 1461.83 287ZM1426.81 263.805L1461.83 284.26L1496.07 263.805L1461.4 243.621L1426.81 263.805Z" fill="black"/>
<path d="M1461.4 198.274V242.309L1498.73 263.844V220.311L1461.4 198.274Z" fill="#FF722C"/>
<path d="M1498.73 265.118C1498.5 265.118 1498.31 265.079 1498.11 264.963L1460.79 243.428C1460.4 243.196 1460.13 242.772 1460.13 242.309V198.274C1460.13 197.81 1460.36 197.386 1460.79 197.154C1461.17 196.923 1461.67 196.923 1462.06 197.154L1499.38 219.191C1499.77 219.423 1500 219.847 1500 220.272V263.805C1500 264.268 1499.77 264.693 1499.38 264.925C1499.15 265.079 1498.96 265.118 1498.73 265.118ZM1462.68 241.575L1497.46 261.644V221.044L1462.68 200.512V241.575Z" fill="black"/>
<path d="M1461.4 198.274V242.309L1424.43 263.883V220.233L1461.4 198.274Z" fill="white"/>
<path d="M1424.43 265.156C1424.19 265.156 1424 265.117 1423.81 265.002C1423.42 264.77 1423.15 264.346 1423.15 263.882V220.233C1423.15 219.77 1423.39 219.346 1423.77 219.114L1460.75 197.193C1461.13 196.961 1461.64 196.961 1462.02 197.193C1462.41 197.425 1462.68 197.849 1462.68 198.312V242.347C1462.68 242.81 1462.44 243.235 1462.06 243.467L1425.08 265.04C1424.85 265.079 1424.66 265.156 1424.43 265.156ZM1425.7 220.967V261.683L1460.13 241.575V200.512L1425.7 220.967Z" fill="black"/>
</g>
<g clip-path="url(#clip19_2921_45617)">
<path d="M1313.58 329.767L1276.4 308.116L1239.27 329.806L1276.83 351.727L1313.58 329.767Z" fill="#3C78EC"/>
<path d="M1276.83 353C1276.6 353 1276.4 352.923 1276.17 352.846L1238.62 330.886C1238.23 330.654 1238 330.23 1238 329.767C1238 329.304 1238.23 328.879 1238.62 328.648L1275.75 307.035C1276.13 306.804 1276.63 306.804 1277.02 307.035L1314.19 328.686C1314.58 328.918 1314.81 329.342 1314.81 329.767C1314.81 330.23 1314.58 330.654 1314.19 330.886L1277.44 352.846C1277.29 352.923 1277.06 353 1276.83 353ZM1241.81 329.805L1276.83 350.26L1311.07 329.805L1276.4 309.621L1241.81 329.805Z" fill="black"/>
<path d="M1276.4 264.274V308.309L1313.73 329.844V286.311L1276.4 264.274Z" fill="#FF722C"/>
<path d="M1313.73 331.118C1313.5 331.118 1313.31 331.079 1313.11 330.963L1275.79 309.428C1275.4 309.196 1275.13 308.772 1275.13 308.309V264.274C1275.13 263.81 1275.36 263.386 1275.79 263.154C1276.17 262.923 1276.67 262.923 1277.06 263.154L1314.38 285.191C1314.77 285.423 1315 285.847 1315 286.272V329.805C1315 330.268 1314.77 330.693 1314.38 330.925C1314.15 331.079 1313.96 331.118 1313.73 331.118ZM1277.68 307.575L1312.46 327.644V287.044L1277.68 266.512V307.575Z" fill="black"/>
<path d="M1276.4 264.274V308.309L1239.43 329.883V286.233L1276.4 264.274Z" fill="white"/>
<path d="M1239.43 331.156C1239.19 331.156 1239 331.117 1238.81 331.002C1238.42 330.77 1238.15 330.346 1238.15 329.882V286.233C1238.15 285.77 1238.39 285.346 1238.77 285.114L1275.75 263.193C1276.13 262.961 1276.64 262.961 1277.02 263.193C1277.41 263.425 1277.68 263.849 1277.68 264.312V308.347C1277.68 308.81 1277.44 309.235 1277.06 309.467L1240.08 331.04C1239.85 331.079 1239.66 331.156 1239.43 331.156ZM1240.7 286.967V327.683L1275.13 307.575V266.512L1240.7 286.967Z" fill="black"/>
</g>
<g clip-path="url(#clip20_2921_45617)">
<path d="M1461.58 329.767L1424.4 308.116L1387.27 329.806L1424.83 351.727L1461.58 329.767Z" fill="#3C78EC"/>
<path d="M1424.83 353C1424.6 353 1424.4 352.923 1424.17 352.846L1386.62 330.886C1386.23 330.654 1386 330.23 1386 329.767C1386 329.304 1386.23 328.879 1386.62 328.648L1423.75 307.035C1424.13 306.804 1424.63 306.804 1425.02 307.035L1462.19 328.686C1462.58 328.918 1462.81 329.342 1462.81 329.767C1462.81 330.23 1462.58 330.654 1462.19 330.886L1425.44 352.846C1425.29 352.923 1425.06 353 1424.83 353ZM1389.81 329.805L1424.83 350.26L1459.07 329.805L1424.4 309.621L1389.81 329.805Z" fill="black"/>
<path d="M1424.4 264.274V308.309L1461.73 329.844V286.311L1424.4 264.274Z" fill="#FF722C"/>
<path d="M1461.73 331.118C1461.5 331.118 1461.31 331.079 1461.11 330.963L1423.79 309.428C1423.4 309.196 1423.13 308.772 1423.13 308.309V264.274C1423.13 263.81 1423.36 263.386 1423.79 263.154C1424.17 262.923 1424.67 262.923 1425.06 263.154L1462.38 285.191C1462.77 285.423 1463 285.847 1463 286.272V329.805C1463 330.268 1462.77 330.693 1462.38 330.925C1462.15 331.079 1461.96 331.118 1461.73 331.118ZM1425.68 307.575L1460.46 327.644V287.044L1425.68 266.512V307.575Z" fill="black"/>
<path d="M1424.4 264.274V308.309L1387.43 329.883V286.233L1424.4 264.274Z" fill="white"/>
<path d="M1387.43 331.156C1387.19 331.156 1387 331.117 1386.81 331.002C1386.42 330.77 1386.15 330.346 1386.15 329.882V286.233C1386.15 285.77 1386.39 285.346 1386.77 285.114L1423.75 263.193C1424.13 262.961 1424.64 262.961 1425.02 263.193C1425.41 263.425 1425.68 263.849 1425.68 264.312V308.347C1425.68 308.81 1425.44 309.235 1425.06 309.467L1388.08 331.04C1387.85 331.079 1387.66 331.156 1387.43 331.156ZM1388.7 286.967V327.683L1423.13 307.575V266.512L1388.7 286.967Z" fill="black"/>
</g>
<g clip-path="url(#clip21_2921_45617)">
<path d="M1387.58 329.767L1350.4 308.116L1313.27 329.806L1350.83 351.727L1387.58 329.767Z" fill="#3C78EC"/>
<path d="M1350.83 353C1350.6 353 1350.4 352.923 1350.17 352.846L1312.62 330.886C1312.23 330.654 1312 330.23 1312 329.767C1312 329.304 1312.23 328.879 1312.62 328.648L1349.75 307.035C1350.13 306.804 1350.63 306.804 1351.02 307.035L1388.19 328.686C1388.58 328.918 1388.81 329.342 1388.81 329.767C1388.81 330.23 1388.58 330.654 1388.19 330.886L1351.44 352.846C1351.29 352.923 1351.06 353 1350.83 353ZM1315.81 329.805L1350.83 350.26L1385.07 329.805L1350.4 309.621L1315.81 329.805Z" fill="black"/>
<path d="M1350.4 264.274V308.309L1387.73 329.844V286.311L1350.4 264.274Z" fill="#FF722C"/>
<path d="M1387.73 331.118C1387.5 331.118 1387.31 331.079 1387.11 330.963L1349.79 309.428C1349.4 309.196 1349.13 308.772 1349.13 308.309V264.274C1349.13 263.81 1349.36 263.386 1349.79 263.154C1350.17 262.923 1350.67 262.923 1351.06 263.154L1388.38 285.191C1388.77 285.423 1389 285.847 1389 286.272V329.805C1389 330.268 1388.77 330.693 1388.38 330.925C1388.15 331.079 1387.96 331.118 1387.73 331.118ZM1351.68 307.575L1386.46 327.644V287.044L1351.68 266.512V307.575Z" fill="black"/>
<path d="M1350.4 264.274V308.309L1313.43 329.883V286.233L1350.4 264.274Z" fill="white"/>
<path d="M1313.43 331.156C1313.19 331.156 1313 331.117 1312.81 331.002C1312.42 330.77 1312.15 330.346 1312.15 329.882V286.233C1312.15 285.77 1312.39 285.346 1312.77 285.114L1349.75 263.193C1350.13 262.961 1350.64 262.961 1351.02 263.193C1351.41 263.425 1351.68 263.849 1351.68 264.312V308.347C1351.68 308.81 1351.44 309.235 1351.06 309.467L1314.08 331.04C1313.85 331.079 1313.66 331.156 1313.43 331.156ZM1314.7 286.967V327.683L1349.13 307.575V266.512L1314.7 286.967Z" fill="black"/>
</g>
<g clip-path="url(#clip22_2921_45617)">
<path d="M1535.58 329.767L1498.4 308.116L1461.27 329.806L1498.83 351.727L1535.58 329.767Z" fill="#3C78EC"/>
<path d="M1498.83 353C1498.6 353 1498.4 352.923 1498.17 352.846L1460.62 330.886C1460.23 330.654 1460 330.23 1460 329.767C1460 329.304 1460.23 328.879 1460.62 328.648L1497.75 307.035C1498.13 306.804 1498.63 306.804 1499.02 307.035L1536.19 328.686C1536.58 328.918 1536.81 329.342 1536.81 329.767C1536.81 330.23 1536.58 330.654 1536.19 330.886L1499.44 352.846C1499.29 352.923 1499.06 353 1498.83 353ZM1463.81 329.805L1498.83 350.26L1533.07 329.805L1498.4 309.621L1463.81 329.805Z" fill="black"/>
<path d="M1498.4 264.274V308.309L1535.73 329.844V286.311L1498.4 264.274Z" fill="#FF722C"/>
<path d="M1535.73 331.118C1535.5 331.118 1535.31 331.079 1535.11 330.963L1497.79 309.428C1497.4 309.196 1497.13 308.772 1497.13 308.309V264.274C1497.13 263.81 1497.36 263.386 1497.79 263.154C1498.17 262.923 1498.67 262.923 1499.06 263.154L1536.38 285.191C1536.77 285.423 1537 285.847 1537 286.272V329.805C1537 330.268 1536.77 330.693 1536.38 330.925C1536.15 331.079 1535.96 331.118 1535.73 331.118ZM1499.68 307.575L1534.46 327.644V287.044L1499.68 266.512V307.575Z" fill="black"/>
<path d="M1498.4 264.274V308.309L1461.43 329.883V286.233L1498.4 264.274Z" fill="white"/>
<path d="M1461.43 331.156C1461.19 331.156 1461 331.117 1460.81 331.002C1460.42 330.77 1460.15 330.346 1460.15 329.882V286.233C1460.15 285.77 1460.39 285.346 1460.77 285.114L1497.75 263.193C1498.13 262.961 1498.64 262.961 1499.02 263.193C1499.41 263.425 1499.68 263.849 1499.68 264.312V308.347C1499.68 308.81 1499.44 309.235 1499.06 309.467L1462.08 331.04C1461.85 331.079 1461.66 331.156 1461.43 331.156ZM1462.7 286.967V327.683L1497.13 307.575V266.512L1462.7 286.967Z" fill="black"/>
</g>
<g clip-path="url(#clip23_2921_45617)">
<path d="M1096.58 358.767L1059.4 337.116L1022.27 358.806L1059.83 380.727L1096.58 358.767Z" fill="#3C78EC"/>
<path d="M1059.83 382C1059.6 382 1059.4 381.923 1059.17 381.846L1021.62 359.886C1021.23 359.654 1021 359.23 1021 358.767C1021 358.304 1021.23 357.879 1021.62 357.648L1058.75 336.035C1059.13 335.804 1059.63 335.804 1060.02 336.035L1097.19 357.686C1097.58 357.918 1097.81 358.342 1097.81 358.767C1097.81 359.23 1097.58 359.654 1097.19 359.886L1060.44 381.846C1060.29 381.923 1060.06 382 1059.83 382ZM1024.81 358.805L1059.83 379.26L1094.07 358.805L1059.4 338.621L1024.81 358.805Z" fill="black"/>
<path d="M1059.4 293.274V337.309L1096.73 358.844V315.311L1059.4 293.274Z" fill="#FF722C"/>
<path d="M1096.73 360.118C1096.5 360.118 1096.31 360.079 1096.11 359.963L1058.79 338.428C1058.4 338.196 1058.13 337.772 1058.13 337.309V293.274C1058.13 292.81 1058.36 292.386 1058.79 292.154C1059.17 291.923 1059.67 291.923 1060.06 292.154L1097.38 314.191C1097.77 314.423 1098 314.847 1098 315.272V358.805C1098 359.268 1097.77 359.693 1097.38 359.925C1097.15 360.079 1096.96 360.118 1096.73 360.118ZM1060.68 336.575L1095.46 356.644V316.044L1060.68 295.512V336.575Z" fill="black"/>
<path d="M1059.4 293.274V337.309L1022.43 358.883V315.233L1059.4 293.274Z" fill="white"/>
<path d="M1022.43 360.156C1022.19 360.156 1022 360.117 1021.81 360.002C1021.42 359.77 1021.15 359.346 1021.15 358.882V315.233C1021.15 314.77 1021.39 314.346 1021.77 314.114L1058.75 292.193C1059.13 291.961 1059.64 291.961 1060.02 292.193C1060.41 292.425 1060.68 292.849 1060.68 293.312V337.347C1060.68 337.81 1060.44 338.235 1060.06 338.467L1023.08 360.04C1022.85 360.079 1022.66 360.156 1022.43 360.156ZM1023.7 315.967V356.683L1058.13 336.575V295.512L1023.7 315.967Z" fill="black"/>
</g>
<path d="M207.066 275.052V321.585L247.669 345.489V299.432L207.066 275.052Z" fill="#FF722C"/>
<path d="M247.669 346.801C247.431 346.801 247.192 346.721 246.994 346.602L206.392 322.699C205.994 322.46 205.756 322.023 205.756 321.585V275.052C205.756 274.575 205.994 274.137 206.431 273.898C206.829 273.66 207.345 273.66 207.742 273.898L248.384 298.319C248.782 298.557 249.02 298.995 249.02 299.432V345.449C249.02 345.926 248.782 346.363 248.345 346.602C248.146 346.721 247.908 346.801 247.669 346.801ZM208.378 320.83L246.398 343.182V300.188L208.378 277.359V320.83Z" fill="black"/>
<path d="M174.053 209.03L214.219 232.018L174.609 256.08L134.047 232.217L174.053 209.03Z" fill="#3C78EC"/>
<path d="M247.59 251.387L287.795 274.376L248.147 298.438L207.584 274.574L247.59 251.387Z" fill="#3C78EC"/>
<path d="M248.147 299.75C247.909 299.75 247.67 299.67 247.472 299.551L206.909 275.728C206.512 275.489 206.273 275.051 206.273 274.574C206.273 274.097 206.512 273.659 206.909 273.461L246.915 250.234C247.313 249.995 247.829 249.995 248.226 250.234L288.432 273.222C288.829 273.461 289.067 273.898 289.107 274.336C289.107 274.813 288.869 275.25 288.471 275.489L248.862 299.551C248.624 299.67 248.385 299.75 248.147 299.75ZM210.207 274.614L248.147 296.926L285.214 274.455L247.631 252.938L210.207 274.614Z" fill="black"/>
<path d="M212.67 324.767L252.835 301.142L214.537 278.87L174.173 302.494L133.769 278.671L60.3516 321.506L100.994 345.21L135.597 324.767L139.57 327.153L139.49 367.641L175.246 388.482L247.67 345.289L212.67 324.767Z" fill="#3C78EC"/>
<path d="M139.568 327.153L173.854 347.278L139.608 367.084L139.568 327.153Z" fill="white"/>
<path d="M175.246 389.795C175.008 389.795 174.809 389.715 174.571 389.636L138.815 368.795C138.418 368.556 138.18 368.119 138.18 367.642L138.259 327.909L135.597 326.318L101.669 346.363C101.272 346.602 100.756 346.602 100.358 346.363L59.6767 322.659C59.2794 322.421 59.041 321.983 59.041 321.506C59.041 321.029 59.2794 320.591 59.6767 320.352L133.095 277.518C133.492 277.279 134.008 277.279 134.406 277.518L174.174 300.944L213.862 277.677C214.259 277.438 214.776 277.438 215.173 277.677L253.471 299.989C253.868 300.228 254.107 300.665 254.107 301.103C254.107 301.58 253.868 302.017 253.471 302.256L215.213 324.767L248.267 344.136C248.664 344.375 248.902 344.812 248.902 345.25C248.902 345.727 248.664 346.165 248.267 346.363L175.922 389.636C175.723 389.755 175.485 389.795 175.246 389.795ZM140.802 366.886L175.246 386.971L245.089 345.29L211.995 325.921C211.598 325.682 211.359 325.244 211.359 324.807C211.359 324.33 211.598 323.892 211.995 323.693L250.253 301.222L214.538 280.381L174.849 303.648C174.452 303.887 173.935 303.887 173.538 303.648L133.77 280.222L62.9741 321.506L101.034 343.699L134.962 323.654C135.359 323.415 135.876 323.415 136.313 323.654L140.285 326.04C140.683 326.279 140.921 326.716 140.921 327.153L140.802 366.886Z" fill="black"/>
<path d="M173.855 114.333V208.155L214.815 232.018L214.537 278.79L252.835 301.142L253.113 254.49L287.637 274.296V180.633L173.855 114.333Z" fill="#FF722C"/>
<path d="M252.836 302.455C252.597 302.455 252.399 302.375 252.16 302.296L213.862 279.984C213.465 279.745 213.227 279.308 213.227 278.83L213.505 232.814L173.181 209.309C172.783 209.07 172.545 208.632 172.545 208.155V114.333C172.545 113.855 172.783 113.418 173.22 113.179C173.618 112.941 174.134 112.941 174.531 113.179L288.313 179.479C288.71 179.718 288.949 180.156 288.949 180.633V274.256C288.949 274.734 288.71 275.171 288.313 275.41C287.916 275.648 287.399 275.648 287.002 275.41L254.425 256.717L254.147 301.103C254.147 301.58 253.908 302.017 253.471 302.216C253.313 302.375 253.074 302.455 252.836 302.455ZM215.849 278.075L251.525 298.875L251.803 254.49C251.803 254.012 252.041 253.575 252.478 253.376C252.875 253.137 253.392 253.137 253.789 253.376L286.366 272.029V181.388L175.167 116.6V207.36L215.491 230.865C215.888 231.104 216.127 231.541 216.127 232.018L215.849 278.075Z" fill="black"/>
<path d="M173.775 114.491V208.314V208.553L133.411 232.058L133.45 279.108L133.291 279.228L60.3105 321.744V180.633L173.775 114.491Z" fill="white"/>
<path d="M60.311 323.057C60.0727 323.057 59.874 323.017 59.6754 322.898C59.2781 322.659 59 322.222 59 321.745V180.633C59 180.156 59.2384 179.718 59.6357 179.48L173.139 113.338C173.537 113.1 174.053 113.1 174.45 113.338C174.848 113.577 175.126 114.015 175.126 114.492V208.553C175.126 209.03 174.887 209.468 174.49 209.706L134.762 232.854L134.802 279.149C134.802 279.626 134.563 280.063 134.166 280.302L60.9864 322.898C60.748 323.017 60.5494 323.057 60.311 323.057ZM61.6221 181.389V319.478L132.14 278.353L132.1 232.058C132.1 231.581 132.338 231.144 132.736 230.905L172.464 207.758V116.759L61.6221 181.389Z" fill="black"/>
<path d="M133.531 232.058V278.592L174.173 302.495V256.478L133.531 232.058Z" fill="#FF722C"/>
<path d="M174.173 303.807C173.935 303.807 173.696 303.728 173.498 303.609L132.895 279.745C132.498 279.507 132.26 279.069 132.26 278.632V232.098C132.26 231.621 132.498 231.183 132.935 230.945C133.332 230.706 133.849 230.706 134.246 230.945L174.888 255.365C175.285 255.604 175.524 256.041 175.524 256.479V302.495C175.524 302.972 175.285 303.41 174.848 303.648C174.65 303.768 174.411 303.807 174.173 303.807ZM134.842 277.876L172.862 300.228V257.234L134.842 234.405V277.876Z" fill="black"/>
<path d="M214.693 232.019V278.552L174.369 302.137V256.001L214.693 232.019Z" fill="white"/>
<path d="M174.37 303.449C174.131 303.449 173.933 303.409 173.734 303.29C173.337 303.052 173.059 302.614 173.059 302.137V256.001C173.059 255.524 173.297 255.126 173.694 254.887L214.018 230.905C214.416 230.666 214.932 230.666 215.329 230.905C215.727 231.143 216.005 231.581 216.005 232.058V278.592C216.005 279.069 215.766 279.506 215.369 279.705L175.045 303.29C174.807 303.409 174.608 303.449 174.37 303.449ZM175.681 256.757V299.87L213.383 277.796V234.325L175.681 256.757Z" fill="black"/>
<path d="M60.3502 228.359C59.9132 228.359 59.4762 228.121 59.1981 227.723C58.8405 227.087 59.0391 226.291 59.6748 225.933L172.463 160.269C173.099 159.911 173.894 160.11 174.251 160.747C174.609 161.383 174.41 162.178 173.774 162.536L60.9858 228.16C60.7872 228.319 60.5488 228.359 60.3502 228.359Z" fill="black"/>
<path d="M60.3502 275.767C59.9132 275.767 59.4762 275.529 59.1981 275.131C58.8405 274.495 59.0391 273.699 59.6748 273.341L173.059 207.359C173.695 207.001 174.49 207.2 174.847 207.837C175.205 208.473 175.006 209.268 174.37 209.626L60.9858 275.569C60.7872 275.688 60.5488 275.767 60.3502 275.767Z" fill="black"/>
<path d="M133.409 280.301C132.694 280.301 132.098 279.705 132.098 278.989V139.031C132.098 138.315 132.694 137.718 133.409 137.718C134.124 137.718 134.72 138.315 134.72 139.031V278.989C134.72 279.705 134.124 280.301 133.409 280.301Z" fill="black"/>
<path d="M94.9126 302.932C94.1975 302.932 93.6016 302.335 93.6016 301.62V161.184C93.6016 160.468 94.1975 159.872 94.9126 159.872C95.6277 159.872 96.2236 160.468 96.2236 161.184V301.659C96.2236 302.335 95.6674 302.932 94.9126 302.932Z" fill="black"/>
<path d="M287.557 228.439C287.319 228.439 287.12 228.399 286.882 228.279L174.173 162.496C173.537 162.138 173.339 161.343 173.696 160.707C174.054 160.07 174.848 159.871 175.484 160.229L288.233 225.973C288.868 226.331 289.067 227.126 288.709 227.762C288.431 228.2 287.994 228.439 287.557 228.439Z" fill="black"/>
<path d="M287.557 275.768C287.319 275.768 287.12 275.728 286.882 275.608L173.259 209.308C172.623 208.95 172.424 208.155 172.782 207.519C173.14 206.882 173.934 206.683 174.57 207.041L288.193 273.341C288.828 273.699 289.027 274.495 288.669 275.131C288.431 275.529 287.994 275.768 287.557 275.768Z" fill="black"/>
<path d="M214.657 279.546C213.942 279.546 213.346 278.949 213.346 278.233V139.031C213.346 138.315 213.942 137.718 214.657 137.718C215.372 137.718 215.968 138.315 215.968 139.031V278.233C215.968 278.949 215.372 279.546 214.657 279.546Z" fill="black"/>
<path d="M253.114 302.256C252.399 302.256 251.803 301.659 251.803 300.943V161.184C251.803 160.468 252.399 159.872 253.114 159.872C253.829 159.872 254.425 160.468 254.425 161.184V300.983C254.425 301.699 253.869 302.256 253.114 302.256Z" fill="black"/>
<path d="M101.149 346.244C100.712 346.244 100.275 346.005 99.9969 345.608C99.6393 344.971 99.838 344.176 100.474 343.818L213.461 277.995C214.097 277.637 214.891 277.836 215.249 278.472C215.606 279.109 215.408 279.904 214.772 280.262L101.824 346.085C101.626 346.204 101.387 346.244 101.149 346.244Z" fill="black"/>
<path d="M247.311 346.244C247.073 346.244 246.874 346.204 246.636 346.085L133.688 280.262C133.053 279.904 132.854 279.109 133.212 278.472C133.569 277.836 134.364 277.637 134.999 277.995L247.987 343.818C248.622 344.176 248.821 344.971 248.463 345.608C248.185 346.005 247.748 346.244 247.311 346.244Z" fill="black"/>
<path d="M208.853 368.874C208.615 368.874 208.416 368.835 208.178 368.715L95.1904 302.892C94.5548 302.534 94.3561 301.739 94.7137 301.103C95.0712 300.466 95.8658 300.267 96.5015 300.625L209.489 366.448C210.124 366.806 210.323 367.602 209.965 368.238C209.727 368.636 209.29 368.874 208.853 368.874Z" fill="black"/>
<path d="M139.61 368.397C139.173 368.397 138.736 368.158 138.458 367.761C138.1 367.124 138.299 366.329 138.935 365.971L251.922 300.148C252.557 299.79 253.352 299.989 253.71 300.625C254.067 301.262 253.868 302.057 253.233 302.415L140.285 368.238C140.087 368.357 139.848 368.397 139.61 368.397Z" fill="black"/>
<path d="M222.284 263.358L182.595 240.251L142.986 263.398L183.072 286.744L222.284 263.358Z" fill="#3C78EC"/>
<path d="M183.073 288.057C182.834 288.057 182.636 287.977 182.397 287.898L142.311 264.552C141.914 264.313 141.676 263.876 141.676 263.398C141.676 262.921 141.914 262.483 142.311 262.245L181.921 239.137C182.318 238.899 182.834 238.899 183.232 239.137L222.88 262.205C223.278 262.444 223.516 262.881 223.516 263.319C223.516 263.796 223.278 264.233 222.88 264.472L183.748 287.858C183.51 288.017 183.311 288.057 183.073 288.057ZM145.609 263.398L183.073 285.233L219.702 263.358L182.596 241.802L145.609 263.398Z" fill="black"/>
<path d="M182.633 193.518V240.449L222.441 263.438V217.024L182.633 193.518Z" fill="#FF722C"/>
<path d="M222.441 264.75C222.203 264.75 222.004 264.711 221.805 264.591L181.998 241.603C181.6 241.364 181.322 240.927 181.322 240.45V193.518C181.322 193.041 181.561 192.604 181.998 192.365C182.395 192.126 182.911 192.126 183.309 192.365L223.077 215.91C223.474 216.149 223.712 216.586 223.712 217.024V263.438C223.712 263.915 223.474 264.353 223.077 264.591C222.878 264.671 222.64 264.75 222.441 264.75ZM183.944 239.694L221.13 261.171V217.779L183.944 195.825V239.694Z" fill="black"/>
<path d="M182.636 193.518V240.449L143.146 263.478V216.904L182.636 193.518Z" fill="white"/>
<path d="M143.147 264.79C142.909 264.79 142.71 264.75 142.511 264.631C142.114 264.392 141.836 263.955 141.836 263.478V216.944C141.836 216.467 142.074 216.069 142.472 215.831L181.922 192.445C182.319 192.206 182.836 192.206 183.233 192.445C183.63 192.683 183.908 193.121 183.908 193.598V240.529C183.908 241.006 183.67 241.444 183.273 241.683L143.822 264.671C143.624 264.711 143.385 264.79 143.147 264.79ZM144.458 217.66V261.171L181.286 239.694V195.825L144.458 217.66Z" fill="black"/>
<path d="M165.868 419.265L127.53 396.953L89.2324 419.305L127.967 441.896L165.868 419.265Z" fill="#3C78EC"/>
<path d="M127.968 443.208C127.73 443.208 127.531 443.129 127.293 443.049L88.5575 420.459C88.1602 420.22 87.9219 419.782 87.9219 419.305C87.9219 418.828 88.1602 418.39 88.5575 418.152L126.856 395.8C127.253 395.561 127.769 395.561 128.167 395.8L166.504 418.112C166.902 418.351 167.14 418.788 167.14 419.226C167.14 419.703 166.902 420.14 166.504 420.379L128.604 443.009C128.445 443.129 128.206 443.208 127.968 443.208ZM91.855 419.305L127.968 440.384L163.286 419.305L127.531 398.504L91.855 419.305Z" fill="black"/>
<path d="M127.531 351.772V397.152L166.028 419.345V374.482L127.531 351.772Z" fill="#FF722C"/>
<path d="M166.028 420.658C165.79 420.658 165.591 420.618 165.393 420.499L126.896 398.306C126.499 398.067 126.221 397.63 126.221 397.152V351.772C126.221 351.295 126.459 350.858 126.896 350.619C127.293 350.38 127.81 350.38 128.207 350.619L166.704 373.329C167.101 373.567 167.339 374.005 167.339 374.442V419.305C167.339 419.783 167.101 420.22 166.704 420.459C166.465 420.618 166.267 420.658 166.028 420.658ZM128.843 396.397L164.717 417.078V375.238L128.843 354.039V396.397Z" fill="black"/>
<path d="M127.53 351.772V397.152L89.3906 419.385V374.403L127.53 351.772Z" fill="white"/>
<path d="M89.3911 420.697C89.1527 420.697 88.9541 420.658 88.7555 420.538C88.3582 420.3 88.0801 419.862 88.0801 419.385V374.403C88.0801 373.925 88.3185 373.528 88.7157 373.289L126.855 350.659C127.252 350.42 127.769 350.42 128.166 350.659C128.563 350.897 128.841 351.335 128.841 351.812V397.192C128.841 397.669 128.603 398.107 128.206 398.346L90.0665 420.578C89.8281 420.618 89.6295 420.697 89.3911 420.697ZM90.7021 375.119V417.078L126.219 396.357V354.079L90.7021 375.119Z" fill="black"/>
<path d="M309.964 387.408L271.626 365.096L233.328 387.448L272.063 409.998L309.964 387.408Z" fill="#3C78EC"/>
<path d="M272.063 411.311C271.825 411.311 271.626 411.231 271.388 411.152L232.692 388.561C232.295 388.323 232.057 387.885 232.057 387.408C232.057 386.931 232.295 386.493 232.692 386.255L270.99 363.903C271.388 363.664 271.904 363.664 272.301 363.903L310.639 386.215C311.036 386.453 311.275 386.891 311.275 387.328C311.275 387.806 311.036 388.243 310.639 388.482L272.738 411.152C272.54 411.271 272.301 411.311 272.063 411.311ZM235.95 387.448L272.063 408.527L307.381 387.448L271.626 366.647L235.95 387.448Z" fill="black"/>
<path d="M271.668 319.915V365.255L310.125 387.487V342.624L271.668 319.915Z" fill="#FF722C"/>
<path d="M310.124 388.8C309.886 388.8 309.687 388.76 309.488 388.641L270.992 366.448C270.594 366.209 270.316 365.772 270.316 365.295V319.915C270.316 319.437 270.555 319 270.992 318.761C271.389 318.523 271.906 318.523 272.303 318.761L310.8 341.471C311.197 341.71 311.435 342.147 311.435 342.585V387.448C311.435 387.925 311.197 388.363 310.8 388.601C310.601 388.72 310.362 388.8 310.124 388.8ZM272.978 364.499L308.853 385.181V343.38L272.978 322.182V364.499Z" fill="black"/>
<path d="M271.667 319.915V365.255L233.488 387.527V342.505L271.667 319.915Z" fill="white"/>
<path d="M233.489 388.84C233.25 388.84 233.052 388.8 232.853 388.681C232.456 388.442 232.178 388.005 232.178 387.527V342.505C232.178 342.028 232.416 341.63 232.813 341.392L270.953 318.761C271.35 318.523 271.866 318.523 272.264 318.761C272.661 319 272.939 319.437 272.939 319.915V365.295C272.939 365.772 272.701 366.209 272.303 366.448L234.164 388.681C233.966 388.76 233.727 388.84 233.489 388.84ZM234.8 343.261V385.221L270.317 364.499V322.221L234.8 343.261Z" fill="black"/>
<rect x="497" y="186" width="407" height="86" rx="6" fill="white"/>
<g clip-path="url(#clip24_2921_45617)">
<mask id="mask0_2921_45617" style="mask-type:luminance" maskUnits="userSpaceOnUse" x="521" y="209" width="41" height="40">
<path d="M561.301 209H521.697V249H561.301V209Z" fill="white"/>
</mask>
<g mask="url(#mask0_2921_45617)">
<path d="M521.697 228.2C521.697 219.149 521.697 214.624 524.481 211.812C527.265 209 531.746 209 540.707 209H542.291C551.253 209 555.733 209 558.517 211.812C561.301 214.624 561.301 219.149 561.301 228.2V229.8C561.301 238.851 561.301 243.376 558.517 246.188C555.733 249 551.253 249 542.291 249H540.707C531.746 249 527.265 249 524.481 246.188C521.697 243.376 521.697 238.851 521.697 229.8V228.2Z" fill="#0077FF"/>
<path d="M542.77 237.817C533.744 237.817 528.595 231.567 528.381 221.167H532.902C533.051 228.8 536.384 232.034 539.024 232.7V221.167H543.282V227.75C545.889 227.467 548.628 224.467 549.552 221.167H553.81C553.1 225.234 550.13 228.234 548.018 229.467C550.13 230.467 553.513 233.084 554.8 237.817H550.113C549.107 234.65 546.599 232.2 543.282 231.867V237.817H542.77Z" fill="white"/>
</g>
</g>
<path d="M579.376 224V207.2H594.232V224H591.16V209.072L591.88 209.84H581.728L582.448 209.072V224H579.376ZM606.769 224.24C605.457 224.24 604.249 224.024 603.145 223.592C602.041 223.16 601.081 222.56 600.265 221.792C599.449 221.008 598.817 220.096 598.369 219.056C597.921 218 597.697 216.848 597.697 215.6C597.697 214.352 597.921 213.208 598.369 212.168C598.817 211.112 599.449 210.2 600.265 209.432C601.081 208.648 602.041 208.04 603.145 207.608C604.249 207.176 605.449 206.96 606.745 206.96C608.057 206.96 609.257 207.176 610.345 207.608C611.449 208.04 612.409 208.648 613.225 209.432C614.041 210.2 614.673 211.112 615.121 212.168C615.569 213.208 615.793 214.352 615.793 215.6C615.793 216.848 615.569 218 615.121 219.056C614.673 220.112 614.041 221.024 613.225 221.792C612.409 222.56 611.449 223.16 610.345 223.592C609.257 224.024 608.065 224.24 606.769 224.24ZM606.745 221.504C607.593 221.504 608.377 221.36 609.097 221.072C609.817 220.784 610.441 220.376 610.969 219.848C611.497 219.304 611.905 218.68 612.193 217.976C612.497 217.256 612.649 216.464 612.649 215.6C612.649 214.736 612.497 213.952 612.193 213.248C611.905 212.528 611.497 211.904 610.969 211.376C610.441 210.832 609.817 210.416 609.097 210.128C608.377 209.84 607.593 209.696 606.745 209.696C605.897 209.696 605.113 209.84 604.393 210.128C603.689 210.416 603.065 210.832 602.521 211.376C601.993 211.904 601.577 212.528 601.273 213.248C600.985 213.952 600.841 214.736 600.841 215.6C600.841 216.448 600.985 217.232 601.273 217.952C601.577 218.672 601.993 219.304 602.521 219.848C603.049 220.376 603.673 220.784 604.393 221.072C605.113 221.36 605.897 221.504 606.745 221.504ZM626.971 224.24C625.691 224.24 624.499 224.032 623.395 223.616C622.307 223.184 621.355 222.584 620.539 221.816C619.739 221.032 619.115 220.112 618.667 219.056C618.219 218 617.995 216.848 617.995 215.6C617.995 214.352 618.219 213.2 618.667 212.144C619.115 211.088 619.747 210.176 620.563 209.408C621.379 208.624 622.331 208.024 623.419 207.608C624.507 207.176 625.699 206.96 626.995 206.96C628.371 206.96 629.627 207.2 630.763 207.68C631.899 208.144 632.859 208.84 633.643 209.768L631.627 211.664C631.019 211.008 630.339 210.52 629.587 210.2C628.835 209.864 628.019 209.696 627.139 209.696C626.259 209.696 625.451 209.84 624.715 210.128C623.995 210.416 623.363 210.824 622.819 211.352C622.291 211.88 621.875 212.504 621.571 213.224C621.283 213.944 621.139 214.736 621.139 215.6C621.139 216.464 621.283 217.256 621.571 217.976C621.875 218.696 622.291 219.32 622.819 219.848C623.363 220.376 623.995 220.784 624.715 221.072C625.451 221.36 626.259 221.504 627.139 221.504C628.019 221.504 628.835 221.344 629.587 221.024C630.339 220.688 631.019 220.184 631.627 219.512L633.643 221.432C632.859 222.344 631.899 223.04 630.763 223.52C629.627 224 628.363 224.24 626.971 224.24ZM636.564 224V207.2H639.108L646.476 219.464H645.108L652.356 207.2H654.9L654.948 224H651.972L651.948 211.832H652.572L646.428 222.08H645.036L638.796 211.832H639.516V224H636.564ZM667.449 224.24C666.137 224.24 664.929 224.024 663.825 223.592C662.721 223.16 661.761 222.56 660.945 221.792C660.129 221.008 659.497 220.096 659.049 219.056C658.601 218 658.377 216.848 658.377 215.6C658.377 214.352 658.601 213.208 659.049 212.168C659.497 211.112 660.129 210.2 660.945 209.432C661.761 208.648 662.721 208.04 663.825 207.608C664.929 207.176 666.129 206.96 667.425 206.96C668.737 206.96 669.937 207.176 671.025 207.608C672.129 208.04 673.089 208.648 673.905 209.432C674.721 210.2 675.353 211.112 675.801 212.168C676.249 213.208 676.473 214.352 676.473 215.6C676.473 216.848 676.249 218 675.801 219.056C675.353 220.112 674.721 221.024 673.905 221.792C673.089 222.56 672.129 223.16 671.025 223.592C669.937 224.024 668.745 224.24 667.449 224.24ZM667.425 221.504C668.273 221.504 669.057 221.36 669.777 221.072C670.497 220.784 671.121 220.376 671.649 219.848C672.177 219.304 672.585 218.68 672.873 217.976C673.177 217.256 673.329 216.464 673.329 215.6C673.329 214.736 673.177 213.952 672.873 213.248C672.585 212.528 672.177 211.904 671.649 211.376C671.121 210.832 670.497 210.416 669.777 210.128C669.057 209.84 668.273 209.696 667.425 209.696C666.577 209.696 665.793 209.84 665.073 210.128C664.369 210.416 663.745 210.832 663.201 211.376C662.673 211.904 662.257 212.528 661.953 213.248C661.665 213.952 661.521 214.736 661.521 215.6C661.521 216.448 661.665 217.232 661.953 217.952C662.257 218.672 662.673 219.304 663.201 219.848C663.729 220.376 664.353 220.784 665.073 221.072C665.793 221.36 666.577 221.504 667.425 221.504ZM683.216 224V209.072L683.96 209.84H677.672V207.2H691.88V209.84H685.592L686.312 209.072V224H683.216ZM694.571 224V207.2H701.483C702.971 207.2 704.243 207.44 705.299 207.92C706.371 208.4 707.195 209.088 707.771 209.984C708.347 210.88 708.635 211.944 708.635 213.176C708.635 214.408 708.347 215.472 707.771 216.368C707.195 217.264 706.371 217.952 705.299 218.432C704.243 218.912 702.971 219.152 701.483 219.152H696.299L697.691 217.688V224H694.571ZM697.691 218.024L696.299 216.512H701.339C702.715 216.512 703.747 216.224 704.435 215.648C705.139 215.056 705.491 214.232 705.491 213.176C705.491 212.104 705.139 211.28 704.435 210.704C703.747 210.128 702.715 209.84 701.339 209.84H696.299L697.691 208.304V218.024ZM714.466 214.184H722.818V216.752H714.466V214.184ZM714.706 221.384H724.186V224H711.586V207.2H723.85V209.816H714.706V221.384ZM731.193 224V209.072L731.937 209.84H725.649V207.2H739.857V209.84H733.569L734.289 209.072V224H731.193ZM750.299 212.888C752.299 212.888 753.843 213.336 754.931 214.232C756.019 215.128 756.563 216.472 756.563 218.264C756.563 220.152 755.963 221.584 754.763 222.56C753.579 223.52 751.923 224 749.795 224H742.571V207.2H745.643V212.888H750.299ZM749.651 221.6C750.851 221.6 751.779 221.32 752.435 220.76C753.107 220.2 753.443 219.384 753.443 218.312C753.443 217.256 753.115 216.488 752.459 216.008C751.803 215.512 750.867 215.264 749.651 215.264H745.643V221.6H749.651ZM577.216 252L584.776 235.2H587.848L595.432 252H592.168L585.664 236.856H586.912L580.432 252H577.216ZM580.696 248.112L581.536 245.664H590.608L591.448 248.112H580.696ZM598.008 252V235.2H604.92C606.408 235.2 607.68 235.44 608.736 235.92C609.808 236.4 610.632 237.088 611.208 237.984C611.784 238.88 612.072 239.944 612.072 241.176C612.072 242.408 611.784 243.472 611.208 244.368C610.632 245.264 609.808 245.952 608.736 246.432C607.68 246.912 606.408 247.152 604.92 247.152H599.736L601.128 245.688V252H598.008ZM601.128 246.024L599.736 244.512H604.776C606.152 244.512 607.184 244.224 607.872 243.648C608.576 243.056 608.928 242.232 608.928 241.176C608.928 240.104 608.576 239.28 607.872 238.704C607.184 238.128 606.152 237.84 604.776 237.84H599.736L601.128 236.304V246.024ZM612.993 235.2H616.593L620.553 240.816L624.513 235.2H628.161L622.521 243.264L628.617 252H624.921L620.553 245.88L616.209 252H612.609L618.681 243.384L612.993 235.2ZM630.728 252V235.2H633.8V247.128L642.824 235.2H645.728V252H642.656V240.096L633.632 252H630.728ZM650.462 252V235.2H657.974C659.862 235.2 661.334 235.576 662.39 236.328C663.446 237.064 663.974 238.128 663.974 239.52C663.974 240.896 663.47 241.96 662.462 242.712C661.454 243.448 660.126 243.816 658.478 243.816L658.91 242.952C660.782 242.952 662.23 243.328 663.254 244.08C664.278 244.832 664.79 245.92 664.79 247.344C664.79 248.8 664.254 249.944 663.182 250.776C662.11 251.592 660.526 252 658.43 252H650.462ZM653.534 249.6H658.334C659.422 249.6 660.246 249.4 660.806 249C661.366 248.584 661.646 247.952 661.646 247.104C661.646 246.256 661.366 245.64 660.806 245.256C660.246 244.856 659.422 244.656 658.334 244.656H653.534V249.6ZM653.534 242.376H657.71C658.718 242.376 659.486 242.176 660.014 241.776C660.542 241.36 660.806 240.768 660.806 240C660.806 239.2 660.542 238.6 660.014 238.2C659.486 237.8 658.718 237.6 657.71 237.6H653.534V242.376ZM675.001 252V235.2H682.513C684.401 235.2 685.873 235.576 686.929 236.328C687.985 237.064 688.513 238.128 688.513 239.52C688.513 240.896 688.009 241.96 687.001 242.712C685.993 243.448 684.665 243.816 683.017 243.816L683.449 242.952C685.321 242.952 686.769 243.328 687.793 244.08C688.817 244.832 689.329 245.92 689.329 247.344C689.329 248.8 688.793 249.944 687.721 250.776C686.649 251.592 685.065 252 682.969 252H675.001ZM678.073 249.6H682.873C683.961 249.6 684.785 249.4 685.345 249C685.905 248.584 686.185 247.952 686.185 247.104C686.185 246.256 685.905 245.64 685.345 245.256C684.785 244.856 683.961 244.656 682.873 244.656H678.073V249.6ZM678.073 242.376H682.249C683.257 242.376 684.025 242.176 684.553 241.776C685.081 241.36 685.345 240.768 685.345 240C685.345 239.2 685.081 238.6 684.553 238.2C684.025 237.8 683.257 237.6 682.249 237.6H678.073V242.376ZM700.635 240.888C702.635 240.888 704.179 241.336 705.267 242.232C706.355 243.128 706.899 244.472 706.899 246.264C706.899 248.152 706.299 249.584 705.099 250.56C703.915 251.52 702.259 252 700.131 252H692.907V235.2H695.979V240.888H700.635ZM699.987 249.6C701.187 249.6 702.115 249.32 702.771 248.76C703.443 248.2 703.779 247.384 703.779 246.312C703.779 245.256 703.451 244.488 702.795 244.008C702.139 243.512 701.203 243.264 699.987 243.264H695.979V249.6H699.987ZM709.323 252V235.2H712.395V252H709.323ZM724.846 252.24C723.566 252.24 722.374 252.032 721.27 251.616C720.182 251.184 719.23 250.584 718.414 249.816C717.614 249.032 716.99 248.112 716.542 247.056C716.094 246 715.87 244.848 715.87 243.6C715.87 242.352 716.094 241.2 716.542 240.144C716.99 239.088 717.622 238.176 718.438 237.408C719.254 236.624 720.206 236.024 721.294 235.608C722.382 235.176 723.574 234.96 724.87 234.96C726.246 234.96 727.502 235.2 728.638 235.68C729.774 236.144 730.734 236.84 731.518 237.768L729.502 239.664C728.894 239.008 728.214 238.52 727.462 238.2C726.71 237.864 725.894 237.696 725.014 237.696C724.134 237.696 723.326 237.84 722.59 238.128C721.87 238.416 721.238 238.824 720.694 239.352C720.166 239.88 719.75 240.504 719.446 241.224C719.158 241.944 719.014 242.736 719.014 243.6C719.014 244.464 719.158 245.256 719.446 245.976C719.75 246.696 720.166 247.32 720.694 247.848C721.238 248.376 721.87 248.784 722.59 249.072C723.326 249.36 724.134 249.504 725.014 249.504C725.894 249.504 726.71 249.344 727.462 249.024C728.214 248.688 728.894 248.184 729.502 247.512L731.518 249.432C730.734 250.344 729.774 251.04 728.638 251.52C727.502 252 726.238 252.24 724.846 252.24ZM737.755 252V237.072L738.499 237.84H732.211V235.2H746.419V237.84H740.131L740.851 237.072V252H737.755ZM748.623 249.36C749.503 249.664 750.279 249.744 750.951 249.6C751.623 249.456 752.223 248.968 752.751 248.136L753.567 246.864L753.879 246.528L759.735 235.2H762.807L755.511 248.76C754.919 249.896 754.215 250.76 753.399 251.352C752.583 251.944 751.703 252.272 750.759 252.336C749.831 252.416 748.863 252.24 747.855 251.808L748.623 249.36ZM753.807 249.216L746.319 235.2H749.655L755.511 246.816L753.807 249.216ZM765.001 252V235.2H779.857V252H776.785V237.072L777.505 237.84H767.353L768.073 237.072V252H765.001ZM784.118 252.24C783.846 252.24 783.574 252.216 783.302 252.168C783.03 252.12 782.734 252.064 782.414 252L782.63 249.288C782.854 249.352 783.094 249.384 783.35 249.384C784.022 249.384 784.558 249.112 784.958 248.568C785.358 248.008 785.646 247.192 785.822 246.12C785.998 245.048 786.118 243.728 786.182 242.16L786.422 235.2H798.782V252H795.71V237.072L796.43 237.84H788.438L789.11 237.048L788.942 242.04C788.894 243.704 788.782 245.168 788.606 246.432C788.43 247.696 788.158 248.76 787.79 249.624C787.438 250.472 786.966 251.12 786.374 251.568C785.782 252.016 785.03 252.24 784.118 252.24ZM806.388 242.184H814.74V244.752H806.388V242.184ZM806.628 249.384H816.108V252H803.508V235.2H815.772V237.816H806.628V249.384ZM831.394 235.2H834.514V252H831.394V235.2ZM822.706 252H819.586V235.2H822.706V252ZM831.634 244.8H822.442V242.136H831.634V244.8ZM839.251 252V235.2H842.323V247.128L851.347 235.2H854.251V252H851.179V240.096L842.155 252H839.251ZM858.985 252V235.2H862.057V247.128L871.081 235.2H873.985V252H870.913V240.096L861.889 252H858.985ZM866.449 234.072C865.009 234.072 863.921 233.768 863.185 233.16C862.465 232.552 862.097 231.696 862.081 230.592H864.265C864.281 231.184 864.473 231.64 864.841 231.96C865.225 232.28 865.761 232.44 866.449 232.44C867.137 232.44 867.673 232.28 868.057 231.96C868.457 231.64 868.665 231.184 868.681 230.592H870.841C870.825 231.696 870.449 232.552 869.713 233.16C868.977 233.768 867.889 234.072 866.449 234.072Z" fill="#1D2332"/>
<defs>
<clipPath id="clip0_2921_45617">
<rect width="77" height="90" fill="white" transform="translate(1116 204)"/>
</clipPath>
<clipPath id="clip1_2921_45617">
<rect width="77" height="90" fill="white" transform="translate(1127 65)"/>
</clipPath>
<clipPath id="clip2_2921_45617">
<rect width="77" height="90" fill="white" transform="translate(1164)"/>
</clipPath>
<clipPath id="clip3_2921_45617">
<rect width="77" height="90" fill="white" transform="translate(1275 328)"/>
</clipPath>
<clipPath id="clip4_2921_45617">
<rect width="77" height="90" fill="white" transform="translate(1275 65)"/>
</clipPath>
<clipPath id="clip5_2921_45617">
<rect width="77" height="90" fill="white" transform="translate(1312)"/>
</clipPath>
<clipPath id="clip6_2921_45617">
<rect width="77" height="90" fill="white" transform="translate(1423 328)"/>
</clipPath>
<clipPath id="clip7_2921_45617">
<rect width="77" height="90" fill="white" transform="translate(1201 65)"/>
</clipPath>
<clipPath id="clip8_2921_45617">
<rect width="77" height="90" fill="white" transform="translate(1238)"/>
</clipPath>
<clipPath id="clip9_2921_45617">
<rect width="77" height="90" fill="white" transform="translate(1349 328)"/>
</clipPath>
<clipPath id="clip10_2921_45617">
<rect width="77" height="90" fill="white" transform="translate(1349 65)"/>
</clipPath>
<clipPath id="clip11_2921_45617">
<rect width="77" height="90" fill="white" transform="translate(1164 131)"/>
</clipPath>
<clipPath id="clip12_2921_45617">
<rect width="77" height="90" fill="white" transform="translate(1312 131)"/>
</clipPath>
<clipPath id="clip13_2921_45617">
<rect width="77" height="90" fill="white" transform="translate(1238 131)"/>
</clipPath>
<clipPath id="clip14_2921_45617">
<rect width="77" height="90" fill="white" transform="translate(1386 131)"/>
</clipPath>
<clipPath id="clip15_2921_45617">
<rect width="77" height="90" fill="white" transform="translate(1201 197)"/>
</clipPath>
<clipPath id="clip16_2921_45617">
<rect width="77" height="90" fill="white" transform="translate(1349 197)"/>
</clipPath>
<clipPath id="clip17_2921_45617">
<rect width="77" height="90" fill="white" transform="translate(1275 197)"/>
</clipPath>
<clipPath id="clip18_2921_45617">
<rect width="77" height="90" fill="white" transform="translate(1423 197)"/>
</clipPath>
<clipPath id="clip19_2921_45617">
<rect width="77" height="90" fill="white" transform="translate(1238 263)"/>
</clipPath>
<clipPath id="clip20_2921_45617">
<rect width="77" height="90" fill="white" transform="translate(1386 263)"/>
</clipPath>
<clipPath id="clip21_2921_45617">
<rect width="77" height="90" fill="white" transform="translate(1312 263)"/>
</clipPath>
<clipPath id="clip22_2921_45617">
<rect width="77" height="90" fill="white" transform="translate(1460 263)"/>
</clipPath>
<clipPath id="clip23_2921_45617">
<rect width="77" height="90" fill="white" transform="translate(1021 292)"/>
</clipPath>
<clipPath id="clip24_2921_45617">
<rect width="40" height="40" fill="white" transform="translate(522 209)"/>
</clipPath>
</defs>
</svg>
