<svg width="167" height="241" viewBox="0 0 167 241" fill="none" xmlns="http://www.w3.org/2000/svg">
<g clip-path="url(#clip0_779_2590)">
<rect x="82" width="4" height="51" fill="white"/>
<g clip-path="url(#clip1_779_2590)">
<path d="M89.6344 162.99H29.5825C25.9486 162.99 23 160.05 23 156.428C23 152.806 25.9486 149.866 29.5825 149.866H89.6344C93.2682 149.866 96.2168 152.806 96.2168 156.428C96.2168 160.05 93.2682 162.99 89.6344 162.99ZM29.5825 153.716C28.0874 153.716 26.8415 154.938 26.8415 156.428C26.8415 157.918 28.0666 159.16 29.5825 159.16H89.6344C91.1294 159.16 92.3546 157.939 92.3546 156.428C92.3546 154.938 91.1294 153.716 89.6344 153.716H29.5825Z" fill="white"/>
<path d="M87.101 169.904H32.1157C31.0567 169.904 30.1846 169.034 30.1846 167.978V161.065C30.1846 160.009 31.0567 159.14 32.1157 159.14H87.101C88.16 159.14 89.0321 160.009 89.0321 161.065V167.978C89.0114 169.055 88.16 169.904 87.101 169.904ZM34.0468 166.074H85.1699V163.011H34.0468V166.074Z" fill="white"/>
<path d="M46.9624 184H39.3833C38.3243 184 37.4521 183.131 37.4521 182.075V167.999C37.4521 166.943 38.3243 166.074 39.3833 166.074H46.9624C48.0215 166.074 48.8936 166.943 48.8936 167.999V182.075C48.8728 183.131 48.0215 184 46.9624 184ZM41.2936 180.15H45.0106V169.904H41.2936V180.15Z" fill="white"/>
<path d="M79.8335 184H72.2544C71.1954 184 70.3232 183.131 70.3232 182.075V167.999C70.3232 166.943 71.1954 166.074 72.2544 166.074H79.8335C80.8925 166.074 81.7647 166.943 81.7647 167.999V182.075C81.7647 183.131 80.8925 184 79.8335 184ZM74.1855 180.15H77.9024V169.904H74.1855V180.15Z" fill="white"/>
<path d="M49.2055 153.716C48.1465 153.716 47.2744 152.847 47.2744 151.791V147.237C47.2744 146.182 48.1465 145.312 49.2055 145.312C50.2645 145.312 51.1367 146.182 51.1367 147.237V151.791C51.1367 152.847 50.2645 153.716 49.2055 153.716Z" fill="white"/>
<path d="M70.0112 153.716C68.9522 153.716 68.0801 152.847 68.0801 151.791V147.237C68.0801 146.182 68.9522 145.312 70.0112 145.312C71.0702 145.312 71.9423 146.182 71.9423 147.237V151.791C71.9423 152.847 71.0702 153.716 70.0112 153.716Z" fill="white"/>
<path d="M59.608 126.786C53.2747 126.786 48.125 121.404 48.125 114.801C48.125 108.198 53.2747 102.816 59.608 102.816C65.9412 102.816 71.0909 108.198 71.0909 114.801C71.0909 121.404 65.9412 126.786 59.608 126.786ZM59.608 106.625C55.3927 106.625 51.9873 110.289 51.9873 114.78C51.9873 119.272 55.4135 122.936 59.608 122.936C63.8232 122.936 67.2286 119.272 67.2286 114.78C67.2286 110.289 63.8232 106.625 59.608 106.625Z" fill="white"/>
<path d="M79.6469 153.716H39.5708C38.5118 153.716 37.6396 152.847 37.6396 151.791V139.951C37.6396 133.886 42.5817 128.96 48.6658 128.96H70.5519C76.636 128.96 81.578 133.886 81.578 139.951V151.791C81.578 152.847 80.7059 153.716 79.6469 153.716ZM41.5019 149.866H77.7366V139.951C77.7366 136.018 74.518 132.81 70.5727 132.81H48.6658C44.7205 132.81 41.5019 136.018 41.5019 139.951V149.866Z" fill="white"/>
<path d="M136.895 165.163H98.646C97.587 165.163 96.7148 164.294 96.7148 163.238C96.7148 162.183 97.587 161.313 98.646 161.313H136.895C138.141 161.313 139.137 160.299 139.137 159.078C139.137 157.836 138.12 156.842 136.895 156.842H100.681C99.6219 156.842 98.7498 155.973 98.7498 154.917C98.7498 153.861 99.6219 152.992 100.681 152.992H136.916C140.279 152.992 143.02 155.724 143.02 159.078C143.02 162.431 140.259 165.163 136.895 165.163Z" fill="white"/>
<path d="M134.632 171.373H91.8559C90.7969 171.373 89.9248 170.504 89.9248 169.448C89.9248 168.392 90.7969 167.523 91.8559 167.523H132.7V165.163H98.646C97.587 165.163 96.7149 164.294 96.7149 163.238C96.7149 162.183 97.587 161.313 98.646 161.313H134.632C135.691 161.313 136.563 162.183 136.563 163.238V169.427C136.563 170.504 135.691 171.373 134.632 171.373Z" fill="white"/>
<path d="M98.646 184H91.8559C90.7969 184 89.9248 183.131 89.9248 182.075V169.448C89.9248 168.392 90.7969 167.523 91.8559 167.523H98.646C99.705 167.523 100.577 168.392 100.577 169.448V182.075C100.577 183.131 99.7258 184 98.646 184ZM93.7871 180.15H96.7149V171.373H93.7871V180.15Z" fill="white"/>
<path d="M128.132 184H121.342C120.283 184 119.411 183.131 119.411 182.075V169.448C119.411 168.392 120.283 167.523 121.342 167.523H128.132C129.191 167.523 130.063 168.392 130.063 169.448V182.075C130.063 183.131 129.191 184 128.132 184ZM123.253 180.15H126.201V171.373H123.253V180.15Z" fill="white"/>
<path d="M100.681 156.842C99.6221 156.842 98.75 155.973 98.75 154.917V150.839C98.75 149.784 99.6221 148.914 100.681 148.914C101.74 148.914 102.612 149.784 102.612 150.839V154.917C102.591 155.993 101.74 156.842 100.681 156.842Z" fill="white"/>
<path d="M119.307 156.842C118.248 156.842 117.376 155.973 117.376 154.917V150.839C117.376 149.784 118.248 148.914 119.307 148.914C120.366 148.914 121.238 149.784 121.238 150.839V154.917C121.238 155.993 120.387 156.842 119.307 156.842Z" fill="white"/>
<path d="M110.005 132.706C104.211 132.706 99.5186 127.8 99.5186 121.756C99.5186 115.712 104.232 110.806 110.005 110.806C115.798 110.806 120.491 115.712 120.491 121.756C120.491 127.8 115.777 132.706 110.005 132.706ZM110.005 114.656C106.35 114.656 103.36 117.844 103.36 121.756C103.36 125.668 106.329 128.856 110.005 128.856C113.659 128.856 116.65 125.668 116.65 121.756C116.65 117.844 113.659 114.656 110.005 114.656Z" fill="white"/>
<path d="M127.966 156.842H100.681C99.6219 156.842 98.7498 155.973 98.7498 154.917C98.7498 153.861 99.6219 152.992 100.681 152.992H126.035V144.298C126.035 140.883 123.252 138.088 119.805 138.088H100.183C96.7563 138.088 93.9531 140.862 93.9531 144.298C93.9531 145.354 93.081 146.223 92.0219 146.223C90.9629 146.223 90.0908 145.354 90.0908 144.298C90.0908 138.751 94.6176 134.259 100.162 134.259H119.785C125.35 134.259 129.855 138.771 129.855 144.298V154.917C129.876 155.993 129.025 156.842 127.966 156.842Z" fill="white"/>
<path d="M83.5708 104.513C82.5118 104.513 81.6396 103.644 81.6396 102.588V100.436C81.6396 99.3798 82.5118 98.5104 83.5708 98.5104C84.6298 98.5104 85.5019 99.3798 85.5019 100.436V102.588C85.4811 103.644 84.6298 104.513 83.5708 104.513Z" fill="white"/>
<path d="M89.9667 108.757H87.8071C86.7481 108.757 85.876 107.887 85.876 106.832C85.876 105.776 86.7481 104.907 87.8071 104.907H89.9667C91.0257 104.907 91.8978 105.776 91.8978 106.832C91.8978 107.887 91.0257 108.757 89.9667 108.757Z" fill="white"/>
<path d="M83.5708 115.132C82.5118 115.132 81.6396 114.263 81.6396 113.207V111.054C81.6396 109.999 82.5118 109.129 83.5708 109.129C84.6298 109.129 85.5019 109.999 85.5019 111.054V113.207C85.4811 114.263 84.6298 115.132 83.5708 115.132Z" fill="white"/>
<path d="M79.3143 108.757H77.1548C76.0958 108.757 75.2236 107.887 75.2236 106.832C75.2236 105.776 76.0958 104.907 77.1548 104.907H79.3143C80.3733 104.907 81.2454 105.776 81.2454 106.832C81.2454 107.887 80.3733 108.757 79.3143 108.757Z" fill="white"/>
<path d="M102.052 89.9822C100.993 89.9822 100.121 89.1128 100.121 88.0571V85.9251C100.121 84.8694 100.993 84 102.052 84C103.111 84 103.983 84.8694 103.983 85.9251V88.0778C103.983 89.1335 103.132 89.9822 102.052 89.9822Z" fill="white"/>
<path d="M108.468 94.2256H106.308C105.249 94.2256 104.377 93.3562 104.377 92.3006C104.377 91.2449 105.249 90.3755 106.308 90.3755H108.468C109.527 90.3755 110.399 91.2449 110.399 92.3006C110.399 93.3562 109.527 94.2256 108.468 94.2256Z" fill="white"/>
<path d="M102.052 100.601C100.993 100.601 100.121 99.7317 100.121 98.676V96.544C100.121 95.4883 100.993 94.6189 102.052 94.6189C103.111 94.6189 103.983 95.4883 103.983 96.544V98.6967C103.983 99.7524 103.132 100.601 102.052 100.601Z" fill="white"/>
<path d="M97.8153 94.2256H95.6557C94.5967 94.2256 93.7246 93.3562 93.7246 92.3006C93.7246 91.2449 94.5967 90.3755 95.6557 90.3755H97.8153C98.8743 90.3755 99.7464 91.2449 99.7464 92.3006C99.7464 93.3562 98.8743 94.2256 97.8153 94.2256Z" fill="white"/>
</g>
<path d="M123.544 76.0932L123.565 76.1055L123.586 76.1173L164.191 98.9129L163.63 145.476L163.63 145.5L163.63 145.524L164.191 192.087L123.586 214.883L123.565 214.895L123.544 214.907L83.5 238.674L43.4558 214.907L43.4351 214.895L43.4141 214.883L2.80873 192.087L3.36985 145.524L3.37014 145.5L3.36985 145.476L2.80873 98.9129L43.4141 76.1173L43.4351 76.1055L43.4558 76.0932L83.5 52.3257L123.544 76.0932Z" stroke="white" stroke-width="4"/>
</g>
<defs>
<clipPath id="clip0_779_2590">
<rect width="167" height="241" fill="white"/>
</clipPath>
<clipPath id="clip1_779_2590">
<rect width="120" height="100" fill="white" transform="translate(24 84)"/>
</clipPath>
</defs>
</svg>
