<svg width="603" height="69" viewBox="0 0 603 69" fill="none" xmlns="http://www.w3.org/2000/svg">
<path d="M3.15253 0.10498H0.348633V24.5628H3.15253V0.10498Z" fill="#606060"/>
<path d="M10.8039 0.10498H8V24.5628H10.8039V0.10498Z" fill="#606060"/>
<path d="M25.2373 0.10498H30.2843C32.3405 0.10498 34.2098 0.478385 35.5183 1.78529C36.4529 2.90549 37.0137 4.58579 37.0137 6.0794C37.0137 7.3863 36.8268 8.69321 36.266 9.62672C35.8921 10.3735 35.1444 11.1203 34.0229 11.4937C35.1444 11.8671 36.266 12.6139 36.8268 13.5474C37.5745 14.6676 37.9483 16.1612 37.9483 17.6549C37.9483 20.2687 37.2006 21.949 36.266 23.0692C34.5836 24.5628 32.5274 24.5628 30.6582 24.5628H25.2373V0.10498ZM30.2843 10.5602C31.219 10.5602 32.5274 10.5602 33.2752 9.62672C34.0229 8.87991 34.2098 7.38631 34.2098 6.82621C34.2098 4.5858 33.4621 3.65229 32.9013 3.27889C32.1536 2.71879 31.032 2.53208 30.0974 2.53208H27.8543V10.5602H30.2843ZM30.6582 22.1357C31.4059 22.1357 32.9013 22.1357 33.8359 21.2022C34.5836 20.4554 34.9575 18.5883 34.9575 17.4681C34.9575 16.1612 34.5836 14.4809 33.649 13.7341C32.7144 12.9873 31.4059 12.9873 30.6582 12.9873H28.0412V22.1357H30.6582Z" fill="#606060"/>
<path d="M48.603 12.4269C48.603 11.3067 48.0422 9.81311 47.4814 9.06631C47.1075 8.69291 46.3598 8.13281 45.6121 8.13281C44.6775 8.13281 43.9298 8.50622 43.5559 9.25302C43.1821 9.81312 42.6213 11.3067 42.6213 15.0407C42.6213 18.7748 42.8082 20.8285 43.5559 21.762C43.9298 22.3221 44.6775 22.8822 45.6121 22.8822C46.3598 22.8822 47.2945 22.5088 47.8552 21.762C48.2291 21.0152 48.6029 19.895 48.7899 18.7748L51.2199 19.1482C51.033 20.8285 50.2853 22.8822 49.3507 23.8157C48.7899 24.3758 47.6683 25.1226 45.7991 25.1226C44.1167 25.1226 42.6213 24.3758 41.6866 23.4423C40.752 22.5088 39.8174 20.6418 39.8174 15.9742C39.8174 10.7466 41.1259 8.69292 42.0605 7.57271C43.369 6.26581 44.6775 6.0791 45.7991 6.0791C46.9206 6.0791 48.0422 6.2658 49.1637 7.1993C50.2853 8.13281 50.8461 9.99981 51.033 11.8668L48.603 12.4269Z" fill="#606060"/>
<path d="M55.7068 15.7877C55.7068 17.2813 55.8937 20.0818 56.6414 21.3887C57.2022 22.3223 58.3238 22.6956 59.2584 22.6956C60.0061 22.6956 60.7538 22.3222 61.1277 21.7621C61.6885 21.202 62.0623 19.7084 62.2492 18.9616L64.4924 19.5217C64.3055 20.0818 64.1185 21.202 63.5577 22.1355C62.4362 24.1892 60.7538 24.7494 59.0715 24.7494C57.2022 24.7494 55.7068 24.1893 54.5853 22.5089C53.2768 20.4552 53.0898 17.468 53.0898 15.601C53.0898 12.8005 53.4637 9.81329 54.9591 7.94628C56.2676 6.07928 57.763 5.89258 58.8846 5.89258C60.1931 5.89258 61.6885 6.07928 62.997 7.75959C64.1185 9.25319 64.8662 11.4936 64.8662 15.7877H55.7068ZM62.0623 13.734C62.0623 11.3069 61.6885 10.1867 61.3146 9.4399C60.9408 8.69309 60.0061 8.13298 59.0715 8.13298C58.3238 8.13298 57.3892 8.50639 56.8284 9.4399C56.2676 10.3734 56.0807 11.6803 55.8937 13.5473H62.0623V13.734Z" fill="#606060"/>
<path d="M67.6703 6.45251H70.1004V9.43972C70.2873 8.69292 70.6612 7.75941 71.2219 7.1993C72.1566 6.2658 73.0912 6.0791 73.8389 6.0791C75.5213 6.0791 76.6428 6.8259 77.5775 8.13281C78.8859 9.99981 79.2598 13.1737 79.2598 15.2274C79.2598 17.2811 78.8859 20.2684 77.9513 22.1354C76.8297 24.1891 75.3343 24.9359 73.652 24.9359C72.1566 24.9359 71.4089 24.3758 71.2219 24.1891C70.8481 23.8157 70.4742 23.4423 70.1004 22.8822V30.9103H67.4834V6.45251H67.6703ZM70.2873 17.2811C70.2873 18.7748 70.2873 20.2684 71.2219 21.3886C71.7827 22.3221 72.5304 22.5088 73.465 22.5088C74.5866 22.5088 75.5212 21.762 75.8951 21.0152C76.4559 20.0817 76.6428 16.9077 76.6428 15.2274C76.6428 13.9205 76.6428 10.9333 75.7082 9.43972C75.1474 8.50622 74.5866 8.13281 73.652 8.13281C72.5304 8.13281 71.7827 8.87962 71.4089 9.25302C70.6612 10.1865 70.2873 12.2402 70.2873 13.9205V17.2811Z" fill="#606060"/>
<path d="M91.7832 7.75941C93.4656 9.81312 93.8394 13.1737 93.8394 15.6008C93.8394 18.4013 93.2787 21.762 91.7832 23.4423C90.8486 24.3758 89.5401 25.1226 88.0447 25.1226C86.5493 25.1226 85.0539 24.3758 84.3062 23.4423C82.8108 21.762 82.25 18.588 82.25 15.6008C82.25 13.3604 82.6238 9.81312 84.3062 7.75941C85.2408 6.63921 86.5493 6.0791 88.0447 6.0791C89.5401 6.0791 90.8486 6.63921 91.7832 7.75941ZM85.2408 20.6418C85.8016 22.5088 87.1101 22.8822 87.8578 22.8822C88.6055 22.8822 89.914 22.5088 90.4748 20.6418C90.8486 19.3349 91.0355 17.0944 91.0355 15.6008C91.0355 14.1072 90.8486 11.6801 90.4748 10.5599C89.914 8.50621 88.4186 8.31952 87.8578 8.31952C87.4839 8.31952 85.8016 8.50621 85.2408 10.5599C84.867 11.6801 84.68 14.1072 84.68 15.6008C84.68 16.9077 84.867 19.3349 85.2408 20.6418Z" fill="#606060"/>
<path d="M105.243 12.4269C105.243 11.3067 104.682 9.81311 104.121 9.06631C103.747 8.69291 102.999 8.13281 102.252 8.13281C101.317 8.13281 100.569 8.50622 100.196 9.25302C99.8217 9.81312 99.2609 11.3067 99.2609 15.0407C99.2609 18.7748 99.4479 20.8285 100.196 21.762C100.569 22.3221 101.317 22.8822 102.252 22.8822C102.999 22.8822 103.934 22.5088 104.495 21.762C104.869 21.0152 105.243 19.895 105.43 18.7748L107.86 19.1482C107.673 20.8285 106.925 22.8822 105.99 23.8157C105.43 24.3758 104.308 25.1226 102.439 25.1226C100.756 25.1226 99.2609 24.3758 98.3263 23.4423C97.3917 22.5088 96.457 20.6418 96.457 15.9742C96.457 10.7466 97.7655 8.69292 98.7001 7.57271C100.009 6.26581 101.317 6.0791 102.439 6.0791C103.56 6.0791 104.682 6.2658 105.803 7.1993C106.925 8.13281 107.486 9.99981 107.673 11.8668L105.243 12.4269Z" fill="#606060"/>
<path d="M118.327 12.4269C118.327 11.3067 117.766 9.81311 117.205 9.06631C116.831 8.69291 116.083 8.13281 115.336 8.13281C114.401 8.13281 113.653 8.50622 113.28 9.25302C112.906 9.81312 112.345 11.3067 112.345 15.0407C112.345 18.7748 112.532 20.8285 113.28 21.762C113.653 22.3221 114.401 22.8822 115.336 22.8822C116.083 22.8822 117.018 22.5088 117.579 21.762C117.953 21.0152 118.327 19.895 118.513 18.7748L120.944 19.1482C120.757 20.8285 120.009 22.8822 119.074 23.8157C118.514 24.3758 117.392 25.1226 115.523 25.1226C113.84 25.1226 112.345 24.3758 111.41 23.4423C110.476 22.5088 109.541 20.6418 109.541 15.9742C109.541 10.7466 110.849 8.69292 111.784 7.57271C113.093 6.26581 114.401 6.0791 115.523 6.0791C116.644 6.0791 117.766 6.2658 118.887 7.1993C120.009 8.13281 120.57 9.99981 120.757 11.8668L118.327 12.4269Z" fill="#606060"/>
<path d="M123.748 6.45312H126.178V17.8419V19.7089L126.926 17.8419L131.599 7.57333V6.45312H134.216V24.5631H131.599V13.361L131.786 11.3073L131.038 13.361L126.178 23.4429V24.5631H123.748V6.45312Z" fill="#606060"/>
<path d="M138.702 6.45295H141.319V17.8417L141.132 19.7087L141.88 17.8417L146.74 7.38645V6.26624H149.357V24.5629H146.74V13.3609L146.927 11.3072L146.179 13.3609L141.319 23.4427V24.5629H138.702V6.45295ZM148.048 0.478516C148.048 1.59872 147.675 2.53222 146.927 3.27903C145.992 4.21253 144.871 4.39923 143.936 4.39923C143.001 4.39923 141.693 4.21253 140.758 3.27903C140.011 2.53222 139.637 1.41202 139.637 0.478516H141.88C141.88 1.22532 142.067 1.78542 142.254 2.15883C142.628 2.71893 143.188 2.90563 143.749 2.90563C144.31 2.90563 144.871 2.71893 145.245 2.15883C145.432 1.78542 145.805 1.22532 145.618 0.478516H148.048Z" fill="#606060"/>
<path d="M161.507 12.4269C161.507 11.3067 160.946 9.81311 160.386 9.06631C160.012 8.69291 159.264 8.13281 158.516 8.13281C157.582 8.13281 156.834 8.50622 156.46 9.25302C156.086 9.81312 155.526 11.3067 155.526 15.0407C155.526 18.7748 155.713 20.8285 156.46 21.762C156.834 22.3221 157.582 22.8822 158.516 22.8822C159.264 22.8822 160.199 22.5088 160.76 21.762C161.133 21.0152 161.507 19.895 161.694 18.7748L164.124 19.1482C163.937 20.8285 163.19 22.8822 162.255 23.8157C161.694 24.3758 160.573 25.1226 158.703 25.1226C157.021 25.1226 155.526 24.3758 154.591 23.4423C153.656 22.5088 152.722 20.6418 152.722 15.9742C152.722 10.7466 154.03 8.69292 154.965 7.57271C156.273 6.26581 157.582 6.0791 158.703 6.0791C159.825 6.0791 160.946 6.2658 162.068 7.1993C163.19 8.13281 163.75 9.99981 163.937 11.8668L161.507 12.4269Z" fill="#606060"/>
<path d="M166.741 24.5625V6.45251H169.358V13.9205H171.041C171.788 13.9205 172.536 13.7338 172.91 12.4269C173.097 11.8668 173.097 11.12 173.284 10.1865C173.284 9.43972 173.471 8.69291 173.657 7.94611C174.218 6.2658 175.34 6.0791 175.901 6.0791C176.088 6.0791 176.648 6.2658 176.835 6.2658V8.31952C176.461 8.31952 176.088 8.50622 176.088 8.50622C175.901 8.69292 175.714 9.25302 175.714 10.1865C175.527 11.8668 175.527 12.4269 175.34 12.987C174.966 14.1072 174.405 14.4806 173.471 14.854C174.966 15.2274 175.34 16.5343 175.527 17.4678C175.901 18.9615 175.901 20.8285 176.088 21.762C176.274 21.9487 176.461 22.6955 177.396 22.3221V24.5625C177.022 24.7492 176.835 24.7492 176.274 24.7492C174.405 24.7492 174.031 23.4423 173.657 22.6955C173.471 22.1354 173.284 21.0152 173.097 18.9615C172.91 18.2147 172.91 17.2812 172.536 16.7211C172.162 16.3477 171.788 16.1609 171.227 16.1609H169.545V24.5625H166.741Z" fill="#606060"/>
<path d="M179.639 6.45312H182.256V17.8419L182.069 19.7089L182.816 17.8419L187.677 7.57333V6.45312H190.293V24.5631H187.677V13.361L187.863 11.3073L186.929 13.361L182.256 23.4429V24.5631H179.639V6.45312Z" fill="#606060"/>
<path d="M194.593 6.45295H197.21V17.8417L197.023 19.7087L197.771 17.8417L202.631 7.38645V6.26624H205.248V24.5629H202.631V13.3609L202.818 11.3072L202.07 13.3609L197.21 23.4427V24.5629H194.593V6.45295ZM203.939 0.478516C203.939 1.59872 203.565 2.53222 202.818 3.27903C201.883 4.21253 200.761 4.39923 199.827 4.39923C198.892 4.39923 197.584 4.21253 196.649 3.27903C195.901 2.53222 195.527 1.41202 195.527 0.478516H197.771C197.771 1.22532 197.957 1.78542 198.144 2.15883C198.518 2.71893 199.079 2.90563 199.64 2.90563C200.201 2.90563 200.761 2.71893 201.135 2.15883C201.322 1.78542 201.696 1.22532 201.509 0.478516H203.939Z" fill="#606060"/>
<path d="M217.959 24.5625V6.45251H220.576V13.9205H222.258C223.006 13.9205 223.754 13.7338 224.128 12.4269C224.314 11.8668 224.314 11.12 224.501 10.1865C224.501 9.43972 224.688 8.69291 224.875 7.94611C225.436 6.2658 226.558 6.0791 227.118 6.0791C227.305 6.0791 227.866 6.2658 228.053 6.2658V8.31952C227.679 8.31952 227.305 8.50622 227.305 8.50622C227.118 8.69292 226.931 9.25302 226.931 10.1865C226.745 11.8668 226.745 12.4269 226.558 12.987C226.184 14.1072 225.623 14.4806 224.688 14.854C226.184 15.2274 226.558 16.5343 226.745 17.4678C227.118 18.9615 227.118 20.8285 227.305 21.762C227.492 21.9487 227.679 22.6955 228.614 22.3221V24.5625C228.24 24.7492 228.053 24.7492 227.492 24.7492C225.623 24.7492 225.249 23.4423 224.875 22.6955C224.688 22.1354 224.501 21.0152 224.315 18.9615C224.128 18.2147 224.128 17.2812 223.754 16.7211C223.38 16.3477 223.006 16.1609 222.445 16.1609H220.763V24.5625H217.959Z" fill="#606060"/>
<path d="M240.017 7.75941C241.699 9.81312 242.073 13.1737 242.073 15.6008C242.073 18.4013 241.512 21.762 240.017 23.4423C239.082 24.3758 237.774 25.1226 236.278 25.1226C234.783 25.1226 233.287 24.3758 232.54 23.4423C231.044 21.762 230.483 18.588 230.483 15.6008C230.483 13.3604 230.857 9.81312 232.54 7.75941C233.474 6.63921 234.783 6.0791 236.278 6.0791C237.774 6.0791 239.082 6.63921 240.017 7.75941ZM233.661 20.6418C234.222 22.5088 235.53 22.8822 236.278 22.8822C237.026 22.8822 238.334 22.5088 238.895 20.6418C239.269 19.3349 239.456 17.0944 239.456 15.6008C239.456 14.1072 239.269 11.6801 238.895 10.5599C238.334 8.50621 236.839 8.31952 236.278 8.31952C235.904 8.31952 234.409 8.50621 233.661 10.5599C233.287 11.6801 233.1 14.1072 233.1 15.6008C233.1 16.9077 233.1 19.3349 233.661 20.6418Z" fill="#606060"/>
<path d="M245.624 6.45312H248.241V13.9212H253.475V6.45312H256.092V24.5631H253.475V16.1616H248.241V24.5631H245.624V6.45312Z" fill="#606060"/>
<path d="M260.392 24.5625V6.45251H263.009V13.9205H264.691C265.439 13.9205 266.186 13.7338 266.56 12.4269C266.747 11.8668 266.747 11.12 266.934 10.1865C266.934 9.43972 267.121 8.69291 267.308 7.94611C267.869 6.2658 268.99 6.0791 269.551 6.0791C269.738 6.0791 270.299 6.2658 270.486 6.2658V8.31952C270.112 8.31952 269.738 8.50622 269.738 8.50622C269.551 8.69292 269.364 9.25302 269.364 10.1865C269.177 11.8668 269.177 12.4269 268.99 12.987C268.616 14.1072 268.056 14.4806 267.121 14.854C268.616 15.2274 268.99 16.5343 269.177 17.4678C269.551 18.9615 269.551 20.8285 269.738 21.762C269.925 21.9487 270.112 22.6955 271.046 22.3221V24.5625C270.673 24.7492 270.486 24.7492 269.925 24.7492C268.056 24.7492 267.682 23.4423 267.308 22.6955C267.121 22.1354 266.934 21.0152 266.747 18.9615C266.56 18.2147 266.56 17.2812 266.186 16.7211C265.812 16.3477 265.439 16.1609 264.878 16.1609H263.196V24.5625H260.392Z" fill="#606060"/>
<path d="M274.037 6.45312L277.028 18.9621L280.206 6.45312H282.636L277.402 26.2434C277.028 27.3636 276.467 29.0439 275.72 29.9774C274.785 30.9109 273.85 31.0976 273.103 31.0976C272.542 31.0976 271.981 30.9109 271.607 30.9109V28.6705C271.981 28.8572 272.355 29.0439 272.916 29.0439C273.85 29.0439 274.037 28.6705 274.411 27.9237C274.598 27.3636 274.972 26.2434 274.972 25.87L275.533 23.6296L271.233 6.82652H274.037V6.45312Z" fill="#606060"/>
<path d="M283.757 6.45251H286.187V9.43972C286.374 8.69292 286.748 7.75941 287.309 7.1993C288.243 6.2658 289.178 6.0791 289.926 6.0791C291.608 6.0791 292.73 6.8259 293.664 8.13281C294.973 9.99981 295.347 13.1737 295.347 15.2274C295.347 17.2811 294.973 20.2684 294.038 22.1354C292.917 24.1891 291.421 24.9359 289.739 24.9359C288.244 24.9359 287.496 24.3758 287.309 24.1891C286.935 23.8157 286.561 23.4423 286.187 22.8822V30.9103H283.57V6.45251H283.757ZM286.374 17.2811C286.374 18.7748 286.374 20.2684 287.309 21.3886C287.87 22.3221 288.617 22.5088 289.552 22.5088C290.674 22.5088 291.608 21.762 291.982 21.0152C292.543 20.0817 292.73 16.9077 292.73 15.2274C292.73 13.9205 292.73 10.9333 291.795 9.43972C291.234 8.50622 290.674 8.13281 289.739 8.13281C288.617 8.13281 287.87 8.87962 287.496 9.25302C286.748 10.1865 286.374 12.2402 286.374 13.9205V17.2811Z" fill="#606060"/>
<path d="M306.749 12.4271C306.749 11.3069 306.188 9.81329 305.627 9.06649C305.253 8.69308 304.506 8.13298 303.758 8.13298C302.823 8.13298 302.076 8.50639 301.702 9.2532C301.328 9.8133 300.767 11.3069 300.767 15.0409C300.767 18.7749 300.954 20.8286 301.702 21.7621C302.076 22.3222 302.823 22.8823 303.758 22.8823C304.506 22.8823 305.44 22.5089 306.001 21.7621C306.375 21.0153 306.749 19.8951 306.936 18.7749L309.179 18.9616C308.992 20.6419 308.244 22.6956 307.31 23.6291C306.749 24.1893 305.627 24.936 303.758 24.936C302.076 24.936 300.58 24.1893 299.646 23.2558C298.711 22.3223 297.776 20.4552 297.776 15.7877C297.776 10.5601 299.085 8.50639 300.02 7.38619C301.328 6.07928 302.636 5.89258 303.758 5.89258C304.88 5.89258 306.001 6.07928 307.123 7.01278C308.244 7.94628 308.805 9.81329 308.992 11.6803L306.749 12.4271Z" fill="#606060"/>
<path d="M320.395 6.45312H330.862V24.5631H328.245V8.50683H323.011V24.5631H320.395V6.45312Z" fill="#606060"/>
<path d="M337.031 15.7877C337.031 17.2813 337.218 20.0818 337.966 21.3887C338.526 22.3223 339.648 22.6956 340.583 22.6956C341.33 22.6956 342.078 22.3222 342.452 21.7621C343.013 21.202 343.387 19.7084 343.573 18.9616L345.817 19.5217C345.63 20.0818 345.443 21.202 344.882 22.1355C343.76 24.1892 342.078 24.7494 340.396 24.7494C338.526 24.7494 337.031 24.1893 335.909 22.5089C334.601 20.4552 334.414 17.468 334.414 15.601C334.414 12.8005 334.788 9.81329 336.283 7.94628C337.592 6.07928 339.087 5.89258 340.209 5.89258C341.517 5.89258 343.013 6.07928 344.321 7.75959C345.443 9.25319 346.19 11.4936 346.19 15.7877H337.031ZM343.387 13.734C343.387 11.3069 343.013 10.1867 342.639 9.4399C342.265 8.69309 341.33 8.13298 340.396 8.13298C339.648 8.13298 338.713 8.50639 338.153 9.4399C337.592 10.3734 337.405 11.6803 337.218 13.5473H343.387V13.734Z" fill="#606060"/>
<path d="M358.714 24.5631H348.994V29.0439H346.751V22.5094H348.246C349.181 20.8291 349.742 18.9621 350.116 16.9084C350.489 14.4813 350.863 9.44034 350.863 6.45312H359.275V22.5094H360.957V29.0439H358.714V24.5631ZM356.845 22.5094V8.69353H353.106C352.92 10.7472 352.733 14.2945 352.546 16.535C352.172 18.5887 351.798 20.4557 351.05 22.5094H356.845Z" fill="#606060"/>
<path d="M371.987 24.5625C371.613 23.4423 371.613 22.5088 371.613 21.9487C371.426 22.6955 370.865 23.629 370.305 24.0024C369.37 24.7492 368.435 24.9359 367.501 24.9359C365.631 24.9359 364.51 24.0024 363.949 23.629C363.201 22.8822 362.641 21.5753 362.641 19.7083C362.641 16.1609 364.51 14.6673 365.818 14.1072C367.501 13.3604 369.744 13.1737 371.239 13.3604C371.239 11.12 371.239 9.81311 370.678 9.06631C370.305 8.69291 369.744 8.13281 368.622 8.13281C367.875 8.13281 366.94 8.31952 366.192 9.43972C365.818 9.99982 365.631 11.12 365.631 11.4934L363.201 10.9333C363.388 9.62641 364.136 8.31952 364.884 7.57271C366.192 6.26581 367.688 6.0791 368.996 6.0791C369.744 6.0791 371.052 6.26581 372.174 6.82591C374.043 8.13281 374.043 10.1865 374.043 12.987V20.2684C374.043 21.3886 374.043 22.8822 374.23 24.5625H371.987ZM366.379 16.7211C365.818 17.4679 365.445 18.7748 365.445 19.7083C365.445 20.4551 365.631 21.5753 366.192 22.1354C366.566 22.5088 367.314 22.8822 367.875 22.8822C368.622 22.8822 369.744 22.5088 370.492 21.2019C371.239 19.7083 371.426 17.8412 371.426 15.4141C369.37 15.2274 367.501 15.4141 366.379 16.7211Z" fill="#606060"/>
<path d="M378.155 6.45312H387.315V8.50683H380.772V24.5631H378.155V6.45312Z" fill="#606060"/>
<path d="M397.408 7.75941C399.091 9.81312 399.464 13.1737 399.464 15.6008C399.464 18.4013 398.904 21.762 397.408 23.4423C396.474 24.3758 395.165 25.1226 393.67 25.1226C392.174 25.1226 390.679 24.3758 389.931 23.4423C388.436 21.762 387.875 18.588 387.875 15.6008C387.875 13.3604 388.249 9.81312 389.931 7.75941C390.866 6.63921 392.174 6.0791 393.67 6.0791C395.165 6.0791 396.474 6.63921 397.408 7.75941ZM391.053 20.6418C391.613 22.5088 392.922 22.8822 393.67 22.8822C394.417 22.8822 395.726 22.5088 396.287 20.6418C396.661 19.3349 396.847 17.0944 396.847 15.6008C396.847 14.1072 396.661 11.6801 396.287 10.5599C395.726 8.50621 394.231 8.31952 393.67 8.31952C393.296 8.31952 391.8 8.50621 391.053 10.5599C390.679 11.6801 390.492 14.1072 390.492 15.6008C390.492 16.9077 390.679 19.3349 391.053 20.6418Z" fill="#606060"/>
<path d="M403.017 6.45312H412.176V8.50683H405.634V24.5631H403.017V6.45312Z" fill="#606060"/>
<path d="M422.27 7.75941C423.952 9.81312 424.326 13.1737 424.326 15.6008C424.326 18.4013 423.765 21.762 422.27 23.4423C421.335 24.3758 420.026 25.1226 418.531 25.1226C417.036 25.1226 415.54 24.3758 414.793 23.4423C413.297 21.762 412.736 18.588 412.736 15.6008C412.736 13.3604 413.11 9.81312 414.793 7.75941C415.727 6.63921 417.036 6.0791 418.531 6.0791C420.213 6.0791 421.335 6.63921 422.27 7.75941ZM415.914 20.6418C416.475 22.5088 417.783 22.8822 418.531 22.8822C419.279 22.8822 420.587 22.5088 421.148 20.6418C421.522 19.3349 421.709 17.0944 421.709 15.6008C421.709 14.1072 421.522 11.6801 421.148 10.5599C420.587 8.50621 419.092 8.31952 418.531 8.31952C418.157 8.31952 416.662 8.50621 415.914 10.5599C415.54 11.6801 415.353 14.1072 415.353 15.6008C415.353 16.9077 415.54 19.3349 415.914 20.6418Z" fill="#606060"/>
<path d="M427.877 6.45312H434.046C435.728 6.45312 436.663 7.01322 437.037 7.57333C437.784 8.32013 438.158 9.62703 438.158 10.9339C438.158 11.6807 437.971 12.6142 437.598 13.361C437.037 14.2946 436.476 14.8547 435.728 15.0414C436.85 15.4148 437.411 16.1616 437.784 16.535C438.345 17.2818 438.532 18.5887 438.532 19.5222C438.532 21.0158 438.158 22.3227 437.224 23.2562C436.663 23.8163 435.728 24.5631 434.046 24.5631H427.69V6.45312H427.877ZM432.737 13.9212C433.859 13.9212 434.42 13.5478 434.794 13.1743C435.354 12.6142 435.541 11.6807 435.541 10.9339C435.541 10.0004 435.354 9.44033 434.794 8.88023C434.233 8.50682 433.672 8.32013 432.924 8.32013H430.494V13.9212H432.737ZM432.737 22.5094C433.298 22.5094 434.233 22.5094 434.981 21.9493C435.541 21.3892 435.915 20.4557 435.915 19.3355C435.915 18.402 435.541 17.2818 434.981 16.7217C434.42 16.1616 433.298 15.9749 432.737 15.9749H430.307V22.5094H432.737Z" fill="#606060"/>
<path d="M450.683 0.10498H453.487V22.1357H460.59V0.10498H463.394V22.1357H465.45V30.1638H462.833V24.5628H450.683V0.10498Z" fill="#606060"/>
<path d="M469.562 15.7877C469.562 17.2813 469.749 20.0818 470.497 21.3887C471.058 22.3223 472.179 22.6956 473.114 22.6956C473.862 22.6956 474.609 22.3222 474.983 21.7621C475.544 21.202 475.918 19.7084 476.105 18.9616L478.348 19.5217C478.161 20.0818 477.974 21.202 477.413 22.1355C476.292 24.1892 474.609 24.7494 472.927 24.7494C471.058 24.7494 469.562 24.1893 468.441 22.5089C467.132 20.4552 466.945 17.468 466.945 15.601C466.945 12.8005 467.319 9.81329 468.815 7.94628C470.123 6.07928 471.618 5.89258 472.74 5.89258C474.049 5.89258 475.544 6.07928 476.852 7.75959C477.974 9.25319 478.722 11.4936 478.722 15.7877H469.562ZM475.918 13.734C475.918 11.3069 475.544 10.1867 475.17 9.4399C474.796 8.69309 473.862 8.13298 472.927 8.13298C472.179 8.13298 471.245 8.50639 470.684 9.4399C470.123 10.3734 469.936 11.6803 469.749 13.5473H475.918V13.734Z" fill="#606060"/>
<path d="M481.712 6.45312H484.329V13.9212H489.563V6.45312H492.18V24.5631H489.563V16.1616H484.329V24.5631H481.712V6.45312Z" fill="#606060"/>
<path d="M498.162 8.50683H493.676V6.45312H505.078V8.50683H500.592V24.5631H498.162V8.50683Z" fill="#606060"/>
<path d="M506.574 6.45251H509.004V9.43972C509.191 8.69292 509.564 7.75941 510.125 7.1993C511.06 6.2658 511.995 6.0791 512.742 6.0791C514.425 6.0791 515.546 6.8259 516.481 8.13281C517.789 9.99981 518.163 13.1737 518.163 15.2274C518.163 17.2811 517.789 20.2684 516.855 22.1354C515.733 24.1891 514.238 24.9359 512.555 24.9359C511.06 24.9359 510.312 24.3758 510.125 24.1891C509.751 23.8157 509.378 23.4423 509.004 22.8822V30.9103H506.387V6.45251H506.574ZM509.191 17.2811C509.191 18.7748 509.191 20.2684 510.125 21.3886C510.686 22.3221 511.434 22.5088 512.368 22.5088C513.49 22.5088 514.425 21.762 514.798 21.0152C515.359 20.0817 515.546 16.9077 515.546 15.2274C515.546 13.9205 515.546 10.9333 514.611 9.43972C514.051 8.50622 513.49 8.13281 512.555 8.13281C511.434 8.13281 510.686 8.87962 510.312 9.25302C509.564 10.1865 509.191 12.2402 509.191 13.9205V17.2811Z" fill="#606060"/>
<path d="M530.688 7.75941C532.37 9.81312 532.744 13.1737 532.744 15.6008C532.744 18.4013 532.183 21.762 530.688 23.4423C529.753 24.3758 528.444 25.1226 526.949 25.1226C525.454 25.1226 523.958 24.3758 523.211 23.4423C521.715 21.762 521.154 18.588 521.154 15.6008C521.154 13.3604 521.528 9.81312 523.211 7.75941C524.145 6.63921 525.454 6.0791 526.949 6.0791C528.444 6.0791 529.753 6.63921 530.688 7.75941ZM524.145 20.6418C524.706 22.5088 526.014 22.8822 526.762 22.8822C527.51 22.8822 528.818 22.5088 529.379 20.6418C529.753 19.3349 529.94 17.0944 529.94 15.6008C529.94 14.1072 529.753 11.6801 529.379 10.5599C528.818 8.50621 527.323 8.31952 526.762 8.31952C526.388 8.31952 524.893 8.50621 524.145 10.5599C523.771 11.6801 523.584 14.1072 523.584 15.6008C523.584 16.9077 523.771 19.3349 524.145 20.6418Z" fill="#606060"/>
<path d="M536.295 6.45312H542.464C544.146 6.45312 545.081 7.01322 545.455 7.57333C546.202 8.32013 546.576 9.62703 546.576 10.9339C546.576 11.6807 546.389 12.6142 546.016 13.361C545.455 14.2946 544.894 14.8547 544.146 15.0414C545.268 15.4148 545.829 16.1616 546.202 16.535C546.763 17.2818 546.95 18.5887 546.95 19.5222C546.95 21.0158 546.576 22.3227 545.642 23.2562C545.081 23.8163 544.146 24.5631 542.464 24.5631H536.108V6.45312H536.295ZM541.155 13.9212C542.277 13.9212 542.838 13.5478 543.212 13.1743C543.772 12.6142 543.959 11.6807 543.959 10.9339C543.959 10.0004 543.772 9.44033 543.212 8.88023C542.651 8.50682 542.09 8.32013 541.342 8.32013H538.912V13.9212H541.155ZM541.155 22.5094C541.716 22.5094 542.651 22.5094 543.399 21.9493C543.959 21.3892 544.333 20.4557 544.333 19.3355C544.333 18.402 543.959 17.2818 543.399 16.7217C542.838 16.1616 541.716 15.9749 541.155 15.9749H538.725V22.5094H541.155Z" fill="#606060"/>
<path d="M0.162109 44.353H2.77908V60.4093H8.01302V44.353H10.4431V60.4093H12.3123V66.7571H10.0692V62.463H0.162109V44.353Z" fill="#606060"/>
<path d="M14.5557 44.353H17.1726V55.7418L16.9857 57.7955L17.9203 55.9285L22.5935 45.4732V44.353H25.2105V62.463H22.5935V51.261L22.7804 49.394L22.0327 51.261L17.1726 61.3428V62.463H14.5557V44.353Z" fill="#606060"/>
<path d="M38.4819 38.0054V43.9798C40.9119 43.9798 42.5943 45.2867 43.5289 46.2202C45.5851 48.4606 45.772 51.4478 45.772 53.5015C45.772 56.1154 45.2112 58.7292 43.9028 60.4095C43.1551 61.343 41.4727 63.0233 38.4819 63.0233V68.811H36.0518V63.0233C33.061 63.0233 31.3787 61.343 30.631 60.4095C29.3225 58.7292 28.7617 56.1154 28.7617 53.5015C28.7617 52.3813 28.7617 48.6473 31.0048 46.2202C31.9395 45.2867 33.4349 43.9798 36.0518 43.9798V38.0054H38.4819ZM36.0518 46.2202C33.6218 46.4069 32.6872 47.9005 32.3133 48.834C31.9395 49.3941 31.5656 50.701 31.5656 53.5015C31.5656 56.8622 32.1264 58.3558 32.5003 58.7292C33.4349 60.5962 35.1172 60.9696 36.0518 60.9696V46.2202ZM38.295 60.7829C39.4165 60.7829 40.9119 60.4095 41.8466 58.5425C42.0335 58.1691 42.7812 56.6755 42.7812 53.3148C42.7812 50.5143 42.4073 49.2074 42.0335 48.6473C41.6596 47.9005 40.725 46.4069 38.295 46.0335V60.7829Z" fill="#606060"/>
<path d="M49.1371 44.3529H51.5672V47.3401C51.7541 46.5933 52.1279 45.6598 52.6887 45.0997C53.6234 44.1662 54.558 43.9795 55.3057 43.9795C56.988 43.9795 58.1096 44.7263 59.0442 46.0332C60.3527 47.9002 60.7265 51.0741 60.7265 53.1278C60.7265 55.1815 60.3527 58.1687 59.4181 60.0358C58.2965 62.0895 56.8011 62.8363 55.1188 62.8363C53.6233 62.8363 52.8757 62.2762 52.6887 62.0895C52.3149 61.7161 51.941 61.3427 51.5672 60.7826V68.8107H48.9502V44.3529H49.1371ZM51.7541 55.3682C51.7541 56.8618 51.7541 58.3554 52.6887 59.4756C53.2495 60.4092 53.9972 60.5959 54.9318 60.5959C56.0534 60.5959 56.988 59.8491 57.3619 59.1023C57.9227 58.1687 58.1096 54.9948 58.1096 53.3145C58.1096 52.0076 58.1096 49.0204 57.175 47.5268C56.6142 46.5933 56.0534 46.2199 55.1188 46.2199C53.9972 46.2199 53.2495 46.9667 52.8756 47.3401C52.1279 48.2736 51.7541 50.3273 51.7541 52.0076V55.3682Z" fill="#606060"/>
<path d="M73.0635 45.6598C74.7459 47.7135 75.1197 51.0741 75.1197 53.5012C75.1197 56.3017 74.559 59.6623 73.0635 61.3427C72.1289 62.2762 70.8204 63.023 69.325 63.023C67.8296 63.023 66.3342 62.2762 65.5865 61.3427C64.0911 59.6623 63.5303 56.4884 63.5303 53.5012C63.5303 51.2608 63.9041 47.7135 65.5865 45.6598C66.5211 44.5396 67.8296 43.9795 69.325 43.9795C70.8204 43.9795 72.1289 44.7263 73.0635 45.6598ZM66.708 58.5421C67.2688 60.4091 68.5773 60.7826 69.325 60.7826C70.0727 60.7826 71.3812 60.4091 71.942 58.5421C72.3158 57.2352 72.5028 54.9948 72.5028 53.5012C72.5028 52.0076 72.3158 49.5805 71.942 48.4603C71.3812 46.4066 69.8858 46.2199 69.325 46.2199C68.9512 46.2199 67.4558 46.4066 66.708 48.4603C66.3342 49.5805 66.1473 52.0076 66.1473 53.5012C66.1473 54.9948 66.3342 57.2352 66.708 58.5421Z" fill="#606060"/>
<path d="M78.6713 44.353H84.8399C86.5222 44.353 87.4569 44.9131 87.8307 45.4732C88.5784 46.22 88.9523 47.5269 88.9523 48.8338C88.9523 49.5807 88.7653 50.5142 88.3915 51.261C87.8307 52.1945 87.2699 52.7546 86.5222 52.9413C87.6438 53.3147 88.2046 54.0615 88.5784 54.4349C89.1392 55.1817 89.3261 56.4886 89.3261 57.4221C89.3261 58.9157 88.9523 60.2226 88.0176 61.1561C87.4569 61.7162 86.5222 62.463 84.8399 62.463H78.4844V44.353H78.6713ZM83.5314 52.0078C84.653 52.0078 85.2137 51.6344 85.5876 51.261C86.1484 50.7009 86.3353 49.7673 86.3353 49.0205C86.3353 48.087 86.1484 47.5269 85.5876 46.9668C85.0268 46.5934 84.466 46.4067 83.7183 46.4067H81.2883V52.0078H83.5314ZM83.5314 60.596C84.0922 60.596 85.0268 60.596 85.7745 60.0359C86.3353 59.4758 86.7092 58.5423 86.7092 57.4221C86.7092 56.4886 86.3353 55.3684 85.7745 54.8083C85.2138 54.2482 84.0922 54.0615 83.5314 54.0615H81.1014V60.596H83.5314Z" fill="#606060"/>
<path d="M101.851 45.6598C103.533 47.7135 103.907 51.0741 103.907 53.5012C103.907 56.3017 103.346 59.6623 101.851 61.3427C100.916 62.2762 99.6075 63.023 98.1121 63.023C96.6167 63.023 95.1213 62.2762 94.3736 61.3427C92.8781 59.6623 92.3174 56.4884 92.3174 53.5012C92.3174 51.2608 92.6912 47.7135 94.3736 45.6598C95.3082 44.5396 96.6167 43.9795 98.1121 43.9795C99.6075 43.9795 100.916 44.7263 101.851 45.6598ZM95.4951 58.5421C96.0559 60.4091 97.3644 60.7826 98.1121 60.7826C98.8598 60.7826 100.168 60.4091 100.729 58.5421C101.103 57.2352 101.29 54.9948 101.29 53.5012C101.29 52.0076 101.103 49.5805 100.729 48.4603C100.168 46.4066 98.6729 46.2199 98.1121 46.2199C97.7382 46.2199 96.2428 46.4066 95.4951 48.4603C95.1213 49.5805 94.9343 52.0076 94.9343 53.5012C94.9343 54.9948 95.1213 57.2352 95.4951 58.5421Z" fill="#606060"/>
<path d="M107.458 44.353H116.617V46.5934H110.075V62.463H107.458V44.353Z" fill="#606060"/>
<path d="M126.711 45.6598C128.393 47.7135 128.767 51.0741 128.767 53.5012C128.767 56.3017 128.206 59.6623 126.711 61.3427C125.776 62.2762 124.468 63.023 122.972 63.023C121.477 63.023 119.982 62.2762 119.234 61.3427C117.738 59.6623 117.178 56.4884 117.178 53.5012C117.178 51.2608 117.552 47.7135 119.234 45.6598C120.169 44.5396 121.477 43.9795 122.972 43.9795C124.468 43.9795 125.776 44.7263 126.711 45.6598ZM120.355 58.5421C120.916 60.4091 122.225 60.7826 122.972 60.7826C123.72 60.7826 125.029 60.4091 125.589 58.5421C125.963 57.2352 126.15 54.9948 126.15 53.5012C126.15 52.0076 125.963 49.5805 125.589 48.4603C125.029 46.4066 123.533 46.2199 122.972 46.2199C122.599 46.2199 121.103 46.4066 120.355 48.4603C119.982 49.5805 119.795 52.0076 119.795 53.5012C119.795 54.9948 119.982 57.2352 120.355 58.5421Z" fill="#606060"/>
<path d="M149.517 45.6598C151.199 47.7135 151.573 51.0741 151.573 53.5012C151.573 56.3017 151.012 59.6623 149.517 61.3427C148.582 62.2762 147.274 63.023 145.778 63.023C144.283 63.023 142.787 62.2762 142.04 61.3427C140.544 59.6623 139.983 56.4884 139.983 53.5012C139.983 51.2608 140.357 47.7135 142.04 45.6598C142.974 44.5396 144.283 43.9795 145.778 43.9795C147.274 43.9795 148.582 44.7263 149.517 45.6598ZM143.161 58.5421C143.722 60.4091 145.03 60.7826 145.778 60.7826C146.526 60.7826 147.834 60.4091 148.395 58.5421C148.769 57.2352 148.956 54.9948 148.956 53.5012C148.956 52.0076 148.769 49.5805 148.395 48.4603C147.834 46.4066 146.339 46.2199 145.778 46.2199C145.404 46.2199 143.909 46.4066 143.161 48.4603C142.787 49.5805 142.6 52.0076 142.6 53.5012C142.6 54.9948 142.787 57.2352 143.161 58.5421Z" fill="#606060"/>
<path d="M156.807 46.7802C157.742 45.4733 159.05 44.5398 160.732 44.5398C162.789 44.5398 164.097 45.66 165.032 47.3403C165.593 48.6472 166.153 50.5142 166.153 53.3148C166.153 58.169 164.658 60.4094 164.471 60.7828C163.349 62.4631 161.48 63.0232 160.172 63.0232C158.676 63.0232 157.368 62.2764 156.62 61.5296C154.564 59.4759 154.377 55.5552 154.377 52.5679C154.377 50.7009 154.564 48.0871 154.938 45.2866C155.312 42.8595 155.872 40.6191 158.115 39.3122C159.237 38.5654 160.546 38.3787 161.48 38.0053C164.284 37.4452 163.723 37.6319 165.779 37.0718V39.3122C164.845 39.4989 164.097 39.6856 163.349 39.8723C161.854 40.2457 160.919 40.4324 159.985 40.8058C159.237 41.1792 158.489 41.5526 157.929 42.2994C157.181 43.4196 156.807 45.4733 156.807 46.7802ZM162.789 58.5424C163.163 57.4222 163.349 55.1818 163.349 53.6881C163.349 52.1945 163.163 49.7674 162.789 48.6472C162.228 47.1536 161.106 46.5935 160.359 46.5935C159.798 46.5935 158.302 46.7802 157.555 49.0206C157.181 50.1408 157.181 52.0078 157.181 53.3148C157.181 54.8084 157.368 57.4222 157.742 58.3557C158.302 60.2227 159.611 60.5961 160.359 60.5961C160.919 60.7828 162.228 60.4094 162.789 58.5424Z" fill="#606060"/>
<path d="M169.704 44.3529H172.135V47.3401C172.321 46.5933 172.695 45.6598 173.256 45.0997C174.191 44.1662 175.125 43.9795 175.873 43.9795C177.555 43.9795 178.677 44.7263 179.612 46.0332C180.92 47.9002 181.294 51.0741 181.294 53.1278C181.294 55.1815 180.92 58.1687 179.985 60.0358C178.864 62.0895 177.368 62.8363 175.686 62.8363C174.191 62.8363 173.443 62.2762 173.256 62.0895C172.882 61.7161 172.508 61.3427 172.135 60.7826V68.8107H169.518V44.3529H169.704ZM172.321 55.3682C172.321 56.8618 172.321 58.3554 173.256 59.4756C173.817 60.4092 174.565 60.5959 175.499 60.5959C176.621 60.5959 177.555 59.8491 177.929 59.1023C178.49 58.1687 178.677 54.9948 178.677 53.3145C178.677 52.0076 178.677 49.0204 177.742 47.5268C177.182 46.5933 176.621 46.2199 175.686 46.2199C174.565 46.2199 173.817 46.9667 173.443 47.3401C172.695 48.2736 172.321 50.3273 172.321 52.0076V55.3682Z" fill="#606060"/>
<path d="M193.07 62.4629C192.696 61.3427 192.696 60.4092 192.696 59.8491C192.509 60.5959 191.948 61.5294 191.388 61.9028C190.453 62.6496 189.518 62.8363 188.584 62.8363C186.714 62.8363 185.593 61.9028 185.032 61.5294C184.284 60.7826 183.724 59.4756 183.724 57.6086C183.724 54.0613 185.593 52.5677 186.901 52.0076C188.584 51.2608 190.827 51.0741 192.322 51.2608C192.322 49.0204 192.322 47.7135 191.761 46.9667C191.388 46.5933 190.827 46.0332 189.705 46.0332C188.958 46.0332 188.023 46.2199 187.275 47.3401C186.901 47.9002 186.714 49.0204 186.714 49.3938L184.284 48.8337C184.471 47.5268 185.219 46.2199 185.967 45.4731C187.275 44.1662 188.771 43.9795 190.079 43.9795C190.827 43.9795 192.135 44.1662 193.257 44.7263C195.126 46.0332 195.126 48.0869 195.126 50.8874V58.1687C195.126 59.289 195.126 60.7826 195.313 62.4629H193.07ZM187.462 54.6214C186.901 55.3682 186.528 56.6751 186.528 57.6086C186.528 58.3554 186.714 59.4757 187.275 60.0358C187.649 60.4092 188.397 60.7826 188.958 60.7826C189.705 60.7826 190.827 60.4092 191.575 59.1023C192.322 57.6086 192.509 55.7416 192.509 53.3145C190.453 53.3145 188.584 53.5012 187.462 54.6214Z" fill="#606060"/>
<path d="M200.921 57.0485C200.921 57.7953 201.108 59.1023 201.482 59.6624C202.042 60.7826 203.164 60.7826 203.912 60.7826C204.659 60.7826 205.594 60.5959 206.155 59.8491C206.716 59.1023 206.716 58.1687 206.716 57.4219C206.716 56.6751 206.529 55.5549 205.781 54.8081C205.22 54.4347 204.286 53.8746 203.164 53.8746H202.042V51.6342H203.164C204.286 51.6342 205.22 51.2608 205.594 50.8874C206.342 50.3273 206.342 49.3938 206.342 48.647C206.342 48.0869 206.342 47.3401 205.781 46.78C205.407 46.4066 204.659 46.0332 203.912 46.0332C202.603 46.0332 201.856 46.78 201.482 47.1534C201.108 47.7135 200.921 48.647 200.734 49.3938L198.491 49.0204C198.678 47.5268 199.426 46.0332 200.36 45.0997C201.482 44.1662 202.977 43.9795 203.912 43.9795C205.033 43.9795 206.529 44.1662 207.65 45.2864C208.398 46.0332 208.772 47.1534 208.772 48.647C208.772 49.5805 208.585 50.514 208.024 51.0741C207.463 51.8209 206.716 52.381 205.594 52.7544C206.529 52.9411 207.276 53.3145 207.837 53.8746C208.585 54.6214 208.959 55.7416 208.959 57.4219C208.959 59.1022 208.398 60.4092 207.65 61.156C206.342 62.4629 204.846 62.8363 203.351 62.8363C201.856 62.8363 200.173 62.6496 198.865 60.9693C198.117 59.8491 197.743 58.1687 197.743 57.0485H200.921Z" fill="#606060"/>
<path d="M222.044 45.6598C223.726 47.7135 224.1 51.0741 224.1 53.5012C224.1 56.3017 223.539 59.6623 222.044 61.3427C221.109 62.2762 219.801 63.023 218.305 63.023C216.81 63.023 215.315 62.2762 214.567 61.3427C213.072 59.6623 212.511 56.4884 212.511 53.5012C212.511 51.2608 212.885 47.7135 214.567 45.6598C215.502 44.5396 216.81 43.9795 218.305 43.9795C219.801 43.9795 221.109 44.7263 222.044 45.6598ZM215.502 58.5421C216.062 60.4091 217.371 60.7826 218.119 60.7826C218.866 60.7826 220.175 60.4091 220.736 58.5421C221.109 57.2352 221.296 54.9948 221.296 53.5012C221.296 52.0076 221.109 49.5805 220.736 48.4603C220.175 46.4066 218.679 46.2199 218.119 46.2199C217.745 46.2199 216.249 46.4066 215.502 48.4603C215.128 49.5805 214.941 52.0076 214.941 53.5012C214.941 54.9948 215.128 57.2352 215.502 58.5421Z" fill="#606060"/>
<path d="M227.652 44.353H233.82C235.503 44.353 236.437 44.9131 236.811 45.4732C237.559 46.22 237.933 47.5269 237.933 48.8338C237.933 49.5807 237.746 50.5142 237.372 51.261C236.811 52.1945 236.25 52.7546 235.503 52.9413C236.624 53.3147 237.185 54.0615 237.559 54.4349C238.12 55.1817 238.307 56.4886 238.307 57.4221C238.307 58.9157 237.933 60.2226 236.998 61.1561C236.437 61.7162 235.503 62.463 233.82 62.463H227.465V44.353H227.652ZM232.512 52.0078C233.633 52.0078 234.194 51.6344 234.568 51.261C235.129 50.7009 235.316 49.7673 235.316 49.0205C235.316 48.087 235.129 47.5269 234.568 46.9668C234.007 46.5934 233.446 46.4067 232.699 46.4067H230.269V52.0078H232.512ZM232.512 60.596C233.073 60.596 234.007 60.596 234.755 60.0359C235.316 59.4758 235.69 58.5423 235.69 57.4221C235.69 56.4886 235.316 55.3684 234.755 54.8083C234.194 54.2482 233.073 54.0615 232.512 54.0615H230.082V60.596H232.512Z" fill="#606060"/>
<path d="M250.083 62.4629C249.709 61.3427 249.709 60.4092 249.709 59.8491C249.522 60.5959 248.961 61.5294 248.4 61.9028C247.466 62.6496 246.531 62.8363 245.596 62.8363C243.727 62.8363 242.606 61.9028 242.045 61.5294C241.297 60.7826 240.736 59.4756 240.736 57.6086C240.736 54.0613 242.606 52.5677 243.914 52.0076C245.596 51.2608 247.84 51.0741 249.335 51.2608C249.335 49.0204 249.335 47.7135 248.774 46.9667C248.4 46.5933 247.84 46.0332 246.718 46.0332C245.97 46.0332 245.036 46.2199 244.288 47.3401C243.914 47.9002 243.727 49.0204 243.727 49.3938L241.297 48.8337C241.484 47.5268 242.232 46.2199 242.979 45.4731C244.288 44.1662 245.783 43.9795 247.092 43.9795C247.84 43.9795 249.148 44.1662 250.27 44.7263C252.139 46.0332 252.139 48.0869 252.139 50.8874V58.1687C252.139 59.289 252.139 60.7826 252.326 62.4629H250.083ZM244.475 54.6214C243.914 55.3682 243.54 56.6751 243.54 57.6086C243.54 58.3554 243.727 59.4757 244.288 60.0358C244.662 60.4092 245.409 60.7826 245.97 60.7826C246.718 60.7826 247.84 60.4092 248.587 59.1023C249.335 57.6086 249.522 55.7416 249.522 53.3145C247.466 53.3145 245.596 53.5012 244.475 54.6214Z" fill="#606060"/>
<path d="M256.252 44.353H258.869V52.0078H264.103V44.353H266.72V62.463H264.103V54.0615H258.869V62.463H256.252V44.353Z" fill="#606060"/>
<path d="M271.206 44.353H273.823V55.7418L273.636 57.7955L274.384 55.9285L279.244 45.4732V44.353H281.674V62.463H279.244V51.261V49.394L278.496 51.261L273.823 61.3428V62.463H271.206V44.353Z" fill="#606060"/>
<path d="M293.637 54.6216H290.833L287.468 62.6497H284.478L288.216 54.4349C287.468 54.2482 286.721 53.6881 286.347 53.128C285.225 52.0078 285.225 50.5142 285.225 49.394C285.225 48.0871 285.412 46.4067 287.095 45.2865C288.403 44.353 289.711 44.353 291.02 44.353H296.441V62.463H293.824V54.6216H293.637ZM293.637 46.5934H290.833C290.085 46.5934 288.964 46.5934 288.403 47.3402C288.029 47.7136 287.655 48.4605 287.655 49.5807C287.655 50.3275 287.842 51.0743 288.216 51.6344C288.964 52.5679 289.898 52.5679 290.833 52.5679H293.637V46.5934Z" fill="#606060"/>
<path d="M318.498 62.463H308.778V66.9438H306.535V60.4093H308.031C308.965 58.729 309.526 56.862 309.9 54.8083C310.274 52.3812 310.648 47.3402 310.648 44.353H319.059V60.4093H320.742V66.9438H318.498V62.463ZM316.629 60.4093V46.5934H312.891C312.704 48.6472 312.517 52.1945 312.33 54.4349C311.956 56.4886 311.582 58.3556 310.835 60.4093H316.629Z" fill="#606060"/>
<path d="M325.227 53.8746C325.227 55.3682 325.414 58.1687 326.162 59.4756C326.723 60.4091 327.844 60.7826 328.779 60.7826C329.527 60.7826 330.274 60.4092 330.648 59.8491C331.209 59.289 331.583 57.7953 331.77 57.0485L334.013 57.6086C333.826 58.1687 333.639 59.2889 333.078 60.2225C331.957 62.2762 330.274 62.8363 328.592 62.8363C326.723 62.8363 325.227 62.2762 324.106 60.5959C322.797 58.5422 322.61 55.5549 322.61 53.6879C322.61 50.8874 322.984 47.9002 324.48 46.0332C325.788 44.1662 327.284 43.9795 328.405 43.9795C329.714 43.9795 331.209 44.1662 332.517 45.8465C333.639 47.3401 334.387 49.5805 334.387 53.8746H325.227ZM331.583 51.6342C331.583 49.2071 331.209 48.0869 330.835 47.3401C330.461 46.5933 329.527 46.0332 328.592 46.0332C327.844 46.0332 326.91 46.4066 326.349 47.3401C325.788 48.2736 325.601 49.5805 325.414 51.4475H331.583V51.6342Z" fill="#606060"/>
<path d="M339.621 46.5934H335.135V44.353H346.537V46.5934H342.051V62.463H339.621V46.5934Z" fill="#606060"/>
<path d="M349.902 53.8746C349.902 55.3682 350.089 58.1687 350.837 59.4756C351.398 60.4091 352.519 60.7826 353.454 60.7826C354.201 60.7826 354.949 60.4092 355.323 59.8491C355.884 59.289 356.258 57.7953 356.445 57.0485L358.688 57.6086C358.501 58.1687 358.314 59.2889 357.753 60.2225C356.631 62.2762 354.949 62.8363 353.267 62.8363C351.398 62.8363 349.902 62.2762 348.781 60.5959C347.472 58.5422 347.285 55.5549 347.285 53.6879C347.285 50.8874 347.659 47.9002 349.154 46.0332C350.463 44.1662 351.958 43.9795 353.08 43.9795C354.388 43.9795 355.884 44.1662 357.192 45.8465C358.314 47.3401 359.062 49.5805 359.062 53.8746H349.902ZM356.258 51.6342C356.258 49.2071 355.884 48.0869 355.51 47.3401C355.136 46.5933 354.201 46.0332 353.267 46.0332C352.519 46.0332 351.584 46.4066 351.024 47.3401C350.463 48.2736 350.276 49.5805 350.089 51.4475H356.258V51.6342Z" fill="#606060"/>
<path d="M361.865 44.3533H364.482V55.7421L364.295 57.6091L365.043 55.7421L369.903 45.2868V44.1666H372.52V62.2766H369.903V51.0745L370.09 49.0208L369.342 51.0745L364.482 61.1564V62.2766H361.865V44.3533ZM371.212 38.3789C371.212 39.4991 370.838 40.4326 370.09 41.1794C369.155 42.1129 368.034 42.2996 367.099 42.2996C366.165 42.2996 364.856 42.1129 363.921 41.1794C363.174 40.4326 362.8 39.3124 362.8 38.3789H365.043C365.043 39.1257 365.23 39.6858 365.417 40.0592C365.791 40.6193 366.351 40.806 366.912 40.806C367.473 40.806 368.034 40.6193 368.408 40.0592C368.595 39.6858 368.968 39.1257 368.782 38.3789H371.212Z" fill="#606060"/>
<path d="M388.782 58.5425H387.287L384.296 53.3149L387.287 47.7139H388.782L387.1 53.3149L388.782 58.5425ZM393.081 58.5425H391.586L388.595 53.3149L391.586 47.7139H393.081L391.399 53.3149L393.081 58.5425Z" fill="#606060"/>
<path d="M399.438 38.0054H396.634V62.4632H399.438V38.0054Z" fill="#606060"/>
<path d="M405.98 40.4325H401.307V38.0054H413.644V40.4325H408.784V62.4632H405.98V40.4325Z" fill="#606060"/>
<path d="M420.747 52.1943H414.578V54.4347H420.747V52.1943Z" fill="#606060"/>
<path d="M424.299 62.4629V44.3529H426.916V51.8209H428.598C429.346 51.8209 430.094 51.6342 430.467 50.3273C430.654 49.7672 430.654 49.0204 430.841 48.0869C430.841 47.3401 431.028 46.5933 431.215 45.8465C431.776 44.1662 432.897 43.9795 433.458 43.9795C433.645 43.9795 434.206 44.1662 434.393 44.1662V46.2199C434.019 46.2199 433.645 46.4066 433.645 46.4066C433.458 46.5933 433.271 47.1534 433.271 48.0869C433.084 49.7672 433.084 50.3273 432.897 50.8874C432.524 52.0076 431.963 52.381 431.028 52.7544C432.524 53.1278 432.897 54.4347 433.084 55.3682C433.458 56.8618 433.458 58.7289 433.645 59.6624C433.832 59.8491 434.019 60.5959 434.954 60.2225V62.2762C434.58 62.4629 434.393 62.4629 433.832 62.4629C431.963 62.4629 431.589 61.156 431.215 60.4092C431.028 59.849 430.841 58.7288 430.654 56.6751C430.467 55.9283 430.467 54.9948 430.094 54.4347C429.72 54.0613 429.346 53.8746 428.785 53.8746H427.103V62.2762H424.299V62.4629Z" fill="#606060"/>
<path d="M437.945 44.353L440.935 56.862L444.113 44.353H446.543L441.309 64.1433C440.935 65.2635 440.375 66.9438 439.627 67.8773C438.692 68.8108 437.758 68.9975 437.01 68.9975C436.449 68.9975 435.888 68.8108 435.514 68.8108V66.5704C435.888 66.7571 436.262 66.9438 436.823 66.9438C437.758 66.9438 437.944 66.5704 438.318 65.8236C438.505 65.2635 438.879 64.1433 438.879 63.7699L439.44 61.5295L435.141 44.7264H437.945V44.353Z" fill="#606060"/>
<path d="M450.094 46.7802C451.029 45.4733 452.337 44.5398 454.02 44.5398C456.076 44.5398 457.384 45.66 458.319 47.3403C458.88 48.6472 459.44 50.5142 459.44 53.3148C459.44 58.169 457.945 60.4094 457.758 60.7828C456.637 62.4631 454.767 63.0232 453.459 63.0232C451.963 63.0232 450.655 62.2764 449.907 61.5296C447.851 59.4759 447.664 55.5552 447.664 52.5679C447.664 50.7009 447.851 48.0871 448.225 45.2866C448.599 42.8595 449.159 40.6191 451.403 39.3122C452.524 38.5654 453.833 38.3787 454.767 38.0053C457.571 37.4452 457.01 37.6319 459.067 37.0718V39.3122C458.132 39.4989 457.384 39.6856 456.637 39.8723C455.141 40.2457 454.206 40.4324 453.272 40.8058C452.524 41.1792 451.776 41.5526 451.216 42.2994C450.468 43.4196 450.094 45.4733 450.094 46.7802ZM456.076 58.5424C456.45 57.4222 456.637 55.1818 456.637 53.6881C456.637 52.1945 456.45 49.7674 456.076 48.6472C455.515 47.1536 454.393 46.5935 453.646 46.5935C453.085 46.5935 451.59 46.7802 450.842 49.0206C450.468 50.1408 450.468 52.0078 450.468 53.3148C450.468 54.8084 450.655 57.4222 451.029 58.3557C451.59 60.2227 452.898 60.5961 453.646 60.5961C454.207 60.7828 455.515 60.4094 456.076 58.5424Z" fill="#606060"/>
<path d="M461.871 47.7139H463.366L466.357 53.3149L463.366 58.5425H461.871L463.553 53.3149L461.871 47.7139ZM466.357 47.7139H467.853L470.844 53.3149L467.853 58.5425H466.357L468.04 53.3149L466.357 47.7139Z" fill="#606060"/>
<path d="M553.651 44.353H562.811V46.5934H556.268V62.463H553.651V44.353Z" fill="#606060"/>
<path d="M572.905 45.6598C574.588 47.7135 574.962 51.0741 574.962 53.5012C574.962 56.3017 574.401 59.6623 572.905 61.3427C571.971 62.2762 570.662 63.023 569.167 63.023C567.671 63.023 566.176 62.2762 565.428 61.3427C563.933 59.6623 563.372 56.4884 563.372 53.5012C563.372 51.2608 563.746 47.7135 565.428 45.6598C566.363 44.5396 567.671 43.9795 569.167 43.9795C570.662 43.9795 571.971 44.7263 572.905 45.6598ZM566.55 58.5421C567.111 60.4091 568.419 60.7826 569.167 60.7826C569.915 60.7826 571.223 60.4091 571.784 58.5421C572.158 57.2352 572.345 54.9948 572.345 53.5012C572.345 52.0076 572.158 49.5805 571.784 48.4603C571.223 46.4066 569.728 46.2199 569.167 46.2199C568.793 46.2199 567.298 46.4066 566.55 48.4603C566.176 49.5805 565.989 52.0076 565.989 53.5012C565.989 54.9948 566.176 57.2352 566.55 58.5421Z" fill="#606060"/>
<path d="M587.298 62.463H577.578V66.9438H575.335V60.4093H576.83C577.765 58.729 578.326 56.862 578.7 54.8083C579.073 52.3812 579.447 47.3402 579.447 44.353H587.859V60.4093H589.541V66.9438H587.298V62.463ZM585.616 60.4093V46.5934H581.877C581.69 48.6472 581.504 52.1945 581.317 54.4349C580.943 56.4886 580.569 58.3556 579.821 60.4093H585.616Z" fill="#606060"/>
<path d="M600.757 62.4629C600.384 61.3427 600.384 60.4092 600.384 59.8491C600.197 60.5959 599.636 61.5294 599.075 61.9028C598.141 62.6496 597.206 62.8363 596.271 62.8363C594.402 62.8363 593.28 61.9028 592.72 61.5294C591.972 60.7826 591.411 59.4756 591.411 57.6086C591.411 54.0613 593.28 52.5677 594.589 52.0076C596.271 51.2608 598.514 51.0741 600.01 51.2608C600.01 49.0204 600.01 47.7135 599.449 46.9667C599.075 46.5933 598.514 46.0332 597.393 46.0332C596.645 46.0332 595.71 46.2199 594.963 47.3401C594.589 47.9002 594.402 49.0204 594.402 49.3938L591.972 48.8337C592.159 47.5268 592.907 46.2199 593.654 45.4731C594.963 44.1662 596.458 43.9795 597.767 43.9795C598.514 43.9795 599.823 44.1662 600.944 44.7263C602.814 46.0332 602.814 48.0869 602.814 50.8874V58.1687C602.814 59.289 602.814 60.7826 603.001 62.4629H600.757ZM595.15 54.6214C594.589 55.3682 594.215 56.6751 594.215 57.6086C594.215 58.3554 594.402 59.4757 594.963 60.0358C595.337 60.4092 596.084 60.7826 596.645 60.7826C597.393 60.7826 598.514 60.4092 599.262 59.1023C600.01 57.6086 600.197 55.7416 600.197 53.3145C597.954 53.3145 596.084 53.5012 595.15 54.6214Z" fill="#606060"/>
<path d="M543.597 53.3691V55.8926H528.821V54.083L537.803 37.332H540.16L537.803 42.1797L532.092 53.3691H543.597ZM540.907 37.332V61.5039H537.969V37.332H540.907Z" fill="#606060"/>
<path d="M527.48 58.9805V61.5039H513.967V59.2959L520.624 50.4805C521.443 49.3958 522.068 48.4772 522.5 47.7246C522.932 46.9609 523.23 46.2803 523.396 45.6826C523.562 45.0739 523.646 44.4541 523.646 43.8232C523.646 43.0264 523.518 42.307 523.264 41.665C523.009 41.012 522.638 40.4919 522.151 40.1045C521.664 39.7171 521.078 39.5234 520.392 39.5234C519.495 39.5234 518.759 39.7337 518.184 40.1543C517.619 40.5638 517.204 41.1393 516.938 41.8809C516.673 42.6224 516.54 43.4746 516.54 44.4375H513.602C513.602 43.0762 513.851 41.8311 514.349 40.7021C514.858 39.5732 515.616 38.6768 516.623 38.0127C517.63 37.3376 518.886 37 520.392 37C521.687 37 522.793 37.2712 523.712 37.8135C524.642 38.3447 525.35 39.0973 525.837 40.0713C526.335 41.0342 526.584 42.1631 526.584 43.458C526.584 44.1663 526.484 44.8857 526.285 45.6162C526.097 46.3356 525.831 47.055 525.488 47.7744C525.156 48.4938 524.763 49.2021 524.31 49.8994C523.856 50.5967 523.369 51.2829 522.849 51.958L517.486 58.9805H527.48Z" fill="#606060"/>
<path d="M511.082 47.4922V51.1777C511.082 53.1589 510.927 54.8301 510.617 56.1914C510.318 57.5527 509.887 58.6484 509.322 59.4785C508.758 60.3086 508.077 60.9118 507.28 61.2881C506.494 61.6533 505.609 61.8359 504.624 61.8359C503.849 61.8359 503.124 61.7197 502.449 61.4873C501.785 61.2549 501.188 60.8841 500.656 60.375C500.125 59.8548 499.671 59.1797 499.295 58.3496C498.919 57.5195 498.631 56.5124 498.432 55.3281C498.232 54.1439 498.133 52.7604 498.133 51.1777V47.4922C498.133 45.5111 498.288 43.8509 498.598 42.5117C498.908 41.1725 499.345 40.099 499.909 39.291C500.485 38.472 501.165 37.8854 501.951 37.5312C502.748 37.1771 503.633 37 504.607 37C505.393 37 506.118 37.1162 506.782 37.3486C507.457 37.57 508.055 37.9297 508.575 38.4277C509.106 38.9147 509.56 39.5677 509.937 40.3867C510.313 41.1947 510.595 42.1852 510.783 43.3584C510.982 44.5316 511.082 45.9095 511.082 47.4922ZM508.16 51.6758V46.9775C508.16 45.8929 508.11 44.9411 508.011 44.1221C507.911 43.292 507.767 42.5837 507.579 41.9971C507.391 41.4105 507.147 40.9346 506.849 40.5693C506.561 40.2041 506.229 39.9385 505.853 39.7725C505.476 39.5954 505.061 39.5068 504.607 39.5068C504.043 39.5068 503.539 39.6452 503.097 39.9219C502.665 40.1875 502.294 40.6136 501.984 41.2002C501.686 41.7868 501.459 42.556 501.304 43.5078C501.149 44.4596 501.071 45.6162 501.071 46.9775V51.6758C501.071 52.7604 501.121 53.7178 501.221 54.5479C501.331 55.3779 501.481 56.0973 501.669 56.7061C501.868 57.3037 502.112 57.7962 502.399 58.1836C502.687 58.571 503.019 58.8587 503.396 59.0469C503.772 59.224 504.181 59.3125 504.624 59.3125C505.211 59.3125 505.72 59.1686 506.151 58.8809C506.594 58.5931 506.965 58.1449 507.264 57.5361C507.562 56.9163 507.784 56.125 507.928 55.1621C508.083 54.1882 508.16 53.026 508.16 51.6758Z" fill="#606060"/>
<path d="M495.879 58.9805V61.5039H482.365V59.2959L489.022 50.4805C489.841 49.3958 490.467 48.4772 490.898 47.7246C491.33 46.9609 491.629 46.2803 491.795 45.6826C491.961 45.0739 492.044 44.4541 492.044 43.8232C492.044 43.0264 491.917 42.307 491.662 41.665C491.408 41.012 491.037 40.4919 490.55 40.1045C490.063 39.7171 489.476 39.5234 488.79 39.5234C487.894 39.5234 487.158 39.7337 486.582 40.1543C486.018 40.5638 485.603 41.1393 485.337 41.8809C485.071 42.6224 484.938 43.4746 484.938 44.4375H482C482 43.0762 482.249 41.8311 482.747 40.7021C483.256 39.5732 484.014 38.6768 485.021 38.0127C486.029 37.3376 487.285 37 488.79 37C490.085 37 491.192 37.2712 492.11 37.8135C493.04 38.3447 493.748 39.0973 494.235 40.0713C494.733 41.0342 494.982 42.1631 494.982 43.458C494.982 44.1663 494.883 44.8857 494.684 45.6162C494.495 46.3356 494.23 47.055 493.887 47.7744C493.555 48.4938 493.162 49.2021 492.708 49.8994C492.254 50.5967 491.767 51.2829 491.247 51.958L485.885 58.9805H495.879Z" fill="#606060"/>
</svg>
