<svg width="589" height="511" viewBox="0 0 589 511" fill="none" xmlns="http://www.w3.org/2000/svg">
<path d="M557.901 340.018C557.627 340.018 557.398 339.789 557.398 339.515V251.588H456.931C456.656 251.588 456.428 251.359 456.428 251.085C456.428 250.81 456.656 250.582 456.931 250.582H557.901C558.175 250.582 558.404 250.81 558.404 251.085V339.515C558.427 339.789 558.198 340.018 557.901 340.018Z" fill="black"/>
<path d="M558.13 351.89C564.961 351.89 570.499 346.349 570.499 339.515C570.499 332.68 564.961 327.14 558.13 327.14C551.298 327.14 545.76 332.68 545.76 339.515C545.76 346.349 551.298 351.89 558.13 351.89Z" fill="#1D2332"/>
<path d="M517.94 229.241H462.036C461.762 229.241 461.533 229.012 461.533 228.737C461.533 228.463 461.762 228.234 462.036 228.234H517.437V160.413C517.437 160.139 517.666 159.91 517.94 159.91H568.494C568.768 159.91 568.997 160.139 568.997 160.413C568.997 160.688 568.768 160.917 568.494 160.917H518.443V228.737C518.443 229.012 518.215 229.241 517.94 229.241Z" fill="black"/>
<path d="M575.922 172.788C582.754 172.788 588.292 167.248 588.292 160.413C588.292 153.579 582.754 148.039 575.922 148.039C569.091 148.039 563.553 153.579 563.553 160.413C563.553 167.248 569.091 172.788 575.922 172.788Z" fill="#1D2332"/>
<path d="M441.911 204.582C441.637 204.582 441.408 204.354 441.408 204.079V151.561C441.408 151.286 441.637 151.058 441.911 151.058C442.186 151.058 442.414 151.286 442.414 151.561V204.079C442.414 204.354 442.186 204.582 441.911 204.582Z" fill="black"/>
<path d="M441.913 160.436C448.744 160.436 454.283 154.896 454.283 148.061C454.283 141.227 448.744 135.687 441.913 135.687C435.081 135.687 429.543 141.227 429.543 148.061C429.543 154.896 435.081 160.436 441.913 160.436Z" fill="#E2EAFF"/>
<path d="M441 383.135V127.865L220.729 0L0 127.865V383.135L220.729 511L441 383.135Z" fill="#3973B9"/>
<mask id="mask0_4166_2485" style="mask-type:alpha" maskUnits="userSpaceOnUse" x="0" y="0" width="442" height="511">
<path d="M441.155 383.135V127.865L220.808 0L0.00390625 127.865V383.135L220.808 511L441.155 383.135Z" fill="#3973B9"/>
</mask>
<g mask="url(#mask0_4166_2485)">
<path d="M341.434 387.811L352.032 469.574L270.54 469.617L268.701 398.369L341.434 387.811Z" fill="white"/>
<path d="M351.95 469.79C351.712 469.79 351.517 469.617 351.474 469.379L340.963 387.854C340.92 387.595 341.114 387.357 341.374 387.313C341.633 387.292 341.871 387.465 341.915 387.724L352.426 469.249C352.469 469.509 352.274 469.747 352.015 469.79C351.993 469.79 351.971 469.79 351.95 469.79Z" fill="black"/>
<path d="M370.416 348.865L398.791 469.616H482.619L457.12 353.495L370.416 348.865Z" fill="white"/>
<path d="M398.618 469.639C398.402 469.639 398.207 469.487 398.164 469.271L369.94 348.974C369.897 348.822 369.94 348.671 370.049 348.563C370.135 348.455 370.286 348.39 370.438 348.39L416.483 350.856C416.742 350.878 416.937 351.094 416.937 351.354C416.915 351.613 416.699 351.83 416.439 351.808L371.022 349.385L399.094 469.054C399.159 469.314 398.986 469.574 398.748 469.617C398.705 469.617 398.662 469.639 398.618 469.639Z" fill="black"/>
<path d="M274.543 247.046C275.689 246.397 277.419 247.154 278.522 248.798L325.368 318.726C326.665 320.652 326.514 322.946 325.086 323.53L317.971 326.429C316.695 326.948 314.9 325.931 313.927 324.136L274.197 251.308C273.245 249.556 273.397 247.695 274.543 247.046Z" fill="white"/>
<path d="M317.256 327.035C315.915 327.035 314.401 325.996 313.514 324.374L273.785 251.547C272.682 249.534 272.92 247.436 274.326 246.635C275.71 245.856 277.678 246.678 278.932 248.539L325.777 318.467C326.642 319.765 326.967 321.28 326.599 322.448C326.383 323.162 325.907 323.703 325.28 323.963L318.164 326.862C317.883 326.992 317.58 327.035 317.256 327.035ZM274.78 247.457C273.871 247.977 273.785 249.599 274.607 251.092L314.336 323.919C315.201 325.499 316.737 326.429 317.775 325.996L324.891 323.097C325.366 322.902 325.583 322.491 325.669 322.167C325.95 321.258 325.669 320.047 324.955 318.986L278.11 249.058C277.18 247.652 275.688 246.938 274.78 247.457Z" fill="black"/>
<path d="M250.015 357.347C250.015 357.347 242.446 332.12 246.252 326.516C263.857 300.531 351.945 310.44 369.161 313.469C383.002 315.893 411.745 313.448 426.993 327.987C434.779 335.408 437.785 358.754 436.098 365.721C431.88 383.203 348.312 405.466 317.125 403.778C297.855 402.74 255.379 377.858 250.015 357.347Z" fill="#3973B9"/>
<path d="M320.694 404.363C319.418 404.363 318.229 404.341 317.104 404.276C297.661 403.216 255.293 378.269 249.648 357.737L249.561 357.499C249.259 356.46 241.97 331.99 245.841 326.256C263.23 300.574 348.94 309.445 369.226 312.993C372.643 313.599 376.882 313.88 381.813 314.226C396.909 315.265 415.725 316.585 427.296 327.619C435.039 335.019 438.326 358.364 436.531 365.807C433.763 377.253 400.846 388.2 386.831 392.376C362.262 399.732 336.417 404.363 320.694 404.363ZM250.383 356.806L250.491 357.239C255.769 377.491 297.877 402.286 317.147 403.324C332.2 404.146 360.099 399.386 386.571 391.511C415.444 382.9 433.784 373.228 435.622 365.634C437.201 359.1 434.325 335.668 426.647 328.355C415.314 317.537 396.693 316.26 381.748 315.222C376.796 314.876 372.514 314.573 369.053 313.967C348.896 310.419 263.706 301.569 246.62 326.819C243.246 331.795 249.367 353.539 250.34 356.828L250.383 356.806Z" fill="#3973B9"/>
<path d="M312.326 380.346C343.513 382.034 427.081 359.77 431.299 342.288C436.294 321.647 385.275 293.715 364.362 290.037C340.312 285.818 251.336 305.853 245.389 328.095C239.917 348.606 291.131 379.2 312.326 380.346Z" fill="#4789D9"/>
<path d="M315.893 380.909C314.617 380.909 313.427 380.888 312.303 380.823C304.344 380.39 292.146 375.933 279.688 368.858C266.517 361.394 255.574 352.458 249.669 344.323C245.257 338.243 243.657 332.726 244.933 327.944C248.718 313.816 283.279 302.76 297.964 298.649C324.436 291.249 352.4 287.42 364.446 289.54C372.881 291.033 386.139 296.463 398.25 303.409C412.373 311.522 423.057 320.415 428.312 328.442C431.621 333.505 432.789 338.178 431.773 342.375C429.004 353.821 396.087 364.769 382.073 368.945C357.482 376.279 331.616 380.909 315.893 380.909ZM312.346 379.871C327.399 380.671 355.298 375.933 381.77 368.057C410.643 359.446 428.983 349.775 430.821 342.181C431.773 338.265 430.648 333.807 427.49 328.983C416.309 311.912 381.229 293.478 364.273 290.492C352.335 288.393 324.565 292.223 298.201 299.579C267.945 308.039 248.372 318.727 245.841 328.204C244.652 332.682 246.187 337.918 250.426 343.76C262.927 361.004 296.45 379.005 312.346 379.871Z" fill="#3973B9"/>
<path d="M315.871 380.909C314.616 380.909 313.427 380.887 312.302 380.822C304.149 380.39 291.215 375.543 278.52 368.209C278.282 368.079 278.217 367.776 278.347 367.559C278.477 367.321 278.78 367.257 278.996 367.386C291.561 374.656 304.365 379.459 312.367 379.892C324.586 380.563 346.063 377.426 368.447 371.757C391.761 365.829 411.918 358.191 422.407 351.289C422.624 351.138 422.926 351.203 423.056 351.419C423.208 351.635 423.143 351.938 422.927 352.068C400.412 366.867 343.186 380.909 315.871 380.909Z" fill="black"/>
<path d="M327.338 353.933C332.114 342.629 324.141 328.457 309.53 322.28C294.919 316.102 279.204 320.258 274.428 331.561C269.653 342.865 277.626 357.036 292.236 363.214C306.847 369.392 322.563 365.236 327.338 353.933Z" fill="#1D2332"/>
<path d="M305.92 366.543C301.421 366.543 296.685 365.612 292.035 363.644C277.199 357.369 269.088 342.895 273.976 331.363C276.355 325.759 281.373 321.67 288.164 319.895C294.89 318.121 302.546 318.814 309.726 321.843C316.885 324.872 322.724 329.891 326.142 335.949C329.58 342.051 330.164 348.52 327.807 354.124C324.433 362.043 315.804 366.543 305.92 366.543ZM292.424 362.778C306.763 368.836 322.249 364.79 326.92 353.756C329.169 348.433 328.607 342.267 325.32 336.425C322.011 330.54 316.344 325.672 309.38 322.73C302.416 319.787 294.976 319.116 288.445 320.847C281.957 322.557 277.155 326.451 274.884 331.774C270.191 342.786 278.064 356.698 292.424 362.778Z" fill="black"/>
<path d="M400.352 330.626C404.383 319.976 396.487 307.112 382.713 301.894C368.94 296.675 354.506 301.078 350.474 311.728C346.442 322.377 354.339 335.241 368.112 340.46C381.886 345.678 396.32 341.276 400.352 330.626Z" fill="#1D2332"/>
<path d="M379.76 343.132C375.932 343.132 371.91 342.418 367.93 340.925C361.182 338.372 355.581 333.915 352.207 328.398C348.79 322.837 348.033 316.866 350.023 311.565C352.012 306.264 356.554 302.305 362.805 300.401C368.99 298.518 376.127 298.886 382.875 301.439C389.623 303.992 395.224 308.449 398.598 313.966C402.015 319.527 402.772 325.499 400.782 330.799C397.819 338.588 389.428 343.132 379.76 343.132ZM371.023 300.163C368.276 300.163 365.594 300.552 363.086 301.309C357.138 303.127 352.813 306.891 350.931 311.889C349.028 316.909 349.785 322.578 353.029 327.879C356.295 333.223 361.723 337.528 368.276 340.016C381.772 345.144 395.959 340.839 399.896 330.453C401.799 325.434 401.042 319.765 397.798 314.464C394.532 309.12 389.104 304.814 382.55 302.326C378.722 300.877 374.808 300.163 371.023 300.163Z" fill="black"/>
<path d="M374.287 323.01C377.747 324.785 381.943 322.816 382.786 319.008L385.944 304.511L379.001 301.829L371.8 314.875C370.199 317.796 371.324 321.474 374.287 323.01Z" fill="white"/>
<path d="M386.107 306.336C390.327 304.983 392.651 300.463 391.298 296.241C389.945 292.02 385.428 289.694 381.207 291.048C376.987 292.401 374.663 296.921 376.016 301.143C377.369 305.364 381.887 307.69 386.107 306.336Z" fill="white"/>
<path d="M383.629 307.195C380.038 307.195 376.686 304.901 375.54 301.288C374.112 296.831 376.578 292.028 381.033 290.6C385.489 289.172 390.29 291.638 391.717 296.095C393.145 300.552 390.679 305.355 386.224 306.783C385.359 307.065 384.472 307.195 383.629 307.195ZM376.448 301.007C377.724 304.966 381.963 307.151 385.921 305.896C389.879 304.62 392.063 300.379 390.809 296.42C389.533 292.46 385.294 290.275 381.336 291.53C379.411 292.136 377.854 293.477 376.924 295.251C375.994 297.047 375.821 299.081 376.448 301.007Z" fill="black"/>
<path d="M304.065 345.62C307.785 343.673 308.628 338.74 305.795 335.646L294.982 323.876L288.32 328.333L295.371 342.764C296.95 345.988 300.886 347.286 304.065 345.62Z" fill="white"/>
<path d="M293.977 334.629C298.567 333.347 301.249 328.584 299.967 323.993C298.685 319.401 293.924 316.718 289.334 318.001C284.744 319.283 282.063 324.045 283.345 328.637C284.627 333.229 289.387 335.912 293.977 334.629Z" fill="white"/>
<path d="M291.651 335.43C290.116 335.43 288.58 335.041 287.196 334.262C285.077 333.072 283.541 331.125 282.892 328.766C282.243 326.43 282.525 323.963 283.736 321.843C284.947 319.722 286.872 318.186 289.229 317.537C291.565 316.888 294.03 317.191 296.15 318.381C298.269 319.571 299.805 321.518 300.454 323.877C301.103 326.213 300.821 328.68 299.61 330.8C298.421 332.92 296.474 334.457 294.117 335.106C293.317 335.322 292.473 335.43 291.651 335.43ZM291.673 318.143C290.938 318.143 290.202 318.251 289.467 318.446C287.369 319.03 285.617 320.393 284.558 322.297C283.498 324.201 283.217 326.408 283.801 328.507C284.385 330.605 285.747 332.358 287.65 333.418C289.554 334.478 291.759 334.76 293.857 334.175C295.955 333.591 297.707 332.228 298.767 330.324C299.827 328.42 300.108 326.213 299.524 324.115C298.94 322.016 297.577 320.263 295.674 319.203C294.441 318.511 293.079 318.143 291.673 318.143Z" fill="black"/>
<path d="M415.935 389.152C400.947 363.708 401.164 345.555 403.824 334.975C405.943 326.559 404.191 317.645 399.195 310.548L387.473 293.845C383.407 288.046 384.272 280.128 389.506 275.346C395.367 270.002 404.472 270.564 409.641 276.558L437.844 309.228C447.165 320.003 453.588 332.985 456.551 346.918L482.18 468.795L415.935 389.152Z" fill="white"/>
<path d="M482.183 469.249C481.967 469.249 481.772 469.098 481.708 468.881L456.079 347.005C453.138 333.179 446.714 320.219 437.479 309.531L409.277 276.861C406.855 274.048 403.481 272.404 399.804 272.166C396.106 271.949 392.559 273.204 389.834 275.692C384.795 280.301 383.951 287.982 387.866 293.564L399.588 310.267C404.692 317.558 406.422 326.602 404.281 335.083C401.6 345.75 401.513 363.73 416.349 388.914C416.479 389.13 416.414 389.433 416.176 389.563C415.96 389.693 415.657 389.628 415.528 389.39C400.54 363.946 400.626 345.685 403.351 334.845C405.406 326.645 403.762 317.883 398.81 310.808L387.087 294.105C382.892 288.133 383.8 279.911 389.207 274.978C392.127 272.317 395.911 270.976 399.869 271.214C403.827 271.452 407.417 273.226 410.013 276.233L438.215 308.904C447.558 319.722 454.068 332.833 457.031 346.81L482.659 468.686C482.724 468.946 482.551 469.206 482.292 469.249C482.248 469.249 482.227 469.249 482.183 469.249Z" fill="black"/>
<path d="M308.796 417.755C312.603 388.481 305.293 371.843 298.696 363.167C293.463 356.265 291.581 347.373 293.354 338.891L297.572 318.921C299.042 311.998 295.128 305.052 288.445 302.716C280.962 300.098 272.808 304.187 270.408 311.738L257.28 352.847C252.954 366.412 252.111 380.865 254.858 394.864L270.537 469.141L308.796 417.755Z" fill="white"/>
<path d="M270.539 469.595C270.322 469.595 270.128 469.444 270.063 469.227L254.383 394.951C251.636 380.93 252.48 366.304 256.805 352.695L269.933 311.587C271.144 307.822 273.761 304.75 277.286 302.997C280.833 301.223 284.834 300.963 288.576 302.283C295.475 304.685 299.541 311.89 298.027 319.051L293.81 339.021C292.015 347.459 293.94 356.179 299.065 362.908C305.813 371.8 313.08 388.568 309.273 417.842C309.23 418.101 308.992 418.296 308.733 418.253C308.473 418.209 308.279 417.971 308.322 417.712C312.085 388.741 304.948 372.233 298.308 363.47C293.031 356.503 291.041 347.524 292.88 338.805L297.097 318.835C298.503 312.149 294.718 305.42 288.273 303.17C284.769 301.959 281.028 302.197 277.719 303.841C274.41 305.485 271.966 308.341 270.841 311.868L257.714 352.977C253.41 366.434 252.588 380.887 255.313 394.756L270.993 469.033C271.058 469.292 270.885 469.552 270.625 469.595C270.604 469.595 270.56 469.595 270.539 469.595Z" fill="black"/>
</g>
<path d="M404.998 25.3569H379.01C344.537 25.3569 316.586 53.3193 316.586 87.8056V215.251H467.405V87.8056C467.422 53.3193 439.47 25.3569 404.998 25.3569Z" fill="white"/>
<path d="M467.42 215.608H316.601C316.406 215.608 316.244 215.446 316.244 215.251V87.8058C316.244 53.1733 344.406 25 379.025 25H405.013C439.632 25 467.794 53.1733 467.794 87.8058V215.251C467.777 215.446 467.615 215.608 467.42 215.608ZM316.942 214.894H467.047V87.8058C467.047 53.5791 439.21 25.7141 404.981 25.7141H378.992C344.779 25.7141 316.925 53.5628 316.925 87.8058V214.894H316.942Z" fill="black"/>
<path d="M323.639 91.019H235.648V192.563H323.639V91.019Z" fill="white"/>
<path d="M323.624 192.904H235.65C235.455 192.904 235.293 192.742 235.293 192.547V91.0191C235.293 90.8244 235.455 90.6621 235.65 90.6621H323.64C323.835 90.6621 323.997 90.8244 323.997 91.0191V192.547C323.981 192.742 323.818 192.904 323.624 192.904ZM236.007 192.19H323.283V91.3762H236.007V192.19Z" fill="black"/>
<path d="M365.522 91.019H323.619V192.563H365.522V91.019Z" fill="white"/>
<path d="M365.523 192.904H323.621C323.426 192.904 323.264 192.742 323.264 192.547V91.0191C323.264 90.8244 323.426 90.6621 323.621 90.6621H365.523C365.718 90.6621 365.88 90.8244 365.88 91.0191V192.547C365.88 192.742 365.718 192.904 365.523 192.904ZM323.977 192.19H365.166V91.3762H323.977V192.19Z" fill="black"/>
<path d="M332.496 252.918C341.285 252.918 348.41 245.79 348.41 236.998C348.41 228.205 341.285 221.077 332.496 221.077C323.707 221.077 316.582 228.205 316.582 236.998C316.582 245.79 323.707 252.918 332.496 252.918Z" fill="white"/>
<path d="M332.498 253.275C323.527 253.275 316.227 245.972 316.227 236.998C316.227 228.023 323.527 220.72 332.498 220.72C341.469 220.72 348.769 228.023 348.769 236.998C348.769 245.972 341.469 253.275 332.498 253.275ZM332.498 221.434C323.916 221.434 316.94 228.413 316.94 236.998C316.94 245.583 323.916 252.561 332.498 252.561C341.079 252.561 348.055 245.583 348.055 236.998C348.055 228.413 341.079 221.434 332.498 221.434Z" fill="black"/>
<path d="M332.497 245.94C337.434 245.94 341.436 241.936 341.436 236.998C341.436 232.059 337.434 228.056 332.497 228.056C327.561 228.056 323.559 232.059 323.559 236.998C323.559 241.936 327.561 245.94 332.497 245.94Z" fill="white"/>
<path d="M332.499 246.297C327.372 246.297 323.203 242.126 323.203 236.998C323.203 231.87 327.372 227.699 332.499 227.699C337.625 227.699 341.794 231.87 341.794 236.998C341.794 242.126 337.625 246.297 332.499 246.297ZM332.499 228.413C327.778 228.413 323.917 232.259 323.917 236.998C323.917 241.72 327.762 245.583 332.499 245.583C337.219 245.583 341.08 241.737 341.08 236.998C341.08 232.275 337.235 228.413 332.499 228.413Z" fill="black"/>
<path d="M372.176 252.919C380.965 252.919 388.09 245.791 388.09 236.998C388.09 228.205 380.965 221.078 372.176 221.078C363.387 221.078 356.262 228.205 356.262 236.998C356.262 245.791 363.387 252.919 372.176 252.919Z" fill="white"/>
<path d="M372.177 253.276C363.206 253.276 355.906 245.973 355.906 236.998C355.906 228.024 363.206 220.721 372.177 220.721C381.148 220.721 388.448 228.024 388.448 236.998C388.432 245.973 381.148 253.276 372.177 253.276ZM372.177 221.435C363.596 221.435 356.62 228.413 356.62 236.998C356.62 245.583 363.596 252.562 372.177 252.562C380.759 252.562 387.735 245.583 387.735 236.998C387.735 228.413 380.743 221.435 372.177 221.435Z" fill="black"/>
<path d="M372.181 245.94C377.117 245.94 381.119 241.936 381.119 236.998C381.119 232.059 377.117 228.056 372.181 228.056C367.244 228.056 363.242 232.059 363.242 236.998C363.242 241.936 367.244 245.94 372.181 245.94Z" fill="white"/>
<path d="M372.182 246.297C367.056 246.297 362.887 242.126 362.887 236.998C362.887 231.87 367.056 227.699 372.182 227.699C377.308 227.699 381.478 231.87 381.478 236.998C381.461 242.126 377.292 246.297 372.182 246.297ZM372.182 228.413C367.461 228.413 363.6 232.259 363.6 236.998C363.6 241.72 367.445 245.583 372.182 245.583C376.903 245.583 380.764 241.737 380.764 236.998C380.748 232.275 376.903 228.413 372.182 228.413Z" fill="black"/>
<path d="M411.842 252.919C420.631 252.919 427.756 245.791 427.756 236.998C427.756 228.205 420.631 221.078 411.842 221.078C403.053 221.078 395.928 228.205 395.928 236.998C395.928 245.791 403.053 252.919 411.842 252.919Z" fill="white"/>
<path d="M411.843 253.276C402.872 253.276 395.572 245.973 395.572 236.998C395.572 228.024 402.872 220.721 411.843 220.721C420.814 220.721 428.114 228.024 428.114 236.998C428.114 245.973 420.814 253.276 411.843 253.276ZM411.843 221.435C403.262 221.435 396.286 228.413 396.286 236.998C396.286 245.583 403.262 252.562 411.843 252.562C420.425 252.562 427.401 245.583 427.401 236.998C427.401 228.413 420.425 221.435 411.843 221.435Z" fill="black"/>
<path d="M411.839 245.94C416.776 245.94 420.777 241.936 420.777 236.998C420.777 232.059 416.776 228.056 411.839 228.056C406.902 228.056 402.9 232.059 402.9 236.998C402.9 241.936 406.902 245.94 411.839 245.94Z" fill="white"/>
<path d="M411.84 246.297C406.714 246.297 402.545 242.126 402.545 236.998C402.545 231.87 406.714 227.699 411.84 227.699C416.967 227.699 421.136 231.87 421.136 236.998C421.12 242.126 416.967 246.297 411.84 246.297ZM411.84 228.413C407.12 228.413 403.259 232.259 403.259 236.998C403.259 241.72 407.103 245.583 411.84 245.583C416.561 245.583 420.422 241.737 420.422 236.998C420.406 232.275 416.561 228.413 411.84 228.413Z" fill="black"/>
<path d="M451.5 252.918C460.289 252.918 467.414 245.79 467.414 236.998C467.414 228.205 460.289 221.077 451.5 221.077C442.711 221.077 435.586 228.205 435.586 236.998C435.586 245.79 442.711 252.918 451.5 252.918Z" fill="white"/>
<path d="M451.502 253.275C442.531 253.275 435.23 245.972 435.23 236.998C435.23 228.023 442.531 220.72 451.502 220.72C460.472 220.72 467.773 228.023 467.773 236.998C467.773 245.972 460.472 253.275 451.502 253.275ZM451.502 221.434C442.92 221.434 435.944 228.413 435.944 236.998C435.944 245.583 442.92 252.561 451.502 252.561C460.083 252.561 467.059 245.583 467.059 236.998C467.059 228.413 460.083 221.434 451.502 221.434Z" fill="black"/>
<path d="M451.505 245.94C456.442 245.94 460.443 241.936 460.443 236.998C460.443 232.059 456.442 228.056 451.505 228.056C446.568 228.056 442.566 232.059 442.566 236.998C442.566 241.936 446.568 245.94 451.505 245.94Z" fill="white"/>
<path d="M451.506 246.297C446.38 246.297 442.211 242.126 442.211 236.998C442.211 231.87 446.38 227.699 451.506 227.699C456.633 227.699 460.802 231.87 460.802 236.998C460.802 242.126 456.633 246.297 451.506 246.297ZM451.506 228.413C446.786 228.413 442.925 232.259 442.925 236.998C442.925 241.72 446.769 245.583 451.506 245.583C456.243 245.583 460.088 241.737 460.088 236.998C460.088 232.275 456.227 228.413 451.506 228.413Z" fill="black"/>
<path d="M472.958 69.6621H395.35C385.584 69.6621 377.668 77.5818 377.668 87.3516C377.668 97.1214 385.584 105.041 395.35 105.041H472.958C482.724 105.041 490.641 97.1214 490.641 87.3516C490.641 77.5818 482.724 69.6621 472.958 69.6621Z" fill="#4789D9"/>
<path d="M472.96 105.398H395.352C385.407 105.398 377.312 97.3 377.312 87.3517C377.312 77.4034 385.407 69.3052 395.352 69.3052H472.96C482.904 69.3052 490.999 77.4034 490.999 87.3517C490.999 97.3 482.904 105.398 472.96 105.398ZM395.352 70.0192C385.797 70.0192 378.026 77.7929 378.026 87.3517C378.026 96.9105 385.797 104.684 395.352 104.684H472.96C482.515 104.684 490.285 96.9105 490.285 87.3517C490.285 77.7929 482.515 70.0192 472.96 70.0192H395.352Z" fill="#5479F7"/>
<path d="M464.204 98.2736C470.019 98.2736 474.732 93.558 474.732 87.741C474.732 81.9241 470.019 77.2085 464.204 77.2085C458.389 77.2085 453.676 81.9241 453.676 87.741C453.676 93.558 458.389 98.2736 464.204 98.2736Z" fill="white"/>
<path d="M404.118 98.2736C409.933 98.2736 414.646 93.558 414.646 87.741C414.646 81.9241 409.933 77.2085 404.118 77.2085C398.304 77.2085 393.59 81.9241 393.59 87.741C393.59 93.558 398.304 98.2736 404.118 98.2736Z" fill="white"/>
<path d="M412.002 131.819C408.693 131.819 405.383 131.007 402.479 129.401C397.596 126.723 393.963 121.87 392.762 116.434C392.714 116.239 392.843 116.044 393.038 116.012C393.233 115.963 393.427 116.093 393.46 116.288C394.628 121.53 398.116 126.203 402.82 128.784C407.525 131.364 413.332 131.835 418.394 130.001C418.572 129.936 418.783 130.033 418.848 130.212C418.913 130.391 418.815 130.601 418.637 130.666C416.512 131.445 414.257 131.819 412.002 131.819Z" fill="black"/>
<path d="M461.064 151.926H374.988C374.793 151.926 374.631 151.764 374.631 151.569C374.631 151.374 374.793 151.212 374.988 151.212H461.064C461.258 151.212 461.421 151.374 461.421 151.569C461.421 151.764 461.258 151.926 461.064 151.926Z" fill="black"/>
<path d="M190.885 220.344L79.7217 225.575L93.3029 173.489L65.2266 160.639C65.2266 160.639 88.0481 121.504 145.165 121.301C193.575 121.123 214.696 146.773 223.023 159.013L199.998 180.955L190.885 220.344Z" fill="white"/>
<path d="M79.7245 226.134C79.5468 226.134 79.3945 226.057 79.293 225.93C79.1914 225.803 79.1407 225.6 79.1914 225.448L92.6711 173.819L65.0264 161.172C64.874 161.095 64.7725 160.994 64.7217 160.841C64.671 160.689 64.6963 160.537 64.7725 160.384C64.8233 160.283 70.6873 150.404 83.4816 140.626C95.2604 131.636 115.543 120.869 145.194 120.767C145.371 120.767 145.549 120.767 145.701 120.767C166.568 120.767 184.643 125.567 199.442 135.039C208.937 141.109 216.781 148.855 223.508 158.708C223.66 158.937 223.635 159.241 223.432 159.419L200.534 181.259L191.471 220.47C191.421 220.724 191.192 220.902 190.964 220.902L79.7499 226.134C79.7245 226.134 79.7245 226.134 79.7245 226.134ZM66.0418 160.41L93.5342 172.981C93.7881 173.082 93.915 173.361 93.8388 173.641L80.4607 224.991L190.431 219.81L199.442 180.828C199.468 180.726 199.519 180.625 199.595 180.548L222.289 158.937C205.383 134.328 179.616 121.859 145.701 121.859C145.524 121.859 145.346 121.859 145.168 121.859C115.848 121.961 95.8189 132.576 84.167 141.465C73.2005 149.82 67.4126 158.251 66.0418 160.41Z" fill="black"/>
<path d="M207.84 482.985L199.666 471.633L198.168 414.873C158.212 399.788 104.318 402.684 43.1648 414.873L29.812 475.823C28.2635 482.883 33.6452 489.562 40.8547 489.562H204.489C207.866 489.562 209.82 485.727 207.84 482.985Z" fill="white"/>
<path d="M204.495 490.121H40.8608C37.2561 490.121 33.8798 488.496 31.6205 485.702C29.3612 482.883 28.4981 479.252 29.285 475.722L42.6378 414.772C42.6886 414.544 42.8662 414.391 43.0693 414.341C111.432 400.729 162.229 400.729 198.378 414.366C198.581 414.442 198.733 414.645 198.733 414.874L200.231 471.455L208.303 482.655C209.344 484.102 209.471 485.982 208.684 487.556C207.872 489.131 206.272 490.121 204.495 490.121ZM43.6278 415.356L30.3512 475.95C29.6404 479.15 30.4274 482.452 32.4836 484.991C34.5398 487.531 37.5861 489.004 40.8608 489.004H204.495C205.866 489.004 207.059 488.267 207.694 487.048C208.329 485.829 208.202 484.433 207.415 483.315L199.241 471.963C199.165 471.862 199.139 471.76 199.139 471.659L197.641 415.28C161.772 401.871 111.382 401.897 43.6278 415.356Z" fill="black"/>
<path d="M192.618 206.274H186.703C185.129 180.955 183.124 162.34 183.124 162.34H115.675L115.395 206.274L88.8169 206.731L43.1738 414.899H198.177L192.618 206.274Z" fill="#4789D9"/>
<path d="M198.761 415.458H42.4883L42.6406 414.772L88.3852 206.198L114.862 205.741L115.141 161.806H183.631L183.682 162.314C183.708 162.492 185.662 180.954 187.236 205.741H193.176L193.202 206.274L198.761 415.458ZM43.8591 414.34H197.593L192.085 206.858H186.17L186.145 206.325C184.723 183.57 182.946 166.047 182.616 162.924H116.233L115.954 206.833L89.2737 207.29L43.8591 414.34Z" fill="#4789D9"/>
<path d="M118.568 160.943H118.543C118.238 160.918 118.01 160.664 118.01 160.359C119.101 139.458 113.034 126.303 112.958 126.176C112.831 125.897 112.958 125.567 113.212 125.44C113.491 125.313 113.821 125.44 113.948 125.694C113.999 125.821 120.218 139.23 119.101 160.41C119.127 160.714 118.873 160.943 118.568 160.943Z" fill="black"/>
<path d="M181.474 161.502H181.449C181.144 161.477 180.916 161.223 180.916 160.918C182.008 140.017 175.94 126.862 175.864 126.735C175.737 126.456 175.864 126.126 176.118 125.999C176.397 125.872 176.727 125.973 176.854 126.253C176.905 126.38 183.124 139.789 182.008 160.969C182.008 161.273 181.779 161.502 181.474 161.502Z" fill="black"/>
<path d="M121.08 490.121C121.055 490.121 121.029 490.121 121.029 490.121C120.725 490.096 120.496 489.816 120.521 489.512L142.734 272.277C143.267 267.02 146.618 262.475 151.466 260.418L152.38 260.037C152.659 259.91 152.989 260.037 153.116 260.341C153.243 260.621 153.116 260.951 152.812 261.078L151.898 261.459C147.43 263.363 144.333 267.554 143.825 272.404L121.638 489.613C121.613 489.918 121.359 490.121 121.08 490.121Z" fill="black"/>
<path d="M195.967 473.462H36.2675C35.9628 473.462 35.709 473.208 35.709 472.903C35.709 472.598 35.9628 472.344 36.2675 472.344H195.967C196.272 472.344 196.526 472.598 196.526 472.903C196.526 473.208 196.272 473.462 195.967 473.462Z" fill="black"/>
<path d="M221.309 160.664L200.011 180.955L202.194 185.297C202.194 185.297 180.896 195.964 170.716 210.134C160.511 224.28 160.841 232.965 172.671 223.645C172.671 223.645 167.492 231.086 169.294 233.854C171.097 236.622 176.935 230.171 176.935 230.171C176.935 230.171 174.955 235.86 178.306 236.343C181.86 236.85 183.206 230.578 186.709 227.606C186.709 227.606 183.51 234.844 186.709 235.378C189.907 235.911 195.137 226.387 200.011 222.857C204.885 219.327 233.19 210.769 234.154 195.71C235.068 180.625 221.309 160.664 221.309 160.664Z" fill="white"/>
<path d="M178.737 236.901C178.584 236.901 178.407 236.901 178.254 236.876C177.391 236.749 176.757 236.343 176.325 235.657C175.69 234.641 175.741 233.168 175.919 231.975C174.421 233.371 172.086 235.225 170.36 235.098C169.7 235.048 169.166 234.717 168.811 234.159C167.516 232.152 169.217 228.343 170.639 225.804C167.212 228.115 164.851 228.673 163.582 227.454C161.398 225.346 163.988 218.413 170.207 209.804C179.498 196.903 198.106 186.77 201.406 185.069L199.477 181.234C199.375 181.006 199.401 180.752 199.578 180.574L220.877 160.283C221.004 160.181 221.156 160.105 221.308 160.13C221.46 160.156 221.613 160.232 221.714 160.359C222.273 161.172 235.575 180.675 234.636 195.735C233.899 207.671 216.84 215.442 206.661 220.09C203.691 221.435 201.355 222.502 200.289 223.289C198.284 224.737 196.202 227.251 194.196 229.689C191.277 233.219 188.739 236.292 186.581 235.936C185.895 235.835 185.362 235.454 185.058 234.87C184.423 233.702 184.728 231.746 185.185 230.121C184.677 230.832 184.195 231.594 183.738 232.356C182.316 234.692 180.945 236.901 178.737 236.901ZM176.934 229.587C177.036 229.587 177.137 229.613 177.214 229.664C177.442 229.791 177.544 230.07 177.467 230.324C177.163 231.213 176.503 233.829 177.264 235.073C177.493 235.454 177.874 235.682 178.381 235.759C180.158 236.013 181.402 234.032 182.798 231.746C183.814 230.095 184.88 228.394 186.327 227.175C186.53 226.997 186.809 226.997 187.012 227.149C187.215 227.302 187.292 227.581 187.19 227.835C186.606 229.156 185.261 232.889 186.048 234.311C186.2 234.59 186.429 234.743 186.759 234.819C188.282 235.073 190.846 231.975 193.333 228.978C195.39 226.489 197.497 223.924 199.629 222.401C200.797 221.562 203.183 220.47 206.204 219.099C216.155 214.553 232.833 206.935 233.544 195.684C234.382 182.352 223.339 164.854 221.181 161.553L200.67 181.107L202.675 185.069C202.751 185.196 202.751 185.348 202.701 185.501C202.65 185.653 202.548 185.755 202.421 185.831C202.218 185.932 181.123 196.624 171.146 210.49C164.876 219.201 162.972 225.346 164.369 226.692C165.13 227.429 167.618 226.921 172.289 223.239C172.517 223.061 172.822 223.086 173.025 223.264C173.228 223.442 173.253 223.772 173.101 224C171.73 225.981 168.43 231.568 169.725 233.6C169.903 233.879 170.106 234.006 170.436 234.032C171.959 234.159 174.98 231.518 176.503 229.841C176.63 229.664 176.782 229.587 176.934 229.587Z" fill="black"/>
<path d="M202.19 185.856C201.987 185.856 201.81 185.755 201.708 185.577C201.556 185.323 201.632 184.967 201.911 184.815C202.114 184.688 206.937 181.844 211.126 182.148C211.431 182.174 211.659 182.428 211.634 182.758C211.608 183.063 211.354 183.291 211.024 183.266C207.191 182.986 202.52 185.754 202.47 185.78C202.393 185.831 202.292 185.856 202.19 185.856Z" fill="black"/>
<path d="M172.826 223.975C172.724 223.975 172.597 223.949 172.496 223.873C172.242 223.695 172.191 223.34 172.369 223.086C173.74 221.181 175.339 219.479 177.116 217.981C177.344 217.778 177.7 217.803 177.903 218.057C178.106 218.286 178.081 218.641 177.827 218.845C176.101 220.292 174.577 221.943 173.257 223.746C173.156 223.898 172.978 223.975 172.826 223.975Z" fill="black"/>
<path d="M177.083 230.578C176.982 230.578 176.88 230.552 176.804 230.501C176.55 230.349 176.449 229.994 176.601 229.74C177.921 227.53 180.333 224.406 182.744 222.4C182.973 222.197 183.328 222.248 183.531 222.476C183.734 222.705 183.683 223.061 183.455 223.264C181.119 225.194 178.809 228.19 177.54 230.298C177.464 230.476 177.286 230.578 177.083 230.578Z" fill="black"/>
<path d="M252.653 173.438H160.58C155.935 173.438 152.152 177.221 152.152 181.869V273.979C152.152 278.626 155.935 282.41 160.58 282.41H252.653C257.299 282.41 261.081 278.626 261.081 273.979V181.869C261.081 177.221 257.299 173.438 252.653 173.438Z" fill="white"/>
<path d="M252.654 282.969H195.41C195.105 282.969 194.851 282.715 194.851 282.41C194.851 282.106 195.105 281.852 195.41 281.852H252.654C256.995 281.852 260.523 278.322 260.523 273.979V181.869C260.523 177.526 256.995 173.996 252.654 173.996H184.189C183.885 173.996 183.631 173.742 183.631 173.438C183.631 173.133 183.885 172.879 184.189 172.879H252.654C257.604 172.879 261.64 176.917 261.64 181.869V273.979C261.64 278.931 257.604 282.969 252.654 282.969Z" fill="black"/>
<path d="M206.632 215.492C206.328 215.492 206.074 215.238 206.074 214.934V203.379H195.412C195.107 203.379 194.854 203.125 194.854 202.82V187.887C194.854 187.583 195.107 187.329 195.412 187.329C195.717 187.329 195.97 187.583 195.97 187.887V202.261H206.632C206.937 202.261 207.191 202.515 207.191 202.82V214.934C207.191 215.238 206.937 215.492 206.632 215.492Z" fill="black"/>
<path d="M218.58 215.493C218.275 215.493 218.021 215.239 218.021 214.934V195.151C218.021 194.846 218.275 194.592 218.58 194.592H248.129C248.433 194.592 248.687 194.846 248.687 195.151C248.687 195.456 248.433 195.71 248.129 195.71H219.138V214.934C219.138 215.239 218.885 215.493 218.58 215.493Z" fill="black"/>
<path d="M239.401 232.051H215.818C215.514 232.051 215.26 231.797 215.26 231.492C215.26 231.187 215.514 230.933 215.818 230.933H239.401C239.706 230.933 239.96 231.187 239.96 231.492C239.96 231.797 239.706 232.051 239.401 232.051Z" fill="black"/>
<path d="M240.975 268.138H213.635C213.33 268.138 213.076 267.884 213.076 267.579V238.019C213.076 237.714 213.33 237.46 213.635 237.46C213.939 237.46 214.193 237.714 214.193 238.019V267.02H241C241.305 267.02 241.559 267.274 241.559 267.579C241.533 267.884 241.279 268.138 240.975 268.138Z" fill="black"/>
<path d="M199.166 257.015H168.348C168.043 257.015 167.789 256.761 167.789 256.456C167.789 256.151 168.043 255.897 168.348 255.897H198.607V239.797C198.607 239.492 198.861 239.238 199.166 239.238C199.47 239.238 199.724 239.492 199.724 239.797V256.456C199.724 256.786 199.47 257.015 199.166 257.015Z" fill="black"/>
<path d="M196.781 234.032H178.935C178.63 234.032 178.376 233.778 178.376 233.473V222.553H165.252C164.947 222.553 164.693 222.299 164.693 221.994C164.693 221.69 164.947 221.436 165.252 221.436H178.935C179.239 221.436 179.493 221.69 179.493 221.994V232.914H196.781C197.085 232.914 197.339 233.168 197.339 233.473C197.339 233.778 197.085 234.032 196.781 234.032Z" fill="black"/>
<path d="M224.065 210.464H189.16V245.383H224.065V210.464Z" fill="#1D2332"/>
<path d="M195.403 192.764C198.319 192.764 200.683 190.399 200.683 187.482C200.683 184.564 198.319 182.199 195.403 182.199C192.487 182.199 190.123 184.564 190.123 187.482C190.123 190.399 192.487 192.764 195.403 192.764Z" fill="white"/>
<path d="M195.403 193.323C192.179 193.323 189.564 190.707 189.564 187.482C189.564 184.256 192.179 181.641 195.403 181.641C198.627 181.641 201.242 184.256 201.242 187.482C201.242 190.707 198.627 193.323 195.403 193.323ZM195.403 182.733C192.788 182.733 190.681 184.866 190.681 187.456C190.681 190.072 192.814 192.18 195.403 192.18C198.018 192.18 200.125 190.047 200.125 187.456C200.125 184.866 198.018 182.733 195.403 182.733Z" fill="black"/>
<path d="M246.28 200.433C249.196 200.433 251.56 198.068 251.56 195.151C251.56 192.234 249.196 189.869 246.28 189.869C243.364 189.869 241 192.234 241 195.151C241 198.068 243.364 200.433 246.28 200.433Z" fill="white"/>
<path d="M246.282 201.017C243.058 201.017 240.443 198.402 240.443 195.176C240.443 191.951 243.058 189.335 246.282 189.335C249.506 189.335 252.121 191.951 252.121 195.176C252.121 198.376 249.506 201.017 246.282 201.017ZM246.282 190.427C243.667 190.427 241.56 192.561 241.56 195.151C241.56 197.767 243.693 199.875 246.282 199.875C248.897 199.875 251.004 197.741 251.004 195.151C251.004 192.535 248.871 190.427 246.282 190.427Z" fill="black"/>
<path d="M239.401 236.926C242.317 236.926 244.681 234.561 244.681 231.644C244.681 228.727 242.317 226.362 239.401 226.362C236.485 226.362 234.121 228.727 234.121 231.644C234.121 234.561 236.485 236.926 239.401 236.926Z" fill="white"/>
<path d="M239.401 237.485C236.177 237.485 233.562 234.869 233.562 231.644C233.562 228.419 236.177 225.803 239.401 225.803C242.625 225.803 245.24 228.419 245.24 231.644C245.24 234.869 242.625 237.485 239.401 237.485ZM239.401 226.921C236.786 226.921 234.679 229.054 234.679 231.644C234.679 234.26 236.812 236.368 239.401 236.368C242.016 236.368 244.123 234.235 244.123 231.644C244.123 229.028 242.016 226.921 239.401 226.921Z" fill="black"/>
<path d="M240.975 272.861C243.892 272.861 246.256 270.496 246.256 267.579C246.256 264.662 243.892 262.297 240.975 262.297C238.059 262.297 235.695 264.662 235.695 267.579C235.695 270.496 238.059 272.861 240.975 272.861Z" fill="white"/>
<path d="M240.975 273.42C237.751 273.42 235.137 270.805 235.137 267.579C235.137 264.354 237.751 261.738 240.975 261.738C244.199 261.738 246.814 264.354 246.814 267.579C246.839 270.805 244.199 273.42 240.975 273.42ZM240.975 262.83C238.361 262.83 236.254 264.964 236.254 267.554C236.254 270.17 238.386 272.277 240.975 272.277C243.59 272.277 245.697 270.144 245.697 267.554C245.722 264.964 243.59 262.83 240.975 262.83Z" fill="black"/>
<path d="M168.352 261.738C171.269 261.738 173.633 259.373 173.633 256.456C173.633 253.539 171.269 251.174 168.352 251.174C165.436 251.174 163.072 253.539 163.072 256.456C163.072 259.373 165.436 261.738 168.352 261.738Z" fill="white"/>
<path d="M168.352 262.323C165.128 262.323 162.514 259.707 162.514 256.482C162.514 253.256 165.128 250.641 168.352 250.641C171.576 250.641 174.191 253.256 174.191 256.482C174.191 259.707 171.576 262.323 168.352 262.323ZM168.352 251.733C165.738 251.733 163.631 253.866 163.631 256.456C163.631 259.047 165.763 261.18 168.352 261.18C170.967 261.18 173.074 259.047 173.074 256.456C173.074 253.866 170.967 251.733 168.352 251.733Z" fill="black"/>
<path d="M165.253 227.251C168.169 227.251 170.533 224.886 170.533 221.968C170.533 219.051 168.169 216.686 165.253 216.686C162.337 216.686 159.973 219.051 159.973 221.968C159.973 224.886 162.337 227.251 165.253 227.251Z" fill="white"/>
<path d="M165.253 227.835C162.029 227.835 159.414 225.219 159.414 221.994C159.414 218.769 162.029 216.153 165.253 216.153C168.477 216.153 171.091 218.769 171.091 221.994C171.117 225.219 168.477 227.835 165.253 227.835ZM165.253 217.245C162.638 217.245 160.531 219.378 160.531 221.968C160.531 224.559 162.663 226.692 165.253 226.692C167.867 226.692 169.974 224.559 169.974 221.968C169.974 219.378 167.867 217.245 165.253 217.245Z" fill="black"/>
<path d="M65.2317 160.664L101.127 175.85L96.2782 191.011C96.2782 191.011 122.628 178.466 144.13 177.298C165.631 176.13 169.744 182.351 172.815 188.573C175.887 194.795 173.399 197.513 169.693 193.576C169.693 193.576 173.044 203.176 164.413 198.528C164.413 198.528 166.697 204.395 164.413 206.198C162.128 208.001 156.619 202.516 156.619 202.516C156.619 202.516 159.996 209.347 157.305 211.328C154.614 213.283 148.293 208.001 148.293 208.001C148.293 208.001 90.5157 247.923 68.4049 235.835C52.2598 227.022 44.8726 200.459 65.2317 160.664Z" fill="white"/>
<path d="M155.82 212.268C154.754 212.268 153.459 211.861 151.911 211.049C151.631 210.896 151.53 210.566 151.682 210.287C151.834 210.008 152.164 209.906 152.444 210.058C153.916 210.846 155.896 211.607 156.988 210.82C158.892 209.423 157.013 204.497 156.125 202.719C155.998 202.465 156.074 202.186 156.302 202.008C156.531 201.856 156.835 201.881 157.013 202.059C159.018 204.04 162.674 206.782 164.045 205.69C165.644 204.42 164.451 200.205 163.867 198.681C163.791 198.453 163.842 198.224 164.019 198.072C164.197 197.919 164.451 197.894 164.654 197.995C166.863 199.189 168.462 199.494 169.173 198.884C170.29 197.919 169.503 194.745 169.147 193.704C169.071 193.45 169.147 193.17 169.376 193.043C169.604 192.916 169.883 192.942 170.061 193.145C171.508 194.694 172.625 195.024 173.133 194.694C173.742 194.262 174.047 192.332 172.295 188.777C169.579 183.291 166.304 178.669 153.484 177.806C153.18 177.78 152.951 177.527 152.977 177.222C153.002 176.917 153.281 176.688 153.561 176.714C166.939 177.628 170.543 182.707 173.285 188.294C175.011 191.824 175.214 194.618 173.767 195.634C172.955 196.192 171.864 196.015 170.67 195.176C170.95 196.7 171.077 198.732 169.883 199.748C168.919 200.56 167.421 200.51 165.314 199.595C165.898 201.551 166.609 205.106 164.705 206.604C162.953 207.976 159.983 206.097 158.028 204.522C158.841 206.858 159.602 210.287 157.597 211.734C157.14 212.09 156.531 212.268 155.82 212.268Z" fill="black"/>
<path d="M78.7928 238.679C74.5788 238.679 70.9995 237.892 68.1563 236.343C51.7319 227.378 44.294 200.408 64.7546 160.41C64.8816 160.156 65.2116 160.029 65.4654 160.156L101.36 175.342C101.614 175.444 101.767 175.749 101.665 176.028L97.1973 189.945C100.066 188.65 108.011 185.196 117.582 182.148C117.886 182.047 118.191 182.225 118.293 182.504C118.394 182.809 118.216 183.113 117.937 183.215C106.006 186.999 96.6134 191.443 96.5372 191.494C96.3342 191.596 96.1057 191.545 95.928 191.418C95.7503 191.265 95.6995 191.037 95.7757 190.834L100.472 176.155L65.5162 161.375C45.7155 200.459 52.8235 226.667 68.7148 235.352C72.0403 237.181 76.4827 237.866 81.8644 237.435C82.1691 237.409 82.4483 237.638 82.4737 237.943C82.4991 238.247 82.2706 238.527 81.966 238.552C80.849 238.628 79.7828 238.679 78.7928 238.679Z" fill="black"/>
<path d="M71.0733 204.09C70.8956 204.09 70.7179 204.013 70.6164 203.836C70.4387 203.582 70.5148 203.226 70.7687 203.048C75.795 199.722 95.2149 190.833 96.0526 190.478C96.3319 190.351 96.6619 190.478 96.7888 190.757C96.9157 191.036 96.7888 191.366 96.5095 191.493C96.3065 191.595 76.3281 200.687 71.3779 203.988C71.3018 204.064 71.2002 204.09 71.0733 204.09Z" fill="black"/>
<path d="M169.672 194.084C169.469 194.084 169.266 193.983 169.164 193.78C169.139 193.729 166.27 188.32 162.056 185.755C161.802 185.602 161.701 185.247 161.878 184.993C162.031 184.739 162.386 184.637 162.64 184.815C167.108 187.558 170.027 193.043 170.154 193.272C170.306 193.551 170.18 193.881 169.926 194.034C169.85 194.084 169.773 194.084 169.672 194.084Z" fill="black"/>
<path d="M164.236 199.188C164.033 199.188 163.855 199.087 163.753 198.909C161.748 195.303 158.879 192.23 155.427 189.995C155.173 189.817 155.097 189.487 155.275 189.233C155.452 188.979 155.782 188.903 156.036 189.081C159.641 191.417 162.636 194.642 164.718 198.401C164.87 198.68 164.769 199.01 164.489 199.163C164.413 199.163 164.312 199.188 164.236 199.188Z" fill="black"/>
<path d="M157.011 203.328C156.833 203.328 156.656 203.227 156.529 203.074C154.65 200.154 152.061 197.69 149.065 195.989C148.786 195.837 148.71 195.506 148.862 195.227C149.015 194.948 149.345 194.872 149.624 195.024C152.797 196.827 155.513 199.417 157.493 202.49C157.671 202.744 157.595 203.1 157.316 203.252C157.214 203.303 157.113 203.328 157.011 203.328Z" fill="black"/>
<path d="M174.981 64.3886C185.145 64.3886 193.385 55.6564 193.385 44.8847C193.385 34.113 185.145 25.3809 174.981 25.3809C164.816 25.3809 156.576 34.113 156.576 44.8847C156.576 55.6564 164.816 64.3886 174.981 64.3886Z" fill="black"/>
<path d="M76.3315 91.6131C88.2906 91.6131 97.9853 81.3346 97.9853 68.6554C97.9853 55.9762 88.2906 45.6978 76.3315 45.6978C64.3725 45.6978 54.6777 55.9762 54.6777 68.6554C54.6777 81.3346 64.3725 91.6131 76.3315 91.6131Z" fill="black"/>
<path d="M129.568 50.0906C129.568 50.0906 100.679 47.3733 92.302 71.5245C83.9502 95.6504 106.949 111.142 109.97 112.742C112.966 114.342 173.18 94.2536 173.18 94.2536C173.18 94.2536 180.44 70.2547 168.763 55.2713C157.086 40.3133 139.214 39.6784 129.568 50.0906Z" fill="black"/>
<path d="M136.195 80.7434C136.195 80.7434 131.727 100.933 113.475 106.85C113.475 106.85 109.109 92.781 102.077 99.7648C95.0452 106.749 102.077 122.011 116.344 117.719C116.344 117.719 130.153 138.011 151.096 132.144C172.039 126.278 176.076 109.796 172.268 99.7648C172.268 99.7648 180.036 98.2918 178.106 88.5145C176.177 78.7372 171.405 80.3879 168.333 83.0036C168.333 83.0036 161.834 80.718 159.702 74.6739C159.702 74.6485 153.026 85.1623 136.195 80.7434Z" fill="white"/>
<path d="M143.607 133.744C128.198 133.744 117.815 120.615 116.14 118.354C108.346 120.538 102.965 116.983 100.528 112.894C97.8114 108.298 98.2684 102.736 101.695 99.3585C103.472 97.6062 105.249 96.9459 107.001 97.3776C110.809 98.3172 113.17 104.26 113.83 106.114C131.117 100.146 135.61 80.7942 135.636 80.5911C135.661 80.4387 135.763 80.3117 135.89 80.2355C136.017 80.1594 136.169 80.134 136.321 80.1848C152.568 84.4512 159.168 74.4453 159.219 74.3438C159.346 74.166 159.549 74.0644 159.752 74.0898C159.955 74.1152 160.133 74.2676 160.209 74.4707C161.986 79.4991 166.961 81.8355 168.205 82.3434C169.728 81.099 171.912 79.9054 174.044 80.6419C176.202 81.4037 177.75 83.9941 178.613 88.3875C179.299 91.816 178.893 94.6603 177.42 96.8189C175.999 98.9267 173.968 99.7902 172.952 100.12C174.831 105.58 174.298 112.056 171.505 117.567C168.992 122.57 163.407 129.249 151.197 132.652C148.582 133.439 146.018 133.744 143.607 133.744ZM116.368 117.161C116.546 117.161 116.724 117.262 116.825 117.415C116.952 117.618 130.66 137.3 150.969 131.636C162.773 128.335 168.155 121.91 170.566 117.11C173.308 111.675 173.765 105.276 171.759 99.9933C171.709 99.841 171.708 99.6632 171.785 99.5108C171.861 99.3585 172.013 99.2569 172.165 99.2315C172.191 99.2315 174.907 98.6728 176.557 96.2094C177.826 94.3047 178.182 91.7652 177.547 88.6415C176.786 84.7306 175.44 82.3434 173.714 81.7339C171.861 81.099 169.779 82.5212 168.713 83.4354C168.561 83.5624 168.358 83.6132 168.155 83.537C167.901 83.4354 162.011 81.3276 159.549 75.7913C157.518 78.2039 150.41 84.8575 136.575 81.4291C135.661 84.756 130.254 102 113.627 107.383C113.474 107.434 113.322 107.409 113.195 107.358C113.068 107.282 112.967 107.18 112.916 107.028C112.89 106.952 110.53 99.46 106.696 98.495C105.351 98.1649 103.904 98.7236 102.432 100.171C99.3853 103.193 98.9792 108.196 101.442 112.336C103.701 116.145 108.753 119.421 116.165 117.186C116.241 117.161 116.317 117.161 116.368 117.161Z" fill="black"/>
<path d="M111.061 113.605C110.858 113.605 110.655 113.479 110.554 113.275C109.817 111.65 108.015 110.583 106.264 110.761C105.959 110.787 105.68 110.558 105.654 110.253C105.629 109.949 105.857 109.669 106.162 109.644C108.396 109.441 110.655 110.787 111.569 112.818C111.696 113.098 111.569 113.428 111.29 113.555C111.214 113.605 111.138 113.605 111.061 113.605Z" fill="black"/>
<path d="M172.364 100.197C172.136 100.197 171.907 100.044 171.831 99.8157C170.334 95.5492 169.217 91.105 168.506 86.6353C168.455 86.3306 168.658 86.0512 168.963 86.0005C169.267 85.9497 169.547 86.1528 169.597 86.4576C170.283 90.8764 171.374 95.2445 172.872 99.4347C172.974 99.7141 172.821 100.044 172.542 100.146C172.491 100.171 172.415 100.197 172.364 100.197Z" fill="black"/>
<path d="M173.275 94.9907C173.022 94.9907 172.793 94.813 172.717 94.559C172.235 92.375 173.072 89.937 174.799 88.4894C175.027 88.2863 175.382 88.3117 175.586 88.5656C175.789 88.7942 175.763 89.1497 175.509 89.3529C174.113 90.5465 173.428 92.5274 173.809 94.3304C173.885 94.6352 173.682 94.9399 173.377 94.9907C173.352 94.9907 173.301 94.9907 173.275 94.9907Z" fill="black"/>
</svg>
