<svg width="37" height="28" viewBox="0 0 37 28" fill="none" xmlns="http://www.w3.org/2000/svg">
<path d="M25.166 0.666504C25.608 0.666504 26.032 0.842099 26.3445 1.15466C26.6571 1.46722 26.8327 1.89114 26.8327 2.33317V9.33317L35.521 3.24984C35.646 3.16226 35.7925 3.11067 35.9448 3.10067C36.097 3.09068 36.2491 3.12267 36.3844 3.19316C36.5197 3.26365 36.633 3.36994 36.7121 3.50042C36.7911 3.63091 36.8329 3.7806 36.8327 3.93317V24.0665C36.8329 24.2191 36.7911 24.3688 36.7121 24.4993C36.633 24.6297 36.5197 24.736 36.3844 24.8065C36.2491 24.877 36.097 24.909 35.9448 24.899C35.7925 24.889 35.646 24.8374 35.521 24.7498L26.8327 18.6665V25.6665C26.8327 26.1085 26.6571 26.5325 26.3445 26.845C26.032 27.1576 25.608 27.3332 25.166 27.3332H1.83268C1.39065 27.3332 0.966732 27.1576 0.654171 26.845C0.34161 26.5325 0.166016 26.1085 0.166016 25.6665V2.33317C0.166016 1.89114 0.34161 1.46722 0.654171 1.15466C0.966732 0.842099 1.39065 0.666504 1.83268 0.666504H25.166ZM15.166 7.33317H11.8327V13.9998H6.83268L13.4994 20.6665L20.166 13.9998H15.166V7.33317Z" fill="white"/>
</svg>
