<svg width="40" height="40" viewBox="0 0 40 40" fill="none" xmlns="http://www.w3.org/2000/svg">
<path fill-rule="evenodd" clip-rule="evenodd" d="M2.9812 2.81178C0.197266 5.62356 0.197266 10.149 0.197266 19.2V20.8C0.197266 29.851 0.197266 34.3764 2.9812 37.1882C5.76515 40 10.2458 40 19.2072 40H20.7913C29.7527 40 34.2333 40 37.0173 37.1882C39.8012 34.3764 39.8012 29.851 39.8012 20.8V19.2C39.8012 10.149 39.8012 5.62356 37.0173 2.81178C34.2333 0 29.7527 0 20.7913 0H19.2072C10.2458 0 5.76515 0 2.9812 2.81178ZM6.88086 12.167C7.09539 22.567 12.2439 28.817 21.2703 28.817H21.7819V22.867C25.0988 23.2003 27.6068 25.6503 28.6134 28.817H33.3C32.0129 24.0836 28.6299 21.467 26.5177 20.467C28.6299 19.2336 31.6002 16.2337 32.3098 12.167H28.0522C27.1281 15.467 24.3892 18.467 21.7819 18.7503V12.167H17.5243V23.7003C14.8841 23.0336 11.5508 19.8003 11.4023 12.167H6.88086Z" fill="white"/>
</svg>
