<svg width="206" height="206" viewBox="0 0 206 206" fill="none" xmlns="http://www.w3.org/2000/svg">
<path d="M63.5157 42.7213C54.8332 38.3775 45.3066 37.9753 36.4634 42.0778C28.7859 45.6171 22.475 52.173 19.7818 60.217C16.9681 68.5426 17.8524 78.1552 22.274 85.7165C26.8162 93.479 34.9359 98.7881 43.6184 100.759C49.0851 102.006 54.9136 102.006 60.2999 100.276C65.2039 98.7076 69.5049 95.4498 73.002 91.7093C73.7256 90.9452 72.5599 89.819 71.8765 90.5832C68.8618 93.8008 65.2441 96.6966 61.1039 98.3054C56.7626 99.9947 51.9793 100.357 47.3969 99.7936C38.835 98.7478 30.3937 94.2834 25.2888 87.2047C20.5456 80.6086 18.8975 71.8808 20.6662 63.9575C22.3946 56.1548 27.4594 49.4782 34.2928 45.3758C43.136 40.0667 53.3459 39.8656 62.5509 44.4105C63.6363 44.9736 64.6412 43.2844 63.5157 42.7213Z" fill="#292C33"/>
<path d="M120.394 122.88C113.239 126.138 110.264 134.624 112.314 142.025C114.445 149.707 122.042 154.654 129.92 154.292C137.517 153.93 144.391 147.696 145.597 140.215C146.883 132.131 142.14 124.288 134.422 121.633C125.378 118.536 114.646 122.92 112.354 132.734C112.113 133.739 113.681 134.182 113.922 133.176C115.771 125.213 123.851 121.15 131.528 122.598C138.764 123.966 144.19 130.16 144.029 137.641C143.909 144.398 138.804 150.511 132.252 152.08C125.78 153.608 118.022 150.189 115.088 144.156C111.792 137.359 113.761 127.425 120.836 123.725C121.318 123.363 120.876 122.639 120.394 122.88Z" fill="#292C33"/>
<path d="M45.3066 143.191C51.8587 143.794 58.5313 143.875 65.0833 143.754C68.3794 143.714 71.6354 143.312 74.2883 145.685C77.0619 148.178 78.1472 151.999 78.71 155.579C79.8757 163.18 78.1874 171.224 80.358 178.665C81.4031 182.245 83.1718 185.744 85.8649 188.398C88.1963 190.651 91.6532 192.782 94.9896 192.34C95.5121 192.26 95.7533 191.455 95.1101 191.334C91.3317 190.409 88.2767 189.163 85.664 186.106C83.2522 183.25 81.7247 179.47 81.0816 175.81C79.7149 168.047 81.4433 160.003 79.3531 152.321C78.5492 149.385 77.1423 146.409 74.7305 144.438C71.9167 142.145 68.7412 142.387 65.3245 142.507C62.2294 142.588 59.1342 142.507 56.0391 142.507C52.4214 142.507 48.8037 142.548 45.186 142.869C45.0253 142.829 45.0253 143.191 45.3066 143.191Z" fill="#292C33"/>
<path d="M130.041 153.608C129.679 156.946 129.438 160.285 129.277 163.623C129.076 167.162 129.197 170.742 128.835 174.241C128.393 178.142 127.026 182.164 124.655 185.301C122.042 188.801 118.746 190.329 114.605 191.294C114.003 191.455 114.203 192.26 114.726 192.3C118.384 192.702 122.082 190.289 124.454 187.715C127.187 184.779 128.956 180.837 129.8 176.936C130.604 173.195 130.403 169.334 130.563 165.553C130.764 161.531 131.006 157.55 131.408 153.568C131.528 152.723 130.161 152.723 130.041 153.608Z" fill="#292C33"/>
<path d="M161.676 142.427C155.928 142.025 150.099 142.306 144.351 142.467C143.507 142.507 143.507 143.794 144.351 143.794C150.139 143.633 155.928 143.553 161.676 142.829C161.917 142.789 161.917 142.427 161.676 142.427Z" fill="#292C33"/>
<path d="M21.9926 149.827C29.1878 152.361 36.4634 145.122 40.3223 139.893C44.9851 133.659 47.5978 125.695 47.4371 117.893C47.3969 116.887 45.8694 116.887 45.8694 117.893C45.8292 124.931 43.94 131.608 40.1213 137.56C36.383 143.352 29.7104 150.471 22.1132 149.385C21.8721 149.385 21.7515 149.747 21.9926 149.827Z" fill="#292C33"/>
<path d="M186.316 149.425C178.759 150.511 172.046 143.392 168.308 137.6C164.489 131.688 162.6 124.971 162.56 117.933C162.56 116.927 161.032 116.927 160.992 117.933C160.831 125.736 163.444 133.659 168.107 139.933C172.006 145.122 179.241 152.361 186.437 149.868C186.678 149.747 186.557 149.385 186.316 149.425Z" fill="#292C33"/>
<path d="M97.4817 76.7877C97.2807 80.0455 97.1602 83.3838 97.2004 86.6416C97.2004 87.4058 98.3661 87.4058 98.4062 86.6416C98.567 83.424 98.6072 79.8846 98.0043 76.7072C97.9641 76.4257 97.5219 76.5464 97.4817 76.7877Z" fill="#292C33"/>
<path d="M103.069 74.9376C102.747 77.7932 102.948 80.7292 102.908 83.5849C102.908 84.9121 102.386 87.084 103.109 88.2504C103.31 88.5722 103.793 88.5722 103.994 88.2504C104.798 87.084 104.275 84.6708 104.235 83.3436C104.195 80.5684 104.355 77.5519 103.712 74.8169C103.672 74.4549 103.109 74.5756 103.069 74.9376Z" fill="#292C33"/>
<path d="M109.259 76.7073C108.978 78.4367 108.938 80.2064 108.817 81.9761C108.737 83.1827 108.053 85.9579 108.737 87.0438C108.938 87.3656 109.38 87.3656 109.581 87.0438C110.304 86.0383 109.822 83.3436 109.822 82.1772C109.822 80.3673 109.902 78.5574 109.742 76.7877C109.742 76.5062 109.3 76.3855 109.259 76.7073Z" fill="#292C33"/>
<path d="M103.833 29.4889C97.4817 32.1836 93.6631 38.3775 90.0856 43.9681C85.463 51.1675 80.5992 58.568 76.9413 66.3305C76.6197 66.974 77.5443 67.5371 77.9462 66.8935C82.207 60.1366 85.9051 52.9774 90.1258 46.1802C93.9042 40.107 97.6425 33.6718 104.034 29.9313C104.275 29.8106 104.114 29.4084 103.833 29.4889Z" fill="#292C33"/>
<path d="M122.484 32.063C113.078 42.6408 104.998 54.9884 99.6523 68.1404C99.371 68.8241 100.537 69.3067 100.818 68.623C103.752 62.228 106.727 55.9939 110.385 50.0011C114.123 43.8474 118.304 38.0155 122.846 32.4249C123.047 32.1836 122.725 31.8216 122.484 32.063Z" fill="#292C33"/>
<path d="M152.229 3.10449C153.877 4.63285 153.717 8.49398 151.827 9.86146C150.019 11.1485 147.044 10.0626 146.361 7.97112C145.557 5.47748 148.371 2.66207 150.863 3.50669C152.028 3.90889 152.913 5.07527 153.234 6.24166C153.556 7.36782 153.074 8.41354 153.315 9.5397C153.476 10.3441 154.641 10.867 155.284 10.3441C159.143 7.40804 154.882 1.05327 151.265 0.168424C146.441 -0.997958 141.738 4.10999 143.105 8.81574C144.351 13.0791 150.059 15.0901 153.636 12.516C157.495 9.78102 156.611 4.47197 152.873 2.25987C152.39 2.01855 151.827 2.70229 152.229 3.10449Z" fill="#292C33"/>
<path d="M170.318 25.2255C171.966 26.7539 171.805 30.615 169.916 31.9825C168.107 33.2696 165.132 32.1836 164.449 30.0922C163.645 27.5985 166.459 24.7831 168.951 25.6277C170.117 26.0299 171.001 27.1963 171.323 28.3627C171.644 29.4889 171.162 30.5346 171.403 31.6607C171.564 32.4651 172.73 32.988 173.373 32.4651C177.232 29.5291 172.971 23.1743 169.353 22.2895C164.53 21.1231 159.827 26.231 161.193 30.9368C162.439 35.2001 168.147 37.2111 171.725 34.637C175.584 31.9021 174.699 26.593 170.961 24.3809C170.479 24.1396 169.916 24.8233 170.318 25.2255Z" fill="#292C33"/>
<path d="M147.124 78.8791C148.773 80.4075 148.612 84.2686 146.722 85.6361C144.914 86.9231 141.939 85.8372 141.256 83.7458C140.452 81.2521 143.266 78.4367 145.758 79.2813C146.923 79.6835 147.808 80.8499 148.129 82.0163C148.451 83.1425 147.969 84.1882 148.21 85.3143C148.371 86.1187 149.536 86.6416 150.179 86.1188C154.038 83.1827 149.777 76.8279 146.16 75.9431C141.336 74.7767 136.633 79.8846 138 84.5904C139.246 88.8537 144.954 90.8647 148.531 88.2906C152.39 85.5557 151.506 80.2466 147.768 78.0345C147.245 77.753 146.682 78.4769 147.124 78.8791Z" fill="#292C33"/>
<path d="M162.279 58.4875C163.927 60.0159 163.766 63.877 161.877 65.2445C160.068 66.5316 157.093 65.4456 156.41 63.3542C155.606 60.8605 158.42 58.0451 160.912 58.8897C162.078 59.2919 162.962 60.4583 163.283 61.6247C163.605 62.7509 163.123 63.7966 163.364 64.9228C163.525 65.7272 164.69 66.25 165.333 65.7272C169.192 62.7911 164.932 56.4363 161.314 55.5515C156.49 54.3851 151.787 59.493 153.154 64.1988C154.4 68.4621 160.108 70.4731 163.685 67.899C167.544 65.1641 166.66 59.855 162.922 57.6429C162.399 57.4016 161.836 58.0853 162.279 58.4875Z" fill="#292C33"/>
<path d="M155.887 8.61464C160.912 9.62014 166.137 9.41904 171.242 9.62014C174.177 9.7408 177.111 9.5397 179.322 11.7518C181.171 13.5617 182.819 15.6129 184.427 17.6239C187.401 21.284 190.135 25.3462 193.672 28.4834C196.365 30.8563 199.782 30.5346 202.998 30.5748C202.998 29.4889 202.998 28.3627 202.998 27.2768C202.596 27.2768 202.033 27.2768 201.51 27.2768C199.38 27.2768 199.42 30.5346 201.551 30.5748C202.475 30.5748 203.4 30.5748 204.284 30.5748C206.414 30.5748 206.334 27.2768 204.204 27.2768C203.279 27.2768 202.596 27.2768 201.39 27.2768C201.39 28.3627 201.39 29.4889 201.39 30.5748C202.194 30.5748 202.515 30.5748 202.998 30.5748C205.128 30.5748 205.168 27.2768 203.038 27.2768C202.113 27.2768 201.229 27.2768 200.304 27.2768C198.737 27.2768 197.25 27.2365 195.963 26.1506C194.958 25.3462 194.114 24.2603 193.27 23.295C190.215 19.8763 187.522 16.176 184.507 12.7573C182.94 10.9876 181.372 8.89618 179.241 7.77002C177.031 6.56342 174.257 6.7243 171.845 6.60364C166.62 6.40254 161.233 6.40254 156.048 6.88518C155.204 6.96562 154.842 8.37332 155.887 8.61464Z" fill="#292C33"/>
<path d="M150.099 83.3838C153.033 83.6251 155.927 83.5044 158.862 83.3436C161.796 83.1827 163.806 82.4185 165.896 80.2868C168.388 77.7128 170.72 75.018 173.091 72.3232C175.423 69.6687 177.754 66.974 180.086 64.3597C181.171 63.1129 182.256 61.866 183.422 60.6997C184.789 59.3322 186.115 59.0104 188.045 58.9702C193.471 58.8897 198.898 58.9702 204.324 58.9702C206.455 58.9702 206.455 55.6721 204.324 55.6721C198.777 55.6721 193.23 55.5113 187.723 55.6721C184.628 55.7526 182.618 56.7581 180.568 58.9702C178.156 61.5443 175.905 64.1988 173.614 66.8533C171.323 69.5481 169.032 72.2428 166.7 74.8973C165.615 76.1442 164.57 77.391 163.404 78.5574C162.078 79.8846 160.751 80.3673 158.942 80.5684C155.405 80.9706 153.475 80.9706 149.978 81.6543C148.813 81.8554 149.174 83.3033 150.099 83.3838Z" fill="#292C33"/>
<path d="M174.016 30.6955C183.382 30.7357 192.788 30.7357 202.154 30.7357C204.284 30.7357 204.284 27.4376 202.154 27.4376C192.788 27.4376 183.382 27.3974 174.016 27.4779C171.926 27.4779 171.926 30.6955 174.016 30.6955Z" fill="#292C33"/>
<path d="M144.029 29.9313C146.321 30.4944 148.732 30.4542 151.104 30.5748C155.003 30.7357 158.902 30.6955 162.801 30.7357C164.891 30.7759 164.891 27.4779 162.801 27.4779C158.902 27.5181 155.003 27.4779 151.104 27.6387C148.773 27.7192 146.321 27.7192 144.029 28.242C143.185 28.4431 143.185 29.7302 144.029 29.9313Z" fill="#292C33"/>
<path d="M190.858 72.5244C192.506 74.0527 192.346 77.9138 190.456 79.2813C188.647 80.5684 185.673 79.4824 184.99 77.391C184.186 74.8973 186.999 72.0819 189.492 72.9266C190.657 73.3288 191.542 74.4951 191.863 75.6615C192.185 76.7877 191.702 77.8334 191.944 78.9596C192.104 79.764 193.27 80.2868 193.913 79.764C197.772 76.8279 193.511 70.4731 189.894 69.5883C185.07 68.4219 180.367 73.5299 181.734 78.2356C182.98 82.4989 188.688 84.5099 192.265 81.9359C196.124 79.2009 195.24 73.8918 191.501 71.6797C190.979 71.4384 190.416 72.1222 190.858 72.5244Z" fill="#292C33"/>
<path d="M192.667 77.5117C194.355 78.5172 196.606 78.316 198.536 78.3563C200.465 78.4367 202.435 78.3965 204.364 78.3965C206.495 78.3965 206.495 75.0984 204.364 75.0984C202.435 75.0984 200.465 75.0582 198.536 75.1387C196.606 75.1789 194.355 74.9778 192.667 75.9833C192.104 76.305 192.104 77.1497 192.667 77.5117Z" fill="#292C33"/>
<path d="M164.087 63.7564C165.695 65.1239 168.951 64.6814 170.881 64.7217C173.333 64.8021 175.785 64.7619 178.237 64.7619C180.367 64.7619 180.367 61.4638 178.237 61.4638C175.785 61.4638 173.333 61.4236 170.881 61.5041C168.951 61.5443 165.695 61.1421 164.087 62.4693C163.726 62.7911 163.726 63.4346 164.087 63.7564Z" fill="#292C33"/>
<path d="M148.973 44.8529C164.489 44.8932 179.965 44.8932 195.481 44.8932C198.335 44.8932 201.189 44.8932 204.043 44.8932C206.173 44.8932 206.173 41.5951 204.043 41.5951C189.049 41.5951 174.056 41.5951 159.063 41.5951C155.686 41.5951 152.35 41.5951 148.973 41.5951C146.923 41.6353 146.923 44.8529 148.973 44.8529Z" fill="#292C33"/>
<path d="M61.948 52.8165C56.1999 48.9152 49.2057 47.5477 42.5733 49.9207C36.6242 52.0523 31.5594 56.6374 29.3084 62.59C27.0574 68.5023 27.6604 75.5811 30.9163 81.0108C34.333 86.7623 40.6438 90.5027 47.1557 91.5082C55.2352 92.7148 62.4706 89.457 67.2941 82.9011C68.5402 81.2521 65.7265 79.6433 64.5206 81.2923C60.9029 86.1992 55.4362 88.9342 49.3263 88.532C43.6988 88.1298 37.9105 85.2741 34.6546 80.5684C28.3035 71.3982 32.2428 58.8495 42.1713 54.2644C48.2008 51.4893 54.5518 52.6154 60.0186 56.1548C62.0686 57.5625 63.998 54.184 61.948 52.8165Z" fill="#292C33"/>
<path d="M63.7166 34.7979C63.1539 32.5456 62.3902 30.3737 61.6666 28.1616C60.9431 25.9495 60.5009 23.0939 59.0538 21.2035C57.5264 19.273 54.793 19.4338 52.542 19.273C50.9743 19.1523 49.3263 18.9914 47.7988 19.0719C45.0253 19.2327 43.8998 22.4906 42.7743 24.582C41.4478 27.0354 40.1213 29.4889 38.7546 31.9423C37.7095 33.8326 40.6036 35.5621 41.6487 33.6315C42.9752 31.2183 44.3017 28.8453 45.6282 26.4321C46.191 25.4266 46.6733 24.3809 47.2763 23.4156C47.7586 22.6515 47.7988 22.6112 48.6429 22.4906C49.3263 22.4101 50.1302 22.5308 50.8538 22.5308C52.6626 22.6112 56.0793 22.209 56.8832 24.1396C57.3656 25.3462 57.7676 26.593 58.2097 27.8398C59.1342 30.4139 59.898 32.988 60.9431 35.4817C61.6264 37.2513 64.199 36.6883 63.7166 34.7979Z" fill="#292C33"/>
<path d="M14.3955 54.908C11.5014 55.5917 8.68759 56.5972 5.83364 57.4418C4.54735 57.844 3.22086 58.1256 2.13556 59.0104C-0.0350543 60.7399 0.246321 64.4401 0.125732 66.974C0.0453387 68.623 -0.31643 70.9156 0.72868 72.283C1.49241 73.2885 2.93949 73.9321 4.0248 74.5756C6.55718 76.1442 9.08956 77.6725 11.5817 79.2411C13.4308 80.3673 15.119 77.4714 13.27 76.3453C11.1798 75.0582 9.08956 73.731 6.99934 72.4439C6.11501 71.9211 5.23069 71.3982 4.38656 70.8351C3.62283 70.3122 3.54244 70.3525 3.46204 69.4676C3.42185 68.8241 3.50224 68.1404 3.50224 67.4968C3.58263 65.7272 3.14047 62.0671 4.98951 61.2627C5.95423 60.8605 6.99934 60.579 8.00425 60.217C10.3758 59.4126 12.7876 58.6886 15.1592 57.7636C16.8475 57.0396 16.2445 54.4655 14.3955 54.908Z" fill="#292C33"/>
<path d="M35.0565 34.637C33.0869 33.4304 31.0369 32.4249 28.9868 31.3792C26.8564 30.2933 24.5652 28.5638 22.1936 28.1214C19.7014 27.679 17.9328 29.6095 16.2043 31.0977C14.9984 32.1434 13.7524 33.1891 12.6269 34.3555C10.5366 36.4872 12.1043 39.745 12.8278 42.2386C13.5916 44.9736 14.3955 47.7086 15.1592 50.4435C15.722 52.535 18.9779 51.6501 18.4152 49.5587C17.6514 46.8639 16.9279 44.1692 16.2043 41.5147C15.8828 40.3483 15.5612 39.2221 15.2396 38.0557C14.9985 37.1709 14.9984 37.0502 15.521 36.4469C15.9632 35.8839 16.6063 35.4012 17.1691 34.8784C18.2544 33.8729 19.5809 32.3043 20.9073 31.6608C21.5505 31.339 22.0328 31.5401 22.6358 31.7814C23.8417 32.3043 25.0476 32.9478 26.2133 33.5109C28.7055 34.7175 31.1173 36.0447 33.6496 37.1307C35.2575 37.8546 36.7046 35.6425 35.0565 34.637Z" fill="#292C33"/>
<path d="M13.5916 83.5044C11.9837 86.2394 10.6974 89.095 9.25035 91.9104C8.68759 92.9964 8.00425 94.0823 7.64248 95.2487C6.63757 98.5065 9.25035 100.759 11.22 102.971C12.3857 104.298 13.9131 106.43 15.722 106.711C17.1289 106.913 18.8171 106.229 20.1838 105.867C23.2387 105.062 26.2937 104.218 29.3486 103.413C31.4388 102.85 30.5545 99.6327 28.4643 100.156C25.8515 100.839 23.1985 101.483 20.5858 102.207C19.5005 102.488 18.375 102.81 17.2897 103.092C16.2847 103.333 16.3651 103.373 15.6818 102.73C15.0788 102.207 14.5563 101.563 14.0337 101C13.069 99.9545 11.6219 98.7076 11.019 97.4608C10.6572 96.7368 10.8984 96.3346 11.1396 95.6911C11.6621 94.4443 12.3053 93.1975 12.868 91.9507C14.0337 89.5374 15.2396 87.1242 16.2445 84.6306C16.8877 83.062 14.3955 82.137 13.5916 83.5044Z" fill="#292C33"/>
<path d="M28.5849 102.85C30.3535 103.896 32.1222 105.022 34.132 105.585C36.0614 106.108 36.8654 103.172 34.9761 102.569C33.2879 102.046 31.8006 100.92 30.1525 100.196C28.3437 99.4316 26.8162 101.845 28.5849 102.85Z" fill="#292C33"/>
<path d="M11.421 78.1149C11.421 80.2868 11.9837 82.3783 12.8278 84.3491C13.7524 86.5612 16.8877 85.3143 15.923 83.062C15.1592 81.3728 14.6367 79.5629 14.3955 77.7127C14.1141 76.0235 11.421 76.5061 11.421 78.1149Z" fill="#292C33"/>
<path d="M16.6867 49.5185C15.0386 50.9664 14.2749 53.1785 13.3504 55.1091C12.4661 56.9994 15.32 58.6082 16.124 56.7179C17.0485 54.6264 18.0936 52.4948 18.4152 50.2022C18.5759 49.2771 17.2897 48.9956 16.6867 49.5185Z" fill="#292C33"/>
<path d="M40.1213 32.0227C37.9105 32.4652 35.5389 33.5511 33.5692 34.5968C31.881 35.4817 33.3683 38.0557 35.0565 37.1709C37.0261 36.1252 39.1968 35.5219 41.1664 34.5164C42.6135 33.7924 41.5684 31.701 40.1213 32.0227Z" fill="#292C33"/>
<path d="M124.132 128.953C121.841 129.838 120.394 130.602 119.308 132.975C118.344 135.067 118.062 137.319 118.464 139.571C119.349 144.518 124.172 148.017 129.116 147.897C133.94 147.776 138.442 143.875 139.125 139.048C139.809 134.101 136.874 129.355 132.131 127.787C126.584 125.937 120.354 128.752 118.826 134.544C118.304 136.555 121.399 137.399 121.921 135.388C123.127 130.723 128.674 129.074 132.613 131.608C136.191 133.9 136.513 139.089 133.538 141.984C130.724 144.719 125.66 144.478 123.248 141.26C122.122 139.732 121.68 137.721 121.961 135.871C122.203 134.182 123.368 131.527 124.856 130.562C125.619 130.039 125.137 128.591 124.132 128.953Z" fill="#292C33"/>
<path d="M47.3969 144.156C47.4772 137.721 47.1155 131.205 47.5174 124.77C47.7586 121.11 48.8439 117.33 51.3763 114.595C54.1097 111.618 58.0891 110.291 62.0284 109.969C66.3294 109.607 70.7108 109.849 75.0521 109.889C81.4433 109.889 87.7944 109.889 94.1856 109.889C107.491 109.889 120.836 109.889 134.141 109.889C137.075 109.889 140.09 109.768 143.024 109.889C146.722 110.05 151.064 110.573 154.32 112.463C158.822 115.037 160.028 119.3 160.108 124.167C160.148 127.545 160.309 130.924 160.229 134.302C160.148 137.198 159.827 140.295 159.425 142.749C157.937 152.361 154.722 161.813 149.174 169.857C141.658 180.716 130.081 187.393 117.218 189.846C108.415 191.536 99.0494 191.536 90.2062 190.128C82.9708 188.961 75.9364 186.709 69.6657 182.848C60.4607 177.137 53.8685 168.168 50.4116 157.952C48.2812 151.637 47.2361 145.685 47.2763 139.129C47.2763 138.767 47.2763 138.445 47.3165 138.083C47.4772 135.469 43.3772 135.469 43.2566 138.083C42.9752 143.191 43.6988 148.54 44.8243 153.487C47.1959 164.025 52.341 174.08 60.4607 181.36C72.6805 192.34 89.5228 195.799 105.561 195.397C120.916 194.995 136.271 190.289 147.205 179.067C155.083 170.983 160.028 160.486 162.56 149.586C163.886 143.955 164.771 137.962 164.61 132.131C164.489 128.43 164.69 124.65 164.288 120.949C163.726 115.922 161.394 111.739 157.053 109.004C152.27 105.987 146.12 105.505 140.572 105.505C128.473 105.505 116.374 105.505 104.235 105.545C91.7738 105.585 79.2727 105.625 66.8118 105.625C59.697 105.625 52.3008 106.671 47.5978 112.624C42.6939 118.777 43.337 126.661 43.337 134.061C43.337 137.44 43.337 140.818 43.337 144.156C43.337 146.811 47.3969 146.811 47.3969 144.156Z" fill="#292C33"/>
<path d="M87.0306 94.0421C86.6287 96.576 86.5081 99.1098 86.4277 101.684C86.3875 103.132 86.0659 105.022 86.5081 106.47C86.91 107.757 88.8797 107.838 89.2012 106.47C89.563 105.062 89.2414 103.373 89.161 101.925C89.0405 99.3914 89.0003 96.8575 88.9601 94.3236C89.0003 93.2377 87.2316 92.9159 87.0306 94.0421Z" fill="#292C33"/>
<path d="M118.585 94.4041C117.459 97.3804 117.5 101.121 117.861 104.258C118.103 106.269 121.318 106.309 121.077 104.258C120.675 101.04 120.756 97.5413 119.911 94.4041C119.751 93.6801 118.826 93.7606 118.585 94.4041Z" fill="#292C33"/>
<path d="M66.3294 45.6976C65.7667 52.3741 65.4049 59.0104 66.048 65.6869C67.053 76.1039 73.3236 86.1992 81.9659 92.0311C90.8091 97.9837 102.788 99.874 113.118 97.6619C123.408 95.4498 134.262 87.9286 137.759 77.6725C138.563 75.3398 139.487 72.8461 139.889 70.3927C140.211 68.3415 140.291 66.2902 140.371 64.1988C140.492 60.9812 140.532 57.7636 140.532 54.546C140.532 52.1328 136.995 52.1328 136.995 54.546C136.995 56.9592 136.915 59.2115 136.834 61.5443C136.714 64.5206 136.834 67.7382 135.91 70.5938C135.065 73.2081 134.061 75.9028 132.895 78.3563C131.729 80.7695 130.001 82.7 128.111 84.5904C124.574 88.0895 120.233 90.8647 115.49 92.3931C106.245 95.3694 95.4317 94.3639 86.8296 89.8592C77.9864 85.1937 71.354 76.0637 69.7059 66.1696C68.9824 61.9867 68.8216 57.6429 68.5804 53.4198C68.4598 50.8457 68.0579 48.3119 67.8971 45.7378C67.8167 44.6921 66.4098 44.6921 66.3294 45.6976Z" fill="#292C33"/>
<path d="M140.613 60.0561C141.417 51.1675 141.216 42.6811 137.316 34.4359C132.292 23.8178 122.363 16.5782 110.948 14.3259C99.8131 12.154 88.2767 14.165 79.2325 21.2035C74.4089 24.944 70.8314 29.4084 68.8216 35.2001C67.6157 38.659 66.7314 41.7158 66.651 45.3758C66.45 52.2937 66.4098 58.9702 66.4098 66.2098C66.4098 68.2208 69.9471 68.2208 69.9471 66.2098C69.9471 60.579 70.0677 55.3504 70.3089 49.9609C70.7108 42.3995 72.1579 34.5164 77.5844 28.7649C84.9002 21.0024 94.7886 17.3022 105.4 18.0261C116.133 18.7903 126.142 23.8581 132.091 32.988C135.307 37.9351 137.276 43.3648 138 49.2369C138.442 52.8165 138.884 56.4363 139.085 60.0561C139.085 61.0616 140.492 61.0214 140.613 60.0561Z" fill="#292C33"/>
<path d="M46.0302 118.174C46.9949 113.147 41.7693 109.205 37.3477 108.441C31.7202 107.476 26.5751 111.136 23.6809 115.721C19.9426 121.593 19.9024 128.832 20.1034 135.549C20.3044 142.99 20.9475 150.431 21.5907 157.871C21.9525 162.135 22.3946 166.398 22.7162 170.661C22.877 172.632 22.9976 174.603 23.1182 176.614C23.2387 178.625 23.0378 180.797 24.0025 182.607C24.5652 183.652 26.4143 183.773 26.9368 182.607C28.0623 180.033 27.3388 176.775 27.178 174.04C26.977 170.782 26.6956 167.564 26.4143 164.307C25.8515 158.032 25.2084 151.798 24.726 145.524C24.2437 139.33 23.6407 132.935 24.2838 126.701C24.8064 121.512 26.8966 115.962 31.5996 113.227C33.931 111.86 36.7046 111.618 39.237 112.664C41.8497 113.75 43.2164 115.681 44.1811 118.255C44.4625 118.979 45.8292 119.22 46.0302 118.174Z" fill="#292C33"/>
<path d="M39.7997 183.693C40.8448 183.773 41.287 181.4 41.488 180.676C42.3723 177.499 43.2164 174.281 43.8596 171.023C44.7037 166.84 45.4674 162.658 46.1106 158.434C46.4321 156.464 46.7135 154.453 46.9547 152.482C47.1557 150.752 47.7988 148.46 47.2763 146.771C46.9145 145.644 45.1057 145.162 44.5027 146.409C43.739 148.017 43.8596 150.23 43.6586 151.999C43.4174 154.01 43.136 156.061 42.8546 158.072C42.2115 162.376 41.488 166.639 40.7644 170.903C40.5634 172.029 38.1516 183.612 39.7997 183.693Z" fill="#292C33"/>
<path d="M25.3692 184.497C29.7104 183.451 33.73 183.17 38.1517 183.693C40.2821 183.934 40.8448 180.194 38.6742 179.872C33.8506 179.228 28.7457 179.992 24.4446 182.325C23.2789 183.009 24.0829 184.819 25.3692 184.497Z" fill="#292C33"/>
<path d="M39.036 205.492C39.5987 204.567 39.4781 203.079 39.5987 202.073C39.8801 199.499 40.0409 196.885 40.2017 194.311C40.4027 191.696 40.5233 189.082 40.6438 186.508C40.684 185.583 40.7242 184.658 40.7242 183.733C40.7242 183.371 40.7242 183.049 40.684 182.687C40.6438 182.365 40.684 183.049 40.684 182.687C40.7242 180.636 37.5085 180.636 37.4683 182.687C37.5085 181.762 37.3879 183.411 37.3477 183.733C37.3075 184.618 37.3075 185.462 37.2673 186.347C37.2271 189.002 37.1869 191.656 37.2271 194.311C37.2673 196.845 37.2673 199.378 37.3879 201.912C37.4281 202.998 37.2673 204.486 37.7899 205.492C38.0713 205.975 38.7546 205.934 39.036 205.492Z" fill="#292C33"/>
<path d="M25.8917 205.653C26.4947 204.848 26.5349 203.521 26.6152 202.556C26.8162 200.585 26.8966 198.614 26.977 196.684C27.1378 192.662 27.0574 188.6 27.0574 184.577C27.0574 183.411 27.178 181.481 25.7309 181.078C24.0829 180.636 23.6809 182.566 23.6407 183.733C23.5603 187.634 23.7211 191.576 23.8417 195.517C23.8819 197.729 24.0025 199.942 24.2839 202.154C24.4044 203.32 24.4044 204.848 25.1682 205.773C25.3692 206.015 25.7309 205.854 25.8917 205.653Z" fill="#292C33"/>
<path d="M164.288 118.174C165.132 115.962 166.137 114.273 168.268 113.066C170.318 111.9 172.77 111.618 174.981 112.342C179.965 113.911 182.779 119.099 183.784 123.926C185.07 130.039 184.346 136.675 183.944 142.869C183.542 149.144 182.859 155.378 182.296 161.612C181.975 165.232 181.653 168.851 181.372 172.471C181.131 175.568 180.206 179.63 181.492 182.526C182.015 183.693 183.904 183.572 184.427 182.526C185.191 181.078 185.15 179.59 185.231 178.022C185.351 176.051 185.472 174.08 185.593 172.109C185.874 168.369 186.195 164.588 186.557 160.848C187.241 153.407 187.924 145.926 188.245 138.445C188.527 131.527 188.889 124.167 185.874 117.772C183.542 112.825 178.84 108.481 173.132 108.32C168.107 108.2 161.314 112.463 162.399 118.214C162.6 119.22 163.967 118.979 164.288 118.174Z" fill="#292C33"/>
<path d="M183.945 182.365C179.643 180.073 174.458 179.832 169.715 180.515C167.585 180.797 168.067 184.578 170.237 184.336C174.659 183.813 178.679 183.532 183.02 184.537C184.306 184.819 185.191 183.009 183.945 182.365Z" fill="#292C33"/>
<path d="M183.904 205.774C184.668 204.647 184.588 202.837 184.708 201.51C184.909 198.936 184.909 196.322 184.909 193.707C184.909 191.174 184.869 188.68 184.869 186.146C184.869 184.698 185.311 182.044 183.824 181.159C183.382 180.917 182.819 180.877 182.377 181.159C180.93 182.124 181.412 184.537 181.452 186.025C181.533 188.6 181.613 191.174 181.693 193.707C181.774 196.241 181.894 198.815 182.176 201.349C182.337 202.677 182.296 204.607 183.141 205.774C183.301 206.055 183.703 206.095 183.904 205.774Z" fill="#292C33"/>
<path d="M80.7198 191.254C76.0972 190.369 71.5148 191.495 67.5353 193.989C64.5608 195.879 60.4205 199.378 59.898 203.119C59.5764 205.291 62.3902 206.9 63.6764 204.728C64.4402 203.441 64.9225 202.033 65.8872 200.826C66.9725 199.459 68.3392 198.293 69.7863 197.287C73.0422 195.075 76.8207 193.748 80.6796 192.984C81.6041 192.823 81.6041 191.415 80.7198 191.254Z" fill="#292C33"/>
<path d="M123.047 192.581C123.971 193.748 125.86 193.989 127.187 194.592C128.795 195.316 130.322 196.241 131.81 197.287C134.865 199.419 137.236 202.113 139.608 204.969C140.934 206.578 143.748 204.446 142.502 202.717C140.13 199.419 136.995 196.402 133.578 194.19C131.97 193.144 130.202 192.34 128.353 191.777C126.825 191.335 124.534 190.57 123.127 191.616C122.806 191.898 122.765 192.26 123.047 192.581Z" fill="#292C33"/>
<path d="M168.75 181.119C166.941 174.844 165.534 168.731 164.771 162.215C164.409 159.078 164.128 155.941 163.806 152.844C163.565 150.39 163.806 146.449 162.078 144.518C161.716 144.116 160.912 144.197 160.671 144.679C160.028 146.087 160.389 147.454 160.55 148.902C160.751 150.431 160.912 151.959 161.073 153.487C161.434 156.866 161.716 160.204 162.158 163.583C162.922 169.696 163.806 176.493 166.982 181.883C167.504 182.808 169.072 182.205 168.75 181.119Z" fill="#292C33"/>
<path d="M169.032 205.532C170.479 204.446 170.077 202.355 170.117 200.706C170.197 198.494 170.237 196.322 170.278 194.11C170.278 192.058 170.318 190.047 170.358 187.996C170.398 185.985 171.041 183.25 169.956 181.481C169.594 180.918 168.871 180.958 168.509 181.481C167.343 183.089 167.826 185.784 167.785 187.674C167.745 189.726 167.745 191.777 167.745 193.828C167.745 195.799 167.745 197.729 167.745 199.7C167.745 201.39 167.062 204.245 168.509 205.452C168.63 205.613 168.871 205.653 169.032 205.532Z" fill="#292C33"/>
<path d="M69.6255 47.6281C75.454 35.8436 90.3267 31.1379 102.587 31.2183C115.329 31.2988 127.87 36.4469 136.754 45.6171C138.442 47.3466 141.095 44.6921 139.407 42.9626C124.454 27.6387 98.2053 22.1286 79.3531 33.5109C74.0873 36.6883 69.9873 41.0723 68.5804 47.1857C68.4598 47.7488 69.3442 48.1912 69.6255 47.6281Z" fill="#292C33"/>
<path d="M68.6206 54.4253C70.6706 56.6374 72.2785 59.2115 73.203 62.0671C73.8864 64.1988 73.9668 66.7327 75.4942 68.5023C77.1021 70.3927 79.5943 70.4731 81.9257 70.5536C85.3826 70.6742 88.8395 70.7547 92.2964 70.8753C99.0896 71.0764 105.883 71.2775 112.676 71.4384C116.012 71.5189 119.349 71.5993 122.645 71.6797C125.298 71.7602 127.308 71.4786 128.956 69.2263C133.257 63.4346 136.513 56.6776 140.211 50.4837C141.055 49.076 138.965 47.3466 137.879 48.6738C135.588 51.5697 133.779 54.7873 131.97 58.0049C131.126 59.5333 130.242 61.0616 129.358 62.5498C128.393 64.1184 127.388 66.4109 126.021 67.6577C124.735 68.8241 122.685 68.3415 121.077 68.3012C119.228 68.261 117.339 68.1806 115.49 68.1404C111.51 68.0197 107.491 67.899 103.511 67.8186C95.8739 67.6175 88.1561 67.7382 80.559 67.2555C78.308 67.1349 77.4638 66.25 76.7403 64.1988C76.2981 62.952 75.856 61.6649 75.2932 60.4583C73.9668 57.6831 71.9971 55.3102 69.6657 53.3394C68.902 52.8567 67.9775 53.7416 68.6206 54.4253Z" fill="#292C33"/>
</svg>
