<svg width="702" height="1354" viewBox="0 0 702 1354" fill="none" xmlns="http://www.w3.org/2000/svg">
<g clip-path="url(#clip0_1_77)">
<path d="M-790.549 1060.25L-818.009 1108.27L-790.549 1156.32L-818.086 1204.21L-790.702 1251.85L-817.984 1299.56L-787.718 1353.19L-727.863 1353.59L-699.854 1304.93H-644.626L-617.369 1257.75H-562.664L-534.884 1209.09H-479.567L-452.4 1161.94H-402.883L-375.588 1209.09H-314.726L-287.43 1161.94L-237.914 1161.98L-210.899 1209.09H-149.527L-122.461 1161.98L-68.0365 1161.94L-39.9764 1113.32L15.2385 1113.28L42.5082 1066.18H97.1877L127.619 1012.61L100.235 964.714L124.993 921.703L180.221 921.677L207.49 874.573L261.864 874.535L289.975 825.9L345.266 825.862L372.46 778.758L427.228 778.732L457.672 724.959L430.186 677.293L457.813 629.488L430.186 581.491L457.583 533.379L430.186 485.688L455.072 442.69L509.318 442.651L537.429 394.03L592.733 393.991L619.914 346.887L670.858 346.849L701.315 293.088L673.815 245.423L701.442 197.617L668.512 149.11L614.916 148.536L586.983 196.724L537.097 195.296L506.883 145.476L537.097 102.197L504.448 49.635H454.944L426.961 1.10254L367.029 0.975098L339.3 49.635L283.945 49.4821L254.1 101.406L281.765 149.62L257.007 192.58H207.822L180.093 145.45L119.23 145.731L92.0372 192.619L37.2812 192.912L9.53992 241.279L-45.8918 241.24L-72.9448 288.421H-127.701L-155.429 337.081H-204.946L-232.891 288.383L-292.543 288.421L-322.974 342.003L-295.794 389.618L-320.399 432.846L-369.915 432.884L-397.656 384.224H-457.741L-485.368 432.884H-540.621L-570.555 485.14L-543.095 532.831L-570.619 580.866L-543.095 628.365L-570.555 676.388L-543.095 724.436L-570.619 772.331L-570.084 773.274L-570.428 773.887L-543.681 820.736L-568.834 864.729L-617.369 864.767L-645.123 816.107H-705.195L-732.835 864.767H-788.075L-818.009 917.01L-790.549 964.714L-818.086 1012.75L-790.549 1060.25Z" fill="#1F75BA"/>
</g>
<defs>
<clipPath id="clip0_1_77">
<rect width="1519.53" height="1352.61" fill="white" transform="translate(-818.086 0.975464)"/>
</clipPath>
</defs>
</svg>
