<svg width="786" height="413" viewBox="0 0 786 413" fill="none" xmlns="http://www.w3.org/2000/svg">
<path d="M719.083 186.957L719.698 188.026L782.812 297.743L783.423 298.806L782.812 299.87L719.698 409.586L719.083 410.656H590.388L589.772 409.586L526.659 299.87L526.047 298.806L526.659 297.743L589.772 188.026L590.388 186.957H719.083Z" fill="#1F75BA" stroke="#1D2332" stroke-width="4.26641"/>
<path d="M699.966 356.648C699.244 350.512 693.469 346.902 689.859 346.18" stroke="#1D2332" stroke-width="4.50413" stroke-miterlimit="10" stroke-linecap="round" stroke-linejoin="round"/>
<path d="M698.525 254.12C708.632 253.037 706.827 242.208 706.827 242.208V241.847C737.148 247.622 731.012 281.192 729.929 281.914C729.929 281.914 744.368 304.294 724.153 318.733C724.153 318.733 733.899 358.439 700.33 356.634C706.105 377.209 687.335 381.541 673.979 382.263C667.121 382.624 661.345 377.209 661.345 370.351V230.657C676.506 211.165 705.744 221.994 706.466 242.208" stroke="#1D2332" stroke-width="4.50413" stroke-miterlimit="10" stroke-linecap="round" stroke-linejoin="round"/>
<path d="M694.913 281.21C710.796 295.287 725.956 285.18 730.288 281.932" stroke="#1D2332" stroke-width="4.50413" stroke-miterlimit="10" stroke-linecap="round" stroke-linejoin="round"/>
<path d="M700.688 356.645H686.61" stroke="#1D2332" stroke-width="4.50413" stroke-miterlimit="10" stroke-linecap="round" stroke-linejoin="round"/>
<path d="M715.857 305.745C715.857 306.106 708.276 314.769 701.057 313.325" stroke="#1D2332" stroke-width="4.50413" stroke-miterlimit="10" stroke-linecap="round" stroke-linejoin="round"/>
<path d="M719.459 261.351C723.069 262.434 726.678 260.99 728.483 258.824" stroke="#1D2332" stroke-width="4.50413" stroke-miterlimit="10" stroke-linecap="round" stroke-linejoin="round"/>
<path d="M724.517 318.732C724.517 318.732 721.268 301.405 698.888 299.6" stroke="#1D2332" stroke-width="4.50413" stroke-miterlimit="10" stroke-linecap="round" stroke-linejoin="round"/>
<path d="M630.666 268.197C592.764 235.349 640.773 203.945 661.709 231.017V370.712C661.709 377.57 655.933 382.984 649.075 382.623C635.719 381.902 616.949 377.57 622.724 356.995" stroke="#1D2332" stroke-width="4.50413" stroke-miterlimit="10" stroke-linecap="round" stroke-linejoin="round"/>
<path d="M616.584 241.135C586.263 247.272 592.039 280.842 592.039 280.842C592.039 280.842 594.926 293.475 611.531 289.866" stroke="#1D2332" stroke-width="4.50413" stroke-miterlimit="10" stroke-linecap="round" stroke-linejoin="round"/>
<path d="M604.313 289.14C605.035 283.004 610.811 279.394 614.421 278.672" stroke="#1D2332" stroke-width="4.50413" stroke-miterlimit="10" stroke-linecap="round" stroke-linejoin="round"/>
<path d="M593.485 283.72C593.485 283.72 579.046 304.295 599.26 318.734C599.26 318.734 589.514 358.44 623.084 356.635H636.801" stroke="#1D2332" stroke-width="4.50413" stroke-miterlimit="10" stroke-linecap="round" stroke-linejoin="round"/>
<path d="M610.091 334.987C610.091 334.987 601.789 339.68 603.233 349.787" stroke="#1D2332" stroke-width="4.50413" stroke-miterlimit="10" stroke-linecap="round" stroke-linejoin="round"/>
<path d="M599.257 318.739C599.257 318.739 616.223 318.378 615.862 305.745" stroke="#1D2332" stroke-width="4.50413" stroke-miterlimit="10" stroke-linecap="round" stroke-linejoin="round"/>
<path d="M645.826 271.812C645.826 276.144 642.577 279.392 638.246 279.392C633.914 279.392 630.666 275.783 630.666 271.812V271.451C631.026 267.48 634.275 264.232 638.246 264.232C642.216 263.871 645.826 267.48 645.826 271.812Z" stroke="#1D2332" stroke-width="4.50413" stroke-miterlimit="10" stroke-linecap="round" stroke-linejoin="round"/>
<path d="M645.826 301.423C645.826 305.755 642.577 309.004 638.246 309.004C633.914 309.004 630.666 305.394 630.666 301.423V301.062C631.026 297.092 634.275 293.843 638.246 293.843C642.216 293.482 645.826 297.092 645.826 301.423Z" stroke="#1D2332" stroke-width="4.50413" stroke-miterlimit="10" stroke-linecap="round" stroke-linejoin="round"/>
<path d="M685.534 356.645C685.534 360.977 681.924 364.226 677.954 364.226C673.983 364.226 670.374 360.616 670.374 356.645V356.284C670.735 352.314 673.983 349.065 677.954 349.065C682.285 349.065 685.534 352.314 685.534 356.645Z" stroke="#1D2332" stroke-width="4.50413" stroke-miterlimit="10" stroke-linecap="round" stroke-linejoin="round"/>
<path d="M639.329 340.77C639.329 345.102 636.08 348.351 631.749 348.351C627.417 348.351 624.168 344.741 624.168 340.77V340.409C624.529 336.439 627.778 333.19 631.749 333.19C635.719 332.829 639.329 336.439 639.329 340.77Z" stroke="#1D2332" stroke-width="4.50413" stroke-miterlimit="10" stroke-linecap="round" stroke-linejoin="round"/>
<path d="M690.227 263.158C690.227 267.49 686.978 270.738 682.647 270.738C678.315 270.738 675.066 267.129 675.066 263.158V262.797C675.427 258.826 678.676 255.578 682.647 255.578C686.978 255.217 690.227 258.826 690.227 263.158Z" stroke="#1D2332" stroke-width="4.50413" stroke-miterlimit="10" stroke-linecap="round" stroke-linejoin="round"/>
<path d="M688.057 296.717C688.057 301.048 684.808 304.297 680.476 304.297C676.145 304.297 672.896 300.687 672.896 296.717V296.356C673.257 292.385 676.506 289.136 680.476 289.136C684.808 289.136 688.057 292.385 688.057 296.717Z" stroke="#1D2332" stroke-width="4.50413" stroke-miterlimit="10" stroke-linecap="round" stroke-linejoin="round"/>
<path d="M675.78 267.847L662.063 281.564" stroke="#1D2332" stroke-width="4.50413" stroke-miterlimit="10" stroke-linecap="round" stroke-linejoin="round"/>
<path d="M679.396 304.676V322.725L662.07 332.832L661.348 340.773H639.329" stroke="#1D2332" stroke-width="4.50413" stroke-miterlimit="10" stroke-linecap="round" stroke-linejoin="round"/>
<path d="M643.297 306.82L661.706 319.815" stroke="#1D2332" stroke-width="4.50413" stroke-miterlimit="10" stroke-linecap="round" stroke-linejoin="round"/>
<path d="M169.686 2.2312L170.29 3.27905L224.612 97.6033L225.213 98.6482L224.612 99.6921L170.29 194.016L169.686 195.064H58.6206L58.0171 194.016L3.69482 99.6921L3.09326 98.6482L3.69482 97.6033L58.0171 3.27905L58.6206 2.2312H169.686Z" stroke="#1D2332" stroke-width="4.18416"/>
<path d="M153.49 59.1919H73.9536V138.729H153.49V59.1919Z" stroke="#1D2332" stroke-width="4.41729" stroke-miterlimit="10" stroke-linecap="round" stroke-linejoin="round"/>
<path d="M133.602 118.552H93.8335V79.094H120.864L133.602 93.6965V118.552Z" stroke="#1D2332" stroke-width="4.41729" stroke-miterlimit="10" stroke-linecap="round" stroke-linejoin="round"/>
<path d="M73.9536 38.9968V49.2496" stroke="#1D2332" stroke-width="4.41729" stroke-miterlimit="10" stroke-linecap="round" stroke-linejoin="round"/>
<path d="M83.8906 38.9968V49.2496" stroke="#1D2332" stroke-width="4.41729" stroke-miterlimit="10" stroke-linecap="round" stroke-linejoin="round"/>
<path d="M93.8335 38.9968V49.2496" stroke="#1D2332" stroke-width="4.41729" stroke-miterlimit="10" stroke-linecap="round" stroke-linejoin="round"/>
<path d="M103.776 38.9968V49.2496" stroke="#1D2332" stroke-width="4.41729" stroke-miterlimit="10" stroke-linecap="round" stroke-linejoin="round"/>
<path d="M113.719 38.9968V49.2496" stroke="#1D2332" stroke-width="4.41729" stroke-miterlimit="10" stroke-linecap="round" stroke-linejoin="round"/>
<path d="M123.662 38.9968V49.2496" stroke="#1D2332" stroke-width="4.41729" stroke-miterlimit="10" stroke-linecap="round" stroke-linejoin="round"/>
<path d="M133.605 38.9968V49.2496" stroke="#1D2332" stroke-width="4.41729" stroke-miterlimit="10" stroke-linecap="round" stroke-linejoin="round"/>
<path d="M143.548 38.9968V49.2496" stroke="#1D2332" stroke-width="4.41729" stroke-miterlimit="10" stroke-linecap="round" stroke-linejoin="round"/>
<path d="M153.491 38.9968V49.2496" stroke="#1D2332" stroke-width="4.41729" stroke-miterlimit="10" stroke-linecap="round" stroke-linejoin="round"/>
<path d="M73.9556 148.683V158.625" stroke="#1D2332" stroke-width="4.41729" stroke-miterlimit="10" stroke-linecap="round" stroke-linejoin="round"/>
<path d="M83.8984 148.683V158.625" stroke="#1D2332" stroke-width="4.41729" stroke-miterlimit="10" stroke-linecap="round" stroke-linejoin="round"/>
<path d="M93.8418 148.683V158.625" stroke="#1D2332" stroke-width="4.41729" stroke-miterlimit="10" stroke-linecap="round" stroke-linejoin="round"/>
<path d="M103.785 148.683V158.625" stroke="#1D2332" stroke-width="4.41729" stroke-miterlimit="10" stroke-linecap="round" stroke-linejoin="round"/>
<path d="M113.721 148.683V158.625" stroke="#1D2332" stroke-width="4.41729" stroke-miterlimit="10" stroke-linecap="round" stroke-linejoin="round"/>
<path d="M123.664 148.683V158.625" stroke="#1D2332" stroke-width="4.41729" stroke-miterlimit="10" stroke-linecap="round" stroke-linejoin="round"/>
<path d="M133.606 148.683V158.625" stroke="#1D2332" stroke-width="4.41729" stroke-miterlimit="10" stroke-linecap="round" stroke-linejoin="round"/>
<path d="M143.55 148.683V158.625" stroke="#1D2332" stroke-width="4.41729" stroke-miterlimit="10" stroke-linecap="round" stroke-linejoin="round"/>
<path d="M153.493 148.683V158.625" stroke="#1D2332" stroke-width="4.41729" stroke-miterlimit="10" stroke-linecap="round" stroke-linejoin="round"/>
<path d="M54.0693 138.42H64.0115" stroke="#1D2332" stroke-width="4.41729" stroke-miterlimit="10" stroke-linecap="round" stroke-linejoin="round"/>
<path d="M54.0693 128.784H64.0115" stroke="#1D2332" stroke-width="4.41729" stroke-miterlimit="10" stroke-linecap="round" stroke-linejoin="round"/>
<path d="M54.0693 118.544H64.0115" stroke="#1D2332" stroke-width="4.41729" stroke-miterlimit="10" stroke-linecap="round" stroke-linejoin="round"/>
<path d="M54.0693 108.908H64.0115" stroke="#1D2332" stroke-width="4.41729" stroke-miterlimit="10" stroke-linecap="round" stroke-linejoin="round"/>
<path d="M54.0693 98.9524H64.0115" stroke="#1D2332" stroke-width="4.41729" stroke-miterlimit="10" stroke-linecap="round" stroke-linejoin="round"/>
<path d="M54.0693 88.7129H64.0115" stroke="#1D2332" stroke-width="4.41729" stroke-miterlimit="10" stroke-linecap="round" stroke-linejoin="round"/>
<path d="M54.0693 79.0708H64.0115" stroke="#1D2332" stroke-width="4.41729" stroke-miterlimit="10" stroke-linecap="round" stroke-linejoin="round"/>
<path d="M54.0693 68.8303H64.0115" stroke="#1D2332" stroke-width="4.41729" stroke-miterlimit="10" stroke-linecap="round" stroke-linejoin="round"/>
<path d="M54.0693 59.1943H64.0115" stroke="#1D2332" stroke-width="4.41729" stroke-miterlimit="10" stroke-linecap="round" stroke-linejoin="round"/>
<path d="M163.433 138.42H173.375" stroke="#1D2332" stroke-width="4.41729" stroke-miterlimit="10" stroke-linecap="round" stroke-linejoin="round"/>
<path d="M163.433 128.784H173.375" stroke="#1D2332" stroke-width="4.41729" stroke-miterlimit="10" stroke-linecap="round" stroke-linejoin="round"/>
<path d="M163.433 118.544H173.375" stroke="#1D2332" stroke-width="4.41729" stroke-miterlimit="10" stroke-linecap="round" stroke-linejoin="round"/>
<path d="M163.433 108.908H173.375" stroke="#1D2332" stroke-width="4.41729" stroke-miterlimit="10" stroke-linecap="round" stroke-linejoin="round"/>
<path d="M163.433 98.9524H173.375" stroke="#1D2332" stroke-width="4.41729" stroke-miterlimit="10" stroke-linecap="round" stroke-linejoin="round"/>
<path d="M163.433 88.7129H173.375" stroke="#1D2332" stroke-width="4.41729" stroke-miterlimit="10" stroke-linecap="round" stroke-linejoin="round"/>
<path d="M163.433 79.0708H173.375" stroke="#1D2332" stroke-width="4.41729" stroke-miterlimit="10" stroke-linecap="round" stroke-linejoin="round"/>
<path d="M163.433 68.8303H173.375" stroke="#1D2332" stroke-width="4.41729" stroke-miterlimit="10" stroke-linecap="round" stroke-linejoin="round"/>
<path d="M163.433 59.1943H173.375" stroke="#1D2332" stroke-width="4.41729" stroke-miterlimit="10" stroke-linecap="round" stroke-linejoin="round"/>
<path d="M105.331 98.9766H122.108" stroke="#1D2332" stroke-width="4.41729" stroke-miterlimit="10" stroke-linecap="round" stroke-linejoin="round"/>
<path d="M130.185 75.6741L137.02 82.82" stroke="#1D2332" stroke-width="4.41729" stroke-miterlimit="10" stroke-linecap="round" stroke-linejoin="round"/>
<path fill-rule="evenodd" clip-rule="evenodd" d="M436.264 277.244C435.797 277.244 435.35 277.429 435.021 277.759C434.691 278.088 434.506 278.535 434.506 279.001C434.506 279.467 434.691 279.914 435.021 280.244C435.35 280.574 435.797 280.759 436.264 280.759H506.202C506.668 280.759 507.116 280.574 507.445 280.244C507.775 279.914 507.96 279.467 507.96 279.001C507.96 278.535 507.775 278.088 507.445 277.759C507.116 277.429 506.668 277.244 506.202 277.244H436.264Z" fill="#1D2332"/>
<path fill-rule="evenodd" clip-rule="evenodd" d="M312.57 75.0303C301.473 75.4989 294.319 77.5842 289.597 81.538C285.695 84.8065 283.796 88.5671 281.464 96.1819C281.265 96.8203 280.586 99.0637 280.539 99.2219C280.17 100.458 279.871 101.407 279.566 102.356C278.763 104.781 277.99 106.895 277.088 108.957C274.83 114.172 271.75 118.992 267.965 123.232C265.551 125.95 261.649 126.746 255.802 125.885C251.168 125.188 247.383 124.058 236.678 120.426C235.29 119.952 234.335 119.624 233.345 119.302C220.226 114.938 212.51 113.444 205.714 114.985C196.72 117.041 191.705 124.726 190.949 139C190.322 150.715 195.841 161.341 206.51 170.824C215.375 178.703 227.603 185.615 242.25 191.66C253.573 196.254 265.192 200.08 277.029 203.111C281.177 204.189 285.044 205.085 288.501 205.835C289.714 206.098 292.339 206.637 292.573 206.684L292.872 206.743C293.102 206.788 293.339 206.788 293.568 206.74C293.798 206.693 294.016 206.601 294.209 206.468C294.402 206.335 294.567 206.165 294.694 205.968C294.82 205.771 294.906 205.55 294.946 205.319C294.99 205.09 294.988 204.854 294.939 204.626C294.891 204.397 294.797 204.18 294.664 203.988C294.531 203.796 294.361 203.633 294.164 203.507C293.967 203.382 293.747 203.297 293.516 203.258L292.415 203.035C291.501 202.853 290.446 202.648 289.257 202.391C285.841 201.647 282.039 200.745 277.937 199.679C266.251 196.692 254.778 192.923 243.598 188.397C229.237 182.493 217.373 175.739 208.848 168.165C198.917 159.344 193.902 149.72 194.464 139.2C195.144 126.372 199.239 120.116 206.487 118.458C212.422 117.105 219.722 118.505 232.214 122.664C233.181 122.986 234.136 123.296 235.53 123.771C246.469 127.479 250.318 128.65 255.251 129.394C262.159 130.431 267.227 129.394 270.59 125.575C274.622 121.062 277.906 115.932 280.316 110.381C281.259 108.207 282.074 105.993 282.9 103.469C283.216 102.49 283.527 101.512 283.908 100.259C283.96 100.095 284.64 97.8513 284.833 97.2186C286.972 90.2365 288.618 86.9562 291.864 84.2559C295.883 80.8878 302.346 79.0134 312.74 78.58C328.612 77.9122 336.715 88.7018 338.988 107.633C339.864 115.813 339.813 124.066 338.836 132.235C338.666 133.746 338.478 135.099 338.308 136.294C338.244 136.71 338.092 137.694 338.086 137.753C338.042 137.981 338.043 138.216 338.091 138.443C338.138 138.671 338.23 138.887 338.361 139.078C338.493 139.27 338.661 139.434 338.856 139.56C339.051 139.687 339.269 139.773 339.498 139.815C339.963 139.897 340.442 139.792 340.83 139.523C341.218 139.255 341.485 138.844 341.572 138.38C341.572 138.303 341.742 137.267 341.806 136.827C341.994 135.591 342.187 134.18 342.357 132.627C343.36 124.195 343.403 115.677 342.486 107.235C341.39 98.0914 338.9 90.459 334.705 84.8709C329.643 78.0879 322.278 74.6261 312.57 75.0303Z" fill="#1F75BA"/>
<path fill-rule="evenodd" clip-rule="evenodd" d="M317.854 77.4664C306.722 77.9291 299.568 80.0203 294.852 83.9741C290.955 87.2367 289.069 91.0031 286.737 98.6179C286.538 99.2564 285.864 101.5 285.811 101.664C285.442 102.894 285.143 103.843 284.833 104.798C284.116 107.038 283.286 109.241 282.349 111.399C280.089 116.607 277.013 121.422 273.238 125.662C270.836 128.386 266.904 129.177 261.069 128.316C256.423 127.619 252.667 126.494 241.951 122.862C240.562 122.382 239.607 122.06 238.617 121.732C225.505 117.374 217.788 115.874 210.998 117.421C201.993 119.477 196.989 127.162 196.221 141.436C195.595 153.152 201.114 163.777 211.783 173.26C220.648 181.139 232.875 188.051 247.523 194.096C258.845 198.69 270.464 202.516 282.302 205.547C286.45 206.625 290.317 207.527 293.774 208.277C294.986 208.54 297.588 209.079 297.834 209.126L298.144 209.179C298.373 209.224 298.609 209.222 298.838 209.175C299.066 209.128 299.283 209.036 299.476 208.904C299.668 208.772 299.833 208.603 299.959 208.407C300.086 208.21 300.172 207.991 300.213 207.761C300.257 207.532 300.256 207.296 300.208 207.067C300.161 206.838 300.068 206.621 299.935 206.428C299.803 206.236 299.633 206.072 299.436 205.946C299.239 205.819 299.019 205.734 298.789 205.694L297.687 205.477C296.773 205.289 295.707 205.084 294.518 204.827C291.096 204.089 287.288 203.187 283.186 202.121C271.507 199.132 260.043 195.361 248.87 190.833C234.51 184.929 222.645 178.181 214.121 170.607C204.19 161.78 199.151 152.162 199.713 141.642C200.405 128.814 204.488 122.558 211.742 120.9C217.671 119.541 224.972 120.947 237.475 125.1L240.791 126.207C251.729 129.921 255.591 131.092 260.524 131.83C267.432 132.873 272.511 131.83 275.874 128.017C279.895 123.501 283.167 118.372 285.565 112.822C286.526 110.643 287.323 108.435 288.172 105.911C288.489 104.932 288.799 103.954 289.18 102.701L290.106 99.6547C292.25 92.6725 293.891 89.3982 297.137 86.6979C301.15 83.3298 307.607 81.4261 317.989 81.0161C333.872 80.3542 341.964 91.1262 344.237 110.058C345.126 118.237 345.082 126.49 344.108 134.659C343.938 136.165 343.757 137.518 343.581 138.719C343.516 139.134 343.364 140.113 343.352 140.171C343.308 140.401 343.309 140.638 343.357 140.867C343.405 141.096 343.499 141.313 343.632 141.506C343.765 141.699 343.935 141.863 344.133 141.989C344.33 142.114 344.551 142.2 344.782 142.239C345.011 142.279 345.245 142.274 345.471 142.223C345.698 142.172 345.912 142.077 346.102 141.943C346.291 141.809 346.453 141.639 346.576 141.443C346.699 141.246 346.783 141.027 346.821 140.798C346.821 140.722 347.014 139.668 347.079 139.234C347.266 137.992 347.446 136.596 347.618 135.046C348.624 126.616 348.673 118.1 347.764 109.659C346.663 100.516 344.173 92.8776 339.978 87.2895C334.915 80.5299 327.551 77.0564 317.854 77.4664Z" fill="#4F5865"/>
<path fill-rule="evenodd" clip-rule="evenodd" d="M321.903 77.4664C310.806 77.9291 303.64 80.0203 298.93 83.9741C295.028 87.2367 293.129 91.0031 290.786 98.6179C290.598 99.2564 289.919 101.5 289.872 101.664C289.491 102.894 289.204 103.843 288.899 104.798C288.096 107.223 287.323 109.331 286.421 111.399C284.157 116.61 281.078 121.426 277.298 125.668C274.884 128.392 270.982 129.183 265.135 128.321C260.501 127.624 256.716 126.5 246.011 122.868L242.678 121.738C229.559 117.38 221.843 115.88 215.047 117.426C206.053 119.482 201.038 127.168 200.282 141.442C199.655 153.157 205.174 163.783 215.843 173.266C224.708 181.145 236.936 188.057 251.583 194.102C262.906 198.696 274.525 202.522 286.362 205.553C290.51 206.631 294.371 207.533 297.834 208.283C299.047 208.546 301.672 209.085 301.935 209.132L302.234 209.185C302.464 209.228 302.699 209.224 302.928 209.175C303.156 209.126 303.372 209.032 303.564 208.898C303.755 208.765 303.918 208.594 304.043 208.397C304.168 208.2 304.252 207.98 304.291 207.75C304.336 207.521 304.334 207.285 304.287 207.056C304.24 206.828 304.147 206.611 304.015 206.418C303.883 206.226 303.714 206.062 303.518 205.935C303.322 205.809 303.103 205.723 302.873 205.682L301.771 205.465C300.857 205.278 299.803 205.073 298.613 204.815C295.198 204.077 291.395 203.175 287.294 202.109C275.603 199.122 264.127 195.351 252.943 190.821C238.594 184.917 226.729 178.169 218.205 170.595C208.244 161.768 203.258 152.15 203.821 141.63C204.5 128.802 208.584 122.546 215.843 120.888C221.779 119.529 229.079 120.935 241.57 125.088L244.886 126.195C255.825 129.909 259.663 131.08 264.608 131.818C271.504 132.861 276.589 131.818 279.947 128.005C283.976 123.489 287.259 118.36 289.673 112.811C290.616 110.632 291.43 108.423 292.256 105.899C292.573 104.921 292.883 103.942 293.264 102.689C293.317 102.519 293.991 100.276 294.19 99.643C296.328 92.6608 297.975 89.3865 301.221 86.6861C305.24 83.3181 311.702 81.4144 322.096 81.0043C337.968 80.3424 346.071 91.1144 348.344 110.046C349.213 118.226 349.162 126.479 348.192 134.648C348.022 136.153 347.835 137.506 347.653 138.707C347.6 139.123 347.448 140.101 347.442 140.16C347.397 140.388 347.398 140.623 347.445 140.852C347.492 141.08 347.584 141.296 347.715 141.489C347.847 141.681 348.015 141.846 348.211 141.972C348.406 142.099 348.625 142.186 348.854 142.227C349.32 142.306 349.798 142.199 350.185 141.93C350.573 141.661 350.84 141.25 350.928 140.786C350.928 140.71 351.098 139.656 351.163 139.222C351.338 137.981 351.543 136.586 351.713 135.034C352.711 126.604 352.754 118.088 351.842 109.648C350.747 100.504 348.257 92.8658 344.062 87.2778C338.964 80.5299 331.611 77.0564 321.903 77.4664Z" fill="#1D2332"/>
<path fill-rule="evenodd" clip-rule="evenodd" d="M327.62 169.348H345.988C348.491 169.348 350.892 170.341 352.663 172.109C354.434 173.877 355.43 176.276 355.433 178.778V185.995C355.43 188.497 354.434 190.896 352.663 192.664C350.892 194.432 348.491 195.425 345.988 195.425H327.62C326.382 195.425 325.156 195.181 324.012 194.707C322.867 194.233 321.828 193.539 320.952 192.663C320.077 191.787 319.383 190.747 318.909 189.603C318.436 188.459 318.193 187.233 318.193 185.995V178.778C318.193 177.54 318.436 176.314 318.909 175.17C319.383 174.026 320.077 172.986 320.952 172.11C321.828 171.234 322.867 170.54 324.012 170.066C325.156 169.592 326.382 169.348 327.62 169.348Z" fill="#1D2332"/>
<path fill-rule="evenodd" clip-rule="evenodd" d="M266.552 228.72H391.348C393.85 228.72 396.25 229.713 398.02 231.482C399.79 233.25 400.785 235.649 400.787 238.15V254.276C400.785 256.778 399.79 259.177 398.02 260.945C396.25 262.713 393.85 263.707 391.348 263.707H266.552C265.313 263.707 264.086 263.463 262.942 262.989C261.797 262.515 260.757 261.82 259.882 260.945C259.006 260.069 258.311 259.029 257.837 257.885C257.363 256.741 257.119 255.515 257.119 254.276V238.15C257.119 236.912 257.363 235.686 257.837 234.541C258.311 233.397 259.006 232.358 259.882 231.482C260.757 230.606 261.797 229.912 262.942 229.438C264.086 228.964 265.313 228.72 266.552 228.72Z" fill="#1D2332"/>
<path fill-rule="evenodd" clip-rule="evenodd" d="M211.818 169.717C211.818 169.717 236.062 205.905 245.7 222.007C255.338 238.11 275.763 274.046 294.195 260.591C312.628 247.136 295.801 206.924 273.906 173.489C252.011 140.055 215.187 129.394 211.818 169.717Z" fill="#1D2332"/>
<path fill-rule="evenodd" clip-rule="evenodd" d="M232.418 143.756C227.11 144.448 221.819 147.271 217.027 152.062C214.302 156.233 212.451 162.055 211.818 169.717C211.818 169.717 222.575 185.808 232.606 201.307C244.077 188.889 252.678 181.391 252.678 181.391C259.024 175.481 258.643 156.789 248.853 148.811C243.152 145.549 237.539 143.768 232.447 143.768L232.418 143.756Z" fill="#1D2332"/>
<path fill-rule="evenodd" clip-rule="evenodd" d="M149.907 271.872C148.501 276.775 147.804 283.616 152.128 287.037C156.452 290.458 164.291 288.326 169.119 281.18C173.947 274.033 185.887 250.492 205.744 224.455C217.668 208.817 231.005 194.308 245.585 181.109C253.94 172.241 251.537 156.227 241.483 148.307C231.429 140.388 219.172 142.028 209.259 152.408C206.107 155.699 189.262 172.704 174.855 202.349C160.448 231.994 149.907 271.872 149.907 271.872Z" fill="#1D2332"/>
<path fill-rule="evenodd" clip-rule="evenodd" d="M224.435 163.057C224.37 161.063 225.099 159.124 226.462 157.667C227.825 156.21 229.711 155.353 231.706 155.284C232.694 155.251 233.679 155.412 234.604 155.759C235.53 156.106 236.378 156.633 237.1 157.308C237.822 157.983 238.404 158.794 238.813 159.694C239.221 160.594 239.448 161.565 239.481 162.553C239.545 164.545 238.819 166.48 237.459 167.937C236.1 169.394 234.219 170.253 232.227 170.326C231.238 170.362 230.251 170.203 229.323 169.856C228.395 169.51 227.545 168.985 226.821 168.309C226.097 167.634 225.514 166.822 225.104 165.921C224.695 165.02 224.467 164.046 224.435 163.057Z" fill="#1D2332"/>
<path fill-rule="evenodd" clip-rule="evenodd" d="M222.986 160.409C222.922 158.414 223.652 156.475 225.016 155.018C226.38 153.56 228.268 152.704 230.263 152.636C231.251 152.604 232.235 152.766 233.16 153.113C234.085 153.461 234.933 153.987 235.654 154.662C236.375 155.337 236.957 156.148 237.365 157.047C237.773 157.947 238 158.918 238.032 159.906C238.069 160.896 237.91 161.883 237.564 162.812C237.218 163.74 236.693 164.591 236.017 165.316C235.342 166.041 234.53 166.625 233.628 167.036C232.726 167.446 231.752 167.675 230.761 167.708C229.771 167.742 228.783 167.579 227.856 167.23C226.929 166.881 226.079 166.352 225.357 165.674C224.634 164.996 224.053 164.182 223.646 163.278C223.239 162.375 223.015 161.4 222.986 160.409Z" fill="#1D2332"/>
<path fill-rule="evenodd" clip-rule="evenodd" d="M274.215 245.543C274.159 243.92 274.424 242.302 274.995 240.781C275.565 239.261 276.43 237.867 277.54 236.681C278.649 235.495 279.982 234.54 281.461 233.869C282.941 233.199 284.538 232.826 286.161 232.773C287.784 232.718 289.402 232.984 290.922 233.555C292.442 234.125 293.835 234.99 295.021 236.099C296.206 237.209 297.162 238.541 297.832 240.019C298.503 241.498 298.875 243.094 298.928 244.717C298.984 246.339 298.72 247.956 298.151 249.476C297.581 250.996 296.717 252.389 295.609 253.575C294.5 254.761 293.169 255.717 291.691 256.388C290.212 257.059 288.616 257.432 286.993 257.486C285.37 257.542 283.751 257.277 282.23 256.706C280.708 256.136 279.315 255.272 278.128 254.162C276.941 253.053 275.985 251.721 275.313 250.242C274.642 248.763 274.268 247.166 274.215 245.543Z" fill="#1D2332"/>
<path fill-rule="evenodd" clip-rule="evenodd" d="M225.475 161.264C227.121 158.875 229.241 156.849 231.703 155.313L225.475 161.264Z" fill="#1D2332"/>
<path fill-rule="evenodd" clip-rule="evenodd" d="M227.393 162.958C229.038 160.568 231.158 158.542 233.621 157.007L227.393 162.958Z" fill="#1D2332"/>
<path fill-rule="evenodd" clip-rule="evenodd" d="M272.492 243.897C272.442 242.408 272.686 240.924 273.21 239.529C273.734 238.135 274.527 236.857 275.545 235.769C276.563 234.681 277.786 233.804 279.143 233.189C280.5 232.573 281.965 232.231 283.454 232.182C284.943 232.13 286.428 232.371 287.823 232.894C289.219 233.416 290.497 234.208 291.586 235.225C292.674 236.242 293.551 237.464 294.167 238.82C294.782 240.177 295.124 241.641 295.172 243.13C295.223 244.618 294.98 246.102 294.457 247.496C293.935 248.89 293.142 250.168 292.125 251.256C291.108 252.344 289.887 253.221 288.531 253.836C287.175 254.452 285.711 254.795 284.222 254.845C282.732 254.897 281.247 254.656 279.851 254.134C278.455 253.612 277.176 252.819 276.086 251.803C274.997 250.786 274.119 249.564 273.502 248.208C272.885 246.851 272.542 245.386 272.492 243.897Z" fill="#1D2332"/>
<path fill-rule="evenodd" clip-rule="evenodd" d="M276.971 245.42C279.427 241.852 282.592 238.83 286.269 236.54L276.971 245.42Z" fill="#1D2332"/>
<path fill-rule="evenodd" clip-rule="evenodd" d="M279.83 247.991C282.286 244.424 285.451 241.401 289.128 239.111L279.83 247.991Z" fill="#1D2332"/>
<path fill-rule="evenodd" clip-rule="evenodd" d="M463.832 152.929C463.832 152.929 434.279 184.946 422.309 199.373C410.339 213.801 384.56 246.152 368.436 230.014C352.312 213.877 375.138 176.746 401.932 147.089C428.725 117.432 466.72 112.571 463.832 152.929Z" fill="#1D2332"/>
<path fill-rule="evenodd" clip-rule="evenodd" d="M447.464 124.11C452.609 125.61 457.425 129.23 461.403 134.683C463.442 139.229 464.379 145.268 463.829 152.935C463.829 152.935 450.71 167.175 438.412 180.934C428.991 166.876 421.656 158.154 421.656 158.154C416.289 151.336 419.552 132.92 430.444 126.559C436.578 124.216 442.396 123.32 447.435 124.105L447.464 124.11Z" fill="#1D2332"/>
<path fill-rule="evenodd" clip-rule="evenodd" d="M509.233 263.414C509.86 268.475 509.496 275.346 504.692 278.058C499.888 280.77 492.488 277.472 488.808 269.664C485.129 261.856 476.991 236.762 461.382 207.978C452.02 190.681 441.086 174.281 428.719 158.986C421.828 148.934 426.674 133.476 437.818 127.197C448.961 120.918 460.832 124.438 469.04 136.241C471.642 139.978 485.662 159.378 495.329 190.886C504.997 222.394 509.233 263.414 509.233 263.414Z" fill="#1D2332"/>
<path fill-rule="evenodd" clip-rule="evenodd" d="M452.389 144.406C452.76 142.448 452.338 140.423 451.216 138.776C450.095 137.129 448.365 135.994 446.407 135.62C444.449 135.253 442.425 135.676 440.778 136.797C439.131 137.917 437.995 139.645 437.619 141.601C437.251 143.558 437.674 145.582 438.795 147.228C439.916 148.875 441.644 150.011 443.601 150.387C445.559 150.754 447.583 150.331 449.23 149.211C450.877 148.09 452.013 146.362 452.389 144.406Z" fill="#1D2332"/>
<path fill-rule="evenodd" clip-rule="evenodd" d="M454.218 142.017C454.402 141.047 454.394 140.051 454.193 139.084C453.992 138.118 453.603 137.201 453.047 136.385C452.492 135.569 451.781 134.87 450.956 134.329C450.13 133.788 449.206 133.415 448.236 133.23C446.277 132.86 444.25 133.282 442.602 134.405C440.955 135.527 439.82 137.258 439.448 139.217C439.263 140.186 439.272 141.183 439.473 142.149C439.674 143.115 440.063 144.033 440.618 144.849C441.174 145.664 441.885 146.363 442.71 146.904C443.536 147.445 444.46 147.819 445.43 148.003C446.4 148.187 447.397 148.178 448.364 147.977C449.331 147.776 450.248 147.386 451.065 146.83C451.881 146.275 452.579 145.563 453.12 144.737C453.662 143.911 454.035 142.987 454.218 142.017Z" fill="#1D2332"/>
<path fill-rule="evenodd" clip-rule="evenodd" d="M390.471 218.229C390.775 216.634 390.762 214.995 390.432 213.405C390.102 211.815 389.462 210.306 388.549 208.963C387.635 207.621 386.466 206.471 385.108 205.581C383.75 204.69 382.23 204.076 380.634 203.773C379.039 203.469 377.401 203.482 375.811 203.811C374.221 204.141 372.712 204.78 371.37 205.693C370.028 206.606 368.878 207.774 367.988 209.131C367.097 210.488 366.483 212.007 366.18 213.602C365.572 216.819 366.266 220.147 368.109 222.854C369.953 225.56 372.794 227.426 376.011 228.041C379.23 228.655 382.561 227.967 385.273 226.127C387.984 224.287 389.854 221.447 390.471 218.229Z" fill="#1D2332"/>
<path fill-rule="evenodd" clip-rule="evenodd" d="M451.644 142.45C450.383 139.836 448.6 137.508 446.406 135.608L451.644 142.45Z" fill="#1D2332"/>
<path fill-rule="evenodd" clip-rule="evenodd" d="M449.477 143.856C448.223 141.242 446.444 138.913 444.251 137.015L449.477 143.856Z" fill="#1D2332"/>
<path fill-rule="evenodd" clip-rule="evenodd" d="M392.43 216.864C392.708 215.4 392.695 213.895 392.392 212.436C392.088 210.977 391.499 209.593 390.659 208.361C389.82 207.13 388.745 206.077 387.498 205.261C386.251 204.445 384.854 203.884 383.39 203.608C380.439 203.052 377.389 203.688 374.907 205.377C372.425 207.065 370.714 209.669 370.148 212.617C369.587 215.57 370.221 218.625 371.91 221.111C373.599 223.597 376.207 225.312 379.16 225.878C380.623 226.158 382.127 226.146 383.586 225.844C385.045 225.543 386.43 224.956 387.663 224.119C388.895 223.282 389.95 222.211 390.768 220.966C391.586 219.721 392.151 218.327 392.43 216.864Z" fill="#1D2332"/>
<path fill-rule="evenodd" clip-rule="evenodd" d="M387.769 217.684C385.887 213.78 383.225 210.304 379.947 207.469L387.769 217.684Z" fill="#1D2332"/>
<path fill-rule="evenodd" clip-rule="evenodd" d="M384.561 219.781C382.68 215.879 380.018 212.404 376.739 209.571L384.561 219.781Z" fill="#1D2332"/>
<path fill-rule="evenodd" clip-rule="evenodd" d="M233.981 218.393H266.205C268.707 218.393 271.106 219.387 272.875 221.156C274.644 222.924 275.638 225.323 275.638 227.824V295.988C275.632 298.485 274.635 300.878 272.867 302.641C271.099 304.405 268.703 305.395 266.205 305.395H233.981C232.742 305.398 231.515 305.157 230.37 304.686C229.225 304.215 228.184 303.523 227.306 302.649C226.428 301.776 225.731 300.738 225.255 299.595C224.779 298.452 224.533 297.226 224.53 295.988V227.824C224.53 226.584 224.774 225.356 225.248 224.21C225.723 223.064 226.42 222.024 227.298 221.148C228.176 220.271 229.218 219.577 230.365 219.105C231.511 218.632 232.74 218.39 233.981 218.393Z" fill="#1D2332"/>
<path d="M266.207 307.117H233.982C231.03 307.117 228.198 305.945 226.111 303.858C224.023 301.77 222.85 298.94 222.85 295.988V227.824C222.85 224.872 224.023 222.041 226.111 219.954C228.198 217.867 231.03 216.695 233.982 216.695H266.207C269.156 216.704 271.982 217.879 274.068 219.965C276.154 222.05 277.329 224.875 277.339 227.824V295.988C277.329 298.937 276.154 301.762 274.068 303.847C271.982 305.933 269.156 307.108 266.207 307.117ZM233.982 220.11C231.937 220.113 229.976 220.926 228.529 222.372C227.083 223.818 226.269 225.779 226.266 227.824V295.988C226.275 298.029 227.092 299.983 228.538 301.424C229.983 302.865 231.941 303.676 233.982 303.679H266.207C268.243 303.668 270.193 302.854 271.632 301.414C273.072 299.974 273.884 298.024 273.894 295.988V227.824C273.891 225.784 273.081 223.828 271.641 222.383C270.2 220.938 268.247 220.12 266.207 220.11H233.982Z" fill="#1D2332"/>
<path fill-rule="evenodd" clip-rule="evenodd" d="M175.822 206.397C175.822 206.397 198.831 243.375 207.906 259.788C216.982 276.201 236.217 312.805 255.077 299.977C273.937 287.149 258.487 246.392 237.722 212.225C216.958 178.058 180.545 166.208 175.822 206.397Z" fill="#1F75BA"/>
<path d="M246.913 304.37C245.65 304.366 244.391 304.213 243.164 303.913C228.247 300.334 215.146 276.523 207.324 262.289L206.398 260.62C197.469 244.43 174.596 207.674 174.362 207.316C174.156 206.986 174.07 206.596 174.115 206.209C175.873 191.331 182.236 181.959 192.067 179.85C206.598 176.682 225.973 189.656 239.191 211.393C250.722 230.325 259.176 248.905 262.926 263.683C267.695 282.357 265.381 295.045 256.048 301.394C253.378 303.296 250.191 304.334 246.913 304.37ZM177.596 206.004C180.42 210.538 201.032 243.75 209.404 258.962L210.33 260.638C217.361 273.471 230.52 297.353 243.966 300.574C247.534 301.435 250.856 300.773 254.114 298.559C271.89 286.475 256.546 246.509 236.256 213.139C223.987 192.954 205.707 180.337 192.8 183.16C184.515 184.964 179.266 192.86 177.596 206.004Z" fill="#1D2332"/>
<path fill-rule="evenodd" clip-rule="evenodd" d="M197.283 181.145C191.952 181.655 186.567 184.314 181.616 188.924C178.757 193.024 176.718 198.764 175.81 206.397C175.81 206.397 186.04 222.839 195.543 238.66C207.413 226.64 216.26 219.418 216.26 219.418C222.811 213.73 223.051 195.027 213.542 186.733C207.958 183.283 202.41 181.315 197.295 181.145H197.283Z" fill="#1D2332"/>
<path fill-rule="evenodd" clip-rule="evenodd" d="M110.522 306.42C108.958 311.276 108.02 318.088 112.233 321.65C116.445 325.211 124.337 323.349 129.411 316.378C134.485 309.408 147.182 286.27 167.899 260.919C180.341 245.683 194.156 231.62 209.17 218.909C217.823 210.327 215.949 194.237 206.193 185.984C196.438 177.73 184.105 178.955 173.822 189.018C170.571 192.198 153.17 208.635 137.766 237.776C122.363 266.917 110.522 306.42 110.522 306.42Z" fill="white"/>
<path d="M117.419 325.141C115.129 325.185 112.898 324.412 111.126 322.962C105.853 318.492 107.447 310.368 108.882 305.91C109.181 304.92 121.075 265.71 136.249 236.973C143.093 224.028 154.893 205.044 172.241 188.162L172.622 187.793C183.596 177.08 196.884 175.861 207.301 184.695C210.033 187.076 212.249 189.989 213.815 193.257C215.38 196.524 216.262 200.076 216.406 203.696C216.664 210.187 214.526 215.997 210.383 220.127L210.254 220.244C195.345 232.899 181.614 246.88 169.23 262.014C154.301 280.284 143.345 297.745 136.806 308.13C134.252 312.231 132.23 315.417 130.801 317.385C127.643 321.726 123.295 324.514 118.872 325.053C118.39 325.111 117.904 325.14 117.419 325.141ZM192.115 182.217C186.379 182.217 180.467 184.906 175.024 190.23L174.638 190.611C157.605 207.193 146.011 225.85 139.284 238.584C124.151 267.239 112.28 306.531 112.163 306.918C112.166 306.929 112.166 306.941 112.163 306.953C111.226 309.882 109.45 317.046 113.335 320.349C114.05 320.91 114.874 321.316 115.755 321.54C116.636 321.764 117.554 321.801 118.45 321.65C121.883 321.234 125.481 318.891 128.018 315.376C129.377 313.502 131.375 310.327 133.877 306.315C140.462 295.83 151.454 278.286 166.552 259.835C179.067 244.558 192.937 230.443 207.993 217.661C211.409 214.246 213.166 209.349 212.949 203.86C212.83 200.713 212.069 197.622 210.713 194.779C209.357 191.936 207.434 189.399 205.063 187.325C201.079 183.904 196.65 182.229 192.115 182.229V182.217Z" fill="#1D2332"/>
<path fill-rule="evenodd" clip-rule="evenodd" d="M188.649 200.164C188.649 198.168 189.443 196.253 190.855 194.842C192.266 193.43 194.181 192.637 196.178 192.637C197.167 192.637 198.145 192.832 199.058 193.21C199.972 193.589 200.801 194.143 201.5 194.842C202.198 195.541 202.752 196.371 203.13 197.284C203.508 198.197 203.702 199.176 203.701 200.164C203.701 202.159 202.909 204.073 201.498 205.484C200.087 206.896 198.174 207.69 196.178 207.691C194.181 207.691 192.266 206.898 190.855 205.486C189.443 204.075 188.649 202.16 188.649 200.164Z" fill="#1D2332"/>
<path fill-rule="evenodd" clip-rule="evenodd" d="M187.294 197.47C187.301 195.479 188.096 193.572 189.506 192.165C190.916 190.759 192.826 189.968 194.817 189.967C196.809 189.97 198.719 190.761 200.129 192.167C201.54 193.572 202.337 195.479 202.346 197.47C202.345 198.46 202.15 199.439 201.77 200.353C201.391 201.266 200.835 202.096 200.135 202.795C199.435 203.494 198.604 204.048 197.689 204.426C196.775 204.804 195.795 204.998 194.806 204.997C192.811 204.994 190.9 204.2 189.492 202.788C188.083 201.377 187.293 199.464 187.294 197.47Z" fill="white"/>
<path d="M194.815 206.713C192.365 206.708 190.017 205.733 188.285 204C186.553 202.267 185.579 199.919 185.576 197.47C185.574 195.017 186.546 192.664 188.279 190.928C190.011 189.191 192.362 188.213 194.815 188.209C196.034 188.206 197.241 188.443 198.367 188.907C199.494 189.371 200.518 190.053 201.38 190.913C202.243 191.773 202.927 192.795 203.394 193.92C203.861 195.045 204.102 196.251 204.102 197.47C204.099 198.686 203.857 199.89 203.389 201.013C202.921 202.137 202.237 203.156 201.374 204.015C200.512 204.873 199.489 205.553 198.363 206.016C197.238 206.479 196.032 206.716 194.815 206.713ZM194.815 191.659C193.275 191.662 191.799 192.275 190.711 193.365C189.623 194.454 189.011 195.93 189.009 197.47C189.011 199.009 189.623 200.485 190.711 201.575C191.799 202.664 193.275 203.277 194.815 203.28C196.358 203.28 197.837 202.668 198.929 201.579C200.021 200.49 200.636 199.012 200.639 197.47C200.636 195.927 200.021 194.449 198.929 193.36C197.837 192.271 196.358 191.659 194.815 191.659Z" fill="#1D2332"/>
<path fill-rule="evenodd" clip-rule="evenodd" d="M235.641 284.273C235.641 280.993 236.944 277.848 239.263 275.529C241.583 273.21 244.729 271.907 248.009 271.907C251.289 271.907 254.435 273.21 256.755 275.529C259.074 277.848 260.377 280.993 260.377 284.273C260.376 287.551 259.072 290.695 256.753 293.012C254.433 295.33 251.288 296.632 248.009 296.632C244.73 296.632 241.585 295.33 239.265 293.012C236.946 290.695 235.642 287.551 235.641 284.273Z" fill="#1D2332"/>
<path d="M189.747 199.52C189.515 199.519 189.289 199.45 189.096 199.321C188.853 199.144 188.687 198.881 188.633 198.586C188.578 198.29 188.639 197.985 188.803 197.733C190.625 195.25 192.946 193.175 195.617 191.642C195.884 191.5 196.194 191.467 196.485 191.549C196.775 191.631 197.023 191.821 197.176 192.081C197.317 192.347 197.351 192.658 197.269 192.948C197.187 193.238 196.996 193.486 196.736 193.639C194.377 195.007 192.32 196.841 190.69 199.028C190.583 199.179 190.441 199.302 190.277 199.387C190.113 199.473 189.932 199.518 189.747 199.52Z" fill="#1D2332"/>
<path d="M191.604 201.307C191.374 201.305 191.15 201.236 190.959 201.107C190.714 200.932 190.545 200.668 190.49 200.371C190.434 200.074 190.495 199.767 190.661 199.514C192.488 197.036 194.811 194.963 197.48 193.428C197.747 193.287 198.057 193.254 198.348 193.335C198.638 193.417 198.886 193.608 199.039 193.868C199.178 194.133 199.211 194.442 199.129 194.731C199.047 195.02 198.858 195.267 198.599 195.42C196.238 196.786 194.181 198.62 192.553 200.809C192.446 200.961 192.304 201.086 192.139 201.173C191.974 201.259 191.79 201.305 191.604 201.307Z" fill="#1D2332"/>
<path fill-rule="evenodd" clip-rule="evenodd" d="M233.984 282.568C233.983 281.079 234.276 279.605 234.845 278.229C235.415 276.853 236.25 275.603 237.302 274.55C238.355 273.497 239.605 272.661 240.981 272.091C242.357 271.521 243.832 271.228 245.321 271.228C246.81 271.228 248.285 271.521 249.661 272.091C251.037 272.661 252.287 273.497 253.34 274.55C254.393 275.603 255.227 276.853 255.797 278.229C256.366 279.605 256.659 281.079 256.658 282.568C256.658 285.574 255.464 288.457 253.338 290.583C251.211 292.708 248.328 293.903 245.321 293.903C243.832 293.903 242.357 293.611 240.982 293.041C239.606 292.472 238.356 291.637 237.303 290.585C236.25 289.532 235.415 288.282 234.845 286.907C234.276 285.531 233.983 284.057 233.984 282.568Z" fill="#1F75BA"/>
<path d="M245.319 295.618C241.858 295.614 238.541 294.237 236.094 291.791C233.647 289.344 232.27 286.028 232.265 282.568C232.268 279.108 233.645 275.79 236.092 273.343C238.539 270.896 241.858 269.52 245.319 269.517C248.779 269.522 252.096 270.899 254.542 273.345C256.988 275.792 258.364 279.109 258.367 282.568C258.364 286.027 256.988 289.344 254.542 291.791C252.096 294.237 248.779 295.614 245.319 295.618ZM245.319 272.944C242.767 272.947 240.32 273.962 238.516 275.766C236.711 277.57 235.696 280.016 235.693 282.568C235.697 285.118 236.713 287.563 238.518 289.366C240.322 291.169 242.768 292.183 245.319 292.186C247.869 292.183 250.315 291.169 252.118 289.365C253.922 287.562 254.936 285.118 254.939 282.568C254.936 280.017 253.922 277.572 252.119 275.768C250.315 273.964 247.87 272.949 245.319 272.944Z" fill="#1D2332"/>
<path d="M238.403 285.954C238.056 285.955 237.716 285.851 237.43 285.655C237.056 285.397 236.8 285.001 236.717 284.554C236.635 284.107 236.733 283.646 236.991 283.271C239.708 279.566 243.168 276.467 247.15 274.174C247.347 274.063 247.564 273.992 247.788 273.964C248.013 273.937 248.241 273.955 248.458 274.015C248.676 274.076 248.88 274.18 249.057 274.32C249.235 274.46 249.383 274.633 249.494 274.83C249.605 275.027 249.676 275.244 249.704 275.469C249.731 275.693 249.714 275.921 249.653 276.138C249.592 276.356 249.488 276.56 249.348 276.737C249.209 276.915 249.035 277.063 248.838 277.173C245.327 279.217 242.267 281.951 239.844 285.21C239.684 285.443 239.468 285.633 239.217 285.763C238.965 285.893 238.686 285.958 238.403 285.954Z" fill="#1D2332"/>
<path d="M241.179 288.619C240.832 288.621 240.493 288.517 240.207 288.32C239.833 288.062 239.577 287.667 239.493 287.22C239.41 286.774 239.506 286.312 239.761 285.936C242.481 282.232 245.943 279.136 249.927 276.845C250.123 276.733 250.34 276.661 250.565 276.634C250.79 276.606 251.018 276.623 251.236 276.684C251.454 276.745 251.657 276.849 251.835 276.989C252.013 277.129 252.161 277.304 252.27 277.502C252.494 277.899 252.55 278.369 252.427 278.809C252.304 279.248 252.012 279.621 251.614 279.845C248.093 281.885 245.025 284.621 242.597 287.887C242.438 288.115 242.226 288.3 241.979 288.428C241.732 288.555 241.457 288.621 241.179 288.619Z" fill="#1D2332"/>
<path fill-rule="evenodd" clip-rule="evenodd" d="M407.116 218.393H374.892C372.39 218.393 369.991 219.387 368.222 221.155C366.453 222.924 365.459 225.323 365.459 227.824V295.988C365.459 298.489 366.453 300.888 368.222 302.656C369.991 304.425 372.39 305.419 374.892 305.419H407.116C408.355 305.419 409.581 305.175 410.725 304.701C411.869 304.227 412.909 303.532 413.784 302.656C414.66 301.78 415.354 300.741 415.828 299.597C416.301 298.452 416.544 297.226 416.543 295.988V227.824C416.544 226.586 416.301 225.36 415.828 224.215C415.354 223.071 414.66 222.032 413.784 221.156C412.909 220.28 411.869 219.585 410.725 219.111C409.581 218.637 408.355 218.393 407.116 218.393Z" fill="#1D2332"/>
<path d="M407.118 307.117H374.893C371.944 307.108 369.118 305.933 367.032 303.847C364.946 301.762 363.771 298.937 363.761 295.988V227.824C363.771 224.875 364.946 222.05 367.032 219.965C369.118 217.879 371.944 216.704 374.893 216.695H407.118C410.07 216.695 412.902 217.867 414.989 219.954C417.077 222.041 418.25 224.872 418.25 227.824V295.988C418.25 298.94 417.077 301.77 414.989 303.858C412.902 305.945 410.07 307.117 407.118 307.117ZM374.893 220.115C372.848 220.118 370.887 220.932 369.44 222.378C367.994 223.824 367.18 225.785 367.177 227.83V295.988C367.18 298.033 367.994 299.993 369.44 301.439C370.887 302.885 372.848 303.699 374.893 303.702H407.118C409.163 303.699 411.123 302.885 412.568 301.439C414.014 299.993 414.827 298.032 414.828 295.988V227.824C414.827 225.779 414.014 223.819 412.568 222.373C411.123 220.927 409.163 220.113 407.118 220.11L374.893 220.115Z" fill="#1D2332"/>
<path fill-rule="evenodd" clip-rule="evenodd" d="M261.408 191.354H404.742C407.244 191.354 409.643 192.348 411.412 194.117C413.181 195.885 414.175 198.284 414.175 200.785V231.168C414.175 233.669 413.181 236.068 411.412 237.837C409.643 239.605 407.244 240.599 404.742 240.599H261.408C258.906 240.599 256.507 239.605 254.738 237.837C252.969 236.068 251.975 233.669 251.975 231.168V200.785C251.975 198.284 252.969 195.885 254.738 194.117C256.507 192.348 258.906 191.354 261.408 191.354Z" fill="#4F5865"/>
<path d="M404.744 242.315H261.41C258.457 242.315 255.626 241.142 253.538 239.055C251.451 236.968 250.278 234.137 250.278 231.186V200.785C250.287 197.836 251.463 195.011 253.549 192.926C255.634 190.841 258.46 189.665 261.41 189.656H404.744C407.694 189.665 410.52 190.841 412.605 192.926C414.691 195.011 415.867 197.836 415.876 200.785V231.168C415.879 232.631 415.592 234.08 415.034 235.432C414.476 236.785 413.656 238.014 412.622 239.049C411.588 240.084 410.36 240.906 409.008 241.466C407.657 242.027 406.208 242.315 404.744 242.315ZM261.41 193.071C259.364 193.074 257.404 193.888 255.957 195.334C254.511 196.78 253.697 198.74 253.694 200.785V231.168C253.695 233.214 254.509 235.175 255.955 236.621C257.402 238.068 259.364 238.881 261.41 238.882H404.744C406.79 238.881 408.752 238.068 410.199 236.621C411.645 235.175 412.459 233.214 412.46 231.168V200.785C412.457 198.74 411.643 196.78 410.197 195.334C408.751 193.888 406.79 193.074 404.744 193.071H261.41Z" fill="#1D2332"/>
<path fill-rule="evenodd" clip-rule="evenodd" d="M513.609 189.897C513.609 189.897 479.592 221.176 455.805 256.157C432.955 289.709 404.831 312.817 385.995 299.989C367.158 287.161 391.414 250.715 416.971 219.993C447.192 183.658 508.893 149.714 513.609 189.897Z" fill="#1F75BA"/>
<path d="M397.726 305.272C393.196 305.31 388.764 303.956 385.029 301.394C383.044 300.083 381.367 298.357 380.116 296.334C378.864 294.311 378.068 292.04 377.782 289.679C375.731 275.158 388.123 252.009 415.654 218.908C427.021 205.243 443.226 191.548 459.011 182.281C476.447 172.036 491.587 168.035 501.646 171.023C507.078 172.634 513.857 177.185 515.327 189.72C515.359 189.989 515.327 190.262 515.234 190.517C515.14 190.772 514.987 191 514.788 191.184C514.437 191.471 480.648 222.71 457.212 257.111C445.084 274.935 432.346 288.683 420.376 296.872C412.215 302.46 404.563 305.272 397.726 305.272ZM494.329 173.477C485.54 173.477 473.892 177.519 460.739 185.245C445.289 194.324 429.423 207.732 418.291 221.111C391.79 252.94 379.287 275.855 381.18 289.175C381.394 291.066 382.024 292.887 383.024 294.507C384.023 296.127 385.368 297.507 386.963 298.547C395.236 304.17 405.829 302.647 418.449 294.025C430.073 286.082 442.5 272.645 454.382 255.166C476.201 223.096 506.943 193.785 511.8 189.234C510.628 181.156 506.902 176.131 500.668 174.28C498.606 173.696 496.471 173.416 494.329 173.448V173.477Z" fill="#1D2332"/>
<path fill-rule="evenodd" clip-rule="evenodd" d="M492.136 172.394C497.474 172.903 502.864 175.562 507.809 180.172C510.668 184.273 512.719 190.013 513.61 197.645C513.61 197.645 503.397 214.087 493.882 229.909C482.006 217.889 473.165 210.667 473.165 210.667C466.615 204.979 466.369 186.276 475.884 177.982C481.473 174.532 487.016 172.563 492.125 172.394H492.136Z" fill="#1D2332"/>
<path fill-rule="evenodd" clip-rule="evenodd" d="M552.126 322.751C552.677 328.286 552.308 335.784 547.802 338.713C543.297 341.641 536.407 337.975 533.014 329.434C529.622 320.894 522.146 293.411 507.733 261.856C493.32 230.302 477.512 208.125 477.512 208.125C471.143 197.101 475.754 180.243 486.183 173.46C496.612 166.677 507.698 170.596 515.303 183.547C517.705 187.647 530.682 208.933 539.529 243.422C548.377 277.912 552.126 322.751 552.126 322.751Z" fill="white"/>
<path d="M544.359 341.425C543.4 341.421 542.447 341.269 541.534 340.974C537.375 339.65 533.584 335.573 531.398 330.067C530.449 327.671 529.19 323.829 527.596 318.938C523.495 306.379 516.593 285.351 506.17 262.547C492.008 231.502 476.289 209.308 476.113 209.091L476.025 208.951C469.346 197.388 473.828 179.423 485.247 171.99C490.186 168.786 495.465 167.72 500.522 168.915C506.75 170.385 512.368 175.135 516.78 182.651L517.073 183.143C529.904 204.892 537.269 227.66 541.189 242.971C549.919 276.992 553.733 321.574 553.815 322.569C554.313 327.578 554.307 336.493 548.712 340.142C547.418 340.987 545.904 341.433 544.359 341.425ZM478.96 207.194C490.58 224.288 500.727 242.337 509.292 261.147C519.792 284.126 526.717 305.266 530.859 317.895C532.435 322.704 533.678 326.506 534.586 328.802C536.396 333.359 539.384 336.686 542.577 337.705C543.275 337.959 544.021 338.052 544.76 337.977C545.498 337.902 546.21 337.661 546.843 337.272C551.073 334.525 550.739 326.324 550.399 322.921C550.364 322.476 546.579 277.818 537.873 243.844C534.006 228.773 526.741 206.309 514.12 184.906L513.827 184.408C509.902 177.719 505.039 173.525 499.766 172.277C495.582 171.293 491.341 172.171 487.151 174.895C477.308 181.28 473.277 197.253 478.96 207.194Z" fill="#1D2332"/>
<path fill-rule="evenodd" clip-rule="evenodd" d="M505.684 193.622C505.684 191.625 504.89 189.711 503.478 188.299C502.067 186.888 500.152 186.095 498.155 186.095C497.164 186.092 496.183 186.284 495.267 186.661C494.352 187.038 493.519 187.592 492.818 188.291C492.117 188.991 491.561 189.822 491.182 190.736C490.802 191.651 490.608 192.632 490.608 193.622C490.608 194.61 490.802 195.589 491.179 196.502C491.557 197.415 492.111 198.245 492.81 198.944C493.508 199.643 494.338 200.197 495.251 200.576C496.164 200.954 497.143 201.149 498.131 201.149C499.122 201.152 500.104 200.959 501.02 200.582C501.936 200.206 502.769 199.652 503.47 198.952C504.172 198.253 504.728 197.422 505.108 196.508C505.488 195.593 505.684 194.612 505.684 193.622Z" fill="#1D2332"/>
<path fill-rule="evenodd" clip-rule="evenodd" d="M507.042 190.927C507.042 188.931 506.249 187.016 504.837 185.605C503.425 184.193 501.51 183.4 499.513 183.4C497.517 183.402 495.604 184.195 494.193 185.607C492.783 187.018 491.99 188.932 491.99 190.927C491.989 191.915 492.183 192.894 492.561 193.807C492.939 194.72 493.493 195.55 494.192 196.249C494.89 196.948 495.72 197.503 496.633 197.881C497.546 198.259 498.525 198.454 499.513 198.454C501.51 198.454 503.425 197.661 504.837 196.249C506.249 194.838 507.042 192.923 507.042 190.927Z" fill="white"/>
<path d="M499.511 200.17C497.061 200.166 494.713 199.19 492.981 197.458C491.249 195.725 490.275 193.377 490.271 190.927C490.275 188.478 491.249 186.129 492.981 184.397C494.713 182.664 497.061 181.689 499.511 181.684C501.964 181.684 504.317 182.658 506.053 184.391C507.789 186.124 508.765 188.475 508.768 190.927C508.765 193.38 507.789 195.731 506.053 197.464C504.317 199.197 501.964 200.17 499.511 200.17ZM499.511 185.117C497.971 185.12 496.495 185.733 495.407 186.822C494.318 187.911 493.706 189.388 493.705 190.927C493.706 192.467 494.318 193.943 495.407 195.032C496.495 196.121 497.971 196.735 499.511 196.738C501.052 196.736 502.53 196.124 503.619 195.034C504.709 193.945 505.322 192.468 505.323 190.927C505.322 189.387 504.709 187.91 503.619 186.82C502.53 185.731 501.052 185.118 499.511 185.117Z" fill="#1D2332"/>
<path fill-rule="evenodd" clip-rule="evenodd" d="M458.831 142.034C458.83 141.046 458.635 140.067 458.256 139.154C457.877 138.241 457.321 137.412 456.622 136.714C455.922 136.015 455.092 135.461 454.178 135.084C453.264 134.706 452.285 134.512 451.296 134.513C450.308 134.512 449.329 134.706 448.416 135.084C447.502 135.462 446.672 136.016 445.973 136.714C445.274 137.412 444.719 138.242 444.341 139.155C443.962 140.068 443.768 141.046 443.768 142.034C443.771 144.028 444.565 145.94 445.977 147.349C447.388 148.758 449.302 149.549 451.296 149.549C453.292 149.551 455.207 148.76 456.62 147.351C458.033 145.942 458.828 144.03 458.831 142.034Z" fill="white"/>
<path d="M451.3 151.307C448.848 151.305 446.497 150.331 444.764 148.598C443.03 146.865 442.056 144.514 442.054 142.064C442.057 139.614 443.033 137.265 444.766 135.533C446.499 133.801 448.849 132.828 451.3 132.826C453.751 132.828 456.101 133.801 457.836 135.533C459.57 137.264 460.546 139.613 460.551 142.064C460.548 144.515 459.572 146.865 457.838 148.598C456.103 150.331 453.752 151.305 451.3 151.307ZM451.3 136.259C449.76 136.26 448.283 136.872 447.194 137.96C446.104 139.048 445.491 140.524 445.488 142.064C445.489 143.604 446.102 145.081 447.192 146.171C448.281 147.26 449.759 147.873 451.3 147.874C452.841 147.873 454.319 147.26 455.41 146.171C456.5 145.082 457.115 143.605 457.118 142.064C457.119 141.298 456.97 140.541 456.678 139.833C456.387 139.126 455.958 138.483 455.418 137.941C454.878 137.399 454.236 136.969 453.529 136.675C452.823 136.382 452.065 136.23 451.3 136.229V136.259Z" fill="#1D2332"/>
<path fill-rule="evenodd" clip-rule="evenodd" d="M236.796 160.55C236.797 158.558 236.009 156.647 234.603 155.236C233.197 153.825 231.289 153.029 229.296 153.023C227.3 153.023 225.385 153.816 223.973 155.227C222.561 156.639 221.768 158.553 221.768 160.55C221.768 161.538 221.962 162.516 222.341 163.429C222.719 164.342 223.274 165.171 223.973 165.87C224.672 166.568 225.502 167.122 226.416 167.5C227.329 167.878 228.308 168.071 229.296 168.071C231.288 168.065 233.195 167.269 234.601 165.86C236.007 164.45 236.796 162.54 236.796 160.55Z" fill="white"/>
<path d="M229.294 169.788C226.844 169.786 224.494 168.813 222.761 167.081C221.027 165.349 220.052 163 220.049 160.55C220.052 158.1 221.027 155.751 222.76 154.018C224.493 152.285 226.843 151.31 229.294 151.307C231.745 151.31 234.094 152.285 235.826 154.018C237.559 155.751 238.532 158.1 238.534 160.55C238.532 163 237.558 165.348 235.826 167.08C234.094 168.812 231.744 169.786 229.294 169.788ZM229.294 154.74C227.753 154.741 226.276 155.354 225.186 156.443C224.097 157.533 223.484 159.01 223.482 160.55C223.484 162.09 224.097 163.567 225.187 164.655C226.276 165.744 227.754 166.355 229.294 166.355C230.834 166.355 232.311 165.744 233.4 164.655C234.489 163.566 235.101 162.09 235.101 160.55C235.101 159.01 234.489 157.533 233.4 156.444C232.312 155.354 230.835 154.741 229.294 154.74Z" fill="#1D2332"/>
<path fill-rule="evenodd" clip-rule="evenodd" d="M405.433 284.273C405.433 282.648 405.113 281.04 404.491 279.539C403.869 278.039 402.958 276.675 401.809 275.527C400.66 274.379 399.295 273.468 397.794 272.847C396.293 272.226 394.684 271.907 393.059 271.907C389.78 271.909 386.636 273.212 384.317 275.531C381.999 277.85 380.697 280.994 380.697 284.273C380.698 287.55 382.001 290.693 384.319 293.01C386.637 295.328 389.781 296.631 393.059 296.632C394.683 296.633 396.292 296.314 397.793 295.693C399.294 295.072 400.658 294.162 401.807 293.015C402.956 291.867 403.867 290.504 404.49 289.004C405.112 287.504 405.433 285.897 405.433 284.273Z" fill="#1D2332"/>
<path d="M504.585 192.977C504.401 192.975 504.219 192.93 504.055 192.844C503.891 192.759 503.749 192.636 503.642 192.485C502.012 190.298 499.955 188.465 497.596 187.096C497.336 186.943 497.145 186.695 497.064 186.405C496.982 186.115 497.015 185.804 497.156 185.538C497.31 185.278 497.557 185.088 497.847 185.006C498.138 184.924 498.448 184.957 498.715 185.099C501.385 186.634 503.705 188.709 505.529 191.19C505.692 191.443 505.752 191.748 505.697 192.044C505.641 192.339 505.474 192.602 505.23 192.778C505.04 192.908 504.816 192.978 504.585 192.977Z" fill="#1D2332"/>
<path d="M456.378 144.09C456.193 144.088 456.011 144.041 455.847 143.955C455.683 143.868 455.542 143.744 455.435 143.592C453.799 141.409 451.741 139.577 449.383 138.203C449.124 138.049 448.935 137.801 448.854 137.511C448.773 137.221 448.807 136.911 448.949 136.645C449.102 136.385 449.35 136.195 449.64 136.113C449.931 136.031 450.241 136.064 450.508 136.206C453.175 137.745 455.495 139.819 457.322 142.298C457.486 142.549 457.547 142.854 457.492 143.15C457.438 143.445 457.272 143.708 457.029 143.885C456.837 144.016 456.611 144.088 456.378 144.09Z" fill="#1D2332"/>
<path d="M234.339 162.6C234.153 162.598 233.971 162.551 233.807 162.465C233.643 162.378 233.502 162.254 233.396 162.102C231.77 159.916 229.717 158.082 227.361 156.713C227.101 156.56 226.91 156.312 226.829 156.022C226.747 155.732 226.78 155.421 226.921 155.155C227.075 154.895 227.322 154.705 227.613 154.623C227.903 154.541 228.214 154.574 228.48 154.716C231.146 156.252 233.463 158.326 235.282 160.808C235.446 161.059 235.507 161.364 235.453 161.66C235.398 161.955 235.232 162.218 234.989 162.395C234.799 162.53 234.572 162.601 234.339 162.6Z" fill="#1D2332"/>
<path d="M502.728 194.764C502.542 194.763 502.359 194.718 502.194 194.633C502.029 194.547 501.887 194.423 501.779 194.272C500.15 192.082 498.093 190.247 495.732 188.877C495.473 188.724 495.282 188.476 495.2 188.186C495.118 187.896 495.152 187.585 495.293 187.319C495.447 187.06 495.695 186.871 495.985 186.79C496.276 186.71 496.586 186.744 496.851 186.886C499.522 188.418 501.843 190.491 503.666 192.972C503.831 193.224 503.893 193.53 503.839 193.827C503.784 194.124 503.617 194.388 503.373 194.565C503.182 194.693 502.958 194.762 502.728 194.764Z" fill="#1D2332"/>
<path d="M454.517 145.871C454.332 145.869 454.15 145.824 453.986 145.738C453.822 145.652 453.681 145.529 453.574 145.379C451.946 143.19 449.888 141.356 447.527 139.99C447.268 139.837 447.077 139.589 446.995 139.299C446.913 139.009 446.947 138.698 447.088 138.432C447.241 138.172 447.489 137.982 447.779 137.9C448.069 137.818 448.38 137.851 448.646 137.992C451.317 139.525 453.636 141.6 455.455 144.084C455.619 144.336 455.68 144.641 455.625 144.936C455.571 145.232 455.405 145.495 455.162 145.672C454.971 145.8 454.747 145.869 454.517 145.871Z" fill="#1D2332"/>
<path d="M232.492 164.387C232.307 164.384 232.125 164.338 231.961 164.251C231.797 164.165 231.655 164.04 231.549 163.889C229.912 161.706 227.854 159.873 225.497 158.5C225.238 158.346 225.048 158.098 224.968 157.808C224.887 157.517 224.921 157.207 225.063 156.942C225.216 156.682 225.464 156.492 225.754 156.41C226.044 156.328 226.355 156.361 226.621 156.502C229.289 158.039 231.607 160.114 233.43 162.594C233.515 162.718 233.576 162.856 233.607 163.003C233.639 163.15 233.641 163.301 233.614 163.449C233.587 163.597 233.531 163.737 233.449 163.863C233.367 163.989 233.261 164.097 233.137 164.182C232.949 164.316 232.723 164.388 232.492 164.387Z" fill="#1D2332"/>
<path fill-rule="evenodd" clip-rule="evenodd" d="M407.094 282.568C407.095 281.079 406.802 279.604 406.232 278.228C405.663 276.851 404.827 275.601 403.774 274.548C402.72 273.495 401.469 272.659 400.093 272.09C398.716 271.52 397.241 271.227 395.751 271.228C394.262 271.229 392.788 271.523 391.413 272.093C390.038 272.663 388.789 273.499 387.736 274.552C386.684 275.605 385.85 276.855 385.281 278.23C384.712 279.606 384.419 281.08 384.42 282.568C384.419 284.056 384.712 285.53 385.281 286.905C385.85 288.28 386.684 289.53 387.737 290.582C388.789 291.635 390.038 292.47 391.414 293.04C392.789 293.609 394.263 293.903 395.751 293.903C397.241 293.904 398.716 293.612 400.092 293.043C401.469 292.474 402.72 291.639 403.773 290.587C404.827 289.534 405.662 288.284 406.232 286.908C406.802 285.532 407.095 284.057 407.094 282.568Z" fill="#1F75BA"/>
<path d="M395.75 295.618C392.289 295.614 388.973 294.237 386.526 291.791C384.08 289.344 382.705 286.027 382.702 282.568C382.705 279.109 384.08 275.792 386.526 273.345C388.973 270.899 392.289 269.522 395.75 269.517C399.211 269.52 402.53 270.896 404.979 273.343C407.427 275.789 408.805 279.107 408.809 282.568C408.805 286.029 407.427 289.346 404.979 291.793C402.53 294.24 399.211 295.615 395.75 295.618ZM395.75 272.944C393.199 272.949 390.754 273.964 388.952 275.769C387.15 277.573 386.137 280.018 386.135 282.568C386.138 285.117 387.152 287.561 388.954 289.363C390.756 291.166 393.2 292.181 395.75 292.186C398.301 292.183 400.747 291.169 402.551 289.366C404.355 287.563 405.371 285.118 405.376 282.568C405.373 280.016 404.358 277.57 402.553 275.766C400.748 273.962 398.302 272.947 395.75 272.944Z" fill="#1D2332"/>
<path d="M402.673 285.96C402.394 285.959 402.119 285.891 401.872 285.76C401.625 285.629 401.413 285.441 401.255 285.21C398.825 281.949 395.76 279.213 392.244 277.168C392.046 277.058 391.872 276.91 391.732 276.732C391.591 276.555 391.488 276.351 391.427 276.133C391.366 275.915 391.348 275.687 391.376 275.463C391.404 275.238 391.476 275.021 391.588 274.825C391.698 274.627 391.847 274.454 392.024 274.314C392.202 274.174 392.406 274.071 392.623 274.01C392.841 273.949 393.069 273.931 393.293 273.959C393.518 273.986 393.735 274.057 393.932 274.169C397.914 276.462 401.374 279.56 404.091 283.265C404.219 283.451 404.309 283.66 404.356 283.88C404.403 284.101 404.406 284.328 404.364 284.55C404.323 284.771 404.238 284.983 404.115 285.171C403.991 285.36 403.832 285.522 403.646 285.649C403.361 285.851 403.022 285.959 402.673 285.96Z" fill="#1D2332"/>
<path d="M399.899 288.625C399.621 288.625 399.347 288.557 399.101 288.428C398.855 288.298 398.645 288.11 398.487 287.881C396.058 284.617 392.99 281.881 389.47 279.839C389.073 279.615 388.781 279.242 388.658 278.803C388.535 278.364 388.591 277.893 388.814 277.496C388.924 277.298 389.072 277.124 389.25 276.983C389.427 276.843 389.631 276.739 389.849 276.678C390.067 276.617 390.295 276.6 390.52 276.628C390.744 276.656 390.961 276.728 391.158 276.84C395.139 279.135 398.598 282.233 401.317 285.936C401.574 286.312 401.671 286.773 401.588 287.22C401.504 287.667 401.247 288.063 400.872 288.32C400.586 288.518 400.247 288.624 399.899 288.625Z" fill="#1D2332"/>
<path fill-rule="evenodd" clip-rule="evenodd" d="M277.34 187.248H386.194C387.281 187.248 388.325 187.68 389.094 188.449C389.863 189.218 390.295 190.261 390.295 191.349C390.295 192.436 389.863 193.479 389.094 194.248C388.325 195.017 387.281 195.449 386.194 195.449H277.34C276.252 195.449 275.209 195.017 274.44 194.248C273.67 193.479 273.238 192.436 273.238 191.349C273.238 190.261 273.67 189.218 274.44 188.449C275.209 187.68 276.252 187.248 277.34 187.248Z" fill="white"/>
<path d="M386.204 197.165H277.338C275.795 197.164 274.317 196.55 273.226 195.46C272.135 194.369 271.522 192.891 271.52 191.349C271.522 189.807 272.135 188.328 273.226 187.238C274.317 186.147 275.795 185.534 277.338 185.532H386.192C387.734 185.535 389.211 186.149 390.301 187.24C391.39 188.33 392.003 189.808 392.004 191.349C392.004 192.888 391.394 194.365 390.306 195.455C389.219 196.546 387.744 197.161 386.204 197.165ZM277.35 188.965C276.718 188.966 276.112 189.218 275.665 189.665C275.218 190.111 274.967 190.717 274.965 191.349C274.965 191.981 275.216 192.587 275.664 193.035C276.111 193.482 276.717 193.733 277.35 193.733H386.204C386.835 193.731 387.44 193.479 387.886 193.032C388.332 192.586 388.583 191.98 388.583 191.349C388.583 190.717 388.332 190.112 387.886 189.665C387.44 189.218 386.835 188.966 386.204 188.965H277.35Z" fill="#1D2332"/>
<path fill-rule="evenodd" clip-rule="evenodd" d="M296.223 131.28H376.714C379.217 131.28 381.617 132.273 383.386 134.042C385.156 135.81 386.152 138.209 386.153 140.71V172.341C386.153 177.548 286.791 177.548 286.791 172.341V140.71C286.791 138.209 287.784 135.811 289.553 134.042C291.322 132.273 293.722 131.28 296.223 131.28Z" fill="#1F75BA"/>
<path d="M336.473 177.953C323.419 177.953 311.244 177.607 302.198 176.975C297.288 176.629 293.439 176.213 290.755 175.733C287.879 175.211 285.072 174.526 285.072 172.335V140.705C285.082 137.756 286.257 134.931 288.343 132.845C290.429 130.76 293.255 129.585 296.204 129.575H376.695C379.645 129.585 382.471 130.76 384.556 132.845C386.642 134.931 387.818 137.756 387.827 140.705V172.335C387.827 174.526 385.021 175.211 382.144 175.733C379.461 176.213 375.611 176.629 370.707 176.975C361.708 177.607 349.527 177.953 336.473 177.953ZM288.506 171.662C291.74 173.085 309.053 174.526 336.473 174.526C363.893 174.526 381.201 173.085 384.435 171.662V140.711C384.432 138.665 383.617 136.703 382.169 135.257C380.722 133.811 378.759 132.998 376.713 132.996H296.222C294.176 132.999 292.215 133.813 290.769 135.259C289.323 136.705 288.509 138.666 288.506 140.711V171.662Z" fill="#1D2332"/>
<path fill-rule="evenodd" clip-rule="evenodd" d="M353.388 147.447C353.388 144.526 354.548 141.725 356.614 139.66C358.68 137.595 361.481 136.435 364.403 136.435C367.324 136.435 370.126 137.595 372.191 139.66C374.257 141.725 375.418 144.526 375.418 147.447C375.418 150.368 374.257 153.169 372.192 155.236C370.126 157.302 367.324 158.463 364.403 158.465C361.481 158.463 358.679 157.302 356.614 155.236C354.548 153.169 353.388 150.368 353.388 147.447Z" fill="#1D2332"/>
<path fill-rule="evenodd" clip-rule="evenodd" d="M350.7 144.863C350.7 141.943 351.86 139.142 353.926 137.076C355.992 135.011 358.793 133.851 361.715 133.851C363.162 133.85 364.595 134.135 365.932 134.688C367.269 135.241 368.484 136.052 369.507 137.074C370.531 138.097 371.342 139.311 371.896 140.648C372.45 141.984 372.735 143.417 372.735 144.863C372.738 146.312 372.454 147.747 371.901 149.086C371.348 150.424 370.536 151.641 369.511 152.666C368.487 153.69 367.271 154.503 365.932 155.056C364.593 155.61 363.158 155.895 361.709 155.893C360.261 155.891 358.829 155.605 357.492 155.05C356.156 154.495 354.942 153.682 353.919 152.658C352.897 151.633 352.087 150.418 351.534 149.081C350.982 147.743 350.698 146.31 350.7 144.863Z" fill="white"/>
<path d="M361.711 157.609C358.333 157.603 355.097 156.257 352.711 153.868C350.325 151.478 348.985 148.24 348.985 144.863C348.993 141.492 350.336 138.261 352.721 135.878C355.106 133.494 358.338 132.153 361.711 132.146C365.086 132.148 368.323 133.488 370.711 135.871C373.1 138.255 374.446 141.489 374.454 144.863C374.454 148.243 373.111 151.484 370.722 153.874C368.332 156.264 365.091 157.608 361.711 157.609ZM361.711 135.579C359.249 135.584 356.889 136.563 355.147 138.303C353.406 140.043 352.424 142.402 352.418 144.863C352.417 147.33 353.394 149.696 355.137 151.442C356.879 153.189 359.243 154.172 361.711 154.177C362.934 154.177 364.145 153.936 365.275 153.468C366.405 152.999 367.431 152.313 368.296 151.448C369.16 150.584 369.846 149.557 370.313 148.427C370.781 147.297 371.021 146.086 371.021 144.863C371.014 142.399 370.031 140.037 368.285 138.297C366.54 136.556 364.176 135.579 361.711 135.579Z" fill="#1D2332"/>
<path fill-rule="evenodd" clip-rule="evenodd" d="M363.764 133.682C363.609 133.682 363.46 133.743 363.35 133.853C363.24 133.963 363.178 134.112 363.178 134.267V137.782H360.284V134.32C360.284 134.165 360.222 134.016 360.112 133.906C360.003 133.796 359.854 133.734 359.698 133.734C359.539 133.734 359.387 133.795 359.271 133.904C359.155 134.013 359.086 134.162 359.077 134.32V137.788H356.148V135.984C356.148 135.828 356.086 135.679 355.976 135.569C355.866 135.46 355.717 135.398 355.562 135.398C355.406 135.398 355.257 135.46 355.147 135.569C355.038 135.679 354.976 135.828 354.976 135.984V137.788H353.037C352.957 137.784 352.878 137.796 352.803 137.824C352.729 137.851 352.661 137.894 352.603 137.949C352.546 138.003 352.5 138.069 352.469 138.142C352.437 138.215 352.421 138.294 352.421 138.374C352.421 138.453 352.437 138.532 352.469 138.605C352.5 138.678 352.546 138.744 352.603 138.798C352.661 138.853 352.729 138.896 352.803 138.923C352.878 138.951 352.957 138.963 353.037 138.959H354.976V142.058H351.888C351.733 142.058 351.584 142.12 351.474 142.229C351.364 142.339 351.302 142.488 351.302 142.644C351.302 142.799 351.364 142.948 351.474 143.058C351.584 143.168 351.733 143.229 351.888 143.229H354.976V146.328H351.888C351.733 146.328 351.584 146.39 351.474 146.5C351.364 146.609 351.302 146.758 351.302 146.914C351.302 147.069 351.364 147.218 351.474 147.328C351.584 147.438 351.733 147.5 351.888 147.5H354.976V150.721H353.048C352.893 150.721 352.744 150.783 352.634 150.893C352.524 151.003 352.462 151.152 352.462 151.307C352.462 151.462 352.524 151.611 352.634 151.721C352.744 151.831 352.893 151.893 353.048 151.893H354.976V153.826C354.976 153.981 355.038 154.13 355.147 154.24C355.257 154.35 355.406 154.411 355.562 154.411C355.717 154.411 355.866 154.35 355.976 154.24C356.086 154.13 356.148 153.981 356.148 153.826V151.893H359.077V154.693C359.077 154.773 359.093 154.852 359.125 154.925C359.156 154.999 359.203 155.065 359.261 155.12C359.319 155.175 359.388 155.217 359.463 155.244C359.538 155.272 359.618 155.283 359.698 155.278C359.854 155.278 360.003 155.217 360.112 155.107C360.222 154.997 360.284 154.848 360.284 154.693V151.893H363.178V154.693C363.178 154.848 363.24 154.997 363.35 155.107C363.46 155.217 363.609 155.278 363.764 155.278C363.92 155.278 364.069 155.217 364.179 155.107C364.288 154.997 364.35 154.848 364.35 154.693V151.893H367.28V154.693C367.28 154.848 367.341 154.997 367.451 155.107C367.561 155.217 367.71 155.278 367.866 155.278C368.021 155.278 368.17 155.217 368.28 155.107C368.39 154.997 368.452 154.848 368.452 154.693V151.893H371.533C371.689 151.893 371.838 151.831 371.948 151.721C372.058 151.611 372.119 151.462 372.119 151.307C372.119 151.152 372.058 151.003 371.948 150.893C371.838 150.783 371.689 150.721 371.533 150.721H368.452V147.623H371.533C371.689 147.623 371.838 147.561 371.948 147.451C372.058 147.341 372.119 147.192 372.119 147.037C372.119 146.881 372.058 146.732 371.948 146.623C371.838 146.513 371.689 146.451 371.533 146.451H368.452V143.352H371.533C371.689 143.352 371.838 143.291 371.948 143.181C372.058 143.071 372.119 142.922 372.119 142.767C372.119 142.611 372.058 142.462 371.948 142.352C371.838 142.243 371.689 142.181 371.533 142.181H368.452V139.006H370.408C370.564 139.006 370.713 138.944 370.823 138.835C370.933 138.725 370.994 138.576 370.994 138.42C370.994 138.265 370.933 138.116 370.823 138.006C370.713 137.896 370.564 137.835 370.408 137.835H368.452V135.99C368.452 135.834 368.39 135.685 368.28 135.575C368.17 135.465 368.021 135.404 367.866 135.404C367.71 135.404 367.561 135.465 367.451 135.575C367.341 135.685 367.28 135.834 367.28 135.99V137.835H364.35V134.32C364.358 134.239 364.348 134.157 364.322 134.08C364.296 134.002 364.254 133.932 364.198 133.871C364.143 133.811 364.076 133.763 364.001 133.731C363.927 133.698 363.846 133.681 363.764 133.682ZM356.148 139.012H359.077V142.111H356.148V139.012ZM360.284 139.012H363.178V142.111H360.284V139.012ZM364.385 139.012H367.315V142.111H364.385V139.012ZM356.136 143.323H359.065V146.422H356.136V143.323ZM360.272 143.323H363.167V146.422H360.272V143.323ZM364.374 143.323H367.303V146.422H364.374V143.323ZM356.124 147.64H359.054V150.721H356.124V147.64ZM360.261 147.64H363.155V150.721H360.261V147.64ZM364.362 147.64H367.291V150.721H364.362V147.64Z" fill="#1D2332"/>
<path fill-rule="evenodd" clip-rule="evenodd" d="M301.896 147.447C301.896 144.526 303.056 141.725 305.122 139.66C307.187 137.595 309.989 136.435 312.91 136.435C314.358 136.434 315.791 136.718 317.128 137.271C318.466 137.824 319.681 138.635 320.705 139.658C321.729 140.68 322.541 141.894 323.096 143.231C323.65 144.567 323.936 146 323.937 147.447C323.937 148.894 323.652 150.327 323.098 151.664C322.543 153.002 321.731 154.217 320.707 155.24C319.683 156.263 318.467 157.074 317.13 157.628C315.792 158.181 314.358 158.466 312.91 158.465C309.989 158.463 307.187 157.302 305.121 155.236C303.056 153.169 301.896 150.368 301.896 147.447Z" fill="#1D2332"/>
<path fill-rule="evenodd" clip-rule="evenodd" d="M299.203 144.863C299.203 143.416 299.489 141.984 300.044 140.647C300.598 139.311 301.411 138.097 302.435 137.074C303.459 136.051 304.674 135.241 306.011 134.688C307.349 134.135 308.782 133.85 310.229 133.851C313.151 133.851 315.952 135.011 318.018 137.076C320.084 139.142 321.244 141.943 321.244 144.863C321.244 147.784 320.084 150.586 318.018 152.652C315.953 154.718 313.151 155.88 310.229 155.881C308.781 155.882 307.348 155.598 306.01 155.044C304.672 154.491 303.457 153.679 302.433 152.656C301.409 151.633 300.596 150.418 300.042 149.081C299.488 147.744 299.203 146.311 299.203 144.863Z" fill="white"/>
<path d="M310.233 157.609C306.853 157.606 303.612 156.262 301.223 153.872C298.834 151.483 297.491 148.242 297.489 144.863C297.495 141.488 298.84 138.252 301.229 135.866C303.618 133.48 306.856 132.138 310.233 132.135C313.608 132.14 316.843 133.482 319.23 135.868C321.617 138.254 322.959 141.489 322.964 144.863C322.964 148.241 321.623 151.48 319.236 153.87C316.849 156.26 313.611 157.605 310.233 157.609ZM310.233 135.579C307.768 135.581 305.404 136.559 303.659 138.299C301.914 140.039 300.93 142.399 300.923 144.863C300.926 147.33 301.908 149.695 303.653 151.439C305.399 153.183 307.765 154.164 310.233 154.165C312.698 154.161 315.06 153.179 316.802 151.435C318.544 149.691 319.523 147.328 319.525 144.863C319.519 142.402 318.538 140.043 316.796 138.303C315.055 136.563 312.695 135.584 310.233 135.579Z" fill="#1D2332"/>
<path fill-rule="evenodd" clip-rule="evenodd" d="M312.284 133.682C312.128 133.682 311.979 133.743 311.87 133.853C311.76 133.963 311.698 134.112 311.698 134.267V137.782H308.768V134.32C308.768 134.165 308.707 134.016 308.597 133.906C308.487 133.796 308.338 133.734 308.183 133.734C308.027 133.734 307.878 133.796 307.768 133.906C307.658 134.016 307.597 134.165 307.597 134.32V137.788H304.667V135.984C304.667 135.904 304.651 135.826 304.62 135.753C304.589 135.679 304.543 135.614 304.485 135.559C304.428 135.504 304.36 135.461 304.285 135.434C304.211 135.406 304.131 135.394 304.052 135.398C303.897 135.398 303.748 135.46 303.638 135.569C303.528 135.679 303.466 135.828 303.466 135.984V137.788H301.533C301.377 137.788 301.228 137.85 301.118 137.959C301.008 138.069 300.947 138.218 300.947 138.374C300.947 138.529 301.008 138.678 301.118 138.788C301.228 138.898 301.377 138.959 301.533 138.959H303.466V142.058H300.384C300.229 142.058 300.08 142.12 299.97 142.23C299.86 142.339 299.798 142.488 299.798 142.644C299.798 142.799 299.86 142.948 299.97 143.058C300.08 143.168 300.229 143.229 300.384 143.229H303.466V146.328H300.384C300.229 146.328 300.08 146.39 299.97 146.5C299.86 146.609 299.798 146.758 299.798 146.914C299.798 147.069 299.86 147.218 299.97 147.328C300.08 147.438 300.229 147.5 300.384 147.5H303.466V150.721H301.55C301.395 150.721 301.246 150.783 301.136 150.893C301.026 151.003 300.964 151.152 300.964 151.307C300.964 151.462 301.026 151.611 301.136 151.721C301.246 151.831 301.395 151.893 301.55 151.893H303.466V153.826C303.466 153.981 303.528 154.13 303.638 154.24C303.748 154.35 303.897 154.411 304.052 154.411C304.131 154.415 304.211 154.403 304.285 154.376C304.36 154.348 304.428 154.305 304.485 154.251C304.543 154.196 304.589 154.13 304.62 154.057C304.651 153.984 304.667 153.905 304.667 153.826V151.893H307.597V154.693C307.597 154.848 307.658 154.997 307.768 155.107C307.878 155.217 308.027 155.278 308.183 155.278C308.338 155.278 308.487 155.217 308.597 155.107C308.707 154.997 308.768 154.848 308.768 154.693V151.893H311.698V154.693C311.698 154.848 311.76 154.997 311.87 155.107C311.979 155.217 312.128 155.278 312.284 155.278C312.439 155.278 312.588 155.217 312.698 155.107C312.808 154.997 312.87 154.848 312.87 154.693V151.893H315.799V154.693C315.799 154.848 315.861 154.997 315.971 155.107C316.081 155.217 316.23 155.278 316.385 155.278C316.465 155.282 316.544 155.27 316.618 155.242C316.693 155.215 316.761 155.172 316.818 155.118C316.876 155.063 316.922 154.997 316.953 154.924C316.984 154.851 317 154.772 317 154.693V151.893H320.111C320.267 151.893 320.416 151.831 320.526 151.721C320.636 151.611 320.697 151.462 320.697 151.307C320.697 151.152 320.636 151.003 320.526 150.893C320.416 150.783 320.267 150.721 320.111 150.721H317.035V147.623H320.111C320.267 147.623 320.416 147.561 320.526 147.451C320.636 147.341 320.697 147.192 320.697 147.037C320.697 146.881 320.636 146.733 320.526 146.623C320.416 146.513 320.267 146.451 320.111 146.451H317.035V143.352H320.111C320.267 143.352 320.416 143.291 320.526 143.181C320.636 143.071 320.697 142.922 320.697 142.767C320.697 142.611 320.636 142.462 320.526 142.353C320.416 142.243 320.267 142.181 320.111 142.181H317.035V139.006H318.992C319.145 138.999 319.29 138.935 319.399 138.827C319.507 138.718 319.571 138.573 319.578 138.42C319.571 138.267 319.507 138.122 319.399 138.014C319.29 137.906 319.145 137.842 318.992 137.835H317.035V135.99C317.036 135.91 317.019 135.831 316.988 135.758C316.957 135.685 316.911 135.619 316.854 135.565C316.796 135.51 316.728 135.467 316.654 135.44C316.579 135.412 316.5 135.4 316.42 135.404C316.265 135.404 316.116 135.466 316.006 135.575C315.896 135.685 315.834 135.834 315.834 135.99V137.835H312.905V134.32C312.908 134.237 312.894 134.154 312.864 134.076C312.835 133.998 312.789 133.928 312.731 133.868C312.673 133.808 312.604 133.761 312.527 133.729C312.45 133.697 312.367 133.681 312.284 133.682ZM304.667 139.012H307.597V142.111H304.667V139.012ZM308.768 139.012H311.698V142.111H308.768V139.012ZM312.87 139.012H315.799V142.111H312.87V139.012ZM304.626 143.323H307.556V146.422H304.626V143.323ZM308.727 143.323H311.657V146.422H308.727V143.323ZM312.829 143.323H315.758V146.422H312.829V143.323ZM304.585 147.64H307.515V150.721H304.585V147.64ZM308.686 147.64H311.616V150.721H308.686V147.64ZM312.788 147.64H315.717V150.721H312.788V147.64Z" fill="#1D2332"/>
<path fill-rule="evenodd" clip-rule="evenodd" d="M352.919 206.719H363.945C365.61 206.72 367.207 207.382 368.385 208.56C369.562 209.737 370.224 211.333 370.226 212.998C370.226 214.664 369.564 216.262 368.387 217.44C367.209 218.619 365.611 219.282 363.945 219.283H352.919C352.093 219.283 351.276 219.121 350.514 218.805C349.751 218.489 349.059 218.026 348.475 217.442C347.892 216.858 347.429 216.165 347.114 215.403C346.799 214.64 346.637 213.823 346.638 212.998C346.637 212.173 346.799 211.356 347.114 210.594C347.43 209.832 347.892 209.139 348.476 208.556C349.059 207.973 349.752 207.51 350.514 207.195C351.276 206.88 352.093 206.718 352.919 206.719Z" fill="#1D2332"/>
<path d="M363.948 221.011H352.922C350.801 221.007 348.769 220.162 347.27 218.662C345.771 217.163 344.927 215.13 344.924 213.01C344.924 210.888 345.767 208.853 347.266 207.352C348.766 205.851 350.8 205.006 352.922 205.003H363.948C366.069 205.004 368.102 205.847 369.602 207.346C371.101 208.845 371.944 210.878 371.946 212.998C371.948 215.121 371.106 217.157 369.606 218.66C368.107 220.162 366.072 221.008 363.948 221.011ZM352.922 208.435C351.712 208.437 350.552 208.918 349.696 209.773C348.841 210.629 348.359 211.789 348.358 212.998C348.359 214.208 348.84 215.369 349.696 216.225C350.551 217.081 351.711 217.564 352.922 217.567H363.948C365.159 217.566 366.32 217.083 367.176 216.227C368.032 215.37 368.513 214.209 368.513 212.998C368.513 212.399 368.395 211.806 368.165 211.252C367.936 210.698 367.6 210.195 367.176 209.772C366.752 209.348 366.249 209.012 365.695 208.783C365.141 208.553 364.548 208.435 363.948 208.435H352.922Z" fill="white"/>
<path fill-rule="evenodd" clip-rule="evenodd" d="M352.919 217.602H363.945C365.611 217.605 367.208 218.269 368.385 219.447C369.562 220.625 370.224 222.222 370.226 223.887C370.226 225.553 369.564 227.151 368.387 228.329C367.209 229.508 365.611 230.171 363.945 230.172H352.919C352.093 230.172 351.276 230.01 350.514 229.694C349.751 229.378 349.059 228.915 348.475 228.331C347.892 227.747 347.429 227.054 347.114 226.292C346.799 225.529 346.637 224.712 346.638 223.887C346.637 223.062 346.799 222.245 347.114 221.482C347.429 220.72 347.892 220.027 348.475 219.443C349.059 218.86 349.751 218.397 350.514 218.081C351.276 217.765 352.093 217.602 352.919 217.602Z" fill="#1D2332"/>
<path d="M363.948 231.889H352.922C350.801 231.885 348.769 231.04 347.27 229.54C345.771 228.04 344.927 226.008 344.924 223.888C344.927 221.768 345.771 219.735 347.27 218.236C348.769 216.736 350.801 215.891 352.922 215.886H363.948C366.07 215.89 368.103 216.734 369.602 218.234C371.102 219.734 371.944 221.767 371.946 223.888C371.944 226.008 371.102 228.042 369.602 229.542C368.103 231.042 366.07 231.886 363.948 231.889ZM352.922 219.319C351.711 219.322 350.551 219.805 349.696 220.661C348.84 221.517 348.359 222.678 348.358 223.888C348.359 225.098 348.84 226.258 349.696 227.115C350.551 227.971 351.711 228.454 352.922 228.457H363.948C365.159 228.455 366.32 227.973 367.176 227.116C368.032 226.26 368.513 225.099 368.513 223.888C368.513 222.677 368.032 221.516 367.176 220.659C366.32 219.803 365.159 219.321 363.948 219.319H352.922Z" fill="white"/>
<path fill-rule="evenodd" clip-rule="evenodd" d="M246.906 212.629H415.34C415.994 212.628 416.642 212.756 417.246 213.006C417.851 213.255 418.4 213.622 418.863 214.083C419.326 214.545 419.694 215.094 419.945 215.697C420.196 216.301 420.325 216.948 420.326 217.602C420.326 218.257 420.197 218.904 419.946 219.509C419.696 220.113 419.328 220.662 418.865 221.125C418.402 221.587 417.853 221.954 417.248 222.204C416.643 222.454 415.995 222.582 415.34 222.581H246.906C246.252 222.582 245.604 222.454 245 222.204C244.396 221.954 243.847 221.587 243.385 221.124C242.923 220.662 242.556 220.112 242.307 219.508C242.058 218.904 241.93 218.256 241.932 217.602C241.931 216.949 242.059 216.302 242.309 215.698C242.558 215.094 242.925 214.546 243.387 214.084C243.849 213.622 244.398 213.256 245.001 213.006C245.605 212.756 246.252 212.628 246.906 212.629Z" fill="white"/>
<path d="M415.342 224.298H246.908C245.133 224.294 243.432 223.588 242.178 222.333C240.924 221.078 240.218 219.377 240.217 217.602C240.218 215.829 240.924 214.128 242.178 212.874C243.433 211.62 245.134 210.915 246.908 210.913H415.342C416.222 210.912 417.094 211.083 417.908 211.419C418.722 211.754 419.461 212.246 420.085 212.867C420.708 213.489 421.203 214.227 421.542 215.039C421.88 215.851 422.055 216.722 422.056 217.602C422.053 219.38 421.344 221.084 420.085 222.339C418.826 223.595 417.12 224.299 415.342 224.298ZM246.908 214.34C246.044 214.34 245.215 214.683 244.604 215.294C243.993 215.904 243.65 216.733 243.65 217.597C243.65 218.461 243.993 219.29 244.604 219.902C245.215 220.513 246.043 220.858 246.908 220.859H415.342C416.208 220.859 417.039 220.516 417.652 219.904C418.265 219.292 418.61 218.462 418.611 217.597C418.61 217.168 418.525 216.744 418.361 216.348C418.196 215.953 417.955 215.594 417.651 215.291C417.348 214.989 416.987 214.749 416.591 214.586C416.195 214.423 415.77 214.339 415.342 214.34H246.908Z" fill="#1D2332"/>
<path fill-rule="evenodd" clip-rule="evenodd" d="M454.147 337.94C453.681 337.94 453.234 338.125 452.904 338.454C452.574 338.784 452.389 339.231 452.389 339.697C452.389 340.163 452.574 340.61 452.904 340.94C453.234 341.269 453.681 341.454 454.147 341.454H552.297C552.763 341.454 553.21 341.269 553.539 340.94C553.869 340.61 554.054 340.163 554.054 339.697C554.054 339.231 553.869 338.784 553.539 338.454C553.21 338.125 552.763 337.94 552.297 337.94H454.147Z" fill="#1D2332"/>
<path fill-rule="evenodd" clip-rule="evenodd" d="M315.749 337.94C315.283 337.94 314.836 338.125 314.506 338.454C314.176 338.784 313.991 339.231 313.991 339.697C313.991 340.163 314.176 340.61 314.506 340.94C314.836 341.269 315.283 341.454 315.749 341.454H385.682C386.148 341.454 386.595 341.269 386.925 340.94C387.254 340.61 387.439 340.163 387.439 339.697C387.439 339.231 387.254 338.784 386.925 338.454C386.595 338.125 386.148 337.94 385.682 337.94H315.749Z" fill="#1D2332"/>
</svg>
