<svg width="341" height="1137" viewBox="0 0 341 1137" fill="none" xmlns="http://www.w3.org/2000/svg">
<path d="M209.34 329.05L211.809 367.329C211.809 367.329 189.583 391.409 187.114 400.671C184.645 409.933 174.766 443.891 172.297 435.865C169.828 427.838 173.533 405.612 171.681 399.438C169.828 393.264 163.038 359.306 163.038 359.306C163.038 359.306 178.474 354.985 187.117 349.427C195.76 343.87 209.34 329.05 209.34 329.05Z" fill="white" stroke="#1D2332" stroke-width="2.05142" stroke-miterlimit="10" stroke-linecap="round" stroke-linejoin="round"/>
<path d="M166.766 363.349L199.336 372.15L211.814 367.325L208.136 336.063L166.766 363.349Z" fill="#1D2332" stroke="#1D2332" stroke-width="2.05142" stroke-miterlimit="10" stroke-linecap="round" stroke-linejoin="round"/>
<path d="M219.216 306.197C219.216 306.197 216.128 301.876 219.216 286.439C222.302 271.003 233.417 267.298 224.154 249.393C214.892 231.488 190.813 222.845 190.813 222.845C190.813 222.845 196.37 211.114 192.049 208.028C187.727 204.943 177.849 212.966 176.613 215.438C175.377 217.907 177.849 191.359 171.055 191.359C164.262 191.359 145.74 212.353 145.74 219.143C145.74 225.933 138.947 203.09 131.54 209.264C124.13 215.438 121.045 231.491 124.13 235.812C127.215 240.134 116.104 232.724 114.251 241.37C112.399 250.012 114.868 260.511 121.661 269.154C128.451 277.796 133.392 278.416 133.392 278.416C133.392 278.416 146.36 257.422 159.94 258.042C173.524 258.658 187.724 260.511 187.724 266.685C187.724 272.859 188.341 276.563 193.898 282.737C199.456 288.911 200.072 296.938 203.161 304.347C206.246 311.757 202.544 317.315 209.951 314.843C217.364 312.371 219.216 306.197 219.216 306.197Z" fill="#1D2332" stroke="#1D2332" stroke-width="2.05142" stroke-miterlimit="10" stroke-linecap="round" stroke-linejoin="round"/>
<path d="M211.192 305.569C211.192 305.569 222.307 284.576 227.244 299.395C232.185 314.215 226.628 319.153 224.159 322.241C221.69 325.33 216.133 326.563 216.133 326.563C216.133 326.563 209.959 344.468 205.018 348.79C200.077 353.111 191.434 367.931 168.591 366.078C157.842 365.206 145.745 358.668 140.19 341.999C134.636 325.33 134.633 316.068 132.781 295.693C130.928 275.319 131.545 260.5 145.748 251.857C159.948 243.214 186.496 244.447 192.054 252.473C197.611 260.5 193.29 263.588 195.139 267.909C196.989 272.231 206.87 279.641 207.487 283.962C208.103 288.284 206.251 295.077 207.487 298.782C208.723 302.484 211.192 305.569 211.192 305.569Z" fill="white" stroke="#1D2332" stroke-width="2.05142" stroke-miterlimit="10" stroke-linecap="round" stroke-linejoin="round"/>
<path d="M153.774 277.797C153.774 277.797 158.715 279.649 158.096 288.292C157.479 296.935 155.007 302.492 156.243 306.197C157.479 309.902 168.591 308.05 168.591 308.05" stroke="#1D2332" stroke-width="2.05142" stroke-miterlimit="10" stroke-linecap="round" stroke-linejoin="round"/>
<path d="M185.879 312.989C185.879 312.989 167.973 328.425 148.216 316.694" stroke="#1D2332" stroke-width="2.05142" stroke-miterlimit="10" stroke-linecap="round" stroke-linejoin="round"/>
<path d="M174.148 283.662C174.148 286.56 175.53 288.91 177.237 288.91C178.94 288.91 180.322 286.56 180.322 283.662C180.322 280.764 178.94 278.414 177.237 278.414C175.53 278.414 174.148 280.764 174.148 283.662Z" fill="#1D2332"/>
<path d="M142.041 287.676C142.041 290.574 143.423 292.923 145.129 292.923C146.833 292.923 148.215 290.574 148.215 287.676C148.215 284.778 146.833 282.428 145.129 282.428C143.426 282.428 142.041 284.778 142.041 287.676Z" fill="#1D2332"/>
<path d="M186.497 273.47C186.497 273.47 177.234 267.912 168.592 272.853" stroke="#1D2332" stroke-width="2.05142" stroke-miterlimit="10" stroke-linecap="round" stroke-linejoin="round"/>
<path d="M149.445 275.321C149.445 275.321 135.245 267.911 133.393 278.409" stroke="#1D2332" stroke-width="2.05142" stroke-miterlimit="10" stroke-linecap="round" stroke-linejoin="round"/>
<path d="M120.679 443.912C120.679 443.912 114.083 454.708 108.683 466.106C103.284 477.504 61.2963 523.69 61.2963 523.69C61.2963 523.69 54.6995 499.096 50.5002 483.502C46.3008 467.905 41.5029 437.914 41.5029 437.914C41.5029 437.914 45.1006 422.919 43.9034 418.121C42.7031 413.323 42.7032 401.326 39.1054 400.126C35.5077 398.926 4.91518 412.122 3.71495 416.322C2.51472 420.521 1.91611 428.92 4.3136 433.116C6.71406 437.315 18.1088 453.511 18.1088 453.511C18.1088 453.511 17.5102 542.888 20.5093 556.683C23.5084 570.478 31.907 582.475 37.3036 583.675C42.7031 584.875 123.682 562.681 130.88 560.281C138.075 557.88 120.679 443.912 120.679 443.912Z" fill="white" stroke="#1D2332" stroke-width="2.05142" stroke-miterlimit="10" stroke-linecap="round" stroke-linejoin="round"/>
<path d="M37.3003 583.671C31.9008 582.471 23.5051 570.474 20.506 556.679C19.5202 552.149 18.9276 539.456 18.5702 524.469C40.1088 522.882 51.8818 517.048 58.157 511.99C59.9827 518.79 61.296 523.689 61.296 523.689C61.296 523.689 103.283 477.496 108.68 466.102C114.079 454.704 120.676 443.908 120.676 443.908C120.676 443.908 138.072 557.876 130.874 560.277C123.678 562.674 42.6999 584.868 37.3003 583.671Z" fill="#1D2332" stroke="#1D2332" stroke-width="2.05142" stroke-miterlimit="10" stroke-linecap="round" stroke-linejoin="round"/>
<path d="M108.102 1038.28C108.102 1038.28 101.148 1059.77 96.0908 1066.73C91.0338 1073.68 71.434 1087.59 72.6997 1093.28C73.9625 1098.97 77.1254 1102.13 91.6652 1103.4C106.205 1104.66 113.794 1100.87 123.908 1094.55C134.022 1088.22 142.873 1078.11 153.622 1073.68C164.37 1069.26 173.853 1069.26 171.956 1055.35C170.058 1041.44 159.944 1027.53 159.944 1027.53L108.102 1038.28Z" fill="#1D2332" stroke="#1D2332" stroke-width="2.05142" stroke-miterlimit="10" stroke-linecap="round" stroke-linejoin="round"/>
<path d="M153.616 1073.68C142.868 1078.11 134.017 1088.22 123.902 1094.54C113.788 1100.87 106.2 1104.66 91.66 1103.39C77.1202 1102.13 73.9573 1098.97 72.6946 1093.28C71.9143 1089.77 79.0948 1083.11 85.8941 1076.9C98.1615 1078.03 108.731 1091.39 108.731 1091.39C118.845 1086.33 133.388 1078.11 143.502 1067.99C153.616 1057.88 171.95 1055.35 171.95 1055.35C173.848 1069.25 164.365 1069.25 153.616 1073.68Z" fill="white" stroke="#1D2332" stroke-width="2.05142" stroke-miterlimit="10" stroke-linecap="round" stroke-linejoin="round"/>
<path d="M127.067 1036.38C127.067 1036.38 113.79 1052.82 110.63 1059.77C107.47 1066.73 96.0905 1066.73 96.0905 1066.73L108.102 1038.28L127.067 1036.38Z" fill="white" stroke="#1D2332" stroke-width="2.05142" stroke-miterlimit="10" stroke-linecap="round" stroke-linejoin="round"/>
<path d="M285.748 1038.92C285.748 1038.92 285.748 1076.85 285.748 1096.45C285.748 1116.04 275.634 1133.12 262.989 1134.38C250.346 1135.65 237.069 1137.54 235.803 1110.99C234.537 1084.44 242.126 1054.72 242.126 1051.56C242.126 1048.4 285.748 1038.92 285.748 1038.92Z" fill="#1D2332" stroke="#1D2332" stroke-width="2.05142" stroke-miterlimit="10" stroke-linecap="round" stroke-linejoin="round"/>
<path d="M235.803 1110.99C235.425 1103.07 235.845 1094.88 236.607 1087.19C237.584 1095.51 238.966 1106.56 238.966 1106.56C238.966 1106.56 245.92 1100.87 257.3 1102.14C268.68 1103.4 278.794 1110.36 278.794 1110.36L285.748 1071.87C285.748 1080.71 285.748 1089.67 285.748 1096.45C285.748 1116.05 275.634 1133.12 262.989 1134.38C250.346 1135.64 237.069 1137.54 235.803 1110.99Z" fill="white" stroke="#1D2332" stroke-width="2.05142" stroke-miterlimit="10" stroke-linecap="round" stroke-linejoin="round"/>
<path d="M267.414 1050.29C267.414 1050.29 267.414 1081.27 264.254 1084.43C261.094 1087.59 252.243 1089.49 251.609 1080.01C250.977 1070.53 253.506 1052.19 253.506 1052.19L267.414 1050.29Z" fill="white" stroke="#1D2332" stroke-width="2.05142" stroke-miterlimit="10" stroke-linecap="round" stroke-linejoin="round"/>
<path d="M287.623 602.37C287.623 602.37 299.024 674.13 294.598 706.373C290.173 738.615 271.838 896.668 271.838 896.668C271.838 896.668 286.378 984.547 287.644 995.292C288.91 1006.04 284.484 1011.73 284.484 1014.26C284.484 1016.79 290.807 1022.48 290.807 1028.8C290.807 1035.12 288.91 1045.87 288.91 1045.87C288.91 1045.87 276.898 1057.88 261.724 1057.88C246.55 1057.88 240.862 1055.98 238.333 1051.56C235.805 1047.13 228.219 1037.02 227.585 1030.06C226.953 1023.11 230.113 1019.95 228.851 1014.26C227.585 1008.57 226.322 1006.04 225.056 996.555C223.79 987.072 222.528 967.472 222.528 967.472C222.528 967.472 198.505 883.388 197.871 873.905C197.239 864.422 200.399 733.552 200.399 733.552L122.006 838.5C122.006 838.5 136.546 865.053 137.18 886.547C137.812 908.041 144.134 959.252 145.4 966.838C146.666 974.423 149.826 988.966 149.826 988.966C149.826 988.966 158.046 992.126 156.78 999.715C155.514 1007.3 154.883 1013.62 154.883 1013.62L161.837 1031.96C161.837 1031.96 141.606 1034.49 127.066 1036.38C112.526 1038.28 108.101 1038.28 108.101 1038.28C108.101 1038.28 101.146 1023.11 99.8807 1018.05C98.615 1012.99 104.938 1006.67 102.409 1001.61C99.8807 996.555 96.0865 993.392 96.0865 988.966C96.0865 984.541 95.455 965.575 95.455 965.575C95.455 965.575 73.3267 892.87 62.5812 867.582C51.8327 842.294 49.3042 823.96 53.7299 806.257C58.1556 788.554 139.077 662.745 139.077 660.847C139.077 658.95 137.815 639.353 137.815 639.353C137.815 639.353 222.531 629.871 249.716 625.445C276.896 621.022 287.623 602.37 287.623 602.37Z" fill="white" stroke="#1D2332" stroke-width="2.05142" stroke-miterlimit="10" stroke-linecap="round" stroke-linejoin="round"/>
<path d="M200.396 733.559L171.945 706.376" stroke="#1D2332" stroke-width="2.05142" stroke-miterlimit="10" stroke-linecap="round" stroke-linejoin="round"/>
<path d="M288.759 586.493C288.759 586.493 288.759 612.838 286.975 614.813C285.191 616.79 262.586 635.232 207.262 639.842C151.938 644.452 140.043 645.769 137.663 639.184C135.284 632.599 135.284 616.132 135.284 616.132C135.284 616.132 203.098 605.595 237.601 597.033C272.101 588.47 288.759 586.493 288.759 586.493Z" fill="#1D2332" stroke="#1D2332" stroke-width="2.05142" stroke-miterlimit="10" stroke-linecap="round" stroke-linejoin="round"/>
<path d="M211.817 367.326C211.817 367.326 227.87 348.804 229.722 347.568C231.575 346.332 263.68 265.452 263.68 265.452L283.438 184.569C283.438 184.569 300.726 109.243 301.343 101.217C301.959 93.1903 306.9 64.1703 306.9 64.1703C306.9 64.1703 295.55 28.1991 296.167 22.0252C296.783 15.8513 328.171 23.8181 333.728 26.2871C339.286 28.7561 329.127 67.8753 329.127 67.8753C329.127 67.8753 331.596 172.221 329.743 194.448C327.891 216.674 313.074 282.121 313.074 282.121C313.074 282.121 289.612 390.172 288.995 392.021C288.379 393.874 284.057 435.241 284.057 435.241L284.674 541.439C284.674 541.439 292.7 592.686 287.143 599.476C281.585 606.267 234.044 617.382 194.528 622.939C155.013 628.496 139.577 632.201 134.019 627.26C128.462 622.32 125.993 611.208 125.993 597.008C125.993 582.807 109.94 490.193 116.731 457.468C123.521 424.743 134.019 409.926 148.22 399.431C162.42 388.936 176.992 382.926 176.992 382.926L211.817 367.326Z" fill="white" stroke="#1D2332" stroke-width="2.05142" stroke-miterlimit="10" stroke-linecap="round" stroke-linejoin="round"/>
<path d="M148.217 399.44C162.418 388.944 176.99 382.934 176.99 382.934L211.812 367.334C211.812 367.334 227.865 348.813 229.717 347.577C231.57 346.341 263.675 265.461 263.675 265.461L283.433 184.577C283.433 184.577 285.27 176.572 287.763 165.526C304.173 173.46 320.089 173.111 330.394 171.476C330.322 181.572 330.126 189.816 329.738 194.453C327.886 216.68 313.069 282.127 313.069 282.127C313.069 282.127 289.607 390.177 288.99 392.03C288.374 393.882 284.052 435.25 284.052 435.25L284.669 541.448C284.669 541.448 292.695 592.695 287.138 599.485C281.58 606.276 234.038 617.391 194.523 622.948C155.008 628.505 139.572 632.21 134.014 627.269C128.457 622.328 125.988 611.217 125.988 597.016C125.988 582.816 109.935 490.202 116.726 457.48C123.516 424.758 134.017 409.935 148.217 399.44Z" fill="#1F75BA" stroke="#1D2332" stroke-width="2.05142" stroke-miterlimit="10" stroke-linecap="round" stroke-linejoin="round"/>
<path d="M249.592 576.274C226.129 565.889 190.867 546.929 160.161 516.739" stroke="#1D2332" stroke-width="2.05142" stroke-miterlimit="10" stroke-linecap="round" stroke-linejoin="round"/>
<path d="M275.949 586.398C275.949 586.398 271.931 585.206 265.099 582.63" stroke="#1D2332" stroke-width="2.05142" stroke-miterlimit="10" stroke-linecap="round" stroke-linejoin="round"/>
<path d="M255.343 605.044C255.343 605.044 240.624 600.139 218.058 575.607" stroke="#1D2332" stroke-width="2.05142" stroke-miterlimit="10" stroke-linecap="round" stroke-linejoin="round"/>
<path d="M312.86 9.13248C312.86 9.13248 338.535 18.9934 339.11 24.2322C339.685 29.4709 338.574 38.2775 335.959 38.2388C333.344 38.2001 311.591 28.3957 309.015 25.7451C306.442 23.0945 308.586 10.705 312.86 9.13248Z" fill="white" stroke="#1D2332" stroke-width="2.05142" stroke-miterlimit="10" stroke-linecap="round" stroke-linejoin="round"/>
<path d="M320.273 12.0041C320.273 12.0041 316.509 27.2676 314.451 29.9331L320.273 12.0041Z" fill="white"/>
<path d="M320.273 12.0041C320.273 12.0041 316.509 27.2676 314.451 29.9331" stroke="#1D2332" stroke-width="2.05142" stroke-miterlimit="10" stroke-linecap="round" stroke-linejoin="round"/>
<path d="M327.628 15.4833C327.628 15.4833 325.924 28.0843 322.323 32.5755L327.628 15.4833Z" fill="white"/>
<path d="M327.628 15.4833C327.628 15.4833 325.924 28.0843 322.323 32.5755" stroke="#1D2332" stroke-width="2.05142" stroke-miterlimit="10" stroke-linecap="round" stroke-linejoin="round"/>
<path d="M334.301 19.6282C334.301 19.6282 335.528 27.726 330.168 37.2445L334.301 19.6282Z" fill="white"/>
<path d="M334.301 19.6282C334.301 19.6282 335.528 27.726 330.168 37.2445" stroke="#1D2332" stroke-width="2.05142" stroke-miterlimit="10" stroke-linecap="round" stroke-linejoin="round"/>
<path d="M304.795 56.5604C304.795 56.5604 295.354 34.8699 294.926 29.6431C294.5 24.4193 296.981 16.0385 295.042 10.6211C293.103 5.20363 295.378 -0.654566 300.203 3.29161C305.028 7.2348 307.026 19.8923 307.178 21.0717C307.33 22.2511 316.661 28.7883 318.192 38.9144C319.725 49.0374 316.464 53.198 316.464 53.198" fill="white"/>
<path d="M304.795 56.5604C304.795 56.5604 295.354 34.8699 294.926 29.6431C294.5 24.4193 296.981 16.0385 295.042 10.6211C293.103 5.20363 295.378 -0.654566 300.203 3.29161C305.028 7.2348 307.026 19.8923 307.178 21.0717C307.33 22.2511 316.661 28.7883 318.192 38.9144C319.725 49.0374 316.464 53.198 316.464 53.198" stroke="#1D2332" stroke-width="2.05142" stroke-miterlimit="10" stroke-linecap="round" stroke-linejoin="round"/>
<path d="M28.3979 393.522C28.3979 393.522 2.72253 403.383 2.14773 408.622C1.57293 413.86 2.68381 422.667 5.2987 422.628C7.9136 422.59 29.6667 412.785 32.2428 410.132C34.816 407.481 32.6687 395.091 28.3979 393.522Z" fill="white" stroke="#1D2332" stroke-width="2.05142" stroke-miterlimit="10" stroke-linecap="round" stroke-linejoin="round"/>
<path d="M20.982 396.395C20.982 396.395 24.7465 411.658 26.8044 414.324L20.982 396.395Z" fill="white"/>
<path d="M20.982 396.395C20.982 396.395 24.7465 411.658 26.8044 414.324" stroke="#1D2332" stroke-width="2.05142" stroke-miterlimit="10" stroke-linecap="round" stroke-linejoin="round"/>
<path d="M13.6265 399.873C13.6265 399.873 15.33 412.474 18.9307 416.965L13.6265 399.873Z" fill="white"/>
<path d="M13.6265 399.873C13.6265 399.873 15.33 412.474 18.9307 416.965" stroke="#1D2332" stroke-width="2.05142" stroke-miterlimit="10" stroke-linecap="round" stroke-linejoin="round"/>
<path d="M6.95354 404.016C6.95354 404.016 5.72651 412.117 11.0873 421.633L6.95354 404.016Z" fill="white"/>
<path d="M6.95354 404.016C6.95354 404.016 5.72651 412.117 11.0873 421.633" stroke="#1D2332" stroke-width="2.05142" stroke-miterlimit="10" stroke-linecap="round" stroke-linejoin="round"/>
<path d="M36.4639 440.95C36.4639 440.95 45.9049 419.259 46.3338 414.033C46.7597 408.806 44.2788 400.425 46.2176 395.011C48.1565 389.593 45.8811 383.735 41.0593 387.678C36.2346 391.621 34.2362 404.279 34.0843 405.458C33.9324 406.638 24.6015 413.175 23.0707 423.301C21.5369 433.424 24.7981 437.584 24.7981 437.584" fill="white"/>
<path d="M36.4639 440.95C36.4639 440.95 45.9049 419.259 46.3338 414.033C46.7597 408.806 44.2788 400.425 46.2176 395.011C48.1565 389.593 45.8811 383.735 41.0593 387.678C36.2346 391.621 34.2362 404.279 34.0843 405.458C33.9324 406.638 24.6015 413.175 23.0707 423.301C21.5369 433.424 24.7981 437.584 24.7981 437.584" stroke="#1D2332" stroke-width="2.05142" stroke-miterlimit="10" stroke-linecap="round" stroke-linejoin="round"/>
<path d="M253.24 453.506C234.045 434.311 217.251 382.725 223.249 362.33C224.443 358.268 225.539 354.381 226.534 350.748C228.094 349.071 229.289 347.85 229.715 347.564C231.567 346.328 263.673 265.448 263.673 265.448L283.43 184.565C283.43 184.565 285.268 176.559 287.761 165.513C304.171 173.447 320.086 173.099 330.391 171.464C330.32 181.56 330.123 189.804 329.736 194.441C327.883 216.667 313.067 282.114 313.067 282.114C313.067 282.114 289.604 390.165 288.988 392.017C288.371 393.87 284.05 435.238 284.05 435.238L284.219 464.192C277.319 465.788 265.528 465.797 253.24 453.506Z" fill="#1D2332" stroke="#1D2332" stroke-width="2.05142" stroke-miterlimit="10" stroke-linecap="round" stroke-linejoin="round"/>
</svg>
