<svg width="953" height="1329" viewBox="0 0 953 1329" fill="none" xmlns="http://www.w3.org/2000/svg">
<path d="M1492.24 219.633L1519.7 171.611L1492.24 123.563L1519.78 75.6677L1492.39 28.0278L1519.68 -19.6758L1489.41 -73.309L1429.56 -73.7043L1401.55 -25.0443H1346.32L1319.06 22.1366H1264.36L1236.58 70.7966H1181.26L1154.09 117.939H1104.58L1077.28 70.7966H1016.42L989.123 117.939L939.607 117.901L912.592 70.7966H851.22L824.154 117.901L769.729 117.939L741.669 166.561L686.454 166.599L659.185 213.704H604.505L574.074 267.273L601.458 315.168L576.7 358.179L521.472 358.204L494.203 405.309L439.829 405.347L411.718 453.982L356.427 454.02L329.233 501.124L274.465 501.15L244.021 554.923L271.507 602.588L243.88 650.394L271.507 698.391L244.11 746.503L271.507 794.194L246.621 837.192L192.375 837.23L164.264 885.852L108.96 885.89L81.7795 932.995L30.8353 933.033L0.378464 986.793L27.8776 1034.46L0.250977 1082.26L33.1811 1130.77L86.777 1131.35L114.71 1083.16L164.596 1084.59L194.81 1134.41L164.596 1177.68L197.245 1230.25H246.749L274.732 1278.78L334.664 1278.91L362.393 1230.25L417.748 1230.4L447.593 1178.48L419.928 1130.26L444.686 1087.3H493.871L521.6 1134.43L582.463 1134.15L609.656 1087.26L664.412 1086.97L692.153 1038.6L747.585 1038.64L774.638 991.461H829.394L857.122 942.8H906.639L934.584 991.499L994.236 991.461L1024.67 937.878L997.487 890.264L1022.09 847.036L1071.61 846.998L1099.35 895.658H1159.43L1187.06 846.998H1242.31L1272.25 794.742L1244.79 747.051L1272.31 699.016L1244.79 651.516L1272.25 603.494L1244.79 555.446L1272.31 507.551L1271.78 506.607L1272.12 505.995L1245.37 459.146L1270.53 415.153L1319.06 415.115L1346.82 463.775H1406.89L1434.53 415.115H1489.77L1519.7 362.871L1492.24 315.168L1519.78 267.133L1492.24 219.633Z" fill="#1F75BA"/>
<path d="M563.733 1161.03L543.105 1216.25L549.479 1218.67L570.12 1163.46L563.733 1161.03Z" fill="#DCDEE0"/>
<path d="M579.557 1190.17L568.236 1201.52L573.093 1206.4L589.284 1190.17L573.093 1173.93L568.236 1178.8L579.557 1190.17Z" fill="#DCDEE0"/>
<path d="M545.569 1201.52L534.236 1190.15L545.569 1178.8L540.687 1173.93L524.521 1190.15L540.687 1206.4L545.569 1201.52Z" fill="#DCDEE0"/>
<path d="M582.997 1232.89L607.755 1189.89L582.997 1146.89H533.468L508.71 1189.89L533.468 1232.89H582.997ZM537.93 1154.59H578.535L598.856 1189.89L578.535 1225.17H537.93L517.621 1189.89L537.93 1154.59Z" fill="#DCDEE0"/>
<path d="M563.733 1256.84L543.105 1312.05L549.479 1314.47L570.12 1259.26L563.733 1256.84Z" fill="#DCDEE0"/>
<path d="M579.557 1285.97L568.236 1297.34L573.093 1302.21L589.284 1285.97L573.093 1269.73L568.236 1274.6L579.557 1285.97Z" fill="#DCDEE0"/>
<path d="M545.569 1297.34L534.236 1285.95L545.569 1274.6L540.687 1269.73L524.521 1285.95L540.687 1302.18L545.569 1297.34Z" fill="#DCDEE0"/>
<path d="M582.997 1328.69L607.755 1285.69L582.997 1242.69H533.468L508.71 1285.69L533.468 1328.69H582.997ZM537.93 1250.4H578.535L598.856 1285.69L578.535 1320.98H537.93L517.621 1285.69L537.93 1250.4Z" fill="#DCDEE0"/>
<path d="M646.22 1112.37L625.593 1167.59L631.967 1170.01L652.607 1114.8L646.22 1112.37Z" fill="#DCDEE0"/>
<path d="M662.041 1141.51L650.72 1152.86L655.577 1157.74L671.781 1141.51L655.577 1125.27L650.72 1130.14L662.041 1141.51Z" fill="#DCDEE0"/>
<path d="M628.079 1152.86L616.745 1141.49L628.079 1130.14L623.196 1125.27L607.005 1141.51L623.171 1157.77L628.079 1152.86Z" fill="#DCDEE0"/>
<path d="M665.481 1184.23L690.239 1141.23L665.481 1098.23H615.952L591.194 1141.23L615.952 1184.23H665.481ZM620.427 1105.93H661.031L681.429 1141.23L661.031 1176.51H620.427L600.131 1141.23L620.427 1105.93Z" fill="#DCDEE0"/>
<path d="M646.22 1208.18L625.593 1263.39L631.967 1265.81L652.607 1210.6L646.22 1208.18Z" fill="#DCDEE0"/>
<path d="M662.041 1237.31L650.72 1248.68L655.577 1253.55L671.781 1237.31L655.577 1221.07L650.72 1225.94L662.041 1237.31Z" fill="#DCDEE0"/>
<path d="M628.077 1248.62L616.743 1237.24L628.077 1225.89L623.194 1221.02L607.029 1237.24L623.194 1253.5L628.077 1248.62Z" fill="#DCDEE0"/>
<path d="M665.481 1280.03L690.239 1237.03L665.481 1194.03H615.952L591.194 1237.03L615.952 1280.03H665.481ZM620.414 1201.74H661.019L681.417 1237.03L661.019 1272.32H620.427L600.131 1237.03L620.414 1201.74Z" fill="#DCDEE0"/>
<path d="M728.704 1062.68L708.077 1117.89L714.451 1120.32L735.091 1065.1L728.704 1062.68Z" fill="#DCDEE0"/>
<path d="M744.525 1091.78L733.204 1103.13L738.061 1108L754.29 1091.78L738.087 1075.53L733.229 1080.41L744.525 1091.78Z" fill="#DCDEE0"/>
<path d="M710.537 1103.17L699.203 1091.79L710.537 1080.44L705.654 1075.57L689.489 1091.78L705.654 1108.03L710.537 1103.17Z" fill="#DCDEE0"/>
<path d="M747.918 1134.54L772.676 1091.54L747.918 1048.54H698.452L673.682 1091.54L698.452 1134.54H747.918ZM702.851 1056.24H743.456L763.854 1091.54L743.456 1126.82H702.851L682.555 1091.54L702.851 1056.24Z" fill="#DCDEE0"/>
<path d="M728.704 1161.03L708.077 1216.25L714.451 1218.67L735.091 1163.46L728.704 1161.03Z" fill="#DCDEE0"/>
<path d="M744.525 1190.17L733.204 1201.52L738.061 1206.4L754.265 1190.17L738.061 1173.93L733.204 1178.8L744.525 1190.17Z" fill="#DCDEE0"/>
<path d="M710.537 1201.52L699.203 1190.15L710.537 1178.8L705.654 1173.93L689.489 1190.15L705.654 1206.4L710.537 1201.52Z" fill="#DCDEE0"/>
<path d="M747.918 1232.89L772.676 1189.89L747.918 1146.89H698.452L673.682 1189.89L698.452 1232.89H747.918ZM702.851 1154.59H743.456L763.854 1189.89L743.456 1225.17H702.851L682.555 1189.89L702.851 1154.59Z" fill="#DCDEE0"/>
<path d="M728.704 1256.84L708.077 1312.05L714.451 1314.47L735.091 1259.26L728.704 1256.84Z" fill="#DCDEE0"/>
<path d="M744.525 1285.97L733.204 1297.34L738.061 1302.21L754.265 1285.97L738.061 1269.73L733.204 1274.6L744.525 1285.97Z" fill="#DCDEE0"/>
<path d="M710.537 1297.34L699.203 1285.95L710.537 1274.6L705.654 1269.73L689.489 1285.95L705.654 1302.21L710.537 1297.34Z" fill="#DCDEE0"/>
<path d="M747.918 1328.69L772.676 1285.69L747.918 1242.69H698.452L673.682 1285.69L698.452 1328.69H747.918ZM702.851 1250.4H743.456L763.854 1285.69L743.456 1320.98H702.851L682.555 1285.69L702.851 1250.4Z" fill="#DCDEE0"/>
<path d="M811.188 1012.72L790.561 1067.93L796.935 1070.36L817.575 1015.14L811.188 1012.72Z" fill="#DCDEE0"/>
<path d="M826.957 1041.88L815.636 1053.23L820.494 1058.1L836.697 1041.88L820.583 1025.64L815.726 1030.51L826.957 1041.88Z" fill="#DCDEE0"/>
<path d="M793.021 1053.23L781.687 1041.86L793.021 1030.51L788.151 1025.64L771.973 1041.86L788.151 1058.1L793.021 1053.23Z" fill="#DCDEE0"/>
<path d="M830.452 1084.6L855.21 1041.6L830.452 998.591H780.935L756.177 1041.6L780.935 1084.6H830.452ZM785.385 1006.31H825.99L846.388 1041.6L825.99 1076.89H785.385L765.089 1041.6L785.385 1006.31Z" fill="#DCDEE0"/>
<path d="M811.188 1112.37L790.561 1167.59L796.935 1170.01L817.575 1114.8L811.188 1112.37Z" fill="#DCDEE0"/>
<path d="M826.957 1141.51L815.636 1152.86L820.494 1157.74L836.697 1141.51L820.583 1125.27L815.726 1130.14L826.957 1141.51Z" fill="#DCDEE0"/>
<path d="M793.021 1152.86L781.687 1141.49L793.021 1130.14L788.151 1125.27L771.973 1141.51L788.151 1157.77L793.021 1152.86Z" fill="#DCDEE0"/>
<path d="M830.452 1184.23L855.21 1141.23L830.452 1098.23H780.935L756.177 1141.23L780.935 1184.23H830.452ZM785.385 1105.93H825.99L846.388 1141.23L825.99 1176.51H785.385L765.089 1141.23L785.385 1105.93Z" fill="#DCDEE0"/>
<path d="M811.188 1208.18L790.561 1263.39L796.935 1265.81L817.575 1210.6L811.188 1208.18Z" fill="#DCDEE0"/>
<path d="M826.957 1237.31L815.636 1248.68L820.494 1253.55L836.697 1237.31L820.583 1221.07L815.726 1225.94L826.957 1237.31Z" fill="#DCDEE0"/>
<path d="M793.021 1248.62L781.687 1237.24L793.021 1225.89L788.151 1221.02L771.973 1237.24L788.151 1253.5L793.021 1248.62Z" fill="#DCDEE0"/>
<path d="M830.452 1280.03L855.21 1237.03L830.452 1194.03H780.935L756.177 1237.03L780.935 1280.03H830.452ZM785.385 1201.74H825.99L846.388 1237.03L825.99 1272.32H785.385L765.089 1237.03L785.385 1201.74Z" fill="#DCDEE0"/>
<path d="M893.672 1062.68L873.045 1117.89L879.495 1120.32L900.123 1065.1L893.672 1062.68Z" fill="#DCDEE0"/>
<path d="M909.493 1091.78L898.172 1103.13L903.029 1108L919.233 1091.78L903.029 1075.53L898.172 1080.41L909.493 1091.78Z" fill="#DCDEE0"/>
<path d="M875.518 1103.17L864.171 1091.79L875.518 1080.44L870.635 1075.57L854.457 1091.78L870.635 1108.03L875.518 1103.17Z" fill="#DCDEE0"/>
<path d="M912.935 1134.54L937.694 1091.54L912.935 1048.54H863.419L838.661 1091.54L863.419 1134.54H912.935ZM867.868 1056.24H908.473L928.871 1091.54L908.473 1126.82H867.868L847.573 1091.54L867.868 1056.24Z" fill="#DCDEE0"/>
<path d="M973.57 1013.99L952.929 1069.21L959.38 1071.63L980.008 1016.42L973.57 1013.99Z" fill="#DCDEE0"/>
<path d="M955.454 1054.51L944.107 1043.13L955.454 1031.78L950.571 1026.91L934.393 1043.13L950.571 1059.38L955.454 1054.51Z" fill="#DCDEE0"/>
<path d="M992.872 1085.88L1017.63 1042.88L992.872 999.866H943.355L918.597 1042.88L943.355 1085.88H992.872ZM947.805 1007.58H988.41L1008.74 1042.88L988.41 1078.16H947.805L927.509 1042.88L947.805 1007.58Z" fill="#DCDEE0"/>
<g opacity="0.2">
<path d="M229.972 1053.75L209.332 1108.97L215.783 1111.39L236.423 1056.18L229.972 1053.75Z" fill="#1F75BA"/>
<path d="M245.78 1082.85L234.459 1094.2L239.316 1099.07L255.52 1082.85L239.316 1066.61L234.459 1071.48L245.78 1082.85Z" fill="#1F75BA"/>
<path d="M211.805 1094.24L200.459 1082.87L211.805 1071.52L206.923 1066.65L190.795 1082.85L206.974 1099.1L211.805 1094.24Z" fill="#1F75BA"/>
<path d="M249.222 1125.61L273.98 1082.61L249.222 1039.61H199.719L174.96 1082.61L199.719 1125.61H249.222ZM204.168 1047.31H244.773L265.094 1082.61L244.773 1117.89H204.168L183.859 1082.61L204.168 1047.31Z" fill="#1F75BA"/>
<path d="M229.972 1149.56L209.332 1204.77L215.783 1207.19L236.423 1151.98L229.972 1149.56Z" fill="#1F75BA"/>
<path d="M245.78 1178.69L234.459 1190.04L239.316 1194.93L255.52 1178.69L239.316 1162.45L234.459 1167.32L245.78 1178.69Z" fill="#1F75BA"/>
<path d="M211.805 1190.04L200.459 1178.67L211.805 1167.32L206.923 1162.45L190.795 1178.67L206.974 1194.93L211.805 1190.04Z" fill="#1F75BA"/>
<path d="M249.222 1221.41L273.98 1178.41L249.222 1135.42H199.719L174.96 1178.41L199.719 1221.41H249.222ZM204.168 1143.12H244.773L265.094 1178.41L244.773 1213.7H204.168L183.859 1178.41L204.168 1143.12Z" fill="#1F75BA"/>
<path d="M312.456 1100.9L291.816 1156.11L298.267 1158.53L318.907 1103.32L312.456 1100.9Z" fill="#1F75BA"/>
<path d="M328.264 1130.03L316.943 1141.38L321.8 1146.27L338.004 1130.03L321.8 1113.79L316.943 1118.66L328.264 1130.03Z" fill="#1F75BA"/>
<path d="M294.289 1141.38L282.943 1130.01L294.289 1118.66L289.406 1113.79L273.228 1130.03L289.406 1146.29L294.289 1141.38Z" fill="#1F75BA"/>
<path d="M331.707 1172.75L356.529 1129.75L331.771 1086.76H282.191L257.432 1129.75L282.191 1172.75H331.707ZM286.653 1094.46H327.207L347.605 1129.75L327.207 1165.04H286.653L266.344 1129.75L286.653 1094.46Z" fill="#1F75BA"/>
<path d="M312.456 1196.7L291.816 1251.91L298.267 1254.34L318.907 1199.12L312.456 1196.7Z" fill="#1F75BA"/>
<path d="M328.263 1225.84L317.006 1237.15L321.863 1242.02L338.067 1225.79L321.863 1209.54L317.006 1214.41L328.263 1225.84Z" fill="#1F75BA"/>
<path d="M294.289 1237.15L282.943 1225.76L294.289 1214.41L289.406 1209.54L273.228 1225.76L289.406 1242.02L294.289 1237.15Z" fill="#1F75BA"/>
<path d="M331.707 1268.55L356.529 1225.56L331.771 1182.56H282.191L257.432 1225.56L282.191 1268.55H331.707ZM286.653 1190.26H327.207L347.605 1225.56L327.207 1260.84H286.653L266.344 1225.56L286.653 1190.26Z" fill="#1F75BA"/>
<path d="M394.94 1053.75L374.3 1108.97L380.751 1111.39L401.391 1056.18L394.94 1053.75Z" fill="#1F75BA"/>
<path d="M410.751 1082.85L399.443 1094.2L404.3 1099.07L420.491 1082.85L404.3 1066.61L399.443 1071.48L410.751 1082.85Z" fill="#1F75BA"/>
<path d="M376.773 1094.24L365.452 1082.85L376.798 1071.5L371.916 1066.63L355.712 1082.85L371.89 1099.1L376.773 1094.24Z" fill="#1F75BA"/>
<path d="M414.192 1125.61L438.95 1082.61L414.192 1039.61H364.676L339.956 1082.61L364.714 1125.61H414.192ZM369.138 1047.31H409.743L430.064 1082.61L409.743 1117.89H369.138L348.88 1082.61L369.138 1047.31Z" fill="#1F75BA"/>
<path d="M394.94 1149.56L374.3 1204.77L380.751 1207.19L401.391 1151.98L394.94 1149.56Z" fill="#1F75BA"/>
<path d="M410.751 1178.69L399.443 1190.04L404.3 1194.93L420.491 1178.69L404.3 1162.45L399.443 1167.32L410.751 1178.69Z" fill="#1F75BA"/>
<path d="M376.773 1190.04L365.426 1178.67L376.773 1167.32L371.89 1162.45L355.712 1178.67L371.89 1194.93L376.773 1190.04Z" fill="#1F75BA"/>
<path d="M414.192 1221.41L438.95 1178.41L414.192 1135.42H364.676L339.956 1178.41L364.714 1221.41H414.192ZM369.138 1143.12H409.743L430.064 1178.41L409.743 1213.7H369.138L348.88 1178.41L369.138 1143.12Z" fill="#1F75BA"/>
<path d="M477.424 909.292L456.784 964.506L463.235 966.929L483.875 911.714L477.424 909.292Z" fill="#1F75BA"/>
<path d="M493.235 938.429L481.927 949.778L486.784 954.649L502.975 938.429L486.784 922.183L481.927 927.054L493.235 938.429Z" fill="#1F75BA"/>
<path d="M459.257 949.778L447.91 938.403L459.257 927.054L454.374 922.183L438.196 938.403L454.374 954.649L459.257 949.778Z" fill="#1F75BA"/>
<path d="M496.675 981.147L521.446 938.149L496.675 895.138H447.158L422.4 938.149L447.158 981.147H496.675ZM451.621 902.852H492.225L512.547 938.149L492.225 973.432H451.621L431.312 938.149L451.621 902.852Z" fill="#1F75BA"/>
<path d="M477.424 1005.07L456.784 1060.28L463.235 1062.71L483.875 1007.49L477.424 1005.07Z" fill="#1F75BA"/>
<path d="M493.235 1034.23L481.927 1045.58L486.784 1050.45L502.975 1034.23L486.784 1017.99L481.927 1022.86L493.235 1034.23Z" fill="#1F75BA"/>
<path d="M459.257 1045.58L447.91 1034.21L459.257 1022.86L454.374 1017.99L438.196 1034.21L454.374 1050.45L459.257 1045.58Z" fill="#1F75BA"/>
<path d="M496.675 1076.95L521.446 1033.95L496.675 990.94H447.158L422.4 1033.95L447.158 1076.95H496.675ZM451.621 998.693H492.225L512.547 1033.99L492.225 1069.27H451.621L431.312 1033.99L451.621 998.693Z" fill="#1F75BA"/>
<path d="M559.911 862.15L539.283 917.364L545.658 919.787L566.298 864.572L559.911 862.15Z" fill="#1F75BA"/>
<path d="M575.731 891.287L564.41 902.636L569.268 907.507L585.459 891.287L569.268 875.003L564.41 879.874L575.731 891.287Z" fill="#1F75BA"/>
<path d="M541.744 902.636L530.41 891.261L541.744 879.912L536.861 875.041L520.696 891.261L536.861 907.507L541.744 902.636Z" fill="#1F75BA"/>
<path d="M579.175 934.004L603.934 891.006L579.175 847.995H529.646L504.888 891.006L529.646 934.004H579.175ZM534.108 855.709H574.713L595.035 891.006L574.713 926.289H534.108L513.8 891.006L534.108 855.709Z" fill="#1F75BA"/>
<path d="M559.911 957.952L539.283 1013.17L545.658 1015.59L566.298 960.374L559.911 957.952Z" fill="#1F75BA"/>
<path d="M575.731 987.089L564.41 998.438L569.268 1003.31L585.459 987.089L569.268 970.844L564.41 975.715L575.731 987.089Z" fill="#1F75BA"/>
<path d="M541.744 998.438L530.41 987.063L541.744 975.715L536.861 970.844L520.696 987.063L536.861 1003.31L541.744 998.438Z" fill="#1F75BA"/>
<path d="M579.175 1029.81L603.934 986.809L579.175 943.861H529.646L504.888 986.872L529.646 1029.87L579.175 1029.81ZM534.108 951.512H574.713L595.035 986.809L574.713 1022.09H534.108L513.8 986.809L534.108 951.512Z" fill="#1F75BA"/>
<path d="M559.911 1053.75L539.283 1108.97L545.658 1111.39L566.298 1056.18L559.911 1053.75Z" fill="#1F75BA"/>
<path d="M575.731 1082.85L564.41 1094.2L569.268 1099.07L585.459 1082.85L569.268 1066.61L564.41 1071.48L575.731 1082.85Z" fill="#1F75BA"/>
<path d="M541.744 1094.24L530.41 1082.87L541.744 1071.52L536.861 1066.65L520.696 1082.85L536.861 1099.1L541.744 1094.24Z" fill="#1F75BA"/>
<path d="M579.175 1125.61L603.934 1082.61L579.175 1039.61H529.646L504.888 1082.61L529.646 1125.61H579.175ZM534.108 1047.31H574.713L595.035 1082.61L574.713 1117.89H534.108L513.8 1082.61L534.108 1047.31Z" fill="#1F75BA"/>
<path d="M642.395 621.884L621.767 677.098L628.142 679.521L648.782 624.306L642.395 621.884Z" fill="#1F75BA"/>
<path d="M658.215 651.021L646.894 662.37L651.751 667.241L667.955 651.021L651.751 634.763L646.894 639.634L658.215 651.021Z" fill="#1F75BA"/>
<path d="M624.251 662.37L612.918 650.996L624.251 639.634L619.369 634.763L603.203 650.996L619.369 667.241L624.251 662.37Z" fill="#1F75BA"/>
<path d="M661.659 693.726L686.417 650.728L661.659 607.73H612.13L587.372 650.728L612.13 693.726H661.659ZM616.605 615.444H657.21L677.608 650.728L657.21 686.024H616.605L596.309 650.728L616.605 615.444Z" fill="#1F75BA"/>
<path d="M642.395 717.686L621.767 772.901L628.142 775.323L648.782 720.109L642.395 717.686Z" fill="#1F75BA"/>
<path d="M658.215 746.824L646.894 758.173L651.751 763.044L667.955 746.824L651.751 730.565L646.894 735.436L658.215 746.824Z" fill="#1F75BA"/>
<path d="M624.251 758.173L612.918 746.798L624.251 735.436L619.369 730.565L603.203 746.798L619.369 763.044L624.251 758.173Z" fill="#1F75BA"/>
<path d="M661.659 789.567L686.417 746.556L661.659 703.558H612.13L587.372 746.556L612.13 789.567H661.659ZM616.592 711.273H657.197L677.595 746.556L657.197 781.853H616.605L596.309 746.556L616.592 711.273Z" fill="#1F75BA"/>
<path d="M642.395 813.489L621.767 868.703L628.142 871.126L648.782 815.912L642.395 813.489Z" fill="#1F75BA"/>
<path d="M658.215 842.626L646.894 853.975L651.751 858.846L667.955 842.626L651.751 826.368L646.894 831.252L658.215 842.626Z" fill="#1F75BA"/>
<path d="M624.251 853.975L612.918 842.601L624.251 831.252L619.369 826.368L603.203 842.601L619.369 858.846L624.251 853.975Z" fill="#1F75BA"/>
<path d="M661.659 885.344L686.417 842.333L661.659 799.335H612.13L587.372 842.333L612.13 885.344H661.659ZM616.592 807.05H657.197L677.595 842.333L657.197 877.63H616.605L596.309 842.333L616.592 807.05Z" fill="#1F75BA"/>
<path d="M642.395 909.292L621.767 964.506L628.142 966.929L648.782 911.714L642.395 909.292Z" fill="#1F75BA"/>
<path d="M658.215 938.429L646.894 949.778L651.751 954.649L667.955 938.429L651.751 922.183L646.894 927.054L658.215 938.429Z" fill="#1F75BA"/>
<path d="M624.251 949.778L612.918 938.403L624.251 927.054L619.369 922.183L603.203 938.403L619.369 954.649L624.251 949.778Z" fill="#1F75BA"/>
<path d="M661.659 981.147L686.417 938.149L661.659 895.138H612.13L587.372 938.149L612.13 981.147H661.659ZM616.592 902.852H657.197L677.595 938.149L657.197 973.432H616.605L596.309 938.149L616.592 902.852Z" fill="#1F75BA"/>
<path d="M642.395 1005.07L621.767 1060.28L628.142 1062.71L648.782 1007.49L642.395 1005.07Z" fill="#1F75BA"/>
<path d="M658.215 1034.23L646.894 1045.58L651.751 1050.45L667.955 1034.23L651.751 1017.99L646.894 1022.86L658.215 1034.23Z" fill="#1F75BA"/>
<path d="M624.251 1045.58L612.918 1034.21L624.251 1022.86L619.369 1017.99L603.203 1034.21L619.369 1050.45L624.251 1045.58Z" fill="#1F75BA"/>
<path d="M661.659 1076.95L686.417 1033.95L661.659 990.94H612.13L587.372 1033.95L612.13 1076.95H661.659ZM616.605 998.693H657.21L677.608 1033.99L657.21 1069.27H616.605L596.309 1033.99L616.605 998.693Z" fill="#1F75BA"/>
<path d="M724.879 670.544L704.251 725.759L710.626 728.181L731.266 672.967L724.879 670.544Z" fill="#1F75BA"/>
<path d="M740.699 699.681L729.378 711.03L734.236 715.901L750.465 699.681L734.261 683.423L729.404 688.294L740.699 699.681Z" fill="#1F75BA"/>
<path d="M706.712 711.03L695.378 699.656L706.712 688.294L701.829 683.423L685.663 699.656L701.829 715.901L706.712 711.03Z" fill="#1F75BA"/>
<path d="M744.092 742.386L768.85 699.375L744.092 656.39H694.627L669.856 699.388L694.627 742.386H744.092ZM699.025 664.092H739.63L760.028 699.375L739.63 734.672H699.025L678.729 699.375L699.025 664.092Z" fill="#1F75BA"/>
<path d="M724.879 766.347L704.251 821.561L710.626 823.984L731.266 768.77L724.879 766.347Z" fill="#1F75BA"/>
<path d="M740.699 795.484L729.378 806.833L734.236 811.704L750.439 795.484L734.236 779.226L729.378 784.11L740.699 795.484Z" fill="#1F75BA"/>
<path d="M706.712 806.833L695.378 795.459L706.712 784.11L701.829 779.226L685.663 795.459L701.829 811.704L706.712 806.833Z" fill="#1F75BA"/>
<path d="M744.092 838.201L768.85 795.19L744.092 752.192H694.627L669.856 795.19L694.627 838.201H744.092ZM699.025 759.907H739.63L760.028 795.19L739.63 830.487H699.025L678.729 795.19L699.025 759.907Z" fill="#1F75BA"/>
<path d="M724.879 862.15L704.251 917.364L710.626 919.787L731.266 864.572L724.879 862.15Z" fill="#1F75BA"/>
<path d="M740.699 891.287L729.378 902.636L734.236 907.507L750.439 891.287L734.236 875.003L729.378 879.874L740.699 891.287Z" fill="#1F75BA"/>
<path d="M706.712 902.636L695.378 891.261L706.712 879.912L701.829 875.041L685.663 891.261L701.829 907.507L706.712 902.636Z" fill="#1F75BA"/>
<path d="M744.092 934.004L768.85 891.006L744.092 847.995H694.627L669.856 891.006L694.627 934.004H744.092ZM699.025 855.709H739.63L760.028 891.006L739.63 926.289H699.025L678.729 891.006L699.025 855.709Z" fill="#1F75BA"/>
<path d="M724.879 957.952L704.251 1013.17L710.626 1015.59L731.342 960.438L724.879 957.952Z" fill="#1F75BA"/>
<path d="M740.699 987.089L729.378 998.438L734.236 1003.31L750.465 987.089L734.261 970.844L729.404 975.715L740.699 987.089Z" fill="#1F75BA"/>
<path d="M706.712 998.438L695.378 987.063L706.712 975.715L701.829 970.844L685.663 987.063L701.829 1003.31L706.712 998.438Z" fill="#1F75BA"/>
<path d="M744.092 1029.81L768.85 986.809L744.092 943.861H694.627L669.856 986.872L694.627 1029.87L744.092 1029.81ZM699.025 951.512H739.63L760.028 986.809L739.63 1022.09H699.025L678.729 986.809L699.025 951.512Z" fill="#1F75BA"/>
<path d="M807.363 717.686L786.735 772.901L793.109 775.323L813.75 720.109L807.363 717.686Z" fill="#1F75BA"/>
<path d="M823.136 746.824L811.815 758.173L816.672 763.044L832.876 746.824L816.761 730.565L811.904 735.436L823.136 746.824Z" fill="#1F75BA"/>
<path d="M789.196 758.173L777.862 746.798L789.196 735.436L784.326 730.565L768.147 746.798L784.326 763.044L789.196 758.173Z" fill="#1F75BA"/>
<path d="M826.626 789.567L851.384 746.556L826.626 703.558H777.11L752.352 746.556L777.11 789.567H826.626ZM781.559 711.273H822.164L842.562 746.556L822.164 781.853H781.559L761.263 746.556L781.559 711.273Z" fill="#1F75BA"/>
<path d="M807.363 813.489L786.735 868.703L793.109 871.126L813.75 815.912L807.363 813.489Z" fill="#1F75BA"/>
<path d="M823.136 842.626L811.815 853.975L816.672 858.846L832.876 842.626L816.761 826.368L811.904 831.252L823.136 842.626Z" fill="#1F75BA"/>
<path d="M789.196 853.975L777.862 842.601L789.196 831.252L784.326 826.368L768.147 842.601L784.326 858.846L789.196 853.975Z" fill="#1F75BA"/>
<path d="M826.626 885.344L851.384 842.333L826.626 799.335H777.11L752.352 842.333L777.11 885.344H826.626ZM781.559 807.05H822.164L842.562 842.333L822.164 877.63H781.559L761.263 842.333L781.559 807.05Z" fill="#1F75BA"/>
<path d="M807.363 909.292L786.735 964.506L793.109 966.929L813.75 911.714L807.363 909.292Z" fill="#1F75BA"/>
<path d="M823.136 938.429L811.815 949.778L816.672 954.649L832.876 938.429L816.761 922.183L811.904 927.054L823.136 938.429Z" fill="#1F75BA"/>
<path d="M789.196 949.778L777.862 938.403L789.196 927.054L784.326 922.183L768.147 938.403L784.326 954.649L789.196 949.778Z" fill="#1F75BA"/>
<path d="M826.626 981.147L851.384 938.149L826.626 895.138H777.11L752.352 938.149L777.11 981.147H826.626ZM781.559 902.852H822.164L842.562 938.149L822.164 973.432H781.559L761.263 938.149L781.559 902.852Z" fill="#1F75BA"/>
<path d="M889.85 670.544L869.223 725.759L875.674 728.181L896.301 672.967L889.85 670.544Z" fill="#1F75BA"/>
<path d="M905.671 699.681L894.35 711.03L899.207 715.901L915.411 699.681L899.207 683.423L894.35 688.294L905.671 699.681Z" fill="#1F75BA"/>
<path d="M871.692 711.03L860.346 699.656L871.692 688.294L866.81 683.423L850.631 699.656L866.81 715.901L871.692 711.03Z" fill="#1F75BA"/>
<path d="M909.114 742.386L933.872 699.375L909.114 656.377H859.598L834.84 699.375L859.598 742.386H909.114ZM864.047 664.092H904.652L925.05 699.375L904.652 734.672H864.047L843.751 699.375L864.047 664.092Z" fill="#1F75BA"/>
<path d="M889.85 766.347L869.223 821.561L875.674 823.984L896.301 768.77L889.85 766.347Z" fill="#1F75BA"/>
<path d="M905.671 795.484L894.35 806.833L899.207 811.704L915.411 795.484L899.207 779.226L894.35 784.11L905.671 795.484Z" fill="#1F75BA"/>
<path d="M871.692 806.833L860.346 795.459L871.692 784.11L866.81 779.226L850.631 795.459L866.81 811.704L871.692 806.833Z" fill="#1F75BA"/>
<path d="M909.114 838.201L933.872 795.19L909.114 752.192H859.598L834.84 795.19L859.598 838.201H909.114ZM864.047 759.907H904.652L925.05 795.19L904.652 830.487H864.047L843.751 795.19L864.047 759.907Z" fill="#1F75BA"/>
<path d="M889.85 862.15L869.223 917.364L875.674 919.787L896.301 864.572L889.85 862.15Z" fill="#1F75BA"/>
<path d="M905.671 891.287L894.35 902.636L899.207 907.507L915.411 891.287L899.207 875.003L894.35 879.874L905.671 891.287Z" fill="#1F75BA"/>
<path d="M871.692 902.636L860.346 891.261L871.692 879.912L866.81 875.041L850.631 891.261L866.81 907.507L871.692 902.636Z" fill="#1F75BA"/>
<path d="M909.114 934.004L933.872 891.006L909.114 847.995H859.598L834.84 891.006L859.598 934.004H909.114ZM864.047 855.709H904.652L925.05 891.006L904.652 926.289H864.047L843.751 891.006L864.047 855.709Z" fill="#1F75BA"/>
<path d="M972.296 621.884L951.656 677.098L958.107 679.521L978.734 624.306L972.296 621.884Z" fill="#1F75BA"/>
<path d="M954.18 662.37L942.834 650.996L954.18 639.634L949.349 634.763L933.17 650.996L949.349 667.241L954.18 662.37Z" fill="#1F75BA"/>
<path d="M991.598 693.726L1016.36 650.728L991.598 607.73H942.082L917.323 650.728L942.082 693.726H991.598ZM946.531 615.444H987.136L1007.47 650.728L987.136 686.024H946.531L926.235 650.728L946.531 615.444Z" fill="#1F75BA"/>
<path d="M972.296 717.686L951.656 772.901L958.107 775.323L978.734 720.109L972.296 717.686Z" fill="#1F75BA"/>
<path d="M954.18 758.173L942.834 746.798L954.18 735.436L949.297 730.565L933.119 746.798L949.348 763.044L954.18 758.173Z" fill="#1F75BA"/>
<path d="M991.598 789.567L1016.36 746.556L991.598 703.558H942.082L917.323 746.556L942.082 789.567H991.598ZM946.531 711.273H987.136L1007.47 746.556L987.136 781.853H946.531L926.235 746.556L946.531 711.273Z" fill="#1F75BA"/>
<path d="M972.296 813.489L951.656 868.703L958.107 871.126L978.734 815.912L972.296 813.489Z" fill="#1F75BA"/>
<path d="M954.18 853.975L942.834 842.601L954.18 831.252L949.297 826.368L933.119 842.601L949.297 858.846L954.18 853.975Z" fill="#1F75BA"/>
<path d="M991.598 885.344L1016.36 842.333L991.598 799.335H942.082L917.323 842.333L942.082 885.344H991.598ZM946.531 807.05H987.136L1007.47 842.333L987.136 877.63H946.531L926.235 842.333L946.531 807.05Z" fill="#1F75BA"/>
<path d="M972.296 909.292L951.656 964.506L958.107 966.929L978.734 911.714L972.296 909.292Z" fill="#1F75BA"/>
<path d="M954.18 949.778L942.834 938.403L954.18 927.054L949.349 922.183L933.17 938.403L949.349 954.649L954.18 949.778Z" fill="#1F75BA"/>
<path d="M991.598 981.147L1016.36 938.149L991.598 895.138H942.082L917.323 938.149L942.082 981.147H991.598ZM946.531 902.852H987.136L1007.47 938.149L987.136 973.432H946.531L926.235 938.149L946.531 902.852Z" fill="#1F75BA"/>
</g>
</svg>
