<svg width="527" height="819" viewBox="0 0 527 819" fill="none" xmlns="http://www.w3.org/2000/svg">
<path d="M162.465 651.631C162.058 651.631 161.718 651.292 161.718 650.885V364.552C161.718 364.145 162.058 363.806 162.465 363.806C162.873 363.806 163.212 364.145 163.212 364.552V650.885C163.212 651.292 162.873 651.631 162.465 651.631Z" fill="black"/>
<path d="M192.038 606.732C191.631 606.732 191.291 606.393 191.291 605.985V364.552C191.291 364.145 191.631 363.806 192.038 363.806C192.445 363.806 192.785 364.145 192.785 364.552V605.951C192.785 606.392 192.445 606.732 192.038 606.732Z" fill="black"/>
<path d="M221.606 606.731C221.199 606.731 220.859 606.392 220.859 605.984V297.185C220.859 296.778 221.199 296.438 221.606 296.438C222.014 296.438 222.353 296.778 222.353 297.185V605.95C222.353 606.392 222.014 606.731 221.606 606.731Z" fill="black"/>
<path d="M251.181 606.731C250.774 606.731 250.434 606.392 250.434 605.985V334.619C250.434 334.211 250.774 333.872 251.181 333.872C251.589 333.872 251.928 334.211 251.928 334.619V605.985C251.928 606.392 251.589 606.731 251.181 606.731Z" fill="black"/>
<path d="M280.754 606.732C280.346 606.732 280.007 606.393 280.007 605.985V364.552C280.007 364.145 280.346 363.806 280.754 363.806C281.161 363.806 281.501 364.145 281.501 364.552V605.951C281.501 606.392 281.195 606.732 280.754 606.732Z" fill="black"/>
<path d="M357.145 559.931H115.648C115.241 559.931 114.901 559.591 114.901 559.184C114.901 558.777 115.241 558.438 115.648 558.438H357.145C357.552 558.438 357.892 558.777 357.892 559.184C357.926 559.591 357.586 559.931 357.145 559.931Z" fill="black"/>
<path d="M357.145 530.371H115.648C115.241 530.371 114.901 530.032 114.901 529.625C114.901 529.217 115.241 528.878 115.648 528.878H357.145C357.552 528.878 357.892 529.217 357.892 529.625C357.926 530.032 357.586 530.371 357.145 530.371Z" fill="black"/>
<path d="M357.145 500.777H115.648C115.241 500.777 114.901 500.438 114.901 500.031C114.901 499.624 115.241 499.284 115.648 499.284H357.145C357.552 499.284 357.892 499.624 357.892 500.031C357.926 500.472 357.586 500.777 357.145 500.777Z" fill="black"/>
<path d="M33.6376 536.765C33.5018 536.765 33.366 536.731 33.2641 536.664C32.8907 536.46 32.7889 535.985 32.9926 535.645L77.5558 470.131C77.6916 469.894 77.9293 469.758 78.2009 469.758H357.146C357.554 469.758 357.893 470.097 357.893 470.504C357.893 470.912 357.554 471.251 357.146 471.251H78.6423L34.2827 536.392C34.1469 536.63 33.9092 536.765 33.6376 536.765Z" fill="black"/>
<path d="M257.782 342.071C261.787 338.069 261.787 331.58 257.782 327.577C253.778 323.574 247.286 323.574 243.282 327.577C239.278 331.58 239.278 338.069 243.282 342.071C247.286 346.074 253.778 346.074 257.782 342.071Z" fill="white"/>
<path d="M250.533 345.818C244.456 345.818 239.533 340.897 239.533 334.822C239.533 328.747 244.456 323.826 250.533 323.826C256.611 323.826 261.534 328.747 261.534 334.822C261.534 340.863 256.611 345.818 250.533 345.818ZM250.533 325.319C245.305 325.319 241.027 329.562 241.027 334.822C241.027 340.048 245.271 344.325 250.533 344.325C255.762 344.325 260.04 340.082 260.04 334.822C260.04 329.596 255.762 325.319 250.533 325.319Z" fill="black"/>
<path d="M29.8866 553.467C35.1184 551.301 37.6028 545.305 35.4357 540.076C33.2685 534.846 27.2705 532.363 22.0386 534.529C16.8068 536.695 14.3224 542.691 16.4895 547.92C18.6567 553.15 24.6547 555.634 29.8866 553.467Z" fill="white"/>
<path d="M25.9495 554.996C19.8722 554.996 14.9492 550.075 14.9492 544C14.9492 537.925 19.8722 533.004 25.9495 533.004C32.0268 533.004 36.9498 537.925 36.9498 544C36.9498 550.075 32.0268 554.996 25.9495 554.996ZM25.9495 534.497C20.721 534.497 16.4431 538.739 16.4431 544C16.4431 549.26 20.687 553.502 25.9495 553.502C31.178 553.502 35.4559 549.26 35.4559 544C35.4559 538.739 31.178 534.497 25.9495 534.497Z" fill="black"/>
<path d="M169.743 662.243C173.747 658.241 173.747 651.751 169.743 647.749C165.739 643.746 159.247 643.746 155.243 647.749C151.239 651.751 151.239 658.241 155.243 662.243C159.247 666.246 165.739 666.246 169.743 662.243Z" fill="white"/>
<path d="M162.501 665.986C156.423 665.986 151.5 661.065 151.5 654.99C151.5 648.915 156.423 643.994 162.501 643.994C168.578 643.994 173.501 648.915 173.501 654.99C173.501 661.065 168.578 665.986 162.501 665.986ZM162.501 645.487C157.272 645.487 152.994 649.73 152.994 654.99C152.994 660.216 157.238 664.492 162.501 664.492C167.729 664.492 172.007 660.25 172.007 654.99C172.007 649.764 167.729 645.487 162.501 645.487Z" fill="black"/>
<path d="M357.145 412.098H115.648C115.241 412.098 114.901 411.758 114.901 411.351C114.901 410.944 115.241 410.604 115.648 410.604H357.145C357.552 410.604 357.892 410.944 357.892 411.351C357.926 411.758 357.586 412.098 357.145 412.098Z" fill="black"/>
<path d="M357.145 442.492H115.648C115.241 442.492 114.901 442.153 114.901 441.746C114.901 441.338 115.241 440.999 115.648 440.999H357.145C357.552 440.999 357.892 441.338 357.892 441.746C357.926 442.153 357.586 442.492 357.145 442.492Z" fill="black"/>
<path d="M312.802 579.003H160.021C150.412 579.003 142.637 571.231 142.637 561.627V408.907C142.637 399.303 150.412 391.531 160.021 391.531H312.802C322.41 391.531 330.185 399.303 330.185 408.907V561.627C330.185 571.231 322.41 579.003 312.802 579.003Z" fill="white"/>
<path d="M312.802 579.75H160.02C150.005 579.75 141.89 571.605 141.89 561.628V408.908C141.89 398.896 150.039 390.785 160.02 390.785H312.802C322.818 390.785 330.932 398.93 330.932 408.908V561.628C330.932 571.605 322.784 579.75 312.802 579.75ZM160.02 392.278C150.854 392.278 143.384 399.745 143.384 408.908V561.628C143.384 570.791 150.854 578.257 160.02 578.257H312.802C321.969 578.257 329.438 570.791 329.438 561.628V408.908C329.438 399.745 321.969 392.278 312.802 392.278H160.02Z" fill="black"/>
<path d="M293.042 428.66H179.78V541.876H293.042V428.66Z" fill="#1F75BA"/>
<path d="M293.042 542.623H179.78C179.372 542.623 179.033 542.283 179.033 541.876V428.66C179.033 428.252 179.372 427.913 179.78 427.913H293.042C293.449 427.913 293.789 428.252 293.789 428.66V541.876C293.789 542.283 293.449 542.623 293.042 542.623ZM180.526 541.129H292.295V429.406H180.526V541.129Z" fill="black"/>
<path d="M315.058 295.18C309.197 284.382 298.279 276.685 285.484 275.268C285.599 273.928 285.676 272.626 285.676 271.248C285.676 246.205 265.373 225.948 240.358 225.948C233.577 225.948 227.18 227.441 221.434 230.084C215.075 211.55 197.491 198.263 176.805 198.263C154.74 198.263 136.237 213.388 131.027 233.836C122.102 228.054 111.414 224.723 99.9981 224.723C68.3559 224.723 42.6897 250.378 42.6897 282.008C42.6897 286.565 43.226 290.968 44.222 295.219H315.058V295.18Z" fill="white"/>
<path d="M315.059 296.023H44.1845C43.8014 296.023 43.4567 295.755 43.3801 295.372C42.3457 291.007 41.8094 286.489 41.8094 281.97C41.8478 249.92 67.897 223.843 99.9606 223.843C110.802 223.843 121.336 226.829 130.492 232.497C136.276 211.78 155.162 197.421 176.768 197.421C196.956 197.421 214.999 210.057 221.894 228.974C227.717 226.408 233.923 225.144 240.358 225.144C265.833 225.144 286.519 245.861 286.519 271.287C286.519 272.32 286.481 273.431 286.404 274.541C298.854 276.15 309.772 283.693 315.786 294.798C315.94 295.066 315.94 295.372 315.786 295.64C315.633 295.87 315.365 296.023 315.059 296.023ZM44.8741 294.338H313.603C307.588 284.191 297.131 277.413 285.408 276.111C284.949 276.073 284.604 275.652 284.642 275.192C284.757 273.776 284.834 272.512 284.834 271.248C284.834 246.741 264.875 226.791 240.358 226.791C233.884 226.791 227.64 228.17 221.779 230.85C221.549 230.965 221.32 230.965 221.09 230.85C220.86 230.773 220.707 230.582 220.63 230.352C214.194 211.666 196.573 199.067 176.768 199.067C155.507 199.067 137.042 213.427 131.833 233.99C131.756 234.258 131.564 234.449 131.335 234.564C131.066 234.679 130.798 234.641 130.568 234.488C121.451 228.591 110.878 225.489 99.9989 225.489C68.8547 225.489 43.5333 250.8 43.5333 281.932C43.5333 286.144 43.993 290.279 44.8741 294.338Z" fill="black"/>
<path d="M453.5 273.145L454.082 274.156L496.003 346.916L496.583 347.924L496.003 348.932L454.082 421.691L453.5 422.702H367.322L366.74 421.691L324.818 348.932L324.238 347.924L324.818 346.916L366.74 274.156L367.322 273.145H453.5Z" stroke="#1D2332" stroke-width="4.03861"/>
<g clip-path="url(#clip0_7759_2986)">
<path d="M410.415 398.418C396.435 398.418 383.443 392.772 373.699 382.609C372.993 381.903 373.134 380.774 373.699 380.209C374.405 379.503 375.535 379.644 376.099 380.209C385.137 389.666 397.141 394.889 410.274 394.889C436.258 394.889 457.3 373.857 457.3 347.884C457.3 321.911 436.399 300.879 410.415 300.879C384.431 300.879 363.39 321.911 363.39 347.884C363.39 356.071 365.508 364.258 369.603 371.316C370.027 372.163 369.745 373.292 369.039 373.716C368.191 374.139 367.203 373.857 366.638 373.01C362.119 365.387 359.859 356.777 359.859 347.884C359.859 320.076 382.595 297.35 410.415 297.35C438.235 297.35 460.971 320.076 460.971 347.884C460.971 375.692 438.235 398.418 410.415 398.418Z" fill="#1D2332"/>
<path d="M410.415 398.418C394.739 398.418 382.03 375.692 382.03 347.884C382.03 334.756 384.854 322.334 389.938 312.877C390.362 312.03 391.491 311.748 392.339 312.171C393.186 312.595 393.468 313.724 393.045 314.571C388.243 323.464 385.56 335.321 385.56 347.884C385.56 373.857 396.716 394.889 410.556 394.889C424.254 394.889 435.551 373.857 435.551 347.884C435.551 321.911 424.113 300.879 410.415 300.879C405.613 300.879 400.812 303.561 396.716 308.783C396.152 309.489 395.022 309.63 394.316 309.066C393.61 308.501 393.468 307.372 394.033 306.666C398.693 300.455 404.483 297.35 410.415 297.35C426.09 297.35 438.799 320.076 438.799 347.884C438.799 375.692 426.09 398.418 410.415 398.418Z" fill="#1D2332"/>
<path d="M410.415 376.256C382.595 376.256 359.859 363.552 359.859 347.883C359.859 332.215 382.595 319.511 410.415 319.511C438.235 319.511 460.971 332.215 460.971 347.883C460.971 354.094 457.582 359.882 451.227 364.822C450.521 365.387 449.391 365.246 448.826 364.54C448.261 363.834 448.402 362.705 449.109 362.14C454.616 357.906 457.582 353.106 457.582 348.024C457.582 334.332 436.54 323.04 410.556 323.04C384.572 323.04 363.389 334.05 363.389 347.883C363.389 361.576 384.431 372.868 410.415 372.868C421.289 372.868 431.88 370.892 440.353 367.081C441.2 366.657 442.189 367.081 442.613 367.928C443.036 368.775 442.613 369.763 441.765 370.186C432.727 374.139 421.854 376.256 410.415 376.256Z" fill="#1D2332"/>
<path d="M400.67 361.294C399.823 361.294 399.258 360.729 398.976 360.023L392.339 336.591C392.056 335.603 392.621 334.756 393.61 334.474C394.457 334.192 395.445 334.756 395.728 335.744L400.67 353.107L405.613 335.744C405.895 334.756 406.884 334.333 407.731 334.474C408.72 334.756 409.143 335.744 409.002 336.591L402.365 360.023C402.083 360.729 401.377 361.294 400.67 361.294Z" fill="#1D2332"/>
<path d="M413.52 361.294C412.532 361.294 411.825 360.447 411.825 359.6V346.614V336.309C411.825 335.321 412.673 334.615 413.52 334.615H424.817C426.795 334.615 428.348 336.168 428.348 338.003V345.061C428.348 346.896 426.795 348.449 424.817 348.449H417.757L427.924 358.471C428.63 359.177 428.63 360.306 427.924 360.87C427.218 361.576 426.088 361.576 425.524 360.87L415.356 350.707V359.6C415.356 360.447 414.509 361.294 413.52 361.294ZM415.356 344.779H424.817C424.959 344.779 424.959 344.779 424.959 344.779V338.003C424.959 338.003 424.959 338.003 424.817 338.003H415.215V344.779H415.356Z" fill="#1D2332"/>
</g>
<path d="M467.918 539.635L468.518 540.676L516.243 623.51L516.841 624.547L516.243 625.584L468.518 708.418L467.918 709.459H370.063L369.464 708.418L321.738 625.584L321.141 624.547L321.738 623.51L369.464 540.676L370.063 539.635H467.918Z" fill="#1F75BA" stroke="#1D2332" stroke-width="4.15611"/>
<g clip-path="url(#clip1_7759_2986)">
<path d="M443.096 603.079C443.096 603.079 440.294 604.064 436.504 604.064C430.076 604.064 425.297 601.108 422.66 595.362C421.507 593.063 420.024 591.75 419.859 591.585C418.87 590.929 417.552 591.093 416.892 592.078L414.75 595.033C409.476 602.258 403.049 603.735 398.599 603.735C395.963 603.735 394.15 603.079 394.15 603.079C392.831 602.586 391.513 603.571 391.513 605.049V636.245C391.513 644.454 396.127 651.842 405.027 657.425C411.454 661.529 418.046 663.336 418.211 663.336C418.54 663.5 418.87 663.5 419.364 663.336C419.694 663.336 425.956 661.529 432.548 657.425C441.283 651.842 446.062 644.29 446.062 636.245V605.049C445.897 603.735 444.414 602.75 443.096 603.079ZM441.777 636.409C441.777 651.514 422.166 658.41 418.705 659.395C415.244 658.246 395.633 651.514 395.633 636.409V607.676C396.457 607.84 397.611 607.84 398.764 607.84C412.278 607.84 418.376 596.839 418.87 596.511C418.87 596.675 419.035 596.839 419.035 597.004C423.32 606.198 431.065 608.333 436.668 608.333C438.646 608.333 440.459 608.004 441.942 607.84L441.777 636.409Z" fill="#1D2332"/>
<path d="M425.961 622.617C424.972 621.96 423.654 622.289 423.16 623.11L416.403 633.453L414.096 631.155C413.272 630.334 411.953 630.334 411.129 631.155C410.305 631.976 410.305 633.289 411.129 634.11L415.249 638.215C416.238 639.2 417.721 639.036 418.38 637.886L426.62 625.408C427.28 624.423 426.95 623.11 425.961 622.617Z" fill="#1D2332"/>
<path d="M466.5 609.974H453.975V593.391C453.975 591.914 452.492 590.928 451.174 591.421C451.174 591.421 447.218 592.899 442.274 592.899C433.54 592.899 427.113 588.63 423.487 580.092C422.169 576.973 420.191 575.331 420.026 575.166C419.038 574.346 417.719 574.674 417.06 575.659L414.258 579.764C407.172 590.108 398.438 592.406 392.505 592.406C388.879 592.406 386.407 591.585 386.407 591.585C385.089 591.093 383.605 592.078 383.605 593.556V610.138H370.916C369.762 610.138 368.773 611.124 368.773 612.273C368.773 613.422 369.762 614.407 370.916 614.407H383.441V620.154H375.201C374.047 620.154 373.058 621.139 373.058 622.288C373.058 623.438 374.047 624.423 375.201 624.423H383.441V630.662H377.013C375.86 630.662 374.871 631.647 374.871 632.796C374.871 633.946 375.86 634.931 377.013 634.931H383.276C383.605 636.08 380.639 652.335 400.745 665.962C409.15 671.709 417.554 674.008 418.049 674.172C418.378 674.336 418.873 674.336 419.202 674.172C419.532 674.008 427.772 671.545 436.506 665.962C456.777 652.335 453.811 636.244 453.975 634.931H460.238C461.391 634.931 462.38 633.946 462.38 632.796C462.38 631.647 461.391 630.662 460.238 630.662H453.975V624.423H462.215C463.369 624.423 464.358 623.438 464.358 622.288C464.358 621.139 463.369 620.154 462.215 620.154H453.975V613.915H466.5C467.654 613.915 468.643 612.93 468.643 611.78C468.478 610.795 467.489 609.974 466.5 609.974ZM449.855 636.737C449.855 646.424 444.582 655.126 434.199 662.022C427.607 666.455 420.686 668.918 418.543 669.574C416.566 668.918 409.809 666.619 403.052 662.022C392.505 655.126 387.231 646.424 387.231 636.573V595.854C388.55 596.018 390.198 596.347 392.01 596.347C398.932 596.347 408.985 593.884 417.06 582.062L418.378 580.092C418.708 580.585 418.873 581.077 419.202 581.57C424.641 594.212 434.529 596.839 441.78 596.839C444.746 596.839 447.383 596.347 449.361 595.854V636.737H449.855Z" fill="#1D2332"/>
</g>
<path d="M235.15 781.539H97.7328V676.545H124.517L133.529 686.056H235.15V781.539Z" fill="white"/>
<path d="M235.149 782.088H97.7319C97.4323 782.088 97.1827 781.838 97.1827 781.539V676.545C97.1827 676.246 97.4323 675.996 97.7319 675.996H124.516C124.666 675.996 124.816 676.046 124.916 676.171L133.777 685.507H235.149C235.448 685.507 235.698 685.757 235.698 686.056V781.539C235.723 781.863 235.473 782.088 235.149 782.088ZM98.2811 780.99H234.6V686.605H133.528C133.378 686.605 133.228 686.555 133.128 686.431L124.267 677.094H98.2811V780.99Z" fill="black"/>
<path d="M224.14 792.572H86.723V687.554H113.507L122.519 697.089H224.14V792.572Z" fill="white"/>
<path d="M224.139 793.121H86.7219C86.4224 793.121 86.1727 792.872 86.1727 792.572V687.578C86.1727 687.279 86.4224 687.029 86.7219 687.029H113.506C113.656 687.029 113.806 687.079 113.906 687.204L122.767 696.54H224.164C224.463 696.54 224.713 696.79 224.713 697.089V792.572C224.688 792.872 224.463 793.121 224.139 793.121ZM87.2711 791.998H223.59V697.614H122.518C122.368 697.614 122.218 697.564 122.118 697.439L113.257 688.103H87.2711V791.998Z" fill="black"/>
<path d="M213.131 803.58H75.714V698.562H102.498L111.51 708.097H213.131V803.58Z" fill="white"/>
<path d="M213.13 804.13H75.7132C75.4137 804.13 75.1641 803.88 75.1641 803.581V698.587C75.1641 698.288 75.4137 698.038 75.7132 698.038H102.498C102.647 698.038 102.797 698.088 102.897 698.213L111.759 707.549H213.155C213.455 707.549 213.704 707.799 213.704 708.098V803.581C213.679 803.88 213.43 804.13 213.13 804.13ZM76.2624 803.032H212.581V708.647H111.509C111.359 708.647 111.21 708.597 111.11 708.473L102.248 699.136H76.2624V803.032Z" fill="black"/>
<path d="M160.308 769.631C160.158 769.631 160.033 769.581 159.909 769.481C159.684 769.257 159.684 768.907 159.909 768.708L174.137 754.479L159.909 740.25C159.684 740.025 159.684 739.676 159.909 739.476C160.133 739.251 160.483 739.251 160.682 739.476L175.31 754.104C175.535 754.329 175.535 754.678 175.31 754.878L160.682 769.506C160.583 769.581 160.458 769.631 160.308 769.631Z" fill="black"/>
<path d="M129.78 769.631C129.63 769.631 129.505 769.581 129.38 769.482L114.752 754.853C114.652 754.753 114.603 754.604 114.603 754.454C114.603 754.304 114.652 754.179 114.752 754.055L129.38 739.426C129.605 739.202 129.954 739.202 130.154 739.426C130.379 739.651 130.379 740 130.154 740.2L115.926 754.429L130.154 768.658C130.379 768.882 130.379 769.232 130.154 769.432C130.054 769.581 129.929 769.631 129.78 769.631Z" fill="black"/>
<path d="M137.245 769.98C137.17 769.98 137.07 769.955 136.995 769.93C136.72 769.781 136.62 769.456 136.745 769.182L151.997 739.201C152.147 738.927 152.471 738.827 152.746 738.952C153.021 739.101 153.12 739.426 152.996 739.7L137.744 769.681C137.644 769.881 137.444 769.98 137.245 769.98Z" fill="black"/>
<path d="M193.892 2.98047L194.475 3.99219L237.921 79.3994L238.502 80.4072L237.921 81.416L194.475 156.822L193.892 157.834H104.665L104.082 156.822L60.6343 81.416L60.0542 80.4072L60.6343 79.3994L104.082 3.99219L104.665 2.98047H193.892Z" fill="white" stroke="#1D2332" stroke-width="4.03861"/>
<path d="M192.56 38.0957H105.137C104.084 38.0957 103.181 39.0003 103.181 40.0556V111.666C103.181 112.722 104.084 113.626 105.137 113.626H139.294V124.933H135.532C134.479 124.933 133.576 125.838 133.576 126.893C133.576 127.948 134.479 128.853 135.532 128.853C140.949 128.853 151.933 128.853 162.165 128.853C163.219 128.853 164.121 127.948 164.121 126.893C164.121 125.838 163.219 124.933 162.165 124.933H158.404V113.626H192.56C193.614 113.626 194.516 112.722 194.516 111.666V40.0556C194.366 39.0003 193.614 38.0957 192.56 38.0957ZM190.604 41.8647V102.168H106.943V41.8647H190.604ZM154.491 124.782H143.055V113.475H154.491V124.782ZM106.943 109.706V105.937H190.454V109.706C174.353 109.706 123.344 109.706 106.943 109.706Z" fill="#1D2332"/>
<path d="M112.814 83.3239H143.209C144.262 83.3239 145.165 82.4194 145.165 81.3641C145.165 76.2383 145.165 56.3381 145.165 47.4433C145.165 46.388 144.262 45.4834 143.209 45.4834H112.814C111.76 45.4834 110.857 46.388 110.857 47.4433C110.857 50.4584 110.857 72.7708 110.857 81.3641C110.707 82.5702 111.61 83.3239 112.814 83.3239ZM114.619 79.555V60.7101H141.253V79.555H114.619ZM114.619 49.4031H141.253V56.9411H114.619V49.4031Z" fill="#1D2332"/>
<path d="M123.494 65.081C122.742 64.3272 121.538 64.3272 120.786 65.081L117.024 68.85C116.272 69.6037 116.272 70.8098 117.024 71.5636L120.786 75.3326C121.538 76.0864 122.742 76.0864 123.494 75.3326C124.247 74.5788 124.247 73.3727 123.494 72.6189L121.087 70.2068L123.494 67.7946C124.247 67.0408 124.247 65.8348 123.494 65.081Z" fill="#1D2332"/>
<path d="M134.932 65.0819C134.18 64.3282 132.976 64.3282 132.224 65.0819C131.471 65.8357 131.471 67.0418 132.224 67.7956L134.631 70.2078L132.374 72.6199C131.17 73.826 132.073 75.7858 133.728 75.7858C134.18 75.7858 134.631 75.6351 135.083 75.1828L138.844 71.4138C139.597 70.66 139.597 69.454 138.844 68.7002L134.932 65.0819Z" fill="#1D2332"/>
<path d="M120.338 51.3633H116.576V55.1323H120.338V51.3633Z" fill="#1D2332"/>
<path d="M127.86 51.3633H124.099V55.1323H127.86V51.3633Z" fill="#1D2332"/>
<path d="M154.49 98.3991H184.885C185.939 98.3991 186.841 97.4946 186.841 96.4393C186.841 91.3135 186.841 71.4133 186.841 62.5185C186.841 61.4631 185.939 60.5586 184.885 60.5586H154.49C153.437 60.5586 152.534 61.4631 152.534 62.5185C152.534 65.5336 152.534 87.846 152.534 96.4393C152.534 97.6453 153.437 98.3991 154.49 98.3991ZM156.296 94.6302V75.7853H182.929V94.6302H156.296ZM156.296 64.4783H182.929V72.0163H156.296V64.4783Z" fill="#1D2332"/>
<path d="M165.326 80.1581C164.574 79.4043 163.37 79.4043 162.618 80.1581L158.856 83.9271C158.104 84.6809 158.104 85.887 158.856 86.6408L162.618 90.4097C163.37 91.1635 164.574 91.1635 165.326 90.4097C166.079 89.6559 166.079 88.4499 165.326 87.6961L162.919 85.2839L165.326 82.8718C166.079 82.118 166.079 80.9119 165.326 80.1581Z" fill="#1D2332"/>
<path d="M176.762 80.1581C176.01 79.4043 174.806 79.4043 174.054 80.1581C173.301 80.9119 173.301 82.118 174.054 82.8718L176.461 85.2839L174.054 87.6961C173.301 88.4499 173.301 89.6559 174.054 90.4097C174.806 91.1635 176.01 91.1635 176.762 90.4097L180.524 86.6408C181.276 85.887 181.276 84.6809 180.524 83.9271L176.762 80.1581Z" fill="#1D2332"/>
<path d="M162.166 66.4385H158.404V70.2075H162.166V66.4385Z" fill="#1D2332"/>
<path d="M169.694 66.4385H165.932V70.2075H169.694V66.4385Z" fill="#1D2332"/>
<defs>
<clipPath id="clip0_7759_2986">
<rect width="101.112" height="101.069" fill="white" transform="translate(359.857 297.35)"/>
</clipPath>
<clipPath id="clip1_7759_2986">
<rect width="99.8691" height="99.8262" fill="white" transform="translate(368.764 574.674)"/>
</clipPath>
</defs>
</svg>
