<svg width="697" height="206" viewBox="0 0 697 206" fill="none" xmlns="http://www.w3.org/2000/svg">
<path d="M152.937 97.3633L121.713 180.492L131.471 184.191L162.695 101.063L152.937 97.3633Z" fill="#1D2332"/>
<path d="M159.305 123.566L176.356 140.829L159.305 157.886L166.598 165.181L191.146 140.829L166.598 116.373L159.305 123.669V123.566Z" fill="#1D2332"/>
<path d="M107.847 140.829L124.897 123.566L117.605 116.27L93.0566 140.726L117.605 165.079L124.897 157.783L107.847 140.726V140.829Z" fill="#1D2332"/>
<path d="M172.863 87.9099L203.677 141.034L172.863 193.953H111.545L80.7312 141.034L111.339 87.9099H172.863ZM179.745 76.0931H104.766L67.276 140.829L104.766 205.564H179.642L217.132 140.829L179.848 76.0931H179.745Z" fill="#1D2332"/>
<path d="M62.4486 0.568542L0 108.153L42.1117 107.947L83.299 36.9437H165.057L186.319 0.568542H62.4486Z" fill="#1F75BA"/>
<path d="M155.608 45.164H88.0237L53.9235 103.837L70.6655 113.496L78.3689 100.343L98.1922 64.4819H155.505V45.0613H155.608V45.164Z" fill="#1F75BA"/>
<path d="M179.129 8.5834H173.377V64.9957H179.129V8.5834Z" fill="#1F75BA"/>
<path d="M263.147 171.038C264.277 170.73 265.098 169.908 265.509 169.189C266.023 168.367 266.228 166.928 266.228 165.592C266.228 164.257 265.715 162.304 264.79 161.174C263.558 159.838 261.709 159.53 259.552 159.53H254.416V184.191H259.86C261.709 184.191 263.866 184.191 265.406 182.65C266.434 181.622 267.05 179.875 267.05 177.204C267.05 174.532 266.844 174.326 266.023 173.093C265.406 172.169 264.379 171.449 263.249 171.038H263.147ZM257.19 161.996H259.346C260.271 161.996 261.401 161.996 262.12 162.715C262.633 163.126 263.352 164.154 263.352 166.414C263.352 168.675 263.352 168.469 262.531 169.292C261.709 170.114 260.374 170.216 259.449 170.216H257.19V162.099V161.996ZM263.044 180.903C262.12 181.828 260.682 181.828 259.86 181.828H257.19V172.477H259.757C260.476 172.477 261.914 172.477 262.736 173.196C263.66 174.018 264.174 175.765 264.174 176.998C264.174 178.231 263.866 179.978 263.044 180.8V180.903Z" fill="#535762"/>
<path d="M274.856 167.75C275.575 167.75 276.294 168.161 276.705 168.572C277.321 169.189 277.732 170.833 277.835 171.963L280.197 171.449C279.991 169.703 279.272 167.75 278.245 166.723C277.116 165.592 275.883 165.49 274.856 165.49C273.829 165.49 272.494 165.592 271.158 166.928C270.234 167.956 269.001 170.011 269.001 175.354C269.001 180.697 269.926 181.93 270.85 182.958C271.775 183.985 273.213 184.705 274.959 184.705C276.705 184.705 277.937 183.985 278.554 183.369C279.478 182.341 280.197 180.286 280.402 178.642L278.04 178.334C278.04 179.361 277.629 180.595 277.218 181.314C276.602 182.136 275.78 182.444 275.061 182.444C274.342 182.444 273.521 181.93 273.007 181.314C272.185 180.286 272.083 178.231 272.083 174.429C272.083 170.627 272.596 169.292 273.007 168.675C273.418 168.058 274.137 167.647 275.061 167.647L274.856 167.75Z" fill="#535762"/>
<path d="M294.268 175.457C294.268 171.244 293.652 168.881 292.42 167.442C291.084 165.901 289.544 165.592 288.311 165.592C287.079 165.592 285.641 165.798 284.305 167.647C282.867 169.6 282.354 172.682 282.354 175.457C282.354 178.231 282.559 180.389 283.894 182.444C285.127 184.294 286.668 184.808 288.414 184.808C290.16 184.808 291.803 184.294 292.933 182.239C293.549 181.211 293.755 180.184 293.96 179.567L291.701 178.95C291.495 179.67 291.084 181.108 290.571 181.725C290.057 182.341 289.235 182.547 288.619 182.547C287.592 182.547 286.565 182.033 285.949 181.108C285.127 179.875 284.922 176.998 284.922 175.457H294.166H294.268ZM285.949 169.086C286.565 168.059 287.489 167.647 288.208 167.647C288.927 167.647 290.057 168.161 290.571 168.881C291.084 169.6 291.29 170.73 291.392 173.196H285.024C285.23 171.244 285.332 169.908 285.949 168.983V169.086Z" fill="#535762"/>
<path d="M303.512 165.695C302.691 165.695 301.664 165.798 300.842 166.723C300.226 167.339 299.815 168.161 299.609 168.983V166.003H297.247V190.459H299.815V182.444C300.02 183.061 300.534 183.472 300.945 183.883C301.15 183.985 301.972 184.705 303.512 184.705C305.053 184.705 306.696 183.985 307.826 181.93C308.751 180.081 309.059 177.101 309.059 175.046C309.059 172.991 308.751 169.703 307.415 167.853C306.594 166.62 305.361 165.798 303.615 165.798L303.512 165.695ZM305.361 180.903C304.95 181.622 304.129 182.341 302.896 182.341C301.664 182.341 301.253 182.033 300.636 181.108C299.815 179.978 299.815 178.334 299.815 176.895V173.607C299.815 171.963 300.123 169.908 300.842 168.881C301.15 168.47 301.869 167.75 303.102 167.75C304.334 167.75 304.745 168.161 305.258 169.086C306.08 170.627 306.183 173.607 306.183 174.943C306.183 176.279 305.977 179.773 305.464 180.697L305.361 180.903Z" fill="#535762"/>
<path d="M317.481 165.592C315.838 165.592 314.605 166.209 313.681 167.339C311.935 169.292 311.524 172.888 311.524 175.149C311.524 177.409 312.14 181.314 313.681 183.061C314.605 184.088 315.94 184.808 317.481 184.808C319.022 184.808 320.46 184.088 321.281 183.061C322.822 181.417 323.438 178.128 323.438 175.149C323.438 172.169 323.027 169.292 321.281 167.339C320.357 166.209 319.124 165.592 317.481 165.592ZM320.152 180.286C319.535 182.239 318.2 182.547 317.481 182.547C316.762 182.547 315.427 182.239 314.811 180.286C314.4 178.95 314.297 176.587 314.297 175.149C314.297 173.71 314.502 171.244 314.811 170.011C315.427 167.956 316.968 167.75 317.481 167.75C317.995 167.75 319.433 167.956 320.152 170.011C320.562 171.244 320.665 173.607 320.665 175.149C320.665 176.69 320.562 178.95 320.152 180.286Z" fill="#535762"/>
<path d="M331.963 167.75C332.682 167.75 333.401 168.161 333.812 168.572C334.429 169.189 334.839 170.833 334.942 171.963L337.304 171.449C337.099 169.703 336.38 167.75 335.353 166.723C334.223 165.592 332.991 165.49 331.963 165.49C330.936 165.49 329.601 165.592 328.266 166.928C327.341 167.956 326.109 170.011 326.109 175.354C326.109 180.697 327.033 181.93 327.958 182.958C328.882 183.985 330.32 184.705 332.066 184.705C333.812 184.705 335.045 183.985 335.661 183.369C336.585 182.341 337.304 180.286 337.51 178.642L335.147 178.334C335.147 179.361 334.737 180.595 334.326 181.314C333.71 182.136 332.888 182.444 332.169 182.444C331.45 182.444 330.628 181.93 330.115 181.314C329.293 180.286 329.19 178.231 329.19 174.429C329.19 170.627 329.704 169.292 330.115 168.675C330.525 168.058 331.244 167.647 332.169 167.647L331.963 167.75Z" fill="#535762"/>
<path d="M345.213 167.75C345.932 167.75 346.651 168.161 347.062 168.572C347.678 169.189 348.089 170.833 348.192 171.963L350.554 171.449C350.349 169.703 349.63 167.75 348.603 166.723C347.473 165.592 346.24 165.49 345.213 165.49C344.186 165.49 342.851 165.592 341.516 166.928C340.591 167.956 339.359 170.011 339.359 175.354C339.359 180.697 340.283 181.93 341.208 182.958C342.132 183.985 343.57 184.705 345.316 184.705C347.062 184.705 348.295 183.985 348.911 183.369C349.835 182.341 350.554 180.286 350.76 178.642L348.397 178.334C348.397 179.361 347.986 180.595 347.576 181.314C346.959 182.136 346.138 182.444 345.419 182.444C344.7 182.444 343.878 181.93 343.364 181.314C342.543 180.286 342.44 178.231 342.44 174.429C342.44 170.627 342.954 169.292 343.364 168.675C343.775 168.058 344.494 167.647 345.419 167.647L345.213 167.75Z" fill="#535762"/>
<path d="M361.647 167.031L356.82 177.512L355.998 179.464L356.101 177.409V166.003H353.533V184.294H356.101V183.061L360.928 172.888L361.75 170.936L361.647 172.888V184.294H364.215V166.003H361.647V167.031Z" fill="#535762"/>
<path d="M376.746 167.031L371.918 177.512L371.096 179.464L371.199 177.409V166.003H368.631V184.294H371.199V183.061L376.027 172.888L376.848 170.936L376.746 172.888V184.294H379.313V166.003H376.746V167.031Z" fill="#535762"/>
<path d="M373.972 163.948C374.897 163.948 376.129 163.743 377.054 162.818C377.773 162.099 378.081 160.968 378.081 159.941H375.924C375.924 160.763 375.719 161.277 375.41 161.585C375 162.201 374.486 162.407 373.87 162.407C373.253 162.407 372.74 162.201 372.329 161.585C372.124 161.277 371.816 160.66 371.816 159.941H369.659C369.659 160.968 370.069 162.099 370.686 162.818C371.61 163.743 372.945 163.948 373.87 163.948H373.972Z" fill="#535762"/>
<path d="M388.66 167.75C389.379 167.75 390.098 168.161 390.509 168.572C391.125 169.189 391.536 170.833 391.639 171.963L394.001 171.449C393.796 169.703 393.077 167.75 392.05 166.723C390.92 165.592 389.687 165.49 388.66 165.49C387.633 165.49 386.298 165.592 384.963 166.928C384.038 167.956 382.806 170.011 382.806 175.354C382.806 180.697 383.73 181.93 384.654 182.958C385.579 183.985 387.017 184.705 388.763 184.705C390.509 184.705 391.741 183.985 392.358 183.369C393.282 182.341 394.001 180.286 394.207 178.642L391.844 178.334C391.844 179.361 391.433 180.595 391.023 181.314C390.406 182.136 389.585 182.444 388.866 182.444C388.147 182.444 387.325 181.93 386.811 181.314C385.99 180.286 385.887 178.231 385.887 174.429C385.887 170.627 386.4 169.292 386.811 168.675C387.222 168.058 387.941 167.647 388.866 167.647L388.66 167.75Z" fill="#535762"/>
<path d="M406.327 181.519C406.018 180.697 406.018 178.642 405.71 177.204C405.505 176.279 405.094 175.046 403.656 174.635C404.478 174.327 405.094 173.813 405.505 172.785C405.71 172.169 405.71 171.655 405.916 170.011C406.018 168.983 406.121 168.572 406.429 168.264C406.532 168.161 406.84 167.956 407.251 168.058V166.003C407.148 166.003 406.532 165.901 406.327 165.901C405.71 165.901 404.58 166.106 404.067 167.75C403.862 168.47 403.759 169.292 403.656 170.011C403.553 170.936 403.553 171.552 403.348 172.169C402.937 173.402 402.218 173.607 401.499 173.607H399.856V166.003H397.288V184.294H399.856V175.765H401.602C402.115 175.765 402.629 176.073 402.937 176.382C403.348 176.895 403.451 177.82 403.553 178.642C403.759 180.8 403.964 181.828 404.17 182.444C404.375 183.061 404.991 184.499 406.737 184.499C408.484 184.499 407.456 184.499 407.765 184.294V182.239C406.943 182.444 406.532 181.828 406.429 181.622L406.327 181.519Z" fill="#535762"/>
<path d="M418.036 167.031L413.208 177.512L412.387 179.464L412.489 177.409V166.003H409.921V184.294H412.489V183.061L417.317 172.888L418.138 170.936L418.036 172.888V184.294H420.603V166.003H418.036V167.031Z" fill="#535762"/>
<path d="M433.134 167.031L428.307 177.512L427.485 179.464L427.588 177.409V166.003H425.02V184.294H427.588V183.061L432.415 172.888L433.237 170.936L433.134 172.888V184.294H435.702V166.003H433.134V167.031Z" fill="#535762"/>
<path d="M430.361 163.948C431.285 163.948 432.518 163.743 433.442 162.818C434.161 162.099 434.469 160.968 434.469 159.941H432.313C432.313 160.763 432.107 161.277 431.799 161.585C431.388 162.201 430.875 162.407 430.258 162.407C429.642 162.407 429.128 162.201 428.718 161.585C428.512 161.277 428.204 160.66 428.204 159.941H426.047C426.047 160.968 426.355 162.099 427.074 162.818C427.999 163.743 429.334 163.948 430.258 163.948H430.361Z" fill="#535762"/>
<path d="M453.574 165.592C451.931 165.592 450.698 166.209 449.774 167.339C448.027 169.292 447.617 172.888 447.617 175.149C447.617 177.409 448.233 181.314 449.774 183.061C450.698 184.088 452.033 184.808 453.574 184.808C455.115 184.808 456.553 184.088 457.374 183.061C458.915 181.417 459.531 178.128 459.531 175.149C459.531 172.169 459.12 169.292 457.374 167.339C456.45 166.209 455.217 165.592 453.574 165.592ZM456.244 180.286C455.628 182.239 454.293 182.547 453.574 182.547C452.855 182.547 451.52 182.239 450.903 180.286C450.493 178.95 450.39 176.587 450.39 175.149C450.39 173.71 450.595 171.244 450.903 170.011C451.52 167.956 453.06 167.75 453.574 167.75C454.087 167.75 455.525 167.956 456.244 170.011C456.553 171.244 456.758 173.607 456.758 175.149C456.758 176.69 456.655 178.95 456.244 180.286Z" fill="#535762"/>
<path d="M471.035 173.607H465.694V166.003H463.126V184.294H465.694V175.765H471.035V184.294H473.603V166.003H471.035V173.607Z" fill="#535762"/>
<path d="M479.149 172.169C478.944 178.231 478.533 179.875 478.327 180.595C477.917 181.519 477.095 182.239 475.965 182.136V184.191C476.787 184.294 478.533 184.396 479.765 182.855C480.69 181.622 480.998 180.184 481.101 178.745C481.306 176.895 481.409 175.662 481.409 173.813C481.409 172.58 481.409 171.449 481.511 168.264H485.209V184.191H487.777V165.901H479.252C479.252 166.928 479.252 170.422 479.149 172.169Z" fill="#535762"/>
<path d="M502.67 179.978V172.682C502.67 169.805 502.67 167.647 500.718 166.414C499.691 165.695 498.356 165.592 497.534 165.592C496.302 165.592 494.658 165.798 493.426 167.031C492.604 167.853 491.988 169.189 491.783 170.525L494.145 171.141C494.145 170.73 494.453 169.703 494.761 169.086C495.48 167.956 496.405 167.75 497.124 167.75C498.356 167.75 498.972 168.264 499.28 168.572C499.897 169.292 499.897 170.73 499.897 172.888C498.356 172.785 496.199 172.888 494.453 173.607C493.118 174.224 491.166 175.662 491.166 179.259C491.166 182.855 491.68 182.444 492.501 183.266C493.015 183.78 494.042 184.705 495.994 184.705C497.945 184.705 497.842 184.602 498.767 183.78C499.383 183.266 499.897 182.341 500.102 181.622C500.102 182.136 500.102 183.061 500.41 184.294H502.67C502.362 182.65 502.465 181.211 502.465 180.081L502.67 179.978ZM499.178 180.8C498.356 182.136 497.226 182.444 496.507 182.444C495.788 182.444 495.275 182.239 494.864 181.725C494.35 181.211 494.145 180.184 494.145 179.362C494.145 178.539 494.453 176.998 495.069 176.279C496.096 175.046 498.048 174.943 500.102 175.046C500.102 177.409 500.102 179.362 499.28 180.8H499.178Z" fill="#535762"/>
<path d="M512.119 163.948C513.044 163.948 514.276 163.743 515.201 162.818C515.92 162.099 516.228 160.968 516.228 159.941H514.071C514.071 160.763 513.865 161.277 513.557 161.585C513.146 162.201 512.633 162.407 512.017 162.407C511.4 162.407 510.887 162.201 510.476 161.585C510.271 161.277 509.962 160.66 509.962 159.941H507.805C507.805 160.968 508.114 162.099 508.833 162.818C509.757 163.743 511.092 163.948 512.017 163.948H512.119Z" fill="#535762"/>
<path d="M514.893 167.031L510.065 177.512L509.346 179.464L509.449 177.409V166.003H506.881V184.294H509.449V183.061L514.276 172.888L515.098 170.936L514.893 172.888V184.294H517.46V166.003H514.893V167.031Z" fill="#535762"/>
<path d="M529.888 173.607H524.547V166.003H521.98V184.294H524.547V175.765H529.888V184.294H532.456V166.003H529.888V173.607Z" fill="#535762"/>
<path d="M542.214 173.813H535.948V176.073H542.214V173.813Z" fill="#535762"/>
<path d="M554.128 166.003H551.663L549.404 172.271L546.836 166.003H544.063L547.966 174.532L543.652 184.294H546.22L549.095 176.998L552.074 184.294H554.847L550.533 174.532L554.128 166.003Z" fill="#535762"/>
<path d="M567.584 179.978V172.682C567.584 169.805 567.584 167.647 565.632 166.414C564.605 165.695 563.27 165.592 562.448 165.592C561.215 165.592 559.572 165.798 558.339 167.031C557.518 167.853 556.902 169.189 556.696 170.525L559.058 171.141C559.058 170.73 559.367 169.703 559.675 169.086C560.394 167.956 561.318 167.75 562.037 167.75C563.27 167.75 563.886 168.264 564.194 168.572C564.81 169.292 564.81 170.73 564.81 172.888C563.27 172.785 561.113 172.888 559.367 173.607C558.031 174.224 556.08 175.662 556.08 179.259C556.08 182.855 556.593 182.444 557.415 183.266C557.929 183.78 558.956 184.705 560.907 184.705C562.859 184.705 562.756 184.602 563.681 183.78C564.297 183.266 564.81 182.341 565.016 181.622C565.016 182.136 565.016 183.061 565.324 184.294H567.584C567.275 182.65 567.378 181.211 567.378 180.081L567.584 179.978ZM563.989 180.8C563.167 182.136 562.037 182.444 561.318 182.444C560.599 182.444 560.086 182.239 559.675 181.725C559.161 181.211 558.956 180.184 558.956 179.362C558.956 178.539 559.264 176.998 559.88 176.279C560.907 175.046 562.859 174.943 564.913 175.046C564.913 177.409 564.913 179.362 564.091 180.8H563.989Z" fill="#535762"/>
<path d="M581.039 181.519C580.731 180.697 580.731 178.642 580.423 177.204C580.217 176.279 579.806 175.046 578.368 174.635C579.19 174.327 579.806 173.813 580.217 172.785C580.423 172.169 580.423 171.655 580.628 170.011C580.731 168.983 580.833 168.572 581.142 168.264C581.244 168.161 581.552 167.956 581.963 168.058V166.003C581.86 166.003 581.244 165.901 581.039 165.901C580.423 165.901 579.293 166.106 578.779 167.75C578.574 168.47 578.471 169.292 578.368 170.011C578.266 170.936 578.266 171.552 578.06 172.169C577.649 173.402 576.93 173.607 576.211 173.607H574.568V166.003H572V184.294H574.568V175.765H576.314C576.828 175.765 577.341 176.073 577.649 176.382C578.06 176.895 578.163 177.82 578.266 178.642C578.471 180.8 578.676 181.828 578.882 182.444C579.087 183.061 579.704 184.499 581.45 184.499C583.196 184.499 582.169 184.499 582.477 184.294V182.239C581.655 182.444 581.244 181.828 581.142 181.622L581.039 181.519Z" fill="#535762"/>
<path d="M595.418 179.978V172.682C595.418 169.805 595.418 167.647 593.467 166.414C592.44 165.695 591.104 165.592 590.283 165.592C589.05 165.592 587.407 165.798 586.174 167.031C585.353 167.853 584.736 169.189 584.531 170.525L586.893 171.141C586.893 170.73 587.201 169.703 587.51 169.086C588.229 167.956 589.153 167.75 589.872 167.75C591.104 167.75 591.721 168.264 592.029 168.572C592.645 169.292 592.645 170.73 592.645 172.888C591.104 172.785 588.948 172.888 587.201 173.607C585.866 174.224 583.915 175.662 583.915 179.259C583.915 182.855 584.428 182.444 585.25 183.266C585.763 183.78 586.791 184.705 588.742 184.705C590.694 184.705 590.591 184.602 591.515 183.78C592.132 183.266 592.645 182.341 592.851 181.622C592.851 182.136 592.851 183.061 593.159 184.294H595.418C595.11 182.65 595.213 181.211 595.213 180.081L595.418 179.978ZM591.926 180.8C591.104 182.136 589.975 182.444 589.256 182.444C588.537 182.444 588.023 182.239 587.612 181.725C587.099 181.211 586.893 180.184 586.893 179.362C586.893 178.539 587.201 176.998 587.818 176.279C588.845 175.046 590.796 174.943 592.851 175.046C592.851 177.409 592.851 179.362 592.029 180.8H591.926Z" fill="#535762"/>
<path d="M596.754 168.058H601.17V184.294H603.738V168.058H608.052V166.003H596.754V168.058Z" fill="#535762"/>
<path d="M614.831 165.592C613.187 165.592 611.955 166.209 611.031 167.339C609.284 169.292 608.874 172.888 608.874 175.149C608.874 177.409 609.49 181.314 611.031 183.061C611.955 184.088 613.29 184.808 614.831 184.808C616.371 184.808 617.809 184.088 618.631 183.061C620.172 181.417 620.788 178.128 620.788 175.149C620.788 172.169 620.377 169.292 618.631 167.339C617.707 166.209 616.474 165.592 614.831 165.592ZM617.399 180.286C616.782 182.239 615.447 182.547 614.728 182.547C614.009 182.547 612.674 182.239 612.058 180.286C611.647 178.95 611.544 176.587 611.544 175.149C611.544 173.71 611.749 171.244 612.058 170.011C612.674 167.956 614.215 167.75 614.728 167.75C615.242 167.75 616.68 167.956 617.399 170.011C617.707 171.244 617.912 173.607 617.912 175.149C617.912 176.69 617.809 178.95 617.399 180.286Z" fill="#535762"/>
<path d="M632.292 166.003V173.607H626.951V166.003H624.383V184.294H626.951V175.765H632.292V184.294H634.86V166.003H632.292Z" fill="#535762"/>
<path d="M290.571 125.107C290.057 124.182 289.852 122.949 289.441 118.325C289.133 114.729 288.722 111.646 287.489 109.283C285.949 106.406 283.381 104.762 280.505 104.453V104.145C282.457 103.837 283.895 102.809 284.922 101.782C286.565 100.035 287.181 98.0826 287.489 96.233C288.208 92.7394 288.311 91.4036 288.517 89.2457C288.927 85.6493 290.468 85.4438 291.393 85.4438H292.111V75.8876C290.982 75.4766 290.16 75.3738 288.619 75.3738C286.36 75.3738 283.792 75.5793 281.738 77.0179C280.094 78.0455 278.862 79.895 278.143 81.8474C277.424 83.7997 277.218 86.0603 276.705 90.0677C276.294 93.9724 276.294 94.8972 275.986 96.0275C275.678 97.1578 275.061 99.8294 270.85 99.8294H266.844V75.8876H254.314V136.718H266.844V109.899H270.85C272.185 109.899 274.342 109.899 275.678 111.749C276.807 113.188 277.218 115.448 277.424 118.531C278.04 126.032 278.348 129.628 279.786 132.505C282.046 136.718 286.257 137.232 289.544 137.232C292.83 137.232 291.803 137.232 293.036 136.718V126.237C291.803 126.546 290.982 126.237 290.365 125.21L290.571 125.107Z" fill="#1F75BA"/>
<path d="M316.454 74.7574C312.243 74.7574 306.594 75.7849 302.28 82.2584C300.226 85.3411 297.35 91.7119 297.35 106.2C297.35 120.689 300.226 127.059 302.28 130.142C306.594 136.513 312.346 137.643 316.454 137.643C320.563 137.643 326.314 136.616 330.628 130.142C332.682 127.059 335.558 120.689 335.558 106.2C335.558 91.7119 332.682 85.3411 330.628 82.2584C326.314 75.8877 320.563 74.7574 316.454 74.7574ZM320.357 124.491C319.741 125.415 318.611 126.751 316.454 126.751C314.297 126.751 313.167 125.415 312.551 124.491C311.113 122.333 310.497 118.12 310.497 106.2C310.497 94.2807 311.113 90.0678 312.551 87.9099C313.167 86.9852 314.297 85.6493 316.454 85.6493C318.611 85.6493 319.741 86.9852 320.357 87.9099C321.795 90.0678 322.411 94.2807 322.411 106.2C322.411 118.12 321.795 122.333 320.357 124.491Z" fill="#1F75BA"/>
<path d="M379.519 125.724V75.7849H349.938C349.219 91.3008 348.911 95.9248 348.808 98.5964C348.5 103.426 347.781 108.769 346.446 113.907C345.316 118.12 343.775 122.024 341.105 126.032H336.791V149.974H347.473V136.616H374.691V149.974H385.374V125.724H379.416H379.519ZM366.988 125.929H353.122C355.793 120.38 357.128 115.448 358.052 109.077C358.977 102.296 359.696 92.5339 359.798 86.5741H366.885V125.929H366.988Z" fill="#1F75BA"/>
<path d="M449.055 75.7849H419.474C418.755 91.3008 418.549 95.9248 418.344 98.5964C418.036 103.426 417.317 108.769 415.981 113.907C414.852 118.12 413.311 122.024 410.64 126.032H406.327V149.974H417.009V136.616H444.227V149.974H454.909V125.724H448.952V75.7849H449.055ZM436.524 125.929H422.658C425.328 120.38 426.663 115.448 427.588 109.077C428.615 102.296 429.231 92.5339 429.334 86.5741H436.421V125.929H436.524Z" fill="black"/>
<path d="M477.095 74.7574C472.884 74.7574 467.234 75.7849 462.921 82.2584C460.866 85.3411 457.99 91.7119 457.99 106.2C457.99 120.689 460.866 127.059 462.921 130.142C467.234 136.513 472.986 137.643 477.095 137.643C481.203 137.643 486.955 136.616 491.269 130.142C493.323 127.059 496.199 120.689 496.199 106.2C496.199 91.7119 493.323 85.3411 491.269 82.2584C486.955 75.8877 481.203 74.7574 477.095 74.7574ZM480.998 124.491C480.382 125.415 479.252 126.751 477.095 126.751C474.938 126.751 473.808 125.415 473.192 124.491C471.754 122.333 471.138 118.12 471.138 106.2C471.138 94.2807 471.754 90.0678 473.192 87.9099C473.808 86.9852 474.938 85.6493 477.095 85.6493C479.252 85.6493 480.382 86.9852 480.998 87.9099C482.436 90.0678 483.052 94.2807 483.052 106.2C483.052 118.12 482.436 122.333 480.998 124.491Z" fill="black"/>
<path d="M522.185 85.7521C524.239 85.7521 525.985 86.6769 527.115 88.8347C527.732 89.965 528.553 92.5339 528.759 99.2129L539.851 98.2882C539.851 93.4587 538.927 84.8273 533.792 79.5868C531.943 77.7372 528.245 74.7574 521.877 74.7574C515.509 74.7574 510.681 77.9428 508.216 81.0254C502.156 88.321 501.848 100.754 501.848 105.892C501.848 111.03 502.156 123.771 507.497 130.964C510.168 134.561 514.584 137.643 521.672 137.643C528.759 137.643 530.402 136.205 533.792 132.3C538.311 127.059 539.235 119.25 539.338 115.345L528.656 114.523C528.656 117.298 528.04 121.202 527.013 123.258C525.883 125.621 524.137 126.648 521.877 126.648C519.617 126.648 517.666 125.826 516.639 123.258C515.612 120.689 514.995 116.373 514.995 108.05C514.995 93.4587 516.536 89.3485 517.563 87.9099C518.488 86.4714 520.028 85.7521 521.98 85.7521H522.185Z" fill="black"/>
<path d="M541.084 87.1907H551.047V136.616H563.681V87.1907H573.849V75.7849H541.084V87.1907Z" fill="black"/>
<path d="M597.678 98.3909C597.37 99.624 596.754 101.268 596.343 105.07H596.137C595.829 103.734 595.11 99.9322 594.699 98.3909L588.229 75.7849H574.26L590.694 120.997L590.385 121.922C590.077 122.744 589.461 124.491 587.92 125.621C586.38 126.648 584.326 126.854 582.682 126.854C581.039 126.854 580.012 126.854 578.574 126.546V136.718C580.422 137.335 582.785 137.746 584.942 137.746C588.948 137.746 592.542 136.924 595.316 134.355C598.705 131.272 599.732 126.751 600.965 122.23L613.701 75.8877H603.224L597.575 98.4937L597.678 98.3909Z" fill="black"/>
<path d="M617.81 136.616H630.34V86.4714H640.201V136.616H652.731V75.7849H617.81V136.616Z" fill="black"/>
<path d="M683.339 75.7849H670.295L656.429 136.616H667.522L669.987 123.463H682.004L684.367 136.616H697L683.237 75.7849H683.339ZM671.322 113.599L674.609 96.8496C675.636 91.3008 675.944 88.1155 676.047 87.1907C676.047 89.4513 676.355 92.7394 677.382 97.4661L680.772 113.599H671.322Z" fill="black"/>
</svg>
