<svg width="215" height="187" viewBox="0 0 215 187" fill="none" xmlns="http://www.w3.org/2000/svg">
<path d="M159.455 2.92578L160.055 3.9668L211.199 92.7725L211.797 93.8096L211.199 94.8467L160.055 183.652L159.455 184.693H54.7639L54.1642 183.652L3.01971 94.8467L2.42206 93.8096L3.01971 92.7725L54.1642 3.9668L54.7639 2.92578H159.455Z" fill="#1F75BA" stroke="#1D2332" stroke-width="4.15611"/>
<g clip-path="url(#clip0_38_445)">
<path d="M120.185 97.8304C119.774 97.8304 119.339 97.6857 119.001 97.3963C117.601 96.1421 116.466 94.309 115.621 91.9213C111.902 93.2719 107.749 93.2719 104.031 91.9213C103.186 94.3332 102.051 96.1662 100.65 97.3963C99.9258 98.0475 98.8151 97.9751 98.1631 97.2516C97.5112 96.528 97.5836 95.4185 98.308 94.7673C99.5395 93.6819 100.505 91.7765 101.206 89.0752C101.326 88.5687 101.689 88.1345 102.196 87.9175C102.679 87.7004 103.234 87.7004 103.717 87.9416C107.58 89.8711 112.096 89.8711 115.959 87.9416C116.442 87.7004 116.997 87.7004 117.48 87.9175C117.963 88.1345 118.325 88.5687 118.47 89.0752C119.17 91.7524 120.136 93.6819 121.368 94.7673C122.092 95.4185 122.165 96.528 121.513 97.2516C121.15 97.6134 120.668 97.8304 120.185 97.8304Z" fill="white"/>
<path d="M127.256 75.6166C126.29 75.6166 125.348 75.3754 124.455 74.893C123.9 74.5795 123.537 74.0006 123.537 73.3494V62.7611C123.537 62.1099 123.9 61.531 124.455 61.2175C125.348 60.7351 126.29 60.4939 127.232 60.4939C130.83 60.4939 133.751 63.8947 133.751 68.0673C133.775 72.2158 130.854 75.6166 127.256 75.6166ZM127.087 72.0952C128.753 72.2158 130.25 70.3345 130.25 68.0432C130.25 65.776 128.753 63.8706 127.087 63.9912V72.0952Z" fill="white"/>
<path d="M92.4157 75.6173C88.8179 75.6173 85.8962 72.2165 85.8962 68.0439C85.8962 63.8713 88.8179 60.4705 92.4157 60.4705C93.3816 60.4705 94.3233 60.7117 95.1925 61.194C95.7479 61.5076 96.1101 62.0864 96.1101 62.7377V73.3259C96.1101 73.9772 95.7479 74.556 95.1925 74.8696C94.2991 75.3761 93.3816 75.6173 92.4157 75.6173ZM92.4157 63.9919C90.7979 63.9919 89.4216 65.849 89.4216 68.0439C89.4216 70.3111 90.8945 72.1923 92.5847 72.0959V64.016C92.5123 63.9919 92.464 63.9919 92.4157 63.9919Z" fill="white"/>
<path d="M109.826 92.9104C100.312 92.9104 92.5615 85.1681 92.5615 75.6652V59.1436C92.5615 58.5889 92.8271 58.0824 93.2617 57.7447C93.6964 57.407 94.2759 57.3105 94.8071 57.4553C94.8795 57.4794 101.423 59.2642 105.601 60.5666C112.53 62.7132 122.769 59.0471 124.145 57.8412C124.676 57.3829 125.4 57.2623 126.052 57.5517C126.68 57.8412 127.091 58.4683 127.091 59.1677V75.7134C127.091 85.1681 119.34 92.9104 109.826 92.9104ZM96.111 61.459V75.6652C96.111 83.2145 102.268 89.3649 109.826 89.3649C117.384 89.3649 123.541 83.2145 123.541 75.6652V62.062C119.098 63.9433 111.009 65.897 104.538 63.8951C101.954 63.0991 98.3808 62.0861 96.111 61.459Z" fill="white"/>
<path d="M131.988 69.8042C131.022 69.8042 130.225 69.0083 130.225 68.0435C130.225 65.3663 128.125 63.2197 126.145 64.2809C125.589 64.5703 124.937 64.5703 124.406 64.2568C123.875 63.9432 123.537 63.3644 123.537 62.7373V62.062C119.094 63.9432 111.005 65.8969 104.534 63.895C101.926 63.075 98.3764 62.0861 96.0825 61.4349V62.7132C96.0825 63.3403 95.7445 63.9191 95.2132 64.2327C94.682 64.5462 94.0059 64.5703 93.4747 64.2568C91.4947 63.1714 89.394 65.318 89.394 68.0194C89.394 68.9841 88.5972 69.7801 87.6313 69.7801C86.6655 69.7801 85.8686 68.9841 85.8686 68.0194V50.4607C85.8686 50.2436 85.9169 50.0265 85.9894 49.8336C86.6896 46.3604 90.8669 43.8038 95.9135 43.8038C96.2998 43.8038 96.7103 43.8279 97.0967 43.852C97.9901 39.5588 101.684 36.3027 106.103 36.3027C109.894 36.3027 113.106 38.6423 114.506 42.0431C115.81 41.223 117.331 40.7648 118.949 40.7648C121.702 40.7648 124.213 42.0913 125.71 44.262C126.265 44.1173 126.845 44.045 127.449 44.045C130.95 44.045 133.799 46.674 133.799 49.8818V68.0435C133.775 69.0324 132.978 69.8042 131.988 69.8042ZM127.255 60.4701C128.342 60.4701 129.356 60.7836 130.25 61.3143V49.8818C130.25 48.6035 128.994 47.5664 127.449 47.5664C126.869 47.5664 126.314 47.7111 125.831 48.0005C125.396 48.2658 124.865 48.3141 124.358 48.1452C123.875 47.9764 123.489 47.6146 123.295 47.1322C122.595 45.3956 120.905 44.2862 118.973 44.2862C117.331 44.2862 115.858 45.1062 115.013 46.4569C114.603 47.1081 113.806 47.4216 113.057 47.2287C112.309 47.0357 111.778 46.3604 111.753 45.5886C111.657 42.3566 109.194 39.8241 106.152 39.8241C103.061 39.8241 100.55 42.4531 100.525 45.7092C100.525 45.7815 100.525 45.8298 100.525 45.878C100.525 46.4086 100.284 46.9151 99.8493 47.2528C99.4389 47.5905 98.8835 47.7111 98.3523 47.5905C97.5796 47.4216 96.7828 47.3252 95.9618 47.3252C92.3398 47.3252 89.6837 49.0617 89.4664 50.6536C89.4664 50.7018 89.4664 50.726 89.4423 50.7742V61.266C90.384 60.6872 91.4706 60.3977 92.6054 60.4218V59.0953C92.6054 58.5406 92.8711 58.0341 93.3057 57.6964C93.7403 57.3587 94.3198 57.2622 94.8511 57.407C94.9235 57.4311 101.467 59.2159 105.644 60.5183C112.574 62.6649 122.812 58.9988 124.189 57.7929C124.72 57.3346 125.444 57.214 126.096 57.5034C126.724 57.7929 127.135 58.42 127.135 59.1194V60.446C127.135 60.4701 127.183 60.4701 127.255 60.4701Z" fill="white"/>
<path d="M134.961 139.219H86.2824C85.3649 139.219 84.6163 138.519 84.5197 137.627L81.5739 106.344C81.5256 105.838 81.6946 105.355 82.0327 104.994C82.3707 104.632 82.8536 104.415 83.3366 104.415H137.883C138.39 104.415 138.849 104.632 139.187 104.994C139.525 105.355 139.694 105.862 139.646 106.344L136.7 137.627C136.652 138.543 135.879 139.219 134.961 139.219ZM87.9002 135.697H133.368L135.951 107.96H85.2924L87.9002 135.697Z" fill="white"/>
<path d="M136.843 145.346H84.3976C82.4659 145.346 80.7515 144.067 80.1962 142.21L79.9305 141.294C79.5442 139.967 79.7857 138.568 80.6308 137.435C81.4759 136.325 82.7315 135.674 84.132 135.674H137.109C138.51 135.674 139.789 136.301 140.61 137.435C141.455 138.544 141.697 139.943 141.31 141.294L141.045 142.21C140.49 144.043 138.751 145.346 136.843 145.346ZM84.132 139.219C83.7698 139.219 83.5525 139.436 83.4559 139.557C83.3593 139.678 83.2144 139.943 83.3352 140.281L83.6008 141.197C83.6974 141.559 84.0354 141.8 84.3976 141.8H136.819C137.181 141.8 137.52 141.559 137.616 141.197L137.882 140.281C137.978 139.919 137.833 139.678 137.761 139.533C137.664 139.412 137.447 139.195 137.085 139.195H84.132V139.219Z" fill="white"/>
<path d="M151.477 145.345H68.1718C67.2059 145.345 66.4091 144.549 66.4091 143.584V120.285C66.4091 105.959 78.0718 94.3091 92.4147 94.3091H99.4896C100.19 94.3091 100.842 94.7191 101.107 95.3703C101.397 96.0215 101.252 96.7692 100.769 97.2757C100.117 97.9752 99.8035 98.6746 99.8035 99.3982C99.8035 101.69 103.281 103.908 107.699 104.439C108.665 104.56 109.365 105.428 109.245 106.393C109.124 107.358 108.231 108.057 107.289 107.936C100.818 107.165 96.2781 103.643 96.2781 99.3982C96.2781 98.8676 96.3506 98.337 96.4954 97.8305H92.4389C80.0518 97.8305 69.9828 107.888 69.9828 120.261V141.8H149.714V120.261C149.714 107.888 139.645 97.8305 127.234 97.8305H123.177C123.322 98.337 123.394 98.8676 123.394 99.3982C123.394 103.667 118.855 107.189 112.384 107.936C111.418 108.057 110.524 107.358 110.428 106.393C110.307 105.428 111.007 104.536 111.973 104.439C116.392 103.908 119.869 101.69 119.869 99.3982C119.869 98.6746 119.531 97.9752 118.903 97.2757C118.42 96.7692 118.3 96.0215 118.565 95.3703C118.855 94.7191 119.483 94.3091 120.183 94.3091H127.258C141.601 94.3091 153.263 105.959 153.263 120.285V143.584C153.239 144.549 152.442 145.345 151.477 145.345Z" fill="white"/>
</g>
<defs>
<clipPath id="clip0_38_445">
<rect width="86.8302" height="109.043" fill="white" transform="translate(66.4092 36.303)"/>
</clipPath>
</defs>
</svg>
