<svg width="215" height="187" viewBox="0 0 215 187" fill="none" xmlns="http://www.w3.org/2000/svg">
<path d="M159.455 2.44531L160.055 3.48633L211.199 92.292L211.797 93.3291L211.199 94.3662L160.055 183.172L159.455 184.213H54.7639L54.1642 183.172L3.01971 94.3662L2.42206 93.3291L3.01971 92.292L54.1642 3.48633L54.7639 2.44531H159.455Z" fill="#1F75BA" stroke="#1D2332" stroke-width="4.15611"/>
<g clip-path="url(#clip0_38_468)">
<path d="M112.484 115.575H51.8525C48.1836 115.575 45.2065 112.607 45.2065 108.95C45.2065 105.293 48.1836 102.325 51.8525 102.325H112.484C116.153 102.325 119.13 105.293 119.13 108.95C119.13 112.607 116.153 115.575 112.484 115.575ZM51.8525 106.212C50.343 106.212 49.0851 107.445 49.0851 108.95C49.0851 110.455 50.3221 111.709 51.8525 111.709H112.484C113.994 111.709 115.231 110.476 115.231 108.95C115.231 107.445 113.994 106.212 112.484 106.212H51.8525Z" fill="white"/>
<path d="M109.925 122.556H54.4092C53.34 122.556 52.4595 121.678 52.4595 120.612V113.632C52.4595 112.566 53.34 111.688 54.4092 111.688H109.925C110.995 111.688 111.875 112.566 111.875 113.632V120.612C111.854 121.699 110.995 122.556 109.925 122.556ZM56.359 118.689H107.976V115.596H56.359V118.689Z" fill="white"/>
<path d="M69.4013 136.788H61.7489C60.6797 136.788 59.7992 135.911 59.7992 134.845V120.633C59.7992 119.567 60.6797 118.689 61.7489 118.689H69.4013C70.4705 118.689 71.351 119.567 71.351 120.633V134.845C71.3301 135.911 70.4705 136.788 69.4013 136.788ZM63.6777 132.901H67.4305V122.556H63.6777V132.901Z" fill="white"/>
<path d="M102.59 136.788H94.9374C93.8681 136.788 92.9876 135.911 92.9876 134.845V120.633C92.9876 119.567 93.8681 118.689 94.9374 118.689H102.59C103.659 118.689 104.539 119.567 104.539 120.633V134.845C104.539 135.911 103.659 136.788 102.59 136.788ZM96.8871 132.901H100.64V122.556H96.8871V132.901Z" fill="white"/>
<path d="M71.6641 106.212C70.5948 106.212 69.7143 105.335 69.7143 104.269V99.6709C69.7143 98.6051 70.5948 97.7273 71.6641 97.7273C72.7333 97.7273 73.6138 98.6051 73.6138 99.6709V104.269C73.6138 105.335 72.7333 106.212 71.6641 106.212Z" fill="white"/>
<path d="M92.6696 106.212C91.6003 106.212 90.7198 105.335 90.7198 104.269V99.6709C90.7198 98.6051 91.6003 97.7273 92.6696 97.7273C93.7388 97.7273 94.6193 98.6051 94.6193 99.6709V104.269C94.6193 105.335 93.7388 106.212 92.6696 106.212Z" fill="white"/>
<path d="M82.1679 79.0221C75.7735 79.0221 70.5741 73.5883 70.5741 66.9213C70.5741 60.2544 75.7735 54.8206 82.1679 54.8206C88.5623 54.8206 93.7617 60.2544 93.7617 66.9213C93.7617 73.5883 88.5623 79.0221 82.1679 79.0221ZM82.1679 58.6661C77.9119 58.6661 74.4736 62.3653 74.4736 66.9004C74.4736 71.4356 77.9329 75.1348 82.1679 75.1348C86.4238 75.1348 89.8621 71.4356 89.8621 66.9004C89.8621 62.3653 86.4238 58.6661 82.1679 58.6661Z" fill="white"/>
<path d="M102.401 106.212H61.9383C60.869 106.212 59.9885 105.334 59.9885 104.268V92.3139C59.9885 86.1904 64.9782 81.2163 71.1211 81.2163H93.2185C99.3613 81.2163 104.351 86.1904 104.351 92.3139V104.268C104.351 105.334 103.47 106.212 102.401 106.212ZM63.888 102.325H100.472V92.3139C100.472 88.343 97.2228 85.1036 93.2394 85.1036H71.1211C67.1377 85.1036 63.888 88.343 63.888 92.3139V102.325Z" fill="white"/>
<path d="M160.201 117.77H121.583C120.513 117.77 119.633 116.892 119.633 115.826C119.633 114.761 120.513 113.883 121.583 113.883H160.201C161.459 113.883 162.465 112.859 162.465 111.626C162.465 110.372 161.438 109.369 160.201 109.369H123.637C122.568 109.369 121.688 108.491 121.688 107.425C121.688 106.359 122.568 105.481 123.637 105.481H160.222C163.618 105.481 166.386 108.24 166.386 111.626C166.386 115.011 163.597 117.77 160.201 117.77Z" fill="white"/>
<path d="M157.917 124.039H114.728C113.659 124.039 112.778 123.162 112.778 122.096C112.778 121.03 113.659 120.152 114.728 120.152H155.967V117.77H121.584C120.515 117.77 119.634 116.892 119.634 115.826C119.634 114.76 120.515 113.882 121.584 113.882H157.917C158.986 113.882 159.866 114.76 159.866 115.826V122.075C159.866 123.162 158.986 124.039 157.917 124.039Z" fill="white"/>
<path d="M121.584 136.788H114.728C113.659 136.788 112.778 135.91 112.778 134.844V122.096C112.778 121.03 113.659 120.152 114.728 120.152H121.584C122.653 120.152 123.534 121.03 123.534 122.096V134.844C123.534 135.91 122.674 136.788 121.584 136.788ZM116.678 132.901H119.634V124.039H116.678V132.901Z" fill="white"/>
<path d="M151.353 136.788H144.497C143.428 136.788 142.547 135.91 142.547 134.844V122.096C142.547 121.03 143.428 120.152 144.497 120.152H151.353C152.422 120.152 153.303 121.03 153.303 122.096V134.844C153.303 135.91 152.422 136.788 151.353 136.788ZM146.426 132.901H149.403V124.039H146.426V132.901Z" fill="white"/>
<path d="M123.638 109.368C122.568 109.368 121.688 108.49 121.688 107.424V103.307C121.688 102.241 122.568 101.364 123.638 101.364C124.707 101.364 125.587 102.241 125.587 103.307V107.424C125.566 108.511 124.707 109.368 123.638 109.368Z" fill="white"/>
<path d="M142.442 109.368C141.373 109.368 140.493 108.49 140.493 107.424V103.307C140.493 102.241 141.373 101.364 142.442 101.364C143.512 101.364 144.392 102.241 144.392 103.307V107.424C144.392 108.511 143.533 109.368 142.442 109.368Z" fill="white"/>
<path d="M133.052 84.9996C127.203 84.9996 122.465 80.0464 122.465 73.9438C122.465 67.8411 127.224 62.8879 133.052 62.8879C138.902 62.8879 143.64 67.8411 143.64 73.9438C143.64 80.0464 138.881 84.9996 133.052 84.9996ZM133.052 66.7752C129.362 66.7752 126.343 69.9938 126.343 73.9438C126.343 77.8938 129.341 81.1123 133.052 81.1123C136.742 81.1123 139.761 77.8938 139.761 73.9438C139.761 69.9938 136.742 66.7752 133.052 66.7752Z" fill="white"/>
<path d="M151.185 109.368H123.636C122.567 109.368 121.687 108.49 121.687 107.425C121.687 106.359 122.567 105.481 123.636 105.481H149.235V96.7031C149.235 93.2547 146.426 90.4333 142.945 90.4333H123.133C119.674 90.4333 116.844 93.2338 116.844 96.7031C116.844 97.769 115.963 98.6468 114.894 98.6468C113.825 98.6468 112.944 97.769 112.944 96.7031C112.944 91.1021 117.514 86.5669 123.112 86.5669H142.924C148.543 86.5669 153.093 91.123 153.093 96.7031V107.425C153.113 108.511 152.254 109.368 151.185 109.368Z" fill="white"/>
<path d="M106.363 56.534C105.294 56.534 104.413 55.6562 104.413 54.5903V52.4168C104.413 51.3509 105.294 50.4731 106.363 50.4731C107.432 50.4731 108.313 51.3509 108.313 52.4168V54.5903C108.292 55.6562 107.432 56.534 106.363 56.534Z" fill="white"/>
<path d="M112.819 60.8187H110.638C109.569 60.8187 108.688 59.9409 108.688 58.875C108.688 57.8092 109.569 56.9314 110.638 56.9314H112.819C113.888 56.9314 114.768 57.8092 114.768 58.875C114.768 59.9409 113.888 60.8187 112.819 60.8187Z" fill="white"/>
<path d="M106.363 67.2557C105.294 67.2557 104.413 66.3779 104.413 65.312V63.1385C104.413 62.0726 105.294 61.1948 106.363 61.1948C107.432 61.1948 108.313 62.0726 108.313 63.1385V65.312C108.292 66.3779 107.432 67.2557 106.363 67.2557Z" fill="white"/>
<path d="M102.063 60.8187H99.8831C98.8138 60.8187 97.9333 59.9409 97.9333 58.875C97.9333 57.8092 98.8138 56.9314 99.8831 56.9314H102.063C103.133 56.9314 104.013 57.8092 104.013 58.875C104.013 59.9409 103.133 60.8187 102.063 60.8187Z" fill="white"/>
<path d="M125.022 41.8629C123.953 41.8629 123.072 40.9852 123.072 39.9193V37.7666C123.072 36.7008 123.953 35.823 125.022 35.823C126.091 35.823 126.972 36.7008 126.972 37.7666V39.9402C126.972 41.0061 126.112 41.8629 125.022 41.8629Z" fill="white"/>
<path d="M131.497 46.1473H129.317C128.248 46.1473 127.367 45.2695 127.367 44.2037C127.367 43.1378 128.248 42.26 129.317 42.26H131.497C132.566 42.26 133.447 43.1378 133.447 44.2037C133.447 45.2695 132.566 46.1473 131.497 46.1473Z" fill="white"/>
<path d="M125.022 52.5846C123.953 52.5846 123.072 51.7068 123.072 50.641V48.4883C123.072 47.4225 123.953 46.5447 125.022 46.5447C126.091 46.5447 126.972 47.4225 126.972 48.4883V50.6619C126.972 51.7277 126.112 52.5846 125.022 52.5846Z" fill="white"/>
<path d="M120.746 46.1473H118.566C117.496 46.1473 116.616 45.2695 116.616 44.2037C116.616 43.1378 117.496 42.26 118.566 42.26H120.746C121.815 42.26 122.696 43.1378 122.696 44.2037C122.696 45.2695 121.815 46.1473 120.746 46.1473Z" fill="white"/>
</g>
<defs>
<clipPath id="clip0_38_468">
<rect width="121.158" height="100.965" fill="white" transform="translate(46.2162 35.8225)"/>
</clipPath>
</defs>
</svg>
