<svg width="215" height="187" viewBox="0 0 215 187" fill="none" xmlns="http://www.w3.org/2000/svg">
<path d="M159.456 2.9646L160.055 4.00562L211.2 92.8113L211.797 93.8484L211.2 94.8855L160.055 183.691L159.456 184.732H54.7641L54.1645 183.691L3.01996 94.8855L2.4223 93.8484L3.01996 92.8113L54.1645 4.00562L54.7641 2.9646H159.456Z" fill="#1F75BA" stroke="#1D2332" stroke-width="4.15611"/>
<g clip-path="url(#clip0_38_516)">
<path d="M115.426 132.795H98.1674C97.1928 132.795 96.4083 132.007 96.4083 131.029V96.3378C95.7664 96.6003 95.0771 96.7434 94.3401 96.7434H93.9836C90.8932 96.7434 88.3972 94.2144 88.3972 91.1365V72.1208C88.3972 66.9673 92.581 62.7681 97.7157 62.7681H115.901C121.036 62.7681 125.22 66.9673 125.22 72.1208V91.1365C125.22 94.2382 122.7 96.7434 119.633 96.7434H119.253C118.516 96.7434 117.827 96.6003 117.185 96.3378V131.029C117.185 132.007 116.4 132.795 115.426 132.795ZM99.9265 129.263H113.667V91.1127C113.667 90.1345 114.451 89.3471 115.426 89.3471C116.4 89.3471 117.185 90.1345 117.185 91.1127C117.185 92.2579 118.112 93.1884 119.253 93.1884H119.61C120.751 93.1884 121.678 92.2579 121.678 91.1127V72.097C121.678 68.8999 119.087 66.2992 115.901 66.2992H97.7157C94.5303 66.2992 91.9392 68.8999 91.9392 72.097V91.1127C91.9392 92.2579 92.8663 93.1884 94.0073 93.1884H94.3639C95.505 93.1884 96.4321 92.2579 96.4321 91.1127C96.4321 90.1345 97.2165 89.3471 98.1912 89.3471C99.1658 89.3471 99.9503 90.1345 99.9503 91.1127V129.263H99.9265Z" fill="white"/>
<path d="M98.1665 92.902C97.1918 92.902 96.4073 92.1146 96.4073 91.1364V78.2048C96.4073 77.2266 97.1918 76.4392 98.1665 76.4392C99.1411 76.4392 99.9256 77.2266 99.9256 78.2048V91.1364C99.9256 92.0908 99.1411 92.902 98.1665 92.902Z" fill="white"/>
<path d="M115.425 92.902C114.451 92.902 113.666 92.1146 113.666 91.1364V78.2048C113.666 77.2266 114.451 76.4392 115.425 76.4392C116.4 76.4392 117.184 77.2266 117.184 78.2048V91.1364C117.184 92.0908 116.4 92.902 115.425 92.902Z" fill="white"/>
<path d="M106.796 61.7661C101.448 61.7661 97.0975 57.1851 97.0975 51.5782C97.0975 45.9713 101.448 41.3904 106.796 41.3904C112.145 41.3904 116.495 45.9713 116.495 51.5782C116.495 57.1851 112.145 61.7661 106.796 61.7661ZM106.796 44.9215C103.397 44.9215 100.64 47.9039 100.64 51.5782C100.64 55.2525 103.397 58.2349 106.796 58.2349C110.196 58.2349 112.953 55.2525 112.953 51.5782C112.953 47.9039 110.196 44.9215 106.796 44.9215Z" fill="white"/>
<path d="M106.796 132.795C105.821 132.795 105.037 132.007 105.037 131.029V101.658C105.037 100.68 105.821 99.8928 106.796 99.8928C107.771 99.8928 108.555 100.68 108.555 101.658V131.029C108.555 132.007 107.771 132.795 106.796 132.795Z" fill="white"/>
<path d="M143.596 132.794H128.857C127.883 132.794 127.098 132.007 127.098 131.029V101.801C126.623 101.945 126.124 102.04 125.601 102.04C124.626 102.04 123.842 101.253 123.842 100.275C123.842 99.2963 124.626 98.5089 125.601 98.5089C126.433 98.5089 127.098 97.8409 127.098 97.0058C127.098 96.0276 127.883 95.2402 128.857 95.2402C129.832 95.2402 130.616 96.0276 130.616 97.0058V129.287H141.813V96.9819C141.813 96.0037 142.597 95.2164 143.572 95.2164C144.547 95.2164 145.331 96.0037 145.331 96.9819C145.331 97.817 145.997 98.4851 146.829 98.4851H147.138C147.97 98.4851 148.636 97.817 148.636 96.9819V80.7578C148.636 78.181 146.544 76.0575 143.952 76.0575H128.429C127.455 76.0575 126.67 75.2702 126.67 74.2919C126.67 73.3137 127.455 72.5264 128.429 72.5264H143.976C148.493 72.5264 152.178 76.2245 152.178 80.7578V96.9819C152.178 99.7735 149.919 102.04 147.138 102.04H146.829C146.306 102.04 145.807 101.969 145.331 101.801V131.029C145.355 132.007 144.571 132.794 143.596 132.794Z" fill="white"/>
<path d="M128.858 98.7477C127.884 98.7477 127.099 97.9603 127.099 96.9821V85.9592C127.099 84.981 127.884 84.1936 128.858 84.1936C129.833 84.1936 130.617 84.981 130.617 85.9592V96.9821C130.617 97.9603 129.833 98.7477 128.858 98.7477Z" fill="white"/>
<path d="M143.593 98.7477C142.618 98.7477 141.834 97.9603 141.834 96.9821V85.9592C141.834 84.981 142.618 84.1936 143.593 84.1936C144.568 84.1936 145.352 84.981 145.352 85.9592V96.9821C145.352 97.9603 144.568 98.7477 143.593 98.7477Z" fill="white"/>
<path d="M136.225 71.3572C131.518 71.3572 127.691 67.3489 127.691 62.4101C127.691 57.4712 131.518 53.4629 136.225 53.4629C140.932 53.4629 144.759 57.4712 144.759 62.4101C144.759 67.3489 140.932 71.3572 136.225 71.3572ZM136.225 56.994C133.467 56.994 131.233 59.4277 131.233 62.4101C131.233 65.3924 133.467 67.8261 136.225 67.8261C138.982 67.8261 141.217 65.3924 141.217 62.4101C141.217 59.4277 138.982 56.994 136.225 56.994Z" fill="white"/>
<path d="M136.226 132.795C135.251 132.795 134.467 132.007 134.467 131.029V105.953C134.467 104.975 135.251 104.188 136.226 104.188C137.2 104.188 137.985 104.975 137.985 105.953V131.029C137.985 132.007 137.2 132.795 136.226 132.795Z" fill="white"/>
<path d="M84.7368 132.794H69.9983C69.0237 132.794 68.2392 132.007 68.2392 131.029V101.801C67.7638 101.945 67.2645 102.04 66.7416 102.04H66.4325C63.6512 102.04 61.3929 99.7735 61.3929 96.9819V80.7578C61.3929 76.2245 65.0775 72.5264 69.5942 72.5264H85.1172C86.0918 72.5264 86.8763 73.3137 86.8763 74.2919C86.8763 75.2702 86.0918 76.0575 85.1172 76.0575H69.618C67.0506 76.0575 64.9349 78.1571 64.9349 80.7578V96.9819C64.9349 97.817 65.6005 98.4851 66.4325 98.4851H66.7416C67.5736 98.4851 68.2392 97.817 68.2392 96.9819C68.2392 96.0037 69.0237 95.2164 69.9983 95.2164C70.9729 95.2164 71.7574 96.0037 71.7574 96.9819V129.263H82.9539V96.9819C82.9539 96.0037 83.7384 95.2164 84.713 95.2164C85.6877 95.2164 86.4722 96.0037 86.4722 96.9819C86.4722 97.817 87.1378 98.4851 87.9698 98.4851C88.9444 98.4851 89.7289 99.2724 89.7289 100.251C89.7289 101.229 88.9444 102.016 87.9698 102.016C87.4468 102.016 86.9476 101.945 86.4722 101.778V131.005C86.4959 132.007 85.7115 132.794 84.7368 132.794Z" fill="white"/>
<path d="M84.7373 98.7477C83.7627 98.7477 82.9782 97.9603 82.9782 96.9821V85.9592C82.9782 84.981 83.7627 84.1936 84.7373 84.1936C85.7119 84.1936 86.4964 84.981 86.4964 85.9592V96.9821C86.4964 97.9603 85.7119 98.7477 84.7373 98.7477Z" fill="white"/>
<path d="M69.9987 98.7477C69.0241 98.7477 68.2396 97.9603 68.2396 96.9821V85.9592C68.2396 84.981 69.0241 84.1936 69.9987 84.1936C70.9734 84.1936 71.7578 84.981 71.7578 85.9592V96.9821C71.7578 97.9603 70.9734 98.7477 69.9987 98.7477Z" fill="white"/>
<path d="M77.3653 71.3572C72.6585 71.3572 68.8312 67.3488 68.8312 62.41C68.8312 57.4712 72.6585 53.439 77.3653 53.439C82.0721 53.439 85.8994 57.4473 85.8994 62.3861C85.8994 67.325 82.0721 71.3572 77.3653 71.3572ZM77.3653 56.994C74.6078 56.994 72.3732 59.4276 72.3732 62.41C72.3732 65.3924 74.6078 67.826 77.3653 67.826C80.1228 67.826 82.3574 65.3924 82.3574 62.41C82.3574 59.4276 80.1228 56.994 77.3653 56.994Z" fill="white"/>
<path d="M77.366 132.795C76.3914 132.795 75.6069 132.007 75.6069 131.029V105.953C75.6069 104.975 76.3914 104.188 77.366 104.188C78.3407 104.188 79.1252 104.975 79.1252 105.953V131.029C79.1252 132.007 78.3407 132.795 77.366 132.795Z" fill="white"/>
<path d="M155.863 146.394H57.733C56.7584 146.394 55.9739 145.607 55.9739 144.629V136.254C55.9739 135.276 56.7584 134.489 57.733 134.489H61.4176V131.053C61.4176 130.075 62.2021 129.287 63.1768 129.287H150.419C151.394 129.287 152.178 130.075 152.178 131.053V134.489H155.863C156.838 134.489 157.622 135.276 157.622 136.254V144.629C157.622 145.607 156.838 146.394 155.863 146.394ZM59.4921 142.863H154.08V138.02H150.395C149.421 138.02 148.636 137.232 148.636 136.254V132.819H64.9359V136.254C64.9359 137.232 64.1514 138.02 63.1768 138.02H59.4921V142.863Z" fill="white"/>
<path d="M160.568 146.394H53.0239C52.0493 146.394 51.2648 145.607 51.2648 144.629C51.2648 143.65 52.0493 142.863 53.0239 142.863H160.544C161.518 142.863 162.303 143.65 162.303 144.629C162.327 145.607 161.542 146.394 160.568 146.394Z" fill="white"/>
<path d="M138.009 138.019H63.1757C62.201 138.019 61.4166 137.232 61.4166 136.254C61.4166 135.276 62.201 134.488 63.1757 134.488H138.009C138.984 134.488 139.768 135.276 139.768 136.254C139.768 137.232 138.984 138.019 138.009 138.019Z" fill="white"/>
</g>
<defs>
<clipPath id="clip0_38_516">
<rect width="111.062" height="105.004" fill="white" transform="translate(51.2647 41.3904)"/>
</clipPath>
</defs>
</svg>
