<svg width="596" height="469" viewBox="0 0 596 469" fill="none" xmlns="http://www.w3.org/2000/svg">
<g clip-path="url(#clip0_2152_15057)">
<path d="M127.278 0.629639H474.206C476.881 0.629639 479.448 1.69096 481.34 3.58012C483.232 5.46928 484.295 8.03153 484.295 10.7032V251.738H117.289V10.6654C117.299 8.01766 118.352 5.48021 120.222 3.60206C122.091 1.72392 124.626 0.656098 127.278 0.629639Z" fill="#263238" stroke="#263238" stroke-linecap="round" stroke-linejoin="round"/>
<path d="M539.347 362.737H62.1758L117.227 251.738H484.283L539.347 362.737Z" fill="#4F5865" stroke="#263238" stroke-linecap="round" stroke-linejoin="round"/>
<path d="M462.048 20.5123H139.461V231.856H462.048V20.5123Z" fill="#42C66E" stroke="#263238" stroke-linecap="round" stroke-linejoin="round"/>
<path d="M285.443 286.87L286.086 273.346H266.689L265.402 286.87H285.443Z" fill="#263238" stroke="white" stroke-linecap="round" stroke-linejoin="round"/>
<path d="M325.538 286.87L324.87 273.346H305.473L305.485 286.87H325.538Z" fill="#263238" stroke="white" stroke-linecap="round" stroke-linejoin="round"/>
<path d="M429.925 301.338H450.658L445.79 286.87H425.75L429.925 301.338Z" fill="#263238" stroke="white" stroke-linecap="round" stroke-linejoin="round"/>
<path d="M265.404 286.87L266.69 273.346H247.293L245.363 286.87H265.404Z" fill="#263238" stroke="white" stroke-linecap="round" stroke-linejoin="round"/>
<path d="M225.322 286.87L227.895 273.346H208.498L205.27 286.87H225.322Z" fill="#263238" stroke="white" stroke-linecap="round" stroke-linejoin="round"/>
<path d="M405.71 286.87L402.443 273.346H383.059L385.657 286.87H405.71Z" fill="#263238" stroke="white" stroke-linecap="round" stroke-linejoin="round"/>
<path d="M425.752 286.87L421.842 273.346H402.445L405.712 286.87H425.752Z" fill="#263238" stroke="white" stroke-linecap="round" stroke-linejoin="round"/>
<path d="M205.271 286.87L208.499 273.346H189.115L185.23 286.87H205.271Z" fill="#263238" stroke="white" stroke-linecap="round" stroke-linejoin="round"/>
<path d="M345.576 286.87L344.264 273.346H324.867L325.536 286.87H345.576Z" fill="#263238" stroke="white" stroke-linecap="round" stroke-linejoin="round"/>
<path d="M445.79 286.87L441.237 273.346H421.84L425.749 286.87H445.79Z" fill="#263238" stroke="white" stroke-linecap="round" stroke-linejoin="round"/>
<path d="M385.659 286.87L383.061 273.346H363.664L365.619 286.87H385.659Z" fill="#263238" stroke="white" stroke-linecap="round" stroke-linejoin="round"/>
<path d="M365.618 286.87L363.663 273.346H344.266L345.577 286.87H365.618Z" fill="#263238" stroke="white" stroke-linecap="round" stroke-linejoin="round"/>
<path d="M305.486 286.87L305.473 273.346H286.089L285.445 286.87H305.486Z" fill="#263238" stroke="white" stroke-linecap="round" stroke-linejoin="round"/>
<path d="M165.19 286.87H145.15L139.613 301.338H160.347L165.19 286.87Z" fill="#263238" stroke="white" stroke-linecap="round" stroke-linejoin="round"/>
<path d="M169.716 273.346H150.319L145.148 286.87H165.189L169.716 273.346Z" fill="#263238" stroke="white" stroke-linecap="round" stroke-linejoin="round"/>
<path d="M185.232 286.87L189.116 273.346H169.719L165.191 286.87H185.232Z" fill="#263238" stroke="white" stroke-linecap="round" stroke-linejoin="round"/>
<path d="M133.686 316.839L127.305 333.485H149.59L155.164 316.839H133.686Z" fill="#263238" stroke="white" stroke-linecap="round" stroke-linejoin="round"/>
<path d="M160.345 301.338H139.611L133.684 316.839H155.162L160.345 301.338Z" fill="#263238" stroke="white" stroke-linecap="round" stroke-linejoin="round"/>
<path d="M155.164 316.839L149.59 333.485H171.862L176.642 316.839H155.164Z" fill="#263238" stroke="white" stroke-linecap="round" stroke-linejoin="round"/>
<path d="M245.365 286.87L247.294 273.346H227.897L225.324 286.87H245.365Z" fill="#263238" stroke="white" stroke-linecap="round" stroke-linejoin="round"/>
<path d="M243.296 301.338L245.365 286.87H225.325L222.562 301.338H243.296Z" fill="#263238" stroke="white" stroke-linecap="round" stroke-linejoin="round"/>
<path d="M222.563 301.338L225.325 286.87H205.272L201.816 301.338H222.563Z" fill="#263238" stroke="white" stroke-linecap="round" stroke-linejoin="round"/>
<path d="M264.031 301.338L265.406 286.87H245.365L243.297 301.338H264.031Z" fill="#263238" stroke="white" stroke-linecap="round" stroke-linejoin="round"/>
<path d="M185.231 286.87H165.191L160.348 301.338H181.082L185.231 286.87Z" fill="#263238" stroke="white" stroke-linecap="round" stroke-linejoin="round"/>
<path d="M434.39 316.839H455.868L450.66 301.338H429.926L434.39 316.839Z" fill="#263238" stroke="white" stroke-linecap="round" stroke-linejoin="round"/>
<path d="M201.816 301.338L205.272 286.87H185.231L181.082 301.338H201.816Z" fill="#263238" stroke="white" stroke-linecap="round" stroke-linejoin="round"/>
<path d="M160.348 301.338L155.164 316.839H176.642L181.081 301.338H160.348Z" fill="#263238" stroke="white" stroke-linecap="round" stroke-linejoin="round"/>
<path d="M388.445 301.338L385.657 286.87H365.617L367.711 301.338H388.445Z" fill="#263238" stroke="white" stroke-linecap="round" stroke-linejoin="round"/>
<path d="M367.712 301.338L365.618 286.87H345.578L346.978 301.338H367.712Z" fill="#263238" stroke="white" stroke-linecap="round" stroke-linejoin="round"/>
<path d="M429.926 301.338L425.751 286.87H405.711L409.179 301.338H429.926Z" fill="#263238" stroke="white" stroke-linecap="round" stroke-linejoin="round"/>
<path d="M305.496 301.338L305.483 286.87H285.443L284.762 301.338H305.496Z" fill="#263238" stroke="white" stroke-linecap="round" stroke-linejoin="round"/>
<path d="M346.979 301.338L345.579 286.87H325.539L326.245 301.338H346.979Z" fill="#263238" stroke="white" stroke-linecap="round" stroke-linejoin="round"/>
<path d="M326.244 301.338L325.537 286.87H305.484L305.497 301.338H326.244Z" fill="#263238" stroke="white" stroke-linecap="round" stroke-linejoin="round"/>
<path d="M284.761 301.338L285.442 286.87H265.402L264.027 301.338H284.761Z" fill="#263238" stroke="white" stroke-linecap="round" stroke-linejoin="round"/>
<path d="M346.977 301.338L348.477 316.839H369.955L367.711 301.338H346.977Z" fill="#263238" stroke="white" stroke-linecap="round" stroke-linejoin="round"/>
<path d="M367.711 301.338L369.956 316.839H391.434L388.445 301.338H367.711Z" fill="#263238" stroke="white" stroke-linecap="round" stroke-linejoin="round"/>
<path d="M181.08 301.338L176.641 316.839H198.119L201.814 301.338H181.08Z" fill="#263238" stroke="white" stroke-linecap="round" stroke-linejoin="round"/>
<path d="M388.445 301.338L391.434 316.839H412.912L409.179 301.338H388.445Z" fill="#263238" stroke="white" stroke-linecap="round" stroke-linejoin="round"/>
<path d="M305.496 301.338L305.521 316.839H326.999L326.243 301.338H305.496Z" fill="#263238" stroke="white" stroke-linecap="round" stroke-linejoin="round"/>
<path d="M409.18 301.338L412.913 316.839H434.391L429.926 301.338H409.18Z" fill="#263238" stroke="white" stroke-linecap="round" stroke-linejoin="round"/>
<path d="M326.242 301.338L326.999 316.839H348.477L346.976 301.338H326.242Z" fill="#263238" stroke="white" stroke-linecap="round" stroke-linejoin="round"/>
<path d="M222.561 301.338L219.598 316.839H241.076L243.295 301.338H222.561Z" fill="#263238" stroke="white" stroke-linecap="round" stroke-linejoin="round"/>
<path d="M201.816 301.338L198.121 316.839H219.599L222.563 301.338H201.816Z" fill="#263238" stroke="white" stroke-linecap="round" stroke-linejoin="round"/>
<path d="M284.763 301.338L284.031 316.839H305.522L305.497 301.338H284.763Z" fill="#263238" stroke="white" stroke-linecap="round" stroke-linejoin="round"/>
<path d="M264.03 301.338L262.555 316.839H284.033L284.764 301.338H264.03Z" fill="#263238" stroke="white" stroke-linecap="round" stroke-linejoin="round"/>
<path d="M243.294 301.338L241.074 316.839H262.552L264.028 301.338H243.294Z" fill="#263238" stroke="white" stroke-linecap="round" stroke-linejoin="round"/>
<path d="M409.177 301.338L405.709 286.87H385.656L388.443 301.338H409.177Z" fill="#263238" stroke="white" stroke-linecap="round" stroke-linejoin="round"/>
<path d="M169.717 273.346L174.346 259.495H155.617L150.32 273.346H169.717Z" fill="#263238" stroke="white" stroke-linecap="round" stroke-linejoin="round"/>
<path d="M150.321 273.346H132.425L126.648 286.87H145.15L150.321 273.346Z" fill="#263238" stroke="white" stroke-linecap="round" stroke-linejoin="round"/>
<path d="M155.619 259.495H138.328L132.426 273.346H150.322L155.619 259.495Z" fill="#263238" stroke="white" stroke-linecap="round" stroke-linejoin="round"/>
<path d="M145.15 286.87H126.649L120.469 301.338H139.614L145.15 286.87Z" fill="#263238" stroke="white" stroke-linecap="round" stroke-linejoin="round"/>
<path d="M139.614 301.338H120.469L113.848 316.839H133.686L139.614 301.338Z" fill="#263238" stroke="white" stroke-linecap="round" stroke-linejoin="round"/>
<path d="M133.685 316.839H113.847L106.746 333.485H127.303L133.685 316.839Z" fill="#263238" stroke="white" stroke-linecap="round" stroke-linejoin="round"/>
<path d="M465.832 286.87L471.394 301.338H489.744L483.564 286.87H465.832Z" fill="#263238" stroke="white" stroke-linecap="round" stroke-linejoin="round"/>
<path d="M477.36 316.839H496.353L489.745 301.338H471.395L477.36 316.839Z" fill="#263238" stroke="white" stroke-linecap="round" stroke-linejoin="round"/>
<path d="M483.754 333.485H503.466L496.353 316.839H477.359L483.754 333.485Z" fill="#263238" stroke="white" stroke-linecap="round" stroke-linejoin="round"/>
<path d="M324.871 273.346L324.202 259.495H305.461L305.474 273.346H324.871Z" fill="#263238" stroke="white" stroke-linecap="round" stroke-linejoin="round"/>
<path d="M465.833 286.87H483.565L477.789 273.346H460.637L465.833 286.87Z" fill="#263238" stroke="white" stroke-linecap="round" stroke-linejoin="round"/>
<path d="M455.869 316.839H477.36L471.394 301.338H450.66L455.869 316.839Z" fill="#263238" stroke="white" stroke-linecap="round" stroke-linejoin="round"/>
<path d="M189.116 273.346L193.076 259.495H174.347L169.719 273.346H189.116Z" fill="#263238" stroke="white" stroke-linecap="round" stroke-linejoin="round"/>
<path d="M441.238 273.346L445.791 286.87H465.831L460.635 273.346H441.238Z" fill="#263238" stroke="white" stroke-linecap="round" stroke-linejoin="round"/>
<path d="M477.787 273.346L471.872 259.495H455.312L460.635 273.346H477.787Z" fill="#263238" stroke="white" stroke-linecap="round" stroke-linejoin="round"/>
<path d="M460.637 273.346L455.315 259.495H436.586L441.24 273.346H460.637Z" fill="#263238" stroke="white" stroke-linecap="round" stroke-linejoin="round"/>
<path d="M391.434 316.839L394.65 333.485H416.922L412.912 316.839H391.434Z" fill="#263238" stroke="white" stroke-linecap="round" stroke-linejoin="round"/>
<path d="M461.479 333.485H483.752L477.358 316.839H455.867L461.479 333.485Z" fill="#263238" stroke="white" stroke-linecap="round" stroke-linejoin="round"/>
<path d="M441.239 273.346L436.585 259.495H417.844L421.842 273.346H441.239Z" fill="#263238" stroke="white" stroke-linecap="round" stroke-linejoin="round"/>
<path d="M434.391 316.839L439.196 333.485H461.481L455.869 316.839H434.391Z" fill="#263238" stroke="white" stroke-linecap="round" stroke-linejoin="round"/>
<path d="M412.914 316.839L416.925 333.485H439.197L434.392 316.839H412.914Z" fill="#263238" stroke="white" stroke-linecap="round" stroke-linejoin="round"/>
<path d="M450.661 301.338H471.395L465.833 286.87H445.793L450.661 301.338Z" fill="#263238" stroke="white" stroke-linecap="round" stroke-linejoin="round"/>
<path d="M266.69 273.346L268.002 259.495H249.273L247.293 273.346H266.69Z" fill="#263238" stroke="white" stroke-linecap="round" stroke-linejoin="round"/>
<path d="M421.84 273.346L417.842 259.495H399.113L402.443 273.346H421.84Z" fill="#263238" stroke="white" stroke-linecap="round" stroke-linejoin="round"/>
<path d="M247.292 273.346L249.272 259.495H230.543L227.895 273.346H247.292Z" fill="#263238" stroke="white" stroke-linecap="round" stroke-linejoin="round"/>
<path d="M305.47 273.346L305.458 259.495H286.729L286.086 273.346H305.47Z" fill="#263238" stroke="white" stroke-linecap="round" stroke-linejoin="round"/>
<path d="M227.897 273.346L230.546 259.495H211.817L208.5 273.346H227.897Z" fill="#263238" stroke="white" stroke-linecap="round" stroke-linejoin="round"/>
<path d="M208.498 273.346L211.815 259.495H193.073L189.113 273.346H208.498Z" fill="#263238" stroke="white" stroke-linecap="round" stroke-linejoin="round"/>
<path d="M286.088 273.346L286.732 259.495H268.003L266.691 273.346H286.088Z" fill="#263238" stroke="white" stroke-linecap="round" stroke-linejoin="round"/>
<path d="M402.445 273.346L399.115 259.495H380.387L383.06 273.346H402.445Z" fill="#263238" stroke="white" stroke-linecap="round" stroke-linejoin="round"/>
<path d="M383.059 273.346L380.385 259.495H361.656L363.662 273.346H383.059Z" fill="#263238" stroke="white" stroke-linecap="round" stroke-linejoin="round"/>
<path d="M344.265 273.346L342.928 259.495H324.199L324.868 273.346H344.265Z" fill="#263238" stroke="white" stroke-linecap="round" stroke-linejoin="round"/>
<path d="M391.436 316.839H369.958H348.48H327.002H305.524H284.033H262.555H241.077H219.599H198.121H176.643L171.863 333.485H194.148H216.421H238.694H260.979H283.251H305.537H327.809H350.094H372.367H394.652L391.436 316.839Z" fill="#263238" stroke="white" stroke-linecap="round" stroke-linejoin="round"/>
<path d="M363.664 273.346L361.658 259.495H342.93L344.267 273.346H363.664Z" fill="#263238" stroke="white" stroke-linecap="round" stroke-linejoin="round"/>
<path d="M539.561 362.737H62.1758V369.498H539.561V362.737Z" fill="#263238" stroke="#263238" stroke-linecap="round" stroke-linejoin="round"/>
<path d="M160.258 37.1841H181.055" stroke="#263238" stroke-width="3" stroke-linecap="round" stroke-linejoin="round"/>
<path d="M160.258 47.8369H238.388" stroke="white" stroke-width="3" stroke-linecap="round" stroke-linejoin="round"/>
<path d="M281.105 47.8369H359.236" stroke="white" stroke-width="3" stroke-linecap="round" stroke-linejoin="round"/>
<path d="M243.445 47.8369H274.37" stroke="#263238" stroke-width="3" stroke-linecap="round" stroke-linejoin="round"/>
<path d="M160.258 58.5023H205.232" stroke="#263238" stroke-width="3" stroke-linecap="round" stroke-linejoin="round"/>
<path d="M210.844 58.5023H255.818" stroke="#263238" stroke-width="3" stroke-linecap="round" stroke-linejoin="round"/>
<path d="M261.43 58.5023H306.404" stroke="#263238" stroke-width="3" stroke-linecap="round" stroke-linejoin="round"/>
<path d="M312.031 58.5023H331.138" stroke="#263238" stroke-width="3" stroke-linecap="round" stroke-linejoin="round"/>
<path d="M186.68 37.1841H207.477" stroke="#263238" stroke-width="3" stroke-linecap="round" stroke-linejoin="round"/>
<path d="M310.34 37.1841H331.137" stroke="#263238" stroke-width="3" stroke-linecap="round" stroke-linejoin="round"/>
<path d="M282.797 37.1841H303.594" stroke="white" stroke-width="3" stroke-linecap="round" stroke-linejoin="round"/>
<path d="M213.102 37.1841H273.803" stroke="#263238" stroke-width="3" stroke-linecap="round" stroke-linejoin="round"/>
<path d="M160.258 102.272H181.055" stroke="#263238" stroke-width="3" stroke-linecap="round" stroke-linejoin="round"/>
<path d="M160.258 112.937H238.388" stroke="white" stroke-width="3" stroke-linecap="round" stroke-linejoin="round"/>
<path d="M281.105 112.937H359.236" stroke="#263238" stroke-width="3" stroke-linecap="round" stroke-linejoin="round"/>
<path d="M243.445 112.937H274.37" stroke="#263238" stroke-width="3" stroke-linecap="round" stroke-linejoin="round"/>
<path d="M160.258 123.603H205.232" stroke="#263238" stroke-width="3" stroke-linecap="round" stroke-linejoin="round"/>
<path d="M210.844 123.603H255.818" stroke="#263238" stroke-width="3" stroke-linecap="round" stroke-linejoin="round"/>
<path d="M261.43 123.603H306.404" stroke="white" stroke-width="3" stroke-linecap="round" stroke-linejoin="round"/>
<path d="M312.031 123.603H331.138" stroke="#263238" stroke-width="3" stroke-linecap="round" stroke-linejoin="round"/>
<path d="M186.68 102.272H207.477" stroke="#263238" stroke-width="3" stroke-linecap="round" stroke-linejoin="round"/>
<path d="M310.34 102.272H331.137" stroke="#263238" stroke-width="3" stroke-linecap="round" stroke-linejoin="round"/>
<path d="M282.797 102.272H303.594" stroke="white" stroke-width="3" stroke-linecap="round" stroke-linejoin="round"/>
<path d="M213.102 102.272H273.803" stroke="#263238" stroke-width="3" stroke-linecap="round" stroke-linejoin="round"/>
<path d="M160.258 198.248H181.055" stroke="#263238" stroke-width="3" stroke-linecap="round" stroke-linejoin="round"/>
<path d="M160.258 208.913H238.388" stroke="white" stroke-width="3" stroke-linecap="round" stroke-linejoin="round"/>
<path d="M281.105 208.913H359.236" stroke="#263238" stroke-width="3" stroke-linecap="round" stroke-linejoin="round"/>
<path d="M243.445 208.913H274.37" stroke="#263238" stroke-width="3" stroke-linecap="round" stroke-linejoin="round"/>
<path d="M160.258 219.566H205.232" stroke="#263238" stroke-width="3" stroke-linecap="round" stroke-linejoin="round"/>
<path d="M210.844 219.566H255.818" stroke="#263238" stroke-width="3" stroke-linecap="round" stroke-linejoin="round"/>
<path d="M261.43 219.566H306.404" stroke="white" stroke-width="3" stroke-linecap="round" stroke-linejoin="round"/>
<path d="M312.031 219.566H331.138" stroke="#263238" stroke-width="3" stroke-linecap="round" stroke-linejoin="round"/>
<path d="M186.68 198.248H207.477" stroke="#263238" stroke-width="3" stroke-linecap="round" stroke-linejoin="round"/>
<path d="M310.34 198.248H331.137" stroke="#263238" stroke-width="3" stroke-linecap="round" stroke-linejoin="round"/>
<path d="M282.797 198.248H303.594" stroke="white" stroke-width="3" stroke-linecap="round" stroke-linejoin="round"/>
<path d="M213.102 198.248H273.803" stroke="#263238" stroke-width="3" stroke-linecap="round" stroke-linejoin="round"/>
<path d="M277.172 69.7344H297.969" stroke="#263238" stroke-width="3" stroke-linecap="round" stroke-linejoin="round"/>
<path d="M249.625 69.7344H270.435" stroke="#263238" stroke-width="3" stroke-linecap="round" stroke-linejoin="round"/>
<path d="M179.934 69.7344H240.635" stroke="#263238" stroke-width="3" stroke-linecap="round" stroke-linejoin="round"/>
<path d="M277.172 88.8112H297.969" stroke="#263238" stroke-width="3" stroke-linecap="round" stroke-linejoin="round"/>
<path d="M249.625 88.8112H270.435" stroke="#263238" stroke-width="3" stroke-linecap="round" stroke-linejoin="round"/>
<path d="M179.934 88.8112H240.635" stroke="white" stroke-width="3" stroke-linecap="round" stroke-linejoin="round"/>
<path d="M200.731 79.2665H179.934" stroke="#263238" stroke-width="3" stroke-linecap="round" stroke-linejoin="round"/>
<path d="M228.274 79.2665H207.477" stroke="#263238" stroke-width="3" stroke-linecap="round" stroke-linejoin="round"/>
<path d="M297.967 79.2665H237.266" stroke="white" stroke-width="3" stroke-linecap="round" stroke-linejoin="round"/>
<path d="M277.172 136.51H297.969" stroke="#263238" stroke-width="3" stroke-linecap="round" stroke-linejoin="round"/>
<path d="M249.625 136.51H270.435" stroke="#263238" stroke-width="3" stroke-linecap="round" stroke-linejoin="round"/>
<path d="M179.934 136.51H240.635" stroke="#263238" stroke-width="3" stroke-linecap="round" stroke-linejoin="round"/>
<path d="M277.172 155.599H297.969" stroke="#263238" stroke-width="3" stroke-linecap="round" stroke-linejoin="round"/>
<path d="M249.625 155.599H270.435" stroke="#263238" stroke-width="3" stroke-linecap="round" stroke-linejoin="round"/>
<path d="M179.934 155.599H240.635" stroke="white" stroke-width="3" stroke-linecap="round" stroke-linejoin="round"/>
<path d="M200.731 146.054H179.934" stroke="#263238" stroke-width="3" stroke-linecap="round" stroke-linejoin="round"/>
<path d="M228.274 146.054H207.477" stroke="#263238" stroke-width="3" stroke-linecap="round" stroke-linejoin="round"/>
<path d="M297.967 146.054H237.266" stroke="white" stroke-width="3" stroke-linecap="round" stroke-linejoin="round"/>
<path d="M200.731 166.818H179.934" stroke="#263238" stroke-width="3" stroke-linecap="round" stroke-linejoin="round"/>
<path d="M228.274 166.818H207.477" stroke="#263238" stroke-width="3" stroke-linecap="round" stroke-linejoin="round"/>
<path d="M297.967 166.818H237.266" stroke="white" stroke-width="3" stroke-linecap="round" stroke-linejoin="round"/>
<path d="M200.731 185.895H179.934" stroke="#263238" stroke-width="3" stroke-linecap="round" stroke-linejoin="round"/>
<path d="M228.274 185.895H207.477" stroke="#263238" stroke-width="3" stroke-linecap="round" stroke-linejoin="round"/>
<path d="M297.967 185.895H237.266" stroke="white" stroke-width="3" stroke-linecap="round" stroke-linejoin="round"/>
<path d="M277.172 176.363H297.969" stroke="#263238" stroke-width="3" stroke-linecap="round" stroke-linejoin="round"/>
<path d="M249.625 176.363H270.435" stroke="#263238" stroke-width="3" stroke-linecap="round" stroke-linejoin="round"/>
<path d="M179.934 176.363H240.635" stroke="white" stroke-width="3" stroke-linecap="round" stroke-linejoin="round"/>
<path d="M152.553 33.4695H145.906V40.0173H152.553V33.4695Z" fill="#263238"/>
<path d="M152.553 44.2356H145.906V50.7834H152.553V44.2356Z" fill="#263238"/>
<path d="M152.553 54.9891H145.906V61.537H152.553V54.9891Z" fill="#263238"/>
<path d="M152.553 65.7427H145.906V72.2905H152.553V65.7427Z" fill="#263238"/>
<path d="M152.553 76.5088H145.906V83.0566H152.553V76.5088Z" fill="#263238"/>
<path d="M152.553 87.2623H145.906V93.8101H152.553V87.2623Z" fill="#263238"/>
<path d="M152.553 98.0159H145.906V104.564H152.553V98.0159Z" fill="#263238"/>
<path d="M152.553 108.782H145.906V115.33H152.553V108.782Z" fill="#263238"/>
<path d="M152.553 119.536H145.906V126.083H152.553V119.536Z" fill="#263238"/>
<path d="M152.553 130.289H145.906V136.837H152.553V130.289Z" fill="#263238"/>
<path d="M152.553 141.055H145.906V147.603H152.553V141.055Z" fill="#263238"/>
<path d="M152.553 151.809H145.906V158.357H152.553V151.809Z" fill="#263238"/>
<path d="M152.553 162.562H145.906V169.11H152.553V162.562Z" fill="#263238"/>
<path d="M152.553 173.328H145.906V179.876H152.553V173.328Z" fill="#263238"/>
<path d="M152.553 184.082H145.906V190.63H152.553V184.082Z" fill="#263238"/>
<path d="M152.553 194.835H145.906V201.383H152.553V194.835Z" fill="#263238"/>
<path d="M152.553 205.602H145.906V212.149H152.553V205.602Z" fill="#263238"/>
<path d="M152.553 216.355H145.906V222.903H152.553V216.355Z" fill="#263238"/>
<path d="M403.391 370.241L447.066 406.242C449.254 411.464 452.143 416.365 455.654 420.811C461.67 428.529 532.082 457.68 532.082 457.68L544.101 461.105L412.723 362.51L403.391 370.241Z" fill="#263238" stroke="#263238" stroke-linecap="round" stroke-linejoin="round"/>
<path d="M488.459 341.645C488.459 341.645 476.743 327.34 471.534 318.249C466.325 309.158 458.922 287.915 453.297 275.348C447.673 262.782 439.424 258.891 429.436 254.987C419.447 251.084 415.563 251.952 415.563 254.559C415.563 257.166 419.472 261.925 419.472 261.925L402.547 264.96C402.547 264.96 395.598 261.056 391.26 262.353C386.921 263.65 378.648 271.886 378.648 271.886C378.648 271.886 369.971 268.851 364.775 270.148C359.578 271.445 345.251 278.383 339.172 281.418C333.094 284.452 326.561 284.88 327.015 287.487C327.469 290.093 333.535 294.413 339.172 293.556C344.81 292.7 354.307 289.212 360.436 289.212C366.565 289.212 369.542 290.471 372.581 292.687C375.621 294.904 388.207 312.62 389.948 314.786C391.688 316.952 393.416 325.615 393.416 325.615C393.416 325.615 385.761 322.354 380.993 318.06C376.226 313.766 369.391 303.567 361.571 302.711C353.752 301.854 345.251 308.767 349.59 312.23C353.928 315.693 358.267 317.859 361.306 321.762C364.346 325.666 369.113 337.364 377.361 349.93C385.609 362.497 403.392 370.292 403.392 370.292L440.282 385.402C440.282 385.402 449.829 362.875 467.625 356.806C485.42 350.736 490.629 348.168 490.629 348.168L488.459 341.645Z" fill="white" stroke="#263238" stroke-linecap="round" stroke-linejoin="round"/>
<path d="M327.016 287.487C327.016 287.487 331.253 286.404 332.477 286.001C333.434 285.599 334.324 285.051 335.112 284.377" stroke="#263238" stroke-linecap="round" stroke-linejoin="round"/>
<path d="M378.66 271.885C378.66 271.885 398.65 283.055 404.288 286.077C406.608 287.336 412.107 289.854 413.797 295.571C414.909 299.479 416.991 303.044 419.851 305.934" stroke="#263238" stroke-linecap="round" stroke-linejoin="round"/>
<path d="M402.535 264.96C402.535 264.96 422.058 280.07 423.357 280.549C424.656 281.027 429.436 281.418 431.606 285.321C433.775 289.225 435.944 293.556 435.944 293.556" stroke="#263238" stroke-linecap="round" stroke-linejoin="round"/>
<path d="M419.461 261.925C419.461 261.925 426.397 260.666 429.008 265.816C431.619 270.966 442.881 283.583 442.881 283.583" stroke="#263238" stroke-linecap="round" stroke-linejoin="round"/>
<path d="M357.396 317.808C357.396 317.808 362.605 315.214 359.994 311.311C357.384 307.407 352.188 307.42 352.188 307.42" stroke="#263238" stroke-linecap="round" stroke-linejoin="round"/>
<path d="M487.59 336.016C487.59 336.016 464.157 342.073 449.401 358.543C434.645 375.014 434.645 388.877 435.944 391.043C437.243 393.209 465.406 408.37 465.406 408.37C465.406 408.37 482.76 375.001 494.918 366.816C507.075 358.631 515.853 356.378 515.853 356.378C515.853 356.378 494.161 342.526 493.291 340.776C492.42 339.026 490.63 334.707 487.59 336.016Z" fill="#42C66E" stroke="#263238" stroke-linecap="round" stroke-linejoin="round"/>
<path d="M553.548 466.431C553.548 466.431 529.674 454.293 524.037 451.258L479.769 427.497C477.249 426.816 474.782 425.949 472.391 424.903C469.793 423.644 465.883 424.034 464.155 414.93C462.428 405.826 466.753 387.631 486.289 369.435C505.825 351.24 517.958 352.109 517.958 352.109C517.958 352.109 526.206 351.24 528.375 352.978C530.544 354.715 530.986 359.903 533.155 360.772C535.324 361.641 595.369 379.66 595.369 379.66" fill="#42C66E"/>
<path d="M553.548 466.431C553.548 466.431 529.674 454.293 524.037 451.258L479.769 427.497C477.249 426.816 474.782 425.949 472.391 424.903C469.793 423.644 465.883 424.034 464.155 414.93C462.428 405.826 466.753 387.631 486.289 369.435C505.825 351.24 517.958 352.109 517.958 352.109C517.958 352.109 526.206 351.24 528.375 352.978C530.544 354.715 530.986 359.903 533.155 360.772C535.324 361.641 595.369 379.66 595.369 379.66" stroke="#263238" stroke-linecap="round" stroke-linejoin="round"/>
<path d="M485.421 399.706C485.421 399.706 482.81 412.701 488.889 423.53" stroke="#263238" stroke-linecap="round" stroke-linejoin="round"/>
<path d="M491.487 416.605C491.487 416.605 488.889 417.474 495.838 428.731" stroke="#263238" stroke-linecap="round" stroke-linejoin="round"/>
<path d="M224.073 332C224.073 332 195.469 365.998 186.88 372.797C181.729 376.918 176.274 380.643 170.56 383.941L139.649 414.817C139.649 414.817 140.506 419.098 131.93 424.248C123.354 429.398 106.164 435.392 101.876 437.105C97.5879 438.817 50.3438 460.236 50.3438 460.236L224.073 332Z" fill="#263238" stroke="#263238" stroke-linecap="round" stroke-linejoin="round"/>
<path d="M265.567 280.058C262.565 280.964 251.694 280.36 251.694 280.36C251.694 280.36 245.085 275.323 241.781 272.251C238.476 269.178 230.052 251.537 225.839 250.63C221.627 249.724 203.882 259.948 203.882 259.948C203.882 259.948 189.454 253.652 185.847 254.244C182.24 254.836 170.498 265.35 170.498 265.35C170.498 265.35 154.267 262.945 151.253 267.755C148.238 272.565 143.433 287.902 138.641 297.472C133.848 307.042 116.381 332.604 116.381 332.604L113.984 335.903C113.984 335.903 117.591 337.162 128.715 342.816C139.839 348.47 157.584 375.555 157.584 375.555C157.584 375.555 182.24 364.147 196.075 357.838C209.91 351.53 221.034 337.691 224.048 332.012C227.063 326.333 232.17 320.906 238.476 315.806C244.782 310.706 256.524 308.591 259.235 304.99C261.947 301.388 257.419 295.986 257.419 295.986C259.089 295.089 260.698 294.083 262.237 292.977C263.738 291.718 269.804 288.482 270.359 284.88C270.914 281.279 268.581 279.164 265.567 280.058ZM219.256 308.881L224.969 291.504C227.378 293.304 237.909 297.208 237.909 297.208C230.985 298.971 219.256 308.881 219.256 308.881Z" fill="white" stroke="#263238" stroke-linecap="round" stroke-linejoin="round"/>
<path d="M159.11 285.208C159.11 285.208 158.214 280.095 158.819 278.295C159.425 276.494 170.536 265.388 170.536 265.388" stroke="#263238" stroke-linecap="round" stroke-linejoin="round"/>
<path d="M168.734 291.176L171.143 283.369L203.922 259.948" stroke="#263238" stroke-linecap="round" stroke-linejoin="round"/>
<path d="M184.977 296.868C184.977 296.868 186.175 289.313 187.688 288.167C189.202 287.021 200.615 284.263 200.615 284.263C200.615 284.263 218.058 269.254 221.059 269.254C224.061 269.254 246.018 280.964 251.731 280.36" stroke="#263238" stroke-linecap="round" stroke-linejoin="round"/>
<path d="M261.356 281.556C261.356 281.556 257.446 281.556 259.553 283.974C261.659 286.391 266.161 285.233 268.267 284.578" stroke="#263238" stroke-linecap="round" stroke-linejoin="round"/>
<path d="M237.91 297.17C237.91 297.17 248.731 290.874 257.446 295.974" stroke="#263238" stroke-linecap="round" stroke-linejoin="round"/>
<path d="M254.785 297.8L248.77 299.903C249.866 302.018 250.773 304.226 251.481 306.501L251.771 308.314" stroke="#263238" stroke-linecap="round" stroke-linejoin="round"/>
<path d="M219.254 308.893L213.844 320.893" stroke="#263238" stroke-linecap="round" stroke-linejoin="round"/>
<path d="M76.4141 355.421C76.4141 355.421 95.3319 343.118 102.281 338.006C109.23 332.893 112.799 333.8 116.406 332.604C120.013 331.408 138.061 336.835 150.105 351.819C162.15 366.804 160.926 377.935 159.426 380.944C157.925 383.954 120.039 406.771 120.039 406.771C120.039 406.771 114.615 385.15 98.6867 372.231C82.7578 359.311 76.4141 355.421 76.4141 355.421Z" fill="#42C66E" stroke="#263238" stroke-linecap="round" stroke-linejoin="round"/>
<path d="M0.628906 391.345C0.628906 391.345 35.7278 369.939 41.5797 366.413C47.4316 362.888 54.1916 358.103 54.1916 358.103C54.1916 358.103 56.0329 348.835 64.9621 348.52C73.8914 348.205 82.5179 351.718 94.2091 358.103C105.9 364.487 120.379 387.832 121.955 397.138C123.532 406.443 126.571 409.276 124.112 415.346C121.653 421.415 112.408 421.742 110.567 421.742C108.725 421.742 104.412 425.583 104.412 425.583L38.5276 468.396" fill="#42C66E"/>
<path d="M0.628906 391.345C0.628906 391.345 35.7278 369.939 41.5797 366.413C47.4316 362.888 54.1916 358.103 54.1916 358.103C54.1916 358.103 56.0329 348.835 64.9621 348.52C73.8914 348.205 82.5179 351.718 94.2091 358.103C105.9 364.487 120.379 387.832 121.955 397.138C123.532 406.443 126.571 409.276 124.112 415.346C121.653 421.415 112.408 421.742 110.567 421.742C108.725 421.742 104.412 425.583 104.412 425.583L38.5276 468.396" stroke="#263238" stroke-linecap="round" stroke-linejoin="round"/>
<path d="M109.531 405.436C109.531 405.436 112.28 407.476 106.781 416.051" stroke="#263238" stroke-linecap="round" stroke-linejoin="round"/>
<path d="M105.597 409.516C105.597 409.516 105.206 418.506 96.9453 426.666" stroke="#263238" stroke-linecap="round" stroke-linejoin="round"/>
</g>
<defs>
<clipPath id="clip0_2152_15057">
<rect width="596" height="469" fill="white"/>
</clipPath>
</defs>
</svg>
