<svg width="894" height="474" viewBox="0 0 894 474" fill="none" xmlns="http://www.w3.org/2000/svg">
<path d="M638.847 63.4875L617.984 119.298L624.503 121.748L645.366 65.9381L638.847 63.4875Z" fill="#DCDEE0"/>
<path d="M654.807 92.9376L643.363 104.414L648.274 109.339L664.653 92.9376L648.274 76.5126L643.363 81.4377L654.807 92.9376Z" fill="#DCDEE0"/>
<path d="M620.457 104.414L608.99 92.9137L620.457 81.4377L615.522 76.5126L599.168 92.9137L615.522 109.339L620.457 104.414Z" fill="#DCDEE0"/>
<path d="M658.3 136.116L683.332 92.6507L658.3 49.1854H608.235L583.203 92.6507L608.235 136.116H658.3ZM612.741 56.9795H653.794L674.345 92.6507L653.794 128.322H612.741L592.215 92.6507L612.741 56.9795Z" fill="#DCDEE0"/>
<path d="M723.179 14.3002L702.316 70.1105L708.835 72.5611L729.698 16.7508L723.179 14.3002Z" fill="#DCDEE0"/>
<path d="M739.146 43.7512L727.703 55.2272L732.614 60.1522L748.992 43.7512L732.614 27.3262L727.703 32.2513L739.146 43.7512Z" fill="#DCDEE0"/>
<path d="M704.793 55.2272L693.326 43.7273L704.793 32.2513L699.858 27.3262L683.504 43.7273L699.858 60.1522L704.793 55.2272Z" fill="#DCDEE0"/>
<path d="M742.636 86.9303L767.668 43.4653L742.636 0H692.571L667.539 43.4653L692.571 86.9303H742.636ZM697.077 7.79411H738.13L758.681 43.4653L738.13 79.1362H697.077L676.551 43.4653L697.077 7.79411Z" fill="#DCDEE0"/>
<path d="M805.73 63.4867L784.867 119.297L791.386 121.748L812.248 65.9374L805.73 63.4867Z" fill="#DCDEE0"/>
<path d="M821.689 92.9375L810.246 104.413L815.157 109.339L831.535 92.9375L815.157 76.5126L810.246 81.4377L821.689 92.9375Z" fill="#DCDEE0"/>
<path d="M787.34 104.413L775.873 92.9136L787.34 81.4377L782.405 76.5126L766.051 92.9136L782.405 109.339L787.34 104.413Z" fill="#DCDEE0"/>
<path d="M825.183 136.116L850.215 92.651L825.183 49.1857H775.118L750.086 92.651L775.118 136.116H825.183ZM779.624 56.9798H820.677L841.228 92.651L820.677 128.322H779.624L759.098 92.651L779.624 56.9798Z" fill="#DCDEE0"/>
<path d="M305.101 160.078L284.238 215.889L290.757 218.339L311.619 162.529L305.101 160.078Z" fill="#DCDEE0"/>
<path d="M321.068 189.529L309.625 201.005L314.536 205.93L330.914 189.529L314.536 173.104L309.625 178.029L321.068 189.529Z" fill="#DCDEE0"/>
<path d="M286.715 201.005L275.248 189.505L286.715 178.029L281.78 173.104L265.426 189.505L281.78 205.93L286.715 201.005Z" fill="#DCDEE0"/>
<path d="M324.558 232.707L349.59 189.242L324.558 145.776H274.493L249.461 189.242L274.493 232.707H324.558ZM278.999 153.571H320.052L340.603 189.242L320.052 224.913H278.999L258.473 189.242L278.999 153.571Z" fill="#DCDEE0"/>
<path d="M471.98 160.078L451.117 215.889L457.636 218.339L478.498 162.529L471.98 160.078Z" fill="#DCDEE0"/>
<path d="M487.967 189.529L476.523 201.005L481.435 205.93L497.813 189.529L481.435 173.104L476.523 178.029L487.967 189.529Z" fill="#DCDEE0"/>
<path d="M453.59 201.005L442.123 189.505L453.59 178.029L448.655 173.104L432.301 189.505L448.655 205.93L453.59 201.005Z" fill="#DCDEE0"/>
<path d="M491.433 232.707L516.465 189.242L491.433 145.776H441.368L416.336 189.242L441.368 232.707H491.433ZM445.874 153.571H486.927L507.478 189.242L486.927 224.913H445.874L425.348 189.242L445.874 153.571Z" fill="#DCDEE0"/>
<path d="M556.292 110.891L535.43 166.701L541.948 169.152L562.811 113.341L556.292 110.891Z" fill="#DCDEE0"/>
<path d="M572.252 140.343L560.809 151.819L565.72 156.744L582.098 140.343L565.72 123.918L560.809 128.843L572.252 140.343Z" fill="#DCDEE0"/>
<path d="M537.903 151.819L526.435 140.319L537.903 128.843L532.968 123.918L516.613 140.319L532.968 156.744L537.903 151.819Z" fill="#DCDEE0"/>
<path d="M575.745 183.52L600.778 140.055L575.745 96.59H525.681L500.648 140.055L525.681 183.52H575.745ZM530.187 104.384H571.24L591.79 140.055L571.24 175.726H530.187L509.66 140.055L530.187 104.384Z" fill="#DCDEE0"/>
<path d="M638.847 160.078L617.984 215.889L624.503 218.339L645.366 162.529L638.847 160.078Z" fill="#DCDEE0"/>
<path d="M654.807 189.529L643.363 201.005L648.274 205.93L664.653 189.529L648.274 173.104L643.363 178.029L654.807 189.529Z" fill="#DCDEE0"/>
<path d="M620.457 201.005L608.99 189.505L620.457 178.029L615.522 173.104L599.168 189.505L615.522 205.93L620.457 201.005Z" fill="#DCDEE0"/>
<path d="M658.3 232.707L683.332 189.242L658.3 145.776H608.235L583.203 189.242L608.235 232.707H658.3ZM612.741 153.571H653.794L674.345 189.242L653.794 224.913H612.741L592.215 189.242L612.741 153.571Z" fill="#DCDEE0"/>
<path d="M723.179 110.891L702.316 166.701L708.835 169.152L729.698 113.342L723.179 110.891Z" fill="#DCDEE0"/>
<path d="M739.146 140.342L727.703 151.818L732.614 156.743L748.992 140.342L732.614 123.917L727.703 128.843L739.146 140.342Z" fill="#DCDEE0"/>
<path d="M704.793 151.818L693.326 140.319L704.793 128.843L699.858 123.917L683.504 140.319L699.858 156.743L704.793 151.818Z" fill="#DCDEE0"/>
<path d="M742.636 183.521L767.668 140.056L742.636 96.5905H692.571L667.539 140.056L692.571 183.521H742.636ZM697.077 104.385H738.13L758.681 140.056L738.13 175.727H697.077L676.551 140.056L697.077 104.385Z" fill="#DCDEE0"/>
<path d="M805.73 160.08L784.867 215.89L791.386 218.341L812.248 162.53L805.73 160.08Z" fill="#DCDEE0"/>
<path d="M821.689 189.53L810.246 201.005L815.157 205.931L831.535 189.53L815.157 173.105L810.246 178.03L821.689 189.53Z" fill="#DCDEE0"/>
<path d="M787.34 201.005L775.873 189.506L787.34 178.03L782.405 173.105L766.051 189.506L782.405 205.931L787.34 201.005Z" fill="#DCDEE0"/>
<path d="M825.183 232.708L850.215 189.243L825.183 145.778H775.118L750.086 189.243L775.118 232.708H825.183ZM779.624 153.572H820.677L841.228 189.243L820.677 224.914H779.624L759.098 189.243L779.624 153.572Z" fill="#DCDEE0"/>
<path d="M890.066 110.891L869.203 166.701L875.722 169.152L896.584 113.342L890.066 110.891Z" fill="#DCDEE0"/>
<path d="M871.676 151.818L860.209 140.319L871.676 128.843L866.741 123.917L850.387 140.319L866.741 156.743L871.676 151.818Z" fill="#DCDEE0"/>
<path d="M909.519 183.521L934.551 140.056L909.519 96.5905H859.454L834.422 140.056L859.454 183.521H909.519ZM863.96 104.385H905.013L925.563 140.056L905.013 175.727H863.96L843.434 140.056L863.96 104.385Z" fill="#DCDEE0"/>
<path d="M138.21 256.67L117.348 312.48L123.866 314.931L144.729 259.121L138.21 256.67Z" fill="#DCDEE0"/>
<path d="M154.178 286.121L142.734 297.597L147.645 302.522L164.024 286.121L147.645 269.696L142.734 274.621L154.178 286.121Z" fill="#DCDEE0"/>
<path d="M119.825 297.597L108.357 286.097L119.825 274.621L114.89 269.696L98.5352 286.097L114.89 302.522L119.825 297.597Z" fill="#DCDEE0"/>
<path d="M157.667 329.299L182.699 285.834L157.667 242.369H107.603L82.5703 285.834L107.603 329.299H157.667ZM112.108 250.163H153.162L173.712 285.834L153.162 321.505H112.108L91.582 285.834L112.108 250.163Z" fill="#DCDEE0"/>
<path d="M222.515 207.484L201.652 263.294L208.171 265.745L229.034 209.934L222.515 207.484Z" fill="#DCDEE0"/>
<path d="M238.502 236.935L227.059 248.411L231.97 253.336L248.348 236.935L231.97 220.51L227.059 225.435L238.502 236.935Z" fill="#DCDEE0"/>
<path d="M204.149 248.411L192.682 236.911L204.149 225.435L199.214 220.51L182.859 236.911L199.214 253.336L204.149 248.411Z" fill="#DCDEE0"/>
<path d="M241.991 280.114L267.024 236.649L241.991 193.184H191.927L166.895 236.649L191.927 280.114H241.991ZM196.433 200.978H237.486L258.036 236.649L237.486 272.32H196.433L175.906 236.649L196.433 200.978Z" fill="#DCDEE0"/>
<path d="M305.101 256.671L284.238 312.481L290.757 314.932L311.619 259.122L305.101 256.671Z" fill="#DCDEE0"/>
<path d="M321.068 286.123L309.625 297.599L314.536 302.524L330.914 286.123L314.536 269.698L309.625 274.623L321.068 286.123Z" fill="#DCDEE0"/>
<path d="M286.715 297.599L275.248 286.099L286.715 274.623L281.78 269.698L265.426 286.099L281.78 302.524L286.715 297.599Z" fill="#DCDEE0"/>
<path d="M324.558 329.3L349.59 285.835L324.558 242.37H274.493L249.461 285.835L274.493 329.3H324.558ZM278.999 250.164H320.052L340.603 285.835L320.052 321.506H278.999L258.473 285.835L278.999 250.164Z" fill="#DCDEE0"/>
<path d="M389.41 207.484L368.547 263.294L375.065 265.745L395.928 209.935L389.41 207.484Z" fill="#DCDEE0"/>
<path d="M405.396 236.936L393.953 248.412L398.864 253.337L415.242 236.936L398.864 220.511L393.953 225.436L405.396 236.936Z" fill="#DCDEE0"/>
<path d="M371.043 248.412L359.576 236.912L371.043 225.436L366.108 220.511L349.754 236.912L366.108 253.337L371.043 248.412Z" fill="#DCDEE0"/>
<path d="M408.886 280.114L433.918 236.649L408.886 193.184H358.821L333.789 236.649L358.821 280.114H408.886ZM363.327 200.978H404.38L424.931 236.649L404.38 272.32H363.327L342.801 236.649L363.327 200.978Z" fill="#DCDEE0"/>
<path d="M471.98 256.671L451.117 312.481L457.636 314.932L478.498 259.122L471.98 256.671Z" fill="#DCDEE0"/>
<path d="M487.967 286.122L476.523 297.598L481.435 302.524L497.813 286.122L481.435 269.698L476.523 274.623L487.967 286.122Z" fill="#DCDEE0"/>
<path d="M453.59 297.598L442.123 286.099L453.59 274.623L448.655 269.698L432.301 286.099L448.655 302.524L453.59 297.598Z" fill="#DCDEE0"/>
<path d="M491.433 329.3L516.465 285.835L491.433 242.37H441.368L416.336 285.835L441.368 329.3H491.433ZM445.874 250.164H486.927L507.478 285.835L486.927 321.506H445.874L425.348 285.835L445.874 250.164Z" fill="#DCDEE0"/>
<path d="M556.292 207.484L535.43 263.294L541.948 265.745L562.811 209.935L556.292 207.484Z" fill="#DCDEE0"/>
<path d="M572.252 236.936L560.809 248.412L565.72 253.337L582.098 236.936L565.72 220.511L560.809 225.436L572.252 236.936Z" fill="#DCDEE0"/>
<path d="M537.903 248.412L526.435 236.912L537.903 225.436L532.968 220.511L516.613 236.912L532.968 253.337L537.903 248.412Z" fill="#DCDEE0"/>
<path d="M575.745 280.115L600.778 236.65L575.745 193.184H525.681L500.648 236.65L525.681 280.115H575.745ZM530.187 200.978H571.24L591.79 236.65L571.24 272.321H530.187L509.66 236.65L530.187 200.978Z" fill="#DCDEE0"/>
<path d="M638.847 256.67L617.984 312.481L624.503 314.931L645.366 259.121L638.847 256.67Z" fill="#DCDEE0"/>
<path d="M654.807 286.121L643.363 297.597L648.274 302.522L664.653 286.121L648.274 269.696L643.363 274.621L654.807 286.121Z" fill="#DCDEE0"/>
<path d="M620.457 297.597L608.99 286.097L620.457 274.621L615.522 269.696L599.168 286.097L615.522 302.522L620.457 297.597Z" fill="#DCDEE0"/>
<path d="M658.3 329.299L683.332 285.834L658.3 242.369H608.235L583.203 285.834L608.235 329.299H658.3ZM612.741 250.163H653.794L674.345 285.834L653.794 321.505H612.741L592.215 285.834L612.741 250.163Z" fill="#DCDEE0"/>
<path d="M723.179 207.484L702.316 263.294L708.835 265.745L729.698 209.934L723.179 207.484Z" fill="#DCDEE0"/>
<path d="M739.146 236.935L727.703 248.411L732.614 253.336L748.992 236.935L732.614 220.51L727.703 225.435L739.146 236.935Z" fill="#DCDEE0"/>
<path d="M704.793 248.411L693.326 236.911L704.793 225.435L699.858 220.51L683.504 236.911L699.858 253.336L704.793 248.411Z" fill="#DCDEE0"/>
<path d="M742.636 280.114L767.668 236.649L742.636 193.184H692.571L667.539 236.649L692.571 280.114H742.636ZM697.077 200.978H738.13L758.681 236.649L738.13 272.32H697.077L676.551 236.649L697.077 200.978Z" fill="#DCDEE0"/>
<path d="M805.73 256.67L784.867 312.48L791.386 314.931L812.248 259.121L805.73 256.67Z" fill="#DCDEE0"/>
<path d="M821.689 286.121L810.246 297.596L815.157 302.522L831.535 286.121L815.157 269.696L810.246 274.621L821.689 286.121Z" fill="#DCDEE0"/>
<path d="M787.34 297.596L775.873 286.097L787.34 274.621L782.405 269.696L766.051 286.097L782.405 302.522L787.34 297.596Z" fill="#DCDEE0"/>
<path d="M825.183 329.299L850.215 285.834L825.183 242.369H775.118L750.086 285.834L775.118 329.299H825.183ZM779.624 250.163H820.677L841.228 285.834L820.677 321.505H779.624L759.098 285.834L779.624 250.163Z" fill="#DCDEE0"/>
<path d="M890.066 207.484L869.203 263.294L875.722 265.745L896.584 209.934L890.066 207.484Z" fill="#DCDEE0"/>
<path d="M871.676 248.411L860.209 236.911L871.676 225.435L866.741 220.51L850.387 236.911L866.741 253.336L871.676 248.411Z" fill="#DCDEE0"/>
<path d="M909.519 280.114L934.551 236.649L909.519 193.184H859.454L834.422 236.649L859.454 280.114H909.519ZM863.96 200.978H905.013L925.563 236.649L905.013 272.32H863.96L843.434 236.649L863.96 200.978Z" fill="#DCDEE0"/>
<path d="M55.6439 304.077L34.7812 359.887L41.2997 362.338L62.1624 306.527L55.6439 304.077Z" fill="#DCDEE0"/>
<path d="M71.6035 333.528L60.1602 345.003L65.0713 349.929L81.4495 333.528L65.0713 317.103L60.1602 322.028L71.6035 333.528Z" fill="#DCDEE0"/>
<path d="M37.2542 345.003L25.787 333.504L37.2542 322.028L32.3193 317.103L15.9648 333.504L32.3193 349.929L37.2542 345.003Z" fill="#DCDEE0"/>
<path d="M75.0969 376.706L100.129 333.241L75.0969 289.776H25.0323L0 333.241L25.0323 376.706H75.0969ZM29.5381 297.57H70.5913L91.1416 333.241L70.5913 368.912H29.5381L9.01169 333.241L29.5381 297.57Z" fill="#DCDEE0"/>
<path d="M138.21 353.262L117.348 409.073L123.866 411.523L144.729 355.713L138.21 353.262Z" fill="#DCDEE0"/>
<path d="M154.178 382.712L142.734 394.188L147.645 399.113L164.024 382.712L147.645 366.287L142.734 371.212L154.178 382.712Z" fill="#DCDEE0"/>
<path d="M119.825 394.188L108.357 382.688L119.825 371.212L114.89 366.287L98.5352 382.688L114.89 399.113L119.825 394.188Z" fill="#DCDEE0"/>
<path d="M157.667 425.891L182.699 382.426L157.667 338.961H107.603L82.5703 382.426L107.603 425.891H157.667ZM112.108 346.755H153.162L173.712 382.426L153.162 418.097H112.108L91.582 382.426L112.108 346.755Z" fill="#DCDEE0"/>
<path d="M222.535 304.077L201.672 359.887L208.19 362.337L229.053 306.527L222.535 304.077Z" fill="#DCDEE0"/>
<path d="M238.502 333.527L227.059 345.003L231.97 349.928L248.348 333.527L231.97 317.102L227.059 322.027L238.502 333.527Z" fill="#DCDEE0"/>
<path d="M204.149 345.003L192.682 333.503L204.149 322.027L199.214 317.102L182.859 333.503L199.214 349.928L204.149 345.003Z" fill="#DCDEE0"/>
<path d="M241.991 376.706L267.024 333.241L241.991 289.776H191.927L166.895 333.241L191.927 376.706H241.991ZM196.433 297.57H237.486L258.036 333.241L237.486 368.912H196.433L175.906 333.241L196.433 297.57Z" fill="#DCDEE0"/>
<path d="M389.41 304.077L368.547 359.887L375.065 362.338L395.928 306.527L389.41 304.077Z" fill="#DCDEE0"/>
<path d="M405.369 333.527L393.926 345.003L398.837 349.928L415.215 333.527L398.837 317.102L393.926 322.027L405.369 333.527Z" fill="#DCDEE0"/>
<path d="M371.02 345.003L359.553 333.503L371.02 322.027L366.085 317.102L349.73 333.503L366.085 349.928L371.02 345.003Z" fill="#DCDEE0"/>
<path d="M408.862 376.706L433.895 333.241L408.862 289.776H358.798L333.766 333.241L358.798 376.706H408.862ZM363.304 297.57H404.357L424.907 333.241L404.357 368.912H363.304L342.777 333.241L363.304 297.57Z" fill="#DCDEE0"/>
<path d="M471.98 353.262L451.117 409.073L457.636 411.523L478.498 355.713L471.98 353.262Z" fill="#DCDEE0"/>
<path d="M487.967 382.712L476.523 394.188L481.435 399.113L497.813 382.712L481.435 366.287L476.523 371.212L487.967 382.712Z" fill="#DCDEE0"/>
<path d="M453.59 394.188L442.123 382.688L453.59 371.212L448.655 366.287L432.301 382.688L448.655 399.113L453.59 394.188Z" fill="#DCDEE0"/>
<path d="M491.433 425.891L516.465 382.426L491.433 338.961H441.368L416.336 382.426L441.368 425.891H491.433ZM445.874 346.755H486.927L507.478 382.426L486.927 418.097H445.874L425.348 382.426L445.874 346.755Z" fill="#DCDEE0"/>
<path d="M556.292 304.077L535.43 359.887L541.948 362.337L562.811 306.527L556.292 304.077Z" fill="#DCDEE0"/>
<path d="M572.252 333.527L560.809 345.003L565.72 349.928L582.098 333.527L565.72 317.102L560.809 322.027L572.252 333.527Z" fill="#DCDEE0"/>
<path d="M537.903 345.003L526.435 333.503L537.903 322.027L532.968 317.102L516.613 333.503L532.968 349.928L537.903 345.003Z" fill="#DCDEE0"/>
<path d="M575.745 376.706L600.778 333.241L575.745 289.776H525.681L500.648 333.241L525.681 376.706H575.745ZM530.187 297.57H571.24L591.79 333.241L571.24 368.912H530.187L509.66 333.241L530.187 297.57Z" fill="#DCDEE0"/>
<path d="M638.847 353.263L617.984 409.073L624.503 411.524L645.366 355.713L638.847 353.263Z" fill="#DCDEE0"/>
<path d="M654.807 382.712L643.363 394.188L648.274 399.113L664.653 382.712L648.274 366.287L643.363 371.212L654.807 382.712Z" fill="#DCDEE0"/>
<path d="M620.457 394.188L608.99 382.688L620.457 371.212L615.522 366.287L599.168 382.688L615.522 399.113L620.457 394.188Z" fill="#DCDEE0"/>
<path d="M658.3 425.891L683.332 382.426L658.3 338.961H608.235L583.203 382.426L608.235 425.891H658.3ZM612.741 346.755H653.794L674.345 382.426L653.794 418.097H612.741L592.215 382.426L612.741 346.755Z" fill="#DCDEE0"/>
<path d="M723.179 304.077L702.316 359.887L708.835 362.337L729.698 306.527L723.179 304.077Z" fill="#DCDEE0"/>
<path d="M739.146 333.527L727.703 345.003L732.614 349.928L748.992 333.527L732.614 317.102L727.703 322.027L739.146 333.527Z" fill="#DCDEE0"/>
<path d="M704.793 345.003L693.326 333.503L704.793 322.027L699.858 317.102L683.504 333.503L699.858 349.928L704.793 345.003Z" fill="#DCDEE0"/>
<path d="M742.636 376.706L767.668 333.241L742.636 289.776H692.571L667.539 333.241L692.571 376.706H742.636ZM697.077 297.57H738.13L758.681 333.241L738.13 368.912H697.077L676.551 333.241L697.077 297.57Z" fill="#DCDEE0"/>
<path d="M805.73 353.262L784.867 409.073L791.386 411.523L812.248 355.713L805.73 353.262Z" fill="#DCDEE0"/>
<path d="M821.689 382.712L810.246 394.188L815.157 399.113L831.535 382.712L815.157 366.287L810.246 371.212L821.689 382.712Z" fill="#DCDEE0"/>
<path d="M787.34 394.188L775.873 382.688L787.34 371.212L782.405 366.287L766.051 382.688L782.405 399.113L787.34 394.188Z" fill="#DCDEE0"/>
<path d="M825.183 425.891L850.215 382.426L825.183 338.961H775.118L750.086 382.426L775.118 425.891H825.183ZM779.624 346.755H820.677L841.228 382.426L820.677 418.097H779.624L759.098 382.426L779.624 346.755Z" fill="#DCDEE0"/>
<path d="M890.066 304.077L869.203 359.887L875.722 362.337L896.584 306.527L890.066 304.077Z" fill="#DCDEE0"/>
<path d="M871.676 345.003L860.209 333.503L871.676 322.027L866.741 317.102L850.387 333.503L866.741 349.928L871.676 345.003Z" fill="#DCDEE0"/>
<path d="M909.519 376.706L934.551 333.241L909.519 289.776H859.454L834.422 333.241L859.454 376.706H909.519ZM863.96 297.57H905.013L925.563 333.241L905.013 368.912H863.96L843.434 333.241L863.96 297.57Z" fill="#DCDEE0"/>
<path d="M222.515 400.667L201.652 456.477L208.171 458.928L229.034 403.117L222.515 400.667Z" fill="#DCDEE0"/>
<path d="M238.502 430.118L227.059 441.594L231.97 446.519L248.348 430.118L231.97 413.693L227.059 418.618L238.502 430.118Z" fill="#DCDEE0"/>
<path d="M204.149 441.594L192.682 430.094L204.149 418.618L199.214 413.693L182.859 430.094L199.214 446.519L204.149 441.594Z" fill="#DCDEE0"/>
<path d="M241.991 473.296L267.024 429.831L241.991 386.366H191.927L166.895 429.831L191.927 473.296H241.991ZM196.433 394.16H237.486L258.036 429.831L237.486 465.502H196.433L175.906 429.831L196.433 394.16Z" fill="#DCDEE0"/>
<path d="M723.179 400.667L702.316 456.477L708.835 458.928L729.698 403.117L723.179 400.667Z" fill="#DCDEE0"/>
<path d="M739.146 430.118L727.703 441.594L732.614 446.519L748.992 430.118L732.614 413.693L727.703 418.618L739.146 430.118Z" fill="#DCDEE0"/>
<path d="M704.793 441.594L693.326 430.094L704.793 418.618L699.858 413.693L683.504 430.094L699.858 446.519L704.793 441.594Z" fill="#DCDEE0"/>
<path d="M742.636 473.296L767.668 429.831L742.636 386.366H692.571L667.539 429.831L692.571 473.296H742.636ZM697.077 394.16H738.13L758.681 429.831L738.13 465.502H697.077L676.551 429.831L697.077 394.16Z" fill="#DCDEE0"/>
</svg>
