<svg width="361" height="331" viewBox="0 0 361 331" fill="none" xmlns="http://www.w3.org/2000/svg">
<path d="M343.421 269.344H288.375V273.768H343.421V269.344Z" fill="#1D2332"/>
<path d="M318.75 398L425 215.001L318.75 32H106.25L0 215.001L106.25 398H318.75Z" fill="#E3E3E3"/>
<path d="M211.723 263.993C221.086 257.1 224.481 244.547 219.439 233.847C217.279 229.32 213.883 225.513 212.134 220.883C209.459 213.68 211.208 205.552 212.957 198.041" stroke="#1D2332" stroke-width="6.17339" stroke-miterlimit="10" stroke-linecap="round" stroke-linejoin="round"/>
<path d="M245.06 266.771H184.972C183.737 266.771 182.605 265.743 182.605 264.405V263.891C182.605 262.656 183.634 261.524 184.972 261.524H245.06C246.294 261.524 247.426 262.553 247.426 263.891V264.405C247.323 265.64 246.294 266.771 245.06 266.771Z" fill="#1D2332"/>
<path d="M315.952 238.374H117.889C115.625 238.374 113.773 236.522 113.773 234.258V118.61C113.773 116.346 115.625 114.494 117.889 114.494H315.952C318.216 114.494 320.068 116.346 320.068 118.61V234.258C320.068 236.522 318.216 238.374 315.952 238.374Z" fill="white"/>
<path d="M318.936 124.269H114.699V229.011H318.936V124.269Z" fill="#4F5865"/>
<path d="M156.062 134.455H133.426V137.747H156.062V134.455Z" fill="white"/>
<path d="M198.248 134.455H160.281V137.747H198.248V134.455Z" fill="white"/>
<path d="M247.017 134.455H202.672V137.747H247.017V134.455Z" fill="white"/>
<path d="M268.727 134.455H251.75V137.747H268.727V134.455Z" fill="white"/>
<path d="M200.51 142.686H195.16V145.979H200.51V142.686Z" fill="white"/>
<path d="M212.958 142.686H210.488V145.979H212.958V142.686Z" fill="white"/>
<path d="M255.967 142.686H215.223V145.979H255.967V142.686Z" fill="white"/>
<path d="M272.841 142.686H260.906V145.979H272.841V142.686Z" fill="white"/>
<path d="M207.405 142.686H202.672V145.979H207.405V142.686Z" fill="white"/>
<path d="M193.409 142.686H171.699V145.979H193.409V142.686Z" fill="white"/>
<path d="M169.235 142.686H140.734V145.979H169.235V142.686Z" fill="white"/>
<path d="M138.159 142.686H133.426V145.979H138.159V142.686Z" fill="white"/>
<path d="M137.644 150.814H133.426V154.107H137.644V150.814Z" fill="white"/>
<path d="M182.299 150.814H141.246V154.107H182.299V150.814Z" fill="white"/>
<path d="M251.44 150.814H186.723V154.107H251.44V150.814Z" fill="white"/>
<path d="M272.944 150.814H253.703V154.107H272.944V150.814Z" fill="white"/>
<path d="M268.211 158.943H218.516V162.235H268.211V158.943Z" fill="white"/>
<path d="M141.245 158.943H133.426V162.235H141.245V158.943Z" fill="white"/>
<path d="M183.739 158.943H144.641V162.235H183.739V158.943Z" fill="white"/>
<path d="M211.625 158.943H186.211V162.235H211.625V158.943Z" fill="white"/>
<path d="M167.792 167.174H160.281V170.466H167.792V167.174Z" fill="white"/>
<path d="M156.885 167.174H133.426V170.466H156.885V167.174Z" fill="white"/>
<path d="M177.567 167.174H170.57V170.466H177.567V167.174Z" fill="white"/>
<path d="M211.828 167.174H180.344V170.466H211.828V167.174Z" fill="white"/>
<path d="M230.554 167.174H216.355V170.466H230.554V167.174Z" fill="white"/>
<path d="M251.234 167.174H236.727V170.466H251.234V167.174Z" fill="white"/>
<path d="M268.212 167.174H258.438V170.466H268.212V167.174Z" fill="white"/>
<path d="M241.87 175.302H225.922V178.595H241.87V175.302Z" fill="white"/>
<path d="M141.76 175.302H133.426V178.595H141.76V175.302Z" fill="white"/>
<path d="M187.648 175.302H147.727V178.595H187.648V175.302Z" fill="white"/>
<path d="M201.851 175.302H193.723V178.595H201.851V175.302Z" fill="white"/>
<path d="M218.619 175.302H205.758V178.595H218.619V175.302Z" fill="white"/>
<path d="M269.037 175.302H249.488V178.595H269.037V175.302Z" fill="white"/>
<path d="M156.062 182.608H133.426V185.9H156.062V182.608Z" fill="white"/>
<path d="M198.248 182.608H160.281V185.9H198.248V182.608Z" fill="white"/>
<path d="M247.017 182.608H202.672V185.9H247.017V182.608Z" fill="white"/>
<path d="M268.727 182.608H251.75V185.9H268.727V182.608Z" fill="white"/>
<path d="M200.51 190.839H195.16V194.131H200.51V190.839Z" fill="white"/>
<path d="M212.958 190.839H210.488V194.131H212.958V190.839Z" fill="white"/>
<path d="M255.967 190.839H215.223V194.131H255.967V190.839Z" fill="white"/>
<path d="M272.841 190.839H260.906V194.131H272.841V190.839Z" fill="white"/>
<path d="M207.405 190.839H202.672V194.131H207.405V190.839Z" fill="white"/>
<path d="M193.409 190.839H171.699V194.131H193.409V190.839Z" fill="white"/>
<path d="M169.235 190.839H140.734V194.131H169.235V190.839Z" fill="white"/>
<path d="M138.159 190.839H133.426V194.131H138.159V190.839Z" fill="white"/>
<path d="M137.644 198.967H133.426V202.26H137.644V198.967Z" fill="white"/>
<path d="M182.299 198.967H141.246V202.26H182.299V198.967Z" fill="white"/>
<path d="M251.44 198.967H186.723V202.26H251.44V198.967Z" fill="white"/>
<path d="M272.944 198.967H253.703V202.26H272.944V198.967Z" fill="white"/>
<path d="M268.211 207.095H218.516V210.388H268.211V207.095Z" fill="white"/>
<path d="M141.245 207.095H133.426V210.388H141.245V207.095Z" fill="white"/>
<path d="M183.739 207.095H144.641V210.388H183.739V207.095Z" fill="white"/>
<path d="M211.625 207.095H186.211V210.388H211.625V207.095Z" fill="white"/>
<path d="M167.792 215.327H160.281V218.619H167.792V215.327Z" fill="white"/>
<path d="M156.885 215.327H133.426V218.619H156.885V215.327Z" fill="white"/>
<path d="M177.567 215.327H170.57V218.619H177.567V215.327Z" fill="white"/>
<path d="M211.828 215.327H180.344V218.619H211.828V215.327Z" fill="white"/>
<path d="M230.554 215.327H216.355V218.619H230.554V215.327Z" fill="white"/>
<path d="M251.234 215.327H236.727V218.619H251.234V215.327Z" fill="white"/>
<path d="M268.212 215.327H258.438V218.619H268.212V215.327Z" fill="white"/>
<path d="M241.87 223.455H225.922V226.747H241.87V223.455Z" fill="white"/>
<path d="M141.76 223.455H133.426V226.747H141.76V223.455Z" fill="white"/>
<path d="M187.648 223.455H147.727V226.747H187.648V223.455Z" fill="white"/>
<path d="M201.851 223.455H193.723V226.747H201.851V223.455Z" fill="white"/>
<path d="M218.619 223.455H205.758V226.747H218.619V223.455Z" fill="white"/>
<path d="M269.037 223.455H249.488V226.747H269.037V223.455Z" fill="white"/>
<path d="M63.5623 229.011C59.0351 224.998 54.9195 220.265 52.1415 214.812C50.8039 212.137 49.775 209.256 49.1577 206.375C48.849 204.934 48.6433 203.391 48.5404 201.951C48.4375 201.23 48.8491 198.247 48.4375 197.732C51.4213 201.333 55.8456 203.082 58.9323 206.375C62.1218 209.667 65.1056 213.989 67.0605 218.104C68.1923 220.574 69.1184 223.146 69.5299 225.821C69.7357 227.056 70.5588 231.583 69.3241 232.509C68.9126 232.818 67.8837 232.2 67.575 231.995C66.1345 231.171 64.797 230.04 63.5623 229.011Z" fill="#4F5865"/>
<path d="M75.0881 260.495C74.4708 241.666 67.4743 223.146 55.5391 208.639" stroke="#1D2332" stroke-width="0.51445" stroke-miterlimit="10" stroke-linecap="round" stroke-linejoin="round"/>
<path d="M67.9861 234.67C65.7225 232.612 62.8416 231.377 59.7549 230.863C56.7711 230.348 53.6843 230.451 50.5976 230.863C46.9965 231.274 43.3954 232.097 40 233.229C41.7491 236.316 44.9387 238.477 48.3341 239.814C51.1121 240.843 54.0959 241.358 57.0797 241.358C61.4011 241.358 65.8254 240.329 70.1467 240.432C70.867 240.432 71.5872 240.432 72.1017 240.946C71.4843 238.58 69.8381 236.316 67.9861 234.67Z" fill="#4F5865"/>
<path d="M71.9973 240.637C69.4251 237.859 66.0297 236.419 62.3257 235.904C58.5188 235.39 54.7118 235.699 51.0078 236.11" stroke="#1D2332" stroke-width="0.51445" stroke-miterlimit="10" stroke-linecap="round" stroke-linejoin="round"/>
<path d="M89.9025 231.686C88.4621 233.949 86.4043 235.801 84.8609 237.962C83.832 239.403 83.3176 241.049 82.4945 242.592C81.4656 244.547 80.3338 246.399 78.6875 248.045C78.4818 248.251 78.1731 248.56 77.8644 248.457C77.6586 248.457 77.4529 248.251 77.2471 247.942C76.0124 246.09 76.1153 243.93 76.3211 241.872C76.5268 239.403 76.8355 236.933 77.2471 234.464C77.6587 232.303 78.1731 230.04 79.3049 228.085C80.3338 226.233 81.5684 224.998 83.0089 223.455C85.0667 221.294 86.8159 218.722 88.0505 215.944C89.1823 218.104 90.2112 220.162 90.8285 222.426C91.4459 224.689 91.6517 227.159 90.8285 229.422C90.7257 230.245 90.417 230.966 89.9025 231.686Z" fill="#4F5865"/>
<path d="M76.8358 257.717C76.2184 252.984 77.8647 248.354 78.3791 243.621C78.8936 238.682 80.5398 233.847 83.1121 229.525" stroke="#1D2332" stroke-width="0.51445" stroke-miterlimit="10" stroke-linecap="round" stroke-linejoin="round"/>
<path d="M54.3008 254.116C55.5355 261.524 60.1655 269.241 66.4418 273.048C66.8534 273.356 67.3678 273.459 67.8823 273.459H81.9782C82.4926 273.459 83.0071 273.356 83.4186 273.048C89.6949 269.241 94.325 261.524 95.5596 254.116H54.3008Z" fill="#1D2332"/>
<path d="M349.078 273.665H41.7461V281.279H349.078V273.665Z" fill="white"/>
<path d="M349.078 295.786H41.7461V303.4H349.078V295.786Z" fill="white"/>
<path d="M63.8709 276.237H59.3438V358.24H63.8709V276.237Z" fill="white"/>
<path d="M331.074 276.237H326.547V358.24H331.074V276.237Z" fill="white"/>
<path d="M225.825 165.836C227.986 164.19 230.455 163.161 232.513 161.412C234.468 159.766 236.217 157.708 237.966 155.753C240.436 153.078 247.021 146.39 250.107 151.123C253.091 155.65 254.84 160.28 255.046 165.631C255.149 168.717 255.149 171.907 254.737 174.891C254.326 177.463 253.605 180.035 252.371 182.299C251.239 184.357 249.799 186.106 248.049 187.649C246.609 188.987 244.757 191.044 242.802 191.662C238.481 193.102 233.336 192.794 229.015 191.353C227.471 190.839 225.928 190.118 224.591 189.089C220.886 186.209 219.549 181.064 219.755 176.331C219.858 174.479 220.166 172.524 220.989 170.878C222.121 168.923 223.87 167.277 225.825 165.836Z" fill="#1D2332"/>
<path d="M91.2434 178.183C91.0376 177.669 90.8318 177.051 90.6261 176.537C89.4943 173.965 87.6422 171.598 85.4816 169.849C83.9382 168.614 82.292 167.688 80.7486 166.557C78.8966 165.116 76.8388 163.984 74.9868 162.544C72.8261 160.898 70.6654 159.149 68.5047 157.502C67.9903 157.091 67.3729 156.782 66.8585 156.988C66.344 157.194 66.1382 157.708 66.0353 158.223C65.6238 160.177 66.8585 161.927 68.2989 163.161C70.0481 164.807 72.2088 166.248 73.5463 168.409C76.2215 172.524 70.6654 171.495 68.7105 169.335C67.7845 168.306 67.1671 166.968 66.5498 165.631C65.6238 163.47 65.3151 161.103 64.6978 158.84C64.492 158.017 63.6689 153.592 61.9197 155.445C61.6111 155.753 61.5082 156.268 61.4053 156.782C61.1995 158.12 61.1995 159.457 61.4053 160.795C60.9937 160.486 60.3764 161.001 60.1706 161.412C59.5533 162.544 59.862 163.676 59.2446 164.705C58.5244 165.836 58.1128 167.071 58.3186 168.512C58.4215 169.643 58.9359 170.775 59.4504 171.804C60.9937 174.994 63.4631 179.521 66.5498 181.373C69.8423 183.328 73.7521 184.768 76.3243 187.546C77.1474 188.472 77.559 189.604 77.8677 190.736C83.0122 205.861 85.5844 221.911 89.4943 237.448C91.5521 245.679 93.9185 253.91 97.3139 261.627C98.6515 264.714 102.253 271.196 105.134 273.048C108.117 275.105 108.838 272.533 112.542 271.813C115.731 271.196 118.201 268.829 120.464 266.463C123.859 262.862 128.078 257.923 128.284 252.675C128.387 248.457 126.843 243.21 124.991 239.506C124.477 238.58 124.065 237.654 123.551 236.728C118.406 227.673 110.998 219.751 106.471 210.388C105.442 208.227 104.413 206.066 103.384 203.906C100.503 197.629 97.6226 191.353 94.7417 185.18C94.0214 183.636 93.3012 182.093 92.4781 180.55C91.7578 179.727 91.552 178.903 91.2434 178.183Z" fill="white" stroke="#1D2332" stroke-width="1.0289" stroke-miterlimit="10" stroke-linecap="round" stroke-linejoin="round"/>
<path d="M61.4062 160.28C61.8178 161.618 62.1265 163.058 62.538 164.396C63.3612 167.277 64.2872 170.364 66.5507 172.113" stroke="#1D2332" stroke-width="1.0289" stroke-miterlimit="10" stroke-linecap="round" stroke-linejoin="round"/>
<path d="M59.3477 164.499C60.0679 168.203 61.6113 171.701 63.8748 174.788C64.0806 175.097 64.2864 175.302 64.4922 175.508" stroke="#1D2332" stroke-width="1.0289" stroke-miterlimit="10" stroke-linecap="round" stroke-linejoin="round"/>
<path d="M91.1434 177.463C91.0405 178.595 90.9376 179.624 90.6289 180.653L91.1434 177.463Z" fill="white"/>
<path d="M91.1434 177.463C91.0405 178.595 90.9376 179.624 90.6289 180.653" stroke="#1D2332" stroke-width="1.0289" stroke-miterlimit="10" stroke-linecap="round" stroke-linejoin="round"/>
<path d="M227.467 156.885C227.467 155.342 227.467 153.798 227.364 152.358L199.07 152.255C199.173 161.001 198.761 169.129 198.247 176.743C197.938 180.447 197.732 183.019 196.395 186.106C202.259 188.575 206.375 191.559 212.651 192.279C218.413 192.896 225.718 192.999 230.863 190.324C226.747 179.212 227.776 167.894 227.467 156.885Z" fill="#42C66E"/>
<path d="M264.921 325.83C266.362 325.521 267.802 325.213 269.243 324.595C273.873 322.641 277.371 318.113 278.091 313.072C279.12 305.87 274.902 298.976 273.461 291.774C272.844 288.378 272.844 284.777 271.198 281.69C270.477 280.25 269.448 279.015 268.728 277.678C266.053 272.739 268.214 267.903 268.008 262.656C267.802 257.82 267.391 252.881 267.391 247.943C267.391 244.65 267.391 241.255 268.008 238.065C268.625 234.67 269.757 231.377 270.374 227.982C273.564 211.211 264.201 190.427 248.768 182.71C235.495 176.125 220.267 174.273 205.348 174.582C192.487 174.891 164.295 181.681 156.475 191.868C146.289 205.243 151.742 224.586 162.237 236.11C160.385 246.811 158.636 257.511 157.401 268.315C156.372 277.678 157.607 287.761 154.212 296.609C153.594 298.256 152.771 299.902 152.463 301.651C152.154 303.297 152.36 304.944 152.565 306.59C153.8 315.335 157.813 324.39 165.632 328.711C171.291 331.798 177.979 332.004 184.461 331.901C209.875 331.695 235.186 329.02 260.497 326.345C261.937 326.242 263.481 326.139 264.921 325.83Z" fill="#42C66E"/>
<path d="M191.766 175.92C178.596 177.977 166.352 183.328 155.754 191.456C148.758 196.806 142.687 203.288 137.028 209.976C131.575 216.355 126.739 225.204 120.257 230.451C116.965 225.615 114.084 220.471 111.512 215.121C110.894 213.783 110.277 212.343 109.248 211.211C108.528 210.388 107.705 209.667 107.087 208.844C106.161 207.507 105.956 205.758 105.441 204.214C104.927 202.671 103.692 201.025 102.046 200.922C96.6954 205.963 88.3613 206.375 82.4966 210.902C82.1879 211.108 81.8793 211.417 81.7764 211.725C81.6735 212.034 81.6735 212.445 81.7764 212.754C82.8053 218.516 83.7313 224.381 84.7602 230.142C85.7891 235.801 86.2007 242.181 87.9498 247.634C89.6989 255.453 92.4769 263.376 98.1359 269.035C100.502 271.401 104.824 273.459 108.013 274.694C112.129 276.34 116.862 276.649 121.286 276.546C130.34 276.34 139.395 273.15 146.494 267.389C149.375 265.022 151.947 262.244 154.52 259.466C159.15 254.425 163.78 250 166.866 243.93C168.924 239.814 171.188 235.904 173.451 231.892C174.789 229.422 182.608 212.445 186.21 213.166C188.062 213.577 190.017 213.886 191.971 214.092C191.971 209.153 192.28 204.317 192.486 199.378C192.589 196.806 192.692 194.131 192.795 191.456C192.795 189.707 191.869 187.135 192.28 185.488C193.309 181.578 195.264 177.977 197.939 174.891C195.984 175.302 193.823 175.611 191.766 175.92Z" fill="#42C66E"/>
<path d="M223.867 176.537C229.835 177.36 230.143 177.463 236.111 178.183C256.483 180.55 275.518 202.054 287.556 216.87C297.022 228.496 314.925 249.486 310.192 265.845C307.208 276.031 294.347 278.604 285.19 276.957C272.02 274.591 262.76 264.096 255.043 253.91C252.368 250.309 230.864 213.063 229.732 213.269C227.88 213.68 225.925 213.989 223.97 214.195V176.537H223.867Z" fill="#42C66E"/>
<path d="M218.517 126.738C216.048 121.594 212.138 118.301 206.993 115.935C203.804 114.494 200.1 113.774 196.704 114.803C195.058 115.214 193.618 116.038 192.177 116.861C190.943 117.478 189.811 118.095 188.782 119.021C186.21 121.285 184.563 125.298 183.843 128.487C183.226 131.162 182.814 133.94 182.403 136.718C181.58 138.879 180.551 141.04 179.007 142.686C178.39 143.303 178.596 144.332 179.419 144.641C180.139 144.95 180.962 145.155 181.785 145.258C181.785 147.007 181.785 148.757 181.785 150.506C181.991 154.827 182.711 159.56 186.21 162.132C192.28 166.454 205.759 162.647 211.006 158.428C215.842 154.621 218.826 148.859 220.06 142.789C221.192 137.439 220.781 131.677 218.517 126.738Z" fill="white" stroke="#1D2332" stroke-width="1.0289" stroke-miterlimit="10" stroke-linecap="round" stroke-linejoin="round"/>
<path d="M181.684 148.551C182.404 149.065 183.33 149.168 184.256 148.962L181.684 148.551Z" fill="white"/>
<path d="M181.684 148.551C182.404 149.065 183.33 149.168 184.256 148.962" stroke="#1D2332" stroke-width="1.0289" stroke-miterlimit="10" stroke-linecap="round" stroke-linejoin="round"/>
<path d="M187.237 134.455C187.031 134.043 186.826 133.529 186.62 133.014C186.105 131.471 187.031 130.545 185.488 129.208C185.179 129.002 183.636 128.282 182.607 128.179C182.093 128.179 181.784 127.561 181.887 127.15C183.327 121.079 188.369 116.141 194.234 113.671C200.51 110.996 207.506 110.584 214.4 110.79C219.442 110.893 224.998 111.51 228.702 115.009C232.92 119.021 233.435 125.195 235.595 130.339C237.859 135.69 242.386 139.908 245.987 144.332C249.588 148.757 252.572 153.901 253.395 159.56C254.013 163.676 253.498 168.717 251.029 172.216C248.457 175.817 243.827 177.463 240.123 179.315C234.052 182.196 228.599 186.517 222.117 188.061C215.429 189.604 208.227 188.061 202.259 184.562C198.967 182.607 195.777 179.624 195.777 175.92C195.777 174.479 196.291 172.936 196.291 171.495C196.291 169.129 194.851 166.968 193.308 165.116C191.661 163.367 189.809 161.824 188.369 159.869C185.9 156.576 185.9 152.152 187.855 148.654C189.192 146.081 190.735 144.024 190.53 141.04C189.912 138.262 188.369 136.718 187.237 134.455Z" fill="#1D2332"/>
<path d="M214.402 100.295C216.151 99.1637 218.312 99.1637 220.369 99.4723C222.324 99.781 224.485 100.295 225.617 101.942C229.629 107.498 221.192 114.803 215.739 113.774C209.36 112.539 209.669 103.485 214.402 100.295Z" fill="#1D2332"/>
<path d="M159.148 255.248C160.589 248.457 161.618 247.737 163.161 240.843C163.881 237.242 165.528 234.258 167.071 230.966" stroke="#1D2332" stroke-width="1.0289" stroke-miterlimit="10" stroke-linecap="round" stroke-linejoin="round"/>
<path d="M267.597 268.212C266.979 258.231 263.687 247.634 261.32 237.962" stroke="#1D2332" stroke-width="1.0289" stroke-miterlimit="10" stroke-linecap="round" stroke-linejoin="round"/>
<path d="M230.763 198.967C229.734 198.864 228.705 198.658 227.676 198.658C225.824 198.658 224.075 199.276 222.223 199.584C220.371 199.893 218.313 199.79 216.976 198.555C215.432 197.218 215.535 194.337 216.873 192.896C218.519 191.147 222.017 190.736 224.178 190.221C226.133 189.81 228.088 189.192 229.734 187.958C232.512 185.9 233.849 181.27 237.142 179.932C240.126 178.698 244.962 180.652 245.579 184.048C245.99 186.517 244.344 188.781 242.389 190.427C240.434 191.97 238.274 193.308 236.833 195.263C236.113 196.292 235.702 197.424 234.673 198.144C233.644 199.07 232.203 199.07 230.763 198.967Z" fill="#1D2332"/>
<path d="M243.827 170.981C243.724 169.335 243.415 167.585 242.181 166.557C241.46 165.939 240.534 165.631 239.608 165.322C225.307 161.103 209.976 160.28 195.366 163.161C193.308 163.573 191.147 164.087 189.398 165.219C186.414 167.174 184.871 170.981 185.077 174.582C185.18 178.183 186.723 181.578 188.781 184.562C196.806 196.292 211.725 200.613 225.204 197.012C235.596 194.234 244.444 181.578 243.827 170.981Z" fill="#42C66E"/>
<path d="M210.701 198.658C201.029 198.144 190.432 193.102 187.859 182.916" stroke="#1D2332" stroke-width="1.0289" stroke-miterlimit="10" stroke-linecap="round" stroke-linejoin="round"/>
<path d="M120.255 230.451C119.947 231.686 119.741 233.023 119.741 234.258C119.741 235.287 119.844 236.213 119.638 237.242C119.329 239.094 118.095 240.534 117.066 242.181C115.317 245.062 114.391 248.354 114.391 251.646" stroke="#1D2332" stroke-width="1.0289" stroke-miterlimit="10" stroke-linecap="round" stroke-linejoin="round"/>
<path d="M107.292 208.33C105.955 210.594 103.28 211.725 100.81 212.651C95.2541 214.812 89.3894 217.899 83.7305 219.957" stroke="#1D2332" stroke-width="1.0289" stroke-miterlimit="10" stroke-linecap="round" stroke-linejoin="round"/>
<path d="M85.5825 219.03C85.1709 216.047 84.5536 212.96 83.7305 210.079" stroke="#1D2332" stroke-width="1.0289" stroke-miterlimit="10" stroke-linecap="round" stroke-linejoin="round"/>
<path d="M88.3638 218.104C87.8494 214.915 87.1291 211.828 86.2031 208.741" stroke="#1D2332" stroke-width="1.0289" stroke-miterlimit="10" stroke-linecap="round" stroke-linejoin="round"/>
<path d="M88.3594 207.61C88.668 208.433 88.9767 209.359 89.1825 210.285C89.4912 211.417 89.6969 212.445 89.9027 213.577C90.2114 214.709 90.5201 215.841 90.9316 216.973" stroke="#1D2332" stroke-width="1.0289" stroke-miterlimit="10" stroke-linecap="round" stroke-linejoin="round"/>
<path d="M90.211 206.684C90.1081 206.992 90.3139 207.404 90.5196 207.712C91.9601 210.182 92.1659 213.269 93.2977 215.944" stroke="#1D2332" stroke-width="1.0289" stroke-miterlimit="10" stroke-linecap="round" stroke-linejoin="round"/>
<path d="M94.0195 205.346C95.0484 208.33 96.0773 211.314 97.0033 214.195" stroke="#1D2332" stroke-width="1.0289" stroke-miterlimit="10" stroke-linecap="round" stroke-linejoin="round"/>
<path d="M95.5625 204.626C96.5914 205.963 97.4145 207.507 97.929 209.05C98.4434 210.49 98.7521 212.034 99.3694 213.371" stroke="#1D2332" stroke-width="1.0289" stroke-miterlimit="10" stroke-linecap="round" stroke-linejoin="round"/>
<path d="M98.5469 203.082C99.2671 204.317 100.399 205.243 101.119 206.375C101.428 206.992 101.634 207.61 101.942 208.227C102.354 209.05 103.074 209.873 103.28 210.799C103.28 211.005 103.383 211.314 103.588 211.314" stroke="#1D2332" stroke-width="1.0289" stroke-miterlimit="10" stroke-linecap="round" stroke-linejoin="round"/>
<path d="M100.708 201.848C100.708 201.745 100.605 201.745 100.605 201.848C100.605 201.951 100.605 201.951 100.708 202.053C101.223 202.774 101.84 203.494 102.355 204.214C103.692 206.066 104.927 208.021 105.441 210.285" stroke="#1D2332" stroke-width="1.0289" stroke-miterlimit="10" stroke-linecap="round" stroke-linejoin="round"/>
<path d="M211.008 110.07C215.123 111.202 219.548 112.437 223.766 111.305" stroke="#42C66E" stroke-width="1.0289" stroke-miterlimit="10" stroke-linecap="round" stroke-linejoin="round"/>
<path d="M266.15 358.858C265.327 359.166 264.504 359.372 263.681 359.681C248.762 364.517 233.534 369.455 217.895 370.484C204.931 371.307 192.07 369.455 179.208 367.603C164.495 365.443 150.296 365.237 146.798 348.877C144.843 339.823 144.226 330.563 144.843 321.406C145.152 316.364 145.975 311.117 148.856 306.898C150.605 304.429 152.869 302.474 155.029 300.211C172.315 282.205 164.701 255.762 179.208 238.168C193.099 221.294 216.969 217.281 236.312 226.747C248.556 232.715 259.668 243.415 261.726 257.305C263.99 273.151 263.372 288.584 273.661 302.165C276.234 305.458 279.32 308.442 281.275 312.249C287.243 323.669 287.037 345.688 276.131 354.125C273.044 356.286 269.649 357.726 266.15 358.858Z" fill="#1D2332"/>
<path d="M338.792 269.447H323.461L318.316 240.74H344.553L338.792 269.447Z" fill="#1D2332"/>
<path d="M335.912 249.692C338.484 248.457 341.365 247.634 344.143 247.325C344.863 247.222 345.481 247.428 346.098 247.737C347.642 248.663 347.23 250.309 346.715 251.75L343.938 260.289C343.629 261.318 342.703 261.936 341.674 261.833C337.147 261.524 332.62 261.73 328.195 262.347" stroke="#1D2332" stroke-width="1.0289" stroke-miterlimit="10" stroke-linecap="round" stroke-linejoin="round"/>
<path d="M215.941 225.41L220.983 393.635" stroke="#4F5865" stroke-width="0.51445" stroke-miterlimit="10" stroke-linecap="round" stroke-linejoin="round"/>
<path d="M261.831 355.462C261.111 355.771 260.287 355.977 259.567 356.286C245.883 360.916 231.993 365.546 217.588 366.472C205.756 367.295 193.923 365.546 182.194 363.797C168.715 361.842 155.648 361.533 152.459 346.099C150.71 337.56 150.092 328.814 150.71 320.068C151.018 315.233 151.739 310.294 154.414 306.384C155.957 304.018 158.118 302.165 160.073 300.108C175.918 283.028 168.921 258.129 182.194 241.46C194.849 225.513 216.868 221.706 234.565 230.657C245.78 236.316 255.966 246.399 257.818 259.569C259.876 274.488 259.259 289.098 268.827 301.96C271.194 305.149 273.972 307.927 275.721 311.426C281.174 322.229 281.071 343.116 270.988 351.038C268.21 353.096 265.02 354.331 261.831 355.462Z" stroke="#4F5865" stroke-width="0.51445" stroke-miterlimit="10" stroke-linecap="round" stroke-linejoin="round"/>
<path d="M211.408 41.773C211.408 26.2015 197.9 14.0069 181.953 15.6954C169.008 17.1963 159.253 27.5148 158.69 40.4598C158.315 49.2774 162.067 57.157 168.258 62.2224C172.198 65.4118 174.824 70.102 175.387 75.1674L176.513 85.4859C176.7 87.7372 178.764 89.4257 181.015 89.4257H189.458C191.709 89.4257 193.585 87.7372 193.773 85.4859L194.711 75.1674C195.274 70.102 197.712 65.4118 201.652 62.2224C207.843 57.3446 211.408 50.0278 211.408 41.773Z" fill="#42C66E"/>
<path d="M185.334 92.9904C179.706 92.9904 175.016 88.4878 175.016 82.6719V78.1693L195.653 77.9817V82.4843C195.653 88.3002 191.15 92.8028 185.334 92.9904Z" fill="#1D2332"/>
<path d="M181.21 80.233C179.334 71.603 177.645 62.973 175.394 54.343C174.268 49.8404 167.889 36.3325 178.02 37.8334C180.272 38.2086 182.335 40.0847 182.711 42.5236C182.898 43.6493 182.711 44.9625 181.773 45.9006C181.022 46.8386 179.521 47.2138 178.396 46.4634C177.645 46.0882 177.458 45.1502 177.27 44.3997C176.895 42.336 178.208 40.2723 179.896 38.959C182.148 37.4582 185.15 35.5821 187.776 36.7077C189.277 37.2706 190.403 38.7714 190.965 40.4599C191.341 41.5856 191.716 42.7112 191.341 43.8369C190.965 44.9625 190.027 45.9006 188.902 45.713C187.964 45.5254 187.213 44.7749 187.026 43.8369C186.838 42.8988 187.026 41.9608 187.213 41.2103C187.776 39.1467 189.277 37.4582 191.341 36.7077C193.404 36.1449 195.843 36.8954 196.781 38.7715C197.344 40.0847 197.344 41.5856 197.156 42.8988C196.406 49.4652 194.155 55.4686 193.029 61.8473C191.903 67.8508 190.778 73.6667 189.84 79.6702" stroke="#1D2332" stroke-width="2.0578" stroke-miterlimit="10" stroke-linecap="round" stroke-linejoin="round"/>
<path d="M144.434 35.2068C149.124 35.9572 147.623 35.582 152.501 36.3325" stroke="#1D2332" stroke-width="2.0578" stroke-miterlimit="10" stroke-linecap="round" stroke-linejoin="round"/>
<path d="M151.562 15.5078L157.754 21.1361" stroke="#1D2332" stroke-width="2.0578" stroke-miterlimit="10" stroke-linecap="round" stroke-linejoin="round"/>
<path d="M177.074 2.75061C177.449 4.81431 177.825 8.19127 178.2 10.255" stroke="#1D2332" stroke-width="2.0578" stroke-miterlimit="10" stroke-linecap="round" stroke-linejoin="round"/>
<path d="M194.333 2.00012C193.77 6.50273 193.395 9.50448 193.02 11.193" stroke="#1D2332" stroke-width="2.0578" stroke-miterlimit="10" stroke-linecap="round" stroke-linejoin="round"/>
<path d="M219.29 19.8229C215.162 22.637 215.538 22.4494 211.223 25.4511" stroke="#1D2332" stroke-width="2.0578" stroke-miterlimit="10" stroke-linecap="round" stroke-linejoin="round"/>
<path d="M217.602 38.0209C222.479 38.3961 221.354 38.2085 226.232 38.5837" stroke="#1D2332" stroke-width="2.0578" stroke-miterlimit="10" stroke-linecap="round" stroke-linejoin="round"/>
</svg>
