<svg width="343" height="346" viewBox="0 0 343 346" fill="none" xmlns="http://www.w3.org/2000/svg">
<path d="M309.75 406L413 228.501L309.75 51H103.25L0 228.501L103.25 406H309.75Z" fill="#E3E3E3"/>
<path d="M323 142.361C323 116.274 308.752 65.1166 261.128 67.479C250.791 16.0552 228.935 1.0157 190.034 0.633062C152.049 0.267056 145.058 30.4625 142.128 29.1649C101.246 10.8979 58.0505 51.5412 66.3401 99.4713C45.1168 102 33.8477 123.694 33.8477 149.265C33.8477 149.381 33.8477 149.498 33.8477 149.614C33.9475 166.334 45.6328 179.776 59.8816 179.776H290.941C308.169 179.776 322.534 163.822 322.984 143.625C322.984 143.192 323 142.776 323 142.361Z" fill="#42C66E"/>
<path d="M231.835 144.431L206.739 132.121C186.329 122.099 167.286 109.522 150.052 94.6577L148.828 87.0303C148.828 87.0303 140.326 87.119 138.498 87.0125C136.173 86.8884 133.813 87.6866 132.02 89.4427C113.332 107.749 92.0521 123.181 68.8556 135.278L52.4565 143.828C48.6407 145.815 47.2386 149.327 48.3922 154.365L69.8317 244.901C79.1671 270.231 116.757 304.111 137.913 321.76C141.764 324.971 146.467 326.532 151.153 326.514C153.229 326.496 161.837 326.78 161.837 326.78C161.837 326.78 163.665 323.162 166.061 320.714C185.069 301.397 218.435 264.235 225.197 234.967L236.414 154.045C237.301 150.161 235.402 146.17 231.835 144.431Z" fill="white"/>
<path d="M241.348 144.91L216.447 132.688C196.179 122.755 177.278 110.267 160.187 95.5269L153.78 89.9925C150.443 87.1189 145.456 87.2786 142.297 90.3473C123.75 108.511 102.63 123.837 79.6287 135.828L63.3539 144.325C59.5735 146.294 57.852 150.764 59.3251 154.773L80.6048 244.599C89.8693 269.734 127.566 303.667 148.562 321.175C156.69 327.951 168.652 327.348 176.089 319.809C194.955 300.652 228.055 263.774 234.763 234.737L245.909 154.453C246.761 150.586 244.88 146.648 241.348 144.91Z" fill="white"/>
<path d="M226.049 155.589L205.426 145.478C188.654 137.247 173 126.906 158.855 114.702L153.549 110.125C150.78 107.749 146.663 107.873 144.054 110.427C128.684 125.434 111.202 138.116 92.1587 148.05L78.6702 155.092C75.5466 156.724 74.109 160.431 75.3336 163.748L92.9573 238.125C100.624 258.932 131.843 287.029 149.218 301.521C155.945 307.126 165.848 306.63 172.007 300.386C187.625 284.528 215.028 253.983 220.583 229.947L229.812 163.464C230.539 160.289 228.977 157.025 226.049 155.589Z" fill="#4F5865"/>
<path d="M138.194 177.265L138.566 153.442C138.744 145.744 144.849 139.447 152.534 139.092C161.017 138.702 168.063 145.637 167.85 154.116L167.673 161.513C167.62 164.085 169.749 166.178 172.323 166.072C174.701 165.983 176.582 164.05 176.618 161.673L176.724 154.648C177.044 141.026 166.129 129.833 152.055 130.4V130.418C140.43 130.897 129.781 141.114 129.497 153.566L129.195 177.62L138.194 177.265Z" fill="white"/>
<path d="M129.215 178.223C129.055 178.223 128.913 178.169 128.806 178.063C128.682 177.957 128.629 177.797 128.629 177.637L128.931 153.584C129.215 141.256 139.739 130.418 151.932 129.868C151.967 129.85 152.003 129.85 152.056 129.85C158.907 129.567 165.332 132.014 170.106 136.697C174.933 141.433 177.489 147.819 177.329 154.684L177.223 161.691C177.187 164.369 175.057 166.551 172.378 166.675C170.975 166.728 169.627 166.214 168.633 165.238C167.621 164.245 167.089 162.932 167.124 161.513L167.302 154.116C167.39 150.214 165.846 146.418 163.042 143.686C160.22 140.937 156.511 139.518 152.589 139.695C145.241 140.032 139.349 146.081 139.171 153.478L138.798 177.3C138.798 177.62 138.55 177.868 138.231 177.886L129.25 178.258C129.232 178.223 129.232 178.223 129.215 178.223ZM152.216 131.003C152.18 131.021 152.145 131.021 152.109 131.021C140.467 131.5 130.386 141.824 130.12 153.602L129.836 177.034L137.645 176.715L138.018 153.442C138.195 145.442 144.584 138.879 152.553 138.507C156.813 138.312 160.824 139.855 163.876 142.835C166.911 145.797 168.579 149.912 168.491 154.134L168.313 161.531C168.296 162.613 168.704 163.624 169.467 164.387C170.248 165.15 171.259 165.54 172.342 165.504C174.401 165.416 176.034 163.748 176.069 161.691L176.176 154.666C176.335 148.121 173.886 142.037 169.307 137.531C164.764 133.079 158.694 130.773 152.216 131.003Z" fill="#1D2332"/>
<path d="M148.154 242.772L158.217 243.162C172.131 242.808 184.448 226.187 183.135 206.639L181.023 175.367L121.851 174.888C116.598 174.87 112.196 179.553 112.569 184.786L114.397 211.198C115.568 228.972 130.335 242.772 148.154 242.772Z" fill="#42C66E"/>
<path d="M157.86 242.275C177.472 242.275 192.966 225.69 191.652 206.143L190.5 184.5L189 177.5L185.5 175.846H127.014C124.139 175.846 121.867 178.276 122.045 181.149L124.05 210.719C125.257 228.493 140.041 242.275 157.86 242.275Z" fill="white"/>
<path d="M157.862 242.879C139.812 242.879 124.709 228.777 123.484 210.772L121.479 181.043C121.372 179.535 121.887 178.098 122.916 176.981C123.946 175.881 125.348 175.26 126.874 175.26H184.697C187.749 175.26 190.305 177.655 190.518 180.688L190.802 184.839C190.82 185.158 190.571 185.442 190.252 185.46C189.915 185.495 189.648 185.229 189.631 184.91L189.347 180.759C189.187 178.329 187.146 176.413 184.697 176.413H126.874C125.685 176.413 124.584 176.892 123.768 177.761C122.952 178.631 122.561 179.766 122.632 180.937L124.638 210.666C125.809 228.067 140.398 241.69 157.844 241.69C174.261 241.69 188.424 229.468 190.784 213.256C190.837 212.936 191.139 212.706 191.441 212.759C191.76 212.812 191.991 213.096 191.938 213.415C190.766 221.486 186.702 228.919 180.526 234.329C174.261 239.845 166.203 242.879 157.862 242.879Z" fill="#1D2332"/>
<path d="M158.625 223.1C160.223 223.1 161.483 221.752 161.394 220.156L159.886 196.599C159.797 195.145 158.59 194.01 157.117 194.01C155.52 194.01 154.259 195.358 154.348 196.954L155.857 220.528C155.963 221.965 157.17 223.1 158.625 223.1Z" fill="#1D2332"/>
<path d="M160.01 208.638C165.486 207.346 168.877 201.862 167.584 196.389C166.291 190.917 160.804 187.528 155.328 188.82C149.853 190.112 146.462 195.596 147.755 201.069C149.048 206.541 154.535 209.93 160.01 208.638Z" fill="#1D2332"/>
<path d="M196.288 133.022C196.288 133.022 193.553 142.395 234.408 144.689C275.263 146.983 268.425 135.365 268.425 135.365L225.544 122.869L196.288 133.022Z" fill="#1D2332"/>
<path d="M242.836 279.391C241.737 279.342 246.572 303.651 246.572 303.651L236.218 304.871L230.602 277.511L242.836 279.391Z" fill="white"/>
<path d="M236.241 305.677C235.85 305.677 235.533 305.408 235.46 305.042L229.843 277.682C229.794 277.414 229.867 277.145 230.038 276.974C230.209 276.779 230.478 276.682 230.747 276.73L242.981 278.585C243.396 278.658 243.714 279.025 243.665 279.464C243.64 279.61 243.592 279.757 243.518 279.879C243.347 281.709 245.374 293.254 247.401 303.505C247.45 303.724 247.401 303.944 247.255 304.139C247.132 304.31 246.913 304.432 246.693 304.457L236.339 305.677C236.29 305.677 236.265 305.677 236.241 305.677ZM231.626 278.488L236.876 303.968L245.618 302.919C245.252 301.088 244.373 296.549 243.567 292.009C242.224 284.467 241.858 281.392 241.882 280.025L231.626 278.488Z" fill="#1D2332"/>
<path d="M251.185 312.218C250.306 306.995 248.963 299.966 247.815 298.526C245.959 296.207 240.928 301.284 240.928 301.284C240.928 301.284 238.633 293.766 233.651 294.767C229.915 295.524 217.314 304.652 210.672 311.925C208.498 314.293 210.208 318.124 213.431 318.124H246.179C249.329 318.124 251.698 315.318 251.185 312.218Z" fill="#42C66E"/>
<path d="M247.814 313.292H215.286C214.847 313.292 214.48 312.926 214.48 312.486C214.48 312.047 214.847 311.681 215.286 311.681H247.814C248.254 311.681 248.62 312.047 248.62 312.486C248.62 312.926 248.254 313.292 247.814 313.292Z" fill="white"/>
<path d="M286.039 281.075L297.858 304.53L304.476 303.846L298.591 278.732L286.039 281.075Z" fill="white"/>
<path d="M297.859 305.335C297.566 305.335 297.273 305.164 297.127 304.896L285.283 281.441C285.161 281.221 285.161 280.953 285.283 280.709C285.405 280.489 285.6 280.318 285.869 280.269L298.445 277.926C298.885 277.853 299.276 278.121 299.373 278.536L305.259 303.651C305.308 303.871 305.259 304.115 305.137 304.31C304.99 304.505 304.795 304.627 304.551 304.652L297.933 305.335C297.908 305.335 297.884 305.335 297.859 305.335ZM287.237 281.66L298.348 303.651L303.5 303.114L298.006 279.635L287.237 281.66Z" fill="#1D2332"/>
<path d="M298.809 301.039C298.809 301.039 302.179 295.914 307.673 299.819C307.673 299.819 315.732 317.88 317.368 331.841C317.832 335.795 313.363 338.431 310.115 336.161C302.496 330.84 290.897 320.467 286.184 304.432C286.184 304.432 289.627 298.843 293.876 296.768L298.809 301.039Z" fill="#42C66E"/>
<path d="M314.44 333.574H314.415C313.878 333.549 300.911 332.744 288.139 305.75C287.944 305.335 288.115 304.871 288.53 304.676C288.945 304.481 289.409 304.652 289.604 305.067C301.961 331.182 314.367 331.963 314.489 331.963C314.928 331.987 315.27 332.353 315.27 332.793C315.221 333.232 314.879 333.574 314.44 333.574Z" fill="white"/>
<path d="M283.887 285.004L303.741 284.345L276.659 177.37C272.312 160.236 265.279 143.908 255.804 128.995L214.314 128.971C214.314 128.971 199.003 187.377 227.062 283.466H247.819C247.819 283.466 239.736 195.797 240.395 170.585C240.395 170.56 259.907 242.585 283.887 285.004Z" fill="#1D2332"/>
<path d="M242.218 180C241.889 180 241.559 179.784 241.465 179.481L234.531 156.796L229.547 155.39C229.148 155.282 228.913 154.871 229.03 154.504C229.148 154.136 229.594 153.92 229.994 154.028L235.401 155.542C235.659 155.607 235.847 155.801 235.918 156.039L243 179.5C243 180 242.852 179.87 242.429 179.978C242.359 180 242.288 180 242.218 180Z" fill="white"/>
<path d="M136.017 59.9236L151.353 68.1975C151.353 68.1975 160.755 92.7021 174.21 94.1665C187.666 95.6309 200.975 77.0328 200.975 77.0328L209.912 96.1434C209.912 96.1434 196.799 116.401 175.993 113.155C155.187 109.885 149.521 78.6681 149.521 78.6681C149.521 78.6925 144.588 79.1562 142.732 74.3481C141.145 70.2721 141.804 67.8558 141.804 67.8558C141.804 67.8558 134.429 63.9019 136.017 59.9236Z" fill="white"/>
<path d="M180.462 114.302C178.972 114.302 177.434 114.18 175.871 113.936C156.237 110.861 149.863 84.2572 148.862 79.4735C148.642 79.4735 148.398 79.4491 148.129 79.4003C146.444 79.1806 143.416 78.2775 142 74.6165C140.803 71.5168 140.828 69.2958 140.95 68.2463C139.192 67.1968 133.697 63.5602 135.284 59.6063C135.358 59.3866 135.553 59.2158 135.748 59.1426C135.968 59.0693 136.212 59.0937 136.408 59.1914L151.744 67.4653C151.915 67.5629 152.037 67.7094 152.11 67.8802C152.208 68.1243 161.487 91.9454 174.308 93.3366C187.129 94.7522 200.193 76.7155 200.34 76.5447C200.511 76.3006 200.779 76.1786 201.073 76.203C201.366 76.2274 201.61 76.3982 201.732 76.6667L210.67 95.7773C210.792 96.0214 210.767 96.3143 210.621 96.5583C210.45 96.778 198.875 114.302 180.462 114.302ZM149.521 77.8382C149.57 77.8382 149.619 77.8382 149.644 77.8382C149.985 77.887 150.254 78.1555 150.303 78.4972C150.352 78.8145 156.115 109.201 176.091 112.325C194.626 115.23 207.055 98.7305 208.96 96.0458L200.804 78.5704C197.654 82.622 186.103 96.241 174.113 94.9475C160.95 93.5075 151.841 71.6389 150.694 68.7345L136.603 61.1195C136.701 63.5846 140.535 66.1961 142.195 67.0992C142.537 67.27 142.684 67.6606 142.586 68.0267C142.586 68.0511 142.024 70.2721 143.49 74.0063C145.053 78.0579 149.106 77.8382 149.375 77.8138C149.424 77.8382 149.473 77.8382 149.521 77.8382Z" fill="#1D2332"/>
<path d="M149.963 76.862C149.889 76.862 149.792 76.862 149.718 76.8376C149.572 76.7888 146.348 75.7637 145.958 72.9081C145.811 71.8342 145.176 71.0044 144.639 70.4918C143.784 69.6376 143.32 68.5149 143.32 67.3189V66.7332C143.32 66.4647 143.442 66.2206 143.687 66.0742C143.906 65.9277 144.199 65.9033 144.444 66.001L149.621 68.0511C150.036 68.222 150.231 68.6857 150.06 69.1006C149.889 69.5156 149.425 69.7108 149.01 69.54L145.005 67.9535C145.127 68.4905 145.396 68.9786 145.787 69.3691C146.471 70.0525 147.35 71.1996 147.545 72.7129C147.814 74.5678 150.158 75.3244 150.182 75.3244C150.598 75.4464 150.842 75.9102 150.72 76.3251C150.622 76.618 150.305 76.862 149.963 76.862Z" fill="#1D2332"/>
<path d="M253.434 97.2664C253.434 97.2664 262.884 118.525 278.318 122.869C293.727 127.214 304.472 114.083 304.399 100.537L299.148 98.8041C299.148 98.8041 293.776 112.692 281.761 109.079C269.771 105.467 264.203 77.2284 264.203 77.2284L253.434 97.2664Z" fill="white"/>
<path d="M284.254 124.553C282.374 124.553 280.323 124.285 278.1 123.675C262.496 119.281 253.094 98.5112 252.703 97.6325C252.606 97.4129 252.606 97.1444 252.728 96.9247L263.521 76.8867C263.692 76.5938 264.01 76.423 264.352 76.4718C264.694 76.5206 264.962 76.7891 265.035 77.1063C265.084 77.3748 270.652 104.906 282.032 108.347C293.168 111.691 298.223 99.097 298.418 98.56C298.564 98.1695 299.004 97.9498 299.419 98.0963L304.67 99.8292C304.987 99.9268 305.231 100.244 305.231 100.586C305.28 108.542 301.69 116.206 295.903 120.624C293.29 122.552 289.407 124.553 284.254 124.553ZM254.339 97.2909C255.658 100.073 264.742 118.208 278.54 122.088C286.183 124.236 291.678 121.747 294.901 119.281C300.152 115.279 303.449 108.372 303.595 101.123L299.615 99.8048C298.271 102.685 292.508 113.155 281.568 109.86C271.092 106.712 265.499 86.3077 263.912 79.547L254.339 97.2909Z" fill="#1D2332"/>
<path d="M196.297 76.7646C196.297 76.7646 205.772 64.3903 232.561 66.709C264.551 69.467 266.993 75.7883 266.993 75.7883L258.642 92.7023L268.434 135.39C268.434 135.39 261.743 140.93 246.065 137.831C230.388 134.731 203.428 130.899 196.297 133.047L206.236 92.3118L196.297 76.7646Z" fill="#4F5865"/>
<path d="M299.146 116.743H257.949L284.958 67.8312H326.179L299.146 116.743Z" fill="#42C66E"/>
<path d="M299.148 117.548H257.926C257.633 117.548 257.365 117.402 257.243 117.158C257.096 116.914 257.096 116.596 257.243 116.352L284.276 67.4408C284.422 67.1723 284.691 67.0259 284.984 67.0259H326.205C326.498 67.0259 326.767 67.1723 326.889 67.4164C327.036 67.6605 327.036 67.9777 326.889 68.2218L299.856 117.133C299.709 117.402 299.441 117.548 299.148 117.548ZM259.318 115.937H298.684L324.813 68.6367H285.448L259.318 115.937Z" fill="#1D2332"/>
<path d="M300.089 115.205C300.089 115.205 299.308 111.154 300.089 108.445C300.871 105.735 305.657 97.6811 307.049 95.997C308.417 94.3129 309.565 112.301 300.089 115.205Z" fill="white"/>
<path d="M300.095 116.011C299.949 116.011 299.802 115.962 299.68 115.889C299.485 115.767 299.338 115.571 299.314 115.352C299.289 115.181 298.508 111.08 299.338 108.225C300.12 105.467 304.979 97.2905 306.444 95.5088C306.811 95.0695 307.275 95.0451 307.592 95.1671C308.691 95.582 308.862 98.34 308.789 100.585C308.593 106.834 306.298 114.18 300.364 115.986C300.266 116.011 300.168 116.011 300.095 116.011ZM307.006 97.437C305.175 100.122 301.512 106.443 300.877 108.664C300.388 110.397 300.584 112.789 300.755 114.107C302.952 113.106 304.637 111.056 305.785 108.005C307.299 103.856 307.275 99.3895 307.006 97.437Z" fill="#1D2332"/>
<path d="M155.485 28.4388C150.283 31.6117 149.478 37.6402 149.404 38.1527C148.598 45.0111 153.458 52.0891 158.806 53.163C163.373 54.066 164.936 49.8924 170.65 50.1853C177.024 50.4782 177.659 55.7989 183.739 57.1169C192.701 59.0938 196.364 48.6721 206.67 49.3799C214.606 49.9413 215.632 56.3358 224.277 56.4335C225.254 56.4335 232.995 56.3847 238.147 50.405C243.325 44.4009 243.447 35.2727 239.613 29.1954C239.222 28.5608 234.997 22.0686 229.429 22.2394C225.937 22.337 225.229 24.9486 221.908 24.8998C216.78 24.8021 215.754 18.554 211.261 18.3099C206.059 18.017 204.911 26.2177 197.927 27.3649C192.653 28.2435 191.163 23.9235 185.497 24.9242C179.637 25.9493 179.344 30.9283 174.362 31.0747C169.6 31.2212 168.281 26.7303 162.103 26.6815C160.809 26.6327 158.122 26.8279 155.485 28.4388Z" fill="#1D2332"/>
<path d="M249.55 52.9434C249.916 52.382 248.207 49.3312 248.158 48.2084C248.109 47.0857 248.964 46.1583 249.33 45.0112C249.697 43.8396 249.281 41.765 249.281 41.765C248.793 27.8531 233.628 31.148 233.628 31.148C230.136 32.1975 228.085 36.1026 227.425 38.7142C226.131 43.742 228.524 49.8437 228.524 49.8437C228.427 50.0634 225.936 66.3672 225.814 66.5868C224.226 69.6133 234.8 71.5903 238.121 68.5394C239.245 67.5143 237.804 59.9482 238.121 59.9238C239.367 59.8993 240.881 61.2173 242.468 60.8024C244.788 60.1922 246.522 54.4078 246.839 53.9685C246.986 53.7732 247.523 53.6512 248.085 53.5292C248.72 53.3827 249.379 53.2363 249.55 52.9434Z" fill="white"/>
<path d="M232.8 70.8581C230.113 70.8581 227.354 70.1503 225.986 69.1008C224.936 68.2953 224.619 67.2703 225.083 66.294C225.205 65.635 225.913 61.2173 226.475 57.6539C227.305 52.3088 227.598 50.5515 227.72 49.9169C227.281 48.721 225.449 43.2539 226.67 38.5189C227.305 36.0538 229.43 31.5874 233.435 30.3914C233.459 30.3914 233.483 30.3914 233.508 30.367C233.825 30.2938 241.151 28.7562 246.035 32.5392C248.6 34.5406 249.992 37.6159 250.138 41.6674C250.211 42.0823 250.529 44.0105 250.138 45.2308C249.967 45.7434 249.747 46.2071 249.528 46.622C249.235 47.2078 248.966 47.6959 248.99 48.1597C249.015 48.5258 249.381 49.4288 249.674 50.161C250.358 51.8695 250.675 52.7237 250.26 53.3583C249.894 53.9441 249.088 54.1149 248.307 54.3102C248.013 54.3834 247.672 54.4566 247.501 54.5299C247.427 54.6763 247.33 54.9692 247.232 55.2132C246.426 57.239 244.912 60.9977 242.714 61.5835C241.542 61.9007 240.443 61.4614 239.564 61.1197C239.369 61.0465 239.173 60.9733 239.002 60.9C239.027 61.1929 239.076 61.5346 239.1 61.8763C239.564 66.1475 239.613 68.3197 238.734 69.1252C237.342 70.3455 235.095 70.8581 232.8 70.8581ZM229.308 50.0634C229.21 50.4783 228.599 54.4078 228.062 57.898C226.67 66.7333 226.67 66.7577 226.548 66.953C226.475 67.0994 226.328 67.3679 226.963 67.8316C228.99 69.3937 235.364 70.0038 237.61 67.9292C238.026 67.2947 237.61 63.4872 237.464 62.0228C237.244 60.0458 237.22 59.7285 237.537 59.3868C237.684 59.216 237.904 59.1183 238.148 59.0939C238.832 59.0695 239.491 59.338 240.15 59.5821C240.907 59.875 241.64 60.1678 242.299 59.997C243.716 59.6309 245.181 55.9699 245.742 54.5787C246.035 53.8709 246.133 53.6268 246.255 53.4559C246.597 53.0166 247.183 52.8946 247.916 52.7237C248.16 52.6749 248.575 52.5773 248.795 52.4797C248.697 52.0647 248.38 51.2593 248.16 50.7468C247.769 49.7705 247.403 48.8675 247.379 48.2329C247.33 47.3298 247.72 46.5732 248.087 45.8654C248.282 45.4749 248.477 45.1088 248.6 44.7427C248.844 43.9617 248.624 42.3752 248.526 41.8871C248.526 41.8383 248.502 41.8139 248.502 41.765C248.38 38.1772 247.208 35.4925 245.034 33.784C240.907 30.5623 234.338 31.807 233.85 31.9047C230.577 32.9297 228.77 36.7616 228.233 38.885C227.012 43.5956 229.283 49.4532 229.308 49.502C229.356 49.6973 229.356 49.8925 229.308 50.0634Z" fill="#1D2332"/>
<path d="M255.634 32.0753C254.119 30.5376 252.557 32.0753 246.5 31.221C241.47 30.5132 240.005 29.0976 236.195 29.7322C235.121 29.9031 233.216 30.2203 231.311 31.6115C228.503 33.6617 227.477 36.5417 226.915 38.6895C225.841 42.8875 227.184 47.7689 227.794 49.5994C227.941 50.0631 228.381 50.3316 228.869 50.3072C230.139 50.2096 231.262 50.0387 232.263 49.8191C232.752 49.7215 233.02 49.2089 232.825 48.7696C232.776 48.6476 232.727 48.5255 232.703 48.3791C232.19 46.6218 233.045 44.8157 234.583 44.3763C236.122 43.937 237.782 45.0109 238.295 46.7682C238.32 46.8903 238.368 47.0123 238.368 47.1343C240.591 45.4502 241.738 43.5465 243.79 42.5214C244.034 42.3994 245.108 41.9112 246.769 41.838C250.334 41.716 251.531 43.8394 253.216 43.4245C256.22 42.6923 258.393 34.8332 255.634 32.0753Z" fill="#1D2332"/>
<path d="M238.511 60.7291C238.438 60.7291 238.34 60.7291 238.267 60.6803C232.65 58.923 231.795 55.1644 231.747 55.0179C231.649 54.5786 231.918 54.1637 232.357 54.066C232.797 53.9684 233.212 54.2369 233.309 54.6762C233.334 54.8226 234.091 57.6783 238.731 59.1427C239.146 59.2647 239.39 59.7284 239.268 60.1434C239.17 60.5095 238.853 60.7291 238.511 60.7291Z" fill="#1D2332"/>
</svg>
