<svg width="355" height="360" viewBox="0 0 355 360" fill="none" xmlns="http://www.w3.org/2000/svg">
<path d="M322.5 439L430 253.501L322.5 68H107.5L0 253.501L107.5 439H322.5Z" fill="#E3E3E3"/>
<g opacity="0.7">
<path d="M332.657 190.569L331.657 187.197C336.029 183.075 339.527 178.953 341.9 175.205L342.899 178.578C340.526 182.45 337.153 186.447 332.657 190.569ZM330.158 182.2L329.159 178.828C335.904 172.457 340.276 166.462 342.275 160.966L343.274 164.338C341.4 169.834 336.904 175.83 330.158 182.2ZM301.054 214.677L294.684 193.317C296.682 192.193 298.556 191.069 300.43 189.945L306.8 211.304C304.926 212.304 303.053 213.428 301.054 214.677ZM327.66 173.831L326.661 170.459C335.53 162.09 340.401 154.345 340.901 147.725L341.9 151.098C341.4 157.718 336.529 165.462 327.66 173.831ZM291.936 219.673L283.692 192.193C285.815 191.069 287.939 189.945 289.937 188.696L298.181 216.176C296.183 217.425 294.059 218.549 291.936 219.673ZM325.162 165.337L324.163 161.965C330.283 156.219 334.53 150.723 336.654 145.726L337.653 149.099C335.53 154.095 331.283 159.592 325.162 165.337ZM316.918 204.559L307.55 173.207C309.173 172.083 310.672 170.958 312.171 169.834L321.54 201.187C320.041 202.436 318.542 203.435 316.918 204.559ZM323.538 199.813L312.296 162.34C313.67 161.215 315.044 160.091 316.418 159.092L327.66 196.565C326.286 197.564 324.912 198.688 323.538 199.813ZM322.664 156.968L321.664 153.596C329.784 145.976 334.53 138.856 335.654 132.611L336.654 135.983C335.53 142.229 330.783 149.349 322.664 156.968ZM309.423 209.556L297.182 168.46C298.931 167.336 300.68 166.212 302.428 165.088L314.669 206.183C312.921 207.307 311.172 208.431 309.423 209.556ZM350.144 175.08L331.532 113L331.657 113.375C331.532 120.994 328.909 128.489 324.038 134.36C312.296 148.474 287.814 164.838 252.714 180.826C248.717 182.575 244.72 184.324 240.723 186.072L259.334 248.153C263.456 246.404 267.453 244.655 271.326 242.907C297.682 230.915 317.917 218.799 331.407 207.557L329.534 201.436C336.654 195.441 341.9 189.695 345.148 184.324L347.021 190.444C350.394 184.698 351.518 179.577 350.144 175.08Z" fill="white"/>
<path d="M345.27 184.199C342.022 189.57 336.776 195.316 329.656 201.311L331.53 207.432L339.025 232.414C346.144 226.418 351.391 220.673 354.638 215.301L347.144 190.319L345.27 184.199Z" fill="white"/>
<path d="M290.058 188.82C288.059 189.945 285.936 191.069 283.812 192.318L292.057 219.798C294.18 218.674 296.303 217.55 298.302 216.301L290.058 188.82Z" fill="#42C66E"/>
<path d="M300.426 189.82C298.552 190.944 296.678 192.068 294.68 193.192L301.05 214.552C303.049 213.428 304.922 212.304 306.796 211.179L300.426 189.82Z" fill="#42C66E"/>
<path d="M302.297 165.213C300.673 166.337 298.924 167.461 297.051 168.585L309.292 209.681C311.041 208.556 312.789 207.432 314.538 206.308L302.297 165.213Z" fill="#42C66E"/>
<path d="M312.168 169.834C310.67 170.958 309.171 172.083 307.547 173.207L316.915 204.559C318.539 203.435 320.038 202.311 321.537 201.187L312.168 169.834Z" fill="#42C66E"/>
<path d="M316.415 159.092C315.166 160.216 313.792 161.215 312.293 162.34L323.535 199.813C324.909 198.688 326.283 197.564 327.657 196.565L316.415 159.092Z" fill="#42C66E"/>
<path d="M335.654 132.611C334.405 138.856 329.658 145.976 321.664 153.596L322.663 156.968C330.782 149.349 335.529 142.229 336.653 135.983L335.654 132.611Z" fill="#42C66E"/>
<path d="M336.651 145.726C334.403 150.723 330.281 156.219 324.16 161.965L325.159 165.337C331.28 159.591 335.527 154.095 337.65 149.099L336.651 145.726Z" fill="#42C66E"/>
<path d="M340.896 147.6C340.396 154.22 335.525 161.965 326.656 170.334L327.656 173.706C336.524 165.337 341.396 157.593 341.895 150.973L340.896 147.6Z" fill="#42C66E"/>
<path d="M342.272 160.966C340.273 166.462 335.901 172.457 329.156 178.828L330.156 182.2C336.901 175.83 341.273 169.834 343.271 164.338L342.272 160.966Z" fill="#42C66E"/>
<path d="M341.899 175.205C339.526 179.078 336.028 183.075 331.656 187.197L332.656 190.569C337.027 186.447 340.525 182.325 342.898 178.578L341.899 175.205Z" fill="#42C66E"/>
<path d="M65.4695 239.659C52.7286 239.784 41.4867 238.91 32.3683 236.786C28.8708 236.037 25.748 235.037 23 233.913L24.8737 240.159C24.2491 239.909 23.6246 239.659 23 239.284L33.4924 274.634C36.6152 276.133 40.3625 277.382 44.7344 278.381C51.1048 279.88 58.4745 280.755 66.5937 281.004C58.4745 280.63 51.1048 279.755 44.7344 278.381C40.3625 277.382 36.6152 276.133 33.4924 274.634L31.7437 268.888C32.9928 269.887 33.3676 269.887 33.7423 270.012C34.117 268.264 34.3668 267.389 31.369 255.398C28.6209 244.655 28.1213 241.783 28.9957 240.034C31.4939 239.784 33.3675 244.905 37.1148 256.522C40.8621 268.388 42.6109 273.135 45.234 272.76C45.9835 271.511 46.1084 270.262 44.2347 261.643C42.486 253.524 42.3611 251.9 43.1106 250.401C45.3589 249.902 46.8579 253.399 49.9806 262.393C53.1034 271.386 54.7272 275.134 56.9756 274.259C57.8499 272.261 57.6001 270.512 55.4767 260.269C50.9799 238.16 58.2247 245.905 61.5972 254.149C63.5958 259.02 65.0947 264.017 67.2182 268.888C69.4666 268.888 71.8399 268.888 74.2132 268.888L65.4695 239.659Z" fill="white"/>
<path d="M29.7438 240.034C29.494 240.034 29.2442 240.034 29.1193 240.159C28.2449 241.782 28.7445 244.78 31.4926 255.522C33.9908 265.39 34.2406 267.639 34.1157 270.012C33.9908 270.012 33.9908 270.137 33.8659 270.137C33.616 270.137 33.1164 270.012 31.8673 269.013L33.6161 274.759C36.7388 276.258 40.4861 277.507 44.858 278.506C51.2284 280.005 58.5981 280.879 66.7173 281.129L63.0949 269.013C64.4689 269.013 65.9678 269.138 67.3418 269.138C64.5938 262.767 63.2198 255.897 59.5974 249.902C55.8501 243.781 54.2262 247.403 54.2262 247.528C53.3519 249.777 54.8508 256.897 55.6003 260.644C57.7237 270.886 57.8486 272.76 57.0992 274.634C54.8508 275.508 53.2269 271.636 50.1042 262.767C46.9814 253.774 45.4825 250.151 43.2341 250.776C42.4847 252.275 42.6096 253.774 44.3583 262.018C46.232 270.637 46.1071 271.886 45.3576 273.135C42.8594 273.51 40.9858 268.763 37.2385 256.897C34.7402 249.277 31.8673 240.283 29.7438 240.034Z" fill="#42C66E"/>
<path d="M151.533 207.057C150.408 207.307 149.159 207.682 148.035 207.932L158.528 243.157C159.652 242.907 160.776 242.657 162.025 242.282L151.533 207.057Z" fill="#42C66E"/>
<path d="M162.779 213.178C161.655 213.428 160.405 213.802 159.281 214.052L167.275 241.033C168.4 240.783 169.649 240.408 170.773 240.159L162.779 213.178Z" fill="#42C66E"/>
<path d="M167.896 198.813C166.772 199.188 165.523 199.438 164.398 199.813L176.015 238.785C177.139 238.41 178.388 238.16 179.513 237.785L167.896 198.813Z" fill="#42C66E"/>
<path d="M175.392 191.693C174.268 192.068 173.019 192.318 171.895 192.693L184.885 236.162C186.009 235.787 187.259 235.537 188.383 235.162L175.392 191.693Z" fill="#42C66E"/>
<path d="M191.505 214.052C190.381 214.427 189.132 214.802 188.008 215.177L193.504 233.663C194.628 233.289 195.877 232.914 197.001 232.539L191.505 214.052Z" fill="#42C66E"/>
<path d="M194.751 192.693C193.627 193.068 192.378 193.442 191.254 193.817L202.371 230.915C203.495 230.541 204.744 230.166 205.868 229.791L194.751 192.693Z" fill="#42C66E"/>
<path d="M206.24 199.063C205.115 199.438 203.866 199.813 202.742 200.187L210.986 227.917C212.11 227.543 213.36 227.168 214.484 226.793L206.24 199.063Z" fill="#42C66E"/>
<path d="M220.732 215.801C219.608 216.176 218.483 216.676 217.234 217.05L219.608 225.044C220.732 224.67 221.856 224.17 223.105 223.795L220.732 215.801Z" fill="#42C66E"/>
<path d="M83.0793 268.763C80.0815 268.888 77.0836 269.013 74.2107 269.013C71.8374 269.013 69.4641 269.013 67.2157 269.013C65.7168 269.013 64.3428 268.888 62.9688 268.888L66.5911 281.004L68.3399 286.875C71.3377 287 74.3356 287 77.4583 287L75.5847 280.754C79.0822 280.754 82.8295 280.629 86.5768 280.505L83.0793 268.763Z" fill="white"/>
</g>
<path d="M237.007 78.4085C119.414 74.1487 163.693 39.0613 117.284 36.5951C35.0022 32.2232 25.4737 -7.57236 35.0022 -22.818" stroke="#4F5865" stroke-width="2.11683" stroke-miterlimit="10" stroke-linecap="round"/>
<path d="M216.607 182.325C191.496 204.521 173.56 180.98 171.206 168.649C168.852 156.318 151.364 165.622 140.379 150.825C129.393 136.14 138.361 117.307 148.562 111.702C158.875 106.097 161.902 104.64 163.247 89.1701C163.359 87.3765 163.695 85.695 164.256 84.2377C168.067 72.8034 181.407 69.2162 188.357 68.992C196.205 68.6557 198.671 53.9706 214.813 55.9884C230.956 58.0062 231.74 69.3283 231.74 69.3283C232.189 69.5525 232.525 69.7767 232.861 70.113C238.13 74.8212 239.924 89.8427 235.215 98.3623C235.215 98.3623 223.893 96.2324 233.87 105.873C243.847 115.626 241.829 160.13 216.607 182.325Z" fill="#1D2332"/>
<path opacity="0.28" d="M216.607 182.325C191.496 204.521 173.56 180.98 171.206 168.649C168.852 156.318 151.364 165.622 140.379 150.825C129.393 136.14 138.361 117.307 148.562 111.702C158.875 106.097 161.902 104.64 163.247 89.1701C163.359 87.3765 163.695 85.695 164.256 84.2377C164.929 84.9103 165.489 85.8071 165.937 87.1523C171.318 104.64 152.037 109.797 156.969 111.702C161.902 113.608 159.099 119.773 146.544 128.741C133.989 137.709 143.293 149.144 159.099 151.274C174.793 153.403 155.176 137.261 178.829 129.526C202.482 121.791 183.425 115.065 194.075 98.5865L210.665 84.4619C210.665 84.4619 222.548 74.1486 232.861 70.113C238.13 74.8212 239.924 89.8427 235.215 98.3623C235.215 98.3623 223.893 96.2324 233.87 105.873C243.847 115.626 241.829 160.13 216.607 182.325Z" fill="#1D2332"/>
<path d="M207.166 309.662L207.159 309.674L207.154 309.687C206.848 310.402 206.328 311.136 205.655 312.034C204.097 313.921 203.254 316.283 202.789 318.737C202.323 321.195 202.228 323.785 202.193 326.142C202.186 326.593 202.182 327.034 202.177 327.463C202.158 329.304 202.141 330.932 201.968 332.217C201.862 333.007 201.702 333.613 201.477 334.035C201.26 334.441 201.004 334.643 200.688 334.713C198.887 335.113 196.945 334.619 194.977 332.399C192.983 330.15 190.993 326.152 189.208 319.626C188.65 317.397 188.209 315.296 187.989 313.203L187.989 313.203L187.988 313.198C187.378 307.927 187.683 303.04 188.141 299.467C188.371 297.682 188.638 296.228 188.848 295.222C188.952 294.719 189.043 294.328 189.106 294.064C189.109 294.052 189.112 294.04 189.115 294.028C189.137 294.026 189.16 294.025 189.184 294.024C189.473 294.006 189.895 293.987 190.425 293.979C191.485 293.964 192.973 293.995 194.677 294.181C198.076 294.552 202.285 295.536 205.699 297.949C205.699 297.949 205.699 297.95 205.699 297.95C205.73 297.991 205.776 298.053 205.834 298.136C205.95 298.301 206.114 298.548 206.303 298.864C206.682 299.497 207.155 300.406 207.532 301.506C208.288 303.705 208.653 306.633 207.166 309.662Z" fill="#42C66E" stroke="#1D2332" stroke-width="1.05841"/>
<path opacity="0.28" d="M202.355 305.876L206.988 310.027C206.675 310.637 206.217 311.278 205.65 312.034C204.091 313.921 203.249 316.283 202.783 318.737C202.317 321.195 202.223 323.785 202.188 326.142C202.181 326.593 202.176 327.034 202.172 327.463C202.153 329.304 202.136 330.932 201.963 332.217C201.856 333.007 201.696 333.613 201.471 334.035C201.255 334.441 200.999 334.643 200.682 334.713C198.882 335.113 196.939 334.619 194.971 332.399C192.978 330.15 190.987 326.152 189.202 319.626C188.72 317.697 188.325 315.864 188.084 314.049C192.166 315.277 197.371 313.199 202.355 305.876Z" fill="#1D2332" stroke="#1D2332" stroke-width="1.05841"/>
<path d="M295.548 285.697C296.626 288.156 304.481 306.076 306.772 318.619C307.33 321.854 307.541 324.696 307.22 326.737C306.289 332.209 303.571 336.971 297.763 339.712C291.917 342.471 282.86 343.222 269.173 340.429L269.173 340.428C255.454 337.64 239.221 330.687 226.394 324.413C219.985 321.279 214.437 318.32 210.491 316.144C208.519 315.056 206.947 314.164 205.868 313.545C205.329 313.235 204.913 312.993 204.633 312.829C204.496 312.749 204.392 312.688 204.321 312.646C202.413 309.461 202.398 305.384 202.905 302.015C203.16 300.322 203.542 298.834 203.861 297.769C204.02 297.236 204.163 296.811 204.266 296.52C204.283 296.471 204.299 296.427 204.314 296.386C209.217 296.061 219.409 296.877 228.518 297.797C233.166 298.266 237.514 298.759 240.7 299.135C242.293 299.324 243.595 299.482 244.499 299.594C244.951 299.65 245.303 299.694 245.542 299.724L245.815 299.759L245.884 299.768L245.902 299.77L245.906 299.771L245.907 299.771C245.907 299.771 245.908 299.771 245.975 299.246L245.908 299.771L247.05 299.917L246.417 298.955C233.919 279.956 225.099 264.846 220.471 250.502C215.855 236.194 215.405 222.632 219.684 206.714L219.684 206.713C219.694 206.69 219.71 206.655 219.731 206.609C219.774 206.516 219.84 206.376 219.93 206.196C220.111 205.835 220.39 205.311 220.779 204.669C221.557 203.385 222.773 201.628 224.517 199.753C228.002 196.005 233.6 191.783 242.052 189.905C250.541 188.074 258.848 188.627 265.044 189.644C268.14 190.151 270.703 190.774 272.491 191.269C273.384 191.517 274.083 191.732 274.558 191.885C274.795 191.962 274.976 192.023 275.097 192.064C275.121 192.072 275.142 192.08 275.161 192.086L275.176 192.102C275.244 192.174 275.345 192.281 275.478 192.423C275.743 192.705 276.134 193.125 276.638 193.67C277.645 194.761 279.1 196.356 280.891 198.371L280.894 198.374C293.681 212.508 324.248 247.109 337.894 269.367C344.062 279.46 353.032 293.7 362.226 307.828C370.634 320.945 379.07 333.977 385.404 343.73C388.571 348.606 391.212 352.663 393.062 355.501C393.987 356.92 394.714 358.034 395.21 358.793L395.776 359.66L395.801 359.698C394.971 361.234 393.523 362.95 391.767 364.686C389.916 366.517 387.754 368.338 385.689 369.957C383.626 371.574 381.665 372.984 380.221 373.989C379.499 374.491 378.906 374.892 378.494 375.167C378.423 375.215 378.356 375.259 378.296 375.299C378.259 375.323 378.225 375.346 378.192 375.368C362.185 360.913 340.115 339.822 329.449 326.933L329.448 326.932C318.807 314.163 297.066 285.81 296.395 284.916L295.442 283.646V285.233V285.345V285.456L295.487 285.557C295.504 285.596 295.524 285.643 295.548 285.697Z" fill="#4F5865" stroke="#1D2332" stroke-width="1.05841"/>
<path d="M262.791 193.087L278.933 226.493L281.287 241.963L257.746 193.76" stroke="white" stroke-width="0.79381" stroke-miterlimit="10"/>
<path d="M327.692 129.638C327.228 129.892 327.228 129.892 327.228 129.893L327.228 129.893L327.229 129.894L327.232 129.899L327.24 129.913C327.242 129.917 327.244 129.922 327.247 129.926C327.253 129.938 327.261 129.951 327.27 129.967C327.297 130.014 327.335 130.08 327.386 130.164C327.486 130.331 327.633 130.567 327.821 130.846C328.196 131.403 328.739 132.14 329.41 132.847C330.715 134.222 332.676 135.668 334.89 135.082C335.316 134.969 335.588 134.978 335.744 135.02C335.88 135.057 335.926 135.116 335.951 135.173C335.985 135.25 336.006 135.396 335.951 135.621C335.897 135.843 335.777 136.106 335.583 136.382C334.804 137.489 332.984 138.59 330.531 137.874C325.031 136.27 319.204 136.955 315.757 138.103C315.458 138.199 315.239 138.161 315.051 138.052C314.841 137.929 314.623 137.689 314.413 137.303C313.992 136.527 313.704 135.35 313.517 134.073C313.332 132.811 313.252 131.509 313.219 130.517C313.203 130.023 313.198 129.608 313.197 129.317C313.197 129.197 313.197 129.098 313.198 129.024C316.826 123.888 319.867 121.398 322.47 120.243C325.081 119.084 327.316 119.237 329.416 119.513C331.09 119.74 332.886 120.583 334.708 121.439C335.032 121.591 335.357 121.744 335.682 121.894C336.736 122.378 337.789 122.827 338.782 123.08C339.773 123.332 340.764 123.406 341.664 123.072C341.993 122.95 342.146 122.972 342.187 122.985C342.188 122.985 342.189 122.986 342.19 122.986C342.193 122.992 342.197 123.004 342.201 123.024C342.218 123.11 342.211 123.281 342.118 123.534C342.029 123.778 341.874 124.062 341.649 124.356C340.747 125.533 338.848 126.714 336.221 126.096C333.2 125.386 330.95 126.186 329.459 127.18C328.719 127.673 328.169 128.211 327.804 128.627C327.622 128.835 327.484 129.014 327.391 129.142C327.344 129.207 327.308 129.259 327.283 129.296C327.271 129.315 327.261 129.33 327.254 129.341L327.246 129.354L327.243 129.358L327.242 129.36L327.242 129.36C327.242 129.361 327.242 129.361 327.692 129.638ZM327.692 129.638L327.242 129.361L327.081 129.623L327.228 129.892L327.692 129.638Z" fill="white" stroke="#1D2332" stroke-width="1.05841"/>
<path d="M141.835 266.4C141.347 266.195 141.347 266.195 141.347 266.195L141.347 266.196L141.347 266.197L141.345 266.2L141.341 266.211L141.325 266.25C141.311 266.284 141.292 266.333 141.268 266.395C141.22 266.519 141.154 266.696 141.082 266.91C140.992 267.174 140.891 267.498 140.798 267.854C140.499 268.698 140.089 269.766 139.604 270.8C139.085 271.908 138.498 272.938 137.893 273.615C137.265 274.318 136.794 274.462 136.43 274.318C135.964 274.123 135.67 273.724 135.524 273.075C135.373 272.408 135.398 271.534 135.548 270.528C135.592 270.234 135.647 269.932 135.709 269.626C135.981 269.091 136.211 268.446 136.401 267.814C136.659 266.951 136.859 266.057 136.994 265.383C137.062 265.045 137.113 264.761 137.148 264.56C137.166 264.459 137.179 264.38 137.188 264.325L137.198 264.262L137.2 264.245L137.201 264.241L137.201 264.24L137.201 264.239C137.201 264.239 137.201 264.239 136.678 264.158L137.201 264.239L136.172 264.005C136.096 264.256 136.015 264.519 135.931 264.791C135.511 266.156 135.021 267.75 134.703 269.265C134.649 269.364 134.594 269.454 134.538 269.536C134.382 269.766 134.258 269.866 134.185 269.899C134.152 269.914 134.125 269.926 134.044 269.875C133.811 269.729 133.614 269.384 133.563 268.719C133.513 268.073 133.612 267.247 133.83 266.342C134.131 265.089 134.643 263.753 135.212 262.641C135.43 262.332 135.618 262.019 135.757 261.772C135.843 261.621 135.911 261.492 135.958 261.4C135.982 261.354 136 261.318 136.013 261.292L136.028 261.262L136.032 261.254L136.033 261.251L136.034 261.25L136.034 261.25C136.034 261.25 136.034 261.25 135.557 261.02L136.034 261.25L135.123 260.717C134.845 261.117 134.569 261.582 134.306 262.089C134.279 262.126 134.252 262.163 134.224 262.2C133.975 262.53 133.738 262.769 133.548 262.876C133.495 262.906 133.458 262.918 133.435 262.923C133.436 262.918 133.437 262.911 133.437 262.905C133.455 262.753 133.51 262.524 133.614 262.212C133.819 261.594 134.184 260.742 134.682 259.708C135.675 257.645 137.166 254.92 138.872 252.011C142.288 246.187 146.53 239.688 149.304 236.36C150.659 234.734 151.882 233.974 152.923 233.695C153.955 233.419 154.868 233.599 155.645 233.975C156.431 234.356 157.072 234.934 157.522 235.431C157.746 235.677 157.918 235.899 158.033 236.057C158.047 236.077 158.061 236.095 158.073 236.113C156.51 241.7 158.06 247.238 159.754 251.639C160.184 252.759 160.627 253.811 161.033 254.773L161.058 254.833C161.455 255.775 161.814 256.624 162.095 257.378C162.385 258.151 162.582 258.794 162.66 259.307C162.741 259.833 162.681 260.125 162.579 260.282C162.418 260.528 162.283 260.601 162.192 260.624C162.094 260.649 161.948 260.642 161.722 260.539C161.246 260.32 160.666 259.793 159.985 259.084C159.77 258.86 159.545 258.618 159.315 258.371C158.854 257.874 158.37 257.355 157.9 256.909C157.205 256.248 156.425 255.632 155.624 255.458L155.332 255.395L155.127 255.612L155.511 255.975C155.127 255.612 155.127 255.612 155.127 255.612L155.126 255.612L155.126 255.613L155.122 255.616L155.109 255.63L155.059 255.683C155.016 255.73 154.952 255.798 154.869 255.887C154.705 256.063 154.468 256.32 154.178 256.638C153.597 257.275 152.802 258.162 151.943 259.161C150.236 261.148 148.243 263.621 147.205 265.465C146.192 267.21 145.207 268.846 144.265 269.936C143.793 270.482 143.365 270.852 142.985 271.039C142.627 271.215 142.341 271.219 142.072 271.084C141.833 270.964 141.67 270.721 141.601 270.289C141.531 269.852 141.575 269.305 141.682 268.742C141.72 268.544 141.764 268.35 141.812 268.163C141.826 268.124 141.839 268.085 141.853 268.047C142.008 267.603 142.13 267.23 142.213 266.968C142.255 266.837 142.287 266.733 142.309 266.662L142.334 266.58L142.34 266.558L142.342 266.552L142.343 266.551L142.343 266.55C142.343 266.55 142.343 266.55 141.835 266.4ZM141.835 266.4L141.347 266.195L142.343 266.55L141.835 266.4Z" fill="white" stroke="#1D2332" stroke-width="1.05841"/>
<path d="M270.275 183.566C265.601 174.014 261.111 161.436 260.049 158.458C259.936 158.141 259.861 157.933 259.83 157.849L260.674 157.265C260.723 157.308 260.81 157.388 260.933 157.5C261.981 158.457 265.615 161.774 270.132 164.761C272.656 166.429 275.436 167.981 278.174 168.956C280.919 169.934 283.569 170.313 285.861 169.707L285.866 169.706C287.2 169.366 288.824 168.486 290.653 167.18C292.472 165.88 294.457 164.184 296.507 162.253C300.607 158.39 304.936 153.615 308.686 149.249C311.54 145.892 314.03 142.814 315.807 140.575C316.695 139.456 317.405 138.547 317.893 137.918C318.136 137.603 318.325 137.359 318.452 137.193C318.462 137.18 318.472 137.167 318.481 137.155C317.695 134.626 316.191 132.068 314.885 130.115C314.212 129.109 313.598 128.273 313.169 127.691L313.141 127.652C313.022 127.49 312.915 127.345 312.826 127.222L283.461 144.444L283.192 144.602L282.923 144.442L283.194 143.987C282.923 144.442 282.923 144.442 282.923 144.442L282.922 144.442L282.921 144.441L282.918 144.439L282.906 144.432L282.861 144.404C282.822 144.38 282.764 144.344 282.686 144.295C282.531 144.197 282.297 144.048 281.981 143.838C281.35 143.418 280.387 142.759 279.058 141.795C276.399 139.868 272.27 136.722 266.378 131.84C260.467 126.989 254.227 123.058 247.193 121.096C240.169 119.136 232.318 119.13 223.163 122.181L223.062 122.215L270.275 183.566ZM270.275 183.566C271.76 186.636 273.254 189.375 274.604 191.389C274.338 191.408 274.019 191.432 273.65 191.461C272.441 191.556 270.7 191.705 268.57 191.923C264.313 192.358 258.498 193.067 252.274 194.163C246.053 195.259 239.411 196.743 233.501 198.73C227.867 200.625 222.846 202.994 219.501 205.961L196.416 172.274L195.953 171.597L195.527 172.298L195.98 172.573C195.527 172.298 195.527 172.298 195.527 172.298L195.527 172.299L195.525 172.302L195.518 172.313L195.491 172.358L195.384 172.535C195.29 172.691 195.151 172.92 194.974 173.215C194.619 173.804 194.108 174.657 193.482 175.711C192.231 177.818 190.52 180.728 188.682 183.94C185.013 190.355 180.821 198.005 178.789 202.86C176.772 207.678 172.597 217.456 168.926 226.032C167.09 230.32 165.381 234.306 164.13 237.221C163.505 238.678 162.994 239.868 162.64 240.692L162.244 241.615M270.275 183.566L162.244 241.615M162.244 241.615C162.187 241.608 162.125 241.601 162.058 241.592C161.688 241.545 161.153 241.474 160.497 241.378C159.183 241.185 157.387 240.889 155.453 240.478C153.518 240.067 151.454 239.544 149.601 238.897C147.895 238.301 146.406 237.614 145.362 236.838C145.379 236.784 145.397 236.723 145.417 236.657C145.523 236.312 145.677 235.803 145.873 235.151C146.266 233.847 146.826 231.97 147.499 229.671M162.244 241.615L147.499 229.671M147.499 229.671C150.863 218.683 157.248 198.07 161.952 184.744C165.306 175.295 170.422 163.472 176.511 152.997C182.615 142.498 189.646 133.444 196.799 129.427L196.801 129.426C203.969 125.37 210.522 123.566 215.278 122.776C217.656 122.381 219.583 122.239 220.913 122.196C221.578 122.174 222.093 122.177 222.44 122.186C222.613 122.19 222.744 122.195 222.831 122.2C222.875 122.202 222.907 122.204 222.928 122.205L222.951 122.207L222.956 122.207L222.956 122.207L222.957 122.207L147.499 229.671Z" fill="#42C66E" stroke="#1D2332" stroke-width="1.05841"/>
<path d="M205.727 123.697C202.812 137.709 213.686 144.099 213.686 144.099L221.421 133.338L236.106 133.786C236.106 133.786 234.424 122.464 222.766 121.567C211.108 120.558 205.727 123.697 205.727 123.697Z" fill="#1D2332"/>
<path d="M214.204 130.743L214.204 130.742L211.334 119.368L221.561 118.772C221.521 119.132 221.497 119.632 221.528 120.302C221.6 121.871 221.975 124.38 223.16 128.218C223.407 129.115 223.356 130.145 223.02 131.017C222.684 131.888 222.083 132.56 221.26 132.835C219.455 133.419 217.782 133.357 216.516 132.909C215.238 132.457 214.428 131.64 214.204 130.743Z" fill="white" stroke="#1D2332" stroke-width="1.05841"/>
<path d="M211.568 120.295L211.518 120.208L211.44 120.145L211.305 120.037L221.748 118.792L222.72 126.473C222.517 126.449 222.271 126.417 221.989 126.373C221.137 126.239 219.965 126 218.688 125.577C216.123 124.726 213.212 123.159 211.568 120.295Z" fill="#DBDBDB" stroke="#1D2332" stroke-width="1.05841"/>
<path d="M234.702 98.6121L234.703 98.6138C236.341 104.62 235.363 111.055 231.889 116.184L231.701 116.373L231.668 116.405L231.642 116.442C229.055 120.107 224.863 122.142 220.468 121.713L220.463 121.713L216.651 121.376L216.649 121.376C214.069 121.161 211.483 120.084 209.548 118.473L204.731 114.328L204.515 114.142L204.244 114.219C204.244 114.219 204.243 114.219 204.243 114.22C204.243 114.22 204.243 114.22 204.242 114.22L204.242 114.22L204.227 114.224C204.21 114.228 204.183 114.234 204.144 114.241C204.066 114.256 203.944 114.275 203.781 114.289C203.456 114.318 202.969 114.325 202.347 114.234C201.108 114.051 199.314 113.471 197.198 111.843C196.184 111.064 195.428 110 195.013 108.963C194.589 107.903 194.558 106.975 194.83 106.411C194.958 106.145 195.155 105.95 195.442 105.836C195.74 105.717 196.172 105.67 196.778 105.784C197.998 106.013 199.791 106.868 202.253 108.746L204.814 111.084L206.144 112.299L205.682 110.558L201.383 94.3534C201.465 94.2612 201.574 94.1403 201.707 93.9936C202.039 93.628 202.522 93.103 203.127 92.467C204.336 91.1946 206.03 89.4803 207.966 87.7113C209.903 85.9412 212.076 84.1232 214.245 82.6393C216.422 81.1497 218.557 80.0235 220.422 79.5971C224.361 78.6968 226.797 78.5904 228.461 79.5532C230.104 80.5049 231.164 82.6083 232.004 86.6935L232.006 86.7065L232.016 86.759C232.025 86.8052 232.038 86.8736 232.054 86.9625C232.088 87.1404 232.139 87.4006 232.204 87.7311C232.334 88.3918 232.523 89.3333 232.762 90.4573C233.24 92.7043 233.914 95.685 234.702 98.6121Z" fill="white" stroke="#1D2332" stroke-width="1.05841"/>
<path d="M227.527 98.9685C227.524 98.975 227.521 98.9804 227.518 98.985C227.487 98.9779 227.397 98.94 227.24 98.7524C227.018 98.486 226.794 98.0517 226.64 97.5378C226.488 97.0326 226.443 96.5415 226.478 96.1855C226.494 96.0153 226.526 95.9017 226.555 95.8382C226.595 95.8522 226.681 95.9011 226.819 96.0669C227.041 96.3333 227.266 96.7676 227.42 97.2815L227.427 97.304L227.435 97.3259C227.627 97.8065 227.67 98.2762 227.626 98.6171C227.604 98.7889 227.563 98.9051 227.527 98.9685ZM227.502 99.0056C227.502 99.0055 227.503 99.0046 227.505 99.003C227.503 99.0049 227.502 99.0057 227.502 99.0056ZM226.577 95.7986C226.577 95.7987 226.576 95.7996 226.575 95.801C226.576 95.7993 226.577 95.7986 226.577 95.7986ZM226.531 95.8328C226.531 95.8329 226.531 95.833 226.53 95.8331C226.53 95.8331 226.53 95.833 226.53 95.833C226.53 95.8329 226.53 95.8328 226.531 95.8328ZM227.53 98.9864C227.53 98.9864 227.53 98.9863 227.53 98.9863C227.53 98.9863 227.53 98.9863 227.53 98.9863C227.53 98.9864 227.53 98.9864 227.53 98.9864Z" fill="#1D2332" stroke="#1D2332" stroke-width="1.05841"/>
<path d="M215.367 102.318C215.364 102.325 215.361 102.329 215.358 102.333L215.336 102.337L215.307 102.349C215.28 102.344 215.189 102.312 215.025 102.115C214.803 101.849 214.579 101.415 214.425 100.901C214.274 100.396 214.228 99.9045 214.263 99.5485C214.279 99.3783 214.311 99.2647 214.34 99.2012C214.38 99.2152 214.466 99.2641 214.605 99.43C214.827 99.6963 215.051 100.131 215.205 100.644L215.212 100.667L215.22 100.689C215.419 101.187 215.484 101.662 215.451 101.997C215.435 102.166 215.397 102.268 215.367 102.318ZM215.315 102.349C215.315 102.349 215.314 102.35 215.311 102.349C215.314 102.349 215.315 102.349 215.315 102.349ZM214.362 99.1617C214.362 99.1617 214.362 99.1626 214.36 99.1641C214.362 99.1624 214.362 99.1616 214.362 99.1617ZM214.316 99.1958C214.316 99.1959 214.316 99.196 214.316 99.1961C214.315 99.1961 214.315 99.1961 214.315 99.196C214.315 99.1959 214.315 99.1958 214.316 99.1958Z" fill="#1D2332" stroke="#1D2332" stroke-width="1.05841"/>
<path d="M222.398 102.475L222.387 102.306C222.654 102.592 222.945 102.902 223.223 103.196C223.496 103.485 223.761 103.763 223.986 103.999C223.194 103.967 222.462 103.361 222.398 102.475Z" fill="#DBDBDB" stroke="#1D2332" stroke-width="1.05841"/>
<path d="M196.884 108.857C196.797 108.708 196.8 108.542 196.905 108.375C197.013 108.202 197.242 108.025 197.596 107.964C198.278 107.845 199.517 108.168 200.903 110.069L202.006 112.355C201.169 112.121 200.24 111.663 199.377 111.104C198.165 110.319 197.213 109.421 196.884 108.857Z" fill="#DBDBDB" stroke="#1D2332" stroke-width="1.05841"/>
<path d="M230.277 76.1665C235.21 90.0669 219.516 84.2377 213.686 94.3267C207.745 104.416 203.037 107.106 194.069 102.958C185.101 98.6986 189.248 79.4174 198.441 74.8213C207.521 70.2252 226.466 65.1807 230.277 76.1665Z" fill="#1D2332"/>
<path d="M230.504 101.053L203.488 108.9C202.479 109.236 201.358 108.563 201.022 107.555L198.107 97.5776C197.771 96.5687 198.443 95.4477 199.452 95.1114L226.468 87.2644C227.477 86.9281 228.598 87.6007 228.935 88.6096L231.849 98.5865C232.185 99.5954 231.625 100.716 230.504 101.053Z" fill="white"/>
<path d="M234.988 99.7075L207.972 107.555C206.963 107.891 205.842 107.218 205.506 106.209L202.591 96.2324C202.255 95.2235 202.928 94.1025 203.937 93.7662L230.953 85.9192C231.962 85.5829 233.083 86.2555 233.419 87.2644L236.334 97.2413C236.558 98.3623 235.997 99.4833 234.988 99.7075Z" fill="#4F5865"/>
<path d="M231.292 91.1879L216.495 95.5598C216.046 95.6719 215.598 95.4477 215.486 94.9993L215.15 93.9904C215.038 93.542 215.262 93.0936 215.71 92.9815L230.507 88.6096C230.956 88.4975 231.404 88.7217 231.516 89.1701L231.853 90.179C231.965 90.6274 231.74 91.0758 231.292 91.1879Z" fill="#42C66E"/>
<path d="M195.975 99.5954C157.077 111.702 150.014 58.1183 104.053 64.2838C74.3466 68.2073 -10.4011 24.0398 78.7186 -22.8181" stroke="#4F5865" stroke-width="2.11683" stroke-miterlimit="10" stroke-linecap="round"/>
<path d="M85.4405 84.0197L63.693 159.015C63.3567 160.024 64.2535 160.92 65.2624 160.696L120.304 149.374C121.2 149.15 121.649 148.253 121.2 147.468L87.2341 83.7955C86.8978 83.1229 85.7768 83.235 85.4405 84.0197Z" stroke="#1D2332" stroke-width="2.11683" stroke-miterlimit="10" stroke-linecap="round"/>
<path d="M64.5898 159.687L86.1131 139.061L129.944 125.16" stroke="#1D2332" stroke-width="2.11683" stroke-miterlimit="10" stroke-linecap="round"/>
<path d="M86.1133 139.061V84.0197C86.1133 83.1229 87.1222 82.6745 87.7948 83.3471L129.944 125.16L121.313 148.029" stroke="#1D2332" stroke-width="2.11683" stroke-miterlimit="10" stroke-linecap="round"/>
<path d="M209.969 223.272L184.97 261.722C184.074 263.067 184.522 264.749 185.867 265.533L215.91 283.357C217.031 284.03 218.488 283.806 219.385 282.797L247.859 250.512C248.98 249.279 248.755 247.373 247.41 246.476L213.78 222.487C212.547 221.59 210.754 221.926 209.969 223.272Z" stroke="#1D2332" stroke-width="2.11683" stroke-miterlimit="10" stroke-linecap="round"/>
<path d="M209.968 223.272L205.596 204.999C205.036 203.542 203.13 203.206 202.233 204.439L173.424 241.32C172.975 241.88 172.863 242.777 173.199 243.45L184.522 263.516" stroke="#1D2332" stroke-width="2.11683" stroke-miterlimit="10" stroke-linecap="round"/>
<path d="M205.148 204.214L242.254 232.912L248.195 247.373" stroke="#1D2332" stroke-width="2.11683" stroke-miterlimit="10" stroke-linecap="round"/>
<path d="M172.641 242.216L216.584 271.699L217.817 284.59" stroke="#1D2332" stroke-width="2.11683" stroke-miterlimit="10" stroke-linecap="round"/>
<path d="M216.582 271.699L242.253 232.912" stroke="#1D2332" stroke-width="2.11683" stroke-miterlimit="10" stroke-linecap="round"/>
</svg>
