<svg width="213" height="186" viewBox="0 0 213 186" fill="none" xmlns="http://www.w3.org/2000/svg">
<path d="M156.967 182.972H158.157L158.751 181.941L209.406 93.9841L209.998 92.957L209.406 91.9298L158.751 3.97283L158.157 2.94181H156.967H55.6557H54.4659L53.8721 3.97283L3.21645 91.9298L2.62488 92.957L3.21645 93.9841L53.8721 181.941L54.4659 182.972H55.6557H156.967Z" fill="#42C66E" stroke="#1D2332" stroke-width="4.11638"/>
<g clip-path="url(#clip0_2156_4687)">
<path d="M119.261 96.9396C118.855 96.9396 118.424 96.7962 118.089 96.5096C116.702 95.2674 115.578 93.4519 114.741 91.0869C111.058 92.4246 106.945 92.4246 103.262 91.0869C102.425 93.4757 101.301 95.2913 99.9137 96.5096C99.1963 97.1546 98.0962 97.0829 97.4504 96.3662C96.8047 95.6496 96.8765 94.5507 97.5939 93.9057C98.8136 92.8307 99.7702 90.9436 100.464 88.268C100.583 87.7664 100.942 87.3364 101.444 87.1214C101.923 86.9064 102.473 86.9064 102.951 87.1453C106.777 89.0564 111.25 89.0564 115.076 87.1453C115.554 86.9064 116.104 86.9064 116.583 87.1214C117.061 87.3364 117.42 87.7664 117.563 88.268C118.257 90.9197 119.214 92.8307 120.433 93.9057C121.151 94.5507 121.222 95.6496 120.577 96.3662C120.218 96.7246 119.74 96.9396 119.261 96.9396Z" fill="white"/>
<path d="M126.265 74.9383C125.308 74.9383 124.376 74.6994 123.491 74.2216C122.941 73.9111 122.582 73.3378 122.582 72.6928V62.2057C122.582 61.5607 122.941 60.9874 123.491 60.6768C124.376 60.1991 125.308 59.9602 126.241 59.9602C129.804 59.9602 132.698 63.3285 132.698 67.4612C132.722 71.57 129.828 74.9383 126.265 74.9383ZM126.098 71.4506C127.748 71.57 129.231 69.7067 129.231 67.4373C129.231 65.1918 127.748 63.3046 126.098 63.424V71.4506Z" fill="white"/>
<path d="M91.758 74.9383C88.1946 74.9383 85.3008 71.57 85.3008 67.4373C85.3008 63.3046 88.1946 59.9363 91.758 59.9363C92.7146 59.9363 93.6473 60.1752 94.5082 60.653C95.0583 60.9635 95.417 61.5368 95.417 62.1818V72.6689C95.417 73.3139 95.0583 73.8872 94.5082 74.1977C93.6234 74.6994 92.7146 74.9383 91.758 74.9383ZM91.758 63.424C90.1556 63.424 88.7924 65.2634 88.7924 67.4373C88.7924 69.6828 90.2513 71.5461 91.9254 71.4506V63.4479C91.8536 63.424 91.8058 63.424 91.758 63.424Z" fill="white"/>
<path d="M109.002 92.0664C99.5792 92.0664 91.9023 84.3981 91.9023 74.9861V58.6224C91.9023 58.073 92.1654 57.5713 92.5959 57.2369C93.0264 56.9025 93.6003 56.8069 94.1265 56.9502C94.1982 56.9741 100.679 58.7419 104.817 60.0319C111.68 62.1579 121.821 58.5269 123.184 57.3325C123.71 56.8786 124.427 56.7591 125.073 57.0458C125.695 57.3325 126.101 57.9536 126.101 58.6463V75.0338C126.101 84.3981 118.425 92.0664 109.002 92.0664ZM95.4179 60.9157V74.9861C95.4179 82.4632 101.516 88.5547 109.002 88.5547C116.487 88.5547 122.586 82.4632 122.586 74.9861V61.5129C118.185 63.3762 110.174 65.3112 103.764 63.3285C101.205 62.5401 97.666 61.5368 95.4179 60.9157Z" fill="white"/>
<path d="M130.952 69.1812C129.995 69.1812 129.206 68.3928 129.206 67.4373C129.206 64.7857 127.125 62.6596 125.164 63.7107C124.614 63.9973 123.969 63.9973 123.443 63.6868C122.916 63.3762 122.582 62.8029 122.582 62.1818V61.5129C118.181 63.3762 110.169 65.3112 103.76 63.3285C101.177 62.5163 97.6616 61.5368 95.3897 60.8918V62.1579C95.3897 62.779 95.0549 63.3524 94.5287 63.6629C94.0026 63.9735 93.3329 63.9973 92.8068 63.6868C90.8457 62.6118 88.7651 64.7379 88.7651 67.4134C88.7651 68.3689 87.9759 69.1573 87.0193 69.1573C86.0626 69.1573 85.2734 68.3689 85.2734 67.4134V50.0226C85.2734 49.8076 85.3213 49.5926 85.393 49.4015C86.0866 45.9615 90.2239 43.4293 95.2223 43.4293C95.6049 43.4293 96.0115 43.4532 96.3941 43.4771C97.279 39.225 100.938 36 105.315 36C109.069 36 112.25 38.3172 113.637 41.6855C114.929 40.8733 116.435 40.4194 118.038 40.4194C120.764 40.4194 123.251 41.7332 124.734 43.8832C125.284 43.7399 125.858 43.6682 126.456 43.6682C129.924 43.6682 132.746 46.2721 132.746 49.4492V67.4373C132.722 68.4167 131.933 69.1812 130.952 69.1812ZM126.265 59.9363C127.341 59.9363 128.345 60.2468 129.23 60.7724V49.4492C129.23 48.1831 127.986 47.1559 126.456 47.1559C125.882 47.1559 125.332 47.2993 124.854 47.5859C124.423 47.8487 123.897 47.8965 123.395 47.7293C122.916 47.562 122.534 47.2037 122.342 46.7259C121.649 45.006 119.975 43.9071 118.062 43.9071C116.435 43.9071 114.976 44.7193 114.139 46.0571C113.733 46.7021 112.944 47.0126 112.202 46.8215C111.461 46.6304 110.935 45.9615 110.911 45.1971C110.815 41.996 108.376 39.4877 105.362 39.4877C102.301 39.4877 99.814 42.0916 99.7901 45.3165C99.7901 45.3882 99.7901 45.436 99.7901 45.4837C99.7901 46.0093 99.551 46.5109 99.1205 46.8454C98.7139 47.1798 98.1639 47.2993 97.6377 47.1798C96.8724 47.0126 96.0832 46.9171 95.2701 46.9171C91.6828 46.9171 89.0521 48.637 88.8368 50.2137C88.8368 50.2614 88.8368 50.2853 88.8129 50.3331V60.7246C89.7456 60.1513 90.8218 59.8646 91.9459 59.8885V58.5747C91.9459 58.0252 92.2089 57.5236 92.6394 57.1891C93.0699 56.8547 93.6438 56.7591 94.17 56.9025C94.2417 56.9263 100.723 58.6941 104.86 59.9841C111.724 62.1102 121.864 58.4791 123.227 57.2847C123.753 56.8308 124.471 56.7113 125.117 56.998C125.738 57.2847 126.145 57.9058 126.145 58.5985V59.9124C126.145 59.9363 126.193 59.9363 126.265 59.9363Z" fill="white"/>
<path d="M133.897 137.932H85.6833C84.7745 137.932 84.0331 137.24 83.9374 136.356L81.0198 105.372C80.9719 104.871 81.1393 104.393 81.4742 104.035C81.809 103.676 82.2873 103.461 82.7656 103.461H136.791C137.293 103.461 137.747 103.676 138.082 104.035C138.417 104.393 138.584 104.894 138.536 105.372L135.619 136.356C135.571 137.263 134.806 137.932 133.897 137.932ZM87.2856 134.445H132.318L134.877 106.973H84.7027L87.2856 134.445Z" fill="white"/>
<path d="M135.761 144H83.8165C81.9033 144 80.2053 142.734 79.6552 140.894L79.3922 139.987C79.0095 138.673 79.2487 137.287 80.0857 136.165C80.9227 135.066 82.1663 134.421 83.5534 134.421H136.024C137.411 134.421 138.679 135.042 139.492 136.165C140.329 137.263 140.568 138.649 140.185 139.987L139.922 140.894C139.372 142.71 137.65 144 135.761 144ZM83.5534 137.932C83.1947 137.932 82.9795 138.147 82.8838 138.267C82.7881 138.386 82.6447 138.649 82.7642 138.983L83.0273 139.891C83.123 140.249 83.4578 140.488 83.8165 140.488H135.737C136.096 140.488 136.431 140.249 136.526 139.891L136.789 138.983C136.885 138.625 136.741 138.386 136.67 138.243C136.574 138.123 136.359 137.908 136 137.908H83.5534V137.932Z" fill="white"/>
<path d="M150.254 144H67.7458C66.7892 144 66 143.212 66 142.256V119.18C66 104.99 77.5512 93.4519 91.757 93.4519H98.7642C99.4577 93.4519 100.103 93.858 100.367 94.503C100.654 95.148 100.51 95.8885 100.032 96.3902C99.386 97.0829 99.0751 97.7757 99.0751 98.4924C99.0751 100.762 102.519 102.96 106.895 103.485C107.852 103.605 108.546 104.465 108.426 105.42C108.306 106.376 107.422 107.068 106.489 106.949C100.08 106.184 95.5834 102.697 95.5834 98.4924C95.5834 97.9668 95.6552 97.4413 95.7987 96.9396H91.7809C79.5122 96.9396 69.5395 106.901 69.5395 119.156V140.488H148.508V119.156C148.508 106.901 138.536 96.9396 126.243 96.9396H122.225C122.369 97.4413 122.44 97.9668 122.44 98.4924C122.44 102.721 117.944 106.208 111.535 106.949C110.578 107.068 109.694 106.376 109.598 105.42C109.478 104.465 110.172 103.581 111.128 103.485C115.505 102.96 118.949 100.762 118.949 98.4924C118.949 97.7757 118.614 97.0829 117.992 96.3902C117.514 95.8885 117.394 95.148 117.657 94.503C117.944 93.858 118.566 93.4519 119.26 93.4519H126.267C140.473 93.4519 152.024 104.99 152.024 119.18V142.256C152 143.212 151.211 144 150.254 144Z" fill="white"/>
</g>
<defs>
<clipPath id="clip0_2156_4687">
<rect width="86" height="108" fill="white" transform="translate(66 36)"/>
</clipPath>
</defs>
</svg>
