<svg width="213" height="186" viewBox="0 0 213 186" fill="none" xmlns="http://www.w3.org/2000/svg">
<path d="M156.967 182.972H158.157L158.751 181.941L209.406 93.9841L209.998 92.957L209.406 91.9298L158.751 3.97283L158.157 2.94181H156.967H55.6557H54.4659L53.8721 3.97283L3.21645 91.9298L2.62488 92.957L3.21645 93.9841L53.8721 181.941L54.4659 182.972H55.6557H156.967Z" fill="#42C66E" stroke="#1D2332" stroke-width="4.11638"/>
<g clip-path="url(#clip0_2156_4691)">
<path d="M111.634 114.99H51.5825C47.9486 114.99 45 112.05 45 108.428C45 104.806 47.9486 101.866 51.5825 101.866H111.634C115.268 101.866 118.217 104.806 118.217 108.428C118.217 112.05 115.268 114.99 111.634 114.99ZM51.5825 105.716C50.0874 105.716 48.8415 106.938 48.8415 108.428C48.8415 109.918 50.0666 111.16 51.5825 111.16H111.634C113.129 111.16 114.355 109.939 114.355 108.428C114.355 106.938 113.129 105.716 111.634 105.716H51.5825Z" fill="white"/>
<path d="M109.1 121.904H54.1147C53.0557 121.904 52.1836 121.034 52.1836 119.978V113.065C52.1836 112.009 53.0557 111.14 54.1147 111.14H109.1C110.159 111.14 111.031 112.009 111.031 113.065V119.978C111.01 121.055 110.159 121.904 109.1 121.904ZM56.0459 118.074H107.169V115.011H56.0459V118.074Z" fill="white"/>
<path d="M68.9634 136H61.3843C60.3252 136 59.4531 135.131 59.4531 134.075V119.999C59.4531 118.943 60.3252 118.074 61.3843 118.074H68.9634C70.0224 118.074 70.8946 118.943 70.8946 119.999V134.075C70.8738 135.131 70.0224 136 68.9634 136ZM63.2946 132.15H67.0115V121.904H63.2946V132.15Z" fill="white"/>
<path d="M101.835 136H94.2553C93.1963 136 92.3242 135.131 92.3242 134.075V119.999C92.3242 118.943 93.1963 118.074 94.2553 118.074H101.835C102.894 118.074 103.766 118.943 103.766 119.999V134.075C103.766 135.131 102.894 136 101.835 136ZM96.1865 132.15H99.9034V121.904H96.1865V132.15Z" fill="white"/>
<path d="M71.2046 105.716C70.1456 105.716 69.2734 104.847 69.2734 103.791V99.2374C69.2734 98.1818 70.1456 97.3124 71.2046 97.3124C72.2636 97.3124 73.1357 98.1818 73.1357 99.2374V103.791C73.1357 104.847 72.2636 105.716 71.2046 105.716Z" fill="white"/>
<path d="M92.0093 105.716C90.9502 105.716 90.0781 104.847 90.0781 103.791V99.2374C90.0781 98.1818 90.9502 97.3124 92.0093 97.3124C93.0683 97.3124 93.9404 98.1818 93.9404 99.2374V103.791C93.9404 104.847 93.0683 105.716 92.0093 105.716Z" fill="white"/>
<path d="M81.608 78.7862C75.2747 78.7862 70.125 73.4043 70.125 66.8011C70.125 60.1979 75.2747 54.816 81.608 54.816C87.9412 54.816 93.0909 60.1979 93.0909 66.8011C93.0909 73.4043 87.9412 78.7862 81.608 78.7862ZM81.608 58.6247C77.3927 58.6247 73.9873 62.2886 73.9873 66.7804C73.9873 71.2722 77.4135 74.936 81.608 74.936C85.8232 74.936 89.2286 71.2722 89.2286 66.7804C89.2286 62.2886 85.8232 58.6247 81.608 58.6247Z" fill="white"/>
<path d="M101.648 105.716H61.5718C60.5127 105.716 59.6406 104.847 59.6406 103.791V91.9512C59.6406 85.8862 64.5827 80.9597 70.6668 80.9597H92.5529C98.637 80.9597 103.579 85.8862 103.579 91.9512V103.791C103.579 104.847 102.707 105.716 101.648 105.716ZM63.5029 101.866H99.7375V91.9512C99.7375 88.0182 96.519 84.8098 92.5737 84.8098H70.6668C66.7214 84.8098 63.5029 88.0182 63.5029 91.9512V101.866Z" fill="white"/>
<path d="M158.895 117.163H120.646C119.587 117.163 118.715 116.294 118.715 115.238C118.715 114.183 119.587 113.313 120.646 113.313H158.895C160.141 113.313 161.137 112.299 161.137 111.078C161.137 109.836 160.12 108.842 158.895 108.842H122.681C121.622 108.842 120.75 107.973 120.75 106.917C120.75 105.861 121.622 104.992 122.681 104.992H158.916C162.279 104.992 165.02 107.724 165.02 111.078C165.02 114.431 162.259 117.163 158.895 117.163Z" fill="white"/>
<path d="M156.632 123.373H113.857C112.798 123.373 111.926 122.504 111.926 121.448C111.926 120.392 112.798 119.523 113.857 119.523H154.701V117.163H120.647C119.588 117.163 118.716 116.294 118.716 115.238C118.716 114.183 119.588 113.313 120.647 113.313H156.632C157.691 113.313 158.564 114.183 158.564 115.238V121.427C158.564 122.504 157.691 123.373 156.632 123.373Z" fill="white"/>
<path d="M120.647 136H113.857C112.798 136 111.926 135.131 111.926 134.075V121.448C111.926 120.392 112.798 119.523 113.857 119.523H120.647C121.706 119.523 122.578 120.392 122.578 121.448V134.075C122.578 135.131 121.727 136 120.647 136ZM115.788 132.15H118.716V123.373H115.788V132.15Z" fill="white"/>
<path d="M150.131 136H143.341C142.282 136 141.41 135.131 141.41 134.075V121.448C141.41 120.392 142.282 119.523 143.341 119.523H150.131C151.19 119.523 152.063 120.392 152.063 121.448V134.075C152.063 135.131 151.19 136 150.131 136ZM145.252 132.15H148.2V123.373H145.252V132.15Z" fill="white"/>
<path d="M122.681 108.842C121.622 108.842 120.75 107.973 120.75 106.917V102.839C120.75 101.783 121.622 100.914 122.681 100.914C123.74 100.914 124.612 101.783 124.612 102.839V106.917C124.591 107.993 123.74 108.842 122.681 108.842Z" fill="white"/>
<path d="M141.306 108.842C140.247 108.842 139.375 107.973 139.375 106.917V102.839C139.375 101.783 140.247 100.914 141.306 100.914C142.365 100.914 143.237 101.783 143.237 102.839V106.917C143.237 107.993 142.386 108.842 141.306 108.842Z" fill="white"/>
<path d="M132.006 84.7063C126.212 84.7063 121.52 79.8004 121.52 73.7561C121.52 67.7118 126.233 62.806 132.006 62.806C137.799 62.806 142.492 67.7118 142.492 73.7561C142.492 79.8004 137.778 84.7063 132.006 84.7063ZM132.006 66.6562C128.351 66.6562 125.361 69.8439 125.361 73.7561C125.361 77.6684 128.33 80.8561 132.006 80.8561C135.66 80.8561 138.651 77.6684 138.651 73.7561C138.651 69.8439 135.66 66.6562 132.006 66.6562Z" fill="white"/>
<path d="M149.965 108.842H122.68C121.621 108.842 120.749 107.973 120.749 106.917C120.749 105.861 121.621 104.992 122.68 104.992H148.034V96.2981C148.034 92.8826 145.251 90.0882 141.804 90.0882H122.182C118.755 90.0882 115.952 92.8619 115.952 96.2981C115.952 97.3537 115.08 98.2231 114.021 98.2231C112.962 98.2231 112.09 97.3537 112.09 96.2981C112.09 90.7505 116.617 86.2587 122.161 86.2587H141.784C147.349 86.2587 151.855 90.7712 151.855 96.2981V106.917C151.875 107.993 151.024 108.842 149.965 108.842Z" fill="white"/>
<path d="M105.572 56.5133C104.513 56.5133 103.641 55.644 103.641 54.5883V52.4355C103.641 51.3798 104.513 50.5104 105.572 50.5104C106.631 50.5104 107.503 51.3798 107.503 52.4355V54.5883C107.482 55.644 106.631 56.5133 105.572 56.5133Z" fill="white"/>
<path d="M111.966 60.7568H109.806C108.747 60.7568 107.875 59.8874 107.875 58.8317C107.875 57.776 108.747 56.9066 109.806 56.9066H111.966C113.025 56.9066 113.897 57.776 113.897 58.8317C113.897 59.8874 113.025 60.7568 111.966 60.7568Z" fill="white"/>
<path d="M105.572 67.1323C104.513 67.1323 103.641 66.2629 103.641 65.2072V63.0545C103.641 61.9988 104.513 61.1294 105.572 61.1294C106.631 61.1294 107.503 61.9988 107.503 63.0545V65.2072C107.482 66.2629 106.631 67.1323 105.572 67.1323Z" fill="white"/>
<path d="M101.313 60.7568H99.1538C98.0948 60.7568 97.2227 59.8874 97.2227 58.8317C97.2227 57.776 98.0948 56.9066 99.1538 56.9066H101.313C102.372 56.9066 103.244 57.776 103.244 58.8317C103.244 59.8874 102.372 60.7568 101.313 60.7568Z" fill="white"/>
<path d="M124.052 41.9822C122.993 41.9822 122.121 41.1128 122.121 40.0571V37.9251C122.121 36.8694 122.993 36 124.052 36C125.111 36 125.983 36.8694 125.983 37.9251V40.0778C125.983 41.1335 125.132 41.9822 124.052 41.9822Z" fill="white"/>
<path d="M130.466 46.2256H128.306C127.247 46.2256 126.375 45.3562 126.375 44.3006C126.375 43.2449 127.247 42.3755 128.306 42.3755H130.466C131.525 42.3755 132.397 43.2449 132.397 44.3006C132.397 45.3562 131.525 46.2256 130.466 46.2256Z" fill="white"/>
<path d="M124.052 52.6011C122.993 52.6011 122.121 51.7317 122.121 50.676V48.544C122.121 47.4883 122.993 46.6189 124.052 46.6189C125.111 46.6189 125.983 47.4883 125.983 48.544V50.6967C125.983 51.7524 125.132 52.6011 124.052 52.6011Z" fill="white"/>
<path d="M119.817 46.2256H117.658C116.599 46.2256 115.727 45.3562 115.727 44.3006C115.727 43.2449 116.599 42.3755 117.658 42.3755H119.817C120.876 42.3755 121.748 43.2449 121.748 44.3006C121.748 45.3562 120.876 46.2256 119.817 46.2256Z" fill="white"/>
</g>
<defs>
<clipPath id="clip0_2156_4691">
<rect width="120" height="100" fill="white" transform="translate(46 36)"/>
</clipPath>
</defs>
</svg>
