<svg width="112" height="129" viewBox="0 0 112 129" fill="none" xmlns="http://www.w3.org/2000/svg">
<g clip-path="url(#clip0_844_7719)">
<path fill-rule="evenodd" clip-rule="evenodd" d="M28.4593 112.226L55.9999 128.642L83.5406 112.226L111.467 96.4816L111.081 64.3212L111.467 32.1607L83.5406 16.416L56 0.000152588L28.4594 16.416L0.532843 32.1606L0.918753 64.3211L0.532837 96.4816L28.4593 112.226ZM3.23446 94.9152L29.8008 109.893L56 125.509L82.1991 109.893L108.765 94.9152L108.398 64.3212L108.765 33.7271L82.1991 18.7493L56 3.13303L29.8008 18.7493L3.23447 33.7271L3.60158 64.3211L3.23446 94.9152Z" fill="white"/>
<path d="M62.5452 62.5964C62.2725 62.5964 61.9838 62.4999 61.7592 62.3068C60.829 61.4702 60.0751 60.2474 59.5138 58.6545C57.0437 59.5555 54.285 59.5555 51.815 58.6545C51.2536 60.2635 50.4998 61.4862 49.5695 62.3068C49.0884 62.7412 48.3505 62.6929 47.9175 62.2103C47.4844 61.7276 47.5326 60.9875 48.0137 60.5531C48.8317 59.829 49.4733 58.558 49.9384 56.756C50.0186 56.4181 50.2592 56.1285 50.596 55.9837C50.9168 55.8389 51.2857 55.8389 51.6065 55.9998C54.1727 57.2869 57.1721 57.2869 59.7383 55.9998C60.0591 55.8389 60.428 55.8389 60.7488 55.9837C61.0696 56.1285 61.3102 56.4181 61.4064 56.756C61.8715 58.5419 62.5131 59.829 63.3311 60.5531C63.8123 60.9875 63.8604 61.7276 63.4273 62.2103C63.1867 62.4516 62.8659 62.5964 62.5452 62.5964Z" fill="white"/>
<path d="M67.2449 47.7781C66.6033 47.7781 65.9778 47.6172 65.3843 47.2955C65.0154 47.0863 64.7748 46.7002 64.7748 46.2657V39.2025C64.7748 38.7681 65.0154 38.382 65.3843 38.1728C65.9778 37.851 66.6033 37.6901 67.2288 37.6901C69.6186 37.6901 71.5594 39.9587 71.5594 42.7422C71.5754 45.5095 69.6347 47.7781 67.2449 47.7781ZM67.1326 45.4291C68.2393 45.5095 69.2337 44.2546 69.2337 42.7261C69.2337 41.2137 68.2393 39.9426 67.1326 40.0231V45.4291Z" fill="white"/>
<path d="M44.1004 47.7781C41.7106 47.7781 39.7699 45.5095 39.7699 42.7261C39.7699 39.9426 41.7106 37.674 44.1004 37.674C44.742 37.674 45.3675 37.8349 45.9449 38.1567C46.3138 38.3659 46.5544 38.752 46.5544 39.1864V46.2497C46.5544 46.6841 46.3138 47.0702 45.9449 47.2794C45.3515 47.6172 44.742 47.7781 44.1004 47.7781ZM44.1004 40.0231C43.0258 40.0231 42.1116 41.262 42.1116 42.7261C42.1116 44.2385 43.09 45.4935 44.2127 45.4291V40.0392C44.1646 40.0231 44.1325 40.0231 44.1004 40.0231Z" fill="white"/>
<path d="M55.6646 59.3142C49.3452 59.3142 44.1966 54.1495 44.1966 47.8103V36.7891C44.1966 36.4191 44.3731 36.0812 44.6618 35.8559C44.9505 35.6307 45.3354 35.5663 45.6883 35.6629C45.7364 35.6789 50.083 36.8696 52.8578 37.7384C57.461 39.1703 64.2616 36.7248 65.1758 35.9203C65.5287 35.6146 66.0098 35.5341 66.4429 35.7272C66.8599 35.9203 67.1326 36.3386 67.1326 36.8052V47.8425C67.1326 54.1495 61.984 59.3142 55.6646 59.3142ZM46.5544 38.3337V47.8103C46.5544 52.8463 50.6444 56.9491 55.6646 56.9491C60.6849 56.9491 64.7748 52.8463 64.7748 47.8103V38.7359C61.8236 39.9909 56.4505 41.2941 52.1521 39.9587C50.4359 39.4278 48.0621 38.752 46.5544 38.3337Z" fill="white"/>
<path d="M70.3882 43.9006C69.7466 43.9006 69.2173 43.3697 69.2173 42.7261C69.2173 40.9402 67.8219 39.5082 66.5067 40.2161C66.1378 40.4092 65.7048 40.4092 65.3519 40.2001C64.9991 39.9909 64.7745 39.6047 64.7745 39.1864L64.7748 38.7359C61.8236 39.9909 56.4505 41.2941 52.1521 39.9587C50.4198 39.4117 48.0618 38.752 46.538 38.3176V39.1703C46.538 39.5887 46.3135 39.9748 45.9606 40.184C45.6078 40.3931 45.1587 40.4092 44.8058 40.2001C43.4906 39.476 42.0952 40.908 42.0952 42.71C42.0952 43.3536 41.5659 43.8845 40.9244 43.8845C40.2828 43.8845 39.7535 43.3536 39.7535 42.71V30.9969C39.7535 30.8521 39.7856 30.7073 39.8337 30.5786C40.2988 28.2618 43.0736 26.5563 46.4258 26.5563C46.6824 26.5563 46.9551 26.5724 47.2117 26.5885C47.8051 23.7246 50.2591 21.5525 53.1943 21.5525C55.7124 21.5525 57.8456 23.1132 58.7759 25.3818C59.642 24.8347 60.6525 24.529 61.7271 24.529C63.5555 24.529 65.2236 25.4139 66.218 26.862C66.5869 26.7654 66.9719 26.7172 67.3729 26.7172C69.6985 26.7172 71.5911 28.4709 71.5911 30.6108V42.7261C71.5751 43.3857 71.0458 43.9006 70.3882 43.9006ZM67.2445 37.674C67.9663 37.674 68.6399 37.8832 69.2334 38.2372V30.6108C69.2334 29.7581 68.3994 29.0662 67.3729 29.0662C66.9879 29.0662 66.619 29.1628 66.2982 29.3558C66.0095 29.5328 65.6567 29.565 65.3198 29.4524C64.9991 29.3397 64.7424 29.0984 64.6141 28.7766C64.149 27.6182 63.0263 26.8781 61.7431 26.8781C60.6525 26.8781 59.6741 27.4251 59.1127 28.3261C58.84 28.7605 58.3108 28.9697 57.8135 28.841C57.3163 28.7123 56.9635 28.2618 56.9474 27.7469C56.8833 25.5909 55.2473 23.9015 53.2264 23.9015C51.1734 23.9015 49.5053 25.6553 49.4892 27.8273C49.4892 27.8756 49.4892 27.9078 49.4892 27.94C49.4892 28.2939 49.3289 28.6318 49.0401 28.8571C48.7675 29.0823 48.3986 29.1628 48.0457 29.0823C47.5325 28.9697 47.0032 28.9053 46.4579 28.9053C44.052 28.9053 42.2877 30.0638 42.1433 31.1257C42.1433 31.1578 42.1433 31.1739 42.1273 31.2061V38.205C42.7528 37.8188 43.4746 37.6258 44.2284 37.6418V36.7569C44.2284 36.3869 44.4048 36.049 44.6936 35.8238C44.9823 35.5985 45.3672 35.5341 45.7201 35.6307C45.7682 35.6468 50.1148 36.8374 52.8895 37.7062C57.4928 39.1382 64.2933 36.6926 65.2076 35.8881C65.5604 35.5824 66.0416 35.502 66.4747 35.695C66.8917 35.8881 67.1643 36.3064 67.1643 36.773V37.6579C67.1643 37.674 67.1964 37.674 67.2445 37.674Z" fill="white"/>
<path d="M72.3613 90.2058H40.0265C39.417 90.2058 38.9198 89.7392 38.8556 89.1439L36.8989 68.276C36.8668 67.9381 36.9791 67.6163 37.2036 67.375C37.4282 67.1336 37.7489 66.9888 38.0697 66.9888H74.3021C74.6389 66.9888 74.9436 67.1336 75.1682 67.375C75.3927 67.6163 75.505 67.9542 75.4729 68.276L73.5162 89.1439C73.4841 89.7553 72.9708 90.2058 72.3613 90.2058ZM41.1011 87.8567H71.3027L73.0189 69.354H39.3689L41.1011 87.8567Z" fill="white"/>
<path d="M73.6127 94.2924H38.7757C37.4926 94.2924 36.3538 93.4397 35.9849 92.2008L35.8085 91.5894C35.5519 90.7045 35.7123 89.7713 36.2736 89.0151C36.835 88.275 37.6691 87.8406 38.5993 87.8406H73.7891C74.7194 87.8406 75.5695 88.2589 76.1148 89.0151C76.6762 89.7552 76.8366 90.6884 76.5799 91.5894L76.4035 92.2008C76.0346 93.4236 74.8798 94.2924 73.6127 94.2924ZM38.5993 90.2057C38.3587 90.2057 38.2144 90.3505 38.1502 90.431C38.0861 90.5114 37.9898 90.6884 38.07 90.9137L38.2465 91.5251C38.3106 91.7664 38.5352 91.9273 38.7757 91.9273H73.5967C73.8372 91.9273 74.0618 91.7664 74.1259 91.5251L74.3024 90.9137C74.3665 90.6723 74.2703 90.5114 74.2222 90.4149C74.158 90.3344 74.0137 90.1896 73.7731 90.1896H38.5993V90.2057Z" fill="white"/>
<path d="M83.3321 94.2925H27.9972C27.3556 94.2925 26.8263 93.7615 26.8263 93.1179V77.5756C26.8263 68.0186 34.5732 60.2474 44.1004 60.2474H48.7999C49.265 60.2474 49.6981 60.5209 49.8745 60.9553C50.067 61.3897 49.9707 61.8885 49.65 62.2264C49.2169 62.693 49.0084 63.1596 49.0084 63.6422C49.0084 65.1707 51.318 66.651 54.2532 67.0049C54.8947 67.0854 55.3599 67.6646 55.2797 68.3082C55.1995 68.9517 54.606 69.4183 53.9805 69.3379C49.682 68.823 46.6667 66.474 46.6667 63.6422C46.6667 63.2883 46.7148 62.9343 46.811 62.5964H44.1165C35.8884 62.5964 29.2001 69.3057 29.2001 77.5595V91.9273H82.1612V77.5595C82.1612 69.3057 75.4729 62.5964 67.2288 62.5964H64.5343C64.6305 62.9343 64.6786 63.2883 64.6786 63.6422C64.6786 66.4901 61.6632 68.8391 57.3648 69.3379C56.7232 69.4183 56.1298 68.9517 56.0656 68.3082C55.9854 67.6646 56.4505 67.0693 57.0921 67.0049C60.0273 66.651 62.3369 65.1707 62.3369 63.6422C62.3369 63.1596 62.1123 62.693 61.6953 62.2264C61.3745 61.8885 61.2943 61.3897 61.4708 60.9553C61.6632 60.5209 62.0803 60.2474 62.5454 60.2474H67.2449C76.7721 60.2474 84.519 68.0186 84.519 77.5756V93.1179C84.5029 93.7615 83.9736 94.2925 83.3321 94.2925Z" fill="white"/>
</g>
<defs>
<clipPath id="clip0_844_7719">
<rect width="112" height="129" fill="white"/>
</clipPath>
</defs>
</svg>
