<svg width="169" height="81" viewBox="0 0 169 81" fill="none" xmlns="http://www.w3.org/2000/svg">
<path d="M83.4704 37.0898L75.4033 33.9326L73.6079 38.5203L81.6749 41.6775L83.4704 37.0898Z" fill="white"/>
<path d="M40.8307 20.4018L32.7637 17.2446L30.9682 21.8323L39.0353 24.9895L40.8307 20.4018Z" fill="white"/>
<path d="M69.1803 31.497L61.1133 28.3398L59.3178 32.9275L67.3849 36.0847L69.1803 31.497Z" fill="white"/>
<path d="M26.5407 14.809L18.4736 11.6519L16.6782 16.2395L24.7452 19.3967L26.5407 14.809Z" fill="white"/>
<path d="M54.8903 25.9044L46.8232 22.7472L45.0278 27.3349L53.0948 30.492L54.8903 25.9044Z" fill="white"/>
<path d="M12.2506 9.21627L4.18359 6.05908L2.38813 10.6467L10.4552 13.8039L12.2506 9.21627Z" fill="white"/>
<path d="M164.972 71.6321L151.762 56.8295L149.39 62.8886L89.8093 39.5705L87.9969 44.2015L147.578 67.5196L145.206 73.5787L164.972 71.6321Z" fill="white"/>
</svg>
