<svg width="169" height="81" viewBox="0 0 169 81" fill="none" xmlns="http://www.w3.org/2000/svg">
<path d="M83.4704 43.9102L75.4033 47.0674L73.6079 42.4797L81.6749 39.3225L83.4704 43.9102Z" fill="white"/>
<path d="M40.8307 60.5982L32.7637 63.7554L30.9682 59.1678L39.0353 56.0106L40.8307 60.5982Z" fill="white"/>
<path d="M69.1803 49.503L61.1133 52.6602L59.3178 48.0725L67.3849 44.9153L69.1803 49.503Z" fill="white"/>
<path d="M26.5407 66.191L18.4736 69.3481L16.6782 64.7605L24.7452 61.6033L26.5407 66.191Z" fill="white"/>
<path d="M54.8903 55.0957L46.8232 58.2529L45.0278 53.6652L53.0948 50.508L54.8903 55.0957Z" fill="white"/>
<path d="M12.2506 71.7837L4.18359 74.9409L2.38813 70.3532L10.4552 67.196L12.2506 71.7837Z" fill="white"/>
<path d="M164.972 9.36786L151.762 24.1705L149.39 18.1114L89.8093 41.4295L87.9969 36.7985L147.578 13.4804L145.206 7.42126L164.972 9.36786Z" fill="white"/>
</svg>
