<svg width="154" height="116" viewBox="0 0 154 116" fill="none" xmlns="http://www.w3.org/2000/svg">
<path fill-rule="evenodd" clip-rule="evenodd" d="M115.915 83.1621H143.476C148.737 83.1621 153.006 78.8918 153.043 73.6274L153.042 67.4795L153.043 9.53467C153.043 4.27051 148.774 0 143.512 0H47.7676C42.5058 0 38.2373 4.27051 38.2373 9.53467V17.8914C38.2373 19.4009 39.4883 20.6526 40.997 20.6526C42.5058 20.6526 43.7568 19.4009 43.7568 17.8914V9.53467C43.7568 7.32593 45.5595 5.52197 47.7676 5.52197H143.512C145.72 5.52197 147.523 7.32593 147.523 9.53467V64.7185H90.709C89.2002 64.7185 87.9492 65.9702 87.9492 67.4795C87.9492 68.989 89.2002 70.2405 90.709 70.2405H147.523V73.6274C147.523 75.8362 145.72 77.6401 143.512 77.6401H90.709C89.2002 77.6401 87.9492 78.8918 87.9492 80.4011C87.9492 81.9104 89.2002 83.1621 90.709 83.1621H110.395V94.7954C110.395 97.2988 111.168 99.6548 112.456 101.606H90.709C89.2002 101.606 87.9492 102.858 87.9492 104.367C87.9492 105.876 89.2002 107.128 90.709 107.128H129.971C131.479 107.128 132.73 105.876 132.73 104.367C132.73 102.858 131.479 101.606 129.971 101.606H122.722C118.969 101.606 115.915 98.5503 115.915 94.7954V83.1621ZM44.6767 33.9053L42.9472 29.635L41.2178 33.2795C41.2178 33.2795 35.2197 33.7581 36.9492 37.1816C38.6416 40.6055 37.7959 44.9126 34.373 44.9126H33.9316C33.9316 44.9126 35.9189 40.2742 31.9082 40.2742C31.8164 40.2742 31.7246 40.2832 31.6328 40.2925C31.541 40.3018 31.4482 40.3108 31.3564 40.3108C30.6494 40.3716 30.039 40.4099 29.5156 40.4429C26.5537 40.6294 26.3681 40.6411 27.0879 43.5505C27.5429 45.3928 26.2607 45.7854 25.0488 46.1565C24.0088 46.4751 23.0205 46.7781 23.2246 47.9683C23.6289 50.2874 23.997 50.3979 24.0703 50.3979C24.0703 50.3979 26.4619 48.8518 28.0078 48.8518C28.3017 48.8518 28.5595 48.8884 28.7803 49.0356C29.3467 49.436 28.7812 49.9043 28.1123 50.4578C27.3047 51.1257 26.3467 51.918 27.0508 52.8645L28.3388 54.116C28.3388 54.116 30.2519 52.717 32.0918 52.717C33.122 52.717 34.1162 53.1589 34.7412 54.5579C36.1767 57.7605 34.9258 59.491 33.4902 59.491C33.1963 59.491 32.9013 59.4172 32.6074 59.27C32.4228 59.1963 32.2763 59.1594 32.166 59.1594C31.1357 59.1594 32.166 62.2886 32.166 62.2886C32.166 62.2886 13.3261 51.1709 10.75 38.323C5.00974 45.0598 2.47068 59.9695 6.62888 69.7986C5.48826 70.1301 4.05271 71.0134 6.04002 73.0015C6.72361 73.6941 7.2949 74.2278 7.79099 74.6907C9.45506 76.2451 10.2636 77 11.5967 80.2905C13.289 84.5979 16.3066 92.2917 17.1523 93.5803C17.2265 93.6907 17.3369 93.8748 17.4472 94.0957C15.9756 95.3105 15.3867 97.4458 17.5947 99.1392C18.3672 99.7283 19.1767 99.9858 19.9863 100.023C20.6855 101.569 21.3476 102.821 21.8623 103.005C21.9726 103.042 22.0469 103.042 22.1201 103.042C23.0029 103.042 23.5918 101.348 23.2607 99.2864C23.997 98.9744 24.7158 98.6074 25.3994 98.2585C26.7324 97.5784 27.9297 96.9673 28.8535 96.9673C28.9092 96.9673 28.956 96.9766 29.0019 96.9858C29.0478 96.9949 29.0937 97.0039 29.1484 97.0039C30.2168 97.1873 29.665 97.9529 28.8652 99.062C27.7373 100.627 26.1162 102.877 27.8603 105.14C29.4502 107.214 32.8896 108.054 36.1367 108.848C38.8271 109.505 41.3857 110.131 42.6523 111.398C42.7002 111.518 42.748 111.606 42.8056 111.653C42.8369 111.679 42.8711 111.693 42.9101 111.693H42.9472H42.9834C43.0947 111.693 43.1679 111.582 43.2412 111.398C44.4941 110.128 47.0508 109.503 49.7451 108.844C52.9863 108.052 56.4258 107.21 58.0332 105.14C59.7783 102.877 58.1562 100.627 57.0283 99.062C56.2295 97.9529 55.6777 97.1873 56.7461 97.0039C56.8193 96.9673 56.9297 96.9673 57.04 96.9673C57.9804 96.9673 59.2207 97.6003 60.582 98.2949C61.2441 98.6328 61.9345 98.9854 62.6328 99.2864C62.3017 101.348 62.8906 103.042 63.7734 103.042C63.8847 103.042 63.958 103.042 64.0312 103.005C64.5097 102.821 65.209 101.569 65.9082 100.023C66.7549 99.9858 67.5273 99.7283 68.2998 99.1392C70.5078 97.4089 69.9189 95.2737 68.4472 94.0957C68.5576 93.8748 68.6679 93.6907 68.7412 93.5803C69.5879 92.2917 72.5683 84.561 74.2978 80.2905C75.6045 76.9653 76.4287 76.2073 78.1074 74.6626C78.6035 74.2063 79.1738 73.6814 79.8535 73.0015C81.8779 71.0134 80.4424 70.1301 79.2656 69.7986C83.3867 59.9695 80.8476 45.0598 75.1435 38.323C72.5683 51.1709 53.7285 62.2886 53.7285 62.2886C53.7285 62.2886 54.7588 59.1594 53.7285 59.1594C53.6504 59.1594 53.582 59.1699 53.5078 59.1907C53.4433 59.209 53.373 59.2356 53.2871 59.27C52.9922 59.4172 52.6982 59.491 52.4033 59.491C50.9687 59.491 49.7178 57.7605 51.1523 54.5579C51.7783 53.1589 52.7715 52.717 53.8017 52.717C55.6416 52.717 57.5556 54.116 57.5556 54.116L58.8428 52.8276C59.5254 51.8838 58.5654 51.0713 57.7607 50.3904C57.0908 49.823 56.5283 49.3469 57.1133 48.9622C57.2051 48.9163 57.3095 48.877 57.4219 48.8464C57.5791 48.8035 57.751 48.7781 57.9228 48.7781C59.4316 48.7781 61.8232 50.2505 61.8232 50.2505C61.8232 50.2505 62.2656 50.2505 62.6699 47.6736C62.8564 46.4866 61.872 46.1196 60.8379 45.7346C59.6269 45.2839 58.3496 44.8081 58.8066 42.9614C59.458 40.4346 59.3877 40.4346 57.4131 40.4302C56.7119 40.4287 55.7715 40.4265 54.5381 40.3108C54.4404 40.2944 54.3564 40.2854 54.2773 40.2805C54.1787 40.2742 54.0879 40.2742 53.9863 40.2742C49.9756 40.2742 51.9619 44.9126 51.9619 44.9126H51.5205C48.0986 44.9126 47.2158 39.8691 48.9453 36.4456C50.0859 34.1631 47.8408 33.7949 46.1855 33.7949C45.376 33.7949 44.6767 33.9053 44.6767 33.9053ZM39.8564 44.6182C40.5556 44.6182 41.4013 44.9495 41.8428 44.9495H43.8301C44.3086 44.9495 45.2285 44.5444 45.9277 44.5444C46.5898 44.5444 47.0683 44.8757 46.8476 46.0906C46.4062 48.6677 42.9834 55.4414 42.9834 55.4414C42.9834 55.4414 39.3047 48.7781 38.8623 46.2012C38.6416 44.9495 39.1572 44.6182 39.8564 44.6182ZM64.3623 93.5068C63.1484 94.1694 61.75 94.3901 60.499 94.3901C58.622 94.3901 57.1133 93.9485 57.1133 93.9485C57.1133 93.9485 68.6679 89.2363 60.0947 84.5242C53.0293 80.6218 53.25 76.1675 54.0224 76.1675C54.1172 76.1675 54.2119 76.2258 54.3017 76.3425C54.3867 76.4529 54.4668 76.6155 54.5381 76.8301C55.0527 78.3394 58.2549 80.6218 62.9277 80.6218C66.1289 80.6218 70.0293 79.5176 74.2236 76.3884C74.2431 76.3494 74.2734 76.3206 74.3027 76.2969C74.3291 76.2756 74.3545 76.2583 74.3711 76.241C71.501 81.4688 67.6006 88.6106 65.209 93.1753C64.915 93.249 64.6201 93.3594 64.3623 93.5068ZM11.4492 76.3516C15.6435 79.5176 19.5449 80.5852 22.7461 80.5852C27.4189 80.5852 30.6201 78.3027 31.1719 76.7566C31.3193 76.2778 31.54 76.0938 31.6875 76.0938C32.4599 76.0938 32.6806 80.5483 25.6162 84.4504C17.042 89.1626 28.5967 93.8748 28.5967 93.8748C28.5967 93.8748 28.0664 94.0391 27.25 94.1753C26.6728 94.2715 25.9521 94.3535 25.1748 94.3535C23.9228 94.3535 22.5254 94.1694 21.3105 93.47C21.0166 93.3228 20.7588 93.2122 20.4648 93.1387C18.0781 88.585 14.1914 81.4661 11.3232 76.2419C11.3545 76.2915 11.3896 76.3215 11.4492 76.3516ZM42.9472 25.2173H45.9277L47.1054 27.9783L47.6933 29.4509C50.0859 29.7454 51.8515 30.7026 52.8818 32.396C53.2871 33.0955 53.8388 34.2734 53.6914 35.8564H54.0224C54.3535 35.8564 54.6484 35.8564 54.9795 35.8933C56.0097 36.0037 56.8193 36.0037 57.4453 36.0037C58.8799 36.0405 61.0508 36.0405 62.5967 37.9917C63.6631 39.3538 63.7734 40.7527 63.5898 42.0779C64.0683 42.2988 64.583 42.5933 65.0986 42.9983C65.8711 43.6609 66.4599 44.4341 66.791 45.3176C68.7783 42.7773 70.3232 40.0532 70.8388 37.4026L72.6416 28.4568L78.5293 35.4148C81.8779 39.3538 84.3428 45.4648 85.2998 52.2385C86.1094 57.9814 85.8154 63.5403 84.4531 68.3262C84.8213 68.8784 85.0058 69.4307 85.1162 69.8723C85.4834 71.3816 85.4101 73.6641 82.9814 76.0938C82.2461 76.8301 81.6201 77.3823 81.1054 77.8608L81.0644 77.8982C79.6269 79.2278 79.3301 79.5027 78.3818 81.8735C78.2168 82.2993 78.0361 82.7556 77.8398 83.2424L77.499 84.0825C75.6592 88.7578 74.4082 91.7764 73.5615 93.6907C73.9668 94.6111 74.1504 95.605 74.1504 96.5991C74.1133 98.8816 73.0097 100.98 70.9863 102.563C70.3232 103.042 69.6611 103.447 68.9258 103.741C68.0791 105.287 67.0117 106.539 65.3926 107.091C65.0722 107.198 64.7519 107.268 64.4316 107.307C64.2002 107.336 63.9687 107.349 63.7373 107.349C63.1113 107.349 62.5224 107.238 61.9707 107.017C61.8691 107.139 61.7793 107.272 61.6875 107.403C61.6133 107.511 61.5381 107.617 61.456 107.717C58.917 110.993 54.5752 112.061 50.748 112.981C50.1396 113.133 49.3535 113.324 48.6025 113.529C47.7168 113.77 46.8808 114.031 46.4424 114.27C45.4492 115.448 44.0508 115.926 42.9101 115.926H42.873H42.8369C41.6963 115.926 40.2978 115.485 39.3047 114.27C38.5683 113.868 36.707 113.406 35.3789 113.076L34.999 112.981C31.1719 112.061 26.8301 110.993 24.291 107.717L24.2822 107.706C24.1015 107.489 23.9199 107.271 23.7763 107.017C23.2246 107.238 22.5986 107.349 22.0097 107.349C21.4209 107.349 20.8691 107.275 20.3535 107.091C18.7353 106.576 17.7051 105.287 16.8213 103.741C16.0859 103.447 15.3867 103.078 14.7607 102.563C12.7373 100.98 11.6328 98.8816 11.5967 96.5991C11.5967 96.0676 11.6494 95.5361 11.7597 95.0159C11.8564 94.563 11.997 94.1189 12.1855 93.6907C11.3388 91.7764 10.0879 88.7578 8.24802 84.0825L7.91502 83.2625C7.7158 82.7683 7.5322 82.3052 7.36521 81.8735C6.81345 80.4929 6.48142 79.8232 6.01755 79.2419C5.67673 78.8157 5.26463 78.437 4.64158 77.8608C4.37205 77.6296 4.07224 77.3582 3.74216 77.0461C3.44138 76.7622 3.11619 76.4446 2.7656 76.0938C0.299781 73.6641 0.262672 71.345 0.630836 69.8723C0.741188 69.4307 0.925758 68.8784 1.29295 68.2893C-0.0683826 63.5037 -0.362328 57.908 0.447242 52.2017C1.44041 45.428 3.90623 39.28 7.21775 35.3779L13.1054 28.4202L14.9082 37.3657C15.4599 40.0532 17.0058 42.8142 19.0293 45.3911C19.3974 44.5444 20.0224 43.8081 20.7959 43.2192C20.9619 43.0947 21.1279 42.9805 21.2939 42.8767C21.5693 42.7046 21.8447 42.561 22.1201 42.446C21.9726 41.1577 22.1201 39.7588 23.0771 38.4333C24.622 36.335 26.8301 36.1877 28.9648 36.0405L29.1885 36.0249C29.6484 35.9924 30.1621 35.9563 30.7304 35.8933C31.0615 35.8564 31.3926 35.8564 31.6875 35.8564H31.9814C32.0058 35.2356 32.122 34.5994 32.3418 33.9878C32.4609 33.6565 32.6103 33.3323 32.791 33.0217C33.9687 30.9233 36.1396 29.8926 37.9424 29.3772L38.7158 27.7573L39.8926 25.2173H42.6894H42.9472Z" fill="#252B42"/>
</svg>
