<svg width="114" height="129" viewBox="0 0 114 129" fill="none" xmlns="http://www.w3.org/2000/svg">
<path fill-rule="evenodd" clip-rule="evenodd" d="M37.0632 78.4894C37.6536 78.4894 38.2439 78.3036 38.7457 77.9222C39.7394 77.179 40.1231 75.8979 39.6804 74.7341L34.6625 61.3461H39.5033C40.6938 61.3461 41.658 60.3878 41.658 59.2045C41.658 58.0211 40.6938 57.0628 39.5033 57.0628H33.2064C32.1241 57.0628 31.1205 57.5909 30.5007 58.471C29.8808 59.3511 29.7431 60.4758 30.1169 61.4831L33.8656 71.4776L15.1716 57.7082C14.6108 57.2975 13.9122 57.0628 13.2137 57.0628H4.30945V4.28337H92.6039V55.7132H87.5172C86.3267 55.7132 85.3625 56.6716 85.3625 57.8549C85.3625 59.0382 86.3267 59.9966 87.5172 59.9966H93.5977C95.4277 59.9966 96.9134 58.5199 96.9134 56.7009V3.49124C96.9134 1.5647 95.3293 0 93.4009 0H3.51249C1.57423 0 0 1.5647 0 3.49124V57.8549C0 59.7814 1.57423 61.3461 3.51249 61.3461H12.8595L35.3906 77.9418C35.8924 78.3036 36.4729 78.4894 37.0632 78.4894ZM106.438 111.984H99.3832V99.8574C99.3832 95.8381 96.8448 92.1708 93.0568 90.743L75.0024 83.9072L74.4022 79.4967C76.4094 77.1301 78.0328 74.2843 79.1544 71.4091C80.9254 71.0668 82.2635 69.5119 82.2635 67.6538V61.7764C82.2635 60.642 81.7519 59.6054 80.9353 58.8915V58.2461C80.9353 49.3664 73.6643 42.1492 64.7404 42.1492H62.507C53.5732 42.1492 46.3121 49.3761 46.3121 58.2461V58.8915C45.4955 59.6054 44.9839 60.642 44.9839 61.7764V67.6538C44.9839 69.5119 46.3219 71.0668 48.093 71.4091C49.2146 74.2745 50.838 77.1301 52.8452 79.4967L52.245 83.9072L34.1906 90.7332C30.4026 92.161 27.8641 95.8283 27.8641 99.8476V111.974H20.8096C17.1889 111.974 14.2471 114.898 14.2471 118.497V122.467C14.2471 126.066 17.1889 128.99 20.8096 128.99H106.457C110.078 128.99 113.02 126.066 113.02 122.467V118.497C113 114.908 110.058 111.984 106.438 111.984ZM56.6922 83.0466C57.863 83.8485 59.1125 84.4842 60.4211 84.8754C60.8344 85.0025 61.2476 85.1003 61.6707 85.1785C62.0937 85.2567 62.5267 85.3056 62.9596 85.335C63.176 85.3448 63.3925 85.3545 63.6089 85.3545C64.0517 85.3545 64.4846 85.3252 64.9077 85.2763C66.9148 85.0318 68.8039 84.2299 70.5355 83.0466L70.8405 85.3056L63.6089 91.2809L56.3773 85.3056L56.6922 83.0466ZM62.4971 46.4325H64.7306C71.2833 46.4325 76.616 51.733 76.616 58.2461V59.4294C76.5766 59.5467 76.5373 59.6738 76.5176 59.801C76.3602 60.8376 76.98 61.8058 77.9442 62.1383V67.2333C76.7537 67.3996 75.7305 68.2113 75.3172 69.3457C73.2511 74.9982 68.7055 81.0712 63.5991 81.0712C58.4927 81.0712 53.9471 74.9884 51.8809 69.3457C51.4677 68.2015 50.4445 67.3996 49.2539 67.2333V62.1383C50.2182 61.8058 50.838 60.8376 50.6806 59.801C50.6609 59.6738 50.6314 59.5467 50.5822 59.4294V58.2461C50.6117 51.733 55.9444 46.4325 62.4971 46.4325ZM32.1539 99.8574C32.1539 97.5983 33.5805 95.5447 35.7058 94.7428L53.1108 88.1612L62.1725 95.6522L63.6483 97.0507L65.0946 95.6425L74.1464 88.1612L91.5515 94.7428C93.6767 95.5447 95.1033 97.5983 95.1033 99.8574V111.984H88.8261V101.412C88.8261 100.229 87.8619 99.2706 86.6714 99.2706C85.4809 99.2706 84.5166 100.229 84.5166 101.412V111.984H42.7406V101.412C42.7406 100.229 41.7764 99.2706 40.5859 99.2706C39.3954 99.2706 38.4311 100.229 38.4311 101.412V111.984H32.1539V99.8574ZM108.691 122.477C108.691 123.709 107.677 124.717 106.438 124.717H20.79C19.5502 124.717 18.5368 123.709 18.5368 122.477V118.507C18.5368 117.274 19.5502 116.267 20.79 116.267H106.438C107.677 116.267 108.691 117.274 108.691 118.507V122.477ZM29.084 28.8394C29.084 27.6561 30.0482 26.6978 31.2387 26.6978H36.2959C37.4864 26.6978 38.4506 27.6561 38.4506 28.8394C38.4506 30.0227 37.4864 30.9811 36.2959 30.9811H31.2387C30.0482 30.9811 29.084 30.0227 29.084 28.8394ZM44.8754 26.6978C43.6849 26.6978 42.7207 27.6561 42.7207 28.8394C42.7207 30.0227 43.6849 30.9811 44.8754 30.9811H49.9326C51.1231 30.9811 52.0874 30.0227 52.0874 28.8394C52.0874 27.6561 51.1231 26.6978 49.9326 26.6978H44.8754ZM56.3672 28.8394C56.3672 27.6561 57.3314 26.6978 58.5219 26.6978H63.5791C64.7696 26.6978 65.7338 27.6561 65.7338 28.8394C65.7338 30.0227 64.7696 30.9811 63.5791 30.9811H58.5219C57.3314 30.9811 56.3672 30.0227 56.3672 28.8394Z" fill="#252B42"/>
</svg>
