<svg width="109" height="146" viewBox="0 0 109 146" fill="none" xmlns="http://www.w3.org/2000/svg">
<path fill-rule="evenodd" clip-rule="evenodd" d="M57.0127 13.3065C54.0047 12.3838 51.8232 9.82355 51.8232 6.83641C51.8232 3.08079 55.2716 0 59.4752 0C63.6789 0 67.1272 3.08079 67.1272 6.83641C67.1272 9.8232 64.9463 12.3832 61.9389 13.3061V37.374C63.5312 37.7541 64.9921 38.5042 66.1753 39.5809C67.8534 41.0801 68.8229 43.0099 68.952 45.0879C69.6712 44.7266 70.4474 44.4449 71.2656 44.2563V29.1798C68.2577 28.2571 66.0762 25.6968 66.0762 22.7097C66.0762 18.9541 69.5245 15.8733 73.7282 15.8733C77.9319 15.8733 81.3802 18.9541 81.3802 22.7097C81.3802 25.7198 79.1992 28.266 76.1918 29.1824V44.2709C77.8278 44.6579 79.3266 45.4233 80.5597 46.5053C82.3988 48.1484 83.3841 50.3196 83.3841 52.6376V56.6122C83.9341 56.3591 84.5164 56.1546 85.124 56.0055V39.2874V39.2873V27.3456C85.124 26.1426 86.2406 25.145 87.5871 25.145C88.9336 25.145 90.0502 26.1426 90.0502 27.3456V35.5425L98.8845 31.16V22.5778C95.8772 21.6548 93.6963 19.0949 93.6963 16.1081C93.6963 12.3525 97.1446 9.27173 101.348 9.27173C105.552 9.27173 109 12.3525 109 16.1081C109 19.1229 106.833 21.6723 103.811 22.585V32.4804C103.811 33.2726 103.318 34.0061 102.53 34.4169L90.0502 40.6078V56.027C91.5076 56.3988 92.8527 57.0959 93.959 58.0656C95.6996 59.5913 96.6519 61.6452 96.6519 63.8458L96.6848 119.153C96.6848 121.618 95.9623 124.523 94.7143 127.075C93.6962 129.158 91.89 131.946 88.9999 133.442C87.6863 134.117 86.8653 135.291 86.8653 136.582V143.77C86.8981 145.003 85.8143 146 84.435 146C83.0885 146 81.9719 145.003 81.9719 143.8V136.611C81.9719 133.794 83.7125 131.124 86.5368 129.657C88.9999 128.366 91.7914 123.613 91.7586 119.183L91.7258 63.8751C91.7258 62.8775 91.2988 61.9386 90.4778 61.2051C89.6896 60.5009 88.6387 60.1195 87.5221 60.1195H87.4892C85.3694 60.1465 83.6406 61.5706 83.3841 63.3796V89.1082C83.3841 90.3112 82.2675 91.3088 80.921 91.3088L80.9039 91.3087L80.8882 91.3088C79.5417 91.3088 78.4251 90.3112 78.4251 89.1082V63.8458C78.4251 63.6136 78.4362 63.3835 78.4579 63.156V52.6376C78.4579 51.4933 77.9653 50.437 77.0457 49.6155C76.159 48.8232 74.9439 48.3831 73.6631 48.3831C71.3055 48.3831 69.3445 49.9189 68.9668 51.9303V89.1376C68.9668 90.3405 67.8502 91.3381 66.5037 91.3381L66.4868 91.3381L66.4709 91.3381C65.1244 91.3381 64.0078 90.3405 64.0078 89.1376V52.6376C64.0078 52.3956 64.0189 52.156 64.0406 51.9191V45.5664C64.0406 44.4808 63.5808 43.4539 62.6941 42.691C61.8403 41.9282 60.6908 41.488 59.4757 41.488C56.9798 41.488 54.9108 43.3072 54.9108 45.5664L54.9108 52.4028L54.9108 89.1376C54.9108 90.3699 53.7942 91.3381 52.4477 91.3381C52.3635 91.3381 52.2803 91.3342 52.1981 91.3266C50.966 91.2126 49.9846 90.2653 49.9846 89.1376L49.9846 52.4028C49.9846 51.2585 49.492 50.2023 48.6052 49.3807C47.7185 48.5885 46.5034 48.1484 45.2554 48.1484C42.6281 48.1484 40.4935 50.0556 40.4935 52.4028L40.5253 103.454C41.9957 103.709 43.8804 103.869 45.8466 104.013C50.7399 104.395 56.8484 104.894 62.1687 107.241C68.5727 110.087 72.5465 115.104 73.9915 122.146C74.2214 123.349 73.3347 124.493 72.021 124.699C71.8568 124.728 71.6926 124.728 71.5613 124.728C70.379 124.728 69.3609 123.994 69.131 122.938C66.5037 110.058 54.7794 109.119 45.3868 108.385C42.1027 108.121 39.2783 107.886 37.1437 107.182C37.0767 107.159 37.0115 107.134 36.9483 107.107L32.3817 105.774C31.0023 105.363 29.8529 104.453 29.2289 103.28L29.2288 103.28L29.2281 103.278L29.2277 103.278L29.2274 103.277C28.7667 102.395 27.6184 100.197 26.4374 97.8224C25.0252 95.0351 23.416 91.8956 22.6278 90.4286C22.1681 89.5777 21.347 88.9028 20.329 88.5801C19.3766 88.2867 18.3585 88.316 17.4718 88.6974C15.6327 89.4896 14.8116 91.5142 15.6983 93.1866L23.8758 109.031C23.9415 109.148 23.9743 109.236 24.0072 109.353C24.1714 109.852 24.4669 110.292 24.8939 110.615L25.0581 110.762C31.1994 116.806 41.5444 126.723 44.303 128.689L44.5001 128.777C44.5389 128.8 44.5778 128.819 44.6147 128.836C44.6712 128.863 44.723 128.888 44.7628 128.924C47.1274 130.537 48.5396 133.002 48.5396 135.525V143.77C48.5067 145.003 47.3901 146 46.0436 146C44.6971 146 43.5805 145.003 43.5805 143.8V135.555C43.5805 134.88 43.3506 134.176 42.9237 133.589C42.7923 133.501 42.661 133.413 42.5625 133.296L42.3654 133.119C42.2012 132.973 41.9056 132.709 41.5444 132.357C37.7676 129.804 23.4489 115.75 21.4784 113.784C20.4603 112.933 19.7378 111.877 19.3437 110.703L11.2319 95.0351C9.46787 91.6763 10.6832 87.6805 13.8914 85.5118V77.4645C13.8851 77.3744 13.8852 77.2842 13.8914 77.1945V68.7162L6.14087 63.2882C5.54973 62.8774 5.18848 62.2319 5.18848 61.5571V38.7476C2.18103 37.8313 0 35.285 0 32.2749C0 28.5193 3.44833 25.4385 7.652 25.4385C11.8557 25.4385 15.304 28.5193 15.304 32.2749C15.304 35.2853 13.1226 37.8317 10.1147 38.7478V60.5008L17.8652 65.9288C18.4563 66.3396 18.8176 66.9851 18.8176 67.66V73.6152L23.6128 71.2981V64.3888C20.6051 63.466 18.4238 60.9059 18.4238 57.9189C18.4238 54.1633 21.8722 51.0825 26.0758 51.0825C30.2795 51.0825 33.7278 54.1633 33.7278 57.9189C33.7278 60.9059 31.5466 63.4659 28.539 64.3888V72.6185C28.539 73.44 28.0464 74.1735 27.2582 74.555L18.8176 78.6057V83.9774C19.8625 83.9603 20.918 84.1165 21.9382 84.443C24.2042 85.1472 26.0762 86.6729 27.0614 88.5801C27.8496 90.0471 29.4588 93.2159 30.871 96.0033C31.3397 96.9087 31.7938 97.7924 32.2011 98.5851L32.2018 98.5865L32.2034 98.5896C32.8511 99.8499 33.3804 100.88 33.6625 101.402C33.6953 101.49 33.7938 101.549 33.8924 101.578L35.5673 102.077L35.5344 52.4028C35.5344 48.574 38.313 45.3281 42.168 44.1858V34.1089C39.1605 33.186 36.9795 30.626 36.9795 27.6391C36.9795 23.8835 40.4278 20.8027 44.6315 20.8027C48.8352 20.8027 52.2835 23.8835 52.2835 27.6391C52.2835 30.6263 50.1021 33.1864 47.0942 34.1092V43.9081C48.1242 44.0876 49.1083 44.4143 50.0159 44.8736C50.3432 41.2712 53.2 38.2888 57.0127 37.3754V13.3065ZM26.101 60.3541C27.6 60.3422 28.8017 59.2611 28.8017 57.9189C28.8017 56.5693 27.5865 55.4836 26.0758 55.4836C24.5651 55.4836 23.35 56.5693 23.35 57.9189C23.35 59.2611 24.5517 60.3422 26.0508 60.3541C26.0591 60.354 26.0675 60.354 26.0759 60.354C26.0843 60.354 26.0926 60.354 26.101 60.3541ZM56.7494 6.83641C56.7494 5.48674 57.9646 4.40113 59.4752 4.40113C60.9859 4.40113 62.2011 5.48674 62.2011 6.83641C62.2011 8.18609 60.9859 9.2717 59.4752 9.2717C57.9646 9.2717 56.7494 8.18609 56.7494 6.83641ZM7.652 29.8396C6.14131 29.8396 4.92618 30.9252 4.92618 32.2749C4.92618 33.6246 6.14131 34.7102 7.652 34.7102C9.1627 34.7102 10.3778 33.6246 10.3778 32.2749C10.3778 30.9252 9.1627 29.8396 7.652 29.8396ZM44.6315 25.2039C43.1208 25.2039 41.9057 26.2895 41.9057 27.6391C41.9057 28.9888 43.1208 30.0744 44.6315 30.0744C46.1422 30.0744 47.3573 28.9888 47.3573 27.6391C47.3573 26.2895 46.1422 25.2039 44.6315 25.2039ZM98.6225 16.1081C98.6225 14.7585 99.8376 13.6729 101.348 13.6729C102.859 13.6729 104.074 14.7585 104.074 16.1081C104.074 17.4578 102.859 18.5434 101.348 18.5434C99.8376 18.5434 98.6225 17.4578 98.6225 16.1081ZM73.7282 20.2744C72.2175 20.2744 71.0024 21.36 71.0024 22.7097C71.0024 24.0594 72.2175 25.145 73.7282 25.145C75.2389 25.145 76.454 24.0594 76.454 22.7097C76.454 21.36 75.206 20.2744 73.7282 20.2744Z" fill="#252B42"/>
</svg>
