<svg width="141" height="138" viewBox="0 0 141 138" fill="none" xmlns="http://www.w3.org/2000/svg">
<path fill-rule="evenodd" clip-rule="evenodd" d="M39.6612 84.5845C39.294 84.5845 38.9278 84.5 38.6172 84.3027L20.3868 73.7959C20.1338 73.6533 19.916 73.4597 19.7432 73.2314C19.4727 72.873 19.3145 72.4294 19.3145 71.9648V25.4014C19.3145 24.6409 19.71 23.9365 20.3868 23.5703L60.7979 0.274658C61.4473 -0.0915527 62.2657 -0.0915527 62.9141 0.274658L103.326 23.5703C103.975 23.9365 104.398 24.6409 104.398 25.4014V36.8381H115.827L123.192 29.4858C123.588 29.0916 124.124 28.8662 124.689 28.8662H135.242C136.399 28.8662 137.359 29.824 137.359 30.979C137.359 32.1338 136.399 33.0916 135.242 33.0916H125.564L118.197 40.4436C117.774 40.8381 117.238 41.0635 116.702 41.0635H104.398V44.9788H127.214C128.102 42.3989 130.564 40.5281 133.437 40.5281C137.049 40.5281 140.012 43.4858 140.012 47.0916C140.012 50.7253 137.049 53.6548 133.437 53.6548C130.564 53.6548 128.102 51.7839 127.214 49.2041H104.398V52.1619H117.097C117.661 52.1619 118.197 52.3872 118.593 52.7815L124.432 58.6101C125.26 58.2322 126.178 58.0212 127.143 58.0212C130.755 58.0212 133.718 60.979 133.718 64.5847C133.718 68.2185 130.755 71.1479 127.143 71.1479C123.53 71.1479 120.567 68.1902 120.567 64.5847C120.567 63.4724 120.85 62.4219 121.346 61.5007L116.223 56.3872H104.398V71.9648C104.398 72.7253 104.003 73.4297 103.326 73.7959L89.4414 81.7959C88.4258 82.3872 87.127 82.0212 86.5635 81.0352C85.9707 80.0212 86.3369 78.7253 87.3252 78.1619L100.137 70.7817V47.0916V26.6128L61.8701 4.5564L23.5762 26.6128V70.7534L40.7334 80.6409C41.7491 81.2324 42.0879 82.5281 41.4951 83.5142C41.1006 84.1902 40.3946 84.5845 39.6612 84.5845ZM61.8692 79.5703C52.8828 79.5703 44.7803 75.7305 39.1201 69.6077C39.0098 69.5178 38.9073 69.4163 38.8155 69.3035C38.7735 69.2512 38.7334 69.1965 38.6953 69.1392C33.8545 63.6846 30.9121 56.5139 30.9121 48.6689C30.9121 40.7595 33.9034 33.5356 38.8155 28.0647L38.9864 27.8755C44.6524 21.6682 52.8116 17.7676 61.8692 17.7676C70.9268 17.7676 79.0869 21.6682 84.753 27.8755L84.9278 28.0688C89.8379 33.5393 92.8272 40.7615 92.8272 48.6689C92.8272 56.5166 89.8828 63.6895 85.0391 69.1448C84.918 69.3279 84.7705 69.4875 84.6075 69.6206C78.9483 75.7358 70.8496 79.5703 61.8692 79.5703ZM88.5088 46.5564C88.0723 41.0879 85.9805 36.084 82.7364 32.0415C80.8936 32.9253 78.8535 33.6829 76.6739 34.3027C77.6953 37.991 78.3301 42.1331 78.4834 46.5564H88.5088ZM78.4834 50.7817H88.5127C88.086 56.2566 85.9951 61.2742 82.7461 65.3291C80.8985 64.4421 78.8555 63.6819 76.6709 63.0603C77.6944 59.3674 78.3301 55.2173 78.4834 50.7817ZM74.2451 46.5564C74.0909 42.5486 73.5069 38.7173 72.5381 35.281C69.8037 35.8057 66.9229 36.1306 63.9864 36.2366V46.5564H74.2451ZM63.9864 50.7817H74.2481C74.0987 54.8086 73.5157 58.6448 72.5479 62.0847C69.8145 61.5601 66.9317 61.2351 63.9864 61.1294V50.7817ZM59.753 46.5564V36.2368C56.8106 36.1313 53.9307 35.8069 51.1992 35.283C50.2315 38.7139 49.6475 42.5398 49.4942 46.5564H59.753ZM45.2559 46.5564C45.4092 42.134 46.044 37.9924 47.0645 34.3047C44.8877 33.6853 42.8506 32.928 41.0088 32.0447C37.7617 36.0894 35.667 41.0942 35.2305 46.5564H45.2559ZM35.2266 50.7817H45.2559C45.4102 55.2134 46.0459 59.3628 47.0703 63.0562C44.8809 63.678 42.836 64.439 40.9912 65.3271C37.7432 61.2725 35.6534 56.2556 35.2266 50.7817ZM49.4922 50.7817H59.753V61.1294C56.8106 61.2349 53.9268 61.5591 51.1924 62.0828C50.2246 58.6382 49.6426 54.7979 49.4922 50.7817ZM70.251 68.1057C68.4815 71.6372 66.2676 74.0166 63.9864 74.9414V65.3572C66.4541 65.4514 68.8653 65.7092 71.1602 66.1182C70.875 66.8054 70.5723 67.4688 70.251 68.1057ZM59.753 74.9402V65.3572C57.2862 65.4514 54.875 65.7095 52.5801 66.1182C52.8653 66.8057 53.168 67.469 53.4883 68.1057C55.2774 71.6357 57.4795 74.0144 59.753 74.9402ZM71.1485 31.25C68.8565 31.6575 66.4492 31.915 63.9864 32.009V22.4543C66.2598 23.3804 68.461 25.759 70.251 29.2888C70.5674 29.9175 70.8672 30.5718 71.1485 31.25ZM59.753 32.009V22.4526C57.4717 23.3774 55.2578 25.7568 53.4883 29.2888C53.3526 29.5579 53.2207 29.8315 53.0918 30.1099C52.919 30.4822 52.751 30.8623 52.5899 31.25C54.8819 31.6577 57.2901 31.915 59.753 32.009ZM79.6582 28.7998C77.4209 26.8049 74.8457 25.1802 72.0303 24.022C73.293 25.8035 74.4102 27.9167 75.3448 30.2981C76.8711 29.8708 78.3164 29.3699 79.6582 28.7998ZM48.3936 30.2979C49.3272 27.9189 50.4424 25.8076 51.7041 24.0273C48.8936 25.186 46.3223 26.8101 44.0879 28.8027C45.4278 29.3716 46.8701 29.8713 48.3936 30.2979ZM51.7608 73.3901C48.919 72.2263 46.3213 70.5872 44.0664 68.5725C45.4151 67.9988 46.8692 67.4946 48.4043 67.0654C49.3506 69.4695 50.4805 71.5996 51.7608 73.3901ZM79.6729 68.5725C78.3262 67.9993 76.8741 67.4956 75.3399 67.0667C74.3955 69.4692 73.2657 71.5979 71.9864 73.387C74.8242 72.2231 77.42 70.5852 79.6729 68.5725ZM104.257 137.993C103.382 137.993 102.564 137.458 102.253 136.584L99.8545 129.683C93.7588 129.768 77.0244 129.937 74.9639 129.655C73.045 129.373 47.3653 122.951 36.4151 120.19C35.0323 119.852 33.7344 119.232 32.5489 118.416L32.5313 118.398L32.5147 118.383C32.503 118.373 32.4912 118.365 32.4795 118.362L32.4649 118.359L3.37015 95.2041C-0.0165694 92.8943 -1.00485 88.4436 1.11234 85.0352C2.1846 83.2886 3.87796 82.0774 5.90921 81.6548C7.91312 81.2041 9.97269 81.5986 11.666 82.7253L40.7891 102.444C40.8457 102.472 41.0157 102.528 41.0996 102.556C41.1563 102.556 41.1846 102.584 41.2129 102.584C41.2979 102.613 41.4385 102.641 41.5235 102.641L73.666 103.035C74.5127 103.035 75.2461 102.331 75.2461 101.458C75.2461 100.584 74.541 99.8521 73.666 99.8521L62.6035 99.7957L52.586 99.7112C50.2432 99.6831 48.0703 98.7534 46.4336 97.0352C44.8252 95.345 43.9785 93.1196 44.0909 90.7534C44.2891 86.2463 48.1836 82.5845 52.8116 82.5845H52.8955L79.9024 82.8379C80.834 82.8379 81.7647 83.0071 82.668 83.3169C88.3409 84.697 105.922 95.176 115.968 101.317C117.887 102.472 119.58 103.937 121.02 105.627L121.033 105.644C121.113 105.751 121.193 105.859 121.273 105.993L137.076 134.866C137.641 135.88 137.246 137.176 136.23 137.74C135.214 138.303 133.916 137.908 133.352 136.894L117.689 108.218C116.561 106.923 115.234 105.824 113.767 104.923C97.4278 94.9226 85.0948 88.2183 81.5957 87.4294L81.3418 87.345C80.8623 87.176 80.3828 87.0632 79.8741 87.0632L52.8682 86.8098H52.8399C50.4688 86.8098 48.4659 88.6409 48.3526 90.9226C48.2959 92.1057 48.7198 93.2324 49.5381 94.1057C50.3565 94.9788 51.4571 95.4578 52.6416 95.4578L62.6602 95.5422L73.7227 95.5986C76.9395 95.6267 79.5362 98.2463 79.5078 101.458C79.4795 104.641 76.8828 107.232 73.6944 107.232H73.666L41.4951 106.866C41.3106 106.866 41.1299 106.854 40.959 106.833C40.8174 106.817 40.6826 106.794 40.5596 106.77C40.4473 106.747 40.3438 106.722 40.253 106.697C40.0957 106.666 39.7979 106.599 39.4473 106.473C39.17 106.373 38.8594 106.236 38.5606 106.049L38.5547 106.043L38.5371 106.031L38.5196 106.021C38.5049 106.014 38.4903 106.007 38.4756 105.993L9.29593 86.2183C8.56253 85.7395 7.65921 85.5703 6.81253 85.7676C5.93753 85.9648 5.20413 86.4717 4.72464 87.2605C3.82132 88.7253 4.30081 90.7534 5.79691 91.7676C5.81742 91.7781 5.83499 91.7888 5.85159 91.801C5.87796 91.821 5.90238 91.8452 5.93753 91.8801L35.0606 115.007C35.795 115.514 36.585 115.88 37.46 116.106C59.3584 121.627 74.3155 125.317 75.5567 125.486C77.0811 125.711 92.1504 125.599 101.321 125.458H101.35C101.765 125.458 102.156 125.577 102.487 125.787C102.878 126.035 103.186 126.409 103.354 126.866L106.232 135.204C106.627 136.303 106.034 137.514 104.934 137.88C104.708 137.965 104.482 137.993 104.257 137.993ZM133.437 44.7534C132.139 44.7534 131.095 45.7957 131.095 47.0916C131.095 48.3872 132.139 49.4294 133.437 49.4294C134.734 49.4294 135.779 48.3872 135.779 47.0916C135.779 45.8237 134.706 44.7534 133.437 44.7534ZM124.801 64.5847C124.801 63.2888 125.845 62.2466 127.143 62.2466C128.412 62.2466 129.485 63.2888 129.485 64.5847C129.485 65.8804 128.44 66.9226 127.143 66.9226C125.845 66.9226 124.801 65.8804 124.801 64.5847Z" fill="#252B42"/>
</svg>
