<svg width="396" height="255" viewBox="0 0 396 255" fill="none" xmlns="http://www.w3.org/2000/svg">
<g clip-path="url(#clip0_3724_5056)">
<path d="M109.409 59.0359C110.541 56.1265 109.1 52.8367 106.188 51.7058C105.972 51.6235 105.756 51.5516 105.53 51.5002C105.828 49.1768 105.777 46.8533 105.386 44.6122C105.602 44.5505 105.818 44.4682 106.034 44.3757C108.905 43.1215 110.201 39.7803 108.946 36.912C107.691 34.0539 104.347 32.7483 101.476 34.0025C101.26 34.0951 101.064 34.2082 100.869 34.3212C99.48 32.5119 97.8029 30.8978 95.8892 29.551C95.9921 29.3557 96.095 29.1398 96.1773 28.9239C97.3091 26.0145 95.8686 22.7247 92.9569 21.5938C90.0451 20.463 86.7527 21.9022 85.6209 24.8117C85.5386 25.0276 85.4666 25.2434 85.4151 25.4696C83.0898 25.1715 80.7645 25.2229 78.5216 25.6136C78.4598 25.3977 78.3775 25.1818 78.2849 24.9659C77.0297 22.1079 73.6858 20.8022 70.8152 22.0565C67.9446 23.3107 66.6482 26.6519 67.9034 29.5202C67.996 29.7361 68.1092 29.9314 68.2224 30.1267C66.4115 31.5146 64.7962 33.1904 63.4484 35.1026C63.2529 34.9998 63.0368 34.897 62.8207 34.8147C59.909 33.6838 56.6165 35.1231 55.4848 38.0326C54.353 40.942 55.7934 44.2318 58.7052 45.3626C58.9212 45.4449 59.1373 45.5169 59.3637 45.5683C59.0653 47.8917 59.1167 50.2151 59.5077 52.4563C59.2916 52.518 59.0756 52.6002 58.8595 52.6927C55.9889 53.947 54.6925 57.2882 55.9478 60.1565C57.203 63.0145 60.5469 64.3201 63.4175 63.0659C63.6335 62.9734 63.829 62.8603 64.0245 62.7472C65.4135 64.5566 67.0906 66.1706 69.0043 67.5174C68.9015 67.7127 68.7986 67.9286 68.7163 68.1445C67.5845 71.0539 69.0249 74.3437 71.9367 75.4746C74.8484 76.6055 78.1409 75.1662 79.2726 72.2568C79.355 72.0409 79.427 71.825 79.4784 71.5988C81.8037 71.897 84.129 71.8456 86.372 71.4549C86.4337 71.6708 86.516 71.8867 86.6086 72.1026C87.8639 74.9606 91.2078 76.2662 94.0783 75.012C96.9489 73.7578 98.2453 70.4165 96.9901 67.5482C96.8975 67.3324 96.7843 67.137 96.6711 66.9417C98.482 65.5538 100.097 63.8781 101.445 61.9659C101.641 62.0687 101.857 62.1715 102.073 62.2537C104.985 63.3949 108.277 61.9556 109.409 59.0359ZM92.2469 52.3535C90.1377 57.7611 84.0364 60.4443 78.6142 58.3265C73.2022 56.219 70.5168 50.1226 72.626 44.715C74.7353 39.3074 80.8366 36.6241 86.2588 38.7419C91.681 40.8494 94.3664 46.9459 92.2469 52.3535Z" fill="white"/>
<path d="M73.9943 76.0915C73.2844 76.0915 72.5642 75.9578 71.8645 75.6905C68.8396 74.5082 67.3374 71.0951 68.5103 68.0623C68.5721 67.9081 68.6441 67.7539 68.7264 67.5894C66.9361 66.3043 65.3414 64.7725 63.9832 63.0453C63.8186 63.1379 63.6643 63.2098 63.5202 63.2715C60.5468 64.5771 57.0588 63.2201 55.7521 60.249C55.1142 58.8097 55.0834 57.2059 55.6595 55.7461C56.2357 54.276 57.3366 53.1245 58.7771 52.4974C58.9211 52.4357 59.0857 52.374 59.2606 52.3124C58.9005 50.1431 58.8594 47.9328 59.1166 45.743C58.9417 45.6916 58.7771 45.6402 58.6227 45.5785C57.1514 45.0028 55.9991 43.9028 55.3612 42.4635C54.7232 41.0242 54.6924 39.4204 55.2686 37.9606C56.4518 34.9381 59.8677 33.4371 62.9029 34.6091C63.0572 34.6708 63.2116 34.7325 63.3762 34.825C64.6623 33.0362 66.1953 31.4427 67.9239 30.0856C67.8313 29.9211 67.7593 29.7669 67.6975 29.623C67.0596 28.1837 67.0287 26.5799 67.6049 25.1201C68.1811 23.6499 69.282 22.4985 70.7225 21.8714C73.6959 20.5658 77.1839 21.9228 78.4906 24.8939C78.5523 25.0378 78.614 25.2023 78.6758 25.3771C80.8467 25.0173 83.0588 24.9761 85.2503 25.2434C85.3018 25.0687 85.3532 24.9042 85.415 24.75C86.5982 21.7275 90.0141 20.2265 93.0493 21.3985C96.0743 22.5808 97.5764 25.9939 96.4035 29.0267C96.3418 29.1809 96.28 29.3351 96.1874 29.4996C97.9777 30.7847 99.5725 32.3165 100.931 34.0437C101.095 33.9511 101.25 33.8792 101.394 33.8175C104.367 32.5119 107.855 33.8689 109.162 36.84C109.8 38.2793 109.83 39.8831 109.254 41.3429C108.678 42.813 107.577 43.9645 106.137 44.5916C105.993 44.6533 105.828 44.715 105.653 44.7766C106.013 46.9459 106.054 49.1562 105.797 51.346C105.972 51.3974 106.137 51.4488 106.291 51.5105C109.316 52.6927 110.818 56.1059 109.645 59.1387C108.462 62.1612 105.046 63.6622 102.011 62.4902C101.857 62.4285 101.702 62.3668 101.538 62.2743C100.252 64.0631 98.7185 65.6566 96.99 67.0137C97.0826 67.1781 97.1546 67.3221 97.2163 67.4763C97.8542 68.9156 97.8851 70.5194 97.3089 71.9792C96.7327 73.4493 95.6318 74.6008 94.1914 75.2279C91.2179 76.5335 87.73 75.1765 86.4233 72.2054C86.3616 72.0614 86.2998 71.897 86.2381 71.7222C84.0671 72.082 81.855 72.1231 79.6635 71.8558C79.612 72.0306 79.5606 72.1951 79.4989 72.3493C78.5832 74.6624 76.3505 76.0915 73.9943 76.0915ZM64.0244 62.521C64.0964 62.521 64.1581 62.5519 64.1993 62.6135C65.5986 64.4229 67.2551 66.0164 69.1277 67.3324C69.2203 67.394 69.2511 67.5277 69.1997 67.6202C69.0865 67.8361 68.9939 68.0314 68.9219 68.2165C67.8313 71.0128 69.2203 74.169 72.0189 75.2587C74.8174 76.3485 77.9761 74.9606 79.0667 72.1643C79.1388 71.9792 79.2005 71.7736 79.2622 71.5371C79.2931 71.424 79.396 71.3521 79.5092 71.3726C81.783 71.6708 84.0774 71.6194 86.341 71.2287C86.4542 71.2082 86.5673 71.2801 86.5982 71.3829C86.6702 71.6194 86.7422 71.825 86.8246 71.9998C88.0284 74.7447 91.2488 75.9989 93.9959 74.7961C95.3232 74.2101 96.3521 73.1512 96.8768 71.7942C97.4015 70.4371 97.3707 68.967 96.7842 67.6305C96.7019 67.4454 96.599 67.2501 96.4755 67.0445C96.4138 66.9417 96.4447 66.8183 96.527 66.7464C98.3378 65.3482 99.9326 63.693 101.25 61.8219C101.311 61.7294 101.445 61.6986 101.538 61.75C101.754 61.8733 101.949 61.9556 102.134 62.0275C104.933 63.1173 108.092 61.7294 109.182 58.9331C110.273 56.1367 108.884 52.9806 106.085 51.8908C105.9 51.8189 105.694 51.7572 105.458 51.6955C105.345 51.6647 105.273 51.5619 105.293 51.4488C105.591 49.1768 105.54 46.8842 105.149 44.6224C105.128 44.5093 105.2 44.3963 105.303 44.3654C105.54 44.2935 105.746 44.2215 105.931 44.1392C107.258 43.5533 108.287 42.4943 108.812 41.1373C109.337 39.7803 109.306 38.3101 108.719 36.9736C107.515 34.2287 104.295 32.9745 101.548 34.1773C101.363 34.2596 101.178 34.3624 100.961 34.4857C100.859 34.5474 100.735 34.5166 100.663 34.4343C99.2844 32.6558 97.6279 31.0623 95.7553 29.7464C95.6627 29.6847 95.6318 29.551 95.6833 29.4585C95.7965 29.2426 95.8891 29.0473 95.9611 28.8622C97.0517 26.0659 95.6627 22.9097 92.8641 21.82C90.0655 20.7302 86.9069 22.1181 85.8162 24.9145C85.7442 25.0995 85.6825 25.3051 85.6208 25.5416C85.5899 25.6547 85.487 25.7266 85.3738 25.7061C83.1 25.4079 80.8056 25.4593 78.542 25.85C78.4288 25.8706 78.3157 25.7986 78.2848 25.6958C78.2128 25.4593 78.1407 25.2537 78.0584 25.079C76.8546 22.3237 73.6445 21.0695 70.8974 22.2723C69.5701 22.8583 68.5412 23.9172 68.0165 25.2743C67.4917 26.6313 67.5226 28.1015 68.1091 29.4379C68.1914 29.623 68.284 29.808 68.4177 30.0239C68.4795 30.1267 68.4486 30.2501 68.3663 30.3221C66.5555 31.7202 64.9607 33.3754 63.6437 35.2465C63.582 35.339 63.4482 35.3699 63.3556 35.3185C63.1395 35.2054 62.9441 35.1129 62.7589 35.0409C59.9603 33.9511 56.8016 35.339 55.711 38.1354C55.1862 39.4924 55.2171 40.9625 55.8036 42.299C56.39 43.6252 57.4601 44.6533 58.8079 45.1776C58.9931 45.2496 59.1989 45.3112 59.4356 45.3729C59.5487 45.4038 59.6208 45.5066 59.6002 45.6197C59.3018 47.8917 59.3532 50.1843 59.7442 52.446C59.7648 52.5591 59.6928 52.6722 59.5899 52.703C59.3532 52.775 59.1475 52.8469 58.9726 52.9292C57.6453 53.5152 56.6164 54.5741 56.0917 55.9311C55.5669 57.2882 55.5978 58.7583 56.1843 60.0948C57.3881 62.8397 60.6085 64.094 63.3556 62.8911C63.5408 62.8089 63.726 62.7061 63.9421 62.5827C63.9524 62.5313 63.9832 62.521 64.0244 62.521ZM82.4518 59.2826C81.1348 59.2826 79.8075 59.0359 78.542 58.5424C75.8669 57.5041 73.7577 55.4788 72.6053 52.8572C71.453 50.2254 71.3912 47.316 72.4304 44.643C73.4696 41.97 75.4965 39.8625 78.1202 38.7111C80.7541 37.5596 83.6762 37.498 86.3513 38.5363C89.0264 39.5746 91.1356 41.5999 92.2879 44.2215C93.4403 46.8533 93.502 49.7628 92.4629 52.4357C91.4237 55.1087 89.3968 57.2162 86.7731 58.3676C85.3841 58.9742 83.9128 59.2826 82.4518 59.2826ZM82.4415 38.2484C81.0319 38.2484 79.6326 38.5363 78.3054 39.1223C75.7846 40.2223 73.8503 42.2476 72.8523 44.8075C71.8542 47.3674 71.916 50.1637 73.0169 52.6825C74.1281 55.2012 76.1447 57.134 78.7066 58.1312C81.2686 59.1284 84.0671 59.0667 86.5879 57.9667C89.1087 56.8667 91.043 54.8414 92.041 52.2815C93.039 49.7216 92.9773 46.9253 91.8764 44.4065C90.7652 41.8878 88.7486 39.955 86.1866 38.9578C84.9726 38.4746 83.707 38.2484 82.4415 38.2484Z" fill="black"/>
<path d="M62.0696 90.5564C62.759 88.7984 61.8845 86.8039 60.1251 86.1254C59.9913 86.074 59.8575 86.0329 59.7238 86.0021C59.909 84.5936 59.8678 83.1954 59.6312 81.8384C59.7649 81.7973 59.8987 81.7561 60.0222 81.6945C61.7507 80.9337 62.5429 78.9187 61.7816 77.1813C61.0202 75.4541 58.9933 74.6625 57.2647 75.4233C57.131 75.485 57.0178 75.5466 56.8943 75.6186C56.0507 74.5289 55.0424 73.5522 53.8797 72.7298C53.9414 72.6064 54.0032 72.483 54.0546 72.3494C54.744 70.5914 53.8694 68.5969 52.0997 67.9184C50.3403 67.2296 48.3443 68.1035 47.6652 69.8615C47.6138 69.9951 47.5726 70.1288 47.5418 70.2624C46.1322 70.0773 44.7329 70.1185 43.3748 70.3446C43.3336 70.211 43.2925 70.0773 43.2307 69.954C42.4693 68.2268 40.4424 67.4352 38.7139 68.196C36.9854 68.9568 36.1931 70.9718 36.9545 72.7092C37.0162 72.8428 37.078 72.9559 37.15 73.0793C36.0594 73.9223 35.0819 74.9298 34.2588 76.0915C34.1354 76.0298 34.0119 75.9682 33.8781 75.9167C32.1187 75.2279 30.1227 76.1018 29.4436 77.8598C28.7543 79.6178 29.6288 81.6122 31.3985 82.2907C31.5323 82.3421 31.666 82.3833 31.7998 82.4141C31.6146 83.8226 31.6557 85.2207 31.8924 86.5778C31.7586 86.6189 31.6249 86.66 31.5014 86.7217C29.7729 87.4825 28.9806 89.4975 29.742 91.2349C30.5034 92.962 32.5303 93.7536 34.2588 92.9929C34.3926 92.9312 34.5058 92.8695 34.6292 92.7975C35.4729 93.8873 36.4812 94.864 37.6439 95.6864C37.5821 95.8098 37.5204 95.9331 37.4689 96.0668C36.7796 97.8248 37.6541 99.8192 39.4238 100.498C41.1832 101.187 43.1793 100.313 43.8583 98.5547C43.9098 98.4211 43.9509 98.2874 43.9818 98.1538C45.3914 98.3388 46.7907 98.2977 48.1488 98.0715C48.19 98.2052 48.2311 98.3388 48.2928 98.4622C49.0542 100.189 51.0811 100.981 52.8097 100.22C54.5382 99.4594 55.3304 97.4444 54.5691 95.707C54.5073 95.5733 54.4456 95.4602 54.3736 95.3369C55.4642 94.4939 56.4416 93.4864 57.2647 92.3246C57.3882 92.3863 57.5117 92.448 57.6454 92.4994C59.3945 93.1985 61.3906 92.3246 62.0696 90.5564ZM51.6985 86.5161C50.4226 89.7853 46.7289 91.4097 43.4571 90.1349C40.1852 88.8601 38.5596 85.1693 39.8354 81.9001C41.1112 78.6308 44.8049 77.0065 48.0768 78.2813C51.3486 79.5561 52.9743 83.2468 51.6985 86.5161Z" fill="white"/>
<path d="M40.6588 100.96C40.2061 100.96 39.7637 100.878 39.3315 100.714C38.4261 100.364 37.7059 99.6753 37.3149 98.7809C36.9239 97.8865 36.9033 96.8996 37.2532 95.9846C37.284 95.9126 37.3149 95.8407 37.3561 95.7584C36.3066 94.9976 35.3806 94.1032 34.5781 93.0957C34.506 93.1369 34.434 93.1677 34.362 93.1985C32.5203 94.0107 30.3596 93.1677 29.5468 91.3275C29.1558 90.4331 29.1352 89.4461 29.4851 88.5311C29.8349 87.6264 30.5242 86.9068 31.4194 86.5161C31.4914 86.4853 31.5634 86.4544 31.6457 86.4236C31.44 85.1488 31.4194 83.8534 31.5634 82.5786C31.4811 82.5581 31.4091 82.5272 31.3268 82.4964C29.4542 81.7665 28.5179 79.6487 29.2484 77.7673C29.9789 75.8962 32.0984 74.9607 33.9813 75.6906C34.0533 75.7215 34.1254 75.7523 34.2077 75.7934C34.969 74.7448 35.8642 73.8195 36.8725 73.0177C36.8313 72.9457 36.8005 72.8737 36.7696 72.8018C36.3786 71.9073 36.358 70.9204 36.7079 70.0054C37.0577 69.1007 37.747 68.3811 38.6422 67.9904C40.4839 67.1783 42.6445 68.0213 43.4574 69.8615C43.4882 69.9335 43.5191 70.0054 43.55 70.0877C44.8258 69.8821 46.1222 69.8615 47.398 70.0054C47.4186 69.9232 47.4494 69.8512 47.4803 69.7793C48.2108 67.9082 50.3303 66.9726 52.2132 67.7026C54.0858 68.4325 55.0221 70.5503 54.2916 72.4317C54.2607 72.5036 54.2298 72.5756 54.1887 72.6578C55.2381 73.4186 56.1641 74.313 56.9667 75.3205C57.0387 75.2794 57.1107 75.2486 57.1827 75.2177C59.0244 74.4055 61.1851 75.2486 61.9979 77.0888C62.3889 77.9832 62.4095 78.9701 62.0597 79.8851C61.7098 80.7898 61.0205 81.5095 60.1253 81.9001C60.0533 81.931 59.9813 81.9618 59.899 81.9927C60.1048 83.2675 60.1253 84.5628 59.9813 85.8376C60.0636 85.8582 60.1356 85.889 60.2179 85.9198C61.1234 86.2694 61.8436 86.9582 62.2346 87.8526C62.6255 88.747 62.6461 89.734 62.2963 90.6489C61.9465 91.5536 61.2571 92.2733 60.362 92.6639C59.4669 93.0546 58.4791 93.0752 57.5634 92.7256C57.4914 92.6948 57.4194 92.6639 57.3371 92.6331C56.5757 93.6715 55.6805 94.607 54.6722 95.4089C54.7134 95.4808 54.7443 95.5528 54.7751 95.6248C55.1661 96.5192 55.1867 97.5061 54.8369 98.4211C54.487 99.3258 53.7977 100.045 52.9026 100.436C51.0608 101.248 48.9002 100.405 48.0874 98.565C48.0565 98.4931 48.0256 98.4211 47.9948 98.3389C46.7189 98.5445 45.4328 98.565 44.1467 98.4211C44.1261 98.5033 44.0953 98.5753 44.0644 98.6576C43.7146 99.5622 43.0252 100.282 42.1301 100.673C41.6568 100.858 41.1527 100.96 40.6588 100.96ZM34.6192 92.5817C34.6912 92.5817 34.753 92.6125 34.7941 92.6742C35.6378 93.764 36.6358 94.7201 37.7573 95.5117C37.8499 95.5734 37.8808 95.707 37.8293 95.7995C37.7573 95.9332 37.7059 96.0463 37.6647 96.1491C37.3561 96.9407 37.3766 97.8145 37.7162 98.5959C38.0557 99.3772 38.6936 99.9838 39.4859 100.292C40.2781 100.601 41.1527 100.58 41.9346 100.241C42.7166 99.9015 43.3236 99.2744 43.6323 98.4725C43.6734 98.3594 43.7146 98.2463 43.7455 98.1024C43.7763 97.9893 43.8792 97.9173 43.9924 97.9379C45.3608 98.1127 46.7395 98.0818 48.0976 97.8557C48.2108 97.8351 48.324 97.9071 48.3549 98.0099C48.396 98.1435 48.4372 98.2669 48.4886 98.38C49.1986 99.994 51.0917 100.734 52.7071 100.025C53.489 99.6856 54.0961 99.0585 54.4047 98.2566C54.7134 97.465 54.6928 96.5911 54.3533 95.8098C54.3018 95.707 54.2504 95.5939 54.1681 95.4603C54.1064 95.3575 54.1372 95.2341 54.2195 95.1621C55.3102 94.3191 56.267 93.3219 57.0593 92.2013C57.121 92.1088 57.2547 92.0779 57.3473 92.1294C57.4811 92.2013 57.5943 92.2527 57.6972 92.2938C58.4894 92.6023 59.364 92.5817 60.1459 92.2424C60.9279 91.9032 61.5349 91.2761 61.8436 90.4742C62.1523 89.6826 62.1317 88.8087 61.7921 88.0274C61.4526 87.246 60.8147 86.6395 60.0225 86.3311C59.9093 86.29 59.7961 86.2488 59.6521 86.218C59.5389 86.1871 59.4669 86.0843 59.4874 85.9713C59.6623 84.6039 59.6315 83.2263 59.4051 81.8693C59.3845 81.7562 59.4566 81.6431 59.5595 81.6123C59.6932 81.5711 59.8167 81.53 59.9299 81.4786C60.7118 81.1394 61.3189 80.5122 61.6275 79.7104C61.9362 78.9187 61.9156 78.0449 61.5761 77.2636C60.8661 75.6495 58.973 74.9093 57.3576 75.6187C57.2445 75.6701 57.1313 75.7215 57.0078 75.7934C56.9049 75.8551 56.7815 75.8243 56.7094 75.742C55.8658 74.6523 54.8677 73.6962 53.7462 72.9046C53.6536 72.8429 53.6228 72.7092 53.6742 72.6167C53.7462 72.4933 53.7977 72.37 53.8388 72.2672C54.4768 70.6223 53.6639 68.7615 52.0177 68.1241C50.3715 67.4867 48.5092 68.2988 47.8713 69.9437C47.8301 70.0568 47.789 70.1802 47.7581 70.3138C47.7272 70.4269 47.6244 70.4989 47.5112 70.4783C46.1428 70.3036 44.7641 70.3344 43.4059 70.5606C43.2927 70.5811 43.1796 70.5092 43.1487 70.4064C43.1075 70.2727 43.0664 70.1494 43.0149 70.0363C42.305 68.4222 40.4119 67.682 38.7965 68.3914C38.0145 68.7306 37.4075 69.3578 37.0988 70.1596C36.7902 70.9512 36.8107 71.8251 37.1503 72.6064C37.2017 72.7195 37.2532 72.8326 37.3355 72.956C37.3972 73.0588 37.3663 73.1821 37.284 73.2541C36.1934 74.0971 35.2365 75.0841 34.4443 76.2149C34.3826 76.3075 34.2488 76.3383 34.1562 76.2869C34.0225 76.2149 33.9093 76.1635 33.8064 76.1224C32.1602 75.485 30.2979 76.2972 29.66 77.9421C29.0221 79.587 29.8349 81.4478 31.4811 82.0852C31.5943 82.1263 31.7075 82.1674 31.8515 82.1983C31.9647 82.2291 32.0367 82.3319 32.0161 82.445C31.8412 83.8123 31.8721 85.1899 32.0984 86.547C32.119 86.6601 32.047 86.7731 31.9441 86.804C31.8001 86.8451 31.6869 86.8862 31.5737 86.9376C30.7918 87.2769 30.1847 87.904 29.876 88.7059C29.5674 89.4975 29.588 90.3714 29.9275 91.1527C30.6374 92.7668 32.5306 93.507 34.1459 92.7976C34.2488 92.7462 34.362 92.6948 34.4958 92.6228C34.5472 92.592 34.5883 92.5817 34.6192 92.5817ZM45.7621 90.8032C44.9492 90.8032 44.1467 90.6489 43.3648 90.3508C39.9797 89.0349 38.2923 85.2105 39.6196 81.8179C40.2575 80.1833 41.5025 78.8879 43.1075 78.1785C44.7229 77.4692 46.5132 77.4383 48.1491 78.0757C49.785 78.7131 51.0814 79.9571 51.7914 81.5609C52.5013 83.1749 52.5424 84.9638 51.8942 86.5984C51.2563 88.233 50.0114 89.5284 48.4063 90.2377C47.5626 90.6078 46.6675 90.8032 45.7621 90.8032ZM45.7621 78.0757C44.9287 78.0757 44.085 78.2505 43.2927 78.6C41.7906 79.258 40.6382 80.4608 40.0415 81.9927C38.8171 85.1385 40.381 88.7059 43.5294 89.9396C45.0521 90.5359 46.7292 90.4947 48.2314 89.8368C49.7336 89.1788 50.8859 87.976 51.4827 86.4442C52.0794 84.9226 52.0383 83.2469 51.3798 81.7459C50.7213 80.2449 49.5175 79.0935 47.9845 78.4972C47.2642 78.2094 46.5132 78.0757 45.7621 78.0757Z" fill="black"/>
<path d="M292.337 245.736C298.516 245.736 303.526 241.209 303.526 235.624C303.526 230.038 298.516 225.511 292.337 225.511C286.157 225.511 281.147 230.038 281.147 235.624C281.147 241.209 286.157 245.736 292.337 245.736Z" fill="white"/>
<path d="M292.337 246.054C285.999 246.054 280.83 241.38 280.83 235.624C280.83 229.867 285.984 225.193 292.337 225.193C298.675 225.193 303.844 229.867 303.844 235.624C303.844 241.38 298.675 246.054 292.337 246.054ZM292.337 225.828C286.345 225.828 281.465 230.228 281.465 235.624C281.465 241.019 286.345 245.419 292.337 245.419C298.329 245.419 303.209 241.019 303.209 235.624C303.209 230.228 298.329 225.828 292.337 225.828Z" fill="black"/>
<path d="M306.89 217.432H277.769V235.537H306.89V217.432Z" fill="white"/>
<path d="M306.89 235.854H277.769C277.596 235.854 277.451 235.71 277.451 235.537V217.432C277.451 217.259 277.596 217.115 277.769 217.115H306.89C307.063 217.115 307.207 217.259 307.207 217.432V235.537C307.207 235.725 307.063 235.854 306.89 235.854ZM278.086 235.22H306.572V217.75H278.086V235.22Z" fill="black"/>
<path d="M333.311 167.532C333.311 144.911 314.961 126.59 292.337 126.59C269.713 126.59 251.362 144.926 251.362 167.532C251.362 184.973 262.292 199.861 277.668 205.761V217.432H307.006V205.761C322.382 199.875 333.311 184.987 333.311 167.532Z" fill="white"/>
<path d="M307.006 217.749H277.668C277.495 217.749 277.35 217.605 277.35 217.432V205.978C269.727 203.006 263.201 197.884 258.48 191.162C253.615 184.208 251.03 176.043 251.03 167.532C251.03 144.782 269.554 126.273 292.322 126.273C315.091 126.273 333.614 144.782 333.614 167.532C333.614 176.043 331.045 184.208 326.179 191.162C321.458 197.884 314.946 203.006 307.309 205.978V217.432C307.323 217.605 307.179 217.749 307.006 217.749ZM277.986 217.115H306.688V205.761C306.688 205.631 306.775 205.516 306.89 205.458C322.497 199.471 332.994 184.223 332.994 167.517C332.994 145.113 314.759 126.893 292.337 126.893C269.915 126.893 251.68 145.113 251.68 167.517C251.68 184.223 262.176 199.471 277.784 205.458C277.913 205.502 277.986 205.617 277.986 205.761V217.115Z" fill="black"/>
<path d="M306.789 226.376H277.885C277.712 226.376 277.567 226.232 277.567 226.059C277.567 225.886 277.712 225.742 277.885 225.742H306.789C306.963 225.742 307.107 225.886 307.107 226.059C307.107 226.232 306.963 226.376 306.789 226.376Z" fill="black"/>
<path d="M289.997 212.614C289.853 212.614 289.723 212.513 289.68 212.354L278.173 155.976C278.144 155.803 278.245 155.63 278.418 155.601C278.592 155.572 278.75 155.673 278.794 155.846L290.301 212.224C290.329 212.397 290.228 212.57 290.055 212.599C290.041 212.614 290.026 212.614 289.997 212.614Z" fill="black"/>
<path d="M294.661 212.614C294.647 212.614 294.618 212.614 294.603 212.614C294.43 212.585 294.314 212.412 294.358 212.239L305.865 155.861C305.894 155.688 306.067 155.572 306.24 155.616C306.413 155.644 306.529 155.818 306.486 155.991L294.979 212.368C294.935 212.513 294.805 212.614 294.661 212.614Z" fill="black"/>
<path d="M291.023 161.112C291.009 161.112 290.994 161.112 290.98 161.112C290.835 161.098 290.72 160.982 290.705 160.852L289.059 150.812L286.085 156.784C286.028 156.885 285.926 156.957 285.797 156.957H282.476C282.303 156.957 282.158 156.813 282.158 156.64C282.158 156.467 282.303 156.323 282.476 156.323H285.594L288.915 149.643C288.973 149.513 289.103 149.441 289.247 149.47C289.377 149.485 289.493 149.6 289.507 149.73L291.139 159.655L294.863 150.841C294.921 150.725 295.022 150.639 295.167 150.653C295.297 150.653 295.412 150.74 295.455 150.87L297.39 156.337H301.794C301.967 156.337 302.111 156.481 302.111 156.654C302.111 156.828 301.967 156.972 301.794 156.972H297.174C297.044 156.972 296.914 156.885 296.87 156.755L295.138 151.851L291.297 160.925C291.254 161.04 291.139 161.112 291.023 161.112Z" fill="black"/>
<path d="M213.982 106.538C213.867 103.148 212.943 99.7718 211.051 96.9299C209.174 94.1023 206.33 92.1548 204.049 89.659C202.822 88.3174 201.811 86.7882 201.335 85.0282C200.8 83.0807 200.901 81.0177 201.176 79.0413C201.695 75.1895 203.76 66.3751 199.92 59.8833C196.556 54.1849 189.77 51.141 183.316 51.5161C179.663 51.7325 176.112 52.9299 172.95 54.7476C169.745 56.5941 167.074 59.0754 164.634 61.8309C162.179 64.5863 159.768 67.5725 156.447 69.3469C153.415 70.9627 149.921 71.3954 146.543 71.7272C143.208 72.0446 139.772 72.2466 136.595 73.4151C133.794 74.4394 131.47 76.2571 129.853 78.7528C126.662 83.6433 126.2 89.7168 124.208 95.0977C123.212 97.8243 121.768 100.421 119.472 102.282C116.729 104.504 113.221 105.297 109.799 105.744C106.305 106.206 102.753 106.321 99.3026 107.172C96.2418 107.923 93.3831 109.351 90.9142 111.298C85.9765 115.193 82.5547 121.079 81.804 127.355C80.981 134.164 83.6231 140.872 87.9833 146.051C92.8489 151.836 99.5913 155.529 106.767 157.664C114.044 159.843 121.753 160.651 129.333 160.708C136.523 160.752 143.728 160.016 150.773 158.53C157.819 157.044 164.706 154.822 171.289 151.908C177.873 148.994 184.154 145.402 189.958 141.175C195.834 136.905 201.407 131.971 206.041 126.359C210.661 120.748 214.256 113.982 213.982 106.538Z" fill="black"/>
<path d="M143.512 189.46C143.512 189.46 128.973 223.52 129.161 263.683H248.114L203.342 182.91L143.512 189.46Z" fill="white"/>
<path d="M248.128 264C248.013 264 247.912 263.942 247.854 263.841L203.183 183.256L143.743 189.777C142.646 192.446 129.305 225.511 129.493 263.697C129.493 263.87 129.348 264.014 129.175 264.014C129.002 264.014 128.858 263.87 128.858 263.697C128.655 223.924 143.079 189.69 143.238 189.359C143.281 189.258 143.382 189.186 143.498 189.171L203.342 182.607C203.472 182.593 203.588 182.65 203.66 182.766L248.431 263.538C248.518 263.697 248.46 263.885 248.302 263.971C248.229 263.986 248.172 264 248.128 264Z" fill="black"/>
<path d="M185.049 262.384C185.035 262.384 185.02 262.384 185.006 262.384C184.833 262.37 184.703 262.211 184.732 262.023L186.536 247.352C187.085 242.894 190.016 239.071 194.188 237.383L195.892 236.691C196.051 236.619 196.238 236.705 196.311 236.864C196.383 237.023 196.296 237.21 196.137 237.282L194.434 237.975C190.478 239.576 187.706 243.197 187.186 247.424L185.381 262.096C185.352 262.269 185.208 262.384 185.049 262.384Z" fill="black"/>
<path d="M250.294 94.2176C250.294 94.2176 268.183 95.0399 278.823 87.798L265.743 56.7671C265.743 56.7671 267.244 54.7475 266.306 52.0065C265.382 49.2655 263.288 45.8753 260.372 48.0248C260.372 48.0248 258.062 44.8944 256.142 48.977C256.142 48.977 252.763 44.6203 249.789 50.8812L245.761 43.0478C245.111 41.7783 243.581 41.2157 242.252 41.7639C240.982 42.2976 240.289 43.697 240.664 45.0242L244.808 60.1717C244.808 60.1717 241.805 64.9612 242.931 68.6976C244.057 72.4629 250.294 94.2176 250.294 94.2176Z" fill="white"/>
<path d="M250.294 94.5351C250.149 94.5351 250.034 94.4485 249.991 94.3043C249.933 94.0879 243.739 72.5062 242.627 68.8131C241.559 65.2643 243.999 60.9364 244.461 60.143L240.361 45.1252C239.956 43.6393 240.722 42.0813 242.136 41.4898C243.595 40.8839 245.313 41.5043 246.049 42.918L249.803 50.2033C250.785 48.3567 251.925 47.3613 253.181 47.217C254.495 47.0728 255.578 47.9239 256.083 48.4433C256.704 47.2892 257.441 46.6689 258.263 46.5823C259.26 46.4813 260.083 47.217 260.444 47.621C261.31 47.0584 262.162 46.9141 262.999 47.1738C265.035 47.8229 266.219 50.7082 266.623 51.92C267.46 54.3725 266.45 56.2623 266.118 56.8105L279.126 87.6826C279.198 87.8413 279.112 88.0289 278.953 88.101C278.794 88.1731 278.606 88.0866 278.534 87.9279L265.453 56.897C265.41 56.7961 265.425 56.6807 265.497 56.5797C265.555 56.5075 266.883 54.6466 266.017 52.1075C265.222 49.7705 264.024 48.1403 262.797 47.7508C262.089 47.5344 261.339 47.7075 260.559 48.2702C260.415 48.3711 260.227 48.3423 260.111 48.198C260.097 48.1836 259.274 47.0872 258.307 47.1882C257.628 47.2603 256.993 47.8951 256.43 49.1069C256.387 49.2079 256.285 49.28 256.184 49.2944C256.083 49.3089 255.968 49.2656 255.896 49.179C255.881 49.1646 254.697 47.6787 253.239 47.8374C252.099 47.9672 251.03 49.0348 250.092 51.0256C250.034 51.141 249.933 51.1987 249.803 51.2131C249.673 51.2131 249.572 51.141 249.514 51.04L245.486 43.2066C244.908 42.0957 243.551 41.5908 242.396 42.0813C241.27 42.543 240.664 43.7836 240.981 44.9666L245.125 60.1141C245.154 60.2007 245.139 60.2872 245.082 60.3593C245.053 60.4026 242.165 65.0623 243.248 68.6256C244.36 72.3331 250.554 93.9148 250.611 94.1311C250.655 94.3043 250.568 94.4774 250.395 94.5207C250.352 94.5207 250.323 94.5351 250.294 94.5351Z" fill="black"/>
<path d="M253.658 73.5017C253.543 73.5017 253.427 73.4296 253.369 73.3142C253.297 73.1555 253.369 72.9679 253.528 72.8958C254.438 72.4919 254.712 71.2801 254.582 70.328C254.495 69.7365 254.308 69.1739 254.106 68.5824C253.947 68.1063 253.774 67.6158 253.672 67.1109C253.153 64.6873 254.192 61.9607 256.185 60.4893C256.473 60.2729 256.777 60.0853 257.08 59.9122C257.527 59.6381 257.932 59.3784 258.293 59.0466C258.783 58.5994 259.274 57.806 259.029 57.0702C258.87 56.5942 258.394 56.1902 257.787 56.0316C257.239 55.8729 256.647 55.9017 255.925 56.0027C252.142 56.4643 248.561 57.9502 245.544 60.2729C245.4 60.3739 245.212 60.3594 245.096 60.2152C244.995 60.0709 245.01 59.8834 245.154 59.7679C248.258 57.3732 251.954 55.844 255.838 55.3679C256.517 55.2814 257.253 55.2381 257.946 55.4257C258.755 55.6421 259.39 56.2047 259.621 56.8827C259.953 57.907 259.332 58.9457 258.711 59.5227C258.307 59.8978 257.845 60.1719 257.397 60.4604C257.109 60.6335 256.82 60.8211 256.56 61.0086C254.755 62.3358 253.831 64.7883 254.293 66.9811C254.394 67.4571 254.553 67.9332 254.712 68.3804C254.914 68.9863 255.131 69.5922 255.217 70.2558C255.391 71.4388 255.015 72.9535 253.802 73.4873C253.745 73.4873 253.701 73.5017 253.658 73.5017Z" fill="black"/>
<path d="M251.507 56.8826C251.362 56.8826 251.232 56.7816 251.203 56.6373C250.799 54.7619 250.207 52.901 249.457 51.141C249.384 50.9823 249.456 50.7947 249.63 50.7226C249.789 50.6505 249.976 50.7226 250.048 50.8957C250.814 52.699 251.42 54.5888 251.839 56.5075C251.882 56.6806 251.767 56.8537 251.593 56.8826C251.55 56.8826 251.521 56.8826 251.507 56.8826Z" fill="black"/>
<path d="M258.278 56.0314C258.148 56.0314 258.018 55.9449 257.975 55.815L255.766 49.3954C255.708 49.2367 255.795 49.0491 255.968 48.9914C256.141 48.9337 256.314 49.0203 256.372 49.1934L258.581 55.6131C258.639 55.7718 258.552 55.9593 258.379 56.017C258.35 56.0314 258.321 56.0314 258.278 56.0314Z" fill="black"/>
<path d="M260.963 60.7921C260.458 60.7921 259.952 60.5901 259.562 60.2439C259.173 59.8976 258.956 59.436 258.956 58.9599C258.956 58.7868 259.1 58.6426 259.274 58.6426C259.447 58.6426 259.591 58.7868 259.591 58.9599C259.591 59.2485 259.721 59.537 259.981 59.7678C260.284 60.0419 260.717 60.1862 261.107 60.1429C261.815 60.0563 262.479 59.4793 262.797 58.657C263.114 57.8203 263.071 56.8681 262.984 56.1324C262.71 53.4924 261.8 50.939 260.357 48.7173C260.255 48.5731 260.299 48.3711 260.443 48.2845C260.588 48.1835 260.79 48.2268 260.876 48.3711C262.378 50.6793 263.316 53.3337 263.605 56.0747C263.692 56.8826 263.735 57.9357 263.374 58.8878C262.984 59.9265 262.118 60.6622 261.165 60.7776C261.107 60.7776 261.035 60.7921 260.963 60.7921Z" fill="black"/>
<path d="M263.331 58.7868C263.158 58.7868 263.014 58.6425 263.014 58.4839C263.014 58.3107 263.144 58.1665 263.317 58.1665C264.039 58.1521 264.746 57.7337 265.093 57.0989C265.179 56.9402 265.367 56.897 265.526 56.9835C265.685 57.0701 265.728 57.2576 265.641 57.4163C265.194 58.2098 264.284 58.758 263.331 58.7868Z" fill="black"/>
<mask id="path-26-inside-1_3724_5056" fill="white">
<path fill-rule="evenodd" clip-rule="evenodd" d="M250.294 94.2178L278.823 87.7981C287.024 106.018 294.271 125.811 282.996 135.967C275.656 142.583 248.672 143.681 231.305 143.668C229.309 152.807 225.995 160.333 225.995 160.333C225.995 160.333 219.108 179.708 213.361 188.334C207.63 196.961 180.602 199.342 150.211 195.677C119.819 191.999 140.725 157.102 140.725 157.102C133.203 168.383 126.634 178.077 122.086 184.728C117.408 191.58 108.529 194.249 100.905 190.96C88.8354 185.752 82.5406 173.028 89.7306 140.483C90.7289 135.973 94.919 135.685 99.5017 135.369C102.938 135.133 106.596 134.881 109.294 132.822C122.49 122.738 137.245 116.376 145.691 113.232C149.907 111.659 154.34 110.765 158.844 110.577C165.647 110.291 177.134 109.993 188.757 110.101C188.72 110.053 188.682 110.005 188.645 109.957C214.387 110.332 252.618 109.005 252.618 109.005L250.294 94.2178Z"/>
</mask>
<path fill-rule="evenodd" clip-rule="evenodd" d="M250.294 94.2178L278.823 87.7981C287.024 106.018 294.271 125.811 282.996 135.967C275.656 142.583 248.672 143.681 231.305 143.668C229.309 152.807 225.995 160.333 225.995 160.333C225.995 160.333 219.108 179.708 213.361 188.334C207.63 196.961 180.602 199.342 150.211 195.677C119.819 191.999 140.725 157.102 140.725 157.102C133.203 168.383 126.634 178.077 122.086 184.728C117.408 191.58 108.529 194.249 100.905 190.96C88.8354 185.752 82.5406 173.028 89.7306 140.483C90.7289 135.973 94.919 135.685 99.5017 135.369C102.938 135.133 106.596 134.881 109.294 132.822C122.49 122.738 137.245 116.376 145.691 113.232C149.907 111.659 154.34 110.765 158.844 110.577C165.647 110.291 177.134 109.993 188.757 110.101C188.72 110.053 188.682 110.005 188.645 109.957C214.387 110.332 252.618 109.005 252.618 109.005L250.294 94.2178Z" fill="#FF722C"/>
<path d="M278.823 87.7981L279.735 87.3877L279.4 86.6433L278.604 86.8225L278.823 87.7981ZM250.294 94.2178L250.074 93.2422L249.161 93.4478L249.306 94.3731L250.294 94.2178ZM282.996 135.967L282.326 135.224L282.326 135.225L282.996 135.967ZM231.305 143.668L231.305 142.668L230.499 142.667L230.328 143.455L231.305 143.668ZM225.995 160.333L225.079 159.93L225.065 159.964L225.052 159.998L225.995 160.333ZM213.361 188.334L212.529 187.78L212.529 187.781L213.361 188.334ZM150.211 195.677L150.09 196.67L150.091 196.67L150.211 195.677ZM140.725 157.102L141.583 157.616L139.893 156.547L140.725 157.102ZM122.086 184.728L121.26 184.163L121.26 184.164L122.086 184.728ZM100.905 190.96L100.509 191.878H100.509L100.905 190.96ZM89.7306 140.483L88.7542 140.267L88.7541 140.267L89.7306 140.483ZM99.5017 135.369L99.5703 136.367H99.5703L99.5017 135.369ZM109.294 132.822L109.9 133.617L109.901 133.617L109.294 132.822ZM145.691 113.232L146.04 114.169L146.041 114.168L145.691 113.232ZM158.844 110.577L158.886 111.576L158.886 111.576L158.844 110.577ZM188.757 110.101L188.748 111.101L190.819 111.121L189.546 109.487L188.757 110.101ZM188.645 109.957L188.659 108.957L186.572 108.926L187.856 110.572L188.645 109.957ZM252.618 109.005L252.653 110.004L253.782 109.965L253.606 108.849L252.618 109.005ZM278.604 86.8225L250.074 93.2422L250.513 95.1934L279.043 88.7737L278.604 86.8225ZM283.665 136.71C289.678 131.294 290.65 123.373 289.199 114.741C287.748 106.106 283.835 96.4983 279.735 87.3877L277.911 88.2085C282.011 97.3182 285.823 106.717 287.227 115.073C288.631 123.431 287.589 130.484 282.326 135.224L283.665 136.71ZM231.304 144.668C240.002 144.674 251.133 144.403 261.022 143.297C265.965 142.744 270.624 141.98 274.525 140.929C278.395 139.886 281.649 138.528 283.665 136.71L282.326 135.225C280.673 136.715 277.802 137.975 274.005 138.998C270.239 140.013 265.691 140.763 260.799 141.31C251.019 142.403 239.974 142.674 231.305 142.668L231.304 144.668ZM225.995 160.333C226.91 160.736 226.91 160.736 226.91 160.736C226.91 160.736 226.91 160.736 226.91 160.736C226.91 160.735 226.91 160.735 226.911 160.734C226.911 160.733 226.912 160.731 226.913 160.729C226.915 160.725 226.917 160.719 226.921 160.711C226.928 160.696 226.937 160.673 226.95 160.643C226.976 160.583 227.014 160.496 227.062 160.381C227.159 160.153 227.298 159.818 227.471 159.388C227.817 158.529 228.299 157.29 228.843 155.764C229.931 152.713 231.272 148.505 232.282 143.881L230.328 143.455C229.342 147.971 228.028 152.095 226.959 155.092C226.425 156.59 225.954 157.803 225.616 158.641C225.447 159.059 225.312 159.384 225.22 159.603C225.174 159.712 225.138 159.795 225.114 159.85C225.102 159.878 225.093 159.898 225.088 159.912C225.085 159.918 225.082 159.923 225.081 159.926C225.08 159.928 225.08 159.929 225.08 159.93C225.079 159.93 225.079 159.93 225.079 159.93C225.079 159.93 225.079 159.93 225.079 159.93C225.079 159.93 225.079 159.93 225.995 160.333ZM214.194 188.889C217.128 184.484 220.318 177.4 222.757 171.48C223.982 168.507 225.026 165.806 225.764 163.848C226.133 162.869 226.426 162.075 226.627 161.525C226.727 161.251 226.804 161.037 226.857 160.892C226.883 160.819 226.903 160.763 226.916 160.726C226.923 160.707 226.928 160.693 226.931 160.683C226.933 160.678 226.934 160.675 226.935 160.672C226.936 160.671 226.936 160.67 226.936 160.669C226.937 160.669 226.937 160.669 226.937 160.668C226.937 160.668 226.937 160.668 225.995 160.333C225.052 159.998 225.052 159.998 225.052 159.998C225.052 159.998 225.052 159.999 225.052 159.999C225.052 159.999 225.052 160 225.051 160.001C225.05 160.004 225.049 160.007 225.048 160.011C225.044 160.02 225.04 160.034 225.033 160.052C225.02 160.089 225.001 160.143 224.975 160.214C224.924 160.357 224.847 160.568 224.748 160.84C224.55 161.383 224.259 162.171 223.893 163.143C223.16 165.087 222.123 167.768 220.908 170.718C218.467 176.642 215.341 183.558 212.529 187.78L214.194 188.889ZM150.091 196.67C165.338 198.509 179.772 198.835 191.141 197.609C196.823 196.997 201.774 195.993 205.69 194.577C209.579 193.171 212.585 191.31 214.194 188.888L212.529 187.781C211.272 189.673 208.75 191.344 205.01 192.696C201.297 194.039 196.517 195.018 190.926 195.621C179.75 196.826 165.474 196.511 150.33 194.685L150.091 196.67ZM140.725 157.102C139.867 156.588 139.867 156.588 139.866 156.589C139.866 156.589 139.866 156.59 139.865 156.591C139.865 156.592 139.863 156.594 139.862 156.596C139.859 156.601 139.855 156.609 139.849 156.618C139.838 156.636 139.823 156.663 139.802 156.698C139.762 156.767 139.703 156.869 139.628 157.001C139.478 157.264 139.264 157.649 139.003 158.138C138.482 159.116 137.774 160.515 137.02 162.204C135.517 165.574 133.816 170.142 133.083 174.856C132.352 179.556 132.563 184.541 135.054 188.619C137.571 192.742 142.285 195.725 150.09 196.67L150.331 194.685C142.94 193.79 138.87 191.032 136.76 187.577C134.623 184.077 134.362 179.648 135.059 175.164C135.754 170.694 137.38 166.308 138.846 163.019C139.578 161.38 140.265 160.023 140.768 159.079C141.02 158.606 141.225 158.238 141.367 157.988C141.438 157.864 141.493 157.769 141.529 157.706C141.548 157.675 141.562 157.651 141.57 157.636C141.575 157.629 141.578 157.623 141.58 157.62C141.581 157.618 141.582 157.617 141.582 157.616C141.583 157.616 141.583 157.616 141.583 157.615C141.583 157.615 141.583 157.616 140.725 157.102ZM122.911 185.292C127.461 178.639 134.033 168.941 141.557 157.656L139.893 156.547C132.373 167.825 125.806 177.516 121.26 184.163L122.911 185.292ZM100.509 191.878C108.581 195.361 117.969 192.532 122.912 185.292L121.26 184.164C116.846 190.629 108.476 193.137 101.302 190.042L100.509 191.878ZM88.7541 140.267C85.146 156.599 84.8836 168.106 87.1317 176.239C89.4011 184.45 94.2137 189.162 100.509 191.878L101.302 190.042C95.5272 187.55 91.1574 183.297 89.0594 175.707C86.94 168.039 87.1252 156.912 90.707 140.698L88.7541 140.267ZM99.433 134.372C97.1879 134.526 94.8266 134.68 92.9111 135.421C91.9298 135.8 91.0264 136.347 90.2937 137.153C89.5578 137.964 89.0366 138.991 88.7542 140.267L90.7069 140.699C90.9237 139.72 91.3007 139.02 91.7744 138.498C92.2513 137.973 92.869 137.582 93.6328 137.286C95.2076 136.677 97.2327 136.528 99.5703 136.367L99.433 134.372ZM108.687 132.027C106.272 133.871 102.945 134.13 99.433 134.372L99.5703 136.367C102.932 136.136 106.92 135.892 109.9 133.617L108.687 132.027ZM145.343 112.294C136.853 115.455 121.994 121.859 108.687 132.028L109.901 133.617C122.986 123.618 137.638 117.297 146.04 114.169L145.343 112.294ZM158.803 109.578C154.193 109.77 149.657 110.685 145.342 112.295L146.041 114.168C150.158 112.633 154.486 111.759 158.886 111.576L158.803 109.578ZM188.766 109.101C177.123 108.993 165.619 109.291 158.802 109.578L158.886 111.576C165.676 111.29 177.144 110.993 188.748 111.101L188.766 109.101ZM187.856 110.572C187.894 110.62 187.931 110.668 187.968 110.716L189.546 109.487C189.508 109.438 189.471 109.39 189.433 109.341L187.856 110.572ZM252.618 109.005C252.584 108.005 252.584 108.005 252.583 108.005C252.583 108.005 252.583 108.005 252.582 108.005C252.581 108.005 252.579 108.005 252.577 108.005C252.572 108.006 252.565 108.006 252.556 108.006C252.538 108.007 252.51 108.008 252.474 108.009C252.401 108.012 252.292 108.015 252.149 108.02C251.863 108.03 251.44 108.044 250.893 108.061C249.798 108.097 248.205 108.147 246.213 108.207C242.228 108.325 236.647 108.479 230.263 108.622C217.49 108.906 201.511 109.144 188.659 108.957L188.63 110.957C201.52 111.144 217.529 110.906 230.307 110.621C236.698 110.479 242.284 110.324 246.272 110.206C248.266 110.146 249.861 110.096 250.958 110.06C251.506 110.043 251.93 110.029 252.216 110.019C252.36 110.014 252.469 110.01 252.542 110.008C252.579 110.007 252.606 110.006 252.625 110.005C252.634 110.005 252.641 110.004 252.646 110.004C252.648 110.004 252.65 110.004 252.651 110.004C252.652 110.004 252.652 110.004 252.653 110.004C252.653 110.004 252.653 110.004 252.618 109.005ZM249.306 94.3731L251.631 109.16L253.606 108.849L251.282 94.0625L249.306 94.3731Z" fill="black" mask="url(#path-26-inside-1_3724_5056)"/>
<path d="M99.9958 92.6165C96.0687 89.4716 92.4015 85.3457 90.3658 87.3942C88.3445 89.4428 93.7443 94.9536 93.7443 94.9536C87.5504 94.0159 83.7822 86.2978 81.3566 87.2211C78.9311 88.1444 80.6925 92.0251 80.6925 92.0251C80.6925 92.0251 78.2958 87.1634 75.4227 88.9523C72.5496 90.7411 76.7076 95.8769 76.7076 95.8769C76.7076 95.8769 73.0116 91.5634 70.6149 94.9247C68.2182 98.286 79.5952 104.864 79.5952 104.864C77.314 103.71 73.5891 103.177 73.0116 104.908C72.4341 106.639 76.6066 108.485 80.808 111.068C85.0238 113.65 91.6508 115.352 91.6508 115.352C90.8711 123.878 89.9904 131.322 89.6439 137.583C89.4707 140.569 91.492 143.267 94.4084 143.945C94.9859 144.075 95.549 144.19 96.1265 144.306C101.079 145.215 106.175 145.215 111.156 144.594L111.214 144.58C114.52 144.161 116.816 141.089 116.267 137.814C114.982 130.053 112.355 117.531 111.243 109.784C109.814 99.5123 103.923 95.7615 99.9958 92.6165Z" fill="white"/>
<path d="M89.7307 140.786C89.5575 140.786 89.4131 140.641 89.4131 140.468C89.4997 133.5 90.0773 125.826 91.3045 115.597C90.0051 115.251 84.3599 113.636 80.6349 111.356C79.7398 110.808 78.8591 110.303 77.9928 109.798C74.5999 107.851 72.1599 106.437 72.6941 104.821C72.853 104.345 73.2139 103.984 73.7625 103.754C74.6288 103.393 75.8705 103.436 77.0832 103.681C74.47 101.936 70.5285 98.964 70.0087 96.526C69.8643 95.8624 69.9798 95.2565 70.3408 94.7516C70.976 93.8572 71.7701 93.3811 72.6941 93.3378C73.5748 93.2945 74.4267 93.6696 75.1486 94.1313C74.5133 92.9916 73.9214 91.549 74.1235 90.3516C74.239 89.6447 74.6144 89.0821 75.2496 88.6926C75.9571 88.2454 76.6934 88.1444 77.4442 88.3463C78.3826 88.6204 79.2056 89.3706 79.812 90.1063C79.7254 89.4572 79.7254 88.7503 79.9708 88.1444C80.2018 87.5673 80.6349 87.149 81.2413 86.9181C82.5119 86.4276 83.9268 87.7981 85.7315 89.5437C87.6373 91.3903 89.9618 93.6408 92.8349 94.4342C91.3622 92.7752 88.3592 88.9811 90.1495 87.1778C91.983 85.3313 94.7118 87.6972 97.8881 90.4237C98.6389 91.0729 99.4185 91.7509 100.213 92.3713C100.545 92.6454 100.906 92.9195 101.267 93.1935C105.064 96.1509 110.261 100.219 111.618 109.726C111.705 110.361 112.384 114.011 113.163 118.237C114.318 124.513 115.762 132.332 115.935 133.717C115.95 133.89 115.834 134.049 115.661 134.063C115.488 134.077 115.329 133.962 115.315 133.789C115.156 132.433 113.712 124.628 112.557 118.353C111.777 114.126 111.099 110.462 111.012 109.813C109.698 100.551 104.818 96.7424 100.906 93.684C100.545 93.3955 100.184 93.1214 99.8516 92.8473C99.0576 92.2126 98.2779 91.5345 97.5127 90.8854C94.5819 88.3608 92.0552 86.1824 90.6403 87.6106C89.1532 89.1109 92.575 93.2513 94.0188 94.7227C94.1198 94.8237 94.1343 94.968 94.0765 95.0834C94.0188 95.1988 93.8744 95.2709 93.7445 95.2565C90.2216 94.7227 87.5073 92.0972 85.3272 89.9909C83.7535 88.4762 82.4108 87.1634 81.5156 87.5096C81.0681 87.6827 80.7793 87.9568 80.6061 88.3752C80.0574 89.7168 81.0248 91.8519 81.0248 91.8808C81.0969 92.0395 81.0248 92.227 80.8659 92.2991C80.7071 92.3713 80.5194 92.3135 80.4472 92.1549C80.4328 92.126 79.0901 89.4572 77.3142 88.9522C76.7367 88.7935 76.1737 88.8801 75.625 89.2263C75.163 89.5149 74.8887 89.9188 74.8021 90.4526C74.4556 92.5155 76.9677 95.6604 76.9966 95.6893C77.1121 95.8191 77.0832 96.0211 76.9533 96.1365C76.8234 96.2519 76.6212 96.2375 76.5057 96.0932C76.4913 96.0644 74.5855 93.886 72.7663 93.9726C72.0589 94.0014 71.4236 94.3909 70.9039 95.1267C70.644 95.4873 70.5718 95.9057 70.6729 96.3962C71.3947 99.7286 79.6965 104.547 79.7831 104.59C79.9275 104.677 79.9852 104.864 79.8986 105.023C79.812 105.167 79.6243 105.239 79.4799 105.153C77.8773 104.345 75.3507 103.811 74.0513 104.331C73.6759 104.489 73.4449 104.706 73.3438 105.009C72.9685 106.119 75.4662 107.562 78.3538 109.236C79.22 109.726 80.1007 110.245 81.0103 110.794C85.1251 113.318 91.7087 115.02 91.7665 115.035C91.9253 115.078 92.0264 115.222 91.9975 115.381C90.7558 125.725 90.1639 133.457 90.0773 140.468C90.0484 140.641 89.9184 140.786 89.7307 140.786Z" fill="black"/>
<path d="M83.4652 106.985C83.4219 106.985 83.3641 106.971 83.3208 106.956L79.8557 105.153C79.6969 105.066 79.6392 104.879 79.7258 104.72C79.8124 104.561 80.0001 104.504 80.1589 104.59L83.624 106.394C83.7828 106.48 83.8406 106.668 83.7539 106.826C83.6817 106.913 83.5807 106.985 83.4652 106.985Z" fill="black"/>
<path d="M86.0487 101.618C86.0054 101.618 85.9621 101.604 85.9332 101.59C82.7714 100.291 79.7972 98.56 77.0829 96.4538C76.9385 96.3528 76.9241 96.1509 77.0251 96.0066C77.1262 95.8623 77.3283 95.8479 77.4727 95.9489C80.1292 98.0118 83.0601 99.7141 86.1642 100.998C86.3231 101.07 86.4097 101.243 86.3375 101.416C86.2942 101.546 86.1787 101.618 86.0487 101.618Z" fill="black"/>
<path d="M89.1098 97.5502C89.0809 97.5502 89.0376 97.5502 89.0087 97.5358C86.0201 96.5693 83.2047 94.9535 80.8513 92.8473C80.7214 92.7319 80.707 92.5299 80.8225 92.4001C80.938 92.2702 81.1401 92.2558 81.27 92.3712C83.5512 94.4053 86.2944 95.9778 89.1964 96.9299C89.3696 96.9876 89.4563 97.1607 89.3985 97.3339C89.3696 97.4637 89.2397 97.5502 89.1098 97.5502Z" fill="black"/>
<path d="M95.1016 104.908C94.9428 104.908 94.7984 104.792 94.784 104.619C94.6685 103.537 94.8562 102.47 95.0439 101.445C95.1305 100.998 95.2171 100.522 95.2749 100.06C95.4048 99.0361 95.4193 97.1751 94.2065 96.1797C94.0766 96.0643 94.0477 95.8624 94.1632 95.7325C94.2787 95.6027 94.4808 95.5738 94.6107 95.6892C96.069 96.8866 96.0401 98.9928 95.9101 100.133C95.8524 100.609 95.7658 101.085 95.6791 101.546C95.4915 102.585 95.3182 103.552 95.4193 104.533C95.4337 104.706 95.3182 104.864 95.1449 104.879C95.1305 104.908 95.1161 104.908 95.1016 104.908Z" fill="black"/>
<path d="M95.2022 117.516C95.13 117.516 95.0578 117.487 95.0001 117.444C94.206 116.766 93.3108 116.218 92.3435 115.828C92.1847 115.771 92.0981 115.583 92.1703 115.41C92.2425 115.251 92.4157 115.165 92.589 115.237C93.6285 115.655 94.5814 116.232 95.4332 116.954C95.5631 117.069 95.5776 117.271 95.4621 117.401C95.3755 117.473 95.2888 117.516 95.2022 117.516Z" fill="black"/>
<path d="M118.939 164.17C118.765 164.17 118.635 164.041 118.621 163.867L117.336 142.747C117.322 142.574 117.452 142.416 117.639 142.416C117.812 142.401 117.971 142.531 117.971 142.719L119.256 163.839C119.271 164.012 119.141 164.17 118.953 164.17H118.939Z" fill="black"/>
<path d="M177.483 84.682L173.686 106.033C173.383 107.721 172.011 109.005 170.308 109.192L156.058 110.765C156.058 110.765 166.742 119.536 187.157 119.132C207.572 118.728 212.091 110.995 212.091 110.995L196.325 109.264C194.318 109.048 192.816 107.346 192.831 105.326L192.99 92.5732C192.99 92.5732 181.901 82.2296 177.483 84.682Z" fill="white"/>
<path d="M176.199 83.6146C175.275 84.1772 174.856 85.3746 175.073 86.4133C175.304 87.4664 176.098 88.332 177.079 88.7792C178.061 89.2264 179.187 89.2841 180.241 89.0677C181.238 92.4435 192.918 98.6035 196.7 94.4054C199.357 91.4625 198.924 83.9176 197.957 80.0513C196.989 76.1995 195.314 72.5208 194.679 68.6113C190.247 69.6644 185.843 71.1503 182.104 73.7471C181.281 74.3241 180.472 74.9589 179.88 75.7812C179.288 76.6035 178.942 77.6277 179.086 78.6231C179.245 79.6474 179.909 80.513 180.212 81.494C180.443 82.2297 180.386 83.9753 179.303 84.033C178.812 84.0618 178.321 83.4848 177.83 83.3694C177.296 83.2395 176.69 83.3117 176.199 83.6146Z" fill="white"/>
<path d="M192.903 96.151C192.095 96.151 191.2 96.0356 190.232 95.8192C185.887 94.8238 181.007 91.751 180.039 89.4428C179.202 89.5726 178.061 89.5871 176.95 89.0821C175.838 88.5772 175 87.5818 174.769 86.4854C174.51 85.2736 175.044 83.9464 176.04 83.3405C176.589 83.0087 177.282 82.9077 177.931 83.0664C178.191 83.1241 178.422 83.2828 178.653 83.4271C178.884 83.5713 179.13 83.73 179.303 83.73C179.491 83.7156 179.635 83.6434 179.75 83.4703C180.068 83.0087 180.068 82.071 179.924 81.6094C179.808 81.2198 179.621 80.8448 179.433 80.4553C179.159 79.8926 178.884 79.33 178.783 78.6808C178.624 77.671 178.928 76.5746 179.635 75.608C180.285 74.6992 181.165 74.0356 181.931 73.5018C185.208 71.2369 189.236 69.5923 194.621 68.3228C194.708 68.3084 194.795 68.3228 194.867 68.3661C194.939 68.4093 194.997 68.4959 194.997 68.5825C195.372 70.8762 196.123 73.1411 196.845 75.3195C197.35 76.8487 197.87 78.4211 198.274 80.008C199.314 84.1628 199.602 91.6933 196.946 94.6507C196.036 95.6316 194.65 96.151 192.903 96.151ZM180.241 88.7648C180.386 88.7648 180.501 88.8513 180.545 88.9956C181.108 90.9143 185.757 94.1457 190.377 95.1989C192.34 95.6461 194.997 95.8336 196.469 94.2034C198.982 91.4192 198.664 84.1772 197.653 80.1523C197.264 78.5943 196.744 77.0218 196.238 75.5215C195.545 73.4153 194.824 71.2513 194.434 69.0297C189.294 70.2703 185.425 71.8716 182.292 74.0356C181.555 74.5405 180.732 75.1752 180.14 75.9975C179.548 76.8198 179.274 77.772 179.404 78.6087C179.491 79.1569 179.736 79.6618 179.996 80.1956C180.184 80.5851 180.386 81.0034 180.516 81.4362C180.689 82.0133 180.732 83.1674 180.256 83.8454C180.025 84.1772 179.707 84.3648 179.317 84.3792C178.942 84.3936 178.595 84.1772 178.292 83.9752C178.105 83.8598 177.917 83.73 177.758 83.7012C177.267 83.5857 176.747 83.6579 176.343 83.9031C175.564 84.3792 175.159 85.4035 175.361 86.37C175.549 87.2644 176.257 88.0867 177.195 88.5195C178.263 89.01 179.404 88.9379 180.155 88.7936C180.198 88.7648 180.227 88.7648 180.241 88.7648Z" fill="black"/>
<path d="M181.122 87.1633C181.064 87.1633 181.006 87.1488 180.963 87.12C179.996 86.5429 178.942 86.139 177.844 85.937C177.671 85.9082 177.556 85.7351 177.585 85.5619C177.613 85.3888 177.787 85.2734 177.96 85.3023C179.144 85.5187 180.27 85.9514 181.295 86.5718C181.439 86.6583 181.497 86.8603 181.396 87.0046C181.324 87.12 181.223 87.1633 181.122 87.1633Z" fill="black"/>
<path d="M202.359 65.9279L177.945 72.6506C175.664 73.2853 174.335 75.6368 174.956 77.9017L176.761 84.4512C177.396 86.7306 179.75 88.0578 182.016 87.4374L190.39 85.1292C190.13 83.1673 191.343 81.2774 193.292 80.7292C195.256 80.1955 197.263 81.2053 198.042 83.0086L206.416 80.7004C208.697 80.0801 210.026 77.7142 209.405 75.4492L207.6 68.8997C206.979 66.6348 204.626 65.3076 202.359 65.9279Z" fill="#5479F7"/>
<path d="M177.873 76.9928C177.728 76.9928 177.613 76.9063 177.57 76.762C177.526 76.5889 177.627 76.4158 177.786 76.3725L204.366 69.044C204.539 69.0007 204.713 69.1017 204.756 69.2604C204.799 69.4335 204.698 69.6066 204.539 69.6499L177.959 76.9784C177.931 76.9928 177.902 76.9928 177.873 76.9928Z" fill="black"/>
<path d="M178.898 80.6716C178.754 80.6716 178.638 80.585 178.595 80.4407C178.552 80.2676 178.653 80.0945 178.812 80.0512L205.392 72.7227C205.565 72.6794 205.738 72.7804 205.781 72.9391C205.825 73.1122 205.724 73.2853 205.565 73.3286L178.985 80.6571C178.956 80.6715 178.927 80.6716 178.898 80.6716Z" fill="black"/>
<path d="M342.406 106.783C371.83 106.783 395.682 82.9498 395.682 53.5502C395.682 24.1505 371.83 0.317383 342.406 0.317383C312.983 0.317383 289.131 24.1505 289.131 53.5502C289.131 82.9498 312.983 106.783 342.406 106.783Z" fill="white"/>
<path d="M342.407 107.086C312.852 107.086 288.813 83.0662 288.813 53.5357C288.828 24.0197 312.867 0 342.407 0C371.961 0 396 24.0197 396 53.5502C396 83.0662 371.961 107.086 342.407 107.086ZM342.407 0.634754C313.213 0.634754 289.449 24.3659 289.449 53.5502C289.449 82.7344 313.199 106.466 342.407 106.466C371.6 106.466 395.364 82.7344 395.364 53.5502C395.364 24.3659 371.614 0.634754 342.407 0.634754Z" fill="black"/>
<path d="M330.424 84.4368C330.351 84.4368 330.294 84.4224 330.236 84.3791L308.709 68.3516C308.622 68.2939 308.579 68.1929 308.579 68.0919V25.0873C308.579 24.9719 308.651 24.8565 308.752 24.7988C308.853 24.7411 308.983 24.7555 309.084 24.8276L330.611 40.8552C330.698 40.9129 330.741 41.0139 330.741 41.1149V84.1194C330.741 84.2348 330.669 84.3503 330.568 84.408C330.525 84.4224 330.467 84.4368 330.424 84.4368ZM309.214 67.9332L330.106 83.4847V41.2735L309.214 25.7221V67.9332Z" fill="black"/>
<path d="M378.053 84.4368C377.981 84.4368 377.923 84.4224 377.866 84.3791L356.339 68.3516C356.252 68.2939 356.209 68.1929 356.209 68.0919V25.0873C356.209 24.9719 356.281 24.8565 356.382 24.7988C356.483 24.7411 356.613 24.7555 356.714 24.8276L378.241 40.8552C378.328 40.9129 378.371 41.0139 378.371 41.1149V84.1194C378.371 84.2348 378.299 84.3503 378.198 84.408C378.14 84.4224 378.097 84.4368 378.053 84.4368ZM356.844 67.9332L377.736 83.4847V41.2735L356.844 25.7221V67.9332Z" fill="black"/>
<path d="M378.053 84.379H330.423C330.25 84.379 330.105 84.2347 330.105 84.0616V41.1147C330.105 40.9416 330.25 40.7974 330.423 40.7974H378.053C378.227 40.7974 378.371 40.9416 378.371 41.1147V84.0616C378.371 84.2347 378.227 84.379 378.053 84.379ZM330.741 83.7443H377.736V41.4321H330.741V83.7443Z" fill="black"/>
<path d="M356.527 68.4092H308.897C308.723 68.4092 308.579 68.2649 308.579 68.0918C308.579 67.9187 308.723 67.7744 308.897 67.7744H356.527C356.7 67.7744 356.845 67.9187 356.845 68.0918C356.845 68.2793 356.7 68.4092 356.527 68.4092Z" fill="black"/>
<path d="M356.527 25.405H308.897C308.723 25.405 308.579 25.2608 308.579 25.0876C308.579 24.9145 308.723 24.7703 308.897 24.7703H356.527C356.7 24.7703 356.845 24.9145 356.845 25.0876C356.845 25.2608 356.7 25.405 356.527 25.405Z" fill="black"/>
<path d="M335.056 45.7481C337.616 43.1904 337.616 39.0435 335.056 36.4858C332.496 33.9281 328.346 33.9281 325.786 36.4858C323.226 39.0435 323.226 43.1904 325.786 45.7481C328.346 48.3058 332.496 48.3058 335.056 45.7481Z" fill="#5479F7"/>
<path d="M336.818 85.5839C337.65 82.0637 335.468 78.5361 331.945 77.7049C328.422 76.8736 324.892 79.0535 324.06 82.5738C323.228 86.094 325.41 89.6216 328.933 90.4528C332.456 91.2841 335.986 89.1042 336.818 85.5839Z" fill="#5479F7"/>
<path d="M242.136 37.2917C241.963 37.2917 241.818 37.1475 241.818 36.9744V25.0872C241.818 24.914 241.963 24.7698 242.136 24.7698H308.911C309.084 24.7698 309.228 24.914 309.228 25.0872C309.228 25.2603 309.084 25.4045 308.911 25.4045H242.454V36.9744C242.454 37.1475 242.309 37.2917 242.136 37.2917Z" fill="black"/>
<path d="M249.139 42.7259C250.027 38.8589 247.61 35.0042 243.74 34.1162C239.87 33.2283 236.012 35.6432 235.124 39.5102C234.235 43.3772 236.652 47.2318 240.522 48.1198C244.392 49.0078 248.25 46.5928 249.139 42.7259Z" fill="#5479F7"/>
<path d="M356.527 170.734H340.082C339.909 170.734 339.765 170.59 339.765 170.417C339.765 170.244 339.909 170.1 340.082 170.1H356.209V110.058C356.209 109.884 356.354 109.74 356.527 109.74C356.7 109.74 356.845 109.884 356.845 110.058V170.417C356.845 170.59 356.7 170.734 356.527 170.734Z" fill="black"/>
<path d="M41.8261 242.043C64.7507 242.043 83.3347 223.474 83.3347 200.568C83.3347 177.662 64.7507 159.093 41.8261 159.093C18.9015 159.093 0.317383 177.662 0.317383 200.568C0.317383 223.474 18.9015 242.043 41.8261 242.043Z" fill="white"/>
<path d="M41.8263 242.361C18.7547 242.361 0 223.607 0 200.568C0 177.529 18.7547 158.775 41.8263 158.775C64.8979 158.775 83.6526 177.515 83.6526 200.568C83.6382 223.607 64.8835 242.361 41.8263 242.361ZM41.8263 159.41C19.1157 159.41 0.635263 177.875 0.635263 200.568C0.635263 223.26 19.1157 241.726 41.8263 241.726C64.537 241.726 83.0174 223.26 83.0174 200.568C83.0174 177.875 64.537 159.41 41.8263 159.41Z" fill="black"/>
<path d="M25.0067 220.563C24.8768 220.563 24.7613 220.491 24.718 220.361L15.0013 196.63C14.9291 196.471 15.0158 196.283 15.1746 196.211C15.3334 196.139 15.5211 196.226 15.5933 196.384L25.0067 219.409L40.383 180.761C40.4263 180.645 40.5418 180.559 40.6717 180.559H65.0283C65.2016 180.559 65.3459 180.703 65.3459 180.876C65.3459 181.049 65.2016 181.194 65.0283 181.194H40.8883L25.2955 220.361C25.2522 220.491 25.1367 220.563 25.0067 220.563Z" fill="black"/>
<path d="M58.0978 220.563C57.9823 220.563 57.8812 220.505 57.8234 220.39L43.8332 194.48C43.7466 194.321 43.8043 194.134 43.9631 194.047C44.122 193.961 44.3097 194.018 44.3963 194.177L58.3865 220.087C58.4731 220.245 58.4154 220.433 58.2566 220.519C58.1988 220.563 58.1411 220.563 58.0978 220.563Z" fill="black"/>
<path d="M44.1075 220.563C44.0498 220.563 44.0065 220.548 43.9631 220.519C43.8043 220.433 43.7466 220.245 43.8332 220.087L57.8234 194.177C57.9101 194.018 58.0978 193.961 58.2566 194.047C58.4154 194.134 58.4731 194.321 58.3865 194.48L44.3963 220.39C44.3241 220.505 44.223 220.563 44.1075 220.563Z" fill="black"/>
<path d="M117.654 264H41.8264C41.6532 264 41.5088 263.856 41.5088 263.683V249.531C41.5088 249.357 41.6532 249.213 41.8264 249.213C41.9997 249.213 42.1441 249.357 42.1441 249.531V263.365H117.654C117.827 263.365 117.971 263.51 117.971 263.683C117.971 263.856 117.827 264 117.654 264Z" fill="black"/>
<path d="M41.8264 152.658C41.6532 152.658 41.5088 152.514 41.5088 152.341V117.199C41.5088 117.026 41.6532 116.881 41.8264 116.881C41.9997 116.881 42.1441 117.026 42.1441 117.199V152.341C42.1441 152.514 41.9997 152.658 41.8264 152.658Z" fill="black"/>
</g>
<defs>
<clipPath id="clip0_3724_5056">
<rect width="396" height="264" fill="white"/>
</clipPath>
</defs>
</svg>
