<svg width="367" height="351" viewBox="0 0 367 351" fill="none" xmlns="http://www.w3.org/2000/svg">
<g clip-path="url(#clip0_3729_5749)">
<path d="M349.837 184.093C349.644 184.093 349.484 183.932 349.484 183.74V147.352H308.517C308.324 147.352 308.164 147.192 308.164 147C308.164 146.807 308.324 146.647 308.517 146.647H349.837C350.029 146.647 350.189 146.807 350.189 147V183.74C350.189 183.932 350.029 184.093 349.837 184.093Z" fill="black"/>
<path d="M329.842 186.338C329.313 187.155 329.089 188.182 329.297 189.224C329.329 189.385 329.377 189.529 329.425 189.673C327.998 190.363 326.7 191.261 325.577 192.303C325.465 192.207 325.337 192.111 325.208 192.031C323.429 190.876 321.056 191.373 319.901 193.153C318.747 194.933 319.244 197.307 321.023 198.461C321.152 198.542 321.296 198.622 321.424 198.686C320.911 200.145 320.623 201.685 320.575 203.272C320.414 203.288 320.27 203.304 320.11 203.337C318.041 203.77 316.71 205.806 317.143 207.875C317.576 209.944 319.612 211.275 321.681 210.826C321.841 210.794 321.986 210.746 322.13 210.697C322.819 212.125 323.717 213.424 324.759 214.546C324.663 214.658 324.567 214.787 324.487 214.915C323.332 216.695 323.829 219.069 325.609 220.223C327.389 221.378 329.762 220.881 330.916 219.101C330.997 218.972 331.077 218.828 331.141 218.7C332.6 219.213 334.139 219.502 335.727 219.55C335.743 219.71 335.759 219.854 335.791 220.015C336.224 222.083 338.26 223.415 340.328 222.965C342.397 222.533 343.728 220.496 343.295 218.427C343.263 218.267 343.215 218.122 343.166 217.978C344.594 217.288 345.892 216.39 347.015 215.348C347.127 215.444 347.255 215.54 347.383 215.621C349.163 216.775 351.536 216.278 352.691 214.498C353.845 212.718 353.348 210.345 351.568 209.19C351.44 209.11 351.296 209.03 351.167 208.965C351.681 207.506 351.969 205.967 352.017 204.379C352.178 204.363 352.322 204.347 352.482 204.315C354.551 203.882 355.882 201.845 355.449 199.776C355.016 197.708 352.979 196.377 350.911 196.826C350.751 196.858 350.606 196.906 350.462 196.954C349.773 195.527 348.875 194.228 347.832 193.105C347.929 192.993 348.025 192.865 348.105 192.736C349.259 190.956 348.762 188.583 346.983 187.428C345.203 186.273 342.83 186.771 341.675 188.551C341.595 188.679 341.515 188.823 341.451 188.952C339.992 188.438 338.452 188.15 336.865 188.102C336.849 187.941 336.833 187.797 336.801 187.637C336.368 185.568 334.332 184.237 332.263 184.686C331.221 184.894 330.371 185.504 329.842 186.338ZM337.763 210.778C333.915 211.595 330.147 209.126 329.329 205.293C328.511 201.444 330.981 197.676 334.829 196.858C338.677 196.04 342.445 198.509 343.263 202.342C344.08 206.191 341.611 209.976 337.763 210.778Z" fill="#5479F7"/>
<path d="M340.377 227.343C339.576 227.343 338.79 227.119 338.101 226.67C337.171 226.06 336.513 225.114 336.289 224.024C336.273 223.96 336.257 223.896 336.257 223.831C334.862 223.751 333.483 223.495 332.152 223.062C332.12 223.126 332.088 223.174 332.056 223.238C330.789 225.178 328.192 225.724 326.268 224.457C325.338 223.847 324.68 222.901 324.456 221.811C324.231 220.72 324.44 219.598 325.049 218.668C325.081 218.619 325.129 218.555 325.161 218.507C324.231 217.465 323.429 216.31 322.804 215.075C322.74 215.091 322.676 215.107 322.612 215.123C321.521 215.348 320.399 215.139 319.469 214.53C318.539 213.921 317.882 212.974 317.657 211.884C317.176 209.623 318.635 207.394 320.88 206.929C320.944 206.913 321.008 206.897 321.072 206.897C321.153 205.501 321.409 204.122 321.842 202.791C321.778 202.759 321.73 202.727 321.666 202.695C320.736 202.086 320.078 201.139 319.854 200.049C319.629 198.958 319.838 197.836 320.447 196.906C321.714 194.965 324.311 194.42 326.235 195.687C326.284 195.719 326.348 195.767 326.396 195.799C327.438 194.869 328.592 194.067 329.843 193.442C329.827 193.378 329.811 193.313 329.795 193.249C329.571 192.159 329.779 191.036 330.388 190.106C330.998 189.176 331.944 188.518 333.034 188.294C334.124 188.069 335.247 188.278 336.177 188.887C337.107 189.497 337.764 190.443 337.988 191.533C338.004 191.598 338.02 191.662 338.02 191.726C339.415 191.806 340.794 192.063 342.125 192.496C342.157 192.431 342.189 192.383 342.221 192.319C343.488 190.379 346.086 189.833 348.01 191.1C348.94 191.71 349.597 192.656 349.822 193.746C350.046 194.837 349.838 195.96 349.228 196.89C349.196 196.938 349.148 197.002 349.116 197.05C350.046 198.092 350.848 199.247 351.473 200.482C351.537 200.466 351.601 200.45 351.665 200.434C352.756 200.209 353.878 200.418 354.808 201.027C355.738 201.636 356.395 202.583 356.62 203.673C357.101 205.934 355.642 208.163 353.397 208.629C353.333 208.645 353.269 208.661 353.205 208.661C353.125 210.056 352.868 211.435 352.435 212.766C352.499 212.798 352.547 212.83 352.611 212.862C353.541 213.472 354.199 214.418 354.423 215.508C354.648 216.599 354.439 217.721 353.83 218.651C352.563 220.592 349.966 221.137 348.042 219.87C347.994 219.838 347.929 219.79 347.881 219.758C346.839 220.688 345.685 221.49 344.434 222.115C344.45 222.18 344.466 222.244 344.482 222.308C344.707 223.398 344.498 224.521 343.889 225.451C343.28 226.381 342.334 227.039 341.243 227.263C340.955 227.311 340.666 227.343 340.377 227.343ZM331.976 222.276C332.008 222.276 332.056 222.276 332.088 222.292C333.531 222.789 335.038 223.078 336.577 223.126C336.754 223.126 336.898 223.27 336.914 223.446C336.93 223.607 336.946 223.735 336.978 223.863C337.171 224.778 337.7 225.547 338.485 226.06C339.271 226.574 340.201 226.75 341.099 226.542C342.013 226.349 342.783 225.82 343.296 225.034C343.809 224.248 343.969 223.318 343.777 222.42C343.745 222.292 343.713 222.164 343.664 222.019C343.6 221.843 343.68 221.666 343.841 221.586C345.22 220.913 346.486 220.047 347.609 219.004C347.737 218.876 347.946 218.876 348.074 218.988C348.202 219.084 348.298 219.165 348.411 219.245C350.014 220.287 352.179 219.838 353.221 218.235C353.734 217.449 353.894 216.519 353.702 215.621C353.509 214.722 352.98 213.937 352.195 213.424C352.082 213.359 351.97 213.295 351.826 213.215C351.665 213.135 351.585 212.958 351.649 212.782C352.146 211.339 352.435 209.831 352.483 208.292C352.483 208.115 352.627 207.971 352.804 207.955C352.964 207.939 353.092 207.923 353.221 207.891C355.097 207.49 356.299 205.646 355.914 203.769C355.722 202.855 355.193 202.086 354.407 201.572C353.622 201.059 352.692 200.899 351.794 201.091C351.665 201.123 351.537 201.155 351.393 201.204C351.216 201.268 351.04 201.187 350.96 201.027C350.287 199.648 349.421 198.381 348.378 197.258C348.25 197.13 348.25 196.922 348.362 196.793C348.459 196.665 348.539 196.569 348.619 196.457C349.132 195.671 349.292 194.741 349.1 193.843C348.908 192.929 348.378 192.159 347.593 191.646C345.989 190.603 343.825 191.052 342.783 192.656C342.718 192.768 342.638 192.88 342.574 193.025C342.494 193.185 342.318 193.265 342.141 193.201C340.698 192.704 339.191 192.415 337.652 192.367C337.475 192.367 337.331 192.223 337.315 192.047C337.299 191.886 337.283 191.758 337.251 191.63C337.058 190.715 336.529 189.946 335.744 189.433C334.958 188.919 334.028 188.743 333.13 188.951C332.216 189.144 331.446 189.673 330.933 190.459C330.42 191.245 330.26 192.175 330.452 193.073C330.484 193.201 330.517 193.329 330.565 193.474C330.629 193.65 330.549 193.827 330.388 193.907C329.009 194.58 327.743 195.446 326.62 196.489C326.492 196.617 326.284 196.617 326.155 196.505C326.027 196.409 325.931 196.328 325.819 196.248C324.215 195.206 322.051 195.655 321.008 197.258C320.495 198.044 320.335 198.974 320.527 199.872C320.72 200.771 321.249 201.556 322.035 202.069C322.147 202.134 322.259 202.198 322.403 202.278C322.564 202.358 322.644 202.535 322.58 202.711C322.083 204.154 321.794 205.662 321.746 207.201C321.746 207.378 321.602 207.522 321.425 207.538C321.265 207.554 321.137 207.57 321.008 207.602C319.132 208.003 317.93 209.847 318.331 211.724C318.523 212.638 319.052 213.407 319.838 213.921C320.624 214.434 321.554 214.594 322.451 214.402C322.58 214.37 322.708 214.338 322.852 214.289C323.029 214.225 323.205 214.306 323.285 214.466C323.959 215.845 324.824 217.112 325.867 218.235C325.995 218.363 325.995 218.571 325.883 218.7C325.786 218.812 325.706 218.924 325.626 219.036C325.113 219.822 324.953 220.752 325.145 221.65C325.338 222.564 325.867 223.334 326.652 223.847C328.256 224.89 330.42 224.441 331.463 222.837C331.527 222.725 331.607 222.613 331.671 222.468C331.719 222.356 331.847 222.276 331.976 222.276ZM337.123 215.236C333.675 215.236 330.565 212.814 329.811 209.302C328.961 205.277 331.543 201.3 335.583 200.45C339.608 199.6 343.584 202.182 344.434 206.207C344.851 208.163 344.466 210.152 343.392 211.82C342.302 213.488 340.634 214.642 338.678 215.059C338.165 215.172 337.636 215.236 337.123 215.236ZM337.139 200.995C336.674 200.995 336.209 201.043 335.744 201.139C332.088 201.909 329.747 205.501 330.517 209.158C331.286 212.814 334.878 215.155 338.534 214.37C340.297 214.001 341.821 212.958 342.799 211.435C343.793 209.927 344.129 208.115 343.745 206.351C343.087 203.176 340.265 200.995 337.139 200.995Z" fill="black"/>
<path d="M307.104 223.415C305.758 224.248 304.731 225.579 304.347 227.231C304.282 227.472 304.25 227.728 304.218 227.969C301.669 228.001 299.184 228.402 296.811 229.156C296.714 228.931 296.586 228.707 296.458 228.498C294.678 225.596 290.878 224.697 287.976 226.478C285.074 228.258 284.176 232.058 285.972 234.961C286.1 235.169 286.244 235.378 286.404 235.57C284.673 237.35 283.182 239.387 282.011 241.648C281.787 241.568 281.546 241.488 281.29 241.424C277.971 240.638 274.652 242.691 273.866 245.994C273.08 249.314 275.133 252.633 278.436 253.419C278.676 253.483 278.933 253.515 279.173 253.548C279.205 256.097 279.606 258.583 280.36 260.957C280.135 261.053 279.911 261.181 279.702 261.309C276.8 263.089 275.902 266.89 277.698 269.793C279.478 272.695 283.278 273.593 286.18 271.813C286.388 271.685 286.597 271.541 286.789 271.38C288.569 273.112 290.605 274.604 292.866 275.774C292.786 275.999 292.706 276.24 292.642 276.496C291.856 279.816 293.908 283.135 297.211 283.921C300.53 284.707 303.85 282.654 304.635 279.351C304.699 279.11 304.731 278.854 304.763 278.613C307.313 278.581 309.798 278.18 312.171 277.426C312.267 277.651 312.396 277.875 312.524 278.084C314.304 280.986 318.104 281.884 321.006 280.104C323.908 278.324 324.806 274.524 323.01 271.621C322.882 271.412 322.738 271.204 322.577 271.012C324.309 269.231 325.8 267.195 326.971 264.934C327.195 265.014 327.436 265.094 327.692 265.158C331.011 265.944 334.33 263.891 335.116 260.588C335.902 257.268 333.849 253.948 330.546 253.163C330.306 253.099 330.049 253.066 329.809 253.034C329.777 250.485 329.376 247.999 328.622 245.625C328.847 245.529 329.071 245.401 329.279 245.273C332.182 243.493 333.08 239.692 331.284 236.789C329.504 233.887 325.704 232.988 322.802 234.785C322.593 234.913 322.385 235.057 322.192 235.218C320.413 233.486 318.376 231.994 316.116 230.824C316.196 230.599 316.276 230.358 316.34 230.102C317.126 226.782 315.073 223.463 311.77 222.677C310.103 222.276 308.435 222.597 307.104 223.415ZM301.845 264.42C295.688 262.961 291.888 256.787 293.347 250.645C294.806 244.503 300.979 240.686 307.12 242.145C313.278 243.605 317.078 249.779 315.618 255.921C314.175 262.079 308.002 265.88 301.845 264.42Z" fill="#5479F7"/>
<path d="M297.163 290.721C296.666 290.721 296.169 290.657 295.656 290.544C292.161 289.711 289.996 286.199 290.814 282.702C290.846 282.558 290.894 282.398 290.942 282.237C288.874 281.131 286.966 279.752 285.266 278.132C285.138 278.228 284.993 278.324 284.865 278.405C281.803 280.297 277.778 279.335 275.902 276.272C274.988 274.796 274.7 273.048 275.116 271.348C275.517 269.649 276.56 268.221 278.035 267.307C278.163 267.227 278.307 267.147 278.452 267.067C277.762 264.822 277.393 262.496 277.345 260.155C277.185 260.123 277.025 260.107 276.88 260.059C273.385 259.225 271.22 255.713 272.038 252.217C272.439 250.517 273.481 249.089 274.956 248.175C276.431 247.261 278.179 246.989 279.879 247.39C280.023 247.422 280.183 247.47 280.344 247.518C281.45 245.449 282.829 243.541 284.448 241.841C284.352 241.697 284.256 241.568 284.176 241.44C283.262 239.965 282.973 238.217 283.39 236.517C283.791 234.817 284.833 233.39 286.308 232.475C289.371 230.583 293.395 231.545 295.271 234.608C295.351 234.737 295.432 234.881 295.512 235.025C297.757 234.336 300.081 233.967 302.422 233.919C302.454 233.758 302.471 233.598 302.519 233.454C302.919 231.754 303.962 230.327 305.437 229.412C306.912 228.498 308.66 228.226 310.359 228.627C313.855 229.461 316.019 232.973 315.202 236.469C315.17 236.613 315.121 236.773 315.073 236.934C317.142 238.04 319.05 239.419 320.749 241.039C320.878 240.943 321.022 240.847 321.15 240.766C324.213 238.874 328.237 239.836 330.113 242.899C331.027 244.375 331.316 246.123 330.899 247.823C330.498 249.522 329.456 250.95 327.981 251.864C327.852 251.944 327.708 252.024 327.564 252.104C328.253 254.35 328.622 256.675 328.67 259.016C328.831 259.048 328.991 259.064 329.135 259.112C332.631 259.946 334.795 263.458 333.977 266.954C333.577 268.654 332.534 270.082 331.059 270.996C329.584 271.91 327.836 272.182 326.137 271.781C325.992 271.749 325.832 271.701 325.672 271.653C324.565 273.722 323.187 275.63 321.567 277.33C321.663 277.475 321.759 277.603 321.84 277.731C322.754 279.206 323.042 280.954 322.641 282.654C322.241 284.354 321.198 285.782 319.723 286.696C316.661 288.588 312.636 287.626 310.76 284.563C310.68 284.434 310.6 284.29 310.52 284.146C308.275 284.835 305.95 285.204 303.609 285.252C303.577 285.413 303.561 285.573 303.513 285.717C302.791 288.7 300.114 290.721 297.163 290.721ZM285.298 277.314C285.394 277.314 285.474 277.346 285.539 277.41C287.302 279.142 289.323 280.602 291.535 281.74C291.696 281.82 291.76 282.013 291.712 282.173C291.615 282.414 291.551 282.638 291.503 282.847C290.766 285.958 292.706 289.101 295.816 289.839C298.927 290.577 302.07 288.652 302.807 285.525C302.855 285.316 302.887 285.092 302.919 284.835C302.936 284.659 303.096 284.531 303.272 284.515C305.758 284.483 308.211 284.098 310.568 283.344C310.744 283.296 310.92 283.376 311.001 283.536C311.113 283.777 311.225 283.985 311.337 284.162C313.021 286.888 316.613 287.738 319.338 286.054C320.653 285.236 321.583 283.953 321.936 282.446C322.289 280.938 322.048 279.383 321.23 278.052C321.118 277.875 320.99 277.683 320.813 277.475C320.701 277.33 320.717 277.138 320.83 277.009C322.561 275.245 324.02 273.225 325.159 271.012C325.239 270.851 325.431 270.787 325.592 270.835C325.832 270.932 326.057 270.996 326.265 271.044C327.772 271.397 329.328 271.156 330.658 270.338C331.973 269.52 332.903 268.237 333.256 266.73C333.993 263.619 332.053 260.476 328.943 259.738C328.734 259.69 328.51 259.658 328.253 259.626C328.077 259.61 327.949 259.449 327.933 259.273C327.901 256.787 327.516 254.334 326.762 251.976C326.714 251.8 326.794 251.623 326.955 251.543C327.195 251.431 327.403 251.319 327.58 251.206C328.895 250.388 329.825 249.106 330.177 247.598C330.53 246.091 330.29 244.535 329.472 243.204C327.788 240.478 324.197 239.628 321.471 241.312C321.294 241.424 321.102 241.552 320.894 241.729C320.749 241.841 320.557 241.825 320.429 241.713C318.665 239.981 316.645 238.521 314.432 237.383C314.272 237.303 314.207 237.11 314.256 236.95C314.352 236.709 314.416 236.485 314.464 236.276C315.202 233.165 313.261 230.022 310.151 229.284C308.644 228.931 307.088 229.172 305.758 229.99C304.443 230.808 303.513 232.091 303.16 233.598C303.112 233.806 303.08 234.031 303.048 234.288C303.032 234.464 302.871 234.592 302.695 234.608C300.21 234.64 297.757 235.025 295.4 235.779C295.223 235.827 295.047 235.747 294.967 235.587C294.854 235.346 294.742 235.138 294.63 234.961C292.946 232.235 289.355 231.385 286.629 233.069C285.314 233.887 284.384 235.17 284.031 236.677C283.679 238.185 283.919 239.74 284.737 241.071C284.849 241.248 284.977 241.44 285.154 241.648C285.266 241.793 285.25 241.985 285.138 242.114C283.406 243.878 281.947 245.898 280.809 248.111C280.728 248.272 280.536 248.336 280.376 248.288C280.119 248.191 279.911 248.127 279.702 248.079C278.195 247.726 276.64 247.967 275.309 248.785C273.994 249.603 273.064 250.886 272.711 252.393C271.974 255.504 273.914 258.647 277.025 259.385C277.233 259.433 277.457 259.465 277.714 259.497C277.89 259.513 278.019 259.674 278.035 259.85C278.067 262.336 278.452 264.789 279.205 267.147C279.253 267.323 279.173 267.5 279.013 267.58C278.772 267.692 278.564 267.804 278.387 267.917C277.073 268.734 276.143 270.017 275.79 271.525C275.437 273.032 275.678 274.588 276.495 275.919C278.179 278.645 281.771 279.495 284.496 277.811C284.673 277.699 284.865 277.571 285.074 277.394C285.154 277.346 285.218 277.314 285.298 277.314ZM303.032 271.381C302.118 271.381 301.204 271.268 300.29 271.06C293.956 269.552 290.028 263.186 291.535 256.851C293.043 250.517 299.408 246.588 305.741 248.095C312.075 249.603 316.003 255.969 314.496 262.304C313.775 265.367 311.899 267.965 309.205 269.617C307.313 270.787 305.18 271.381 303.032 271.381ZM300.434 270.37C303.32 271.06 306.287 270.579 308.82 269.023C311.337 267.468 313.101 265.03 313.791 262.143C315.202 256.194 311.514 250.196 305.549 248.785C299.6 247.374 293.604 251.062 292.193 257.012C290.798 262.977 294.486 268.959 300.434 270.37Z" fill="black"/>
<path d="M152.25 296.943H287.497C294.456 296.943 300.164 291.25 300.164 284.274V17.0218C300.164 10.0619 294.472 4.35278 287.497 4.35278H152.25C145.291 4.35278 139.583 10.0458 139.583 17.0218V284.29C139.583 291.25 145.275 296.943 152.25 296.943Z" fill="white"/>
<path d="M287.497 297.296H152.25C145.067 297.296 139.23 291.458 139.23 284.274V17.0218C139.23 9.83737 145.067 4 152.25 4H287.497C294.681 4 300.517 9.83737 300.517 17.0218V284.29C300.501 291.458 294.665 297.296 287.497 297.296ZM152.25 4.70562C145.468 4.70562 139.936 10.2223 139.936 17.0218V284.29C139.936 291.074 145.452 296.606 152.25 296.606H287.497C294.28 296.606 299.811 291.09 299.811 284.29V17.0218C299.811 10.2383 294.296 4.70562 287.497 4.70562H152.25Z" fill="black"/>
<path d="M280.618 288.011H159.112C152.49 288.011 147.103 282.622 147.103 275.999V175.208C147.103 175.016 147.263 174.855 147.455 174.855C147.648 174.855 147.808 175.016 147.808 175.208V275.999C147.808 282.237 152.875 287.305 159.112 287.305H280.618C286.855 287.305 291.922 282.237 291.922 275.999V24.4949C291.922 18.2566 286.855 13.189 280.618 13.189H159.112C152.875 13.189 147.808 18.2566 147.808 24.4949V92.4426C147.808 92.635 147.648 92.7954 147.455 92.7954C147.263 92.7954 147.103 92.635 147.103 92.4426V24.4949C147.103 17.8717 152.49 12.4834 159.112 12.4834H280.618C287.24 12.4834 292.628 17.8717 292.628 24.4949V275.999C292.628 282.622 287.24 288.011 280.618 288.011Z" fill="black"/>
<path d="M234.921 21.4639H203.013C202.821 21.4639 202.66 21.3035 202.66 21.1111C202.66 20.9187 202.821 20.7583 203.013 20.7583H234.921C235.113 20.7583 235.273 20.9187 235.273 21.1111C235.273 21.3035 235.113 21.4639 234.921 21.4639Z" fill="black"/>
<path d="M219.864 279.672C223.203 279.672 225.909 276.965 225.909 273.626C225.909 270.287 223.203 267.58 219.864 267.58C216.526 267.58 213.819 270.287 213.819 273.626C213.819 276.965 216.526 279.672 219.864 279.672Z" fill="white"/>
<path d="M219.864 280.024C216.337 280.024 213.467 277.154 213.467 273.626C213.467 270.098 216.337 267.227 219.864 267.227C223.392 267.227 226.262 270.098 226.262 273.626C226.262 277.154 223.392 280.024 219.864 280.024ZM219.864 267.933C216.722 267.933 214.172 270.483 214.172 273.626C214.172 276.769 216.722 279.319 219.864 279.319C223.007 279.319 225.556 276.769 225.556 273.626C225.556 270.483 223.007 267.933 219.864 267.933Z" fill="black"/>
<path d="M161.082 81.0027L262.689 81.0027V66.9385L161.082 66.9385V81.0027Z" fill="#5479F7"/>
<path d="M199.496 140.954H282.023V126.89L199.496 126.89V140.954Z" fill="#5479F7"/>
<path d="M281.403 74.3211H266.524C266.331 74.3211 266.171 74.1607 266.171 73.9683C266.171 73.7758 266.331 73.6155 266.524 73.6155H281.403C281.596 73.6155 281.756 73.7758 281.756 73.9683C281.756 74.1607 281.596 74.3211 281.403 74.3211Z" fill="black"/>
<path d="M259.341 74.3211H225.301C225.109 74.3211 224.948 74.1607 224.948 73.9683C224.948 73.7758 225.109 73.6155 225.301 73.6155H259.341C259.534 73.6155 259.694 73.7758 259.694 73.9683C259.694 74.1607 259.534 74.3211 259.341 74.3211Z" fill="black"/>
<path d="M217.861 74.3211H167.963C167.771 74.3211 167.61 74.1607 167.61 73.9683C167.61 73.7758 167.771 73.6155 167.963 73.6155H217.861C218.053 73.6155 218.214 73.7758 218.214 73.9683C218.214 74.1607 218.053 74.3211 217.861 74.3211Z" fill="black"/>
<path d="M281.404 89.492H243.996C243.804 89.492 243.644 89.3316 243.644 89.1392C243.644 88.9467 243.804 88.7864 243.996 88.7864H281.404C281.596 88.7864 281.756 88.9467 281.756 89.1392C281.756 89.3316 281.596 89.492 281.404 89.492Z" fill="black"/>
<path d="M236.797 89.492H185.264C185.071 89.492 184.911 89.3316 184.911 89.1392C184.911 88.9467 185.071 88.7864 185.264 88.7864H236.797C236.99 88.7864 237.15 88.9467 237.15 89.1392C237.15 89.3316 236.99 89.492 236.797 89.492Z" fill="black"/>
<path d="M178.546 89.492H161.95C161.758 89.492 161.598 89.3316 161.598 89.1392C161.598 88.9467 161.758 88.7864 161.95 88.7864H178.546C178.738 88.7864 178.898 88.9467 178.898 89.1392C178.898 89.3316 178.738 89.492 178.546 89.492Z" fill="black"/>
<path d="M281.404 104.663H270.116C269.924 104.663 269.764 104.502 269.764 104.31C269.764 104.117 269.924 103.957 270.116 103.957H281.404C281.597 103.957 281.757 104.117 281.757 104.31C281.757 104.502 281.597 104.663 281.404 104.663Z" fill="black"/>
<path d="M262.692 104.663H213.307C213.114 104.663 212.954 104.502 212.954 104.31C212.954 104.117 213.114 103.957 213.307 103.957H262.692C262.884 103.957 263.044 104.117 263.044 104.31C263.044 104.502 262.884 104.663 262.692 104.663Z" fill="black"/>
<path d="M206.108 104.663H161.95C161.758 104.663 161.598 104.502 161.598 104.31C161.598 104.117 161.758 103.957 161.95 103.957H206.108C206.301 103.957 206.461 104.117 206.461 104.31C206.461 104.502 206.317 104.663 206.108 104.663Z" fill="black"/>
<path d="M255.028 119.834H189.577C189.385 119.834 189.225 119.673 189.225 119.481C189.225 119.288 189.385 119.128 189.577 119.128H255.028C255.221 119.128 255.381 119.288 255.381 119.481C255.381 119.673 255.221 119.834 255.028 119.834Z" fill="black"/>
<path d="M182.378 119.834H161.95C161.758 119.834 161.598 119.673 161.598 119.481C161.598 119.288 161.758 119.128 161.95 119.128H182.378C182.57 119.128 182.731 119.288 182.731 119.481C182.731 119.673 182.57 119.834 182.378 119.834Z" fill="black"/>
<path d="M159.711 200.921H261.318V186.857H159.711V200.921Z" fill="#5479F7"/>
<path d="M280.023 194.244H265.144C264.951 194.244 264.791 194.084 264.791 193.891C264.791 193.699 264.951 193.539 265.144 193.539H280.023C280.216 193.539 280.376 193.699 280.376 193.891C280.376 194.084 280.216 194.244 280.023 194.244Z" fill="black"/>
<path d="M257.961 194.244H223.921C223.729 194.244 223.568 194.084 223.568 193.891C223.568 193.699 223.729 193.539 223.921 193.539H257.961C258.154 193.539 258.314 193.699 258.314 193.891C258.314 194.084 258.154 194.244 257.961 194.244Z" fill="black"/>
<path d="M216.481 194.244H166.583C166.391 194.244 166.23 194.084 166.23 193.891C166.23 193.699 166.391 193.539 166.583 193.539H216.481C216.674 193.539 216.834 193.699 216.834 193.891C216.834 194.084 216.674 194.244 216.481 194.244Z" fill="black"/>
<path d="M280.024 209.415H242.616C242.424 209.415 242.264 209.254 242.264 209.062C242.264 208.869 242.424 208.709 242.616 208.709H280.024C280.216 208.709 280.377 208.869 280.377 209.062C280.377 209.254 280.216 209.415 280.024 209.415Z" fill="black"/>
<path d="M235.417 209.415H183.867C183.675 209.415 183.515 209.254 183.515 209.062C183.515 208.869 183.675 208.709 183.867 208.709H235.417C235.609 208.709 235.77 208.869 235.77 209.062C235.77 209.254 235.625 209.415 235.417 209.415Z" fill="black"/>
<path d="M177.166 209.415H160.571C160.378 209.415 160.218 209.254 160.218 209.062C160.218 208.869 160.378 208.709 160.571 208.709H177.166C177.358 208.709 177.519 208.869 177.519 209.062C177.519 209.254 177.358 209.415 177.166 209.415Z" fill="black"/>
<path d="M280.024 224.602H268.736C268.543 224.602 268.383 224.441 268.383 224.249C268.383 224.056 268.543 223.896 268.736 223.896H280.024C280.216 223.896 280.376 224.056 280.376 224.249C280.376 224.441 280.216 224.602 280.024 224.602Z" fill="black"/>
<path d="M261.312 224.602H211.927C211.735 224.602 211.574 224.441 211.574 224.249C211.574 224.056 211.735 223.896 211.927 223.896H261.312C261.504 223.896 261.665 224.056 261.665 224.249C261.665 224.441 261.504 224.602 261.312 224.602Z" fill="black"/>
<path d="M204.745 224.602H160.587C160.395 224.602 160.234 224.441 160.234 224.249C160.234 224.056 160.395 223.896 160.587 223.896H204.745C204.937 223.896 205.098 224.056 205.098 224.249C205.098 224.441 204.937 224.602 204.745 224.602Z" fill="black"/>
<path d="M218.438 239.772H160.587C160.395 239.772 160.234 239.612 160.234 239.42C160.234 239.227 160.395 239.067 160.587 239.067H218.438C218.63 239.067 218.791 239.227 218.791 239.42C218.791 239.612 218.63 239.772 218.438 239.772Z" fill="black"/>
<path d="M275.761 134.603H240.021C239.828 134.603 239.668 134.443 239.668 134.251C239.668 134.058 239.828 133.898 240.021 133.898H275.761C275.953 133.898 276.113 134.058 276.113 134.251C276.113 134.443 275.953 134.603 275.761 134.603Z" fill="black"/>
<path d="M232.58 134.603H204.28C204.087 134.603 203.927 134.443 203.927 134.251C203.927 134.058 204.087 133.898 204.28 133.898H232.58C232.772 133.898 232.932 134.058 232.932 134.251C232.932 134.443 232.788 134.603 232.58 134.603Z" fill="black"/>
<path d="M195.702 134.603H162.575C162.383 134.603 162.223 134.443 162.223 134.251C162.223 134.058 162.383 133.898 162.575 133.898H195.702C195.894 133.898 196.055 134.058 196.055 134.251C196.055 134.443 195.894 134.603 195.702 134.603Z" fill="black"/>
<path d="M282.029 149.774H244.621C244.429 149.774 244.269 149.613 244.269 149.421C244.269 149.228 244.429 149.068 244.621 149.068H282.029C282.221 149.068 282.381 149.228 282.381 149.421C282.381 149.613 282.221 149.774 282.029 149.774Z" fill="black"/>
<path d="M237.422 149.774H185.872C185.68 149.774 185.52 149.613 185.52 149.421C185.52 149.228 185.68 149.068 185.872 149.068H237.422C237.614 149.068 237.774 149.228 237.774 149.421C237.774 149.613 237.614 149.774 237.422 149.774Z" fill="black"/>
<path d="M179.171 149.774H162.575C162.383 149.774 162.223 149.613 162.223 149.421C162.223 149.228 162.383 149.068 162.575 149.068H179.171C179.363 149.068 179.523 149.228 179.523 149.421C179.523 149.613 179.363 149.774 179.171 149.774Z" fill="black"/>
<path d="M282.028 164.945H270.74C270.548 164.945 270.388 164.784 270.388 164.592C270.388 164.399 270.548 164.239 270.74 164.239H282.028C282.221 164.239 282.381 164.399 282.381 164.592C282.381 164.8 282.221 164.945 282.028 164.945Z" fill="black"/>
<path d="M263.301 164.945H213.916C213.724 164.945 213.563 164.784 213.563 164.592C213.563 164.399 213.724 164.239 213.916 164.239H263.301C263.494 164.239 263.654 164.399 263.654 164.592C263.654 164.8 263.51 164.945 263.301 164.945Z" fill="black"/>
<path d="M206.733 164.945H162.575C162.383 164.945 162.223 164.784 162.223 164.592C162.223 164.399 162.383 164.239 162.575 164.239H206.733C206.926 164.239 207.086 164.399 207.086 164.592C207.086 164.8 206.926 164.945 206.733 164.945Z" fill="black"/>
<path d="M240.02 180.131H190.186C189.993 180.131 189.833 179.971 189.833 179.779C189.833 179.586 189.993 179.426 190.186 179.426H240.02C240.212 179.426 240.372 179.586 240.372 179.779C240.372 179.971 240.212 180.131 240.02 180.131Z" fill="black"/>
<path d="M183.003 180.131H162.575C162.383 180.131 162.223 179.971 162.223 179.779C162.223 179.586 162.383 179.426 162.575 179.426H183.003C183.195 179.426 183.356 179.586 183.356 179.779C183.356 179.971 183.195 180.131 183.003 180.131Z" fill="black"/>
<path d="M279.159 50.7954H239.089C237.855 50.7954 236.845 49.7851 236.845 48.5502V35.8972C236.845 34.6624 237.855 33.6521 239.089 33.6521H279.159C280.393 33.6521 281.403 34.6624 281.403 35.8972V48.5502C281.403 49.7851 280.393 50.7954 279.159 50.7954Z" fill="#5479F7"/>
<path d="M213.74 42.5684H161.966C161.774 42.5684 161.613 42.408 161.613 42.2156C161.613 42.0232 161.774 41.8628 161.966 41.8628H213.74C213.932 41.8628 214.093 42.0232 214.093 42.2156C214.093 42.408 213.932 42.5684 213.74 42.5684Z" fill="black"/>
<path d="M222.303 246.893C222.111 246.893 221.95 246.732 221.95 246.54V231.529C221.95 231.337 222.111 231.177 222.303 231.177C222.495 231.177 222.656 231.337 222.656 231.529V246.54C222.656 246.732 222.495 246.893 222.303 246.893Z" fill="#5479F7"/>
<path d="M225.798 247.149H218.791C218.599 247.149 218.438 246.989 218.438 246.796C218.438 246.604 218.599 246.444 218.791 246.444H225.798C225.991 246.444 226.151 246.604 226.151 246.796C226.151 246.989 225.991 247.149 225.798 247.149Z" fill="#5479F7"/>
<path d="M225.798 231.979H218.791C218.599 231.979 218.438 231.818 218.438 231.626C218.438 231.433 218.599 231.273 218.791 231.273H225.798C225.991 231.273 226.151 231.433 226.151 231.626C226.151 231.818 225.991 231.979 225.798 231.979Z" fill="#5479F7"/>
<mask id="mask0_3729_5749" style="mask-type:luminance" maskUnits="userSpaceOnUse" x="-56" y="77" width="341" height="275">
<path d="M284.307 77.6567H-56V351.404H284.307V77.6567Z" fill="white"/>
</mask>
<g mask="url(#mask0_3729_5749)">
<path d="M172.132 377.142C148.658 352.718 116.67 320.26 101.165 304.576C96.4027 299.749 89.8769 297.087 83.1105 297.199C71.9508 297.376 54.137 297.039 42.833 296.766C37.1249 296.638 32.5231 301.385 32.8117 307.078C33.6936 324.173 41.3578 340.21 54.1049 351.644L120.101 410.771L73.1213 472.16C74.0994 473.523 75.1416 474.838 76.1998 476.121C83.9443 485.47 93.4525 493.521 103.714 499.984C107.178 502.165 110.737 504.169 114.361 506.046C125.489 495.718 154.975 457.39 175.306 430.416C187.476 414.267 186.129 391.704 172.132 377.142Z" fill="#5479F7"/>
<path d="M168.618 554.749C181.333 552.344 229.323 542.112 231.424 541.695C223.872 529.154 133.391 378.794 101.484 314.823L41.6606 304.287C36.4015 305.362 32.9221 310.349 33.6757 315.657C35.7441 330.443 40.7948 344.684 48.5713 357.497L168.217 554.813C168.346 554.797 168.474 554.765 168.618 554.749Z" fill="#5479F7"/>
<path d="M165.282 430.208C165.154 430.208 165.042 430.144 164.978 430.031C134.609 377.703 113.139 338.991 101.162 314.984C101.082 314.807 101.146 314.599 101.322 314.519C101.499 314.439 101.707 314.503 101.803 314.679C113.765 338.67 135.234 377.367 165.587 429.695C165.683 429.871 165.635 430.079 165.459 430.176C165.394 430.192 165.346 430.208 165.282 430.208Z" fill="black"/>
<path d="M221.87 199.071C222.431 199.472 222.993 199.857 223.57 200.241C237.071 180.709 245.713 162.154 245.713 162.154C256.472 156.573 251.389 152.067 251.389 152.067C253.81 146.23 248.968 144.963 248.968 144.963C248.599 137.426 241.64 139.494 241.64 139.494C248.118 132.47 252.624 120.058 234.778 133.769C224.34 141.788 210.181 157.343 197.402 171.311C202.982 182.441 211.721 191.886 221.87 199.071Z" fill="white"/>
<path d="M224.836 198.75C224.772 198.75 224.692 198.734 224.628 198.686C224.467 198.574 224.435 198.349 224.548 198.189C229.422 191.197 233.398 184.044 237.583 176.475C240.036 172.049 242.586 167.462 245.36 162.828C246.001 161.865 247.059 161.096 248.182 160.262C249.4 159.38 250.651 158.45 251.581 157.199C251.597 157.183 251.597 157.167 251.613 157.167C252.158 156.621 252.431 155.788 252.367 154.89C252.286 153.895 251.805 152.901 250.988 152.083C250.908 152.003 250.875 151.907 250.891 151.794C250.908 151.682 250.956 151.602 251.052 151.538C252.367 150.656 251.886 149.485 251.132 148.026C251.068 147.897 251.004 147.769 250.94 147.641C250.94 147.625 250.924 147.609 250.924 147.593C250.571 146.55 249.801 145.267 248.967 143.904C248.358 142.91 247.749 141.884 247.22 140.841C245.985 139.013 243.259 139.414 241.736 139.815C241.592 139.847 241.447 139.799 241.367 139.687C241.287 139.574 241.271 139.414 241.335 139.302C241.944 138.227 242.81 137.137 243.628 136.078C245.648 133.496 247.733 130.834 246.659 127.98C242.297 128.06 239.09 130.498 235.691 133.064C234.97 133.609 234.216 134.186 233.462 134.731C222.351 144.722 211.464 155.884 199.214 169.836C199.085 169.98 198.861 169.996 198.717 169.868C198.572 169.74 198.556 169.515 198.685 169.371C210.967 155.387 221.87 144.209 233.014 134.202C233.03 134.186 233.03 134.186 233.046 134.17C233.799 133.625 234.553 133.064 235.274 132.518C238.818 129.824 242.185 127.29 246.899 127.29C247.043 127.29 247.172 127.37 247.22 127.499C248.647 130.818 246.37 133.721 244.173 136.511C243.516 137.345 242.891 138.147 242.377 138.933C244.911 138.452 246.819 138.981 247.813 140.472C247.829 140.489 247.829 140.505 247.829 140.505C248.342 141.531 248.967 142.557 249.561 143.552C250.394 144.931 251.196 146.246 251.565 147.368C251.613 147.481 251.677 147.593 251.741 147.721C252.351 148.892 253.265 150.624 251.757 151.907C252.527 152.773 252.976 153.815 253.056 154.857C253.136 155.964 252.8 156.99 252.11 157.68C251.116 159.011 249.769 159.989 248.567 160.855C247.492 161.641 246.482 162.379 245.921 163.229C243.147 167.847 240.614 172.418 238.16 176.844C233.96 184.429 229.983 191.598 225.077 198.622C225.061 198.686 224.948 198.75 224.836 198.75Z" fill="black"/>
<path d="M225.574 164.031C225.173 164.031 224.756 163.966 224.355 163.822C224.163 163.758 224.067 163.565 224.131 163.373C224.195 163.197 224.388 163.084 224.58 163.148C226.247 163.71 227.995 162.715 228.973 161.689C229.919 160.711 230.577 159.444 231.202 158.241C231.362 157.921 231.539 157.616 231.699 157.295C232.469 155.884 233.591 154.152 235.339 153.286C236.173 152.885 237.07 152.693 237.952 152.532C238.337 152.452 238.738 152.372 239.123 152.276C240.133 152.019 241.448 151.474 241.929 150.335C242.57 148.844 241.416 147.112 239.973 146.47C238.433 145.797 236.622 146.005 234.906 146.326C230.16 147.208 226.103 148.747 222.832 150.912C222.672 151.025 222.447 150.977 222.351 150.816C222.239 150.656 222.287 150.431 222.447 150.335C225.799 148.122 229.951 146.55 234.778 145.652C236.605 145.316 238.546 145.091 240.261 145.845C242.009 146.615 243.388 148.764 242.586 150.64C241.993 152.035 240.47 152.676 239.299 152.981C238.898 153.077 238.481 153.158 238.081 153.238C237.215 153.414 236.397 153.575 235.643 153.943C234.072 154.713 233.03 156.333 232.308 157.664C232.148 157.969 231.972 158.289 231.811 158.594C231.154 159.845 230.464 161.144 229.47 162.202C228.588 163.116 227.129 164.031 225.574 164.031Z" fill="black"/>
<path d="M237.825 156.638C237.536 156.638 237.232 156.606 236.927 156.525C235.805 156.221 234.794 155.066 235.083 153.847C235.131 153.655 235.324 153.543 235.5 153.591C235.692 153.639 235.805 153.831 235.756 154.008C235.564 154.825 236.318 155.643 237.103 155.852C237.841 156.06 238.723 155.916 239.845 155.451C243.757 153.799 246.74 150.191 247.622 146.037C247.67 145.845 247.846 145.733 248.039 145.765C248.231 145.813 248.343 145.989 248.311 146.182C247.381 150.56 244.239 154.36 240.118 156.108C239.541 156.349 238.707 156.638 237.825 156.638Z" fill="black"/>
<path d="M242.49 158.209C242.105 158.209 241.752 158.161 241.416 158.049C240.422 157.728 239.7 156.878 239.668 155.964C239.668 155.772 239.812 155.611 240.005 155.595C240.197 155.579 240.357 155.739 240.373 155.932C240.39 156.621 241.031 157.183 241.64 157.375C242.233 157.568 242.955 157.536 243.885 157.295C246.466 156.621 248.727 154.922 250.09 152.628C250.186 152.468 250.411 152.404 250.571 152.5C250.731 152.596 250.796 152.821 250.699 152.981C249.24 155.419 246.819 157.247 244.077 157.969C243.468 158.129 242.955 158.209 242.49 158.209Z" fill="black"/>
<path d="M245.538 161.16C244.848 161.16 244.159 160.887 243.694 160.39C243.052 159.717 242.828 158.69 243.132 157.808C243.197 157.632 243.405 157.536 243.581 157.584C243.758 157.648 243.87 157.856 243.806 158.033C243.581 158.658 243.742 159.412 244.207 159.893C244.672 160.374 245.409 160.567 246.051 160.374C246.243 160.31 246.435 160.422 246.484 160.615C246.548 160.807 246.435 161 246.243 161.048C246.003 161.128 245.778 161.16 245.538 161.16Z" fill="black"/>
<path d="M39.2268 323.789C51.573 324.318 78.0933 324.013 97.3181 323.692C109.568 323.484 119.814 314.343 121.401 302.203C123.293 287.786 127.254 267.099 135.591 243.829C148.05 246.764 177.12 247.887 196.825 231.818C209.605 221.394 224.18 204.636 234.586 182.954C224.308 181.046 214.447 174.31 205.019 163.02C205.019 163.02 185.586 182.12 173.865 192.512C169.503 196.377 163.747 198.269 157.943 197.788C143.785 196.601 117.281 194.388 112.021 194.067C97.9114 193.217 73.0746 192.544 51.2202 196.216C43.6682 197.483 37.2385 202.423 34.0638 209.382C28.2274 222.132 18.4146 244.07 11.7604 261.47C7.30296 273.128 13.1073 286.407 24.8602 290.625C25.5978 290.881 26.3033 291.09 26.9767 291.234C26.9767 291.234 24.9404 300.391 25.694 310.638C26.2071 317.823 32.0275 323.484 39.2268 323.789Z" fill="#FF722C"/>
<path d="M59.0608 324.43C51.1079 324.43 44.085 324.35 39.2267 324.141C31.851 323.821 25.8703 318.031 25.3412 310.671C24.6677 301.61 26.207 293.287 26.5598 291.523C25.9825 291.378 25.3732 291.202 24.7319 290.977C19.0719 288.941 14.5503 284.771 12.0008 279.239C9.41936 273.626 9.21092 267.115 11.4236 261.358C18.19 243.669 28.3075 221.121 33.743 209.254C36.9819 202.182 43.4917 197.179 51.172 195.88C73.3952 192.143 98.8573 192.929 112.053 193.715C117.264 194.035 143.063 196.184 157.991 197.435C163.683 197.916 169.375 196.024 173.64 192.255C185.233 181.992 204.586 162.956 204.778 162.78C204.842 162.716 204.939 162.667 205.035 162.684C205.131 162.684 205.227 162.732 205.291 162.812C214.735 174.102 224.612 180.773 234.666 182.617C234.778 182.633 234.874 182.713 234.922 182.81C234.97 182.906 234.97 183.018 234.922 183.114C222.512 208.982 205.869 224.906 197.066 232.091C188.44 239.131 176.847 243.701 163.555 245.305C149.749 246.973 139.199 245.016 135.832 244.246C127.398 267.901 123.534 288.845 121.77 302.251C120.984 308.201 118.098 313.685 113.609 317.695C109.135 321.688 103.347 323.949 97.3501 324.061C85.4047 324.238 71.1665 324.43 59.0608 324.43ZM90.2149 193.747C78.1573 193.747 64.1596 194.388 51.2522 196.553C43.8124 197.804 37.495 202.647 34.3523 209.527C28.9168 221.394 18.8153 243.926 12.065 261.598C9.93245 267.179 10.1409 273.497 12.6262 278.934C15.0954 284.29 19.4727 288.331 24.9564 290.304C25.6939 290.56 26.3994 290.769 27.0408 290.897C27.137 290.913 27.2172 290.977 27.2653 291.058C27.3134 291.138 27.3294 291.234 27.3134 291.33C27.2973 291.426 25.2931 300.567 26.0467 310.622C26.5598 317.63 32.2518 323.147 39.2587 323.436C51.5087 323.965 77.5961 323.676 97.318 323.34C109.295 323.131 119.493 314.022 121.048 302.155C122.812 288.652 126.708 267.548 135.255 243.701C135.319 243.525 135.495 243.445 135.671 243.477C150.102 246.876 178.242 246.508 196.601 231.529C205.323 224.409 221.742 208.709 234.072 183.195C224.115 181.206 214.335 174.599 204.987 163.517C202.582 165.875 184.944 183.146 174.089 192.752C169.68 196.649 163.795 198.606 157.911 198.109C142.999 196.858 117.2 194.693 111.989 194.388C106.489 194.083 98.8573 193.747 90.2149 193.747Z" fill="black"/>
<path d="M70 251.5L80.5 246C85.3333 244.333 95.8 240.9 99 240.5C103 240 109.5 239.5 114 241C118.5 242.5 118.5 243 118 244.5C117.5 246 115.5 246 114 246C113.804 246 113.525 245.982 113.188 245.951C115.439 246.38 117.412 246.912 118 247.5C119.5 249 121 250.5 119.5 251.5C118.3 252.3 110 251.5 106 251C105.833 251.167 105.8 251.6 107 252C108.5 252.5 111.5 252 112 252.5C112.5 253 113.5 252.5 114 253.5C114.5 254.5 115 255.5 114.5 256.5C114 257.5 114 257.5 112 257.5C110.4 257.5 105.667 256.833 103.5 256.5C103.333 256.5 103.4 256.7 105 257.5C107 258.5 111.5 259.5 111 263.5C110 265.5 106 264.5 106 264.5C105.167 264 102.8 263.3 100 264.5C97.2959 265.659 86.9129 271.885 81.551 275.163C81.428 275.338 81.2107 275.447 81 275.5C81.177 275.392 81.3608 275.279 81.551 275.163C81.8172 274.783 81.6415 274.094 80 273C77 271 72 266.5 67.5 267C71.5 260 71 256 70 251.5Z" fill="white"/>
<path d="M37.4302 293.992C34.2876 293.992 31.0647 293.656 27.8419 292.838C27.6495 292.79 27.5372 292.597 27.5853 292.405C27.6334 292.212 27.8258 292.1 28.0182 292.148C40.5248 295.291 53.0474 291.298 61.337 287.401C69.6106 283.52 77.2748 278.196 84.6826 273.048C86.5906 271.733 88.5628 270.354 90.519 269.039C95.4735 265.688 100.797 262.753 106.168 263.907C106.345 263.94 106.537 263.988 106.713 264.036C107.916 264.324 109.167 264.613 110.032 263.94C110.946 263.218 110.834 261.662 110.129 260.732C109.327 259.69 107.996 259.161 106.81 258.76L106.489 258.647C105.27 258.23 103.988 257.798 103.009 256.899C102.897 256.803 102.865 256.627 102.929 256.499C102.993 256.354 103.138 256.274 103.282 256.29L112.069 257.268C112.598 257.332 113.207 257.397 113.688 257.172C114.233 256.915 114.394 256.386 114.442 256.098C114.57 255.376 114.297 254.558 113.8 254.061C112.838 253.131 111.379 252.938 109.968 252.81H109.92C108.493 252.682 106.858 252.553 105.655 251.607C105.527 251.511 105.495 251.351 105.543 251.206C105.607 251.062 105.735 250.966 105.896 250.982L116.703 251.832C117.424 251.896 118.001 251.912 118.482 251.655C118.979 251.399 119.172 250.934 119.252 250.581C119.412 249.891 119.236 249.074 118.803 248.512C117.985 247.438 116.542 246.925 115.388 246.524C115.227 246.46 115.131 246.299 115.163 246.123C115.195 245.946 115.356 245.834 115.516 245.834C116.927 245.882 117.777 245.465 118.065 244.567C118.338 243.669 117.793 243.028 116.879 242.338C115.965 241.648 114.778 241.392 113.752 241.199C100.588 238.794 87.2961 243.621 77.1786 248.095C74.4689 249.298 71.7431 250.581 69.0975 251.816C60.407 255.905 51.4119 260.123 41.8556 262.063C41.6632 262.095 41.4708 261.983 41.4388 261.791C41.4067 261.598 41.5189 261.406 41.7113 261.374C51.1875 259.449 60.1344 255.248 68.7928 251.174C71.4384 249.923 74.1803 248.641 76.89 247.438C87.1037 242.915 100.524 238.04 113.881 240.494C115.003 240.702 116.286 240.991 117.312 241.777C118.258 242.498 119.156 243.413 118.739 244.776C118.546 245.385 118.098 246.075 117.023 246.379C117.905 246.764 118.771 247.277 119.38 248.079C119.941 248.817 120.166 249.827 119.957 250.741C119.797 251.447 119.396 251.992 118.819 252.281C118.114 252.65 117.312 252.586 116.654 252.521L107.916 251.832C108.589 251.976 109.295 252.04 109.984 252.104H110.032C111.508 252.233 113.159 252.457 114.297 253.548C114.971 254.189 115.308 255.264 115.147 256.21C115.019 256.964 114.618 257.525 113.993 257.814C113.335 258.118 112.598 258.038 112.005 257.974L104.629 257.156C105.286 257.493 106.024 257.749 106.729 257.99L107.05 258.102C108.333 258.551 109.776 259.113 110.69 260.315C111.604 261.502 111.748 263.523 110.465 264.517C109.343 265.383 107.868 265.046 106.553 264.741C106.377 264.693 106.184 264.661 106.008 264.613C100.877 263.507 95.714 266.377 90.8877 269.633C88.9316 270.948 86.9754 272.327 85.0674 273.642C77.6276 278.806 69.9313 284.13 61.6096 288.043C55.3723 290.994 46.714 293.992 37.4302 293.992Z" fill="black"/>
<path d="M46.8742 260.893C46.8421 260.893 46.8101 260.893 46.794 260.877C46.6016 260.828 46.4894 260.636 46.5375 260.444L50.8346 243.733C50.8827 243.541 51.0751 243.429 51.2675 243.477C51.4599 243.525 51.5722 243.717 51.5241 243.91L47.2269 260.62C47.1628 260.78 47.0345 260.893 46.8742 260.893Z" fill="black"/>
<path d="M114.25 246.475C114.234 246.475 114.218 246.475 114.186 246.475C111.652 246.042 109.071 245.77 106.521 245.674C106.329 245.674 106.169 245.497 106.185 245.305C106.185 245.112 106.345 244.968 106.553 244.968C109.135 245.08 111.749 245.353 114.314 245.786C114.506 245.818 114.635 245.994 114.603 246.187C114.571 246.347 114.426 246.475 114.25 246.475Z" fill="black"/>
<path d="M68.4565 283.921C68.3122 283.921 68.1839 283.841 68.1358 283.713C64.3838 274.828 61.0167 265.655 58.1305 256.466C58.0664 256.274 58.1786 256.081 58.355 256.017C58.5474 255.953 58.7398 256.065 58.804 256.242C61.6901 265.415 65.0572 274.572 68.7932 283.424C68.8733 283.6 68.7771 283.809 68.6008 283.889C68.5527 283.905 68.5046 283.921 68.4565 283.921Z" fill="black"/>
<path d="M81.3956 275.598C81.2834 275.598 81.1711 275.55 81.107 275.454C77.9804 271.044 72.8976 268.109 67.5101 267.612C67.3979 267.596 67.2857 267.532 67.2376 267.435C67.1734 267.339 67.1734 267.211 67.2376 267.115C69.6587 262.223 70.5566 256.562 69.7389 251.174C69.7068 250.982 69.8351 250.805 70.0275 250.773C70.2199 250.741 70.3963 250.869 70.4283 251.062C71.2461 256.434 70.4123 262.063 68.0874 266.97C73.4908 267.612 78.5416 270.611 81.6842 275.053C81.7965 275.213 81.7644 275.438 81.6041 275.55C81.5399 275.566 81.4598 275.598 81.3956 275.598Z" fill="black"/>
<path d="M79.3911 169.595L77.5632 193.891C75.11 195.398 75.3184 199.054 77.964 200.209C82.3574 202.134 89.7972 204.122 96.3872 199.808C98.4074 198.493 98.68 195.639 96.9483 193.971L95.9703 175.192L79.3911 169.595Z" fill="white"/>
<path d="M87.5372 202.727C83.6569 202.727 80.1294 201.54 77.8205 200.53C76.4737 199.936 75.5918 198.702 75.4956 197.21C75.3994 195.799 76.0568 194.468 77.2113 193.682L79.0231 169.563C79.0391 169.451 79.0872 169.354 79.1834 169.29C79.2796 169.226 79.3919 169.21 79.4881 169.258L96.0673 174.855C96.2116 174.903 96.2918 175.031 96.3078 175.176L97.2859 193.826C98.1197 194.692 98.5205 195.863 98.4083 197.066C98.296 198.317 97.6226 199.439 96.5644 200.129C93.6141 202.053 90.4714 202.727 87.5372 202.727ZM79.7126 170.076L77.9168 193.923C77.9007 194.035 77.8526 194.131 77.7564 194.195C76.7142 194.837 76.137 195.959 76.2171 197.178C76.2973 198.397 77.0028 199.407 78.1252 199.888C82.0535 201.604 89.6056 203.833 96.2116 199.52C97.0935 198.942 97.6386 198.028 97.7509 196.986C97.8471 195.959 97.4783 194.949 96.7407 194.227C96.6766 194.163 96.6445 194.083 96.6285 193.987L95.6664 175.448L79.7126 170.076Z" fill="black"/>
<path d="M65.2329 159.251C65.1047 157.343 65.0886 150.977 76.3766 139.975C85.5641 131.027 91.0477 125.687 96.339 127.37C103.731 129.712 104.821 143.888 105.094 147.384C105.446 152.019 106.264 157.744 102.448 162.282C99.0167 166.372 93.998 168.793 88.8992 170.349C85.7565 171.295 82.5016 171.969 79.2307 171.776C72.0153 171.327 65.7621 166.757 65.2329 159.251Z" fill="black"/>
<path d="M77.0965 166.067C75.5252 166.724 74.5632 168.488 74.6433 170.188C74.7235 171.888 75.7497 173.46 77.1286 174.454C78.5075 175.448 80.2232 175.897 81.9388 175.994C82.8207 176.042 83.7667 176.01 84.5043 176.507C85.5304 177.196 85.7229 178.576 86.1718 179.73C87.198 182.264 89.8596 183.852 92.5694 184.236C95.2791 184.621 98.021 184.012 100.635 183.242C102.318 182.745 103.986 182.168 105.477 181.238C106.968 180.307 108.267 179.009 108.908 177.373C110.063 174.454 108.94 171.183 107.818 168.248C105.429 161.977 103.024 155.707 100.635 149.437C96.4977 152.869 91.2706 154.969 85.8992 155.306C84.8891 155.37 83.6705 155.499 83.2215 156.413C82.9329 157.022 83.1253 157.744 83.3177 158.401C83.8629 160.213 84.4081 162.026 84.9693 163.854C85.2418 164.768 85.5304 165.746 85.306 166.676C85.1456 167.334 84.5844 168.071 83.8789 168.2C82.981 168.344 82.6123 167.574 81.9549 167.077C80.592 166.051 78.7641 165.377 77.0965 166.067Z" fill="white"/>
<path d="M94.3176 184.718C93.7243 184.718 93.115 184.686 92.5218 184.589C89.3951 184.14 86.8457 182.328 85.8516 179.859C85.7394 179.57 85.6271 179.249 85.5309 178.944C85.2423 178.062 84.9697 177.245 84.3123 176.796C83.7511 176.427 83.0296 176.395 82.276 176.363C82.1638 176.363 82.0515 176.347 81.9393 176.347C79.9992 176.25 78.2675 175.689 76.9527 174.743C75.3814 173.62 74.4033 171.92 74.3231 170.204C74.2269 168.296 75.3493 166.42 76.9848 165.746C78.5401 165.105 80.4481 165.49 82.1798 166.805C82.3882 166.965 82.5486 167.125 82.725 167.286C83.1419 167.703 83.3984 167.927 83.8474 167.863C84.3925 167.767 84.8735 167.141 85.0018 166.612C85.2102 165.746 84.9216 164.8 84.6811 163.966L83.0296 158.514C82.8051 157.776 82.6127 156.99 82.9494 156.285C83.5106 155.13 85.0178 155.034 85.9157 154.986C91.207 154.649 96.3699 152.58 100.443 149.196C100.523 149.116 100.651 149.1 100.763 149.132C100.876 149.164 100.956 149.244 101.004 149.341L108.187 168.152C109.374 171.279 110.448 174.582 109.277 177.533C108.492 179.522 106.904 180.821 105.702 181.558C104.146 182.521 102.415 183.114 100.779 183.595C98.8071 184.156 96.5784 184.718 94.3176 184.718ZM77.097 166.067L77.2253 166.388C75.8464 166.949 74.9164 168.537 74.9966 170.172C75.0767 171.68 75.9426 173.171 77.3375 174.166C78.5401 175.032 80.1435 175.545 81.9553 175.641C82.0676 175.641 82.1798 175.657 82.292 175.657C83.1258 175.689 83.9756 175.721 84.6972 176.218C85.563 176.796 85.8837 177.79 86.2044 178.736C86.3006 179.041 86.3968 179.329 86.509 179.602C87.3909 181.799 89.796 183.483 92.634 183.9C95.3438 184.301 98.1658 183.627 100.555 182.922C102.142 182.457 103.826 181.879 105.317 180.965C106.423 180.276 107.898 179.073 108.604 177.277C109.678 174.55 108.7 171.519 107.514 168.408L100.491 150.03C96.3699 153.334 91.223 155.338 85.9478 155.675C84.9377 155.739 83.9275 155.868 83.5748 156.589C83.3343 157.07 83.4946 157.68 83.687 158.321L85.3385 163.774C85.5951 164.64 85.9318 165.73 85.6752 166.789C85.4828 167.542 84.8254 168.424 83.9596 168.569C83.1419 168.713 82.6608 168.232 82.2279 167.799C82.0836 167.655 81.9233 167.494 81.7629 167.382C81.0414 166.837 79.1333 165.634 77.2574 166.42L77.097 166.067Z" fill="black"/>
<path d="M83.7365 172.995C83.6723 172.995 83.6082 172.979 83.5441 172.947C82.3255 172.193 80.8183 171.872 79.4073 172.065C79.2149 172.097 79.0385 171.953 79.0064 171.76C78.9744 171.568 79.1187 171.391 79.3111 171.359C80.9145 171.151 82.5499 171.488 83.9128 172.354C84.0732 172.45 84.1213 172.674 84.0251 172.835C83.977 172.931 83.8487 172.995 83.7365 172.995Z" fill="black"/>
</g>
</g>
<defs>
<clipPath id="clip0_3729_5749">
<rect width="367" height="351" fill="white"/>
</clipPath>
</defs>
</svg>
