<svg width="376" height="255" viewBox="0 0 376 255" fill="none" xmlns="http://www.w3.org/2000/svg">
<g clip-path="url(#clip0_3730_6066)">
<path d="M0.348633 286.62L12.1444 173.604C15.1409 158.441 28.4588 147.524 43.917 147.524H98.2822C112.044 147.524 124.315 156.223 128.85 169.215L160.638 286.62H0.348633Z" fill="white"/>
<path d="M160.623 286.968C160.464 286.968 160.321 286.873 160.29 286.715L128.501 169.31C124.015 156.508 111.87 147.889 98.2668 147.889H43.9173C28.6653 147.889 15.4584 158.742 12.4936 173.683L0.697827 286.651C0.681973 286.841 0.507573 286.984 0.317318 286.968C0.127063 286.952 -0.0156278 286.778 0.000226779 286.588L11.796 173.572C14.8242 158.251 28.3323 147.176 43.9173 147.176H98.2826C112.171 147.176 124.601 155.985 129.183 169.088L160.987 286.525C161.035 286.715 160.924 286.905 160.734 286.952C160.686 286.968 160.654 286.968 160.623 286.968Z" fill="black"/>
<path d="M75.0876 286.968C74.9291 286.968 74.7864 286.873 74.7547 286.715L42.9663 169.31C40.6357 162.64 36.0537 156.841 30.0924 152.99C29.9339 152.88 29.8863 152.674 29.9814 152.515C30.0924 152.357 30.2985 152.309 30.4571 152.404C36.5452 156.334 41.2223 162.259 43.6163 169.104L75.4206 286.54C75.4682 286.731 75.3572 286.921 75.1669 286.968C75.1511 286.968 75.1194 286.968 75.0876 286.968Z" fill="black"/>
<path d="M59.3281 121.191L60.1526 148.285C60.1526 148.285 60.7867 157.934 76.8316 157.459C90.3396 157.062 89.7689 147.128 89.7689 147.128L88.7066 120.732L59.3281 121.191Z" fill="white"/>
<path d="M75.7219 157.823C60.6125 157.823 59.8039 148.396 59.8039 148.301L58.9795 121.207C58.9795 121.112 59.0112 121.017 59.0746 120.954C59.138 120.89 59.2332 120.843 59.3283 120.843L88.7226 120.383C88.9129 120.383 89.0714 120.526 89.0714 120.716L90.1337 147.112C90.1496 147.255 90.3081 150.804 87.5653 153.814C85.2663 156.318 81.6674 157.664 76.8634 157.807C76.4671 157.823 76.0866 157.823 75.7219 157.823ZM59.6929 121.54L60.5015 148.269C60.5332 148.633 61.326 157.569 76.8317 157.11C81.4295 156.967 84.87 155.716 87.0262 153.355C89.5788 150.566 89.4361 147.176 89.4202 147.144L88.3738 121.08L59.6929 121.54Z" fill="black"/>
<path d="M71.5046 134.596C99.1809 131.868 119.715 110.39 117.369 86.6251C115.023 62.8597 90.6852 45.806 63.0089 48.5345C35.3326 51.263 14.7983 72.7405 17.1444 96.5059C19.4904 120.271 43.8283 137.325 71.5046 134.596Z" fill="white"/>
<path d="M65.6542 135.229C54.2864 135.229 43.4419 131.95 34.6268 125.77C24.2738 118.514 17.9319 108.136 16.7904 96.5381C15.6489 84.9402 19.8186 73.5325 28.5545 64.3904C37.2745 55.2642 49.4984 49.5128 62.9589 48.1819C76.4194 46.851 89.5311 50.1149 99.8683 57.3556C110.221 64.6122 116.547 74.9901 117.689 86.588C120.051 110.497 99.3292 132.187 71.5203 134.928C69.5702 135.134 67.6043 135.229 65.6542 135.229ZM68.8409 48.6097C66.9225 48.6097 64.9724 48.7048 63.0382 48.8949C49.7362 50.2099 37.6709 55.8821 29.0618 64.8816C20.4687 73.8652 16.3623 85.0828 17.488 96.4747C18.6137 107.867 24.8445 118.07 35.0232 125.2C45.2176 132.346 58.1708 135.562 71.4728 134.247C98.9012 131.538 119.338 110.196 117.007 86.6672C115.881 75.2753 109.651 65.0717 99.4719 57.9419C90.7678 51.8419 80.066 48.6097 68.8409 48.6097Z" fill="black"/>
<path d="M86.7789 116.166C103.439 112.31 114.342 97.9552 111.132 84.1026C107.922 70.25 91.8141 62.1457 75.1543 66.0011C58.4946 69.8565 47.5915 84.2117 50.8015 98.0643C54.0116 111.917 70.1192 120.021 86.7789 116.166Z" fill="black"/>
<path d="M72.3561 86.8182C72.8833 84.587 71.5008 82.3512 69.2681 81.8243C67.0355 81.2975 64.7982 82.6791 64.271 84.9103C63.7438 87.1415 65.1263 89.3773 67.359 89.9041C69.5916 90.431 71.8289 89.0493 72.3561 86.8182Z" fill="#5479F7"/>
<path d="M96.421 81.3977C98.0432 79.7766 98.0432 77.1482 96.421 75.5271C94.7988 73.906 92.1688 73.906 90.5466 75.5271C88.9244 77.1482 88.9244 79.7766 90.5466 81.3977C92.1688 83.0188 94.7988 83.0188 96.421 81.3977Z" fill="#5479F7"/>
<path d="M82.5706 110.132C75.4677 110.132 68.8722 106.916 64.4964 101.307C64.3854 101.149 64.4012 100.943 64.5598 100.816C64.7183 100.705 64.9244 100.721 65.0513 100.879C69.2844 106.314 75.6738 109.435 82.5706 109.435C94.8103 109.435 104.767 99.485 104.767 87.2534C104.767 87.0632 104.925 86.9048 105.116 86.9048C105.306 86.9048 105.465 87.0632 105.465 87.2534C105.465 99.8653 95.2066 110.132 82.5706 110.132Z" fill="#5479F7"/>
<path d="M35.629 124.04C42.5743 121.813 45.2835 110.909 41.6803 99.686C38.077 88.4626 29.5257 81.1694 22.5804 83.3962C15.6352 85.623 12.9259 96.5266 16.5292 107.75C20.1324 118.974 28.6837 126.267 35.629 124.04Z" fill="white"/>
<path d="M33.0251 124.804C30.2823 124.804 27.365 123.584 24.5905 121.223C20.9281 118.102 17.9474 113.364 16.1876 107.866C12.5251 96.4746 15.3473 85.352 22.466 83.0705C25.9381 81.9614 29.9017 83.0863 33.6117 86.2393C37.2741 89.3606 40.2548 94.098 42.0146 99.5959C43.7745 105.094 44.1074 110.687 42.95 115.345C41.7768 120.066 39.2084 123.283 35.7362 124.392C34.8642 124.661 33.9605 124.804 33.0251 124.804ZM25.1771 83.3398C24.3209 83.3398 23.4965 83.4666 22.6879 83.7201C15.9339 85.8907 13.3179 96.6172 16.8534 107.645C18.5816 113.016 21.483 117.642 25.0503 120.684C28.57 123.679 32.2799 124.756 35.5301 123.726C38.7644 122.681 41.1743 119.654 42.2842 115.171C43.4098 110.639 43.0769 105.173 41.3646 99.8018C39.6364 94.4307 36.7351 89.8042 33.1678 86.7621C30.5201 84.5123 27.7614 83.3398 25.1771 83.3398Z" fill="black"/>
<path d="M32.2596 119.097C37.1705 117.522 39.0871 109.816 36.5405 101.883C33.9939 93.951 27.9484 88.7971 23.0375 90.3717C18.1266 91.9462 16.21 99.653 18.7566 107.585C21.3032 115.517 27.3487 120.671 32.2596 119.097Z" fill="white"/>
<path d="M30.4576 119.718C25.8122 119.718 20.7071 114.79 18.424 107.676C17.1715 103.779 16.9337 99.8017 17.7581 96.4903C18.5984 93.1155 20.4375 90.8181 22.9267 90.0259C28.016 88.394 34.2627 93.6542 36.8628 101.766C38.1154 105.664 38.3532 109.641 37.5287 112.952C36.6884 116.327 34.8493 118.624 32.3602 119.417C31.7577 119.623 31.1076 119.718 30.4576 119.718ZM24.8768 90.4378C24.2902 90.4378 23.7036 90.5171 23.1487 90.7072C20.8973 91.436 19.2167 93.5591 18.4398 96.6804C17.6471 99.8651 17.8849 103.699 19.0899 107.486C21.5791 115.218 27.4294 120.288 32.154 118.767C34.4054 118.038 36.086 115.915 36.8628 112.794C37.6556 109.609 37.4178 105.775 36.2128 101.988C34.0249 95.1752 29.2209 90.4378 24.8768 90.4378Z" fill="black"/>
<path d="M34.1347 117.69C29.2198 119.259 23.1792 114.109 20.6266 106.171C18.6131 99.8812 19.39 93.7337 22.2597 90.6758C17.9314 92.783 16.3618 100.071 18.7717 107.566C21.3242 115.503 27.3648 120.653 32.2797 119.084C33.2944 118.752 34.1823 118.165 34.9274 117.373C34.6579 117.5 34.4042 117.611 34.1347 117.69Z" fill="black"/>
<path d="M152.981 252.412L62.3084 256.928C60.2631 257.023 58.2496 255.518 57.8215 253.553L44.2976 191.191C43.8695 189.226 45.1854 187.547 47.2307 187.452L137.887 182.952C139.932 182.857 141.946 184.362 142.374 186.327L155.898 248.689C156.342 250.638 155.026 252.317 152.981 252.412Z" fill="black"/>
<path d="M151.538 247.992L61.8173 252.444L48.6738 191.856L138.395 187.404L151.538 247.992Z" fill="white"/>
<path d="M82.6221 241.264C83.5241 238.081 81.0113 234.583 77.0097 233.451C73.0082 232.318 69.0331 233.98 68.1311 237.162C67.2292 240.344 69.742 243.842 73.7435 244.975C77.7451 246.108 81.7202 244.446 82.6221 241.264Z" fill="#E2EAFF"/>
<path d="M110.746 239.863C111.648 236.681 109.135 233.183 105.134 232.05C101.132 230.917 97.1571 232.579 96.2552 235.761C95.3532 238.944 97.866 242.442 101.868 243.574C105.869 244.707 109.844 243.045 110.746 239.863Z" fill="white"/>
<path d="M104.403 244.284C100.376 244.284 96.6022 241.654 95.8571 238.247C95.5241 236.695 95.8571 235.142 96.8083 233.906C97.9657 232.401 99.9158 231.466 102.167 231.355C106.369 231.149 110.396 233.843 111.157 237.376C111.49 238.929 111.157 240.482 110.205 241.717C109.048 243.223 107.098 244.157 104.847 244.268C104.704 244.284 104.545 244.284 104.403 244.284ZM102.627 232.052C102.484 232.052 102.342 232.052 102.199 232.068C100.154 232.163 98.3938 233.003 97.3632 234.35C96.5388 235.427 96.2376 236.758 96.5388 238.121C97.2364 241.337 100.946 243.777 104.815 243.587C106.86 243.492 108.62 242.652 109.651 241.305C110.475 240.228 110.776 238.897 110.475 237.535C109.809 234.429 106.337 232.052 102.627 232.052Z" fill="black"/>
<path d="M138.866 238.478C139.768 235.296 137.255 231.798 133.254 230.665C129.252 229.532 125.277 231.194 124.375 234.376C123.473 237.559 125.986 241.057 129.988 242.189C133.989 243.322 137.964 241.66 138.866 238.478Z" fill="#5479F7"/>
<path d="M78.6866 223.101C79.5885 219.918 77.0758 216.421 73.0742 215.288C69.0726 214.155 65.0975 215.817 64.1956 218.999C63.2937 222.181 65.8064 225.679 69.808 226.812C73.8096 227.945 77.7846 226.283 78.6866 223.101Z" fill="white"/>
<path d="M72.3441 227.521C68.317 227.521 64.5436 224.891 63.7985 221.485C63.4655 219.932 63.7985 218.379 64.7497 217.144C65.9071 215.638 67.8572 214.704 70.1086 214.593C74.31 214.387 78.3371 217.08 79.0981 220.613C79.4311 222.166 79.0981 223.719 78.1468 224.955C76.9895 226.46 75.0393 227.395 72.788 227.506C72.6453 227.521 72.4868 227.521 72.3441 227.521ZM70.5684 215.29C70.4257 215.29 70.283 215.29 70.1403 215.306C68.095 215.401 66.3352 216.24 65.3046 217.587C64.4802 218.665 64.179 219.995 64.4802 221.358C65.1778 224.574 68.8719 227.03 72.7563 226.824C74.8015 226.729 76.5614 225.889 77.5919 224.543C78.4164 223.465 78.7176 222.134 78.4164 220.772C77.7505 217.682 74.2783 215.29 70.5684 215.29Z" fill="black"/>
<path d="M106.806 221.715C107.708 218.533 105.195 215.035 101.193 213.902C97.1918 212.77 93.2167 214.431 92.3147 217.613C91.4128 220.796 93.9256 224.294 97.9271 225.426C101.929 226.559 105.904 224.897 106.806 221.715Z" fill="#E2EAFF"/>
<path d="M134.93 220.314C135.832 217.132 133.319 213.634 129.317 212.501C125.316 211.369 121.341 213.03 120.439 216.213C119.537 219.395 122.05 222.893 126.051 224.025C130.053 225.158 134.028 223.496 134.93 220.314Z" fill="black"/>
<path d="M74.7462 204.952C75.6481 201.77 73.1353 198.272 69.1338 197.139C65.1322 196.007 61.1571 197.668 60.2552 200.85C59.3532 204.033 61.866 207.531 65.8676 208.663C69.8691 209.796 73.8442 208.134 74.7462 204.952Z" fill="#E2EAFF"/>
<path d="M102.87 203.551C103.772 200.369 101.259 196.871 97.2578 195.738C93.2562 194.606 89.2811 196.267 88.3792 199.45C87.4773 202.632 89.99 206.13 93.9916 207.262C97.9932 208.395 101.968 206.734 102.87 203.551Z" fill="black"/>
<path d="M130.994 202.15C131.896 198.968 129.383 195.47 125.382 194.337C121.38 193.205 117.405 194.866 116.503 198.049C115.601 201.231 118.114 204.729 122.116 205.862C126.117 206.994 130.092 205.333 130.994 202.15Z" fill="#5479F7"/>
<path d="M26.5879 206.544C33.0325 206.544 38.2569 197.265 38.2569 185.82C38.2569 174.374 33.0325 165.095 26.5879 165.095C20.1433 165.095 14.9189 174.374 14.9189 185.82C14.9189 197.265 20.1433 206.544 26.5879 206.544Z" fill="white"/>
<path d="M26.5881 206.892C19.9609 206.892 14.5703 197.449 14.5703 185.819C14.5703 174.19 19.9609 164.747 26.5881 164.747C33.2153 164.747 38.6058 174.19 38.6058 185.819C38.6058 197.449 33.2153 206.892 26.5881 206.892ZM26.5881 165.444C20.3414 165.444 15.2679 174.586 15.2679 185.819C15.2679 197.053 20.3414 206.195 26.5881 206.195C32.8348 206.195 37.9082 197.053 37.9082 185.819C37.9082 174.586 32.8348 165.444 26.5881 165.444Z" fill="black"/>
<path d="M20.1511 250.115C20.056 250.115 19.945 250.115 19.8499 250.099C17.2656 249.941 15.2996 247.707 15.4582 245.108L19.6596 179.387C19.8182 176.804 22.0537 174.824 24.6538 174.998C27.2381 175.156 29.2041 177.39 29.0455 179.989L24.8441 245.71C24.6697 248.198 22.6086 250.115 20.1511 250.115Z" fill="black"/>
<path d="M20.8644 257.514C26.2319 257.514 30.5832 253.166 30.5832 247.802C30.5832 242.438 26.2319 238.089 20.8644 238.089C15.4968 238.089 11.1455 242.438 11.1455 247.802C11.1455 253.166 15.4968 257.514 20.8644 257.514Z" fill="white"/>
<path d="M20.8645 257.862C15.3154 257.862 10.7969 253.347 10.7969 247.801C10.7969 242.256 15.3154 237.74 20.8645 237.74C26.4136 237.74 30.9322 242.256 30.9322 247.801C30.9322 253.347 26.4136 257.862 20.8645 257.862ZM20.8645 238.438C15.6959 238.438 11.4945 242.636 11.4945 247.801C11.4945 252.967 15.6959 257.165 20.8645 257.165C26.0331 257.165 30.2346 252.967 30.2346 247.801C30.2346 242.636 26.0331 238.438 20.8645 238.438Z" fill="black"/>
<path d="M27.8245 250.035C26.3342 247.912 23.4011 247.405 21.2766 248.895C19.152 250.384 18.6447 253.315 20.135 255.438L42.0936 286.62H53.5881L27.8245 250.035Z" fill="black"/>
<path d="M397.093 199.889C397.093 199.889 408.651 218.173 408.651 253.727C408.651 261.745 408.651 286.636 408.651 286.636H290.899C290.899 286.636 290.757 251.668 287.871 215.828C284.986 179.989 397.093 199.889 397.093 199.889Z" fill="white"/>
<path d="M290.9 287C290.709 287 290.551 286.841 290.551 286.651C290.551 286.303 290.376 251.287 287.523 215.86C287.142 211.091 288.743 207.051 292.295 203.818C301.062 195.865 321.388 192.728 352.685 194.486C375.959 195.801 396.935 199.493 397.141 199.541C397.236 199.556 397.315 199.62 397.379 199.699C397.49 199.889 408.984 218.474 408.984 253.727V286.636C408.984 286.826 408.826 286.984 408.636 286.984C408.445 286.984 408.287 286.826 408.287 286.636V253.727C408.287 220.249 397.886 201.901 396.856 200.206C394.89 199.873 374.802 196.451 352.621 195.199C321.943 193.472 301.237 196.625 292.739 204.341C289.346 207.415 287.824 211.281 288.188 215.812C291.042 251.271 291.217 286.303 291.217 286.651C291.248 286.841 291.09 287 290.9 287Z" fill="black"/>
<path d="M318.011 286.905C317.82 286.905 317.678 286.762 317.662 286.572C317.646 286.366 316.726 266.625 315.331 260.366C313.952 254.187 310.749 251.145 310.717 251.113C310.575 250.986 310.575 250.765 310.702 250.622C310.828 250.479 311.05 250.479 311.193 250.606C311.336 250.733 314.586 253.822 316.013 260.223C317.424 266.545 318.359 286.35 318.359 286.556C318.375 286.746 318.217 286.905 318.026 286.921C318.026 286.905 318.026 286.905 318.011 286.905Z" fill="black"/>
<path d="M256.479 71.8372C259.523 69.6666 262.361 67.0047 264.771 64.137C266.705 61.8396 268.338 59.3045 269.749 56.6269L241.956 36.6475L233.981 57.1814L247.616 75.7824C250.835 75.5289 253.974 73.6117 256.479 71.8372Z" fill="white"/>
<path d="M247.617 76.1309C247.506 76.1309 247.395 76.0834 247.331 75.9883L233.696 57.3873C233.633 57.2923 233.617 57.1655 233.649 57.0546L241.624 36.5206C241.655 36.4256 241.75 36.3464 241.845 36.3147C241.941 36.283 242.067 36.2988 242.147 36.3622L269.94 56.3416C270.082 56.4367 270.13 56.6268 270.051 56.7852C268.529 59.653 266.88 62.1406 265.025 64.3429C262.552 67.2899 259.666 69.9834 256.669 72.1065C254.228 73.8335 251.009 75.8615 247.632 76.1309H247.617ZM234.378 57.1338L247.791 75.4179C250.93 75.101 253.974 73.1839 256.289 71.552C259.222 69.4605 262.076 66.8146 264.502 63.9151C266.262 61.8078 267.847 59.4629 269.306 56.7377L242.115 37.2019L234.378 57.1338Z" fill="black"/>
<path d="M247.252 91.5947C247.252 91.5947 243.986 80.1077 242.606 74.1186C242.146 72.1381 243.431 70.8864 243.431 70.8864C243.431 70.8864 244.604 72.5501 253.245 65.2618C261.885 57.9576 262.012 50.6535 261.061 49.893C261.172 49.5286 262.694 46.9301 266.341 49.0374C269.987 51.1447 275.536 54.7888 275.536 54.7888C275.536 54.7888 268.83 71.4093 260.395 77.3984C251.96 83.3716 247.252 91.5947 247.252 91.5947Z" fill="#5479F7"/>
<path d="M248.14 177.406C245.064 195.453 232 200.966 221.156 194.993C210.042 188.862 196.232 180.258 184.389 169.912C184.389 169.912 172.974 175.964 169.723 170.07C169.723 170.07 163.239 171.988 160.433 162.624C160.433 162.624 154.487 153.086 157.182 150.788C159.878 148.507 162.161 149.505 163.889 154.781C163.889 154.781 169.628 154.115 172.879 149.568C173.893 148.158 173.925 146.288 173.021 144.799C171.991 143.104 170.564 140.886 169.676 140.109C168.154 138.81 162.177 135.245 162.874 131.046C163.54 127.07 170.77 130.698 173.893 131.744C182.28 134.532 213.799 148.95 226.086 157.411C226.102 157.411 239.721 170.166 248.14 177.406Z" fill="white"/>
<path d="M230.098 197.655C226.958 197.655 223.851 196.863 220.997 195.278C206.554 187.309 194.219 178.911 184.341 170.308C182.708 171.132 172.863 175.822 169.549 170.451C168.249 170.688 162.652 171.195 160.1 162.75C159.37 161.578 154.186 152.943 156.945 150.519C157.864 149.695 159.053 149.41 160.195 149.727C161.368 150.043 162.985 151.121 164.111 154.385C165.284 154.179 169.85 153.165 172.577 149.362C173.497 148.079 173.544 146.368 172.704 144.973C171.261 142.581 170.088 140.949 169.422 140.363C169.153 140.141 168.725 139.84 168.233 139.507C165.887 137.923 161.955 135.261 162.589 131.062C162.7 130.333 163.049 129.779 163.604 129.43C165.332 128.353 168.804 129.494 171.341 130.318L171.563 130.397C186.751 135.356 217.192 151.358 232.317 160.659C232.476 160.754 232.539 160.976 232.428 161.134C232.333 161.293 232.111 161.356 231.953 161.245C216.859 151.961 186.498 135.99 171.356 131.046L171.134 130.967C168.867 130.222 165.443 129.113 163.984 130.001C163.604 130.238 163.366 130.619 163.286 131.141C162.716 134.896 166.426 137.4 168.629 138.905C169.137 139.254 169.581 139.555 169.882 139.808C170.802 140.6 172.26 142.834 173.307 144.577C174.29 146.193 174.226 148.221 173.148 149.727C169.834 154.337 164.158 155.05 163.905 155.082C163.746 155.098 163.588 155.003 163.54 154.844C162.732 152.357 161.463 150.756 160.005 150.36C159.101 150.107 158.15 150.344 157.404 151.01C155.407 152.769 159.117 159.835 160.718 162.402C160.734 162.434 160.75 162.449 160.75 162.481C163.413 171.385 169.359 169.769 169.612 169.69C169.771 169.643 169.945 169.706 170.009 169.864C173.069 175.394 184.103 169.627 184.214 169.563C184.341 169.5 184.5 169.516 184.611 169.611C194.472 178.23 206.823 186.659 221.314 194.66C226.657 197.607 232.904 197.702 238.469 194.914C238.643 194.835 238.849 194.898 238.944 195.072C239.024 195.247 238.96 195.453 238.786 195.548C236.011 196.958 233.047 197.655 230.098 197.655Z" fill="black"/>
<path d="M169.724 170.419C169.581 170.419 169.454 170.34 169.407 170.213C168.44 167.916 167.409 164.351 167.457 161.293C167.473 160.168 167.615 158.552 168.709 157.553C170.2 156.175 172.673 156.714 174.036 158.092C175.257 159.312 175.749 160.326 176.224 161.895C177.318 161.467 178.269 161.134 179.205 160.802C180.235 160.437 181.282 160.057 182.518 159.582C182.693 159.518 182.899 159.597 182.978 159.788C183.042 159.962 182.962 160.168 182.772 160.247C181.536 160.738 180.457 161.118 179.427 161.483C178.396 161.847 177.35 162.227 176.113 162.703C176.018 162.735 175.923 162.735 175.828 162.687C175.733 162.639 175.669 162.56 175.653 162.465C175.178 160.77 174.75 159.803 173.545 158.583C172.419 157.474 170.358 156.983 169.185 158.076C168.297 158.9 168.17 160.326 168.154 161.324C168.107 164.287 169.106 167.725 170.057 169.959C170.136 170.134 170.041 170.34 169.867 170.419C169.819 170.403 169.771 170.419 169.724 170.419Z" fill="black"/>
<path d="M160.432 162.956C160.242 162.956 160.084 162.798 160.084 162.608C160.084 162.323 160.068 161.99 160.052 161.641C160.004 160.342 159.941 158.742 160.337 157.744C160.813 156.492 162.414 155.367 163.905 155.224C164.903 155.145 165.982 155.573 166.79 156.397C167.408 157.031 167.884 157.855 168.296 159.027C168.36 159.201 168.265 159.407 168.09 159.471C167.916 159.534 167.71 159.439 167.646 159.265C167.266 158.203 166.838 157.443 166.299 156.888C165.633 156.207 164.777 155.842 163.984 155.922C162.763 156.032 161.4 156.983 161.019 157.997C160.686 158.853 160.734 160.39 160.781 161.61C160.797 161.974 160.813 162.323 160.813 162.608C160.781 162.798 160.623 162.956 160.432 162.956Z" fill="black"/>
<path d="M185.213 154.195C185.166 154.195 185.103 154.179 185.055 154.163C181.202 152.278 178.539 148.301 178.301 144.023C178.285 143.833 178.444 143.658 178.634 143.658C178.824 143.642 178.999 143.801 178.999 143.991C179.22 147.952 181.789 151.802 185.356 153.529C185.531 153.608 185.61 153.83 185.515 153.989C185.467 154.115 185.34 154.195 185.213 154.195Z" fill="black"/>
<path d="M184.468 141.424L147.686 126.832C146.956 126.547 146.132 126.832 145.736 127.497L135.969 143.959C135.478 144.799 135.842 145.861 136.73 146.225L156.564 154.242C156.358 153.418 156.279 152.452 156.659 151.58C157.516 149.631 159.497 149.616 160.766 150.329C162.034 151.057 163.461 153.212 164.19 155.573C164.19 155.573 166.458 155.43 167.773 158.773L168.17 158.932C168.439 158.219 169.137 157.031 170.913 157.046C173.37 157.062 174.86 159.122 175.764 162.006L176.176 162.18C176.985 162.513 177.92 162.117 178.237 161.293L185.34 143.468C185.689 142.66 185.293 141.741 184.468 141.424Z" fill="black"/>
<path d="M183.486 143.547L147.527 129.478L139.965 142.755L157.912 150.186C158.832 149.711 159.957 149.869 160.782 150.329C161.368 150.661 161.971 151.279 162.542 152.087L177.762 158.377L183.486 143.547Z" fill="white"/>
<path d="M177.762 158.742C177.714 158.742 177.667 158.726 177.635 158.71L162.415 152.42C162.351 152.388 162.304 152.357 162.256 152.293C161.701 151.501 161.146 150.931 160.623 150.63C159.814 150.17 158.816 150.123 158.086 150.487C157.991 150.535 157.88 150.535 157.785 150.503L139.838 143.088C139.742 143.056 139.679 142.977 139.647 142.882C139.616 142.787 139.632 142.676 139.679 142.597L147.242 129.319C147.321 129.161 147.511 129.098 147.67 129.161L183.628 143.231C183.802 143.294 183.897 143.5 183.834 143.674L178.095 158.52C178.063 158.615 178 158.679 177.904 158.71C177.857 158.726 177.809 158.742 177.762 158.742ZM162.763 151.818L177.556 157.934L183.041 143.753L147.686 129.922L140.472 142.597L157.912 149.806C158.831 149.394 159.989 149.473 160.956 150.028C161.558 150.36 162.177 150.978 162.763 151.818Z" fill="black"/>
<path d="M240.197 97.5044L236.788 155.652L200.101 142.058L191.508 184.187L250.407 212.944L311.844 171.322L240.197 97.5044Z" fill="#5479F7"/>
<path d="M202.035 206.528C202.035 206.528 192.379 210.235 187.052 210.727C179.109 211.455 136.492 215.527 132.734 216.066C129.167 216.589 128.612 222.245 133.178 222.895C138.632 223.671 148.843 223.624 148.843 223.624C148.843 223.624 148.288 227.791 155.232 231.672C155.232 231.672 154.503 237.329 161.162 239.262C161.162 239.262 160.971 245.473 168.471 246.867C175.97 248.261 196.549 246.439 203.588 244.918C216.098 242.225 234.283 230.072 234.283 230.072L202.035 206.528Z" fill="white"/>
<path d="M176.144 247.707C173.037 247.707 170.326 247.564 168.423 247.215C161.622 245.964 160.908 240.783 160.829 239.531C154.994 237.709 154.82 232.987 154.868 231.878C149.128 228.599 148.51 225.145 148.478 223.988C146.607 223.988 137.967 223.94 133.115 223.243C130.483 222.863 129.548 220.978 129.548 219.472C129.548 217.84 130.61 216.018 132.671 215.717C133.955 215.527 184.103 210.568 191.634 209.887C191.825 209.871 191.999 210.013 192.015 210.204C192.031 210.394 191.888 210.568 191.698 210.584C184.167 211.265 134.051 216.224 132.766 216.399C131.102 216.636 130.23 218.126 130.23 219.457C130.23 220.74 131.006 222.229 133.194 222.53C138.569 223.291 148.716 223.259 148.811 223.259C148.906 223.259 149.001 223.307 149.081 223.37C149.144 223.449 149.176 223.544 149.16 223.639C149.16 223.671 148.748 227.632 155.375 231.34C155.502 231.403 155.565 231.546 155.549 231.688C155.518 231.91 154.947 237.075 161.225 238.897C161.384 238.945 161.479 239.087 161.479 239.246C161.479 239.483 161.4 245.187 168.503 246.502C175.986 247.881 196.549 246.043 203.478 244.554C215.781 241.908 233.871 229.882 234.061 229.755C234.22 229.644 234.442 229.692 234.553 229.85C234.664 230.009 234.616 230.231 234.457 230.341C234.283 230.468 216.082 242.557 203.636 245.235C198.436 246.392 185.483 247.707 176.144 247.707Z" fill="black"/>
<path d="M156.596 224.13C156.58 224.13 156.58 224.13 156.596 224.13L148.859 223.988C148.668 223.988 148.51 223.829 148.51 223.639C148.51 223.449 148.668 223.291 148.859 223.291L156.596 223.433C156.786 223.433 156.944 223.592 156.944 223.782C156.929 223.972 156.786 224.13 156.596 224.13Z" fill="black"/>
<path d="M266.389 57.0545C266.389 57.0545 276.869 48.261 292.581 54.0599C315.284 62.4256 375.024 132.583 397.776 182.049C410.475 209.665 408.747 233.954 408.747 233.954C408.747 233.954 303.441 241.607 288.617 241.702C286.968 238.01 282.465 230.072 282.465 230.072C282.465 230.072 241.624 238.992 213.831 244.474L185.705 208.477L243.447 176.646C238.517 105.268 239.769 100.214 240.181 94.8268C244.113 76.0832 266.389 57.0545 266.389 57.0545Z" fill="#5479F7"/>
<path d="M283.1 230.389C282.941 230.389 282.799 230.278 282.767 230.135C282.719 229.945 282.83 229.755 283.021 229.708L287.539 228.503C310.465 222.388 325.194 200.063 321.817 176.598L313.477 118.577C313.445 118.387 313.588 118.213 313.778 118.181C313.969 118.149 314.143 118.292 314.175 118.482L322.514 176.503C325.939 200.317 310.988 222.974 287.713 229.185L283.195 230.389C283.163 230.389 283.131 230.389 283.1 230.389Z" fill="black"/>
<path d="M211.611 194.423C211.484 194.423 211.373 194.36 211.31 194.249C211.215 194.074 211.278 193.868 211.452 193.773L263.963 165.143C264.137 165.048 264.343 165.111 264.438 165.286C264.534 165.46 264.47 165.666 264.296 165.761L211.785 194.391C211.722 194.407 211.674 194.423 211.611 194.423Z" fill="black"/>
<path d="M257.669 168.771C257.478 168.771 257.336 168.629 257.32 168.438L253.578 96.4429C253.578 96.3478 253.657 88.1723 256.369 79.7115C259.983 68.4464 266.595 61.7918 275.505 60.4451C275.695 60.4134 275.87 60.556 275.901 60.7461C275.933 60.9363 275.79 61.1105 275.6 61.1422C264.708 62.7742 259.492 72.2648 257.034 79.9175C254.355 88.2673 254.276 96.332 254.276 96.427L258.017 168.407C258.033 168.597 257.875 168.771 257.684 168.771C257.684 168.771 257.684 168.771 257.669 168.771Z" fill="black"/>
<path d="M247.648 159.423C247.616 159.423 247.585 159.423 247.537 159.407L236.693 156.001C236.502 155.938 236.407 155.747 236.471 155.557C236.534 155.367 236.724 155.272 236.915 155.335L247.759 158.742C247.949 158.805 248.045 158.995 247.981 159.186C247.934 159.328 247.791 159.423 247.648 159.423Z" fill="black"/>
<path d="M185.562 50.3842C180.266 49.0532 174.638 46.5816 172.45 41.5907C170.119 36.3146 173.116 29.3749 178.554 27.4577C174.273 26.0793 170.151 24.2414 166.267 21.9915C176.746 11.8988 189.525 3.75497 203.81 0.966412C218.079 -1.80631 233.918 1.37836 244.541 11.3126C248.948 15.4479 252.452 20.8666 253.07 26.8874C253.72 33.2091 251.136 39.4517 247.616 44.7437C243.034 51.62 236.439 57.5298 228.432 59.5896C223.026 60.9839 216.985 60.3184 212.102 57.5457C210.865 56.8485 209.708 56.0088 208.662 55.0265C207.917 54.3293 207.029 52.5706 206.125 52.1745C205.063 51.6992 202.859 52.2538 201.686 52.2696C200.005 52.2854 198.325 52.2379 196.66 52.127C192.902 51.8735 189.192 51.2873 185.562 50.3842Z" fill="black"/>
<path d="M195.439 41.6542H195.423C190.952 41.4165 186.56 40.0698 182.723 37.7407C182.565 37.6456 182.502 37.4238 182.612 37.2654C182.708 37.1069 182.93 37.0435 183.088 37.1544C186.814 39.4201 191.095 40.7511 195.455 40.9729C195.645 40.9887 195.803 41.1472 195.788 41.3373C195.772 41.5116 195.629 41.6542 195.439 41.6542Z" fill="white"/>
<path d="M244.351 54.3928C243.717 59.4788 242.956 64.533 239.864 68.6208C236.772 72.7244 232.206 75.814 227.133 76.5904C218.635 77.8896 210.232 72.5185 205.444 65.3728C200.656 58.2429 198.769 49.6079 197.057 41.1947C197.057 41.1947 218.111 39.4201 230.89 30.595C235.71 32.9716 239.15 36.4256 241.529 40.7193C241.529 40.7193 241.973 36.1246 245.667 35.5225C249.662 34.8729 253.895 37.4872 255.179 41.3373C256.464 45.1874 254.862 49.7188 251.612 52.1429C249.773 53.5055 247.934 54.5829 245.27 54.3928H244.351Z" fill="white"/>
<path d="M224.564 77.1449C217.398 77.1449 210.01 72.8195 205.158 65.5787C200.164 58.1161 198.246 48.784 196.723 41.2738C196.708 41.1788 196.723 41.0679 196.787 40.9887C196.85 40.9094 196.945 40.8619 197.041 40.8461C197.247 40.8302 218.143 38.9765 230.716 30.3097C230.827 30.2305 230.953 30.2305 231.064 30.278C235.44 32.4328 238.912 35.6175 241.386 39.737C241.75 38.2793 242.797 35.6492 245.635 35.1897C249.757 34.5243 254.196 37.2336 255.544 41.2422C256.86 45.1557 255.306 49.8613 251.85 52.4281C250.185 53.6639 248.172 54.9632 245.27 54.7413C245.08 54.7255 244.937 54.567 244.953 54.3611C244.969 54.1709 245.127 54.0283 245.334 54.0442C247.743 54.2185 249.456 53.3471 251.438 51.8736C254.656 49.4811 256.099 45.1081 254.894 41.464C253.657 37.7723 249.567 35.2689 245.762 35.8869C242.369 36.4256 241.909 40.7193 241.909 40.7668C241.893 40.9253 241.782 41.052 241.639 41.0679C241.481 41.0996 241.338 41.0362 241.259 40.8936C238.833 36.5048 235.456 33.2726 230.953 31.0069C219.189 39.024 200.449 41.2105 197.5 41.5115C199.007 48.8949 200.909 57.9735 205.761 65.1826C210.105 71.647 218.381 77.5727 227.101 76.2418C231.841 75.513 236.392 72.661 239.61 68.3989C242.559 64.4855 243.352 59.7164 244.018 54.3294C244.049 54.1393 244.224 53.9967 244.414 54.0283C244.604 54.06 244.747 54.2343 244.715 54.4245C244.033 59.9065 243.225 64.7706 240.165 68.8267C236.851 73.2314 232.127 76.1784 227.212 76.9389C226.324 77.0815 225.452 77.1449 224.564 77.1449Z" fill="black"/>
<path d="M244.636 49.2276C244.573 49.2276 244.493 49.2118 244.43 49.1642C244.271 49.0533 244.224 48.8315 244.335 48.6731C245.461 47.057 246.301 45.2824 246.856 43.397C246.903 43.2069 247.109 43.1118 247.284 43.1593C247.474 43.2069 247.569 43.4128 247.522 43.5871C246.951 45.5359 246.063 47.3897 244.906 49.0533C244.858 49.1801 244.747 49.2276 244.636 49.2276Z" fill="black"/>
<path d="M220.774 57.3716C218.047 57.3716 215.225 55.5337 213.782 52.5075C211.88 48.5465 213.053 44.015 216.398 42.4306C219.728 40.8304 223.993 42.7634 225.895 46.7244C226.815 48.6415 227.053 50.7329 226.561 52.6184C226.07 54.5355 224.912 56.0249 223.279 56.8012C222.471 57.1815 221.63 57.3716 220.774 57.3716ZM214.417 52.2064C216.145 55.8189 219.982 57.6093 222.978 56.1833C224.421 55.502 225.451 54.1711 225.879 52.4599C226.323 50.7171 226.101 48.8 225.261 47.0254C223.533 43.413 219.696 41.6226 216.7 43.0486C213.703 44.4904 212.673 48.594 214.417 52.2064Z" fill="black"/>
<path d="M207.466 63.9805C210.633 62.4664 211.728 58.1609 209.911 54.364C208.093 50.5671 204.052 48.7165 200.885 50.2306C197.717 51.7447 196.623 56.0502 198.44 59.8471C200.257 63.644 204.298 65.4946 207.466 63.9805Z" fill="white"/>
<path d="M205.126 64.8501C202.399 64.8501 199.577 63.0122 198.134 59.986C197.214 58.0689 196.977 55.9774 197.468 54.092C197.96 52.1749 199.117 50.6855 200.75 49.9091C204.079 48.3089 208.344 50.2419 210.247 54.2029C212.149 58.1639 210.976 62.6953 207.631 64.2797C206.822 64.66 205.982 64.8501 205.126 64.8501ZM203.239 50.0359C202.478 50.0359 201.733 50.1943 201.035 50.5271C199.593 51.2084 198.562 52.5393 198.134 54.2504C197.69 55.9933 197.912 57.9104 198.752 59.685C200.48 63.2974 204.317 65.0878 207.314 63.6618C210.31 62.2359 211.325 58.1322 209.597 54.5039C208.281 51.7312 205.712 50.0359 203.239 50.0359Z" fill="black"/>
<path d="M209.914 54.7097C209.867 54.7097 209.835 54.7097 209.787 54.6938C209.613 54.6305 209.518 54.4245 209.581 54.2502C210.691 51.3507 214.116 52.032 214.163 52.032C214.353 52.0637 214.48 52.2539 214.433 52.444C214.401 52.6341 214.211 52.7609 214.021 52.7133C213.91 52.6816 211.135 52.1429 210.247 54.4879C210.184 54.6146 210.057 54.7097 209.914 54.7097Z" fill="black"/>
<path d="M225.562 47.2155C225.467 47.2155 225.372 47.1838 225.309 47.1045C225.182 46.9619 225.198 46.7401 225.34 46.6134L237.247 35.8552C237.39 35.7285 237.612 35.7443 237.739 35.8869C237.865 36.0295 237.85 36.2513 237.707 36.3781L225.8 47.1362C225.737 47.1996 225.657 47.2155 225.562 47.2155Z" fill="black"/>
</g>
<defs>
<clipPath id="clip0_3730_6066">
<rect width="409" height="287" fill="white"/>
</clipPath>
</defs>
</svg>
