<svg width="349" height="223" viewBox="0 0 349 223" fill="none" xmlns="http://www.w3.org/2000/svg">
<path d="M35.6004 204.596H332.852C339.106 204.596 344.185 199.509 344.185 193.243V14.353C344.185 8.08743 339.106 3 332.852 3H35.6004C29.3459 3 24.2674 8.08743 24.2674 14.353V193.243C24.2674 199.509 29.3459 204.596 35.6004 204.596ZM332.852 3.58907C338.772 3.58907 343.597 8.42213 343.597 14.353V193.243C343.597 199.174 338.772 204.007 332.852 204.007H35.6004C29.68 204.007 24.8554 199.174 24.8554 193.243V14.353C24.8554 8.42213 29.68 3.58907 35.6004 3.58907H332.852Z" fill="black"/>
<path d="M30.0538 23.5371H338.397C338.558 23.5371 338.691 23.4032 338.691 23.2425C338.691 23.0819 338.558 22.948 338.397 22.948H30.0538C29.8934 22.948 29.7598 23.0819 29.7598 23.2425C29.7598 23.4032 29.8934 23.5371 30.0538 23.5371Z" fill="black"/>
<path d="M58.9734 16.2165C57.5486 14.7891 57.5485 12.475 58.9734 11.0477C60.3982 9.62036 62.7082 9.62036 64.133 11.0477C65.5579 12.475 65.5579 14.7892 64.133 16.2165C62.7082 17.6438 60.3982 17.6438 58.9734 16.2165Z" fill="#E2EAFF"/>
<path d="M48.5415 15.5309C47.4822 13.8137 48.013 11.5614 49.7272 10.5003C51.4414 9.43911 53.6897 9.97093 54.749 11.6881C55.8083 13.4053 55.2774 15.6576 53.5632 16.7188C51.8491 17.7799 49.6007 17.2481 48.5415 15.5309Z" fill="#E2EAFF"/>
<path d="M38.1617 14.4885C37.6987 12.5241 38.913 10.5555 40.874 10.0917C42.835 9.62781 44.8001 10.8443 45.2631 12.8087C45.7262 14.7732 44.5119 16.7418 42.5509 17.2056C40.5899 17.6695 38.6248 16.453 38.1617 14.4885Z" fill="#E2EAFF"/>
<path d="M19.5771 226.231C19.5771 224.316 18.0269 222.763 16.1158 222.763C14.2047 222.763 12.6544 224.316 12.6544 226.231C12.6544 228.145 14.2047 229.698 16.1158 229.698C18.0269 229.698 19.5771 228.145 19.5771 226.231Z" fill="white"/>
<path d="M16.1157 229.993C18.1872 229.993 19.8711 228.306 19.8711 226.231C19.8711 224.156 18.1872 222.469 16.1157 222.469C14.0442 222.469 12.3603 224.156 12.3603 226.231C12.3603 228.306 14.0442 229.993 16.1157 229.993ZM16.1157 223.058C17.8664 223.058 19.283 224.477 19.283 226.231C19.283 227.985 17.8664 229.404 16.1157 229.404C14.3649 229.404 12.9483 227.985 12.9483 226.231C12.9483 224.477 14.3649 223.058 16.1157 223.058Z" fill="black"/>
<path d="M49.2321 226.392C49.3123 226.392 49.3791 226.365 49.4459 226.311C49.5662 226.191 49.5662 226.003 49.4459 225.896L35.694 212.12C35.6405 212.067 35.5603 212.04 35.4801 212.04H4.75536C4.59499 212.04 4.46135 212.174 4.46135 212.334C4.46135 212.495 4.59499 212.629 4.75536 212.629H35.3465L49.0183 226.311C49.0851 226.365 49.1519 226.392 49.2321 226.392Z" fill="black"/>
<path d="M8.23047 212.187C8.23047 210.272 6.68021 208.719 4.7691 208.719C2.85799 208.719 1.3077 210.272 1.3077 212.187C1.3077 214.101 2.85799 215.654 4.7691 215.654C6.68021 215.654 8.23047 214.101 8.23047 212.187Z" fill="white"/>
<path d="M4.75533 215.949C6.82681 215.949 8.51074 214.262 8.51074 212.187C8.51074 210.112 6.82681 208.425 4.75533 208.425C2.68385 208.425 0.999919 210.112 0.999919 212.187C0.999919 214.262 2.68385 215.949 4.75533 215.949ZM4.75533 209.001C6.50607 209.001 7.92269 210.42 7.92269 212.174C7.92269 213.928 6.50607 215.347 4.75533 215.347C3.00459 215.347 1.58797 213.928 1.58797 212.174C1.58797 210.42 3.01796 209.001 4.75533 209.001Z" fill="black"/>
<path d="M294.384 64.0696C293.982 55.9903 300.194 49.114 308.259 48.7111C316.324 48.3082 323.188 54.5311 323.59 62.6104C323.992 70.6897 317.78 77.5659 309.715 77.9688C301.65 78.3718 294.786 72.1489 294.384 64.0696Z" fill="black"/>
<path d="M252.545 155.034C270.12 159.653 340.189 177.258 349.945 157.872C352.912 151.981 349.865 143.56 347.807 137.884C341.258 119.797 325.274 111.001 318.539 98.0413C314.048 89.4195 312.498 80.3692 312.498 80.3692C312.338 79.3919 310.814 70.6228 302.515 66.4859C298.225 64.3438 292.184 63.8217 283.751 67.2088C283.751 67.2088 276.361 65.2943 269.879 69.5115C265.255 72.5238 263.17 77.3034 261.86 81.5741C255.806 101.228 252.732 151.874 252.545 155.034Z" fill="black"/>
<path d="M311.79 78.1736C311.817 78.1736 311.857 78.1736 311.884 78.1602C312.031 78.1067 312.124 77.9326 312.071 77.7854C310.641 73.6886 306.083 64.21 294.376 64.4777C294.216 64.4777 294.082 64.6116 294.082 64.7856C294.082 64.9463 294.216 65.0668 294.39 65.0802C294.55 65.0802 294.71 65.0802 294.871 65.0802C305.429 65.0802 309.826 73.1397 311.523 77.9996C311.55 78.0933 311.67 78.1736 311.79 78.1736Z" fill="white"/>
<path d="M203.738 241.333H268.796L264.158 203.485L228.529 196.537L203.738 241.333Z" fill="white"/>
<path d="M203.738 241.627H268.796C268.876 241.627 268.956 241.587 269.01 241.534C269.063 241.467 269.09 241.386 269.077 241.306L264.439 203.458C264.426 203.338 264.332 203.231 264.199 203.204L228.569 196.255C228.449 196.229 228.315 196.296 228.262 196.403L203.484 241.199C203.431 241.293 203.431 241.4 203.484 241.493C203.538 241.574 203.631 241.627 203.738 241.627ZM268.462 241.038H204.233L228.676 196.871L263.891 203.726L268.462 241.038Z" fill="black"/>
<path d="M250.687 208.452L217.704 207.756C217.704 207.756 232.458 177.445 241.733 159.532C246.156 150.991 253.961 144.712 263.236 142.275C278.592 138.232 304.252 133.693 330.513 138.727C336.219 139.825 341.284 143.078 344.639 147.831C353.539 160.483 358.19 186.281 363.83 205.025L327.425 205.694L336.099 236.045L265.802 235.643L250.687 208.452Z" fill="#5479F7"/>
<path d="M230.574 247.384H344.867C359.527 247.384 370.393 233.728 367.118 219.403L363.831 205.025C363.831 205.025 338.532 199.027 322.013 205.694L325.461 219.564H271.87C261.686 219.564 251.69 222.777 243.671 229.056C238.232 233.313 233.087 239.258 230.574 247.384Z" fill="white"/>
<path d="M230.574 247.679H344.866C351.949 247.679 358.538 244.492 362.948 238.95C367.359 233.407 368.989 226.258 367.412 219.35L364.124 204.958C364.084 204.797 363.924 204.703 363.777 204.73C363.616 204.77 363.523 204.931 363.55 205.078L366.837 219.484C368.374 226.218 366.797 233.193 362.494 238.588C358.191 243.997 351.776 247.09 344.866 247.09H230.975C233.18 240.222 237.523 234.237 243.858 229.284C247.787 226.218 252.224 223.848 257.062 222.228C257.222 222.175 257.303 222.014 257.249 221.853C257.196 221.693 257.035 221.612 256.875 221.666C251.984 223.299 247.48 225.696 243.497 228.815C236.949 233.929 232.498 240.155 230.293 247.29C230.266 247.384 230.28 247.478 230.333 247.558C230.387 247.639 230.48 247.679 230.574 247.679Z" fill="black"/>
<path d="M319.982 205.413C320.008 205.413 320.035 205.413 320.062 205.399C320.222 205.346 320.302 205.185 320.262 205.038L312.778 180.511C312.404 179.279 311.976 177.874 311.094 176.763C310.092 175.491 308.595 174.875 307.285 175.183C307.125 175.223 307.031 175.384 307.072 175.531C307.112 175.691 307.272 175.785 307.419 175.745C308.649 175.451 309.918 176.227 310.627 177.111C311.442 178.128 311.829 179.413 312.217 180.658L319.701 205.185C319.741 205.332 319.861 205.413 319.982 205.413Z" fill="black"/>
<path d="M281.077 187.808C282.801 187.808 284.606 187.245 286.276 186.147C288.468 184.715 290.085 182.64 291.381 180.806C300.496 167.873 303.423 151.486 306.015 137.027C306.042 136.866 305.935 136.719 305.775 136.679C305.615 136.652 305.467 136.759 305.427 136.92C302.848 151.312 299.921 167.632 290.887 180.458C289.631 182.238 288.054 184.26 285.942 185.639C283.764 187.071 281.305 187.54 279.22 186.937C275.01 185.732 273.192 180.672 272.417 176.642C270.092 164.62 271.255 151.7 275.692 140.294C275.745 140.146 275.678 139.972 275.518 139.905C275.371 139.852 275.197 139.919 275.13 140.079C270.653 151.593 269.477 164.62 271.829 176.763C272.992 182.774 275.491 186.482 279.046 187.513C279.701 187.714 280.382 187.808 281.077 187.808Z" fill="black"/>
<path d="M261.539 211.317C262.315 211.317 263.09 211.237 263.825 211.063C263.985 211.022 264.079 210.862 264.039 210.715C263.998 210.554 263.838 210.46 263.691 210.5C259.869 211.384 255.419 209.791 252.625 206.538C250.086 203.579 248.79 199.348 249.084 194.903C249.324 191.141 250.661 187.165 253.026 183.095C253.107 182.961 253.066 182.774 252.919 182.694C252.786 182.613 252.599 182.653 252.518 182.801C250.1 186.951 248.75 191.021 248.496 194.863C248.202 199.455 249.538 203.847 252.184 206.912C254.577 209.697 258.132 211.317 261.539 211.317Z" fill="black"/>
<path d="M279.46 138.808L281.906 160.831L305.187 136.518C301.819 135.487 299.199 132.81 298.237 129.409L291.902 106.958L274.275 115.82L279.46 138.808Z" fill="white"/>
<path d="M279.46 139.102C279.487 139.102 279.501 139.102 279.527 139.089C279.688 139.049 279.781 138.901 279.755 138.741L274.623 115.981L291.729 107.386L297.97 129.49C298.959 132.997 301.632 135.742 305.12 136.799C305.281 136.853 305.441 136.759 305.481 136.599C305.534 136.438 305.441 136.277 305.281 136.237C301.993 135.233 299.467 132.649 298.532 129.329L292.197 106.877C292.17 106.797 292.117 106.717 292.036 106.69C291.956 106.65 291.863 106.663 291.782 106.69L274.155 115.553C274.035 115.62 273.968 115.754 273.994 115.887L279.166 138.861C279.207 139.008 279.327 139.102 279.46 139.102Z" fill="black"/>
<path d="M290.834 101.509C290.834 101.509 295.11 94.2792 299.788 95.7385C306.911 97.9609 306.457 110.72 294.709 110.104C294.709 110.104 280.81 127.896 267.473 122.956C254.135 118.016 263.918 87.9467 266.51 82.779C266.51 82.779 284.218 80.4227 285.541 91.1197C286.303 97.3451 284.806 101.509 290.834 101.509Z" fill="white"/>
<path d="M272.311 124.108C276.641 124.108 281.385 122.26 286.263 118.618C290.914 115.164 294.242 111.148 294.843 110.412C295.084 110.425 295.311 110.425 295.538 110.425C301.378 110.425 304.078 107.091 304.653 103.852C305.321 100.116 303.263 96.5149 299.882 95.4573C295.351 94.0515 291.342 100.143 290.687 101.214C286.424 101.161 286.317 98.9114 286.13 94.8816C286.076 93.7436 286.009 92.4584 285.849 91.0794C285.555 88.7231 284.473 86.7953 282.601 85.3627C277.122 81.1321 266.912 82.4308 266.471 82.4843C266.377 82.4977 266.284 82.5513 266.243 82.645C264.159 86.7953 257.503 106.743 261.673 117.32C262.836 120.265 264.747 122.26 267.379 123.224C268.943 123.826 270.587 124.108 272.311 124.108ZM294.696 109.823C294.603 109.823 294.523 109.863 294.469 109.93C294.335 110.104 280.543 127.495 267.567 122.688C265.107 121.778 263.303 119.904 262.207 117.119C258.158 106.837 264.56 87.4513 266.698 83.0734C268.008 82.9261 277.309 82.0425 282.227 85.8447C283.951 87.1835 284.967 88.9775 285.248 91.1731C285.421 92.5253 285.475 93.7972 285.528 94.9218C285.715 98.9248 285.849 101.817 290.834 101.817C290.941 101.817 291.034 101.763 291.088 101.669C291.128 101.602 295.298 94.654 299.695 96.033C303.236 97.1308 304.586 100.839 304.065 103.771C303.503 106.904 300.75 110.144 294.723 109.836C294.71 109.823 294.71 109.823 294.696 109.823Z" fill="black"/>
<path d="M293.319 105.967C293.386 105.967 293.466 105.94 293.52 105.886C295.19 104.307 297.623 103.597 299.881 104.052C300.042 104.079 300.202 103.985 300.229 103.825C300.256 103.664 300.162 103.503 300.002 103.477C297.569 102.995 294.923 103.758 293.119 105.471C292.999 105.579 292.999 105.766 293.106 105.886C293.159 105.94 293.239 105.967 293.319 105.967Z" fill="black"/>
<path d="M269.13 98.7774C268.395 101.937 269.945 104.989 272.565 105.605C275.197 106.221 277.91 104.146 278.645 100.986C279.38 97.8268 277.83 94.7744 275.211 94.1585C272.591 93.5561 269.865 95.6178 269.13 98.7774Z" fill="white"/>
<path d="M273.5 106.007C275.946 106.007 278.271 103.972 278.94 101.053C279.314 99.4601 279.14 97.8401 278.458 96.4879C277.763 95.1224 276.641 94.1986 275.278 93.8773C273.915 93.5694 272.498 93.9041 271.282 94.8278C270.079 95.7382 269.21 97.1172 268.849 98.7237C268.088 102.031 269.731 105.257 272.511 105.9C272.845 105.967 273.166 106.007 273.5 106.007ZM274.289 94.3459C274.583 94.3459 274.863 94.3726 275.157 94.4396C276.347 94.7073 277.336 95.5374 277.937 96.7423C278.552 97.974 278.712 99.4467 278.378 100.906C277.683 103.905 275.117 105.873 272.645 105.297C270.172 104.722 268.729 101.83 269.424 98.8308C269.758 97.3715 270.547 96.1131 271.643 95.283C272.458 94.6672 273.367 94.3459 274.289 94.3459Z" fill="black"/>
<path d="M257.369 95.9257C256.66 99.0183 257.943 101.95 260.242 102.486C262.541 103.021 264.986 100.946 265.695 97.8535C266.403 94.7609 265.12 91.8289 262.821 91.2934C260.523 90.7579 258.077 92.833 257.369 95.9257Z" fill="white"/>
<path d="M260.978 102.861C261.926 102.861 262.889 102.486 263.757 101.75C264.84 100.839 265.628 99.4736 265.989 97.9206C266.35 96.3676 266.23 94.7878 265.668 93.4891C265.094 92.1637 264.105 91.2801 262.902 90.999C261.699 90.7178 260.43 91.0793 259.32 92.0165C258.238 92.9268 257.449 94.2924 257.089 95.8454C256.728 97.3984 256.848 98.9782 257.409 100.277C257.984 101.602 258.973 102.486 260.176 102.767C260.443 102.834 260.71 102.861 260.978 102.861ZM262.087 91.4943C262.314 91.4943 262.528 91.5211 262.755 91.5747C263.771 91.8156 264.613 92.5788 265.121 93.7301C265.642 94.9083 265.735 96.3542 265.415 97.7867C265.08 99.2192 264.359 100.464 263.383 101.308C262.421 102.124 261.338 102.432 260.323 102.205C259.307 101.964 258.465 101.201 257.957 100.049C257.436 98.8711 257.342 97.4252 257.663 95.9927C257.997 94.5602 258.719 93.3151 259.695 92.4716C260.443 91.829 261.272 91.4943 262.087 91.4943Z" fill="black"/>
<path d="M269.131 99.0719C269.197 99.0719 269.264 99.0452 269.318 99.005C269.438 98.8979 269.465 98.7105 269.358 98.59C268.756 97.8536 267.179 96.7424 265.509 97.7197C265.375 97.8001 265.322 97.9875 265.402 98.1214C265.482 98.2553 265.669 98.3088 265.803 98.2285C267.447 97.2646 268.837 98.8979 268.89 98.9648C268.97 99.0318 269.05 99.0719 269.131 99.0719Z" fill="black"/>
<path d="M278.659 101.281H278.672L290.981 100.518C291.141 100.504 291.262 100.371 291.262 100.21C291.248 100.049 291.115 99.9287 290.954 99.9287L278.646 100.692C278.485 100.705 278.365 100.839 278.365 101C278.378 101.16 278.499 101.281 278.659 101.281Z" fill="black"/>
<path d="M148.542 243.341H227.94C231.335 243.341 233.821 240.155 233.005 236.861L217.997 176.227C217.422 173.897 215.324 172.251 212.932 172.251H133.534C130.139 172.251 127.654 175.437 128.469 178.731L143.477 239.365C144.052 241.708 146.15 243.341 148.542 243.341Z" fill="black"/>
<path d="M148.543 243.488H227.941C229.598 243.488 231.148 242.738 232.164 241.426C233.193 240.114 233.54 238.441 233.139 236.821L218.131 176.187C217.53 173.777 215.391 172.104 212.919 172.104H133.521C131.864 172.104 130.314 172.853 129.298 174.165C128.269 175.477 127.921 177.151 128.309 178.771L143.317 239.405C143.932 241.815 146.07 243.488 148.543 243.488ZM212.932 172.398C215.271 172.398 217.289 173.978 217.85 176.254L232.859 236.888C233.233 238.414 232.899 240.007 231.937 241.239C230.974 242.471 229.518 243.194 227.941 243.194H148.543C146.204 243.194 144.186 241.614 143.625 239.338L128.616 178.704C128.242 177.178 128.576 175.584 129.538 174.353C130.501 173.108 131.957 172.398 133.534 172.398H212.932Z" fill="black"/>
<path d="M172.879 195.64C172.879 197.086 174.055 198.264 175.499 198.264C176.942 198.264 178.118 197.086 178.118 195.64C178.118 194.194 176.942 193.016 175.499 193.016C174.042 193.016 172.879 194.194 172.879 195.64Z" fill="#5479F7"/>
<path d="M1.30724 36.8179H123.03V97.6127H1.30724V36.8179Z" fill="white"/>
<path d="M1.29383 97.9207H123.03C123.191 97.9207 123.324 97.7868 123.324 97.6262V36.818C123.324 36.6573 123.191 36.5234 123.03 36.5234H1.30718C1.1468 36.5234 1.01317 36.6573 1.01317 36.818V97.6128C0.999802 97.7868 1.13346 97.9207 1.29383 97.9207ZM122.736 97.3316H1.60119V37.1125H122.736V97.3316Z" fill="black"/>
<path d="M98.0793 65.0266H107.809V82.846H98.0793V65.0266Z" fill="#E2EAFF"/>
<path d="M81.7746 59.6177H91.5039V82.8458H81.7746V59.6177Z" fill="#E2EAFF"/>
<path d="M65.4572 51.5984H75.1865V82.8459H65.4572V51.5984Z" fill="#E2EAFF"/>
<path d="M49.1389 65.0266H58.8682V82.846H49.1389V65.0266Z" fill="#E2EAFF"/>
<path d="M32.8205 58.4397H42.5498V82.846H32.8205V58.4397Z" fill="#E2EAFF"/>
<path d="M16.5168 63.7278H26.2461V82.8592H16.5168V63.7278Z" fill="#E2EAFF"/>
<path d="M98.0792 88.7768H107.809C107.969 88.7768 108.103 88.6429 108.103 88.4822V45.962C108.103 45.8014 107.969 45.6675 107.809 45.6675H98.0792C97.9189 45.6675 97.7852 45.8014 97.7852 45.962V88.4956C97.7852 88.6563 97.9189 88.7768 98.0792 88.7768ZM107.515 88.1877H98.3732V46.2566H107.515V88.1877Z" fill="black"/>
<path d="M81.7609 88.7768H91.4902C91.6505 88.7768 91.7842 88.6429 91.7842 88.4822V45.962C91.7842 45.8014 91.6505 45.6675 91.4902 45.6675H81.7609C81.6005 45.6675 81.4669 45.8014 81.4669 45.962V88.4956C81.4669 88.6563 81.6005 88.7768 81.7609 88.7768ZM91.2095 88.1877H82.0683V46.2566H91.2095V88.1877Z" fill="black"/>
<path d="M65.4572 88.7768H75.1865C75.3468 88.7768 75.4805 88.6429 75.4805 88.4822V45.962C75.4805 45.8014 75.3468 45.6675 75.1865 45.6675H65.4572C65.2968 45.6675 65.1632 45.8014 65.1632 45.962V88.4956C65.1632 88.6563 65.2968 88.7768 65.4572 88.7768ZM74.8924 88.1877H65.7512V46.2566H74.8924V88.1877Z" fill="black"/>
<path d="M49.1388 88.7768H58.8681C59.0284 88.7768 59.1621 88.6429 59.1621 88.4822V45.962C59.1621 45.8014 59.0284 45.6675 58.8681 45.6675H49.1388C48.9784 45.6675 48.8448 45.8014 48.8448 45.962V88.4956C48.8448 88.6563 48.9784 88.7768 49.1388 88.7768ZM58.5741 88.1877H49.4328V46.2566H58.5741V88.1877Z" fill="black"/>
<path d="M32.8204 88.7768H42.5497C42.7101 88.7768 42.8438 88.6429 42.8438 88.4822V45.962C42.8438 45.8014 42.7101 45.6675 42.5497 45.6675H32.8204C32.6601 45.6675 32.5264 45.8014 32.5264 45.962V88.4956C32.5264 88.6563 32.6601 88.7768 32.8204 88.7768ZM42.2557 88.1877H33.1145V46.2566H42.2557V88.1877Z" fill="black"/>
<path d="M16.5031 88.7768H26.2324C26.3927 88.7768 26.5264 88.6429 26.5264 88.4822V45.962C26.5264 45.8014 26.3927 45.6675 26.2324 45.6675H16.5031C16.3427 45.6675 16.2091 45.8014 16.2091 45.962V88.4956C16.2091 88.6563 16.3427 88.7768 16.5031 88.7768ZM25.9517 88.1877H16.8104V46.2566H25.9517V88.1877Z" fill="black"/>
<path d="M134.471 36.8179H206.625V155.449H134.471V36.8179Z" fill="white"/>
<path d="M134.457 155.743H206.611C206.772 155.743 206.905 155.609 206.905 155.449V36.818C206.905 36.6573 206.772 36.5234 206.611 36.5234H134.457C134.296 36.5234 134.163 36.6573 134.163 36.818V155.449C134.163 155.623 134.296 155.743 134.457 155.743ZM206.331 155.154H134.764V37.1125H206.331V155.154Z" fill="black"/>
<path d="M149.051 146.586C149.211 146.586 149.345 146.452 149.345 146.291V45.9886C149.345 45.828 149.211 45.6941 149.051 45.6941C148.89 45.6941 148.757 45.828 148.757 45.9886V146.291C148.757 146.452 148.89 146.586 149.051 146.586Z" fill="black"/>
<path d="M146.823 121.538C145.544 120.257 145.544 118.18 146.823 116.899C148.101 115.618 150.175 115.618 151.453 116.899C152.732 118.18 152.732 120.257 151.453 121.538C150.175 122.819 148.101 122.819 146.823 121.538Z" fill="white"/>
<path d="M149.131 122.809C151.095 122.809 152.699 121.202 152.699 119.234C152.699 117.266 151.095 115.66 149.131 115.66C147.166 115.66 145.563 117.266 145.563 119.234C145.563 121.202 147.166 122.809 149.131 122.809ZM149.131 116.235C150.775 116.235 152.111 117.574 152.111 119.221C152.111 120.868 150.775 122.206 149.131 122.206C147.487 122.206 146.151 120.868 146.151 119.221C146.151 117.574 147.487 116.235 149.131 116.235Z" fill="black"/>
<path d="M163.204 146.586C163.364 146.586 163.498 146.452 163.498 146.291V45.9886C163.498 45.828 163.364 45.6941 163.204 45.6941C163.044 45.6941 162.91 45.828 162.91 45.9886V146.291C162.91 146.452 163.044 146.586 163.204 146.586Z" fill="black"/>
<path d="M162.576 72.9104C160.8 72.5678 159.637 70.848 159.979 69.0691C160.321 67.2902 162.038 66.1258 163.814 66.4684C165.59 66.8109 166.752 68.5307 166.41 70.3096C166.068 72.0886 164.351 73.2529 162.576 72.9104Z" fill="white"/>
<path d="M163.204 73.2598C165.169 73.2598 166.772 71.6532 166.772 69.6852C166.772 67.7172 165.169 66.1106 163.204 66.1106C161.24 66.1106 159.636 67.7172 159.636 69.6852C159.636 71.6532 161.24 73.2598 163.204 73.2598ZM163.204 66.6863C164.848 66.6863 166.184 68.0251 166.184 69.6718C166.184 71.3185 164.848 72.6573 163.204 72.6573C161.56 72.6573 160.224 71.3185 160.224 69.6718C160.224 68.0251 161.56 66.6863 163.204 66.6863Z" fill="black"/>
<path d="M177.356 146.586C177.517 146.586 177.65 146.452 177.65 146.291V45.9886C177.65 45.828 177.517 45.6941 177.356 45.6941C177.196 45.6941 177.062 45.828 177.062 45.9886V146.291C177.062 146.452 177.196 146.586 177.356 146.586Z" fill="black"/>
<path d="M174.201 96.4583C173.98 94.6604 175.256 93.0234 177.051 92.802C178.845 92.5807 180.479 93.8587 180.7 95.6567C180.921 97.4546 179.646 99.0916 177.851 99.3129C176.056 99.5343 174.422 98.2562 174.201 96.4583Z" fill="white"/>
<path d="M177.45 99.6343C179.415 99.6343 181.019 98.0277 181.019 96.0597C181.019 94.0917 179.415 92.4851 177.45 92.4851C175.486 92.4851 173.882 94.0917 173.882 96.0597C173.869 98.0277 175.472 99.6343 177.45 99.6343ZM177.45 93.0608C179.094 93.0608 180.431 94.3996 180.431 96.0463C180.431 97.693 179.094 99.0318 177.45 99.0318C175.806 99.0318 174.47 97.693 174.47 96.0463C174.457 94.3996 175.806 93.0608 177.45 93.0608Z" fill="black"/>
<path d="M191.522 146.586C191.683 146.586 191.816 146.452 191.816 146.291V45.9886C191.816 45.828 191.683 45.6941 191.522 45.6941C191.362 45.6941 191.228 45.828 191.228 45.9886V146.291C191.215 146.452 191.349 146.586 191.522 146.586Z" fill="black"/>
<path d="M189.292 65.5137C188.013 64.2327 188.013 62.1559 189.292 60.875C190.57 59.5941 192.643 59.5941 193.922 60.875C195.201 62.1559 195.201 64.2327 193.922 65.5137C192.643 66.7946 190.57 66.7946 189.292 65.5137Z" fill="white"/>
<path d="M191.603 66.78C193.567 66.78 195.171 65.1735 195.171 63.2055C195.171 61.2374 193.567 59.6309 191.603 59.6309C189.638 59.6309 188.034 61.2374 188.034 63.2055C188.034 65.1735 189.625 66.78 191.603 66.78ZM191.603 60.2065C193.246 60.2065 194.583 61.5453 194.583 63.1921C194.583 64.8388 193.246 66.1776 191.603 66.1776C189.959 66.1776 188.622 64.8388 188.622 63.1921C188.622 61.5453 189.959 60.2065 191.603 60.2065Z" fill="black"/>
<path d="M86.091 148.581V111.094C106.632 111.094 123.284 127.883 123.284 148.581C123.284 169.279 106.632 186.067 86.091 186.067C65.55 186.067 48.8979 169.279 48.8979 148.581C48.8979 142.329 50.4214 136.425 53.1077 131.243L86.091 148.581Z" fill="white"/>
<path d="M53.1213 131.23L86.1047 111.081C106.646 111.081 123.298 127.87 123.298 148.567C123.298 169.265 106.646 186.054 86.1047 186.054C65.5636 186.054 48.9115 169.265 48.9115 148.567C48.9115 142.315 50.4351 136.424 53.1213 131.23Z" fill="#E2EAFF"/>
<path d="M53.1211 131.23C59.3356 119.261 71.7645 111.081 86.1045 111.081V148.567L53.1211 131.23Z" fill="#5479F7"/>
<path d="M73.4575 161.234C66.4796 154.244 66.4796 142.91 73.4575 135.92C80.4354 128.93 91.7488 128.93 98.7267 135.92C105.705 142.91 105.705 154.244 98.7267 161.234C91.7488 168.224 80.4354 168.224 73.4575 161.234Z" fill="white"/>
<path d="M221.873 155.743H236.267C236.427 155.743 236.561 155.609 236.561 155.449C236.561 155.288 236.427 155.154 236.267 155.154H222.167V37.1125H308.996C309.156 37.1125 309.29 36.9786 309.29 36.818C309.29 36.6573 309.156 36.5234 308.996 36.5234H221.887C221.726 36.5234 221.593 36.6573 221.593 36.818V155.449C221.579 155.623 221.713 155.743 221.873 155.743Z" fill="black"/>
</svg>
