<svg width="520" height="248" viewBox="0 0 520 248" fill="none" xmlns="http://www.w3.org/2000/svg">
<path d="M327.806 133.954L327.738 134.163L327.847 134.354L328.282 134.107L327.847 134.354L327.847 134.354L327.848 134.356L327.852 134.363L327.868 134.392C327.883 134.417 327.904 134.455 327.932 134.506C327.988 134.606 328.069 134.755 328.172 134.945C328.378 135.325 328.668 135.871 329.006 136.535C329.681 137.863 330.54 139.655 331.285 141.519C332.033 143.39 332.652 145.304 332.865 146.883C332.971 147.673 332.971 148.349 332.852 148.881C332.735 149.406 332.512 149.76 332.191 149.973L332.189 149.974C331.475 150.452 330.606 150.438 329.549 149.893C328.481 149.341 327.298 148.276 326.084 146.803C323.662 143.866 321.227 139.443 319.43 134.766C317.649 130.131 316.021 120.152 315.427 109.75C315.131 104.559 315.094 99.2814 315.421 94.5364C315.749 89.7834 316.439 85.597 317.582 82.5696C318.133 81.1121 319.329 79.4161 321.07 77.543C322.805 75.677 325.051 73.6659 327.662 71.5764C332.883 67.3977 339.53 62.9318 346.379 58.7169C360.084 50.2821 374.531 42.8915 379.881 40.8421C382.511 39.8344 386.977 38.9948 392.593 38.4533C398.196 37.9131 404.907 37.6729 412.005 37.8469C426.213 38.195 441.918 40.201 453.394 44.7431C464.808 49.2708 476.382 61.2015 485.603 73.1713C494.813 85.1274 501.597 97.0171 503.455 101.343C504.393 103.527 505.715 106.727 506.341 110.298C506.966 113.867 506.888 117.768 505.064 121.376C501.429 128.57 490.667 134.918 463.48 134.766H463.478H420.498C420.474 134.711 420.448 134.65 420.418 134.581C420.28 134.263 420.076 133.795 419.811 133.195C419.282 131.995 418.511 130.269 417.544 128.16C415.611 123.942 412.895 118.192 409.762 112.066C406.63 105.942 403.078 99.4356 399.473 93.7069C395.874 87.9873 392.201 83.0073 388.821 79.9632L388.573 79.7405L388.272 79.8826L388.486 80.3347C388.272 79.8826 388.272 79.8827 388.272 79.8828L388.271 79.8833L388.267 79.8854L388.249 79.8936L388.181 79.9258L387.915 80.0522C387.681 80.1631 387.338 80.3265 386.899 80.5365C386.02 80.9565 384.758 81.5629 383.221 82.3091C380.149 83.8012 375.98 85.8523 371.596 88.0878C367.213 90.3228 362.61 92.744 358.671 94.976C354.745 97.201 351.44 99.2587 349.68 100.766L349.52 100.902L349.506 101.112L350.005 101.145C349.506 101.112 349.506 101.113 349.506 101.113L349.506 101.114L349.506 101.115L349.505 101.119L349.505 101.13C349.505 101.136 349.504 101.143 349.504 101.151C349.504 101.156 349.503 101.162 349.503 101.169C349.502 101.201 349.501 101.248 349.501 101.308C349.5 101.428 349.504 101.603 349.517 101.835C349.544 102.299 349.613 102.99 349.778 103.92C350.107 105.778 350.82 108.59 352.351 112.444L352.351 112.445C352.689 113.291 353.066 114.19 353.455 115.115C353.508 115.242 353.561 115.369 353.615 115.497C354.06 116.558 354.516 117.651 354.944 118.746C355.801 120.942 356.538 123.119 356.86 125.035C357.184 126.968 357.066 128.524 356.351 129.571C355.659 130.584 354.302 131.265 351.775 131.198C350.942 131.176 350.097 130.708 349.204 129.897C348.317 129.091 347.451 128.01 346.57 126.882C346.488 126.777 346.406 126.671 346.324 126.565C345.534 125.551 344.731 124.519 343.917 123.697C343.028 122.799 342.046 122.064 340.96 121.932L340.959 121.932C337.846 121.559 334.893 123.546 332.602 126.037C330.293 128.547 328.532 131.7 327.806 133.954Z" fill="#5479F7" stroke="black"/>
<path d="M331.077 151.167C330.726 151.167 330.359 151.106 329.992 150.984C325.914 149.688 321.254 141.821 318.657 135.068C318.596 134.9 318.673 134.702 318.856 134.641C319.024 134.58 319.223 134.656 319.284 134.839C322.339 142.797 326.937 149.322 330.191 150.359C331.001 150.618 331.688 150.542 332.299 150.13C335.095 148.27 330.145 138.056 328.007 134.29C327.961 134.214 327.945 134.107 327.976 134.016C329.473 129.366 335.095 121.392 340.946 122.124C342.809 122.352 344.459 124.456 346.185 126.698C347.957 128.984 349.806 131.348 351.761 131.393C351.945 131.393 352.097 131.546 352.082 131.744C352.082 131.927 351.914 132.079 351.731 132.064C349.455 132.003 347.514 129.518 345.635 127.109C344.062 125.081 342.427 122.993 340.839 122.795C335.492 122.139 330.115 129.716 328.648 134.092C329.748 136.043 336.378 148.209 332.651 150.695C332.177 150.999 331.642 151.167 331.077 151.167Z" fill="black"/>
<path d="M499.515 128.481C499.408 128.481 499.301 128.436 499.24 128.329C499.133 128.176 499.179 127.963 499.332 127.856C511.507 119.623 505.763 106.299 503.609 101.267C502.876 99.5751 501.47 96.8918 499.744 93.9036C499.652 93.7359 499.713 93.5377 499.866 93.4462C500.034 93.3547 500.233 93.4157 500.325 93.5682C502.066 96.5716 503.487 99.2854 504.22 100.993C506.435 106.146 512.347 119.867 499.698 128.405C499.637 128.466 499.576 128.481 499.515 128.481Z" fill="black"/>
<path d="M463.157 101.831C463.034 101.831 462.928 101.77 462.866 101.664C458.879 94.7726 454.388 88.0797 449.5 81.7526C449.393 81.6001 449.408 81.4019 449.561 81.28C449.713 81.1733 449.912 81.1885 450.034 81.341C454.938 87.6833 459.445 94.4067 463.447 101.313C463.539 101.481 463.477 101.679 463.325 101.77C463.264 101.816 463.218 101.831 463.157 101.831Z" fill="black"/>
<path d="M438.623 103.432C438.44 103.432 438.287 103.295 438.287 103.112C438.287 102.929 438.425 102.777 438.608 102.761L467.465 102.045C467.648 102.03 467.801 102.182 467.816 102.365C467.816 102.548 467.679 102.7 467.496 102.716L438.623 103.432Z" fill="black"/>
<path d="M349.394 100.2C349.256 100.2 349.119 100.109 349.073 99.9562L345.559 88.4608C345.498 88.2778 345.605 88.0949 345.788 88.0491C345.972 87.9882 346.155 88.0949 346.201 88.2778L349.714 99.7733C349.776 99.9562 349.669 100.139 349.485 100.185C349.455 100.185 349.424 100.2 349.394 100.2Z" fill="black"/>
<path d="M315.128 105.414C315.021 105.414 314.93 105.369 314.853 105.277C314.746 105.125 314.777 104.926 314.914 104.804C324.477 97.5474 338.532 96.4802 349.088 102.197C349.256 102.289 349.317 102.487 349.225 102.655C349.134 102.822 348.935 102.883 348.767 102.792C338.44 97.1967 324.691 98.2487 315.327 105.353C315.266 105.399 315.205 105.414 315.128 105.414Z" fill="black"/>
<path d="M353.319 128.664C353.182 128.664 353.06 128.679 352.937 128.695C352.617 127.429 352.112 126.225 351.456 125.127C351.563 125.051 351.654 124.959 351.746 124.868C352.983 123.633 352.983 121.621 351.746 120.386C350.508 119.151 348.492 119.151 347.255 120.386C347.163 120.477 347.071 120.569 346.995 120.675C345.895 120.02 344.703 119.517 343.42 119.197C343.436 119.075 343.451 118.937 343.451 118.815C343.451 117.062 342.03 115.644 340.273 115.644C338.517 115.644 337.096 117.062 337.096 118.815C337.096 118.953 337.111 119.075 337.126 119.197C335.858 119.517 334.652 120.02 333.552 120.675C333.475 120.569 333.384 120.477 333.292 120.386C332.055 119.151 330.038 119.151 328.801 120.386C327.563 121.621 327.563 123.633 328.801 124.868C328.892 124.959 328.984 125.036 329.091 125.127C328.434 126.225 327.93 127.414 327.609 128.695C327.487 128.679 327.35 128.664 327.227 128.664C325.471 128.664 324.05 130.082 324.05 131.835C324.05 133.589 325.471 135.007 327.227 135.007C327.365 135.007 327.487 134.991 327.609 134.976C327.93 136.241 328.434 137.446 329.091 138.544C328.984 138.62 328.892 138.711 328.801 138.803C327.563 140.038 327.563 142.05 328.801 143.285C330.038 144.52 332.055 144.52 333.292 143.285C333.384 143.194 333.475 143.102 333.552 142.995C334.652 143.651 335.843 144.154 337.126 144.474C337.111 144.596 337.096 144.733 337.096 144.855C337.096 146.609 338.517 148.027 340.273 148.027C342.03 148.027 343.451 146.609 343.451 144.855C343.451 144.718 343.436 144.596 343.42 144.474C344.688 144.154 345.895 143.651 346.995 142.995C347.071 143.102 347.163 143.194 347.255 143.285C348.492 144.52 350.508 144.52 351.746 143.285C352.983 142.05 352.983 140.038 351.746 138.803C351.654 138.711 351.563 138.62 351.456 138.544C352.112 137.446 352.617 136.257 352.937 134.976C353.06 134.991 353.197 135.007 353.319 135.007C355.076 135.007 356.497 133.589 356.497 131.835C356.497 130.082 355.076 128.664 353.319 128.664ZM340.289 137.72C337.035 137.72 334.392 135.083 334.392 131.835C334.392 128.588 337.035 125.95 340.289 125.95C343.542 125.95 346.185 128.588 346.185 131.835C346.185 135.083 343.542 137.72 340.289 137.72Z" fill="#5479F7"/>
<path d="M437.737 17.1252C438.761 16.1037 439.265 14.5792 439.143 13.0851C438.929 10.6457 437.432 8.48079 435.751 6.80374C432.528 3.58686 427.976 1.97079 423.591 1.11702C418.535 0.141284 413.096 0.202267 408.269 2.15374C404.221 3.78505 400.585 6.72751 398.614 10.661C396.674 14.5487 396.476 19.4883 398.614 23.3455C398.553 23.4675 398.523 23.62 398.584 23.7877C399.989 28.3614 403.075 32.1882 406.971 34.9172C411.355 37.9969 416.671 39.491 421.972 39.9788C427.181 40.4667 440.013 44.5526 444.703 41.9913C448.736 39.7959 450.814 35.3288 450.814 30.5873C450.798 22.3088 441.938 18.0857 437.737 17.1252Z" fill="black"/>
<path d="M409.934 50.2241C409.934 50.2241 404.206 57.8928 412.241 61.8719C420.261 65.8511 433.796 52.5567 431.184 43.0585C429.626 37.4175 421.743 36.3198 421.743 36.3198L415.587 33.606L405.046 46.2144L409.934 50.2241Z" fill="white"/>
<path d="M413.968 53.2428C413.907 53.2428 413.845 53.2275 413.784 53.1818L410.729 51.1388C410.576 51.0321 410.53 50.8339 410.637 50.6662C410.744 50.5137 410.943 50.468 411.111 50.5747L414.166 52.6177C414.319 52.7244 414.365 52.9226 414.258 53.0903C414.182 53.197 414.075 53.2428 413.968 53.2428Z" fill="black"/>
<path d="M417.939 33.8805C417.939 33.8805 414.547 31.3344 414.807 24.8396C414.807 24.8396 409.445 18.5278 400.126 17.6893C400.126 17.6893 392.442 34.3683 393.466 42.159C394.489 49.9496 405.779 56.6731 417.939 42.6316C417.939 42.6316 426.264 43.4701 428.189 36.7924C430.114 30.1147 422.751 27.6144 417.939 33.8805Z" fill="white"/>
<path d="M403.717 51.1388C402.434 51.1388 401.349 50.9254 400.494 50.6815C396.598 49.5228 393.65 46.1077 393.13 42.2047C392.107 34.4141 399.501 18.2382 399.821 17.5521C399.882 17.4301 400.02 17.3387 400.157 17.3539C409.507 18.1924 415.021 24.55 415.067 24.6262C415.128 24.6872 415.144 24.7787 415.144 24.8549C414.93 30.069 417.145 32.6608 417.893 33.3926C420.75 29.8708 424.279 29.3677 426.402 30.4349C428.541 31.5021 429.351 33.9719 428.51 36.8687C426.692 43.1805 419.329 43.028 418.092 42.967C412.348 49.538 407.276 51.1236 403.717 51.1388ZM400.326 18.0552C399.439 20.0372 392.855 34.9934 393.787 42.1133C394.276 45.757 397.041 48.9434 400.677 50.0259C403.763 50.9406 410.072 51.1846 417.679 42.4029C417.756 42.3267 417.863 42.281 417.97 42.281C418.306 42.3115 426.036 42.9975 427.854 36.6857C428.587 34.1244 427.915 31.9595 426.097 31.0447C424.157 30.069 420.872 30.6178 418.199 34.0939C418.092 34.2464 417.878 34.2616 417.725 34.1549C417.588 34.0482 414.242 31.4564 414.456 24.9616C413.753 24.1841 408.636 18.8785 400.326 18.0552Z" fill="black"/>
<path d="M418.963 39.247C418.886 39.247 418.81 39.2165 418.734 39.1555C418.596 39.0336 418.581 38.8201 418.703 38.6829C419.956 37.2651 421.758 36.3198 423.622 36.0911C423.805 36.0606 423.973 36.1978 424.004 36.3808C424.034 36.5637 423.897 36.7315 423.714 36.7619C422.003 36.9754 420.353 37.8444 419.207 39.1403C419.146 39.2013 419.054 39.247 418.963 39.247Z" fill="black"/>
<path d="M406.635 39.6587C405.979 39.6587 405.322 39.5062 404.711 39.186C403.641 38.6219 402.877 37.6462 402.557 36.4265C402.236 35.2068 402.404 33.9109 403 32.737C403.611 31.5783 404.588 30.6941 405.765 30.2519C406.956 29.8098 408.194 29.8708 409.278 30.4349C410.348 30.999 411.111 31.9747 411.432 33.1944C411.753 34.4141 411.585 35.71 410.989 36.8839C410.073 38.6372 408.346 39.6587 406.635 39.6587ZM407.338 30.6483C406.895 30.6483 406.437 30.7246 405.994 30.8923C404.97 31.2734 404.115 32.0357 403.595 33.0572C403.061 34.0787 402.923 35.2068 403.198 36.2588C403.473 37.2955 404.115 38.1341 405.016 38.5914C406.895 39.5672 409.293 38.6677 410.378 36.579C410.913 35.5575 411.05 34.4293 410.775 33.3773C410.5 32.3406 409.859 31.5021 408.957 31.0447C408.453 30.7855 407.903 30.6483 407.338 30.6483Z" fill="black"/>
<path d="M397.286 35.466C396.614 35.466 395.957 35.3136 395.361 34.9934C393.161 33.85 392.397 30.9532 393.65 28.5444C394.903 26.1355 397.729 25.0988 399.929 26.2423C400.998 26.8064 401.762 27.7821 402.083 29.0018C402.404 30.2214 402.235 31.5173 401.64 32.6913C401.029 33.85 400.051 34.7342 398.875 35.1764C398.355 35.3593 397.821 35.466 397.286 35.466ZM398.004 26.4557C396.537 26.4557 395.04 27.34 394.246 28.8646C393.161 30.9532 393.803 33.4383 395.667 34.4141C396.568 34.8867 397.622 34.9324 398.63 34.5665C399.654 34.1854 400.509 33.4231 401.029 32.4016C401.563 31.3801 401.701 30.2519 401.426 29.2C401.151 28.1632 400.509 27.3247 399.608 26.8673C399.104 26.5777 398.554 26.4557 398.004 26.4557Z" fill="black"/>
<path d="M410.684 37.0821C410.562 37.0821 410.439 37.0211 410.378 36.8991C410.302 36.7314 410.363 36.5332 410.531 36.4418L418.108 32.615C418.276 32.5388 418.475 32.5998 418.566 32.7675C418.643 32.9352 418.582 33.1334 418.414 33.2249L410.837 37.0516C410.791 37.0668 410.73 37.0821 410.684 37.0821Z" fill="black"/>
<path d="M403.014 33.8652C402.831 33.8652 402.678 33.7128 402.678 33.5298C402.678 33.2096 402.587 32.981 402.434 32.8742C402.144 32.676 401.609 32.798 401.441 32.859C401.273 32.92 401.074 32.8285 401.013 32.6608C400.952 32.4931 401.044 32.2949 401.212 32.2339C401.303 32.2034 402.189 31.8985 402.816 32.3254C403.167 32.5693 403.35 32.981 403.35 33.5298C403.35 33.7128 403.213 33.8652 403.014 33.8652Z" fill="black"/>
<path d="M110.036 149.137H239.733C245.095 149.137 249.433 144.807 249.433 139.456V115.017C249.433 109.665 245.095 105.335 239.733 105.335H110.036C104.674 105.335 100.336 109.665 100.336 115.017V139.456C100.336 144.807 104.674 149.137 110.036 149.137Z" fill="white"/>
<path d="M239.733 149.472H110.037C104.507 149.472 100 144.975 100 139.456V115.017C100 109.498 104.507 105 110.037 105H239.733C245.263 105 249.769 109.498 249.769 115.017V139.456C249.769 144.975 245.263 149.472 239.733 149.472ZM110.037 105.686C104.873 105.686 100.672 109.879 100.672 115.032V139.471C100.672 144.624 104.873 148.817 110.037 148.817H239.733C244.896 148.817 249.097 144.624 249.097 139.471V115.017C249.097 109.863 244.896 105.671 239.733 105.671H110.037V105.686Z" fill="black" stroke="black"/>
<path d="M226.671 133.998C230.408 133.998 233.438 130.974 233.438 127.244C233.438 123.514 230.408 120.49 226.671 120.49C222.933 120.49 219.903 123.514 219.903 127.244C219.903 130.974 222.933 133.998 226.671 133.998Z" fill="#E2EAFF"/>
<path d="M123.098 133.998H202.901C206.644 133.998 209.669 130.979 209.669 127.244C209.669 123.509 206.644 120.49 202.901 120.49H123.098C119.355 120.49 116.33 123.509 116.33 127.244C116.33 130.979 119.355 133.998 123.098 133.998Z" stroke="black"/>
<path d="M110.036 198.9H239.733C245.095 198.9 249.433 194.57 249.433 189.218V164.794C249.433 159.443 245.095 155.113 239.733 155.113H110.036C104.674 155.113 100.336 159.443 100.336 164.794V189.234C100.336 194.57 104.674 198.9 110.036 198.9Z" fill="white"/>
<path d="M239.733 199.235H110.037C104.507 199.235 100 194.737 100 189.218V164.794C100 159.275 104.507 154.778 110.037 154.778H239.733C245.263 154.778 249.769 159.275 249.769 164.794V189.234C249.769 194.753 245.263 199.235 239.733 199.235ZM110.037 155.449C104.873 155.449 100.672 159.641 100.672 164.794V189.234C100.672 194.387 104.873 198.579 110.037 198.579H239.733C244.896 198.579 249.097 194.387 249.097 189.234V164.794C249.097 159.641 244.896 155.449 239.733 155.449H110.037Z" fill="black" stroke="black"/>
<path d="M226.671 183.76C230.408 183.76 233.438 180.736 233.438 177.006C233.438 173.276 230.408 170.252 226.671 170.252C222.933 170.252 219.903 173.276 219.903 177.006C219.903 180.736 222.933 183.76 226.671 183.76Z" fill="white"/>
<path d="M226.671 184.096C222.76 184.096 219.567 180.909 219.567 177.006C219.567 173.103 222.76 169.917 226.671 169.917C230.582 169.917 233.774 173.103 233.774 177.006C233.774 180.909 230.582 184.096 226.671 184.096ZM226.671 170.588C223.127 170.588 220.24 173.469 220.24 177.006C220.24 180.543 223.127 183.425 226.671 183.425C230.215 183.425 233.102 180.543 233.102 177.006C233.102 173.469 230.215 170.588 226.671 170.588Z" fill="black"/>
<path d="M123.098 183.76H202.901C206.644 183.76 209.669 180.742 209.669 177.006C209.669 173.271 206.644 170.252 202.901 170.252H123.098C119.355 170.252 116.33 173.271 116.33 177.006C116.33 180.742 119.355 183.76 123.098 183.76Z" fill="white"/>
<path d="M202.886 184.096H123.098C119.187 184.096 115.994 180.909 115.994 177.006C115.994 173.103 119.187 169.917 123.098 169.917H202.901C206.812 169.917 210.005 173.103 210.005 177.006C209.99 180.909 206.812 184.096 202.886 184.096ZM123.098 170.588C119.554 170.588 116.666 173.469 116.666 177.006C116.666 180.543 119.554 183.425 123.098 183.425H202.901C206.445 183.425 209.333 180.543 209.333 177.006C209.333 173.469 206.445 170.588 202.901 170.588H123.098Z" fill="black"/>
<path d="M110.036 248.662H239.733C245.095 248.662 249.433 244.332 249.433 238.981V214.542C249.433 209.19 245.095 204.861 239.733 204.861H110.036C104.674 204.861 100.336 209.19 100.336 214.542V238.996C100.336 244.332 104.674 248.662 110.036 248.662Z" fill="white"/>
<path d="M239.733 248.998H110.037C104.507 248.998 100 244.5 100 238.981V214.542C100 209.023 104.507 204.525 110.037 204.525H239.733C245.263 204.525 249.769 209.023 249.769 214.542V238.996C249.769 244.515 245.263 248.998 239.733 248.998ZM110.037 205.211C104.873 205.211 100.672 209.404 100.672 214.557V238.996C100.672 244.149 104.873 248.342 110.037 248.342H239.733C244.896 248.342 249.097 244.149 249.097 238.996V214.557C249.097 209.404 244.896 205.211 239.733 205.211H110.037Z" fill="black" stroke="black"/>
<path d="M226.671 233.523C230.408 233.523 233.438 230.499 233.438 226.769C233.438 223.039 230.408 220.015 226.671 220.015C222.933 220.015 219.903 223.039 219.903 226.769C219.903 230.499 222.933 233.523 226.671 233.523Z" fill="white"/>
<path d="M226.671 233.858C222.76 233.858 219.567 230.672 219.567 226.769C219.567 222.866 222.76 219.68 226.671 219.68C230.582 219.68 233.774 222.866 233.774 226.769C233.774 230.687 230.582 233.858 226.671 233.858ZM226.671 220.35C223.127 220.35 220.24 223.232 220.24 226.769C220.24 230.306 223.127 233.188 226.671 233.188C230.215 233.188 233.102 230.306 233.102 226.769C233.102 223.232 230.215 220.35 226.671 220.35Z" fill="black"/>
<path d="M123.098 233.523H202.901C206.644 233.523 209.669 230.504 209.669 226.769C209.669 223.034 206.644 220.015 202.901 220.015H123.098C119.355 220.015 116.33 223.034 116.33 226.769C116.33 230.504 119.355 233.523 123.098 233.523Z" fill="white"/>
<path d="M202.886 233.858H123.098C119.187 233.858 115.994 230.672 115.994 226.769C115.994 222.866 119.187 219.68 123.098 219.68H202.901C206.812 219.68 210.005 222.866 210.005 226.769C209.99 230.687 206.812 233.858 202.886 233.858ZM123.098 220.35C119.554 220.35 116.666 223.232 116.666 226.769C116.666 230.306 119.554 233.188 123.098 233.188H202.901C206.445 233.188 209.333 230.306 209.333 226.769C209.333 223.232 206.445 220.35 202.901 220.35H123.098Z" fill="black"/>
<path d="M415.128 121.758H249.7C243.528 121.758 238.518 126.758 238.518 132.918V253.696C238.518 259.855 243.528 264.856 249.7 264.856H415.112C421.284 264.856 426.295 259.855 426.295 253.696V132.918C426.295 126.743 421.299 121.758 415.128 121.758Z" fill="white"/>
<path d="M415.128 265.176H249.7C243.345 265.176 238.182 260.023 238.182 253.681V132.918C238.182 126.576 243.345 121.422 249.7 121.422H415.112C421.467 121.422 426.631 126.576 426.631 132.918V253.696C426.631 260.023 421.467 265.176 415.128 265.176ZM249.7 122.093C243.727 122.093 238.854 126.941 238.854 132.918V253.696C238.854 259.657 243.712 264.52 249.7 264.52H415.112C421.085 264.52 425.959 259.672 425.959 253.696V132.918C425.959 126.957 421.101 122.093 415.112 122.093H249.7Z" fill="black"/>
<path d="M249.699 259.169C246.674 259.169 244.215 256.715 244.215 253.696V132.918C244.215 129.899 246.674 127.445 249.699 127.445H415.111C418.136 127.445 420.596 129.899 420.596 132.918V253.696C420.596 256.715 418.136 259.169 415.111 259.169H249.699Z" fill="white"/>
<path d="M415.127 259.505H249.699C246.491 259.505 243.879 256.897 243.879 253.696V132.918C243.879 129.716 246.491 127.109 249.699 127.109H415.112C418.32 127.109 420.932 129.716 420.932 132.918V253.696C420.947 256.897 418.335 259.505 415.127 259.505ZM249.699 127.765C246.858 127.765 244.551 130.067 244.551 132.903V253.696C244.551 256.532 246.858 258.849 249.699 258.849H415.112C417.953 258.849 420.26 256.547 420.26 253.696V132.918C420.26 130.082 417.953 127.78 415.112 127.78H249.699V127.765Z" fill="black"/>
<path d="M396.873 117.718H341.053V218.966H396.873V117.718Z" fill="white"/>
<path d="M304.191 104.347L281.994 126.499V181.888H380.786V104.347H304.191Z" fill="white"/>
<path d="M381.122 182.223H281.643V126.362L304.038 104.012H381.107V182.223H381.122ZM282.33 181.552H380.465V104.682H304.328L282.33 126.652V181.552Z" fill="black"/>
<path d="M304.527 126.835H281.994V126.164H303.855V104.347H304.527V126.835Z" fill="black"/>
<path d="M377.533 161.26V156.564C377.533 154.171 375.593 152.234 373.194 152.234H347.454C345.055 152.234 343.115 154.171 343.115 156.564V161.26H273.149V234.364C273.149 238.862 276.8 242.521 281.322 242.521H389.677V161.26H377.533Z" fill="#FF722C"/>
<path d="M397.209 219.286H392.137V218.615H396.537V118.053H382.834V117.382H397.209V219.286Z" fill="black"/>
<path d="M436.24 103.524C436.24 103.524 451.455 118.632 449.607 135.555C449.607 135.555 411.874 138.498 407.627 131.713C407.627 131.713 398.736 134.534 400.615 128.146C400.615 128.146 391.648 128.436 394.703 123.252C394.703 123.252 386.576 125.92 388.654 119.639C388.654 119.639 377.609 130.966 375.364 130.067C373.118 129.167 373.989 124.06 378.006 119.456C382.024 114.851 392.519 105.856 398.461 105.018C404.389 104.164 436.24 103.524 436.24 103.524Z" fill="white"/>
<path d="M432.344 136.531C421.911 136.531 410.163 135.693 407.49 132.11C406.451 132.399 402.464 133.39 400.784 131.744C400.05 131.027 399.852 129.93 400.188 128.497C398.889 128.481 395.177 128.268 394.062 126.393C393.634 125.661 393.634 124.792 394.062 123.786C392.718 124.121 389.968 124.594 388.669 123.298C388.089 122.718 387.875 121.849 388.043 120.736C385.064 123.725 377.319 131.195 375.241 130.372C374.585 130.113 374.126 129.533 373.928 128.71C373.362 126.347 374.936 122.459 377.747 119.227C381.902 114.455 392.366 105.521 398.416 104.682C399.806 104.484 402.708 104.286 407.047 104.088C407.23 104.073 407.383 104.225 407.398 104.408C407.413 104.591 407.261 104.743 407.077 104.759C402.754 104.957 399.882 105.155 398.507 105.338C392.702 106.146 382.238 115.095 378.251 119.669C375.119 123.252 374.157 126.789 374.585 128.558C374.737 129.167 375.043 129.564 375.486 129.747C376.968 130.341 384.209 123.709 388.41 119.395C388.517 119.288 388.685 119.258 388.822 119.349C388.96 119.425 389.021 119.593 388.96 119.745C388.471 121.194 388.532 122.23 389.128 122.825C390.304 123.999 393.466 123.313 394.581 122.932C394.719 122.886 394.856 122.932 394.948 123.038C395.04 123.145 395.04 123.298 394.979 123.42C394.337 124.502 394.215 125.371 394.612 126.042C395.544 127.628 399.241 127.856 400.585 127.81C400.707 127.81 400.799 127.856 400.86 127.948C400.921 128.039 400.952 128.146 400.921 128.253C400.509 129.655 400.615 130.661 401.227 131.271C402.846 132.857 407.459 131.424 407.505 131.409C407.658 131.363 407.811 131.424 407.887 131.546C411.981 138.071 449.179 135.25 449.561 135.22C449.744 135.205 449.912 135.342 449.928 135.525C449.943 135.708 449.805 135.876 449.622 135.891C448.919 135.937 441.098 136.531 432.344 136.531Z" fill="black"/>
<path d="M349.394 100.2C349.256 100.2 349.119 100.109 349.073 99.9562L345.559 88.4608C345.498 88.2778 345.605 88.0949 345.788 88.0491C345.972 87.9882 346.155 88.0949 346.201 88.2778L349.714 99.7733C349.776 99.9562 349.669 100.139 349.485 100.185C349.455 100.185 349.424 100.2 349.394 100.2Z" fill="black"/>
<path d="M350.02 102.06C349.974 101.45 349.99 101.161 349.99 101.161C352.296 99.1939 357.368 96.2057 363.097 93.1108C361.218 89.8786 359.125 86.7685 356.726 83.9022C355.26 82.149 353.686 80.4719 352.021 78.9016C350.295 77.2703 348.447 75.8067 346.583 74.3278C342.703 71.2329 338.655 68.3057 334.194 66.095C325.563 72.1477 318.734 78.0783 317.115 82.4081C315.175 87.5308 314.548 95.8093 314.717 104.423C325.227 97.9895 338.792 97.0595 350.02 102.06Z" fill="#5479F7"/>
<path d="M350.02 102.06C338.792 97.0595 325.242 97.9894 314.717 104.408C314.961 116.589 316.84 129.426 318.964 134.946C322.584 144.367 328.802 152.844 332.483 150.39C336.15 147.935 328.297 134.107 328.297 134.107C329.703 129.747 335.187 121.743 340.9 122.444C344.536 122.886 347.698 131.607 351.762 131.713C362.196 131.988 355.856 119.928 352.816 112.275C350.647 106.847 350.127 103.539 350.02 102.06Z" fill="white"/>
<path d="M331.077 151.167C330.726 151.167 330.359 151.106 329.993 150.984C325.914 149.688 321.255 141.821 318.658 135.067C316.458 129.366 314.625 116.193 314.396 104.408C314.396 104.225 314.533 104.073 314.732 104.073C314.93 104.073 315.068 104.21 315.068 104.408C315.312 116.117 317.13 129.198 319.284 134.839C322.339 142.797 326.937 149.322 330.191 150.359C331.001 150.618 331.688 150.542 332.299 150.13C335.095 148.27 330.145 138.056 328.007 134.29C327.961 134.214 327.946 134.107 327.976 134.016C329.473 129.366 335.095 121.392 340.946 122.124C342.81 122.352 344.459 124.456 346.186 126.697C347.958 128.984 349.806 131.347 351.761 131.393C354.099 131.454 355.642 130.905 356.467 129.701C358.483 126.758 355.779 120.294 353.61 115.095C353.213 114.15 352.831 113.251 352.495 112.397C350.326 106.954 349.806 103.6 349.684 102.091C349.669 101.908 349.806 101.74 349.989 101.725C350.173 101.709 350.341 101.847 350.356 102.03C350.478 103.508 350.982 106.786 353.121 112.153C353.457 113.007 353.839 113.891 354.221 114.836C356.574 120.462 359.247 126.835 357.017 130.067C356.069 131.454 354.297 132.11 351.746 132.049C349.47 131.988 347.53 129.503 345.651 127.094C344.077 125.066 342.443 122.977 340.854 122.779C335.507 122.124 330.13 129.701 328.664 134.076C329.764 136.028 336.393 148.194 332.666 150.679C332.177 150.999 331.643 151.167 331.077 151.167Z" fill="black"/>
<path d="M352.453 128.818L352.561 129.246L352.999 129.191C353.124 129.175 353.217 129.164 353.319 129.164C354.801 129.164 355.997 130.359 355.997 131.835C355.997 133.312 354.801 134.507 353.319 134.507C353.231 134.507 353.122 134.495 352.999 134.48L352.56 134.425L352.452 134.855C352.144 136.086 351.659 137.229 351.027 138.287L350.79 138.683L351.165 138.951C351.233 138.999 351.296 139.061 351.393 139.157C352.434 140.196 352.434 141.892 351.393 142.931C350.35 143.971 348.65 143.971 347.608 142.931C347.511 142.835 347.45 142.772 347.402 142.704L347.134 142.33L346.739 142.566C345.68 143.197 344.518 143.681 343.298 143.989L342.869 144.098L342.924 144.536C342.94 144.661 342.951 144.754 342.951 144.855C342.951 146.332 341.755 147.527 340.273 147.527C338.792 147.527 337.596 146.332 337.596 144.855C337.596 144.768 337.607 144.658 337.622 144.536L337.678 144.096L337.247 143.989C336.014 143.681 334.867 143.197 333.808 142.566L333.413 142.33L333.145 142.704C333.097 142.772 333.035 142.835 332.939 142.931C331.897 143.971 330.196 143.971 329.154 142.931C328.112 141.892 328.112 140.196 329.154 139.157C329.25 139.061 329.313 138.999 329.381 138.951L329.757 138.683L329.52 138.287C328.888 137.23 328.403 136.071 328.094 134.853L327.985 134.425L327.547 134.48C327.422 134.495 327.329 134.507 327.227 134.507C325.746 134.507 324.55 133.312 324.55 131.835C324.55 130.359 325.746 129.164 327.227 129.164C327.315 129.164 327.425 129.176 327.547 129.191L327.987 129.246L328.094 128.816C328.403 127.585 328.887 126.441 329.52 125.384L329.737 125.022L329.416 124.747C329.402 124.735 329.388 124.723 329.375 124.712C329.283 124.634 329.219 124.579 329.154 124.514C328.112 123.475 328.112 121.779 329.154 120.74C330.196 119.699 331.897 119.699 332.939 120.74C333.035 120.836 333.097 120.899 333.145 120.966L333.413 121.34L333.808 121.105C334.866 120.474 336.028 119.99 337.249 119.681L337.677 119.573L337.622 119.134C337.607 119.01 337.596 118.917 337.596 118.815C337.596 117.339 338.792 116.144 340.273 116.144C341.755 116.144 342.951 117.339 342.951 118.815C342.951 118.903 342.939 119.012 342.924 119.134L342.869 119.574L343.299 119.682C344.533 119.989 345.679 120.473 346.739 121.105L347.134 121.34L347.402 120.966C347.45 120.899 347.511 120.836 347.608 120.74L347.255 120.386L347.608 120.74C348.65 119.699 350.35 119.699 351.393 120.74C352.434 121.779 352.434 123.475 351.393 124.514C351.296 124.61 351.233 124.672 351.165 124.72L350.79 124.988L351.027 125.384C351.659 126.44 352.144 127.6 352.453 128.818ZM333.892 131.835C333.892 135.36 336.76 138.22 340.289 138.22C343.818 138.22 346.685 135.36 346.685 131.835C346.685 128.311 343.818 125.45 340.289 125.45C336.76 125.45 333.892 128.311 333.892 131.835Z" fill="white" stroke="black"/>
<path d="M472.414 161.26H448.797V242.521H472.414V161.26Z" fill="black"/>
<path d="M472.414 242.841H448.797C448.614 242.841 448.461 242.688 448.461 242.505V161.245C448.461 161.062 448.614 160.909 448.797 160.909H472.414C472.598 160.909 472.75 161.062 472.75 161.245V242.505C472.75 242.688 472.598 242.841 472.414 242.841ZM449.133 242.17H472.078V161.58H449.133V242.17Z" fill="black"/>
<path d="M460.606 181.872C464.352 181.872 467.389 178.842 467.389 175.103C467.389 171.365 464.352 168.334 460.606 168.334C456.86 168.334 453.823 171.365 453.823 175.103C453.823 178.842 456.86 181.872 460.606 181.872Z" fill="white"/>
<path d="M460.606 182.223C456.68 182.223 453.487 179.037 453.487 175.119C453.487 171.2 456.68 168.014 460.606 168.014C464.532 168.014 467.725 171.2 467.725 175.119C467.725 179.037 464.532 182.223 460.606 182.223ZM460.606 168.669C457.047 168.669 454.159 171.551 454.159 175.103C454.159 178.656 457.047 181.537 460.606 181.537C464.165 181.537 467.053 178.656 467.053 175.103C467.053 171.551 464.165 168.669 460.606 168.669Z" fill="black"/>
<path d="M464.532 214.468H456.68V233.266H464.532V214.468Z" fill="#E2EAFF"/>
<path d="M496.032 161.26H472.415V242.521H496.032V161.26Z" fill="black"/>
<path d="M496.047 242.841H472.43C472.247 242.841 472.094 242.688 472.094 242.505V161.245C472.094 161.062 472.247 160.909 472.43 160.909H496.047C496.23 160.909 496.383 161.062 496.383 161.245V242.505C496.383 242.688 496.23 242.841 496.047 242.841ZM472.751 242.17H495.696V161.58H472.751V242.17Z" fill="black"/>
<path d="M484.223 181.872C487.969 181.872 491.006 178.842 491.006 175.103C491.006 171.365 487.969 168.334 484.223 168.334C480.477 168.334 477.44 171.365 477.44 175.103C477.44 178.842 480.477 181.872 484.223 181.872Z" fill="white"/>
<path d="M484.223 182.223C480.297 182.223 477.104 179.037 477.104 175.119C477.104 171.2 480.297 168.014 484.223 168.014C488.149 168.014 491.342 171.2 491.342 175.119C491.342 179.037 488.165 182.223 484.223 182.223ZM484.223 168.669C480.664 168.669 477.777 171.551 477.777 175.103C477.777 178.656 480.664 181.537 484.223 181.537C487.783 181.537 490.67 178.656 490.67 175.103C490.67 171.551 487.783 168.669 484.223 168.669Z" fill="black"/>
<path d="M488.149 214.468H480.297V233.266H488.149V214.468Z" fill="#E2EAFF"/>
<path d="M519.664 161.26H496.047V242.521H519.664V161.26Z" fill="white"/>
<path d="M519.664 242.841H496.047C495.864 242.841 495.711 242.688 495.711 242.505V161.245C495.711 161.062 495.864 160.909 496.047 160.909H519.664C519.848 160.909 520 161.062 520 161.245V242.505C520 242.688 519.848 242.841 519.664 242.841ZM496.383 242.17H519.328V161.58H496.383V242.17Z" fill="black"/>
<path d="M507.856 181.872C511.602 181.872 514.639 178.842 514.639 175.103C514.639 171.365 511.602 168.334 507.856 168.334C504.11 168.334 501.073 171.365 501.073 175.103C501.073 178.842 504.11 181.872 507.856 181.872Z" fill="white"/>
<path d="M507.856 182.223C503.93 182.223 500.737 179.037 500.737 175.119C500.737 171.2 503.93 168.014 507.856 168.014C511.782 168.014 514.975 171.2 514.975 175.119C514.975 179.037 511.782 182.223 507.856 182.223ZM507.856 168.669C504.297 168.669 501.409 171.551 501.409 175.103C501.409 178.656 504.297 181.537 507.856 181.537C511.415 181.537 514.303 178.656 514.303 175.103C514.303 171.551 511.415 168.669 507.856 168.669Z" fill="black"/>
<path d="M511.782 214.468H503.93V233.266H511.782V214.468Z" fill="#E2EAFF"/>
<path d="M443.038 230.278H395.315C395.131 230.278 394.979 230.126 394.979 229.943C394.979 229.76 395.131 229.607 395.315 229.607H443.038C443.221 229.607 443.374 229.76 443.374 229.943C443.374 230.126 443.221 230.278 443.038 230.278Z" fill="black"/>
<path d="M52.0049 178.766C51.9438 178.461 51.8521 178.171 51.7605 177.881C54.5713 176.525 57.1225 174.771 59.3528 172.698C59.582 172.896 59.8264 173.079 60.0861 173.247C63.5844 175.518 68.259 174.543 70.5351 171.051C72.8113 167.56 71.8336 162.895 68.3353 160.623C68.0756 160.455 67.8007 160.303 67.541 160.181C68.5339 157.315 69.1297 154.281 69.2366 151.171C69.5422 151.14 69.8477 151.11 70.1532 151.049C74.232 150.195 76.8443 146.2 75.9888 142.115C75.1333 138.044 71.1309 135.437 67.0521 136.291C66.7466 136.352 66.4563 136.443 66.1661 136.535C64.8065 133.729 63.0497 131.183 60.9721 128.957C61.1707 128.729 61.354 128.485 61.5221 128.226C63.7983 124.734 62.8206 120.069 59.3223 117.797C55.824 115.526 51.1494 116.501 48.8733 119.993C48.7052 120.252 48.5525 120.526 48.4302 120.786C45.5583 119.779 42.5183 119.2 39.4019 119.093C39.3714 118.788 39.3408 118.483 39.2797 118.178C38.4242 114.108 34.4218 111.501 30.343 112.355C26.2642 113.208 23.652 117.203 24.5075 121.289C24.5686 121.594 24.6602 121.883 24.7519 122.173C21.941 123.53 19.3899 125.283 17.1595 127.357C16.9304 127.158 16.686 126.975 16.4263 126.808C12.928 124.536 8.25342 125.512 5.97724 129.003C3.70106 132.494 4.67875 137.16 8.17704 139.431C8.43674 139.599 8.71171 139.751 8.97141 139.873C7.97845 142.74 7.38267 145.774 7.27573 148.884C6.9702 148.914 6.66468 148.945 6.35915 149.006C2.28036 149.859 -0.331894 153.854 0.523582 157.94C1.37906 162.01 5.38146 164.618 9.46025 163.764C9.76578 163.703 10.056 163.611 10.3463 163.52C11.7059 166.325 13.4627 168.871 15.5402 171.097C15.3417 171.326 15.1583 171.57 14.9903 171.829C12.7141 175.32 13.6918 179.985 17.1901 182.257C20.6884 184.529 25.3629 183.553 27.6391 180.062C27.8072 179.802 27.9599 179.528 28.0821 179.269C30.9541 180.275 33.9941 180.854 37.1105 180.961C37.141 181.266 37.1716 181.571 37.2327 181.876C38.0882 185.947 42.0906 188.554 46.1693 187.7C50.2481 186.831 52.8604 182.836 52.0049 178.766ZM24.5075 152.893C22.9187 145.331 27.7613 137.907 35.3384 136.321C42.9155 134.736 50.3551 139.568 51.9438 147.146C53.5325 154.708 48.6899 162.132 41.1129 163.718C33.5358 165.304 26.1115 160.455 24.5075 152.893Z" fill="white"/>
<path d="M44.5955 188.188C43.0831 188.188 41.6013 187.746 40.3028 186.907C38.546 185.764 37.3239 183.995 36.8962 181.937C36.8504 181.739 36.8198 181.525 36.7893 181.281C33.8715 181.144 30.9995 180.61 28.2345 179.68C28.1276 179.894 28.0206 180.077 27.8984 180.245C26.7527 182.013 24.9806 183.218 22.9183 183.644C20.856 184.071 18.7479 183.675 16.9911 182.531C13.3553 180.153 12.3165 175.274 14.6996 171.631C14.8066 171.463 14.9441 171.28 15.0816 171.097C13.1109 168.947 11.4611 166.538 10.1626 163.916C9.93342 163.992 9.71955 164.038 9.52096 164.084C7.45865 164.511 5.35051 164.114 3.59373 162.971C1.82167 161.828 0.599561 160.059 0.171823 158.001C-0.729483 153.747 2.00499 149.57 6.26709 148.67C6.46568 148.625 6.67955 148.594 6.92397 148.564C7.06146 145.652 7.59613 142.77 8.52799 140.011C8.31412 139.904 8.13081 139.797 7.96277 139.675C4.32699 137.297 3.2882 132.418 5.67131 128.774C6.81704 127.006 8.5891 125.801 10.6514 125.375C12.7137 124.948 14.8219 125.344 16.5786 126.488C16.7467 126.594 16.93 126.731 17.1133 126.869C19.2673 124.902 21.6809 123.255 24.3085 121.959C24.2321 121.731 24.1863 121.517 24.1404 121.319C23.2391 117.066 25.9736 112.888 30.2357 111.989C32.298 111.562 34.4062 111.958 36.1629 113.102C37.9197 114.245 39.1418 116.014 39.5696 118.072C39.6154 118.27 39.6459 118.483 39.6765 118.727C42.5943 118.865 45.4662 119.398 48.2313 120.328C48.3382 120.115 48.4451 119.932 48.5673 119.764C49.7131 117.996 51.4851 116.791 53.5474 116.364C55.6097 115.937 57.7179 116.334 59.4747 117.477C63.1104 119.856 64.1492 124.734 61.7661 128.378C61.6592 128.546 61.5217 128.729 61.3842 128.912C63.3549 131.061 65.0047 133.47 66.3032 136.092C66.5323 136.016 66.7462 135.97 66.9448 135.925C69.0071 135.498 71.1152 135.894 72.872 137.038C74.6288 138.181 75.8509 139.95 76.2787 142.008C77.18 146.261 74.4455 150.439 70.1834 151.338C69.9848 151.384 69.7709 151.415 69.5265 151.445C69.389 154.357 68.8543 157.238 67.9225 159.998C68.1364 160.105 68.3197 160.227 68.4877 160.333C72.1235 162.712 73.1623 167.59 70.7792 171.234C69.6334 173.003 67.8614 174.207 65.7991 174.634C63.7368 175.061 61.6286 174.665 59.8718 173.521C59.7038 173.414 59.5205 173.277 59.3372 173.14C57.1832 175.107 54.7695 176.753 52.142 178.049C52.2184 178.278 52.2642 178.491 52.31 178.689C52.7378 180.748 52.3559 182.852 51.1949 184.605C50.0491 186.373 48.2771 187.578 46.2148 188.005C45.6954 188.127 45.1454 188.188 44.5955 188.188ZM28.0665 178.918C28.097 178.918 28.1428 178.918 28.1734 178.933C31.0453 179.94 34.0548 180.504 37.1101 180.61C37.2781 180.61 37.4156 180.748 37.4309 180.915C37.4614 181.236 37.492 181.525 37.5531 181.784C37.9503 183.66 39.0502 185.276 40.6695 186.328C42.2888 187.38 44.2136 187.746 46.0926 187.349C47.9716 186.953 49.5909 185.855 50.6449 184.239C51.699 182.623 52.0656 180.702 51.6684 178.827C51.6073 178.567 51.531 178.293 51.424 177.988C51.3629 177.82 51.4393 177.653 51.5921 177.577C54.3418 176.25 56.8624 174.527 59.0927 172.454C59.215 172.332 59.4136 172.332 59.5358 172.439C59.7802 172.652 60.0093 172.82 60.2385 172.972C61.8578 174.024 63.7826 174.39 65.6616 173.994C67.5406 173.597 69.1599 172.5 70.2139 170.884C72.3832 167.56 71.4513 163.093 68.1211 160.913C67.9072 160.776 67.6475 160.623 67.3573 160.486C67.2045 160.41 67.1281 160.242 67.1892 160.074C68.1975 157.208 68.7627 154.205 68.8696 151.155C68.8696 150.988 69.0071 150.85 69.1751 150.835C69.4959 150.805 69.7862 150.774 70.0459 150.713C73.9414 149.89 76.4467 146.063 75.6218 142.191C75.2246 140.316 74.1247 138.699 72.5054 137.648C70.8861 136.596 68.9613 136.23 67.0823 136.626C66.8226 136.687 66.5476 136.763 66.2421 136.87C66.0893 136.931 65.906 136.855 65.8296 136.702C64.5006 133.958 62.7743 131.442 60.6968 129.217C60.5746 129.095 60.5746 128.896 60.6815 128.774C60.8954 128.53 61.0634 128.302 61.2162 128.073C63.3854 124.749 62.4535 120.282 59.1233 118.102C57.504 117.05 55.5792 116.684 53.7002 117.081C51.8212 117.477 50.2019 118.575 49.1478 120.191C49.0104 120.42 48.8576 120.664 48.7201 120.953C48.6437 121.106 48.4604 121.182 48.3076 121.121C45.4357 120.115 42.4262 119.551 39.371 119.444C39.2029 119.444 39.0654 119.307 39.0502 119.139C39.0196 118.819 38.9891 118.529 38.928 118.27C38.5308 116.395 37.4309 114.779 35.8116 113.727C34.1923 112.675 32.2675 112.309 30.3885 112.705C26.493 113.528 23.9877 117.355 24.8126 121.228C24.8737 121.487 24.9501 121.761 25.057 122.066C25.1181 122.234 25.0417 122.402 24.889 122.478C22.1392 123.804 19.6186 125.527 17.3883 127.6C17.2661 127.722 17.0675 127.722 16.9453 127.616C16.7008 127.402 16.4717 127.235 16.2426 127.082C14.6233 126.03 12.6984 125.664 10.8194 126.061C8.94045 126.457 7.32116 127.555 6.26709 129.171C4.09785 132.494 5.02971 136.961 8.35995 139.142C8.5891 139.294 8.83352 139.431 9.12377 139.568C9.27653 139.645 9.35292 139.812 9.29181 139.98C8.28357 142.846 7.71835 145.85 7.61141 148.899C7.61141 149.067 7.47392 149.204 7.30588 149.219C6.98508 149.25 6.69483 149.28 6.43513 149.341C2.53966 150.164 0.0343352 153.991 0.859259 157.864C1.25644 159.739 2.35634 161.355 3.97564 162.407C5.59493 163.459 7.51975 163.825 9.39875 163.428C9.65844 163.367 9.93342 163.291 10.2389 163.184C10.407 163.123 10.575 163.2 10.6514 163.352C11.9804 166.096 13.7067 168.612 15.7843 170.838C15.9065 170.96 15.9065 171.158 15.7995 171.28C15.5857 171.524 15.4176 171.753 15.2649 171.981C13.0956 175.305 14.0275 179.772 17.3577 181.952C18.977 183.004 20.9018 183.37 22.7808 182.974C24.6598 182.577 26.2791 181.479 27.3332 179.863C27.4707 179.635 27.6234 179.391 27.7609 179.101C27.822 178.994 27.9442 178.918 28.0665 178.918ZM38.21 164.358C35.4602 164.358 32.7563 163.566 30.3885 162.026C27.1804 159.937 24.9806 156.72 24.1863 152.97C22.5517 145.24 27.5318 137.617 35.2769 136.001C43.022 134.37 50.6602 139.34 52.2795 147.085C53.0739 150.835 52.3559 154.662 50.2477 157.864C48.1549 161.065 44.9316 163.276 41.1736 164.053C40.1959 164.252 39.2029 164.358 38.21 164.358ZM38.2405 136.352C37.3087 136.352 36.3615 136.443 35.4297 136.641C28.0512 138.196 23.3002 145.453 24.8584 152.817C25.607 156.385 27.7151 159.449 30.7704 161.446C33.8256 163.444 37.492 164.13 41.0666 163.383C44.6413 162.636 47.7119 160.532 49.7131 157.482C51.7143 154.433 52.4017 150.774 51.6379 147.207C50.2783 140.773 44.5649 136.352 38.2405 136.352Z" fill="black"/>
<path d="M96.9172 126.747C96.8866 126.579 96.8408 126.427 96.7797 126.259C98.3226 125.512 99.7127 124.551 100.935 123.423C101.057 123.53 101.195 123.637 101.332 123.728C103.242 124.978 105.808 124.429 107.045 122.524C108.298 120.618 107.748 118.057 105.839 116.822C105.701 116.73 105.548 116.654 105.396 116.578C105.946 115.007 106.266 113.346 106.327 111.653C106.495 111.638 106.663 111.623 106.832 111.577C109.062 111.104 110.498 108.924 110.024 106.698C109.551 104.472 107.366 103.039 105.136 103.512C104.968 103.542 104.815 103.588 104.647 103.649C103.898 102.109 102.936 100.722 101.806 99.5023C101.913 99.3803 102.019 99.2431 102.111 99.1059C103.364 97.2002 102.814 94.6388 100.904 93.4039C98.9948 92.1538 96.4283 92.7026 95.1909 94.6084C95.0993 94.7456 95.0229 94.898 94.9465 95.0505C93.3731 94.5016 91.7079 94.1815 90.0123 94.1205C89.997 93.9528 89.9817 93.7851 89.9359 93.6174C89.4623 91.3915 87.2778 89.9584 85.0474 90.431C82.8171 90.9036 81.3811 93.0838 81.8547 95.3097C81.8852 95.4774 81.9311 95.6298 81.9922 95.7975C80.4493 96.5446 79.0591 97.5051 77.837 98.6333C77.7148 98.5265 77.5773 98.4198 77.4398 98.3284C75.5303 97.0782 72.9638 97.627 71.7265 99.5328C70.4738 101.439 71.0237 104 72.9333 105.235C73.0708 105.326 73.2235 105.402 73.3763 105.479C72.8263 107.049 72.5055 108.711 72.4444 110.403C72.2764 110.418 72.1084 110.434 71.9403 110.479C69.71 110.952 68.274 113.132 68.7476 115.358C69.2211 117.584 71.4056 119.017 73.636 118.544C73.804 118.514 73.9568 118.468 74.1248 118.407C74.8734 119.947 75.8358 121.334 76.9662 122.554C76.8593 122.676 76.7524 122.813 76.6607 122.95C75.4081 124.856 75.958 127.418 77.8675 128.652C79.7771 129.903 82.3435 129.354 83.5809 127.448C83.6726 127.311 83.7489 127.158 83.8253 127.006C85.3988 127.555 87.0639 127.875 88.7596 127.936C88.7749 128.104 88.7901 128.271 88.836 128.439C89.3095 130.665 91.4941 132.098 93.7244 131.625C95.9548 131.168 97.3755 128.973 96.9172 126.747ZM81.87 112.599C80.9992 108.467 83.6573 104.396 87.7972 103.527C91.9371 102.658 96.0006 105.311 96.8866 109.443C97.7726 113.574 95.0993 117.645 90.9594 118.514C86.8195 119.398 82.7407 116.745 81.87 112.599Z" fill="white"/>
<path d="M92.854 132.052C91.9985 132.052 91.1583 131.808 90.4251 131.32C89.4321 130.665 88.7447 129.674 88.5003 128.5C88.485 128.424 88.4697 128.348 88.4544 128.256C86.9268 128.18 85.4297 127.89 83.9785 127.418C83.9326 127.494 83.8868 127.555 83.8562 127.631C83.1994 128.622 82.2064 129.308 81.0301 129.552C79.8691 129.796 78.6623 129.567 77.6693 128.927C75.607 127.585 75.0265 124.81 76.3708 122.752C76.4167 122.691 76.4625 122.615 76.5083 122.554C75.4848 121.426 74.6293 120.16 73.9419 118.804C73.8655 118.819 73.7738 118.849 73.6975 118.865C71.2838 119.368 68.916 117.828 68.4118 115.419C67.9077 113.01 69.4506 110.647 71.8643 110.144C71.9407 110.129 72.0171 110.113 72.1087 110.098C72.1851 108.574 72.4754 107.079 72.9489 105.631C72.8725 105.585 72.8114 105.54 72.7351 105.509C70.6727 104.168 70.0922 101.393 71.4366 99.3346C72.0934 98.3436 73.0864 97.6575 74.2627 97.4136C75.4237 97.1697 76.6305 97.3983 77.6235 98.0387C77.6846 98.0844 77.761 98.1302 77.8221 98.1759C78.9525 97.1544 80.2205 96.3006 81.5801 95.6146C81.5648 95.5383 81.5342 95.4469 81.519 95.3706C81.2745 94.212 81.5037 93.0075 82.1453 92.0165C82.8022 91.0256 83.7951 90.3395 84.9714 90.0956C86.1324 89.8516 87.324 90.0803 88.3322 90.7206C89.3252 91.3762 90.0126 92.3672 90.257 93.5411C90.2723 93.6174 90.2876 93.6936 90.3029 93.7851C91.8305 93.8613 93.3276 94.151 94.7788 94.6236C94.8247 94.5474 94.8705 94.4864 94.901 94.4102C95.5579 93.4192 96.5509 92.7331 97.7272 92.4892C98.8882 92.2452 100.08 92.4739 101.088 93.1143C103.15 94.4559 103.731 97.2306 102.386 99.2888C102.341 99.3498 102.295 99.4261 102.249 99.487C103.272 100.615 104.128 101.881 104.815 103.238C104.892 103.207 104.983 103.192 105.06 103.177C106.221 102.933 107.412 103.161 108.421 103.802C109.414 104.457 110.101 105.448 110.345 106.622C110.85 109.031 109.307 111.394 106.893 111.897C106.817 111.912 106.74 111.928 106.649 111.943C106.572 113.468 106.282 114.962 105.808 116.41C105.885 116.456 105.946 116.501 106.022 116.532C108.085 117.874 108.665 120.648 107.321 122.707C106.664 123.698 105.671 124.384 104.495 124.628C103.334 124.871 102.127 124.643 101.134 124.002C101.073 123.957 100.996 123.911 100.935 123.865C99.8048 124.887 98.5368 125.74 97.1772 126.427C97.1925 126.503 97.2231 126.594 97.2383 126.67C97.4828 127.829 97.2536 129.034 96.612 130.025C95.9551 131.016 94.9622 131.702 93.7859 131.946C93.4804 132.022 93.1748 132.052 92.854 132.052ZM83.8104 126.686C83.841 126.686 83.8868 126.686 83.9173 126.701C85.4755 127.25 87.1101 127.555 88.76 127.616C88.928 127.616 89.0655 127.753 89.0808 127.921C89.096 128.104 89.1113 128.241 89.1419 128.378C89.3557 129.369 89.9362 130.223 90.7764 130.772C91.6319 131.32 92.6402 131.519 93.6331 131.305C94.6261 131.092 95.4815 130.512 96.0315 129.674C96.5814 128.82 96.78 127.814 96.5662 126.823C96.5356 126.686 96.5051 126.549 96.444 126.381C96.3829 126.213 96.4592 126.045 96.612 125.969C98.0938 125.253 99.4687 124.323 100.676 123.194C100.798 123.072 100.996 123.072 101.119 123.179C101.256 123.286 101.378 123.377 101.485 123.454C102.341 124.002 103.349 124.201 104.342 123.987C105.335 123.774 106.19 123.194 106.74 122.356C107.886 120.603 107.382 118.255 105.64 117.111C105.518 117.035 105.396 116.959 105.243 116.883C105.09 116.806 105.014 116.639 105.075 116.471C105.625 114.916 105.931 113.285 105.976 111.638C105.976 111.47 106.114 111.333 106.282 111.318C106.45 111.303 106.603 111.287 106.74 111.257C108.787 110.83 110.101 108.818 109.673 106.775C109.459 105.784 108.879 104.93 108.039 104.381C107.183 103.832 106.175 103.634 105.182 103.847C105.045 103.878 104.907 103.924 104.739 103.969C104.586 104.03 104.403 103.954 104.327 103.802C103.609 102.308 102.677 100.951 101.546 99.7462C101.424 99.6242 101.424 99.4261 101.531 99.3041C101.638 99.1669 101.73 99.0449 101.806 98.9382C102.952 97.1849 102.448 94.837 100.706 93.6936C99.8506 93.1447 98.8423 92.9465 97.8494 93.16C96.8564 93.3734 96.0009 93.9528 95.451 94.7913C95.3746 94.9133 95.2982 95.0352 95.2218 95.1877C95.1455 95.3402 94.9621 95.4164 94.8094 95.3554C93.2512 94.8065 91.6166 94.5016 89.9668 94.4406C89.7987 94.4406 89.6613 94.3034 89.646 94.1357C89.6307 93.968 89.6154 93.8156 89.5849 93.6783C89.371 92.6874 88.7905 91.8336 87.9503 91.2847C87.0948 90.7359 86.0866 90.5377 85.0936 90.7511C84.1007 90.9646 83.2452 91.5439 82.6952 92.3824C82.1453 93.2362 81.9467 94.2424 82.1606 95.2334C82.1911 95.3706 82.2217 95.5079 82.2828 95.6756C82.3439 95.8433 82.2675 96.011 82.1147 96.0872C80.6329 96.8038 79.2581 97.7338 78.0512 98.862C77.929 98.9839 77.7304 98.9839 77.6082 98.8772C77.4707 98.7705 77.3485 98.679 77.2416 98.6028C76.3861 98.0539 75.3779 97.8557 74.3849 98.0692C73.3919 98.2826 72.5365 98.862 71.9865 99.7005C70.8408 101.454 71.3449 103.802 73.0864 104.945C73.2086 105.021 73.3308 105.098 73.4836 105.174C73.6364 105.25 73.7127 105.418 73.6516 105.585C73.1017 107.14 72.7962 108.772 72.7503 110.418C72.7503 110.586 72.6128 110.723 72.4448 110.739C72.2768 110.754 72.124 110.769 71.9865 110.799C69.9395 111.226 68.6257 113.239 69.0534 115.282C69.4812 117.325 71.4977 118.636 73.5447 118.209C73.6822 118.179 73.8197 118.133 73.9877 118.087C74.1405 118.026 74.3238 118.102 74.4002 118.255C75.1182 119.749 76.05 121.106 77.1805 122.31C77.3027 122.432 77.3027 122.63 77.1957 122.752C77.0888 122.889 76.9972 122.996 76.9208 123.118C75.775 124.871 76.2792 127.219 78.0207 128.363C78.8761 128.912 79.8844 129.11 80.8774 128.896C81.8703 128.683 82.7258 128.104 83.2757 127.265C83.3521 127.143 83.4285 127.021 83.5049 126.869C83.5813 126.762 83.6882 126.686 83.8104 126.686ZM89.3863 119.017C85.6741 119.017 82.3439 116.425 81.5495 112.675C80.6482 108.36 83.4132 104.122 87.7364 103.207C89.8293 102.765 91.968 103.161 93.7553 104.335C95.5427 105.509 96.78 107.293 97.2078 109.382C97.6508 111.47 97.2536 113.605 96.0773 115.389C94.9163 117.172 93.1137 118.407 91.0209 118.834C90.4709 118.971 89.9209 119.017 89.3863 119.017ZM82.2064 112.538C83.0313 116.486 86.9421 119.032 90.8986 118.194C92.8082 117.797 94.458 116.669 95.5274 115.038C96.5967 113.407 96.9634 111.44 96.5662 109.534C96.169 107.613 95.0385 105.982 93.404 104.915C91.7694 103.847 89.7987 103.481 87.8892 103.878C83.9173 104.701 81.3662 108.589 82.2064 112.538Z" fill="black"/>
</svg>
