<svg width="357" height="369" viewBox="0 0 357 369" fill="none" xmlns="http://www.w3.org/2000/svg">
<path d="M355.319 0.694824H242.694V113.281H355.319V0.694824Z" fill="white"/>
<path d="M355.32 113.975H242.695C242.604 113.976 242.513 113.958 242.429 113.923C242.344 113.889 242.267 113.837 242.203 113.773C242.138 113.708 242.087 113.631 242.052 113.547C242.017 113.462 242 113.372 242 113.281V0.697935C242 0.606429 242.017 0.515745 242.052 0.431085C242.087 0.346426 242.138 0.26946 242.202 0.204609C242.267 0.139758 242.344 0.0882942 242.428 0.0531809C242.513 0.0180677 242.603 -9.45278e-07 242.695 0H355.32C355.504 0.000835107 355.681 0.0747357 355.811 0.205534C355.942 0.336332 356.015 0.513376 356.015 0.697935V113.281C356.015 113.465 355.942 113.642 355.811 113.772C355.681 113.902 355.504 113.975 355.32 113.975ZM243.39 112.586H354.622V1.39271H243.39V112.586Z" fill="black"/>
<path d="M304.541 25.7574L312.37 41.6142L329.878 44.1406C331.019 44.3043 332.091 44.7845 332.973 45.5269C333.855 46.2693 334.511 47.244 334.866 48.3404C335.222 49.4367 335.262 50.6107 334.984 51.7289C334.705 52.8472 334.118 53.865 333.29 54.6665L320.622 67.0115L323.613 84.441C323.81 85.5766 323.684 86.7445 323.25 87.8122C322.815 88.8798 322.09 89.8042 321.157 90.4805C320.223 91.1568 319.119 91.5578 317.969 91.638C316.819 91.7182 315.669 91.4743 314.651 90.934L298.994 82.704L283.334 90.934C282.316 91.4694 281.169 91.7094 280.022 91.6268C278.875 91.5442 277.774 91.1423 276.844 90.4667C275.913 89.791 275.191 88.8685 274.758 87.8036C274.325 86.7387 274.198 85.5739 274.393 84.441L277.382 67.0115L264.736 54.6665C263.912 53.8639 263.329 52.8469 263.054 51.7304C262.778 50.614 262.82 49.4427 263.176 48.3491C263.532 47.2556 264.186 46.2833 265.066 45.5423C265.946 44.8014 267.015 44.3213 268.154 44.1564L285.659 41.63L293.484 25.7574C293.993 24.7257 294.78 23.8569 295.757 23.2493C296.734 22.6418 297.862 22.3198 299.013 22.3198C300.163 22.3198 301.291 22.6418 302.268 23.2493C303.245 23.8569 304.033 24.7257 304.541 25.7574Z" fill="#1F59C9"/>
<path d="M134.667 368L67.802 328.314L0 290.25L0.936936 212.5L1.35942e-05 134.75L67.802 96.6864L134.667 57L201.532 96.6864L269.334 134.75L268.397 212.5L269.334 290.25L201.532 328.314L134.667 368Z" fill="#FF722C"/>
<path d="M262 72H190V144H262V72Z" fill="#E2EAFF"/>
<path d="M226.5 121C233.404 121 239 115.404 239 108.5C239 101.596 233.404 96 226.5 96C219.596 96 214 101.596 214 108.5C214 115.404 219.596 121 226.5 121Z" fill="#1F59C9"/>
<path d="M49 317.5C45.1098 306.814 18.0995 290 18.0995 273.013C15.2607 227.617 74.1084 181.385 74.1084 181.385L90.154 180.538L74.1084 286.072L76.6354 294.698C66.974 299.956 69.2622 321.165 49 317.5Z" fill="#1F59C9"/>
<path d="M129.918 254.858L148.899 340.361H51.8623L32.882 254.858H129.918Z" fill="white" stroke="black"/>
<path d="M196.5 331.5C174.779 269.304 168.024 247.607 146.296 185.409C145.734 183.8 145.171 182.189 144.609 180.577C110.319 179.457 74.1006 181.387 74.1006 181.387V331.5L134.5 368.5L196.5 331.5Z" fill="#1F59C9"/>
<path d="M72.2381 254.09C72.1305 254.09 72.0265 254.052 71.944 253.983C71.8616 253.914 71.8061 253.818 71.7871 253.712L67.5871 229.848L65.3718 231.473C65.3232 231.508 65.2681 231.534 65.2097 231.548C65.1512 231.562 65.0905 231.565 65.0311 231.555C64.9716 231.546 64.9146 231.525 64.8632 231.494C64.8119 231.463 64.7672 231.422 64.7317 231.373C64.6962 231.324 64.6707 231.269 64.6565 231.211C64.6423 231.153 64.6398 231.092 64.649 231.032C64.6583 230.973 64.6792 230.916 64.7105 230.865C64.7418 230.813 64.7829 230.769 64.8315 230.733L67.6391 228.67C67.7012 228.623 67.7746 228.593 67.8519 228.584C67.9292 228.574 68.0077 228.584 68.0796 228.614C68.1521 228.643 68.216 228.689 68.2651 228.75C68.3143 228.81 68.347 228.882 68.3602 228.959L72.689 253.55C72.7096 253.669 72.682 253.792 72.6123 253.891C72.5426 253.991 72.4365 254.058 72.317 254.08L72.2381 254.09Z" fill="black"/>
<path d="M144.617 180.577L225.581 190.682C225.581 190.682 224.49 186.969 223.052 181.242C243.314 191.891 258.381 184.626 265.326 178.558C273.456 190.42 280.912 205.394 277.679 217.348C271.311 240.929 220.506 255.496 146.945 234.244L136.452 185.924L144.617 180.577Z" fill="#1F59C9"/>
<path d="M223.051 181.242C220.349 170.439 216.401 152.5 216.166 138.727C215.819 117.645 225.819 108.483 229.454 109.875C233.089 111.267 230.954 115.505 229.454 119.197C228.539 121.446 227.776 123.753 227.168 126.104C227.168 126.104 232.617 120.08 236.717 126.887C236.717 126.887 243.053 120.474 246.034 127.594C246.034 127.594 252.848 122.433 255.716 130.635C258.584 138.837 251.559 138.727 251.559 138.727C251.559 138.727 251.437 152.047 248.881 158.436C254.899 164.687 260.4 171.417 265.329 178.558C258.386 184.626 243.313 191.885 223.051 181.242Z" fill="white"/>
<path d="M222.48 179.389C222.377 179.389 222.278 179.354 222.197 179.291C222.117 179.228 222.06 179.139 222.035 179.04C219.265 167.676 215.919 151.458 215.709 138.737C215.451 123.117 220.807 113.764 225.477 110.503C227.05 109.402 228.523 109.028 229.633 109.451C230.618 109.83 231.295 110.434 231.645 111.248C232.476 113.168 231.349 115.86 230.267 118.466C230.14 118.771 230.013 119.072 229.893 119.371C229.179 121.129 228.555 122.923 228.022 124.744C229.061 123.952 230.709 123.038 232.534 123.215C234.165 123.372 235.606 124.37 236.817 126.181C237.796 125.319 240.331 123.375 242.804 123.854C244.236 124.133 245.39 125.159 246.235 126.912C247.231 126.289 249.642 125.043 252.025 125.751C253.862 126.306 255.253 127.899 256.157 130.486C257.16 133.357 257.104 135.592 255.992 137.134C254.837 138.733 252.894 139.088 252.011 139.165C251.967 141.509 251.647 152.434 249.413 158.33C255.363 164.548 260.811 171.226 265.708 178.302C265.777 178.402 265.803 178.526 265.78 178.645C265.758 178.764 265.69 178.87 265.59 178.938C265.489 179.007 265.366 179.033 265.247 179.011C265.128 178.988 265.022 178.92 264.954 178.82C260.035 171.704 254.551 164.997 248.555 158.762C248.492 158.698 248.449 158.618 248.431 158.531C248.414 158.443 248.422 158.352 248.455 158.27C250.949 152.037 251.1 138.858 251.103 138.725C251.103 138.665 251.115 138.605 251.138 138.55C251.162 138.495 251.196 138.445 251.24 138.403C251.327 138.319 251.444 138.272 251.566 138.272C251.589 138.272 254.041 138.272 255.255 136.593C256.177 135.31 256.19 133.355 255.292 130.789C254.49 128.491 253.301 127.091 251.759 126.634C249.157 125.851 246.344 127.947 246.317 127.968C246.261 128.01 246.196 128.039 246.128 128.052C246.06 128.066 245.989 128.063 245.922 128.045C245.854 128.027 245.791 127.994 245.739 127.949C245.686 127.903 245.645 127.845 245.618 127.781C244.88 126.019 243.875 125.003 242.63 124.762C240.009 124.255 237.079 127.191 237.05 127.22C237.001 127.269 236.941 127.307 236.875 127.33C236.809 127.353 236.739 127.361 236.67 127.353C236.6 127.345 236.534 127.321 236.475 127.283C236.416 127.245 236.367 127.194 236.331 127.135C235.217 125.286 233.912 124.276 232.447 124.133C229.853 123.881 227.538 126.397 227.513 126.418C227.445 126.494 227.354 126.544 227.253 126.562C227.153 126.579 227.05 126.562 226.96 126.514C226.871 126.466 226.799 126.39 226.757 126.298C226.716 126.205 226.706 126.101 226.73 126.003C227.345 123.631 228.114 121.302 229.032 119.031C229.155 118.729 229.282 118.426 229.408 118.121C230.418 115.69 231.462 113.176 230.79 111.614C230.539 111.026 230.049 110.6 229.292 110.309C228.496 110.004 227.295 110.349 225.998 111.257C221.518 114.39 216.374 123.464 216.626 138.725C216.833 151.364 220.159 167.51 222.927 178.83C222.941 178.889 222.943 178.949 222.934 179.009C222.925 179.068 222.904 179.125 222.873 179.176C222.842 179.228 222.801 179.272 222.752 179.308C222.703 179.343 222.648 179.369 222.59 179.383C222.554 179.389 222.517 179.391 222.48 179.389Z" fill="black"/>
<path d="M251.178 137.113C251.073 137.112 250.971 137.076 250.889 137.009C250.808 136.943 250.752 136.85 250.731 136.747L250.002 133.172C249.988 133.112 249.987 133.051 249.997 132.991C250.008 132.931 250.03 132.874 250.063 132.823C250.096 132.771 250.139 132.727 250.189 132.693C250.24 132.659 250.296 132.635 250.356 132.623C250.416 132.61 250.477 132.61 250.537 132.622C250.597 132.634 250.653 132.658 250.704 132.692C250.754 132.726 250.797 132.77 250.83 132.821C250.864 132.872 250.886 132.929 250.897 132.989L251.627 136.564C251.639 136.623 251.639 136.684 251.628 136.743C251.617 136.801 251.594 136.858 251.561 136.908C251.528 136.958 251.485 137.001 251.436 137.035C251.386 137.069 251.33 137.092 251.271 137.104C251.241 137.11 251.209 137.113 251.178 137.113Z" fill="black"/>
<path d="M228.339 201.553C228.235 201.553 228.135 201.517 228.054 201.453C227.973 201.388 227.917 201.298 227.894 201.198L225.83 192.092C225.817 192.034 225.815 191.973 225.824 191.914C225.834 191.854 225.856 191.798 225.887 191.747C225.919 191.696 225.961 191.651 226.009 191.616C226.058 191.581 226.114 191.556 226.172 191.543C226.231 191.529 226.291 191.527 226.351 191.537C226.41 191.547 226.467 191.568 226.518 191.6C226.569 191.632 226.613 191.673 226.648 191.722C226.683 191.771 226.708 191.826 226.722 191.884L228.785 200.99C228.812 201.108 228.791 201.232 228.726 201.335C228.661 201.437 228.559 201.51 228.441 201.536C228.407 201.546 228.373 201.552 228.339 201.553Z" fill="black"/>
<path d="M129.232 154.673L125.394 178.797L134.908 180.681C134.908 180.681 133.334 184.42 98.6643 182.679C73.3791 181.406 112.488 141.155 112.488 141.155C118.376 145.268 123.971 149.785 129.232 154.673Z" fill="white"/>
<path d="M134.908 180.997C134.881 180.999 134.854 180.999 134.827 180.997L125.307 179.254C125.189 179.233 125.084 179.167 125.015 179.069C124.946 178.971 124.918 178.85 124.937 178.732L128.347 157.069C119.792 149.01 117.472 138.893 117.449 138.787C117.436 138.728 117.434 138.668 117.444 138.608C117.454 138.549 117.475 138.492 117.507 138.441C117.539 138.39 117.58 138.345 117.629 138.31C117.678 138.275 117.734 138.25 117.792 138.237C117.851 138.223 117.912 138.221 117.971 138.231C118.031 138.241 118.088 138.262 118.139 138.294C118.19 138.326 118.234 138.367 118.269 138.416C118.304 138.465 118.329 138.521 118.343 138.579C118.366 138.679 120.662 148.667 129.15 156.551C129.206 156.603 129.249 156.668 129.273 156.741C129.298 156.814 129.304 156.891 129.291 156.967L125.914 178.429L134.987 180.091C135.101 180.11 135.203 180.171 135.274 180.262C135.344 180.353 135.378 180.468 135.368 180.582C135.357 180.697 135.304 180.804 135.218 180.881C135.133 180.958 135.021 181 134.906 180.999L134.908 180.997Z" fill="black"/>
<path d="M140.149 104.058C129.908 101.247 123.582 99.205 107.948 107.955C93.7187 115.916 53.7783 171.052 48.2192 183.46C42.6601 195.869 43.747 211.246 51.8705 222.134C59.9941 233.022 75.1627 238.507 88.1742 234.391C99.6436 230.764 108.145 220.572 112.296 209.333C116.446 198.094 116.803 185.841 116.298 173.887C116.055 168.083 115.635 151.441 118.819 146.567C120.814 143.515 124.043 151.8 127.088 149.785C132.402 146.266 137.479 133.882 144.532 129.241C156.941 121.074 151.446 107.16 140.149 104.058Z" fill="black"/>
<path d="M143.85 123.134C143.85 123.134 130.419 122.228 128.927 128.441C127.435 134.655 126.171 137.57 122.381 138.829C122.381 138.829 113.704 131.25 109.496 137.721C105.288 144.193 111.574 150.147 118.033 150.564C118.033 150.564 121.194 159.425 132.539 158.947C143.884 158.469 145.451 141.083 143.85 123.134Z" fill="white"/>
<path d="M131.663 159.42C121.944 159.42 118.363 152.49 117.711 150.994C113.712 150.643 110.021 148.347 108.448 145.221C107.575 143.48 106.981 140.723 109.103 137.468C110.142 135.87 111.534 134.939 113.236 134.705C117.158 134.16 121.48 137.488 122.476 138.307C125.874 137.077 127.048 134.316 128.482 128.335C130.047 121.822 143.318 122.641 143.881 122.678C143.988 122.688 144.088 122.735 144.164 122.811C144.24 122.887 144.287 122.987 144.297 123.094C145.776 139.713 144.199 150.782 139.608 156.015C138.734 157.044 137.653 157.877 136.436 158.46C135.219 159.044 133.892 159.365 132.542 159.401C132.249 159.414 131.956 159.42 131.663 159.42ZM114.119 135.561C113.866 135.56 113.612 135.577 113.361 135.61C111.933 135.818 110.759 136.601 109.87 137.968C108.377 140.254 108.17 142.622 109.267 144.809C110.707 147.687 114.321 149.862 118.053 150.103C118.143 150.108 118.228 150.14 118.3 150.194C118.371 150.248 118.425 150.322 118.455 150.406C118.581 150.755 121.653 158.938 132.511 158.485C133.738 158.452 134.943 158.161 136.049 157.631C137.155 157.101 138.137 156.344 138.931 155.409C143.251 150.485 144.806 139.479 143.43 123.57C141.246 123.486 130.62 123.349 129.371 128.555C127.848 134.9 126.497 137.952 122.524 139.267C122.448 139.292 122.367 139.297 122.289 139.281C122.211 139.265 122.139 139.23 122.079 139.177C122.035 139.13 117.893 135.561 114.119 135.561Z" fill="black"/>
<path d="M120.45 145.558C120.365 145.559 120.281 145.537 120.207 145.493C120.134 145.449 120.074 145.386 120.035 145.31C119.484 144.289 118.672 143.432 117.682 142.827C116.692 142.222 115.559 141.89 114.398 141.866C114.338 141.866 114.279 141.853 114.223 141.83C114.168 141.807 114.117 141.773 114.075 141.73C114.033 141.687 113.999 141.636 113.977 141.58C113.954 141.525 113.943 141.465 113.943 141.405C113.946 141.284 113.995 141.168 114.081 141.083C114.168 140.998 114.284 140.95 114.405 140.95C115.732 140.979 117.028 141.359 118.16 142.053C119.292 142.746 120.219 143.728 120.847 144.897C120.875 144.951 120.892 145.011 120.897 145.072C120.901 145.133 120.894 145.194 120.874 145.252C120.855 145.31 120.824 145.364 120.784 145.41C120.744 145.456 120.694 145.493 120.639 145.52C120.58 145.546 120.515 145.559 120.45 145.558Z" fill="black"/>
</svg>
