<svg width="2300" height="451" viewBox="0 0 2300 451" fill="none" xmlns="http://www.w3.org/2000/svg">
<g clip-path="url(#clip0_4187_1010)">
<path d="M2267.44 517.912L2300.26 460.98L2267.18 404.079L2206.73 404.128L2176.48 351.784L2116.02 351.833L2085.77 299.489L2025.32 299.539L1995.07 247.194L1934.61 247.244L1904.36 194.899L1843.91 194.949L1813.66 142.604L1747.99 142.572L1717.27 195.844L1658.78 195.859L1629 247.521L1571.87 247.542L1541.63 195.197L1481.78 195.207L1451.8 143.408L1386.13 143.376L1355.41 196.648L1302.83 196.559L1272.86 144.76L1213.01 144.77L1183.03 92.9714L1117.36 92.939L1087.32 145.041L1026.11 145.046L993.285 201.977L1023.95 254.951L993.911 307.053L1023.2 357.676L994.515 407.436L941.935 407.347L911.957 355.548L846.285 355.516L816.247 407.617L755.036 407.622L724.323 460.895L665.836 460.91L633.097 517.695L662.389 568.318L633.701 618.078L581.121 617.989L551.143 566.19L491.294 566.2L461.316 514.401L395.644 514.369L362.905 571.153L392.197 621.776L363.509 671.536L305.022 671.551L272.283 728.336L301.575 778.959L272.886 828.719L220.307 828.63L190.329 776.831L124.657 776.799L94.6183 828.901L32.7387 828.715L0 885.499L32.933 942.317L92.7814 942.307L122.76 994.106L182.608 994.096L212.587 1045.89L272.435 1045.88L302.414 1097.68L362.262 1097.67L392.241 1149.47L452.089 1149.46L482.068 1201.26L541.916 1201.25L571.895 1253.05L631.743 1253.04L661.722 1304.84L721.57 1304.83L751.549 1356.63L811.397 1356.62L841.376 1408.42L901.832 1408.37L932.081 1460.71L992.536 1460.66L1022.79 1513.01L1083.24 1512.96L1113.49 1565.3L1173.95 1565.25L1204.19 1617.6L1264.65 1617.55L1294.9 1669.89L1355.36 1669.84L1385.6 1722.19L1446.06 1722.14L1476.31 1774.48L1541.98 1774.51L1574.72 1717.73L1545.43 1667.11L1574.12 1617.35L1632.6 1617.33L1665.34 1560.55L1636.05 1509.92L1664.74 1460.16L1723.23 1460.15L1755.96 1403.36L1726.67 1352.74L1755.36 1302.98L1813.85 1302.97L1846.59 1246.18L1817.29 1195.56L1845.98 1145.8L1904.47 1145.78L1937.21 1089L1907.92 1038.37L1936.61 988.614L1995.09 988.599L2027.83 931.814L1998.54 881.191L2027.23 831.432L2085.71 831.417L2118.45 774.632L2089.16 724.009L2117.85 674.249L2176.34 674.234L2209.08 617.449L2179.78 566.826L2208.47 517.066L2267.44 517.912Z" fill="#00AF9D"/>
<path d="M1520.31 112.33L1498.68 170.19L1505.43 172.731L1527.06 114.871L1520.31 112.33Z" fill="#00AF9D"/>
<path d="M1536.88 142.863L1525.02 154.761L1530.11 159.867L1547.09 142.863L1530.11 125.835L1525.02 130.941L1536.88 142.863Z" fill="#00AF9D"/>
<path d="M1501.26 154.761L1489.38 142.839L1501.26 130.941L1496.15 125.835L1479.19 142.839L1496.15 159.867L1501.26 154.761Z" fill="#00AF9D"/>
<path d="M1540.49 187.627L1566.44 142.566L1540.49 97.5046H1488.59L1462.63 142.566L1488.59 187.627H1540.49ZM1493.26 105.585H1535.82L1557.12 142.566L1535.82 179.547H1493.26L1471.98 142.566L1493.26 105.585Z" fill="#00AF9D"/>
<path d="M1605.49 63.0299L1583.86 120.89L1590.62 123.43L1612.25 65.5705L1605.49 63.0299Z" fill="#00AF9D"/>
<path d="M1622.06 93.5634L1610.2 105.461L1615.29 110.567L1632.27 93.5634L1615.29 76.5353L1610.2 81.6412L1622.06 93.5634Z" fill="#00AF9D"/>
<path d="M1586.45 105.461L1574.56 93.5386L1586.45 81.6412L1581.33 76.5353L1564.38 93.5386L1581.33 110.567L1586.45 105.461Z" fill="#00AF9D"/>
<path d="M1625.67 138.327L1651.62 93.2661L1625.67 48.2046H1573.77L1547.82 93.2661L1573.77 138.327H1625.67ZM1578.44 56.2849H1621L1642.3 93.2661L1621 130.247H1578.44L1557.16 93.2661L1578.44 56.2849Z" fill="#00AF9D"/>
<path d="M1605.49 164.108L1583.86 221.968L1590.62 224.509L1612.25 166.649L1605.49 164.108Z" fill="#00AF9D"/>
<path d="M1622.06 194.642L1610.2 206.539L1615.29 211.645L1632.27 194.642L1615.29 177.614L1610.2 182.72L1622.06 194.642Z" fill="#00AF9D"/>
<path d="M1586.45 206.539L1574.56 194.617L1586.45 182.72L1581.33 177.614L1564.38 194.617L1581.33 211.645L1586.45 206.539Z" fill="#00AF9D"/>
<path d="M1625.67 239.406L1651.62 194.345L1625.67 149.283H1573.77L1547.82 194.345L1573.77 239.406H1625.67ZM1578.44 157.363H1621L1642.3 194.345L1621 231.325H1578.44L1557.16 194.345L1578.44 157.363Z" fill="#00AF9D"/>
<path d="M1692.31 14.8253L1670.68 72.6852L1677.44 75.2258L1699.07 17.3659L1692.31 14.8253Z" fill="#00AF9D"/>
<path d="M1708.89 45.3588L1697.02 57.2562L1702.11 62.3622L1719.09 45.3588L1702.11 28.3307L1697.02 33.4367L1708.89 45.3588Z" fill="#00AF9D"/>
<path d="M1673.27 57.2562L1661.38 45.3341L1673.27 33.4367L1668.15 28.3307L1651.2 45.3341L1668.15 62.3622L1673.27 57.2562Z" fill="#00AF9D"/>
<path d="M1712.49 90.1228L1738.44 45.0615L1712.49 0H1660.59L1634.64 45.0615L1660.59 90.1228H1712.49ZM1665.26 8.08034H1707.82L1729.13 45.0615L1707.82 82.0424H1665.26L1643.98 45.0615L1665.26 8.08034Z" fill="#00AF9D"/>
<path d="M1692.31 112.617L1670.68 170.477L1677.44 173.018L1699.07 115.158L1692.31 112.617Z" fill="#00AF9D"/>
<path d="M1708.89 143.151L1697.02 155.048L1702.11 160.154L1719.09 143.151L1702.11 126.122L1697.02 131.228L1708.89 143.151Z" fill="#00AF9D"/>
<path d="M1673.27 155.048L1661.38 143.126L1673.27 131.228L1668.15 126.122L1651.2 143.126L1668.15 160.154L1673.27 155.048Z" fill="#00AF9D"/>
<path d="M1712.49 187.915L1738.44 142.853L1712.49 97.7917H1660.59L1634.64 142.853L1660.59 187.915H1712.49ZM1665.26 105.872H1707.82L1729.13 142.853L1707.82 179.834H1665.26L1643.98 142.853L1665.26 105.872Z" fill="#00AF9D"/>
<g opacity="0.3">
<path d="M1335.34 220.177L1312.96 280.027L1319.95 282.655L1342.33 222.805L1335.34 220.177Z" fill="#038D7F"/>
<path d="M1352.48 251.761L1340.21 264.067L1345.48 269.349L1363.04 251.761L1345.48 234.147L1340.21 239.429L1352.48 251.761Z" fill="#038D7F"/>
<path d="M1315.64 264.067L1303.34 251.735L1315.64 239.429L1310.35 234.147L1292.81 251.735L1310.35 269.349L1315.64 264.067Z" fill="#038D7F"/>
<path d="M1356.21 298.064L1383.06 251.453L1356.21 204.842H1302.53L1275.68 251.453L1302.53 298.064H1356.21ZM1307.36 213.2H1351.38L1373.42 251.453L1351.38 289.706H1307.36L1285.35 251.453L1307.36 213.2Z" fill="#038D7F"/>
<path d="M1423.88 272.439L1401.5 332.288L1408.49 334.916L1430.87 275.067L1423.88 272.439Z" fill="#038D7F"/>
<path d="M1441.02 304.023L1428.75 316.329L1434.02 321.611L1451.58 304.023L1434.02 286.409L1428.75 291.69L1441.02 304.023Z" fill="#038D7F"/>
<path d="M1404.18 316.329L1391.88 303.997L1404.18 291.69L1398.89 286.409L1381.35 303.997L1398.89 321.611L1404.18 316.329Z" fill="#038D7F"/>
<path d="M1444.75 350.326L1471.6 303.715L1444.75 257.104H1391.06L1364.22 303.715L1391.06 350.326H1444.75ZM1395.9 265.462H1439.92L1461.96 303.715L1439.92 341.968H1395.9L1373.88 303.715L1395.9 265.462Z" fill="#038D7F"/>
<path d="M1514.26 219.693L1491.89 279.542L1498.88 282.17L1521.25 222.321L1514.26 219.693Z" fill="#038D7F"/>
<path d="M1531.41 251.276L1519.14 263.583L1524.41 268.864L1541.97 251.276L1524.41 233.663L1519.14 238.944L1531.41 251.276Z" fill="#038D7F"/>
<path d="M1494.57 263.583L1482.27 251.251L1494.57 238.944L1489.28 233.663L1471.74 251.251L1489.28 268.864L1494.57 263.583Z" fill="#038D7F"/>
<path d="M1535.14 297.58L1561.99 250.969L1535.14 204.358H1481.45L1454.61 250.969L1481.45 297.58H1535.14ZM1486.29 212.716H1530.31L1552.35 250.969L1530.31 289.221H1486.29L1464.27 250.969L1486.29 212.716Z" fill="#038D7F"/>
<path d="M1602.8 272.439L1580.43 332.289L1587.42 334.917L1609.79 275.067L1602.8 272.439Z" fill="#038D7F"/>
<path d="M1619.95 304.023L1607.68 316.329L1612.94 321.611L1630.51 304.023L1612.94 286.409L1607.68 291.69L1619.95 304.023Z" fill="#038D7F"/>
<path d="M1583.11 316.329L1570.81 303.997L1583.11 291.69L1577.82 286.409L1560.28 303.997L1577.82 321.611L1583.11 316.329Z" fill="#038D7F"/>
<path d="M1623.68 350.326L1650.53 303.715L1623.68 257.104H1569.99L1543.15 303.715L1569.99 350.326H1623.68ZM1574.83 265.462H1618.85L1640.89 303.715L1618.85 341.968H1574.83L1552.81 303.715L1574.83 265.462Z" fill="#038D7F"/>
<path d="M1335.34 323.276L1312.96 383.125L1319.95 385.753L1342.33 325.903L1335.34 323.276Z" fill="#038D7F"/>
<path d="M1352.48 354.859L1340.21 367.165L1345.48 372.447L1363.04 354.859L1345.48 337.245L1340.21 342.527L1352.48 354.859Z" fill="#038D7F"/>
<path d="M1315.64 367.165L1303.34 354.833L1315.64 342.527L1310.35 337.245L1292.81 354.833L1310.35 372.447L1315.64 367.165Z" fill="#038D7F"/>
<path d="M1356.21 401.162L1383.06 354.552L1356.21 307.94H1302.53L1275.68 354.552L1302.53 401.162H1356.21ZM1307.36 316.299H1351.38L1373.42 354.552L1351.38 392.804H1307.36L1285.35 354.552L1307.36 316.299Z" fill="#038D7F"/>
<path d="M1514.26 323.275L1491.89 383.125L1498.88 385.753L1521.25 325.903L1514.26 323.275Z" fill="#038D7F"/>
<path d="M1531.41 354.859L1519.14 367.165L1524.41 372.447L1541.97 354.859L1524.41 337.245L1519.14 342.527L1531.41 354.859Z" fill="#038D7F"/>
<path d="M1494.57 367.165L1482.27 354.833L1494.57 342.527L1489.28 337.245L1471.74 354.833L1489.28 372.447L1494.57 367.165Z" fill="#038D7F"/>
<path d="M1535.14 401.162L1561.99 354.551L1535.14 307.94H1481.45L1454.61 354.551L1481.45 401.162H1535.14ZM1486.29 316.299H1530.31L1552.35 354.551L1530.31 392.804H1486.29L1464.27 354.551L1486.29 316.299Z" fill="#038D7F"/>
<path d="M1424.6 168.551L1402.23 228.4L1409.22 231.028L1431.59 171.179L1424.6 168.551Z" fill="#038D7F"/>
<path d="M1441.75 200.134L1429.48 212.441L1434.74 217.723L1452.31 200.134L1434.74 182.521L1429.48 187.802L1441.75 200.134Z" fill="#038D7F"/>
<path d="M1404.91 212.441L1392.61 200.109L1404.91 187.802L1399.61 182.521L1382.08 200.109L1399.61 217.723L1404.91 212.441Z" fill="#038D7F"/>
<path d="M1445.48 246.438L1472.32 199.827L1445.48 153.216H1391.79L1364.95 199.827L1391.79 246.438H1445.48ZM1396.62 161.574H1440.65L1462.69 199.827L1440.65 238.079H1396.62L1374.61 199.827L1396.62 161.574Z" fill="#038D7F"/>
<path d="M1244.91 272.217L1222.54 332.067L1229.53 334.695L1251.9 274.845L1244.91 272.217Z" fill="#038D7F"/>
<path d="M1262.06 303.8L1249.79 316.107L1255.05 321.389L1272.62 303.8L1255.05 286.187L1249.79 291.468L1262.06 303.8Z" fill="#038D7F"/>
<path d="M1225.22 316.107L1212.92 303.775L1225.22 291.468L1219.93 286.187L1202.39 303.775L1219.93 321.389L1225.22 316.107Z" fill="#038D7F"/>
<path d="M1265.79 350.104L1292.63 303.493L1265.79 256.882H1212.1L1185.26 303.493L1212.1 350.104H1265.79ZM1216.93 265.24H1260.96L1283 303.493L1260.96 341.746H1216.93L1194.92 303.493L1216.93 265.24Z" fill="#038D7F"/>
<path d="M1155.07 220.177L1132.7 280.027L1139.69 282.655L1162.06 222.805L1155.07 220.177Z" fill="#038D7F"/>
<path d="M1172.21 251.761L1159.94 264.067L1165.21 269.349L1182.77 251.761L1165.21 234.147L1159.94 239.429L1172.21 251.761Z" fill="#038D7F"/>
<path d="M1135.37 264.067L1123.08 251.735L1135.37 239.429L1130.08 234.147L1112.54 251.735L1130.08 269.349L1135.37 264.067Z" fill="#038D7F"/>
<path d="M1175.95 298.064L1202.79 251.453L1175.95 204.842H1122.26L1095.41 251.453L1122.26 298.064H1175.95ZM1127.09 213.2H1171.12L1193.15 251.453L1171.12 289.706H1127.09L1105.08 251.453L1127.09 213.2Z" fill="#038D7F"/>
<path d="M1064.18 169.278L1041.81 229.128L1048.8 231.756L1071.17 171.906L1064.18 169.278Z" fill="#038D7F"/>
<path d="M1081.32 200.862L1069.05 213.168L1074.32 218.45L1091.88 200.862L1074.32 183.248L1069.05 188.529L1081.32 200.862Z" fill="#038D7F"/>
<path d="M1044.48 213.168L1032.18 200.836L1044.48 188.529L1039.19 183.248L1021.65 200.836L1039.19 218.45L1044.48 213.168Z" fill="#038D7F"/>
<path d="M1085.05 247.165L1111.9 200.554L1085.05 153.943H1031.37L1004.52 200.554L1031.37 247.165H1085.05ZM1036.2 162.301H1080.22L1102.26 200.554L1080.22 238.807H1036.2L1014.19 200.554L1036.2 162.301Z" fill="#038D7F"/>
<path d="M1155.07 118.379L1132.7 178.228L1139.69 180.856L1162.06 121.007L1155.07 118.379Z" fill="#038D7F"/>
<path d="M1172.21 149.962L1159.94 162.269L1165.21 167.55L1182.77 149.962L1165.21 132.349L1159.94 137.63L1172.21 149.962Z" fill="#038D7F"/>
<path d="M1135.37 162.269L1123.08 149.937L1135.37 137.63L1130.08 132.349L1112.54 149.937L1130.08 167.55L1135.37 162.269Z" fill="#038D7F"/>
<path d="M1175.95 196.266L1202.79 149.655L1175.95 103.044H1122.26L1095.41 149.655L1122.26 196.266H1175.95ZM1127.09 111.402H1171.12L1193.15 149.655L1171.12 187.907H1127.09L1105.08 149.655L1127.09 111.402Z" fill="#038D7F"/>
<path d="M1244.91 169.278L1222.54 229.128L1229.53 231.756L1251.9 171.906L1244.91 169.278Z" fill="#038D7F"/>
<path d="M1262.06 200.862L1249.79 213.168L1255.05 218.45L1272.62 200.862L1255.05 183.248L1249.79 188.529L1262.06 200.862Z" fill="#038D7F"/>
<path d="M1225.22 213.168L1212.92 200.836L1225.22 188.529L1219.93 183.248L1202.39 200.836L1219.93 218.45L1225.22 213.168Z" fill="#038D7F"/>
<path d="M1265.79 247.165L1292.63 200.554L1265.79 153.943H1212.1L1185.26 200.554L1212.1 247.165H1265.79ZM1216.93 162.301H1260.96L1283 200.554L1260.96 238.807H1216.93L1194.92 200.554L1216.93 162.301Z" fill="#038D7F"/>
<path d="M1155.07 323.359L1132.7 383.208L1139.69 385.836L1162.06 325.987L1155.07 323.359Z" fill="#038D7F"/>
<path d="M1172.22 354.942L1159.94 367.249L1165.21 372.531L1182.77 354.942L1165.21 337.329L1159.94 342.61L1172.22 354.942Z" fill="#038D7F"/>
<path d="M1135.37 367.249L1123.08 354.917L1135.37 342.61L1130.08 337.329L1112.54 354.917L1130.08 372.531L1135.37 367.249Z" fill="#038D7F"/>
<path d="M1175.95 401.246L1202.79 354.635L1175.95 308.024H1122.26L1095.41 354.635L1122.26 401.246H1175.95ZM1127.09 316.382H1171.12L1193.15 354.635L1171.12 392.888H1127.09L1105.08 354.635L1127.09 316.382Z" fill="#038D7F"/>
</g>
</g>
<defs>
<clipPath id="clip0_4187_1010">
<rect width="2300" height="451" fill="white"/>
</clipPath>
</defs>
</svg>
