<svg width="213" height="186" viewBox="0 0 213 186" fill="none" xmlns="http://www.w3.org/2000/svg">
<path d="M156.967 182.972H158.157L158.751 181.941L209.406 93.9841L209.998 92.957L209.406 91.9298L158.751 3.97283L158.157 2.94181H156.967H55.6557H54.4659L53.8721 3.97283L3.21645 91.9298L2.62488 92.957L3.21645 93.9841L53.8721 181.941L54.4659 182.972H55.6557H156.967Z" fill="#00AF9D" stroke="#1D2332" stroke-width="4.11638"/>
<g clip-path="url(#clip0_3979_1033)">
<path d="M119.261 96.9395C118.855 96.9395 118.424 96.7961 118.089 96.5095C116.702 95.2673 115.578 93.4517 114.741 91.0868C111.058 92.4245 106.945 92.4245 103.262 91.0868C102.425 93.4756 101.301 95.2911 99.9137 96.5095C99.1963 97.1544 98.0962 97.0828 97.4504 96.3661C96.8047 95.6495 96.8765 94.5506 97.5939 93.9056C98.8136 92.8306 99.7702 90.9434 100.464 88.2679C100.583 87.7663 100.942 87.3363 101.444 87.1213C101.923 86.9063 102.473 86.9063 102.951 87.1452C106.777 89.0562 111.25 89.0562 115.076 87.1452C115.554 86.9063 116.104 86.9063 116.583 87.1213C117.061 87.3363 117.42 87.7663 117.563 88.2679C118.257 90.9195 119.214 92.8306 120.433 93.9056C121.151 94.5506 121.222 95.6495 120.577 96.3661C120.218 96.7245 119.74 96.9395 119.261 96.9395Z" fill="white"/>
<path d="M126.265 74.9381C125.308 74.9381 124.376 74.6992 123.491 74.2214C122.941 73.9109 122.582 73.3375 122.582 72.6925V62.2055C122.582 61.5605 122.941 60.9872 123.491 60.6766C124.376 60.1988 125.308 59.96 126.241 59.96C129.804 59.96 132.698 63.3282 132.698 67.461C132.722 71.5698 129.828 74.9381 126.265 74.9381ZM126.098 71.4503C127.748 71.5698 129.231 69.7065 129.231 67.4371C129.231 65.1915 127.748 63.3044 126.098 63.4238V71.4503Z" fill="white"/>
<path d="M91.758 74.9385C88.1946 74.9385 85.3008 71.5702 85.3008 67.4375C85.3008 63.3048 88.1946 59.9365 91.758 59.9365C92.7146 59.9365 93.6473 60.1754 94.5082 60.6532C95.0583 60.9637 95.417 61.5371 95.417 62.182V72.6691C95.417 73.3141 95.0583 73.8874 94.5082 74.198C93.6234 74.6996 92.7146 74.9385 91.758 74.9385ZM91.758 63.4242C90.1556 63.4242 88.7924 65.2637 88.7924 67.4375C88.7924 69.683 90.2513 71.5463 91.9254 71.4508V63.4481C91.8536 63.4242 91.8058 63.4242 91.758 63.4242Z" fill="white"/>
<path d="M109.002 92.0664C99.5792 92.0664 91.9023 84.3982 91.9023 74.9861V58.6224C91.9023 58.073 92.1654 57.5713 92.5959 57.2369C93.0264 56.9025 93.6003 56.8069 94.1265 56.9502C94.1982 56.9741 100.679 58.7419 104.817 60.0319C111.68 62.1579 121.821 58.5269 123.184 57.3325C123.71 56.8786 124.427 56.7591 125.073 57.0458C125.695 57.3325 126.101 57.9536 126.101 58.6463V75.0338C126.101 84.3981 118.425 92.0664 109.002 92.0664ZM95.4179 60.9157V74.9861C95.4179 82.4632 101.516 88.5548 109.002 88.5548C116.487 88.5548 122.586 82.4632 122.586 74.9861V61.5129C118.185 63.3763 110.174 65.3112 103.764 63.3285C101.205 62.5402 97.666 61.5368 95.4179 60.9157Z" fill="white"/>
<path d="M130.952 69.1812C129.995 69.1812 129.206 68.3928 129.206 67.4373C129.206 64.7857 127.125 62.6596 125.164 63.7107C124.614 63.9973 123.969 63.9973 123.443 63.6868C122.916 63.3762 122.582 62.8029 122.582 62.1818V61.5129C118.181 63.3762 110.169 65.3112 103.76 63.3285C101.177 62.5163 97.6616 61.5368 95.3897 60.8918V62.1579C95.3897 62.779 95.0549 63.3524 94.5287 63.6629C94.0026 63.9735 93.3329 63.9973 92.8068 63.6868C90.8457 62.6118 88.7651 64.7379 88.7651 67.4134C88.7651 68.3689 87.9759 69.1573 87.0193 69.1573C86.0626 69.1573 85.2734 68.3689 85.2734 67.4134V50.0226C85.2734 49.8076 85.3213 49.5926 85.393 49.4015C86.0866 45.9615 90.2239 43.4293 95.2223 43.4293C95.6049 43.4293 96.0115 43.4532 96.3941 43.4771C97.279 39.225 100.938 36 105.315 36C109.069 36 112.25 38.3172 113.637 41.6855C114.929 40.8733 116.435 40.4194 118.038 40.4194C120.764 40.4194 123.251 41.7332 124.734 43.8832C125.284 43.7399 125.858 43.6682 126.456 43.6682C129.924 43.6682 132.746 46.2721 132.746 49.4492V67.4373C132.722 68.4167 131.933 69.1812 130.952 69.1812ZM126.265 59.9363C127.341 59.9363 128.345 60.2468 129.23 60.7724V49.4492C129.23 48.1831 127.986 47.1559 126.456 47.1559C125.882 47.1559 125.332 47.2993 124.854 47.5859C124.423 47.8487 123.897 47.8965 123.395 47.7293C122.916 47.562 122.534 47.2037 122.342 46.7259C121.649 45.006 119.975 43.9071 118.062 43.9071C116.435 43.9071 114.976 44.7193 114.139 46.0571C113.733 46.7021 112.944 47.0126 112.202 46.8215C111.461 46.6304 110.935 45.9615 110.911 45.1971C110.815 41.996 108.376 39.4877 105.362 39.4877C102.301 39.4877 99.814 42.0916 99.7901 45.3165C99.7901 45.3882 99.7901 45.436 99.7901 45.4837C99.7901 46.0093 99.551 46.5109 99.1205 46.8454C98.7139 47.1798 98.1639 47.2993 97.6377 47.1798C96.8724 47.0126 96.0832 46.9171 95.2701 46.9171C91.6828 46.9171 89.0521 48.637 88.8368 50.2137C88.8368 50.2614 88.8368 50.2853 88.8129 50.3331V60.7246C89.7456 60.1513 90.8218 59.8646 91.9459 59.8885V58.5747C91.9459 58.0252 92.2089 57.5236 92.6394 57.1891C93.0699 56.8547 93.6438 56.7591 94.17 56.9025C94.2417 56.9263 100.723 58.6941 104.86 59.9841C111.724 62.1102 121.864 58.4791 123.227 57.2847C123.753 56.8308 124.471 56.7113 125.117 56.998C125.738 57.2847 126.145 57.9058 126.145 58.5985V59.9124C126.145 59.9363 126.193 59.9363 126.265 59.9363Z" fill="white"/>
<path d="M133.897 137.932H85.6833C84.7745 137.932 84.0331 137.239 83.9374 136.355L81.0198 105.372C80.9719 104.87 81.1393 104.393 81.4742 104.034C81.809 103.676 82.2873 103.461 82.7656 103.461H136.791C137.293 103.461 137.747 103.676 138.082 104.034C138.417 104.393 138.584 104.894 138.536 105.372L135.619 136.355C135.571 137.263 134.806 137.932 133.897 137.932ZM87.2856 134.444H132.318L134.877 106.973H84.7027L87.2856 134.444Z" fill="white"/>
<path d="M135.761 144H83.8165C81.9033 144 80.2053 142.734 79.6552 140.895L79.3922 139.987C79.0095 138.673 79.2487 137.288 80.0857 136.165C80.9227 135.066 82.1663 134.421 83.5534 134.421H136.024C137.411 134.421 138.679 135.042 139.492 136.165C140.329 137.264 140.568 138.649 140.185 139.987L139.922 140.895C139.372 142.71 137.65 144 135.761 144ZM83.5534 137.933C83.1947 137.933 82.9795 138.148 82.8838 138.267C82.7881 138.386 82.6447 138.649 82.7642 138.984L83.0273 139.891C83.123 140.25 83.4578 140.489 83.8165 140.489H135.737C136.096 140.489 136.431 140.25 136.526 139.891L136.789 138.984C136.885 138.625 136.741 138.386 136.67 138.243C136.574 138.124 136.359 137.909 136 137.909H83.5534V137.933Z" fill="white"/>
<path d="M150.254 144H67.7458C66.7892 144 66 143.211 66 142.256V119.18C66 104.99 77.5512 93.4517 91.757 93.4517H98.7642C99.4577 93.4517 100.103 93.8578 100.367 94.5028C100.654 95.1477 100.51 95.8883 100.032 96.3899C99.386 97.0827 99.0751 97.7755 99.0751 98.4921C99.0751 100.762 102.519 102.959 106.895 103.485C107.852 103.604 108.546 104.464 108.426 105.42C108.306 106.375 107.422 107.068 106.489 106.949C100.08 106.184 95.5834 102.697 95.5834 98.4921C95.5834 97.9666 95.6552 97.441 95.7987 96.9394H91.7809C79.5122 96.9394 69.5395 106.901 69.5395 119.156V140.488H148.508V119.156C148.508 106.901 138.536 96.9394 126.243 96.9394H122.225C122.369 97.441 122.44 97.9666 122.44 98.4921C122.44 102.72 117.944 106.208 111.535 106.949C110.578 107.068 109.694 106.375 109.598 105.42C109.478 104.464 110.172 103.58 111.128 103.485C115.505 102.959 118.949 100.762 118.949 98.4921C118.949 97.7755 118.614 97.0827 117.992 96.3899C117.514 95.8883 117.394 95.1477 117.657 94.5028C117.944 93.8578 118.566 93.4517 119.26 93.4517H126.267C140.473 93.4517 152.024 104.99 152.024 119.18V142.256C152 143.211 151.211 144 150.254 144Z" fill="white"/>
</g>
<defs>
<clipPath id="clip0_3979_1033">
<rect width="86" height="108" fill="white" transform="translate(66 36)"/>
</clipPath>
</defs>
</svg>
