<svg width="180" height="58" viewBox="0 0 180 58" fill="none" xmlns="http://www.w3.org/2000/svg">
<g clip-path="url(#clip0_3955_1068)">
<path d="M64.0541 27.1307L64.8965 24.4313L62.1091 24.5195C61.8739 24.5195 60.1616 24.4712 58.5021 23.2665C58.6257 23.2785 58.7493 23.2955 58.8765 23.2955C60.5852 23.2955 62.2387 22.266 62.901 20.793L64.0997 18.1335C62.5974 18.1528 61.2223 17.9631 61.2223 17.9631C61.2103 17.9607 60.128 17.8217 58.8753 16.5421C57.9765 15.6237 56.8654 15.138 55.6607 15.138C55.1339 15.138 54.6636 15.2323 54.258 15.3615C54.3216 15.1453 54.3816 14.9265 54.4164 14.7006C54.8003 12.2102 53.1973 10.3107 53.1973 10.3131L51.1022 7.71642L49.8039 10.7675C49.7991 10.7771 49.4715 11.4913 48.8835 11.8417C48.706 10.9451 48.2716 9.93733 47.3416 8.97308C45.5886 7.15575 43.4551 6.88629 42.338 6.88629C41.8208 6.88629 41.4524 6.94187 41.3624 6.95638L38.833 7.45421C38.9782 6.88871 39.289 5.90392 39.8577 5.01821L41.2533 2.842L37.7399 3.24317L36.6204 0.865167L34.4545 1.98287L32.453 0L30.4552 1.98046L28.2821 0.86275L27.165 3.24075L23.6552 2.83958L25.0531 5.01579C25.6219 5.90271 25.9315 6.88388 26.0755 7.44938L23.6624 6.97329L23.5796 6.95879C23.4584 6.93946 23.0913 6.88388 22.5717 6.88388C21.4546 6.88388 19.3211 7.15575 17.5728 8.97067C16.6405 9.9325 16.2061 10.9427 16.0261 11.8393C15.443 11.4949 15.1178 10.7892 15.1178 10.7892L13.8171 7.72125L11.6884 10.3349C11.428 10.672 10.1441 12.4579 10.4945 14.703C10.5305 14.9265 10.5893 15.1453 10.6529 15.3615C10.2497 15.2323 9.77935 15.138 9.25258 15.138C8.04786 15.138 6.93674 15.6237 6.0356 16.5421C4.78768 17.8181 3.71015 17.9607 3.71975 17.9607C3.71975 17.9607 2.58103 18.1649 0.818345 18.1335L2.00987 20.793C2.67222 22.2672 4.32811 23.2955 6.0344 23.2955C6.16279 23.2955 6.28638 23.2785 6.41357 23.2665C4.75768 24.4712 3.0466 24.5195 2.84021 24.5219L0 24.4301L0.859143 27.1271C1.29111 28.5167 2.73582 30.8197 5.50283 31.0675C5.20165 32.3302 4.5345 33.7451 3.0682 34.3541L0.953936 35.2265L2.10706 37.236C2.75742 38.3199 4.28491 39.5874 6.46037 39.5874C6.93194 39.585 7.38551 39.5391 7.82228 39.446C7.93387 39.9415 8.07426 40.4369 8.23985 40.9275C8.88781 42.856 8.32984 44.202 8.32265 44.2165L7.27871 46.4048L9.60896 47.0199C9.63776 47.0295 10.3421 47.2217 11.2229 47.2217C11.6236 47.2217 12.004 47.1806 12.364 47.0948C12.6352 47.032 12.8955 46.9462 13.1451 46.8447C13.4463 47.386 13.8123 47.8802 14.2395 48.3213C15.7322 49.8546 17.8464 50.6316 20.527 50.6316H20.5366L22.4493 50.6074L18.4968 52.2495L21.4978 53.6995C22.5873 54.2312 23.882 54.8608 25.1971 55.3417L24.8227 56.3675L25.8571 56.8388C25.9495 56.8799 27.9377 57.7716 31.2435 57.9613C31.2435 57.9613 32.0427 57.9976 32.4818 57.9976C32.921 57.9976 33.7106 57.9589 33.7106 57.9589C36.9959 57.7644 38.9686 56.8823 39.061 56.8388L40.0977 56.3651L39.7186 55.3368C41.0733 54.8414 42.4136 54.1877 43.4575 53.6778L46.4021 52.2471L42.4616 50.6026L44.3814 50.6268C47.0645 50.6268 49.1811 49.8498 50.6714 48.314C51.0962 47.8742 51.4634 47.3812 51.767 46.8398C52.0165 46.9413 52.2793 47.0271 52.5505 47.09C52.9069 47.1745 53.2884 47.2156 53.6892 47.2156C54.5556 47.2156 55.2671 47.0235 55.2863 47.0187L57.6262 46.3988L56.6062 44.2516C56.5822 44.196 56.0231 42.8523 56.6722 40.9214C56.8378 40.4284 56.9758 39.933 57.0874 39.44C57.5266 39.5318 57.9861 39.5814 58.4589 39.5814C61.2283 39.5814 62.5566 37.6311 62.8146 37.2082L63.9557 35.2205L61.8415 34.3505C60.3728 33.7403 59.708 32.3241 59.4092 31.0638C62.1379 30.8306 63.6042 28.5275 64.0505 27.1283L64.0541 27.1307ZM26.2603 8.381L26.2315 8.38825L26.2554 8.35683L26.2603 8.381Z" fill="white"/>
<path d="M32.4554 8.2627C30.2175 8.26511 28.54 8.99857 28.1729 9.86132L32.4554 11.5518L36.7379 9.86132C36.3731 8.99857 34.6968 8.26511 32.4554 8.2627Z" fill="white"/>
<path d="M32.4543 5.45932C34.1413 5.45932 35.7972 5.86291 37.0691 6.5722C37.1855 6.1807 37.3487 5.70703 37.5695 5.21162L37.0883 5.26962L36.5832 5.32278L36.3696 4.86362L35.7264 3.50303L34.5541 4.11566L34.0981 4.34887L33.7334 3.98878L32.4591 2.72607L31.1871 3.98878L30.8224 4.34887L30.3664 4.11566L29.1869 3.50303L28.5509 4.86362L28.3325 5.32278L27.8274 5.26962L27.3462 5.21162C27.567 5.70945 27.7278 6.1807 27.8466 6.5722C29.1209 5.86291 30.772 5.45932 32.4543 5.45932Z" fill="white"/>
<path d="M58.2153 21.1808C58.4337 21.2557 58.6569 21.2908 58.8777 21.2908C59.8316 21.2908 60.7544 20.6733 61.0724 19.9665C61.0724 19.9665 59.3217 19.8589 57.4402 17.9473C56.8402 17.3275 56.2067 17.1426 55.6631 17.1426C54.8184 17.1426 54.1848 17.5897 54.1848 17.5897C56.4575 18.7992 56.9206 20.7434 58.2141 21.1796L58.2153 21.1808Z" fill="white"/>
<path d="M6.03332 21.291C6.2541 21.291 6.47729 21.2572 6.69087 21.1811C7.98919 20.7437 8.45596 18.8007 10.7286 17.5911C10.7286 17.5911 10.0926 17.144 9.2527 17.144C8.70674 17.144 8.07318 17.3289 7.47082 17.9488C5.59175 19.8604 3.84106 19.9679 3.84106 19.9679C4.15424 20.6748 5.07938 21.2923 6.03332 21.2923V21.291Z" fill="white"/>
<path d="M58.8322 29.0788C58.8706 29.0812 58.9054 29.0812 58.9462 29.0812C61.328 29.0812 62.1355 26.528 62.1355 26.528H62.09C61.6532 26.528 58.111 26.4253 55.608 23.2413C53.9593 21.1473 52.6094 19.3058 49.942 18.582L49.6804 18.5361L49.6216 18.269C49.5484 17.8606 49.828 17.4788 50.4615 17.0667C54.1417 14.6549 51.6434 11.5785 51.6434 11.5785C51.6434 11.5785 50.5923 14.0398 48.2405 14.0398C48.1841 14.0398 48.1241 14.0374 48.0653 14.0374C47.7977 14.0229 47.5409 14.0133 47.2805 13.9577L46.8462 13.8731C46.8462 13.8731 47.5169 12.0485 45.8994 10.3726C44.6803 9.10743 43.1972 8.89355 42.3405 8.89355C41.9085 8.89355 41.6337 8.94914 41.6337 8.94914C42.4473 10.0137 43.034 11.7766 42.0957 12.8653C41.2845 13.8006 39.3035 13.8465 39.3035 15.2409C39.3035 15.8318 39.8542 16.5218 40.8454 17.1404C43.8236 19.0182 46.7814 21.5086 48.0089 24.846C49.546 29.0099 47.8145 31.7721 45.3439 33.3563C45.3439 33.3563 46.1178 34.0704 47.2421 34.1598C47.4701 34.1816 47.6933 34.1912 47.9021 34.1912C50.2743 34.1912 51.4995 33.0783 51.4995 33.0783C51.4995 33.0783 51.2979 34.6166 50.0619 36.0448C48.9232 37.3643 47.4281 38.1388 45.1483 38.1727C45.1483 38.1727 45.0751 39.2324 46.0854 40.1471C46.731 40.7259 48.2237 40.9144 48.2237 40.9144C48.2237 40.9144 45.4291 41.4799 45.1207 45.61C44.9527 47.8478 44.3827 48.6248 44.3827 48.6248H44.4343C50.9187 48.6248 50.7507 43.0592 50.7507 43.0592C50.7507 43.0592 51.2019 44.7061 53.0114 45.1363C53.2297 45.1943 53.4625 45.2161 53.6857 45.2161C54.2689 45.2161 54.7728 45.0795 54.7728 45.0795C54.7728 45.0795 53.8261 43.0797 54.7656 40.2836C55.5444 37.9636 55.4184 36.2442 55.4184 36.2442C55.4184 36.2442 56.2919 37.5661 58.4578 37.5782H58.4794C60.2829 37.5782 61.07 36.2103 61.07 36.2103C56.7467 34.4148 57.1739 28.6184 57.1739 28.6184C57.1739 28.6184 57.7342 29.0365 58.8298 29.0776L58.8322 29.0788ZM57.5303 35.1325C55.7724 34.2649 54.6612 31.9618 54.3913 31.1317C54.0997 35.6992 51.8714 38.8687 49.2664 41.9197C47.9141 43.5014 47.4437 45.0396 47.4437 45.0396C47.4437 45.0396 47.7029 43.2972 48.8728 41.8786C51.3027 38.9557 53.6113 35.3198 53.7841 31.1148C53.9029 28.1798 53.1481 25.7993 51.971 23.8394C52.6286 25.8827 52.5362 28.3852 50.3007 30.7197C50.3007 30.7197 54.75 25.3825 48.5285 19.9111C46.0374 17.8292 43.3136 16.5435 41.9109 15.6336C46.9794 17.2878 49.4536 15.4657 49.4536 15.4657C47.8337 16.8698 45.7398 16.8456 44.4403 16.6438C44.7919 16.8166 45.1591 16.9954 45.5551 17.2069C49.828 19.5293 53.6677 23.3501 54.3241 28.6438V28.6027C55.3188 33.7985 57.5315 35.1325 57.5315 35.1325H57.5303Z" fill="white"/>
<path d="M16.6848 40.9144C16.6848 40.9144 18.1775 40.7271 18.8243 40.1471C19.831 39.2312 19.7614 38.1727 19.7614 38.1727C17.4792 38.1413 15.9865 37.3631 14.8405 36.0472C13.6142 34.619 13.4102 33.0808 13.4102 33.0808C13.4102 33.0808 14.6366 34.1936 17.0052 34.1936C17.2188 34.1936 17.4396 34.184 17.6676 34.1622C18.7919 34.0728 19.5682 33.3587 19.5682 33.3587C17.0964 31.7746 15.3637 29.0099 16.8972 24.846C18.1283 21.511 21.0825 19.0182 24.0619 17.1404C25.0519 16.5206 25.6038 15.833 25.6038 15.2409C25.6038 13.8465 23.6252 13.8006 22.814 12.8653C21.8745 11.7766 22.4648 10.0113 23.276 8.94914C23.276 8.94914 23.006 8.89355 22.5716 8.89355C21.7173 8.89355 20.2342 9.10743 19.0151 10.3726C17.394 12.0485 18.0659 13.8731 18.0659 13.8731L17.6316 13.9577C17.3724 14.0133 17.112 14.0229 16.8468 14.0374C16.7856 14.0374 16.7328 14.0398 16.674 14.0398C14.3174 14.0398 13.271 11.5809 13.271 11.5809C13.271 11.5809 10.7728 14.6561 14.4506 17.0691C15.0841 17.4824 15.3613 17.8642 15.2881 18.2714L15.2293 18.5385L14.9629 18.5844C12.3003 19.3082 10.948 21.1497 9.29931 23.2437C6.80108 26.4241 3.26372 26.528 2.82215 26.528H2.77295C2.77295 26.528 3.5817 29.0812 5.96354 29.0812C6.00193 29.0812 6.03673 29.0812 6.07753 29.0788C7.17186 29.0401 7.73582 28.6196 7.73582 28.6196C7.73582 28.6196 8.15819 34.4136 3.83968 36.2116C3.83968 36.2116 4.62683 37.5794 6.43031 37.5794H6.4519C8.62016 37.5673 9.4913 36.2454 9.4913 36.2454C9.4913 36.2454 9.36531 37.9648 10.1417 40.2848C11.0812 43.0809 10.1393 45.0807 10.1393 45.0807C10.1393 45.0807 10.6444 45.2173 11.224 45.2173C11.4496 45.2173 11.68 45.1955 11.8959 45.1375C13.7018 44.7073 14.1566 43.0604 14.1566 43.0604C14.1566 43.0604 13.991 48.626 20.4754 48.626H20.521C20.521 48.626 19.9534 47.849 19.7878 45.6112C19.477 41.4811 16.6824 40.9156 16.6824 40.9156L16.6848 40.9144ZM15.6433 41.9197C13.0383 38.8687 10.8124 35.698 10.5184 31.1317C10.2485 31.9606 9.14212 34.2649 7.38424 35.1325C7.38424 35.1325 9.5933 33.7985 10.5868 28.6027V28.6438C11.2444 23.3525 15.0829 19.5293 19.3582 17.2069C19.7494 16.993 20.1202 16.813 20.4706 16.6438C19.1723 16.8456 17.0772 16.8698 15.4573 15.4657C15.4573 15.4657 17.9315 17.2878 22.9976 15.6336C21.5949 16.5447 18.8735 17.8304 16.3824 19.9111C10.1585 25.3813 14.6102 30.7197 14.6102 30.7197C12.3723 28.3828 12.2823 25.8827 12.9399 23.8394C11.7603 25.8018 11.008 28.181 11.1292 31.1148C11.2996 35.3198 13.6082 38.9569 16.0333 41.8786C17.2056 43.2948 17.4708 45.0396 17.4708 45.0396C17.4708 45.0396 16.9944 43.5014 15.6457 41.9197H15.6433Z" fill="white"/>
<path d="M27.6618 20.567C27.7686 20.6818 27.873 20.805 27.9726 20.9295C27.9966 20.9585 28.0182 20.9851 28.0422 21.0189C28.1346 21.1422 28.2294 21.2739 28.3194 21.4068C28.3386 21.4334 28.3578 21.4648 28.3806 21.4974C28.4898 21.663 28.5918 21.8321 28.6938 22.0073C29.6285 23.6229 31.126 24.5871 32.4543 24.5895C33.785 24.5871 35.2777 23.6229 36.2173 22.0073C36.3217 21.8273 36.4261 21.6533 36.5353 21.4902C36.5521 21.466 36.57 21.4442 36.5832 21.4201C36.6756 21.2823 36.7728 21.1458 36.8748 21.0141C36.8964 20.9851 36.9156 20.9609 36.936 20.9367C37.0404 20.8075 37.1472 20.6818 37.2564 20.5646C37.2756 20.5452 37.29 20.5283 37.3068 20.5138C37.782 20.0257 38.3507 19.6535 39.0935 19.4469L38.7635 19.2547H38.7443L37.428 18.4899L36.0757 17.7153L32.4639 19.6825L32.4543 19.6752L32.4471 19.6825L28.8318 17.7153L27.4819 18.4875L26.1631 19.2523H26.1487L25.814 19.4445C26.5591 19.6511 27.1243 20.0172 27.603 20.5066C27.6246 20.5259 27.639 20.5477 27.6618 20.567ZM30.9928 20.4087H34.049V21.4575C33.6902 21.0177 32.9907 21.1071 32.9907 21.1071V22.6212C32.9907 22.6212 33.0171 23.3643 33.2775 23.6881H31.7656C32.0308 23.3679 32.0548 22.6212 32.0548 22.6212V21.1071C32.0548 21.1071 31.3576 21.0177 30.994 21.4575V20.4087H30.9928Z" fill="white"/>
<path d="M32.1423 18.3727V12.2296L28.2341 10.9028L29.2661 16.8575L32.1423 18.3727ZM31.3023 13.7376V14.7236L31.1127 14.6366C31.1031 14.6293 30.826 14.5665 30.3412 14.1822C29.5396 13.56 29.5252 12.9872 29.5252 12.9872L31.3023 13.7376Z" fill="white"/>
<path d="M35.6484 16.8575L36.6755 10.9028L32.7698 12.2296V18.3727L35.6484 16.8575ZM33.6097 13.7388L35.3868 12.9908C35.3868 12.9908 35.3724 13.5648 34.5685 14.1859C34.0849 14.5701 33.8065 14.633 33.7969 14.6402L33.6073 14.7272V13.7388H33.6097Z" fill="white"/>
<path d="M26.6141 32.6167C26.9957 32.7557 27.4564 32.7847 27.6916 32.7847C27.7012 32.7557 27.7132 32.7194 27.7252 32.6747C27.7468 32.6046 27.766 32.537 27.7816 32.4584C27.8476 32.1177 27.8716 31.7322 27.8764 31.4845C27.7156 31.3854 27.49 31.2078 27.3641 30.9432C27.2189 30.6375 27.0125 30.4961 26.7089 30.4961C26.3153 30.4961 25.893 30.7317 25.7142 30.8429C25.5714 31.6911 26.1953 32.4608 26.6153 32.6167H26.6141Z" fill="white"/>
<path d="M35.2596 29.3555C34.5337 30.1457 33.1142 31.5196 33.0434 31.5909L32.9582 31.6779L28.4693 31.6078C28.4669 32.0525 28.3937 32.4319 28.3241 32.7086C28.3121 32.7545 28.3001 32.8028 28.2881 32.8524L33.6289 33.8118C34.1845 33.4227 35.7144 32.3062 36.3071 31.8688C35.8752 31.2368 35.8332 30.4889 35.9304 29.9621C35.6484 29.7796 35.4324 29.5754 35.2608 29.3567L35.2596 29.3555Z" fill="white"/>
<path d="M35.8693 23.954C34.835 24.9811 33.8426 25.3605 32.9559 25.4475C32.7951 25.4644 32.6331 25.4741 32.4675 25.4741H32.4459C32.2803 25.4741 32.1159 25.4644 31.9551 25.4475C31.8004 25.433 31.6372 25.4088 31.4752 25.3726C31.4164 25.6034 31.3444 26.0867 31.5532 26.5434C31.7404 26.9591 32.1219 27.2672 32.6775 27.4714L32.8647 27.5439L32.8671 27.7457C32.8671 27.8061 32.9103 29.1136 34.3358 29.4749C34.5686 29.2344 34.7798 29.0181 34.9357 28.8381C34.6442 28.1529 34.7978 27.4533 35.2201 27.1101C35.2009 27.1826 35.0161 28.8985 36.39 29.5353L36.6156 29.6416L36.5472 29.8821C36.5256 29.9546 36.0661 31.6136 37.7292 32.2311L38.0231 32.3422L37.8924 32.6286C37.8636 32.6914 37.2108 34.1982 38.7467 35.0525H42.0801V32.4051C40.8958 32.2589 40.393 31.3067 40.2646 30.6312C39.7138 30.537 39.2867 30.2989 38.9951 29.9099C38.2955 28.9891 38.8979 28.1457 38.9051 28.0998C38.9027 28.107 38.9051 29.006 39.4582 29.5594C39.733 29.8265 40.0582 30.0331 40.5502 30.079L40.7926 30.1008L40.8142 30.3485C40.819 30.4016 40.9521 31.616 42.0813 31.8081L42.0789 26.4009C42.0789 25.5623 42.3237 24.7201 42.6176 23.9419H35.8693V23.9491V23.954Z" fill="white"/>
<path d="M26.8986 26.4309L26.8086 29.8758L27.1998 29.9338L28.1561 26.6302L27.6701 25.6152L26.8986 26.4321V26.4309Z" fill="white"/>
<path d="M37.4434 42.2288C37.4722 42.2288 37.507 42.2337 37.5382 42.2409C38.1334 42.4113 38.2834 44.5585 39.3273 44.7506C39.4293 44.7724 39.5241 44.7772 39.6069 44.7772C39.9081 44.7772 40.088 44.6479 40.2812 44.4196C40.2812 44.4196 39.7569 43.5931 39.3633 43.0372C38.8413 42.3086 38.4358 41.4265 37.465 41.4265C37.4434 41.4265 37.4146 41.4265 37.3894 41.4289C37.069 41.4458 36.8723 41.6017 36.8723 41.6017C36.4787 41.354 36.1127 41.2694 35.7791 41.2694C35.1696 41.2694 34.6968 41.5486 34.4604 41.5486H34.4508L32.2802 41.3347C31.9406 41.3033 31.673 40.9601 31.5758 40.8272C31.5518 40.7909 31.5398 40.7692 31.5398 40.7692C31.5398 40.7112 31.5398 40.6496 31.535 40.5964C31.4618 38.8201 30.0879 38.0601 29.6007 38.048C29.6007 38.048 29.6595 37.7097 29.5251 37.5816L29.0464 38.1616L27.4757 37.3726L28.5952 38.6824L27.6461 39.7493C27.5273 39.8714 27.5417 40.0357 27.5909 40.1046L28.0012 40.4671L28.5208 40.1517C28.5472 40.1324 28.594 40.1276 28.6516 40.1276C28.7944 40.1276 29.0104 40.1638 29.2048 40.1638C29.416 40.1638 29.6007 40.1179 29.6223 39.9185C29.5563 40.5771 28.948 41.7213 29.3476 42.6203L29.6439 43.2982L27.7265 43.0215L26.8277 44.5404C26.5505 45.0455 26.5073 45.5928 26.7749 45.8889L27.1097 46.3094C27.1097 46.3094 27.5801 45.8091 27.6869 45.4805L27.5345 45.3125C27.4061 45.1711 27.4133 45.0455 27.4913 44.892L28.054 43.9568L30.3195 44.4908L30.4383 44.2866C30.5907 44.0317 30.8127 43.9531 31.055 43.9531C31.1546 43.9531 31.2566 43.9652 31.3634 43.9821C31.7834 44.0643 32.4757 44.1767 33.1669 44.1767C33.9265 44.1767 34.6788 44.0401 35.0796 43.5906C35.9003 44.8074 37.5634 45.002 37.4326 45.6194L36.9958 47.7038C37.285 47.6917 37.5634 47.6724 37.8286 47.6361L38.2438 45.4672C38.2894 45.2316 38.3338 44.9138 38.3338 44.9138C38.173 44.7506 37.7854 44.4063 37.567 43.9882C37.273 43.4251 37.4338 43.1303 37.159 42.3968C37.1686 42.4016 37.2514 42.2313 37.4434 42.2313V42.2288ZM28.9708 39.1826C28.8592 39.1802 28.7788 39.086 28.7836 38.9736C28.7932 38.8673 28.8832 38.7815 28.9924 38.7911C29.104 38.796 29.1844 38.8926 29.1796 39.0002C29.17 39.1077 29.0776 39.1899 28.9708 39.1826Z" fill="white"/>
<path d="M25.88 44.2009C25.88 44.2009 26.6299 43.8928 26.6983 43.6716L26.5987 43.4215C26.5279 43.2584 26.5375 43.0808 26.6743 42.9841L27.4855 42.4234L28.8402 42.6832C28.8402 42.6832 28.5954 42.3775 28.6194 41.9667L27.3283 41.6924L26.1091 42.4355C25.5872 42.827 25.5488 43.465 25.7204 43.8444L25.8812 44.2009H25.88Z" fill="white"/>
<path d="M42.0861 35.646H22.8274V42.8948C22.8274 45.8588 24.9716 47.7148 28.1346 47.7148C30.7781 47.7148 31.4752 47.8163 32.4579 48.7939C33.1359 48.1184 33.6963 47.8659 34.847 47.7716L34.8734 47.6605L35.4805 45.7827C35.447 45.7416 34.4534 44.6118 34.4534 44.6118C34.0598 44.7435 33.7299 44.7653 33.1743 44.7653C32.6187 44.7653 31.96 44.7 31.264 44.5683C31.1932 44.5514 31.1284 44.5466 31.0624 44.5466C30.9772 44.5466 30.9701 44.5538 30.9485 44.5949L30.8273 44.7943L30.6065 45.1592L30.1913 45.065L28.3434 44.63L28.0914 45.048L28.1298 45.0915L28.3554 45.3392L28.2558 45.6619C28.1202 46.0848 27.6775 46.5778 27.5443 46.7143L27.0823 47.2097L26.6623 46.6781L26.3468 46.2817C26.0144 45.9096 25.9364 45.3392 26.1236 44.7411C26.1188 44.746 26.1116 44.7484 26.1044 44.7484L25.5824 44.9647L25.3472 44.4547L25.1816 44.0922C24.8973 43.4555 25.0016 42.525 25.7672 41.9644L27.2551 41.1234L28.6698 41.4025C28.7034 41.266 28.755 40.7802 28.7958 40.657C28.7694 40.6545 28.743 40.6473 28.7154 40.6473L27.8995 40.9506L27.1123 40.4068C27.1123 40.4068 26.8039 40.1108 27.0835 39.8135L27.8455 38.6596L25.916 36.2357L28.8822 37.4549L29.079 37.2096L29.4797 36.7311L29.9333 37.1637C30.0617 37.2881 30.1349 37.4404 30.1709 37.5938C30.9892 37.9116 32.4531 38.8517 32.5815 40.3802L32.1232 40.5651V40.5772C32.2276 40.7005 32.3152 40.7524 32.3416 40.7572L34.4582 40.9663C34.5122 40.9566 34.5794 40.9325 34.655 40.9107C34.9166 40.8201 35.3126 40.692 35.7817 40.692C36.1633 40.692 36.5317 40.779 36.8869 40.9445C37.0176 40.8962 37.1784 40.86 37.3632 40.8479L37.4652 40.8455C38.5991 40.8455 39.1619 41.6937 39.6143 42.3692C39.6899 42.4852 39.7643 42.5975 39.8423 42.7075C40.2382 43.2657 40.7554 44.085 40.777 44.1188L41.0098 44.4837L40.723 44.816C40.5022 45.071 40.1722 45.3695 39.6035 45.3695C39.4871 45.3695 39.3587 45.3574 39.2195 45.3308C39.0983 45.309 38.9891 45.2728 38.8823 45.2281C38.8655 45.3405 38.8439 45.4734 38.8211 45.5882L38.4492 47.5263C40.6702 46.9802 42.0813 45.3006 42.0813 42.9008L42.0837 35.6496L42.0861 35.646Z" fill="#FFDD2D"/>
<path d="M22.8272 35.0622H37.8034C37.0558 34.2901 37.0654 33.3114 37.2574 32.6746C37.0391 32.5707 36.8591 32.4438 36.6995 32.3072C36.1139 32.7398 34.3272 34.0424 33.8617 34.3674L33.7621 34.4351L27.8849 33.3706H27.7661C27.6257 33.3706 27.4193 33.3657 27.1937 33.3392C27.1301 33.6038 26.9021 33.7862 26.6405 33.7862C26.6117 33.7862 26.5769 33.7838 26.5457 33.7766C26.3934 33.75 26.259 33.6727 26.1702 33.5434C26.0778 33.4165 26.0418 33.2667 26.0682 33.1108L26.0898 32.9839C25.4826 32.5562 24.9247 31.6016 25.1718 30.5962L25.1958 30.4899L25.281 30.4295C25.293 30.4198 25.395 30.3522 25.5462 30.2639L25.119 30.1987C24.9583 30.1697 24.8515 30.0211 24.8767 29.864C24.9031 29.7033 25.0542 29.5897 25.2114 29.6211L26.229 29.7818L26.3214 26.1955L27.8357 24.592L28.78 26.5822L27.7817 30.0319L28.6804 30.1733C28.8376 30.1975 28.948 30.3461 28.9228 30.508C28.8988 30.6518 28.7776 30.7509 28.6336 30.7509C28.6192 30.7509 28.6024 30.7509 28.5868 30.7485L27.8561 30.6289C27.8657 30.6506 27.8801 30.6627 27.8897 30.6869C27.9677 30.8476 28.1392 30.9636 28.2412 31.0119L32.7229 31.082C32.9125 30.8971 33.3829 30.4355 33.8665 29.9474C32.7649 29.5293 32.3642 28.5771 32.2958 27.9452C31.679 27.6829 31.2542 27.289 31.0191 26.7767C30.7323 26.1423 30.8343 25.5092 30.9099 25.1998C30.3123 24.9811 29.6835 24.5824 29.0428 23.9468H22.2944C22.5836 24.7237 22.8284 25.5672 22.8284 26.4057V35.061L22.8272 35.0622Z" fill="#FFDD2D"/>
<path d="M28.9961 38.7913C28.8869 38.7816 28.7945 38.8662 28.7873 38.9737C28.7801 39.0849 28.8629 39.1804 28.9745 39.1828C29.0813 39.1924 29.1761 39.1103 29.1857 39.0003C29.1857 38.8928 29.1077 38.7937 28.9961 38.7913Z" fill="black"/>
<path d="M32.4554 6.16863C34.7137 6.16863 36.5196 6.91659 37.5167 7.7165C37.5167 7.7165 37.8131 5.93059 38.8246 4.35371L37.0067 4.56034L36.0552 2.53638L34.2277 3.47888L32.4554 1.72559L30.688 3.47888L28.8581 2.53638L27.9089 4.56034L26.0911 4.35371C27.1038 5.93059 27.399 7.7165 27.399 7.7165C28.3985 6.91779 30.2008 6.16863 32.4554 6.16863ZM27.8261 5.26963L28.3313 5.32279L28.5497 4.86363L29.1857 3.50304L30.3652 4.11325L30.8211 4.34646L31.1859 3.98638L32.4578 2.72367L33.7322 3.98638L34.0969 4.34646L34.5529 4.11325L35.7252 3.50304L36.3684 4.86363L36.582 5.32279L37.0871 5.26963L37.5683 5.21163C37.3475 5.70946 37.1843 6.18071 37.0679 6.57221C35.796 5.86292 34.1401 5.45934 32.453 5.45934C30.766 5.45934 29.1197 5.86292 27.8429 6.57221C27.7242 6.18071 27.5634 5.70704 27.3426 5.21163L27.8261 5.26963Z" fill="black"/>
<path d="M58.9425 29.8604C61.8631 29.8604 62.8386 26.8867 62.8806 26.761L63.2058 25.7146L62.1115 25.7484H62.1067C61.7203 25.7484 58.4985 25.6638 56.2151 22.7578L55.9991 22.4883C54.5064 20.5888 53.0905 18.7836 50.5611 17.9595C50.6343 17.8943 50.7386 17.8109 50.8814 17.719C52.2241 16.8345 53.0053 15.7615 53.2021 14.5145C53.4889 12.6392 52.2937 11.1445 52.2409 11.0841L51.4274 10.0788L50.9198 11.2714C50.8862 11.3463 50.0307 13.2567 48.2344 13.2567H48.1012C47.9776 13.2494 47.8612 13.2446 47.7448 13.2349C47.8084 12.3818 47.6524 11.0635 46.4585 9.82621C45.0234 8.33633 43.2607 8.11279 42.3392 8.11279C41.846 8.11279 41.5185 8.17321 41.4849 8.17804L40.2561 8.42092L41.0133 9.419C41.6085 10.1887 42.1472 11.6097 41.5089 12.354C41.3049 12.5897 40.8849 12.7818 40.4817 12.9739C39.6538 13.3558 38.5247 13.885 38.5247 15.2359C38.5247 16.1108 39.2026 17.0243 40.4301 17.8012C44.0671 20.0898 46.3097 22.4775 47.2781 25.1128C48.7756 29.168 46.8221 31.4807 44.9238 32.6975L44.0719 33.2461L44.817 33.9312C44.9166 34.0182 45.8298 34.823 47.1773 34.939C47.4317 34.9559 47.6776 34.9704 47.9056 34.9704C48.7696 34.9704 49.5051 34.8339 50.1027 34.6526C49.9371 34.9414 49.7367 35.235 49.4811 35.5323C48.3964 36.7914 47.0609 37.3641 45.141 37.3931L44.4271 37.4052L44.3719 38.1217C44.3647 38.2655 44.3107 39.5935 45.5682 40.7233C45.7602 40.8985 45.993 41.0411 46.2353 41.1607C45.3834 41.928 44.5171 43.2644 44.3491 45.5554C44.2087 47.467 43.7515 48.1739 43.7467 48.1811L42.9572 49.3858L44.3827 49.4052C46.7369 49.4052 48.5416 48.7539 49.7919 47.467C50.5299 46.7045 50.9522 45.8442 51.203 45.0817C51.6134 45.431 52.1426 45.7379 52.8325 45.8998C53.0941 45.9602 53.3809 45.994 53.6892 45.994C54.354 45.994 54.9108 45.8527 54.9732 45.8382L55.8839 45.5953L55.4807 44.7446C55.4519 44.677 54.6924 42.9708 55.5095 40.5372C55.8611 39.4848 56.0411 38.5422 56.1287 37.8088C56.701 38.1072 57.469 38.355 58.4613 38.3574C60.7136 38.3574 61.7071 36.6742 61.7539 36.6029L62.1979 35.8307L61.3747 35.49C58.6893 34.3747 58.0954 31.3792 57.9754 29.7565C58.2177 29.8024 58.4949 29.8459 58.8081 29.8555H58.9437L58.9425 29.8604ZM61.0712 36.2102C61.0712 36.2102 60.284 37.578 58.4805 37.578H58.4589C56.2931 37.5659 55.4195 36.244 55.4195 36.244C55.4195 36.244 55.5455 37.9635 54.7644 40.2847C53.8248 43.0807 54.7716 45.0805 54.7716 45.0805C54.7716 45.0805 54.2664 45.2159 53.6844 45.2159C53.4613 45.2159 53.2285 45.1941 53.0101 45.1361C51.2018 44.706 50.7494 43.059 50.7494 43.059C50.7494 43.059 50.9174 48.6246 44.4331 48.6246H44.3827C44.3827 48.6246 44.9526 47.8476 45.123 45.6098C45.4314 41.4797 48.226 40.9142 48.226 40.9142C48.226 40.9142 46.7357 40.7269 46.0902 40.1469C45.0798 39.231 45.1506 38.1725 45.1506 38.1725C47.4329 38.1411 48.9256 37.3629 50.0643 36.0446C51.2978 34.6164 51.5018 33.0782 51.5018 33.0782C51.5018 33.0782 50.2755 34.191 47.9044 34.191C47.6956 34.191 47.4725 34.1814 47.2445 34.1596C46.1226 34.0702 45.3462 33.3561 45.3462 33.3561C47.8144 31.772 49.5483 29.0073 48.0112 24.8434C46.7801 21.5084 43.8235 19.0156 40.8477 17.1378C39.8566 16.518 39.3058 15.8304 39.3058 15.2383C39.3058 13.8439 41.2869 13.8004 42.1004 12.8628C43.0376 11.774 42.4496 10.0087 41.6373 8.94654C41.6373 8.94654 41.912 8.89096 42.344 8.89096C43.2007 8.89096 44.6838 9.10725 45.903 10.37C47.5217 12.0459 46.8497 13.8705 46.8497 13.8705L47.2841 13.9551C47.5445 14.0107 47.8012 14.0203 48.0688 14.0324C48.1276 14.0324 48.1852 14.0348 48.244 14.0348C50.5971 14.0348 51.6482 11.5735 51.6482 11.5735C51.6482 11.5735 54.1488 14.6511 50.4687 17.0617C49.8351 17.475 49.5555 17.8568 49.6287 18.264L49.6875 18.531L49.9491 18.577C52.6177 19.3008 53.9664 21.1423 55.6151 23.2363C58.1182 26.4215 61.6603 26.523 62.0971 26.523H62.1439C62.1439 26.523 61.3351 29.0762 58.9545 29.0762C58.9161 29.0762 58.8813 29.0762 58.8405 29.0737C57.7462 29.0351 57.1846 28.6146 57.1846 28.6146C57.1846 28.6146 56.755 34.4134 61.0784 36.2114L61.0712 36.2102Z" fill="black"/>
<path d="M53.8141 18.2809C54.9036 18.8609 55.5372 19.639 56.0939 20.329C56.6399 21.002 57.1595 21.6497 57.9706 21.9204C58.2598 22.0195 58.5658 22.0666 58.8765 22.0666C60.0957 22.0666 61.3184 21.321 61.7828 20.2879L62.2483 19.2524L61.1192 19.1847C61.0652 19.1823 59.6145 19.0506 57.997 17.3964C57.3322 16.7185 56.5283 16.3608 55.662 16.3608C54.6036 16.3608 53.8189 16.8901 53.7325 16.9445L52.6934 17.6755L53.8153 18.2809H53.8141ZM55.6644 17.1438C56.2079 17.1438 56.8415 17.3287 57.4414 17.9474C59.3229 19.859 61.0736 19.9665 61.0736 19.9665C60.7556 20.671 59.8329 21.2908 58.8789 21.2908C58.6582 21.2908 58.4374 21.257 58.2166 21.1821C56.9231 20.7447 56.4587 18.8017 54.1837 17.5909C54.1837 17.5909 54.8196 17.1438 55.6644 17.1438Z" fill="black"/>
<path d="M54.3228 28.6023V28.641C53.6677 23.3497 49.8267 19.5289 45.5538 17.2041C45.1579 16.9926 44.7943 16.8126 44.4391 16.641C45.7398 16.8428 47.8349 16.867 49.4524 15.4629C49.4524 15.4629 46.9781 17.2851 41.9097 15.6308C43.3136 16.5419 46.0398 17.8276 48.5272 19.9083C54.75 25.3797 50.2971 30.7169 50.2971 30.7169C52.5326 28.3824 52.625 25.8799 51.9674 23.8366C53.1445 25.7966 53.8969 28.1782 53.7805 31.112C53.6089 35.317 51.299 38.9541 48.8692 41.8758C47.7017 43.2944 47.4401 45.0368 47.4401 45.0368C47.4401 45.0368 47.9105 43.4986 49.2628 41.9169C51.8678 38.8659 54.0937 35.6952 54.3852 31.1289C54.6552 31.9578 55.7639 34.2621 57.5242 35.1297C57.529 35.1321 55.3176 33.7981 54.3216 28.6023H54.3228Z" fill="black"/>
<path d="M21.1643 48.1797C21.1619 48.1724 20.7107 47.4655 20.5643 45.5539C20.3939 43.263 19.53 41.9265 18.6756 41.1592C18.9228 41.0432 19.1508 40.8995 19.3428 40.7218C20.5979 39.592 20.5439 38.2629 20.5367 38.1203L20.4887 37.4037L19.7699 37.3917C17.8549 37.3602 16.517 36.7863 15.4322 35.5308C15.1803 35.2348 14.9763 34.9399 14.8107 34.6512C15.4082 34.8336 16.139 34.969 17.0053 34.969C17.2381 34.969 17.4793 34.9545 17.7337 34.9375C19.0812 34.8203 19.9943 34.0192 20.0951 33.9298L20.8403 33.2447L19.9883 32.6961C18.0829 31.4769 16.1354 29.1641 17.6305 25.1114C18.5988 22.476 20.8403 20.0883 24.4808 17.7997C25.7096 17.0228 26.3815 16.1093 26.3815 15.2345C26.3815 13.8835 25.2548 13.3519 24.4268 12.9725C24.0237 12.7803 23.6037 12.5882 23.3997 12.3526C22.759 11.6119 23.3001 10.1885 23.8929 9.41754L24.6548 8.41945L23.4213 8.17658C23.3853 8.17174 23.0625 8.11133 22.567 8.11133C21.6442 8.11133 19.8863 8.33487 18.45 9.82354C17.2537 11.0621 17.0953 12.3816 17.1565 13.2322C17.0401 13.2419 16.9237 13.2467 16.8025 13.254H16.6718C14.8707 13.254 14.0187 11.3448 13.9839 11.2687L13.4764 10.0761L12.6556 11.0814C12.61 11.1418 11.4101 12.639 11.7017 14.5119C11.8961 15.7577 12.6772 16.8319 14.0199 17.7164C14.1651 17.8082 14.2671 17.8916 14.3403 17.9568C11.8133 18.7809 10.3998 20.5874 8.90708 22.4881L8.69109 22.7575C6.40884 25.6624 3.17986 25.7482 2.79468 25.7482L1.69556 25.7143L2.03033 26.762C2.06873 26.8888 3.04307 29.8613 5.96607 29.8613L6.10646 29.8565C6.41484 29.8468 6.69202 29.8057 6.93921 29.7574C6.81802 31.3778 6.22285 34.3732 3.53503 35.4909L2.71429 35.8317L3.15826 36.6038C3.20146 36.6739 4.19739 38.3571 6.45444 38.3571C7.43957 38.3547 8.20752 38.107 8.78228 37.8085C8.86988 38.542 9.04987 39.4845 9.40144 40.5369C10.2198 42.9705 9.45784 44.6767 9.42784 44.7444L9.02467 45.595L9.93781 45.8379C9.999 45.8524 10.5594 45.9938 11.2217 45.9938C11.5325 45.9938 11.8193 45.9599 12.0761 45.8995C12.7684 45.7364 13.3024 45.4307 13.7068 45.0815C13.9539 45.8439 14.3799 46.7043 15.1155 47.4667C16.3682 48.7548 18.1693 49.4049 20.5247 49.4049L21.9526 49.3856L21.1607 48.1833L21.1643 48.1797ZM20.4743 48.6243C13.9899 48.6243 14.1555 43.0587 14.1555 43.0587C14.1555 43.0587 13.7044 44.7057 11.8949 45.1359C11.6789 45.1939 11.4485 45.2156 11.2229 45.2156C10.6398 45.2156 10.1382 45.0803 10.1382 45.0803C10.1382 45.0803 11.0801 43.0805 10.1406 40.2844C9.36425 37.9644 9.49024 36.2449 9.49024 36.2449C9.49024 36.2449 8.61909 37.5669 6.45084 37.5789H6.42924C4.62576 37.5789 3.83861 36.2111 3.83861 36.2111C8.15953 34.4155 7.73475 28.6192 7.73475 28.6192C7.73475 28.6192 7.17439 29.0372 6.07646 29.0783C6.03807 29.0807 6.00087 29.0807 5.96247 29.0807C3.57823 29.0807 2.77188 26.5275 2.77188 26.5275H2.81988C3.25905 26.5275 6.79642 26.426 9.29945 23.2409C10.9481 21.1468 12.3004 19.3077 14.9631 18.5815L15.2295 18.5356L15.2883 18.2686C15.3614 17.8602 15.0843 17.4795 14.4507 17.0663C10.7706 14.6532 13.2712 11.578 13.2712 11.578C13.2712 11.578 14.3175 14.037 16.6742 14.037C16.733 14.037 16.7857 14.0346 16.8469 14.0346C17.1121 14.0201 17.3737 14.0104 17.6305 13.9548L18.0649 13.8702C18.0649 13.8702 17.3929 12.0457 19.014 10.3697C20.2331 9.10337 21.7162 8.8907 22.5706 8.8907C23.0049 8.8907 23.2749 8.94629 23.2749 8.94629C22.4638 10.0108 21.877 11.7738 22.8129 12.8625C23.6241 13.7977 25.6028 13.8437 25.6028 15.2381C25.6028 15.829 25.052 16.5177 24.0609 17.1376C21.0815 19.0153 18.1249 21.5081 16.8961 24.8431C15.3614 29.007 17.0929 31.7693 19.5672 33.3558C19.5672 33.3558 18.7908 34.07 17.6665 34.1606C17.4385 34.1823 17.2177 34.192 17.0041 34.192C14.6343 34.192 13.4092 33.0791 13.4092 33.0791C13.4092 33.0791 13.6132 34.6173 14.8395 36.0456C15.9854 37.3651 17.4781 38.142 19.7603 38.1735C19.7603 38.1735 19.8335 39.232 18.8232 40.1479C18.1753 40.7267 16.685 40.9152 16.685 40.9152C16.685 40.9152 19.482 41.4807 19.7879 45.6107C19.9559 47.8486 20.5211 48.6255 20.5211 48.6255H20.4755L20.4743 48.6243Z" fill="black"/>
<path d="M6.03326 22.0676C6.34644 22.0676 6.65241 22.0217 6.9416 21.9214C7.75754 21.6519 8.27471 21.0031 8.82067 20.33C9.37863 19.6401 10.0074 18.8631 11.0981 18.2819L12.22 17.6789L11.1785 16.9479C11.0909 16.8923 10.3098 16.3643 9.25384 16.3643C8.3851 16.3643 7.57875 16.7195 6.9164 17.3986C5.3001 19.0504 3.8506 19.1845 3.79661 19.1869L2.66748 19.2522L3.13065 20.2889C3.59622 21.316 4.81774 22.0652 6.03446 22.0652L6.03326 22.0676ZM7.47076 17.9496C8.07312 17.3297 8.70668 17.146 9.25264 17.146C10.0926 17.146 10.7285 17.5931 10.7285 17.5931C8.4559 18.8051 7.99033 20.7469 6.69081 21.1831C6.47723 21.258 6.25404 21.2931 6.03326 21.2931C5.07932 21.2931 4.15658 20.6756 3.841 19.9687C3.841 19.9663 5.58929 19.86 7.47076 17.9496Z" fill="black"/>
<path d="M11.1292 31.1145C11.008 28.1794 11.7603 25.799 12.9399 23.8391C12.2823 25.8824 12.3723 28.3848 14.6102 30.7193C14.6102 30.7193 10.1573 25.3821 16.3824 19.9108C18.8735 17.8288 21.5973 16.5432 22.9976 15.6333C17.9315 17.2875 15.4573 15.4653 15.4573 15.4653C17.0736 16.8694 19.1699 16.8452 20.4706 16.641C20.119 16.8138 19.7494 16.9939 19.3582 17.2053C15.0805 19.5302 11.2432 23.3509 10.5844 28.6422V28.6011C9.59209 33.797 7.38184 35.131 7.38184 35.131C9.13972 34.2634 10.246 31.9603 10.516 31.1302C10.81 35.6977 13.0359 38.8683 15.6409 41.9194C16.9932 43.5011 17.4696 45.0393 17.4696 45.0393C17.4696 45.0393 17.2044 43.2969 16.0321 41.8783C13.607 38.9614 11.2984 35.3219 11.128 31.1169L11.1292 31.1145Z" fill="black"/>
<path d="M30.9914 20.4087V21.4575C31.3526 21.0177 32.0522 21.1071 32.0522 21.1071V22.6199C32.0522 22.6199 32.0282 23.3631 31.763 23.6869H33.2749C33.0157 23.3667 32.9881 22.6199 32.9881 22.6199V21.1071C32.9881 21.1071 33.6877 21.0177 34.0464 21.4575V20.4087H30.9902H30.9914Z" fill="black"/>
<path d="M30.3411 14.1848C30.8247 14.569 31.103 14.6319 31.1126 14.6391L31.3022 14.7261V13.7377L29.5251 12.9897C29.5251 12.9897 29.5419 13.5625 30.3411 14.1848Z" fill="black"/>
<path d="M34.5674 14.1848C35.3713 13.5625 35.3857 12.9897 35.3857 12.9897L33.6086 13.7377V14.7261L33.7958 14.6391C33.8078 14.6319 34.085 14.569 34.5674 14.1848Z" fill="black"/>
<path d="M37.7688 10.1598C37.7688 8.66149 35.2465 7.31299 32.4615 7.31299H32.4447C29.6597 7.31299 27.1375 8.66149 27.1375 10.1598L27.1939 10.5296L28.305 16.9168L27.1879 17.5657L24.2985 19.2537H24.3081C24.3081 19.2537 23.6577 19.586 23.3565 19.7927C22.2574 20.5575 22.0234 21.6728 22.6618 22.1344C22.8202 21.2257 23.5377 20.2736 24.8828 20.2736C25.8512 20.2736 26.5891 20.7738 27.1867 21.5242C27.3391 21.7139 27.4855 21.9157 27.621 22.1344C27.789 22.4087 27.9558 22.6492 28.1238 22.8824H20.6831C21.2291 23.9832 21.7486 25.1492 21.7486 26.4143V42.8948C21.7486 46.8835 24.8144 48.7878 28.131 48.7878C30.6952 48.7878 31.0396 48.6718 32.4543 50.0807C33.8618 48.6694 34.2074 48.7878 36.7728 48.7878C40.0918 48.7878 43.1528 46.8835 43.1528 42.8948V26.4143C43.1528 25.1492 43.6724 23.9832 44.2207 22.8824H36.7776C36.9432 22.6516 37.11 22.4087 37.278 22.1344C37.416 21.9157 37.56 21.7139 37.71 21.5242C38.3123 20.7714 39.0479 20.2736 40.0162 20.2736C41.3613 20.2736 42.0777 21.2233 42.2373 22.1344C42.8756 21.6728 42.6452 20.5575 41.5377 19.7927C41.2413 19.586 40.591 19.2537 40.591 19.2537H40.6006L37.7112 17.5657L36.5988 16.9168L37.7112 10.5296L37.7652 10.1598H37.7688ZM28.233 10.9029L32.1411 12.2297V18.3729L29.2649 16.8552L28.233 10.9029ZM29.0417 23.9529C29.6825 24.5922 30.3113 24.9885 30.9088 25.206C30.8308 25.5141 30.7288 26.1509 31.018 26.7853C31.2532 27.2952 31.6804 27.6891 32.2947 27.9513C32.3631 28.5833 32.7603 29.533 33.8654 29.9535C33.3819 30.4417 32.9115 30.9009 32.7195 31.0882L28.2402 31.0181C28.1382 30.9673 27.9654 30.8525 27.8886 30.6906C27.879 30.6689 27.8646 30.6568 27.8574 30.6326L28.5882 30.7522C28.605 30.7547 28.6194 30.7547 28.6338 30.7547C28.7742 30.7547 28.899 30.658 28.923 30.5118C28.947 30.3487 28.8378 30.2012 28.6806 30.1771L27.7818 30.0357L28.7802 26.5883L27.8358 24.5982L26.3215 26.2017L26.2291 29.788L25.2116 29.6273C25.0532 29.5959 24.9032 29.7131 24.8768 29.8702C24.8528 30.0284 24.9596 30.1759 25.1192 30.2049L25.5464 30.2701C25.394 30.3571 25.2944 30.426 25.2812 30.4357L25.1936 30.4961L25.1696 30.6024C24.9224 31.6077 25.4828 32.5623 26.0875 32.9901L26.0659 33.1169C26.0419 33.2728 26.0755 33.4227 26.1679 33.5495C26.2555 33.6788 26.3911 33.7562 26.5411 33.7827C26.5723 33.7876 26.6071 33.79 26.6359 33.79C26.8975 33.79 27.1267 33.6075 27.1915 33.3429C27.4171 33.3695 27.6234 33.3743 27.7638 33.3743H27.8826L33.7598 34.4364L33.8594 34.3712C34.3274 34.0437 36.1117 32.7412 36.6972 32.311C36.8568 32.4499 37.0368 32.5756 37.2552 32.6795C37.0656 33.3163 37.0536 34.2951 37.8036 35.0672H22.825V26.4167C22.825 25.5782 22.5802 24.7359 22.291 23.9578H29.0393V23.9529H29.0417ZM36.3049 31.8675C35.7097 32.3049 34.181 33.4227 33.6266 33.8105L28.2858 32.8511C28.2978 32.8028 28.3098 32.7569 28.3218 32.7073C28.3926 32.4306 28.4622 32.0512 28.467 31.6065L32.9559 31.679L33.0411 31.592C33.1095 31.5244 34.5314 30.1493 35.2573 29.3566C35.4301 29.5729 35.6461 29.7795 35.9269 29.962C35.8297 30.4864 35.8717 31.2344 36.3037 31.8663L36.3049 31.8675ZM27.3643 30.9419C27.4903 31.2066 27.7182 31.3842 27.8766 31.4833C27.8718 31.731 27.8478 32.1177 27.7818 32.4572C27.7674 32.5321 27.7482 32.6034 27.7254 32.6735C27.7134 32.717 27.7014 32.7532 27.6918 32.7822C27.4567 32.7822 26.9923 32.7532 26.6143 32.6143C26.1943 32.4584 25.568 31.6887 25.7132 30.8404C25.8956 30.7281 26.3155 30.4924 26.7091 30.4924C27.0127 30.49 27.2191 30.6338 27.3643 30.9395V30.9419ZM26.8087 29.875L26.8987 26.4324L27.6702 25.6144L28.1562 26.6294L27.1999 29.933L26.8087 29.875ZM36.2569 47.7209C35.9653 47.7209 35.6965 47.7257 35.4529 47.7354L36.0889 45.7549C36.1885 45.4806 35.6857 45.1278 35.4793 44.8197C35.7925 45.0166 36.6036 45.4468 36.9948 45.6184C36.954 45.6812 36.2569 47.7197 36.2569 47.7197V47.7209ZM38.2523 45.4709L37.8372 47.6375C37.5732 47.6737 37.2912 47.6931 37.002 47.7052L37.4388 45.6208C37.5696 45.0009 35.9065 44.81 35.0869 43.592C34.6862 44.0439 33.9314 44.178 33.1743 44.178C32.4819 44.178 31.7908 44.0669 31.3708 43.9835C31.264 43.9666 31.162 43.9545 31.0624 43.9545C30.82 43.9545 30.598 44.0294 30.4457 44.2868L30.3245 44.491L28.059 43.9569L27.4963 44.8897C27.4159 45.0408 27.4111 45.1689 27.5394 45.3102L27.6918 45.4782C27.5874 45.8081 27.1171 46.3059 27.1171 46.3059L26.7799 45.8854C26.5123 45.5869 26.5567 45.042 26.8351 44.5369L27.7338 43.018L29.6513 43.2947L29.3525 42.6144C28.9518 41.7155 29.5613 40.5712 29.6273 39.9126C29.6057 40.112 29.4233 40.1555 29.2097 40.1555C29.0153 40.1555 28.7994 40.1192 28.6566 40.1192C28.6014 40.1192 28.5522 40.1241 28.5258 40.1434L28.0062 40.4588L27.5958 40.0975C27.5478 40.0274 27.5299 39.8643 27.651 39.7422L28.6002 38.6789L27.4783 37.3691L29.0489 38.1581L29.5277 37.5769C29.6585 37.7062 29.6033 38.0433 29.6033 38.0433C30.0941 38.0554 31.468 38.8154 31.5412 40.5893C31.546 40.6424 31.546 40.7029 31.546 40.7621C31.546 40.7621 31.558 40.7838 31.582 40.8201C31.6792 40.9542 31.9456 41.2962 32.2863 41.3276L34.457 41.5414H34.4666C34.7042 41.5414 35.1781 41.2623 35.7853 41.2623C36.1153 41.2623 36.4849 41.3469 36.8772 41.5946C36.8772 41.5946 37.074 41.4387 37.3944 41.4218C37.4184 41.4194 37.446 41.4194 37.47 41.4194C38.4431 41.4194 38.8463 42.2991 39.3683 43.0301C39.7618 43.5859 40.2862 44.4124 40.2862 44.4124C40.0918 44.6432 39.9118 44.7701 39.6118 44.7701C39.529 44.7701 39.4343 44.7629 39.3323 44.7435C38.2883 44.5514 38.1383 42.4042 37.5432 42.2338C37.512 42.2242 37.4772 42.2217 37.4484 42.2217C37.2564 42.2217 37.1724 42.3921 37.1724 42.3921C37.4436 43.1232 37.2864 43.4192 37.578 43.9835C37.7964 44.4016 38.1851 44.7459 38.3447 44.9091C38.3447 44.9139 38.3015 45.2293 38.2547 45.4673L38.2523 45.4709ZM26.5975 43.4204L26.6971 43.6705C26.6311 43.8892 25.8788 44.1998 25.8788 44.1998L25.7156 43.8457C25.5428 43.4663 25.58 42.8283 26.1043 42.4368L27.3235 41.6937L28.6146 41.968C28.5906 42.3788 28.8354 42.6845 28.8354 42.6845L27.4807 42.4247L26.6695 42.9854C26.5339 43.0809 26.5243 43.2573 26.5963 43.4204H26.5975ZM38.4563 47.5191L38.8283 45.5809C38.8475 45.4661 38.8715 45.3332 38.8895 45.2208C38.9939 45.2643 39.1055 45.3006 39.2267 45.3223C39.3647 45.3489 39.4943 45.361 39.6106 45.361C40.1794 45.361 40.5094 45.0625 40.7302 44.8076L41.0169 44.4741L40.7842 44.1104C40.7626 44.0741 40.2478 43.2573 39.8494 42.699C39.7714 42.5903 39.6958 42.4803 39.6214 42.3607C39.1703 41.6852 38.6039 40.837 37.4712 40.837L37.3692 40.8394C37.182 40.8515 37.0224 40.8877 36.894 40.9361C36.5364 40.7681 36.1705 40.6835 35.7889 40.6835C35.3209 40.6835 34.925 40.8128 34.6622 40.9022C34.5866 40.924 34.5194 40.9482 34.4654 40.9578L32.3463 40.7488C32.3199 40.7439 32.2323 40.6932 32.1279 40.5663V40.5567L32.5863 40.3718C32.4579 38.8444 30.9916 37.9032 30.1733 37.5854C30.1373 37.4319 30.0641 37.2797 29.9357 37.1552L29.4797 36.7226L29.0789 37.2035L28.8822 37.4488L25.916 36.2296L27.8454 38.6547L27.0835 39.8087C26.8039 40.1047 27.1123 40.4008 27.1123 40.4008L27.8982 40.9421L28.7142 40.6388C28.743 40.6388 28.767 40.6461 28.7946 40.6485C28.7562 40.7729 28.7046 41.2587 28.671 41.394L27.2563 41.1149L25.7684 41.9559C25.004 42.5178 24.8996 43.4482 25.1828 44.0838L25.3484 44.4463L25.5836 44.9562L26.1031 44.7399C26.1103 44.7375 26.1175 44.7351 26.1223 44.7302C25.9352 45.3284 26.0108 45.8963 26.3455 46.2709L26.6611 46.6696L27.0811 47.2013L27.5418 46.7059C27.6774 46.5693 28.1166 46.0763 28.2534 45.6534L28.353 45.3308L28.1274 45.0831L28.0914 45.0396L28.3446 44.6215L30.1913 45.0565L30.6064 45.1507L30.8272 44.7858L30.9484 44.5864C30.97 44.5454 30.9772 44.5381 31.0624 44.5381C31.1284 44.5381 31.1932 44.5454 31.264 44.5599C31.9612 44.6916 32.6043 44.7568 33.1743 44.7568C33.7442 44.7568 34.0574 44.7351 34.4534 44.6034C34.4534 44.6034 35.4469 45.7307 35.4805 45.7742L34.8734 47.6496L34.847 47.7644C33.6962 47.8562 33.1359 48.1087 32.4579 48.7866C31.4752 47.8103 30.778 47.7076 28.1346 47.7076C24.9716 47.7076 22.8274 45.8516 22.8274 42.8875V35.6412H42.0837L42.0885 42.8875C42.0909 45.2921 40.681 46.9693 38.4587 47.5154L38.4563 47.5191ZM42.62 23.9517C42.3261 24.7287 42.0813 25.5721 42.0813 26.4107L42.0837 31.818C40.9546 31.6283 40.8214 30.4115 40.8166 30.3583L40.795 30.1106L40.5526 30.0889C40.0618 30.0429 39.7366 29.8339 39.4631 29.5669C38.9099 29.0134 38.9075 28.1144 38.9099 28.1072C38.9027 28.1531 38.3003 28.9965 38.9999 29.9173C39.2939 30.3064 39.7186 30.5444 40.2694 30.6387C40.3978 31.3141 40.9006 32.2663 42.0849 32.4125V35.0612H38.7539C37.2168 34.2057 37.8672 32.7001 37.8996 32.636L38.0303 32.3497L37.7364 32.2385C36.0733 31.621 36.5293 29.9596 36.5545 29.8895L36.6228 29.6466L36.3973 29.5391C35.0233 28.9023 35.2105 27.1852 35.2273 27.1152C34.805 27.4583 34.6514 28.1567 34.943 28.8419C34.7846 29.0219 34.5746 29.2406 34.343 29.4787C32.9199 29.1162 32.8767 27.8075 32.8767 27.7471L32.8743 27.5453L32.6871 27.4728C32.1315 27.2662 31.75 26.9581 31.5628 26.5424C31.3516 26.0832 31.4272 25.6023 31.4848 25.3715C31.648 25.4078 31.81 25.4344 31.966 25.4464C32.1255 25.4634 32.2911 25.473 32.4567 25.473H32.4783C32.6439 25.473 32.8059 25.4634 32.9667 25.4464C33.8522 25.3594 34.8458 24.9776 35.8801 23.9529H42.6212V23.9554L42.62 23.9517ZM37.4292 18.4852L38.7443 19.2501H38.7635L39.0935 19.4422C38.3507 19.6489 37.7832 20.0198 37.3068 20.5092C37.29 20.5237 37.2732 20.543 37.2552 20.5599C37.146 20.6759 37.0368 20.8028 36.9348 20.9309C36.9156 20.9551 36.8964 20.9817 36.8736 21.0082C36.7716 21.1399 36.6768 21.2729 36.5844 21.4142C36.57 21.4384 36.5532 21.4626 36.5364 21.4843C36.4273 21.6474 36.3229 21.8214 36.2185 22.0015C35.2813 23.617 33.7862 24.5813 32.4555 24.5837C31.1272 24.5813 29.6321 23.617 28.695 22.0015C28.593 21.8263 28.491 21.6571 28.3818 21.4916C28.3602 21.4602 28.341 21.4287 28.3218 21.4022C28.2294 21.268 28.137 21.1375 28.0422 21.0131C28.0182 20.9792 27.9966 20.9527 27.9714 20.9237C27.8694 20.7992 27.765 20.6759 27.6606 20.5612C27.639 20.5442 27.6246 20.5225 27.6018 20.5032C27.1231 20.015 26.5579 19.6452 25.8128 19.441L26.1475 19.2489H26.1619L27.4783 18.484L28.8306 17.7095L32.4423 19.6779L32.4495 19.6706L32.4591 19.6779L36.0709 17.7095L37.4256 18.484L37.4292 18.4852ZM35.6473 16.8552L32.7687 18.3729V12.2273L36.6744 10.9005L35.6473 16.8552ZM32.4555 11.5518L28.173 9.85895C28.5378 8.9962 30.2177 8.26274 32.4555 8.26032C34.6958 8.26274 36.3757 8.9962 36.738 9.85895L32.4555 11.5518Z" fill="black"/>
<path d="M85.4858 37.2648V27.5377H91.1879V23.9985H75.6333V27.5377H81.3353V37.2648H85.487H85.4858ZM97.0003 23.9973H92.8486V37.2648H97.0003V23.9973ZM100.038 23.9973V37.2648H103.858V29.935L110.971 37.2648H114.514V23.9973H110.695V31.2714L103.747 23.9973H100.038ZM122.675 32.2478L127.463 37.2648H132.805L126.134 30.3519L132.555 23.9973H127.518L122.675 28.9865H121.567V23.9973H117.554V37.2648H121.567V32.2478H122.675ZM141.063 23.6348C135.665 23.6348 132.427 26.7003 132.427 30.6588C132.427 34.6173 135.665 37.6828 141.063 37.6828C146.46 37.6828 149.671 34.6173 149.671 30.6588C149.671 26.7003 146.433 23.6348 141.063 23.6348ZM141.063 34.4493C138.378 34.4493 136.661 32.8326 136.661 30.6588C136.661 28.485 138.378 26.8961 141.063 26.8961C143.747 26.8961 145.464 28.485 145.464 30.6588C145.464 32.8326 143.72 34.4493 141.063 34.4493ZM164.891 23.9973H151.577V37.2648H155.59V32.6381H164.31V29.7115H155.59V27.3697H164.891V23.9973ZM180 23.9973H166.686V37.2648H170.699V32.6381H179.419V29.7115H170.699V27.3697H180V23.9973Z" fill="#1D2332"/>
</g>
<defs>
<clipPath id="clip0_3955_1068">
<rect width="180" height="58" fill="white"/>
</clipPath>
</defs>
</svg>
