<svg width="152" height="151" viewBox="0 0 152 151" fill="none" xmlns="http://www.w3.org/2000/svg">
<path d="M129.374 72.4742C129.664 72.4742 129.954 72.3302 130.245 72.1861L144.313 62.2443C145.038 63.1088 146.199 63.541 147.504 63.541C149.825 63.541 151.855 61.6679 151.855 59.2185C151.855 56.9132 149.97 54.896 147.504 54.896C145.183 54.896 143.153 56.7691 143.153 59.2185C143.153 59.3626 143.153 59.3626 143.153 59.5067C143.153 59.5067 143.153 59.5067 143.008 59.5067L128.794 69.4485H113.71V59.9389H129.374C129.664 59.9389 130.099 59.7948 130.245 59.6508L144.458 48.2681C145.183 48.9886 146.344 49.4208 147.504 49.4208C149.825 49.4208 151.855 47.5477 151.855 45.0983C151.855 42.7929 149.97 40.7758 147.504 40.7758C145.183 40.7758 143.153 42.6489 143.153 45.0983C143.153 45.2424 143.153 45.3865 143.153 45.5305C143.153 45.5305 143.008 45.5305 143.008 45.6746L128.939 57.0573H113.71V45.9628C113.71 41.4962 110.084 38.0382 105.733 38.0382H94.4201V22.9094L105.878 8.93321C105.878 8.93321 105.878 8.78912 106.023 8.78912C106.168 8.78912 106.313 8.78912 106.458 8.78912C108.779 8.78912 110.809 6.91603 110.809 4.4666C110.809 2.16126 108.924 0.144084 106.458 0.144084C104.138 0.144084 102.107 2.01718 102.107 4.4666C102.107 5.61928 102.542 6.62786 103.267 7.49237L91.8094 21.6126C91.6644 21.7567 91.5193 22.0448 91.5193 22.333V37.8941H81.9468V22.9094L91.9545 8.78912C91.9545 8.78912 91.9545 8.78912 91.9545 8.64504C92.0995 8.64504 92.0995 8.64504 92.2445 8.64504C94.5651 8.64504 96.5957 6.77195 96.5957 4.32252C96.5957 2.01718 94.7102 0 92.2445 0C89.9239 0 87.8934 1.87309 87.8934 4.32252C87.8934 5.61928 88.4735 6.62786 89.1987 7.49237L79.1911 21.4685C79.0461 21.7567 78.901 22.0448 78.901 22.333V37.8941H72.6644V22.333C72.6644 22.0448 72.5193 21.7567 72.3743 21.4685L62.3667 7.49237C63.527 6.77195 63.9621 5.61928 63.9621 4.4666C63.9621 2.16126 62.0766 0.144084 59.6109 0.144084C57.2903 0.144084 55.2598 2.01718 55.2598 4.4666C55.2598 6.77195 57.1453 8.78912 59.6109 8.78912C59.756 8.78912 59.756 8.78912 59.901 8.78912C59.901 8.78912 59.901 8.78912 59.901 8.93321L69.9086 23.0534V38.1823H60.3361V22.333C60.3361 22.0448 60.1911 21.6126 60.046 21.4685L48.588 7.34828C49.4583 6.62786 49.8934 5.61928 49.8934 4.4666C49.8934 2.16126 48.0079 0.144084 45.5422 0.144084C43.2216 0.144084 41.1911 2.01718 41.1911 4.4666C41.1911 6.77195 43.0766 8.78912 45.5422 8.78912C45.6873 8.78912 45.8323 8.78912 45.9774 8.78912C45.9774 8.78912 45.9773 8.93321 46.1224 8.93321L57.5804 22.9094V38.0382H46.4125C41.9163 38.0382 38.4354 41.6403 38.4354 45.9628V57.0573H23.0613L8.99261 45.6746C8.99261 45.6746 8.84757 45.6746 8.84757 45.5305C8.84757 45.3865 8.84757 45.2424 8.84757 45.0983C8.84757 42.7929 6.96208 40.7758 4.49643 40.7758C2.17582 40.7758 0.145282 42.6489 0.145282 45.0983C0.145282 47.5477 2.03078 49.4208 4.49643 49.4208C5.65673 49.4208 6.672 48.9886 7.54223 48.2681L21.756 59.6508C22.046 59.7948 22.3361 59.9389 22.6262 59.9389H38.2903V69.4485H23.0613L8.84757 59.5067C8.84757 59.5067 8.84757 59.5067 8.70253 59.5067C8.70253 59.3626 8.70253 59.3626 8.70253 59.2185C8.70253 56.9132 6.81704 54.896 4.35139 54.896C2.03078 54.896 0.000244141 56.7691 0.000244141 59.2185C0.000244141 61.6679 1.88574 63.541 4.35139 63.541C5.65673 63.541 6.672 62.9647 7.54223 62.2443L21.6109 72.1861C21.901 72.3302 22.1911 72.4742 22.4812 72.4742H38.1453V78.6699H22.4812C22.1911 78.6699 21.901 78.8139 21.6109 78.958L7.54223 88.8998C6.81704 88.0353 5.65673 87.6031 4.35139 87.6031C2.03078 87.6031 0.000244141 89.4762 0.000244141 91.9256C0.000244141 94.375 1.88574 96.2481 4.35139 96.2481C6.672 96.2481 8.70253 94.375 8.70253 91.9256C8.70253 91.7815 8.70253 91.7815 8.70253 91.6374C8.70253 91.6374 8.70253 91.6374 8.84757 91.6374L23.0613 81.6956H38.2903V90.917H22.4812C22.1911 90.917 21.756 91.0611 21.6109 91.2052L7.39719 102.588C6.672 101.867 5.51169 101.435 4.35139 101.435C2.03078 101.435 0.000244141 103.308 0.000244141 105.758C0.000244141 108.063 1.88574 110.08 4.35139 110.08C6.672 110.08 8.70253 108.207 8.70253 105.758C8.70253 105.614 8.70253 105.469 8.70253 105.325C8.70253 105.325 8.84757 105.325 8.84757 105.181L22.9163 93.7987H38.1453V104.893C38.1453 109.36 41.7712 112.818 46.1224 112.818H57.2903V127.947L45.8323 141.923C45.8323 141.923 45.8323 142.067 45.6873 142.067C45.5422 142.067 45.3972 142.067 45.2522 142.067C42.9315 142.067 40.901 143.94 40.901 146.389C40.901 148.839 42.7865 150.712 45.2522 150.712C47.5728 150.712 49.6033 148.839 49.6033 146.389C49.6033 145.237 49.1682 144.228 48.443 143.364L59.901 129.243C60.0461 128.955 60.1911 128.667 60.1911 128.379V112.962H69.7636V128.091L59.756 142.211C59.756 142.211 59.756 142.211 59.756 142.355C59.6109 142.355 59.6109 142.355 59.4659 142.355C57.1453 142.355 55.1148 144.228 55.1148 146.677C55.1148 149.127 57.0002 151 59.4659 151C61.7865 151 63.817 149.127 63.817 146.677C63.817 145.381 63.2369 144.372 62.5117 143.508L72.5193 129.532C72.6644 129.243 72.8094 128.955 72.8094 128.667V112.962H79.0461V128.523C79.0461 128.811 79.1911 129.099 79.3361 129.387L89.3438 143.364C88.4735 144.084 88.0384 145.237 88.0384 146.533C88.0384 148.839 89.9239 150.856 92.3896 150.856C94.7102 150.856 96.7407 148.983 96.7407 146.533C96.7407 144.228 94.8552 142.211 92.3896 142.211C92.2445 142.211 92.2445 142.211 92.0995 142.211C92.0995 142.211 92.0995 142.211 92.0995 142.067L82.0919 127.947V112.962H91.5193V128.523C91.5193 128.811 91.6644 129.243 91.8094 129.387L103.267 143.508C102.542 144.228 102.107 145.381 102.107 146.533C102.107 148.839 103.993 150.856 106.458 150.856C108.779 150.856 110.809 148.983 110.809 146.533C110.809 144.228 108.924 142.211 106.458 142.211C106.313 142.211 106.168 142.211 106.023 142.211C106.023 142.211 106.023 142.067 105.878 142.067L94.4201 128.091V112.962H105.588C110.084 112.962 113.565 109.36 113.565 105.037V93.7987H128.794L142.863 105.181C142.863 105.181 143.008 105.181 143.008 105.325C143.008 105.469 143.008 105.614 143.008 105.758C143.008 108.063 144.893 110.08 147.359 110.08C149.68 110.08 151.71 108.207 151.71 105.758C151.71 103.452 149.825 101.435 147.359 101.435C146.199 101.435 145.183 101.867 144.313 102.588L130.099 91.2052C129.809 91.0611 129.519 90.917 129.229 90.917H113.71V81.4074H128.939L143.153 91.3492C143.153 91.3492 143.153 91.3492 143.298 91.3492C143.298 91.4933 143.298 91.4933 143.298 91.6374C143.298 93.9428 145.183 95.9599 147.649 95.9599C149.97 95.9599 152 94.0868 152 91.6374C152 89.3321 150.115 87.3149 147.649 87.3149C146.344 87.3149 145.329 87.8912 144.458 88.6116L130.39 78.6699C130.1 78.5258 129.809 78.3817 129.519 78.3817H113.71V72.1861H129.374V72.4742ZM147.504 57.2013C148.664 57.2013 149.68 58.2099 149.68 59.3626C149.68 60.5153 148.664 61.5239 147.504 61.5239C146.344 61.5239 145.329 60.5153 145.329 59.3626C145.329 58.0658 146.344 57.2013 147.504 57.2013ZM147.504 43.0811C148.664 43.0811 149.68 44.0897 149.68 45.2424C149.68 46.395 148.664 47.4036 147.504 47.4036C146.344 47.4036 145.329 46.395 145.329 45.2424C145.329 44.0897 146.344 43.0811 147.504 43.0811ZM106.458 2.30534C107.619 2.30534 108.634 3.31393 108.634 4.4666C108.634 5.61928 107.619 6.62786 106.458 6.62786C105.298 6.62786 104.283 5.61928 104.283 4.4666C104.283 3.31393 105.298 2.30534 106.458 2.30534ZM92.2445 2.30534C93.5499 2.30534 94.4201 3.31393 94.4201 4.4666C94.4201 5.61928 93.4048 6.62786 92.2445 6.62786C91.0842 6.62786 90.069 5.61928 90.069 4.4666C90.214 3.31393 91.0842 2.30534 92.2445 2.30534ZM57.5804 4.4666C57.5804 3.31393 58.5957 2.30534 59.756 2.30534C60.9163 2.30534 61.9315 3.31393 61.9315 4.4666C61.9315 5.61928 60.9163 6.62786 59.756 6.62786C58.4506 6.62786 57.5804 5.61928 57.5804 4.4666ZM43.3667 4.4666C43.3667 3.31393 44.3819 2.30534 45.5422 2.30534C46.7025 2.30534 47.7178 3.31393 47.7178 4.4666C47.7178 5.61928 46.7025 6.62786 45.5422 6.62786C44.3819 6.62786 43.3667 5.61928 43.3667 4.4666ZM4.49643 47.4036C3.33612 47.4036 2.32085 46.395 2.32085 45.2424C2.32085 44.0897 3.33612 43.0811 4.49643 43.0811C5.65673 43.0811 6.672 44.0897 6.672 45.2424C6.672 46.395 5.65673 47.4036 4.49643 47.4036ZM4.49643 61.3798C3.33612 61.3798 2.32085 60.3712 2.32085 59.2185C2.32085 58.0658 3.33612 57.0573 4.49643 57.0573C5.65673 57.0573 6.672 58.0658 6.672 59.2185C6.672 60.5153 5.65673 61.3798 4.49643 61.3798ZM4.49643 93.7987C3.33612 93.7987 2.32085 92.7901 2.32085 91.6374C2.32085 90.4847 3.33612 89.4762 4.49643 89.4762C5.65673 89.4762 6.672 90.4847 6.672 91.6374C6.672 92.9342 5.65673 93.7987 4.49643 93.7987ZM4.49643 107.919C3.33612 107.919 2.32085 106.91 2.32085 105.758C2.32085 104.605 3.33612 103.596 4.49643 103.596C5.65673 103.596 6.672 104.605 6.672 105.758C6.672 106.91 5.65673 107.919 4.49643 107.919ZM45.5422 148.695C44.3819 148.695 43.3667 147.686 43.3667 146.533C43.3667 145.381 44.3819 144.372 45.5422 144.372C46.7025 144.372 47.7178 145.381 47.7178 146.533C47.7178 147.686 46.7025 148.695 45.5422 148.695ZM59.6109 148.695C58.4506 148.695 57.4354 147.686 57.4354 146.533C57.4354 145.381 58.4506 144.372 59.6109 144.372C60.7712 144.372 61.7865 145.381 61.7865 146.533C61.7865 147.686 60.9163 148.695 59.6109 148.695ZM94.4201 146.533C94.4201 147.686 93.4048 148.695 92.2445 148.695C91.0842 148.695 90.069 147.686 90.069 146.533C90.069 145.381 91.0842 144.372 92.2445 144.372C93.5499 144.372 94.4201 145.381 94.4201 146.533ZM108.634 146.533C108.634 147.686 107.619 148.695 106.458 148.695C105.298 148.695 104.283 147.686 104.283 146.533C104.283 145.381 105.298 144.372 106.458 144.372C107.619 144.372 108.489 145.381 108.634 146.533ZM103.267 96.8244C103.267 99.9943 100.657 102.588 97.4659 102.588H54.5346C51.3438 102.588 48.7331 99.9943 48.7331 96.8244V54.1756C48.7331 51.0057 51.3438 48.4122 54.5346 48.4122H97.4659C100.657 48.4122 103.267 51.0057 103.267 54.1756V96.8244ZM147.504 103.596C148.664 103.596 149.68 104.605 149.68 105.758C149.68 106.91 148.664 107.919 147.504 107.919C146.344 107.919 145.329 106.91 145.329 105.758C145.329 104.605 146.344 103.596 147.504 103.596ZM147.504 89.6202C148.664 89.6202 149.68 90.6288 149.68 91.7815C149.68 92.9342 148.664 93.9427 147.504 93.9427C146.344 93.9427 145.329 92.9342 145.329 91.7815C145.329 90.4847 146.344 89.6202 147.504 89.6202Z" fill="white"/>
<path d="M97.4659 50.4294H82.9621V55.4723C82.9621 56.0487 82.527 56.625 81.8018 56.625C81.0766 56.625 80.6415 56.1928 80.6415 55.4723V50.4294H77.0155V55.4723C77.0155 56.0487 76.5804 56.625 75.8552 56.625C75.13 56.625 74.6949 56.1928 74.6949 55.4723V50.4294H71.214V55.4723C71.214 56.0487 70.7789 56.625 70.0537 56.625C69.3285 56.625 68.8934 56.1928 68.8934 55.4723V50.4294H54.3896C52.359 50.4294 50.7636 52.0143 50.7636 54.0315V74.3473H55.8399C56.4201 74.3473 57.0002 74.7796 57.0002 75.5C57.0002 76.2204 56.4201 76.5086 55.8399 76.5086H50.7636V96.8244C50.7636 98.8416 52.359 100.427 54.3896 100.427H68.8934V95.3836C68.8934 94.8073 69.3285 94.2309 70.0537 94.2309C70.7789 94.2309 71.214 94.6632 71.214 95.3836V100.427H74.985V95.3836C74.985 94.8073 75.4201 94.2309 76.1453 94.2309C76.8705 94.2309 77.3056 94.6632 77.3056 95.3836V100.427H81.0766V95.3836C81.0766 94.8073 81.5117 94.2309 82.2369 94.2309C82.9621 94.2309 83.3972 94.6632 83.3972 95.3836V100.427H97.901C99.9315 100.427 101.527 98.8416 101.527 96.8244V76.5086H96.4506C95.8705 76.5086 95.2903 76.0763 95.2903 75.3559C95.2903 74.6355 95.7254 74.2033 96.4506 74.2033H101.527V54.1756C101.092 52.1584 99.4964 50.4294 97.4659 50.4294ZM66.1376 72.042V66.1345C66.1376 64.9819 67.1529 64.1174 68.3132 64.1174C69.4735 64.1174 70.4888 64.9819 70.4888 66.1345V72.042C70.4888 73.1947 69.4735 74.0592 68.3132 74.0592C67.1529 74.0592 66.1376 73.1947 66.1376 72.042ZM81.6567 86.3063C80.2064 87.3149 78.1758 88.0353 76.0002 88.0353C73.8247 88.0353 71.7941 87.459 70.3438 86.3063C68.8934 85.2977 67.8781 83.7128 67.8781 81.8397C67.8781 81.2634 68.3132 80.687 69.0384 80.687C69.7636 80.687 70.1987 81.1193 70.1987 81.8397C70.1987 82.8483 70.7789 83.8569 71.7941 84.5773C72.8094 85.2977 74.4048 85.8741 76.1453 85.8741C77.8857 85.8741 79.4812 85.2977 80.4964 84.5773C81.5117 83.8569 82.0919 82.8483 82.0919 81.8397C82.0919 81.2634 82.527 80.687 83.2522 80.687C83.9773 80.687 84.4125 81.1193 84.4125 81.8397C84.1224 83.7128 83.1071 85.2977 81.6567 86.3063ZM85.8628 72.042C85.8628 73.1947 84.8476 74.0592 83.6873 74.0592C82.527 74.0592 81.3667 73.1947 81.3667 72.042V66.1345C81.3667 64.9819 82.3819 64.1174 83.5422 64.1174C84.7025 64.1174 85.7178 64.9819 85.7178 66.1345V72.042H85.8628Z" fill="white"/>
</svg>
