<svg width="99" height="91" viewBox="0 0 99 91" fill="none" xmlns="http://www.w3.org/2000/svg">
<path d="M42.2534 34.7319C43.1311 33.3625 43.7579 31.7442 44.1341 30.1259C44.2595 29.6279 44.761 29.2544 45.3879 29.2544H50.5285V20.9138H45.3879C44.8864 20.9138 44.3848 20.5404 44.1341 20.0424C43.6326 18.4241 43.0057 16.9302 42.2534 15.4364C42.0026 14.9384 42.0026 14.316 42.5041 13.9425L46.1402 10.3324L40.1219 4.35705L36.4859 7.96717C36.1098 8.34063 35.4829 8.46512 34.9813 8.21614C33.6021 7.34473 31.9722 6.7223 30.3423 6.34884C29.8407 6.22435 29.4646 5.7264 29.4646 5.10397V0H21.0641V5.10397C21.0641 5.60192 20.688 6.09986 20.1865 6.34884C18.5565 6.84679 17.052 7.46922 15.5474 8.21614C15.0459 8.46512 14.419 8.46512 14.0428 7.96717L10.4068 4.35705L4.38855 10.3324L8.02458 13.9425C8.40072 14.316 8.5261 14.9384 8.27534 15.4364C7.39768 16.8057 6.77078 18.4241 6.39464 20.0424C6.26926 20.5404 5.76774 20.9138 5.14083 20.9138H0.000244141V29.2544H5.14083C5.64235 29.2544 6.14388 29.6279 6.39464 30.1259C6.89616 31.7442 7.52306 33.238 8.27534 34.7319C8.5261 35.2298 8.5261 35.8523 8.02458 36.2257L4.38855 39.8358L10.2814 45.6867L13.9175 42.0766C14.2936 41.7031 14.9205 41.5787 15.422 41.8276C16.8012 42.699 18.4311 43.3215 20.0611 43.6949C20.5626 43.8194 20.9387 44.3174 20.9387 44.9398V50.0438H29.3392V44.9398C29.3392 44.3174 29.7154 43.9439 30.2169 43.6949C31.8468 43.197 33.3514 42.5746 34.8559 41.8276C35.3575 41.5787 35.9844 41.5787 36.3605 42.0766L39.9965 45.6867L45.8894 39.8358L42.2534 36.2257C42.0026 35.8523 41.8772 35.2298 42.2534 34.7319ZM23.9479 20.1669V12.4487C23.9479 11.7018 24.4494 11.2038 25.2017 11.2038C25.954 11.2038 26.4555 11.7018 26.4555 12.4487V20.0424C28.5869 20.5404 30.0915 22.4077 30.0915 24.7729C30.0915 27.5116 27.96 29.6279 25.2017 29.6279C22.4433 29.6279 20.3118 27.5116 20.3118 24.7729C20.3118 22.5321 21.9418 20.6648 23.9479 20.1669ZM25.2017 38.8399C17.4281 38.8399 11.0337 32.6156 11.0337 24.7729C11.0337 19.42 14.0428 14.6895 18.5565 12.3242C19.1834 11.9508 19.9357 12.1997 20.3118 12.8222C20.688 13.4446 20.4372 14.1915 19.8103 14.565C16.1743 16.5568 13.5413 20.2914 13.5413 24.7729C13.5413 28.0096 14.7951 30.8728 16.9266 32.9891C19.058 35.1053 21.9418 36.3502 25.2017 36.3502C28.4616 36.3502 31.3453 35.1053 33.4768 32.9891C35.6082 30.8728 36.862 28.0096 36.862 24.7729C36.862 20.2914 34.3544 16.5568 30.593 14.565C29.9661 14.1915 29.7154 13.4446 30.0915 12.8222C30.4676 12.1997 31.2199 11.9508 31.8468 12.3242C36.3605 14.6895 39.3696 19.2955 39.3696 24.7729C39.3696 32.6156 32.9752 38.8399 25.2017 38.8399Z" fill="white"/>
<path d="M98.9253 65.6047L88.8948 39.4624C88.6441 18.2996 71.3416 1.24487 49.9016 1.24487C49.1493 1.24487 48.6478 1.74282 48.6478 2.48974C48.6478 3.23666 49.1493 3.73461 49.9016 3.73461C59.932 3.73461 69.0848 7.71819 75.6045 14.316C77.736 16.4323 79.6167 18.7975 81.2466 21.4118H69.3355V13.8181C69.3355 13.3201 68.9594 12.8222 68.3325 12.8222C67.831 12.8222 67.3294 13.1956 67.3294 13.8181V21.4118H61.8127V13.8181C61.8127 13.3201 61.4366 12.8222 60.8097 12.8222C60.3081 12.8222 59.8066 13.1956 59.8066 13.8181V21.4118H56.296C55.7945 21.4118 55.2929 21.7852 55.2929 22.4077C55.2929 22.9056 55.6691 23.4036 56.296 23.4036H81.9989C84.6319 28.383 86.0111 33.985 86.0111 39.9603C86.0111 40.0848 86.0111 40.2093 86.1365 40.4583L95.6654 65.1067H86.0111C85.6349 65.1067 85.3842 65.2312 85.1334 65.4802C84.8827 65.7291 84.7573 65.9781 84.7573 66.3516V84.7757C84.7573 87.0164 83.002 88.7592 80.7451 88.7592H50.5285C48.2716 88.7592 46.5163 87.0164 46.5163 84.7757V63.8618C46.5163 61.6211 48.2716 59.8783 50.5285 59.8783H59.8066C60.5589 59.8783 61.0604 59.3803 61.0604 58.6334C61.0604 57.8865 60.5589 57.3885 59.8066 57.3885H50.5285C46.8925 57.3885 44.0087 60.2517 44.0087 63.8618V75.4391C39.6204 74.6922 35.6082 73.1984 31.9722 71.2066L38.9935 64.2353C39.3696 63.8618 39.3696 63.2394 38.9935 62.8659C38.6174 62.4925 37.9905 62.4925 37.6143 62.8659L30.2169 70.2107C28.4616 69.0903 26.8316 67.8454 25.2017 66.3516L32.223 59.3803C32.5991 59.0068 32.5991 58.3844 32.223 58.0109C31.8468 57.6375 31.2199 57.6375 30.8438 58.0109L23.6971 65.1067C21.3149 62.617 19.3088 59.8783 17.6789 56.8906C17.3027 56.2681 16.5504 56.0192 15.9235 56.3926C15.2966 56.7661 15.0459 57.513 15.422 58.1354C21.3149 68.4679 31.7214 76.0616 44.0087 77.9289V84.5267C44.0087 88.1368 46.8925 91 50.5285 91H80.9959C84.6319 91 87.5157 88.1368 87.5157 84.5267V67.3475H97.6715C98.0476 67.3475 98.4237 67.0985 98.6745 66.8495C99.0506 66.4761 99.0506 65.9781 98.9253 65.6047Z" fill="white"/>
<path d="M69.7117 29.6279C66.8279 29.6279 64.0695 30.8728 62.1888 32.7401C60.3081 34.7319 59.0543 37.3461 59.0543 40.3338C59.0543 43.3215 60.1828 45.9357 62.1888 47.9275C64.0695 49.9193 66.7025 51.0397 69.7117 51.0397C72.5954 51.0397 75.3538 49.7948 77.2345 47.9275C79.1152 45.9357 80.369 43.3215 80.369 40.3338C80.369 37.3461 79.2406 34.7319 77.2345 32.7401C75.2284 30.8728 72.5954 29.6279 69.7117 29.6279ZM75.3538 46.0602C73.9746 47.554 71.9685 48.5499 69.7117 48.5499C67.4548 48.5499 65.4487 47.6785 63.9442 46.1847C62.4396 44.6908 61.5619 42.699 61.5619 40.3338C61.5619 38.093 62.4396 35.9767 63.9442 34.4829C65.4487 32.9891 67.4548 32.1176 69.7117 32.1176C71.9685 32.1176 73.9746 32.9891 75.4791 34.4829C76.9837 35.9767 77.8614 37.9685 77.8614 40.3338C77.736 42.5746 76.8583 44.5663 75.3538 46.0602Z" fill="white"/>
<path d="M69.7117 37.2216C68.0817 37.2216 66.7025 38.591 66.7025 40.2093C66.7025 41.8276 68.0817 43.197 69.7117 43.197C71.3416 43.197 72.7208 41.8276 72.7208 40.2093C72.7208 38.591 71.3416 37.2216 69.7117 37.2216Z" fill="white"/>
</svg>
