<svg width="77" height="80" viewBox="0 0 77 80" fill="none" xmlns="http://www.w3.org/2000/svg">
<path d="M66.2 68.3H59C58.1 68.3 57.4 67.6 57.4 66.7C57.4 66.1 57 65.7 56.4 65.7C55.8 65.7 55.4 66.1 55.4 66.7C55.4 68.7 57 70.3 59 70.3H66.2C66.8 70.3 67.2 69.9 67.2 69.3C67.2 68.7 66.7 68.3 66.2 68.3Z" fill="#292C33"/>
<path d="M37.8 68.4H45C45.4 68.4 45.8 68.1 45.8 67.6C45.8 67.2 45.5 66.8 45 66.8H37.8C37.4 66.8 37 67.1 37 67.6C37 68.1 37.3 68.4 37.8 68.4Z" fill="#292C33"/>
<path d="M37.8 74.2H45C45.4 74.2 45.8 73.9 45.8 73.4C45.8 73 45.5 72.6 45 72.6H37.8C37.4 72.6 37 72.9 37 73.4C37 73.9 37.3 74.2 37.8 74.2Z" fill="#292C33"/>
<path d="M36.7 50.9C35.5 50.9 34.4 50.7 33.3 50.4V65L43.8 48.5C41.8 50 39.3 50.9 36.7 50.9Z" fill="#292C33"/>
<path d="M36.7 27.6C30.5 27.6 25.5 32.6 25.5 38.8C25.5 45 30.5 50 36.7 50C42.9 50 47.9 45 47.9 38.8C47.8 32.6 42.8 27.6 36.7 27.6ZM43.9 45.9C42.1 47.7 39.5 48.9 36.7 48.9C33.9 48.9 31.4 47.8 29.5 45.9C27.7 44.1 26.5 41.5 26.5 38.7C26.5 35.9 27.6 33.4 29.5 31.5C31.3 29.7 33.9 28.5 36.7 28.5C39.5 28.5 42 29.6 43.9 31.5C45.7 33.3 46.9 35.9 46.9 38.7C46.8 41.5 45.7 44.1 43.9 45.9Z" fill="#292C33"/>
<path d="M73.3 27.7V27.6H43.6C43 27.6 42.6 27.2 42.6 26.6C42.6 26 43 25.6 43.6 25.6H72.6C69.7 17.5 65.1 12.2 59.4 9C53.6 5.7 46.7 4.6 39.4 4.4V1C39.4 0.7 39.3 0.5 39.1 0.3C38.9 0.1 38.7 0 38.4 0C27.8 0 18.2 4.1 11.3 10.7C9.5 12.4 7.9 14.3 6.4 16.4H22.2C22.5 15.1 23.7 14.2 25 14.2C26.6 14.2 27.9 15.5 27.9 17.1C27.9 18.7 26.6 20 25 20C23.6 20 22.5 19.1 22.2 17.8H5.4C3.9 20.3 2.6 22.9 1.7 25.8H14.9C15.2 24.5 16.4 23.6 17.7 23.6C19.3 23.6 20.6 24.9 20.6 26.5C20.6 28.1 19.3 29.4 17.7 29.4C16.3 29.4 15.2 28.5 14.9 27.2H1.6C1.5 27.2 1.4 27.2 1.3 27.1C0.5 30.1 0 33.2 0 36.5V36.6C0 37.1 0.5 37.6 1 37.6H4.3C4.9 53 16.3 65.6 31.2 68V49.5C29.8 48.8 28.6 47.9 27.6 46.8H7.9C7.5 46.8 7.1 46.5 7.1 46C7.1 45.6 7.4 45.2 7.9 45.2H12.1V37.1C12.1 36.5 12.5 36.1 13.1 36.1C13.7 36.1 14.1 36.5 14.1 37.1V45.2H18.8V37.1C18.8 36.5 19.2 36.1 19.8 36.1C20.4 36.1 20.8 36.5 20.8 37.1V45.2H26.4C25.1 43.3 24.4 41 24.4 38.5C24.4 31.8 29.8 26.3 36.6 26.3C43.2 26.3 48.5 31.5 48.7 38.1L58 48.9H74.9C75.5 48.9 75.9 49.3 75.9 49.9C75.9 50.5 75.5 50.9 74.9 50.9H57.5C57.2 50.9 56.9 50.8 56.7 50.6L48.5 41.2C47.9 44.1 46.3 46.6 44 48.4L53 58.7C53.2 58.9 53.5 59 53.8 59H66.6C66.6 58.5 67.1 58 67.6 58C68.1 58 68.6 58.4 68.6 59H75.2C75.7 59 76.2 58.6 76.2 58C76.3 55.6 76.4 53.3 76.4 51.1C76.3 41.6 75.2 33.9 73.3 27.7ZM24.9 58.9H14.2C13.8 58.9 13.4 58.6 13.4 58.1C13.4 57.7 13.7 57.3 14.2 57.3H25C25.4 57.3 25.8 57.6 25.8 58.1C25.7 58.6 25.4 58.9 24.9 58.9ZM9.8 51.8H24.9C25.3 51.8 25.7 52.1 25.7 52.6C25.7 53 25.4 53.4 24.9 53.4H9.8C9.4 53.4 9 53.1 9 52.6C9.1 52.2 9.4 51.8 9.8 51.8ZM45.1 9.7C45.9 9.7 46.6 10.4 46.6 11.2C46.6 12 45.9 12.7 45.1 12.7C44.3 12.7 43.6 12 43.6 11.2C43.6 10.4 44.3 9.7 45.1 9.7ZM45.1 14.6C45.9 14.6 46.6 15.3 46.6 16.1C46.6 16.9 45.9 17.6 45.1 17.6C44.3 17.6 43.6 16.9 43.6 16.1C43.6 15.2 44.3 14.6 45.1 14.6ZM39.2 21.6C38.8 21.6 38.4 21.3 38.4 20.8C38.4 20.4 38.7 20 39.2 20H53.7C54.9 20 55.8 19.1 55.8 17.9V8.5C55.8 8.1 56.1 7.8 56.5 7.8C56.9 7.8 57.2 8.1 57.2 8.5V18C57.2 20 55.6 21.6 53.6 21.6H39.2Z" fill="#292C33"/>
<path d="M40.1 38.7C40.1 40.6 38.6 42.1 36.7 42.1C34.8 42.1 33.3 40.6 33.3 38.7C33.3 37.8 33.7 36.9 34.3 36.3C34.9 35.7 35.8 35.3 36.7 35.3C38.6 35.3 40.1 36.8 40.1 38.7H42.1C42.1 35.7 39.7 33.3 36.7 33.3C33.7 33.3 31.3 35.7 31.3 38.7C31.3 41.7 33.7 44.1 36.7 44.1C39.7 44.1 42.1 41.7 42.1 38.7H40.1Z" fill="#292C33"/>
<path d="M34.3 61.7H43.9C44.9 61.7 45.7 62.5 45.7 63.5V77.8C45.7 78.2 46 78.6 46.5 78.6C46.9 78.6 47.3 78.3 47.3 77.8V63.5C47.3 61.7 45.8 60.2 44 60.2H34.4C34 60.2 33.6 60.5 33.6 61C33.5 61.4 33.9 61.7 34.3 61.7Z" fill="#292C33"/>
<path d="M68.5 59C68.5 58.9 68.5 58.9 68.5 58.8C68.5 58.6 68.4 58.4 68.2 58.3C68.1 58.2 68 58.2 67.9 58.1C67.8 58.1 67.7 58 67.5 58C67.3 58 67.2 58 67.1 58.1C67 58.1 66.9 58.2 66.9 58.3C66.9 58.3 66.9 58.3 66.9 58.4C66.8 58.5 66.7 58.7 66.7 58.9V76.5C66.7 77.1 66.2 77.6 65.6 77.6H34.3C33.7 77.6 33.2 77.1 33.2 76.5V65.3L31.2 68.7V76.5C31.2 78.2 32.6 79.6 34.3 79.6H65.4C67.1 79.6 68.5 78.2 68.5 76.5V59Z" fill="#292C33"/>
</svg>
