<svg width="109" height="95" viewBox="0 0 109 95" fill="none" xmlns="http://www.w3.org/2000/svg">
<path d="M102.194 0H6.80564C3.07351 0 0 3.06085 0 6.77759V68.6504C0 72.3672 3.07351 75.428 6.80564 75.428H49.1762V93.9024C49.1762 94.3397 49.3958 94.7769 49.8348 94.8863C50.2739 95.1049 50.713 94.9956 51.0423 94.6676L70.3615 75.428H102.194C105.926 75.428 109 72.3672 109 68.6504V6.77759C109 3.06085 105.926 0 102.194 0V2.18632C103.512 2.18632 104.609 2.7329 105.378 3.49811C106.256 4.37264 106.805 5.4658 106.805 6.77759V68.6504C106.805 69.9622 106.256 71.0554 105.487 71.8206C104.609 72.6951 103.512 73.1324 102.304 73.1324H69.8127C69.4834 73.1324 69.2638 73.2417 69.0443 73.4603L51.3716 91.1695V74.2255C51.3716 73.8976 51.2618 73.6789 51.0423 73.4603C50.8228 73.2417 50.6032 73.1324 50.2739 73.1324H6.80564C5.48842 73.1324 4.39074 72.5858 3.62236 71.8206C2.74421 70.9461 2.19537 69.8529 2.19537 68.6504V6.77759C2.19537 5.4658 2.74421 4.37264 3.51259 3.49811C4.39074 2.7329 5.48842 2.18632 6.80564 2.18632H102.194V0Z" fill="white"/>
<path d="M40.5045 31.7016C39.4068 31.7016 38.5287 32.5762 38.5287 33.6693V39.5724C38.5287 40.6655 39.4068 41.5401 40.5045 41.5401C41.6022 41.5401 42.4804 40.6655 42.4804 39.5724V33.6693C42.4804 32.6855 41.6022 31.7016 40.5045 31.7016Z" fill="white"/>
<path d="M37.8701 23.9402C38.9678 23.9402 39.8459 23.0657 39.8459 21.9725V16.0694C39.8459 14.9763 38.9678 14.1018 37.8701 14.1018C36.7724 14.1018 35.8943 14.9763 35.8943 16.0694V21.9725C35.7845 23.0657 36.7724 23.9402 37.8701 23.9402Z" fill="white"/>
<path d="M56.0916 49.4108C54.994 49.4108 54.1158 50.2853 54.1158 51.3785V57.2816C54.1158 58.3747 54.994 59.2492 56.0916 59.2492C57.1893 59.2492 58.0675 58.3747 58.0675 57.2816V51.3785C58.0675 50.3947 57.1893 49.5201 56.0916 49.4108Z" fill="white"/>
<path d="M80.8993 49.4108C79.8016 49.4108 78.9235 50.2853 78.9235 51.3785V57.2816C78.9235 58.3747 79.8016 59.2492 80.8993 59.2492C81.997 59.2492 82.8751 58.3747 82.8751 57.2816V51.3785C82.8751 50.3947 81.997 49.5201 80.8993 49.4108Z" fill="white"/>
<path d="M68.4955 49.4108C67.3978 49.4108 66.5196 50.2853 66.5196 51.3785V57.2816C66.5196 58.3747 67.3978 59.2492 68.4955 59.2492C69.5932 59.2492 70.4713 58.3747 70.4713 57.2816V51.3785C70.4713 50.3947 69.5932 49.5201 68.4955 49.4108Z" fill="white"/>
<path d="M37.8701 49.4108C36.7724 49.4108 35.8943 50.2853 35.8943 51.3785V57.2816C35.8943 58.3747 36.7724 59.2492 37.8701 59.2492C38.9678 59.2492 39.8459 58.3747 39.8459 57.2816V51.3785C39.8459 50.3947 38.9678 49.5201 37.8701 49.4108Z" fill="white"/>
<path d="M56.0916 13.9924C54.994 13.9924 54.1158 14.867 54.1158 15.9601V21.8632C54.1158 22.9564 54.994 23.8309 56.0916 23.8309C57.1893 23.8309 58.0675 22.9564 58.0675 21.8632V15.9601C58.0675 14.9763 57.1893 13.9924 56.0916 13.9924Z" fill="white"/>
<path d="M54.8842 39.6817V33.7786C54.8842 32.6855 54.006 31.8109 52.9084 31.8109C51.8107 31.8109 50.9325 32.6855 50.9325 33.7786V39.6817C50.9325 40.7748 51.8107 41.6494 52.9084 41.6494C54.006 41.6494 54.8842 40.7748 54.8842 39.6817Z" fill="white"/>
<path d="M71.1299 31.7016C70.0322 31.7016 69.1541 32.5762 69.1541 33.6693V39.5724C69.1541 40.6655 70.0322 41.5401 71.1299 41.5401C72.2276 41.5401 73.1057 40.6655 73.1057 39.5724V33.6693C73.1057 32.6855 72.2276 31.7016 71.1299 31.7016Z" fill="white"/>
<path d="M19.6485 49.4108C18.5509 49.4108 17.6727 50.2853 17.6727 51.3785V57.2816C17.6727 58.3747 18.5509 59.2492 19.6485 59.2492C20.7462 59.2492 21.6244 58.3747 21.6244 57.2816V51.3785C21.6244 50.3947 20.7462 49.5201 19.6485 49.4108Z" fill="white"/>
<path d="M19.6485 13.9924C18.5509 13.9924 17.6727 14.867 17.6727 15.9601V21.8632C17.6727 22.9564 18.5509 23.8309 19.6485 23.8309C20.7462 23.8309 21.6244 22.9564 21.6244 21.8632V15.9601C21.6244 14.9763 20.7462 13.9924 19.6485 13.9924Z" fill="white"/>
<path d="M68.4955 23.9402C69.5932 23.9402 70.4713 23.0657 70.4713 21.9725V16.0694C70.4713 14.9763 69.5932 14.1018 68.4955 14.1018C67.3978 14.1018 66.5196 14.9763 66.5196 16.0694V21.9725C66.5196 23.0657 67.3978 23.9402 68.4955 23.9402Z" fill="white"/>
<path d="M27.9909 31.7016C26.8933 31.7016 26.0151 32.5762 26.0151 33.6693V39.5724C26.0151 40.6655 26.8933 41.5401 27.9909 41.5401C29.0886 41.5401 29.9668 40.6655 29.9668 39.5724V33.6693C30.0765 32.6855 29.0886 31.7016 27.9909 31.7016Z" fill="white"/>
<path d="M98.1329 5.68443H10.7573C8.45217 5.68443 6.5861 7.5428 6.5861 9.83844V63.5126C6.5861 65.8082 8.45217 67.6666 10.7573 67.6666H98.1329C100.438 67.6666 102.304 65.8082 102.304 63.5126V9.83844C102.414 7.5428 100.548 5.68443 98.1329 5.68443ZM64.8731 16.0694C64.8731 14.1018 66.5196 12.462 68.4955 12.462C70.4713 12.462 72.1178 14.1018 72.1178 16.0694V21.9725C72.1178 23.9402 70.4713 25.5799 68.4955 25.5799C66.5196 25.5799 64.8731 23.9402 64.8731 21.9725V16.0694ZM34.138 16.0694C34.138 14.1018 35.7845 12.462 37.7603 12.462C39.7362 12.462 41.3827 14.1018 41.3827 16.0694V21.9725C41.3827 23.9402 39.7362 25.5799 37.7603 25.5799C35.7845 25.5799 34.138 23.9402 34.138 21.9725V16.0694ZM28.5398 13.7738C28.5398 13.3365 28.8691 12.8993 29.4179 12.8993C29.857 12.8993 30.2961 13.2272 30.2961 13.7738V24.1588C30.2961 24.5961 29.9668 25.0334 29.4179 25.0334C28.9789 25.0334 28.5398 24.7054 28.5398 24.1588V13.7738ZM16.0262 31.483C16.0262 31.0457 16.3555 30.6085 16.9043 30.6085C17.3434 30.6085 17.6727 30.9364 17.6727 31.483V41.868C17.6727 42.3053 17.3434 42.7425 16.9043 42.7425C16.4653 42.7425 16.0262 42.4146 16.0262 41.868V31.483ZM23.2709 57.3909C23.2709 59.3586 21.6244 60.9983 19.6485 60.9983C17.6727 60.9983 16.0262 59.3586 16.0262 57.3909V51.4878C16.0262 49.5201 17.6727 47.8804 19.6485 47.8804C21.6244 47.8804 23.2709 49.5201 23.2709 51.4878V57.3909ZM23.2709 21.9725C23.2709 23.9402 21.6244 25.5799 19.6485 25.5799C17.6727 25.5799 16.0262 23.9402 16.0262 21.9725V16.0694C16.0262 14.1018 17.6727 12.462 19.6485 12.462C21.6244 12.462 23.2709 14.1018 23.2709 16.0694V21.9725ZM30.1863 59.5772C30.1863 60.0145 29.857 60.4517 29.3082 60.4517C28.8691 60.4517 28.43 60.1238 28.43 59.5772V49.1922C28.43 48.7549 28.7593 48.3177 29.3082 48.3177C29.7472 48.3177 30.1863 48.6456 30.1863 49.1922V59.5772ZM31.7231 39.6817C31.7231 41.6494 30.0765 43.2891 28.1007 43.2891C26.1249 43.2891 24.4783 41.6494 24.4783 39.6817V33.7786C24.4783 31.8109 26.1249 30.1712 28.1007 30.1712C30.0765 30.1712 31.7231 31.8109 31.7231 33.7786V39.6817ZM41.4924 57.3909C41.4924 59.3586 39.8459 60.9983 37.8701 60.9983C35.8943 60.9983 34.2477 59.3586 34.2477 57.3909V51.4878C34.2477 49.5201 35.8943 47.8804 37.8701 47.8804C39.8459 47.8804 41.4924 49.5201 41.4924 51.4878V57.3909ZM44.1269 39.6817C44.1269 41.6494 42.4804 43.2891 40.5045 43.2891C38.5287 43.2891 36.8822 41.6494 36.8822 39.6817V33.7786C36.8822 31.8109 38.5287 30.1712 40.5045 30.1712C42.4804 30.1712 44.1269 31.8109 44.1269 33.7786V39.6817ZM47.2004 59.5772C47.2004 60.0145 46.8711 60.4517 46.3223 60.4517C45.8832 60.4517 45.4441 60.1238 45.4441 59.5772V49.1922C45.4441 48.7549 45.7734 48.3177 46.3223 48.3177C46.7613 48.3177 47.2004 48.6456 47.2004 49.1922V59.5772ZM47.2004 24.1588C47.2004 24.5961 46.8711 25.0334 46.3223 25.0334C45.8832 25.0334 45.4441 24.7054 45.4441 24.1588V13.7738C45.4441 13.3365 45.7734 12.8993 46.3223 12.8993C46.7613 12.8993 47.2004 13.2272 47.2004 13.7738V24.1588ZM49.286 39.6817V33.7786C49.286 31.8109 50.9325 30.1712 52.9084 30.1712C54.8842 30.1712 56.5307 31.8109 56.5307 33.7786V39.6817C56.5307 41.6494 54.8842 43.2891 52.9084 43.2891C50.8228 43.2891 49.286 41.6494 49.286 39.6817ZM59.714 57.3909C59.714 59.3586 58.0675 60.9983 56.0916 60.9983C54.1158 60.9983 52.4693 59.3586 52.4693 57.3909V51.4878C52.4693 49.5201 54.1158 47.8804 56.0916 47.8804C58.0675 47.8804 59.714 49.5201 59.714 51.4878V57.3909ZM59.714 21.9725C59.714 23.9402 58.0675 25.5799 56.0916 25.5799C54.1158 25.5799 52.4693 23.9402 52.4693 21.9725V16.0694C52.4693 14.1018 54.1158 12.462 56.0916 12.462C58.0675 12.462 59.714 14.1018 59.714 16.0694V21.9725ZM63.4461 41.868C63.4461 42.3053 63.1168 42.7425 62.568 42.7425C62.1289 42.7425 61.6898 42.4146 61.6898 41.868V31.483C61.6898 31.0457 62.0191 30.6085 62.568 30.6085C63.007 30.6085 63.4461 30.9364 63.4461 31.483V41.868ZM72.1178 57.3909C72.1178 59.3586 70.4713 60.9983 68.4955 60.9983C66.5196 60.9983 64.8731 59.3586 64.8731 57.3909V51.4878C64.8731 49.5201 66.5196 47.8804 68.4955 47.8804C70.4713 47.8804 72.1178 49.5201 72.1178 51.4878V57.3909ZM74.7523 39.6817C74.7523 41.6494 73.1057 43.2891 71.1299 43.2891C69.1541 43.2891 67.5076 41.6494 67.5076 39.6817V33.7786C67.5076 31.8109 69.1541 30.1712 71.1299 30.1712C73.1057 30.1712 74.7523 31.8109 74.7523 33.7786V39.6817ZM84.5217 57.3909C84.5217 59.3586 82.8751 60.9983 80.8993 60.9983C78.9235 60.9983 77.2769 59.3586 77.2769 57.3909V51.4878C77.2769 49.5201 78.9235 47.8804 80.8993 47.8804C82.8751 47.8804 84.5217 49.5201 84.5217 51.4878V57.3909ZM78.8137 41.868V31.483C78.8137 31.0457 79.143 30.6085 79.6918 30.6085C80.1309 30.6085 80.57 30.9364 80.57 31.483V41.868C80.57 42.3053 80.2407 42.7425 79.6918 42.7425C79.143 42.7425 78.8137 42.3053 78.8137 41.868ZM84.5217 21.9725C84.5217 23.9402 82.8751 25.5799 80.8993 25.5799C78.9235 25.5799 77.2769 23.9402 77.2769 21.9725V16.0694C77.2769 14.1018 78.9235 12.462 80.8993 12.462C82.8751 12.462 84.5217 14.1018 84.5217 16.0694V21.9725ZM85.7291 39.6817V33.7786C85.7291 31.8109 87.3756 30.1712 89.3515 30.1712C91.3273 30.1712 92.9738 31.8109 92.9738 33.7786V39.6817C92.9738 41.6494 91.3273 43.2891 89.3515 43.2891C87.2659 43.2891 85.7291 41.6494 85.7291 39.6817ZM92.9738 59.5772C92.9738 60.0145 92.6445 60.4517 92.0957 60.4517C91.6566 60.4517 91.2175 60.1238 91.2175 59.5772V49.1922C91.2175 48.7549 91.5468 48.3177 92.0957 48.3177C92.5347 48.3177 92.9738 48.6456 92.9738 49.1922V59.5772ZM92.9738 24.1588C92.9738 24.5961 92.6445 25.0334 92.0957 25.0334C91.6566 25.0334 91.2175 24.7054 91.2175 24.1588V13.7738C91.2175 13.3365 91.5468 12.8993 92.0957 12.8993C92.5347 12.8993 92.9738 13.2272 92.9738 13.7738V24.1588Z" fill="white"/>
<path d="M80.8993 13.9924C79.8016 13.9924 78.9235 14.867 78.9235 15.9601V21.8632C78.9235 22.9564 79.8016 23.8309 80.8993 23.8309C81.997 23.8309 82.8751 22.9564 82.8751 21.8632V15.9601C82.8751 14.9763 81.997 13.9924 80.8993 13.9924Z" fill="white"/>
<path d="M89.3515 31.7016C88.2538 31.7016 87.3756 32.5762 87.3756 33.6693V39.5724C87.3756 40.6655 88.2538 41.5401 89.3515 41.5401C90.4491 41.5401 91.3273 40.6655 91.3273 39.5724V33.6693C91.3273 32.6855 90.4491 31.7016 89.3515 31.7016Z" fill="white"/>
</svg>
