<svg width="53" height="53" viewBox="0 0 53 53" fill="none" xmlns="http://www.w3.org/2000/svg">
<rect x="1" y="1" width="51" height="51" rx="25.5" stroke="#FFA275" stroke-miterlimit="1"/>
<path d="M35.0101 43.2458H18.5793C15.9993 43.2458 13.9285 41.4778 13.9285 39.3018H39.6779C39.6779 41.4778 37.5901 43.2458 35.0101 43.2458Z" fill="#292C33"/>
<path d="M13.5886 26.1101C13.5886 34.4911 19.4956 41.2742 26.7943 41.2742C34.0932 41.2742 40.0001 34.4911 40.0001 26.1101H13.5886Z" fill="#292C33"/>
<path d="M36.0944 37.8392C35.3136 37.8392 34.5667 37.7032 33.9727 37.4482L34.7704 35.6972C35.7719 36.1562 37.9955 35.9352 39.574 34.9152C40.2869 34.4562 41.1357 33.6572 41.1357 32.4162C41.1357 30.9372 39.9475 29.7472 38.4707 29.7472C38.2161 29.7472 37.9446 29.7812 37.7069 29.8662L37.1638 28.0132C37.5881 27.8772 38.0294 27.8262 38.4877 27.8262C41.0168 27.8262 43.0707 29.8832 43.0707 32.4162C43.0707 34.0482 42.205 35.5102 40.6264 36.5302C39.3025 37.3802 37.6051 37.8392 36.0944 37.8392Z" fill="#292C33"/>
<path d="M25.4165 13.6149C25.06 14.3289 24.4829 14.9239 24.0585 15.5869C23.057 17.1509 22.8194 19.1909 23.4984 20.9249C24.1773 22.6589 25.7559 24.0019 27.5891 24.3589C26.6046 23.9169 25.8238 23.0669 25.4674 22.0469C25.1109 21.0269 25.1958 19.8709 25.688 18.9019C26.1633 17.9839 26.978 17.2869 27.5552 16.4369C28.0813 15.6379 28.4038 14.6859 28.4887 13.7169C28.5906 12.6119 28.336 11.4049 27.4873 10.6909C26.7404 10.0449 25.7559 9.85785 25.0091 9.24585C25.8238 10.5719 26.1633 12.1359 25.4165 13.6149Z" fill="#292C33"/>
<path d="M28.574 23.3388C28.1157 22.8968 27.6234 22.4208 27.5216 21.7918C27.4197 21.1628 27.7083 20.5508 28.0138 20.0068C28.3194 19.4628 28.6588 18.9358 29.0153 18.4088C29.5075 17.6948 30.1016 16.8788 29.8979 16.0288C30.5769 16.9128 30.6618 18.2218 30.1016 19.1908C29.9149 19.5138 29.6773 19.7858 29.4736 20.0918C29.0323 20.7718 28.7946 21.5878 28.8795 22.3868C28.9644 23.1348 29.3548 23.7298 29.8809 24.2058C29.3887 24.2398 28.9134 23.6788 28.574 23.3388Z" fill="#292C33"/>
</svg>
