<svg width="52" height="52" viewBox="0 0 52 52" fill="none" xmlns="http://www.w3.org/2000/svg">
<rect x="0.5" y="0.5" width="51" height="51" rx="25.5" stroke="#FFA275" stroke-miterlimit="1"/>
<path d="M22.1198 22.9382C19.4841 22.9382 17.3276 25.0899 17.3276 27.7198C17.3276 30.3497 19.4841 32.5015 22.1198 32.5015C24.7555 32.5015 26.912 30.3497 26.912 27.7198C26.912 25.0899 24.7854 22.9382 22.1198 22.9382Z" fill="#292C33"/>
<path d="M39.1601 14.6897H18.9131V12.4483C18.9131 12.1494 18.5837 12 18.374 12H15.2591C15.0494 12 14.7199 12.1793 14.7199 12.4483V14.6897C13.0427 14.7494 11.7249 16.1241 11.7249 17.7977V34.8919C11.7249 36.5954 13.1326 38 14.8398 38H39.1601C40.8673 38 42.2751 36.5954 42.2751 34.8919V17.7977C42.2751 16.0943 40.8673 14.6897 39.1601 14.6897ZM22.1179 34.2046C18.5238 34.2046 15.6185 31.3057 15.6185 27.7195C15.6185 24.1333 18.5537 21.2644 22.1179 21.2644C25.712 21.2644 28.6173 24.1632 28.6173 27.7494C28.6173 31.3357 25.712 34.2046 22.1179 34.2046ZM37.7824 20.4874C37.7824 20.7862 37.2732 20.9655 36.9138 20.9655H31.4627C31.0733 20.9655 30.5941 20.7563 30.5941 20.4874V17.6483C30.5941 17.3494 31.1033 17.1103 31.4627 17.1103H36.8839C37.2732 17.1103 37.7524 17.3793 37.7524 17.6483V20.4874H37.7824Z" fill="#292C33"/>
</svg>
