<svg width="82" height="81" viewBox="0 0 82 81" fill="none" xmlns="http://www.w3.org/2000/svg">
<g clip-path="url(#clip0_5209_6909)">
<path d="M79.6416 0.412109H2.90451C1.97997 0.412109 1.1875 1.20644 1.1875 2.13315V65.0174C1.1875 65.9441 1.97997 66.7384 2.90451 66.7384H32.8861V76.6675H29.5842C28.6596 76.6675 27.8672 77.4619 27.8672 78.3886C27.8672 79.3153 28.6596 80.1096 29.5842 80.1096C34.339 80.1096 43.9807 80.1096 52.9619 80.1096C53.8865 80.1096 54.6789 79.3153 54.6789 78.3886C54.6789 77.4619 53.8865 76.6675 52.9619 76.6675H49.66V66.7384H79.6416C80.5662 66.7384 81.3586 65.9441 81.3586 65.0174V2.13315C81.2265 1.20644 80.5662 0.412109 79.6416 0.412109ZM77.9246 3.72181V56.677H4.48944V3.72181H77.9246ZM46.226 76.5351H36.1881V66.6061H46.226V76.5351ZM4.48944 63.2964V59.9867H77.7925V63.2964C63.6602 63.2964 18.8859 63.2964 4.48944 63.2964Z" fill="#00AF9D"/>
<path d="M9.62985 40.1287H36.3095C37.2341 40.1287 38.0266 39.3344 38.0266 38.4077C38.0266 33.9065 38.0266 16.4313 38.0266 8.62045C38.0266 7.69374 37.2341 6.89941 36.3095 6.89941H9.62985C8.70531 6.89941 7.91284 7.69374 7.91284 8.62045C7.91284 11.2682 7.91284 30.8616 7.91284 38.4077C7.78076 39.4668 8.57323 40.1287 9.62985 40.1287ZM11.2148 36.8191V20.2706H34.5925V36.8191H11.2148ZM11.2148 10.3415H34.5925V16.9609H11.2148V10.3415Z" fill="#00AF9D"/>
<path d="M19.0184 24.1102C18.358 23.4483 17.3014 23.4483 16.641 24.1102L13.339 27.4199C12.6787 28.0818 12.6787 29.1409 13.339 29.8029L16.641 33.1126C17.3014 33.7745 18.358 33.7745 19.0184 33.1126C19.6788 32.4506 19.6788 31.3915 19.0184 30.7296L16.9051 28.6114L19.0184 26.4932C19.6788 25.8312 19.6788 24.7721 19.0184 24.1102Z" fill="#00AF9D"/>
<path d="M29.0524 24.1102C28.392 23.4483 27.3354 23.4483 26.675 24.1102C26.0146 24.7721 26.0146 25.8312 26.675 26.4932L28.7882 28.6114L26.8071 30.7296C25.7504 31.7887 26.5429 33.5097 27.9958 33.5097C28.392 33.5097 28.7882 33.3773 29.1845 32.9802L32.4864 29.6705C33.1468 29.0086 33.1468 27.9495 32.4864 27.2875L29.0524 24.1102Z" fill="#00AF9D"/>
<path d="M16.2394 12.0637H12.9375V15.3734H16.2394V12.0637Z" fill="#00AF9D"/>
<path d="M22.8488 12.0637H19.5469V15.3734H22.8488V12.0637Z" fill="#00AF9D"/>
<path d="M46.2248 53.3682H72.9045C73.8291 53.3682 74.6215 52.5739 74.6215 51.6472C74.6215 47.146 74.6215 29.6708 74.6215 21.8599C74.6215 20.9332 73.8291 20.1389 72.9045 20.1389H46.2248C45.3003 20.1389 44.5078 20.9332 44.5078 21.8599C44.5078 24.5077 44.5078 44.1011 44.5078 51.6472C44.5078 52.7063 45.3003 53.3682 46.2248 53.3682ZM47.8098 50.0585V33.5101H71.1875V50.0585H47.8098ZM47.8098 23.581H71.1875V30.2004H47.8098V23.581Z" fill="#00AF9D"/>
<path d="M55.7371 37.3488C55.0767 36.6868 54.0201 36.6868 53.3597 37.3488L50.0578 40.6585C49.3974 41.3204 49.3974 42.3795 50.0578 43.0414L53.3597 46.3511C54.0201 47.0131 55.0767 47.0131 55.7371 46.3511C56.3975 45.6892 56.3975 44.6301 55.7371 43.9682L53.6239 41.85L55.7371 39.7318C56.3975 39.0698 56.3975 38.0107 55.7371 37.3488Z" fill="#00AF9D"/>
<path d="M65.7789 37.3488C65.1185 36.6868 64.0619 36.6868 63.4015 37.3488C62.7412 38.0107 62.7412 39.0698 63.4015 39.7318L65.5148 41.85L63.4015 43.9682C62.7412 44.6301 62.7412 45.6892 63.4015 46.3511C64.0619 47.0131 65.1185 47.0131 65.7789 46.3511L69.0809 43.0414C69.7413 42.3795 69.7413 41.3204 69.0809 40.6585L65.7789 37.3488Z" fill="#00AF9D"/>
<path d="M52.9582 25.3015H49.6562V28.6112H52.9582V25.3015Z" fill="#00AF9D"/>
<path d="M59.5676 25.3015H56.2656V28.6112H59.5676V25.3015Z" fill="#00AF9D"/>
</g>
<defs>
<clipPath id="clip0_5209_6909">
<rect width="81" height="81" fill="white" transform="translate(0.5)"/>
</clipPath>
</defs>
</svg>
