<svg width="1711" height="622" viewBox="0 0 1711 622" fill="none" xmlns="http://www.w3.org/2000/svg">
<path d="M9.07768 18.7824L-18.3242 92.0859L-9.76258 95.3047L17.6393 22.0011L9.07768 18.7824Z" fill="#4E75D8" fill-opacity="0.1"/>
<path d="M30.0536 57.4643L15.0234 72.5373L21.4739 79.0062L42.9858 57.4643L21.4739 35.8911L15.0234 42.3599L30.0536 57.4643Z" fill="#4E75D8" fill-opacity="0.1"/>
<path d="M34.6353 114.178L67.5138 57.0891L34.6353 0H-31.1216L-64 57.0891L-31.1216 114.178H34.6353ZM-25.2034 10.2371H28.7176L55.7092 57.0891L28.7176 103.941H-25.2034L-52.1637 57.0891L-25.2034 10.2371Z" fill="#4E75D8" fill-opacity="0.1"/>
<path d="M117.509 83.3874L90.1074 156.691L98.6691 159.91L126.071 86.6061L117.509 83.3874Z" fill="#4E75D8" fill-opacity="0.1"/>
<path d="M138.503 122.069L123.473 137.142L129.923 143.611L151.435 122.069L129.923 100.496L123.473 106.964L138.503 122.069Z" fill="#4E75D8" fill-opacity="0.1"/>
<path d="M93.3764 137.142L78.3149 122.037L93.3764 106.964L86.8946 100.496L65.4141 122.037L86.8946 143.611L93.3764 137.142Z" fill="#4E75D8" fill-opacity="0.1"/>
<path d="M143.085 178.781L175.963 121.693L143.085 64.6035H77.3277L44.4492 121.693L77.3277 178.781H143.085ZM83.2458 74.8406H137.167L164.158 121.693L137.167 168.544H83.2458L56.2856 121.693L83.2458 74.8406Z" fill="#4E75D8" fill-opacity="0.1"/>
<path d="M994.263 83.3869L966.861 156.69L975.423 159.909L1002.82 86.6056L994.263 83.3869Z" fill="#4E75D8" fill-opacity="0.1"/>
<path d="M1015.24 122.067L1000.21 137.14L1006.66 143.609L1028.17 122.067L1006.66 100.494L1000.21 106.963L1015.24 122.067Z" fill="#4E75D8" fill-opacity="0.1"/>
<path d="M970.115 137.14L955.053 122.036L970.115 106.963L963.633 100.494L942.152 122.036L963.633 143.609L970.115 137.14Z" fill="#4E75D8" fill-opacity="0.1"/>
<path d="M1019.82 178.78L1052.7 121.691L1019.82 64.6021H954.066L921.187 121.691L954.066 178.78H1019.82ZM959.984 74.8392H1013.9L1040.9 121.691L1013.9 168.543H959.984L933.024 121.691L959.984 74.8392Z" fill="#4E75D8" fill-opacity="0.1"/>
<path d="M1105.03 18.7824L1077.62 92.0859L1086.18 95.3047L1113.59 22.0011L1105.03 18.7824Z" fill="#4E75D8" fill-opacity="0.1"/>
<path d="M1126 57.4643L1110.97 72.5373L1117.42 79.0062L1138.93 57.4643L1117.42 35.8911L1110.97 42.3599L1126 57.4643Z" fill="#4E75D8" fill-opacity="0.1"/>
<path d="M1080.87 72.5373L1065.81 57.4329L1080.87 42.3599L1074.39 35.8911L1052.91 57.4329L1074.39 79.0062L1080.87 72.5373Z" fill="#4E75D8" fill-opacity="0.1"/>
<path d="M1130.58 114.178L1163.46 57.0891L1130.58 0H1064.83L1031.95 57.0891L1064.83 114.178H1130.58ZM1070.74 10.2371H1124.67L1151.66 57.0891L1124.67 103.941H1070.74L1043.78 57.0891L1070.74 10.2371Z" fill="#4E75D8" fill-opacity="0.1"/>
<path d="M1213.45 83.3869L1186.05 156.69L1194.61 159.909L1222.01 86.6056L1213.45 83.3869Z" fill="#4E75D8" fill-opacity="0.1"/>
<path d="M1234.43 122.068L1219.4 137.141L1225.85 143.61L1247.36 122.068L1225.85 100.495L1219.4 106.964L1234.43 122.068Z" fill="#4E75D8" fill-opacity="0.1"/>
<path d="M1189.3 137.141L1174.24 122.037L1189.3 106.964L1182.82 100.495L1161.34 122.037L1182.82 143.61L1189.3 137.141Z" fill="#4E75D8" fill-opacity="0.1"/>
<path d="M1239.01 178.781L1271.89 121.692L1239.01 64.603H1173.25L1140.37 121.692L1173.25 178.781H1239.01ZM1179.17 74.8401H1233.09L1260.08 121.692L1233.09 168.544H1179.17L1152.21 121.692L1179.17 74.8401Z" fill="#4E75D8" fill-opacity="0.1"/>
<path d="M1432.63 83.3874L1405.23 156.691L1413.79 159.91L1441.2 86.6061L1432.63 83.3874Z" fill="#4E75D8" fill-opacity="0.1"/>
<path d="M1453.61 122.069L1438.58 137.142L1445.03 143.611L1466.54 122.069L1445.03 100.496L1438.58 106.964L1453.61 122.069Z" fill="#4E75D8" fill-opacity="0.1"/>
<path d="M1408.48 137.142L1393.42 122.037L1408.48 106.964L1402 100.496L1380.52 122.037L1402 143.611L1408.48 137.142Z" fill="#4E75D8" fill-opacity="0.1"/>
<path d="M1458.19 178.781L1491.07 121.693L1458.19 64.6035H1392.44L1359.56 121.693L1392.44 178.781H1458.19ZM1398.35 74.8406H1452.27L1479.27 121.693L1452.27 168.544H1398.35L1371.39 121.693L1398.35 74.8406Z" fill="#4E75D8" fill-opacity="0.1"/>
<path d="M9.07768 145.649L-18.3242 218.952L-9.76258 222.171L17.6393 148.867L9.07768 145.649Z" fill="#4E75D8" fill-opacity="0.1"/>
<path d="M30.0536 184.332L15.0234 199.405L21.4739 205.874L42.9858 184.332L21.4739 162.759L15.0234 169.228L30.0536 184.332Z" fill="#4E75D8" fill-opacity="0.1"/>
<path d="M34.6353 241.044L67.5138 183.955L34.6353 126.866H-31.1216L-64 183.955L-31.1216 241.044H34.6353ZM-25.2034 137.103H28.7176L55.7092 183.955L28.7176 230.806H-25.2034L-52.1637 183.955L-25.2034 137.103Z" fill="#4E75D8" fill-opacity="0.1"/>
<path d="M117.509 210.254L90.1074 283.558L98.6691 286.776L126.071 213.473L117.509 210.254Z" fill="#4E75D8" fill-opacity="0.1"/>
<path d="M138.503 248.936L123.473 264.009L129.923 270.477L151.435 248.936L129.923 227.362L123.473 233.831L138.503 248.936Z" fill="#4E75D8" fill-opacity="0.1"/>
<path d="M93.3764 264.009L78.3149 248.904L93.3764 233.831L86.8946 227.362L65.4141 248.904L86.8946 270.477L93.3764 264.009Z" fill="#4E75D8" fill-opacity="0.1"/>
<path d="M143.085 305.647L175.963 248.558L143.085 191.469H77.3277L44.4492 248.558L77.3277 305.647H143.085ZM83.2458 201.706H137.167L164.158 248.558L137.167 295.41H83.2458L56.2856 248.558L83.2458 201.706Z" fill="#4E75D8" fill-opacity="0.1"/>
<path d="M228.232 145.65L200.83 218.953L209.392 222.172L236.794 148.868L228.232 145.65Z" fill="#4E75D8" fill-opacity="0.1"/>
<path d="M249.225 184.332L234.195 199.405L240.646 205.874L262.158 184.332L240.646 162.759L234.195 169.228L249.225 184.332Z" fill="#4E75D8" fill-opacity="0.1"/>
<path d="M204.099 199.405L189.038 184.301L204.099 169.228L197.617 162.759L176.137 184.301L197.617 205.874L204.099 199.405Z" fill="#4E75D8" fill-opacity="0.1"/>
<path d="M253.807 241.045L286.686 183.956L253.807 126.867H188.05L155.172 183.956L188.05 241.045H253.807ZM193.968 137.104H247.889L274.881 183.956L247.889 230.808H193.968L167.008 183.956L193.968 137.104Z" fill="#4E75D8" fill-opacity="0.1"/>
<path d="M555.902 210.254L528.5 283.558L537.062 286.776L564.464 213.473L555.902 210.254Z" fill="#4E75D8" fill-opacity="0.1"/>
<path d="M576.878 248.936L561.848 264.009L568.298 270.477L589.81 248.936L568.298 227.362L561.848 233.831L576.878 248.936Z" fill="#4E75D8" fill-opacity="0.1"/>
<path d="M531.751 264.009L516.69 248.904L531.751 233.831L525.27 227.362L503.789 248.904L525.27 270.477L531.751 264.009Z" fill="#4E75D8" fill-opacity="0.1"/>
<path d="M581.46 305.647L614.338 248.558L581.46 191.469H515.703L482.824 248.558L515.703 305.647H581.46ZM521.621 201.706H575.542L602.533 248.558L575.542 295.41H521.621L494.661 248.558L521.621 201.706Z" fill="#4E75D8" fill-opacity="0.1"/>
<path d="M775.107 210.254L747.705 283.558L756.267 286.776L783.669 213.473L775.107 210.254Z" fill="#4E75D8" fill-opacity="0.1"/>
<path d="M796.104 248.935L781.074 264.008L787.525 270.477L809.037 248.935L787.525 227.362L781.074 233.831L796.104 248.935Z" fill="#4E75D8" fill-opacity="0.1"/>
<path d="M750.956 264.009L735.895 248.904L750.956 233.831L744.475 227.362L722.994 248.904L744.475 270.477L750.956 264.009Z" fill="#4E75D8" fill-opacity="0.1"/>
<path d="M800.665 305.647L833.543 248.558L800.665 191.469H734.908L702.029 248.558L734.908 305.647H800.665ZM740.826 201.706H794.747L821.738 248.558L794.747 295.41H740.826L713.866 248.558L740.826 201.706Z" fill="#4E75D8" fill-opacity="0.1"/>
<path d="M885.837 145.65L858.436 218.953L866.997 222.172L894.399 148.868L885.837 145.65Z" fill="#4E75D8" fill-opacity="0.1"/>
<path d="M906.813 184.332L891.783 199.405L898.234 205.874L919.746 184.332L898.234 162.759L891.783 169.228L906.813 184.332Z" fill="#4E75D8" fill-opacity="0.1"/>
<path d="M861.687 199.405L846.625 184.301L861.687 169.228L855.205 162.759L833.725 184.301L855.205 205.874L861.687 199.405Z" fill="#4E75D8" fill-opacity="0.1"/>
<path d="M911.395 241.044L944.274 183.955L911.395 126.866H845.638L812.76 183.955L845.638 241.044H911.395ZM851.556 137.103H905.477L932.469 183.955L905.477 230.806H851.556L824.596 183.955L851.556 137.103Z" fill="#4E75D8" fill-opacity="0.1"/>
<path d="M994.263 210.254L966.861 283.558L975.423 286.776L1002.82 213.473L994.263 210.254Z" fill="#4E75D8" fill-opacity="0.1"/>
<path d="M1015.24 248.936L1000.21 264.009L1006.66 270.477L1028.17 248.936L1006.66 227.362L1000.21 233.831L1015.24 248.936Z" fill="#4E75D8" fill-opacity="0.1"/>
<path d="M970.115 264.009L955.053 248.904L970.115 233.831L963.633 227.362L942.152 248.904L963.633 270.477L970.115 264.009Z" fill="#4E75D8" fill-opacity="0.1"/>
<path d="M1019.82 305.647L1052.7 248.558L1019.82 191.469H954.066L921.187 248.558L954.066 305.647H1019.82ZM959.984 201.706H1013.9L1040.9 248.558L1013.9 295.41H959.984L933.024 248.558L959.984 201.706Z" fill="#4E75D8" fill-opacity="0.1"/>
<path d="M1105.03 145.649L1077.62 218.953L1086.18 222.171L1113.59 148.868L1105.03 145.649Z" fill="#4E75D8" fill-opacity="0.1"/>
<path d="M1126 184.332L1110.97 199.405L1117.42 205.873L1138.93 184.332L1117.42 162.758L1110.97 169.227L1126 184.332Z" fill="#4E75D8" fill-opacity="0.1"/>
<path d="M1080.87 199.405L1065.81 184.3L1080.87 169.227L1074.39 162.758L1052.91 184.3L1074.39 205.873L1080.87 199.405Z" fill="#4E75D8" fill-opacity="0.1"/>
<path d="M1130.58 241.044L1163.46 183.955L1130.58 126.866H1064.83L1031.95 183.955L1064.83 241.044H1130.58ZM1070.74 137.103H1124.67L1151.66 183.955L1124.67 230.807H1070.74L1043.78 183.955L1070.74 137.103Z" fill="#4E75D8" fill-opacity="0.1"/>
<path d="M1213.45 210.255L1186.05 283.559L1194.61 286.777L1222.01 213.474L1213.45 210.255Z" fill="#4E75D8" fill-opacity="0.1"/>
<path d="M1234.43 248.936L1219.4 264.009L1225.85 270.478L1247.36 248.936L1225.85 227.363L1219.4 233.832L1234.43 248.936Z" fill="#4E75D8" fill-opacity="0.1"/>
<path d="M1189.3 264.009L1174.24 248.905L1189.3 233.832L1182.82 227.363L1161.34 248.905L1182.82 270.478L1189.3 264.009Z" fill="#4E75D8" fill-opacity="0.1"/>
<path d="M1239.01 305.649L1271.89 248.56L1239.01 191.471H1173.25L1140.37 248.56L1173.25 305.649H1239.01ZM1179.17 201.708H1233.09L1260.08 248.56L1233.09 295.411H1179.17L1152.21 248.56L1179.17 201.708Z" fill="#4E75D8" fill-opacity="0.1"/>
<path d="M1324.22 145.649L1296.81 218.952L1305.38 222.171L1332.78 148.867L1324.22 145.649Z" fill="#4E75D8" fill-opacity="0.1"/>
<path d="M1345.19 184.331L1330.16 199.404L1336.61 205.873L1358.12 184.331L1336.61 162.758L1330.16 169.227L1345.19 184.331Z" fill="#4E75D8" fill-opacity="0.1"/>
<path d="M1300.07 199.404L1285 184.3L1300.07 169.227L1293.58 162.758L1272.1 184.3L1293.58 205.873L1300.07 199.404Z" fill="#4E75D8" fill-opacity="0.1"/>
<path d="M1349.77 241.044L1382.65 183.955L1349.77 126.866H1284.02L1251.14 183.955L1284.02 241.044H1349.77ZM1289.94 137.103H1343.86L1370.85 183.955L1343.86 230.806H1289.94L1262.98 183.955L1289.94 137.103Z" fill="#4E75D8" fill-opacity="0.1"/>
<path d="M1432.63 210.254L1405.23 283.558L1413.79 286.776L1441.2 213.473L1432.63 210.254Z" fill="#4E75D8" fill-opacity="0.1"/>
<path d="M1453.61 248.936L1438.58 264.009L1445.03 270.477L1466.54 248.936L1445.03 227.362L1438.58 233.831L1453.61 248.936Z" fill="#4E75D8" fill-opacity="0.1"/>
<path d="M1408.48 264.009L1393.42 248.904L1408.48 233.831L1402 227.362L1380.52 248.904L1402 270.477L1408.48 264.009Z" fill="#4E75D8" fill-opacity="0.1"/>
<path d="M1458.19 305.647L1491.07 248.558L1458.19 191.469H1392.44L1359.56 248.558L1392.44 305.647H1458.19ZM1398.35 201.706H1452.27L1479.27 248.558L1452.27 295.41H1398.35L1371.39 248.558L1398.35 201.706Z" fill="#4E75D8" fill-opacity="0.1"/>
<path d="M1543.43 145.649L1516.02 218.952L1524.59 222.171L1551.99 148.867L1543.43 145.649Z" fill="#4E75D8" fill-opacity="0.1"/>
<path d="M1564.4 184.332L1549.37 199.405L1555.82 205.874L1577.33 184.332L1555.82 162.759L1549.37 169.228L1564.4 184.332Z" fill="#4E75D8" fill-opacity="0.1"/>
<path d="M1519.27 199.405L1504.21 184.301L1519.27 169.228L1512.79 162.759L1491.31 184.301L1512.79 205.874L1519.27 199.405Z" fill="#4E75D8" fill-opacity="0.1"/>
<path d="M1568.98 241.044L1601.86 183.955L1568.98 126.866H1503.23L1470.35 183.955L1503.23 241.044H1568.98ZM1509.14 137.103H1563.07L1590.06 183.955L1563.07 230.806H1509.14L1482.18 183.955L1509.14 137.103Z" fill="#4E75D8" fill-opacity="0.1"/>
<path d="M1651.86 210.254L1624.46 283.558L1633.02 286.776L1660.42 213.473L1651.86 210.254Z" fill="#4E75D8" fill-opacity="0.1"/>
<path d="M1672.83 248.936L1657.8 264.009L1664.25 270.477L1685.77 248.936L1664.25 227.362L1657.8 233.831L1672.83 248.936Z" fill="#4E75D8" fill-opacity="0.1"/>
<path d="M1627.71 264.009L1612.65 248.904L1627.71 233.831L1621.22 227.362L1599.74 248.904L1621.22 270.477L1627.71 264.009Z" fill="#4E75D8" fill-opacity="0.1"/>
<path d="M1677.41 305.647L1710.29 248.558L1677.41 191.469H1611.66L1578.78 248.558L1611.66 305.647H1677.41ZM1617.58 201.706H1671.5L1698.49 248.558L1671.5 295.41H1617.58L1590.62 248.558L1617.58 201.706Z" fill="#4E75D8" fill-opacity="0.1"/>
<path d="M9.07768 272.518L-18.3242 345.821L-9.76258 349.04L17.6393 275.736L9.07768 272.518Z" fill="#4E75D8" fill-opacity="0.1"/>
<path d="M30.0536 311.2L15.0234 326.273L21.4739 332.742L42.9858 311.2L21.4739 289.627L15.0234 296.096L30.0536 311.2Z" fill="#4E75D8" fill-opacity="0.1"/>
<path d="M34.6353 367.914L67.5138 310.825L34.6353 253.736H-31.1216L-64 310.825L-31.1216 367.914H34.6353ZM-25.2034 263.973H28.7176L55.7092 310.825L28.7176 357.677H-25.2034L-52.1637 310.825L-25.2034 263.973Z" fill="#4E75D8" fill-opacity="0.1"/>
<path d="M117.509 337.12L90.1074 410.424L98.6691 413.643L126.071 340.339L117.509 337.12Z" fill="#4E75D8" fill-opacity="0.1"/>
<path d="M138.503 375.802L123.473 390.875L129.923 397.344L151.435 375.802L129.923 354.229L123.473 360.697L138.503 375.802Z" fill="#4E75D8" fill-opacity="0.1"/>
<path d="M93.3764 390.875L78.3149 375.77L93.3764 360.697L86.8946 354.229L65.4141 375.77L86.8946 397.344L93.3764 390.875Z" fill="#4E75D8" fill-opacity="0.1"/>
<path d="M143.085 432.514L175.963 375.426L143.085 318.336H77.3277L44.4492 375.426L77.3277 432.514H143.085ZM83.2458 328.574H137.167L164.158 375.426L137.167 422.277H83.2458L56.2856 375.426L83.2458 328.574Z" fill="#4E75D8" fill-opacity="0.1"/>
<path d="M228.232 272.518L200.83 345.821L209.392 349.04L236.794 275.736L228.232 272.518Z" fill="#4E75D8" fill-opacity="0.1"/>
<path d="M249.225 311.201L234.195 326.274L240.646 332.742L262.158 311.201L240.646 289.627L234.195 296.096L249.225 311.201Z" fill="#4E75D8" fill-opacity="0.1"/>
<path d="M204.099 326.274L189.038 311.169L204.099 296.096L197.617 289.627L176.137 311.169L197.617 332.742L204.099 326.274Z" fill="#4E75D8" fill-opacity="0.1"/>
<path d="M253.807 367.913L286.686 310.824L253.807 253.735H188.05L155.172 310.824L188.05 367.913H253.807ZM193.968 263.972H247.889L274.881 310.824L247.889 357.676H193.968L167.008 310.824L193.968 263.972Z" fill="#4E75D8" fill-opacity="0.1"/>
<path d="M336.71 337.121L309.309 410.425L317.87 413.644L345.272 340.34L336.71 337.121Z" fill="#4E75D8" fill-opacity="0.1"/>
<path d="M357.686 375.803L342.656 390.876L349.107 397.345L370.619 375.803L349.107 354.229L342.656 360.698L357.686 375.803Z" fill="#4E75D8" fill-opacity="0.1"/>
<path d="M312.56 390.876L297.499 375.771L312.56 360.698L306.078 354.229L284.598 375.771L306.078 397.345L312.56 390.876Z" fill="#4E75D8" fill-opacity="0.1"/>
<path d="M362.268 432.515L395.147 375.427L362.268 318.337H296.511L263.633 375.427L296.511 432.515H362.268ZM302.429 328.575H356.35L383.342 375.427L356.35 422.278H302.429L275.469 375.427L302.429 328.575Z" fill="#4E75D8" fill-opacity="0.1"/>
<path d="M447.447 272.518L420.045 345.821L428.607 349.04L456.008 275.736L447.447 272.518Z" fill="#4E75D8" fill-opacity="0.1"/>
<path d="M468.44 311.2L453.41 326.273L459.861 332.742L481.372 311.2L459.861 289.627L453.41 296.096L468.44 311.2Z" fill="#4E75D8" fill-opacity="0.1"/>
<path d="M423.314 326.273L408.252 311.169L423.314 296.096L416.832 289.627L395.352 311.169L416.832 332.742L423.314 326.273Z" fill="#4E75D8" fill-opacity="0.1"/>
<path d="M473.022 367.913L505.9 310.824L473.022 253.735H407.265L374.387 310.824L407.265 367.913H473.022ZM413.183 263.972H467.104L494.096 310.824L467.104 357.676H413.183L386.223 310.824L413.183 263.972Z" fill="#4E75D8" fill-opacity="0.1"/>
<path d="M555.902 337.123L528.5 410.426L537.062 413.645L564.464 340.341L555.902 337.123Z" fill="#4E75D8" fill-opacity="0.1"/>
<path d="M576.878 375.806L561.848 390.879L568.298 397.347L589.81 375.806L568.298 354.232L561.848 360.701L576.878 375.806Z" fill="#4E75D8" fill-opacity="0.1"/>
<path d="M531.751 390.879L516.69 375.774L531.751 360.701L525.27 354.232L503.789 375.774L525.27 397.347L531.751 390.879Z" fill="#4E75D8" fill-opacity="0.1"/>
<path d="M581.46 432.517L614.338 375.428L581.46 318.339H515.703L482.824 375.428L515.703 432.517H581.46ZM521.621 328.576H575.542L602.533 375.428L575.542 422.28H521.621L494.661 375.428L521.621 328.576Z" fill="#4E75D8" fill-opacity="0.1"/>
<path d="M666.632 272.518L639.23 345.821L647.792 349.04L675.194 275.736L666.632 272.518Z" fill="#4E75D8" fill-opacity="0.1"/>
<path d="M687.626 311.2L672.596 326.273L679.046 332.742L700.558 311.2L679.046 289.627L672.596 296.096L687.626 311.2Z" fill="#4E75D8" fill-opacity="0.1"/>
<path d="M642.499 326.273L627.438 311.169L642.499 296.096L636.018 289.627L614.537 311.169L636.018 332.742L642.499 326.273Z" fill="#4E75D8" fill-opacity="0.1"/>
<path d="M692.208 367.913L725.086 310.824L692.208 253.735H626.451L593.572 310.824L626.451 367.913H692.208ZM632.369 263.972H686.29L713.281 310.824L686.29 357.676H632.369L605.409 310.824L632.369 263.972Z" fill="#4E75D8" fill-opacity="0.1"/>
<path d="M775.107 337.122L747.705 410.426L756.267 413.645L783.669 340.341L775.107 337.122Z" fill="#4E75D8" fill-opacity="0.1"/>
<path d="M796.104 375.805L781.074 390.878L787.525 397.347L809.037 375.805L787.525 354.232L781.074 360.701L796.104 375.805Z" fill="#4E75D8" fill-opacity="0.1"/>
<path d="M750.956 390.878L735.895 375.774L750.956 360.701L744.475 354.232L722.994 375.774L744.475 397.347L750.956 390.878Z" fill="#4E75D8" fill-opacity="0.1"/>
<path d="M800.665 432.516L833.543 375.428L800.665 318.338H734.908L702.029 375.428L734.908 432.516H800.665ZM740.826 328.575H794.747L821.738 375.428L794.747 422.279H740.826L713.866 375.428L740.826 328.575Z" fill="#4E75D8" fill-opacity="0.1"/>
<path d="M885.837 272.518L858.436 345.821L866.997 349.04L894.399 275.736L885.837 272.518Z" fill="#4E75D8" fill-opacity="0.1"/>
<path d="M906.813 311.201L891.783 326.274L898.234 332.743L919.746 311.201L898.234 289.628L891.783 296.097L906.813 311.201Z" fill="#4E75D8" fill-opacity="0.1"/>
<path d="M861.687 326.274L846.625 311.17L861.687 296.097L855.205 289.628L833.725 311.17L855.205 332.743L861.687 326.274Z" fill="#4E75D8" fill-opacity="0.1"/>
<path d="M911.395 367.914L944.274 310.825L911.395 253.736H845.638L812.76 310.825L845.638 367.914H911.395ZM851.556 263.973H905.477L932.469 310.825L905.477 357.677H851.556L824.596 310.825L851.556 263.973Z" fill="#4E75D8" fill-opacity="0.1"/>
<path d="M994.263 337.122L966.861 410.426L975.423 413.645L1002.82 340.341L994.263 337.122Z" fill="#4E75D8" fill-opacity="0.1"/>
<path d="M1015.24 375.803L1000.21 390.876L1006.66 397.345L1028.17 375.803L1006.66 354.23L1000.21 360.699L1015.24 375.803Z" fill="#4E75D8" fill-opacity="0.1"/>
<path d="M970.115 390.876L955.053 375.772L970.115 360.699L963.633 354.23L942.152 375.772L963.633 397.345L970.115 390.876Z" fill="#4E75D8" fill-opacity="0.1"/>
<path d="M1019.82 432.516L1052.7 375.427L1019.82 318.338H954.066L921.187 375.427L954.066 432.516H1019.82ZM959.984 328.575H1013.9L1040.9 375.427L1013.9 422.279H959.984L933.024 375.427L959.984 328.575Z" fill="#4E75D8" fill-opacity="0.1"/>
<path d="M1105.03 272.518L1077.62 345.821L1086.18 349.04L1113.59 275.736L1105.03 272.518Z" fill="#4E75D8" fill-opacity="0.1"/>
<path d="M1126 311.2L1110.97 326.273L1117.42 332.742L1138.93 311.2L1117.42 289.627L1110.97 296.096L1126 311.2Z" fill="#4E75D8" fill-opacity="0.1"/>
<path d="M1080.87 326.273L1065.81 311.169L1080.87 296.096L1074.39 289.627L1052.91 311.169L1074.39 332.742L1080.87 326.273Z" fill="#4E75D8" fill-opacity="0.1"/>
<path d="M1130.58 367.914L1163.46 310.825L1130.58 253.736H1064.83L1031.95 310.825L1064.83 367.914H1130.58ZM1070.74 263.973H1124.67L1151.66 310.825L1124.67 357.677H1070.74L1043.78 310.825L1070.74 263.973Z" fill="#4E75D8" fill-opacity="0.1"/>
<path d="M1213.45 337.121L1186.05 410.425L1194.61 413.644L1222.01 340.34L1213.45 337.121Z" fill="#4E75D8" fill-opacity="0.1"/>
<path d="M1234.43 375.803L1219.4 390.876L1225.85 397.345L1247.36 375.803L1225.85 354.229L1219.4 360.698L1234.43 375.803Z" fill="#4E75D8" fill-opacity="0.1"/>
<path d="M1189.3 390.876L1174.24 375.771L1189.3 360.698L1182.82 354.229L1161.34 375.771L1182.82 397.345L1189.3 390.876Z" fill="#4E75D8" fill-opacity="0.1"/>
<path d="M1239.01 432.515L1271.89 375.427L1239.01 318.337H1173.25L1140.37 375.427L1173.25 432.515H1239.01ZM1179.17 328.575H1233.09L1260.08 375.427L1233.09 422.278H1179.17L1152.21 375.427L1179.17 328.575Z" fill="#4E75D8" fill-opacity="0.1"/>
<path d="M1324.22 272.518L1296.81 345.821L1305.38 349.04L1332.78 275.736L1324.22 272.518Z" fill="#4E75D8" fill-opacity="0.1"/>
<path d="M1345.19 311.2L1330.16 326.273L1336.61 332.742L1358.12 311.2L1336.61 289.627L1330.16 296.096L1345.19 311.2Z" fill="#4E75D8" fill-opacity="0.1"/>
<path d="M1300.07 326.273L1285 311.169L1300.07 296.096L1293.58 289.627L1272.1 311.169L1293.58 332.742L1300.07 326.273Z" fill="#4E75D8" fill-opacity="0.1"/>
<path d="M1349.77 367.913L1382.65 310.824L1349.77 253.735H1284.02L1251.14 310.824L1284.02 367.913H1349.77ZM1289.94 263.972H1343.86L1370.85 310.824L1343.86 357.676H1289.94L1262.98 310.824L1289.94 263.972Z" fill="#4E75D8" fill-opacity="0.1"/>
<path d="M1432.63 337.123L1405.23 410.426L1413.79 413.645L1441.2 340.341L1432.63 337.123Z" fill="#4E75D8" fill-opacity="0.1"/>
<path d="M1453.61 375.806L1438.58 390.879L1445.03 397.347L1466.54 375.806L1445.03 354.232L1438.58 360.701L1453.61 375.806Z" fill="#4E75D8" fill-opacity="0.1"/>
<path d="M1408.48 390.879L1393.42 375.774L1408.48 360.701L1402 354.232L1380.52 375.774L1402 397.347L1408.48 390.879Z" fill="#4E75D8" fill-opacity="0.1"/>
<path d="M1458.19 432.517L1491.07 375.428L1458.19 318.339H1392.44L1359.56 375.428L1392.44 432.517H1458.19ZM1398.35 328.576H1452.27L1479.27 375.428L1452.27 422.28H1398.35L1371.39 375.428L1398.35 328.576Z" fill="#4E75D8" fill-opacity="0.1"/>
<path d="M1543.43 272.519L1516.02 345.822L1524.59 349.041L1551.99 275.737L1543.43 272.519Z" fill="#4E75D8" fill-opacity="0.1"/>
<path d="M1564.4 311.201L1549.37 326.274L1555.82 332.743L1577.33 311.201L1555.82 289.628L1549.37 296.097L1564.4 311.201Z" fill="#4E75D8" fill-opacity="0.1"/>
<path d="M1519.27 326.274L1504.21 311.17L1519.27 296.097L1512.79 289.628L1491.31 311.17L1512.79 332.743L1519.27 326.274Z" fill="#4E75D8" fill-opacity="0.1"/>
<path d="M1568.98 367.914L1601.86 310.825L1568.98 253.736H1503.23L1470.35 310.825L1503.23 367.914H1568.98ZM1509.14 263.973H1563.07L1590.06 310.825L1563.07 357.677H1509.14L1482.18 310.825L1509.14 263.973Z" fill="#4E75D8" fill-opacity="0.1"/>
<path d="M228.25 399.387L200.848 472.69L209.409 475.909L236.811 402.606L228.25 399.387Z" fill="#4E75D8" fill-opacity="0.1"/>
<path d="M249.225 438.069L234.195 453.142L240.646 459.611L262.158 438.069L240.646 416.496L234.195 422.964L249.225 438.069Z" fill="#4E75D8" fill-opacity="0.1"/>
<path d="M204.099 453.142L189.038 438.037L204.099 422.964L197.617 416.496L176.137 438.037L197.617 459.611L204.099 453.142Z" fill="#4E75D8" fill-opacity="0.1"/>
<path d="M253.807 494.781L286.686 437.693L253.807 380.604H188.05L155.172 437.693L188.05 494.781H253.807ZM193.968 390.841H247.889L274.881 437.693L247.889 484.544H193.968L167.008 437.693L193.968 390.841Z" fill="#4E75D8" fill-opacity="0.1"/>
<path d="M336.71 463.989L309.309 537.293L317.87 540.512L345.272 467.208L336.71 463.989Z" fill="#4E75D8" fill-opacity="0.1"/>
<path d="M357.686 502.67L342.656 517.743L349.107 524.212L370.619 502.67L349.107 481.097L342.656 487.566L357.686 502.67Z" fill="#4E75D8" fill-opacity="0.1"/>
<path d="M312.56 517.743L297.499 502.639L312.56 487.566L306.078 481.097L284.598 502.639L306.078 524.212L312.56 517.743Z" fill="#4E75D8" fill-opacity="0.1"/>
<path d="M362.268 559.383L395.147 502.294L362.268 445.205H296.511L263.633 502.294L296.511 559.383H362.268ZM302.429 455.442H356.35L383.342 502.294L356.35 549.146H302.429L275.469 502.294L302.429 455.442Z" fill="#4E75D8" fill-opacity="0.1"/>
<path d="M447.464 399.387L420.062 472.69L428.624 475.909L456.026 402.606L447.464 399.387Z" fill="#4E75D8" fill-opacity="0.1"/>
<path d="M468.44 438.069L453.41 453.142L459.861 459.611L481.372 438.069L459.861 416.496L453.41 422.964L468.44 438.069Z" fill="#4E75D8" fill-opacity="0.1"/>
<path d="M423.314 453.142L408.252 438.037L423.314 422.964L416.832 416.496L395.352 438.037L416.832 459.611L423.314 453.142Z" fill="#4E75D8" fill-opacity="0.1"/>
<path d="M473.022 494.781L505.9 437.693L473.022 380.604H407.265L374.387 437.693L407.265 494.781H473.022ZM413.183 390.841H467.104L494.096 437.693L467.104 484.544H413.183L386.223 437.693L413.183 390.841Z" fill="#4E75D8" fill-opacity="0.1"/>
<path d="M666.632 399.388L639.23 472.691L647.792 475.91L675.194 402.607L666.632 399.388Z" fill="#4E75D8" fill-opacity="0.1"/>
<path d="M687.608 438.069L672.578 453.142L679.029 459.611L700.54 438.069L679.029 416.496L672.578 422.965L687.608 438.069Z" fill="#4E75D8" fill-opacity="0.1"/>
<path d="M642.482 453.142L627.42 438.038L642.482 422.965L636 416.496L614.52 438.038L636 459.611L642.482 453.142Z" fill="#4E75D8" fill-opacity="0.1"/>
<path d="M692.19 494.782L725.068 437.694L692.19 380.604H626.433L593.555 437.694L626.433 494.782H692.19ZM632.351 390.842H686.272L713.264 437.694L686.272 484.545H632.351L605.391 437.694L632.351 390.842Z" fill="#4E75D8" fill-opacity="0.1"/>
<path d="M775.107 463.99L747.705 537.293L756.267 540.512L783.669 467.209L775.107 463.99Z" fill="#4E75D8" fill-opacity="0.1"/>
<path d="M796.104 502.671L781.074 517.744L787.525 524.213L809.037 502.671L787.525 481.098L781.074 487.566L796.104 502.671Z" fill="#4E75D8" fill-opacity="0.1"/>
<path d="M750.956 517.744L735.895 502.639L750.956 487.566L744.475 481.098L722.994 502.639L744.475 524.213L750.956 517.744Z" fill="#4E75D8" fill-opacity="0.1"/>
<path d="M800.665 559.383L833.543 502.295L800.665 445.206H734.908L702.029 502.295L734.908 559.383H800.665ZM740.826 455.443H794.747L821.738 502.295L794.747 549.146H740.826L713.866 502.295L740.826 455.443Z" fill="#4E75D8" fill-opacity="0.1"/>
<path d="M885.837 399.387L858.436 472.69L866.997 475.909L894.399 402.606L885.837 399.387Z" fill="#4E75D8" fill-opacity="0.1"/>
<path d="M906.813 438.069L891.783 453.142L898.234 459.611L919.746 438.069L898.234 416.496L891.783 422.964L906.813 438.069Z" fill="#4E75D8" fill-opacity="0.1"/>
<path d="M861.687 453.142L846.625 438.037L861.687 422.964L855.205 416.496L833.725 438.037L855.205 459.611L861.687 453.142Z" fill="#4E75D8" fill-opacity="0.1"/>
<path d="M911.395 494.781L944.274 437.693L911.395 380.604H845.638L812.76 437.693L845.638 494.781H911.395ZM851.556 390.841H905.477L932.469 437.693L905.477 484.544H851.556L824.596 437.693L851.556 390.841Z" fill="#4E75D8" fill-opacity="0.1"/>
<path d="M994.263 463.991L966.861 537.294L975.423 540.513L1002.82 467.21L994.263 463.991Z" fill="#4E75D8" fill-opacity="0.1"/>
<path d="M1015.24 502.671L1000.21 517.744L1006.66 524.213L1028.17 502.671L1006.66 481.098L1000.21 487.566L1015.24 502.671Z" fill="#4E75D8" fill-opacity="0.1"/>
<path d="M970.115 517.744L955.053 502.639L970.115 487.566L963.633 481.098L942.152 502.639L963.633 524.213L970.115 517.744Z" fill="#4E75D8" fill-opacity="0.1"/>
<path d="M1019.82 559.383L1052.7 502.295L1019.82 445.206H954.066L921.187 502.295L954.066 559.383H1019.82ZM959.984 455.443H1013.9L1040.9 502.295L1013.9 549.146H959.984L933.024 502.295L959.984 455.443Z" fill="#4E75D8" fill-opacity="0.1"/>
<path d="M1105.03 399.387L1077.62 472.69L1086.18 475.909L1113.59 402.606L1105.03 399.387Z" fill="#4E75D8" fill-opacity="0.1"/>
<path d="M1126 438.069L1110.97 453.142L1117.42 459.611L1138.93 438.069L1117.42 416.496L1110.97 422.964L1126 438.069Z" fill="#4E75D8" fill-opacity="0.1"/>
<path d="M1080.87 453.142L1065.81 438.037L1080.87 422.964L1074.39 416.496L1052.91 438.037L1074.39 459.611L1080.87 453.142Z" fill="#4E75D8" fill-opacity="0.1"/>
<path d="M1130.58 494.781L1163.46 437.693L1130.58 380.604H1064.83L1031.95 437.693L1064.83 494.781H1130.58ZM1070.74 390.841H1124.67L1151.66 437.693L1124.67 484.544H1070.74L1043.78 437.693L1070.74 390.841Z" fill="#4E75D8" fill-opacity="0.1"/>
<path d="M1213.45 463.99L1186.05 537.293L1194.61 540.512L1222.01 467.209L1213.45 463.99Z" fill="#4E75D8" fill-opacity="0.1"/>
<path d="M1234.43 502.671L1219.4 517.744L1225.85 524.213L1247.36 502.671L1225.85 481.098L1219.4 487.566L1234.43 502.671Z" fill="#4E75D8" fill-opacity="0.1"/>
<path d="M1189.3 517.744L1174.24 502.639L1189.3 487.566L1182.82 481.098L1161.34 502.639L1182.82 524.213L1189.3 517.744Z" fill="#4E75D8" fill-opacity="0.1"/>
<path d="M1239.01 559.383L1271.89 502.295L1239.01 445.206H1173.25L1140.37 502.295L1173.25 559.383H1239.01ZM1179.17 455.443H1233.09L1260.08 502.295L1233.09 549.146H1179.17L1152.21 502.295L1179.17 455.443Z" fill="#4E75D8" fill-opacity="0.1"/>
<path d="M1324.22 399.387L1296.81 472.69L1305.38 475.909L1332.78 402.606L1324.22 399.387Z" fill="#4E75D8" fill-opacity="0.1"/>
<path d="M1345.19 438.069L1330.16 453.142L1336.61 459.611L1358.12 438.069L1336.61 416.496L1330.16 422.964L1345.19 438.069Z" fill="#4E75D8" fill-opacity="0.1"/>
<path d="M1300.07 453.142L1285 438.037L1300.07 422.964L1293.58 416.496L1272.1 438.037L1293.58 459.611L1300.07 453.142Z" fill="#4E75D8" fill-opacity="0.1"/>
<path d="M1349.77 494.781L1382.65 437.693L1349.77 380.604H1284.02L1251.14 437.693L1284.02 494.781H1349.77ZM1289.94 390.841H1343.86L1370.85 437.693L1343.86 484.544H1289.94L1262.98 437.693L1289.94 390.841Z" fill="#4E75D8" fill-opacity="0.1"/>
<path d="M1432.63 463.989L1405.23 537.293L1413.79 540.512L1441.2 467.208L1432.63 463.989Z" fill="#4E75D8" fill-opacity="0.1"/>
<path d="M1453.61 502.67L1438.58 517.743L1445.03 524.212L1466.54 502.67L1445.03 481.097L1438.58 487.566L1453.61 502.67Z" fill="#4E75D8" fill-opacity="0.1"/>
<path d="M1408.48 517.743L1393.42 502.639L1408.48 487.566L1402 481.097L1380.52 502.639L1402 524.212L1408.48 517.743Z" fill="#4E75D8" fill-opacity="0.1"/>
<path d="M1458.19 559.383L1491.07 502.294L1458.19 445.205H1392.44L1359.56 502.294L1392.44 559.383H1458.19ZM1398.35 455.442H1452.27L1479.27 502.294L1452.27 549.146H1398.35L1371.39 502.294L1398.35 455.442Z" fill="#4E75D8" fill-opacity="0.1"/>
<path d="M1543.43 399.387L1516.02 472.69L1524.59 475.909L1551.99 402.606L1543.43 399.387Z" fill="#4E75D8" fill-opacity="0.1"/>
<path d="M1564.4 438.069L1549.37 453.142L1555.82 459.611L1577.33 438.069L1555.82 416.496L1549.37 422.964L1564.4 438.069Z" fill="#4E75D8" fill-opacity="0.1"/>
<path d="M1519.27 453.142L1504.21 438.037L1519.27 422.964L1512.79 416.496L1491.31 438.037L1512.79 459.611L1519.27 453.142Z" fill="#4E75D8" fill-opacity="0.1"/>
<path d="M1568.98 494.781L1601.86 437.693L1568.98 380.604H1503.23L1470.35 437.693L1503.23 494.781H1568.98ZM1509.14 390.841H1563.07L1590.06 437.693L1563.07 484.544H1509.14L1482.18 437.693L1509.14 390.841Z" fill="#4E75D8" fill-opacity="0.1"/>
<path d="M228.232 526.254L200.83 599.557L209.392 602.776L236.794 529.472L228.232 526.254Z" fill="#4E75D8" fill-opacity="0.1"/>
<path d="M249.225 564.935L234.195 580.008L240.646 586.477L262.158 564.935L240.646 543.362L234.195 549.831L249.225 564.935Z" fill="#4E75D8" fill-opacity="0.1"/>
<path d="M204.099 580.008L189.038 564.904L204.099 549.831L197.617 543.362L176.137 564.904L197.617 586.477L204.099 580.008Z" fill="#4E75D8" fill-opacity="0.1"/>
<path d="M253.807 621.648L286.686 564.559L253.807 507.47H188.05L155.172 564.559L188.05 621.648H253.807ZM193.968 517.707H247.889L274.881 564.559L247.889 611.41H193.968L167.008 564.559L193.968 517.707Z" fill="#4E75D8" fill-opacity="0.1"/>
<path d="M447.447 526.253L420.045 599.557L428.607 602.775L456.008 529.472L447.447 526.253Z" fill="#4E75D8" fill-opacity="0.1"/>
<path d="M468.44 564.935L453.41 580.008L459.861 586.477L481.372 564.935L459.861 543.362L453.41 549.831L468.44 564.935Z" fill="#4E75D8" fill-opacity="0.1"/>
<path d="M423.314 580.008L408.252 564.904L423.314 549.831L416.832 543.362L395.352 564.904L416.832 586.477L423.314 580.008Z" fill="#4E75D8" fill-opacity="0.1"/>
<path d="M473.022 621.648L505.9 564.559L473.022 507.47H407.265L374.387 564.559L407.265 621.648H473.022ZM413.183 517.707H467.104L494.096 564.559L467.104 611.41H413.183L386.223 564.559L413.183 517.707Z" fill="#4E75D8" fill-opacity="0.1"/>
<path d="M1105.03 526.252L1077.62 599.556L1086.18 602.774L1113.59 529.471L1105.03 526.252Z" fill="#4E75D8" fill-opacity="0.1"/>
<path d="M1126 564.935L1110.97 580.008L1117.42 586.476L1138.93 564.935L1117.42 543.361L1110.97 549.83L1126 564.935Z" fill="#4E75D8" fill-opacity="0.1"/>
<path d="M1080.87 580.008L1065.81 564.903L1080.87 549.83L1074.39 543.361L1052.91 564.903L1074.39 586.476L1080.87 580.008Z" fill="#4E75D8" fill-opacity="0.1"/>
<path d="M1130.58 621.647L1163.46 564.558L1130.58 507.469H1064.83L1031.95 564.558L1064.83 621.647H1130.58ZM1070.74 517.706H1124.67L1151.66 564.558L1124.67 611.41H1070.74L1043.78 564.558L1070.74 517.706Z" fill="#4E75D8" fill-opacity="0.1"/>
</svg>
