<svg width="741" height="621" viewBox="0 0 741 621" fill="none" xmlns="http://www.w3.org/2000/svg">
<g opacity="0.1">
<path d="M400.179 209.969L372.814 283.173L381.364 286.387L408.729 213.183L400.179 209.969Z" fill="#4E75D8"/>
<path d="M421.125 248.598L406.115 263.65L412.557 270.11L434.04 248.598L412.557 227.054L406.115 233.514L421.125 248.598Z" fill="#4E75D8"/>
<path d="M376.061 263.65L361.02 248.566L376.061 233.514L369.588 227.054L348.137 248.566L369.588 270.11L376.061 263.65Z" fill="#4E75D8"/>
<path d="M425.701 305.233L458.535 248.221L425.701 191.209H360.033L327.199 248.221L360.033 305.233H425.701ZM365.943 201.433H419.791L446.746 248.221L419.791 295.009H365.943L339.019 248.221L365.943 201.433Z" fill="#4E75D8"/>
<path d="M619.082 209.969L591.717 283.173L600.267 286.387L627.632 213.183L619.082 209.969Z" fill="#4E75D8"/>
<path d="M640.053 248.598L625.043 263.65L631.485 270.11L652.967 248.598L631.485 227.054L625.043 233.514L640.053 248.598Z" fill="#4E75D8"/>
<path d="M594.962 263.65L579.92 248.566L594.962 233.514L588.489 227.054L567.037 248.566L588.489 270.11L594.962 263.65Z" fill="#4E75D8"/>
<path d="M644.603 305.233L677.437 248.221L644.603 191.209H578.935L546.102 248.221L578.935 305.233H644.603ZM584.846 201.433H638.693L665.648 248.221L638.693 295.009H584.846L557.922 248.221L584.846 201.433Z" fill="#4E75D8"/>
<path d="M729.669 145.451L702.305 218.655L710.855 221.87L738.219 148.665L729.669 145.451Z" fill="#4E75D8"/>
<path d="M750.613 184.082L735.603 199.135L742.045 205.595L763.528 184.082L742.045 162.538L735.603 168.998L750.613 184.082Z" fill="#4E75D8"/>
<path d="M705.549 199.135L690.508 184.051L705.549 168.998L699.076 162.538L677.625 184.051L699.076 205.595L705.549 199.135Z" fill="#4E75D8"/>
<path d="M755.191 240.716L788.025 183.705L755.191 126.693H689.523L656.689 183.705L689.523 240.716H755.191ZM695.433 136.917H749.281L776.236 183.705L749.281 230.493H695.433L668.51 183.705L695.433 136.917Z" fill="#4E75D8"/>
<path d="M181.281 336.664L153.916 409.868L162.466 413.083L189.831 339.878L181.281 336.664Z" fill="#4E75D8"/>
<path d="M202.227 375.293L187.217 390.346L193.659 396.806L215.141 375.293L193.659 353.749L187.217 360.209L202.227 375.293Z" fill="#4E75D8"/>
<path d="M157.163 390.346L142.122 375.262L157.163 360.209L150.69 353.749L129.238 375.262L150.69 396.806L157.163 390.346Z" fill="#4E75D8"/>
<path d="M206.802 431.928L239.636 374.917L206.802 317.905H141.135L108.301 374.917L141.135 431.928H206.802ZM147.045 328.128H200.893L227.848 374.917L200.893 421.705H147.045L120.121 374.917L147.045 328.128Z" fill="#4E75D8"/>
<path d="M291.865 272.148L264.5 345.353L273.05 348.567L300.415 275.363L291.865 272.148Z" fill="#4E75D8"/>
<path d="M312.836 310.778L297.826 325.831L304.268 332.291L325.751 310.778L304.268 289.234L297.826 295.694L312.836 310.778Z" fill="#4E75D8"/>
<path d="M267.772 325.831L252.731 310.747L267.772 295.694L261.299 289.234L239.848 310.747L261.299 332.291L267.772 325.831Z" fill="#4E75D8"/>
<path d="M317.412 367.415L350.246 310.403L317.412 253.392H251.744L218.91 310.403L251.744 367.415H317.412ZM257.654 263.615H311.502L338.457 310.403L311.502 357.191H257.654L230.73 310.403L257.654 263.615Z" fill="#4E75D8"/>
<path d="M400.179 336.665L372.814 409.869L381.364 413.084L408.729 339.879L400.179 336.665Z" fill="#4E75D8"/>
<path d="M421.125 375.296L406.115 390.348L412.557 396.809L434.04 375.296L412.557 353.752L406.115 360.212L421.125 375.296Z" fill="#4E75D8"/>
<path d="M376.061 390.348L361.02 375.265L376.061 360.212L369.588 353.752L348.137 375.265L369.588 396.809L376.061 390.348Z" fill="#4E75D8"/>
<path d="M425.701 431.93L458.535 374.918L425.701 317.907H360.033L327.199 374.918L360.033 431.93H425.701ZM365.943 328.13H419.791L446.746 374.918L419.791 421.707H365.943L339.019 374.918L365.943 328.13Z" fill="#4E75D8"/>
<path d="M510.759 272.148L483.395 345.353L491.945 348.567L519.309 275.363L510.759 272.148Z" fill="#4E75D8"/>
<path d="M531.733 310.779L516.723 325.832L523.164 332.292L544.647 310.779L523.164 289.235L516.723 295.695L531.733 310.779Z" fill="#4E75D8"/>
<path d="M486.667 325.832L471.626 310.748L486.667 295.695L480.194 289.235L458.742 310.748L480.194 332.292L486.667 325.832Z" fill="#4E75D8"/>
<path d="M536.308 367.415L569.142 310.404L536.308 253.392H470.641L437.807 310.404L470.641 367.415H536.308ZM476.551 263.615H530.399L557.354 310.404L530.399 357.192H476.551L449.627 310.404L476.551 263.615Z" fill="#4E75D8"/>
<path d="M619.082 336.665L591.717 409.869L600.267 413.084L627.632 339.879L619.082 336.665Z" fill="#4E75D8"/>
<path d="M640.053 375.295L625.043 390.348L631.485 396.808L652.967 375.295L631.485 353.751L625.043 360.212L640.053 375.295Z" fill="#4E75D8"/>
<path d="M594.962 390.348L579.92 375.264L594.962 360.212L588.489 353.751L567.037 375.264L588.489 396.808L594.962 390.348Z" fill="#4E75D8"/>
<path d="M644.603 431.93L677.437 374.918L644.603 317.907H578.935L546.102 374.918L578.935 431.93H644.603ZM584.846 328.13H638.693L665.648 374.918L638.693 421.707H584.846L557.922 374.918L584.846 328.13Z" fill="#4E75D8"/>
<path d="M729.669 272.149L702.305 345.353L710.855 348.567L738.219 275.363L729.669 272.149Z" fill="#4E75D8"/>
<path d="M750.613 310.779L735.603 325.832L742.045 332.292L763.528 310.779L742.045 289.235L735.603 295.695L750.613 310.779Z" fill="#4E75D8"/>
<path d="M705.549 325.832L690.508 310.748L705.549 295.695L699.076 289.235L677.625 310.748L699.076 332.292L705.549 325.832Z" fill="#4E75D8"/>
<path d="M755.191 367.416L788.025 310.404L755.191 253.393H689.523L656.689 310.404L689.523 367.416H755.191ZM695.433 263.616H749.281L776.236 310.404L749.281 357.192H695.433L668.51 310.404L695.433 263.616Z" fill="#4E75D8"/>
<path d="M72.98 398.845L45.6152 472.049L54.1653 475.264L81.53 402.06L72.98 398.845Z" fill="#4E75D8"/>
<path d="M93.9258 437.475L78.916 452.527L85.3577 458.987L106.84 437.475L85.3577 415.931L78.916 422.391L93.9258 437.475Z" fill="#4E75D8"/>
<path d="M48.8619 452.527L33.8209 437.443L48.8619 422.391L42.389 415.931L20.9375 437.443L42.389 458.987L48.8619 452.527Z" fill="#4E75D8"/>
<path d="M98.5016 494.11L131.335 437.099L98.5016 380.087H32.8339L0 437.099L32.8339 494.11H98.5016ZM38.744 390.311H92.5918L119.547 437.099L92.5918 483.887H38.744L11.8203 437.099L38.744 390.311Z" fill="#4E75D8"/>
<path d="M181.281 463.36L153.916 536.564L162.466 539.779L189.831 466.575L181.281 463.36Z" fill="#4E75D8"/>
<path d="M202.227 501.989L187.217 517.042L193.659 523.502L215.141 501.989L193.659 480.445L187.217 486.905L202.227 501.989Z" fill="#4E75D8"/>
<path d="M157.163 517.042L142.122 501.958L157.163 486.905L150.69 480.445L129.238 501.958L150.69 523.502L157.163 517.042Z" fill="#4E75D8"/>
<path d="M206.802 558.625L239.636 501.613L206.802 444.602H141.135L108.301 501.613L141.135 558.625H206.802ZM147.045 454.825H200.893L227.848 501.613L200.893 548.401H147.045L120.121 501.613L147.045 454.825Z" fill="#4E75D8"/>
<path d="M291.89 398.846L264.525 472.05L273.075 475.264L300.44 402.06L291.89 398.846Z" fill="#4E75D8"/>
<path d="M312.836 437.475L297.826 452.527L304.268 458.987L325.751 437.475L304.268 415.931L297.826 422.391L312.836 437.475Z" fill="#4E75D8"/>
<path d="M267.772 452.527L252.731 437.443L267.772 422.391L261.299 415.931L239.848 437.443L261.299 458.987L267.772 452.527Z" fill="#4E75D8"/>
<path d="M317.412 494.11L350.246 437.099L317.412 380.087H251.744L218.91 437.099L251.744 494.11H317.412ZM257.654 390.311H311.502L338.457 437.099L311.502 483.887H257.654L230.73 437.099L257.654 390.311Z" fill="#4E75D8"/>
<path d="M510.769 398.846L483.404 472.05L491.954 475.264L519.319 402.06L510.769 398.846Z" fill="#4E75D8"/>
<path d="M531.715 437.475L516.705 452.528L523.147 458.988L544.629 437.475L523.147 415.931L516.705 422.391L531.715 437.475Z" fill="#4E75D8"/>
<path d="M486.649 452.528L471.608 437.444L486.649 422.391L480.176 415.931L458.725 437.444L480.176 458.988L486.649 452.528Z" fill="#4E75D8"/>
<path d="M536.291 494.111L569.124 437.1L536.291 380.088H470.623L437.789 437.1L470.623 494.111H536.291ZM476.533 390.311H530.381L557.336 437.1L530.381 483.888H476.533L449.609 437.1L476.533 390.311Z" fill="#4E75D8"/>
<path d="M619.082 463.36L591.717 536.564L600.267 539.779L627.632 466.575L619.082 463.36Z" fill="#4E75D8"/>
<path d="M640.053 501.989L625.043 517.042L631.485 523.502L652.967 501.989L631.485 480.445L625.043 486.905L640.053 501.989Z" fill="#4E75D8"/>
<path d="M594.962 517.042L579.92 501.958L594.962 486.905L588.489 480.445L567.037 501.958L588.489 523.502L594.962 517.042Z" fill="#4E75D8"/>
<path d="M644.603 558.625L677.437 501.613L644.603 444.602H578.935L546.102 501.613L578.935 558.625H644.603ZM584.846 454.825H638.693L665.648 501.613L638.693 548.401H584.846L557.922 501.613L584.846 454.825Z" fill="#4E75D8"/>
<path d="M729.669 398.846L702.305 472.05L710.855 475.264L738.219 402.06L729.669 398.846Z" fill="#4E75D8"/>
<path d="M750.613 437.475L735.603 452.527L742.045 458.987L763.528 437.475L742.045 415.931L735.603 422.391L750.613 437.475Z" fill="#4E75D8"/>
<path d="M705.549 452.527L690.508 437.443L705.549 422.391L699.076 415.931L677.625 437.443L699.076 458.987L705.549 452.527Z" fill="#4E75D8"/>
<path d="M755.191 494.11L788.025 437.099L755.191 380.087H689.523L656.689 437.099L689.523 494.11H755.191ZM695.433 390.311H749.281L776.236 437.099L749.281 483.887H695.433L668.51 437.099L695.433 390.311Z" fill="#4E75D8"/>
<path d="M291.865 525.539L264.5 598.743L273.05 601.958L300.415 528.753L291.865 525.539Z" fill="#4E75D8"/>
<path d="M312.836 564.169L297.826 579.222L304.268 585.682L325.751 564.169L304.268 542.625L297.826 549.085L312.836 564.169Z" fill="#4E75D8"/>
<path d="M267.772 579.222L252.731 564.138L267.772 549.085L261.299 542.625L239.848 564.138L261.299 585.682L267.772 579.222Z" fill="#4E75D8"/>
<path d="M317.412 620.804L350.246 563.793L317.412 506.781H251.744L218.91 563.793L251.744 620.804H317.412ZM257.654 517.004H311.502L338.457 563.793L311.502 610.581H257.654L230.73 563.793L257.654 517.004Z" fill="#4E75D8"/>
</g>
</svg>
