<svg width="796" height="783" viewBox="0 0 796 783" fill="none" xmlns="http://www.w3.org/2000/svg">
<g opacity="0.72">
<path d="M152.695 223.052L334.702 122.924L277.221 91.2983L22.9557 231.182L135.459 293.078L207.721 253.322L152.695 223.052Z" fill="#00A7E4"/>
<path d="M422.173 687.013L355.793 650.496L269.297 698.082L381.803 759.975L636.065 620.091L589.943 594.716L422.173 687.013Z" fill="#00A7E4"/>
<path d="M202.243 242.89L298.919 189.701L395.599 242.89V349.268L298.919 402.456L202.243 349.268V242.89Z" fill="#37C9FF"/>
<path d="M636.893 40.3662L490.794 120.743V182.687L546.535 152.023L692.632 232.4V331.211L782.989 281.499V120.743L636.893 40.3662Z" fill="#37C9FF"/>
<path d="M578.33 434.332L474.631 377.28L451.784 389.852V496.228L548.461 549.416L645.137 496.228V397.576L578.33 434.332Z" fill="#37C9FF"/>
<path d="M782.989 281.499V120.743H782.986L636.333 201.426L692.632 232.4V331.212L782.989 281.499Z" fill="#8EE4FF"/>
<path d="M395.599 349.268V242.89L202.243 349.265V349.268L298.919 402.456L395.599 349.268Z" fill="#00A7E4"/>
<path d="M183.31 625.016L230.366 599.127L277.423 625.016V676.794L230.366 702.683L183.31 676.794V625.016Z" fill="#37C9FF"/>
<path d="M202.242 349.265V349.268L298.919 402.456V296.078L202.242 349.265Z" fill="#37C9FF"/>
<path d="M181.442 514.928L181.417 485.471L0.000244141 585.276V627.55L74.085 668.306L267.844 561.712L181.442 514.928Z" fill="#00A7E4"/>
<path d="M836.802 0.311035H756.312L555.925 110.554L668.428 172.448L836.802 79.8192V0.311035Z" fill="#00A7E4"/>
<path d="M230.366 650.905V702.683L277.423 676.794V625.016L230.366 650.905Z" fill="#8EE4FF"/>
<path d="M479.312 255.555L566.326 207.684L653.338 255.555V351.298L566.326 399.169L479.312 351.298V255.555Z" fill="#37C9FF"/>
<path d="M566.326 303.427V399.17L653.338 351.298V255.555L566.326 303.427Z" fill="#8EE4FF"/>
<path d="M262.818 449.557L337.236 408.617L411.652 449.557V531.444L337.236 572.384L262.818 531.444V449.557Z" fill="#37C9FF"/>
<path d="M337.236 490.5V572.384L411.652 531.444V449.557L337.236 490.5Z" fill="#8EE4FF"/>
<path d="M103.093 151.263L138.388 131.848L173.68 151.263V190.095L138.388 209.515L103.093 190.095V151.263Z" fill="#37C9FF"/>
<path d="M138.388 170.682V209.515L173.68 190.095V151.263L138.388 170.682Z" fill="#8EE4FF"/>
<path d="M20.1477 320.109L82.9517 285.56L145.749 320.109V389.214L82.9517 423.762L20.1477 389.214V320.109Z" fill="#37C9FF"/>
<path d="M82.9517 354.66V423.761L145.749 389.214V320.109L82.9517 354.66Z" fill="#8EE4FF"/>
<path d="M371.12 306.993L413.594 283.625L456.066 306.993V353.727L413.594 377.093L371.12 353.727V306.993Z" fill="#37C9FF"/>
<path d="M413.594 330.356V377.094L456.066 353.727V306.993L413.594 330.356Z" fill="#8EE4FF"/>
<path d="M723.76 340.626L773.305 313.366L822.85 340.626V395.143L773.305 422.399L723.76 395.143V340.626Z" fill="#8EE4FF"/>
<path d="M773.305 367.879V422.397L822.85 395.142V340.625L773.305 367.879Z" fill="#00A7E4"/>
<path d="M82.3269 440.884L119.704 420.322L157.079 440.884V482.012L119.704 502.577L82.3269 482.012V440.884Z" fill="#8EE4FF"/>
<path d="M119.704 461.448V502.578L157.079 482.013V440.885L119.704 461.448Z" fill="#00A7E4"/>
<path d="M290.971 209.865L323.101 192.187L355.231 209.865V245.218L323.101 262.896L290.971 245.218V209.865Z" fill="#93E3FF"/>
<path d="M323.101 227.54V262.893L355.231 245.218V209.865L323.101 227.54Z" fill="#00A7E4"/>
<path d="M734.306 170.248L766.436 152.573L798.565 170.248V205.601L766.436 223.279L734.306 205.601V170.248Z" fill="#93E3FF"/>
<path d="M766.436 187.926V223.279L798.565 205.601V170.248L766.436 187.926Z" fill="#00A7E4"/>
<path d="M219.066 118.866L243.879 105.215L268.692 118.866V146.17L243.879 159.82L219.066 146.17V118.866Z" fill="#93E3FF"/>
<path d="M243.879 132.517V159.817L268.692 146.169V118.866L243.879 132.517Z" fill="#00A7E4"/>
<path d="M553.388 207.45L585.517 189.771L617.646 207.45V242.803L585.517 260.478L553.388 242.803V207.45Z" fill="#93E3FF"/>
<path d="M585.517 225.125V260.478L617.646 242.803V207.45L585.517 225.125Z" fill="#00A7E4"/>
<path d="M361.137 541.661L387.365 527.23L413.593 541.661V570.519L387.365 584.949L361.137 570.519V541.661Z" fill="#93E3FF"/>
<path d="M387.365 556.092V584.946L413.593 570.519V541.661L387.365 556.092Z" fill="#00A7E4"/>
<path d="M38.838 552.185L70.9643 534.507L103.094 552.185V587.538L70.9643 605.215L38.838 587.538V552.185Z" fill="#93E3FF"/>
<path d="M70.9643 569.86V605.213L103.094 587.538V552.185L70.9643 569.86Z" fill="#00A7E4"/>
<path d="M614.342 42.4761L672.038 10.7363L729.734 42.4761V105.962L672.038 137.708L614.342 105.962V42.4761Z" fill="#93E3FF"/>
<path d="M672.038 74.2228V137.706L729.734 105.963V42.4766L672.038 74.2228Z" fill="#00A7E4"/>
<path d="M239.612 450.97L269.265 434.654L298.919 450.97V483.597L269.265 499.912L239.612 483.597V450.97Z" fill="#8EE4FF"/>
<path d="M269.265 467.282V499.913L298.919 483.598V450.97L269.265 467.282Z" fill="#00A7E4"/>
<path d="M374.243 139.363L411.621 118.797L448.995 139.363V180.49L411.621 201.055L374.243 180.49V139.363Z" fill="#8EE4FF"/>
<path d="M411.621 159.928V201.052L448.995 180.49V139.363L411.621 159.928Z" fill="#00A7E4"/>
<path d="M453.521 552.073L490.899 531.508L528.276 552.073V593.199L490.899 613.763L453.521 593.199V552.073Z" fill="#8EE4FF"/>
<path d="M490.899 572.634V613.762L528.276 593.199V552.072L490.899 572.634Z" fill="#37C9FF"/>
<path d="M757.515 442.956L786.572 426.971L815.625 442.956V474.924L786.572 490.911L757.515 474.924V442.956Z" fill="#8EE4FF"/>
<path d="M786.572 458.94V490.911L815.625 474.925V442.956L786.572 458.94Z" fill="#37C9FF"/>
<path d="M167.715 729.425L199.845 711.747L231.975 729.425V764.778L199.845 782.456L167.715 764.778V729.425Z" fill="#93E3FF"/>
<path d="M199.845 747.098V782.451L231.975 764.776V729.423L199.845 747.098Z" fill="#00A7E4"/>
</g>
</svg>
