<svg width="43" height="51" viewBox="0 0 43 51" fill="none" xmlns="http://www.w3.org/2000/svg">
<g clip-path="url(#clip0_3986_8320)">
<path d="M29.67 33.5371C34.8778 25.1875 34.2184 26.2324 34.3713 26.0078C36.2633 23.2734 37.2667 20.0605 37.2667 16.7109C37.2667 7.82422 30.2051 0.5 21.5 0.5C12.8236 0.5 5.73333 7.80469 5.73333 16.7109C5.73333 20.0605 6.75578 23.3613 8.71467 26.125L13.33 33.5273C8.38978 34.3086 0 36.623 0 41.7109C0 43.5664 1.18489 46.2129 6.83222 48.2734C10.7691 49.709 15.9769 50.5 21.5 50.5C31.82 50.5 43 47.5215 43 41.7109C43 36.623 34.6198 34.3086 29.67 33.5371ZM11.1036 24.5137C11.0844 24.4844 11.0749 24.4648 11.0558 24.4355C9.43133 22.1504 8.6 19.4355 8.6 16.7109C8.6 9.38672 14.3716 3.42969 21.5 3.42969C28.6093 3.42969 34.4 9.38672 34.4 16.7109C34.4 19.4453 33.5878 22.0625 32.0493 24.2988C31.9156 24.4844 32.6322 23.3418 21.5 41.1836L11.1036 24.5137ZM21.5 47.5703C10.2244 47.5703 2.86667 44.1816 2.86667 41.7109C2.86667 40.0508 6.65067 37.3164 15.0213 36.252L20.2864 44.6992C20.554 45.1191 21.0031 45.373 21.4904 45.373C21.9778 45.373 22.4364 45.1191 22.6944 44.6992L27.9596 36.252C36.3493 37.3164 40.1333 40.0508 40.1333 41.7109C40.1333 44.1621 32.8424 47.5703 21.5 47.5703Z" fill="black"/>
<path d="M21.5 9.38672C17.544 9.38672 14.3333 12.668 14.3333 16.7109C14.3333 20.7539 17.544 24.0352 21.5 24.0352C25.456 24.0352 28.6667 20.7539 28.6667 16.7109C28.6667 12.668 25.456 9.38672 21.5 9.38672ZM21.5 21.1055C19.1302 21.1055 17.2 19.1328 17.2 16.7109C17.2 14.2891 19.1302 12.3164 21.5 12.3164C23.8698 12.3164 25.8 14.2891 25.8 16.7109C25.8 19.1328 23.8698 21.1055 21.5 21.1055Z" fill="black"/>
</g>
<defs>
<clipPath id="clip0_3986_8320">
<rect width="43" height="50" fill="white" transform="translate(0 0.5)"/>
</clipPath>
</defs>
</svg>
