<svg width="132" height="99" viewBox="0 0 132 99" fill="none" xmlns="http://www.w3.org/2000/svg">
<path d="M21.9276 55.2513V61.1673L2.59821 51.119V46.0663L11.4744 37.9598C12.3305 37.0676 12.9988 36.2471 13.4794 35.4982C13.96 34.7325 14.3055 34.0064 14.5158 33.3202C14.726 32.617 14.8311 31.9099 14.8311 31.199C14.8311 30.0987 14.7185 29.1007 14.4932 28.2049C14.2679 27.2922 13.93 26.5072 13.4794 25.8498C13.0439 25.1833 12.5032 24.6822 11.8574 24.3464C11.0764 23.9404 10.4306 23.8756 9.91995 24.1518C9.40931 24.428 9.02632 24.9737 8.771 25.7889C8.5307 26.5949 8.41054 27.5904 8.41054 28.7753L2.08005 25.4845C2.08005 23.267 2.47806 21.4427 3.27406 20.0114C4.08509 18.588 5.21902 17.7132 6.67586 17.3872C8.14771 17.0521 9.91244 17.4193 11.97 18.489C13.9826 19.5352 15.6647 20.8328 17.0164 22.3818C18.3831 23.9387 19.4119 25.6838 20.1028 27.6171C20.8087 29.5414 21.1616 31.5868 21.1616 33.7535C21.1616 34.9892 21.019 36.1168 20.7336 37.1365C20.4482 38.1392 20.0427 39.0794 19.5171 39.9572C18.9914 40.818 18.3456 41.6418 17.5796 42.4285C16.8137 43.2152 15.9501 43.9935 14.9888 44.7634L10.7084 49.4191L21.9276 55.2513ZM44.9742 51.4135V57.8374C44.9742 60.6134 44.7414 62.8791 44.2758 64.6345C43.8102 66.3898 43.1569 67.6921 42.3158 68.5414C41.4748 69.3737 40.476 69.7939 39.3196 69.8021C38.1631 69.8103 36.8865 69.4514 35.4897 68.7253C34.3783 68.1475 33.3345 67.4103 32.3583 66.5134C31.382 65.6166 30.4959 64.5635 29.6999 63.3542C28.9189 62.1357 28.2431 60.7603 27.6724 59.2279C27.1167 57.6864 26.6886 55.9828 26.3882 54.117C26.0879 52.2343 25.9377 50.1757 25.9377 47.9414V41.5175C25.9377 38.7415 26.1705 36.4843 26.636 34.7458C27.1167 32.9983 27.7775 31.7083 28.6185 30.876C29.4596 30.0437 30.4584 29.6319 31.6148 29.6406C32.7863 29.6403 34.0704 30.0031 35.4672 30.7292C36.5636 31.2992 37.5999 32.0325 38.5761 32.9293C39.5674 33.817 40.446 34.8578 41.2119 36.0515C41.9929 37.2531 42.6613 38.6246 43.217 40.1661C43.7877 41.6984 44.2232 43.406 44.5236 45.2887C44.824 47.1545 44.9742 49.1961 44.9742 51.4135ZM38.6437 55.5367V47.0817C38.6437 45.7783 38.5911 44.6084 38.486 43.572C38.3959 42.5433 38.2682 41.6475 38.103 40.8846C37.9378 40.1216 37.72 39.4583 37.4497 38.8946C37.1794 38.3309 36.879 37.87 36.5486 37.5121C36.2181 37.1372 35.8502 36.8443 35.4447 36.6335C34.9641 36.3837 34.5285 36.3096 34.138 36.4113C33.7475 36.513 33.4096 36.8367 33.1242 37.3823C32.8389 37.9111 32.6211 38.7035 32.4709 39.7595C32.3357 40.8064 32.2682 42.1424 32.2682 43.7674V52.2225C32.2682 53.5258 32.3132 54.7003 32.4033 55.7459C32.5085 56.7992 32.6511 57.7282 32.8314 58.5328C33.0266 59.3283 33.2444 60.0001 33.4847 60.5482C33.74 61.1041 34.0329 61.5695 34.3633 61.9444C34.7087 62.3102 35.0842 62.5985 35.4897 62.8093C35.9703 63.0591 36.4059 63.1332 36.7964 63.0315C37.2019 62.9207 37.5398 62.5885 37.8101 62.0351C38.0805 61.4816 38.2832 60.6729 38.4184 59.6091C38.5686 58.5361 38.6437 57.1787 38.6437 55.5367Z" fill="white"/>
<path d="M104.73 55.5141V61.4301L85.0888 70.8549V65.8022L94.108 48.7535C94.9779 46.9989 95.657 45.505 96.1454 44.272C96.6337 43.022 96.9847 41.948 97.1984 41.0499C97.412 40.1349 97.5189 39.3219 97.5189 38.611C97.5189 37.5107 97.4044 36.6262 97.1755 35.9574C96.9466 35.2716 96.6032 34.827 96.1454 34.6236C95.7028 34.3958 95.1534 34.4394 94.4972 34.7543C93.7036 35.1351 93.0474 35.7208 92.5285 36.5115C92.0096 37.3021 91.6205 38.2337 91.361 39.3061C91.1169 40.3542 90.9948 41.4708 90.9948 42.6556L84.5623 45.7423C84.5623 43.5249 84.9667 41.2996 85.7755 39.0664C86.5996 36.8259 87.7518 34.8088 89.2321 33.0151C90.7277 31.1972 92.5209 29.7866 94.6116 28.7834C96.6566 27.8021 98.3658 27.4051 99.7393 27.5923C101.128 27.7723 102.173 28.4809 102.875 29.7183C103.593 30.9314 103.951 32.6213 103.951 34.788C103.951 36.0236 103.806 37.295 103.516 38.6021C103.226 39.8923 102.814 41.2411 102.28 42.6484C101.746 44.0389 101.09 45.5133 100.312 47.0716C99.5333 48.63 98.6558 50.2783 97.6791 52.0165L93.3297 60.9844L104.73 55.5141ZM123.02 15.6085V52.6534L116.61 55.7291V27.4185L110.247 33.1891V27.2477L122.333 15.938L123.02 15.6085Z" fill="white"/>
</svg>
