<svg width="45" height="52" viewBox="0 0 45 52" fill="none" xmlns="http://www.w3.org/2000/svg">
<path d="M32.4585 51.1925H7.9365C4.08594 51.1925 0.995361 48.554 0.995361 45.3066H39.4249C39.4249 48.554 36.309 51.1925 32.4585 51.1925Z" fill="#42C66E"/>
<path d="M0.492188 25.6191C0.492188 38.1266 9.30794 48.2492 20.201 48.2492C31.094 48.2492 39.9098 38.1266 39.9098 25.6191H0.492188Z" fill="#42C66E"/>
<path d="M34.0842 43.1265C32.9189 43.1265 31.8042 42.9236 30.9176 42.543L32.1082 39.9299C33.6029 40.6149 36.9214 40.2851 39.2774 38.7629C40.3413 38.0779 41.608 36.8855 41.608 35.0335C41.608 32.8263 39.8347 31.0504 37.6307 31.0504C37.2508 31.0504 36.8454 31.1011 36.4908 31.228L35.6801 28.4627C36.3135 28.2597 36.9721 28.1836 37.6561 28.1836C41.4306 28.1836 44.4959 31.2534 44.4959 35.0335C44.4959 37.469 43.2039 39.6508 40.848 41.173C38.872 42.4415 36.3388 43.1265 34.0842 43.1265Z" fill="#42C66E"/>
<path d="M18.1364 6.96931C17.6044 8.03485 16.7431 8.9228 16.1098 9.91223C14.6152 12.2463 14.2605 15.2907 15.2738 17.8784C16.2871 20.4662 18.6431 22.4704 21.379 23.0032C19.9097 22.3435 18.7444 21.075 18.2124 19.5528C17.6804 18.0306 17.8071 16.3055 18.5417 14.8594C19.2511 13.4894 20.467 12.4492 21.3283 11.1807C22.1136 9.98834 22.595 8.56762 22.7216 7.12153C22.8736 5.47248 22.4936 3.67121 21.227 2.60567C20.1124 1.64161 18.6431 1.36254 17.5284 0.449219C18.7444 2.42808 19.2511 4.76212 18.1364 6.96931Z" fill="#42C66E"/>
<path d="M22.8465 21.4814C22.1625 20.8217 21.4279 20.1114 21.2759 19.1727C21.1239 18.234 21.5545 17.3207 22.0105 16.5088C22.4665 15.697 22.9731 14.9105 23.5051 14.1241C24.2398 13.0585 25.1264 11.8408 24.8224 10.5723C25.8357 11.8915 25.9624 13.845 25.1264 15.2911C24.8478 15.7731 24.4931 16.179 24.1891 16.6357C23.5305 17.6505 23.1758 18.8683 23.3025 20.0606C23.4291 21.1769 24.0118 22.0649 24.7971 22.7752C24.0624 22.826 23.3531 21.9888 22.8465 21.4814Z" fill="#42C66E"/>
</svg>
