<svg width="261" height="254" viewBox="0 0 261 254" fill="none" xmlns="http://www.w3.org/2000/svg">
<path d="M169.033 204.848H160.494L158.415 213.61H151.773L160.629 180.944H169.033L178.341 213.61H171.428L169.033 204.848ZM161.443 199.125H168.039L166.096 192.187C165.78 190.921 165.283 188.996 164.651 186.262H164.56C164.425 186.819 164.244 187.73 163.928 189.097C163.657 190.465 163.431 191.478 163.25 192.187L161.443 199.125Z" fill="#292C33"/>
<path d="M182.045 213.509V181.299C184.53 180.792 187.512 180.59 191.037 180.59C194.696 180.59 197.498 181.451 199.441 183.274C201.429 185.097 202.423 187.68 202.423 190.972C202.423 194.314 201.609 196.897 199.938 198.619C197.814 201 194.696 202.215 190.585 202.215C189.681 202.215 188.913 202.164 188.235 202.012V213.559H182V213.509H182.045ZM188.235 186.566V196.087C188.732 196.239 189.546 196.29 190.585 196.29C192.347 196.29 193.702 195.834 194.696 194.922C195.69 194.01 196.187 192.694 196.187 191.023C196.187 189.503 195.736 188.338 194.832 187.528C193.928 186.718 192.663 186.312 191.037 186.312C189.726 186.363 188.732 186.414 188.235 186.566Z" fill="#292C33"/>
<path d="M206.49 180.893H229.85V213.559H223.569V187.173H212.725V213.559H206.49V180.893Z" fill="#292C33"/>
<path d="M235.271 180.893H258.631V213.559H252.351V187.173H241.507V213.559H235.271V180.893Z" fill="#292C33"/>
<path d="M21.7772 237.109C21.7772 238.78 21.5965 240.249 21.235 241.616C20.8284 242.933 20.3313 244.047 19.6084 245.01C18.8855 245.921 17.9818 246.63 16.8974 247.136C15.813 247.643 14.5931 247.845 13.102 247.845C11.7014 247.845 10.4814 247.643 9.44221 247.238C8.35781 246.782 7.49934 246.225 6.82159 245.313C6.14384 244.452 5.60165 243.389 5.28537 242.123C4.96909 240.806 4.74316 239.287 4.74316 237.514C4.74316 235.893 4.9239 234.425 5.28537 233.108C5.64683 231.791 6.18903 230.728 6.91196 229.816C7.63489 228.905 8.53855 228.195 9.62295 227.689C10.7073 227.182 11.9273 226.929 13.4183 226.929C14.7738 226.929 15.9938 227.132 17.033 227.537C18.027 227.942 18.9758 228.55 19.6536 229.461C20.3765 230.322 20.8735 231.386 21.235 232.652C21.5965 233.867 21.7772 235.387 21.7772 237.109ZM17.9366 237.311C17.9366 236.248 17.8463 235.286 17.7107 234.425C17.5752 233.564 17.3041 232.804 16.9426 232.196C16.6263 231.589 16.1293 231.133 15.5419 230.778C14.9545 230.474 14.1864 230.272 13.328 230.272C12.4243 230.272 11.7014 230.474 11.114 230.829C10.5266 231.234 9.9844 231.69 9.66812 232.348C9.26147 233.007 9.03557 233.716 8.90002 234.577C8.76447 235.438 8.6741 236.299 8.6741 237.311C8.6741 238.375 8.76447 239.438 8.90002 240.299C9.03557 241.16 9.30666 241.92 9.66812 242.578C9.9844 243.186 10.4814 243.642 11.0688 243.997C11.6562 244.3 12.4243 244.503 13.2828 244.503C14.1864 244.503 14.9094 244.351 15.4968 243.946C16.0841 243.541 16.6263 243.085 16.9426 242.427C17.3493 241.768 17.5752 241.009 17.7107 240.148C17.8463 239.236 17.9366 238.274 17.9366 237.311Z" fill="#292C33"/>
<path d="M33.843 234.172C33.843 234.476 33.843 234.83 33.7978 235.033C33.7978 235.235 33.7526 235.489 33.7074 235.59C33.6622 235.691 33.6171 235.792 33.5267 235.843C33.4815 235.894 33.3912 235.894 33.3008 235.894H30.138V246.884C30.138 246.985 30.0928 247.086 30.0476 247.137C30.0024 247.187 29.912 247.289 29.7765 247.339C29.6409 247.39 29.5054 247.441 29.2343 247.441C29.0084 247.441 28.6921 247.491 28.3758 247.491C28.0595 247.491 27.7433 247.491 27.5625 247.441C27.3366 247.441 27.1559 247.39 27.0203 247.339C26.8848 247.289 26.7944 247.238 26.7492 247.137C26.704 247.086 26.6589 246.985 26.6589 246.884V235.894H23.5412C23.4509 235.894 23.3605 235.894 23.3153 235.792C23.2701 235.742 23.1798 235.64 23.1346 235.539C23.0894 235.438 23.0442 235.235 23.0442 234.982C23.0442 234.779 22.999 234.425 22.999 234.121C22.999 233.817 22.999 233.564 23.0442 233.362C23.0894 233.159 23.0894 232.956 23.1346 232.804C23.1798 232.703 23.2249 232.602 23.2701 232.551C23.3153 232.501 23.4057 232.45 23.496 232.45H33.2104C33.3008 232.45 33.346 232.45 33.4363 232.551C33.4815 232.602 33.5719 232.703 33.6171 232.804C33.6622 232.906 33.7074 233.108 33.7074 233.362C33.843 233.615 33.843 233.918 33.843 234.172Z" fill="#292C33"/>
<path d="M47.0396 239.539C47.0396 240.046 46.9492 240.35 46.7685 240.603C46.5877 240.806 46.3166 240.907 46.0003 240.907H38.4548C38.4548 241.515 38.4999 242.072 38.6355 242.527C38.771 243.034 38.9518 243.388 39.2229 243.793C39.494 244.097 39.8554 244.401 40.3073 244.553C40.7591 244.705 41.2561 244.806 41.8435 244.806C42.4761 244.806 43.0183 244.756 43.4249 244.655C43.9219 244.553 44.2834 244.452 44.6449 244.351C45.0063 244.249 45.2774 244.148 45.4581 244.047C45.6841 243.945 45.8648 243.895 46.0003 243.895C46.0907 243.895 46.1359 243.895 46.1811 243.946C46.2263 243.996 46.2714 244.047 46.3166 244.148C46.3618 244.249 46.3618 244.351 46.407 244.553C46.407 244.705 46.407 244.958 46.407 245.212C46.407 245.414 46.407 245.667 46.407 245.819C46.407 245.971 46.407 246.073 46.3618 246.275C46.3618 246.377 46.3166 246.478 46.2714 246.528C46.2263 246.579 46.1811 246.68 46.1359 246.731C46.0907 246.782 45.91 246.883 45.6389 246.984C45.413 247.086 45.0063 247.237 44.6449 247.389C44.193 247.491 43.7864 247.592 43.199 247.693C42.6568 247.794 42.0694 247.845 41.4368 247.845C40.3073 247.845 39.3584 247.693 38.5451 247.339C37.7318 247.035 37.0541 246.579 36.4667 245.921C35.9245 245.262 35.5178 244.502 35.2016 243.54C34.9305 242.578 34.7949 241.413 34.7949 240.096C34.7949 238.83 34.9305 237.767 35.2468 236.754C35.5179 235.792 35.9697 234.931 36.5119 234.222C37.0541 233.513 37.7318 233.006 38.4999 232.652C39.2681 232.246 40.1717 232.095 41.1657 232.095C42.1598 232.095 43.1086 232.246 43.8315 232.652C44.5545 232.955 45.187 233.462 45.6841 234.07C46.1811 234.678 46.4974 235.437 46.7685 236.247C46.9944 237.058 47.0847 237.969 47.0847 238.982V239.539H47.0396ZM43.6508 238.476C43.696 237.412 43.4701 236.501 43.0634 235.893C42.6116 235.235 41.979 234.981 41.1206 234.981C40.6687 234.981 40.3073 235.083 39.9458 235.235C39.5843 235.386 39.3132 235.69 39.1325 235.994C38.9066 236.298 38.7259 236.703 38.6355 237.159C38.5451 237.615 38.4548 238.02 38.4548 238.577H43.6508V238.476Z" fill="#292C33"/>
<path d="M60.3227 246.934C60.3227 247.036 60.2775 247.137 60.2323 247.187C60.1871 247.238 60.0967 247.339 59.9612 247.39C59.8257 247.441 59.6901 247.491 59.419 247.491C59.1931 247.491 58.922 247.542 58.6057 247.542C58.2894 247.542 57.9731 247.542 57.7472 247.491C57.5213 247.491 57.2954 247.441 57.205 247.39C57.0695 247.339 56.9791 247.289 56.9339 247.187C56.8887 247.137 56.8436 247.036 56.8436 246.934V242.174C56.3917 242.376 55.9399 242.579 55.3977 242.68C54.8555 242.781 54.3133 242.832 53.7259 242.832C52.8223 242.832 52.0542 242.731 51.4216 242.427C50.789 242.123 50.292 241.819 49.9305 241.414C49.5239 240.958 49.298 240.452 49.1624 239.844C49.0269 239.236 48.9365 238.477 48.9365 237.514V233.007C48.9365 232.906 48.9365 232.804 49.0269 232.754C49.0721 232.703 49.1624 232.602 49.298 232.551C49.4335 232.501 49.5691 232.45 49.8402 232.45C50.0661 232.45 50.3372 232.399 50.6987 232.399C51.0149 232.399 51.3312 232.399 51.5571 232.45C51.7831 232.45 51.9638 232.501 52.0993 232.551C52.2349 232.602 52.3252 232.652 52.3704 232.754C52.4156 232.804 52.4608 232.906 52.4608 233.007V236.907C52.4608 237.616 52.506 238.122 52.5963 238.426C52.6867 238.73 52.8223 239.034 53.003 239.186C53.1386 239.388 53.4096 239.489 53.6356 239.591C53.8615 239.641 54.1778 239.692 54.4489 239.692C54.9007 239.692 55.3073 239.641 55.7592 239.54C56.211 239.439 56.5725 239.287 57.0243 238.983V233.007C57.0243 232.906 57.0243 232.804 57.1147 232.754C57.1598 232.703 57.2502 232.602 57.3858 232.551C57.5213 232.501 57.702 232.45 57.928 232.45C58.1539 232.45 58.4702 232.399 58.7864 232.399C59.1027 232.399 59.419 232.399 59.5997 232.45C59.8256 232.45 60.0064 232.501 60.1419 232.551C60.2775 232.602 60.3678 232.652 60.413 232.754C60.4582 232.804 60.5034 232.906 60.5034 233.007V246.985H60.3227V246.934Z" fill="#292C33"/>
<path d="M75.2798 239.539C75.2798 240.046 75.1894 240.35 75.0087 240.603C74.828 240.806 74.5569 240.907 74.2406 240.907H66.695C66.695 241.515 66.7402 242.072 66.8757 242.527C67.0113 243.034 67.192 243.388 67.4631 243.793C67.7342 244.097 68.0957 244.401 68.5475 244.553C68.9993 244.705 69.4963 244.806 70.0837 244.806C70.7163 244.806 71.2585 244.756 71.6651 244.655C72.1621 244.553 72.5236 244.452 72.8851 244.351C73.2014 244.249 73.5176 244.148 73.6984 244.047C73.9243 243.945 74.105 243.895 74.2406 243.895C74.3309 243.895 74.3761 243.895 74.4213 243.946C74.4665 243.996 74.5117 244.047 74.5569 244.148C74.602 244.249 74.602 244.351 74.6472 244.553C74.6472 244.705 74.6472 244.958 74.6472 245.212C74.6472 245.414 74.6472 245.667 74.6472 245.819C74.6472 245.971 74.6472 246.073 74.602 246.275C74.602 246.377 74.5568 246.478 74.5117 246.528C74.4665 246.579 74.4213 246.68 74.3761 246.731C74.3309 246.782 74.1502 246.883 73.8791 246.984C73.6532 247.086 73.2465 247.237 72.8851 247.389C72.4333 247.491 72.0266 247.592 71.4392 247.693C70.897 247.794 70.3096 247.845 69.6771 247.845C68.5475 247.845 67.5987 247.693 66.7854 247.339C65.9721 247.035 65.2943 246.579 64.7069 245.921C64.1647 245.262 63.7581 244.502 63.4418 243.54C63.1707 242.578 63.0352 241.413 63.0352 240.096C63.0352 238.83 63.1707 237.767 63.487 236.754C63.7581 235.792 64.2099 234.931 64.7521 234.222C65.2943 233.513 65.9721 233.006 66.7402 232.652C67.5083 232.246 68.412 232.095 69.406 232.095C70.4 232.095 71.3489 232.246 72.0718 232.652C72.7947 232.955 73.4273 233.462 73.9243 234.07C74.4213 234.678 74.7376 235.437 75.0087 236.247C75.2346 237.058 75.3702 237.969 75.3702 238.982V239.539H75.2798ZM71.8911 238.476C71.9362 237.412 71.7103 236.501 71.3037 235.893C70.8518 235.235 70.2193 234.981 69.3608 234.981C68.909 234.981 68.5475 235.083 68.186 235.235C67.8697 235.386 67.5535 235.69 67.3727 235.994C67.1468 236.298 66.9661 236.703 66.8757 237.159C66.7854 237.615 66.695 238.02 66.695 238.577H71.8911V238.476Z" fill="#292C33"/>
<path d="M87.5644 244.705C87.5644 244.959 87.5644 245.212 87.5644 245.414C87.5644 245.566 87.5192 245.718 87.5192 245.921C87.5192 246.022 87.474 246.124 87.4288 246.225C87.3837 246.275 87.3385 246.377 87.2481 246.478C87.1577 246.579 86.977 246.731 86.6607 246.934C86.3896 247.086 86.0733 247.238 85.7571 247.44C85.4408 247.542 85.0341 247.694 84.6275 247.744C84.2208 247.845 83.8142 247.845 83.3624 247.845C82.4135 247.845 81.555 247.693 80.8321 247.339C80.1092 247.035 79.4766 246.529 78.9796 245.87C78.4826 245.212 78.1211 244.402 77.85 243.49C77.6241 242.578 77.4434 241.464 77.4434 240.299C77.4434 238.881 77.5789 237.717 77.9404 236.653C78.2115 235.64 78.6633 234.83 79.2507 234.121C79.7929 233.462 80.4706 232.956 81.2388 232.652C82.0069 232.348 82.8202 232.145 83.769 232.145C84.1756 232.145 84.4919 232.196 84.8986 232.247C85.2149 232.297 85.5763 232.399 85.8926 232.5C86.1637 232.601 86.48 232.753 86.7059 232.956C86.9318 233.108 87.1577 233.209 87.2481 233.412C87.3385 233.513 87.4288 233.614 87.474 233.665C87.5192 233.715 87.5192 233.817 87.5644 233.969C87.5644 234.07 87.6096 234.222 87.6096 234.475C87.6096 234.627 87.6096 234.88 87.6096 235.134C87.6096 235.741 87.5644 236.146 87.474 236.45C87.3837 236.703 87.2933 236.856 87.1577 236.856C87.0222 236.856 86.8415 236.805 86.6607 236.653C86.5252 236.501 86.2541 236.349 86.0282 236.147C85.8022 235.995 85.486 235.843 85.1697 235.64C84.8082 235.488 84.4468 235.437 83.9497 235.437C83.0461 235.437 82.3683 235.792 81.8713 236.653C81.3743 237.463 81.1484 238.628 81.1484 240.147C81.1484 240.907 81.1936 241.566 81.3291 242.173C81.4647 242.781 81.6002 243.186 81.8713 243.591C82.0972 243.996 82.4135 244.25 82.7298 244.452C83.0461 244.655 83.4979 244.705 83.9949 244.705C84.4919 244.705 84.8986 244.655 85.26 244.452C85.5763 244.3 85.8926 244.148 86.1637 243.895C86.3896 243.693 86.6607 243.49 86.8414 243.338C87.0222 243.186 87.1577 243.085 87.2933 243.085C87.4288 243.085 87.4288 243.085 87.474 243.135C87.5192 243.186 87.5644 243.287 87.6096 243.389C87.6547 243.541 87.6547 243.693 87.6999 243.946C87.7903 244.098 87.5644 244.402 87.5644 244.705Z" fill="#292C33"/>
<path d="M99.3156 234.172C99.3156 234.476 99.3156 234.83 99.2704 235.033C99.2704 235.235 99.2253 235.489 99.1801 235.59C99.1349 235.691 99.0897 235.792 98.9993 235.843C98.9542 235.894 98.8638 235.894 98.7734 235.894H95.6106V246.884C95.6106 246.985 95.5654 247.086 95.5202 247.137C95.4751 247.187 95.3847 247.289 95.2491 247.339C95.1136 247.39 94.978 247.441 94.7069 247.441C94.481 247.441 94.1647 247.491 93.8485 247.491C93.5322 247.491 93.2159 247.491 93.0352 247.441C92.8092 247.441 92.6285 247.39 92.493 247.339C92.3574 247.289 92.2671 247.238 92.2219 247.137C92.1767 247.086 92.1315 246.985 92.1315 246.884V235.894H89.0139C88.9235 235.894 88.8332 235.894 88.788 235.792C88.7428 235.742 88.6524 235.64 88.6072 235.539C88.562 235.438 88.5169 235.235 88.5169 234.982C88.5169 234.779 88.4717 234.425 88.4717 234.121C88.4717 233.817 88.4717 233.564 88.5169 233.362C88.562 233.159 88.562 232.956 88.6072 232.804C88.6524 232.703 88.6976 232.602 88.7428 232.551C88.788 232.501 88.8783 232.45 88.9687 232.45H98.6831C98.7734 232.45 98.8186 232.45 98.909 232.551C98.9542 232.602 99.0445 232.703 99.0897 232.804C99.1349 232.906 99.1801 233.108 99.1801 233.362C99.3156 233.615 99.3156 233.918 99.3156 234.172Z" fill="#292C33"/>
<path d="M112.598 242.882C112.598 243.693 112.462 244.402 112.191 245.01C111.965 245.617 111.513 246.073 110.971 246.529C110.429 246.934 109.751 247.238 108.938 247.44C108.125 247.643 107.176 247.744 106.091 247.744C105.775 247.744 105.414 247.744 105.097 247.744C104.826 247.744 104.465 247.744 104.194 247.744C103.923 247.744 103.606 247.744 103.335 247.694C103.064 247.694 102.748 247.643 102.432 247.592C101.98 247.542 101.709 247.44 101.528 247.137C101.347 246.883 101.257 246.529 101.257 245.972V234.02C101.257 233.513 101.347 233.209 101.483 232.956C101.663 232.703 101.935 232.551 102.296 232.5C102.522 232.5 102.793 232.45 103.109 232.45C103.38 232.45 103.742 232.399 104.058 232.399C104.374 232.399 104.781 232.399 105.188 232.348C105.594 232.348 105.956 232.348 106.363 232.348C107.357 232.348 108.215 232.399 108.938 232.551C109.661 232.703 110.248 232.956 110.745 233.26C111.242 233.564 111.559 233.969 111.739 234.475C111.965 234.931 112.056 235.438 112.056 236.096C112.056 236.957 111.875 237.615 111.468 238.223C111.062 238.78 110.519 239.135 109.706 239.388C110.61 239.54 111.333 239.996 111.875 240.603C112.327 241.059 112.598 241.87 112.598 242.882ZM108.757 236.653C108.757 236.4 108.712 236.096 108.622 235.894C108.531 235.691 108.396 235.488 108.17 235.336C107.989 235.185 107.718 235.083 107.402 235.033C107.085 234.982 106.679 234.931 106.227 234.931C105.866 234.931 105.549 234.931 105.233 234.982C104.962 234.982 104.646 235.033 104.42 235.033V238.578H106.317C107.085 238.578 107.718 238.426 108.125 238.071C108.531 237.767 108.757 237.261 108.757 236.653ZM109.119 242.781C109.119 242.477 109.074 242.173 108.983 241.92C108.893 241.667 108.757 241.464 108.486 241.312C108.26 241.16 107.944 241.059 107.628 240.907C107.221 240.857 106.814 240.806 106.317 240.806H104.51V244.807C104.646 244.807 104.781 244.858 105.007 244.858C105.143 244.858 105.323 244.858 105.504 244.908C105.64 244.959 105.866 244.908 106.001 244.908C106.137 244.908 106.272 244.908 106.453 244.908C106.95 244.908 107.357 244.858 107.718 244.756C108.034 244.655 108.351 244.554 108.577 244.3C108.802 244.098 108.983 243.845 109.074 243.591C109.074 243.439 109.119 243.136 109.119 242.781Z" fill="#292C33"/>
<path d="M126.74 239.539C126.74 240.046 126.649 240.35 126.469 240.603C126.288 240.806 126.017 240.907 125.701 240.907H118.155C118.155 241.515 118.2 242.072 118.336 242.527C118.471 243.034 118.652 243.388 118.923 243.793C119.194 244.097 119.556 244.401 120.007 244.553C120.459 244.705 120.956 244.806 121.544 244.806C122.176 244.806 122.718 244.756 123.125 244.655C123.622 244.553 123.984 244.452 124.345 244.351C124.661 244.249 124.978 244.148 125.158 244.047C125.384 243.945 125.565 243.895 125.701 243.895C125.791 243.895 125.836 243.895 125.881 243.946C125.926 243.996 125.972 244.047 126.017 244.148C126.062 244.249 126.062 244.351 126.107 244.553C126.107 244.705 126.107 244.958 126.107 245.212C126.107 245.414 126.107 245.667 126.107 245.819C126.107 245.971 126.107 246.073 126.062 246.275C126.062 246.377 126.017 246.478 125.972 246.528C125.926 246.579 125.881 246.68 125.836 246.731C125.791 246.782 125.61 246.883 125.339 246.984C125.113 247.086 124.706 247.237 124.345 247.389C123.893 247.491 123.487 247.592 122.899 247.693C122.357 247.794 121.77 247.845 121.137 247.845C120.007 247.845 119.059 247.693 118.245 247.339C117.432 247.035 116.754 246.579 116.167 245.921C115.625 245.262 115.218 244.502 114.902 243.54C114.631 242.578 114.495 241.413 114.495 240.096C114.495 238.83 114.631 237.767 114.947 236.754C115.218 235.792 115.67 234.931 116.212 234.222C116.754 233.513 117.432 233.006 118.2 232.652C118.968 232.246 119.872 232.095 120.866 232.095C121.86 232.095 122.809 232.246 123.532 232.652C124.255 232.955 124.887 233.462 125.384 234.07C125.881 234.678 126.198 235.437 126.469 236.247C126.695 237.058 126.785 237.969 126.785 238.982V239.539H126.74ZM123.351 238.476C123.396 237.412 123.17 236.501 122.764 235.893C122.312 235.235 121.679 234.981 120.821 234.981C120.369 234.981 120.007 235.083 119.646 235.235C119.33 235.386 119.013 235.69 118.833 235.994C118.607 236.298 118.426 236.703 118.336 237.159C118.245 237.615 118.155 238.02 118.155 238.577H123.351V238.476Z" fill="#292C33"/>
<path d="M141.65 246.934C141.65 247.035 141.604 247.137 141.559 247.187C141.514 247.238 141.424 247.339 141.288 247.39C141.153 247.44 141.017 247.491 140.746 247.491C140.52 247.491 140.204 247.542 139.933 247.542C139.616 247.542 139.3 247.542 139.074 247.491C138.848 247.491 138.667 247.44 138.532 247.39C138.396 247.339 138.306 247.289 138.261 247.187C138.216 247.137 138.17 247.035 138.17 246.934V241.464H133.155V246.934C133.155 247.035 133.11 247.137 133.065 247.187C133.02 247.238 132.929 247.339 132.794 247.39C132.658 247.44 132.523 247.491 132.251 247.491C132.026 247.491 131.754 247.542 131.393 247.542C131.032 247.542 130.76 247.542 130.535 247.491C130.309 247.491 130.128 247.44 129.992 247.39C129.857 247.339 129.766 247.289 129.721 247.187C129.676 247.137 129.631 247.035 129.631 246.934V232.956C129.631 232.855 129.676 232.753 129.721 232.703C129.766 232.652 129.857 232.551 129.992 232.5C130.128 232.45 130.263 232.399 130.535 232.399C130.76 232.399 131.077 232.348 131.393 232.348C131.709 232.348 132.026 232.348 132.251 232.399C132.477 232.399 132.658 232.45 132.794 232.5C132.929 232.551 133.02 232.602 133.065 232.703C133.11 232.753 133.155 232.855 133.155 232.956V238.173H138.17V232.956C138.17 232.855 138.216 232.753 138.261 232.703C138.306 232.652 138.396 232.551 138.532 232.5C138.667 232.45 138.803 232.399 139.074 232.399C139.3 232.399 139.616 232.348 139.933 232.348C140.249 232.348 140.565 232.348 140.746 232.399C140.972 232.399 141.153 232.45 141.288 232.5C141.424 232.551 141.514 232.602 141.559 232.703C141.604 232.753 141.65 232.855 141.65 232.956V246.934Z" fill="#292C33"/>
<path d="M157.149 246.934C157.149 247.035 157.103 247.137 157.058 247.187C157.013 247.238 156.923 247.339 156.787 247.39C156.652 247.44 156.516 247.491 156.245 247.491C156.019 247.491 155.703 247.542 155.432 247.542C155.115 247.542 154.799 247.542 154.573 247.491C154.347 247.491 154.167 247.44 154.031 247.39C153.895 247.339 153.805 247.289 153.76 247.187C153.715 247.137 153.67 247.035 153.67 246.934V241.464H148.654V246.934C148.654 247.035 148.609 247.137 148.564 247.187C148.519 247.238 148.428 247.339 148.293 247.39C148.157 247.44 148.022 247.491 147.751 247.491C147.525 247.491 147.254 247.542 146.892 247.542C146.576 247.542 146.259 247.542 146.034 247.491C145.808 247.491 145.627 247.44 145.491 247.39C145.356 247.339 145.265 247.289 145.22 247.187C145.175 247.137 145.13 247.035 145.13 246.934V232.956C145.13 232.855 145.175 232.753 145.22 232.703C145.265 232.652 145.356 232.551 145.491 232.5C145.627 232.45 145.762 232.399 146.034 232.399C146.259 232.399 146.576 232.348 146.892 232.348C147.208 232.348 147.525 232.348 147.751 232.399C147.976 232.399 148.157 232.45 148.293 232.5C148.428 232.551 148.519 232.602 148.564 232.703C148.609 232.753 148.654 232.855 148.654 232.956V238.173H153.67V232.956C153.67 232.855 153.715 232.753 153.76 232.703C153.805 232.652 153.895 232.551 154.031 232.5C154.167 232.45 154.302 232.399 154.573 232.399C154.799 232.399 155.115 232.348 155.432 232.348C155.748 232.348 156.064 232.348 156.245 232.399C156.471 232.399 156.652 232.45 156.787 232.5C156.923 232.551 157.013 232.602 157.058 232.703C157.103 232.753 157.149 232.855 157.149 232.956V246.934Z" fill="#292C33"/>
<path d="M177.438 246.934C177.438 247.035 177.393 247.137 177.348 247.187C177.302 247.238 177.212 247.339 177.076 247.39C176.941 247.44 176.805 247.491 176.534 247.491C176.308 247.491 175.992 247.542 175.676 247.542C175.36 247.542 175.043 247.542 174.863 247.491C174.637 247.491 174.456 247.44 174.32 247.39C174.185 247.339 174.094 247.289 174.049 247.187C174.004 247.137 173.959 247.035 173.959 246.934V232.956C173.959 232.855 174.004 232.753 174.049 232.703C174.094 232.652 174.185 232.551 174.32 232.5C174.456 232.45 174.591 232.399 174.863 232.399C175.088 232.399 175.36 232.348 175.676 232.348C175.992 232.348 176.308 232.348 176.534 232.399C176.76 232.399 176.941 232.45 177.076 232.5C177.212 232.551 177.302 232.602 177.348 232.703C177.393 232.753 177.438 232.855 177.438 232.956V246.934ZM164.199 237.312C164.47 237.261 164.832 237.261 165.148 237.261C165.464 237.261 165.826 237.21 166.233 237.21C167.227 237.21 168.13 237.311 168.898 237.514C169.621 237.717 170.254 238.122 170.751 238.527C171.248 238.983 171.564 239.489 171.835 240.097C172.061 240.705 172.152 241.414 172.152 242.224C172.152 243.034 172.016 243.794 171.745 244.503C171.519 245.212 171.067 245.769 170.525 246.225C169.983 246.731 169.305 247.086 168.447 247.39C167.633 247.643 166.594 247.795 165.51 247.795C165.239 247.795 164.877 247.795 164.606 247.795C164.29 247.795 163.973 247.795 163.702 247.744C163.431 247.744 163.115 247.694 162.844 247.694C162.573 247.694 162.256 247.643 162.03 247.643C161.579 247.592 161.262 247.44 161.082 247.187C160.901 246.934 160.811 246.529 160.811 246.023V233.007C160.811 232.905 160.856 232.804 160.901 232.754C160.946 232.703 161.036 232.602 161.172 232.551C161.308 232.5 161.443 232.45 161.714 232.45C161.895 232.45 162.211 232.399 162.482 232.399C163.16 232.399 163.657 232.45 163.883 232.551C164.154 232.652 164.335 232.804 164.335 233.057V237.362H164.199V237.312ZM168.582 242.477C168.582 242.072 168.537 241.768 168.447 241.515C168.356 241.262 168.221 240.958 167.949 240.755C167.769 240.553 167.452 240.35 167.091 240.249C166.775 240.148 166.323 240.097 165.781 240.097C165.51 240.097 165.193 240.097 164.922 240.097C164.696 240.097 164.425 240.148 164.199 240.148V244.655C164.425 244.706 164.741 244.706 164.967 244.706C165.193 244.706 165.555 244.756 165.871 244.756C166.775 244.756 167.452 244.554 167.904 244.098C168.356 243.794 168.582 243.237 168.582 242.477Z" fill="#292C33"/>
<path d="M193.34 246.984C193.34 247.086 193.34 247.187 193.25 247.238C193.205 247.288 193.114 247.339 192.979 247.389C192.843 247.44 192.708 247.44 192.437 247.491C192.211 247.491 191.94 247.541 191.623 247.541C191.307 247.541 190.991 247.541 190.81 247.491C190.584 247.491 190.358 247.44 190.268 247.389C190.132 247.339 190.042 247.288 189.997 247.238C189.952 247.187 189.906 247.086 189.906 246.984V240.755C189.906 240.299 189.906 239.894 189.952 239.388C189.952 238.881 189.997 238.476 190.042 238.02C189.816 238.476 189.545 238.881 189.319 239.337C189.093 239.793 188.777 240.198 188.551 240.603L184.349 247.035C184.259 247.136 184.213 247.238 184.123 247.288C184.078 247.339 183.987 247.44 183.852 247.44C183.761 247.491 183.626 247.491 183.4 247.541C183.219 247.541 182.993 247.541 182.722 247.541C182.406 247.541 182.135 247.541 181.909 247.491C181.728 247.491 181.502 247.44 181.412 247.389C181.276 247.339 181.231 247.288 181.186 247.238C181.141 247.187 181.096 247.086 181.096 246.984V232.956C181.096 232.854 181.096 232.804 181.186 232.702C181.231 232.652 181.322 232.55 181.457 232.5C181.593 232.449 181.728 232.398 181.999 232.398C182.27 232.398 182.496 232.348 182.813 232.348C183.49 232.348 183.942 232.399 184.213 232.5C184.484 232.601 184.62 232.753 184.62 232.956V239.134C184.62 239.59 184.62 239.995 184.575 240.502C184.53 240.957 184.53 241.413 184.484 241.818C184.71 241.363 184.936 241.008 185.162 240.552C185.388 240.097 185.659 239.742 185.885 239.337L190.087 232.905C190.177 232.804 190.223 232.702 190.313 232.652C190.403 232.601 190.494 232.5 190.584 232.5C190.72 232.449 190.855 232.449 191.081 232.398C191.262 232.398 191.533 232.348 191.804 232.348C192.12 232.348 192.391 232.348 192.617 232.398C192.798 232.398 193.024 232.449 193.16 232.5C193.295 232.55 193.34 232.601 193.386 232.702C193.431 232.753 193.431 232.854 193.431 232.956V247.035H193.34V246.984ZM192.346 226.321C192.346 226.929 192.256 227.537 192.12 228.043C191.94 228.6 191.623 229.056 191.262 229.461C190.855 229.917 190.358 230.221 189.726 230.423C189.093 230.626 188.28 230.829 187.376 230.829C186.472 230.829 185.704 230.727 185.072 230.525C184.439 230.322 183.897 229.968 183.536 229.613C183.129 229.208 182.858 228.752 182.677 228.195C182.496 227.638 182.406 226.98 182.406 226.372C182.406 226.22 182.406 226.119 182.496 226.017C182.542 225.916 182.632 225.865 182.722 225.764C182.858 225.714 182.993 225.663 183.219 225.663C183.4 225.663 183.716 225.612 183.987 225.612C184.259 225.612 184.53 225.612 184.71 225.663C184.891 225.713 185.027 225.713 185.162 225.815C185.253 225.865 185.343 225.967 185.388 226.068C185.433 226.169 185.433 226.271 185.433 226.372C185.433 226.625 185.478 226.929 185.569 227.131C185.659 227.334 185.795 227.587 185.975 227.739C186.156 227.891 186.382 228.043 186.608 228.144C186.834 228.246 187.15 228.296 187.421 228.296C187.692 228.296 188.009 228.246 188.235 228.144C188.461 228.043 188.686 227.942 188.867 227.689C189.048 227.537 189.138 227.284 189.274 227.03C189.364 226.777 189.409 226.473 189.409 226.22C189.409 226.119 189.409 226.017 189.455 225.916C189.5 225.815 189.545 225.764 189.635 225.714C189.726 225.663 189.861 225.612 190.087 225.561C190.268 225.511 190.539 225.511 190.765 225.511C191.081 225.511 191.397 225.511 191.578 225.561C191.759 225.561 191.985 225.612 192.12 225.663C192.256 225.713 192.346 225.815 192.391 225.916C192.301 226.017 192.346 226.169 192.346 226.321Z" fill="#292C33"/>
<path d="M212.637 244.706C212.637 244.959 212.637 245.212 212.637 245.415C212.637 245.566 212.591 245.718 212.591 245.921C212.591 246.022 212.546 246.124 212.501 246.225C212.456 246.276 212.411 246.377 212.32 246.478C212.23 246.579 212.049 246.731 211.733 246.934C211.462 247.086 211.146 247.238 210.829 247.44C210.513 247.542 210.106 247.694 209.7 247.744C209.293 247.846 208.886 247.845 208.435 247.845C207.486 247.845 206.627 247.693 205.904 247.339C205.181 247.035 204.549 246.529 204.052 245.87C203.555 245.212 203.193 244.402 202.922 243.49C202.696 242.579 202.516 241.464 202.516 240.299C202.516 238.881 202.651 237.717 203.013 236.653C203.284 235.64 203.736 234.83 204.323 234.121C204.865 233.462 205.543 232.956 206.311 232.652C207.079 232.348 207.892 232.146 208.841 232.146C209.248 232.146 209.564 232.196 209.971 232.247C210.287 232.298 210.649 232.399 210.965 232.5C211.236 232.601 211.552 232.753 211.778 232.956C212.004 233.108 212.23 233.209 212.32 233.412C212.411 233.513 212.501 233.614 212.546 233.665C212.591 233.715 212.591 233.817 212.637 233.969C212.637 234.07 212.682 234.222 212.682 234.475C212.682 234.627 212.682 234.881 212.682 235.134C212.682 235.741 212.637 236.146 212.546 236.45C212.456 236.704 212.366 236.856 212.185 236.856C212.049 236.856 211.869 236.805 211.688 236.653C211.552 236.501 211.281 236.349 211.055 236.147C210.829 235.995 210.513 235.843 210.197 235.64C209.88 235.488 209.474 235.437 208.977 235.437C208.073 235.437 207.395 235.792 206.898 236.653C206.401 237.463 206.175 238.628 206.175 240.148C206.175 240.907 206.221 241.566 206.356 242.173C206.492 242.781 206.627 243.186 206.898 243.591C207.124 243.996 207.441 244.25 207.757 244.452C208.073 244.655 208.525 244.706 209.022 244.706C209.519 244.706 209.926 244.655 210.287 244.452C210.603 244.3 210.92 244.148 211.191 243.895C211.417 243.693 211.688 243.49 211.869 243.338C212.049 243.186 212.185 243.085 212.32 243.085C212.411 243.085 212.456 243.085 212.501 243.136C212.546 243.186 212.591 243.287 212.637 243.389C212.682 243.541 212.682 243.693 212.727 243.946C212.908 244.098 212.637 244.402 212.637 244.706Z" fill="#292C33"/>
<path d="M227.728 239.793C227.728 241.008 227.592 242.072 227.276 243.034C227.005 243.996 226.598 244.807 226.011 245.566C225.423 246.275 224.746 246.832 223.887 247.187C223.029 247.592 222.035 247.795 220.905 247.795C219.775 247.795 218.827 247.643 218.013 247.238C217.2 246.934 216.522 246.377 215.98 245.718C215.438 245.06 215.076 244.249 214.76 243.287C214.534 242.325 214.354 241.211 214.354 240.046C214.354 238.881 214.489 237.767 214.805 236.805C215.076 235.843 215.528 234.982 216.07 234.273C216.658 233.564 217.336 233.006 218.194 232.652C219.007 232.247 220.047 232.044 221.176 232.044C222.306 232.044 223.255 232.196 224.068 232.551C224.881 232.855 225.559 233.361 226.101 234.019C226.643 234.678 227.005 235.488 227.321 236.45C227.592 237.463 227.728 238.577 227.728 239.793ZM224.113 239.995C224.113 239.286 224.068 238.679 223.978 238.071C223.887 237.463 223.752 237.007 223.481 236.552C223.255 236.096 222.938 235.792 222.577 235.589C222.17 235.387 221.718 235.184 221.131 235.184C220.589 235.184 220.182 235.285 219.775 235.488C219.369 235.691 219.053 236.045 218.827 236.4C218.601 236.856 218.375 237.311 218.239 237.868C218.104 238.476 218.059 239.134 218.059 239.843C218.059 240.553 218.104 241.16 218.194 241.768C218.284 242.376 218.465 242.831 218.691 243.287C218.917 243.743 219.233 244.047 219.595 244.25C220.001 244.452 220.453 244.553 221.041 244.553C221.583 244.553 222.035 244.452 222.441 244.25C222.848 244.047 223.164 243.692 223.39 243.338C223.616 242.882 223.842 242.426 223.978 241.869C224.068 241.413 224.113 240.755 224.113 239.995Z" fill="#292C33"/>
<path d="M247.063 239.894C247.063 241.059 246.928 242.072 246.566 243.034C246.295 243.946 245.798 244.756 245.211 245.465C244.623 246.174 243.9 246.731 243.042 247.137C242.183 247.592 241.189 247.795 240.105 247.846V252.454C240.105 252.556 240.06 252.657 240.015 252.707C239.969 252.758 239.879 252.859 239.744 252.91C239.608 252.961 239.472 253.011 239.201 253.011C238.975 253.062 238.659 253.062 238.388 253.062C238.072 253.062 237.755 253.062 237.53 253.011C237.304 252.961 237.123 252.961 236.987 252.91C236.852 252.859 236.761 252.809 236.716 252.707C236.671 252.606 236.626 252.556 236.626 252.454V247.846C235.496 247.795 234.502 247.592 233.644 247.187C232.785 246.782 232.062 246.326 231.475 245.668C230.888 245.01 230.481 244.199 230.165 243.288C229.894 242.376 229.713 241.262 229.713 240.148C229.713 238.983 229.848 237.97 230.21 237.008C230.481 236.096 230.978 235.235 231.565 234.577C232.153 233.868 232.876 233.311 233.734 232.905C234.593 232.45 235.587 232.247 236.671 232.196V227.183C236.671 227.081 236.716 226.98 236.761 226.929C236.807 226.879 236.897 226.777 237.033 226.727C237.168 226.676 237.304 226.625 237.575 226.625C237.801 226.575 238.072 226.575 238.433 226.575C238.75 226.575 239.066 226.575 239.247 226.625C239.472 226.676 239.653 226.676 239.789 226.727C239.924 226.777 240.015 226.828 240.06 226.929C240.105 227.031 240.15 227.081 240.15 227.183V232.196C241.325 232.247 242.274 232.45 243.132 232.855C243.991 233.26 244.714 233.716 245.301 234.374C245.888 235.033 246.295 235.843 246.611 236.754C246.882 237.666 247.063 238.679 247.063 239.894ZM243.494 240.046C243.494 238.628 243.268 237.565 242.726 236.754C242.183 235.944 241.325 235.438 240.105 235.286V244.756C241.189 244.655 242.048 244.199 242.635 243.44C243.223 242.579 243.494 241.515 243.494 240.046ZM236.581 235.235C235.496 235.336 234.638 235.792 234.05 236.552C233.463 237.312 233.192 238.476 233.192 239.996C233.192 240.705 233.237 241.312 233.373 241.819C233.508 242.376 233.734 242.832 233.96 243.237C234.186 243.642 234.593 243.946 235.044 244.199C235.496 244.452 235.993 244.655 236.581 244.706V235.235Z" fill="#292C33"/>
<path d="M258.676 234.172C258.676 234.476 258.676 234.83 258.631 235.033C258.631 235.235 258.586 235.489 258.54 235.59C258.495 235.691 258.45 235.792 258.36 235.843C258.315 235.894 258.224 235.894 258.134 235.894H254.971V246.884C254.971 246.985 254.926 247.086 254.881 247.137C254.835 247.187 254.745 247.289 254.61 247.339C254.474 247.39 254.338 247.441 254.067 247.441C253.796 247.441 253.525 247.491 253.209 247.491C252.893 247.491 252.576 247.491 252.396 247.441C252.17 247.441 251.989 247.39 251.853 247.339C251.718 247.289 251.627 247.238 251.582 247.137C251.537 247.086 251.492 246.985 251.492 246.884V235.894H248.374C248.284 235.894 248.193 235.894 248.148 235.792C248.103 235.742 248.013 235.64 247.968 235.539C247.922 235.438 247.877 235.235 247.877 234.982C247.877 234.779 247.832 234.425 247.832 234.121C247.832 233.817 247.832 233.564 247.877 233.362C247.922 233.159 247.922 232.956 247.968 232.804C248.013 232.703 248.058 232.602 248.103 232.551C248.148 232.501 248.239 232.45 248.329 232.45H258.043C258.134 232.45 258.179 232.45 258.269 232.551C258.315 232.602 258.405 232.703 258.45 232.804C258.495 232.906 258.54 233.108 258.54 233.362C258.586 233.615 258.676 233.918 258.676 234.172Z" fill="#292C33"/>
<path d="M104.825 0H155.566C155.566 16.9733 155.566 33.991 155.566 51.0087H104.825C104.825 33.991 104.825 17.0176 104.825 0Z" fill="#108FCE"/>
<path d="M157.104 0H207.98C207.754 17.0176 207.98 34.0353 207.89 51.0087C190.991 51.0087 174.093 51.0087 157.149 51.0087C156.923 47.1531 157.149 43.3419 157.059 39.4863C157.059 26.3242 157.059 13.1621 157.059 0H157.104Z" fill="#ECECEC"/>
<path d="M209.242 0H260.073C260.073 17.0176 260.209 34.0353 260.073 51.0087C243.175 51.0087 226.276 51.0087 209.333 51.0087C209.333 33.991 209.333 16.9733 209.333 0H209.242Z" fill="#ECECEC"/>
<path d="M52.4107 103.613C52.4107 86.551 52.3203 69.5332 52.4107 52.4712C69.3995 52.4712 86.3432 52.4712 103.332 52.4712C103.332 69.4888 103.332 86.5066 103.332 103.524C86.3432 103.524 69.3092 103.524 52.3203 103.524L52.4107 103.613Z" fill="#E31E27"/>
<path d="M104.778 52.6038C121.722 52.6038 138.62 52.6038 155.519 52.6038C155.519 69.5771 155.519 86.5948 155.519 103.612C138.62 103.612 121.722 103.612 104.778 103.612C104.778 86.5948 104.778 69.5771 104.778 52.6038Z" fill="#108FCE"/>
<path d="M157.013 52.6043C173.731 52.6043 190.403 52.6043 207.121 52.6043C208.115 52.3827 207.754 53.7121 207.844 54.2439C207.844 70.6854 207.844 87.1714 207.844 103.613C190.946 103.613 174.002 103.613 157.103 103.613C156.877 86.5953 157.103 69.5776 157.103 52.6043H157.013Z" fill="#108FCE"/>
<path d="M209.246 52.7808C222.439 52.5149 235.678 52.7807 248.916 52.692C252.621 52.692 256.326 52.5592 260.031 52.8251C260.212 67.8042 260.031 82.8276 260.031 97.8067C260.031 99.7566 260.031 101.751 259.896 103.701C242.997 103.701 226.099 103.701 209.155 103.701C209.155 86.7274 209.155 69.7985 209.155 52.8251L209.246 52.7808Z" fill="#ECECEC"/>
<path d="M0.363215 105.03C17.2617 105.03 34.1602 105.03 51.1039 105.03C51.1039 121.472 51.1039 137.958 51.1039 154.399C50.9683 154.975 51.3298 156.261 50.3357 156.039C33.6632 156.039 16.9906 156.039 0.318029 156.039C0.00174733 153.646 -0.0886189 151.209 0.0921136 148.816C0.0921136 135.166 0.0921136 121.516 0.0921136 107.823C0.137297 106.848 0.272838 105.917 0.408387 104.942L0.363215 105.03Z" fill="#E31E27"/>
<path d="M52.502 105.075C69.4908 105.075 86.4345 105.075 103.378 105.075C103.378 121.915 103.378 138.711 103.378 155.552C102.881 156.349 101.932 156.039 101.209 156.128C87.4285 156.128 73.6477 156.128 59.8668 156.128C57.4269 156.128 54.9418 156.128 52.5471 155.995C52.5471 138.977 52.5471 122.004 52.502 105.075Z" fill="#E31E27"/>
<path d="M104.825 105.031C121.724 105.031 138.622 105.031 155.566 105.031C155.566 122.092 155.701 139.11 155.566 156.128C138.713 156.128 121.814 156.128 104.961 156.128C104.961 139.11 104.961 122.093 104.961 105.075L104.825 105.031Z" fill="#E31E27"/>
<path d="M157.054 105.031C173.997 105.031 190.896 105.031 207.794 105.031C207.794 121.516 207.794 137.958 207.794 154.444C207.704 154.976 208.02 156.305 207.071 156.084C190.715 156.084 174.359 156.084 158.048 156.084C157.054 156.305 156.783 155.153 156.918 154.444C156.918 138.002 156.828 121.516 156.918 105.031H157.054Z" fill="#108FCE"/>
<path d="M209.289 105.075C226.188 104.942 243.041 105.075 259.939 105.075C260.256 114.16 259.939 123.201 260.075 132.286C260.075 140.218 260.21 148.107 260.075 156.04C243.131 156.04 226.233 156.173 209.334 156.04C209.334 139.111 209.334 122.137 209.334 105.208L209.289 105.075Z" fill="#ECECEC"/>
</svg>
