<svg width="391" height="61" viewBox="0 0 391 61" fill="none" xmlns="http://www.w3.org/2000/svg">
<path d="M76.9973 15.6178C76.1999 15.5474 75.5432 15.3772 75.0272 15.1072C74.5112 14.8373 74.1008 14.4793 73.7959 14.0333C73.491 13.5755 73.274 13.0356 73.145 12.4136C73.0278 11.7915 72.9691 11.0931 72.9691 10.3185C72.9691 9.59077 73.0336 8.92175 73.1626 8.31142C73.3034 7.68935 73.532 7.14944 73.8486 6.69169C74.1653 6.2222 74.5816 5.84661 75.0976 5.56492C75.6135 5.28323 76.2468 5.10717 76.9973 5.03675V4.38534H78.9499V5.03675C79.7004 5.10717 80.3336 5.28323 80.8496 5.56492C81.3656 5.83488 81.7819 6.19286 82.0985 6.63887C82.4152 7.08488 82.6438 7.61306 82.7845 8.22339C82.9253 8.83372 82.9956 9.51448 82.9956 10.2657C82.9956 11.0403 82.9311 11.7445 82.8021 12.3783C82.6731 13.0004 82.4562 13.5403 82.1513 13.9981C81.8464 14.4558 81.4301 14.8255 80.9024 15.1072C80.3864 15.3772 79.7355 15.5474 78.9499 15.6178V16.6389H76.9973V15.6178ZM76.9797 6.86775C76.2175 6.92643 75.6898 7.26094 75.3966 7.87127C75.1034 8.48161 74.9568 9.27973 74.9568 10.2657C74.9568 10.8173 74.9862 11.3103 75.0448 11.7445C75.1152 12.1671 75.2266 12.5309 75.379 12.8361C75.5315 13.1295 75.7367 13.3584 75.9947 13.5227C76.2644 13.687 76.5928 13.7868 76.9797 13.822V6.86775ZM78.9674 13.822C79.7531 13.7633 80.2867 13.4406 80.5682 12.8537C80.8613 12.2551 81.0079 11.3866 81.0079 10.248C81.0079 9.25039 80.8555 8.45226 80.5506 7.85367C80.2574 7.25507 79.7297 6.92643 78.9674 6.86775V13.822Z" fill="#292C33"/>
<path d="M85.7441 16.6389V4.38534H92.5516V6.25155H87.7494V9.52621H91.8832V11.3572H87.7494V14.7199H92.5516V16.6389H85.7441Z" fill="#292C33"/>
<path d="M95.8174 19.1565H94.0759V14.984C94.2283 14.9605 94.3749 14.937 94.5157 14.9136C94.6564 14.8784 94.803 14.8431 94.9554 14.8079C95.2134 14.5849 95.4128 14.3267 95.5535 14.0333C95.7059 13.7399 95.8232 13.3819 95.9053 12.9593C95.9991 12.5251 96.0636 12.0204 96.0988 11.4452C96.134 10.8584 96.1633 10.1718 96.1868 9.38537L96.3626 4.38534H103.117C103.117 6.13417 103.117 7.87714 103.117 9.61424C103.129 11.3513 103.135 13.0943 103.135 14.8431H104.102V19.1565H102.361V16.6389H95.8174V19.1565ZM101.147 14.8431V6.21633H98.1217L97.981 9.89593C97.9575 10.4241 97.9341 10.9347 97.9106 11.4276C97.8871 11.9206 97.8461 12.3783 97.7875 12.8009C97.7406 13.2234 97.6702 13.6107 97.5764 13.9629C97.4826 14.3032 97.3536 14.5967 97.1894 14.8431H101.147Z" fill="#292C33"/>
<path d="M106.519 16.6389V4.38534H113.327V6.25155H108.525V9.52621H112.658V11.3572H108.525V14.7199H113.327V16.6389H106.519Z" fill="#292C33"/>
<path d="M123.154 8.17057C123.154 8.69874 123.077 9.1917 122.925 9.64945C122.773 10.1072 122.544 10.5063 122.239 10.8466C121.946 11.187 121.571 11.457 121.113 11.6565C120.656 11.8443 120.122 11.9382 119.513 11.9382H117.718V16.6389H115.713V4.38534H119.407C119.982 4.38534 120.498 4.46163 120.955 4.61421C121.412 4.7668 121.805 5.00154 122.133 5.31844C122.462 5.62361 122.714 6.0168 122.89 6.49803C123.066 6.96751 123.154 7.52503 123.154 8.17057ZM121.166 8.13536C121.166 7.52503 121.019 7.06141 120.726 6.74451C120.433 6.41587 119.987 6.25155 119.389 6.25155H117.718V10.0544H119.407C120.005 10.0544 120.445 9.8842 120.726 9.54382C121.019 9.1917 121.166 8.72222 121.166 8.13536Z" fill="#292C33"/>
<path d="M129.924 13.9981H126.53C126.506 14.1037 126.459 14.2798 126.389 14.5262C126.318 14.7727 126.242 15.0368 126.16 15.3185C126.09 15.6002 126.019 15.8643 125.949 16.1108C125.89 16.3572 125.844 16.5333 125.808 16.6389H123.715L127.251 4.38534H129.186L132.739 16.6389H130.611L129.924 13.9981ZM127.603 9.73748L126.969 12.2023H129.467L128.851 9.75509C128.828 9.64945 128.787 9.4734 128.728 9.22691C128.681 8.98043 128.623 8.72222 128.552 8.45226C128.494 8.18231 128.435 7.92996 128.377 7.69522C128.318 7.44874 128.283 7.27268 128.271 7.16704H128.183L127.603 9.73748Z" fill="#292C33"/>
<path d="M137.671 10.7938C137.671 11.768 137.618 12.6131 137.512 13.3291C137.419 14.0333 137.243 14.6319 136.985 15.1248C136.738 15.6061 136.404 15.9934 135.982 16.2868C135.56 16.5685 135.032 16.7739 134.399 16.903L133.854 15.3361C134.229 15.1835 134.54 15.0075 134.786 14.8079C135.044 14.5967 135.249 14.3326 135.402 14.0157C135.554 13.6988 135.66 13.3056 135.718 12.8361C135.789 12.3666 135.824 11.7797 135.824 11.0755V4.38534H142.438V16.6389H140.45V6.25155H137.671V10.7938Z" fill="#292C33"/>
<path d="M153.072 12.8537C153.072 14.0978 152.738 15.0427 152.069 15.6882C151.413 16.322 150.51 16.6389 149.36 16.6389H145.578V4.38534H147.601V9.22691H149.36C150.005 9.22691 150.556 9.32081 151.014 9.50861C151.483 9.68466 151.87 9.93114 152.175 10.248C152.48 10.565 152.702 10.9464 152.843 11.3924C152.996 11.8384 153.072 12.3255 153.072 12.8537ZM151.049 12.9065C151.049 12.3431 150.908 11.903 150.627 11.5861C150.357 11.2692 149.906 11.1107 149.272 11.1107H147.584V14.7727H149.29C149.9 14.7727 150.345 14.6025 150.627 14.2622C150.908 13.9218 151.049 13.4699 151.049 12.9065Z" fill="#292C33"/>
<path d="M160.792 16.6389V11.3396H157.345V16.6389H155.322V4.38534H157.345V9.52621H160.792V4.38534H162.798V16.6389H160.792Z" fill="#292C33"/>
<path d="M165.908 16.6389V4.38534H167.913V9.24452H169.707C170.352 9.24452 170.903 9.33255 171.361 9.50861C171.83 9.68466 172.211 9.93701 172.504 10.2657C172.809 10.5826 173.032 10.964 173.173 11.41C173.313 11.8443 173.384 12.3255 173.384 12.8537C173.384 14.1096 173.055 15.0544 172.399 15.6882C171.742 16.322 170.839 16.6389 169.69 16.6389H165.908ZM169.619 14.7727C170.229 14.7727 170.675 14.6084 170.956 14.2798C171.238 13.9394 171.378 13.4816 171.378 12.9065C171.378 12.3549 171.238 11.9206 170.956 11.6037C170.686 11.275 170.235 11.1107 169.602 11.1107H167.913V14.7727H169.619ZM174.421 16.6389V4.38534H176.427V16.6389H174.421Z" fill="#292C33"/>
<path d="M179.463 16.6389V4.38534H181.451V12.5896C181.463 12.5896 181.469 12.5955 181.469 12.6072C181.48 12.6072 181.492 12.6072 181.504 12.6072C181.774 12.1025 182.026 11.5978 182.26 11.0931C182.507 10.5884 182.753 10.0837 182.999 9.57903C183.445 8.71048 183.884 7.8478 184.318 6.99099C184.752 6.13417 185.186 5.26562 185.62 4.38534H187.485V16.6389H185.479V8.64593H185.444C185.245 9.03325 185.045 9.42645 184.846 9.82551C184.647 10.2246 184.447 10.6178 184.248 11.0051L181.363 16.6389H179.463ZM183.509 3.61069C183.017 3.61069 182.6 3.52266 182.26 3.3466C181.932 3.17054 181.662 2.95341 181.451 2.69519C181.252 2.43697 181.105 2.15528 181.011 1.85011C180.918 1.54495 180.865 1.26325 180.853 1.00504H182.366C182.378 1.13415 182.407 1.26912 182.454 1.40997C182.512 1.53908 182.589 1.66232 182.682 1.77969C182.788 1.89706 182.905 1.99683 183.034 2.07899C183.175 2.14941 183.333 2.18462 183.509 2.18462C183.697 2.18462 183.861 2.14941 184.002 2.07899C184.142 1.99683 184.26 1.89706 184.354 1.77969C184.447 1.66232 184.518 1.53908 184.565 1.40997C184.612 1.26912 184.635 1.13415 184.635 1.00504H186.13C186.107 1.26325 186.042 1.54495 185.937 1.85011C185.843 2.15528 185.696 2.43697 185.497 2.69519C185.298 2.95341 185.034 3.17054 184.705 3.3466C184.377 3.52266 183.978 3.61069 183.509 3.61069Z" fill="#292C33"/>
<path d="M195.377 16.6389V4.38534H197.365V12.5896C197.377 12.5896 197.382 12.5955 197.382 12.6072C197.394 12.6072 197.406 12.6072 197.418 12.6072C197.687 12.1025 197.94 11.5978 198.174 11.0931C198.42 10.5884 198.667 10.0837 198.913 9.57903C199.358 8.71048 199.798 7.8478 200.232 6.99099C200.666 6.13417 201.1 5.26562 201.534 4.38534H203.398V16.6389H201.393V8.64593H201.358C201.159 9.03325 200.959 9.42645 200.76 9.82551C200.56 10.2246 200.361 10.6178 200.162 11.0051L197.277 16.6389H195.377Z" fill="#292C33"/>
<path d="M211.88 16.6389V11.3396H208.432V16.6389H206.409V4.38534H208.432V9.52621H211.88V4.38534H213.885V16.6389H211.88Z" fill="#292C33"/>
<path d="M224.067 14.0333C223.867 14.8901 223.445 15.5591 222.8 16.0403C222.155 16.5098 221.375 16.7446 220.461 16.7446C219.827 16.7446 219.276 16.6448 218.807 16.4453C218.338 16.2457 217.945 15.9699 217.629 15.6178C217.312 15.2657 217.077 14.8549 216.925 14.3854C216.773 13.9042 216.696 13.3877 216.696 12.8361V8.08254C216.696 7.60132 216.773 7.13183 216.925 6.67408C217.077 6.21633 217.306 5.8114 217.611 5.45929C217.928 5.10717 218.32 4.82548 218.79 4.61421C219.259 4.40294 219.816 4.29731 220.461 4.29731C221.446 4.29731 222.243 4.55553 222.853 5.07196C223.474 5.5884 223.885 6.23394 224.084 7.00859L222.167 7.6424C222.132 7.46634 222.073 7.29615 221.991 7.13183C221.909 6.96751 221.797 6.8208 221.657 6.69169C221.516 6.55084 221.346 6.43934 221.147 6.35718C220.947 6.27502 220.719 6.23394 220.461 6.23394C220.156 6.23394 219.892 6.28676 219.669 6.39239C219.458 6.49803 219.282 6.63887 219.141 6.81493C219.001 6.97925 218.895 7.16704 218.825 7.37831C218.754 7.58958 218.719 7.80085 218.719 8.01212V12.8889C218.719 13.1471 218.754 13.3936 218.825 13.6283C218.895 13.8631 219.001 14.0685 219.141 14.2445C219.294 14.4206 219.476 14.5615 219.687 14.6671C219.909 14.761 220.167 14.8079 220.461 14.8079C220.895 14.8079 221.264 14.6847 221.569 14.4382C221.874 14.1917 222.067 13.8514 222.149 13.4171L224.067 14.0333Z" fill="#292C33"/>
<path d="M230.174 6.21633V16.6389H228.168V6.21633H225.477V4.38534H232.883V6.21633H230.174Z" fill="#292C33"/>
<path d="M234.935 16.6389V4.38534H236.923V12.5896C236.934 12.5896 236.94 12.5955 236.94 12.6072C236.952 12.6072 236.964 12.6072 236.975 12.6072C237.245 12.1025 237.497 11.5978 237.732 11.0931C237.978 10.5884 238.224 10.0837 238.471 9.57903C238.916 8.71048 239.356 7.8478 239.79 6.99099C240.224 6.13417 240.658 5.26562 241.091 4.38534H242.956V16.6389H240.951V8.64593H240.916C240.716 9.03325 240.517 9.42645 240.318 9.82551C240.118 10.2246 239.919 10.6178 239.719 11.0051L236.835 16.6389H234.935Z" fill="#292C33"/>
<path d="M249.643 6.21633V16.6389H247.638V6.21633H244.947V4.38534H252.352V6.21633H249.643Z" fill="#292C33"/>
<path d="M261.581 4.40294C261.065 6.02267 260.561 7.63653 260.069 9.24452C259.576 10.8408 259.066 12.4488 258.538 14.0685C258.351 14.6436 258.151 15.1072 257.94 15.4593C257.729 15.7997 257.506 16.0638 257.272 16.2516C257.037 16.4277 256.785 16.545 256.515 16.6037C256.246 16.6624 255.952 16.6976 255.636 16.7094H254.651V15.0544H255.372C255.618 15.0544 255.829 14.9899 256.005 14.8608C256.193 14.7316 256.369 14.4793 256.533 14.1037C256.556 14.0333 256.586 13.9629 256.621 13.8924C256.656 13.8103 256.685 13.7222 256.709 13.6283L253.525 4.40294H255.601L256.762 8.18818L257.641 11.0755H257.729C257.823 10.7469 257.952 10.2833 258.116 9.68466C258.292 9.08607 258.474 8.45813 258.661 7.80085C258.849 7.13183 259.031 6.49216 259.207 5.88183C259.383 5.25976 259.517 4.7668 259.611 4.40294H261.581Z" fill="#292C33"/>
<path d="M267.43 6.21633V16.6389H265.424V6.21633H262.733V4.38534H270.139V6.21633H267.43Z" fill="#292C33"/>
<path d="M283.95 16.6389H277.107V4.38534H279.13V14.7727H282.543V4.38534H284.548V14.7903H285.674V19.1742H283.95V16.6389Z" fill="#292C33"/>
<path d="M287.95 16.6389V4.38534H289.938V12.5896C289.949 12.5896 289.955 12.5955 289.955 12.6072C289.967 12.6072 289.979 12.6072 289.99 12.6072C290.26 12.1025 290.512 11.5978 290.747 11.0931C290.993 10.5884 291.239 10.0837 291.486 9.57903C291.931 8.71048 292.371 7.8478 292.805 6.99099C293.239 6.13417 293.673 5.26562 294.106 4.38534H295.971V16.6389H293.966V8.64593H293.931C293.731 9.03325 293.532 9.42645 293.332 9.82551C293.133 10.2246 292.934 10.6178 292.734 11.0051L289.85 16.6389H287.95Z" fill="#292C33"/>
<path d="M302.676 15.6178C301.879 15.5474 301.222 15.3772 300.706 15.1072C300.19 14.8373 299.779 14.4793 299.475 14.0333C299.17 13.5755 298.953 13.0356 298.824 12.4136C298.706 11.7915 298.648 11.0931 298.648 10.3185C298.648 9.59077 298.712 8.92175 298.841 8.31142C298.982 7.68935 299.211 7.14944 299.527 6.69169C299.844 6.2222 300.26 5.84661 300.776 5.56492C301.292 5.28323 301.925 5.10717 302.676 5.03675V4.38534H304.629V5.03675C305.379 5.10717 306.012 5.28323 306.528 5.56492C307.044 5.83488 307.461 6.19286 307.777 6.63887C308.094 7.08488 308.322 7.61306 308.463 8.22339C308.604 8.83372 308.674 9.51448 308.674 10.2657C308.674 11.0403 308.61 11.7445 308.481 12.3783C308.352 13.0004 308.135 13.5403 307.83 13.9981C307.525 14.4558 307.109 14.8255 306.581 15.1072C306.065 15.3772 305.414 15.5474 304.629 15.6178V16.6389H302.676V15.6178ZM302.658 6.86775C301.896 6.92643 301.368 7.26094 301.075 7.87127C300.782 8.48161 300.635 9.27973 300.635 10.2657C300.635 10.8173 300.665 11.3103 300.723 11.7445C300.794 12.1671 300.905 12.5309 301.058 12.8361C301.21 13.1295 301.415 13.3584 301.673 13.5227C301.943 13.687 302.271 13.7868 302.658 13.822V6.86775ZM304.646 13.822C305.432 13.7633 305.965 13.4406 306.247 12.8537C306.54 12.2551 306.687 11.3866 306.687 10.248C306.687 9.25039 306.534 8.45226 306.229 7.85367C305.936 7.25507 305.408 6.92643 304.646 6.86775V13.822Z" fill="#292C33"/>
<path d="M318.863 8.17057C318.863 8.69874 318.787 9.1917 318.635 9.64945C318.482 10.1072 318.254 10.5063 317.949 10.8466C317.656 11.187 317.28 11.457 316.823 11.6565C316.366 11.8443 315.832 11.9382 315.222 11.9382H313.428V16.6389H311.423V4.38534H315.117C315.691 4.38534 316.207 4.46163 316.665 4.61421C317.122 4.7668 317.515 5.00154 317.843 5.31844C318.172 5.62361 318.424 6.0168 318.6 6.49803C318.776 6.96751 318.863 7.52503 318.863 8.17057ZM316.876 8.13536C316.876 7.52503 316.729 7.06141 316.436 6.74451C316.143 6.41587 315.697 6.25155 315.099 6.25155H313.428V10.0544H315.117C315.715 10.0544 316.155 9.8842 316.436 9.54382C316.729 9.1917 316.876 8.72222 316.876 8.13536Z" fill="#292C33"/>
<path d="M328.309 12.9241C328.309 13.511 328.215 14.0391 328.027 14.5086C327.851 14.9781 327.593 15.3831 327.253 15.7234C326.925 16.0521 326.532 16.3044 326.075 16.4805C325.617 16.6565 325.113 16.7446 324.562 16.7446C323.894 16.7446 323.319 16.6389 322.838 16.4277C322.357 16.2047 321.964 15.9112 321.66 15.5474C321.366 15.1718 321.149 14.7434 321.009 14.2622C320.868 13.7692 320.798 13.2528 320.798 12.7129V8.08254C320.798 7.64827 320.862 7.20812 320.991 6.76211C321.132 6.3161 321.349 5.91117 321.642 5.54732C321.947 5.18347 322.334 4.88417 322.803 4.64942C323.284 4.41468 323.87 4.29731 324.562 4.29731C325.207 4.29731 325.764 4.40881 326.233 4.63182C326.702 4.85482 327.089 5.14825 327.394 5.51211C327.711 5.86422 327.939 6.26915 328.08 6.7269C328.232 7.17291 328.309 7.62479 328.309 8.08254V12.9241ZM326.268 8.04733C326.268 7.89475 326.239 7.71869 326.18 7.51916C326.133 7.30789 326.045 7.10836 325.916 6.92056C325.787 6.73277 325.612 6.57432 325.389 6.44521C325.178 6.30436 324.902 6.23394 324.562 6.23394C324.222 6.23394 323.935 6.29849 323.7 6.4276C323.477 6.54497 323.295 6.69756 323.155 6.88535C323.026 7.06141 322.932 7.25507 322.873 7.46634C322.815 7.67761 322.785 7.87714 322.785 8.06494L322.803 12.7481C322.803 13.3349 322.938 13.8279 323.207 14.2269C323.477 14.626 323.935 14.8255 324.58 14.8255C325.037 14.8255 325.43 14.673 325.758 14.3678C326.098 14.0509 326.268 13.6225 326.268 13.0826V8.04733Z" fill="#292C33"/>
<path d="M338.487 13.0121C338.487 14.1859 338.17 15.0838 337.537 15.7058C336.915 16.3279 336.077 16.6389 335.022 16.6389H331.081V4.38534H334.828C335.989 4.38534 336.857 4.68464 337.431 5.28323C338.018 5.88183 338.311 6.69756 338.311 7.73043C338.311 8.24686 338.2 8.72222 337.977 9.15649C337.766 9.59077 337.379 9.93701 336.816 10.1952V10.2833C337.109 10.3772 337.361 10.518 337.572 10.7058C337.783 10.8819 337.953 11.0931 338.082 11.3396C338.223 11.5861 338.323 11.856 338.381 12.1495C338.452 12.4312 338.487 12.7187 338.487 13.0121ZM336.341 7.80085C336.341 7.30789 336.206 6.92056 335.936 6.63887C335.678 6.35718 335.256 6.21633 334.67 6.21633H333.087V9.42058H334.687C335.262 9.42058 335.678 9.27386 335.936 8.98043C336.206 8.67527 336.341 8.28207 336.341 7.80085ZM336.517 12.8889C336.517 12.3725 336.388 11.9558 336.13 11.6389C335.872 11.322 335.444 11.1635 334.846 11.1635H333.087V14.7199H334.863C335.18 14.7199 335.444 14.673 335.655 14.5791C335.866 14.4852 336.036 14.3561 336.165 14.1917C336.294 14.0157 336.382 13.8161 336.429 13.5931C336.487 13.3701 336.517 13.1354 336.517 12.8889Z" fill="#292C33"/>
<path d="M348.362 12.9241C348.362 13.511 348.269 14.0391 348.081 14.5086C347.905 14.9781 347.647 15.3831 347.307 15.7234C346.979 16.0521 346.586 16.3044 346.128 16.4805C345.671 16.6565 345.167 16.7446 344.616 16.7446C343.947 16.7446 343.373 16.6389 342.892 16.4277C342.411 16.2047 342.018 15.9112 341.713 15.5474C341.42 15.1718 341.203 14.7434 341.062 14.2622C340.922 13.7692 340.851 13.2528 340.851 12.7129V8.08254C340.851 7.64827 340.916 7.20812 341.045 6.76211C341.185 6.3161 341.402 5.91117 341.696 5.54732C342.001 5.18347 342.388 4.88417 342.857 4.64942C343.337 4.41468 343.924 4.29731 344.616 4.29731C345.261 4.29731 345.818 4.40881 346.287 4.63182C346.756 4.85482 347.143 5.14825 347.448 5.51211C347.764 5.86422 347.993 6.26915 348.134 6.7269C348.286 7.17291 348.362 7.62479 348.362 8.08254V12.9241ZM346.322 8.04733C346.322 7.89475 346.293 7.71869 346.234 7.51916C346.187 7.30789 346.099 7.10836 345.97 6.92056C345.841 6.73277 345.665 6.57432 345.442 6.44521C345.231 6.30436 344.956 6.23394 344.616 6.23394C344.276 6.23394 343.988 6.29849 343.754 6.4276C343.531 6.54497 343.349 6.69756 343.208 6.88535C343.079 7.06141 342.986 7.25507 342.927 7.46634C342.868 7.67761 342.839 7.87714 342.839 8.06494L342.857 12.7481C342.857 13.3349 342.991 13.8279 343.261 14.2269C343.531 14.626 343.988 14.8255 344.633 14.8255C345.091 14.8255 345.483 14.673 345.812 14.3678C346.152 14.0509 346.322 13.6225 346.322 13.0826V8.04733Z" fill="#292C33"/>
<path d="M351.1 16.6389V4.38534H353.088V12.5896C353.099 12.5896 353.105 12.5955 353.105 12.6072C353.117 12.6072 353.129 12.6072 353.14 12.6072C353.41 12.1025 353.662 11.5978 353.897 11.0931C354.143 10.5884 354.389 10.0837 354.636 9.57903C355.081 8.71048 355.521 7.8478 355.955 6.99099C356.389 6.13417 356.823 5.26562 357.257 4.38534H359.121V16.6389H357.116V8.64593H357.081C356.881 9.03325 356.682 9.42645 356.483 9.82551C356.283 10.2246 356.084 10.6178 355.884 11.0051L353 16.6389H351.1ZM355.146 3.61069C354.653 3.61069 354.237 3.52266 353.897 3.3466C353.568 3.17054 353.299 2.95341 353.088 2.69519C352.888 2.43697 352.742 2.15528 352.648 1.85011C352.554 1.54495 352.501 1.26325 352.49 1.00504H354.002C354.014 1.13415 354.043 1.26912 354.09 1.40997C354.149 1.53908 354.225 1.66232 354.319 1.77969C354.424 1.89706 354.542 1.99683 354.671 2.07899C354.811 2.14941 354.97 2.18462 355.146 2.18462C355.333 2.18462 355.497 2.14941 355.638 2.07899C355.779 1.99683 355.896 1.89706 355.99 1.77969C356.084 1.66232 356.154 1.53908 356.201 1.40997C356.248 1.26912 356.271 1.13415 356.271 1.00504H357.767C357.743 1.26325 357.679 1.54495 357.573 1.85011C357.479 2.15528 357.333 2.43697 357.133 2.69519C356.934 2.95341 356.67 3.17054 356.342 3.3466C356.013 3.52266 355.615 3.61069 355.146 3.61069Z" fill="#292C33"/>
<path d="M76.9797 27.0854V37.508H74.9744V27.0854H72.2831V25.2544H79.6886V27.0854H76.9797Z" fill="#292C33"/>
<path d="M89.2167 29.0396C89.2167 29.5678 89.1405 30.0607 88.988 30.5185C88.8356 30.9762 88.6069 31.3753 88.302 31.7157C88.0088 32.0561 87.6336 32.326 87.1762 32.5255C86.7189 32.7133 86.1853 32.8072 85.5755 32.8072H83.7813V37.508H81.776V25.2544H85.47C86.0446 25.2544 86.5606 25.3307 87.0179 25.4833C87.4753 25.6358 87.8681 25.8706 88.1965 26.1875C88.5248 26.4927 88.7769 26.8858 88.9529 27.3671C89.1288 27.8366 89.2167 28.3941 89.2167 29.0396ZM87.229 29.0044C87.229 28.3941 87.0824 27.9305 86.7892 27.6135C86.4961 27.2849 86.0504 27.1206 85.4524 27.1206H83.7813V30.9234H85.47C86.068 30.9234 86.5078 30.7532 86.7892 30.4129C87.0824 30.0607 87.229 29.5913 87.229 29.0044Z" fill="#292C33"/>
<path d="M95.9875 34.8671H92.5925C92.5691 34.9727 92.5222 35.1488 92.4518 35.3953C92.3815 35.6418 92.3052 35.9058 92.2231 36.1875C92.1528 36.4692 92.0824 36.7333 92.0121 36.9798C91.9534 37.2263 91.9065 37.4023 91.8713 37.508H89.7781L93.3137 25.2544H95.2487L98.8019 37.508H96.6735L95.9875 34.8671ZM93.6656 30.6065L93.0323 33.0713H95.5301L94.9145 30.6241C94.891 30.5185 94.85 30.3424 94.7913 30.096C94.7444 29.8495 94.6858 29.5913 94.6154 29.3213C94.5568 29.0513 94.4982 28.799 94.4395 28.5643C94.3809 28.3178 94.3457 28.1417 94.334 28.0361H94.246L93.6656 30.6065Z" fill="#292C33"/>
<path d="M106.372 37.508V32.2086H102.925V37.508H100.902V25.2544H102.925V30.3953H106.372V25.2544H108.378V37.508H106.372Z" fill="#292C33"/>
<path d="M118.559 34.9023C118.36 35.7591 117.937 36.4282 117.292 36.9094C116.647 37.3789 115.868 37.6136 114.953 37.6136C114.32 37.6136 113.768 37.5138 113.299 37.3143C112.83 37.1148 112.437 36.839 112.121 36.4868C111.804 36.1347 111.57 35.7239 111.417 35.2544C111.265 34.7732 111.189 34.2568 111.189 33.7051V28.9516C111.189 28.4704 111.265 28.0009 111.417 27.5431C111.57 27.0854 111.798 26.6804 112.103 26.3283C112.42 25.9762 112.813 25.6945 113.282 25.4833C113.751 25.272 114.308 25.1663 114.953 25.1663C115.938 25.1663 116.735 25.4246 117.345 25.941C117.967 26.4574 118.377 27.103 118.577 27.8776L116.659 28.5114C116.624 28.3354 116.565 28.1652 116.483 28.0009C116.401 27.8366 116.29 27.6898 116.149 27.5607C116.008 27.4199 115.838 27.3084 115.639 27.2262C115.44 27.1441 115.211 27.103 114.953 27.103C114.648 27.103 114.384 27.1558 114.161 27.2614C113.95 27.3671 113.774 27.5079 113.634 27.684C113.493 27.8483 113.387 28.0361 113.317 28.2474C113.247 28.4586 113.211 28.6699 113.211 28.8812V33.7579C113.211 34.0162 113.247 34.2626 113.317 34.4974C113.387 34.7321 113.493 34.9375 113.634 35.1136C113.786 35.2896 113.968 35.4305 114.179 35.5361C114.402 35.63 114.66 35.677 114.953 35.677C115.387 35.677 115.756 35.5537 116.061 35.3073C116.366 35.0608 116.559 34.7204 116.642 34.2861L118.559 34.9023Z" fill="#292C33"/>
<path d="M124.684 36.4868C123.886 36.4164 123.23 36.2462 122.714 35.9763C122.198 35.7063 121.787 35.3483 121.482 34.9023C121.177 34.4446 120.96 33.9047 120.831 33.2826C120.714 32.6605 120.655 31.9622 120.655 31.1875C120.655 30.4598 120.72 29.7908 120.849 29.1805C120.99 28.5584 121.218 28.0185 121.535 27.5607C121.852 27.0912 122.268 26.7157 122.784 26.434C123.3 26.1523 123.933 25.9762 124.684 25.9058V25.2544H126.636V25.9058C127.387 25.9762 128.02 26.1523 128.536 26.434C129.052 26.7039 129.468 27.0619 129.785 27.5079C130.101 27.9539 130.33 28.4821 130.471 29.0924C130.612 29.7028 130.682 30.3835 130.682 31.1347C130.682 31.9093 130.617 32.6136 130.488 33.2474C130.359 33.8695 130.143 34.4094 129.838 34.8671C129.533 35.3249 129.116 35.6946 128.589 35.9763C128.073 36.2462 127.422 36.4164 126.636 36.4868V37.508H124.684V36.4868ZM124.666 27.7368C123.904 27.7955 123.376 28.13 123.083 28.7403C122.79 29.3506 122.643 30.1488 122.643 31.1347C122.643 31.6863 122.672 32.1793 122.731 32.6136C122.801 33.0361 122.913 33.4 123.065 33.7051C123.218 33.9986 123.423 34.2274 123.681 34.3918C123.951 34.5561 124.279 34.6558 124.666 34.6911V27.7368ZM126.654 34.6911C127.439 34.6324 127.973 34.3096 128.255 33.7227C128.548 33.1241 128.694 32.2556 128.694 31.1171C128.694 30.1194 128.542 29.3213 128.237 28.7227C127.944 28.1241 127.416 27.7955 126.654 27.7368V34.6911Z" fill="#292C33"/>
<path d="M140.607 33.7932C140.607 34.38 140.514 34.9082 140.326 35.3777C140.15 35.8472 139.892 36.2521 139.552 36.5925C139.224 36.9211 138.831 37.1735 138.373 37.3495C137.916 37.5256 137.412 37.6136 136.861 37.6136C136.192 37.6136 135.618 37.508 135.137 37.2967C134.656 37.0737 134.263 36.7803 133.958 36.4164C133.665 36.0408 133.448 35.6124 133.307 35.1312C133.167 34.6382 133.096 34.1218 133.096 33.5819V28.9516C133.096 28.5173 133.161 28.0772 133.29 27.6312C133.43 27.1851 133.647 26.7802 133.941 26.4164C134.245 26.0525 134.632 25.7532 135.102 25.5185C135.582 25.2837 136.169 25.1663 136.861 25.1663C137.506 25.1663 138.063 25.2779 138.532 25.5009C139.001 25.7239 139.388 26.0173 139.693 26.3811C140.009 26.7333 140.238 27.1382 140.379 27.5959C140.531 28.042 140.607 28.4938 140.607 28.9516V33.7932ZM138.567 28.9164C138.567 28.7638 138.538 28.5877 138.479 28.3882C138.432 28.1769 138.344 27.9774 138.215 27.7896C138.086 27.6018 137.91 27.4434 137.687 27.3143C137.476 27.1734 137.201 27.103 136.861 27.103C136.52 27.103 136.233 27.1675 135.999 27.2966C135.776 27.414 135.594 27.5666 135.453 27.7544C135.324 27.9305 135.231 28.1241 135.172 28.3354C135.113 28.5467 135.084 28.7462 135.084 28.934L135.102 33.6171C135.102 34.204 135.236 34.6969 135.506 35.096C135.776 35.495 136.233 35.6946 136.878 35.6946C137.336 35.6946 137.728 35.542 138.057 35.2368C138.397 34.9199 138.567 34.4915 138.567 33.9516V28.9164Z" fill="#292C33"/>
<path d="M150.821 29.0396C150.821 29.5678 150.744 30.0607 150.592 30.5185C150.44 30.9762 150.211 31.3753 149.906 31.7157C149.613 32.0561 149.238 32.326 148.78 32.5255C148.323 32.7133 147.789 32.8072 147.18 32.8072H145.385V37.508H143.38V25.2544H147.074C147.649 25.2544 148.165 25.3307 148.622 25.4833C149.079 25.6358 149.472 25.8706 149.8 26.1875C150.129 26.4927 150.381 26.8858 150.557 27.3671C150.733 27.8366 150.821 28.3941 150.821 29.0396ZM148.833 29.0044C148.833 28.3941 148.686 27.9305 148.393 27.6135C148.1 27.2849 147.654 27.1206 147.056 27.1206H145.385V30.9234H147.074C147.672 30.9234 148.112 30.7532 148.393 30.4129C148.686 30.0607 148.833 29.5913 148.833 29.0044Z" fill="#292C33"/>
<path d="M160.758 37.508V30.3424H160.688L159.791 32.6312L158.63 35.3073H157.205L156.009 32.5432L155.13 30.3248L155.059 30.3424V37.508H153.054V25.2544H154.971L156.695 29.2685L157.891 32.2262H157.962L159.14 29.2509L160.829 25.2544H162.764V37.508H160.758Z" fill="#292C33"/>
<path d="M170.942 34.8671H167.547C167.524 34.9727 167.477 35.1488 167.407 35.3953C167.336 35.6418 167.26 35.9058 167.178 36.1875C167.108 36.4692 167.037 36.7333 166.967 36.9798C166.908 37.2263 166.861 37.4023 166.826 37.508H164.733L168.269 25.2544H170.203L173.757 37.508H171.628L170.942 34.8671ZM168.62 30.6065L167.987 33.0713H170.485L169.869 30.6241C169.846 30.5185 169.805 30.3424 169.746 30.096C169.699 29.8495 169.641 29.5913 169.57 29.3213C169.512 29.0513 169.453 28.799 169.394 28.5643C169.336 28.3178 169.301 28.1417 169.289 28.0361H169.201L168.62 30.6065Z" fill="#292C33"/>
<path d="M182.699 37.508H175.856V25.2544H177.879V35.6418H181.292V25.2544H183.297V35.6594H184.423V40.0432H182.699V37.508Z" fill="#292C33"/>
<path d="M186.699 37.508V25.2544H188.687V33.4587C188.698 33.4587 188.704 33.4645 188.704 33.4763C188.716 33.4763 188.728 33.4763 188.739 33.4763C189.009 32.9716 189.261 32.4669 189.496 31.9622C189.742 31.4575 189.988 30.9528 190.234 30.4481C190.68 29.5795 191.12 28.7168 191.554 27.86C191.988 27.0032 192.422 26.1347 192.855 25.2544H194.72V37.508H192.715V29.515H192.68C192.48 29.9023 192.281 30.2955 192.081 30.6945C191.882 31.0936 191.683 31.4868 191.483 31.8741L188.599 37.508H186.699Z" fill="#292C33"/>
<path d="M197.713 37.508V25.2544H199.701V33.4587C199.713 33.4587 199.719 33.4645 199.719 33.4763C199.73 33.4763 199.742 33.4763 199.754 33.4763C200.024 32.9716 200.276 32.4669 200.51 31.9622C200.757 31.4575 201.003 30.9528 201.249 30.4481C201.695 29.5795 202.134 28.7168 202.568 27.86C203.002 27.0032 203.436 26.1347 203.87 25.2544H205.735V37.508H203.729V29.515H203.694C203.495 29.9023 203.295 30.2955 203.096 30.6945C202.897 31.0936 202.697 31.4868 202.498 31.8741L199.613 37.508H197.713Z" fill="#292C33"/>
<path d="M221.068 33.8812C221.068 35.0549 220.751 35.9528 220.118 36.5749C219.497 37.1969 218.658 37.508 217.603 37.508H213.662V25.2544H217.409C218.57 25.2544 219.438 25.5537 220.012 26.1523C220.599 26.7509 220.892 27.5666 220.892 28.5995C220.892 29.1159 220.781 29.5913 220.558 30.0255C220.347 30.4598 219.96 30.8061 219.397 31.0643V31.1523C219.69 31.2462 219.942 31.387 220.153 31.5748C220.364 31.7509 220.534 31.9622 220.663 32.2086C220.804 32.4551 220.904 32.7251 220.962 33.0185C221.033 33.3002 221.068 33.5878 221.068 33.8812ZM218.922 28.6699C218.922 28.1769 218.787 27.7896 218.517 27.5079C218.259 27.2262 217.837 27.0854 217.251 27.0854H215.668V30.2896H217.268C217.843 30.2896 218.259 30.1429 218.517 29.8495C218.787 29.5443 218.922 29.1511 218.922 28.6699ZM219.098 33.7579C219.098 33.2415 218.969 32.8248 218.711 32.5079C218.453 32.191 218.025 32.0326 217.427 32.0326H215.668V35.5889H217.444C217.761 35.5889 218.025 35.542 218.236 35.4481C218.447 35.3542 218.617 35.2251 218.746 35.0608C218.875 34.8847 218.963 34.6852 219.01 34.4622C219.068 34.2392 219.098 34.0044 219.098 33.7579Z" fill="#292C33"/>
<path d="M235.755 34.9023C235.555 35.7591 235.133 36.4282 234.488 36.9094C233.843 37.3789 233.063 37.6136 232.149 37.6136C231.515 37.6136 230.964 37.5138 230.495 37.3143C230.026 37.1148 229.633 36.839 229.317 36.4868C229 36.1347 228.765 35.7239 228.613 35.2544C228.46 34.7732 228.384 34.2568 228.384 33.7051V28.9516C228.384 28.4704 228.46 28.0009 228.613 27.5431C228.765 27.0854 228.994 26.6804 229.299 26.3283C229.616 25.9762 230.008 25.6945 230.478 25.4833C230.947 25.272 231.504 25.1663 232.149 25.1663C233.134 25.1663 233.931 25.4246 234.541 25.941C235.162 26.4574 235.573 27.103 235.772 27.8776L233.855 28.5114C233.82 28.3354 233.761 28.1652 233.679 28.0009C233.597 27.8366 233.485 27.6898 233.345 27.5607C233.204 27.4199 233.034 27.3084 232.835 27.2262C232.635 27.1441 232.407 27.103 232.149 27.103C231.844 27.103 231.58 27.1558 231.357 27.2614C231.146 27.3671 230.97 27.5079 230.829 27.684C230.689 27.8483 230.583 28.0361 230.513 28.2474C230.442 28.4586 230.407 28.6699 230.407 28.8812V33.7579C230.407 34.0162 230.442 34.2626 230.513 34.4974C230.583 34.7321 230.689 34.9375 230.829 35.1136C230.982 35.2896 231.164 35.4305 231.375 35.5361C231.597 35.63 231.855 35.677 232.149 35.677C232.582 35.677 232.952 35.5537 233.257 35.3073C233.562 35.0608 233.755 34.7204 233.837 34.2861L235.755 34.9023Z" fill="#292C33"/>
<path d="M241.879 36.4868C241.082 36.4164 240.425 36.2462 239.909 35.9763C239.393 35.7063 238.983 35.3483 238.678 34.9023C238.373 34.4446 238.156 33.9047 238.027 33.2826C237.91 32.6605 237.851 31.9622 237.851 31.1875C237.851 30.4598 237.916 29.7908 238.045 29.1805C238.185 28.5584 238.414 28.0185 238.731 27.5607C239.047 27.0912 239.464 26.7157 239.98 26.434C240.496 26.1523 241.129 25.9762 241.879 25.9058V25.2544H243.832V25.9058C244.582 25.9762 245.216 26.1523 245.732 26.434C246.248 26.7039 246.664 27.0619 246.981 27.5079C247.297 27.9539 247.526 28.4821 247.667 29.0924C247.807 29.7028 247.878 30.3835 247.878 31.1347C247.878 31.9093 247.813 32.6136 247.684 33.2474C247.555 33.8695 247.338 34.4094 247.033 34.8671C246.728 35.3249 246.312 35.6946 245.784 35.9763C245.268 36.2462 244.618 36.4164 243.832 36.4868V37.508H241.879V36.4868ZM241.862 27.7368C241.1 27.7955 240.572 28.13 240.279 28.7403C239.985 29.3506 239.839 30.1488 239.839 31.1347C239.839 31.6863 239.868 32.1793 239.927 32.6136C239.997 33.0361 240.109 33.4 240.261 33.7051C240.413 33.9986 240.619 34.2274 240.877 34.3918C241.146 34.5561 241.475 34.6558 241.862 34.6911V27.7368ZM243.849 34.6911C244.635 34.6324 245.169 34.3096 245.45 33.7227C245.743 33.1241 245.89 32.2556 245.89 31.1171C245.89 30.1194 245.737 29.3213 245.433 28.7227C245.139 28.1241 244.612 27.7955 243.849 27.7368V34.6911Z" fill="#292C33"/>
<path d="M250.626 37.508V25.2544H257.434V27.1206H252.631V30.3953H256.765V32.2262H252.631V35.5889H257.434V37.508H250.626Z" fill="#292C33"/>
<path d="M267.261 29.0396C267.261 29.5678 267.184 30.0607 267.032 30.5185C266.879 30.9762 266.651 31.3753 266.346 31.7157C266.053 32.0561 265.677 32.326 265.22 32.5255C264.763 32.7133 264.229 32.8072 263.619 32.8072H261.825V37.508H259.82V25.2544H263.514C264.088 25.2544 264.604 25.3307 265.062 25.4833C265.519 25.6358 265.912 25.8706 266.24 26.1875C266.569 26.4927 266.821 26.8858 266.997 27.3671C267.173 27.8366 267.261 28.3941 267.261 29.0396ZM265.273 29.0044C265.273 28.3941 265.126 27.9305 264.833 27.6135C264.54 27.2849 264.094 27.1206 263.496 27.1206H261.825V30.9234H263.514C264.112 30.9234 264.552 30.7532 264.833 30.4129C265.126 30.0607 265.273 29.5913 265.273 29.0044Z" fill="#292C33"/>
<path d="M269.529 37.508V25.2544H276.336V27.1206H271.534V30.3953H275.668V32.2262H271.534V35.5889H276.336V37.508H269.529Z" fill="#292C33"/>
<path d="M290.799 33.7932C290.799 34.38 290.705 34.9082 290.517 35.3777C290.341 35.8472 290.083 36.2521 289.743 36.5925C289.415 36.9211 289.022 37.1735 288.565 37.3495C288.107 37.5256 287.603 37.6136 287.052 37.6136C286.383 37.6136 285.809 37.508 285.328 37.2967C284.847 37.0737 284.454 36.7803 284.15 36.4164C283.856 36.0408 283.639 35.6124 283.499 35.1312C283.358 34.6382 283.288 34.1218 283.288 33.5819V28.9516C283.288 28.5173 283.352 28.0772 283.481 27.6312C283.622 27.1851 283.839 26.7802 284.132 26.4164C284.437 26.0525 284.824 25.7532 285.293 25.5185C285.774 25.2837 286.36 25.1663 287.052 25.1663C287.697 25.1663 288.254 25.2779 288.723 25.5009C289.192 25.7239 289.579 26.0173 289.884 26.3811C290.201 26.7333 290.429 27.1382 290.57 27.5959C290.722 28.042 290.799 28.4938 290.799 28.9516V33.7932ZM288.758 28.9164C288.758 28.7638 288.729 28.5877 288.67 28.3882C288.623 28.1769 288.535 27.9774 288.406 27.7896C288.277 27.6018 288.101 27.4434 287.879 27.3143C287.668 27.1734 287.392 27.103 287.052 27.103C286.712 27.103 286.424 27.1675 286.19 27.2966C285.967 27.414 285.785 27.5666 285.645 27.7544C285.516 27.9305 285.422 28.1241 285.363 28.3354C285.305 28.5467 285.275 28.7462 285.275 28.934L285.293 33.6171C285.293 34.204 285.428 34.6969 285.697 35.096C285.967 35.495 286.425 35.6946 287.069 35.6946C287.527 35.6946 287.92 35.542 288.248 35.2368C288.588 34.9199 288.758 34.4915 288.758 33.9516V28.9164Z" fill="#292C33"/>
<path d="M295.489 35.6418H297.177C297.799 35.6418 298.244 35.4774 298.514 35.1488C298.796 34.8084 298.936 34.3507 298.936 33.7756C298.936 33.2239 298.796 32.7896 298.514 32.4727C298.244 32.1441 297.793 31.9798 297.16 31.9798H295.489V35.6418ZM295.489 30.1136H297.248C297.893 30.1136 298.444 30.2075 298.901 30.3953C299.37 30.5713 299.757 30.8178 300.062 31.1347C300.367 31.4516 300.59 31.8331 300.731 32.2791C300.883 32.7133 300.959 33.1946 300.959 33.7227C300.959 34.9786 300.625 35.9235 299.957 36.5573C299.3 37.1911 298.403 37.508 297.265 37.508H293.466V25.2544H299.974V27.1206H295.489V30.1136Z" fill="#292C33"/>
<path d="M310.807 29.0396C310.807 29.5678 310.731 30.0607 310.578 30.5185C310.426 30.9762 310.197 31.3753 309.892 31.7157C309.599 32.0561 309.224 32.326 308.767 32.5255C308.309 32.7133 307.776 32.8072 307.166 32.8072H305.372V37.508H303.366V25.2544H307.06C307.635 25.2544 308.151 25.3307 308.608 25.4833C309.066 25.6358 309.458 25.8706 309.787 26.1875C310.115 26.4927 310.367 26.8858 310.543 27.3671C310.719 27.8366 310.807 28.3941 310.807 29.0396ZM308.819 29.0044C308.819 28.3941 308.673 27.9305 308.38 27.6135C308.086 27.2849 307.641 27.1206 307.043 27.1206H305.372V30.9234H307.06C307.658 30.9234 308.098 30.7532 308.38 30.4129C308.673 30.0607 308.819 29.5913 308.819 29.0044Z" fill="#292C33"/>
<path d="M317.578 34.8671H314.183C314.159 34.9727 314.112 35.1488 314.042 35.3953C313.972 35.6418 313.896 35.9058 313.813 36.1875C313.743 36.4692 313.673 36.7333 313.602 36.9798C313.544 37.2263 313.497 37.4023 313.462 37.508H311.368L314.904 25.2544H316.839L320.392 37.508H318.264L317.578 34.8671ZM315.256 30.6065L314.623 33.0713H317.12L316.505 30.6241C316.481 30.5185 316.44 30.3424 316.382 30.096C316.335 29.8495 316.276 29.5913 316.206 29.3213C316.147 29.0513 316.088 28.799 316.03 28.5643C315.971 28.3178 315.936 28.1417 315.924 28.0361H315.836L315.256 30.6065Z" fill="#292C33"/>
<path d="M321.788 34.7791C321.894 34.7439 322.029 34.7028 322.193 34.6558C322.369 34.5972 322.551 34.5385 322.738 34.4798C322.926 34.4094 323.102 34.3448 323.266 34.2861C323.442 34.2274 323.582 34.1805 323.688 34.1453C323.782 34.65 323.999 35.0432 324.339 35.3249C324.679 35.5948 325.084 35.7298 325.553 35.7298C326.08 35.7298 326.491 35.5596 326.784 35.2192C327.089 34.8788 327.241 34.4211 327.241 33.846C327.241 33.5878 327.212 33.3471 327.153 33.1241C327.106 32.9011 327.018 32.7075 326.889 32.5432C326.76 32.3671 326.59 32.2321 326.379 32.1382C326.168 32.0326 325.904 31.9798 325.588 31.9798H324.638V30.272H325.605C326.098 30.272 326.485 30.1253 326.766 29.8319C327.048 29.5384 327.189 29.1159 327.189 28.5643C327.189 28.1182 327.054 27.7603 326.784 27.4903C326.514 27.2086 326.133 27.0678 325.641 27.0678C325.16 27.0678 324.761 27.2086 324.444 27.4903C324.14 27.772 323.928 28.1359 323.811 28.5819L321.964 27.9128C322.164 27.0678 322.58 26.3988 323.213 25.9058C323.858 25.4011 324.679 25.1487 325.676 25.1487C326.813 25.1487 327.687 25.4246 328.297 25.9762C328.907 26.5279 329.211 27.3377 329.211 28.4058C329.211 28.6053 329.188 28.8342 329.141 29.0924C329.106 29.3506 329.036 29.6089 328.93 29.8671C328.836 30.1136 328.695 30.3483 328.508 30.5713C328.332 30.7826 328.103 30.9469 327.822 31.0643V31.1347C328.115 31.2521 328.355 31.4164 328.543 31.6277C328.742 31.8272 328.901 32.0561 329.018 32.3143C329.135 32.5725 329.211 32.8424 329.247 33.1241C329.293 33.3941 329.317 33.6582 329.317 33.9164C329.317 34.5267 329.223 35.0608 329.036 35.5185C328.86 35.9763 328.602 36.3636 328.262 36.6805C327.933 36.9857 327.534 37.2204 327.065 37.3847C326.608 37.5373 326.098 37.6136 325.535 37.6136C324.527 37.6136 323.688 37.3671 323.02 36.8742C322.363 36.3812 321.952 35.6828 321.788 34.7791Z" fill="#292C33"/>
<path d="M339.172 33.7932C339.172 34.38 339.078 34.9082 338.891 35.3777C338.715 35.8472 338.457 36.2521 338.117 36.5925C337.788 36.9211 337.395 37.1735 336.938 37.3495C336.481 37.5256 335.977 37.6136 335.425 37.6136C334.757 37.6136 334.182 37.508 333.701 37.2967C333.221 37.0737 332.828 36.7803 332.523 36.4164C332.23 36.0408 332.013 35.6124 331.872 35.1312C331.731 34.6382 331.661 34.1218 331.661 33.5819V28.9516C331.661 28.5173 331.726 28.0772 331.855 27.6312C331.995 27.1851 332.212 26.7802 332.505 26.4164C332.81 26.0525 333.197 25.7532 333.666 25.5185C334.147 25.2837 334.733 25.1663 335.425 25.1663C336.07 25.1663 336.627 25.2779 337.096 25.5009C337.565 25.7239 337.953 26.0173 338.257 26.3811C338.574 26.7333 338.803 27.1382 338.943 27.5959C339.096 28.042 339.172 28.4938 339.172 28.9516V33.7932ZM337.132 28.9164C337.132 28.7638 337.102 28.5877 337.044 28.3882C336.997 28.1769 336.909 27.9774 336.78 27.7896C336.651 27.6018 336.475 27.4434 336.252 27.3143C336.041 27.1734 335.765 27.103 335.425 27.103C335.085 27.103 334.798 27.1675 334.563 27.2966C334.341 27.414 334.159 27.5666 334.018 27.7544C333.889 27.9305 333.795 28.1241 333.737 28.3354C333.678 28.5467 333.649 28.7462 333.649 28.934L333.666 33.6171C333.666 34.204 333.801 34.6969 334.071 35.096C334.341 35.495 334.798 35.6946 335.443 35.6946C335.9 35.6946 336.293 35.542 336.621 35.2368C336.962 34.9199 337.132 34.4915 337.132 33.9516V28.9164Z" fill="#292C33"/>
<path d="M349.35 33.8812C349.35 35.0549 349.034 35.9528 348.4 36.5749C347.779 37.1969 346.94 37.508 345.885 37.508H341.945V25.2544H345.691C346.852 25.2544 347.72 25.5537 348.295 26.1523C348.881 26.7509 349.174 27.5666 349.174 28.5995C349.174 29.1159 349.063 29.5913 348.84 30.0255C348.629 30.4598 348.242 30.8061 347.679 31.0643V31.1523C347.972 31.2462 348.225 31.387 348.436 31.5748C348.647 31.7509 348.817 31.9622 348.946 32.2086C349.086 32.4551 349.186 32.7251 349.245 33.0185C349.315 33.3002 349.35 33.5878 349.35 33.8812ZM347.204 28.6699C347.204 28.1769 347.069 27.7896 346.8 27.5079C346.542 27.2262 346.12 27.0854 345.533 27.0854H343.95V30.2896H345.551C346.125 30.2896 346.542 30.1429 346.8 29.8495C347.069 29.5443 347.204 29.1511 347.204 28.6699ZM347.38 33.7579C347.38 33.2415 347.251 32.8248 346.993 32.5079C346.735 32.191 346.307 32.0326 345.709 32.0326H343.95V35.5889H345.727C346.043 35.5889 346.307 35.542 346.518 35.4481C346.729 35.3542 346.899 35.2251 347.028 35.0608C347.157 34.8847 347.245 34.6852 347.292 34.4622C347.351 34.2392 347.38 34.0044 347.38 33.7579Z" fill="#292C33"/>
<path d="M357.256 34.8671H353.861C353.837 34.9727 353.79 35.1488 353.72 35.3953C353.65 35.6418 353.573 35.9058 353.491 36.1875C353.421 36.4692 353.351 36.7333 353.28 36.9798C353.222 37.2263 353.175 37.4023 353.14 37.508H351.046L354.582 25.2544H356.517L360.07 37.508H357.942L357.256 34.8671ZM354.934 30.6065L354.3 33.0713H356.798L356.183 30.6241C356.159 30.5185 356.118 30.3424 356.06 30.096C356.013 29.8495 355.954 29.5913 355.884 29.3213C355.825 29.0513 355.766 28.799 355.708 28.5643C355.649 28.3178 355.614 28.1417 355.602 28.0361H355.514L354.934 30.6065Z" fill="#292C33"/>
<path d="M367.64 37.508V32.2086H364.193V37.508H362.17V25.2544H364.193V30.3953H367.64V25.2544H369.646V37.508H367.64Z" fill="#292C33"/>
<path d="M372.703 37.508V25.2544H374.691V33.4587C374.702 33.4587 374.708 33.4645 374.708 33.4763C374.72 33.4763 374.732 33.4763 374.743 33.4763C375.013 32.9716 375.265 32.4669 375.5 31.9622C375.746 31.4575 375.992 30.9528 376.239 30.4481C376.684 29.5795 377.124 28.7168 377.558 27.86C377.992 27.0032 378.426 26.1347 378.86 25.2544H380.724V37.508H378.719V29.515H378.684C378.484 29.9023 378.285 30.2955 378.086 30.6945C377.886 31.0936 377.687 31.4868 377.488 31.8741L374.603 37.508H372.703Z" fill="#292C33"/>
<path d="M391 25.2544V37.508H388.977V32.3143H387.887C387.488 32.3143 387.118 32.4493 386.778 32.7192C386.438 32.9774 386.174 33.4704 385.987 34.1981L385.248 37.508H383.155L383.981 33.846C384.099 33.3765 384.257 32.9657 384.456 32.6136C384.656 32.2615 384.961 32.0032 385.371 31.8389C384.714 31.6159 384.251 31.2345 383.981 30.6945C383.712 30.1429 383.577 29.5443 383.577 28.8988C383.577 28.3354 383.659 27.8307 383.823 27.3847C383.999 26.9269 384.239 26.5396 384.544 26.2227C384.861 25.9058 385.236 25.6652 385.67 25.5009C386.104 25.3365 386.585 25.2544 387.113 25.2544H391ZM385.6 28.934C385.6 29.5208 385.77 29.9316 386.11 30.1664C386.462 30.3894 386.896 30.5009 387.412 30.5009H388.977V27.103H387.359C386.761 27.103 386.315 27.2673 386.022 27.5959C385.74 27.9246 385.6 28.3706 385.6 28.934Z" fill="#292C33"/>
<path d="M79.4689 58.2359V53.6399L79.4411 53.6584L78.9412 54.8723L77.8302 57.2815H77.1174L75.9879 54.7982L75.5065 53.6399L75.4787 53.6584V58.2359H74.664V51.7867H75.4787L76.8396 54.7982L77.4784 56.2993H77.5062L78.145 54.8074L79.4874 51.7867H80.2836V58.2359H79.4689Z" fill="#292C33"/>
<path d="M82.9689 58.2359V51.7867H83.7744V56.8645L83.8021 56.883L87.1258 51.7867H87.8109V58.2359H86.9962V53.3897L86.9684 53.3804L83.7651 58.2359H82.9689Z" fill="#292C33"/>
<path d="M94.2624 58.2359V55.3356H91.4109V58.2359H90.5962V51.7867H91.4109V54.6221H94.2624V51.7867H95.0771V58.2359H94.2624Z" fill="#292C33"/>
<path d="M97.8614 58.2359V51.7867H98.6668V56.8645L98.6946 56.883L102.018 51.7867H102.703V58.2359H101.889V53.3897L101.861 53.3804L98.6576 58.2359H97.8614Z" fill="#292C33"/>
<path d="M109.673 56.9201C109.513 57.3525 109.251 57.6892 108.886 57.9301C108.522 58.1711 108.078 58.2915 107.553 58.2915C107.171 58.2915 106.834 58.2266 106.544 58.0969C106.26 57.9672 106.023 57.7942 105.831 57.578C105.64 57.3618 105.498 57.1085 105.405 56.8182C105.313 56.5278 105.266 56.2221 105.266 55.9008V54.1217C105.266 53.8067 105.313 53.5071 105.405 53.2229C105.498 52.9326 105.64 52.6793 105.831 52.4631C106.023 52.2407 106.26 52.0646 106.544 51.9349C106.834 51.8052 107.171 51.7403 107.553 51.7403C108.078 51.7403 108.519 51.8639 108.877 52.111C109.235 52.3581 109.497 52.6886 109.664 53.1025L108.905 53.4453C108.8 53.1673 108.633 52.9449 108.405 52.7781C108.177 52.6113 107.896 52.5279 107.562 52.5279C107.309 52.5279 107.09 52.5743 106.905 52.6669C106.72 52.7596 106.566 52.8832 106.442 53.0376C106.319 53.1858 106.226 53.3588 106.165 53.5565C106.103 53.7542 106.072 53.9549 106.072 54.1588V55.836C106.072 56.0522 106.103 56.2622 106.165 56.4661C106.226 56.6638 106.319 56.8398 106.442 56.9942C106.566 57.1487 106.72 57.2753 106.905 57.3742C107.09 57.4668 107.309 57.5132 107.562 57.5132C107.896 57.5132 108.177 57.4267 108.405 57.2537C108.639 57.0746 108.809 56.8398 108.914 56.5495L109.673 56.9201Z" fill="#292C33"/>
<path d="M113.858 52.5001V58.2359H113.043V52.5001H111.21V51.7867H115.691V52.5001H113.858Z" fill="#292C33"/>
<path d="M117.795 58.2359V51.7867H121.869V52.5372H118.61V54.6221H121.388V55.3356H118.61V57.4854H121.869V58.2359H117.795Z" fill="#292C33"/>
<path d="M128.701 53.7418C128.701 53.9642 128.655 54.1897 128.562 54.4183C128.476 54.6468 128.346 54.8507 128.173 55.0298C128.007 55.209 127.797 55.3572 127.544 55.4746C127.297 55.5858 127.016 55.6414 126.701 55.6414H125.026V58.2359H124.211V51.7867H126.572C126.837 51.7867 127.096 51.8237 127.349 51.8979C127.609 51.972 127.837 52.0894 128.035 52.25C128.232 52.4044 128.393 52.6052 128.516 52.8523C128.639 53.0994 128.701 53.3959 128.701 53.7418ZM127.849 53.714C127.849 53.3187 127.729 53.0252 127.488 52.8337C127.254 52.6361 126.954 52.5372 126.59 52.5372H125.026V54.8908H126.627C126.831 54.8908 127.01 54.8568 127.164 54.7889C127.319 54.7148 127.445 54.6221 127.544 54.5109C127.649 54.3997 127.726 54.2762 127.775 54.1403C127.825 53.9982 127.849 53.8561 127.849 53.714Z" fill="#292C33"/>
<path d="M135.082 56.9201C134.922 57.3525 134.66 57.6892 134.295 57.9301C133.931 58.1711 133.487 58.2915 132.962 58.2915C132.58 58.2915 132.243 58.2266 131.953 58.0969C131.669 57.9672 131.432 57.7942 131.24 57.578C131.049 57.3618 130.907 57.1085 130.814 56.8182C130.722 56.5278 130.676 56.2221 130.676 55.9008V54.1217C130.676 53.8067 130.722 53.5071 130.814 53.2229C130.907 52.9326 131.049 52.6793 131.24 52.4631C131.432 52.2407 131.669 52.0646 131.953 51.9349C132.243 51.8052 132.58 51.7403 132.962 51.7403C133.487 51.7403 133.928 51.8639 134.286 52.111C134.644 52.3581 134.906 52.6886 135.073 53.1025L134.314 53.4453C134.209 53.1673 134.042 52.9449 133.814 52.7781C133.586 52.6113 133.305 52.5279 132.972 52.5279C132.719 52.5279 132.499 52.5743 132.314 52.6669C132.129 52.7596 131.975 52.8832 131.851 53.0376C131.728 53.1858 131.635 53.3588 131.574 53.5565C131.512 53.7542 131.481 53.9549 131.481 54.1588V55.836C131.481 56.0522 131.512 56.2622 131.574 56.4661C131.635 56.6638 131.728 56.8398 131.851 56.9942C131.975 57.1487 132.129 57.2753 132.314 57.3742C132.499 57.4668 132.719 57.5132 132.972 57.5132C133.305 57.5132 133.586 57.4267 133.814 57.2537C134.049 57.0746 134.218 56.8398 134.323 56.5495L135.082 56.9201Z" fill="#292C33"/>
<path d="M139.267 52.5001V58.2359H138.452V52.5001H136.619V51.7867H141.1V52.5001H139.267Z" fill="#292C33"/>
<path d="M147.685 56.4475C147.685 56.7193 147.636 56.9664 147.537 57.1888C147.445 57.4112 147.315 57.5996 147.148 57.7541C146.988 57.9085 146.8 58.029 146.584 58.1155C146.374 58.1958 146.149 58.2359 145.908 58.2359H143.204V51.7867H145.639C145.954 51.7867 146.229 51.8299 146.463 51.9164C146.698 51.9967 146.895 52.111 147.056 52.2592C147.216 52.4075 147.337 52.5866 147.417 52.7967C147.497 53.0005 147.537 53.226 147.537 53.4731C147.537 53.6028 147.519 53.7387 147.482 53.8808C147.451 54.0167 147.395 54.1495 147.315 54.2793C147.235 54.4028 147.133 54.5202 147.01 54.6314C146.886 54.7364 146.738 54.8198 146.565 54.8816V54.9094C146.75 54.9526 146.914 55.0267 147.056 55.1317C147.198 55.2368 147.315 55.3603 147.408 55.5024C147.5 55.6445 147.568 55.7989 147.611 55.9657C147.661 56.1263 147.685 56.2869 147.685 56.4475ZM144.019 52.5001V54.585H145.538C145.933 54.585 146.229 54.4862 146.426 54.2885C146.624 54.0847 146.723 53.8345 146.723 53.538C146.723 53.2476 146.624 53.0036 146.426 52.8059C146.229 52.6021 145.933 52.5001 145.538 52.5001H144.019ZM144.019 55.2893V57.4854H145.676C145.88 57.4854 146.056 57.4545 146.204 57.3927C146.358 57.3309 146.482 57.2506 146.574 57.1518C146.673 57.0468 146.747 56.9294 146.797 56.7997C146.846 56.6638 146.871 56.5248 146.871 56.3827C146.871 56.2406 146.846 56.1047 146.797 55.975C146.747 55.8391 146.673 55.7217 146.574 55.6229C146.482 55.5178 146.358 55.4375 146.204 55.3819C146.056 55.3202 145.88 55.2893 145.676 55.2893H144.019Z" fill="#292C33"/>
<path d="M152.172 51.7403C152.524 51.7403 152.842 51.8021 153.126 51.9256C153.41 52.043 153.651 52.2067 153.848 52.4168C154.052 52.6268 154.206 52.8801 154.311 53.1766C154.416 53.4669 154.468 53.782 154.468 54.1217V55.9008C154.468 56.2653 154.413 56.5958 154.302 56.8923C154.197 57.1888 154.043 57.4421 153.839 57.6521C153.641 57.856 153.401 58.0135 153.117 58.1247C152.839 58.2359 152.524 58.2915 152.172 58.2915C151.79 58.2915 151.453 58.2266 151.163 58.0969C150.879 57.9672 150.642 57.7942 150.45 57.578C150.259 57.3618 150.117 57.1085 150.025 56.8182C149.932 56.5278 149.886 56.2221 149.886 55.9008V54.1217C149.886 53.8067 149.932 53.5071 150.025 53.2229C150.117 52.9326 150.259 52.6793 150.45 52.4631C150.642 52.2407 150.879 52.0646 151.163 51.9349C151.453 51.8052 151.79 51.7403 152.172 51.7403ZM152.182 52.5094C151.929 52.5094 151.709 52.5558 151.524 52.6484C151.339 52.7411 151.185 52.8646 151.061 53.0191C150.938 53.1673 150.845 53.3403 150.784 53.538C150.722 53.7356 150.691 53.9364 150.691 54.1403V55.8545C150.691 56.0707 150.722 56.2808 150.784 56.4846C150.845 56.6823 150.938 56.8583 151.061 57.0128C151.185 57.1672 151.339 57.2938 151.524 57.3927C151.709 57.4854 151.929 57.5317 152.182 57.5317C152.41 57.5317 152.614 57.4884 152.793 57.402C152.978 57.3155 153.132 57.1981 153.256 57.0498C153.385 56.9016 153.484 56.7255 153.552 56.5217C153.62 56.3178 153.654 56.0954 153.654 55.8545V54.1403C153.654 53.9179 153.62 53.7078 153.552 53.5102C153.484 53.3125 153.385 53.1395 153.256 52.9913C153.132 52.843 152.978 52.7256 152.793 52.6391C152.614 52.5527 152.41 52.5094 152.182 52.5094Z" fill="#292C33"/>
<path d="M164.146 58.2359V52.5001H161.295V58.2359H160.48V51.7867H164.961V58.2359H164.146Z" fill="#292C33"/>
<path d="M172.245 53.7418C172.245 53.9642 172.199 54.1897 172.106 54.4183C172.02 54.6468 171.89 54.8507 171.717 55.0298C171.55 55.209 171.341 55.3572 171.088 55.4746C170.841 55.5858 170.56 55.6414 170.245 55.6414H168.569V58.2359H167.755V51.7867H170.115C170.381 51.7867 170.64 51.8237 170.893 51.8979C171.152 51.972 171.381 52.0894 171.578 52.25C171.776 52.4044 171.936 52.6052 172.06 52.8523C172.183 53.0994 172.245 53.3959 172.245 53.7418ZM171.393 53.714C171.393 53.3187 171.273 53.0252 171.032 52.8337C170.797 52.6361 170.498 52.5372 170.134 52.5372H168.569V54.8908H170.171C170.375 54.8908 170.554 54.8568 170.708 54.7889C170.862 54.7148 170.989 54.6221 171.088 54.5109C171.193 54.3997 171.27 54.2762 171.319 54.1403C171.368 53.9982 171.393 53.8561 171.393 53.714Z" fill="#292C33"/>
<path d="M176.487 51.7403C176.839 51.7403 177.157 51.8021 177.441 51.9256C177.725 52.043 177.966 52.2067 178.163 52.4168C178.367 52.6268 178.521 52.8801 178.626 53.1766C178.731 53.4669 178.783 53.782 178.783 54.1217V55.9008C178.783 56.2653 178.728 56.5958 178.617 56.8923C178.512 57.1888 178.358 57.4421 178.154 57.6521C177.956 57.856 177.716 58.0135 177.432 58.1247C177.154 58.2359 176.839 58.2915 176.487 58.2915C176.105 58.2915 175.768 58.2266 175.478 58.0969C175.194 57.9672 174.957 57.7942 174.765 57.578C174.574 57.3618 174.432 57.1085 174.34 56.8182C174.247 56.5278 174.201 56.2221 174.201 55.9008V54.1217C174.201 53.8067 174.247 53.5071 174.34 53.2229C174.432 52.9326 174.574 52.6793 174.765 52.4631C174.957 52.2407 175.194 52.0646 175.478 51.9349C175.768 51.8052 176.105 51.7403 176.487 51.7403ZM176.497 52.5094C176.244 52.5094 176.025 52.5558 175.839 52.6484C175.654 52.7411 175.5 52.8646 175.377 53.0191C175.253 53.1673 175.16 53.3403 175.099 53.538C175.037 53.7356 175.006 53.9364 175.006 54.1403V55.8545C175.006 56.0707 175.037 56.2808 175.099 56.4846C175.16 56.6823 175.253 56.8583 175.377 57.0128C175.5 57.1672 175.654 57.2938 175.839 57.3927C176.025 57.4854 176.244 57.5317 176.497 57.5317C176.725 57.5317 176.929 57.4884 177.108 57.402C177.293 57.3155 177.447 57.1981 177.571 57.0498C177.7 56.9016 177.799 56.7255 177.867 56.5217C177.935 56.3178 177.969 56.0954 177.969 55.8545V54.1403C177.969 53.9179 177.935 53.7078 177.867 53.5102C177.799 53.3125 177.7 53.1395 177.571 52.9913C177.447 52.843 177.293 52.7256 177.108 52.6391C176.929 52.5527 176.725 52.5094 176.497 52.5094Z" fill="#292C33"/>
<path d="M185.521 56.9201C185.36 57.3525 185.098 57.6892 184.734 57.9301C184.37 58.1711 183.925 58.2915 183.401 58.2915C183.018 58.2915 182.682 58.2266 182.392 58.0969C182.108 57.9672 181.87 57.7942 181.679 57.578C181.487 57.3618 181.345 57.1085 181.253 56.8182C181.16 56.5278 181.114 56.2221 181.114 55.9008V54.1217C181.114 53.8067 181.16 53.5071 181.253 53.2229C181.345 52.9326 181.487 52.6793 181.679 52.4631C181.87 52.2407 182.108 52.0646 182.392 51.9349C182.682 51.8052 183.018 51.7403 183.401 51.7403C183.925 51.7403 184.367 51.8639 184.725 52.111C185.083 52.3581 185.345 52.6886 185.512 53.1025L184.752 53.4453C184.648 53.1673 184.481 52.9449 184.252 52.7781C184.024 52.6113 183.743 52.5279 183.41 52.5279C183.157 52.5279 182.938 52.5743 182.753 52.6669C182.568 52.7596 182.413 52.8832 182.29 53.0376C182.166 53.1858 182.074 53.3588 182.012 53.5565C181.95 53.7542 181.919 53.9549 181.919 54.1588V55.836C181.919 56.0522 181.95 56.2622 182.012 56.4661C182.074 56.6638 182.166 56.8398 182.29 56.9942C182.413 57.1487 182.568 57.2753 182.753 57.3742C182.938 57.4668 183.157 57.5132 183.41 57.5132C183.743 57.5132 184.024 57.4267 184.252 57.2537C184.487 57.0746 184.657 56.8398 184.762 56.5495L185.521 56.9201Z" fill="#292C33"/>
<path d="M192.233 56.4475C192.233 56.7193 192.183 56.9664 192.085 57.1888C191.992 57.4112 191.862 57.5996 191.696 57.7541C191.535 57.9085 191.347 58.029 191.131 58.1155C190.921 58.1958 190.696 58.2359 190.455 58.2359H187.752V51.7867H190.187C190.501 51.7867 190.776 51.8299 191.011 51.9164C191.245 51.9967 191.443 52.111 191.603 52.2592C191.764 52.4075 191.884 52.5866 191.964 52.7967C192.044 53.0005 192.085 53.226 192.085 53.4731C192.085 53.6028 192.066 53.7387 192.029 53.8808C191.998 54.0167 191.943 54.1495 191.862 54.2793C191.782 54.4028 191.68 54.5202 191.557 54.6314C191.433 54.7364 191.285 54.8198 191.112 54.8816V54.9094C191.298 54.9526 191.461 55.0267 191.603 55.1317C191.745 55.2368 191.862 55.3603 191.955 55.5024C192.048 55.6445 192.115 55.7989 192.159 55.9657C192.208 56.1263 192.233 56.2869 192.233 56.4475ZM188.566 52.5001V54.585H190.085C190.48 54.585 190.776 54.4862 190.974 54.2885C191.171 54.0847 191.27 53.8345 191.27 53.538C191.27 53.2476 191.171 53.0036 190.974 52.8059C190.776 52.6021 190.48 52.5001 190.085 52.5001H188.566ZM188.566 55.2893V57.4854H190.224C190.427 57.4854 190.603 57.4545 190.751 57.3927C190.906 57.3309 191.029 57.2506 191.122 57.1518C191.22 57.0468 191.295 56.9294 191.344 56.7997C191.393 56.6638 191.418 56.5248 191.418 56.3827C191.418 56.2406 191.393 56.1047 191.344 55.975C191.295 55.8391 191.22 55.7217 191.122 55.6229C191.029 55.5178 190.906 55.4375 190.751 55.3819C190.603 55.3202 190.427 55.2893 190.224 55.2893H188.566Z" fill="#292C33"/>
<path d="M194.674 58.2359V51.7867H198.747V52.5372H195.488V54.6221H198.266V55.3356H195.488V57.4854H198.747V58.2359H194.674Z" fill="#292C33"/>
<path d="M207.94 58.2359H201.015V51.7867H201.83V57.4854H204.117V51.7867H204.931V57.4854H207.237V51.7867H208.051V57.5039H208.736V59.6166H207.94V58.2359Z" fill="#292C33"/>
<path d="M211.067 58.2359V51.7867H215.14V52.5372H211.882V54.6221H214.659V55.3356H211.882V57.4854H215.14V58.2359H211.067Z" fill="#292C33"/>
<path d="M221.149 58.2359V55.3356H218.297V58.2359H217.482V51.7867H218.297V54.6221H221.149V51.7867H221.963V58.2359H221.149Z" fill="#292C33"/>
<path d="M224.748 58.2359V51.7867H225.553V56.8645L225.581 56.883L228.905 51.7867H229.59V58.2359H228.775V53.3897L228.747 53.3804L225.544 58.2359H224.748Z" fill="#292C33"/>
<path d="M233.042 53.6677C233.042 53.853 233.075 54.0105 233.143 54.1403C233.211 54.2638 233.304 54.3688 233.421 54.4553C233.545 54.5356 233.687 54.5943 233.847 54.6314C234.007 54.6684 234.18 54.687 234.365 54.687H235.791V52.5001H234.282C233.899 52.5001 233.597 52.6052 233.375 52.8152C233.153 53.0191 233.042 53.3032 233.042 53.6677ZM235.791 55.3819H234.643C234.52 55.3819 234.393 55.4005 234.264 55.4375C234.134 55.4684 234.011 55.524 233.893 55.6043C233.776 55.6846 233.665 55.7958 233.56 55.9379C233.461 56.08 233.381 56.256 233.319 56.4661L232.81 58.2359H231.931L232.458 56.3734C232.551 56.0584 232.659 55.8051 232.782 55.6136C232.912 55.4221 233.097 55.2831 233.338 55.1966C233.116 55.141 232.934 55.0576 232.792 54.9464C232.65 54.829 232.535 54.6993 232.449 54.5572C232.369 54.4152 232.31 54.2669 232.273 54.1125C232.242 53.958 232.227 53.8129 232.227 53.677C232.227 53.4175 232.27 53.1735 232.356 52.9449C232.443 52.7102 232.569 52.5094 232.736 52.3426C232.903 52.1697 233.106 52.0338 233.347 51.9349C233.588 51.8361 233.862 51.7867 234.171 51.7867H236.606V58.2359H235.791V55.3819Z" fill="#292C33"/>
<path d="M247.346 53.7418C247.346 53.9642 247.299 54.1897 247.207 54.4183C247.12 54.6468 246.991 54.8507 246.818 55.0298C246.651 55.209 246.441 55.3572 246.188 55.4746C245.941 55.5858 245.661 55.6414 245.346 55.6414H243.67V58.2359H242.855V51.7867H245.216C245.482 51.7867 245.741 51.8237 245.994 51.8979C246.253 51.972 246.481 52.0894 246.679 52.25C246.876 52.4044 247.037 52.6052 247.16 52.8523C247.284 53.0994 247.346 53.3959 247.346 53.7418ZM246.494 53.714C246.494 53.3187 246.373 53.0252 246.133 52.8337C245.898 52.6361 245.599 52.5372 245.235 52.5372H243.67V54.8908H245.272C245.475 54.8908 245.654 54.8568 245.809 54.7889C245.963 54.7148 246.09 54.6221 246.188 54.5109C246.293 54.3997 246.37 54.2762 246.42 54.1403C246.469 53.9982 246.494 53.8561 246.494 53.714Z" fill="#292C33"/>
<path d="M251.588 51.7403C251.94 51.7403 252.258 51.8021 252.542 51.9256C252.826 52.043 253.066 52.2067 253.264 52.4168C253.468 52.6268 253.622 52.8801 253.727 53.1766C253.832 53.4669 253.884 53.782 253.884 54.1217V55.9008C253.884 56.2653 253.829 56.5958 253.718 56.8923C253.613 57.1888 253.458 57.4421 253.255 57.6521C253.057 57.856 252.816 58.0135 252.533 58.1247C252.255 58.2359 251.94 58.2915 251.588 58.2915C251.206 58.2915 250.869 58.2266 250.579 58.0969C250.295 57.9672 250.058 57.7942 249.866 57.578C249.675 57.3618 249.533 57.1085 249.44 56.8182C249.348 56.5278 249.301 56.2221 249.301 55.9008V54.1217C249.301 53.8067 249.348 53.5071 249.44 53.2229C249.533 52.9326 249.675 52.6793 249.866 52.4631C250.058 52.2407 250.295 52.0646 250.579 51.9349C250.869 51.8052 251.206 51.7403 251.588 51.7403ZM251.597 52.5094C251.344 52.5094 251.125 52.5558 250.94 52.6484C250.755 52.7411 250.601 52.8646 250.477 53.0191C250.354 53.1673 250.261 53.3403 250.2 53.538C250.138 53.7356 250.107 53.9364 250.107 54.1403V55.8545C250.107 56.0707 250.138 56.2808 250.2 56.4846C250.261 56.6823 250.354 56.8583 250.477 57.0128C250.601 57.1672 250.755 57.2938 250.94 57.3927C251.125 57.4854 251.344 57.5317 251.597 57.5317C251.826 57.5317 252.03 57.4884 252.209 57.402C252.394 57.3155 252.548 57.1981 252.671 57.0498C252.801 56.9016 252.9 56.7255 252.968 56.5217C253.036 56.3178 253.07 56.0954 253.07 55.8545V54.1403C253.07 53.9179 253.036 53.7078 252.968 53.5102C252.9 53.3125 252.801 53.1395 252.671 52.9913C252.548 52.843 252.394 52.7256 252.209 52.6391C252.03 52.5527 251.826 52.5094 251.597 52.5094Z" fill="#292C33"/>
<path d="M260.622 56.9201C260.461 57.3525 260.199 57.6892 259.835 57.9301C259.47 58.1711 259.026 58.2915 258.501 58.2915C258.119 58.2915 257.782 58.2266 257.492 58.0969C257.208 57.9672 256.971 57.7942 256.779 57.578C256.588 57.3618 256.446 57.1085 256.354 56.8182C256.261 56.5278 256.215 56.2221 256.215 55.9008V54.1217C256.215 53.8067 256.261 53.5071 256.354 53.2229C256.446 52.9326 256.588 52.6793 256.779 52.4631C256.971 52.2407 257.208 52.0646 257.492 51.9349C257.782 51.8052 258.119 51.7403 258.501 51.7403C259.026 51.7403 259.467 51.8639 259.825 52.111C260.183 52.3581 260.446 52.6886 260.612 53.1025L259.853 53.4453C259.748 53.1673 259.582 52.9449 259.353 52.7781C259.125 52.6113 258.844 52.5279 258.511 52.5279C258.258 52.5279 258.039 52.5743 257.853 52.6669C257.668 52.7596 257.514 52.8832 257.391 53.0376C257.267 53.1858 257.174 53.3588 257.113 53.5565C257.051 53.7542 257.02 53.9549 257.02 54.1588V55.836C257.02 56.0522 257.051 56.2622 257.113 56.4661C257.174 56.6638 257.267 56.8398 257.391 56.9942C257.514 57.1487 257.668 57.2753 257.853 57.3742C258.039 57.4668 258.258 57.5132 258.511 57.5132C258.844 57.5132 259.125 57.4267 259.353 57.2537C259.588 57.0746 259.757 56.8398 259.862 56.5495L260.622 56.9201Z" fill="#292C33"/>
<path d="M267.037 56.9201C266.877 57.3525 266.614 57.6892 266.25 57.9301C265.886 58.1711 265.442 58.2915 264.917 58.2915C264.534 58.2915 264.198 58.2266 263.908 58.0969C263.624 57.9672 263.386 57.7942 263.195 57.578C263.004 57.3618 262.862 57.1085 262.769 56.8182C262.677 56.5278 262.63 56.2221 262.63 55.9008V54.1217C262.63 53.8067 262.677 53.5071 262.769 53.2229C262.862 52.9326 263.004 52.6793 263.195 52.4631C263.386 52.2407 263.624 52.0646 263.908 51.9349C264.198 51.8052 264.534 51.7403 264.917 51.7403C265.442 51.7403 265.883 51.8639 266.241 52.111C266.599 52.3581 266.861 52.6886 267.028 53.1025L266.269 53.4453C266.164 53.1673 265.997 52.9449 265.769 52.7781C265.54 52.6113 265.26 52.5279 264.926 52.5279C264.673 52.5279 264.454 52.5743 264.269 52.6669C264.084 52.7596 263.93 52.8832 263.806 53.0376C263.683 53.1858 263.59 53.3588 263.528 53.5565C263.467 53.7542 263.436 53.9549 263.436 54.1588V55.836C263.436 56.0522 263.467 56.2622 263.528 56.4661C263.59 56.6638 263.683 56.8398 263.806 56.9942C263.93 57.1487 264.084 57.2753 264.269 57.3742C264.454 57.4668 264.673 57.5132 264.926 57.5132C265.26 57.5132 265.54 57.4267 265.769 57.2537C266.003 57.0746 266.173 56.8398 266.278 56.5495L267.037 56.9201Z" fill="#292C33"/>
<path d="M269.259 58.2359V51.7867H270.064V56.8645L270.092 56.883L273.416 51.7867H274.101V58.2359H273.286V53.3897L273.258 53.3804L270.055 58.2359H269.259Z" fill="#292C33"/>
<path d="M278.617 50.3782C278.624 50.44 278.642 50.5048 278.673 50.5728C278.704 50.6407 278.747 50.7056 278.802 50.7674C278.858 50.823 278.926 50.8693 279.006 50.9064C279.086 50.9434 279.176 50.962 279.275 50.962C279.386 50.962 279.481 50.9434 279.562 50.9064C279.648 50.8693 279.719 50.823 279.775 50.7674C279.83 50.7056 279.87 50.6407 279.895 50.5728C279.926 50.5048 279.941 50.44 279.941 50.3782H280.599C280.586 50.5017 280.558 50.6346 280.515 50.7766C280.472 50.9125 280.398 51.0392 280.293 51.1566C280.194 51.2739 280.062 51.3728 279.895 51.4531C279.734 51.5334 279.528 51.5735 279.275 51.5735C279.022 51.5735 278.809 51.5334 278.636 51.4531C278.469 51.3728 278.333 51.2739 278.228 51.1566C278.13 51.0392 278.056 50.9125 278.006 50.7766C277.963 50.6346 277.941 50.5017 277.941 50.3782H278.617ZM276.877 58.2359V51.7867H277.682V56.8645L277.71 56.883L281.034 51.7867H281.719V58.2359H280.904V53.3897L280.876 53.3804L277.673 58.2359H276.877Z" fill="#292C33"/>
<path d="M288.689 56.9201C288.528 57.3525 288.266 57.6892 287.902 57.9301C287.538 58.1711 287.093 58.2915 286.569 58.2915C286.186 58.2915 285.85 58.2266 285.56 58.0969C285.276 57.9672 285.038 57.7942 284.847 57.578C284.655 57.3618 284.513 57.1085 284.421 56.8182C284.328 56.5278 284.282 56.2221 284.282 55.9008V54.1217C284.282 53.8067 284.328 53.5071 284.421 53.2229C284.513 52.9326 284.655 52.6793 284.847 52.4631C285.038 52.2407 285.276 52.0646 285.56 51.9349C285.85 51.8052 286.186 51.7403 286.569 51.7403C287.093 51.7403 287.535 51.8639 287.893 52.111C288.251 52.3581 288.513 52.6886 288.679 53.1025L287.92 53.4453C287.815 53.1673 287.649 52.9449 287.42 52.7781C287.192 52.6113 286.911 52.5279 286.578 52.5279C286.325 52.5279 286.106 52.5743 285.921 52.6669C285.735 52.7596 285.581 52.8832 285.458 53.0376C285.334 53.1858 285.242 53.3588 285.18 53.5565C285.118 53.7542 285.087 53.9549 285.087 54.1588V55.836C285.087 56.0522 285.118 56.2622 285.18 56.4661C285.242 56.6638 285.334 56.8398 285.458 56.9942C285.581 57.1487 285.735 57.2753 285.921 57.3742C286.106 57.4668 286.325 57.5132 286.578 57.5132C286.911 57.5132 287.192 57.4267 287.42 57.2537C287.655 57.0746 287.825 56.8398 287.93 56.5495L288.689 56.9201Z" fill="#292C33"/>
<path d="M290.873 58.2359V51.8052H291.688V54.6036H292.734C292.833 54.6036 292.938 54.5943 293.049 54.5758C293.16 54.5572 293.268 54.5171 293.373 54.4553C293.478 54.3874 293.577 54.2916 293.669 54.1681C293.762 54.0383 293.842 53.8685 293.91 53.6584L294.503 51.8052H295.308L294.725 53.6862C294.626 54.0013 294.499 54.2669 294.345 54.4831C294.191 54.6931 294.012 54.8321 293.808 54.9001C294.08 54.9866 294.29 55.141 294.438 55.3634C294.586 55.5858 294.706 55.8545 294.799 56.1696L295.419 58.2359H294.54L293.975 56.2993C293.913 56.0831 293.839 55.9101 293.753 55.7804C293.666 55.6507 293.571 55.5518 293.466 55.4839C293.367 55.4097 293.259 55.3603 293.142 55.3356C293.024 55.3109 292.904 55.2985 292.781 55.2985H291.688V58.2359H290.873Z" fill="#292C33"/>
<path d="M299.707 51.7403C300.059 51.7403 300.376 51.8021 300.66 51.9256C300.944 52.043 301.185 52.2067 301.382 52.4168C301.586 52.6268 301.74 52.8801 301.845 53.1766C301.95 53.4669 302.003 53.782 302.003 54.1217V55.9008C302.003 56.2653 301.947 56.5958 301.836 56.8923C301.731 57.1888 301.577 57.4421 301.373 57.6521C301.176 57.856 300.935 58.0135 300.651 58.1247C300.373 58.2359 300.059 58.2915 299.707 58.2915C299.324 58.2915 298.988 58.2266 298.698 58.0969C298.414 57.9672 298.176 57.7942 297.985 57.578C297.793 57.3618 297.651 57.1085 297.559 56.8182C297.466 56.5278 297.42 56.2221 297.42 55.9008V54.1217C297.42 53.8067 297.466 53.5071 297.559 53.2229C297.651 52.9326 297.793 52.6793 297.985 52.4631C298.176 52.2407 298.414 52.0646 298.698 51.9349C298.988 51.8052 299.324 51.7403 299.707 51.7403ZM299.716 52.5094C299.463 52.5094 299.244 52.5558 299.059 52.6484C298.874 52.7411 298.719 52.8646 298.596 53.0191C298.472 53.1673 298.38 53.3403 298.318 53.538C298.256 53.7356 298.225 53.9364 298.225 54.1403V55.8545C298.225 56.0707 298.256 56.2808 298.318 56.4846C298.38 56.6823 298.472 56.8583 298.596 57.0128C298.719 57.1672 298.874 57.2938 299.059 57.3927C299.244 57.4854 299.463 57.5317 299.716 57.5317C299.944 57.5317 300.148 57.4884 300.327 57.402C300.512 57.3155 300.666 57.1981 300.79 57.0498C300.92 56.9016 301.018 56.7255 301.086 56.5217C301.154 56.3178 301.188 56.0954 301.188 55.8545V54.1403C301.188 53.9179 301.154 53.7078 301.086 53.5102C301.018 53.3125 300.92 53.1395 300.79 52.9913C300.666 52.843 300.512 52.7256 300.327 52.6391C300.148 52.5527 299.944 52.5094 299.716 52.5094Z" fill="#292C33"/>
<path d="M306.287 50.3782C306.293 50.44 306.311 50.5048 306.342 50.5728C306.373 50.6407 306.416 50.7056 306.472 50.7674C306.527 50.823 306.595 50.8693 306.676 50.9064C306.756 50.9434 306.845 50.962 306.944 50.962C307.055 50.962 307.151 50.9434 307.231 50.9064C307.317 50.8693 307.388 50.823 307.444 50.7674C307.5 50.7056 307.54 50.6407 307.564 50.5728C307.595 50.5048 307.611 50.44 307.611 50.3782H308.268C308.256 50.5017 308.228 50.6346 308.185 50.7766C308.141 50.9125 308.067 51.0392 307.962 51.1566C307.864 51.2739 307.731 51.3728 307.564 51.4531C307.404 51.5334 307.197 51.5735 306.944 51.5735C306.691 51.5735 306.478 51.5334 306.305 51.4531C306.139 51.3728 306.003 51.2739 305.898 51.1566C305.799 51.0392 305.725 50.9125 305.676 50.7766C305.632 50.6346 305.611 50.5017 305.611 50.3782H306.287ZM304.546 58.2359V51.7867H305.352V56.8645L305.379 56.883L308.703 51.7867H309.388V58.2359H308.573V53.3897L308.546 53.3804L305.342 58.2359H304.546Z" fill="#292C33"/>
<path d="M321.336 54.9464C321.336 55.3356 321.28 55.697 321.169 56.0306C321.058 56.358 320.891 56.6452 320.669 56.8923C320.447 57.1332 320.172 57.3278 319.845 57.4761C319.518 57.6243 319.138 57.7077 318.706 57.7263V58.2359H317.901V57.7263C317.487 57.7016 317.117 57.6182 316.79 57.4761C316.469 57.334 316.194 57.1425 315.966 56.9016C315.744 56.6607 315.574 56.3765 315.457 56.0491C315.339 55.7155 315.281 55.348 315.281 54.9464C315.281 54.5572 315.336 54.1959 315.447 53.8623C315.559 53.5225 315.725 53.2291 315.947 52.982C316.17 52.7287 316.444 52.5249 316.771 52.3704C317.098 52.216 317.475 52.1233 317.901 52.0924V51.7867H318.706V52.0924C319.175 52.1171 319.577 52.2067 319.91 52.3612C320.243 52.5094 320.515 52.7102 320.724 52.9635C320.934 53.2106 321.089 53.504 321.187 53.8438C321.286 54.1835 321.336 54.5511 321.336 54.9464ZM318.706 57.0406C319.009 57.0344 319.274 56.9757 319.502 56.8645C319.731 56.7533 319.922 56.6051 320.076 56.4197C320.231 56.2282 320.345 56.0059 320.419 55.7526C320.499 55.4993 320.539 55.2306 320.539 54.9464C320.539 54.6437 320.502 54.3627 320.428 54.1032C320.36 53.8376 320.249 53.609 320.095 53.4175C319.947 53.2198 319.755 53.0654 319.521 52.9542C319.293 52.8368 319.021 52.772 318.706 52.7596V57.0406ZM317.901 52.7503C317.58 52.7689 317.302 52.843 317.068 52.9727C316.839 53.1025 316.651 53.2692 316.503 53.4731C316.355 53.677 316.247 53.9086 316.179 54.1681C316.111 54.4213 316.077 54.6808 316.077 54.9464C316.077 55.2429 316.117 55.5147 316.197 55.7618C316.284 56.0089 316.404 56.2221 316.558 56.4012C316.719 56.5804 316.91 56.7255 317.132 56.8367C317.361 56.9479 317.617 57.0159 317.901 57.0406V52.7503Z" fill="#292C33"/>
<path d="M323.802 58.2359V51.7867H327.876V52.5372H324.617V54.6221H327.394V55.3356H324.617V57.4854H327.876V58.2359H323.802Z" fill="#292C33"/>
<path d="M330.199 57.5132C330.378 57.3958 330.52 57.2568 330.625 57.0962C330.73 56.9294 330.81 56.7286 330.866 56.4939C330.921 56.2591 330.958 55.9811 330.977 55.6599C330.995 55.3325 331.014 54.9464 331.032 54.5016L331.116 51.7867H335.236L335.245 57.5224H335.837V59.6166H335.041V58.2359H330.505V59.6166H329.699V57.6243L330.199 57.5132ZM331.866 52.5001L331.801 54.4646C331.788 54.8352 331.773 55.175 331.754 55.4839C331.742 55.7927 331.717 56.0738 331.68 56.3271C331.643 56.5804 331.594 56.8058 331.532 57.0035C331.471 57.2012 331.387 57.3742 331.282 57.5224H334.421V52.5001H331.866Z" fill="#292C33"/>
<path d="M338.161 58.2359V51.7867H342.235V52.5372H338.976V54.6221H341.753V55.3356H338.976V57.4854H342.235V58.2359H338.161Z" fill="#292C33"/>
<path d="M349.067 53.7418C349.067 53.9642 349.021 54.1897 348.928 54.4183C348.842 54.6468 348.712 54.8507 348.539 55.0298C348.373 55.209 348.163 55.3572 347.91 55.4746C347.663 55.5858 347.382 55.6414 347.067 55.6414H345.391V58.2359H344.577V51.7867H346.938C347.203 51.7867 347.462 51.8237 347.715 51.8979C347.974 51.972 348.203 52.0894 348.4 52.25C348.598 52.4044 348.758 52.6052 348.882 52.8523C349.005 53.0994 349.067 53.3959 349.067 53.7418ZM348.215 53.714C348.215 53.3187 348.095 53.0252 347.854 52.8337C347.62 52.6361 347.32 52.5372 346.956 52.5372H345.391V54.8908H346.993C347.197 54.8908 347.376 54.8568 347.53 54.7889C347.684 54.7148 347.811 54.6221 347.91 54.5109C348.015 54.3997 348.092 54.2762 348.141 54.1403C348.19 53.9982 348.215 53.8561 348.215 53.714Z" fill="#292C33"/>
<path d="M354.899 58.2359L354.381 56.7533H351.705L351.187 58.2359H350.335L352.696 51.7867H353.4L355.76 58.2359H354.899ZM353.057 52.8708H353.029L352.576 54.2051L351.937 56.0491H354.15L353.057 52.8708Z" fill="#292C33"/>
<path d="M362.275 58.2359H357.905V51.7867H358.72V57.4854H361.571V51.7867H362.386V57.5039H363.071V59.6166H362.275V58.2359Z" fill="#292C33"/>
<path d="M365.396 58.2359V51.7867H366.202V56.8645L366.23 56.883L369.553 51.7867H370.238V58.2359H369.424V53.3897L369.396 53.3804L366.193 58.2359H365.396Z" fill="#292C33"/>
<path d="M373.014 58.2359V51.7867H373.82V56.8645L373.848 56.883L377.171 51.7867H377.856V58.2359H377.042V53.3897L377.014 53.3804L373.811 58.2359H373.014Z" fill="#292C33"/>
<path d="M60.9467 45.7269H45.7794V60.9074H60.9467V45.7269Z" fill="#292C33"/>
<path d="M15.1673 36.1002C15.1673 31.9348 16.5546 30.5463 20.7163 30.5463H30.4271V15.2731H15.1673V24.9924C15.1673 29.1578 13.7801 30.5463 9.61829 30.5463H0V61H30.4271V45.6343H16.2771C15.6297 45.6343 15.2598 45.1715 15.2598 44.6161L15.1673 36.1002Z" fill="#292C33"/>
<path d="M12.5778 15.2731H2.68202C1.20229 15.2731 0 14.0698 0 12.5888V2.68437C0 1.20334 1.20229 0 2.68202 0H12.5778C14.0575 0 15.2598 1.20334 15.2598 2.68437V12.5888C15.1673 14.0698 14.0575 15.2731 12.5778 15.2731Z" fill="#292C33"/>
<path d="M60.9467 15.2731C60.9467 5.55387 55.3052 -0.0925645 45.6869 0.0925645H30.4271V15.2731L42.9124 15.2731C44.2996 15.2731 45.6869 16.6616 45.6869 18.0501C45.6869 19.4385 45.6869 20.827 45.6869 24.9924C45.6869 29.1578 44.2996 30.5463 40.1379 30.5463H34.5889C31.8144 30.5463 30.4271 31.9348 30.4271 34.7117V41.654C30.4271 44.431 31.8144 45.8194 34.5889 45.8194H41.5251C44.2996 45.8194 45.6869 44.431 45.6869 41.654V36.1002C45.6869 31.9348 47.0742 30.5463 51.2359 30.5463H60.9467V15.2731Z" fill="#292C33"/>
</svg>
