<svg width="44" height="41" viewBox="0 0 44 41" fill="none" xmlns="http://www.w3.org/2000/svg">
<path d="M23.0658 16.9989L26.1637 13.9584C26.2106 13.9124 26.2576 13.8202 26.2576 13.7742V3.27079C27.0555 3.13258 27.6188 2.44157 27.6188 1.65843C27.6188 0.737079 26.8678 0 25.929 0C24.9903 0 24.2393 0.737079 24.2393 1.65843C24.2393 2.48764 24.8494 3.13258 25.6004 3.27079V13.636L22.7842 16.4L20.8128 9.76629C20.7659 9.62809 20.672 9.58202 20.5312 9.58202H14.4293V7.55506L15.7905 6.2191C15.8374 6.17303 15.8844 6.0809 15.8844 6.03483V3.27079C16.6823 3.13258 17.2456 2.44157 17.2456 1.65843C17.2456 0.737079 16.4945 0 15.5558 0C14.617 0 13.866 0.737079 13.866 1.65843C13.866 2.48764 14.4762 3.13258 15.2272 3.27079V5.89663L13.866 7.23258C13.8191 7.27865 13.7722 7.37079 13.7722 7.41685V9.53595H9.31309C9.17228 9.53595 9.07841 9.62809 9.03147 9.72022L7.90496 13.4517L4.29077 9.67416V3.22472C5.04177 3.13258 5.65196 2.44157 5.65196 1.65843C5.65196 0.737079 4.90096 0 3.9622 0C3.02345 0 2.27245 0.737079 2.27245 1.65843C2.27245 2.48764 2.88264 3.13258 3.63364 3.27079V9.81236C3.63364 9.90449 3.68058 9.95056 3.72751 9.99663L7.90496 14.0966L0.0194422 40.6315C-0.0274954 40.7236 0.0194422 40.8157 0.0663798 40.8618C0.113317 41 0.207193 41 0.301068 41H10.0172C10.158 41 10.2988 40.9079 10.2988 40.7697L11.4722 35.0112H18.4659L19.6394 40.7697C19.6863 40.9079 19.7802 41 19.921 41H29.7779C29.8718 41 29.9656 40.9539 30.0126 40.9079C30.0595 40.8157 30.1065 40.7236 30.0595 40.6775L23.0658 16.9989ZM24.8964 1.65843C24.8964 1.05955 25.3658 0.598876 25.9759 0.598876C26.5861 0.598876 27.0555 1.05955 27.0555 1.65843C27.0555 2.2573 26.5861 2.71798 25.9759 2.71798C25.3658 2.71798 24.8964 2.21124 24.8964 1.65843ZM14.5701 1.65843C14.5701 1.05955 15.0395 0.598876 15.6497 0.598876C16.2599 0.598876 16.7292 1.05955 16.7292 1.65843C16.7292 2.2573 16.2599 2.71798 15.6497 2.71798C15.0864 2.71798 14.5701 2.21124 14.5701 1.65843ZM2.88264 1.65843C2.88264 1.05955 3.35201 0.598876 3.9622 0.598876C4.57239 0.598876 5.04177 1.05955 5.04177 1.65843C5.04177 2.2573 4.57239 2.71798 3.9622 2.71798C3.35201 2.71798 2.88264 2.21124 2.88264 1.65843ZM17.0109 28.0551H12.8804L14.9456 17.6899L17.0109 28.0551Z" fill="white"/>
<path d="M44 1.65843C44 0.737079 43.249 0 42.3102 0C41.3715 0 40.6205 0.737079 40.6205 1.65843C40.6205 2.48764 41.2307 3.13258 41.9817 3.27079V14.4652L40.1511 16.2618V9.81236C40.1511 9.67416 40.0103 9.53595 39.8695 9.53595H34.0023V8.10787C34.0023 8.01573 33.9553 7.96966 33.9084 7.9236L31.7493 5.80449V3.27079C32.5472 3.13258 33.1105 2.44157 33.1105 1.65843C33.1105 0.737079 32.3595 0 31.4207 0C30.482 0 29.731 0.737079 29.731 1.65843C29.731 2.48764 30.3412 3.13258 31.0922 3.27079V5.89663C31.0922 5.98876 31.1391 6.03483 31.186 6.0809L33.3452 8.2V9.53595H30.5289C30.3881 9.53595 30.2473 9.67416 30.2473 9.81236V40.7236C30.2473 40.8618 30.3881 41 30.5289 41H39.9164C40.0572 41 40.1981 40.8618 40.1981 40.7236V17.0449L42.498 14.7876C42.5449 14.7416 42.5919 14.6494 42.5919 14.6034V3.27079C43.4367 3.13258 44 2.44157 44 1.65843ZM30.3412 1.65843C30.3412 1.05955 30.8105 0.598876 31.4207 0.598876C32.0309 0.598876 32.5003 1.05955 32.5003 1.65843C32.5003 2.2573 32.0309 2.71798 31.4207 2.71798C30.8575 2.71798 30.3412 2.21124 30.3412 1.65843ZM40.0103 33.1685L30.6697 35.3798H30.6228C30.482 35.3798 30.3881 35.2876 30.3412 35.1494C30.2942 35.0112 30.3881 34.827 30.5758 34.827L39.9164 32.6157C40.0572 32.5697 40.245 32.6618 40.245 32.8461C40.245 32.9843 40.1511 33.1685 40.0103 33.1685ZM40.0103 31.8786L30.6697 34.0899H30.6228C30.482 34.0899 30.3881 33.9978 30.3412 33.8596C30.2942 33.7213 30.3881 33.5371 30.5758 33.5371L39.8695 31.3258C40.0103 31.2798 40.1981 31.3719 40.1981 31.5562C40.245 31.6944 40.1511 31.8326 40.0103 31.8786ZM40.0103 30.5888L30.6697 32.8H30.6228C30.482 32.8 30.3881 32.7079 30.3412 32.5697C30.2942 32.4315 30.3881 32.2472 30.5289 32.2472L39.8695 30.036C40.0103 29.9899 40.1981 30.082 40.1981 30.2663C40.245 30.4045 40.1511 30.5427 40.0103 30.5888ZM40.0103 29.2989L30.6697 31.5101H30.6228C30.482 31.5101 30.3881 31.418 30.3412 31.2798C30.2942 31.1416 30.3881 30.9573 30.5758 30.9573L39.9164 28.7461C40.0572 28.7 40.245 28.7921 40.245 28.9764C40.245 29.1146 40.1511 29.2528 40.0103 29.2989ZM40.0103 28.009L30.6697 30.2202H30.6228C30.482 30.2202 30.3881 30.1281 30.3412 29.9899C30.2942 29.8517 30.3881 29.6674 30.5758 29.6674L39.9164 27.4562C40.0572 27.4101 40.245 27.5022 40.245 27.6865C40.245 27.7787 40.1511 27.9629 40.0103 28.009ZM40.0103 26.673L30.6697 28.8843H30.6228C30.482 28.8843 30.3881 28.7921 30.3412 28.6539C30.2942 28.5157 30.3881 28.3315 30.5758 28.3315L39.9164 26.1202C40.0572 26.0742 40.245 26.1663 40.245 26.3506C40.245 26.4888 40.1511 26.673 40.0103 26.673ZM40.0103 25.3831L30.6697 27.5944H30.6228C30.482 27.5944 30.3881 27.5022 30.3412 27.364C30.2942 27.2258 30.3881 27.0416 30.5758 27.0416L39.9164 24.8303C40.0572 24.7843 40.245 24.8764 40.245 25.0607C40.245 25.1989 40.1511 25.3371 40.0103 25.3831ZM42.3572 2.71798C41.747 2.71798 41.2776 2.2573 41.2776 1.65843C41.2776 1.05955 41.747 0.598876 42.3572 0.598876C42.9674 0.598876 43.4367 1.05955 43.4367 1.65843C43.4367 2.2573 42.9674 2.71798 42.3572 2.71798Z" fill="white"/>
</svg>
