<svg width="150" height="103" viewBox="0 0 150 103" fill="none" xmlns="http://www.w3.org/2000/svg">
<g clip-path="url(#clip0_178_26110)">
<path d="M63.4275 30.7922V17.8595C63.4275 17.3976 62.9604 16.9357 62.4933 16.9357H46.767C46.2999 16.9357 45.8328 17.3976 45.8328 17.8595V30.7922C45.8328 31.2541 46.2999 31.716 46.767 31.716H62.4933C62.9604 31.716 63.4275 31.4081 63.4275 30.7922Z" fill="white"/>
<path d="M66.8531 31.716H82.5794C83.0465 31.716 83.5136 31.2541 83.5136 30.7922V17.8595C83.5136 17.3976 83.0465 16.9357 82.5794 16.9357H66.8531C66.386 16.9357 65.9188 17.3976 65.9188 17.8595V30.7922C65.7631 31.4081 66.2302 31.716 66.8531 31.716Z" fill="white"/>
<path d="M102.51 16.9357H86.7834C86.3163 16.9357 85.8492 17.3976 85.8492 17.8595V30.7922C85.8492 31.2541 86.3163 31.716 86.7834 31.716H102.51C102.977 31.716 103.444 31.2541 103.444 30.7922V17.8595C103.444 17.3976 102.977 16.9357 102.51 16.9357Z" fill="white"/>
<path d="M72.4585 34.1794H56.7322C56.2651 34.1794 55.7979 34.6413 55.7979 35.1031V48.0359C55.7979 48.4978 56.2651 48.9596 56.7322 48.9596H72.4585C72.9256 48.9596 73.3927 48.4978 73.3927 48.0359V35.1031C73.3927 34.6413 72.9256 34.1794 72.4585 34.1794Z" fill="white"/>
<path d="M92.5446 34.1794H76.8183C76.3511 34.1794 75.884 34.6413 75.884 35.1031V48.0359C75.884 48.4978 76.3511 48.9596 76.8183 48.9596H92.5446C93.0117 48.9596 93.4788 48.4978 93.4788 48.0359V35.1031C93.4788 34.6413 93.0117 34.1794 92.5446 34.1794Z" fill="white"/>
<path d="M42.4072 0H26.6809C26.2138 0 25.7467 0.461883 25.7467 0.923767V13.8565C25.7467 14.3184 26.2138 14.7803 26.6809 14.7803H42.4072C42.8744 14.7803 43.3415 14.3184 43.3415 13.8565V0.923767C43.3415 0.461883 42.8744 0 42.4072 0Z" fill="white"/>
<path d="M46.767 14.7803H62.4933C62.9604 14.7803 63.4275 14.3184 63.4275 13.8565V0.923767C63.4275 0.461883 62.9604 0 62.4933 0H46.767C46.2999 0 45.8328 0.461883 45.8328 0.923767V13.8565C45.8328 14.4723 46.1442 14.7803 46.767 14.7803Z" fill="white"/>
<path d="M66.8531 14.7803H82.5794C83.0465 14.7803 83.5136 14.3184 83.5136 13.8565V0.923767C83.5136 0.461883 83.0465 0 82.5794 0H66.8531C66.2302 0 65.7631 0.461883 65.7631 0.923767V13.8565C65.7631 14.4723 66.2302 14.7803 66.8531 14.7803Z" fill="white"/>
<path d="M102.51 0H86.7834C86.3163 0 85.8492 0.461883 85.8492 0.923767V13.8565C85.8492 14.3184 86.3163 14.7803 86.7834 14.7803H102.51C102.977 14.7803 103.444 14.3184 103.444 13.8565V0.923767C103.444 0.461883 102.977 0 102.51 0Z" fill="white"/>
<path d="M122.596 0H106.87C106.402 0 105.935 0.461883 105.935 0.923767V13.8565C105.935 14.3184 106.402 14.7803 106.87 14.7803H122.596C123.063 14.7803 123.53 14.3184 123.53 13.8565V0.923767C123.53 0.461883 123.063 0 122.596 0Z" fill="white"/>
<path d="M4.7264 59.429C2.70222 59.429 0.989454 61.1226 0.989454 63.1241C0.989454 65.1256 2.70222 66.8191 4.7264 66.8191C6.75057 66.8191 8.46334 65.1256 8.46334 63.1241C8.30763 61.1226 6.75057 59.429 4.7264 59.429Z" fill="white"/>
<path d="M15.4701 59.429C13.4459 59.429 11.7332 61.1226 11.7332 63.1241C11.7332 65.1256 13.4459 66.8191 15.4701 66.8191C17.4943 66.8191 19.0513 65.1256 19.0513 63.1241C19.0513 61.1226 17.4943 59.429 15.4701 59.429Z" fill="white"/>
<path d="M25.9024 59.429C23.8782 59.429 22.1655 61.1226 22.1655 63.1241C22.1655 65.1256 23.8782 66.8191 25.9024 66.8191C27.9266 66.8191 29.6393 65.1256 29.6393 63.1241C29.6393 61.1226 27.9266 59.429 25.9024 59.429Z" fill="white"/>
<path d="M36.0233 66.8191C38.0475 66.8191 39.7602 65.1256 39.7602 63.1241C39.7602 61.1226 38.0475 59.429 36.0233 59.429C33.9991 59.429 32.2864 61.1226 32.2864 63.1241C32.4421 65.1256 33.9991 66.8191 36.0233 66.8191Z" fill="white"/>
<path d="M60.1577 59.583C58.9121 58.9671 57.355 59.429 56.7322 60.6607L53.6181 66.3572C53.4624 66.3572 53.4624 66.3572 53.3067 66.3572C49.8811 66.3572 47.2341 69.1285 47.2341 72.3617C47.2341 73.1315 47.3898 73.7474 47.5455 74.3632L43.0301 78.8281L36.8018 72.6697V68.9746C39.7602 68.5127 41.9401 66.0493 41.9401 62.9701C41.9401 60.5067 40.5388 58.5052 38.5146 57.5815L41.0059 36.0269C41.1616 34.6413 40.2274 33.4096 38.6703 33.2556C37.2689 33.1016 36.0233 34.0254 35.8676 35.565L33.2206 57.7354C32.1306 58.1973 31.1964 58.9671 30.5736 60.0448C29.9508 59.1211 29.0165 58.3513 28.0823 57.8894L30.5736 30.1764C30.7293 28.7907 29.6393 27.559 28.238 27.4051C26.8366 27.2511 25.591 28.3288 25.4353 29.7145L22.944 57.8894C21.8541 58.3513 20.9198 59.1211 20.297 60.1988C19.6742 59.275 18.7399 58.5052 17.8057 58.0434L20.297 32.1779C20.4527 30.7922 19.3628 29.5605 17.9614 29.4066C16.56 29.2526 15.3144 30.3303 15.1587 31.716L12.6674 57.5815C11.5775 58.0434 10.6432 58.8132 10.0204 59.8909C9.39757 58.9671 8.46334 58.1973 7.5291 57.7354L10.0204 38.3363C10.1761 36.9507 9.24187 35.719 7.84052 35.4111C6.43916 35.2571 5.19351 36.1809 4.8821 37.5665L2.2351 57.5815C0.210924 58.6592 -1.19043 60.6607 -1.19043 63.1241C-1.19043 66.2033 0.989454 68.6667 3.94787 69.1286V82.5232C3.94787 82.6771 3.94787 82.6771 3.94787 82.8311L8.93046 102.23C9.08616 102.692 9.39758 103 9.86469 103H28.0823C28.3937 103 28.5494 102.846 28.7051 102.692L47.0784 84.5247C47.3898 84.2167 47.3898 83.6009 47.0784 83.139L46.4556 82.5232L50.9711 78.0583C51.5939 78.3662 52.3724 78.3662 52.9952 78.3662C56.4208 78.3662 59.0678 75.5949 59.0678 72.3617C59.0678 70.9761 58.6007 69.7444 57.8221 68.6667L60.9362 62.9701C61.8705 61.7384 61.4034 60.1988 60.1577 59.583ZM4.8821 67.8969C2.2351 67.8969 0.210924 65.7414 0.210924 63.278C0.210924 60.6607 2.39081 58.6592 4.8821 58.6592C7.3734 58.6592 9.55328 60.8146 9.55328 63.278C9.55328 65.8954 7.5291 67.8969 4.8821 67.8969ZM15.3144 68.0508C12.6674 68.0508 10.6432 65.8954 10.6432 63.432C10.6432 60.8146 12.8231 58.8132 15.3144 58.8132C17.8057 58.8132 19.9856 60.9686 19.9856 63.432C20.1413 66.0493 17.9614 68.0508 15.3144 68.0508ZM36.0233 58.6592C38.6703 58.6592 40.6945 60.8146 40.6945 63.278C40.6945 65.8954 38.5146 67.8969 36.0233 67.8969C33.3763 67.8969 31.3521 65.7414 31.3521 63.278C31.3521 60.6607 33.532 58.6592 36.0233 58.6592ZM25.7467 68.0508C23.0997 68.0508 21.0755 65.8954 21.0755 63.432C21.0755 60.8146 23.2554 58.8132 25.7467 58.8132C28.238 58.8132 30.4179 60.9686 30.4179 63.432C30.4179 65.8954 28.3937 68.0508 25.7467 68.0508ZM28.8608 96.5336L34.4662 75.441L42.4072 83.293L28.8608 96.5336ZM53.151 76.8266C50.6597 76.8266 48.6355 74.8251 48.6355 72.3617C48.6355 69.8984 50.6597 67.8969 53.151 67.8969C55.6422 67.8969 57.6664 69.8984 57.6664 72.3617C57.6664 74.8251 55.6422 76.8266 53.151 76.8266Z" fill="white"/>
<path d="M144.239 59.429C146.263 59.429 147.976 61.1226 147.976 63.1241C147.976 65.1256 146.263 66.8191 144.239 66.8191C142.215 66.8191 140.502 65.1256 140.502 63.1241C140.502 61.1226 142.215 59.429 144.239 59.429Z" fill="white"/>
<path d="M133.495 59.429C135.519 59.429 137.232 61.1226 137.232 63.1241C137.232 65.1256 135.519 66.8191 133.495 66.8191C131.471 66.8191 129.758 65.1256 129.758 63.1241C129.758 61.1226 131.471 59.429 133.495 59.429Z" fill="white"/>
<path d="M122.907 59.429C124.931 59.429 126.644 61.1226 126.644 63.1241C126.644 65.1256 124.931 66.8191 122.907 66.8191C120.883 66.8191 119.17 65.1256 119.17 63.1241C119.326 61.1226 120.883 59.429 122.907 59.429Z" fill="white"/>
<path d="M112.786 66.8191C110.762 66.8191 109.049 65.1256 109.049 63.1241C109.049 61.1226 110.762 59.429 112.786 59.429C114.811 59.429 116.523 61.1226 116.523 63.1241C116.523 65.1256 114.811 66.8191 112.786 66.8191Z" fill="white"/>
<path d="M87.7177 62.9701L90.8318 68.6667C90.0533 69.7444 89.5861 70.9761 89.5861 72.3617C89.5861 75.7489 92.3889 78.3662 95.6587 78.3662C96.4372 78.3662 97.06 78.2122 97.6829 78.0583L102.198 82.5232L101.576 83.139C101.264 83.4469 101.264 84.0628 101.576 84.5247L119.949 102.692C120.105 102.846 120.416 103 120.572 103H138.945C139.412 103 139.723 102.692 139.879 102.23L144.862 82.8311C144.862 82.6771 144.862 82.6771 144.862 82.5232V69.1286C147.82 68.6667 150 66.2033 150 63.1241C150 60.6607 148.599 58.6592 146.419 57.5815L143.772 37.5665C143.616 36.1809 142.37 35.2571 140.813 35.4111C139.412 35.565 138.322 36.7967 138.634 38.3363L141.125 57.7354C140.035 58.1973 139.256 58.9671 138.634 59.8909C138.011 58.9671 137.076 58.0434 135.987 57.5815L133.495 31.2541C133.34 29.8685 132.094 28.7907 130.693 28.9447C129.291 29.0987 128.201 30.3303 128.357 31.716L130.848 57.5815C129.758 58.0434 128.98 58.8132 128.357 59.7369C127.734 58.8132 126.8 57.8894 125.71 57.4275L123.374 29.5605C123.219 28.1749 121.973 27.0972 120.572 27.2511C119.17 27.4051 118.08 28.6368 118.236 30.0224L120.727 57.7354C119.637 58.1973 118.859 58.9671 118.236 59.8909C117.613 58.9671 116.679 58.0434 115.589 57.5815L112.942 35.4111C112.786 34.0254 111.541 32.9477 110.139 33.1016C108.738 33.2556 107.648 34.4873 107.804 35.8729L110.295 57.4275C108.271 58.3513 106.87 60.5067 106.87 62.8161C106.87 65.8954 109.049 68.3587 112.008 68.8206V72.5157L105.78 78.6741L101.264 74.2093C101.576 73.5934 101.576 72.8236 101.576 72.2078C101.576 68.8206 98.7728 66.2033 95.503 66.2033C95.3473 66.2033 95.3473 66.2033 95.1916 66.2033L92.0774 60.5067C91.4546 59.275 89.8976 58.8132 88.6519 59.429C87.4063 60.1988 86.9391 61.7384 87.7177 62.9701ZM139.256 63.278C139.256 60.6607 141.436 58.6592 143.928 58.6592C146.419 58.6592 148.599 60.8146 148.599 63.278C148.599 65.8954 146.419 67.8969 143.928 67.8969C141.436 67.8969 139.256 65.8954 139.256 63.278ZM128.824 63.432C128.824 60.8146 131.004 58.8132 133.495 58.8132C135.987 58.8132 138.166 60.9686 138.166 63.432C138.166 66.0493 135.987 68.0508 133.495 68.0508C131.004 68.0508 128.824 66.0493 128.824 63.432ZM117.458 63.278C117.458 65.8954 115.278 67.8969 112.786 67.8969C110.139 67.8969 108.115 65.7414 108.115 63.278C108.115 60.6607 110.295 58.6592 112.786 58.6592C115.433 58.6592 117.458 60.6607 117.458 63.278ZM118.392 63.278C118.392 60.6607 120.572 58.6592 123.063 58.6592C125.554 58.6592 127.734 60.8146 127.734 63.278C127.734 65.8954 125.554 67.8969 123.063 67.8969C120.572 67.8969 118.392 65.8954 118.392 63.278ZM106.558 83.293L114.499 75.441L120.105 96.5336L106.558 83.293ZM91.2989 72.3617C91.2989 69.8984 93.3231 67.8969 95.8144 67.8969C98.3057 67.8969 100.33 69.8984 100.33 72.3617C100.33 74.8251 98.3057 76.8266 95.8144 76.8266C93.3231 76.8266 91.2989 74.8251 91.2989 72.3617Z" fill="white"/>
</g>
<defs>
<clipPath id="clip0_178_26110">
<rect width="150" height="103" fill="white"/>
</clipPath>
</defs>
</svg>
