<svg width="363" height="266" viewBox="0 0 363 266" fill="none" xmlns="http://www.w3.org/2000/svg">
<g clip-path="url(#clip0_821_699)">
<path d="M264.873 231.055L264.869 231.056C249.332 235.414 229.562 237.572 209.973 237.341C190.378 237.11 171.047 234.49 156.372 229.344C148.908 226.725 143.447 223.791 139.915 220.766C136.38 217.738 134.888 214.724 135.044 211.906C135.201 209.076 137.038 206.11 140.92 203.225C144.793 200.347 150.579 197.649 158.321 195.353L158.332 195.35L158.343 195.346C158.814 195.195 159.306 195.059 159.822 194.917L159.826 194.916C175.354 190.561 195.224 188.666 214.922 189.161C234.621 189.656 254.065 192.54 268.748 197.687C276.222 200.309 281.673 203.174 285.184 206.096C288.702 209.024 290.14 211.887 289.959 214.539C289.777 217.21 287.928 220.037 284.01 222.826C280.108 225.603 274.299 228.233 266.551 230.53L266.539 230.534C266.338 230.597 266.13 230.664 265.924 230.73C265.556 230.85 265.191 230.968 264.873 231.055Z" fill="#5479F7" stroke="black" stroke-width="2"/>
<path d="M213.311 203.686C212.993 203.686 212.728 203.421 212.728 203.103C212.728 202.785 212.993 202.52 213.311 202.52C214.866 202.52 216.42 202.502 217.975 202.467C218.311 202.467 218.558 202.714 218.576 203.032C218.576 203.35 218.328 203.615 218.01 203.633C216.456 203.651 214.884 203.686 213.311 203.686ZM208.648 203.651C207.076 203.633 205.503 203.58 203.949 203.527C203.631 203.509 203.366 203.244 203.384 202.926C203.401 202.608 203.666 202.343 203.984 202.361C205.521 202.414 207.093 202.449 208.648 202.485C208.966 202.485 209.231 202.75 209.231 203.085C209.213 203.403 208.966 203.651 208.648 203.651ZM222.656 203.474C222.338 203.474 222.091 203.227 222.073 202.909C222.056 202.591 222.303 202.308 222.638 202.308C224.193 202.237 225.765 202.167 227.302 202.061C227.638 202.043 227.903 202.29 227.92 202.608C227.938 202.926 227.691 203.209 227.373 203.227C225.836 203.315 224.264 203.403 222.691 203.474C222.674 203.474 222.674 203.474 222.656 203.474ZM199.303 203.315C199.285 203.315 199.285 203.315 199.268 203.315C197.713 203.227 196.141 203.121 194.587 203.015C194.269 202.997 194.021 202.714 194.057 202.396C194.074 202.078 194.375 201.831 194.675 201.866C196.212 201.99 197.784 202.078 199.338 202.167C199.656 202.184 199.904 202.467 199.886 202.785C199.868 203.085 199.603 203.315 199.303 203.315ZM231.983 202.891C231.683 202.891 231.436 202.661 231.4 202.361C231.365 202.043 231.612 201.76 231.93 201.725C233.485 201.601 235.039 201.443 236.576 201.284C236.894 201.248 237.177 201.478 237.212 201.796C237.247 202.114 237.018 202.396 236.7 202.432C235.163 202.591 233.591 202.732 232.036 202.873C232.019 202.891 232.001 202.891 231.983 202.891ZM189.976 202.608C189.958 202.608 189.941 202.608 189.923 202.608C188.351 202.449 186.796 202.29 185.259 202.096C184.942 202.061 184.712 201.76 184.747 201.443C184.783 201.125 185.083 200.895 185.401 200.93C186.92 201.107 188.474 201.284 190.029 201.425C190.347 201.46 190.577 201.743 190.559 202.061C190.524 202.379 190.276 202.608 189.976 202.608ZM241.275 201.919C240.992 201.919 240.727 201.707 240.692 201.407C240.657 201.089 240.886 200.789 241.204 200.754C242.759 200.559 244.313 200.347 245.815 200.118C246.133 200.065 246.433 200.294 246.486 200.612C246.539 200.93 246.309 201.231 245.991 201.284C244.472 201.513 242.918 201.725 241.346 201.937C241.328 201.919 241.31 201.919 241.275 201.919ZM180.684 201.495C180.649 201.495 180.631 201.495 180.596 201.495C179.041 201.266 177.469 201.019 175.968 200.771C175.65 200.718 175.438 200.418 175.491 200.1C175.544 199.782 175.844 199.57 176.162 199.623C177.664 199.888 179.218 200.118 180.773 200.347C181.091 200.4 181.32 200.683 181.267 201.001C181.232 201.284 180.985 201.495 180.684 201.495ZM250.531 200.506C250.249 200.506 250.001 200.312 249.948 200.029C249.895 199.711 250.107 199.411 250.425 199.358C251.98 199.075 253.517 198.775 255.001 198.475C255.319 198.404 255.619 198.616 255.689 198.934C255.76 199.252 255.548 199.552 255.23 199.623C253.729 199.941 252.192 200.241 250.62 200.524C250.584 200.506 250.549 200.506 250.531 200.506ZM171.481 199.923C171.446 199.923 171.41 199.923 171.357 199.906C169.803 199.588 168.266 199.252 166.764 198.917C166.446 198.846 166.252 198.528 166.323 198.21C166.393 197.892 166.711 197.698 167.029 197.768C168.513 198.122 170.032 198.44 171.587 198.758C171.905 198.828 172.117 199.128 172.046 199.446C171.993 199.729 171.746 199.923 171.481 199.923ZM259.664 198.599C259.399 198.599 259.169 198.422 259.099 198.157C259.028 197.839 259.222 197.521 259.523 197.45C261.06 197.079 262.579 196.673 264.027 196.267C264.345 196.179 264.663 196.355 264.752 196.673C264.84 196.991 264.663 197.309 264.345 197.397C262.879 197.804 261.36 198.21 259.805 198.599C259.77 198.599 259.717 198.599 259.664 198.599ZM162.383 197.786C162.33 197.786 162.277 197.786 162.224 197.768C161.306 197.521 160.37 197.256 159.486 196.991C158.974 196.832 158.462 196.691 157.967 196.532L157.72 196.461C157.42 196.355 157.243 196.037 157.331 195.719C157.437 195.419 157.755 195.242 158.073 195.331L158.32 195.401C158.815 195.56 159.327 195.719 159.822 195.861C160.705 196.126 161.624 196.391 162.525 196.638C162.843 196.726 163.019 197.044 162.931 197.362C162.878 197.609 162.631 197.786 162.383 197.786ZM268.656 196.037C268.408 196.037 268.179 195.878 268.108 195.631C268.002 195.331 268.179 194.995 268.479 194.889L268.779 194.783C268.797 194.783 268.815 194.783 268.815 194.765C270.175 194.412 271.57 194.006 272.948 193.529C273.248 193.423 273.584 193.582 273.69 193.9C273.796 194.2 273.637 194.536 273.319 194.642C271.924 195.119 270.51 195.543 269.115 195.896L268.832 195.984C268.779 196.037 268.726 196.037 268.656 196.037ZM153.48 194.942C153.41 194.942 153.339 194.924 153.268 194.907C151.731 194.342 150.265 193.741 148.905 193.123C148.605 192.999 148.481 192.646 148.605 192.345C148.728 192.045 149.082 191.921 149.382 192.045C150.725 192.646 152.173 193.246 153.675 193.794C153.975 193.9 154.134 194.236 154.01 194.553C153.94 194.801 153.71 194.942 153.48 194.942ZM277.506 193.034C277.276 193.034 277.064 192.893 276.976 192.681C276.852 192.381 276.993 192.045 277.294 191.922C278.689 191.321 280.102 190.667 281.498 189.961C281.781 189.819 282.134 189.925 282.275 190.226C282.417 190.508 282.311 190.862 282.01 191.003C280.597 191.727 279.148 192.381 277.735 192.999C277.647 193.017 277.576 193.034 277.506 193.034ZM144.966 191.074C144.877 191.074 144.771 191.056 144.683 191.003C143.217 190.173 141.874 189.325 140.691 188.442C140.426 188.247 140.373 187.876 140.567 187.629C140.762 187.364 141.133 187.311 141.38 187.505C142.528 188.353 143.818 189.184 145.248 189.978C145.531 190.137 145.637 190.491 145.478 190.773C145.372 190.968 145.178 191.074 144.966 191.074ZM285.844 188.813C285.649 188.813 285.455 188.707 285.331 188.53C285.172 188.247 285.261 187.894 285.543 187.735C286.868 186.958 288.175 186.128 289.465 185.262C289.73 185.085 290.101 185.156 290.277 185.421C290.454 185.686 290.383 186.057 290.118 186.234C288.811 187.117 287.469 187.947 286.126 188.742C286.038 188.795 285.932 188.813 285.844 188.813ZM137.564 185.456C137.405 185.456 137.246 185.386 137.123 185.262C136.769 184.856 136.434 184.45 136.133 184.043C135.939 183.778 135.992 183.425 136.257 183.231C136.522 183.036 136.875 183.089 137.07 183.354C137.352 183.725 137.653 184.114 137.988 184.485C138.2 184.732 138.182 185.103 137.935 185.315C137.847 185.403 137.706 185.456 137.564 185.456Z" fill="black"/>
<path d="M211.439 184.273C209.884 184.273 208.294 184.238 206.758 184.202C206.44 184.202 206.175 183.92 206.192 183.602C206.192 183.284 206.457 183.036 206.775 183.036H206.793C208.33 183.072 209.902 183.089 211.456 183.107C211.774 183.107 212.039 183.372 212.039 183.69C212.022 184.008 211.757 184.273 211.439 184.273ZM216.12 184.238C215.802 184.238 215.537 183.99 215.537 183.655C215.537 183.337 215.784 183.072 216.12 183.054C217.674 183.036 219.247 183.001 220.783 182.948C221.101 182.93 221.384 183.195 221.384 183.513C221.402 183.831 221.137 184.114 220.819 184.114C219.247 184.185 217.674 184.22 216.12 184.238ZM202.094 184.043H202.076C200.522 183.973 198.932 183.884 197.395 183.796C197.077 183.778 196.83 183.496 196.847 183.178C196.865 182.86 197.13 182.612 197.466 182.63C199.003 182.736 200.575 182.807 202.129 182.877C202.447 182.895 202.695 183.16 202.695 183.478C202.659 183.796 202.394 184.043 202.094 184.043ZM225.447 183.92C225.147 183.92 224.882 183.672 224.864 183.372C224.846 183.054 225.094 182.771 225.412 182.754C226.966 182.665 228.521 182.577 230.058 182.454C230.375 182.436 230.658 182.665 230.676 183.001C230.693 183.319 230.464 183.602 230.128 183.619C228.591 183.725 227.019 183.831 225.447 183.92C225.482 183.92 225.465 183.92 225.447 183.92ZM192.749 183.46C192.732 183.46 192.714 183.46 192.696 183.46C191.142 183.337 189.57 183.178 188.033 183.019C187.715 182.983 187.485 182.701 187.52 182.383C187.556 182.065 187.838 181.835 188.156 181.871C189.676 182.03 191.248 182.189 192.802 182.312C193.12 182.348 193.368 182.63 193.332 182.948C193.315 183.231 193.05 183.46 192.749 183.46ZM234.774 183.231C234.474 183.231 234.226 183.001 234.191 182.701C234.156 182.383 234.403 182.1 234.721 182.065C236.276 181.924 237.83 181.747 239.349 181.57C239.667 181.535 239.968 181.765 240.003 182.083C240.038 182.401 239.809 182.701 239.491 182.736C237.971 182.913 236.399 183.089 234.827 183.231C234.809 183.231 234.792 183.231 234.774 183.231ZM183.457 182.471C183.44 182.471 183.404 182.471 183.387 182.471C181.815 182.277 180.26 182.047 178.741 181.818C178.423 181.765 178.211 181.464 178.246 181.146C178.299 180.828 178.6 180.616 178.918 180.652C180.419 180.881 181.974 181.111 183.528 181.305C183.846 181.341 184.076 181.641 184.04 181.959C184.005 182.259 183.758 182.471 183.457 182.471ZM244.048 182.136C243.765 182.136 243.518 181.924 243.465 181.641C243.412 181.323 243.642 181.023 243.96 180.987C245.514 180.775 247.069 180.528 248.57 180.281C248.888 180.228 249.189 180.44 249.242 180.758C249.295 181.076 249.083 181.376 248.765 181.429C247.263 181.676 245.691 181.924 244.136 182.153C244.101 182.136 244.083 182.136 244.048 182.136ZM174.219 181.04C174.183 181.04 174.148 181.04 174.113 181.023C172.558 180.74 171.004 180.44 169.502 180.122C169.184 180.051 168.99 179.751 169.061 179.433C169.131 179.115 169.432 178.921 169.75 178.991C171.233 179.309 172.77 179.61 174.325 179.892C174.643 179.945 174.855 180.245 174.802 180.563C174.749 180.828 174.501 181.04 174.219 181.04ZM253.269 180.581C253.004 180.581 252.757 180.387 252.704 180.104C252.633 179.786 252.845 179.486 253.163 179.415C254.718 179.115 256.237 178.779 257.721 178.444C258.039 178.373 258.357 178.567 258.427 178.885C258.498 179.203 258.304 179.521 257.986 179.592C256.502 179.928 254.947 180.263 253.393 180.563C253.34 180.581 253.305 180.581 253.269 180.581ZM165.086 179.08C165.033 179.08 164.998 179.08 164.945 179.062C163.39 178.673 161.871 178.267 160.405 177.843C160.087 177.755 159.91 177.437 159.998 177.119C160.087 176.801 160.405 176.624 160.723 176.713C162.171 177.137 163.673 177.543 165.21 177.914C165.528 177.984 165.722 178.302 165.634 178.62C165.581 178.903 165.351 179.08 165.086 179.08ZM262.384 178.497C262.119 178.497 261.89 178.32 261.819 178.055C261.731 177.737 261.925 177.419 262.225 177.349C263.762 176.942 265.264 176.501 266.695 176.059C266.995 175.971 267.33 176.13 267.419 176.448C267.507 176.748 267.348 177.084 267.03 177.172C265.582 177.614 264.062 178.055 262.508 178.479C262.473 178.479 262.42 178.497 262.384 178.497ZM156.112 176.465C156.042 176.465 155.989 176.448 155.918 176.43C154.381 175.918 152.897 175.37 151.502 174.805C151.201 174.681 151.06 174.346 151.184 174.045C151.307 173.745 151.643 173.604 151.943 173.727C153.321 174.275 154.787 174.823 156.307 175.335C156.607 175.441 156.783 175.776 156.677 176.077C156.589 176.324 156.36 176.465 156.112 176.465ZM271.305 175.706C271.058 175.706 270.846 175.564 270.757 175.317C270.652 175.017 270.81 174.681 271.111 174.575C272.63 174.028 274.079 173.462 275.421 172.88C275.721 172.756 276.057 172.897 276.181 173.18C276.304 173.48 276.163 173.816 275.88 173.939C274.502 174.522 273.036 175.105 271.499 175.67C271.429 175.706 271.358 175.706 271.305 175.706ZM147.456 172.968C147.368 172.968 147.28 172.95 147.209 172.915C145.708 172.191 144.312 171.413 143.058 170.636C142.775 170.46 142.705 170.106 142.864 169.824C143.04 169.541 143.393 169.47 143.676 169.629C144.895 170.389 146.255 171.131 147.721 171.837C148.004 171.979 148.128 172.332 147.986 172.615C147.88 172.844 147.668 172.968 147.456 172.968ZM279.855 171.996C279.643 171.996 279.449 171.89 279.343 171.678C279.184 171.396 279.307 171.042 279.59 170.883C281.038 170.124 282.363 169.329 283.547 168.516C283.812 168.34 284.183 168.393 284.359 168.675C284.536 168.94 284.465 169.311 284.2 169.488C282.999 170.318 281.621 171.131 280.138 171.926C280.049 171.961 279.961 171.996 279.855 171.996ZM139.56 168.004C139.419 168.004 139.295 167.951 139.189 167.863C137.847 166.732 136.751 165.531 135.921 164.348C135.745 164.083 135.798 163.712 136.063 163.535C136.327 163.359 136.698 163.411 136.875 163.676C137.652 164.789 138.695 165.902 139.949 166.98C140.196 167.192 140.231 167.563 140.019 167.81C139.896 167.934 139.737 168.004 139.56 168.004ZM287.486 166.626C287.345 166.626 287.186 166.573 287.08 166.45C286.85 166.22 286.85 165.849 287.08 165.62C288.246 164.454 289.147 163.253 289.747 162.034C289.889 161.751 290.242 161.627 290.525 161.769C290.807 161.91 290.931 162.263 290.79 162.546C290.136 163.871 289.164 165.178 287.91 166.432C287.786 166.573 287.627 166.626 287.486 166.626ZM134.579 160.338C134.296 160.338 134.049 160.144 133.996 159.843C133.907 159.366 133.872 158.872 133.872 158.377C133.872 157.229 134.102 156.081 134.543 154.95C134.667 154.65 135.003 154.509 135.303 154.615C135.603 154.738 135.745 155.074 135.639 155.374C135.25 156.363 135.056 157.37 135.056 158.377C135.056 158.801 135.091 159.225 135.162 159.649C135.215 159.967 135.003 160.267 134.685 160.32C134.632 160.338 134.596 160.338 134.579 160.338ZM291.213 158.395C290.913 158.395 290.648 158.165 290.631 157.847C290.542 156.469 290.083 155.092 289.27 153.714C289.111 153.431 289.2 153.078 289.465 152.919C289.747 152.76 290.101 152.848 290.26 153.113C291.178 154.632 291.69 156.205 291.796 157.777C291.814 158.095 291.567 158.377 291.249 158.395C291.249 158.395 291.231 158.395 291.213 158.395ZM137.582 151.841C137.44 151.841 137.299 151.788 137.193 151.7C136.946 151.488 136.928 151.117 137.14 150.87C138.112 149.792 139.313 148.715 140.708 147.69C140.973 147.496 141.327 147.549 141.521 147.814C141.715 148.079 141.662 148.432 141.397 148.627C140.072 149.616 138.924 150.623 138.006 151.647C137.917 151.771 137.741 151.841 137.582 151.841ZM286.78 150.428C286.638 150.428 286.497 150.375 286.391 150.269C285.366 149.315 284.147 148.379 282.77 147.478C282.505 147.302 282.434 146.931 282.611 146.666C282.787 146.401 283.158 146.33 283.423 146.507C284.854 147.443 286.108 148.432 287.186 149.421C287.416 149.633 287.433 150.004 287.221 150.252C287.098 150.358 286.939 150.428 286.78 150.428ZM145.001 146.224C144.789 146.224 144.595 146.118 144.489 145.924C144.33 145.641 144.436 145.288 144.718 145.129C146.008 144.405 147.439 143.698 148.94 143.009C149.241 142.868 149.576 143.009 149.717 143.31C149.859 143.61 149.717 143.946 149.417 144.087C147.933 144.758 146.555 145.447 145.284 146.154C145.195 146.189 145.107 146.224 145.001 146.224ZM279.06 145.217C278.972 145.217 278.883 145.2 278.795 145.147C277.488 144.475 276.092 143.822 274.591 143.204C274.29 143.08 274.149 142.744 274.273 142.444C274.396 142.144 274.732 142.002 275.032 142.126C276.552 142.762 277.982 143.433 279.307 144.105C279.59 144.246 279.714 144.599 279.555 144.899C279.466 145.111 279.272 145.217 279.06 145.217ZM153.498 142.356C153.268 142.356 153.039 142.214 152.95 141.985C152.844 141.685 152.986 141.349 153.286 141.225C154.328 140.837 155.406 140.448 156.518 140.077C156.925 139.936 157.313 139.812 157.72 139.688C158.02 139.582 158.356 139.759 158.462 140.059C158.568 140.36 158.391 140.695 158.091 140.801C157.684 140.925 157.296 141.066 156.889 141.19C155.794 141.561 154.717 141.932 153.692 142.32C153.639 142.338 153.568 142.356 153.498 142.356ZM270.457 141.579C270.387 141.579 270.334 141.561 270.263 141.543C269.327 141.208 268.355 140.89 267.348 140.572C266.854 140.413 266.341 140.254 265.829 140.112C265.228 139.936 264.645 139.759 264.027 139.6C263.709 139.512 263.533 139.194 263.621 138.876C263.709 138.558 264.027 138.381 264.345 138.47C264.963 138.646 265.564 138.823 266.165 139C266.677 139.159 267.189 139.3 267.684 139.477C268.691 139.794 269.68 140.13 270.634 140.448C270.934 140.554 271.093 140.89 270.987 141.19C270.916 141.437 270.704 141.579 270.457 141.579ZM162.401 139.494C162.136 139.494 161.906 139.318 161.836 139.07C161.747 138.752 161.942 138.434 162.242 138.346C163.708 137.94 165.245 137.551 166.799 137.18C167.117 137.109 167.435 137.304 167.506 137.622C167.577 137.94 167.382 138.258 167.064 138.328C165.528 138.699 164.008 139.07 162.56 139.477C162.489 139.477 162.454 139.494 162.401 139.494ZM259.682 138.452C259.629 138.452 259.593 138.452 259.54 138.434C258.074 138.081 256.537 137.745 255 137.41C254.682 137.339 254.488 137.039 254.541 136.721C254.612 136.403 254.912 136.209 255.23 136.262C256.785 136.58 258.321 136.933 259.805 137.286C260.123 137.357 260.318 137.675 260.229 137.993C260.194 138.275 259.947 138.452 259.682 138.452ZM171.481 137.339C171.216 137.339 170.968 137.145 170.915 136.862C170.845 136.544 171.057 136.244 171.375 136.173C172.876 135.873 174.431 135.573 175.985 135.308C176.303 135.255 176.603 135.467 176.656 135.785C176.709 136.103 176.498 136.403 176.18 136.456C174.625 136.721 173.088 137.021 171.604 137.321C171.569 137.339 171.534 137.339 171.481 137.339ZM250.531 136.544C250.496 136.544 250.461 136.544 250.425 136.527C248.924 136.262 247.387 136.014 245.832 135.785C245.514 135.732 245.285 135.431 245.338 135.113C245.391 134.795 245.691 134.584 246.009 134.619C247.563 134.848 249.136 135.113 250.637 135.378C250.955 135.431 251.167 135.732 251.114 136.05C251.061 136.35 250.814 136.544 250.531 136.544ZM180.702 135.732C180.419 135.732 180.172 135.52 180.119 135.237C180.066 134.919 180.295 134.619 180.613 134.566C182.133 134.336 183.687 134.124 185.259 133.948C185.577 133.912 185.878 134.142 185.913 134.46C185.948 134.778 185.719 135.078 185.401 135.113C183.846 135.308 182.292 135.52 180.79 135.732C180.755 135.732 180.719 135.732 180.702 135.732ZM241.292 135.166C241.275 135.166 241.239 135.166 241.222 135.166C239.703 134.972 238.148 134.795 236.594 134.637C236.276 134.601 236.046 134.319 236.064 134.001C236.099 133.683 236.382 133.453 236.7 133.471C238.272 133.63 239.826 133.806 241.363 134.001C241.681 134.036 241.911 134.336 241.875 134.654C241.822 134.937 241.575 135.166 241.292 135.166ZM189.976 134.601C189.676 134.601 189.428 134.372 189.393 134.071C189.358 133.753 189.587 133.471 189.923 133.435C191.46 133.276 193.032 133.135 194.586 133.029C194.904 133.011 195.187 133.241 195.222 133.559C195.24 133.877 195.01 134.16 194.692 134.195C193.138 134.319 191.583 134.46 190.046 134.601C190.011 134.601 189.994 134.601 189.976 134.601ZM231.983 134.213C231.965 134.213 231.948 134.213 231.93 134.213C230.393 134.089 228.839 133.983 227.284 133.895C226.966 133.877 226.719 133.594 226.737 133.276C226.754 132.958 227.019 132.711 227.355 132.729C228.927 132.817 230.499 132.923 232.036 133.047C232.354 133.064 232.601 133.347 232.566 133.683C232.548 133.983 232.283 134.213 231.983 134.213ZM199.285 133.859C198.985 133.859 198.72 133.612 198.702 133.312C198.685 132.994 198.932 132.711 199.25 132.693C200.787 132.605 202.359 132.534 203.931 132.464C204.249 132.446 204.532 132.711 204.532 133.029C204.549 133.347 204.284 133.63 203.966 133.63C202.412 133.683 200.84 133.771 199.303 133.859C199.321 133.859 199.303 133.859 199.285 133.859ZM222.656 133.647H222.638C221.101 133.594 219.529 133.541 217.975 133.506C217.657 133.506 217.392 133.241 217.409 132.905C217.409 132.587 217.692 132.323 218.01 132.34C219.565 132.375 221.137 132.411 222.691 132.481C223.009 132.499 223.257 132.764 223.257 133.082C223.221 133.418 222.956 133.647 222.656 133.647ZM208.63 133.506C208.312 133.506 208.047 133.259 208.047 132.941C208.047 132.623 208.294 132.358 208.612 132.34C210.114 132.305 211.633 132.305 213.135 132.305H213.294C213.611 132.305 213.876 132.57 213.876 132.888C213.876 133.206 213.611 133.471 213.294 133.471H213.135C211.651 133.471 210.132 133.488 208.63 133.506Z" fill="black"/>
<path d="M290.147 134.212C289.175 135.649 287.86 137.039 286.229 138.368C282.393 141.496 276.699 144.388 269.201 146.89L269.201 146.89C254.205 151.888 234.535 154.479 214.742 154.665C194.952 154.851 174.955 152.634 159.298 147.963C158.771 147.817 158.248 147.655 157.752 147.495C157.751 147.495 157.75 147.495 157.749 147.494L158.055 146.542C145.541 142.61 137.985 137.639 135.405 132.447L290.147 134.212ZM290.147 134.212L290.16 149.281V149.283C290.167 152.061 288.567 155.005 284.983 157.927C281.405 160.844 275.961 163.64 268.585 166.102L268.585 166.102C253.851 171.022 234.403 173.598 214.741 173.781C195.083 173.963 175.295 171.753 159.883 167.153C159.623 167.073 159.369 166.997 159.121 166.923L159.118 166.922C158.866 166.847 158.621 166.774 158.372 166.697C150.564 164.234 144.775 161.392 140.96 158.403C137.136 155.407 135.419 152.371 135.419 149.51L135.419 149.509L135.406 134.421L290.147 134.212Z" stroke="black" stroke-width="2"/>
<path d="M212.427 154.261C192.696 154.261 173.953 151.894 159.415 147.567C158.903 147.408 158.391 147.266 157.896 147.107C142.439 142.25 133.889 135.626 133.819 128.472C133.766 121.512 141.803 114.976 156.465 110.083C170.88 105.279 190.17 102.523 210.785 102.329C231.364 102.134 251.008 104.519 266.111 109.023C266.623 109.182 267.136 109.324 267.63 109.483C283.087 114.34 291.637 120.964 291.708 128.118C291.761 135.078 283.723 141.614 269.061 146.507C254.647 151.311 235.357 154.067 214.742 154.261C213.982 154.261 213.205 154.261 212.427 154.261ZM213.152 103.512C192.625 103.512 172.081 106.073 156.854 111.161C142.704 115.877 134.949 122.024 135.002 128.436C135.055 134.954 143.534 141.349 158.249 145.977C158.744 146.136 159.256 146.295 159.751 146.436C190.541 155.622 239.419 155.162 268.708 145.376C282.857 140.66 290.612 134.513 290.559 128.101C290.506 121.583 282.027 115.188 267.295 110.56C266.8 110.401 266.288 110.242 265.776 110.101C251.025 105.703 232.089 103.512 213.152 103.512Z" fill="black"/>
<path d="M187.696 227.533C189.677 227.533 191.282 225.927 191.282 223.947C191.282 221.966 189.677 220.361 187.696 220.361C185.716 220.361 184.11 221.966 184.11 223.947C184.11 225.927 185.716 227.533 187.696 227.533Z" fill="white"/>
<path d="M216.296 226.242C216.613 224.287 215.285 222.445 213.33 222.128C211.375 221.811 209.533 223.139 209.216 225.093C208.899 227.048 210.226 228.89 212.181 229.207C214.136 229.525 215.978 228.197 216.296 226.242Z" fill="white"/>
<path d="M237.9 227.533C239.881 227.533 241.486 225.927 241.486 223.947C241.486 221.966 239.881 220.361 237.9 220.361C235.92 220.361 234.314 221.966 234.314 223.947C234.314 225.927 235.92 227.533 237.9 227.533Z" fill="white"/>
<path d="M212.551 148.203C192.82 148.203 174.077 145.836 159.539 141.508C159.027 141.349 158.514 141.208 158.02 141.049C142.51 136.173 133.96 129.532 133.942 122.342V101.216C133.942 100.898 134.207 100.633 134.525 100.633C134.843 100.633 135.108 100.898 135.108 101.216L135.126 122.325C135.144 128.86 143.605 135.272 158.373 139.918C158.868 140.077 159.38 140.236 159.874 140.377C190.664 149.563 239.543 149.103 268.832 139.318C282.928 134.619 290.701 128.489 290.683 122.095L290.665 100.986C290.665 100.668 290.93 100.403 291.248 100.403C291.566 100.403 291.831 100.668 291.831 100.986L291.849 122.095C291.867 129.037 283.812 135.537 269.203 140.413C254.788 145.217 235.498 147.973 214.883 148.167C214.106 148.203 213.329 148.203 212.551 148.203Z" fill="black"/>
<path d="M212.533 127.518C192.801 127.518 174.059 125.151 159.521 120.823C159.008 120.664 158.496 120.523 158.001 120.364C142.545 115.506 133.995 108.882 133.924 101.728C133.871 94.7684 141.909 88.2327 156.571 83.3397C170.985 78.535 190.275 75.7794 210.89 75.5851C231.452 75.3908 251.113 77.7755 266.217 82.2798C266.729 82.4388 267.241 82.5801 267.736 82.7568C283.193 87.6144 291.742 94.2385 291.813 101.392C291.866 108.352 283.829 114.888 269.167 119.781C254.752 124.586 235.462 127.341 214.847 127.536C214.087 127.518 213.31 127.518 212.533 127.518ZM213.257 76.7686C192.731 76.7686 172.186 79.3299 156.959 84.4172C142.81 89.1335 135.055 95.2807 135.108 101.693C135.161 108.211 143.64 114.605 158.355 119.233C158.849 119.392 159.362 119.551 159.856 119.693C190.646 128.878 239.525 128.419 268.813 118.633C282.963 113.916 290.718 107.769 290.665 101.357C290.612 94.8391 282.133 88.4446 267.418 83.8166C266.923 83.6576 266.411 83.4987 265.899 83.3573C251.131 78.959 232.194 76.7686 213.257 76.7686Z" fill="black"/>
<path d="M291.072 73.3594L291.089 94.4681C291.107 100.863 283.706 107.275 268.832 112.238C239.102 122.166 190.594 122.572 159.521 113.298C159.009 113.139 158.514 112.998 158.002 112.839C142.263 107.875 134.349 101.286 134.349 94.6978L134.331 73.589C134.349 80.1955 142.245 86.7842 157.984 91.7302C158.479 91.8891 158.991 92.0481 159.504 92.1894C190.576 101.463 239.084 101.039 268.814 91.1296C283.688 86.166 291.072 79.7538 291.072 73.3594Z" fill="#3C78EC"/>
<path d="M212.375 92.3661C192.643 92.3661 173.9 89.9991 159.362 85.6714C158.85 85.5124 158.338 85.3711 157.843 85.2121C142.333 80.3014 133.783 73.6597 133.766 66.488L133.748 45.3793C133.748 45.0614 134.013 44.7964 134.331 44.7964C134.649 44.7964 134.914 45.0614 134.914 45.3793C134.932 51.9151 143.393 58.3272 158.161 62.9729C158.656 63.1318 159.168 63.2908 159.662 63.4321C190.452 72.6175 239.331 72.1583 268.62 62.3723C282.716 57.6736 290.471 51.5618 290.471 45.1674C290.471 44.8494 290.736 44.5844 291.054 44.5844C291.372 44.5844 291.637 44.8494 291.637 45.1674C291.637 45.1674 291.637 45.1674 291.637 45.185L291.655 66.2761C291.672 73.2181 283.617 79.7185 269.008 84.5938C254.594 89.3985 235.304 92.1541 214.689 92.3484C213.911 92.3661 213.152 92.3661 212.375 92.3661ZM134.932 49.919L134.949 66.488C134.967 73.0238 143.428 79.4359 158.196 84.0816C158.691 84.2406 159.203 84.3995 159.698 84.5409C190.488 93.7262 239.367 93.267 268.655 83.481C282.752 78.7823 290.507 72.6529 290.507 66.2584L290.489 49.6894C287.768 54.9003 280.384 59.6873 269.008 63.4675C254.594 68.2721 235.304 71.0277 214.689 71.2221C194.109 71.4164 174.466 69.0317 159.362 64.5273C158.85 64.3683 158.338 64.227 157.843 64.0681C145.637 60.2526 137.758 55.3243 134.932 49.919Z" fill="#5479F7"/>
<path d="M212.357 99.4494C192.625 99.4494 173.883 97.0824 159.345 92.7547C158.832 92.5957 158.32 92.4544 157.826 92.2954C142.369 87.4378 133.819 80.8137 133.748 73.6597C133.695 66.7 141.733 60.1643 156.395 55.2713C170.809 50.4666 190.099 47.711 210.714 47.5167C231.294 47.3224 250.937 49.7071 266.041 54.2114C266.553 54.3704 267.065 54.5117 267.56 54.6884C283.017 59.546 291.567 66.1701 291.637 73.3241C291.69 80.2838 283.653 86.8195 268.991 91.7125C254.576 96.5172 235.286 99.2728 214.671 99.4671C213.912 99.4494 213.134 99.4494 212.357 99.4494ZM213.081 48.7002C192.555 48.7002 172.011 51.2615 156.783 56.3488C142.634 61.0651 134.879 67.2123 134.932 73.6244C134.985 80.1425 143.464 86.5369 158.179 91.1649C158.674 91.3239 159.186 91.4829 159.68 91.6242C190.47 100.81 239.349 100.35 268.638 90.5644C282.787 85.848 290.542 79.7009 290.489 73.2888C290.436 66.7707 281.957 60.3762 267.242 55.7482C266.747 55.5892 266.235 55.4303 265.723 55.2889C250.955 50.8906 232.018 48.7002 213.081 48.7002Z" fill="#5479F7"/>
<path d="M291.689 25.984H133.677V47.4107H291.689V25.984Z" fill="#5479F7"/>
<path d="M265.881 26.5493C266.394 26.7083 266.906 26.8496 267.4 27.0086C298.402 36.7592 299.021 52.8513 268.814 62.9199C239.084 72.8471 190.576 73.2534 159.503 63.9797C158.991 63.8207 158.496 63.6794 157.984 63.5204C127 53.7698 126.364 37.6777 156.571 27.6091C186.301 17.6819 234.809 17.2756 265.881 26.5493Z" fill="#FF722C"/>
<path d="M266.323 7.27765C266.835 7.43662 267.347 7.57794 267.86 7.73691C299.127 17.5052 299.78 33.5796 269.29 43.6659C239.313 53.5755 190.381 53.9818 159.026 44.6904C158.514 44.5314 158.002 44.3901 157.489 44.2311C126.222 34.4628 125.586 18.3884 156.058 8.30217C186.053 -1.60745 234.985 -2.01372 266.323 7.27765Z" fill="white"/>
<path d="M212.392 51.9681C192.466 51.9681 173.529 49.6011 158.85 45.2557C158.337 45.0967 157.825 44.9554 157.313 44.7964C141.715 39.9211 133.094 33.297 133.041 26.143C132.988 19.1833 141.096 12.6476 155.882 7.77224C170.42 2.94991 189.887 0.194298 210.679 0.0176562C231.435 -0.17665 251.255 2.20802 266.5 6.73005C267.012 6.88903 267.524 7.04801 268.037 7.20698C283.635 12.0823 292.273 18.7064 292.326 25.8604C292.379 32.8201 284.271 39.3558 269.485 44.2311C254.947 49.0358 235.48 51.7914 214.688 51.9857C213.911 51.9681 213.152 51.9681 212.392 51.9681ZM212.993 1.21882C192.289 1.21882 171.604 3.78013 156.253 8.84975C141.98 13.5661 134.154 19.6956 134.207 26.1077C134.26 32.6258 142.81 39.0202 157.666 43.6482C158.161 43.8072 158.673 43.9662 159.185 44.1075C174.112 48.5235 193.243 50.7139 212.374 50.7139C233.078 50.7139 253.763 48.1526 269.114 43.083C283.387 38.3666 291.213 32.2372 291.16 25.825C291.107 19.307 282.557 12.9125 267.683 8.2845C267.171 8.12552 266.676 7.96654 266.164 7.82523C251.237 3.40918 232.106 1.21882 212.993 1.21882Z" fill="black"/>
<path d="M212.357 239.421C192.713 239.421 174.077 236.983 159.609 232.514C159.097 232.355 158.585 232.196 158.09 232.037C142.58 226.985 134.048 220.096 134.048 212.642L133.589 29.8348C133.589 29.5169 133.854 29.2519 134.172 29.2519C134.49 29.2519 134.755 29.5169 134.755 29.8348L135.214 212.659C135.214 219.46 143.693 226.119 158.461 230.942C158.956 231.101 159.468 231.26 159.963 231.419C190.735 240.94 239.614 240.392 268.902 230.2C283.016 225.289 290.789 218.912 290.789 212.253L290.489 29.2342C290.489 28.9163 290.754 28.6513 291.072 28.6513C291.39 28.6513 291.655 28.9163 291.655 29.2342L291.955 212.253C291.955 219.442 283.9 226.208 269.291 231.295C254.876 236.312 235.568 239.191 214.953 239.421C214.088 239.421 213.222 239.421 212.357 239.421Z" fill="black"/>
<path d="M238.465 113.934C238.182 113.934 237.935 113.722 237.882 113.439C237.829 113.122 238.041 112.821 238.377 112.768C239.931 112.521 241.468 112.274 242.987 112.026C243.305 111.973 243.606 112.185 243.659 112.503C243.712 112.821 243.5 113.122 243.182 113.175C241.662 113.422 240.108 113.669 238.553 113.916C238.518 113.916 238.5 113.934 238.465 113.934ZM247.686 112.38C247.404 112.38 247.156 112.185 247.121 111.903C247.068 111.585 247.28 111.284 247.598 111.231C249.188 110.949 250.742 110.649 252.173 110.366C252.491 110.295 252.791 110.507 252.862 110.825C252.933 111.143 252.721 111.443 252.403 111.514C250.954 111.797 249.4 112.097 247.792 112.38C247.757 112.38 247.721 112.38 247.686 112.38ZM256.854 110.543C256.589 110.543 256.342 110.366 256.289 110.083C256.218 109.765 256.413 109.447 256.731 109.377C258.303 109.023 259.822 108.652 261.253 108.282C261.571 108.193 261.889 108.388 261.959 108.705C262.048 109.023 261.853 109.341 261.535 109.412C260.105 109.783 258.568 110.154 256.978 110.507C256.943 110.543 256.89 110.543 256.854 110.543ZM265.899 108.193C265.651 108.193 265.422 108.034 265.333 107.769C265.245 107.469 265.422 107.133 265.722 107.045C267.277 106.586 268.76 106.091 270.121 105.579C270.421 105.473 270.757 105.632 270.863 105.932C270.968 106.232 270.81 106.568 270.509 106.674C269.114 107.186 267.612 107.681 266.04 108.158C266.005 108.193 265.952 108.193 265.899 108.193ZM274.66 104.978C274.431 104.978 274.219 104.855 274.131 104.643C273.989 104.342 274.131 104.007 274.431 103.865C275.915 103.194 277.293 102.488 278.529 101.763C278.812 101.604 279.165 101.693 279.324 101.975C279.483 102.258 279.395 102.611 279.112 102.77C277.84 103.512 276.409 104.236 274.908 104.925C274.837 104.961 274.749 104.978 274.66 104.978Z" fill="white"/>
<path d="M237.476 105.879C237.176 105.879 236.928 105.65 236.893 105.349C236.858 105.031 237.105 104.749 237.423 104.713C238.977 104.572 240.55 104.413 242.069 104.236C242.387 104.201 242.687 104.431 242.722 104.749C242.758 105.067 242.528 105.367 242.21 105.402C240.673 105.579 239.119 105.738 237.547 105.879C237.511 105.879 237.494 105.879 237.476 105.879ZM246.768 104.802C246.485 104.802 246.238 104.59 246.185 104.307C246.132 103.989 246.361 103.689 246.679 103.636C248.234 103.406 249.771 103.159 251.272 102.894C251.59 102.841 251.891 103.053 251.944 103.371C251.997 103.689 251.785 103.989 251.467 104.042C249.965 104.307 248.393 104.572 246.838 104.802C246.821 104.802 246.803 104.802 246.768 104.802ZM255.971 103.141C255.706 103.141 255.459 102.947 255.406 102.682C255.335 102.364 255.529 102.064 255.847 101.993C257.384 101.657 258.903 101.286 260.37 100.916C260.688 100.827 261.006 101.022 261.076 101.339C261.165 101.657 260.97 101.975 260.652 102.046C259.168 102.435 257.632 102.806 256.077 103.141C256.059 103.141 256.006 103.141 255.971 103.141ZM265.016 100.774C264.768 100.774 264.539 100.615 264.45 100.368C264.362 100.068 264.521 99.732 264.839 99.6437C266.34 99.1668 267.824 98.6722 269.237 98.1423C269.538 98.0363 269.873 98.1776 269.997 98.4779C270.103 98.7782 269.962 99.1138 269.661 99.2375C268.231 99.7674 266.729 100.28 265.21 100.757C265.122 100.757 265.069 100.774 265.016 100.774ZM273.76 97.5064C273.53 97.5064 273.318 97.3827 273.23 97.1531C273.106 96.8528 273.23 96.5172 273.53 96.3758C274.979 95.7399 276.374 95.051 277.681 94.3445C277.964 94.1855 278.317 94.2915 278.476 94.5741C278.635 94.8567 278.529 95.21 278.247 95.369C276.904 96.0932 275.491 96.7821 274.007 97.4357C273.919 97.4887 273.848 97.5064 273.76 97.5064ZM281.974 93.055C281.78 93.055 281.603 92.9667 281.479 92.79C281.303 92.5251 281.373 92.1541 281.638 91.9775C281.974 91.7478 282.327 91.5182 282.663 91.2886C282.928 91.1119 283.299 91.1649 283.475 91.4299C283.652 91.6948 283.599 92.0658 283.334 92.2424C282.998 92.4721 282.645 92.7194 282.292 92.949C282.204 93.0197 282.08 93.055 281.974 93.055Z" fill="white"/>
<path d="M190.505 113.598C190.488 113.598 190.488 113.598 190.47 113.598C188.898 113.51 187.326 113.386 185.789 113.245C185.471 113.21 185.224 112.927 185.259 112.609C185.294 112.291 185.577 112.062 185.895 112.079C187.414 112.221 188.968 112.344 190.541 112.433C190.859 112.45 191.106 112.733 191.088 113.051C191.071 113.351 190.806 113.598 190.505 113.598ZM181.196 112.715C181.178 112.715 181.143 112.715 181.108 112.715C179.553 112.503 177.981 112.256 176.462 111.991C176.144 111.938 175.932 111.638 175.985 111.32C176.038 111.002 176.356 110.79 176.656 110.843C178.158 111.108 179.712 111.355 181.249 111.567C181.567 111.602 181.797 111.903 181.744 112.221C181.744 112.503 181.479 112.715 181.196 112.715ZM172.01 111.055C171.975 111.055 171.922 111.055 171.887 111.037C170.35 110.684 168.83 110.295 167.329 109.889C167.011 109.801 166.834 109.483 166.923 109.165C167.011 108.847 167.329 108.67 167.647 108.758C169.131 109.165 170.632 109.553 172.151 109.889C172.469 109.96 172.664 110.278 172.593 110.596C172.505 110.86 172.275 111.055 172.01 111.055ZM163.001 108.546C162.948 108.546 162.877 108.529 162.824 108.511C161.341 108.017 159.857 107.487 158.391 106.939C158.09 106.815 157.931 106.48 158.055 106.179C158.179 105.879 158.514 105.72 158.814 105.844C160.263 106.391 161.729 106.921 163.195 107.398C163.496 107.504 163.672 107.822 163.566 108.14C163.478 108.405 163.248 108.546 163.001 108.546Z" fill="white"/>
<path d="M190.505 105.809C190.488 105.809 190.488 105.809 190.47 105.809C188.898 105.72 187.326 105.597 185.789 105.455C185.471 105.42 185.241 105.137 185.259 104.819C185.294 104.501 185.577 104.272 185.895 104.289C187.414 104.431 188.986 104.554 190.523 104.643C190.841 104.66 191.088 104.943 191.071 105.261C191.071 105.561 190.806 105.809 190.505 105.809ZM181.196 104.908C181.161 104.908 181.143 104.908 181.108 104.908C179.553 104.696 177.999 104.448 176.462 104.166C176.144 104.113 175.932 103.812 175.985 103.495C176.038 103.177 176.338 102.965 176.656 103.018C178.158 103.283 179.712 103.53 181.249 103.742C181.567 103.777 181.797 104.077 181.744 104.395C181.744 104.696 181.479 104.908 181.196 104.908ZM172.01 103.23C171.975 103.23 171.922 103.23 171.887 103.212C170.35 102.859 168.83 102.488 167.329 102.064C167.011 101.975 166.834 101.657 166.923 101.339C167.011 101.022 167.329 100.845 167.647 100.933C169.131 101.339 170.632 101.728 172.151 102.064C172.469 102.134 172.664 102.452 172.593 102.77C172.522 103.053 172.275 103.23 172.01 103.23ZM163.001 100.757C162.948 100.757 162.877 100.739 162.824 100.721C161.341 100.227 159.839 99.7144 158.391 99.1491C158.09 99.0255 157.931 98.6899 158.055 98.3896C158.179 98.0893 158.514 97.9303 158.814 98.0539C160.245 98.6015 161.712 99.1138 163.195 99.6084C163.496 99.7144 163.672 100.032 163.566 100.35C163.478 100.598 163.248 100.757 163.001 100.757Z" fill="white"/>
<path d="M404.592 214.355H266.099C264.51 214.355 263.255 213.083 263.291 211.493L264.969 136.438C265.004 134.866 266.311 133.577 267.901 133.577H406.394C407.984 133.577 409.238 134.848 409.203 136.438L407.525 211.493C407.507 213.066 406.182 214.355 404.592 214.355Z" fill="white"/>
<path d="M404.592 214.938H266.099C265.163 214.938 264.298 214.585 263.662 213.913C263.026 213.26 262.69 212.394 262.708 211.476L264.386 136.421C264.421 134.53 266.011 132.994 267.901 132.994H406.394C407.33 132.994 408.196 133.347 408.832 134.018C409.468 134.672 409.803 135.537 409.786 136.456L408.108 211.511C408.072 213.401 406.5 214.938 404.592 214.938ZM267.919 134.16C266.647 134.16 265.587 135.184 265.569 136.438L263.891 211.493C263.874 212.094 264.103 212.659 264.51 213.083C264.933 213.507 265.499 213.754 266.117 213.754H404.61C405.882 213.754 406.942 212.73 406.959 211.476L408.638 136.421C408.655 135.82 408.426 135.255 408.019 134.831C407.595 134.407 407.03 134.16 406.412 134.16H267.919Z" fill="black"/>
<path d="M298.957 183.96L298.396 209.545H286.412L286.973 183.96H298.957Z" stroke="black"/>
<path d="M282.458 190.902L282.039 209.545H270.072L270.475 190.902H282.458Z" stroke="black"/>
<path d="M315.668 170.606L314.79 209.545H302.806L303.685 170.606H315.668Z" stroke="black"/>
<path d="M332.609 178.484L331.924 209.545H319.941L320.625 178.484H332.609Z" stroke="black"/>
<path d="M350.026 165.113L349.042 209.545H337.058L338.06 165.113H350.026Z" stroke="black"/>
<path d="M366.896 176.806L366.176 209.015H354.193L354.913 176.806H366.896Z" stroke="black"/>
<path d="M279.171 177.349C278.977 177.349 278.8 177.26 278.676 177.084C278.5 176.819 278.57 176.448 278.835 176.271L308.724 156.469C308.954 156.31 309.254 156.346 309.449 156.54L321.637 168.163L345.008 152.672C345.238 152.513 345.538 152.548 345.732 152.742L358.981 165.778L397.826 140.112C398.091 139.936 398.462 140.006 398.639 140.271C398.815 140.536 398.745 140.907 398.48 141.084L359.246 167.015C359.016 167.174 358.716 167.139 358.522 166.944L345.273 153.908L321.92 169.4C321.69 169.559 321.39 169.523 321.196 169.329L309.007 157.706L279.507 177.243C279.383 177.313 279.277 177.349 279.171 177.349Z" fill="black"/>
<path d="M312.947 156.876C312.894 158.995 311.127 160.797 309.007 160.903C306.87 161.009 305.192 159.384 305.227 157.282C305.28 155.162 307.047 153.361 309.166 153.255C311.304 153.131 313 154.756 312.947 156.876Z" fill="black"/>
<path d="M349.142 152.919C349.089 155.039 347.323 156.84 345.203 156.946C343.065 157.052 341.387 155.427 341.422 153.325C341.475 151.205 343.242 149.404 345.362 149.298C347.499 149.192 349.195 150.817 349.142 152.919Z" fill="#5479F7"/>
<path d="M325.789 168.534C325.736 170.654 323.97 172.456 321.85 172.562C319.713 172.668 318.035 171.042 318.07 168.94C318.123 166.821 319.889 165.019 322.009 164.913C324.147 164.789 325.842 166.414 325.789 168.534Z" fill="black"/>
<path d="M283.128 176.624C283.075 178.744 281.309 180.546 279.189 180.652C277.052 180.758 275.373 179.133 275.409 177.031C275.462 174.911 277.228 173.109 279.348 173.003C281.485 172.879 283.181 174.505 283.128 176.624Z" fill="white"/>
<path d="M278.977 181.252C277.864 181.252 276.84 180.846 276.062 180.086C275.232 179.292 274.808 178.196 274.826 177.013C274.879 174.611 276.893 172.544 279.33 172.403C280.531 172.332 281.644 172.756 282.492 173.551C283.323 174.346 283.747 175.441 283.729 176.624C283.676 179.027 281.662 181.093 279.224 181.235C279.136 181.252 279.048 181.252 278.977 181.252ZM279.56 173.586C279.507 173.586 279.436 173.586 279.383 173.586C277.546 173.674 276.027 175.229 275.992 177.048C275.974 177.896 276.292 178.691 276.875 179.256C277.475 179.839 278.27 180.122 279.154 180.086C280.991 179.998 282.51 178.444 282.545 176.624C282.563 175.776 282.245 174.981 281.662 174.416C281.114 173.869 280.373 173.586 279.56 173.586Z" fill="black"/>
<path d="M362.85 166.043C362.797 168.163 361.03 169.965 358.911 170.071C356.773 170.177 355.095 168.552 355.13 166.45C355.183 164.33 356.95 162.528 359.07 162.422C361.207 162.299 362.885 163.924 362.85 166.043Z" fill="black"/>
<path d="M333.213 17.6647H243.987C240.507 17.6647 237.681 20.4909 237.681 23.9708V122.413C237.681 125.893 240.507 128.719 243.987 128.719H333.213C336.693 128.719 339.519 125.893 339.519 122.413V23.9708C339.519 20.4909 336.693 17.6647 333.213 17.6647Z" fill="white"/>
<path d="M333.212 129.285H243.987C240.189 129.285 237.098 126.194 237.098 122.396V23.9708C237.098 20.173 240.189 17.0818 243.987 17.0818H333.212C337.01 17.0818 340.102 20.173 340.102 23.9708V122.413C340.102 126.211 337.01 129.285 333.212 129.285ZM243.987 18.2476C240.825 18.2476 238.264 20.8089 238.264 23.9708V122.413C238.264 125.575 240.825 128.137 243.987 128.137H333.212C336.374 128.137 338.936 125.575 338.936 122.413V23.9708C338.936 20.8089 336.374 18.2476 333.212 18.2476H243.987Z" fill="black"/>
<path d="M334.59 28.5988H242.697C242.379 28.5988 242.114 28.3338 242.114 28.0159C242.114 27.6979 242.379 27.433 242.697 27.433H334.59C334.908 27.433 335.173 27.6979 335.173 28.0159C335.173 28.3338 334.908 28.5988 334.59 28.5988Z" fill="black"/>
<path d="M245.93 22.5223C245.93 23.4232 245.206 24.1298 244.322 24.1298C243.421 24.1298 242.715 23.4055 242.715 22.5223C242.715 21.6215 243.439 20.9149 244.322 20.9149C245.206 20.8972 245.93 21.6215 245.93 22.5223Z" fill="white"/>
<path d="M252.396 22.5223C252.396 23.4232 251.671 24.1298 250.788 24.1298C249.905 24.1298 249.181 23.4056 249.181 22.5223C249.181 21.6215 249.905 20.9149 250.788 20.9149C251.671 20.9149 252.396 21.6215 252.396 22.5223Z" fill="white"/>
<path d="M258.861 22.5223C258.861 23.4232 258.136 24.1298 257.253 24.1298C256.352 24.1298 255.646 23.4055 255.646 22.5223C255.646 21.6215 256.37 20.9149 257.253 20.9149C258.136 20.8972 258.861 21.6215 258.861 22.5223Z" fill="white"/>
<path d="M334.59 23.1052H325.492C325.174 23.1052 324.909 22.8403 324.909 22.5223C324.909 22.2044 325.174 21.9394 325.492 21.9394H334.59C334.908 21.9394 335.172 22.2044 335.172 22.5223C335.172 22.8403 334.908 23.1052 334.59 23.1052Z" fill="black"/>
<path d="M321.394 23.1052H283.68C283.362 23.1052 283.097 22.8403 283.097 22.5223C283.097 22.2044 283.362 21.9394 283.68 21.9394H321.394C321.712 21.9394 321.977 22.2044 321.977 22.5223C321.977 22.8403 321.712 23.1052 321.394 23.1052Z" fill="black"/>
<path d="M273.77 23.1052H265.75C265.432 23.1052 265.167 22.8403 265.167 22.5223C265.167 22.2044 265.432 21.9394 265.75 21.9394H273.77C274.088 21.9394 274.353 22.2044 274.353 22.5223C274.353 22.8403 274.088 23.1052 273.77 23.1052Z" fill="black"/>
<path d="M273.153 70.3393C276.085 65.199 281.561 61.5779 287.903 60.9066L288.344 35.7881C270.097 35.8411 254.004 46.1217 246.655 61.3306L273.153 70.3393Z" fill="white"/>
<path d="M273.152 70.9222C273.082 70.9222 273.029 70.9046 272.958 70.8869L246.478 61.8605C246.319 61.8075 246.196 61.6839 246.125 61.5249C246.054 61.3659 246.072 61.1893 246.143 61.048C253.703 45.3975 270.255 35.2406 288.344 35.1876C288.486 35.1876 288.645 35.2582 288.768 35.3642C288.874 35.4702 288.945 35.6292 288.945 35.7882L288.503 60.9066C288.503 61.2069 288.274 61.4542 287.973 61.4719C281.932 62.0901 276.579 65.517 273.665 70.6043C273.559 70.8163 273.364 70.9222 273.152 70.9222ZM247.485 60.9773L272.887 69.6328C275.943 64.5808 281.278 61.1716 287.337 60.3944L287.761 36.3711C270.573 36.6537 254.887 46.2277 247.485 60.9773Z" fill="black"/>
<path d="M271.916 43.1895C271.686 43.1895 271.474 43.0482 271.368 42.8185C271.244 42.5182 271.386 42.1826 271.686 42.059C275.82 40.3809 280.183 39.3387 284.634 38.9501C284.952 38.9147 285.235 39.162 285.27 39.48C285.306 39.7979 285.058 40.0806 284.74 40.1159C280.395 40.4869 276.155 41.5114 272.128 43.1365C272.057 43.1895 271.986 43.1895 271.916 43.1895Z" fill="black"/>
<path d="M257.377 52.8871C257.236 52.8871 257.077 52.8341 256.971 52.7281C256.741 52.4985 256.741 52.1275 256.971 51.8979C260.098 48.7183 263.719 46.0334 267.729 43.9137C268.012 43.7724 268.365 43.8784 268.524 44.161C268.665 44.4436 268.559 44.7969 268.277 44.9559C264.373 47.0049 260.84 49.6192 257.801 52.7281C257.678 52.8341 257.519 52.8871 257.377 52.8871Z" fill="black"/>
<path d="M308.358 81.4678C306.857 89.717 299.349 96.2174 290.128 96.5C287.373 96.5883 284.758 96.1114 282.373 95.1752L267.994 117.45C274.671 120.47 282.232 121.954 290.128 121.495C313.093 120.17 331.164 102.877 333.16 82.0684L308.358 81.4678Z" fill="white"/>
<path d="M287.373 122.166C280.572 122.166 273.842 120.735 267.747 117.997C267.588 117.927 267.482 117.785 267.429 117.626C267.376 117.467 267.412 117.291 267.5 117.149L281.879 94.8749C282.038 94.6453 282.321 94.5393 282.586 94.6453C284.97 95.5815 287.514 96.0054 290.111 95.9171C298.873 95.6521 306.31 89.5227 307.794 81.3618C307.847 81.0792 308.076 80.8849 308.376 80.8849L333.178 81.4855C333.337 81.4855 333.496 81.5561 333.602 81.6798C333.708 81.8034 333.761 81.9624 333.743 82.1214C331.676 103.583 312.934 120.771 290.164 122.078C289.228 122.131 288.291 122.166 287.373 122.166ZM268.842 117.202C275.431 120.064 282.762 121.336 290.076 120.912C312.068 119.64 330.193 103.248 332.507 82.6336L308.818 82.0684C307.034 90.5119 299.261 96.8003 290.129 97.0829C287.514 97.1713 284.988 96.765 282.586 95.8994L268.842 117.202Z" fill="black"/>
<path d="M287.32 118.563C282.462 118.563 277.71 117.785 273.206 116.266C272.905 116.16 272.729 115.825 272.835 115.524C272.941 115.224 273.276 115.047 273.577 115.153C277.957 116.637 282.568 117.379 287.32 117.379C288.168 117.379 289.033 117.361 289.881 117.308C290.199 117.291 290.482 117.538 290.5 117.856C290.517 118.174 290.27 118.457 289.952 118.474C289.086 118.527 288.203 118.563 287.32 118.563Z" fill="black"/>
<path d="M298.996 117.008C298.731 117.008 298.501 116.831 298.431 116.584C298.342 116.266 298.537 115.948 298.837 115.86C313.87 111.762 325.476 99.8209 328.426 85.4599C328.496 85.1419 328.797 84.9476 329.115 85.0006C329.433 85.0713 329.627 85.3716 329.574 85.6895C326.553 100.492 314.612 112.769 299.155 116.99C299.102 116.99 299.049 117.008 298.996 117.008Z" fill="black"/>
<path d="M263.49 115.118L278.01 92.7905C273.664 89.5756 270.873 84.5767 270.873 78.9064C270.873 77.5286 271.032 76.2038 271.35 74.9143L244.765 66.0116C243.334 70.198 242.574 74.6494 242.574 79.2597C242.557 94.5216 250.947 107.664 263.49 115.118Z" fill="white"/>
<path d="M263.49 115.701C263.384 115.701 263.278 115.683 263.189 115.613C249.905 107.734 241.974 94.133 241.974 79.2421C241.974 74.6671 242.716 70.145 244.199 65.7996C244.305 65.4993 244.641 65.3404 244.941 65.4287L271.527 74.3314C271.81 74.4198 271.986 74.7201 271.916 75.0203C271.615 76.2745 271.456 77.5817 271.456 78.8711C271.456 84.1527 273.965 89.0457 278.346 92.2959C278.593 92.4726 278.664 92.8259 278.487 93.0908L263.966 115.418C263.86 115.595 263.684 115.701 263.49 115.701ZM245.136 66.7182C243.811 70.7633 243.157 74.9674 243.157 79.2244C243.157 93.5148 250.682 106.604 263.313 114.306L277.233 92.8965C272.817 89.4343 270.308 84.347 270.308 78.8711C270.308 77.6523 270.432 76.4511 270.679 75.2676L245.136 66.7182Z" fill="black"/>
<path d="M296.152 59.9528C304.543 61.2069 310.991 67.7074 311.768 75.7446L352.344 76.9281C352.344 76.9104 352.344 76.8927 352.344 76.8751C352.344 47.1109 328.638 21.6391 296.894 18.3712L296.152 59.9528Z" fill="#FF722C"/>
<path d="M352.327 77.511L311.75 76.3275C311.45 76.3275 311.22 76.0979 311.185 75.7976C310.443 68.0253 304.225 61.7545 296.064 60.5357C295.781 60.5004 295.569 60.2354 295.569 59.9528L296.294 18.3536C296.294 18.1946 296.364 18.0356 296.488 17.9296C296.612 17.8237 296.771 17.7707 296.93 17.7883C312.369 19.3781 326.571 26.3025 336.923 37.2896C347.222 48.2237 352.91 62.2844 352.91 76.8751C352.91 77.034 352.839 77.2107 352.733 77.3167C352.627 77.4227 352.486 77.511 352.327 77.511ZM312.298 75.1793L351.761 76.3275C351.479 46.9873 328.267 22.5047 297.477 19.0248L296.771 59.4758C305.002 60.9066 311.291 67.2658 312.298 75.1793Z" fill="black"/>
<path d="M109.526 160.155C122.784 160.092 134.905 167.595 140.701 179.441C147.425 193.163 156.911 229.059 157.269 244.741C157.923 272.142 133.914 273.702 133.197 273.744C133.197 273.744 133.176 273.744 133.176 273.765C133.26 274.566 136.064 304.349 136.275 309.619C136.675 319.293 118.737 334.385 98.1432 326.945C77.6546 319.546 21.6482 304.813 15.9569 317.354C15.9569 317.375 15.9147 317.354 15.9358 317.354L39.4387 230.197C39.4387 230.176 39.4387 230.176 39.4176 230.176L20.1305 231.103L4.42676 222.019V221.998L8.41065 204.376C15.9569 174.319 36.1715 160.492 62.246 160.387L109.526 160.155Z" fill="white"/>
<path d="M47.7018 227.393C44.0973 226.719 45.088 222.546 32.4196 221.787C-4.13106 219.616 13.5962 201.046 34.5275 204.587C41.4624 205.767 44.2027 210.236 46.7954 211.395C68.6963 220.944 54.8686 228.721 47.7018 227.393Z" fill="white"/>
<path d="M49.4513 228.237C48.7978 228.237 48.1654 228.173 47.5752 228.068C46.2051 227.815 45.383 227.098 44.5188 226.361C42.8747 224.927 40.6192 222.967 32.3774 222.482C20.4468 221.766 12.8584 219.173 11.0246 215.147C10.2447 213.44 10.5608 211.543 11.9099 209.793C15.156 205.557 24.5572 202.205 34.6328 203.913C39.5231 204.735 42.432 207.159 44.5399 208.95C45.4884 209.751 46.3105 210.447 47.0693 210.763C58.5784 215.78 59.9907 220.143 59.1475 222.925C58.1357 226.213 53.4562 228.237 49.4513 228.237ZM29.1523 204.84C21.7326 204.84 15.4511 207.475 13.006 210.636C11.952 212.007 11.7202 213.313 12.2893 214.578C13.0481 216.222 16.5051 220.143 32.4406 221.091C41.1673 221.618 43.6335 223.747 45.4252 225.307C46.2262 226.002 46.8164 226.508 47.8071 226.698C51.4327 227.372 56.871 225.518 57.7985 222.503C58.747 219.405 54.6366 215.569 46.5002 212.028C45.5728 211.627 44.6664 210.868 43.6335 210.004C41.5256 208.234 38.8908 206.041 34.3799 205.283C32.6093 204.988 30.8597 204.84 29.1523 204.84Z" fill="black"/>
<path d="M157.269 244.741C156.89 229.059 147.405 193.163 140.702 179.441C134.905 167.595 122.785 160.113 109.526 160.155L62.2461 160.366C36.1716 160.492 15.9571 174.319 8.38976 204.398L4.53234 221.45C3.81566 224.295 -9.59047 278.803 18.4233 286.77C20.2993 287.297 22.1332 287.634 23.9038 287.803L15.936 317.354C15.936 317.375 15.9571 317.375 15.9571 317.354C21.6483 304.813 77.6337 319.546 98.1434 326.945C118.737 334.385 136.675 319.294 136.275 309.619C136.043 304.328 133.24 274.545 133.176 273.765C133.176 273.765 133.176 273.744 133.197 273.744C133.914 273.702 157.923 272.163 157.269 244.741Z" fill="#5479F7"/>
<path d="M109.316 329.6C105.5 329.6 101.643 328.947 97.912 327.598C76.9174 320.031 21.9017 305.93 16.611 317.649C16.4634 317.987 16.0629 318.155 15.7256 318.029C15.3884 317.902 15.1776 317.523 15.2619 317.186L23.0189 288.414C21.438 288.224 19.836 287.908 18.234 287.445C6.38772 284.072 0.0851569 271.889 0.000841616 252.202C-0.0623948 237.195 3.45777 222.883 3.85827 221.302L7.71569 204.25C11.4256 189.516 18.2129 178.197 27.9514 170.609C37.1417 163.422 48.6929 159.754 62.2466 159.691L109.526 159.48C109.59 159.48 109.632 159.48 109.695 159.48C123.08 159.48 135.474 167.195 141.334 179.146C147.89 192.531 157.607 228.7 157.987 244.741C158.598 270.393 138.13 273.934 133.957 274.376C134.378 278.824 136.802 304.707 136.992 309.598C137.182 314.066 133.851 319.378 128.287 323.467C122.743 327.514 116.103 329.6 109.316 329.6ZM30.8181 311.811C50.9694 311.811 84.5901 321.317 98.3757 326.291C108.304 329.875 119.18 328.399 127.443 322.329C132.544 318.577 135.748 313.602 135.58 309.661C135.369 304.37 132.502 274.144 132.481 273.828C132.46 273.639 132.523 273.449 132.65 273.301C132.776 273.154 132.966 273.069 133.156 273.048C134.146 272.985 157.207 271.404 156.574 244.762C156.195 228.869 146.562 193.015 140.07 179.736C134.442 168.249 122.532 160.85 109.674 160.85C109.632 160.85 109.569 160.85 109.526 160.85L62.2466 161.061C34.9706 161.188 16.084 176.638 9.06473 204.566L5.20731 221.597C4.6171 223.916 -8.81011 278.297 18.6134 286.096C20.4051 286.601 22.2179 286.939 23.9675 287.086C24.1782 287.107 24.368 287.213 24.4734 287.381C24.5998 287.55 24.6209 287.761 24.5787 287.972L17.3909 314.614C20.1522 312.633 24.916 311.811 30.8181 311.811Z" fill="black"/>
<path d="M93.6958 165.298C94.9184 164.265 94.265 162.263 92.663 162.073L90.1757 161.778C87.5197 161.462 85.2854 159.691 84.4211 157.246L80.3319 127.104L71.9636 130.098L60.8972 124.617L61.8879 156.824C61.8036 159.628 59.9697 162.115 57.2716 163.085L54.0255 164.244C52.3181 164.855 52.2338 167.153 53.899 167.89C60.5178 170.736 87.3089 170.757 93.6958 165.298Z" fill="white"/>
<path d="M70.2351 170.504C63.0893 170.504 56.4917 169.745 53.646 168.502C52.6132 168.059 52.0019 167.089 52.044 165.972C52.0862 164.855 52.7607 163.949 53.8357 163.548L57.0819 162.389C59.527 161.504 61.1712 159.312 61.2344 156.761L60.2437 124.596C60.2437 124.343 60.3491 124.111 60.5599 123.985C60.7707 123.858 61.0236 123.837 61.2555 123.943L72.0689 129.297L80.1632 126.409C80.3529 126.346 80.5848 126.367 80.7534 126.472C80.9431 126.578 81.0485 126.767 81.0907 126.978L85.1589 157.056C85.9599 159.248 87.9202 160.787 90.3021 161.082L92.7894 161.377C93.8223 161.504 94.6443 162.199 94.9394 163.19C95.2345 164.16 94.9394 165.171 94.1806 165.825C90.2599 169.155 79.7627 170.504 70.2351 170.504ZM61.656 125.734L62.6045 156.782C62.5202 159.944 60.5177 162.642 57.5245 163.717L54.2784 164.876C53.7514 165.066 53.4352 165.487 53.4142 166.014C53.3931 166.541 53.6882 166.984 54.1941 167.216C60.2859 169.872 87.056 170.04 93.2321 164.75C93.5693 164.455 93.6958 164.012 93.5693 163.569C93.4639 163.211 93.1477 162.811 92.5786 162.747L90.0913 162.452C87.1614 162.094 84.7373 160.176 83.7677 157.457C83.7466 157.415 83.7466 157.372 83.7255 157.309L79.7627 128.011L72.1954 130.709C72.0268 130.772 71.816 130.751 71.6473 130.688L61.656 125.734Z" fill="black"/>
<path d="M84.085 103.118C98.3554 108.366 95.8892 117.599 95.8892 117.599C95.7205 120.128 95.6152 124.786 96.0789 126.472C96.4794 127.864 98.7559 130.477 98.8613 131.257C98.9667 132.037 97.7441 133.618 95.2568 134.187C95.2568 134.187 94.3293 146.518 91.0832 148.541C87.8581 150.564 75.4006 146.686 75.4006 146.686L73.3138 145.843C66.5685 143.145 62.4371 137.517 60.4768 130.54C60.4768 130.54 51.3918 91.0825 84.085 103.118Z" fill="white"/>
<path d="M88.0472 149.805C83.2834 149.805 76.2009 147.656 75.2102 147.339C75.1892 147.339 75.1681 147.318 75.1681 147.318L73.0813 146.475C66.589 143.861 62.0149 138.423 59.8438 130.73C59.6541 129.887 55.3962 110.917 64.1228 103.244C68.4861 99.387 75.2946 99.1341 84.3584 102.464C98.3337 107.607 96.816 116.755 96.6263 117.704C96.4366 120.381 96.3734 124.765 96.795 126.282C96.9636 126.915 97.7224 128.011 98.3337 128.896C99.0925 130.013 99.5352 130.646 99.5984 131.151C99.7671 132.332 98.3337 134.018 95.9729 134.714C95.741 137.285 94.6871 147.129 91.5252 149.11C90.6821 149.616 89.4595 149.805 88.0472 149.805ZM75.6529 146.011C79.0466 147.065 88.3213 149.447 90.7453 147.93C92.8743 146.602 94.2444 138.74 94.5817 134.102C94.6028 133.807 94.8135 133.533 95.1297 133.47C97.3008 132.964 98.2072 131.657 98.1862 131.32C98.1229 131.088 97.5749 130.266 97.1533 129.655C96.4155 128.58 95.6567 127.484 95.4248 126.62C94.8557 124.617 95.0876 119.369 95.214 117.514C95.214 117.472 95.214 117.43 95.2351 117.388C95.3194 117.029 97.3008 108.682 83.8526 103.729C75.3156 100.588 68.9709 100.757 65.0081 104.235C56.9138 111.359 61.1296 130.14 61.1717 130.329C63.2164 137.559 67.5165 142.702 73.5872 145.126L75.6529 146.011Z" fill="black"/>
<path d="M79.383 96.436C83.135 97.3424 86.8028 99.682 88.742 99.8928C91.8617 100.23 94.1171 96.2253 98.0799 97.6796C101.558 98.9654 103.497 101.916 104.003 105.247C104.087 105.795 104.108 106.385 104.045 107.017C103.307 115.427 98.0378 117.219 95.9088 117.598C95.9088 117.598 83.5145 116.46 81.1115 117.029C78.856 117.577 75.357 121.097 74.303 126.093C74.1765 126.746 73.6074 127.21 72.954 127.252C72.1741 127.315 71.4785 126.788 71.352 126.008C70.9304 123.606 69.8132 118.8 67.3681 118.673C64.5224 118.505 60.8969 124.132 64.6278 127.653C65.7661 128.727 65.3867 130.709 63.9322 131.299C62.7097 131.784 61.192 131.826 59.5478 130.477C59.5478 130.477 52.2124 117.619 55.7115 106.764C59.1684 95.9512 74.3873 95.2135 79.383 96.436Z" fill="black"/>
<path d="M99.3033 131.025C99.1136 131.025 98.9239 130.941 98.7974 130.793C98.5445 130.519 98.5445 130.076 98.8396 129.802C99.7038 129.001 100.315 127.21 100.42 125.25C100.484 123.816 100.294 122.488 99.8724 121.477C99.5141 120.655 99.0504 120.149 98.6077 120.128H98.5866C97.8489 120.128 96.8792 121.392 96.4577 123.584C96.3944 123.964 96.015 124.217 95.6356 124.132C95.2562 124.069 95.0032 123.69 95.0875 123.31C95.6356 120.486 97.09 118.652 98.692 118.737C99.7038 118.779 100.589 119.58 101.179 120.929C101.685 122.13 101.917 123.69 101.833 125.313C101.706 127.674 100.926 129.781 99.8092 130.835C99.6406 130.962 99.4719 131.025 99.3033 131.025Z" fill="black"/>
<path d="M89.5644 131.847C89.5223 131.847 89.459 131.847 89.3958 131.847C88.1521 131.784 87.056 130.983 86.2972 129.613C85.6016 128.348 85.2643 126.704 85.3486 124.976C85.5384 121.245 87.6252 118.441 90.0703 118.568C91.314 118.631 92.4101 119.432 93.1689 120.802C93.8645 122.067 94.2018 123.711 94.1174 125.439C93.9488 129.065 91.9674 131.847 89.5644 131.847ZM89.9438 119.959C88.3629 119.959 86.9085 122.257 86.7609 125.06C86.6766 126.514 86.9506 127.905 87.5409 128.938C88.0678 129.887 88.7423 130.414 89.4801 130.456C91.1032 130.54 92.5998 128.201 92.7473 125.355C92.8316 123.901 92.5365 122.509 91.9674 121.477C91.4404 120.528 90.7659 120.001 90.0281 119.959C90.0071 119.959 89.9649 119.959 89.9438 119.959Z" fill="black"/>
<path d="M86.5079 123.1C86.4869 123.1 86.4658 123.1 86.4447 123.1L72.8278 121.877C72.4484 121.835 72.1533 121.498 72.1954 121.118C72.2376 120.739 72.5748 120.444 72.9543 120.486L86.5712 121.709C86.9506 121.751 87.2457 122.088 87.2035 122.467C87.1614 122.826 86.8663 123.1 86.5079 123.1Z" fill="black"/>
<path d="M64.8174 181.907C64.8174 181.907 70.1082 190.212 74.8931 188.758C77.4014 187.978 79.8466 179.778 80.8584 179.504C84.0623 178.577 90.1541 177.059 93.8851 170.378C97.3842 164.138 96.6253 160.808 95.7189 159.269C95.2974 158.553 95.3184 157.689 95.7611 157.014C96.4356 156.023 97.068 154.527 96.3935 152.988C96.1616 152.44 96.1827 151.829 96.4145 151.281C97.2998 149.215 98.944 144.452 95.74 143.524C94.8758 143.271 93.9483 143.587 93.4003 144.325C92.3885 145.716 90.2595 148.372 87.6457 150.037C83.9359 152.398 81.7226 154 79.8677 155.054C78.2657 155.96 77.4436 148.014 73.6073 145.021C70.2136 142.365 69.0542 143.714 68.717 144.958C68.3797 146.201 70.4876 146.707 71.6891 152.63C73.1014 159.565 71.6258 165.403 71.2043 168.523C70.6984 172.169 64.8174 181.907 64.8174 181.907Z" fill="white"/>
<path d="M73.7344 189.622C68.9706 189.622 64.4386 182.603 64.2279 182.287C64.0803 182.055 64.0803 181.781 64.2279 181.549C64.2911 181.443 70.0456 171.895 70.5304 168.417C70.5937 167.911 70.699 167.321 70.8044 166.668C71.3525 163.38 72.1746 158.426 71.0363 152.735C70.3407 149.278 69.3289 147.74 68.7176 146.812C68.2539 146.117 67.8745 145.527 68.0853 144.726C68.3382 143.777 68.9073 143.124 69.6662 142.871C70.8044 142.491 72.2589 142.997 74.0717 144.431C76.2849 146.159 77.5497 149.363 78.4561 151.724C78.8355 152.693 79.3414 154 79.6786 154.358C80.6693 153.789 81.8076 153.03 83.2199 152.103C84.3792 151.323 85.7072 150.459 87.3302 149.426C89.8386 147.824 91.9043 145.274 92.895 143.904C93.5906 142.934 94.8343 142.512 95.9936 142.85C96.9211 143.124 97.5956 143.693 97.9961 144.515C98.9236 146.475 98.0172 149.426 97.1108 151.555C96.9422 151.934 96.9422 152.356 97.0897 152.693C97.7221 154.147 97.4902 155.77 96.3941 157.372C96.099 157.815 96.0779 158.405 96.3731 158.89C97.4902 160.787 98.0804 164.391 94.5392 170.694C90.8082 177.354 84.7375 179.104 81.4914 180.052L81.1752 180.137C80.8801 180.432 80.2899 181.739 79.784 182.792C78.182 186.228 76.833 188.884 75.1467 189.411C74.6408 189.558 74.1771 189.622 73.7344 189.622ZM65.6401 181.886C67.2421 184.247 71.3736 189.095 74.6829 188.083C75.9266 187.704 77.4654 184.394 78.4771 182.202C79.5311 179.926 79.9948 178.998 80.6483 178.809L81.0487 178.682C84.337 177.734 89.8175 176.153 93.2745 169.998C96.6471 163.97 95.8672 160.871 95.1083 159.586C94.5392 158.637 94.5814 157.478 95.1926 156.571C95.7618 155.728 96.3309 154.485 95.7828 153.22C95.4667 152.524 95.4877 151.702 95.8039 150.965C96.9211 148.372 97.2584 146.222 96.7103 145.063C96.4995 144.599 96.1201 144.304 95.5721 144.135C94.9818 143.967 94.3495 144.178 94.0122 144.683C92.9583 146.138 90.7872 148.836 88.068 150.564C86.466 151.597 85.138 152.461 83.9787 153.241C82.5032 154.232 81.3228 155.012 80.2478 155.623C79.9316 155.792 79.5943 155.834 79.2781 155.728C78.4139 155.433 77.9291 154.147 77.1702 152.229C76.306 150.037 75.1256 147.023 73.2285 145.527C71.3736 144.072 70.4883 144.072 70.1088 144.199C69.7083 144.325 69.5186 144.768 69.4343 145.105C69.3922 145.274 69.4765 145.442 69.877 146.054C70.5515 147.065 71.6476 148.752 72.4064 152.461C73.6079 158.405 72.7648 163.506 72.1956 166.9C72.0902 167.532 71.9849 168.101 71.9216 168.607C71.4368 172.001 66.7362 180.031 65.6401 181.886Z" fill="black"/>
<path d="M66.2304 175.373C66.2304 175.373 44.5403 210.447 28.0989 222.356C27.0238 223.136 25.8223 223.663 24.5576 224.042V287.845C67.727 290.564 82.2925 185.596 82.2925 185.596L66.2304 175.373Z" fill="white"/>
<path d="M130.668 275.114C112.561 275.114 86.5291 260.591 68.9705 247.502C68.6543 247.27 68.591 246.827 68.8229 246.532C69.0548 246.216 69.4974 246.153 69.7925 246.385C88.2365 260.128 116.061 275.472 133.767 273.554C134.146 273.512 134.483 273.786 134.526 274.165C134.568 274.545 134.294 274.882 133.914 274.924C132.881 275.072 131.785 275.114 130.668 275.114Z" fill="black"/>
<path d="M106.259 230.998C96.225 230.998 77.7389 222.335 76.8746 221.934C76.5163 221.766 76.3687 221.365 76.5374 221.007C76.706 220.648 77.1065 220.501 77.4648 220.67C77.6967 220.775 100.356 231.398 108.725 229.333C122.763 225.897 119.559 208.423 119.412 207.686C119.348 207.306 119.58 206.948 119.96 206.863C120.339 206.779 120.697 207.032 120.782 207.411C120.824 207.601 124.407 226.93 109.062 230.682C108.24 230.913 107.291 230.998 106.259 230.998Z" fill="black"/>
<path d="M26.686 224.717C26.4752 224.717 26.2644 224.611 26.1168 224.443C25.885 224.126 25.9482 223.705 26.2644 223.473C43.549 210.552 64.9862 175.099 65.197 174.741C65.3867 174.403 65.8293 174.298 66.1455 174.509C66.4828 174.699 66.5882 175.141 66.3774 175.457C66.1666 175.816 44.5819 211.522 27.0865 224.59C26.9811 224.674 26.8335 224.717 26.686 224.717Z" fill="black"/>
<path d="M25.295 289.152C24.6837 289.152 24.0514 289.131 23.4401 289.068C23.0607 289.025 22.7656 288.688 22.8077 288.309C22.8499 287.929 23.1871 287.634 23.5666 287.676C43.2753 289.384 57.9883 261.603 66.8624 238.017C75.842 214.114 80.7956 189.58 81.5122 185.933L74.9146 181.739C74.5984 181.528 74.493 181.106 74.7038 180.769C74.9146 180.453 75.3361 180.347 75.6734 180.558L82.6716 185.006C82.9034 185.153 83.0299 185.448 82.9877 185.722C82.9456 185.996 77.9288 212.618 68.1904 238.502C62.457 253.741 56.2387 265.734 49.7043 274.165C41.9894 284.114 33.7898 289.152 25.295 289.152Z" fill="black"/>
</g>
<defs>
<clipPath id="clip0_821_699">
<rect width="409.786" height="360.928" fill="white" transform="translate(0 0.00665283)"/>
</clipPath>
</defs>
</svg>
