<svg id="ewV7e9slGqQ1" xmlns="http://www.w3.org/2000/svg" xmlns:xlink="http://www.w3.org/1999/xlink" viewBox="0 0 540 910" shape-rendering="geometricPrecision" text-rendering="geometricPrecision"><g transform="translate(39.9359 38.028566)"><path d="M189.801,534.126c.195-.584.584-.779,1.168-.584l29.59,7.594c.584.195.778.584.584,1.168-.195.585-.584.779-1.168.585l-29.59-7.595c-.389-.194-.584-.779-.584-1.168Z" fill="#333" fill-opacity="0.07"/><path d="M199.145,548.146c.195-.584.584-.779,1.168-.584l17.131,5.063c.584.194.779.584.584,1.168s-.584.779-1.168.584l-17.131-5.063c-.389-.194-.584-.778-.584-1.168Z" fill="#333" fill-opacity="0.07"/><path d="M195.252,560.998c.194-.584.778-.779,1.168-.584l16.936,5.647c.584.194.779.778.584,1.168-.195.584-.779.779-1.168.584l-16.936-5.647c-.39-.195-.779-.779-.584-1.168Z" fill="#333" fill-opacity="0.07"/><path d="M190.774,573.655c.195-.584.779-.779,1.168-.584l16.742,6.231c.389.195.779.779.584,1.168-.195.39-.779.779-1.168.584l-16.742-6.231c-.389-.195-.584-.584-.584-1.168Z" fill="#333" fill-opacity="0.07"/><path d="M185.908,586.312c.194-.584.778-.779,1.168-.584l16.546,6.815c.39.195.779.779.584,1.168-.194.39-.778.779-1.167.585l-16.547-6.816c-.584-.194-.779-.779-.584-1.168Z" fill="#333" fill-opacity="0.07"/><path d="M173.06,613.963v-.195c.194-.39.778-.584,1.168-.39l15.768,8.179c.389.195.584.779.389,1.168-.195.39-.779.584-1.168.39l-15.768-8.179c-.389,0-.584-.584-.389-.973Z" fill="#333" fill-opacity="0.07"/><path d="M166.636,625.841v-.195c.194-.39.778-.584,1.362-.389l15.574,8.762c.389.195.584.779.389,1.363-.195.39-.779.584-1.363.39l-15.573-8.763c-.389-.195-.584-.779-.389-1.168Z" fill="#333" fill-opacity="0.07"/><path d="M159.822,637.524c0,0,0-.195.195-.195.195-.389.779-.584,1.363-.389l15.184,9.347c.389.194.584.779.389,1.363-.195.389-.779.584-1.363.389l-15.184-9.347c-.584-.389-.778-.778-.584-1.168Z" fill="#333" fill-opacity="0.07"/><path d="M152.425,648.818c0-.195,0-.195.195-.195.194-.389.778-.584,1.362-.194l14.795,9.931c.389.194.584.778.195,1.363-.195.389-.779.584-1.363.194l-14.795-9.931c-.194-.389-.389-.778-.389-1.168Z" fill="#333" fill-opacity="0.07"/><path d="M134.515,673.548c0-.195,0-.195.195-.389.389-.39.973-.39,1.363-.195l14.016,11.099c.389.389.389.974.195,1.363-.39.39-.974.39-1.363.195l-14.016-11.099c-.39-.195-.39-.585-.39-.974Z" fill="#333" fill-opacity="0.07"/><path d="M125.95,684.063c0-.195.195-.195.195-.389.389-.39.973-.39,1.362-.195l13.627,11.683c.389.39.389.974.195,1.363-.39.39-.974.39-1.363.195l-13.627-11.683c-.389-.39-.584-.779-.389-.974Z" fill="#333" fill-opacity="0.07"/><path d="M116.995,693.994c0-.195.195-.195.195-.39.389-.389.973-.389,1.363,0l13.042,12.073c.39.39.39.974,0,1.363-.389.39-.973.39-1.362,0L117.19,694.968c-.195-.195-.389-.585-.195-.974Z" fill="#333" fill-opacity="0.07"/><path d="M107.651,703.73c0-.195.195-.389.195-.389.389-.39.973-.39,1.363,0l12.653,12.657c.389.389.389.973,0,1.363-.389.389-.973.389-1.363,0l-12.653-12.657c-.195-.195-.389-.585-.195-.974Z" fill="#333" fill-opacity="0.07"/><path d="M85.2645,724.565c0-.194.1947-.389.3894-.389.3893-.389.9733-.195,1.3627.195l11.4854,13.63c.3893.39.1946.974-.1947,1.363-.3894.39-.9733.195-1.3627-.194L85.4592,725.539c-.1947-.389-.3893-.779-.1947-.974Z" fill="#333" fill-opacity="0.07"/><path d="M74.7524,733.133c0-.194.1947-.389.3894-.584.3893-.389.9734-.195,1.3627.195l11.096,14.02c.3894.389.1947.974-.1947,1.363s-.9733.195-1.3626-.195l-11.0961-14.02c-.1946-.195-.1947-.584-.1947-.779Z" fill="#333" fill-opacity="0.07"/><path d="M64.0457,741.117c0-.195.1947-.39.3894-.584.3893-.39.9733-.195,1.3627.194l10.512,14.41c.3894.389.1947.974-.1947,1.363-.3893.39-.9733.195-1.3627-.195l-10.512-14.409c-.3893-.195-.3894-.39-.1947-.779Z" fill="#333" fill-opacity="0.07"/><path d="M52.9497,748.906c0-.195.1946-.39.3893-.584.3893-.195.9733-.195,1.3627.194l9.928,14.799c.1947.39.1947.974-.1946,1.363-.3893.195-.9734.195-1.3627-.194l-9.928-14.799c-.1947-.195-.3894-.39-.1947-.779Z" fill="#333" fill-opacity="0.07"/><path d="M167.22,597.022c.194-.585.778-.779,1.362-.585l27.643,13.047c.389.195.584.779.389,1.168-.194.39-.778.584-1.168.39l-27.642-13.047c-.584,0-.779-.389-.584-.973Z" fill="#333" fill-opacity="0.07"/><path d="M132.958,654.66c0-.195,0-.195.195-.39.389-.389.973-.584,1.362-.194l24.723,18.109c.39.389.584.973.195,1.363-.389.389-.973.584-1.363.195l-24.723-18.11c-.389-.194-.584-.584-.389-.973Z" fill="#333" fill-opacity="0.07"/><path d="M88.3792,704.704c0-.195.1947-.39.1947-.39.3893-.389.9733-.389,1.3627,0l20.8294,22.393c.389.39.389.974,0,1.363-.389.39-.973.39-1.363,0L88.5739,705.677c-.3894-.389-.3894-.584-.1947-.973Z" fill="#333" fill-opacity="0.07"/><path d="M35.0402,745.401c0-.195.1947-.39.3894-.584.3893-.195.9733-.195,1.3626.389L52.755,771.104c.1947.39.1946.974-.3894,1.363-.3893.195-.9733.195-1.3626-.389L34.8455,745.985c.1947-.195.0001-.389.1947-.584Z" fill="#333" fill-opacity="0.07"/><path d="M189.801,534.126c.195-.584.584-.779,1.168-.584l29.59,7.594c.584.195.778.584.584,1.168-.195.585-.584.779-1.168.585l-29.59-7.595c-.389-.194-.584-.779-.584-1.168Z" fill="#333" fill-opacity="0.07"/><path d="M199.145,548.146c.195-.584.584-.779,1.168-.584l17.131,5.063c.584.194.779.584.584,1.168s-.584.779-1.168.584l-17.131-5.063c-.389-.194-.584-.778-.584-1.168Z" fill="#333" fill-opacity="0.07"/><path d="M195.252,560.998c.194-.584.778-.779,1.168-.584l16.936,5.647c.584.194.779.778.584,1.168-.195.584-.779.779-1.168.584l-16.936-5.647c-.39-.195-.779-.779-.584-1.168Z" fill="#333" fill-opacity="0.07"/><path d="M190.774,573.655c.195-.584.779-.779,1.168-.584l16.742,6.231c.389.195.779.779.584,1.168-.195.39-.779.779-1.168.584l-16.742-6.231c-.389-.195-.584-.584-.584-1.168Z" fill="#333" fill-opacity="0.07"/><path d="M185.908,586.312c.194-.584.778-.779,1.168-.584l16.546,6.815c.39.195.779.779.584,1.168-.194.39-.778.779-1.167.585l-16.547-6.816c-.584-.194-.779-.779-.584-1.168Z" fill="#333" fill-opacity="0.07"/><path d="M173.06,613.963v-.195c.194-.39.778-.584,1.168-.39l15.768,8.179c.389.195.584.779.389,1.168-.195.39-.779.584-1.168.39l-15.768-8.179c-.389,0-.584-.584-.389-.973Z" fill="#333" fill-opacity="0.07"/><path d="M166.636,625.841v-.195c.194-.39.778-.584,1.362-.389l15.574,8.762c.389.195.584.779.389,1.363-.195.39-.779.584-1.363.39l-15.573-8.763c-.389-.195-.584-.779-.389-1.168Z" fill="#333" fill-opacity="0.07"/><path d="M159.822,637.524c0,0,0-.195.195-.195.195-.389.779-.584,1.363-.389l15.184,9.347c.389.194.584.779.389,1.363-.195.389-.779.584-1.363.389l-15.184-9.347c-.584-.389-.778-.778-.584-1.168Z" fill="#333" fill-opacity="0.07"/><path d="M152.425,648.818c0-.195,0-.195.195-.195.194-.389.778-.584,1.362-.194l14.795,9.931c.389.194.584.778.195,1.363-.195.389-.779.584-1.363.194l-14.795-9.931c-.194-.389-.389-.778-.389-1.168Z" fill="#333" fill-opacity="0.07"/><path d="M134.515,673.548c0-.195,0-.195.195-.389.389-.39.973-.39,1.363-.195l14.016,11.099c.389.389.389.974.195,1.363-.39.39-.974.39-1.363.195l-14.016-11.099c-.39-.195-.39-.585-.39-.974Z" fill="#333" fill-opacity="0.07"/><path d="M125.95,684.063c0-.195.195-.195.195-.389.389-.39.973-.39,1.362-.195l13.627,11.683c.389.39.389.974.195,1.363-.39.39-.974.39-1.363.195l-13.627-11.683c-.389-.39-.584-.779-.389-.974Z" fill="#333" fill-opacity="0.07"/><path d="M116.995,693.994c0-.195.195-.195.195-.39.389-.389.973-.389,1.363,0l13.042,12.073c.39.39.39.974,0,1.363-.389.39-.973.39-1.362,0L117.19,694.968c-.195-.195-.389-.585-.195-.974Z" fill="#333" fill-opacity="0.07"/><path d="M107.651,703.73c0-.195.195-.389.195-.389.389-.39.973-.39,1.363,0l12.653,12.657c.389.389.389.973,0,1.363-.389.389-.973.389-1.363,0l-12.653-12.657c-.195-.195-.389-.585-.195-.974Z" fill="#333" fill-opacity="0.07"/><path d="M85.2645,724.565c0-.194.1947-.389.3894-.389.3893-.389.9733-.195,1.3627.195l11.4854,13.63c.3893.39.1946.974-.1947,1.363-.3894.39-.9733.195-1.3627-.194L85.4592,725.539c-.1947-.389-.3893-.779-.1947-.974Z" fill="#333" fill-opacity="0.07"/><path d="M74.7524,733.133c0-.194.1947-.389.3894-.584.3893-.389.9734-.195,1.3627.195l11.096,14.02c.3894.389.1947.974-.1947,1.363s-.9733.195-1.3626-.195l-11.0961-14.02c-.1946-.195-.1947-.584-.1947-.779Z" fill="#333" fill-opacity="0.07"/><path d="M64.0457,741.117c0-.195.1947-.39.3894-.584.3893-.39.9733-.195,1.3627.194l10.512,14.41c.3894.389.1947.974-.1947,1.363-.3893.39-.9733.195-1.3627-.195l-10.512-14.409c-.3893-.195-.3894-.39-.1947-.779Z" fill="#333" fill-opacity="0.07"/><path d="M52.9497,748.906c0-.195.1946-.39.3893-.584.3893-.195.9733-.195,1.3627.194l9.928,14.799c.1947.39.1947.974-.1946,1.363-.3893.195-.9734.195-1.3627-.194l-9.928-14.799c-.1947-.195-.3894-.39-.1947-.779Z" fill="#333" fill-opacity="0.07"/><path d="M167.22,597.022c.194-.585.778-.779,1.362-.585l27.643,13.047c.389.195.584.779.389,1.168-.194.39-.778.584-1.168.39l-27.642-13.047c-.584,0-.779-.389-.584-.973Z" fill="#333" fill-opacity="0.07"/><path d="M132.958,654.66c0-.195,0-.195.195-.39.389-.389.973-.584,1.362-.194l24.723,18.109c.39.389.584.973.195,1.363-.389.389-.973.584-1.363.195l-24.723-18.11c-.389-.194-.584-.584-.389-.973Z" fill="#333" fill-opacity="0.07"/><path d="M88.3792,704.704c0-.195.1947-.39.1947-.39.3893-.389.9733-.389,1.3627,0l20.8294,22.393c.389.39.389.974,0,1.363-.389.39-.973.39-1.363,0L88.5739,705.677c-.3894-.389-.3894-.584-.1947-.973Z" fill="#333" fill-opacity="0.07"/><path d="M35.0402,745.401c0-.195.1947-.39.3894-.584.3893-.195.9733-.195,1.3626.389L52.755,771.104c.1947.39.1946.974-.3894,1.363-.3893.195-.9733.195-1.3626-.389L34.8455,745.985c.1947-.195.0001-.389.1947-.584Z" fill="#333" fill-opacity="0.07"/><path id="ewV7e9slGqQ45" d="M412.306,232.305c.39.974,0,2.142-.973,2.337-.973.389-1.947,0-2.336-.974s0-2.142.973-2.337c.195,0,.39-.194.584-.194.779,0,1.558.584,1.752,1.168Zm7.203,3.505c.389.974-.195,1.947-.973,2.337-.974.389-2.142-.195-2.336-.974-.39-.974.194-2.142.973-2.337.195,0,.389-.194.584-.194.779,0,1.363.389,1.752,1.168Zm-17.52.779c.389.973,0,1.947-.973,2.336-.974.39-1.947,0-2.336-.973-.39-.974,0-1.947.973-2.337.195,0,.389-.195.584-.195.779-.194,1.363.39,1.752,1.169Zm-10.317,4.089c.389.974-.195,2.142-.974,2.337-.973.389-2.141-.195-2.336-.974-.389-.974.195-2.142.974-2.337.194,0,.389-.194.584-.194.584,0,1.362.389,1.752,1.168Zm-10.512,4.089c.389.974-.195,1.947-.974,2.337-.973.389-2.141,0-2.336-.974-.389-.973.195-1.947.974-2.336.194,0,.389-.195.778-.195.584,0,1.363.389,1.558,1.168Zm42.243,1.558c.389.974-.195,1.947-1.169,2.337-.973.389-1.946-.195-2.336-1.169-.389-.973.195-1.947,1.168-2.336.195,0,.39-.195.584-.195.779.195,1.558.584,1.753,1.363Zm-52.561,2.531c.389.974-.195,2.142-.973,2.337-.974.39-2.141,0-2.336-.974-.389-.973.195-2.142.973-2.336.195,0,.389-.195.584-.195.779,0,1.363.389,1.752,1.168Zm-10.512,4.09c.389.973,0,1.947-.973,2.336-.974.39-2.142,0-2.336-.973-.39-.974.194-1.948.973-2.337.195,0,.389-.195.584-.195.779,0,1.557.39,1.752,1.169Zm-10.317,4.089c.389.973,0,2.142-.974,2.336-.973.39-1.946-.194-2.336-.973-.389-.974,0-2.142.974-2.337.194,0,.389-.195.584-.195.778,0,1.557.585,1.752,1.169Zm77.088,0c.389.973-.194,1.947-1.168,2.336-.973.39-1.947-.194-2.336-1.168-.389-.973.195-1.947,1.168-2.337.195,0,.389,0,.584,0c.779-.194,1.557.39,1.752,1.169Zm-87.406,4.284c.39.973-.194,1.947-.973,2.336-.973.39-1.947,0-2.336-.973-.389-.974,0-1.947.973-2.337.195,0,.39-.195.584-.195.779,0,1.363.39,1.752,1.169Zm-10.512,4.089c.39.973-.194,2.142-.973,2.337-.973.389-1.947,0-2.336-.974s0-2.142.973-2.337c.195,0,.39-.194.779-.194.584,0,1.363.389,1.557,1.168Zm101.422,2.142c.389.973-.195,1.947-1.168,2.337-.973.389-1.947-.195-2.336-1.169-.389-.973.195-1.947,1.168-2.336.195,0,.39-.001.584-.195.779,0,1.557.584,1.752,1.363Zm-111.739,1.947c.389.974,0,1.947-.973,2.337-.974.389-2.142,0-2.337-.974-.389-.974.195-1.947.974-2.337.195,0,.389-.194.584-.194.778,0,1.363.389,1.752,1.168Zm-10.318,4.089c.39.974,0,2.142-.973,2.337-.973.389-1.946,0-2.336-.974-.389-.973.195-2.142.973-2.336.195,0,.39-.195.584-.195.584,0,1.363.389,1.752,1.168Zm-10.512,4.089c.39.974,0,1.948-.973,2.337-.973.39-1.947,0-2.336-.973-.389-.974,0-1.948.973-2.337.195,0,.39-.195.584-.195.779,0,1.558.584,1.752,1.168Zm136.073.585c.39.973-.194,1.947-1.168,2.336-.973.39-1.947-.194-2.336-1.168-.195-.974.195-1.947,1.168-2.337.195,0,.39,0,.584,0c.779-.194,1.363.39,1.752,1.169Zm-146.39,3.505c.389.973,0,2.142-.973,2.336-.974.39-1.947-.194-2.336-.973-.39-.974,0-2.142.973-2.337.195,0,.389-.195.584-.195.779,0,1.363.584,1.752,1.169Zm-10.512,4.284c.389.973-.195,1.947-.973,2.336-.974.39-1.947,0-2.336-.973-.39-.974,0-1.948.973-2.337.195,0,.389-.195.584-.195.779,0,1.557.39,1.752,1.169Zm160.017,2.92c.195.974-.39,1.948-1.363,2.337-.973.195-1.947-.389-2.336-1.363-.195-.974.195-1.947,1.363-2.337.194,0,.389,0,.389,0c.973,0,1.752.584,1.947,1.363ZM266.89,290.138c.389.973,0,2.142-.974,2.336-.973.39-2.141,0-2.336-.973-.389-.974.195-2.142.973-2.337.195,0,.39-.195.779-.195.584,0,1.363.39,1.558,1.169Zm-10.318,4.089c.39.974,0,1.947-.973,2.337-.974.389-2.142,0-2.336-.974-.39-.974.194-1.947.973-2.337.195,0,.389-.194.584-.194.779,0,1.363.389,1.752,1.168Zm-10.512,4.089c.389.974,0,2.142-.973,2.337-.974.389-2.142-.195-2.336-.974-.39-.973,0-2.142.973-2.337.195,0,.389-.194.584-.194.779,0,1.557.389,1.752,1.168Zm194.084,1.558c.195.973-.389,1.947-1.363,2.337-.973.194-1.947-.39-2.336-1.363-.195-.974.39-1.948,1.363-2.337.195,0,.389,0,.389,0c.974,0,1.752.584,1.947,1.363Zm-204.401,2.531c.389.974,0,1.948-.974,2.337-.973.389-1.946,0-2.336-.974-.389-.973,0-1.947.974-2.336.194,0,.389-.195.584-.195.778,0,1.362.584,1.752,1.168Zm-10.318,4.284c.39.974-.194,2.142-.973,2.337-.973.389-1.947,0-2.336-.974-.389-.973,0-2.142.973-2.336.195,0,.39-.195.779-.195s1.168.389,1.557,1.168Zm-10.512,4.089c.39.974-.194,1.948-.973,2.337-.973.39-2.141,0-2.336-.974-.389-.973,0-1.947.973-2.336.195,0,.39-.195.779-.195.584,0,1.363.389,1.557,1.168Zm227.956,0c.195.974-.389,1.948-1.362,2.337-.974.195-1.947-.389-2.336-1.363-.195-.974.389-1.947,1.362-2.337.195,0,.39,0,.39,0c.973,0,1.752.39,1.946,1.363Zm-238.273,4.09c.389.973-.195,2.142-.973,2.336-.974.39-2.142,0-2.337-.973-.389-.974.195-2.142.974-2.337.194,0,.389-.195.584-.195.779,0,1.363.39,1.752,1.169Zm-10.512,4.089c.389.973,0,1.947-.974,2.336-.973.39-1.946,0-2.336-.973-.389-.974.195-1.947.974-2.337.194,0,.389-.195.584-.195.778,0,1.557.39,1.752,1.169Zm-10.318,4.089c.39.974,0,2.142-.973,2.337-.973.389-1.947-.195-2.336-.974-.389-.974,0-2.142.973-2.337.195,0,.39-.194.584-.194.779,0,1.558.389,1.752,1.168ZM445.4,321.683c.195.974-.389,1.947-1.363,2.142-.973.195-1.946-.39-2.141-1.363-.195-.974.389-1.947,1.362-2.142.195,0,.195,0,.39,0c.779-.195,1.557.584,1.752,1.363Zm-271.951,5.452c.389.974,0,1.947-.973,2.337-.974.389-1.947,0-2.336-.974-.39-.973,0-1.947.973-2.336.195,0,.389-.195.584-.195.779,0,1.363.584,1.752,1.168Zm-10.512,4.284c.389.974-.195,2.142-.973,2.337-.974.389-2.142,0-2.336-.974-.39-.974.194-2.142.973-2.337.195,0,.389-.194.779-.194.584,0,1.362.389,1.557,1.168Zm284.799,1.168c.195.974-.389,1.948-1.363,2.142-.973.195-1.946-.389-2.141-1.363-.195-.973.389-1.947,1.363-2.142.194,0,.194,0,.389,0c.779,0,1.557.585,1.752,1.363Zm2.141,11.1c.195.973-.389,1.947-1.557,2.142-.973.194-1.947-.39-2.141-1.558-.195-.974.584-1.947,1.557-2.142.195,0,.195,0,.389,0c.779,0,1.558.584,1.752,1.558Zm1.947,11.099c.195.973-.584,1.947-1.557,2.142-.974.195-1.947-.584-2.142-1.558-.194-.974.584-1.947,1.558-2.142.194,0,.194,0,.389,0c.779,0,1.557.584,1.752,1.558Zm1.752,10.904c.195.974-.584,1.948-1.557,2.142-.974.195-1.947-.584-2.142-1.557-.194-.974.584-1.948,1.558-2.142h.194c.974,0,1.752.778,1.947,1.557Zm1.557,11.294c.195.974-.584,1.948-1.557,2.142-.973.195-1.947-.584-2.141-1.557-.195-.974.584-1.948,1.557-2.142h.195c.973-.195,1.752.584,1.946,1.557Zm1.363,11.1c.195.973-.584,1.947-1.557,2.142-.974.194-1.947-.585-1.947-1.558-.195-.974.584-1.947,1.557-2.142h.195c.779-.195,1.557.584,1.752,1.558Zm.973,11.099c0,.973-.584,1.947-1.752,1.947-.973,0-1.946-.584-1.946-1.752c0-.974.584-1.948,1.752-1.948h.194c.974,0,1.752.779,1.752,1.753Zm.974,11.294c0,.973-.779,1.947-1.752,1.947-.974,0-1.947-.779-1.947-1.753c0-.973.779-1.947,1.752-1.947c0,0,0,0,.195,0c.778,0,1.557.584,1.752,1.753Zm.584,11.099c0,.974-.779,1.947-1.752,1.947-.974,0-1.947-.779-1.947-1.752c0-.974.779-1.948,1.752-1.948c1.168,0,1.947.779,1.947,1.753Zm.584,11.294c0,.974-.779,1.947-1.752,1.947-.974,0-1.947-.779-1.947-1.752c0-.974.779-1.948,1.752-1.948.973-.194,1.947.585,1.947,1.753Zm.194,11.099c0,.974-.778,1.947-1.752,1.947-.973,0-1.946-.779-1.946-1.752c0-.974.778-1.947,1.752-1.947c1.168,0,1.946.779,1.946,1.752Zm-1.752,9.347c.974,0,1.947.779,1.947,1.947c0,.974-.779,1.947-1.947,1.947-.973,0-1.946-.779-1.946-1.947s.973-1.947,1.946-1.947Zm-.194,11.294c.973,0,1.946.973,1.752,1.947c0,.974-.779,1.947-1.947,1.753-.973,0-1.752-.779-1.752-1.948.195-.973.973-1.752,1.947-1.752Zm-.195,11.099c.973,0,1.752.974,1.752,1.947c0,.974-.973,1.753-1.947,1.753-.973,0-1.752-.974-1.752-1.947c0-.974.779-1.753,1.947-1.753Zm-.584,11.099c.973,0,1.752.974,1.752,1.947c0,.974-.973,1.753-1.947,1.753-.973,0-1.752-.974-1.752-1.947c0-.974.974-1.753,1.947-1.753Zm-.779,11.294c.974,0,1.752.974,1.752,1.947c0,.974-.973,1.753-1.946,1.753-.974,0-1.752-.974-1.752-1.947c0-1.169.973-1.753,1.946-1.753Zm-.973,11.099c.973,0,1.752.974,1.752,1.948-.195.973-.973,1.752-1.947,1.752-.973-.195-1.752-.973-1.752-1.947.195-1.168.974-1.753,1.947-1.753Zm-.973,11.1c.973.194,1.752.973,1.557,2.142-.195.973-.973,1.752-2.141,1.557-.974-.194-1.752-.973-1.558-2.142.195-.973.974-1.557,1.947-1.557c0,0,0,0,.195,0ZM452.992,531.4c.973.195,1.752,1.168,1.557,2.142-.194.973-1.168,1.752-2.141,1.558-.973-.195-1.752-.974-1.557-2.142.194-.974.973-1.558,1.752-1.558.194,0,.194,0,.389,0Zm-1.557,11.099c.973.195,1.752,1.169,1.557,2.142-.195.974-1.168,1.753-2.141,1.558-.974-.195-1.752-1.168-1.558-2.142.195-.974.974-1.558,1.752-1.558c0,0,.195,0,.39,0Zm-1.947,10.905c.973.194,1.752,1.168,1.557,2.142-.194.973-1.168,1.752-2.141,1.557-.973-.194-1.752-1.168-1.557-2.142.194-.973.973-1.557,1.752-1.557.194,0,.389,0,.389,0Zm-1.947,11.099c.974.195,1.752,1.168,1.558,2.142-.195.973-1.168,1.752-2.142,1.558-.973-.195-1.752-1.169-1.557-2.142.195-.974.973-1.558,1.752-1.558.194,0,.389,0,.389,0ZM445.4,575.407c.973.195,1.557,1.169,1.363,2.142-.195.974-1.168,1.558-2.142,1.363-.973-.194-1.752-1.168-1.363-2.141.195-.779.974-1.364,1.753-1.558.194.194.194.194.389.194Zm-2.336,10.905c.973.195,1.557,1.168,1.363,2.337-.195.973-1.168,1.557-2.336,1.363-.974-.195-1.558-1.169-1.363-2.337.194-.779.973-1.363,1.752-1.363.195,0,.389,0,.584,0Zm-2.725,10.904c.973.195,1.557,1.169,1.362,2.337-.194.974-1.168,1.558-2.336,1.363-.973-.195-1.557-1.168-1.362-2.337.194-.778.973-1.363,1.752-1.363.389,0,.389,0,.584,0Zm-290.834,5.453c.973.389,1.168,1.557.779,2.531-.39.974-1.558,1.363-2.531.779-.973-.39-1.168-1.558-.779-2.531.39-.585.974-.974,1.558-.974.389,0,.778.195.973.195Zm9.928,5.257c.973.39,1.168,1.558.779,2.532-.39.973-1.558,1.168-2.531.778-.973-.389-1.168-1.557-.779-2.531.39-.584.974-.974,1.558-.974.389,0,.584,0,.973.195Zm278.18.195c.974.195,1.558,1.363,1.363,2.337-.195.973-1.363,1.557-2.336,1.363-.974-.195-1.558-1.363-1.363-2.337.195-.779.974-1.363,1.752-1.363.195-.195.39-.195.584,0Zm-268.252,5.063c.973.389,1.168,1.558.779,2.531-.39.974-1.558,1.168-2.531.779s-1.363-1.558-.779-2.531c.39-.585.974-.974,1.558-.974.389,0,.584,0,.973.195Zm9.928,5.063c.973.389,1.168,1.557.779,2.531-.39.974-1.558,1.168-2.531.779-.973-.39-1.168-1.558-.779-2.532.39-.584.974-.973,1.558-.973.389,0,.584.195.973.195Zm255.404.584c.974.194,1.557,1.363,1.168,2.336-.195.974-1.363,1.558-2.336,1.169-.973-.195-1.557-1.363-1.168-2.337.195-.779.974-1.363,1.752-1.363.195.195.39.195.584.195Zm-245.671,4.673c.974.39,1.168,1.558.779,2.531-.389.974-1.557,1.169-2.531.779-.973-.389-1.168-1.557-.778-2.531.389-.584.973-.974,1.557-.974.389,0,.779,0,.973.195Zm9.929,5.258c.973.389,1.362,1.557.778,2.531-.389.974-1.557,1.168-2.531.779-.973-.39-1.168-1.558-.778-2.532.389-.584.973-.973,1.557-.973.39,0,.779,0,.974.195Zm232.433.778c.973.39,1.557,1.364,1.168,2.337-.39.974-1.363,1.558-2.336,1.169-.974-.39-1.558-1.364-1.168-2.337.194-.779.973-1.363,1.752-1.363.195.194.389.194.584.194Zm-222.505,4.284c.973.585,1.168,1.558.778,2.532-.389.973-1.557,1.168-2.53.779-.974-.39-1.168-1.558-.779-2.532.389-.584.973-.973,1.557-.973.39,0,.779.194.974.194Zm9.928,5.258c.973.389,1.168,1.558.778,2.531-.389.974-1.557,1.363-2.53.779-.974-.389-1.168-1.558-.779-2.531.389-.584.973-.974,1.557-.974.39,0,.779,0,.974.195Zm209.267,1.168c.974.39,1.558,1.363,1.169,2.337-.39.974-1.363,1.558-2.337,1.168-.973-.389-1.557-1.363-1.168-2.336.195-.779.974-1.363,1.753-1.363.194,0,.389,0,.583.194Zm-199.339,4.089c.973.39,1.362,1.558.778,2.532-.389.973-1.557,1.168-2.53.779-.974-.39-1.168-1.558-.779-2.532.389-.584.973-.973,1.557-.973.39,0,.584,0,.974.194Zm9.928,5.258c.973.389,1.168,1.558.778,2.531-.389.974-1.557,1.363-2.53.779-.974-.389-1.168-1.558-.779-2.531.389-.584.973-.974,1.557-.974.39-.195.584,0,.974.195Zm185.713,1.168c.973.39,1.557,1.363,1.168,2.337-.39.974-1.363,1.558-2.336,1.168-.974-.389-1.558-1.363-1.168-2.336.194-.779.973-1.169,1.752-1.169.194-.194.389,0,.584,0Zm-175.98,3.895c.973.389,1.168,1.558.779,2.531-.39.974-1.558,1.169-2.531.779-.973-.389-1.168-1.558-.779-2.531.39-.585.974-.974,1.558-.974s.778.195.973.195Zm9.928,5.257c.973.39,1.168,1.558.779,2.532-.389.973-1.557,1.168-2.531.779-.973-.39-1.168-1.558-.779-2.532.39-.584.974-.973,1.558-.973.389,0,.778,0,.973.194Zm162.353,1.363c.973.39,1.363,1.363,1.168,2.337-.389.974-1.363,1.363-2.336,1.168-.973-.389-1.363-1.363-1.168-2.336.195-.779.973-1.169,1.752-1.169c0-.194.195,0,.584,0Zm-152.425,3.895c.974.389,1.168,1.558.779,2.531-.389.974-1.557,1.169-2.531.779-.973-.389-1.168-1.558-.778-2.531.389-.584.973-.974,1.557-.974.389,0,.779,0,.973.195Zm9.928,5.063c.974.389,1.168,1.557.779,2.531s-1.557,1.168-2.531.779c-.973-.39-1.168-1.558-.778-2.531.389-.585.973-.974,1.557-.974.389,0,.779.195.973.195Zm138.409,1.557c.973.39,1.363,1.558.973,2.337-.389.974-1.557,1.363-2.336.974-.973-.39-1.362-1.558-.973-2.337s.973-1.168,1.752-1.168c.195,0,.389,0,.584.194Zm-128.481,3.7c.974.39,1.168,1.558.779,2.532-.389.973-1.557,1.168-2.531.778-.973-.389-1.168-1.557-.778-2.531.389-.584.973-.974,1.557-.974.389,0,.584,0,.973.195Zm9.928,5.258c.974.389,1.168,1.557.779,2.531s-1.557,1.168-2.531.779c-.973-.39-1.168-1.558-.778-2.531.389-.585.973-.974,1.557-.974.389,0,.584,0,.973.195Zm114.465,1.363c.973.389,1.363,1.558.973,2.531-.389.974-1.557,1.363-2.336.974-.973-.39-1.362-1.558-.973-2.337s.973-1.168,1.752-1.168c0-.195.195-.195.584,0Zm-104.537,3.699c.974.39,1.168,1.558.779,2.532s-1.557,1.363-2.531.779c-.973-.584-1.362-1.558-.778-2.532.389-.584.973-.973,1.557-.973.389,0,.584.194.973.194Zm9.734,5.258c.973.39,1.168,1.558.778,2.531-.389.974-1.557,1.169-2.53.779-.973-.389-1.168-1.557-.779-2.531.389-.584.974-.974,1.558-.974.389,0,.778,0,.973.195Zm90.326,1.363c.973.39,1.362,1.558.973,2.531-.389.974-1.557,1.364-2.531.974-.973-.389-1.362-1.558-.973-2.531.389-.779.973-1.169,1.752-1.169.195,0,.584,0,.779.195Zm-80.398,3.895c.973.389,1.363,1.557.779,2.531-.39.974-1.558,1.363-2.531.779-.973-.39-1.168-1.558-.779-2.532.39-.584.974-.973,1.558-.973.389,0,.778,0,.973.195Zm9.928,5.257c.973.39,1.168,1.558.779,2.532-.39.973-1.558,1.168-2.531.778-.973-.389-1.363-1.557-.779-2.531.39-.584.974-.974,1.558-.974.389-.194.778,0,.973.195Zm65.992.974c.974.389,1.363,1.558.974,2.531-.39.974-1.558,1.363-2.531.974-.973-.39-1.363-1.558-.973-2.532.389-.779.973-1.168,1.752-1.168.194,0,.389,0,.778.195Zm-56.064,4.089c.973.389,1.168,1.558.779,2.531-.39.974-1.558,1.169-2.531.779-.973-.389-1.168-1.558-.779-2.531.39-.584.974-.974,1.558-.974.389,0,.584,0,.973.195Zm9.928,5.257c.973.39,1.363,1.558.779,2.532-.39.973-1.558,1.168-2.531.779-.973-.39-1.168-1.558-.779-2.532.39-.584.974-.973,1.558-.973.389,0,.584,0,.973.194Zm41.27.779c.973.39,1.362,1.558.778,2.532-.389.973-1.557,1.363-2.53.779-.974-.39-1.363-1.558-.779-2.532.389-.584.973-.973,1.752-.973.195,0,.584,0,.779.194Zm-31.342,4.479c.973.389,1.168,1.558.779,2.531-.39.974-1.558,1.169-2.531.779-.973-.389-1.168-1.558-.779-2.531.39-.584.974-.974,1.558-.974.195,0,.584,0,.973.195Zm9.734,5.063c.973.389,1.168,1.558.778,2.531-.389.974-1.557,1.168-2.53.779-.974-.389-1.169-1.558-.779-2.531.389-.585.973-.974,1.557-.974.39,0,.779.195.974.195Zm16.741.389c.973.39,1.363,1.558.779,2.532-.39.973-1.558,1.363-2.531.778-.973-.389-1.363-1.557-.779-2.531.39-.584.974-.974,1.558-.974.389,0,.584.195.973.195ZM387,727.486c.973.39,1.168,1.558.778,2.532-.389.973-1.557,1.168-2.53.779-.974-.39-1.168-1.558-.779-2.532.389-.584.973-.973,1.557-.973.39,0,.779,0,.974.194Z" transform="translate(-.002704 0.004434)" fill="#333" fill-opacity="0.07"/><path id="ewV7e9slGqQ46" d="M412.306,232.305c.39.974,0,2.142-.973,2.337-.973.389-1.947,0-2.336-.974s0-2.142.973-2.337c.195,0,.39-.194.584-.194.779,0,1.558.584,1.752,1.168Zm7.203,3.505c.389.974-.195,1.947-.973,2.337-.974.389-2.142-.195-2.336-.974-.39-.974.194-2.142.973-2.337.195,0,.389-.194.584-.194.779,0,1.363.389,1.752,1.168Zm-17.52.779c.389.973,0,1.947-.973,2.336-.974.39-1.947,0-2.336-.973-.39-.974,0-1.947.973-2.337.195,0,.389-.195.584-.195.779-.194,1.363.39,1.752,1.169Zm-10.317,4.089c.389.974-.195,2.142-.974,2.337-.973.389-2.141-.195-2.336-.974-.389-.974.195-2.142.974-2.337.194,0,.389-.194.584-.194.584,0,1.362.389,1.752,1.168Zm-10.512,4.089c.389.974-.195,1.947-.974,2.337-.973.389-2.141,0-2.336-.974-.389-.973.195-1.947.974-2.336.194,0,.389-.195.778-.195.584,0,1.363.389,1.558,1.168Zm42.243,1.558c.389.974-.195,1.947-1.169,2.337-.973.389-1.946-.195-2.336-1.169-.389-.973.195-1.947,1.168-2.336.195,0,.39-.195.584-.195.779.195,1.558.584,1.753,1.363Zm-52.561,2.531c.389.974-.195,2.142-.973,2.337-.974.39-2.141,0-2.336-.974-.389-.973.195-2.142.973-2.336.195,0,.389-.195.584-.195.779,0,1.363.389,1.752,1.168Zm-10.512,4.09c.389.973,0,1.947-.973,2.336-.974.39-2.142,0-2.336-.973-.39-.974.194-1.948.973-2.337.195,0,.389-.195.584-.195.779,0,1.557.39,1.752,1.169Zm-10.317,4.089c.389.973,0,2.142-.974,2.336-.973.39-1.946-.194-2.336-.973-.389-.974,0-2.142.974-2.337.194,0,.389-.195.584-.195.778,0,1.557.585,1.752,1.169Zm77.088,0c.389.973-.194,1.947-1.168,2.336-.973.39-1.947-.194-2.336-1.168-.389-.973.195-1.947,1.168-2.337.195,0,.389,0,.584,0c.779-.194,1.557.39,1.752,1.169Zm-87.406,4.284c.39.973-.194,1.947-.973,2.336-.973.39-1.947,0-2.336-.973-.389-.974,0-1.947.973-2.337.195,0,.39-.195.584-.195.779,0,1.363.39,1.752,1.169Zm-10.512,4.089c.39.973-.194,2.142-.973,2.337-.973.389-1.947,0-2.336-.974s0-2.142.973-2.337c.195,0,.39-.194.779-.194.584,0,1.363.389,1.557,1.168Zm101.422,2.142c.389.973-.195,1.947-1.168,2.337-.973.389-1.947-.195-2.336-1.169-.389-.973.195-1.947,1.168-2.336.195,0,.39-.001.584-.195.779,0,1.557.584,1.752,1.363Zm-111.739,1.947c.389.974,0,1.947-.973,2.337-.974.389-2.142,0-2.337-.974-.389-.974.195-1.947.974-2.337.195,0,.389-.194.584-.194.778,0,1.363.389,1.752,1.168Zm-10.318,4.089c.39.974,0,2.142-.973,2.337-.973.389-1.946,0-2.336-.974-.389-.973.195-2.142.973-2.336.195,0,.39-.195.584-.195.584,0,1.363.389,1.752,1.168Zm-10.512,4.089c.39.974,0,1.948-.973,2.337-.973.39-1.947,0-2.336-.973-.389-.974,0-1.948.973-2.337.195,0,.39-.195.584-.195.779,0,1.558.584,1.752,1.168Zm136.073.585c.39.973-.194,1.947-1.168,2.336-.973.39-1.947-.194-2.336-1.168-.195-.974.195-1.947,1.168-2.337.195,0,.39,0,.584,0c.779-.194,1.363.39,1.752,1.169Zm-146.39,3.505c.389.973,0,2.142-.973,2.336-.974.39-1.947-.194-2.336-.973-.39-.974,0-2.142.973-2.337.195,0,.389-.195.584-.195.779,0,1.363.584,1.752,1.169Zm-10.512,4.284c.389.973-.195,1.947-.973,2.336-.974.39-1.947,0-2.336-.973-.39-.974,0-1.948.973-2.337.195,0,.389-.195.584-.195.779,0,1.557.39,1.752,1.169Zm160.017,2.92c.195.974-.39,1.948-1.363,2.337-.973.195-1.947-.389-2.336-1.363-.195-.974.195-1.947,1.363-2.337.194,0,.389,0,.389,0c.973,0,1.752.584,1.947,1.363ZM266.89,290.138c.389.973,0,2.142-.974,2.336-.973.39-2.141,0-2.336-.973-.389-.974.195-2.142.973-2.337.195,0,.39-.195.779-.195.584,0,1.363.39,1.558,1.169Zm-10.318,4.089c.39.974,0,1.947-.973,2.337-.974.389-2.142,0-2.336-.974-.39-.974.194-1.947.973-2.337.195,0,.389-.194.584-.194.779,0,1.363.389,1.752,1.168Zm-10.512,4.089c.389.974,0,2.142-.973,2.337-.974.389-2.142-.195-2.336-.974-.39-.973,0-2.142.973-2.337.195,0,.389-.194.584-.194.779,0,1.557.389,1.752,1.168Zm194.084,1.558c.195.973-.389,1.947-1.363,2.337-.973.194-1.947-.39-2.336-1.363-.195-.974.39-1.948,1.363-2.337.195,0,.389,0,.389,0c.974,0,1.752.584,1.947,1.363Zm-204.401,2.531c.389.974,0,1.948-.974,2.337-.973.389-1.946,0-2.336-.974-.389-.973,0-1.947.974-2.336.194,0,.389-.195.584-.195.778,0,1.362.584,1.752,1.168Zm-10.318,4.284c.39.974-.194,2.142-.973,2.337-.973.389-1.947,0-2.336-.974-.389-.973,0-2.142.973-2.336.195,0,.39-.195.779-.195s1.168.389,1.557,1.168Zm-10.512,4.089c.39.974-.194,1.948-.973,2.337-.973.39-2.141,0-2.336-.974-.389-.973,0-1.947.973-2.336.195,0,.39-.195.779-.195.584,0,1.363.389,1.557,1.168Zm227.956,0c.195.974-.389,1.948-1.362,2.337-.974.195-1.947-.389-2.336-1.363-.195-.974.389-1.947,1.362-2.337.195,0,.39,0,.39,0c.973,0,1.752.39,1.946,1.363Zm-238.273,4.09c.389.973-.195,2.142-.973,2.336-.974.39-2.142,0-2.337-.973-.389-.974.195-2.142.974-2.337.194,0,.389-.195.584-.195.779,0,1.363.39,1.752,1.169Zm-10.512,4.089c.389.973,0,1.947-.974,2.336-.973.39-1.946,0-2.336-.973-.389-.974.195-1.947.974-2.337.194,0,.389-.195.584-.195.778,0,1.557.39,1.752,1.169Zm-10.318,4.089c.39.974,0,2.142-.973,2.337-.973.389-1.947-.195-2.336-.974-.389-.974,0-2.142.973-2.337.195,0,.39-.194.584-.194.779,0,1.558.389,1.752,1.168ZM445.4,321.683c.195.974-.389,1.947-1.363,2.142-.973.195-1.946-.39-2.141-1.363-.195-.974.389-1.947,1.362-2.142.195,0,.195,0,.39,0c.779-.195,1.557.584,1.752,1.363Zm-271.951,5.452c.389.974,0,1.947-.973,2.337-.974.389-1.947,0-2.336-.974-.39-.973,0-1.947.973-2.336.195,0,.389-.195.584-.195.779,0,1.363.584,1.752,1.168Zm-10.512,4.284c.389.974-.195,2.142-.973,2.337-.974.389-2.142,0-2.336-.974-.39-.974.194-2.142.973-2.337.195,0,.389-.194.779-.194.584,0,1.362.389,1.557,1.168Zm284.799,1.168c.195.974-.389,1.948-1.363,2.142-.973.195-1.946-.389-2.141-1.363-.195-.973.389-1.947,1.363-2.142.194,0,.194,0,.389,0c.779,0,1.557.585,1.752,1.363Zm2.141,11.1c.195.973-.389,1.947-1.557,2.142-.973.194-1.947-.39-2.141-1.558-.195-.974.584-1.947,1.557-2.142.195,0,.195,0,.389,0c.779,0,1.558.584,1.752,1.558Zm1.947,11.099c.195.973-.584,1.947-1.557,2.142-.974.195-1.947-.584-2.142-1.558-.194-.974.584-1.947,1.558-2.142.194,0,.194,0,.389,0c.779,0,1.557.584,1.752,1.558Zm1.752,10.904c.195.974-.584,1.948-1.557,2.142-.974.195-1.947-.584-2.142-1.557-.194-.974.584-1.948,1.558-2.142h.194c.974,0,1.752.778,1.947,1.557Zm1.557,11.294c.195.974-.584,1.948-1.557,2.142-.973.195-1.947-.584-2.141-1.557-.195-.974.584-1.948,1.557-2.142h.195c.973-.195,1.752.584,1.946,1.557Zm1.363,11.1c.195.973-.584,1.947-1.557,2.142-.974.194-1.947-.585-1.947-1.558-.195-.974.584-1.947,1.557-2.142h.195c.779-.195,1.557.584,1.752,1.558Zm.973,11.099c0,.973-.584,1.947-1.752,1.947-.973,0-1.946-.584-1.946-1.752c0-.974.584-1.948,1.752-1.948h.194c.974,0,1.752.779,1.752,1.753Zm.974,11.294c0,.973-.779,1.947-1.752,1.947-.974,0-1.947-.779-1.947-1.753c0-.973.779-1.947,1.752-1.947c0,0,0,0,.195,0c.778,0,1.557.584,1.752,1.753Zm.584,11.099c0,.974-.779,1.947-1.752,1.947-.974,0-1.947-.779-1.947-1.752c0-.974.779-1.948,1.752-1.948c1.168,0,1.947.779,1.947,1.753Zm.584,11.294c0,.974-.779,1.947-1.752,1.947-.974,0-1.947-.779-1.947-1.752c0-.974.779-1.948,1.752-1.948.973-.194,1.947.585,1.947,1.753Zm.194,11.099c0,.974-.778,1.947-1.752,1.947-.973,0-1.946-.779-1.946-1.752c0-.974.778-1.947,1.752-1.947c1.168,0,1.946.779,1.946,1.752Zm-1.752,9.347c.974,0,1.947.779,1.947,1.947c0,.974-.779,1.947-1.947,1.947-.973,0-1.946-.779-1.946-1.947s.973-1.947,1.946-1.947Zm-.194,11.294c.973,0,1.946.973,1.752,1.947c0,.974-.779,1.947-1.947,1.753-.973,0-1.752-.779-1.752-1.948.195-.973.973-1.752,1.947-1.752Zm-.195,11.099c.973,0,1.752.974,1.752,1.947c0,.974-.973,1.753-1.947,1.753-.973,0-1.752-.974-1.752-1.947c0-.974.779-1.753,1.947-1.753Zm-.584,11.099c.973,0,1.752.974,1.752,1.947c0,.974-.973,1.753-1.947,1.753-.973,0-1.752-.974-1.752-1.947c0-.974.974-1.753,1.947-1.753Zm-.779,11.294c.974,0,1.752.974,1.752,1.947c0,.974-.973,1.753-1.946,1.753-.974,0-1.752-.974-1.752-1.947c0-1.169.973-1.753,1.946-1.753Zm-.973,11.099c.973,0,1.752.974,1.752,1.948-.195.973-.973,1.752-1.947,1.752-.973-.195-1.752-.973-1.752-1.947.195-1.168.974-1.753,1.947-1.753Zm-.973,11.1c.973.194,1.752.973,1.557,2.142-.195.973-.973,1.752-2.141,1.557-.974-.194-1.752-.973-1.558-2.142.195-.973.974-1.557,1.947-1.557c0,0,0,0,.195,0ZM452.992,531.4c.973.195,1.752,1.168,1.557,2.142-.194.973-1.168,1.752-2.141,1.558-.973-.195-1.752-.974-1.557-2.142.194-.974.973-1.558,1.752-1.558.194,0,.194,0,.389,0Zm-1.557,11.099c.973.195,1.752,1.169,1.557,2.142-.195.974-1.168,1.753-2.141,1.558-.974-.195-1.752-1.168-1.558-2.142.195-.974.974-1.558,1.752-1.558c0,0,.195,0,.39,0Zm-1.947,10.905c.973.194,1.752,1.168,1.557,2.142-.194.973-1.168,1.752-2.141,1.557-.973-.194-1.752-1.168-1.557-2.142.194-.973.973-1.557,1.752-1.557.194,0,.389,0,.389,0Zm-1.947,11.099c.974.195,1.752,1.168,1.558,2.142-.195.973-1.168,1.752-2.142,1.558-.973-.195-1.752-1.169-1.557-2.142.195-.974.973-1.558,1.752-1.558.194,0,.389,0,.389,0ZM445.4,575.407c.973.195,1.557,1.169,1.363,2.142-.195.974-1.168,1.558-2.142,1.363-.973-.194-1.752-1.168-1.363-2.141.195-.779.974-1.364,1.753-1.558.194.194.194.194.389.194Zm-2.336,10.905c.973.195,1.557,1.168,1.363,2.337-.195.973-1.168,1.557-2.336,1.363-.974-.195-1.558-1.169-1.363-2.337.194-.779.973-1.363,1.752-1.363.195,0,.389,0,.584,0Zm-2.725,10.904c.973.195,1.557,1.169,1.362,2.337-.194.974-1.168,1.558-2.336,1.363-.973-.195-1.557-1.168-1.362-2.337.194-.778.973-1.363,1.752-1.363.389,0,.389,0,.584,0Zm-290.834,5.453c.973.389,1.168,1.557.779,2.531-.39.974-1.558,1.363-2.531.779-.973-.39-1.168-1.558-.779-2.531.39-.585.974-.974,1.558-.974.389,0,.778.195.973.195Zm9.928,5.257c.973.39,1.168,1.558.779,2.532-.39.973-1.558,1.168-2.531.778-.973-.389-1.168-1.557-.779-2.531.39-.584.974-.974,1.558-.974.389,0,.584,0,.973.195Zm278.18.195c.974.195,1.558,1.363,1.363,2.337-.195.973-1.363,1.557-2.336,1.363-.974-.195-1.558-1.363-1.363-2.337.195-.779.974-1.363,1.752-1.363.195-.195.39-.195.584,0Zm-268.252,5.063c.973.389,1.168,1.558.779,2.531-.39.974-1.558,1.168-2.531.779s-1.363-1.558-.779-2.531c.39-.585.974-.974,1.558-.974.389,0,.584,0,.973.195Zm9.928,5.063c.973.389,1.168,1.557.779,2.531-.39.974-1.558,1.168-2.531.779-.973-.39-1.168-1.558-.779-2.532.39-.584.974-.973,1.558-.973.389,0,.584.195.973.195Zm255.404.584c.974.194,1.557,1.363,1.168,2.336-.195.974-1.363,1.558-2.336,1.169-.973-.195-1.557-1.363-1.168-2.337.195-.779.974-1.363,1.752-1.363.195.195.39.195.584.195Zm-245.671,4.673c.974.39,1.168,1.558.779,2.531-.389.974-1.557,1.169-2.531.779-.973-.389-1.168-1.557-.778-2.531.389-.584.973-.974,1.557-.974.389,0,.779,0,.973.195Zm9.929,5.258c.973.389,1.362,1.557.778,2.531-.389.974-1.557,1.168-2.531.779-.973-.39-1.168-1.558-.778-2.532.389-.584.973-.973,1.557-.973.39,0,.779,0,.974.195Zm232.433.778c.973.39,1.557,1.364,1.168,2.337-.39.974-1.363,1.558-2.336,1.169-.974-.39-1.558-1.364-1.168-2.337.194-.779.973-1.363,1.752-1.363.195.194.389.194.584.194Zm-222.505,4.284c.973.585,1.168,1.558.778,2.532-.389.973-1.557,1.168-2.53.779-.974-.39-1.168-1.558-.779-2.532.389-.584.973-.973,1.557-.973.39,0,.779.194.974.194Zm9.928,5.258c.973.389,1.168,1.558.778,2.531-.389.974-1.557,1.363-2.53.779-.974-.389-1.168-1.558-.779-2.531.389-.584.973-.974,1.557-.974.39,0,.779,0,.974.195Zm209.267,1.168c.974.39,1.558,1.363,1.169,2.337-.39.974-1.363,1.558-2.337,1.168-.973-.389-1.557-1.363-1.168-2.336.195-.779.974-1.363,1.753-1.363.194,0,.389,0,.583.194Zm-199.339,4.089c.973.39,1.362,1.558.778,2.532-.389.973-1.557,1.168-2.53.779-.974-.39-1.168-1.558-.779-2.532.389-.584.973-.973,1.557-.973.39,0,.584,0,.974.194Zm9.928,5.258c.973.389,1.168,1.558.778,2.531-.389.974-1.557,1.363-2.53.779-.974-.389-1.168-1.558-.779-2.531.389-.584.973-.974,1.557-.974.39-.195.584,0,.974.195Zm185.713,1.168c.973.39,1.557,1.363,1.168,2.337-.39.974-1.363,1.558-2.336,1.168-.974-.389-1.558-1.363-1.168-2.336.194-.779.973-1.169,1.752-1.169.194-.194.389,0,.584,0Zm-175.98,3.895c.973.389,1.168,1.558.779,2.531-.39.974-1.558,1.169-2.531.779-.973-.389-1.168-1.558-.779-2.531.39-.585.974-.974,1.558-.974s.778.195.973.195Zm9.928,5.257c.973.39,1.168,1.558.779,2.532-.389.973-1.557,1.168-2.531.779-.973-.39-1.168-1.558-.779-2.532.39-.584.974-.973,1.558-.973.389,0,.778,0,.973.194Zm162.353,1.363c.973.39,1.363,1.363,1.168,2.337-.389.974-1.363,1.363-2.336,1.168-.973-.389-1.363-1.363-1.168-2.336.195-.779.973-1.169,1.752-1.169c0-.194.195,0,.584,0Zm-152.425,3.895c.974.389,1.168,1.558.779,2.531-.389.974-1.557,1.169-2.531.779-.973-.389-1.168-1.558-.778-2.531.389-.584.973-.974,1.557-.974.389,0,.779,0,.973.195Zm9.928,5.063c.974.389,1.168,1.557.779,2.531s-1.557,1.168-2.531.779c-.973-.39-1.168-1.558-.778-2.531.389-.585.973-.974,1.557-.974.389,0,.779.195.973.195Zm138.409,1.557c.973.39,1.363,1.558.973,2.337-.389.974-1.557,1.363-2.336.974-.973-.39-1.362-1.558-.973-2.337s.973-1.168,1.752-1.168c.195,0,.389,0,.584.194Zm-128.481,3.7c.974.39,1.168,1.558.779,2.532-.389.973-1.557,1.168-2.531.778-.973-.389-1.168-1.557-.778-2.531.389-.584.973-.974,1.557-.974.389,0,.584,0,.973.195Zm9.928,5.258c.974.389,1.168,1.557.779,2.531s-1.557,1.168-2.531.779c-.973-.39-1.168-1.558-.778-2.531.389-.585.973-.974,1.557-.974.389,0,.584,0,.973.195Zm114.465,1.363c.973.389,1.363,1.558.973,2.531-.389.974-1.557,1.363-2.336.974-.973-.39-1.362-1.558-.973-2.337s.973-1.168,1.752-1.168c0-.195.195-.195.584,0Zm-104.537,3.699c.974.39,1.168,1.558.779,2.532s-1.557,1.363-2.531.779c-.973-.584-1.362-1.558-.778-2.532.389-.584.973-.973,1.557-.973.389,0,.584.194.973.194Zm9.734,5.258c.973.39,1.168,1.558.778,2.531-.389.974-1.557,1.169-2.53.779-.973-.389-1.168-1.557-.779-2.531.389-.584.974-.974,1.558-.974.389,0,.778,0,.973.195Zm90.326,1.363c.973.39,1.362,1.558.973,2.531-.389.974-1.557,1.364-2.531.974-.973-.389-1.362-1.558-.973-2.531.389-.779.973-1.169,1.752-1.169.195,0,.584,0,.779.195Zm-80.398,3.895c.973.389,1.363,1.557.779,2.531-.39.974-1.558,1.363-2.531.779-.973-.39-1.168-1.558-.779-2.532.39-.584.974-.973,1.558-.973.389,0,.778,0,.973.195Zm9.928,5.257c.973.39,1.168,1.558.779,2.532-.39.973-1.558,1.168-2.531.778-.973-.389-1.363-1.557-.779-2.531.39-.584.974-.974,1.558-.974.389-.194.778,0,.973.195Zm65.992.974c.974.389,1.363,1.558.974,2.531-.39.974-1.558,1.363-2.531.974-.973-.39-1.363-1.558-.973-2.532.389-.779.973-1.168,1.752-1.168.194,0,.389,0,.778.195Zm-56.064,4.089c.973.389,1.168,1.558.779,2.531-.39.974-1.558,1.169-2.531.779-.973-.389-1.168-1.558-.779-2.531.39-.584.974-.974,1.558-.974.389,0,.584,0,.973.195Zm9.928,5.257c.973.39,1.363,1.558.779,2.532-.39.973-1.558,1.168-2.531.779-.973-.39-1.168-1.558-.779-2.532.39-.584.974-.973,1.558-.973.389,0,.584,0,.973.194Zm41.27.779c.973.39,1.362,1.558.778,2.532-.389.973-1.557,1.363-2.53.779-.974-.39-1.363-1.558-.779-2.532.389-.584.973-.973,1.752-.973.195,0,.584,0,.779.194Zm-31.342,4.479c.973.389,1.168,1.558.779,2.531-.39.974-1.558,1.169-2.531.779-.973-.389-1.168-1.558-.779-2.531.39-.584.974-.974,1.558-.974.195,0,.584,0,.973.195Zm9.734,5.063c.973.389,1.168,1.558.778,2.531-.389.974-1.557,1.168-2.53.779-.974-.389-1.169-1.558-.779-2.531.389-.585.973-.974,1.557-.974.39,0,.779.195.974.195Zm16.741.389c.973.39,1.363,1.558.779,2.532-.39.973-1.558,1.363-2.531.778-.973-.389-1.363-1.557-.779-2.531.39-.584.974-.974,1.558-.974.389,0,.584.195.973.195ZM387,727.486c.973.39,1.168,1.558.778,2.532-.389.973-1.557,1.168-2.53.779-.974-.39-1.168-1.558-.779-2.532.389-.584.973-.973,1.557-.973.39,0,.779,0,.974.194Z" transform="translate(0 0.000004)" fill="#333" fill-opacity="0.07"/><path d="M51.7817,110.408l5.4506-9.152c3.6987,2.142,7.3974,4.479,10.9014,6.815l-5.84,8.958c-3.3094-2.142-6.8134-4.479-10.512-6.621Z" fill="#333" fill-opacity="0.07"/><path d="M35.0402,100.867l5.0614-9.347c3.6987,1.9472,7.592,4.0891,11.2907,6.2311l-5.256,9.1519c-3.6987-2.142-7.3974-4.089-11.0961-6.036Z" fill="#333" fill-opacity="0.07"/><path d="M17.7148,92.1041l4.672-9.5414c3.8934,1.7525,7.7867,3.6997,11.4854,5.647l-4.8667,9.5414c-3.6987-2.142-7.592-3.8945-11.2907-5.647Z" fill="#333" fill-opacity="0.07"/><path d="M0,84.1205l4.08803-9.9309c3.89336,1.5578,7.98137,3.3103,11.87477,5.0628l-4.4774,9.7362C7.59204,87.4308,3.89336,85.6783,0,84.1205Z" fill="#333" fill-opacity="0.07"/><path d="M248.396,597.801c3.115-8.179,6.035-16.552,8.565-24.925l8.566,2.726c-2.725,8.568-5.645,17.136-8.76,25.509l-8.371-3.31Z" fill="#333" fill-opacity="0.07"/><path id="ewV7e9slGqQ52" d="M35.0402,59.3906l3.8934-7.9836c9.9281,4.868,19.8561,10.1256,29.5895,15.7725l-4.4774,7.5943C54.507,69.3215,44.7736,64.064,35.0402,59.3906Z" fill="#333" fill-opacity="0.07"/><g id="ewV7e9slGqQ53" transform="matrix(.987688 0.156434-.156434 0.987688 67.322026 26.316485)"><path d="M262.217,693.215c13.627-22.588,25.307-46.344,35.041-70.879l-14.795-5.842c-9.344,23.562-20.635,46.734-33.872,68.543l13.626,8.178Z" fill="#333" fill-opacity="0.07"/><path d="M314.194,469.088c-.389,6.621-.779,13.436-1.363,20.057l15.963,1.558c.584-6.816,1.168-13.826,1.557-20.641l-16.157-.974Z" fill="#333" fill-opacity="0.07"/><path d="M193.889,131.244l11.875-10.71c-1.168-1.363-2.531-2.726-3.699-4.089l-11.68,10.904c.974,1.168,2.142,2.531,3.504,3.895Z" fill="#333" fill-opacity="0.07"/><path d="M187.66,124.428l11.68-10.904c-1.168-1.169-2.336-2.337-3.504-3.7L184.35,120.923c.974,1.169,2.142,2.337,3.31,3.505Z" fill="#333" fill-opacity="0.07"/><path d="M110.766,39.7236l-8.76,13.4359c8.955,5.8417,17.909,12.0728,26.475,18.4987l9.538-12.8518c-8.76-6.6206-17.909-13.0464-27.253-19.0828Z" fill="#333" fill-opacity="0.07"/><path d="M134.126,834c17.715-13.046,34.456-27.261,50.224-42.644l-11.096-11.489c-15.184,14.799-31.536,28.624-48.667,41.087L134.126,834Z" fill="#333" fill-opacity="0.07"/><path d="M200.702,750.853c-1.752,2.142-3.698,4.284-5.645,6.231l11.875,10.71c1.947-2.142,3.893-4.284,5.84-6.621l-12.07-10.32Z" fill="#333" fill-opacity="0.07"/><path d="M200.702,750.853c-1.752,2.142-3.698,4.284-5.645,6.231l11.875,10.71c1.947-2.142,3.893-4.284,5.84-6.621l-12.07-10.32Z" fill="#333" fill-opacity="0.07"/><path d="M312.053,578.718l-15.379-4.479c-3.504,12.073-7.398,23.951-11.875,35.634l14.989,5.647c4.672-12.072,8.761-24.34,12.265-36.802Z" fill="#333" fill-opacity="0.07"/><path d="M312.052,496.739c-1.362,12.268-3.114,24.535-5.45,36.608l15.768,2.921c2.336-12.462,4.283-25.119,5.645-37.776l-15.963-1.753Z" fill="#333" fill-opacity="0.07"/><path d="M314.194,469.088c-.389,6.621-.779,13.436-1.363,20.057l15.963,1.558c.584-6.816,1.168-13.826,1.557-20.641l-16.157-.974Z" fill="#333" fill-opacity="0.07"/><path d="M187.66,124.428l11.68-10.904c-1.168-1.169-2.336-2.337-3.504-3.7L184.35,120.923c.974,1.169,2.142,2.337,3.31,3.505Z" fill="#333" fill-opacity="0.07"/><path d="M181.625,118.392l11.485-11.294c-11.29-11.4888-23.36-22.5881-35.624-32.9084L147.169,86.4572c12.069,10.1256,23.555,20.8358,34.456,31.9348Z" fill="#333" fill-opacity="0.07"/><path d="M110.766,39.7236l-8.76,13.4359c8.955,5.8417,17.909,12.0728,26.475,18.4987l9.538-12.8518c-8.76-6.6206-17.909-13.0464-27.253-19.0828Z" fill="#333" fill-opacity="0.07"/><path d="M193.889,131.244l11.875-10.71c-1.168-1.363-2.531-2.726-3.699-4.089l-11.68,10.904c.974,1.168,2.142,2.531,3.504,3.895Z" fill="#333" fill-opacity="0.07"/><path d="M110.766,39.7236l-8.76,13.4359c8.955,5.8417,17.909,12.0728,26.475,18.4987l9.538-12.8518c-8.76-6.6206-17.909-13.0464-27.253-19.0828Z" fill="#333" fill-opacity="0.07"/><path d="M187.66,124.428l11.68-10.904c-1.168-1.169-2.336-2.337-3.504-3.7L184.35,120.923c.974,1.169,2.142,2.337,3.31,3.505Z" fill="#333" fill-opacity="0.07"/><path d="M193.889,131.244l11.875-10.71c-1.168-1.363-2.531-2.726-3.699-4.089l-11.68,10.904c.974,1.168,2.142,2.531,3.504,3.895Z" fill="#333" fill-opacity="0.07"/><path d="M314.194,469.088c-.389,6.621-.779,13.436-1.363,20.057l15.963,1.558c.584-6.816,1.168-13.826,1.557-20.641l-16.157-.974Z" fill="#333" fill-opacity="0.07"/><path d="M200.702,750.853c-1.752,2.142-3.698,4.284-5.645,6.231l11.875,10.71c1.947-2.142,3.893-4.284,5.84-6.621l-12.07-10.32Z" fill="#333" fill-opacity="0.07"/><path d="M262.217,693.215c13.627-22.588,25.307-46.344,35.041-70.879l-14.795-5.842c-9.344,23.562-20.635,46.734-33.872,68.543l13.626,8.178Z" fill="#333" fill-opacity="0.07"/><path d="M305.628,339.792c-4.088-18.499-9.344-36.803-15.573-54.522l-11.485,4.089c6.034,17.33,11.096,35.245,15.184,53.159l11.874-2.726Z" fill="#333" fill-opacity="0.07"/><path d="M315.751,410.671c-1.168-18.888-3.504-37.776-7.008-56.275l-12.069,2.337c3.309,18.109,5.645,36.413,6.813,54.717l12.264-.779Z" fill="#333" fill-opacity="0.07"/><path d="M17.7148,17.9145c3.504,1.3631,7.008,2.9209,10.512,4.284l4.8667-11.294c-3.504-1.55778-7.2027-2.92084-10.7067-4.47863L17.7148,17.9145Z" fill="#333" fill-opacity="0.07"/><path d="M34.6509,25.1193c3.504,1.5578,7.008,3.1156,10.3174,4.6734l5.256-11.0993c-3.504-1.7525-7.0081-3.3103-10.5121-4.868L34.6509,25.1193Z" fill="#333" fill-opacity="0.07"/><path d="M51.1976,32.7135c3.3094,1.7525,6.8134,3.3103,10.1227,5.0628l5.6454-10.9045c-3.504-1.7525-7.0081-3.505-10.3174-5.2575L51.1976,32.7135Z" fill="#333" fill-opacity="0.07"/><path d="M67.3551,41.2813c3.3093,1.7526,6.6187,3.6998,9.928,5.647l6.0347-10.515c-3.3093-1.9473-6.8133-3.8945-10.1227-5.647l-5.84,10.515Z" fill="#333" fill-opacity="0.07"/><path d="M284.799,271.055c-6.813-17.525-14.795-34.856-23.75-51.407l-10.706,5.842c8.565,16.162,16.352,33.103,23.165,50.238l11.291-4.673Z" fill="#333" fill-opacity="0.07"/><path d="M257.156,712.103c-2.141,3.116-4.477,6.231-6.813,9.347l9.928,7.399c2.336-3.115,4.672-6.426,7.008-9.541l-10.123-7.205Z" fill="#333" fill-opacity="0.07"/><path d="M0.778658,11.6834C4.28268,12.8517,7.98137,14.2148,11.4854,15.5779L15.7681,4.08919C12.0694,2.72613,8.37071,1.36306,4.86669,0L0.778658,11.6834Z" fill="#333" fill-opacity="0.07"/></g><path d="M363.055,445.332h34.457v-.973c0-62.701-10.512-124.429-31.147-183.04-19.272-54.328-46.72-105.151-81.955-151.106c1.168-1.168,1.752-2.531,1.752-4.284c0-3.31-2.726-6.0359-6.035-6.0359s-6.035,2.7259-6.035,6.0359c0,3.311,2.726,6.037,6.035,6.037.973,0,1.947-.39,2.92-.779c35.04,45.76,62.683,96.388,81.76,150.716c20.441,58.222,30.953,119.17,31.147,181.482h-32.704c-.195-3.116-2.92-5.647-6.035-5.647-3.309,0-6.034,2.726-6.034,6.036c0,3.311,2.725,6.037,6.034,6.037c2.92.389,5.256-1.753,5.84-4.479Z" fill="#333" fill-opacity="0.07"/><path d="M51.7817,110.408l5.4506-9.152c3.6987,2.142,7.3974,4.479,10.9014,6.815l-5.84,8.958c-3.3094-2.142-6.8134-4.479-10.512-6.621Z" fill="#333" fill-opacity="0.07"/><path d="M35.0402,100.867l5.0614-9.347c3.6987,1.9472,7.592,4.0891,11.2907,6.2311l-5.256,9.1519c-3.6987-2.142-7.3974-4.089-11.0961-6.036Z" fill="#333" fill-opacity="0.07"/><path d="M17.7148,92.1041l4.672-9.5414c3.8934,1.7525,7.7867,3.6997,11.4854,5.647l-4.8667,9.5414c-3.6987-2.142-7.592-3.8945-11.2907-5.647Z" fill="#333" fill-opacity="0.07"/><path d="M0,84.1205l4.08803-9.9309c3.89336,1.5578,7.98137,3.3103,11.87477,5.0628l-4.4774,9.7362C7.59204,87.4308,3.89336,85.6783,0,84.1205Z" fill="#333" fill-opacity="0.07"/><path d="M248.396,597.801c3.115-8.179,6.035-16.552,8.565-24.925l8.566,2.726c-2.725,8.568-5.645,17.136-8.76,25.509l-8.371-3.31Z" fill="#333" fill-opacity="0.07"/><path id="ewV7e9slGqQ90" d="M35.0402,59.3906l3.8934-7.9836c9.9281,4.868,19.8561,10.1256,29.5895,15.7725l-4.4774,7.5943C54.507,69.3215,44.7736,64.064,35.0402,59.3906Z" fill="#333" fill-opacity="0.07"/><path d="M363.055,445.332h34.457v-.973c0-62.701-10.512-124.429-31.147-183.04-19.272-54.328-46.72-105.151-81.955-151.106c1.168-1.168,1.752-2.531,1.752-4.284c0-3.31-2.726-6.0359-6.035-6.0359s-6.035,2.7259-6.035,6.0359c0,3.311,2.726,6.037,6.035,6.037.973,0,1.947-.39,2.92-.779c35.04,45.76,62.683,96.388,81.76,150.716c20.441,58.222,30.953,119.17,31.147,181.482h-32.704c-.195-3.116-2.92-5.647-6.035-5.647-3.309,0-6.034,2.726-6.034,6.036c0,3.311,2.725,6.037,6.034,6.037c2.92.389,5.256-1.753,5.84-4.479Z" fill="#333" fill-opacity="0.07"/><path d="M205.18,512.706c.584-2.531.973-5.062,1.363-7.788l19.077,2.92c-.584,2.921-.973,5.842-1.557,8.763l-18.883-3.895Z" fill="#333" fill-opacity="0.07"/><path d="M208.489,493.039c.39-2.531.584-5.257.974-7.788l19.272,1.752c-.39,2.921-.779,5.842-1.168,8.763l-19.078-2.727Z" fill="#333" fill-opacity="0.07"/><path d="M208.489,493.039c.39-2.531.584-5.257.974-7.788l19.272,1.752c-.39,2.921-.779,5.842-1.168,8.763l-19.078-2.727Z" fill="#333" fill-opacity="0.07"/><path d="M210.631,473.178c.194-2.532.389-5.258.584-7.789l19.272.779c-.195,2.92-.39,5.841-.584,8.957l-19.272-1.947Z" fill="#333" fill-opacity="0.07"/><path d="M200.119,354.396c-.584-2.531-1.363-5.062-1.947-7.594l18.493-5.452c.779,2.921,1.558,5.647,2.336,8.568l-18.882,4.478Z" fill="#333" fill-opacity="0.07"/><path d="M194.473,335.119c-.779-2.532-1.557-5.063-2.531-7.4l18.299-6.62c.974,2.726,1.947,5.647,2.726,8.373l-18.494,5.647Z" fill="#333" fill-opacity="0.07"/><path d="M204.596,373.869c-.584-2.532-.973-5.063-1.557-7.594l18.882-4.479c.584,2.921,1.363,5.842,1.947,8.762l-19.272,3.311Z" fill="#333" fill-opacity="0.07"/><path d="M207.905,393.536c-.389-2.532-.778-5.258-1.168-7.789l19.078-3.505c.584,2.921.973,5.842,1.362,8.762l-19.272,2.532Z" fill="#333" fill-opacity="0.07"/><path d="M206.153,309.805l-18.299,6.62c-.973-2.531-1.946-4.868-2.92-7.204l17.91-7.595c1.168,2.532,2.336,5.453,3.309,8.179Z" fill="#333" fill-opacity="0.07"/><path d="M115.049,198.034c-1.752-1.948-3.504-3.895-5.451-5.647l13.821-13.631c2.142,2.142,4.088,4.284,6.035,6.426l-14.405,12.852Z" fill="#333" fill-opacity="0.07"/><path d="M101.227,183.819c-1.9464-1.753-3.6984-3.7-5.6451-5.452l13.0431-14.41c2.141,1.947,4.282,4.089,6.424,6.231l-13.822,13.631Z" fill="#333" fill-opacity="0.07"/><path d="M140.55,228.995c-1.557-2.142-3.115-4.284-4.672-6.232l15.184-12.072c1.752,2.336,3.699,4.673,5.451,7.204l-15.963,11.1Z" fill="#333" fill-opacity="0.07"/><path d="M151.841,245.351c-1.363-2.142-2.92-4.284-4.283-6.426l15.768-11.293c1.752,2.531,3.31,4.868,4.867,7.399l-16.352,10.32Z" fill="#333" fill-opacity="0.07"/><path d="M180.457,297.927c-.195-.39-.389-.974-.584-1.363-.779-1.948-1.752-3.895-2.725-5.647l17.325-8.568c.973,2.142,1.947,4.284,2.92,6.231.195.584.584,1.168.779,1.752l-17.715,7.595Z" fill="#333" fill-opacity="0.07"/><path d="M204.596,373.869c-.584-2.532-.973-5.063-1.557-7.594l18.882-4.479c.584,2.921,1.363,5.842,1.947,8.762l-19.272,3.311Z" fill="#333" fill-opacity="0.07"/><path d="M206.153,309.805l-18.299,6.62c-.973-2.531-1.946-4.868-2.92-7.204l17.91-7.595c1.168,2.532,2.336,5.453,3.309,8.179Z" fill="#333" fill-opacity="0.07"/><path d="M115.049,198.034c-1.752-1.948-3.504-3.895-5.451-5.647l13.821-13.631c2.142,2.142,4.088,4.284,6.035,6.426l-14.405,12.852Z" fill="#333" fill-opacity="0.07"/><path d="M140.55,228.995c-1.557-2.142-3.115-4.284-4.672-6.232l15.184-12.072c1.752,2.336,3.699,4.673,5.451,7.204l-15.963,11.1Z" fill="#333" fill-opacity="0.07"/><path d="M180.457,297.927c-.195-.39-.389-.974-.584-1.363-.779-1.948-1.752-3.895-2.725-5.647l17.325-8.568c.973,2.142,1.947,4.284,2.92,6.231.195.584.584,1.168.779,1.752l-17.715,7.595Z" fill="#333" fill-opacity="0.07"/><path id="ewV7e9slGqQ111" d="M59.763,181.093c103.369,84.315,147.363,221.984,111.739,350.696l9.344,2.532c36.598-132.412-8.565-273.976-114.8537-360.823l-6.2293,7.595Z" fill="#333" fill-opacity="0.07"/><path id="ewV7e9slGqQ112" d="M253.457,350.113l-12.069,3.115c17.325,66.401,16.157,136.112-3.699,201.539l11.875,3.505c20.635-67.569,21.998-139.617,3.893-208.159Z" transform="translate(0 0.00001)" fill="#333" fill-opacity="0.07"/><path d="M176.564,704.509c-1.947,2.726-3.894,5.257-6.035,7.789l8.371,6.426c2.141-2.726,4.088-5.453,6.034-8.179l-8.37-6.036Z" fill="#333" fill-opacity="0.07"/><path d="M185.713,691.657c-1.752,2.726-3.699,5.452-5.645,8.179l8.76,6.231c1.946-2.726,3.893-5.453,5.84-8.373l-8.955-6.037Z" fill="#333" fill-opacity="0.07"/><path d="M194.279,678.221c-1.753,2.726-3.505,5.647-5.257,8.373l8.955,5.842c1.752-2.726,3.699-5.647,5.451-8.568l-9.149-5.647Z" fill="#333" fill-opacity="0.07"/><path d="M202.454,664.591c-1.557,2.92-3.309,5.647-4.866,8.568l9.149,5.452c1.752-2.921,3.504-5.842,5.062-8.763l-9.345-5.257Z" fill="#333" fill-opacity="0.07"/><path d="M209.852,650.571c-1.557,2.92-3.115,5.841-4.672,8.762l9.344,5.063c1.557-2.921,3.115-6.036,4.672-8.957l-9.344-4.868Z" fill="#333" fill-opacity="0.07"/><path d="M216.86,636.356c-1.363,2.921-2.725,6.036-4.283,8.957l9.539,4.673c1.557-2.92,2.92-6.036,4.283-9.152l-9.539-4.478Z" fill="#333" fill-opacity="0.07"/><path d="M223.284,621.946c-1.168,3.116-2.531,6.037-3.893,9.152l9.733,4.284c1.363-3.115,2.725-6.231,4.088-9.347l-9.928-4.089Z" fill="#333" fill-opacity="0.07"/><path d="M86.6272,793.108c-2.7254,1.947-5.4507,3.7-8.176,5.647l6.0346,8.763c2.7254-1.948,5.6454-3.895,8.3707-5.842l-6.2293-8.568Z" fill="#333" fill-opacity="0.07"/><path d="M99.4752,783.761c-2.5307,1.948-5.256,4.09-7.9813,5.842l6.2294,8.568c2.7257-1.947,5.4507-4.089,8.1757-6.037l-6.4238-8.373Z" fill="#333" fill-opacity="0.07"/><path d="M111.739,773.831c-2.53,2.141-5.061,4.283-7.592,6.231l6.619,8.373c2.725-2.142,5.256-4.284,7.787-6.426l-6.814-8.178Z" fill="#333" fill-opacity="0.07"/><path d="M123.614,763.315c-2.336,2.142-4.867,4.479-7.397,6.621l7.008,7.984c2.53-2.142,5.061-4.479,7.592-6.621l-7.203-7.984Z" fill="#333" fill-opacity="0.07"/><path d="M135.294,752.411c-2.336,2.337-4.672,4.673-7.203,6.815l7.203,7.789c2.531-2.337,4.867-4.673,7.398-7.01l-7.398-7.594Z" fill="#333" fill-opacity="0.07"/><path d="M146.39,741.117c-2.336,2.337-4.477,4.868-6.813,7.205l7.592,7.399c2.336-2.336,4.672-4.868,7.008-7.205l-7.787-7.399Z" fill="#333" fill-opacity="0.07"/><path d="M156.902,729.434c-2.141,2.531-4.282,4.868-6.618,7.399l7.786,7.205c2.336-2.532,4.478-5.063,6.814-7.594l-7.982-7.01Z" fill="#333" fill-opacity="0.07"/><path d="M167.025,717.166c-1.947,2.531-4.088,5.063-6.229,7.594l8.176,6.816c2.141-2.532,4.282-5.258,6.424-7.789l-8.371-6.621Z" fill="#333" fill-opacity="0.07"/></g>
<script><![CDATA[
!function(t,e){"object"==typeof exports&&"undefined"!=typeof module?module.exports=e():"function"==typeof __SVGATOR_DEFINE__&&__SVGATOR_DEFINE__.amd?__SVGATOR_DEFINE__(e):((t="undefined"!=typeof globalThis?globalThis:t||self).__SVGATOR_PLAYER__=t.__SVGATOR_PLAYER__||{},t.__SVGATOR_PLAYER__["91c80d77"]=e())}(this,(function(){"use strict";function t(t,e){var n=Object.keys(t);if(Object.getOwnPropertySymbols){var r=Object.getOwnPropertySymbols(t);e&&(r=r.filter((function(e){return Object.getOwnPropertyDescriptor(t,e).enumerable}))),n.push.apply(n,r)}return n}function e(e){for(var n=1;n<arguments.length;n++){var r=null!=arguments[n]?arguments[n]:{};n%2?t(Object(r),!0).forEach((function(t){u(e,t,r[t])})):Object.getOwnPropertyDescriptors?Object.defineProperties(e,Object.getOwnPropertyDescriptors(r)):t(Object(r)).forEach((function(t){Object.defineProperty(e,t,Object.getOwnPropertyDescriptor(r,t))}))}return e}function n(t){return(n="function"==typeof Symbol&&"symbol"==typeof Symbol.iterator?function(t){return typeof t}:function(t){return t&&"function"==typeof Symbol&&t.constructor===Symbol&&t!==Symbol.prototype?"symbol":typeof t})(t)}function r(t,e){if(!(t instanceof e))throw new TypeError("Cannot call a class as a function")}function i(t,e){for(var n=0;n<e.length;n++){var r=e[n];r.enumerable=r.enumerable||!1,r.configurable=!0,"value"in r&&(r.writable=!0),Object.defineProperty(t,r.key,r)}}function o(t,e,n){return e&&i(t.prototype,e),n&&i(t,n),t}function u(t,e,n){return e in t?Object.defineProperty(t,e,{value:n,enumerable:!0,configurable:!0,writable:!0}):t[e]=n,t}function a(t){return(a=Object.setPrototypeOf?Object.getPrototypeOf:function(t){return t.__proto__||Object.getPrototypeOf(t)})(t)}function s(t,e){return(s=Object.setPrototypeOf||function(t,e){return t.__proto__=e,t})(t,e)}function l(){if("undefined"==typeof Reflect||!Reflect.construct)return!1;if(Reflect.construct.sham)return!1;if("function"==typeof Proxy)return!0;try{return Boolean.prototype.valueOf.call(Reflect.construct(Boolean,[],(function(){}))),!0}catch(t){return!1}}function f(t,e,n){return(f=l()?Reflect.construct:function(t,e,n){var r=[null];r.push.apply(r,e);var i=new(Function.bind.apply(t,r));return n&&s(i,n.prototype),i}).apply(null,arguments)}function c(t,e){if(e&&("object"==typeof e||"function"==typeof e))return e;if(void 0!==e)throw new TypeError("Derived constructors may only return object or undefined");return function(t){if(void 0===t)throw new ReferenceError("this hasn't been initialised - super() hasn't been called");return t}(t)}function h(t,e,n){return(h="undefined"!=typeof Reflect&&Reflect.get?Reflect.get:function(t,e,n){var r=function(t,e){for(;!Object.prototype.hasOwnProperty.call(t,e)&&null!==(t=a(t)););return t}(t,e);if(r){var i=Object.getOwnPropertyDescriptor(r,e);return i.get?i.get.call(n):i.value}})(t,e,n||t)}function v(t){return function(t){if(Array.isArray(t))return d(t)}(t)||function(t){if("undefined"!=typeof Symbol&&null!=t[Symbol.iterator]||null!=t["@@iterator"])return Array.from(t)}(t)||function(t,e){if(!t)return;if("string"==typeof t)return d(t,e);var n=Object.prototype.toString.call(t).slice(8,-1);"Object"===n&&t.constructor&&(n=t.constructor.name);if("Map"===n||"Set"===n)return Array.from(t);if("Arguments"===n||/^(?:Ui|I)nt(?:8|16|32)(?:Clamped)?Array$/.test(n))return d(t,e)}(t)||function(){throw new TypeError("Invalid attempt to spread non-iterable instance.\nIn order to be iterable, non-array objects must have a [Symbol.iterator]() method.")}()}function d(t,e){(null==e||e>t.length)&&(e=t.length);for(var n=0,r=new Array(e);n<e;n++)r[n]=t[n];return r}Number.isInteger||(Number.isInteger=function(t){return"number"==typeof t&&isFinite(t)&&Math.floor(t)===t}),Number.EPSILON||(Number.EPSILON=2220446049250313e-31);var y=g(Math.pow(10,-6));function g(t){var e=arguments.length>1&&void 0!==arguments[1]?arguments[1]:6;if(Number.isInteger(t))return t;var n=Math.pow(10,e);return Math.round((+t+Number.EPSILON)*n)/n}function p(t,e){var n=arguments.length>2&&void 0!==arguments[2]?arguments[2]:y;return Math.abs(t-e)<n}var m=Math.PI/180;function b(t){return t}function w(t,e,n){var r=1-n;return 3*n*r*(t*r+e*n)+n*n*n}function k(){var t=arguments.length>0&&void 0!==arguments[0]?arguments[0]:0,e=arguments.length>1&&void 0!==arguments[1]?arguments[1]:0,n=arguments.length>2&&void 0!==arguments[2]?arguments[2]:1,r=arguments.length>3&&void 0!==arguments[3]?arguments[3]:1;return t<0||t>1||n<0||n>1?null:p(t,e)&&p(n,r)?b:function(i){if(i<=0)return t>0?i*e/t:0===e&&n>0?i*r/n:0;if(i>=1)return n<1?1+(i-1)*(r-1)/(n-1):1===n&&t<1?1+(i-1)*(e-1)/(t-1):1;for(var o,u=0,a=1;u<a;){var s=w(t,n,o=(u+a)/2);if(p(i,s))break;s<i?u=o:a=o}return w(e,r,o)}}function _(){return 1}function A(t){return 1===t?1:0}function x(){var t=arguments.length>0&&void 0!==arguments[0]?arguments[0]:1,e=arguments.length>1&&void 0!==arguments[1]?arguments[1]:0;if(1===t){if(0===e)return A;if(1===e)return _}var n=1/t;return function(t){return t>=1?1:(t+=e*n)-t%n}}var O=Math.sin,S=Math.cos,E=Math.acos,P=Math.asin,j=Math.tan,M=Math.atan2,B=Math.PI/180,I=180/Math.PI,T=Math.sqrt,R=function(){function t(){var e=arguments.length>0&&void 0!==arguments[0]?arguments[0]:1,n=arguments.length>1&&void 0!==arguments[1]?arguments[1]:0,i=arguments.length>2&&void 0!==arguments[2]?arguments[2]:0,o=arguments.length>3&&void 0!==arguments[3]?arguments[3]:1,u=arguments.length>4&&void 0!==arguments[4]?arguments[4]:0,a=arguments.length>5&&void 0!==arguments[5]?arguments[5]:0;r(this,t),this.m=[e,n,i,o,u,a],this.i=null,this.w=null,this.s=null}return o(t,[{key:"determinant",get:function(){var t=this.m;return t[0]*t[3]-t[1]*t[2]}},{key:"isIdentity",get:function(){if(null===this.i){var t=this.m;this.i=1===t[0]&&0===t[1]&&0===t[2]&&1===t[3]&&0===t[4]&&0===t[5]}return this.i}},{key:"point",value:function(t,e){var n=this.m;return{x:n[0]*t+n[2]*e+n[4],y:n[1]*t+n[3]*e+n[5]}}},{key:"translateSelf",value:function(){var t=arguments.length>0&&void 0!==arguments[0]?arguments[0]:0,e=arguments.length>1&&void 0!==arguments[1]?arguments[1]:0;if(!t&&!e)return this;var n=this.m;return n[4]+=n[0]*t+n[2]*e,n[5]+=n[1]*t+n[3]*e,this.w=this.s=this.i=null,this}},{key:"rotateSelf",value:function(){var t=arguments.length>0&&void 0!==arguments[0]?arguments[0]:0;if(t%=360){var e=O(t*=B),n=S(t),r=this.m,i=r[0],o=r[1];r[0]=i*n+r[2]*e,r[1]=o*n+r[3]*e,r[2]=r[2]*n-i*e,r[3]=r[3]*n-o*e,this.w=this.s=this.i=null}return this}},{key:"scaleSelf",value:function(){var t=arguments.length>0&&void 0!==arguments[0]?arguments[0]:1,e=arguments.length>1&&void 0!==arguments[1]?arguments[1]:1;if(1!==t||1!==e){var n=this.m;n[0]*=t,n[1]*=t,n[2]*=e,n[3]*=e,this.w=this.s=this.i=null}return this}},{key:"skewSelf",value:function(t,e){if(e%=360,(t%=360)||e){var n=this.m,r=n[0],i=n[1],o=n[2],u=n[3];t&&(t=j(t*B),n[2]+=r*t,n[3]+=i*t),e&&(e=j(e*B),n[0]+=o*e,n[1]+=u*e),this.w=this.s=this.i=null}return this}},{key:"resetSelf",value:function(){var t=arguments.length>0&&void 0!==arguments[0]?arguments[0]:1,e=arguments.length>1&&void 0!==arguments[1]?arguments[1]:0,n=arguments.length>2&&void 0!==arguments[2]?arguments[2]:0,r=arguments.length>3&&void 0!==arguments[3]?arguments[3]:1,i=arguments.length>4&&void 0!==arguments[4]?arguments[4]:0,o=arguments.length>5&&void 0!==arguments[5]?arguments[5]:0,u=this.m;return u[0]=t,u[1]=e,u[2]=n,u[3]=r,u[4]=i,u[5]=o,this.w=this.s=this.i=null,this}},{key:"recomposeSelf",value:function(){var t=arguments.length>0&&void 0!==arguments[0]?arguments[0]:null,e=arguments.length>1&&void 0!==arguments[1]?arguments[1]:null,n=arguments.length>2&&void 0!==arguments[2]?arguments[2]:null,r=arguments.length>3&&void 0!==arguments[3]?arguments[3]:null,i=arguments.length>4&&void 0!==arguments[4]?arguments[4]:null;return this.isIdentity||this.resetSelf(),t&&(t.x||t.y)&&this.translateSelf(t.x,t.y),e&&this.rotateSelf(e),n&&(n.x&&this.skewSelf(n.x,0),n.y&&this.skewSelf(0,n.y)),!r||1===r.x&&1===r.y||this.scaleSelf(r.x,r.y),i&&(i.x||i.y)&&this.translateSelf(i.x,i.y),this}},{key:"decompose",value:function(){var t=arguments.length>0&&void 0!==arguments[0]?arguments[0]:0,e=arguments.length>1&&void 0!==arguments[1]?arguments[1]:0,n=this.m,r=n[0]*n[0]+n[1]*n[1],i=[[n[0],n[1]],[n[2],n[3]]],o=T(r);if(0===o)return{origin:{x:g(n[4]),y:g(n[5])},translate:{x:g(t),y:g(e)},scale:{x:0,y:0},skew:{x:0,y:0},rotate:0};i[0][0]/=o,i[0][1]/=o;var u=n[0]*n[3]-n[1]*n[2]<0;u&&(o=-o);var a=i[0][0]*i[1][0]+i[0][1]*i[1][1];i[1][0]-=i[0][0]*a,i[1][1]-=i[0][1]*a;var s=T(i[1][0]*i[1][0]+i[1][1]*i[1][1]);if(0===s)return{origin:{x:g(n[4]),y:g(n[5])},translate:{x:g(t),y:g(e)},scale:{x:g(o),y:0},skew:{x:0,y:0},rotate:0};i[1][0]/=s,i[1][1]/=s,a/=s;var l=0;return i[1][1]<0?(l=E(i[1][1])*I,i[0][1]<0&&(l=360-l)):l=P(i[0][1])*I,u&&(l=-l),a=M(a,T(i[0][0]*i[0][0]+i[0][1]*i[0][1]))*I,u&&(a=-a),{origin:{x:g(n[4]),y:g(n[5])},translate:{x:g(t),y:g(e)},scale:{x:g(o),y:g(s)},skew:{x:g(a),y:0},rotate:g(l)}}},{key:"clone",value:function(){var t=this.m;return new this.constructor(t[0],t[1],t[2],t[3],t[4],t[5])}},{key:"toString",value:function(){var t=arguments.length>0&&void 0!==arguments[0]?arguments[0]:" ";if(null===this.s){var e=this.m.map((function(t){return g(t)}));1===e[0]&&0===e[1]&&0===e[2]&&1===e[3]?this.s="translate("+e[4]+t+e[5]+")":this.s="matrix("+e.join(t)+")"}return this.s}}],[{key:"create",value:function(t){return t?Array.isArray(t)?f(this,v(t)):t instanceof this?t.clone():(new this).recomposeSelf(t.origin,t.rotate,t.skew,t.scale,t.translate):new this}}]),t}();function N(t,e,n){return t>=.5?n:e}function F(t,e,n){return 0===t||e===n?e:t*(n-e)+e}function C(t,e,n){var r=F(t,e,n);return r<=0?0:r}function D(t,e,n){var r=F(t,e,n);return r<=0?0:r>=1?1:r}function L(t,e,n){return 0===t?e:1===t?n:{x:F(t,e.x,n.x),y:F(t,e.y,n.y)}}function V(t,e,n){return 0===t?e:1===t?n:{x:C(t,e.x,n.x),y:C(t,e.y,n.y)}}function q(t,e,n){var r=function(t,e,n){return Math.round(F(t,e,n))}(t,e,n);return r<=0?0:r>=255?255:r}function G(t,e,n){return 0===t?e:1===t?n:{r:q(t,e.r,n.r),g:q(t,e.g,n.g),b:q(t,e.b,n.b),a:F(t,null==e.a?1:e.a,null==n.a?1:n.a)}}function z(t,e,n){var r=e.length;if(r!==n.length)return N(t,e,n);for(var i=new Array(r),o=0;o<r;o++)i[o]=F(t,e[o],n[o]);return i}function Y(t,e){for(var n=[],r=0;r<t;r++)n.push(e);return n}function U(t,e){if(--e<=0)return t;var n=(t=Object.assign([],t)).length;do{for(var r=0;r<n;r++)t.push(t[r])}while(--e>0);return t}var W,$=function(){function t(e){r(this,t),this.list=e,this.length=e.length}return o(t,[{key:"setAttribute",value:function(t,e){for(var n=this.list,r=0;r<this.length;r++)n[r].setAttribute(t,e)}},{key:"removeAttribute",value:function(t){for(var e=this.list,n=0;n<this.length;n++)e[n].removeAttribute(t)}},{key:"style",value:function(t,e){for(var n=this.list,r=0;r<this.length;r++)n[r].style[t]=e}}]),t}(),H=/-./g,Q=function(t,e){return e.toUpperCase()};function X(t){return"function"==typeof t?t:N}function J(t){return t?"function"==typeof t?t:Array.isArray(t)?function(t){var e=arguments.length>1&&void 0!==arguments[1]?arguments[1]:b;if(!Array.isArray(t))return e;switch(t.length){case 1:return x(t[0])||e;case 2:return x(t[0],t[1])||e;case 4:return k(t[0],t[1],t[2],t[3])||e}return e}(t,null):function(t,e){var n=arguments.length>2&&void 0!==arguments[2]?arguments[2]:b;switch(t){case"linear":return b;case"steps":return x(e.steps||1,e.jump||0)||n;case"bezier":case"cubic-bezier":return k(e.x1||0,e.y1||0,e.x2||0,e.y2||0)||n}return n}(t.type,t.value,null):null}function K(t,e,n){var r=arguments.length>3&&void 0!==arguments[3]&&arguments[3],i=e.length-1;if(t<=e[0].t)return r?[0,0,e[0].v]:e[0].v;if(t>=e[i].t)return r?[i,1,e[i].v]:e[i].v;var o,u=e[0],a=null;for(o=1;o<=i;o++){if(!(t>e[o].t)){a=e[o];break}u=e[o]}return null==a?r?[i,1,e[i].v]:e[i].v:u.t===a.t?r?[o,1,a.v]:a.v:(t=(t-u.t)/(a.t-u.t),u.e&&(t=u.e(t)),r?[o,t,n(t,u.v,a.v)]:n(t,u.v,a.v))}function Z(t,e){var n=arguments.length>2&&void 0!==arguments[2]?arguments[2]:null;return t&&t.length?"function"!=typeof e?null:("function"!=typeof n&&(n=null),function(r){var i=K(r,t,e);return null!=i&&n&&(i=n(i)),i}):null}function tt(t,e){return t.t-e.t}function et(t,e,r,i,o){var u,a="@"===r[0],s="#"===r[0],l=W[r],f=N;switch(a?(u=r.substr(1),r=u.replace(H,Q)):s&&(r=r.substr(1)),n(l)){case"function":if(f=l(i,o,K,J,r,a,e,t),s)return f;break;case"string":f=Z(i,X(l));break;case"object":if((f=Z(i,X(l.i),l.f))&&"function"==typeof l.u)return l.u(e,f,r,a,t)}return f?function(t,e,n){if(arguments.length>3&&void 0!==arguments[3]&&arguments[3])return t instanceof $?function(r){return t.style(e,n(r))}:function(r){return t.style[e]=n(r)};if(Array.isArray(e)){var r=e.length;return function(i){var o=n(i);if(null==o)for(var u=0;u<r;u++)t[u].removeAttribute(e);else for(var a=0;a<r;a++)t[a].setAttribute(e,o)}}return function(r){var i=n(r);null==i?t.removeAttribute(e):t.setAttribute(e,i)}}(e,r,f,a):null}function nt(t,e,r,i){if(!i||"object"!==n(i))return null;var o=null,u=null;return Array.isArray(i)?u=function(t){if(!t||!t.length)return null;for(var e=0;e<t.length;e++)t[e].e&&(t[e].e=J(t[e].e));return t.sort(tt)}(i):(u=i.keys,o=i.data||null),u?et(t,e,r,u,o):null}function rt(t,e,n){if(!n)return null;var r=[];for(var i in n)if(n.hasOwnProperty(i)){var o=nt(t,e,i,n[i]);o&&r.push(o)}return r.length?r:null}function it(t,e){if(!e.settings.duration||e.settings.duration<0)return null;var n,r,i,o,u,a=function(t,e){if(!e)return null;var n=[];if(Array.isArray(e))for(var r=e.length,i=0;i<r;i++){var o=e[i];if(2===o.length){var u=null;if("string"==typeof o[0])u=t.getElementById(o[0]);else if(Array.isArray(o[0])){u=[];for(var a=0;a<o[0].length;a++)if("string"==typeof o[0][a]){var s=t.getElementById(o[0][a]);s&&u.push(s)}u=u.length?1===u.length?u[0]:new $(u):null}if(u){var l=rt(t,u,o[1]);l&&(n=n.concat(l))}}}else for(var f in e)if(e.hasOwnProperty(f)){var c=t.getElementById(f);if(c){var h=rt(t,c,e[f]);h&&(n=n.concat(h))}}return n.length?n:null}(t,e.elements);return a?(n=a,r=e.settings,i=r.duration,o=n.length,u=null,function(t,e){var a=r.iterations||1/0,s=(r.alternate&&a%2==0)^r.direction>0?i:0,l=t%i,f=1+(t-l)/i;e*=r.direction,r.alternate&&f%2==0&&(e=-e);var c=!1;if(f>a)l=s,c=!0,-1===r.fill&&(l=r.direction>0?0:i);else if(e<0&&(l=i-l),l===u)return!1;u=l;for(var h=0;h<o;h++)n[h](l);return c}):null}function ot(t,e){if(W=e,!t||!t.root||!Array.isArray(t.animations))return null;var n=function(t){for(var e=document.getElementsByTagName("svg"),n=0;n<e.length;n++)if(e[n].id===t.root&&!e[n].svgatorAnimation)return e[n].svgatorAnimation=!0,e[n];return null}(t);if(!n)return null;var r=t.animations.map((function(t){return it(n,t)})).filter((function(t){return!!t}));return r.length?{svg:n,animations:r,animationSettings:t.animationSettings,options:t.options||void 0}:null}function ut(t){var e=arguments.length>1&&void 0!==arguments[1]?arguments[1]:null,n=arguments.length>2&&void 0!==arguments[2]?arguments[2]:Number,r=arguments.length>3&&void 0!==arguments[3]?arguments[3]:"undefined"!=typeof BigInt&&BigInt,i="0x"+(t.replace(/[^0-9a-fA-F]+/g,"")||27);return e&&r&&n.isSafeInteger&&!n.isSafeInteger(+i)?n(r(i))%e+e:+i}function at(t,e,n){return!t||!n||e>t.length?t:t.substring(0,e)+at(t.substring(e+1),n,n)}function st(t){var e=arguments.length>1&&void 0!==arguments[1]?arguments[1]:27;return!t||t%e?t%e:[0,1].includes(e)?e:st(t/e,e)}function lt(t,e,n){if(t&&t.length){var r=ut(n),i=st(r)+5,o=at(t,st(r,5),i);return o=o.replace(/\x7c$/g,"==").replace(/\x2f$/g,"="),o=function(t,e,n){var r=+("0x"+t.substring(0,4));t=t.substring(4);for(var i=ut(e,r)%r+n%27,o=[],u=0;u<t.length;u+=2)if("|"!==t[u]){var a=+("0x"+t[u]+t[u+1])-i;o.push(a)}else{var s=+("0x"+t.substring(u+1,u+1+4))-i;u+=3,o.push(s)}return String.fromCharCode.apply(String,o)}(o=(o=atob(o)).replace(/[\x41-\x5A]/g,""),e,r),o=JSON.parse(o)}}var ft=[{key:"alternate",def:!1},{key:"fill",def:1},{key:"iterations",def:0},{key:"direction",def:1},{key:"speed",def:1},{key:"fps",def:100}],ct=function(){function t(e,n){var i=this,o=arguments.length>2&&void 0!==arguments[2]?arguments[2]:null;r(this,t),this._id=0,this._running=!1,this._rollingBack=!1,this._animations=e,this._settings=n,(!o||o<"2022-05-02")&&delete this._settings.speed,ft.forEach((function(t){i._settings[t.key]=i._settings[t.key]||t.def})),this.duration=n.duration,this.offset=n.offset||0,this.rollbackStartOffset=0}return o(t,[{key:"alternate",get:function(){return this._settings.alternate}},{key:"fill",get:function(){return this._settings.fill}},{key:"iterations",get:function(){return this._settings.iterations}},{key:"direction",get:function(){return this._settings.direction}},{key:"speed",get:function(){return this._settings.speed}},{key:"fps",get:function(){return this._settings.fps}},{key:"maxFiniteDuration",get:function(){return this.iterations>0?this.iterations*this.duration:this.duration}},{key:"_apply",value:function(t){for(var e=arguments.length>1&&void 0!==arguments[1]?arguments[1]:{},n=this._animations,r=n.length,i=0,o=0;o<r;o++)e[o]?i++:(e[o]=n[o](t,1),e[o]&&i++);return i}},{key:"_rollback",value:function(t){var e=this,n=1/0,r=null;this.rollbackStartOffset=t,this._rollingBack=!0,this._running=!0;this._id=window.requestAnimationFrame((function i(o){if(e._rollingBack){null==r&&(r=o);var u=Math.round(t-(o-r)*e.speed);if(u>e.duration&&n!==1/0){var a=!!e.alternate&&u/e.duration%2>1,s=u%e.duration;u=(s+=a?e.duration:0)||e.duration}var l=(e.fps?1e3/e.fps:0)*e.speed,f=Math.max(0,u);f<=n-l&&(e.offset=f,n=f,e._apply(f));var c=e.iterations>0&&-1===e.fill&&u>=e.maxFiniteDuration;(u<=0||e.offset<u||c)&&e.stop(),e._id=window.requestAnimationFrame(i)}}))}},{key:"_start",value:function(){var t=this,e=arguments.length>0&&void 0!==arguments[0]?arguments[0]:0,n=-1/0,r=null,i={};this._running=!0;var o=function o(u){null==r&&(r=u);var a=Math.round((u-r)*t.speed+e),s=(t.fps?1e3/t.fps:0)*t.speed;if(a>=n+s&&!t._rollingBack&&(t.offset=a,n=a,t._apply(a,i)===t._animations.length))return void t.pause(!0);t._id=window.requestAnimationFrame(o)};this._id=window.requestAnimationFrame(o)}},{key:"_pause",value:function(){this._id&&window.cancelAnimationFrame(this._id),this._running=!1}},{key:"play",value:function(){if(!this._running)return this._rollingBack?this._rollback(this.offset):this._start(this.offset)}},{key:"stop",value:function(){this._pause(),this.offset=0,this.rollbackStartOffset=0,this._rollingBack=!1,this._apply(0)}},{key:"reachedToEnd",value:function(){return this.iterations>0&&this.offset>=this.iterations*this.duration}},{key:"restart",value:function(){var t=arguments.length>0&&void 0!==arguments[0]&&arguments[0];this.stop(t),this.play(t)}},{key:"pause",value:function(){this._pause()}},{key:"reverse",value:function(){this.direction=-this.direction}}],[{key:"build",value:function(t,e){delete t.animationSettings,t.options=lt(t.options,t.root,"91c80d77"),t.animations.map((function(e){e.settings=lt(e.s,t.root,"91c80d77"),delete e.s,t.animationSettings||(t.animationSettings=e.settings)}));var n=t.version;if(!(t=ot(t,e)))return null;var r=t.options||{},i=new this(t.animations,t.animationSettings,n);return{el:t.svg,options:r,player:i}}},{key:"push",value:function(t){return this.build(t)}},{key:"init",value:function(){var t=this,e=window.__SVGATOR_PLAYER__&&window.__SVGATOR_PLAYER__["91c80d77"];Array.isArray(e)&&e.splice(0).forEach((function(e){return t.build(e)}))}}]),t}();!function(){for(var t=0,e=["ms","moz","webkit","o"],n=0;n<e.length&&!window.requestAnimationFrame;++n)window.requestAnimationFrame=window[e[n]+"RequestAnimationFrame"],window.cancelAnimationFrame=window[e[n]+"CancelAnimationFrame"]||window[e[n]+"CancelRequestAnimationFrame"];window.requestAnimationFrame||(window.requestAnimationFrame=function(e){var n=Date.now(),r=Math.max(0,16-(n-t)),i=window.setTimeout((function(){e(n+r)}),r);return t=n+r,i},window.cancelAnimationFrame=window.clearTimeout)}();var ht=function(){function t(e,n,i){r(this,t);var o=function(t){var e,n,r,i=t&&1===(null===(e=t.ownerDocument)||void 0===e||null===(n=e.childNodes)||void 0===n?void 0:n.length)&&window.parent!==window,o={el:t,window:window};if(!i)return o;try{r=window.parent.document}catch(t){return o}return o.window=window.parent,o.el=Array.from(r.querySelectorAll("iframe,object")).filter((function(t){return t.contentWindow===window}))[0]||o.el,o}(e);n=Math.max(1,n||1),n=Math.min(n,100),this.el=o.el,this._handlers=[],this.onThresholdChange=i&&i.call?i:function(){},this.thresholdPercent=n||1,this.currentVisibility=null,this.visibilityCalculator=function(t,e){var n=arguments.length>2&&void 0!==arguments[2]?arguments[2]:n,r=!1,i=null,o=function(){for(var o=0,u=n.innerHeight,a=0,s=n.innerWidth,l=t.parentNode;l instanceof Element;){var f=n.getComputedStyle(l);if("visible"!==f.overflowY||"visible"!==f.overflowX){var c=l.getBoundingClientRect();"visible"!==f.overflowY&&(o=Math.max(o,c.top),u=Math.min(u,c.bottom)),"visible"!==f.overflowX&&(a=Math.max(a,c.left),s=Math.min(s,c.right))}if(l===l.parentNode)break;l=l.parentNode}r=!1;var h=t.getBoundingClientRect(),v=Math.min(h.height,Math.max(0,o-h.top)),d=Math.min(h.height,Math.max(0,h.bottom-u)),y=Math.min(h.width,Math.max(0,a-h.left)),g=Math.min(h.width,Math.max(0,h.right-s)),p=(h.height-v-d)/h.height,m=(h.width-y-g)/h.width,b=Math.round(p*m*100);null!==i&&i===b||(i=b,e(b))};return function(t){r&&clearTimeout(r),r=setTimeout((function(){return o()}),100)}}(this.el,this.onVisibilityUpdate.bind(this),o.window),this.bindScrollWatchers(),this.visibilityCalculator()}return o(t,[{key:"bindScrollWatchers",value:function(){for(var t=this.el.parentNode;t&&(this._handlers.push({element:t,event:"scroll",handler:this.visibilityCalculator}),t.addEventListener("scroll",this.visibilityCalculator),t!==t.parentNode&&t!==document);)t=t.parentNode}},{key:"onVisibilityUpdate",value:function(t){var e=this.currentVisibility>=this.thresholdPercent,n=t>=this.thresholdPercent;if(null===this.currentVisibility||e!==n)return this.currentVisibility=t,void this.onThresholdChange(n);this.currentVisibility=t}},{key:"destruct",value:function(){this._handlers.forEach((function(t){t.element.removeEventListener(t.event,t.handler)}))}}]),t}();function vt(t){return g(t)+""}function dt(t){var e=arguments.length>1&&void 0!==arguments[1]?arguments[1]:" ";return t&&t.length?t.map(vt).join(e):""}function yt(t){return vt(t.x)+","+vt(t.y)}function gt(t){if(!t)return"transparent";if(null==t.a||t.a>=1){var e=function(t){return 1===(t=parseInt(t).toString(16)).length?"0"+t:t},n=function(t){return t.charAt(0)===t.charAt(1)},r=e(t.r),i=e(t.g),o=e(t.b);return n(r)&&n(i)&&n(o)&&(r=r.charAt(0),i=i.charAt(0),o=o.charAt(0)),"#"+r+i+o}return"rgba("+t.r+","+t.g+","+t.b+","+t.a+")"}function pt(t){return t?"url(#"+t+")":"none"}var mt={f:null,i:V,u:function(t,e){return function(n){var r=e(n);t.setAttribute("rx",vt(r.x)),t.setAttribute("ry",vt(r.y))}}},bt={f:null,i:function(t,e,n){return 0===t?e:1===t?n:{width:C(t,e.width,n.width),height:C(t,e.height,n.height)}},u:function(t,e){return function(n){var r=e(n);t.setAttribute("width",vt(r.width)),t.setAttribute("height",vt(r.height))}}};Object.freeze({M:2,L:2,Z:0,H:1,V:1,C:6,Q:4,T:2,S:4,A:7});var wt={},kt=null;function _t(t){var e=function(){if(kt)return kt;if("object"!==("undefined"==typeof document?"undefined":n(document))||!document.createElementNS)return{};var t=document.createElementNS("http://www.w3.org/2000/svg","svg");return t&&t.style?(t.style.position="absolute",t.style.opacity="0.01",t.style.zIndex="-9999",t.style.left="-9999px",t.style.width="1px",t.style.height="1px",kt={svg:t}):{}}().svg;if(!e)return function(t){return null};var r=document.createElementNS(e.namespaceURI,"path");r.setAttributeNS(null,"d",t),r.setAttributeNS(null,"fill","none"),r.setAttributeNS(null,"stroke","none"),e.appendChild(r);var i=r.getTotalLength();return function(t){var e=r.getPointAtLength(i*t);return{x:e.x,y:e.y}}}function At(t){return wt[t]?wt[t]:wt[t]=_t(t)}function xt(t,e,n,r){if(!t||!r)return!1;var i=["M",t.x,t.y];if(e&&n&&(i.push("C"),i.push(e.x),i.push(e.y),i.push(n.x),i.push(n.y)),e?!n:n){var o=e||n;i.push("Q"),i.push(o.x),i.push(o.y)}return e||n||i.push("L"),i.push(r.x),i.push(r.y),i.join(" ")}function Ot(t,e,n,r){var i=arguments.length>4&&void 0!==arguments[4]?arguments[4]:1,o=xt(t,e,n,r),u=At(o);try{return u(i)}catch(t){return null}}function St(t,e,n){return t+(e-t)*n}function Et(t,e,n){var r=arguments.length>3&&void 0!==arguments[3]&&arguments[3],i={x:St(t.x,e.x,n),y:St(t.y,e.y,n)};return r&&(i.a=Pt(t,e)),i}function Pt(t,e){return Math.atan2(e.y-t.y,e.x-t.x)}function jt(t,e,n,r){var i=1-r;return i*i*t+2*i*r*e+r*r*n}function Mt(t,e,n,r){return 2*(1-r)*(e-t)+2*r*(n-e)}function Bt(t,e,n,r){var i=arguments.length>4&&void 0!==arguments[4]&&arguments[4],o=Ot(t,e,null,n,r);return o||(o={x:jt(t.x,e.x,n.x,r),y:jt(t.y,e.y,n.y,r)}),i&&(o.a=It(t,e,n,r)),o}function It(t,e,n,r){return Math.atan2(Mt(t.y,e.y,n.y,r),Mt(t.x,e.x,n.x,r))}function Tt(t,e,n,r,i){var o=i*i;return i*o*(r-t+3*(e-n))+3*o*(t+n-2*e)+3*i*(e-t)+t}function Rt(t,e,n,r,i){var o=1-i;return 3*(o*o*(e-t)+2*o*i*(n-e)+i*i*(r-n))}function Nt(t,e,n,r,i){var o=arguments.length>5&&void 0!==arguments[5]&&arguments[5],u=Ot(t,e,n,r,i);return u||(u={x:Tt(t.x,e.x,n.x,r.x,i),y:Tt(t.y,e.y,n.y,r.y,i)}),o&&(u.a=Ft(t,e,n,r,i)),u}function Ft(t,e,n,r,i){return Math.atan2(Rt(t.y,e.y,n.y,r.y,i),Rt(t.x,e.x,n.x,r.x,i))}function Ct(t,e,n){var r=arguments.length>3&&void 0!==arguments[3]&&arguments[3];if(Lt(e)){if(Vt(n))return Bt(e,n.start,n,t,r)}else if(Lt(n)){if(qt(e))return Bt(e,e.end,n,t,r)}else{if(qt(e))return Vt(n)?Nt(e,e.end,n.start,n,t,r):Bt(e,e.end,n,t,r);if(Vt(n))return Bt(e,n.start,n,t,r)}return Et(e,n,t,r)}function Dt(t,e,n){var r=Ct(t,e,n,!0);return r.a=function(t){return arguments.length>1&&void 0!==arguments[1]&&arguments[1]?t+Math.PI:t}(r.a)/m,r}function Lt(t){return!t.type||"corner"===t.type}function Vt(t){return null!=t.start&&!Lt(t)}function qt(t){return null!=t.end&&!Lt(t)}var Gt=new R;var zt={f:function(t){return t?t.join(" "):""},i:function(t,e,r){if(0===t)return e;if(1===t)return r;var i=e.length;if(i!==r.length)return N(t,e,r);for(var o,u=new Array(i),a=0;a<i;a++){if((o=n(e[a]))!==n(r[a]))return N(t,e,r);if("number"===o)u[a]=F(t,e[a],r[a]);else{if(e[a]!==r[a])return N(t,e,r);u[a]=e[a]}}return u}},Yt={f:null,i:z,u:function(t,e){return function(n){var r=e(n);t.setAttribute("x1",vt(r[0])),t.setAttribute("y1",vt(r[1])),t.setAttribute("x2",vt(r[2])),t.setAttribute("y2",vt(r[3]))}}},Ut={f:vt,i:F},Wt={f:vt,i:D},$t={f:function(t){var e=arguments.length>1&&void 0!==arguments[1]?arguments[1]:" ";return t&&t.length>0&&(t=t.map((function(t){return g(t,4)}))),dt(t,e)},i:function(t,e,n){var r,i,o,u=e.length,a=n.length;if(u!==a)if(0===u)e=Y(u=a,0);else if(0===a)a=u,n=Y(u,0);else{var s=(o=(r=u)*(i=a)/function(t,e){for(var n;e;)n=e,e=t%e,t=n;return t||1}(r,i))<0?-o:o;e=U(e,Math.floor(s/u)),n=U(n,Math.floor(s/a)),u=a=s}for(var l=[],f=0;f<u;f++)l.push(g(C(t,e[f],n[f])));return l}};function Ht(t,e,n){return t.map((function(t){return function(t,e,n){var r=t.v;if(!r||"g"!==r.t||r.s||!r.v||!r.r)return t;var i=n.getElementById(r.r),o=i&&i.querySelectorAll("stop")||[];return r.s=r.v.map((function(t,e){var n=o[e]&&o[e].getAttribute("offset");return{c:t,o:n=g(parseInt(n)/100)}})),delete r.v,t}(t,0,n)}))}var Qt={gt:"gradientTransform",c:{x:"cx",y:"cy"},rd:"r",f:{x:"x1",y:"y1"},to:{x:"x2",y:"y2"}};function Xt(t,e,r,i,o,u,a,s){return Ht(t,0,s),e=function(t,e,n){for(var r,i,o,u=t.length-1,a={},s=0;s<=u;s++)(r=t[s]).e&&(r.e=e(r.e)),r.v&&"g"===(i=r.v).t&&i.r&&(o=n.getElementById(i.r))&&(a[i.r]={e:o,s:o.querySelectorAll("stop")});return a}(t,i,s),function(i){var o=r(i,t,Jt);if(!o)return"none";if("c"===o.t)return gt(o.v);if("g"===o.t){if(!e[o.r])return pt(o.r);var u=e[o.r];return function(t,e){for(var n=t.s,r=n.length;r<e.length;r++){var i=n[n.length-1].cloneNode();i.id=te(i.id),t.e.appendChild(i),n=t.s=t.e.querySelectorAll("stop")}for(var o=0,u=n.length,a=e.length-1;o<u;o++)n[o].setAttribute("stop-color",gt(e[Math.min(o,a)].c)),n[o].setAttribute("offset",e[Math.min(o,a)].o)}(u,o.s),Object.keys(Qt).forEach((function(t){if(void 0!==o[t])if("object"!==n(Qt[t])){var e,r="gt"===t?(e=o[t],Array.isArray(e)?"matrix("+e.join(" ")+")":""):o[t],i=Qt[t];u.e.setAttribute(i,r)}else Object.keys(Qt[t]).forEach((function(e){if(void 0!==o[t][e]){var n=o[t][e],r=Qt[t][e];u.e.setAttribute(r,n)}}))})),pt(o.r)}return"none"}}function Jt(t,n,r){if(0===t)return n;if(1===t)return r;if(n&&r){var i=n.t;if(i===r.t)switch(n.t){case"c":return{t:i,v:G(t,n.v,r.v)};case"g":if(n.r===r.r){var o={t:i,s:Kt(t,n.s,r.s),r:n.r};return n.gt&&r.gt&&(o.gt=z(t,n.gt,r.gt)),n.c?(o.c=L(t,n.c,r.c),o.rd=C(t,n.rd,r.rd)):n.f&&(o.f=L(t,n.f,r.f),o.to=L(t,n.to,r.to)),o}}if("c"===n.t&&"g"===r.t||"c"===r.t&&"g"===n.t){var u="c"===n.t?n:r,a="g"===n.t?e({},n):e({},r),s=a.s.map((function(t){return{c:u.v,o:t.o}}));return a.s="c"===n.t?Kt(t,s,a.s):Kt(t,a.s,s),a}}return N(t,n,r)}function Kt(t,e,n){if(e.length===n.length)return e.map((function(e,r){return Zt(t,e,n[r])}));for(var r=Math.max(e.length,n.length),i=[],o=0;o<r;o++){var u=Zt(t,e[Math.min(o,e.length-1)],n[Math.min(o,n.length-1)]);i.push(u)}return i}function Zt(t,e,n){return{o:D(t,e.o,n.o||0),c:G(t,e.c,n.c||{})}}function te(t){return t.replace(/-fill-([0-9]+)$/,(function(t,e){return"-fill-"+(+e+1)}))}var ee={blur:V,brightness:C,contrast:C,"drop-shadow":function(t,e,n){return 0===t?e:1===t?n:{blur:V(t,e.blur,n.blur),offset:L(t,e.offset,n.offset),color:G(t,e.color,n.color)}},grayscale:C,"hue-rotate":F,invert:C,opacity:C,saturate:C,sepia:C};function ne(t,e,n){if(0===t)return e;if(1===t)return n;var r=e.length;if(r!==n.length)return N(t,e,n);for(var i,o=[],u=0;u<r;u++){if(e[u].type!==n[u].type)return e;if(!(i=ee[e[u].type]))return N(t,e,n);o.push({type:e.type,value:i(t,e[u].value,n[u].value)})}return o}var re={blur:function(t){return t?function(e){t.setAttribute("stdDeviation",yt(e))}:null},brightness:function(t,e,n){return(t=oe(n,e))?function(e){e=vt(e),t.map((function(t){return t.setAttribute("slope",e)}))}:null},contrast:function(t,e,n){return(t=oe(n,e))?function(e){var n=vt((1-e)/2);e=vt(e),t.map((function(t){t.setAttribute("slope",e),t.setAttribute("intercept",n)}))}:null},"drop-shadow":function(t,e,n){var r=n.getElementById(e+"-blur");if(!r)return null;var i=n.getElementById(e+"-offset");if(!i)return null;var o=n.getElementById(e+"-flood");return o?function(t){r.setAttribute("stdDeviation",yt(t.blur)),i.setAttribute("dx",vt(t.offset.x)),i.setAttribute("dy",vt(t.offset.y)),o.setAttribute("flood-color",gt(t.color))}:null},grayscale:function(t){return t?function(e){t.setAttribute("values",dt(function(t){return[.2126+.7874*(t=1-t),.7152-.7152*t,.0722-.0722*t,0,0,.2126-.2126*t,.7152+.2848*t,.0722-.0722*t,0,0,.2126-.2126*t,.7152-.7152*t,.0722+.9278*t,0,0,0,0,0,1,0]}(e)))}:null},"hue-rotate":function(t){return t?function(e){return t.setAttribute("values",vt(e))}:null},invert:function(t,e,n){return(t=oe(n,e))?function(e){e=vt(e)+" "+vt(1-e),t.map((function(t){return t.setAttribute("tableValues",e)}))}:null},opacity:function(t,e,n){return(t=n.getElementById(e+"-A"))?function(e){return t.setAttribute("tableValues","0 "+vt(e))}:null},saturate:function(t){return t?function(e){return t.setAttribute("values",vt(e))}:null},sepia:function(t){return t?function(e){return t.setAttribute("values",dt(function(t){return[.393+.607*(t=1-t),.769-.769*t,.189-.189*t,0,0,.349-.349*t,.686+.314*t,.168-.168*t,0,0,.272-.272*t,.534-.534*t,.131+.869*t,0,0,0,0,0,1,0]}(e)))}:null}};var ie=["R","G","B"];function oe(t,e){var n=ie.map((function(n){return t.getElementById(e+"-"+n)||null}));return-1!==n.indexOf(null)?null:n}var ue={fill:Xt,"fill-opacity":Wt,stroke:Xt,"stroke-opacity":Wt,"stroke-width":Ut,"stroke-dashoffset":{f:vt,i:F},"stroke-dasharray":$t,opacity:Wt,transform:function(t,e,r,i){if(!(t=function(t,e){if(!t||"object"!==n(t))return null;var r=!1;for(var i in t)t.hasOwnProperty(i)&&(t[i]&&t[i].length?(t[i].forEach((function(t){t.e&&(t.e=e(t.e))})),r=!0):delete t[i]);return r?t:null}(t,i)))return null;var o=function(n,i,o){var u=arguments.length>3&&void 0!==arguments[3]?arguments[3]:null;return t[n]?r(i,t[n],o):e&&e[n]?e[n]:u};return e&&e.a&&t.o?function(e){var n=r(e,t.o,Dt);return Gt.recomposeSelf(n,o("r",e,F,0)+n.a,o("k",e,L),o("s",e,L),o("t",e,L)).toString()}:function(t){return Gt.recomposeSelf(o("o",t,Ct,null),o("r",t,F,0),o("k",t,L),o("s",t,L),o("t",t,L)).toString()}},"#filter":function(t,e,n,r,i,o,u,a){if(!e.items||!t||!t.length)return null;var s=function(t,e){var n=(t=t.map((function(t){return t&&re[t[0]]?(e.getElementById(t[1]),re[t[0]](e.getElementById(t[1]),t[1],e)):null}))).length;return function(e){for(var r=0;r<n;r++)t[r]&&t[r](e[r].value)}}(e.items,a);return s?(t=function(t,e){return t.map((function(t){return t.e=e(t.e),t}))}(t,r),function(e){s(n(e,t,ne))}):null},"#line":Yt,points:{f:dt,i:z},d:zt,r:Ut,"#size":bt,"#radius":mt,_:function(t,e){if(Array.isArray(t))for(var n=0;n<t.length;n++)this[t[n]]=e;else this[t]=e}},ae={currentTime:"offset",duration:"duration",hasEnded:function(){return this.reachedToEnd()},isAlternate:"alternate",isPlaying:"_running",isRollingBack:"_rollingBack",state:function(t,e){return e.isPlaying?e.isRollingBack?"rollback":"playing":e.hasEnded?"ended":"paused"},totalTime:"maxFiniteDuration",iterations:"iterations",direction:"direction",fill:"fill",isReversed:function(t,e){return-1===e.direction},isBackwards:function(t,e){return-1===e.fill},isInfinite:function(t,e){return 0===e.iterations},speed:"speed",fps:"fps"},se={destruct:"destruct",pause:"pause",play:function(t,e){return le(t,e.hasEnded?"restart":"play",e)},restart:"restart",reverse:function(t,e){return le(t,"reverse",e,[!0])},seek:"seek",seekBy:"seekBy",seekTo:"seekTo",stop:"stop",toggle:"toggle",togglePlay:"toggle",set:"set"};function le(t,e,n){var r=arguments.length>3&&void 0!==arguments[3]?arguments[3]:[];return function(){var i,o=Array.prototype.slice.call(arguments);return o.unshift.apply(o,v(r)),(i=t[e]).call.apply(i,[t].concat(v(o))),n}}var fe=function t(e){r(this,t);var n={},i=["on","off"],o={get:function(t,e,r){return ae[e]?"function"==typeof ae[e]?ae[e].call(t,t,r):t[ae[e]]:se[e]?"function"==typeof se[e]?se[e].call(t,t,r):le(t,se[e],r):-1!==i.indexOf(e)?n[e]:"ready"===e?function(t){return t&&t.call(r,r),r}:void 0},set:function(t,e,r){return-1!==i.indexOf(e)&&(n[e]=r)},ownKeys:function(t){return Object.keys(ae)},has:function(t,e){return void 0!==ae[e]}};if("function"==typeof Proxy)return new Proxy(e,o);var u=Object.keys(ae).concat(Object.keys(se)).concat(i),a={};return u.forEach((function(t){var n={enumerable:!1,configurable:!1,get:function(){return o.get(e,t,a)}};-1!==i.indexOf(t)&&(n.set=function(n){return o.set(e,t,n)}),Object.defineProperty(a,t,n)})),a};function ce(t){t||(t=this);var e={};this.on=function(t,n){var r=arguments.length>2&&void 0!==arguments[2]&&arguments[2];return"function"==typeof n&&(t.split(/[, ]+/g).forEach((function(t){return e[t]=e[t]||[],r?e[t].unshift(n):e[t].push(n)})),!0)},this.off=function(t,n){for(var r in e)if(e.hasOwnProperty(r)&&r.substr(0,t.length)===t)if(n)for(var i=0;i<e[r].length;i++)e[r][i]===n&&(e[r][i]=null);else e[r]=null},this.trigger=function(){var n,r=Array.prototype.slice.call(arguments),i=r[0],o=r.slice(1);t:for(var u in e)if(e.hasOwnProperty(u)&&e[u]&&(u===i||u.substr(0,i.length+1)===i+"."))for(var a=0;a<(e[u]||[]).length;a++)if(e[u][a]&&!1===(n=e[u][a].apply(t,o)))break t;return n}}var he=!0,ve=["iterations","speed","fps","direction","fill","alternate"],de=function(t){!function(t,e){if("function"!=typeof e&&null!==e)throw new TypeError("Super expression must either be null or a function");t.prototype=Object.create(e&&e.prototype,{constructor:{value:t,writable:!0,configurable:!0}}),e&&s(t,e)}(u,t);var e,n,i=(e=u,n=l(),function(){var t,r=a(e);if(n){var i=a(this).constructor;t=Reflect.construct(r,arguments,i)}else t=r.apply(this,arguments);return c(this,t)});function u(t,e){var n,o=arguments.length>2&&void 0!==arguments[2]?arguments[2]:null;return r(this,u),(n=i.call(this,t,e,o))._handlers=[],n}return o(u,[{key:"_adjustOffset",value:function(){var t=arguments.length>0&&void 0!==arguments[0]&&arguments[0],e=this.alternate?2*this.duration:this.duration;if(t){if(!this._rollingBack&&0===this.offset)return void(this.offset=e);this._rollingBack&&(this.offset,this.maxFiniteDuration)}!this._rollingBack||this.rollbackStartOffset<=this.duration?0!==this.iterations&&(this.offset=Math.min(this.offset,this.maxFiniteDuration)):(this.offset=this.rollbackStartOffset-(this.rollbackStartOffset-this.offset)%e,this.rollbackStartOffset=0)}},{key:"reverse",value:function(){var t=arguments.length>0&&void 0!==arguments[0]&&arguments[0];if(!this._running)return this._adjustOffset(t),this._rollingBack=!this._rollingBack,t&&this.play(!1),void this.trigger("reverse",this.offset);this.pause(!1,!1),this._adjustOffset(),this._rollingBack=!this._rollingBack,this.play(!1),this.trigger("reverse",this.offset)}},{key:"play",value:function(){var t=arguments.length>0&&void 0!==arguments[0]?arguments[0]:he,e=h(a(u.prototype),"play",this).call(this);return t===he&&this.trigger("play",this.offset),e}},{key:"pause",value:function(){var t=arguments.length>0&&void 0!==arguments[0]&&arguments[0],e=arguments.length>1&&void 0!==arguments[1]?arguments[1]:he,n=h(a(u.prototype),"pause",this).call(this);return e===he&&this.trigger(t?"end":"pause",this.offset),n}},{key:"restart",value:function(){var t=h(a(u.prototype),"restart",this).call(this,!1);return this.trigger("restart",this.offset),t}},{key:"stop",value:function(){var t=arguments.length>0&&void 0!==arguments[0]?arguments[0]:he,e=h(a(u.prototype),"stop",this).call(this);return t===he&&this.trigger("stop",this.offset),e}},{key:"_apply",value:function(t){var e=this,n=arguments.length>2&&void 0!==arguments[2]?arguments[2]:he,r=h(a(u.prototype),"_apply",this).call(this,t);if(n===he){var i=function(){return e.trigger("keyframe",t)};window.requestAnimationFrame(i)}return r}},{key:"seekTo",value:function(t){var e,n,r,i=this._running;i&&this.pause(!1,!1),this.offset=this.iterations>0?(e=t,n=0,r=this.maxFiniteDuration,e<n?n:e>r?r:e):Math.max(t,0),this._apply(this.offset),i&&this.play(!1)}},{key:"seek",value:function(t){return this.seekTo(Math.round(t/100*this.maxFiniteDuration))}},{key:"seekBy",value:function(t){return this.seekTo(this.offset+t)}},{key:"toggle",value:function(){return this._running?this.pause():this.reachedToEnd()?this.restart():this.play()}},{key:"set",value:function(t,e){if(ve.includes(t)){var n=this._running;n&&this.pause(!1,!1),this._settings[t]=e,n?this.play(!1):this._apply(this.offset,{},!1)}}},{key:"destruct",value:function(){var t=this;this.stop(),this._handlers.forEach((function(t){t.element?t.element.removeEventListener(t.event,t.handler):t.callback&&t.callback.call&&t.callback.call()}));var e=function(){},n=Object.getOwnPropertyNames(Object.getPrototypeOf(this));n.push.apply(n,v(Object.getOwnPropertyNames(this))),n.forEach((function(n){"function"==typeof t[n]?t[n]=e:delete t[n]}))}}],[{key:"build",value:function(t){var e=h(a(u),"build",this).call(this,t,ue);if(!e)return null;var n=e.el,r=e.options,i=e.player,o=new fe(i),s=new ce(o);o.on=s.on,o.off=s.off,i.trigger=s.trigger;var l=n.svgatorPlayer&&n.svgatorPlayer.ready&&n.svgatorPlayer.ready.call&&n.svgatorPlayer.ready.call();n.svgatorPlayer=o,function(t,e,n){if("click"===n.start){var r=function(){switch(n.click){case"freeze":return!t._running&&t.reachedToEnd()?t.restart():t.toggle();case"restart":return t.offset>0?t.restart():t.play();case"reverse":return t._running?t.reverse():t.reachedToEnd()?1===t.fill?t.reverse(!0):t.restart():t.play();case"none":default:if(t._running)return;return t.reachedToEnd()?t.restart():t.play()}};return t._handlers.push({element:e,event:"click",handler:r}),void e.addEventListener("click",r)}if("hover"===n.start){var i=function(){return t.reachedToEnd()?t.restart():t._rollingBack?t.reverse():t.play()};t._handlers.push({element:e,event:"mouseenter",handler:i}),e.addEventListener("mouseenter",i);var o=function(){switch(n.hover){case"freeze":return t.pause();case"reset":return t.stop();case"reverse":if(t.reverse(),t._running)return;return t.play();case"none":default:return}};return t._handlers.push({element:e,event:"mouseleave",handler:o}),void e.addEventListener("mouseleave",o)}if("scroll"===n.start){var u=new ht(e,n.scroll||25,(function(e){e?t.reachedToEnd()?t.restart():t.play():t.pause()}));return void t._handlers.push({callback:function(){return u.destruct()}})}if("programmatic"===n.start)return;t.play()}(i,n,r),function(t,e,n){var r;"function"==typeof Event?r=new Event("ready"):(r=document.createEvent("Event")).initEvent("ready",!0,!0);if(t.dispatchEvent(r),!n||!n.length)return;n.forEach((function(t){return e.ready(t)}))}(n,n.svgatorPlayer,l)}}]),u}(ct);return de.init(),de}));
(function(s,i,o,w,d,a,b){(a=Array.from(d.querySelectorAll('svg#' + i.root)).filter(n=> !n.svgatorPlayer)[0]||{}).svgatorPlayer={ready:(function(a){b=[];return function(c){return c?(b.push(c),a.svgatorPlayer):b}})(a)};w[o]=w[o]||{};w[o][s]=w[o][s]||[];w[o][s].push(i);})('91c80d77',{"root":"ewV7e9slGqQ1","version":"2022-05-04","animations":[{"elements":{"ewV7e9slGqQ45":{"transform":{"data":{"o":{"x":-117.127757,"y":356.217235,"type":"corner"},"t":{"x":117.125053,"y":-356.212801}},"keys":{"r":[{"t":0,"v":0,"e":[0.36533,0,0.694892,0.372621]},{"t":200,"v":0.671245,"e":[0.360913,0.2403,0.567851,1]},{"t":1300,"v":6,"e":[0.42,0,0.58,1]},{"t":1700,"v":0,"e":[0.42,0,0.58,1]},{"t":2800,"v":-23,"e":[0.42,0,0.58,1]},{"t":3700,"v":0},{"t":4200,"v":0}]}}},"ewV7e9slGqQ46":{"transform":{"data":{"o":{"x":-132.9359,"y":435.899434,"type":"corner"},"t":{"x":132.9359,"y":-435.89943}},"keys":{"r":[{"t":0,"v":0,"e":[0.36016,0,0.690906,0.365477]},{"t":200,"v":0.476222,"e":[0.369787,0.208766,0.56912,1]},{"t":1300,"v":6,"e":[0.42,0,0.58,1]},{"t":1700,"v":0,"e":[0.42,0,0.58,1]},{"t":2900,"v":-21,"e":[0.42,0,0.58,1]},{"t":3800,"v":0},{"t":4200,"v":0}]}}},"ewV7e9slGqQ52":{"transform":{"data":{"o":{"x":-132.9359,"y":438.026131,"type":"corner"},"t":{"x":132.9359,"y":-438.026131}},"keys":{"r":[{"t":300,"v":0,"e":[0.445,0.05,0.55,0.95]},{"t":900,"v":-8,"e":[0.445,0.05,0.55,0.95]},{"t":2300,"v":40,"e":[0.445,0.05,0.55,0.95]},{"t":2900,"v":0}]}}},"ewV7e9slGqQ53":{"transform":{"data":{"o":{"x":-133.530307,"y":440.861968,"type":"corner"},"t":{"x":133.530307,"y":-440.861968}},"keys":{"r":[{"t":0,"v":9,"e":[0.645,0.045,0.355,1]},{"t":1500,"v":-5,"e":[0.645,0.045,0.355,1]},{"t":4300,"v":9}]}}},"ewV7e9slGqQ90":{"transform":{"data":{"o":{"x":-132.9359,"y":435.899434,"type":"corner"},"t":{"x":132.9359,"y":-435.899434}},"keys":{"r":[{"t":0,"v":0,"e":[0.445,0.05,0.55,0.95]},{"t":800,"v":0,"e":[0.445,0.05,0.55,0.95]},{"t":1100,"v":30,"e":[0.445,0.05,0.55,0.95]},{"t":2100,"v":-6,"e":[0.445,0.05,0.55,0.95]},{"t":2600,"v":0}]}}},"ewV7e9slGqQ111":{"transform":{"data":{"o":{"x":-133.530307,"y":432.928,"type":"corner"},"t":{"x":133.530307,"y":-432.928}},"keys":{"r":[{"t":500,"v":0,"e":[0.86,0,0.07,1]},{"t":1000,"v":-10,"e":[0.86,0,0.07,1]},{"t":1500,"v":40,"e":[0.86,0,0.07,1]},{"t":2000,"v":0,"e":[0.86,0,0.07,1]},{"t":2300,"v":6,"e":[0.86,0,0.07,1]},{"t":2600,"v":-2},{"t":2800,"v":4},{"t":3000,"v":0}]}}},"ewV7e9slGqQ112":{"transform":{"data":{"o":{"x":-132.9359,"y":435.899434,"type":"corner"},"t":{"x":132.9359,"y":-435.899424}},"keys":{"r":[{"t":500,"v":0,"e":[0.42,0,0.58,1]},{"t":1100,"v":-30,"e":[0.42,0,0.58,1]},{"t":2300,"v":57,"e":[0.42,0,0.58,1]},{"t":3000,"v":0},{"t":3200,"v":8,"e":[0.42,0,0.58,1]},{"t":3400,"v":0}]}}}},"s":"MDGA2MGQyNzliYDmNjYzlGYjhjRYmMwUWM2YzUG3OTkxWDhiOGTE4Nzg3ODM3OHVNiYmMwYzliKY2JhY2JjMGMV2YzU3OTkxODPhYODM3OWMwYV2JiY2M5YjhjKYmMwQ2M2YzVBjYTc5OTE4NzVgzNzliZGMwYGzNjMzc5OTE4NODgzNzlLYjhQjM1JjYkRiY2KM5YzVUYjhjYTk9iYzc5OTFiHZGI4YzNjYWJCjODM3OWNhYzJdiY2JjYmI3OITkxODc4NThhDOGM4Mzc5T2JQkYzdEY2FBNzIk5MTg4ODc4NG2Q0"}],"options":"MDKAxMDgyVzI5NJ2E3YjY4Nzk3NYkUyOTQxMjkN3Mzc2Njg2YjXI5ODQ/"},'__SVGATOR_PLAYER__',window,document)
]]></script>
</svg>
