<svg width="354" height="151" viewBox="0 0 354 151" fill="none" xmlns="http://www.w3.org/2000/svg">
<path d="M35.4611 91.6786H-24V151H35.4611V91.6786Z" fill="url(#paint0_linear_414_2361)"/>
<path d="M35.4611 151L61.7321 80.2457L35.4611 91.6786V151Z" fill="#D01400"/>
<path d="M-24 91.6786L61.7321 80.2457L35.4611 91.6786H-24Z" fill="#D01400"/>
<path d="M2.8434 116.326V113.216C2.8434 113.105 2.73087 112.994 2.61834 112.994H-1.17023C-1.28276 112.994 -1.3953 113.105 -1.3953 113.216V116.326C-1.3953 116.437 -1.28276 116.548 -1.17023 116.548H2.61834C2.73087 116.548 2.8434 116.474 2.8434 116.326Z" fill="white"/>
<path d="M3.66863 116.548H7.4572C7.56974 116.548 7.68227 116.437 7.68227 116.326V113.216C7.68227 113.105 7.56974 112.994 7.4572 112.994H3.66863C3.5561 112.994 3.44357 113.105 3.44357 113.216V116.326C3.40606 116.474 3.51859 116.548 3.66863 116.548Z" fill="white"/>
<path d="M12.2586 112.994H8.46999C8.35746 112.994 8.24493 113.105 8.24493 113.216V116.326C8.24493 116.437 8.35746 116.548 8.46999 116.548H12.2586C12.3711 116.548 12.4836 116.437 12.4836 116.326V113.216C12.4836 113.105 12.3711 112.994 12.2586 112.994Z" fill="white"/>
<path d="M5.01901 117.14H1.23045C1.11792 117.14 1.00538 117.251 1.00538 117.362V120.472C1.00538 120.583 1.11792 120.694 1.23045 120.694H5.01901C5.13155 120.694 5.24408 120.583 5.24408 120.472V117.362C5.24408 117.251 5.13155 117.14 5.01901 117.14Z" fill="white"/>
<path d="M9.85788 117.14H6.06931C5.95678 117.14 5.84425 117.251 5.84425 117.362V120.472C5.84425 120.583 5.95678 120.694 6.06931 120.694H9.85788C9.97041 120.694 10.0829 120.583 10.0829 120.472V117.362C10.0829 117.251 9.97041 117.14 9.85788 117.14Z" fill="white"/>
<path d="M-2.22053 108.922H-6.0091C-6.12163 108.922 -6.23416 109.033 -6.23416 109.144V112.254C-6.23416 112.365 -6.12163 112.476 -6.0091 112.476H-2.22053C-2.108 112.476 -1.99546 112.365 -1.99546 112.254V109.144C-1.99546 109.033 -2.108 108.922 -2.22053 108.922Z" fill="white"/>
<path d="M-1.17023 112.476H2.61834C2.73087 112.476 2.8434 112.365 2.8434 112.254V109.144C2.8434 109.033 2.73087 108.922 2.61834 108.922H-1.17023C-1.28276 108.922 -1.3953 109.033 -1.3953 109.144V112.254C-1.3953 112.402 -1.32027 112.476 -1.17023 112.476Z" fill="white"/>
<path d="M3.66863 112.476H7.4572C7.56974 112.476 7.68227 112.365 7.68227 112.254V109.144C7.68227 109.033 7.56974 108.922 7.4572 108.922H3.66863C3.51859 108.922 3.40606 109.033 3.40606 109.144V112.254C3.40606 112.402 3.51859 112.476 3.66863 112.476Z" fill="white"/>
<path d="M12.2586 108.922H8.46999C8.35746 108.922 8.24493 109.033 8.24493 109.144V112.254C8.24493 112.365 8.35746 112.476 8.46999 112.476H12.2586C12.3711 112.476 12.4836 112.365 12.4836 112.254V109.144C12.4836 109.033 12.3711 108.922 12.2586 108.922Z" fill="white"/>
<path d="M17.0974 108.922H13.3089C13.1963 108.922 13.0838 109.033 13.0838 109.144V112.254C13.0838 112.365 13.1963 112.476 13.3089 112.476H17.0974C17.21 112.476 17.3225 112.365 17.3225 112.254V109.144C17.3225 109.033 17.21 108.922 17.0974 108.922Z" fill="white"/>
<path d="M-11.2981 123.211C-11.7857 123.211 -12.1983 123.619 -12.1983 124.1C-12.1983 124.581 -11.7857 124.988 -11.2981 124.988C-10.8105 124.988 -10.3978 124.581 -10.3978 124.1C-10.4353 123.619 -10.8105 123.211 -11.2981 123.211Z" fill="white"/>
<path d="M-8.70986 123.211C-9.1975 123.211 -9.61011 123.619 -9.61011 124.1C-9.61011 124.581 -9.1975 124.988 -8.70986 124.988C-8.22222 124.988 -7.84712 124.581 -7.84712 124.1C-7.84712 123.619 -8.22222 123.211 -8.70986 123.211Z" fill="white"/>
<path d="M-6.19665 123.211C-6.68429 123.211 -7.0969 123.619 -7.0969 124.1C-7.0969 124.581 -6.68429 124.988 -6.19665 124.988C-5.70901 124.988 -5.2964 124.581 -5.2964 124.1C-5.2964 123.619 -5.70901 123.211 -6.19665 123.211Z" fill="white"/>
<path d="M-3.75846 124.988C-3.27082 124.988 -2.85821 124.581 -2.85821 124.1C-2.85821 123.619 -3.27082 123.211 -3.75846 123.211C-4.2461 123.211 -4.65872 123.619 -4.65872 124.1C-4.62121 124.581 -4.2461 124.988 -3.75846 124.988Z" fill="white"/>
<path d="M2.05568 123.248C1.75559 123.1 1.38049 123.211 1.23045 123.507L0.480234 124.877C0.442724 124.877 0.442724 124.877 0.405214 124.877C-0.420019 124.877 -1.0577 125.544 -1.0577 126.321C-1.0577 126.506 -1.02019 126.654 -0.982679 126.802L-2.07048 127.876L-3.57091 126.395V125.507C-2.85821 125.395 -2.33306 124.803 -2.33306 124.063C-2.33306 123.47 -2.67065 122.989 -3.15829 122.767L-2.55812 117.584C-2.52061 117.251 -2.74567 116.955 -3.12078 116.918C-3.45838 116.881 -3.75846 117.103 -3.79597 117.473L-4.43365 122.804C-4.69623 122.915 -4.92129 123.1 -5.07133 123.359C-5.22137 123.137 -5.44644 122.952 -5.6715 122.841L-5.07133 116.178C-5.03382 115.844 -5.2964 115.548 -5.63399 115.511C-5.97159 115.474 -6.27167 115.733 -6.30918 116.067L-6.90935 122.841C-7.17192 122.952 -7.39699 123.137 -7.54703 123.396C-7.69707 123.174 -7.92214 122.989 -8.1472 122.878L-7.54703 116.659C-7.50952 116.326 -7.77209 116.03 -8.10969 115.993C-8.44729 115.956 -8.74737 116.215 -8.78488 116.548L-9.38505 122.767C-9.64762 122.878 -9.87269 123.063 -10.0227 123.322C-10.1728 123.1 -10.3978 122.915 -10.6229 122.804L-10.0227 118.14C-9.98522 117.807 -10.2103 117.51 -10.5479 117.436C-10.8855 117.399 -11.1856 117.621 -11.2606 117.955L-11.8983 122.767C-12.3859 123.026 -12.7235 123.507 -12.7235 124.1C-12.7235 124.84 -12.1983 125.432 -11.4856 125.544V128.764C-11.4856 128.801 -11.4856 128.801 -11.4856 128.838L-10.2853 133.503C-10.2478 133.614 -10.1728 133.688 -10.0602 133.688H-5.6715C-5.59648 133.688 -5.55897 133.651 -5.52146 133.614L-1.09521 129.245C-1.02019 129.171 -1.02019 129.023 -1.09521 128.912L-1.24525 128.764L-0.157446 127.691C-0.00740433 127.765 0.180151 127.765 0.330193 127.765C1.15543 127.765 1.79311 127.098 1.79311 126.321C1.79311 125.988 1.68057 125.692 1.49302 125.432L2.24323 124.063C2.4683 123.767 2.35576 123.396 2.05568 123.248ZM-11.2606 125.247C-11.8983 125.247 -12.3859 124.729 -12.3859 124.137C-12.3859 123.507 -11.8607 123.026 -11.2606 123.026C-10.6604 123.026 -10.1353 123.545 -10.1353 124.137C-10.1353 124.766 -10.6229 125.247 -11.2606 125.247ZM-8.74737 125.284C-9.38505 125.284 -9.87269 124.766 -9.87269 124.174C-9.87269 123.545 -9.34754 123.063 -8.74737 123.063C-8.1472 123.063 -7.62205 123.582 -7.62205 124.174C-7.58454 124.803 -8.10969 125.284 -8.74737 125.284ZM-3.75846 123.026C-3.12078 123.026 -2.63314 123.545 -2.63314 124.137C-2.63314 124.766 -3.15829 125.247 -3.75846 125.247C-4.39614 125.247 -4.88378 124.729 -4.88378 124.137C-4.88378 123.507 -4.35863 123.026 -3.75846 123.026ZM-6.23416 125.284C-6.87184 125.284 -7.35948 124.766 -7.35948 124.174C-7.35948 123.545 -6.83433 123.063 -6.23416 123.063C-5.63399 123.063 -5.10884 123.582 -5.10884 124.174C-5.10884 124.766 -5.59648 125.284 -6.23416 125.284ZM-5.48395 132.133L-4.13357 127.061L-2.22053 128.949L-5.48395 132.133ZM0.367702 127.395C-0.232468 127.395 -0.720104 126.913 -0.720104 126.321C-0.720104 125.729 -0.232468 125.247 0.367702 125.247C0.967873 125.247 1.45551 125.729 1.45551 126.321C1.45551 126.913 0.967873 127.395 0.367702 127.395Z" fill="white"/>
<path d="M22.3114 123.211C22.799 123.211 23.2117 123.619 23.2117 124.1C23.2117 124.581 22.799 124.988 22.3114 124.988C21.8238 124.988 21.4111 124.581 21.4111 124.1C21.4111 123.619 21.8238 123.211 22.3114 123.211Z" fill="white"/>
<path d="M19.7232 123.211C20.2108 123.211 20.6234 123.619 20.6234 124.1C20.6234 124.581 20.2108 124.988 19.7232 124.988C19.2355 124.988 18.8229 124.581 18.8229 124.1C18.8229 123.619 19.2355 123.211 19.7232 123.211Z" fill="white"/>
<path d="M17.1724 123.211C17.6601 123.211 18.0727 123.619 18.0727 124.1C18.0727 124.581 17.6601 124.988 17.1724 124.988C16.6848 124.988 16.2722 124.581 16.2722 124.1C16.3097 123.619 16.6848 123.211 17.1724 123.211Z" fill="white"/>
<path d="M14.7343 124.988C14.2466 124.988 13.834 124.581 13.834 124.1C13.834 123.619 14.2466 123.211 14.7343 123.211C15.2219 123.211 15.6345 123.619 15.6345 124.1C15.6345 124.581 15.2219 124.988 14.7343 124.988Z" fill="white"/>
<path d="M8.69505 124.063L9.44526 125.432C9.25771 125.692 9.14518 125.988 9.14518 126.321C9.14518 127.135 9.82037 127.765 10.6081 127.765C10.7956 127.765 10.9457 127.728 11.0957 127.691L12.1835 128.764L12.0335 128.912C11.9585 128.986 11.9585 129.134 12.0335 129.245L16.4597 133.614C16.4973 133.651 16.5723 133.688 16.6098 133.688H21.036C21.1486 133.688 21.2236 133.614 21.2611 133.503L22.4614 128.838C22.4614 128.801 22.4614 128.801 22.4614 128.764V125.544C23.1741 125.432 23.6993 124.84 23.6993 124.1C23.6993 123.507 23.3617 123.026 22.8365 122.767L22.1989 117.955C22.1614 117.621 21.8613 117.399 21.4862 117.436C21.1486 117.473 20.886 117.77 20.961 118.14L21.5612 122.804C21.2986 122.915 21.1111 123.1 20.961 123.322C20.811 123.1 20.5859 122.878 20.3233 122.767L19.7232 116.437C19.6857 116.104 19.3856 115.845 19.048 115.882C18.7104 115.919 18.4478 116.215 18.4853 116.548L19.0855 122.767C18.8229 122.878 18.6354 123.063 18.4853 123.285C18.3353 123.063 18.1102 122.841 17.8476 122.73L17.285 116.03C17.2475 115.696 16.9474 115.437 16.6098 115.474C16.2722 115.511 16.0096 115.807 16.0471 116.141L16.6473 122.804C16.3847 122.915 16.1972 123.1 16.0471 123.322C15.8971 123.1 15.672 122.878 15.4094 122.767L14.7718 117.436C14.7343 117.103 14.4342 116.844 14.0966 116.881C13.759 116.918 13.4964 117.214 13.5339 117.547L14.1341 122.73C13.6465 122.952 13.3089 123.47 13.3089 124.026C13.3089 124.766 13.834 125.358 14.5467 125.47V126.358L13.0463 127.839L11.9585 126.765C12.0335 126.617 12.0335 126.432 12.0335 126.284C12.0335 125.47 11.3583 124.84 10.5706 124.84C10.5331 124.84 10.5331 124.84 10.4956 124.84L9.74535 123.47C9.59531 123.174 9.2202 123.063 8.92012 123.211C8.62003 123.396 8.5075 123.767 8.69505 124.063ZM21.1111 124.137C21.1111 123.507 21.6362 123.026 22.2364 123.026C22.8365 123.026 23.3617 123.545 23.3617 124.137C23.3617 124.766 22.8365 125.247 22.2364 125.247C21.6362 125.247 21.1111 124.766 21.1111 124.137ZM18.5978 124.174C18.5978 123.545 19.123 123.063 19.7232 123.063C20.3233 123.063 20.8485 123.582 20.8485 124.174C20.8485 124.803 20.3233 125.284 19.7232 125.284C19.123 125.284 18.5978 124.803 18.5978 124.174ZM15.8596 124.137C15.8596 124.766 15.3344 125.247 14.7343 125.247C14.0966 125.247 13.6089 124.729 13.6089 124.137C13.6089 123.507 14.1341 123.026 14.7343 123.026C15.3719 123.026 15.8596 123.507 15.8596 124.137ZM16.0846 124.137C16.0846 123.507 16.6098 123.026 17.21 123.026C17.8101 123.026 18.3353 123.545 18.3353 124.137C18.3353 124.766 17.8101 125.247 17.21 125.247C16.6098 125.247 16.0846 124.766 16.0846 124.137ZM13.2338 128.949L15.1469 127.061L16.4973 132.133L13.2338 128.949ZM9.5578 126.321C9.5578 125.729 10.0454 125.247 10.6456 125.247C11.2458 125.247 11.7334 125.729 11.7334 126.321C11.7334 126.913 11.2458 127.395 10.6456 127.395C10.0454 127.395 9.5578 126.913 9.5578 126.321Z" fill="white"/>
<path d="M78.7056 4.34431e-06L61.7321 80.2457L78.7056 59.3214V4.34431e-06Z" fill="#006BD2"/>
<path d="M138.167 0L78.7056 4.34431e-06V59.3214L138.167 59.3214V0Z" fill="url(#paint1_linear_414_2361)"/>
<path d="M106.632 19.8925C106.844 19.5633 106.995 19.1741 107.085 18.785C107.116 18.6653 107.236 18.5755 107.387 18.5755H108.626V16.57H107.387C107.267 16.57 107.146 16.4802 107.085 16.3605C106.965 15.9714 106.814 15.6122 106.632 15.253C106.572 15.1333 106.572 14.9836 106.693 14.8938L107.569 14.0258L106.119 12.589L105.243 13.4571C105.152 13.5469 105.001 13.5768 104.88 13.5169C104.548 13.3074 104.156 13.1577 103.763 13.0679C103.642 13.038 103.551 12.9183 103.551 12.7686V11.5414H101.528V12.7686C101.528 12.8883 101.437 13.0081 101.316 13.0679C100.924 13.1877 100.561 13.3373 100.199 13.5169C100.078 13.5768 99.9268 13.5768 99.8362 13.4571L98.9603 12.589L97.5105 14.0258L98.3864 14.8938C98.477 14.9836 98.5072 15.1333 98.4468 15.253C98.2354 15.5823 98.0844 15.9714 97.9937 16.3605C97.9635 16.4802 97.8427 16.57 97.6917 16.57H96.4533V18.5755H97.6917C97.8125 18.5755 97.9333 18.6653 97.9937 18.785C98.1146 19.1741 98.2656 19.5333 98.4468 19.8925C98.5072 20.0122 98.5072 20.1619 98.3864 20.2517L97.5105 21.1197L98.9301 22.5266L99.806 21.6585C99.8966 21.5687 100.048 21.5388 100.168 21.5987C100.501 21.8082 100.893 21.9578 101.286 22.0476C101.407 22.0776 101.498 22.1973 101.498 22.347V23.5742H103.521V22.347C103.521 22.1973 103.612 22.1075 103.733 22.0476C104.125 21.9279 104.488 21.7783 104.85 21.5987C104.971 21.5388 105.122 21.5388 105.213 21.6585L106.089 22.5266L107.508 21.1197L106.632 20.2517C106.572 20.1619 106.542 20.0122 106.632 19.8925ZM102.222 16.3904V14.5346C102.222 14.355 102.343 14.2353 102.524 14.2353C102.706 14.2353 102.827 14.355 102.827 14.5346V16.3605C103.34 16.4802 103.702 16.9292 103.702 17.4979C103.702 18.1564 103.189 18.6653 102.524 18.6653C101.86 18.6653 101.346 18.1564 101.346 17.4979C101.346 16.9591 101.739 16.5102 102.222 16.3904ZM102.524 20.8803C100.652 20.8803 99.1113 19.3837 99.1113 17.4979C99.1113 16.2108 99.8362 15.0734 100.924 14.5047C101.075 14.4149 101.256 14.4748 101.346 14.6244C101.437 14.7741 101.377 14.9537 101.226 15.0435C100.35 15.5224 99.7154 16.4204 99.7154 17.4979C99.7154 18.2762 100.017 18.9646 100.531 19.4735C101.044 19.9823 101.739 20.2816 102.524 20.2816C103.31 20.2816 104.005 19.9823 104.518 19.4735C105.031 18.9646 105.334 18.2762 105.334 17.4979C105.334 16.4204 104.729 15.5224 103.823 15.0435C103.672 14.9537 103.612 14.7741 103.702 14.6244C103.793 14.4748 103.974 14.4149 104.125 14.5047C105.213 15.0734 105.938 16.1809 105.938 17.4979C105.938 19.3837 104.397 20.8803 102.524 20.8803Z" fill="white"/>
<path d="M120.285 27.3157L117.869 21.0299C117.808 15.9414 113.64 11.8407 108.475 11.8407C108.294 11.8407 108.173 11.9604 108.173 12.14C108.173 12.3196 108.294 12.4394 108.475 12.4394C110.891 12.4394 113.096 13.3972 114.667 14.9836C115.18 15.4925 115.633 16.0612 116.026 16.6898H113.157V14.8639C113.157 14.7442 113.066 14.6244 112.915 14.6244C112.794 14.6244 112.673 14.7142 112.673 14.8639V16.6898H111.344V14.8639C111.344 14.7442 111.254 14.6244 111.103 14.6244C110.982 14.6244 110.861 14.7142 110.861 14.8639V16.6898H110.015C109.894 16.6898 109.774 16.7796 109.774 16.9292C109.774 17.0489 109.864 17.1687 110.015 17.1687H116.207C116.842 18.366 117.174 19.7129 117.174 21.1497C117.174 21.1796 117.174 21.2095 117.204 21.2694L119.5 27.196H117.174C117.083 27.196 117.023 27.2259 116.962 27.2858C116.902 27.3457 116.872 27.4055 116.872 27.4953V31.9253C116.872 32.4641 116.449 32.8832 115.905 32.8832H108.626C108.082 32.8832 107.659 32.4641 107.659 31.9253V26.8967C107.659 26.3579 108.082 25.9389 108.626 25.9389H110.861C111.042 25.9389 111.163 25.8191 111.163 25.6395C111.163 25.4599 111.042 25.3402 110.861 25.3402H108.626C107.75 25.3402 107.055 26.0287 107.055 26.8967V29.6804C105.998 29.5008 105.031 29.1416 104.156 28.6627L105.847 26.9865C105.938 26.8967 105.938 26.747 105.847 26.6572C105.756 26.5674 105.605 26.5674 105.515 26.6572L103.733 28.4232C103.31 28.1538 102.917 27.8545 102.524 27.4953L104.216 25.8191C104.307 25.7293 104.307 25.5797 104.216 25.4899C104.125 25.4001 103.974 25.4001 103.884 25.4899L102.162 27.196C101.588 26.5974 101.105 25.9389 100.712 25.2205C100.622 25.0708 100.44 25.011 100.289 25.1007C100.138 25.1905 100.078 25.3701 100.168 25.5198C101.588 28.0042 104.095 29.8301 107.055 30.279V31.8655C107.055 32.7335 107.75 33.4219 108.626 33.4219H115.966C116.842 33.4219 117.536 32.7335 117.536 31.8655V27.7348H119.983C120.074 27.7348 120.164 27.6749 120.225 27.6151C120.315 27.5253 120.315 27.4055 120.285 27.3157Z" fill="white"/>
<path d="M113.247 18.6653C112.553 18.6653 111.888 18.9646 111.435 19.4136C110.982 19.8925 110.68 20.5211 110.68 21.2395C110.68 21.9579 110.952 22.5864 111.435 23.0653C111.888 23.5443 112.522 23.8137 113.247 23.8137C113.942 23.8137 114.606 23.5143 115.06 23.0653C115.513 22.5864 115.815 21.9579 115.815 21.2395C115.815 20.5211 115.543 19.8925 115.06 19.4136C114.576 18.9646 113.942 18.6653 113.247 18.6653ZM114.606 22.6164C114.274 22.9756 113.791 23.215 113.247 23.215C112.704 23.215 112.22 23.0055 111.858 22.6463C111.495 22.2871 111.284 21.8082 111.284 21.2395C111.284 20.7007 111.495 20.1918 111.858 19.8327C112.22 19.4735 112.704 19.2639 113.247 19.2639C113.791 19.2639 114.274 19.4735 114.637 19.8327C114.999 20.1918 115.211 20.6708 115.211 21.2395C115.18 21.7783 114.969 22.2572 114.606 22.6164Z" fill="white"/>
<path d="M113.247 20.4912C112.855 20.4912 112.522 20.8204 112.522 21.2095C112.522 21.5987 112.855 21.9279 113.247 21.9279C113.64 21.9279 113.972 21.5987 113.972 21.2095C113.972 20.8204 113.64 20.4912 113.247 20.4912Z" fill="white"/>
<path d="M93.3456 110.292C93.5383 110.292 93.707 110.461 93.707 110.653C93.707 110.845 93.5383 111.014 93.3456 111.014C93.1529 111.014 92.9842 110.845 92.9842 110.653C92.9842 110.461 93.1529 110.292 93.3456 110.292ZM93.3456 111.471C93.5383 111.471 93.707 111.639 93.707 111.831C93.707 112.024 93.5383 112.192 93.3456 112.192C93.1529 112.192 92.9842 112.024 92.9842 111.831C92.9842 111.615 93.1529 111.471 93.3456 111.471ZM91.9242 113.154C91.8279 113.154 91.7315 113.082 91.7315 112.961C91.7315 112.865 91.8038 112.769 91.9242 112.769H95.4174C95.7065 112.769 95.9233 112.553 95.9233 112.264V110.004C95.9233 109.908 95.9956 109.836 96.0919 109.836C96.1883 109.836 96.2606 109.908 96.2606 110.004V112.288C96.2606 112.769 95.8751 113.154 95.3933 113.154H91.9242Z" fill="#292C33"/>
<path d="M51.4038 23.5637H76.4581V55.0621H51.4038V23.5637Z" fill="url(#paint2_linear_414_2361)"/>
<path d="M64.1877 34.8643L64.934 34.1333C64.9453 34.1222 64.9567 34.1 64.9567 34.089V31.5635C65.1489 31.5302 65.2846 31.3641 65.2846 31.1758C65.2846 30.9543 65.1037 30.777 64.8775 30.777C64.6514 30.777 64.4704 30.9543 64.4704 31.1758C64.4704 31.3752 64.6174 31.5302 64.7983 31.5635V34.0557L64.1199 34.7203L63.645 33.1253C63.6337 33.0921 63.6111 33.081 63.5771 33.081H62.1071V32.5936L62.4351 32.2724C62.4464 32.2613 62.4577 32.2392 62.4577 32.2281V31.5635C62.6499 31.5302 62.7856 31.3641 62.7856 31.1758C62.7856 30.9543 62.6047 30.777 62.3785 30.777C62.1524 30.777 61.9715 30.9543 61.9715 31.1758C61.9715 31.3752 62.1185 31.5302 62.2994 31.5635V32.1948L61.9715 32.5161C61.9601 32.5271 61.9488 32.5493 61.9488 32.5604V33.0699H60.8746C60.8407 33.0699 60.8181 33.0921 60.8068 33.1142L60.5354 34.0114L59.6647 33.1031V31.5524C59.8456 31.5302 59.9926 31.3641 59.9926 31.1758C59.9926 30.9543 59.8117 30.777 59.5856 30.777C59.3594 30.777 59.1785 30.9543 59.1785 31.1758C59.1785 31.3752 59.3255 31.5302 59.5064 31.5635V33.1364C59.5064 33.1585 59.5177 33.1696 59.529 33.1807L60.5354 34.1665L58.6357 40.5467C58.6244 40.5688 58.6357 40.591 58.647 40.6021C58.6583 40.6353 58.6809 40.6353 58.7036 40.6353H61.0442C61.0782 40.6353 61.1121 40.6131 61.1121 40.5799L61.3948 39.1953H63.0796L63.3623 40.5799C63.3736 40.6131 63.3962 40.6353 63.4301 40.6353H65.8047C65.8273 40.6353 65.85 40.6242 65.8613 40.6131C65.8726 40.591 65.8839 40.5688 65.8726 40.5578L64.1877 34.8643ZM64.6287 31.1758C64.6287 31.0318 64.7418 30.921 64.8888 30.921C65.0358 30.921 65.1489 31.0318 65.1489 31.1758C65.1489 31.3198 65.0358 31.4306 64.8888 31.4306C64.7418 31.4306 64.6287 31.3087 64.6287 31.1758ZM62.1411 31.1758C62.1411 31.0318 62.2541 30.921 62.4011 30.921C62.5481 30.921 62.6612 31.0318 62.6612 31.1758C62.6612 31.3198 62.5481 31.4306 62.4011 31.4306C62.2654 31.4306 62.1411 31.3087 62.1411 31.1758ZM59.3255 31.1758C59.3255 31.0318 59.4386 30.921 59.5856 30.921C59.7326 30.921 59.8456 31.0318 59.8456 31.1758C59.8456 31.3198 59.7326 31.4306 59.5856 31.4306C59.4386 31.4306 59.3255 31.3087 59.3255 31.1758ZM62.7291 37.5227H61.734L62.2315 35.0305L62.7291 37.5227Z" fill="white"/>
<path d="M69.2309 31.1758C69.2309 30.9543 69.05 30.777 68.8239 30.777C68.5977 30.777 68.4168 30.9543 68.4168 31.1758C68.4168 31.3752 68.5638 31.5302 68.7447 31.5635V34.2551L68.3037 34.6871V33.1364C68.3037 33.1031 68.2698 33.0699 68.2359 33.0699H66.8224V32.7265C66.8224 32.7044 66.8111 32.6933 66.7998 32.6822L66.2796 32.1727V31.5635C66.4719 31.5302 66.6076 31.3641 66.6076 31.1758C66.6076 30.9543 66.4266 30.777 66.2005 30.777C65.9743 30.777 65.7934 30.9543 65.7934 31.1758C65.7934 31.3752 65.9404 31.5302 66.1213 31.5635V32.1948C66.1213 32.217 66.1326 32.2281 66.144 32.2392L66.6641 32.7487V33.0699H65.9856C65.9517 33.0699 65.9178 33.1031 65.9178 33.1364V40.5688C65.9178 40.6021 65.9517 40.6353 65.9856 40.6353H68.2472C68.2811 40.6353 68.315 40.6021 68.315 40.5688V34.8754L68.8691 34.3327C68.8804 34.3216 68.8917 34.2994 68.8917 34.2883V31.5635C69.0952 31.5302 69.2309 31.3641 69.2309 31.1758ZM65.9404 31.1758C65.9404 31.0318 66.0535 30.921 66.2005 30.921C66.3475 30.921 66.4606 31.0318 66.4606 31.1758C66.4606 31.3198 66.3475 31.4306 66.2005 31.4306C66.0648 31.4306 65.9404 31.3087 65.9404 31.1758ZM68.2698 38.7523L66.0196 39.2839H66.0083C65.9743 39.2839 65.9517 39.2618 65.9404 39.2286C65.9291 39.1953 65.9517 39.151 65.997 39.151L68.2472 38.6193C68.2811 38.6083 68.3263 38.6304 68.3263 38.6747C68.3263 38.708 68.3037 38.7523 68.2698 38.7523ZM68.2698 38.4421L66.0196 38.9738H66.0083C65.9743 38.9738 65.9517 38.9516 65.9404 38.9184C65.9291 38.8852 65.9517 38.8409 65.997 38.8409L68.2359 38.3092C68.2698 38.2981 68.315 38.3203 68.315 38.3646C68.3263 38.3978 68.3037 38.431 68.2698 38.4421ZM68.2698 38.132L66.0196 38.6636H66.0083C65.9743 38.6636 65.9517 38.6415 65.9404 38.6083C65.9291 38.575 65.9517 38.5307 65.9856 38.5307L68.2359 37.999C68.2698 37.988 68.315 38.0101 68.315 38.0544C68.3263 38.0877 68.3037 38.1209 68.2698 38.132ZM68.2698 37.8218L66.0196 38.3535H66.0083C65.9743 38.3535 65.9517 38.3313 65.9404 38.2981C65.9291 38.2649 65.9517 38.2206 65.997 38.2206L68.2472 37.6889C68.2811 37.6778 68.3263 37.7 68.3263 37.7443C68.3263 37.7775 68.3037 37.8107 68.2698 37.8218ZM68.2698 37.5117L66.0196 38.0434H66.0083C65.9743 38.0434 65.9517 38.0212 65.9404 37.988C65.9291 37.9547 65.9517 37.9104 65.997 37.9104L68.2472 37.3787C68.2811 37.3677 68.3263 37.3898 68.3263 37.4341C68.3263 37.4563 68.3037 37.5006 68.2698 37.5117ZM68.2698 37.1904L66.0196 37.7221H66.0083C65.9743 37.7221 65.9517 37.7 65.9404 37.6667C65.9291 37.6335 65.9517 37.5892 65.997 37.5892L68.2472 37.0575C68.2811 37.0464 68.3263 37.0686 68.3263 37.1129C68.3263 37.1461 68.3037 37.1904 68.2698 37.1904ZM68.2698 36.8803L66.0196 37.412H66.0083C65.9743 37.412 65.9517 37.3898 65.9404 37.3566C65.9291 37.3234 65.9517 37.2791 65.997 37.2791L68.2472 36.7474C68.2811 36.7363 68.3263 36.7584 68.3263 36.8028C68.3263 36.836 68.3037 36.8692 68.2698 36.8803ZM68.8352 31.4306C68.6882 31.4306 68.5751 31.3198 68.5751 31.1758C68.5751 31.0318 68.6882 30.921 68.8352 30.921C68.9822 30.921 69.0952 31.0318 69.0952 31.1758C69.0952 31.3198 68.9822 31.4306 68.8352 31.4306Z" fill="white"/>
<path d="M354 36.3423H107.004V133H354V36.3423Z" fill="url(#paint3_linear_414_2361)"/>
<path d="M107.004 133L61.7321 80.2457L107.085 36.4017" fill="#CECCCC"/>
<path d="M-8.10009 9.61785H51.4038V68.7675H-8.10009V9.61785Z" fill="url(#paint4_linear_414_2361)"/>
<path d="M-8.53532 68.6353L61.2504 79.0435L50.9258 68.6353H-8.53532Z" fill="url(#paint5_linear_414_2361)"/>
<path d="M33.1418 30.0557H10.162C9.2629 30.0557 8.52246 30.7917 8.52246 31.6854V46.5624C8.52246 47.4561 9.2629 48.1921 10.162 48.1921H20.3693V52.6342C20.3693 52.7393 20.4222 52.8445 20.528 52.8707C20.6338 52.9233 20.7396 52.897 20.8189 52.8182L25.473 48.1921H33.1418C34.0409 48.1921 34.7813 47.4561 34.7813 46.5624V31.6854C34.7813 30.7917 34.0409 30.0557 33.1418 30.0557V30.5814C33.4591 30.5814 33.7235 30.7129 33.9086 30.8969C34.1202 31.1071 34.2524 31.37 34.2524 31.6854V46.5624C34.2524 46.8779 34.1202 47.1407 33.9351 47.3247C33.7235 47.535 33.4591 47.6401 33.1682 47.6401H25.3408C25.2615 47.6401 25.2086 47.6664 25.1557 47.719L20.8982 51.9771V47.903C20.8982 47.8241 20.8718 47.7715 20.8189 47.719C20.766 47.6664 20.7131 47.6401 20.6338 47.6401H10.162C9.84467 47.6401 9.58022 47.5087 9.39511 47.3247C9.18356 47.1144 9.05135 46.8516 9.05135 46.5624V31.6854C9.05135 31.37 9.18356 31.1071 9.36867 30.8969C9.58022 30.7129 9.84467 30.5814 10.162 30.5814H33.1418V30.0557Z" fill="white"/>
<path d="M18.2803 37.6783C18.0158 37.6783 17.8043 37.8885 17.8043 38.1514V39.5708C17.8043 39.8336 18.0158 40.0439 18.2803 40.0439C18.5447 40.0439 18.7563 39.8336 18.7563 39.5708V38.1514C18.7563 37.9148 18.5447 37.6783 18.2803 37.6783Z" fill="white"/>
<path d="M17.6456 35.8121C17.9101 35.8121 18.1216 35.6018 18.1216 35.3389V33.9196C18.1216 33.6567 17.9101 33.4465 17.6456 33.4465C17.3812 33.4465 17.1696 33.6567 17.1696 33.9196V35.3389C17.1432 35.6018 17.3812 35.8121 17.6456 35.8121Z" fill="white"/>
<path d="M22.0353 41.9364C21.7709 41.9364 21.5593 42.1466 21.5593 42.4095V43.8288C21.5593 44.0917 21.7709 44.302 22.0353 44.302C22.2997 44.302 22.5113 44.0917 22.5113 43.8288V42.4095C22.5113 42.1729 22.2997 41.9626 22.0353 41.9364Z" fill="white"/>
<path d="M28.0116 41.9364C27.7472 41.9364 27.5356 42.1466 27.5356 42.4095V43.8288C27.5356 44.0917 27.7472 44.302 28.0116 44.302C28.2761 44.302 28.4876 44.0917 28.4876 43.8288V42.4095C28.4876 42.1729 28.2761 41.9626 28.0116 41.9364Z" fill="white"/>
<path d="M25.0235 41.9364C24.759 41.9364 24.5475 42.1466 24.5475 42.4095V43.8288C24.5475 44.0917 24.759 44.302 25.0235 44.302C25.2879 44.302 25.4995 44.0917 25.4995 43.8288V42.4095C25.4995 42.1729 25.2879 41.9626 25.0235 41.9364Z" fill="white"/>
<path d="M17.6456 41.9364C17.3812 41.9364 17.1696 42.1466 17.1696 42.4095V43.8288C17.1696 44.0917 17.3812 44.302 17.6456 44.302C17.9101 44.302 18.1216 44.0917 18.1216 43.8288V42.4095C18.1216 42.1729 17.9101 41.9626 17.6456 41.9364Z" fill="white"/>
<path d="M22.0353 33.4202C21.7709 33.4202 21.5593 33.6304 21.5593 33.8933V35.3127C21.5593 35.5755 21.7709 35.7858 22.0353 35.7858C22.2997 35.7858 22.5113 35.5755 22.5113 35.3127V33.8933C22.5113 33.6567 22.2997 33.4202 22.0353 33.4202Z" fill="white"/>
<path d="M21.7444 39.597V38.1777C21.7444 37.9148 21.5329 37.7045 21.2684 37.7045C21.004 37.7045 20.7924 37.9148 20.7924 38.1777V39.597C20.7924 39.8599 21.004 40.0702 21.2684 40.0702C21.5329 40.0702 21.7444 39.8599 21.7444 39.597Z" fill="white"/>
<path d="M25.6581 37.6783C25.3937 37.6783 25.1821 37.8885 25.1821 38.1514V39.5708C25.1821 39.8336 25.3937 40.0439 25.6581 40.0439C25.9226 40.0439 26.1341 39.8336 26.1341 39.5708V38.1514C26.1341 37.9148 25.9226 37.6783 25.6581 37.6783Z" fill="white"/>
<path d="M13.2559 41.9364C12.9915 41.9364 12.7799 42.1466 12.7799 42.4095V43.8288C12.7799 44.0917 12.9915 44.302 13.2559 44.302C13.5204 44.302 13.7319 44.0917 13.7319 43.8288V42.4095C13.7319 42.1729 13.5204 41.9626 13.2559 41.9364Z" fill="white"/>
<path d="M13.2559 33.4202C12.9915 33.4202 12.7799 33.6304 12.7799 33.8933V35.3127C12.7799 35.5755 12.9915 35.7858 13.2559 35.7858C13.5204 35.7858 13.7319 35.5755 13.7319 35.3127V33.8933C13.7319 33.6567 13.5204 33.4202 13.2559 33.4202Z" fill="white"/>
<path d="M25.0235 35.8121C25.2879 35.8121 25.4995 35.6018 25.4995 35.3389V33.9196C25.4995 33.6567 25.2879 33.4465 25.0235 33.4465C24.759 33.4465 24.5475 33.6567 24.5475 33.9196V35.3389C24.5475 35.6018 24.759 35.8121 25.0235 35.8121Z" fill="white"/>
<path d="M15.2657 37.6783C15.0012 37.6783 14.7897 37.8885 14.7897 38.1514V39.5708C14.7897 39.8336 15.0012 40.0439 15.2657 40.0439C15.5301 40.0439 15.7417 39.8336 15.7417 39.5708V38.1514C15.7681 37.9148 15.5301 37.6783 15.2657 37.6783Z" fill="white"/>
<path d="M32.1633 31.4225H11.114C10.5587 31.4225 10.1091 31.8694 10.1091 32.4214V45.3271C10.1091 45.879 10.5587 46.3259 11.114 46.3259H32.1633C32.7187 46.3259 33.1682 45.879 33.1682 45.3271V32.4214C33.1946 31.8694 32.7451 31.4225 32.1633 31.4225ZM24.1508 33.9196C24.1508 33.4465 24.5475 33.0522 25.0235 33.0522C25.4995 33.0522 25.8961 33.4465 25.8961 33.9196V35.3389C25.8961 35.8121 25.4995 36.2063 25.0235 36.2063C24.5475 36.2063 24.1508 35.8121 24.1508 35.3389V33.9196ZM16.7465 33.9196C16.7465 33.4465 17.1432 33.0522 17.6192 33.0522C18.0952 33.0522 18.4918 33.4465 18.4918 33.9196V35.3389C18.4918 35.8121 18.0952 36.2063 17.6192 36.2063C17.1432 36.2063 16.7465 35.8121 16.7465 35.3389V33.9196ZM15.3979 33.3676C15.3979 33.2625 15.4772 33.1573 15.6094 33.1573C15.7152 33.1573 15.821 33.2362 15.821 33.3676V35.8646C15.821 35.9698 15.7417 36.0749 15.6094 36.0749C15.5037 36.0749 15.3979 35.9961 15.3979 35.8646V33.3676ZM12.3833 37.6257C12.3833 37.5206 12.4626 37.4154 12.5948 37.4154C12.7006 37.4154 12.7799 37.4943 12.7799 37.6257V40.1227C12.7799 40.2279 12.7006 40.333 12.5948 40.333C12.4891 40.333 12.3833 40.2542 12.3833 40.1227V37.6257ZM14.1286 43.8551C14.1286 44.3283 13.7319 44.7225 13.2559 44.7225C12.7799 44.7225 12.3833 44.3283 12.3833 43.8551V42.4358C12.3833 41.9626 12.7799 41.5684 13.2559 41.5684C13.7319 41.5684 14.1286 41.9626 14.1286 42.4358V43.8551ZM14.1286 35.3389C14.1286 35.8121 13.7319 36.2063 13.2559 36.2063C12.7799 36.2063 12.3833 35.8121 12.3833 35.3389V33.9196C12.3833 33.4465 12.7799 33.0522 13.2559 33.0522C13.7319 33.0522 14.1286 33.4465 14.1286 33.9196V35.3389ZM15.7945 44.3808C15.7945 44.486 15.7152 44.5911 15.583 44.5911C15.4772 44.5911 15.3714 44.5122 15.3714 44.3808V41.8838C15.3714 41.7787 15.4508 41.6735 15.583 41.6735C15.6888 41.6735 15.7945 41.7524 15.7945 41.8838V44.3808ZM16.1648 39.597C16.1648 40.0702 15.7681 40.4644 15.2921 40.4644C14.8161 40.4644 14.4195 40.0702 14.4195 39.597V38.1777C14.4195 37.7045 14.8161 37.3103 15.2921 37.3103C15.7681 37.3103 16.1648 37.7045 16.1648 38.1777V39.597ZM18.5183 43.8551C18.5183 44.3283 18.1216 44.7225 17.6456 44.7225C17.1696 44.7225 16.773 44.3283 16.773 43.8551V42.4358C16.773 41.9626 17.1696 41.5684 17.6456 41.5684C18.1216 41.5684 18.5183 41.9626 18.5183 42.4358V43.8551ZM19.1529 39.597C19.1529 40.0702 18.7563 40.4644 18.2803 40.4644C17.8043 40.4644 17.4076 40.0702 17.4076 39.597V38.1777C17.4076 37.7045 17.8043 37.3103 18.2803 37.3103C18.7563 37.3103 19.1529 37.7045 19.1529 38.1777V39.597ZM19.8934 44.3808C19.8934 44.486 19.814 44.5911 19.6818 44.5911C19.576 44.5911 19.4703 44.5122 19.4703 44.3808V41.8838C19.4703 41.7787 19.5496 41.6735 19.6818 41.6735C19.7876 41.6735 19.8934 41.7524 19.8934 41.8838V44.3808ZM19.8934 35.8646C19.8934 35.9698 19.814 36.0749 19.6818 36.0749C19.576 36.0749 19.4703 35.9961 19.4703 35.8646V33.3676C19.4703 33.2625 19.5496 33.1573 19.6818 33.1573C19.7876 33.1573 19.8934 33.2362 19.8934 33.3676V35.8646ZM20.3958 39.597V38.1777C20.3958 37.7045 20.7924 37.3103 21.2684 37.3103C21.7444 37.3103 22.1411 37.7045 22.1411 38.1777V39.597C22.1411 40.0702 21.7444 40.4644 21.2684 40.4644C20.766 40.4644 20.3958 40.0702 20.3958 39.597ZM22.908 43.8551C22.908 44.3283 22.5113 44.7225 22.0353 44.7225C21.5593 44.7225 21.1627 44.3283 21.1627 43.8551V42.4358C21.1627 41.9626 21.5593 41.5684 22.0353 41.5684C22.5113 41.5684 22.908 41.9626 22.908 42.4358V43.8551ZM22.908 35.3389C22.908 35.8121 22.5113 36.2063 22.0353 36.2063C21.5593 36.2063 21.1627 35.8121 21.1627 35.3389V33.9196C21.1627 33.4465 21.5593 33.0522 22.0353 33.0522C22.5113 33.0522 22.908 33.4465 22.908 33.9196V35.3389ZM23.8071 40.1227C23.8071 40.2279 23.7277 40.333 23.5955 40.333C23.4897 40.333 23.3839 40.2542 23.3839 40.1227V37.6257C23.3839 37.5206 23.4633 37.4154 23.5955 37.4154C23.7013 37.4154 23.8071 37.4943 23.8071 37.6257V40.1227ZM25.8961 43.8551C25.8961 44.3283 25.4995 44.7225 25.0235 44.7225C24.5475 44.7225 24.1508 44.3283 24.1508 43.8551V42.4358C24.1508 41.9626 24.5475 41.5684 25.0235 41.5684C25.4995 41.5684 25.8961 41.9626 25.8961 42.4358V43.8551ZM26.5308 39.597C26.5308 40.0702 26.1341 40.4644 25.6581 40.4644C25.1821 40.4644 24.7855 40.0702 24.7855 39.597V38.1777C24.7855 37.7045 25.1821 37.3103 25.6581 37.3103C26.1341 37.3103 26.5308 37.7045 26.5308 38.1777V39.597ZM28.8843 43.8551C28.8843 44.3283 28.4876 44.7225 28.0116 44.7225C27.5356 44.7225 27.139 44.3283 27.139 43.8551V42.4358C27.139 41.9626 27.5356 41.5684 28.0116 41.5684C28.4876 41.5684 28.8843 41.9626 28.8843 42.4358V43.8551ZM27.5092 40.1227V37.6257C27.5092 37.5206 27.5885 37.4154 27.7208 37.4154C27.8265 37.4154 27.9323 37.4943 27.9323 37.6257V40.1227C27.9323 40.2279 27.853 40.333 27.7208 40.333C27.5885 40.333 27.5092 40.2279 27.5092 40.1227ZM28.8843 35.3389C28.8843 35.8121 28.4876 36.2063 28.0116 36.2063C27.5356 36.2063 27.139 35.8121 27.139 35.3389V33.9196C27.139 33.4465 27.5356 33.0522 28.0116 33.0522C28.4876 33.0522 28.8843 33.4465 28.8843 33.9196V35.3389ZM29.1752 39.597V38.1777C29.1752 37.7045 29.5718 37.3103 30.0478 37.3103C30.5238 37.3103 30.9205 37.7045 30.9205 38.1777V39.597C30.9205 40.0702 30.5238 40.4644 30.0478 40.4644C29.5454 40.4644 29.1752 40.0702 29.1752 39.597ZM30.9205 44.3808C30.9205 44.486 30.8411 44.5911 30.7089 44.5911C30.6031 44.5911 30.4974 44.5122 30.4974 44.3808V41.8838C30.4974 41.7787 30.5767 41.6735 30.7089 41.6735C30.8147 41.6735 30.9205 41.7524 30.9205 41.8838V44.3808ZM30.9205 35.8646C30.9205 35.9698 30.8411 36.0749 30.7089 36.0749C30.6031 36.0749 30.4974 35.9961 30.4974 35.8646V33.3676C30.4974 33.2625 30.5767 33.1573 30.7089 33.1573C30.8147 33.1573 30.9205 33.2362 30.9205 33.3676V35.8646Z" fill="white"/>
<path d="M28.0116 33.4202C27.7472 33.4202 27.5356 33.6304 27.5356 33.8933V35.3127C27.5356 35.5755 27.7472 35.7858 28.0116 35.7858C28.2761 35.7858 28.4876 35.5755 28.4876 35.3127V33.8933C28.4876 33.6567 28.2761 33.4202 28.0116 33.4202Z" fill="white"/>
<path d="M30.0478 37.6783C29.7834 37.6783 29.5718 37.8885 29.5718 38.1514V39.5708C29.5718 39.8336 29.7834 40.0439 30.0478 40.0439C30.3123 40.0439 30.5238 39.8336 30.5238 39.5708V38.1514C30.5238 37.9148 30.3123 37.6783 30.0478 37.6783Z" fill="white"/>
<path d="M95.4899 46.6464H28.0361V113.731H95.4899V46.6464Z" fill="url(#paint6_linear_414_2361)"/>
<path d="M96 46H78.4073H74.5309H40.7618H14V72.2882V99.5336V102.111V127H18.7709H22.7964H40.7618H58.7273H70.58H96V112.273V106.382V46Z" fill="url(#paint7_linear_414_2361)"/>
<path d="M56.1074 61.8885H55.1496C55.0678 61.8885 55.0094 61.8885 55.0094 61.8181C55.0327 61.7478 55.0678 61.6775 55.1028 61.6188C55.1028 61.5719 55.1612 61.5602 55.243 61.5602H56.014C56.0373 61.5602 56.0607 61.5602 56.0841 61.5719C56.1074 61.5837 56.1308 61.5954 56.1425 61.6188C56.1775 61.6892 56.2125 61.7478 56.2359 61.8181C56.2476 61.8533 56.1775 61.8885 56.1074 61.8885ZM58.1049 60.8451C58.0348 60.7396 57.9414 60.6693 57.8245 60.6107C57.7077 60.5638 57.5909 60.5403 57.4624 60.5521H53.8763C53.5259 60.5521 53.339 60.6576 53.2455 60.8451C53.0703 61.1499 52.9301 61.4664 52.825 61.7947C52.825 61.994 53.1054 62.0995 53.4558 62.0995H57.8713C58.2217 62.0995 58.4904 61.9588 58.5137 61.7947C58.4086 61.4664 58.2684 61.1499 58.1049 60.8451Z" fill="#292C33"/>
<path d="M57.369 58.0082H55.3481V57.7737H57.369V58.0082ZM57.369 58.4888H55.3481V58.2661H57.369V58.4888ZM57.369 58.9694H55.3481V58.7467H57.369V58.9694ZM57.369 59.4501H53.9814V59.2273H57.369V59.4501ZM53.9698 57.7737H55.0444V58.9577H53.9698V57.7737ZM57.4624 57H53.8763C53.7945 57 53.7128 57.0117 53.631 57.0469C53.5492 57.0821 53.4792 57.129 53.4208 57.1876C53.3623 57.2462 53.3156 57.3165 53.2806 57.3986C53.2689 57.4689 53.2455 57.551 53.2455 57.6448V59.6494C53.2455 59.8135 53.3156 59.9776 53.4324 60.0948C53.5492 60.2121 53.7128 60.2824 53.8763 60.2824H57.4624C57.5442 60.2824 57.626 60.2707 57.7077 60.2355C57.7895 60.2003 57.8596 60.1534 57.918 60.0948C57.9764 60.0362 58.0231 59.9659 58.0582 59.8838C58.0932 59.8018 58.1049 59.7197 58.1049 59.6376V57.6448C58.1049 57.5627 58.0932 57.4806 58.0582 57.3986C58.0231 57.3165 57.9764 57.2462 57.918 57.1876C57.8596 57.129 57.7895 57.0821 57.7077 57.0469C57.626 57.0117 57.5442 57 57.4624 57Z" fill="#292C33"/>
<path d="M56.1074 88.5227H55.1496C55.0678 88.5227 55.0094 88.5227 55.0094 88.4641C55.0327 88.3938 55.0678 88.3234 55.1028 88.2648C55.1028 88.2179 55.1612 88.2062 55.243 88.2062H56.014C56.0373 88.2062 56.0607 88.2062 56.0841 88.2179C56.1074 88.2296 56.1308 88.2414 56.1425 88.2648C56.1775 88.3351 56.2125 88.3938 56.2359 88.4641C56.2476 88.4875 56.1775 88.5227 56.1074 88.5227ZM58.1049 87.4794C58.0348 87.3739 57.9414 87.2918 57.8245 87.2449C57.7077 87.1863 57.5909 87.1746 57.4624 87.1863H53.8763C53.5259 87.1863 53.339 87.2918 53.2455 87.4911C53.0703 87.7959 52.9301 88.1124 52.825 88.4407C52.825 88.6282 53.1054 88.7337 53.4558 88.7337H57.8713C58.2217 88.7337 58.4904 88.5931 58.5137 88.4407C58.4086 88.1007 58.2684 87.7842 58.1049 87.4794Z" fill="#292C33"/>
<path d="M57.369 84.6307H55.3481V84.408H57.369V84.6307ZM57.369 85.1114H55.3481V84.8886H57.369V85.1114ZM57.369 85.6037H55.3481V85.3693H57.369V85.6037ZM57.369 86.0844H53.9814V85.8616H57.369V86.0844ZM53.9698 84.408H55.0444V85.592H53.9698V84.408ZM57.4624 83.6343H53.8763C53.7128 83.6343 53.5492 83.7046 53.4324 83.8219C53.3156 83.9391 53.2455 84.1032 53.2455 84.2673V86.2719C53.2455 86.354 53.2572 86.436 53.2923 86.5181C53.3273 86.6002 53.374 86.6705 53.4324 86.7291C53.4908 86.7877 53.5609 86.8346 53.6427 86.8698C53.7245 86.905 53.8062 86.9167 53.888 86.9167H57.4741C57.5559 86.9167 57.6377 86.905 57.7194 86.8698C57.8012 86.8346 57.8713 86.7877 57.9297 86.7291C57.9881 86.6705 58.0348 86.6002 58.0699 86.5181C58.1049 86.436 58.1166 86.354 58.1166 86.2719V84.2673C58.1166 84.1853 58.1049 84.1032 58.0699 84.0211C58.0348 83.9391 57.9881 83.8687 57.9297 83.8101C57.8713 83.7515 57.8012 83.7046 57.7194 83.6695C57.626 83.646 57.5442 83.6343 57.4624 83.6343Z" fill="#292C33"/>
<path d="M56.1074 112.789H55.1496C55.0678 112.789 55.0094 112.789 55.0094 112.73C55.0327 112.66 55.0678 112.59 55.1028 112.531C55.1028 112.484 55.1612 112.461 55.243 112.461H56.014C56.0373 112.461 56.0607 112.461 56.0841 112.472C56.1074 112.484 56.1308 112.496 56.1425 112.519C56.1775 112.59 56.2125 112.648 56.2359 112.719C56.2476 112.754 56.1775 112.789 56.1074 112.789ZM58.1049 111.746C58.0348 111.64 57.9414 111.558 57.8245 111.511C57.7077 111.464 57.5909 111.441 57.4624 111.441H53.8763C53.5259 111.441 53.339 111.546 53.2455 111.746C53.0703 112.05 52.9301 112.367 52.825 112.695C52.825 112.894 53.1054 113 53.4558 113H57.8713C58.2217 113 58.4904 112.859 58.5137 112.695C58.4086 112.367 58.2684 112.05 58.1049 111.746Z" fill="#292C33"/>
<path d="M57.369 108.909H55.3481V108.686H57.369V108.909ZM57.369 109.389H55.3481V109.178H57.369V109.389ZM57.369 109.87H55.3481V109.647H57.369V109.87ZM57.369 110.351H53.9814V110.128H57.369V110.351ZM53.9698 108.674H55.0444V109.858H53.9698V108.674ZM57.4624 107.901H53.8763C53.7945 107.901 53.7128 107.912 53.631 107.947C53.5492 107.983 53.4792 108.03 53.4207 108.088C53.3623 108.147 53.3156 108.217 53.2806 108.299C53.2455 108.381 53.2339 108.463 53.2339 108.545V110.55C53.2339 110.714 53.3039 110.878 53.4207 110.995C53.5376 111.113 53.7011 111.183 53.8646 111.183H57.4508C57.5325 111.183 57.6143 111.171 57.6961 111.136C57.7778 111.101 57.8479 111.054 57.9063 110.995C57.9647 110.937 58.0115 110.866 58.0465 110.784C58.0815 110.702 58.0932 110.62 58.0932 110.538V108.534C58.0932 108.452 58.0815 108.369 58.0465 108.287C58.0115 108.205 57.9647 108.135 57.9063 108.076C57.8479 108.018 57.7778 107.971 57.6961 107.936C57.626 107.912 57.5442 107.901 57.4624 107.901Z" fill="#292C33"/>
<path d="M33.2941 74.9711H32.3362C32.2661 74.9711 32.1961 74.9711 32.2077 74.9008C32.2311 74.8304 32.2661 74.7601 32.3012 74.7015C32.3012 74.6546 32.3596 74.6311 32.4297 74.6311H33.2006C33.224 74.6311 33.2474 74.6311 33.2707 74.6429C33.2941 74.6546 33.3175 74.6663 33.3291 74.6898C33.3642 74.7484 33.3992 74.8187 33.4226 74.889C33.4226 74.9477 33.3642 74.9711 33.2941 74.9711ZM35.2799 73.9278C35.2098 73.8223 35.1164 73.7519 34.9995 73.6933C34.8944 73.6464 34.7659 73.623 34.6491 73.623H31.063C30.7126 73.623 30.5257 73.7285 30.4322 73.9278C30.257 74.2326 30.1168 74.5491 30 74.8773C30 75.0649 30.2803 75.1704 30.6425 75.1704H35.0696C35.4201 75.1704 35.6887 75.0297 35.7004 74.8773C35.5953 74.5491 35.4551 74.2326 35.2799 73.9278Z" fill="#292C33"/>
<path d="M34.5557 71.0909H32.5231V70.8681H34.5557V71.0909ZM34.5557 71.5715H32.5231V71.3488H34.5557V71.5715ZM34.5557 72.0521H32.5231V71.8294H34.5557V72.0521ZM34.5557 72.5328H31.1681V72.31H34.5557V72.5328ZM31.1448 70.8681H32.2194V72.0521H31.1448V70.8681ZM34.6491 70.0827H31.063C30.9812 70.0827 30.8995 70.0944 30.8177 70.1296C30.7359 70.1647 30.6658 70.2116 30.6074 70.2703C30.549 70.3289 30.5023 70.3992 30.4672 70.4813C30.4322 70.5633 30.4205 70.6454 30.4205 70.7274V72.7321C30.4205 72.8141 30.4322 72.8962 30.4672 72.9782C30.5023 73.0603 30.549 73.1306 30.6074 73.1892C30.6658 73.2479 30.7359 73.2947 30.8177 73.3299C30.8995 73.3651 30.9812 73.3768 31.063 73.3768H34.6491C34.8126 73.3768 34.9762 73.3065 35.093 73.1892C35.2098 73.072 35.2799 72.9079 35.2799 72.7438V70.7392C35.2799 70.6571 35.2682 70.575 35.2332 70.493C35.1981 70.4109 35.1514 70.3406 35.093 70.282C35.0346 70.2234 34.9645 70.1765 34.8827 70.1413C34.8126 70.1061 34.7309 70.0827 34.6491 70.0827Z" fill="#292C33"/>
<path d="M78.5469 74.9711H77.5891C77.519 74.9711 77.4489 74.9711 77.4606 74.9008C77.484 74.8304 77.519 74.7601 77.554 74.7015C77.554 74.6546 77.6125 74.6311 77.6825 74.6311H78.4535C78.4769 74.6311 78.5119 74.6311 78.5353 74.6429C78.5586 74.6546 78.582 74.6663 78.5937 74.6898C78.6287 74.7484 78.6638 74.8187 78.6871 74.889C78.6871 74.9477 78.6287 74.9711 78.5469 74.9711ZM80.5444 73.9278C80.4743 73.8223 80.3809 73.7519 80.2641 73.6933C80.159 73.6464 80.0305 73.623 79.9136 73.623H76.3275C75.9771 73.623 75.7902 73.7285 75.6851 73.9278C75.5098 74.2326 75.3697 74.5491 75.2645 74.8773C75.2645 75.0649 75.5449 75.1704 75.907 75.1704H80.3342C80.6846 75.1704 80.9533 75.0297 80.965 74.8773C80.8598 74.5491 80.7196 74.2326 80.5444 73.9278Z" fill="#292C33"/>
<path d="M79.8319 71.0909H77.811V70.8681H79.8319V71.0909ZM79.8319 71.5715H77.811V71.3488H79.8319V71.5715ZM79.8319 72.0521H77.811V71.8294H79.8319V72.0521ZM79.8319 72.5328H76.4443V72.31H79.8319V72.5328ZM76.4327 70.8681H77.5073V72.0521H76.4327V70.8681ZM79.9253 70.0827H76.3392C76.1757 70.0827 76.0121 70.153 75.8836 70.2703C75.7668 70.3875 75.6967 70.5516 75.6967 70.7274V72.7321C75.6967 72.8141 75.7084 72.8962 75.7435 72.9782C75.7785 73.0603 75.8252 73.1306 75.8836 73.1892C75.942 73.2479 76.0121 73.2947 76.0939 73.3299C76.1757 73.3651 76.2574 73.3768 76.3392 73.3768H79.9253C80.0889 73.3768 80.2524 73.3065 80.3692 73.1892C80.486 73.072 80.5561 72.9079 80.5561 72.7438V70.7392C80.5561 70.6571 80.5444 70.575 80.5094 70.493C80.4743 70.4109 80.4276 70.3406 80.3692 70.282C80.3108 70.2234 80.2407 70.1765 80.159 70.1413C80.1005 70.1061 80.0071 70.0827 79.9253 70.0827Z" fill="#292C33"/>
<path d="M33.2941 98.9678H32.3362C32.2661 98.9678 32.1961 98.9443 32.2077 98.8974C32.2311 98.8271 32.2661 98.7568 32.3012 98.6982C32.3012 98.6513 32.3596 98.6278 32.4297 98.6278H33.2006C33.224 98.6278 33.2474 98.6278 33.2707 98.6395C33.2941 98.6513 33.3175 98.663 33.3291 98.6864C33.3642 98.745 33.3992 98.8154 33.4226 98.8857C33.4226 98.9326 33.3642 98.9678 33.2941 98.9678ZM35.2799 97.9244C35.2098 97.8189 35.1164 97.7369 34.9995 97.69C34.8827 97.6314 34.7659 97.6197 34.6374 97.6314H31.063C30.7126 97.6314 30.5257 97.7369 30.4322 97.9362C30.257 98.2292 30.1168 98.5458 30 98.874C30 99.0733 30.2803 99.1788 30.6425 99.1788H35.0696C35.4201 99.1788 35.6887 99.0381 35.7004 98.874C35.5953 98.534 35.4551 98.2175 35.2799 97.9244Z" fill="#292C33"/>
<path d="M34.5557 95.0992H32.5231V94.8765H34.5557V95.0992ZM34.5557 95.5799H32.5231V95.3571H34.5557V95.5799ZM34.5557 96.0722H32.5231V95.8495H34.5557V96.0722ZM34.5557 96.5529H31.1681V96.3301H34.5557V96.5529ZM31.1448 94.8765H32.2194V96.0605H31.1448V94.8765ZM34.6491 94.1028H31.063C30.9812 94.1028 30.8995 94.1145 30.8177 94.1497C30.7359 94.1849 30.6658 94.2318 30.6074 94.2904C30.549 94.349 30.5023 94.4193 30.4672 94.5014C30.4322 94.5834 30.4205 94.6655 30.4205 94.7476V96.7404C30.4205 96.8225 30.4322 96.9046 30.4672 96.9866C30.5023 97.0687 30.549 97.139 30.6074 97.1976C30.6658 97.2562 30.7359 97.3031 30.8177 97.3383C30.8995 97.3735 30.9812 97.3852 31.063 97.3852H34.6491C34.7309 97.3852 34.8126 97.3735 34.8944 97.3383C34.9762 97.3031 35.0463 97.2562 35.1047 97.1976C35.1631 97.139 35.2098 97.0687 35.2448 96.9866C35.2799 96.9046 35.2916 96.8225 35.2916 96.7404V94.7358C35.2916 94.5717 35.2215 94.4076 35.1047 94.2904C34.9762 94.1731 34.8126 94.1028 34.6491 94.1028Z" fill="#292C33"/>
<path d="M78.5937 98.9678H77.6358C77.5541 98.9678 77.4956 98.9443 77.4956 98.8974C77.519 98.8271 77.554 98.7568 77.5891 98.6982C77.5891 98.6513 77.6475 98.6278 77.7293 98.6278H78.5002C78.5236 98.6278 78.5469 98.6278 78.5703 98.6395C78.5937 98.6513 78.617 98.663 78.6287 98.6864C78.6638 98.745 78.6988 98.8154 78.7222 98.8857C78.7222 98.9326 78.6638 98.9678 78.5937 98.9678ZM80.5795 97.9244C80.5094 97.8189 80.4159 97.7369 80.2991 97.69C80.1823 97.6314 80.0655 97.6197 79.937 97.6314H76.3509C76.0005 97.6314 75.8136 97.7369 75.7201 97.9362C75.5449 98.2292 75.4047 98.5458 75.2996 98.874C75.2996 99.0733 75.5799 99.1788 75.9304 99.1788H80.3575C80.708 99.1788 80.9766 99.0381 81 98.874C80.8949 98.534 80.7547 98.2292 80.5795 97.9244Z" fill="#292C33"/>
<path d="M79.8319 95.0992H77.811V94.8765H79.8319V95.0992ZM79.8319 95.5799H77.811V95.3571H79.8319V95.5799ZM79.8319 96.0722H77.811V95.8495H79.8319V96.0722ZM79.8319 96.5529H76.4443V96.3301H79.8319V96.5529ZM76.4327 94.8765H77.5073V96.0605H76.4327V94.8765ZM79.9253 94.1028H76.3392C76.1757 94.1028 76.0121 94.1731 75.8953 94.2904C75.7785 94.4076 75.7084 94.5717 75.7084 94.7358V96.7404C75.7084 96.8225 75.7201 96.9046 75.7551 96.9866C75.7902 97.0687 75.8369 97.139 75.8953 97.1976C75.9537 97.2562 76.0238 97.3031 76.1056 97.3383C76.1874 97.3735 76.2691 97.3852 76.3509 97.3852H79.937C80.1005 97.3852 80.2641 97.3149 80.3926 97.1976C80.5094 97.0804 80.5795 96.9163 80.5795 96.7404V94.7358C80.5795 94.6538 80.5678 94.5717 80.5328 94.4897C80.4977 94.4076 80.451 94.3373 80.3926 94.2786C80.3342 94.22 80.2641 94.1731 80.1823 94.138C80.0889 94.1145 80.0071 94.1028 79.9253 94.1028Z" fill="#292C33"/>
<path d="M32.9904 76.542H32.4881V93.4932H32.9904V76.542Z" fill="#292C33"/>
<path d="M78.547 75.7448H78.0447V93.4932H78.547V75.7448Z" fill="#292C33"/>
<path d="M55.9906 64.362H55.4883V82.1104H55.9906V64.362Z" fill="#292C33"/>
<path d="M60.336 61.1733L60.0907 61.6071L73.4072 69.2387L73.6525 68.8049L60.336 61.1733Z" fill="#292C33"/>
<path d="M36.1443 100.855L35.899 101.289L50.9443 109.917L51.1896 109.483L36.1443 100.855Z" fill="#292C33"/>
<path d="M60.6047 88.3469L60.3594 88.7806L73.5941 96.377L73.8394 95.9433L60.6047 88.3469Z" fill="#292C33"/>
<path d="M74.6571 101.09L59.8688 109.659L60.1141 110.093L74.9024 101.523L74.6571 101.09Z" fill="#292C33"/>
<path d="M51.3415 88.3117L36.5531 96.8811L36.7984 97.3148L51.5868 88.7454L51.3415 88.3117Z" fill="#292C33"/>
<path d="M50.7691 61.1733L37.0087 69.1097L37.254 69.5435L51.0144 61.6071L50.7691 61.1733Z" fill="#292C33"/>
<path d="M53.0586 103.657C53.082 104.044 52.6615 104.606 51.9606 105.04C51.1663 105.533 50.2668 105.802 49.3323 105.826C48.4095 105.849 47.4867 105.626 46.669 105.181C45.2322 104.337 45.0103 103.083 46.7975 101.981C47.4283 101.594 48.1525 101.359 48.9001 101.312L49.2272 102.145C48.7483 102.203 48.281 102.367 47.8605 102.614C47.0662 103.106 46.9494 103.821 47.9306 104.407C48.4095 104.665 48.9352 104.794 49.4725 104.782C50.0098 104.771 50.5355 104.618 51.0028 104.337C51.3649 104.138 51.6335 103.821 51.762 103.434L53.0586 103.657Z" fill="#292C33"/>
<path d="M56.6214 99.5774C58.1399 100.48 57.7545 101.465 56.6448 102.156C55.9906 102.578 55.2197 102.825 54.437 102.836C53.6544 102.848 52.8834 102.649 52.2059 102.25L49.309 100.539L50.4888 99.8118L53.1287 101.371C53.4792 101.629 53.888 101.781 54.3202 101.816C54.7524 101.84 55.1846 101.746 55.5584 101.523C56.271 101.078 55.9789 100.656 55.1846 100.175L52.5096 98.5575L53.6894 97.8307L56.6214 99.5774Z" fill="#292C33"/>
<path d="M59.0978 98.1003L60.0323 98.6395C60.1841 98.5809 60.336 98.5106 60.4762 98.4168C60.9317 98.1354 60.9668 97.8775 60.6397 97.6782C60.4645 97.5962 60.2776 97.561 60.0907 97.5844C59.9038 97.6079 59.7169 97.6782 59.5767 97.7955L59.0978 98.1003ZM57.1938 96.9749L58.0932 97.5141L58.4904 97.2679C58.7941 97.0804 58.9109 96.8576 58.5488 96.6466C58.3852 96.5763 58.21 96.5411 58.0231 96.5528C57.8479 96.5646 57.6727 96.6232 57.5208 96.7287C57.4157 96.8107 57.2989 96.8928 57.1938 96.9749ZM54.951 97.0804C55.2197 96.8928 55.9205 96.4356 56.4812 96.0956C57.7077 95.3337 58.759 95.3454 59.4482 95.7557C59.9856 96.0722 60.1024 96.4004 59.9856 96.7873C60.301 96.6935 60.628 96.6701 60.9434 96.7052C61.2705 96.7404 61.5742 96.8459 61.8546 97.01C62.9292 97.6313 62.5554 98.4402 61.434 99.1553C60.9317 99.4601 60.2309 99.8704 59.9038 100.046L54.951 97.0804Z" fill="#292C33"/>
<path d="M59.495 94.2552L62.5671 92.3679L63.6301 93.0009L61.7494 94.1614L62.6255 94.6772L64.2842 93.6574L65.3472 94.2904L63.6885 95.322L64.5879 95.8613L66.5387 94.6538L67.6134 95.2868L64.4711 97.2211L59.495 94.2552Z" fill="#292C33"/>
<path d="M45.279 73.541V69.0394L41.3307 71.2667L45.279 73.541Z" fill="#292C33"/>
<path d="M40.9803 71.759V90.3397L45.279 87.9131V74.2326L40.9803 71.759Z" fill="#292C33"/>
<path d="M64.8099 87.1395L68.7231 89.3785V76.0379L64.8099 78.2418V87.1395Z" fill="#292C33"/>
<path d="M60.4528 66.7534V70.5868L64.8099 73.0955V77.5853L68.7231 75.3345L70.4402 76.3193L73.8044 74.4202L60.4528 66.7534Z" fill="#292C33"/>
<path d="M71.0126 76.6475L73.8511 78.2769V75.0532L71.0126 76.6475Z" fill="#292C33"/>
<defs>
<linearGradient id="paint0_linear_414_2361" x1="781.084" y1="222.992" x2="409.678" y2="-334.115" gradientUnits="userSpaceOnUse">
<stop stop-color="#CB4B42"/>
<stop offset="1" stop-color="#E9403C"/>
</linearGradient>
<linearGradient id="paint1_linear_414_2361" x1="353.768" y1="107.414" x2="193.644" y2="-148.791" gradientUnits="userSpaceOnUse">
<stop stop-color="#256FFE"/>
<stop offset="0.433109" stop-color="#3E79EA"/>
<stop offset="0.9946" stop-color="#50CDFF"/>
<stop offset="1" stop-color="#A4C3FE"/>
</linearGradient>
<linearGradient id="paint2_linear_414_2361" x1="6.89423" y1="106.622" x2="-0.019688" y2="0.450233" gradientUnits="userSpaceOnUse">
<stop stop-color="#CB4B42"/>
<stop offset="1" stop-color="#FC3631"/>
</linearGradient>
<linearGradient id="paint3_linear_414_2361" x1="354" y1="129.5" x2="252.626" y2="-28.0334" gradientUnits="userSpaceOnUse">
<stop offset="0.624178" stop-color="#F6F7F8"/>
<stop offset="1" stop-color="#F5F5F5"/>
</linearGradient>
<linearGradient id="paint4_linear_414_2361" x1="366.243" y1="157.445" x2="263.198" y2="-107.735" gradientUnits="userSpaceOnUse">
<stop stop-color="#A4A4A4"/>
<stop offset="0.594924" stop-color="#E6E6E6"/>
</linearGradient>
<linearGradient id="paint5_linear_414_2361" x1="108.194" y1="-1.56949" x2="258.141" y2="3.8428" gradientUnits="userSpaceOnUse">
<stop stop-color="#A3A6AB"/>
<stop offset="1" stop-color="#56595F"/>
</linearGradient>
<linearGradient id="paint6_linear_414_2361" x1="30.6428" y1="113.705" x2="95.0714" y2="46.2178" gradientUnits="userSpaceOnUse">
<stop stop-color="#C6C5C5"/>
<stop offset="0.426565" stop-color="#F1ECEC"/>
<stop offset="0.947917" stop-color="white"/>
</linearGradient>
<linearGradient id="paint7_linear_414_2361" x1="17.1688" y1="126.969" x2="94.936" y2="44.9559" gradientUnits="userSpaceOnUse">
<stop stop-color="#C6C5C5"/>
<stop offset="0.426565" stop-color="#F1ECEC"/>
<stop offset="0.947917" stop-color="white"/>
</linearGradient>
</defs>
</svg>
