<svg width="1281" height="1837" viewBox="0 0 1281 1837" fill="none" xmlns="http://www.w3.org/2000/svg">
<path d="M0.783646 858.808C2.42598 861.712 6.15315 862.722 9.05891 861.018C11.9648 859.313 12.9755 855.651 11.2699 852.747C10.8908 852.115 10.4487 851.547 9.8802 851.105L122.007 657.965L254.601 658.217L210.003 731.9L164.268 731.773L106.151 831.911L106.594 832.163C105.078 831.785 103.435 831.911 102.045 832.732C99.1396 834.373 98.1289 838.098 99.8344 841.003C101.477 843.907 105.204 844.917 108.11 843.213C111.016 841.571 112.026 837.846 110.321 834.942C109.752 833.931 108.868 833.11 107.92 832.605L165.405 733.541L245.379 733.731L313.729 852.62L299.326 877.37C296.041 875.603 291.935 875.476 288.461 877.497C283.091 880.591 281.259 887.41 284.355 892.713C287.45 898.08 294.272 899.911 299.579 896.817C304.948 893.723 306.78 886.904 303.685 881.601C302.927 880.338 301.979 879.265 300.905 878.381L314.803 854.451L347.651 911.592L261.424 1060.09C259.845 1059.78 258.139 1060.03 256.623 1060.85C253.275 1062.74 252.138 1066.97 254.033 1070.32C255.928 1073.67 260.16 1074.8 263.508 1072.91C266.857 1071.02 267.993 1066.79 266.098 1063.44C265.404 1062.24 264.393 1061.29 263.256 1060.72L349.23 912.854L410.442 915.759L376.709 973.846C372.477 970.942 366.792 970.563 361.991 973.278C355.358 977.066 353.084 985.59 356.874 992.219C360.664 998.849 369.192 1001.12 375.825 997.333C382.458 993.545 384.732 985.021 380.942 978.392C380.184 977.066 379.299 975.993 378.225 974.982L412.085 916.706L479.929 1034.71L466.727 1057.5L352.326 1057.25C352.199 1056.81 352.01 1056.37 351.757 1055.93C350.115 1053.02 346.388 1052.01 343.482 1053.72C340.576 1055.36 339.565 1059.08 341.271 1061.99C342.913 1064.89 346.64 1065.9 349.546 1064.2C351.441 1063.12 352.515 1061.17 352.578 1059.15L467.864 1059.4L468.117 1058.96L525.159 960.713L562.051 1024.92L535.14 1071.33L609.871 1201.33L575.38 1201.27C575.253 1200.39 575.001 1199.57 574.495 1198.74C572.6 1195.4 568.368 1194.26 565.02 1196.16C561.672 1198.05 560.535 1202.28 562.43 1205.63C564.325 1208.97 568.557 1210.11 571.905 1208.22C573.863 1207.08 575 1205.18 575.316 1203.16L653.079 1203.35C653.016 1204.49 653.268 1205.63 653.9 1206.7C655.543 1209.6 659.27 1210.61 662.175 1208.91C665.081 1207.27 666.092 1203.54 664.386 1200.64C662.744 1197.73 659.017 1196.72 656.111 1198.43C654.911 1199.12 654.026 1200.2 653.521 1201.46L612.081 1201.4L537.351 1071.39L563.188 1026.88L573.042 1044.06L573.611 1044.06L670.514 1044.25L734.695 1155.87L735.263 1155.87L864.636 1156.13L864.888 1155.68L929.828 1043.87L867.226 935.016L1108.16 935.521L1108.41 935.079L1200.76 776.033L1275.56 906.225C1270.82 909.508 1269.3 915.885 1272.21 920.936C1275.31 926.303 1282.13 928.134 1287.43 925.04C1292.8 921.946 1294.64 915.127 1291.54 909.824C1288.63 904.773 1282.32 902.878 1277.14 905.278L1201.78 774.139L1230.08 725.397L1149.6 585.419L1202.91 584.661L1262.04 687.514L1261.91 687.703L1262.29 687.892L1262.48 688.208L1262.67 688.082L1263.56 688.587L1307.52 612.631L1424.83 614.273L1382.82 686.63C1379.41 684.483 1374.99 684.23 1371.26 686.314C1365.89 689.408 1364.06 696.227 1367.15 701.53C1370.25 706.897 1377.07 708.728 1382.38 705.634C1387.75 702.54 1389.58 695.721 1386.48 690.418C1385.85 689.281 1384.97 688.334 1384.02 687.514L1384.34 687.703L1426.41 615.22L1507.2 755.766L1475.3 810.76L1344.54 810.507C1344.29 808.739 1343.72 807.034 1342.83 805.393C1339.04 798.763 1330.52 796.49 1323.88 800.279C1317.25 804.067 1314.98 812.591 1318.77 819.22C1322.56 825.85 1331.08 828.123 1337.72 824.334C1342.14 821.809 1344.6 817.2 1344.67 812.401L1476.38 812.654L1476.63 812.212L1548.33 688.713L1476.88 564.394L1476.31 564.394L1333.42 564.078L1333.17 564.52L1306.13 611.179L1247.95 509.968L1264.12 482.124L1380.86 482.377C1380.86 483.324 1381.18 484.334 1381.68 485.218C1383.33 488.123 1387.05 489.133 1389.96 487.428C1392.86 485.786 1393.88 482.061 1392.17 479.157C1390.53 476.253 1386.8 475.242 1383.89 476.947C1382.5 477.768 1381.56 479.031 1381.12 480.483L1263.05 480.23L1262.8 480.672L1246.88 508.074L1223.95 468.171L1136.84 468.171L1201.71 356.416L1110.75 198.128L1167.92 99.8217L1110.68 0.252538L1110.12 0.252538L995.777 -1.9798e-05L938.482 98.6852C936.776 97.9907 934.818 97.9907 933.049 99.0009C930.143 100.643 929.133 104.368 930.838 107.272C932.481 110.176 936.208 111.187 939.114 109.482C942.019 107.84 943.03 104.115 941.325 101.211C941.009 100.643 940.566 100.137 940.061 99.6954L965.708 55.4986L1047.13 197.181L1010.37 197.118C1010.12 195.603 1009.55 194.087 1008.73 192.635C1004.94 186.006 996.409 183.733 989.776 187.521C983.143 191.309 980.869 199.833 984.659 206.462C988.449 213.092 996.977 215.365 1003.61 211.577C1008.22 208.925 1010.75 204 1010.56 199.012L1048.21 199.075L1082.76 259.183L1062.42 293.909L930.586 293.656L930.333 293.278L929.891 293.53L929.954 293.72L913.466 293.656C913.34 292.773 913.087 291.952 912.582 291.131C910.687 287.785 906.455 286.648 903.106 288.542C899.759 290.436 898.621 294.667 900.516 298.013C902.412 301.359 906.644 302.496 909.992 300.602C911.95 299.465 913.087 297.571 913.403 295.551L931.028 295.614L969.562 362.667L937.218 418.797L869.626 418.67L836.652 361.341C839.368 359.257 840.189 355.469 838.42 352.375C836.525 349.029 832.293 347.892 828.945 349.786C825.597 351.681 824.46 355.911 826.355 359.257C828.124 362.288 831.787 363.487 834.946 362.225L867.352 418.607L795.907 418.481L759.773 355.595L796.096 292.962C799.065 293.972 802.413 293.783 805.319 292.078C810.689 288.984 812.52 282.165 809.425 276.862C806.33 271.495 799.507 269.664 794.201 272.758C788.832 275.851 787 282.67 790.095 287.974C791.169 289.805 792.685 291.257 794.391 292.204L758.699 353.701L725.535 296.056L796.412 173.946L936.018 174.262L882.892 265.812C878.66 263.161 873.164 262.845 868.552 265.497C861.92 269.285 859.645 277.809 863.436 284.438C867.226 291.068 875.754 293.341 882.387 289.552C889.02 285.764 891.294 277.24 887.504 270.611C886.682 269.159 885.672 267.959 884.471 266.949L938.798 173.378L938.229 173.062L938.229 172.431L795.338 172.115L723.387 296.119L757.626 355.658L725.03 411.851L665.523 308.305L678.6 285.827L643.793 225.278L573.927 225.151L539.183 285.006C537.541 284.375 535.645 284.438 533.94 285.385C531.034 287.027 530.023 290.752 531.729 293.656C533.371 296.561 537.098 297.571 540.004 295.866C542.91 294.225 543.921 290.5 542.215 287.595C541.836 286.964 541.331 286.396 540.826 285.954L558.008 256.405L636.339 258.299L664.26 306.915L642.53 344.357L581.128 344.23C581.002 343.346 580.749 342.526 580.244 341.705C578.349 338.358 574.116 337.222 570.768 339.116C567.42 341.01 566.283 345.24 568.178 348.587C570.073 351.933 574.306 353.07 577.654 351.176C579.612 350.039 580.749 348.145 581.065 346.124L623.894 346.188L566.536 440.201L536.656 440.137L451.25 291.573C455.988 288.29 457.504 281.913 454.598 276.862C451.503 271.495 444.681 269.664 439.374 272.758C434.005 275.851 432.173 282.67 435.268 287.974C438.174 293.025 444.491 294.919 449.671 292.52L534.698 440.074L449.355 439.885L405.452 515.588L447.902 589.46L277.216 589.081L191.81 440.453C194.084 438.622 194.779 435.339 193.263 432.75C191.621 429.846 187.894 428.836 184.988 430.54C182.082 432.182 181.071 435.907 182.777 438.812C184.293 441.4 187.452 442.474 190.168 441.463L208.614 473.538L179.366 525.374L254.665 656.386L120.996 656.134L8.36397 850.221C6.72163 849.59 4.76338 849.653 3.12105 850.6C0.152054 852.178 -0.85881 855.903 0.783646 858.808ZM540.762 288.353C541.899 290.373 541.205 292.899 539.246 294.035C537.225 295.172 534.698 294.477 533.561 292.52C532.424 290.5 533.119 287.974 535.077 286.837C537.035 285.701 539.625 286.332 540.762 288.353ZM792.053 286.964C789.527 282.544 791.043 276.862 795.464 274.336C799.886 271.811 805.572 273.326 808.098 277.746C810.625 282.165 809.109 287.848 804.687 290.373C800.265 292.899 794.58 291.383 792.053 286.964ZM939.745 102.158C940.882 104.178 940.187 106.704 938.229 107.84C936.208 108.977 933.681 108.282 932.544 106.325C931.407 104.305 932.102 101.779 934.06 100.643C936.018 99.4429 938.545 100.137 939.745 102.158ZM1383.39 484.271C1383.07 483.703 1382.88 483.008 1382.82 482.377L1382.88 482.377L1382.88 481.367C1383.14 480.23 1383.83 479.22 1384.91 478.589C1386.93 477.452 1389.45 478.147 1390.59 480.104C1391.73 482.124 1391.03 484.65 1389.07 485.786C1387.05 486.986 1384.53 486.292 1383.39 484.271ZM1384.84 691.428C1387.37 695.848 1385.85 701.53 1381.43 704.056C1377.01 706.581 1371.32 705.066 1368.8 700.646C1366.27 696.227 1367.79 690.544 1372.21 688.019C1376.63 685.493 1382.32 687.008 1384.84 691.428ZM1307.84 612.189L1334.62 566.035L1475.87 566.351L1546.24 688.776L1507.58 755.387L1426.79 614.841L1443.84 585.482C1445.3 585.798 1446.81 585.608 1448.2 584.851C1451.11 583.209 1452.12 579.484 1450.41 576.579C1448.77 573.675 1445.04 572.665 1442.14 574.37C1439.23 576.011 1438.22 579.736 1439.93 582.641C1440.43 583.588 1441.19 584.282 1442.07 584.787L1425.21 613.894L1307.84 612.189ZM1443.09 575.948C1445.11 574.812 1447.63 575.506 1448.77 577.463C1449.91 579.484 1449.21 582.009 1447.25 583.146C1445.23 584.282 1442.71 583.588 1441.57 581.63C1440.37 579.673 1441.06 577.085 1443.09 575.948ZM655.416 1205.82C654.279 1203.8 654.974 1201.27 656.932 1200.13C658.954 1199 661.481 1199.69 662.618 1201.65C663.755 1203.67 663.06 1206.2 661.101 1207.33C659.143 1208.47 656.616 1207.77 655.416 1205.82ZM350.052 1057C351.189 1059.02 350.494 1061.55 348.535 1062.68C346.514 1063.82 343.987 1063.12 342.85 1061.17C341.713 1059.15 342.408 1056.62 344.366 1055.48C346.325 1054.35 348.914 1054.98 350.052 1057ZM302.042 882.8C304.569 887.22 303.053 892.903 298.631 895.428C294.209 897.954 288.524 896.438 285.997 892.019C283.47 887.599 284.986 881.917 289.408 879.391C293.767 876.802 299.452 878.318 302.042 882.8ZM108.678 836.078C109.815 838.098 109.121 840.624 107.162 841.76C105.204 842.897 102.614 842.202 101.477 840.245C100.34 838.225 101.035 835.699 102.993 834.563C104.951 833.363 107.541 834.058 108.678 836.078ZM190.041 439.38C188.083 440.516 185.493 439.822 184.356 437.864C183.219 435.844 183.914 433.318 185.872 432.182C187.894 431.045 190.421 431.74 191.558 433.697C192.758 435.718 192.063 438.243 190.041 439.38ZM449.608 591.417L477.403 591.48L421.813 689.913L443.796 728.175L387.196 728.048L346.135 656.576L345.566 656.576L255.17 656.386L179.871 525.374L208.866 474.043L276.079 590.975L276.648 590.975L448.976 591.354L449.039 591.417L449.608 591.417ZM444.87 730.069L514.168 850.6L457.694 850.789L388.27 730.006L444.87 730.069ZM463.189 564.962L449.481 588.513L407.536 515.588L421.244 492.037L463.189 564.962ZM477.403 589.586L451.124 589.523L464.326 566.793L477.403 589.586ZM534.572 441.968L463.442 564.457L421.497 491.532L450.366 441.779L534.572 441.968ZM449.671 290.31C445.249 292.836 439.564 291.32 437.037 286.901C434.51 282.481 436.026 276.799 440.448 274.273C444.87 271.747 450.555 273.263 453.082 277.682C455.672 282.039 454.156 287.721 449.671 290.31ZM612.208 521.081L491.932 728.301L444.365 728.175L422.381 689.913L477.971 591.48L536.593 591.606L576.769 522.344C578.664 523.101 580.939 523.038 582.834 521.965C586.182 520.071 587.319 515.84 585.424 512.494C583.528 509.148 579.296 508.011 575.948 509.905C572.6 511.799 571.463 516.03 573.358 519.376C573.8 520.197 574.432 520.828 575.127 521.397L535.456 589.712L477.908 589.586L464.579 566.351L536.846 441.905L566.725 441.968L612.208 521.081ZM514.736 850.6L445.439 730.069L490.795 730.195L490.289 731.016L558.955 850.474L514.736 850.6ZM560.092 852.305L610.881 940.698L588.582 979.086L515.747 852.431L560.092 852.305ZM601.658 800.784L658.827 798.953L739.938 940.067L612.524 939.814L562.24 852.368L628.632 852.178L628.632 851.61L644.361 878.949C639.624 882.232 638.107 888.609 641.013 893.66C644.109 899.027 650.931 900.858 656.237 897.764C661.607 894.67 663.439 887.852 660.343 882.548C657.438 877.497 651.121 875.603 645.941 878.002L601.658 800.784ZM658.764 883.432C661.291 887.851 659.775 893.534 655.353 896.059C650.931 898.585 645.246 897.07 642.719 892.65C640.192 888.23 641.708 882.548 646.13 880.022C650.552 877.497 656.237 879.012 658.764 883.432ZM561.166 850.41L533.877 802.93L599.511 800.847L627.874 850.221L561.166 850.41ZM533.624 802.488L492.5 730.953L493.006 730.132L558.955 730.258L599.258 800.342L533.624 802.488ZM645.625 579.168L559.019 728.364L494.143 728.238L613.282 522.975L645.625 579.168ZM709.427 442.284L754.783 521.144L612.587 520.828L567.294 441.968L709.427 442.284ZM721.303 579.105L756.868 523.796L756.425 523.038L854.339 523.228L877.459 563.447L843.853 621.281L819.722 579.231L819.153 579.231L721.303 579.105ZM918.394 734.362C920.92 738.782 919.404 744.464 914.983 746.99C910.561 749.515 904.875 748 902.348 743.58C899.822 739.161 901.338 733.478 905.76 730.953C910.182 728.427 915.867 729.879 918.394 734.362ZM720.734 579.105L646.004 578.916L613.661 522.722L755.857 523.038L756.299 523.733L720.734 579.105ZM665.46 308.557L724.967 412.104L708.605 440.327L567.294 440.011L624.652 345.998L643.73 346.061L665.46 308.557ZM664.639 306.221L636.718 257.604L558.387 255.71L575.19 226.793L642.908 226.919L676.641 285.575L664.639 306.221ZM873.922 488.754L855.16 521.333L854.908 521.333L755.351 521.144L709.869 442.032L759.015 357.363L795.149 420.249L795.717 420.249L834.63 420.312L873.922 488.754ZM1107.78 516.535L1147.64 585.861L1060.15 731.079L1022.75 665.983C1025.47 663.9 1026.29 660.111 1024.52 657.018C1022.62 653.671 1018.39 652.535 1015.04 654.429C1011.7 656.323 1010.56 660.553 1012.45 663.9C1014.22 666.93 1017.89 668.13 1021.05 666.867L1058.06 731.268L976.005 731.079L880.176 564.457L1056.55 564.836C1056.42 566.225 1056.67 567.677 1057.43 568.94C1059.33 572.286 1063.56 573.423 1066.91 571.528C1070.25 569.634 1071.39 565.404 1069.5 562.058C1067.6 558.711 1063.37 557.575 1060.02 559.469C1058.63 560.29 1057.62 561.489 1057.05 562.942L879.102 562.563L855.539 521.586L874.427 488.754L835.072 420.312L868.679 420.375L923.7 516.093L924.269 516.093L1107.78 516.535ZM1008.35 295.614L970.067 362.035L931.786 295.487L1008.35 295.614ZM1061.41 295.74L1021.36 364.182L971.709 362.982L1010.56 295.614L1061.41 295.74ZM1108.54 197.244L1047.7 197.118L966.024 54.9935L996.851 1.89413L1109.55 2.14669L1165.7 99.8217L1109.42 196.739L1108.54 197.244ZM1135.64 466.656L1097.04 399.539L1126.73 348.397C1129.07 348.65 1131.47 348.271 1133.61 347.008C1138.98 343.915 1140.82 337.096 1137.72 331.792C1134.63 326.425 1127.8 324.594 1122.5 327.688C1117.13 330.782 1115.3 337.601 1118.39 342.904C1119.84 345.43 1122.18 347.198 1124.83 348.019L1068.3 445.441L1021.8 364.561L1062.04 295.866L1109.42 295.993C1109.55 296.561 1109.8 297.129 1110.05 297.697C1111.69 300.602 1115.42 301.612 1118.33 299.907C1121.23 298.266 1122.24 294.54 1120.54 291.636C1118.9 288.732 1115.17 287.721 1112.26 289.426C1110.49 290.436 1109.42 292.204 1109.23 294.098L1063.05 293.972L1083.39 259.246L1048.84 199.138L1109.17 199.265L1199.63 356.605L1135.64 466.656ZM1113.15 290.942C1115.17 289.805 1117.7 290.5 1118.83 292.457C1119.97 294.477 1119.27 297.003 1117.32 298.139C1115.3 299.276 1112.77 298.581 1111.63 296.624C1110.49 294.667 1111.19 292.078 1113.15 290.942ZM1120.03 341.957C1117.51 337.538 1119.02 331.855 1123.44 329.33C1127.87 326.804 1133.55 328.319 1136.08 332.739C1138.6 337.159 1137.09 342.841 1132.67 345.367C1128.24 347.892 1122.56 346.377 1120.03 341.957ZM1204.87 584.345L1247.76 510.474L1305.94 611.684L1263.05 685.556L1204.87 584.345ZM1109.42 515.588L1136.65 468.676L1223.76 468.676L1246.69 508.579L1202.85 584.093L1149.28 584.851L1109.42 515.588ZM1107.78 514.641L924.837 514.262L870.89 420.438L938.482 420.565L938.734 420.059L971.33 363.487L1021.23 364.687L1067.73 445.567L953.453 445.315C953.327 444.683 953.137 444.115 952.758 443.547C951.116 440.643 947.389 439.632 944.483 441.337C941.577 442.979 940.566 446.704 942.272 449.608C943.914 452.513 947.641 453.523 950.547 451.818C952.316 450.808 953.327 449.103 953.516 447.209L1069.05 447.462L1096.66 399.981L1135.26 467.098L1107.78 514.641ZM949.663 450.176C947.641 451.313 945.115 450.618 943.978 448.661C942.841 446.641 943.535 444.115 945.494 442.979C947.515 441.842 950.042 442.537 951.179 444.494C952.379 446.514 951.684 449.04 949.663 450.176ZM1277.14 907.235C1281.56 904.709 1287.24 906.225 1289.77 910.645C1292.3 915.064 1290.78 920.747 1286.36 923.272C1281.94 925.798 1276.25 924.282 1273.73 919.863C1271.2 915.443 1272.72 909.761 1277.14 907.235ZM1060.53 731.268L1147.89 586.303L1227.8 725.333L1200.64 772.182L1177.27 731.584L1176.7 731.584L1060.53 731.268ZM1051.49 836.709L1086.36 776.665L1061.35 733.099L1176.19 733.352L1199.56 773.95L1107.08 933.248L1051.49 836.709ZM936.018 801.794L975.942 732.973L1059.07 733.163L1084.09 776.728L1050.36 834.878L1033.24 805.077L1033.11 805.077L936.018 801.794ZM1032.98 805.456L1050.1 835.257L1017.38 891.64L884.345 891.387L884.155 891.072L935.765 802.173L1032.98 805.456ZM691.739 731.395L748.466 630.247L788.958 630.31C788.895 631.447 789.147 632.583 789.779 633.593C791.422 636.498 795.149 637.508 798.054 635.803C800.96 634.162 801.971 630.436 800.265 627.532C798.623 624.628 794.896 623.618 791.99 625.322C790.727 626.017 789.842 627.153 789.337 628.416L748.466 628.353L721.239 581.062L818.648 581.252L842.779 623.302L785.8 721.482C784.157 720.85 782.262 720.977 780.683 721.924C777.777 723.566 776.766 727.291 778.472 730.195C780.114 733.099 783.841 734.11 786.747 732.405C789.653 730.763 790.664 727.038 788.958 724.134C788.579 723.439 788.074 722.871 787.442 722.429L843.916 625.196L904.054 729.879C899.316 733.163 897.8 739.54 900.706 744.591C903.801 749.957 910.624 751.788 915.93 748.695C921.3 745.601 923.131 738.782 920.036 733.478C917.13 728.427 910.813 726.533 905.633 728.932L844.927 623.302L878.533 565.467L974.299 732.089L883.082 889.304L821.238 781.716C823.954 779.632 824.775 775.844 823.007 772.75C821.112 769.404 816.879 768.267 813.531 770.162C810.183 772.056 809.046 776.286 810.941 779.632C812.71 782.663 816.374 783.863 819.532 782.6L881.944 891.135L873.922 904.899C872.09 903.825 869.753 903.699 867.731 904.836C864.825 906.477 863.815 910.202 865.52 913.107C867.226 916.011 870.89 917.021 873.795 915.317C876.701 913.675 877.712 909.95 876.006 907.046C875.817 906.73 875.627 906.414 875.375 906.162L883.018 893.029L883.208 893.345L883.776 893.345L1018.46 893.66L1018.71 893.218L1051.18 837.278L1106.58 933.627L865.962 933.122L865.204 931.796L749.098 729.753C751.814 727.67 752.635 723.881 750.866 720.787C748.971 717.441 744.739 716.305 741.391 718.199C738.043 720.093 736.906 724.323 738.801 727.67C740.57 730.7 744.233 731.9 747.392 730.637L863.499 932.617L864.825 934.89L927.427 1043.74L899.19 1092.36L691.739 731.395ZM872.911 913.675C870.89 914.812 868.363 914.117 867.226 912.16C866.089 910.139 866.784 907.614 868.742 906.477C870.763 905.341 873.29 906.035 874.427 907.993C875.627 910.013 874.933 912.539 872.911 913.675ZM785.736 730.7C783.715 731.837 781.188 731.142 780.051 729.185C778.914 727.164 779.609 724.639 781.567 723.502C783.588 722.366 786.115 723.06 787.252 725.018C788.389 727.038 787.695 729.564 785.736 730.7ZM792.875 626.964C794.896 625.827 797.423 626.522 798.56 628.479C799.697 630.5 799.002 633.025 797.044 634.162C795.022 635.298 792.495 634.604 791.358 632.646C790.221 630.689 790.916 628.1 792.875 626.964ZM696.793 1000.62L720.229 960.208C721.619 960.524 723.135 960.271 724.461 959.514C727.367 957.872 728.378 954.147 726.672 951.242C725.03 948.338 721.303 947.328 718.397 949.033C715.491 950.674 714.48 954.399 716.186 957.304C716.754 958.251 717.512 959.008 718.397 959.514L695.087 999.606L579.675 998.091L612.46 941.645L762.49 941.961L837.03 1071.65C832.293 1074.93 830.777 1081.31 833.682 1086.36C836.778 1091.73 843.6 1093.56 848.906 1090.46C854.276 1087.37 856.108 1080.55 853.013 1075.25C850.107 1070.2 843.79 1068.3 838.61 1070.7L763.69 940.13L763.121 940.13L740.506 940.067L659.143 798.511L659.017 798.511L601.469 800.342L560.661 729.374L646.825 580.873L720.671 580.999L747.897 628.29L674.051 628.163L623.578 715.105C619.725 713.527 615.24 713.653 611.387 715.863C604.754 719.651 602.48 728.175 606.27 734.804C610.06 741.434 618.588 743.707 625.221 739.918C631.854 736.13 634.128 727.606 630.338 720.977C629.074 718.83 627.369 717.125 625.347 715.926L675.189 630.058L747.96 630.184L691.234 731.395L899 1092.86L863.372 1154.23L785.041 1154.04L696.793 1000.62ZM851.496 1076.26C854.023 1080.68 852.507 1086.36 848.085 1088.88C843.663 1091.41 837.978 1089.89 835.451 1085.47C832.924 1081.05 834.441 1075.37 838.862 1072.85C843.284 1070.32 848.97 1071.84 851.496 1076.26ZM719.408 950.674C721.429 949.538 723.956 950.232 725.093 952.189C726.23 954.21 725.535 956.735 723.577 957.872C721.555 959.008 719.029 958.314 717.892 956.357C716.691 954.336 717.386 951.811 719.408 950.674ZM672.03 1043.3L696.54 1001.06L784.473 1154.04L735.642 1153.92L672.03 1043.3ZM564.198 1024.99L579.486 998.596L694.898 1000.11L670.387 1042.35L574.053 1042.16L564.198 1024.99ZM349.483 912.412L420.549 789.924L456.304 852.115L457.125 851.673L457.125 852.62L515.178 852.431L588.266 979.592L562.998 1023.09L525.665 958.188L524.717 958.756L524.149 958.44L480.056 1034.4L412.211 916.39L432.362 881.727C434.258 883.053 436.721 883.242 438.869 882.043C441.775 880.401 442.785 876.676 441.08 873.772C439.374 870.867 435.71 869.857 432.805 871.562C429.899 873.203 428.888 876.929 430.594 879.833C430.72 880.022 430.846 880.212 430.972 880.401L410.632 915.443L349.483 912.412ZM433.878 873.077C435.9 871.941 438.427 872.635 439.564 874.592C440.701 876.613 440.006 879.138 438.048 880.275C436.089 881.411 433.499 880.717 432.362 878.76C431.162 876.739 431.857 874.214 433.878 873.077ZM315.055 854.262L386.69 730.89L419.539 788.03L347.904 911.402L315.055 854.262ZM255.17 658.28L344.998 658.47L385.553 728.995L313.918 852.368L245.884 733.983L279.364 734.046C279.364 734.994 279.68 736.004 280.185 736.888C281.828 739.792 285.555 740.802 288.461 739.097C291.367 737.456 292.377 733.731 290.672 730.826C289.029 727.922 285.302 726.912 282.396 728.617C281.007 729.437 280.059 730.7 279.617 732.152L210.572 732.026L255.17 658.28ZM283.344 730.195C285.365 729.059 287.892 729.753 289.029 731.71C290.166 733.731 289.471 736.256 287.513 737.393C285.492 738.529 282.965 737.835 281.828 735.877C280.691 733.92 281.386 731.395 283.344 730.195ZM2.4261 857.861C1.28902 855.84 1.98384 853.315 3.94209 852.178C5.96358 851.042 8.49031 851.736 9.6274 853.694C10.7645 855.714 10.0697 858.24 8.1114 859.376C6.15315 860.513 3.56319 859.818 2.4261 857.861Z" fill="#333333" fill-opacity="0.12"/>
<path d="M2273.2 977.256C2271.56 974.351 2267.84 973.341 2264.93 975.046C2262.02 976.687 2261.01 980.412 2262.72 983.317C2263.1 983.948 2263.54 984.516 2264.11 984.958L2151.98 1178.1L2019.39 1177.85L2063.98 1104.16L2109.72 1104.29L2167.84 1004.15L2167.39 1003.9C2168.91 1004.28 2170.55 1004.15 2171.94 1003.33C2174.85 1001.69 2175.86 997.965 2174.15 995.061C2172.51 992.156 2168.78 991.146 2165.88 992.851C2162.97 994.492 2161.96 998.217 2163.67 1001.12C2164.24 1002.13 2165.12 1002.95 2166.07 1003.46L2108.58 1102.52L2028.61 1102.33L1960.26 983.443L1974.66 958.693C1977.95 960.461 1982.05 960.587 1985.53 958.566C1990.9 955.473 1992.73 948.654 1989.63 943.35C1986.54 937.983 1979.72 936.152 1974.41 939.246C1969.04 942.34 1967.21 949.159 1970.3 954.463C1971.06 955.725 1972.01 956.799 1973.08 957.683L1959.19 981.612L1926.34 924.472L2012.56 775.97C2014.14 776.286 2015.85 776.034 2017.37 775.213C2020.71 773.319 2021.85 769.088 2019.96 765.742C2018.06 762.396 2013.83 761.259 2010.48 763.153C2007.13 765.047 2005.99 769.278 2007.89 772.624C2008.58 773.824 2009.6 774.771 2010.73 775.339L1924.76 923.462L1863.55 920.557L1897.28 862.47C1901.51 865.374 1907.2 865.753 1912 863.038C1918.63 859.25 1920.9 850.726 1917.11 844.097C1913.32 837.467 1904.8 835.194 1898.16 838.983C1891.53 842.771 1889.26 851.295 1893.05 857.924C1893.8 859.25 1894.69 860.323 1895.76 861.333L1861.9 919.61L1794.06 801.605L1807.26 778.812L1921.66 779.064C1921.79 779.506 1921.98 779.948 1922.23 780.39C1923.87 783.294 1927.6 784.305 1930.51 782.6C1933.41 780.895 1934.42 777.233 1932.72 774.329C1931.07 771.424 1927.35 770.414 1924.44 772.119C1922.55 773.192 1921.47 775.15 1921.41 777.17L1806.12 776.917L1805.87 777.359L1748.83 875.603L1711.94 811.391L1738.85 764.984L1664.12 634.982L1698.61 635.046C1698.73 635.93 1698.99 636.75 1699.49 637.571C1701.39 640.917 1705.62 642.054 1708.97 640.16C1712.32 638.266 1713.45 634.035 1711.56 630.689C1709.66 627.343 1705.43 626.206 1702.08 628.1C1700.12 629.237 1698.99 631.131 1698.67 633.151L1620.91 632.962C1620.97 631.826 1620.72 630.689 1620.09 629.616C1618.45 626.711 1614.72 625.701 1611.81 627.406C1608.91 629.047 1607.9 632.773 1609.6 635.677C1611.31 638.581 1614.97 639.592 1617.88 637.887C1619.08 637.192 1619.96 636.119 1620.47 634.856L1661.91 634.919L1736.64 764.921L1710.8 809.434L1700.95 792.26L1700.38 792.26L1603.47 792.071L1539.29 680.442L1538.72 680.442L1409.35 680.19L1409.1 680.631L1344.16 792.449L1406.76 901.3L1165.83 900.795L1165.58 901.237L1073.22 1060.28L998.62 929.965C1003.36 926.682 1004.87 920.305 1001.97 915.254C998.873 909.887 992.05 908.056 986.744 911.15C981.374 914.243 979.542 921.062 982.638 926.366C985.544 931.417 991.861 933.311 997.041 930.912L1072.4 1062.05L1044.1 1110.79L1124.58 1250.77L1071.27 1251.53L1012.14 1148.68L1012.26 1148.49L1011.89 1148.3L1011.7 1147.98L1011.51 1148.11L1010.62 1147.6L966.529 1223.56L849.222 1221.92L891.231 1149.56C894.642 1151.71 899.064 1151.96 902.791 1149.88C908.16 1146.78 909.992 1139.96 906.897 1134.66C903.801 1129.29 896.979 1127.46 891.673 1130.56C886.303 1133.65 884.471 1140.47 887.567 1145.77C888.198 1146.91 889.083 1147.86 890.03 1148.68L889.715 1148.49L847.643 1220.97L766.785 1080.23L798.686 1025.24L929.448 1025.49C929.701 1027.26 930.27 1028.97 931.154 1030.61C934.944 1037.24 943.472 1039.51 950.105 1035.72C956.738 1031.93 959.012 1023.41 955.222 1016.78C951.432 1010.15 942.904 1007.88 936.271 1011.67C931.849 1014.19 929.385 1018.8 929.322 1023.6L797.612 1023.35L797.36 1023.79L725.661 1147.29L797.107 1271.61L797.675 1271.61L940.566 1271.92L940.819 1271.48L967.856 1224.82L1026.04 1326.03L1009.86 1353.88L893.126 1353.62C893.126 1352.68 892.81 1351.67 892.304 1350.78C890.662 1347.88 886.935 1346.87 884.029 1348.57C881.123 1350.21 880.113 1353.94 881.818 1356.84C883.461 1359.75 887.188 1360.76 890.093 1359.05C891.483 1358.23 892.431 1356.97 892.873 1355.52L1010.94 1355.77L1011.19 1355.33L1027.11 1327.93L1050.04 1367.83L1137.15 1367.83L1072.28 1479.58L1163.24 1637.87L1106.14 1736.24L1163.37 1835.81L1163.94 1835.81L1278.27 1836.06L1335.57 1737.38C1337.28 1738.07 1339.23 1738.07 1341 1737.06C1343.91 1735.42 1344.92 1731.7 1343.21 1728.79C1341.57 1725.89 1337.84 1724.88 1334.94 1726.58C1332.03 1728.22 1331.02 1731.95 1332.73 1734.85C1333.04 1735.42 1333.48 1735.93 1333.99 1736.37L1308.34 1780.56L1226.92 1638.88L1263.68 1638.95C1263.93 1640.46 1264.5 1641.98 1265.32 1643.43C1269.11 1650.06 1277.64 1652.33 1284.28 1648.54C1290.91 1644.75 1293.18 1636.23 1289.39 1629.6C1285.6 1622.97 1277.07 1620.7 1270.44 1624.49C1265.83 1627.14 1263.3 1632.06 1263.49 1637.05L1225.84 1636.99L1191.29 1576.88L1211.63 1542.15L1343.47 1542.41L1343.72 1542.79L1344.16 1542.53L1344.1 1542.34L1360.58 1542.41C1360.71 1543.29 1360.96 1544.11 1361.47 1544.93C1363.36 1548.28 1367.6 1549.42 1370.94 1547.52C1374.29 1545.63 1375.43 1541.4 1373.53 1538.05C1371.64 1534.7 1367.41 1533.57 1364.06 1535.46C1362.1 1536.6 1360.96 1538.49 1360.65 1540.51L1343.02 1540.45L1304.49 1473.4L1336.83 1417.27L1404.43 1417.39L1437.4 1474.72C1434.68 1476.81 1433.86 1480.59 1435.63 1483.69C1437.53 1487.03 1441.76 1488.17 1445.11 1486.28C1448.45 1484.38 1449.59 1480.15 1447.7 1476.81C1445.93 1473.78 1442.26 1472.58 1439.11 1473.84L1406.7 1417.46L1478.14 1417.58L1514.28 1480.47L1477.96 1543.1C1474.99 1542.09 1471.64 1542.28 1468.73 1543.99C1463.36 1547.08 1461.53 1553.9 1464.63 1559.2C1467.72 1564.51 1474.54 1566.4 1479.85 1563.31C1485.22 1560.21 1487.05 1553.39 1483.96 1548.09C1482.88 1546.26 1481.37 1544.81 1479.66 1543.86L1515.35 1482.36L1548.52 1540.01L1477.64 1662.12L1338.03 1661.8L1391.16 1570.25C1395.39 1572.9 1400.89 1573.22 1405.5 1570.57C1412.13 1566.78 1414.41 1558.25 1410.62 1551.63C1406.83 1545 1398.3 1542.72 1391.66 1546.51C1385.03 1550.3 1382.76 1558.82 1386.55 1565.45C1387.37 1566.9 1388.38 1568.1 1389.58 1569.11L1335.25 1662.69L1335.82 1663L1335.82 1663.63L1478.71 1663.95L1550.66 1539.94L1516.43 1480.41L1549.02 1424.21L1608.53 1527.76L1595.45 1550.24L1630.26 1610.79L1700.12 1610.91L1734.87 1551.06C1736.51 1551.69 1738.41 1551.63 1740.11 1550.68C1743.02 1549.04 1744.03 1545.31 1742.32 1542.41C1740.68 1539.5 1736.95 1538.49 1734.05 1540.2C1731.14 1541.84 1730.13 1545.56 1731.84 1548.47C1732.22 1549.1 1732.72 1549.67 1733.23 1550.11L1716.04 1579.66L1637.71 1577.76L1609.79 1529.15L1631.52 1491.71L1692.92 1491.83C1693.05 1492.72 1693.3 1493.54 1693.81 1494.36C1695.7 1497.7 1699.94 1498.84 1703.28 1496.95C1706.63 1495.05 1707.77 1490.82 1705.87 1487.48C1703.98 1484.13 1699.75 1482.99 1696.4 1484.89C1694.44 1486.02 1693.3 1487.92 1692.99 1489.94L1650.16 1489.88L1707.26 1395.99L1737.14 1396.05L1822.55 1544.62C1817.81 1547.9 1816.29 1554.28 1819.2 1559.33C1822.3 1564.69 1829.12 1566.53 1834.42 1563.43C1839.79 1560.34 1841.63 1553.52 1838.53 1548.22C1835.62 1543.16 1829.31 1541.27 1824.13 1543.67L1739.23 1395.99L1824.57 1396.18L1868.47 1320.48L1826.02 1246.6L1996.71 1246.98L2082.11 1395.61C2079.84 1397.44 2079.15 1400.72 2080.66 1403.31C2082.3 1406.22 2086.03 1407.23 2088.94 1405.52C2091.84 1403.88 2092.85 1400.16 2091.15 1397.25C2089.63 1394.66 2086.47 1393.59 2083.76 1394.6L2065.31 1362.53L2094.56 1310.69L2019.26 1179.68L2152.93 1179.93L2265.75 985.842C2267.39 986.474 2269.35 986.411 2270.99 985.464C2273.9 983.822 2274.91 980.097 2273.2 977.256ZM1733.29 1547.65C1732.15 1545.63 1732.85 1543.1 1734.81 1541.96C1736.83 1540.83 1739.35 1541.52 1740.49 1543.48C1741.63 1545.5 1740.93 1548.03 1738.97 1549.16C1736.95 1550.36 1734.43 1549.67 1733.29 1547.65ZM1482 1549.04C1484.52 1553.46 1483.01 1559.14 1478.59 1561.66C1474.16 1564.19 1468.48 1562.67 1465.95 1558.25C1463.43 1553.83 1464.94 1548.15 1469.36 1545.63C1473.79 1543.1 1479.47 1544.62 1482 1549.04ZM1334.31 1733.84C1333.17 1731.82 1333.86 1729.3 1335.82 1728.16C1337.84 1727.02 1340.37 1727.72 1341.51 1729.68C1342.64 1731.7 1341.95 1734.22 1339.99 1735.36C1338.03 1736.56 1335.44 1735.86 1334.31 1733.84ZM890.662 1351.73C890.978 1352.3 891.167 1352.99 891.231 1353.62L891.167 1353.62L891.167 1354.63C890.915 1355.77 890.22 1356.78 889.146 1357.41C887.124 1358.55 884.598 1357.85 883.46 1355.9C882.324 1353.88 883.018 1351.35 884.977 1350.21C886.935 1349.08 889.525 1349.71 890.662 1351.73ZM889.146 1144.57C886.619 1140.15 888.135 1134.47 892.557 1131.94C896.979 1129.42 902.664 1130.93 905.191 1135.35C907.718 1139.77 906.202 1145.46 901.78 1147.98C897.358 1150.51 891.736 1148.99 889.146 1144.57ZM966.213 1223.87L939.429 1270.03L798.181 1269.71L727.809 1147.29L766.469 1080.68L847.264 1221.22L830.208 1250.58C828.755 1250.27 827.239 1250.46 825.849 1251.21C822.944 1252.85 821.933 1256.58 823.638 1259.48C825.344 1262.39 829.008 1263.4 831.914 1261.69C834.82 1260.05 835.83 1256.33 834.125 1253.42C833.619 1252.48 832.861 1251.78 831.977 1251.28L848.843 1222.17L966.213 1223.87ZM830.966 1260.05C828.945 1261.19 826.418 1260.49 825.281 1258.54C824.144 1256.52 824.839 1253.99 826.797 1252.85C828.818 1251.72 831.345 1252.41 832.482 1254.37C833.619 1256.39 832.988 1258.92 830.966 1260.05ZM1618.57 630.247C1619.71 632.268 1619.01 634.793 1617.06 635.93C1615.03 637.066 1612.51 636.372 1611.37 634.414C1610.23 632.394 1610.93 629.868 1612.89 628.732C1614.91 627.532 1617.43 628.227 1618.57 630.247ZM1923.94 779.064C1922.8 777.044 1923.49 774.518 1925.45 773.382C1927.47 772.245 1930 772.94 1931.14 774.897C1932.28 776.854 1931.58 779.443 1929.62 780.58C1927.66 781.716 1925.07 781.022 1923.94 779.064ZM1972.01 953.263C1969.48 948.843 1971 943.161 1975.42 940.635C1979.84 938.11 1985.53 939.625 1988.05 944.045C1990.58 948.464 1989.07 954.147 1984.64 956.672C1980.22 959.198 1974.54 957.683 1972.01 953.263ZM2165.37 999.922C2164.24 997.902 2164.93 995.376 2166.89 994.24C2168.91 993.103 2171.44 993.798 2172.57 995.755C2173.71 997.775 2173.02 1000.3 2171.06 1001.44C2169.04 1002.64 2166.51 1001.94 2165.37 999.922ZM2083.95 1396.62C2085.9 1395.48 2088.49 1396.18 2089.63 1398.14C2090.77 1400.16 2090.07 1402.68 2088.12 1403.82C2086.09 1404.95 2083.57 1404.26 2082.43 1402.3C2081.29 1400.35 2081.99 1397.76 2083.95 1396.62ZM1824.44 1244.58L1796.65 1244.52L1852.24 1146.09L1830.26 1107.83L1886.86 1107.95L1927.92 1179.42L1928.48 1179.42L2018.88 1179.61L2094.18 1310.63L2065.19 1361.96L1997.97 1244.96L1997.4 1244.96L1825.08 1244.58L1825.01 1244.52L1824.44 1244.58ZM1829.12 1105.93L1759.82 985.4L1816.23 985.211L1885.66 1105.99L1829.12 1105.93ZM1810.8 1271.1L1824.51 1247.55L1866.45 1320.48L1852.74 1344.03L1810.8 1271.1ZM1796.65 1246.41L1822.93 1246.48L1809.72 1269.21L1796.65 1246.41ZM1739.42 1394.03L1810.55 1271.54L1852.49 1344.47L1823.62 1394.22L1739.42 1394.03ZM1824.32 1545.75C1828.74 1543.23 1834.42 1544.74 1836.95 1549.16C1839.48 1553.58 1837.96 1559.26 1833.54 1561.79C1829.12 1564.32 1823.43 1562.8 1820.91 1558.38C1818.38 1553.96 1819.9 1548.28 1824.32 1545.75ZM1661.84 1314.92L1782.12 1107.7L1829.69 1107.83L1851.67 1146.09L1796.08 1244.52L1737.46 1244.39L1697.28 1313.66C1695.39 1312.9 1693.11 1312.96 1691.22 1314.04C1687.87 1315.93 1686.73 1320.16 1688.63 1323.51C1690.52 1326.85 1694.76 1327.99 1698.1 1326.09C1701.45 1324.2 1702.59 1319.97 1700.69 1316.62C1700.25 1315.8 1699.62 1315.17 1698.92 1314.6L1738.6 1246.29L1796.14 1246.41L1809.47 1269.65L1737.21 1394.09L1707.33 1394.03L1661.84 1314.92ZM1759.32 985.463L1828.61 1105.99L1783.26 1105.87L1783.76 1105.05L1715.03 985.59L1759.32 985.463ZM1713.96 983.696L1663.17 895.302L1685.47 856.914L1758.3 983.569L1713.96 983.696ZM1672.33 1035.22L1615.16 1037.05L1534.05 895.933L1661.46 896.186L1711.75 983.632L1645.36 983.822L1645.36 984.39L1629.63 957.051C1634.36 953.768 1635.88 947.391 1632.97 942.34C1629.88 936.973 1623.06 935.142 1617.75 938.236C1612.38 941.33 1610.55 948.149 1613.64 953.452C1616.55 958.503 1622.87 960.398 1628.05 957.998L1672.33 1035.22ZM1615.22 952.568C1612.7 948.149 1614.21 942.466 1618.64 939.941C1623.06 937.415 1628.74 938.93 1631.27 943.35C1633.8 947.77 1632.28 953.452 1627.86 955.978C1623.5 958.567 1617.81 956.988 1615.22 952.568ZM1712.82 985.59L1740.11 1033.07L1674.48 1035.15L1646.11 985.779L1712.82 985.59ZM1740.36 1033.51L1781.49 1105.05L1780.98 1105.87L1715.03 1105.74L1674.73 1035.66L1740.36 1033.51ZM1628.43 1256.83L1715.03 1107.64L1779.91 1107.76L1660.71 1313.09L1628.43 1256.83ZM1564.56 1393.78L1519.21 1314.92L1661.4 1315.24L1706.76 1394.09L1564.56 1393.78ZM1552.75 1256.9L1517.18 1312.2L1517.63 1312.96L1419.71 1312.77L1396.59 1272.55L1430.2 1214.72L1454.33 1256.77L1454.9 1256.77L1552.75 1256.9ZM1355.59 1101.7C1353.07 1097.28 1354.58 1091.6 1359.01 1089.07C1363.43 1086.55 1369.11 1088.06 1371.64 1092.48C1374.17 1096.9 1372.65 1102.59 1368.23 1105.11C1363.81 1107.64 1358.12 1106.12 1355.59 1101.7ZM1553.32 1256.9L1628.05 1257.08L1660.39 1313.28L1518.19 1312.96L1517.75 1312.27L1553.32 1256.9ZM1608.53 1527.44L1549.02 1423.9L1565.38 1395.67L1706.76 1395.99L1649.4 1490L1630.32 1489.94L1608.53 1527.44ZM1609.35 1529.78L1637.27 1578.4L1715.6 1580.29L1698.8 1609.21L1631.08 1609.08L1597.35 1550.43L1609.35 1529.78ZM1400.13 1347.25L1418.89 1314.67L1419.14 1314.67L1518.7 1314.86L1564.18 1393.97L1515.04 1478.64L1478.9 1415.75L1478.33 1415.75L1439.42 1415.69L1400.13 1347.25ZM1166.27 1319.53L1126.41 1250.2L1213.9 1104.98L1251.3 1170.08C1248.58 1172.16 1247.76 1175.95 1249.53 1179.05C1251.43 1182.39 1255.66 1183.53 1259.01 1181.63C1262.36 1179.74 1263.49 1175.51 1261.6 1172.16C1259.83 1169.13 1256.16 1167.93 1253.01 1169.2L1215.99 1104.79L1298.05 1104.98L1393.81 1271.61L1217.44 1271.23C1217.57 1269.84 1217.31 1268.39 1216.56 1267.12C1214.66 1263.78 1210.43 1262.64 1207.08 1264.54C1203.73 1266.43 1202.6 1270.66 1204.49 1274.01C1206.39 1277.35 1210.62 1278.49 1213.97 1276.59C1215.36 1275.77 1216.37 1274.57 1216.94 1273.12L1394.89 1273.5L1418.45 1314.48L1399.56 1347.31L1438.92 1415.75L1405.31 1415.69L1350.29 1319.97L1349.72 1319.97L1166.27 1319.53ZM1265.7 1540.39L1303.98 1473.96L1342.27 1540.58L1265.7 1540.39ZM1212.64 1540.26L1252.69 1471.82L1302.34 1473.02L1263.49 1540.39L1212.64 1540.26ZM1165.45 1638.76L1226.29 1638.88L1307.96 1781.01L1277.14 1834.11L1164.44 1833.85L1108.28 1736.18L1164.57 1639.26L1165.45 1638.76ZM1138.42 1369.34L1177.01 1436.46L1147.32 1487.6C1144.99 1487.35 1142.58 1487.73 1140.44 1488.99C1135.07 1492.09 1133.24 1498.9 1136.33 1504.21C1139.43 1509.57 1146.25 1511.41 1151.55 1508.31C1156.92 1505.22 1158.76 1498.4 1155.66 1493.1C1154.21 1490.57 1151.87 1488.8 1149.22 1487.98L1205.75 1390.56L1252.25 1471.44L1212.01 1540.13L1164.63 1540.01C1164.5 1539.44 1164.25 1538.87 1164 1538.3C1162.36 1535.4 1158.63 1534.39 1155.72 1536.09C1152.82 1537.73 1151.81 1541.46 1153.51 1544.36C1155.16 1547.27 1158.88 1548.28 1161.79 1546.57C1163.56 1545.56 1164.63 1543.8 1164.82 1541.9L1211 1542.03L1190.66 1576.75L1225.21 1636.86L1164.88 1636.74L1074.42 1479.52L1138.42 1369.34ZM1160.84 1545.06C1158.82 1546.2 1156.29 1545.5 1155.16 1543.54C1154.02 1541.52 1154.71 1539 1156.67 1537.86C1158.69 1536.72 1161.22 1537.42 1162.36 1539.38C1163.56 1541.4 1162.86 1543.92 1160.84 1545.06ZM1154.02 1494.11C1156.55 1498.53 1155.03 1504.21 1150.61 1506.73C1146.19 1509.26 1140.5 1507.74 1137.97 1503.32C1135.45 1498.9 1136.96 1493.22 1141.38 1490.7C1145.81 1488.11 1151.49 1489.69 1154.02 1494.11ZM1069.12 1251.72L1026.23 1325.59L968.045 1224.38L1010.94 1150.51L1069.12 1251.72ZM1164.63 1320.41L1137.4 1367.32L1050.29 1367.32L1027.36 1327.42L1071.2 1251.91L1124.77 1251.15L1164.63 1320.41ZM1166.27 1321.42L1349.21 1321.8L1403.16 1415.63L1335.57 1415.5L1335.32 1416L1302.72 1472.58L1252.82 1471.38L1206.32 1390.5L1320.6 1390.75C1320.72 1391.38 1320.91 1391.95 1321.29 1392.52C1322.94 1395.42 1326.66 1396.43 1329.57 1394.73C1332.47 1393.08 1333.48 1389.36 1331.78 1386.46C1330.14 1383.55 1326.41 1382.54 1323.5 1384.25C1321.74 1385.26 1320.72 1386.96 1320.54 1388.85L1205 1388.6L1177.39 1436.08L1138.79 1368.97L1166.27 1321.42ZM1324.33 1385.82C1326.35 1384.69 1328.87 1385.38 1330.01 1387.34C1331.15 1389.36 1330.45 1391.89 1328.49 1393.02C1326.47 1394.16 1323.95 1393.46 1322.81 1391.51C1321.67 1389.49 1322.37 1386.96 1324.33 1385.82ZM996.851 928.828C992.429 931.354 986.744 929.839 984.217 925.419C981.69 920.999 983.206 915.317 987.628 912.791C992.05 910.266 997.735 911.781 1000.26 916.201C1002.85 920.557 1001.34 926.24 996.851 928.828ZM1213.52 1104.73L1126.16 1249.7L1046.25 1110.67L1073.41 1063.82L1096.79 1104.42L1097.35 1104.42L1213.52 1104.73ZM1222.56 999.291L1187.69 1059.34L1212.7 1102.9L1097.86 1102.65L1074.49 1062.05L1166.97 902.752L1222.56 999.291ZM1337.97 1034.21L1298.05 1103.03L1214.91 1102.84L1189.9 1059.27L1223.63 1001.12L1240.75 1030.92L1240.88 1030.92L1337.97 1034.21ZM1241 1030.54L1223.88 1000.74L1256.61 944.36L1389.64 944.613L1389.83 944.929L1338.22 1033.83L1241 1030.54ZM1582.31 1104.61L1525.59 1205.75L1485.09 1205.69C1485.16 1204.55 1484.9 1203.42 1484.27 1202.41C1482.63 1199.5 1478.9 1198.49 1476 1200.2C1473.09 1201.84 1472.08 1205.56 1473.79 1208.47C1475.43 1211.37 1479.16 1212.38 1482.06 1210.68C1483.32 1209.98 1484.21 1208.85 1484.71 1207.58L1525.59 1207.65L1552.81 1254.94L1455.4 1254.75L1431.27 1212.7L1488.25 1114.52C1489.89 1115.15 1491.79 1115.02 1493.37 1114.08C1496.27 1112.43 1497.29 1108.71 1495.58 1105.81C1493.94 1102.9 1490.21 1101.89 1487.3 1103.6C1484.4 1105.24 1483.39 1108.96 1485.09 1111.87C1485.47 1112.56 1485.98 1113.13 1486.61 1113.57L1430.14 1210.8L1370 1106.12C1374.74 1102.84 1376.25 1096.46 1373.35 1091.41C1370.25 1086.04 1363.43 1084.21 1358.12 1087.31C1352.75 1090.4 1350.92 1097.22 1354.02 1102.52C1356.92 1107.57 1363.24 1109.47 1368.42 1107.07L1429.12 1212.7L1395.52 1270.53L1299.75 1103.91L1390.97 946.697L1452.81 1054.41C1450.1 1056.49 1449.28 1060.28 1451.04 1063.38C1452.94 1066.72 1457.17 1067.86 1460.52 1065.96C1463.87 1064.07 1465.01 1059.84 1463.11 1056.49C1461.34 1053.46 1457.68 1052.26 1454.52 1053.53L1392.11 944.992L1400.13 931.228C1401.96 932.301 1404.3 932.427 1406.32 931.291C1409.23 929.649 1410.24 925.924 1408.53 923.02C1406.83 920.115 1403.16 919.105 1400.26 920.81C1397.35 922.451 1396.34 926.177 1398.04 929.081C1398.23 929.397 1398.42 929.712 1398.68 929.965L1391.03 943.098L1390.84 942.782L1390.27 942.782L1255.6 942.466L1255.34 942.908L1222.87 998.849L1167.47 902.5L1408.09 903.005L1408.85 904.331L1524.95 1106.31C1522.24 1108.39 1521.42 1112.18 1523.18 1115.28C1525.08 1118.62 1529.31 1119.76 1532.66 1117.86C1536.01 1115.97 1537.15 1111.74 1535.25 1108.39C1533.48 1105.36 1529.82 1104.16 1526.66 1105.43L1410.55 903.447L1409.23 901.174L1346.62 792.323L1374.86 743.707L1582.31 1104.61ZM1401.08 922.325C1403.1 921.189 1405.63 921.883 1406.76 923.84C1407.9 925.798 1407.2 928.386 1405.25 929.523C1403.22 930.659 1400.7 929.965 1399.56 928.008C1398.42 926.05 1399.12 923.462 1401.08 922.325ZM1488.31 1105.3C1490.34 1104.16 1492.86 1104.86 1494 1106.82C1495.14 1108.84 1494.44 1111.36 1492.48 1112.5C1490.46 1113.63 1487.94 1112.94 1486.8 1110.98C1485.6 1108.96 1486.29 1106.44 1488.31 1105.3ZM1481.11 1209.04C1479.09 1210.17 1476.57 1209.48 1475.43 1207.52C1474.29 1205.5 1474.99 1202.98 1476.94 1201.84C1478.97 1200.7 1481.49 1201.4 1482.63 1203.35C1483.83 1205.31 1483.14 1207.9 1481.11 1209.04ZM1577.2 835.447L1553.76 875.855C1552.37 875.54 1550.85 875.792 1549.53 876.55C1546.62 878.191 1545.61 881.917 1547.32 884.821C1548.96 887.725 1552.69 888.736 1555.59 887.031C1558.5 885.389 1559.51 881.664 1557.8 878.76C1557.23 877.813 1556.48 877.055 1555.59 876.55L1578.9 836.457L1694.31 837.972L1661.53 894.418L1511.5 894.102L1436.96 764.416C1441.7 761.133 1443.21 754.756 1440.31 749.705C1437.21 744.338 1430.39 742.507 1425.08 745.601C1419.78 748.695 1417.88 755.514 1420.98 760.817C1423.88 765.868 1430.2 767.762 1435.38 765.363L1510.49 895.996L1511.06 895.996L1533.67 896.06L1615.03 1037.62L1615.16 1037.62L1672.71 1035.78L1713.52 1106.75L1627.16 1255.19L1553.32 1255.06L1526.09 1207.77L1599.94 1207.9L1650.41 1120.96C1654.26 1122.54 1658.75 1122.41 1662.6 1120.2C1669.23 1116.41 1671.51 1107.89 1667.72 1101.26C1663.93 1094.63 1655.4 1092.36 1648.77 1096.14C1642.13 1099.93 1639.86 1108.46 1643.65 1115.09C1644.91 1117.23 1646.62 1118.94 1648.64 1120.14L1598.8 1206.01L1526.03 1205.88L1582.75 1104.67L1375.05 743.138L1410.68 681.768L1489.01 681.957L1577.2 835.447ZM1422.49 759.744C1419.96 755.324 1421.48 749.642 1425.9 747.116C1430.32 744.591 1436.01 746.106 1438.54 750.526C1441.06 754.945 1439.55 760.628 1435.13 763.153C1430.7 765.742 1425.02 764.164 1422.49 759.744ZM1554.64 885.326C1552.62 886.463 1550.1 885.768 1548.96 883.811C1547.82 881.79 1548.52 879.265 1550.47 878.128C1552.5 876.992 1555.02 877.686 1556.16 879.644C1557.3 881.664 1556.6 884.19 1554.64 885.326ZM1602.02 792.765L1577.51 835.005L1489.58 682.021L1538.41 682.147L1602.02 792.765ZM1709.85 811.075L1694.57 837.467L1579.15 835.952L1603.66 793.712L1700 793.902L1709.85 811.075ZM1924.51 923.588L1853.44 1046.08L1817.68 983.885L1816.86 984.327L1816.86 983.38L1758.81 983.569L1685.72 856.409L1710.99 812.906L1748.32 877.813L1749.27 877.244L1749.84 877.56L1793.93 801.605L1861.78 919.61L1841.63 954.273C1839.73 952.947 1837.27 952.758 1835.12 953.957C1832.21 955.599 1831.2 959.324 1832.91 962.229C1834.61 965.133 1838.28 966.143 1841.18 964.438C1844.09 962.797 1845.1 959.072 1843.39 956.167C1843.27 955.978 1843.14 955.788 1843.02 955.599L1863.36 920.557L1924.51 923.588ZM1840.17 962.923C1838.15 964.06 1835.62 963.365 1834.49 961.408C1833.35 959.387 1834.05 956.862 1836 955.725C1837.96 954.589 1840.55 955.283 1841.69 957.241C1842.83 959.261 1842.13 961.787 1840.17 962.923ZM1959 981.738L1887.36 1105.11L1854.51 1047.97L1926.15 924.598L1959 981.738ZM2018.88 1177.72L1929.05 1177.53L1888.5 1107L1960.07 983.696L2028.1 1102.08L1994.62 1102.02C1994.62 1101.07 1994.31 1100.06 1993.8 1099.18C1992.16 1096.27 1988.43 1095.26 1985.53 1096.97C1982.62 1098.61 1981.61 1102.33 1983.32 1105.24C1984.96 1108.14 1988.69 1109.15 1991.59 1107.45C1992.98 1106.63 1993.93 1105.36 1994.37 1103.91L2063.42 1104.04L2018.88 1177.72ZM1990.64 1105.81C1988.62 1106.94 1986.1 1106.25 1984.96 1104.29C1983.82 1102.27 1984.52 1099.74 1986.48 1098.61C1988.5 1097.47 1991.02 1098.17 1992.16 1100.12C1993.36 1102.08 1992.67 1104.67 1990.64 1105.81ZM2271.56 978.139C2272.7 980.16 2272 982.685 2270.05 983.822C2268.02 984.958 2265.5 984.264 2264.36 982.307C2263.22 980.286 2263.92 977.761 2265.88 976.624C2267.84 975.488 2270.42 976.182 2271.56 978.139Z" fill="#333333" fill-opacity="0.12"/>
</svg>
