<svg width="1434" height="1458" viewBox="0 0 1434 1458" fill="none" xmlns="http://www.w3.org/2000/svg">
<path d="M0.784618 479.808C2.42695 482.712 6.15412 483.722 9.05989 482.018C11.9658 480.313 12.9765 476.651 11.2708 473.747C10.8918 473.115 10.4497 472.547 9.88118 472.105L122.008 278.965L254.602 279.217L210.004 352.9L164.269 352.773L106.152 452.911L106.595 453.163C105.079 452.785 103.436 452.911 102.046 453.732C99.1406 455.373 98.1298 459.098 99.8354 462.003C101.478 464.907 105.205 465.917 108.111 464.213C111.017 462.571 112.027 458.846 110.322 455.942C109.753 454.931 108.869 454.11 107.921 453.605L165.406 354.541L245.38 354.731L313.73 473.62L299.327 498.371C296.042 496.603 291.936 496.476 288.462 498.497C283.092 501.591 281.26 508.41 284.356 513.713C287.451 519.08 294.273 520.911 299.58 517.817C304.949 514.723 306.781 507.904 303.686 502.601C302.928 501.338 301.98 500.265 300.906 499.381L314.804 475.451L347.652 532.592L261.425 681.093C259.846 680.777 258.14 681.03 256.624 681.851C253.276 683.745 252.139 687.975 254.034 691.321C255.929 694.668 260.161 695.804 263.509 693.91C266.857 692.016 267.994 687.786 266.099 684.439C265.404 683.24 264.394 682.293 263.257 681.724L349.231 533.854L410.443 536.759L376.71 594.846C372.478 591.942 366.793 591.563 361.992 594.278C355.359 598.066 353.085 606.59 356.875 613.219C360.665 619.849 369.193 622.122 375.826 618.333C382.459 614.545 384.733 606.021 380.943 599.392C380.185 598.066 379.3 596.993 378.226 595.982L412.086 537.706L479.93 655.711L466.728 678.504L352.327 678.252C352.2 677.81 352.011 677.368 351.758 676.926C350.116 674.021 346.389 673.011 343.483 674.716C340.577 676.358 339.566 680.083 341.272 682.987C342.914 685.891 346.641 686.902 349.547 685.197C351.442 684.124 352.516 682.166 352.579 680.146L467.865 680.398L468.117 679.956L525.16 581.713L562.052 645.925L535.141 692.332L609.872 822.333L575.381 822.27C575.254 821.386 575.002 820.566 574.496 819.745C572.601 816.398 568.369 815.262 565.021 817.156C561.673 819.05 560.536 823.28 562.431 826.627C564.326 829.973 568.558 831.11 571.906 829.216C573.864 828.079 575.001 826.185 575.317 824.164L653.08 824.354C653.017 825.49 653.269 826.627 653.901 827.7C655.544 830.604 659.27 831.615 662.176 829.91C665.082 828.268 666.093 824.543 664.387 821.639C662.745 818.734 659.018 817.724 656.112 819.429C654.912 820.124 654.027 821.197 653.522 822.46L612.082 822.397L537.352 692.395L563.189 647.882L573.043 665.056L573.612 665.056L670.515 665.245L734.696 776.874L735.264 776.874L864.637 777.126L864.889 776.684L929.828 664.866L867.227 556.016L1108.16 556.521L1108.41 556.079L1200.77 397.033L1275.56 527.225C1270.82 530.508 1269.3 536.885 1272.21 541.936C1275.31 547.303 1282.13 549.134 1287.43 546.04C1292.8 542.946 1294.64 536.127 1291.54 530.824C1288.63 525.773 1282.32 523.878 1277.14 526.278L1201.78 395.139L1230.08 346.397L1149.6 206.419L1202.91 205.661L1262.04 308.514L1261.91 308.703L1262.29 308.892L1262.48 309.208L1262.67 309.082L1263.56 309.587L1307.52 233.631L1424.83 235.273L1382.82 307.63C1379.41 305.483 1374.99 305.23 1371.26 307.314C1365.89 310.408 1364.06 317.227 1367.16 322.53C1370.25 327.897 1377.07 329.728 1382.38 326.634C1387.75 323.54 1389.58 316.721 1386.49 311.418C1385.85 310.281 1384.97 309.334 1384.02 308.514L1384.34 308.703L1426.41 236.22L1507.2 376.766L1475.3 431.76L1344.54 431.507C1344.29 429.739 1343.72 428.034 1342.84 426.393C1339.04 419.763 1330.52 417.49 1323.88 421.279C1317.25 425.067 1314.98 433.591 1318.77 440.22C1322.56 446.85 1331.09 449.123 1337.72 445.334C1342.14 442.809 1344.6 438.2 1344.67 433.401L1476.38 433.654L1476.63 433.212L1548.33 309.713L1476.88 185.394L1476.31 185.394L1333.42 185.078L1333.17 185.52L1306.13 232.179L1247.95 130.968L1264.13 103.124L1380.86 103.377C1380.86 104.324 1381.18 105.334 1381.68 106.218C1383.33 109.123 1387.05 110.133 1389.96 108.428C1392.87 106.786 1393.88 103.061 1392.17 100.157C1390.53 97.2526 1386.8 96.2424 1383.9 97.9471C1382.51 98.7679 1381.56 100.031 1381.12 101.483L1263.05 101.23L1262.8 101.672L1246.88 129.074L1223.95 89.1709L1136.84 89.1709L1201.71 -22.584L1110.75 -180.872L1167.92 -279.178L1110.68 -378.747L1110.12 -378.747L995.778 -379L938.483 -280.315C936.777 -281.009 934.819 -281.009 933.05 -279.999C930.144 -278.357 929.134 -274.632 930.839 -271.728C932.482 -268.824 936.209 -267.813 939.114 -269.518C942.02 -271.16 943.031 -274.885 941.325 -277.789C941.01 -278.357 940.567 -278.863 940.062 -279.305L965.709 -323.501L1047.14 -181.819L1010.37 -181.882C1010.12 -183.397 1009.55 -184.913 1008.73 -186.365C1004.94 -192.994 996.41 -195.267 989.777 -191.479C983.144 -187.691 980.87 -179.167 984.66 -172.538C988.45 -165.908 996.978 -163.635 1003.61 -167.423C1008.22 -170.075 1010.75 -175 1010.56 -179.988L1048.21 -179.925L1082.76 -119.817L1062.42 -85.091L930.587 -85.3435L930.334 -85.7224L929.892 -85.4698L929.955 -85.2804L913.467 -85.3435C913.341 -86.2275 913.088 -87.0483 912.583 -87.8691C910.688 -91.2154 906.455 -92.3519 903.107 -90.4578C899.76 -88.5636 898.622 -84.3333 900.517 -80.987C902.413 -77.6406 906.645 -76.5042 909.993 -78.3983C911.951 -79.5348 913.088 -81.4289 913.404 -83.4494L931.029 -83.3863L969.562 -16.3333L937.219 39.7967L869.627 39.6704L836.653 -17.6592C839.369 -19.7428 840.19 -23.5311 838.421 -26.6249C836.526 -29.9712 832.294 -31.1077 828.946 -29.2136C825.598 -27.3194 824.461 -23.0891 826.356 -19.7428C828.124 -16.7122 831.788 -15.5125 834.947 -16.7753L867.353 39.6073L795.908 39.481L759.774 -23.4048L796.097 -86.038C799.066 -85.0279 802.414 -85.2172 805.32 -86.922C810.689 -90.0158 812.521 -96.8347 809.426 -102.138C806.331 -107.505 799.508 -109.336 794.202 -106.242C788.833 -103.149 787.001 -96.3296 790.096 -91.026C791.17 -89.195 792.686 -87.7428 794.392 -86.7957L758.7 -25.2989L725.536 -82.9443L796.413 -205.054L936.019 -204.738L882.893 -113.188C878.661 -115.839 873.165 -116.155 868.553 -113.503C861.921 -109.715 859.646 -101.191 863.437 -94.5617C867.227 -87.9322 875.755 -85.6592 882.388 -89.4475C889.02 -93.2358 891.295 -101.76 887.505 -108.389C886.683 -109.841 885.673 -111.041 884.472 -112.051L938.799 -205.622L938.23 -205.938L938.23 -206.569L795.339 -206.885L723.388 -82.8812L757.627 -23.3417L725.031 32.8514L665.524 -70.6955L678.601 -93.1727L643.794 -153.722L573.928 -153.849L539.184 -93.9935C537.542 -94.6249 535.646 -94.5617 533.941 -93.6147C531.035 -91.9731 530.024 -88.2479 531.73 -85.3435C533.372 -82.4392 537.099 -81.429 540.005 -83.1337C542.911 -84.7753 543.922 -88.5005 542.216 -91.4048C541.837 -92.0362 541.332 -92.6045 540.827 -93.0464L558.009 -122.595L636.34 -120.701L664.261 -72.0845L642.53 -34.6434L581.129 -34.7697C581.003 -35.6537 580.75 -36.4745 580.245 -37.2953C578.35 -40.6416 574.117 -41.7781 570.769 -39.8839C567.421 -37.9898 566.284 -33.7595 568.179 -30.4132C570.074 -27.0669 574.307 -25.9304 577.655 -27.8245C579.613 -28.961 580.75 -30.8551 581.066 -32.8756L623.895 -32.8124L566.537 61.2006L536.657 61.1374L451.251 -87.4271C455.989 -90.7103 457.505 -97.0873 454.599 -102.138C451.504 -107.505 444.682 -109.336 439.375 -106.242C434.006 -103.149 432.174 -96.3296 435.269 -91.026C438.175 -85.9749 444.492 -84.0808 449.672 -86.48L534.699 61.0743L449.356 60.8849L405.453 136.588L447.903 210.46L277.217 210.081L191.811 61.4531C194.085 59.6221 194.78 56.3389 193.264 53.7503C191.622 50.8459 187.895 49.8357 184.989 51.5404C182.083 53.182 181.072 56.9072 182.778 59.8115C184.294 62.4002 187.452 63.4736 190.169 62.4633L208.614 94.5376L179.367 146.374L254.666 277.386L120.997 277.134L8.36494 471.221C6.72261 470.59 4.76435 470.653 3.12202 471.6C0.153026 473.178 -0.857838 476.903 0.784618 479.808ZM540.763 -90.6472C541.9 -88.6267 541.206 -86.1012 539.247 -84.9647C537.226 -83.8282 534.699 -84.5228 533.562 -86.48C532.425 -88.5005 533.12 -91.026 535.078 -92.1625C537.036 -93.299 539.626 -92.6676 540.763 -90.6472ZM792.054 -92.0362C789.528 -96.4559 791.044 -102.138 795.465 -104.664C799.887 -107.189 805.573 -105.674 808.099 -101.254C810.626 -96.8347 809.11 -91.1523 804.688 -88.6267C800.266 -86.1012 794.581 -87.6165 792.054 -92.0362ZM939.746 -276.842C940.883 -274.822 940.188 -272.296 938.23 -271.16C936.209 -270.023 933.682 -270.718 932.545 -272.675C931.408 -274.695 932.103 -277.221 934.061 -278.357C936.019 -279.557 938.546 -278.863 939.746 -276.842ZM1383.39 105.271C1383.07 104.703 1382.88 104.008 1382.82 103.377L1382.88 103.377L1382.88 102.367C1383.14 101.23 1383.83 100.22 1384.91 99.5887C1386.93 98.4522 1389.45 99.1468 1390.59 101.104C1391.73 103.124 1391.03 105.65 1389.08 106.786C1387.05 107.986 1384.53 107.292 1383.39 105.271ZM1384.84 312.428C1387.37 316.848 1385.85 322.53 1381.43 325.056C1377.01 327.581 1371.32 326.066 1368.8 321.646C1366.27 317.227 1367.79 311.544 1372.21 309.019C1376.63 306.493 1382.32 308.008 1384.84 312.428ZM1307.84 233.189L1334.62 187.035L1475.87 187.351L1546.24 309.776L1507.58 376.387L1426.79 235.841L1443.84 206.482C1445.3 206.798 1446.81 206.608 1448.2 205.851C1451.11 204.209 1452.12 200.484 1450.41 197.579C1448.77 194.675 1445.04 193.665 1442.14 195.37C1439.23 197.011 1438.22 200.736 1439.93 203.641C1440.43 204.588 1441.19 205.282 1442.08 205.787L1425.21 234.894L1307.84 233.189ZM1443.09 196.948C1445.11 195.812 1447.63 196.506 1448.77 198.463C1449.91 200.484 1449.21 203.009 1447.26 204.146C1445.23 205.282 1442.71 204.588 1441.57 202.63C1440.37 200.673 1441.06 198.085 1443.09 196.948ZM655.417 826.816C654.28 824.796 654.975 822.27 656.933 821.134C658.955 819.997 661.482 820.692 662.619 822.649C663.756 824.67 663.061 827.195 661.102 828.332C659.144 829.468 656.617 828.774 655.417 826.816ZM350.053 677.999C351.19 680.02 350.495 682.545 348.536 683.682C346.515 684.818 343.988 684.123 342.851 682.166C341.714 680.146 342.409 677.62 344.367 676.484C346.325 675.347 348.915 675.979 350.053 677.999ZM302.043 503.8C304.57 508.22 303.054 513.903 298.632 516.428C294.21 518.954 288.525 517.438 285.998 513.019C283.471 508.599 284.987 502.917 289.409 500.391C293.768 497.802 299.453 499.318 302.043 503.8ZM108.679 457.078C109.816 459.098 109.122 461.624 107.163 462.76C105.205 463.897 102.615 463.202 101.478 461.245C100.341 459.225 101.036 456.699 102.994 455.563C104.952 454.363 107.542 455.058 108.679 457.078ZM190.042 60.3798C188.084 61.5163 185.494 60.8217 184.357 58.8644C183.22 56.844 183.915 54.3185 185.873 53.182C187.895 52.0455 190.421 52.74 191.559 54.6973C192.759 56.7178 192.064 59.2433 190.042 60.3798ZM449.609 212.417L477.404 212.48L421.814 310.913L443.797 349.175L387.197 349.048L346.136 277.576L345.567 277.576L255.171 277.386L179.872 146.374L208.867 95.0427L276.08 211.975L276.649 211.975L448.977 212.354L449.04 212.417L449.609 212.417ZM444.871 351.069L514.169 471.6L457.695 471.789L388.271 351.006L444.871 351.069ZM463.19 185.962L449.482 209.513L407.537 136.588L421.245 113.037L463.19 185.962ZM477.404 210.586L451.125 210.523L464.327 187.793L477.404 210.586ZM534.573 62.9684L463.443 185.457L421.498 112.532L450.367 62.779L534.573 62.9684ZM449.672 -88.6899C445.25 -86.1644 439.565 -87.6797 437.038 -92.0994C434.511 -96.519 436.027 -102.201 440.449 -104.727C444.871 -107.253 450.556 -105.737 453.083 -101.318C455.673 -96.961 454.157 -91.2786 449.672 -88.6899ZM612.209 142.081L491.933 349.301L444.366 349.175L422.382 310.913L477.972 212.48L536.594 212.606L576.77 143.344C578.665 144.101 580.94 144.038 582.835 142.965C586.183 141.071 587.32 136.84 585.425 133.494C583.529 130.148 579.297 129.011 575.949 130.905C572.601 132.799 571.464 137.03 573.359 140.376C573.801 141.197 574.433 141.828 575.128 142.397L535.457 210.712L477.909 210.586L464.58 187.351L536.847 62.9053L566.726 62.9684L612.209 142.081ZM514.737 471.6L445.44 351.069L490.796 351.195L490.29 352.016L558.956 471.474L514.737 471.6ZM560.093 473.305L610.882 561.698L588.583 600.086L515.748 473.431L560.093 473.305ZM601.659 421.784L658.828 419.953L739.939 561.067L612.525 560.814L562.241 473.368L628.633 473.178L628.633 472.61L644.362 499.949C639.625 503.232 638.108 509.609 641.014 514.66C644.11 520.027 650.932 521.858 656.238 518.764C661.608 515.67 663.44 508.852 660.344 503.548C657.439 498.497 651.122 496.603 645.942 499.002L601.659 421.784ZM658.765 504.432C661.292 508.851 659.776 514.534 655.354 517.059C650.932 519.585 645.247 518.07 642.72 513.65C640.193 509.23 641.709 503.548 646.131 501.022C650.553 498.497 656.238 500.012 658.765 504.432ZM561.167 471.41L533.878 423.93L599.512 421.847L627.875 471.221L561.167 471.41ZM533.625 423.488L492.501 351.953L493.007 351.132L558.956 351.258L599.259 421.342L533.625 423.488ZM645.626 200.168L559.02 349.364L494.144 349.238L613.283 143.975L645.626 200.168ZM709.428 63.2842L754.784 142.144L612.588 141.828L567.295 62.9684L709.428 63.2842ZM721.304 200.105L756.868 144.796L756.426 144.038L854.34 144.228L877.46 184.447L843.854 242.281L819.723 200.231L819.154 200.231L721.304 200.105ZM918.395 355.362C920.921 359.782 919.405 365.464 914.983 367.99C910.562 370.515 904.876 369 902.349 364.58C899.823 360.161 901.339 354.478 905.761 351.953C910.183 349.427 915.868 350.879 918.395 355.362ZM720.735 200.105L646.005 199.916L613.662 143.722L755.858 144.038L756.3 144.733L720.735 200.105ZM665.461 -70.4429L724.968 33.104L708.606 61.3269L567.295 61.0112L624.653 -33.0019L643.731 -32.9387L665.461 -70.4429ZM664.64 -72.779L636.719 -121.396L558.388 -123.29L575.191 -152.207L642.909 -152.081L676.642 -93.4253L664.64 -72.779ZM873.923 109.754L855.161 142.333L854.909 142.333L755.352 142.144L709.87 63.0316L759.016 -21.637L795.15 41.2488L795.718 41.2488L834.631 41.312L873.923 109.754ZM1107.78 137.535L1147.64 206.861L1060.15 352.079L1022.75 286.983C1025.47 284.9 1026.29 281.111 1024.52 278.018C1022.63 274.671 1018.39 273.535 1015.05 275.429C1011.7 277.323 1010.56 281.553 1012.46 284.9C1014.22 287.93 1017.89 289.13 1021.05 287.867L1058.06 352.268L976.006 352.079L880.177 185.457L1056.55 185.836C1056.42 187.225 1056.67 188.677 1057.43 189.94C1059.33 193.286 1063.56 194.423 1066.91 192.528C1070.26 190.634 1071.39 186.404 1069.5 183.058C1067.6 179.711 1063.37 178.575 1060.02 180.469C1058.63 181.29 1057.62 182.489 1057.05 183.942L879.103 183.563L855.54 142.586L874.428 109.754L835.073 41.312L868.68 41.3751L923.701 137.093L924.27 137.093L1107.78 137.535ZM1008.35 -83.3862L970.068 -16.9647L931.787 -83.5125L1008.35 -83.3862ZM1061.41 -83.26L1021.36 -14.818L971.71 -16.0176L1010.56 -83.3862L1061.41 -83.26ZM1108.54 -181.756L1047.7 -181.882L966.025 -324.007L996.852 -377.106L1109.55 -376.853L1165.71 -279.178L1109.42 -182.261L1108.54 -181.756ZM1135.64 87.6555L1097.04 20.5395L1126.73 -30.6026C1129.07 -30.35 1131.47 -30.7289 1133.62 -31.9916C1138.98 -35.0854 1140.82 -41.9043 1137.72 -47.208C1134.63 -52.5747 1127.8 -54.4057 1122.5 -51.312C1117.13 -48.2182 1115.3 -41.3992 1118.39 -36.0956C1119.84 -33.5701 1122.18 -31.8022 1124.83 -30.9814L1068.3 66.4411L1021.8 -14.4391L1062.04 -83.1337L1109.42 -83.0074C1109.55 -82.4392 1109.8 -81.8709 1110.05 -81.3027C1111.7 -78.3983 1115.42 -77.3881 1118.33 -79.0928C1121.23 -80.7344 1122.24 -84.4596 1120.54 -87.364C1118.9 -90.2683 1115.17 -91.2785 1112.26 -89.5738C1110.5 -88.5636 1109.42 -86.7957 1109.23 -84.9016L1063.05 -85.0278L1083.4 -119.754L1048.84 -179.862L1109.17 -179.735L1199.63 -22.3946L1135.64 87.6555ZM1113.15 -88.0585C1115.17 -89.195 1117.7 -88.5004 1118.83 -86.5432C1119.97 -84.5227 1119.28 -81.9972 1117.32 -80.8607C1115.3 -79.7242 1112.77 -80.4187 1111.63 -82.376C1110.5 -84.3333 1111.19 -86.922 1113.15 -88.0585ZM1120.03 -37.0427C1117.51 -41.4624 1119.02 -47.1449 1123.45 -49.6704C1127.87 -52.1959 1133.55 -50.6806 1136.08 -46.2609C1138.61 -41.8412 1137.09 -36.1588 1132.67 -33.6332C1128.25 -31.1077 1122.56 -32.623 1120.03 -37.0427ZM1204.87 205.345L1247.76 131.474L1305.94 232.684L1263.05 306.556L1204.87 205.345ZM1109.42 136.588L1136.65 89.676L1223.76 89.676L1246.69 129.579L1202.85 205.093L1149.28 205.851L1109.42 136.588ZM1107.78 135.641L924.838 135.262L870.891 41.4383L938.483 41.5645L938.735 41.0594L971.331 -15.5125L1021.24 -14.3129L1067.73 66.5674L953.454 66.3148C953.328 65.6834 953.138 65.1152 952.759 64.5469C951.117 61.6426 947.39 60.6323 944.484 62.3371C941.578 63.9787 940.567 67.7038 942.273 70.6082C943.915 73.5126 947.642 74.5227 950.548 72.818C952.317 71.8078 953.328 70.1031 953.517 68.2089L1069.06 68.4615L1096.66 20.9815L1135.26 88.0975L1107.78 135.641ZM949.664 71.1764C947.642 72.3129 945.116 71.6184 943.979 69.6611C942.842 67.6407 943.536 65.1152 945.495 63.9786C947.516 62.8422 950.043 63.5367 951.18 65.494C952.38 67.5144 951.685 70.04 949.664 71.1764ZM1277.14 528.235C1281.56 525.709 1287.25 527.225 1289.77 531.645C1292.3 536.064 1290.78 541.747 1286.36 544.272C1281.94 546.798 1276.25 545.282 1273.73 540.863C1271.2 536.443 1272.72 530.761 1277.14 528.235ZM1060.53 352.268L1147.89 207.303L1227.8 346.333L1200.64 393.182L1177.27 352.584L1176.7 352.584L1060.53 352.268ZM1051.49 457.709L1086.36 397.665L1061.35 354.099L1176.19 354.352L1199.57 394.95L1107.08 554.248L1051.49 457.709ZM936.019 422.794L975.943 353.973L1059.07 354.163L1084.09 397.728L1050.36 455.878L1033.24 426.077L1033.11 426.077L936.019 422.794ZM1032.99 426.456L1050.1 456.257L1017.38 512.64L884.346 512.387L884.156 512.072L935.766 423.173L1032.99 426.456ZM691.74 352.395L748.467 251.247L788.959 251.31C788.896 252.447 789.148 253.583 789.78 254.593C791.423 257.498 795.15 258.508 798.055 256.803C800.961 255.162 801.972 251.436 800.266 248.532C798.624 245.628 794.897 244.618 791.991 246.322C790.728 247.017 789.843 248.153 789.338 249.416L748.467 249.353L721.24 202.062L818.649 202.252L842.78 244.302L785.8 342.482C784.158 341.85 782.263 341.977 780.684 342.924C777.778 344.566 776.767 348.291 778.473 351.195C780.115 354.099 783.842 355.11 786.748 353.405C789.654 351.763 790.665 348.038 788.959 345.134C788.58 344.439 788.075 343.871 787.443 343.429L843.917 246.196L904.055 350.879C899.317 354.163 897.801 360.54 900.707 365.591C903.802 370.957 910.625 372.788 915.931 369.695C921.3 366.601 923.132 359.782 920.037 354.478C917.131 349.427 910.814 347.533 905.634 349.932L844.928 244.302L878.534 186.467L974.3 353.089L883.083 510.304L821.239 402.716C823.955 400.632 824.776 396.844 823.008 393.75C821.113 390.404 816.88 389.267 813.532 391.162C810.184 393.056 809.047 397.286 810.942 400.632C812.711 403.663 816.375 404.863 819.533 403.6L881.945 512.135L873.923 525.899C872.091 524.825 869.754 524.699 867.732 525.836C864.826 527.477 863.816 531.202 865.521 534.107C867.227 537.011 870.891 538.021 873.796 536.317C876.702 534.675 877.713 530.95 876.007 528.046C875.818 527.73 875.628 527.414 875.376 527.162L883.019 514.029L883.209 514.345L883.777 514.345L1018.46 514.66L1018.71 514.218L1051.18 458.278L1106.58 554.627L865.963 554.122L865.205 552.796L749.099 350.753C751.815 348.67 752.636 344.881 750.867 341.787C748.972 338.441 744.74 337.305 741.392 339.199C738.044 341.093 736.907 345.323 738.802 348.67C740.571 351.7 744.234 352.9 747.393 351.637L863.5 553.617L864.826 555.89L927.428 664.74L899.191 713.357L691.74 352.395ZM872.912 534.675C870.891 535.812 868.364 535.117 867.227 533.16C866.09 531.139 866.784 528.614 868.743 527.477C870.764 526.341 873.291 527.035 874.428 528.993C875.628 531.013 874.934 533.539 872.912 534.675ZM785.737 351.7C783.716 352.837 781.189 352.142 780.052 350.185C778.915 348.164 779.61 345.639 781.568 344.502C783.589 343.366 786.116 344.06 787.253 346.018C788.39 348.038 787.696 350.564 785.737 351.7ZM792.876 247.964C794.897 246.827 797.424 247.522 798.561 249.479C799.698 251.5 799.003 254.025 797.045 255.162C795.023 256.298 792.496 255.604 791.359 253.646C790.222 251.689 790.917 249.1 792.876 247.964ZM696.794 621.617L720.23 581.208C721.62 581.524 723.136 581.271 724.462 580.514C727.368 578.872 728.379 575.147 726.673 572.242C725.031 569.338 721.304 568.328 718.398 570.033C715.492 571.674 714.481 575.399 716.187 578.304C716.755 579.251 717.513 580.008 718.398 580.514L695.088 620.606L579.676 619.091L612.461 562.645L762.491 562.961L837.031 692.647C832.294 695.931 830.778 702.307 833.683 707.358C836.779 712.725 843.601 714.556 848.907 711.463C854.277 708.369 856.109 701.55 853.013 696.246C850.108 691.195 843.791 689.301 838.611 691.7L763.691 561.13L763.122 561.13L740.507 561.067L659.144 419.511L659.018 419.511L601.47 421.342L560.662 350.374L646.826 201.873L720.672 201.999L747.898 249.29L674.052 249.163L623.579 336.105C619.726 334.527 615.241 334.653 611.388 336.863C604.755 340.651 602.48 349.175 606.271 355.804C610.061 362.434 618.589 364.707 625.222 360.918C631.855 357.13 634.129 348.606 630.339 341.977C629.075 339.83 627.37 338.125 625.348 336.926L675.189 251.058L747.961 251.184L691.235 352.395L899.001 713.862L863.373 775.232L785.042 775.043L696.794 621.617ZM851.497 697.256C854.024 701.676 852.508 707.358 848.086 709.884C843.664 712.41 837.979 710.894 835.452 706.474C832.925 702.055 834.442 696.372 838.863 693.847C843.285 691.321 848.971 692.837 851.497 697.256ZM719.409 571.674C721.43 570.538 723.957 571.232 725.094 573.189C726.231 575.21 725.536 577.735 723.578 578.872C721.556 580.008 719.03 579.314 717.893 577.357C716.692 575.336 717.387 572.811 719.409 571.674ZM672.031 664.298L696.541 622.059L784.474 775.043L735.643 774.916L672.031 664.298ZM564.199 645.988L579.487 619.596L694.899 621.111L670.388 663.351L574.054 663.162L564.199 645.988ZM349.484 533.412L420.55 410.924L456.305 473.115L457.126 472.673L457.126 473.62L515.179 473.431L588.267 600.592L562.999 644.094L525.666 579.188L524.718 579.756L524.149 579.44L480.057 655.396L412.212 537.39L432.363 502.727C434.258 504.053 436.722 504.242 438.87 503.043C441.776 501.401 442.786 497.676 441.081 494.772C439.375 491.867 435.711 490.857 432.805 492.562C429.9 494.203 428.889 497.929 430.595 500.833C430.721 501.022 430.847 501.212 430.973 501.401L410.633 536.443L349.484 533.412ZM433.879 494.077C435.901 492.941 438.428 493.635 439.565 495.592C440.702 497.613 440.007 500.138 438.049 501.275C436.09 502.411 433.5 501.717 432.363 499.76C431.163 497.739 431.858 495.214 433.879 494.077ZM315.056 475.262L386.691 351.89L419.54 409.03L347.905 532.402L315.056 475.262ZM255.171 279.28L344.999 279.47L385.554 349.995L313.919 473.368L245.885 354.983L279.365 355.046C279.365 355.994 279.681 357.004 280.186 357.888C281.829 360.792 285.556 361.802 288.462 360.097C291.368 358.456 292.378 354.731 290.673 351.826C289.03 348.922 285.303 347.912 282.397 349.617C281.008 350.437 280.06 351.7 279.618 353.152L210.573 353.026L255.171 279.28ZM283.345 351.195C285.366 350.059 287.893 350.753 289.03 352.71C290.167 354.731 289.472 357.256 287.514 358.393C285.493 359.529 282.966 358.835 281.829 356.877C280.692 354.92 281.387 352.395 283.345 351.195ZM2.42707 478.861C1.28999 476.84 1.98481 474.315 3.94307 473.178C5.96455 472.042 8.49128 472.736 9.62837 474.694C10.7655 476.714 10.0706 479.24 8.11238 480.376C6.15412 481.513 3.56416 480.818 2.42707 478.861Z" fill="#333333" fill-opacity="0.05"/>
<path d="M2273.21 598.256C2271.56 595.351 2267.84 594.341 2264.93 596.046C2262.02 597.687 2261.01 601.412 2262.72 604.317C2263.1 604.948 2263.54 605.516 2264.11 605.958L2151.98 799.099L2019.39 798.846L2063.99 725.164L2109.72 725.29L2167.84 625.152L2167.4 624.9C2168.91 625.279 2170.55 625.152 2171.94 624.332C2174.85 622.69 2175.86 618.965 2174.15 616.061C2172.51 613.156 2168.79 612.146 2165.88 613.851C2162.97 615.492 2161.96 619.217 2163.67 622.122C2164.24 623.132 2165.12 623.953 2166.07 624.458L2108.58 723.522L2028.61 723.333L1960.26 604.443L1974.66 579.693C1977.95 581.461 1982.05 581.587 1985.53 579.566C1990.9 576.473 1992.73 569.654 1989.63 564.35C1986.54 558.983 1979.72 557.152 1974.41 560.246C1969.04 563.34 1967.21 570.159 1970.3 575.463C1971.06 576.725 1972.01 577.799 1973.08 578.683L1959.19 602.612L1926.34 545.472L2012.57 396.97C2014.14 397.286 2015.85 397.034 2017.37 396.213C2020.71 394.319 2021.85 390.088 2019.96 386.742C2018.06 383.396 2013.83 382.259 2010.48 384.153C2007.13 386.047 2006 390.278 2007.89 393.624C2008.59 394.824 2009.6 395.771 2010.73 396.339L1924.76 544.462L1863.55 541.557L1897.28 483.47C1901.51 486.374 1907.2 486.753 1912 484.038C1918.63 480.25 1920.91 471.726 1917.12 465.097C1913.32 458.467 1904.8 456.194 1898.16 459.983C1891.53 463.771 1889.26 472.295 1893.05 478.924C1893.81 480.25 1894.69 481.323 1895.76 482.333L1861.9 540.61L1794.06 422.605L1807.26 399.812L1921.66 400.064C1921.79 400.506 1921.98 400.948 1922.23 401.39C1923.87 404.294 1927.6 405.305 1930.51 403.6C1933.41 401.895 1934.42 398.233 1932.72 395.329C1931.08 392.424 1927.35 391.414 1924.44 393.119C1922.55 394.192 1921.47 396.15 1921.41 398.17L1806.13 397.917L1805.87 398.359L1748.83 496.603L1711.94 432.391L1738.85 385.984L1664.12 255.982L1698.61 256.046C1698.74 256.93 1698.99 257.75 1699.49 258.571C1701.39 261.917 1705.62 263.054 1708.97 261.16C1712.32 259.266 1713.45 255.035 1711.56 251.689C1709.66 248.343 1705.43 247.206 1702.08 249.1C1700.13 250.237 1698.99 252.131 1698.67 254.151L1620.91 253.962C1620.97 252.826 1620.72 251.689 1620.09 250.616C1618.45 247.711 1614.72 246.701 1611.81 248.406C1608.91 250.047 1607.9 253.773 1609.6 256.677C1611.31 259.581 1614.97 260.592 1617.88 258.887C1619.08 258.192 1619.96 257.119 1620.47 255.856L1661.91 255.919L1736.64 385.921L1710.8 430.434L1700.95 413.26L1700.38 413.26L1603.48 413.071L1539.29 301.442L1538.73 301.442L1409.35 301.19L1409.1 301.631L1344.16 413.449L1406.76 522.3L1165.83 521.795L1165.58 522.237L1073.22 681.282L998.621 550.965C1003.36 547.682 1004.87 541.305 1001.97 536.254C998.874 530.887 992.051 529.056 986.745 532.15C981.375 535.243 979.543 542.062 982.639 547.366C985.545 552.417 991.862 554.311 997.042 551.912L1072.4 683.05L1044.1 731.793L1124.58 871.771L1071.27 872.528L1012.14 769.676L1012.27 769.487L1011.89 769.297L1011.7 768.982L1011.51 769.108L1010.62 768.603L966.53 844.558L849.223 842.917L891.232 770.56C894.643 772.707 899.065 772.959 902.792 770.876C908.161 767.782 909.993 760.963 906.898 755.659C903.802 750.293 896.98 748.462 891.674 751.555C886.304 754.649 884.472 761.468 887.568 766.772C888.199 767.908 889.084 768.855 890.031 769.676L889.716 769.487L847.644 841.969L766.786 701.234L798.687 646.241L929.449 646.493C929.702 648.261 930.271 649.966 931.155 651.607C934.945 658.237 943.473 660.51 950.106 656.722C956.739 652.933 959.013 644.41 955.223 637.78C951.433 631.151 942.905 628.878 936.272 632.666C931.85 635.191 929.386 639.8 929.323 644.599L797.613 644.346L797.361 644.788L725.662 768.287L797.108 892.606L797.676 892.606L940.567 892.922L940.82 892.48L967.857 845.821L1026.04 947.032L1009.87 974.876L893.127 974.623C893.127 973.676 892.811 972.666 892.305 971.782C890.663 968.877 886.936 967.867 884.03 969.572C881.124 971.214 880.114 974.939 881.819 977.843C883.462 980.748 887.189 981.758 890.094 980.053C891.484 979.232 892.432 977.969 892.874 976.517L1010.94 976.77L1011.19 976.328L1027.11 948.926L1050.04 988.829L1137.15 988.829L1072.28 1100.58L1163.24 1258.87L1106.14 1357.24L1163.37 1456.81L1163.94 1456.81L1278.28 1457.06L1335.57 1358.38C1337.28 1359.07 1339.23 1359.07 1341 1358.06C1343.91 1356.42 1344.92 1352.7 1343.21 1349.79C1341.57 1346.89 1337.84 1345.88 1334.94 1347.58C1332.03 1349.22 1331.02 1352.95 1332.73 1355.85C1333.04 1356.42 1333.49 1356.93 1333.99 1357.37L1308.34 1401.56L1226.92 1259.88L1263.68 1259.95C1263.94 1261.46 1264.5 1262.98 1265.33 1264.43C1269.12 1271.06 1277.64 1273.33 1284.28 1269.54C1290.91 1265.75 1293.18 1257.23 1289.39 1250.6C1285.6 1243.97 1277.07 1241.7 1270.44 1245.49C1265.83 1248.14 1263.3 1253.06 1263.49 1258.05L1225.84 1257.99L1191.29 1197.88L1211.63 1163.15L1343.47 1163.41L1343.72 1163.79L1344.16 1163.53L1344.1 1163.34L1360.59 1163.41C1360.71 1164.29 1360.96 1165.11 1361.47 1165.93C1363.37 1169.28 1367.6 1170.42 1370.95 1168.52C1374.29 1166.63 1375.43 1162.4 1373.54 1159.05C1371.64 1155.7 1367.41 1154.57 1364.06 1156.46C1362.1 1157.6 1360.96 1159.49 1360.65 1161.51L1343.02 1161.45L1304.49 1094.4L1336.83 1038.27L1404.43 1038.39L1437.4 1095.72C1434.68 1097.81 1433.86 1101.59 1435.63 1104.69C1437.53 1108.03 1441.76 1109.17 1445.11 1107.28C1448.46 1105.38 1449.59 1101.15 1447.7 1097.81C1445.93 1094.78 1442.26 1093.58 1439.11 1094.84L1406.7 1038.46L1478.15 1038.58L1514.28 1101.47L1477.96 1164.1C1474.99 1163.09 1471.64 1163.28 1468.73 1164.99C1463.36 1168.08 1461.53 1174.9 1464.63 1180.2C1467.72 1185.51 1474.54 1187.4 1479.85 1184.31C1485.22 1181.21 1487.05 1174.39 1483.96 1169.09C1482.88 1167.26 1481.37 1165.81 1479.66 1164.86L1515.35 1103.36L1548.52 1161.01L1477.64 1283.12L1338.03 1282.8L1391.16 1191.25C1395.39 1193.9 1400.89 1194.22 1405.5 1191.57C1412.13 1187.78 1414.41 1179.25 1410.62 1172.63C1406.83 1166 1398.3 1163.72 1391.67 1167.51C1385.03 1171.3 1382.76 1179.82 1386.55 1186.45C1387.37 1187.9 1388.38 1189.1 1389.58 1190.11L1335.25 1283.69L1335.82 1284L1335.82 1284.63L1478.71 1284.95L1550.66 1160.94L1516.43 1101.4L1549.02 1045.21L1608.53 1148.76L1595.45 1171.24L1630.26 1231.79L1700.13 1231.91L1734.87 1172.06C1736.51 1172.69 1738.41 1172.63 1740.11 1171.68C1743.02 1170.04 1744.03 1166.31 1742.32 1163.41C1740.68 1160.5 1736.95 1159.49 1734.05 1161.2C1731.14 1162.84 1730.13 1166.56 1731.84 1169.47C1732.22 1170.1 1732.72 1170.67 1733.23 1171.11L1716.04 1200.66L1637.71 1198.76L1609.79 1150.15L1631.52 1112.71L1692.92 1112.83C1693.05 1113.72 1693.3 1114.54 1693.81 1115.36C1695.7 1118.7 1699.94 1119.84 1703.28 1117.95C1706.63 1116.05 1707.77 1111.82 1705.87 1108.48C1703.98 1105.13 1699.75 1103.99 1696.4 1105.89C1694.44 1107.02 1693.3 1108.92 1692.99 1110.94L1650.16 1110.88L1707.26 1016.99L1737.14 1017.05L1822.55 1165.62C1817.81 1168.9 1816.3 1175.28 1819.2 1180.33C1822.3 1185.69 1829.12 1187.53 1834.43 1184.43C1839.79 1181.34 1841.63 1174.52 1838.53 1169.22C1835.63 1164.16 1829.31 1162.27 1824.13 1164.67L1739.23 1016.99L1824.57 1017.18L1868.47 941.476L1826.02 867.604L1996.71 867.983L2082.12 1016.61C2079.84 1018.44 2079.15 1021.72 2080.66 1024.31C2082.31 1027.22 2086.03 1028.23 2088.94 1026.52C2091.84 1024.88 2092.85 1021.16 2091.15 1018.25C2089.63 1015.66 2086.47 1014.59 2083.76 1015.6L2065.31 983.526L2094.56 931.689L2019.26 800.677L2152.93 800.93L2265.75 606.842C2267.39 607.474 2269.35 607.411 2270.99 606.464C2273.9 604.822 2274.91 601.097 2273.21 598.256ZM1733.29 1168.65C1732.15 1166.63 1732.85 1164.1 1734.81 1162.96C1736.83 1161.83 1739.35 1162.52 1740.49 1164.48C1741.63 1166.5 1740.93 1169.03 1738.98 1170.16C1736.95 1171.36 1734.43 1170.67 1733.29 1168.65ZM1482 1170.04C1484.53 1174.46 1483.01 1180.14 1478.59 1182.66C1474.17 1185.19 1468.48 1183.67 1465.95 1179.25C1463.43 1174.83 1464.94 1169.15 1469.36 1166.63C1473.79 1164.1 1479.47 1165.62 1482 1170.04ZM1334.31 1354.84C1333.17 1352.82 1333.86 1350.3 1335.82 1349.16C1337.84 1348.02 1340.37 1348.72 1341.51 1350.68C1342.65 1352.7 1341.95 1355.22 1339.99 1356.36C1338.03 1357.56 1335.44 1356.86 1334.31 1354.84ZM890.663 972.729C890.979 973.297 891.168 973.992 891.231 974.623L891.168 974.623L891.168 975.633C890.916 976.77 890.221 977.78 889.147 978.411C887.125 979.548 884.599 978.853 883.461 976.896C882.324 974.876 883.019 972.35 884.978 971.214C886.936 970.077 889.526 970.708 890.663 972.729ZM889.147 765.572C886.62 761.152 888.136 755.47 892.558 752.944C896.98 750.419 902.665 751.934 905.192 756.354C907.719 760.773 906.203 766.456 901.781 768.982C897.359 771.507 891.737 769.992 889.147 765.572ZM966.214 844.874L939.43 891.028L798.182 890.712L727.81 768.287L766.47 701.676L847.265 842.222L830.209 871.581C828.756 871.266 827.24 871.455 825.85 872.213C822.945 873.854 821.934 877.58 823.639 880.484C825.345 883.388 829.009 884.398 831.915 882.694C834.821 881.052 835.831 877.327 834.126 874.423C833.62 873.475 832.862 872.781 831.978 872.276L848.844 843.169L966.214 844.874ZM830.967 881.052C828.946 882.189 826.419 881.494 825.282 879.537C824.145 877.516 824.84 874.991 826.798 873.854C828.819 872.718 831.346 873.412 832.483 875.37C833.62 877.39 832.989 879.916 830.967 881.052ZM1618.57 251.247C1619.71 253.268 1619.02 255.793 1617.06 256.93C1615.04 258.066 1612.51 257.371 1611.37 255.414C1610.23 253.394 1610.93 250.868 1612.89 249.732C1614.91 248.532 1617.44 249.227 1618.57 251.247ZM1923.94 400.064C1922.8 398.044 1923.5 395.518 1925.45 394.382C1927.48 393.245 1930 393.94 1931.14 395.897C1932.28 397.854 1931.58 400.443 1929.62 401.58C1927.66 402.716 1925.07 402.021 1923.94 400.064ZM1972.01 574.263C1969.48 569.843 1971 564.161 1975.42 561.635C1979.84 559.11 1985.53 560.625 1988.06 565.045C1990.58 569.464 1989.07 575.147 1984.64 577.672C1980.22 580.198 1974.54 578.683 1972.01 574.263ZM2165.37 620.922C2164.24 618.902 2164.93 616.376 2166.89 615.24C2168.91 614.103 2171.44 614.798 2172.58 616.755C2173.71 618.775 2173.02 621.301 2171.06 622.437C2169.04 623.637 2166.51 622.943 2165.37 620.922ZM2083.95 1017.62C2085.91 1016.48 2088.5 1017.18 2089.63 1019.14C2090.77 1021.16 2090.08 1023.68 2088.12 1024.82C2086.1 1025.95 2083.57 1025.26 2082.43 1023.3C2081.29 1021.35 2081.99 1018.76 2083.95 1017.62ZM1824.44 865.583L1796.65 865.52L1852.24 767.087L1830.26 728.826L1886.86 728.952L1927.92 800.424L1928.49 800.424L2018.88 800.614L2094.18 931.626L2065.19 982.958L1997.97 865.962L1997.4 865.962L1825.08 865.583L1825.01 865.52L1824.44 865.583ZM1829.12 726.931L1759.82 606.4L1816.23 606.211L1885.66 726.995L1829.12 726.931ZM1810.8 892.101L1824.51 868.551L1866.45 941.476L1852.74 965.026L1810.8 892.101ZM1796.65 867.414L1822.93 867.477L1809.73 890.207L1796.65 867.414ZM1739.42 1015.03L1810.55 892.543L1852.49 965.468L1823.62 1015.22L1739.42 1015.03ZM1824.32 1166.75C1828.74 1164.23 1834.43 1165.74 1836.95 1170.16C1839.48 1174.58 1837.96 1180.26 1833.54 1182.79C1829.12 1185.32 1823.43 1183.8 1820.91 1179.38C1818.38 1174.96 1819.9 1169.28 1824.32 1166.75ZM1661.84 935.919L1782.12 728.699L1829.69 728.826L1851.67 767.087L1796.08 865.52L1737.46 865.394L1697.28 934.657C1695.39 933.899 1693.11 933.962 1691.22 935.035C1687.87 936.93 1686.73 941.16 1688.63 944.506C1690.52 947.853 1694.76 948.989 1698.1 947.095C1701.45 945.201 1702.59 940.97 1700.69 937.624C1700.25 936.803 1699.62 936.172 1698.93 935.604L1738.6 867.288L1796.14 867.414L1809.47 890.649L1737.21 1015.09L1707.33 1015.03L1661.84 935.919ZM1759.32 606.463L1828.61 726.995L1783.26 726.868L1783.76 726.047L1715.03 606.59L1759.32 606.463ZM1713.96 604.696L1663.17 516.302L1685.47 477.914L1758.31 604.569L1713.96 604.696ZM1672.33 656.216L1615.16 658.047L1534.05 516.933L1661.47 517.186L1711.75 604.632L1645.36 604.822L1645.36 605.39L1629.63 578.051C1634.37 574.768 1635.88 568.391 1632.98 563.34C1629.88 557.973 1623.06 556.142 1617.75 559.236C1612.38 562.33 1610.55 569.149 1613.65 574.452C1616.55 579.503 1622.87 581.398 1628.05 578.998L1672.33 656.216ZM1615.22 573.568C1612.7 569.149 1614.21 563.466 1618.64 560.941C1623.06 558.415 1628.74 559.93 1631.27 564.35C1633.8 568.77 1632.28 574.452 1627.86 576.978C1623.5 579.566 1617.81 577.988 1615.22 573.568ZM1712.82 606.59L1740.11 654.07L1674.48 656.153L1646.12 606.779L1712.82 606.59ZM1740.37 654.512L1781.49 726.047L1780.98 726.868L1715.03 726.742L1674.73 656.658L1740.37 654.512ZM1628.43 877.832L1715.03 728.636L1779.91 728.762L1660.71 934.088L1628.43 877.832ZM1564.56 1014.78L1519.21 935.919L1661.4 936.235L1706.76 1015.09L1564.56 1014.78ZM1552.75 877.895L1517.18 933.204L1517.63 933.962L1419.71 933.773L1396.59 893.554L1430.2 835.719L1454.33 877.769L1454.9 877.769L1552.75 877.895ZM1355.6 722.701C1353.07 718.281 1354.58 712.599 1359.01 710.073C1363.43 707.548 1369.11 709.063 1371.64 713.483C1374.17 717.903 1372.65 723.585 1368.23 726.111C1363.81 728.636 1358.12 727.121 1355.6 722.701ZM1553.32 877.895L1628.05 878.085L1660.39 934.278L1518.2 933.962L1517.75 933.267L1553.32 877.895ZM1608.53 1148.44L1549.02 1044.9L1565.38 1016.67L1706.76 1016.99L1649.4 1111L1630.32 1110.94L1608.53 1148.44ZM1609.35 1150.78L1637.27 1199.4L1715.6 1201.29L1698.8 1230.21L1631.08 1230.08L1597.35 1171.43L1609.35 1150.78ZM1400.13 968.246L1418.89 935.667L1419.14 935.667L1518.7 935.856L1564.18 1014.97L1515.04 1099.64L1478.9 1036.75L1478.34 1036.75L1439.42 1036.69L1400.13 968.246ZM1166.27 940.528L1126.41 871.203L1213.9 725.984L1251.3 791.08C1248.59 793.164 1247.76 796.952 1249.53 800.046C1251.43 803.392 1255.66 804.528 1259.01 802.634C1262.36 800.74 1263.49 796.51 1261.6 793.164C1259.83 790.133 1256.17 788.933 1253.01 790.196L1215.99 725.795L1298.05 725.984L1393.81 892.606L1217.44 892.228C1217.57 890.839 1217.32 889.386 1216.56 888.124C1214.66 884.777 1210.43 883.641 1207.08 885.535C1203.73 887.429 1202.6 891.659 1204.49 895.006C1206.39 898.352 1210.62 899.489 1213.97 897.594C1215.36 896.774 1216.37 895.574 1216.94 894.122L1394.89 894.501L1418.45 935.477L1399.56 968.309L1438.92 1036.75L1405.31 1036.69L1350.29 940.97L1349.72 940.97L1166.27 940.528ZM1265.7 1161.39L1303.99 1094.96L1342.27 1161.58L1265.7 1161.39ZM1212.64 1161.26L1252.69 1092.82L1302.34 1094.02L1263.49 1161.39L1212.64 1161.26ZM1165.45 1259.76L1226.29 1259.88L1307.97 1402.01L1277.14 1455.11L1164.44 1454.85L1108.28 1357.18L1164.57 1260.26L1165.45 1259.76ZM1138.42 990.345L1177.01 1057.46L1147.32 1108.6C1144.99 1108.35 1142.59 1108.73 1140.44 1109.99C1135.07 1113.09 1133.24 1119.9 1136.33 1125.21C1139.43 1130.57 1146.25 1132.41 1151.56 1129.31C1156.93 1126.22 1158.76 1119.4 1155.66 1114.1C1154.21 1111.57 1151.87 1109.8 1149.22 1108.98L1205.76 1011.56L1252.25 1092.44L1212.01 1161.13L1164.63 1161.01C1164.51 1160.44 1164.25 1159.87 1164 1159.3C1162.36 1156.4 1158.63 1155.39 1155.72 1157.09C1152.82 1158.73 1151.81 1162.46 1153.51 1165.36C1155.16 1168.27 1158.88 1169.28 1161.79 1167.57C1163.56 1166.56 1164.63 1164.8 1164.82 1162.9L1211 1163.03L1190.66 1197.75L1225.21 1257.86L1164.88 1257.74L1074.42 1100.52L1138.42 990.345ZM1160.84 1166.06C1158.82 1167.2 1156.29 1166.5 1155.16 1164.54C1154.02 1162.52 1154.71 1160 1156.67 1158.86C1158.69 1157.72 1161.22 1158.42 1162.36 1160.38C1163.56 1162.4 1162.86 1164.92 1160.84 1166.06ZM1154.02 1115.11C1156.55 1119.53 1155.03 1125.21 1150.61 1127.73C1146.19 1130.26 1140.5 1128.74 1137.97 1124.32C1135.45 1119.9 1136.96 1114.22 1141.39 1111.7C1145.81 1109.11 1151.49 1110.69 1154.02 1115.11ZM1069.12 872.718L1026.23 946.59L968.046 845.379L1010.94 771.507L1069.12 872.718ZM1164.63 941.412L1137.41 988.324L1050.29 988.324L1027.36 948.421L1071.2 872.907L1124.77 872.15L1164.63 941.412ZM1166.27 942.423L1349.22 942.801L1403.16 1036.63L1335.57 1036.5L1335.32 1037L1302.72 1093.58L1252.82 1092.38L1206.32 1011.5L1320.6 1011.75C1320.73 1012.38 1320.92 1012.95 1321.29 1013.52C1322.94 1016.42 1326.66 1017.43 1329.57 1015.73C1332.48 1014.08 1333.49 1010.36 1331.78 1007.46C1330.14 1004.55 1326.41 1003.54 1323.51 1005.25C1321.74 1006.26 1320.73 1007.96 1320.54 1009.85L1205 1009.6L1177.39 1057.08L1138.8 989.966L1166.27 942.423ZM1324.33 1006.82C1326.35 1005.69 1328.87 1006.38 1330.01 1008.34C1331.15 1010.36 1330.45 1012.89 1328.5 1014.02C1326.47 1015.16 1323.95 1014.46 1322.81 1012.51C1321.67 1010.49 1322.37 1007.96 1324.33 1006.82ZM996.852 549.828C992.43 552.354 986.745 550.839 984.218 546.419C981.691 541.999 983.207 536.317 987.629 533.791C992.051 531.266 997.736 532.781 1000.26 537.201C1002.85 541.557 1001.34 547.24 996.852 549.828ZM1213.53 725.732L1126.16 870.697L1046.25 731.667L1073.41 684.818L1096.79 725.416L1097.36 725.416L1213.53 725.732ZM1222.56 620.291L1187.69 680.335L1212.7 723.901L1097.86 723.648L1074.49 683.05L1166.97 523.752L1222.56 620.291ZM1337.97 655.206L1298.05 724.027L1214.92 723.838L1189.9 680.272L1223.63 622.122L1240.75 651.923L1240.88 651.923L1337.97 655.206ZM1241 651.544L1223.89 621.743L1256.61 565.36L1389.64 565.613L1389.83 565.929L1338.22 654.827L1241 651.544ZM1582.31 725.606L1525.59 826.753L1485.09 826.69C1485.16 825.553 1484.9 824.417 1484.27 823.407C1482.63 820.502 1478.9 819.492 1476 821.197C1473.09 822.839 1472.08 826.564 1473.79 829.468C1475.43 832.372 1479.16 833.383 1482.06 831.678C1483.33 830.983 1484.21 829.847 1484.72 828.584L1525.59 828.647L1552.81 875.938L1455.4 875.749L1431.27 833.698L1488.25 735.518C1489.9 736.15 1491.79 736.023 1493.37 735.076C1496.28 733.435 1497.29 729.71 1495.58 726.805C1493.94 723.901 1490.21 722.891 1487.31 724.595C1484.4 726.237 1483.39 729.962 1485.09 732.866C1485.47 733.561 1485.98 734.129 1486.61 734.571L1430.14 831.804L1370 727.121C1374.74 723.838 1376.25 717.461 1373.35 712.41C1370.25 707.043 1363.43 705.212 1358.12 708.306C1352.75 711.399 1350.92 718.218 1354.02 723.522C1356.92 728.573 1363.24 730.467 1368.42 728.068L1429.13 833.698L1395.52 891.533L1299.75 724.911L1390.97 567.697L1452.81 675.411C1450.1 677.494 1449.28 681.282 1451.05 684.376C1452.94 687.722 1457.17 688.859 1460.52 686.965C1463.87 685.071 1465.01 680.84 1463.11 677.494C1461.34 674.463 1457.68 673.264 1454.52 674.527L1392.11 565.992L1400.13 552.228C1401.96 553.301 1404.3 553.427 1406.32 552.291C1409.23 550.649 1410.24 546.924 1408.53 544.02C1406.83 541.115 1403.16 540.105 1400.26 541.81C1397.35 543.451 1396.34 547.177 1398.05 550.081C1398.24 550.397 1398.42 550.712 1398.68 550.965L1391.03 564.098L1390.84 563.782L1390.28 563.782L1255.6 563.466L1255.34 563.908L1222.87 619.849L1167.47 523.5L1408.09 524.005L1408.85 525.331L1524.95 727.31C1522.24 729.394 1521.42 733.182 1523.19 736.276C1525.08 739.622 1529.31 740.759 1532.66 738.865C1536.01 736.97 1537.15 732.74 1535.25 729.394C1533.48 726.363 1529.82 725.164 1526.66 726.426L1410.55 524.447L1409.23 522.174L1346.63 413.323L1374.86 364.707L1582.31 725.606ZM1401.08 543.325C1403.1 542.189 1405.63 542.883 1406.76 544.84C1407.9 546.798 1407.21 549.386 1405.25 550.523C1403.23 551.659 1400.7 550.965 1399.56 549.008C1398.42 547.05 1399.12 544.462 1401.08 543.325ZM1488.32 726.3C1490.34 725.164 1492.86 725.858 1494 727.815C1495.14 729.836 1494.44 732.361 1492.49 733.498C1490.46 734.634 1487.94 733.94 1486.8 731.982C1485.6 729.962 1486.29 727.437 1488.32 726.3ZM1481.11 830.036C1479.09 831.173 1476.57 830.478 1475.43 828.521C1474.29 826.501 1474.99 823.975 1476.95 822.839C1478.97 821.702 1481.49 822.397 1482.63 824.354C1483.83 826.311 1483.14 828.9 1481.11 830.036ZM1577.2 456.447L1553.76 496.855C1552.37 496.54 1550.85 496.792 1549.53 497.55C1546.62 499.191 1545.61 502.917 1547.32 505.821C1548.96 508.725 1552.69 509.736 1555.59 508.031C1558.5 506.389 1559.51 502.664 1557.8 499.76C1557.23 498.813 1556.48 498.055 1555.59 497.55L1578.9 457.457L1694.31 458.972L1661.53 515.418L1511.5 515.102L1436.96 385.416C1441.7 382.133 1443.21 375.756 1440.31 370.705C1437.21 365.338 1430.39 363.507 1425.08 366.601C1419.78 369.695 1417.88 376.514 1420.98 381.817C1423.88 386.868 1430.2 388.762 1435.38 386.363L1510.49 516.996L1511.06 516.996L1533.67 517.06L1615.04 658.616L1615.16 658.616L1672.71 656.785L1713.52 727.752L1627.16 876.191L1553.32 876.064L1526.09 828.774L1599.94 828.9L1650.41 741.958C1654.26 743.537 1658.75 743.41 1662.6 741.201C1669.24 737.412 1671.51 728.889 1667.72 722.259C1663.93 715.63 1655.4 713.357 1648.77 717.145C1642.14 720.933 1639.86 729.457 1643.65 736.086C1644.91 738.233 1646.62 739.938 1648.64 741.138L1598.8 827.006L1526.03 826.879L1582.76 725.669L1375.05 364.138L1410.68 302.768L1489.01 302.957L1577.2 456.447ZM1422.49 380.744C1419.97 376.324 1421.48 370.642 1425.9 368.116C1430.33 365.591 1436.01 367.106 1438.54 371.526C1441.06 375.945 1439.55 381.628 1435.13 384.153C1430.7 386.742 1425.02 385.164 1422.49 380.744ZM1554.64 506.326C1552.62 507.462 1550.1 506.768 1548.96 504.811C1547.82 502.79 1548.52 500.265 1550.48 499.128C1552.5 497.992 1555.02 498.686 1556.16 500.644C1557.3 502.664 1556.6 505.19 1554.64 506.326ZM1602.02 413.765L1577.51 456.005L1489.58 303.02L1538.41 303.147L1602.02 413.765ZM1709.85 432.075L1694.57 458.467L1579.15 456.952L1603.66 414.712L1700 414.902L1709.85 432.075ZM1924.51 544.588L1853.44 667.076L1817.69 604.885L1816.86 605.327L1816.86 604.38L1758.81 604.569L1685.72 477.409L1710.99 433.906L1748.32 498.813L1749.27 498.244L1749.84 498.56L1793.93 422.605L1861.78 540.61L1841.63 575.273C1839.73 573.947 1837.27 573.758 1835.12 574.957C1832.21 576.599 1831.2 580.324 1832.91 583.229C1834.61 586.133 1838.28 587.143 1841.18 585.438C1844.09 583.797 1845.1 580.072 1843.4 577.167C1843.27 576.978 1843.14 576.788 1843.02 576.599L1863.36 541.557L1924.51 544.588ZM1840.17 583.923C1838.15 585.06 1835.63 584.365 1834.49 582.408C1833.35 580.387 1834.05 577.862 1836 576.725C1837.96 575.589 1840.55 576.283 1841.69 578.241C1842.83 580.261 1842.13 582.787 1840.17 583.923ZM1959 602.738L1887.36 726.111L1854.51 668.97L1926.15 545.598L1959 602.738ZM2018.88 798.72L1929.05 798.53L1888.5 728.005L1960.07 604.696L2028.11 723.08L1994.62 723.017C1994.62 722.07 1994.31 721.06 1993.8 720.176C1992.16 717.271 1988.43 716.261 1985.53 717.966C1982.62 719.607 1981.61 723.333 1983.32 726.237C1984.96 729.141 1988.69 730.152 1991.59 728.447C1992.98 727.626 1993.93 726.363 1994.37 724.911L2063.42 725.037L2018.88 798.72ZM1990.65 726.805C1988.62 727.942 1986.1 727.247 1984.96 725.29C1983.82 723.269 1984.52 720.744 1986.48 719.607C1988.5 718.471 1991.02 719.165 1992.16 721.123C1993.36 723.08 1992.67 725.669 1990.65 726.805ZM2271.56 599.139C2272.7 601.16 2272.01 603.685 2270.05 604.822C2268.03 605.958 2265.5 605.264 2264.36 603.307C2263.22 601.286 2263.92 598.761 2265.88 597.624C2267.84 596.488 2270.43 597.182 2271.56 599.139Z" fill="#333333" fill-opacity="0.05"/>
</svg>
