<svg width="264" height="274" viewBox="0 0 264 274" fill="none" xmlns="http://www.w3.org/2000/svg">
<path fill-rule="evenodd" clip-rule="evenodd" d="M263.884 30.1784L238.016 15.2307V44.9562L263.884 59.9039V30.1784ZM52.9241 59.9038L79.0748 44.7863L105.169 59.8472L78.7918 75.0213V105.087L52.9241 90.1388V59.9038ZM105.282 90.1389L79.3576 105.087V75.3611L105.282 60.4134V90.1389ZM52.6399 90.8186L78.3377 105.653L52.6399 120.544L26.8854 105.653L52.6399 90.8186ZM105.282 90.8186L131.263 105.879L105.735 120.657L79.6407 105.596L105.282 90.8186ZM79.3576 135.831L104.999 121.053L79.3576 106.276V135.831ZM79.3576 196.981L104.999 182.146L79.3576 167.369V196.981ZM157.696 121.28L131.715 106.276V106.219L106.074 120.997L132.168 136.058L157.696 121.28ZM158.205 91.0448L184.242 106.106L158.657 120.827L132.62 105.823L158.205 90.9882V91.0448ZM105.848 212.381L131.716 227.329V197.603L105.848 182.656V212.381ZM131.715 167.369L106.131 182.146L131.715 196.981V167.369ZM131.715 136.511L105.847 121.563V151.402V151.572L79.5269 166.802L105.395 181.75L131.715 166.519V136.511ZM157.753 212.665L132.281 227.329V197.943L157.753 212.665ZM158.206 182.316L132.281 167.369V197.264L158.206 212.268V212.234L184.294 227.591V197.715L158.206 182.358V182.316ZM158.206 121.563L132.281 136.511V166.406L158.206 151.458V151.005V121.563ZM158.205 181.467L132.734 166.802L158.205 152.081V181.467ZM52.9241 151.119L78.7918 136.171V106.049L52.9241 120.997V151.119ZM105.282 121.563L79.3576 136.511V166.236L105.282 151.232V121.563ZM78.7905 136.85V166.236L53.3756 151.515L78.7905 136.85ZM52.9241 181.976V182.033L78.7918 196.981V167.029L52.9241 152.081V181.976ZM-7.96932e-05 150.949V120.997L25.8676 106.049V136.001L-7.96932e-05 150.949ZM52.3577 120.997L26.4335 106.049V136.001L52.3577 150.949V120.997ZM26.1501 166.349L0.452274 151.515L26.1501 136.68L51.9046 151.515L26.1501 166.349ZM343.185 75.7576L317.43 60.9232L317.091 61.093L316.978 61.0364L291.223 75.8708L317.091 90.8185L343.185 75.7576ZM343.298 76.3805V106.106L317.374 121.054V91.3281L343.298 76.3805ZM317.374 152.761V182.146L342.845 167.482L317.374 152.761ZM343.581 106.785L369.449 121.733L343.751 136.567L317.826 121.62L343.581 106.785ZM343.298 137.134L317.374 122.186V152.081L343.298 167.085V137.134ZM264.45 122.186L284.488 133.793L290.092 137.02L264.45 151.798V122.186ZM264.45 182.146L289.922 167.482L264.45 152.761V182.146ZM290.375 106.106L264.45 121.053V78.4091V60.9458L290.375 76.3803V106.106ZM290.375 137.473L264.733 152.251L290.375 167.086V137.473ZM263.884 122.186V136.85V151.798L240.337 138.153L238.299 136.964L263.884 122.186ZM238.016 106.899V136.341L263.488 121.62L238.016 106.899ZM263.884 152.761V178.013V182.146L238.469 167.482L263.884 152.761ZM316.412 121.62L290.657 106.785L264.903 121.62L290.657 136.454L316.412 121.62ZM238.016 105.936V76.3805L263.658 91.1583L238.016 105.936ZM263.884 91.6677L238.469 106.332L263.884 121.053V91.6677ZM211.582 90.6487V61.0931L237.167 75.8709L211.582 90.6487ZM263.884 61.0931L238.299 75.8709L263.884 90.6487V61.0931ZM237.733 75.3611L230.432 71.1713L211.979 60.4701L237.564 45.7489L263.318 60.5833L237.733 75.3611ZM290.94 76.3805L316.808 91.3281V121.054L290.94 106.106V76.3805ZM237.45 76.3805L211.979 91.045L237.45 105.766V76.3805ZM290.94 167.086V137.473L316.525 152.251L290.94 167.086ZM316.808 152.761L291.393 167.482L316.808 182.146V152.761ZM316.808 30.1784V60.2436L290.94 45.3525V45.2959V45.1261V15.2307L316.808 30.1784ZM264.45 59.9039L290.375 44.9562V15.2307L264.45 30.1784V59.9039ZM238.016 167.086V137.473L244.016 140.927L263.601 152.251L238.016 167.086ZM290.657 75.3613L316.242 60.5835L290.657 45.8057L265.073 60.5835L290.657 75.3613ZM304.016 129.603L316.808 122.186V151.798L291.223 136.964L304.016 129.603ZM175.696 162.613L158.659 152.761V182.146L184.074 167.482L175.696 162.613ZM211.865 182.826L237.733 167.878L263.488 182.769L237.563 197.717L230.205 193.414L211.865 182.826ZM184.787 167.528L159.086 182.286L184.956 197.155L210.995 182.23V152.715L184.956 167.64L184.787 167.528ZM290.657 167.878L264.903 182.769L290.657 197.604L316.412 182.769L290.657 167.878ZM290.94 198.283L316.808 183.335V213.231L290.94 228.178V198.283ZM343.865 167.085L369.732 152.138V122.186L343.865 137.134V167.085ZM211.582 91.6677L236.997 106.332L227.544 111.768L211.582 121.053V91.6677ZM185.545 106.332L211.017 121.053V91.6677L197.715 99.3114L185.545 106.332ZM211.016 90.8185L185.092 105.766V75.8708L211.016 60.8666V90.8185ZM185.092 106.899V136.624L211.016 151.572V121.846L193.526 111.768L185.092 106.899ZM246.054 193.64L263.884 183.335V213.231L238.016 228.178V198.283L246.054 193.64ZM210.956 183.245L193.07 193.55L185.032 197.902L185.228 227.777L210.956 213.14V183.245ZM211.582 213.231V183.335L220.978 188.771L237.45 198.283V228.178L211.582 213.231ZM184.526 75.8708L158.659 60.8666V90.8185L184.526 105.766V75.8708ZM211.582 151.572V122.186L236.997 136.907L211.582 151.572ZM237.45 106.899L211.865 121.733L237.45 136.511V106.899ZM237.167 167.539L211.582 182.316V152.761L237.167 167.539ZM184.527 167.086V137.473L158.942 152.251L168.508 157.8L184.527 167.086ZM231.563 140.871L237.45 137.473V167.086L211.865 152.251L231.563 140.871ZM158.659 151.572L184.243 136.794L158.659 122.016V151.572ZM169.469 115.618L184.525 106.899V136.341L159.111 121.62L169.469 115.618ZM210.622 152.127L185.228 137.404V166.906L200.98 157.768L210.622 152.127ZM186.507 46.6548L210.563 60.47L195.11 69.416L184.808 75.3611L159.111 60.47L171.733 53.2227L184.808 45.6356L186.507 46.6548Z" fill="#D5D8DC"/>
<path d="M263.884 30.1784L238.017 15.2307V44.9562L263.884 59.9038V30.1784Z" fill="#E4423D"/>
<path d="M238.526 259.052L264.45 274V244.105L238.526 229.157V259.052Z" fill="#3C78EC"/>
<path d="M289.922 14.8344L264.167 0L238.469 14.8344L264.167 29.7255L289.922 14.8344Z" fill="#D3D1D1"/>
<path d="M211.39 213.843L185.228 228.711L211.39 243.568L237.145 228.734L219.428 218.486L211.39 213.843Z" fill="#D3D1D1"/>
</svg>
