<svg width="42" height="30" viewBox="0 0 42 30" fill="none" xmlns="http://www.w3.org/2000/svg">
<g clip-path="url(#clip0_511_2547)">
<mask id="path-1-inside-1_511_2547" fill="white">
<path fill-rule="evenodd" clip-rule="evenodd" d="M23.8926 26.3708L27.4222 30L42 15.0107L27.4222 0L23.8926 3.62921L32.4391 12.4336H0V17.566H32.4557L23.8926 26.3708Z"/>
</mask>
<path fill-rule="evenodd" clip-rule="evenodd" d="M23.8926 26.3708L27.4222 30L42 15.0107L27.4222 0L23.8926 3.62921L32.4391 12.4336H0V17.566H32.4557L23.8926 26.3708Z" fill="#D6D7D8"/>
<path d="M27.4222 30L26.7053 30.6972L27.4222 31.4343L28.139 30.6972L27.4222 30ZM23.8926 26.3708L23.1757 25.6736L22.4976 26.3708L23.1757 27.068L23.8926 26.3708ZM42 15.0107L42.7169 15.7079L43.3944 15.0112L42.7174 14.3141L42 15.0107ZM27.4222 0L28.1395 -0.696686L27.4227 -1.43484L26.7053 -0.697199L27.4222 0ZM23.8926 3.62921L23.1757 2.93201L22.4983 3.62855L23.175 4.32573L23.8926 3.62921ZM32.4391 12.4336V13.4336H34.8035L33.1567 11.7371L32.4391 12.4336ZM0 12.4336V11.4336H-1V12.4336H0ZM0 17.566H-1V18.566H0V17.566ZM32.4557 17.566L33.1725 18.2632L34.8232 16.566H32.4557V17.566ZM28.139 29.3028L24.6095 25.6736L23.1757 27.068L26.7053 30.6972L28.139 29.3028ZM41.2831 14.3135L26.7053 29.3028L28.139 30.6972L42.7169 15.7079L41.2831 14.3135ZM26.7048 0.696686L41.2826 15.7074L42.7174 14.3141L28.1395 -0.696686L26.7048 0.696686ZM24.6095 4.3264L28.139 0.697199L26.7053 -0.697199L23.1757 2.93201L24.6095 4.3264ZM33.1567 11.7371L24.6101 2.93268L23.175 4.32573L31.7216 13.1301L33.1567 11.7371ZM32.4391 11.4336H0V13.4336H32.4391V11.4336ZM-1 12.4336V17.566H1V12.4336H-1ZM0 18.566H32.4557V16.566H0V18.566ZM24.6095 27.068L33.1725 18.2632L31.7388 16.8688L23.1757 25.6736L24.6095 27.068Z" fill="white" mask="url(#path-1-inside-1_511_2547)"/>
</g>
<defs>
<clipPath id="clip0_511_2547">
<rect width="42" height="30" fill="white"/>
</clipPath>
</defs>
</svg>
