<svg width="42" height="30" viewBox="0 0 42 30" fill="none" xmlns="http://www.w3.org/2000/svg">
<path fill-rule="evenodd" clip-rule="evenodd" d="M23.8926 26.3708L27.4222 30L42 15.0107L27.4222 0L23.8926 3.62921L32.4391 12.4336H0V17.566H32.4557L23.8926 26.3708Z" fill="#3C78EC"/>
<path d="M27.4222 30L27.0637 30.3486L27.4222 30.7172L27.7806 30.3486L27.4222 30ZM23.8926 26.3708L23.5341 26.0222L23.1951 26.3708L23.5341 26.7194L23.8926 26.3708ZM42 15.0107L42.3584 15.3593L42.6972 15.011L42.3587 14.6624L42 15.0107ZM27.4222 0L27.7809 -0.348343L27.4224 -0.717419L27.0637 -0.3486L27.4222 0ZM23.8926 3.62921L23.5341 3.28061L23.1954 3.62888L23.5338 3.97747L23.8926 3.62921ZM32.4391 12.4336V12.9336H33.6213L32.7979 12.0853L32.4391 12.4336ZM0 12.4336V11.9336H-0.5V12.4336H0ZM0 17.566H-0.5V18.066H0V17.566ZM32.4557 17.566L32.8141 17.9146L33.6394 17.066H32.4557V17.566ZM27.7806 29.6514L24.251 26.0222L23.5341 26.7194L27.0637 30.3486L27.7806 29.6514ZM41.6415 14.6621L27.0637 29.6514L27.7806 30.3486L42.3584 15.3593L41.6415 14.6621ZM27.0635 0.348343L41.6413 15.3591L42.3587 14.6624L27.7809 -0.348343L27.0635 0.348343ZM24.251 3.97781L27.7806 0.3486L27.0637 -0.3486L23.5341 3.28061L24.251 3.97781ZM32.7979 12.0853L24.2513 3.28094L23.5338 3.97747L32.0804 12.7819L32.7979 12.0853ZM32.4391 11.9336H0V12.9336H32.4391V11.9336ZM-0.5 12.4336V17.566H0.5V12.4336H-0.5ZM0 18.066H32.4557V17.066H0V18.066ZM24.251 26.7194L32.8141 17.9146L32.0972 17.2174L23.5341 26.0222L24.251 26.7194Z" fill="white"/>
</svg>
