<svg width="42" height="30" viewBox="0 0 42 30" fill="none" xmlns="http://www.w3.org/2000/svg">
<path fill-rule="evenodd" clip-rule="evenodd" d="M18.1074 3.6292L14.5778 -2.39732e-06L1.65711e-05 14.9893L14.5778 30L18.1074 26.3708L9.56086 17.5664L42 17.5664L42 12.434L9.54433 12.434L18.1074 3.6292Z" fill="#252B42"/>
<path d="M14.5778 -2.39732e-06L14.9363 -0.348602L14.5778 -0.717157L14.2194 -0.348602L14.5778 -2.39732e-06ZM18.1074 3.6292L18.4659 3.9778L18.8049 3.6292L18.4659 3.2806L18.1074 3.6292ZM1.65711e-05 14.9893L-0.358422 14.6407L-0.69721 14.989L-0.358671 15.3376L1.65711e-05 14.9893ZM14.5778 30L14.2191 30.3483L14.5776 30.7174L14.9363 30.3486L14.5778 30ZM18.1074 26.3708L18.4659 26.7194L18.8046 26.3711L18.4662 26.0225L18.1074 26.3708ZM9.56086 17.5664L9.56086 17.0664L8.37868 17.0664L9.2021 17.9147L9.56086 17.5664ZM42 17.5664L42 18.0664L42.5 18.0664L42.5 17.5664L42 17.5664ZM42 12.434L42.5 12.434L42.5 11.934L42 11.934L42 12.434ZM9.54433 12.434L9.18589 12.0854L8.36059 12.934L9.54433 12.934L9.54433 12.434ZM14.2194 0.348597L17.749 3.9778L18.4659 3.2806L14.9363 -0.348602L14.2194 0.348597ZM0.358455 15.3379L14.9363 0.348597L14.2194 -0.348602L-0.358422 14.6407L0.358455 15.3379ZM14.9365 29.6517L0.358705 14.6409L-0.358671 15.3376L14.2191 30.3483L14.9365 29.6517ZM17.749 26.0222L14.2194 29.6514L14.9363 30.3486L18.4659 26.7194L17.749 26.0222ZM9.2021 17.9147L17.7487 26.7191L18.4662 26.0225L9.91963 17.2181L9.2021 17.9147ZM9.56086 18.0664L42 18.0664L42 17.0664L9.56086 17.0664L9.56086 18.0664ZM42.5 17.5664L42.5 12.434L41.5 12.434L41.5 17.5664L42.5 17.5664ZM42 11.934L9.54433 11.934L9.54433 12.934L42 12.934L42 11.934ZM17.749 3.2806L9.18589 12.0854L9.90277 12.7826L18.4659 3.9778L17.749 3.2806Z" fill="white"/>
</svg>
