<svg width="42" height="30" viewBox="0 0 42 30" fill="none" xmlns="http://www.w3.org/2000/svg">
<mask id="path-1-inside-1_511_2557" fill="white">
<path fill-rule="evenodd" clip-rule="evenodd" d="M18.1074 3.6292L14.5778 -2.39732e-06L1.65711e-05 14.9893L14.5778 30L18.1074 26.3708L9.56086 17.5664L42 17.5664L42 12.434L9.54433 12.434L18.1074 3.6292Z"/>
</mask>
<path fill-rule="evenodd" clip-rule="evenodd" d="M18.1074 3.6292L14.5778 -2.39732e-06L1.65711e-05 14.9893L14.5778 30L18.1074 26.3708L9.56086 17.5664L42 17.5664L42 12.434L9.54433 12.434L18.1074 3.6292Z" fill="#D6D7D8"/>
<path d="M14.5778 -2.39732e-06L15.2947 -0.697202L14.5778 -1.43431L13.861 -0.697202L14.5778 -2.39732e-06ZM18.1074 3.6292L18.8243 4.3264L19.5024 3.6292L18.8243 2.932L18.1074 3.6292ZM1.65711e-05 14.9893L-0.716861 14.2921L-1.39444 14.9888L-0.717359 15.6859L1.65711e-05 14.9893ZM14.5778 30L13.8605 30.6967L14.5773 31.4348L15.2947 30.6972L14.5778 30ZM18.1074 26.3708L18.8243 27.068L19.5017 26.3715L18.825 25.6743L18.1074 26.3708ZM9.56086 17.5664L9.56086 16.5664L7.19649 16.5664L8.84333 18.2629L9.56086 17.5664ZM42 17.5664L42 18.5664L43 18.5664L43 17.5664L42 17.5664ZM42 12.434L43 12.434L43 11.434L42 11.434L42 12.434ZM9.54433 12.434L8.82746 11.7368L7.17684 13.434L9.54433 13.434L9.54433 12.434ZM13.861 0.697197L17.3905 4.3264L18.8243 2.932L15.2947 -0.697202L13.861 0.697197ZM0.716894 15.6865L15.2947 0.697197L13.861 -0.697202L-0.716861 14.2921L0.716894 15.6865ZM15.2952 29.3033L0.717393 14.2926L-0.717359 15.6859L13.8605 30.6967L15.2952 29.3033ZM17.3905 25.6736L13.861 29.3028L15.2947 30.6972L18.8243 27.068L17.3905 25.6736ZM8.84333 18.2629L17.3899 27.0673L18.825 25.6743L10.2784 16.8699L8.84333 18.2629ZM9.56086 18.5664L42 18.5664L42 16.5664L9.56086 16.5664L9.56086 18.5664ZM43 17.5664L43 12.434L41 12.434L41 17.5664L43 17.5664ZM42 11.434L9.54433 11.434L9.54433 13.434L42 13.434L42 11.434ZM17.3905 2.932L8.82746 11.7368L10.2612 13.1312L18.8243 4.3264L17.3905 2.932Z" fill="white" mask="url(#path-1-inside-1_511_2557)"/>
</svg>
