<svg width="881" height="342" viewBox="0 0 881 342" fill="none" xmlns="http://www.w3.org/2000/svg">
<path d="M157.992 184.173H159.19L159.788 183.135L210.786 94.5846L211.381 93.5505L210.786 92.5164L159.788 3.9659L159.19 2.92792H157.992H55.9975H54.7997L54.2019 3.9659L3.20441 92.5164L2.60885 93.5505L3.20442 94.5846L54.2019 183.135L54.7997 184.173H55.9975H157.992Z" stroke="#1D2332" stroke-width="4.14416"/>
<path d="M143.926 56.5095H69.2578V131.177H143.926V56.5095Z" stroke="#1D2332" stroke-width="4.37506" stroke-miterlimit="10" stroke-linecap="round" stroke-linejoin="round"/>
<path d="M125.252 112.236H87.918V75.1934H113.293L125.252 88.9019V112.236Z" stroke="#1D2332" stroke-width="4.37506" stroke-miterlimit="10" stroke-linecap="round" stroke-linejoin="round"/>
<path d="M69.2578 37.5508V47.1759" stroke="#1D2332" stroke-width="4.37506" stroke-miterlimit="10" stroke-linecap="round" stroke-linejoin="round"/>
<path d="M78.5859 37.5508V47.1759" stroke="#1D2332" stroke-width="4.37506" stroke-miterlimit="10" stroke-linecap="round" stroke-linejoin="round"/>
<path d="M87.918 37.5508V47.1759" stroke="#1D2332" stroke-width="4.37506" stroke-miterlimit="10" stroke-linecap="round" stroke-linejoin="round"/>
<path d="M97.2539 37.5508V47.1759" stroke="#1D2332" stroke-width="4.37506" stroke-miterlimit="10" stroke-linecap="round" stroke-linejoin="round"/>
<path d="M106.59 37.5508V47.1759" stroke="#1D2332" stroke-width="4.37506" stroke-miterlimit="10" stroke-linecap="round" stroke-linejoin="round"/>
<path d="M115.922 37.5508V47.1759" stroke="#1D2332" stroke-width="4.37506" stroke-miterlimit="10" stroke-linecap="round" stroke-linejoin="round"/>
<path d="M125.258 37.5508V47.1759" stroke="#1D2332" stroke-width="4.37506" stroke-miterlimit="10" stroke-linecap="round" stroke-linejoin="round"/>
<path d="M134.59 37.5508V47.1759" stroke="#1D2332" stroke-width="4.37506" stroke-miterlimit="10" stroke-linecap="round" stroke-linejoin="round"/>
<path d="M143.926 37.5508V47.1759" stroke="#1D2332" stroke-width="4.37506" stroke-miterlimit="10" stroke-linecap="round" stroke-linejoin="round"/>
<path d="M69.2578 140.522V149.856" stroke="#1D2332" stroke-width="4.37506" stroke-miterlimit="10" stroke-linecap="round" stroke-linejoin="round"/>
<path d="M78.5938 140.522V149.856" stroke="#1D2332" stroke-width="4.37506" stroke-miterlimit="10" stroke-linecap="round" stroke-linejoin="round"/>
<path d="M87.9258 140.522V149.856" stroke="#1D2332" stroke-width="4.37506" stroke-miterlimit="10" stroke-linecap="round" stroke-linejoin="round"/>
<path d="M97.2617 140.522V149.856" stroke="#1D2332" stroke-width="4.37506" stroke-miterlimit="10" stroke-linecap="round" stroke-linejoin="round"/>
<path d="M106.59 140.522V149.856" stroke="#1D2332" stroke-width="4.37506" stroke-miterlimit="10" stroke-linecap="round" stroke-linejoin="round"/>
<path d="M115.922 140.522V149.856" stroke="#1D2332" stroke-width="4.37506" stroke-miterlimit="10" stroke-linecap="round" stroke-linejoin="round"/>
<path d="M125.258 140.522V149.856" stroke="#1D2332" stroke-width="4.37506" stroke-miterlimit="10" stroke-linecap="round" stroke-linejoin="round"/>
<path d="M134.59 140.522V149.856" stroke="#1D2332" stroke-width="4.37506" stroke-miterlimit="10" stroke-linecap="round" stroke-linejoin="round"/>
<path d="M143.926 140.522V149.856" stroke="#1D2332" stroke-width="4.37506" stroke-miterlimit="10" stroke-linecap="round" stroke-linejoin="round"/>
<path d="M50.5898 130.888H59.9233" stroke="#1D2332" stroke-width="4.37506" stroke-miterlimit="10" stroke-linecap="round" stroke-linejoin="round"/>
<path d="M50.5898 121.842H59.9233" stroke="#1D2332" stroke-width="4.37506" stroke-miterlimit="10" stroke-linecap="round" stroke-linejoin="round"/>
<path d="M50.5898 112.229H59.9233" stroke="#1D2332" stroke-width="4.37506" stroke-miterlimit="10" stroke-linecap="round" stroke-linejoin="round"/>
<path d="M50.5898 103.182H59.9233" stroke="#1D2332" stroke-width="4.37506" stroke-miterlimit="10" stroke-linecap="round" stroke-linejoin="round"/>
<path d="M50.5898 93.8364H59.9233" stroke="#1D2332" stroke-width="4.37506" stroke-miterlimit="10" stroke-linecap="round" stroke-linejoin="round"/>
<path d="M50.5898 84.2234H59.9233" stroke="#1D2332" stroke-width="4.37506" stroke-miterlimit="10" stroke-linecap="round" stroke-linejoin="round"/>
<path d="M50.5898 75.1716H59.9233" stroke="#1D2332" stroke-width="4.37506" stroke-miterlimit="10" stroke-linecap="round" stroke-linejoin="round"/>
<path d="M50.5898 65.5583H59.9233" stroke="#1D2332" stroke-width="4.37506" stroke-miterlimit="10" stroke-linecap="round" stroke-linejoin="round"/>
<path d="M50.5898 56.512H59.9233" stroke="#1D2332" stroke-width="4.37506" stroke-miterlimit="10" stroke-linecap="round" stroke-linejoin="round"/>
<path d="M153.258 130.888H162.591" stroke="#1D2332" stroke-width="4.37506" stroke-miterlimit="10" stroke-linecap="round" stroke-linejoin="round"/>
<path d="M153.258 121.842H162.591" stroke="#1D2332" stroke-width="4.37506" stroke-miterlimit="10" stroke-linecap="round" stroke-linejoin="round"/>
<path d="M153.258 112.229H162.591" stroke="#1D2332" stroke-width="4.37506" stroke-miterlimit="10" stroke-linecap="round" stroke-linejoin="round"/>
<path d="M153.258 103.182H162.591" stroke="#1D2332" stroke-width="4.37506" stroke-miterlimit="10" stroke-linecap="round" stroke-linejoin="round"/>
<path d="M153.258 93.8364H162.591" stroke="#1D2332" stroke-width="4.37506" stroke-miterlimit="10" stroke-linecap="round" stroke-linejoin="round"/>
<path d="M153.258 84.2234H162.591" stroke="#1D2332" stroke-width="4.37506" stroke-miterlimit="10" stroke-linecap="round" stroke-linejoin="round"/>
<path d="M153.258 75.1716H162.591" stroke="#1D2332" stroke-width="4.37506" stroke-miterlimit="10" stroke-linecap="round" stroke-linejoin="round"/>
<path d="M153.258 65.5583H162.591" stroke="#1D2332" stroke-width="4.37506" stroke-miterlimit="10" stroke-linecap="round" stroke-linejoin="round"/>
<path d="M153.258 56.512H162.591" stroke="#1D2332" stroke-width="4.37506" stroke-miterlimit="10" stroke-linecap="round" stroke-linejoin="round"/>
<path d="M98.7148 93.8586H114.465" stroke="#1D2332" stroke-width="4.37506" stroke-miterlimit="10" stroke-linecap="round" stroke-linejoin="round"/>
<path d="M122.047 71.9827L128.464 78.6911" stroke="#1D2332" stroke-width="4.37506" stroke-miterlimit="10" stroke-linecap="round" stroke-linejoin="round"/>
<path d="M824 339.695H825.221L825.831 338.636L877.831 248.346L878.438 247.291L877.831 246.237L825.831 155.946L825.221 154.887H824H720H718.779L718.169 155.946L666.169 246.237L665.562 247.291L666.169 248.346L718.169 338.636L718.779 339.695H720H824Z" stroke="#1D2332" stroke-width="4.22562"/>
<path d="M803.976 292.287C803.381 287.231 798.622 284.257 795.648 283.663" stroke="#1D2332" stroke-width="4.46107" stroke-miterlimit="10" stroke-linecap="round" stroke-linejoin="round"/>
<path d="M802.789 207.813C811.116 206.921 809.629 197.999 809.629 197.999V197.701C834.611 202.46 829.555 230.118 828.663 230.713C828.663 230.713 840.559 249.152 823.905 261.048C823.905 261.048 831.935 293.763 804.276 292.276C809.034 309.228 793.569 312.797 782.565 313.392C776.915 313.689 772.156 309.228 772.156 303.577V188.482C784.647 172.422 808.737 181.344 809.332 197.999" stroke="#1D2332" stroke-width="4.46107" stroke-miterlimit="10" stroke-linecap="round" stroke-linejoin="round"/>
<path d="M799.812 230.133C812.898 241.732 825.389 233.404 828.958 230.728" stroke="#1D2332" stroke-width="4.46107" stroke-miterlimit="10" stroke-linecap="round" stroke-linejoin="round"/>
<path d="M804.571 292.285H792.973" stroke="#1D2332" stroke-width="4.46107" stroke-miterlimit="10" stroke-linecap="round" stroke-linejoin="round"/>
<path d="M817.069 250.347C817.069 250.645 810.823 257.783 804.875 256.593" stroke="#1D2332" stroke-width="4.46107" stroke-miterlimit="10" stroke-linecap="round" stroke-linejoin="round"/>
<path d="M820.039 213.771C823.013 214.663 825.987 213.474 827.474 211.689" stroke="#1D2332" stroke-width="4.46107" stroke-miterlimit="10" stroke-linecap="round" stroke-linejoin="round"/>
<path d="M824.202 261.048C824.202 261.048 821.525 246.773 803.086 245.286" stroke="#1D2332" stroke-width="4.46107" stroke-miterlimit="10" stroke-linecap="round" stroke-linejoin="round"/>
<path d="M746.881 219.412C715.654 192.348 755.209 166.474 772.458 188.779V303.875C772.458 309.525 767.7 313.986 762.049 313.689C751.045 313.094 735.58 309.525 740.339 292.573" stroke="#1D2332" stroke-width="4.46107" stroke-miterlimit="10" stroke-linecap="round" stroke-linejoin="round"/>
<path d="M735.277 197.115C710.295 202.171 715.054 229.829 715.054 229.829C715.054 229.829 717.433 240.238 731.113 237.264" stroke="#1D2332" stroke-width="4.46107" stroke-miterlimit="10" stroke-linecap="round" stroke-linejoin="round"/>
<path d="M725.164 236.667C725.759 231.611 730.517 228.637 733.491 228.042" stroke="#1D2332" stroke-width="4.46107" stroke-miterlimit="10" stroke-linecap="round" stroke-linejoin="round"/>
<path d="M716.245 232.201C716.245 232.201 704.349 249.154 721.004 261.05C721.004 261.05 712.974 293.764 740.632 292.277H751.934" stroke="#1D2332" stroke-width="4.46107" stroke-miterlimit="10" stroke-linecap="round" stroke-linejoin="round"/>
<path d="M729.926 274.441C729.926 274.441 723.086 278.307 724.276 286.635" stroke="#1D2332" stroke-width="4.46107" stroke-miterlimit="10" stroke-linecap="round" stroke-linejoin="round"/>
<path d="M721 261.054C721 261.054 734.978 260.757 734.681 250.347" stroke="#1D2332" stroke-width="4.46107" stroke-miterlimit="10" stroke-linecap="round" stroke-linejoin="round"/>
<path d="M759.37 222.39C759.37 225.959 756.693 228.636 753.124 228.636C749.556 228.636 746.879 225.662 746.879 222.39V222.093C747.176 218.821 749.853 216.145 753.124 216.145C756.396 215.847 759.37 218.821 759.37 222.39Z" stroke="#1D2332" stroke-width="4.46107" stroke-miterlimit="10" stroke-linecap="round" stroke-linejoin="round"/>
<path d="M759.37 246.787C759.37 250.356 756.693 253.033 753.124 253.033C749.556 253.033 746.879 250.058 746.879 246.787V246.49C747.176 243.218 749.853 240.542 753.124 240.542C756.396 240.244 759.37 243.218 759.37 246.787Z" stroke="#1D2332" stroke-width="4.46107" stroke-miterlimit="10" stroke-linecap="round" stroke-linejoin="round"/>
<path d="M792.085 292.285C792.085 295.854 789.111 298.531 785.839 298.531C782.568 298.531 779.594 295.557 779.594 292.285V291.988C779.891 288.716 782.568 286.04 785.839 286.04C789.408 286.04 792.085 288.716 792.085 292.285Z" stroke="#1D2332" stroke-width="4.46107" stroke-miterlimit="10" stroke-linecap="round" stroke-linejoin="round"/>
<path d="M754.014 279.205C754.014 282.774 751.338 285.451 747.769 285.451C744.2 285.451 741.523 282.477 741.523 279.205V278.908C741.821 275.636 744.497 272.96 747.769 272.96C751.04 272.662 754.014 275.636 754.014 279.205Z" stroke="#1D2332" stroke-width="4.46107" stroke-miterlimit="10" stroke-linecap="round" stroke-linejoin="round"/>
<path d="M795.952 215.259C795.952 218.828 793.275 221.505 789.706 221.505C786.138 221.505 783.461 218.531 783.461 215.259V214.962C783.758 211.691 786.435 209.014 789.706 209.014C793.275 208.717 795.952 211.691 795.952 215.259Z" stroke="#1D2332" stroke-width="4.46107" stroke-miterlimit="10" stroke-linecap="round" stroke-linejoin="round"/>
<path d="M794.167 242.909C794.167 246.478 791.49 249.155 787.921 249.155C784.352 249.155 781.676 246.181 781.676 242.909V242.612C781.973 239.34 784.65 236.664 787.921 236.664C791.49 236.664 794.167 239.34 794.167 242.909Z" stroke="#1D2332" stroke-width="4.46107" stroke-miterlimit="10" stroke-linecap="round" stroke-linejoin="round"/>
<path d="M784.051 219.123L772.75 230.424" stroke="#1D2332" stroke-width="4.46107" stroke-miterlimit="10" stroke-linecap="round" stroke-linejoin="round"/>
<path d="M787.028 249.467V264.338L772.752 272.665L772.157 279.208H754.016" stroke="#1D2332" stroke-width="4.46107" stroke-miterlimit="10" stroke-linecap="round" stroke-linejoin="round"/>
<path d="M757.285 251.233L772.453 261.94" stroke="#1D2332" stroke-width="4.46107" stroke-miterlimit="10" stroke-linecap="round" stroke-linejoin="round"/>
<path fill-rule="evenodd" clip-rule="evenodd" d="M416.033 235.865C415.595 235.865 415.176 236.039 414.866 236.348C414.557 236.657 414.383 237.077 414.383 237.514C414.383 237.952 414.557 238.372 414.866 238.681C415.176 238.99 415.595 239.164 416.033 239.164H481.69C482.128 239.164 482.548 238.99 482.857 238.681C483.166 238.372 483.34 237.952 483.34 237.514C483.34 237.077 483.166 236.657 482.857 236.348C482.548 236.039 482.128 235.865 481.69 235.865H416.033Z" fill="#1D2332"/>
<path fill-rule="evenodd" clip-rule="evenodd" d="M299.912 46.0298C289.495 46.4697 282.779 48.4274 278.345 52.1392C274.682 55.2076 272.9 58.7379 270.711 65.8865C270.524 66.4859 269.886 68.592 269.842 68.7405C269.495 69.9008 269.215 70.7916 268.929 71.6824C268.175 73.959 267.449 75.9441 266.602 77.8797C264.483 82.7758 261.591 87.3003 258.038 91.2807C255.772 93.8322 252.109 94.5801 246.62 93.7717C242.269 93.1173 238.716 92.056 228.667 88.6467C227.363 88.2013 226.466 87.8933 225.537 87.5909C213.222 83.4942 205.978 82.0919 199.597 83.5382C191.154 85.4683 186.446 92.6829 185.737 106.084C185.148 117.082 190.329 127.057 200.345 135.96C208.667 143.356 220.147 149.845 233.897 155.519C244.527 159.833 255.435 163.424 266.547 166.27C270.441 167.282 274.072 168.123 277.317 168.827C278.455 169.074 280.92 169.58 281.14 169.624L281.42 169.679C281.636 169.722 281.858 169.721 282.074 169.677C282.289 169.633 282.494 169.546 282.675 169.421C282.857 169.297 283.011 169.137 283.13 168.952C283.249 168.767 283.33 168.56 283.367 168.343C283.408 168.128 283.406 167.906 283.361 167.692C283.315 167.477 283.228 167.274 283.103 167.094C282.978 166.913 282.818 166.76 282.633 166.642C282.448 166.524 282.241 166.444 282.025 166.407L280.991 166.198C280.133 166.028 279.143 165.835 278.026 165.594C274.82 164.895 271.25 164.048 267.4 163.047C256.429 160.244 245.658 156.706 235.162 152.457C221.681 146.914 210.543 140.573 202.54 133.463C193.217 125.182 188.509 116.147 189.037 106.271C189.675 94.2281 193.52 88.3552 200.323 86.799C205.895 85.5288 212.749 86.843 224.475 90.7473C225.383 91.0497 226.279 91.3412 227.588 91.7866C237.858 95.2674 241.471 96.3672 246.103 97.0656C252.587 98.0389 257.345 97.0656 260.502 93.4803C264.288 89.2432 267.37 84.4275 269.633 79.216C270.518 77.1759 271.283 75.0973 272.059 72.7272C272.356 71.8089 272.647 70.8906 273.005 69.7138C273.054 69.5598 273.692 67.4537 273.874 66.8599C275.881 60.3051 277.427 57.2257 280.474 54.6907C284.247 51.5288 290.314 49.7691 300.072 49.3622C314.972 48.7353 322.579 58.8644 324.713 76.637C325.536 84.3163 325.488 92.064 324.57 99.7326C324.411 101.151 324.235 102.422 324.075 103.543C324.015 103.934 323.872 104.858 323.866 104.913C323.825 105.127 323.826 105.347 323.871 105.561C323.915 105.774 324.001 105.977 324.125 106.157C324.248 106.337 324.406 106.491 324.589 106.609C324.772 106.728 324.977 106.809 325.192 106.848C325.628 106.925 326.078 106.827 326.442 106.575C326.807 106.323 327.057 105.937 327.139 105.501C327.139 105.429 327.298 104.456 327.359 104.044C327.535 102.883 327.716 101.558 327.876 100.101C328.818 92.1852 328.858 84.1881 327.997 76.2631C326.968 67.6792 324.631 60.5141 320.692 55.2681C315.94 48.9003 309.026 45.6504 299.912 46.0298Z" fill="#42C66E"/>
<path fill-rule="evenodd" clip-rule="evenodd" d="M304.872 48.3172C294.422 48.7516 287.706 50.7147 283.278 54.4265C279.62 57.4894 277.849 61.0253 275.66 68.1739C275.473 68.7733 274.841 70.8794 274.791 71.0333C274.445 72.1881 274.164 73.079 273.873 73.9753C273.199 76.0787 272.421 78.1471 271.54 80.1726C269.419 85.0618 266.532 89.5818 262.987 93.5626C260.732 96.1196 257.042 96.8619 251.563 96.0536C247.202 95.3992 243.676 94.3434 233.616 90.9341C232.312 90.4831 231.416 90.1807 230.486 89.8728C218.176 85.7815 210.932 84.3738 204.558 85.8255C196.104 87.7557 191.406 94.9703 190.686 108.371C190.097 119.369 195.279 129.344 205.295 138.247C213.617 145.643 225.096 152.132 238.847 157.807C249.476 162.12 260.384 165.712 271.496 168.557C275.391 169.569 279.021 170.416 282.266 171.12C283.405 171.367 285.847 171.873 286.078 171.917L286.369 171.967C286.584 172.009 286.806 172.007 287.02 171.963C287.235 171.919 287.438 171.832 287.619 171.708C287.8 171.584 287.954 171.426 288.073 171.242C288.192 171.058 288.273 170.852 288.311 170.636C288.353 170.42 288.352 170.199 288.307 169.984C288.262 169.769 288.175 169.565 288.051 169.385C287.926 169.204 287.767 169.05 287.582 168.931C287.397 168.813 287.191 168.732 286.974 168.695L285.94 168.491C285.082 168.315 284.081 168.123 282.965 167.881C279.752 167.188 276.177 166.341 272.327 165.34C261.363 162.535 250.6 158.995 240.112 154.744C226.63 149.201 215.492 142.866 207.489 135.756C198.166 127.469 193.436 118.44 193.964 108.564C194.613 96.521 198.447 90.6481 205.256 89.0919C210.822 87.8161 217.676 89.1359 229.414 93.0346L232.527 94.074C242.796 97.5603 246.42 98.6601 251.052 99.3529C257.537 100.332 262.305 99.353 265.463 95.7731C269.237 91.5341 272.308 86.7185 274.56 81.5089C275.462 79.4632 276.21 77.3901 277.008 75.0201C277.305 74.1018 277.596 73.1834 277.954 72.0067L278.823 69.1472C280.836 62.5925 282.376 59.5186 285.423 56.9835C289.191 53.8216 295.252 52.0345 304.999 51.6495C319.91 51.0282 327.506 61.1407 329.64 78.9133C330.475 86.5916 330.434 94.3398 329.519 102.009C329.36 103.422 329.189 104.692 329.024 105.82C328.964 106.21 328.821 107.128 328.81 107.183C328.768 107.399 328.769 107.621 328.814 107.836C328.859 108.052 328.947 108.256 329.072 108.436C329.197 108.617 329.357 108.771 329.542 108.889C329.728 109.008 329.935 109.088 330.152 109.125C330.366 109.162 330.586 109.157 330.799 109.11C331.012 109.062 331.213 108.973 331.391 108.847C331.569 108.721 331.72 108.562 331.836 108.377C331.952 108.192 332.03 107.987 332.066 107.772C332.066 107.7 332.247 106.711 332.308 106.304C332.484 105.138 332.653 103.827 332.814 102.372C333.759 94.4583 333.805 86.4633 332.951 78.5394C331.917 69.9556 329.58 62.7849 325.642 57.5389C320.889 51.1931 313.975 47.9323 304.872 48.3172Z" fill="#4F5865"/>
<path fill-rule="evenodd" clip-rule="evenodd" d="M308.674 48.3172C298.256 48.7516 291.529 50.7147 287.107 54.4265C283.444 57.4894 281.662 61.0253 279.462 68.1739C279.286 68.7733 278.648 70.8794 278.604 71.0334C278.246 72.1881 277.977 73.079 277.691 73.9753C276.937 76.2519 276.211 78.2315 275.364 80.1726C273.239 85.0641 270.348 89.5859 266.8 93.5681C264.534 96.1251 260.871 96.8674 255.381 96.0591C251.031 95.4047 247.477 94.3489 237.428 90.9396L234.299 89.8783C221.983 85.787 214.739 84.3793 208.359 85.831C199.916 87.7612 195.208 94.9758 194.498 108.377C193.91 119.375 199.091 129.35 209.107 138.253C217.429 145.649 228.908 152.137 242.659 157.812C253.288 162.125 264.196 165.717 275.309 168.563C279.203 169.575 282.828 170.421 286.079 171.125C287.217 171.373 289.681 171.879 289.929 171.923L290.209 171.972C290.425 172.012 290.646 172.009 290.86 171.963C291.075 171.917 291.278 171.829 291.457 171.703C291.637 171.578 291.79 171.418 291.907 171.233C292.024 171.048 292.103 170.841 292.14 170.625C292.182 170.41 292.181 170.189 292.136 169.974C292.092 169.76 292.005 169.556 291.882 169.375C291.758 169.195 291.599 169.04 291.415 168.922C291.231 168.803 291.025 168.722 290.809 168.684L289.775 168.48C288.917 168.304 287.927 168.112 286.81 167.87C283.603 167.177 280.034 166.33 276.183 165.329C265.208 162.525 254.434 158.985 243.935 154.733C230.465 149.19 219.327 142.855 211.324 135.745C201.973 127.458 197.292 118.429 197.82 108.553C198.459 96.51 202.292 90.6371 209.107 89.0809C214.679 87.8052 221.532 89.1249 233.259 93.0237L236.372 94.063C246.641 97.5493 250.244 98.6491 254.886 99.3419C261.36 100.321 266.134 99.3419 269.286 95.7621C273.069 91.5227 276.151 86.7075 278.417 81.4979C279.302 79.4522 280.067 77.3791 280.842 75.0091C281.139 74.0908 281.431 73.1724 281.788 71.9957C281.838 71.8362 282.47 69.7301 282.657 69.1362C284.665 62.5815 286.211 59.5075 289.258 56.9725C293.031 53.8106 299.098 52.0235 308.855 51.6386C323.756 51.0172 331.363 61.1297 333.497 78.9023C334.313 86.582 334.265 94.3289 333.354 101.998C333.194 103.411 333.018 104.681 332.848 105.809C332.798 106.199 332.655 107.117 332.65 107.172C332.608 107.387 332.609 107.608 332.653 107.822C332.697 108.036 332.783 108.24 332.906 108.42C333.029 108.601 333.188 108.755 333.371 108.874C333.555 108.993 333.76 109.075 333.975 109.114C334.412 109.188 334.861 109.087 335.225 108.835C335.589 108.582 335.839 108.196 335.922 107.761C335.922 107.689 336.082 106.7 336.142 106.293C336.307 105.127 336.5 103.818 336.659 102.361C337.596 94.4465 337.636 86.4519 336.78 78.5284C335.752 69.9446 333.414 62.7739 329.476 57.5279C324.691 51.1931 317.788 47.9323 308.674 48.3172Z" fill="#1D2332"/>
<path fill-rule="evenodd" clip-rule="evenodd" d="M314.041 134.574H331.285C333.635 134.574 335.888 135.506 337.551 137.166C339.213 138.826 340.149 141.078 340.151 143.427V150.202C340.149 152.551 339.213 154.803 337.551 156.463C335.888 158.123 333.635 159.055 331.285 159.055H314.041C312.879 159.055 311.728 158.826 310.653 158.381C309.579 157.936 308.603 157.284 307.782 156.462C306.96 155.639 306.308 154.663 305.864 153.589C305.419 152.515 305.191 151.364 305.191 150.202V143.427C305.191 142.265 305.419 141.114 305.864 140.039C306.308 138.965 306.96 137.989 307.782 137.167C308.603 136.345 309.579 135.693 310.653 135.248C311.728 134.803 312.879 134.574 314.041 134.574Z" fill="#1D2332"/>
<path fill-rule="evenodd" clip-rule="evenodd" d="M256.711 190.311H373.868C376.217 190.311 378.47 191.244 380.131 192.904C381.793 194.564 382.727 196.816 382.729 199.164V214.303C382.727 216.652 381.793 218.903 380.131 220.564C378.47 222.224 376.217 223.156 373.868 223.156H256.711C255.548 223.156 254.397 222.927 253.322 222.482C252.248 222.037 251.271 221.385 250.449 220.563C249.627 219.741 248.975 218.765 248.53 217.691C248.085 216.617 247.855 215.466 247.855 214.303V199.164C247.855 198.002 248.085 196.85 248.53 195.776C248.975 194.702 249.627 193.726 250.449 192.904C251.271 192.082 252.248 191.43 253.322 190.985C254.397 190.54 255.548 190.311 256.711 190.311Z" fill="#1D2332"/>
<path fill-rule="evenodd" clip-rule="evenodd" d="M205.328 134.92C205.328 134.92 228.088 168.893 237.136 184.01C246.184 199.126 265.359 232.862 282.663 220.231C299.967 207.6 284.17 169.85 263.615 138.462C243.06 107.074 208.491 97.0656 205.328 134.92Z" fill="#1D2332"/>
<path fill-rule="evenodd" clip-rule="evenodd" d="M224.667 110.549C219.684 111.198 214.717 113.848 210.218 118.346C207.66 122.262 205.922 127.728 205.328 134.92C205.328 134.92 215.427 150.026 224.843 164.576C235.613 152.918 243.687 145.88 243.687 145.88C249.644 140.331 249.287 122.784 240.096 115.294C234.744 112.232 229.475 110.56 224.695 110.56L224.667 110.549Z" fill="#1D2332"/>
<path fill-rule="evenodd" clip-rule="evenodd" d="M147.207 230.822C145.887 235.424 145.233 241.847 149.292 245.059C153.351 248.27 160.71 246.268 165.243 239.56C169.775 232.851 180.985 210.751 199.625 186.308C210.82 171.627 223.34 158.006 237.027 145.616C244.871 137.29 242.616 122.256 233.177 114.822C223.739 107.387 212.232 108.927 202.925 118.671C199.966 121.761 184.153 137.725 170.628 165.555C157.102 193.385 147.207 230.822 147.207 230.822Z" fill="#1D2332"/>
<path fill-rule="evenodd" clip-rule="evenodd" d="M217.172 128.668C217.111 126.796 217.795 124.976 219.075 123.608C220.355 122.24 222.125 121.435 223.998 121.371C224.925 121.339 225.85 121.491 226.719 121.817C227.588 122.143 228.384 122.637 229.062 123.27C229.74 123.904 230.286 124.665 230.669 125.51C231.053 126.355 231.266 127.268 231.297 128.195C231.357 130.064 230.675 131.882 229.399 133.249C228.123 134.617 226.357 135.423 224.487 135.492C223.558 135.526 222.632 135.376 221.761 135.051C220.89 134.726 220.092 134.232 219.412 133.598C218.733 132.964 218.185 132.203 217.8 131.356C217.416 130.51 217.202 129.597 217.172 128.668Z" fill="#1D2332"/>
<path fill-rule="evenodd" clip-rule="evenodd" d="M215.812 126.182C215.751 124.309 216.437 122.489 217.718 121.121C218.999 119.752 220.77 118.948 222.644 118.885C223.571 118.854 224.495 119.006 225.363 119.333C226.232 119.659 227.027 120.153 227.704 120.787C228.382 121.421 228.928 122.181 229.311 123.026C229.694 123.871 229.907 124.783 229.937 125.709C229.972 126.639 229.822 127.566 229.498 128.438C229.173 129.309 228.68 130.108 228.045 130.789C227.411 131.469 226.649 132.018 225.802 132.403C224.956 132.788 224.041 133.003 223.111 133.034C222.181 133.066 221.255 132.913 220.384 132.585C219.513 132.258 218.716 131.761 218.037 131.125C217.359 130.488 216.814 129.724 216.432 128.875C216.05 128.027 215.839 127.112 215.812 126.182Z" fill="#1D2332"/>
<path fill-rule="evenodd" clip-rule="evenodd" d="M263.905 206.104C263.853 204.581 264.102 203.062 264.638 201.634C265.173 200.207 265.985 198.899 267.027 197.786C268.068 196.672 269.319 195.775 270.708 195.145C272.097 194.516 273.596 194.166 275.12 194.116C276.644 194.065 278.163 194.314 279.59 194.85C281.017 195.386 282.324 196.198 283.438 197.239C284.551 198.28 285.448 199.531 286.077 200.919C286.706 202.307 287.056 203.806 287.106 205.329C287.158 206.852 286.911 208.37 286.376 209.797C285.841 211.224 285.03 212.532 283.99 213.645C282.949 214.759 281.699 215.656 280.311 216.286C278.923 216.916 277.425 217.266 275.901 217.317C274.377 217.369 272.858 217.12 271.429 216.585C270.001 216.049 268.693 215.238 267.579 214.196C266.465 213.155 265.567 211.904 264.936 210.516C264.306 209.127 263.956 207.628 263.905 206.104Z" fill="#1D2332"/>
<path fill-rule="evenodd" clip-rule="evenodd" d="M218.148 126.985C219.693 124.742 221.684 122.84 223.995 121.398L218.148 126.985Z" fill="#1D2332"/>
<path fill-rule="evenodd" clip-rule="evenodd" d="M219.949 128.575C221.494 126.331 223.484 124.429 225.796 122.988L219.949 128.575Z" fill="#1D2332"/>
<path fill-rule="evenodd" clip-rule="evenodd" d="M262.287 204.559C262.24 203.161 262.469 201.768 262.961 200.459C263.453 199.149 264.198 197.95 265.154 196.929C266.109 195.907 267.257 195.084 268.531 194.506C269.805 193.929 271.18 193.607 272.578 193.561C273.976 193.512 275.37 193.739 276.68 194.229C277.99 194.719 279.19 195.463 280.212 196.418C281.234 197.373 282.057 198.52 282.635 199.793C283.213 201.066 283.534 202.441 283.579 203.839C283.627 205.236 283.399 206.629 282.908 207.938C282.417 209.247 281.673 210.446 280.718 211.467C279.764 212.489 278.617 213.312 277.344 213.89C276.071 214.468 274.696 214.79 273.299 214.837C271.901 214.886 270.506 214.659 269.196 214.169C267.885 213.679 266.684 212.935 265.661 211.981C264.639 211.026 263.814 209.879 263.235 208.606C262.656 207.332 262.334 205.957 262.287 204.559Z" fill="#1D2332"/>
<path fill-rule="evenodd" clip-rule="evenodd" d="M266.492 205.989C268.798 202.64 271.77 199.802 275.221 197.652L266.492 205.989Z" fill="#1D2332"/>
<path fill-rule="evenodd" clip-rule="evenodd" d="M269.176 208.403C271.482 205.054 274.453 202.216 277.905 200.066L269.176 208.403Z" fill="#1D2332"/>
<path fill-rule="evenodd" clip-rule="evenodd" d="M441.914 119.16C441.914 119.16 414.17 149.218 402.933 162.762C391.696 176.305 367.494 206.676 352.357 191.527C337.221 176.377 358.65 141.519 383.803 113.678C408.956 85.8367 444.625 81.2725 441.914 119.16Z" fill="#1D2332"/>
<path fill-rule="evenodd" clip-rule="evenodd" d="M426.549 92.1053C431.378 93.513 435.9 96.9113 439.634 102.031C441.549 106.298 442.429 111.967 441.912 119.166C441.912 119.166 429.596 132.534 418.051 145.451C409.207 132.253 402.32 124.065 402.32 124.065C397.282 117.664 400.346 100.376 410.571 94.4038C416.33 92.2042 421.791 91.3629 426.522 92.0998L426.549 92.1053Z" fill="#1D2332"/>
<path fill-rule="evenodd" clip-rule="evenodd" d="M484.535 222.881C485.124 227.632 484.783 234.083 480.272 236.629C475.762 239.175 468.815 236.079 465.361 228.749C461.907 221.419 454.267 197.861 439.614 170.839C430.824 154.601 420.56 139.205 408.95 124.846C402.481 115.41 407.03 100.898 417.492 95.0032C427.953 89.1083 439.097 92.4132 446.803 103.494C449.245 107.002 462.407 125.214 471.483 154.793C480.558 184.372 484.535 222.881 484.535 222.881Z" fill="#1D2332"/>
<path fill-rule="evenodd" clip-rule="evenodd" d="M431.171 111.159C431.519 109.321 431.123 107.42 430.07 105.874C429.017 104.327 427.394 103.261 425.555 102.911C423.717 102.566 421.817 102.963 420.271 104.015C418.725 105.067 417.658 106.689 417.305 108.525C416.96 110.363 417.357 112.263 418.41 113.809C419.462 115.354 421.084 116.42 422.921 116.774C424.759 117.119 426.659 116.721 428.205 115.669C429.751 114.617 430.818 112.996 431.171 111.159Z" fill="#1D2332"/>
<path fill-rule="evenodd" clip-rule="evenodd" d="M432.889 108.916C433.062 108.006 433.054 107.07 432.865 106.163C432.677 105.256 432.311 104.395 431.79 103.629C431.268 102.863 430.601 102.207 429.826 101.699C429.051 101.191 428.183 100.84 427.273 100.667C425.434 100.32 423.531 100.716 421.984 101.77C420.437 102.824 419.372 104.449 419.023 106.287C418.849 107.198 418.857 108.133 419.046 109.04C419.235 109.947 419.6 110.808 420.122 111.574C420.643 112.34 421.31 112.996 422.085 113.504C422.86 114.012 423.728 114.363 424.638 114.536C425.549 114.709 426.485 114.7 427.393 114.512C428.301 114.323 429.162 113.957 429.928 113.435C430.695 112.913 431.35 112.245 431.858 111.47C432.366 110.694 432.717 109.827 432.889 108.916Z" fill="#1D2332"/>
<path fill-rule="evenodd" clip-rule="evenodd" d="M373.045 180.463C373.33 178.965 373.318 177.426 373.008 175.934C372.699 174.441 372.098 173.024 371.24 171.764C370.382 170.504 369.285 169.425 368.01 168.589C366.735 167.752 365.308 167.176 363.81 166.891C362.313 166.606 360.774 166.618 359.282 166.928C357.79 167.237 356.373 167.837 355.113 168.694C353.853 169.551 352.774 170.648 351.938 171.922C351.102 173.196 350.525 174.622 350.241 176.119C349.67 179.139 350.322 182.263 352.052 184.804C353.782 187.345 356.45 189.096 359.47 189.673C362.492 190.25 365.619 189.604 368.164 187.877C370.71 186.15 372.465 183.483 373.045 180.463Z" fill="#1D2332"/>
<path fill-rule="evenodd" clip-rule="evenodd" d="M430.472 109.323C429.288 106.869 427.614 104.683 425.555 102.9L430.472 109.323Z" fill="#1D2332"/>
<path fill-rule="evenodd" clip-rule="evenodd" d="M428.438 110.642C427.26 108.188 425.59 106.002 423.531 104.22L428.438 110.642Z" fill="#1D2332"/>
<path fill-rule="evenodd" clip-rule="evenodd" d="M374.882 179.181C375.144 177.807 375.132 176.394 374.846 175.025C374.561 173.655 374.008 172.355 373.22 171.2C372.432 170.044 371.423 169.055 370.252 168.289C369.081 167.523 367.771 166.996 366.395 166.737C363.626 166.215 360.762 166.812 358.432 168.397C356.102 169.983 354.495 172.427 353.965 175.194C353.438 177.967 354.033 180.835 355.619 183.169C357.205 185.503 359.652 187.112 362.424 187.644C363.798 187.906 365.21 187.896 366.58 187.612C367.95 187.329 369.25 186.779 370.407 185.993C371.564 185.207 372.555 184.201 373.322 183.032C374.09 181.863 374.62 180.555 374.882 179.181Z" fill="#1D2332"/>
<path fill-rule="evenodd" clip-rule="evenodd" d="M370.507 179.951C368.74 176.286 366.241 173.023 363.164 170.361L370.507 179.951Z" fill="#1D2332"/>
<path fill-rule="evenodd" clip-rule="evenodd" d="M367.495 181.92C365.729 178.256 363.23 174.994 360.152 172.335L367.495 181.92Z" fill="#1D2332"/>
<path fill-rule="evenodd" clip-rule="evenodd" d="M226.134 180.617H256.385C258.734 180.617 260.987 181.549 262.647 183.21C264.308 184.87 265.241 187.122 265.241 189.47V253.461C265.235 255.806 264.3 258.052 262.64 259.707C260.979 261.363 258.73 262.293 256.385 262.293H226.134C224.971 262.296 223.819 262.069 222.744 261.627C221.669 261.185 220.691 260.535 219.867 259.715C219.044 258.895 218.389 257.92 217.942 256.847C217.495 255.774 217.264 254.624 217.262 253.461V189.47C217.261 188.306 217.49 187.153 217.936 186.077C218.382 185.002 219.035 184.025 219.86 183.202C220.684 182.38 221.662 181.728 222.739 181.284C223.816 180.841 224.969 180.614 226.134 180.617Z" fill="#1D2332"/>
<path d="M256.386 263.909H226.134C223.363 263.909 220.704 262.809 218.744 260.849C216.785 258.89 215.684 256.232 215.684 253.461V189.47C215.684 186.699 216.785 184.042 218.744 182.082C220.704 180.123 223.363 179.022 226.134 179.022H256.386C259.155 179.031 261.808 180.134 263.766 182.092C265.724 184.049 266.828 186.702 266.837 189.47V253.461C266.828 256.23 265.724 258.882 263.766 260.84C261.808 262.797 259.155 263.901 256.386 263.909ZM226.134 182.228C224.214 182.231 222.373 182.995 221.015 184.352C219.657 185.71 218.893 187.55 218.89 189.47V253.461C218.899 255.377 219.666 257.212 221.023 258.565C222.38 259.918 224.218 260.679 226.134 260.681H256.386C258.298 260.671 260.128 259.907 261.479 258.555C262.831 257.203 263.594 255.373 263.602 253.461V189.47C263.599 187.555 262.839 185.719 261.487 184.362C260.135 183.005 258.301 182.238 256.386 182.228H226.134Z" fill="#1D2332"/>
<path fill-rule="evenodd" clip-rule="evenodd" d="M171.535 169.355C171.535 169.355 193.135 204.07 201.655 219.478C210.175 234.886 228.232 269.249 245.938 257.206C263.643 245.163 249.139 206.902 229.646 174.826C210.153 142.751 175.968 131.626 171.535 169.355Z" fill="#42C66E"/>
<path d="M238.275 261.33C237.088 261.327 235.907 261.183 234.754 260.901C220.751 257.541 208.452 235.188 201.109 221.826L200.24 220.259C191.857 205.059 170.384 170.554 170.164 170.218C169.972 169.908 169.89 169.541 169.933 169.179C171.583 155.211 177.557 146.413 186.786 144.434C200.427 141.459 218.616 153.639 231.025 174.045C241.85 191.818 249.787 209.261 253.307 223.135C257.784 240.665 255.612 252.576 246.85 258.537C244.344 260.322 241.351 261.297 238.275 261.33ZM173.2 168.986C175.851 173.243 195.202 204.422 203.061 218.702L203.931 220.275C210.531 232.323 222.885 254.742 235.508 257.767C238.858 258.575 241.976 257.954 245.034 255.875C261.722 244.531 247.317 207.012 228.269 175.684C216.752 156.735 199.591 144.89 187.474 147.54C179.696 149.234 174.768 156.647 173.2 168.986Z" fill="#1D2332"/>
<path fill-rule="evenodd" clip-rule="evenodd" d="M191.682 145.649C186.677 146.127 181.622 148.624 176.974 152.952C174.29 156.801 172.376 162.19 171.523 169.355C171.523 169.355 181.127 184.79 190.049 199.643C201.192 188.359 209.498 181.579 209.498 181.579C215.647 176.24 215.872 158.681 206.945 150.895C201.704 147.656 196.495 145.808 191.693 145.649H191.682Z" fill="#1D2332"/>
<path fill-rule="evenodd" clip-rule="evenodd" d="M110.232 263.255C108.764 267.814 107.884 274.209 111.838 277.552C115.793 280.896 123.202 279.147 127.965 272.603C132.728 266.059 144.648 244.339 164.097 220.539C175.777 206.236 188.746 193.034 202.841 181.101C210.965 173.045 209.205 157.939 200.047 150.191C190.889 142.443 179.311 143.592 169.658 153.04C166.605 156.025 150.269 171.456 135.809 198.813C121.348 226.17 110.232 263.255 110.232 263.255Z" fill="white"/>
<path d="M116.707 280.83C114.557 280.871 112.463 280.146 110.8 278.784C105.849 274.588 107.345 266.961 108.693 262.777C108.973 261.847 120.139 225.037 134.385 198.059C140.809 185.907 151.887 168.085 168.173 152.237L168.531 151.89C178.833 141.833 191.308 140.689 201.087 148.981C203.651 151.217 205.732 153.952 207.202 157.019C208.671 160.086 209.499 163.421 209.635 166.82C209.877 172.913 207.869 178.368 203.98 182.244L203.859 182.354C189.863 194.235 176.972 207.36 165.346 221.567C151.331 238.719 141.046 255.111 134.907 264.861C132.509 268.71 130.612 271.701 129.27 273.549C126.305 277.624 122.224 280.241 118.071 280.747C117.618 280.802 117.163 280.829 116.707 280.83ZM186.83 146.655C181.446 146.655 175.896 149.179 170.786 154.178L170.423 154.535C154.434 170.103 143.548 187.617 137.234 199.572C123.027 226.473 111.883 263.359 111.773 263.722C111.776 263.733 111.776 263.745 111.773 263.755C110.893 266.505 109.226 273.23 112.873 276.331C113.544 276.858 114.318 277.239 115.145 277.449C115.972 277.659 116.834 277.695 117.675 277.552C120.898 277.162 124.275 274.962 126.657 271.663C127.933 269.903 129.809 266.923 132.157 263.156C138.34 253.313 148.658 236.844 162.833 219.522C174.581 205.18 187.602 191.929 201.736 179.929C204.943 176.724 206.593 172.126 206.39 166.974C206.278 164.019 205.563 161.118 204.29 158.448C203.017 155.779 201.212 153.398 198.986 151.45C195.246 148.239 191.088 146.666 186.83 146.666V146.655Z" fill="#1D2332"/>
<path fill-rule="evenodd" clip-rule="evenodd" d="M183.578 163.504C183.578 161.63 184.323 159.832 185.648 158.507C186.974 157.182 188.771 156.438 190.646 156.438C191.574 156.437 192.493 156.62 193.35 156.975C194.207 157.331 194.986 157.851 195.642 158.507C196.298 159.164 196.818 159.943 197.172 160.8C197.527 161.657 197.709 162.576 197.708 163.504C197.708 165.377 196.965 167.173 195.64 168.498C194.316 169.823 192.52 170.568 190.646 170.57C188.771 170.57 186.974 169.825 185.648 168.5C184.323 167.175 183.578 165.378 183.578 163.504Z" fill="#1D2332"/>
<path fill-rule="evenodd" clip-rule="evenodd" d="M182.305 160.974C182.311 159.105 183.057 157.314 184.381 155.994C185.704 154.674 187.497 153.932 189.367 153.93C191.237 153.933 193.03 154.675 194.354 155.995C195.678 157.315 196.426 159.105 196.435 160.974C196.434 161.903 196.251 162.822 195.894 163.68C195.538 164.538 195.017 165.317 194.359 165.973C193.702 166.629 192.922 167.15 192.063 167.504C191.205 167.859 190.285 168.041 189.356 168.04C187.484 168.038 185.69 167.292 184.367 165.967C183.045 164.642 182.303 162.846 182.305 160.974Z" fill="white"/>
<path d="M189.365 169.651C187.065 169.647 184.861 168.731 183.235 167.105C181.609 165.478 180.694 163.274 180.691 160.974C180.69 158.672 181.603 156.463 183.229 154.833C184.855 153.203 187.062 152.285 189.365 152.28C190.509 152.277 191.642 152.5 192.7 152.936C193.758 153.371 194.719 154.011 195.529 154.819C196.338 155.626 196.981 156.586 197.419 157.642C197.858 158.698 198.083 159.831 198.083 160.974C198.081 162.116 197.854 163.247 197.415 164.301C196.975 165.355 196.332 166.313 195.523 167.119C194.713 167.925 193.753 168.563 192.696 168.998C191.64 169.432 190.508 169.654 189.365 169.651ZM189.365 155.519C187.92 155.522 186.534 156.098 185.512 157.12C184.491 158.143 183.916 159.529 183.915 160.974C183.916 162.419 184.491 163.805 185.512 164.828C186.534 165.85 187.92 166.426 189.365 166.429C190.814 166.429 192.202 165.855 193.227 164.832C194.252 163.809 194.83 162.422 194.833 160.974C194.83 159.526 194.252 158.139 193.227 157.116C192.202 156.094 190.814 155.519 189.365 155.519Z" fill="#1D2332"/>
<path fill-rule="evenodd" clip-rule="evenodd" d="M227.691 242.463C227.691 239.385 228.915 236.432 231.092 234.255C233.27 232.078 236.223 230.855 239.303 230.855C242.382 230.855 245.335 232.078 247.513 234.255C249.69 236.432 250.914 239.385 250.914 242.463C250.912 245.541 249.688 248.492 247.511 250.668C245.334 252.844 242.381 254.066 239.303 254.066C236.224 254.066 233.272 252.844 231.094 250.668C228.917 248.492 227.693 245.541 227.691 242.463Z" fill="#1D2332"/>
<path d="M184.607 162.899C184.389 162.898 184.177 162.833 183.996 162.712C183.768 162.546 183.612 162.299 183.561 162.022C183.51 161.744 183.567 161.458 183.721 161.222C185.432 158.89 187.61 156.942 190.118 155.503C190.368 155.37 190.66 155.339 190.933 155.416C191.205 155.493 191.437 155.672 191.581 155.915C191.714 156.165 191.745 156.457 191.668 156.729C191.592 157.002 191.413 157.234 191.169 157.378C188.954 158.663 187.022 160.384 185.493 162.437C185.392 162.578 185.259 162.694 185.105 162.774C184.951 162.855 184.781 162.897 184.607 162.899Z" fill="#1D2332"/>
<path d="M186.35 164.576C186.134 164.575 185.924 164.509 185.745 164.389C185.514 164.224 185.356 163.976 185.304 163.698C185.252 163.419 185.309 163.131 185.464 162.894C187.18 160.567 189.36 158.621 191.867 157.18C192.117 157.047 192.408 157.016 192.681 157.093C192.953 157.17 193.186 157.349 193.33 157.593C193.461 157.842 193.491 158.132 193.414 158.403C193.338 158.675 193.16 158.906 192.917 159.05C190.7 160.332 188.769 162.054 187.241 164.109C187.14 164.252 187.007 164.369 186.852 164.45C186.697 164.532 186.525 164.575 186.35 164.576Z" fill="#1D2332"/>
<path fill-rule="evenodd" clip-rule="evenodd" d="M226.137 240.863C226.136 239.465 226.411 238.081 226.945 236.79C227.48 235.498 228.264 234.324 229.252 233.336C230.24 232.347 231.414 231.563 232.706 231.028C233.997 230.493 235.382 230.217 236.78 230.217C238.178 230.217 239.562 230.493 240.854 231.028C242.146 231.563 243.319 232.347 244.308 233.336C245.296 234.324 246.08 235.498 246.614 236.79C247.149 238.081 247.424 239.465 247.423 240.863C247.423 243.685 246.302 246.392 244.306 248.387C242.31 250.383 239.603 251.504 236.78 251.504C235.382 251.504 233.998 251.23 232.706 250.695C231.414 250.161 230.241 249.377 229.252 248.389C228.264 247.401 227.48 246.227 226.945 244.936C226.411 243.645 226.136 242.261 226.137 240.863Z" fill="#42C66E"/>
<path d="M236.778 253.115C233.529 253.11 230.415 251.818 228.118 249.521C225.82 247.225 224.528 244.111 224.523 240.863C224.526 237.615 225.818 234.5 228.116 232.203C230.414 229.906 233.529 228.614 236.778 228.611C240.026 228.616 243.14 229.908 245.437 232.205C247.733 234.502 249.024 237.615 249.027 240.863C249.024 244.11 247.733 247.224 245.437 249.521C243.14 251.818 240.026 253.11 236.778 253.115ZM236.778 231.828C234.382 231.831 232.085 232.784 230.391 234.478C228.697 236.171 227.744 238.468 227.741 240.863C227.745 243.257 228.699 245.552 230.393 247.245C232.087 248.937 234.383 249.889 236.778 249.892C239.173 249.889 241.468 248.937 243.161 247.244C244.854 245.552 245.807 243.257 245.81 240.863C245.807 238.469 244.854 236.173 243.162 234.48C241.469 232.786 239.173 231.833 236.778 231.828Z" fill="#1D2332"/>
<path d="M230.285 244.042C229.959 244.043 229.64 243.945 229.372 243.761C229.02 243.519 228.78 243.147 228.702 242.727C228.625 242.308 228.717 241.875 228.959 241.523C231.51 238.044 234.758 235.136 238.497 232.983C238.681 232.879 238.885 232.812 239.096 232.786C239.306 232.761 239.52 232.777 239.725 232.834C239.929 232.891 240.12 232.988 240.287 233.12C240.454 233.251 240.593 233.414 240.697 233.599C240.801 233.784 240.868 233.987 240.894 234.198C240.919 234.409 240.903 234.623 240.846 234.827C240.789 235.031 240.692 235.222 240.56 235.389C240.429 235.556 240.266 235.695 240.081 235.799C236.785 237.717 233.913 240.283 231.638 243.343C231.487 243.562 231.285 243.74 231.049 243.862C230.813 243.984 230.55 244.046 230.285 244.042Z" fill="#1D2332"/>
<path d="M232.892 246.544C232.566 246.546 232.247 246.448 231.979 246.263C231.628 246.021 231.387 245.649 231.309 245.23C231.23 244.811 231.321 244.378 231.561 244.025C234.113 240.548 237.364 237.641 241.104 235.491C241.288 235.385 241.492 235.318 241.703 235.292C241.914 235.266 242.128 235.282 242.332 235.339C242.537 235.397 242.728 235.494 242.895 235.626C243.062 235.757 243.201 235.921 243.304 236.107C243.513 236.48 243.566 236.921 243.451 237.334C243.335 237.746 243.061 238.096 242.688 238.306C239.382 240.221 236.502 242.79 234.223 245.856C234.073 246.07 233.874 246.244 233.642 246.364C233.41 246.484 233.153 246.545 232.892 246.544Z" fill="#1D2332"/>
<path fill-rule="evenodd" clip-rule="evenodd" d="M388.67 180.617H358.418C356.069 180.617 353.817 181.549 352.156 183.21C350.495 184.87 349.563 187.122 349.563 189.47V253.461C349.562 255.809 350.495 258.061 352.156 259.722C353.817 261.382 356.069 262.315 358.418 262.315H388.67C389.832 262.315 390.984 262.086 392.058 261.641C393.132 261.196 394.108 260.543 394.93 259.721C395.751 258.899 396.403 257.923 396.848 256.849C397.292 255.775 397.52 254.624 397.52 253.461V189.47C397.52 188.308 397.292 187.157 396.848 186.082C396.403 185.008 395.751 184.032 394.93 183.21C394.108 182.388 393.132 181.736 392.058 181.291C390.984 180.846 389.832 180.617 388.67 180.617Z" fill="#1D2332"/>
<path d="M388.671 263.909H358.419C355.65 263.901 352.997 262.797 351.039 260.84C349.081 258.882 347.977 256.23 347.969 253.461V189.47C347.977 186.702 349.081 184.049 351.039 182.092C352.997 180.134 355.65 179.031 358.419 179.022H388.671C391.443 179.022 394.101 180.123 396.061 182.082C398.021 184.042 399.122 186.699 399.122 189.47V253.461C399.122 256.232 398.021 258.89 396.061 260.849C394.101 262.809 391.443 263.909 388.671 263.909ZM358.419 182.233C356.499 182.236 354.658 183 353.3 184.358C351.942 185.715 351.178 187.556 351.175 189.475V253.461C351.178 255.381 351.942 257.221 353.3 258.579C354.658 259.937 356.499 260.7 358.419 260.703H388.671C390.591 260.7 392.431 259.936 393.788 258.579C395.145 257.221 395.908 255.381 395.91 253.461V189.47C395.908 187.551 395.145 185.71 393.788 184.353C392.431 182.995 390.591 182.231 388.671 182.228L358.419 182.233Z" fill="#1D2332"/>
<path fill-rule="evenodd" clip-rule="evenodd" d="M251.883 155.233H386.443C388.791 155.233 391.044 156.166 392.704 157.826C394.365 159.487 395.298 161.739 395.298 164.087V192.61C395.298 194.958 394.365 197.21 392.704 198.87C391.044 200.53 388.791 201.463 386.443 201.463H251.883C249.534 201.463 247.282 200.53 245.621 198.87C243.96 197.21 243.027 194.958 243.027 192.61V164.087C243.027 161.739 243.96 159.487 245.621 157.826C247.282 156.166 249.534 155.233 251.883 155.233Z" fill="#4F5865"/>
<path d="M386.444 203.074H251.884C249.113 203.074 246.454 201.973 244.495 200.014C242.535 198.055 241.434 195.397 241.434 192.626V164.087C241.442 161.318 242.546 158.666 244.504 156.708C246.462 154.751 249.115 153.647 251.884 153.639H386.444C389.213 153.647 391.866 154.751 393.824 156.708C395.782 158.666 396.886 161.318 396.895 164.087V192.61C396.897 193.983 396.628 195.344 396.104 196.613C395.58 197.883 394.81 199.036 393.839 200.008C392.869 200.98 391.716 201.751 390.447 202.277C389.178 202.803 387.818 203.074 386.444 203.074ZM251.884 156.845C249.964 156.847 248.123 157.611 246.765 158.969C245.407 160.326 244.643 162.167 244.64 164.087V192.61C244.642 194.53 245.405 196.371 246.764 197.729C248.122 199.087 249.963 199.85 251.884 199.852H386.444C388.365 199.85 390.206 199.087 391.565 197.729C392.923 196.371 393.686 194.53 393.688 192.61V164.087C393.685 162.167 392.921 160.326 391.563 158.969C390.205 157.611 388.364 156.847 386.444 156.845H251.884Z" fill="#1D2332"/>
<path fill-rule="evenodd" clip-rule="evenodd" d="M488.644 153.864C488.644 153.864 456.709 183.229 434.378 216.068C412.926 247.566 386.525 269.26 368.841 257.217C351.158 245.174 373.929 210.96 397.922 182.118C426.292 148.008 484.216 116.141 488.644 153.864Z" fill="#42C66E"/>
<path d="M379.854 262.177C375.601 262.213 371.441 260.942 367.934 258.536C366.07 257.306 364.497 255.685 363.322 253.786C362.147 251.887 361.399 249.755 361.131 247.539C359.205 233.907 370.839 212.175 396.685 181.1C407.355 168.271 422.569 155.415 437.387 146.715C453.756 137.098 467.969 133.342 477.413 136.146C482.512 137.659 488.875 141.931 490.256 153.699C490.286 153.952 490.256 154.208 490.168 154.447C490.08 154.686 489.937 154.901 489.75 155.074C489.42 155.343 457.7 184.669 435.698 216.964C424.313 233.698 412.355 246.604 401.118 254.291C393.456 259.537 386.273 262.177 379.854 262.177ZM470.543 138.45C462.292 138.45 451.358 142.245 439.01 149.498C424.505 158.021 409.61 170.608 399.16 183.168C374.282 213.049 362.544 234.561 364.321 247.066C364.522 248.841 365.113 250.55 366.052 252.071C366.99 253.592 368.253 254.887 369.75 255.864C377.516 261.143 387.461 259.713 399.308 251.619C410.221 244.162 421.887 231.548 433.042 215.139C453.525 185.032 482.385 157.515 486.945 153.243C485.845 145.66 482.347 140.941 476.494 139.204C474.559 138.656 472.554 138.393 470.543 138.423V138.45Z" fill="#1D2332"/>
<path fill-rule="evenodd" clip-rule="evenodd" d="M468.485 137.433C473.496 137.912 478.556 140.408 483.198 144.736C485.883 148.585 487.808 153.974 488.644 161.139C488.644 161.139 479.057 176.575 470.124 191.427C458.975 180.143 450.675 173.363 450.675 173.363C444.526 168.024 444.295 150.466 453.227 142.679C458.474 139.44 463.678 137.593 468.474 137.433H468.485Z" fill="#1D2332"/>
<path fill-rule="evenodd" clip-rule="evenodd" d="M524.803 278.586C525.32 283.783 524.974 290.821 520.744 293.571C516.514 296.32 510.046 292.878 506.861 284.86C503.677 276.843 496.658 251.042 483.127 221.419C469.597 191.796 454.757 170.977 454.757 170.977C448.778 160.628 453.107 144.802 462.897 138.434C472.688 132.067 483.094 135.745 490.234 147.904C492.489 151.753 504.672 171.736 512.978 204.114C521.283 236.492 524.803 278.586 524.803 278.586Z" fill="white"/>
<path d="M517.511 296.117C516.61 296.113 515.716 295.97 514.859 295.693C510.954 294.45 507.396 290.623 505.344 285.454C504.453 283.205 503.27 279.598 501.774 275.006C497.924 263.216 491.445 243.475 481.66 222.068C468.365 192.923 453.608 172.088 453.443 171.884L453.36 171.752C447.09 160.897 451.298 144.032 462.018 137.054C466.655 134.046 471.61 133.045 476.357 134.167C482.204 135.547 487.479 140.007 491.621 147.062L491.896 147.524C503.941 167.942 510.855 189.316 514.535 203.69C522.73 235.628 526.311 277.481 526.388 278.415C526.856 283.117 526.85 291.487 521.597 294.912C520.383 295.706 518.961 296.125 517.511 296.117ZM456.116 170.103C467.024 186.15 476.55 203.095 484.591 220.754C494.448 242.326 500.949 262.172 504.838 274.027C506.317 278.542 507.484 282.111 508.336 284.266C510.036 288.545 512.841 291.668 515.838 292.625C516.493 292.863 517.194 292.951 517.887 292.88C518.581 292.81 519.249 292.583 519.843 292.218C523.814 289.639 523.5 281.94 523.181 278.745C523.148 278.328 519.595 236.404 511.422 204.51C507.792 190.361 500.971 169.272 489.123 149.179L488.848 148.712C485.163 142.432 480.598 138.495 475.648 137.323C471.72 136.4 467.738 137.224 463.805 139.781C454.565 145.775 450.781 160.771 456.116 170.103Z" fill="#1D2332"/>
<path fill-rule="evenodd" clip-rule="evenodd" d="M481.203 157.362C481.203 155.488 480.458 153.69 479.133 152.365C477.807 151.04 476.01 150.295 474.135 150.295C473.205 150.293 472.284 150.473 471.424 150.827C470.565 151.181 469.783 151.701 469.125 152.358C468.467 153.014 467.945 153.794 467.589 154.653C467.233 155.512 467.05 156.432 467.051 157.362C467.05 158.289 467.232 159.208 467.587 160.065C467.941 160.923 468.461 161.702 469.117 162.358C469.773 163.014 470.552 163.535 471.409 163.89C472.266 164.245 473.185 164.428 474.113 164.428C475.043 164.431 475.965 164.25 476.825 163.896C477.685 163.542 478.467 163.022 479.125 162.366C479.784 161.709 480.306 160.93 480.663 160.071C481.02 159.212 481.203 158.291 481.203 157.362Z" fill="#1D2332"/>
<path fill-rule="evenodd" clip-rule="evenodd" d="M482.478 154.832C482.478 152.958 481.733 151.16 480.408 149.835C479.082 148.51 477.285 147.766 475.41 147.766C473.537 147.767 471.74 148.512 470.416 149.837C469.092 151.162 468.348 152.959 468.348 154.832C468.347 155.759 468.529 156.678 468.884 157.535C469.238 158.393 469.758 159.172 470.414 159.828C471.07 160.484 471.849 161.005 472.706 161.36C473.563 161.715 474.482 161.898 475.41 161.898C477.285 161.898 479.082 161.153 480.408 159.828C481.733 158.503 482.478 156.706 482.478 154.832Z" fill="white"/>
<path d="M475.408 163.509C473.108 163.505 470.904 162.589 469.278 160.963C467.652 159.336 466.737 157.132 466.734 154.832C466.737 152.533 467.652 150.328 469.278 148.701C470.904 147.075 473.108 146.159 475.408 146.155C477.711 146.155 479.92 147.069 481.55 148.696C483.179 150.323 484.096 152.53 484.099 154.832C484.096 157.135 483.179 159.342 481.55 160.969C479.92 162.596 477.711 163.509 475.408 163.509ZM475.408 149.377C473.963 149.38 472.577 149.956 471.555 150.978C470.534 152.001 469.959 153.387 469.958 154.832C469.959 156.277 470.534 157.663 471.555 158.686C472.577 159.708 473.963 160.284 475.408 160.287C476.855 160.286 478.242 159.71 479.265 158.688C480.288 157.665 480.863 156.278 480.865 154.832C480.863 153.386 480.288 151.999 479.265 150.976C478.242 149.954 476.855 149.379 475.408 149.377Z" fill="#1D2332"/>
<path fill-rule="evenodd" clip-rule="evenodd" d="M437.219 108.932C437.219 108.004 437.035 107.086 436.679 106.229C436.323 105.372 435.802 104.593 435.145 103.937C434.489 103.282 433.709 102.762 432.851 102.407C431.993 102.053 431.074 101.871 430.146 101.872C429.218 101.871 428.299 102.053 427.442 102.407C426.584 102.762 425.805 103.282 425.149 103.938C424.492 104.593 423.972 105.372 423.616 106.229C423.261 107.086 423.078 108.005 423.078 108.932C423.081 110.804 423.827 112.599 425.152 113.922C426.477 115.244 428.273 115.987 430.146 115.987C432.02 115.989 433.817 115.247 435.143 113.924C436.47 112.601 437.217 110.805 437.219 108.932Z" fill="white"/>
<path d="M430.148 117.637C427.847 117.636 425.64 116.721 424.013 115.094C422.385 113.467 421.47 111.261 421.469 108.96C421.472 106.66 422.387 104.455 424.014 102.829C425.642 101.203 427.848 100.29 430.148 100.288C432.449 100.29 434.656 101.203 436.284 102.829C437.912 104.455 438.829 106.659 438.833 108.96C438.83 111.261 437.914 113.468 436.286 115.094C434.658 116.721 432.45 117.636 430.148 117.637ZM430.148 103.51C428.703 103.512 427.316 104.086 426.294 105.108C425.271 106.129 424.695 107.515 424.692 108.96C424.693 110.406 425.269 111.793 426.292 112.816C427.315 113.838 428.702 114.413 430.148 114.415C431.595 114.413 432.983 113.838 434.007 112.816C435.031 111.793 435.607 110.407 435.61 108.96C435.612 108.242 435.471 107.53 435.198 106.866C434.924 106.202 434.522 105.598 434.015 105.09C433.507 104.581 432.905 104.177 432.241 103.902C431.578 103.626 430.867 103.484 430.148 103.483V103.51Z" fill="#1D2332"/>
<path fill-rule="evenodd" clip-rule="evenodd" d="M228.776 126.314C228.778 124.444 228.037 122.65 226.717 121.326C225.398 120.001 223.606 119.254 221.736 119.248C219.861 119.248 218.064 119.993 216.738 121.318C215.413 122.643 214.668 124.44 214.668 126.314C214.668 127.242 214.851 128.16 215.206 129.017C215.561 129.874 216.082 130.653 216.738 131.309C217.395 131.965 218.174 132.484 219.031 132.839C219.889 133.193 220.808 133.376 221.736 133.375C223.605 133.369 225.396 132.623 226.716 131.299C228.035 129.976 228.776 128.183 228.776 126.314Z" fill="white"/>
<path d="M221.734 134.986C219.434 134.985 217.228 134.071 215.6 132.445C213.973 130.819 213.058 128.615 213.055 126.315C213.058 124.014 213.973 121.809 215.6 120.182C217.227 118.555 219.433 117.64 221.734 117.637C224.035 117.64 226.24 118.555 227.866 120.182C229.493 121.809 230.407 124.015 230.408 126.315C230.407 128.614 229.492 130.819 227.866 132.445C226.24 134.071 224.034 134.985 221.734 134.986ZM221.734 120.86C220.288 120.861 218.901 121.436 217.878 122.459C216.855 123.482 216.279 124.868 216.278 126.315C216.279 127.76 216.855 129.146 217.878 130.168C218.901 131.19 220.288 131.764 221.734 131.764C223.18 131.764 224.566 131.19 225.589 130.168C226.611 129.146 227.185 127.76 227.185 126.315C227.185 124.869 226.611 123.482 225.589 122.459C224.567 121.436 223.18 120.861 221.734 120.86Z" fill="#1D2332"/>
<path fill-rule="evenodd" clip-rule="evenodd" d="M387.09 242.463C387.09 240.938 386.789 239.428 386.205 238.02C385.621 236.611 384.766 235.331 383.687 234.253C382.608 233.175 381.327 232.32 379.918 231.737C378.509 231.154 376.998 230.854 375.473 230.855C372.394 230.856 369.442 232.08 367.266 234.257C365.09 236.434 363.867 239.386 363.867 242.463C363.869 245.54 365.092 248.49 367.268 250.666C369.444 252.842 372.395 254.065 375.473 254.066C376.998 254.067 378.508 253.767 379.917 253.185C381.326 252.602 382.606 251.747 383.685 250.67C384.764 249.593 385.619 248.313 386.204 246.905C386.788 245.497 387.089 243.988 387.09 242.463Z" fill="#1D2332"/>
<path d="M480.173 156.756C480 156.755 479.829 156.712 479.675 156.632C479.521 156.551 479.388 156.436 479.288 156.294C477.757 154.242 475.826 152.521 473.611 151.235C473.367 151.092 473.188 150.859 473.112 150.587C473.035 150.314 473.066 150.023 473.199 149.773C473.343 149.529 473.575 149.35 473.848 149.273C474.12 149.196 474.412 149.228 474.662 149.36C477.168 150.802 479.347 152.749 481.059 155.079C481.212 155.316 481.269 155.603 481.216 155.88C481.164 156.158 481.007 156.404 480.778 156.569C480.6 156.692 480.389 156.757 480.173 156.756Z" fill="#1D2332"/>
<path d="M434.917 110.862C434.743 110.86 434.571 110.817 434.418 110.735C434.264 110.654 434.131 110.537 434.031 110.395C432.495 108.346 430.563 106.625 428.349 105.336C428.106 105.191 427.929 104.959 427.853 104.686C427.777 104.414 427.809 104.123 427.942 103.873C428.086 103.63 428.319 103.451 428.591 103.374C428.864 103.297 429.155 103.328 429.405 103.461C431.909 104.906 434.087 106.853 435.802 109.18C435.956 109.416 436.014 109.702 435.962 109.98C435.911 110.257 435.755 110.504 435.527 110.67C435.347 110.793 435.135 110.86 434.917 110.862Z" fill="#1D2332"/>
<path d="M226.471 128.239C226.297 128.237 226.126 128.193 225.972 128.112C225.818 128.031 225.685 127.914 225.585 127.772C224.059 125.719 222.132 123.998 219.92 122.712C219.676 122.569 219.497 122.336 219.42 122.064C219.343 121.791 219.375 121.5 219.507 121.25C219.651 121.006 219.884 120.827 220.156 120.75C220.429 120.673 220.72 120.705 220.97 120.837C223.474 122.279 225.648 124.227 227.356 126.556C227.51 126.793 227.568 127.079 227.516 127.356C227.465 127.634 227.309 127.881 227.081 128.046C226.903 128.173 226.689 128.24 226.471 128.239Z" fill="#1D2332"/>
<path d="M478.429 158.434C478.254 158.433 478.082 158.391 477.927 158.311C477.772 158.23 477.639 158.114 477.538 157.972C476.009 155.917 474.077 154.193 471.861 152.908C471.617 152.764 471.438 152.531 471.362 152.259C471.285 151.986 471.316 151.695 471.449 151.445C471.594 151.202 471.826 151.024 472.099 150.948C472.371 150.873 472.662 150.905 472.912 151.038C475.419 152.476 477.598 154.422 479.309 156.751C479.464 156.988 479.523 157.276 479.471 157.554C479.42 157.833 479.263 158.081 479.034 158.247C478.855 158.367 478.644 158.432 478.429 158.434Z" fill="#1D2332"/>
<path d="M433.169 112.534C432.996 112.533 432.825 112.49 432.671 112.41C432.517 112.329 432.384 112.214 432.284 112.072C430.755 110.018 428.824 108.296 426.607 107.013C426.363 106.869 426.185 106.637 426.108 106.365C426.031 106.092 426.062 105.801 426.195 105.551C426.339 105.307 426.571 105.128 426.844 105.051C427.116 104.974 427.408 105.005 427.658 105.138C430.165 106.576 432.342 108.525 434.049 110.857C434.203 111.093 434.261 111.38 434.209 111.657C434.158 111.934 434.002 112.181 433.774 112.347C433.595 112.468 433.385 112.533 433.169 112.534Z" fill="#1D2332"/>
<path d="M224.737 129.916C224.563 129.914 224.392 129.87 224.238 129.789C224.084 129.708 223.951 129.591 223.851 129.449C222.315 127.399 220.383 125.679 218.17 124.39C217.927 124.245 217.749 124.012 217.673 123.74C217.597 123.467 217.629 123.176 217.763 122.927C217.906 122.683 218.139 122.504 218.411 122.428C218.684 122.351 218.975 122.382 219.226 122.515C221.73 123.957 223.906 125.905 225.617 128.233C225.697 128.349 225.754 128.48 225.784 128.617C225.814 128.755 225.816 128.897 225.79 129.036C225.765 129.174 225.712 129.307 225.635 129.425C225.558 129.543 225.458 129.644 225.342 129.724C225.166 129.85 224.954 129.917 224.737 129.916Z" fill="#1D2332"/>
<path fill-rule="evenodd" clip-rule="evenodd" d="M388.65 240.863C388.65 239.465 388.375 238.08 387.84 236.788C387.306 235.496 386.521 234.323 385.532 233.334C384.543 232.345 383.369 231.561 382.077 231.026C380.785 230.491 379.399 230.217 378.001 230.217C376.603 230.218 375.219 230.494 373.928 231.029C372.637 231.565 371.464 232.349 370.477 233.338C369.489 234.326 368.706 235.5 368.171 236.791C367.637 238.082 367.363 239.466 367.363 240.863C367.363 242.26 367.637 243.644 368.171 244.935C368.706 246.226 369.489 247.399 370.477 248.387C371.465 249.375 372.638 250.159 373.929 250.694C375.22 251.228 376.603 251.504 378.001 251.504C379.399 251.505 380.784 251.231 382.076 250.697C383.369 250.163 384.543 249.379 385.532 248.391C386.521 247.402 387.305 246.229 387.84 244.937C388.375 243.646 388.65 242.261 388.65 240.863Z" fill="#42C66E"/>
<path d="M377.999 253.115C374.751 253.11 371.637 251.818 369.341 249.521C367.044 247.224 365.753 244.11 365.75 240.863C365.753 237.615 367.044 234.502 369.341 232.205C371.637 229.908 374.751 228.616 377.999 228.611C381.249 228.614 384.365 229.906 386.663 232.203C388.962 234.499 390.255 237.614 390.259 240.863C390.255 244.112 388.962 247.226 386.663 249.523C384.365 251.82 381.249 253.112 377.999 253.115ZM377.999 231.828C375.605 231.833 373.31 232.786 371.618 234.48C369.926 236.174 368.975 238.469 368.973 240.863C368.976 243.256 369.928 245.55 371.62 247.243C373.312 248.935 375.606 249.888 377.999 249.892C380.394 249.889 382.69 248.937 384.384 247.245C386.078 245.552 387.032 243.257 387.036 240.863C387.033 238.468 386.08 236.171 384.386 234.478C382.692 232.784 380.395 231.831 377.999 231.828Z" fill="#1D2332"/>
<path d="M384.5 244.047C384.238 244.046 383.98 243.982 383.748 243.859C383.516 243.737 383.317 243.559 383.169 243.343C380.888 240.281 378.01 237.713 374.71 235.793C374.524 235.69 374.36 235.551 374.229 235.384C374.097 235.217 374 235.026 373.942 234.822C373.885 234.617 373.869 234.403 373.895 234.192C373.921 233.981 373.988 233.778 374.094 233.593C374.197 233.408 374.337 233.245 374.503 233.114C374.67 232.983 374.861 232.885 375.066 232.828C375.27 232.771 375.484 232.755 375.695 232.78C375.905 232.806 376.109 232.873 376.294 232.977C380.032 235.13 383.281 238.039 385.831 241.517C385.952 241.691 386.036 241.888 386.08 242.095C386.124 242.302 386.127 242.515 386.088 242.723C386.049 242.931 385.969 243.129 385.854 243.307C385.738 243.484 385.588 243.636 385.413 243.755C385.146 243.944 384.828 244.046 384.5 244.047Z" fill="#1D2332"/>
<path d="M381.895 246.549C381.634 246.549 381.377 246.486 381.146 246.364C380.915 246.242 380.717 246.066 380.569 245.851C378.288 242.787 375.408 240.218 372.104 238.301C371.731 238.09 371.457 237.741 371.341 237.328C371.226 236.916 371.279 236.475 371.488 236.101C371.591 235.915 371.73 235.752 371.897 235.62C372.064 235.488 372.255 235.391 372.46 235.334C372.664 235.277 372.878 235.26 373.089 235.286C373.3 235.312 373.504 235.38 373.688 235.485C377.425 237.64 380.673 240.548 383.226 244.025C383.467 244.377 383.558 244.811 383.48 245.231C383.402 245.65 383.16 246.022 382.808 246.263C382.539 246.449 382.221 246.548 381.895 246.549Z" fill="#1D2332"/>
<path fill-rule="evenodd" clip-rule="evenodd" d="M266.839 151.378H369.029C370.05 151.378 371.029 151.784 371.751 152.506C372.473 153.228 372.879 154.207 372.879 155.228C372.879 156.249 372.473 157.228 371.751 157.95C371.029 158.671 370.05 159.077 369.029 159.077H266.839C265.817 159.077 264.838 158.671 264.116 157.95C263.394 157.228 262.988 156.249 262.988 155.228C262.988 154.207 263.394 153.228 264.116 152.506C264.838 151.784 265.817 151.378 266.839 151.378Z" fill="white"/>
<path d="M369.038 160.688H266.837C265.389 160.687 264 160.111 262.976 159.088C261.952 158.064 261.376 156.676 261.375 155.228C261.376 153.78 261.952 152.392 262.976 151.369C264 150.345 265.389 149.769 266.837 149.768H369.027C370.474 149.77 371.861 150.347 372.884 151.37C373.907 152.394 374.482 153.781 374.484 155.228C374.484 156.673 373.91 158.06 372.89 159.083C371.869 160.107 370.484 160.684 369.038 160.688ZM266.848 152.99C266.255 152.991 265.686 153.228 265.266 153.647C264.847 154.066 264.611 154.635 264.609 155.228C264.609 155.822 264.845 156.391 265.265 156.811C265.685 157.23 266.254 157.466 266.848 157.466H369.038C369.631 157.465 370.199 157.228 370.618 156.809C371.036 156.389 371.271 155.821 371.271 155.228C371.271 154.635 371.036 154.067 370.618 153.647C370.199 153.228 369.631 152.991 369.038 152.99H266.848Z" fill="#1D2332"/>
<path fill-rule="evenodd" clip-rule="evenodd" d="M284.566 98.8359H360.13C362.479 98.8359 364.732 99.7685 366.394 101.429C368.055 103.089 368.989 105.341 368.991 107.689V137.384C368.991 142.272 275.711 142.272 275.711 137.384V107.689C275.711 105.341 276.644 103.089 278.305 101.429C279.965 99.7687 282.218 98.8359 284.566 98.8359Z" fill="#42C66E"/>
<path d="M322.352 142.652C310.097 142.652 298.668 142.327 290.175 141.733C285.566 141.409 281.952 141.018 279.433 140.568C276.732 140.078 274.098 139.435 274.098 137.378V107.684C274.106 104.916 275.21 102.263 277.168 100.306C279.126 98.3481 281.779 97.2445 284.548 97.2358H360.112C362.881 97.2445 365.534 98.3481 367.492 100.306C369.45 102.263 370.554 104.916 370.562 107.684V137.378C370.562 139.435 367.928 140.078 365.227 140.568C362.708 141.018 359.094 141.409 354.49 141.733C346.042 142.327 334.607 142.652 322.352 142.652ZM277.321 136.746C280.357 138.082 296.61 139.435 322.352 139.435C348.093 139.435 364.341 138.082 367.378 136.746V107.689C367.375 105.769 366.61 103.927 365.251 102.57C363.892 101.212 362.049 100.449 360.128 100.447H284.565C282.644 100.45 280.804 101.214 279.446 102.572C278.088 103.929 277.324 105.77 277.321 107.689V136.746Z" fill="#1D2332"/>
<path fill-rule="evenodd" clip-rule="evenodd" d="M338.23 114.013C338.23 111.272 339.32 108.642 341.259 106.703C343.198 104.764 345.829 103.675 348.571 103.675C351.314 103.675 353.944 104.764 355.883 106.703C357.822 108.642 358.912 111.272 358.912 114.013C358.912 116.756 357.822 119.386 355.883 121.325C353.944 123.265 351.314 124.355 348.571 124.357C345.828 124.355 343.198 123.265 341.259 121.325C339.32 119.386 338.23 116.756 338.23 114.013Z" fill="#1D2332"/>
<path fill-rule="evenodd" clip-rule="evenodd" d="M335.707 111.588C335.707 108.846 336.796 106.217 338.736 104.278C340.675 102.339 343.305 101.25 346.048 101.25C347.406 101.249 348.751 101.516 350.006 102.035C351.262 102.555 352.402 103.316 353.363 104.276C354.324 105.236 355.086 106.376 355.606 107.631C356.126 108.885 356.394 110.23 356.394 111.588C356.396 112.948 356.13 114.295 355.61 115.552C355.091 116.809 354.329 117.951 353.367 118.913C352.405 119.875 351.263 120.637 350.006 121.157C348.75 121.677 347.402 121.944 346.042 121.943C344.683 121.941 343.338 121.672 342.084 121.151C340.829 120.63 339.689 119.867 338.73 118.905C337.77 117.944 337.009 116.803 336.49 115.547C335.972 114.292 335.706 112.946 335.707 111.588Z" fill="white"/>
<path d="M346.044 123.554C342.874 123.548 339.835 122.285 337.595 120.041C335.356 117.798 334.098 114.758 334.098 111.588C334.105 108.423 335.366 105.39 337.605 103.153C339.844 100.915 342.879 99.6557 346.044 99.6499C349.213 99.6513 352.252 100.909 354.494 103.147C356.737 105.385 358 108.42 358.008 111.588C358.008 114.761 356.747 117.803 354.504 120.047C352.261 122.291 349.218 123.552 346.044 123.554ZM346.044 102.872C343.733 102.877 341.517 103.796 339.883 105.43C338.248 107.063 337.327 109.277 337.321 111.588C337.319 113.904 338.237 116.125 339.873 117.764C341.509 119.404 343.728 120.327 346.044 120.331C347.193 120.331 348.329 120.105 349.39 119.666C350.451 119.226 351.415 118.582 352.226 117.77C353.038 116.958 353.682 115.994 354.121 114.934C354.56 113.873 354.785 112.736 354.784 111.588C354.779 109.275 353.855 107.058 352.217 105.424C350.578 103.79 348.359 102.872 346.044 102.872Z" fill="#1D2332"/>
<path fill-rule="evenodd" clip-rule="evenodd" d="M347.973 101.091C347.827 101.091 347.687 101.149 347.584 101.252C347.481 101.355 347.423 101.495 347.423 101.641V104.94H344.705V101.69C344.705 101.544 344.647 101.404 344.544 101.301C344.441 101.198 344.301 101.14 344.155 101.14C344.006 101.14 343.863 101.197 343.754 101.299C343.646 101.401 343.581 101.541 343.572 101.69V104.946H340.822V103.252C340.822 103.106 340.764 102.966 340.661 102.863C340.558 102.76 340.418 102.702 340.272 102.702C340.126 102.702 339.986 102.76 339.883 102.863C339.78 102.966 339.722 103.106 339.722 103.252V104.946H337.902C337.827 104.942 337.753 104.953 337.683 104.979C337.613 105.005 337.549 105.045 337.495 105.097C337.441 105.148 337.398 105.21 337.368 105.278C337.339 105.347 337.324 105.421 337.324 105.495C337.324 105.57 337.339 105.644 337.368 105.712C337.398 105.781 337.441 105.843 337.495 105.894C337.549 105.946 337.613 105.986 337.683 106.012C337.753 106.038 337.827 106.049 337.902 106.045H339.722V108.954H336.823C336.678 108.954 336.538 109.012 336.435 109.115C336.331 109.219 336.273 109.358 336.273 109.504C336.273 109.65 336.331 109.79 336.435 109.893C336.538 109.996 336.678 110.054 336.823 110.054H339.722V112.963H336.823C336.678 112.963 336.538 113.021 336.435 113.124C336.331 113.227 336.273 113.367 336.273 113.513C336.273 113.659 336.331 113.799 336.435 113.902C336.538 114.005 336.678 114.063 336.823 114.063H339.722V117.087H337.913C337.767 117.087 337.627 117.145 337.524 117.248C337.42 117.351 337.362 117.491 337.362 117.637C337.362 117.783 337.42 117.923 337.524 118.026C337.627 118.129 337.767 118.187 337.913 118.187H339.722V120.002C339.722 120.148 339.78 120.287 339.883 120.391C339.986 120.494 340.126 120.552 340.272 120.552C340.418 120.552 340.558 120.494 340.661 120.391C340.764 120.287 340.822 120.148 340.822 120.002V118.187H343.572V120.816C343.572 120.891 343.587 120.965 343.617 121.034C343.647 121.103 343.69 121.165 343.745 121.217C343.8 121.268 343.864 121.308 343.935 121.333C344.005 121.359 344.08 121.37 344.155 121.365C344.301 121.365 344.441 121.308 344.544 121.204C344.647 121.101 344.705 120.961 344.705 120.816V118.187H347.423V120.816C347.423 120.961 347.481 121.101 347.584 121.204C347.687 121.308 347.827 121.365 347.973 121.365C348.119 121.365 348.258 121.308 348.362 121.204C348.465 121.101 348.523 120.961 348.523 120.816V118.187H351.273V120.816C351.273 120.961 351.331 121.101 351.434 121.204C351.537 121.308 351.677 121.365 351.823 121.365C351.969 121.365 352.109 121.308 352.212 121.204C352.315 121.101 352.373 120.961 352.373 120.816V118.187H355.266C355.412 118.187 355.552 118.129 355.655 118.026C355.758 117.923 355.816 117.783 355.816 117.637C355.816 117.491 355.758 117.351 355.655 117.248C355.552 117.145 355.412 117.087 355.266 117.087H352.373V114.178H355.266C355.412 114.178 355.552 114.12 355.655 114.017C355.758 113.914 355.816 113.774 355.816 113.628C355.816 113.483 355.758 113.343 355.655 113.24C355.552 113.136 355.412 113.079 355.266 113.079H352.373V110.17H355.266C355.412 110.17 355.552 110.112 355.655 110.009C355.758 109.905 355.816 109.766 355.816 109.62C355.816 109.474 355.758 109.334 355.655 109.231C355.552 109.128 355.412 109.07 355.266 109.07H352.373V106.089H354.21C354.356 106.089 354.496 106.031 354.599 105.928C354.702 105.825 354.76 105.685 354.76 105.539C354.76 105.394 354.702 105.254 354.599 105.151C354.496 105.048 354.356 104.99 354.21 104.99H352.373V103.257C352.373 103.112 352.315 102.972 352.212 102.869C352.109 102.765 351.969 102.708 351.823 102.708C351.677 102.708 351.537 102.765 351.434 102.869C351.331 102.972 351.273 103.112 351.273 103.257V104.99H348.523V101.69C348.53 101.614 348.52 101.537 348.496 101.465C348.471 101.392 348.432 101.325 348.38 101.269C348.328 101.213 348.265 101.168 348.195 101.137C348.125 101.106 348.049 101.091 347.973 101.091ZM340.822 106.095H343.572V109.004H340.822V106.095ZM344.705 106.095H347.423V109.004H344.705V106.095ZM348.556 106.095H351.306V109.004H348.556V106.095ZM340.811 110.142H343.561V113.051H340.811V110.142ZM344.694 110.142H347.412V113.051H344.694V110.142ZM348.545 110.142H351.295V113.051H348.545V110.142ZM340.8 114.195H343.55V117.087H340.8V114.195ZM344.683 114.195H347.401V117.087H344.683V114.195ZM348.534 114.195H351.284V117.087H348.534V114.195Z" fill="#1D2332"/>
<path fill-rule="evenodd" clip-rule="evenodd" d="M289.891 114.013C289.891 111.272 290.98 108.642 292.919 106.703C294.859 104.764 297.489 103.675 300.231 103.675C301.59 103.675 302.935 103.941 304.191 104.461C305.446 104.98 306.587 105.741 307.549 106.701C308.51 107.661 309.273 108.801 309.793 110.055C310.314 111.31 310.582 112.655 310.583 114.013C310.583 115.372 310.315 116.718 309.795 117.973C309.274 119.228 308.512 120.369 307.551 121.329C306.589 122.29 305.448 123.052 304.192 123.571C302.936 124.091 301.59 124.358 300.231 124.357C297.488 124.355 294.858 123.265 292.919 121.325C290.98 119.386 289.891 116.756 289.891 114.013Z" fill="#1D2332"/>
<path fill-rule="evenodd" clip-rule="evenodd" d="M287.363 111.588C287.364 110.23 287.632 108.885 288.153 107.63C288.674 106.375 289.436 105.236 290.397 104.276C291.359 103.316 292.5 102.554 293.755 102.035C295.011 101.516 296.356 101.249 297.715 101.25C300.457 101.25 303.088 102.339 305.027 104.278C306.966 106.217 308.055 108.846 308.055 111.588C308.055 114.33 306.966 116.96 305.027 118.9C303.088 120.84 300.458 121.93 297.715 121.932C296.356 121.932 295.01 121.665 293.754 121.146C292.498 120.626 291.357 119.865 290.396 118.904C289.434 117.943 288.672 116.803 288.151 115.548C287.631 114.292 287.363 112.947 287.363 111.588Z" fill="white"/>
<path d="M297.717 123.554C294.544 123.551 291.502 122.289 289.259 120.046C287.016 117.802 285.755 114.76 285.754 111.588C285.76 108.419 287.022 105.382 289.265 103.142C291.508 100.902 294.547 99.6421 297.717 99.6392C300.886 99.6435 303.923 100.904 306.164 103.144C308.404 105.384 309.665 108.421 309.669 111.588C309.669 114.759 308.411 117.8 306.17 120.044C303.929 122.287 300.889 123.55 297.717 123.554ZM297.717 102.873C295.403 102.874 293.184 103.792 291.546 105.426C289.908 107.059 288.984 109.275 288.977 111.588C288.98 113.904 289.902 116.125 291.541 117.762C293.179 119.399 295.401 120.319 297.717 120.321C300.031 120.316 302.249 119.395 303.885 117.758C305.52 116.121 306.439 113.902 306.441 111.588C306.435 109.278 305.514 107.063 303.879 105.43C302.244 103.796 300.028 102.877 297.717 102.873Z" fill="#1D2332"/>
<path fill-rule="evenodd" clip-rule="evenodd" d="M299.643 101.091C299.497 101.091 299.357 101.149 299.254 101.252C299.151 101.355 299.093 101.495 299.093 101.641V104.94H296.343V101.69C296.343 101.544 296.285 101.405 296.182 101.301C296.079 101.198 295.939 101.14 295.793 101.14C295.647 101.14 295.507 101.198 295.404 101.301C295.301 101.405 295.243 101.544 295.243 101.69V104.946H292.493V103.252C292.493 103.177 292.478 103.104 292.448 103.035C292.419 102.966 292.376 102.904 292.322 102.853C292.268 102.802 292.204 102.762 292.134 102.736C292.064 102.71 291.99 102.698 291.915 102.702C291.769 102.702 291.629 102.76 291.526 102.863C291.423 102.966 291.365 103.106 291.365 103.252V104.946H289.55C289.404 104.946 289.264 105.004 289.161 105.107C289.058 105.21 289 105.35 289 105.496C289 105.641 289.058 105.781 289.161 105.884C289.264 105.987 289.404 106.045 289.55 106.045H291.365V108.954H288.472C288.326 108.954 288.186 109.012 288.083 109.115C287.98 109.219 287.922 109.358 287.922 109.504C287.922 109.65 287.98 109.79 288.083 109.893C288.186 109.996 288.326 110.054 288.472 110.054H291.365V112.963H288.472C288.326 112.963 288.186 113.021 288.083 113.124C287.98 113.227 287.922 113.367 287.922 113.513C287.922 113.659 287.98 113.799 288.083 113.902C288.186 114.005 288.326 114.063 288.472 114.063H291.365V117.087H289.566C289.421 117.087 289.281 117.145 289.178 117.248C289.074 117.351 289.016 117.491 289.016 117.637C289.016 117.783 289.074 117.923 289.178 118.026C289.281 118.129 289.421 118.187 289.566 118.187H291.365V120.002C291.365 120.148 291.423 120.287 291.526 120.391C291.629 120.494 291.769 120.552 291.915 120.552C291.99 120.555 292.064 120.544 292.134 120.518C292.204 120.492 292.268 120.452 292.322 120.401C292.376 120.349 292.419 120.287 292.448 120.219C292.478 120.15 292.493 120.076 292.493 120.002V118.187H295.243V120.816C295.243 120.961 295.301 121.101 295.404 121.204C295.507 121.308 295.647 121.365 295.793 121.365C295.939 121.365 296.079 121.308 296.182 121.204C296.285 121.101 296.343 120.961 296.343 120.816V118.187H299.093V120.816C299.093 120.961 299.151 121.101 299.254 121.204C299.357 121.308 299.497 121.365 299.643 121.365C299.789 121.365 299.929 121.308 300.032 121.204C300.135 121.101 300.193 120.961 300.193 120.816V118.187H302.943V120.816C302.943 120.961 303.001 121.101 303.104 121.204C303.208 121.308 303.347 121.365 303.493 121.365C303.568 121.369 303.642 121.358 303.712 121.332C303.782 121.306 303.846 121.266 303.9 121.214C303.954 121.163 303.997 121.101 304.026 121.033C304.056 120.964 304.071 120.89 304.071 120.816V118.187H306.991C307.137 118.187 307.277 118.129 307.38 118.026C307.484 117.923 307.542 117.783 307.542 117.637C307.542 117.491 307.484 117.351 307.38 117.248C307.277 117.145 307.137 117.087 306.991 117.087H304.104V114.178H306.991C307.137 114.178 307.277 114.12 307.38 114.017C307.484 113.914 307.542 113.774 307.542 113.628C307.542 113.483 307.484 113.343 307.38 113.24C307.277 113.137 307.137 113.079 306.991 113.079H304.104V110.17H306.991C307.137 110.17 307.277 110.112 307.38 110.009C307.484 109.905 307.542 109.766 307.542 109.62C307.542 109.474 307.484 109.334 307.38 109.231C307.277 109.128 307.137 109.07 306.991 109.07H304.104V106.089H305.941C306.085 106.083 306.221 106.023 306.322 105.921C306.424 105.819 306.484 105.683 306.491 105.54C306.484 105.396 306.424 105.26 306.322 105.158C306.221 105.056 306.085 104.996 305.941 104.99H304.104V103.257C304.104 103.183 304.089 103.109 304.059 103.04C304.03 102.972 303.987 102.91 303.933 102.859C303.879 102.807 303.815 102.767 303.745 102.741C303.675 102.715 303.601 102.704 303.526 102.708C303.38 102.708 303.241 102.765 303.137 102.869C303.034 102.972 302.976 103.112 302.976 103.257V104.99H300.226V101.69C300.229 101.612 300.216 101.534 300.188 101.461C300.16 101.388 300.118 101.322 300.063 101.266C300.008 101.21 299.943 101.165 299.871 101.135C299.799 101.105 299.721 101.09 299.643 101.091ZM292.493 106.095H295.243V109.004H292.493V106.095ZM296.343 106.095H299.093V109.004H296.343V106.095ZM300.193 106.095H302.943V109.004H300.193V106.095ZM292.454 110.142H295.204V113.051H292.454V110.142ZM296.304 110.142H299.055V113.051H296.304V110.142ZM300.155 110.142H302.905V113.051H300.155V110.142ZM292.416 114.195H295.166V117.087H292.416V114.195ZM296.266 114.195H299.016V117.087H296.266V114.195ZM300.116 114.195H302.866V117.087H300.116V114.195Z" fill="#1D2332"/>
<path fill-rule="evenodd" clip-rule="evenodd" d="M337.791 169.657H348.142C349.706 169.659 351.205 170.28 352.31 171.385C353.416 172.491 354.037 173.989 354.039 175.552C354.039 177.116 353.418 178.616 352.312 179.722C351.207 180.829 349.707 181.451 348.142 181.452H337.791C337.016 181.452 336.249 181.3 335.533 181.003C334.817 180.707 334.167 180.272 333.62 179.724C333.072 179.176 332.638 178.525 332.342 177.81C332.046 177.094 331.894 176.327 331.895 175.552C331.894 174.778 332.046 174.011 332.342 173.295C332.638 172.58 333.072 171.93 333.62 171.382C334.168 170.835 334.818 170.4 335.534 170.104C336.249 169.808 337.016 169.657 337.791 169.657Z" fill="#1D2332"/>
<path d="M348.145 183.075H337.793C335.802 183.07 333.894 182.277 332.487 180.869C331.08 179.461 330.288 177.553 330.285 175.563C330.285 173.571 331.076 171.661 332.484 170.251C333.891 168.842 335.801 168.049 337.793 168.046H348.145C350.135 168.047 352.044 168.839 353.452 170.246C354.86 171.653 355.651 173.562 355.653 175.552C355.654 177.545 354.864 179.456 353.456 180.867C352.048 182.278 350.138 183.072 348.145 183.075ZM337.793 171.268C336.657 171.27 335.568 171.722 334.765 172.525C333.962 173.328 333.51 174.416 333.508 175.552C333.51 176.688 333.962 177.777 334.765 178.581C335.568 179.385 336.657 179.838 337.793 179.841H348.145C349.282 179.84 350.371 179.387 351.175 178.583C351.978 177.779 352.429 176.689 352.429 175.552C352.429 174.989 352.319 174.432 352.103 173.913C351.888 173.393 351.572 172.921 351.174 172.523C350.777 172.125 350.304 171.81 349.784 171.594C349.265 171.379 348.707 171.268 348.145 171.268H337.793Z" fill="white"/>
<path fill-rule="evenodd" clip-rule="evenodd" d="M337.791 179.874H348.142C349.706 179.877 351.205 180.5 352.311 181.606C353.416 182.712 354.037 184.211 354.039 185.774C354.039 187.338 353.418 188.838 352.312 189.945C351.207 191.051 349.707 191.673 348.142 191.675H337.791C337.016 191.675 336.249 191.522 335.533 191.226C334.817 190.929 334.167 190.494 333.62 189.946C333.072 189.398 332.638 188.748 332.342 188.032C332.046 187.316 331.894 186.549 331.895 185.774C331.894 185 332.046 184.233 332.342 183.517C332.638 182.801 333.072 182.151 333.62 181.603C334.167 181.055 334.817 180.62 335.533 180.323C336.249 180.027 337.016 179.874 337.791 179.874Z" fill="#1D2332"/>
<path d="M348.145 193.286H337.793C335.802 193.282 333.894 192.489 332.487 191.081C331.08 189.673 330.288 187.765 330.285 185.775C330.288 183.784 331.08 181.876 332.487 180.468C333.894 179.061 335.802 178.268 337.793 178.263H348.145C350.136 178.266 352.045 179.059 353.452 180.467C354.86 181.875 355.651 183.784 355.653 185.775C355.651 187.766 354.86 189.674 353.452 191.083C352.045 192.491 350.136 193.283 348.145 193.286ZM337.793 181.486C336.657 181.488 335.568 181.941 334.765 182.745C333.962 183.549 333.51 184.639 333.508 185.775C333.51 186.911 333.962 188 334.765 188.804C335.568 189.608 336.657 190.061 337.793 190.064H348.145C349.282 190.062 350.371 189.61 351.175 188.806C351.978 188.001 352.429 186.911 352.429 185.775C352.429 184.638 351.978 183.548 351.175 182.744C350.371 181.94 349.282 181.487 348.145 181.486H337.793Z" fill="white"/>
<path fill-rule="evenodd" clip-rule="evenodd" d="M238.267 175.206H396.391C397.005 175.205 397.613 175.325 398.18 175.559C398.748 175.793 399.263 176.137 399.698 176.571C400.133 177.004 400.478 177.519 400.713 178.086C400.949 178.653 401.071 179.26 401.071 179.874C401.071 180.488 400.95 181.097 400.715 181.664C400.48 182.232 400.135 182.747 399.7 183.181C399.265 183.615 398.749 183.959 398.181 184.194C397.614 184.429 397.005 184.549 396.391 184.548H238.267C237.654 184.549 237.046 184.429 236.478 184.194C235.911 183.959 235.396 183.615 234.962 183.181C234.528 182.746 234.184 182.231 233.95 181.663C233.716 181.096 233.596 180.488 233.598 179.874C233.597 179.261 233.717 178.653 233.952 178.087C234.186 177.52 234.53 177.005 234.964 176.571C235.398 176.138 235.913 175.794 236.48 175.559C237.046 175.325 237.654 175.205 238.267 175.206Z" fill="white"/>
<path d="M396.393 186.159H238.27C236.604 186.156 235.007 185.493 233.829 184.315C232.652 183.137 231.99 181.54 231.988 179.874C231.99 178.209 232.652 176.613 233.83 175.435C235.007 174.258 236.604 173.596 238.27 173.594H396.393C397.219 173.593 398.038 173.754 398.802 174.069C399.566 174.384 400.26 174.846 400.845 175.429C401.431 176.012 401.895 176.705 402.213 177.467C402.53 178.23 402.695 179.048 402.696 179.874C402.693 181.543 402.028 183.142 400.846 184.321C399.664 185.5 398.062 186.161 396.393 186.159ZM238.27 176.811C237.459 176.811 236.681 177.133 236.107 177.707C235.534 178.28 235.211 179.058 235.211 179.869C235.211 180.68 235.533 181.458 236.107 182.032C236.68 182.607 237.458 182.93 238.27 182.931H396.393C397.206 182.931 397.986 182.609 398.561 182.035C399.136 181.46 399.46 180.681 399.462 179.869C399.461 179.466 399.381 179.068 399.227 178.697C399.072 178.326 398.846 177.988 398.561 177.704C398.276 177.42 397.938 177.195 397.566 177.042C397.194 176.889 396.795 176.81 396.393 176.811H238.27Z" fill="#1D2332"/>
<path fill-rule="evenodd" clip-rule="evenodd" d="M432.822 292.845C432.384 292.845 431.965 293.019 431.655 293.328C431.346 293.637 431.172 294.057 431.172 294.494C431.172 294.932 431.346 295.352 431.655 295.661C431.965 295.97 432.384 296.144 432.822 296.144H524.963C525.401 296.144 525.821 295.97 526.13 295.661C526.44 295.352 526.613 294.932 526.613 294.494C526.613 294.057 526.44 293.637 526.13 293.328C525.821 293.019 525.401 292.845 524.963 292.845H432.822Z" fill="#1D2332"/>
<path fill-rule="evenodd" clip-rule="evenodd" d="M302.896 292.845C302.459 292.845 302.039 293.019 301.729 293.328C301.42 293.637 301.246 294.057 301.246 294.494C301.246 294.932 301.42 295.352 301.729 295.661C302.039 295.97 302.459 296.144 302.896 296.144H368.548C368.986 296.144 369.405 295.97 369.715 295.661C370.024 295.352 370.198 294.932 370.198 294.494C370.198 294.057 370.024 293.637 369.715 293.328C369.405 293.019 368.986 292.845 368.548 292.845H302.896Z" fill="#1D2332"/>
</svg>
