<svg width="158" height="138" viewBox="0 0 158 138" fill="none" xmlns="http://www.w3.org/2000/svg">
<path d="M158 68.6017L118.5 137.203H39.5L0 68.6017L39.5 0H118.5L158 68.6017Z" fill="#42C66E"/>
<path fill-rule="evenodd" clip-rule="evenodd" d="M55.7346 48.3066C54.4852 47.8405 53.2359 48.7726 53.2359 50.1709V79.6892C53.2359 87.4572 57.6087 94.4483 66.0419 99.7306C72.1326 103.615 78.3794 105.323 78.5356 105.323C78.8479 105.479 79.1603 105.479 79.6288 105.323C79.9411 105.323 85.8756 103.615 92.1224 99.7306C100.4 94.4483 104.928 87.3018 104.928 79.6892V50.1709C104.772 48.928 103.367 47.9958 102.117 48.3066C102.117 48.3066 99.4625 49.2387 95.8706 49.2387C89.7799 49.2387 85.2509 46.4422 82.7522 41.0047C82.33 40.1647 81.8612 39.4637 81.4358 38.9108C81.2356 38.6504 81.045 38.4229 80.8733 38.2291C80.535 37.8472 80.2704 37.5962 80.1515 37.4834C80.1271 37.4602 80.1088 37.4428 80.0973 37.4314C79.1603 36.8099 77.9109 36.9653 77.2862 37.8975L75.256 40.6939C70.2585 47.5298 64.1678 48.928 59.9512 48.928C57.4525 48.928 55.7346 48.3066 55.7346 48.3066ZM78.9421 39.4875L78.9106 39.5308L78.9551 39.5013C78.9508 39.4966 78.9464 39.492 78.9421 39.4875ZM55.7346 48.3066C55.4368 49.1266 55.2535 49.6317 55.1406 49.9429L55.7346 48.3066ZM79.3164 42.5583C79.3164 42.4806 79.2774 42.4029 79.2383 42.3252C79.1993 42.2475 79.1603 42.1699 79.1603 42.0922C79.1071 42.1274 78.9855 42.2928 78.793 42.5583C78.78 42.5761 78.7668 42.5945 78.7531 42.6133C78.6853 42.7068 78.6095 42.8114 78.5256 42.9259C78.2781 43.2638 77.96 43.6879 77.569 44.1692C75.0346 47.2892 69.4353 52.812 60.1074 52.812C59.8759 52.812 59.6443 52.812 59.4157 52.8105C58.5651 52.805 57.7556 52.7791 57.1402 52.6566V79.8445C57.1402 94.1376 75.7245 100.507 79.0041 101.595C82.2837 100.663 100.868 94.1376 100.868 79.8445L101.024 52.812C100.664 52.8518 100.282 52.9019 99.8833 52.9544C99.5188 53.0023 99.1393 53.0521 98.7469 53.098C97.8944 53.1975 96.9808 53.2781 96.0267 53.2781C91.1113 53.2781 84.4559 51.5472 80.2732 44.388C79.9376 43.8137 79.618 43.2044 79.3164 42.5583Z" fill="#1D2332"/>
<path fill-rule="evenodd" clip-rule="evenodd" d="M86.5029 69.4344L78.6944 81.2417C78.0697 82.3292 76.6642 82.4846 75.7271 81.5524L71.8229 77.6684C71.042 76.8916 71.042 75.6487 71.8229 74.872C72.6037 74.0952 73.8531 74.0952 74.634 74.872L76.8203 77.047L83.2234 67.2593C83.6919 66.4825 84.9412 66.1718 85.8783 66.7933C86.8153 67.2593 87.1276 68.5022 86.5029 69.4344Z" fill="#1D2332"/>
<path fill-rule="evenodd" clip-rule="evenodd" d="M110.327 76.6776V76.884L110.353 76.6776H110.327ZM93.6835 104.08C102.702 98.0986 107.653 90.6811 108.416 82.4259C108.485 81.6756 108.52 80.9184 108.52 80.1547H108.051V41.4702C107.37 41.6395 106.607 41.8089 105.776 41.9559C104.32 42.2134 102.657 42.4023 100.867 42.4023C94.1739 42.4023 85.1096 40.0438 79.881 28.8651C79.7419 28.5677 79.6055 28.264 79.4719 27.9539C79.3157 27.7208 79.1986 27.4878 79.0815 27.2548C78.9643 27.0217 78.8472 26.7887 78.691 26.5556L77.4417 28.42C77.3812 28.5084 77.3205 28.5963 77.2598 28.6836C69.6388 39.6425 60.211 41.9362 53.7037 41.9362C52.9146 41.9362 52.1584 41.8707 51.4503 41.7847C50.9985 41.7299 50.5663 41.6667 50.1576 41.607C49.8124 41.5566 49.484 41.5086 49.1747 41.4702V79.9993C49.1747 89.3209 54.1722 97.5549 64.1671 104.08C70.5702 108.43 76.9732 110.605 78.8472 111.227C80.8774 110.605 87.4366 108.275 93.6835 104.08ZM110.565 39.4033L110.566 39.4029L110.327 38.7647C110.388 38.9277 110.433 39.0494 110.467 39.1398C110.566 39.4031 110.565 39.4033 110.565 39.4033ZM110.258 38.5807L109.769 37.2754C111.018 36.8094 112.424 37.7415 112.424 39.1398V54.8311H124.293C125.23 54.8311 126.167 55.6079 126.323 56.54C126.323 57.6275 125.386 58.5597 124.293 58.5597H112.424V64.4634H120.233C121.326 64.4634 122.263 65.3955 122.263 66.483C122.263 67.5706 121.326 68.5027 120.233 68.5027H112.424V74.4064H118.358C119.452 74.4064 120.389 75.3385 120.389 76.426C120.389 77.5136 119.452 78.4457 118.358 78.4457H112.424C112.414 78.5255 112.416 78.6629 112.424 78.8536C112.428 78.9439 112.433 79.0462 112.438 79.1599C112.457 79.55 112.483 80.0751 112.486 80.717C112.515 85.6506 111.26 97.4776 95.8699 107.809C88.6131 112.44 81.7165 114.802 79.916 115.419C79.6628 115.505 79.5104 115.557 79.4719 115.577C79.1596 115.732 78.691 115.732 78.3787 115.577C78.3481 115.566 78.2855 115.548 78.1931 115.52C76.8699 115.123 69.4254 112.891 61.9808 107.809C45.1381 96.4097 45.381 83.0682 45.4482 79.375C45.4571 78.8904 45.4629 78.5719 45.4266 78.4457H39.4921C38.3989 78.4457 37.4619 77.5136 37.4619 76.426C37.4619 75.3385 38.3989 74.4064 39.4921 74.4064H45.5828V68.5027H37.7743C36.6811 68.5027 35.744 67.5706 35.744 66.483C35.744 65.3955 36.6811 64.4634 37.7743 64.4634H45.5828V59.0258H33.7138C32.6206 59.0258 31.6836 58.0936 31.6836 57.0061C31.6836 55.9186 32.6206 54.9864 33.7138 54.9864H45.739V39.2951C45.739 37.8969 47.1445 36.9647 48.3939 37.4308L47.8654 39.0185C47.9711 38.7006 48.1363 38.2046 48.3939 37.4308C48.3939 37.4308 50.7364 38.2076 54.1722 38.2076C59.7944 38.2076 68.0714 36.0326 74.7868 26.2449L77.4417 22.3609C78.0664 21.4288 79.3157 21.1181 80.2528 21.8949C80.265 21.907 80.2877 21.9277 80.3198 21.957C80.6984 22.3019 82.3807 23.8348 83.5323 26.5556C86.9681 34.6343 93.0588 38.6737 101.336 38.6737C106.021 38.6737 109.769 37.2754 109.769 37.2754C109.985 37.8532 110.143 38.2741 110.258 38.5807Z" fill="#1D2332"/>
</svg>
