<svg width="442" height="359" viewBox="0 0 442 359" fill="none" xmlns="http://www.w3.org/2000/svg">
<path d="M23.4594 20.7264H20.8506V3.36139H11.3936V20.7264H8.70312V1.32324H23.3779V20.7264H23.4594Z" fill="#B3B3B3"/>
<path d="M39.2754 20.7261H36.6665V14.6116H30.226V20.7261H27.6172V6.2959H30.226V12.5735H36.6665V6.2959H39.2754V20.7261Z" fill="#B3B3B3"/>
<path d="M73.5 20.7264V1.32324H79.859C81.8972 1.32324 83.4462 1.73087 84.5875 2.62766C85.7289 3.52444 86.2996 4.82886 86.2996 6.5409C86.2996 7.35616 86.055 8.08989 85.5658 8.82363C85.0767 9.55736 84.3429 9.96499 83.5277 10.2911C84.8321 10.4541 85.8104 11.0248 86.5441 11.9216C87.2779 12.8184 87.6855 13.9598 87.6855 15.1826C87.6855 16.9762 87.1148 18.2806 85.9735 19.2589C84.8321 20.2373 83.2831 20.6449 81.245 20.6449H73.5V20.7264ZM76.1904 9.55736H80.4297C81.408 9.55736 82.2233 9.31278 82.794 8.7421C83.4462 8.17142 83.6907 7.43769 83.6907 6.45937C83.6907 5.39954 83.3646 4.6658 82.7124 4.09512C82.0602 3.60597 81.0819 3.27986 79.859 3.27986H76.1904V9.55736ZM76.1904 11.5955V18.6067H81.245C82.4678 18.6067 83.3646 18.2806 84.0168 17.71C84.6691 17.1393 84.9952 16.2425 84.9952 15.1826C84.9952 14.1228 84.6691 13.226 84.0168 12.5738C83.3646 11.9216 82.4678 11.5955 81.245 11.514H81.0819H76.1904V11.5955Z" fill="#B3B3B3"/>
<path d="M101.628 8.33405H96.8998V20.7261H94.291V8.33405H89.5625V6.2959H101.628V8.33405Z" fill="#B3B3B3"/>
<path d="M151.012 14.5304C151.093 16.4055 150.441 17.9545 149.137 19.1773C147.832 20.4002 146.12 21.0524 143.919 21.0524C141.718 21.0524 139.924 20.2372 138.538 18.6882C137.152 17.1392 136.5 15.1826 136.5 12.7368V9.31271C136.5 6.94846 137.152 4.91031 138.538 3.36132C139.924 1.81233 141.718 0.99707 143.919 0.99707C146.12 0.99707 147.832 1.56775 149.137 2.70911C150.441 3.85048 151.093 5.39947 151.012 7.35609V7.43762H148.484C148.484 6.05168 148.077 4.99184 147.261 4.17658C146.446 3.36132 145.305 2.95369 143.837 2.95369C142.37 2.95369 141.229 3.52437 140.332 4.74726C139.435 5.88862 139.027 7.35609 139.027 9.14966V12.6553C139.027 14.4488 139.435 15.9163 140.332 17.0577C141.229 18.199 142.37 18.8512 143.837 18.8512C145.305 18.8512 146.446 18.4436 147.261 17.7099C148.077 16.8946 148.484 15.8348 148.484 14.4488H151.012V14.5304Z" fill="#B3B3B3"/>
<path d="M166.419 14.0413C166.419 16.161 165.93 17.7915 164.952 19.0959C163.973 20.4003 162.587 20.971 160.794 20.971C159.897 20.971 159.163 20.8079 158.429 20.5634C157.777 20.2373 157.207 19.8296 156.717 19.259V26.2702H154.109V6.29634H156.147L156.554 8.17143C157.044 7.4377 157.614 6.94854 158.348 6.62244C159.082 6.29634 159.897 6.05176 160.794 6.05176C162.587 6.05176 163.973 6.78549 164.952 8.17143C165.93 9.55737 166.419 11.4325 166.419 13.7967V14.0413ZM163.81 13.7967C163.81 12.1662 163.484 10.7803 162.832 9.80195C162.18 8.82364 161.201 8.25296 159.978 8.25296C159.245 8.25296 158.593 8.41601 158.022 8.74211C157.451 9.06822 157.044 9.55737 156.717 10.1281V17.1393C157.044 17.71 157.451 18.1991 158.022 18.5252C158.593 18.8513 159.245 19.0144 159.978 19.0144C161.201 19.0144 162.18 18.5252 162.832 17.6284C163.484 16.7317 163.81 15.5088 163.81 14.1228V13.7967Z" fill="#B3B3B3"/>
<path d="M215.93 1.32324V20.7264H213.321V12.6553C212.506 12.8999 211.691 13.063 210.875 13.226C210.06 13.3076 209.163 13.3891 208.022 13.3891C205.902 13.3891 204.272 12.8999 203.131 12.0031C201.989 11.1064 201.5 9.55736 201.5 7.43769V1.32324H204.109V7.43769C204.109 8.90515 204.435 9.88346 205.006 10.4541C205.658 11.0248 206.636 11.2694 207.941 11.2694C208.837 11.2694 209.734 11.1879 210.631 11.1064C211.446 10.9433 212.343 10.7802 213.24 10.5357V1.32324H215.93Z" fill="#B3B3B3"/>
<path d="M231.174 8.33405H226.446V20.7261H223.837V8.33405H219.109V6.2959H231.174V8.33405Z" fill="#B3B3B3"/>
<path d="M280.175 20.7264H277.566V3.36139H268.109V20.7264H265.5V1.32324H280.175V20.7264Z" fill="#B3B3B3"/>
<path d="M295.421 8.33453H290.692V20.7265H288.084V8.33453H283.355V6.29639H295.421V8.33453Z" fill="#B3B3B3"/>
<path d="M345.012 14.5299C345.093 16.405 344.441 17.954 343.137 19.1769C341.832 20.3998 340.12 21.052 337.919 21.052C335.718 21.052 333.924 20.2368 332.538 18.6878C331.152 17.1388 330.5 15.1822 330.5 12.7364V9.31223C330.5 6.94798 331.152 4.90983 332.538 3.36084C333.924 1.81185 335.718 0.996582 337.919 0.996582C340.12 0.996582 341.832 1.56727 343.137 2.70863C344.441 3.84999 345.093 5.39899 345.012 7.35561V7.43713H342.484C342.484 6.05119 342.077 4.99136 341.261 4.1761C340.446 3.36084 339.305 2.95321 337.837 2.95321C336.37 2.95321 335.229 3.52389 334.332 4.74678C333.435 5.88814 333.027 7.35561 333.027 9.14918V12.6549C333.027 14.4484 333.435 15.9159 334.332 17.0572C335.229 18.1986 336.37 18.8508 337.837 18.8508C339.305 18.8508 340.446 18.4432 341.261 17.7095C342.077 16.8942 342.484 15.8344 342.484 14.4484H345.012V14.5299Z" fill="#B3B3B3"/>
<path d="M354.387 6.05149C356.262 6.05149 357.648 6.7037 358.708 8.08964C359.768 9.47558 360.338 11.1876 360.338 13.3888V13.7149C360.338 15.8346 359.768 17.6282 358.626 19.0141C357.485 20.4 355.936 21.0523 353.898 21.0523C351.86 21.0523 350.311 20.4 349.169 19.0141C348.028 17.6282 347.457 15.9161 347.457 13.7149V13.3888C347.457 13.3073 347.457 13.2258 347.457 13.2258C347.457 13.1442 347.457 13.1442 347.457 13.0627V9.96473C347.457 7.19285 348.028 5.23623 349.088 3.93182C350.148 2.6274 351.778 1.97519 353.898 1.81214C355.121 1.73062 356.099 1.56756 356.751 1.32299C357.403 1.07841 357.73 0.670779 357.73 0.100098H359.768V0.181624C359.849 1.56756 359.36 2.54587 358.382 3.11656C357.403 3.68724 356.017 4.01334 354.142 4.01334C352.756 4.01334 351.697 4.42097 350.881 5.1547C350.066 5.88844 349.658 6.94827 349.658 8.33421V8.41574C350.148 7.76353 350.881 7.19285 351.697 6.78522C352.512 6.37759 353.49 6.05149 354.387 6.05149ZM353.898 8.08964C352.675 8.08964 351.697 8.57879 351.044 9.5571C350.392 10.5354 350.066 11.8398 350.066 13.3073V13.6334C350.066 15.1824 350.392 16.4053 351.044 17.3836C351.697 18.3619 352.675 18.8511 353.898 18.8511C355.121 18.8511 356.099 18.3619 356.751 17.3836C357.403 16.4053 357.73 15.1009 357.73 13.6334V13.3073C357.73 11.7583 357.403 10.5354 356.751 9.5571C356.099 8.57879 355.121 8.08964 353.898 8.08964Z" fill="#B3B3B3"/>
<path d="M394.5 20.7264V1.32324H400.859C402.897 1.32324 404.446 1.73087 405.588 2.62766C406.729 3.52444 407.3 4.82886 407.3 6.5409C407.3 7.35616 407.055 8.08989 406.566 8.82363C406.077 9.55736 405.343 9.96499 404.528 10.3726C405.832 10.5357 406.81 11.1064 407.544 12.0031C408.278 12.8999 408.686 14.0413 408.686 15.2642C408.686 17.0577 408.115 18.3622 406.973 19.3405C405.832 20.3188 404.283 20.7264 402.245 20.7264H394.5ZM397.19 9.55736H401.43C402.408 9.55736 403.223 9.31278 403.794 8.7421C404.446 8.17142 404.691 7.43769 404.691 6.45937C404.691 5.39954 404.365 4.6658 403.712 4.09512C403.06 3.60597 402.082 3.27986 400.859 3.27986H397.19V9.55736ZM397.19 11.5955V18.6067H402.245C403.468 18.6067 404.365 18.2806 405.017 17.71C405.669 17.1393 405.995 16.2425 405.995 15.1826C405.995 14.1228 405.669 13.226 405.017 12.5738C404.365 11.9216 403.468 11.5955 402.245 11.514H402.082H397.19V11.5955Z" fill="#B3B3B3"/>
<path d="M417.249 18.9324C418.065 18.9324 418.798 18.6878 419.369 18.1171C419.94 17.5465 420.266 16.8943 420.266 16.1605H422.63V16.242C422.63 17.4649 422.141 18.6063 421 19.5846C419.858 20.5629 418.635 21.0521 417.168 21.0521C415.13 21.0521 413.581 20.3999 412.439 19.0139C411.298 17.628 410.809 15.9159 410.809 13.8778V13.3071C410.809 11.269 411.38 9.5569 412.439 8.17096C413.581 6.78502 415.13 6.13281 417.086 6.13281C418.717 6.13281 420.021 6.62197 421 7.60028C421.978 8.57859 422.549 9.80148 422.467 11.269V11.3505H420.103C420.103 10.4537 419.777 9.71995 419.206 9.06775C418.635 8.41554 417.902 8.17096 417.005 8.17096C415.7 8.17096 414.804 8.66012 414.151 9.63843C413.581 10.6168 413.255 11.8396 413.255 13.3071V13.8778C413.255 15.3453 413.581 16.5682 414.151 17.5465C415.048 18.4432 415.945 18.9324 417.249 18.9324Z" fill="#B3B3B3"/>
<path d="M282.085 62.9781C287.265 63.4591 289.892 66.3821 289.892 70.3781C289.892 74.7441 286.673 78.2961 280.087 78.2961C276.387 78.2961 272.761 77.1121 270.578 75.1511L272.28 72.2281C274.019 73.8561 276.905 75.0031 280.087 75.0031C283.972 75.0031 286.192 73.2271 286.192 70.4151C286.192 67.6771 284.231 65.9011 279.791 65.9011H277.719V63.3111L284.231 55.3191H271.762V52.1001H288.856V54.6161L282.085 62.9781Z" fill="#292C33"/>
<path d="M263.121 105.1H272.63V131H268.967V108.319H263.121V105.1ZM288.877 131.296C282.809 131.296 278.295 126.486 278.295 118.05C278.295 109.614 282.809 104.804 288.877 104.804C294.908 104.804 299.422 109.614 299.422 118.05C299.422 126.486 294.908 131.296 288.877 131.296ZM288.877 128.003C292.91 128.003 295.722 124.673 295.722 118.05C295.722 111.427 292.91 108.097 288.877 108.097C284.807 108.097 281.995 111.427 281.995 118.05C281.995 124.673 284.807 128.003 288.877 128.003Z" fill="#292C33"/>
<path d="M264.402 164.1H273.911V190H270.248V167.319H264.402V164.1ZM278.911 164.1H298.447V166.616L287.976 190H284.054L294.303 167.319H282.463V171.944H278.911V164.1Z" fill="#292C33"/>
<path d="M266.05 245.781H279.333V249H260.722V246.484L271.267 236.309C274.005 233.645 274.523 232.017 274.523 230.389C274.523 227.725 272.636 226.097 269.01 226.097C266.235 226.097 263.978 226.985 262.387 228.909L259.871 226.726C261.869 224.247 265.31 222.804 269.343 222.804C274.745 222.804 278.223 225.579 278.223 230.019C278.223 232.535 277.483 234.792 273.968 238.159L266.05 245.781ZM304.222 239.454V242.636H299.301V249H295.712V242.636H281.319V240.046L294.565 223.1H298.561L285.87 239.454H295.823V233.83H299.301V239.454H304.222Z" fill="#292C33"/>
<path d="M359.493 68.4541V71.6361H354.572V78.0001H350.983V71.6361H336.59V69.0461L349.836 52.1001H353.832L341.141 68.4541H351.094V62.8301H354.572V68.4541H359.493Z" fill="#292C33"/>
<path d="M332.113 105.1H341.622V131H337.959V108.319H332.113V105.1ZM345.807 105.1H355.316V131H351.653V108.319H345.807V105.1Z" fill="#292C33"/>
<path d="M327.055 164.1H336.564V190H332.901V167.319H327.055V164.1ZM358.066 176.421C361.026 177.568 362.654 179.714 362.654 182.674C362.654 187.373 358.658 190.296 352.331 190.296C346.041 190.296 342.082 187.373 342.082 182.674C342.082 179.714 343.71 177.531 346.633 176.421C344.265 175.311 343.007 173.387 343.007 170.834C343.007 166.505 346.744 163.804 352.331 163.804C357.955 163.804 361.729 166.505 361.729 170.834C361.729 173.387 360.434 175.311 358.066 176.421ZM352.331 166.801C348.853 166.801 346.67 168.392 346.67 170.982C346.67 173.535 348.779 175.126 352.331 175.126C355.92 175.126 358.103 173.535 358.103 170.982C358.103 168.392 355.809 166.801 352.331 166.801ZM352.331 187.299C356.438 187.299 358.954 185.486 358.954 182.563C358.954 179.714 356.438 177.938 352.331 177.938C348.224 177.938 345.782 179.714 345.782 182.563C345.782 185.486 348.224 187.299 352.331 187.299Z" fill="#292C33"/>
<path d="M330.96 245.781H344.243V249H325.632V246.484L336.177 236.309C338.915 233.645 339.433 232.017 339.433 230.389C339.433 227.725 337.546 226.097 333.92 226.097C331.145 226.097 328.888 226.985 327.297 228.909L324.781 226.726C326.779 224.247 330.22 222.804 334.253 222.804C339.655 222.804 343.133 225.579 343.133 230.019C343.133 232.535 342.393 234.792 338.878 238.159L330.96 245.781ZM354.685 233.423C362.418 233.423 365.452 236.642 365.452 241.23C365.452 245.707 362.27 249.296 355.647 249.296C351.984 249.296 348.358 248.112 346.138 246.151L347.84 243.228C349.579 244.856 352.465 246.003 355.61 246.003C359.532 246.003 361.752 244.19 361.752 241.378C361.752 238.455 359.902 236.642 353.908 236.642H348.025L349.394 223.1H364.009V226.319H352.502L351.799 233.423H354.685Z" fill="#292C33"/>
<path d="M8.08134 304.781H21.3644V308H2.75334V305.484L13.2984 295.309C16.0364 292.645 16.5544 291.017 16.5544 289.389C16.5544 286.725 14.6674 285.097 11.0414 285.097C8.26634 285.097 6.00934 285.985 4.41834 287.909L1.90234 285.726C3.90034 283.247 7.34134 281.804 11.3744 281.804C16.7764 281.804 20.2544 284.579 20.2544 289.019C20.2544 291.535 19.5144 293.792 15.9994 297.159L8.08134 304.781ZM23.6321 282.1H43.1681V284.616L32.6971 308H28.7751L39.0241 285.319H27.1841V289.944H23.6321V282.1Z" fill="#292C33"/>
<path d="M66.8511 308V305.484L77.3961 295.309C78.3334 294.421 79.024 293.644 79.468 292.978C79.9366 292.287 80.2451 291.658 80.3931 291.091C80.5657 290.499 80.652 289.932 80.652 289.389C80.652 288.057 80.1833 287.009 79.246 286.244C78.3086 285.479 76.9396 285.097 75.139 285.097C73.7576 285.097 72.512 285.331 71.402 285.8C70.292 286.244 69.3301 286.947 68.5161 287.909L66 285.726C66.9866 284.468 68.3063 283.506 69.959 282.84C71.6363 282.149 73.474 281.804 75.472 281.804C77.2726 281.804 78.8391 282.1 80.1711 282.692C81.5031 283.259 82.5267 284.086 83.2421 285.171C83.9821 286.256 84.3521 287.539 84.3521 289.019C84.3521 289.858 84.2411 290.684 84.0191 291.498C83.7971 292.312 83.3776 293.175 82.761 294.088C82.1443 295.001 81.2563 296.024 80.097 297.159L70.6991 306.224L69.8111 304.781H85.4621V308H66.8511ZM98.6051 308.296C96.5084 308.296 94.6954 307.988 93.1661 307.371C91.6367 306.754 90.4528 305.879 89.6142 304.744C88.7755 303.585 88.3561 302.228 88.3561 300.674C88.3561 299.145 88.7507 297.85 89.5401 296.789C90.3541 295.704 91.5257 294.89 93.0551 294.347C94.5844 293.78 96.4344 293.496 98.6051 293.496C100.776 293.496 102.626 293.78 104.156 294.347C105.71 294.89 106.894 295.704 107.708 296.789C108.522 297.874 108.929 299.169 108.929 300.674C108.929 302.228 108.509 303.585 107.671 304.744C106.832 305.879 105.636 306.754 104.082 307.371C102.528 307.988 100.702 308.296 98.6051 308.296ZM98.6051 305.299C100.678 305.299 102.293 304.88 103.453 304.041C104.637 303.178 105.229 302.018 105.229 300.563C105.229 299.132 104.637 298.01 103.453 297.196C102.293 296.357 100.678 295.938 98.6051 295.938C96.5577 295.938 94.9545 296.357 93.7952 297.196C92.6358 298.01 92.0562 299.132 92.0562 300.563C92.0562 302.018 92.6358 303.178 93.7952 304.041C94.9545 304.88 96.5577 305.299 98.6051 305.299ZM98.6051 295.494C96.6317 295.494 94.9545 295.235 93.5732 294.717C92.1918 294.174 91.1312 293.41 90.3912 292.423C89.6512 291.412 89.2812 290.215 89.2812 288.834C89.2812 287.379 89.6634 286.133 90.4281 285.097C91.2174 284.036 92.3151 283.222 93.7211 282.655C95.1271 282.088 96.7551 281.804 98.6051 281.804C100.48 281.804 102.121 282.088 103.527 282.655C104.933 283.222 106.03 284.036 106.82 285.097C107.609 286.133 108.004 287.379 108.004 288.834C108.004 290.215 107.634 291.412 106.894 292.423C106.154 293.41 105.081 294.174 103.675 294.717C102.269 295.235 100.579 295.494 98.6051 295.494ZM98.6051 293.126C100.406 293.126 101.812 292.756 102.824 292.016C103.86 291.276 104.378 290.265 104.378 288.982C104.378 287.675 103.847 286.651 102.787 285.911C101.726 285.171 100.332 284.801 98.6051 284.801C96.8784 284.801 95.4972 285.171 94.4612 285.911C93.4498 286.651 92.9441 287.675 92.9441 288.982C92.9441 290.265 93.4374 291.276 94.4241 292.016C95.4354 292.756 96.8291 293.126 98.6051 293.126Z" fill="#292C33"/>
<path d="M131.839 308V305.484L142.384 295.309C143.322 294.421 144.012 293.644 144.456 292.978C144.925 292.287 145.233 291.658 145.381 291.091C145.554 290.499 145.64 289.932 145.64 289.389C145.64 288.057 145.172 287.009 144.234 286.244C143.297 285.479 141.928 285.097 140.127 285.097C138.746 285.097 137.5 285.331 136.39 285.8C135.28 286.244 134.318 286.947 133.504 287.909L130.988 285.726C131.975 284.468 133.295 283.506 134.947 282.84C136.625 282.149 138.462 281.804 140.46 281.804C142.261 281.804 143.827 282.1 145.159 282.692C146.491 283.259 147.515 284.086 148.23 285.171C148.97 286.256 149.34 287.539 149.34 289.019C149.34 289.858 149.229 290.684 149.007 291.498C148.785 292.312 148.366 293.175 147.749 294.088C147.133 295.001 146.245 296.024 145.085 297.159L135.687 306.224L134.799 304.781H150.45V308H131.839ZM161.891 281.804C164.235 281.804 166.208 282.31 167.811 283.321C169.439 284.332 170.673 285.8 171.511 287.724C172.35 289.623 172.769 291.954 172.769 294.717C172.769 297.652 172.251 300.131 171.215 302.154C170.179 304.177 168.749 305.706 166.923 306.742C165.098 307.778 162.964 308.296 160.522 308.296C159.314 308.296 158.142 308.173 157.007 307.926C155.897 307.679 154.923 307.297 154.084 306.779L155.49 303.893C156.181 304.337 156.946 304.658 157.784 304.855C158.648 305.028 159.548 305.114 160.485 305.114C163.1 305.114 165.184 304.3 166.738 302.672C168.292 301.019 169.069 298.577 169.069 295.346C169.069 294.828 169.045 294.211 168.995 293.496C168.946 292.781 168.835 292.078 168.662 291.387L169.883 292.645C169.538 293.78 168.958 294.742 168.144 295.531C167.355 296.296 166.393 296.875 165.258 297.27C164.148 297.64 162.927 297.825 161.595 297.825C159.893 297.825 158.376 297.504 157.044 296.863C155.712 296.222 154.664 295.321 153.899 294.162C153.135 292.978 152.752 291.584 152.752 289.981C152.752 288.304 153.147 286.861 153.936 285.652C154.75 284.419 155.848 283.469 157.229 282.803C158.635 282.137 160.189 281.804 161.891 281.804ZM162.039 284.801C160.929 284.801 159.943 285.011 159.079 285.43C158.216 285.849 157.538 286.429 157.044 287.169C156.576 287.909 156.341 288.797 156.341 289.833C156.341 291.362 156.872 292.583 157.932 293.496C158.993 294.384 160.424 294.828 162.224 294.828C163.408 294.828 164.444 294.606 165.332 294.162C166.245 293.718 166.948 293.114 167.441 292.349C167.959 291.584 168.218 290.733 168.218 289.796C168.218 288.883 167.984 288.057 167.515 287.317C167.047 286.577 166.356 285.973 165.443 285.504C164.531 285.035 163.396 284.801 162.039 284.801Z" fill="#292C33"/>
<path d="M205.777 292.978C210.957 293.459 213.584 296.382 213.584 300.378C213.584 304.744 210.365 308.296 203.779 308.296C200.079 308.296 196.453 307.112 194.27 305.151L195.972 302.228C197.711 303.856 200.597 305.003 203.779 305.003C207.664 305.003 209.884 303.227 209.884 300.415C209.884 297.677 207.923 295.901 203.483 295.901H201.411V293.311L207.923 285.319H195.454V282.1H212.548V284.616L205.777 292.978ZM227.617 308.296C221.549 308.296 217.035 303.486 217.035 295.05C217.035 286.614 221.549 281.804 227.617 281.804C233.648 281.804 238.162 286.614 238.162 295.05C238.162 303.486 233.648 308.296 227.617 308.296ZM227.617 305.003C231.65 305.003 234.462 301.673 234.462 295.05C234.462 288.427 231.65 285.097 227.617 285.097C223.547 285.097 220.735 288.427 220.735 295.05C220.735 301.673 223.547 305.003 227.617 305.003Z" fill="#292C33"/>
<path d="M408.156 62.4231C415.889 62.4231 418.923 65.6421 418.923 70.2301C418.923 74.7071 415.741 78.2961 409.118 78.2961C405.455 78.2961 401.829 77.1121 399.609 75.1511L401.311 72.2281C403.05 73.8561 405.936 75.0031 409.081 75.0031C413.003 75.0031 415.223 73.1901 415.223 70.3781C415.223 67.4551 413.373 65.6421 407.379 65.6421H401.496L402.865 52.1001H417.48V55.3191H405.973L405.27 62.4231H408.156Z" fill="#292C33"/>
<path d="M391.34 105.1H400.849V131H397.186V108.319H391.34V105.1ZM411.435 127.781H424.718V131H406.107V128.484L416.652 118.309C419.39 115.645 419.908 114.017 419.908 112.389C419.908 109.725 418.021 108.097 414.395 108.097C411.62 108.097 409.363 108.985 407.772 110.909L405.256 108.726C407.254 106.247 410.695 104.804 414.728 104.804C420.13 104.804 423.608 107.579 423.608 112.019C423.608 114.535 422.868 116.792 419.353 120.159L411.435 127.781Z" fill="#292C33"/>
<path d="M396.385 190V165.58L397.976 167.319H390.539V164.1H400.048V190H396.385ZM414.112 163.804C416.456 163.804 418.429 164.31 420.032 165.321C421.66 166.332 422.894 167.8 423.732 169.724C424.571 171.623 424.99 173.954 424.99 176.717C424.99 179.652 424.472 182.131 423.436 184.154C422.4 186.177 420.97 187.706 419.144 188.742C417.319 189.778 415.185 190.296 412.743 190.296C411.535 190.296 410.363 190.173 409.228 189.926C408.118 189.679 407.144 189.297 406.305 188.779L407.711 185.893C408.402 186.337 409.167 186.658 410.005 186.855C410.869 187.028 411.769 187.114 412.706 187.114C415.321 187.114 417.405 186.3 418.959 184.672C420.513 183.019 421.29 180.577 421.29 177.346C421.29 176.828 421.266 176.211 421.216 175.496C421.167 174.781 421.056 174.078 420.883 173.387L422.104 174.645C421.759 175.78 421.179 176.742 420.365 177.531C419.576 178.296 418.614 178.875 417.479 179.27C416.369 179.64 415.148 179.825 413.816 179.825C412.114 179.825 410.597 179.504 409.265 178.863C407.933 178.222 406.885 177.321 406.12 176.162C405.356 174.978 404.973 173.584 404.973 171.981C404.973 170.304 405.368 168.861 406.157 167.652C406.971 166.419 408.069 165.469 409.45 164.803C410.856 164.137 412.41 163.804 414.112 163.804ZM414.26 166.801C413.15 166.801 412.164 167.011 411.3 167.43C410.437 167.849 409.759 168.429 409.265 169.169C408.797 169.909 408.562 170.797 408.562 171.833C408.562 173.362 409.093 174.583 410.153 175.496C411.214 176.384 412.645 176.828 414.445 176.828C415.629 176.828 416.665 176.606 417.553 176.162C418.466 175.718 419.169 175.114 419.662 174.349C420.18 173.584 420.439 172.733 420.439 171.796C420.439 170.883 420.205 170.057 419.736 169.317C419.268 168.577 418.577 167.973 417.664 167.504C416.752 167.035 415.617 166.801 414.26 166.801Z" fill="#292C33"/>
<path d="M387.859 249V246.484L398.404 236.309C399.342 235.421 400.032 234.644 400.476 233.978C400.945 233.287 401.253 232.658 401.401 232.091C401.574 231.499 401.66 230.932 401.66 230.389C401.66 229.057 401.192 228.009 400.254 227.244C399.317 226.479 397.948 226.097 396.147 226.097C394.766 226.097 393.52 226.331 392.41 226.8C391.3 227.244 390.338 227.947 389.524 228.909L387.008 226.726C387.995 225.468 389.315 224.506 390.967 223.84C392.645 223.149 394.482 222.804 396.48 222.804C398.281 222.804 399.847 223.1 401.179 223.692C402.511 224.259 403.535 225.086 404.25 226.171C404.99 227.256 405.36 228.539 405.36 230.019C405.36 230.858 405.249 231.684 405.027 232.498C404.805 233.312 404.386 234.175 403.769 235.088C403.153 236.001 402.265 237.024 401.105 238.159L391.707 247.224L390.819 245.781H406.47V249H387.859ZM420.354 249.296C418.06 249.296 416.099 248.79 414.471 247.779C412.843 246.768 411.598 245.312 410.734 243.413C409.896 241.489 409.476 239.146 409.476 236.383C409.476 233.448 409.994 230.969 411.03 228.946C412.066 226.923 413.509 225.394 415.359 224.358C417.209 223.322 419.331 222.804 421.723 222.804C422.957 222.804 424.128 222.927 425.238 223.174C426.373 223.421 427.347 223.803 428.161 224.321L426.755 227.207C426.089 226.738 425.325 226.418 424.461 226.245C423.623 226.072 422.735 225.986 421.797 225.986C419.158 225.986 417.061 226.812 415.507 228.465C413.953 230.093 413.176 232.523 413.176 235.754C413.176 236.272 413.201 236.889 413.25 237.604C413.3 238.319 413.423 239.022 413.62 239.713L412.362 238.455C412.732 237.32 413.312 236.371 414.101 235.606C414.915 234.817 415.877 234.237 416.987 233.867C418.122 233.472 419.343 233.275 420.65 233.275C422.377 233.275 423.906 233.596 425.238 234.237C426.57 234.878 427.619 235.791 428.383 236.975C429.148 238.134 429.53 239.516 429.53 241.119C429.53 242.772 429.123 244.215 428.309 245.448C427.495 246.681 426.398 247.631 425.016 248.297C423.635 248.963 422.081 249.296 420.354 249.296ZM420.206 246.299C421.341 246.299 422.328 246.089 423.166 245.67C424.03 245.251 424.708 244.671 425.201 243.931C425.695 243.166 425.941 242.278 425.941 241.267C425.941 239.738 425.411 238.529 424.35 237.641C423.29 236.728 421.847 236.272 420.021 236.272C418.837 236.272 417.801 236.494 416.913 236.938C416.025 237.382 415.322 237.986 414.804 238.751C414.311 239.491 414.064 240.342 414.064 241.304C414.064 242.192 414.299 243.018 414.767 243.783C415.236 244.523 415.927 245.127 416.839 245.596C417.752 246.065 418.874 246.299 420.206 246.299Z" fill="#292C33"/>
<path d="M24.5451 115.275C29.6881 115.275 33.4251 118.346 33.4251 123.119C33.4251 128.114 29.3921 131.296 24.2491 131.296C17.2931 131.296 13.3711 126.634 13.3711 118.383C13.3711 109.54 18.3661 104.804 25.6181 104.804C28.0601 104.804 30.3911 105.285 32.0561 106.321L30.6501 109.207C29.3181 108.319 27.5421 107.986 25.6921 107.986C20.4381 107.986 17.0711 111.279 17.0711 117.754C17.0711 118.05 17.0711 118.346 17.1081 118.679C18.5881 116.459 21.3261 115.275 24.5451 115.275ZM24.1011 128.299C27.4681 128.299 29.8361 126.338 29.8361 123.267C29.8361 120.233 27.5421 118.272 23.9161 118.272C20.4011 118.272 17.9591 120.455 17.9591 123.304C17.9591 125.968 20.1051 128.299 24.1011 128.299Z" fill="#292C33"/>
<path d="M5.87109 164.1H15.3801V190H11.7171V167.319H5.87109V164.1ZM30.9614 174.978C36.1414 175.459 38.7684 178.382 38.7684 182.378C38.7684 186.744 35.5494 190.296 28.9634 190.296C25.2634 190.296 21.6374 189.112 19.4544 187.151L21.1564 184.228C22.8954 185.856 25.7814 187.003 28.9634 187.003C32.8484 187.003 35.0684 185.227 35.0684 182.415C35.0684 179.677 33.1074 177.901 28.6674 177.901H26.5954V175.311L33.1074 167.319H20.6384V164.1H37.7324V166.616L30.9614 174.978Z" fill="#292C33"/>
<path d="M6.80009 245.781H20.0832V249H1.47209V246.484L12.0172 236.309C14.7552 233.645 15.2732 232.017 15.2732 230.389C15.2732 227.725 13.3862 226.097 9.76009 226.097C6.98509 226.097 4.72809 226.985 3.13709 228.909L0.621094 226.726C2.61909 224.247 6.06009 222.804 10.0931 222.804C15.4952 222.804 18.9732 225.579 18.9732 230.019C18.9732 232.535 18.2332 234.792 14.7182 238.159L6.80009 245.781ZM33.5989 249.296C27.5309 249.296 23.0169 244.486 23.0169 236.05C23.0169 227.614 27.5309 222.804 33.5989 222.804C39.6299 222.804 44.1439 227.614 44.1439 236.05C44.1439 244.486 39.6299 249.296 33.5989 249.296ZM33.5989 246.003C37.6319 246.003 40.4439 242.673 40.4439 236.05C40.4439 229.427 37.6319 226.097 33.5989 226.097C29.5289 226.097 26.7169 229.427 26.7169 236.05C26.7169 242.673 29.5289 246.003 33.5989 246.003Z" fill="#292C33"/>
<path d="M78.0625 105.1H97.5985V107.616L87.1275 131H83.2055L93.4545 108.319H81.6145V112.944H78.0625V105.1Z" fill="#292C33"/>
<path d="M69.082 164.1H78.591V190H74.928V167.319H69.082V164.1ZM106.789 180.454V183.636H101.868V190H98.2794V183.636H83.8864V181.046L97.1324 164.1H101.128L88.4374 180.454H98.3904V174.83H101.868V180.454H106.789Z" fill="#292C33"/>
<path d="M77.2376 245.781H90.5206V249H71.9096V246.484L82.4546 236.309C85.1926 233.645 85.7106 232.017 85.7106 230.389C85.7106 227.725 83.8236 226.097 80.1976 226.097C77.4226 226.097 75.1656 226.985 73.5746 228.909L71.0586 226.726C73.0566 224.247 76.4976 222.804 80.5306 222.804C85.9326 222.804 89.4106 225.579 89.4106 230.019C89.4106 232.535 88.6706 234.792 85.1556 238.159L77.2376 245.781ZM92.0827 223.1H101.592V249H97.9287V226.319H92.0827V223.1Z" fill="#292C33"/>
<path d="M145.766 53.1001H155.275V79.0001H151.612V56.3191H145.766V53.1001Z" fill="#292C33"/>
<path d="M158.218 117.421C161.178 118.568 162.806 120.714 162.806 123.674C162.806 128.373 158.81 131.296 152.483 131.296C146.193 131.296 142.234 128.373 142.234 123.674C142.234 120.714 143.862 118.531 146.785 117.421C144.417 116.311 143.159 114.387 143.159 111.834C143.159 107.505 146.896 104.804 152.483 104.804C158.107 104.804 161.881 107.505 161.881 111.834C161.881 114.387 160.586 116.311 158.218 117.421ZM152.483 107.801C149.005 107.801 146.822 109.392 146.822 111.982C146.822 114.535 148.931 116.126 152.483 116.126C156.072 116.126 158.255 114.535 158.255 111.982C158.255 109.392 155.961 107.801 152.483 107.801ZM152.483 128.299C156.59 128.299 159.106 126.486 159.106 123.563C159.106 120.714 156.59 118.938 152.483 118.938C148.376 118.938 145.934 120.714 145.934 123.563C145.934 126.486 148.376 128.299 152.483 128.299Z" fill="#292C33"/>
<path d="M135.34 164.1H144.849V190H141.186V167.319H135.34V164.1ZM157.914 174.423C165.647 174.423 168.681 177.642 168.681 182.23C168.681 186.707 165.499 190.296 158.876 190.296C155.213 190.296 151.587 189.112 149.367 187.151L151.069 184.228C152.808 185.856 155.694 187.003 158.839 187.003C162.761 187.003 164.981 185.19 164.981 182.378C164.981 179.455 163.131 177.642 157.137 177.642H151.254L152.623 164.1H167.238V167.319H155.731L155.028 174.423H157.914Z" fill="#292C33"/>
<path d="M137.96 245.781H151.243V249H132.632V246.484L143.177 236.309C145.915 233.645 146.433 232.017 146.433 230.389C146.433 227.725 144.546 226.097 140.92 226.097C138.145 226.097 135.888 226.985 134.297 228.909L131.781 226.726C133.779 224.247 137.22 222.804 141.253 222.804C146.655 222.804 150.133 225.579 150.133 230.019C150.133 232.535 149.393 234.792 145.878 238.159L137.96 245.781ZM159.206 245.781H172.489V249H153.878V246.484L164.423 236.309C167.161 233.645 167.679 232.017 167.679 230.389C167.679 227.725 165.792 226.097 162.166 226.097C159.391 226.097 157.134 226.985 155.543 228.909L153.027 226.726C155.025 224.247 158.466 222.804 162.499 222.804C167.901 222.804 171.379 225.579 171.379 230.019C171.379 232.535 170.639 234.792 167.124 238.159L159.206 245.781Z" fill="#292C33"/>
<path d="M215.768 104.804C222.724 104.804 226.646 109.466 226.646 117.717C226.646 126.56 221.651 131.296 214.399 131.296C211.957 131.296 209.626 130.815 207.961 129.779L209.367 126.893C210.736 127.781 212.475 128.114 214.362 128.114C219.616 128.114 222.946 124.821 222.946 118.346V117.421C221.429 119.678 218.691 120.825 215.472 120.825C210.329 120.825 206.629 117.754 206.629 112.981C206.629 107.986 210.625 104.804 215.768 104.804ZM216.101 117.828C219.653 117.828 222.095 115.645 222.095 112.796C222.095 110.132 219.949 107.801 215.916 107.801C212.549 107.801 210.218 109.762 210.218 112.833C210.218 115.867 212.475 117.828 216.101 117.828Z" fill="#292C33"/>
<path d="M199.039 164.1H208.548V190H204.885V167.319H199.039V164.1ZM225.387 174.275C230.53 174.275 234.267 177.346 234.267 182.119C234.267 187.114 230.234 190.296 225.091 190.296C218.135 190.296 214.213 185.634 214.213 177.383C214.213 168.54 219.208 163.804 226.46 163.804C228.902 163.804 231.233 164.285 232.898 165.321L231.492 168.207C230.16 167.319 228.384 166.986 226.534 166.986C221.28 166.986 217.913 170.279 217.913 176.754C217.913 177.05 217.913 177.346 217.95 177.679C219.43 175.459 222.168 174.275 225.387 174.275ZM224.943 187.299C228.31 187.299 230.678 185.338 230.678 182.267C230.678 179.233 228.384 177.272 224.758 177.272C221.243 177.272 218.801 179.455 218.801 182.304C218.801 184.968 220.947 187.299 224.943 187.299Z" fill="#292C33"/>
<path d="M202.495 245.781H215.778V249H197.167V246.484L207.712 236.309C210.45 233.645 210.968 232.017 210.968 230.389C210.968 227.725 209.081 226.097 205.455 226.097C202.68 226.097 200.423 226.985 198.832 228.909L196.316 226.726C198.314 224.247 201.755 222.804 205.788 222.804C211.19 222.804 214.668 225.579 214.668 230.019C214.668 232.535 213.928 234.792 210.413 238.159L202.495 245.781ZM228.736 233.978C233.916 234.459 236.543 237.382 236.543 241.378C236.543 245.744 233.324 249.296 226.738 249.296C223.038 249.296 219.412 248.112 217.229 246.151L218.931 243.228C220.67 244.856 223.556 246.003 226.738 246.003C230.623 246.003 232.843 244.227 232.843 241.415C232.843 238.677 230.882 236.901 226.442 236.901H224.37V234.311L230.882 226.319H218.413V223.1H235.507V225.616L228.736 233.978Z" fill="#292C33"/>
<path d="M214.335 75.7812H227.618V79.0002H209.007V76.4842L219.552 66.3092C222.29 63.6452 222.808 62.0172 222.808 60.3892C222.808 57.7252 220.921 56.0972 217.295 56.0972C214.52 56.0972 212.263 56.9852 210.672 58.9092L208.156 56.7262C210.154 54.2472 213.595 52.8042 217.628 52.8042C223.03 52.8042 226.508 55.5792 226.508 60.0192C226.508 62.5352 225.768 64.7922 222.253 68.1592L214.335 75.7812Z" fill="#292C33"/>
<path d="M274.509 308.196C272.684 308.196 270.908 307.912 269.181 307.345C267.479 306.778 266.086 306.013 265 305.051L266.702 302.128C267.566 302.942 268.688 303.608 270.069 304.126C271.451 304.644 272.931 304.903 274.509 304.903C276.433 304.903 277.926 304.496 278.986 303.682C280.072 302.843 280.614 301.721 280.614 300.315C280.614 298.958 280.096 297.873 279.06 297.059C278.049 296.22 276.433 295.801 274.213 295.801H272.141V293.211L279.837 283.739L280.355 285.219H266.184V282H283.278V284.516L275.619 293.951L273.695 292.804H274.916C278.049 292.804 280.392 293.507 281.946 294.913C283.525 296.319 284.314 298.107 284.314 300.278C284.314 301.733 283.957 303.065 283.241 304.274C282.526 305.483 281.441 306.445 279.985 307.16C278.555 307.851 276.729 308.196 274.509 308.196ZM292.131 307.9V283.48L293.722 285.219H286.285V282H295.794V307.9H292.131Z" fill="#292C33"/>
</svg>
