<svg width="431" height="313" viewBox="0 0 431 313" fill="none" xmlns="http://www.w3.org/2000/svg">
<g clip-path="url(#clip0_3524_4658)">
<path d="M22.9564 20.7264H20.3476V3.36139H10.8906V20.7264H8.2002V1.32324H22.8749V20.7264H22.9564Z" fill="#B3B3B3"/>
<path d="M38.7725 20.7265H36.1636V14.612H29.7231V20.7265H27.1143V6.29639H29.7231V12.5739H36.1636V6.29639H38.7725V20.7265Z" fill="#B3B3B3"/>
<path d="M73 20.7264V1.32324H79.359C81.3972 1.32324 82.9462 1.73087 84.0875 2.62766C85.2289 3.52444 85.7996 4.82886 85.7996 6.5409C85.7996 7.35616 85.555 8.08989 85.0658 8.82363C84.5767 9.55736 83.8429 9.96499 83.0277 10.2911C84.3321 10.4541 85.3104 11.0248 86.0441 11.9216C86.7779 12.8184 87.1855 13.9598 87.1855 15.1826C87.1855 16.9762 86.6148 18.2806 85.4735 19.2589C84.3321 20.2373 82.7831 20.6449 80.745 20.6449H73V20.7264ZM75.6904 9.55736H79.9297C80.908 9.55736 81.7233 9.31278 82.294 8.7421C82.9462 8.17142 83.1907 7.43769 83.1907 6.45937C83.1907 5.39954 82.8646 4.6658 82.2124 4.09512C81.5602 3.60597 80.5819 3.27986 79.359 3.27986H75.6904V9.55736ZM75.6904 11.5955V18.6067H80.745C81.9678 18.6067 82.8646 18.2806 83.5168 17.71C84.1691 17.1393 84.4952 16.2425 84.4952 15.1826C84.4952 14.1228 84.1691 13.226 83.5168 12.5738C82.8646 11.9216 81.9678 11.5955 80.745 11.514H80.5819H75.6904V11.5955Z" fill="#B3B3B3"/>
<path d="M101.126 8.33453H96.3976V20.7265H93.7888V8.33453H89.0603V6.29639H101.126V8.33453Z" fill="#B3B3B3"/>
<path d="M150.512 14.5304C150.593 16.4055 149.941 17.9545 148.637 19.1773C147.332 20.4002 145.62 21.0524 143.419 21.0524C141.218 21.0524 139.424 20.2372 138.038 18.6882C136.652 17.1392 136 15.1826 136 12.7368V9.31271C136 6.94846 136.652 4.91031 138.038 3.36132C139.424 1.81233 141.218 0.99707 143.419 0.99707C145.62 0.99707 147.332 1.56775 148.637 2.70911C149.941 3.85048 150.593 5.39947 150.512 7.35609V7.43762H147.984C147.984 6.05168 147.577 4.99184 146.761 4.17658C145.946 3.36132 144.805 2.95369 143.337 2.95369C141.87 2.95369 140.729 3.52437 139.832 4.74726C138.935 5.88862 138.527 7.35609 138.527 9.14966V12.6553C138.527 14.4488 138.935 15.9163 139.832 17.0577C140.729 18.199 141.87 18.8512 143.337 18.8512C144.805 18.8512 145.946 18.4436 146.761 17.7099C147.577 16.8946 147.984 15.8348 147.984 14.4488H150.512V14.5304Z" fill="#B3B3B3"/>
<path d="M165.92 14.0413C165.92 16.161 165.431 17.7915 164.453 19.0959C163.474 20.4003 162.088 20.971 160.295 20.971C159.398 20.971 158.664 20.8079 157.93 20.5634C157.278 20.2373 156.708 19.8296 156.218 19.259V26.2702H153.61V6.29634H155.648L156.055 8.17143C156.545 7.4377 157.115 6.94854 157.849 6.62244C158.583 6.29634 159.398 6.05176 160.295 6.05176C162.088 6.05176 163.474 6.78549 164.453 8.17143C165.431 9.55737 165.92 11.4325 165.92 13.7967V14.0413ZM163.311 13.7967C163.311 12.1662 162.985 10.7803 162.333 9.80195C161.681 8.82364 160.702 8.25296 159.479 8.25296C158.746 8.25296 158.094 8.41601 157.523 8.74211C156.952 9.06822 156.545 9.55737 156.218 10.1281V17.1393C156.545 17.71 156.952 18.1991 157.523 18.5252C158.094 18.8513 158.746 19.0144 159.479 19.0144C160.702 19.0144 161.681 18.5252 162.333 17.6284C162.985 16.7317 163.311 15.5088 163.311 14.1228V13.7967Z" fill="#B3B3B3"/>
<path d="M215.43 1.32324V20.7264H212.821V12.6553C212.006 12.8999 211.191 13.063 210.375 13.226C209.56 13.3076 208.663 13.3891 207.522 13.3891C205.402 13.3891 203.772 12.8999 202.631 12.0031C201.489 11.1064 201 9.55736 201 7.43769V1.32324H203.609V7.43769C203.609 8.90515 203.935 9.88346 204.506 10.4541C205.158 11.0248 206.136 11.2694 207.441 11.2694C208.337 11.2694 209.234 11.1879 210.131 11.1064C210.946 10.9433 211.843 10.7802 212.74 10.5357V1.32324H215.43Z" fill="#B3B3B3"/>
<path d="M230.675 8.33453H225.947V20.7265H223.338V8.33453H218.61V6.29639H230.675V8.33453Z" fill="#B3B3B3"/>
<path d="M279.675 20.7264H277.066V3.36139H267.609V20.7264H265V1.32324H279.675V20.7264Z" fill="#B3B3B3"/>
<path d="M294.92 8.33453H290.192V20.7265H287.583V8.33453H282.854V6.29639H294.92V8.33453Z" fill="#B3B3B3"/>
<path d="M344.512 14.5301C344.593 16.4052 343.941 17.9542 342.637 19.1771C341.332 20.4 339.62 21.0522 337.419 21.0522C335.218 21.0522 333.424 20.2369 332.038 18.6879C330.652 17.139 330 15.1823 330 12.7366V9.31247C330 6.94822 330.652 4.91007 332.038 3.36108C333.424 1.81209 335.218 0.996826 337.419 0.996826C339.62 0.996826 341.332 1.56751 342.637 2.70887C343.941 3.85023 344.593 5.39922 344.512 7.35585V7.43737H341.984C341.984 6.05143 341.577 4.9916 340.761 4.17634C339.946 3.36108 338.805 2.95345 337.337 2.95345C335.87 2.95345 334.729 3.52413 333.832 4.74702C332.935 5.88838 332.527 7.35585 332.527 9.14942V12.655C332.527 14.4486 332.935 15.9161 333.832 17.0574C334.729 18.1988 335.87 18.851 337.337 18.851C338.805 18.851 339.946 18.4434 340.761 17.7096C341.577 16.8944 341.984 15.8345 341.984 14.4486H344.512V14.5301Z" fill="#B3B3B3"/>
<path d="M353.887 6.05149C355.762 6.05149 357.148 6.7037 358.208 8.08964C359.268 9.47558 359.838 11.1876 359.838 13.3888V13.7149C359.838 15.8346 359.268 17.6282 358.126 19.0141C356.985 20.4 355.436 21.0523 353.398 21.0523C351.36 21.0523 349.811 20.4 348.669 19.0141C347.528 17.6282 346.957 15.9161 346.957 13.7149V13.3888C346.957 13.3073 346.957 13.2258 346.957 13.2258C346.957 13.1442 346.957 13.1442 346.957 13.0627V9.96473C346.957 7.19285 347.528 5.23623 348.588 3.93182C349.648 2.6274 351.278 1.97519 353.398 1.81214C354.621 1.73062 355.599 1.56756 356.251 1.32299C356.903 1.07841 357.23 0.670779 357.23 0.100098H359.268V0.181624C359.349 1.56756 358.86 2.54587 357.882 3.11656C356.903 3.68724 355.517 4.01334 353.642 4.01334C352.256 4.01334 351.197 4.42097 350.381 5.1547C349.566 5.88844 349.158 6.94827 349.158 8.33421V8.41574C349.648 7.76353 350.381 7.19285 351.197 6.78522C352.012 6.37759 352.99 6.05149 353.887 6.05149ZM353.398 8.08964C352.175 8.08964 351.197 8.57879 350.544 9.5571C349.892 10.5354 349.566 11.8398 349.566 13.3073V13.6334C349.566 15.1824 349.892 16.4053 350.544 17.3836C351.197 18.3619 352.175 18.8511 353.398 18.8511C354.621 18.8511 355.599 18.3619 356.251 17.3836C356.903 16.4053 357.23 15.1009 357.23 13.6334V13.3073C357.23 11.7583 356.903 10.5354 356.251 9.5571C355.599 8.57879 354.621 8.08964 353.398 8.08964Z" fill="#B3B3B3"/>
<path d="M394 20.7264V1.32324H400.359C402.397 1.32324 403.946 1.73087 405.088 2.62766C406.229 3.52444 406.8 4.82886 406.8 6.5409C406.8 7.35616 406.555 8.08989 406.066 8.82363C405.577 9.55736 404.843 9.96499 404.028 10.3726C405.332 10.5357 406.31 11.1064 407.044 12.0031C407.778 12.8999 408.186 14.0413 408.186 15.2642C408.186 17.0577 407.615 18.3622 406.473 19.3405C405.332 20.3188 403.783 20.7264 401.745 20.7264H394ZM396.69 9.55736H400.93C401.908 9.55736 402.723 9.31278 403.294 8.7421C403.946 8.17142 404.191 7.43769 404.191 6.45937C404.191 5.39954 403.865 4.6658 403.212 4.09512C402.56 3.60597 401.582 3.27986 400.359 3.27986H396.69V9.55736ZM396.69 11.5955V18.6067H401.745C402.968 18.6067 403.865 18.2806 404.517 17.71C405.169 17.1393 405.495 16.2425 405.495 15.1826C405.495 14.1228 405.169 13.226 404.517 12.5738C403.865 11.9216 402.968 11.5955 401.745 11.514H401.582H396.69V11.5955Z" fill="#B3B3B3"/>
<path d="M416.745 18.9326C417.561 18.9326 418.294 18.688 418.865 18.1174C419.436 17.5467 419.762 16.8945 419.762 16.1607H422.126V16.2423C422.126 17.4652 421.637 18.6065 420.496 19.5848C419.354 20.5631 418.131 21.0523 416.664 21.0523C414.626 21.0523 413.077 20.4001 411.935 19.0141C410.794 17.6282 410.305 15.9162 410.305 13.878V13.3073C410.305 11.2692 410.876 9.55714 411.935 8.1712C413.077 6.78526 414.626 6.13306 416.582 6.13306C418.213 6.13306 419.517 6.62221 420.496 7.60052C421.474 8.57883 422.045 9.80172 421.963 11.2692V11.3507H419.599C419.599 10.4539 419.273 9.7202 418.702 9.06799C418.131 8.41578 417.398 8.1712 416.501 8.1712C415.196 8.1712 414.3 8.66036 413.647 9.63867C413.077 10.617 412.751 11.8399 412.751 13.3073V13.878C412.751 15.3455 413.077 16.5684 413.647 17.5467C414.544 18.4435 415.441 18.9326 416.745 18.9326Z" fill="#B3B3B3"/>
<path d="M278.912 130.296C276.815 130.296 275.002 129.988 273.473 129.371C271.943 128.754 270.759 127.879 269.921 126.744C269.082 125.585 268.663 124.228 268.663 122.674C268.663 121.145 269.057 119.85 269.847 118.789C270.661 117.704 271.832 116.89 273.362 116.347C274.891 115.78 276.741 115.496 278.912 115.496C281.082 115.496 282.932 115.78 284.462 116.347C286.016 116.89 287.2 117.704 288.014 118.789C288.828 119.874 289.235 121.169 289.235 122.674C289.235 124.228 288.815 125.585 287.977 126.744C287.138 127.879 285.942 128.754 284.388 129.371C282.834 129.988 281.008 130.296 278.912 130.296ZM278.912 127.299C280.984 127.299 282.599 126.88 283.759 126.041C284.943 125.178 285.535 124.018 285.535 122.563C285.535 121.132 284.943 120.01 283.759 119.196C282.599 118.357 280.984 117.938 278.912 117.938C276.864 117.938 275.261 118.357 274.102 119.196C272.942 120.01 272.363 121.132 272.363 122.563C272.363 124.018 272.942 125.178 274.102 126.041C275.261 126.88 276.864 127.299 278.912 127.299ZM278.912 117.494C276.938 117.494 275.261 117.235 273.88 116.717C272.498 116.174 271.438 115.41 270.698 114.423C269.958 113.412 269.588 112.215 269.588 110.834C269.588 109.379 269.97 108.133 270.735 107.097C271.524 106.036 272.622 105.222 274.028 104.655C275.434 104.088 277.062 103.804 278.912 103.804C280.786 103.804 282.427 104.088 283.833 104.655C285.239 105.222 286.336 106.036 287.126 107.097C287.915 108.133 288.31 109.379 288.31 110.834C288.31 112.215 287.94 113.412 287.2 114.423C286.46 115.41 285.387 116.174 283.981 116.717C282.575 117.235 280.885 117.494 278.912 117.494ZM278.912 115.126C280.712 115.126 282.118 114.756 283.13 114.016C284.166 113.276 284.684 112.265 284.684 110.982C284.684 109.675 284.153 108.651 283.093 107.911C282.032 107.171 280.638 106.801 278.912 106.801C277.185 106.801 275.804 107.171 274.768 107.911C273.756 108.651 273.251 109.675 273.251 110.982C273.251 112.265 273.744 113.276 274.731 114.016C275.742 114.756 277.136 115.126 278.912 115.126Z" fill="#292C33"/>
<path d="M267.612 187V162.58L269.203 164.319H261.766V161.1H271.275V187H267.612ZM285.303 187.296C283.477 187.296 281.701 187.012 279.975 186.445C278.273 185.878 276.879 185.113 275.794 184.151L277.496 181.228C278.359 182.042 279.481 182.708 280.863 183.226C282.244 183.744 283.712 184.003 285.266 184.003C287.239 184.003 288.756 183.584 289.817 182.745C290.877 181.906 291.408 180.784 291.408 179.378C291.408 178.416 291.173 177.577 290.705 176.862C290.236 176.147 289.422 175.604 288.263 175.234C287.128 174.839 285.562 174.642 283.564 174.642H277.681L279.05 161.1H293.665V164.319H280.419L282.343 162.506L281.27 173.199L279.346 171.423H284.341C286.931 171.423 289.015 171.756 290.594 172.422C292.172 173.088 293.319 174.013 294.035 175.197C294.75 176.356 295.108 177.701 295.108 179.23C295.108 180.71 294.75 182.067 294.035 183.3C293.319 184.509 292.234 185.483 290.779 186.223C289.348 186.938 287.523 187.296 285.303 187.296Z" fill="#292C33"/>
<path d="M259.063 244V241.484L269.608 231.309C270.546 230.421 271.236 229.644 271.68 228.978C272.149 228.287 272.457 227.658 272.605 227.091C272.778 226.499 272.864 225.932 272.864 225.389C272.864 224.057 272.396 223.009 271.458 222.244C270.521 221.479 269.152 221.097 267.351 221.097C265.97 221.097 264.724 221.331 263.614 221.8C262.504 222.244 261.542 222.947 260.728 223.909L258.212 221.726C259.199 220.468 260.519 219.506 262.171 218.84C263.849 218.149 265.686 217.804 267.684 217.804C269.485 217.804 271.051 218.1 272.383 218.692C273.715 219.259 274.739 220.086 275.454 221.171C276.194 222.256 276.564 223.539 276.564 225.019C276.564 225.858 276.453 226.684 276.231 227.498C276.009 228.312 275.59 229.175 274.973 230.088C274.357 231.001 273.469 232.024 272.309 233.159L262.911 242.224L262.023 240.781H277.674V244H259.063ZM280.309 244V241.484L290.854 231.309C291.792 230.421 292.482 229.644 292.926 228.978C293.395 228.287 293.703 227.658 293.851 227.091C294.024 226.499 294.11 225.932 294.11 225.389C294.11 224.057 293.642 223.009 292.704 222.244C291.767 221.479 290.398 221.097 288.597 221.097C287.216 221.097 285.97 221.331 284.86 221.8C283.75 222.244 282.788 222.947 281.974 223.909L279.458 221.726C280.445 220.468 281.765 219.506 283.417 218.84C285.095 218.149 286.932 217.804 288.93 217.804C290.731 217.804 292.297 218.1 293.629 218.692C294.961 219.259 295.985 220.086 296.7 221.171C297.44 222.256 297.81 223.539 297.81 225.019C297.81 225.858 297.699 226.684 297.477 227.498C297.255 228.312 296.836 229.175 296.219 230.088C295.603 231.001 294.715 232.024 293.555 233.159L284.157 242.224L283.269 240.781H298.92V244H280.309Z" fill="#292C33"/>
<path d="M258.268 301V298.484L268.813 288.309C269.751 287.421 270.441 286.644 270.885 285.978C271.354 285.287 271.662 284.658 271.81 284.091C271.983 283.499 272.069 282.932 272.069 282.389C272.069 281.057 271.601 280.009 270.663 279.244C269.726 278.479 268.357 278.097 266.556 278.097C265.175 278.097 263.929 278.331 262.819 278.8C261.709 279.244 260.747 279.947 259.933 280.909L257.417 278.726C258.404 277.468 259.724 276.506 261.376 275.84C263.054 275.149 264.891 274.804 266.889 274.804C268.69 274.804 270.256 275.1 271.588 275.692C272.92 276.259 273.944 277.086 274.659 278.171C275.399 279.256 275.769 280.539 275.769 282.019C275.769 282.858 275.658 283.684 275.436 284.498C275.214 285.312 274.795 286.175 274.178 287.088C273.562 288.001 272.674 289.024 271.514 290.159L262.116 299.224L261.228 297.781H276.879V301H258.268ZM288.321 274.804C290.664 274.804 292.637 275.31 294.241 276.321C295.869 277.332 297.102 278.8 297.941 280.724C298.779 282.623 299.199 284.954 299.199 287.717C299.199 290.652 298.681 293.131 297.645 295.154C296.609 297.177 295.178 298.706 293.353 299.742C291.527 300.778 289.394 301.296 286.952 301.296C285.743 301.296 284.571 301.173 283.437 300.926C282.327 300.679 281.352 300.297 280.514 299.779L281.92 296.893C282.61 297.337 283.375 297.658 284.214 297.855C285.077 298.028 285.977 298.114 286.915 298.114C289.529 298.114 291.614 297.3 293.168 295.672C294.722 294.019 295.499 291.577 295.499 288.346C295.499 287.828 295.474 287.211 295.425 286.496C295.375 285.781 295.264 285.078 295.092 284.387L296.313 285.645C295.967 286.78 295.388 287.742 294.574 288.531C293.784 289.296 292.822 289.875 291.688 290.27C290.578 290.64 289.357 290.825 288.025 290.825C286.323 290.825 284.806 290.504 283.474 289.863C282.142 289.222 281.093 288.321 280.329 287.162C279.564 285.978 279.182 284.584 279.182 282.981C279.182 281.304 279.576 279.861 280.366 278.652C281.18 277.419 282.277 276.469 283.659 275.803C285.065 275.137 286.619 274.804 288.321 274.804ZM288.469 277.801C287.359 277.801 286.372 278.011 285.509 278.43C284.645 278.849 283.967 279.429 283.474 280.169C283.005 280.909 282.771 281.797 282.771 282.833C282.771 284.362 283.301 285.583 284.362 286.496C285.422 287.384 286.853 287.828 288.654 287.828C289.838 287.828 290.874 287.606 291.762 287.162C292.674 286.718 293.377 286.114 293.871 285.349C294.389 284.584 294.648 283.733 294.648 282.796C294.648 281.883 294.413 281.057 293.945 280.317C293.476 279.577 292.785 278.973 291.873 278.504C290.96 278.035 289.825 277.801 288.469 277.801Z" fill="#292C33"/>
<path d="M334.186 78.1353V75.6193L344.731 65.4443C345.669 64.5563 346.359 63.7793 346.803 63.1133C347.272 62.4226 347.58 61.7936 347.728 61.2263C347.901 60.6343 347.987 60.0669 347.987 59.5243C347.987 58.1923 347.519 57.1439 346.581 56.3793C345.644 55.6146 344.275 55.2323 342.474 55.2323C341.093 55.2323 339.847 55.4666 338.737 55.9353C337.627 56.3793 336.665 57.0823 335.851 58.0443L333.335 55.8613C334.322 54.6033 335.642 53.6413 337.294 52.9753C338.972 52.2846 340.809 51.9393 342.807 51.9393C344.608 51.9393 346.174 52.2353 347.506 52.8273C348.838 53.3946 349.862 54.2209 350.577 55.3063C351.317 56.3916 351.687 57.6743 351.687 59.1543C351.687 59.9929 351.576 60.8193 351.354 61.6333C351.132 62.4473 350.713 63.3106 350.096 64.2233C349.48 65.1359 348.592 66.1596 347.432 67.2943L338.034 76.3593L337.146 74.9163H352.797V78.1353H334.186Z" fill="#292C33"/>
<path d="M342.197 103.804C344.541 103.804 346.514 104.31 348.117 105.321C349.745 106.332 350.979 107.8 351.817 109.724C352.656 111.623 353.075 113.954 353.075 116.717C353.075 119.652 352.557 122.131 351.521 124.154C350.485 126.177 349.055 127.706 347.229 128.742C345.404 129.778 343.27 130.296 340.828 130.296C339.62 130.296 338.448 130.173 337.313 129.926C336.203 129.679 335.229 129.297 334.39 128.779L335.796 125.893C336.487 126.337 337.252 126.658 338.09 126.855C338.954 127.028 339.854 127.114 340.791 127.114C343.406 127.114 345.49 126.3 347.044 124.672C348.598 123.019 349.375 120.577 349.375 117.346C349.375 116.828 349.351 116.211 349.301 115.496C349.252 114.781 349.141 114.078 348.968 113.387L350.189 114.645C349.844 115.78 349.264 116.742 348.45 117.531C347.661 118.296 346.699 118.875 345.564 119.27C344.454 119.64 343.233 119.825 341.901 119.825C340.199 119.825 338.682 119.504 337.35 118.863C336.018 118.222 334.97 117.321 334.205 116.162C333.441 114.978 333.058 113.584 333.058 111.981C333.058 110.304 333.453 108.861 334.242 107.652C335.056 106.419 336.154 105.469 337.535 104.803C338.941 104.137 340.495 103.804 342.197 103.804ZM342.345 106.801C341.235 106.801 340.249 107.011 339.385 107.43C338.522 107.849 337.844 108.429 337.35 109.169C336.882 109.909 336.647 110.797 336.647 111.833C336.647 113.362 337.178 114.583 338.238 115.496C339.299 116.384 340.73 116.828 342.53 116.828C343.714 116.828 344.75 116.606 345.638 116.162C346.551 115.718 347.254 115.114 347.747 114.349C348.265 113.584 348.524 112.733 348.524 111.796C348.524 110.883 348.29 110.057 347.821 109.317C347.353 108.577 346.662 107.973 345.749 107.504C344.837 107.035 343.702 106.801 342.345 106.801Z" fill="#292C33"/>
<path d="M331.317 187V162.58L332.908 164.319H325.471V161.1H334.98V187H331.317ZM351.524 187.296C349.23 187.296 347.269 186.79 345.641 185.779C344.013 184.768 342.767 183.312 341.904 181.413C341.065 179.489 340.646 177.146 340.646 174.383C340.646 171.448 341.164 168.969 342.2 166.946C343.236 164.923 344.679 163.394 346.529 162.358C348.379 161.322 350.5 160.804 352.893 160.804C354.126 160.804 355.298 160.927 356.408 161.174C357.542 161.421 358.517 161.803 359.331 162.321L357.925 165.207C357.259 164.738 356.494 164.418 355.631 164.245C354.792 164.072 353.904 163.986 352.967 163.986C350.327 163.986 348.231 164.812 346.677 166.465C345.123 168.093 344.346 170.523 344.346 173.754C344.346 174.272 344.37 174.889 344.42 175.604C344.469 176.319 344.592 177.022 344.79 177.713L343.532 176.455C343.902 175.32 344.481 174.371 345.271 173.606C346.085 172.817 347.047 172.237 348.157 171.867C349.291 171.472 350.512 171.275 351.82 171.275C353.546 171.275 355.076 171.596 356.408 172.237C357.74 172.878 358.788 173.791 359.553 174.975C360.317 176.134 360.7 177.516 360.7 179.119C360.7 180.772 360.293 182.215 359.479 183.448C358.665 184.681 357.567 185.631 356.186 186.297C354.804 186.963 353.25 187.296 351.524 187.296ZM351.376 184.299C352.51 184.299 353.497 184.089 354.336 183.67C355.199 183.251 355.877 182.671 356.371 181.931C356.864 181.166 357.111 180.278 357.111 179.267C357.111 177.738 356.58 176.529 355.52 175.641C354.459 174.728 353.016 174.272 351.191 174.272C350.007 174.272 348.971 174.494 348.083 174.938C347.195 175.382 346.492 175.986 345.974 176.751C345.48 177.491 345.234 178.342 345.234 179.304C345.234 180.192 345.468 181.018 345.937 181.783C346.405 182.523 347.096 183.127 348.009 183.596C348.921 184.065 350.044 184.299 351.376 184.299Z" fill="#292C33"/>
<path d="M323.599 244V241.484L334.144 231.309C335.082 230.421 335.772 229.644 336.216 228.978C336.685 228.287 336.993 227.658 337.141 227.091C337.314 226.499 337.4 225.932 337.4 225.389C337.4 224.057 336.932 223.009 335.994 222.244C335.057 221.479 333.688 221.097 331.887 221.097C330.506 221.097 329.26 221.331 328.15 221.8C327.04 222.244 326.078 222.947 325.264 223.909L322.748 221.726C323.735 220.468 325.055 219.506 326.707 218.84C328.385 218.149 330.222 217.804 332.22 217.804C334.021 217.804 335.587 218.1 336.919 218.692C338.251 219.259 339.275 220.086 339.99 221.171C340.73 222.256 341.1 223.539 341.1 225.019C341.1 225.858 340.989 226.684 340.767 227.498C340.545 228.312 340.126 229.175 339.509 230.088C338.893 231.001 338.005 232.024 336.845 233.159L327.447 242.224L326.559 240.781H342.21V244H323.599ZM353.171 244.296C351.345 244.296 349.569 244.012 347.843 243.445C346.141 242.878 344.747 242.113 343.662 241.151L345.364 238.228C346.227 239.042 347.349 239.708 348.731 240.226C350.112 240.744 351.592 241.003 353.171 241.003C355.095 241.003 356.587 240.596 357.648 239.782C358.733 238.943 359.276 237.821 359.276 236.415C359.276 235.058 358.758 233.973 357.722 233.159C356.71 232.32 355.095 231.901 352.875 231.901H350.803V229.311L358.499 219.839L359.017 221.319H344.846V218.1H361.94V220.616L354.281 230.051L352.357 228.904H353.578C356.71 228.904 359.054 229.607 360.608 231.013C362.186 232.419 362.976 234.207 362.976 236.378C362.976 237.833 362.618 239.165 361.903 240.374C361.187 241.583 360.102 242.545 358.647 243.26C357.216 243.951 355.391 244.296 353.171 244.296Z" fill="#292C33"/>
<path d="M330.208 301.296C328.383 301.296 326.607 301.012 324.88 300.445C323.178 299.878 321.784 299.113 320.699 298.151L322.401 295.228C323.264 296.042 324.387 296.708 325.768 297.226C327.149 297.744 328.629 298.003 330.208 298.003C332.132 298.003 333.624 297.596 334.685 296.782C335.77 295.943 336.313 294.821 336.313 293.415C336.313 292.058 335.795 290.973 334.759 290.159C333.748 289.32 332.132 288.901 329.912 288.901H327.84V286.311L335.536 276.839L336.054 278.319H321.883V275.1H338.977V277.616L331.318 287.051L329.394 285.904H330.615C333.748 285.904 336.091 286.607 337.645 288.013C339.224 289.419 340.013 291.207 340.013 293.378C340.013 294.833 339.655 296.165 338.94 297.374C338.225 298.583 337.139 299.545 335.684 300.26C334.253 300.951 332.428 301.296 330.208 301.296ZM354.046 301.296C352.023 301.296 350.21 300.778 348.607 299.742C347.028 298.706 345.77 297.201 344.833 295.228C343.92 293.255 343.464 290.862 343.464 288.05C343.464 285.238 343.92 282.845 344.833 280.872C345.77 278.899 347.028 277.394 348.607 276.358C350.21 275.322 352.023 274.804 354.046 274.804C356.044 274.804 357.845 275.322 359.448 276.358C361.051 277.394 362.309 278.899 363.222 280.872C364.135 282.845 364.591 285.238 364.591 288.05C364.591 290.862 364.135 293.255 363.222 295.228C362.309 297.201 361.051 298.706 359.448 299.742C357.845 300.778 356.044 301.296 354.046 301.296ZM354.046 298.003C355.403 298.003 356.587 297.633 357.598 296.893C358.634 296.153 359.436 295.043 360.003 293.563C360.595 292.083 360.891 290.245 360.891 288.05C360.891 285.855 360.595 284.017 360.003 282.537C359.436 281.057 358.634 279.947 357.598 279.207C356.587 278.467 355.403 278.097 354.046 278.097C352.689 278.097 351.493 278.467 350.457 279.207C349.421 279.947 348.607 281.057 348.015 282.537C347.448 284.017 347.164 285.855 347.164 288.05C347.164 290.245 347.448 292.083 348.015 293.563C348.607 295.043 349.421 296.153 350.457 296.893C351.493 297.633 352.689 298.003 354.046 298.003Z" fill="#292C33"/>
<path d="M407.548 78.4313C405.722 78.4313 403.946 78.1476 402.22 77.5803C400.518 77.0129 399.124 76.2483 398.039 75.2863L399.741 72.3633C400.604 73.1773 401.726 73.8433 403.108 74.3613C404.489 74.8793 405.969 75.1383 407.548 75.1383C409.472 75.1383 410.964 74.7313 412.025 73.9173C413.11 73.0786 413.653 71.9563 413.653 70.5503C413.653 69.1936 413.135 68.1083 412.099 67.2943C411.087 66.4556 409.472 66.0363 407.252 66.0363H405.18V63.4463L412.876 53.9743L413.394 55.4543H399.223V52.2353H416.317V54.7513L408.658 64.1863L406.734 63.0393H407.955C411.087 63.0393 413.431 63.7423 414.985 65.1483C416.563 66.5543 417.353 68.3426 417.353 70.5133C417.353 71.9686 416.995 73.3006 416.28 74.5093C415.564 75.7179 414.479 76.6799 413.024 77.3953C411.593 78.0859 409.768 78.4313 407.548 78.4313Z" fill="#292C33"/>
<path d="M395.396 130V105.58L396.987 107.319H389.55V104.1H399.059V130H395.396ZM415.306 130.296C413.284 130.296 411.471 129.778 409.867 128.742C408.289 127.706 407.031 126.201 406.093 124.228C405.181 122.255 404.724 119.862 404.724 117.05C404.724 114.238 405.181 111.845 406.093 109.872C407.031 107.899 408.289 106.394 409.867 105.358C411.471 104.322 413.284 103.804 415.306 103.804C417.304 103.804 419.105 104.322 420.708 105.358C422.312 106.394 423.57 107.899 424.482 109.872C425.395 111.845 425.851 114.238 425.851 117.05C425.851 119.862 425.395 122.255 424.482 124.228C423.57 126.201 422.312 127.706 420.708 128.742C419.105 129.778 417.304 130.296 415.306 130.296ZM415.306 127.003C416.663 127.003 417.847 126.633 418.858 125.893C419.894 125.153 420.696 124.043 421.263 122.563C421.855 121.083 422.151 119.245 422.151 117.05C422.151 114.855 421.855 113.017 421.263 111.537C420.696 110.057 419.894 108.947 418.858 108.207C417.847 107.467 416.663 107.097 415.306 107.097C413.95 107.097 412.753 107.467 411.717 108.207C410.681 108.947 409.867 110.057 409.275 111.537C408.708 113.017 408.424 114.855 408.424 117.05C408.424 119.245 408.708 121.083 409.275 122.563C409.867 124.043 410.681 125.153 411.717 125.893C412.753 126.633 413.95 127.003 415.306 127.003Z" fill="#292C33"/>
<path d="M387.172 244V241.484L397.717 231.309C398.655 230.421 399.345 229.644 399.789 228.978C400.258 228.287 400.566 227.658 400.714 227.091C400.887 226.499 400.973 225.932 400.973 225.389C400.973 224.057 400.505 223.009 399.567 222.244C398.63 221.479 397.261 221.097 395.46 221.097C394.079 221.097 392.833 221.331 391.723 221.8C390.613 222.244 389.651 222.947 388.837 223.909L386.321 221.726C387.308 220.468 388.628 219.506 390.28 218.84C391.958 218.149 393.795 217.804 395.793 217.804C397.594 217.804 399.16 218.1 400.492 218.692C401.824 219.259 402.848 220.086 403.563 221.171C404.303 222.256 404.673 223.539 404.673 225.019C404.673 225.858 404.562 226.684 404.34 227.498C404.118 228.312 403.699 229.175 403.082 230.088C402.466 231.001 401.578 232.024 400.418 233.159L391.02 242.224L390.132 240.781H405.783V244H387.172ZM407.733 237.636V235.046L420.979 218.1H424.975L411.84 235.046L409.953 234.454H430.636V237.636H407.733ZM422.126 244V237.636L422.237 234.454V228.83H425.715V244H422.126Z" fill="#292C33"/>
<path d="M10.9709 123.636V121.046L24.2169 104.1H28.2129L15.0779 121.046L13.1909 120.454H33.8739V123.636H10.9709ZM25.3639 130V123.636L25.4749 120.454V114.83H28.9529V130H25.3639Z" fill="#292C33"/>
<path d="M14.3881 187V162.58L15.9791 164.319H8.54209V161.1H18.0511V187H14.3881ZM28.0824 187V162.58L29.6734 164.319H22.2364V161.1H31.7454V187H28.0824Z" fill="#292C33"/>
<path d="M9.3295 244V219.58L10.9205 221.319H3.4835V218.1H12.9925V244H9.3295ZM28.7588 244.296C26.6622 244.296 24.8492 243.988 23.3198 243.371C21.7905 242.754 20.6065 241.879 19.7678 240.744C18.9292 239.585 18.5098 238.228 18.5098 236.674C18.5098 235.145 18.9045 233.85 19.6938 232.789C20.5078 231.704 21.6795 230.89 23.2088 230.347C24.7382 229.78 26.5882 229.496 28.7588 229.496C30.9295 229.496 32.7795 229.78 34.3088 230.347C35.8628 230.89 37.0468 231.704 37.8608 232.789C38.6748 233.874 39.0818 235.169 39.0818 236.674C39.0818 238.228 38.6625 239.585 37.8238 240.744C36.9852 241.879 35.7888 242.754 34.2348 243.371C32.6808 243.988 30.8555 244.296 28.7588 244.296ZM28.7588 241.299C30.8308 241.299 32.4465 240.88 33.6058 240.041C34.7898 239.178 35.3818 238.018 35.3818 236.563C35.3818 235.132 34.7898 234.01 33.6058 233.196C32.4465 232.357 30.8308 231.938 28.7588 231.938C26.7115 231.938 25.1082 232.357 23.9488 233.196C22.7895 234.01 22.2098 235.132 22.2098 236.563C22.2098 238.018 22.7895 239.178 23.9488 240.041C25.1082 240.88 26.7115 241.299 28.7588 241.299ZM28.7588 231.494C26.7855 231.494 25.1082 231.235 23.7268 230.717C22.3455 230.174 21.2848 229.41 20.5448 228.423C19.8048 227.412 19.4348 226.215 19.4348 224.834C19.4348 223.379 19.8172 222.133 20.5818 221.097C21.3712 220.036 22.4688 219.222 23.8748 218.655C25.2808 218.088 26.9088 217.804 28.7588 217.804C30.6335 217.804 32.2738 218.088 33.6798 218.655C35.0858 219.222 36.1835 220.036 36.9728 221.097C37.7622 222.133 38.1568 223.379 38.1568 224.834C38.1568 226.215 37.7868 227.412 37.0468 228.423C36.3068 229.41 35.2338 230.174 33.8278 230.717C32.4218 231.235 30.7322 231.494 28.7588 231.494ZM28.7588 229.126C30.5595 229.126 31.9655 228.756 32.9768 228.016C34.0128 227.276 34.5308 226.265 34.5308 224.982C34.5308 223.675 34.0005 222.651 32.9398 221.911C31.8792 221.171 30.4855 220.801 28.7588 220.801C27.0322 220.801 25.6508 221.171 24.6148 221.911C23.6035 222.651 23.0978 223.675 23.0978 224.982C23.0978 226.265 23.5912 227.276 24.5778 228.016C25.5892 228.756 26.9828 229.126 28.7588 229.126Z" fill="#292C33"/>
<path d="M2.06334 301V298.484L12.6083 288.309C13.5457 287.421 14.2363 286.644 14.6803 285.978C15.149 285.287 15.4573 284.658 15.6053 284.091C15.778 283.499 15.8643 282.932 15.8643 282.389C15.8643 281.057 15.3957 280.009 14.4583 279.244C13.521 278.479 12.152 278.097 10.3513 278.097C8.97 278.097 7.72434 278.331 6.61434 278.8C5.50434 279.244 4.54234 279.947 3.72834 280.909L1.21234 278.726C2.199 277.468 3.51867 276.506 5.17134 275.84C6.84867 275.149 8.68634 274.804 10.6843 274.804C12.485 274.804 14.0513 275.1 15.3833 275.692C16.7153 276.259 17.739 277.086 18.4543 278.171C19.1943 279.256 19.5643 280.539 19.5643 282.019C19.5643 282.858 19.4533 283.684 19.2313 284.498C19.0093 285.312 18.59 286.175 17.9733 287.088C17.3567 288.001 16.4687 289.024 15.3093 290.159L5.91134 299.224L5.02334 297.781H20.6743V301H2.06334ZM32.0784 301.296C30.2531 301.296 28.4771 301.012 26.7504 300.445C25.0484 299.878 23.6548 299.113 22.5694 298.151L24.2714 295.228C25.1348 296.042 26.2571 296.708 27.6384 297.226C29.0198 297.744 30.4874 298.003 32.0414 298.003C34.0148 298.003 35.5318 297.584 36.5924 296.745C37.6531 295.906 38.1834 294.784 38.1834 293.378C38.1834 292.416 37.9491 291.577 37.4804 290.862C37.0118 290.147 36.1978 289.604 35.0384 289.234C33.9038 288.839 32.3374 288.642 30.3394 288.642H24.4564L25.8254 275.1H40.4404V278.319H27.1944L29.1184 276.506L28.0454 287.199L26.1214 285.423H31.1164C33.7064 285.423 35.7908 285.756 37.3694 286.422C38.9481 287.088 40.0951 288.013 40.8104 289.197C41.5258 290.356 41.8834 291.701 41.8834 293.23C41.8834 294.71 41.5258 296.067 40.8104 297.3C40.0951 298.509 39.0098 299.483 37.5544 300.223C36.1238 300.938 34.2984 301.296 32.0784 301.296Z" fill="#292C33"/>
<path d="M84.4554 130.296C82.63 130.296 80.854 130.012 79.1274 129.445C77.4254 128.878 76.0317 128.113 74.9464 127.151L76.6484 124.228C77.5117 125.042 78.634 125.708 80.0154 126.226C81.3967 126.744 82.8644 127.003 84.4184 127.003C86.3917 127.003 87.9087 126.584 88.9694 125.745C90.0301 124.906 90.5604 123.784 90.5604 122.378C90.5604 121.416 90.326 120.577 89.8574 119.862C89.3887 119.147 88.5747 118.604 87.4154 118.234C86.2807 117.839 84.7144 117.642 82.7164 117.642H76.8334L78.2024 104.1H92.8174V107.319H79.5714L81.4954 105.506L80.4224 116.199L78.4984 114.423H83.4934C86.0834 114.423 88.1677 114.756 89.7464 115.422C91.3251 116.088 92.4721 117.013 93.1874 118.197C93.9027 119.356 94.2604 120.701 94.2604 122.23C94.2604 123.71 93.9027 125.067 93.1874 126.3C92.4721 127.509 91.3867 128.483 89.9314 129.223C88.5007 129.938 86.6754 130.296 84.4554 130.296Z" fill="#292C33"/>
<path d="M73.6122 187V162.58L75.2032 164.319H67.7662V161.1H77.2752V187H73.6122ZM82.5336 187V184.484L93.0786 174.309C94.0159 173.421 94.7066 172.644 95.1506 171.978C95.6192 171.287 95.9276 170.658 96.0756 170.091C96.2482 169.499 96.3346 168.932 96.3346 168.389C96.3346 167.057 95.8659 166.009 94.9286 165.244C93.9912 164.479 92.6222 164.097 90.8216 164.097C89.4402 164.097 88.1946 164.331 87.0846 164.8C85.9746 165.244 85.0126 165.947 84.1986 166.909L81.6826 164.726C82.6692 163.468 83.9889 162.506 85.6416 161.84C87.3189 161.149 89.1566 160.804 91.1546 160.804C92.9552 160.804 94.5216 161.1 95.8536 161.692C97.1856 162.259 98.2092 163.086 98.9246 164.171C99.6646 165.256 100.035 166.539 100.035 168.019C100.035 168.858 99.9236 169.684 99.7016 170.498C99.4796 171.312 99.0602 172.175 98.4436 173.088C97.8269 174.001 96.9389 175.024 95.7796 176.159L86.3816 185.224L85.4936 183.781H101.145V187H82.5336Z" fill="#292C33"/>
<path d="M72.8173 244V219.58L74.4083 221.319H66.9713V218.1H76.4803V244H72.8173ZM90.5446 217.804C92.888 217.804 94.8613 218.31 96.4646 219.321C98.0926 220.332 99.326 221.8 100.165 223.724C101.003 225.623 101.423 227.954 101.423 230.717C101.423 233.652 100.905 236.131 99.8686 238.154C98.8326 240.177 97.402 241.706 95.5766 242.742C93.7513 243.778 91.6176 244.296 89.1756 244.296C87.967 244.296 86.7953 244.173 85.6606 243.926C84.5506 243.679 83.5763 243.297 82.7376 242.779L84.1436 239.893C84.8343 240.337 85.599 240.658 86.4376 240.855C87.301 241.028 88.2013 241.114 89.1386 241.114C91.7533 241.114 93.8376 240.3 95.3916 238.672C96.9456 237.019 97.7226 234.577 97.7226 231.346C97.7226 230.828 97.698 230.211 97.6486 229.496C97.5993 228.781 97.4883 228.078 97.3156 227.387L98.5366 228.645C98.1913 229.78 97.6116 230.742 96.7976 231.531C96.0083 232.296 95.0463 232.875 93.9116 233.27C92.8016 233.64 91.5806 233.825 90.2486 233.825C88.5466 233.825 87.0296 233.504 85.6976 232.863C84.3656 232.222 83.3173 231.321 82.5526 230.162C81.788 228.978 81.4056 227.584 81.4056 225.981C81.4056 224.304 81.8003 222.861 82.5896 221.652C83.4036 220.419 84.5013 219.469 85.8826 218.803C87.2886 218.137 88.8426 217.804 90.5446 217.804ZM90.6926 220.801C89.5826 220.801 88.596 221.011 87.7326 221.43C86.8693 221.849 86.191 222.429 85.6976 223.169C85.229 223.909 84.9946 224.797 84.9946 225.833C84.9946 227.362 85.525 228.583 86.5856 229.496C87.6463 230.384 89.077 230.828 90.8776 230.828C92.0616 230.828 93.0976 230.606 93.9856 230.162C94.8983 229.718 95.6013 229.114 96.0946 228.349C96.6126 227.584 96.8716 226.733 96.8716 225.796C96.8716 224.883 96.6373 224.057 96.1686 223.317C95.7 222.577 95.0093 221.973 94.0966 221.504C93.184 221.035 92.0493 220.801 90.6926 220.801Z" fill="#292C33"/>
<path d="M64.2865 301V298.484L74.8315 288.309C75.7688 287.421 76.4595 286.644 76.9035 285.978C77.3721 285.287 77.6805 284.658 77.8285 284.091C78.0011 283.499 78.0875 282.932 78.0875 282.389C78.0875 281.057 77.6188 280.009 76.6815 279.244C75.7441 278.479 74.3751 278.097 72.5745 278.097C71.1931 278.097 69.9475 278.331 68.8375 278.8C67.7275 279.244 66.7655 279.947 65.9515 280.909L63.4355 278.726C64.4221 277.468 65.7418 276.506 67.3945 275.84C69.0718 275.149 70.9095 274.804 72.9075 274.804C74.7081 274.804 76.2745 275.1 77.6065 275.692C78.9385 276.259 79.9621 277.086 80.6775 278.171C81.4175 279.256 81.7875 280.539 81.7875 282.019C81.7875 282.858 81.6765 283.684 81.4545 284.498C81.2325 285.312 80.8131 286.175 80.1965 287.088C79.5798 288.001 78.6918 289.024 77.5325 290.159L68.1345 299.224L67.2465 297.781H82.8975V301H64.2865ZM96.7814 301.296C94.4874 301.296 92.5264 300.79 90.8984 299.779C89.2704 298.768 88.0248 297.312 87.1614 295.413C86.3228 293.489 85.9034 291.146 85.9034 288.383C85.9034 285.448 86.4214 282.969 87.4574 280.946C88.4934 278.923 89.9364 277.394 91.7864 276.358C93.6364 275.322 95.7578 274.804 98.1504 274.804C99.3838 274.804 100.555 274.927 101.665 275.174C102.8 275.421 103.774 275.803 104.588 276.321L103.182 279.207C102.516 278.738 101.752 278.418 100.888 278.245C100.05 278.072 99.1618 277.986 98.2244 277.986C95.5851 277.986 93.4884 278.812 91.9344 280.465C90.3804 282.093 89.6034 284.523 89.6034 287.754C89.6034 288.272 89.6281 288.889 89.6774 289.604C89.7268 290.319 89.8501 291.022 90.0474 291.713L88.7894 290.455C89.1594 289.32 89.7391 288.371 90.5284 287.606C91.3424 286.817 92.3044 286.237 93.4144 285.867C94.5491 285.472 95.7701 285.275 97.0774 285.275C98.8041 285.275 100.333 285.596 101.665 286.237C102.997 286.878 104.046 287.791 104.81 288.975C105.575 290.134 105.957 291.516 105.957 293.119C105.957 294.772 105.55 296.215 104.736 297.448C103.922 298.681 102.825 299.631 101.443 300.297C100.062 300.963 98.5081 301.296 96.7814 301.296ZM96.6334 298.299C97.7681 298.299 98.7548 298.089 99.5934 297.67C100.457 297.251 101.135 296.671 101.628 295.931C102.122 295.166 102.368 294.278 102.368 293.267C102.368 291.738 101.838 290.529 100.777 289.641C99.7168 288.728 98.2738 288.272 96.4484 288.272C95.2644 288.272 94.2284 288.494 93.3404 288.938C92.4524 289.382 91.7494 289.986 91.2314 290.751C90.7381 291.491 90.4914 292.342 90.4914 293.304C90.4914 294.192 90.7258 295.018 91.1944 295.783C91.6631 296.523 92.3538 297.127 93.2664 297.596C94.1791 298.065 95.3014 298.299 96.6334 298.299Z" fill="#292C33"/>
<path d="M150.676 130.296C148.382 130.296 146.421 129.79 144.793 128.779C143.165 127.768 141.92 126.312 141.056 124.413C140.218 122.489 139.798 120.146 139.798 117.383C139.798 114.448 140.316 111.969 141.352 109.946C142.388 107.923 143.831 106.394 145.681 105.358C147.531 104.322 149.653 103.804 152.045 103.804C153.279 103.804 154.45 103.927 155.56 104.174C156.695 104.421 157.669 104.803 158.483 105.321L157.077 108.207C156.411 107.738 155.647 107.418 154.783 107.245C153.945 107.072 153.057 106.986 152.119 106.986C149.48 106.986 147.383 107.812 145.829 109.465C144.275 111.093 143.498 113.523 143.498 116.754C143.498 117.272 143.523 117.889 143.572 118.604C143.622 119.319 143.745 120.022 143.942 120.713L142.684 119.455C143.054 118.32 143.634 117.371 144.423 116.606C145.237 115.817 146.199 115.237 147.309 114.867C148.444 114.472 149.665 114.275 150.972 114.275C152.699 114.275 154.228 114.596 155.56 115.237C156.892 115.878 157.941 116.791 158.705 117.975C159.47 119.134 159.852 120.516 159.852 122.119C159.852 123.772 159.445 125.215 158.631 126.448C157.817 127.681 156.72 128.631 155.338 129.297C153.957 129.963 152.403 130.296 150.676 130.296ZM150.528 127.299C151.663 127.299 152.65 127.089 153.488 126.67C154.352 126.251 155.03 125.671 155.523 124.931C156.017 124.166 156.263 123.278 156.263 122.267C156.263 120.738 155.733 119.529 154.672 118.641C153.612 117.728 152.169 117.272 150.343 117.272C149.159 117.272 148.123 117.494 147.235 117.938C146.347 118.382 145.644 118.986 145.126 119.751C144.633 120.491 144.386 121.342 144.386 122.304C144.386 123.192 144.621 124.018 145.089 124.783C145.558 125.523 146.249 126.127 147.161 126.596C148.074 127.065 149.196 127.299 150.528 127.299Z" fill="#292C33"/>
<path d="M138.148 187V162.58L139.739 164.319H132.302V161.1H141.811V187H138.148ZM155.395 187.296C153.569 187.296 151.793 187.012 150.067 186.445C148.365 185.878 146.971 185.113 145.886 184.151L147.588 181.228C148.451 182.042 149.573 182.708 150.955 183.226C152.336 183.744 153.816 184.003 155.395 184.003C157.319 184.003 158.811 183.596 159.872 182.782C160.957 181.943 161.5 180.821 161.5 179.415C161.5 178.058 160.982 176.973 159.946 176.159C158.934 175.32 157.319 174.901 155.099 174.901H153.027V172.311L160.723 162.839L161.241 164.319H147.07V161.1H164.164V163.616L156.505 173.051L154.581 171.904H155.802C158.934 171.904 161.278 172.607 162.832 174.013C164.41 175.419 165.2 177.207 165.2 179.378C165.2 180.833 164.842 182.165 164.127 183.374C163.411 184.583 162.326 185.545 160.871 186.26C159.44 186.951 157.615 187.296 155.395 187.296Z" fill="#292C33"/>
<path d="M127.865 244V241.484L138.41 231.309C139.347 230.421 140.038 229.644 140.482 228.978C140.951 228.287 141.259 227.658 141.407 227.091C141.58 226.499 141.666 225.932 141.666 225.389C141.666 224.057 141.197 223.009 140.26 222.244C139.323 221.479 137.954 221.097 136.153 221.097C134.772 221.097 133.526 221.331 132.416 221.8C131.306 222.244 130.344 222.947 129.53 223.909L127.014 221.726C128.001 220.468 129.32 219.506 130.973 218.84C132.65 218.149 134.488 217.804 136.486 217.804C138.287 217.804 139.853 218.1 141.185 218.692C142.517 219.259 143.541 220.086 144.256 221.171C144.996 222.256 145.366 223.539 145.366 225.019C145.366 225.858 145.255 226.684 145.033 227.498C144.811 228.312 144.392 229.175 143.775 230.088C143.158 231.001 142.27 232.024 141.111 233.159L131.713 242.224L130.825 240.781H146.476V244H127.865ZM160.064 244.296C158.041 244.296 156.228 243.778 154.625 242.742C153.046 241.706 151.788 240.201 150.851 238.228C149.938 236.255 149.482 233.862 149.482 231.05C149.482 228.238 149.938 225.845 150.851 223.872C151.788 221.899 153.046 220.394 154.625 219.358C156.228 218.322 158.041 217.804 160.064 217.804C162.062 217.804 163.863 218.322 165.466 219.358C167.069 220.394 168.327 221.899 169.24 223.872C170.153 225.845 170.609 228.238 170.609 231.05C170.609 233.862 170.153 236.255 169.24 238.228C168.327 240.201 167.069 241.706 165.466 242.742C163.863 243.778 162.062 244.296 160.064 244.296ZM160.064 241.003C161.421 241.003 162.605 240.633 163.616 239.893C164.652 239.153 165.454 238.043 166.021 236.563C166.613 235.083 166.909 233.245 166.909 231.05C166.909 228.855 166.613 227.017 166.021 225.537C165.454 224.057 164.652 222.947 163.616 222.207C162.605 221.467 161.421 221.097 160.064 221.097C158.707 221.097 157.511 221.467 156.475 222.207C155.439 222.947 154.625 224.057 154.033 225.537C153.466 227.017 153.182 228.855 153.182 231.05C153.182 233.245 153.466 235.083 154.033 236.563C154.625 238.043 155.439 239.153 156.475 239.893C157.511 240.633 158.707 241.003 160.064 241.003Z" fill="#292C33"/>
<path d="M129.148 301V298.484L139.693 288.309C140.63 287.421 141.321 286.644 141.765 285.978C142.233 285.287 142.542 284.658 142.69 284.091C142.862 283.499 142.949 282.932 142.949 282.389C142.949 281.057 142.48 280.009 141.543 279.244C140.605 278.479 139.236 278.097 137.436 278.097C136.054 278.097 134.809 278.331 133.699 278.8C132.589 279.244 131.627 279.947 130.813 280.909L128.297 278.726C129.283 277.468 130.603 276.506 132.256 275.84C133.933 275.149 135.771 274.804 137.769 274.804C139.569 274.804 141.136 275.1 142.468 275.692C143.8 276.259 144.823 277.086 145.539 278.171C146.279 279.256 146.649 280.539 146.649 282.019C146.649 282.858 146.538 283.684 146.316 284.498C146.094 285.312 145.674 286.175 145.058 287.088C144.441 288.001 143.553 289.024 142.394 290.159L132.996 299.224L132.108 297.781H147.759V301H129.148ZM155.242 301L166.231 276.654L167.193 278.319H151.801L153.651 276.506V282.944H150.099V275.1H169.635V277.616L159.164 301H155.242Z" fill="#292C33"/>
<path d="M201.36 187V162.58L202.951 164.319H195.514V161.1H205.023V187H201.36ZM210.318 180.636V178.046L223.564 161.1H227.56L214.425 178.046L212.538 177.454H233.221V180.636H210.318ZM224.711 187V180.636L224.822 177.454V171.83H228.3V187H224.711Z" fill="#292C33"/>
<path d="M198.339 244V241.484L208.884 231.309C209.822 230.421 210.512 229.644 210.956 228.978C211.425 228.287 211.733 227.658 211.881 227.091C212.054 226.499 212.14 225.932 212.14 225.389C212.14 224.057 211.672 223.009 210.734 222.244C209.797 221.479 208.428 221.097 206.627 221.097C205.246 221.097 204 221.331 202.89 221.8C201.78 222.244 200.818 222.947 200.004 223.909L197.488 221.726C198.475 220.468 199.795 219.506 201.447 218.84C203.125 218.149 204.962 217.804 206.96 217.804C208.761 217.804 210.327 218.1 211.659 218.692C212.991 219.259 214.015 220.086 214.73 221.171C215.47 222.256 215.84 223.539 215.84 225.019C215.84 225.858 215.729 226.684 215.507 227.498C215.285 228.312 214.866 229.175 214.249 230.088C213.633 231.001 212.745 232.024 211.585 233.159L202.187 242.224L201.299 240.781H216.95V244H198.339ZM224.358 244V219.58L225.949 221.319H218.512V218.1H228.021V244H224.358Z" fill="#292C33"/>
<path d="M193.281 301V298.484L203.826 288.309C204.763 287.421 205.454 286.644 205.898 285.978C206.366 285.287 206.675 284.658 206.823 284.091C206.995 283.499 207.082 282.932 207.082 282.389C207.082 281.057 206.613 280.009 205.676 279.244C204.738 278.479 203.369 278.097 201.569 278.097C200.187 278.097 198.942 278.331 197.832 278.8C196.722 279.244 195.76 279.947 194.946 280.909L192.43 278.726C193.416 277.468 194.736 276.506 196.389 275.84C198.066 275.149 199.904 274.804 201.902 274.804C203.702 274.804 205.269 275.1 206.601 275.692C207.933 276.259 208.956 277.086 209.672 278.171C210.412 279.256 210.782 280.539 210.782 282.019C210.782 282.858 210.671 283.684 210.449 284.498C210.227 285.312 209.807 286.175 209.191 287.088C208.574 288.001 207.686 289.024 206.527 290.159L197.129 299.224L196.241 297.781H211.892V301H193.281ZM225.035 301.296C222.938 301.296 221.125 300.988 219.596 300.371C218.066 299.754 216.882 298.879 216.044 297.744C215.205 296.585 214.786 295.228 214.786 293.674C214.786 292.145 215.18 290.85 215.97 289.789C216.784 288.704 217.955 287.89 219.485 287.347C221.014 286.78 222.864 286.496 225.035 286.496C227.205 286.496 229.055 286.78 230.585 287.347C232.139 287.89 233.323 288.704 234.137 289.789C234.951 290.874 235.358 292.169 235.358 293.674C235.358 295.228 234.938 296.585 234.1 297.744C233.261 298.879 232.065 299.754 230.511 300.371C228.957 300.988 227.131 301.296 225.035 301.296ZM225.035 298.299C227.107 298.299 228.722 297.88 229.882 297.041C231.066 296.178 231.658 295.018 231.658 293.563C231.658 292.132 231.066 291.01 229.882 290.196C228.722 289.357 227.107 288.938 225.035 288.938C222.987 288.938 221.384 289.357 220.225 290.196C219.065 291.01 218.486 292.132 218.486 293.563C218.486 295.018 219.065 296.178 220.225 297.041C221.384 297.88 222.987 298.299 225.035 298.299ZM225.035 288.494C223.061 288.494 221.384 288.235 220.003 287.717C218.621 287.174 217.561 286.41 216.821 285.423C216.081 284.412 215.711 283.215 215.711 281.834C215.711 280.379 216.093 279.133 216.858 278.097C217.647 277.036 218.745 276.222 220.151 275.655C221.557 275.088 223.185 274.804 225.035 274.804C226.909 274.804 228.55 275.088 229.956 275.655C231.362 276.222 232.459 277.036 233.249 278.097C234.038 279.133 234.433 280.379 234.433 281.834C234.433 283.215 234.063 284.412 233.323 285.423C232.583 286.41 231.51 287.174 230.104 287.717C228.698 288.235 227.008 288.494 225.035 288.494ZM225.035 286.126C226.835 286.126 228.241 285.756 229.253 285.016C230.289 284.276 230.807 283.265 230.807 281.982C230.807 280.675 230.276 279.651 229.216 278.911C228.155 278.171 226.761 277.801 225.035 277.801C223.308 277.801 221.927 278.171 220.891 278.911C219.879 279.651 219.374 280.675 219.374 281.982C219.374 283.265 219.867 284.276 220.854 285.016C221.865 285.756 223.259 286.126 225.035 286.126Z" fill="#292C33"/>
<path d="M209.637 130L220.626 105.654L221.588 107.319H206.196L208.046 105.506V111.944H204.494V104.1H224.03V106.616L213.559 130H209.637Z" fill="#292C33"/>
<path d="M396.679 187V162.58L398.27 164.319H390.833V161.1H400.342V187H396.679ZM410.484 187L421.473 162.654L422.435 164.319H407.043L408.893 162.506V168.944H405.341V161.1H424.877V163.616L414.406 187H410.484Z" fill="#292C33"/>
<path d="M278.235 78.1353V53.7153L279.826 55.4543H272.389V52.2353H281.898V78.1353H278.235Z" fill="#292C33"/>
<path d="M400.7 301.296C398.875 301.296 397.099 301.012 395.372 300.445C393.67 299.878 392.277 299.113 391.191 298.151L392.893 295.228C393.757 296.042 394.879 296.708 396.26 297.226C397.642 297.744 399.122 298.003 400.7 298.003C402.624 298.003 404.117 297.596 405.177 296.782C406.263 295.943 406.805 294.821 406.805 293.415C406.805 292.058 406.287 290.973 405.251 290.159C404.24 289.32 402.624 288.901 400.404 288.901H398.332V286.311L406.028 276.839L406.546 278.319H392.375V275.1H409.469V277.616L401.81 287.051L399.886 285.904H401.107C404.24 285.904 406.583 286.607 408.137 288.013C409.716 289.419 410.505 291.207 410.505 293.378C410.505 294.833 410.148 296.165 409.432 297.374C408.717 298.583 407.632 299.545 406.176 300.26C404.746 300.951 402.92 301.296 400.7 301.296ZM418.322 301V276.58L419.913 278.319H412.476V275.1H421.985V301H418.322Z" fill="#292C33"/>
</g>
<defs>
<clipPath id="clip0_3524_4658">
<rect width="431" height="313" fill="white"/>
</clipPath>
</defs>
</svg>
