<svg width="431" height="303" viewBox="0 0 431 303" fill="none" xmlns="http://www.w3.org/2000/svg">
<path d="M183 256H126V303H183V256Z" fill="#3C78EC" fill-opacity="0.6"/>
<path d="M22.9564 20.7264H20.3476V3.36139H10.8906V20.7264H8.2002V1.32324H22.8749V20.7264H22.9564Z" fill="#B3B3B3" fill-opacity="0.6"/>
<path d="M38.7725 20.7265H36.1637V14.612H29.7231V20.7265H27.1143V6.29639H29.7231V12.5739H36.1637V6.29639H38.7725V20.7265Z" fill="#B3B3B3" fill-opacity="0.6"/>
<path d="M73 20.7264V1.32324H79.359C81.3972 1.32324 82.9462 1.73087 84.0875 2.62766C85.2289 3.52444 85.7996 4.82886 85.7996 6.5409C85.7996 7.35616 85.555 8.08989 85.0658 8.82363C84.5767 9.55736 83.8429 9.96499 83.0277 10.2911C84.3321 10.4541 85.3104 11.0248 86.0441 11.9216C86.7779 12.8184 87.1855 13.9598 87.1855 15.1826C87.1855 16.9762 86.6148 18.2806 85.4735 19.2589C84.3321 20.2373 82.7831 20.6449 80.745 20.6449H73V20.7264ZM75.6904 9.55736H79.9297C80.908 9.55736 81.7233 9.31278 82.294 8.7421C82.9462 8.17142 83.1907 7.43769 83.1907 6.45937C83.1907 5.39954 82.8646 4.6658 82.2124 4.09512C81.5602 3.60597 80.5819 3.27986 79.359 3.27986H75.6904V9.55736ZM75.6904 11.5955V18.6067H80.745C81.9678 18.6067 82.8646 18.2806 83.5168 17.7099C84.1691 17.1393 84.4952 16.2425 84.4952 15.1826C84.4952 14.1228 84.1691 13.226 83.5168 12.5738C82.8646 11.9216 81.9678 11.5955 80.745 11.514H80.5819H75.6904V11.5955Z" fill="#B3B3B3" fill-opacity="0.6"/>
<path d="M101.126 8.33453H96.3977V20.7265H93.7889V8.33453H89.0604V6.29639H101.126V8.33453Z" fill="#B3B3B3" fill-opacity="0.6"/>
<path d="M150.512 14.5304C150.593 16.4055 149.941 17.9545 148.637 19.1773C147.332 20.4002 145.62 21.0524 143.419 21.0524C141.218 21.0524 139.424 20.2372 138.038 18.6882C136.652 17.1392 136 15.1826 136 12.7368V9.31271C136 6.94846 136.652 4.91031 138.038 3.36132C139.424 1.81233 141.218 0.99707 143.419 0.99707C145.62 0.99707 147.332 1.56775 148.637 2.70911C149.941 3.85048 150.593 5.39947 150.512 7.35609V7.43762H147.984C147.984 6.05168 147.577 4.99184 146.761 4.17658C145.946 3.36132 144.805 2.95369 143.337 2.95369C141.87 2.95369 140.729 3.52437 139.832 4.74726C138.935 5.88862 138.527 7.35609 138.527 9.14966V12.6553C138.527 14.4488 138.935 15.9163 139.832 17.0577C140.729 18.199 141.87 18.8512 143.337 18.8512C144.805 18.8512 145.946 18.4436 146.761 17.7099C147.577 16.8946 147.984 15.8348 147.984 14.4488H150.512V14.5304Z" fill="#B3B3B3" fill-opacity="0.6"/>
<path d="M165.92 14.0413C165.92 16.161 165.431 17.7915 164.452 19.0959C163.474 20.4003 162.088 20.971 160.295 20.971C159.398 20.971 158.664 20.8079 157.93 20.5634C157.278 20.2373 156.707 19.8296 156.218 19.259V26.2702H153.609V6.29634H155.648L156.055 8.17143C156.544 7.4377 157.115 6.94854 157.849 6.62244C158.583 6.29634 159.398 6.05176 160.295 6.05176C162.088 6.05176 163.474 6.78549 164.452 8.17143C165.431 9.55737 165.92 11.4325 165.92 13.7967V14.0413ZM163.311 13.7967C163.311 12.1662 162.985 10.7803 162.333 9.80195C161.681 8.82364 160.702 8.25296 159.479 8.25296C158.746 8.25296 158.093 8.41601 157.523 8.74211C156.952 9.06822 156.544 9.55737 156.218 10.1281V17.1393C156.544 17.71 156.952 18.1991 157.523 18.5252C158.093 18.8513 158.746 19.0144 159.479 19.0144C160.702 19.0144 161.681 18.5252 162.333 17.6284C162.985 16.7317 163.311 15.5088 163.311 14.1228V13.7967Z" fill="#B3B3B3" fill-opacity="0.6"/>
<path d="M215.43 1.32324V20.7264H212.821V12.6553C212.006 12.8999 211.191 13.063 210.375 13.226C209.56 13.3076 208.663 13.3891 207.522 13.3891C205.402 13.3891 203.772 12.8999 202.631 12.0031C201.489 11.1064 201 9.55736 201 7.43769V1.32324H203.609V7.43769C203.609 8.90515 203.935 9.88346 204.506 10.4541C205.158 11.0248 206.136 11.2694 207.441 11.2694C208.337 11.2694 209.234 11.1879 210.131 11.1064C210.946 10.9433 211.843 10.7802 212.74 10.5357V1.32324H215.43Z" fill="#B3B3B3" fill-opacity="0.6"/>
<path d="M230.675 8.33453H225.947V20.7265H223.338V8.33453H218.609V6.29639H230.675V8.33453Z" fill="#B3B3B3" fill-opacity="0.6"/>
<path d="M279.675 20.7264H277.066V3.36139H267.609V20.7264H265V1.32324H279.675V20.7264Z" fill="#B3B3B3" fill-opacity="0.6"/>
<path d="M294.92 8.33453H290.192V20.7265H287.583V8.33453H282.854V6.29639H294.92V8.33453Z" fill="#B3B3B3" fill-opacity="0.6"/>
<path d="M344.512 14.5301C344.593 16.4052 343.941 17.9542 342.637 19.1771C341.332 20.4 339.62 21.0522 337.419 21.0522C335.218 21.0522 333.424 20.2369 332.038 18.6879C330.652 17.139 330 15.1823 330 12.7366V9.31247C330 6.94822 330.652 4.91007 332.038 3.36108C333.424 1.81209 335.218 0.996826 337.419 0.996826C339.62 0.996826 341.332 1.56751 342.637 2.70887C343.941 3.85023 344.593 5.39922 344.512 7.35585V7.43737H341.984C341.984 6.05143 341.577 4.9916 340.761 4.17634C339.946 3.36108 338.805 2.95345 337.337 2.95345C335.87 2.95345 334.729 3.52413 333.832 4.74702C332.935 5.88838 332.527 7.35585 332.527 9.14942V12.655C332.527 14.4486 332.935 15.9161 333.832 17.0574C334.729 18.1988 335.87 18.851 337.337 18.851C338.805 18.851 339.946 18.4434 340.761 17.7096C341.577 16.8944 341.984 15.8345 341.984 14.4486H344.512V14.5301Z" fill="#B3B3B3" fill-opacity="0.6"/>
<path d="M353.887 6.05149C355.762 6.05149 357.148 6.7037 358.208 8.08964C359.268 9.47558 359.838 11.1876 359.838 13.3888V13.7149C359.838 15.8346 359.268 17.6282 358.126 19.0141C356.985 20.4 355.436 21.0523 353.398 21.0523C351.36 21.0523 349.811 20.4 348.669 19.0141C347.528 17.6282 346.957 15.9161 346.957 13.7149V13.3888C346.957 13.3073 346.957 13.2258 346.957 13.2258C346.957 13.1442 346.957 13.1442 346.957 13.0627V9.96473C346.957 7.19285 347.528 5.23623 348.588 3.93182C349.648 2.6274 351.278 1.97519 353.398 1.81214C354.621 1.73062 355.599 1.56756 356.251 1.32299C356.903 1.07841 357.229 0.670779 357.229 0.100098H359.268V0.181624C359.349 1.56756 358.86 2.54587 357.882 3.11656C356.903 3.68724 355.517 4.01334 353.642 4.01334C352.256 4.01334 351.196 4.42097 350.381 5.1547C349.566 5.88844 349.158 6.94827 349.158 8.33421V8.41574C349.647 7.76353 350.381 7.19285 351.196 6.78522C352.012 6.37759 352.99 6.05149 353.887 6.05149ZM353.398 8.08964C352.175 8.08964 351.196 8.57879 350.544 9.5571C349.892 10.5354 349.566 11.8398 349.566 13.3073V13.6334C349.566 15.1824 349.892 16.4053 350.544 17.3836C351.196 18.3619 352.175 18.8511 353.398 18.8511C354.621 18.8511 355.599 18.3619 356.251 17.3836C356.903 16.4053 357.229 15.1009 357.229 13.6334V13.3073C357.229 11.7583 356.903 10.5354 356.251 9.5571C355.599 8.57879 354.621 8.08964 353.398 8.08964Z" fill="#B3B3B3" fill-opacity="0.6"/>
<path d="M394 20.7264V1.32324H400.359C402.397 1.32324 403.946 1.73087 405.088 2.62766C406.229 3.52444 406.8 4.82886 406.8 6.5409C406.8 7.35616 406.555 8.08989 406.066 8.82363C405.577 9.55736 404.843 9.96499 404.028 10.3726C405.332 10.5357 406.31 11.1064 407.044 12.0031C407.778 12.8999 408.186 14.0413 408.186 15.2642C408.186 17.0577 407.615 18.3622 406.473 19.3405C405.332 20.3188 403.783 20.7264 401.745 20.7264H394ZM396.69 9.55736H400.93C401.908 9.55736 402.723 9.31278 403.294 8.7421C403.946 8.17142 404.191 7.43769 404.191 6.45937C404.191 5.39954 403.865 4.6658 403.212 4.09512C402.56 3.60597 401.582 3.27986 400.359 3.27986H396.69V9.55736ZM396.69 11.5955V18.6067H401.745C402.968 18.6067 403.865 18.2806 404.517 17.7099C405.169 17.1393 405.495 16.2425 405.495 15.1826C405.495 14.1228 405.169 13.226 404.517 12.5738C403.865 11.9216 402.968 11.5955 401.745 11.514H401.582H396.69V11.5955Z" fill="#B3B3B3" fill-opacity="0.6"/>
<path d="M416.745 18.9326C417.561 18.9326 418.294 18.688 418.865 18.1174C419.436 17.5467 419.762 16.8945 419.762 16.1607H422.126V16.2423C422.126 17.4652 421.637 18.6065 420.496 19.5848C419.354 20.5631 418.131 21.0523 416.664 21.0523C414.626 21.0523 413.077 20.4001 411.935 19.0141C410.794 17.6282 410.305 15.9162 410.305 13.878V13.3073C410.305 11.2692 410.876 9.55714 411.935 8.1712C413.077 6.78526 414.626 6.13306 416.582 6.13306C418.213 6.13306 419.517 6.62221 420.496 7.60052C421.474 8.57883 422.045 9.80172 421.963 11.2692V11.3507H419.599C419.599 10.4539 419.273 9.7202 418.702 9.06799C418.131 8.41578 417.398 8.1712 416.501 8.1712C415.196 8.1712 414.3 8.66036 413.647 9.63867C413.077 10.617 412.751 11.8399 412.751 13.3073V13.878C412.751 15.3455 413.077 16.5684 413.647 17.5467C414.544 18.4435 415.441 18.9326 416.745 18.9326Z" fill="#B3B3B3" fill-opacity="0.6"/>
<path d="M26.1071 130.296C24.2818 130.296 22.5058 130.012 20.7791 129.445C19.0771 128.878 17.6834 128.113 16.5981 127.151L18.3001 124.228C19.1634 125.042 20.2858 125.708 21.6671 126.226C23.0484 126.744 24.5284 127.003 26.1071 127.003C28.0311 127.003 29.5234 126.596 30.5841 125.782C31.6694 124.943 32.2121 123.821 32.2121 122.415C32.2121 121.058 31.6941 119.973 30.6581 119.159C29.6468 118.32 28.0311 117.901 25.8111 117.901H23.7391V115.311L31.4351 105.839L31.9531 107.319H17.7821V104.1H34.8761V106.616L27.2171 116.051L25.2931 114.904H26.5141C29.6468 114.904 31.9901 115.607 33.5441 117.013C35.1228 118.419 35.9121 120.207 35.9121 122.378C35.9121 123.833 35.5544 125.165 34.8391 126.374C34.1238 127.583 33.0384 128.545 31.5831 129.26C30.1524 129.951 28.3271 130.296 26.1071 130.296Z" fill="#292C33" fill-opacity="0.6"/>
<path d="M13.4555 183V158.58L15.0465 160.319H7.6095V157.1H17.1185V183H13.4555ZM33.3658 183.296C31.3431 183.296 29.5301 182.778 27.9268 181.742C26.3481 180.706 25.0901 179.201 24.1528 177.228C23.2401 175.255 22.7838 172.862 22.7838 170.05C22.7838 167.238 23.2401 164.845 24.1528 162.872C25.0901 160.899 26.3481 159.394 27.9268 158.358C29.5301 157.322 31.3431 156.804 33.3658 156.804C35.3638 156.804 37.1645 157.322 38.7678 158.358C40.3711 159.394 41.6291 160.899 42.5418 162.872C43.4545 164.845 43.9108 167.238 43.9108 170.05C43.9108 172.862 43.4545 175.255 42.5418 177.228C41.6291 179.201 40.3711 180.706 38.7678 181.742C37.1645 182.778 35.3638 183.296 33.3658 183.296ZM33.3658 180.003C34.7225 180.003 35.9065 179.633 36.9178 178.893C37.9538 178.153 38.7555 177.043 39.3228 175.563C39.9148 174.083 40.2108 172.245 40.2108 170.05C40.2108 167.855 39.9148 166.017 39.3228 164.537C38.7555 163.057 37.9538 161.947 36.9178 161.207C35.9065 160.467 34.7225 160.097 33.3658 160.097C32.0091 160.097 30.8128 160.467 29.7768 161.207C28.7408 161.947 27.9268 163.057 27.3348 164.537C26.7675 166.017 26.4838 167.855 26.4838 170.05C26.4838 172.245 26.7675 174.083 27.3348 175.563C27.9268 177.043 28.7408 178.153 29.7768 178.893C30.8128 179.633 32.0091 180.003 33.3658 180.003Z" fill="#292C33" fill-opacity="0.6"/>
<path d="M14.2382 236V211.58L15.8292 213.319H8.39221V210.1H17.9012V236H14.2382ZM28.0435 236L39.0325 211.654L39.9945 213.319H24.6025L26.4525 211.506V217.944H22.9005V210.1H42.4365V212.616L31.9655 236H28.0435Z" fill="#292C33" fill-opacity="0.6"/>
<path d="M4.7318 294V291.484L15.2768 281.309C16.2141 280.421 16.9048 279.644 17.3488 278.978C17.8175 278.287 18.1258 277.658 18.2738 277.091C18.4465 276.499 18.5328 275.932 18.5328 275.389C18.5328 274.057 18.0641 273.009 17.1268 272.244C16.1895 271.479 14.8205 271.097 13.0198 271.097C11.6385 271.097 10.3928 271.331 9.2828 271.8C8.1728 272.244 7.2108 272.947 6.3968 273.909L3.8808 271.726C4.86747 270.468 6.18714 269.506 7.8398 268.84C9.51714 268.149 11.3548 267.804 13.3528 267.804C15.1535 267.804 16.7198 268.1 18.0518 268.692C19.3838 269.259 20.4075 270.086 21.1228 271.171C21.8628 272.256 22.2328 273.539 22.2328 275.019C22.2328 275.858 22.1218 276.684 21.8998 277.498C21.6778 278.312 21.2585 279.175 20.6418 280.088C20.0251 281.001 19.1371 282.024 17.9778 283.159L8.5798 292.224L7.6918 290.781H23.3428V294H4.7318ZM25.2922 287.636V285.046L38.5382 268.1H42.5342L29.3992 285.046L27.5122 284.454H48.1952V287.636H25.2922ZM39.6852 294V287.636L39.7962 284.454V278.83H43.2742V294H39.6852Z" fill="#292C33" fill-opacity="0.6"/>
<path d="M79.5305 123.636V121.046L92.7765 104.1H96.7725L83.6375 121.046L81.7505 120.454H102.434V123.636H79.5305ZM93.9235 130V123.636L94.0345 120.454V114.83H97.5125V130H93.9235Z" fill="#292C33" fill-opacity="0.6"/>
<path d="M82.4477 183V158.58L84.0387 160.319H76.6017V157.1H86.1107V183H82.4477ZM96.142 183V158.58L97.733 160.319H90.296V157.1H99.805V183H96.142Z" fill="#292C33" fill-opacity="0.6"/>
<path d="M77.3891 236V211.58L78.9801 213.319H71.5431V210.1H81.0521V236H77.3891ZM96.8184 236.296C94.7217 236.296 92.9087 235.988 91.3794 235.371C89.8501 234.754 88.6661 233.879 87.8274 232.744C86.9887 231.585 86.5694 230.228 86.5694 228.674C86.5694 227.145 86.9641 225.85 87.7534 224.789C88.5674 223.704 89.7391 222.89 91.2684 222.347C92.7977 221.78 94.6477 221.496 96.8184 221.496C98.9891 221.496 100.839 221.78 102.368 222.347C103.922 222.89 105.106 223.704 105.92 224.789C106.734 225.874 107.141 227.169 107.141 228.674C107.141 230.228 106.722 231.585 105.883 232.744C105.045 233.879 103.848 234.754 102.294 235.371C100.74 235.988 98.9151 236.296 96.8184 236.296ZM96.8184 233.299C98.8904 233.299 100.506 232.88 101.665 232.041C102.849 231.178 103.441 230.018 103.441 228.563C103.441 227.132 102.849 226.01 101.665 225.196C100.506 224.357 98.8904 223.938 96.8184 223.938C94.7711 223.938 93.1677 224.357 92.0084 225.196C90.8491 226.01 90.2694 227.132 90.2694 228.563C90.2694 230.018 90.8491 231.178 92.0084 232.041C93.1677 232.88 94.7711 233.299 96.8184 233.299ZM96.8184 223.494C94.8451 223.494 93.1677 223.235 91.7864 222.717C90.4051 222.174 89.3444 221.41 88.6044 220.423C87.8644 219.412 87.4944 218.215 87.4944 216.834C87.4944 215.379 87.8767 214.133 88.6414 213.097C89.4307 212.036 90.5284 211.222 91.9344 210.655C93.3404 210.088 94.9684 209.804 96.8184 209.804C98.6931 209.804 100.333 210.088 101.739 210.655C103.145 211.222 104.243 212.036 105.032 213.097C105.822 214.133 106.216 215.379 106.216 216.834C106.216 218.215 105.846 219.412 105.106 220.423C104.366 221.41 103.293 222.174 101.887 222.717C100.481 223.235 98.7917 223.494 96.8184 223.494ZM96.8184 221.126C98.6191 221.126 100.025 220.756 101.036 220.016C102.072 219.276 102.59 218.265 102.59 216.982C102.59 215.675 102.06 214.651 100.999 213.911C99.9387 213.171 98.5451 212.801 96.8184 212.801C95.0917 212.801 93.7104 213.171 92.6744 213.911C91.6631 214.651 91.1574 215.675 91.1574 216.982C91.1574 218.265 91.6507 219.276 92.6374 220.016C93.6487 220.756 95.0424 221.126 96.8184 221.126Z" fill="#292C33" fill-opacity="0.6"/>
<path d="M70.6229 294V291.484L81.1679 281.309C82.1052 280.421 82.7959 279.644 83.2399 278.978C83.7086 278.287 84.0169 277.658 84.1649 277.091C84.3376 276.499 84.4239 275.932 84.4239 275.389C84.4239 274.057 83.9552 273.009 83.0179 272.244C82.0806 271.479 80.7116 271.097 78.9109 271.097C77.5296 271.097 76.2839 271.331 75.1739 271.8C74.0639 272.244 73.1019 272.947 72.2879 273.909L69.7719 271.726C70.7586 270.468 72.0782 269.506 73.7309 268.84C75.4082 268.149 77.2459 267.804 79.2439 267.804C81.0446 267.804 82.6109 268.1 83.9429 268.692C85.2749 269.259 86.2986 270.086 87.0139 271.171C87.7539 272.256 88.1239 273.539 88.1239 275.019C88.1239 275.858 88.0129 276.684 87.7909 277.498C87.5689 278.312 87.1496 279.175 86.5329 280.088C85.9162 281.001 85.0282 282.024 83.8689 283.159L74.4709 292.224L73.5829 290.781H89.2339V294H70.6229ZM100.638 294.296C98.8127 294.296 97.0367 294.012 95.31 293.445C93.608 292.878 92.2143 292.113 91.129 291.151L92.831 288.228C93.6943 289.042 94.8167 289.708 96.198 290.226C97.5793 290.744 99.047 291.003 100.601 291.003C102.574 291.003 104.091 290.584 105.152 289.745C106.213 288.906 106.743 287.784 106.743 286.378C106.743 285.416 106.509 284.577 106.04 283.862C105.571 283.147 104.757 282.604 103.598 282.234C102.463 281.839 100.897 281.642 98.899 281.642H93.016L94.385 268.1H109V271.319H95.754L97.678 269.506L96.605 280.199L94.681 278.423H99.676C102.266 278.423 104.35 278.756 105.929 279.422C107.508 280.088 108.655 281.013 109.37 282.197C110.085 283.356 110.443 284.701 110.443 286.23C110.443 287.71 110.085 289.067 109.37 290.3C108.655 291.509 107.569 292.483 106.114 293.223C104.683 293.938 102.858 294.296 100.638 294.296Z" fill="#292C33" fill-opacity="0.6"/>
<path d="M196.707 294V291.484L207.252 281.309C208.19 280.421 208.88 279.644 209.324 278.978C209.793 278.287 210.101 277.658 210.249 277.091C210.422 276.499 210.508 275.932 210.508 275.389C210.508 274.057 210.04 273.009 209.102 272.244C208.165 271.479 206.796 271.097 204.995 271.097C203.614 271.097 202.368 271.331 201.258 271.8C200.148 272.244 199.186 272.947 198.372 273.909L195.856 271.726C196.843 270.468 198.163 269.506 199.815 268.84C201.493 268.149 203.33 267.804 205.328 267.804C207.129 267.804 208.695 268.1 210.027 268.692C211.359 269.259 212.383 270.086 213.098 271.171C213.838 272.256 214.208 273.539 214.208 275.019C214.208 275.858 214.097 276.684 213.875 277.498C213.653 278.312 213.234 279.175 212.617 280.088C212.001 281.001 211.113 282.024 209.953 283.159L200.555 292.224L199.667 290.781H215.318V294H196.707ZM222.801 294L233.79 269.654L234.752 271.319H219.36L221.21 269.506V275.944H217.658V268.1H237.194V270.616L226.723 294H222.801Z" fill="#292C33" fill-opacity="0.6"/>
<path d="M257.84 294V291.484L268.385 281.309C269.323 280.421 270.013 279.644 270.457 278.978C270.926 278.287 271.234 277.658 271.382 277.091C271.555 276.499 271.641 275.932 271.641 275.389C271.641 274.057 271.173 273.009 270.235 272.244C269.298 271.479 267.929 271.097 266.128 271.097C264.747 271.097 263.501 271.331 262.391 271.8C261.281 272.244 260.319 272.947 259.505 273.909L256.989 271.726C257.976 270.468 259.296 269.506 260.948 268.84C262.626 268.149 264.463 267.804 266.461 267.804C268.262 267.804 269.828 268.1 271.16 268.692C272.492 269.259 273.516 270.086 274.231 271.171C274.971 272.256 275.341 273.539 275.341 275.019C275.341 275.858 275.23 276.684 275.008 277.498C274.786 278.312 274.367 279.175 273.75 280.088C273.134 281.001 272.246 282.024 271.086 283.159L261.688 292.224L260.8 290.781H276.451V294H257.84ZM289.594 294.296C287.498 294.296 285.685 293.988 284.155 293.371C282.626 292.754 281.442 291.879 280.603 290.744C279.765 289.585 279.345 288.228 279.345 286.674C279.345 285.145 279.74 283.85 280.529 282.789C281.343 281.704 282.515 280.89 284.044 280.347C285.574 279.78 287.424 279.496 289.594 279.496C291.765 279.496 293.615 279.78 295.144 280.347C296.698 280.89 297.882 281.704 298.696 282.789C299.51 283.874 299.917 285.169 299.917 286.674C299.917 288.228 299.498 289.585 298.659 290.744C297.821 291.879 296.624 292.754 295.07 293.371C293.516 293.988 291.691 294.296 289.594 294.296ZM289.594 291.299C291.666 291.299 293.282 290.88 294.441 290.041C295.625 289.178 296.217 288.018 296.217 286.563C296.217 285.132 295.625 284.01 294.441 283.196C293.282 282.357 291.666 281.938 289.594 281.938C287.547 281.938 285.944 282.357 284.784 283.196C283.625 284.01 283.045 285.132 283.045 286.563C283.045 288.018 283.625 289.178 284.784 290.041C285.944 290.88 287.547 291.299 289.594 291.299ZM289.594 281.494C287.621 281.494 285.944 281.235 284.562 280.717C283.181 280.174 282.12 279.41 281.38 278.423C280.64 277.412 280.27 276.215 280.27 274.834C280.27 273.379 280.653 272.133 281.417 271.097C282.207 270.036 283.304 269.222 284.71 268.655C286.116 268.088 287.744 267.804 289.594 267.804C291.469 267.804 293.109 268.088 294.515 268.655C295.921 269.222 297.019 270.036 297.808 271.097C298.598 272.133 298.992 273.379 298.992 274.834C298.992 276.215 298.622 277.412 297.882 278.423C297.142 279.41 296.069 280.174 294.663 280.717C293.257 281.235 291.568 281.494 289.594 281.494ZM289.594 279.126C291.395 279.126 292.801 278.756 293.812 278.016C294.848 277.276 295.366 276.265 295.366 274.982C295.366 273.675 294.836 272.651 293.775 271.911C292.715 271.171 291.321 270.801 289.594 270.801C287.868 270.801 286.486 271.171 285.45 271.911C284.439 272.651 283.933 273.675 283.933 274.982C283.933 276.265 284.427 277.276 285.413 278.016C286.425 278.756 287.818 279.126 289.594 279.126Z" fill="#292C33" fill-opacity="0.6"/>
<path d="M323.828 294V291.484L334.373 281.309C335.31 280.421 336.001 279.644 336.445 278.978C336.914 278.287 337.222 277.658 337.37 277.091C337.543 276.499 337.629 275.932 337.629 275.389C337.629 274.057 337.16 273.009 336.223 272.244C335.286 271.479 333.917 271.097 332.116 271.097C330.735 271.097 329.489 271.331 328.379 271.8C327.269 272.244 326.307 272.947 325.493 273.909L322.977 271.726C323.964 270.468 325.283 269.506 326.936 268.84C328.613 268.149 330.451 267.804 332.449 267.804C334.25 267.804 335.816 268.1 337.148 268.692C338.48 269.259 339.504 270.086 340.219 271.171C340.959 272.256 341.329 273.539 341.329 275.019C341.329 275.858 341.218 276.684 340.996 277.498C340.774 278.312 340.355 279.175 339.738 280.088C339.121 281.001 338.233 282.024 337.074 283.159L327.676 292.224L326.788 290.781H342.439V294H323.828ZM353.88 267.804C356.223 267.804 358.197 268.31 359.8 269.321C361.428 270.332 362.661 271.8 363.5 273.724C364.339 275.623 364.758 277.954 364.758 280.717C364.758 283.652 364.24 286.131 363.204 288.154C362.168 290.177 360.737 291.706 358.912 292.742C357.087 293.778 354.953 294.296 352.511 294.296C351.302 294.296 350.131 294.173 348.996 293.926C347.886 293.679 346.912 293.297 346.073 292.779L347.479 289.893C348.17 290.337 348.934 290.658 349.773 290.855C350.636 291.028 351.537 291.114 352.474 291.114C355.089 291.114 357.173 290.3 358.727 288.672C360.281 287.019 361.058 284.577 361.058 281.346C361.058 280.828 361.033 280.211 360.984 279.496C360.935 278.781 360.824 278.078 360.651 277.387L361.872 278.645C361.527 279.78 360.947 280.742 360.133 281.531C359.344 282.296 358.382 282.875 357.247 283.27C356.137 283.64 354.916 283.825 353.584 283.825C351.882 283.825 350.365 283.504 349.033 282.863C347.701 282.222 346.653 281.321 345.888 280.162C345.123 278.978 344.741 277.584 344.741 275.981C344.741 274.304 345.136 272.861 345.925 271.652C346.739 270.419 347.837 269.469 349.218 268.803C350.624 268.137 352.178 267.804 353.88 267.804ZM354.028 270.801C352.918 270.801 351.931 271.011 351.068 271.43C350.205 271.849 349.526 272.429 349.033 273.169C348.564 273.909 348.33 274.797 348.33 275.833C348.33 277.362 348.86 278.583 349.921 279.496C350.982 280.384 352.412 280.828 354.213 280.828C355.397 280.828 356.433 280.606 357.321 280.162C358.234 279.718 358.937 279.114 359.43 278.349C359.948 277.584 360.207 276.733 360.207 275.796C360.207 274.883 359.973 274.057 359.504 273.317C359.035 272.577 358.345 271.973 357.432 271.504C356.519 271.035 355.385 270.801 354.028 270.801Z" fill="#292C33" fill-opacity="0.6"/>
<path d="M393.768 294.296C391.942 294.296 390.166 294.012 388.44 293.445C386.738 292.878 385.344 292.113 384.259 291.151L385.961 288.228C386.824 289.042 387.946 289.708 389.328 290.226C390.709 290.744 392.189 291.003 393.768 291.003C395.692 291.003 397.184 290.596 398.245 289.782C399.33 288.943 399.873 287.821 399.873 286.415C399.873 285.058 399.355 283.973 398.319 283.159C397.307 282.32 395.692 281.901 393.472 281.901H391.4V279.311L399.096 269.839L399.614 271.319H385.443V268.1H402.537V270.616L394.878 280.051L392.954 278.904H394.175C397.307 278.904 399.651 279.607 401.205 281.013C402.783 282.419 403.573 284.207 403.573 286.378C403.573 287.833 403.215 289.165 402.5 290.374C401.784 291.583 400.699 292.545 399.244 293.26C397.813 293.951 395.988 294.296 393.768 294.296ZM417.606 294.296C415.583 294.296 413.77 293.778 412.167 292.742C410.588 291.706 409.33 290.201 408.393 288.228C407.48 286.255 407.024 283.862 407.024 281.05C407.024 278.238 407.48 275.845 408.393 273.872C409.33 271.899 410.588 270.394 412.167 269.358C413.77 268.322 415.583 267.804 417.606 267.804C419.604 267.804 421.404 268.322 423.008 269.358C424.611 270.394 425.869 271.899 426.782 273.872C427.694 275.845 428.151 278.238 428.151 281.05C428.151 283.862 427.694 286.255 426.782 288.228C425.869 290.201 424.611 291.706 423.008 292.742C421.404 293.778 419.604 294.296 417.606 294.296ZM417.606 291.003C418.962 291.003 420.146 290.633 421.158 289.893C422.194 289.153 422.995 288.043 423.563 286.563C424.155 285.083 424.451 283.245 424.451 281.05C424.451 278.855 424.155 277.017 423.563 275.537C422.995 274.057 422.194 272.947 421.158 272.207C420.146 271.467 418.962 271.097 417.606 271.097C416.249 271.097 415.053 271.467 414.017 272.207C412.981 272.947 412.167 274.057 411.575 275.537C411.007 277.017 410.724 278.855 410.724 281.05C410.724 283.245 411.007 285.083 411.575 286.563C412.167 288.043 412.981 289.153 414.017 289.893C415.053 290.633 416.249 291.003 417.606 291.003Z" fill="#292C33" fill-opacity="0.6"/>
<path d="M153.515 130.296C151.69 130.296 149.914 130.012 148.187 129.445C146.485 128.878 145.091 128.113 144.006 127.151L145.708 124.228C146.571 125.042 147.694 125.708 149.075 126.226C150.456 126.744 151.924 127.003 153.478 127.003C155.451 127.003 156.968 126.584 158.029 125.745C159.09 124.906 159.62 123.784 159.62 122.378C159.62 121.416 159.386 120.577 158.917 119.862C158.448 119.147 157.634 118.604 156.475 118.234C155.34 117.839 153.774 117.642 151.776 117.642H145.893L147.262 104.1H161.877V107.319H148.631L150.555 105.506L149.482 116.199L147.558 114.423H152.553C155.143 114.423 157.227 114.756 158.806 115.422C160.385 116.088 161.532 117.013 162.247 118.197C162.962 119.356 163.32 120.701 163.32 122.23C163.32 123.71 162.962 125.067 162.247 126.3C161.532 127.509 160.446 128.483 158.991 129.223C157.56 129.938 155.735 130.296 153.515 130.296Z" fill="#292C33" fill-opacity="0.6"/>
<path d="M143.172 183V158.58L144.763 160.319H137.326V157.1H146.835V183H143.172ZM152.093 183V180.484L162.638 170.309C163.575 169.421 164.266 168.644 164.71 167.978C165.179 167.287 165.487 166.658 165.635 166.091C165.808 165.499 165.894 164.932 165.894 164.389C165.894 163.057 165.425 162.009 164.488 161.244C163.551 160.479 162.182 160.097 160.381 160.097C159 160.097 157.754 160.331 156.644 160.8C155.534 161.244 154.572 161.947 153.758 162.909L151.242 160.726C152.229 159.468 153.548 158.506 155.201 157.84C156.878 157.149 158.716 156.804 160.714 156.804C162.515 156.804 164.081 157.1 165.413 157.692C166.745 158.259 167.769 159.086 168.484 160.171C169.224 161.256 169.594 162.539 169.594 164.019C169.594 164.858 169.483 165.684 169.261 166.498C169.039 167.312 168.62 168.175 168.003 169.088C167.386 170.001 166.498 171.024 165.339 172.159L155.941 181.224L155.053 179.781H170.704V183H152.093Z" fill="#292C33" fill-opacity="0.6"/>
<path d="M142.377 236V211.58L143.968 213.319H136.531V210.1H146.04V236H142.377ZM160.104 209.804C162.448 209.804 164.421 210.31 166.024 211.321C167.652 212.332 168.886 213.8 169.724 215.724C170.563 217.623 170.982 219.954 170.982 222.717C170.982 225.652 170.464 228.131 169.428 230.154C168.392 232.177 166.962 233.706 165.136 234.742C163.311 235.778 161.177 236.296 158.735 236.296C157.527 236.296 156.355 236.173 155.22 235.926C154.11 235.679 153.136 235.297 152.297 234.779L153.703 231.893C154.394 232.337 155.159 232.658 155.997 232.855C156.861 233.028 157.761 233.114 158.698 233.114C161.313 233.114 163.397 232.3 164.951 230.672C166.505 229.019 167.282 226.577 167.282 223.346C167.282 222.828 167.258 222.211 167.208 221.496C167.159 220.781 167.048 220.078 166.875 219.387L168.096 220.645C167.751 221.78 167.171 222.742 166.357 223.531C165.568 224.296 164.606 224.875 163.471 225.27C162.361 225.64 161.14 225.825 159.808 225.825C158.106 225.825 156.589 225.504 155.257 224.863C153.925 224.222 152.877 223.321 152.112 222.162C151.348 220.978 150.965 219.584 150.965 217.981C150.965 216.304 151.36 214.861 152.149 213.652C152.963 212.419 154.061 211.469 155.442 210.803C156.848 210.137 158.402 209.804 160.104 209.804ZM160.252 212.801C159.142 212.801 158.156 213.011 157.292 213.43C156.429 213.849 155.751 214.429 155.257 215.169C154.789 215.909 154.554 216.797 154.554 217.833C154.554 219.362 155.085 220.583 156.145 221.496C157.206 222.384 158.637 222.828 160.437 222.828C161.621 222.828 162.657 222.606 163.545 222.162C164.458 221.718 165.161 221.114 165.654 220.349C166.172 219.584 166.431 218.733 166.431 217.796C166.431 216.883 166.197 216.057 165.728 215.317C165.26 214.577 164.569 213.973 163.656 213.504C162.744 213.035 161.609 212.801 160.252 212.801Z" fill="#292C33" fill-opacity="0.6"/>
<path d="M133.846 294V291.484L144.391 281.309C145.328 280.421 146.019 279.644 146.463 278.978C146.932 278.287 147.24 277.658 147.388 277.091C147.561 276.499 147.647 275.932 147.647 275.389C147.647 274.057 147.178 273.009 146.241 272.244C145.304 271.479 143.935 271.097 142.134 271.097C140.753 271.097 139.507 271.331 138.397 271.8C137.287 272.244 136.325 272.947 135.511 273.909L132.995 271.726C133.982 270.468 135.301 269.506 136.954 268.84C138.631 268.149 140.469 267.804 142.467 267.804C144.268 267.804 145.834 268.1 147.166 268.692C148.498 269.259 149.522 270.086 150.237 271.171C150.977 272.256 151.347 273.539 151.347 275.019C151.347 275.858 151.236 276.684 151.014 277.498C150.792 278.312 150.373 279.175 149.756 280.088C149.139 281.001 148.251 282.024 147.092 283.159L137.694 292.224L136.806 290.781H152.457V294H133.846ZM166.341 294.296C164.047 294.296 162.086 293.79 160.458 292.779C158.83 291.768 157.584 290.312 156.721 288.413C155.882 286.489 155.463 284.146 155.463 281.383C155.463 278.448 155.981 275.969 157.017 273.946C158.053 271.923 159.496 270.394 161.346 269.358C163.196 268.322 165.317 267.804 167.71 267.804C168.943 267.804 170.115 267.927 171.225 268.174C172.36 268.421 173.334 268.803 174.148 269.321L172.742 272.207C172.076 271.738 171.311 271.418 170.448 271.245C169.609 271.072 168.721 270.986 167.784 270.986C165.145 270.986 163.048 271.812 161.494 273.465C159.94 275.093 159.163 277.523 159.163 280.754C159.163 281.272 159.188 281.889 159.237 282.604C159.286 283.319 159.41 284.022 159.607 284.713L158.349 283.455C158.719 282.32 159.299 281.371 160.088 280.606C160.902 279.817 161.864 279.237 162.974 278.867C164.109 278.472 165.33 278.275 166.637 278.275C168.364 278.275 169.893 278.596 171.225 279.237C172.557 279.878 173.605 280.791 174.37 281.975C175.135 283.134 175.517 284.516 175.517 286.119C175.517 287.772 175.11 289.215 174.296 290.448C173.482 291.681 172.384 292.631 171.003 293.297C169.622 293.963 168.068 294.296 166.341 294.296ZM166.193 291.299C167.328 291.299 168.314 291.089 169.153 290.67C170.016 290.251 170.695 289.671 171.188 288.931C171.681 288.166 171.928 287.278 171.928 286.267C171.928 284.738 171.398 283.529 170.337 282.641C169.276 281.728 167.833 281.272 166.008 281.272C164.824 281.272 163.788 281.494 162.9 281.938C162.012 282.382 161.309 282.986 160.791 283.751C160.298 284.491 160.051 285.342 160.051 286.304C160.051 287.192 160.285 288.018 160.754 288.783C161.223 289.523 161.913 290.127 162.826 290.596C163.739 291.065 164.861 291.299 166.193 291.299Z" fill="white"/>
<path d="M220.736 130.296C218.442 130.296 216.481 129.79 214.853 128.779C213.225 127.768 211.979 126.312 211.116 124.413C210.277 122.489 209.858 120.146 209.858 117.383C209.858 114.448 210.376 111.969 211.412 109.946C212.448 107.923 213.891 106.394 215.741 105.358C217.591 104.322 219.712 103.804 222.105 103.804C223.338 103.804 224.51 103.927 225.62 104.174C226.755 104.421 227.729 104.803 228.543 105.321L227.137 108.207C226.471 107.738 225.706 107.418 224.843 107.245C224.004 107.072 223.116 106.986 222.179 106.986C219.54 106.986 217.443 107.812 215.889 109.465C214.335 111.093 213.558 113.523 213.558 116.754C213.558 117.272 213.583 117.889 213.632 118.604C213.681 119.319 213.805 120.022 214.002 120.713L212.744 119.455C213.114 118.32 213.694 117.371 214.483 116.606C215.297 115.817 216.259 115.237 217.369 114.867C218.504 114.472 219.725 114.275 221.032 114.275C222.759 114.275 224.288 114.596 225.62 115.237C226.952 115.878 228 116.791 228.765 117.975C229.53 119.134 229.912 120.516 229.912 122.119C229.912 123.772 229.505 125.215 228.691 126.448C227.877 127.681 226.779 128.631 225.398 129.297C224.017 129.963 222.463 130.296 220.736 130.296ZM220.588 127.299C221.723 127.299 222.709 127.089 223.548 126.67C224.411 126.251 225.09 125.671 225.583 124.931C226.076 124.166 226.323 123.278 226.323 122.267C226.323 120.738 225.793 119.529 224.732 118.641C223.671 117.728 222.228 117.272 220.403 117.272C219.219 117.272 218.183 117.494 217.295 117.938C216.407 118.382 215.704 118.986 215.186 119.751C214.693 120.491 214.446 121.342 214.446 122.304C214.446 123.192 214.68 124.018 215.149 124.783C215.618 125.523 216.308 126.127 217.221 126.596C218.134 127.065 219.256 127.299 220.588 127.299Z" fill="#292C33" fill-opacity="0.6"/>
<path d="M208.208 183V158.58L209.799 160.319H202.362V157.1H211.871V183H208.208ZM225.454 183.296C223.629 183.296 221.853 183.012 220.126 182.445C218.424 181.878 217.031 181.113 215.945 180.151L217.647 177.228C218.511 178.042 219.633 178.708 221.014 179.226C222.396 179.744 223.876 180.003 225.454 180.003C227.378 180.003 228.871 179.596 229.931 178.782C231.017 177.943 231.559 176.821 231.559 175.415C231.559 174.058 231.041 172.973 230.005 172.159C228.994 171.32 227.378 170.901 225.158 170.901H223.086V168.311L230.782 158.839L231.3 160.319H217.129V157.1H234.223V159.616L226.564 169.051L224.64 167.904H225.861C228.994 167.904 231.337 168.607 232.891 170.013C234.47 171.419 235.259 173.207 235.259 175.378C235.259 176.833 234.902 178.165 234.186 179.374C233.471 180.583 232.386 181.545 230.93 182.26C229.5 182.951 227.674 183.296 225.454 183.296Z" fill="#292C33" fill-opacity="0.6"/>
<path d="M196.425 236V233.484L206.97 223.309C207.907 222.421 208.598 221.644 209.042 220.978C209.51 220.287 209.819 219.658 209.967 219.091C210.139 218.499 210.226 217.932 210.226 217.389C210.226 216.057 209.757 215.009 208.82 214.244C207.882 213.479 206.513 213.097 204.713 213.097C203.331 213.097 202.086 213.331 200.976 213.8C199.866 214.244 198.904 214.947 198.09 215.909L195.574 213.726C196.56 212.468 197.88 211.506 199.533 210.84C201.21 210.149 203.048 209.804 205.046 209.804C206.846 209.804 208.413 210.1 209.745 210.692C211.077 211.259 212.1 212.086 212.816 213.171C213.556 214.256 213.926 215.539 213.926 217.019C213.926 217.858 213.815 218.684 213.593 219.498C213.371 220.312 212.951 221.175 212.335 222.088C211.718 223.001 210.83 224.024 209.671 225.159L200.273 234.224L199.385 232.781H215.036V236H196.425ZM228.624 236.296C226.601 236.296 224.788 235.778 223.185 234.742C221.606 233.706 220.348 232.201 219.411 230.228C218.498 228.255 218.042 225.862 218.042 223.05C218.042 220.238 218.498 217.845 219.411 215.872C220.348 213.899 221.606 212.394 223.185 211.358C224.788 210.322 226.601 209.804 228.624 209.804C230.622 209.804 232.422 210.322 234.026 211.358C235.629 212.394 236.887 213.899 237.8 215.872C238.712 217.845 239.169 220.238 239.169 223.05C239.169 225.862 238.712 228.255 237.8 230.228C236.887 232.201 235.629 233.706 234.026 234.742C232.422 235.778 230.622 236.296 228.624 236.296ZM228.624 233.003C229.98 233.003 231.164 232.633 232.176 231.893C233.212 231.153 234.013 230.043 234.581 228.563C235.173 227.083 235.469 225.245 235.469 223.05C235.469 220.855 235.173 219.017 234.581 217.537C234.013 216.057 233.212 214.947 232.176 214.207C231.164 213.467 229.98 213.097 228.624 213.097C227.267 213.097 226.071 213.467 225.035 214.207C223.999 214.947 223.185 216.057 222.593 217.537C222.025 219.017 221.742 220.855 221.742 223.05C221.742 225.245 222.025 227.083 222.593 228.563C223.185 230.043 223.999 231.153 225.035 231.893C226.071 232.633 227.267 233.003 228.624 233.003Z" fill="#292C33" fill-opacity="0.6"/>
<path d="M277.696 130L288.685 105.654L289.647 107.319H274.255L276.105 105.506V111.944H272.553V104.1H292.089V106.616L281.618 130H277.696Z" fill="#292C33" fill-opacity="0.6"/>
<path d="M269.419 183V158.58L271.01 160.319H263.573V157.1H273.082V183H269.419ZM278.378 176.636V174.046L291.624 157.1H295.62L282.485 174.046L280.598 173.454H301.281V176.636H278.378ZM292.771 183V176.636L292.882 173.454V167.83H296.36V183H292.771Z" fill="#292C33" fill-opacity="0.6"/>
<path d="M266.399 236V233.484L276.944 223.309C277.881 222.421 278.572 221.644 279.016 220.978C279.484 220.287 279.793 219.658 279.941 219.091C280.113 218.499 280.2 217.932 280.2 217.389C280.2 216.057 279.731 215.009 278.794 214.244C277.856 213.479 276.487 213.097 274.687 213.097C273.305 213.097 272.06 213.331 270.95 213.8C269.84 214.244 268.878 214.947 268.064 215.909L265.548 213.726C266.534 212.468 267.854 211.506 269.507 210.84C271.184 210.149 273.022 209.804 275.02 209.804C276.82 209.804 278.387 210.1 279.719 210.692C281.051 211.259 282.074 212.086 282.79 213.171C283.53 214.256 283.9 215.539 283.9 217.019C283.9 217.858 283.789 218.684 283.567 219.498C283.345 220.312 282.925 221.175 282.309 222.088C281.692 223.001 280.804 224.024 279.645 225.159L270.247 234.224L269.359 232.781H285.01V236H266.399ZM292.418 236V211.58L294.009 213.319H286.572V210.1H296.081V236H292.418Z" fill="#292C33" fill-opacity="0.6"/>
<path d="M345.295 78.0001V53.5801L346.886 55.3191H339.449V52.1001H348.958V78.0001H345.295Z" fill="#292C33" fill-opacity="0.6"/>
<path d="M345.971 130.296C343.875 130.296 342.062 129.988 340.532 129.371C339.003 128.754 337.819 127.879 336.98 126.744C336.142 125.585 335.722 124.228 335.722 122.674C335.722 121.145 336.117 119.85 336.906 118.789C337.72 117.704 338.892 116.89 340.421 116.347C341.951 115.78 343.801 115.496 345.971 115.496C348.142 115.496 349.992 115.78 351.521 116.347C353.075 116.89 354.259 117.704 355.073 118.789C355.887 119.874 356.294 121.169 356.294 122.674C356.294 124.228 355.875 125.585 355.036 126.744C354.198 127.879 353.001 128.754 351.447 129.371C349.893 129.988 348.068 130.296 345.971 130.296ZM345.971 127.299C348.043 127.299 349.659 126.88 350.818 126.041C352.002 125.178 352.594 124.018 352.594 122.563C352.594 121.132 352.002 120.01 350.818 119.196C349.659 118.357 348.043 117.938 345.971 117.938C343.924 117.938 342.321 118.357 341.161 119.196C340.002 120.01 339.422 121.132 339.422 122.563C339.422 124.018 340.002 125.178 341.161 126.041C342.321 126.88 343.924 127.299 345.971 127.299ZM345.971 117.494C343.998 117.494 342.321 117.235 340.939 116.717C339.558 116.174 338.497 115.41 337.757 114.423C337.017 113.412 336.647 112.215 336.647 110.834C336.647 109.379 337.03 108.133 337.794 107.097C338.584 106.036 339.681 105.222 341.087 104.655C342.493 104.088 344.121 103.804 345.971 103.804C347.846 103.804 349.486 104.088 350.892 104.655C352.298 105.222 353.396 106.036 354.185 107.097C354.975 108.133 355.369 109.379 355.369 110.834C355.369 112.215 354.999 113.412 354.259 114.423C353.519 115.41 352.446 116.174 351.04 116.717C349.634 117.235 347.945 117.494 345.971 117.494ZM345.971 115.126C347.772 115.126 349.178 114.756 350.189 114.016C351.225 113.276 351.743 112.265 351.743 110.982C351.743 109.675 351.213 108.651 350.152 107.911C349.092 107.171 347.698 106.801 345.971 106.801C344.245 106.801 342.863 107.171 341.827 107.911C340.816 108.651 340.31 109.675 340.31 110.982C340.31 112.265 340.804 113.276 341.79 114.016C342.802 114.756 344.195 115.126 345.971 115.126Z" fill="#292C33" fill-opacity="0.6"/>
<path d="M335.172 183V158.58L336.763 160.319H329.326V157.1H338.835V183H335.172ZM352.862 183.296C351.037 183.296 349.261 183.012 347.534 182.445C345.832 181.878 344.438 181.113 343.353 180.151L345.055 177.228C345.918 178.042 347.041 178.708 348.422 179.226C349.803 179.744 351.271 180.003 352.825 180.003C354.798 180.003 356.315 179.584 357.376 178.745C358.437 177.906 358.967 176.784 358.967 175.378C358.967 174.416 358.733 173.577 358.264 172.862C357.795 172.147 356.981 171.604 355.822 171.234C354.687 170.839 353.121 170.642 351.123 170.642H345.24L346.609 157.1H361.224V160.319H347.978L349.902 158.506L348.829 169.199L346.905 167.423H351.9C354.49 167.423 356.574 167.756 358.153 168.422C359.732 169.088 360.879 170.013 361.594 171.197C362.309 172.356 362.667 173.701 362.667 175.23C362.667 176.71 362.309 178.067 361.594 179.3C360.879 180.509 359.793 181.483 358.338 182.223C356.907 182.938 355.082 183.296 352.862 183.296Z" fill="#292C33" fill-opacity="0.6"/>
<path d="M326.623 236V233.484L337.168 223.309C338.105 222.421 338.796 221.644 339.24 220.978C339.709 220.287 340.017 219.658 340.165 219.091C340.338 218.499 340.424 217.932 340.424 217.389C340.424 216.057 339.955 215.009 339.018 214.244C338.081 213.479 336.712 213.097 334.911 213.097C333.53 213.097 332.284 213.331 331.174 213.8C330.064 214.244 329.102 214.947 328.288 215.909L325.772 213.726C326.759 212.468 328.078 211.506 329.731 210.84C331.408 210.149 333.246 209.804 335.244 209.804C337.045 209.804 338.611 210.1 339.943 210.692C341.275 211.259 342.299 212.086 343.014 213.171C343.754 214.256 344.124 215.539 344.124 217.019C344.124 217.858 344.013 218.684 343.791 219.498C343.569 220.312 343.15 221.175 342.533 222.088C341.916 223.001 341.028 224.024 339.869 225.159L330.471 234.224L329.583 232.781H345.234V236H326.623ZM347.869 236V233.484L358.414 223.309C359.351 222.421 360.042 221.644 360.486 220.978C360.955 220.287 361.263 219.658 361.411 219.091C361.584 218.499 361.67 217.932 361.67 217.389C361.67 216.057 361.201 215.009 360.264 214.244C359.327 213.479 357.958 213.097 356.157 213.097C354.776 213.097 353.53 213.331 352.42 213.8C351.31 214.244 350.348 214.947 349.534 215.909L347.018 213.726C348.005 212.468 349.324 211.506 350.977 210.84C352.654 210.149 354.492 209.804 356.49 209.804C358.291 209.804 359.857 210.1 361.189 210.692C362.521 211.259 363.545 212.086 364.26 213.171C365 214.256 365.37 215.539 365.37 217.019C365.37 217.858 365.259 218.684 365.037 219.498C364.815 220.312 364.396 221.175 363.779 222.088C363.162 223.001 362.274 224.024 361.115 225.159L351.717 234.224L350.829 232.781H366.48V236H347.869Z" fill="#292C33" fill-opacity="0.6"/>
<path d="M406.257 103.804C408.6 103.804 410.574 104.31 412.177 105.321C413.805 106.332 415.038 107.8 415.877 109.724C416.716 111.623 417.135 113.954 417.135 116.717C417.135 119.652 416.617 122.131 415.581 124.154C414.545 126.177 413.114 127.706 411.289 128.742C409.464 129.778 407.33 130.296 404.888 130.296C403.679 130.296 402.508 130.173 401.373 129.926C400.263 129.679 399.289 129.297 398.45 128.779L399.856 125.893C400.547 126.337 401.311 126.658 402.15 126.855C403.013 127.028 403.914 127.114 404.851 127.114C407.466 127.114 409.55 126.3 411.104 124.672C412.658 123.019 413.435 120.577 413.435 117.346C413.435 116.828 413.41 116.211 413.361 115.496C413.312 114.781 413.201 114.078 413.028 113.387L414.249 114.645C413.904 115.78 413.324 116.742 412.51 117.531C411.721 118.296 410.759 118.875 409.624 119.27C408.514 119.64 407.293 119.825 405.961 119.825C404.259 119.825 402.742 119.504 401.41 118.863C400.078 118.222 399.03 117.321 398.265 116.162C397.5 114.978 397.118 113.584 397.118 111.981C397.118 110.304 397.513 108.861 398.302 107.652C399.116 106.419 400.214 105.469 401.595 104.803C403.001 104.137 404.555 103.804 406.257 103.804ZM406.405 106.801C405.295 106.801 404.308 107.011 403.445 107.43C402.582 107.849 401.903 108.429 401.41 109.169C400.941 109.909 400.707 110.797 400.707 111.833C400.707 113.362 401.237 114.583 402.298 115.496C403.359 116.384 404.789 116.828 406.59 116.828C407.774 116.828 408.81 116.606 409.698 116.162C410.611 115.718 411.314 115.114 411.807 114.349C412.325 113.584 412.584 112.733 412.584 111.796C412.584 110.883 412.35 110.057 411.881 109.317C411.412 108.577 410.722 107.973 409.809 107.504C408.896 107.035 407.762 106.801 406.405 106.801Z" fill="#292C33" fill-opacity="0.6"/>
<path d="M395.377 183V158.58L396.968 160.319H389.531V157.1H399.04V183H395.377ZM415.583 183.296C413.289 183.296 411.328 182.79 409.7 181.779C408.072 180.768 406.827 179.312 405.963 177.413C405.125 175.489 404.705 173.146 404.705 170.383C404.705 167.448 405.223 164.969 406.259 162.946C407.295 160.923 408.738 159.394 410.588 158.358C412.438 157.322 414.56 156.804 416.952 156.804C418.186 156.804 419.357 156.927 420.467 157.174C421.602 157.421 422.576 157.803 423.39 158.321L421.984 161.207C421.318 160.738 420.554 160.418 419.69 160.245C418.852 160.072 417.964 159.986 417.026 159.986C414.387 159.986 412.29 160.812 410.736 162.465C409.182 164.093 408.405 166.523 408.405 169.754C408.405 170.272 408.43 170.889 408.479 171.604C408.529 172.319 408.652 173.022 408.849 173.713L407.591 172.455C407.961 171.32 408.541 170.371 409.33 169.606C410.144 168.817 411.106 168.237 412.216 167.867C413.351 167.472 414.572 167.275 415.879 167.275C417.606 167.275 419.135 167.596 420.467 168.237C421.799 168.878 422.848 169.791 423.612 170.975C424.377 172.134 424.759 173.516 424.759 175.119C424.759 176.772 424.352 178.215 423.538 179.448C422.724 180.681 421.627 181.631 420.245 182.297C418.864 182.963 417.31 183.296 415.583 183.296ZM415.435 180.299C416.57 180.299 417.557 180.089 418.395 179.67C419.259 179.251 419.937 178.671 420.43 177.931C420.924 177.166 421.17 176.278 421.17 175.267C421.17 173.738 420.64 172.529 419.579 171.641C418.519 170.728 417.076 170.272 415.25 170.272C414.066 170.272 413.03 170.494 412.142 170.938C411.254 171.382 410.551 171.986 410.033 172.751C409.54 173.491 409.293 174.342 409.293 175.304C409.293 176.192 409.528 177.018 409.996 177.783C410.465 178.523 411.156 179.127 412.068 179.596C412.981 180.065 414.103 180.299 415.435 180.299Z" fill="#292C33" fill-opacity="0.6"/>
<path d="M387.659 236V233.484L398.204 223.309C399.141 222.421 399.832 221.644 400.276 220.978C400.745 220.287 401.053 219.658 401.201 219.091C401.374 218.499 401.46 217.932 401.46 217.389C401.46 216.057 400.991 215.009 400.054 214.244C399.117 213.479 397.748 213.097 395.947 213.097C394.566 213.097 393.32 213.331 392.21 213.8C391.1 214.244 390.138 214.947 389.324 215.909L386.808 213.726C387.795 212.468 389.114 211.506 390.767 210.84C392.444 210.149 394.282 209.804 396.28 209.804C398.081 209.804 399.647 210.1 400.979 210.692C402.311 211.259 403.335 212.086 404.05 213.171C404.79 214.256 405.16 215.539 405.16 217.019C405.16 217.858 405.049 218.684 404.827 219.498C404.605 220.312 404.186 221.175 403.569 222.088C402.952 223.001 402.064 224.024 400.905 225.159L391.507 234.224L390.619 232.781H406.27V236H387.659ZM417.23 236.296C415.405 236.296 413.629 236.012 411.902 235.445C410.2 234.878 408.806 234.113 407.721 233.151L409.423 230.228C410.286 231.042 411.409 231.708 412.79 232.226C414.171 232.744 415.651 233.003 417.23 233.003C419.154 233.003 420.646 232.596 421.707 231.782C422.792 230.943 423.335 229.821 423.335 228.415C423.335 227.058 422.817 225.973 421.781 225.159C420.77 224.32 419.154 223.901 416.934 223.901H414.862V221.311L422.558 211.839L423.076 213.319H408.905V210.1H425.999V212.616L418.34 222.051L416.416 220.904H417.637C420.77 220.904 423.113 221.607 424.667 223.013C426.246 224.419 427.035 226.207 427.035 228.378C427.035 229.833 426.677 231.165 425.962 232.374C425.247 233.583 424.161 234.545 422.706 235.26C421.275 235.951 419.45 236.296 417.23 236.296Z" fill="#292C33" fill-opacity="0.6"/>
<path d="M397.746 78V75.484L408.291 65.309C409.228 64.421 409.919 63.644 410.363 62.978C410.832 62.2873 411.14 61.6583 411.288 61.091C411.461 60.499 411.547 59.9317 411.547 59.389C411.547 58.057 411.078 57.0087 410.141 56.244C409.204 55.4793 407.835 55.097 406.034 55.097C404.653 55.097 403.407 55.3313 402.297 55.8C401.187 56.244 400.225 56.947 399.411 57.909L396.895 55.726C397.882 54.468 399.201 53.506 400.854 52.84C402.531 52.1493 404.369 51.804 406.367 51.804C408.168 51.804 409.734 52.1 411.066 52.692C412.398 53.2593 413.422 54.0857 414.137 55.171C414.877 56.2563 415.247 57.539 415.247 59.019C415.247 59.8577 415.136 60.684 414.914 61.498C414.692 62.312 414.273 63.1753 413.656 64.088C413.039 65.0007 412.151 66.0243 410.992 67.159L401.594 76.224L400.706 74.781H416.357V78H397.746Z" fill="#292C33" fill-opacity="0.6"/>
</svg>
