<svg width="432" height="303" viewBox="0 0 432 303" fill="none" xmlns="http://www.w3.org/2000/svg">
<g clip-path="url(#clip0_3949_8020)">
<path d="M375 147H318V194H375V147Z" fill="#41A05C"/>
<path d="M55 200H-2V247H55V200Z" fill="#3C78EC"/>
<path d="M23.4574 20.7264H20.8486V3.36139H11.3916V20.7264H8.70117V1.32324H23.3759V20.7264H23.4574Z" fill="#B3B3B3"/>
<path d="M39.2734 20.7265H36.6645V14.612H30.224V20.7265H27.6152V6.29639H30.224V12.5739H36.6645V6.29639H39.2734V20.7265Z" fill="#B3B3B3"/>
<path d="M73.5 20.7264V1.32324H79.859C81.8972 1.32324 83.4462 1.73087 84.5875 2.62766C85.7289 3.52444 86.2996 4.82886 86.2996 6.5409C86.2996 7.35616 86.055 8.08989 85.5658 8.82363C85.0767 9.55736 84.3429 9.96499 83.5277 10.2911C84.8321 10.4541 85.8104 11.0248 86.5441 11.9216C87.2779 12.8184 87.6855 13.9598 87.6855 15.1826C87.6855 16.9762 87.1148 18.2806 85.9735 19.2589C84.8321 20.2373 83.2831 20.6449 81.245 20.6449H73.5V20.7264ZM76.1904 9.55736H80.4297C81.408 9.55736 82.2233 9.31278 82.794 8.7421C83.4462 8.17142 83.6907 7.43769 83.6907 6.45937C83.6907 5.39954 83.3646 4.6658 82.7124 4.09512C82.0602 3.60597 81.0819 3.27986 79.859 3.27986H76.1904V9.55736ZM76.1904 11.5955V18.6067H81.245C82.4678 18.6067 83.3646 18.2806 84.0168 17.7099C84.6691 17.1393 84.9952 16.2425 84.9952 15.1826C84.9952 14.1228 84.6691 13.226 84.0168 12.5738C83.3646 11.9216 82.4678 11.5955 81.245 11.514H81.0819H76.1904V11.5955Z" fill="#B3B3B3"/>
<path d="M101.626 8.33453H96.8978V20.7265H94.289V8.33453H89.5605V6.29639H101.626V8.33453Z" fill="#B3B3B3"/>
<path d="M151.012 14.5304C151.093 16.4055 150.441 17.9545 149.137 19.1773C147.832 20.4002 146.12 21.0524 143.919 21.0524C141.718 21.0524 139.924 20.2372 138.538 18.6882C137.152 17.1392 136.5 15.1826 136.5 12.7368V9.31271C136.5 6.94846 137.152 4.91031 138.538 3.36132C139.924 1.81233 141.718 0.99707 143.919 0.99707C146.12 0.99707 147.832 1.56775 149.137 2.70911C150.441 3.85048 151.093 5.39947 151.012 7.35609V7.43762H148.484C148.484 6.05168 148.077 4.99184 147.261 4.17658C146.446 3.36132 145.305 2.95369 143.837 2.95369C142.37 2.95369 141.229 3.52437 140.332 4.74726C139.435 5.88862 139.027 7.35609 139.027 9.14966V12.6553C139.027 14.4488 139.435 15.9163 140.332 17.0577C141.229 18.199 142.37 18.8512 143.837 18.8512C145.305 18.8512 146.446 18.4436 147.261 17.7099C148.077 16.8946 148.484 15.8348 148.484 14.4488H151.012V14.5304Z" fill="#B3B3B3"/>
<path d="M166.419 14.0413C166.419 16.161 165.93 17.7915 164.952 19.0959C163.973 20.4003 162.587 20.971 160.794 20.971C159.897 20.971 159.163 20.8079 158.429 20.5634C157.777 20.2373 157.207 19.8296 156.717 19.259V26.2702H154.109V6.29634H156.147L156.554 8.17143C157.044 7.4377 157.614 6.94854 158.348 6.62244C159.082 6.29634 159.897 6.05176 160.794 6.05176C162.587 6.05176 163.973 6.78549 164.952 8.17143C165.93 9.55737 166.419 11.4325 166.419 13.7967V14.0413ZM163.81 13.7967C163.81 12.1662 163.484 10.7803 162.832 9.80195C162.18 8.82364 161.201 8.25296 159.978 8.25296C159.245 8.25296 158.593 8.41601 158.022 8.74211C157.451 9.06822 157.044 9.55737 156.717 10.1281V17.1393C157.044 17.71 157.451 18.1991 158.022 18.5252C158.593 18.8513 159.245 19.0144 159.978 19.0144C161.201 19.0144 162.18 18.5252 162.832 17.6284C163.484 16.7317 163.81 15.5088 163.81 14.1228V13.7967Z" fill="#B3B3B3"/>
<path d="M215.93 1.32324V20.7264H213.321V12.6553C212.506 12.8999 211.691 13.063 210.875 13.226C210.06 13.3076 209.163 13.3891 208.022 13.3891C205.902 13.3891 204.272 12.8999 203.131 12.0031C201.989 11.1064 201.5 9.55736 201.5 7.43769V1.32324H204.109V7.43769C204.109 8.90515 204.435 9.88346 205.006 10.4541C205.658 11.0248 206.636 11.2694 207.941 11.2694C208.837 11.2694 209.734 11.1879 210.631 11.1064C211.446 10.9433 212.343 10.7802 213.24 10.5357V1.32324H215.93Z" fill="#B3B3B3"/>
<path d="M231.174 8.33453H226.446V20.7265H223.837V8.33453H219.109V6.29639H231.174V8.33453Z" fill="#B3B3B3"/>
<path d="M280.175 20.7264H277.566V3.36139H268.109V20.7264H265.5V1.32324H280.175V20.7264Z" fill="#B3B3B3"/>
<path d="M295.42 8.33453H290.691V20.7265H288.083V8.33453H283.354V6.29639H295.42V8.33453Z" fill="#B3B3B3"/>
<path d="M345.012 14.5299C345.093 16.405 344.441 17.954 343.137 19.1769C341.832 20.3998 340.12 21.052 337.919 21.052C335.718 21.052 333.924 20.2367 332.538 18.6877C331.152 17.1388 330.5 15.1821 330.5 12.7364V9.31223C330.5 6.94798 331.152 4.90983 332.538 3.36084C333.924 1.81185 335.718 0.996582 337.919 0.996582C340.12 0.996582 341.832 1.56727 343.137 2.70863C344.441 3.84999 345.093 5.39898 345.012 7.35561V7.43713H342.484C342.484 6.05119 342.077 4.99136 341.261 4.1761C340.446 3.36084 339.305 2.95321 337.837 2.95321C336.37 2.95321 335.229 3.52389 334.332 4.74678C333.435 5.88814 333.027 7.35561 333.027 9.14918V12.6548C333.027 14.4484 333.435 15.9159 334.332 17.0572C335.229 18.1986 336.37 18.8508 337.837 18.8508C339.305 18.8508 340.446 18.4432 341.261 17.7094C342.077 16.8942 342.484 15.8343 342.484 14.4484H345.012V14.5299Z" fill="#B3B3B3"/>
<path d="M354.387 6.05149C356.262 6.05149 357.648 6.7037 358.708 8.08964C359.768 9.47558 360.338 11.1876 360.338 13.3888V13.7149C360.338 15.8346 359.768 17.6282 358.626 19.0141C357.485 20.4 355.936 21.0523 353.898 21.0523C351.86 21.0523 350.311 20.4 349.169 19.0141C348.028 17.6282 347.457 15.9161 347.457 13.7149V13.3888C347.457 13.3073 347.457 13.2258 347.457 13.2258C347.457 13.1442 347.457 13.1442 347.457 13.0627V9.96473C347.457 7.19285 348.028 5.23623 349.088 3.93182C350.148 2.6274 351.778 1.97519 353.898 1.81214C355.121 1.73062 356.099 1.56756 356.751 1.32299C357.403 1.07841 357.73 0.670779 357.73 0.100098H359.768V0.181624C359.849 1.56756 359.36 2.54587 358.382 3.11656C357.403 3.68724 356.017 4.01334 354.142 4.01334C352.756 4.01334 351.697 4.42097 350.881 5.1547C350.066 5.88844 349.658 6.94827 349.658 8.33421V8.41574C350.148 7.76353 350.881 7.19285 351.697 6.78522C352.512 6.37759 353.49 6.05149 354.387 6.05149ZM353.898 8.08964C352.675 8.08964 351.697 8.57879 351.044 9.5571C350.392 10.5354 350.066 11.8398 350.066 13.3073V13.6334C350.066 15.1824 350.392 16.4053 351.044 17.3836C351.697 18.3619 352.675 18.8511 353.898 18.8511C355.121 18.8511 356.099 18.3619 356.751 17.3836C357.403 16.4053 357.73 15.1009 357.73 13.6334V13.3073C357.73 11.7583 357.403 10.5354 356.751 9.5571C356.099 8.57879 355.121 8.08964 353.898 8.08964Z" fill="#B3B3B3"/>
<path d="M394.5 20.7264V1.32324H400.859C402.897 1.32324 404.446 1.73087 405.588 2.62766C406.729 3.52444 407.3 4.82886 407.3 6.5409C407.3 7.35616 407.055 8.08989 406.566 8.82363C406.077 9.55736 405.343 9.96499 404.528 10.3726C405.832 10.5357 406.81 11.1064 407.544 12.0031C408.278 12.8999 408.686 14.0413 408.686 15.2642C408.686 17.0577 408.115 18.3622 406.973 19.3405C405.832 20.3188 404.283 20.7264 402.245 20.7264H394.5ZM397.19 9.55736H401.43C402.408 9.55736 403.223 9.31278 403.794 8.7421C404.446 8.17142 404.691 7.43769 404.691 6.45937C404.691 5.39954 404.365 4.6658 403.712 4.09512C403.06 3.60597 402.082 3.27986 400.859 3.27986H397.19V9.55736ZM397.19 11.5955V18.6067H402.245C403.468 18.6067 404.365 18.2806 405.017 17.7099C405.669 17.1393 405.995 16.2425 405.995 15.1826C405.995 14.1228 405.669 13.226 405.017 12.5738C404.365 11.9216 403.468 11.5955 402.245 11.514H402.082H397.19V11.5955Z" fill="#B3B3B3"/>
<path d="M417.245 18.9328C418.061 18.9328 418.794 18.6882 419.365 18.1176C419.936 17.5469 420.262 16.8947 420.262 16.1609H422.626V16.2425C422.626 17.4654 422.137 18.6067 420.996 19.585C419.854 20.5633 418.631 21.0525 417.164 21.0525C415.126 21.0525 413.577 20.4003 412.435 19.0143C411.294 17.6284 410.805 15.9164 410.805 13.8782V13.3075C410.805 11.2694 411.376 9.55738 412.435 8.17144C413.577 6.7855 415.126 6.1333 417.082 6.1333C418.713 6.1333 420.017 6.62245 420.996 7.60076C421.974 8.57907 422.545 9.80196 422.463 11.2694V11.3509H420.099C420.099 10.4541 419.773 9.72044 419.202 9.06823C418.631 8.41602 417.898 8.17144 417.001 8.17144C415.696 8.17144 414.8 8.6606 414.147 9.63891C413.577 10.6172 413.251 11.8401 413.251 13.3075V13.8782C413.251 15.3457 413.577 16.5686 414.147 17.5469C415.044 18.4437 415.941 18.9328 417.245 18.9328Z" fill="#B3B3B3"/>
<path d="M20.9492 52.1001H30.4582V78.0001H26.7952V55.3191H20.9492V52.1001Z" fill="#292C33"/>
<path d="M33.2067 116.421C36.1667 117.568 37.7947 119.714 37.7947 122.674C37.7947 127.373 33.7987 130.296 27.4717 130.296C21.1817 130.296 17.2227 127.373 17.2227 122.674C17.2227 119.714 18.8507 117.531 21.7737 116.421C19.4057 115.311 18.1477 113.387 18.1477 110.834C18.1477 106.505 21.8847 103.804 27.4717 103.804C33.0957 103.804 36.8697 106.505 36.8697 110.834C36.8697 113.387 35.5747 115.311 33.2067 116.421ZM27.4717 106.801C23.9937 106.801 21.8107 108.392 21.8107 110.982C21.8107 113.535 23.9197 115.126 27.4717 115.126C31.0607 115.126 33.2437 113.535 33.2437 110.982C33.2437 108.392 30.9497 106.801 27.4717 106.801ZM27.4717 127.299C31.5787 127.299 34.0947 125.486 34.0947 122.563C34.0947 119.714 31.5787 117.938 27.4717 117.938C23.3647 117.938 20.9227 119.714 20.9227 122.563C20.9227 125.486 23.3647 127.299 27.4717 127.299Z" fill="#292C33"/>
<path d="M9.82617 157.1H19.3352V183H15.6722V160.319H9.82617V157.1ZM32.4005 167.423C40.1335 167.423 43.1675 170.642 43.1675 175.23C43.1675 179.707 39.9855 183.296 33.3625 183.296C29.6995 183.296 26.0735 182.112 23.8535 180.151L25.5555 177.228C27.2945 178.856 30.1805 180.003 33.3255 180.003C37.2475 180.003 39.4675 178.19 39.4675 175.378C39.4675 172.455 37.6175 170.642 31.6235 170.642H25.7405L27.1095 157.1H41.7245V160.319H30.2175L29.5145 167.423H32.4005Z" fill="#292C33"/>
<path d="M12.4504 232.781H25.7334V236H7.12248V233.484L17.6674 223.309C20.4054 220.645 20.9234 219.017 20.9234 217.389C20.9234 214.725 19.0364 213.097 15.4104 213.097C12.6354 213.097 10.3785 213.985 8.78748 215.909L6.27148 213.726C8.26948 211.247 11.7104 209.804 15.7434 209.804C21.1454 209.804 24.6234 212.579 24.6234 217.019C24.6234 219.535 23.8834 221.792 20.3684 225.159L12.4504 232.781ZM33.6965 232.781H46.9795V236H28.3685V233.484L38.9135 223.309C41.6515 220.645 42.1695 219.017 42.1695 217.389C42.1695 214.725 40.2825 213.097 36.6565 213.097C33.8815 213.097 31.6245 213.985 30.0335 215.909L27.5175 213.726C29.5155 211.247 32.9565 209.804 36.9895 209.804C42.3915 209.804 45.8695 212.579 45.8695 217.019C45.8695 219.535 45.1295 221.792 41.6145 225.159L33.6965 232.781Z" fill="white"/>
<path d="M11.6555 290.781H24.9385V294H6.32756V291.484L16.8725 281.309C19.6105 278.645 20.1285 277.017 20.1285 275.389C20.1285 272.725 18.2415 271.097 14.6155 271.097C11.8405 271.097 9.58356 271.985 7.99256 273.909L5.47656 271.726C7.47456 269.247 10.9155 267.804 14.9485 267.804C20.3505 267.804 23.8285 270.579 23.8285 275.019C23.8285 277.535 23.0885 279.792 19.5735 283.159L11.6555 290.781ZM36.3796 267.804C43.3356 267.804 47.2576 272.466 47.2576 280.717C47.2576 289.56 42.2626 294.296 35.0106 294.296C32.5686 294.296 30.2376 293.815 28.5726 292.779L29.9786 289.893C31.3476 290.781 33.0866 291.114 34.9736 291.114C40.2276 291.114 43.5577 287.821 43.5577 281.346V280.421C42.0407 282.678 39.3026 283.825 36.0836 283.825C30.9406 283.825 27.2406 280.754 27.2406 275.981C27.2406 270.986 31.2366 267.804 36.3796 267.804ZM36.7126 280.828C40.2646 280.828 42.7066 278.645 42.7066 275.796C42.7066 273.132 40.5606 270.801 36.5276 270.801C33.1606 270.801 30.8296 272.762 30.8296 275.833C30.8296 278.867 33.0866 280.828 36.7126 280.828Z" fill="#292C33"/>
<path d="M86.5735 74.7812H99.8565V78.0002H81.2455V75.4842L91.7905 65.3092C94.5285 62.6452 95.0465 61.0172 95.0465 59.3892C95.0465 56.7252 93.1595 55.0972 89.5335 55.0972C86.7585 55.0972 84.5015 55.9852 82.9105 57.9092L80.3945 55.7262C82.3925 53.2472 85.8335 51.8042 89.8665 51.8042C95.2685 51.8042 98.7465 54.5792 98.7465 59.0192C98.7465 61.5352 98.0065 63.7922 94.4915 67.1592L86.5735 74.7812Z" fill="#292C33"/>
<path d="M89.7562 103.804C96.7122 103.804 100.634 108.466 100.634 116.717C100.634 125.56 95.6392 130.296 88.3872 130.296C85.9452 130.296 83.6142 129.815 81.9492 128.779L83.3552 125.893C84.7242 126.781 86.4632 127.114 88.3502 127.114C93.6042 127.114 96.9342 123.821 96.9342 117.346V116.421C95.4172 118.678 92.6792 119.825 89.4602 119.825C84.3172 119.825 80.6172 116.754 80.6172 111.981C80.6172 106.986 84.6132 103.804 89.7562 103.804ZM90.0892 116.828C93.6412 116.828 96.0832 114.645 96.0832 111.796C96.0832 109.132 93.9372 106.801 89.9042 106.801C86.5372 106.801 84.2062 108.762 84.2062 111.833C84.2062 114.867 86.4632 116.828 90.0892 116.828Z" fill="#292C33"/>
<path d="M73.0312 157.1H82.5403V183H78.8773V160.319H73.0312V157.1ZM99.3796 167.275C104.522 167.275 108.259 170.346 108.259 175.119C108.259 180.114 104.226 183.296 99.0835 183.296C92.1276 183.296 88.2056 178.634 88.2056 170.383C88.2056 161.54 93.2006 156.804 100.452 156.804C102.894 156.804 105.225 157.285 106.89 158.321L105.484 161.207C104.152 160.319 102.376 159.986 100.526 159.986C95.2726 159.986 91.9055 163.279 91.9055 169.754C91.9055 170.05 91.9056 170.346 91.9426 170.679C93.4226 168.459 96.1606 167.275 99.3796 167.275ZM98.9356 180.299C102.302 180.299 104.67 178.338 104.67 175.267C104.67 172.233 102.376 170.272 98.7505 170.272C95.2355 170.272 92.7935 172.455 92.7935 175.304C92.7935 177.968 94.9396 180.299 98.9356 180.299Z" fill="#292C33"/>
<path d="M76.4876 232.781H89.7706V236H71.1596V233.484L81.7046 223.309C84.4426 220.645 84.9606 219.017 84.9606 217.389C84.9606 214.725 83.0736 213.097 79.4476 213.097C76.6726 213.097 74.4156 213.985 72.8246 215.909L70.3086 213.726C72.3066 211.247 75.7476 209.804 79.7806 209.804C85.1826 209.804 88.6606 212.579 88.6606 217.019C88.6606 219.535 87.9206 221.792 84.4056 225.159L76.4876 232.781ZM102.729 220.978C107.909 221.459 110.536 224.382 110.536 228.378C110.536 232.744 107.317 236.296 100.731 236.296C97.0307 236.296 93.4047 235.112 91.2217 233.151L92.9237 230.228C94.6627 231.856 97.5487 233.003 100.731 233.003C104.616 233.003 106.836 231.227 106.836 228.415C106.836 225.677 104.875 223.901 100.435 223.901H98.3627V221.311L104.875 213.319H92.4057V210.1H109.5V212.616L102.729 220.978Z" fill="#292C33"/>
<path d="M79.2648 278.978C84.4448 279.459 87.0718 282.382 87.0718 286.378C87.0718 290.744 83.8528 294.296 77.2668 294.296C73.5668 294.296 69.9408 293.112 67.7578 291.151L69.4598 288.228C71.1988 289.856 74.0848 291.003 77.2668 291.003C81.1518 291.003 83.3718 289.227 83.3718 286.415C83.3718 283.677 81.4108 281.901 76.9708 281.901H74.8988V279.311L81.4108 271.319H68.9418V268.1H86.0358V270.616L79.2648 278.978ZM101.105 294.296C95.0367 294.296 90.5227 289.486 90.5227 281.05C90.5227 272.614 95.0367 267.804 101.105 267.804C107.136 267.804 111.65 272.614 111.65 281.05C111.65 289.486 107.136 294.296 101.105 294.296ZM101.105 291.003C105.138 291.003 107.95 287.673 107.95 281.05C107.95 274.427 105.138 271.097 101.105 271.097C97.0347 271.097 94.2227 274.427 94.2227 281.05C94.2227 287.673 97.0347 291.003 101.105 291.003Z" fill="#292C33"/>
<path d="M155.605 62.9781C160.785 63.4591 163.412 66.3821 163.412 70.3781C163.412 74.7441 160.193 78.2961 153.607 78.2961C149.907 78.2961 146.281 77.1121 144.098 75.1511L145.8 72.2281C147.539 73.8561 150.425 75.0031 153.607 75.0031C157.492 75.0031 159.712 73.2271 159.712 70.4151C159.712 67.6771 157.751 65.9011 153.311 65.9011H151.239V63.3111L157.751 55.3191H145.282V52.1001H162.376V54.6161L155.605 62.9781Z" fill="#292C33"/>
<path d="M136.109 104.1H145.618V130H141.955V107.319H136.109V104.1ZM161.866 130.296C155.798 130.296 151.284 125.486 151.284 117.05C151.284 108.614 155.798 103.804 161.866 103.804C167.897 103.804 172.411 108.614 172.411 117.05C172.411 125.486 167.897 130.296 161.866 130.296ZM161.866 127.003C165.899 127.003 168.711 123.673 168.711 117.05C168.711 110.427 165.899 107.097 161.866 107.097C157.796 107.097 154.984 110.427 154.984 117.05C154.984 123.673 157.796 127.003 161.866 127.003Z" fill="#292C33"/>
<path d="M136.893 157.1H146.402V183H142.739V160.319H136.893V157.1ZM151.402 157.1H170.938V159.616L160.467 183H156.545L166.794 160.319H154.954V164.944H151.402V157.1Z" fill="#292C33"/>
<path d="M138.542 232.781H151.825V236H133.214V233.484L143.759 223.309C146.497 220.645 147.015 219.017 147.015 217.389C147.015 214.725 145.128 213.097 141.502 213.097C138.727 213.097 136.47 213.985 134.879 215.909L132.363 213.726C134.361 211.247 137.802 209.804 141.835 209.804C147.237 209.804 150.715 212.579 150.715 217.019C150.715 219.535 149.975 221.792 146.46 225.159L138.542 232.781ZM176.713 226.454V229.636H171.792V236H168.203V229.636H153.81V227.046L167.056 210.1H171.052L158.361 226.454H168.314V220.83H171.792V226.454H176.713Z" fill="#292C33"/>
<path d="M230.934 68.4541V71.6361H226.013V78.0001H222.424V71.6361H208.031V69.0461L221.277 52.1001H225.273L212.582 68.4541H222.535V62.8301H226.013V68.4541H230.934Z" fill="#292C33"/>
<path d="M206.102 104.1H215.611V130H211.948V107.319H206.102V104.1ZM219.796 104.1H229.305V130H225.642V107.319H219.796V104.1Z" fill="#292C33"/>
<path d="M201.043 157.1H210.552V183H206.889V160.319H201.043V157.1ZM232.053 169.421C235.013 170.568 236.641 172.714 236.641 175.674C236.641 180.373 232.645 183.296 226.318 183.296C220.028 183.296 216.069 180.373 216.069 175.674C216.069 172.714 217.697 170.531 220.62 169.421C218.252 168.311 216.994 166.387 216.994 163.834C216.994 159.505 220.731 156.804 226.318 156.804C231.942 156.804 235.716 159.505 235.716 163.834C235.716 166.387 234.421 168.311 232.053 169.421ZM226.318 159.801C222.84 159.801 220.657 161.392 220.657 163.982C220.657 166.535 222.766 168.126 226.318 168.126C229.907 168.126 232.09 166.535 232.09 163.982C232.09 161.392 229.796 159.801 226.318 159.801ZM226.318 180.299C230.425 180.299 232.941 178.486 232.941 175.563C232.941 172.714 230.425 170.938 226.318 170.938C222.211 170.938 219.769 172.714 219.769 175.563C219.769 178.486 222.211 180.299 226.318 180.299Z" fill="#292C33"/>
<path d="M204.45 232.781H217.733V236H199.122V233.484L209.667 223.309C212.405 220.645 212.923 219.017 212.923 217.389C212.923 214.725 211.036 213.097 207.41 213.097C204.635 213.097 202.378 213.985 200.787 215.909L198.271 213.726C200.269 211.247 203.71 209.804 207.743 209.804C213.145 209.804 216.623 212.579 216.623 217.019C216.623 219.535 215.883 221.792 212.368 225.159L204.45 232.781ZM228.175 220.423C235.908 220.423 238.942 223.642 238.942 228.23C238.942 232.707 235.76 236.296 229.137 236.296C225.474 236.296 221.848 235.112 219.628 233.151L221.33 230.228C223.069 231.856 225.955 233.003 229.1 233.003C233.022 233.003 235.242 231.19 235.242 228.378C235.242 225.455 233.392 223.642 227.398 223.642H221.515L222.884 210.1H237.499V213.319H225.992L225.289 220.423H228.175Z" fill="#292C33"/>
<path d="M281.053 62.4231C288.786 62.4231 291.82 65.6421 291.82 70.2301C291.82 74.7071 288.638 78.2961 282.015 78.2961C278.352 78.2961 274.726 77.1121 272.506 75.1511L274.208 72.2281C275.947 73.8561 278.833 75.0031 281.978 75.0031C285.9 75.0031 288.12 73.1901 288.12 70.3781C288.12 67.4551 286.27 65.6421 280.276 65.6421H274.393L275.762 52.1001H290.377V55.3191H278.87L278.167 62.4231H281.053Z" fill="#292C33"/>
<path d="M265.826 104.1H275.335V130H271.672V107.319H265.826V104.1ZM285.921 126.781H299.204V130H280.593V127.484L291.138 117.309C293.876 114.645 294.394 113.017 294.394 111.389C294.394 108.725 292.507 107.097 288.881 107.097C286.106 107.097 283.849 107.985 282.258 109.909L279.742 107.726C281.74 105.247 285.181 103.804 289.214 103.804C294.616 103.804 298.094 106.579 298.094 111.019C298.094 113.535 297.354 115.792 293.839 119.159L285.921 126.781Z" fill="#292C33"/>
<path d="M265.031 157.1H274.54V183H270.877V160.319H265.031V157.1ZM288.604 156.804C295.56 156.804 299.482 161.466 299.482 169.717C299.482 178.56 294.487 183.296 287.235 183.296C284.793 183.296 282.462 182.815 280.797 181.779L282.203 178.893C283.572 179.781 285.311 180.114 287.198 180.114C292.452 180.114 295.782 176.821 295.782 170.346V169.421C294.265 171.678 291.527 172.825 288.308 172.825C283.165 172.825 279.465 169.754 279.465 164.981C279.465 159.986 283.461 156.804 288.604 156.804ZM288.937 169.828C292.489 169.828 294.931 167.645 294.931 164.796C294.931 162.132 292.785 159.801 288.752 159.801C285.385 159.801 283.054 161.762 283.054 164.833C283.054 167.867 285.311 169.828 288.937 169.828Z" fill="#292C33"/>
<path d="M267.21 232.781H280.493V236H261.882V233.484L272.427 223.309C275.165 220.645 275.683 219.017 275.683 217.389C275.683 214.725 273.796 213.097 270.17 213.097C267.395 213.097 265.138 213.985 263.547 215.909L261.031 213.726C263.029 211.247 266.47 209.804 270.503 209.804C275.905 209.804 279.383 212.579 279.383 217.019C279.383 219.535 278.643 221.792 275.128 225.159L267.21 232.781ZM294.601 220.275C299.744 220.275 303.481 223.346 303.481 228.119C303.481 233.114 299.448 236.296 294.305 236.296C287.349 236.296 283.427 231.634 283.427 223.383C283.427 214.54 288.422 209.804 295.674 209.804C298.116 209.804 300.447 210.285 302.112 211.321L300.706 214.207C299.374 213.319 297.598 212.986 295.748 212.986C290.494 212.986 287.127 216.279 287.127 222.754C287.127 223.05 287.127 223.346 287.164 223.679C288.644 221.459 291.382 220.275 294.601 220.275ZM294.157 233.299C297.524 233.299 299.892 231.338 299.892 228.267C299.892 225.233 297.598 223.272 293.972 223.272C290.457 223.272 288.015 225.455 288.015 228.304C288.015 230.968 290.161 233.299 294.157 233.299Z" fill="#292C33"/>
<path d="M348.531 62.2752C353.674 62.2752 357.411 65.3462 357.411 70.1192C357.411 75.1142 353.378 78.2962 348.235 78.2962C341.279 78.2962 337.357 73.6342 337.357 65.3832C337.357 56.5402 342.352 51.8042 349.604 51.8042C352.046 51.8042 354.377 52.2852 356.042 53.3212L354.636 56.2072C353.304 55.3192 351.528 54.9862 349.678 54.9862C344.424 54.9862 341.057 58.2792 341.057 64.7542C341.057 65.0502 341.057 65.3462 341.094 65.6792C342.574 63.4592 345.312 62.2752 348.531 62.2752ZM348.087 75.2992C351.454 75.2992 353.822 73.3382 353.822 70.2672C353.822 67.2332 351.528 65.2722 347.902 65.2722C344.387 65.2722 341.945 67.4552 341.945 70.3042C341.945 72.9682 344.091 75.2992 348.087 75.2992Z" fill="#292C33"/>
<path d="M329.861 104.1H339.37V130H335.707V107.319H329.861V104.1ZM354.951 114.978C360.131 115.459 362.758 118.382 362.758 122.378C362.758 126.744 359.539 130.296 352.953 130.296C349.253 130.296 345.627 129.112 343.444 127.151L345.146 124.228C346.885 125.856 349.771 127.003 352.953 127.003C356.838 127.003 359.058 125.227 359.058 122.415C359.058 119.677 357.097 117.901 352.657 117.901H350.585V115.311L357.097 107.319H344.628V104.1H361.722V106.616L354.951 114.978Z" fill="#292C33"/>
<path d="M330.288 179.781H343.571V183H324.96V180.484L335.505 170.309C338.243 167.645 338.761 166.017 338.761 164.389C338.761 161.725 336.874 160.097 333.248 160.097C330.473 160.097 328.216 160.985 326.625 162.909L324.109 160.726C326.107 158.247 329.548 156.804 333.581 156.804C338.983 156.804 342.461 159.579 342.461 164.019C342.461 166.535 341.721 168.792 338.206 172.159L330.288 179.781ZM357.086 183.296C351.018 183.296 346.504 178.486 346.504 170.05C346.504 161.614 351.018 156.804 357.086 156.804C363.117 156.804 367.631 161.614 367.631 170.05C367.631 178.486 363.117 183.296 357.086 183.296ZM357.086 180.003C361.119 180.003 363.931 176.673 363.931 170.05C363.931 163.427 361.119 160.097 357.086 160.097C353.016 160.097 350.204 163.427 350.204 170.05C350.204 176.673 353.016 180.003 357.086 180.003Z" fill="white"/>
<path d="M331.572 232.781H344.855V236H326.244V233.484L336.789 223.309C339.527 220.645 340.045 219.017 340.045 217.389C340.045 214.725 338.158 213.097 334.532 213.097C331.757 213.097 329.5 213.985 327.909 215.909L325.393 213.726C327.391 211.247 330.832 209.804 334.865 209.804C340.267 209.804 343.745 212.579 343.745 217.019C343.745 219.535 343.005 221.792 339.49 225.159L331.572 232.781ZM347.122 210.1H366.658V212.616L356.187 236H352.265L362.514 213.319H350.674V217.944H347.122V210.1Z" fill="#292C33"/>
<path d="M389.072 104.1H398.581V130H394.918V107.319H389.072V104.1ZM426.78 120.454V123.636H421.859V130H418.27V123.636H403.877V121.046L417.123 104.1H421.119L408.428 120.454H418.381V114.83H421.859V120.454H426.78Z" fill="#292C33"/>
<path d="M397.228 179.781H410.511V183H391.9V180.484L402.445 170.309C405.183 167.645 405.701 166.017 405.701 164.389C405.701 161.725 403.814 160.097 400.188 160.097C397.413 160.097 395.156 160.985 393.565 162.909L391.049 160.726C393.047 158.247 396.488 156.804 400.521 156.804C405.923 156.804 409.401 159.579 409.401 164.019C409.401 166.535 408.661 168.792 405.146 172.159L397.228 179.781ZM412.073 157.1H421.582V183H417.919V160.319H412.073V157.1Z" fill="#292C33"/>
<path d="M391.667 232.781H404.95V236H386.339V233.484L396.884 223.309C399.622 220.645 400.14 219.017 400.14 217.389C400.14 214.725 398.253 213.097 394.627 213.097C391.852 213.097 389.595 213.985 388.004 215.909L385.488 213.726C387.486 211.247 390.927 209.804 394.96 209.804C400.362 209.804 403.84 212.579 403.84 217.019C403.84 219.535 403.1 221.792 399.585 225.159L391.667 232.781ZM423.828 222.421C426.788 223.568 428.416 225.714 428.416 228.674C428.416 233.373 424.42 236.296 418.093 236.296C411.803 236.296 407.844 233.373 407.844 228.674C407.844 225.714 409.472 223.531 412.395 222.421C410.027 221.311 408.769 219.387 408.769 216.834C408.769 212.505 412.506 209.804 418.093 209.804C423.717 209.804 427.491 212.505 427.491 216.834C427.491 219.387 426.196 221.311 423.828 222.421ZM418.093 212.801C414.615 212.801 412.432 214.392 412.432 216.982C412.432 219.535 414.541 221.126 418.093 221.126C421.682 221.126 423.865 219.535 423.865 216.982C423.865 214.392 421.571 212.801 418.093 212.801ZM418.093 233.299C422.2 233.299 424.716 231.486 424.716 228.563C424.716 225.714 422.2 223.938 418.093 223.938C413.986 223.938 411.544 225.714 411.544 228.563C411.544 231.486 413.986 233.299 418.093 233.299Z" fill="#292C33"/>
<path d="M398.053 52.1001H417.589V54.6161L407.118 78.0001H403.196L413.445 55.3191H401.605V59.9441H398.053V52.1001Z" fill="#292C33"/>
</g>
<defs>
<clipPath id="clip0_3949_8020">
<rect width="432" height="303" fill="white"/>
</clipPath>
</defs>
</svg>
