<svg width="439" height="359" viewBox="0 0 439 359" fill="none" xmlns="http://www.w3.org/2000/svg">
<path d="M29.4593 21.2264H26.8505V3.86139H17.3935V21.2264H14.7031V1.82324H29.3778V21.2264H29.4593Z" fill="#B3B3B3"/>
<path d="M45.2754 21.2261H42.6665V15.1116H36.226V21.2261H33.6172V6.7959H36.226V13.0735H42.6665V6.7959H45.2754V21.2261Z" fill="#B3B3B3"/>
<path d="M79.5 21.2264V1.82324H85.859C87.8972 1.82324 89.4462 2.23087 90.5875 3.12766C91.7289 4.02444 92.2996 5.32886 92.2996 7.0409C92.2996 7.85616 92.055 8.58989 91.5658 9.32363C91.0767 10.0574 90.3429 10.465 89.5277 10.7911C90.8321 10.9541 91.8104 11.5248 92.5441 12.4216C93.2779 13.3184 93.6855 14.4598 93.6855 15.6826C93.6855 17.4762 93.1148 18.7806 91.9735 19.7589C90.8321 20.7373 89.2831 21.1449 87.245 21.1449H79.5V21.2264ZM82.1904 10.0574H86.4297C87.408 10.0574 88.2233 9.81278 88.794 9.2421C89.4462 8.67142 89.6907 7.93769 89.6907 6.95937C89.6907 5.89954 89.3646 5.1658 88.7124 4.59512C88.0602 4.10597 87.0819 3.77986 85.859 3.77986H82.1904V10.0574ZM82.1904 12.0955V19.1067H87.245C88.4678 19.1067 89.3646 18.7806 90.0168 18.21C90.6691 17.6393 90.9952 16.7425 90.9952 15.6826C90.9952 14.6228 90.6691 13.726 90.0168 13.0738C89.3646 12.4216 88.4678 12.0955 87.245 12.014H87.0819H82.1904V12.0955Z" fill="#B3B3B3"/>
<path d="M107.628 8.83405H102.9V21.2261H100.291V8.83405H95.5625V6.7959H107.628V8.83405Z" fill="#B3B3B3"/>
<path d="M157.012 15.0304C157.093 16.9055 156.441 18.4545 155.137 19.6773C153.832 20.9002 152.12 21.5524 149.919 21.5524C147.718 21.5524 145.924 20.7372 144.538 19.1882C143.152 17.6392 142.5 15.6826 142.5 13.2368V9.81271C142.5 7.44846 143.152 5.41031 144.538 3.86132C145.924 2.31233 147.718 1.49707 149.919 1.49707C152.12 1.49707 153.832 2.06775 155.137 3.20911C156.441 4.35048 157.093 5.89947 157.012 7.85609V7.93762H154.484C154.484 6.55168 154.077 5.49184 153.261 4.67658C152.446 3.86132 151.305 3.45369 149.837 3.45369C148.37 3.45369 147.229 4.02437 146.332 5.24726C145.435 6.38862 145.027 7.85609 145.027 9.64966V13.1553C145.027 14.9488 145.435 16.4163 146.332 17.5577C147.229 18.699 148.37 19.3512 149.837 19.3512C151.305 19.3512 152.446 18.9436 153.261 18.2099C154.077 17.3946 154.484 16.3348 154.484 14.9488H157.012V15.0304Z" fill="#B3B3B3"/>
<path d="M172.42 14.5413C172.42 16.661 171.931 18.2915 170.952 19.5959C169.974 20.9003 168.588 21.471 166.795 21.471C165.898 21.471 165.164 21.3079 164.43 21.0634C163.778 20.7373 163.207 20.3296 162.718 19.759V26.7702H160.109V6.79634H162.148L162.555 8.67143C163.044 7.9377 163.615 7.44854 164.349 7.12244C165.083 6.79634 165.898 6.55176 166.795 6.55176C168.588 6.55176 169.974 7.28549 170.952 8.67143C171.931 10.0574 172.42 11.9325 172.42 14.2967V14.5413ZM169.811 14.2967C169.811 12.6662 169.485 11.2803 168.833 10.3019C168.181 9.32364 167.202 8.75296 165.979 8.75296C165.246 8.75296 164.593 8.91601 164.023 9.24211C163.452 9.56822 163.044 10.0574 162.718 10.6281V17.6393C163.044 18.21 163.452 18.6991 164.023 19.0252C164.593 19.3513 165.246 19.5144 165.979 19.5144C167.202 19.5144 168.181 19.0252 168.833 18.1284C169.485 17.2317 169.811 16.0088 169.811 14.6228V14.2967Z" fill="#B3B3B3"/>
<path d="M221.93 1.82324V21.2264H219.321V13.1553C218.506 13.3999 217.691 13.563 216.875 13.726C216.06 13.8076 215.163 13.8891 214.022 13.8891C211.902 13.8891 210.272 13.3999 209.131 12.5031C207.989 11.6064 207.5 10.0574 207.5 7.93769V1.82324H210.109V7.93769C210.109 9.40515 210.435 10.3835 211.006 10.9541C211.658 11.5248 212.636 11.7694 213.941 11.7694C214.837 11.7694 215.734 11.6879 216.631 11.6064C217.446 11.4433 218.343 11.2802 219.24 11.0357V1.82324H221.93Z" fill="#B3B3B3"/>
<path d="M237.174 8.83405H232.446V21.2261H229.837V8.83405H225.109V6.7959H237.174V8.83405Z" fill="#B3B3B3"/>
<path d="M286.175 21.2264H283.566V3.86139H274.109V21.2264H271.5V1.82324H286.175V21.2264Z" fill="#B3B3B3"/>
<path d="M301.418 8.83453H296.689V21.2265H294.081V8.83453H289.352V6.79639H301.418V8.83453Z" fill="#B3B3B3"/>
<path d="M351.012 15.0303C351.093 16.9054 350.441 18.4544 349.137 19.6773C347.832 20.9002 346.12 21.5524 343.919 21.5524C341.718 21.5524 339.924 20.7371 338.538 19.1881C337.152 17.6391 336.5 15.6825 336.5 13.2367V9.81271C336.5 7.44846 337.152 5.41031 338.538 3.86132C339.924 2.31233 341.718 1.49707 343.919 1.49707C346.12 1.49707 347.832 2.06775 349.137 3.20911C350.441 4.35047 351.093 5.89947 351.012 7.85609V7.93761H348.484C348.484 6.55167 348.077 5.49184 347.261 4.67658C346.446 3.86132 345.305 3.45369 343.837 3.45369C342.37 3.45369 341.229 4.02437 340.332 5.24726C339.435 6.38862 339.027 7.85609 339.027 9.64966V13.1552C339.027 14.9488 339.435 16.4162 340.332 17.5576C341.229 18.699 342.37 19.3512 343.837 19.3512C345.305 19.3512 346.446 18.9435 347.261 18.2098C348.077 17.3945 348.484 16.3347 348.484 14.9488H351.012V15.0303Z" fill="#B3B3B3"/>
<path d="M360.387 6.55149C362.262 6.55149 363.648 7.2037 364.708 8.58964C365.768 9.97558 366.338 11.6876 366.338 13.8888V14.2149C366.338 16.3346 365.768 18.1282 364.626 19.5141C363.485 20.9 361.936 21.5523 359.898 21.5523C357.86 21.5523 356.311 20.9 355.169 19.5141C354.028 18.1282 353.457 16.4161 353.457 14.2149V13.8888C353.457 13.8073 353.457 13.7258 353.457 13.7258C353.457 13.6442 353.457 13.6442 353.457 13.5627V10.4647C353.457 7.69285 354.028 5.73623 355.088 4.43182C356.148 3.1274 357.778 2.47519 359.898 2.31214C361.121 2.23062 362.099 2.06756 362.751 1.82299C363.403 1.57841 363.73 1.17078 363.73 0.600098H365.768V0.681624C365.849 2.06756 365.36 3.04587 364.382 3.61656C363.403 4.18724 362.017 4.51334 360.142 4.51334C358.756 4.51334 357.697 4.92097 356.881 5.6547C356.066 6.38844 355.658 7.44827 355.658 8.83421V8.91574C356.148 8.26353 356.881 7.69285 357.697 7.28522C358.512 6.87759 359.49 6.55149 360.387 6.55149ZM359.898 8.58964C358.675 8.58964 357.697 9.07879 357.044 10.0571C356.392 11.0354 356.066 12.3398 356.066 13.8073V14.1334C356.066 15.6824 356.392 16.9053 357.044 17.8836C357.697 18.8619 358.675 19.3511 359.898 19.3511C361.121 19.3511 362.099 18.8619 362.751 17.8836C363.403 16.9053 363.73 15.6009 363.73 14.1334V13.8073C363.73 12.2583 363.403 11.0354 362.751 10.0571C362.099 9.07879 361.121 8.58964 359.898 8.58964Z" fill="#B3B3B3"/>
<path d="M400.5 21.2264V1.82324H406.859C408.897 1.82324 410.446 2.23087 411.588 3.12766C412.729 4.02444 413.3 5.32886 413.3 7.0409C413.3 7.85616 413.055 8.58989 412.566 9.32363C412.077 10.0574 411.343 10.465 410.528 10.8726C411.832 11.0357 412.81 11.6064 413.544 12.5031C414.278 13.3999 414.686 14.5413 414.686 15.7642C414.686 17.5577 414.115 18.8622 412.973 19.8405C411.832 20.8188 410.283 21.2264 408.245 21.2264H400.5ZM403.19 10.0574H407.43C408.408 10.0574 409.223 9.81278 409.794 9.2421C410.446 8.67142 410.691 7.93769 410.691 6.95937C410.691 5.89954 410.365 5.1658 409.712 4.59512C409.06 4.10597 408.082 3.77986 406.859 3.77986H403.19V10.0574ZM403.19 12.0955V19.1067H408.245C409.468 19.1067 410.365 18.7806 411.017 18.21C411.669 17.6393 411.995 16.7425 411.995 15.6826C411.995 14.6228 411.669 13.726 411.017 13.0738C410.365 12.4216 409.468 12.0955 408.245 12.014H408.082H403.19V12.0955Z" fill="#B3B3B3"/>
<path d="M423.245 19.4329C424.061 19.4329 424.794 19.1883 425.365 18.6176C425.936 18.0469 426.262 17.3947 426.262 16.661H428.626V16.7425C428.626 17.9654 428.137 19.1068 426.996 20.0851C425.854 21.0634 424.631 21.5525 423.164 21.5525C421.126 21.5525 419.577 20.9003 418.435 19.5144C417.294 18.1284 416.805 16.4164 416.805 14.3783V13.8076C416.805 11.7694 417.376 10.0573 418.435 8.67144C419.577 7.2855 421.126 6.6333 423.082 6.6333C424.713 6.6333 426.017 7.12245 426.996 8.10076C427.974 9.07907 428.545 10.3019 428.463 11.7694V11.851H426.099C426.099 10.9542 425.773 10.2204 425.202 9.56823C424.631 8.91602 423.898 8.67144 423.001 8.67144C421.696 8.67144 420.8 9.1606 420.147 10.1389C419.577 11.1172 419.251 12.3401 419.251 13.8076V14.3783C419.251 15.8457 419.577 17.0686 420.147 18.0469C421.044 18.9437 421.941 19.4329 423.245 19.4329Z" fill="#B3B3B3"/>
<path d="M224.312 63.5406C229.492 64.0216 232.119 66.9446 232.119 70.9406C232.119 75.3066 228.9 78.8586 222.314 78.8586C218.614 78.8586 214.988 77.6746 212.805 75.7136L214.507 72.7906C216.246 74.4186 219.132 75.5656 222.314 75.5656C226.199 75.5656 228.419 73.7896 228.419 70.9776C228.419 68.2396 226.458 66.4636 222.018 66.4636H219.946V63.8736L226.458 55.8816H213.989V52.6626H231.083V55.1786L224.312 63.5406Z" fill="#292C33"/>
<path d="M203.629 104.975H213.138V130.875H209.475V108.194H203.629V104.975ZM229.385 131.171C223.317 131.171 218.803 126.361 218.803 117.925C218.803 109.489 223.317 104.679 229.385 104.679C235.416 104.679 239.93 109.489 239.93 117.925C239.93 126.361 235.416 131.171 229.385 131.171ZM229.385 127.878C233.418 127.878 236.23 124.548 236.23 117.925C236.23 111.302 233.418 107.972 229.385 107.972C225.315 107.972 222.503 111.302 222.503 117.925C222.503 124.548 225.315 127.878 229.385 127.878Z" fill="#292C33"/>
<path d="M204.914 161.975H214.423V187.875H210.76V165.194H204.914V161.975ZM219.422 161.975H238.958V164.491L228.487 187.875H224.565L234.814 165.194H222.974V169.819H219.422V161.975Z" fill="#292C33"/>
<path d="M206.562 241.656H219.845V244.875H201.234V242.359L211.779 232.184C214.517 229.52 215.035 227.892 215.035 226.264C215.035 223.6 213.148 221.972 209.522 221.972C206.747 221.972 204.49 222.86 202.899 224.784L200.383 222.601C202.381 220.122 205.822 218.679 209.855 218.679C215.257 218.679 218.735 221.454 218.735 225.894C218.735 228.41 217.995 230.667 214.48 234.034L206.562 241.656ZM244.734 235.329V238.511H239.813V244.875H236.224V238.511H221.831V235.921L235.077 218.975H239.073L226.382 235.329H236.335V229.705H239.813V235.329H244.734Z" fill="#292C33"/>
<path d="M298.294 69.0166V72.1986H293.373V78.5626H289.784V72.1986H275.391V69.6086L288.637 52.6626H292.633L279.942 69.0166H289.895V63.3926H293.373V69.0166H298.294Z" fill="#292C33"/>
<path d="M272.621 104.975H282.13V130.875H278.467V108.194H272.621V104.975ZM286.316 104.975H295.825V130.875H292.162V108.194H286.316V104.975Z" fill="#292C33"/>
<path d="M267.562 161.975H277.072V187.875H273.408V165.194H267.562V161.975ZM298.572 174.296C301.532 175.443 303.16 177.589 303.16 180.549C303.16 185.248 299.164 188.171 292.837 188.171C286.547 188.171 282.589 185.248 282.589 180.549C282.589 177.589 284.216 175.406 287.139 174.296C284.771 173.186 283.513 171.262 283.513 168.709C283.513 164.38 287.25 161.679 292.837 161.679C298.461 161.679 302.235 164.38 302.235 168.709C302.235 171.262 300.94 173.186 298.572 174.296ZM292.837 164.676C289.359 164.676 287.176 166.267 287.176 168.857C287.176 171.41 289.285 173.001 292.837 173.001C296.426 173.001 298.609 171.41 298.609 168.857C298.609 166.267 296.315 164.676 292.837 164.676ZM292.837 185.174C296.944 185.174 299.46 183.361 299.46 180.438C299.46 177.589 296.944 175.813 292.837 175.813C288.73 175.813 286.288 177.589 286.288 180.438C286.288 183.361 288.73 185.174 292.837 185.174Z" fill="#292C33"/>
<path d="M271.468 241.656H284.751V244.875H266.14V242.359L276.685 232.184C279.423 229.52 279.941 227.892 279.941 226.264C279.941 223.6 278.054 221.972 274.428 221.972C271.653 221.972 269.396 222.86 267.805 224.784L265.289 222.601C267.287 220.122 270.728 218.679 274.761 218.679C280.163 218.679 283.641 221.454 283.641 225.894C283.641 228.41 282.901 230.667 279.386 234.034L271.468 241.656ZM295.194 229.298C302.927 229.298 305.961 232.517 305.961 237.105C305.961 241.582 302.779 245.171 296.156 245.171C292.493 245.171 288.867 243.987 286.647 242.026L288.349 239.103C290.088 240.731 292.974 241.878 296.119 241.878C300.041 241.878 302.261 240.065 302.261 237.253C302.261 234.33 300.411 232.517 294.417 232.517H288.534L289.903 218.975H304.518V222.194H293.011L292.308 229.298H295.194Z" fill="#292C33"/>
<path d="M398.593 241.656H411.876V244.875H393.265V242.359L403.81 232.184C406.548 229.52 407.066 227.892 407.066 226.264C407.066 223.6 405.179 221.972 401.553 221.972C398.778 221.972 396.521 222.86 394.93 224.784L392.414 222.601C394.412 220.122 397.853 218.679 401.886 218.679C407.288 218.679 410.766 221.454 410.766 225.894C410.766 228.41 410.026 230.667 406.511 234.034L398.593 241.656ZM414.144 218.975H433.68V221.491L423.209 244.875H419.287L429.536 222.194H417.696V226.819H414.144V218.975Z" fill="#292C33"/>
<path d="M7.35881 302.875V300.359L17.9037 290.184C18.8411 289.296 19.5317 288.519 19.9757 287.853C20.4444 287.162 20.7527 286.533 20.9007 285.966C21.0734 285.374 21.1597 284.807 21.1597 284.264C21.1597 282.932 20.6911 281.884 19.7537 281.119C18.8164 280.354 17.4474 279.972 15.6468 279.972C14.2655 279.972 13.0198 280.206 11.9098 280.675C10.7998 281.119 9.83781 281.822 9.02381 282.784L6.50781 280.601C7.49447 279.343 8.81415 278.381 10.4668 277.715C12.1442 277.024 13.9818 276.679 15.9798 276.679C17.7804 276.679 19.3467 276.975 20.6787 277.567C22.0107 278.134 23.0344 278.961 23.7497 280.046C24.4897 281.131 24.8597 282.414 24.8597 283.894C24.8597 284.733 24.7487 285.559 24.5267 286.373C24.3047 287.187 23.8854 288.05 23.2687 288.963C22.6521 289.876 21.7641 290.899 20.6047 292.034L11.2068 301.099L10.3188 299.656H25.9697V302.875H7.35881ZM39.1128 303.171C37.0162 303.171 35.2032 302.863 33.6738 302.246C32.1445 301.629 30.9605 300.754 30.1218 299.619C29.2832 298.46 28.8638 297.103 28.8638 295.549C28.8638 294.02 29.2585 292.725 30.0478 291.664C30.8618 290.579 32.0335 289.765 33.5628 289.222C35.0922 288.655 36.9422 288.371 39.1128 288.371C41.2835 288.371 43.1335 288.655 44.6628 289.222C46.2168 289.765 47.4008 290.579 48.2148 291.664C49.0288 292.749 49.4358 294.044 49.4358 295.549C49.4358 297.103 49.0165 298.46 48.1778 299.619C47.3392 300.754 46.1428 301.629 44.5888 302.246C43.0348 302.863 41.2095 303.171 39.1128 303.171ZM39.1128 300.174C41.1848 300.174 42.8005 299.755 43.9598 298.916C45.1438 298.053 45.7358 296.893 45.7358 295.438C45.7358 294.007 45.1438 292.885 43.9598 292.071C42.8005 291.232 41.1848 290.813 39.1128 290.813C37.0655 290.813 35.4622 291.232 34.3028 292.071C33.1435 292.885 32.5638 294.007 32.5638 295.438C32.5638 296.893 33.1435 298.053 34.3028 298.916C35.4622 299.755 37.0655 300.174 39.1128 300.174ZM39.1128 290.369C37.1395 290.369 35.4622 290.11 34.0808 289.592C32.6995 289.049 31.6388 288.285 30.8988 287.298C30.1588 286.287 29.7888 285.09 29.7888 283.709C29.7888 282.254 30.1712 281.008 30.9358 279.972C31.7252 278.911 32.8228 278.097 34.2288 277.53C35.6348 276.963 37.2628 276.679 39.1128 276.679C40.9875 276.679 42.6278 276.963 44.0338 277.53C45.4398 278.097 46.5375 278.911 47.3268 279.972C48.1162 281.008 48.5108 282.254 48.5108 283.709C48.5108 285.09 48.1408 286.287 47.4008 287.298C46.6608 288.285 45.5878 289.049 44.1818 289.592C42.7758 290.11 41.0862 290.369 39.1128 290.369ZM39.1128 288.001C40.9135 288.001 42.3195 287.631 43.3308 286.891C44.3668 286.151 44.8848 285.14 44.8848 283.857C44.8848 282.55 44.3545 281.526 43.2938 280.786C42.2332 280.046 40.8395 279.676 39.1128 279.676C37.3862 279.676 36.0048 280.046 34.9688 280.786C33.9575 281.526 33.4518 282.55 33.4518 283.857C33.4518 285.14 33.9452 286.151 34.9318 286.891C35.9432 287.631 37.3368 288.001 39.1128 288.001Z" fill="#292C33"/>
<path d="M77.6751 299.656H90.9581V302.875H72.3471V300.359L82.8921 290.184C85.6301 287.52 86.1481 285.892 86.1481 284.264C86.1481 281.6 84.2611 279.972 80.6351 279.972C77.8601 279.972 75.6031 280.86 74.0121 282.784L71.4961 280.601C73.4941 278.122 76.9351 276.679 80.9681 276.679C86.3701 276.679 89.8481 279.454 89.8481 283.894C89.8481 286.41 89.1081 288.667 85.5931 292.034L77.6751 299.656ZM102.399 276.679C109.356 276.679 113.278 281.341 113.278 289.592C113.278 298.435 108.283 303.171 101.03 303.171C98.5882 303.171 96.2572 302.69 94.5922 301.654L95.9982 298.768C97.3672 299.656 99.1062 299.989 100.993 299.989C106.247 299.989 109.578 296.696 109.578 290.221V289.296C108.061 291.553 105.322 292.7 102.103 292.7C96.9602 292.7 93.2602 289.629 93.2602 284.856C93.2602 279.861 97.2562 276.679 102.399 276.679ZM102.732 289.703C106.284 289.703 108.727 287.52 108.727 284.671C108.727 282.007 106.581 279.676 102.547 279.676C99.1802 279.676 96.8492 281.637 96.8492 284.708C96.8492 287.742 99.1062 289.703 102.732 289.703Z" fill="#292C33"/>
<path d="M144.286 303.171C142.461 303.171 140.685 302.887 138.958 302.32C137.256 301.753 135.862 300.988 134.777 300.026L136.479 297.103C137.342 297.917 138.465 298.583 139.846 299.101C141.227 299.619 142.707 299.878 144.286 299.878C146.21 299.878 147.702 299.471 148.763 298.657C149.848 297.818 150.391 296.696 150.391 295.29C150.391 293.933 149.873 292.848 148.837 292.034C147.826 291.195 146.21 290.776 143.99 290.776H141.918V288.186L149.614 278.714L150.132 280.194H135.961V276.975H153.055V279.491L145.396 288.926L143.472 287.779H144.693C147.826 287.779 150.169 288.482 151.723 289.888C153.302 291.294 154.091 293.082 154.091 295.253C154.091 296.708 153.733 298.04 153.018 299.249C152.303 300.458 151.217 301.42 149.762 302.135C148.331 302.826 146.506 303.171 144.286 303.171ZM168.124 303.171C166.101 303.171 164.288 302.653 162.685 301.617C161.106 300.581 159.848 299.076 158.911 297.103C157.998 295.13 157.542 292.737 157.542 289.925C157.542 287.113 157.998 284.72 158.911 282.747C159.848 280.774 161.106 279.269 162.685 278.233C164.288 277.197 166.101 276.679 168.124 276.679C170.122 276.679 171.923 277.197 173.526 278.233C175.129 279.269 176.387 280.774 177.3 282.747C178.213 284.72 178.669 287.113 178.669 289.925C178.669 292.737 178.213 295.13 177.3 297.103C176.387 299.076 175.129 300.581 173.526 301.617C171.923 302.653 170.122 303.171 168.124 303.171ZM168.124 299.878C169.481 299.878 170.665 299.508 171.676 298.768C172.712 298.028 173.514 296.918 174.081 295.438C174.673 293.958 174.969 292.12 174.969 289.925C174.969 287.73 174.673 285.892 174.081 284.412C173.514 282.932 172.712 281.822 171.676 281.082C170.665 280.342 169.481 279.972 168.124 279.972C166.767 279.972 165.571 280.342 164.535 281.082C163.499 281.822 162.685 282.932 162.093 284.412C161.526 285.892 161.242 287.73 161.242 289.925C161.242 292.12 161.526 293.958 162.093 295.438C162.685 296.918 163.499 298.028 164.535 298.768C165.571 299.508 166.767 299.878 168.124 299.878Z" fill="#292C33"/>
<path d="M350.813 62.9856C358.546 62.9856 361.58 66.2046 361.58 70.7926C361.58 75.2696 358.398 78.8586 351.775 78.8586C348.112 78.8586 344.486 77.6746 342.266 75.7136L343.968 72.7906C345.707 74.4186 348.593 75.5656 351.738 75.5656C355.66 75.5656 357.88 73.7526 357.88 70.9406C357.88 68.0176 356.03 66.2046 350.036 66.2046H344.153L345.522 52.6626H360.137V55.8816H348.63L347.927 62.9856H350.813Z" fill="#292C33"/>
<path d="M331.844 104.975H341.353V130.875H337.69V108.194H331.844V104.975ZM351.94 127.656H365.223V130.875H346.612V128.359L357.157 118.184C359.895 115.52 360.413 113.892 360.413 112.264C360.413 109.6 358.526 107.972 354.9 107.972C352.125 107.972 349.868 108.86 348.277 110.784L345.761 108.601C347.759 106.122 351.2 104.679 355.233 104.679C360.635 104.679 364.113 107.454 364.113 111.894C364.113 114.41 363.373 116.667 359.858 120.034L351.94 127.656Z" fill="#292C33"/>
<path d="M331.047 161.975H340.556V187.875H336.893V165.194H331.047V161.975ZM354.621 161.679C361.577 161.679 365.499 166.341 365.499 174.592C365.499 183.435 360.504 188.171 353.252 188.171C350.81 188.171 348.479 187.69 346.814 186.654L348.22 183.768C349.589 184.656 351.328 184.989 353.215 184.989C358.469 184.989 361.799 181.696 361.799 175.221V174.296C360.282 176.553 357.544 177.7 354.325 177.7C349.182 177.7 345.482 174.629 345.482 169.856C345.482 164.861 349.478 161.679 354.621 161.679ZM354.954 174.703C358.506 174.703 360.948 172.52 360.948 169.671C360.948 167.007 358.802 164.676 354.769 164.676C351.402 164.676 349.071 166.637 349.071 169.708C349.071 172.742 351.328 174.703 354.954 174.703Z" fill="#292C33"/>
<path d="M328.367 244.875V242.359L338.912 232.184C339.849 231.296 340.54 230.519 340.984 229.853C341.452 229.162 341.761 228.533 341.909 227.966C342.081 227.374 342.168 226.807 342.168 226.264C342.168 224.932 341.699 223.884 340.762 223.119C339.824 222.354 338.455 221.972 336.655 221.972C335.273 221.972 334.028 222.206 332.918 222.675C331.808 223.119 330.846 223.822 330.032 224.784L327.516 222.601C328.502 221.343 329.822 220.381 331.475 219.715C333.152 219.024 334.99 218.679 336.988 218.679C338.788 218.679 340.355 218.975 341.687 219.567C343.019 220.134 344.042 220.961 344.758 222.046C345.498 223.131 345.868 224.414 345.868 225.894C345.868 226.733 345.757 227.559 345.535 228.373C345.313 229.187 344.893 230.05 344.277 230.963C343.66 231.876 342.772 232.899 341.613 234.034L332.215 243.099L331.327 241.656H346.978V244.875H328.367ZM360.862 245.171C358.568 245.171 356.607 244.665 354.979 243.654C353.351 242.643 352.105 241.187 351.242 239.288C350.403 237.364 349.984 235.021 349.984 232.258C349.984 229.323 350.502 226.844 351.538 224.821C352.574 222.798 354.017 221.269 355.867 220.233C357.717 219.197 359.838 218.679 362.231 218.679C363.464 218.679 364.636 218.802 365.746 219.049C366.88 219.296 367.855 219.678 368.669 220.196L367.263 223.082C366.597 222.613 365.832 222.293 364.969 222.12C364.13 221.947 363.242 221.861 362.305 221.861C359.665 221.861 357.569 222.687 356.015 224.34C354.461 225.968 353.684 228.398 353.684 231.629C353.684 232.147 353.708 232.764 353.758 233.479C353.807 234.194 353.93 234.897 354.128 235.588L352.87 234.33C353.24 233.195 353.819 232.246 354.609 231.481C355.423 230.692 356.385 230.112 357.495 229.742C358.629 229.347 359.85 229.15 361.158 229.15C362.884 229.15 364.414 229.471 365.746 230.112C367.078 230.753 368.126 231.666 368.891 232.85C369.655 234.009 370.038 235.391 370.038 236.994C370.038 238.647 369.631 240.09 368.817 241.323C368.003 242.556 366.905 243.506 365.524 244.172C364.142 244.838 362.588 245.171 360.862 245.171ZM360.714 242.174C361.848 242.174 362.835 241.964 363.674 241.545C364.537 241.126 365.215 240.546 365.709 239.806C366.202 239.041 366.449 238.153 366.449 237.142C366.449 235.613 365.918 234.404 364.858 233.516C363.797 232.603 362.354 232.147 360.529 232.147C359.345 232.147 358.309 232.369 357.421 232.813C356.533 233.257 355.83 233.861 355.312 234.626C354.818 235.366 354.572 236.217 354.572 237.179C354.572 238.067 354.806 238.893 355.275 239.658C355.743 240.398 356.434 241.002 357.347 241.471C358.259 241.94 359.382 242.174 360.714 242.174Z" fill="#292C33"/>
<path d="M414.901 62.8377C420.044 62.8377 423.781 65.9087 423.781 70.6817C423.781 75.6767 419.748 78.8587 414.605 78.8587C407.649 78.8587 403.727 74.1967 403.727 65.9457C403.727 57.1027 408.722 52.3667 415.974 52.3667C418.416 52.3667 420.747 52.8477 422.412 53.8837L421.006 56.7697C419.674 55.8817 417.897 55.5487 416.047 55.5487C410.793 55.5487 407.426 58.8417 407.426 65.3167C407.426 65.6127 407.427 65.9087 407.464 66.2417C408.944 64.0217 411.682 62.8377 414.901 62.8377ZM414.457 75.8617C417.824 75.8617 420.192 73.9007 420.192 70.8297C420.192 67.7957 417.897 65.8347 414.271 65.8347C410.756 65.8347 408.314 68.0177 408.314 70.8667C408.314 73.5307 410.461 75.8617 414.457 75.8617Z" fill="#292C33"/>
<path d="M396.383 104.975H405.892V130.875H402.229V108.194H396.383V104.975ZM421.474 115.853C426.654 116.334 429.281 119.257 429.281 123.253C429.281 127.619 426.062 131.171 419.476 131.171C415.776 131.171 412.15 129.987 409.967 128.026L411.669 125.103C413.408 126.731 416.294 127.878 419.476 127.878C423.361 127.878 425.581 126.102 425.581 123.29C425.581 120.552 423.62 118.776 419.18 118.776H417.108V116.186L423.62 108.194H411.151V104.975H428.245V107.491L421.474 115.853Z" fill="#292C33"/>
<path d="M397.308 184.656H410.591V187.875H391.98V185.359L402.525 175.184C405.263 172.52 405.781 170.892 405.781 169.264C405.781 166.6 403.894 164.972 400.268 164.972C397.493 164.972 395.236 165.86 393.645 167.784L391.129 165.601C393.127 163.122 396.568 161.679 400.601 161.679C406.003 161.679 409.481 164.454 409.481 168.894C409.481 171.41 408.741 173.667 405.226 177.034L397.308 184.656ZM424.107 188.171C418.039 188.171 413.525 183.361 413.525 174.925C413.525 166.489 418.039 161.679 424.107 161.679C430.138 161.679 434.652 166.489 434.652 174.925C434.652 183.361 430.138 188.171 424.107 188.171ZM424.107 184.878C428.14 184.878 430.952 181.548 430.952 174.925C430.952 168.302 428.14 164.972 424.107 164.972C420.037 164.972 417.225 168.302 417.225 174.925C417.225 181.548 420.037 184.878 424.107 184.878Z" fill="#292C33"/>
<path d="M18.5742 104.975H38.1102V107.491L27.6392 130.875H23.7172L33.9662 108.194H22.1262V112.819H18.5742V104.975Z" fill="#292C33"/>
<path d="M9.59375 161.975H19.1027V187.875H15.4398V165.194H9.59375V161.975ZM47.301 178.329V181.511H42.3801V187.875H38.791V181.511H24.398V178.921L37.6441 161.975H41.64L28.9491 178.329H38.9021V172.705H42.3801V178.329H47.301Z" fill="#292C33"/>
<path d="M17.7453 241.656H31.0283V244.875H12.4174V242.359L22.9623 232.184C25.7003 229.52 26.2183 227.892 26.2183 226.264C26.2183 223.6 24.3313 221.972 20.7053 221.972C17.9303 221.972 15.6734 222.86 14.0824 224.784L11.5664 222.601C13.5644 220.122 17.0053 218.679 21.0383 218.679C26.4403 218.679 29.9183 221.454 29.9183 225.894C29.9183 228.41 29.1783 230.667 25.6633 234.034L17.7453 241.656ZM32.5904 218.975H42.0994V244.875H38.4364V222.194H32.5904V218.975Z" fill="#292C33"/>
<path d="M85.2656 52.6626H94.7746V78.5626H91.1116V55.8816H85.2656V52.6626Z" fill="#292C33"/>
<path d="M98.7262 117.296C101.686 118.443 103.314 120.589 103.314 123.549C103.314 128.248 99.3182 131.171 92.9912 131.171C86.7012 131.171 82.7422 128.248 82.7422 123.549C82.7422 120.589 84.3702 118.406 87.2932 117.296C84.9252 116.186 83.6672 114.262 83.6672 111.709C83.6672 107.38 87.4042 104.679 92.9912 104.679C98.6152 104.679 102.389 107.38 102.389 111.709C102.389 114.262 101.094 116.186 98.7262 117.296ZM92.9912 107.676C89.5132 107.676 87.3302 109.267 87.3302 111.857C87.3302 114.41 89.4392 116.001 92.9912 116.001C96.5802 116.001 98.7632 114.41 98.7632 111.857C98.7632 109.267 96.4692 107.676 92.9912 107.676ZM92.9912 128.174C97.0982 128.174 99.6142 126.361 99.6142 123.438C99.6142 120.589 97.0982 118.813 92.9912 118.813C88.8842 118.813 86.4422 120.589 86.4422 123.438C86.4422 126.361 88.8842 128.174 92.9912 128.174Z" fill="#292C33"/>
<path d="M75.8438 161.975H85.3527V187.875H81.6897V165.194H75.8438V161.975ZM98.4181 172.298C106.152 172.298 109.186 175.517 109.186 180.105C109.186 184.582 106.004 188.171 99.38 188.171C95.717 188.171 92.091 186.987 89.871 185.026L91.5731 182.103C93.3121 183.731 96.198 184.878 99.343 184.878C103.265 184.878 105.485 183.065 105.485 180.253C105.485 177.33 103.635 175.517 97.6411 175.517H91.758L93.1271 161.975H107.743V165.194H96.2351L95.5322 172.298H98.4181Z" fill="#292C33"/>
<path d="M78.4681 241.656H91.7511V244.875H73.1401V242.359L83.6851 232.184C86.4231 229.52 86.9411 227.892 86.9411 226.264C86.9411 223.6 85.0541 221.972 81.4281 221.972C78.6531 221.972 76.3961 222.86 74.8051 224.784L72.2891 222.601C74.2871 220.122 77.7281 218.679 81.7611 218.679C87.1631 218.679 90.6411 221.454 90.6411 225.894C90.6411 228.41 89.9011 230.667 86.3861 234.034L78.4681 241.656ZM99.7142 241.656H112.997V244.875H94.3862V242.359L104.931 232.184C107.669 229.52 108.187 227.892 108.187 226.264C108.187 223.6 106.3 221.972 102.674 221.972C99.8992 221.972 97.6422 222.86 96.0512 224.784L93.5352 222.601C95.5332 220.122 98.9742 218.679 103.007 218.679C108.409 218.679 111.887 221.454 111.887 225.894C111.887 228.41 111.147 230.667 107.632 234.034L99.7142 241.656Z" fill="#292C33"/>
<path d="M156.276 104.679C163.232 104.679 167.154 109.341 167.154 117.592C167.154 126.435 162.159 131.171 154.907 131.171C152.465 131.171 150.134 130.69 148.469 129.654L149.875 126.768C151.244 127.656 152.983 127.989 154.87 127.989C160.124 127.989 163.454 124.696 163.454 118.221V117.296C161.937 119.553 159.199 120.7 155.98 120.7C150.837 120.7 147.137 117.629 147.137 112.856C147.137 107.861 151.133 104.679 156.276 104.679ZM156.609 117.703C160.161 117.703 162.603 115.52 162.603 112.671C162.603 110.007 160.457 107.676 156.424 107.676C153.057 107.676 150.726 109.637 150.726 112.708C150.726 115.742 152.983 117.703 156.609 117.703Z" fill="#292C33"/>
<path d="M139.547 161.975H149.056V187.875H145.393V165.194H139.547V161.975ZM165.896 172.15C171.039 172.15 174.776 175.221 174.776 179.994C174.776 184.989 170.743 188.171 165.6 188.171C158.644 188.171 154.722 183.509 154.722 175.258C154.722 166.415 159.717 161.679 166.969 161.679C169.411 161.679 171.742 162.16 173.407 163.196L172.001 166.082C170.669 165.194 168.893 164.861 167.043 164.861C161.789 164.861 158.422 168.154 158.422 174.629C158.422 174.925 158.422 175.221 158.459 175.554C159.939 173.334 162.677 172.15 165.896 172.15ZM165.452 185.174C168.819 185.174 171.187 183.213 171.187 180.142C171.187 177.108 168.893 175.147 165.267 175.147C161.752 175.147 159.31 177.33 159.31 180.179C159.31 182.843 161.456 185.174 165.452 185.174Z" fill="#292C33"/>
<path d="M143.007 241.656H156.29V244.875H137.679V242.359L148.224 232.184C150.962 229.52 151.48 227.892 151.48 226.264C151.48 223.6 149.593 221.972 145.967 221.972C143.192 221.972 140.935 222.86 139.344 224.784L136.828 222.601C138.826 220.122 142.267 218.679 146.3 218.679C151.702 218.679 155.18 221.454 155.18 225.894C155.18 228.41 154.44 230.667 150.925 234.034L143.007 241.656ZM169.249 229.853C174.429 230.334 177.056 233.257 177.056 237.253C177.056 241.619 173.837 245.171 167.251 245.171C163.551 245.171 159.925 243.987 157.742 242.026L159.444 239.103C161.183 240.731 164.069 241.878 167.251 241.878C171.136 241.878 173.356 240.102 173.356 237.29C173.356 234.552 171.395 232.776 166.955 232.776H164.883V230.186L171.395 222.194H158.926V218.975H176.02V221.491L169.249 229.853Z" fill="#292C33"/>
<path d="M154.843 75.3437H168.126V78.5627H149.515V76.0467L160.06 65.8717C162.798 63.2077 163.316 61.5797 163.316 59.9517C163.316 57.2877 161.429 55.6597 157.803 55.6597C155.028 55.6597 152.771 56.5477 151.18 58.4717L148.664 56.2887C150.662 53.8097 154.103 52.3667 158.136 52.3667C163.538 52.3667 167.016 55.1417 167.016 59.5817C167.016 62.0977 166.276 64.3547 162.761 67.7217L154.843 75.3437Z" fill="#292C33"/>
</svg>
