<svg width="432" height="303" viewBox="0 0 432 303" fill="none" xmlns="http://www.w3.org/2000/svg">
<path d="M120.5 146H63.5V193H120.5V146Z" fill="#E4793D" fill-opacity="0.6"/>
<path d="M183.5 146H126.5V193H183.5V146Z" fill="#E4793D" fill-opacity="0.6"/>
<path d="M246.5 146H189.5V193H246.5V146Z" fill="#E4793D" fill-opacity="0.6"/>
<path d="M311.5 146H254.5V193H311.5V146Z" fill="#E4793D" fill-opacity="0.6"/>
<path d="M183.5 256H126.5V303H183.5V256Z" fill="#3C78EC" fill-opacity="0.6"/>
<path d="M23.4564 20.7264H20.8476V3.36139H11.3906V20.7264H8.7002V1.32324H23.3749V20.7264H23.4564Z" fill="#B3B3B3" fill-opacity="0.6"/>
<path d="M39.2725 20.7265H36.6636V14.612H30.2231V20.7265H27.6143V6.29639H30.2231V12.5739H36.6636V6.29639H39.2725V20.7265Z" fill="#B3B3B3" fill-opacity="0.6"/>
<path d="M73.5 20.7264V1.32324H79.859C81.8972 1.32324 83.4462 1.73087 84.5875 2.62766C85.7289 3.52444 86.2996 4.82886 86.2996 6.5409C86.2996 7.35616 86.055 8.08989 85.5658 8.82363C85.0767 9.55736 84.3429 9.96499 83.5277 10.2911C84.8321 10.4541 85.8104 11.0248 86.5441 11.9216C87.2779 12.8184 87.6855 13.9598 87.6855 15.1826C87.6855 16.9762 87.1148 18.2806 85.9735 19.2589C84.8321 20.2373 83.2831 20.6449 81.245 20.6449H73.5V20.7264ZM76.1904 9.55736H80.4297C81.408 9.55736 82.2233 9.31278 82.794 8.7421C83.4462 8.17142 83.6907 7.43769 83.6907 6.45937C83.6907 5.39954 83.3646 4.6658 82.7124 4.09512C82.0602 3.60597 81.0819 3.27986 79.859 3.27986H76.1904V9.55736ZM76.1904 11.5955V18.6067H81.245C82.4678 18.6067 83.3646 18.2806 84.0168 17.7099C84.6691 17.1393 84.9952 16.2425 84.9952 15.1826C84.9952 14.1228 84.6691 13.226 84.0168 12.5738C83.3646 11.9216 82.4678 11.5955 81.245 11.514H81.0819H76.1904V11.5955Z" fill="#B3B3B3" fill-opacity="0.6"/>
<path d="M101.626 8.33453H96.8976V20.7265H94.2888V8.33453H89.5603V6.29639H101.626V8.33453Z" fill="#B3B3B3" fill-opacity="0.6"/>
<path d="M151.012 14.5304C151.093 16.4055 150.441 17.9545 149.137 19.1773C147.832 20.4002 146.12 21.0524 143.919 21.0524C141.718 21.0524 139.924 20.2372 138.538 18.6882C137.152 17.1392 136.5 15.1826 136.5 12.7368V9.31271C136.5 6.94846 137.152 4.91031 138.538 3.36132C139.924 1.81233 141.718 0.99707 143.919 0.99707C146.12 0.99707 147.832 1.56775 149.137 2.70911C150.441 3.85048 151.093 5.39947 151.012 7.35609V7.43762H148.484C148.484 6.05168 148.077 4.99184 147.261 4.17658C146.446 3.36132 145.305 2.95369 143.837 2.95369C142.37 2.95369 141.229 3.52437 140.332 4.74726C139.435 5.88862 139.027 7.35609 139.027 9.14966V12.6553C139.027 14.4488 139.435 15.9163 140.332 17.0577C141.229 18.199 142.37 18.8512 143.837 18.8512C145.305 18.8512 146.446 18.4436 147.261 17.7099C148.077 16.8946 148.484 15.8348 148.484 14.4488H151.012V14.5304Z" fill="#B3B3B3" fill-opacity="0.6"/>
<path d="M166.42 14.0413C166.42 16.161 165.931 17.7915 164.953 19.0959C163.974 20.4003 162.588 20.971 160.795 20.971C159.898 20.971 159.164 20.8079 158.43 20.5634C157.778 20.2373 157.208 19.8296 156.718 19.259V26.2702H154.11V6.29634H156.148L156.555 8.17143C157.045 7.4377 157.615 6.94854 158.349 6.62244C159.083 6.29634 159.898 6.05176 160.795 6.05176C162.588 6.05176 163.974 6.78549 164.953 8.17143C165.931 9.55737 166.42 11.4325 166.42 13.7967V14.0413ZM163.811 13.7967C163.811 12.1662 163.485 10.7803 162.833 9.80195C162.181 8.82364 161.202 8.25296 159.979 8.25296C159.246 8.25296 158.594 8.41601 158.023 8.74211C157.452 9.06822 157.045 9.55737 156.718 10.1281V17.1393C157.045 17.71 157.452 18.1991 158.023 18.5252C158.594 18.8513 159.246 19.0144 159.979 19.0144C161.202 19.0144 162.181 18.5252 162.833 17.6284C163.485 16.7317 163.811 15.5088 163.811 14.1228V13.7967Z" fill="#B3B3B3" fill-opacity="0.6"/>
<path d="M215.93 1.32324V20.7264H213.321V12.6553C212.506 12.8999 211.691 13.063 210.875 13.226C210.06 13.3076 209.163 13.3891 208.022 13.3891C205.902 13.3891 204.272 12.8999 203.131 12.0031C201.989 11.1064 201.5 9.55736 201.5 7.43769V1.32324H204.109V7.43769C204.109 8.90515 204.435 9.88346 205.006 10.4541C205.658 11.0248 206.636 11.2694 207.941 11.2694C208.837 11.2694 209.734 11.1879 210.631 11.1064C211.446 10.9433 212.343 10.7802 213.24 10.5357V1.32324H215.93Z" fill="#B3B3B3" fill-opacity="0.6"/>
<path d="M231.175 8.33453H226.447V20.7265H223.838V8.33453H219.11V6.29639H231.175V8.33453Z" fill="#B3B3B3" fill-opacity="0.6"/>
<path d="M280.175 20.7264H277.566V3.36139H268.109V20.7264H265.5V1.32324H280.175V20.7264Z" fill="#B3B3B3" fill-opacity="0.6"/>
<path d="M295.42 8.33453H290.692V20.7265H288.083V8.33453H283.354V6.29639H295.42V8.33453Z" fill="#B3B3B3" fill-opacity="0.6"/>
<path d="M345.012 14.5301C345.093 16.4052 344.441 17.9542 343.137 19.1771C341.832 20.4 340.12 21.0522 337.919 21.0522C335.718 21.0522 333.924 20.2369 332.538 18.6879C331.152 17.139 330.5 15.1823 330.5 12.7366V9.31247C330.5 6.94822 331.152 4.91007 332.538 3.36108C333.924 1.81209 335.718 0.996826 337.919 0.996826C340.12 0.996826 341.832 1.56751 343.137 2.70887C344.441 3.85023 345.093 5.39922 345.012 7.35585V7.43737H342.484C342.484 6.05143 342.077 4.9916 341.261 4.17634C340.446 3.36108 339.305 2.95345 337.837 2.95345C336.37 2.95345 335.229 3.52413 334.332 4.74702C333.435 5.88838 333.027 7.35585 333.027 9.14942V12.655C333.027 14.4486 333.435 15.9161 334.332 17.0574C335.229 18.1988 336.37 18.851 337.837 18.851C339.305 18.851 340.446 18.4434 341.261 17.7096C342.077 16.8944 342.484 15.8345 342.484 14.4486H345.012V14.5301Z" fill="#B3B3B3" fill-opacity="0.6"/>
<path d="M354.387 6.05149C356.262 6.05149 357.648 6.7037 358.708 8.08964C359.768 9.47558 360.338 11.1876 360.338 13.3888V13.7149C360.338 15.8346 359.768 17.6282 358.626 19.0141C357.485 20.4 355.936 21.0523 353.898 21.0523C351.86 21.0523 350.311 20.4 349.169 19.0141C348.028 17.6282 347.457 15.9161 347.457 13.7149V13.3888C347.457 13.3073 347.457 13.2258 347.457 13.2258C347.457 13.1442 347.457 13.1442 347.457 13.0627V9.96473C347.457 7.19285 348.028 5.23623 349.088 3.93182C350.148 2.6274 351.778 1.97519 353.898 1.81214C355.121 1.73062 356.099 1.56756 356.751 1.32299C357.403 1.07841 357.73 0.670779 357.73 0.100098H359.768V0.181624C359.849 1.56756 359.36 2.54587 358.382 3.11656C357.403 3.68724 356.017 4.01334 354.142 4.01334C352.756 4.01334 351.697 4.42097 350.881 5.1547C350.066 5.88844 349.658 6.94827 349.658 8.33421V8.41574C350.148 7.76353 350.881 7.19285 351.697 6.78522C352.512 6.37759 353.49 6.05149 354.387 6.05149ZM353.898 8.08964C352.675 8.08964 351.697 8.57879 351.044 9.5571C350.392 10.5354 350.066 11.8398 350.066 13.3073V13.6334C350.066 15.1824 350.392 16.4053 351.044 17.3836C351.697 18.3619 352.675 18.8511 353.898 18.8511C355.121 18.8511 356.099 18.3619 356.751 17.3836C357.403 16.4053 357.73 15.1009 357.73 13.6334V13.3073C357.73 11.7583 357.403 10.5354 356.751 9.5571C356.099 8.57879 355.121 8.08964 353.898 8.08964Z" fill="#B3B3B3" fill-opacity="0.6"/>
<path d="M394.5 20.7264V1.32324H400.859C402.897 1.32324 404.446 1.73087 405.588 2.62766C406.729 3.52444 407.3 4.82886 407.3 6.5409C407.3 7.35616 407.055 8.08989 406.566 8.82363C406.077 9.55736 405.343 9.96499 404.528 10.3726C405.832 10.5357 406.81 11.1064 407.544 12.0031C408.278 12.8999 408.686 14.0413 408.686 15.2642C408.686 17.0577 408.115 18.3622 406.973 19.3405C405.832 20.3188 404.283 20.7264 402.245 20.7264H394.5ZM397.19 9.55736H401.43C402.408 9.55736 403.223 9.31278 403.794 8.7421C404.446 8.17142 404.691 7.43769 404.691 6.45937C404.691 5.39954 404.365 4.6658 403.712 4.09512C403.06 3.60597 402.082 3.27986 400.859 3.27986H397.19V9.55736ZM397.19 11.5955V18.6067H402.245C403.468 18.6067 404.365 18.2806 405.017 17.7099C405.669 17.1393 405.995 16.2425 405.995 15.1826C405.995 14.1228 405.669 13.226 405.017 12.5738C404.365 11.9216 403.468 11.5955 402.245 11.514H402.082H397.19V11.5955Z" fill="#B3B3B3" fill-opacity="0.6"/>
<path d="M417.245 18.9326C418.061 18.9326 418.794 18.688 419.365 18.1174C419.936 17.5467 420.262 16.8945 420.262 16.1607H422.626V16.2423C422.626 17.4652 422.137 18.6065 420.996 19.5848C419.854 20.5631 418.631 21.0523 417.164 21.0523C415.126 21.0523 413.577 20.4001 412.435 19.0141C411.294 17.6282 410.805 15.9162 410.805 13.878V13.3073C410.805 11.2692 411.376 9.55714 412.435 8.1712C413.577 6.78526 415.126 6.13306 417.082 6.13306C418.713 6.13306 420.017 6.62221 420.996 7.60052C421.974 8.57883 422.545 9.80172 422.463 11.2692V11.3507H420.099C420.099 10.4539 419.773 9.7202 419.202 9.06799C418.631 8.41578 417.898 8.1712 417.001 8.1712C415.696 8.1712 414.8 8.66036 414.147 9.63867C413.577 10.617 413.251 11.8399 413.251 13.3073V13.878C413.251 15.3455 413.577 16.5684 414.147 17.5467C415.044 18.4435 415.941 18.9326 417.245 18.9326Z" fill="#B3B3B3" fill-opacity="0.6"/>
<path d="M20.9489 52.1H30.4579V78H26.7949V55.319H20.9489V52.1Z" fill="#292C33" fill-opacity="0.6"/>
<path d="M33.2062 116.421C36.1662 117.568 37.7942 119.714 37.7942 122.674C37.7942 127.373 33.7982 130.296 27.4712 130.296C21.1812 130.296 17.2222 127.373 17.2222 122.674C17.2222 119.714 18.8502 117.531 21.7732 116.421C19.4052 115.311 18.1472 113.387 18.1472 110.834C18.1472 106.505 21.8842 103.804 27.4712 103.804C33.0952 103.804 36.8692 106.505 36.8692 110.834C36.8692 113.387 35.5742 115.311 33.2062 116.421ZM27.4712 106.801C23.9932 106.801 21.8102 108.392 21.8102 110.982C21.8102 113.535 23.9192 115.126 27.4712 115.126C31.0602 115.126 33.2432 113.535 33.2432 110.982C33.2432 108.392 30.9492 106.801 27.4712 106.801ZM27.4712 127.299C31.5782 127.299 34.0942 125.486 34.0942 122.563C34.0942 119.714 31.5782 117.938 27.4712 117.938C23.3642 117.938 20.9222 119.714 20.9222 122.563C20.9222 125.486 23.3642 127.299 27.4712 127.299Z" fill="#292C33" fill-opacity="0.6"/>
<path d="M9.82581 157.1H19.3348V183H15.6718V160.319H9.82581V157.1ZM32.4001 167.423C40.1331 167.423 43.1671 170.642 43.1671 175.23C43.1671 179.707 39.9851 183.296 33.3621 183.296C29.6991 183.296 26.0731 182.112 23.8531 180.151L25.5551 177.228C27.2941 178.856 30.1801 180.003 33.3251 180.003C37.2471 180.003 39.4671 178.19 39.4671 175.378C39.4671 172.455 37.6171 170.642 31.6231 170.642H25.7401L27.1091 157.1H41.7241V160.319H30.2171L29.5141 167.423H32.4001Z" fill="#292C33" fill-opacity="0.6"/>
<path d="M12.4508 232.781H25.7338V236H7.12285V233.484L17.6678 223.309C20.4058 220.645 20.9238 219.017 20.9238 217.389C20.9238 214.725 19.0368 213.097 15.4108 213.097C12.6358 213.097 10.3789 213.985 8.78785 215.909L6.27185 213.726C8.26985 211.247 11.7108 209.804 15.7438 209.804C21.1458 209.804 24.6238 212.579 24.6238 217.019C24.6238 219.535 23.8838 221.792 20.3688 225.159L12.4508 232.781ZM33.6969 232.781H46.9799V236H28.3689V233.484L38.9139 223.309C41.6519 220.645 42.1699 219.017 42.1699 217.389C42.1699 214.725 40.2829 213.097 36.6569 213.097C33.8819 213.097 31.6249 213.985 30.0339 215.909L27.5179 213.726C29.5159 211.247 32.9569 209.804 36.9899 209.804C42.3919 209.804 45.8699 212.579 45.8699 217.019C45.8699 219.535 45.1299 221.792 41.6149 225.159L33.6969 232.781Z" fill="#292C33" fill-opacity="0.6"/>
<path d="M11.6559 290.781H24.9389V294H6.32793V291.484L16.8729 281.309C19.6109 278.645 20.1289 277.017 20.1289 275.389C20.1289 272.725 18.2419 271.097 14.6159 271.097C11.8409 271.097 9.58393 271.985 7.99293 273.909L5.47693 271.726C7.47493 269.247 10.9159 267.804 14.9489 267.804C20.3509 267.804 23.8289 270.579 23.8289 275.019C23.8289 277.535 23.0889 279.792 19.5739 283.159L11.6559 290.781ZM36.38 267.804C43.336 267.804 47.258 272.466 47.258 280.717C47.258 289.56 42.263 294.296 35.011 294.296C32.569 294.296 30.238 293.815 28.573 292.779L29.979 289.893C31.348 290.781 33.087 291.114 34.974 291.114C40.228 291.114 43.5581 287.821 43.5581 281.346V280.421C42.0411 282.678 39.303 283.825 36.084 283.825C30.941 283.825 27.241 280.754 27.241 275.981C27.241 270.986 31.237 267.804 36.38 267.804ZM36.713 280.828C40.265 280.828 42.707 278.645 42.707 275.796C42.707 273.132 40.561 270.801 36.528 270.801C33.161 270.801 30.83 272.762 30.83 275.833C30.83 278.867 33.087 280.828 36.713 280.828Z" fill="#292C33" fill-opacity="0.6"/>
<path d="M86.574 74.781H99.857V78H81.246V75.484L91.791 65.309C94.529 62.645 95.047 61.017 95.047 59.389C95.047 56.725 93.16 55.097 89.534 55.097C86.759 55.097 84.502 55.985 82.911 57.909L80.395 55.726C82.393 53.247 85.834 51.804 89.867 51.804C95.269 51.804 98.747 54.579 98.747 59.019C98.747 61.535 98.007 63.792 94.492 67.159L86.574 74.781Z" fill="#292C33" fill-opacity="0.6"/>
<path d="M89.757 103.804C96.713 103.804 100.635 108.466 100.635 116.717C100.635 125.56 95.64 130.296 88.388 130.296C85.946 130.296 83.615 129.815 81.95 128.779L83.356 125.893C84.725 126.781 86.464 127.114 88.351 127.114C93.605 127.114 96.935 123.821 96.935 117.346V116.421C95.418 118.678 92.68 119.825 89.461 119.825C84.318 119.825 80.618 116.754 80.618 111.981C80.618 106.986 84.614 103.804 89.757 103.804ZM90.09 116.828C93.642 116.828 96.084 114.645 96.084 111.796C96.084 109.132 93.938 106.801 89.905 106.801C86.538 106.801 84.207 108.762 84.207 111.833C84.207 114.867 86.464 116.828 90.09 116.828Z" fill="#292C33" fill-opacity="0.6"/>
<path d="M73.0309 157.1H82.5399V183H78.8769V160.319H73.0309V157.1ZM99.3792 167.275C104.522 167.275 108.259 170.346 108.259 175.119C108.259 180.114 104.226 183.296 99.0832 183.296C92.1272 183.296 88.2052 178.634 88.2052 170.383C88.2052 161.54 93.2002 156.804 100.452 156.804C102.894 156.804 105.225 157.285 106.89 158.321L105.484 161.207C104.152 160.319 102.376 159.986 100.526 159.986C95.2722 159.986 91.9052 163.279 91.9052 169.754C91.9052 170.05 91.9052 170.346 91.9422 170.679C93.4222 168.459 96.1602 167.275 99.3792 167.275ZM98.9352 180.299C102.302 180.299 104.67 178.338 104.67 175.267C104.67 172.233 102.376 170.272 98.7502 170.272C95.2352 170.272 92.7932 172.455 92.7932 175.304C92.7932 177.968 94.9392 180.299 98.9352 180.299Z" fill="white"/>
<path d="M76.487 232.781H89.77V236H71.159V233.484L81.704 223.309C84.442 220.645 84.96 219.017 84.96 217.389C84.96 214.725 83.073 213.097 79.447 213.097C76.672 213.097 74.415 213.985 72.824 215.909L70.308 213.726C72.306 211.247 75.747 209.804 79.78 209.804C85.182 209.804 88.66 212.579 88.66 217.019C88.66 219.535 87.92 221.792 84.405 225.159L76.487 232.781ZM102.728 220.978C107.908 221.459 110.535 224.382 110.535 228.378C110.535 232.744 107.316 236.296 100.73 236.296C97.0301 236.296 93.4041 235.112 91.2211 233.151L92.9231 230.228C94.6621 231.856 97.5481 233.003 100.73 233.003C104.615 233.003 106.835 231.227 106.835 228.415C106.835 225.677 104.874 223.901 100.434 223.901H98.3621V221.311L104.874 213.319H92.4051V210.1H109.499V212.616L102.728 220.978Z" fill="#292C33" fill-opacity="0.6"/>
<path d="M79.2657 278.978C84.4457 279.459 87.0727 282.382 87.0727 286.378C87.0727 290.744 83.8537 294.296 77.2677 294.296C73.5677 294.296 69.9417 293.112 67.7587 291.151L69.4607 288.228C71.1997 289.856 74.0857 291.003 77.2677 291.003C81.1527 291.003 83.3727 289.227 83.3727 286.415C83.3727 283.677 81.4117 281.901 76.9717 281.901H74.8997V279.311L81.4117 271.319H68.9427V268.1H86.0367V270.616L79.2657 278.978ZM101.106 294.296C95.0376 294.296 90.5236 289.486 90.5236 281.05C90.5236 272.614 95.0376 267.804 101.106 267.804C107.137 267.804 111.651 272.614 111.651 281.05C111.651 289.486 107.137 294.296 101.106 294.296ZM101.106 291.003C105.139 291.003 107.951 287.673 107.951 281.05C107.951 274.427 105.139 271.097 101.106 271.097C97.0356 271.097 94.2236 274.427 94.2236 281.05C94.2236 287.673 97.0356 291.003 101.106 291.003Z" fill="#292C33" fill-opacity="0.6"/>
<path d="M155.605 62.978C160.785 63.459 163.412 66.382 163.412 70.378C163.412 74.744 160.193 78.296 153.607 78.296C149.907 78.296 146.281 77.112 144.098 75.151L145.8 72.228C147.539 73.856 150.425 75.003 153.607 75.003C157.492 75.003 159.712 73.227 159.712 70.415C159.712 67.677 157.751 65.901 153.311 65.901H151.239V63.311L157.751 55.319H145.282V52.1H162.376V54.616L155.605 62.978Z" fill="#292C33" fill-opacity="0.6"/>
<path d="M136.109 104.1H145.618V130H141.955V107.319H136.109V104.1ZM161.866 130.296C155.798 130.296 151.284 125.486 151.284 117.05C151.284 108.614 155.798 103.804 161.866 103.804C167.897 103.804 172.411 108.614 172.411 117.05C172.411 125.486 167.897 130.296 161.866 130.296ZM161.866 127.003C165.899 127.003 168.711 123.673 168.711 117.05C168.711 110.427 165.899 107.097 161.866 107.097C157.796 107.097 154.984 110.427 154.984 117.05C154.984 123.673 157.796 127.003 161.866 127.003Z" fill="#292C33" fill-opacity="0.6"/>
<path d="M136.892 157.1H146.401V183H142.738V160.319H136.892V157.1ZM151.401 157.1H170.937V159.616L160.466 183H156.544L166.793 160.319H154.953V164.944H151.401V157.1Z" fill="white"/>
<path d="M138.542 232.781H151.825V236H133.214V233.484L143.759 223.309C146.497 220.645 147.015 219.017 147.015 217.389C147.015 214.725 145.128 213.097 141.502 213.097C138.727 213.097 136.47 213.985 134.879 215.909L132.363 213.726C134.361 211.247 137.802 209.804 141.835 209.804C147.237 209.804 150.715 212.579 150.715 217.019C150.715 219.535 149.975 221.792 146.46 225.159L138.542 232.781ZM176.713 226.454V229.636H171.792V236H168.203V229.636H153.81V227.046L167.056 210.1H171.052L158.361 226.454H168.314V220.83H171.792V226.454H176.713Z" fill="#292C33" fill-opacity="0.6"/>
<path d="M149.258 278.978C154.438 279.459 157.065 282.382 157.065 286.378C157.065 290.744 153.846 294.296 147.26 294.296C143.56 294.296 139.934 293.112 137.751 291.151L139.453 288.228C141.192 289.856 144.078 291.003 147.26 291.003C151.145 291.003 153.365 289.227 153.365 286.415C153.365 283.677 151.404 281.901 146.964 281.901H144.892V279.311L151.404 271.319H138.935V268.1H156.029V270.616L149.258 278.978ZM159.036 268.1H168.545V294H164.882V271.319H159.036V268.1Z" fill="white"/>
<path d="M230.934 68.454V71.636H226.013V78H222.424V71.636H208.031V69.046L221.277 52.1H225.273L212.582 68.454H222.535V62.83H226.013V68.454H230.934Z" fill="#292C33" fill-opacity="0.6"/>
<path d="M206.102 104.1H215.611V130H211.948V107.319H206.102V104.1ZM219.796 104.1H229.305V130H225.642V107.319H219.796V104.1Z" fill="#292C33" fill-opacity="0.6"/>
<path d="M201.043 157.1H210.552V183H206.889V160.319H201.043V157.1ZM232.053 169.421C235.013 170.568 236.641 172.714 236.641 175.674C236.641 180.373 232.645 183.296 226.318 183.296C220.028 183.296 216.069 180.373 216.069 175.674C216.069 172.714 217.697 170.531 220.62 169.421C218.252 168.311 216.994 166.387 216.994 163.834C216.994 159.505 220.731 156.804 226.318 156.804C231.942 156.804 235.716 159.505 235.716 163.834C235.716 166.387 234.421 168.311 232.053 169.421ZM226.318 159.801C222.84 159.801 220.657 161.392 220.657 163.982C220.657 166.535 222.766 168.126 226.318 168.126C229.907 168.126 232.09 166.535 232.09 163.982C232.09 161.392 229.796 159.801 226.318 159.801ZM226.318 180.299C230.425 180.299 232.941 178.486 232.941 175.563C232.941 172.714 230.425 170.938 226.318 170.938C222.211 170.938 219.769 172.714 219.769 175.563C219.769 178.486 222.211 180.299 226.318 180.299Z" fill="white"/>
<path d="M204.451 232.781H217.734V236H199.123V233.484L209.668 223.309C212.406 220.645 212.924 219.017 212.924 217.389C212.924 214.725 211.037 213.097 207.411 213.097C204.636 213.097 202.379 213.985 200.788 215.909L198.272 213.726C200.27 211.247 203.711 209.804 207.744 209.804C213.146 209.804 216.624 212.579 216.624 217.019C216.624 219.535 215.884 221.792 212.369 225.159L204.451 232.781ZM228.176 220.423C235.909 220.423 238.943 223.642 238.943 228.23C238.943 232.707 235.761 236.296 229.138 236.296C225.475 236.296 221.849 235.112 219.629 233.151L221.331 230.228C223.07 231.856 225.956 233.003 229.101 233.003C233.023 233.003 235.243 231.19 235.243 228.378C235.243 225.455 233.393 223.642 227.399 223.642H221.516L222.885 210.1H237.5V213.319H225.993L225.29 220.423H228.176Z" fill="#292C33" fill-opacity="0.6"/>
<path d="M281.053 62.423C288.786 62.423 291.82 65.642 291.82 70.23C291.82 74.707 288.638 78.296 282.015 78.296C278.352 78.296 274.726 77.112 272.506 75.151L274.208 72.228C275.947 73.856 278.833 75.003 281.978 75.003C285.9 75.003 288.12 73.19 288.12 70.378C288.12 67.455 286.27 65.642 280.276 65.642H274.393L275.762 52.1H290.377V55.319H278.87L278.167 62.423H281.053Z" fill="#292C33" fill-opacity="0.6"/>
<path d="M265.826 104.1H275.335V130H271.672V107.319H265.826V104.1ZM285.921 126.781H299.204V130H280.593V127.484L291.138 117.309C293.876 114.645 294.394 113.017 294.394 111.389C294.394 108.725 292.507 107.097 288.881 107.097C286.106 107.097 283.849 107.985 282.258 109.909L279.742 107.726C281.74 105.247 285.181 103.804 289.214 103.804C294.616 103.804 298.094 106.579 298.094 111.019C298.094 113.535 297.354 115.792 293.839 119.159L285.921 126.781Z" fill="#292C33" fill-opacity="0.6"/>
<path d="M265.031 157.1H274.54V183H270.877V160.319H265.031V157.1ZM288.604 156.804C295.56 156.804 299.482 161.466 299.482 169.717C299.482 178.56 294.487 183.296 287.235 183.296C284.793 183.296 282.462 182.815 280.797 181.779L282.203 178.893C283.572 179.781 285.311 180.114 287.198 180.114C292.452 180.114 295.782 176.821 295.782 170.346V169.421C294.265 171.678 291.527 172.825 288.308 172.825C283.165 172.825 279.465 169.754 279.465 164.981C279.465 159.986 283.461 156.804 288.604 156.804ZM288.937 169.828C292.489 169.828 294.931 167.645 294.931 164.796C294.931 162.132 292.785 159.801 288.752 159.801C285.385 159.801 283.054 161.762 283.054 164.833C283.054 167.867 285.311 169.828 288.937 169.828Z" fill="white"/>
<path d="M267.21 232.781H280.493V236H261.882V233.484L272.427 223.309C275.165 220.645 275.683 219.017 275.683 217.389C275.683 214.725 273.796 213.097 270.17 213.097C267.395 213.097 265.138 213.985 263.547 215.909L261.031 213.726C263.029 211.247 266.47 209.804 270.503 209.804C275.905 209.804 279.383 212.579 279.383 217.019C279.383 219.535 278.643 221.792 275.128 225.159L267.21 232.781ZM294.601 220.275C299.744 220.275 303.481 223.346 303.481 228.119C303.481 233.114 299.448 236.296 294.305 236.296C287.349 236.296 283.427 231.634 283.427 223.383C283.427 214.54 288.422 209.804 295.674 209.804C298.116 209.804 300.447 210.285 302.112 211.321L300.706 214.207C299.374 213.319 297.598 212.986 295.748 212.986C290.494 212.986 287.127 216.279 287.127 222.754C287.127 223.05 287.127 223.346 287.164 223.679C288.644 221.459 291.382 220.275 294.601 220.275ZM294.157 233.299C297.524 233.299 299.892 231.338 299.892 228.267C299.892 225.233 297.598 223.272 293.972 223.272C290.457 223.272 288.015 225.455 288.015 228.304C288.015 230.968 290.161 233.299 294.157 233.299Z" fill="#292C33" fill-opacity="0.6"/>
<path d="M348.532 62.275C353.675 62.275 357.412 65.346 357.412 70.119C357.412 75.114 353.379 78.296 348.236 78.296C341.28 78.296 337.358 73.634 337.358 65.383C337.358 56.54 342.353 51.804 349.605 51.804C352.047 51.804 354.378 52.285 356.043 53.321L354.637 56.207C353.305 55.319 351.529 54.986 349.679 54.986C344.425 54.986 341.058 58.279 341.058 64.754C341.058 65.05 341.058 65.346 341.095 65.679C342.575 63.459 345.313 62.275 348.532 62.275ZM348.088 75.299C351.455 75.299 353.823 73.338 353.823 70.267C353.823 67.233 351.529 65.272 347.903 65.272C344.388 65.272 341.946 67.455 341.946 70.304C341.946 72.968 344.092 75.299 348.088 75.299Z" fill="#292C33" fill-opacity="0.6"/>
<path d="M329.862 104.1H339.371V130H335.708V107.319H329.862V104.1ZM354.952 114.978C360.132 115.459 362.759 118.382 362.759 122.378C362.759 126.744 359.54 130.296 352.954 130.296C349.254 130.296 345.628 129.112 343.445 127.151L345.147 124.228C346.886 125.856 349.772 127.003 352.954 127.003C356.839 127.003 359.059 125.227 359.059 122.415C359.059 119.677 357.098 117.901 352.658 117.901H350.586V115.311L357.098 107.319H344.629V104.1H361.723V106.616L354.952 114.978Z" fill="#292C33" fill-opacity="0.6"/>
<path d="M330.289 179.781H343.572V183H324.961V180.484L335.506 170.309C338.244 167.645 338.762 166.017 338.762 164.389C338.762 161.725 336.875 160.097 333.249 160.097C330.474 160.097 328.217 160.985 326.626 162.909L324.11 160.726C326.108 158.247 329.549 156.804 333.582 156.804C338.984 156.804 342.462 159.579 342.462 164.019C342.462 166.535 341.722 168.792 338.207 172.159L330.289 179.781ZM357.087 183.296C351.019 183.296 346.505 178.486 346.505 170.05C346.505 161.614 351.019 156.804 357.087 156.804C363.118 156.804 367.632 161.614 367.632 170.05C367.632 178.486 363.118 183.296 357.087 183.296ZM357.087 180.003C361.12 180.003 363.932 176.673 363.932 170.05C363.932 163.427 361.12 160.097 357.087 160.097C353.017 160.097 350.205 163.427 350.205 170.05C350.205 176.673 353.017 180.003 357.087 180.003Z" fill="#292C33" fill-opacity="0.6"/>
<path d="M331.572 232.781H344.855V236H326.244V233.484L336.789 223.309C339.527 220.645 340.045 219.017 340.045 217.389C340.045 214.725 338.158 213.097 334.532 213.097C331.757 213.097 329.5 213.985 327.909 215.909L325.393 213.726C327.391 211.247 330.832 209.804 334.865 209.804C340.267 209.804 343.745 212.579 343.745 217.019C343.745 219.535 343.005 221.792 339.49 225.159L331.572 232.781ZM347.122 210.1H366.658V212.616L356.187 236H352.265L362.514 213.319H350.674V217.944H347.122V210.1Z" fill="#292C33" fill-opacity="0.6"/>
<path d="M389.073 104.1H398.582V130H394.919V107.319H389.073V104.1ZM426.781 120.454V123.636H421.86V130H418.271V123.636H403.878V121.046L417.124 104.1H421.12L408.429 120.454H418.382V114.83H421.86V120.454H426.781Z" fill="#292C33" fill-opacity="0.6"/>
<path d="M397.227 179.781H410.51V183H391.899V180.484L402.444 170.309C405.182 167.645 405.7 166.017 405.7 164.389C405.7 161.725 403.813 160.097 400.187 160.097C397.412 160.097 395.155 160.985 393.564 162.909L391.048 160.726C393.046 158.247 396.487 156.804 400.52 156.804C405.922 156.804 409.4 159.579 409.4 164.019C409.4 166.535 408.66 168.792 405.145 172.159L397.227 179.781ZM412.072 157.1H421.581V183H417.918V160.319H412.072V157.1Z" fill="#292C33" fill-opacity="0.6"/>
<path d="M391.668 232.781H404.951V236H386.34V233.484L396.885 223.309C399.623 220.645 400.141 219.017 400.141 217.389C400.141 214.725 398.254 213.097 394.628 213.097C391.853 213.097 389.596 213.985 388.005 215.909L385.489 213.726C387.487 211.247 390.928 209.804 394.961 209.804C400.363 209.804 403.841 212.579 403.841 217.019C403.841 219.535 403.101 221.792 399.586 225.159L391.668 232.781ZM423.829 222.421C426.789 223.568 428.417 225.714 428.417 228.674C428.417 233.373 424.421 236.296 418.094 236.296C411.804 236.296 407.845 233.373 407.845 228.674C407.845 225.714 409.473 223.531 412.396 222.421C410.028 221.311 408.77 219.387 408.77 216.834C408.77 212.505 412.507 209.804 418.094 209.804C423.718 209.804 427.492 212.505 427.492 216.834C427.492 219.387 426.197 221.311 423.829 222.421ZM418.094 212.801C414.616 212.801 412.433 214.392 412.433 216.982C412.433 219.535 414.542 221.126 418.094 221.126C421.683 221.126 423.866 219.535 423.866 216.982C423.866 214.392 421.572 212.801 418.094 212.801ZM418.094 233.299C422.201 233.299 424.717 231.486 424.717 228.563C424.717 225.714 422.201 223.938 418.094 223.938C413.987 223.938 411.545 225.714 411.545 228.563C411.545 231.486 413.987 233.299 418.094 233.299Z" fill="#292C33" fill-opacity="0.6"/>
<path d="M398.053 52.1H417.589V54.616L407.118 78H403.196L413.445 55.319H401.605V59.944H398.053V52.1Z" fill="#292C33" fill-opacity="0.6"/>
</svg>
