<svg width="432" height="308" viewBox="0 0 432 308" fill="none" xmlns="http://www.w3.org/2000/svg">
<g clip-path="url(#clip0_3949_8130)">
<mask id="mask0_3949_8130" style="mask-type:luminance" maskUnits="userSpaceOnUse" x="0" y="0" width="432" height="363">
<path d="M431.5 0H0.5V363H431.5V0Z" fill="white"/>
</mask>
<g mask="url(#mask0_3949_8130)">
<mask id="mask1_3949_8130" style="mask-type:luminance" maskUnits="userSpaceOnUse" x="0" y="0" width="432" height="363">
<path d="M431.5 0H0.5V363H431.5V0Z" fill="white"/>
</mask>
<g mask="url(#mask1_3949_8130)">
<mask id="mask2_3949_8130" style="mask-type:luminance" maskUnits="userSpaceOnUse" x="0" y="0" width="432" height="363">
<path d="M431.5 0H0.5V363H431.5V0Z" fill="white"/>
</mask>
<g mask="url(#mask2_3949_8130)">
<path d="M308 150H251V197H308V150Z" fill="#E4793D"/>
<path d="M23.4554 21.2264H20.8466V3.86139H11.3896V21.2264H8.69922V1.82324H23.3739V21.2264H23.4554Z" fill="#B3B3B3"/>
<path d="M39.2715 21.2261H36.6626V15.1116H30.2221V21.2261H27.6133V6.7959H30.2221V13.0735H36.6626V6.7959H39.2715V21.2261Z" fill="#B3B3B3"/>
<path d="M73.5 21.2264V1.82324H79.859C81.8972 1.82324 83.4462 2.23087 84.5875 3.12766C85.7289 4.02444 86.2996 5.32886 86.2996 7.0409C86.2996 7.85616 86.055 8.58989 85.5658 9.32363C85.0767 10.0574 84.3429 10.465 83.5277 10.7911C84.8321 10.9541 85.8104 11.5248 86.5441 12.4216C87.2779 13.3184 87.6855 14.4598 87.6855 15.6826C87.6855 17.4762 87.1148 18.7806 85.9735 19.7589C84.8321 20.7373 83.2831 21.1449 81.245 21.1449H73.5V21.2264ZM76.1904 10.0574H80.4297C81.408 10.0574 82.2233 9.81278 82.794 9.2421C83.4462 8.67142 83.6907 7.93769 83.6907 6.95937C83.6907 5.89954 83.3646 5.1658 82.7124 4.59512C82.0602 4.10597 81.0819 3.77986 79.859 3.77986H76.1904V10.0574ZM76.1904 12.0955V19.1067H81.245C82.4678 19.1067 83.3646 18.7806 84.0168 18.21C84.6691 17.6393 84.9952 16.7425 84.9952 15.6826C84.9952 14.6228 84.6691 13.726 84.0168 13.0738C83.3646 12.4216 82.4678 12.0955 81.245 12.014H81.0819H76.1904V12.0955Z" fill="#B3B3B3"/>
<path d="M101.624 8.83405H96.8959V21.2261H94.2871V8.83405H89.5586V6.7959H101.624V8.83405Z" fill="#B3B3B3"/>
<path d="M151.012 15.0304C151.093 16.9055 150.441 18.4545 149.137 19.6773C147.832 20.9002 146.12 21.5524 143.919 21.5524C141.718 21.5524 139.924 20.7372 138.538 19.1882C137.152 17.6392 136.5 15.6826 136.5 13.2368V9.81271C136.5 7.44846 137.152 5.41031 138.538 3.86132C139.924 2.31233 141.718 1.49707 143.919 1.49707C146.12 1.49707 147.832 2.06775 149.137 3.20911C150.441 4.35048 151.093 5.89947 151.012 7.85609V7.93762H148.484C148.484 6.55168 148.077 5.49184 147.261 4.67658C146.446 3.86132 145.305 3.45369 143.837 3.45369C142.37 3.45369 141.229 4.02437 140.332 5.24726C139.435 6.38862 139.027 7.85609 139.027 9.64966V13.1553C139.027 14.9488 139.435 16.4163 140.332 17.5577C141.229 18.699 142.37 19.3512 143.837 19.3512C145.305 19.3512 146.446 18.9436 147.261 18.2099C148.077 17.3946 148.484 16.3348 148.484 14.9488H151.012V15.0304Z" fill="#B3B3B3"/>
<path d="M166.419 14.5413C166.419 16.661 165.93 18.2915 164.952 19.5959C163.973 20.9003 162.587 21.471 160.794 21.471C159.897 21.471 159.163 21.3079 158.429 21.0634C157.777 20.7373 157.207 20.3296 156.717 19.7589V26.7702H154.109V6.79634H156.147L156.554 8.67144C157.044 7.9377 157.614 7.44855 158.348 7.12244C159.082 6.79634 159.897 6.55176 160.794 6.55176C162.587 6.55176 163.973 7.2855 164.952 8.67144C165.93 10.0574 166.419 11.9325 166.419 14.2967V14.5413ZM163.81 14.2967C163.81 12.6662 163.484 11.2802 162.832 10.3019C162.18 9.32364 161.201 8.75296 159.978 8.75296C159.245 8.75296 158.593 8.91601 158.022 9.24212C157.451 9.56822 157.044 10.0574 156.717 10.628V17.6393C157.044 18.2099 157.451 18.6991 158.022 19.0252C158.593 19.3513 159.245 19.5144 159.978 19.5144C161.201 19.5144 162.18 19.0252 162.832 18.1284C163.484 17.2316 163.81 16.0087 163.81 14.6228V14.2967Z" fill="#B3B3B3"/>
<path d="M215.93 1.82324V21.2264H213.321V13.1553C212.506 13.3999 211.691 13.563 210.875 13.726C210.06 13.8076 209.163 13.8891 208.022 13.8891C205.902 13.8891 204.272 13.3999 203.131 12.5031C201.989 11.6064 201.5 10.0574 201.5 7.93769V1.82324H204.109V7.93769C204.109 9.40515 204.435 10.3835 205.006 10.9541C205.658 11.5248 206.636 11.7694 207.941 11.7694C208.837 11.7694 209.734 11.6879 210.631 11.6064C211.446 11.4433 212.343 11.2802 213.24 11.0357V1.82324H215.93Z" fill="#B3B3B3"/>
<path d="M231.174 8.83405H226.446V21.2261H223.837V8.83405H219.109V6.7959H231.174V8.83405Z" fill="#B3B3B3"/>
<path d="M280.175 21.2264H277.566V3.86139H268.109V21.2264H265.5V1.82324H280.175V21.2264Z" fill="#B3B3B3"/>
<path d="M295.418 8.83453H290.69V21.2265H288.081V8.83453H283.352V6.79639H295.418V8.83453Z" fill="#B3B3B3"/>
<path d="M345.012 15.0303C345.093 16.9054 344.441 18.4544 343.137 19.6773C341.832 20.9002 340.12 21.5524 337.919 21.5524C335.718 21.5524 333.924 20.7371 332.538 19.1881C331.152 17.6391 330.5 15.6825 330.5 13.2367V9.8127C330.5 7.44845 331.152 5.41031 332.538 3.86131C333.924 2.31232 335.718 1.49707 337.919 1.49707C340.12 1.49707 341.832 2.06774 343.137 3.20911C344.441 4.35047 345.093 5.89946 345.012 7.85608V7.93761H342.484C342.484 6.55167 342.077 5.49183 341.261 4.67657C340.446 3.86131 339.305 3.45368 337.837 3.45368C336.37 3.45368 335.229 4.02437 334.332 5.24725C333.435 6.38862 333.027 7.85608 333.027 9.64965V13.1552C333.027 14.9488 333.435 16.4162 334.332 17.5576C335.229 18.699 336.37 19.3512 337.837 19.3512C339.305 19.3512 340.446 18.9435 341.261 18.2098C342.077 17.3946 342.484 16.3347 342.484 14.9488H345.012V15.0303Z" fill="#B3B3B3"/>
<path d="M354.385 6.55149C356.26 6.55149 357.646 7.2037 358.706 8.58964C359.766 9.97558 360.336 11.6876 360.336 13.8888V14.2149C360.336 16.3346 359.766 18.1282 358.624 19.5141C357.483 20.9 355.934 21.5523 353.896 21.5523C351.858 21.5523 350.309 20.9 349.167 19.5141C348.026 18.1282 347.455 16.4161 347.455 14.2149V13.8888C347.455 13.8073 347.455 13.7258 347.455 13.7258C347.455 13.6442 347.455 13.6442 347.455 13.5627V10.4647C347.455 7.69285 348.026 5.73623 349.086 4.43182C350.146 3.1274 351.776 2.47519 353.896 2.31214C355.119 2.23062 356.097 2.06756 356.749 1.82299C357.401 1.57841 357.728 1.17078 357.728 0.600098H359.766V0.681624C359.847 2.06756 359.358 3.04587 358.38 3.61656C357.401 4.18724 356.015 4.51334 354.14 4.51334C352.754 4.51334 351.695 4.92097 350.879 5.6547C350.064 6.38844 349.656 7.44827 349.656 8.83421V8.91574C350.146 8.26353 350.879 7.69285 351.695 7.28522C352.51 6.87759 353.488 6.55149 354.385 6.55149ZM353.896 8.58964C352.673 8.58964 351.695 9.07879 351.042 10.0571C350.39 11.0354 350.064 12.3398 350.064 13.8073V14.1334C350.064 15.6824 350.39 16.9053 351.042 17.8836C351.695 18.8619 352.673 19.3511 353.896 19.3511C355.119 19.3511 356.097 18.8619 356.749 17.8836C357.401 16.9053 357.728 15.6009 357.728 14.1334V13.8073C357.728 12.2583 357.401 11.0354 356.749 10.0571C356.097 9.07879 355.119 8.58964 353.896 8.58964Z" fill="#B3B3B3"/>
<path d="M394.5 21.2264V1.82324H400.859C402.897 1.82324 404.446 2.23087 405.588 3.12766C406.729 4.02444 407.3 5.32886 407.3 7.0409C407.3 7.85616 407.055 8.58989 406.566 9.32363C406.077 10.0574 405.343 10.465 404.528 10.8726C405.832 11.0357 406.81 11.6064 407.544 12.5031C408.278 13.3999 408.686 14.5413 408.686 15.7642C408.686 17.5577 408.115 18.8622 406.973 19.8405C405.832 20.8188 404.283 21.2264 402.245 21.2264H394.5ZM397.19 10.0574H401.43C402.408 10.0574 403.223 9.81278 403.794 9.2421C404.446 8.67142 404.691 7.93769 404.691 6.95937C404.691 5.89954 404.365 5.1658 403.712 4.59512C403.06 4.10597 402.082 3.77986 400.859 3.77986H397.19V10.0574ZM397.19 12.0955V19.1067H402.245C403.468 19.1067 404.365 18.7806 405.017 18.21C405.669 17.6393 405.995 16.7425 405.995 15.6826C405.995 14.6228 405.669 13.726 405.017 13.0738C404.365 12.4216 403.468 12.0955 402.245 12.014H402.082H397.19V12.0955Z" fill="#B3B3B3"/>
<path d="M417.245 19.4328C418.061 19.4328 418.794 19.1883 419.365 18.6176C419.936 18.0469 420.262 17.3947 420.262 16.661H422.626V16.7425C422.626 17.9654 422.137 19.1067 420.996 20.085C419.854 21.0634 418.631 21.5525 417.164 21.5525C415.126 21.5525 413.577 20.9003 412.435 19.5144C411.294 18.1284 410.805 16.4164 410.805 14.3782V13.8075C410.805 11.7694 411.376 10.0573 412.435 8.67144C413.577 7.2855 415.126 6.6333 417.082 6.6333C418.713 6.6333 420.017 7.12245 420.996 8.10076C421.974 9.07907 422.545 10.3019 422.463 11.7694V11.8509H420.099C420.099 10.9541 419.773 10.2204 419.202 9.56823C418.631 8.91602 417.898 8.67144 417.001 8.67144C415.696 8.67144 414.8 9.1606 414.147 10.1389C413.577 11.1172 413.251 12.3401 413.251 13.8075V14.3782C413.251 15.8457 413.577 17.0686 414.147 18.0469C415.044 18.9437 415.941 19.4328 417.245 19.4328Z" fill="#B3B3B3"/>
<path d="M23.4554 21.2264H20.8466V3.86139H11.3896V21.2264H8.69922V1.82324H23.3739V21.2264H23.4554Z" fill="#B3B3B3"/>
<path d="M39.2715 21.2261H36.6626V15.1116H30.2221V21.2261H27.6133V6.7959H30.2221V13.0735H36.6626V6.7959H39.2715V21.2261Z" fill="#B3B3B3"/>
<path d="M73.5 21.2264V1.82324H79.859C81.8972 1.82324 83.4462 2.23087 84.5875 3.12766C85.7289 4.02444 86.2996 5.32886 86.2996 7.0409C86.2996 7.85616 86.055 8.58989 85.5658 9.32363C85.0767 10.0574 84.3429 10.465 83.5277 10.7911C84.8321 10.9541 85.8104 11.5248 86.5441 12.4216C87.2779 13.3184 87.6855 14.4598 87.6855 15.6826C87.6855 17.4762 87.1148 18.7806 85.9735 19.7589C84.8321 20.7373 83.2831 21.1449 81.245 21.1449H73.5V21.2264ZM76.1904 10.0574H80.4297C81.408 10.0574 82.2233 9.81278 82.794 9.2421C83.4462 8.67142 83.6907 7.93769 83.6907 6.95937C83.6907 5.89954 83.3646 5.1658 82.7124 4.59512C82.0602 4.10597 81.0819 3.77986 79.859 3.77986H76.1904V10.0574ZM76.1904 12.0955V19.1067H81.245C82.4678 19.1067 83.3646 18.7806 84.0168 18.21C84.6691 17.6393 84.9952 16.7425 84.9952 15.6826C84.9952 14.6228 84.6691 13.726 84.0168 13.0738C83.3646 12.4216 82.4678 12.0955 81.245 12.014H81.0819H76.1904V12.0955Z" fill="#B3B3B3"/>
<path d="M101.624 8.83405H96.8959V21.2261H94.2871V8.83405H89.5586V6.7959H101.624V8.83405Z" fill="#B3B3B3"/>
<path d="M151.012 15.0304C151.093 16.9055 150.441 18.4545 149.137 19.6773C147.832 20.9002 146.12 21.5524 143.919 21.5524C141.718 21.5524 139.924 20.7372 138.538 19.1882C137.152 17.6392 136.5 15.6826 136.5 13.2368V9.81271C136.5 7.44846 137.152 5.41031 138.538 3.86132C139.924 2.31233 141.718 1.49707 143.919 1.49707C146.12 1.49707 147.832 2.06775 149.137 3.20911C150.441 4.35048 151.093 5.89947 151.012 7.85609V7.93762H148.484C148.484 6.55168 148.077 5.49184 147.261 4.67658C146.446 3.86132 145.305 3.45369 143.837 3.45369C142.37 3.45369 141.229 4.02437 140.332 5.24726C139.435 6.38862 139.027 7.85609 139.027 9.64966V13.1553C139.027 14.9488 139.435 16.4163 140.332 17.5577C141.229 18.699 142.37 19.3512 143.837 19.3512C145.305 19.3512 146.446 18.9436 147.261 18.2099C148.077 17.3946 148.484 16.3348 148.484 14.9488H151.012V15.0304Z" fill="#B3B3B3"/>
<path d="M166.419 14.5413C166.419 16.661 165.93 18.2915 164.952 19.5959C163.973 20.9003 162.587 21.471 160.794 21.471C159.897 21.471 159.163 21.3079 158.429 21.0634C157.777 20.7373 157.207 20.3296 156.717 19.7589V26.7702H154.109V6.79634H156.147L156.554 8.67144C157.044 7.9377 157.614 7.44855 158.348 7.12244C159.082 6.79634 159.897 6.55176 160.794 6.55176C162.587 6.55176 163.973 7.2855 164.952 8.67144C165.93 10.0574 166.419 11.9325 166.419 14.2967V14.5413ZM163.81 14.2967C163.81 12.6662 163.484 11.2802 162.832 10.3019C162.18 9.32364 161.201 8.75296 159.978 8.75296C159.245 8.75296 158.593 8.91601 158.022 9.24212C157.451 9.56822 157.044 10.0574 156.717 10.628V17.6393C157.044 18.2099 157.451 18.6991 158.022 19.0252C158.593 19.3513 159.245 19.5144 159.978 19.5144C161.201 19.5144 162.18 19.0252 162.832 18.1284C163.484 17.2316 163.81 16.0087 163.81 14.6228V14.2967Z" fill="#B3B3B3"/>
<path d="M215.93 1.82324V21.2264H213.321V13.1553C212.506 13.3999 211.691 13.563 210.875 13.726C210.06 13.8076 209.163 13.8891 208.022 13.8891C205.902 13.8891 204.272 13.3999 203.131 12.5031C201.989 11.6064 201.5 10.0574 201.5 7.93769V1.82324H204.109V7.93769C204.109 9.40515 204.435 10.3835 205.006 10.9541C205.658 11.5248 206.636 11.7694 207.941 11.7694C208.837 11.7694 209.734 11.6879 210.631 11.6064C211.446 11.4433 212.343 11.2802 213.24 11.0357V1.82324H215.93Z" fill="#B3B3B3"/>
<path d="M231.174 8.83405H226.446V21.2261H223.837V8.83405H219.109V6.7959H231.174V8.83405Z" fill="#B3B3B3"/>
<path d="M280.175 21.2264H277.566V3.86139H268.109V21.2264H265.5V1.82324H280.175V21.2264Z" fill="#B3B3B3"/>
<path d="M295.418 8.83453H290.69V21.2265H288.081V8.83453H283.352V6.79639H295.418V8.83453Z" fill="#B3B3B3"/>
<path d="M345.012 15.0303C345.093 16.9054 344.441 18.4544 343.137 19.6773C341.832 20.9002 340.12 21.5524 337.919 21.5524C335.718 21.5524 333.924 20.7371 332.538 19.1881C331.152 17.6391 330.5 15.6825 330.5 13.2367V9.8127C330.5 7.44845 331.152 5.41031 332.538 3.86131C333.924 2.31232 335.718 1.49707 337.919 1.49707C340.12 1.49707 341.832 2.06774 343.137 3.20911C344.441 4.35047 345.093 5.89946 345.012 7.85608V7.93761H342.484C342.484 6.55167 342.077 5.49183 341.261 4.67657C340.446 3.86131 339.305 3.45368 337.837 3.45368C336.37 3.45368 335.229 4.02437 334.332 5.24725C333.435 6.38862 333.027 7.85608 333.027 9.64965V13.1552C333.027 14.9488 333.435 16.4162 334.332 17.5576C335.229 18.699 336.37 19.3512 337.837 19.3512C339.305 19.3512 340.446 18.9435 341.261 18.2098C342.077 17.3946 342.484 16.3347 342.484 14.9488H345.012V15.0303Z" fill="#B3B3B3"/>
<path d="M354.385 6.55149C356.26 6.55149 357.646 7.2037 358.706 8.58964C359.766 9.97558 360.336 11.6876 360.336 13.8888V14.2149C360.336 16.3346 359.766 18.1282 358.624 19.5141C357.483 20.9 355.934 21.5523 353.896 21.5523C351.858 21.5523 350.309 20.9 349.167 19.5141C348.026 18.1282 347.455 16.4161 347.455 14.2149V13.8888C347.455 13.8073 347.455 13.7258 347.455 13.7258C347.455 13.6442 347.455 13.6442 347.455 13.5627V10.4647C347.455 7.69285 348.026 5.73623 349.086 4.43182C350.146 3.1274 351.776 2.47519 353.896 2.31214C355.119 2.23062 356.097 2.06756 356.749 1.82299C357.401 1.57841 357.728 1.17078 357.728 0.600098H359.766V0.681624C359.847 2.06756 359.358 3.04587 358.38 3.61656C357.401 4.18724 356.015 4.51334 354.14 4.51334C352.754 4.51334 351.695 4.92097 350.879 5.6547C350.064 6.38844 349.656 7.44827 349.656 8.83421V8.91574C350.146 8.26353 350.879 7.69285 351.695 7.28522C352.51 6.87759 353.488 6.55149 354.385 6.55149ZM353.896 8.58964C352.673 8.58964 351.695 9.07879 351.042 10.0571C350.39 11.0354 350.064 12.3398 350.064 13.8073V14.1334C350.064 15.6824 350.39 16.9053 351.042 17.8836C351.695 18.8619 352.673 19.3511 353.896 19.3511C355.119 19.3511 356.097 18.8619 356.749 17.8836C357.401 16.9053 357.728 15.6009 357.728 14.1334V13.8073C357.728 12.2583 357.401 11.0354 356.749 10.0571C356.097 9.07879 355.119 8.58964 353.896 8.58964Z" fill="#B3B3B3"/>
<path d="M394.5 21.2264V1.82324H400.859C402.897 1.82324 404.446 2.23087 405.588 3.12766C406.729 4.02444 407.3 5.32886 407.3 7.0409C407.3 7.85616 407.055 8.58989 406.566 9.32363C406.077 10.0574 405.343 10.465 404.528 10.8726C405.832 11.0357 406.81 11.6064 407.544 12.5031C408.278 13.3999 408.686 14.5413 408.686 15.7642C408.686 17.5577 408.115 18.8622 406.973 19.8405C405.832 20.8188 404.283 21.2264 402.245 21.2264H394.5ZM397.19 10.0574H401.43C402.408 10.0574 403.223 9.81278 403.794 9.2421C404.446 8.67142 404.691 7.93769 404.691 6.95937C404.691 5.89954 404.365 5.1658 403.712 4.59512C403.06 4.10597 402.082 3.77986 400.859 3.77986H397.19V10.0574ZM397.19 12.0955V19.1067H402.245C403.468 19.1067 404.365 18.7806 405.017 18.21C405.669 17.6393 405.995 16.7425 405.995 15.6826C405.995 14.6228 405.669 13.726 405.017 13.0738C404.365 12.4216 403.468 12.0955 402.245 12.014H402.082H397.19V12.0955Z" fill="#B3B3B3"/>
<path d="M417.245 19.4328C418.061 19.4328 418.794 19.1883 419.365 18.6176C419.936 18.0469 420.262 17.3947 420.262 16.661H422.626V16.7425C422.626 17.9654 422.137 19.1067 420.996 20.085C419.854 21.0634 418.631 21.5525 417.164 21.5525C415.126 21.5525 413.577 20.9003 412.435 19.5144C411.294 18.1284 410.805 16.4164 410.805 14.3782V13.8075C410.805 11.7694 411.376 10.0573 412.435 8.67144C413.577 7.2855 415.126 6.6333 417.082 6.6333C418.713 6.6333 420.017 7.12245 420.996 8.10076C421.974 9.07907 422.545 10.3019 422.463 11.7694V11.8509H420.099C420.099 10.9541 419.773 10.2204 419.202 9.56823C418.631 8.91602 417.898 8.67144 417.001 8.67144C415.696 8.67144 414.8 9.1606 414.147 10.1389C413.577 11.1172 413.251 12.3401 413.251 13.8075V14.3782C413.251 15.8457 413.577 17.0686 414.147 18.0469C415.044 18.9437 415.941 19.4328 417.245 19.4328Z" fill="#B3B3B3"/>
<path d="M344.293 78.5001V54.0801L345.884 55.8191H338.447V52.6001H347.956V78.5001H344.293Z" fill="#292C33"/>
<path d="M344.972 129.296C342.876 129.296 341.063 128.988 339.533 128.371C338.004 127.754 336.82 126.879 335.981 125.744C335.143 124.585 334.723 123.228 334.723 121.674C334.723 120.145 335.118 118.85 335.907 117.789C336.721 116.704 337.893 115.89 339.422 115.347C340.952 114.78 342.802 114.496 344.972 114.496C347.143 114.496 348.993 114.78 350.522 115.347C352.076 115.89 353.26 116.704 354.074 117.789C354.888 118.874 355.295 120.169 355.295 121.674C355.295 123.228 354.876 124.585 354.037 125.744C353.199 126.879 352.002 127.754 350.448 128.371C348.894 128.988 347.069 129.296 344.972 129.296ZM344.972 126.299C347.044 126.299 348.66 125.88 349.819 125.041C351.003 124.178 351.595 123.018 351.595 121.563C351.595 120.132 351.003 119.01 349.819 118.196C348.66 117.357 347.044 116.938 344.972 116.938C342.925 116.938 341.322 117.357 340.162 118.196C339.003 119.01 338.423 120.132 338.423 121.563C338.423 123.018 339.003 124.178 340.162 125.041C341.322 125.88 342.925 126.299 344.972 126.299ZM344.972 116.494C342.999 116.494 341.322 116.235 339.94 115.717C338.559 115.174 337.498 114.41 336.758 113.423C336.018 112.412 335.648 111.215 335.648 109.834C335.648 108.379 336.031 107.133 336.795 106.097C337.585 105.036 338.682 104.222 340.088 103.655C341.494 103.088 343.122 102.804 344.972 102.804C346.847 102.804 348.487 103.088 349.893 103.655C351.299 104.222 352.397 105.036 353.186 106.097C353.976 107.133 354.37 108.379 354.37 109.834C354.37 111.215 354 112.412 353.26 113.423C352.52 114.41 351.447 115.174 350.041 115.717C348.635 116.235 346.946 116.494 344.972 116.494ZM344.972 114.126C346.773 114.126 348.179 113.756 349.19 113.016C350.226 112.276 350.744 111.265 350.744 109.982C350.744 108.675 350.214 107.651 349.153 106.911C348.093 106.171 346.699 105.801 344.972 105.801C343.246 105.801 341.864 106.171 340.828 106.911C339.817 107.651 339.311 108.675 339.311 109.982C339.311 111.265 339.805 112.276 340.791 113.016C341.803 113.756 343.196 114.126 344.972 114.126Z" fill="#292C33"/>
<path d="M333.67 187V162.58L335.261 164.319H327.824V161.1H337.333V187H333.67ZM351.36 187.296C349.535 187.296 347.759 187.012 346.032 186.445C344.33 185.878 342.936 185.113 341.851 184.151L343.553 181.228C344.416 182.042 345.539 182.708 346.92 183.226C348.301 183.744 349.769 184.003 351.323 184.003C353.296 184.003 354.813 183.584 355.874 182.745C356.935 181.906 357.465 180.784 357.465 179.378C357.465 178.416 357.231 177.577 356.762 176.862C356.293 176.147 355.479 175.604 354.32 175.234C353.185 174.839 351.619 174.642 349.621 174.642H343.738L345.107 161.1H359.722V164.319H346.476L348.4 162.506L347.327 173.199L345.403 171.423H350.398C352.988 171.423 355.072 171.756 356.651 172.422C358.23 173.088 359.377 174.013 360.092 175.197C360.807 176.356 361.165 177.701 361.165 179.23C361.165 180.71 360.807 182.067 360.092 183.3C359.377 184.509 358.291 185.483 356.836 186.223C355.405 186.938 353.58 187.296 351.36 187.296Z" fill="#292C33"/>
<path d="M325.121 245V242.484L335.666 232.309C336.603 231.421 337.294 230.644 337.738 229.978C338.207 229.287 338.515 228.658 338.663 228.091C338.836 227.499 338.922 226.932 338.922 226.389C338.922 225.057 338.453 224.009 337.516 223.244C336.579 222.479 335.21 222.097 333.409 222.097C332.028 222.097 330.782 222.331 329.672 222.8C328.562 223.244 327.6 223.947 326.786 224.909L324.27 222.726C325.257 221.468 326.576 220.506 328.229 219.84C329.906 219.149 331.744 218.804 333.742 218.804C335.543 218.804 337.109 219.1 338.441 219.692C339.773 220.259 340.797 221.086 341.512 222.171C342.252 223.256 342.622 224.539 342.622 226.019C342.622 226.858 342.511 227.684 342.289 228.498C342.067 229.312 341.648 230.175 341.031 231.088C340.414 232.001 339.526 233.024 338.367 234.159L328.969 243.224L328.081 241.781H343.732V245H325.121ZM346.367 245V242.484L356.912 232.309C357.849 231.421 358.54 230.644 358.984 229.978C359.453 229.287 359.761 228.658 359.909 228.091C360.082 227.499 360.168 226.932 360.168 226.389C360.168 225.057 359.699 224.009 358.762 223.244C357.825 222.479 356.456 222.097 354.655 222.097C353.274 222.097 352.028 222.331 350.918 222.8C349.808 223.244 348.846 223.947 348.032 224.909L345.516 222.726C346.503 221.468 347.822 220.506 349.475 219.84C351.152 219.149 352.99 218.804 354.988 218.804C356.789 218.804 358.355 219.1 359.687 219.692C361.019 220.259 362.043 221.086 362.758 222.171C363.498 223.256 363.868 224.539 363.868 226.019C363.868 226.858 363.757 227.684 363.535 228.498C363.313 229.312 362.894 230.175 362.277 231.088C361.66 232.001 360.772 233.024 359.613 234.159L350.215 243.224L349.327 241.781H364.978V245H346.367Z" fill="#292C33"/>
<path d="M324.328 303V300.484L334.873 290.309C335.81 289.421 336.501 288.644 336.945 287.978C337.414 287.287 337.722 286.658 337.87 286.091C338.043 285.499 338.129 284.932 338.129 284.389C338.129 283.057 337.66 282.009 336.723 281.244C335.786 280.479 334.417 280.097 332.616 280.097C331.235 280.097 329.989 280.331 328.879 280.8C327.769 281.244 326.807 281.947 325.993 282.909L323.477 280.726C324.464 279.468 325.783 278.506 327.436 277.84C329.113 277.149 330.951 276.804 332.949 276.804C334.75 276.804 336.316 277.1 337.648 277.692C338.98 278.259 340.004 279.086 340.719 280.171C341.459 281.256 341.829 282.539 341.829 284.019C341.829 284.858 341.718 285.684 341.496 286.498C341.274 287.312 340.855 288.175 340.238 289.088C339.621 290.001 338.733 291.024 337.574 292.159L328.176 301.224L327.288 299.781H342.939V303H324.328ZM354.38 276.804C356.723 276.804 358.697 277.31 360.3 278.321C361.928 279.332 363.161 280.8 364 282.724C364.839 284.623 365.258 286.954 365.258 289.717C365.258 292.652 364.74 295.131 363.704 297.154C362.668 299.177 361.237 300.706 359.412 301.742C357.587 302.778 355.453 303.296 353.011 303.296C351.802 303.296 350.631 303.173 349.496 302.926C348.386 302.679 347.412 302.297 346.573 301.779L347.979 298.893C348.67 299.337 349.434 299.658 350.273 299.855C351.136 300.028 352.037 300.114 352.974 300.114C355.589 300.114 357.673 299.3 359.227 297.672C360.781 296.019 361.558 293.577 361.558 290.346C361.558 289.828 361.533 289.211 361.484 288.496C361.435 287.781 361.324 287.078 361.151 286.387L362.372 287.645C362.027 288.78 361.447 289.742 360.633 290.531C359.844 291.296 358.882 291.875 357.747 292.27C356.637 292.64 355.416 292.825 354.084 292.825C352.382 292.825 350.865 292.504 349.533 291.863C348.201 291.222 347.153 290.321 346.388 289.162C345.623 287.978 345.241 286.584 345.241 284.981C345.241 283.304 345.636 281.861 346.425 280.652C347.239 279.419 348.337 278.469 349.718 277.803C351.124 277.137 352.678 276.804 354.38 276.804ZM354.528 279.801C353.418 279.801 352.431 280.011 351.568 280.43C350.705 280.849 350.026 281.429 349.533 282.169C349.064 282.909 348.83 283.797 348.83 284.833C348.83 286.362 349.36 287.583 350.421 288.496C351.482 289.384 352.912 289.828 354.713 289.828C355.897 289.828 356.933 289.606 357.821 289.162C358.734 288.718 359.437 288.114 359.93 287.349C360.448 286.584 360.707 285.733 360.707 284.796C360.707 283.883 360.473 283.057 360.004 282.317C359.535 281.577 358.845 280.973 357.932 280.504C357.019 280.035 355.885 279.801 354.528 279.801Z" fill="#292C33"/>
<path d="M399.746 78.5002V75.9842L410.291 65.8092C411.228 64.9212 411.919 64.1442 412.363 63.4782C412.832 62.7875 413.14 62.1585 413.288 61.5912C413.461 60.9992 413.547 60.4319 413.547 59.8892C413.547 58.5572 413.078 57.5089 412.141 56.7442C411.204 55.9795 409.835 55.5972 408.034 55.5972C406.653 55.5972 405.407 55.8315 404.297 56.3002C403.187 56.7442 402.225 57.4472 401.411 58.4092L398.895 56.2262C399.882 54.9682 401.201 54.0062 402.854 53.3402C404.531 52.6495 406.369 52.3042 408.367 52.3042C410.168 52.3042 411.734 52.6002 413.066 53.1922C414.398 53.7595 415.422 54.5859 416.137 55.6712C416.877 56.7565 417.247 58.0392 417.247 59.5192C417.247 60.3579 417.136 61.1842 416.914 61.9982C416.692 62.8122 416.273 63.6755 415.656 64.5882C415.039 65.5009 414.151 66.5245 412.992 67.6592L403.594 76.7242L402.706 75.2812H418.357V78.5002H399.746Z" fill="#292C33"/>
<path d="M407.756 102.804C410.099 102.804 412.073 103.31 413.676 104.321C415.304 105.332 416.537 106.8 417.376 108.724C418.215 110.623 418.634 112.954 418.634 115.717C418.634 118.652 418.116 121.131 417.08 123.154C416.044 125.177 414.613 126.706 412.788 127.742C410.963 128.778 408.829 129.296 406.387 129.296C405.178 129.296 404.007 129.173 402.872 128.926C401.762 128.679 400.788 128.297 399.949 127.779L401.355 124.893C402.046 125.337 402.81 125.658 403.649 125.855C404.512 126.028 405.413 126.114 406.35 126.114C408.965 126.114 411.049 125.3 412.603 123.672C414.157 122.019 414.934 119.577 414.934 116.346C414.934 115.828 414.909 115.211 414.86 114.496C414.811 113.781 414.7 113.078 414.527 112.387L415.748 113.645C415.403 114.78 414.823 115.742 414.009 116.531C413.22 117.296 412.258 117.875 411.123 118.27C410.013 118.64 408.792 118.825 407.46 118.825C405.758 118.825 404.241 118.504 402.909 117.863C401.577 117.222 400.529 116.321 399.764 115.162C398.999 113.978 398.617 112.584 398.617 110.981C398.617 109.304 399.012 107.861 399.801 106.652C400.615 105.419 401.713 104.469 403.094 103.803C404.5 103.137 406.054 102.804 407.756 102.804ZM407.904 105.801C406.794 105.801 405.807 106.011 404.944 106.43C404.081 106.849 403.402 107.429 402.909 108.169C402.44 108.909 402.206 109.797 402.206 110.833C402.206 112.362 402.736 113.583 403.797 114.496C404.858 115.384 406.288 115.828 408.089 115.828C409.273 115.828 410.309 115.606 411.197 115.162C412.11 114.718 412.813 114.114 413.306 113.349C413.824 112.584 414.083 111.733 414.083 110.796C414.083 109.883 413.849 109.057 413.38 108.317C412.911 107.577 412.221 106.973 411.308 106.504C410.395 106.035 409.261 105.801 407.904 105.801Z" fill="#292C33"/>
<path d="M396.875 187V162.58L398.466 164.319H391.029V161.1H400.538V187H396.875ZM417.081 187.296C414.787 187.296 412.826 186.79 411.198 185.779C409.57 184.768 408.325 183.312 407.461 181.413C406.623 179.489 406.203 177.146 406.203 174.383C406.203 171.448 406.721 168.969 407.757 166.946C408.793 164.923 410.236 163.394 412.086 162.358C413.936 161.322 416.058 160.804 418.45 160.804C419.684 160.804 420.855 160.927 421.965 161.174C423.1 161.421 424.074 161.803 424.888 162.321L423.482 165.207C422.816 164.738 422.052 164.418 421.188 164.245C420.35 164.072 419.462 163.986 418.524 163.986C415.885 163.986 413.788 164.812 412.234 166.465C410.68 168.093 409.903 170.523 409.903 173.754C409.903 174.272 409.928 174.889 409.977 175.604C410.027 176.319 410.15 177.022 410.347 177.713L409.089 176.455C409.459 175.32 410.039 174.371 410.828 173.606C411.642 172.817 412.604 172.237 413.714 171.867C414.849 171.472 416.07 171.275 417.377 171.275C419.104 171.275 420.633 171.596 421.965 172.237C423.297 172.878 424.346 173.791 425.11 174.975C425.875 176.134 426.257 177.516 426.257 179.119C426.257 180.772 425.85 182.215 425.036 183.448C424.222 184.681 423.125 185.631 421.743 186.297C420.362 186.963 418.808 187.296 417.081 187.296ZM416.933 184.299C418.068 184.299 419.055 184.089 419.893 183.67C420.757 183.251 421.435 182.671 421.928 181.931C422.422 181.166 422.668 180.278 422.668 179.267C422.668 177.738 422.138 176.529 421.077 175.641C420.017 174.728 418.574 174.272 416.748 174.272C415.564 174.272 414.528 174.494 413.64 174.938C412.752 175.382 412.049 175.986 411.531 176.751C411.038 177.491 410.791 178.342 410.791 179.304C410.791 180.192 411.026 181.018 411.494 181.783C411.963 182.523 412.654 183.127 413.566 183.596C414.479 184.065 415.601 184.299 416.933 184.299Z" fill="#292C33"/>
<path d="M389.158 245V242.484L399.703 232.309C400.64 231.421 401.331 230.644 401.775 229.978C402.244 229.287 402.552 228.658 402.7 228.091C402.873 227.499 402.959 226.932 402.959 226.389C402.959 225.057 402.49 224.009 401.553 223.244C400.616 222.479 399.247 222.097 397.446 222.097C396.065 222.097 394.819 222.331 393.709 222.8C392.599 223.244 391.637 223.947 390.823 224.909L388.307 222.726C389.294 221.468 390.613 220.506 392.266 219.84C393.943 219.149 395.781 218.804 397.779 218.804C399.58 218.804 401.146 219.1 402.478 219.692C403.81 220.259 404.834 221.086 405.549 222.171C406.289 223.256 406.659 224.539 406.659 226.019C406.659 226.858 406.548 227.684 406.326 228.498C406.104 229.312 405.685 230.175 405.068 231.088C404.451 232.001 403.563 233.024 402.404 234.159L393.006 243.224L392.118 241.781H407.769V245H389.158ZM418.729 245.296C416.904 245.296 415.128 245.012 413.401 244.445C411.699 243.878 410.305 243.113 409.22 242.151L410.922 239.228C411.785 240.042 412.908 240.708 414.289 241.226C415.67 241.744 417.15 242.003 418.729 242.003C420.653 242.003 422.145 241.596 423.206 240.782C424.291 239.943 424.834 238.821 424.834 237.415C424.834 236.058 424.316 234.973 423.28 234.159C422.269 233.32 420.653 232.901 418.433 232.901H416.361V230.311L424.057 220.839L424.575 222.319H410.404V219.1H427.498V221.616L419.839 231.051L417.915 229.904H419.136C422.269 229.904 424.612 230.607 426.166 232.013C427.745 233.419 428.534 235.207 428.534 237.378C428.534 238.833 428.176 240.165 427.461 241.374C426.746 242.583 425.66 243.545 424.205 244.26C422.774 244.951 420.949 245.296 418.729 245.296Z" fill="#292C33"/>
<path d="M395.767 303.296C393.941 303.296 392.165 303.012 390.439 302.445C388.737 301.878 387.343 301.113 386.258 300.151L387.96 297.228C388.823 298.042 389.945 298.708 391.327 299.226C392.708 299.744 394.188 300.003 395.767 300.003C397.691 300.003 399.183 299.596 400.244 298.782C401.329 297.943 401.872 296.821 401.872 295.415C401.872 294.058 401.354 292.973 400.318 292.159C399.306 291.32 397.691 290.901 395.471 290.901H393.399V288.311L401.095 278.839L401.613 280.319H387.442V277.1H404.536V279.616L396.877 289.051L394.953 287.904H396.174C399.306 287.904 401.65 288.607 403.204 290.013C404.782 291.419 405.572 293.207 405.572 295.378C405.572 296.833 405.214 298.165 404.499 299.374C403.783 300.583 402.698 301.545 401.243 302.26C399.812 302.951 397.987 303.296 395.767 303.296ZM419.605 303.296C417.582 303.296 415.769 302.778 414.166 301.742C412.587 300.706 411.329 299.201 410.392 297.228C409.479 295.255 409.023 292.862 409.023 290.05C409.023 287.238 409.479 284.845 410.392 282.872C411.329 280.899 412.587 279.394 414.166 278.358C415.769 277.322 417.582 276.804 419.605 276.804C421.603 276.804 423.403 277.322 425.007 278.358C426.61 279.394 427.868 280.899 428.781 282.872C429.693 284.845 430.15 287.238 430.15 290.05C430.15 292.862 429.693 295.255 428.781 297.228C427.868 299.201 426.61 300.706 425.007 301.742C423.403 302.778 421.603 303.296 419.605 303.296ZM419.605 300.003C420.961 300.003 422.145 299.633 423.157 298.893C424.193 298.153 424.994 297.043 425.562 295.563C426.154 294.083 426.45 292.245 426.45 290.05C426.45 287.855 426.154 286.017 425.562 284.537C424.994 283.057 424.193 281.947 423.157 281.207C422.145 280.467 420.961 280.097 419.605 280.097C418.248 280.097 417.052 280.467 416.016 281.207C414.98 281.947 414.166 283.057 413.574 284.537C413.006 286.017 412.723 287.855 412.723 290.05C412.723 292.245 413.006 294.083 413.574 295.563C414.166 297.043 414.98 298.153 416.016 298.893C417.052 299.633 418.248 300.003 419.605 300.003Z" fill="#292C33"/>
<path d="M24.0676 129.296C22.2423 129.296 20.4663 129.012 18.7396 128.445C17.0376 127.878 15.6439 127.113 14.5586 126.151L16.2606 123.228C17.1239 124.042 18.2463 124.708 19.6276 125.226C21.0089 125.744 22.4889 126.003 24.0676 126.003C25.9916 126.003 27.4839 125.596 28.5446 124.782C29.6299 123.943 30.1726 122.821 30.1726 121.415C30.1726 120.058 29.6546 118.973 28.6186 118.159C27.6073 117.32 25.9916 116.901 23.7716 116.901H21.6996V114.311L29.3956 104.839L29.9136 106.319H15.7426V103.1H32.8366V105.616L25.1776 115.051L23.2536 113.904H24.4746C27.6073 113.904 29.9506 114.607 31.5046 116.013C33.0833 117.419 33.8726 119.207 33.8726 121.378C33.8726 122.833 33.5149 124.165 32.7996 125.374C32.0843 126.583 30.9989 127.545 29.5436 128.26C28.1129 128.951 26.2876 129.296 24.0676 129.296Z" fill="#292C33"/>
<path d="M11.9163 187V162.58L13.5073 164.319H6.07031V161.1H15.5793V187H11.9163ZM31.8266 187.296C29.804 187.296 27.991 186.778 26.3876 185.742C24.809 184.706 23.551 183.201 22.6136 181.228C21.701 179.255 21.2446 176.862 21.2446 174.05C21.2446 171.238 21.701 168.845 22.6136 166.872C23.551 164.899 24.809 163.394 26.3876 162.358C27.991 161.322 29.804 160.804 31.8266 160.804C33.8246 160.804 35.6253 161.322 37.2286 162.358C38.832 163.394 40.09 164.899 41.0026 166.872C41.9153 168.845 42.3716 171.238 42.3716 174.05C42.3716 176.862 41.9153 179.255 41.0026 181.228C40.09 183.201 38.832 184.706 37.2286 185.742C35.6253 186.778 33.8246 187.296 31.8266 187.296ZM31.8266 184.003C33.1833 184.003 34.3673 183.633 35.3786 182.893C36.4146 182.153 37.2163 181.043 37.7836 179.563C38.3756 178.083 38.6716 176.245 38.6716 174.05C38.6716 171.855 38.3756 170.017 37.7836 168.537C37.2163 167.057 36.4146 165.947 35.3786 165.207C34.3673 164.467 33.1833 164.097 31.8266 164.097C30.47 164.097 29.2736 164.467 28.2376 165.207C27.2016 165.947 26.3876 167.057 25.7956 168.537C25.2283 170.017 24.9446 171.855 24.9446 174.05C24.9446 176.245 25.2283 178.083 25.7956 179.563C26.3876 181.043 27.2016 182.153 28.2376 182.893C29.2736 183.633 30.47 184.003 31.8266 184.003Z" fill="#292C33"/>
<path d="M13.1976 245V220.58L14.7886 222.319H7.35156V219.1H16.8606V245H13.1976ZM27.0029 245L37.9919 220.654L38.9539 222.319H23.5619L25.4119 220.506V226.944H21.8599V219.1H41.3959V221.616L30.9249 245H27.0029Z" fill="#292C33"/>
<path d="M3.69084 303V300.484L14.2358 290.309C15.1731 289.421 15.8638 288.644 16.3078 287.978C16.7765 287.287 17.0848 286.658 17.2328 286.091C17.4055 285.499 17.4918 284.932 17.4918 284.389C17.4918 283.057 17.0231 282.009 16.0858 281.244C15.1485 280.479 13.7795 280.097 11.9788 280.097C10.5975 280.097 9.35184 280.331 8.24184 280.8C7.13184 281.244 6.16984 281.947 5.35584 282.909L2.83984 280.726C3.8265 279.468 5.14617 278.506 6.79884 277.84C8.47617 277.149 10.3138 276.804 12.3118 276.804C14.1125 276.804 15.6788 277.1 17.0108 277.692C18.3428 278.259 19.3665 279.086 20.0818 280.171C20.8218 281.256 21.1918 282.539 21.1918 284.019C21.1918 284.858 21.0808 285.684 20.8588 286.498C20.6368 287.312 20.2175 288.175 19.6008 289.088C18.9841 290.001 18.0961 291.024 16.9368 292.159L7.53884 301.224L6.65084 299.781H22.3018V303H3.69084ZM24.2512 296.636V294.046L37.4972 277.1H41.4932L28.3582 294.046L26.4712 293.454H47.1542V296.636H24.2512ZM38.6442 303V296.636L38.7552 293.454V287.83H42.2332V303H38.6442Z" fill="#292C33"/>
<path d="M77.4883 122.636V120.046L90.7343 103.1H94.7303L81.5953 120.046L79.7083 119.454H100.392V122.636H77.4883ZM91.8813 129V122.636L91.9923 119.454V113.83H95.4703V129H91.8813Z" fill="#292C33"/>
<path d="M80.9085 187V162.58L82.4995 164.319H75.0625V161.1H84.5715V187H80.9085ZM94.6028 187V162.58L96.1938 164.319H88.7568V161.1H98.2658V187H94.6028Z" fill="#292C33"/>
<path d="M75.8499 245V220.58L77.4409 222.319H70.0039V219.1H79.5129V245H75.8499ZM95.2792 245.296C93.1825 245.296 91.3695 244.988 89.8402 244.371C88.3109 243.754 87.1269 242.879 86.2882 241.744C85.4495 240.585 85.0302 239.228 85.0302 237.674C85.0302 236.145 85.4249 234.85 86.2142 233.789C87.0282 232.704 88.1999 231.89 89.7292 231.347C91.2585 230.78 93.1085 230.496 95.2792 230.496C97.4499 230.496 99.2999 230.78 100.83 231.347C102.384 231.89 103.568 232.704 104.382 233.789C105.196 234.874 105.603 236.169 105.603 237.674C105.603 239.228 105.183 240.585 104.345 241.744C103.506 242.879 102.31 243.754 100.756 244.371C99.2012 244.988 97.3759 245.296 95.2792 245.296ZM95.2792 242.299C97.3512 242.299 98.9669 241.88 100.127 241.041C101.311 240.178 101.903 239.018 101.903 237.563C101.903 236.132 101.311 235.01 100.127 234.196C98.9669 233.357 97.3512 232.938 95.2792 232.938C93.2319 232.938 91.6285 233.357 90.4692 234.196C89.3099 235.01 88.7302 236.132 88.7302 237.563C88.7302 239.018 89.3099 240.178 90.4692 241.041C91.6285 241.88 93.2319 242.299 95.2792 242.299ZM95.2792 232.494C93.3059 232.494 91.6285 232.235 90.2472 231.717C88.8659 231.174 87.8052 230.41 87.0652 229.423C86.3252 228.412 85.9552 227.215 85.9552 225.834C85.9552 224.379 86.3375 223.133 87.1022 222.097C87.8915 221.036 88.9892 220.222 90.3952 219.655C91.8012 219.088 93.4292 218.804 95.2792 218.804C97.1539 218.804 98.7942 219.088 100.201 219.655C101.607 220.222 102.703 221.036 103.493 222.097C104.282 223.133 104.678 224.379 104.678 225.834C104.678 227.215 104.308 228.412 103.568 229.423C102.828 230.41 101.755 231.174 100.349 231.717C98.9422 232.235 97.2525 232.494 95.2792 232.494ZM95.2792 230.126C97.0799 230.126 98.4859 229.756 99.4972 229.016C100.533 228.276 101.052 227.265 101.052 225.982C101.052 224.675 100.521 223.651 99.4602 222.911C98.3995 222.171 97.0059 221.801 95.2792 221.801C93.5525 221.801 92.1712 222.171 91.1352 222.911C90.1239 223.651 89.6182 224.675 89.6182 225.982C89.6182 227.265 90.1115 228.276 91.0982 229.016C92.1095 229.756 93.5032 230.126 95.2792 230.126Z" fill="#292C33"/>
<path d="M68.5815 303V300.484L79.1265 290.309C80.0638 289.421 80.7545 288.644 81.1985 287.978C81.6672 287.287 81.9755 286.658 82.1235 286.091C82.2962 285.499 82.3825 284.932 82.3825 284.389C82.3825 283.057 81.9138 282.009 80.9765 281.244C80.0392 280.479 78.6702 280.097 76.8695 280.097C75.4882 280.097 74.2425 280.331 73.1325 280.8C72.0225 281.244 71.0605 281.947 70.2465 282.909L67.7305 280.726C68.7172 279.468 70.0368 278.506 71.6895 277.84C73.3668 277.149 75.2045 276.804 77.2025 276.804C79.0032 276.804 80.5695 277.1 81.9015 277.692C83.2335 278.259 84.2572 279.086 84.9725 280.171C85.7125 281.256 86.0825 282.539 86.0825 284.019C86.0825 284.858 85.9715 285.684 85.7495 286.498C85.5275 287.312 85.1082 288.175 84.4915 289.088C83.8748 290.001 82.9868 291.024 81.8275 292.159L72.4295 301.224L71.5415 299.781H87.1925V303H68.5815ZM98.5966 303.296C96.7713 303.296 94.9953 303.012 93.2686 302.445C91.5666 301.878 90.1729 301.113 89.0876 300.151L90.7896 297.228C91.6529 298.042 92.7753 298.708 94.1566 299.226C95.5379 299.744 97.0056 300.003 98.5596 300.003C100.533 300.003 102.05 299.584 103.11 298.745C104.171 297.906 104.701 296.784 104.701 295.378C104.701 294.416 104.467 293.577 103.998 292.862C103.53 292.147 102.716 291.604 101.556 291.234C100.422 290.839 98.8556 290.642 96.8576 290.642H90.9746L92.3436 277.1H106.958V280.319H93.7126L95.6366 278.506L94.5636 289.199L92.6396 287.423H97.6346C100.224 287.423 102.309 287.756 103.887 288.422C105.466 289.088 106.613 290.013 107.328 291.197C108.044 292.356 108.401 293.701 108.401 295.23C108.401 296.71 108.044 298.067 107.328 299.3C106.613 300.509 105.528 301.483 104.072 302.223C102.642 302.938 100.816 303.296 98.5966 303.296Z" fill="#292C33"/>
<path d="M151.935 129.296C150.11 129.296 148.334 129.012 146.607 128.445C144.905 127.878 143.512 127.113 142.426 126.151L144.128 123.228C144.992 124.042 146.114 124.708 147.495 125.226C148.877 125.744 150.344 126.003 151.898 126.003C153.872 126.003 155.389 125.584 156.449 124.745C157.51 123.906 158.04 122.784 158.04 121.378C158.04 120.416 157.806 119.577 157.337 118.862C156.869 118.147 156.055 117.604 154.895 117.234C153.761 116.839 152.194 116.642 150.196 116.642H144.313L145.682 103.1H160.297V106.319H147.051L148.975 104.506L147.902 115.199L145.978 113.423H150.973C153.563 113.423 155.648 113.756 157.226 114.422C158.805 115.088 159.952 116.013 160.667 117.197C161.383 118.356 161.74 119.701 161.74 121.23C161.74 122.71 161.383 124.067 160.667 125.3C159.952 126.509 158.867 127.483 157.411 128.223C155.981 128.938 154.155 129.296 151.935 129.296Z" fill="#292C33"/>
<path d="M141.092 187V162.58L142.683 164.319H135.246V161.1H144.755V187H141.092ZM150.014 187V184.484L160.559 174.309C161.496 173.421 162.187 172.644 162.631 171.978C163.099 171.287 163.408 170.658 163.556 170.091C163.728 169.499 163.815 168.932 163.815 168.389C163.815 167.057 163.346 166.009 162.409 165.244C161.471 164.479 160.102 164.097 158.302 164.097C156.92 164.097 155.675 164.331 154.565 164.8C153.455 165.244 152.493 165.947 151.679 166.909L149.163 164.726C150.149 163.468 151.469 162.506 153.122 161.84C154.799 161.149 156.637 160.804 158.635 160.804C160.435 160.804 162.002 161.1 163.334 161.692C164.666 162.259 165.689 163.086 166.405 164.171C167.145 165.256 167.515 166.539 167.515 168.019C167.515 168.858 167.404 169.684 167.182 170.498C166.96 171.312 166.54 172.175 165.924 173.088C165.307 174.001 164.419 175.024 163.26 176.159L153.862 185.224L152.974 183.781H168.625V187H150.014Z" fill="#292C33"/>
<path d="M140.295 245V220.58L141.886 222.319H134.449V219.1H143.958V245H140.295ZM158.023 218.804C160.366 218.804 162.339 219.31 163.943 220.321C165.571 221.332 166.804 222.8 167.643 224.724C168.481 226.623 168.901 228.954 168.901 231.717C168.901 234.652 168.383 237.131 167.347 239.154C166.311 241.177 164.88 242.706 163.055 243.742C161.229 244.778 159.096 245.296 156.654 245.296C155.445 245.296 154.273 245.173 153.139 244.926C152.029 244.679 151.054 244.297 150.216 243.779L151.622 240.893C152.312 241.337 153.077 241.658 153.916 241.855C154.779 242.028 155.679 242.114 156.617 242.114C159.231 242.114 161.316 241.3 162.87 239.672C164.424 238.019 165.201 235.577 165.201 232.346C165.201 231.828 165.176 231.211 165.127 230.496C165.077 229.781 164.966 229.078 164.794 228.387L166.015 229.645C165.669 230.78 165.09 231.742 164.276 232.531C163.486 233.296 162.524 233.875 161.39 234.27C160.28 234.64 159.059 234.825 157.727 234.825C156.025 234.825 154.508 234.504 153.176 233.863C151.844 233.222 150.795 232.321 150.031 231.162C149.266 229.978 148.884 228.584 148.884 226.981C148.884 225.304 149.278 223.861 150.068 222.652C150.882 221.419 151.979 220.469 153.361 219.803C154.767 219.137 156.321 218.804 158.023 218.804ZM158.171 221.801C157.061 221.801 156.074 222.011 155.211 222.43C154.347 222.849 153.669 223.429 153.176 224.169C152.707 224.909 152.473 225.797 152.473 226.833C152.473 228.362 153.003 229.583 154.064 230.496C155.124 231.384 156.555 231.828 158.356 231.828C159.54 231.828 160.576 231.606 161.464 231.162C162.376 230.718 163.079 230.114 163.573 229.349C164.091 228.584 164.35 227.733 164.35 226.796C164.35 225.883 164.115 225.057 163.647 224.317C163.178 223.577 162.487 222.973 161.575 222.504C160.662 222.035 159.527 221.801 158.171 221.801Z" fill="#292C33"/>
<path d="M131.765 303V300.484L142.31 290.309C143.248 289.421 143.938 288.644 144.382 287.978C144.851 287.287 145.159 286.658 145.307 286.091C145.48 285.499 145.566 284.932 145.566 284.389C145.566 283.057 145.098 282.009 144.16 281.244C143.223 280.479 141.854 280.097 140.053 280.097C138.672 280.097 137.426 280.331 136.316 280.8C135.206 281.244 134.244 281.947 133.43 282.909L130.914 280.726C131.901 279.468 133.221 278.506 134.873 277.84C136.551 277.149 138.388 276.804 140.386 276.804C142.187 276.804 143.753 277.1 145.085 277.692C146.417 278.259 147.441 279.086 148.156 280.171C148.896 281.256 149.266 282.539 149.266 284.019C149.266 284.858 149.155 285.684 148.933 286.498C148.711 287.312 148.292 288.175 147.675 289.088C147.059 290.001 146.171 291.024 145.011 292.159L135.613 301.224L134.725 299.781H150.376V303H131.765ZM164.26 303.296C161.966 303.296 160.005 302.79 158.377 301.779C156.749 300.768 155.504 299.312 154.64 297.413C153.802 295.489 153.382 293.146 153.382 290.383C153.382 287.448 153.9 284.969 154.936 282.946C155.972 280.923 157.415 279.394 159.265 278.358C161.115 277.322 163.237 276.804 165.629 276.804C166.863 276.804 168.034 276.927 169.144 277.174C170.279 277.421 171.253 277.803 172.067 278.321L170.661 281.207C169.995 280.738 169.231 280.418 168.367 280.245C167.529 280.072 166.641 279.986 165.703 279.986C163.064 279.986 160.967 280.812 159.413 282.465C157.859 284.093 157.082 286.523 157.082 289.754C157.082 290.272 157.107 290.889 157.156 291.604C157.206 292.319 157.329 293.022 157.526 293.713L156.268 292.455C156.638 291.32 157.218 290.371 158.007 289.606C158.821 288.817 159.783 288.237 160.893 287.867C162.028 287.472 163.249 287.275 164.556 287.275C166.283 287.275 167.812 287.596 169.144 288.237C170.476 288.878 171.525 289.791 172.289 290.975C173.054 292.134 173.436 293.516 173.436 295.119C173.436 296.772 173.029 298.215 172.215 299.448C171.401 300.681 170.304 301.631 168.922 302.297C167.541 302.963 165.987 303.296 164.26 303.296ZM164.112 300.299C165.247 300.299 166.234 300.089 167.072 299.67C167.936 299.251 168.614 298.671 169.107 297.931C169.601 297.166 169.847 296.278 169.847 295.267C169.847 293.738 169.317 292.529 168.256 291.641C167.196 290.728 165.753 290.272 163.927 290.272C162.743 290.272 161.707 290.494 160.819 290.938C159.931 291.382 159.228 291.986 158.71 292.751C158.217 293.491 157.97 294.342 157.97 295.304C157.97 296.192 158.205 297.018 158.673 297.783C159.142 298.523 159.833 299.127 160.745 299.596C161.658 300.065 162.78 300.299 164.112 300.299Z" fill="#292C33"/>
<path d="M217.194 129.296C214.9 129.296 212.939 128.79 211.311 127.779C209.683 126.768 208.438 125.312 207.574 123.413C206.736 121.489 206.316 119.146 206.316 116.383C206.316 113.448 206.834 110.969 207.87 108.946C208.906 106.923 210.349 105.394 212.199 104.358C214.049 103.322 216.171 102.804 218.563 102.804C219.797 102.804 220.968 102.927 222.078 103.174C223.213 103.421 224.187 103.803 225.001 104.321L223.595 107.207C222.929 106.738 222.165 106.418 221.301 106.245C220.463 106.072 219.575 105.986 218.637 105.986C215.998 105.986 213.901 106.812 212.347 108.465C210.793 110.093 210.016 112.523 210.016 115.754C210.016 116.272 210.041 116.889 210.09 117.604C210.14 118.319 210.263 119.022 210.46 119.713L209.202 118.455C209.572 117.32 210.152 116.371 210.941 115.606C211.755 114.817 212.717 114.237 213.827 113.867C214.962 113.472 216.183 113.275 217.49 113.275C219.217 113.275 220.746 113.596 222.078 114.237C223.41 114.878 224.459 115.791 225.223 116.975C225.988 118.134 226.37 119.516 226.37 121.119C226.37 122.772 225.963 124.215 225.149 125.448C224.335 126.681 223.238 127.631 221.856 128.297C220.475 128.963 218.921 129.296 217.194 129.296ZM217.046 126.299C218.181 126.299 219.168 126.089 220.006 125.67C220.87 125.251 221.548 124.671 222.041 123.931C222.535 123.166 222.781 122.278 222.781 121.267C222.781 119.738 222.251 118.529 221.19 117.641C220.13 116.728 218.687 116.272 216.861 116.272C215.677 116.272 214.641 116.494 213.753 116.938C212.865 117.382 212.162 117.986 211.644 118.751C211.151 119.491 210.904 120.342 210.904 121.304C210.904 122.192 211.139 123.018 211.607 123.783C212.076 124.523 212.767 125.127 213.679 125.596C214.592 126.065 215.714 126.299 217.046 126.299Z" fill="#292C33"/>
<path d="M204.666 187V162.58L206.257 164.319H198.82V161.1H208.329V187H204.666ZM221.912 187.296C220.087 187.296 218.311 187.012 216.584 186.445C214.882 185.878 213.489 185.113 212.403 184.151L214.105 181.228C214.969 182.042 216.091 182.708 217.472 183.226C218.854 183.744 220.334 184.003 221.912 184.003C223.836 184.003 225.329 183.596 226.389 182.782C227.475 181.943 228.017 180.821 228.017 179.415C228.017 178.058 227.499 176.973 226.463 176.159C225.452 175.32 223.836 174.901 221.616 174.901H219.544V172.311L227.24 162.839L227.758 164.319H213.587V161.1H230.681V163.616L223.022 173.051L221.098 171.904H222.319C225.452 171.904 227.795 172.607 229.349 174.013C230.928 175.419 231.717 177.207 231.717 179.378C231.717 180.833 231.36 182.165 230.644 183.374C229.929 184.583 228.844 185.545 227.388 186.26C225.958 186.951 224.132 187.296 221.912 187.296Z" fill="#292C33"/>
<path d="M194.382 245V242.484L204.927 232.309C205.864 231.421 206.555 230.644 206.999 229.978C207.468 229.287 207.776 228.658 207.924 228.091C208.097 227.499 208.183 226.932 208.183 226.389C208.183 225.057 207.714 224.009 206.777 223.244C205.84 222.479 204.471 222.097 202.67 222.097C201.289 222.097 200.043 222.331 198.933 222.8C197.823 223.244 196.861 223.947 196.047 224.909L193.531 222.726C194.518 221.468 195.837 220.506 197.49 219.84C199.167 219.149 201.005 218.804 203.003 218.804C204.804 218.804 206.37 219.1 207.702 219.692C209.034 220.259 210.058 221.086 210.773 222.171C211.513 223.256 211.883 224.539 211.883 226.019C211.883 226.858 211.772 227.684 211.55 228.498C211.328 229.312 210.909 230.175 210.292 231.088C209.675 232.001 208.787 233.024 207.628 234.159L198.23 243.224L197.342 241.781H212.993V245H194.382ZM226.581 245.296C224.558 245.296 222.745 244.778 221.142 243.742C219.563 242.706 218.305 241.201 217.368 239.228C216.455 237.255 215.999 234.862 215.999 232.05C215.999 229.238 216.455 226.845 217.368 224.872C218.305 222.899 219.563 221.394 221.142 220.358C222.745 219.322 224.558 218.804 226.581 218.804C228.579 218.804 230.379 219.322 231.983 220.358C233.586 221.394 234.844 222.899 235.757 224.872C236.669 226.845 237.126 229.238 237.126 232.05C237.126 234.862 236.669 237.255 235.757 239.228C234.844 241.201 233.586 242.706 231.983 243.742C230.379 244.778 228.579 245.296 226.581 245.296ZM226.581 242.003C227.937 242.003 229.121 241.633 230.133 240.893C231.169 240.153 231.97 239.043 232.538 237.563C233.13 236.083 233.426 234.245 233.426 232.05C233.426 229.855 233.13 228.017 232.538 226.537C231.97 225.057 231.169 223.947 230.133 223.207C229.121 222.467 227.937 222.097 226.581 222.097C225.224 222.097 224.028 222.467 222.992 223.207C221.956 223.947 221.142 225.057 220.55 226.537C219.982 228.017 219.699 229.855 219.699 232.05C219.699 234.245 219.982 236.083 220.55 237.563C221.142 239.043 221.956 240.153 222.992 240.893C224.028 241.633 225.224 242.003 226.581 242.003Z" fill="#292C33"/>
<path d="M195.667 303V300.484L206.212 290.309C207.149 289.421 207.84 288.644 208.284 287.978C208.752 287.287 209.061 286.658 209.209 286.091C209.381 285.499 209.468 284.932 209.468 284.389C209.468 283.057 208.999 282.009 208.062 281.244C207.124 280.479 205.755 280.097 203.955 280.097C202.573 280.097 201.328 280.331 200.218 280.8C199.108 281.244 198.146 281.947 197.332 282.909L194.816 280.726C195.802 279.468 197.122 278.506 198.775 277.84C200.452 277.149 202.29 276.804 204.288 276.804C206.088 276.804 207.655 277.1 208.987 277.692C210.319 278.259 211.342 279.086 212.058 280.171C212.798 281.256 213.168 282.539 213.168 284.019C213.168 284.858 213.057 285.684 212.835 286.498C212.613 287.312 212.193 288.175 211.577 289.088C210.96 290.001 210.072 291.024 208.913 292.159L199.515 301.224L198.627 299.781H214.278V303H195.667ZM221.761 303L232.75 278.654L233.712 280.319H218.32L220.17 278.506V284.944H216.618V277.1H236.154V279.616L225.683 303H221.761Z" fill="#292C33"/>
<path d="M267.877 187V162.58L269.468 164.319H262.031V161.1H271.54V187H267.877ZM276.835 180.636V178.046L290.081 161.1H294.077L280.942 178.046L279.055 177.454H299.738V180.636H276.835ZM291.228 187V180.636L291.339 177.454V171.83H294.817V187H291.228Z" fill="white"/>
<path d="M264.859 245V242.484L275.404 232.309C276.341 231.421 277.032 230.644 277.476 229.978C277.945 229.287 278.253 228.658 278.401 228.091C278.574 227.499 278.66 226.932 278.66 226.389C278.66 225.057 278.191 224.009 277.254 223.244C276.317 222.479 274.948 222.097 273.147 222.097C271.766 222.097 270.52 222.331 269.41 222.8C268.3 223.244 267.338 223.947 266.524 224.909L264.008 222.726C264.995 221.468 266.314 220.506 267.967 219.84C269.644 219.149 271.482 218.804 273.48 218.804C275.281 218.804 276.847 219.1 278.179 219.692C279.511 220.259 280.535 221.086 281.25 222.171C281.99 223.256 282.36 224.539 282.36 226.019C282.36 226.858 282.249 227.684 282.027 228.498C281.805 229.312 281.386 230.175 280.769 231.088C280.152 232.001 279.264 233.024 278.105 234.159L268.707 243.224L267.819 241.781H283.47V245H264.859ZM290.878 245V220.58L292.469 222.319H285.032V219.1H294.541V245H290.878Z" fill="#292C33"/>
<path d="M259.8 303V300.484L270.345 290.309C271.283 289.421 271.973 288.644 272.417 287.978C272.886 287.287 273.194 286.658 273.342 286.091C273.515 285.499 273.601 284.932 273.601 284.389C273.601 283.057 273.133 282.009 272.195 281.244C271.258 280.479 269.889 280.097 268.088 280.097C266.707 280.097 265.461 280.331 264.351 280.8C263.241 281.244 262.279 281.947 261.465 282.909L258.949 280.726C259.936 279.468 261.256 278.506 262.908 277.84C264.586 277.149 266.423 276.804 268.421 276.804C270.222 276.804 271.788 277.1 273.12 277.692C274.452 278.259 275.476 279.086 276.191 280.171C276.931 281.256 277.301 282.539 277.301 284.019C277.301 284.858 277.19 285.684 276.968 286.498C276.746 287.312 276.327 288.175 275.71 289.088C275.094 290.001 274.206 291.024 273.046 292.159L263.648 301.224L262.76 299.781H278.411V303H259.8ZM291.554 303.296C289.458 303.296 287.645 302.988 286.115 302.371C284.586 301.754 283.402 300.879 282.563 299.744C281.725 298.585 281.305 297.228 281.305 295.674C281.305 294.145 281.7 292.85 282.489 291.789C283.303 290.704 284.475 289.89 286.004 289.347C287.534 288.78 289.384 288.496 291.554 288.496C293.725 288.496 295.575 288.78 297.104 289.347C298.658 289.89 299.842 290.704 300.656 291.789C301.47 292.874 301.877 294.169 301.877 295.674C301.877 297.228 301.458 298.585 300.619 299.744C299.781 300.879 298.584 301.754 297.03 302.371C295.476 302.988 293.651 303.296 291.554 303.296ZM291.554 300.299C293.626 300.299 295.242 299.88 296.401 299.041C297.585 298.178 298.177 297.018 298.177 295.563C298.177 294.132 297.585 293.01 296.401 292.196C295.242 291.357 293.626 290.938 291.554 290.938C289.507 290.938 287.904 291.357 286.744 292.196C285.585 293.01 285.005 294.132 285.005 295.563C285.005 297.018 285.585 298.178 286.744 299.041C287.904 299.88 289.507 300.299 291.554 300.299ZM291.554 290.494C289.581 290.494 287.904 290.235 286.522 289.717C285.141 289.174 284.08 288.41 283.34 287.423C282.6 286.412 282.23 285.215 282.23 283.834C282.23 282.379 282.613 281.133 283.377 280.097C284.167 279.036 285.264 278.222 286.67 277.655C288.076 277.088 289.704 276.804 291.554 276.804C293.429 276.804 295.069 277.088 296.475 277.655C297.881 278.222 298.979 279.036 299.768 280.097C300.558 281.133 300.952 282.379 300.952 283.834C300.952 285.215 300.582 286.412 299.842 287.423C299.102 288.41 298.029 289.174 296.623 289.717C295.217 290.235 293.528 290.494 291.554 290.494ZM291.554 288.126C293.355 288.126 294.761 287.756 295.772 287.016C296.808 286.276 297.326 285.265 297.326 283.982C297.326 282.675 296.796 281.651 295.735 280.911C294.675 280.171 293.281 279.801 291.554 279.801C289.828 279.801 288.446 280.171 287.41 280.911C286.399 281.651 285.893 282.675 285.893 283.982C285.893 285.265 286.387 286.276 287.373 287.016C288.385 287.756 289.778 288.126 291.554 288.126Z" fill="#292C33"/>
<path d="M276.155 129L287.144 104.654L288.106 106.319H272.714L274.564 104.506V110.944H271.012V103.1H290.548V105.616L280.077 129H276.155Z" fill="#292C33"/>
</g>
</g>
</g>
</g>
<defs>
<clipPath id="clip0_3949_8130">
<rect width="432" height="308" fill="white"/>
</clipPath>
</defs>
</svg>
