<svg width="432" height="366" viewBox="0 0 432 366" fill="none" xmlns="http://www.w3.org/2000/svg">
<path d="M23.4554 20.7264H20.8466V3.36139H11.3896V20.7264H8.69922V1.32324H23.3739V20.7264H23.4554Z" fill="#B3B3B3"/>
<path d="M39.2715 20.727H36.6626V14.6126H30.2221V20.727H27.6133V6.29688H30.2221V12.5745H36.6626V6.29688H39.2715V20.727Z" fill="#B3B3B3"/>
<path d="M73.4961 20.7264V1.32324H79.8551C81.8933 1.32324 83.4423 1.73087 84.5836 2.62766C85.725 3.52444 86.2957 4.82886 86.2957 6.5409C86.2957 7.35616 86.0511 8.08989 85.5619 8.82363C85.0728 9.55736 84.339 9.96499 83.5238 10.2911C84.8282 10.4541 85.8065 11.0248 86.5402 11.9216C87.274 12.8184 87.6816 13.9598 87.6816 15.1826C87.6816 16.9762 87.1109 18.2806 85.9696 19.2589C84.8282 20.2373 83.2792 20.6449 81.2411 20.6449H73.4961V20.7264ZM76.1865 9.55736H80.4258C81.4041 9.55736 82.2194 9.31278 82.7901 8.7421C83.4423 8.17142 83.6868 7.43769 83.6868 6.45937C83.6868 5.39954 83.3607 4.6658 82.7085 4.09512C82.0563 3.60597 81.078 3.27986 79.8551 3.27986H76.1865V9.55736ZM76.1865 11.5955V18.6067H81.2411C82.4639 18.6067 83.3607 18.2806 84.0129 17.7099C84.6652 17.1393 84.9913 16.2425 84.9913 15.1826C84.9913 14.1228 84.6652 13.226 84.0129 12.5738C83.3607 11.9216 82.4639 11.5955 81.2411 11.514H81.078H76.1865V11.5955Z" fill="#B3B3B3"/>
<path d="M101.624 8.33503H96.8959V20.727H94.2871V8.33503H89.5586V6.29688H101.624V8.33503Z" fill="#B3B3B3"/>
<path d="M151.008 14.5304C151.089 16.4055 150.437 17.9545 149.133 19.1773C147.828 20.4002 146.116 21.0524 143.915 21.0524C141.714 21.0524 139.92 20.2372 138.534 18.6882C137.148 17.1392 136.496 15.1826 136.496 12.7368V9.31271C136.496 6.94846 137.148 4.91031 138.534 3.36132C139.92 1.81233 141.714 0.99707 143.915 0.99707C146.116 0.99707 147.828 1.56775 149.133 2.70911C150.437 3.85048 151.089 5.39947 151.008 7.35609V7.43762H148.48C148.48 6.05168 148.073 4.99184 147.257 4.17658C146.442 3.36132 145.301 2.95369 143.833 2.95369C142.366 2.95369 141.225 3.52437 140.328 4.74726C139.431 5.88862 139.023 7.35609 139.023 9.14966V12.6553C139.023 14.4488 139.431 15.9163 140.328 17.0577C141.225 18.199 142.366 18.8512 143.833 18.8512C145.301 18.8512 146.442 18.4436 147.257 17.7099C148.073 16.8946 148.48 15.8348 148.48 14.4488H151.008V14.5304Z" fill="#B3B3B3"/>
<path d="M166.419 14.0423C166.419 16.162 165.93 17.7925 164.952 19.0969C163.973 20.4013 162.587 20.972 160.794 20.972C159.897 20.972 159.163 20.8089 158.429 20.5644C157.777 20.2383 157.207 19.8306 156.717 19.26V26.2712H154.109V6.29731H156.147L156.554 8.1724C157.044 7.43867 157.614 6.94951 158.348 6.62341C159.082 6.29731 159.897 6.05273 160.794 6.05273C162.587 6.05273 163.973 6.78646 164.952 8.1724C165.93 9.55834 166.419 11.4335 166.419 13.7977V14.0423ZM163.81 13.7977C163.81 12.1672 163.484 10.7813 162.832 9.80292C162.18 8.82461 161.201 8.25393 159.978 8.25393C159.245 8.25393 158.593 8.41698 158.022 8.74308C157.451 9.06919 157.044 9.55834 156.717 10.1291V17.1403C157.044 17.711 157.451 18.2001 158.022 18.5262C158.593 18.8523 159.245 19.0154 159.978 19.0154C161.201 19.0154 162.18 18.5262 162.832 17.6294C163.484 16.7327 163.81 15.5098 163.81 14.1238V13.7977Z" fill="#B3B3B3"/>
<path d="M215.926 1.32324V20.7264H213.317V12.6553C212.502 12.8999 211.687 13.063 210.871 13.226C210.056 13.3076 209.159 13.3891 208.018 13.3891C205.898 13.3891 204.268 12.8999 203.127 12.0031C201.985 11.1064 201.496 9.55736 201.496 7.43769V1.32324H204.105V7.43769C204.105 8.90515 204.431 9.88346 205.002 10.4541C205.654 11.0248 206.632 11.2694 207.937 11.2694C208.833 11.2694 209.73 11.1879 210.627 11.1064C211.442 10.9433 212.339 10.7802 213.236 10.5357V1.32324H215.926Z" fill="#B3B3B3"/>
<path d="M231.174 8.33503H226.446V20.727H223.837V8.33503H219.109V6.29688H231.174V8.33503Z" fill="#B3B3B3"/>
<path d="M280.171 20.7264H277.562V3.36139H268.105V20.7264H265.496V1.32324H280.171V20.7264Z" fill="#B3B3B3"/>
<path d="M295.418 8.33501H290.689V20.727H288.081V8.33501H283.352V6.29688H295.418V8.33501Z" fill="#B3B3B3"/>
<path d="M345.008 14.5304C345.089 16.4055 344.437 17.9545 343.133 19.1774C341.828 20.4003 340.116 21.0525 337.915 21.0525C335.714 21.0525 333.92 20.2372 332.534 18.6882C331.148 17.1392 330.496 15.1826 330.496 12.7368V9.31272C330.496 6.94847 331.148 4.91032 332.534 3.36133C333.92 1.81234 335.714 0.99707 337.915 0.99707C340.116 0.99707 341.828 1.56776 343.133 2.70912C344.437 3.85048 345.089 5.39948 345.008 7.3561V7.43762H342.48C342.48 6.05168 342.073 4.99185 341.257 4.17659C340.442 3.36133 339.301 2.9537 337.833 2.9537C336.366 2.9537 335.225 3.52438 334.328 4.74727C333.431 5.88863 333.023 7.3561 333.023 9.14967V12.6553C333.023 14.4489 333.431 15.9163 334.328 17.0577C335.225 18.1991 336.366 18.8513 337.833 18.8513C339.301 18.8513 340.442 18.4436 341.257 17.7099C342.073 16.8946 342.48 15.8348 342.48 14.4489H345.008V14.5304Z" fill="#B3B3B3"/>
<path d="M354.383 6.05198C356.258 6.05198 357.644 6.70419 358.704 8.09013C359.764 9.47607 360.334 11.1881 360.334 13.3893V13.7154C360.334 15.8351 359.764 17.6287 358.622 19.0146C357.481 20.4005 355.932 21.0528 353.894 21.0528C351.856 21.0528 350.307 20.4005 349.165 19.0146C348.024 17.6287 347.453 15.9166 347.453 13.7154V13.3893C347.453 13.3078 347.453 13.2263 347.453 13.2263C347.453 13.1447 347.453 13.1447 347.453 13.0632V9.96522C347.453 7.19334 348.024 5.23672 349.084 3.93231C350.144 2.62789 351.774 1.97568 353.894 1.81263C355.117 1.73111 356.095 1.56805 356.747 1.32348C357.399 1.0789 357.726 0.671267 357.726 0.100586H359.764V0.182112C359.845 1.56805 359.356 2.54636 358.378 3.11705C357.399 3.68773 356.013 4.01383 354.138 4.01383C352.752 4.01383 351.693 4.42146 350.877 5.15519C350.062 5.88893 349.654 6.94876 349.654 8.3347V8.41623C350.144 7.76402 350.877 7.19334 351.693 6.78571C352.508 6.37808 353.486 6.05198 354.383 6.05198ZM353.894 8.09013C352.671 8.09013 351.693 8.57928 351.04 9.55759C350.388 10.5359 350.062 11.8403 350.062 13.3078V13.6339C350.062 15.1829 350.388 16.4058 351.04 17.3841C351.693 18.3624 352.671 18.8516 353.894 18.8516C355.117 18.8516 356.095 18.3624 356.747 17.3841C357.399 16.4058 357.726 15.1014 357.726 13.6339V13.3078C357.726 11.7588 357.399 10.5359 356.747 9.55759C356.095 8.57928 355.117 8.09013 353.894 8.09013Z" fill="#B3B3B3"/>
<path d="M394.496 20.7264V1.32324H400.855C402.893 1.32324 404.442 1.73087 405.584 2.62766C406.725 3.52444 407.296 4.82886 407.296 6.5409C407.296 7.35616 407.051 8.08989 406.562 8.82363C406.073 9.55736 405.339 9.96499 404.524 10.3726C405.828 10.5357 406.806 11.1064 407.54 12.0031C408.274 12.8999 408.682 14.0413 408.682 15.2642C408.682 17.0577 408.111 18.3622 406.969 19.3405C405.828 20.3188 404.279 20.7264 402.241 20.7264H394.496ZM397.186 9.55736H401.426C402.404 9.55736 403.219 9.31278 403.79 8.7421C404.442 8.17142 404.687 7.43769 404.687 6.45937C404.687 5.39954 404.361 4.6658 403.708 4.09512C403.056 3.60597 402.078 3.27986 400.855 3.27986H397.186V9.55736ZM397.186 11.5955V18.6067H402.241C403.464 18.6067 404.361 18.2806 405.013 17.7099C405.665 17.1393 405.991 16.2425 405.991 15.1826C405.991 14.1228 405.665 13.226 405.013 12.5738C404.361 11.9216 403.464 11.5955 402.241 11.514H402.078H397.186V11.5955Z" fill="#B3B3B3"/>
<path d="M417.245 18.9334C418.061 18.9334 418.794 18.6888 419.365 18.1181C419.936 17.5474 420.262 16.8952 420.262 16.1615H422.626V16.243C422.626 17.4659 422.137 18.6073 420.996 19.5856C419.854 20.5639 418.631 21.053 417.164 21.053C415.126 21.053 413.577 20.4008 412.435 19.0149C411.294 17.6289 410.805 15.9169 410.805 13.8788V13.3081C410.805 11.2699 411.376 9.55787 412.435 8.17193C413.577 6.78599 415.126 6.13379 417.082 6.13379C418.713 6.13379 420.017 6.62294 420.996 7.60125C421.974 8.57956 422.545 9.80245 422.463 11.2699V11.3515H420.099C420.099 10.4547 419.773 9.72093 419.202 9.06872C418.631 8.41651 417.898 8.17193 417.001 8.17193C415.696 8.17193 414.8 8.66109 414.147 9.6394C413.577 10.6177 413.251 11.8406 413.251 13.3081V13.8788C413.251 15.3462 413.577 16.5691 414.147 17.5474C415.044 18.4442 415.941 18.9334 417.245 18.9334Z" fill="#B3B3B3"/>
<path d="M406.948 132.297C404.851 132.297 403.038 131.989 401.509 131.372C399.98 130.755 398.796 129.88 397.957 128.745C397.118 127.586 396.699 126.229 396.699 124.675C396.699 123.146 397.094 121.851 397.883 120.79C398.697 119.705 399.869 118.891 401.398 118.348C402.927 117.781 404.777 117.497 406.948 117.497C409.119 117.497 410.969 117.781 412.498 118.348C414.052 118.891 415.236 119.705 416.05 120.79C416.864 121.875 417.271 123.17 417.271 124.675C417.271 126.229 416.852 127.586 416.013 128.745C415.174 129.88 413.978 130.755 412.424 131.372C410.87 131.989 409.045 132.297 406.948 132.297ZM406.948 129.3C409.02 129.3 410.636 128.881 411.795 128.042C412.979 127.179 413.571 126.019 413.571 124.564C413.571 123.133 412.979 122.011 411.795 121.197C410.636 120.358 409.02 119.939 406.948 119.939C404.901 119.939 403.297 120.358 402.138 121.197C400.979 122.011 400.399 123.133 400.399 124.564C400.399 126.019 400.979 127.179 402.138 128.042C403.297 128.881 404.901 129.3 406.948 129.3ZM406.948 119.495C404.975 119.495 403.297 119.236 401.916 118.718C400.535 118.175 399.474 117.411 398.734 116.424C397.994 115.413 397.624 114.216 397.624 112.835C397.624 111.38 398.006 110.134 398.771 109.098C399.56 108.037 400.658 107.223 402.064 106.656C403.47 106.089 405.098 105.805 406.948 105.805C408.823 105.805 410.463 106.089 411.869 106.656C413.275 107.223 414.373 108.037 415.162 109.098C415.951 110.134 416.346 111.38 416.346 112.835C416.346 114.216 415.976 115.413 415.236 116.424C414.496 117.411 413.423 118.175 412.017 118.718C410.611 119.236 408.921 119.495 406.948 119.495ZM406.948 117.127C408.749 117.127 410.155 116.757 411.166 116.017C412.202 115.277 412.72 114.266 412.72 112.983C412.72 111.676 412.19 110.652 411.129 109.912C410.068 109.172 408.675 108.802 406.948 108.802C405.221 108.802 403.84 109.172 402.804 109.912C401.793 110.652 401.287 111.676 401.287 112.983C401.287 114.266 401.78 115.277 402.767 116.017C403.778 116.757 405.172 117.127 406.948 117.127Z" fill="#292C33"/>
<path d="M395.651 189.001V164.581L397.242 166.32H389.805V163.101H399.314V189.001H395.651ZM413.341 189.297C411.516 189.297 409.74 189.013 408.013 188.446C406.311 187.879 404.917 187.114 403.832 186.152L405.534 183.229C406.397 184.043 407.52 184.709 408.901 185.227C410.282 185.745 411.75 186.004 413.304 186.004C415.277 186.004 416.794 185.585 417.855 184.746C418.916 183.907 419.446 182.785 419.446 181.379C419.446 180.417 419.212 179.578 418.743 178.863C418.274 178.148 417.46 177.605 416.301 177.235C415.166 176.84 413.6 176.643 411.602 176.643H405.719L407.088 163.101H421.703V166.32H408.457L410.381 164.507L409.308 175.2L407.384 173.424H412.379C414.969 173.424 417.053 173.757 418.632 174.423C420.211 175.089 421.358 176.014 422.073 177.198C422.788 178.357 423.146 179.702 423.146 181.231C423.146 182.711 422.788 184.068 422.073 185.301C421.358 186.51 420.272 187.484 418.817 188.224C417.386 188.939 415.561 189.297 413.341 189.297Z" fill="#292C33"/>
<path d="M387.101 246.001V243.485L397.646 233.31C398.583 232.422 399.274 231.645 399.718 230.979C400.186 230.288 400.495 229.659 400.643 229.092C400.815 228.5 400.902 227.933 400.902 227.39C400.902 226.058 400.433 225.01 399.496 224.245C398.558 223.48 397.189 223.098 395.389 223.098C394.007 223.098 392.762 223.332 391.652 223.801C390.542 224.245 389.58 224.948 388.766 225.91L386.25 223.727C387.236 222.469 388.556 221.507 390.209 220.841C391.886 220.15 393.724 219.805 395.722 219.805C397.522 219.805 399.089 220.101 400.421 220.693C401.753 221.26 402.776 222.087 403.492 223.172C404.232 224.257 404.602 225.54 404.602 227.02C404.602 227.859 404.491 228.685 404.269 229.499C404.047 230.313 403.627 231.176 403.011 232.089C402.394 233.002 401.506 234.025 400.347 235.16L390.949 244.225L390.061 242.782H405.712V246.001H387.101ZM408.347 246.001V243.485L418.892 233.31C419.829 232.422 420.52 231.645 420.964 230.979C421.432 230.288 421.741 229.659 421.889 229.092C422.061 228.5 422.148 227.933 422.148 227.39C422.148 226.058 421.679 225.01 420.742 224.245C419.804 223.48 418.435 223.098 416.635 223.098C415.253 223.098 414.008 223.332 412.898 223.801C411.788 224.245 410.826 224.948 410.012 225.91L407.496 223.727C408.482 222.469 409.802 221.507 411.455 220.841C413.132 220.15 414.97 219.805 416.968 219.805C418.768 219.805 420.335 220.101 421.667 220.693C422.999 221.26 424.022 222.087 424.738 223.172C425.478 224.257 425.848 225.54 425.848 227.02C425.848 227.859 425.737 228.685 425.515 229.499C425.293 230.313 424.873 231.176 424.257 232.089C423.64 233.002 422.752 234.025 421.593 235.16L412.195 244.225L411.307 242.782H426.958V246.001H408.347Z" fill="#292C33"/>
<path d="M386.304 303.001V300.485L396.849 290.31C397.786 289.422 398.477 288.645 398.921 287.979C399.39 287.288 399.698 286.659 399.846 286.092C400.019 285.5 400.105 284.933 400.105 284.39C400.105 283.058 399.636 282.01 398.699 281.245C397.762 280.48 396.393 280.098 394.592 280.098C393.211 280.098 391.965 280.332 390.855 280.801C389.745 281.245 388.783 281.948 387.969 282.91L385.453 280.727C386.44 279.469 387.759 278.507 389.412 277.841C391.089 277.15 392.927 276.805 394.925 276.805C396.726 276.805 398.292 277.101 399.624 277.693C400.956 278.26 401.98 279.087 402.695 280.172C403.435 281.257 403.805 282.54 403.805 284.02C403.805 284.859 403.694 285.685 403.472 286.499C403.25 287.313 402.831 288.176 402.214 289.089C401.597 290.002 400.709 291.025 399.55 292.16L390.152 301.225L389.264 299.782H404.915V303.001H386.304ZM416.356 276.805C418.699 276.805 420.673 277.311 422.276 278.322C423.904 279.333 425.137 280.801 425.976 282.725C426.815 284.624 427.234 286.955 427.234 289.718C427.234 292.653 426.716 295.132 425.68 297.155C424.644 299.178 423.213 300.707 421.388 301.743C419.563 302.779 417.429 303.297 414.987 303.297C413.778 303.297 412.607 303.174 411.472 302.927C410.362 302.68 409.388 302.298 408.549 301.78L409.955 298.894C410.646 299.338 411.41 299.659 412.249 299.856C413.112 300.029 414.013 300.115 414.95 300.115C417.565 300.115 419.649 299.301 421.203 297.673C422.757 296.02 423.534 293.578 423.534 290.347C423.534 289.829 423.509 289.212 423.46 288.497C423.411 287.782 423.3 287.079 423.127 286.388L424.348 287.646C424.003 288.781 423.423 289.743 422.609 290.532C421.82 291.297 420.858 291.876 419.723 292.271C418.613 292.641 417.392 292.826 416.06 292.826C414.358 292.826 412.841 292.505 411.509 291.864C410.177 291.223 409.129 290.322 408.364 289.163C407.599 287.979 407.217 286.585 407.217 284.982C407.217 283.305 407.612 281.862 408.401 280.653C409.215 279.42 410.313 278.47 411.694 277.804C413.1 277.138 414.654 276.805 416.356 276.805ZM416.504 279.802C415.394 279.802 414.407 280.012 413.544 280.431C412.681 280.85 412.002 281.43 411.509 282.17C411.04 282.91 410.806 283.798 410.806 284.834C410.806 286.363 411.336 287.584 412.397 288.497C413.458 289.385 414.888 289.829 416.689 289.829C417.873 289.829 418.909 289.607 419.797 289.163C420.71 288.719 421.413 288.115 421.906 287.35C422.424 286.585 422.683 285.734 422.683 284.797C422.683 283.884 422.449 283.058 421.98 282.318C421.511 281.578 420.821 280.974 419.908 280.505C418.995 280.036 417.861 279.802 416.504 279.802Z" fill="#292C33"/>
<path d="M19.4877 132.001V129.485L30.0327 119.31C30.97 118.422 31.6607 117.645 32.1047 116.979C32.5733 116.288 32.8817 115.659 33.0297 115.092C33.2023 114.5 33.2887 113.933 33.2887 113.39C33.2887 112.058 32.82 111.01 31.8827 110.245C30.9453 109.48 29.5763 109.098 27.7757 109.098C26.3943 109.098 25.1487 109.332 24.0387 109.801C22.9287 110.245 21.9667 110.948 21.1527 111.91L18.6367 109.727C19.6233 108.469 20.943 107.507 22.5957 106.841C24.273 106.15 26.1107 105.805 28.1087 105.805C29.9093 105.805 31.4757 106.101 32.8077 106.693C34.1397 107.26 35.1633 108.087 35.8787 109.172C36.6187 110.257 36.9887 111.54 36.9887 113.02C36.9887 113.859 36.8777 114.685 36.6557 115.499C36.4337 116.313 36.0143 117.176 35.3977 118.089C34.781 119.002 33.893 120.025 32.7337 121.16L23.3357 130.225L22.4477 128.782H38.0987V132.001H19.4877Z" fill="#292C33"/>
<path d="M27.4984 162.805C29.8417 162.805 31.815 163.311 33.4184 164.322C35.0464 165.333 36.2797 166.801 37.1184 168.725C37.957 170.624 38.3764 172.955 38.3764 175.718C38.3764 178.653 37.8584 181.132 36.8224 183.155C35.7864 185.178 34.3557 186.707 32.5304 187.743C30.705 188.779 28.5714 189.297 26.1294 189.297C24.9207 189.297 23.749 189.174 22.6144 188.927C21.5044 188.68 20.53 188.298 19.6914 187.78L21.0974 184.894C21.788 185.338 22.5527 185.659 23.3914 185.856C24.2547 186.029 25.155 186.115 26.0924 186.115C28.707 186.115 30.7914 185.301 32.3454 183.673C33.8994 182.02 34.6764 179.578 34.6764 176.347C34.6764 175.829 34.6517 175.212 34.6024 174.497C34.553 173.782 34.442 173.079 34.2694 172.388L35.4904 173.646C35.145 174.781 34.5654 175.743 33.7514 176.532C32.962 177.297 32 177.876 30.8654 178.271C29.7554 178.641 28.5344 178.826 27.2024 178.826C25.5004 178.826 23.9834 178.505 22.6514 177.864C21.3194 177.223 20.271 176.322 19.5064 175.163C18.7417 173.979 18.3594 172.585 18.3594 170.982C18.3594 169.305 18.754 167.862 19.5434 166.653C20.3574 165.42 21.455 164.47 22.8364 163.804C24.2424 163.138 25.7964 162.805 27.4984 162.805ZM27.6464 165.802C26.5364 165.802 25.5497 166.012 24.6864 166.431C23.823 166.85 23.1447 167.43 22.6514 168.17C22.1827 168.91 21.9484 169.798 21.9484 170.834C21.9484 172.363 22.4787 173.584 23.5394 174.497C24.6 175.385 26.0307 175.829 27.8314 175.829C29.0154 175.829 30.0514 175.607 30.9394 175.163C31.852 174.719 32.555 174.115 33.0484 173.35C33.5664 172.585 33.8254 171.734 33.8254 170.797C33.8254 169.884 33.591 169.058 33.1224 168.318C32.6537 167.578 31.963 166.974 31.0504 166.505C30.1377 166.036 29.003 165.802 27.6464 165.802Z" fill="#292C33"/>
<path d="M16.6155 246.001V221.581L18.2065 223.32H10.7695V220.101H20.2785V246.001H16.6155ZM36.8219 246.297C34.5279 246.297 32.5669 245.791 30.9389 244.78C29.3109 243.769 28.0652 242.313 27.2019 240.414C26.3632 238.49 25.9439 236.147 25.9439 233.384C25.9439 230.449 26.4619 227.97 27.4979 225.947C28.5339 223.924 29.9769 222.395 31.8269 221.359C33.6769 220.323 35.7982 219.805 38.1909 219.805C39.4242 219.805 40.5959 219.928 41.7059 220.175C42.8405 220.422 43.8149 220.804 44.6289 221.322L43.2229 224.208C42.5569 223.739 41.7922 223.419 40.9289 223.246C40.0902 223.073 39.2022 222.987 38.2649 222.987C35.6255 222.987 33.5289 223.813 31.9749 225.466C30.4209 227.094 29.6439 229.524 29.6439 232.755C29.6439 233.273 29.6685 233.89 29.7179 234.605C29.7672 235.32 29.8905 236.023 30.0879 236.714L28.8299 235.456C29.1999 234.321 29.7795 233.372 30.5689 232.607C31.3829 231.818 32.3449 231.238 33.4549 230.868C34.5895 230.473 35.8105 230.276 37.1179 230.276C38.8445 230.276 40.3739 230.597 41.7059 231.238C43.0379 231.879 44.0862 232.792 44.8509 233.976C45.6155 235.135 45.9979 236.517 45.9979 238.12C45.9979 239.773 45.5909 241.216 44.7769 242.449C43.9629 243.682 42.8652 244.632 41.4839 245.298C40.1025 245.964 38.5485 246.297 36.8219 246.297ZM36.6739 243.3C37.8085 243.3 38.7952 243.09 39.6339 242.671C40.4972 242.252 41.1755 241.672 41.6689 240.932C42.1622 240.167 42.4089 239.279 42.4089 238.268C42.4089 236.739 41.8785 235.53 40.8179 234.642C39.7572 233.729 38.3142 233.273 36.4889 233.273C35.3049 233.273 34.2689 233.495 33.3809 233.939C32.4929 234.383 31.7899 234.987 31.2719 235.752C30.7785 236.492 30.5319 237.343 30.5319 238.305C30.5319 239.193 30.7662 240.019 31.2349 240.784C31.7035 241.524 32.3942 242.128 33.3069 242.597C34.2195 243.066 35.3419 243.3 36.6739 243.3Z" fill="#292C33"/>
<path d="M8.90178 303.001V300.485L19.4468 290.31C20.3841 289.422 21.0748 288.645 21.5188 287.979C21.9874 287.288 22.2958 286.659 22.4438 286.092C22.6164 285.5 22.7028 284.933 22.7028 284.39C22.7028 283.058 22.2341 282.01 21.2968 281.245C20.3594 280.48 18.9904 280.098 17.1898 280.098C15.8084 280.098 14.5628 280.332 13.4528 280.801C12.3428 281.245 11.3808 281.948 10.5668 282.91L8.05078 280.727C9.03744 279.469 10.3571 278.507 12.0098 277.841C13.6871 277.15 15.5248 276.805 17.5228 276.805C19.3234 276.805 20.8898 277.101 22.2218 277.693C23.5538 278.26 24.5774 279.087 25.2928 280.172C26.0328 281.257 26.4028 282.54 26.4028 284.02C26.4028 284.859 26.2918 285.685 26.0698 286.499C25.8478 287.313 25.4284 288.176 24.8118 289.089C24.1951 290.002 23.3071 291.025 22.1478 292.16L12.7498 301.225L11.8618 299.782H27.5128V303.001H8.90178ZM38.4729 303.297C36.6475 303.297 34.8715 303.013 33.1449 302.446C31.4429 301.879 30.0492 301.114 28.9639 300.152L30.6659 297.229C31.5292 298.043 32.6515 298.709 34.0329 299.227C35.4142 299.745 36.8942 300.004 38.4729 300.004C40.3969 300.004 41.8892 299.597 42.9499 298.783C44.0352 297.944 44.5779 296.822 44.5779 295.416C44.5779 294.059 44.0599 292.974 43.0239 292.16C42.0125 291.321 40.3969 290.902 38.1769 290.902H36.1049V288.312L43.8009 278.84L44.3189 280.32H30.1479V277.101H47.2419V279.617L39.5829 289.052L37.6589 287.905H38.8799C42.0125 287.905 44.3559 288.608 45.9099 290.014C47.4885 291.42 48.2779 293.208 48.2779 295.379C48.2779 296.834 47.9202 298.166 47.2049 299.375C46.4895 300.584 45.4042 301.546 43.9489 302.261C42.5182 302.952 40.6929 303.297 38.4729 303.297Z" fill="#292C33"/>
<path d="M15.5091 360.297C13.6837 360.297 11.9076 360.013 10.181 359.446C8.479 358.879 7.08534 358.114 6 357.152L7.702 354.229C8.56534 355.043 9.68767 355.709 11.0691 356.227C12.4504 356.745 13.9304 357.004 15.5091 357.004C17.4331 357.004 18.9254 356.597 19.9861 355.783C21.0714 354.944 21.614 353.822 21.614 352.416C21.614 351.059 21.0961 349.974 20.0601 349.16C19.0487 348.321 17.4331 347.902 15.2131 347.902H13.141V345.312L20.8371 335.84L21.3551 337.32H7.184V334.101H24.2781V336.617L16.6191 346.052L14.695 344.905H15.916C19.0487 344.905 21.3921 345.608 22.9461 347.014C24.5247 348.42 25.3141 350.208 25.3141 352.379C25.3141 353.834 24.9564 355.166 24.2411 356.375C23.5257 357.584 22.4404 358.546 20.9851 359.261C19.5544 359.952 17.7291 360.297 15.5091 360.297ZM39.3469 360.297C37.3242 360.297 35.5112 359.779 33.9079 358.743C32.3292 357.707 31.0712 356.202 30.1339 354.229C29.2212 352.256 28.7649 349.863 28.7649 347.051C28.7649 344.239 29.2212 341.846 30.1339 339.873C31.0712 337.9 32.3292 336.395 33.9079 335.359C35.5112 334.323 37.3242 333.805 39.3469 333.805C41.3449 333.805 43.1455 334.323 44.7489 335.359C46.3522 336.395 47.6102 337.9 48.5229 339.873C49.4355 341.846 49.8918 344.239 49.8918 347.051C49.8918 349.863 49.4355 352.256 48.5229 354.229C47.6102 356.202 46.3522 357.707 44.7489 358.743C43.1455 359.779 41.3449 360.297 39.3469 360.297ZM39.3469 357.004C40.7035 357.004 41.8874 356.634 42.8988 355.894C43.9348 355.154 44.7365 354.044 45.3039 352.564C45.8959 351.084 46.1919 349.246 46.1919 347.051C46.1919 344.856 45.8959 343.018 45.3039 341.538C44.7365 340.058 43.9348 338.948 42.8988 338.208C41.8874 337.468 40.7035 337.098 39.3469 337.098C37.9902 337.098 36.7939 337.468 35.7579 338.208C34.7219 338.948 33.9078 340.058 33.3158 341.538C32.7484 343.018 32.4649 344.856 32.4649 347.051C32.4649 349.246 32.7484 351.084 33.3158 352.564C33.9078 354.044 34.7219 355.154 35.7579 355.894C36.7939 356.634 37.9902 357.004 39.3469 357.004Z" fill="#292C33"/>
<path d="M91.3332 132.297C89.5079 132.297 87.7319 132.013 86.0052 131.446C84.3032 130.879 82.9096 130.114 81.8242 129.152L83.5262 126.229C84.3896 127.043 85.5119 127.709 86.8932 128.227C88.2746 128.745 89.7546 129.004 91.3332 129.004C93.2572 129.004 94.7496 128.597 95.8102 127.783C96.8956 126.944 97.4382 125.822 97.4382 124.416C97.4382 123.059 96.9202 121.974 95.8842 121.16C94.8729 120.321 93.2572 119.902 91.0372 119.902H88.9652V117.312L96.6612 107.84L97.1792 109.32H83.0082V106.101H100.102V108.617L92.4432 118.052L90.5192 116.905H91.7402C94.8729 116.905 97.2162 117.608 98.7702 119.014C100.348 120.42 101.138 122.208 101.138 124.379C101.138 125.834 100.78 127.166 100.065 128.375C99.3499 129.584 98.2646 130.546 96.8092 131.261C95.3786 131.952 93.5532 132.297 91.3332 132.297Z" fill="#292C33"/>
<path d="M79.1819 189.001V164.581L80.7729 166.32H73.3359V163.101H82.8449V189.001H79.1819ZM99.0922 189.297C97.0696 189.297 95.2566 188.779 93.6532 187.743C92.0746 186.707 90.8166 185.202 89.8792 183.229C88.9666 181.256 88.5102 178.863 88.5102 176.051C88.5102 173.239 88.9666 170.846 89.8792 168.873C90.8166 166.9 92.0746 165.395 93.6532 164.359C95.2566 163.323 97.0696 162.805 99.0922 162.805C101.09 162.805 102.891 163.323 104.494 164.359C106.098 165.395 107.356 166.9 108.268 168.873C109.181 170.846 109.637 173.239 109.637 176.051C109.637 178.863 109.181 181.256 108.268 183.229C107.356 185.202 106.098 186.707 104.494 187.743C102.891 188.779 101.09 189.297 99.0922 189.297ZM99.0922 186.004C100.449 186.004 101.633 185.634 102.644 184.894C103.68 184.154 104.482 183.044 105.049 181.564C105.641 180.084 105.937 178.246 105.937 176.051C105.937 173.856 105.641 172.018 105.049 170.538C104.482 169.058 103.68 167.948 102.644 167.208C101.633 166.468 100.449 166.098 99.0922 166.098C97.7356 166.098 96.5392 166.468 95.5032 167.208C94.4672 167.948 93.6532 169.058 93.0612 170.538C92.4939 172.018 92.2102 173.856 92.2102 176.051C92.2102 178.246 92.4939 180.084 93.0612 181.564C93.6532 183.044 94.4672 184.154 95.5032 184.894C96.5392 185.634 97.7356 186.004 99.0922 186.004Z" fill="#292C33"/>
<path d="M80.4671 246.001V221.581L82.0581 223.32H74.6211V220.101H84.1301V246.001H80.4671ZM94.2725 246.001L105.261 221.655L106.223 223.32H90.8315L92.6815 221.507V227.945H89.1295V220.101H108.665V222.617L98.1945 246.001H94.2725Z" fill="#292C33"/>
<path d="M70.9604 303.001V300.485L81.5054 290.31C82.4427 289.422 83.1334 288.645 83.5774 287.979C84.0461 287.288 84.3544 286.659 84.5024 286.092C84.6751 285.5 84.7614 284.933 84.7614 284.39C84.7614 283.058 84.2927 282.01 83.3554 281.245C82.4181 280.48 81.0491 280.098 79.2484 280.098C77.8671 280.098 76.6214 280.332 75.5114 280.801C74.4014 281.245 73.4394 281.948 72.6254 282.91L70.1094 280.727C71.0961 279.469 72.4157 278.507 74.0684 277.841C75.7457 277.15 77.5834 276.805 79.5814 276.805C81.3821 276.805 82.9484 277.101 84.2804 277.693C85.6124 278.26 86.636 279.087 87.3513 280.172C88.0913 281.257 88.4614 282.54 88.4614 284.02C88.4614 284.859 88.3504 285.685 88.1284 286.499C87.9064 287.313 87.4871 288.176 86.8704 289.089C86.2537 290.002 85.3657 291.025 84.2064 292.16L74.8084 301.225L73.9203 299.782H89.5714V303.001H70.9604ZM91.5208 296.637V294.047L104.767 277.101H108.763L95.6278 294.047L93.7408 293.455H114.424V296.637H91.5208ZM105.914 303.001V296.637L106.025 293.455V287.831H109.503V303.001H105.914Z" fill="#292C33"/>
<path d="M143.195 125.637V123.047L156.441 106.101H160.437L147.302 123.047L145.415 122.455H166.098V125.637H143.195ZM157.588 132.001V125.637L157.699 122.455V116.831H161.177V132.001H157.588Z" fill="#292C33"/>
<path d="M146.612 189.001V164.581L148.203 166.32H140.766V163.101H150.275V189.001H146.612ZM160.307 189.001V164.581L161.898 166.32H154.461V163.101H163.97V189.001H160.307Z" fill="#292C33"/>
<path d="M141.553 246.001V221.581L143.144 223.32H135.707V220.101H145.216V246.001H141.553ZM160.982 246.297C158.885 246.297 157.072 245.989 155.543 245.372C154.014 244.755 152.83 243.88 151.991 242.745C151.152 241.586 150.733 240.229 150.733 238.675C150.733 237.146 151.128 235.851 151.917 234.79C152.731 233.705 153.903 232.891 155.432 232.348C156.961 231.781 158.811 231.497 160.982 231.497C163.153 231.497 165.003 231.781 166.532 232.348C168.086 232.891 169.27 233.705 170.084 234.79C170.898 235.875 171.305 237.17 171.305 238.675C171.305 240.229 170.886 241.586 170.047 242.745C169.208 243.88 168.012 244.755 166.458 245.372C164.904 245.989 163.079 246.297 160.982 246.297ZM160.982 243.3C163.054 243.3 164.67 242.881 165.829 242.042C167.013 241.179 167.605 240.019 167.605 238.564C167.605 237.133 167.013 236.011 165.829 235.197C164.67 234.358 163.054 233.939 160.982 233.939C158.935 233.939 157.331 234.358 156.172 235.197C155.013 236.011 154.433 237.133 154.433 238.564C154.433 240.019 155.013 241.179 156.172 242.042C157.331 242.881 158.935 243.3 160.982 243.3ZM160.982 233.495C159.009 233.495 157.331 233.236 155.95 232.718C154.569 232.175 153.508 231.411 152.768 230.424C152.028 229.413 151.658 228.216 151.658 226.835C151.658 225.38 152.04 224.134 152.805 223.098C153.594 222.037 154.692 221.223 156.098 220.656C157.504 220.089 159.132 219.805 160.982 219.805C162.857 219.805 164.497 220.089 165.903 220.656C167.309 221.223 168.407 222.037 169.196 223.098C169.985 224.134 170.38 225.38 170.38 226.835C170.38 228.216 170.01 229.413 169.27 230.424C168.53 231.411 167.457 232.175 166.051 232.718C164.645 233.236 162.955 233.495 160.982 233.495ZM160.982 231.127C162.783 231.127 164.189 230.757 165.2 230.017C166.236 229.277 166.754 228.266 166.754 226.983C166.754 225.676 166.224 224.652 165.163 223.912C164.102 223.172 162.709 222.802 160.982 222.802C159.255 222.802 157.874 223.172 156.838 223.912C155.827 224.652 155.321 225.676 155.321 226.983C155.321 228.266 155.814 229.277 156.801 230.017C157.812 230.757 159.206 231.127 160.982 231.127Z" fill="#292C33"/>
<path d="M134.287 303.001V300.485L144.832 290.31C145.77 289.422 146.462 288.645 146.906 287.979C147.375 287.288 147.682 286.659 147.83 286.092C148.003 285.5 148.089 284.933 148.089 284.39C148.089 283.058 147.622 282.01 146.684 281.245C145.747 280.48 144.377 280.098 142.576 280.098C141.195 280.098 139.949 280.332 138.839 280.801C137.729 281.245 136.767 281.948 135.953 282.91L133.438 280.727C134.424 279.469 135.743 278.507 137.395 277.841C139.073 277.15 140.911 276.805 142.91 276.805C144.71 276.805 146.276 277.101 147.608 277.693C148.94 278.26 149.964 279.087 150.679 280.172C151.419 281.257 151.789 282.54 151.789 284.02C151.789 284.859 151.677 285.685 151.455 286.499C151.233 287.313 150.816 288.176 150.199 289.089C149.583 290.002 148.694 291.025 147.535 292.16L138.136 301.225L137.248 299.782H152.899V303.001H134.287ZM164.304 303.297C162.478 303.297 160.703 303.013 158.977 302.446C157.275 301.879 155.881 301.114 154.796 300.152L156.496 297.229C157.359 298.043 158.483 298.709 159.865 299.227C161.246 299.745 162.714 300.004 164.268 300.004C166.241 300.004 167.756 299.585 168.817 298.746C169.877 297.907 170.41 296.785 170.41 295.379C170.41 294.417 170.173 293.578 169.705 292.863C169.236 292.148 168.423 291.605 167.264 291.235C166.129 290.84 164.563 290.643 162.565 290.643H156.682L158.05 277.101H172.667V280.32H159.421L161.343 278.507L160.27 289.2L158.348 287.424H163.341C165.931 287.424 168.016 287.757 169.595 288.423C171.173 289.089 172.319 290.014 173.035 291.198C173.75 292.357 174.108 293.702 174.108 295.231C174.108 296.711 173.75 298.068 173.035 299.301C172.319 300.51 171.236 301.484 169.781 302.224C168.35 302.939 166.524 303.297 164.304 303.297Z" fill="#292C33"/>
<path d="M214.583 132.297C212.757 132.297 210.981 132.013 209.255 131.446C207.553 130.879 206.159 130.114 205.074 129.152L206.776 126.229C207.639 127.043 208.761 127.709 210.143 128.227C211.524 128.745 212.992 129.004 214.546 129.004C216.519 129.004 218.036 128.585 219.097 127.746C220.157 126.907 220.688 125.785 220.688 124.379C220.688 123.417 220.453 122.578 219.985 121.863C219.516 121.148 218.702 120.605 217.543 120.235C216.408 119.84 214.842 119.643 212.844 119.643H206.961L208.33 106.101H222.945V109.32H209.699L211.623 107.507L210.55 118.2L208.626 116.424H213.621C216.211 116.424 218.295 116.757 219.874 117.423C221.452 118.089 222.599 119.014 223.315 120.198C224.03 121.357 224.388 122.702 224.388 124.231C224.388 125.711 224.03 127.068 223.315 128.301C222.599 129.51 221.514 130.484 220.059 131.224C218.628 131.939 216.803 132.297 214.583 132.297Z" fill="#292C33"/>
<path d="M203.741 189.001V164.581L205.332 166.32H197.895V163.101H207.404V189.001H203.741ZM212.663 189.001V186.485L223.208 176.31C224.145 175.422 224.836 174.645 225.28 173.979C225.748 173.288 226.057 172.659 226.205 172.092C226.377 171.5 226.464 170.933 226.464 170.39C226.464 169.058 225.995 168.01 225.058 167.245C224.12 166.48 222.751 166.098 220.951 166.098C219.569 166.098 218.324 166.332 217.214 166.801C216.104 167.245 215.142 167.948 214.328 168.91L211.812 166.727C212.798 165.469 214.118 164.507 215.771 163.841C217.448 163.15 219.286 162.805 221.284 162.805C223.084 162.805 224.651 163.101 225.983 163.693C227.315 164.26 228.338 165.087 229.054 166.172C229.794 167.257 230.164 168.54 230.164 170.02C230.164 170.859 230.053 171.685 229.831 172.499C229.609 173.313 229.189 174.176 228.573 175.089C227.956 176.002 227.068 177.025 225.909 178.16L216.511 187.225L215.623 185.782H231.274V189.001H212.663Z" fill="#292C33"/>
<path d="M202.948 246.001V221.581L204.539 223.32H197.102V220.101H206.611V246.001H202.948ZM220.676 219.805C223.019 219.805 224.992 220.311 226.596 221.322C228.224 222.333 229.457 223.801 230.296 225.725C231.134 227.624 231.554 229.955 231.554 232.718C231.554 235.653 231.036 238.132 230 240.155C228.964 242.178 227.533 243.707 225.708 244.743C223.882 245.779 221.749 246.297 219.307 246.297C218.098 246.297 216.926 246.174 215.792 245.927C214.682 245.68 213.707 245.298 212.869 244.78L214.275 241.894C214.965 242.338 215.73 242.659 216.569 242.856C217.432 243.029 218.332 243.115 219.27 243.115C221.884 243.115 223.969 242.301 225.523 240.673C227.077 239.02 227.854 236.578 227.854 233.347C227.854 232.829 227.829 232.212 227.78 231.497C227.73 230.782 227.619 230.079 227.447 229.388L228.668 230.646C228.322 231.781 227.743 232.743 226.929 233.532C226.139 234.297 225.177 234.876 224.043 235.271C222.933 235.641 221.712 235.826 220.38 235.826C218.678 235.826 217.161 235.505 215.829 234.864C214.497 234.223 213.448 233.322 212.684 232.163C211.919 230.979 211.537 229.585 211.537 227.982C211.537 226.305 211.931 224.862 212.721 223.653C213.535 222.42 214.632 221.47 216.014 220.804C217.42 220.138 218.974 219.805 220.676 219.805ZM220.824 222.802C219.714 222.802 218.727 223.012 217.864 223.431C217 223.85 216.322 224.43 215.829 225.17C215.36 225.91 215.126 226.798 215.126 227.834C215.126 229.363 215.656 230.584 216.717 231.497C217.777 232.385 219.208 232.829 221.009 232.829C222.193 232.829 223.229 232.607 224.117 232.163C225.029 231.719 225.732 231.115 226.226 230.35C226.744 229.585 227.003 228.734 227.003 227.797C227.003 226.884 226.768 226.058 226.3 225.318C225.831 224.578 225.14 223.974 224.228 223.505C223.315 223.036 222.18 222.802 220.824 222.802Z" fill="#292C33"/>
<path d="M194.413 303.001V300.485L204.959 290.31C205.897 289.422 206.587 288.645 207.031 287.979C207.5 287.288 207.808 286.659 207.956 286.092C208.129 285.5 208.215 284.933 208.215 284.39C208.215 283.058 207.747 282.01 206.809 281.245C205.872 280.48 204.503 280.098 202.702 280.098C201.321 280.098 200.075 280.332 198.965 280.801C197.855 281.245 196.893 281.948 196.079 282.91L193.562 280.727C194.549 279.469 195.869 278.507 197.521 277.841C199.199 277.15 201.037 276.805 203.035 276.805C204.836 276.805 206.402 277.101 207.734 277.693C209.066 278.26 210.09 279.087 210.805 280.172C211.545 281.257 211.915 282.54 211.915 284.02C211.915 284.859 211.803 285.685 211.581 286.499C211.359 287.313 210.941 288.176 210.324 289.089C209.708 290.002 208.82 291.025 207.66 292.16L198.262 301.225L197.374 299.782H213.025V303.001H194.413ZM226.909 303.297C224.615 303.297 222.653 302.791 221.025 301.78C219.397 300.769 218.152 299.313 217.288 297.414C216.45 295.49 216.031 293.147 216.031 290.384C216.031 287.449 216.549 284.97 217.585 282.947C218.621 280.924 220.063 279.395 221.913 278.359C223.763 277.323 225.886 276.805 228.278 276.805C229.512 276.805 230.683 276.928 231.793 277.175C232.928 277.422 233.901 277.804 234.715 278.322L233.31 281.208C232.644 280.739 231.88 280.419 231.016 280.246C230.178 280.073 229.29 279.987 228.352 279.987C225.713 279.987 223.616 280.813 222.062 282.466C220.508 284.094 219.73 286.524 219.73 289.755C219.73 290.273 219.756 290.89 219.805 291.605C219.855 292.32 219.977 293.023 220.174 293.714L218.917 292.456C219.287 291.321 219.867 290.372 220.656 289.607C221.47 288.818 222.432 288.238 223.542 287.868C224.677 287.473 225.897 287.276 227.204 287.276C228.931 287.276 230.461 287.597 231.793 288.238C233.125 288.879 234.174 289.792 234.938 290.976C235.702 292.135 236.085 293.517 236.085 295.12C236.085 296.773 235.678 298.216 234.864 299.449C234.05 300.682 232.953 301.632 231.571 302.298C230.19 302.964 228.636 303.297 226.909 303.297ZM226.76 300.3C227.895 300.3 228.883 300.09 229.721 299.671C230.585 299.252 231.263 298.672 231.756 297.932C232.25 297.167 232.495 296.279 232.495 295.268C232.495 293.739 231.966 292.53 230.905 291.642C229.845 290.729 228.402 290.273 226.576 290.273C225.392 290.273 224.355 290.495 223.467 290.939C222.579 291.383 221.877 291.987 221.359 292.752C220.866 293.492 220.618 294.343 220.618 295.305C220.618 296.193 220.854 297.019 221.322 297.784C221.791 298.524 222.482 299.128 223.394 299.597C224.307 300.066 225.428 300.3 226.76 300.3Z" fill="#292C33"/>
<path d="M278.761 132.297C276.467 132.297 274.506 131.791 272.878 130.78C271.25 129.769 270.004 128.313 269.141 126.414C268.302 124.49 267.883 122.147 267.883 119.384C267.883 116.449 268.401 113.97 269.437 111.947C270.473 109.924 271.916 108.395 273.766 107.359C275.616 106.323 277.737 105.805 280.13 105.805C281.363 105.805 282.535 105.928 283.645 106.175C284.78 106.422 285.754 106.804 286.568 107.322L285.162 110.208C284.496 109.739 283.731 109.419 282.868 109.246C282.029 109.073 281.141 108.987 280.204 108.987C277.565 108.987 275.468 109.813 273.914 111.466C272.36 113.094 271.583 115.524 271.583 118.755C271.583 119.273 271.608 119.89 271.657 120.605C271.706 121.32 271.83 122.023 272.027 122.714L270.769 121.456C271.139 120.321 271.719 119.372 272.508 118.607C273.322 117.818 274.284 117.238 275.394 116.868C276.529 116.473 277.75 116.276 279.057 116.276C280.784 116.276 282.313 116.597 283.645 117.238C284.977 117.879 286.025 118.792 286.79 119.976C287.555 121.135 287.937 122.517 287.937 124.12C287.937 125.773 287.53 127.216 286.716 128.449C285.902 129.682 284.804 130.632 283.423 131.298C282.042 131.964 280.488 132.297 278.761 132.297ZM278.613 129.3C279.748 129.3 280.734 129.09 281.573 128.671C282.436 128.252 283.115 127.672 283.608 126.932C284.101 126.167 284.348 125.279 284.348 124.268C284.348 122.739 283.818 121.53 282.757 120.642C281.696 119.729 280.253 119.273 278.428 119.273C277.244 119.273 276.208 119.495 275.32 119.939C274.432 120.383 273.729 120.987 273.211 121.752C272.718 122.492 272.471 123.343 272.471 124.305C272.471 125.193 272.705 126.019 273.174 126.784C273.643 127.524 274.333 128.128 275.246 128.597C276.159 129.066 277.281 129.3 278.613 129.3Z" fill="#292C33"/>
<path d="M266.233 189.001V164.581L267.824 166.32H260.387V163.101H269.896V189.001H266.233ZM283.479 189.297C281.654 189.297 279.878 189.013 278.151 188.446C276.449 187.879 275.056 187.114 273.97 186.152L275.672 183.229C276.536 184.043 277.658 184.709 279.039 185.227C280.421 185.745 281.901 186.004 283.479 186.004C285.403 186.004 286.896 185.597 287.956 184.783C289.042 183.944 289.584 182.822 289.584 181.416C289.584 180.059 289.066 178.974 288.03 178.16C287.019 177.321 285.403 176.902 283.183 176.902H281.111V174.312L288.807 164.84L289.325 166.32H275.154V163.101H292.248V165.617L284.589 175.052L282.665 173.905H283.886C287.019 173.905 289.362 174.608 290.916 176.014C292.495 177.42 293.284 179.208 293.284 181.379C293.284 182.834 292.927 184.166 292.211 185.375C291.496 186.584 290.411 187.546 288.955 188.261C287.525 188.952 285.699 189.297 283.479 189.297Z" fill="#292C33"/>
<path d="M255.949 246.001V243.485L266.494 233.31C267.432 232.422 268.122 231.645 268.566 230.979C269.035 230.288 269.343 229.659 269.491 229.092C269.664 228.5 269.75 227.933 269.75 227.39C269.75 226.058 269.282 225.01 268.344 224.245C267.407 223.48 266.038 223.098 264.237 223.098C262.856 223.098 261.61 223.332 260.5 223.801C259.39 224.245 258.428 224.948 257.614 225.91L255.098 223.727C256.085 222.469 257.405 221.507 259.057 220.841C260.735 220.15 262.572 219.805 264.57 219.805C266.371 219.805 267.937 220.101 269.269 220.693C270.601 221.26 271.625 222.087 272.34 223.172C273.08 224.257 273.45 225.54 273.45 227.02C273.45 227.859 273.339 228.685 273.117 229.499C272.895 230.313 272.476 231.176 271.859 232.089C271.243 233.002 270.355 234.025 269.195 235.16L259.797 244.225L258.909 242.782H274.56V246.001H255.949ZM288.148 246.297C286.126 246.297 284.313 245.779 282.709 244.743C281.131 243.707 279.873 242.202 278.935 240.229C278.023 238.256 277.566 235.863 277.566 233.051C277.566 230.239 278.023 227.846 278.935 225.873C279.873 223.9 281.131 222.395 282.709 221.359C284.313 220.323 286.126 219.805 288.148 219.805C290.146 219.805 291.947 220.323 293.55 221.359C295.154 222.395 296.412 223.9 297.324 225.873C298.237 227.846 298.693 230.239 298.693 233.051C298.693 235.863 298.237 238.256 297.324 240.229C296.412 242.202 295.154 243.707 293.55 244.743C291.947 245.779 290.146 246.297 288.148 246.297ZM288.148 243.004C289.505 243.004 290.689 242.634 291.7 241.894C292.736 241.154 293.538 240.044 294.105 238.564C294.697 237.084 294.993 235.246 294.993 233.051C294.993 230.856 294.697 229.018 294.105 227.538C293.538 226.058 292.736 224.948 291.7 224.208C290.689 223.468 289.505 223.098 288.148 223.098C286.792 223.098 285.595 223.468 284.559 224.208C283.523 224.948 282.709 226.058 282.117 227.538C281.55 229.018 281.266 230.856 281.266 233.051C281.266 235.246 281.55 237.084 282.117 238.564C282.709 240.044 283.523 241.154 284.559 241.894C285.595 242.634 286.792 243.004 288.148 243.004Z" fill="#292C33"/>
<path d="M257.23 303.001V300.485L267.775 290.31C268.713 289.422 269.403 288.645 269.847 287.979C270.316 287.288 270.624 286.659 270.772 286.092C270.945 285.5 271.031 284.933 271.031 284.39C271.031 283.058 270.563 282.01 269.625 281.245C268.688 280.48 267.319 280.098 265.518 280.098C264.137 280.098 262.891 280.332 261.781 280.801C260.671 281.245 259.709 281.948 258.895 282.91L256.379 280.727C257.366 279.469 258.686 278.507 260.338 277.841C262.016 277.15 263.853 276.805 265.851 276.805C267.652 276.805 269.218 277.101 270.55 277.693C271.882 278.26 272.906 279.087 273.621 280.172C274.361 281.257 274.731 282.54 274.731 284.02C274.731 284.859 274.62 285.685 274.398 286.499C274.176 287.313 273.757 288.176 273.14 289.089C272.524 290.002 271.636 291.025 270.476 292.16L261.078 301.225L260.19 299.782H275.841V303.001H257.23ZM283.324 303.001L294.313 278.655L295.275 280.32H279.883L281.733 278.507V284.945H278.181V277.101H297.717V279.617L287.246 303.001H283.324Z" fill="#292C33"/>
<path d="M327.928 189.001V164.581L329.519 166.32H322.082V163.101H331.591V189.001H327.928ZM336.886 182.637V180.047L350.132 163.101H354.128L340.993 180.047L339.106 179.455H359.789V182.637H336.886ZM351.279 189.001V182.637L351.39 179.455V173.831H354.868V189.001H351.279Z" fill="#292C33"/>
<path d="M324.906 246.001V243.485L335.451 233.31C336.389 232.422 337.079 231.645 337.523 230.979C337.992 230.288 338.3 229.659 338.448 229.092C338.621 228.5 338.707 227.933 338.707 227.39C338.707 226.058 338.239 225.01 337.301 224.245C336.364 223.48 334.995 223.098 333.194 223.098C331.813 223.098 330.567 223.332 329.457 223.801C328.347 224.245 327.385 224.948 326.571 225.91L324.055 223.727C325.042 222.469 326.362 221.507 328.014 220.841C329.692 220.15 331.529 219.805 333.527 219.805C335.328 219.805 336.894 220.101 338.226 220.693C339.558 221.26 340.582 222.087 341.297 223.172C342.037 224.257 342.407 225.54 342.407 227.02C342.407 227.859 342.296 228.685 342.074 229.499C341.852 230.313 341.433 231.176 340.816 232.089C340.2 233.002 339.312 234.025 338.152 235.16L328.754 244.225L327.866 242.782H343.517V246.001H324.906ZM350.925 246.001V221.581L352.516 223.32H345.079V220.101H354.588V246.001H350.925Z" fill="#292C33"/>
<path d="M319.847 303.001V300.485L330.392 290.31C331.329 289.422 332.02 288.645 332.464 287.979C332.932 287.288 333.241 286.659 333.389 286.092C333.561 285.5 333.648 284.933 333.648 284.39C333.648 283.058 333.179 282.01 332.242 281.245C331.304 280.48 329.935 280.098 328.135 280.098C326.753 280.098 325.508 280.332 324.398 280.801C323.288 281.245 322.326 281.948 321.512 282.91L318.996 280.727C319.982 279.469 321.302 278.507 322.955 277.841C324.632 277.15 326.47 276.805 328.468 276.805C330.268 276.805 331.835 277.101 333.167 277.693C334.499 278.26 335.522 279.087 336.238 280.172C336.978 281.257 337.348 282.54 337.348 284.02C337.348 284.859 337.237 285.685 337.015 286.499C336.793 287.313 336.373 288.176 335.757 289.089C335.14 290.002 334.252 291.025 333.093 292.16L323.695 301.225L322.807 299.782H338.458V303.001H319.847ZM351.601 303.297C349.504 303.297 347.691 302.989 346.162 302.372C344.632 301.755 343.448 300.88 342.61 299.745C341.771 298.586 341.352 297.229 341.352 295.675C341.352 294.146 341.746 292.851 342.536 291.79C343.35 290.705 344.521 289.891 346.051 289.348C347.58 288.781 349.43 288.497 351.601 288.497C353.771 288.497 355.621 288.781 357.151 289.348C358.705 289.891 359.889 290.705 360.703 291.79C361.517 292.875 361.924 294.17 361.924 295.675C361.924 297.229 361.504 298.586 360.666 299.745C359.827 300.88 358.631 301.755 357.077 302.372C355.523 302.989 353.697 303.297 351.601 303.297ZM351.601 300.3C353.673 300.3 355.288 299.881 356.448 299.042C357.632 298.179 358.224 297.019 358.224 295.564C358.224 294.133 357.632 293.011 356.448 292.197C355.288 291.358 353.673 290.939 351.601 290.939C349.553 290.939 347.95 291.358 346.791 292.197C345.631 293.011 345.052 294.133 345.052 295.564C345.052 297.019 345.631 298.179 346.791 299.042C347.95 299.881 349.553 300.3 351.601 300.3ZM351.601 290.495C349.627 290.495 347.95 290.236 346.569 289.718C345.187 289.175 344.127 288.411 343.387 287.424C342.647 286.413 342.277 285.216 342.277 283.835C342.277 282.38 342.659 281.134 343.424 280.098C344.213 279.037 345.311 278.223 346.717 277.656C348.123 277.089 349.751 276.805 351.601 276.805C353.475 276.805 355.116 277.089 356.522 277.656C357.928 278.223 359.025 279.037 359.815 280.098C360.604 281.134 360.999 282.38 360.999 283.835C360.999 285.216 360.629 286.413 359.889 287.424C359.149 288.411 358.076 289.175 356.67 289.718C355.264 290.236 353.574 290.495 351.601 290.495ZM351.601 288.127C353.401 288.127 354.807 287.757 355.819 287.017C356.855 286.277 357.373 285.266 357.373 283.983C357.373 282.676 356.842 281.652 355.782 280.912C354.721 280.172 353.327 279.802 351.601 279.802C349.874 279.802 348.493 280.172 347.457 280.912C346.445 281.652 345.94 282.676 345.94 283.983C345.94 285.266 346.433 286.277 347.42 287.017C348.431 287.757 349.825 288.127 351.601 288.127Z" fill="#292C33"/>
<path d="M336.203 132.001L347.192 107.655L348.154 109.32H332.762L334.612 107.507V113.945H331.059V106.101H350.596V108.617L340.125 132.001H336.203Z" fill="#292C33"/>
<path d="M407.569 78.1354V53.7154L409.16 55.4543H401.723V52.2354H411.232V78.1354H407.569Z" fill="#292C33"/>
</svg>
