<svg width="431" height="303" viewBox="0 0 431 303" fill="none" xmlns="http://www.w3.org/2000/svg">
<g clip-path="url(#clip0_525_2678)">
<rect width="57" height="47" transform="translate(123.518 253)" fill="#3C78EC"/>
<path d="M22.9564 20.7264H20.3476V3.36139H10.8906V20.7264H8.2002V1.32324H22.8749V20.7264H22.9564Z" fill="#B3B3B3"/>
<path d="M38.7725 20.7264H36.1636V14.6119H29.7231V20.7264H27.1143V6.29626H29.7231V12.5738H36.1636V6.29626H38.7725V20.7264Z" fill="#B3B3B3"/>
<path d="M73 20.7264V1.32324H79.359C81.3972 1.32324 82.9462 1.73087 84.0875 2.62766C85.2289 3.52444 85.7996 4.82886 85.7996 6.5409C85.7996 7.35616 85.555 8.08989 85.0658 8.82363C84.5767 9.55736 83.8429 9.96499 83.0277 10.2911C84.3321 10.4541 85.3104 11.0248 86.0441 11.9216C86.7779 12.8184 87.1855 13.9598 87.1855 15.1826C87.1855 16.9762 86.6148 18.2806 85.4735 19.2589C84.3321 20.2373 82.7831 20.6449 80.745 20.6449H73V20.7264ZM75.6904 9.55736H79.9297C80.908 9.55736 81.7233 9.31278 82.294 8.7421C82.9462 8.17142 83.1907 7.43769 83.1907 6.45937C83.1907 5.39954 82.8646 4.6658 82.2124 4.09512C81.5602 3.60597 80.5819 3.27986 79.359 3.27986H75.6904V9.55736ZM75.6904 11.5955V18.6067H80.745C81.9678 18.6067 82.8646 18.2806 83.5168 17.71C84.1691 17.1393 84.4952 16.2425 84.4952 15.1826C84.4952 14.1228 84.1691 13.226 83.5168 12.5738C82.8646 11.9216 81.9678 11.5955 80.745 11.514H80.5819H75.6904V11.5955Z" fill="#B3B3B3"/>
<path d="M101.126 8.33441H96.3978V20.7264H93.7889V8.33441H89.0604V6.29626H101.126V8.33441Z" fill="#B3B3B3"/>
<path d="M150.512 14.5304C150.593 16.4055 149.941 17.9545 148.637 19.1773C147.332 20.4002 145.62 21.0524 143.419 21.0524C141.218 21.0524 139.424 20.2372 138.038 18.6882C136.652 17.1392 136 15.1826 136 12.7368V9.31271C136 6.94846 136.652 4.91031 138.038 3.36132C139.424 1.81233 141.218 0.99707 143.419 0.99707C145.62 0.99707 147.332 1.56775 148.637 2.70911C149.941 3.85048 150.593 5.39947 150.512 7.35609V7.43762H147.984C147.984 6.05168 147.577 4.99184 146.761 4.17658C145.946 3.36132 144.805 2.95369 143.337 2.95369C141.87 2.95369 140.729 3.52437 139.832 4.74726C138.935 5.88862 138.527 7.35609 138.527 9.14966V12.6553C138.527 14.4488 138.935 15.9163 139.832 17.0577C140.729 18.199 141.87 18.8512 143.337 18.8512C144.805 18.8512 145.946 18.4436 146.761 17.7099C147.577 16.8946 147.984 15.8348 147.984 14.4488H150.512V14.5304Z" fill="#B3B3B3"/>
<path d="M165.92 14.0413C165.92 16.161 165.431 17.7915 164.452 19.0959C163.474 20.4003 162.088 20.971 160.295 20.971C159.398 20.971 158.664 20.8079 157.93 20.5634C157.278 20.2373 156.707 19.8296 156.218 19.259V26.2702H153.609V6.29634H155.648L156.055 8.17143C156.544 7.4377 157.115 6.94854 157.849 6.62244C158.583 6.29634 159.398 6.05176 160.295 6.05176C162.088 6.05176 163.474 6.78549 164.452 8.17143C165.431 9.55737 165.92 11.4325 165.92 13.7967V14.0413ZM163.311 13.7967C163.311 12.1662 162.985 10.7803 162.333 9.80195C161.681 8.82364 160.702 8.25296 159.479 8.25296C158.746 8.25296 158.093 8.41601 157.523 8.74211C156.952 9.06822 156.544 9.55737 156.218 10.1281V17.1393C156.544 17.71 156.952 18.1991 157.523 18.5252C158.093 18.8513 158.746 19.0144 159.479 19.0144C160.702 19.0144 161.681 18.5252 162.333 17.6284C162.985 16.7317 163.311 15.5088 163.311 14.1228V13.7967Z" fill="#B3B3B3"/>
<path d="M215.43 1.32324V20.7264H212.821V12.6553C212.006 12.8999 211.191 13.063 210.375 13.226C209.56 13.3076 208.663 13.3891 207.522 13.3891C205.402 13.3891 203.772 12.8999 202.631 12.0031C201.489 11.1064 201 9.55736 201 7.43769V1.32324H203.609V7.43769C203.609 8.90515 203.935 9.88346 204.506 10.4541C205.158 11.0248 206.136 11.2694 207.441 11.2694C208.337 11.2694 209.234 11.1879 210.131 11.1064C210.946 10.9433 211.843 10.7802 212.74 10.5357V1.32324H215.43Z" fill="#B3B3B3"/>
<path d="M230.675 8.33441H225.947V20.7264H223.338V8.33441H218.61V6.29626H230.675V8.33441Z" fill="#B3B3B3"/>
<path d="M279.675 20.7264H277.066V3.36139H267.609V20.7264H265V1.32324H279.675V20.7264Z" fill="#B3B3B3"/>
<path d="M294.92 8.33453H290.192V20.7265H287.583V8.33453H282.854V6.29639H294.92V8.33453Z" fill="#B3B3B3"/>
<path d="M344.512 14.5302C344.593 16.4053 343.941 17.9543 342.637 19.1772C341.332 20.4001 339.62 21.0523 337.419 21.0523C335.218 21.0523 333.424 20.237 332.038 18.688C330.652 17.139 330 15.1824 330 12.7366V9.31253C330 6.94828 330.652 4.91013 332.038 3.36114C333.424 1.81215 335.218 0.996887 337.419 0.996887C339.62 0.996887 341.332 1.56757 342.637 2.70893C343.941 3.85029 344.593 5.39929 344.512 7.35591V7.43743H341.984C341.984 6.05149 341.577 4.99166 340.761 4.1764C339.946 3.36114 338.805 2.95351 337.337 2.95351C335.87 2.95351 334.729 3.52419 333.832 4.74708C332.935 5.88844 332.527 7.35591 332.527 9.14948V12.6551C332.527 14.4487 332.935 15.9161 333.832 17.0575C334.729 18.1989 335.87 18.8511 337.337 18.8511C338.805 18.8511 339.946 18.4434 340.761 17.7097C341.577 16.8944 341.984 15.8346 341.984 14.4487H344.512V14.5302Z" fill="#B3B3B3"/>
<path d="M353.887 6.05149C355.762 6.05149 357.148 6.7037 358.208 8.08964C359.268 9.47558 359.838 11.1876 359.838 13.3888V13.7149C359.838 15.8346 359.268 17.6282 358.126 19.0141C356.985 20.4 355.436 21.0523 353.398 21.0523C351.36 21.0523 349.811 20.4 348.669 19.0141C347.528 17.6282 346.957 15.9161 346.957 13.7149V13.3888C346.957 13.3073 346.957 13.2258 346.957 13.2258C346.957 13.1442 346.957 13.1442 346.957 13.0627V9.96473C346.957 7.19285 347.528 5.23623 348.588 3.93182C349.648 2.6274 351.278 1.97519 353.398 1.81214C354.621 1.73062 355.599 1.56756 356.251 1.32299C356.903 1.07841 357.23 0.670779 357.23 0.100098H359.268V0.181624C359.349 1.56756 358.86 2.54587 357.882 3.11656C356.903 3.68724 355.517 4.01334 353.642 4.01334C352.256 4.01334 351.197 4.42097 350.381 5.1547C349.566 5.88844 349.158 6.94827 349.158 8.33421V8.41574C349.648 7.76353 350.381 7.19285 351.197 6.78522C352.012 6.37759 352.99 6.05149 353.887 6.05149ZM353.398 8.08964C352.175 8.08964 351.197 8.57879 350.544 9.5571C349.892 10.5354 349.566 11.8398 349.566 13.3073V13.6334C349.566 15.1824 349.892 16.4053 350.544 17.3836C351.197 18.3619 352.175 18.8511 353.398 18.8511C354.621 18.8511 355.599 18.3619 356.251 17.3836C356.903 16.4053 357.23 15.1009 357.23 13.6334V13.3073C357.23 11.7583 356.903 10.5354 356.251 9.5571C355.599 8.57879 354.621 8.08964 353.398 8.08964Z" fill="#B3B3B3"/>
<path d="M394 20.7264V1.32324H400.359C402.397 1.32324 403.946 1.73087 405.088 2.62766C406.229 3.52444 406.8 4.82886 406.8 6.5409C406.8 7.35616 406.555 8.08989 406.066 8.82363C405.577 9.55736 404.843 9.96499 404.028 10.3726C405.332 10.5357 406.31 11.1064 407.044 12.0031C407.778 12.8999 408.186 14.0413 408.186 15.2642C408.186 17.0577 407.615 18.3622 406.473 19.3405C405.332 20.3188 403.783 20.7264 401.745 20.7264H394ZM396.69 9.55736H400.93C401.908 9.55736 402.723 9.31278 403.294 8.7421C403.946 8.17142 404.191 7.43769 404.191 6.45937C404.191 5.39954 403.865 4.6658 403.212 4.09512C402.56 3.60597 401.582 3.27986 400.359 3.27986H396.69V9.55736ZM396.69 11.5955V18.6067H401.745C402.968 18.6067 403.865 18.2806 404.517 17.71C405.169 17.1393 405.495 16.2425 405.495 15.1826C405.495 14.1228 405.169 13.226 404.517 12.5738C403.865 11.9216 402.968 11.5955 401.745 11.514H401.582H396.69V11.5955Z" fill="#B3B3B3"/>
<path d="M416.745 18.9326C417.561 18.9326 418.294 18.688 418.865 18.1173C419.436 17.5466 419.762 16.8944 419.762 16.1607H422.126V16.2422C422.126 17.4651 421.637 18.6065 420.496 19.5848C419.354 20.5631 418.131 21.0522 416.664 21.0522C414.626 21.0522 413.077 20.4 411.935 19.0141C410.794 17.6281 410.305 15.9161 410.305 13.878V13.3073C410.305 11.2691 410.876 9.55708 411.935 8.17114C413.077 6.7852 414.626 6.133 416.582 6.133C418.213 6.133 419.517 6.62215 420.496 7.60046C421.474 8.57877 422.045 9.80166 421.963 11.2691V11.3507H419.599C419.599 10.4539 419.273 9.72014 418.702 9.06793C418.131 8.41572 417.398 8.17114 416.501 8.17114C415.196 8.17114 414.3 8.6603 413.647 9.63861C413.077 10.6169 412.751 11.8398 412.751 13.3073V13.878C412.751 15.3454 413.077 16.5683 413.647 17.5466C414.544 18.4434 415.441 18.9326 416.745 18.9326Z" fill="#B3B3B3"/>
<path d="M348.062 62.978C353.242 63.459 355.869 66.382 355.869 70.378C355.869 74.744 352.65 78.296 346.064 78.296C342.364 78.296 338.738 77.112 336.555 75.151L338.257 72.228C339.996 73.856 342.882 75.003 346.064 75.003C349.949 75.003 352.169 73.227 352.169 70.415C352.169 67.677 350.208 65.901 345.768 65.901H343.696V63.311L350.208 55.319H337.739V52.1H354.833V54.616L348.062 62.978Z" fill="#292C33"/>
<path d="M328.067 104.1H337.576V130H333.913V107.319H328.067V104.1ZM353.823 130.296C347.755 130.296 343.241 125.486 343.241 117.05C343.241 108.614 347.755 103.804 353.823 103.804C359.854 103.804 364.368 108.614 364.368 117.05C364.368 125.486 359.854 130.296 353.823 130.296ZM353.823 127.003C357.856 127.003 360.668 123.673 360.668 117.05C360.668 110.427 357.856 107.097 353.823 107.097C349.753 107.097 346.941 110.427 346.941 117.05C346.941 123.673 349.753 127.003 353.823 127.003Z" fill="#292C33"/>
<path d="M329.349 156.35H338.858V182.25H335.195V159.569H329.349V156.35ZM343.858 156.35H363.394V158.866L352.923 182.25H349.001L359.25 159.569H347.41V164.194H343.858V156.35Z" fill="#292C33"/>
<path d="M330.999 230.906H344.282V234.125H325.671V231.609L336.216 221.434C338.954 218.77 339.472 217.142 339.472 215.514C339.472 212.85 337.585 211.222 333.959 211.222C331.184 211.222 328.927 212.11 327.336 214.034L324.82 211.851C326.818 209.372 330.259 207.929 334.292 207.929C339.694 207.929 343.172 210.704 343.172 215.144C343.172 217.66 342.432 219.917 338.917 223.284L330.999 230.906ZM369.171 224.579V227.761H364.25V234.125H360.661V227.761H346.268V225.171L359.514 208.225H363.51L350.819 224.579H360.772V218.955H364.25V224.579H369.171Z" fill="#292C33"/>
<path d="M420.544 68.454V71.636H415.623V78H412.034V71.636H397.641V69.046L410.887 52.1H414.883L402.192 68.454H412.145V62.83H415.623V68.454H420.544Z" fill="#292C33"/>
<path d="M395.212 104.1H404.721V130H401.058V107.319H395.212V104.1ZM408.906 104.1H418.415V130H414.752V107.319H408.906V104.1Z" fill="#292C33"/>
<path d="M390.153 156.35H399.662V182.25H395.999V159.569H390.153V156.35ZM421.164 168.671C424.124 169.818 425.752 171.964 425.752 174.924C425.752 179.623 421.756 182.546 415.429 182.546C409.139 182.546 405.18 179.623 405.18 174.924C405.18 171.964 406.808 169.781 409.731 168.671C407.363 167.561 406.105 165.637 406.105 163.084C406.105 158.755 409.842 156.054 415.429 156.054C421.053 156.054 424.827 158.755 424.827 163.084C424.827 165.637 423.532 167.561 421.164 168.671ZM415.429 159.051C411.951 159.051 409.768 160.642 409.768 163.232C409.768 165.785 411.877 167.376 415.429 167.376C419.018 167.376 421.201 165.785 421.201 163.232C421.201 160.642 418.907 159.051 415.429 159.051ZM415.429 179.549C419.536 179.549 422.052 177.736 422.052 174.813C422.052 171.964 419.536 170.188 415.429 170.188C411.322 170.188 408.88 171.964 408.88 174.813C408.88 177.736 411.322 179.549 415.429 179.549Z" fill="#292C33"/>
<path d="M394.061 230.906H407.344V234.125H388.733V231.609L399.278 221.434C402.016 218.77 402.534 217.142 402.534 215.514C402.534 212.85 400.647 211.222 397.021 211.222C394.246 211.222 391.989 212.11 390.398 214.034L387.882 211.851C389.88 209.372 393.321 207.929 397.354 207.929C402.756 207.929 406.234 210.704 406.234 215.144C406.234 217.66 405.494 219.917 401.979 223.284L394.061 230.906ZM417.786 218.548C425.519 218.548 428.553 221.767 428.553 226.355C428.553 230.832 425.371 234.421 418.748 234.421C415.085 234.421 411.459 233.237 409.239 231.276L410.941 228.353C412.68 229.981 415.566 231.128 418.711 231.128C422.633 231.128 424.853 229.315 424.853 226.503C424.853 223.58 423.003 221.767 417.009 221.767H411.126L412.495 208.225H427.11V211.444H415.603L414.9 218.548H417.786Z" fill="#292C33"/>
<path d="M76.3308 286.781H89.6138V290H71.0028V287.484L81.5478 277.309C84.2858 274.645 84.8038 273.017 84.8038 271.389C84.8038 268.725 82.9168 267.097 79.2908 267.097C76.5158 267.097 74.2588 267.985 72.6678 269.909L70.1518 267.726C72.1498 265.247 75.5908 263.804 79.6238 263.804C85.0258 263.804 88.5038 266.579 88.5038 271.019C88.5038 273.535 87.7638 275.792 84.2488 279.159L76.3308 286.781ZM91.8815 264.1H111.417V266.616L100.946 290H97.0245L107.273 267.319H95.4335V271.944H91.8815V264.1Z" fill="#292C33"/>
<path d="M130.859 290V287.484L141.404 277.309C142.341 276.421 143.032 275.644 143.476 274.978C143.944 274.287 144.253 273.658 144.401 273.091C144.573 272.499 144.66 271.932 144.66 271.389C144.66 270.057 144.191 269.009 143.254 268.244C142.316 267.479 140.947 267.097 139.147 267.097C137.765 267.097 136.52 267.331 135.41 267.8C134.3 268.244 133.338 268.947 132.524 269.909L130.008 267.726C130.994 266.468 132.314 265.506 133.967 264.84C135.644 264.149 137.482 263.804 139.48 263.804C141.28 263.804 142.847 264.1 144.179 264.692C145.511 265.259 146.534 266.086 147.25 267.171C147.99 268.256 148.36 269.539 148.36 271.019C148.36 271.858 148.249 272.684 148.027 273.498C147.805 274.312 147.385 275.175 146.769 276.088C146.152 277.001 145.264 278.024 144.105 279.159L134.707 288.224L133.819 286.781H149.47V290H130.859ZM162.613 290.296C160.516 290.296 158.703 289.988 157.174 289.371C155.644 288.754 154.46 287.879 153.622 286.744C152.783 285.585 152.364 284.228 152.364 282.674C152.364 281.145 152.758 279.85 153.548 278.789C154.362 277.704 155.533 276.89 157.063 276.347C158.592 275.78 160.442 275.496 162.613 275.496C164.783 275.496 166.633 275.78 168.163 276.347C169.717 276.89 170.901 277.704 171.715 278.789C172.529 279.874 172.936 281.169 172.936 282.674C172.936 284.228 172.516 285.585 171.678 286.744C170.839 287.879 169.643 288.754 168.089 289.371C166.535 289.988 164.709 290.296 162.613 290.296ZM162.613 287.299C164.685 287.299 166.3 286.88 167.46 286.041C168.644 285.178 169.236 284.018 169.236 282.563C169.236 281.132 168.644 280.01 167.46 279.196C166.3 278.357 164.685 277.938 162.613 277.938C160.565 277.938 158.962 278.357 157.803 279.196C156.643 280.01 156.064 281.132 156.064 282.563C156.064 284.018 156.643 285.178 157.803 286.041C158.962 286.88 160.565 287.299 162.613 287.299ZM162.613 277.494C160.639 277.494 158.962 277.235 157.581 276.717C156.199 276.174 155.139 275.41 154.399 274.423C153.659 273.412 153.289 272.215 153.289 270.834C153.289 269.379 153.671 268.133 154.436 267.097C155.225 266.036 156.323 265.222 157.729 264.655C159.135 264.088 160.763 263.804 162.613 263.804C164.487 263.804 166.128 264.088 167.534 264.655C168.94 265.222 170.037 266.036 170.827 267.097C171.616 268.133 172.011 269.379 172.011 270.834C172.011 272.215 171.641 273.412 170.901 274.423C170.161 275.41 169.088 276.174 167.682 276.717C166.276 277.235 164.586 277.494 162.613 277.494ZM162.613 275.126C164.413 275.126 165.819 274.756 166.831 274.016C167.867 273.276 168.385 272.265 168.385 270.982C168.385 269.675 167.854 268.651 166.794 267.911C165.733 267.171 164.339 266.801 162.613 266.801C160.886 266.801 159.505 267.171 158.469 267.911C157.457 268.651 156.952 269.675 156.952 270.982C156.952 272.265 157.445 273.276 158.432 274.016C159.443 274.756 160.837 275.126 162.613 275.126Z" fill="white"/>
<path d="M201.97 286.781H215.253V290H196.642V287.484L207.187 277.309C209.925 274.645 210.443 273.017 210.443 271.389C210.443 268.725 208.556 267.097 204.93 267.097C202.155 267.097 199.898 267.985 198.307 269.909L195.791 267.726C197.789 265.247 201.23 263.804 205.263 263.804C210.665 263.804 214.143 266.579 214.143 271.019C214.143 273.535 213.403 275.792 209.888 279.159L201.97 286.781ZM226.694 263.804C233.65 263.804 237.572 268.466 237.572 276.717C237.572 285.56 232.577 290.296 225.325 290.296C222.883 290.296 220.552 289.815 218.887 288.779L220.293 285.893C221.662 286.781 223.401 287.114 225.288 287.114C230.542 287.114 233.872 283.821 233.872 277.346V276.421C232.355 278.678 229.617 279.825 226.398 279.825C221.255 279.825 217.555 276.754 217.555 271.981C217.555 266.986 221.551 263.804 226.694 263.804ZM227.027 276.828C230.579 276.828 233.021 274.645 233.021 271.796C233.021 269.132 230.875 266.801 226.842 266.801C223.475 266.801 221.144 268.762 221.144 271.833C221.144 274.867 223.401 276.828 227.027 276.828Z" fill="#292C33"/>
<path d="M268.284 274.978C273.464 275.459 276.091 278.382 276.091 282.378C276.091 286.744 272.872 290.296 266.286 290.296C262.586 290.296 258.96 289.112 256.777 287.151L258.479 284.228C260.218 285.856 263.104 287.003 266.286 287.003C270.171 287.003 272.391 285.227 272.391 282.415C272.391 279.677 270.43 277.901 265.99 277.901H263.918V275.311L270.43 267.319H257.961V264.1H275.055V266.616L268.284 274.978ZM290.124 290.296C284.056 290.296 279.542 285.486 279.542 277.05C279.542 268.614 284.056 263.804 290.124 263.804C296.155 263.804 300.669 268.614 300.669 277.05C300.669 285.486 296.155 290.296 290.124 290.296ZM290.124 287.003C294.157 287.003 296.969 283.673 296.969 277.05C296.969 270.427 294.157 267.097 290.124 267.097C286.054 267.097 283.242 270.427 283.242 277.05C283.242 283.673 286.054 287.003 290.124 287.003Z" fill="#292C33"/>
<path d="M22.5714 114.423C30.3044 114.423 33.3384 117.642 33.3384 122.23C33.3384 126.707 30.1564 130.296 23.5334 130.296C19.8704 130.296 16.2444 129.112 14.0244 127.151L15.7264 124.228C17.4654 125.856 20.3514 127.003 23.4964 127.003C27.4184 127.003 29.6384 125.19 29.6384 122.378C29.6384 119.455 27.7884 117.642 21.7944 117.642H15.9114L17.2804 104.1H31.8954V107.319H20.3884L19.6854 114.423H22.5714Z" fill="#292C33"/>
<path d="M6.84422 156.35H16.3532V182.25H12.6902V159.569H6.84422V156.35ZM26.9396 179.031H40.2226V182.25H21.6116V179.734L32.1566 169.559C34.8946 166.895 35.4126 165.267 35.4126 163.639C35.4126 160.975 33.5256 159.347 29.8996 159.347C27.1246 159.347 24.8676 160.235 23.2766 162.159L20.7606 159.976C22.7586 157.497 26.1996 156.054 30.2326 156.054C35.6346 156.054 39.1126 158.829 39.1126 163.269C39.1126 165.785 38.3726 168.042 34.8576 171.409L26.9396 179.031Z" fill="#292C33"/>
<path d="M6.0493 208.225H15.5583V234.125H11.8953V211.444H6.0493V208.225ZM29.6226 207.929C36.5786 207.929 40.5006 212.591 40.5006 220.842C40.5006 229.685 35.5056 234.421 28.2536 234.421C25.8116 234.421 23.4806 233.94 21.8156 232.904L23.2216 230.018C24.5906 230.906 26.3296 231.239 28.2166 231.239C33.4706 231.239 36.8006 227.946 36.8006 221.471V220.546C35.2836 222.803 32.5456 223.95 29.3266 223.95C24.1836 223.95 20.4836 220.879 20.4836 216.106C20.4836 211.111 24.4796 207.929 29.6226 207.929ZM29.9556 220.953C33.5076 220.953 35.9496 218.77 35.9496 215.921C35.9496 213.257 33.8036 210.926 29.7706 210.926C26.4036 210.926 24.0726 212.887 24.0726 215.958C24.0726 218.992 26.3296 220.953 29.9556 220.953Z" fill="#292C33"/>
<path d="M3.36448 290V287.484L13.9095 277.309C14.8468 276.421 15.5375 275.644 15.9815 274.978C16.4502 274.287 16.7585 273.658 16.9065 273.091C17.0792 272.499 17.1655 271.932 17.1655 271.389C17.1655 270.057 16.6968 269.009 15.7595 268.244C14.8222 267.479 13.4532 267.097 11.6525 267.097C10.2712 267.097 9.02548 267.331 7.91548 267.8C6.80548 268.244 5.84348 268.947 5.02948 269.909L2.51348 267.726C3.50015 266.468 4.81982 265.506 6.47248 264.84C8.14982 264.149 9.98748 263.804 11.9855 263.804C13.7862 263.804 15.3525 264.1 16.6845 264.692C18.0165 265.259 19.0402 266.086 19.7555 267.171C20.4955 268.256 20.8655 269.539 20.8655 271.019C20.8655 271.858 20.7545 272.684 20.5325 273.498C20.3105 274.312 19.8912 275.175 19.2745 276.088C18.6578 277.001 17.7698 278.024 16.6105 279.159L7.21248 288.224L6.32448 286.781H21.9755V290H3.36448ZM35.8594 290.296C33.5654 290.296 31.6044 289.79 29.9764 288.779C28.3484 287.768 27.1028 286.312 26.2394 284.413C25.4008 282.489 24.9814 280.146 24.9814 277.383C24.9814 274.448 25.4994 271.969 26.5354 269.946C27.5714 267.923 29.0144 266.394 30.8644 265.358C32.7144 264.322 34.8358 263.804 37.2284 263.804C38.4618 263.804 39.6334 263.927 40.7434 264.174C41.8781 264.421 42.8524 264.803 43.6664 265.321L42.2604 268.207C41.5944 267.738 40.8298 267.418 39.9664 267.245C39.1278 267.072 38.2398 266.986 37.3024 266.986C34.6631 266.986 32.5664 267.812 31.0124 269.465C29.4584 271.093 28.6814 273.523 28.6814 276.754C28.6814 277.272 28.7061 277.889 28.7554 278.604C28.8048 279.319 28.9281 280.022 29.1254 280.713L27.8674 279.455C28.2374 278.32 28.8171 277.371 29.6064 276.606C30.4204 275.817 31.3824 275.237 32.4924 274.867C33.6271 274.472 34.8481 274.275 36.1554 274.275C37.8821 274.275 39.4114 274.596 40.7434 275.237C42.0754 275.878 43.1238 276.791 43.8884 277.975C44.6531 279.134 45.0354 280.516 45.0354 282.119C45.0354 283.772 44.6284 285.215 43.8144 286.448C43.0004 287.681 41.9028 288.631 40.5214 289.297C39.1401 289.963 37.5861 290.296 35.8594 290.296ZM35.7114 287.299C36.8461 287.299 37.8328 287.089 38.6714 286.67C39.5348 286.251 40.2131 285.671 40.7064 284.931C41.1998 284.166 41.4464 283.278 41.4464 282.267C41.4464 280.738 40.9161 279.529 39.8554 278.641C38.7948 277.728 37.3518 277.272 35.5264 277.272C34.3424 277.272 33.3064 277.494 32.4184 277.938C31.5304 278.382 30.8274 278.986 30.3094 279.751C29.8161 280.491 29.5694 281.342 29.5694 282.304C29.5694 283.192 29.8038 284.018 30.2724 284.783C30.7411 285.523 31.4318 286.127 32.3444 286.596C33.2571 287.065 34.3794 287.299 35.7114 287.299Z" fill="#292C33"/>
<path d="M92.7913 114.275C97.9343 114.275 101.671 117.346 101.671 122.119C101.671 127.114 97.6383 130.296 92.4953 130.296C85.5393 130.296 81.6173 125.634 81.6173 117.383C81.6173 108.54 86.6123 103.804 93.8643 103.804C96.3063 103.804 98.6373 104.285 100.302 105.321L98.8963 108.207C97.5643 107.319 95.7883 106.986 93.9383 106.986C88.6843 106.986 85.3173 110.279 85.3173 116.754C85.3173 117.05 85.3173 117.346 85.3543 117.679C86.8343 115.459 89.5723 114.275 92.7913 114.275ZM92.3473 127.299C95.7143 127.299 98.0823 125.338 98.0823 122.267C98.0823 119.233 95.7883 117.272 92.1623 117.272C88.6473 117.272 86.2053 119.455 86.2053 122.304C86.2053 124.968 88.3513 127.299 92.3473 127.299Z" fill="#292C33"/>
<path d="M74.1212 156.35H83.6302V182.25H79.9672V159.569H74.1212V156.35ZM99.2115 167.228C104.392 167.709 107.019 170.632 107.019 174.628C107.019 178.994 103.8 182.546 97.2135 182.546C93.5135 182.546 89.8875 181.362 87.7045 179.401L89.4065 176.478C91.1455 178.106 94.0315 179.253 97.2135 179.253C101.099 179.253 103.319 177.477 103.319 174.665C103.319 171.927 101.358 170.151 96.9175 170.151H94.8455V167.561L101.358 159.569H88.8885V156.35H105.983V158.866L99.2115 167.228Z" fill="#292C33"/>
<path d="M75.0481 230.906H88.3311V234.125H69.7201V231.609L80.2651 221.434C83.0031 218.77 83.5211 217.142 83.5211 215.514C83.5211 212.85 81.6341 211.222 78.0081 211.222C75.2331 211.222 72.9761 212.11 71.3851 214.034L68.8691 211.851C70.8671 209.372 74.3081 207.929 78.3411 207.929C83.7431 207.929 87.2211 210.704 87.2211 215.144C87.2211 217.66 86.4811 219.917 82.9661 223.284L75.0481 230.906ZM101.847 234.421C95.7788 234.421 91.2648 229.611 91.2648 221.175C91.2648 212.739 95.7788 207.929 101.847 207.929C107.878 207.929 112.392 212.739 112.392 221.175C112.392 229.611 107.878 234.421 101.847 234.421ZM101.847 231.128C105.88 231.128 108.692 227.798 108.692 221.175C108.692 214.552 105.88 211.222 101.847 211.222C97.7768 211.222 94.9648 214.552 94.9648 221.175C94.9648 227.798 97.7768 231.128 101.847 231.128Z" fill="#292C33"/>
<path d="M142.072 104.1H161.608V106.616L151.137 130H147.215L157.464 107.319H145.624V111.944H142.072V104.1Z" fill="#292C33"/>
<path d="M133.092 156.35H142.601V182.25H138.938V159.569H133.092V156.35ZM170.799 172.704V175.886H165.878V182.25H162.289V175.886H147.896V173.296L161.142 156.35H165.138L152.447 172.704H162.4V167.08H165.878V172.704H170.799Z" fill="#292C33"/>
<path d="M141.245 230.906H154.528V234.125H135.917V231.609L146.462 221.434C149.2 218.77 149.718 217.142 149.718 215.514C149.718 212.85 147.831 211.222 144.205 211.222C141.43 211.222 139.173 212.11 137.582 214.034L135.066 211.851C137.064 209.372 140.505 207.929 144.538 207.929C149.94 207.929 153.418 210.704 153.418 215.144C153.418 217.66 152.678 219.917 149.163 223.284L141.245 230.906ZM156.09 208.225H165.599V234.125H161.936V211.444H156.09V208.225Z" fill="#292C33"/>
<path d="M210.763 52.1H220.272V78H216.609V55.319H210.763V52.1Z" fill="#292C33"/>
<path d="M223.02 116.421C225.98 117.568 227.608 119.714 227.608 122.674C227.608 127.373 223.612 130.296 217.285 130.296C210.995 130.296 207.036 127.373 207.036 122.674C207.036 119.714 208.664 117.531 211.587 116.421C209.219 115.311 207.961 113.387 207.961 110.834C207.961 106.505 211.698 103.804 217.285 103.804C222.909 103.804 226.683 106.505 226.683 110.834C226.683 113.387 225.388 115.311 223.02 116.421ZM217.285 106.801C213.807 106.801 211.624 108.392 211.624 110.982C211.624 113.535 213.733 115.126 217.285 115.126C220.874 115.126 223.057 113.535 223.057 110.982C223.057 108.392 220.763 106.801 217.285 106.801ZM217.285 127.299C221.392 127.299 223.908 125.486 223.908 122.563C223.908 119.714 221.392 117.938 217.285 117.938C213.178 117.938 210.736 119.714 210.736 122.563C210.736 125.486 213.178 127.299 217.285 127.299Z" fill="#292C33"/>
<path d="M200.14 156.35H209.649V182.25H205.986V159.569H200.14V156.35ZM222.714 166.673C230.447 166.673 233.481 169.892 233.481 174.48C233.481 178.957 230.299 182.546 223.676 182.546C220.013 182.546 216.387 181.362 214.167 179.401L215.869 176.478C217.608 178.106 220.494 179.253 223.639 179.253C227.561 179.253 229.781 177.44 229.781 174.628C229.781 171.705 227.931 169.892 221.937 169.892H216.054L217.423 156.35H232.038V159.569H220.531L219.828 166.673H222.714Z" fill="#292C33"/>
<path d="M202.765 230.906H216.048V234.125H197.437V231.609L207.982 221.434C210.72 218.77 211.238 217.142 211.238 215.514C211.238 212.85 209.351 211.222 205.725 211.222C202.95 211.222 200.693 212.11 199.102 214.034L196.586 211.851C198.584 209.372 202.025 207.929 206.058 207.929C211.46 207.929 214.938 210.704 214.938 215.144C214.938 217.66 214.198 219.917 210.683 223.284L202.765 230.906ZM224.011 230.906H237.294V234.125H218.683V231.609L229.228 221.434C231.966 218.77 232.484 217.142 232.484 215.514C232.484 212.85 230.597 211.222 226.971 211.222C224.196 211.222 221.939 212.11 220.348 214.034L217.832 211.851C219.83 209.372 223.271 207.929 227.304 207.929C232.706 207.929 236.184 210.704 236.184 215.144C236.184 217.66 235.444 219.917 231.929 223.284L224.011 230.906Z" fill="#292C33"/>
<path d="M278.276 103.804C285.232 103.804 289.154 108.466 289.154 116.717C289.154 125.56 284.159 130.296 276.907 130.296C274.465 130.296 272.134 129.815 270.469 128.779L271.875 125.893C273.244 126.781 274.983 127.114 276.87 127.114C282.124 127.114 285.454 123.821 285.454 117.346V116.421C283.937 118.678 281.199 119.825 277.98 119.825C272.837 119.825 269.137 116.754 269.137 111.981C269.137 106.986 273.133 103.804 278.276 103.804ZM278.609 116.828C282.161 116.828 284.603 114.645 284.603 111.796C284.603 109.132 282.457 106.801 278.424 106.801C275.057 106.801 272.726 108.762 272.726 111.833C272.726 114.867 274.983 116.828 278.609 116.828Z" fill="#292C33"/>
<path d="M261.549 156.35H271.058V182.25H267.395V159.569H261.549V156.35ZM287.898 166.525C293.041 166.525 296.778 169.596 296.778 174.369C296.778 179.364 292.745 182.546 287.602 182.546C280.646 182.546 276.724 177.884 276.724 169.633C276.724 160.79 281.719 156.054 288.971 156.054C291.413 156.054 293.744 156.535 295.409 157.571L294.003 160.457C292.671 159.569 290.895 159.236 289.045 159.236C283.791 159.236 280.424 162.529 280.424 169.004C280.424 169.3 280.424 169.596 280.461 169.929C281.941 167.709 284.679 166.525 287.898 166.525ZM287.454 179.549C290.821 179.549 293.189 177.588 293.189 174.517C293.189 171.483 290.895 169.522 287.269 169.522C283.754 169.522 281.312 171.705 281.312 174.554C281.312 177.218 283.458 179.549 287.454 179.549Z" fill="#292C33"/>
<path d="M265.006 230.906H278.289V234.125H259.678V231.609L270.223 221.434C272.961 218.77 273.479 217.142 273.479 215.514C273.479 212.85 271.592 211.222 267.966 211.222C265.191 211.222 262.934 212.11 261.343 214.034L258.827 211.851C260.825 209.372 264.266 207.929 268.299 207.929C273.701 207.929 277.179 210.704 277.179 215.144C277.179 217.66 276.439 219.917 272.924 223.284L265.006 230.906ZM291.247 219.103C296.427 219.584 299.054 222.507 299.054 226.503C299.054 230.869 295.835 234.421 289.249 234.421C285.549 234.421 281.923 233.237 279.74 231.276L281.442 228.353C283.181 229.981 286.067 231.128 289.249 231.128C293.134 231.128 295.354 229.352 295.354 226.54C295.354 223.802 293.393 222.026 288.953 222.026H286.881V219.436L293.393 211.444H280.924V208.225H298.018V210.741L291.247 219.103Z" fill="#292C33"/>
<path d="M275.593 74.781H288.876V78H270.265V75.484L280.81 65.309C283.548 62.645 284.066 61.017 284.066 59.389C284.066 56.725 282.179 55.097 278.553 55.097C275.778 55.097 273.521 55.985 271.93 57.909L269.414 55.726C271.412 53.247 274.853 51.804 278.886 51.804C284.288 51.804 287.766 54.579 287.766 59.019C287.766 61.535 287.026 63.792 283.511 67.159L275.593 74.781Z" fill="#292C33"/>
</g>
<defs>
<clipPath id="clip0_525_2678">
<rect width="431" height="303" fill="white"/>
</clipPath>
</defs>
</svg>
