<svg width="439" height="360" viewBox="0 0 439 360" fill="none" xmlns="http://www.w3.org/2000/svg">
<path d="M29.4593 21.2264H26.8505V3.86139H17.3935V21.2264H14.7031V1.82324H29.3778V21.2264H29.4593Z" fill="#B3B3B3"/>
<path d="M45.2754 21.2261H42.6665V15.1116H36.226V21.2261H33.6172V6.7959H36.226V13.0735H42.6665V6.7959H45.2754V21.2261Z" fill="#B3B3B3"/>
<path d="M79.5 21.2264V1.82324H85.859C87.8972 1.82324 89.4462 2.23087 90.5875 3.12766C91.7289 4.02444 92.2996 5.32886 92.2996 7.0409C92.2996 7.85616 92.055 8.58989 91.5658 9.32363C91.0767 10.0574 90.3429 10.465 89.5277 10.7911C90.8321 10.9541 91.8104 11.5248 92.5441 12.4216C93.2779 13.3184 93.6855 14.4598 93.6855 15.6826C93.6855 17.4762 93.1148 18.7806 91.9735 19.7589C90.8321 20.7373 89.2831 21.1449 87.245 21.1449H79.5V21.2264ZM82.1904 10.0574H86.4297C87.408 10.0574 88.2233 9.81278 88.794 9.2421C89.4462 8.67142 89.6907 7.93769 89.6907 6.95937C89.6907 5.89954 89.3646 5.1658 88.7124 4.59512C88.0602 4.10597 87.0819 3.77986 85.859 3.77986H82.1904V10.0574ZM82.1904 12.0955V19.1067H87.245C88.4678 19.1067 89.3646 18.7806 90.0168 18.21C90.6691 17.6393 90.9952 16.7425 90.9952 15.6826C90.9952 14.6228 90.6691 13.726 90.0168 13.0738C89.3646 12.4216 88.4678 12.0955 87.245 12.014H87.0819H82.1904V12.0955Z" fill="#B3B3B3"/>
<path d="M107.628 8.83405H102.9V21.2261H100.291V8.83405H95.5625V6.7959H107.628V8.83405Z" fill="#B3B3B3"/>
<path d="M157.012 15.0304C157.093 16.9055 156.441 18.4545 155.137 19.6773C153.832 20.9002 152.12 21.5524 149.919 21.5524C147.718 21.5524 145.924 20.7372 144.538 19.1882C143.152 17.6392 142.5 15.6826 142.5 13.2368V9.81271C142.5 7.44846 143.152 5.41031 144.538 3.86132C145.924 2.31233 147.718 1.49707 149.919 1.49707C152.12 1.49707 153.832 2.06775 155.137 3.20911C156.441 4.35048 157.093 5.89947 157.012 7.85609V7.93762H154.484C154.484 6.55168 154.077 5.49184 153.261 4.67658C152.446 3.86132 151.305 3.45369 149.837 3.45369C148.37 3.45369 147.229 4.02437 146.332 5.24726C145.435 6.38862 145.027 7.85609 145.027 9.64966V13.1553C145.027 14.9488 145.435 16.4163 146.332 17.5577C147.229 18.699 148.37 19.3512 149.837 19.3512C151.305 19.3512 152.446 18.9436 153.261 18.2099C154.077 17.3946 154.484 16.3348 154.484 14.9488H157.012V15.0304Z" fill="#B3B3B3"/>
<path d="M172.42 14.5413C172.42 16.661 171.931 18.2915 170.952 19.5959C169.974 20.9003 168.588 21.471 166.795 21.471C165.898 21.471 165.164 21.3079 164.43 21.0634C163.778 20.7373 163.207 20.3296 162.718 19.759V26.7702H160.109V6.79634H162.148L162.555 8.67143C163.044 7.9377 163.615 7.44854 164.349 7.12244C165.083 6.79634 165.898 6.55176 166.795 6.55176C168.588 6.55176 169.974 7.28549 170.952 8.67143C171.931 10.0574 172.42 11.9325 172.42 14.2967V14.5413ZM169.811 14.2967C169.811 12.6662 169.485 11.2803 168.833 10.3019C168.181 9.32364 167.202 8.75296 165.979 8.75296C165.246 8.75296 164.593 8.91601 164.023 9.24211C163.452 9.56822 163.044 10.0574 162.718 10.6281V17.6393C163.044 18.21 163.452 18.6991 164.023 19.0252C164.593 19.3513 165.246 19.5144 165.979 19.5144C167.202 19.5144 168.181 19.0252 168.833 18.1284C169.485 17.2317 169.811 16.0088 169.811 14.6228V14.2967Z" fill="#B3B3B3"/>
<path d="M221.93 1.82324V21.2264H219.321V13.1553C218.506 13.3999 217.691 13.563 216.875 13.726C216.06 13.8076 215.163 13.8891 214.022 13.8891C211.902 13.8891 210.272 13.3999 209.131 12.5031C207.989 11.6064 207.5 10.0574 207.5 7.93769V1.82324H210.109V7.93769C210.109 9.40515 210.435 10.3835 211.006 10.9541C211.658 11.5248 212.636 11.7694 213.941 11.7694C214.837 11.7694 215.734 11.6879 216.631 11.6064C217.446 11.4433 218.343 11.2802 219.24 11.0357V1.82324H221.93Z" fill="#B3B3B3"/>
<path d="M237.174 8.83405H232.446V21.2261H229.837V8.83405H225.109V6.7959H237.174V8.83405Z" fill="#B3B3B3"/>
<path d="M286.175 21.2264H283.566V3.86139H274.109V21.2264H271.5V1.82324H286.175V21.2264Z" fill="#B3B3B3"/>
<path d="M301.418 8.83453H296.689V21.2265H294.081V8.83453H289.352V6.79639H301.418V8.83453Z" fill="#B3B3B3"/>
<path d="M351.012 15.0303C351.093 16.9054 350.441 18.4544 349.137 19.6773C347.832 20.9002 346.12 21.5524 343.919 21.5524C341.718 21.5524 339.924 20.7371 338.538 19.1881C337.152 17.6391 336.5 15.6825 336.5 13.2367V9.81271C336.5 7.44846 337.152 5.41031 338.538 3.86132C339.924 2.31233 341.718 1.49707 343.919 1.49707C346.12 1.49707 347.832 2.06775 349.137 3.20911C350.441 4.35047 351.093 5.89947 351.012 7.85609V7.93761H348.484C348.484 6.55167 348.077 5.49184 347.261 4.67658C346.446 3.86132 345.305 3.45369 343.837 3.45369C342.37 3.45369 341.229 4.02437 340.332 5.24726C339.435 6.38862 339.027 7.85609 339.027 9.64966V13.1552C339.027 14.9488 339.435 16.4162 340.332 17.5576C341.229 18.699 342.37 19.3512 343.837 19.3512C345.305 19.3512 346.446 18.9435 347.261 18.2098C348.077 17.3945 348.484 16.3347 348.484 14.9488H351.012V15.0303Z" fill="#B3B3B3"/>
<path d="M360.387 6.55149C362.262 6.55149 363.648 7.2037 364.708 8.58964C365.768 9.97558 366.338 11.6876 366.338 13.8888V14.2149C366.338 16.3346 365.768 18.1282 364.626 19.5141C363.485 20.9 361.936 21.5523 359.898 21.5523C357.86 21.5523 356.311 20.9 355.169 19.5141C354.028 18.1282 353.457 16.4161 353.457 14.2149V13.8888C353.457 13.8073 353.457 13.7258 353.457 13.7258C353.457 13.6442 353.457 13.6442 353.457 13.5627V10.4647C353.457 7.69285 354.028 5.73623 355.088 4.43182C356.148 3.1274 357.778 2.47519 359.898 2.31214C361.121 2.23062 362.099 2.06756 362.751 1.82299C363.403 1.57841 363.73 1.17078 363.73 0.600098H365.768V0.681624C365.849 2.06756 365.36 3.04587 364.382 3.61656C363.403 4.18724 362.017 4.51334 360.142 4.51334C358.756 4.51334 357.697 4.92097 356.881 5.6547C356.066 6.38844 355.658 7.44827 355.658 8.83421V8.91574C356.148 8.26353 356.881 7.69285 357.697 7.28522C358.512 6.87759 359.49 6.55149 360.387 6.55149ZM359.898 8.58964C358.675 8.58964 357.697 9.07879 357.044 10.0571C356.392 11.0354 356.066 12.3398 356.066 13.8073V14.1334C356.066 15.6824 356.392 16.9053 357.044 17.8836C357.697 18.8619 358.675 19.3511 359.898 19.3511C361.121 19.3511 362.099 18.8619 362.751 17.8836C363.403 16.9053 363.73 15.6009 363.73 14.1334V13.8073C363.73 12.2583 363.403 11.0354 362.751 10.0571C362.099 9.07879 361.121 8.58964 359.898 8.58964Z" fill="#B3B3B3"/>
<path d="M400.5 21.2264V1.82324H406.859C408.897 1.82324 410.446 2.23087 411.588 3.12766C412.729 4.02444 413.3 5.32886 413.3 7.0409C413.3 7.85616 413.055 8.58989 412.566 9.32363C412.077 10.0574 411.343 10.465 410.528 10.8726C411.832 11.0357 412.81 11.6064 413.544 12.5031C414.278 13.3999 414.686 14.5413 414.686 15.7642C414.686 17.5577 414.115 18.8622 412.973 19.8405C411.832 20.8188 410.283 21.2264 408.245 21.2264H400.5ZM403.19 10.0574H407.43C408.408 10.0574 409.223 9.81278 409.794 9.2421C410.446 8.67142 410.691 7.93769 410.691 6.95937C410.691 5.89954 410.365 5.1658 409.712 4.59512C409.06 4.10597 408.082 3.77986 406.859 3.77986H403.19V10.0574ZM403.19 12.0955V19.1067H408.245C409.468 19.1067 410.365 18.7806 411.017 18.21C411.669 17.6393 411.995 16.7425 411.995 15.6826C411.995 14.6228 411.669 13.726 411.017 13.0738C410.365 12.4216 409.468 12.0955 408.245 12.014H408.082H403.19V12.0955Z" fill="#B3B3B3"/>
<path d="M423.245 19.4329C424.061 19.4329 424.794 19.1883 425.365 18.6176C425.936 18.0469 426.262 17.3947 426.262 16.661H428.626V16.7425C428.626 17.9654 428.137 19.1068 426.996 20.0851C425.854 21.0634 424.631 21.5525 423.164 21.5525C421.126 21.5525 419.577 20.9003 418.435 19.5144C417.294 18.1284 416.805 16.4164 416.805 14.3783V13.8076C416.805 11.7694 417.376 10.0573 418.435 8.67144C419.577 7.2855 421.126 6.6333 423.082 6.6333C424.713 6.6333 426.017 7.12245 426.996 8.10076C427.974 9.07907 428.545 10.3019 428.463 11.7694V11.851H426.099C426.099 10.9542 425.773 10.2204 425.202 9.56823C424.631 8.91602 423.898 8.67144 423.001 8.67144C421.696 8.67144 420.8 9.1606 420.147 10.1389C419.577 11.1172 419.251 12.3401 419.251 13.8076V14.3783C419.251 15.8457 419.577 17.0686 420.147 18.0469C421.044 18.9437 421.941 19.4329 423.245 19.4329Z" fill="#B3B3B3"/>
<path d="M224.312 63.5406C229.492 64.0216 232.119 66.9446 232.119 70.9406C232.119 75.3066 228.9 78.8586 222.314 78.8586C218.614 78.8586 214.988 77.6746 212.805 75.7136L214.507 72.7906C216.246 74.4186 219.132 75.5656 222.314 75.5656C226.199 75.5656 228.419 73.7896 228.419 70.9776C228.419 68.2396 226.458 66.4636 222.018 66.4636H219.946V63.8736L226.458 55.8816H213.989V52.6626H231.083V55.1786L224.312 63.5406Z" fill="#292C33"/>
<path d="M203.629 104.975H213.138V130.875H209.475V108.194H203.629V104.975ZM229.385 131.171C223.317 131.171 218.803 126.361 218.803 117.925C218.803 109.489 223.317 104.679 229.385 104.679C235.416 104.679 239.93 109.489 239.93 117.925C239.93 126.361 235.416 131.171 229.385 131.171ZM229.385 127.878C233.418 127.878 236.23 124.548 236.23 117.925C236.23 111.302 233.418 107.972 229.385 107.972C225.315 107.972 222.503 111.302 222.503 117.925C222.503 124.548 225.315 127.878 229.385 127.878Z" fill="#292C33"/>
<path d="M204.914 163.975H214.423V189.875H210.76V167.194H204.914V163.975ZM219.422 163.975H238.958V166.491L228.487 189.875H224.565L234.814 167.194H222.974V171.819H219.422V163.975Z" fill="#292C33"/>
<path d="M206.562 245.656H219.845V248.875H201.234V246.359L211.779 236.184C214.517 233.52 215.035 231.892 215.035 230.264C215.035 227.6 213.148 225.972 209.522 225.972C206.747 225.972 204.49 226.86 202.899 228.784L200.383 226.601C202.381 224.122 205.822 222.679 209.855 222.679C215.257 222.679 218.735 225.454 218.735 229.894C218.735 232.41 217.995 234.667 214.48 238.034L206.562 245.656ZM244.734 239.329V242.511H239.813V248.875H236.224V242.511H221.831V239.921L235.077 222.975H239.073L226.382 239.329H236.335V233.705H239.813V239.329H244.734Z" fill="#292C33"/>
<path d="M298.294 69.0166V72.1986H293.373V78.5626H289.784V72.1986H275.391V69.6086L288.637 52.6626H292.633L279.942 69.0166H289.895V63.3926H293.373V69.0166H298.294Z" fill="#292C33"/>
<path d="M272.621 104.975H282.13V130.875H278.467V108.194H272.621V104.975ZM286.316 104.975H295.825V130.875H292.162V108.194H286.316V104.975Z" fill="#292C33"/>
<path d="M267.562 163.975H277.072V189.875H273.408V167.194H267.562V163.975ZM298.572 176.296C301.532 177.443 303.16 179.589 303.16 182.549C303.16 187.248 299.164 190.171 292.837 190.171C286.547 190.171 282.589 187.248 282.589 182.549C282.589 179.589 284.216 177.406 287.139 176.296C284.771 175.186 283.513 173.262 283.513 170.709C283.513 166.38 287.25 163.679 292.837 163.679C298.461 163.679 302.235 166.38 302.235 170.709C302.235 173.262 300.94 175.186 298.572 176.296ZM292.837 166.676C289.359 166.676 287.176 168.267 287.176 170.857C287.176 173.41 289.285 175.001 292.837 175.001C296.426 175.001 298.609 173.41 298.609 170.857C298.609 168.267 296.315 166.676 292.837 166.676ZM292.837 187.174C296.944 187.174 299.46 185.361 299.46 182.438C299.46 179.589 296.944 177.813 292.837 177.813C288.73 177.813 286.288 179.589 286.288 182.438C286.288 185.361 288.73 187.174 292.837 187.174Z" fill="#292C33"/>
<path d="M271.468 245.656H284.751V248.875H266.14V246.359L276.685 236.184C279.423 233.52 279.941 231.892 279.941 230.264C279.941 227.6 278.054 225.972 274.428 225.972C271.653 225.972 269.396 226.86 267.805 228.784L265.289 226.601C267.287 224.122 270.728 222.679 274.761 222.679C280.163 222.679 283.641 225.454 283.641 229.894C283.641 232.41 282.901 234.667 279.386 238.034L271.468 245.656ZM295.194 233.298C302.927 233.298 305.961 236.517 305.961 241.105C305.961 245.582 302.779 249.171 296.156 249.171C292.493 249.171 288.867 247.987 286.647 246.026L288.349 243.103C290.088 244.731 292.974 245.878 296.119 245.878C300.041 245.878 302.261 244.065 302.261 241.253C302.261 238.33 300.411 236.517 294.417 236.517H288.534L289.903 222.975H304.518V226.194H293.011L292.308 233.298H295.194Z" fill="#292C33"/>
<path d="M398.593 245.656H411.876V248.875H393.265V246.359L403.81 236.184C406.548 233.52 407.066 231.892 407.066 230.264C407.066 227.6 405.179 225.972 401.553 225.972C398.778 225.972 396.521 226.86 394.93 228.784L392.414 226.601C394.412 224.122 397.853 222.679 401.886 222.679C407.288 222.679 410.766 225.454 410.766 229.894C410.766 232.41 410.026 234.667 406.511 238.034L398.593 245.656ZM414.144 222.975H433.68V225.491L423.209 248.875H419.287L429.536 226.194H417.696V230.819H414.144V222.975Z" fill="#292C33"/>
<path d="M7.35881 307.875V305.359L17.9037 295.184C18.8411 294.296 19.5317 293.519 19.9757 292.853C20.4444 292.162 20.7527 291.533 20.9007 290.966C21.0734 290.374 21.1597 289.807 21.1597 289.264C21.1597 287.932 20.6911 286.884 19.7537 286.119C18.8164 285.354 17.4474 284.972 15.6468 284.972C14.2655 284.972 13.0198 285.206 11.9098 285.675C10.7998 286.119 9.83781 286.822 9.02381 287.784L6.50781 285.601C7.49447 284.343 8.81415 283.381 10.4668 282.715C12.1442 282.024 13.9818 281.679 15.9798 281.679C17.7804 281.679 19.3467 281.975 20.6787 282.567C22.0107 283.134 23.0344 283.961 23.7497 285.046C24.4897 286.131 24.8597 287.414 24.8597 288.894C24.8597 289.733 24.7487 290.559 24.5267 291.373C24.3047 292.187 23.8854 293.05 23.2687 293.963C22.6521 294.876 21.7641 295.899 20.6047 297.034L11.2068 306.099L10.3188 304.656H25.9697V307.875H7.35881ZM39.1128 308.171C37.0162 308.171 35.2032 307.863 33.6738 307.246C32.1445 306.629 30.9605 305.754 30.1218 304.619C29.2832 303.46 28.8638 302.103 28.8638 300.549C28.8638 299.02 29.2585 297.725 30.0478 296.664C30.8618 295.579 32.0335 294.765 33.5628 294.222C35.0922 293.655 36.9422 293.371 39.1128 293.371C41.2835 293.371 43.1335 293.655 44.6628 294.222C46.2168 294.765 47.4008 295.579 48.2148 296.664C49.0288 297.749 49.4358 299.044 49.4358 300.549C49.4358 302.103 49.0165 303.46 48.1778 304.619C47.3392 305.754 46.1428 306.629 44.5888 307.246C43.0348 307.863 41.2095 308.171 39.1128 308.171ZM39.1128 305.174C41.1848 305.174 42.8005 304.755 43.9598 303.916C45.1438 303.053 45.7358 301.893 45.7358 300.438C45.7358 299.007 45.1438 297.885 43.9598 297.071C42.8005 296.232 41.1848 295.813 39.1128 295.813C37.0655 295.813 35.4622 296.232 34.3028 297.071C33.1435 297.885 32.5638 299.007 32.5638 300.438C32.5638 301.893 33.1435 303.053 34.3028 303.916C35.4622 304.755 37.0655 305.174 39.1128 305.174ZM39.1128 295.369C37.1395 295.369 35.4622 295.11 34.0808 294.592C32.6995 294.049 31.6388 293.285 30.8988 292.298C30.1588 291.287 29.7888 290.09 29.7888 288.709C29.7888 287.254 30.1712 286.008 30.9358 284.972C31.7252 283.911 32.8228 283.097 34.2288 282.53C35.6348 281.963 37.2628 281.679 39.1128 281.679C40.9875 281.679 42.6278 281.963 44.0338 282.53C45.4398 283.097 46.5375 283.911 47.3268 284.972C48.1162 286.008 48.5108 287.254 48.5108 288.709C48.5108 290.09 48.1408 291.287 47.4008 292.298C46.6608 293.285 45.5878 294.049 44.1818 294.592C42.7758 295.11 41.0862 295.369 39.1128 295.369ZM39.1128 293.001C40.9135 293.001 42.3195 292.631 43.3308 291.891C44.3668 291.151 44.8848 290.14 44.8848 288.857C44.8848 287.55 44.3545 286.526 43.2938 285.786C42.2332 285.046 40.8395 284.676 39.1128 284.676C37.3862 284.676 36.0048 285.046 34.9688 285.786C33.9575 286.526 33.4518 287.55 33.4518 288.857C33.4518 290.14 33.9452 291.151 34.9318 291.891C35.9432 292.631 37.3368 293.001 39.1128 293.001Z" fill="#292C33"/>
<path d="M77.6751 304.656H90.9581V307.875H72.3471V305.359L82.8921 295.184C85.6301 292.52 86.1481 290.892 86.1481 289.264C86.1481 286.6 84.2611 284.972 80.6351 284.972C77.8601 284.972 75.6031 285.86 74.0121 287.784L71.4961 285.601C73.4941 283.122 76.9351 281.679 80.9681 281.679C86.3701 281.679 89.8481 284.454 89.8481 288.894C89.8481 291.41 89.1081 293.667 85.5931 297.034L77.6751 304.656ZM102.399 281.679C109.356 281.679 113.278 286.341 113.278 294.592C113.278 303.435 108.283 308.171 101.03 308.171C98.5882 308.171 96.2572 307.69 94.5922 306.654L95.9982 303.768C97.3672 304.656 99.1062 304.989 100.993 304.989C106.247 304.989 109.578 301.696 109.578 295.221V294.296C108.061 296.553 105.322 297.7 102.103 297.7C96.9602 297.7 93.2602 294.629 93.2602 289.856C93.2602 284.861 97.2562 281.679 102.399 281.679ZM102.732 294.703C106.284 294.703 108.727 292.52 108.727 289.671C108.727 287.007 106.581 284.676 102.547 284.676C99.1802 284.676 96.8492 286.637 96.8492 289.708C96.8492 292.742 99.1062 294.703 102.732 294.703Z" fill="#292C33"/>
<path d="M144.286 308.171C142.461 308.171 140.685 307.887 138.958 307.32C137.256 306.753 135.862 305.988 134.777 305.026L136.479 302.103C137.342 302.917 138.465 303.583 139.846 304.101C141.227 304.619 142.707 304.878 144.286 304.878C146.21 304.878 147.702 304.471 148.763 303.657C149.848 302.818 150.391 301.696 150.391 300.29C150.391 298.933 149.873 297.848 148.837 297.034C147.826 296.195 146.21 295.776 143.99 295.776H141.918V293.186L149.614 283.714L150.132 285.194H135.961V281.975H153.055V284.491L145.396 293.926L143.472 292.779H144.693C147.826 292.779 150.169 293.482 151.723 294.888C153.302 296.294 154.091 298.082 154.091 300.253C154.091 301.708 153.733 303.04 153.018 304.249C152.303 305.458 151.217 306.42 149.762 307.135C148.331 307.826 146.506 308.171 144.286 308.171ZM168.124 308.171C166.101 308.171 164.288 307.653 162.685 306.617C161.106 305.581 159.848 304.076 158.911 302.103C157.998 300.13 157.542 297.737 157.542 294.925C157.542 292.113 157.998 289.72 158.911 287.747C159.848 285.774 161.106 284.269 162.685 283.233C164.288 282.197 166.101 281.679 168.124 281.679C170.122 281.679 171.923 282.197 173.526 283.233C175.129 284.269 176.387 285.774 177.3 287.747C178.213 289.72 178.669 292.113 178.669 294.925C178.669 297.737 178.213 300.13 177.3 302.103C176.387 304.076 175.129 305.581 173.526 306.617C171.923 307.653 170.122 308.171 168.124 308.171ZM168.124 304.878C169.481 304.878 170.665 304.508 171.676 303.768C172.712 303.028 173.514 301.918 174.081 300.438C174.673 298.958 174.969 297.12 174.969 294.925C174.969 292.73 174.673 290.892 174.081 289.412C173.514 287.932 172.712 286.822 171.676 286.082C170.665 285.342 169.481 284.972 168.124 284.972C166.767 284.972 165.571 285.342 164.535 286.082C163.499 286.822 162.685 287.932 162.093 289.412C161.526 290.892 161.242 292.73 161.242 294.925C161.242 297.12 161.526 298.958 162.093 300.438C162.685 301.918 163.499 303.028 164.535 303.768C165.571 304.508 166.767 304.878 168.124 304.878Z" fill="#292C33"/>
<path d="M350.813 62.9856C358.546 62.9856 361.58 66.2046 361.58 70.7926C361.58 75.2696 358.398 78.8586 351.775 78.8586C348.112 78.8586 344.486 77.6746 342.266 75.7136L343.968 72.7906C345.707 74.4186 348.593 75.5656 351.738 75.5656C355.66 75.5656 357.88 73.7526 357.88 70.9406C357.88 68.0176 356.03 66.2046 350.036 66.2046H344.153L345.522 52.6626H360.137V55.8816H348.63L347.927 62.9856H350.813Z" fill="#292C33"/>
<path d="M331.844 104.975H341.353V130.875H337.69V108.194H331.844V104.975ZM351.94 127.656H365.223V130.875H346.612V128.359L357.157 118.184C359.895 115.52 360.413 113.892 360.413 112.264C360.413 109.6 358.526 107.972 354.9 107.972C352.125 107.972 349.868 108.86 348.277 110.784L345.761 108.601C347.759 106.122 351.2 104.679 355.233 104.679C360.635 104.679 364.113 107.454 364.113 111.894C364.113 114.41 363.373 116.667 359.858 120.034L351.94 127.656Z" fill="#292C33"/>
<path d="M331.047 163.975H340.556V189.875H336.893V167.194H331.047V163.975ZM354.621 163.679C361.577 163.679 365.499 168.341 365.499 176.592C365.499 185.435 360.504 190.171 353.252 190.171C350.81 190.171 348.479 189.69 346.814 188.654L348.22 185.768C349.589 186.656 351.328 186.989 353.215 186.989C358.469 186.989 361.799 183.696 361.799 177.221V176.296C360.282 178.553 357.544 179.7 354.325 179.7C349.182 179.7 345.482 176.629 345.482 171.856C345.482 166.861 349.478 163.679 354.621 163.679ZM354.954 176.703C358.506 176.703 360.948 174.52 360.948 171.671C360.948 169.007 358.802 166.676 354.769 166.676C351.402 166.676 349.071 168.637 349.071 171.708C349.071 174.742 351.328 176.703 354.954 176.703Z" fill="#292C33"/>
<path d="M328.367 248.875V246.359L338.912 236.184C339.849 235.296 340.54 234.519 340.984 233.853C341.452 233.162 341.761 232.533 341.909 231.966C342.081 231.374 342.168 230.807 342.168 230.264C342.168 228.932 341.699 227.884 340.762 227.119C339.824 226.354 338.455 225.972 336.655 225.972C335.273 225.972 334.028 226.206 332.918 226.675C331.808 227.119 330.846 227.822 330.032 228.784L327.516 226.601C328.502 225.343 329.822 224.381 331.475 223.715C333.152 223.024 334.99 222.679 336.988 222.679C338.788 222.679 340.355 222.975 341.687 223.567C343.019 224.134 344.042 224.961 344.758 226.046C345.498 227.131 345.868 228.414 345.868 229.894C345.868 230.733 345.757 231.559 345.535 232.373C345.313 233.187 344.893 234.05 344.277 234.963C343.66 235.876 342.772 236.899 341.613 238.034L332.215 247.099L331.327 245.656H346.978V248.875H328.367ZM360.862 249.171C358.568 249.171 356.607 248.665 354.979 247.654C353.351 246.643 352.105 245.187 351.242 243.288C350.403 241.364 349.984 239.021 349.984 236.258C349.984 233.323 350.502 230.844 351.538 228.821C352.574 226.798 354.017 225.269 355.867 224.233C357.717 223.197 359.838 222.679 362.231 222.679C363.464 222.679 364.636 222.802 365.746 223.049C366.88 223.296 367.855 223.678 368.669 224.196L367.263 227.082C366.597 226.613 365.832 226.293 364.969 226.12C364.13 225.947 363.242 225.861 362.305 225.861C359.665 225.861 357.569 226.687 356.015 228.34C354.461 229.968 353.684 232.398 353.684 235.629C353.684 236.147 353.708 236.764 353.758 237.479C353.807 238.194 353.93 238.897 354.128 239.588L352.87 238.33C353.24 237.195 353.819 236.246 354.609 235.481C355.423 234.692 356.385 234.112 357.495 233.742C358.629 233.347 359.85 233.15 361.158 233.15C362.884 233.15 364.414 233.471 365.746 234.112C367.078 234.753 368.126 235.666 368.891 236.85C369.655 238.009 370.038 239.391 370.038 240.994C370.038 242.647 369.631 244.09 368.817 245.323C368.003 246.556 366.905 247.506 365.524 248.172C364.142 248.838 362.588 249.171 360.862 249.171ZM360.714 246.174C361.848 246.174 362.835 245.964 363.674 245.545C364.537 245.126 365.215 244.546 365.709 243.806C366.202 243.041 366.449 242.153 366.449 241.142C366.449 239.613 365.918 238.404 364.858 237.516C363.797 236.603 362.354 236.147 360.529 236.147C359.345 236.147 358.309 236.369 357.421 236.813C356.533 237.257 355.83 237.861 355.312 238.626C354.818 239.366 354.572 240.217 354.572 241.179C354.572 242.067 354.806 242.893 355.275 243.658C355.743 244.398 356.434 245.002 357.347 245.471C358.259 245.94 359.382 246.174 360.714 246.174Z" fill="#292C33"/>
<path d="M414.901 62.8377C420.044 62.8377 423.781 65.9087 423.781 70.6817C423.781 75.6767 419.748 78.8587 414.605 78.8587C407.649 78.8587 403.727 74.1967 403.727 65.9457C403.727 57.1027 408.722 52.3667 415.974 52.3667C418.416 52.3667 420.747 52.8477 422.412 53.8837L421.006 56.7697C419.674 55.8817 417.897 55.5487 416.047 55.5487C410.793 55.5487 407.426 58.8417 407.426 65.3167C407.426 65.6127 407.427 65.9087 407.464 66.2417C408.944 64.0217 411.682 62.8377 414.901 62.8377ZM414.457 75.8617C417.824 75.8617 420.192 73.9007 420.192 70.8297C420.192 67.7957 417.897 65.8347 414.271 65.8347C410.756 65.8347 408.314 68.0177 408.314 70.8667C408.314 73.5307 410.461 75.8617 414.457 75.8617Z" fill="#292C33"/>
<path d="M396.383 104.975H405.892V130.875H402.229V108.194H396.383V104.975ZM421.474 115.853C426.654 116.334 429.281 119.257 429.281 123.253C429.281 127.619 426.062 131.171 419.476 131.171C415.776 131.171 412.15 129.987 409.967 128.026L411.669 125.103C413.408 126.731 416.294 127.878 419.476 127.878C423.361 127.878 425.581 126.102 425.581 123.29C425.581 120.552 423.62 118.776 419.18 118.776H417.108V116.186L423.62 108.194H411.151V104.975H428.245V107.491L421.474 115.853Z" fill="#292C33"/>
<path d="M397.308 186.656H410.591V189.875H391.98V187.359L402.525 177.184C405.263 174.52 405.781 172.892 405.781 171.264C405.781 168.6 403.894 166.972 400.268 166.972C397.493 166.972 395.236 167.86 393.645 169.784L391.129 167.601C393.127 165.122 396.568 163.679 400.601 163.679C406.003 163.679 409.481 166.454 409.481 170.894C409.481 173.41 408.741 175.667 405.226 179.034L397.308 186.656ZM424.107 190.171C418.039 190.171 413.525 185.361 413.525 176.925C413.525 168.489 418.039 163.679 424.107 163.679C430.138 163.679 434.652 168.489 434.652 176.925C434.652 185.361 430.138 190.171 424.107 190.171ZM424.107 186.878C428.14 186.878 430.952 183.548 430.952 176.925C430.952 170.302 428.14 166.972 424.107 166.972C420.037 166.972 417.225 170.302 417.225 176.925C417.225 183.548 420.037 186.878 424.107 186.878Z" fill="#292C33"/>
<path d="M18.5742 104.975H38.1102V107.491L27.6392 130.875H23.7172L33.9662 108.194H22.1262V112.819H18.5742V104.975Z" fill="#292C33"/>
<path d="M9.59375 163.975H19.1027V189.875H15.4398V167.194H9.59375V163.975ZM47.301 180.329V183.511H42.3801V189.875H38.791V183.511H24.398V180.921L37.6441 163.975H41.64L28.9491 180.329H38.9021V174.705H42.3801V180.329H47.301Z" fill="#292C33"/>
<path d="M17.7453 245.656H31.0283V248.875H12.4174V246.359L22.9623 236.184C25.7003 233.52 26.2183 231.892 26.2183 230.264C26.2183 227.6 24.3313 225.972 20.7053 225.972C17.9303 225.972 15.6734 226.86 14.0824 228.784L11.5664 226.601C13.5644 224.122 17.0053 222.679 21.0383 222.679C26.4403 222.679 29.9183 225.454 29.9183 229.894C29.9183 232.41 29.1783 234.667 25.6633 238.034L17.7453 245.656ZM32.5904 222.975H42.0994V248.875H38.4364V226.194H32.5904V222.975Z" fill="#292C33"/>
<path d="M85.2656 52.6626H94.7746V78.5626H91.1116V55.8816H85.2656V52.6626Z" fill="#292C33"/>
<path d="M98.7262 117.296C101.686 118.443 103.314 120.589 103.314 123.549C103.314 128.248 99.3182 131.171 92.9912 131.171C86.7012 131.171 82.7422 128.248 82.7422 123.549C82.7422 120.589 84.3702 118.406 87.2932 117.296C84.9252 116.186 83.6672 114.262 83.6672 111.709C83.6672 107.38 87.4042 104.679 92.9912 104.679C98.6152 104.679 102.389 107.38 102.389 111.709C102.389 114.262 101.094 116.186 98.7262 117.296ZM92.9912 107.676C89.5132 107.676 87.3302 109.267 87.3302 111.857C87.3302 114.41 89.4392 116.001 92.9912 116.001C96.5802 116.001 98.7632 114.41 98.7632 111.857C98.7632 109.267 96.4692 107.676 92.9912 107.676ZM92.9912 128.174C97.0982 128.174 99.6142 126.361 99.6142 123.438C99.6142 120.589 97.0982 118.813 92.9912 118.813C88.8842 118.813 86.4422 120.589 86.4422 123.438C86.4422 126.361 88.8842 128.174 92.9912 128.174Z" fill="#292C33"/>
<path d="M75.8438 163.975H85.3527V189.875H81.6897V167.194H75.8438V163.975ZM98.4181 174.298C106.152 174.298 109.186 177.517 109.186 182.105C109.186 186.582 106.004 190.171 99.38 190.171C95.717 190.171 92.091 188.987 89.871 187.026L91.5731 184.103C93.3121 185.731 96.198 186.878 99.343 186.878C103.265 186.878 105.485 185.065 105.485 182.253C105.485 179.33 103.635 177.517 97.6411 177.517H91.758L93.1271 163.975H107.743V167.194H96.2351L95.5322 174.298H98.4181Z" fill="#292C33"/>
<path d="M78.4681 245.656H91.7511V248.875H73.1401V246.359L83.6851 236.184C86.4231 233.52 86.9411 231.892 86.9411 230.264C86.9411 227.6 85.0541 225.972 81.4281 225.972C78.6531 225.972 76.3961 226.86 74.8051 228.784L72.2891 226.601C74.2871 224.122 77.7281 222.679 81.7611 222.679C87.1631 222.679 90.6411 225.454 90.6411 229.894C90.6411 232.41 89.9011 234.667 86.3861 238.034L78.4681 245.656ZM99.7142 245.656H112.997V248.875H94.3862V246.359L104.931 236.184C107.669 233.52 108.187 231.892 108.187 230.264C108.187 227.6 106.3 225.972 102.674 225.972C99.8992 225.972 97.6422 226.86 96.0512 228.784L93.5352 226.601C95.5332 224.122 98.9742 222.679 103.007 222.679C108.409 222.679 111.887 225.454 111.887 229.894C111.887 232.41 111.147 234.667 107.632 238.034L99.7142 245.656Z" fill="#292C33"/>
<path d="M156.276 104.679C163.232 104.679 167.154 109.341 167.154 117.592C167.154 126.435 162.159 131.171 154.907 131.171C152.465 131.171 150.134 130.69 148.469 129.654L149.875 126.768C151.244 127.656 152.983 127.989 154.87 127.989C160.124 127.989 163.454 124.696 163.454 118.221V117.296C161.937 119.553 159.199 120.7 155.98 120.7C150.837 120.7 147.137 117.629 147.137 112.856C147.137 107.861 151.133 104.679 156.276 104.679ZM156.609 117.703C160.161 117.703 162.603 115.52 162.603 112.671C162.603 110.007 160.457 107.676 156.424 107.676C153.057 107.676 150.726 109.637 150.726 112.708C150.726 115.742 152.983 117.703 156.609 117.703Z" fill="#292C33"/>
<path d="M139.547 163.975H149.056V189.875H145.393V167.194H139.547V163.975ZM165.896 174.15C171.039 174.15 174.776 177.221 174.776 181.994C174.776 186.989 170.743 190.171 165.6 190.171C158.644 190.171 154.722 185.509 154.722 177.258C154.722 168.415 159.717 163.679 166.969 163.679C169.411 163.679 171.742 164.16 173.407 165.196L172.001 168.082C170.669 167.194 168.893 166.861 167.043 166.861C161.789 166.861 158.422 170.154 158.422 176.629C158.422 176.925 158.422 177.221 158.459 177.554C159.939 175.334 162.677 174.15 165.896 174.15ZM165.452 187.174C168.819 187.174 171.187 185.213 171.187 182.142C171.187 179.108 168.893 177.147 165.267 177.147C161.752 177.147 159.31 179.33 159.31 182.179C159.31 184.843 161.456 187.174 165.452 187.174Z" fill="#292C33"/>
<path d="M143.007 245.656H156.29V248.875H137.679V246.359L148.224 236.184C150.962 233.52 151.48 231.892 151.48 230.264C151.48 227.6 149.593 225.972 145.967 225.972C143.192 225.972 140.935 226.86 139.344 228.784L136.828 226.601C138.826 224.122 142.267 222.679 146.3 222.679C151.702 222.679 155.18 225.454 155.18 229.894C155.18 232.41 154.44 234.667 150.925 238.034L143.007 245.656ZM169.249 233.853C174.429 234.334 177.056 237.257 177.056 241.253C177.056 245.619 173.837 249.171 167.251 249.171C163.551 249.171 159.925 247.987 157.742 246.026L159.444 243.103C161.183 244.731 164.069 245.878 167.251 245.878C171.136 245.878 173.356 244.102 173.356 241.29C173.356 238.552 171.395 236.776 166.955 236.776H164.883V234.186L171.395 226.194H158.926V222.975H176.02V225.491L169.249 233.853Z" fill="#292C33"/>
<path d="M154.843 75.3437H168.126V78.5627H149.515V76.0467L160.06 65.8717C162.798 63.2077 163.316 61.5797 163.316 59.9517C163.316 57.2877 161.429 55.6597 157.803 55.6597C155.028 55.6597 152.771 56.5477 151.18 58.4717L148.664 56.2887C150.662 53.8097 154.103 52.3667 158.136 52.3667C163.538 52.3667 167.016 55.1417 167.016 59.5817C167.016 62.0977 166.276 64.3547 162.761 67.7217L154.843 75.3437Z" fill="#292C33"/>
<path d="M214.779 308.171C212.954 308.171 211.178 307.887 209.451 307.32C207.749 306.753 206.356 305.988 205.27 305.026L206.972 302.103C207.836 302.917 208.958 303.583 210.339 304.101C211.721 304.619 213.201 304.878 214.779 304.878C216.703 304.878 218.196 304.471 219.256 303.657C220.342 302.818 220.884 301.696 220.884 300.29C220.884 298.933 220.366 297.848 219.33 297.034C218.319 296.195 216.703 295.776 214.483 295.776H212.411V293.186L220.107 283.714L220.625 285.194H206.454V281.975H223.548V284.491L215.889 293.926L213.965 292.779H215.186C218.319 292.779 220.662 293.482 222.216 294.888C223.795 296.294 224.584 298.082 224.584 300.253C224.584 301.708 224.227 303.04 223.511 304.249C222.796 305.458 221.711 306.42 220.255 307.135C218.825 307.826 216.999 308.171 214.779 308.171ZM232.401 307.875V283.455L233.992 285.194H226.555V281.975H236.064V307.875H232.401Z" fill="#292C33"/>
</svg>
