<svg width="432" height="363" viewBox="0 0 432 363" fill="none" xmlns="http://www.w3.org/2000/svg">
<g clip-path="url(#clip0_3525_5357)">
<mask id="mask0_3525_5357" style="mask-type:luminance" maskUnits="userSpaceOnUse" x="0" y="0" width="432" height="363">
<path d="M431.5 0H0.5V363H431.5V0Z" fill="white"/>
</mask>
<g mask="url(#mask0_3525_5357)">
<mask id="mask1_3525_5357" style="mask-type:luminance" maskUnits="userSpaceOnUse" x="0" y="0" width="432" height="363">
<path d="M431.5 0H0.5V363H431.5V0Z" fill="white"/>
</mask>
<g mask="url(#mask1_3525_5357)">
<path d="M49.5 208H-7.5V255H49.5V208Z" fill="#E4793D" fill-opacity="0.6"/>
<path d="M23.4564 21.2264H20.8476V3.86139H11.3906V21.2264H8.7002V1.82324H23.3749V21.2264H23.4564Z" fill="#B3B3B3" fill-opacity="0.6"/>
<path d="M39.2725 21.2263H36.6636V15.1118H30.2231V21.2263H27.6143V6.79614H30.2231V13.0737H36.6636V6.79614H39.2725V21.2263Z" fill="#B3B3B3" fill-opacity="0.6"/>
<path d="M73.5 21.2264V1.82324H79.859C81.8972 1.82324 83.4462 2.23087 84.5875 3.12766C85.7289 4.02444 86.2996 5.32886 86.2996 7.0409C86.2996 7.85616 86.055 8.58989 85.5658 9.32363C85.0767 10.0574 84.3429 10.465 83.5277 10.7911C84.8321 10.9541 85.8104 11.5248 86.5441 12.4216C87.2779 13.3184 87.6855 14.4598 87.6855 15.6826C87.6855 17.4762 87.1148 18.7806 85.9735 19.7589C84.8321 20.7373 83.2831 21.1449 81.245 21.1449H73.5V21.2264ZM76.1904 10.0574H80.4297C81.408 10.0574 82.2233 9.81278 82.794 9.2421C83.4462 8.67142 83.6907 7.93769 83.6907 6.95937C83.6907 5.89954 83.3646 5.1658 82.7124 4.59512C82.0602 4.10597 81.0819 3.77986 79.859 3.77986H76.1904V10.0574ZM76.1904 12.0955V19.1067H81.245C82.4678 19.1067 83.3646 18.7806 84.0168 18.21C84.6691 17.6393 84.9952 16.7425 84.9952 15.6826C84.9952 14.6228 84.6691 13.726 84.0168 13.0738C83.3646 12.4216 82.4678 12.0955 81.245 12.014H81.0819H76.1904V12.0955Z" fill="#B3B3B3" fill-opacity="0.6"/>
<path d="M101.626 8.83429H96.8976V21.2263H94.2888V8.83429H89.5603V6.79614H101.626V8.83429Z" fill="#B3B3B3" fill-opacity="0.6"/>
<path d="M151.012 15.0304C151.093 16.9055 150.441 18.4545 149.137 19.6773C147.832 20.9002 146.12 21.5524 143.919 21.5524C141.718 21.5524 139.924 20.7372 138.538 19.1882C137.152 17.6392 136.5 15.6826 136.5 13.2368V9.81271C136.5 7.44846 137.152 5.41031 138.538 3.86132C139.924 2.31233 141.718 1.49707 143.919 1.49707C146.12 1.49707 147.832 2.06775 149.137 3.20911C150.441 4.35048 151.093 5.89947 151.012 7.85609V7.93762H148.484C148.484 6.55168 148.077 5.49184 147.261 4.67658C146.446 3.86132 145.305 3.45369 143.837 3.45369C142.37 3.45369 141.229 4.02437 140.332 5.24726C139.435 6.38862 139.027 7.85609 139.027 9.64966V13.1553C139.027 14.9488 139.435 16.4163 140.332 17.5577C141.229 18.699 142.37 19.3512 143.837 19.3512C145.305 19.3512 146.446 18.9436 147.261 18.2099C148.077 17.3946 148.484 16.3348 148.484 14.9488H151.012V15.0304Z" fill="#B3B3B3" fill-opacity="0.6"/>
<path d="M166.42 14.5413C166.42 16.661 165.931 18.2915 164.953 19.5959C163.974 20.9003 162.588 21.471 160.795 21.471C159.898 21.471 159.164 21.3079 158.43 21.0634C157.778 20.7373 157.208 20.3296 156.718 19.7589V26.7702H154.11V6.79634H156.148L156.555 8.67144C157.045 7.9377 157.615 7.44855 158.349 7.12244C159.083 6.79634 159.898 6.55176 160.795 6.55176C162.588 6.55176 163.974 7.2855 164.953 8.67144C165.931 10.0574 166.42 11.9325 166.42 14.2967V14.5413ZM163.811 14.2967C163.811 12.6662 163.485 11.2802 162.833 10.3019C162.181 9.32364 161.202 8.75296 159.979 8.75296C159.246 8.75296 158.594 8.91601 158.023 9.24212C157.452 9.56822 157.045 10.0574 156.718 10.628V17.6393C157.045 18.2099 157.452 18.6991 158.023 19.0252C158.594 19.3513 159.246 19.5144 159.979 19.5144C161.202 19.5144 162.181 19.0252 162.833 18.1284C163.485 17.2316 163.811 16.0087 163.811 14.6228V14.2967Z" fill="#B3B3B3" fill-opacity="0.6"/>
<path d="M215.93 1.82324V21.2264H213.321V13.1553C212.506 13.3999 211.691 13.563 210.875 13.726C210.06 13.8076 209.163 13.8891 208.022 13.8891C205.902 13.8891 204.272 13.3999 203.131 12.5031C201.989 11.6064 201.5 10.0574 201.5 7.93769V1.82324H204.109V7.93769C204.109 9.40515 204.435 10.3835 205.006 10.9541C205.658 11.5248 206.636 11.7694 207.941 11.7694C208.837 11.7694 209.734 11.6879 210.631 11.6064C211.446 11.4433 212.343 11.2802 213.24 11.0357V1.82324H215.93Z" fill="#B3B3B3" fill-opacity="0.6"/>
<path d="M231.175 8.83429H226.447V21.2263H223.838V8.83429H219.11V6.79614H231.175V8.83429Z" fill="#B3B3B3" fill-opacity="0.6"/>
<path d="M280.175 21.2264H277.566V3.86139H268.109V21.2264H265.5V1.82324H280.175V21.2264Z" fill="#B3B3B3" fill-opacity="0.6"/>
<path d="M295.42 8.83453H290.692V21.2265H288.083V8.83453H283.354V6.79639H295.42V8.83453Z" fill="#B3B3B3" fill-opacity="0.6"/>
<path d="M345.012 15.0301C345.093 16.9052 344.441 18.4542 343.137 19.6771C341.832 20.9 340.12 21.5522 337.919 21.5522C335.718 21.5522 333.924 20.7369 332.538 19.1879C331.152 17.6389 330.5 15.6823 330.5 13.2365V9.81246C330.5 7.44821 331.152 5.41007 332.538 3.86107C333.924 2.31208 335.718 1.49683 337.919 1.49683C340.12 1.49683 341.832 2.0675 343.137 3.20887C344.441 4.35023 345.093 5.89922 345.012 7.85584V7.93737H342.484C342.484 6.55143 342.077 5.49159 341.261 4.67633C340.446 3.86107 339.305 3.45344 337.837 3.45344C336.37 3.45344 335.229 4.02413 334.332 5.24701C333.435 6.38838 333.027 7.85584 333.027 9.64941V13.155C333.027 14.9486 333.435 16.416 334.332 17.5574C335.229 18.6988 336.37 19.351 337.837 19.351C339.305 19.351 340.446 18.9433 341.261 18.2096C342.077 17.3944 342.484 16.3345 342.484 14.9486H345.012V15.0301Z" fill="#B3B3B3" fill-opacity="0.6"/>
<path d="M354.387 6.55149C356.262 6.55149 357.648 7.2037 358.708 8.58964C359.768 9.97558 360.338 11.6876 360.338 13.8888V14.2149C360.338 16.3346 359.768 18.1282 358.626 19.5141C357.485 20.9 355.936 21.5523 353.898 21.5523C351.86 21.5523 350.311 20.9 349.169 19.5141C348.028 18.1282 347.457 16.4161 347.457 14.2149V13.8888C347.457 13.8073 347.457 13.7258 347.457 13.7258C347.457 13.6442 347.457 13.6442 347.457 13.5627V10.4647C347.457 7.69285 348.028 5.73623 349.088 4.43182C350.148 3.1274 351.778 2.47519 353.898 2.31214C355.121 2.23062 356.099 2.06756 356.751 1.82299C357.403 1.57841 357.73 1.17078 357.73 0.600098H359.768V0.681624C359.849 2.06756 359.36 3.04587 358.382 3.61656C357.403 4.18724 356.017 4.51334 354.142 4.51334C352.756 4.51334 351.697 4.92097 350.881 5.6547C350.066 6.38844 349.658 7.44827 349.658 8.83421V8.91574C350.148 8.26353 350.881 7.69285 351.697 7.28522C352.512 6.87759 353.49 6.55149 354.387 6.55149ZM353.898 8.58964C352.675 8.58964 351.697 9.07879 351.044 10.0571C350.392 11.0354 350.066 12.3398 350.066 13.8073V14.1334C350.066 15.6824 350.392 16.9053 351.044 17.8836C351.697 18.8619 352.675 19.3511 353.898 19.3511C355.121 19.3511 356.099 18.8619 356.751 17.8836C357.403 16.9053 357.73 15.6009 357.73 14.1334V13.8073C357.73 12.2583 357.403 11.0354 356.751 10.0571C356.099 9.07879 355.121 8.58964 353.898 8.58964Z" fill="#B3B3B3" fill-opacity="0.6"/>
<path d="M394.5 21.2264V1.82324H400.859C402.897 1.82324 404.446 2.23087 405.588 3.12766C406.729 4.02444 407.3 5.32886 407.3 7.0409C407.3 7.85616 407.055 8.58989 406.566 9.32363C406.077 10.0574 405.343 10.465 404.528 10.8726C405.832 11.0357 406.81 11.6064 407.544 12.5031C408.278 13.3999 408.686 14.5413 408.686 15.7642C408.686 17.5577 408.115 18.8622 406.973 19.8405C405.832 20.8188 404.283 21.2264 402.245 21.2264H394.5ZM397.19 10.0574H401.43C402.408 10.0574 403.223 9.81278 403.794 9.2421C404.446 8.67142 404.691 7.93769 404.691 6.95937C404.691 5.89954 404.365 5.1658 403.712 4.59512C403.06 4.10597 402.082 3.77986 400.859 3.77986H397.19V10.0574ZM397.19 12.0955V19.1067H402.245C403.468 19.1067 404.365 18.7806 405.017 18.21C405.669 17.6393 405.995 16.7425 405.995 15.6826C405.995 14.6228 405.669 13.726 405.017 13.0738C404.365 12.4216 403.468 12.0955 402.245 12.014H402.082H397.19V12.0955Z" fill="#B3B3B3" fill-opacity="0.6"/>
<path d="M417.245 19.4326C418.061 19.4326 418.794 19.1881 419.365 18.6174C419.936 18.0467 420.262 17.3945 420.262 16.6608H422.626V16.7423C422.626 17.9652 422.137 19.1065 420.996 20.0848C419.854 21.0632 418.631 21.5523 417.164 21.5523C415.126 21.5523 413.577 20.9001 412.435 19.5142C411.294 18.1282 410.805 16.4162 410.805 14.378V13.8073C410.805 11.7692 411.376 10.0571 412.435 8.6712C413.577 7.28526 415.126 6.63306 417.082 6.63306C418.713 6.63306 420.017 7.12221 420.996 8.10052C421.974 9.07883 422.545 10.3017 422.463 11.7692V11.8507H420.099C420.099 10.9539 419.773 10.2202 419.202 9.56799C418.631 8.91578 417.898 8.6712 417.001 8.6712C415.696 8.6712 414.8 9.16036 414.147 10.1387C413.577 11.117 413.251 12.3399 413.251 13.8073V14.378C413.251 15.8455 413.577 17.0684 414.147 18.0467C415.044 18.9435 415.941 19.4326 417.245 19.4326Z" fill="#B3B3B3" fill-opacity="0.6"/>
<path d="M23.4564 21.2264H20.8476V3.86139H11.3906V21.2264H8.7002V1.82324H23.3749V21.2264H23.4564Z" fill="#B3B3B3" fill-opacity="0.6"/>
<path d="M39.2725 21.2263H36.6636V15.1118H30.2231V21.2263H27.6143V6.79614H30.2231V13.0737H36.6636V6.79614H39.2725V21.2263Z" fill="#B3B3B3" fill-opacity="0.6"/>
<path d="M73.5 21.2264V1.82324H79.859C81.8972 1.82324 83.4462 2.23087 84.5875 3.12766C85.7289 4.02444 86.2996 5.32886 86.2996 7.0409C86.2996 7.85616 86.055 8.58989 85.5658 9.32363C85.0767 10.0574 84.3429 10.465 83.5277 10.7911C84.8321 10.9541 85.8104 11.5248 86.5441 12.4216C87.2779 13.3184 87.6855 14.4598 87.6855 15.6826C87.6855 17.4762 87.1148 18.7806 85.9735 19.7589C84.8321 20.7373 83.2831 21.1449 81.245 21.1449H73.5V21.2264ZM76.1904 10.0574H80.4297C81.408 10.0574 82.2233 9.81278 82.794 9.2421C83.4462 8.67142 83.6907 7.93769 83.6907 6.95937C83.6907 5.89954 83.3646 5.1658 82.7124 4.59512C82.0602 4.10597 81.0819 3.77986 79.859 3.77986H76.1904V10.0574ZM76.1904 12.0955V19.1067H81.245C82.4678 19.1067 83.3646 18.7806 84.0168 18.21C84.6691 17.6393 84.9952 16.7425 84.9952 15.6826C84.9952 14.6228 84.6691 13.726 84.0168 13.0738C83.3646 12.4216 82.4678 12.0955 81.245 12.014H81.0819H76.1904V12.0955Z" fill="#B3B3B3" fill-opacity="0.6"/>
<path d="M101.626 8.83429H96.8976V21.2263H94.2888V8.83429H89.5603V6.79614H101.626V8.83429Z" fill="#B3B3B3" fill-opacity="0.6"/>
<path d="M151.012 15.0304C151.093 16.9055 150.441 18.4545 149.137 19.6773C147.832 20.9002 146.12 21.5524 143.919 21.5524C141.718 21.5524 139.924 20.7372 138.538 19.1882C137.152 17.6392 136.5 15.6826 136.5 13.2368V9.81271C136.5 7.44846 137.152 5.41031 138.538 3.86132C139.924 2.31233 141.718 1.49707 143.919 1.49707C146.12 1.49707 147.832 2.06775 149.137 3.20911C150.441 4.35048 151.093 5.89947 151.012 7.85609V7.93762H148.484C148.484 6.55168 148.077 5.49184 147.261 4.67658C146.446 3.86132 145.305 3.45369 143.837 3.45369C142.37 3.45369 141.229 4.02437 140.332 5.24726C139.435 6.38862 139.027 7.85609 139.027 9.64966V13.1553C139.027 14.9488 139.435 16.4163 140.332 17.5577C141.229 18.699 142.37 19.3512 143.837 19.3512C145.305 19.3512 146.446 18.9436 147.261 18.2099C148.077 17.3946 148.484 16.3348 148.484 14.9488H151.012V15.0304Z" fill="#B3B3B3" fill-opacity="0.6"/>
<path d="M166.42 14.5413C166.42 16.661 165.931 18.2915 164.953 19.5959C163.974 20.9003 162.588 21.471 160.795 21.471C159.898 21.471 159.164 21.3079 158.43 21.0634C157.778 20.7373 157.208 20.3296 156.718 19.7589V26.7702H154.11V6.79634H156.148L156.555 8.67144C157.045 7.9377 157.615 7.44855 158.349 7.12244C159.083 6.79634 159.898 6.55176 160.795 6.55176C162.588 6.55176 163.974 7.2855 164.953 8.67144C165.931 10.0574 166.42 11.9325 166.42 14.2967V14.5413ZM163.811 14.2967C163.811 12.6662 163.485 11.2802 162.833 10.3019C162.181 9.32364 161.202 8.75296 159.979 8.75296C159.246 8.75296 158.594 8.91601 158.023 9.24212C157.452 9.56822 157.045 10.0574 156.718 10.628V17.6393C157.045 18.2099 157.452 18.6991 158.023 19.0252C158.594 19.3513 159.246 19.5144 159.979 19.5144C161.202 19.5144 162.181 19.0252 162.833 18.1284C163.485 17.2316 163.811 16.0087 163.811 14.6228V14.2967Z" fill="#B3B3B3" fill-opacity="0.6"/>
<path d="M215.93 1.82324V21.2264H213.321V13.1553C212.506 13.3999 211.691 13.563 210.875 13.726C210.06 13.8076 209.163 13.8891 208.022 13.8891C205.902 13.8891 204.272 13.3999 203.131 12.5031C201.989 11.6064 201.5 10.0574 201.5 7.93769V1.82324H204.109V7.93769C204.109 9.40515 204.435 10.3835 205.006 10.9541C205.658 11.5248 206.636 11.7694 207.941 11.7694C208.837 11.7694 209.734 11.6879 210.631 11.6064C211.446 11.4433 212.343 11.2802 213.24 11.0357V1.82324H215.93Z" fill="#B3B3B3" fill-opacity="0.6"/>
<path d="M231.175 8.83429H226.447V21.2263H223.838V8.83429H219.11V6.79614H231.175V8.83429Z" fill="#B3B3B3" fill-opacity="0.6"/>
<path d="M280.175 21.2264H277.566V3.86139H268.109V21.2264H265.5V1.82324H280.175V21.2264Z" fill="#B3B3B3" fill-opacity="0.6"/>
<path d="M295.42 8.83453H290.692V21.2265H288.083V8.83453H283.354V6.79639H295.42V8.83453Z" fill="#B3B3B3" fill-opacity="0.6"/>
<path d="M345.012 15.0301C345.093 16.9052 344.441 18.4542 343.137 19.6771C341.832 20.9 340.12 21.5522 337.919 21.5522C335.718 21.5522 333.924 20.7369 332.538 19.1879C331.152 17.6389 330.5 15.6823 330.5 13.2365V9.81246C330.5 7.44821 331.152 5.41007 332.538 3.86107C333.924 2.31208 335.718 1.49683 337.919 1.49683C340.12 1.49683 341.832 2.0675 343.137 3.20887C344.441 4.35023 345.093 5.89922 345.012 7.85584V7.93737H342.484C342.484 6.55143 342.077 5.49159 341.261 4.67633C340.446 3.86107 339.305 3.45344 337.837 3.45344C336.37 3.45344 335.229 4.02413 334.332 5.24701C333.435 6.38838 333.027 7.85584 333.027 9.64941V13.155C333.027 14.9486 333.435 16.416 334.332 17.5574C335.229 18.6988 336.37 19.351 337.837 19.351C339.305 19.351 340.446 18.9433 341.261 18.2096C342.077 17.3944 342.484 16.3345 342.484 14.9486H345.012V15.0301Z" fill="#B3B3B3" fill-opacity="0.6"/>
<path d="M354.387 6.55149C356.262 6.55149 357.648 7.2037 358.708 8.58964C359.768 9.97558 360.338 11.6876 360.338 13.8888V14.2149C360.338 16.3346 359.768 18.1282 358.626 19.5141C357.485 20.9 355.936 21.5523 353.898 21.5523C351.86 21.5523 350.311 20.9 349.169 19.5141C348.028 18.1282 347.457 16.4161 347.457 14.2149V13.8888C347.457 13.8073 347.457 13.7258 347.457 13.7258C347.457 13.6442 347.457 13.6442 347.457 13.5627V10.4647C347.457 7.69285 348.028 5.73623 349.088 4.43182C350.148 3.1274 351.778 2.47519 353.898 2.31214C355.121 2.23062 356.099 2.06756 356.751 1.82299C357.403 1.57841 357.73 1.17078 357.73 0.600098H359.768V0.681624C359.849 2.06756 359.36 3.04587 358.382 3.61656C357.403 4.18724 356.017 4.51334 354.142 4.51334C352.756 4.51334 351.697 4.92097 350.881 5.6547C350.066 6.38844 349.658 7.44827 349.658 8.83421V8.91574C350.148 8.26353 350.881 7.69285 351.697 7.28522C352.512 6.87759 353.49 6.55149 354.387 6.55149ZM353.898 8.58964C352.675 8.58964 351.697 9.07879 351.044 10.0571C350.392 11.0354 350.066 12.3398 350.066 13.8073V14.1334C350.066 15.6824 350.392 16.9053 351.044 17.8836C351.697 18.8619 352.675 19.3511 353.898 19.3511C355.121 19.3511 356.099 18.8619 356.751 17.8836C357.403 16.9053 357.73 15.6009 357.73 14.1334V13.8073C357.73 12.2583 357.403 11.0354 356.751 10.0571C356.099 9.07879 355.121 8.58964 353.898 8.58964Z" fill="#B3B3B3" fill-opacity="0.6"/>
<path d="M394.5 21.2264V1.82324H400.859C402.897 1.82324 404.446 2.23087 405.588 3.12766C406.729 4.02444 407.3 5.32886 407.3 7.0409C407.3 7.85616 407.055 8.58989 406.566 9.32363C406.077 10.0574 405.343 10.465 404.528 10.8726C405.832 11.0357 406.81 11.6064 407.544 12.5031C408.278 13.3999 408.686 14.5413 408.686 15.7642C408.686 17.5577 408.115 18.8622 406.973 19.8405C405.832 20.8188 404.283 21.2264 402.245 21.2264H394.5ZM397.19 10.0574H401.43C402.408 10.0574 403.223 9.81278 403.794 9.2421C404.446 8.67142 404.691 7.93769 404.691 6.95937C404.691 5.89954 404.365 5.1658 403.712 4.59512C403.06 4.10597 402.082 3.77986 400.859 3.77986H397.19V10.0574ZM397.19 12.0955V19.1067H402.245C403.468 19.1067 404.365 18.7806 405.017 18.21C405.669 17.6393 405.995 16.7425 405.995 15.6826C405.995 14.6228 405.669 13.726 405.017 13.0738C404.365 12.4216 403.468 12.0955 402.245 12.014H402.082H397.19V12.0955Z" fill="#B3B3B3" fill-opacity="0.6"/>
<path d="M417.245 19.4326C418.061 19.4326 418.794 19.1881 419.365 18.6174C419.936 18.0467 420.262 17.3945 420.262 16.6608H422.626V16.7423C422.626 17.9652 422.137 19.1065 420.996 20.0848C419.854 21.0632 418.631 21.5523 417.164 21.5523C415.126 21.5523 413.577 20.9001 412.435 19.5142C411.294 18.1282 410.805 16.4162 410.805 14.378V13.8073C410.805 11.7692 411.376 10.0571 412.435 8.6712C413.577 7.28526 415.126 6.63306 417.082 6.63306C418.713 6.63306 420.017 7.12221 420.996 8.10052C421.974 9.07883 422.545 10.3017 422.463 11.7692V11.8507H420.099C420.099 10.9539 419.773 10.2202 419.202 9.56799C418.631 8.91578 417.898 8.6712 417.001 8.6712C415.696 8.6712 414.8 9.16036 414.147 10.1387C413.577 11.117 413.251 12.3399 413.251 13.8073V14.378C413.251 15.8455 413.577 17.0684 414.147 18.0467C415.044 18.9435 415.941 19.4326 417.245 19.4326Z" fill="#B3B3B3" fill-opacity="0.6"/>
<path d="M344.295 78.5001V54.0801L345.886 55.8191H338.449V52.6001H347.958V78.5001H344.295Z" fill="#292C33" fill-opacity="0.6"/>
<path d="M344.971 129.296C342.875 129.296 341.062 128.988 339.532 128.371C338.003 127.754 336.819 126.879 335.98 125.744C335.142 124.585 334.722 123.228 334.722 121.674C334.722 120.145 335.117 118.85 335.906 117.789C336.72 116.704 337.892 115.89 339.421 115.347C340.951 114.78 342.801 114.496 344.971 114.496C347.142 114.496 348.992 114.78 350.521 115.347C352.075 115.89 353.259 116.704 354.073 117.789C354.887 118.874 355.294 120.169 355.294 121.674C355.294 123.228 354.875 124.585 354.036 125.744C353.198 126.879 352.001 127.754 350.447 128.371C348.893 128.988 347.068 129.296 344.971 129.296ZM344.971 126.299C347.043 126.299 348.659 125.88 349.818 125.041C351.002 124.178 351.594 123.018 351.594 121.563C351.594 120.132 351.002 119.01 349.818 118.196C348.659 117.357 347.043 116.938 344.971 116.938C342.924 116.938 341.321 117.357 340.161 118.196C339.002 119.01 338.422 120.132 338.422 121.563C338.422 123.018 339.002 124.178 340.161 125.041C341.321 125.88 342.924 126.299 344.971 126.299ZM344.971 116.494C342.998 116.494 341.321 116.235 339.939 115.717C338.558 115.174 337.497 114.41 336.757 113.423C336.017 112.412 335.647 111.215 335.647 109.834C335.647 108.379 336.03 107.133 336.794 106.097C337.584 105.036 338.681 104.222 340.087 103.655C341.493 103.088 343.121 102.804 344.971 102.804C346.846 102.804 348.486 103.088 349.892 103.655C351.298 104.222 352.396 105.036 353.185 106.097C353.975 107.133 354.369 108.379 354.369 109.834C354.369 111.215 353.999 112.412 353.259 113.423C352.519 114.41 351.446 115.174 350.04 115.717C348.634 116.235 346.945 116.494 344.971 116.494ZM344.971 114.126C346.772 114.126 348.178 113.756 349.189 113.016C350.225 112.276 350.743 111.265 350.743 109.982C350.743 108.675 350.213 107.651 349.152 106.911C348.092 106.171 346.698 105.801 344.971 105.801C343.245 105.801 341.863 106.171 340.827 106.911C339.816 107.651 339.31 108.675 339.31 109.982C339.31 111.265 339.804 112.276 340.79 113.016C341.802 113.756 343.195 114.126 344.971 114.126Z" fill="#292C33" fill-opacity="0.6"/>
<path d="M333.672 187V162.58L335.263 164.319H327.826V161.1H337.335V187H333.672ZM351.362 187.296C349.537 187.296 347.761 187.012 346.034 186.445C344.332 185.878 342.938 185.113 341.853 184.151L343.555 181.228C344.418 182.042 345.541 182.708 346.922 183.226C348.303 183.744 349.771 184.003 351.325 184.003C353.298 184.003 354.815 183.584 355.876 182.745C356.937 181.906 357.467 180.784 357.467 179.378C357.467 178.416 357.233 177.577 356.764 176.862C356.295 176.147 355.481 175.604 354.322 175.234C353.187 174.839 351.621 174.642 349.623 174.642H343.74L345.109 161.1H359.724V164.319H346.478L348.402 162.506L347.329 173.199L345.405 171.423H350.4C352.99 171.423 355.074 171.756 356.653 172.422C358.232 173.088 359.379 174.013 360.094 175.197C360.809 176.356 361.167 177.701 361.167 179.23C361.167 180.71 360.809 182.067 360.094 183.3C359.379 184.509 358.293 185.483 356.838 186.223C355.407 186.938 353.582 187.296 351.362 187.296Z" fill="#292C33" fill-opacity="0.6"/>
<path d="M325.123 245V242.484L335.668 232.309C336.605 231.421 337.296 230.644 337.74 229.978C338.209 229.287 338.517 228.658 338.665 228.091C338.838 227.499 338.924 226.932 338.924 226.389C338.924 225.057 338.455 224.009 337.518 223.244C336.581 222.479 335.212 222.097 333.411 222.097C332.03 222.097 330.784 222.331 329.674 222.8C328.564 223.244 327.602 223.947 326.788 224.909L324.272 222.726C325.259 221.468 326.578 220.506 328.231 219.84C329.908 219.149 331.746 218.804 333.744 218.804C335.545 218.804 337.111 219.1 338.443 219.692C339.775 220.259 340.799 221.086 341.514 222.171C342.254 223.256 342.624 224.539 342.624 226.019C342.624 226.858 342.513 227.684 342.291 228.498C342.069 229.312 341.65 230.175 341.033 231.088C340.416 232.001 339.528 233.024 338.369 234.159L328.971 243.224L328.083 241.781H343.734V245H325.123ZM346.369 245V242.484L356.914 232.309C357.851 231.421 358.542 230.644 358.986 229.978C359.455 229.287 359.763 228.658 359.911 228.091C360.084 227.499 360.17 226.932 360.17 226.389C360.17 225.057 359.701 224.009 358.764 223.244C357.827 222.479 356.458 222.097 354.657 222.097C353.276 222.097 352.03 222.331 350.92 222.8C349.81 223.244 348.848 223.947 348.034 224.909L345.518 222.726C346.505 221.468 347.824 220.506 349.477 219.84C351.154 219.149 352.992 218.804 354.99 218.804C356.791 218.804 358.357 219.1 359.689 219.692C361.021 220.259 362.045 221.086 362.76 222.171C363.5 223.256 363.87 224.539 363.87 226.019C363.87 226.858 363.759 227.684 363.537 228.498C363.315 229.312 362.896 230.175 362.279 231.088C361.662 232.001 360.774 233.024 359.615 234.159L350.217 243.224L349.329 241.781H364.98V245H346.369Z" fill="#292C33" fill-opacity="0.6"/>
<path d="M324.328 303V300.484L334.873 290.309C335.81 289.421 336.501 288.644 336.945 287.978C337.414 287.287 337.722 286.658 337.87 286.091C338.043 285.499 338.129 284.932 338.129 284.389C338.129 283.057 337.66 282.009 336.723 281.244C335.786 280.479 334.417 280.097 332.616 280.097C331.235 280.097 329.989 280.331 328.879 280.8C327.769 281.244 326.807 281.947 325.993 282.909L323.477 280.726C324.464 279.468 325.783 278.506 327.436 277.84C329.113 277.149 330.951 276.804 332.949 276.804C334.75 276.804 336.316 277.1 337.648 277.692C338.98 278.259 340.004 279.086 340.719 280.171C341.459 281.256 341.829 282.539 341.829 284.019C341.829 284.858 341.718 285.684 341.496 286.498C341.274 287.312 340.855 288.175 340.238 289.088C339.621 290.001 338.733 291.024 337.574 292.159L328.176 301.224L327.288 299.781H342.939V303H324.328ZM354.38 276.804C356.723 276.804 358.697 277.31 360.3 278.321C361.928 279.332 363.161 280.8 364 282.724C364.839 284.623 365.258 286.954 365.258 289.717C365.258 292.652 364.74 295.131 363.704 297.154C362.668 299.177 361.237 300.706 359.412 301.742C357.587 302.778 355.453 303.296 353.011 303.296C351.802 303.296 350.631 303.173 349.496 302.926C348.386 302.679 347.412 302.297 346.573 301.779L347.979 298.893C348.67 299.337 349.434 299.658 350.273 299.855C351.136 300.028 352.037 300.114 352.974 300.114C355.589 300.114 357.673 299.3 359.227 297.672C360.781 296.019 361.558 293.577 361.558 290.346C361.558 289.828 361.533 289.211 361.484 288.496C361.435 287.781 361.324 287.078 361.151 286.387L362.372 287.645C362.027 288.78 361.447 289.742 360.633 290.531C359.844 291.296 358.882 291.875 357.747 292.27C356.637 292.64 355.416 292.825 354.084 292.825C352.382 292.825 350.865 292.504 349.533 291.863C348.201 291.222 347.153 290.321 346.388 289.162C345.623 287.978 345.241 286.584 345.241 284.981C345.241 283.304 345.636 281.861 346.425 280.652C347.239 279.419 348.337 278.469 349.718 277.803C351.124 277.137 352.678 276.804 354.38 276.804ZM354.528 279.801C353.418 279.801 352.431 280.011 351.568 280.43C350.705 280.849 350.026 281.429 349.533 282.169C349.064 282.909 348.83 283.797 348.83 284.833C348.83 286.362 349.36 287.583 350.421 288.496C351.482 289.384 352.912 289.828 354.713 289.828C355.897 289.828 356.933 289.606 357.821 289.162C358.734 288.718 359.437 288.114 359.93 287.349C360.448 286.584 360.707 285.733 360.707 284.796C360.707 283.883 360.473 283.057 360.004 282.317C359.535 281.577 358.845 280.973 357.932 280.504C357.019 280.035 355.885 279.801 354.528 279.801Z" fill="#292C33" fill-opacity="0.6"/>
<path d="M399.746 78.5V75.984L410.291 65.809C411.228 64.921 411.919 64.144 412.363 63.478C412.832 62.7873 413.14 62.1583 413.288 61.591C413.461 60.999 413.547 60.4317 413.547 59.889C413.547 58.557 413.078 57.5087 412.141 56.744C411.204 55.9793 409.835 55.597 408.034 55.597C406.653 55.597 405.407 55.8313 404.297 56.3C403.187 56.744 402.225 57.447 401.411 58.409L398.895 56.226C399.882 54.968 401.201 54.006 402.854 53.34C404.531 52.6493 406.369 52.304 408.367 52.304C410.168 52.304 411.734 52.6 413.066 53.192C414.398 53.7593 415.422 54.5857 416.137 55.671C416.877 56.7563 417.247 58.039 417.247 59.519C417.247 60.3577 417.136 61.184 416.914 61.998C416.692 62.812 416.273 63.6753 415.656 64.588C415.039 65.5007 414.151 66.5243 412.992 67.659L403.594 76.724L402.706 75.281H418.357V78.5H399.746Z" fill="#292C33" fill-opacity="0.6"/>
<path d="M407.757 102.804C410.1 102.804 412.074 103.31 413.677 104.321C415.305 105.332 416.538 106.8 417.377 108.724C418.216 110.623 418.635 112.954 418.635 115.717C418.635 118.652 418.117 121.131 417.081 123.154C416.045 125.177 414.614 126.706 412.789 127.742C410.964 128.778 408.83 129.296 406.388 129.296C405.179 129.296 404.008 129.173 402.873 128.926C401.763 128.679 400.789 128.297 399.95 127.779L401.356 124.893C402.047 125.337 402.811 125.658 403.65 125.855C404.513 126.028 405.414 126.114 406.351 126.114C408.966 126.114 411.05 125.3 412.604 123.672C414.158 122.019 414.935 119.577 414.935 116.346C414.935 115.828 414.91 115.211 414.861 114.496C414.812 113.781 414.701 113.078 414.528 112.387L415.749 113.645C415.404 114.78 414.824 115.742 414.01 116.531C413.221 117.296 412.259 117.875 411.124 118.27C410.014 118.64 408.793 118.825 407.461 118.825C405.759 118.825 404.242 118.504 402.91 117.863C401.578 117.222 400.53 116.321 399.765 115.162C399 113.978 398.618 112.584 398.618 110.981C398.618 109.304 399.013 107.861 399.802 106.652C400.616 105.419 401.714 104.469 403.095 103.803C404.501 103.137 406.055 102.804 407.757 102.804ZM407.905 105.801C406.795 105.801 405.808 106.011 404.945 106.43C404.082 106.849 403.403 107.429 402.91 108.169C402.441 108.909 402.207 109.797 402.207 110.833C402.207 112.362 402.737 113.583 403.798 114.496C404.859 115.384 406.289 115.828 408.09 115.828C409.274 115.828 410.31 115.606 411.198 115.162C412.111 114.718 412.814 114.114 413.307 113.349C413.825 112.584 414.084 111.733 414.084 110.796C414.084 109.883 413.85 109.057 413.381 108.317C412.912 107.577 412.222 106.973 411.309 106.504C410.396 106.035 409.262 105.801 407.905 105.801Z" fill="#292C33" fill-opacity="0.6"/>
<path d="M396.877 187V162.58L398.468 164.319H391.031V161.1H400.54V187H396.877ZM417.083 187.296C414.789 187.296 412.828 186.79 411.2 185.779C409.572 184.768 408.327 183.312 407.463 181.413C406.625 179.489 406.205 177.146 406.205 174.383C406.205 171.448 406.723 168.969 407.759 166.946C408.795 164.923 410.238 163.394 412.088 162.358C413.938 161.322 416.06 160.804 418.452 160.804C419.686 160.804 420.857 160.927 421.967 161.174C423.102 161.421 424.076 161.803 424.89 162.321L423.484 165.207C422.818 164.738 422.054 164.418 421.19 164.245C420.352 164.072 419.464 163.986 418.526 163.986C415.887 163.986 413.79 164.812 412.236 166.465C410.682 168.093 409.905 170.523 409.905 173.754C409.905 174.272 409.93 174.889 409.979 175.604C410.029 176.319 410.152 177.022 410.349 177.713L409.091 176.455C409.461 175.32 410.041 174.371 410.83 173.606C411.644 172.817 412.606 172.237 413.716 171.867C414.851 171.472 416.072 171.275 417.379 171.275C419.106 171.275 420.635 171.596 421.967 172.237C423.299 172.878 424.348 173.791 425.112 174.975C425.877 176.134 426.259 177.516 426.259 179.119C426.259 180.772 425.852 182.215 425.038 183.448C424.224 184.681 423.127 185.631 421.745 186.297C420.364 186.963 418.81 187.296 417.083 187.296ZM416.935 184.299C418.07 184.299 419.057 184.089 419.895 183.67C420.759 183.251 421.437 182.671 421.93 181.931C422.424 181.166 422.67 180.278 422.67 179.267C422.67 177.738 422.14 176.529 421.079 175.641C420.019 174.728 418.576 174.272 416.75 174.272C415.566 174.272 414.53 174.494 413.642 174.938C412.754 175.382 412.051 175.986 411.533 176.751C411.04 177.491 410.793 178.342 410.793 179.304C410.793 180.192 411.028 181.018 411.496 181.783C411.965 182.523 412.656 183.127 413.568 183.596C414.481 184.065 415.603 184.299 416.935 184.299Z" fill="#292C33" fill-opacity="0.6"/>
<path d="M389.159 245V242.484L399.704 232.309C400.641 231.421 401.332 230.644 401.776 229.978C402.245 229.287 402.553 228.658 402.701 228.091C402.874 227.499 402.96 226.932 402.96 226.389C402.96 225.057 402.491 224.009 401.554 223.244C400.617 222.479 399.248 222.097 397.447 222.097C396.066 222.097 394.82 222.331 393.71 222.8C392.6 223.244 391.638 223.947 390.824 224.909L388.308 222.726C389.295 221.468 390.614 220.506 392.267 219.84C393.944 219.149 395.782 218.804 397.78 218.804C399.581 218.804 401.147 219.1 402.479 219.692C403.811 220.259 404.835 221.086 405.55 222.171C406.29 223.256 406.66 224.539 406.66 226.019C406.66 226.858 406.549 227.684 406.327 228.498C406.105 229.312 405.686 230.175 405.069 231.088C404.452 232.001 403.564 233.024 402.405 234.159L393.007 243.224L392.119 241.781H407.77V245H389.159ZM418.73 245.296C416.905 245.296 415.129 245.012 413.402 244.445C411.7 243.878 410.306 243.113 409.221 242.151L410.923 239.228C411.786 240.042 412.909 240.708 414.29 241.226C415.671 241.744 417.151 242.003 418.73 242.003C420.654 242.003 422.146 241.596 423.207 240.782C424.292 239.943 424.835 238.821 424.835 237.415C424.835 236.058 424.317 234.973 423.281 234.159C422.27 233.32 420.654 232.901 418.434 232.901H416.362V230.311L424.058 220.839L424.576 222.319H410.405V219.1H427.499V221.616L419.84 231.051L417.916 229.904H419.137C422.27 229.904 424.613 230.607 426.167 232.013C427.746 233.419 428.535 235.207 428.535 237.378C428.535 238.833 428.177 240.165 427.462 241.374C426.747 242.583 425.661 243.545 424.206 244.26C422.775 244.951 420.95 245.296 418.73 245.296Z" fill="#292C33" fill-opacity="0.6"/>
<path d="M395.768 303.296C393.942 303.296 392.166 303.012 390.44 302.445C388.738 301.878 387.344 301.113 386.259 300.151L387.961 297.228C388.824 298.042 389.946 298.708 391.328 299.226C392.709 299.744 394.189 300.003 395.768 300.003C397.692 300.003 399.184 299.596 400.245 298.782C401.33 297.943 401.873 296.821 401.873 295.415C401.873 294.058 401.355 292.973 400.319 292.159C399.307 291.32 397.692 290.901 395.472 290.901H393.4V288.311L401.096 278.839L401.614 280.319H387.443V277.1H404.537V279.616L396.878 289.051L394.954 287.904H396.175C399.307 287.904 401.651 288.607 403.205 290.013C404.783 291.419 405.573 293.207 405.573 295.378C405.573 296.833 405.215 298.165 404.5 299.374C403.784 300.583 402.699 301.545 401.244 302.26C399.813 302.951 397.988 303.296 395.768 303.296ZM419.606 303.296C417.583 303.296 415.77 302.778 414.167 301.742C412.588 300.706 411.33 299.201 410.393 297.228C409.48 295.255 409.024 292.862 409.024 290.05C409.024 287.238 409.48 284.845 410.393 282.872C411.33 280.899 412.588 279.394 414.167 278.358C415.77 277.322 417.583 276.804 419.606 276.804C421.604 276.804 423.404 277.322 425.008 278.358C426.611 279.394 427.869 280.899 428.782 282.872C429.694 284.845 430.151 287.238 430.151 290.05C430.151 292.862 429.694 295.255 428.782 297.228C427.869 299.201 426.611 300.706 425.008 301.742C423.404 302.778 421.604 303.296 419.606 303.296ZM419.606 300.003C420.962 300.003 422.146 299.633 423.158 298.893C424.194 298.153 424.995 297.043 425.563 295.563C426.155 294.083 426.451 292.245 426.451 290.05C426.451 287.855 426.155 286.017 425.563 284.537C424.995 283.057 424.194 281.947 423.158 281.207C422.146 280.467 420.962 280.097 419.606 280.097C418.249 280.097 417.053 280.467 416.017 281.207C414.981 281.947 414.167 283.057 413.575 284.537C413.007 286.017 412.724 287.855 412.724 290.05C412.724 292.245 413.007 294.083 413.575 295.563C414.167 297.043 414.981 298.153 416.017 298.893C417.053 299.633 418.249 300.003 419.606 300.003Z" fill="#292C33" fill-opacity="0.6"/>
<path d="M24.0671 129.296C22.2418 129.296 20.4658 129.012 18.7391 128.445C17.0371 127.878 15.6434 127.113 14.5581 126.151L16.2601 123.228C17.1234 124.042 18.2458 124.708 19.6271 125.226C21.0084 125.744 22.4884 126.003 24.0671 126.003C25.9911 126.003 27.4834 125.596 28.5441 124.782C29.6294 123.943 30.1721 122.821 30.1721 121.415C30.1721 120.058 29.6541 118.973 28.6181 118.159C27.6068 117.32 25.9911 116.901 23.7711 116.901H21.6991V114.311L29.3951 104.839L29.9131 106.319H15.7421V103.1H32.8361V105.616L25.1771 115.051L23.2531 113.904H24.4741C27.6068 113.904 29.9501 114.607 31.5041 116.013C33.0828 117.419 33.8721 119.207 33.8721 121.378C33.8721 122.833 33.5144 124.165 32.7991 125.374C32.0838 126.583 30.9984 127.545 29.5431 128.26C28.1124 128.951 26.2871 129.296 24.0671 129.296Z" fill="#292C33" fill-opacity="0.6"/>
<path d="M11.9156 187V162.58L13.5066 164.319H6.06958V161.1H15.5786V187H11.9156ZM31.8259 187.296C29.8033 187.296 27.9903 186.778 26.3869 185.742C24.8083 184.706 23.5503 183.201 22.6129 181.228C21.7003 179.255 21.2439 176.862 21.2439 174.05C21.2439 171.238 21.7003 168.845 22.6129 166.872C23.5503 164.899 24.8083 163.394 26.3869 162.358C27.9903 161.322 29.8033 160.804 31.8259 160.804C33.8239 160.804 35.6246 161.322 37.2279 162.358C38.8313 163.394 40.0893 164.899 41.0019 166.872C41.9146 168.845 42.3709 171.238 42.3709 174.05C42.3709 176.862 41.9146 179.255 41.0019 181.228C40.0893 183.201 38.8313 184.706 37.2279 185.742C35.6246 186.778 33.8239 187.296 31.8259 187.296ZM31.8259 184.003C33.1826 184.003 34.3666 183.633 35.3779 182.893C36.4139 182.153 37.2156 181.043 37.7829 179.563C38.3749 178.083 38.6709 176.245 38.6709 174.05C38.6709 171.855 38.3749 170.017 37.7829 168.537C37.2156 167.057 36.4139 165.947 35.3779 165.207C34.3666 164.467 33.1826 164.097 31.8259 164.097C30.4693 164.097 29.2729 164.467 28.2369 165.207C27.2009 165.947 26.3869 167.057 25.7949 168.537C25.2276 170.017 24.9439 171.855 24.9439 174.05C24.9439 176.245 25.2276 178.083 25.7949 179.563C26.3869 181.043 27.2009 182.153 28.2369 182.893C29.2729 183.633 30.4693 184.003 31.8259 184.003Z" fill="#292C33" fill-opacity="0.6"/>
<path d="M13.1983 245V220.58L14.7893 222.319H7.35229V219.1H16.8613V245H13.1983ZM27.0036 245L37.9926 220.654L38.9546 222.319H23.5626L25.4126 220.506V226.944H21.8606V219.1H41.3966V221.616L30.9256 245H27.0036Z" fill="white"/>
<path d="M3.69182 303V300.484L14.2368 290.309C15.1741 289.421 15.8648 288.644 16.3088 287.978C16.7775 287.287 17.0858 286.658 17.2338 286.091C17.4065 285.499 17.4928 284.932 17.4928 284.389C17.4928 283.057 17.0241 282.009 16.0868 281.244C15.1495 280.479 13.7805 280.097 11.9798 280.097C10.5985 280.097 9.35282 280.331 8.24282 280.8C7.13282 281.244 6.17082 281.947 5.35682 282.909L2.84082 280.726C3.82748 279.468 5.14715 278.506 6.79982 277.84C8.47715 277.149 10.3148 276.804 12.3128 276.804C14.1135 276.804 15.6798 277.1 17.0118 277.692C18.3438 278.259 19.3675 279.086 20.0828 280.171C20.8228 281.256 21.1928 282.539 21.1928 284.019C21.1928 284.858 21.0818 285.684 20.8598 286.498C20.6378 287.312 20.2185 288.175 19.6018 289.088C18.9851 290.001 18.0971 291.024 16.9378 292.159L7.53982 301.224L6.65182 299.781H22.3028V303H3.69182ZM24.2522 296.636V294.046L37.4982 277.1H41.4942L28.3592 294.046L26.4722 293.454H47.1552V296.636H24.2522ZM38.6452 303V296.636L38.7562 293.454V287.83H42.2342V303H38.6452Z" fill="#292C33" fill-opacity="0.6"/>
<path d="M17.2199 361.296C15.3946 361.296 13.6186 361.012 11.8919 360.445C10.1899 359.878 8.79628 359.113 7.71094 358.151L9.41294 355.228C10.2763 356.042 11.3986 356.708 12.7799 357.226C14.1613 357.744 15.6413 358.003 17.2199 358.003C19.1439 358.003 20.6363 357.596 21.6969 356.782C22.7823 355.943 23.3249 354.821 23.3249 353.415C23.3249 352.058 22.8069 350.973 21.7709 350.159C20.7596 349.32 19.1439 348.901 16.9239 348.901H14.8519V346.311L22.5479 336.839L23.0659 338.319H8.89494V335.1H25.9889V337.616L18.3299 347.051L16.4059 345.904H17.6269C20.7596 345.904 23.1029 346.607 24.6569 348.013C26.2356 349.419 27.0249 351.207 27.0249 353.378C27.0249 354.833 26.6673 356.165 25.9519 357.374C25.2366 358.583 24.1513 359.545 22.6959 360.26C21.2653 360.951 19.4399 361.296 17.2199 361.296ZM34.8418 361V336.58L36.4328 338.319H28.9958V335.1H38.5048V361H34.8418Z" fill="#292C33" fill-opacity="0.6"/>
<path d="M77.4907 122.636V120.046L90.7367 103.1H94.7327L81.5977 120.046L79.7107 119.454H100.394V122.636H77.4907ZM91.8837 129V122.636L91.9947 119.454V113.83H95.4727V129H91.8837Z" fill="#292C33" fill-opacity="0.6"/>
<path d="M80.908 187V162.58L82.499 164.319H75.062V161.1H84.571V187H80.908ZM94.6023 187V162.58L96.1933 164.319H88.7563V161.1H98.2653V187H94.6023Z" fill="#292C33" fill-opacity="0.6"/>
<path d="M75.8494 245V220.58L77.4404 222.319H70.0034V219.1H79.5124V245H75.8494ZM95.2787 245.296C93.182 245.296 91.369 244.988 89.8397 244.371C88.3104 243.754 87.1264 242.879 86.2877 241.744C85.449 240.585 85.0297 239.228 85.0297 237.674C85.0297 236.145 85.4244 234.85 86.2137 233.789C87.0277 232.704 88.1994 231.89 89.7287 231.347C91.258 230.78 93.108 230.496 95.2787 230.496C97.4494 230.496 99.2994 230.78 100.829 231.347C102.383 231.89 103.567 232.704 104.381 233.789C105.195 234.874 105.602 236.169 105.602 237.674C105.602 239.228 105.182 240.585 104.344 241.744C103.505 242.879 102.309 243.754 100.755 244.371C99.2007 244.988 97.3754 245.296 95.2787 245.296ZM95.2787 242.299C97.3507 242.299 98.9664 241.88 100.126 241.041C101.31 240.178 101.902 239.018 101.902 237.563C101.902 236.132 101.31 235.01 100.126 234.196C98.9664 233.357 97.3507 232.938 95.2787 232.938C93.2314 232.938 91.628 233.357 90.4687 234.196C89.3094 235.01 88.7297 236.132 88.7297 237.563C88.7297 239.018 89.3094 240.178 90.4687 241.041C91.628 241.88 93.2314 242.299 95.2787 242.299ZM95.2787 232.494C93.3054 232.494 91.628 232.235 90.2467 231.717C88.8654 231.174 87.8047 230.41 87.0647 229.423C86.3247 228.412 85.9547 227.215 85.9547 225.834C85.9547 224.379 86.337 223.133 87.1017 222.097C87.891 221.036 88.9887 220.222 90.3947 219.655C91.8007 219.088 93.4287 218.804 95.2787 218.804C97.1534 218.804 98.7937 219.088 100.2 219.655C101.606 220.222 102.703 221.036 103.493 222.097C104.282 223.133 104.677 224.379 104.677 225.834C104.677 227.215 104.307 228.412 103.567 229.423C102.827 230.41 101.754 231.174 100.348 231.717C98.9417 232.235 97.252 232.494 95.2787 232.494ZM95.2787 230.126C97.0794 230.126 98.4854 229.756 99.4967 229.016C100.533 228.276 101.051 227.265 101.051 225.982C101.051 224.675 100.52 223.651 99.4597 222.911C98.399 222.171 97.0054 221.801 95.2787 221.801C93.552 221.801 92.1707 222.171 91.1347 222.911C90.1234 223.651 89.6177 224.675 89.6177 225.982C89.6177 227.265 90.111 228.276 91.0977 229.016C92.109 229.756 93.5027 230.126 95.2787 230.126Z" fill="#292C33" fill-opacity="0.6"/>
<path d="M68.5832 303V300.484L79.1282 290.309C80.0655 289.421 80.7562 288.644 81.2002 287.978C81.6689 287.287 81.9772 286.658 82.1252 286.091C82.2979 285.499 82.3842 284.932 82.3842 284.389C82.3842 283.057 81.9155 282.009 80.9782 281.244C80.0409 280.479 78.6719 280.097 76.8712 280.097C75.4899 280.097 74.2442 280.331 73.1342 280.8C72.0242 281.244 71.0622 281.947 70.2482 282.909L67.7322 280.726C68.7189 279.468 70.0385 278.506 71.6912 277.84C73.3685 277.149 75.2062 276.804 77.2042 276.804C79.0049 276.804 80.5712 277.1 81.9032 277.692C83.2352 278.259 84.2589 279.086 84.9742 280.171C85.7142 281.256 86.0842 282.539 86.0842 284.019C86.0842 284.858 85.9732 285.684 85.7512 286.498C85.5292 287.312 85.1099 288.175 84.4932 289.088C83.8765 290.001 82.9885 291.024 81.8292 292.159L72.4312 301.224L71.5432 299.781H87.1942V303H68.5832ZM98.5983 303.296C96.773 303.296 94.997 303.012 93.2703 302.445C91.5683 301.878 90.1746 301.113 89.0893 300.151L90.7913 297.228C91.6546 298.042 92.777 298.708 94.1583 299.226C95.5396 299.744 97.0073 300.003 98.5613 300.003C100.535 300.003 102.052 299.584 103.112 298.745C104.173 297.906 104.703 296.784 104.703 295.378C104.703 294.416 104.469 293.577 104 292.862C103.532 292.147 102.718 291.604 101.558 291.234C100.424 290.839 98.8573 290.642 96.8593 290.642H90.9763L92.3453 277.1H106.96V280.319H93.7143L95.6383 278.506L94.5653 289.199L92.6413 287.423H97.6363C100.226 287.423 102.311 287.756 103.889 288.422C105.468 289.088 106.615 290.013 107.33 291.197C108.046 292.356 108.403 293.701 108.403 295.23C108.403 296.71 108.046 298.067 107.33 299.3C106.615 300.509 105.53 301.483 104.074 302.223C102.644 302.938 100.818 303.296 98.5983 303.296Z" fill="#292C33" fill-opacity="0.6"/>
<path d="M151.935 129.296C150.11 129.296 148.334 129.012 146.607 128.445C144.905 127.878 143.512 127.113 142.426 126.151L144.128 123.228C144.992 124.042 146.114 124.708 147.495 125.226C148.877 125.744 150.344 126.003 151.898 126.003C153.872 126.003 155.389 125.584 156.449 124.745C157.51 123.906 158.04 122.784 158.04 121.378C158.04 120.416 157.806 119.577 157.337 118.862C156.869 118.147 156.055 117.604 154.895 117.234C153.761 116.839 152.194 116.642 150.196 116.642H144.313L145.682 103.1H160.297V106.319H147.051L148.975 104.506L147.902 115.199L145.978 113.423H150.973C153.563 113.423 155.648 113.756 157.226 114.422C158.805 115.088 159.952 116.013 160.667 117.197C161.383 118.356 161.74 119.701 161.74 121.23C161.74 122.71 161.383 124.067 160.667 125.3C159.952 126.509 158.867 127.483 157.411 128.223C155.981 128.938 154.155 129.296 151.935 129.296Z" fill="#292C33" fill-opacity="0.6"/>
<path d="M141.092 187V162.58L142.683 164.319H135.246V161.1H144.755V187H141.092ZM150.014 187V184.484L160.559 174.309C161.496 173.421 162.187 172.644 162.631 171.978C163.099 171.287 163.408 170.658 163.556 170.091C163.728 169.499 163.815 168.932 163.815 168.389C163.815 167.057 163.346 166.009 162.409 165.244C161.471 164.479 160.102 164.097 158.302 164.097C156.92 164.097 155.675 164.331 154.565 164.8C153.455 165.244 152.493 165.947 151.679 166.909L149.163 164.726C150.149 163.468 151.469 162.506 153.122 161.84C154.799 161.149 156.637 160.804 158.635 160.804C160.435 160.804 162.002 161.1 163.334 161.692C164.666 162.259 165.689 163.086 166.405 164.171C167.145 165.256 167.515 166.539 167.515 168.019C167.515 168.858 167.404 169.684 167.182 170.498C166.96 171.312 166.54 172.175 165.924 173.088C165.307 174.001 164.419 175.024 163.26 176.159L153.862 185.224L152.974 183.781H168.625V187H150.014Z" fill="#292C33" fill-opacity="0.6"/>
<path d="M140.297 245V220.58L141.888 222.319H134.451V219.1H143.96V245H140.297ZM158.025 218.804C160.368 218.804 162.341 219.31 163.945 220.321C165.573 221.332 166.806 222.8 167.645 224.724C168.483 226.623 168.903 228.954 168.903 231.717C168.903 234.652 168.385 237.131 167.349 239.154C166.313 241.177 164.882 242.706 163.057 243.742C161.231 244.778 159.098 245.296 156.656 245.296C155.447 245.296 154.275 245.173 153.141 244.926C152.031 244.679 151.056 244.297 150.218 243.779L151.624 240.893C152.314 241.337 153.079 241.658 153.918 241.855C154.781 242.028 155.681 242.114 156.619 242.114C159.233 242.114 161.318 241.3 162.872 239.672C164.426 238.019 165.203 235.577 165.203 232.346C165.203 231.828 165.178 231.211 165.129 230.496C165.079 229.781 164.968 229.078 164.796 228.387L166.017 229.645C165.671 230.78 165.092 231.742 164.278 232.531C163.488 233.296 162.526 233.875 161.392 234.27C160.282 234.64 159.061 234.825 157.729 234.825C156.027 234.825 154.51 234.504 153.178 233.863C151.846 233.222 150.797 232.321 150.033 231.162C149.268 229.978 148.886 228.584 148.886 226.981C148.886 225.304 149.28 223.861 150.07 222.652C150.884 221.419 151.981 220.469 153.363 219.803C154.769 219.137 156.323 218.804 158.025 218.804ZM158.173 221.801C157.063 221.801 156.076 222.011 155.213 222.43C154.349 222.849 153.671 223.429 153.178 224.169C152.709 224.909 152.475 225.797 152.475 226.833C152.475 228.362 153.005 229.583 154.066 230.496C155.126 231.384 156.557 231.828 158.358 231.828C159.542 231.828 160.578 231.606 161.466 231.162C162.378 230.718 163.081 230.114 163.575 229.349C164.093 228.584 164.352 227.733 164.352 226.796C164.352 225.883 164.117 225.057 163.649 224.317C163.18 223.577 162.489 222.973 161.577 222.504C160.664 222.035 159.529 221.801 158.173 221.801Z" fill="#292C33" fill-opacity="0.6"/>
<path d="M131.766 303V300.484L142.311 290.309C143.249 289.421 143.939 288.644 144.383 287.978C144.852 287.287 145.16 286.658 145.308 286.091C145.481 285.499 145.567 284.932 145.567 284.389C145.567 283.057 145.099 282.009 144.161 281.244C143.224 280.479 141.855 280.097 140.054 280.097C138.673 280.097 137.427 280.331 136.317 280.8C135.207 281.244 134.245 281.947 133.431 282.909L130.915 280.726C131.902 279.468 133.222 278.506 134.874 277.84C136.552 277.149 138.389 276.804 140.387 276.804C142.188 276.804 143.754 277.1 145.086 277.692C146.418 278.259 147.442 279.086 148.157 280.171C148.897 281.256 149.267 282.539 149.267 284.019C149.267 284.858 149.156 285.684 148.934 286.498C148.712 287.312 148.293 288.175 147.676 289.088C147.06 290.001 146.172 291.024 145.012 292.159L135.614 301.224L134.726 299.781H150.377V303H131.766ZM164.261 303.296C161.967 303.296 160.006 302.79 158.378 301.779C156.75 300.768 155.505 299.312 154.641 297.413C153.803 295.489 153.383 293.146 153.383 290.383C153.383 287.448 153.901 284.969 154.937 282.946C155.973 280.923 157.416 279.394 159.266 278.358C161.116 277.322 163.238 276.804 165.63 276.804C166.864 276.804 168.035 276.927 169.145 277.174C170.28 277.421 171.254 277.803 172.068 278.321L170.662 281.207C169.996 280.738 169.232 280.418 168.368 280.245C167.53 280.072 166.642 279.986 165.704 279.986C163.065 279.986 160.968 280.812 159.414 282.465C157.86 284.093 157.083 286.523 157.083 289.754C157.083 290.272 157.108 290.889 157.157 291.604C157.207 292.319 157.33 293.022 157.527 293.713L156.269 292.455C156.639 291.32 157.219 290.371 158.008 289.606C158.822 288.817 159.784 288.237 160.894 287.867C162.029 287.472 163.25 287.275 164.557 287.275C166.284 287.275 167.813 287.596 169.145 288.237C170.477 288.878 171.526 289.791 172.29 290.975C173.055 292.134 173.437 293.516 173.437 295.119C173.437 296.772 173.03 298.215 172.216 299.448C171.402 300.681 170.305 301.631 168.923 302.297C167.542 302.963 165.988 303.296 164.261 303.296ZM164.113 300.299C165.248 300.299 166.235 300.089 167.073 299.67C167.937 299.251 168.615 298.671 169.108 297.931C169.602 297.166 169.848 296.278 169.848 295.267C169.848 293.738 169.318 292.529 168.257 291.641C167.197 290.728 165.754 290.272 163.928 290.272C162.744 290.272 161.708 290.494 160.82 290.938C159.932 291.382 159.229 291.986 158.711 292.751C158.218 293.491 157.971 294.342 157.971 295.304C157.971 296.192 158.206 297.018 158.674 297.783C159.143 298.523 159.834 299.127 160.746 299.596C161.659 300.065 162.781 300.299 164.113 300.299Z" fill="#292C33" fill-opacity="0.6"/>
<path d="M217.196 129.296C214.902 129.296 212.941 128.79 211.313 127.779C209.685 126.768 208.44 125.312 207.576 123.413C206.738 121.489 206.318 119.146 206.318 116.383C206.318 113.448 206.836 110.969 207.872 108.946C208.908 106.923 210.351 105.394 212.201 104.358C214.051 103.322 216.173 102.804 218.565 102.804C219.799 102.804 220.97 102.927 222.08 103.174C223.215 103.421 224.189 103.803 225.003 104.321L223.597 107.207C222.931 106.738 222.167 106.418 221.303 106.245C220.465 106.072 219.577 105.986 218.639 105.986C216 105.986 213.903 106.812 212.349 108.465C210.795 110.093 210.018 112.523 210.018 115.754C210.018 116.272 210.043 116.889 210.092 117.604C210.142 118.319 210.265 119.022 210.462 119.713L209.204 118.455C209.574 117.32 210.154 116.371 210.943 115.606C211.757 114.817 212.719 114.237 213.829 113.867C214.964 113.472 216.185 113.275 217.492 113.275C219.219 113.275 220.748 113.596 222.08 114.237C223.412 114.878 224.461 115.791 225.225 116.975C225.99 118.134 226.372 119.516 226.372 121.119C226.372 122.772 225.965 124.215 225.151 125.448C224.337 126.681 223.24 127.631 221.858 128.297C220.477 128.963 218.923 129.296 217.196 129.296ZM217.048 126.299C218.183 126.299 219.17 126.089 220.008 125.67C220.872 125.251 221.55 124.671 222.043 123.931C222.537 123.166 222.783 122.278 222.783 121.267C222.783 119.738 222.253 118.529 221.192 117.641C220.132 116.728 218.689 116.272 216.863 116.272C215.679 116.272 214.643 116.494 213.755 116.938C212.867 117.382 212.164 117.986 211.646 118.751C211.153 119.491 210.906 120.342 210.906 121.304C210.906 122.192 211.141 123.018 211.609 123.783C212.078 124.523 212.769 125.127 213.681 125.596C214.594 126.065 215.716 126.299 217.048 126.299Z" fill="#292C33" fill-opacity="0.6"/>
<path d="M204.668 187V162.58L206.259 164.319H198.822V161.1H208.331V187H204.668ZM221.914 187.296C220.089 187.296 218.313 187.012 216.586 186.445C214.884 185.878 213.491 185.113 212.405 184.151L214.107 181.228C214.971 182.042 216.093 182.708 217.474 183.226C218.856 183.744 220.336 184.003 221.914 184.003C223.838 184.003 225.331 183.596 226.391 182.782C227.477 181.943 228.019 180.821 228.019 179.415C228.019 178.058 227.501 176.973 226.465 176.159C225.454 175.32 223.838 174.901 221.618 174.901H219.546V172.311L227.242 162.839L227.76 164.319H213.589V161.1H230.683V163.616L223.024 173.051L221.1 171.904H222.321C225.454 171.904 227.797 172.607 229.351 174.013C230.93 175.419 231.719 177.207 231.719 179.378C231.719 180.833 231.362 182.165 230.646 183.374C229.931 184.583 228.846 185.545 227.39 186.26C225.96 186.951 224.134 187.296 221.914 187.296Z" fill="#292C33" fill-opacity="0.6"/>
<path d="M194.385 245V242.484L204.93 232.309C205.867 231.421 206.558 230.644 207.002 229.978C207.471 229.287 207.779 228.658 207.927 228.091C208.1 227.499 208.186 226.932 208.186 226.389C208.186 225.057 207.717 224.009 206.78 223.244C205.843 222.479 204.474 222.097 202.673 222.097C201.292 222.097 200.046 222.331 198.936 222.8C197.826 223.244 196.864 223.947 196.05 224.909L193.534 222.726C194.521 221.468 195.84 220.506 197.493 219.84C199.17 219.149 201.008 218.804 203.006 218.804C204.807 218.804 206.373 219.1 207.705 219.692C209.037 220.259 210.061 221.086 210.776 222.171C211.516 223.256 211.886 224.539 211.886 226.019C211.886 226.858 211.775 227.684 211.553 228.498C211.331 229.312 210.912 230.175 210.295 231.088C209.678 232.001 208.79 233.024 207.631 234.159L198.233 243.224L197.345 241.781H212.996V245H194.385ZM226.584 245.296C224.561 245.296 222.748 244.778 221.145 243.742C219.566 242.706 218.308 241.201 217.371 239.228C216.458 237.255 216.002 234.862 216.002 232.05C216.002 229.238 216.458 226.845 217.371 224.872C218.308 222.899 219.566 221.394 221.145 220.358C222.748 219.322 224.561 218.804 226.584 218.804C228.582 218.804 230.382 219.322 231.986 220.358C233.589 221.394 234.847 222.899 235.76 224.872C236.672 226.845 237.129 229.238 237.129 232.05C237.129 234.862 236.672 237.255 235.76 239.228C234.847 241.201 233.589 242.706 231.986 243.742C230.382 244.778 228.582 245.296 226.584 245.296ZM226.584 242.003C227.94 242.003 229.124 241.633 230.136 240.893C231.172 240.153 231.973 239.043 232.541 237.563C233.133 236.083 233.429 234.245 233.429 232.05C233.429 229.855 233.133 228.017 232.541 226.537C231.973 225.057 231.172 223.947 230.136 223.207C229.124 222.467 227.94 222.097 226.584 222.097C225.227 222.097 224.031 222.467 222.995 223.207C221.959 223.947 221.145 225.057 220.553 226.537C219.985 228.017 219.702 229.855 219.702 232.05C219.702 234.245 219.985 236.083 220.553 237.563C221.145 239.043 221.959 240.153 222.995 240.893C224.031 241.633 225.227 242.003 226.584 242.003Z" fill="#292C33" fill-opacity="0.6"/>
<path d="M195.668 303V300.484L206.213 290.309C207.15 289.421 207.841 288.644 208.285 287.978C208.753 287.287 209.062 286.658 209.21 286.091C209.382 285.499 209.469 284.932 209.469 284.389C209.469 283.057 209 282.009 208.063 281.244C207.125 280.479 205.756 280.097 203.956 280.097C202.574 280.097 201.329 280.331 200.219 280.8C199.109 281.244 198.147 281.947 197.333 282.909L194.817 280.726C195.803 279.468 197.123 278.506 198.776 277.84C200.453 277.149 202.291 276.804 204.289 276.804C206.089 276.804 207.656 277.1 208.988 277.692C210.32 278.259 211.343 279.086 212.059 280.171C212.799 281.256 213.169 282.539 213.169 284.019C213.169 284.858 213.058 285.684 212.836 286.498C212.614 287.312 212.194 288.175 211.578 289.088C210.961 290.001 210.073 291.024 208.914 292.159L199.516 301.224L198.628 299.781H214.279V303H195.668ZM221.762 303L232.751 278.654L233.713 280.319H218.321L220.171 278.506V284.944H216.619V277.1H236.155V279.616L225.684 303H221.762Z" fill="#292C33" fill-opacity="0.6"/>
<path d="M267.88 187V162.58L269.471 164.319H262.034V161.1H271.543V187H267.88ZM276.838 180.636V178.046L290.084 161.1H294.08L280.945 178.046L279.058 177.454H299.741V180.636H276.838ZM291.231 187V180.636L291.342 177.454V171.83H294.82V187H291.231Z" fill="#292C33" fill-opacity="0.6"/>
<path d="M264.859 245V242.484L275.404 232.309C276.341 231.421 277.032 230.644 277.476 229.978C277.945 229.287 278.253 228.658 278.401 228.091C278.574 227.499 278.66 226.932 278.66 226.389C278.66 225.057 278.191 224.009 277.254 223.244C276.317 222.479 274.948 222.097 273.147 222.097C271.766 222.097 270.52 222.331 269.41 222.8C268.3 223.244 267.338 223.947 266.524 224.909L264.008 222.726C264.995 221.468 266.314 220.506 267.967 219.84C269.644 219.149 271.482 218.804 273.48 218.804C275.281 218.804 276.847 219.1 278.179 219.692C279.511 220.259 280.535 221.086 281.25 222.171C281.99 223.256 282.36 224.539 282.36 226.019C282.36 226.858 282.249 227.684 282.027 228.498C281.805 229.312 281.386 230.175 280.769 231.088C280.152 232.001 279.264 233.024 278.105 234.159L268.707 243.224L267.819 241.781H283.47V245H264.859ZM290.878 245V220.58L292.469 222.319H285.032V219.1H294.541V245H290.878Z" fill="#292C33" fill-opacity="0.6"/>
<path d="M259.8 303V300.484L270.345 290.309C271.283 289.421 271.973 288.644 272.417 287.978C272.886 287.287 273.194 286.658 273.342 286.091C273.515 285.499 273.601 284.932 273.601 284.389C273.601 283.057 273.133 282.009 272.195 281.244C271.258 280.479 269.889 280.097 268.088 280.097C266.707 280.097 265.461 280.331 264.351 280.8C263.241 281.244 262.279 281.947 261.465 282.909L258.949 280.726C259.936 279.468 261.256 278.506 262.908 277.84C264.586 277.149 266.423 276.804 268.421 276.804C270.222 276.804 271.788 277.1 273.12 277.692C274.452 278.259 275.476 279.086 276.191 280.171C276.931 281.256 277.301 282.539 277.301 284.019C277.301 284.858 277.19 285.684 276.968 286.498C276.746 287.312 276.327 288.175 275.71 289.088C275.094 290.001 274.206 291.024 273.046 292.159L263.648 301.224L262.76 299.781H278.411V303H259.8ZM291.554 303.296C289.458 303.296 287.645 302.988 286.115 302.371C284.586 301.754 283.402 300.879 282.563 299.744C281.725 298.585 281.305 297.228 281.305 295.674C281.305 294.145 281.7 292.85 282.489 291.789C283.303 290.704 284.475 289.89 286.004 289.347C287.534 288.78 289.384 288.496 291.554 288.496C293.725 288.496 295.575 288.78 297.104 289.347C298.658 289.89 299.842 290.704 300.656 291.789C301.47 292.874 301.877 294.169 301.877 295.674C301.877 297.228 301.458 298.585 300.619 299.744C299.781 300.879 298.584 301.754 297.03 302.371C295.476 302.988 293.651 303.296 291.554 303.296ZM291.554 300.299C293.626 300.299 295.242 299.88 296.401 299.041C297.585 298.178 298.177 297.018 298.177 295.563C298.177 294.132 297.585 293.01 296.401 292.196C295.242 291.357 293.626 290.938 291.554 290.938C289.507 290.938 287.904 291.357 286.744 292.196C285.585 293.01 285.005 294.132 285.005 295.563C285.005 297.018 285.585 298.178 286.744 299.041C287.904 299.88 289.507 300.299 291.554 300.299ZM291.554 290.494C289.581 290.494 287.904 290.235 286.522 289.717C285.141 289.174 284.08 288.41 283.34 287.423C282.6 286.412 282.23 285.215 282.23 283.834C282.23 282.379 282.613 281.133 283.377 280.097C284.167 279.036 285.264 278.222 286.67 277.655C288.076 277.088 289.704 276.804 291.554 276.804C293.429 276.804 295.069 277.088 296.475 277.655C297.881 278.222 298.979 279.036 299.768 280.097C300.558 281.133 300.952 282.379 300.952 283.834C300.952 285.215 300.582 286.412 299.842 287.423C299.102 288.41 298.029 289.174 296.623 289.717C295.217 290.235 293.528 290.494 291.554 290.494ZM291.554 288.126C293.355 288.126 294.761 287.756 295.772 287.016C296.808 286.276 297.326 285.265 297.326 283.982C297.326 282.675 296.796 281.651 295.735 280.911C294.675 280.171 293.281 279.801 291.554 279.801C289.828 279.801 288.446 280.171 287.41 280.911C286.399 281.651 285.893 282.675 285.893 283.982C285.893 285.265 286.387 286.276 287.373 287.016C288.385 287.756 289.778 288.126 291.554 288.126Z" fill="#292C33" fill-opacity="0.6"/>
<path d="M276.157 129L287.146 104.654L288.108 106.319H272.716L274.566 104.506V110.944H271.014V103.1H290.55V105.616L280.079 129H276.157Z" fill="#292C33" fill-opacity="0.6"/>
</g>
</g>
</g>
<defs>
<clipPath id="clip0_3525_5357">
<rect width="431" height="363" fill="white" transform="translate(0.5)"/>
</clipPath>
</defs>
</svg>
