<svg width="431" height="317" viewBox="0 0 431 317" fill="none" xmlns="http://www.w3.org/2000/svg">
<g clip-path="url(#clip0_525_2678)">
<rect width="57" height="47" transform="translate(122.519 272)" fill="#3C78EC"/>
<path d="M22.9564 20.7264H20.3476V3.36139H10.8906V20.7264H8.2002V1.32324H22.8749V20.7264H22.9564Z" fill="#B3B3B3"/>
<path d="M38.7725 20.7264H36.1636V14.6119H29.7231V20.7264H27.1143V6.29626H29.7231V12.5738H36.1636V6.29626H38.7725V20.7264Z" fill="#B3B3B3"/>
<path d="M73 20.7264V1.32324H79.359C81.3972 1.32324 82.9462 1.73087 84.0875 2.62766C85.2289 3.52444 85.7996 4.82886 85.7996 6.5409C85.7996 7.35616 85.555 8.08989 85.0658 8.82363C84.5767 9.55736 83.8429 9.96499 83.0277 10.2911C84.3321 10.4541 85.3104 11.0248 86.0441 11.9216C86.7779 12.8184 87.1855 13.9598 87.1855 15.1826C87.1855 16.9762 86.6148 18.2806 85.4735 19.2589C84.3321 20.2373 82.7831 20.6449 80.745 20.6449H73V20.7264ZM75.6904 9.55736H79.9297C80.908 9.55736 81.7233 9.31278 82.294 8.7421C82.9462 8.17142 83.1907 7.43769 83.1907 6.45937C83.1907 5.39954 82.8646 4.6658 82.2124 4.09512C81.5602 3.60597 80.5819 3.27986 79.359 3.27986H75.6904V9.55736ZM75.6904 11.5955V18.6067H80.745C81.9678 18.6067 82.8646 18.2806 83.5168 17.71C84.1691 17.1393 84.4952 16.2425 84.4952 15.1826C84.4952 14.1228 84.1691 13.226 83.5168 12.5738C82.8646 11.9216 81.9678 11.5955 80.745 11.514H80.5819H75.6904V11.5955Z" fill="#B3B3B3"/>
<path d="M101.126 8.33441H96.3978V20.7264H93.7889V8.33441H89.0604V6.29626H101.126V8.33441Z" fill="#B3B3B3"/>
<path d="M150.512 14.5304C150.593 16.4055 149.941 17.9545 148.637 19.1773C147.332 20.4002 145.62 21.0524 143.419 21.0524C141.218 21.0524 139.424 20.2372 138.038 18.6882C136.652 17.1392 136 15.1826 136 12.7368V9.31271C136 6.94846 136.652 4.91031 138.038 3.36132C139.424 1.81233 141.218 0.99707 143.419 0.99707C145.62 0.99707 147.332 1.56775 148.637 2.70911C149.941 3.85048 150.593 5.39947 150.512 7.35609V7.43762H147.984C147.984 6.05168 147.577 4.99184 146.761 4.17658C145.946 3.36132 144.805 2.95369 143.337 2.95369C141.87 2.95369 140.729 3.52437 139.832 4.74726C138.935 5.88862 138.527 7.35609 138.527 9.14966V12.6553C138.527 14.4488 138.935 15.9163 139.832 17.0577C140.729 18.199 141.87 18.8512 143.337 18.8512C144.805 18.8512 145.946 18.4436 146.761 17.7099C147.577 16.8946 147.984 15.8348 147.984 14.4488H150.512V14.5304Z" fill="#B3B3B3"/>
<path d="M165.92 14.0413C165.92 16.161 165.431 17.7915 164.452 19.0959C163.474 20.4003 162.088 20.971 160.295 20.971C159.398 20.971 158.664 20.8079 157.93 20.5634C157.278 20.2373 156.707 19.8296 156.218 19.259V26.2702H153.609V6.29634H155.648L156.055 8.17143C156.544 7.4377 157.115 6.94854 157.849 6.62244C158.583 6.29634 159.398 6.05176 160.295 6.05176C162.088 6.05176 163.474 6.78549 164.452 8.17143C165.431 9.55737 165.92 11.4325 165.92 13.7967V14.0413ZM163.311 13.7967C163.311 12.1662 162.985 10.7803 162.333 9.80195C161.681 8.82364 160.702 8.25296 159.479 8.25296C158.746 8.25296 158.093 8.41601 157.523 8.74211C156.952 9.06822 156.544 9.55737 156.218 10.1281V17.1393C156.544 17.71 156.952 18.1991 157.523 18.5252C158.093 18.8513 158.746 19.0144 159.479 19.0144C160.702 19.0144 161.681 18.5252 162.333 17.6284C162.985 16.7317 163.311 15.5088 163.311 14.1228V13.7967Z" fill="#B3B3B3"/>
<path d="M215.43 1.32324V20.7264H212.821V12.6553C212.006 12.8999 211.191 13.063 210.375 13.226C209.56 13.3076 208.663 13.3891 207.522 13.3891C205.402 13.3891 203.772 12.8999 202.631 12.0031C201.489 11.1064 201 9.55736 201 7.43769V1.32324H203.609V7.43769C203.609 8.90515 203.935 9.88346 204.506 10.4541C205.158 11.0248 206.136 11.2694 207.441 11.2694C208.337 11.2694 209.234 11.1879 210.131 11.1064C210.946 10.9433 211.843 10.7802 212.74 10.5357V1.32324H215.43Z" fill="#B3B3B3"/>
<path d="M230.675 8.33441H225.947V20.7264H223.338V8.33441H218.61V6.29626H230.675V8.33441Z" fill="#B3B3B3"/>
<path d="M279.675 20.7264H277.066V3.36139H267.609V20.7264H265V1.32324H279.675V20.7264Z" fill="#B3B3B3"/>
<path d="M294.92 8.33453H290.192V20.7265H287.583V8.33453H282.854V6.29639H294.92V8.33453Z" fill="#B3B3B3"/>
<path d="M344.512 14.5302C344.593 16.4053 343.941 17.9543 342.637 19.1772C341.332 20.4001 339.62 21.0523 337.419 21.0523C335.218 21.0523 333.424 20.237 332.038 18.688C330.652 17.139 330 15.1824 330 12.7366V9.31253C330 6.94828 330.652 4.91013 332.038 3.36114C333.424 1.81215 335.218 0.996887 337.419 0.996887C339.62 0.996887 341.332 1.56757 342.637 2.70893C343.941 3.85029 344.593 5.39929 344.512 7.35591V7.43743H341.984C341.984 6.05149 341.577 4.99166 340.761 4.1764C339.946 3.36114 338.805 2.95351 337.337 2.95351C335.87 2.95351 334.729 3.52419 333.832 4.74708C332.935 5.88844 332.527 7.35591 332.527 9.14948V12.6551C332.527 14.4487 332.935 15.9161 333.832 17.0575C334.729 18.1989 335.87 18.8511 337.337 18.8511C338.805 18.8511 339.946 18.4434 340.761 17.7097C341.577 16.8944 341.984 15.8346 341.984 14.4487H344.512V14.5302Z" fill="#B3B3B3"/>
<path d="M353.887 6.05149C355.762 6.05149 357.148 6.7037 358.208 8.08964C359.268 9.47558 359.838 11.1876 359.838 13.3888V13.7149C359.838 15.8346 359.268 17.6282 358.126 19.0141C356.985 20.4 355.436 21.0523 353.398 21.0523C351.36 21.0523 349.811 20.4 348.669 19.0141C347.528 17.6282 346.957 15.9161 346.957 13.7149V13.3888C346.957 13.3073 346.957 13.2258 346.957 13.2258C346.957 13.1442 346.957 13.1442 346.957 13.0627V9.96473C346.957 7.19285 347.528 5.23623 348.588 3.93182C349.648 2.6274 351.278 1.97519 353.398 1.81214C354.621 1.73062 355.599 1.56756 356.251 1.32299C356.903 1.07841 357.23 0.670779 357.23 0.100098H359.268V0.181624C359.349 1.56756 358.86 2.54587 357.882 3.11656C356.903 3.68724 355.517 4.01334 353.642 4.01334C352.256 4.01334 351.197 4.42097 350.381 5.1547C349.566 5.88844 349.158 6.94827 349.158 8.33421V8.41574C349.648 7.76353 350.381 7.19285 351.197 6.78522C352.012 6.37759 352.99 6.05149 353.887 6.05149ZM353.398 8.08964C352.175 8.08964 351.197 8.57879 350.544 9.5571C349.892 10.5354 349.566 11.8398 349.566 13.3073V13.6334C349.566 15.1824 349.892 16.4053 350.544 17.3836C351.197 18.3619 352.175 18.8511 353.398 18.8511C354.621 18.8511 355.599 18.3619 356.251 17.3836C356.903 16.4053 357.23 15.1009 357.23 13.6334V13.3073C357.23 11.7583 356.903 10.5354 356.251 9.5571C355.599 8.57879 354.621 8.08964 353.398 8.08964Z" fill="#B3B3B3"/>
<path d="M394 20.7264V1.32324H400.359C402.397 1.32324 403.946 1.73087 405.088 2.62766C406.229 3.52444 406.8 4.82886 406.8 6.5409C406.8 7.35616 406.555 8.08989 406.066 8.82363C405.577 9.55736 404.843 9.96499 404.028 10.3726C405.332 10.5357 406.31 11.1064 407.044 12.0031C407.778 12.8999 408.186 14.0413 408.186 15.2642C408.186 17.0577 407.615 18.3622 406.473 19.3405C405.332 20.3188 403.783 20.7264 401.745 20.7264H394ZM396.69 9.55736H400.93C401.908 9.55736 402.723 9.31278 403.294 8.7421C403.946 8.17142 404.191 7.43769 404.191 6.45937C404.191 5.39954 403.865 4.6658 403.212 4.09512C402.56 3.60597 401.582 3.27986 400.359 3.27986H396.69V9.55736ZM396.69 11.5955V18.6067H401.745C402.968 18.6067 403.865 18.2806 404.517 17.71C405.169 17.1393 405.495 16.2425 405.495 15.1826C405.495 14.1228 405.169 13.226 404.517 12.5738C403.865 11.9216 402.968 11.5955 401.745 11.514H401.582H396.69V11.5955Z" fill="#B3B3B3"/>
<path d="M416.745 18.9326C417.561 18.9326 418.294 18.688 418.865 18.1173C419.436 17.5466 419.762 16.8944 419.762 16.1607H422.126V16.2422C422.126 17.4651 421.637 18.6065 420.496 19.5848C419.354 20.5631 418.131 21.0522 416.664 21.0522C414.626 21.0522 413.077 20.4 411.935 19.0141C410.794 17.6281 410.305 15.9161 410.305 13.878V13.3073C410.305 11.2691 410.876 9.55708 411.935 8.17114C413.077 6.7852 414.626 6.133 416.582 6.133C418.213 6.133 419.517 6.62215 420.496 7.60046C421.474 8.57877 422.045 9.80166 421.963 11.2691V11.3507H419.599C419.599 10.4539 419.273 9.72014 418.702 9.06793C418.131 8.41572 417.398 8.17114 416.501 8.17114C415.196 8.17114 414.3 8.6603 413.647 9.63861C413.077 10.6169 412.751 11.8398 412.751 13.3073V13.878C412.751 15.3454 413.077 16.5683 413.647 17.5466C414.544 18.4434 415.441 18.9326 416.745 18.9326Z" fill="#B3B3B3"/>
<path d="M217.812 63.0405C222.992 63.5215 225.619 66.4445 225.619 70.4405C225.619 74.8065 222.4 78.3585 215.814 78.3585C212.114 78.3585 208.488 77.1745 206.305 75.2135L208.007 72.2905C209.746 73.9185 212.632 75.0655 215.814 75.0655C219.699 75.0655 221.919 73.2895 221.919 70.4775C221.919 67.7395 219.958 65.9635 215.518 65.9635H213.446V63.3735L219.958 55.3815H207.489V52.1625H224.583V54.6785L217.812 63.0405Z" fill="#292C33"/>
<path d="M197.128 104.475H206.637V130.375H202.974V107.694H197.128V104.475ZM222.884 130.671C216.816 130.671 212.302 125.861 212.302 117.425C212.302 108.989 216.816 104.179 222.884 104.179C228.915 104.179 233.429 108.989 233.429 117.425C233.429 125.861 228.915 130.671 222.884 130.671ZM222.884 127.378C226.917 127.378 229.729 124.048 229.729 117.425C229.729 110.802 226.917 107.472 222.884 107.472C218.814 107.472 216.002 110.802 216.002 117.425C216.002 124.048 218.814 127.378 222.884 127.378Z" fill="#292C33"/>
<path d="M198.411 163.475H207.92V189.375H204.257V166.694H198.411V163.475ZM212.919 163.475H232.455V165.991L221.984 189.375H218.062L228.311 166.694H216.471V171.319H212.919V163.475Z" fill="#292C33"/>
<path d="M200.06 245.156H213.343V248.375H194.732V245.859L205.277 235.684C208.015 233.02 208.533 231.392 208.533 229.764C208.533 227.1 206.646 225.472 203.02 225.472C200.245 225.472 197.988 226.36 196.397 228.284L193.881 226.101C195.879 223.622 199.32 222.179 203.353 222.179C208.755 222.179 212.233 224.954 212.233 229.394C212.233 231.91 211.493 234.167 207.978 237.534L200.06 245.156ZM238.232 238.829V242.011H233.311V248.375H229.722V242.011H215.329V239.421L228.575 222.475H232.571L219.88 238.829H229.833V233.205H233.311V238.829H238.232Z" fill="#292C33"/>
<path d="M291.794 68.5165V71.6985H286.873V78.0625H283.284V71.6985H268.891V69.1085L282.137 52.1625H286.133L273.442 68.5165H283.395V62.8925H286.873V68.5165H291.794Z" fill="#292C33"/>
<path d="M266.12 104.475H275.629V130.375H271.966V107.694H266.12V104.475ZM279.815 104.475H289.324V130.375H285.661V107.694H279.815V104.475Z" fill="#292C33"/>
<path d="M261.062 163.475H270.571V189.375H266.908V166.694H261.062V163.475ZM292.072 175.796C295.032 176.943 296.66 179.089 296.66 182.049C296.66 186.748 292.664 189.671 286.337 189.671C280.047 189.671 276.088 186.748 276.088 182.049C276.088 179.089 277.716 176.906 280.639 175.796C278.271 174.686 277.013 172.762 277.013 170.209C277.013 165.88 280.75 163.179 286.337 163.179C291.961 163.179 295.735 165.88 295.735 170.209C295.735 172.762 294.44 174.686 292.072 175.796ZM286.337 166.176C282.859 166.176 280.676 167.767 280.676 170.357C280.676 172.91 282.785 174.501 286.337 174.501C289.926 174.501 292.109 172.91 292.109 170.357C292.109 167.767 289.815 166.176 286.337 166.176ZM286.337 186.674C290.444 186.674 292.96 184.861 292.96 181.938C292.96 179.089 290.444 177.313 286.337 177.313C282.23 177.313 279.788 179.089 279.788 181.938C279.788 184.861 282.23 186.674 286.337 186.674Z" fill="#292C33"/>
<path d="M264.969 245.156H278.252V248.375H259.641V245.859L270.186 235.684C272.924 233.02 273.442 231.392 273.442 229.764C273.442 227.1 271.555 225.472 267.929 225.472C265.154 225.472 262.897 226.36 261.306 228.284L258.79 226.101C260.788 223.622 264.229 222.179 268.262 222.179C273.664 222.179 277.142 224.954 277.142 229.394C277.142 231.91 276.402 234.167 272.887 237.534L264.969 245.156ZM288.695 232.798C296.428 232.798 299.462 236.017 299.462 240.605C299.462 245.082 296.28 248.671 289.657 248.671C285.994 248.671 282.368 247.487 280.148 245.526L281.85 242.603C283.589 244.231 286.475 245.378 289.62 245.378C293.542 245.378 295.762 243.565 295.762 240.753C295.762 237.83 293.912 236.017 287.918 236.017H282.035L283.404 222.475H298.019V225.694H286.512L285.809 232.798H288.695Z" fill="#292C33"/>
<path d="M392.09 245.156H405.373V248.375H386.762V245.859L397.307 235.684C400.045 233.02 400.563 231.392 400.563 229.764C400.563 227.1 398.676 225.472 395.05 225.472C392.275 225.472 390.018 226.36 388.427 228.284L385.911 226.101C387.909 223.622 391.35 222.179 395.383 222.179C400.785 222.179 404.263 224.954 404.263 229.394C404.263 231.91 403.523 234.167 400.008 237.534L392.09 245.156ZM407.641 222.475H427.177V224.991L416.706 248.375H412.784L423.033 225.694H411.193V230.319H407.641V222.475Z" fill="#292C33"/>
<path d="M0.858624 307.375V304.859L11.4036 294.684C12.341 293.796 13.0316 293.019 13.4756 292.353C13.9443 291.662 14.2526 291.033 14.4006 290.466C14.5733 289.874 14.6596 289.307 14.6596 288.764C14.6596 287.432 14.191 286.384 13.2536 285.619C12.3163 284.854 10.9473 284.472 9.14662 284.472C7.76529 284.472 6.51962 284.706 5.40962 285.175C4.29962 285.619 3.33762 286.322 2.52362 287.284L0.00762404 285.101C0.994291 283.843 2.31396 282.881 3.96662 282.215C5.64396 281.524 7.48162 281.179 9.47962 281.179C11.2803 281.179 12.8466 281.475 14.1786 282.067C15.5106 282.634 16.5343 283.461 17.2496 284.546C17.9896 285.631 18.3596 286.914 18.3596 288.394C18.3596 289.233 18.2486 290.059 18.0266 290.873C17.8046 291.687 17.3853 292.55 16.7686 293.463C16.152 294.376 15.264 295.399 14.1046 296.534L4.70662 305.599L3.81862 304.156H19.4696V307.375H0.858624ZM32.6127 307.671C30.5161 307.671 28.7031 307.363 27.1737 306.746C25.6444 306.129 24.4604 305.254 23.6217 304.119C22.7831 302.96 22.3637 301.603 22.3637 300.049C22.3637 298.52 22.7584 297.225 23.5477 296.164C24.3617 295.079 25.5334 294.265 27.0627 293.722C28.5921 293.155 30.4421 292.871 32.6127 292.871C34.7834 292.871 36.6334 293.155 38.1627 293.722C39.7167 294.265 40.9007 295.079 41.7147 296.164C42.5287 297.249 42.9357 298.544 42.9357 300.049C42.9357 301.603 42.5164 302.96 41.6777 304.119C40.8391 305.254 39.6427 306.129 38.0887 306.746C36.5347 307.363 34.7094 307.671 32.6127 307.671ZM32.6127 304.674C34.6847 304.674 36.3004 304.255 37.4597 303.416C38.6437 302.553 39.2357 301.393 39.2357 299.938C39.2357 298.507 38.6437 297.385 37.4597 296.571C36.3004 295.732 34.6847 295.313 32.6127 295.313C30.5654 295.313 28.9621 295.732 27.8027 296.571C26.6434 297.385 26.0637 298.507 26.0637 299.938C26.0637 301.393 26.6434 302.553 27.8027 303.416C28.9621 304.255 30.5654 304.674 32.6127 304.674ZM32.6127 294.869C30.6394 294.869 28.9621 294.61 27.5807 294.092C26.1994 293.549 25.1387 292.785 24.3987 291.798C23.6587 290.787 23.2887 289.59 23.2887 288.209C23.2887 286.754 23.6711 285.508 24.4357 284.472C25.2251 283.411 26.3227 282.597 27.7287 282.03C29.1347 281.463 30.7627 281.179 32.6127 281.179C34.4874 281.179 36.1277 281.463 37.5337 282.03C38.9397 282.597 40.0374 283.411 40.8267 284.472C41.6161 285.508 42.0107 286.754 42.0107 288.209C42.0107 289.59 41.6407 290.787 40.9007 291.798C40.1607 292.785 39.0877 293.549 37.6817 294.092C36.2757 294.61 34.5861 294.869 32.6127 294.869ZM32.6127 292.501C34.4134 292.501 35.8194 292.131 36.8307 291.391C37.8667 290.651 38.3847 289.64 38.3847 288.357C38.3847 287.05 37.8544 286.026 36.7937 285.286C35.7331 284.546 34.3394 284.176 32.6127 284.176C30.8861 284.176 29.5047 284.546 28.4687 285.286C27.4574 286.026 26.9517 287.05 26.9517 288.357C26.9517 289.64 27.4451 290.651 28.4317 291.391C29.4431 292.131 30.8367 292.501 32.6127 292.501Z" fill="#292C33"/>
<path d="M71.1744 304.156H84.4574V307.375H65.8464V304.859L76.3914 294.684C79.1294 292.02 79.6474 290.392 79.6474 288.764C79.6474 286.1 77.7604 284.472 74.1344 284.472C71.3594 284.472 69.1024 285.36 67.5114 287.284L64.9954 285.101C66.9934 282.622 70.4344 281.179 74.4674 281.179C79.8694 281.179 83.3474 283.954 83.3474 288.394C83.3474 290.91 82.6074 293.167 79.0924 296.534L71.1744 304.156ZM95.8985 281.179C102.855 281.179 106.777 285.841 106.777 294.092C106.777 302.935 101.782 307.671 94.5295 307.671C92.0875 307.671 89.7565 307.19 88.0915 306.154L89.4975 303.268C90.8665 304.156 92.6055 304.489 94.4925 304.489C99.7465 304.489 103.077 301.196 103.077 294.721V293.796C101.56 296.053 98.8215 297.2 95.6025 297.2C90.4595 297.2 86.7595 294.129 86.7595 289.356C86.7595 284.361 90.7555 281.179 95.8985 281.179ZM96.2315 294.203C99.7835 294.203 102.226 292.02 102.226 289.171C102.226 286.507 100.08 284.176 96.0465 284.176C92.6795 284.176 90.3485 286.137 90.3485 289.208C90.3485 292.242 92.6055 294.203 96.2315 294.203Z" fill="#292C33"/>
<path d="M137.786 307.671C135.961 307.671 134.185 307.387 132.458 306.82C130.756 306.253 129.362 305.488 128.277 304.526L129.979 301.603C130.842 302.417 131.965 303.083 133.346 303.601C134.727 304.119 136.207 304.378 137.786 304.378C139.71 304.378 141.202 303.971 142.263 303.157C143.348 302.318 143.891 301.196 143.891 299.79C143.891 298.433 143.373 297.348 142.337 296.534C141.326 295.695 139.71 295.276 137.49 295.276H135.418V292.686L143.114 283.214L143.632 284.694H129.461V281.475H146.555V283.991L138.896 293.426L136.972 292.279H138.193C141.326 292.279 143.669 292.982 145.223 294.388C146.802 295.794 147.591 297.582 147.591 299.753C147.591 301.208 147.233 302.54 146.518 303.749C145.803 304.958 144.717 305.92 143.262 306.635C141.831 307.326 140.006 307.671 137.786 307.671ZM161.624 307.671C159.601 307.671 157.788 307.153 156.185 306.117C154.606 305.081 153.348 303.576 152.411 301.603C151.498 299.63 151.042 297.237 151.042 294.425C151.042 291.613 151.498 289.22 152.411 287.247C153.348 285.274 154.606 283.769 156.185 282.733C157.788 281.697 159.601 281.179 161.624 281.179C163.622 281.179 165.423 281.697 167.026 282.733C168.629 283.769 169.887 285.274 170.8 287.247C171.713 289.22 172.169 291.613 172.169 294.425C172.169 297.237 171.713 299.63 170.8 301.603C169.887 303.576 168.629 305.081 167.026 306.117C165.423 307.153 163.622 307.671 161.624 307.671ZM161.624 304.378C162.981 304.378 164.165 304.008 165.176 303.268C166.212 302.528 167.014 301.418 167.581 299.938C168.173 298.458 168.469 296.62 168.469 294.425C168.469 292.23 168.173 290.392 167.581 288.912C167.014 287.432 166.212 286.322 165.176 285.582C164.165 284.842 162.981 284.472 161.624 284.472C160.267 284.472 159.071 284.842 158.035 285.582C156.999 286.322 156.185 287.432 155.593 288.912C155.026 290.392 154.742 292.23 154.742 294.425C154.742 296.62 155.026 298.458 155.593 299.938C156.185 301.418 156.999 302.528 158.035 303.268C159.071 304.008 160.267 304.378 161.624 304.378Z" fill="white"/>
<path d="M344.312 62.4855C352.045 62.4855 355.079 65.7045 355.079 70.2925C355.079 74.7695 351.897 78.3585 345.274 78.3585C341.611 78.3585 337.985 77.1745 335.765 75.2135L337.467 72.2905C339.206 73.9185 342.092 75.0655 345.237 75.0655C349.159 75.0655 351.379 73.2525 351.379 70.4405C351.379 67.5175 349.529 65.7045 343.535 65.7045H337.652L339.021 52.1625H353.636V55.3815H342.129L341.426 62.4855H344.312Z" fill="#292C33"/>
<path d="M325.344 104.475H334.853V130.375H331.19V107.694H325.344V104.475ZM345.44 127.156H358.723V130.375H340.112V127.859L350.657 117.684C353.395 115.02 353.913 113.392 353.913 111.764C353.913 109.1 352.026 107.472 348.4 107.472C345.625 107.472 343.368 108.36 341.777 110.284L339.261 108.101C341.259 105.622 344.7 104.179 348.733 104.179C354.135 104.179 357.613 106.954 357.613 111.394C357.613 113.91 356.873 116.167 353.358 119.534L345.44 127.156Z" fill="#292C33"/>
<path d="M324.549 163.475H334.058V189.375H330.395V166.694H324.549V163.475ZM348.123 163.179C355.079 163.179 359.001 167.841 359.001 176.092C359.001 184.935 354.006 189.671 346.754 189.671C344.312 189.671 341.981 189.19 340.316 188.154L341.722 185.268C343.091 186.156 344.83 186.489 346.717 186.489C351.971 186.489 355.301 183.196 355.301 176.721V175.796C353.784 178.053 351.046 179.2 347.827 179.2C342.684 179.2 338.984 176.129 338.984 171.356C338.984 166.361 342.98 163.179 348.123 163.179ZM348.456 176.203C352.008 176.203 354.45 174.02 354.45 171.171C354.45 168.507 352.304 166.176 348.271 166.176C344.904 166.176 342.573 168.137 342.573 171.208C342.573 174.242 344.83 176.203 348.456 176.203Z" fill="#292C33"/>
<path d="M321.865 248.375V245.859L332.41 235.684C333.347 234.796 334.038 234.019 334.482 233.353C334.95 232.662 335.259 232.033 335.407 231.466C335.579 230.874 335.666 230.307 335.666 229.764C335.666 228.432 335.197 227.384 334.26 226.619C333.322 225.854 331.953 225.472 330.153 225.472C328.771 225.472 327.526 225.706 326.416 226.175C325.306 226.619 324.344 227.322 323.53 228.284L321.014 226.101C322 224.843 323.32 223.881 324.973 223.215C326.65 222.524 328.488 222.179 330.486 222.179C332.286 222.179 333.853 222.475 335.185 223.067C336.517 223.634 337.54 224.461 338.256 225.546C338.996 226.631 339.366 227.914 339.366 229.394C339.366 230.233 339.255 231.059 339.033 231.873C338.811 232.687 338.391 233.55 337.775 234.463C337.158 235.376 336.27 236.399 335.111 237.534L325.713 246.599L324.825 245.156H340.476V248.375H321.865ZM354.36 248.671C352.066 248.671 350.105 248.165 348.477 247.154C346.849 246.143 345.603 244.687 344.74 242.788C343.901 240.864 343.482 238.521 343.482 235.758C343.482 232.823 344 230.344 345.036 228.321C346.072 226.298 347.515 224.769 349.365 223.733C351.215 222.697 353.336 222.179 355.729 222.179C356.962 222.179 358.134 222.302 359.244 222.549C360.378 222.796 361.353 223.178 362.167 223.696L360.761 226.582C360.095 226.113 359.33 225.793 358.467 225.62C357.628 225.447 356.74 225.361 355.803 225.361C353.163 225.361 351.067 226.187 349.513 227.84C347.959 229.468 347.182 231.898 347.182 235.129C347.182 235.647 347.206 236.264 347.256 236.979C347.305 237.694 347.428 238.397 347.626 239.088L346.368 237.83C346.738 236.695 347.317 235.746 348.107 234.981C348.921 234.192 349.883 233.612 350.993 233.242C352.127 232.847 353.348 232.65 354.656 232.65C356.382 232.65 357.912 232.971 359.244 233.612C360.576 234.253 361.624 235.166 362.389 236.35C363.153 237.509 363.536 238.891 363.536 240.494C363.536 242.147 363.129 243.59 362.315 244.823C361.501 246.056 360.403 247.006 359.022 247.672C357.64 248.338 356.086 248.671 354.36 248.671ZM354.212 245.674C355.346 245.674 356.333 245.464 357.172 245.045C358.035 244.626 358.713 244.046 359.207 243.306C359.7 242.541 359.947 241.653 359.947 240.642C359.947 239.113 359.416 237.904 358.356 237.016C357.295 236.103 355.852 235.647 354.027 235.647C352.843 235.647 351.807 235.869 350.919 236.313C350.031 236.757 349.328 237.361 348.81 238.126C348.316 238.866 348.07 239.717 348.07 240.679C348.07 241.567 348.304 242.393 348.773 243.158C349.241 243.898 349.932 244.502 350.845 244.971C351.757 245.44 352.88 245.674 354.212 245.674Z" fill="#292C33"/>
<path d="M408.403 62.3375C413.546 62.3375 417.283 65.4085 417.283 70.1815C417.283 75.1765 413.25 78.3585 408.107 78.3585C401.151 78.3585 397.229 73.6965 397.229 65.4455C397.229 56.6025 402.224 51.8665 409.476 51.8665C411.918 51.8665 414.249 52.3475 415.914 53.3835L414.508 56.2695C413.176 55.3815 411.4 55.0485 409.55 55.0485C404.296 55.0485 400.929 58.3415 400.929 64.8165C400.929 65.1125 400.929 65.4085 400.966 65.7415C402.446 63.5215 405.184 62.3375 408.403 62.3375ZM407.959 75.3615C411.326 75.3615 413.694 73.4005 413.694 70.3295C413.694 67.2955 411.4 65.3345 407.774 65.3345C404.259 65.3345 401.817 67.5175 401.817 70.3665C401.817 73.0305 403.963 75.3615 407.959 75.3615Z" fill="#292C33"/>
<path d="M389.88 104.475H399.389V130.375H395.726V107.694H389.88V104.475ZM414.971 115.353C420.151 115.834 422.778 118.757 422.778 122.753C422.778 127.119 419.559 130.671 412.973 130.671C409.273 130.671 405.647 129.487 403.464 127.526L405.166 124.603C406.905 126.231 409.791 127.378 412.973 127.378C416.858 127.378 419.078 125.602 419.078 122.79C419.078 120.052 417.117 118.276 412.677 118.276H410.605V115.686L417.117 107.694H404.648V104.475H421.742V106.991L414.971 115.353Z" fill="#292C33"/>
<path d="M390.807 186.156H404.09V189.375H385.479V186.859L396.024 176.684C398.762 174.02 399.28 172.392 399.28 170.764C399.28 168.1 397.393 166.472 393.767 166.472C390.992 166.472 388.735 167.36 387.144 169.284L384.628 167.101C386.626 164.622 390.067 163.179 394.1 163.179C399.502 163.179 402.98 165.954 402.98 170.394C402.98 172.91 402.24 175.167 398.725 178.534L390.807 186.156ZM417.606 189.671C411.538 189.671 407.024 184.861 407.024 176.425C407.024 167.989 411.538 163.179 417.606 163.179C423.637 163.179 428.151 167.989 428.151 176.425C428.151 184.861 423.637 189.671 417.606 189.671ZM417.606 186.378C421.639 186.378 424.451 183.048 424.451 176.425C424.451 169.802 421.639 166.472 417.606 166.472C413.536 166.472 410.724 169.802 410.724 176.425C410.724 183.048 413.536 186.378 417.606 186.378Z" fill="#292C33"/>
<path d="M12.0718 104.475H31.6078V106.991L21.1368 130.375H17.2148L27.4638 107.694H15.6238V112.319H12.0718V104.475Z" fill="#292C33"/>
<path d="M3.09178 163.475H12.6008V189.375H8.93778V166.694H3.09178V163.475ZM40.7991 179.829V183.011H35.8781V189.375H32.2891V183.011H17.8961V180.421L31.1421 163.475H35.1381L22.4471 179.829H32.4001V174.205H35.8781V179.829H40.7991Z" fill="#292C33"/>
<path d="M11.2452 245.156H24.5282V248.375H5.91722V245.859L16.4622 235.684C19.2002 233.02 19.7182 231.392 19.7182 229.764C19.7182 227.1 17.8312 225.472 14.2052 225.472C11.4302 225.472 9.17322 226.36 7.58222 228.284L5.06622 226.101C7.06422 223.622 10.5052 222.179 14.5382 222.179C19.9402 222.179 23.4182 224.954 23.4182 229.394C23.4182 231.91 22.6782 234.167 19.1632 237.534L11.2452 245.156ZM26.0903 222.475H35.5993V248.375H31.9363V225.694H26.0903V222.475Z" fill="#292C33"/>
<path d="M78.7628 52.1625H88.2718V78.0625H84.6088V55.3815H78.7628V52.1625Z" fill="#292C33"/>
<path d="M92.2247 116.796C95.1847 117.943 96.8127 120.089 96.8127 123.049C96.8127 127.748 92.8167 130.671 86.4897 130.671C80.1997 130.671 76.2407 127.748 76.2407 123.049C76.2407 120.089 77.8687 117.906 80.7917 116.796C78.4237 115.686 77.1657 113.762 77.1657 111.209C77.1657 106.88 80.9027 104.179 86.4897 104.179C92.1137 104.179 95.8877 106.88 95.8877 111.209C95.8877 113.762 94.5927 115.686 92.2247 116.796ZM86.4897 107.176C83.0117 107.176 80.8287 108.767 80.8287 111.357C80.8287 113.91 82.9377 115.501 86.4897 115.501C90.0787 115.501 92.2617 113.91 92.2617 111.357C92.2617 108.767 89.9677 107.176 86.4897 107.176ZM86.4897 127.674C90.5967 127.674 93.1127 125.861 93.1127 122.938C93.1127 120.089 90.5967 118.313 86.4897 118.313C82.3827 118.313 79.9407 120.089 79.9407 122.938C79.9407 125.861 82.3827 127.674 86.4897 127.674Z" fill="#292C33"/>
<path d="M69.3442 163.475H78.8532V189.375H75.1902V166.694H69.3442V163.475ZM91.9186 173.798C99.6516 173.798 102.686 177.017 102.686 181.605C102.686 186.082 99.5036 189.671 92.8806 189.671C89.2176 189.671 85.5916 188.487 83.3716 186.526L85.0736 183.603C86.8126 185.231 89.6986 186.378 92.8436 186.378C96.7656 186.378 98.9856 184.565 98.9856 181.753C98.9856 178.83 97.1356 177.017 91.1416 177.017H85.2586L86.6276 163.475H101.243V166.694H89.7356L89.0326 173.798H91.9186Z" fill="#292C33"/>
<path d="M71.9693 245.156H85.2523V248.375H66.6413V245.859L77.1863 235.684C79.9243 233.02 80.4423 231.392 80.4423 229.764C80.4423 227.1 78.5553 225.472 74.9293 225.472C72.1543 225.472 69.8973 226.36 68.3063 228.284L65.7903 226.101C67.7883 223.622 71.2293 222.179 75.2623 222.179C80.6643 222.179 84.1423 224.954 84.1423 229.394C84.1423 231.91 83.4023 234.167 79.8873 237.534L71.9693 245.156ZM93.2154 245.156H106.498V248.375H87.8874V245.859L98.4324 235.684C101.17 233.02 101.688 231.392 101.688 229.764C101.688 227.1 99.8014 225.472 96.1754 225.472C93.4004 225.472 91.1434 226.36 89.5524 228.284L87.0364 226.101C89.0344 223.622 92.4754 222.179 96.5084 222.179C101.91 222.179 105.388 224.954 105.388 229.394C105.388 231.91 104.648 234.167 101.133 237.534L93.2154 245.156Z" fill="#292C33"/>
<path d="M149.775 104.179C156.731 104.179 160.653 108.841 160.653 117.092C160.653 125.935 155.658 130.671 148.406 130.671C145.964 130.671 143.633 130.19 141.968 129.154L143.374 126.268C144.743 127.156 146.482 127.489 148.369 127.489C153.623 127.489 156.953 124.196 156.953 117.721V116.796C155.436 119.053 152.698 120.2 149.479 120.2C144.336 120.2 140.636 117.129 140.636 112.356C140.636 107.361 144.632 104.179 149.775 104.179ZM150.108 117.203C153.66 117.203 156.102 115.02 156.102 112.171C156.102 109.507 153.956 107.176 149.923 107.176C146.556 107.176 144.225 109.137 144.225 112.208C144.225 115.242 146.482 117.203 150.108 117.203Z" fill="#292C33"/>
<path d="M133.049 163.475H142.558V189.375H138.895V166.694H133.049V163.475ZM159.398 173.65C164.541 173.65 168.278 176.721 168.278 181.494C168.278 186.489 164.245 189.671 159.102 189.671C152.146 189.671 148.224 185.009 148.224 176.758C148.224 167.915 153.219 163.179 160.471 163.179C162.913 163.179 165.244 163.66 166.909 164.696L165.503 167.582C164.171 166.694 162.395 166.361 160.545 166.361C155.291 166.361 151.924 169.654 151.924 176.129C151.924 176.425 151.924 176.721 151.961 177.054C153.441 174.834 156.179 173.65 159.398 173.65ZM158.954 186.674C162.321 186.674 164.689 184.713 164.689 181.642C164.689 178.608 162.395 176.647 158.769 176.647C155.254 176.647 152.812 178.83 152.812 181.679C152.812 184.343 154.958 186.674 158.954 186.674Z" fill="#292C33"/>
<path d="M136.505 245.156H149.788V248.375H131.177V245.859L141.722 235.684C144.46 233.02 144.978 231.392 144.978 229.764C144.978 227.1 143.091 225.472 139.465 225.472C136.69 225.472 134.433 226.36 132.842 228.284L130.326 226.101C132.324 223.622 135.765 222.179 139.798 222.179C145.2 222.179 148.678 224.954 148.678 229.394C148.678 231.91 147.938 234.167 144.423 237.534L136.505 245.156ZM162.747 233.353C167.927 233.834 170.554 236.757 170.554 240.753C170.554 245.119 167.335 248.671 160.749 248.671C157.049 248.671 153.423 247.487 151.24 245.526L152.942 242.603C154.681 244.231 157.567 245.378 160.749 245.378C164.634 245.378 166.854 243.602 166.854 240.79C166.854 238.052 164.893 236.276 160.453 236.276H158.381V233.686L164.893 225.694H152.424V222.475H169.518V224.991L162.747 233.353Z" fill="#292C33"/>
<path d="M148.343 74.8435H161.626V78.0625H143.015V75.5465L153.56 65.3715C156.298 62.7075 156.816 61.0795 156.816 59.4515C156.816 56.7875 154.929 55.1595 151.303 55.1595C148.528 55.1595 146.271 56.0475 144.68 57.9715L142.164 55.7885C144.162 53.3095 147.603 51.8665 151.636 51.8665C157.038 51.8665 160.516 54.6415 160.516 59.0815C160.516 61.5975 159.776 63.8545 156.261 67.2215L148.343 74.8435Z" fill="#292C33"/>
<path d="M208.278 307.671C206.453 307.671 204.677 307.387 202.95 306.82C201.248 306.253 199.855 305.488 198.769 304.526L200.471 301.603C201.335 302.417 202.457 303.083 203.838 303.601C205.22 304.119 206.7 304.378 208.278 304.378C210.202 304.378 211.695 303.971 212.755 303.157C213.841 302.318 214.383 301.196 214.383 299.79C214.383 298.433 213.865 297.348 212.829 296.534C211.818 295.695 210.202 295.276 207.982 295.276H205.91V292.686L213.606 283.214L214.124 284.694H199.953V281.475H217.047V283.991L209.388 293.426L207.464 292.279H208.685C211.818 292.279 214.161 292.982 215.715 294.388C217.294 295.794 218.083 297.582 218.083 299.753C218.083 301.208 217.726 302.54 217.01 303.749C216.295 304.958 215.21 305.92 213.754 306.635C212.324 307.326 210.498 307.671 208.278 307.671ZM225.9 307.375V282.955L227.491 284.694H220.054V281.475H229.563V307.375H225.9Z" fill="#292C33"/>
</g>
<defs>
<clipPath id="clip0_525_2678">
<rect width="431" height="317" fill="white"/>
</clipPath>
</defs>
</svg>
