<svg width="431" height="366" viewBox="0 0 431 366" fill="none" xmlns="http://www.w3.org/2000/svg">
<path d="M22.9554 20.7264H20.3466V3.36139H10.8896V20.7264H8.19922V1.32324H22.8739V20.7264H22.9554Z" fill="#B3B3B3"/>
<path d="M38.7715 20.7265H36.1626V14.612H29.7221V20.7265H27.1133V6.29639H29.7221V12.5739H36.1626V6.29639H38.7715V20.7265Z" fill="#B3B3B3"/>
<path d="M73 20.7264V1.32324H79.359C81.3972 1.32324 82.9462 1.73087 84.0875 2.62766C85.2289 3.52444 85.7996 4.82886 85.7996 6.5409C85.7996 7.35616 85.555 8.08989 85.0658 8.82363C84.5767 9.55736 83.8429 9.96499 83.0277 10.2911C84.3321 10.4541 85.3104 11.0248 86.0441 11.9216C86.7779 12.8184 87.1855 13.9598 87.1855 15.1826C87.1855 16.9762 86.6148 18.2806 85.4735 19.2589C84.3321 20.2373 82.7831 20.6449 80.745 20.6449H73V20.7264ZM75.6904 9.55736H79.9297C80.908 9.55736 81.7233 9.31278 82.294 8.7421C82.9462 8.17142 83.1907 7.43769 83.1907 6.45937C83.1907 5.39954 82.8646 4.6658 82.2124 4.09512C81.5602 3.60597 80.5819 3.27986 79.359 3.27986H75.6904V9.55736ZM75.6904 11.5955V18.6067H80.745C81.9678 18.6067 82.8646 18.2806 83.5168 17.71C84.1691 17.1393 84.4952 16.2425 84.4952 15.1826C84.4952 14.1228 84.1691 13.226 83.5168 12.5738C82.8646 11.9216 81.9678 11.5955 80.745 11.514H80.5819H75.6904V11.5955Z" fill="#B3B3B3"/>
<path d="M101.124 8.33453H96.3959V20.7265H93.7871V8.33453H89.0586V6.29639H101.124V8.33453Z" fill="#B3B3B3"/>
<path d="M150.512 14.5304C150.593 16.4055 149.941 17.9545 148.637 19.1773C147.332 20.4002 145.62 21.0524 143.419 21.0524C141.218 21.0524 139.424 20.2372 138.038 18.6882C136.652 17.1392 136 15.1826 136 12.7368V9.31271C136 6.94846 136.652 4.91031 138.038 3.36132C139.424 1.81233 141.218 0.99707 143.419 0.99707C145.62 0.99707 147.332 1.56775 148.637 2.70911C149.941 3.85048 150.593 5.39947 150.512 7.35609V7.43762H147.984C147.984 6.05168 147.577 4.99184 146.761 4.17658C145.946 3.36132 144.805 2.95369 143.337 2.95369C141.87 2.95369 140.729 3.52437 139.832 4.74726C138.935 5.88862 138.527 7.35609 138.527 9.14966V12.6553C138.527 14.4488 138.935 15.9163 139.832 17.0577C140.729 18.199 141.87 18.8512 143.337 18.8512C144.805 18.8512 145.946 18.4436 146.761 17.7099C147.577 16.8946 147.984 15.8348 147.984 14.4488H150.512V14.5304Z" fill="#B3B3B3"/>
<path d="M165.919 14.0413C165.919 16.161 165.43 17.7915 164.452 19.0959C163.473 20.4003 162.087 20.971 160.294 20.971C159.397 20.971 158.663 20.8079 157.929 20.5634C157.277 20.2373 156.707 19.8296 156.217 19.259V26.2702H153.609V6.29634H155.647L156.054 8.17143C156.544 7.4377 157.114 6.94854 157.848 6.62244C158.582 6.29634 159.397 6.05176 160.294 6.05176C162.087 6.05176 163.473 6.78549 164.452 8.17143C165.43 9.55737 165.919 11.4325 165.919 13.7967V14.0413ZM163.31 13.7967C163.31 12.1662 162.984 10.7803 162.332 9.80195C161.68 8.82364 160.701 8.25296 159.478 8.25296C158.745 8.25296 158.093 8.41601 157.522 8.74211C156.951 9.06822 156.544 9.55737 156.217 10.1281V17.1393C156.544 17.71 156.951 18.1991 157.522 18.5252C158.093 18.8513 158.745 19.0144 159.478 19.0144C160.701 19.0144 161.68 18.5252 162.332 17.6284C162.984 16.7317 163.31 15.5088 163.31 14.1228V13.7967Z" fill="#B3B3B3"/>
<path d="M215.43 1.32324V20.7264H212.821V12.6553C212.006 12.8999 211.191 13.063 210.375 13.226C209.56 13.3076 208.663 13.3891 207.522 13.3891C205.402 13.3891 203.772 12.8999 202.631 12.0031C201.489 11.1064 201 9.55736 201 7.43769V1.32324H203.609V7.43769C203.609 8.90515 203.935 9.88346 204.506 10.4541C205.158 11.0248 206.136 11.2694 207.441 11.2694C208.337 11.2694 209.234 11.1879 210.131 11.1064C210.946 10.9433 211.843 10.7802 212.74 10.5357V1.32324H215.43Z" fill="#B3B3B3"/>
<path d="M230.674 8.33453H225.946V20.7265H223.337V8.33453H218.609V6.29639H230.674V8.33453Z" fill="#B3B3B3"/>
<path d="M279.675 20.7264H277.066V3.36139H267.609V20.7264H265V1.32324H279.675V20.7264Z" fill="#B3B3B3"/>
<path d="M294.918 8.33453H290.189V20.7265H287.581V8.33453H282.852V6.29639H294.918V8.33453Z" fill="#B3B3B3"/>
<path d="M344.512 14.5299C344.593 16.405 343.941 17.954 342.637 19.1769C341.332 20.3998 339.62 21.052 337.419 21.052C335.218 21.052 333.424 20.2367 332.038 18.6877C330.652 17.1388 330 15.1821 330 12.7364V9.31223C330 6.94798 330.652 4.90983 332.038 3.36084C333.424 1.81185 335.218 0.996582 337.419 0.996582C339.62 0.996582 341.332 1.56727 342.637 2.70863C343.941 3.84999 344.593 5.39898 344.512 7.35561V7.43713H341.984C341.984 6.05119 341.577 4.99136 340.761 4.1761C339.946 3.36084 338.805 2.95321 337.337 2.95321C335.87 2.95321 334.729 3.52389 333.832 4.74678C332.935 5.88814 332.527 7.35561 332.527 9.14918V12.6548C332.527 14.4484 332.935 15.9159 333.832 17.0572C334.729 18.1986 335.87 18.8508 337.337 18.8508C338.805 18.8508 339.946 18.4432 340.761 17.7094C341.577 16.8942 341.984 15.8343 341.984 14.4484H344.512V14.5299Z" fill="#B3B3B3"/>
<path d="M353.883 6.05149C355.758 6.05149 357.144 6.7037 358.204 8.08964C359.264 9.47558 359.834 11.1876 359.834 13.3888V13.7149C359.834 15.8346 359.264 17.6282 358.122 19.0141C356.981 20.4 355.432 21.0523 353.394 21.0523C351.356 21.0523 349.807 20.4 348.665 19.0141C347.524 17.6282 346.953 15.9161 346.953 13.7149V13.3888C346.953 13.3073 346.953 13.2258 346.953 13.2258C346.953 13.1442 346.953 13.1442 346.953 13.0627V9.96473C346.953 7.19285 347.524 5.23623 348.584 3.93182C349.644 2.6274 351.274 1.97519 353.394 1.81214C354.617 1.73062 355.595 1.56756 356.247 1.32299C356.899 1.07841 357.226 0.670779 357.226 0.100098H359.264V0.181624C359.345 1.56756 358.856 2.54587 357.878 3.11656C356.899 3.68724 355.513 4.01334 353.638 4.01334C352.252 4.01334 351.193 4.42097 350.377 5.1547C349.562 5.88844 349.154 6.94827 349.154 8.33421V8.41574C349.644 7.76353 350.377 7.19285 351.193 6.78522C352.008 6.37759 352.986 6.05149 353.883 6.05149ZM353.394 8.08964C352.171 8.08964 351.193 8.57879 350.54 9.5571C349.888 10.5354 349.562 11.8398 349.562 13.3073V13.6334C349.562 15.1824 349.888 16.4053 350.54 17.3836C351.193 18.3619 352.171 18.8511 353.394 18.8511C354.617 18.8511 355.595 18.3619 356.247 17.3836C356.899 16.4053 357.226 15.1009 357.226 13.6334V13.3073C357.226 11.7583 356.899 10.5354 356.247 9.5571C355.595 8.57879 354.617 8.08964 353.394 8.08964Z" fill="#B3B3B3"/>
<path d="M394 20.7264V1.32324H400.359C402.397 1.32324 403.946 1.73087 405.088 2.62766C406.229 3.52444 406.8 4.82886 406.8 6.5409C406.8 7.35616 406.555 8.08989 406.066 8.82363C405.577 9.55736 404.843 9.96499 404.028 10.3726C405.332 10.5357 406.31 11.1064 407.044 12.0031C407.778 12.8999 408.186 14.0413 408.186 15.2642C408.186 17.0577 407.615 18.3622 406.473 19.3405C405.332 20.3188 403.783 20.7264 401.745 20.7264H394ZM396.69 9.55736H400.93C401.908 9.55736 402.723 9.31278 403.294 8.7421C403.946 8.17142 404.191 7.43769 404.191 6.45937C404.191 5.39954 403.865 4.6658 403.212 4.09512C402.56 3.60597 401.582 3.27986 400.359 3.27986H396.69V9.55736ZM396.69 11.5955V18.6067H401.745C402.968 18.6067 403.865 18.2806 404.517 17.71C405.169 17.1393 405.495 16.2425 405.495 15.1826C405.495 14.1228 405.169 13.226 404.517 12.5738C403.865 11.9216 402.968 11.5955 401.745 11.514H401.582H396.69V11.5955Z" fill="#B3B3B3"/>
<path d="M416.745 18.9328C417.561 18.9328 418.294 18.6882 418.865 18.1176C419.436 17.5469 419.762 16.8947 419.762 16.1609H422.126V16.2425C422.126 17.4654 421.637 18.6067 420.496 19.585C419.354 20.5633 418.131 21.0525 416.664 21.0525C414.626 21.0525 413.077 20.4003 411.935 19.0143C410.794 17.6284 410.305 15.9164 410.305 13.8782V13.3075C410.305 11.2694 410.876 9.55738 411.935 8.17144C413.077 6.7855 414.626 6.1333 416.582 6.1333C418.213 6.1333 419.517 6.62245 420.496 7.60076C421.474 8.57907 422.045 9.80196 421.963 11.2694V11.3509H419.599C419.599 10.4541 419.273 9.72044 418.702 9.06823C418.131 8.41602 417.398 8.17144 416.501 8.17144C415.196 8.17144 414.3 8.6606 413.647 9.63891C413.077 10.6172 412.751 11.8401 412.751 13.3075V13.8782C412.751 15.3457 413.077 16.5686 413.647 17.5469C414.544 18.4437 415.441 18.9328 416.745 18.9328Z" fill="#B3B3B3"/>
<path d="M278.913 130.296C276.816 130.296 275.003 129.988 273.474 129.371C271.944 128.754 270.76 127.879 269.922 126.744C269.083 125.585 268.664 124.228 268.664 122.674C268.664 121.145 269.058 119.85 269.848 118.789C270.662 117.704 271.833 116.89 273.363 116.347C274.892 115.78 276.742 115.496 278.913 115.496C281.083 115.496 282.933 115.78 284.463 116.347C286.017 116.89 287.201 117.704 288.015 118.789C288.829 119.874 289.236 121.169 289.236 122.674C289.236 124.228 288.816 125.585 287.978 126.744C287.139 127.879 285.943 128.754 284.389 129.371C282.835 129.988 281.009 130.296 278.913 130.296ZM278.913 127.299C280.985 127.299 282.6 126.88 283.76 126.041C284.944 125.178 285.536 124.018 285.536 122.563C285.536 121.132 284.944 120.01 283.76 119.196C282.6 118.357 280.985 117.938 278.913 117.938C276.865 117.938 275.262 118.357 274.103 119.196C272.943 120.01 272.364 121.132 272.364 122.563C272.364 124.018 272.943 125.178 274.103 126.041C275.262 126.88 276.865 127.299 278.913 127.299ZM278.913 117.494C276.939 117.494 275.262 117.235 273.881 116.717C272.499 116.174 271.439 115.41 270.699 114.423C269.959 113.412 269.589 112.215 269.589 110.834C269.589 109.379 269.971 108.133 270.736 107.097C271.525 106.036 272.623 105.222 274.029 104.655C275.435 104.088 277.063 103.804 278.913 103.804C280.787 103.804 282.428 104.088 283.834 104.655C285.24 105.222 286.337 106.036 287.127 107.097C287.916 108.133 288.311 109.379 288.311 110.834C288.311 112.215 287.941 113.412 287.201 114.423C286.461 115.41 285.388 116.174 283.982 116.717C282.576 117.235 280.886 117.494 278.913 117.494ZM278.913 115.126C280.713 115.126 282.119 114.756 283.131 114.016C284.167 113.276 284.685 112.265 284.685 110.982C284.685 109.675 284.154 108.651 283.094 107.911C282.033 107.171 280.639 106.801 278.913 106.801C277.186 106.801 275.805 107.171 274.769 107.911C273.757 108.651 273.252 109.675 273.252 110.982C273.252 112.265 273.745 113.276 274.732 114.016C275.743 114.756 277.137 115.126 278.913 115.126Z" fill="#292C33"/>
<path d="M267.612 191V166.58L269.203 168.319H261.766V165.1H271.275V191H267.612ZM285.303 191.296C283.477 191.296 281.701 191.012 279.975 190.445C278.273 189.878 276.879 189.113 275.794 188.151L277.496 185.228C278.359 186.042 279.481 186.708 280.863 187.226C282.244 187.744 283.712 188.003 285.266 188.003C287.239 188.003 288.756 187.584 289.817 186.745C290.877 185.906 291.408 184.784 291.408 183.378C291.408 182.416 291.173 181.577 290.705 180.862C290.236 180.147 289.422 179.604 288.263 179.234C287.128 178.839 285.562 178.642 283.564 178.642H277.681L279.05 165.1H293.665V168.319H280.419L282.343 166.506L281.27 177.199L279.346 175.423H284.341C286.931 175.423 289.015 175.756 290.594 176.422C292.172 177.088 293.319 178.013 294.035 179.197C294.75 180.356 295.108 181.701 295.108 183.23C295.108 184.71 294.75 186.067 294.035 187.3C293.319 188.509 292.234 189.483 290.779 190.223C289.348 190.938 287.523 191.296 285.303 191.296Z" fill="#292C33"/>
<path d="M259.062 249V246.484L269.607 236.309C270.545 235.421 271.235 234.644 271.679 233.978C272.148 233.287 272.456 232.658 272.604 232.091C272.777 231.499 272.863 230.932 272.863 230.389C272.863 229.057 272.395 228.009 271.457 227.244C270.52 226.479 269.151 226.097 267.35 226.097C265.969 226.097 264.723 226.331 263.613 226.8C262.503 227.244 261.541 227.947 260.727 228.909L258.211 226.726C259.198 225.468 260.518 224.506 262.17 223.84C263.848 223.149 265.685 222.804 267.683 222.804C269.484 222.804 271.05 223.1 272.382 223.692C273.714 224.259 274.738 225.086 275.453 226.171C276.193 227.256 276.563 228.539 276.563 230.019C276.563 230.858 276.452 231.684 276.23 232.498C276.008 233.312 275.589 234.175 274.972 235.088C274.356 236.001 273.468 237.024 272.308 238.159L262.91 247.224L262.022 245.781H277.673V249H259.062ZM280.308 249V246.484L290.853 236.309C291.791 235.421 292.481 234.644 292.925 233.978C293.394 233.287 293.702 232.658 293.85 232.091C294.023 231.499 294.109 230.932 294.109 230.389C294.109 229.057 293.641 228.009 292.703 227.244C291.766 226.479 290.397 226.097 288.596 226.097C287.215 226.097 285.969 226.331 284.859 226.8C283.749 227.244 282.787 227.947 281.973 228.909L279.457 226.726C280.444 225.468 281.764 224.506 283.416 223.84C285.094 223.149 286.931 222.804 288.929 222.804C290.73 222.804 292.296 223.1 293.628 223.692C294.96 224.259 295.984 225.086 296.699 226.171C297.439 227.256 297.809 228.539 297.809 230.019C297.809 230.858 297.698 231.684 297.476 232.498C297.254 233.312 296.835 234.175 296.218 235.088C295.602 236.001 294.714 237.024 293.554 238.159L284.156 247.224L283.268 245.781H298.919V249H280.308Z" fill="#292C33"/>
<path d="M258.265 309V306.484L268.81 296.309C269.748 295.421 270.438 294.644 270.882 293.978C271.351 293.287 271.659 292.658 271.807 292.091C271.98 291.499 272.066 290.932 272.066 290.389C272.066 289.057 271.598 288.009 270.66 287.244C269.723 286.479 268.354 286.097 266.553 286.097C265.172 286.097 263.926 286.331 262.816 286.8C261.706 287.244 260.744 287.947 259.93 288.909L257.414 286.726C258.401 285.468 259.721 284.506 261.373 283.84C263.051 283.149 264.888 282.804 266.886 282.804C268.687 282.804 270.253 283.1 271.585 283.692C272.917 284.259 273.941 285.086 274.656 286.171C275.396 287.256 275.766 288.539 275.766 290.019C275.766 290.858 275.655 291.684 275.433 292.498C275.211 293.312 274.792 294.175 274.175 295.088C273.559 296.001 272.671 297.024 271.511 298.159L262.113 307.224L261.225 305.781H276.876V309H258.265ZM288.318 282.804C290.661 282.804 292.634 283.31 294.238 284.321C295.866 285.332 297.099 286.8 297.938 288.724C298.776 290.623 299.196 292.954 299.196 295.717C299.196 298.652 298.678 301.131 297.642 303.154C296.606 305.177 295.175 306.706 293.35 307.742C291.524 308.778 289.391 309.296 286.949 309.296C285.74 309.296 284.568 309.173 283.434 308.926C282.324 308.679 281.349 308.297 280.511 307.779L281.917 304.893C282.607 305.337 283.372 305.658 284.211 305.855C285.074 306.028 285.974 306.114 286.912 306.114C289.526 306.114 291.611 305.3 293.165 303.672C294.719 302.019 295.496 299.577 295.496 296.346C295.496 295.828 295.471 295.211 295.422 294.496C295.372 293.781 295.261 293.078 295.089 292.387L296.31 293.645C295.964 294.78 295.385 295.742 294.571 296.531C293.781 297.296 292.819 297.875 291.685 298.27C290.575 298.64 289.354 298.825 288.022 298.825C286.32 298.825 284.803 298.504 283.471 297.863C282.139 297.222 281.09 296.321 280.326 295.162C279.561 293.978 279.179 292.584 279.179 290.981C279.179 289.304 279.573 287.861 280.363 286.652C281.177 285.419 282.274 284.469 283.656 283.803C285.062 283.137 286.616 282.804 288.318 282.804ZM288.466 285.801C287.356 285.801 286.369 286.011 285.506 286.43C284.642 286.849 283.964 287.429 283.471 288.169C283.002 288.909 282.768 289.797 282.768 290.833C282.768 292.362 283.298 293.583 284.359 294.496C285.419 295.384 286.85 295.828 288.651 295.828C289.835 295.828 290.871 295.606 291.759 295.162C292.671 294.718 293.374 294.114 293.868 293.349C294.386 292.584 294.645 291.733 294.645 290.796C294.645 289.883 294.41 289.057 293.942 288.317C293.473 287.577 292.782 286.973 291.87 286.504C290.957 286.035 289.822 285.801 288.466 285.801Z" fill="#292C33"/>
<path d="M334.187 78.1355V75.6195L344.732 65.4445C345.67 64.5565 346.36 63.7795 346.804 63.1135C347.273 62.4228 347.581 61.7938 347.729 61.2265C347.902 60.6345 347.988 60.0671 347.988 59.5245C347.988 58.1925 347.52 57.1441 346.582 56.3795C345.645 55.6148 344.276 55.2325 342.475 55.2325C341.094 55.2325 339.848 55.4668 338.738 55.9355C337.628 56.3795 336.666 57.0825 335.852 58.0445L333.336 55.8615C334.323 54.6035 335.643 53.6415 337.295 52.9755C338.973 52.2848 340.81 51.9395 342.808 51.9395C344.609 51.9395 346.175 52.2355 347.507 52.8275C348.839 53.3948 349.863 54.2211 350.578 55.3065C351.318 56.3918 351.688 57.6745 351.688 59.1545C351.688 59.9931 351.577 60.8195 351.355 61.6335C351.133 62.4475 350.714 63.3107 350.097 64.2234C349.481 65.136 348.593 66.1597 347.433 67.2944L338.035 76.3595L337.147 74.9165H352.798V78.1355H334.187Z" fill="#292C33"/>
<path d="M342.194 103.804C344.538 103.804 346.511 104.31 348.114 105.321C349.742 106.332 350.976 107.8 351.814 109.724C352.653 111.623 353.072 113.954 353.072 116.717C353.072 119.652 352.554 122.131 351.518 124.154C350.482 126.177 349.052 127.706 347.226 128.742C345.401 129.778 343.267 130.296 340.825 130.296C339.617 130.296 338.445 130.173 337.31 129.926C336.2 129.679 335.226 129.297 334.387 128.779L335.793 125.893C336.484 126.337 337.249 126.658 338.087 126.855C338.951 127.028 339.851 127.114 340.788 127.114C343.403 127.114 345.487 126.3 347.041 124.672C348.595 123.019 349.372 120.577 349.372 117.346C349.372 116.828 349.348 116.211 349.298 115.496C349.249 114.781 349.138 114.078 348.965 113.387L350.186 114.645C349.841 115.78 349.261 116.742 348.447 117.531C347.658 118.296 346.696 118.875 345.561 119.27C344.451 119.64 343.23 119.825 341.898 119.825C340.196 119.825 338.679 119.504 337.347 118.863C336.015 118.222 334.967 117.321 334.202 116.162C333.438 114.978 333.055 113.584 333.055 111.981C333.055 110.304 333.45 108.861 334.239 107.652C335.053 106.419 336.151 105.469 337.532 104.803C338.938 104.137 340.492 103.804 342.194 103.804ZM342.342 106.801C341.232 106.801 340.246 107.011 339.382 107.43C338.519 107.849 337.841 108.429 337.347 109.169C336.879 109.909 336.644 110.797 336.644 111.833C336.644 113.362 337.175 114.583 338.235 115.496C339.296 116.384 340.727 116.828 342.527 116.828C343.711 116.828 344.747 116.606 345.635 116.162C346.548 115.718 347.251 115.114 347.744 114.349C348.262 113.584 348.521 112.733 348.521 111.796C348.521 110.883 348.287 110.057 347.818 109.317C347.35 108.577 346.659 107.973 345.746 107.504C344.834 107.035 343.699 106.801 342.342 106.801Z" fill="#292C33"/>
<path d="M331.315 191V166.58L332.906 168.319H325.469V165.1H334.978V191H331.315ZM351.522 191.296C349.228 191.296 347.267 190.79 345.639 189.779C344.011 188.768 342.765 187.312 341.902 185.413C341.063 183.489 340.644 181.146 340.644 178.383C340.644 175.448 341.162 172.969 342.198 170.946C343.234 168.923 344.677 167.394 346.527 166.358C348.377 165.322 350.498 164.804 352.891 164.804C354.124 164.804 355.296 164.927 356.406 165.174C357.54 165.421 358.515 165.803 359.329 166.321L357.923 169.207C357.257 168.738 356.492 168.418 355.629 168.245C354.79 168.072 353.902 167.986 352.965 167.986C350.325 167.986 348.229 168.812 346.675 170.465C345.121 172.093 344.344 174.523 344.344 177.754C344.344 178.272 344.368 178.889 344.418 179.604C344.467 180.319 344.59 181.022 344.788 181.713L343.53 180.455C343.9 179.32 344.479 178.371 345.269 177.606C346.083 176.817 347.045 176.237 348.155 175.867C349.289 175.472 350.51 175.275 351.818 175.275C353.544 175.275 355.074 175.596 356.406 176.237C357.738 176.878 358.786 177.791 359.551 178.975C360.315 180.134 360.698 181.516 360.698 183.119C360.698 184.772 360.291 186.215 359.477 187.448C358.663 188.681 357.565 189.631 356.184 190.297C354.802 190.963 353.248 191.296 351.522 191.296ZM351.374 188.299C352.508 188.299 353.495 188.089 354.334 187.67C355.197 187.251 355.875 186.671 356.369 185.931C356.862 185.166 357.109 184.278 357.109 183.267C357.109 181.738 356.578 180.529 355.518 179.641C354.457 178.728 353.014 178.272 351.189 178.272C350.005 178.272 348.969 178.494 348.081 178.938C347.193 179.382 346.49 179.986 345.972 180.751C345.478 181.491 345.232 182.342 345.232 183.304C345.232 184.192 345.466 185.018 345.935 185.783C346.403 186.523 347.094 187.127 348.007 187.596C348.919 188.065 350.042 188.299 351.374 188.299Z" fill="#292C33"/>
<path d="M323.597 249V246.484L334.142 236.309C335.08 235.421 335.77 234.644 336.214 233.978C336.683 233.287 336.991 232.658 337.139 232.091C337.312 231.499 337.398 230.932 337.398 230.389C337.398 229.057 336.93 228.009 335.992 227.244C335.055 226.479 333.686 226.097 331.885 226.097C330.504 226.097 329.258 226.331 328.148 226.8C327.038 227.244 326.076 227.947 325.262 228.909L322.746 226.726C323.733 225.468 325.053 224.506 326.705 223.84C328.383 223.149 330.22 222.804 332.218 222.804C334.019 222.804 335.585 223.1 336.917 223.692C338.249 224.259 339.273 225.086 339.988 226.171C340.728 227.256 341.098 228.539 341.098 230.019C341.098 230.858 340.987 231.684 340.765 232.498C340.543 233.312 340.124 234.175 339.507 235.088C338.891 236.001 338.003 237.024 336.843 238.159L327.445 247.224L326.557 245.781H342.208V249H323.597ZM353.169 249.296C351.343 249.296 349.567 249.012 347.841 248.445C346.139 247.878 344.745 247.113 343.66 246.151L345.362 243.228C346.225 244.042 347.347 244.708 348.729 245.226C350.11 245.744 351.59 246.003 353.169 246.003C355.093 246.003 356.585 245.596 357.646 244.782C358.731 243.943 359.274 242.821 359.274 241.415C359.274 240.058 358.756 238.973 357.72 238.159C356.708 237.32 355.093 236.901 352.873 236.901H350.801V234.311L358.497 224.839L359.015 226.319H344.844V223.1H361.938V225.616L354.279 235.051L352.355 233.904H353.576C356.708 233.904 359.052 234.607 360.606 236.013C362.184 237.419 362.974 239.207 362.974 241.378C362.974 242.833 362.616 244.165 361.901 245.374C361.185 246.583 360.1 247.545 358.645 248.26C357.214 248.951 355.389 249.296 353.169 249.296Z" fill="#292C33"/>
<path d="M330.204 309.296C328.379 309.296 326.603 309.012 324.876 308.445C323.174 307.878 321.78 307.113 320.695 306.151L322.397 303.228C323.26 304.042 324.383 304.708 325.764 305.226C327.145 305.744 328.625 306.003 330.204 306.003C332.128 306.003 333.62 305.596 334.681 304.782C335.766 303.943 336.309 302.821 336.309 301.415C336.309 300.058 335.791 298.973 334.755 298.159C333.744 297.32 332.128 296.901 329.908 296.901H327.836V294.311L335.532 284.839L336.05 286.319H321.879V283.1H338.973V285.616L331.314 295.051L329.39 293.904H330.611C333.744 293.904 336.087 294.607 337.641 296.013C339.22 297.419 340.009 299.207 340.009 301.378C340.009 302.833 339.651 304.165 338.936 305.374C338.221 306.583 337.135 307.545 335.68 308.26C334.249 308.951 332.424 309.296 330.204 309.296ZM354.042 309.296C352.019 309.296 350.206 308.778 348.603 307.742C347.024 306.706 345.766 305.201 344.829 303.228C343.916 301.255 343.46 298.862 343.46 296.05C343.46 293.238 343.916 290.845 344.829 288.872C345.766 286.899 347.024 285.394 348.603 284.358C350.206 283.322 352.019 282.804 354.042 282.804C356.04 282.804 357.841 283.322 359.444 284.358C361.047 285.394 362.305 286.899 363.218 288.872C364.131 290.845 364.587 293.238 364.587 296.05C364.587 298.862 364.131 301.255 363.218 303.228C362.305 305.201 361.047 306.706 359.444 307.742C357.841 308.778 356.04 309.296 354.042 309.296ZM354.042 306.003C355.399 306.003 356.583 305.633 357.594 304.893C358.63 304.153 359.432 303.043 359.999 301.563C360.591 300.083 360.887 298.245 360.887 296.05C360.887 293.855 360.591 292.017 359.999 290.537C359.432 289.057 358.63 287.947 357.594 287.207C356.583 286.467 355.399 286.097 354.042 286.097C352.685 286.097 351.489 286.467 350.453 287.207C349.417 287.947 348.603 289.057 348.011 290.537C347.444 292.017 347.16 293.855 347.16 296.05C347.16 298.245 347.444 300.083 348.011 301.563C348.603 303.043 349.417 304.153 350.453 304.893C351.489 305.633 352.685 306.003 354.042 306.003Z" fill="#292C33"/>
<path d="M407.548 78.4313C405.722 78.4313 403.946 78.1476 402.22 77.5803C400.518 77.0129 399.124 76.2484 398.039 75.2864L399.741 72.3632C400.604 73.1772 401.726 73.8433 403.108 74.3613C404.489 74.8793 405.969 75.1383 407.548 75.1383C409.472 75.1383 410.964 74.7313 412.025 73.9173C413.11 73.0786 413.653 71.9564 413.653 70.5504C413.653 69.1937 413.135 68.1082 412.099 67.2942C411.087 66.4555 409.472 66.0364 407.252 66.0364H405.18V63.4464L412.876 53.9743L413.394 55.4543H399.223V52.2354H416.317V54.7514L408.658 64.1864L406.734 63.0393H407.955C411.087 63.0393 413.431 63.7423 414.985 65.1483C416.563 66.5543 417.353 68.3426 417.353 70.5133C417.353 71.9686 416.995 73.3006 416.28 74.5093C415.564 75.7179 414.479 76.68 413.024 77.3954C411.593 78.086 409.768 78.4313 407.548 78.4313Z" fill="#292C33"/>
<path d="M395.393 130V105.58L396.984 107.319H389.547V104.1H399.056V130H395.393ZM415.303 130.296C413.281 130.296 411.468 129.778 409.864 128.742C408.286 127.706 407.028 126.201 406.09 124.228C405.178 122.255 404.721 119.862 404.721 117.05C404.721 114.238 405.178 111.845 406.09 109.872C407.028 107.899 408.286 106.394 409.864 105.358C411.468 104.322 413.281 103.804 415.303 103.804C417.301 103.804 419.102 104.322 420.705 105.358C422.309 106.394 423.567 107.899 424.479 109.872C425.392 111.845 425.848 114.238 425.848 117.05C425.848 119.862 425.392 122.255 424.479 124.228C423.567 126.201 422.309 127.706 420.705 128.742C419.102 129.778 417.301 130.296 415.303 130.296ZM415.303 127.003C416.66 127.003 417.844 126.633 418.855 125.893C419.891 125.153 420.693 124.043 421.26 122.563C421.852 121.083 422.148 119.245 422.148 117.05C422.148 114.855 421.852 113.017 421.26 111.537C420.693 110.057 419.891 108.947 418.855 108.207C417.844 107.467 416.66 107.097 415.303 107.097C413.947 107.097 412.75 107.467 411.714 108.207C410.678 108.947 409.864 110.057 409.272 111.537C408.705 113.017 408.421 114.855 408.421 117.05C408.421 119.245 408.705 121.083 409.272 122.563C409.864 124.043 410.678 125.153 411.714 125.893C412.75 126.633 413.947 127.003 415.303 127.003Z" fill="#292C33"/>
<path d="M387.171 249V246.484L397.716 236.309C398.654 235.421 399.344 234.644 399.788 233.978C400.257 233.287 400.565 232.658 400.713 232.091C400.886 231.499 400.972 230.932 400.972 230.389C400.972 229.057 400.504 228.009 399.566 227.244C398.629 226.479 397.26 226.097 395.459 226.097C394.078 226.097 392.832 226.331 391.722 226.8C390.612 227.244 389.65 227.947 388.836 228.909L386.32 226.726C387.307 225.468 388.627 224.506 390.279 223.84C391.957 223.149 393.794 222.804 395.792 222.804C397.593 222.804 399.159 223.1 400.491 223.692C401.823 224.259 402.847 225.086 403.562 226.171C404.302 227.256 404.672 228.539 404.672 230.019C404.672 230.858 404.561 231.684 404.339 232.498C404.117 233.312 403.698 234.175 403.081 235.088C402.465 236.001 401.577 237.024 400.417 238.159L391.019 247.224L390.131 245.781H405.782V249H387.171ZM407.732 242.636V240.046L420.978 223.1H424.974L411.839 240.046L409.952 239.454H430.635V242.636H407.732ZM422.125 249V242.636L422.236 239.454V233.83H425.714V249H422.125Z" fill="#292C33"/>
<path d="M10.9688 123.636V121.046L24.2148 104.1H28.2108L15.0758 121.046L13.1888 120.454H33.8717V123.636H10.9688ZM25.3617 130V123.636L25.4727 120.454V114.83H28.9508V130H25.3617Z" fill="#292C33"/>
<path d="M14.3851 191V166.58L15.9761 168.319H8.53906V165.1H18.0481V191H14.3851ZM28.0794 191V166.58L29.6704 168.319H22.2334V165.1H31.7424V191H28.0794Z" fill="#292C33"/>
<path d="M9.32647 249V224.58L10.9175 226.319H3.48047V223.1H12.9895V249H9.32647ZM28.7558 249.296C26.6592 249.296 24.8462 248.988 23.3168 248.371C21.7875 247.754 20.6035 246.879 19.7648 245.744C18.9262 244.585 18.5068 243.228 18.5068 241.674C18.5068 240.145 18.9015 238.85 19.6908 237.789C20.5048 236.704 21.6765 235.89 23.2058 235.347C24.7352 234.78 26.5852 234.496 28.7558 234.496C30.9265 234.496 32.7765 234.78 34.3058 235.347C35.8598 235.89 37.0438 236.704 37.8578 237.789C38.6718 238.874 39.0788 240.169 39.0788 241.674C39.0788 243.228 38.6595 244.585 37.8208 245.744C36.9822 246.879 35.7858 247.754 34.2318 248.371C32.6778 248.988 30.8525 249.296 28.7558 249.296ZM28.7558 246.299C30.8278 246.299 32.4435 245.88 33.6028 245.041C34.7868 244.178 35.3788 243.018 35.3788 241.563C35.3788 240.132 34.7868 239.01 33.6028 238.196C32.4435 237.357 30.8278 236.938 28.7558 236.938C26.7085 236.938 25.1052 237.357 23.9458 238.196C22.7865 239.01 22.2068 240.132 22.2068 241.563C22.2068 243.018 22.7865 244.178 23.9458 245.041C25.1052 245.88 26.7085 246.299 28.7558 246.299ZM28.7558 236.494C26.7825 236.494 25.1052 236.235 23.7238 235.717C22.3425 235.174 21.2818 234.41 20.5418 233.423C19.8018 232.412 19.4318 231.215 19.4318 229.834C19.4318 228.379 19.8142 227.133 20.5788 226.097C21.3682 225.036 22.4658 224.222 23.8718 223.655C25.2778 223.088 26.9058 222.804 28.7558 222.804C30.6305 222.804 32.2708 223.088 33.6768 223.655C35.0828 224.222 36.1805 225.036 36.9698 226.097C37.7592 227.133 38.1538 228.379 38.1538 229.834C38.1538 231.215 37.7838 232.412 37.0438 233.423C36.3038 234.41 35.2308 235.174 33.8248 235.717C32.4188 236.235 30.7292 236.494 28.7558 236.494ZM28.7558 234.126C30.5565 234.126 31.9625 233.756 32.9738 233.016C34.0098 232.276 34.5278 231.265 34.5278 229.982C34.5278 228.675 33.9975 227.651 32.9368 226.911C31.8762 226.171 30.4825 225.801 28.7558 225.801C27.0292 225.801 25.6478 226.171 24.6118 226.911C23.6005 227.651 23.0948 228.675 23.0948 229.982C23.0948 231.265 23.5882 232.276 24.5748 233.016C25.5862 233.756 26.9798 234.126 28.7558 234.126Z" fill="#292C33"/>
<path d="M2.06194 309V306.484L12.6069 296.309C13.5443 295.421 14.2349 294.644 14.6789 293.978C15.1476 293.287 15.4559 292.658 15.6039 292.091C15.7766 291.499 15.8629 290.932 15.8629 290.389C15.8629 289.057 15.3943 288.009 14.4569 287.244C13.5196 286.479 12.1506 286.097 10.3499 286.097C8.9686 286.097 7.72294 286.331 6.61294 286.8C5.50294 287.244 4.54094 287.947 3.72694 288.909L1.21094 286.726C2.1976 285.468 3.51727 284.506 5.16994 283.84C6.84727 283.149 8.68494 282.804 10.6829 282.804C12.4836 282.804 14.0499 283.1 15.3819 283.692C16.7139 284.259 17.7376 285.086 18.4529 286.171C19.1929 287.256 19.5629 288.539 19.5629 290.019C19.5629 290.858 19.4519 291.684 19.2299 292.498C19.0079 293.312 18.5886 294.175 17.9719 295.088C17.3553 296.001 16.4673 297.024 15.3079 298.159L5.90994 307.224L5.02194 305.781H20.6729V309H2.06194ZM32.077 309.296C30.2517 309.296 28.4757 309.012 26.749 308.445C25.047 307.878 23.6534 307.113 22.568 306.151L24.27 303.228C25.1334 304.042 26.2557 304.708 27.637 305.226C29.0184 305.744 30.486 306.003 32.04 306.003C34.0134 306.003 35.5304 305.584 36.591 304.745C37.6517 303.906 38.182 302.784 38.182 301.378C38.182 300.416 37.9477 299.577 37.479 298.862C37.0104 298.147 36.1964 297.604 35.037 297.234C33.9024 296.839 32.336 296.642 30.338 296.642H24.455L25.824 283.1H40.439V286.319H27.193L29.117 284.506L28.044 295.199L26.12 293.423H31.115C33.705 293.423 35.7894 293.756 37.368 294.422C38.9467 295.088 40.0937 296.013 40.809 297.197C41.5244 298.356 41.882 299.701 41.882 301.23C41.882 302.71 41.5244 304.067 40.809 305.3C40.0937 306.509 39.0084 307.483 37.553 308.223C36.1224 308.938 34.297 309.296 32.077 309.296Z" fill="#292C33"/>
<path d="M84.4543 130.296C82.6289 130.296 80.8529 130.012 79.1263 129.445C77.4243 128.878 76.0306 128.113 74.9453 127.151L76.6473 124.228C77.5106 125.042 78.6329 125.708 80.0143 126.226C81.3956 126.744 82.8633 127.003 84.4173 127.003C86.3906 127.003 87.9076 126.584 88.9683 125.745C90.029 124.906 90.5593 123.784 90.5593 122.378C90.5593 121.416 90.3249 120.577 89.8563 119.862C89.3876 119.147 88.5736 118.604 87.4143 118.234C86.2796 117.839 84.7133 117.642 82.7153 117.642H76.8323L78.2013 104.1H92.8163V107.319H79.5703L81.4943 105.506L80.4213 116.199L78.4973 114.423H83.4923C86.0823 114.423 88.1666 114.756 89.7453 115.422C91.324 116.088 92.471 117.013 93.1863 118.197C93.9016 119.356 94.2593 120.701 94.2593 122.23C94.2593 123.71 93.9016 125.067 93.1863 126.3C92.471 127.509 91.3856 128.483 89.9303 129.223C88.4996 129.938 86.6743 130.296 84.4543 130.296Z" fill="#292C33"/>
<path d="M73.6116 191V166.58L75.2026 168.319H67.7656V165.1H77.2746V191H73.6116ZM82.533 191V188.484L93.078 178.309C94.0153 177.421 94.706 176.644 95.15 175.978C95.6186 175.287 95.927 174.658 96.075 174.091C96.2476 173.499 96.334 172.932 96.334 172.389C96.334 171.057 95.8653 170.009 94.928 169.244C93.9906 168.479 92.6216 168.097 90.821 168.097C89.4396 168.097 88.194 168.331 87.084 168.8C85.974 169.244 85.012 169.947 84.198 170.909L81.682 168.726C82.6686 167.468 83.9883 166.506 85.641 165.84C87.3183 165.149 89.156 164.804 91.154 164.804C92.9546 164.804 94.521 165.1 95.853 165.692C97.185 166.259 98.2086 167.086 98.924 168.171C99.664 169.256 100.034 170.539 100.034 172.019C100.034 172.858 99.923 173.684 99.701 174.498C99.479 175.312 99.0596 176.175 98.443 177.088C97.8263 178.001 96.9383 179.024 95.779 180.159L86.381 189.224L85.493 187.781H101.144V191H82.533Z" fill="#292C33"/>
<path d="M72.8147 249V224.58L74.4057 226.319H66.9688V223.1H76.4777V249H72.8147ZM90.542 222.804C92.8854 222.804 94.8587 223.31 96.462 224.321C98.09 225.332 99.3234 226.8 100.162 228.724C101 230.623 101.42 232.954 101.42 235.717C101.42 238.652 100.902 241.131 99.866 243.154C98.83 245.177 97.3994 246.706 95.574 247.742C93.7487 248.778 91.6149 249.296 89.1729 249.296C87.9643 249.296 86.7927 249.173 85.658 248.926C84.548 248.679 83.5737 248.297 82.735 247.779L84.141 244.893C84.8317 245.337 85.5964 245.658 86.435 245.855C87.2984 246.028 88.1987 246.114 89.136 246.114C91.7507 246.114 93.835 245.3 95.389 243.672C96.943 242.019 97.72 239.577 97.72 236.346C97.72 235.828 97.6954 235.211 97.646 234.496C97.5967 233.781 97.4857 233.078 97.313 232.387L98.5339 233.645C98.1886 234.78 97.609 235.742 96.795 236.531C96.0057 237.296 95.0436 237.875 93.9089 238.27C92.7989 238.64 91.5779 238.825 90.2459 238.825C88.5439 238.825 87.027 238.504 85.695 237.863C84.363 237.222 83.3146 236.321 82.5499 235.162C81.7853 233.978 81.403 232.584 81.403 230.981C81.403 229.304 81.7977 227.861 82.587 226.652C83.401 225.419 84.4987 224.469 85.88 223.803C87.286 223.137 88.84 222.804 90.542 222.804ZM90.6899 225.801C89.5799 225.801 88.5933 226.011 87.7299 226.43C86.8666 226.849 86.1884 227.429 85.695 228.169C85.2264 228.909 84.9921 229.797 84.9921 230.833C84.9921 232.362 85.5224 233.583 86.583 234.496C87.6437 235.384 89.0744 235.828 90.875 235.828C92.059 235.828 93.095 235.606 93.983 235.162C94.8957 234.718 95.5986 234.114 96.0919 233.349C96.6099 232.584 96.8689 231.733 96.8689 230.796C96.8689 229.883 96.6347 229.057 96.166 228.317C95.6974 227.577 95.0067 226.973 94.094 226.504C93.1814 226.035 92.0466 225.801 90.6899 225.801Z" fill="#292C33"/>
<path d="M64.2846 309V306.484L74.8296 296.309C75.7669 295.421 76.4576 294.644 76.9016 293.978C77.3702 293.287 77.6786 292.658 77.8266 292.091C77.9992 291.499 78.0856 290.932 78.0856 290.389C78.0856 289.057 77.6169 288.009 76.6796 287.244C75.7422 286.479 74.3732 286.097 72.5726 286.097C71.1912 286.097 69.9456 286.331 68.8356 286.8C67.7256 287.244 66.7636 287.947 65.9496 288.909L63.4336 286.726C64.4202 285.468 65.7399 284.506 67.3926 283.84C69.0699 283.149 70.9076 282.804 72.9056 282.804C74.7062 282.804 76.2726 283.1 77.6046 283.692C78.9366 284.259 79.9602 285.086 80.6756 286.171C81.4156 287.256 81.7856 288.539 81.7856 290.019C81.7856 290.858 81.6746 291.684 81.4526 292.498C81.2306 293.312 80.8112 294.175 80.1946 295.088C79.5779 296.001 78.6899 297.024 77.5306 298.159L68.1326 307.224L67.2446 305.781H82.8956V309H64.2846ZM96.7795 309.296C94.4855 309.296 92.5245 308.79 90.8965 307.779C89.2685 306.768 88.0229 305.312 87.1595 303.413C86.3209 301.489 85.9015 299.146 85.9015 296.383C85.9015 293.448 86.4195 290.969 87.4555 288.946C88.4915 286.923 89.9345 285.394 91.7845 284.358C93.6345 283.322 95.7559 282.804 98.1485 282.804C99.3819 282.804 100.553 282.927 101.663 283.174C102.798 283.421 103.772 283.803 104.586 284.321L103.18 287.207C102.514 286.738 101.75 286.418 100.886 286.245C100.048 286.072 99.1599 285.986 98.2225 285.986C95.5832 285.986 93.4865 286.812 91.9325 288.465C90.3785 290.093 89.6015 292.523 89.6015 295.754C89.6015 296.272 89.6262 296.889 89.6755 297.604C89.7249 298.319 89.8482 299.022 90.0455 299.713L88.7875 298.455C89.1575 297.32 89.7372 296.371 90.5265 295.606C91.3405 294.817 92.3025 294.237 93.4125 293.867C94.5472 293.472 95.7682 293.275 97.0755 293.275C98.8022 293.275 100.331 293.596 101.663 294.237C102.995 294.878 104.044 295.791 104.808 296.975C105.573 298.134 105.955 299.516 105.955 301.119C105.955 302.772 105.548 304.215 104.734 305.448C103.92 306.681 102.823 307.631 101.441 308.297C100.06 308.963 98.5062 309.296 96.7795 309.296ZM96.6315 306.299C97.7662 306.299 98.7529 306.089 99.5915 305.67C100.455 305.251 101.133 304.671 101.626 303.931C102.12 303.166 102.366 302.278 102.366 301.267C102.366 299.738 101.836 298.529 100.775 297.641C99.7149 296.728 98.2719 296.272 96.4465 296.272C95.2625 296.272 94.2265 296.494 93.3385 296.938C92.4505 297.382 91.7475 297.986 91.2295 298.751C90.7362 299.491 90.4895 300.342 90.4895 301.304C90.4895 302.192 90.7239 303.018 91.1925 303.783C91.6612 304.523 92.3519 305.127 93.2645 305.596C94.1772 306.065 95.2995 306.299 96.6315 306.299Z" fill="#292C33"/>
<path d="M150.675 130.296C148.381 130.296 146.42 129.79 144.792 128.779C143.164 127.768 141.919 126.312 141.055 124.413C140.217 122.489 139.797 120.146 139.797 117.383C139.797 114.448 140.315 111.969 141.351 109.946C142.387 107.923 143.83 106.394 145.68 105.358C147.53 104.322 149.652 103.804 152.044 103.804C153.278 103.804 154.449 103.927 155.559 104.174C156.694 104.421 157.668 104.803 158.482 105.321L157.076 108.207C156.41 107.738 155.646 107.418 154.782 107.245C153.944 107.072 153.056 106.986 152.118 106.986C149.479 106.986 147.382 107.812 145.828 109.465C144.274 111.093 143.497 113.523 143.497 116.754C143.497 117.272 143.522 117.889 143.571 118.604C143.621 119.319 143.744 120.022 143.941 120.713L142.683 119.455C143.053 118.32 143.633 117.371 144.422 116.606C145.236 115.817 146.198 115.237 147.308 114.867C148.443 114.472 149.664 114.275 150.971 114.275C152.698 114.275 154.227 114.596 155.559 115.237C156.891 115.878 157.94 116.791 158.704 117.975C159.469 119.134 159.851 120.516 159.851 122.119C159.851 123.772 159.444 125.215 158.63 126.448C157.816 127.681 156.719 128.631 155.337 129.297C153.956 129.963 152.402 130.296 150.675 130.296ZM150.527 127.299C151.662 127.299 152.649 127.089 153.487 126.67C154.351 126.251 155.029 125.671 155.522 124.931C156.016 124.166 156.262 123.278 156.262 122.267C156.262 120.738 155.732 119.529 154.671 118.641C153.611 117.728 152.168 117.272 150.342 117.272C149.158 117.272 148.122 117.494 147.234 117.938C146.346 118.382 145.643 118.986 145.125 119.751C144.632 120.491 144.385 121.342 144.385 122.304C144.385 123.192 144.62 124.018 145.088 124.783C145.557 125.523 146.248 126.127 147.16 126.596C148.073 127.065 149.195 127.299 150.527 127.299Z" fill="#292C33"/>
<path d="M138.147 191V166.58L139.738 168.319H132.301V165.1H141.81V191H138.147ZM155.394 191.296C153.568 191.296 151.792 191.012 150.066 190.445C148.364 189.878 146.97 189.113 145.885 188.151L147.587 185.228C148.45 186.042 149.572 186.708 150.954 187.226C152.335 187.744 153.815 188.003 155.394 188.003C157.318 188.003 158.81 187.596 159.871 186.782C160.956 185.943 161.499 184.821 161.499 183.415C161.499 182.058 160.981 180.973 159.945 180.159C158.933 179.32 157.318 178.901 155.098 178.901H153.026V176.311L160.722 166.839L161.24 168.319H147.069V165.1H164.163V167.616L156.504 177.051L154.58 175.904H155.801C158.933 175.904 161.277 176.607 162.831 178.013C164.409 179.419 165.199 181.207 165.199 183.378C165.199 184.833 164.841 186.165 164.126 187.374C163.41 188.583 162.325 189.545 160.87 190.26C159.439 190.951 157.614 191.296 155.394 191.296Z" fill="#292C33"/>
<path d="M127.863 249V246.484L138.408 236.309C139.345 235.421 140.036 234.644 140.48 233.978C140.949 233.287 141.257 232.658 141.405 232.091C141.578 231.499 141.664 230.932 141.664 230.389C141.664 229.057 141.195 228.009 140.258 227.244C139.321 226.479 137.952 226.097 136.151 226.097C134.77 226.097 133.524 226.331 132.414 226.8C131.304 227.244 130.342 227.947 129.528 228.909L127.012 226.726C127.999 225.468 129.318 224.506 130.971 223.84C132.648 223.149 134.486 222.804 136.484 222.804C138.285 222.804 139.851 223.1 141.183 223.692C142.515 224.259 143.539 225.086 144.254 226.171C144.994 227.256 145.364 228.539 145.364 230.019C145.364 230.858 145.253 231.684 145.031 232.498C144.809 233.312 144.39 234.175 143.773 235.088C143.156 236.001 142.268 237.024 141.109 238.159L131.711 247.224L130.823 245.781H146.474V249H127.863ZM160.062 249.296C158.039 249.296 156.226 248.778 154.623 247.742C153.044 246.706 151.786 245.201 150.849 243.228C149.936 241.255 149.48 238.862 149.48 236.05C149.48 233.238 149.936 230.845 150.849 228.872C151.786 226.899 153.044 225.394 154.623 224.358C156.226 223.322 158.039 222.804 160.062 222.804C162.06 222.804 163.861 223.322 165.464 224.358C167.067 225.394 168.325 226.899 169.238 228.872C170.151 230.845 170.607 233.238 170.607 236.05C170.607 238.862 170.151 241.255 169.238 243.228C168.325 245.201 167.067 246.706 165.464 247.742C163.861 248.778 162.06 249.296 160.062 249.296ZM160.062 246.003C161.419 246.003 162.603 245.633 163.614 244.893C164.65 244.153 165.452 243.043 166.019 241.563C166.611 240.083 166.907 238.245 166.907 236.05C166.907 233.855 166.611 232.017 166.019 230.537C165.452 229.057 164.65 227.947 163.614 227.207C162.603 226.467 161.419 226.097 160.062 226.097C158.705 226.097 157.509 226.467 156.473 227.207C155.437 227.947 154.623 229.057 154.031 230.537C153.464 232.017 153.18 233.855 153.18 236.05C153.18 238.245 153.464 240.083 154.031 241.563C154.623 243.043 155.437 244.153 156.473 244.893C157.509 245.633 158.705 246.003 160.062 246.003Z" fill="#292C33"/>
<path d="M129.148 309V306.484L139.693 296.309C140.63 295.421 141.321 294.644 141.765 293.978C142.233 293.287 142.542 292.658 142.69 292.091C142.862 291.499 142.949 290.932 142.949 290.389C142.949 289.057 142.48 288.009 141.543 287.244C140.605 286.479 139.236 286.097 137.436 286.097C136.054 286.097 134.809 286.331 133.699 286.8C132.589 287.244 131.627 287.947 130.813 288.909L128.297 286.726C129.283 285.468 130.603 284.506 132.256 283.84C133.933 283.149 135.771 282.804 137.769 282.804C139.569 282.804 141.136 283.1 142.468 283.692C143.8 284.259 144.823 285.086 145.539 286.171C146.279 287.256 146.649 288.539 146.649 290.019C146.649 290.858 146.538 291.684 146.316 292.498C146.094 293.312 145.674 294.175 145.058 295.088C144.441 296.001 143.553 297.024 142.394 298.159L132.996 307.224L132.108 305.781H147.759V309H129.148ZM155.242 309L166.231 284.654L167.193 286.319H151.801L153.651 284.506V290.944H150.099V283.1H169.635V285.616L159.164 309H155.242Z" fill="#292C33"/>
<path d="M201.358 191V166.58L202.949 168.319H195.512V165.1H205.021V191H201.358ZM210.316 184.636V182.046L223.562 165.1H227.558L214.423 182.046L212.536 181.454H233.219V184.636H210.316ZM224.709 191V184.636L224.82 181.454V175.83H228.298V191H224.709Z" fill="#292C33"/>
<path d="M198.339 249V246.484L208.884 236.309C209.822 235.421 210.512 234.644 210.956 233.978C211.425 233.287 211.733 232.658 211.881 232.091C212.054 231.499 212.14 230.932 212.14 230.389C212.14 229.057 211.672 228.009 210.734 227.244C209.797 226.479 208.428 226.097 206.627 226.097C205.246 226.097 204 226.331 202.89 226.8C201.78 227.244 200.818 227.947 200.004 228.909L197.488 226.726C198.475 225.468 199.795 224.506 201.447 223.84C203.125 223.149 204.962 222.804 206.96 222.804C208.761 222.804 210.327 223.1 211.659 223.692C212.991 224.259 214.015 225.086 214.73 226.171C215.47 227.256 215.84 228.539 215.84 230.019C215.84 230.858 215.729 231.684 215.507 232.498C215.285 233.312 214.866 234.175 214.249 235.088C213.633 236.001 212.745 237.024 211.585 238.159L202.187 247.224L201.299 245.781H216.95V249H198.339ZM224.358 249V224.58L225.949 226.319H218.512V223.1H228.021V249H224.358Z" fill="#292C33"/>
<path d="M193.281 309V306.484L203.826 296.309C204.763 295.421 205.454 294.644 205.898 293.978C206.366 293.287 206.675 292.658 206.823 292.091C206.995 291.499 207.082 290.932 207.082 290.389C207.082 289.057 206.613 288.009 205.676 287.244C204.738 286.479 203.369 286.097 201.569 286.097C200.187 286.097 198.942 286.331 197.832 286.8C196.722 287.244 195.76 287.947 194.946 288.909L192.43 286.726C193.416 285.468 194.736 284.506 196.389 283.84C198.066 283.149 199.904 282.804 201.902 282.804C203.702 282.804 205.269 283.1 206.601 283.692C207.933 284.259 208.956 285.086 209.672 286.171C210.412 287.256 210.782 288.539 210.782 290.019C210.782 290.858 210.671 291.684 210.449 292.498C210.227 293.312 209.807 294.175 209.191 295.088C208.574 296.001 207.686 297.024 206.527 298.159L197.129 307.224L196.241 305.781H211.892V309H193.281ZM225.035 309.296C222.938 309.296 221.125 308.988 219.596 308.371C218.066 307.754 216.882 306.879 216.044 305.744C215.205 304.585 214.786 303.228 214.786 301.674C214.786 300.145 215.18 298.85 215.97 297.789C216.784 296.704 217.955 295.89 219.485 295.347C221.014 294.78 222.864 294.496 225.035 294.496C227.205 294.496 229.055 294.78 230.585 295.347C232.139 295.89 233.323 296.704 234.137 297.789C234.951 298.874 235.358 300.169 235.358 301.674C235.358 303.228 234.938 304.585 234.1 305.744C233.261 306.879 232.065 307.754 230.511 308.371C228.957 308.988 227.131 309.296 225.035 309.296ZM225.035 306.299C227.107 306.299 228.722 305.88 229.882 305.041C231.066 304.178 231.658 303.018 231.658 301.563C231.658 300.132 231.066 299.01 229.882 298.196C228.722 297.357 227.107 296.938 225.035 296.938C222.987 296.938 221.384 297.357 220.225 298.196C219.065 299.01 218.486 300.132 218.486 301.563C218.486 303.018 219.065 304.178 220.225 305.041C221.384 305.88 222.987 306.299 225.035 306.299ZM225.035 296.494C223.061 296.494 221.384 296.235 220.003 295.717C218.621 295.174 217.561 294.41 216.821 293.423C216.081 292.412 215.711 291.215 215.711 289.834C215.711 288.379 216.093 287.133 216.858 286.097C217.647 285.036 218.745 284.222 220.151 283.655C221.557 283.088 223.185 282.804 225.035 282.804C226.909 282.804 228.55 283.088 229.956 283.655C231.362 284.222 232.459 285.036 233.249 286.097C234.038 287.133 234.433 288.379 234.433 289.834C234.433 291.215 234.063 292.412 233.323 293.423C232.583 294.41 231.51 295.174 230.104 295.717C228.698 296.235 227.008 296.494 225.035 296.494ZM225.035 294.126C226.835 294.126 228.241 293.756 229.253 293.016C230.289 292.276 230.807 291.265 230.807 289.982C230.807 288.675 230.276 287.651 229.216 286.911C228.155 286.171 226.761 285.801 225.035 285.801C223.308 285.801 221.927 286.171 220.891 286.911C219.879 287.651 219.374 288.675 219.374 289.982C219.374 291.265 219.867 292.276 220.854 293.016C221.865 293.756 223.259 294.126 225.035 294.126Z" fill="#292C33"/>
<path d="M209.635 130L220.624 105.654L221.586 107.319H206.194L208.044 105.506V111.944H204.492V104.1H224.028V106.616L213.557 130H209.635Z" fill="#292C33"/>
<path d="M396.678 191V166.58L398.269 168.319H390.832V165.1H400.341V191H396.678ZM410.483 191L421.472 166.654L422.434 168.319H407.042L408.892 166.506V172.944H405.34V165.1H424.876V167.616L414.405 191H410.483Z" fill="#292C33"/>
<path d="M278.233 78.1353V53.7154L279.824 55.4543H272.387V52.2354H281.896V78.1353H278.233Z" fill="#292C33"/>
<path d="M400.697 309.296C398.872 309.296 397.095 309.012 395.368 308.445C393.666 307.878 392.273 307.113 391.188 306.151L392.889 303.228C393.753 304.042 394.876 304.708 396.257 305.226C397.639 305.744 399.119 306.003 400.697 306.003C402.621 306.003 404.113 305.596 405.173 304.782C406.259 303.943 406.802 302.821 406.802 301.415C406.802 300.058 406.283 298.973 405.247 298.159C404.236 297.32 402.621 296.901 400.401 296.901H398.328V294.311L406.025 284.839L406.543 286.319H392.371V283.1H409.466V285.616L401.807 295.051L399.883 293.904H401.104C404.237 293.904 406.58 294.607 408.134 296.013C409.713 297.419 410.501 299.207 410.501 301.378C410.501 302.833 410.144 304.165 409.428 305.374C408.713 306.583 407.629 307.545 406.173 308.26C404.743 308.951 402.917 309.296 400.697 309.296ZM418.319 309V284.58L419.91 286.319H412.473V283.1H421.982V309H418.319Z" fill="#292C33"/>
</svg>
