<svg width="436" height="314" viewBox="0 0 436 314" fill="none" xmlns="http://www.w3.org/2000/svg">
<g clip-path="url(#clip0_3525_5479)">
<mask id="mask0_3525_5479" style="mask-type:luminance" maskUnits="userSpaceOnUse" x="0" y="0" width="436" height="314">
<path d="M435.5 0H0.5V314H435.5V0Z" fill="white"/>
</mask>
<g mask="url(#mask0_3525_5479)">
<path d="M117.5 208H60.5V255H117.5V208Z" fill="#E4793D" fill-opacity="0.6"/>
<path d="M53.5 208H-3.5V255H53.5V208Z" fill="#41A05C" fill-opacity="0.6"/>
<mask id="mask1_3525_5479" style="mask-type:luminance" maskUnits="userSpaceOnUse" x="4" y="0" width="432" height="314">
<path d="M435.5 0.5H4.5V313.5H435.5V0.5Z" fill="white"/>
</mask>
<g mask="url(#mask1_3525_5479)">
<mask id="mask2_3525_5479" style="mask-type:luminance" maskUnits="userSpaceOnUse" x="4" y="0" width="432" height="314">
<path d="M435.5 0.5H4.5V313.5H435.5V0.5Z" fill="white"/>
</mask>
<g mask="url(#mask2_3525_5479)">
<path d="M182.69 267.5H125.69V314.5H182.69V267.5Z" fill="#3C78EC" fill-opacity="0.6"/>
<path d="M27.4564 20.7099H24.8476V3.77763H15.3906V20.7099H12.7002V1.79028H27.3749V20.7099H27.4564Z" fill="#B3B3B3" fill-opacity="0.6"/>
<path d="M43.2725 20.7098H40.6636V14.7478H34.2231V20.7098H31.6143V6.6394H34.2231V12.7604H40.6636V6.6394H43.2725V20.7098Z" fill="#B3B3B3" fill-opacity="0.6"/>
<path d="M77.5 20.7099V1.79028H83.859C85.8972 1.79028 87.4462 2.18775 88.5875 3.06218C89.7289 3.93662 90.2996 5.20852 90.2996 6.8779C90.2996 7.67284 90.055 8.38829 89.5658 9.10374C89.0767 9.81918 88.3429 10.2167 87.5277 10.5346C88.8321 10.6936 89.8104 11.2501 90.5441 12.1245C91.2779 12.9989 91.6855 14.1119 91.6855 15.3043C91.6855 17.0531 91.1148 18.325 89.9735 19.279C88.8321 20.2329 87.2831 20.6304 85.245 20.6304H77.5V20.7099ZM80.1904 9.81918H84.4297C85.408 9.81918 86.2233 9.5807 86.794 9.02424C87.4462 8.46778 87.6907 7.75234 87.6907 6.79841C87.6907 5.76498 87.3646 5.04954 86.7124 4.49308C86.0602 4.01611 85.0819 3.69814 83.859 3.69814H80.1904V9.81918ZM80.1904 11.8065V18.643H85.245C86.4678 18.643 87.3646 18.325 88.0168 17.7686C88.6691 17.2121 88.9952 16.3377 88.9952 15.3043C88.9952 14.2708 88.6691 13.3964 88.0168 12.7605C87.3646 12.1245 86.4678 11.8065 85.245 11.727H85.0819H80.1904V11.8065Z" fill="#B3B3B3" fill-opacity="0.6"/>
<path d="M105.626 8.62675H100.898V20.7098H98.2888V8.62675H93.5603V6.6394H105.626V8.62675Z" fill="#B3B3B3" fill-opacity="0.6"/>
<path d="M155.012 14.6681C155.093 16.4965 154.441 18.0069 153.137 19.1993C151.832 20.3917 150.12 21.0277 147.919 21.0277C145.718 21.0277 143.924 20.2327 142.538 18.7223C141.152 17.212 140.5 15.3041 140.5 12.9193V9.58057C140.5 7.27524 141.152 5.28789 142.538 3.7775C143.924 2.26711 145.718 1.47217 147.919 1.47217C150.12 1.47217 151.832 2.02863 153.137 3.14155C154.441 4.25446 155.093 5.76485 155.012 7.67271V7.7522H152.484C152.484 6.4008 152.077 5.36738 151.261 4.57244C150.446 3.7775 149.305 3.38003 147.837 3.38003C146.37 3.38003 145.229 3.93649 144.332 5.1289C143.435 6.24182 143.027 7.67271 143.027 9.42158V12.8398C143.027 14.5887 143.435 16.0195 144.332 17.1325C145.229 18.2454 146.37 18.8813 147.837 18.8813C149.305 18.8813 150.446 18.4839 151.261 17.7684C152.077 16.9735 152.484 15.9401 152.484 14.5887H155.012V14.6681Z" fill="#B3B3B3" fill-opacity="0.6"/>
<path d="M170.42 14.1913C170.42 16.2581 169.931 17.848 168.953 19.1199C167.974 20.3918 166.588 20.9483 164.795 20.9483C163.898 20.9483 163.164 20.7893 162.43 20.5508C161.778 20.2328 161.208 19.8353 160.718 19.2789V26.1154H158.11V6.63936H160.148L160.555 8.46773C161.045 7.75228 161.615 7.27532 162.349 6.95734C163.083 6.63936 163.898 6.40088 164.795 6.40088C166.588 6.40088 167.974 7.11633 168.953 8.46773C169.931 9.81913 170.42 11.6475 170.42 13.9528V14.1913ZM167.811 13.9528C167.811 12.3629 167.485 11.0115 166.833 10.0576C166.181 9.10368 165.202 8.54722 163.979 8.54722C163.246 8.54722 162.594 8.70621 162.023 9.02419C161.452 9.34216 161.045 9.81913 160.718 10.3756V17.212C161.045 17.7685 161.452 18.2455 162.023 18.5634C162.594 18.8814 163.246 19.0404 163.979 19.0404C165.202 19.0404 166.181 18.5634 166.833 17.689C167.485 16.8146 167.811 15.6222 167.811 14.2708V13.9528Z" fill="#B3B3B3" fill-opacity="0.6"/>
<path d="M219.93 1.79028V20.7099H217.321V12.8399C216.506 13.0784 215.691 13.2374 214.875 13.3964C214.06 13.4759 213.163 13.5554 212.022 13.5554C209.902 13.5554 208.272 13.0784 207.131 12.204C205.989 11.3296 205.5 9.81918 205.5 7.75234V1.79028H208.109V7.75234C208.109 9.18323 208.435 10.1372 209.006 10.6936C209.658 11.2501 210.636 11.4885 211.941 11.4885C212.837 11.4885 213.734 11.4091 214.631 11.3296C215.446 11.1706 216.343 11.0116 217.24 10.7731V1.79028H219.93Z" fill="#B3B3B3" fill-opacity="0.6"/>
<path d="M235.175 8.62675H230.447V20.7098H227.838V8.62675H223.11V6.6394H235.175V8.62675Z" fill="#B3B3B3" fill-opacity="0.6"/>
<path d="M284.175 20.7099H281.566V3.77763H272.109V20.7099H269.5V1.79028H284.175V20.7099Z" fill="#B3B3B3" fill-opacity="0.6"/>
<path d="M299.42 8.62675H294.692V20.7098H292.083V8.62675H287.354V6.6394H299.42V8.62675Z" fill="#B3B3B3" fill-opacity="0.6"/>
<path d="M349.012 14.6682C349.093 16.4965 348.441 18.0069 347.137 19.1993C345.832 20.3918 344.12 21.0277 341.919 21.0277C339.718 21.0277 337.924 20.2328 336.538 18.7224C335.152 17.212 334.5 15.3041 334.5 12.9193V9.58057C334.5 7.27524 335.152 5.28789 336.538 3.7775C337.924 2.26711 339.718 1.47217 341.919 1.47217C344.12 1.47217 345.832 2.02863 347.137 3.14155C348.441 4.25446 349.093 5.76485 349.012 7.67271V7.75221H346.484C346.484 6.40081 346.077 5.36738 345.261 4.57244C344.446 3.7775 343.305 3.38003 341.837 3.38003C340.37 3.38003 339.229 3.93649 338.332 5.1289C337.435 6.24182 337.027 7.67271 337.027 9.42158V12.8398C337.027 14.5887 337.435 16.0196 338.332 17.1325C339.229 18.2454 340.37 18.8814 341.837 18.8814C343.305 18.8814 344.446 18.4839 345.261 17.7685C346.077 16.9735 346.484 15.9401 346.484 14.5887H349.012V14.6682Z" fill="#B3B3B3" fill-opacity="0.6"/>
<path d="M358.387 6.40073C360.262 6.40073 361.648 7.03668 362.708 8.38808C363.768 9.73948 364.338 11.4088 364.338 13.5551V13.8731C364.338 15.94 363.768 17.6888 362.626 19.0402C361.485 20.3916 359.936 21.0276 357.898 21.0276C355.86 21.0276 354.311 20.3916 353.169 19.0402C352.028 17.6888 351.457 16.0195 351.457 13.8731V13.5551C351.457 13.4757 351.457 13.3962 351.457 13.3962C351.457 13.3167 351.457 13.3167 351.457 13.2372V10.2164C351.457 7.51365 352.028 5.60579 353.088 4.33388C354.148 3.06198 355.778 2.42602 357.898 2.26704C359.121 2.18754 360.099 2.02855 360.751 1.79007C361.403 1.55159 361.73 1.15411 361.73 0.597656H363.768V0.677151C363.849 2.02855 363.36 2.98248 362.382 3.53894C361.403 4.0954 360.017 4.41338 358.142 4.41338C356.756 4.41338 355.697 4.81085 354.881 5.52629C354.066 6.24174 353.658 7.27516 353.658 8.62656V8.70606C354.148 8.07011 354.881 7.51365 355.697 7.11618C356.512 6.71871 357.49 6.40073 358.387 6.40073ZM357.898 8.38808C356.675 8.38808 355.697 8.86505 355.044 9.81898C354.392 10.7729 354.066 12.0448 354.066 13.4757V13.7936C354.066 15.304 354.392 16.4964 355.044 17.4504C355.697 18.4043 356.675 18.8813 357.898 18.8813C359.121 18.8813 360.099 18.4043 360.751 17.4504C361.403 16.4964 361.73 15.2245 361.73 13.7936V13.4757C361.73 11.9653 361.403 10.7729 360.751 9.81898C360.099 8.86505 359.121 8.38808 357.898 8.38808Z" fill="#B3B3B3" fill-opacity="0.6"/>
<path d="M398.5 20.7099V1.79028H404.859C406.897 1.79028 408.446 2.18775 409.588 3.06218C410.729 3.93662 411.3 5.20852 411.3 6.8779C411.3 7.67284 411.055 8.38829 410.566 9.10374C410.077 9.81918 409.343 10.2167 408.528 10.6141C409.832 10.7731 410.81 11.3296 411.544 12.204C412.278 13.0784 412.686 14.1913 412.686 15.3838C412.686 17.1326 412.115 18.4045 410.973 19.3585C409.832 20.3124 408.283 20.7099 406.245 20.7099H398.5ZM401.19 9.81918H405.43C406.408 9.81918 407.223 9.5807 407.794 9.02424C408.446 8.46778 408.691 7.75234 408.691 6.79841C408.691 5.76498 408.365 5.04954 407.712 4.49308C407.06 4.01611 406.082 3.69814 404.859 3.69814H401.19V9.81918ZM401.19 11.8065V18.643H406.245C407.468 18.643 408.365 18.325 409.017 17.7686C409.669 17.2121 409.995 16.3377 409.995 15.3043C409.995 14.2708 409.669 13.3964 409.017 12.7605C408.365 12.1245 407.468 11.8065 406.245 11.727H406.082H401.19V11.8065Z" fill="#B3B3B3" fill-opacity="0.6"/>
<path d="M421.245 18.9608C422.061 18.9608 422.794 18.7223 423.365 18.1659C423.936 17.6094 424.262 16.9735 424.262 16.258H426.626V16.3375C426.626 17.5299 426.137 18.6428 424.996 19.5968C423.854 20.5507 422.631 21.0277 421.164 21.0277C419.126 21.0277 417.577 20.3917 416.435 19.0403C415.294 17.6889 414.805 16.0195 414.805 14.0322V13.4757C414.805 11.4884 415.376 9.81898 416.435 8.46758C417.577 7.11618 419.126 6.48022 421.082 6.48022C422.713 6.48022 424.017 6.95719 424.996 7.91112C425.974 8.86505 426.545 10.0575 426.463 11.4884V11.5679H424.099C424.099 10.6934 423.773 9.97796 423.202 9.34201C422.631 8.70606 421.898 8.46758 421.001 8.46758C419.696 8.46758 418.8 8.94454 418.147 9.89847C417.577 10.8524 417.251 12.0448 417.251 13.4757V14.0322C417.251 15.4631 417.577 16.6555 418.147 17.6094C419.044 18.4838 419.941 18.9608 421.245 18.9608Z" fill="#B3B3B3" fill-opacity="0.6"/>
<path d="M283.795 74.5001V50.0801L285.386 51.8191H277.949V48.6001H287.458V74.5001H283.795Z" fill="#292C33" fill-opacity="0.6"/>
<path d="M283.412 126.796C281.315 126.796 279.502 126.488 277.973 125.871C276.443 125.254 275.259 124.379 274.421 123.244C273.582 122.085 273.163 120.728 273.163 119.174C273.163 117.645 273.557 116.35 274.347 115.289C275.161 114.204 276.332 113.39 277.862 112.847C279.391 112.28 281.241 111.996 283.412 111.996C285.582 111.996 287.432 112.28 288.962 112.847C290.516 113.39 291.7 114.204 292.514 115.289C293.328 116.374 293.735 117.669 293.735 119.174C293.735 120.728 293.315 122.085 292.477 123.244C291.638 124.379 290.442 125.254 288.888 125.871C287.334 126.488 285.508 126.796 283.412 126.796ZM283.412 123.799C285.484 123.799 287.099 123.38 288.259 122.541C289.443 121.678 290.035 120.518 290.035 119.063C290.035 117.632 289.443 116.51 288.259 115.696C287.099 114.857 285.484 114.438 283.412 114.438C281.364 114.438 279.761 114.857 278.602 115.696C277.442 116.51 276.863 117.632 276.863 119.063C276.863 120.518 277.442 121.678 278.602 122.541C279.761 123.38 281.364 123.799 283.412 123.799ZM283.412 113.994C281.438 113.994 279.761 113.735 278.38 113.217C276.998 112.674 275.938 111.91 275.198 110.923C274.458 109.912 274.088 108.715 274.088 107.334C274.088 105.879 274.47 104.633 275.235 103.597C276.024 102.536 277.122 101.722 278.528 101.155C279.934 100.588 281.562 100.304 283.412 100.304C285.286 100.304 286.927 100.588 288.333 101.155C289.739 101.722 290.836 102.536 291.626 103.597C292.415 104.633 292.81 105.879 292.81 107.334C292.81 108.715 292.44 109.912 291.7 110.923C290.96 111.91 289.887 112.674 288.481 113.217C287.075 113.735 285.385 113.994 283.412 113.994ZM283.412 111.626C285.212 111.626 286.618 111.256 287.63 110.516C288.666 109.776 289.184 108.765 289.184 107.482C289.184 106.175 288.653 105.151 287.593 104.411C286.532 103.671 285.138 103.301 283.412 103.301C281.685 103.301 280.304 103.671 279.268 104.411C278.256 105.151 277.751 106.175 277.751 107.482C277.751 108.765 278.244 109.776 279.231 110.516C280.242 111.256 281.636 111.626 283.412 111.626Z" fill="#292C33" fill-opacity="0.6"/>
<path d="M272.112 185.5V161.08L273.703 162.819H266.266V159.6H275.775V185.5H272.112ZM289.803 185.796C287.977 185.796 286.201 185.512 284.475 184.945C282.773 184.378 281.379 183.613 280.294 182.651L281.996 179.728C282.859 180.542 283.981 181.208 285.363 181.726C286.744 182.244 288.212 182.503 289.766 182.503C291.739 182.503 293.256 182.084 294.317 181.245C295.377 180.406 295.908 179.284 295.908 177.878C295.908 176.916 295.673 176.077 295.205 175.362C294.736 174.647 293.922 174.104 292.763 173.734C291.628 173.339 290.062 173.142 288.064 173.142H282.181L283.55 159.6H298.165V162.819H284.919L286.843 161.006L285.77 171.699L283.846 169.923H288.841C291.431 169.923 293.515 170.256 295.094 170.922C296.672 171.588 297.819 172.513 298.535 173.697C299.25 174.856 299.608 176.201 299.608 177.73C299.608 179.21 299.25 180.567 298.535 181.8C297.819 183.009 296.734 183.983 295.279 184.723C293.848 185.438 292.023 185.796 289.803 185.796Z" fill="#292C33" fill-opacity="0.6"/>
<path d="M263.563 244.5V241.984L274.108 231.809C275.046 230.921 275.736 230.144 276.18 229.478C276.649 228.787 276.957 228.158 277.105 227.591C277.278 226.999 277.364 226.432 277.364 225.889C277.364 224.557 276.896 223.509 275.958 222.744C275.021 221.979 273.652 221.597 271.851 221.597C270.47 221.597 269.224 221.831 268.114 222.3C267.004 222.744 266.042 223.447 265.228 224.409L262.712 222.226C263.699 220.968 265.019 220.006 266.671 219.34C268.349 218.649 270.186 218.304 272.184 218.304C273.985 218.304 275.551 218.6 276.883 219.192C278.215 219.759 279.239 220.586 279.954 221.671C280.694 222.756 281.064 224.039 281.064 225.519C281.064 226.358 280.953 227.184 280.731 227.998C280.509 228.812 280.09 229.675 279.473 230.588C278.857 231.501 277.969 232.524 276.809 233.659L267.411 242.724L266.523 241.281H282.174V244.5H263.563ZM284.809 244.5V241.984L295.354 231.809C296.292 230.921 296.982 230.144 297.426 229.478C297.895 228.787 298.203 228.158 298.351 227.591C298.524 226.999 298.61 226.432 298.61 225.889C298.61 224.557 298.142 223.509 297.204 222.744C296.267 221.979 294.898 221.597 293.097 221.597C291.716 221.597 290.47 221.831 289.36 222.3C288.25 222.744 287.288 223.447 286.474 224.409L283.958 222.226C284.945 220.968 286.265 220.006 287.917 219.34C289.595 218.649 291.432 218.304 293.43 218.304C295.231 218.304 296.797 218.6 298.129 219.192C299.461 219.759 300.485 220.586 301.2 221.671C301.94 222.756 302.31 224.039 302.31 225.519C302.31 226.358 302.199 227.184 301.977 227.998C301.755 228.812 301.336 229.675 300.719 230.588C300.103 231.501 299.215 232.524 298.055 233.659L288.657 242.724L287.769 241.281H303.42V244.5H284.809Z" fill="#292C33" fill-opacity="0.6"/>
<path d="M262.768 303.5V300.984L273.313 290.809C274.251 289.921 274.941 289.144 275.385 288.478C275.854 287.787 276.162 287.158 276.31 286.591C276.483 285.999 276.569 285.432 276.569 284.889C276.569 283.557 276.101 282.509 275.163 281.744C274.226 280.979 272.857 280.597 271.056 280.597C269.675 280.597 268.429 280.831 267.319 281.3C266.209 281.744 265.247 282.447 264.433 283.409L261.917 281.226C262.904 279.968 264.224 279.006 265.876 278.34C267.554 277.649 269.391 277.304 271.389 277.304C273.19 277.304 274.756 277.6 276.088 278.192C277.42 278.759 278.444 279.586 279.159 280.671C279.899 281.756 280.269 283.039 280.269 284.519C280.269 285.358 280.158 286.184 279.936 286.998C279.714 287.812 279.295 288.675 278.678 289.588C278.062 290.501 277.174 291.524 276.014 292.659L266.616 301.724L265.728 300.281H281.379V303.5H262.768ZM292.821 277.304C295.164 277.304 297.137 277.81 298.741 278.821C300.369 279.832 301.602 281.3 302.441 283.224C303.279 285.123 303.699 287.454 303.699 290.217C303.699 293.152 303.181 295.631 302.145 297.654C301.109 299.677 299.678 301.206 297.853 302.242C296.027 303.278 293.894 303.796 291.452 303.796C290.243 303.796 289.071 303.673 287.937 303.426C286.827 303.179 285.852 302.797 285.014 302.279L286.42 299.393C287.11 299.837 287.875 300.158 288.714 300.355C289.577 300.528 290.477 300.614 291.415 300.614C294.029 300.614 296.114 299.8 297.668 298.172C299.222 296.519 299.999 294.077 299.999 290.846C299.999 290.328 299.974 289.711 299.925 288.996C299.875 288.281 299.764 287.578 299.592 286.887L300.813 288.145C300.467 289.28 299.888 290.242 299.074 291.031C298.284 291.796 297.322 292.375 296.188 292.77C295.078 293.14 293.857 293.325 292.525 293.325C290.823 293.325 289.306 293.004 287.974 292.363C286.642 291.722 285.593 290.821 284.829 289.662C284.064 288.478 283.682 287.084 283.682 285.481C283.682 283.804 284.076 282.361 284.866 281.152C285.68 279.919 286.777 278.969 288.159 278.303C289.565 277.637 291.119 277.304 292.821 277.304ZM292.969 280.301C291.859 280.301 290.872 280.511 290.009 280.93C289.145 281.349 288.467 281.929 287.974 282.669C287.505 283.409 287.271 284.297 287.271 285.333C287.271 286.862 287.801 288.083 288.862 288.996C289.922 289.884 291.353 290.328 293.154 290.328C294.338 290.328 295.374 290.106 296.262 289.662C297.174 289.218 297.877 288.614 298.371 287.849C298.889 287.084 299.148 286.233 299.148 285.296C299.148 284.383 298.913 283.557 298.445 282.817C297.976 282.077 297.285 281.473 296.373 281.004C295.46 280.535 294.325 280.301 292.969 280.301Z" fill="#292C33" fill-opacity="0.6"/>
<path d="M335.996 74.5V71.984L346.541 61.809C347.478 60.921 348.169 60.144 348.613 59.478C349.082 58.7873 349.39 58.1583 349.538 57.591C349.711 56.999 349.797 56.4317 349.797 55.889C349.797 54.557 349.328 53.5087 348.391 52.744C347.454 51.9793 346.085 51.597 344.284 51.597C342.903 51.597 341.657 51.8313 340.547 52.3C339.437 52.744 338.475 53.447 337.661 54.409L335.145 52.226C336.132 50.968 337.451 50.006 339.104 49.34C340.781 48.6493 342.619 48.304 344.617 48.304C346.418 48.304 347.984 48.6 349.316 49.192C350.648 49.7593 351.672 50.5857 352.387 51.671C353.127 52.7563 353.497 54.039 353.497 55.519C353.497 56.3577 353.386 57.184 353.164 57.998C352.942 58.812 352.523 59.6753 351.906 60.588C351.289 61.5007 350.401 62.5243 349.242 63.659L339.844 72.724L338.956 71.281H354.607V74.5H335.996Z" fill="#292C33" fill-opacity="0.6"/>
<path d="M346.697 100.304C349.041 100.304 351.014 100.81 352.617 101.821C354.245 102.832 355.479 104.3 356.317 106.224C357.156 108.123 357.575 110.454 357.575 113.217C357.575 116.152 357.057 118.631 356.021 120.654C354.985 122.677 353.555 124.206 351.729 125.242C349.904 126.278 347.77 126.796 345.328 126.796C344.12 126.796 342.948 126.673 341.813 126.426C340.703 126.179 339.729 125.797 338.89 125.279L340.296 122.393C340.987 122.837 341.752 123.158 342.59 123.355C343.454 123.528 344.354 123.614 345.291 123.614C347.906 123.614 349.99 122.8 351.544 121.172C353.098 119.519 353.875 117.077 353.875 113.846C353.875 113.328 353.851 112.711 353.801 111.996C353.752 111.281 353.641 110.578 353.468 109.887L354.689 111.145C354.344 112.28 353.764 113.242 352.95 114.031C352.161 114.796 351.199 115.375 350.064 115.77C348.954 116.14 347.733 116.325 346.401 116.325C344.699 116.325 343.182 116.004 341.85 115.363C340.518 114.722 339.47 113.821 338.705 112.662C337.941 111.478 337.558 110.084 337.558 108.481C337.558 106.804 337.953 105.361 338.742 104.152C339.556 102.919 340.654 101.969 342.035 101.303C343.441 100.637 344.995 100.304 346.697 100.304ZM346.845 103.301C345.735 103.301 344.749 103.511 343.885 103.93C343.022 104.349 342.344 104.929 341.85 105.669C341.382 106.409 341.147 107.297 341.147 108.333C341.147 109.862 341.678 111.083 342.738 111.996C343.799 112.884 345.23 113.328 347.03 113.328C348.214 113.328 349.25 113.106 350.138 112.662C351.051 112.218 351.754 111.614 352.247 110.849C352.765 110.084 353.024 109.233 353.024 108.296C353.024 107.383 352.79 106.557 352.321 105.817C351.853 105.077 351.162 104.473 350.249 104.004C349.337 103.535 348.202 103.301 346.845 103.301Z" fill="#292C33" fill-opacity="0.6"/>
<path d="M335.817 185.5V161.08L337.408 162.819H329.971V159.6H339.48V185.5H335.817ZM356.024 185.796C353.73 185.796 351.769 185.29 350.141 184.279C348.513 183.268 347.267 181.812 346.404 179.913C345.565 177.989 345.146 175.646 345.146 172.883C345.146 169.948 345.664 167.469 346.7 165.446C347.736 163.423 349.179 161.894 351.029 160.858C352.879 159.822 355 159.304 357.393 159.304C358.626 159.304 359.798 159.427 360.908 159.674C362.042 159.921 363.017 160.303 363.831 160.821L362.425 163.707C361.759 163.238 360.994 162.918 360.131 162.745C359.292 162.572 358.404 162.486 357.467 162.486C354.827 162.486 352.731 163.312 351.177 164.965C349.623 166.593 348.846 169.023 348.846 172.254C348.846 172.772 348.87 173.389 348.92 174.104C348.969 174.819 349.092 175.522 349.29 176.213L348.032 174.955C348.402 173.82 348.981 172.871 349.771 172.106C350.585 171.317 351.547 170.737 352.657 170.367C353.791 169.972 355.012 169.775 356.32 169.775C358.046 169.775 359.576 170.096 360.908 170.737C362.24 171.378 363.288 172.291 364.053 173.475C364.817 174.634 365.2 176.016 365.2 177.619C365.2 179.272 364.793 180.715 363.979 181.948C363.165 183.181 362.067 184.131 360.686 184.797C359.304 185.463 357.75 185.796 356.024 185.796ZM355.876 182.799C357.01 182.799 357.997 182.589 358.836 182.17C359.699 181.751 360.377 181.171 360.871 180.431C361.364 179.666 361.611 178.778 361.611 177.767C361.611 176.238 361.08 175.029 360.02 174.141C358.959 173.228 357.516 172.772 355.691 172.772C354.507 172.772 353.471 172.994 352.583 173.438C351.695 173.882 350.992 174.486 350.474 175.251C349.98 175.991 349.734 176.842 349.734 177.804C349.734 178.692 349.968 179.518 350.437 180.283C350.905 181.023 351.596 181.627 352.509 182.096C353.421 182.565 354.544 182.799 355.876 182.799Z" fill="#292C33" fill-opacity="0.6"/>
<path d="M328.099 244.5V241.984L338.644 231.809C339.582 230.921 340.272 230.144 340.716 229.478C341.185 228.787 341.493 228.158 341.641 227.591C341.814 226.999 341.9 226.432 341.9 225.889C341.9 224.557 341.432 223.509 340.494 222.744C339.557 221.979 338.188 221.597 336.387 221.597C335.006 221.597 333.76 221.831 332.65 222.3C331.54 222.744 330.578 223.447 329.764 224.409L327.248 222.226C328.235 220.968 329.555 220.006 331.207 219.34C332.885 218.649 334.722 218.304 336.72 218.304C338.521 218.304 340.087 218.6 341.419 219.192C342.751 219.759 343.775 220.586 344.49 221.671C345.23 222.756 345.6 224.039 345.6 225.519C345.6 226.358 345.489 227.184 345.267 227.998C345.045 228.812 344.626 229.675 344.009 230.588C343.393 231.501 342.505 232.524 341.345 233.659L331.947 242.724L331.059 241.281H346.71V244.5H328.099ZM357.671 244.796C355.845 244.796 354.069 244.512 352.343 243.945C350.641 243.378 349.247 242.613 348.162 241.651L349.864 238.728C350.727 239.542 351.849 240.208 353.231 240.726C354.612 241.244 356.092 241.503 357.671 241.503C359.595 241.503 361.087 241.096 362.148 240.282C363.233 239.443 363.776 238.321 363.776 236.915C363.776 235.558 363.258 234.473 362.222 233.659C361.21 232.82 359.595 232.401 357.375 232.401H355.303V229.811L362.999 220.339L363.517 221.819H349.346V218.6H366.44V221.116L358.781 230.551L356.857 229.404H358.078C361.21 229.404 363.554 230.107 365.108 231.513C366.686 232.919 367.476 234.707 367.476 236.878C367.476 238.333 367.118 239.665 366.403 240.874C365.687 242.083 364.602 243.045 363.147 243.76C361.716 244.451 359.891 244.796 357.671 244.796Z" fill="#292C33" fill-opacity="0.6"/>
<path d="M334.708 303.796C332.883 303.796 331.107 303.512 329.38 302.945C327.678 302.378 326.284 301.613 325.199 300.651L326.901 297.728C327.764 298.542 328.887 299.208 330.268 299.726C331.649 300.244 333.129 300.503 334.708 300.503C336.632 300.503 338.124 300.096 339.185 299.282C340.27 298.443 340.813 297.321 340.813 295.915C340.813 294.558 340.295 293.473 339.259 292.659C338.248 291.82 336.632 291.401 334.412 291.401H332.34V288.811L340.036 279.339L340.554 280.819H326.383V277.6H343.477V280.116L335.818 289.551L333.894 288.404H335.115C338.248 288.404 340.591 289.107 342.145 290.513C343.724 291.919 344.513 293.707 344.513 295.878C344.513 297.333 344.155 298.665 343.44 299.874C342.725 301.083 341.639 302.045 340.184 302.76C338.753 303.451 336.928 303.796 334.708 303.796ZM358.546 303.796C356.523 303.796 354.71 303.278 353.107 302.242C351.528 301.206 350.27 299.701 349.333 297.728C348.42 295.755 347.964 293.362 347.964 290.55C347.964 287.738 348.42 285.345 349.333 283.372C350.27 281.399 351.528 279.894 353.107 278.858C354.71 277.822 356.523 277.304 358.546 277.304C360.544 277.304 362.345 277.822 363.948 278.858C365.551 279.894 366.809 281.399 367.722 283.372C368.635 285.345 369.091 287.738 369.091 290.55C369.091 293.362 368.635 295.755 367.722 297.728C366.809 299.701 365.551 301.206 363.948 302.242C362.345 303.278 360.544 303.796 358.546 303.796ZM358.546 300.503C359.903 300.503 361.087 300.133 362.098 299.393C363.134 298.653 363.936 297.543 364.503 296.063C365.095 294.583 365.391 292.745 365.391 290.55C365.391 288.355 365.095 286.517 364.503 285.037C363.936 283.557 363.134 282.447 362.098 281.707C361.087 280.967 359.903 280.597 358.546 280.597C357.189 280.597 355.993 280.967 354.957 281.707C353.921 282.447 353.107 283.557 352.515 285.037C351.948 286.517 351.664 288.355 351.664 290.55C351.664 292.745 351.948 294.583 352.515 296.063C353.107 297.543 353.921 298.653 354.957 299.393C355.993 300.133 357.189 300.503 358.546 300.503Z" fill="#292C33" fill-opacity="0.6"/>
<path d="M408.923 74.7961C407.098 74.7961 405.322 74.5124 403.595 73.9451C401.893 73.3778 400.5 72.6131 399.414 71.6511L401.116 68.7281C401.98 69.5421 403.102 70.2081 404.483 70.7261C405.865 71.2441 407.345 71.5031 408.923 71.5031C410.847 71.5031 412.34 71.0961 413.4 70.2821C414.486 69.4434 415.028 68.3211 415.028 66.9151C415.028 65.5584 414.51 64.4731 413.474 63.6591C412.463 62.8204 410.847 62.4011 408.627 62.4011H406.555V59.8111L414.251 50.3391L414.769 51.8191H400.598V48.6001H417.692V51.1161L410.033 60.5511L408.109 59.4041H409.33C412.463 59.4041 414.806 60.1071 416.36 61.5131C417.939 62.9191 418.728 64.7074 418.728 66.8781C418.728 68.3334 418.371 69.6654 417.655 70.8741C416.94 72.0828 415.855 73.0448 414.399 73.7601C412.969 74.4508 411.143 74.7961 408.923 74.7961Z" fill="#292C33" fill-opacity="0.6"/>
<path d="M399.896 126.5V102.08L401.487 103.819H394.05V100.6H403.559V126.5H399.896ZM419.806 126.796C417.784 126.796 415.971 126.278 414.367 125.242C412.789 124.206 411.531 122.701 410.593 120.728C409.681 118.755 409.224 116.362 409.224 113.55C409.224 110.738 409.681 108.345 410.593 106.372C411.531 104.399 412.789 102.894 414.367 101.858C415.971 100.822 417.784 100.304 419.806 100.304C421.804 100.304 423.605 100.822 425.208 101.858C426.812 102.894 428.07 104.399 428.982 106.372C429.895 108.345 430.351 110.738 430.351 113.55C430.351 116.362 429.895 118.755 428.982 120.728C428.07 122.701 426.812 124.206 425.208 125.242C423.605 126.278 421.804 126.796 419.806 126.796ZM419.806 123.503C421.163 123.503 422.347 123.133 423.358 122.393C424.394 121.653 425.196 120.543 425.763 119.063C426.355 117.583 426.651 115.745 426.651 113.55C426.651 111.355 426.355 109.517 425.763 108.037C425.196 106.557 424.394 105.447 423.358 104.707C422.347 103.967 421.163 103.597 419.806 103.597C418.45 103.597 417.253 103.967 416.217 104.707C415.181 105.447 414.367 106.557 413.775 108.037C413.208 109.517 412.924 111.355 412.924 113.55C412.924 115.745 413.208 117.583 413.775 119.063C414.367 120.543 415.181 121.653 416.217 122.393C417.253 123.133 418.45 123.503 419.806 123.503Z" fill="#292C33" fill-opacity="0.6"/>
<path d="M391.672 244.5V241.984L402.217 231.809C403.155 230.921 403.845 230.144 404.289 229.478C404.758 228.787 405.066 228.158 405.214 227.591C405.387 226.999 405.473 226.432 405.473 225.889C405.473 224.557 405.005 223.509 404.067 222.744C403.13 221.979 401.761 221.597 399.96 221.597C398.579 221.597 397.333 221.831 396.223 222.3C395.113 222.744 394.151 223.447 393.337 224.409L390.821 222.226C391.808 220.968 393.128 220.006 394.78 219.34C396.458 218.649 398.295 218.304 400.293 218.304C402.094 218.304 403.66 218.6 404.992 219.192C406.324 219.759 407.348 220.586 408.063 221.671C408.803 222.756 409.173 224.039 409.173 225.519C409.173 226.358 409.062 227.184 408.84 227.998C408.618 228.812 408.199 229.675 407.582 230.588C406.966 231.501 406.078 232.524 404.918 233.659L395.52 242.724L394.632 241.281H410.283V244.5H391.672ZM412.233 238.136V235.546L425.479 218.6H429.475L416.34 235.546L414.453 234.954H435.136V238.136H412.233ZM426.626 244.5V238.136L426.737 234.954V229.33H430.215V244.5H426.626Z" fill="#292C33" fill-opacity="0.6"/>
<path d="M15.4708 120.136V117.546L28.7168 100.6H32.7128L19.5778 117.546L17.6908 116.954H38.3738V120.136H15.4708ZM29.8638 126.5V120.136L29.9748 116.954V111.33H33.4528V126.5H29.8638Z" fill="#292C33" fill-opacity="0.6"/>
<path d="M18.888 185.5V161.08L20.479 162.819H13.042V159.6H22.551V185.5H18.888ZM32.5823 185.5V161.08L34.1733 162.819H26.7363V159.6H36.2453V185.5H32.5823Z" fill="#292C33" fill-opacity="0.6"/>
<path d="M13.8294 244.5V220.08L15.4204 221.819H7.9834V218.6H17.4924V244.5H13.8294ZM33.2587 244.796C31.1621 244.796 29.3491 244.488 27.8197 243.871C26.2904 243.254 25.1064 242.379 24.2677 241.244C23.4291 240.085 23.0097 238.728 23.0097 237.174C23.0097 235.645 23.4044 234.35 24.1937 233.289C25.0077 232.204 26.1794 231.39 27.7087 230.847C29.2381 230.28 31.0881 229.996 33.2587 229.996C35.4294 229.996 37.2794 230.28 38.8087 230.847C40.3627 231.39 41.5467 232.204 42.3607 233.289C43.1747 234.374 43.5817 235.669 43.5817 237.174C43.5817 238.728 43.1624 240.085 42.3237 241.244C41.4851 242.379 40.2887 243.254 38.7347 243.871C37.1807 244.488 35.3554 244.796 33.2587 244.796ZM33.2587 241.799C35.3307 241.799 36.9464 241.38 38.1057 240.541C39.2897 239.678 39.8817 238.518 39.8817 237.063C39.8817 235.632 39.2897 234.51 38.1057 233.696C36.9464 232.857 35.3307 232.438 33.2587 232.438C31.2114 232.438 29.6081 232.857 28.4487 233.696C27.2894 234.51 26.7097 235.632 26.7097 237.063C26.7097 238.518 27.2894 239.678 28.4487 240.541C29.6081 241.38 31.2114 241.799 33.2587 241.799ZM33.2587 231.994C31.2854 231.994 29.6081 231.735 28.2267 231.217C26.8454 230.674 25.7847 229.91 25.0447 228.923C24.3047 227.912 23.9347 226.715 23.9347 225.334C23.9347 223.879 24.3171 222.633 25.0817 221.597C25.8711 220.536 26.9687 219.722 28.3747 219.155C29.7807 218.588 31.4087 218.304 33.2587 218.304C35.1334 218.304 36.7737 218.588 38.1797 219.155C39.5857 219.722 40.6834 220.536 41.4727 221.597C42.2621 222.633 42.6567 223.879 42.6567 225.334C42.6567 226.715 42.2867 227.912 41.5467 228.923C40.8067 229.91 39.7337 230.674 38.3277 231.217C36.9217 231.735 35.2321 231.994 33.2587 231.994ZM33.2587 229.626C35.0594 229.626 36.4654 229.256 37.4767 228.516C38.5127 227.776 39.0307 226.765 39.0307 225.482C39.0307 224.175 38.5004 223.151 37.4397 222.411C36.3791 221.671 34.9854 221.301 33.2587 221.301C31.5321 221.301 30.1507 221.671 29.1147 222.411C28.1034 223.151 27.5977 224.175 27.5977 225.482C27.5977 226.765 28.0911 227.776 29.0777 228.516C30.0891 229.256 31.4827 229.626 33.2587 229.626Z" fill="white"/>
<path d="M6.56328 303.5V300.984L17.1082 290.809C18.0456 289.921 18.7362 289.144 19.1802 288.478C19.6489 287.787 19.9572 287.158 20.1052 286.591C20.2779 285.999 20.3642 285.432 20.3642 284.889C20.3642 283.557 19.8956 282.509 18.9582 281.744C18.0209 280.979 16.6519 280.597 14.8512 280.597C13.4699 280.597 12.2243 280.831 11.1143 281.3C10.0043 281.744 9.04228 282.447 8.22828 283.409L5.71228 281.226C6.69894 279.968 8.01861 279.006 9.67128 278.34C11.3486 277.649 13.1863 277.304 15.1842 277.304C16.9849 277.304 18.5512 277.6 19.8832 278.192C21.2152 278.759 22.2389 279.586 22.9542 280.671C23.6942 281.756 24.0642 283.039 24.0642 284.519C24.0642 285.358 23.9532 286.184 23.7312 286.998C23.5092 287.812 23.0899 288.675 22.4732 289.588C21.8566 290.501 20.9686 291.524 19.8092 292.659L10.4113 301.724L9.52328 300.281H25.1742V303.5H6.56328ZM36.5783 303.796C34.753 303.796 32.977 303.512 31.2503 302.945C29.5483 302.378 28.1547 301.613 27.0693 300.651L28.7713 297.728C29.6347 298.542 30.757 299.208 32.1383 299.726C33.5197 300.244 34.9873 300.503 36.5413 300.503C38.5147 300.503 40.0317 300.084 41.0923 299.245C42.153 298.406 42.6833 297.284 42.6833 295.878C42.6833 294.916 42.449 294.077 41.9803 293.362C41.5117 292.647 40.6977 292.104 39.5383 291.734C38.4037 291.339 36.8373 291.142 34.8393 291.142H28.9563L30.3253 277.6H44.9403V280.819H31.6943L33.6183 279.006L32.5453 289.699L30.6213 287.923H35.6163C38.2063 287.923 40.2907 288.256 41.8693 288.922C43.448 289.588 44.595 290.513 45.3103 291.697C46.0257 292.856 46.3833 294.201 46.3833 295.73C46.3833 297.21 46.0257 298.567 45.3103 299.8C44.595 301.009 43.5097 301.983 42.0543 302.723C40.6237 303.438 38.7983 303.796 36.5783 303.796Z" fill="#292C33" fill-opacity="0.6"/>
<path d="M88.9553 126.796C87.1299 126.796 85.3539 126.512 83.6273 125.945C81.9253 125.378 80.5316 124.613 79.4463 123.651L81.1483 120.728C82.0116 121.542 83.1339 122.208 84.5153 122.726C85.8966 123.244 87.3643 123.503 88.9183 123.503C90.8916 123.503 92.4086 123.084 93.4693 122.245C94.53 121.406 95.0603 120.284 95.0603 118.878C95.0603 117.916 94.8259 117.077 94.3573 116.362C93.8886 115.647 93.0746 115.104 91.9153 114.734C90.7806 114.339 89.2143 114.142 87.2163 114.142H81.3333L82.7023 100.6H97.3173V103.819H84.0713L85.9953 102.006L84.9223 112.699L82.9983 110.923H87.9933C90.5833 110.923 92.6676 111.256 94.2463 111.922C95.825 112.588 96.972 113.513 97.6873 114.697C98.4026 115.856 98.7603 117.201 98.7603 118.73C98.7603 120.21 98.4026 121.567 97.6873 122.8C96.972 124.009 95.8866 124.983 94.4313 125.723C93.0006 126.438 91.1753 126.796 88.9553 126.796Z" fill="#292C33" fill-opacity="0.6"/>
<path d="M78.1121 185.5V161.08L79.7031 162.819H72.2661V159.6H81.7751V185.5H78.1121ZM87.0335 185.5V182.984L97.5785 172.809C98.5158 171.921 99.2065 171.144 99.6505 170.478C100.119 169.787 100.428 169.158 100.576 168.591C100.748 167.999 100.835 167.432 100.835 166.889C100.835 165.557 100.366 164.509 99.4285 163.744C98.4911 162.979 97.1221 162.597 95.3215 162.597C93.9401 162.597 92.6945 162.831 91.5845 163.3C90.4745 163.744 89.5125 164.447 88.6985 165.409L86.1825 163.226C87.1691 161.968 88.4888 161.006 90.1415 160.34C91.8188 159.649 93.6565 159.304 95.6545 159.304C97.4551 159.304 99.0215 159.6 100.354 160.192C101.686 160.759 102.709 161.586 103.425 162.671C104.165 163.756 104.535 165.039 104.535 166.519C104.535 167.358 104.424 168.184 104.202 168.998C103.98 169.812 103.56 170.675 102.944 171.588C102.327 172.501 101.439 173.524 100.28 174.659L90.8815 183.724L89.9935 182.281H105.645V185.5H87.0335Z" fill="#292C33" fill-opacity="0.6"/>
<path d="M77.3172 244.5V220.08L78.9082 221.819H71.4712V218.6H80.9802V244.5H77.3172ZM95.0445 218.304C97.3879 218.304 99.3612 218.81 100.964 219.821C102.592 220.832 103.826 222.3 104.665 224.224C105.503 226.123 105.923 228.454 105.923 231.217C105.923 234.152 105.405 236.631 104.368 238.654C103.332 240.677 101.902 242.206 100.076 243.242C98.2512 244.278 96.1175 244.796 93.6755 244.796C92.4669 244.796 91.2952 244.673 90.1605 244.426C89.0505 244.179 88.0762 243.797 87.2375 243.279L88.6435 240.393C89.3342 240.837 90.0989 241.158 90.9375 241.355C91.8009 241.528 92.7012 241.614 93.6385 241.614C96.2532 241.614 98.3375 240.8 99.8915 239.172C101.445 237.519 102.222 235.077 102.222 231.846C102.222 231.328 102.198 230.711 102.148 229.996C102.099 229.281 101.988 228.578 101.815 227.887L103.036 229.145C102.691 230.28 102.111 231.242 101.297 232.031C100.508 232.796 99.5462 233.375 98.4115 233.77C97.3015 234.14 96.0805 234.325 94.7485 234.325C93.0465 234.325 91.5295 234.004 90.1975 233.363C88.8655 232.722 87.8172 231.821 87.0525 230.662C86.2879 229.478 85.9055 228.084 85.9055 226.481C85.9055 224.804 86.3002 223.361 87.0895 222.152C87.9035 220.919 89.0012 219.969 90.3825 219.303C91.7885 218.637 93.3425 218.304 95.0445 218.304ZM95.1925 221.301C94.0825 221.301 93.0959 221.511 92.2325 221.93C91.3692 222.349 90.6909 222.929 90.1975 223.669C89.7289 224.409 89.4945 225.297 89.4945 226.333C89.4945 227.862 90.0249 229.083 91.0855 229.996C92.1462 230.884 93.5769 231.328 95.3775 231.328C96.5615 231.328 97.5975 231.106 98.4855 230.662C99.3982 230.218 100.101 229.614 100.594 228.849C101.112 228.084 101.371 227.233 101.371 226.296C101.371 225.383 101.137 224.557 100.668 223.817C100.2 223.077 99.5092 222.473 98.5965 222.004C97.6839 221.535 96.5492 221.301 95.1925 221.301Z" fill="white"/>
<path d="M68.7864 303.5V300.984L79.3314 290.809C80.2687 289.921 80.9594 289.144 81.4034 288.478C81.872 287.787 82.1804 287.158 82.3284 286.591C82.501 285.999 82.5874 285.432 82.5874 284.889C82.5874 283.557 82.1187 282.509 81.1814 281.744C80.244 280.979 78.875 280.597 77.0744 280.597C75.693 280.597 74.4474 280.831 73.3374 281.3C72.2274 281.744 71.2654 282.447 70.4514 283.409L67.9354 281.226C68.922 279.968 70.2417 279.006 71.8944 278.34C73.5717 277.649 75.4094 277.304 77.4074 277.304C79.208 277.304 80.7744 277.6 82.1064 278.192C83.4384 278.759 84.462 279.586 85.1774 280.671C85.9174 281.756 86.2874 283.039 86.2874 284.519C86.2874 285.358 86.1764 286.184 85.9544 286.998C85.7324 287.812 85.313 288.675 84.6964 289.588C84.0797 290.501 83.1917 291.524 82.0324 292.659L72.6344 301.724L71.7464 300.281H87.3974V303.5H68.7864ZM101.281 303.796C98.9873 303.796 97.0263 303.29 95.3983 302.279C93.7703 301.268 92.5247 299.812 91.6613 297.913C90.8227 295.989 90.4033 293.646 90.4033 290.883C90.4033 287.948 90.9213 285.469 91.9573 283.446C92.9933 281.423 94.4363 279.894 96.2863 278.858C98.1363 277.822 100.258 277.304 102.65 277.304C103.884 277.304 105.055 277.427 106.165 277.674C107.3 277.921 108.274 278.303 109.088 278.821L107.682 281.707C107.016 281.238 106.252 280.918 105.388 280.745C104.55 280.572 103.662 280.486 102.724 280.486C100.085 280.486 97.9883 281.312 96.4343 282.965C94.8803 284.593 94.1033 287.023 94.1033 290.254C94.1033 290.772 94.128 291.389 94.1773 292.104C94.2267 292.819 94.35 293.522 94.5473 294.213L93.2893 292.955C93.6593 291.82 94.239 290.871 95.0283 290.106C95.8423 289.317 96.8043 288.737 97.9143 288.367C99.049 287.972 100.27 287.775 101.577 287.775C103.304 287.775 104.833 288.096 106.165 288.737C107.497 289.378 108.546 290.291 109.31 291.475C110.075 292.634 110.457 294.016 110.457 295.619C110.457 297.272 110.05 298.715 109.236 299.948C108.422 301.181 107.325 302.131 105.943 302.797C104.562 303.463 103.008 303.796 101.281 303.796ZM101.133 300.799C102.268 300.799 103.255 300.589 104.093 300.17C104.957 299.751 105.635 299.171 106.128 298.431C106.622 297.666 106.868 296.778 106.868 295.767C106.868 294.238 106.338 293.029 105.277 292.141C104.217 291.228 102.774 290.772 100.948 290.772C99.7643 290.772 98.7283 290.994 97.8403 291.438C96.9523 291.882 96.2493 292.486 95.7313 293.251C95.238 293.991 94.9913 294.842 94.9913 295.804C94.9913 296.692 95.2257 297.518 95.6943 298.283C96.163 299.023 96.8537 299.627 97.7663 300.096C98.679 300.565 99.8013 300.799 101.133 300.799Z" fill="#292C33" fill-opacity="0.6"/>
<path d="M155.176 126.796C152.882 126.796 150.921 126.29 149.293 125.279C147.665 124.268 146.42 122.812 145.556 120.913C144.718 118.989 144.298 116.646 144.298 113.883C144.298 110.948 144.816 108.469 145.852 106.446C146.888 104.423 148.331 102.894 150.181 101.858C152.031 100.822 154.153 100.304 156.545 100.304C157.779 100.304 158.95 100.427 160.06 100.674C161.195 100.921 162.169 101.303 162.983 101.821L161.577 104.707C160.911 104.238 160.147 103.918 159.283 103.745C158.445 103.572 157.557 103.486 156.619 103.486C153.98 103.486 151.883 104.312 150.329 105.965C148.775 107.593 147.998 110.023 147.998 113.254C147.998 113.772 148.023 114.389 148.072 115.104C148.122 115.819 148.245 116.522 148.442 117.213L147.184 115.955C147.554 114.82 148.134 113.871 148.923 113.106C149.737 112.317 150.699 111.737 151.809 111.367C152.944 110.972 154.165 110.775 155.472 110.775C157.199 110.775 158.728 111.096 160.06 111.737C161.392 112.378 162.441 113.291 163.205 114.475C163.97 115.634 164.352 117.016 164.352 118.619C164.352 120.272 163.945 121.715 163.131 122.948C162.317 124.181 161.22 125.131 159.838 125.797C158.457 126.463 156.903 126.796 155.176 126.796ZM155.028 123.799C156.163 123.799 157.15 123.589 157.988 123.17C158.852 122.751 159.53 122.171 160.023 121.431C160.517 120.666 160.763 119.778 160.763 118.767C160.763 117.238 160.233 116.029 159.172 115.141C158.112 114.228 156.669 113.772 154.843 113.772C153.659 113.772 152.623 113.994 151.735 114.438C150.847 114.882 150.144 115.486 149.626 116.251C149.133 116.991 148.886 117.842 148.886 118.804C148.886 119.692 149.121 120.518 149.589 121.283C150.058 122.023 150.749 122.627 151.661 123.096C152.574 123.565 153.696 123.799 155.028 123.799Z" fill="#292C33" fill-opacity="0.6"/>
<path d="M142.648 185.5V161.08L144.239 162.819H136.802V159.6H146.311V185.5H142.648ZM159.895 185.796C158.069 185.796 156.293 185.512 154.567 184.945C152.865 184.378 151.471 183.613 150.386 182.651L152.088 179.728C152.951 180.542 154.073 181.208 155.455 181.726C156.836 182.244 158.316 182.503 159.895 182.503C161.819 182.503 163.311 182.096 164.372 181.282C165.457 180.443 166 179.321 166 177.915C166 176.558 165.482 175.473 164.446 174.659C163.434 173.82 161.819 173.401 159.599 173.401H157.527V170.811L165.223 161.339L165.741 162.819H151.57V159.6H168.664V162.116L161.005 171.551L159.081 170.404H160.302C163.434 170.404 165.778 171.107 167.332 172.513C168.91 173.919 169.7 175.707 169.7 177.878C169.7 179.333 169.342 180.665 168.627 181.874C167.911 183.083 166.826 184.045 165.371 184.76C163.94 185.451 162.115 185.796 159.895 185.796Z" fill="#292C33" fill-opacity="0.6"/>
<path d="M132.365 244.5V241.984L142.91 231.809C143.847 230.921 144.538 230.144 144.982 229.478C145.451 228.787 145.759 228.158 145.907 227.591C146.08 226.999 146.166 226.432 146.166 225.889C146.166 224.557 145.697 223.509 144.76 222.744C143.823 221.979 142.454 221.597 140.653 221.597C139.272 221.597 138.026 221.831 136.916 222.3C135.806 222.744 134.844 223.447 134.03 224.409L131.514 222.226C132.501 220.968 133.82 220.006 135.473 219.34C137.15 218.649 138.988 218.304 140.986 218.304C142.787 218.304 144.353 218.6 145.685 219.192C147.017 219.759 148.041 220.586 148.756 221.671C149.496 222.756 149.866 224.039 149.866 225.519C149.866 226.358 149.755 227.184 149.533 227.998C149.311 228.812 148.892 229.675 148.275 230.588C147.658 231.501 146.77 232.524 145.611 233.659L136.213 242.724L135.325 241.281H150.976V244.5H132.365ZM164.564 244.796C162.541 244.796 160.728 244.278 159.125 243.242C157.546 242.206 156.288 240.701 155.351 238.728C154.438 236.755 153.982 234.362 153.982 231.55C153.982 228.738 154.438 226.345 155.351 224.372C156.288 222.399 157.546 220.894 159.125 219.858C160.728 218.822 162.541 218.304 164.564 218.304C166.562 218.304 168.363 218.822 169.966 219.858C171.569 220.894 172.827 222.399 173.74 224.372C174.653 226.345 175.109 228.738 175.109 231.55C175.109 234.362 174.653 236.755 173.74 238.728C172.827 240.701 171.569 242.206 169.966 243.242C168.363 244.278 166.562 244.796 164.564 244.796ZM164.564 241.503C165.921 241.503 167.105 241.133 168.116 240.393C169.152 239.653 169.954 238.543 170.521 237.063C171.113 235.583 171.409 233.745 171.409 231.55C171.409 229.355 171.113 227.517 170.521 226.037C169.954 224.557 169.152 223.447 168.116 222.707C167.105 221.967 165.921 221.597 164.564 221.597C163.207 221.597 162.011 221.967 160.975 222.707C159.939 223.447 159.125 224.557 158.533 226.037C157.966 227.517 157.682 229.355 157.682 231.55C157.682 233.745 157.966 235.583 158.533 237.063C159.125 238.543 159.939 239.653 160.975 240.393C162.011 241.133 163.207 241.503 164.564 241.503Z" fill="#292C33" fill-opacity="0.6"/>
<path d="M133.648 303.5V300.984L144.193 290.809C145.13 289.921 145.821 289.144 146.265 288.478C146.733 287.787 147.042 287.158 147.19 286.591C147.362 285.999 147.449 285.432 147.449 284.889C147.449 283.557 146.98 282.509 146.043 281.744C145.105 280.979 143.736 280.597 141.936 280.597C140.554 280.597 139.309 280.831 138.199 281.3C137.089 281.744 136.127 282.447 135.313 283.409L132.797 281.226C133.783 279.968 135.103 279.006 136.756 278.34C138.433 277.649 140.271 277.304 142.269 277.304C144.069 277.304 145.636 277.6 146.968 278.192C148.3 278.759 149.323 279.586 150.039 280.671C150.779 281.756 151.149 283.039 151.149 284.519C151.149 285.358 151.038 286.184 150.816 286.998C150.594 287.812 150.174 288.675 149.558 289.588C148.941 290.501 148.053 291.524 146.894 292.659L137.496 301.724L136.608 300.281H152.259V303.5H133.648ZM159.742 303.5L170.731 279.154L171.693 280.819H156.301L158.151 279.006V285.444H154.599V277.6H174.135V280.116L163.664 303.5H159.742Z" fill="white"/>
<path d="M205.86 185.5V161.08L207.451 162.819H200.014V159.6H209.523V185.5H205.86ZM214.818 179.136V176.546L228.064 159.6H232.06L218.925 176.546L217.038 175.954H237.721V179.136H214.818ZM229.211 185.5V179.136L229.322 175.954V170.33H232.8V185.5H229.211Z" fill="#292C33" fill-opacity="0.6"/>
<path d="M202.839 244.5V241.984L213.384 231.809C214.322 230.921 215.012 230.144 215.456 229.478C215.925 228.787 216.233 228.158 216.381 227.591C216.554 226.999 216.64 226.432 216.64 225.889C216.64 224.557 216.172 223.509 215.234 222.744C214.297 221.979 212.928 221.597 211.127 221.597C209.746 221.597 208.5 221.831 207.39 222.3C206.28 222.744 205.318 223.447 204.504 224.409L201.988 222.226C202.975 220.968 204.295 220.006 205.947 219.34C207.625 218.649 209.462 218.304 211.46 218.304C213.261 218.304 214.827 218.6 216.159 219.192C217.491 219.759 218.515 220.586 219.23 221.671C219.97 222.756 220.34 224.039 220.34 225.519C220.34 226.358 220.229 227.184 220.007 227.998C219.785 228.812 219.366 229.675 218.749 230.588C218.133 231.501 217.245 232.524 216.085 233.659L206.687 242.724L205.799 241.281H221.45V244.5H202.839ZM228.858 244.5V220.08L230.449 221.819H223.012V218.6H232.521V244.5H228.858Z" fill="#292C33" fill-opacity="0.6"/>
<path d="M197.781 303.5V300.984L208.326 290.809C209.263 289.921 209.954 289.144 210.398 288.478C210.866 287.787 211.175 287.158 211.323 286.591C211.495 285.999 211.582 285.432 211.582 284.889C211.582 283.557 211.113 282.509 210.176 281.744C209.238 280.979 207.869 280.597 206.069 280.597C204.687 280.597 203.442 280.831 202.332 281.3C201.222 281.744 200.26 282.447 199.446 283.409L196.93 281.226C197.916 279.968 199.236 279.006 200.889 278.34C202.566 277.649 204.404 277.304 206.402 277.304C208.202 277.304 209.769 277.6 211.101 278.192C212.433 278.759 213.456 279.586 214.172 280.671C214.912 281.756 215.282 283.039 215.282 284.519C215.282 285.358 215.171 286.184 214.949 286.998C214.727 287.812 214.307 288.675 213.691 289.588C213.074 290.501 212.186 291.524 211.027 292.659L201.629 301.724L200.741 300.281H216.392V303.5H197.781ZM229.535 303.796C227.438 303.796 225.625 303.488 224.096 302.871C222.566 302.254 221.382 301.379 220.544 300.244C219.705 299.085 219.286 297.728 219.286 296.174C219.286 294.645 219.68 293.35 220.47 292.289C221.284 291.204 222.455 290.39 223.985 289.847C225.514 289.28 227.364 288.996 229.535 288.996C231.705 288.996 233.555 289.28 235.085 289.847C236.639 290.39 237.823 291.204 238.637 292.289C239.451 293.374 239.858 294.669 239.858 296.174C239.858 297.728 239.438 299.085 238.6 300.244C237.761 301.379 236.565 302.254 235.011 302.871C233.457 303.488 231.631 303.796 229.535 303.796ZM229.535 300.799C231.607 300.799 233.222 300.38 234.382 299.541C235.566 298.678 236.158 297.518 236.158 296.063C236.158 294.632 235.566 293.51 234.382 292.696C233.222 291.857 231.607 291.438 229.535 291.438C227.487 291.438 225.884 291.857 224.725 292.696C223.565 293.51 222.986 294.632 222.986 296.063C222.986 297.518 223.565 298.678 224.725 299.541C225.884 300.38 227.487 300.799 229.535 300.799ZM229.535 290.994C227.561 290.994 225.884 290.735 224.503 290.217C223.121 289.674 222.061 288.91 221.321 287.923C220.581 286.912 220.211 285.715 220.211 284.334C220.211 282.879 220.593 281.633 221.358 280.597C222.147 279.536 223.245 278.722 224.651 278.155C226.057 277.588 227.685 277.304 229.535 277.304C231.409 277.304 233.05 277.588 234.456 278.155C235.862 278.722 236.959 279.536 237.749 280.597C238.538 281.633 238.933 282.879 238.933 284.334C238.933 285.715 238.563 286.912 237.823 287.923C237.083 288.91 236.01 289.674 234.604 290.217C233.198 290.735 231.508 290.994 229.535 290.994ZM229.535 288.626C231.335 288.626 232.741 288.256 233.753 287.516C234.789 286.776 235.307 285.765 235.307 284.482C235.307 283.175 234.776 282.151 233.716 281.411C232.655 280.671 231.261 280.301 229.535 280.301C227.808 280.301 226.427 280.671 225.391 281.411C224.379 282.151 223.874 283.175 223.874 284.482C223.874 285.765 224.367 286.776 225.354 287.516C226.365 288.256 227.759 288.626 229.535 288.626Z" fill="#292C33" fill-opacity="0.6"/>
<path d="M214.137 126.5L225.126 102.154L226.088 103.819H210.696L212.546 102.006V108.444H208.994V100.6H228.53V103.116L218.059 126.5H214.137Z" fill="#292C33" fill-opacity="0.6"/>
<path d="M401.179 185.5V161.08L402.77 162.819H395.333V159.6H404.842V185.5H401.179ZM414.984 185.5L425.973 161.154L426.935 162.819H411.543L413.393 161.006V167.444H409.841V159.6H429.377V162.116L418.906 185.5H414.984Z" fill="#292C33" fill-opacity="0.6"/>
</g>
</g>
</g>
</g>
<defs>
<clipPath id="clip0_3525_5479">
<rect width="435" height="314" fill="white" transform="translate(0.5)"/>
</clipPath>
</defs>
</svg>
