<svg width="431" height="314" viewBox="0 0 431 314" fill="none" xmlns="http://www.w3.org/2000/svg">
<g clip-path="url(#clip0_1035_5000)">
<rect width="57" height="47" transform="translate(57 89)" fill="#E4793D"/>
<rect width="57" height="47" transform="translate(122 89)" fill="#E4793D"/>
<rect width="57" height="47" transform="translate(187 89)" fill="#E4793D"/>
<mask id="mask0_1035_5000" style="mask-type:luminance" maskUnits="userSpaceOnUse" x="0" y="0" width="431" height="314">
<path d="M431 0.5H0V313.5H431V0.5Z" fill="white"/>
</mask>
<g mask="url(#mask0_1035_5000)">
<path d="M178.19 267.5H121.19V314.5H178.19V267.5Z" fill="#3C78EC"/>
<path d="M22.9564 20.7099H20.3476V3.77763H10.8906V20.7099H8.2002V1.79028H22.8749V20.7099H22.9564Z" fill="#B3B3B3"/>
<path d="M38.7725 20.7098H36.1636V14.7478H29.7231V20.7098H27.1143V6.6394H29.7231V12.7604H36.1636V6.6394H38.7725V20.7098Z" fill="#B3B3B3"/>
<path d="M73 20.7099V1.79028H79.359C81.3972 1.79028 82.9462 2.18775 84.0875 3.06218C85.2289 3.93662 85.7996 5.20852 85.7996 6.8779C85.7996 7.67284 85.555 8.38829 85.0658 9.10374C84.5767 9.81918 83.8429 10.2167 83.0277 10.5346C84.3321 10.6936 85.3104 11.2501 86.0441 12.1245C86.7779 12.9989 87.1855 14.1119 87.1855 15.3043C87.1855 17.0531 86.6148 18.325 85.4735 19.279C84.3321 20.2329 82.7831 20.6304 80.745 20.6304H73V20.7099ZM75.6904 9.81918H79.9297C80.908 9.81918 81.7233 9.5807 82.294 9.02424C82.9462 8.46778 83.1907 7.75234 83.1907 6.79841C83.1907 5.76498 82.8646 5.04954 82.2124 4.49308C81.5602 4.01611 80.5819 3.69814 79.359 3.69814H75.6904V9.81918ZM75.6904 11.8065V18.643H80.745C81.9678 18.643 82.8646 18.325 83.5168 17.7686C84.1691 17.2121 84.4952 16.3377 84.4952 15.3043C84.4952 14.2708 84.1691 13.3964 83.5168 12.7605C82.8646 12.1245 81.9678 11.8065 80.745 11.727H80.5819H75.6904V11.8065Z" fill="#B3B3B3"/>
<path d="M101.126 8.62675H96.3976V20.7098H93.7888V8.62675H89.0603V6.6394H101.126V8.62675Z" fill="#B3B3B3"/>
<path d="M150.512 14.6681C150.593 16.4965 149.941 18.0069 148.637 19.1993C147.332 20.3917 145.62 21.0277 143.419 21.0277C141.218 21.0277 139.424 20.2327 138.038 18.7223C136.652 17.212 136 15.3041 136 12.9193V9.58057C136 7.27524 136.652 5.28789 138.038 3.7775C139.424 2.26711 141.218 1.47217 143.419 1.47217C145.62 1.47217 147.332 2.02863 148.637 3.14155C149.941 4.25446 150.593 5.76485 150.512 7.67271V7.7522H147.984C147.984 6.4008 147.577 5.36738 146.761 4.57244C145.946 3.7775 144.805 3.38003 143.337 3.38003C141.87 3.38003 140.729 3.93649 139.832 5.1289C138.935 6.24182 138.527 7.67271 138.527 9.42158V12.8398C138.527 14.5887 138.935 16.0195 139.832 17.1325C140.729 18.2454 141.87 18.8813 143.337 18.8813C144.805 18.8813 145.946 18.4839 146.761 17.7684C147.577 16.9735 147.984 15.9401 147.984 14.5887H150.512V14.6681Z" fill="#B3B3B3"/>
<path d="M165.92 14.1913C165.92 16.2581 165.431 17.848 164.453 19.1199C163.474 20.3918 162.088 20.9483 160.295 20.9483C159.398 20.9483 158.664 20.7893 157.93 20.5508C157.278 20.2328 156.708 19.8353 156.218 19.2789V26.1154H153.61V6.63936H155.648L156.055 8.46773C156.545 7.75228 157.115 7.27532 157.849 6.95734C158.583 6.63936 159.398 6.40088 160.295 6.40088C162.088 6.40088 163.474 7.11633 164.453 8.46773C165.431 9.81913 165.92 11.6475 165.92 13.9528V14.1913ZM163.311 13.9528C163.311 12.3629 162.985 11.0115 162.333 10.0576C161.681 9.10368 160.702 8.54722 159.479 8.54722C158.746 8.54722 158.094 8.70621 157.523 9.02419C156.952 9.34216 156.545 9.81913 156.218 10.3756V17.212C156.545 17.7685 156.952 18.2455 157.523 18.5634C158.094 18.8814 158.746 19.0404 159.479 19.0404C160.702 19.0404 161.681 18.5634 162.333 17.689C162.985 16.8146 163.311 15.6222 163.311 14.2708V13.9528Z" fill="#B3B3B3"/>
<path d="M215.43 1.79028V20.7099H212.821V12.8399C212.006 13.0784 211.191 13.2374 210.375 13.3964C209.56 13.4759 208.663 13.5554 207.522 13.5554C205.402 13.5554 203.772 13.0784 202.631 12.204C201.489 11.3296 201 9.81918 201 7.75234V1.79028H203.609V7.75234C203.609 9.18323 203.935 10.1372 204.506 10.6936C205.158 11.2501 206.136 11.4885 207.441 11.4885C208.337 11.4885 209.234 11.4091 210.131 11.3296C210.946 11.1706 211.843 11.0116 212.74 10.7731V1.79028H215.43Z" fill="#B3B3B3"/>
<path d="M230.675 8.62675H225.947V20.7098H223.338V8.62675H218.61V6.6394H230.675V8.62675Z" fill="#B3B3B3"/>
<path d="M279.675 20.7099H277.066V3.77763H267.609V20.7099H265V1.79028H279.675V20.7099Z" fill="#B3B3B3"/>
<path d="M294.92 8.62675H290.192V20.7098H287.583V8.62675H282.854V6.6394H294.92V8.62675Z" fill="#B3B3B3"/>
<path d="M344.512 14.6682C344.593 16.4965 343.941 18.0069 342.637 19.1993C341.332 20.3918 339.62 21.0277 337.419 21.0277C335.218 21.0277 333.424 20.2328 332.038 18.7224C330.652 17.212 330 15.3041 330 12.9193V9.58057C330 7.27524 330.652 5.28789 332.038 3.7775C333.424 2.26711 335.218 1.47217 337.419 1.47217C339.62 1.47217 341.332 2.02863 342.637 3.14155C343.941 4.25446 344.593 5.76485 344.512 7.67271V7.75221H341.984C341.984 6.40081 341.577 5.36738 340.761 4.57244C339.946 3.7775 338.805 3.38003 337.337 3.38003C335.87 3.38003 334.729 3.93649 333.832 5.1289C332.935 6.24182 332.527 7.67271 332.527 9.42158V12.8398C332.527 14.5887 332.935 16.0196 333.832 17.1325C334.729 18.2454 335.87 18.8814 337.337 18.8814C338.805 18.8814 339.946 18.4839 340.761 17.7685C341.577 16.9735 341.984 15.9401 341.984 14.5887H344.512V14.6682Z" fill="#B3B3B3"/>
<path d="M353.887 6.40073C355.762 6.40073 357.148 7.03668 358.208 8.38808C359.268 9.73948 359.838 11.4088 359.838 13.5551V13.8731C359.838 15.94 359.268 17.6888 358.126 19.0402C356.985 20.3916 355.436 21.0276 353.398 21.0276C351.36 21.0276 349.811 20.3916 348.669 19.0402C347.528 17.6888 346.957 16.0195 346.957 13.8731V13.5551C346.957 13.4757 346.957 13.3962 346.957 13.3962C346.957 13.3167 346.957 13.3167 346.957 13.2372V10.2164C346.957 7.51365 347.528 5.60579 348.588 4.33388C349.648 3.06198 351.278 2.42602 353.398 2.26704C354.621 2.18754 355.599 2.02855 356.251 1.79007C356.903 1.55159 357.23 1.15411 357.23 0.597656H359.268V0.677151C359.349 2.02855 358.86 2.98248 357.882 3.53894C356.903 4.0954 355.517 4.41338 353.642 4.41338C352.256 4.41338 351.197 4.81085 350.381 5.52629C349.566 6.24174 349.158 7.27516 349.158 8.62656V8.70606C349.648 8.07011 350.381 7.51365 351.197 7.11618C352.012 6.71871 352.99 6.40073 353.887 6.40073ZM353.398 8.38808C352.175 8.38808 351.197 8.86505 350.544 9.81898C349.892 10.7729 349.566 12.0448 349.566 13.4757V13.7936C349.566 15.304 349.892 16.4964 350.544 17.4504C351.197 18.4043 352.175 18.8813 353.398 18.8813C354.621 18.8813 355.599 18.4043 356.251 17.4504C356.903 16.4964 357.23 15.2245 357.23 13.7936V13.4757C357.23 11.9653 356.903 10.7729 356.251 9.81898C355.599 8.86505 354.621 8.38808 353.398 8.38808Z" fill="#B3B3B3"/>
<path d="M394 20.7099V1.79028H400.359C402.397 1.79028 403.946 2.18775 405.088 3.06218C406.229 3.93662 406.8 5.20852 406.8 6.8779C406.8 7.67284 406.555 8.38829 406.066 9.10374C405.577 9.81918 404.843 10.2167 404.028 10.6141C405.332 10.7731 406.31 11.3296 407.044 12.204C407.778 13.0784 408.186 14.1913 408.186 15.3838C408.186 17.1326 407.615 18.4045 406.473 19.3585C405.332 20.3124 403.783 20.7099 401.745 20.7099H394ZM396.69 9.81918H400.93C401.908 9.81918 402.723 9.5807 403.294 9.02424C403.946 8.46778 404.191 7.75234 404.191 6.79841C404.191 5.76498 403.865 5.04954 403.212 4.49308C402.56 4.01611 401.582 3.69814 400.359 3.69814H396.69V9.81918ZM396.69 11.8065V18.643H401.745C402.968 18.643 403.865 18.325 404.517 17.7686C405.169 17.2121 405.495 16.3377 405.495 15.3043C405.495 14.2708 405.169 13.3964 404.517 12.7605C403.865 12.1245 402.968 11.8065 401.745 11.727H401.582H396.69V11.8065Z" fill="#B3B3B3"/>
<path d="M416.745 18.9608C417.561 18.9608 418.294 18.7223 418.865 18.1659C419.436 17.6094 419.762 16.9735 419.762 16.258H422.126V16.3375C422.126 17.5299 421.637 18.6428 420.496 19.5968C419.354 20.5507 418.131 21.0277 416.664 21.0277C414.626 21.0277 413.077 20.3917 411.935 19.0403C410.794 17.6889 410.305 16.0195 410.305 14.0322V13.4757C410.305 11.4884 410.876 9.81898 411.935 8.46758C413.077 7.11618 414.626 6.48022 416.582 6.48022C418.213 6.48022 419.517 6.95719 420.496 7.91112C421.474 8.86505 422.045 10.0575 421.963 11.4884V11.5679H419.599C419.599 10.6934 419.273 9.97796 418.702 9.34201C418.131 8.70606 417.398 8.46758 416.501 8.46758C415.196 8.46758 414.3 8.94454 413.647 9.89847C413.077 10.8524 412.751 12.0448 412.751 13.4757V14.0322C412.751 15.4631 413.077 16.6555 413.647 17.6094C414.544 18.4838 415.441 18.9608 416.745 18.9608Z" fill="#B3B3B3"/>
<path d="M279.295 74.5001V50.0801L280.886 51.8191H273.449V48.6001H282.958V74.5001H279.295Z" fill="#292C33"/>
<path d="M278.912 126.796C276.815 126.796 275.002 126.488 273.473 125.871C271.943 125.254 270.759 124.379 269.921 123.244C269.082 122.085 268.663 120.728 268.663 119.174C268.663 117.645 269.057 116.35 269.847 115.289C270.661 114.204 271.832 113.39 273.362 112.847C274.891 112.28 276.741 111.996 278.912 111.996C281.082 111.996 282.932 112.28 284.462 112.847C286.016 113.39 287.2 114.204 288.014 115.289C288.828 116.374 289.235 117.669 289.235 119.174C289.235 120.728 288.815 122.085 287.977 123.244C287.138 124.379 285.942 125.254 284.388 125.871C282.834 126.488 281.008 126.796 278.912 126.796ZM278.912 123.799C280.984 123.799 282.599 123.38 283.759 122.541C284.943 121.678 285.535 120.518 285.535 119.063C285.535 117.632 284.943 116.51 283.759 115.696C282.599 114.857 280.984 114.438 278.912 114.438C276.864 114.438 275.261 114.857 274.102 115.696C272.942 116.51 272.363 117.632 272.363 119.063C272.363 120.518 272.942 121.678 274.102 122.541C275.261 123.38 276.864 123.799 278.912 123.799ZM278.912 113.994C276.938 113.994 275.261 113.735 273.88 113.217C272.498 112.674 271.438 111.91 270.698 110.923C269.958 109.912 269.588 108.715 269.588 107.334C269.588 105.879 269.97 104.633 270.735 103.597C271.524 102.536 272.622 101.722 274.028 101.155C275.434 100.588 277.062 100.304 278.912 100.304C280.786 100.304 282.427 100.588 283.833 101.155C285.239 101.722 286.336 102.536 287.126 103.597C287.915 104.633 288.31 105.879 288.31 107.334C288.31 108.715 287.94 109.912 287.2 110.923C286.46 111.91 285.387 112.674 283.981 113.217C282.575 113.735 280.885 113.994 278.912 113.994ZM278.912 111.626C280.712 111.626 282.118 111.256 283.13 110.516C284.166 109.776 284.684 108.765 284.684 107.482C284.684 106.175 284.153 105.151 283.093 104.411C282.032 103.671 280.638 103.301 278.912 103.301C277.185 103.301 275.804 103.671 274.768 104.411C273.756 105.151 273.251 106.175 273.251 107.482C273.251 108.765 273.744 109.776 274.731 110.516C275.742 111.256 277.136 111.626 278.912 111.626Z" fill="#292C33"/>
<path d="M267.612 185.5V161.08L269.203 162.819H261.766V159.6H271.275V185.5H267.612ZM285.303 185.796C283.477 185.796 281.701 185.512 279.975 184.945C278.273 184.378 276.879 183.613 275.794 182.651L277.496 179.728C278.359 180.542 279.481 181.208 280.863 181.726C282.244 182.244 283.712 182.503 285.266 182.503C287.239 182.503 288.756 182.084 289.817 181.245C290.877 180.406 291.408 179.284 291.408 177.878C291.408 176.916 291.173 176.077 290.705 175.362C290.236 174.647 289.422 174.104 288.263 173.734C287.128 173.339 285.562 173.142 283.564 173.142H277.681L279.05 159.6H293.665V162.819H280.419L282.343 161.006L281.27 171.699L279.346 169.923H284.341C286.931 169.923 289.015 170.256 290.594 170.922C292.172 171.588 293.319 172.513 294.035 173.697C294.75 174.856 295.108 176.201 295.108 177.73C295.108 179.21 294.75 180.567 294.035 181.8C293.319 183.009 292.234 183.983 290.779 184.723C289.348 185.438 287.523 185.796 285.303 185.796Z" fill="#292C33"/>
<path d="M259.063 244.5V241.984L269.608 231.809C270.546 230.921 271.236 230.144 271.68 229.478C272.149 228.787 272.457 228.158 272.605 227.591C272.778 226.999 272.864 226.432 272.864 225.889C272.864 224.557 272.396 223.509 271.458 222.744C270.521 221.979 269.152 221.597 267.351 221.597C265.97 221.597 264.724 221.831 263.614 222.3C262.504 222.744 261.542 223.447 260.728 224.409L258.212 222.226C259.199 220.968 260.519 220.006 262.171 219.34C263.849 218.649 265.686 218.304 267.684 218.304C269.485 218.304 271.051 218.6 272.383 219.192C273.715 219.759 274.739 220.586 275.454 221.671C276.194 222.756 276.564 224.039 276.564 225.519C276.564 226.358 276.453 227.184 276.231 227.998C276.009 228.812 275.59 229.675 274.973 230.588C274.357 231.501 273.469 232.524 272.309 233.659L262.911 242.724L262.023 241.281H277.674V244.5H259.063ZM280.309 244.5V241.984L290.854 231.809C291.792 230.921 292.482 230.144 292.926 229.478C293.395 228.787 293.703 228.158 293.851 227.591C294.024 226.999 294.11 226.432 294.11 225.889C294.11 224.557 293.642 223.509 292.704 222.744C291.767 221.979 290.398 221.597 288.597 221.597C287.216 221.597 285.97 221.831 284.86 222.3C283.75 222.744 282.788 223.447 281.974 224.409L279.458 222.226C280.445 220.968 281.765 220.006 283.417 219.34C285.095 218.649 286.932 218.304 288.93 218.304C290.731 218.304 292.297 218.6 293.629 219.192C294.961 219.759 295.985 220.586 296.7 221.671C297.44 222.756 297.81 224.039 297.81 225.519C297.81 226.358 297.699 227.184 297.477 227.998C297.255 228.812 296.836 229.675 296.219 230.588C295.603 231.501 294.715 232.524 293.555 233.659L284.157 242.724L283.269 241.281H298.92V244.5H280.309Z" fill="#292C33"/>
<path d="M258.268 303.5V300.984L268.813 290.809C269.751 289.921 270.441 289.144 270.885 288.478C271.354 287.787 271.662 287.158 271.81 286.591C271.983 285.999 272.069 285.432 272.069 284.889C272.069 283.557 271.601 282.509 270.663 281.744C269.726 280.979 268.357 280.597 266.556 280.597C265.175 280.597 263.929 280.831 262.819 281.3C261.709 281.744 260.747 282.447 259.933 283.409L257.417 281.226C258.404 279.968 259.724 279.006 261.376 278.34C263.054 277.649 264.891 277.304 266.889 277.304C268.69 277.304 270.256 277.6 271.588 278.192C272.92 278.759 273.944 279.586 274.659 280.671C275.399 281.756 275.769 283.039 275.769 284.519C275.769 285.358 275.658 286.184 275.436 286.998C275.214 287.812 274.795 288.675 274.178 289.588C273.562 290.501 272.674 291.524 271.514 292.659L262.116 301.724L261.228 300.281H276.879V303.5H258.268ZM288.321 277.304C290.664 277.304 292.637 277.81 294.241 278.821C295.869 279.832 297.102 281.3 297.941 283.224C298.779 285.123 299.199 287.454 299.199 290.217C299.199 293.152 298.681 295.631 297.645 297.654C296.609 299.677 295.178 301.206 293.353 302.242C291.527 303.278 289.394 303.796 286.952 303.796C285.743 303.796 284.571 303.673 283.437 303.426C282.327 303.179 281.352 302.797 280.514 302.279L281.92 299.393C282.61 299.837 283.375 300.158 284.214 300.355C285.077 300.528 285.977 300.614 286.915 300.614C289.529 300.614 291.614 299.8 293.168 298.172C294.722 296.519 295.499 294.077 295.499 290.846C295.499 290.328 295.474 289.711 295.425 288.996C295.375 288.281 295.264 287.578 295.092 286.887L296.313 288.145C295.967 289.28 295.388 290.242 294.574 291.031C293.784 291.796 292.822 292.375 291.688 292.77C290.578 293.14 289.357 293.325 288.025 293.325C286.323 293.325 284.806 293.004 283.474 292.363C282.142 291.722 281.093 290.821 280.329 289.662C279.564 288.478 279.182 287.084 279.182 285.481C279.182 283.804 279.576 282.361 280.366 281.152C281.18 279.919 282.277 278.969 283.659 278.303C285.065 277.637 286.619 277.304 288.321 277.304ZM288.469 280.301C287.359 280.301 286.372 280.511 285.509 280.93C284.645 281.349 283.967 281.929 283.474 282.669C283.005 283.409 282.771 284.297 282.771 285.333C282.771 286.862 283.301 288.083 284.362 288.996C285.422 289.884 286.853 290.328 288.654 290.328C289.838 290.328 290.874 290.106 291.762 289.662C292.674 289.218 293.377 288.614 293.871 287.849C294.389 287.084 294.648 286.233 294.648 285.296C294.648 284.383 294.413 283.557 293.945 282.817C293.476 282.077 292.785 281.473 291.873 281.004C290.96 280.535 289.825 280.301 288.469 280.301Z" fill="#292C33"/>
<path d="M331.496 74.5V71.984L342.041 61.809C342.978 60.921 343.669 60.144 344.113 59.478C344.582 58.7873 344.89 58.1583 345.038 57.591C345.211 56.999 345.297 56.4317 345.297 55.889C345.297 54.557 344.828 53.5087 343.891 52.744C342.954 51.9793 341.585 51.597 339.784 51.597C338.403 51.597 337.157 51.8313 336.047 52.3C334.937 52.744 333.975 53.447 333.161 54.409L330.645 52.226C331.632 50.968 332.951 50.006 334.604 49.34C336.281 48.6493 338.119 48.304 340.117 48.304C341.918 48.304 343.484 48.6 344.816 49.192C346.148 49.7593 347.172 50.5857 347.887 51.671C348.627 52.7563 348.997 54.039 348.997 55.519C348.997 56.3577 348.886 57.184 348.664 57.998C348.442 58.812 348.023 59.6753 347.406 60.588C346.789 61.5007 345.901 62.5243 344.742 63.659L335.344 72.724L334.456 71.281H350.107V74.5H331.496Z" fill="#292C33"/>
<path d="M342.197 100.304C344.541 100.304 346.514 100.81 348.117 101.821C349.745 102.832 350.979 104.3 351.817 106.224C352.656 108.123 353.075 110.454 353.075 113.217C353.075 116.152 352.557 118.631 351.521 120.654C350.485 122.677 349.055 124.206 347.229 125.242C345.404 126.278 343.27 126.796 340.828 126.796C339.62 126.796 338.448 126.673 337.313 126.426C336.203 126.179 335.229 125.797 334.39 125.279L335.796 122.393C336.487 122.837 337.252 123.158 338.09 123.355C338.954 123.528 339.854 123.614 340.791 123.614C343.406 123.614 345.49 122.8 347.044 121.172C348.598 119.519 349.375 117.077 349.375 113.846C349.375 113.328 349.351 112.711 349.301 111.996C349.252 111.281 349.141 110.578 348.968 109.887L350.189 111.145C349.844 112.28 349.264 113.242 348.45 114.031C347.661 114.796 346.699 115.375 345.564 115.77C344.454 116.14 343.233 116.325 341.901 116.325C340.199 116.325 338.682 116.004 337.35 115.363C336.018 114.722 334.97 113.821 334.205 112.662C333.441 111.478 333.058 110.084 333.058 108.481C333.058 106.804 333.453 105.361 334.242 104.152C335.056 102.919 336.154 101.969 337.535 101.303C338.941 100.637 340.495 100.304 342.197 100.304ZM342.345 103.301C341.235 103.301 340.249 103.511 339.385 103.93C338.522 104.349 337.844 104.929 337.35 105.669C336.882 106.409 336.647 107.297 336.647 108.333C336.647 109.862 337.178 111.083 338.238 111.996C339.299 112.884 340.73 113.328 342.53 113.328C343.714 113.328 344.75 113.106 345.638 112.662C346.551 112.218 347.254 111.614 347.747 110.849C348.265 110.084 348.524 109.233 348.524 108.296C348.524 107.383 348.29 106.557 347.821 105.817C347.353 105.077 346.662 104.473 345.749 104.004C344.837 103.535 343.702 103.301 342.345 103.301Z" fill="#292C33"/>
<path d="M331.317 185.5V161.08L332.908 162.819H325.471V159.6H334.98V185.5H331.317ZM351.524 185.796C349.23 185.796 347.269 185.29 345.641 184.279C344.013 183.268 342.767 181.812 341.904 179.913C341.065 177.989 340.646 175.646 340.646 172.883C340.646 169.948 341.164 167.469 342.2 165.446C343.236 163.423 344.679 161.894 346.529 160.858C348.379 159.822 350.5 159.304 352.893 159.304C354.126 159.304 355.298 159.427 356.408 159.674C357.542 159.921 358.517 160.303 359.331 160.821L357.925 163.707C357.259 163.238 356.494 162.918 355.631 162.745C354.792 162.572 353.904 162.486 352.967 162.486C350.327 162.486 348.231 163.312 346.677 164.965C345.123 166.593 344.346 169.023 344.346 172.254C344.346 172.772 344.37 173.389 344.42 174.104C344.469 174.819 344.592 175.522 344.79 176.213L343.532 174.955C343.902 173.82 344.481 172.871 345.271 172.106C346.085 171.317 347.047 170.737 348.157 170.367C349.291 169.972 350.512 169.775 351.82 169.775C353.546 169.775 355.076 170.096 356.408 170.737C357.74 171.378 358.788 172.291 359.553 173.475C360.317 174.634 360.7 176.016 360.7 177.619C360.7 179.272 360.293 180.715 359.479 181.948C358.665 183.181 357.567 184.131 356.186 184.797C354.804 185.463 353.25 185.796 351.524 185.796ZM351.376 182.799C352.51 182.799 353.497 182.589 354.336 182.17C355.199 181.751 355.877 181.171 356.371 180.431C356.864 179.666 357.111 178.778 357.111 177.767C357.111 176.238 356.58 175.029 355.52 174.141C354.459 173.228 353.016 172.772 351.191 172.772C350.007 172.772 348.971 172.994 348.083 173.438C347.195 173.882 346.492 174.486 345.974 175.251C345.48 175.991 345.234 176.842 345.234 177.804C345.234 178.692 345.468 179.518 345.937 180.283C346.405 181.023 347.096 181.627 348.009 182.096C348.921 182.565 350.044 182.799 351.376 182.799Z" fill="#292C33"/>
<path d="M323.599 244.5V241.984L334.144 231.809C335.082 230.921 335.772 230.144 336.216 229.478C336.685 228.787 336.993 228.158 337.141 227.591C337.314 226.999 337.4 226.432 337.4 225.889C337.4 224.557 336.932 223.509 335.994 222.744C335.057 221.979 333.688 221.597 331.887 221.597C330.506 221.597 329.26 221.831 328.15 222.3C327.04 222.744 326.078 223.447 325.264 224.409L322.748 222.226C323.735 220.968 325.055 220.006 326.707 219.34C328.385 218.649 330.222 218.304 332.22 218.304C334.021 218.304 335.587 218.6 336.919 219.192C338.251 219.759 339.275 220.586 339.99 221.671C340.73 222.756 341.1 224.039 341.1 225.519C341.1 226.358 340.989 227.184 340.767 227.998C340.545 228.812 340.126 229.675 339.509 230.588C338.893 231.501 338.005 232.524 336.845 233.659L327.447 242.724L326.559 241.281H342.21V244.5H323.599ZM353.171 244.796C351.345 244.796 349.569 244.512 347.843 243.945C346.141 243.378 344.747 242.613 343.662 241.651L345.364 238.728C346.227 239.542 347.349 240.208 348.731 240.726C350.112 241.244 351.592 241.503 353.171 241.503C355.095 241.503 356.587 241.096 357.648 240.282C358.733 239.443 359.276 238.321 359.276 236.915C359.276 235.558 358.758 234.473 357.722 233.659C356.71 232.82 355.095 232.401 352.875 232.401H350.803V229.811L358.499 220.339L359.017 221.819H344.846V218.6H361.94V221.116L354.281 230.551L352.357 229.404H353.578C356.71 229.404 359.054 230.107 360.608 231.513C362.186 232.919 362.976 234.707 362.976 236.878C362.976 238.333 362.618 239.665 361.903 240.874C361.187 242.083 360.102 243.045 358.647 243.76C357.216 244.451 355.391 244.796 353.171 244.796Z" fill="#292C33"/>
<path d="M330.208 303.796C328.383 303.796 326.607 303.512 324.88 302.945C323.178 302.378 321.784 301.613 320.699 300.651L322.401 297.728C323.264 298.542 324.387 299.208 325.768 299.726C327.149 300.244 328.629 300.503 330.208 300.503C332.132 300.503 333.624 300.096 334.685 299.282C335.77 298.443 336.313 297.321 336.313 295.915C336.313 294.558 335.795 293.473 334.759 292.659C333.748 291.82 332.132 291.401 329.912 291.401H327.84V288.811L335.536 279.339L336.054 280.819H321.883V277.6H338.977V280.116L331.318 289.551L329.394 288.404H330.615C333.748 288.404 336.091 289.107 337.645 290.513C339.224 291.919 340.013 293.707 340.013 295.878C340.013 297.333 339.655 298.665 338.94 299.874C338.225 301.083 337.139 302.045 335.684 302.76C334.253 303.451 332.428 303.796 330.208 303.796ZM354.046 303.796C352.023 303.796 350.21 303.278 348.607 302.242C347.028 301.206 345.77 299.701 344.833 297.728C343.92 295.755 343.464 293.362 343.464 290.55C343.464 287.738 343.92 285.345 344.833 283.372C345.77 281.399 347.028 279.894 348.607 278.858C350.21 277.822 352.023 277.304 354.046 277.304C356.044 277.304 357.845 277.822 359.448 278.858C361.051 279.894 362.309 281.399 363.222 283.372C364.135 285.345 364.591 287.738 364.591 290.55C364.591 293.362 364.135 295.755 363.222 297.728C362.309 299.701 361.051 301.206 359.448 302.242C357.845 303.278 356.044 303.796 354.046 303.796ZM354.046 300.503C355.403 300.503 356.587 300.133 357.598 299.393C358.634 298.653 359.436 297.543 360.003 296.063C360.595 294.583 360.891 292.745 360.891 290.55C360.891 288.355 360.595 286.517 360.003 285.037C359.436 283.557 358.634 282.447 357.598 281.707C356.587 280.967 355.403 280.597 354.046 280.597C352.689 280.597 351.493 280.967 350.457 281.707C349.421 282.447 348.607 283.557 348.015 285.037C347.448 286.517 347.164 288.355 347.164 290.55C347.164 292.745 347.448 294.583 348.015 296.063C348.607 297.543 349.421 298.653 350.457 299.393C351.493 300.133 352.689 300.503 354.046 300.503Z" fill="#292C33"/>
<path d="M404.423 74.7961C402.598 74.7961 400.822 74.5124 399.095 73.9451C397.393 73.3778 396 72.6131 394.914 71.6511L396.616 68.7281C397.48 69.5421 398.602 70.2081 399.983 70.7261C401.365 71.2441 402.845 71.5031 404.423 71.5031C406.347 71.5031 407.84 71.0961 408.9 70.2821C409.986 69.4434 410.528 68.3211 410.528 66.9151C410.528 65.5584 410.01 64.4731 408.974 63.6591C407.963 62.8204 406.347 62.4011 404.127 62.4011H402.055V59.8111L409.751 50.3391L410.269 51.8191H396.098V48.6001H413.192V51.1161L405.533 60.5511L403.609 59.4041H404.83C407.963 59.4041 410.306 60.1071 411.86 61.5131C413.439 62.9191 414.228 64.7074 414.228 66.8781C414.228 68.3334 413.871 69.6654 413.155 70.8741C412.44 72.0828 411.355 73.0448 409.899 73.7601C408.469 74.4508 406.643 74.7961 404.423 74.7961Z" fill="#292C33"/>
<path d="M395.396 126.5V102.08L396.987 103.819H389.55V100.6H399.059V126.5H395.396ZM415.306 126.796C413.284 126.796 411.471 126.278 409.867 125.242C408.289 124.206 407.031 122.701 406.093 120.728C405.181 118.755 404.724 116.362 404.724 113.55C404.724 110.738 405.181 108.345 406.093 106.372C407.031 104.399 408.289 102.894 409.867 101.858C411.471 100.822 413.284 100.304 415.306 100.304C417.304 100.304 419.105 100.822 420.708 101.858C422.312 102.894 423.57 104.399 424.482 106.372C425.395 108.345 425.851 110.738 425.851 113.55C425.851 116.362 425.395 118.755 424.482 120.728C423.57 122.701 422.312 124.206 420.708 125.242C419.105 126.278 417.304 126.796 415.306 126.796ZM415.306 123.503C416.663 123.503 417.847 123.133 418.858 122.393C419.894 121.653 420.696 120.543 421.263 119.063C421.855 117.583 422.151 115.745 422.151 113.55C422.151 111.355 421.855 109.517 421.263 108.037C420.696 106.557 419.894 105.447 418.858 104.707C417.847 103.967 416.663 103.597 415.306 103.597C413.95 103.597 412.753 103.967 411.717 104.707C410.681 105.447 409.867 106.557 409.275 108.037C408.708 109.517 408.424 111.355 408.424 113.55C408.424 115.745 408.708 117.583 409.275 119.063C409.867 120.543 410.681 121.653 411.717 122.393C412.753 123.133 413.95 123.503 415.306 123.503Z" fill="#292C33"/>
<path d="M387.172 244.5V241.984L397.717 231.809C398.655 230.921 399.345 230.144 399.789 229.478C400.258 228.787 400.566 228.158 400.714 227.591C400.887 226.999 400.973 226.432 400.973 225.889C400.973 224.557 400.505 223.509 399.567 222.744C398.63 221.979 397.261 221.597 395.46 221.597C394.079 221.597 392.833 221.831 391.723 222.3C390.613 222.744 389.651 223.447 388.837 224.409L386.321 222.226C387.308 220.968 388.628 220.006 390.28 219.34C391.958 218.649 393.795 218.304 395.793 218.304C397.594 218.304 399.16 218.6 400.492 219.192C401.824 219.759 402.848 220.586 403.563 221.671C404.303 222.756 404.673 224.039 404.673 225.519C404.673 226.358 404.562 227.184 404.34 227.998C404.118 228.812 403.699 229.675 403.082 230.588C402.466 231.501 401.578 232.524 400.418 233.659L391.02 242.724L390.132 241.281H405.783V244.5H387.172ZM407.733 238.136V235.546L420.979 218.6H424.975L411.84 235.546L409.953 234.954H430.636V238.136H407.733ZM422.126 244.5V238.136L422.237 234.954V229.33H425.715V244.5H422.126Z" fill="#292C33"/>
<path d="M10.9708 120.136V117.546L24.2168 100.6H28.2128L15.0778 117.546L13.1908 116.954H33.8738V120.136H10.9708ZM25.3638 126.5V120.136L25.4748 116.954V111.33H28.9528V126.5H25.3638Z" fill="#292C33"/>
<path d="M14.388 185.5V161.08L15.979 162.819H8.54199V159.6H18.051V185.5H14.388ZM28.0823 185.5V161.08L29.6733 162.819H22.2363V159.6H31.7453V185.5H28.0823Z" fill="#292C33"/>
<path d="M9.3294 244.5V220.08L10.9204 221.819H3.4834V218.6H12.9924V244.5H9.3294ZM28.7587 244.796C26.6621 244.796 24.8491 244.488 23.3197 243.871C21.7904 243.254 20.6064 242.379 19.7677 241.244C18.9291 240.085 18.5097 238.728 18.5097 237.174C18.5097 235.645 18.9044 234.35 19.6937 233.289C20.5077 232.204 21.6794 231.39 23.2087 230.847C24.7381 230.28 26.5881 229.996 28.7587 229.996C30.9294 229.996 32.7794 230.28 34.3087 230.847C35.8627 231.39 37.0467 232.204 37.8607 233.289C38.6747 234.374 39.0817 235.669 39.0817 237.174C39.0817 238.728 38.6624 240.085 37.8237 241.244C36.9851 242.379 35.7887 243.254 34.2347 243.871C32.6807 244.488 30.8554 244.796 28.7587 244.796ZM28.7587 241.799C30.8307 241.799 32.4464 241.38 33.6057 240.541C34.7897 239.678 35.3817 238.518 35.3817 237.063C35.3817 235.632 34.7897 234.51 33.6057 233.696C32.4464 232.857 30.8307 232.438 28.7587 232.438C26.7114 232.438 25.1081 232.857 23.9487 233.696C22.7894 234.51 22.2097 235.632 22.2097 237.063C22.2097 238.518 22.7894 239.678 23.9487 240.541C25.1081 241.38 26.7114 241.799 28.7587 241.799ZM28.7587 231.994C26.7854 231.994 25.1081 231.735 23.7267 231.217C22.3454 230.674 21.2847 229.91 20.5447 228.923C19.8047 227.912 19.4347 226.715 19.4347 225.334C19.4347 223.879 19.8171 222.633 20.5817 221.597C21.3711 220.536 22.4687 219.722 23.8747 219.155C25.2807 218.588 26.9087 218.304 28.7587 218.304C30.6334 218.304 32.2737 218.588 33.6797 219.155C35.0857 219.722 36.1834 220.536 36.9727 221.597C37.7621 222.633 38.1567 223.879 38.1567 225.334C38.1567 226.715 37.7867 227.912 37.0467 228.923C36.3067 229.91 35.2337 230.674 33.8277 231.217C32.4217 231.735 30.7321 231.994 28.7587 231.994ZM28.7587 229.626C30.5594 229.626 31.9654 229.256 32.9767 228.516C34.0127 227.776 34.5307 226.765 34.5307 225.482C34.5307 224.175 34.0004 223.151 32.9397 222.411C31.8791 221.671 30.4854 221.301 28.7587 221.301C27.0321 221.301 25.6507 221.671 24.6147 222.411C23.6034 223.151 23.0977 224.175 23.0977 225.482C23.0977 226.765 23.5911 227.776 24.5777 228.516C25.5891 229.256 26.9827 229.626 28.7587 229.626Z" fill="#292C33"/>
<path d="M2.06328 303.5V300.984L12.6082 290.809C13.5456 289.921 14.2362 289.144 14.6802 288.478C15.1489 287.787 15.4572 287.158 15.6052 286.591C15.7779 285.999 15.8642 285.432 15.8642 284.889C15.8642 283.557 15.3956 282.509 14.4582 281.744C13.5209 280.979 12.1519 280.597 10.3512 280.597C8.96994 280.597 7.72428 280.831 6.61428 281.3C5.50428 281.744 4.54228 282.447 3.72828 283.409L1.21228 281.226C2.19894 279.968 3.51861 279.006 5.17128 278.34C6.84861 277.649 8.68628 277.304 10.6842 277.304C12.4849 277.304 14.0512 277.6 15.3832 278.192C16.7152 278.759 17.7389 279.586 18.4542 280.671C19.1942 281.756 19.5642 283.039 19.5642 284.519C19.5642 285.358 19.4532 286.184 19.2312 286.998C19.0092 287.812 18.5899 288.675 17.9732 289.588C17.3566 290.501 16.4686 291.524 15.3092 292.659L5.91128 301.724L5.02328 300.281H20.6742V303.5H2.06328ZM32.0783 303.796C30.253 303.796 28.477 303.512 26.7503 302.945C25.0483 302.378 23.6547 301.613 22.5693 300.651L24.2713 297.728C25.1347 298.542 26.257 299.208 27.6383 299.726C29.0197 300.244 30.4873 300.503 32.0413 300.503C34.0147 300.503 35.5317 300.084 36.5923 299.245C37.653 298.406 38.1833 297.284 38.1833 295.878C38.1833 294.916 37.949 294.077 37.4803 293.362C37.0117 292.647 36.1977 292.104 35.0383 291.734C33.9037 291.339 32.3373 291.142 30.3393 291.142H24.4563L25.8253 277.6H40.4403V280.819H27.1943L29.1183 279.006L28.0453 289.699L26.1213 287.923H31.1163C33.7063 287.923 35.7907 288.256 37.3693 288.922C38.948 289.588 40.095 290.513 40.8103 291.697C41.5257 292.856 41.8833 294.201 41.8833 295.73C41.8833 297.21 41.5257 298.567 40.8103 299.8C40.095 301.009 39.0097 301.983 37.5543 302.723C36.1237 303.438 34.2983 303.796 32.0783 303.796Z" fill="#292C33"/>
<path d="M84.4553 126.796C82.6299 126.796 80.8539 126.512 79.1273 125.945C77.4253 125.378 76.0316 124.613 74.9463 123.651L76.6483 120.728C77.5116 121.542 78.6339 122.208 80.0153 122.726C81.3966 123.244 82.8643 123.503 84.4183 123.503C86.3916 123.503 87.9086 123.084 88.9693 122.245C90.03 121.406 90.5603 120.284 90.5603 118.878C90.5603 117.916 90.3259 117.077 89.8573 116.362C89.3886 115.647 88.5746 115.104 87.4153 114.734C86.2806 114.339 84.7143 114.142 82.7163 114.142H76.8333L78.2023 100.6H92.8173V103.819H79.5713L81.4953 102.006L80.4223 112.699L78.4983 110.923H83.4933C86.0833 110.923 88.1676 111.256 89.7463 111.922C91.325 112.588 92.472 113.513 93.1873 114.697C93.9026 115.856 94.2603 117.201 94.2603 118.73C94.2603 120.21 93.9026 121.567 93.1873 122.8C92.472 124.009 91.3866 124.983 89.9313 125.723C88.5006 126.438 86.6753 126.796 84.4553 126.796Z" fill="white"/>
<path d="M73.6121 185.5V161.08L75.2031 162.819H67.7661V159.6H77.2751V185.5H73.6121ZM82.5335 185.5V182.984L93.0785 172.809C94.0158 171.921 94.7065 171.144 95.1505 170.478C95.6191 169.787 95.9275 169.158 96.0755 168.591C96.2481 167.999 96.3345 167.432 96.3345 166.889C96.3345 165.557 95.8658 164.509 94.9285 163.744C93.9911 162.979 92.6221 162.597 90.8215 162.597C89.4401 162.597 88.1945 162.831 87.0845 163.3C85.9745 163.744 85.0125 164.447 84.1985 165.409L81.6825 163.226C82.6691 161.968 83.9888 161.006 85.6415 160.34C87.3188 159.649 89.1565 159.304 91.1545 159.304C92.9551 159.304 94.5215 159.6 95.8535 160.192C97.1855 160.759 98.2091 161.586 98.9245 162.671C99.6645 163.756 100.035 165.039 100.035 166.519C100.035 167.358 99.9235 168.184 99.7015 168.998C99.4795 169.812 99.0601 170.675 98.4435 171.588C97.8268 172.501 96.9388 173.524 95.7795 174.659L86.3815 183.724L85.4935 182.281H101.145V185.5H82.5335Z" fill="#292C33"/>
<path d="M72.8172 244.5V220.08L74.4082 221.819H66.9712V218.6H76.4802V244.5H72.8172ZM90.5445 218.304C92.8879 218.304 94.8612 218.81 96.4645 219.821C98.0925 220.832 99.3259 222.3 100.165 224.224C101.003 226.123 101.423 228.454 101.423 231.217C101.423 234.152 100.905 236.631 99.8685 238.654C98.8325 240.677 97.4019 242.206 95.5765 243.242C93.7512 244.278 91.6175 244.796 89.1755 244.796C87.9669 244.796 86.7952 244.673 85.6605 244.426C84.5505 244.179 83.5762 243.797 82.7375 243.279L84.1435 240.393C84.8342 240.837 85.5989 241.158 86.4375 241.355C87.3009 241.528 88.2012 241.614 89.1385 241.614C91.7532 241.614 93.8375 240.8 95.3915 239.172C96.9455 237.519 97.7225 235.077 97.7225 231.846C97.7225 231.328 97.6979 230.711 97.6485 229.996C97.5992 229.281 97.4882 228.578 97.3155 227.887L98.5365 229.145C98.1912 230.28 97.6115 231.242 96.7975 232.031C96.0082 232.796 95.0462 233.375 93.9115 233.77C92.8015 234.14 91.5805 234.325 90.2485 234.325C88.5465 234.325 87.0295 234.004 85.6975 233.363C84.3655 232.722 83.3172 231.821 82.5525 230.662C81.7879 229.478 81.4055 228.084 81.4055 226.481C81.4055 224.804 81.8002 223.361 82.5895 222.152C83.4035 220.919 84.5012 219.969 85.8825 219.303C87.2885 218.637 88.8425 218.304 90.5445 218.304ZM90.6925 221.301C89.5825 221.301 88.5959 221.511 87.7325 221.93C86.8692 222.349 86.1909 222.929 85.6975 223.669C85.2289 224.409 84.9945 225.297 84.9945 226.333C84.9945 227.862 85.5249 229.083 86.5855 229.996C87.6462 230.884 89.0769 231.328 90.8775 231.328C92.0615 231.328 93.0975 231.106 93.9855 230.662C94.8982 230.218 95.6012 229.614 96.0945 228.849C96.6125 228.084 96.8715 227.233 96.8715 226.296C96.8715 225.383 96.6372 224.557 96.1685 223.817C95.6999 223.077 95.0092 222.473 94.0965 222.004C93.1839 221.535 92.0492 221.301 90.6925 221.301Z" fill="#292C33"/>
<path d="M64.2864 303.5V300.984L74.8314 290.809C75.7687 289.921 76.4594 289.144 76.9034 288.478C77.372 287.787 77.6804 287.158 77.8284 286.591C78.001 285.999 78.0874 285.432 78.0874 284.889C78.0874 283.557 77.6187 282.509 76.6814 281.744C75.744 280.979 74.375 280.597 72.5744 280.597C71.193 280.597 69.9474 280.831 68.8374 281.3C67.7274 281.744 66.7654 282.447 65.9514 283.409L63.4354 281.226C64.422 279.968 65.7417 279.006 67.3944 278.34C69.0717 277.649 70.9094 277.304 72.9074 277.304C74.708 277.304 76.2744 277.6 77.6064 278.192C78.9384 278.759 79.962 279.586 80.6774 280.671C81.4174 281.756 81.7874 283.039 81.7874 284.519C81.7874 285.358 81.6764 286.184 81.4544 286.998C81.2324 287.812 80.813 288.675 80.1964 289.588C79.5797 290.501 78.6917 291.524 77.5324 292.659L68.1344 301.724L67.2464 300.281H82.8974V303.5H64.2864ZM96.7813 303.796C94.4873 303.796 92.5263 303.29 90.8983 302.279C89.2703 301.268 88.0247 299.812 87.1613 297.913C86.3227 295.989 85.9033 293.646 85.9033 290.883C85.9033 287.948 86.4213 285.469 87.4573 283.446C88.4933 281.423 89.9363 279.894 91.7863 278.858C93.6363 277.822 95.7577 277.304 98.1503 277.304C99.3837 277.304 100.555 277.427 101.665 277.674C102.8 277.921 103.774 278.303 104.588 278.821L103.182 281.707C102.516 281.238 101.752 280.918 100.888 280.745C100.05 280.572 99.1617 280.486 98.2243 280.486C95.585 280.486 93.4883 281.312 91.9343 282.965C90.3803 284.593 89.6033 287.023 89.6033 290.254C89.6033 290.772 89.628 291.389 89.6773 292.104C89.7267 292.819 89.85 293.522 90.0473 294.213L88.7893 292.955C89.1593 291.82 89.739 290.871 90.5283 290.106C91.3423 289.317 92.3043 288.737 93.4143 288.367C94.549 287.972 95.77 287.775 97.0773 287.775C98.804 287.775 100.333 288.096 101.665 288.737C102.997 289.378 104.046 290.291 104.81 291.475C105.575 292.634 105.957 294.016 105.957 295.619C105.957 297.272 105.55 298.715 104.736 299.948C103.922 301.181 102.825 302.131 101.443 302.797C100.062 303.463 98.508 303.796 96.7813 303.796ZM96.6333 300.799C97.768 300.799 98.7547 300.589 99.5933 300.17C100.457 299.751 101.135 299.171 101.628 298.431C102.122 297.666 102.368 296.778 102.368 295.767C102.368 294.238 101.838 293.029 100.777 292.141C99.7167 291.228 98.2737 290.772 96.4483 290.772C95.2643 290.772 94.2283 290.994 93.3403 291.438C92.4523 291.882 91.7493 292.486 91.2313 293.251C90.738 293.991 90.4913 294.842 90.4913 295.804C90.4913 296.692 90.7257 297.518 91.1943 298.283C91.663 299.023 92.3537 299.627 93.2663 300.096C94.179 300.565 95.3013 300.799 96.6333 300.799Z" fill="#292C33"/>
<path d="M150.676 126.796C148.382 126.796 146.421 126.29 144.793 125.279C143.165 124.268 141.92 122.812 141.056 120.913C140.218 118.989 139.798 116.646 139.798 113.883C139.798 110.948 140.316 108.469 141.352 106.446C142.388 104.423 143.831 102.894 145.681 101.858C147.531 100.822 149.653 100.304 152.045 100.304C153.279 100.304 154.45 100.427 155.56 100.674C156.695 100.921 157.669 101.303 158.483 101.821L157.077 104.707C156.411 104.238 155.647 103.918 154.783 103.745C153.945 103.572 153.057 103.486 152.119 103.486C149.48 103.486 147.383 104.312 145.829 105.965C144.275 107.593 143.498 110.023 143.498 113.254C143.498 113.772 143.523 114.389 143.572 115.104C143.622 115.819 143.745 116.522 143.942 117.213L142.684 115.955C143.054 114.82 143.634 113.871 144.423 113.106C145.237 112.317 146.199 111.737 147.309 111.367C148.444 110.972 149.665 110.775 150.972 110.775C152.699 110.775 154.228 111.096 155.56 111.737C156.892 112.378 157.941 113.291 158.705 114.475C159.47 115.634 159.852 117.016 159.852 118.619C159.852 120.272 159.445 121.715 158.631 122.948C157.817 124.181 156.72 125.131 155.338 125.797C153.957 126.463 152.403 126.796 150.676 126.796ZM150.528 123.799C151.663 123.799 152.65 123.589 153.488 123.17C154.352 122.751 155.03 122.171 155.523 121.431C156.017 120.666 156.263 119.778 156.263 118.767C156.263 117.238 155.733 116.029 154.672 115.141C153.612 114.228 152.169 113.772 150.343 113.772C149.159 113.772 148.123 113.994 147.235 114.438C146.347 114.882 145.644 115.486 145.126 116.251C144.633 116.991 144.386 117.842 144.386 118.804C144.386 119.692 144.621 120.518 145.089 121.283C145.558 122.023 146.249 122.627 147.161 123.096C148.074 123.565 149.196 123.799 150.528 123.799Z" fill="white"/>
<path d="M138.148 185.5V161.08L139.739 162.819H132.302V159.6H141.811V185.5H138.148ZM155.395 185.796C153.569 185.796 151.793 185.512 150.067 184.945C148.365 184.378 146.971 183.613 145.886 182.651L147.588 179.728C148.451 180.542 149.573 181.208 150.955 181.726C152.336 182.244 153.816 182.503 155.395 182.503C157.319 182.503 158.811 182.096 159.872 181.282C160.957 180.443 161.5 179.321 161.5 177.915C161.5 176.558 160.982 175.473 159.946 174.659C158.934 173.82 157.319 173.401 155.099 173.401H153.027V170.811L160.723 161.339L161.241 162.819H147.07V159.6H164.164V162.116L156.505 171.551L154.581 170.404H155.802C158.934 170.404 161.278 171.107 162.832 172.513C164.41 173.919 165.2 175.707 165.2 177.878C165.2 179.333 164.842 180.665 164.127 181.874C163.411 183.083 162.326 184.045 160.871 184.76C159.44 185.451 157.615 185.796 155.395 185.796Z" fill="#292C33"/>
<path d="M127.865 244.5V241.984L138.41 231.809C139.347 230.921 140.038 230.144 140.482 229.478C140.951 228.787 141.259 228.158 141.407 227.591C141.58 226.999 141.666 226.432 141.666 225.889C141.666 224.557 141.197 223.509 140.26 222.744C139.323 221.979 137.954 221.597 136.153 221.597C134.772 221.597 133.526 221.831 132.416 222.3C131.306 222.744 130.344 223.447 129.53 224.409L127.014 222.226C128.001 220.968 129.32 220.006 130.973 219.34C132.65 218.649 134.488 218.304 136.486 218.304C138.287 218.304 139.853 218.6 141.185 219.192C142.517 219.759 143.541 220.586 144.256 221.671C144.996 222.756 145.366 224.039 145.366 225.519C145.366 226.358 145.255 227.184 145.033 227.998C144.811 228.812 144.392 229.675 143.775 230.588C143.158 231.501 142.27 232.524 141.111 233.659L131.713 242.724L130.825 241.281H146.476V244.5H127.865ZM160.064 244.796C158.041 244.796 156.228 244.278 154.625 243.242C153.046 242.206 151.788 240.701 150.851 238.728C149.938 236.755 149.482 234.362 149.482 231.55C149.482 228.738 149.938 226.345 150.851 224.372C151.788 222.399 153.046 220.894 154.625 219.858C156.228 218.822 158.041 218.304 160.064 218.304C162.062 218.304 163.863 218.822 165.466 219.858C167.069 220.894 168.327 222.399 169.24 224.372C170.153 226.345 170.609 228.738 170.609 231.55C170.609 234.362 170.153 236.755 169.24 238.728C168.327 240.701 167.069 242.206 165.466 243.242C163.863 244.278 162.062 244.796 160.064 244.796ZM160.064 241.503C161.421 241.503 162.605 241.133 163.616 240.393C164.652 239.653 165.454 238.543 166.021 237.063C166.613 235.583 166.909 233.745 166.909 231.55C166.909 229.355 166.613 227.517 166.021 226.037C165.454 224.557 164.652 223.447 163.616 222.707C162.605 221.967 161.421 221.597 160.064 221.597C158.707 221.597 157.511 221.967 156.475 222.707C155.439 223.447 154.625 224.557 154.033 226.037C153.466 227.517 153.182 229.355 153.182 231.55C153.182 233.745 153.466 235.583 154.033 237.063C154.625 238.543 155.439 239.653 156.475 240.393C157.511 241.133 158.707 241.503 160.064 241.503Z" fill="#292C33"/>
<path d="M129.148 303.5V300.984L139.693 290.809C140.63 289.921 141.321 289.144 141.765 288.478C142.233 287.787 142.542 287.158 142.69 286.591C142.862 285.999 142.949 285.432 142.949 284.889C142.949 283.557 142.48 282.509 141.543 281.744C140.605 280.979 139.236 280.597 137.436 280.597C136.054 280.597 134.809 280.831 133.699 281.3C132.589 281.744 131.627 282.447 130.813 283.409L128.297 281.226C129.283 279.968 130.603 279.006 132.256 278.34C133.933 277.649 135.771 277.304 137.769 277.304C139.569 277.304 141.136 277.6 142.468 278.192C143.8 278.759 144.823 279.586 145.539 280.671C146.279 281.756 146.649 283.039 146.649 284.519C146.649 285.358 146.538 286.184 146.316 286.998C146.094 287.812 145.674 288.675 145.058 289.588C144.441 290.501 143.553 291.524 142.394 292.659L132.996 301.724L132.108 300.281H147.759V303.5H129.148ZM155.242 303.5L166.231 279.154L167.193 280.819H151.801L153.651 279.006V285.444H150.099V277.6H169.635V280.116L159.164 303.5H155.242Z" fill="white"/>
<path d="M201.36 185.5V161.08L202.951 162.819H195.514V159.6H205.023V185.5H201.36ZM210.318 179.136V176.546L223.564 159.6H227.56L214.425 176.546L212.538 175.954H233.221V179.136H210.318ZM224.711 185.5V179.136L224.822 175.954V170.33H228.3V185.5H224.711Z" fill="#292C33"/>
<path d="M198.339 244.5V241.984L208.884 231.809C209.822 230.921 210.512 230.144 210.956 229.478C211.425 228.787 211.733 228.158 211.881 227.591C212.054 226.999 212.14 226.432 212.14 225.889C212.14 224.557 211.672 223.509 210.734 222.744C209.797 221.979 208.428 221.597 206.627 221.597C205.246 221.597 204 221.831 202.89 222.3C201.78 222.744 200.818 223.447 200.004 224.409L197.488 222.226C198.475 220.968 199.795 220.006 201.447 219.34C203.125 218.649 204.962 218.304 206.96 218.304C208.761 218.304 210.327 218.6 211.659 219.192C212.991 219.759 214.015 220.586 214.73 221.671C215.47 222.756 215.84 224.039 215.84 225.519C215.84 226.358 215.729 227.184 215.507 227.998C215.285 228.812 214.866 229.675 214.249 230.588C213.633 231.501 212.745 232.524 211.585 233.659L202.187 242.724L201.299 241.281H216.95V244.5H198.339ZM224.358 244.5V220.08L225.949 221.819H218.512V218.6H228.021V244.5H224.358Z" fill="#292C33"/>
<path d="M193.281 303.5V300.984L203.826 290.809C204.763 289.921 205.454 289.144 205.898 288.478C206.366 287.787 206.675 287.158 206.823 286.591C206.995 285.999 207.082 285.432 207.082 284.889C207.082 283.557 206.613 282.509 205.676 281.744C204.738 280.979 203.369 280.597 201.569 280.597C200.187 280.597 198.942 280.831 197.832 281.3C196.722 281.744 195.76 282.447 194.946 283.409L192.43 281.226C193.416 279.968 194.736 279.006 196.389 278.34C198.066 277.649 199.904 277.304 201.902 277.304C203.702 277.304 205.269 277.6 206.601 278.192C207.933 278.759 208.956 279.586 209.672 280.671C210.412 281.756 210.782 283.039 210.782 284.519C210.782 285.358 210.671 286.184 210.449 286.998C210.227 287.812 209.807 288.675 209.191 289.588C208.574 290.501 207.686 291.524 206.527 292.659L197.129 301.724L196.241 300.281H211.892V303.5H193.281ZM225.035 303.796C222.938 303.796 221.125 303.488 219.596 302.871C218.066 302.254 216.882 301.379 216.044 300.244C215.205 299.085 214.786 297.728 214.786 296.174C214.786 294.645 215.18 293.35 215.97 292.289C216.784 291.204 217.955 290.39 219.485 289.847C221.014 289.28 222.864 288.996 225.035 288.996C227.205 288.996 229.055 289.28 230.585 289.847C232.139 290.39 233.323 291.204 234.137 292.289C234.951 293.374 235.358 294.669 235.358 296.174C235.358 297.728 234.938 299.085 234.1 300.244C233.261 301.379 232.065 302.254 230.511 302.871C228.957 303.488 227.131 303.796 225.035 303.796ZM225.035 300.799C227.107 300.799 228.722 300.38 229.882 299.541C231.066 298.678 231.658 297.518 231.658 296.063C231.658 294.632 231.066 293.51 229.882 292.696C228.722 291.857 227.107 291.438 225.035 291.438C222.987 291.438 221.384 291.857 220.225 292.696C219.065 293.51 218.486 294.632 218.486 296.063C218.486 297.518 219.065 298.678 220.225 299.541C221.384 300.38 222.987 300.799 225.035 300.799ZM225.035 290.994C223.061 290.994 221.384 290.735 220.003 290.217C218.621 289.674 217.561 288.91 216.821 287.923C216.081 286.912 215.711 285.715 215.711 284.334C215.711 282.879 216.093 281.633 216.858 280.597C217.647 279.536 218.745 278.722 220.151 278.155C221.557 277.588 223.185 277.304 225.035 277.304C226.909 277.304 228.55 277.588 229.956 278.155C231.362 278.722 232.459 279.536 233.249 280.597C234.038 281.633 234.433 282.879 234.433 284.334C234.433 285.715 234.063 286.912 233.323 287.923C232.583 288.91 231.51 289.674 230.104 290.217C228.698 290.735 227.008 290.994 225.035 290.994ZM225.035 288.626C226.835 288.626 228.241 288.256 229.253 287.516C230.289 286.776 230.807 285.765 230.807 284.482C230.807 283.175 230.276 282.151 229.216 281.411C228.155 280.671 226.761 280.301 225.035 280.301C223.308 280.301 221.927 280.671 220.891 281.411C219.879 282.151 219.374 283.175 219.374 284.482C219.374 285.765 219.867 286.776 220.854 287.516C221.865 288.256 223.259 288.626 225.035 288.626Z" fill="#292C33"/>
<path d="M209.637 126.5L220.626 102.154L221.588 103.819H206.196L208.046 102.006V108.444H204.494V100.6H224.03V103.116L213.559 126.5H209.637Z" fill="white"/>
<path d="M396.679 185.5V161.08L398.27 162.819H390.833V159.6H400.342V185.5H396.679ZM410.484 185.5L421.473 161.154L422.435 162.819H407.043L408.893 161.006V167.444H405.341V159.6H424.877V162.116L414.406 185.5H410.484Z" fill="#292C33"/>
</g>
</g>
<defs>
<clipPath id="clip0_1035_5000">
<rect width="431" height="313" fill="white" transform="translate(0 0.5)"/>
</clipPath>
</defs>
</svg>
