<svg width="431" height="321" viewBox="0 0 431 321" fill="none" xmlns="http://www.w3.org/2000/svg">
<g clip-path="url(#clip0_528_2792)">
<rect width="57" height="47" transform="translate(126.19 274)" fill="#3C78EC"/>
<path d="M22.9564 20.7264H20.3476V3.36139H10.8906V20.7264H8.2002V1.32324H22.8749V20.7264H22.9564Z" fill="#B3B3B3"/>
<path d="M38.7725 20.7264H36.1636V14.6119H29.7231V20.7264H27.1143V6.29626H29.7231V12.5738H36.1636V6.29626H38.7725V20.7264Z" fill="#B3B3B3"/>
<path d="M73 20.7264V1.32324H79.359C81.3972 1.32324 82.9462 1.73087 84.0875 2.62766C85.2289 3.52444 85.7996 4.82886 85.7996 6.5409C85.7996 7.35616 85.555 8.08989 85.0658 8.82363C84.5767 9.55736 83.8429 9.96499 83.0277 10.2911C84.3321 10.4541 85.3104 11.0248 86.0441 11.9216C86.7779 12.8184 87.1855 13.9598 87.1855 15.1826C87.1855 16.9762 86.6148 18.2806 85.4735 19.2589C84.3321 20.2373 82.7831 20.6449 80.745 20.6449H73V20.7264ZM75.6904 9.55736H79.9297C80.908 9.55736 81.7233 9.31278 82.294 8.7421C82.9462 8.17142 83.1907 7.43769 83.1907 6.45937C83.1907 5.39954 82.8646 4.6658 82.2124 4.09512C81.5602 3.60597 80.5819 3.27986 79.359 3.27986H75.6904V9.55736ZM75.6904 11.5955V18.6067H80.745C81.9678 18.6067 82.8646 18.2806 83.5168 17.71C84.1691 17.1393 84.4952 16.2425 84.4952 15.1826C84.4952 14.1228 84.1691 13.226 83.5168 12.5738C82.8646 11.9216 81.9678 11.5955 80.745 11.514H80.5819H75.6904V11.5955Z" fill="#B3B3B3"/>
<path d="M101.126 8.33441H96.3976V20.7264H93.7888V8.33441H89.0603V6.29626H101.126V8.33441Z" fill="#B3B3B3"/>
<path d="M150.512 14.5304C150.593 16.4055 149.941 17.9545 148.637 19.1773C147.332 20.4002 145.62 21.0524 143.419 21.0524C141.218 21.0524 139.424 20.2372 138.038 18.6882C136.652 17.1392 136 15.1826 136 12.7368V9.31271C136 6.94846 136.652 4.91031 138.038 3.36132C139.424 1.81233 141.218 0.99707 143.419 0.99707C145.62 0.99707 147.332 1.56775 148.637 2.70911C149.941 3.85048 150.593 5.39947 150.512 7.35609V7.43762H147.984C147.984 6.05168 147.577 4.99184 146.761 4.17658C145.946 3.36132 144.805 2.95369 143.337 2.95369C141.87 2.95369 140.729 3.52437 139.832 4.74726C138.935 5.88862 138.527 7.35609 138.527 9.14966V12.6553C138.527 14.4488 138.935 15.9163 139.832 17.0577C140.729 18.199 141.87 18.8512 143.337 18.8512C144.805 18.8512 145.946 18.4436 146.761 17.7099C147.577 16.8946 147.984 15.8348 147.984 14.4488H150.512V14.5304Z" fill="#B3B3B3"/>
<path d="M165.92 14.0413C165.92 16.161 165.431 17.7915 164.453 19.0959C163.474 20.4003 162.088 20.971 160.295 20.971C159.398 20.971 158.664 20.8079 157.93 20.5634C157.278 20.2373 156.708 19.8296 156.218 19.2589V26.2702H153.61V6.29632H155.648L156.055 8.17142C156.545 7.43768 157.115 6.94853 157.849 6.62242C158.583 6.29632 159.398 6.05174 160.295 6.05174C162.088 6.05174 163.474 6.78548 164.453 8.17142C165.431 9.55736 165.92 11.4325 165.92 13.7967V14.0413ZM163.311 13.7967C163.311 12.1662 162.985 10.7802 162.333 9.80193C161.681 8.82362 160.702 8.25294 159.479 8.25294C158.746 8.25294 158.094 8.41599 157.523 8.7421C156.952 9.0682 156.545 9.55736 156.218 10.128V17.1393C156.545 17.7099 156.952 18.1991 157.523 18.5252C158.094 18.8513 158.746 19.0144 159.479 19.0144C160.702 19.0144 161.681 18.5252 162.333 17.6284C162.985 16.7316 163.311 15.5087 163.311 14.1228V13.7967Z" fill="#B3B3B3"/>
<path d="M215.43 1.32324V20.7264H212.821V12.6553C212.006 12.8999 211.191 13.063 210.375 13.226C209.56 13.3076 208.663 13.3891 207.522 13.3891C205.402 13.3891 203.772 12.8999 202.631 12.0031C201.489 11.1064 201 9.55736 201 7.43769V1.32324H203.609V7.43769C203.609 8.90515 203.935 9.88346 204.506 10.4541C205.158 11.0248 206.136 11.2694 207.441 11.2694C208.337 11.2694 209.234 11.1879 210.131 11.1064C210.946 10.9433 211.843 10.7802 212.74 10.5357V1.32324H215.43Z" fill="#B3B3B3"/>
<path d="M230.675 8.33441H225.947V20.7264H223.338V8.33441H218.61V6.29626H230.675V8.33441Z" fill="#B3B3B3"/>
<path d="M279.675 20.7264H277.066V3.36139H267.609V20.7264H265V1.32324H279.675V20.7264Z" fill="#B3B3B3"/>
<path d="M294.92 8.33453H290.192V20.7265H287.583V8.33453H282.854V6.29639H294.92V8.33453Z" fill="#B3B3B3"/>
<path d="M344.512 14.5302C344.593 16.4053 343.941 17.9543 342.637 19.1772C341.332 20.4001 339.62 21.0523 337.419 21.0523C335.218 21.0523 333.424 20.237 332.038 18.688C330.652 17.139 330 15.1824 330 12.7366V9.31254C330 6.94829 330.652 4.91015 332.038 3.36115C333.424 1.81216 335.218 0.996902 337.419 0.996902C339.62 0.996902 341.332 1.56758 342.637 2.70895C343.941 3.85031 344.593 5.3993 344.512 7.35592V7.43745H341.984C341.984 6.05151 341.577 4.99167 340.761 4.17641C339.946 3.36115 338.805 2.95352 337.337 2.95352C335.87 2.95352 334.729 3.52421 333.832 4.74709C332.935 5.88846 332.527 7.35592 332.527 9.14949V12.6551C332.527 14.4487 332.935 15.9161 333.832 17.0575C334.729 18.1989 335.87 18.8511 337.337 18.8511C338.805 18.8511 339.946 18.4434 340.761 17.7097C341.577 16.8945 341.984 15.8346 341.984 14.4487H344.512V14.5302Z" fill="#B3B3B3"/>
<path d="M353.887 6.05149C355.762 6.05149 357.148 6.7037 358.208 8.08964C359.268 9.47558 359.838 11.1876 359.838 13.3888V13.7149C359.838 15.8346 359.268 17.6282 358.126 19.0141C356.985 20.4 355.436 21.0523 353.398 21.0523C351.36 21.0523 349.811 20.4 348.669 19.0141C347.528 17.6282 346.957 15.9161 346.957 13.7149V13.3888C346.957 13.3073 346.957 13.2258 346.957 13.2258C346.957 13.1442 346.957 13.1442 346.957 13.0627V9.96473C346.957 7.19285 347.528 5.23623 348.588 3.93182C349.648 2.6274 351.278 1.97519 353.398 1.81214C354.621 1.73062 355.599 1.56756 356.251 1.32299C356.903 1.07841 357.23 0.670779 357.23 0.100098H359.268V0.181624C359.349 1.56756 358.86 2.54587 357.882 3.11656C356.903 3.68724 355.517 4.01334 353.642 4.01334C352.256 4.01334 351.197 4.42097 350.381 5.1547C349.566 5.88844 349.158 6.94827 349.158 8.33421V8.41574C349.648 7.76353 350.381 7.19285 351.197 6.78522C352.012 6.37759 352.99 6.05149 353.887 6.05149ZM353.398 8.08964C352.175 8.08964 351.197 8.57879 350.544 9.5571C349.892 10.5354 349.566 11.8398 349.566 13.3073V13.6334C349.566 15.1824 349.892 16.4053 350.544 17.3836C351.197 18.3619 352.175 18.8511 353.398 18.8511C354.621 18.8511 355.599 18.3619 356.251 17.3836C356.903 16.4053 357.23 15.1009 357.23 13.6334V13.3073C357.23 11.7583 356.903 10.5354 356.251 9.5571C355.599 8.57879 354.621 8.08964 353.398 8.08964Z" fill="#B3B3B3"/>
<path d="M394 20.7264V1.32324H400.359C402.397 1.32324 403.946 1.73087 405.088 2.62766C406.229 3.52444 406.8 4.82886 406.8 6.5409C406.8 7.35616 406.555 8.08989 406.066 8.82363C405.577 9.55736 404.843 9.96499 404.028 10.3726C405.332 10.5357 406.31 11.1064 407.044 12.0031C407.778 12.8999 408.186 14.0413 408.186 15.2642C408.186 17.0577 407.615 18.3622 406.473 19.3405C405.332 20.3188 403.783 20.7264 401.745 20.7264H394ZM396.69 9.55736H400.93C401.908 9.55736 402.723 9.31278 403.294 8.7421C403.946 8.17142 404.191 7.43769 404.191 6.45937C404.191 5.39954 403.865 4.6658 403.212 4.09512C402.56 3.60597 401.582 3.27986 400.359 3.27986H396.69V9.55736ZM396.69 11.5955V18.6067H401.745C402.968 18.6067 403.865 18.2806 404.517 17.71C405.169 17.1393 405.495 16.2425 405.495 15.1826C405.495 14.1228 405.169 13.226 404.517 12.5738C403.865 11.9216 402.968 11.5955 401.745 11.514H401.582H396.69V11.5955Z" fill="#B3B3B3"/>
<path d="M416.745 18.9325C417.561 18.9325 418.294 18.688 418.865 18.1173C419.436 17.5466 419.762 16.8944 419.762 16.1607H422.126V16.2422C422.126 17.4651 421.637 18.6064 420.496 19.5847C419.354 20.5631 418.131 21.0522 416.664 21.0522C414.626 21.0522 413.077 20.4 411.935 19.0141C410.794 17.6281 410.305 15.9161 410.305 13.8779V13.3072C410.305 11.2691 410.876 9.55705 411.935 8.17111C413.077 6.78517 414.626 6.13297 416.582 6.13297C418.213 6.13297 419.517 6.62212 420.496 7.60043C421.474 8.57874 422.045 9.80163 421.963 11.2691V11.3506H419.599C419.599 10.4538 419.273 9.72011 418.702 9.0679C418.131 8.41569 417.398 8.17111 416.501 8.17111C415.196 8.17111 414.3 8.66027 413.647 9.63858C413.077 10.6169 412.751 11.8398 412.751 13.3072V13.8779C412.751 15.3454 413.077 16.5683 413.647 17.5466C414.544 18.4434 415.441 18.9325 416.745 18.9325Z" fill="#B3B3B3"/>
<path d="M279.295 78V53.58L280.886 55.319H273.449V52.1H282.958V78H279.295Z" fill="#292C33"/>
<path d="M279.971 130.296C277.875 130.296 276.062 129.988 274.532 129.371C273.003 128.754 271.819 127.879 270.98 126.744C270.142 125.585 269.722 124.228 269.722 122.674C269.722 121.145 270.117 119.85 270.906 118.789C271.72 117.704 272.892 116.89 274.421 116.347C275.951 115.78 277.801 115.496 279.971 115.496C282.142 115.496 283.992 115.78 285.521 116.347C287.075 116.89 288.259 117.704 289.073 118.789C289.887 119.874 290.294 121.169 290.294 122.674C290.294 124.228 289.875 125.585 289.036 126.744C288.198 127.879 287.001 128.754 285.447 129.371C283.893 129.988 282.068 130.296 279.971 130.296ZM279.971 127.299C282.043 127.299 283.659 126.88 284.818 126.041C286.002 125.178 286.594 124.018 286.594 122.563C286.594 121.132 286.002 120.01 284.818 119.196C283.659 118.357 282.043 117.938 279.971 117.938C277.924 117.938 276.321 118.357 275.161 119.196C274.002 120.01 273.422 121.132 273.422 122.563C273.422 124.018 274.002 125.178 275.161 126.041C276.321 126.88 277.924 127.299 279.971 127.299ZM279.971 117.494C277.998 117.494 276.321 117.235 274.939 116.717C273.558 116.174 272.497 115.41 271.757 114.423C271.017 113.412 270.647 112.215 270.647 110.834C270.647 109.379 271.03 108.133 271.794 107.097C272.584 106.036 273.681 105.222 275.087 104.655C276.493 104.088 278.121 103.804 279.971 103.804C281.846 103.804 283.486 104.088 284.892 104.655C286.298 105.222 287.396 106.036 288.185 107.097C288.975 108.133 289.369 109.379 289.369 110.834C289.369 112.215 288.999 113.412 288.259 114.423C287.519 115.41 286.446 116.174 285.04 116.717C283.634 117.235 281.945 117.494 279.971 117.494ZM279.971 115.126C281.772 115.126 283.178 114.756 284.189 114.016C285.225 113.276 285.743 112.265 285.743 110.982C285.743 109.675 285.213 108.651 284.152 107.911C283.092 107.171 281.698 106.801 279.971 106.801C278.245 106.801 276.863 107.171 275.827 107.911C274.816 108.651 274.31 109.675 274.31 110.982C274.31 112.265 274.804 113.276 275.79 114.016C276.802 114.756 278.195 115.126 279.971 115.126Z" fill="#292C33"/>
<path d="M268.672 189V164.58L270.263 166.319H262.826V163.1H272.335V189H268.672ZM286.362 189.296C284.537 189.296 282.761 189.012 281.034 188.445C279.332 187.878 277.938 187.113 276.853 186.151L278.555 183.228C279.418 184.042 280.541 184.708 281.922 185.226C283.303 185.744 284.771 186.003 286.325 186.003C288.298 186.003 289.815 185.584 290.876 184.745C291.937 183.906 292.467 182.784 292.467 181.378C292.467 180.416 292.233 179.577 291.764 178.862C291.295 178.147 290.481 177.604 289.322 177.234C288.187 176.839 286.621 176.642 284.623 176.642H278.74L280.109 163.1H294.724V166.319H281.478L283.402 164.506L282.329 175.199L280.405 173.423H285.4C287.99 173.423 290.074 173.756 291.653 174.422C293.232 175.088 294.379 176.013 295.094 177.197C295.809 178.356 296.167 179.701 296.167 181.23C296.167 182.71 295.809 184.067 295.094 185.3C294.379 186.509 293.293 187.483 291.838 188.223C290.407 188.938 288.582 189.296 286.362 189.296Z" fill="#292C33"/>
<path d="M260.123 249V246.484L270.668 236.309C271.605 235.421 272.296 234.644 272.74 233.978C273.209 233.287 273.517 232.658 273.665 232.091C273.838 231.499 273.924 230.932 273.924 230.389C273.924 229.057 273.455 228.009 272.518 227.244C271.581 226.479 270.212 226.097 268.411 226.097C267.03 226.097 265.784 226.331 264.674 226.8C263.564 227.244 262.602 227.947 261.788 228.909L259.272 226.726C260.259 225.468 261.578 224.506 263.231 223.84C264.908 223.149 266.746 222.804 268.744 222.804C270.545 222.804 272.111 223.1 273.443 223.692C274.775 224.259 275.799 225.086 276.514 226.171C277.254 227.256 277.624 228.539 277.624 230.019C277.624 230.858 277.513 231.684 277.291 232.498C277.069 233.312 276.65 234.175 276.033 235.088C275.416 236.001 274.528 237.024 273.369 238.159L263.971 247.224L263.083 245.781H278.734V249H260.123ZM281.369 249V246.484L291.914 236.309C292.851 235.421 293.542 234.644 293.986 233.978C294.455 233.287 294.763 232.658 294.911 232.091C295.084 231.499 295.17 230.932 295.17 230.389C295.17 229.057 294.701 228.009 293.764 227.244C292.827 226.479 291.458 226.097 289.657 226.097C288.276 226.097 287.03 226.331 285.92 226.8C284.81 227.244 283.848 227.947 283.034 228.909L280.518 226.726C281.505 225.468 282.824 224.506 284.477 223.84C286.154 223.149 287.992 222.804 289.99 222.804C291.791 222.804 293.357 223.1 294.689 223.692C296.021 224.259 297.045 225.086 297.76 226.171C298.5 227.256 298.87 228.539 298.87 230.019C298.87 230.858 298.759 231.684 298.537 232.498C298.315 233.312 297.896 234.175 297.279 235.088C296.662 236.001 295.774 237.024 294.615 238.159L285.217 247.224L284.329 245.781H299.98V249H281.369Z" fill="#292C33"/>
<path d="M259.328 311V308.484L269.873 298.309C270.81 297.421 271.501 296.644 271.945 295.978C272.414 295.287 272.722 294.658 272.87 294.091C273.043 293.499 273.129 292.932 273.129 292.389C273.129 291.057 272.66 290.009 271.723 289.244C270.786 288.479 269.417 288.097 267.616 288.097C266.235 288.097 264.989 288.331 263.879 288.8C262.769 289.244 261.807 289.947 260.993 290.909L258.477 288.726C259.464 287.468 260.783 286.506 262.436 285.84C264.113 285.149 265.951 284.804 267.949 284.804C269.75 284.804 271.316 285.1 272.648 285.692C273.98 286.259 275.004 287.086 275.719 288.171C276.459 289.256 276.829 290.539 276.829 292.019C276.829 292.858 276.718 293.684 276.496 294.498C276.274 295.312 275.855 296.175 275.238 297.088C274.621 298.001 273.733 299.024 272.574 300.159L263.176 309.224L262.288 307.781H277.939V311H259.328ZM289.38 284.804C291.723 284.804 293.697 285.31 295.3 286.321C296.928 287.332 298.161 288.8 299 290.724C299.839 292.623 300.258 294.954 300.258 297.717C300.258 300.652 299.74 303.131 298.704 305.154C297.668 307.177 296.237 308.706 294.412 309.742C292.587 310.778 290.453 311.296 288.011 311.296C286.802 311.296 285.631 311.173 284.496 310.926C283.386 310.679 282.412 310.297 281.573 309.779L282.979 306.893C283.67 307.337 284.434 307.658 285.273 307.855C286.136 308.028 287.037 308.114 287.974 308.114C290.589 308.114 292.673 307.3 294.227 305.672C295.781 304.019 296.558 301.577 296.558 298.346C296.558 297.828 296.533 297.211 296.484 296.496C296.435 295.781 296.324 295.078 296.151 294.387L297.372 295.645C297.027 296.78 296.447 297.742 295.633 298.531C294.844 299.296 293.882 299.875 292.747 300.27C291.637 300.64 290.416 300.825 289.084 300.825C287.382 300.825 285.865 300.504 284.533 299.863C283.201 299.222 282.153 298.321 281.388 297.162C280.623 295.978 280.241 294.584 280.241 292.981C280.241 291.304 280.636 289.861 281.425 288.652C282.239 287.419 283.337 286.469 284.718 285.803C286.124 285.137 287.678 284.804 289.38 284.804ZM289.528 287.801C288.418 287.801 287.431 288.011 286.568 288.43C285.705 288.849 285.026 289.429 284.533 290.169C284.064 290.909 283.83 291.797 283.83 292.833C283.83 294.362 284.36 295.583 285.421 296.496C286.482 297.384 287.912 297.828 289.713 297.828C290.897 297.828 291.933 297.606 292.821 297.162C293.734 296.718 294.437 296.114 294.93 295.349C295.448 294.584 295.707 293.733 295.707 292.796C295.707 291.883 295.473 291.057 295.004 290.317C294.535 289.577 293.845 288.973 292.932 288.504C292.019 288.035 290.885 287.801 289.528 287.801Z" fill="#292C33"/>
<path d="M331.496 78V75.484L342.041 65.309C342.978 64.421 343.669 63.644 344.113 62.978C344.582 62.2873 344.89 61.6583 345.038 61.091C345.211 60.499 345.297 59.9317 345.297 59.389C345.297 58.057 344.828 57.0087 343.891 56.244C342.954 55.4793 341.585 55.097 339.784 55.097C338.403 55.097 337.157 55.3313 336.047 55.8C334.937 56.244 333.975 56.947 333.161 57.909L330.645 55.726C331.632 54.468 332.951 53.506 334.604 52.84C336.281 52.1493 338.119 51.804 340.117 51.804C341.918 51.804 343.484 52.1 344.816 52.692C346.148 53.2593 347.172 54.0857 347.887 55.171C348.627 56.2563 348.997 57.539 348.997 59.019C348.997 59.8577 348.886 60.684 348.664 61.498C348.442 62.312 348.023 63.1753 347.406 64.088C346.789 65.0007 345.901 66.0243 344.742 67.159L335.344 76.224L334.456 74.781H350.107V78H331.496Z" fill="#292C33"/>
<path d="M339.507 103.804C341.85 103.804 343.824 104.31 345.427 105.321C347.055 106.332 348.288 107.8 349.127 109.724C349.966 111.623 350.385 113.954 350.385 116.717C350.385 119.652 349.867 122.131 348.831 124.154C347.795 126.177 346.364 127.706 344.539 128.742C342.714 129.778 340.58 130.296 338.138 130.296C336.929 130.296 335.758 130.173 334.623 129.926C333.513 129.679 332.539 129.297 331.7 128.779L333.106 125.893C333.797 126.337 334.561 126.658 335.4 126.855C336.263 127.028 337.164 127.114 338.101 127.114C340.716 127.114 342.8 126.3 344.354 124.672C345.908 123.019 346.685 120.577 346.685 117.346C346.685 116.828 346.66 116.211 346.611 115.496C346.562 114.781 346.451 114.078 346.278 113.387L347.499 114.645C347.154 115.78 346.574 116.742 345.76 117.531C344.971 118.296 344.009 118.875 342.874 119.27C341.764 119.64 340.543 119.825 339.211 119.825C337.509 119.825 335.992 119.504 334.66 118.863C333.328 118.222 332.28 117.321 331.515 116.162C330.75 114.978 330.368 113.584 330.368 111.981C330.368 110.304 330.763 108.861 331.552 107.652C332.366 106.419 333.464 105.469 334.845 104.803C336.251 104.137 337.805 103.804 339.507 103.804ZM339.655 106.801C338.545 106.801 337.558 107.011 336.695 107.43C335.832 107.849 335.153 108.429 334.66 109.169C334.191 109.909 333.957 110.797 333.957 111.833C333.957 113.362 334.487 114.583 335.548 115.496C336.609 116.384 338.039 116.828 339.84 116.828C341.024 116.828 342.06 116.606 342.948 116.162C343.861 115.718 344.564 115.114 345.057 114.349C345.575 113.584 345.834 112.733 345.834 111.796C345.834 110.883 345.6 110.057 345.131 109.317C344.662 108.577 343.972 107.973 343.059 107.504C342.146 107.035 341.012 106.801 339.655 106.801Z" fill="#292C33"/>
<path d="M328.627 189V164.58L330.218 166.319H322.781V163.1H332.29V189H328.627ZM348.833 189.296C346.539 189.296 344.578 188.79 342.95 187.779C341.322 186.768 340.077 185.312 339.213 183.413C338.375 181.489 337.955 179.146 337.955 176.383C337.955 173.448 338.473 170.969 339.509 168.946C340.545 166.923 341.988 165.394 343.838 164.358C345.688 163.322 347.81 162.804 350.202 162.804C351.436 162.804 352.607 162.927 353.717 163.174C354.852 163.421 355.826 163.803 356.64 164.321L355.234 167.207C354.568 166.738 353.804 166.418 352.94 166.245C352.102 166.072 351.214 165.986 350.276 165.986C347.637 165.986 345.54 166.812 343.986 168.465C342.432 170.093 341.655 172.523 341.655 175.754C341.655 176.272 341.68 176.889 341.729 177.604C341.779 178.319 341.902 179.022 342.099 179.713L340.841 178.455C341.211 177.32 341.791 176.371 342.58 175.606C343.394 174.817 344.356 174.237 345.466 173.867C346.601 173.472 347.822 173.275 349.129 173.275C350.856 173.275 352.385 173.596 353.717 174.237C355.049 174.878 356.098 175.791 356.862 176.975C357.627 178.134 358.009 179.516 358.009 181.119C358.009 182.772 357.602 184.215 356.788 185.448C355.974 186.681 354.877 187.631 353.495 188.297C352.114 188.963 350.56 189.296 348.833 189.296ZM348.685 186.299C349.82 186.299 350.807 186.089 351.645 185.67C352.509 185.251 353.187 184.671 353.68 183.931C354.174 183.166 354.42 182.278 354.42 181.267C354.42 179.738 353.89 178.529 352.829 177.641C351.769 176.728 350.326 176.272 348.5 176.272C347.316 176.272 346.28 176.494 345.392 176.938C344.504 177.382 343.801 177.986 343.283 178.751C342.79 179.491 342.543 180.342 342.543 181.304C342.543 182.192 342.778 183.018 343.246 183.783C343.715 184.523 344.406 185.127 345.318 185.596C346.231 186.065 347.353 186.299 348.685 186.299Z" fill="#292C33"/>
<path d="M320.909 249V246.484L331.454 236.309C332.391 235.421 333.082 234.644 333.526 233.978C333.995 233.287 334.303 232.658 334.451 232.091C334.624 231.499 334.71 230.932 334.71 230.389C334.71 229.057 334.241 228.009 333.304 227.244C332.367 226.479 330.998 226.097 329.197 226.097C327.816 226.097 326.57 226.331 325.46 226.8C324.35 227.244 323.388 227.947 322.574 228.909L320.058 226.726C321.045 225.468 322.364 224.506 324.017 223.84C325.694 223.149 327.532 222.804 329.53 222.804C331.331 222.804 332.897 223.1 334.229 223.692C335.561 224.259 336.585 225.086 337.3 226.171C338.04 227.256 338.41 228.539 338.41 230.019C338.41 230.858 338.299 231.684 338.077 232.498C337.855 233.312 337.436 234.175 336.819 235.088C336.202 236.001 335.314 237.024 334.155 238.159L324.757 247.224L323.869 245.781H339.52V249H320.909ZM350.48 249.296C348.655 249.296 346.879 249.012 345.152 248.445C343.45 247.878 342.056 247.113 340.971 246.151L342.673 243.228C343.536 244.042 344.659 244.708 346.04 245.226C347.421 245.744 348.901 246.003 350.48 246.003C352.404 246.003 353.896 245.596 354.957 244.782C356.042 243.943 356.585 242.821 356.585 241.415C356.585 240.058 356.067 238.973 355.031 238.159C354.02 237.32 352.404 236.901 350.184 236.901H348.112V234.311L355.808 224.839L356.326 226.319H342.155V223.1H359.249V225.616L351.59 235.051L349.666 233.904H350.887C354.02 233.904 356.363 234.607 357.917 236.013C359.496 237.419 360.285 239.207 360.285 241.378C360.285 242.833 359.927 244.165 359.212 245.374C358.497 246.583 357.411 247.545 355.956 248.26C354.525 248.951 352.7 249.296 350.48 249.296Z" fill="#292C33"/>
<path d="M327.518 311.296C325.692 311.296 323.916 311.012 322.19 310.445C320.488 309.878 319.094 309.113 318.009 308.151L319.711 305.228C320.574 306.042 321.696 306.708 323.078 307.226C324.459 307.744 325.939 308.003 327.518 308.003C329.442 308.003 330.934 307.596 331.995 306.782C333.08 305.943 333.623 304.821 333.623 303.415C333.623 302.058 333.105 300.973 332.069 300.159C331.057 299.32 329.442 298.901 327.222 298.901H325.15V296.311L332.846 286.839L333.364 288.319H319.193V285.1H336.287V287.616L328.628 297.051L326.704 295.904H327.925C331.057 295.904 333.401 296.607 334.955 298.013C336.533 299.419 337.323 301.207 337.323 303.378C337.323 304.833 336.965 306.165 336.25 307.374C335.534 308.583 334.449 309.545 332.994 310.26C331.563 310.951 329.738 311.296 327.518 311.296ZM351.356 311.296C349.333 311.296 347.52 310.778 345.917 309.742C344.338 308.706 343.08 307.201 342.143 305.228C341.23 303.255 340.774 300.862 340.774 298.05C340.774 295.238 341.23 292.845 342.143 290.872C343.08 288.899 344.338 287.394 345.917 286.358C347.52 285.322 349.333 284.804 351.356 284.804C353.354 284.804 355.154 285.322 356.758 286.358C358.361 287.394 359.619 288.899 360.532 290.872C361.444 292.845 361.901 295.238 361.901 298.05C361.901 300.862 361.444 303.255 360.532 305.228C359.619 307.201 358.361 308.706 356.758 309.742C355.154 310.778 353.354 311.296 351.356 311.296ZM351.356 308.003C352.712 308.003 353.896 307.633 354.908 306.893C355.944 306.153 356.745 305.043 357.313 303.563C357.905 302.083 358.201 300.245 358.201 298.05C358.201 295.855 357.905 294.017 357.313 292.537C356.745 291.057 355.944 289.947 354.908 289.207C353.896 288.467 352.712 288.097 351.356 288.097C349.999 288.097 348.803 288.467 347.767 289.207C346.731 289.947 345.917 291.057 345.325 292.537C344.757 294.017 344.474 295.855 344.474 298.05C344.474 300.245 344.757 302.083 345.325 303.563C345.917 305.043 346.731 306.153 347.767 306.893C348.803 307.633 349.999 308.003 351.356 308.003Z" fill="#292C33"/>
<path d="M404.423 78.296C402.598 78.296 400.822 78.0123 399.095 77.445C397.393 76.8777 396 76.113 394.914 75.151L396.616 72.228C397.48 73.042 398.602 73.708 399.983 74.226C401.365 74.744 402.845 75.003 404.423 75.003C406.347 75.003 407.84 74.596 408.9 73.782C409.986 72.9433 410.528 71.821 410.528 70.415C410.528 69.0583 410.01 67.973 408.974 67.159C407.963 66.3203 406.347 65.901 404.127 65.901H402.055V63.311L409.751 53.839L410.269 55.319H396.098V52.1H413.192V54.616L405.533 64.051L403.609 62.904H404.83C407.963 62.904 410.306 63.607 411.86 65.013C413.439 66.419 414.228 68.2073 414.228 70.378C414.228 71.8333 413.871 73.1653 413.155 74.374C412.44 75.5827 411.355 76.5447 409.899 77.26C408.469 77.9507 406.643 78.296 404.423 78.296Z" fill="#292C33"/>
<path d="M392.272 130V105.58L393.863 107.319H386.426V104.1H395.935V130H392.272ZM412.182 130.296C410.16 130.296 408.347 129.778 406.743 128.742C405.165 127.706 403.907 126.201 402.969 124.228C402.057 122.255 401.6 119.862 401.6 117.05C401.6 114.238 402.057 111.845 402.969 109.872C403.907 107.899 405.165 106.394 406.743 105.358C408.347 104.322 410.16 103.804 412.182 103.804C414.18 103.804 415.981 104.322 417.584 105.358C419.188 106.394 420.446 107.899 421.358 109.872C422.271 111.845 422.727 114.238 422.727 117.05C422.727 119.862 422.271 122.255 421.358 124.228C420.446 126.201 419.188 127.706 417.584 128.742C415.981 129.778 414.18 130.296 412.182 130.296ZM412.182 127.003C413.539 127.003 414.723 126.633 415.734 125.893C416.77 125.153 417.572 124.043 418.139 122.563C418.731 121.083 419.027 119.245 419.027 117.05C419.027 114.855 418.731 113.017 418.139 111.537C417.572 110.057 416.77 108.947 415.734 108.207C414.723 107.467 413.539 107.097 412.182 107.097C410.826 107.097 409.629 107.467 408.593 108.207C407.557 108.947 406.743 110.057 406.151 111.537C405.584 113.017 405.3 114.855 405.3 117.05C405.3 119.245 405.584 121.083 406.151 122.563C406.743 124.043 407.557 125.153 408.593 125.893C409.629 126.633 410.826 127.003 412.182 127.003Z" fill="#292C33"/>
<path d="M384.048 249V246.484L394.593 236.309C395.531 235.421 396.221 234.644 396.665 233.978C397.134 233.287 397.442 232.658 397.59 232.091C397.763 231.499 397.849 230.932 397.849 230.389C397.849 229.057 397.381 228.009 396.443 227.244C395.506 226.479 394.137 226.097 392.336 226.097C390.955 226.097 389.709 226.331 388.599 226.8C387.489 227.244 386.527 227.947 385.713 228.909L383.197 226.726C384.184 225.468 385.504 224.506 387.156 223.84C388.834 223.149 390.671 222.804 392.669 222.804C394.47 222.804 396.036 223.1 397.368 223.692C398.7 224.259 399.724 225.086 400.439 226.171C401.179 227.256 401.549 228.539 401.549 230.019C401.549 230.858 401.438 231.684 401.216 232.498C400.994 233.312 400.575 234.175 399.958 235.088C399.342 236.001 398.454 237.024 397.294 238.159L387.896 247.224L387.008 245.781H402.659V249H384.048ZM404.609 242.636V240.046L417.855 223.1H421.851L408.716 240.046L406.829 239.454H427.512V242.636H404.609ZM419.002 249V242.636L419.113 239.454V233.83H422.591V249H419.002Z" fill="#292C33"/>
<path d="M10.9709 123.636V121.046L24.2169 104.1H28.2129L15.0779 121.046L13.1909 120.454H33.8739V123.636H10.9709ZM25.3639 130V123.636L25.4749 120.454V114.83H28.9529V130H25.3639Z" fill="#292C33"/>
<path d="M14.3881 189V164.58L15.9791 166.319H8.54209V163.1H18.0511V189H14.3881ZM28.0824 189V164.58L29.6734 166.319H22.2364V163.1H31.7454V189H28.0824Z" fill="#292C33"/>
<path d="M9.3295 249V224.58L10.9205 226.319H3.4835V223.1H12.9925V249H9.3295ZM28.7588 249.296C26.6622 249.296 24.8492 248.988 23.3198 248.371C21.7905 247.754 20.6065 246.879 19.7678 245.744C18.9292 244.585 18.5098 243.228 18.5098 241.674C18.5098 240.145 18.9045 238.85 19.6938 237.789C20.5078 236.704 21.6795 235.89 23.2088 235.347C24.7382 234.78 26.5882 234.496 28.7588 234.496C30.9295 234.496 32.7795 234.78 34.3088 235.347C35.8628 235.89 37.0468 236.704 37.8608 237.789C38.6748 238.874 39.0818 240.169 39.0818 241.674C39.0818 243.228 38.6625 244.585 37.8238 245.744C36.9852 246.879 35.7888 247.754 34.2348 248.371C32.6808 248.988 30.8555 249.296 28.7588 249.296ZM28.7588 246.299C30.8308 246.299 32.4465 245.88 33.6058 245.041C34.7898 244.178 35.3818 243.018 35.3818 241.563C35.3818 240.132 34.7898 239.01 33.6058 238.196C32.4465 237.357 30.8308 236.938 28.7588 236.938C26.7115 236.938 25.1082 237.357 23.9488 238.196C22.7895 239.01 22.2098 240.132 22.2098 241.563C22.2098 243.018 22.7895 244.178 23.9488 245.041C25.1082 245.88 26.7115 246.299 28.7588 246.299ZM28.7588 236.494C26.7855 236.494 25.1082 236.235 23.7268 235.717C22.3455 235.174 21.2848 234.41 20.5448 233.423C19.8048 232.412 19.4348 231.215 19.4348 229.834C19.4348 228.379 19.8172 227.133 20.5818 226.097C21.3712 225.036 22.4688 224.222 23.8748 223.655C25.2808 223.088 26.9088 222.804 28.7588 222.804C30.6335 222.804 32.2738 223.088 33.6798 223.655C35.0858 224.222 36.1835 225.036 36.9728 226.097C37.7622 227.133 38.1568 228.379 38.1568 229.834C38.1568 231.215 37.7868 232.412 37.0468 233.423C36.3068 234.41 35.2338 235.174 33.8278 235.717C32.4218 236.235 30.7322 236.494 28.7588 236.494ZM28.7588 234.126C30.5595 234.126 31.9655 233.756 32.9768 233.016C34.0128 232.276 34.5308 231.265 34.5308 229.982C34.5308 228.675 34.0005 227.651 32.9398 226.911C31.8792 226.171 30.4855 225.801 28.7588 225.801C27.0322 225.801 25.6508 226.171 24.6148 226.911C23.6035 227.651 23.0978 228.675 23.0978 229.982C23.0978 231.265 23.5912 232.276 24.5778 233.016C25.5892 233.756 26.9828 234.126 28.7588 234.126Z" fill="#292C33"/>
<path d="M2.06334 311V308.484L12.6083 298.309C13.5457 297.421 14.2363 296.644 14.6803 295.978C15.149 295.287 15.4573 294.658 15.6053 294.091C15.778 293.499 15.8643 292.932 15.8643 292.389C15.8643 291.057 15.3957 290.009 14.4583 289.244C13.521 288.479 12.152 288.097 10.3513 288.097C8.97 288.097 7.72434 288.331 6.61434 288.8C5.50434 289.244 4.54234 289.947 3.72834 290.909L1.21234 288.726C2.199 287.468 3.51867 286.506 5.17134 285.84C6.84867 285.149 8.68634 284.804 10.6843 284.804C12.485 284.804 14.0513 285.1 15.3833 285.692C16.7153 286.259 17.739 287.086 18.4543 288.171C19.1943 289.256 19.5643 290.539 19.5643 292.019C19.5643 292.858 19.4533 293.684 19.2313 294.498C19.0093 295.312 18.59 296.175 17.9733 297.088C17.3567 298.001 16.4687 299.024 15.3093 300.159L5.91134 309.224L5.02334 307.781H20.6743V311H2.06334ZM32.0784 311.296C30.2531 311.296 28.4771 311.012 26.7504 310.445C25.0484 309.878 23.6548 309.113 22.5694 308.151L24.2714 305.228C25.1348 306.042 26.2571 306.708 27.6384 307.226C29.0198 307.744 30.4874 308.003 32.0414 308.003C34.0148 308.003 35.5318 307.584 36.5924 306.745C37.6531 305.906 38.1834 304.784 38.1834 303.378C38.1834 302.416 37.9491 301.577 37.4804 300.862C37.0118 300.147 36.1978 299.604 35.0384 299.234C33.9038 298.839 32.3374 298.642 30.3394 298.642H24.4564L25.8254 285.1H40.4404V288.319H27.1944L29.1184 286.506L28.0454 297.199L26.1214 295.423H31.1164C33.7064 295.423 35.7908 295.756 37.3694 296.422C38.9481 297.088 40.0951 298.013 40.8104 299.197C41.5258 300.356 41.8834 301.701 41.8834 303.23C41.8834 304.71 41.5258 306.067 40.8104 307.3C40.0951 308.509 39.0098 309.483 37.5544 310.223C36.1238 310.938 34.2984 311.296 32.0784 311.296Z" fill="#292C33"/>
<path d="M88.1854 130.296C86.36 130.296 84.584 130.012 82.8574 129.445C81.1554 128.878 79.7617 128.113 78.6764 127.151L80.3784 124.228C81.2417 125.042 82.364 125.708 83.7454 126.226C85.1267 126.744 86.5944 127.003 88.1484 127.003C90.1217 127.003 91.6387 126.584 92.6994 125.745C93.76 124.906 94.2904 123.784 94.2904 122.378C94.2904 121.416 94.056 120.577 93.5874 119.862C93.1187 119.147 92.3047 118.604 91.1454 118.234C90.0107 117.839 88.4444 117.642 86.4464 117.642H80.5634L81.9324 104.1H96.5474V107.319H83.3014L85.2254 105.506L84.1524 116.199L82.2284 114.423H87.2234C89.8134 114.423 91.8977 114.756 93.4764 115.422C95.055 116.088 96.202 117.013 96.9174 118.197C97.6327 119.356 97.9904 120.701 97.9904 122.23C97.9904 123.71 97.6327 125.067 96.9174 126.3C96.202 127.509 95.1167 128.483 93.6614 129.223C92.2307 129.938 90.4054 130.296 88.1854 130.296Z" fill="#292C33"/>
<path d="M77.3422 189V164.58L78.9332 166.319H71.4962V163.1H81.0052V189H77.3422ZM86.2635 189V186.484L96.8085 176.309C97.7459 175.421 98.4365 174.644 98.8805 173.978C99.3492 173.287 99.6575 172.658 99.8055 172.091C99.9782 171.499 100.065 170.932 100.065 170.389C100.065 169.057 99.5959 168.009 98.6585 167.244C97.7212 166.479 96.3522 166.097 94.5515 166.097C93.1702 166.097 91.9245 166.331 90.8145 166.8C89.7045 167.244 88.7425 167.947 87.9285 168.909L85.4125 166.726C86.3992 165.468 87.7189 164.506 89.3715 163.84C91.0489 163.149 92.8865 162.804 94.8845 162.804C96.6852 162.804 98.2515 163.1 99.5835 163.692C100.916 164.259 101.939 165.086 102.655 166.171C103.395 167.256 103.765 168.539 103.765 170.019C103.765 170.858 103.654 171.684 103.432 172.498C103.21 173.312 102.79 174.175 102.174 175.088C101.557 176.001 100.669 177.024 99.5095 178.159L90.1115 187.224L89.2235 185.781H104.875V189H86.2635Z" fill="#292C33"/>
<path d="M76.5473 249V224.58L78.1383 226.319H70.7013V223.1H80.2103V249H76.5473ZM94.2746 222.804C96.6179 222.804 98.5913 223.31 100.195 224.321C101.823 225.332 103.056 226.8 103.895 228.724C104.733 230.623 105.153 232.954 105.153 235.717C105.153 238.652 104.635 241.131 103.599 243.154C102.563 245.177 101.132 246.706 99.3066 247.742C97.4813 248.778 95.3476 249.296 92.9056 249.296C91.6969 249.296 90.5253 249.173 89.3906 248.926C88.2806 248.679 87.3063 248.297 86.4676 247.779L87.8736 244.893C88.5643 245.337 89.3289 245.658 90.1676 245.855C91.0309 246.028 91.9313 246.114 92.8686 246.114C95.4833 246.114 97.5676 245.3 99.1216 243.672C100.676 242.019 101.453 239.577 101.453 236.346C101.453 235.828 101.428 235.211 101.379 234.496C101.329 233.781 101.218 233.078 101.046 232.387L102.267 233.645C101.921 234.78 101.342 235.742 100.528 236.531C99.7383 237.296 98.7763 237.875 97.6416 238.27C96.5316 238.64 95.3106 238.825 93.9786 238.825C92.2766 238.825 90.7596 238.504 89.4276 237.863C88.0956 237.222 87.0473 236.321 86.2826 235.162C85.5179 233.978 85.1356 232.584 85.1356 230.981C85.1356 229.304 85.5303 227.861 86.3196 226.652C87.1336 225.419 88.2313 224.469 89.6126 223.803C91.0186 223.137 92.5726 222.804 94.2746 222.804ZM94.4226 225.801C93.3126 225.801 92.3259 226.011 91.4626 226.43C90.5993 226.849 89.9209 227.429 89.4276 228.169C88.9589 228.909 88.7246 229.797 88.7246 230.833C88.7246 232.362 89.2549 233.583 90.3156 234.496C91.3763 235.384 92.8069 235.828 94.6076 235.828C95.7916 235.828 96.8276 235.606 97.7156 235.162C98.6283 234.718 99.3313 234.114 99.8246 233.349C100.343 232.584 100.602 231.733 100.602 230.796C100.602 229.883 100.367 229.057 99.8986 228.317C99.4299 227.577 98.7393 226.973 97.8266 226.504C96.9139 226.035 95.7793 225.801 94.4226 225.801Z" fill="#292C33"/>
<path d="M68.0165 311V308.484L78.5615 298.309C79.4988 297.421 80.1895 296.644 80.6335 295.978C81.1021 295.287 81.4105 294.658 81.5585 294.091C81.7311 293.499 81.8175 292.932 81.8175 292.389C81.8175 291.057 81.3488 290.009 80.4115 289.244C79.4741 288.479 78.1051 288.097 76.3045 288.097C74.9231 288.097 73.6775 288.331 72.5675 288.8C71.4575 289.244 70.4955 289.947 69.6815 290.909L67.1655 288.726C68.1521 287.468 69.4718 286.506 71.1245 285.84C72.8018 285.149 74.6395 284.804 76.6375 284.804C78.4381 284.804 80.0045 285.1 81.3365 285.692C82.6685 286.259 83.6921 287.086 84.4075 288.171C85.1475 289.256 85.5175 290.539 85.5175 292.019C85.5175 292.858 85.4065 293.684 85.1845 294.498C84.9625 295.312 84.5431 296.175 83.9265 297.088C83.3098 298.001 82.4218 299.024 81.2625 300.159L71.8645 309.224L70.9765 307.781H86.6275V311H68.0165ZM100.511 311.296C98.2174 311.296 96.2564 310.79 94.6284 309.779C93.0004 308.768 91.7548 307.312 90.8914 305.413C90.0528 303.489 89.6334 301.146 89.6334 298.383C89.6334 295.448 90.1514 292.969 91.1874 290.946C92.2234 288.923 93.6664 287.394 95.5164 286.358C97.3664 285.322 99.4878 284.804 101.88 284.804C103.114 284.804 104.285 284.927 105.395 285.174C106.53 285.421 107.504 285.803 108.318 286.321L106.912 289.207C106.246 288.738 105.482 288.418 104.618 288.245C103.78 288.072 102.892 287.986 101.954 287.986C99.3151 287.986 97.2184 288.812 95.6644 290.465C94.1104 292.093 93.3334 294.523 93.3334 297.754C93.3334 298.272 93.3581 298.889 93.4074 299.604C93.4568 300.319 93.5801 301.022 93.7774 301.713L92.5194 300.455C92.8894 299.32 93.4691 298.371 94.2584 297.606C95.0724 296.817 96.0344 296.237 97.1444 295.867C98.2791 295.472 99.5001 295.275 100.807 295.275C102.534 295.275 104.063 295.596 105.395 296.237C106.727 296.878 107.776 297.791 108.54 298.975C109.305 300.134 109.687 301.516 109.687 303.119C109.687 304.772 109.28 306.215 108.466 307.448C107.652 308.681 106.555 309.631 105.173 310.297C103.792 310.963 102.238 311.296 100.511 311.296ZM100.363 308.299C101.498 308.299 102.485 308.089 103.323 307.67C104.187 307.251 104.865 306.671 105.358 305.931C105.852 305.166 106.098 304.278 106.098 303.267C106.098 301.738 105.568 300.529 104.507 299.641C103.447 298.728 102.004 298.272 100.178 298.272C98.9944 298.272 97.9584 298.494 97.0704 298.938C96.1824 299.382 95.4794 299.986 94.9614 300.751C94.4681 301.491 94.2214 302.342 94.2214 303.304C94.2214 304.192 94.4558 305.018 94.9244 305.783C95.3931 306.523 96.0838 307.127 96.9964 307.596C97.9091 308.065 99.0314 308.299 100.363 308.299Z" fill="#292C33"/>
<path d="M155.926 130.296C153.632 130.296 151.671 129.79 150.043 128.779C148.415 127.768 147.17 126.312 146.306 124.413C145.468 122.489 145.048 120.146 145.048 117.383C145.048 114.448 145.566 111.969 146.602 109.946C147.638 107.923 149.081 106.394 150.931 105.358C152.781 104.322 154.903 103.804 157.295 103.804C158.529 103.804 159.7 103.927 160.81 104.174C161.945 104.421 162.919 104.803 163.733 105.321L162.327 108.207C161.661 107.738 160.897 107.418 160.033 107.245C159.195 107.072 158.307 106.986 157.369 106.986C154.73 106.986 152.633 107.812 151.079 109.465C149.525 111.093 148.748 113.523 148.748 116.754C148.748 117.272 148.773 117.889 148.822 118.604C148.872 119.319 148.995 120.022 149.192 120.713L147.934 119.455C148.304 118.32 148.884 117.371 149.673 116.606C150.487 115.817 151.449 115.237 152.559 114.867C153.694 114.472 154.915 114.275 156.222 114.275C157.949 114.275 159.478 114.596 160.81 115.237C162.142 115.878 163.191 116.791 163.955 117.975C164.72 119.134 165.102 120.516 165.102 122.119C165.102 123.772 164.695 125.215 163.881 126.448C163.067 127.681 161.97 128.631 160.588 129.297C159.207 129.963 157.653 130.296 155.926 130.296ZM155.778 127.299C156.913 127.299 157.9 127.089 158.738 126.67C159.602 126.251 160.28 125.671 160.773 124.931C161.267 124.166 161.513 123.278 161.513 122.267C161.513 120.738 160.983 119.529 159.922 118.641C158.862 117.728 157.419 117.272 155.593 117.272C154.409 117.272 153.373 117.494 152.485 117.938C151.597 118.382 150.894 118.986 150.376 119.751C149.883 120.491 149.636 121.342 149.636 122.304C149.636 123.192 149.871 124.018 150.339 124.783C150.808 125.523 151.499 126.127 152.411 126.596C153.324 127.065 154.446 127.299 155.778 127.299Z" fill="#292C33"/>
<path d="M143.398 189V164.58L144.989 166.319H137.552V163.1H147.061V189H143.398ZM160.645 189.296C158.819 189.296 157.043 189.012 155.317 188.445C153.615 187.878 152.221 187.113 151.136 186.151L152.838 183.228C153.701 184.042 154.823 184.708 156.205 185.226C157.586 185.744 159.066 186.003 160.645 186.003C162.569 186.003 164.061 185.596 165.122 184.782C166.207 183.943 166.75 182.821 166.75 181.415C166.75 180.058 166.232 178.973 165.196 178.159C164.184 177.32 162.569 176.901 160.349 176.901H158.277V174.311L165.973 164.839L166.491 166.319H152.32V163.1H169.414V165.616L161.755 175.051L159.831 173.904H161.052C164.184 173.904 166.528 174.607 168.082 176.013C169.66 177.419 170.45 179.207 170.45 181.378C170.45 182.833 170.092 184.165 169.377 185.374C168.661 186.583 167.576 187.545 166.121 188.26C164.69 188.951 162.865 189.296 160.645 189.296Z" fill="#292C33"/>
<path d="M133.115 249V246.484L143.66 236.309C144.597 235.421 145.288 234.644 145.732 233.978C146.201 233.287 146.509 232.658 146.657 232.091C146.83 231.499 146.916 230.932 146.916 230.389C146.916 229.057 146.447 228.009 145.51 227.244C144.573 226.479 143.204 226.097 141.403 226.097C140.022 226.097 138.776 226.331 137.666 226.8C136.556 227.244 135.594 227.947 134.78 228.909L132.264 226.726C133.251 225.468 134.57 224.506 136.223 223.84C137.9 223.149 139.738 222.804 141.736 222.804C143.537 222.804 145.103 223.1 146.435 223.692C147.767 224.259 148.791 225.086 149.506 226.171C150.246 227.256 150.616 228.539 150.616 230.019C150.616 230.858 150.505 231.684 150.283 232.498C150.061 233.312 149.642 234.175 149.025 235.088C148.408 236.001 147.52 237.024 146.361 238.159L136.963 247.224L136.075 245.781H151.726V249H133.115ZM165.314 249.296C163.291 249.296 161.478 248.778 159.875 247.742C158.296 246.706 157.038 245.201 156.101 243.228C155.188 241.255 154.732 238.862 154.732 236.05C154.732 233.238 155.188 230.845 156.101 228.872C157.038 226.899 158.296 225.394 159.875 224.358C161.478 223.322 163.291 222.804 165.314 222.804C167.312 222.804 169.113 223.322 170.716 224.358C172.319 225.394 173.577 226.899 174.49 228.872C175.403 230.845 175.859 233.238 175.859 236.05C175.859 238.862 175.403 241.255 174.49 243.228C173.577 245.201 172.319 246.706 170.716 247.742C169.113 248.778 167.312 249.296 165.314 249.296ZM165.314 246.003C166.671 246.003 167.855 245.633 168.866 244.893C169.902 244.153 170.704 243.043 171.271 241.563C171.863 240.083 172.159 238.245 172.159 236.05C172.159 233.855 171.863 232.017 171.271 230.537C170.704 229.057 169.902 227.947 168.866 227.207C167.855 226.467 166.671 226.097 165.314 226.097C163.957 226.097 162.761 226.467 161.725 227.207C160.689 227.947 159.875 229.057 159.283 230.537C158.716 232.017 158.432 233.855 158.432 236.05C158.432 238.245 158.716 240.083 159.283 241.563C159.875 243.043 160.689 244.153 161.725 244.893C162.761 245.633 163.957 246.003 165.314 246.003Z" fill="#292C33"/>
<path d="M134.398 311V308.484L144.943 298.309C145.88 297.421 146.571 296.644 147.015 295.978C147.483 295.287 147.792 294.658 147.94 294.091C148.112 293.499 148.199 292.932 148.199 292.389C148.199 291.057 147.73 290.009 146.793 289.244C145.855 288.479 144.486 288.097 142.686 288.097C141.304 288.097 140.059 288.331 138.949 288.8C137.839 289.244 136.877 289.947 136.063 290.909L133.547 288.726C134.533 287.468 135.853 286.506 137.506 285.84C139.183 285.149 141.021 284.804 143.019 284.804C144.819 284.804 146.386 285.1 147.718 285.692C149.05 286.259 150.073 287.086 150.789 288.171C151.529 289.256 151.899 290.539 151.899 292.019C151.899 292.858 151.788 293.684 151.566 294.498C151.344 295.312 150.924 296.175 150.308 297.088C149.691 298.001 148.803 299.024 147.644 300.159L138.246 309.224L137.358 307.781H153.009V311H134.398ZM160.492 311L171.481 286.654L172.443 288.319H157.051L158.901 286.506V292.944H155.349V285.1H174.885V287.616L164.414 311H160.492Z" fill="white"/>
<path d="M202.169 189V164.58L203.76 166.319H196.323V163.1H205.832V189H202.169ZM211.128 182.636V180.046L224.374 163.1H228.37L215.235 180.046L213.348 179.454H234.031V182.636H211.128ZM225.521 189V182.636L225.632 179.454V173.83H229.11V189H225.521Z" fill="#292C33"/>
<path d="M199.149 249V246.484L209.694 236.309C210.631 235.421 211.322 234.644 211.766 233.978C212.234 233.287 212.543 232.658 212.691 232.091C212.863 231.499 212.95 230.932 212.95 230.389C212.95 229.057 212.481 228.009 211.544 227.244C210.606 226.479 209.237 226.097 207.437 226.097C206.055 226.097 204.81 226.331 203.7 226.8C202.59 227.244 201.628 227.947 200.814 228.909L198.298 226.726C199.284 225.468 200.604 224.506 202.257 223.84C203.934 223.149 205.772 222.804 207.77 222.804C209.57 222.804 211.137 223.1 212.469 223.692C213.801 224.259 214.824 225.086 215.54 226.171C216.28 227.256 216.65 228.539 216.65 230.019C216.65 230.858 216.539 231.684 216.317 232.498C216.095 233.312 215.675 234.175 215.059 235.088C214.442 236.001 213.554 237.024 212.395 238.159L202.997 247.224L202.109 245.781H217.76V249H199.149ZM225.168 249V224.58L226.759 226.319H219.322V223.1H228.831V249H225.168Z" fill="#292C33"/>
<path d="M194.09 311V308.484L204.635 298.309C205.573 297.421 206.263 296.644 206.707 295.978C207.176 295.287 207.484 294.658 207.632 294.091C207.805 293.499 207.891 292.932 207.891 292.389C207.891 291.057 207.423 290.009 206.485 289.244C205.548 288.479 204.179 288.097 202.378 288.097C200.997 288.097 199.751 288.331 198.641 288.8C197.531 289.244 196.569 289.947 195.755 290.909L193.239 288.726C194.226 287.468 195.546 286.506 197.198 285.84C198.876 285.149 200.713 284.804 202.711 284.804C204.512 284.804 206.078 285.1 207.41 285.692C208.742 286.259 209.766 287.086 210.481 288.171C211.221 289.256 211.591 290.539 211.591 292.019C211.591 292.858 211.48 293.684 211.258 294.498C211.036 295.312 210.617 296.175 210 297.088C209.384 298.001 208.496 299.024 207.336 300.159L197.938 309.224L197.05 307.781H212.701V311H194.09ZM225.844 311.296C223.748 311.296 221.935 310.988 220.405 310.371C218.876 309.754 217.692 308.879 216.853 307.744C216.015 306.585 215.595 305.228 215.595 303.674C215.595 302.145 215.99 300.85 216.779 299.789C217.593 298.704 218.765 297.89 220.294 297.347C221.824 296.78 223.674 296.496 225.844 296.496C228.015 296.496 229.865 296.78 231.394 297.347C232.948 297.89 234.132 298.704 234.946 299.789C235.76 300.874 236.167 302.169 236.167 303.674C236.167 305.228 235.748 306.585 234.909 307.744C234.071 308.879 232.874 309.754 231.32 310.371C229.766 310.988 227.941 311.296 225.844 311.296ZM225.844 308.299C227.916 308.299 229.532 307.88 230.691 307.041C231.875 306.178 232.467 305.018 232.467 303.563C232.467 302.132 231.875 301.01 230.691 300.196C229.532 299.357 227.916 298.938 225.844 298.938C223.797 298.938 222.194 299.357 221.034 300.196C219.875 301.01 219.295 302.132 219.295 303.563C219.295 305.018 219.875 306.178 221.034 307.041C222.194 307.88 223.797 308.299 225.844 308.299ZM225.844 298.494C223.871 298.494 222.194 298.235 220.812 297.717C219.431 297.174 218.37 296.41 217.63 295.423C216.89 294.412 216.52 293.215 216.52 291.834C216.52 290.379 216.903 289.133 217.667 288.097C218.457 287.036 219.554 286.222 220.96 285.655C222.366 285.088 223.994 284.804 225.844 284.804C227.719 284.804 229.359 285.088 230.765 285.655C232.171 286.222 233.269 287.036 234.058 288.097C234.848 289.133 235.242 290.379 235.242 291.834C235.242 293.215 234.872 294.412 234.132 295.423C233.392 296.41 232.319 297.174 230.913 297.717C229.507 298.235 227.818 298.494 225.844 298.494ZM225.844 296.126C227.645 296.126 229.051 295.756 230.062 295.016C231.098 294.276 231.616 293.265 231.616 291.982C231.616 290.675 231.086 289.651 230.025 288.911C228.965 288.171 227.571 287.801 225.844 287.801C224.118 287.801 222.736 288.171 221.7 288.911C220.689 289.651 220.183 290.675 220.183 291.982C220.183 293.265 220.677 294.276 221.663 295.016C222.675 295.756 224.068 296.126 225.844 296.126Z" fill="#292C33"/>
<path d="M210.446 130L221.435 105.654L222.397 107.319H207.005L208.855 105.506V111.944H205.303V104.1H224.839V106.616L214.368 130H210.446Z" fill="#292C33"/>
<path d="M393.555 189V164.58L395.146 166.319H387.709V163.1H397.218V189H393.555ZM407.36 189L418.349 164.654L419.311 166.319H403.919L405.769 164.506V170.944H402.217V163.1H421.753V165.616L411.282 189H407.36Z" fill="#292C33"/>
</g>
<defs>
<clipPath id="clip0_528_2792">
<rect width="431" height="321" fill="white"/>
</clipPath>
</defs>
</svg>
