<svg width="432" height="317" viewBox="0 0 432 317" fill="none" xmlns="http://www.w3.org/2000/svg">
<path d="M23.4594 21.0686H20.8506V3.417H11.3936V21.0686H8.70312V1.34521H23.3779V21.0686H23.4594Z" fill="#B3B3B3"/>
<path d="M39.2715 21.0686H36.6626V14.8532H30.2221V21.0686H27.6133V6.40039H30.2221V12.7815H36.6626V6.40039H39.2715V21.0686Z" fill="#B3B3B3"/>
<path d="M73.5 21.0686V1.34521H79.859C81.8972 1.34521 83.4462 1.75957 84.5875 2.67116C85.7289 3.58274 86.2996 4.90868 86.2996 6.64897C86.2996 7.47769 86.055 8.22353 85.5658 8.96937C85.0767 9.71521 84.3429 10.1296 83.5277 10.4611C84.8321 10.6267 85.8104 11.2069 86.5441 12.1185C87.2779 13.0301 87.6855 14.1903 87.6855 15.4333C87.6855 17.2565 87.1148 18.5824 85.9735 19.5768C84.8321 20.5714 83.2831 20.9857 81.245 20.9857H73.5V21.0686ZM76.1904 9.71521H80.4297C81.408 9.71521 82.2233 9.4666 82.794 8.8865C83.4462 8.3064 83.6907 7.56056 83.6907 6.5661C83.6907 5.48878 83.3646 4.74293 82.7124 4.16284C82.0602 3.66561 81.0819 3.33412 79.859 3.33412H76.1904V9.71521ZM76.1904 11.787V18.9139H81.245C82.4678 18.9139 83.3646 18.5824 84.0168 18.0023C84.6691 17.4223 84.9952 16.5107 84.9952 15.4333C84.9952 14.356 84.6691 13.4444 84.0168 12.7814C83.3646 12.1185 82.4678 11.787 81.245 11.7041H81.0819H76.1904V11.787Z" fill="#B3B3B3"/>
<path d="M101.624 8.47216H96.8959V21.0686H94.2871V8.47216H89.5586V6.40039H101.624V8.47216Z" fill="#B3B3B3"/>
<path d="M151.012 14.7703C151.093 16.6764 150.441 18.2509 149.137 19.4939C147.832 20.737 146.12 21.3999 143.919 21.3999C141.718 21.3999 139.924 20.5713 138.538 18.9967C137.152 17.4222 136.5 15.4333 136.5 12.9471V9.46653C136.5 7.06327 137.152 4.99149 138.538 3.41694C139.924 1.84238 141.718 1.01367 143.919 1.01367C146.12 1.01367 147.832 1.59377 149.137 2.75396C150.441 3.91417 151.093 5.48872 151.012 7.47763V7.5605H148.484C148.484 6.15169 148.077 5.07436 147.261 4.24565C146.446 3.41694 145.305 3.00258 143.837 3.00258C142.37 3.00258 141.229 3.58268 140.332 4.82575C139.435 5.98594 139.027 7.47763 139.027 9.30079V12.8643C139.027 14.6874 139.435 16.1791 140.332 17.3393C141.229 18.4995 142.37 19.1624 143.837 19.1624C145.305 19.1624 146.446 18.7481 147.261 18.0023C148.077 17.1735 148.484 16.0962 148.484 14.6874H151.012V14.7703Z" fill="#B3B3B3"/>
<path d="M166.419 14.2732C166.419 16.4279 165.93 18.0853 164.952 19.4112C163.973 20.7372 162.587 21.3173 160.794 21.3173C159.897 21.3173 159.163 21.1515 158.429 20.903C157.777 20.5715 157.207 20.1571 156.717 19.577V26.7039H154.109V6.40047H156.147L156.554 8.3065C157.044 7.56067 157.614 7.06343 158.348 6.73195C159.082 6.40047 159.897 6.15186 160.794 6.15186C162.587 6.15186 163.973 6.89769 164.952 8.3065C165.93 9.71531 166.419 11.6214 166.419 14.0246V14.2732ZM163.81 14.0246C163.81 12.3672 163.484 10.9584 162.832 9.96393C162.18 8.96948 161.201 8.38938 159.978 8.38938C159.245 8.38938 158.593 8.55512 158.022 8.8866C157.451 9.21809 157.044 9.71531 156.717 10.2955V17.4224C157.044 18.0025 157.451 18.4996 158.022 18.8311C158.593 19.1626 159.245 19.3284 159.978 19.3284C161.201 19.3284 162.18 18.8311 162.832 17.9195C163.484 17.008 163.81 15.765 163.81 14.3561V14.0246Z" fill="#B3B3B3"/>
<path d="M215.93 1.34521V21.0686H213.321V12.8643C212.506 13.1129 211.691 13.2787 210.875 13.4444C210.06 13.5273 209.163 13.6102 208.022 13.6102C205.902 13.6102 204.272 13.1129 203.131 12.2013C201.989 11.2898 201.5 9.71521 201.5 7.56056V1.34521H204.109V7.56056C204.109 9.05224 204.435 10.0467 205.006 10.6267C205.658 11.2069 206.636 11.4555 207.941 11.4555C208.837 11.4555 209.734 11.3727 210.631 11.2898C211.446 11.124 212.343 10.9582 213.24 10.7097V1.34521H215.93Z" fill="#B3B3B3"/>
<path d="M231.174 8.47216H226.446V21.0686H223.837V8.47216H219.109V6.40039H231.174V8.47216Z" fill="#B3B3B3"/>
<path d="M280.175 21.0686H277.566V3.417H268.109V21.0686H265.5V1.34521H280.175V21.0686Z" fill="#B3B3B3"/>
<path d="M295.421 8.47216H290.692V21.0686H288.084V8.47216H283.355V6.40039H295.421V8.47216Z" fill="#B3B3B3"/>
<path d="M345.012 14.7698C345.093 16.6759 344.441 18.2504 343.137 19.4935C341.832 20.7366 340.12 21.3995 337.919 21.3995C335.718 21.3995 333.924 20.5708 332.538 18.9962C331.152 17.4218 330.5 15.4328 330.5 12.9467V9.46605C330.5 7.06279 331.152 4.99101 332.538 3.41646C333.924 1.8419 335.718 1.01318 337.919 1.01318C340.12 1.01318 341.832 1.59329 343.137 2.75348C344.441 3.91368 345.093 5.48823 345.012 7.47715V7.56001H342.484C342.484 6.1512 342.077 5.07388 341.261 4.24517C340.446 3.41646 339.305 3.0021 337.837 3.0021C336.37 3.0021 335.229 3.5822 334.332 4.82527C333.435 5.98546 333.027 7.47715 333.027 9.30031V12.8638C333.027 14.687 333.435 16.1787 334.332 17.3388C335.229 18.4991 336.37 19.162 337.837 19.162C339.305 19.162 340.446 18.7477 341.261 18.0018C342.077 17.1731 342.484 16.0957 342.484 14.687H345.012V14.7698Z" fill="#B3B3B3"/>
<path d="M354.387 6.15116C356.262 6.15116 357.648 6.81413 358.708 8.22294C359.768 9.63176 360.338 11.372 360.338 13.6096V13.941C360.338 16.0957 359.768 17.9189 358.626 19.3277C357.485 20.7364 355.936 21.3995 353.898 21.3995C351.86 21.3995 350.311 20.7364 349.169 19.3277C348.028 17.9189 347.457 16.1786 347.457 13.941V13.6096C347.457 13.5267 347.457 13.4439 347.457 13.4439C347.457 13.3609 347.457 13.3609 347.457 13.2781V10.129C347.457 7.31136 348.028 5.32245 349.088 3.99651C350.148 2.67057 351.778 2.0076 353.898 1.84186C355.121 1.75899 356.099 1.59324 356.751 1.34463C357.403 1.09602 357.73 0.681661 357.73 0.101562H359.768V0.184434C359.849 1.59324 359.36 2.58769 358.382 3.1678C357.403 3.7479 356.017 4.07938 354.142 4.07938C352.756 4.07938 351.697 4.49374 350.881 5.23957C350.066 5.98542 349.658 7.06274 349.658 8.47155V8.55443C350.148 7.89145 350.881 7.31136 351.697 6.897C352.512 6.48264 353.49 6.15116 354.387 6.15116ZM353.898 8.22294C352.675 8.22294 351.697 8.72017 351.044 9.71462C350.392 10.7091 350.066 12.035 350.066 13.5267V13.8582C350.066 15.4327 350.392 16.6758 351.044 17.6703C351.697 18.6647 352.675 19.162 353.898 19.162C355.121 19.162 356.099 18.6647 356.751 17.6703C357.403 16.6758 357.73 15.3499 357.73 13.8582V13.5267C357.73 11.9521 357.403 10.7091 356.751 9.71462C356.099 8.72017 355.121 8.22294 353.898 8.22294Z" fill="#B3B3B3"/>
<path d="M394.5 21.0686V1.34521H400.859C402.897 1.34521 404.446 1.75957 405.588 2.67116C406.729 3.58274 407.3 4.90868 407.3 6.64897C407.3 7.47769 407.055 8.22353 406.566 8.96937C406.077 9.71521 405.343 10.1296 404.528 10.5439C405.832 10.7097 406.81 11.2898 407.544 12.2013C408.278 13.1129 408.686 14.2731 408.686 15.5162C408.686 17.3393 408.115 18.6653 406.973 19.6598C405.832 20.6542 404.283 21.0686 402.245 21.0686H394.5ZM397.19 9.71521H401.43C402.408 9.71521 403.223 9.4666 403.794 8.8865C404.446 8.3064 404.691 7.56056 404.691 6.5661C404.691 5.48878 404.365 4.74293 403.712 4.16284C403.06 3.66561 402.082 3.33412 400.859 3.33412H397.19V9.71521ZM397.19 11.787V18.9139H402.245C403.468 18.9139 404.365 18.5824 405.017 18.0023C405.669 17.4223 405.995 16.5107 405.995 15.4333C405.995 14.356 405.669 13.4444 405.017 12.7814C404.365 12.1185 403.468 11.787 402.245 11.7041H402.082H397.19V11.787Z" fill="#B3B3B3"/>
<path d="M417.245 19.2451C418.061 19.2451 418.794 18.9965 419.365 18.4164C419.936 17.8363 420.262 17.1734 420.262 16.4274H422.626V16.5104C422.626 17.7535 422.137 18.9136 420.996 19.908C419.854 20.9025 418.631 21.3998 417.164 21.3998C415.126 21.3998 413.577 20.7368 412.435 19.3279C411.294 17.9192 410.805 16.1789 410.805 14.1071V13.527C410.805 11.4552 411.376 9.71496 412.435 8.30615C413.577 6.89734 415.126 6.23438 417.082 6.23438C418.713 6.23438 420.017 6.7316 420.996 7.72605C421.974 8.7205 422.545 9.96357 422.463 11.4552V11.5381H420.099C420.099 10.6265 419.773 9.88071 419.202 9.21774C418.631 8.55476 417.898 8.30615 417.001 8.30615C415.696 8.30615 414.8 8.80338 414.147 9.79783C413.577 10.7923 413.251 12.0353 413.251 13.527V14.1071C413.251 15.5988 413.577 16.8419 414.147 17.8363C415.044 18.7479 415.941 19.2451 417.245 19.2451Z" fill="#B3B3B3"/>
<path d="M20.9492 52.96H30.4582V79.2874H26.7952V56.2321H20.9492V52.96Z" fill="#292C33"/>
<path d="M33.2067 118.342C36.1667 119.508 37.7947 121.69 37.7947 124.698C37.7947 129.475 33.7987 132.446 27.4717 132.446C21.1817 132.446 17.2227 129.475 17.2227 124.698C17.2227 121.69 18.8507 119.471 21.7737 118.342C19.4057 117.214 18.1477 115.258 18.1477 112.663C18.1477 108.263 21.8847 105.517 27.4717 105.517C33.0957 105.517 36.8697 108.263 36.8697 112.663C36.8697 115.258 35.5747 117.214 33.2067 118.342ZM27.4717 108.564C23.9937 108.564 21.8107 110.181 21.8107 112.814C21.8107 115.409 23.9197 117.026 27.4717 117.026C31.0607 117.026 33.2437 115.409 33.2437 112.814C33.2437 110.181 30.9497 108.564 27.4717 108.564ZM27.4717 129.4C31.5787 129.4 34.0947 127.557 34.0947 124.586C34.0947 121.69 31.5787 119.884 27.4717 119.884C23.3647 119.884 20.9227 121.69 20.9227 124.586C20.9227 127.557 23.3647 129.4 27.4717 129.4Z" fill="#292C33"/>
<path d="M9.82812 164.692H19.3372V191.02H15.6742V167.964H9.82812V164.692ZM32.4025 175.186C40.1355 175.186 43.1695 178.458 43.1695 183.122C43.1695 187.672 39.9875 191.321 33.3645 191.321C29.7015 191.321 26.0755 190.117 23.8555 188.124L25.5575 185.153C27.2965 186.807 30.1825 187.973 33.3275 187.973C37.2495 187.973 39.4695 186.13 39.4695 183.272C39.4695 180.301 37.6195 178.458 31.6255 178.458H25.7425L27.1115 164.692H41.7265V167.964H30.2195L29.5165 175.186H32.4025Z" fill="#292C33"/>
<path d="M12.4485 246.622H25.7315V249.894H7.12053V247.337L17.6655 236.994C20.4035 234.286 20.9215 232.631 20.9215 230.976C20.9215 228.268 19.0345 226.613 15.4085 226.613C12.6335 226.613 10.3766 227.516 8.78553 229.472L6.26953 227.253C8.26753 224.733 11.7085 223.266 15.7415 223.266C21.1435 223.266 24.6215 226.087 24.6215 230.6C24.6215 233.158 23.8815 235.452 20.3665 238.874L12.4485 246.622ZM33.6945 246.622H46.9776V249.894H28.3666V247.337L38.9116 236.994C41.6496 234.286 42.1675 232.631 42.1675 230.976C42.1675 228.268 40.2806 226.613 36.6546 226.613C33.8796 226.613 31.6226 227.516 30.0316 229.472L27.5156 227.253C29.5136 224.733 32.9545 223.266 36.9875 223.266C42.3895 223.266 45.8675 226.087 45.8675 230.6C45.8675 233.158 45.1275 235.452 41.6125 238.874L33.6945 246.622Z" fill="#292C33"/>
<path d="M11.6555 304.58H24.9385V307.852H6.32756V305.294L16.8725 294.951C19.6105 292.244 20.1285 290.589 20.1285 288.934C20.1285 286.226 18.2415 284.571 14.6155 284.571C11.8405 284.571 9.58356 285.474 7.99256 287.429L5.47656 285.21C7.47456 282.69 10.9155 281.224 14.9485 281.224C20.3505 281.224 23.8285 284.044 23.8285 288.558C23.8285 291.115 23.0885 293.409 19.5735 296.832L11.6555 304.58ZM36.3796 281.224C43.3356 281.224 47.2576 285.963 47.2576 294.35C47.2576 303.339 42.2626 308.153 35.0106 308.153C32.5686 308.153 30.2376 307.664 28.5726 306.611L29.9786 303.677C31.3476 304.58 33.0866 304.918 34.9736 304.918C40.2276 304.918 43.5577 301.571 43.5577 294.989V294.049C42.0407 296.343 39.3026 297.509 36.0836 297.509C30.9406 297.509 27.2406 294.387 27.2406 289.536C27.2406 284.458 31.2366 281.224 36.3796 281.224ZM36.7126 294.463C40.2646 294.463 42.7066 292.244 42.7066 289.348C42.7066 286.64 40.5606 284.27 36.5276 284.27C33.1606 284.27 30.8296 286.263 30.8296 289.385C30.8296 292.469 33.0866 294.463 36.7126 294.463Z" fill="#292C33"/>
<path d="M86.5735 76.0153H99.8565V79.2875H81.2455V76.7299L91.7905 66.387C94.5285 63.6791 95.0465 62.0242 95.0465 60.3693C95.0465 57.6614 93.1595 56.0065 89.5335 56.0065C86.7585 56.0065 84.5015 56.9092 82.9105 58.8649L80.3945 56.6459C82.3925 54.126 85.8335 52.6592 89.8665 52.6592C95.2685 52.6592 98.7465 55.48 98.7465 59.9932C98.7465 62.5508 98.0065 64.845 94.4915 68.2676L86.5735 76.0153Z" fill="#292C33"/>
<path d="M89.7562 105.517C96.7122 105.517 100.634 110.256 100.634 118.643C100.634 127.632 95.6392 132.446 88.3872 132.446C85.9452 132.446 83.6142 131.957 81.9492 130.904L83.3552 127.971C84.7242 128.873 86.4632 129.212 88.3502 129.212C93.6042 129.212 96.9342 125.864 96.9342 119.283V118.342C95.4172 120.637 92.6792 121.802 89.4602 121.802C84.3172 121.802 80.6172 118.681 80.6172 113.829C80.6172 108.752 84.6132 105.517 89.7562 105.517ZM90.0892 118.756C93.6412 118.756 96.0832 116.537 96.0832 113.641C96.0832 110.933 93.9372 108.564 89.9042 108.564C86.5372 108.564 84.2062 110.557 84.2062 113.679C84.2062 116.763 86.4632 118.756 90.0892 118.756Z" fill="#292C33"/>
<path d="M73.0312 164.692H82.5404V191.02H78.8773V167.965H73.0312V164.692ZM99.3797 175.035C104.522 175.035 108.259 178.157 108.259 183.009C108.259 188.086 104.226 191.321 99.0836 191.321C92.1277 191.321 88.2057 186.582 88.2057 178.195C88.2057 169.206 93.2007 164.392 100.452 164.392C102.894 164.392 105.225 164.881 106.89 165.934L105.484 168.867C104.152 167.965 102.376 167.626 100.526 167.626C95.2727 167.626 91.9056 170.973 91.9056 177.555C91.9056 177.856 91.9056 178.157 91.9426 178.496C93.4226 176.239 96.1607 175.035 99.3797 175.035ZM98.9357 188.274C102.302 188.274 104.67 186.281 104.67 183.159C104.67 180.075 102.376 178.082 98.7506 178.082C95.2356 178.082 92.7936 180.301 92.7936 183.197C92.7936 185.905 94.9397 188.274 98.9357 188.274Z" fill="#292C33"/>
<path d="M76.4876 246.622H89.7706V249.894H71.1596V247.337L81.7046 236.994C84.4426 234.286 84.9606 232.631 84.9606 230.976C84.9606 228.268 83.0736 226.613 79.4476 226.613C76.6726 226.613 74.4156 227.516 72.8246 229.472L70.3086 227.253C72.3066 224.733 75.7476 223.266 79.7806 223.266C85.1826 223.266 88.6606 226.087 88.6606 230.6C88.6606 233.158 87.9206 235.452 84.4056 238.874L76.4876 246.622ZM102.729 234.624C107.909 235.113 110.536 238.085 110.536 242.147C110.536 246.585 107.317 250.195 100.731 250.195C97.0307 250.195 93.4047 248.992 91.2217 246.998L92.9237 244.027C94.6627 245.682 97.5487 246.848 100.731 246.848C104.616 246.848 106.836 245.043 106.836 242.184C106.836 239.401 104.875 237.596 100.435 237.596H98.3627V234.963L104.875 226.839H92.4057V223.567H109.5V226.125L102.729 234.624Z" fill="#292C33"/>
<path d="M79.2648 292.582C84.4448 293.071 87.0718 296.042 87.0718 300.104C87.0718 304.542 83.8528 308.153 77.2668 308.153C73.5668 308.153 69.9408 306.949 67.7578 304.956L69.4598 301.985C71.1988 303.64 74.0848 304.805 77.2668 304.805C81.1518 304.805 83.3718 303 83.3718 300.142C83.3718 297.359 81.4108 295.553 76.9708 295.553H74.8988V292.921L81.4108 284.797H68.9418V281.525H86.0358V284.082L79.2648 292.582ZM101.105 308.153C95.0367 308.153 90.5227 303.263 90.5227 294.688C90.5227 286.113 95.0367 281.224 101.105 281.224C107.136 281.224 111.65 286.113 111.65 294.688C111.65 303.263 107.136 308.153 101.105 308.153ZM101.105 304.805C105.138 304.805 107.95 301.421 107.95 294.688C107.95 287.956 105.138 284.571 101.105 284.571C97.0347 284.571 94.2227 287.956 94.2227 294.688C94.2227 301.421 97.0347 304.805 101.105 304.805Z" fill="#292C33"/>
<path d="M155.605 64.0175C160.785 64.5064 163.412 67.4776 163.412 71.5396C163.412 75.9776 160.193 79.5882 153.607 79.5882C149.907 79.5882 146.281 78.3847 144.098 76.3913L145.8 73.4201C147.539 75.075 150.425 76.2409 153.607 76.2409C157.492 76.2409 159.712 74.4356 159.712 71.5772C159.712 68.794 157.751 66.9887 153.311 66.9887H151.239V64.356L157.751 56.2321H145.282V52.96H162.376V55.5175L155.605 64.0175Z" fill="#292C33"/>
<path d="M136.109 105.818H145.618V132.145H141.955V109.09H136.109V105.818ZM161.866 132.446C155.798 132.446 151.284 127.557 151.284 118.982C151.284 110.406 155.798 105.517 161.866 105.517C167.897 105.517 172.411 110.406 172.411 118.982C172.411 127.557 167.897 132.446 161.866 132.446ZM161.866 129.099C165.899 129.099 168.711 125.714 168.711 118.982C168.711 112.249 165.899 108.864 161.866 108.864C157.796 108.864 154.984 112.249 154.984 118.982C154.984 125.714 157.796 129.099 161.866 129.099Z" fill="#292C33"/>
<path d="M136.895 164.692H146.404V191.02H142.741V167.964H136.895V164.692ZM151.404 164.692H170.94V167.25L160.469 191.02H156.547L166.796 167.964H154.956V172.666H151.404V164.692Z" fill="#292C33"/>
<path d="M138.542 246.622H151.825V249.894H133.214V247.337L143.759 236.994C146.497 234.286 147.015 232.631 147.015 230.976C147.015 228.268 145.128 226.613 141.502 226.613C138.727 226.613 136.47 227.516 134.879 229.472L132.363 227.253C134.361 224.733 137.802 223.266 141.835 223.266C147.237 223.266 150.715 226.087 150.715 230.6C150.715 233.158 149.975 235.452 146.46 238.874L138.542 246.622ZM176.713 240.191V243.425H171.792V249.894H168.203V243.425H153.81V240.793L167.056 223.567H171.052L158.361 240.191H168.314V234.474H171.792V240.191H176.713Z" fill="#292C33"/>
<path d="M230.934 69.5838V72.8183H226.013V79.2874H222.424V72.8183H208.031V70.1856L221.277 52.96H225.273L212.582 69.5838H222.535V63.867H226.013V69.5838H230.934Z" fill="#292C33"/>
<path d="M206.102 105.818H215.611V132.145H211.948V109.09H206.102V105.818ZM219.796 105.818H229.305V132.145H225.642V109.09H219.796V105.818Z" fill="#292C33"/>
<path d="M201.043 164.692H210.552V191.02H206.889V167.965H201.043V164.692ZM232.053 177.217C235.013 178.383 236.641 180.564 236.641 183.573C236.641 188.35 232.645 191.321 226.318 191.321C220.028 191.321 216.069 188.35 216.069 183.573C216.069 180.564 217.697 178.345 220.62 177.217C218.252 176.088 216.994 174.133 216.994 171.538C216.994 167.137 220.731 164.392 226.318 164.392C231.942 164.392 235.716 167.137 235.716 171.538C235.716 174.133 234.421 176.088 232.053 177.217ZM226.318 167.438C222.84 167.438 220.657 169.055 220.657 171.688C220.657 174.283 222.766 175.9 226.318 175.9C229.907 175.9 232.09 174.283 232.09 171.688C232.09 169.055 229.796 167.438 226.318 167.438ZM226.318 188.274C230.425 188.274 232.941 186.431 232.941 183.46C232.941 180.564 230.425 178.759 226.318 178.759C222.211 178.759 219.769 180.564 219.769 183.46C219.769 186.431 222.211 188.274 226.318 188.274Z" fill="#292C33"/>
<path d="M204.449 246.622H217.732V249.894H199.121V247.337L209.666 236.994C212.404 234.286 212.922 232.631 212.922 230.976C212.922 228.268 211.035 226.613 207.409 226.613C204.634 226.613 202.377 227.516 200.786 229.472L198.27 227.253C200.268 224.733 203.709 223.266 207.742 223.266C213.144 223.266 216.622 226.087 216.622 230.6C216.622 233.158 215.882 235.452 212.367 238.874L204.449 246.622ZM228.174 234.06C235.907 234.06 238.941 237.332 238.941 241.996C238.941 246.547 235.759 250.195 229.136 250.195C225.473 250.195 221.847 248.992 219.627 246.998L221.329 244.027C223.068 245.682 225.954 246.848 229.099 246.848C233.021 246.848 235.241 245.005 235.241 242.147C235.241 239.175 233.391 237.332 227.397 237.332H221.514L222.883 223.567H237.498V226.839H225.991L225.288 234.06H228.174Z" fill="#292C33"/>
<path d="M281.055 63.4533C288.788 63.4533 291.822 66.7254 291.822 71.3891C291.822 75.94 288.64 79.5882 282.017 79.5882C278.354 79.5882 274.728 78.3847 272.508 76.3913L274.21 73.4201C275.949 75.075 278.835 76.2409 281.98 76.2409C285.902 76.2409 288.122 74.398 288.122 71.5396C288.122 68.5683 286.272 66.7254 280.278 66.7254H274.395L275.764 52.96H290.379V56.2321H278.872L278.169 63.4533H281.055Z" fill="#292C33"/>
<path d="M265.824 105.818H275.333V132.145H271.67V109.09H265.824V105.818ZM285.919 128.873H299.202V132.145H280.591V129.588L291.136 119.245C293.874 116.537 294.392 114.882 294.392 113.227C294.392 110.519 292.505 108.864 288.879 108.864C286.104 108.864 283.847 109.767 282.256 111.723L279.74 109.504C281.738 106.984 285.179 105.517 289.212 105.517C294.614 105.517 298.092 108.338 298.092 112.851C298.092 115.409 297.352 117.703 293.837 121.125L285.919 128.873Z" fill="#292C33"/>
<path d="M265.031 164.692H274.54V191.02H270.877V167.965H265.031V164.692ZM288.604 164.392C295.56 164.392 299.482 169.131 299.482 177.518C299.482 186.507 294.487 191.321 287.235 191.321C284.793 191.321 282.462 190.832 280.797 189.779L282.203 186.845C283.572 187.748 285.311 188.086 287.198 188.086C292.452 188.086 295.782 184.739 295.782 178.157V177.217C294.265 179.511 291.527 180.677 288.308 180.677C283.165 180.677 279.465 177.555 279.465 172.704C279.465 167.626 283.461 164.392 288.604 164.392ZM288.937 177.631C292.489 177.631 294.931 175.412 294.931 172.515C294.931 169.808 292.785 167.438 288.752 167.438C285.385 167.438 283.054 169.431 283.054 172.553C283.054 175.637 285.311 177.631 288.937 177.631Z" fill="#292C33"/>
<path d="M267.21 246.622H280.493V249.894H261.882V247.337L272.427 236.994C275.165 234.286 275.683 232.631 275.683 230.976C275.683 228.268 273.796 226.613 270.17 226.613C267.395 226.613 265.138 227.516 263.547 229.472L261.031 227.253C263.029 224.733 266.47 223.266 270.503 223.266C275.905 223.266 279.383 226.087 279.383 230.6C279.383 233.158 278.643 235.452 275.128 238.874L267.21 246.622ZM294.601 233.91C299.744 233.91 303.481 237.032 303.481 241.883C303.481 246.961 299.448 250.195 294.305 250.195C287.349 250.195 283.427 245.456 283.427 237.069C283.427 228.08 288.422 223.266 295.674 223.266C298.116 223.266 300.447 223.755 302.112 224.808L300.706 227.742C299.374 226.839 297.598 226.501 295.748 226.501C290.494 226.501 287.127 229.848 287.127 236.43C287.127 236.731 287.127 237.032 287.164 237.37C288.644 235.113 291.382 233.91 294.601 233.91ZM294.157 247.149C297.524 247.149 299.892 245.155 299.892 242.034C299.892 238.95 297.598 236.956 293.972 236.956C290.457 236.956 288.015 239.175 288.015 242.071C288.015 244.779 290.161 247.149 294.157 247.149Z" fill="#292C33"/>
<path d="M348.529 63.303C353.672 63.303 357.409 66.4246 357.409 71.2764C357.409 76.3538 353.376 79.5883 348.233 79.5883C341.277 79.5883 337.355 74.8494 337.355 66.4623C337.355 57.4733 342.35 52.6592 349.602 52.6592C352.044 52.6592 354.375 53.1481 356.04 54.2012L354.634 57.1348C353.302 56.2322 351.526 55.8937 349.676 55.8937C344.422 55.8937 341.055 59.241 341.055 65.8229C341.055 66.1238 341.055 66.4246 341.092 66.7631C342.572 64.5065 345.31 63.303 348.529 63.303ZM348.085 76.5419C351.452 76.5419 353.82 74.5485 353.82 71.4268C353.82 68.3428 351.526 66.3494 347.9 66.3494C344.385 66.3494 341.943 68.5684 341.943 71.4645C341.943 74.1724 344.089 76.5419 348.085 76.5419Z" fill="#292C33"/>
<path d="M329.859 105.818H339.368V132.145H335.705V109.09H329.859V105.818ZM354.949 116.875C360.129 117.364 362.756 120.336 362.756 124.397C362.756 128.836 359.537 132.446 352.951 132.446C349.251 132.446 345.625 131.243 343.442 129.249L345.144 126.278C346.883 127.933 349.769 129.099 352.951 129.099C356.836 129.099 359.056 127.294 359.056 124.435C359.056 121.652 357.095 119.847 352.655 119.847H350.583V117.214L357.095 109.09H344.626V105.818H361.72V108.375L354.949 116.875Z" fill="#292C33"/>
<path d="M330.288 187.748H343.571V191.02H324.96V188.462L335.505 178.119C338.243 175.412 338.761 173.757 338.761 172.102C338.761 169.394 336.874 167.739 333.248 167.739C330.473 167.739 328.216 168.642 326.625 170.597L324.109 168.378C326.107 165.858 329.548 164.392 333.581 164.392C338.983 164.392 342.461 167.212 342.461 171.726C342.461 174.283 341.721 176.577 338.206 180L330.288 187.748ZM357.086 191.321C351.018 191.321 346.504 186.431 346.504 177.856C346.504 169.281 351.018 164.392 357.086 164.392C363.117 164.392 367.631 169.281 367.631 177.856C367.631 186.431 363.117 191.321 357.086 191.321ZM357.086 187.973C361.119 187.973 363.931 184.588 363.931 177.856C363.931 171.124 361.119 167.739 357.086 167.739C353.016 167.739 350.204 171.124 350.204 177.856C350.204 184.588 353.016 187.973 357.086 187.973Z" fill="#292C33"/>
<path d="M331.574 246.622H344.857V249.894H326.246V247.337L336.791 236.994C339.529 234.286 340.047 232.631 340.047 230.976C340.047 228.268 338.16 226.613 334.534 226.613C331.759 226.613 329.502 227.516 327.911 229.472L325.395 227.253C327.393 224.733 330.834 223.266 334.867 223.266C340.269 223.266 343.747 226.087 343.747 230.6C343.747 233.158 343.007 235.452 339.492 238.874L331.574 246.622ZM347.124 223.567H366.66V226.125L356.189 249.894H352.267L362.516 226.839H350.676V231.54H347.124V223.567Z" fill="#292C33"/>
<path d="M389.07 105.818H398.579V132.145H394.916V109.09H389.07V105.818ZM426.778 122.442V125.676H421.857V132.145H418.268V125.676H403.875V123.044L417.121 105.818H421.117L408.426 122.442H418.379V116.725H421.857V122.442H426.778Z" fill="#292C33"/>
<path d="M397.23 187.748H410.513V191.02H391.902V188.462L402.447 178.119C405.185 175.412 405.703 173.757 405.703 172.102C405.703 169.394 403.816 167.739 400.19 167.739C397.415 167.739 395.158 168.642 393.567 170.597L391.051 168.378C393.049 165.858 396.49 164.392 400.523 164.392C405.925 164.392 409.403 167.212 409.403 171.726C409.403 174.283 408.663 176.577 405.148 180L397.23 187.748ZM412.075 164.692H421.584V191.02H417.921V167.965H412.075V164.692Z" fill="#292C33"/>
<path d="M391.667 246.622H404.95V249.894H386.339V247.337L396.884 236.994C399.622 234.286 400.14 232.631 400.14 230.976C400.14 228.268 398.253 226.613 394.627 226.613C391.852 226.613 389.595 227.516 388.004 229.472L385.488 227.253C387.486 224.733 390.927 223.266 394.96 223.266C400.362 223.266 403.84 226.087 403.84 230.6C403.84 233.158 403.1 235.452 399.585 238.874L391.667 246.622ZM423.828 236.091C426.788 237.257 428.416 239.439 428.416 242.447C428.416 247.224 424.42 250.195 418.093 250.195C411.803 250.195 407.844 247.224 407.844 242.447C407.844 239.439 409.472 237.22 412.395 236.091C410.027 234.963 408.769 233.007 408.769 230.412C408.769 226.012 412.506 223.266 418.093 223.266C423.717 223.266 427.491 226.012 427.491 230.412C427.491 233.007 426.196 234.963 423.828 236.091ZM418.093 226.313C414.615 226.313 412.432 227.93 412.432 230.563C412.432 233.158 414.541 234.775 418.093 234.775C421.682 234.775 423.865 233.158 423.865 230.563C423.865 227.93 421.571 226.313 418.093 226.313ZM418.093 247.149C422.2 247.149 424.716 245.306 424.716 242.335C424.716 239.439 422.2 237.633 418.093 237.633C413.986 237.633 411.544 239.439 411.544 242.335C411.544 245.306 413.986 247.149 418.093 247.149Z" fill="#292C33"/>
<path d="M398.055 52.96H417.591V55.5175L407.12 79.2874H403.198L413.447 56.2321H401.607V60.9334H398.055V52.96Z" fill="#292C33"/>
</svg>
