<svg width="431" height="366" viewBox="0 0 431 366" fill="none" xmlns="http://www.w3.org/2000/svg">
<g clip-path="url(#clip0_532_3207)">
<rect width="57" height="47" transform="translate(63 96)" fill="#E4793D"/>
<rect width="57" height="47" transform="translate(126 96)" fill="#E4793D"/>
<rect width="57" height="47" transform="translate(189 96)" fill="#E4793D"/>
<rect width="57" height="47" transform="translate(252 96)" fill="#E4793D"/>
<rect width="57" height="47" transform="translate(314 96)" fill="#E4793D"/>
<rect width="57" height="47" transform="translate(127 264)" fill="#3C78EC"/>
<path d="M22.9564 20.7264H20.3476V3.36139H10.8906V20.7264H8.2002V1.32324H22.8749V20.7264H22.9564Z" fill="#B3B3B3"/>
<path d="M38.7725 20.7264H36.1636V14.6119H29.7231V20.7264H27.1143V6.29626H29.7231V12.5738H36.1636V6.29626H38.7725V20.7264Z" fill="#B3B3B3"/>
<path d="M73 20.7264V1.32324H79.359C81.3972 1.32324 82.9462 1.73087 84.0875 2.62766C85.2289 3.52444 85.7996 4.82886 85.7996 6.5409C85.7996 7.35616 85.555 8.08989 85.0658 8.82363C84.5767 9.55736 83.8429 9.96499 83.0277 10.2911C84.3321 10.4541 85.3104 11.0248 86.0441 11.9216C86.7779 12.8184 87.1855 13.9598 87.1855 15.1826C87.1855 16.9762 86.6148 18.2806 85.4735 19.2589C84.3321 20.2373 82.7831 20.6449 80.745 20.6449H73V20.7264ZM75.6904 9.55736H79.9297C80.908 9.55736 81.7233 9.31278 82.294 8.7421C82.9462 8.17142 83.1907 7.43769 83.1907 6.45937C83.1907 5.39954 82.8646 4.6658 82.2124 4.09512C81.5602 3.60597 80.5819 3.27986 79.359 3.27986H75.6904V9.55736ZM75.6904 11.5955V18.6067H80.745C81.9678 18.6067 82.8646 18.2806 83.5168 17.71C84.1691 17.1393 84.4952 16.2425 84.4952 15.1826C84.4952 14.1228 84.1691 13.226 83.5168 12.5738C82.8646 11.9216 81.9678 11.5955 80.745 11.514H80.5819H75.6904V11.5955Z" fill="#B3B3B3"/>
<path d="M101.126 8.33441H96.3976V20.7264H93.7888V8.33441H89.0603V6.29626H101.126V8.33441Z" fill="#B3B3B3"/>
<path d="M150.512 14.5304C150.593 16.4055 149.941 17.9545 148.637 19.1773C147.332 20.4002 145.62 21.0524 143.419 21.0524C141.218 21.0524 139.424 20.2372 138.038 18.6882C136.652 17.1392 136 15.1826 136 12.7368V9.31271C136 6.94846 136.652 4.91031 138.038 3.36132C139.424 1.81233 141.218 0.99707 143.419 0.99707C145.62 0.99707 147.332 1.56775 148.637 2.70911C149.941 3.85048 150.593 5.39947 150.512 7.35609V7.43762H147.984C147.984 6.05168 147.577 4.99184 146.761 4.17658C145.946 3.36132 144.805 2.95369 143.337 2.95369C141.87 2.95369 140.729 3.52437 139.832 4.74726C138.935 5.88862 138.527 7.35609 138.527 9.14966V12.6553C138.527 14.4488 138.935 15.9163 139.832 17.0577C140.729 18.199 141.87 18.8512 143.337 18.8512C144.805 18.8512 145.946 18.4436 146.761 17.7099C147.577 16.8946 147.984 15.8348 147.984 14.4488H150.512V14.5304Z" fill="#B3B3B3"/>
<path d="M165.92 14.0413C165.92 16.161 165.431 17.7915 164.453 19.0959C163.474 20.4003 162.088 20.971 160.295 20.971C159.398 20.971 158.664 20.8079 157.93 20.5634C157.278 20.2373 156.708 19.8296 156.218 19.259V26.2702H153.61V6.29634H155.648L156.055 8.17143C156.545 7.4377 157.115 6.94854 157.849 6.62244C158.583 6.29634 159.398 6.05176 160.295 6.05176C162.088 6.05176 163.474 6.78549 164.453 8.17143C165.431 9.55737 165.92 11.4325 165.92 13.7967V14.0413ZM163.311 13.7967C163.311 12.1662 162.985 10.7803 162.333 9.80195C161.681 8.82364 160.702 8.25296 159.479 8.25296C158.746 8.25296 158.094 8.41601 157.523 8.74211C156.952 9.06822 156.545 9.55737 156.218 10.1281V17.1393C156.545 17.71 156.952 18.1991 157.523 18.5252C158.094 18.8513 158.746 19.0144 159.479 19.0144C160.702 19.0144 161.681 18.5252 162.333 17.6284C162.985 16.7317 163.311 15.5088 163.311 14.1228V13.7967Z" fill="#B3B3B3"/>
<path d="M215.43 1.32324V20.7264H212.821V12.6553C212.006 12.8999 211.191 13.063 210.375 13.226C209.56 13.3076 208.663 13.3891 207.522 13.3891C205.402 13.3891 203.772 12.8999 202.631 12.0031C201.489 11.1064 201 9.55736 201 7.43769V1.32324H203.609V7.43769C203.609 8.90515 203.935 9.88346 204.506 10.4541C205.158 11.0248 206.136 11.2694 207.441 11.2694C208.337 11.2694 209.234 11.1879 210.131 11.1064C210.946 10.9433 211.843 10.7802 212.74 10.5357V1.32324H215.43Z" fill="#B3B3B3"/>
<path d="M230.675 8.33441H225.947V20.7264H223.338V8.33441H218.61V6.29626H230.675V8.33441Z" fill="#B3B3B3"/>
<path d="M279.675 20.7264H277.066V3.36139H267.609V20.7264H265V1.32324H279.675V20.7264Z" fill="#B3B3B3"/>
<path d="M294.92 8.33453H290.192V20.7265H287.583V8.33453H282.854V6.29639H294.92V8.33453Z" fill="#B3B3B3"/>
<path d="M344.512 14.5302C344.593 16.4053 343.941 17.9543 342.637 19.1772C341.332 20.4001 339.62 21.0523 337.419 21.0523C335.218 21.0523 333.424 20.237 332.038 18.688C330.652 17.139 330 15.1824 330 12.7366V9.31253C330 6.94828 330.652 4.91013 332.038 3.36114C333.424 1.81215 335.218 0.996887 337.419 0.996887C339.62 0.996887 341.332 1.56757 342.637 2.70893C343.941 3.85029 344.593 5.39929 344.512 7.35591V7.43743H341.984C341.984 6.05149 341.577 4.99166 340.761 4.1764C339.946 3.36114 338.805 2.95351 337.337 2.95351C335.87 2.95351 334.729 3.52419 333.832 4.74708C332.935 5.88844 332.527 7.35591 332.527 9.14948V12.6551C332.527 14.4487 332.935 15.9161 333.832 17.0575C334.729 18.1989 335.87 18.8511 337.337 18.8511C338.805 18.8511 339.946 18.4434 340.761 17.7097C341.577 16.8944 341.984 15.8346 341.984 14.4487H344.512V14.5302Z" fill="#B3B3B3"/>
<path d="M353.887 6.05149C355.762 6.05149 357.148 6.7037 358.208 8.08964C359.268 9.47558 359.838 11.1876 359.838 13.3888V13.7149C359.838 15.8346 359.268 17.6282 358.126 19.0141C356.985 20.4 355.436 21.0523 353.398 21.0523C351.36 21.0523 349.811 20.4 348.669 19.0141C347.528 17.6282 346.957 15.9161 346.957 13.7149V13.3888C346.957 13.3073 346.957 13.2258 346.957 13.2258C346.957 13.1442 346.957 13.1442 346.957 13.0627V9.96473C346.957 7.19285 347.528 5.23623 348.588 3.93182C349.648 2.6274 351.278 1.97519 353.398 1.81214C354.621 1.73062 355.599 1.56756 356.251 1.32299C356.903 1.07841 357.23 0.670779 357.23 0.100098H359.268V0.181624C359.349 1.56756 358.86 2.54587 357.882 3.11656C356.903 3.68724 355.517 4.01334 353.642 4.01334C352.256 4.01334 351.197 4.42097 350.381 5.1547C349.566 5.88844 349.158 6.94827 349.158 8.33421V8.41574C349.648 7.76353 350.381 7.19285 351.197 6.78522C352.012 6.37759 352.99 6.05149 353.887 6.05149ZM353.398 8.08964C352.175 8.08964 351.197 8.57879 350.544 9.5571C349.892 10.5354 349.566 11.8398 349.566 13.3073V13.6334C349.566 15.1824 349.892 16.4053 350.544 17.3836C351.197 18.3619 352.175 18.8511 353.398 18.8511C354.621 18.8511 355.599 18.3619 356.251 17.3836C356.903 16.4053 357.23 15.1009 357.23 13.6334V13.3073C357.23 11.7583 356.903 10.5354 356.251 9.5571C355.599 8.57879 354.621 8.08964 353.398 8.08964Z" fill="#B3B3B3"/>
<path d="M394 20.7264V1.32324H400.359C402.397 1.32324 403.946 1.73087 405.088 2.62766C406.229 3.52444 406.8 4.82886 406.8 6.5409C406.8 7.35616 406.555 8.08989 406.066 8.82363C405.577 9.55736 404.843 9.96499 404.028 10.3726C405.332 10.5357 406.31 11.1064 407.044 12.0031C407.778 12.8999 408.186 14.0413 408.186 15.2642C408.186 17.0577 407.615 18.3622 406.473 19.3405C405.332 20.3188 403.783 20.7264 401.745 20.7264H394ZM396.69 9.55736H400.93C401.908 9.55736 402.723 9.31278 403.294 8.7421C403.946 8.17142 404.191 7.43769 404.191 6.45937C404.191 5.39954 403.865 4.6658 403.212 4.09512C402.56 3.60597 401.582 3.27986 400.359 3.27986H396.69V9.55736ZM396.69 11.5955V18.6067H401.745C402.968 18.6067 403.865 18.2806 404.517 17.71C405.169 17.1393 405.495 16.2425 405.495 15.1826C405.495 14.1228 405.169 13.226 404.517 12.5738C403.865 11.9216 402.968 11.5955 401.745 11.514H401.582H396.69V11.5955Z" fill="#B3B3B3"/>
<path d="M416.745 18.9326C417.561 18.9326 418.294 18.688 418.865 18.1173C419.436 17.5466 419.762 16.8944 419.762 16.1607H422.126V16.2422C422.126 17.4651 421.637 18.6065 420.496 19.5848C419.354 20.5631 418.131 21.0522 416.664 21.0522C414.626 21.0522 413.077 20.4 411.935 19.0141C410.794 17.6281 410.305 15.9161 410.305 13.878V13.3073C410.305 11.2691 410.876 9.55708 411.935 8.17114C413.077 6.7852 414.626 6.133 416.582 6.133C418.213 6.133 419.517 6.62215 420.496 7.60046C421.474 8.57877 422.045 9.80166 421.963 11.2691V11.3507H419.599C419.599 10.4539 419.273 9.72014 418.702 9.06793C418.131 8.41572 417.398 8.17114 416.501 8.17114C415.196 8.17114 414.3 8.6603 413.647 9.63861C413.077 10.6169 412.751 11.8398 412.751 13.3073V13.878C412.751 15.3454 413.077 16.5683 413.647 17.5466C414.544 18.4434 415.441 18.9326 416.745 18.9326Z" fill="#B3B3B3"/>
<path d="M412.718 118.421C415.678 119.568 417.306 121.714 417.306 124.674C417.306 129.373 413.31 132.296 406.983 132.296C400.693 132.296 396.734 129.373 396.734 124.674C396.734 121.714 398.362 119.531 401.285 118.421C398.917 117.311 397.659 115.387 397.659 112.834C397.659 108.505 401.396 105.804 406.983 105.804C412.607 105.804 416.381 108.505 416.381 112.834C416.381 115.387 415.086 117.311 412.718 118.421ZM406.983 108.801C403.505 108.801 401.322 110.392 401.322 112.982C401.322 115.535 403.431 117.126 406.983 117.126C410.572 117.126 412.755 115.535 412.755 112.982C412.755 110.392 410.461 108.801 406.983 108.801ZM406.983 129.299C411.09 129.299 413.606 127.486 413.606 124.563C413.606 121.714 411.09 119.938 406.983 119.938C402.876 119.938 400.434 121.714 400.434 124.563C400.434 127.486 402.876 129.299 406.983 129.299Z" fill="#292C33"/>
<path d="M389.838 159.965H399.347V185.865H395.684V163.184H389.838V159.965ZM412.412 170.288C420.145 170.288 423.179 173.507 423.179 178.095C423.179 182.572 419.997 186.161 413.374 186.161C409.711 186.161 406.085 184.977 403.865 183.016L405.567 180.093C407.306 181.721 410.192 182.868 413.337 182.868C417.259 182.868 419.479 181.055 419.479 178.243C419.479 175.32 417.629 173.507 411.635 173.507H405.752L407.121 159.965H421.736V163.184H410.229L409.526 170.288H412.412Z" fill="#292C33"/>
<path d="M392.463 241.781H405.746V245H387.135V242.484L397.68 232.309C400.418 229.645 400.936 228.017 400.936 226.389C400.936 223.725 399.049 222.097 395.423 222.097C392.648 222.097 390.391 222.985 388.8 224.909L386.284 222.726C388.282 220.247 391.723 218.804 395.756 218.804C401.158 218.804 404.636 221.579 404.636 226.019C404.636 228.535 403.896 230.792 400.381 234.159L392.463 241.781ZM413.709 241.781H426.992V245H408.381V242.484L418.926 232.309C421.664 229.645 422.182 228.017 422.182 226.389C422.182 223.725 420.295 222.097 416.669 222.097C413.894 222.097 411.637 222.985 410.046 224.909L407.53 222.726C409.528 220.247 412.969 218.804 417.002 218.804C422.404 218.804 425.882 221.579 425.882 226.019C425.882 228.535 425.142 230.792 421.627 234.159L413.709 241.781Z" fill="#292C33"/>
<path d="M391.668 298.578H404.951V301.797H386.34V299.281L396.885 289.106C399.623 286.442 400.141 284.814 400.141 283.186C400.141 280.522 398.254 278.894 394.628 278.894C391.853 278.894 389.596 279.782 388.005 281.706L385.489 279.523C387.487 277.044 390.928 275.601 394.961 275.601C400.363 275.601 403.841 278.376 403.841 282.816C403.841 285.332 403.101 287.589 399.586 290.956L391.668 298.578ZM416.392 275.601C423.348 275.601 427.27 280.263 427.27 288.514C427.27 297.357 422.275 302.093 415.023 302.093C412.581 302.093 410.25 301.612 408.585 300.576L409.991 297.69C411.36 298.578 413.099 298.911 414.986 298.911C420.24 298.911 423.57 295.618 423.57 289.143V288.218C422.053 290.475 419.315 291.622 416.096 291.622C410.953 291.622 407.253 288.551 407.253 283.778C407.253 278.783 411.249 275.601 416.392 275.601ZM416.725 288.625C420.277 288.625 422.719 286.442 422.719 283.593C422.719 280.929 420.573 278.598 416.54 278.598C413.173 278.598 410.842 280.559 410.842 283.63C410.842 286.664 413.099 288.625 416.725 288.625Z" fill="#292C33"/>
<path d="M18.574 128.781H31.857V132H13.246V129.484L23.791 119.309C26.529 116.645 27.047 115.017 27.047 113.389C27.047 110.725 25.16 109.097 21.534 109.097C18.759 109.097 16.502 109.985 14.911 111.909L12.395 109.726C14.393 107.247 17.834 105.804 21.867 105.804C27.269 105.804 30.747 108.579 30.747 113.019C30.747 115.535 30.007 117.792 26.492 121.159L18.574 128.781Z" fill="#292C33"/>
<path d="M21.257 159.669C28.213 159.669 32.135 164.331 32.135 172.582C32.135 181.425 27.14 186.161 19.888 186.161C17.446 186.161 15.115 185.68 13.45 184.644L14.856 181.758C16.225 182.646 17.964 182.979 19.851 182.979C25.105 182.979 28.435 179.686 28.435 173.211V172.286C26.918 174.543 24.18 175.69 20.961 175.69C15.818 175.69 12.118 172.619 12.118 167.846C12.118 162.851 16.114 159.669 21.257 159.669ZM21.59 172.693C25.142 172.693 27.584 170.51 27.584 167.661C27.584 164.997 25.438 162.666 21.405 162.666C18.038 162.666 15.707 164.627 15.707 167.698C15.707 170.732 17.964 172.693 21.59 172.693Z" fill="#292C33"/>
<path d="M10.3769 245V220.58L11.9679 222.319H4.53086V219.1H14.0399V245H10.3769ZM30.5832 245.296C28.2892 245.296 26.3282 244.79 24.7002 243.779C23.0722 242.768 21.8265 241.312 20.9632 239.413C20.1245 237.489 19.7052 235.146 19.7052 232.383C19.7052 229.448 20.2232 226.969 21.2592 224.946C22.2952 222.923 23.7382 221.394 25.5882 220.358C27.4382 219.322 29.5595 218.804 31.9522 218.804C33.1855 218.804 34.3572 218.927 35.4672 219.174C36.6019 219.421 37.5762 219.803 38.3902 220.321L36.9842 223.207C36.3182 222.738 35.5535 222.418 34.6902 222.245C33.8515 222.072 32.9635 221.986 32.0262 221.986C29.3869 221.986 27.2902 222.812 25.7362 224.465C24.1822 226.093 23.4052 228.523 23.4052 231.754C23.4052 232.272 23.4299 232.889 23.4792 233.604C23.5285 234.319 23.6519 235.022 23.8492 235.713L22.5912 234.455C22.9612 233.32 23.5409 232.371 24.3302 231.606C25.1442 230.817 26.1062 230.237 27.2162 229.867C28.3509 229.472 29.5719 229.275 30.8792 229.275C32.6059 229.275 34.1352 229.596 35.4672 230.237C36.7992 230.878 37.8475 231.791 38.6122 232.975C39.3769 234.134 39.7592 235.516 39.7592 237.119C39.7592 238.772 39.3522 240.215 38.5382 241.448C37.7242 242.681 36.6265 243.631 35.2452 244.297C33.8639 244.963 32.3099 245.296 30.5832 245.296ZM30.4352 242.299C31.5699 242.299 32.5565 242.089 33.3952 241.67C34.2585 241.251 34.9369 240.671 35.4302 239.931C35.9235 239.166 36.1702 238.278 36.1702 237.267C36.1702 235.738 35.6399 234.529 34.5792 233.641C33.5185 232.728 32.0755 232.272 30.2502 232.272C29.0662 232.272 28.0302 232.494 27.1422 232.938C26.2542 233.382 25.5512 233.986 25.0332 234.751C24.5399 235.491 24.2932 236.342 24.2932 237.304C24.2932 238.192 24.5275 239.018 24.9962 239.783C25.4649 240.523 26.1555 241.127 27.0682 241.596C27.9809 242.065 29.1032 242.299 30.4352 242.299Z" fill="#292C33"/>
<path d="M7.98704 298.578H21.27V301.797H2.65904V299.281L13.204 289.106C15.942 286.442 16.46 284.814 16.46 283.186C16.46 280.522 14.573 278.894 10.947 278.894C8.17204 278.894 5.91504 279.782 4.32404 281.706L1.80804 279.523C3.80604 277.044 7.24704 275.601 11.28 275.601C16.682 275.601 20.16 278.376 20.16 282.816C20.16 285.332 19.42 287.589 15.905 290.956L7.98704 298.578ZM34.2281 286.775C39.4081 287.256 42.0351 290.179 42.0351 294.175C42.0351 298.541 38.8161 302.093 32.2301 302.093C28.5301 302.093 24.9041 300.909 22.7211 298.948L24.4231 296.025C26.1621 297.653 29.0481 298.8 32.2301 298.8C36.1151 298.8 38.3351 297.024 38.3351 294.212C38.3351 291.474 36.3741 289.698 31.9341 289.698H29.8621V287.108L36.3741 279.116H23.9051V275.897H40.9991V278.413L34.2281 286.775Z" fill="#292C33"/>
<path d="M11.2657 343.978C16.4457 344.459 19.0727 347.382 19.0727 351.378C19.0727 355.744 15.8537 359.296 9.26773 359.296C5.56773 359.296 1.94173 358.112 -0.24127 356.151L1.46073 353.228C3.19973 354.856 6.08573 356.003 9.26773 356.003C13.1527 356.003 15.3727 354.227 15.3727 351.415C15.3727 348.677 13.4117 346.901 8.97173 346.901H6.89973V344.311L13.4117 336.319H0.94273V333.1H18.0367V335.616L11.2657 343.978ZM33.1056 359.296C27.0376 359.296 22.5236 354.486 22.5236 346.05C22.5236 337.614 27.0376 332.804 33.1056 332.804C39.1366 332.804 43.6506 337.614 43.6506 346.05C43.6506 354.486 39.1366 359.296 33.1056 359.296ZM33.1056 356.003C37.1386 356.003 39.9506 352.673 39.9506 346.05C39.9506 339.427 37.1386 336.097 33.1056 336.097C29.0356 336.097 26.2236 339.427 26.2236 346.05C26.2236 352.673 29.0356 356.003 33.1056 356.003Z" fill="#292C33"/>
<path d="M87.6071 132.296C85.7818 132.296 84.0058 132.012 82.2791 131.445C80.5771 130.878 79.1834 130.113 78.0981 129.151L79.8001 126.228C80.6634 127.042 81.7858 127.708 83.1671 128.226C84.5484 128.744 86.0284 129.003 87.6071 129.003C89.5311 129.003 91.0234 128.596 92.0841 127.782C93.1694 126.943 93.7121 125.821 93.7121 124.415C93.7121 123.058 93.1941 121.973 92.1581 121.159C91.1468 120.32 89.5311 119.901 87.3111 119.901H85.2391V117.311L92.9351 107.839L93.4531 109.319H79.2821V106.1H96.3761V108.616L88.7171 118.051L86.7931 116.904H88.0141C91.1468 116.904 93.4901 117.607 95.0441 119.013C96.6228 120.419 97.4121 122.207 97.4121 124.378C97.4121 125.833 97.0544 127.165 96.3391 128.374C95.6238 129.583 94.5384 130.545 93.0831 131.26C91.6524 131.951 89.8271 132.296 87.6071 132.296Z" fill="white"/>
<path d="M69.6095 159.965H79.1185V185.865H75.4555V163.184H69.6095V159.965ZM95.3658 186.161C89.2978 186.161 84.7838 181.351 84.7838 172.915C84.7838 164.479 89.2978 159.669 95.3658 159.669C101.397 159.669 105.911 164.479 105.911 172.915C105.911 181.351 101.397 186.161 95.3658 186.161ZM95.3658 182.868C99.3988 182.868 102.211 179.538 102.211 172.915C102.211 166.292 99.3988 162.962 95.3658 162.962C91.2958 162.962 88.4838 166.292 88.4838 172.915C88.4838 179.538 91.2958 182.868 95.3658 182.868Z" fill="#292C33"/>
<path d="M76.7382 245V220.58L78.3292 222.319H70.8922V219.1H80.4012V245H76.7382ZM90.5435 245L101.533 220.654L102.495 222.319H87.1025L88.9525 220.506V226.944H85.4005V219.1H104.937V221.616L94.4655 245H90.5435Z" fill="#292C33"/>
<path d="M72.5417 298.578H85.8247V301.797H67.2137V299.281L77.7587 289.106C80.4967 286.442 81.0147 284.814 81.0147 283.186C81.0147 280.522 79.1277 278.894 75.5017 278.894C72.7267 278.894 70.4697 279.782 68.8787 281.706L66.3627 279.523C68.3607 277.044 71.8017 275.601 75.8347 275.601C81.2367 275.601 84.7147 278.376 84.7147 282.816C84.7147 285.332 83.9747 287.589 80.4597 290.956L72.5417 298.578ZM110.713 292.251V295.433H105.792V301.797H102.203V295.433H87.8103V292.843L101.056 275.897H105.052L92.3613 292.251H102.314V286.627H105.792V292.251H110.713Z" fill="#292C33"/>
<path d="M80.7599 359.296C78.9346 359.296 77.1586 359.012 75.4319 358.445C73.7299 357.878 72.3363 357.113 71.2509 356.151L72.9529 353.228C73.8163 354.042 74.9386 354.708 76.3199 355.226C77.7013 355.744 79.1813 356.003 80.7599 356.003C82.6839 356.003 84.1763 355.596 85.2369 354.782C86.3223 353.943 86.8649 352.821 86.8649 351.415C86.8649 350.058 86.3469 348.973 85.3109 348.159C84.2996 347.32 82.6839 346.901 80.4639 346.901H78.3919V344.311L86.0879 334.839L86.6059 336.319H72.4349V333.1H89.5289V335.616L81.8699 345.051L79.9459 343.904H81.1669C84.2996 343.904 86.6429 344.607 88.1969 346.013C89.7756 347.419 90.5649 349.207 90.5649 351.378C90.5649 352.833 90.2073 354.165 89.4919 355.374C88.7766 356.583 87.6913 357.545 86.2359 358.26C84.8053 358.951 82.9799 359.296 80.7599 359.296ZM98.3817 359V334.58L99.9727 336.319H92.5357V333.1H102.045V359H98.3817Z" fill="#292C33"/>
<path d="M143.531 125.636V123.046L156.777 106.1H160.773L147.638 123.046L145.751 122.454H166.434V125.636H143.531ZM157.924 132V125.636L158.035 122.454V116.83H161.513V132H157.924Z" fill="white"/>
<path d="M141.102 159.965H150.611V185.865H146.948V163.184H141.102V159.965ZM154.796 159.965H164.305V185.865H160.642V163.184H154.796V159.965Z" fill="#292C33"/>
<path d="M141.889 245V220.58L143.48 222.319H136.043V219.1H145.552V245H141.889ZM161.318 245.296C159.222 245.296 157.409 244.988 155.879 244.371C154.35 243.754 153.166 242.879 152.327 241.744C151.489 240.585 151.069 239.228 151.069 237.674C151.069 236.145 151.464 234.85 152.253 233.789C153.067 232.704 154.239 231.89 155.768 231.347C157.298 230.78 159.148 230.496 161.318 230.496C163.489 230.496 165.339 230.78 166.868 231.347C168.422 231.89 169.606 232.704 170.42 233.789C171.234 234.874 171.641 236.169 171.641 237.674C171.641 239.228 171.222 240.585 170.383 241.744C169.545 242.879 168.348 243.754 166.794 244.371C165.24 244.988 163.415 245.296 161.318 245.296ZM161.318 242.299C163.39 242.299 165.006 241.88 166.165 241.041C167.349 240.178 167.941 239.018 167.941 237.563C167.941 236.132 167.349 235.01 166.165 234.196C165.006 233.357 163.39 232.938 161.318 232.938C159.271 232.938 157.668 233.357 156.508 234.196C155.349 235.01 154.769 236.132 154.769 237.563C154.769 239.018 155.349 240.178 156.508 241.041C157.668 241.88 159.271 242.299 161.318 242.299ZM161.318 232.494C159.345 232.494 157.668 232.235 156.286 231.717C154.905 231.174 153.844 230.41 153.104 229.423C152.364 228.412 151.994 227.215 151.994 225.834C151.994 224.379 152.377 223.133 153.141 222.097C153.931 221.036 155.028 220.222 156.434 219.655C157.84 219.088 159.468 218.804 161.318 218.804C163.193 218.804 164.833 219.088 166.239 219.655C167.645 220.222 168.743 221.036 169.532 222.097C170.322 223.133 170.716 224.379 170.716 225.834C170.716 227.215 170.346 228.412 169.606 229.423C168.866 230.41 167.793 231.174 166.387 231.717C164.981 232.235 163.292 232.494 161.318 232.494ZM161.318 230.126C163.119 230.126 164.525 229.756 165.536 229.016C166.572 228.276 167.09 227.265 167.09 225.982C167.09 224.675 166.56 223.651 165.499 222.911C164.439 222.171 163.045 221.801 161.318 221.801C159.592 221.801 158.21 222.171 157.174 222.911C156.163 223.651 155.657 224.675 155.657 225.982C155.657 227.265 156.151 228.276 157.137 229.016C158.149 229.756 159.542 230.126 161.318 230.126Z" fill="#292C33"/>
<path d="M134.623 301.797V299.281L145.168 289.106C146.105 288.218 146.796 287.441 147.24 286.775C147.709 286.085 148.017 285.456 148.165 284.888C148.338 284.296 148.424 283.729 148.424 283.186C148.424 281.854 147.955 280.806 147.018 280.041C146.081 279.277 144.712 278.894 142.911 278.894C141.53 278.894 140.284 279.129 139.174 279.597C138.064 280.041 137.102 280.744 136.288 281.706L133.772 279.523C134.759 278.265 136.078 277.303 137.731 276.637C139.408 275.947 141.246 275.601 143.244 275.601C145.045 275.601 146.611 275.897 147.943 276.489C149.275 277.057 150.299 277.883 151.014 278.968C151.754 280.054 152.124 281.336 152.124 282.816C152.124 283.655 152.013 284.481 151.791 285.295C151.569 286.109 151.15 286.973 150.533 287.885C149.916 288.798 149.028 289.822 147.869 290.956L138.471 300.021L137.583 298.578H153.234V301.797H134.623ZM164.638 302.093C162.813 302.093 161.037 301.81 159.31 301.242C157.608 300.675 156.214 299.91 155.129 298.948L156.831 296.025C157.694 296.839 158.817 297.505 160.198 298.023C161.579 298.541 163.047 298.8 164.601 298.8C166.574 298.8 168.091 298.381 169.152 297.542C170.213 296.704 170.743 295.581 170.743 294.175C170.743 293.213 170.509 292.375 170.04 291.659C169.571 290.944 168.757 290.401 167.598 290.031C166.463 289.637 164.897 289.439 162.899 289.439H157.016L158.385 275.897H173V279.116H159.754L161.678 277.303L160.605 287.996L158.681 286.22H163.676C166.266 286.22 168.35 286.553 169.929 287.219C171.508 287.885 172.655 288.81 173.37 289.994C174.085 291.154 174.443 292.498 174.443 294.027C174.443 295.507 174.085 296.864 173.37 298.097C172.655 299.306 171.569 300.28 170.114 301.02C168.683 301.736 166.858 302.093 164.638 302.093Z" fill="white"/>
<path d="M219.015 132.296C217.19 132.296 215.414 132.012 213.687 131.445C211.985 130.878 210.591 130.113 209.506 129.151L211.208 126.228C212.071 127.042 213.194 127.708 214.575 128.226C215.956 128.744 217.424 129.003 218.978 129.003C220.951 129.003 222.468 128.584 223.529 127.745C224.59 126.906 225.12 125.784 225.12 124.378C225.12 123.416 224.886 122.577 224.417 121.862C223.948 121.147 223.134 120.604 221.975 120.234C220.84 119.839 219.274 119.642 217.276 119.642H211.393L212.762 106.1H227.377V109.319H214.131L216.055 107.506L214.982 118.199L213.058 116.423H218.053C220.643 116.423 222.727 116.756 224.306 117.422C225.885 118.088 227.032 119.013 227.747 120.197C228.462 121.356 228.82 122.701 228.82 124.23C228.82 125.71 228.462 127.067 227.747 128.3C227.032 129.509 225.946 130.483 224.491 131.223C223.06 131.938 221.235 132.296 219.015 132.296Z" fill="white"/>
<path d="M202.326 159.965H211.835V185.865H208.172V163.184H202.326V159.965ZM222.421 182.646H235.704V185.865H217.093V183.349L227.638 173.174C230.376 170.51 230.894 168.882 230.894 167.254C230.894 164.59 229.007 162.962 225.381 162.962C222.606 162.962 220.349 163.85 218.758 165.774L216.242 163.591C218.24 161.112 221.681 159.669 225.714 159.669C231.116 159.669 234.594 162.444 234.594 166.884C234.594 169.4 233.854 171.657 230.339 175.024L222.421 182.646Z" fill="#292C33"/>
<path d="M207.377 245V220.58L208.968 222.319H201.531V219.1H211.04V245H207.377ZM225.104 218.804C227.448 218.804 229.421 219.31 231.024 220.321C232.652 221.332 233.886 222.8 234.724 224.724C235.563 226.623 235.982 228.954 235.982 231.717C235.982 234.652 235.464 237.131 234.428 239.154C233.392 241.177 231.962 242.706 230.136 243.742C228.311 244.778 226.177 245.296 223.735 245.296C222.527 245.296 221.355 245.173 220.22 244.926C219.11 244.679 218.136 244.297 217.297 243.779L218.703 240.893C219.394 241.337 220.159 241.658 220.997 241.855C221.861 242.028 222.761 242.114 223.698 242.114C226.313 242.114 228.397 241.3 229.951 239.672C231.505 238.019 232.282 235.577 232.282 232.346C232.282 231.828 232.258 231.211 232.208 230.496C232.159 229.781 232.048 229.078 231.875 228.387L233.096 229.645C232.751 230.78 232.171 231.742 231.357 232.531C230.568 233.296 229.606 233.875 228.471 234.27C227.361 234.64 226.14 234.825 224.808 234.825C223.106 234.825 221.589 234.504 220.257 233.863C218.925 233.222 217.877 232.321 217.112 231.162C216.348 229.978 215.965 228.584 215.965 226.981C215.965 225.304 216.36 223.861 217.149 222.652C217.963 221.419 219.061 220.469 220.442 219.803C221.848 219.137 223.402 218.804 225.104 218.804ZM225.252 221.801C224.142 221.801 223.156 222.011 222.292 222.43C221.429 222.849 220.751 223.429 220.257 224.169C219.789 224.909 219.554 225.797 219.554 226.833C219.554 228.362 220.085 229.583 221.145 230.496C222.206 231.384 223.637 231.828 225.437 231.828C226.621 231.828 227.657 231.606 228.545 231.162C229.458 230.718 230.161 230.114 230.654 229.349C231.172 228.584 231.431 227.733 231.431 226.796C231.431 225.883 231.197 225.057 230.728 224.317C230.26 223.577 229.569 222.973 228.656 222.504C227.744 222.035 226.609 221.801 225.252 221.801Z" fill="#292C33"/>
<path d="M204.21 298.578H217.493V301.797H198.882V299.281L209.427 289.106C212.165 286.442 212.683 284.814 212.683 283.186C212.683 280.522 210.796 278.894 207.17 278.894C204.395 278.894 202.138 279.782 200.547 281.706L198.031 279.523C200.029 277.044 203.47 275.601 207.503 275.601C212.905 275.601 216.383 278.376 216.383 282.816C216.383 285.332 215.643 287.589 212.128 290.956L204.21 298.578ZM231.601 286.072C236.744 286.072 240.481 289.143 240.481 293.916C240.481 298.911 236.448 302.093 231.305 302.093C224.349 302.093 220.427 297.431 220.427 289.18C220.427 280.337 225.422 275.601 232.674 275.601C235.116 275.601 237.447 276.082 239.112 277.118L237.706 280.004C236.374 279.116 234.598 278.783 232.748 278.783C227.494 278.783 224.127 282.076 224.127 288.551C224.127 288.847 224.127 289.143 224.164 289.476C225.644 287.256 228.382 286.072 231.601 286.072ZM231.157 299.096C234.524 299.096 236.892 297.135 236.892 294.064C236.892 291.03 234.598 289.069 230.972 289.069C227.457 289.069 225.015 291.252 225.015 294.101C225.015 296.765 227.161 299.096 231.157 299.096Z" fill="#292C33"/>
<path d="M283.236 132.296C280.942 132.296 278.981 131.79 277.353 130.779C275.725 129.768 274.479 128.312 273.616 126.413C272.777 124.489 272.358 122.146 272.358 119.383C272.358 116.448 272.876 113.969 273.912 111.946C274.948 109.923 276.391 108.394 278.241 107.358C280.091 106.322 282.212 105.804 284.605 105.804C285.838 105.804 287.01 105.927 288.12 106.174C289.255 106.421 290.229 106.803 291.043 107.321L289.637 110.207C288.971 109.738 288.206 109.418 287.343 109.245C286.504 109.072 285.616 108.986 284.679 108.986C282.04 108.986 279.943 109.812 278.389 111.465C276.835 113.093 276.058 115.523 276.058 118.754C276.058 119.272 276.083 119.889 276.132 120.604C276.181 121.319 276.305 122.022 276.502 122.713L275.244 121.455C275.614 120.32 276.194 119.371 276.983 118.606C277.797 117.817 278.759 117.237 279.869 116.867C281.004 116.472 282.225 116.275 283.532 116.275C285.259 116.275 286.788 116.596 288.12 117.237C289.452 117.878 290.5 118.791 291.265 119.975C292.03 121.134 292.412 122.516 292.412 124.119C292.412 125.772 292.005 127.215 291.191 128.448C290.377 129.681 289.279 130.631 287.898 131.297C286.517 131.963 284.963 132.296 283.236 132.296ZM283.088 129.299C284.223 129.299 285.209 129.089 286.048 128.67C286.911 128.251 287.59 127.671 288.083 126.931C288.576 126.166 288.823 125.278 288.823 124.267C288.823 122.738 288.293 121.529 287.232 120.641C286.171 119.728 284.728 119.272 282.903 119.272C281.719 119.272 280.683 119.494 279.795 119.938C278.907 120.382 278.204 120.986 277.686 121.751C277.193 122.491 276.946 123.342 276.946 124.304C276.946 125.192 277.18 126.018 277.649 126.783C278.118 127.523 278.808 128.127 279.721 128.596C280.634 129.065 281.756 129.299 283.088 129.299Z" fill="white"/>
<path d="M264.862 159.965H274.371V185.865H270.708V163.184H264.862V159.965ZM289.952 170.843C295.132 171.324 297.759 174.247 297.759 178.243C297.759 182.609 294.54 186.161 287.954 186.161C284.254 186.161 280.628 184.977 278.445 183.016L280.147 180.093C281.886 181.721 284.772 182.868 287.954 182.868C291.839 182.868 294.059 181.092 294.059 178.28C294.059 175.542 292.098 173.766 287.658 173.766H285.586V171.176L292.098 163.184H279.629V159.965H296.723V162.481L289.952 170.843Z" fill="#292C33"/>
<path d="M265.789 241.781H279.072V245H260.461V242.484L271.006 232.309C273.744 229.645 274.262 228.017 274.262 226.389C274.262 223.725 272.375 222.097 268.749 222.097C265.974 222.097 263.717 222.985 262.126 224.909L259.61 222.726C261.608 220.247 265.049 218.804 269.082 218.804C274.484 218.804 277.962 221.579 277.962 226.019C277.962 228.535 277.222 230.792 273.707 234.159L265.789 241.781ZM292.587 245.296C286.519 245.296 282.005 240.486 282.005 232.05C282.005 223.614 286.519 218.804 292.587 218.804C298.618 218.804 303.132 223.614 303.132 232.05C303.132 240.486 298.618 245.296 292.587 245.296ZM292.587 242.003C296.62 242.003 299.432 238.673 299.432 232.05C299.432 225.427 296.62 222.097 292.587 222.097C288.517 222.097 285.705 225.427 285.705 232.05C285.705 238.673 288.517 242.003 292.587 242.003Z" fill="#292C33"/>
<path d="M267.072 298.578H280.355V301.797H261.744V299.281L272.289 289.106C275.027 286.442 275.545 284.814 275.545 283.186C275.545 280.522 273.658 278.894 270.032 278.894C267.257 278.894 265 279.782 263.409 281.706L260.893 279.523C262.891 277.044 266.332 275.601 270.365 275.601C275.767 275.601 279.245 278.376 279.245 282.816C279.245 285.332 278.505 287.589 274.99 290.956L267.072 298.578ZM282.622 275.897H302.158V278.413L291.687 301.797H287.765L298.014 279.116H286.174V283.741H282.622V275.897Z" fill="#292C33"/>
<path d="M326.073 159.965H335.582V185.865H331.919V163.184H326.073V159.965ZM363.781 176.319V179.501H358.86V185.865H355.271V179.501H340.878V176.911L354.124 159.965H358.12L345.429 176.319H355.382V170.695H358.86V176.319H363.781Z" fill="#292C33"/>
<path d="M334.227 241.781H347.51V245H328.899V242.484L339.444 232.309C342.182 229.645 342.7 228.017 342.7 226.389C342.7 223.725 340.813 222.097 337.187 222.097C334.412 222.097 332.155 222.985 330.564 224.909L328.048 222.726C330.046 220.247 333.487 218.804 337.52 218.804C342.922 218.804 346.4 221.579 346.4 226.019C346.4 228.535 345.66 230.792 342.145 234.159L334.227 241.781ZM349.072 219.1H358.581V245H354.918V222.319H349.072V219.1Z" fill="#292C33"/>
<path d="M329.168 298.578H342.451V301.797H323.84V299.281L334.385 289.106C337.123 286.442 337.641 284.814 337.641 283.186C337.641 280.522 335.754 278.894 332.128 278.894C329.353 278.894 327.096 279.782 325.505 281.706L322.989 279.523C324.987 277.044 328.428 275.601 332.461 275.601C337.863 275.601 341.341 278.376 341.341 282.816C341.341 285.332 340.601 287.589 337.086 290.956L329.168 298.578ZM361.329 288.218C364.289 289.365 365.917 291.511 365.917 294.471C365.917 299.17 361.921 302.093 355.594 302.093C349.304 302.093 345.345 299.17 345.345 294.471C345.345 291.511 346.973 289.328 349.896 288.218C347.528 287.108 346.27 285.184 346.27 282.631C346.27 278.302 350.007 275.601 355.594 275.601C361.218 275.601 364.992 278.302 364.992 282.631C364.992 285.184 363.697 287.108 361.329 288.218ZM355.594 278.598C352.116 278.598 349.933 280.189 349.933 282.779C349.933 285.332 352.042 286.923 355.594 286.923C359.183 286.923 361.366 285.332 361.366 282.779C361.366 280.189 359.072 278.598 355.594 278.598ZM355.594 299.096C359.701 299.096 362.217 297.283 362.217 294.36C362.217 291.511 359.701 289.735 355.594 289.735C351.487 289.735 349.045 291.511 349.045 294.36C349.045 297.283 351.487 299.096 355.594 299.096Z" fill="#292C33"/>
<path d="M340.196 132L351.185 107.654L352.147 109.319H336.755L338.605 107.506V113.944H335.053V106.1H354.589V108.616L344.118 132H340.196Z" fill="white"/>
<path d="M406.307 78.1351V53.7151L407.898 55.4541H400.461V52.2351H409.97V78.1351H406.307Z" fill="#292C33"/>
</g>
<defs>
<clipPath id="clip0_532_3207">
<rect width="431" height="366" fill="white"/>
</clipPath>
</defs>
</svg>
