<svg width="432" height="366" viewBox="0 0 432 366" fill="none" xmlns="http://www.w3.org/2000/svg">
<g clip-path="url(#clip0_3525_5539)">
<mask id="mask0_3525_5539" style="mask-type:luminance" maskUnits="userSpaceOnUse" x="0" y="0" width="432" height="366">
<path d="M431.5 0H0.5V366H431.5V0Z" fill="white"/>
</mask>
<g mask="url(#mask0_3525_5539)">
<path d="M183.5 96H126.5V143H183.5V96Z" fill="#E4793D" fill-opacity="0.6"/>
<path d="M244.5 96H187.5V143H244.5V96Z" fill="#E4793D" fill-opacity="0.6"/>
<path d="M305.5 96H248.5V143H305.5V96Z" fill="#E4793D" fill-opacity="0.6"/>
<mask id="mask1_3525_5539" style="mask-type:luminance" maskUnits="userSpaceOnUse" x="0" y="0" width="432" height="366">
<path d="M431.5 0H0.5V366H431.5V0Z" fill="white"/>
</mask>
<g mask="url(#mask1_3525_5539)">
<path d="M181.019 267.125H124.019V314.125H181.019V267.125Z" fill="#3C78EC" fill-opacity="0.6"/>
<path d="M23.4564 20.7264H20.8476V3.36139H11.3906V20.7264H8.7002V1.32324H23.3749V20.7264H23.4564Z" fill="#B3B3B3" fill-opacity="0.6"/>
<path d="M39.2726 20.7262H36.6637V14.6118H30.2232V20.7262H27.6144V6.29614H30.2232V12.5737H36.6637V6.29614H39.2726V20.7262Z" fill="#B3B3B3" fill-opacity="0.6"/>
<path d="M73.5 20.7264V1.32324H79.859C81.8972 1.32324 83.4462 1.73087 84.5875 2.62766C85.7289 3.52444 86.2996 4.82886 86.2996 6.5409C86.2996 7.35616 86.055 8.08989 85.5658 8.82363C85.0767 9.55736 84.3429 9.96499 83.5277 10.2911C84.8321 10.4541 85.8104 11.0248 86.5441 11.9216C87.2779 12.8184 87.6855 13.9598 87.6855 15.1826C87.6855 16.9762 87.1148 18.2806 85.9735 19.2589C84.8321 20.2373 83.2831 20.6449 81.245 20.6449H73.5V20.7264ZM76.1904 9.55736H80.4297C81.408 9.55736 82.2233 9.31278 82.794 8.7421C83.4462 8.17142 83.6907 7.43769 83.6907 6.45937C83.6907 5.39954 83.3646 4.6658 82.7124 4.09512C82.0602 3.60597 81.0819 3.27986 79.859 3.27986H76.1904V9.55736ZM76.1904 11.5955V18.6067H81.245C82.4678 18.6067 83.3646 18.2806 84.0168 17.7099C84.6691 17.1393 84.9952 16.2425 84.9952 15.1826C84.9952 14.1228 84.6691 13.226 84.0168 12.5738C83.3646 11.9216 82.4678 11.5955 81.245 11.514H81.0819H76.1904V11.5955Z" fill="#B3B3B3" fill-opacity="0.6"/>
<path d="M101.626 8.33429H96.8976V20.7262H94.2888V8.33429H89.5603V6.29614H101.626V8.33429Z" fill="#B3B3B3" fill-opacity="0.6"/>
<path d="M151.012 14.5304C151.093 16.4055 150.441 17.9545 149.137 19.1773C147.832 20.4002 146.12 21.0524 143.919 21.0524C141.718 21.0524 139.924 20.2372 138.538 18.6882C137.152 17.1392 136.5 15.1826 136.5 12.7368V9.31271C136.5 6.94846 137.152 4.91031 138.538 3.36132C139.924 1.81233 141.718 0.99707 143.919 0.99707C146.12 0.99707 147.832 1.56775 149.137 2.70911C150.441 3.85048 151.093 5.39947 151.012 7.35609V7.43762H148.484C148.484 6.05168 148.077 4.99184 147.261 4.17658C146.446 3.36132 145.305 2.95369 143.837 2.95369C142.37 2.95369 141.229 3.52437 140.332 4.74726C139.435 5.88862 139.027 7.35609 139.027 9.14966V12.6553C139.027 14.4488 139.435 15.9163 140.332 17.0577C141.229 18.199 142.37 18.8512 143.837 18.8512C145.305 18.8512 146.446 18.4436 147.261 17.7099C148.077 16.8946 148.484 15.8348 148.484 14.4488H151.012V14.5304Z" fill="#B3B3B3" fill-opacity="0.6"/>
<path d="M166.42 14.0413C166.42 16.161 165.931 17.7915 164.953 19.0959C163.974 20.4003 162.588 20.971 160.795 20.971C159.898 20.971 159.164 20.8079 158.43 20.5634C157.778 20.2373 157.208 19.8296 156.718 19.259V26.2702H154.11V6.29634H156.148L156.555 8.17143C157.045 7.4377 157.615 6.94854 158.349 6.62244C159.083 6.29634 159.898 6.05176 160.795 6.05176C162.588 6.05176 163.974 6.78549 164.953 8.17143C165.931 9.55737 166.42 11.4325 166.42 13.7967V14.0413ZM163.811 13.7967C163.811 12.1662 163.485 10.7803 162.833 9.80195C162.181 8.82364 161.202 8.25296 159.979 8.25296C159.246 8.25296 158.594 8.41601 158.023 8.74211C157.452 9.06822 157.045 9.55737 156.718 10.1281V17.1393C157.045 17.71 157.452 18.1991 158.023 18.5252C158.594 18.8513 159.246 19.0144 159.979 19.0144C161.202 19.0144 162.181 18.5252 162.833 17.6284C163.485 16.7317 163.811 15.5088 163.811 14.1228V13.7967Z" fill="#B3B3B3" fill-opacity="0.6"/>
<path d="M215.93 1.32324V20.7264H213.321V12.6553C212.506 12.8999 211.691 13.063 210.875 13.226C210.06 13.3076 209.163 13.3891 208.022 13.3891C205.902 13.3891 204.272 12.8999 203.131 12.0031C201.989 11.1064 201.5 9.55736 201.5 7.43769V1.32324H204.109V7.43769C204.109 8.90515 204.435 9.88346 205.006 10.4541C205.658 11.0248 206.636 11.2694 207.941 11.2694C208.837 11.2694 209.734 11.1879 210.631 11.1064C211.446 10.9433 212.343 10.7802 213.24 10.5357V1.32324H215.93Z" fill="#B3B3B3" fill-opacity="0.6"/>
<path d="M231.175 8.33429H226.447V20.7262H223.838V8.33429H219.11V6.29614H231.175V8.33429Z" fill="#B3B3B3" fill-opacity="0.6"/>
<path d="M280.175 20.7264H277.566V3.36139H268.109V20.7264H265.5V1.32324H280.175V20.7264Z" fill="#B3B3B3" fill-opacity="0.6"/>
<path d="M295.42 8.33453H290.692V20.7265H288.083V8.33453H283.354V6.29639H295.42V8.33453Z" fill="#B3B3B3" fill-opacity="0.6"/>
<path d="M345.012 14.5301C345.093 16.4052 344.441 17.9542 343.137 19.1771C341.832 20.4 340.12 21.0522 337.919 21.0522C335.718 21.0522 333.924 20.2369 332.538 18.6879C331.152 17.1389 330.5 15.1823 330.5 12.7365V9.31247C330.5 6.94822 331.152 4.91007 332.538 3.36108C333.924 1.81209 335.718 0.996826 337.919 0.996826C340.12 0.996826 341.832 1.56751 343.137 2.70887C344.441 3.85023 345.093 5.39923 345.012 7.35585V7.43737H342.484C342.484 6.05143 342.077 4.9916 341.261 4.17634C340.446 3.36108 339.305 2.95345 337.837 2.95345C336.37 2.95345 335.229 3.52413 334.332 4.74702C333.435 5.88838 333.027 7.35585 333.027 9.14942V12.655C333.027 14.4486 333.435 15.916 334.332 17.0574C335.229 18.1988 336.37 18.851 337.837 18.851C339.305 18.851 340.446 18.4433 341.261 17.7096C342.077 16.8943 342.484 15.8345 342.484 14.4486H345.012V14.5301Z" fill="#B3B3B3" fill-opacity="0.6"/>
<path d="M354.387 6.05149C356.262 6.05149 357.648 6.7037 358.708 8.08964C359.768 9.47558 360.338 11.1876 360.338 13.3888V13.7149C360.338 15.8346 359.768 17.6282 358.626 19.0141C357.485 20.4 355.936 21.0523 353.898 21.0523C351.86 21.0523 350.311 20.4 349.169 19.0141C348.028 17.6282 347.457 15.9161 347.457 13.7149V13.3888C347.457 13.3073 347.457 13.2258 347.457 13.2258C347.457 13.1442 347.457 13.1442 347.457 13.0627V9.96473C347.457 7.19285 348.028 5.23623 349.088 3.93182C350.148 2.6274 351.778 1.97519 353.898 1.81214C355.121 1.73062 356.099 1.56756 356.751 1.32299C357.403 1.07841 357.73 0.670779 357.73 0.100098H359.768V0.181624C359.849 1.56756 359.36 2.54587 358.382 3.11656C357.403 3.68724 356.017 4.01334 354.142 4.01334C352.756 4.01334 351.697 4.42097 350.881 5.1547C350.066 5.88844 349.658 6.94827 349.658 8.33421V8.41574C350.148 7.76353 350.881 7.19285 351.697 6.78522C352.512 6.37759 353.49 6.05149 354.387 6.05149ZM353.898 8.08964C352.675 8.08964 351.697 8.57879 351.044 9.5571C350.392 10.5354 350.066 11.8398 350.066 13.3073V13.6334C350.066 15.1824 350.392 16.4053 351.044 17.3836C351.697 18.3619 352.675 18.8511 353.898 18.8511C355.121 18.8511 356.099 18.3619 356.751 17.3836C357.403 16.4053 357.73 15.1009 357.73 13.6334V13.3073C357.73 11.7583 357.403 10.5354 356.751 9.5571C356.099 8.57879 355.121 8.08964 353.898 8.08964Z" fill="#B3B3B3" fill-opacity="0.6"/>
<path d="M394.5 20.7264V1.32324H400.859C402.897 1.32324 404.446 1.73087 405.588 2.62766C406.729 3.52444 407.3 4.82886 407.3 6.5409C407.3 7.35616 407.055 8.08989 406.566 8.82363C406.077 9.55736 405.343 9.96499 404.528 10.3726C405.832 10.5357 406.81 11.1064 407.544 12.0031C408.278 12.8999 408.686 14.0413 408.686 15.2642C408.686 17.0577 408.115 18.3622 406.973 19.3405C405.832 20.3188 404.283 20.7264 402.245 20.7264H394.5ZM397.19 9.55736H401.43C402.408 9.55736 403.223 9.31278 403.794 8.7421C404.446 8.17142 404.691 7.43769 404.691 6.45937C404.691 5.39954 404.365 4.6658 403.712 4.09512C403.06 3.60597 402.082 3.27986 400.859 3.27986H397.19V9.55736ZM397.19 11.5955V18.6067H402.245C403.468 18.6067 404.365 18.2806 405.017 17.7099C405.669 17.1393 405.995 16.2425 405.995 15.1826C405.995 14.1228 405.669 13.226 405.017 12.5738C404.365 11.9216 403.468 11.5955 402.245 11.514H402.082H397.19V11.5955Z" fill="#B3B3B3" fill-opacity="0.6"/>
<path d="M417.245 18.9327C418.061 18.9327 418.794 18.6881 419.365 18.1174C419.936 17.5467 420.262 16.8945 420.262 16.1608H422.626V16.2423C422.626 17.4652 422.137 18.6066 420.996 19.5849C419.854 20.5632 418.631 21.0523 417.164 21.0523C415.126 21.0523 413.577 20.4001 412.435 19.0142C411.294 17.6282 410.805 15.9162 410.805 13.8781V13.3074C410.805 11.2692 411.376 9.55714 412.435 8.1712C413.577 6.78526 415.126 6.13306 417.082 6.13306C418.713 6.13306 420.017 6.62221 420.996 7.60052C421.974 8.57883 422.545 9.80172 422.463 11.2692V11.3508H420.099C420.099 10.454 419.773 9.7202 419.202 9.06799C418.631 8.41578 417.898 8.1712 417.001 8.1712C415.696 8.1712 414.8 8.66036 414.147 9.63867C413.577 10.617 413.251 11.8399 413.251 13.3074V13.8781C413.251 15.3455 413.577 16.5684 414.147 17.5467C415.044 18.4435 415.941 18.9327 417.245 18.9327Z" fill="#B3B3B3" fill-opacity="0.6"/>
<path d="M406.95 132.296C404.853 132.296 403.04 131.988 401.511 131.371C399.982 130.754 398.798 129.879 397.959 128.744C397.12 127.585 396.701 126.228 396.701 124.674C396.701 123.145 397.096 121.85 397.885 120.789C398.699 119.704 399.871 118.89 401.4 118.347C402.929 117.78 404.779 117.496 406.95 117.496C409.121 117.496 410.971 117.78 412.5 118.347C414.054 118.89 415.238 119.704 416.052 120.789C416.866 121.874 417.273 123.169 417.273 124.674C417.273 126.228 416.854 127.585 416.015 128.744C415.176 129.879 413.98 130.754 412.426 131.371C410.872 131.988 409.047 132.296 406.95 132.296ZM406.95 129.299C409.022 129.299 410.638 128.88 411.797 128.041C412.981 127.178 413.573 126.018 413.573 124.563C413.573 123.132 412.981 122.01 411.797 121.196C410.638 120.357 409.022 119.938 406.95 119.938C404.903 119.938 403.299 120.357 402.14 121.196C400.981 122.01 400.401 123.132 400.401 124.563C400.401 126.018 400.981 127.178 402.14 128.041C403.299 128.88 404.903 129.299 406.95 129.299ZM406.95 119.494C404.977 119.494 403.299 119.235 401.918 118.717C400.537 118.174 399.476 117.41 398.736 116.423C397.996 115.412 397.626 114.215 397.626 112.834C397.626 111.379 398.008 110.133 398.773 109.097C399.562 108.036 400.66 107.222 402.066 106.655C403.472 106.088 405.1 105.804 406.95 105.804C408.825 105.804 410.465 106.088 411.871 106.655C413.277 107.222 414.375 108.036 415.164 109.097C415.953 110.133 416.348 111.379 416.348 112.834C416.348 114.215 415.978 115.412 415.238 116.423C414.498 117.41 413.425 118.174 412.019 118.717C410.613 119.235 408.923 119.494 406.95 119.494ZM406.95 117.126C408.751 117.126 410.157 116.756 411.168 116.016C412.204 115.276 412.722 114.265 412.722 112.982C412.722 111.675 412.192 110.651 411.131 109.911C410.07 109.171 408.677 108.801 406.95 108.801C405.223 108.801 403.842 109.171 402.806 109.911C401.795 110.651 401.289 111.675 401.289 112.982C401.289 114.265 401.782 115.276 402.769 116.016C403.78 116.756 405.174 117.126 406.95 117.126Z" fill="#292C33" fill-opacity="0.6"/>
<path d="M395.651 189V164.58L397.242 166.319H389.805V163.1H399.314V189H395.651ZM413.341 189.296C411.516 189.296 409.74 189.012 408.013 188.445C406.311 187.878 404.917 187.113 403.832 186.151L405.534 183.228C406.397 184.042 407.52 184.708 408.901 185.226C410.282 185.744 411.75 186.003 413.304 186.003C415.277 186.003 416.794 185.584 417.855 184.745C418.916 183.906 419.446 182.784 419.446 181.378C419.446 180.416 419.212 179.577 418.743 178.862C418.274 178.147 417.46 177.604 416.301 177.234C415.166 176.839 413.6 176.642 411.602 176.642H405.719L407.088 163.1H421.703V166.319H408.457L410.381 164.506L409.308 175.199L407.384 173.423H412.379C414.969 173.423 417.053 173.756 418.632 174.422C420.211 175.088 421.358 176.013 422.073 177.197C422.788 178.356 423.146 179.701 423.146 181.23C423.146 182.71 422.788 184.067 422.073 185.3C421.358 186.509 420.272 187.483 418.817 188.223C417.386 188.938 415.561 189.296 413.341 189.296Z" fill="#292C33" fill-opacity="0.6"/>
<path d="M387.102 246V243.484L397.647 233.309C398.584 232.421 399.275 231.644 399.719 230.978C400.187 230.287 400.496 229.658 400.644 229.091C400.816 228.499 400.903 227.932 400.903 227.389C400.903 226.057 400.434 225.009 399.497 224.244C398.559 223.479 397.19 223.097 395.39 223.097C394.008 223.097 392.763 223.331 391.653 223.8C390.543 224.244 389.581 224.947 388.767 225.909L386.251 223.726C387.237 222.468 388.557 221.506 390.21 220.84C391.887 220.149 393.725 219.804 395.723 219.804C397.523 219.804 399.09 220.1 400.422 220.692C401.754 221.259 402.777 222.086 403.493 223.171C404.233 224.256 404.603 225.539 404.603 227.019C404.603 227.858 404.492 228.684 404.27 229.498C404.048 230.312 403.628 231.175 403.012 232.088C402.395 233.001 401.507 234.024 400.348 235.159L390.95 244.224L390.062 242.781H405.713V246H387.102ZM408.348 246V243.484L418.893 233.309C419.83 232.421 420.521 231.644 420.965 230.978C421.433 230.287 421.742 229.658 421.89 229.091C422.062 228.499 422.149 227.932 422.149 227.389C422.149 226.057 421.68 225.009 420.743 224.244C419.805 223.479 418.436 223.097 416.636 223.097C415.254 223.097 414.009 223.331 412.899 223.8C411.789 224.244 410.827 224.947 410.013 225.909L407.497 223.726C408.483 222.468 409.803 221.506 411.456 220.84C413.133 220.149 414.971 219.804 416.969 219.804C418.769 219.804 420.336 220.1 421.668 220.692C423 221.259 424.023 222.086 424.739 223.171C425.479 224.256 425.849 225.539 425.849 227.019C425.849 227.858 425.738 228.684 425.516 229.498C425.294 230.312 424.874 231.175 424.258 232.088C423.641 233.001 422.753 234.024 421.594 235.159L412.196 244.224L411.308 242.781H426.959V246H408.348Z" fill="#292C33" fill-opacity="0.6"/>
<path d="M386.307 303V300.484L396.852 290.309C397.789 289.421 398.48 288.644 398.924 287.978C399.393 287.287 399.701 286.658 399.849 286.091C400.022 285.499 400.108 284.932 400.108 284.389C400.108 283.057 399.639 282.009 398.702 281.244C397.765 280.479 396.396 280.097 394.595 280.097C393.214 280.097 391.968 280.331 390.858 280.8C389.748 281.244 388.786 281.947 387.972 282.909L385.456 280.726C386.443 279.468 387.762 278.506 389.415 277.84C391.092 277.149 392.93 276.804 394.928 276.804C396.729 276.804 398.295 277.1 399.627 277.692C400.959 278.259 401.983 279.086 402.698 280.171C403.438 281.256 403.808 282.539 403.808 284.019C403.808 284.858 403.697 285.684 403.475 286.498C403.253 287.312 402.834 288.175 402.217 289.088C401.6 290.001 400.712 291.024 399.553 292.159L390.155 301.224L389.267 299.781H404.918V303H386.307ZM416.359 276.804C418.702 276.804 420.676 277.31 422.279 278.321C423.907 279.332 425.14 280.8 425.979 282.724C426.818 284.623 427.237 286.954 427.237 289.717C427.237 292.652 426.719 295.131 425.683 297.154C424.647 299.177 423.216 300.706 421.391 301.742C419.566 302.778 417.432 303.296 414.99 303.296C413.781 303.296 412.61 303.173 411.475 302.926C410.365 302.679 409.391 302.297 408.552 301.779L409.958 298.893C410.649 299.337 411.413 299.658 412.252 299.855C413.115 300.028 414.016 300.114 414.953 300.114C417.568 300.114 419.652 299.3 421.206 297.672C422.76 296.019 423.537 293.577 423.537 290.346C423.537 289.828 423.512 289.211 423.463 288.496C423.414 287.781 423.303 287.078 423.13 286.387L424.351 287.645C424.006 288.78 423.426 289.742 422.612 290.531C421.823 291.296 420.861 291.875 419.726 292.27C418.616 292.64 417.395 292.825 416.063 292.825C414.361 292.825 412.844 292.504 411.512 291.863C410.18 291.222 409.132 290.321 408.367 289.162C407.602 287.978 407.22 286.584 407.22 284.981C407.22 283.304 407.615 281.861 408.404 280.652C409.218 279.419 410.316 278.469 411.697 277.803C413.103 277.137 414.657 276.804 416.359 276.804ZM416.507 279.801C415.397 279.801 414.41 280.011 413.547 280.43C412.684 280.849 412.005 281.429 411.512 282.169C411.043 282.909 410.809 283.797 410.809 284.833C410.809 286.362 411.339 287.583 412.4 288.496C413.461 289.384 414.891 289.828 416.692 289.828C417.876 289.828 418.912 289.606 419.8 289.162C420.713 288.718 421.416 288.114 421.909 287.349C422.427 286.584 422.686 285.733 422.686 284.796C422.686 283.883 422.452 283.057 421.983 282.317C421.514 281.577 420.824 280.973 419.911 280.504C418.998 280.035 417.864 279.801 416.507 279.801Z" fill="#292C33" fill-opacity="0.6"/>
<path d="M19.4887 132V129.484L30.0337 119.309C30.971 118.421 31.6617 117.644 32.1057 116.978C32.5743 116.287 32.8827 115.658 33.0307 115.091C33.2033 114.499 33.2897 113.932 33.2897 113.389C33.2897 112.057 32.821 111.009 31.8837 110.244C30.9463 109.479 29.5773 109.097 27.7767 109.097C26.3953 109.097 25.1497 109.331 24.0397 109.8C22.9297 110.244 21.9677 110.947 21.1537 111.909L18.6377 109.726C19.6243 108.468 20.944 107.506 22.5967 106.84C24.274 106.149 26.1117 105.804 28.1097 105.804C29.9103 105.804 31.4767 106.1 32.8087 106.692C34.1407 107.259 35.1643 108.086 35.8797 109.171C36.6197 110.256 36.9897 111.539 36.9897 113.019C36.9897 113.858 36.8787 114.684 36.6567 115.498C36.4347 116.312 36.0153 117.175 35.3987 118.088C34.782 119.001 33.894 120.024 32.7347 121.159L23.3367 130.224L22.4487 128.781H38.0997V132H19.4887Z" fill="#292C33" fill-opacity="0.6"/>
<path d="M27.4998 162.804C29.8431 162.804 31.8164 163.31 33.4198 164.321C35.0478 165.332 36.2811 166.8 37.1198 168.724C37.9584 170.623 38.3778 172.954 38.3778 175.717C38.3778 178.652 37.8598 181.131 36.8238 183.154C35.7878 185.177 34.3571 186.706 32.5318 187.742C30.7064 188.778 28.5728 189.296 26.1308 189.296C24.9221 189.296 23.7504 189.173 22.6158 188.926C21.5058 188.679 20.5314 188.297 19.6928 187.779L21.0988 184.893C21.7894 185.337 22.5541 185.658 23.3928 185.855C24.2561 186.028 25.1564 186.114 26.0938 186.114C28.7084 186.114 30.7928 185.3 32.3468 183.672C33.9008 182.019 34.6778 179.577 34.6778 176.346C34.6778 175.828 34.6531 175.211 34.6038 174.496C34.5544 173.781 34.4434 173.078 34.2708 172.387L35.4918 173.645C35.1464 174.78 34.5668 175.742 33.7528 176.531C32.9634 177.296 32.0014 177.875 30.8668 178.27C29.7568 178.64 28.5358 178.825 27.2038 178.825C25.5018 178.825 23.9848 178.504 22.6528 177.863C21.3208 177.222 20.2724 176.321 19.5078 175.162C18.7431 173.978 18.3608 172.584 18.3608 170.981C18.3608 169.304 18.7554 167.861 19.5448 166.652C20.3588 165.419 21.4564 164.469 22.8378 163.803C24.2438 163.137 25.7978 162.804 27.4998 162.804ZM27.6478 165.801C26.5378 165.801 25.5511 166.011 24.6878 166.43C23.8244 166.849 23.1461 167.429 22.6528 168.169C22.1841 168.909 21.9498 169.797 21.9498 170.833C21.9498 172.362 22.4801 173.583 23.5408 174.496C24.6014 175.384 26.0321 175.828 27.8328 175.828C29.0168 175.828 30.0528 175.606 30.9408 175.162C31.8534 174.718 32.5564 174.114 33.0498 173.349C33.5678 172.584 33.8268 171.733 33.8268 170.796C33.8268 169.883 33.5924 169.057 33.1238 168.317C32.6551 167.577 31.9644 166.973 31.0518 166.504C30.1391 166.035 29.0044 165.801 27.6478 165.801Z" fill="#292C33" fill-opacity="0.6"/>
<path d="M16.6197 246V221.58L18.2107 223.319H10.7737V220.1H20.2827V246H16.6197ZM36.8261 246.296C34.5321 246.296 32.5711 245.79 30.9431 244.779C29.3151 243.768 28.0694 242.312 27.2061 240.413C26.3674 238.489 25.9481 236.146 25.9481 233.383C25.9481 230.448 26.4661 227.969 27.5021 225.946C28.5381 223.923 29.9811 222.394 31.8311 221.358C33.6811 220.322 35.8024 219.804 38.1951 219.804C39.4284 219.804 40.6001 219.927 41.7101 220.174C42.8447 220.421 43.8191 220.803 44.6331 221.321L43.2271 224.207C42.5611 223.738 41.7964 223.418 40.9331 223.245C40.0944 223.072 39.2064 222.986 38.2691 222.986C35.6297 222.986 33.5331 223.812 31.9791 225.465C30.4251 227.093 29.6481 229.523 29.6481 232.754C29.6481 233.272 29.6727 233.889 29.7221 234.604C29.7714 235.319 29.8947 236.022 30.0921 236.713L28.8341 235.455C29.2041 234.32 29.7837 233.371 30.5731 232.606C31.3871 231.817 32.3491 231.237 33.4591 230.867C34.5937 230.472 35.8147 230.275 37.1221 230.275C38.8487 230.275 40.3781 230.596 41.7101 231.237C43.0421 231.878 44.0904 232.791 44.8551 233.975C45.6197 235.134 46.0021 236.516 46.0021 238.119C46.0021 239.772 45.5951 241.215 44.7811 242.448C43.9671 243.681 42.8694 244.631 41.4881 245.297C40.1067 245.963 38.5527 246.296 36.8261 246.296ZM36.6781 243.299C37.8127 243.299 38.7994 243.089 39.6381 242.67C40.5014 242.251 41.1797 241.671 41.6731 240.931C42.1664 240.166 42.4131 239.278 42.4131 238.267C42.4131 236.738 41.8827 235.529 40.8221 234.641C39.7614 233.728 38.3184 233.272 36.4931 233.272C35.3091 233.272 34.2731 233.494 33.3851 233.938C32.4971 234.382 31.7941 234.986 31.2761 235.751C30.7827 236.491 30.5361 237.342 30.5361 238.304C30.5361 239.192 30.7704 240.018 31.2391 240.783C31.7077 241.523 32.3984 242.127 33.3111 242.596C34.2237 243.065 35.3461 243.299 36.6781 243.299Z" fill="#292C33" fill-opacity="0.6"/>
<path d="M8.90178 303V300.484L19.4468 290.309C20.3841 289.421 21.0748 288.644 21.5188 287.978C21.9874 287.287 22.2958 286.658 22.4438 286.091C22.6164 285.499 22.7028 284.932 22.7028 284.389C22.7028 283.057 22.2341 282.009 21.2968 281.244C20.3594 280.479 18.9904 280.097 17.1898 280.097C15.8084 280.097 14.5628 280.331 13.4528 280.8C12.3428 281.244 11.3808 281.947 10.5668 282.909L8.05078 280.726C9.03744 279.468 10.3571 278.506 12.0098 277.84C13.6871 277.149 15.5248 276.804 17.5228 276.804C19.3234 276.804 20.8898 277.1 22.2218 277.692C23.5538 278.259 24.5774 279.086 25.2928 280.171C26.0328 281.256 26.4028 282.539 26.4028 284.019C26.4028 284.858 26.2918 285.684 26.0698 286.498C25.8478 287.312 25.4284 288.175 24.8118 289.088C24.1951 290.001 23.3071 291.024 22.1478 292.159L12.7498 301.224L11.8618 299.781H27.5128V303H8.90178ZM38.4729 303.296C36.6475 303.296 34.8715 303.012 33.1449 302.445C31.4429 301.878 30.0492 301.113 28.9639 300.151L30.6659 297.228C31.5292 298.042 32.6515 298.708 34.0329 299.226C35.4142 299.744 36.8942 300.003 38.4729 300.003C40.3969 300.003 41.8892 299.596 42.9499 298.782C44.0352 297.943 44.5779 296.821 44.5779 295.415C44.5779 294.058 44.0599 292.973 43.0239 292.159C42.0125 291.32 40.3969 290.901 38.1769 290.901H36.1049V288.311L43.8009 278.839L44.3189 280.319H30.1479V277.1H47.2419V279.616L39.5829 289.051L37.6589 287.904H38.8799C42.0125 287.904 44.3559 288.607 45.9099 290.013C47.4885 291.419 48.2779 293.207 48.2779 295.378C48.2779 296.833 47.9202 298.165 47.2049 299.374C46.4895 300.583 45.4042 301.545 43.9489 302.26C42.5182 302.951 40.6929 303.296 38.4729 303.296Z" fill="#292C33" fill-opacity="0.6"/>
<path d="M15.5106 360.296C13.6852 360.296 11.9092 360.012 10.1826 359.445C8.48059 358.878 7.08693 358.113 6.00159 357.151L7.70359 354.228C8.56693 355.042 9.68926 355.708 11.0706 356.226C12.4519 356.744 13.9319 357.003 15.5106 357.003C17.4346 357.003 18.9269 356.596 19.9876 355.782C21.0729 354.943 21.6156 353.821 21.6156 352.415C21.6156 351.058 21.0976 349.973 20.0616 349.159C19.0502 348.32 17.4346 347.901 15.2146 347.901H13.1426V345.311L20.8386 335.839L21.3566 337.319H7.18559V334.1H24.2796V336.616L16.6206 346.051L14.6966 344.904H15.9176C19.0502 344.904 21.3936 345.607 22.9476 347.013C24.5262 348.419 25.3156 350.207 25.3156 352.378C25.3156 353.833 24.9579 355.165 24.2426 356.374C23.5272 357.583 22.4419 358.545 20.9866 359.26C19.5559 359.951 17.7306 360.296 15.5106 360.296ZM39.3484 360.296C37.3257 360.296 35.5127 359.778 33.9094 358.742C32.3307 357.706 31.0727 356.201 30.1354 354.228C29.2227 352.255 28.7664 349.862 28.7664 347.05C28.7664 344.238 29.2227 341.845 30.1354 339.872C31.0727 337.899 32.3307 336.394 33.9094 335.358C35.5127 334.322 37.3257 333.804 39.3484 333.804C41.3464 333.804 43.147 334.322 44.7504 335.358C46.3537 336.394 47.6117 337.899 48.5244 339.872C49.437 341.845 49.8934 344.238 49.8934 347.05C49.8934 349.862 49.437 352.255 48.5244 354.228C47.6117 356.201 46.3537 357.706 44.7504 358.742C43.147 359.778 41.3464 360.296 39.3484 360.296ZM39.3484 357.003C40.705 357.003 41.889 356.633 42.9004 355.893C43.9364 355.153 44.738 354.043 45.3054 352.563C45.8974 351.083 46.1934 349.245 46.1934 347.05C46.1934 344.855 45.8974 343.017 45.3054 341.537C44.738 340.057 43.9364 338.947 42.9004 338.207C41.889 337.467 40.705 337.097 39.3484 337.097C37.9917 337.097 36.7954 337.467 35.7594 338.207C34.7234 338.947 33.9094 340.057 33.3174 341.537C32.75 343.017 32.4664 344.855 32.4664 347.05C32.4664 349.245 32.75 351.083 33.3174 352.563C33.9094 354.043 34.7234 355.153 35.7594 355.893C36.7954 356.633 37.9917 357.003 39.3484 357.003Z" fill="#292C33" fill-opacity="0.6"/>
<path d="M91.3357 132.296C89.5104 132.296 87.7344 132.012 86.0077 131.445C84.3057 130.878 82.9121 130.113 81.8267 129.151L83.5287 126.228C84.3921 127.042 85.5144 127.708 86.8957 128.226C88.2771 128.744 89.7571 129.003 91.3357 129.003C93.2597 129.003 94.7521 128.596 95.8127 127.782C96.8981 126.943 97.4407 125.821 97.4407 124.415C97.4407 123.058 96.9227 121.973 95.8867 121.159C94.8754 120.32 93.2597 119.901 91.0397 119.901H88.9677V117.311L96.6637 107.839L97.1817 109.319H83.0107V106.1H100.105V108.616L92.4457 118.051L90.5217 116.904H91.7427C94.8754 116.904 97.2187 117.607 98.7727 119.013C100.351 120.419 101.141 122.207 101.141 124.378C101.141 125.833 100.783 127.165 100.068 128.374C99.3524 129.583 98.2671 130.545 96.8117 131.26C95.3811 131.951 93.5557 132.296 91.3357 132.296Z" fill="#292C33" fill-opacity="0.6"/>
<path d="M79.1839 189V164.58L80.7749 166.319H73.3379V163.1H82.8469V189H79.1839ZM99.0942 189.296C97.0716 189.296 95.2586 188.778 93.6552 187.742C92.0766 186.706 90.8186 185.201 89.8812 183.228C88.9686 181.255 88.5122 178.862 88.5122 176.05C88.5122 173.238 88.9686 170.845 89.8812 168.872C90.8186 166.899 92.0766 165.394 93.6552 164.358C95.2586 163.322 97.0716 162.804 99.0942 162.804C101.092 162.804 102.893 163.322 104.496 164.358C106.1 165.394 107.358 166.899 108.27 168.872C109.183 170.845 109.639 173.238 109.639 176.05C109.639 178.862 109.183 181.255 108.27 183.228C107.358 185.201 106.1 186.706 104.496 187.742C102.893 188.778 101.092 189.296 99.0942 189.296ZM99.0942 186.003C100.451 186.003 101.635 185.633 102.646 184.893C103.682 184.153 104.484 183.043 105.051 181.563C105.643 180.083 105.939 178.245 105.939 176.05C105.939 173.855 105.643 172.017 105.051 170.537C104.484 169.057 103.682 167.947 102.646 167.207C101.635 166.467 100.451 166.097 99.0942 166.097C97.7376 166.097 96.5412 166.467 95.5052 167.207C94.4692 167.947 93.6552 169.057 93.0632 170.537C92.4959 172.017 92.2122 173.855 92.2122 176.05C92.2122 178.245 92.4959 180.083 93.0632 181.563C93.6552 183.043 94.4692 184.153 95.5052 184.893C96.5412 185.633 97.7376 186.003 99.0942 186.003Z" fill="#292C33" fill-opacity="0.6"/>
<path d="M80.4667 246V221.58L82.0577 223.319H74.6207V220.1H84.1297V246H80.4667ZM94.2721 246L105.261 221.654L106.223 223.319H90.8311L92.6811 221.506V227.944H89.1291V220.1H108.665V222.616L98.1941 246H94.2721Z" fill="#292C33" fill-opacity="0.6"/>
<path d="M70.9603 303V300.484L81.5053 290.309C82.4426 289.421 83.1333 288.644 83.5773 287.978C84.046 287.287 84.3543 286.658 84.5023 286.091C84.675 285.499 84.7613 284.932 84.7613 284.389C84.7613 283.057 84.2926 282.009 83.3553 281.244C82.418 280.479 81.049 280.097 79.2483 280.097C77.867 280.097 76.6213 280.331 75.5113 280.8C74.4013 281.244 73.4393 281.947 72.6253 282.909L70.1093 280.726C71.096 279.468 72.4156 278.506 74.0683 277.84C75.7456 277.149 77.5833 276.804 79.5813 276.804C81.382 276.804 82.9483 277.1 84.2803 277.692C85.6123 278.259 86.6359 279.086 87.3512 280.171C88.0912 281.256 88.4613 282.539 88.4613 284.019C88.4613 284.858 88.3503 285.684 88.1283 286.498C87.9063 287.312 87.487 288.175 86.8703 289.088C86.2536 290.001 85.3656 291.024 84.2063 292.159L74.8083 301.224L73.9202 299.781H89.5713V303H70.9603ZM91.5207 296.636V294.046L104.767 277.1H108.763L95.6277 294.046L93.7407 293.454H114.424V296.636H91.5207ZM105.914 303V296.636L106.025 293.454V287.83H109.503V303H105.914Z" fill="#292C33" fill-opacity="0.6"/>
<path d="M84.4885 360.296C82.6632 360.296 80.8872 360.012 79.1605 359.445C77.4585 358.878 76.0649 358.113 74.9795 357.151L76.6815 354.228C77.5449 355.042 78.6672 355.708 80.0485 356.226C81.4299 356.744 82.9099 357.003 84.4885 357.003C86.4125 357.003 87.9049 356.596 88.9655 355.782C90.0509 354.943 90.5935 353.821 90.5935 352.415C90.5935 351.058 90.0755 349.973 89.0395 349.159C88.0282 348.32 86.4125 347.901 84.1925 347.901H82.1205V345.311L89.8165 335.839L90.3345 337.319H76.1635V334.1H93.2575V336.616L85.5985 346.051L83.6745 344.904H84.8955C88.0282 344.904 90.3715 345.607 91.9255 347.013C93.5042 348.419 94.2935 350.207 94.2935 352.378C94.2935 353.833 93.9359 355.165 93.2205 356.374C92.5052 357.583 91.4199 358.545 89.9645 359.26C88.5339 359.951 86.7085 360.296 84.4885 360.296ZM102.11 360V335.58L103.701 337.319H96.2644V334.1H105.773V360H102.11Z" fill="#292C33" fill-opacity="0.6"/>
<path d="M143.196 125.636V123.046L156.442 106.1H160.438L147.303 123.046L145.416 122.454H166.099V125.636H143.196ZM157.589 132V125.636L157.7 122.454V116.83H161.178V132H157.589Z" fill="white"/>
<path d="M146.613 189V164.58L148.204 166.319H140.767V163.1H150.276V189H146.613ZM160.308 189V164.58L161.899 166.319H154.462V163.1H163.971V189H160.308Z" fill="#292C33" fill-opacity="0.6"/>
<path d="M141.555 246V221.58L143.146 223.319H135.709V220.1H145.218V246H141.555ZM160.984 246.296C158.887 246.296 157.074 245.988 155.545 245.371C154.016 244.754 152.832 243.879 151.993 242.744C151.154 241.585 150.735 240.228 150.735 238.674C150.735 237.145 151.13 235.85 151.919 234.789C152.733 233.704 153.905 232.89 155.434 232.347C156.963 231.78 158.813 231.496 160.984 231.496C163.155 231.496 165.005 231.78 166.534 232.347C168.088 232.89 169.272 233.704 170.086 234.789C170.9 235.874 171.307 237.169 171.307 238.674C171.307 240.228 170.888 241.585 170.049 242.744C169.21 243.879 168.014 244.754 166.46 245.371C164.906 245.988 163.081 246.296 160.984 246.296ZM160.984 243.299C163.056 243.299 164.672 242.88 165.831 242.041C167.015 241.178 167.607 240.018 167.607 238.563C167.607 237.132 167.015 236.01 165.831 235.196C164.672 234.357 163.056 233.938 160.984 233.938C158.937 233.938 157.333 234.357 156.174 235.196C155.015 236.01 154.435 237.132 154.435 238.563C154.435 240.018 155.015 241.178 156.174 242.041C157.333 242.88 158.937 243.299 160.984 243.299ZM160.984 233.494C159.011 233.494 157.333 233.235 155.952 232.717C154.571 232.174 153.51 231.41 152.77 230.423C152.03 229.412 151.66 228.215 151.66 226.834C151.66 225.379 152.042 224.133 152.807 223.097C153.596 222.036 154.694 221.222 156.1 220.655C157.506 220.088 159.134 219.804 160.984 219.804C162.859 219.804 164.499 220.088 165.905 220.655C167.311 221.222 168.409 222.036 169.198 223.097C169.987 224.133 170.382 225.379 170.382 226.834C170.382 228.215 170.012 229.412 169.272 230.423C168.532 231.41 167.459 232.174 166.053 232.717C164.647 233.235 162.957 233.494 160.984 233.494ZM160.984 231.126C162.785 231.126 164.191 230.756 165.202 230.016C166.238 229.276 166.756 228.265 166.756 226.982C166.756 225.675 166.226 224.651 165.165 223.911C164.104 223.171 162.711 222.801 160.984 222.801C159.257 222.801 157.876 223.171 156.84 223.911C155.829 224.651 155.323 225.675 155.323 226.982C155.323 228.265 155.816 229.276 156.803 230.016C157.814 230.756 159.208 231.126 160.984 231.126Z" fill="#292C33" fill-opacity="0.6"/>
<path d="M134.288 303V300.484L144.833 290.309C145.771 289.421 146.461 288.644 146.905 287.978C147.374 287.287 147.682 286.658 147.83 286.091C148.003 285.499 148.089 284.932 148.089 284.389C148.089 283.057 147.621 282.009 146.683 281.244C145.746 280.479 144.377 280.097 142.576 280.097C141.195 280.097 139.949 280.331 138.839 280.8C137.729 281.244 136.767 281.947 135.953 282.909L133.437 280.726C134.424 279.468 135.744 278.506 137.396 277.84C139.074 277.149 140.911 276.804 142.909 276.804C144.71 276.804 146.276 277.1 147.608 277.692C148.94 278.259 149.964 279.086 150.679 280.171C151.419 281.256 151.789 282.539 151.789 284.019C151.789 284.858 151.678 285.684 151.456 286.498C151.234 287.312 150.815 288.175 150.198 289.088C149.582 290.001 148.694 291.024 147.534 292.159L138.136 301.224L137.248 299.781H152.899V303H134.288ZM164.304 303.296C162.478 303.296 160.702 303.012 158.976 302.445C157.274 301.878 155.88 301.113 154.795 300.151L156.497 297.228C157.36 298.042 158.482 298.708 159.864 299.226C161.245 299.744 162.713 300.003 164.267 300.003C166.24 300.003 167.757 299.584 168.818 298.745C169.878 297.906 170.409 296.784 170.409 295.378C170.409 294.416 170.174 293.577 169.706 292.862C169.237 292.147 168.423 291.604 167.264 291.234C166.129 290.839 164.563 290.642 162.565 290.642H156.682L158.051 277.1H172.666V280.319H159.42L161.344 278.506L160.271 289.199L158.347 287.423H163.342C165.932 287.423 168.016 287.756 169.595 288.422C171.173 289.088 172.32 290.013 173.036 291.197C173.751 292.356 174.109 293.701 174.109 295.23C174.109 296.71 173.751 298.067 173.036 299.3C172.32 300.509 171.235 301.483 169.78 302.223C168.349 302.938 166.524 303.296 164.304 303.296Z" fill="white"/>
<path d="M214.586 132.296C212.76 132.296 210.984 132.012 209.258 131.445C207.556 130.878 206.162 130.113 205.077 129.151L206.779 126.228C207.642 127.042 208.764 127.708 210.146 128.226C211.527 128.744 212.995 129.003 214.549 129.003C216.522 129.003 218.039 128.584 219.1 127.745C220.16 126.906 220.691 125.784 220.691 124.378C220.691 123.416 220.456 122.577 219.988 121.862C219.519 121.147 218.705 120.604 217.546 120.234C216.411 119.839 214.845 119.642 212.847 119.642H206.964L208.333 106.1H222.948V109.319H209.702L211.626 107.506L210.553 118.199L208.629 116.423H213.624C216.214 116.423 218.298 116.756 219.877 117.422C221.455 118.088 222.602 119.013 223.318 120.197C224.033 121.356 224.391 122.701 224.391 124.23C224.391 125.71 224.033 127.067 223.318 128.3C222.602 129.509 221.517 130.483 220.062 131.223C218.631 131.938 216.806 132.296 214.586 132.296Z" fill="white"/>
<path d="M203.742 189V164.58L205.333 166.319H197.896V163.1H207.405V189H203.742ZM212.664 189V186.484L223.209 176.309C224.146 175.421 224.837 174.644 225.281 173.978C225.749 173.287 226.058 172.658 226.206 172.091C226.378 171.499 226.465 170.932 226.465 170.389C226.465 169.057 225.996 168.009 225.059 167.244C224.121 166.479 222.752 166.097 220.952 166.097C219.57 166.097 218.325 166.331 217.215 166.8C216.105 167.244 215.143 167.947 214.329 168.909L211.813 166.726C212.799 165.468 214.119 164.506 215.772 163.84C217.449 163.149 219.287 162.804 221.285 162.804C223.085 162.804 224.652 163.1 225.984 163.692C227.316 164.259 228.339 165.086 229.055 166.171C229.795 167.256 230.165 168.539 230.165 170.019C230.165 170.858 230.054 171.684 229.832 172.498C229.61 173.312 229.19 174.175 228.574 175.088C227.957 176.001 227.069 177.024 225.91 178.159L216.512 187.224L215.624 185.781H231.275V189H212.664Z" fill="#292C33" fill-opacity="0.6"/>
<path d="M202.947 246V221.58L204.538 223.319H197.101V220.1H206.61V246H202.947ZM220.675 219.804C223.018 219.804 224.991 220.31 226.595 221.321C228.223 222.332 229.456 223.8 230.295 225.724C231.133 227.623 231.553 229.954 231.553 232.717C231.553 235.652 231.035 238.131 229.999 240.154C228.963 242.177 227.532 243.706 225.707 244.742C223.881 245.778 221.748 246.296 219.306 246.296C218.097 246.296 216.925 246.173 215.791 245.926C214.681 245.679 213.706 245.297 212.868 244.779L214.274 241.893C214.964 242.337 215.729 242.658 216.568 242.855C217.431 243.028 218.331 243.114 219.269 243.114C221.883 243.114 223.968 242.3 225.522 240.672C227.076 239.019 227.853 236.577 227.853 233.346C227.853 232.828 227.828 232.211 227.779 231.496C227.729 230.781 227.618 230.078 227.446 229.387L228.667 230.645C228.321 231.78 227.742 232.742 226.928 233.531C226.138 234.296 225.176 234.875 224.042 235.27C222.932 235.64 221.711 235.825 220.379 235.825C218.677 235.825 217.16 235.504 215.828 234.863C214.496 234.222 213.447 233.321 212.683 232.162C211.918 230.978 211.536 229.584 211.536 227.981C211.536 226.304 211.93 224.861 212.72 223.652C213.534 222.419 214.631 221.469 216.013 220.803C217.419 220.137 218.973 219.804 220.675 219.804ZM220.823 222.801C219.713 222.801 218.726 223.011 217.863 223.43C216.999 223.849 216.321 224.429 215.828 225.169C215.359 225.909 215.125 226.797 215.125 227.833C215.125 229.362 215.655 230.583 216.716 231.496C217.776 232.384 219.207 232.828 221.008 232.828C222.192 232.828 223.228 232.606 224.116 232.162C225.028 231.718 225.731 231.114 226.225 230.349C226.743 229.584 227.002 228.733 227.002 227.796C227.002 226.883 226.767 226.057 226.299 225.317C225.83 224.577 225.139 223.973 224.227 223.504C223.314 223.035 222.179 222.801 220.823 222.801Z" fill="#292C33" fill-opacity="0.6"/>
<path d="M194.416 303V300.484L204.961 290.309C205.899 289.421 206.589 288.644 207.033 287.978C207.502 287.287 207.81 286.658 207.958 286.091C208.131 285.499 208.217 284.932 208.217 284.389C208.217 283.057 207.749 282.009 206.811 281.244C205.874 280.479 204.505 280.097 202.704 280.097C201.323 280.097 200.077 280.331 198.967 280.8C197.857 281.244 196.895 281.947 196.081 282.909L193.565 280.726C194.552 279.468 195.872 278.506 197.524 277.84C199.202 277.149 201.039 276.804 203.037 276.804C204.838 276.804 206.404 277.1 207.736 277.692C209.068 278.259 210.092 279.086 210.807 280.171C211.547 281.256 211.917 282.539 211.917 284.019C211.917 284.858 211.806 285.684 211.584 286.498C211.362 287.312 210.943 288.175 210.326 289.088C209.71 290.001 208.822 291.024 207.662 292.159L198.264 301.224L197.376 299.781H213.027V303H194.416ZM226.911 303.296C224.617 303.296 222.656 302.79 221.028 301.779C219.4 300.768 218.155 299.312 217.291 297.413C216.453 295.489 216.033 293.146 216.033 290.383C216.033 287.448 216.551 284.969 217.587 282.946C218.623 280.923 220.066 279.394 221.916 278.358C223.766 277.322 225.888 276.804 228.28 276.804C229.514 276.804 230.685 276.927 231.795 277.174C232.93 277.421 233.904 277.803 234.718 278.321L233.312 281.207C232.646 280.738 231.882 280.418 231.018 280.245C230.18 280.072 229.292 279.986 228.354 279.986C225.715 279.986 223.618 280.812 222.064 282.465C220.51 284.093 219.733 286.523 219.733 289.754C219.733 290.272 219.758 290.889 219.807 291.604C219.857 292.319 219.98 293.022 220.177 293.713L218.919 292.455C219.289 291.32 219.869 290.371 220.658 289.606C221.472 288.817 222.434 288.237 223.544 287.867C224.679 287.472 225.9 287.275 227.207 287.275C228.934 287.275 230.463 287.596 231.795 288.237C233.127 288.878 234.176 289.791 234.94 290.975C235.705 292.134 236.087 293.516 236.087 295.119C236.087 296.772 235.68 298.215 234.866 299.448C234.052 300.681 232.955 301.631 231.573 302.297C230.192 302.963 228.638 303.296 226.911 303.296ZM226.763 300.299C227.898 300.299 228.885 300.089 229.723 299.67C230.587 299.251 231.265 298.671 231.758 297.931C232.252 297.166 232.498 296.278 232.498 295.267C232.498 293.738 231.968 292.529 230.907 291.641C229.847 290.728 228.404 290.272 226.578 290.272C225.394 290.272 224.358 290.494 223.47 290.938C222.582 291.382 221.879 291.986 221.361 292.751C220.868 293.491 220.621 294.342 220.621 295.304C220.621 296.192 220.856 297.018 221.324 297.783C221.793 298.523 222.484 299.127 223.396 299.596C224.309 300.065 225.431 300.299 226.763 300.299Z" fill="#292C33" fill-opacity="0.6"/>
<path d="M278.76 132.296C276.466 132.296 274.505 131.79 272.877 130.779C271.249 129.768 270.003 128.312 269.14 126.413C268.301 124.489 267.882 122.146 267.882 119.383C267.882 116.448 268.4 113.969 269.436 111.946C270.472 109.923 271.915 108.394 273.765 107.358C275.615 106.322 277.736 105.804 280.129 105.804C281.362 105.804 282.534 105.927 283.644 106.174C284.779 106.421 285.753 106.803 286.567 107.321L285.161 110.207C284.495 109.738 283.73 109.418 282.867 109.245C282.028 109.072 281.14 108.986 280.203 108.986C277.564 108.986 275.467 109.812 273.913 111.465C272.359 113.093 271.582 115.523 271.582 118.754C271.582 119.272 271.607 119.889 271.656 120.604C271.705 121.319 271.829 122.022 272.026 122.713L270.768 121.455C271.138 120.32 271.718 119.371 272.507 118.606C273.321 117.817 274.283 117.237 275.393 116.867C276.528 116.472 277.749 116.275 279.056 116.275C280.783 116.275 282.312 116.596 283.644 117.237C284.976 117.878 286.024 118.791 286.789 119.975C287.554 121.134 287.936 122.516 287.936 124.119C287.936 125.772 287.529 127.215 286.715 128.448C285.901 129.681 284.803 130.631 283.422 131.297C282.041 131.963 280.487 132.296 278.76 132.296ZM278.612 129.299C279.747 129.299 280.733 129.089 281.572 128.67C282.435 128.251 283.114 127.671 283.607 126.931C284.1 126.166 284.347 125.278 284.347 124.267C284.347 122.738 283.817 121.529 282.756 120.641C281.695 119.728 280.252 119.272 278.427 119.272C277.243 119.272 276.207 119.494 275.319 119.938C274.431 120.382 273.728 120.986 273.21 121.751C272.717 122.491 272.47 123.342 272.47 124.304C272.47 125.192 272.704 126.018 273.173 126.783C273.642 127.523 274.332 128.127 275.245 128.596C276.158 129.065 277.28 129.299 278.612 129.299Z" fill="white"/>
<path d="M266.232 189V164.58L267.823 166.319H260.386V163.1H269.895V189H266.232ZM283.478 189.296C281.653 189.296 279.877 189.012 278.15 188.445C276.448 187.878 275.055 187.113 273.969 186.151L275.671 183.228C276.535 184.042 277.657 184.708 279.038 185.226C280.42 185.744 281.9 186.003 283.478 186.003C285.402 186.003 286.895 185.596 287.955 184.782C289.041 183.943 289.583 182.821 289.583 181.415C289.583 180.058 289.065 178.973 288.029 178.159C287.018 177.32 285.402 176.901 283.182 176.901H281.11V174.311L288.806 164.839L289.324 166.319H275.153V163.1H292.247V165.616L284.588 175.051L282.664 173.904H283.885C287.018 173.904 289.361 174.607 290.915 176.013C292.494 177.419 293.283 179.207 293.283 181.378C293.283 182.833 292.926 184.165 292.21 185.374C291.495 186.583 290.41 187.545 288.954 188.26C287.524 188.951 285.698 189.296 283.478 189.296Z" fill="#292C33" fill-opacity="0.6"/>
<path d="M255.948 246V243.484L266.493 233.309C267.431 232.421 268.121 231.644 268.565 230.978C269.034 230.287 269.342 229.658 269.49 229.091C269.663 228.499 269.749 227.932 269.749 227.389C269.749 226.057 269.281 225.009 268.343 224.244C267.406 223.479 266.037 223.097 264.236 223.097C262.855 223.097 261.609 223.331 260.499 223.8C259.389 224.244 258.427 224.947 257.613 225.909L255.097 223.726C256.084 222.468 257.404 221.506 259.056 220.84C260.734 220.149 262.571 219.804 264.569 219.804C266.37 219.804 267.936 220.1 269.268 220.692C270.6 221.259 271.624 222.086 272.339 223.171C273.079 224.256 273.449 225.539 273.449 227.019C273.449 227.858 273.338 228.684 273.116 229.498C272.894 230.312 272.475 231.175 271.858 232.088C271.242 233.001 270.354 234.024 269.194 235.159L259.796 244.224L258.908 242.781H274.559V246H255.948ZM288.147 246.296C286.125 246.296 284.312 245.778 282.708 244.742C281.13 243.706 279.872 242.201 278.934 240.228C278.022 238.255 277.565 235.862 277.565 233.05C277.565 230.238 278.022 227.845 278.934 225.872C279.872 223.899 281.13 222.394 282.708 221.358C284.312 220.322 286.125 219.804 288.147 219.804C290.145 219.804 291.946 220.322 293.549 221.358C295.153 222.394 296.411 223.899 297.323 225.872C298.236 227.845 298.692 230.238 298.692 233.05C298.692 235.862 298.236 238.255 297.323 240.228C296.411 242.201 295.153 243.706 293.549 244.742C291.946 245.778 290.145 246.296 288.147 246.296ZM288.147 243.003C289.504 243.003 290.688 242.633 291.699 241.893C292.735 241.153 293.537 240.043 294.104 238.563C294.696 237.083 294.992 235.245 294.992 233.05C294.992 230.855 294.696 229.017 294.104 227.537C293.537 226.057 292.735 224.947 291.699 224.207C290.688 223.467 289.504 223.097 288.147 223.097C286.791 223.097 285.594 223.467 284.558 224.207C283.522 224.947 282.708 226.057 282.116 227.537C281.549 229.017 281.265 230.855 281.265 233.05C281.265 235.245 281.549 237.083 282.116 238.563C282.708 240.043 283.522 241.153 284.558 241.893C285.594 242.633 286.791 243.003 288.147 243.003Z" fill="#292C33" fill-opacity="0.6"/>
<path d="M257.231 303V300.484L267.776 290.309C268.714 289.421 269.404 288.644 269.848 287.978C270.317 287.287 270.625 286.658 270.773 286.091C270.946 285.499 271.032 284.932 271.032 284.389C271.032 283.057 270.564 282.009 269.626 281.244C268.689 280.479 267.32 280.097 265.519 280.097C264.138 280.097 262.892 280.331 261.782 280.8C260.672 281.244 259.71 281.947 258.896 282.909L256.38 280.726C257.367 279.468 258.687 278.506 260.339 277.84C262.017 277.149 263.854 276.804 265.852 276.804C267.653 276.804 269.219 277.1 270.551 277.692C271.883 278.259 272.907 279.086 273.622 280.171C274.362 281.256 274.732 282.539 274.732 284.019C274.732 284.858 274.621 285.684 274.399 286.498C274.177 287.312 273.758 288.175 273.141 289.088C272.525 290.001 271.637 291.024 270.477 292.159L261.079 301.224L260.191 299.781H275.842V303H257.231ZM283.325 303L294.314 278.654L295.276 280.319H279.884L281.734 278.506V284.944H278.182V277.1H297.718V279.616L287.247 303H283.325Z" fill="#292C33" fill-opacity="0.6"/>
<path d="M327.929 189V164.58L329.52 166.319H322.083V163.1H331.592V189H327.929ZM336.887 182.636V180.046L350.133 163.1H354.129L340.994 180.046L339.107 179.454H359.79V182.636H336.887ZM351.28 189V182.636L351.391 179.454V173.83H354.869V189H351.28Z" fill="#292C33" fill-opacity="0.6"/>
<path d="M324.908 246V243.484L335.453 233.309C336.391 232.421 337.081 231.644 337.525 230.978C337.994 230.287 338.302 229.658 338.45 229.091C338.623 228.499 338.709 227.932 338.709 227.389C338.709 226.057 338.241 225.009 337.303 224.244C336.366 223.479 334.997 223.097 333.196 223.097C331.815 223.097 330.569 223.331 329.459 223.8C328.349 224.244 327.387 224.947 326.573 225.909L324.057 223.726C325.044 222.468 326.364 221.506 328.016 220.84C329.694 220.149 331.531 219.804 333.529 219.804C335.33 219.804 336.896 220.1 338.228 220.692C339.56 221.259 340.584 222.086 341.299 223.171C342.039 224.256 342.409 225.539 342.409 227.019C342.409 227.858 342.298 228.684 342.076 229.498C341.854 230.312 341.435 231.175 340.818 232.088C340.202 233.001 339.314 234.024 338.154 235.159L328.756 244.224L327.868 242.781H343.519V246H324.908ZM350.927 246V221.58L352.518 223.319H345.081V220.1H354.59V246H350.927Z" fill="#292C33" fill-opacity="0.6"/>
<path d="M319.85 303V300.484L330.395 290.309C331.332 289.421 332.023 288.644 332.467 287.978C332.935 287.287 333.244 286.658 333.392 286.091C333.564 285.499 333.651 284.932 333.651 284.389C333.651 283.057 333.182 282.009 332.245 281.244C331.307 280.479 329.938 280.097 328.138 280.097C326.756 280.097 325.511 280.331 324.401 280.8C323.291 281.244 322.329 281.947 321.515 282.909L318.999 280.726C319.985 279.468 321.305 278.506 322.958 277.84C324.635 277.149 326.473 276.804 328.471 276.804C330.271 276.804 331.838 277.1 333.17 277.692C334.502 278.259 335.525 279.086 336.241 280.171C336.981 281.256 337.351 282.539 337.351 284.019C337.351 284.858 337.24 285.684 337.018 286.498C336.796 287.312 336.376 288.175 335.76 289.088C335.143 290.001 334.255 291.024 333.096 292.159L323.698 301.224L322.81 299.781H338.461V303H319.85ZM351.604 303.296C349.507 303.296 347.694 302.988 346.165 302.371C344.635 301.754 343.451 300.879 342.613 299.744C341.774 298.585 341.355 297.228 341.355 295.674C341.355 294.145 341.749 292.85 342.539 291.789C343.353 290.704 344.524 289.89 346.054 289.347C347.583 288.78 349.433 288.496 351.604 288.496C353.774 288.496 355.624 288.78 357.154 289.347C358.708 289.89 359.892 290.704 360.706 291.789C361.52 292.874 361.927 294.169 361.927 295.674C361.927 297.228 361.507 298.585 360.669 299.744C359.83 300.879 358.634 301.754 357.08 302.371C355.526 302.988 353.7 303.296 351.604 303.296ZM351.604 300.299C353.676 300.299 355.291 299.88 356.451 299.041C357.635 298.178 358.227 297.018 358.227 295.563C358.227 294.132 357.635 293.01 356.451 292.196C355.291 291.357 353.676 290.938 351.604 290.938C349.556 290.938 347.953 291.357 346.794 292.196C345.634 293.01 345.055 294.132 345.055 295.563C345.055 297.018 345.634 298.178 346.794 299.041C347.953 299.88 349.556 300.299 351.604 300.299ZM351.604 290.494C349.63 290.494 347.953 290.235 346.572 289.717C345.19 289.174 344.13 288.41 343.39 287.423C342.65 286.412 342.28 285.215 342.28 283.834C342.28 282.379 342.662 281.133 343.427 280.097C344.216 279.036 345.314 278.222 346.72 277.655C348.126 277.088 349.754 276.804 351.604 276.804C353.478 276.804 355.119 277.088 356.525 277.655C357.931 278.222 359.028 279.036 359.818 280.097C360.607 281.133 361.002 282.379 361.002 283.834C361.002 285.215 360.632 286.412 359.892 287.423C359.152 288.41 358.079 289.174 356.673 289.717C355.267 290.235 353.577 290.494 351.604 290.494ZM351.604 288.126C353.404 288.126 354.81 287.756 355.822 287.016C356.858 286.276 357.376 285.265 357.376 283.982C357.376 282.675 356.845 281.651 355.785 280.911C354.724 280.171 353.33 279.801 351.604 279.801C349.877 279.801 348.496 280.171 347.46 280.911C346.448 281.651 345.943 282.675 345.943 283.982C345.943 285.265 346.436 286.276 347.423 287.016C348.434 287.756 349.828 288.126 351.604 288.126Z" fill="#292C33" fill-opacity="0.6"/>
<path d="M336.206 132L347.195 107.654L348.157 109.319H332.765L334.615 107.506V113.944H331.063V106.1H350.599V108.616L340.128 132H336.206Z" fill="#292C33" fill-opacity="0.6"/>
<path d="M407.568 78.1351V53.7151L409.159 55.4541H401.722V52.2351H411.231V78.1351H407.568Z" fill="#292C33" fill-opacity="0.6"/>
</g>
</g>
</g>
<defs>
<clipPath id="clip0_3525_5539">
<rect width="431" height="366" fill="white" transform="translate(0.5)"/>
</clipPath>
</defs>
</svg>
