<svg width="431" height="366" viewBox="0 0 431 366" fill="none" xmlns="http://www.w3.org/2000/svg">
<g clip-path="url(#clip0_532_3207)">
<rect width="57" height="47" transform="translate(123.519 267.125)" fill="#3C78EC"/>
<rect width="57" height="47" transform="translate(60 96)" fill="#E4793D"/>
<rect width="57" height="47" transform="translate(124 96)" fill="#E4793D"/>
<rect width="57" height="47" transform="translate(188 96)" fill="#E4793D"/>
<rect width="57" height="47" transform="translate(252 96)" fill="#E4793D"/>
<rect width="57" height="47" transform="translate(316 96)" fill="#E4793D"/>
<path d="M22.9564 20.7264H20.3476V3.36139H10.8906V20.7264H8.2002V1.32324H22.8749V20.7264H22.9564Z" fill="#B3B3B3"/>
<path d="M38.7725 20.7264H36.1636V14.6119H29.7231V20.7264H27.1143V6.29626H29.7231V12.5738H36.1636V6.29626H38.7725V20.7264Z" fill="#B3B3B3"/>
<path d="M73 20.7264V1.32324H79.359C81.3972 1.32324 82.9462 1.73087 84.0875 2.62766C85.2289 3.52444 85.7996 4.82886 85.7996 6.5409C85.7996 7.35616 85.555 8.08989 85.0658 8.82363C84.5767 9.55736 83.8429 9.96499 83.0277 10.2911C84.3321 10.4541 85.3104 11.0248 86.0441 11.9216C86.7779 12.8184 87.1855 13.9598 87.1855 15.1826C87.1855 16.9762 86.6148 18.2806 85.4735 19.2589C84.3321 20.2373 82.7831 20.6449 80.745 20.6449H73V20.7264ZM75.6904 9.55736H79.9297C80.908 9.55736 81.7233 9.31278 82.294 8.7421C82.9462 8.17142 83.1907 7.43769 83.1907 6.45937C83.1907 5.39954 82.8646 4.6658 82.2124 4.09512C81.5602 3.60597 80.5819 3.27986 79.359 3.27986H75.6904V9.55736ZM75.6904 11.5955V18.6067H80.745C81.9678 18.6067 82.8646 18.2806 83.5168 17.71C84.1691 17.1393 84.4952 16.2425 84.4952 15.1826C84.4952 14.1228 84.1691 13.226 83.5168 12.5738C82.8646 11.9216 81.9678 11.5955 80.745 11.514H80.5819H75.6904V11.5955Z" fill="#B3B3B3"/>
<path d="M101.126 8.33441H96.3976V20.7264H93.7888V8.33441H89.0603V6.29626H101.126V8.33441Z" fill="#B3B3B3"/>
<path d="M150.512 14.5304C150.593 16.4055 149.941 17.9545 148.637 19.1773C147.332 20.4002 145.62 21.0524 143.419 21.0524C141.218 21.0524 139.424 20.2372 138.038 18.6882C136.652 17.1392 136 15.1826 136 12.7368V9.31271C136 6.94846 136.652 4.91031 138.038 3.36132C139.424 1.81233 141.218 0.99707 143.419 0.99707C145.62 0.99707 147.332 1.56775 148.637 2.70911C149.941 3.85048 150.593 5.39947 150.512 7.35609V7.43762H147.984C147.984 6.05168 147.577 4.99184 146.761 4.17658C145.946 3.36132 144.805 2.95369 143.337 2.95369C141.87 2.95369 140.729 3.52437 139.832 4.74726C138.935 5.88862 138.527 7.35609 138.527 9.14966V12.6553C138.527 14.4488 138.935 15.9163 139.832 17.0577C140.729 18.199 141.87 18.8512 143.337 18.8512C144.805 18.8512 145.946 18.4436 146.761 17.7099C147.577 16.8946 147.984 15.8348 147.984 14.4488H150.512V14.5304Z" fill="#B3B3B3"/>
<path d="M165.92 14.0413C165.92 16.161 165.431 17.7915 164.453 19.0959C163.474 20.4003 162.088 20.971 160.295 20.971C159.398 20.971 158.664 20.8079 157.93 20.5634C157.278 20.2373 156.708 19.8296 156.218 19.259V26.2702H153.61V6.29634H155.648L156.055 8.17143C156.545 7.4377 157.115 6.94854 157.849 6.62244C158.583 6.29634 159.398 6.05176 160.295 6.05176C162.088 6.05176 163.474 6.78549 164.453 8.17143C165.431 9.55737 165.92 11.4325 165.92 13.7967V14.0413ZM163.311 13.7967C163.311 12.1662 162.985 10.7803 162.333 9.80195C161.681 8.82364 160.702 8.25296 159.479 8.25296C158.746 8.25296 158.094 8.41601 157.523 8.74211C156.952 9.06822 156.545 9.55737 156.218 10.1281V17.1393C156.545 17.71 156.952 18.1991 157.523 18.5252C158.094 18.8513 158.746 19.0144 159.479 19.0144C160.702 19.0144 161.681 18.5252 162.333 17.6284C162.985 16.7317 163.311 15.5088 163.311 14.1228V13.7967Z" fill="#B3B3B3"/>
<path d="M215.43 1.32324V20.7264H212.821V12.6553C212.006 12.8999 211.191 13.063 210.375 13.226C209.56 13.3076 208.663 13.3891 207.522 13.3891C205.402 13.3891 203.772 12.8999 202.631 12.0031C201.489 11.1064 201 9.55736 201 7.43769V1.32324H203.609V7.43769C203.609 8.90515 203.935 9.88346 204.506 10.4541C205.158 11.0248 206.136 11.2694 207.441 11.2694C208.337 11.2694 209.234 11.1879 210.131 11.1064C210.946 10.9433 211.843 10.7802 212.74 10.5357V1.32324H215.43Z" fill="#B3B3B3"/>
<path d="M230.675 8.33441H225.947V20.7264H223.338V8.33441H218.61V6.29626H230.675V8.33441Z" fill="#B3B3B3"/>
<path d="M279.675 20.7264H277.066V3.36139H267.609V20.7264H265V1.32324H279.675V20.7264Z" fill="#B3B3B3"/>
<path d="M294.92 8.33453H290.192V20.7265H287.583V8.33453H282.854V6.29639H294.92V8.33453Z" fill="#B3B3B3"/>
<path d="M344.512 14.5302C344.593 16.4053 343.941 17.9543 342.637 19.1772C341.332 20.4001 339.62 21.0523 337.419 21.0523C335.218 21.0523 333.424 20.237 332.038 18.688C330.652 17.139 330 15.1824 330 12.7366V9.31253C330 6.94828 330.652 4.91013 332.038 3.36114C333.424 1.81215 335.218 0.996887 337.419 0.996887C339.62 0.996887 341.332 1.56757 342.637 2.70893C343.941 3.85029 344.593 5.39929 344.512 7.35591V7.43743H341.984C341.984 6.05149 341.577 4.99166 340.761 4.1764C339.946 3.36114 338.805 2.95351 337.337 2.95351C335.87 2.95351 334.729 3.52419 333.832 4.74708C332.935 5.88844 332.527 7.35591 332.527 9.14948V12.6551C332.527 14.4487 332.935 15.9161 333.832 17.0575C334.729 18.1989 335.87 18.8511 337.337 18.8511C338.805 18.8511 339.946 18.4434 340.761 17.7097C341.577 16.8944 341.984 15.8346 341.984 14.4487H344.512V14.5302Z" fill="#B3B3B3"/>
<path d="M353.887 6.05149C355.762 6.05149 357.148 6.7037 358.208 8.08964C359.268 9.47558 359.838 11.1876 359.838 13.3888V13.7149C359.838 15.8346 359.268 17.6282 358.126 19.0141C356.985 20.4 355.436 21.0523 353.398 21.0523C351.36 21.0523 349.811 20.4 348.669 19.0141C347.528 17.6282 346.957 15.9161 346.957 13.7149V13.3888C346.957 13.3073 346.957 13.2258 346.957 13.2258C346.957 13.1442 346.957 13.1442 346.957 13.0627V9.96473C346.957 7.19285 347.528 5.23623 348.588 3.93182C349.648 2.6274 351.278 1.97519 353.398 1.81214C354.621 1.73062 355.599 1.56756 356.251 1.32299C356.903 1.07841 357.23 0.670779 357.23 0.100098H359.268V0.181624C359.349 1.56756 358.86 2.54587 357.882 3.11656C356.903 3.68724 355.517 4.01334 353.642 4.01334C352.256 4.01334 351.197 4.42097 350.381 5.1547C349.566 5.88844 349.158 6.94827 349.158 8.33421V8.41574C349.648 7.76353 350.381 7.19285 351.197 6.78522C352.012 6.37759 352.99 6.05149 353.887 6.05149ZM353.398 8.08964C352.175 8.08964 351.197 8.57879 350.544 9.5571C349.892 10.5354 349.566 11.8398 349.566 13.3073V13.6334C349.566 15.1824 349.892 16.4053 350.544 17.3836C351.197 18.3619 352.175 18.8511 353.398 18.8511C354.621 18.8511 355.599 18.3619 356.251 17.3836C356.903 16.4053 357.23 15.1009 357.23 13.6334V13.3073C357.23 11.7583 356.903 10.5354 356.251 9.5571C355.599 8.57879 354.621 8.08964 353.398 8.08964Z" fill="#B3B3B3"/>
<path d="M394 20.7264V1.32324H400.359C402.397 1.32324 403.946 1.73087 405.088 2.62766C406.229 3.52444 406.8 4.82886 406.8 6.5409C406.8 7.35616 406.555 8.08989 406.066 8.82363C405.577 9.55736 404.843 9.96499 404.028 10.3726C405.332 10.5357 406.31 11.1064 407.044 12.0031C407.778 12.8999 408.186 14.0413 408.186 15.2642C408.186 17.0577 407.615 18.3622 406.473 19.3405C405.332 20.3188 403.783 20.7264 401.745 20.7264H394ZM396.69 9.55736H400.93C401.908 9.55736 402.723 9.31278 403.294 8.7421C403.946 8.17142 404.191 7.43769 404.191 6.45937C404.191 5.39954 403.865 4.6658 403.212 4.09512C402.56 3.60597 401.582 3.27986 400.359 3.27986H396.69V9.55736ZM396.69 11.5955V18.6067H401.745C402.968 18.6067 403.865 18.2806 404.517 17.71C405.169 17.1393 405.495 16.2425 405.495 15.1826C405.495 14.1228 405.169 13.226 404.517 12.5738C403.865 11.9216 402.968 11.5955 401.745 11.514H401.582H396.69V11.5955Z" fill="#B3B3B3"/>
<path d="M416.745 18.9326C417.561 18.9326 418.294 18.688 418.865 18.1173C419.436 17.5466 419.762 16.8944 419.762 16.1607H422.126V16.2422C422.126 17.4651 421.637 18.6065 420.496 19.5848C419.354 20.5631 418.131 21.0522 416.664 21.0522C414.626 21.0522 413.077 20.4 411.935 19.0141C410.794 17.6281 410.305 15.9161 410.305 13.878V13.3073C410.305 11.2691 410.876 9.55708 411.935 8.17114C413.077 6.7852 414.626 6.133 416.582 6.133C418.213 6.133 419.517 6.62215 420.496 7.60046C421.474 8.57877 422.045 9.80166 421.963 11.2691V11.3507H419.599C419.599 10.4539 419.273 9.72014 418.702 9.06793C418.131 8.41572 417.398 8.17114 416.501 8.17114C415.196 8.17114 414.3 8.6603 413.647 9.63861C413.077 10.6169 412.751 11.8398 412.751 13.3073V13.878C412.751 15.3454 413.077 16.5683 413.647 17.5466C414.544 18.4434 415.441 18.9326 416.745 18.9326Z" fill="#B3B3B3"/>
<path d="M406.45 132.296C404.353 132.296 402.54 131.988 401.011 131.371C399.482 130.754 398.298 129.879 397.459 128.744C396.62 127.585 396.201 126.228 396.201 124.674C396.201 123.145 396.596 121.85 397.385 120.789C398.199 119.704 399.371 118.89 400.9 118.347C402.429 117.78 404.279 117.496 406.45 117.496C408.621 117.496 410.471 117.78 412 118.347C413.554 118.89 414.738 119.704 415.552 120.789C416.366 121.874 416.773 123.169 416.773 124.674C416.773 126.228 416.354 127.585 415.515 128.744C414.676 129.879 413.48 130.754 411.926 131.371C410.372 131.988 408.547 132.296 406.45 132.296ZM406.45 129.299C408.522 129.299 410.138 128.88 411.297 128.041C412.481 127.178 413.073 126.018 413.073 124.563C413.073 123.132 412.481 122.01 411.297 121.196C410.138 120.357 408.522 119.938 406.45 119.938C404.403 119.938 402.799 120.357 401.64 121.196C400.481 122.01 399.901 123.132 399.901 124.563C399.901 126.018 400.481 127.178 401.64 128.041C402.799 128.88 404.403 129.299 406.45 129.299ZM406.45 119.494C404.477 119.494 402.799 119.235 401.418 118.717C400.037 118.174 398.976 117.41 398.236 116.423C397.496 115.412 397.126 114.215 397.126 112.834C397.126 111.379 397.508 110.133 398.273 109.097C399.062 108.036 400.16 107.222 401.566 106.655C402.972 106.088 404.6 105.804 406.45 105.804C408.325 105.804 409.965 106.088 411.371 106.655C412.777 107.222 413.875 108.036 414.664 109.097C415.453 110.133 415.848 111.379 415.848 112.834C415.848 114.215 415.478 115.412 414.738 116.423C413.998 117.41 412.925 118.174 411.519 118.717C410.113 119.235 408.423 119.494 406.45 119.494ZM406.45 117.126C408.251 117.126 409.657 116.756 410.668 116.016C411.704 115.276 412.222 114.265 412.222 112.982C412.222 111.675 411.692 110.651 410.631 109.911C409.57 109.171 408.177 108.801 406.45 108.801C404.723 108.801 403.342 109.171 402.306 109.911C401.295 110.651 400.789 111.675 400.789 112.982C400.789 114.265 401.282 115.276 402.269 116.016C403.28 116.756 404.674 117.126 406.45 117.126Z" fill="#292C33"/>
<path d="M395.151 189V164.58L396.742 166.319H389.305V163.1H398.814V189H395.151ZM412.841 189.296C411.016 189.296 409.24 189.012 407.513 188.445C405.811 187.878 404.417 187.113 403.332 186.151L405.034 183.228C405.897 184.042 407.02 184.708 408.401 185.226C409.782 185.744 411.25 186.003 412.804 186.003C414.777 186.003 416.294 185.584 417.355 184.745C418.416 183.906 418.946 182.784 418.946 181.378C418.946 180.416 418.712 179.577 418.243 178.862C417.774 178.147 416.96 177.604 415.801 177.234C414.666 176.839 413.1 176.642 411.102 176.642H405.219L406.588 163.1H421.203V166.319H407.957L409.881 164.506L408.808 175.199L406.884 173.423H411.879C414.469 173.423 416.553 173.756 418.132 174.422C419.711 175.088 420.858 176.013 421.573 177.197C422.288 178.356 422.646 179.701 422.646 181.23C422.646 182.71 422.288 184.067 421.573 185.3C420.858 186.509 419.772 187.483 418.317 188.223C416.886 188.938 415.061 189.296 412.841 189.296Z" fill="#292C33"/>
<path d="M386.602 246V243.484L397.147 233.309C398.084 232.421 398.775 231.644 399.219 230.978C399.687 230.287 399.996 229.658 400.144 229.091C400.316 228.499 400.403 227.932 400.403 227.389C400.403 226.057 399.934 225.009 398.997 224.244C398.059 223.479 396.69 223.097 394.89 223.097C393.508 223.097 392.263 223.331 391.153 223.8C390.043 224.244 389.081 224.947 388.267 225.909L385.751 223.726C386.737 222.468 388.057 221.506 389.71 220.84C391.387 220.149 393.225 219.804 395.223 219.804C397.023 219.804 398.59 220.1 399.922 220.692C401.254 221.259 402.277 222.086 402.993 223.171C403.733 224.256 404.103 225.539 404.103 227.019C404.103 227.858 403.992 228.684 403.77 229.498C403.548 230.312 403.128 231.175 402.512 232.088C401.895 233.001 401.007 234.024 399.848 235.159L390.45 244.224L389.562 242.781H405.213V246H386.602ZM407.848 246V243.484L418.393 233.309C419.33 232.421 420.021 231.644 420.465 230.978C420.933 230.287 421.242 229.658 421.39 229.091C421.562 228.499 421.649 227.932 421.649 227.389C421.649 226.057 421.18 225.009 420.243 224.244C419.305 223.479 417.936 223.097 416.136 223.097C414.754 223.097 413.509 223.331 412.399 223.8C411.289 224.244 410.327 224.947 409.513 225.909L406.997 223.726C407.983 222.468 409.303 221.506 410.956 220.84C412.633 220.149 414.471 219.804 416.469 219.804C418.269 219.804 419.836 220.1 421.168 220.692C422.5 221.259 423.523 222.086 424.239 223.171C424.979 224.256 425.349 225.539 425.349 227.019C425.349 227.858 425.238 228.684 425.016 229.498C424.794 230.312 424.374 231.175 423.758 232.088C423.141 233.001 422.253 234.024 421.094 235.159L411.696 244.224L410.808 242.781H426.459V246H407.848Z" fill="#292C33"/>
<path d="M385.807 303V300.484L396.352 290.309C397.289 289.421 397.98 288.644 398.424 287.978C398.893 287.287 399.201 286.658 399.349 286.091C399.522 285.499 399.608 284.932 399.608 284.389C399.608 283.057 399.139 282.009 398.202 281.244C397.265 280.479 395.896 280.097 394.095 280.097C392.714 280.097 391.468 280.331 390.358 280.8C389.248 281.244 388.286 281.947 387.472 282.909L384.956 280.726C385.943 279.468 387.262 278.506 388.915 277.84C390.592 277.149 392.43 276.804 394.428 276.804C396.229 276.804 397.795 277.1 399.127 277.692C400.459 278.259 401.483 279.086 402.198 280.171C402.938 281.256 403.308 282.539 403.308 284.019C403.308 284.858 403.197 285.684 402.975 286.498C402.753 287.312 402.334 288.175 401.717 289.088C401.1 290.001 400.212 291.024 399.053 292.159L389.655 301.224L388.767 299.781H404.418V303H385.807ZM415.859 276.804C418.202 276.804 420.176 277.31 421.779 278.321C423.407 279.332 424.64 280.8 425.479 282.724C426.318 284.623 426.737 286.954 426.737 289.717C426.737 292.652 426.219 295.131 425.183 297.154C424.147 299.177 422.716 300.706 420.891 301.742C419.066 302.778 416.932 303.296 414.49 303.296C413.281 303.296 412.11 303.173 410.975 302.926C409.865 302.679 408.891 302.297 408.052 301.779L409.458 298.893C410.149 299.337 410.913 299.658 411.752 299.855C412.615 300.028 413.516 300.114 414.453 300.114C417.068 300.114 419.152 299.3 420.706 297.672C422.26 296.019 423.037 293.577 423.037 290.346C423.037 289.828 423.012 289.211 422.963 288.496C422.914 287.781 422.803 287.078 422.63 286.387L423.851 287.645C423.506 288.78 422.926 289.742 422.112 290.531C421.323 291.296 420.361 291.875 419.226 292.27C418.116 292.64 416.895 292.825 415.563 292.825C413.861 292.825 412.344 292.504 411.012 291.863C409.68 291.222 408.632 290.321 407.867 289.162C407.102 287.978 406.72 286.584 406.72 284.981C406.72 283.304 407.115 281.861 407.904 280.652C408.718 279.419 409.816 278.469 411.197 277.803C412.603 277.137 414.157 276.804 415.859 276.804ZM416.007 279.801C414.897 279.801 413.91 280.011 413.047 280.43C412.184 280.849 411.505 281.429 411.012 282.169C410.543 282.909 410.309 283.797 410.309 284.833C410.309 286.362 410.839 287.583 411.9 288.496C412.961 289.384 414.391 289.828 416.192 289.828C417.376 289.828 418.412 289.606 419.3 289.162C420.213 288.718 420.916 288.114 421.409 287.349C421.927 286.584 422.186 285.733 422.186 284.796C422.186 283.883 421.952 283.057 421.483 282.317C421.014 281.577 420.324 280.973 419.411 280.504C418.498 280.035 417.364 279.801 416.007 279.801Z" fill="#292C33"/>
<path d="M18.9887 132V129.484L29.5337 119.309C30.471 118.421 31.1617 117.644 31.6057 116.978C32.0743 116.287 32.3827 115.658 32.5307 115.091C32.7033 114.499 32.7897 113.932 32.7897 113.389C32.7897 112.057 32.321 111.009 31.3837 110.244C30.4463 109.479 29.0773 109.097 27.2767 109.097C25.8953 109.097 24.6497 109.331 23.5397 109.8C22.4297 110.244 21.4677 110.947 20.6537 111.909L18.1377 109.726C19.1243 108.468 20.444 107.506 22.0967 106.84C23.774 106.149 25.6117 105.804 27.6097 105.804C29.4103 105.804 30.9767 106.1 32.3087 106.692C33.6407 107.259 34.6643 108.086 35.3797 109.171C36.1197 110.256 36.4897 111.539 36.4897 113.019C36.4897 113.858 36.3787 114.684 36.1567 115.498C35.9347 116.312 35.5153 117.175 34.8987 118.088C34.282 119.001 33.394 120.024 32.2347 121.159L22.8367 130.224L21.9487 128.781H37.5997V132H18.9887Z" fill="#292C33"/>
<path d="M26.9998 162.804C29.3431 162.804 31.3164 163.31 32.9198 164.321C34.5478 165.332 35.7811 166.8 36.6198 168.724C37.4584 170.623 37.8778 172.954 37.8778 175.717C37.8778 178.652 37.3598 181.131 36.3238 183.154C35.2878 185.177 33.8571 186.706 32.0318 187.742C30.2064 188.778 28.0728 189.296 25.6308 189.296C24.4221 189.296 23.2504 189.173 22.1158 188.926C21.0058 188.679 20.0314 188.297 19.1928 187.779L20.5988 184.893C21.2894 185.337 22.0541 185.658 22.8928 185.855C23.7561 186.028 24.6564 186.114 25.5938 186.114C28.2084 186.114 30.2928 185.3 31.8468 183.672C33.4008 182.019 34.1778 179.577 34.1778 176.346C34.1778 175.828 34.1531 175.211 34.1038 174.496C34.0544 173.781 33.9434 173.078 33.7708 172.387L34.9918 173.645C34.6464 174.78 34.0668 175.742 33.2528 176.531C32.4634 177.296 31.5014 177.875 30.3668 178.27C29.2568 178.64 28.0358 178.825 26.7038 178.825C25.0018 178.825 23.4848 178.504 22.1528 177.863C20.8208 177.222 19.7724 176.321 19.0078 175.162C18.2431 173.978 17.8608 172.584 17.8608 170.981C17.8608 169.304 18.2554 167.861 19.0448 166.652C19.8588 165.419 20.9564 164.469 22.3378 163.803C23.7438 163.137 25.2978 162.804 26.9998 162.804ZM27.1478 165.801C26.0378 165.801 25.0511 166.011 24.1878 166.43C23.3244 166.849 22.6461 167.429 22.1528 168.169C21.6841 168.909 21.4498 169.797 21.4498 170.833C21.4498 172.362 21.9801 173.583 23.0408 174.496C24.1014 175.384 25.5321 175.828 27.3328 175.828C28.5168 175.828 29.5528 175.606 30.4408 175.162C31.3534 174.718 32.0564 174.114 32.5498 173.349C33.0678 172.584 33.3268 171.733 33.3268 170.796C33.3268 169.883 33.0924 169.057 32.6238 168.317C32.1551 167.577 31.4644 166.973 30.5518 166.504C29.6391 166.035 28.5044 165.801 27.1478 165.801Z" fill="#292C33"/>
<path d="M16.1196 246V221.58L17.7106 223.319H10.2736V220.1H19.7826V246H16.1196ZM36.326 246.296C34.032 246.296 32.071 245.79 30.443 244.779C28.815 243.768 27.5693 242.312 26.706 240.413C25.8673 238.489 25.448 236.146 25.448 233.383C25.448 230.448 25.966 227.969 27.002 225.946C28.038 223.923 29.481 222.394 31.331 221.358C33.181 220.322 35.3023 219.804 37.695 219.804C38.9283 219.804 40.1 219.927 41.21 220.174C42.3446 220.421 43.319 220.803 44.133 221.321L42.727 224.207C42.061 223.738 41.2963 223.418 40.433 223.245C39.5943 223.072 38.7063 222.986 37.769 222.986C35.1296 222.986 33.033 223.812 31.479 225.465C29.925 227.093 29.148 229.523 29.148 232.754C29.148 233.272 29.1726 233.889 29.222 234.604C29.2713 235.319 29.3946 236.022 29.592 236.713L28.334 235.455C28.704 234.32 29.2836 233.371 30.073 232.606C30.887 231.817 31.849 231.237 32.959 230.867C34.0936 230.472 35.3146 230.275 36.622 230.275C38.3486 230.275 39.878 230.596 41.21 231.237C42.542 231.878 43.5903 232.791 44.355 233.975C45.1196 235.134 45.502 236.516 45.502 238.119C45.502 239.772 45.095 241.215 44.281 242.448C43.467 243.681 42.3693 244.631 40.988 245.297C39.6066 245.963 38.0526 246.296 36.326 246.296ZM36.178 243.299C37.3126 243.299 38.2993 243.089 39.138 242.67C40.0013 242.251 40.6796 241.671 41.173 240.931C41.6663 240.166 41.913 239.278 41.913 238.267C41.913 236.738 41.3826 235.529 40.322 234.641C39.2613 233.728 37.8183 233.272 35.993 233.272C34.809 233.272 33.773 233.494 32.885 233.938C31.997 234.382 31.294 234.986 30.776 235.751C30.2826 236.491 30.036 237.342 30.036 238.304C30.036 239.192 30.2703 240.018 30.739 240.783C31.2076 241.523 31.8983 242.127 32.811 242.596C33.7236 243.065 34.846 243.299 36.178 243.299Z" fill="#292C33"/>
<path d="M8.40176 303V300.484L18.9468 290.309C19.8841 289.421 20.5748 288.644 21.0188 287.978C21.4874 287.287 21.7958 286.658 21.9438 286.091C22.1164 285.499 22.2028 284.932 22.2028 284.389C22.2028 283.057 21.7341 282.009 20.7968 281.244C19.8594 280.479 18.4904 280.097 16.6898 280.097C15.3084 280.097 14.0628 280.331 12.9528 280.8C11.8428 281.244 10.8808 281.947 10.0668 282.909L7.55076 280.726C8.53742 279.468 9.85709 278.506 11.5098 277.84C13.1871 277.149 15.0248 276.804 17.0228 276.804C18.8234 276.804 20.3898 277.1 21.7218 277.692C23.0538 278.259 24.0774 279.086 24.7928 280.171C25.5328 281.256 25.9028 282.539 25.9028 284.019C25.9028 284.858 25.7918 285.684 25.5698 286.498C25.3478 287.312 24.9284 288.175 24.3118 289.088C23.6951 290.001 22.8071 291.024 21.6478 292.159L12.2498 301.224L11.3618 299.781H27.0128V303H8.40176ZM37.9729 303.296C36.1475 303.296 34.3715 303.012 32.6449 302.445C30.9429 301.878 29.5492 301.113 28.4639 300.151L30.1659 297.228C31.0292 298.042 32.1515 298.708 33.5329 299.226C34.9142 299.744 36.3942 300.003 37.9729 300.003C39.8969 300.003 41.3892 299.596 42.4499 298.782C43.5352 297.943 44.0779 296.821 44.0779 295.415C44.0779 294.058 43.5599 292.973 42.5239 292.159C41.5125 291.32 39.8969 290.901 37.6769 290.901H35.6049V288.311L43.3009 278.839L43.8189 280.319H29.6479V277.1H46.7419V279.616L39.0829 289.051L37.1589 287.904H38.3799C41.5125 287.904 43.8559 288.607 45.4099 290.013C46.9885 291.419 47.7779 293.207 47.7779 295.378C47.7779 296.833 47.4202 298.165 46.7049 299.374C45.9895 300.583 44.9042 301.545 43.4489 302.26C42.0182 302.951 40.1929 303.296 37.9729 303.296Z" fill="#292C33"/>
<path d="M15.0106 360.296C13.1852 360.296 11.4092 360.012 9.68255 359.445C7.98055 358.878 6.58689 358.113 5.50155 357.151L7.20355 354.228C8.06689 355.042 9.18922 355.708 10.5706 356.226C11.9519 356.744 13.4319 357.003 15.0106 357.003C16.9346 357.003 18.4269 356.596 19.4876 355.782C20.5729 354.943 21.1156 353.821 21.1156 352.415C21.1156 351.058 20.5976 349.973 19.5616 349.159C18.5502 348.32 16.9346 347.901 14.7146 347.901H12.6426V345.311L20.3386 335.839L20.8566 337.319H6.68555V334.1H23.7796V336.616L16.1206 346.051L14.1966 344.904H15.4176C18.5502 344.904 20.8936 345.607 22.4476 347.013C24.0262 348.419 24.8156 350.207 24.8156 352.378C24.8156 353.833 24.4579 355.165 23.7426 356.374C23.0272 357.583 21.9419 358.545 20.4866 359.26C19.0559 359.951 17.2306 360.296 15.0106 360.296ZM38.8484 360.296C36.8257 360.296 35.0127 359.778 33.4094 358.742C31.8307 357.706 30.5727 356.201 29.6354 354.228C28.7227 352.255 28.2664 349.862 28.2664 347.05C28.2664 344.238 28.7227 341.845 29.6354 339.872C30.5727 337.899 31.8307 336.394 33.4094 335.358C35.0127 334.322 36.8257 333.804 38.8484 333.804C40.8464 333.804 42.647 334.322 44.2504 335.358C45.8537 336.394 47.1117 337.899 48.0244 339.872C48.937 341.845 49.3934 344.238 49.3934 347.05C49.3934 349.862 48.937 352.255 48.0244 354.228C47.1117 356.201 45.8537 357.706 44.2504 358.742C42.647 359.778 40.8464 360.296 38.8484 360.296ZM38.8484 357.003C40.205 357.003 41.389 356.633 42.4004 355.893C43.4364 355.153 44.238 354.043 44.8054 352.563C45.3974 351.083 45.6934 349.245 45.6934 347.05C45.6934 344.855 45.3974 343.017 44.8054 341.537C44.238 340.057 43.4364 338.947 42.4004 338.207C41.389 337.467 40.205 337.097 38.8484 337.097C37.4917 337.097 36.2954 337.467 35.2594 338.207C34.2234 338.947 33.4094 340.057 32.8174 341.537C32.25 343.017 31.9664 344.855 31.9664 347.05C31.9664 349.245 32.25 351.083 32.8174 352.563C33.4094 354.043 34.2234 355.153 35.2594 355.893C36.2954 356.633 37.4917 357.003 38.8484 357.003Z" fill="#292C33"/>
<path d="M90.8356 132.296C89.0103 132.296 87.2343 132.012 85.5076 131.445C83.8056 130.878 82.412 130.113 81.3266 129.151L83.0286 126.228C83.892 127.042 85.0143 127.708 86.3956 128.226C87.777 128.744 89.257 129.003 90.8356 129.003C92.7596 129.003 94.252 128.596 95.3126 127.782C96.398 126.943 96.9406 125.821 96.9406 124.415C96.9406 123.058 96.4226 121.973 95.3866 121.159C94.3753 120.32 92.7596 119.901 90.5396 119.901H88.4676V117.311L96.1636 107.839L96.6816 109.319H82.5106V106.1H99.6046V108.616L91.9456 118.051L90.0216 116.904H91.2426C94.3753 116.904 96.7186 117.607 98.2726 119.013C99.8513 120.419 100.641 122.207 100.641 124.378C100.641 125.833 100.283 127.165 99.5676 128.374C98.8523 129.583 97.767 130.545 96.3116 131.26C94.881 131.951 93.0556 132.296 90.8356 132.296Z" fill="white"/>
<path d="M78.6839 189V164.58L80.2749 166.319H72.8379V163.1H82.3469V189H78.6839ZM98.5942 189.296C96.5716 189.296 94.7586 188.778 93.1552 187.742C91.5766 186.706 90.3186 185.201 89.3812 183.228C88.4686 181.255 88.0122 178.862 88.0122 176.05C88.0122 173.238 88.4686 170.845 89.3812 168.872C90.3186 166.899 91.5766 165.394 93.1552 164.358C94.7586 163.322 96.5716 162.804 98.5942 162.804C100.592 162.804 102.393 163.322 103.996 164.358C105.6 165.394 106.858 166.899 107.77 168.872C108.683 170.845 109.139 173.238 109.139 176.05C109.139 178.862 108.683 181.255 107.77 183.228C106.858 185.201 105.6 186.706 103.996 187.742C102.393 188.778 100.592 189.296 98.5942 189.296ZM98.5942 186.003C99.9509 186.003 101.135 185.633 102.146 184.893C103.182 184.153 103.984 183.043 104.551 181.563C105.143 180.083 105.439 178.245 105.439 176.05C105.439 173.855 105.143 172.017 104.551 170.537C103.984 169.057 103.182 167.947 102.146 167.207C101.135 166.467 99.9509 166.097 98.5942 166.097C97.2376 166.097 96.0412 166.467 95.0052 167.207C93.9692 167.947 93.1552 169.057 92.5632 170.537C91.9959 172.017 91.7122 173.855 91.7122 176.05C91.7122 178.245 91.9959 180.083 92.5632 181.563C93.1552 183.043 93.9692 184.153 95.0052 184.893C96.0412 185.633 97.2376 186.003 98.5942 186.003Z" fill="#292C33"/>
<path d="M79.9667 246V221.58L81.5577 223.319H74.1207V220.1H83.6297V246H79.9667ZM93.7721 246L104.761 221.654L105.723 223.319H90.3311L92.1811 221.506V227.944H88.6291V220.1H108.165V222.616L97.6941 246H93.7721Z" fill="#292C33"/>
<path d="M70.4602 303V300.484L81.0052 290.309C81.9425 289.421 82.6332 288.644 83.0772 287.978C83.5459 287.287 83.8542 286.658 84.0022 286.091C84.1749 285.499 84.2612 284.932 84.2612 284.389C84.2612 283.057 83.7925 282.009 82.8552 281.244C81.9179 280.479 80.5489 280.097 78.7482 280.097C77.3669 280.097 76.1212 280.331 75.0112 280.8C73.9012 281.244 72.9392 281.947 72.1252 282.909L69.6092 280.726C70.5959 279.468 71.9155 278.506 73.5682 277.84C75.2455 277.149 77.0832 276.804 79.0812 276.804C80.8819 276.804 82.4482 277.1 83.7802 277.692C85.1122 278.259 86.1359 279.086 86.8512 280.171C87.5912 281.256 87.9612 282.539 87.9612 284.019C87.9612 284.858 87.8502 285.684 87.6282 286.498C87.4062 287.312 86.9869 288.175 86.3702 289.088C85.7535 290.001 84.8655 291.024 83.7062 292.159L74.3082 301.224L73.4202 299.781H89.0712V303H70.4602ZM91.0206 296.636V294.046L104.267 277.1H108.263L95.1276 294.046L93.2406 293.454H113.924V296.636H91.0206ZM105.414 303V296.636L105.525 293.454V287.83H109.003V303H105.414Z" fill="#292C33"/>
<path d="M83.9884 360.296C82.1631 360.296 80.3871 360.012 78.6604 359.445C76.9584 358.878 75.5648 358.113 74.4794 357.151L76.1814 354.228C77.0448 355.042 78.1671 355.708 79.5484 356.226C80.9298 356.744 82.4098 357.003 83.9884 357.003C85.9124 357.003 87.4048 356.596 88.4654 355.782C89.5508 354.943 90.0934 353.821 90.0934 352.415C90.0934 351.058 89.5754 349.973 88.5394 349.159C87.5281 348.32 85.9124 347.901 83.6924 347.901H81.6204V345.311L89.3164 335.839L89.8344 337.319H75.6634V334.1H92.7574V336.616L85.0984 346.051L83.1744 344.904H84.3954C87.5281 344.904 89.8714 345.607 91.4254 347.013C93.0041 348.419 93.7934 350.207 93.7934 352.378C93.7934 353.833 93.4358 355.165 92.7204 356.374C92.0051 357.583 90.9198 358.545 89.4644 359.26C88.0338 359.951 86.2084 360.296 83.9884 360.296ZM101.61 360V335.58L103.201 337.319H95.7643V334.1H105.273V360H101.61Z" fill="#292C33"/>
<path d="M142.696 125.636V123.046L155.942 106.1H159.938L146.803 123.046L144.916 122.454H165.599V125.636H142.696ZM157.089 132V125.636L157.2 122.454V116.83H160.678V132H157.089Z" fill="white"/>
<path d="M146.113 189V164.58L147.704 166.319H140.267V163.1H149.776V189H146.113ZM159.808 189V164.58L161.399 166.319H153.962V163.1H163.471V189H159.808Z" fill="#292C33"/>
<path d="M141.055 246V221.58L142.646 223.319H135.209V220.1H144.718V246H141.055ZM160.484 246.296C158.387 246.296 156.574 245.988 155.045 245.371C153.516 244.754 152.332 243.879 151.493 242.744C150.654 241.585 150.235 240.228 150.235 238.674C150.235 237.145 150.63 235.85 151.419 234.789C152.233 233.704 153.405 232.89 154.934 232.347C156.463 231.78 158.313 231.496 160.484 231.496C162.655 231.496 164.505 231.78 166.034 232.347C167.588 232.89 168.772 233.704 169.586 234.789C170.4 235.874 170.807 237.169 170.807 238.674C170.807 240.228 170.388 241.585 169.549 242.744C168.71 243.879 167.514 244.754 165.96 245.371C164.406 245.988 162.581 246.296 160.484 246.296ZM160.484 243.299C162.556 243.299 164.172 242.88 165.331 242.041C166.515 241.178 167.107 240.018 167.107 238.563C167.107 237.132 166.515 236.01 165.331 235.196C164.172 234.357 162.556 233.938 160.484 233.938C158.437 233.938 156.833 234.357 155.674 235.196C154.515 236.01 153.935 237.132 153.935 238.563C153.935 240.018 154.515 241.178 155.674 242.041C156.833 242.88 158.437 243.299 160.484 243.299ZM160.484 233.494C158.511 233.494 156.833 233.235 155.452 232.717C154.071 232.174 153.01 231.41 152.27 230.423C151.53 229.412 151.16 228.215 151.16 226.834C151.16 225.379 151.542 224.133 152.307 223.097C153.096 222.036 154.194 221.222 155.6 220.655C157.006 220.088 158.634 219.804 160.484 219.804C162.359 219.804 163.999 220.088 165.405 220.655C166.811 221.222 167.909 222.036 168.698 223.097C169.487 224.133 169.882 225.379 169.882 226.834C169.882 228.215 169.512 229.412 168.772 230.423C168.032 231.41 166.959 232.174 165.553 232.717C164.147 233.235 162.457 233.494 160.484 233.494ZM160.484 231.126C162.285 231.126 163.691 230.756 164.702 230.016C165.738 229.276 166.256 228.265 166.256 226.982C166.256 225.675 165.726 224.651 164.665 223.911C163.604 223.171 162.211 222.801 160.484 222.801C158.757 222.801 157.376 223.171 156.34 223.911C155.329 224.651 154.823 225.675 154.823 226.982C154.823 228.265 155.316 229.276 156.303 230.016C157.314 230.756 158.708 231.126 160.484 231.126Z" fill="#292C33"/>
<path d="M133.788 303V300.484L144.333 290.309C145.271 289.421 145.961 288.644 146.405 287.978C146.874 287.287 147.182 286.658 147.33 286.091C147.503 285.499 147.589 284.932 147.589 284.389C147.589 283.057 147.121 282.009 146.183 281.244C145.246 280.479 143.877 280.097 142.076 280.097C140.695 280.097 139.449 280.331 138.339 280.8C137.229 281.244 136.267 281.947 135.453 282.909L132.937 280.726C133.924 279.468 135.244 278.506 136.896 277.84C138.574 277.149 140.411 276.804 142.409 276.804C144.21 276.804 145.776 277.1 147.108 277.692C148.44 278.259 149.464 279.086 150.179 280.171C150.919 281.256 151.289 282.539 151.289 284.019C151.289 284.858 151.178 285.684 150.956 286.498C150.734 287.312 150.315 288.175 149.698 289.088C149.082 290.001 148.194 291.024 147.034 292.159L137.636 301.224L136.748 299.781H152.399V303H133.788ZM163.804 303.296C161.978 303.296 160.202 303.012 158.476 302.445C156.774 301.878 155.38 301.113 154.295 300.151L155.997 297.228C156.86 298.042 157.982 298.708 159.364 299.226C160.745 299.744 162.213 300.003 163.767 300.003C165.74 300.003 167.257 299.584 168.318 298.745C169.378 297.906 169.909 296.784 169.909 295.378C169.909 294.416 169.674 293.577 169.206 292.862C168.737 292.147 167.923 291.604 166.764 291.234C165.629 290.839 164.063 290.642 162.065 290.642H156.182L157.551 277.1H172.166V280.319H158.92L160.844 278.506L159.771 289.199L157.847 287.423H162.842C165.432 287.423 167.516 287.756 169.095 288.422C170.673 289.088 171.82 290.013 172.536 291.197C173.251 292.356 173.609 293.701 173.609 295.23C173.609 296.71 173.251 298.067 172.536 299.3C171.82 300.509 170.735 301.483 169.28 302.223C167.849 302.938 166.024 303.296 163.804 303.296Z" fill="white"/>
<path d="M214.086 132.296C212.26 132.296 210.484 132.012 208.758 131.445C207.056 130.878 205.662 130.113 204.577 129.151L206.279 126.228C207.142 127.042 208.264 127.708 209.646 128.226C211.027 128.744 212.495 129.003 214.049 129.003C216.022 129.003 217.539 128.584 218.6 127.745C219.66 126.906 220.191 125.784 220.191 124.378C220.191 123.416 219.956 122.577 219.488 121.862C219.019 121.147 218.205 120.604 217.046 120.234C215.911 119.839 214.345 119.642 212.347 119.642H206.464L207.833 106.1H222.448V109.319H209.202L211.126 107.506L210.053 118.199L208.129 116.423H213.124C215.714 116.423 217.798 116.756 219.377 117.422C220.955 118.088 222.102 119.013 222.818 120.197C223.533 121.356 223.891 122.701 223.891 124.23C223.891 125.71 223.533 127.067 222.818 128.3C222.102 129.509 221.017 130.483 219.562 131.223C218.131 131.938 216.306 132.296 214.086 132.296Z" fill="white"/>
<path d="M203.242 189V164.58L204.833 166.319H197.396V163.1H206.905V189H203.242ZM212.164 189V186.484L222.709 176.309C223.646 175.421 224.337 174.644 224.781 173.978C225.249 173.287 225.558 172.658 225.706 172.091C225.878 171.499 225.965 170.932 225.965 170.389C225.965 169.057 225.496 168.009 224.559 167.244C223.621 166.479 222.252 166.097 220.452 166.097C219.07 166.097 217.825 166.331 216.715 166.8C215.605 167.244 214.643 167.947 213.829 168.909L211.313 166.726C212.299 165.468 213.619 164.506 215.272 163.84C216.949 163.149 218.787 162.804 220.785 162.804C222.585 162.804 224.152 163.1 225.484 163.692C226.816 164.259 227.839 165.086 228.555 166.171C229.295 167.256 229.665 168.539 229.665 170.019C229.665 170.858 229.554 171.684 229.332 172.498C229.11 173.312 228.69 174.175 228.074 175.088C227.457 176.001 226.569 177.024 225.41 178.159L216.012 187.224L215.124 185.781H230.775V189H212.164Z" fill="#292C33"/>
<path d="M202.447 246V221.58L204.038 223.319H196.601V220.1H206.11V246H202.447ZM220.175 219.804C222.518 219.804 224.491 220.31 226.095 221.321C227.723 222.332 228.956 223.8 229.795 225.724C230.633 227.623 231.053 229.954 231.053 232.717C231.053 235.652 230.535 238.131 229.499 240.154C228.463 242.177 227.032 243.706 225.207 244.742C223.381 245.778 221.248 246.296 218.806 246.296C217.597 246.296 216.425 246.173 215.291 245.926C214.181 245.679 213.206 245.297 212.368 244.779L213.774 241.893C214.464 242.337 215.229 242.658 216.068 242.855C216.931 243.028 217.831 243.114 218.769 243.114C221.383 243.114 223.468 242.3 225.022 240.672C226.576 239.019 227.353 236.577 227.353 233.346C227.353 232.828 227.328 232.211 227.279 231.496C227.229 230.781 227.118 230.078 226.946 229.387L228.167 230.645C227.821 231.78 227.242 232.742 226.428 233.531C225.638 234.296 224.676 234.875 223.542 235.27C222.432 235.64 221.211 235.825 219.879 235.825C218.177 235.825 216.66 235.504 215.328 234.863C213.996 234.222 212.947 233.321 212.183 232.162C211.418 230.978 211.036 229.584 211.036 227.981C211.036 226.304 211.43 224.861 212.22 223.652C213.034 222.419 214.131 221.469 215.513 220.803C216.919 220.137 218.473 219.804 220.175 219.804ZM220.323 222.801C219.213 222.801 218.226 223.011 217.363 223.43C216.499 223.849 215.821 224.429 215.328 225.169C214.859 225.909 214.625 226.797 214.625 227.833C214.625 229.362 215.155 230.583 216.216 231.496C217.276 232.384 218.707 232.828 220.508 232.828C221.692 232.828 222.728 232.606 223.616 232.162C224.528 231.718 225.231 231.114 225.725 230.349C226.243 229.584 226.502 228.733 226.502 227.796C226.502 226.883 226.267 226.057 225.799 225.317C225.33 224.577 224.639 223.973 223.727 223.504C222.814 223.035 221.679 222.801 220.323 222.801Z" fill="#292C33"/>
<path d="M193.916 303V300.484L204.461 290.309C205.399 289.421 206.089 288.644 206.533 287.978C207.002 287.287 207.31 286.658 207.458 286.091C207.631 285.499 207.717 284.932 207.717 284.389C207.717 283.057 207.249 282.009 206.311 281.244C205.374 280.479 204.005 280.097 202.204 280.097C200.823 280.097 199.577 280.331 198.467 280.8C197.357 281.244 196.395 281.947 195.581 282.909L193.065 280.726C194.052 279.468 195.372 278.506 197.024 277.84C198.702 277.149 200.539 276.804 202.537 276.804C204.338 276.804 205.904 277.1 207.236 277.692C208.568 278.259 209.592 279.086 210.307 280.171C211.047 281.256 211.417 282.539 211.417 284.019C211.417 284.858 211.306 285.684 211.084 286.498C210.862 287.312 210.443 288.175 209.826 289.088C209.21 290.001 208.322 291.024 207.162 292.159L197.764 301.224L196.876 299.781H212.527V303H193.916ZM226.411 303.296C224.117 303.296 222.156 302.79 220.528 301.779C218.9 300.768 217.655 299.312 216.791 297.413C215.953 295.489 215.533 293.146 215.533 290.383C215.533 287.448 216.051 284.969 217.087 282.946C218.123 280.923 219.566 279.394 221.416 278.358C223.266 277.322 225.388 276.804 227.78 276.804C229.014 276.804 230.185 276.927 231.295 277.174C232.43 277.421 233.404 277.803 234.218 278.321L232.812 281.207C232.146 280.738 231.382 280.418 230.518 280.245C229.68 280.072 228.792 279.986 227.854 279.986C225.215 279.986 223.118 280.812 221.564 282.465C220.01 284.093 219.233 286.523 219.233 289.754C219.233 290.272 219.258 290.889 219.307 291.604C219.357 292.319 219.48 293.022 219.677 293.713L218.419 292.455C218.789 291.32 219.369 290.371 220.158 289.606C220.972 288.817 221.934 288.237 223.044 287.867C224.179 287.472 225.4 287.275 226.707 287.275C228.434 287.275 229.963 287.596 231.295 288.237C232.627 288.878 233.676 289.791 234.44 290.975C235.205 292.134 235.587 293.516 235.587 295.119C235.587 296.772 235.18 298.215 234.366 299.448C233.552 300.681 232.455 301.631 231.073 302.297C229.692 302.963 228.138 303.296 226.411 303.296ZM226.263 300.299C227.398 300.299 228.385 300.089 229.223 299.67C230.087 299.251 230.765 298.671 231.258 297.931C231.752 297.166 231.998 296.278 231.998 295.267C231.998 293.738 231.468 292.529 230.407 291.641C229.347 290.728 227.904 290.272 226.078 290.272C224.894 290.272 223.858 290.494 222.97 290.938C222.082 291.382 221.379 291.986 220.861 292.751C220.368 293.491 220.121 294.342 220.121 295.304C220.121 296.192 220.356 297.018 220.824 297.783C221.293 298.523 221.984 299.127 222.896 299.596C223.809 300.065 224.931 300.299 226.263 300.299Z" fill="#292C33"/>
<path d="M278.26 132.296C275.966 132.296 274.005 131.79 272.377 130.779C270.749 129.768 269.503 128.312 268.64 126.413C267.801 124.489 267.382 122.146 267.382 119.383C267.382 116.448 267.9 113.969 268.936 111.946C269.972 109.923 271.415 108.394 273.265 107.358C275.115 106.322 277.236 105.804 279.629 105.804C280.862 105.804 282.034 105.927 283.144 106.174C284.279 106.421 285.253 106.803 286.067 107.321L284.661 110.207C283.995 109.738 283.23 109.418 282.367 109.245C281.528 109.072 280.64 108.986 279.703 108.986C277.064 108.986 274.967 109.812 273.413 111.465C271.859 113.093 271.082 115.523 271.082 118.754C271.082 119.272 271.107 119.889 271.156 120.604C271.205 121.319 271.329 122.022 271.526 122.713L270.268 121.455C270.638 120.32 271.218 119.371 272.007 118.606C272.821 117.817 273.783 117.237 274.893 116.867C276.028 116.472 277.249 116.275 278.556 116.275C280.283 116.275 281.812 116.596 283.144 117.237C284.476 117.878 285.524 118.791 286.289 119.975C287.054 121.134 287.436 122.516 287.436 124.119C287.436 125.772 287.029 127.215 286.215 128.448C285.401 129.681 284.303 130.631 282.922 131.297C281.541 131.963 279.987 132.296 278.26 132.296ZM278.112 129.299C279.247 129.299 280.233 129.089 281.072 128.67C281.935 128.251 282.614 127.671 283.107 126.931C283.6 126.166 283.847 125.278 283.847 124.267C283.847 122.738 283.317 121.529 282.256 120.641C281.195 119.728 279.752 119.272 277.927 119.272C276.743 119.272 275.707 119.494 274.819 119.938C273.931 120.382 273.228 120.986 272.71 121.751C272.217 122.491 271.97 123.342 271.97 124.304C271.97 125.192 272.204 126.018 272.673 126.783C273.142 127.523 273.832 128.127 274.745 128.596C275.658 129.065 276.78 129.299 278.112 129.299Z" fill="white"/>
<path d="M265.732 189V164.58L267.323 166.319H259.886V163.1H269.395V189H265.732ZM282.978 189.296C281.153 189.296 279.377 189.012 277.65 188.445C275.948 187.878 274.555 187.113 273.469 186.151L275.171 183.228C276.035 184.042 277.157 184.708 278.538 185.226C279.92 185.744 281.4 186.003 282.978 186.003C284.902 186.003 286.395 185.596 287.455 184.782C288.541 183.943 289.083 182.821 289.083 181.415C289.083 180.058 288.565 178.973 287.529 178.159C286.518 177.32 284.902 176.901 282.682 176.901H280.61V174.311L288.306 164.839L288.824 166.319H274.653V163.1H291.747V165.616L284.088 175.051L282.164 173.904H283.385C286.518 173.904 288.861 174.607 290.415 176.013C291.994 177.419 292.783 179.207 292.783 181.378C292.783 182.833 292.426 184.165 291.71 185.374C290.995 186.583 289.91 187.545 288.454 188.26C287.024 188.951 285.198 189.296 282.978 189.296Z" fill="#292C33"/>
<path d="M255.448 246V243.484L265.993 233.309C266.931 232.421 267.621 231.644 268.065 230.978C268.534 230.287 268.842 229.658 268.99 229.091C269.163 228.499 269.249 227.932 269.249 227.389C269.249 226.057 268.781 225.009 267.843 224.244C266.906 223.479 265.537 223.097 263.736 223.097C262.355 223.097 261.109 223.331 259.999 223.8C258.889 224.244 257.927 224.947 257.113 225.909L254.597 223.726C255.584 222.468 256.904 221.506 258.556 220.84C260.234 220.149 262.071 219.804 264.069 219.804C265.87 219.804 267.436 220.1 268.768 220.692C270.1 221.259 271.124 222.086 271.839 223.171C272.579 224.256 272.949 225.539 272.949 227.019C272.949 227.858 272.838 228.684 272.616 229.498C272.394 230.312 271.975 231.175 271.358 232.088C270.742 233.001 269.854 234.024 268.694 235.159L259.296 244.224L258.408 242.781H274.059V246H255.448ZM287.647 246.296C285.625 246.296 283.812 245.778 282.208 244.742C280.63 243.706 279.372 242.201 278.434 240.228C277.522 238.255 277.065 235.862 277.065 233.05C277.065 230.238 277.522 227.845 278.434 225.872C279.372 223.899 280.63 222.394 282.208 221.358C283.812 220.322 285.625 219.804 287.647 219.804C289.645 219.804 291.446 220.322 293.049 221.358C294.653 222.394 295.911 223.899 296.823 225.872C297.736 227.845 298.192 230.238 298.192 233.05C298.192 235.862 297.736 238.255 296.823 240.228C295.911 242.201 294.653 243.706 293.049 244.742C291.446 245.778 289.645 246.296 287.647 246.296ZM287.647 243.003C289.004 243.003 290.188 242.633 291.199 241.893C292.235 241.153 293.037 240.043 293.604 238.563C294.196 237.083 294.492 235.245 294.492 233.05C294.492 230.855 294.196 229.017 293.604 227.537C293.037 226.057 292.235 224.947 291.199 224.207C290.188 223.467 289.004 223.097 287.647 223.097C286.291 223.097 285.094 223.467 284.058 224.207C283.022 224.947 282.208 226.057 281.616 227.537C281.049 229.017 280.765 230.855 280.765 233.05C280.765 235.245 281.049 237.083 281.616 238.563C282.208 240.043 283.022 241.153 284.058 241.893C285.094 242.633 286.291 243.003 287.647 243.003Z" fill="#292C33"/>
<path d="M256.731 303V300.484L267.276 290.309C268.214 289.421 268.904 288.644 269.348 287.978C269.817 287.287 270.125 286.658 270.273 286.091C270.446 285.499 270.532 284.932 270.532 284.389C270.532 283.057 270.064 282.009 269.126 281.244C268.189 280.479 266.82 280.097 265.019 280.097C263.638 280.097 262.392 280.331 261.282 280.8C260.172 281.244 259.21 281.947 258.396 282.909L255.88 280.726C256.867 279.468 258.187 278.506 259.839 277.84C261.517 277.149 263.354 276.804 265.352 276.804C267.153 276.804 268.719 277.1 270.051 277.692C271.383 278.259 272.407 279.086 273.122 280.171C273.862 281.256 274.232 282.539 274.232 284.019C274.232 284.858 274.121 285.684 273.899 286.498C273.677 287.312 273.258 288.175 272.641 289.088C272.025 290.001 271.137 291.024 269.977 292.159L260.579 301.224L259.691 299.781H275.342V303H256.731ZM282.825 303L293.814 278.654L294.776 280.319H279.384L281.234 278.506V284.944H277.682V277.1H297.218V279.616L286.747 303H282.825Z" fill="#292C33"/>
<path d="M327.429 189V164.58L329.02 166.319H321.583V163.1H331.092V189H327.429ZM336.387 182.636V180.046L349.633 163.1H353.629L340.494 180.046L338.607 179.454H359.29V182.636H336.387ZM350.78 189V182.636L350.891 179.454V173.83H354.369V189H350.78Z" fill="#292C33"/>
<path d="M324.408 246V243.484L334.953 233.309C335.891 232.421 336.581 231.644 337.025 230.978C337.494 230.287 337.802 229.658 337.95 229.091C338.123 228.499 338.209 227.932 338.209 227.389C338.209 226.057 337.741 225.009 336.803 224.244C335.866 223.479 334.497 223.097 332.696 223.097C331.315 223.097 330.069 223.331 328.959 223.8C327.849 224.244 326.887 224.947 326.073 225.909L323.557 223.726C324.544 222.468 325.864 221.506 327.516 220.84C329.194 220.149 331.031 219.804 333.029 219.804C334.83 219.804 336.396 220.1 337.728 220.692C339.06 221.259 340.084 222.086 340.799 223.171C341.539 224.256 341.909 225.539 341.909 227.019C341.909 227.858 341.798 228.684 341.576 229.498C341.354 230.312 340.935 231.175 340.318 232.088C339.702 233.001 338.814 234.024 337.654 235.159L328.256 244.224L327.368 242.781H343.019V246H324.408ZM350.427 246V221.58L352.018 223.319H344.581V220.1H354.09V246H350.427Z" fill="#292C33"/>
<path d="M319.35 303V300.484L329.895 290.309C330.832 289.421 331.523 288.644 331.967 287.978C332.435 287.287 332.744 286.658 332.892 286.091C333.064 285.499 333.151 284.932 333.151 284.389C333.151 283.057 332.682 282.009 331.745 281.244C330.807 280.479 329.438 280.097 327.638 280.097C326.256 280.097 325.011 280.331 323.901 280.8C322.791 281.244 321.829 281.947 321.015 282.909L318.499 280.726C319.485 279.468 320.805 278.506 322.458 277.84C324.135 277.149 325.973 276.804 327.971 276.804C329.771 276.804 331.338 277.1 332.67 277.692C334.002 278.259 335.025 279.086 335.741 280.171C336.481 281.256 336.851 282.539 336.851 284.019C336.851 284.858 336.74 285.684 336.518 286.498C336.296 287.312 335.876 288.175 335.26 289.088C334.643 290.001 333.755 291.024 332.596 292.159L323.198 301.224L322.31 299.781H337.961V303H319.35ZM351.104 303.296C349.007 303.296 347.194 302.988 345.665 302.371C344.135 301.754 342.951 300.879 342.113 299.744C341.274 298.585 340.855 297.228 340.855 295.674C340.855 294.145 341.249 292.85 342.039 291.789C342.853 290.704 344.024 289.89 345.554 289.347C347.083 288.78 348.933 288.496 351.104 288.496C353.274 288.496 355.124 288.78 356.654 289.347C358.208 289.89 359.392 290.704 360.206 291.789C361.02 292.874 361.427 294.169 361.427 295.674C361.427 297.228 361.007 298.585 360.169 299.744C359.33 300.879 358.134 301.754 356.58 302.371C355.026 302.988 353.2 303.296 351.104 303.296ZM351.104 300.299C353.176 300.299 354.791 299.88 355.951 299.041C357.135 298.178 357.727 297.018 357.727 295.563C357.727 294.132 357.135 293.01 355.951 292.196C354.791 291.357 353.176 290.938 351.104 290.938C349.056 290.938 347.453 291.357 346.294 292.196C345.134 293.01 344.555 294.132 344.555 295.563C344.555 297.018 345.134 298.178 346.294 299.041C347.453 299.88 349.056 300.299 351.104 300.299ZM351.104 290.494C349.13 290.494 347.453 290.235 346.072 289.717C344.69 289.174 343.63 288.41 342.89 287.423C342.15 286.412 341.78 285.215 341.78 283.834C341.78 282.379 342.162 281.133 342.927 280.097C343.716 279.036 344.814 278.222 346.22 277.655C347.626 277.088 349.254 276.804 351.104 276.804C352.978 276.804 354.619 277.088 356.025 277.655C357.431 278.222 358.528 279.036 359.318 280.097C360.107 281.133 360.502 282.379 360.502 283.834C360.502 285.215 360.132 286.412 359.392 287.423C358.652 288.41 357.579 289.174 356.173 289.717C354.767 290.235 353.077 290.494 351.104 290.494ZM351.104 288.126C352.904 288.126 354.31 287.756 355.322 287.016C356.358 286.276 356.876 285.265 356.876 283.982C356.876 282.675 356.345 281.651 355.285 280.911C354.224 280.171 352.83 279.801 351.104 279.801C349.377 279.801 347.996 280.171 346.96 280.911C345.948 281.651 345.443 282.675 345.443 283.982C345.443 285.265 345.936 286.276 346.923 287.016C347.934 287.756 349.328 288.126 351.104 288.126Z" fill="#292C33"/>
<path d="M335.706 132L346.695 107.654L347.657 109.319H332.265L334.115 107.506V113.944H330.563V106.1H350.099V108.616L339.628 132H335.706Z" fill="white"/>
<path d="M407.068 78.1351V53.7151L408.659 55.4541H401.222V52.2351H410.731V78.1351H407.068Z" fill="#292C33"/>
</g>
<defs>
<clipPath id="clip0_532_3207">
<rect width="431" height="366" fill="white"/>
</clipPath>
</defs>
</svg>
