<svg width="439" height="318" viewBox="0 0 439 318" fill="none" xmlns="http://www.w3.org/2000/svg">
<g clip-path="url(#clip0_3949_8374)">
<path d="M186 95H129V142H186V95Z" fill="#41A05C"/>
<path d="M251 95H194V142H251V95Z" fill="#41A05C"/>
<path d="M314 95H257V142H314V95Z" fill="#41A05C"/>
<path d="M53.0195 272.5H-3.98047V319.5H53.0195V272.5Z" fill="#3C78EC"/>
<path d="M29.4574 21.2264H26.8486V3.86139H17.3916V21.2264H14.7012V1.82324H29.3759V21.2264H29.4574Z" fill="#B3B3B3"/>
<path d="M45.2734 21.2261H42.6645V15.1116H36.224V21.2261H33.6152V6.7959H36.224V13.0735H42.6645V6.7959H45.2734V21.2261Z" fill="#B3B3B3"/>
<path d="M79.5 21.2264V1.82324H85.859C87.8972 1.82324 89.4462 2.23087 90.5875 3.12766C91.7289 4.02444 92.2996 5.32886 92.2996 7.0409C92.2996 7.85616 92.055 8.58989 91.5658 9.32363C91.0767 10.0574 90.3429 10.465 89.5277 10.7911C90.8321 10.9541 91.8104 11.5248 92.5441 12.4216C93.2779 13.3184 93.6855 14.4598 93.6855 15.6826C93.6855 17.4762 93.1148 18.7806 91.9735 19.7589C90.8321 20.7373 89.2831 21.1449 87.245 21.1449H79.5V21.2264ZM82.1904 10.0574H86.4297C87.408 10.0574 88.2233 9.81278 88.794 9.2421C89.4462 8.67142 89.6907 7.93769 89.6907 6.95937C89.6907 5.89954 89.3646 5.1658 88.7124 4.59512C88.0602 4.10597 87.0819 3.77986 85.859 3.77986H82.1904V10.0574ZM82.1904 12.0955V19.1067H87.245C88.4678 19.1067 89.3646 18.7806 90.0168 18.21C90.6691 17.6393 90.9952 16.7425 90.9952 15.6826C90.9952 14.6228 90.6691 13.726 90.0168 13.0738C89.3646 12.4216 88.4678 12.0955 87.245 12.014H87.0819H82.1904V12.0955Z" fill="#B3B3B3"/>
<path d="M107.626 8.83405H102.898V21.2261H100.289V8.83405H95.5605V6.7959H107.626V8.83405Z" fill="#B3B3B3"/>
<path d="M157.012 15.0304C157.093 16.9055 156.441 18.4545 155.137 19.6773C153.832 20.9002 152.12 21.5524 149.919 21.5524C147.718 21.5524 145.924 20.7372 144.538 19.1882C143.152 17.6392 142.5 15.6826 142.5 13.2368V9.81271C142.5 7.44846 143.152 5.41031 144.538 3.86132C145.924 2.31233 147.718 1.49707 149.919 1.49707C152.12 1.49707 153.832 2.06775 155.137 3.20911C156.441 4.35048 157.093 5.89947 157.012 7.85609V7.93762H154.484C154.484 6.55168 154.077 5.49184 153.261 4.67658C152.446 3.86132 151.305 3.45369 149.837 3.45369C148.37 3.45369 147.229 4.02437 146.332 5.24726C145.435 6.38862 145.027 7.85609 145.027 9.64966V13.1553C145.027 14.9488 145.435 16.4163 146.332 17.5577C147.229 18.699 148.37 19.3512 149.837 19.3512C151.305 19.3512 152.446 18.9436 153.261 18.2099C154.077 17.3946 154.484 16.3348 154.484 14.9488H157.012V15.0304Z" fill="#B3B3B3"/>
<path d="M172.42 14.5413C172.42 16.661 171.931 18.2915 170.952 19.5959C169.974 20.9003 168.588 21.471 166.795 21.471C165.898 21.471 165.164 21.3079 164.43 21.0634C163.778 20.7373 163.207 20.3296 162.718 19.759V26.7702H160.109V6.79634H162.148L162.555 8.67143C163.044 7.9377 163.615 7.44854 164.349 7.12244C165.083 6.79634 165.898 6.55176 166.795 6.55176C168.588 6.55176 169.974 7.28549 170.952 8.67143C171.931 10.0574 172.42 11.9325 172.42 14.2967V14.5413ZM169.811 14.2967C169.811 12.6662 169.485 11.2803 168.833 10.3019C168.181 9.32364 167.202 8.75296 165.979 8.75296C165.246 8.75296 164.593 8.91601 164.023 9.24211C163.452 9.56822 163.044 10.0574 162.718 10.6281V17.6393C163.044 18.21 163.452 18.6991 164.023 19.0252C164.593 19.3513 165.246 19.5144 165.979 19.5144C167.202 19.5144 168.181 19.0252 168.833 18.1284C169.485 17.2317 169.811 16.0088 169.811 14.6228V14.2967Z" fill="#B3B3B3"/>
<path d="M221.93 1.82324V21.2264H219.321V13.1553C218.506 13.3999 217.691 13.563 216.875 13.726C216.06 13.8076 215.163 13.8891 214.022 13.8891C211.902 13.8891 210.272 13.3999 209.131 12.5031C207.989 11.6064 207.5 10.0574 207.5 7.93769V1.82324H210.109V7.93769C210.109 9.40515 210.435 10.3835 211.006 10.9541C211.658 11.5248 212.636 11.7694 213.941 11.7694C214.837 11.7694 215.734 11.6879 216.631 11.6064C217.446 11.4433 218.343 11.2802 219.24 11.0357V1.82324H221.93Z" fill="#B3B3B3"/>
<path d="M237.174 8.83405H232.446V21.2261H229.837V8.83405H225.109V6.7959H237.174V8.83405Z" fill="#B3B3B3"/>
<path d="M286.175 21.2264H283.566V3.86139H274.109V21.2264H271.5V1.82324H286.175V21.2264Z" fill="#B3B3B3"/>
<path d="M301.42 8.83453H296.691V21.2265H294.083V8.83453H289.354V6.79639H301.42V8.83453Z" fill="#B3B3B3"/>
<path d="M351.012 15.0303C351.093 16.9054 350.441 18.4544 349.137 19.6773C347.832 20.9002 346.12 21.5524 343.919 21.5524C341.718 21.5524 339.924 20.7371 338.538 19.1881C337.152 17.6391 336.5 15.6825 336.5 13.2367V9.81271C336.5 7.44846 337.152 5.41031 338.538 3.86132C339.924 2.31233 341.718 1.49707 343.919 1.49707C346.12 1.49707 347.832 2.06775 349.137 3.20911C350.441 4.35047 351.093 5.89947 351.012 7.85609V7.93761H348.484C348.484 6.55167 348.077 5.49184 347.261 4.67658C346.446 3.86132 345.305 3.45369 343.837 3.45369C342.37 3.45369 341.229 4.02437 340.332 5.24726C339.435 6.38862 339.027 7.85609 339.027 9.64966V13.1552C339.027 14.9488 339.435 16.4162 340.332 17.5576C341.229 18.699 342.37 19.3512 343.837 19.3512C345.305 19.3512 346.446 18.9435 347.261 18.2098C348.077 17.3945 348.484 16.3347 348.484 14.9488H351.012V15.0303Z" fill="#B3B3B3"/>
<path d="M360.387 6.55149C362.262 6.55149 363.648 7.2037 364.708 8.58964C365.768 9.97558 366.338 11.6876 366.338 13.8888V14.2149C366.338 16.3346 365.768 18.1282 364.626 19.5141C363.485 20.9 361.936 21.5523 359.898 21.5523C357.86 21.5523 356.311 20.9 355.169 19.5141C354.028 18.1282 353.457 16.4161 353.457 14.2149V13.8888C353.457 13.8073 353.457 13.7258 353.457 13.7258C353.457 13.6442 353.457 13.6442 353.457 13.5627V10.4647C353.457 7.69285 354.028 5.73623 355.088 4.43182C356.148 3.1274 357.778 2.47519 359.898 2.31214C361.121 2.23062 362.099 2.06756 362.751 1.82299C363.403 1.57841 363.73 1.17078 363.73 0.600098H365.768V0.681624C365.849 2.06756 365.36 3.04587 364.382 3.61656C363.403 4.18724 362.017 4.51334 360.142 4.51334C358.756 4.51334 357.697 4.92097 356.881 5.6547C356.066 6.38844 355.658 7.44827 355.658 8.83421V8.91574C356.148 8.26353 356.881 7.69285 357.697 7.28522C358.512 6.87759 359.49 6.55149 360.387 6.55149ZM359.898 8.58964C358.675 8.58964 357.697 9.07879 357.044 10.0571C356.392 11.0354 356.066 12.3398 356.066 13.8073V14.1334C356.066 15.6824 356.392 16.9053 357.044 17.8836C357.697 18.8619 358.675 19.3511 359.898 19.3511C361.121 19.3511 362.099 18.8619 362.751 17.8836C363.403 16.9053 363.73 15.6009 363.73 14.1334V13.8073C363.73 12.2583 363.403 11.0354 362.751 10.0571C362.099 9.07879 361.121 8.58964 359.898 8.58964Z" fill="#B3B3B3"/>
<path d="M400.5 21.2264V1.82324H406.859C408.897 1.82324 410.446 2.23087 411.588 3.12766C412.729 4.02444 413.3 5.32886 413.3 7.0409C413.3 7.85616 413.055 8.58989 412.566 9.32363C412.077 10.0574 411.343 10.465 410.528 10.8726C411.832 11.0357 412.81 11.6064 413.544 12.5031C414.278 13.3999 414.686 14.5413 414.686 15.7642C414.686 17.5577 414.115 18.8622 412.973 19.8405C411.832 20.8188 410.283 21.2264 408.245 21.2264H400.5ZM403.19 10.0574H407.43C408.408 10.0574 409.223 9.81278 409.794 9.2421C410.446 8.67142 410.691 7.93769 410.691 6.95937C410.691 5.89954 410.365 5.1658 409.712 4.59512C409.06 4.10597 408.082 3.77986 406.859 3.77986H403.19V10.0574ZM403.19 12.0955V19.1067H408.245C409.468 19.1067 410.365 18.7806 411.017 18.21C411.669 17.6393 411.995 16.7425 411.995 15.6826C411.995 14.6228 411.669 13.726 411.017 13.0738C410.365 12.4216 409.468 12.0955 408.245 12.014H408.082H403.19V12.0955Z" fill="#B3B3B3"/>
<path d="M423.245 19.4329C424.061 19.4329 424.794 19.1883 425.365 18.6176C425.936 18.0469 426.262 17.3947 426.262 16.661H428.626V16.7425C428.626 17.9654 428.137 19.1068 426.996 20.0851C425.854 21.0634 424.631 21.5525 423.164 21.5525C421.126 21.5525 419.577 20.9003 418.435 19.5144C417.294 18.1284 416.805 16.4164 416.805 14.3783V13.8076C416.805 11.7694 417.376 10.0573 418.435 8.67144C419.577 7.2855 421.126 6.6333 423.082 6.6333C424.713 6.6333 426.017 7.12245 426.996 8.10076C427.974 9.07907 428.545 10.3019 428.463 11.7694V11.851H426.099C426.099 10.9542 425.773 10.2204 425.202 9.56823C424.631 8.91602 423.898 8.67144 423.001 8.67144C421.696 8.67144 420.8 9.1606 420.147 10.1389C419.577 11.1172 419.251 12.3401 419.251 13.8076V14.3783C419.251 15.8457 419.577 17.0686 420.147 18.0469C421.044 18.9437 421.941 19.4329 423.245 19.4329Z" fill="#B3B3B3"/>
<path d="M224.312 63.5406C229.492 64.0216 232.119 66.9446 232.119 70.9406C232.119 75.3066 228.9 78.8586 222.314 78.8586C218.614 78.8586 214.988 77.6746 212.805 75.7136L214.507 72.7906C216.246 74.4186 219.132 75.5656 222.314 75.5656C226.199 75.5656 228.419 73.7896 228.419 70.9776C228.419 68.2396 226.458 66.4636 222.018 66.4636H219.946V63.8736L226.458 55.8816H213.989V52.6626H231.083V55.1786L224.312 63.5406Z" fill="#292C33"/>
<path d="M203.629 104.975H213.138V130.875H209.475V108.194H203.629V104.975ZM229.385 131.171C223.317 131.171 218.803 126.361 218.803 117.925C218.803 109.489 223.317 104.679 229.385 104.679C235.416 104.679 239.93 109.489 239.93 117.925C239.93 126.361 235.416 131.171 229.385 131.171ZM229.385 127.878C233.418 127.878 236.23 124.548 236.23 117.925C236.23 111.302 233.418 107.972 229.385 107.972C225.315 107.972 222.503 111.302 222.503 117.925C222.503 124.548 225.315 127.878 229.385 127.878Z" fill="white"/>
<path d="M204.912 163.975H214.421V189.875H210.758V167.194H204.912V163.975ZM219.42 163.975H238.956V166.491L228.485 189.875H224.563L234.812 167.194H222.972V171.819H219.42V163.975Z" fill="#292C33"/>
<path d="M206.56 245.656H219.843V248.875H201.232V246.359L211.777 236.184C214.515 233.52 215.033 231.892 215.033 230.264C215.033 227.6 213.146 225.972 209.52 225.972C206.745 225.972 204.488 226.86 202.897 228.784L200.381 226.601C202.379 224.122 205.82 222.679 209.853 222.679C215.255 222.679 218.733 225.454 218.733 229.894C218.733 232.41 217.993 234.667 214.478 238.034L206.56 245.656ZM244.732 239.329V242.511H239.811V248.875H236.222V242.511H221.829V239.921L235.075 222.975H239.071L226.38 239.329H236.333V233.705H239.811V239.329H244.732Z" fill="#292C33"/>
<path d="M298.294 69.0166V72.1986H293.373V78.5626H289.784V72.1986H275.391V69.6086L288.637 52.6626H292.633L279.942 69.0166H289.895V63.3926H293.373V69.0166H298.294Z" fill="#292C33"/>
<path d="M272.621 104.975H282.13V130.875H278.467V108.194H272.621V104.975ZM286.316 104.975H295.825V130.875H292.162V108.194H286.316V104.975Z" fill="white"/>
<path d="M267.562 163.975H277.072V189.875H273.408V167.194H267.562V163.975ZM298.572 176.296C301.532 177.443 303.16 179.589 303.16 182.549C303.16 187.248 299.164 190.171 292.837 190.171C286.547 190.171 282.589 187.248 282.589 182.549C282.589 179.589 284.216 177.406 287.139 176.296C284.771 175.186 283.513 173.262 283.513 170.709C283.513 166.38 287.25 163.679 292.837 163.679C298.461 163.679 302.235 166.38 302.235 170.709C302.235 173.262 300.94 175.186 298.572 176.296ZM292.837 166.676C289.359 166.676 287.176 168.267 287.176 170.857C287.176 173.41 289.285 175.001 292.837 175.001C296.426 175.001 298.609 173.41 298.609 170.857C298.609 168.267 296.315 166.676 292.837 166.676ZM292.837 187.174C296.944 187.174 299.46 185.361 299.46 182.438C299.46 179.589 296.944 177.813 292.837 177.813C288.73 177.813 286.288 179.589 286.288 182.438C286.288 185.361 288.73 187.174 292.837 187.174Z" fill="#292C33"/>
<path d="M271.47 245.656H284.753V248.875H266.142V246.359L276.687 236.184C279.425 233.52 279.943 231.892 279.943 230.264C279.943 227.6 278.056 225.972 274.43 225.972C271.655 225.972 269.398 226.86 267.807 228.784L265.291 226.601C267.289 224.122 270.73 222.679 274.763 222.679C280.165 222.679 283.643 225.454 283.643 229.894C283.643 232.41 282.903 234.667 279.388 238.034L271.47 245.656ZM295.196 233.298C302.929 233.298 305.963 236.517 305.963 241.105C305.963 245.582 302.781 249.171 296.158 249.171C292.495 249.171 288.869 247.987 286.649 246.026L288.351 243.103C290.09 244.731 292.976 245.878 296.121 245.878C300.043 245.878 302.263 244.065 302.263 241.253C302.263 238.33 300.413 236.517 294.419 236.517H288.536L289.905 222.975H304.52V226.194H293.013L292.31 233.298H295.196Z" fill="#292C33"/>
<path d="M398.591 245.656H411.874V248.875H393.263V246.359L403.808 236.184C406.546 233.52 407.064 231.892 407.064 230.264C407.064 227.6 405.177 225.972 401.551 225.972C398.776 225.972 396.519 226.86 394.928 228.784L392.412 226.601C394.41 224.122 397.851 222.679 401.884 222.679C407.286 222.679 410.764 225.454 410.764 229.894C410.764 232.41 410.024 234.667 406.509 238.034L398.591 245.656ZM414.142 222.975H433.678V225.491L423.207 248.875H419.285L429.534 226.194H417.694V230.819H414.142V222.975Z" fill="#292C33"/>
<path d="M7.35881 307.875V305.359L17.9037 295.184C18.8411 294.296 19.5317 293.519 19.9757 292.853C20.4444 292.162 20.7527 291.533 20.9007 290.966C21.0734 290.374 21.1597 289.807 21.1597 289.264C21.1597 287.932 20.6911 286.884 19.7537 286.119C18.8164 285.354 17.4474 284.972 15.6468 284.972C14.2655 284.972 13.0198 285.206 11.9098 285.675C10.7998 286.119 9.83781 286.822 9.02381 287.784L6.50781 285.601C7.49447 284.343 8.81415 283.381 10.4668 282.715C12.1442 282.024 13.9818 281.679 15.9798 281.679C17.7804 281.679 19.3467 281.975 20.6787 282.567C22.0107 283.134 23.0344 283.961 23.7497 285.046C24.4897 286.131 24.8597 287.414 24.8597 288.894C24.8597 289.733 24.7487 290.559 24.5267 291.373C24.3047 292.187 23.8854 293.05 23.2687 293.963C22.6521 294.876 21.7641 295.899 20.6047 297.034L11.2068 306.099L10.3188 304.656H25.9697V307.875H7.35881ZM39.1128 308.171C37.0162 308.171 35.2032 307.863 33.6738 307.246C32.1445 306.629 30.9605 305.754 30.1218 304.619C29.2832 303.46 28.8638 302.103 28.8638 300.549C28.8638 299.02 29.2585 297.725 30.0478 296.664C30.8618 295.579 32.0335 294.765 33.5628 294.222C35.0922 293.655 36.9422 293.371 39.1128 293.371C41.2835 293.371 43.1335 293.655 44.6628 294.222C46.2168 294.765 47.4008 295.579 48.2148 296.664C49.0288 297.749 49.4358 299.044 49.4358 300.549C49.4358 302.103 49.0165 303.46 48.1778 304.619C47.3392 305.754 46.1428 306.629 44.5888 307.246C43.0348 307.863 41.2095 308.171 39.1128 308.171ZM39.1128 305.174C41.1848 305.174 42.8005 304.755 43.9598 303.916C45.1438 303.053 45.7358 301.893 45.7358 300.438C45.7358 299.007 45.1438 297.885 43.9598 297.071C42.8005 296.232 41.1848 295.813 39.1128 295.813C37.0655 295.813 35.4622 296.232 34.3028 297.071C33.1435 297.885 32.5638 299.007 32.5638 300.438C32.5638 301.893 33.1435 303.053 34.3028 303.916C35.4622 304.755 37.0655 305.174 39.1128 305.174ZM39.1128 295.369C37.1395 295.369 35.4622 295.11 34.0808 294.592C32.6995 294.049 31.6388 293.285 30.8988 292.298C30.1588 291.287 29.7888 290.09 29.7888 288.709C29.7888 287.254 30.1712 286.008 30.9358 284.972C31.7252 283.911 32.8228 283.097 34.2288 282.53C35.6348 281.963 37.2628 281.679 39.1128 281.679C40.9875 281.679 42.6278 281.963 44.0338 282.53C45.4398 283.097 46.5375 283.911 47.3268 284.972C48.1162 286.008 48.5108 287.254 48.5108 288.709C48.5108 290.09 48.1408 291.287 47.4008 292.298C46.6608 293.285 45.5878 294.049 44.1818 294.592C42.7758 295.11 41.0862 295.369 39.1128 295.369ZM39.1128 293.001C40.9135 293.001 42.3195 292.631 43.3308 291.891C44.3668 291.151 44.8848 290.14 44.8848 288.857C44.8848 287.55 44.3545 286.526 43.2938 285.786C42.2332 285.046 40.8395 284.676 39.1128 284.676C37.3862 284.676 36.0048 285.046 34.9688 285.786C33.9575 286.526 33.4518 287.55 33.4518 288.857C33.4518 290.14 33.9452 291.151 34.9318 291.891C35.9432 292.631 37.3368 293.001 39.1128 293.001Z" fill="white"/>
<path d="M77.6751 304.656H90.9581V307.875H72.3471V305.359L82.8921 295.184C85.6301 292.52 86.1481 290.892 86.1481 289.264C86.1481 286.6 84.2611 284.972 80.6351 284.972C77.8601 284.972 75.6031 285.86 74.0121 287.784L71.4961 285.601C73.4941 283.122 76.9351 281.679 80.9681 281.679C86.3701 281.679 89.8481 284.454 89.8481 288.894C89.8481 291.41 89.1081 293.667 85.5931 297.034L77.6751 304.656ZM102.399 281.679C109.356 281.679 113.278 286.341 113.278 294.592C113.278 303.435 108.283 308.171 101.03 308.171C98.5882 308.171 96.2572 307.69 94.5922 306.654L95.9982 303.768C97.3672 304.656 99.1062 304.989 100.993 304.989C106.247 304.989 109.578 301.696 109.578 295.221V294.296C108.061 296.553 105.322 297.7 102.103 297.7C96.9602 297.7 93.2602 294.629 93.2602 289.856C93.2602 284.861 97.2562 281.679 102.399 281.679ZM102.732 294.703C106.284 294.703 108.727 292.52 108.727 289.671C108.727 287.007 106.581 284.676 102.547 284.676C99.1802 284.676 96.8492 286.637 96.8492 289.708C96.8492 292.742 99.1062 294.703 102.732 294.703Z" fill="#292C33"/>
<path d="M144.286 308.171C142.461 308.171 140.685 307.887 138.958 307.32C137.256 306.753 135.862 305.988 134.777 305.026L136.479 302.103C137.342 302.917 138.465 303.583 139.846 304.101C141.227 304.619 142.707 304.878 144.286 304.878C146.21 304.878 147.702 304.471 148.763 303.657C149.848 302.818 150.391 301.696 150.391 300.29C150.391 298.933 149.873 297.848 148.837 297.034C147.826 296.195 146.21 295.776 143.99 295.776H141.918V293.186L149.614 283.714L150.132 285.194H135.961V281.975H153.055V284.491L145.396 293.926L143.472 292.779H144.693C147.826 292.779 150.169 293.482 151.723 294.888C153.302 296.294 154.091 298.082 154.091 300.253C154.091 301.708 153.733 303.04 153.018 304.249C152.303 305.458 151.217 306.42 149.762 307.135C148.331 307.826 146.506 308.171 144.286 308.171ZM168.124 308.171C166.101 308.171 164.288 307.653 162.685 306.617C161.106 305.581 159.848 304.076 158.911 302.103C157.998 300.13 157.542 297.737 157.542 294.925C157.542 292.113 157.998 289.72 158.911 287.747C159.848 285.774 161.106 284.269 162.685 283.233C164.288 282.197 166.101 281.679 168.124 281.679C170.122 281.679 171.923 282.197 173.526 283.233C175.129 284.269 176.387 285.774 177.3 287.747C178.213 289.72 178.669 292.113 178.669 294.925C178.669 297.737 178.213 300.13 177.3 302.103C176.387 304.076 175.129 305.581 173.526 306.617C171.923 307.653 170.122 308.171 168.124 308.171ZM168.124 304.878C169.481 304.878 170.665 304.508 171.676 303.768C172.712 303.028 173.514 301.918 174.081 300.438C174.673 298.958 174.969 297.12 174.969 294.925C174.969 292.73 174.673 290.892 174.081 289.412C173.514 287.932 172.712 286.822 171.676 286.082C170.665 285.342 169.481 284.972 168.124 284.972C166.767 284.972 165.571 285.342 164.535 286.082C163.499 286.822 162.685 287.932 162.093 289.412C161.526 290.892 161.242 292.73 161.242 294.925C161.242 297.12 161.526 298.958 162.093 300.438C162.685 301.918 163.499 303.028 164.535 303.768C165.571 304.508 166.767 304.878 168.124 304.878Z" fill="#292C33"/>
<path d="M350.813 62.9856C358.546 62.9856 361.58 66.2046 361.58 70.7926C361.58 75.2696 358.398 78.8586 351.775 78.8586C348.112 78.8586 344.486 77.6746 342.266 75.7136L343.968 72.7906C345.707 74.4186 348.593 75.5656 351.738 75.5656C355.66 75.5656 357.88 73.7526 357.88 70.9406C357.88 68.0176 356.03 66.2046 350.036 66.2046H344.153L345.522 52.6626H360.137V55.8816H348.63L347.927 62.9856H350.813Z" fill="#292C33"/>
<path d="M331.844 104.975H341.353V130.875H337.69V108.194H331.844V104.975ZM351.94 127.656H365.223V130.875H346.612V128.359L357.157 118.184C359.895 115.52 360.413 113.892 360.413 112.264C360.413 109.6 358.526 107.972 354.9 107.972C352.125 107.972 349.868 108.86 348.277 110.784L345.761 108.601C347.759 106.122 351.2 104.679 355.233 104.679C360.635 104.679 364.113 107.454 364.113 111.894C364.113 114.41 363.373 116.667 359.858 120.034L351.94 127.656Z" fill="#292C33"/>
<path d="M331.049 163.975H340.558V189.875H336.895V167.194H331.049V163.975ZM354.623 163.679C361.579 163.679 365.501 168.341 365.501 176.592C365.501 185.435 360.506 190.171 353.254 190.171C350.812 190.171 348.481 189.69 346.816 188.654L348.222 185.768C349.591 186.656 351.33 186.989 353.217 186.989C358.471 186.989 361.801 183.696 361.801 177.221V176.296C360.284 178.553 357.546 179.7 354.327 179.7C349.184 179.7 345.484 176.629 345.484 171.856C345.484 166.861 349.48 163.679 354.623 163.679ZM354.956 176.703C358.508 176.703 360.95 174.52 360.95 171.671C360.95 169.007 358.804 166.676 354.771 166.676C351.404 166.676 349.073 168.637 349.073 171.708C349.073 174.742 351.33 176.703 354.956 176.703Z" fill="#292C33"/>
<path d="M328.365 248.875V246.359L338.91 236.184C339.847 235.296 340.538 234.519 340.982 233.853C341.45 233.162 341.759 232.533 341.907 231.966C342.079 231.374 342.166 230.807 342.166 230.264C342.166 228.932 341.697 227.884 340.76 227.119C339.822 226.354 338.453 225.972 336.653 225.972C335.271 225.972 334.026 226.206 332.916 226.675C331.806 227.119 330.844 227.822 330.03 228.784L327.514 226.601C328.5 225.343 329.82 224.381 331.473 223.715C333.15 223.024 334.988 222.679 336.986 222.679C338.786 222.679 340.353 222.975 341.685 223.567C343.017 224.134 344.04 224.961 344.756 226.046C345.496 227.131 345.866 228.414 345.866 229.894C345.866 230.733 345.755 231.559 345.533 232.373C345.311 233.187 344.891 234.05 344.275 234.963C343.658 235.876 342.77 236.899 341.611 238.034L332.213 247.099L331.325 245.656H346.976V248.875H328.365ZM360.86 249.171C358.566 249.171 356.605 248.665 354.977 247.654C353.349 246.643 352.103 245.187 351.24 243.288C350.401 241.364 349.982 239.021 349.982 236.258C349.982 233.323 350.5 230.844 351.536 228.821C352.572 226.798 354.015 225.269 355.865 224.233C357.715 223.197 359.836 222.679 362.229 222.679C363.462 222.679 364.634 222.802 365.744 223.049C366.878 223.296 367.853 223.678 368.667 224.196L367.261 227.082C366.595 226.613 365.83 226.293 364.967 226.12C364.128 225.947 363.24 225.861 362.303 225.861C359.663 225.861 357.567 226.687 356.013 228.34C354.459 229.968 353.682 232.398 353.682 235.629C353.682 236.147 353.706 236.764 353.756 237.479C353.805 238.194 353.928 238.897 354.126 239.588L352.868 238.33C353.238 237.195 353.817 236.246 354.607 235.481C355.421 234.692 356.383 234.112 357.493 233.742C358.627 233.347 359.848 233.15 361.156 233.15C362.882 233.15 364.412 233.471 365.744 234.112C367.076 234.753 368.124 235.666 368.889 236.85C369.653 238.009 370.036 239.391 370.036 240.994C370.036 242.647 369.629 244.09 368.815 245.323C368.001 246.556 366.903 247.506 365.522 248.172C364.14 248.838 362.586 249.171 360.86 249.171ZM360.712 246.174C361.846 246.174 362.833 245.964 363.672 245.545C364.535 245.126 365.213 244.546 365.707 243.806C366.2 243.041 366.447 242.153 366.447 241.142C366.447 239.613 365.916 238.404 364.856 237.516C363.795 236.603 362.352 236.147 360.527 236.147C359.343 236.147 358.307 236.369 357.419 236.813C356.531 237.257 355.828 237.861 355.31 238.626C354.816 239.366 354.57 240.217 354.57 241.179C354.57 242.067 354.804 242.893 355.273 243.658C355.741 244.398 356.432 245.002 357.345 245.471C358.257 245.94 359.38 246.174 360.712 246.174Z" fill="#292C33"/>
<path d="M414.903 62.8377C420.046 62.8377 423.783 65.9087 423.783 70.6817C423.783 75.6767 419.75 78.8587 414.607 78.8587C407.651 78.8587 403.729 74.1967 403.729 65.9457C403.729 57.1027 408.724 52.3667 415.976 52.3667C418.418 52.3667 420.749 52.8477 422.414 53.8837L421.008 56.7697C419.676 55.8817 417.899 55.5487 416.049 55.5487C410.795 55.5487 407.428 58.8417 407.428 65.3167C407.428 65.6127 407.429 65.9087 407.466 66.2417C408.946 64.0217 411.684 62.8377 414.903 62.8377ZM414.459 75.8617C417.826 75.8617 420.194 73.9007 420.194 70.8297C420.194 67.7957 417.899 65.8347 414.273 65.8347C410.758 65.8347 408.316 68.0177 408.316 70.8667C408.316 73.5307 410.463 75.8617 414.459 75.8617Z" fill="#292C33"/>
<path d="M396.381 104.975H405.89V130.875H402.227V108.194H396.381V104.975ZM421.472 115.853C426.652 116.334 429.279 119.257 429.279 123.253C429.279 127.619 426.06 131.171 419.474 131.171C415.774 131.171 412.148 129.987 409.965 128.026L411.667 125.103C413.406 126.731 416.292 127.878 419.474 127.878C423.359 127.878 425.579 126.102 425.579 123.29C425.579 120.552 423.618 118.776 419.178 118.776H417.106V116.186L423.618 108.194H411.149V104.975H428.243V107.491L421.472 115.853Z" fill="#292C33"/>
<path d="M397.308 186.656H410.591V189.875H391.98V187.359L402.525 177.184C405.263 174.52 405.781 172.892 405.781 171.264C405.781 168.6 403.894 166.972 400.268 166.972C397.493 166.972 395.236 167.86 393.645 169.784L391.129 167.601C393.127 165.122 396.568 163.679 400.601 163.679C406.003 163.679 409.481 166.454 409.481 170.894C409.481 173.41 408.741 175.667 405.226 179.034L397.308 186.656ZM424.107 190.171C418.039 190.171 413.525 185.361 413.525 176.925C413.525 168.489 418.039 163.679 424.107 163.679C430.138 163.679 434.652 168.489 434.652 176.925C434.652 185.361 430.138 190.171 424.107 190.171ZM424.107 186.878C428.14 186.878 430.952 183.548 430.952 176.925C430.952 170.302 428.14 166.972 424.107 166.972C420.037 166.972 417.225 170.302 417.225 176.925C417.225 183.548 420.037 186.878 424.107 186.878Z" fill="#292C33"/>
<path d="M18.5723 104.975H38.1083V107.491L27.6373 130.875H23.7153L33.9643 108.194H22.1243V112.819H18.5723V104.975Z" fill="#292C33"/>
<path d="M9.5918 163.975H19.1008V189.875H15.4378V167.194H9.5918V163.975ZM47.2991 180.329V183.511H42.3781V189.875H38.7891V183.511H24.3961V180.921L37.6421 163.975H41.6381L28.9471 180.329H38.9001V174.705H42.3781V180.329H47.2991Z" fill="#292C33"/>
<path d="M17.7453 245.656H31.0283V248.875H12.4174V246.359L22.9623 236.184C25.7003 233.52 26.2183 231.892 26.2183 230.264C26.2183 227.6 24.3313 225.972 20.7053 225.972C17.9303 225.972 15.6734 226.86 14.0824 228.784L11.5664 226.601C13.5644 224.122 17.0053 222.679 21.0383 222.679C26.4403 222.679 29.9183 225.454 29.9183 229.894C29.9183 232.41 29.1783 234.667 25.6633 238.034L17.7453 245.656ZM32.5904 222.975H42.0994V248.875H38.4364V226.194H32.5904V222.975Z" fill="#292C33"/>
<path d="M85.2637 52.6626H94.7727V78.5626H91.1097V55.8816H85.2637V52.6626Z" fill="#292C33"/>
<path d="M98.7242 117.296C101.684 118.443 103.312 120.589 103.312 123.549C103.312 128.248 99.3162 131.171 92.9892 131.171C86.6992 131.171 82.7402 128.248 82.7402 123.549C82.7402 120.589 84.3682 118.406 87.2912 117.296C84.9232 116.186 83.6652 114.262 83.6652 111.709C83.6652 107.38 87.4022 104.679 92.9892 104.679C98.6132 104.679 102.387 107.38 102.387 111.709C102.387 114.262 101.092 116.186 98.7242 117.296ZM92.9892 107.676C89.5112 107.676 87.3282 109.267 87.3282 111.857C87.3282 114.41 89.4372 116.001 92.9892 116.001C96.5782 116.001 98.7612 114.41 98.7612 111.857C98.7612 109.267 96.4672 107.676 92.9892 107.676ZM92.9892 128.174C97.0962 128.174 99.6122 126.361 99.6122 123.438C99.6122 120.589 97.0962 118.813 92.9892 118.813C88.8822 118.813 86.4402 120.589 86.4402 123.438C86.4402 126.361 88.8822 128.174 92.9892 128.174Z" fill="#292C33"/>
<path d="M75.8438 163.975H85.3528V189.875H81.6898V167.194H75.8438V163.975ZM98.4182 174.298C106.152 174.298 109.186 177.517 109.186 182.105C109.186 186.582 106.004 190.171 99.3801 190.171C95.7171 190.171 92.0911 188.987 89.8711 187.026L91.5732 184.103C93.3122 185.731 96.1981 186.878 99.3431 186.878C103.265 186.878 105.485 185.065 105.485 182.253C105.485 179.33 103.635 177.517 97.6412 177.517H91.7581L93.1272 163.975H107.743V167.194H96.2352L95.5322 174.298H98.4182Z" fill="#292C33"/>
<path d="M78.47 245.656H91.753V248.875H73.142V246.359L83.687 236.184C86.425 233.52 86.943 231.892 86.943 230.264C86.943 227.6 85.056 225.972 81.43 225.972C78.655 225.972 76.398 226.86 74.807 228.784L72.291 226.601C74.289 224.122 77.73 222.679 81.763 222.679C87.165 222.679 90.643 225.454 90.643 229.894C90.643 232.41 89.903 234.667 86.388 238.034L78.47 245.656ZM99.7161 245.656H112.999V248.875H94.3881V246.359L104.933 236.184C107.671 233.52 108.189 231.892 108.189 230.264C108.189 227.6 106.302 225.972 102.676 225.972C99.9011 225.972 97.6441 226.86 96.0531 228.784L93.5371 226.601C95.5351 224.122 98.9761 222.679 103.009 222.679C108.411 222.679 111.889 225.454 111.889 229.894C111.889 232.41 111.149 234.667 107.634 238.034L99.7161 245.656Z" fill="#292C33"/>
<path d="M156.276 104.679C163.232 104.679 167.154 109.341 167.154 117.592C167.154 126.435 162.159 131.171 154.907 131.171C152.465 131.171 150.134 130.69 148.469 129.654L149.875 126.768C151.244 127.656 152.983 127.989 154.87 127.989C160.124 127.989 163.454 124.696 163.454 118.221V117.296C161.937 119.553 159.199 120.7 155.98 120.7C150.837 120.7 147.137 117.629 147.137 112.856C147.137 107.861 151.133 104.679 156.276 104.679ZM156.609 117.703C160.161 117.703 162.603 115.52 162.603 112.671C162.603 110.007 160.457 107.676 156.424 107.676C153.057 107.676 150.726 109.637 150.726 112.708C150.726 115.742 152.983 117.703 156.609 117.703Z" fill="white"/>
<path d="M139.549 163.975H149.058V189.875H145.395V167.194H139.549V163.975ZM165.898 174.15C171.041 174.15 174.778 177.221 174.778 181.994C174.778 186.989 170.745 190.171 165.602 190.171C158.646 190.171 154.724 185.509 154.724 177.258C154.724 168.415 159.719 163.679 166.971 163.679C169.413 163.679 171.744 164.16 173.409 165.196L172.003 168.082C170.671 167.194 168.895 166.861 167.045 166.861C161.791 166.861 158.424 170.154 158.424 176.629C158.424 176.925 158.424 177.221 158.461 177.554C159.941 175.334 162.679 174.15 165.898 174.15ZM165.454 187.174C168.821 187.174 171.189 185.213 171.189 182.142C171.189 179.108 168.895 177.147 165.269 177.147C161.754 177.147 159.312 179.33 159.312 182.179C159.312 184.843 161.458 187.174 165.454 187.174Z" fill="#292C33"/>
<path d="M143.005 245.656H156.288V248.875H137.677V246.359L148.222 236.184C150.96 233.52 151.478 231.892 151.478 230.264C151.478 227.6 149.591 225.972 145.965 225.972C143.19 225.972 140.933 226.86 139.342 228.784L136.826 226.601C138.824 224.122 142.265 222.679 146.298 222.679C151.7 222.679 155.178 225.454 155.178 229.894C155.178 232.41 154.438 234.667 150.923 238.034L143.005 245.656ZM169.247 233.853C174.427 234.334 177.054 237.257 177.054 241.253C177.054 245.619 173.835 249.171 167.249 249.171C163.549 249.171 159.923 247.987 157.74 246.026L159.442 243.103C161.181 244.731 164.067 245.878 167.249 245.878C171.134 245.878 173.354 244.102 173.354 241.29C173.354 238.552 171.393 236.776 166.953 236.776H164.881V234.186L171.393 226.194H158.924V222.975H176.018V225.491L169.247 233.853Z" fill="#292C33"/>
<path d="M154.843 75.3437H168.126V78.5627H149.515V76.0467L160.06 65.8717C162.798 63.2077 163.316 61.5797 163.316 59.9517C163.316 57.2877 161.429 55.6597 157.803 55.6597C155.028 55.6597 152.771 56.5477 151.18 58.4717L148.664 56.2887C150.662 53.8097 154.103 52.3667 158.136 52.3667C163.538 52.3667 167.016 55.1417 167.016 59.5817C167.016 62.0977 166.276 64.3547 162.761 67.7217L154.843 75.3437Z" fill="#292C33"/>
<path d="M214.779 308.171C212.954 308.171 211.178 307.887 209.451 307.32C207.749 306.753 206.356 305.988 205.27 305.026L206.972 302.103C207.836 302.917 208.958 303.583 210.339 304.101C211.721 304.619 213.201 304.878 214.779 304.878C216.703 304.878 218.196 304.471 219.256 303.657C220.342 302.818 220.884 301.696 220.884 300.29C220.884 298.933 220.366 297.848 219.33 297.034C218.319 296.195 216.703 295.776 214.483 295.776H212.411V293.186L220.107 283.714L220.625 285.194H206.454V281.975H223.548V284.491L215.889 293.926L213.965 292.779H215.186C218.319 292.779 220.662 293.482 222.216 294.888C223.795 296.294 224.584 298.082 224.584 300.253C224.584 301.708 224.227 303.04 223.511 304.249C222.796 305.458 221.711 306.42 220.255 307.135C218.825 307.826 216.999 308.171 214.779 308.171ZM232.401 307.875V283.455L233.992 285.194H226.555V281.975H236.064V307.875H232.401Z" fill="#292C33"/>
</g>
<defs>
<clipPath id="clip0_3949_8374">
<rect width="439" height="318" fill="white"/>
</clipPath>
</defs>
</svg>
