<svg width="431" height="317" viewBox="0 0 431 317" fill="none" xmlns="http://www.w3.org/2000/svg">
<g clip-path="url(#clip0_532_3271)">
<rect width="57" height="47" transform="translate(122.519 270)" fill="#3C78EC"/>
<path d="M22.9564 20.7264H20.3476V3.36139H10.8906V20.7264H8.2002V1.32324H22.8749V20.7264H22.9564Z" fill="#B3B3B3"/>
<path d="M38.7725 20.7264H36.1636V14.6119H29.7231V20.7264H27.1143V6.29626H29.7231V12.5738H36.1636V6.29626H38.7725V20.7264Z" fill="#B3B3B3"/>
<path d="M73 20.7264V1.32324H79.359C81.3972 1.32324 82.9462 1.73087 84.0875 2.62766C85.2289 3.52444 85.7996 4.82886 85.7996 6.5409C85.7996 7.35616 85.555 8.08989 85.0658 8.82363C84.5767 9.55736 83.8429 9.96499 83.0277 10.2911C84.3321 10.4541 85.3104 11.0248 86.0441 11.9216C86.7779 12.8184 87.1855 13.9598 87.1855 15.1826C87.1855 16.9762 86.6148 18.2806 85.4735 19.2589C84.3321 20.2373 82.7831 20.6449 80.745 20.6449H73V20.7264ZM75.6904 9.55736H79.9297C80.908 9.55736 81.7233 9.31278 82.294 8.7421C82.9462 8.17142 83.1907 7.43769 83.1907 6.45937C83.1907 5.39954 82.8646 4.6658 82.2124 4.09512C81.5602 3.60597 80.5819 3.27986 79.359 3.27986H75.6904V9.55736ZM75.6904 11.5955V18.6067H80.745C81.9678 18.6067 82.8646 18.2806 83.5168 17.71C84.1691 17.1393 84.4952 16.2425 84.4952 15.1826C84.4952 14.1228 84.1691 13.226 83.5168 12.5738C82.8646 11.9216 81.9678 11.5955 80.745 11.514H80.5819H75.6904V11.5955Z" fill="#B3B3B3"/>
<path d="M101.126 8.33441H96.3976V20.7264H93.7888V8.33441H89.0603V6.29626H101.126V8.33441Z" fill="#B3B3B3"/>
<path d="M150.512 14.5304C150.593 16.4055 149.941 17.9545 148.637 19.1773C147.332 20.4002 145.62 21.0524 143.419 21.0524C141.218 21.0524 139.424 20.2372 138.038 18.6882C136.652 17.1392 136 15.1826 136 12.7368V9.31271C136 6.94846 136.652 4.91031 138.038 3.36132C139.424 1.81233 141.218 0.99707 143.419 0.99707C145.62 0.99707 147.332 1.56775 148.637 2.70911C149.941 3.85048 150.593 5.39947 150.512 7.35609V7.43762H147.984C147.984 6.05168 147.577 4.99184 146.761 4.17658C145.946 3.36132 144.805 2.95369 143.337 2.95369C141.87 2.95369 140.729 3.52437 139.832 4.74726C138.935 5.88862 138.527 7.35609 138.527 9.14966V12.6553C138.527 14.4488 138.935 15.9163 139.832 17.0577C140.729 18.199 141.87 18.8512 143.337 18.8512C144.805 18.8512 145.946 18.4436 146.761 17.7099C147.577 16.8946 147.984 15.8348 147.984 14.4488H150.512V14.5304Z" fill="#B3B3B3"/>
<path d="M165.92 14.0413C165.92 16.161 165.431 17.7915 164.453 19.0959C163.474 20.4003 162.088 20.971 160.295 20.971C159.398 20.971 158.664 20.8079 157.93 20.5634C157.278 20.2373 156.708 19.8296 156.218 19.259V26.2702H153.61V6.29634H155.648L156.055 8.17143C156.545 7.4377 157.115 6.94854 157.849 6.62244C158.583 6.29634 159.398 6.05176 160.295 6.05176C162.088 6.05176 163.474 6.78549 164.453 8.17143C165.431 9.55737 165.92 11.4325 165.92 13.7967V14.0413ZM163.311 13.7967C163.311 12.1662 162.985 10.7803 162.333 9.80195C161.681 8.82364 160.702 8.25296 159.479 8.25296C158.746 8.25296 158.094 8.41601 157.523 8.74211C156.952 9.06822 156.545 9.55737 156.218 10.1281V17.1393C156.545 17.71 156.952 18.1991 157.523 18.5252C158.094 18.8513 158.746 19.0144 159.479 19.0144C160.702 19.0144 161.681 18.5252 162.333 17.6284C162.985 16.7317 163.311 15.5088 163.311 14.1228V13.7967Z" fill="#B3B3B3"/>
<path d="M215.43 1.32324V20.7264H212.821V12.6553C212.006 12.8999 211.191 13.063 210.375 13.226C209.56 13.3076 208.663 13.3891 207.522 13.3891C205.402 13.3891 203.772 12.8999 202.631 12.0031C201.489 11.1064 201 9.55736 201 7.43769V1.32324H203.609V7.43769C203.609 8.90515 203.935 9.88346 204.506 10.4541C205.158 11.0248 206.136 11.2694 207.441 11.2694C208.337 11.2694 209.234 11.1879 210.131 11.1064C210.946 10.9433 211.843 10.7802 212.74 10.5357V1.32324H215.43Z" fill="#B3B3B3"/>
<path d="M230.675 8.33441H225.947V20.7264H223.338V8.33441H218.61V6.29626H230.675V8.33441Z" fill="#B3B3B3"/>
<path d="M279.675 20.7264H277.066V3.36139H267.609V20.7264H265V1.32324H279.675V20.7264Z" fill="#B3B3B3"/>
<path d="M294.92 8.33453H290.192V20.7265H287.583V8.33453H282.854V6.29639H294.92V8.33453Z" fill="#B3B3B3"/>
<path d="M344.512 14.5302C344.593 16.4053 343.941 17.9543 342.637 19.1772C341.332 20.4001 339.62 21.0523 337.419 21.0523C335.218 21.0523 333.424 20.2371 332.038 18.6881C330.652 17.1391 330 15.1825 330 12.7367V9.31259C330 6.94834 330.652 4.91019 332.038 3.3612C333.424 1.81221 335.218 0.996948 337.419 0.996948C339.62 0.996948 341.332 1.56763 342.637 2.70899C343.941 3.85035 344.593 5.39935 344.512 7.35597V7.43749H341.984C341.984 6.05155 341.577 4.99172 340.761 4.17646C339.946 3.3612 338.805 2.95357 337.337 2.95357C335.87 2.95357 334.729 3.52425 333.832 4.74714C332.935 5.8885 332.527 7.35597 332.527 9.14954V12.6552C332.527 14.4487 332.935 15.9162 333.832 17.0575C334.729 18.1989 335.87 18.8511 337.337 18.8511C338.805 18.8511 339.946 18.4435 340.761 17.7098C341.577 16.8945 341.984 15.8347 341.984 14.4487H344.512V14.5302Z" fill="#B3B3B3"/>
<path d="M353.887 6.05149C355.762 6.05149 357.148 6.7037 358.208 8.08964C359.268 9.47558 359.838 11.1876 359.838 13.3888V13.7149C359.838 15.8346 359.268 17.6282 358.126 19.0141C356.985 20.4 355.436 21.0523 353.398 21.0523C351.36 21.0523 349.811 20.4 348.669 19.0141C347.528 17.6282 346.957 15.9161 346.957 13.7149V13.3888C346.957 13.3073 346.957 13.2258 346.957 13.2258C346.957 13.1442 346.957 13.1442 346.957 13.0627V9.96473C346.957 7.19285 347.528 5.23623 348.588 3.93182C349.648 2.6274 351.278 1.97519 353.398 1.81214C354.621 1.73062 355.599 1.56756 356.251 1.32299C356.903 1.07841 357.23 0.670779 357.23 0.100098H359.268V0.181624C359.349 1.56756 358.86 2.54587 357.882 3.11656C356.903 3.68724 355.517 4.01334 353.642 4.01334C352.256 4.01334 351.197 4.42097 350.381 5.1547C349.566 5.88844 349.158 6.94827 349.158 8.33421V8.41574C349.648 7.76353 350.381 7.19285 351.197 6.78522C352.012 6.37759 352.99 6.05149 353.887 6.05149ZM353.398 8.08964C352.175 8.08964 351.197 8.57879 350.544 9.5571C349.892 10.5354 349.566 11.8398 349.566 13.3073V13.6334C349.566 15.1824 349.892 16.4053 350.544 17.3836C351.197 18.3619 352.175 18.8511 353.398 18.8511C354.621 18.8511 355.599 18.3619 356.251 17.3836C356.903 16.4053 357.23 15.1009 357.23 13.6334V13.3073C357.23 11.7583 356.903 10.5354 356.251 9.5571C355.599 8.57879 354.621 8.08964 353.398 8.08964Z" fill="#B3B3B3"/>
<path d="M394 20.7264V1.32324H400.359C402.397 1.32324 403.946 1.73087 405.088 2.62766C406.229 3.52444 406.8 4.82886 406.8 6.5409C406.8 7.35616 406.555 8.08989 406.066 8.82363C405.577 9.55736 404.843 9.96499 404.028 10.3726C405.332 10.5357 406.31 11.1064 407.044 12.0031C407.778 12.8999 408.186 14.0413 408.186 15.2642C408.186 17.0577 407.615 18.3622 406.473 19.3405C405.332 20.3188 403.783 20.7264 401.745 20.7264H394ZM396.69 9.55736H400.93C401.908 9.55736 402.723 9.31278 403.294 8.7421C403.946 8.17142 404.191 7.43769 404.191 6.45937C404.191 5.39954 403.865 4.6658 403.212 4.09512C402.56 3.60597 401.582 3.27986 400.359 3.27986H396.69V9.55736ZM396.69 11.5955V18.6067H401.745C402.968 18.6067 403.865 18.2806 404.517 17.71C405.169 17.1393 405.495 16.2425 405.495 15.1826C405.495 14.1228 405.169 13.226 404.517 12.5738C403.865 11.9216 402.968 11.5955 401.745 11.514H401.582H396.69V11.5955Z" fill="#B3B3B3"/>
<path d="M416.745 18.9325C417.561 18.9325 418.294 18.6879 418.865 18.1172C419.436 17.5466 419.762 16.8944 419.762 16.1606H422.126V16.2421C422.126 17.465 421.637 18.6064 420.496 19.5847C419.354 20.563 418.131 21.0522 416.664 21.0522C414.626 21.0522 413.077 20.4 411.935 19.014C410.794 17.6281 410.305 15.916 410.305 13.8779V13.3072C410.305 11.2691 410.876 9.55702 411.935 8.17108C413.077 6.78514 414.626 6.13293 416.582 6.13293C418.213 6.13293 419.517 6.62209 420.496 7.6004C421.474 8.57871 422.045 9.8016 421.963 11.2691V11.3506H419.599C419.599 10.4538 419.273 9.72007 418.702 9.06787C418.131 8.41566 417.398 8.17108 416.501 8.17108C415.196 8.17108 414.3 8.66024 413.647 9.63855C413.077 10.6169 412.751 11.8397 412.751 13.3072V13.8779C412.751 15.3454 413.077 16.5683 413.647 17.5466C414.544 18.4433 415.441 18.9325 416.745 18.9325Z" fill="#B3B3B3"/>
<path d="M281.584 62.978C286.764 63.459 289.391 66.382 289.391 70.378C289.391 74.744 286.172 78.296 279.586 78.296C275.886 78.296 272.26 77.112 270.077 75.151L271.779 72.228C273.518 73.856 276.404 75.003 279.586 75.003C283.471 75.003 285.691 73.227 285.691 70.415C285.691 67.677 283.73 65.901 279.29 65.901H277.218V63.311L283.73 55.319H271.261V52.1H288.355V54.616L281.584 62.978Z" fill="#292C33"/>
<path d="M262.619 105.1H272.128V131H268.465V108.319H262.619V105.1ZM288.375 131.296C282.307 131.296 277.793 126.486 277.793 118.05C277.793 109.614 282.307 104.804 288.375 104.804C294.406 104.804 298.92 109.614 298.92 118.05C298.92 126.486 294.406 131.296 288.375 131.296ZM288.375 128.003C292.408 128.003 295.22 124.673 295.22 118.05C295.22 111.427 292.408 108.097 288.375 108.097C284.305 108.097 281.493 111.427 281.493 118.05C281.493 124.673 284.305 128.003 288.375 128.003Z" fill="#292C33"/>
<path d="M263.901 164.1H273.41V190H269.747V167.319H263.901V164.1ZM278.41 164.1H297.946V166.616L287.475 190H283.553L293.802 167.319H281.962V171.944H278.41V164.1Z" fill="#292C33"/>
<path d="M265.551 245.781H278.834V249H260.223V246.484L270.768 236.309C273.506 233.645 274.024 232.017 274.024 230.389C274.024 227.725 272.137 226.097 268.511 226.097C265.736 226.097 263.479 226.985 261.888 228.909L259.372 226.726C261.37 224.247 264.811 222.804 268.844 222.804C274.246 222.804 277.724 225.579 277.724 230.019C277.724 232.535 276.984 234.792 273.469 238.159L265.551 245.781ZM303.723 239.454V242.636H298.802V249H295.213V242.636H280.82V240.046L294.066 223.1H298.062L285.371 239.454H295.324V233.83H298.802V239.454H303.723Z" fill="#292C33"/>
<path d="M358.989 68.454V71.636H354.068V78H350.479V71.636H336.086V69.046L349.332 52.1H353.328L340.637 68.454H350.59V62.83H354.068V68.454H358.989Z" fill="#292C33"/>
<path d="M331.611 105.1H341.12V131H337.457V108.319H331.611V105.1ZM345.305 105.1H354.814V131H351.151V108.319H345.305V105.1Z" fill="#292C33"/>
<path d="M326.552 164.1H336.061V190H332.398V167.319H326.552V164.1ZM357.563 176.421C360.523 177.568 362.151 179.714 362.151 182.674C362.151 187.373 358.155 190.296 351.828 190.296C345.538 190.296 341.579 187.373 341.579 182.674C341.579 179.714 343.207 177.531 346.13 176.421C343.762 175.311 342.504 173.387 342.504 170.834C342.504 166.505 346.241 163.804 351.828 163.804C357.452 163.804 361.226 166.505 361.226 170.834C361.226 173.387 359.931 175.311 357.563 176.421ZM351.828 166.801C348.35 166.801 346.167 168.392 346.167 170.982C346.167 173.535 348.276 175.126 351.828 175.126C355.417 175.126 357.6 173.535 357.6 170.982C357.6 168.392 355.306 166.801 351.828 166.801ZM351.828 187.299C355.935 187.299 358.451 185.486 358.451 182.563C358.451 179.714 355.935 177.938 351.828 177.938C347.721 177.938 345.279 179.714 345.279 182.563C345.279 185.486 347.721 187.299 351.828 187.299Z" fill="#292C33"/>
<path d="M330.46 245.781H343.743V249H325.132V246.484L335.677 236.309C338.415 233.645 338.933 232.017 338.933 230.389C338.933 227.725 337.046 226.097 333.42 226.097C330.645 226.097 328.388 226.985 326.797 228.909L324.281 226.726C326.279 224.247 329.72 222.804 333.753 222.804C339.155 222.804 342.633 225.579 342.633 230.019C342.633 232.535 341.893 234.792 338.378 238.159L330.46 245.781ZM354.185 233.423C361.918 233.423 364.952 236.642 364.952 241.23C364.952 245.707 361.77 249.296 355.147 249.296C351.484 249.296 347.858 248.112 345.638 246.151L347.34 243.228C349.079 244.856 351.965 246.003 355.11 246.003C359.032 246.003 361.252 244.19 361.252 241.378C361.252 238.455 359.402 236.642 353.408 236.642H347.525L348.894 223.1H363.509V226.319H352.002L351.299 233.423H354.185Z" fill="#292C33"/>
<path d="M7.58079 304.781H20.8638V308H2.25279V305.484L12.7978 295.309C15.5358 292.645 16.0538 291.017 16.0538 289.389C16.0538 286.725 14.1668 285.097 10.5408 285.097C7.76579 285.097 5.50879 285.985 3.91779 287.909L1.40179 285.726C3.39979 283.247 6.84079 281.804 10.8738 281.804C16.2758 281.804 19.7538 284.579 19.7538 289.019C19.7538 291.535 19.0138 293.792 15.4988 297.159L7.58079 304.781ZM23.1315 282.1H42.6675V284.616L32.1965 308H28.2745L38.5235 285.319H26.6835V289.944H23.1315V282.1Z" fill="#292C33"/>
<path d="M66.3495 308V305.484L76.8945 295.309C77.8318 294.421 78.5225 293.644 78.9665 292.978C79.4351 292.287 79.7435 291.658 79.8915 291.091C80.0641 290.499 80.1505 289.932 80.1505 289.389C80.1505 288.057 79.6818 287.009 78.7445 286.244C77.8071 285.479 76.4381 285.097 74.6375 285.097C73.2561 285.097 72.0105 285.331 70.9005 285.8C69.7905 286.244 68.8285 286.947 68.0145 287.909L65.4985 285.726C66.4851 284.468 67.8048 283.506 69.4575 282.84C71.1348 282.149 72.9725 281.804 74.9705 281.804C76.7711 281.804 78.3375 282.1 79.6695 282.692C81.0015 283.259 82.0251 284.086 82.7405 285.171C83.4805 286.256 83.8505 287.539 83.8505 289.019C83.8505 289.858 83.7395 290.684 83.5175 291.498C83.2955 292.312 82.8761 293.175 82.2595 294.088C81.6428 295.001 80.7548 296.024 79.5955 297.159L70.1975 306.224L69.3095 304.781H84.9605V308H66.3495ZM98.1036 308.296C96.0069 308.296 94.1939 307.988 92.6646 307.371C91.1352 306.754 89.9512 305.879 89.1126 304.744C88.2739 303.585 87.8546 302.228 87.8546 300.674C87.8546 299.145 88.2492 297.85 89.0386 296.789C89.8526 295.704 91.0242 294.89 92.5536 294.347C94.0829 293.78 95.9329 293.496 98.1036 293.496C100.274 293.496 102.124 293.78 103.654 294.347C105.208 294.89 106.392 295.704 107.206 296.789C108.02 297.874 108.427 299.169 108.427 300.674C108.427 302.228 108.007 303.585 107.169 304.744C106.33 305.879 105.134 306.754 103.58 307.371C102.026 307.988 100.2 308.296 98.1036 308.296ZM98.1036 305.299C100.176 305.299 101.791 304.88 102.951 304.041C104.135 303.178 104.727 302.018 104.727 300.563C104.727 299.132 104.135 298.01 102.951 297.196C101.791 296.357 100.176 295.938 98.1036 295.938C96.0562 295.938 94.4529 296.357 93.2936 297.196C92.1342 298.01 91.5546 299.132 91.5546 300.563C91.5546 302.018 92.1342 303.178 93.2936 304.041C94.4529 304.88 96.0562 305.299 98.1036 305.299ZM98.1036 295.494C96.1302 295.494 94.4529 295.235 93.0716 294.717C91.6902 294.174 90.6296 293.41 89.8896 292.423C89.1496 291.412 88.7796 290.215 88.7796 288.834C88.7796 287.379 89.1619 286.133 89.9266 285.097C90.7159 284.036 91.8136 283.222 93.2196 282.655C94.6256 282.088 96.2536 281.804 98.1036 281.804C99.9782 281.804 101.619 282.088 103.025 282.655C104.431 283.222 105.528 284.036 106.318 285.097C107.107 286.133 107.502 287.379 107.502 288.834C107.502 290.215 107.132 291.412 106.392 292.423C105.652 293.41 104.579 294.174 103.173 294.717C101.767 295.235 100.077 295.494 98.1036 295.494ZM98.1036 293.126C99.9042 293.126 101.31 292.756 102.322 292.016C103.358 291.276 103.876 290.265 103.876 288.982C103.876 287.675 103.345 286.651 102.285 285.911C101.224 285.171 99.8302 284.801 98.1036 284.801C96.3769 284.801 94.9956 285.171 93.9596 285.911C92.9482 286.651 92.4426 287.675 92.4426 288.982C92.4426 290.265 92.9359 291.276 93.9226 292.016C94.9339 292.756 96.3276 293.126 98.1036 293.126Z" fill="#292C33"/>
<path d="M131.337 308V305.484L141.882 295.309C142.82 294.421 143.51 293.644 143.954 292.978C144.423 292.287 144.731 291.658 144.879 291.091C145.052 290.499 145.138 289.932 145.138 289.389C145.138 288.057 144.67 287.009 143.732 286.244C142.795 285.479 141.426 285.097 139.625 285.097C138.244 285.097 136.998 285.331 135.888 285.8C134.778 286.244 133.816 286.947 133.002 287.909L130.486 285.726C131.473 284.468 132.793 283.506 134.445 282.84C136.123 282.149 137.96 281.804 139.958 281.804C141.759 281.804 143.325 282.1 144.657 282.692C145.989 283.259 147.013 284.086 147.728 285.171C148.468 286.256 148.838 287.539 148.838 289.019C148.838 289.858 148.727 290.684 148.505 291.498C148.283 292.312 147.864 293.175 147.247 294.088C146.631 295.001 145.743 296.024 144.583 297.159L135.185 306.224L134.297 304.781H149.948V308H131.337ZM161.389 281.804C163.733 281.804 165.706 282.31 167.309 283.321C168.937 284.332 170.171 285.8 171.009 287.724C171.848 289.623 172.267 291.954 172.267 294.717C172.267 297.652 171.749 300.131 170.713 302.154C169.677 304.177 168.247 305.706 166.421 306.742C164.596 307.778 162.462 308.296 160.02 308.296C158.812 308.296 157.64 308.173 156.505 307.926C155.395 307.679 154.421 307.297 153.582 306.779L154.988 303.893C155.679 304.337 156.444 304.658 157.282 304.855C158.146 305.028 159.046 305.114 159.983 305.114C162.598 305.114 164.682 304.3 166.236 302.672C167.79 301.019 168.567 298.577 168.567 295.346C168.567 294.828 168.543 294.211 168.493 293.496C168.444 292.781 168.333 292.078 168.16 291.387L169.381 292.645C169.036 293.78 168.456 294.742 167.642 295.531C166.853 296.296 165.891 296.875 164.756 297.27C163.646 297.64 162.425 297.825 161.093 297.825C159.391 297.825 157.874 297.504 156.542 296.863C155.21 296.222 154.162 295.321 153.397 294.162C152.633 292.978 152.25 291.584 152.25 289.981C152.25 288.304 152.645 286.861 153.434 285.652C154.248 284.419 155.346 283.469 156.727 282.803C158.133 282.137 159.687 281.804 161.389 281.804ZM161.537 284.801C160.427 284.801 159.441 285.011 158.577 285.43C157.714 285.849 157.036 286.429 156.542 287.169C156.074 287.909 155.839 288.797 155.839 289.833C155.839 291.362 156.37 292.583 157.43 293.496C158.491 294.384 159.922 294.828 161.722 294.828C162.906 294.828 163.942 294.606 164.83 294.162C165.743 293.718 166.446 293.114 166.939 292.349C167.457 291.584 167.716 290.733 167.716 289.796C167.716 288.883 167.482 288.057 167.013 287.317C166.545 286.577 165.854 285.973 164.941 285.504C164.029 285.035 162.894 284.801 161.537 284.801Z" fill="white"/>
<path d="M205.275 292.978C210.455 293.459 213.082 296.382 213.082 300.378C213.082 304.744 209.863 308.296 203.277 308.296C199.577 308.296 195.951 307.112 193.768 305.151L195.47 302.228C197.209 303.856 200.095 305.003 203.277 305.003C207.162 305.003 209.382 303.227 209.382 300.415C209.382 297.677 207.421 295.901 202.981 295.901H200.909V293.311L207.421 285.319H194.952V282.1H212.046V284.616L205.275 292.978ZM227.115 308.296C221.047 308.296 216.533 303.486 216.533 295.05C216.533 286.614 221.047 281.804 227.115 281.804C233.146 281.804 237.66 286.614 237.66 295.05C237.66 303.486 233.146 308.296 227.115 308.296ZM227.115 305.003C231.148 305.003 233.96 301.673 233.96 295.05C233.96 288.427 231.148 285.097 227.115 285.097C223.045 285.097 220.233 288.427 220.233 295.05C220.233 301.673 223.045 305.003 227.115 305.003Z" fill="#292C33"/>
<path d="M407.656 62.423C415.389 62.423 418.423 65.642 418.423 70.23C418.423 74.707 415.241 78.296 408.618 78.296C404.955 78.296 401.329 77.112 399.109 75.151L400.811 72.228C402.55 73.856 405.436 75.003 408.581 75.003C412.503 75.003 414.723 73.19 414.723 70.378C414.723 67.455 412.873 65.642 406.879 65.642H400.996L402.365 52.1H416.98V55.319H405.473L404.77 62.423H407.656Z" fill="#292C33"/>
<path d="M390.835 105.1H400.344V131H396.681V108.319H390.835V105.1ZM410.93 127.781H424.213V131H405.602V128.484L416.147 118.309C418.885 115.645 419.403 114.017 419.403 112.389C419.403 109.725 417.516 108.097 413.89 108.097C411.115 108.097 408.858 108.985 407.267 110.909L404.751 108.726C406.749 106.247 410.19 104.804 414.223 104.804C419.625 104.804 423.103 107.579 423.103 112.019C423.103 114.535 422.363 116.792 418.848 120.159L410.93 127.781Z" fill="#292C33"/>
<path d="M395.886 190V165.58L397.477 167.319H390.04V164.1H399.549V190H395.886ZM413.613 163.804C415.957 163.804 417.93 164.31 419.533 165.321C421.161 166.332 422.395 167.8 423.233 169.724C424.072 171.623 424.491 173.954 424.491 176.717C424.491 179.652 423.973 182.131 422.937 184.154C421.901 186.177 420.471 187.706 418.645 188.742C416.82 189.778 414.686 190.296 412.244 190.296C411.036 190.296 409.864 190.173 408.729 189.926C407.619 189.679 406.645 189.297 405.806 188.779L407.212 185.893C407.903 186.337 408.668 186.658 409.506 186.855C410.37 187.028 411.27 187.114 412.207 187.114C414.822 187.114 416.906 186.3 418.46 184.672C420.014 183.019 420.791 180.577 420.791 177.346C420.791 176.828 420.767 176.211 420.717 175.496C420.668 174.781 420.557 174.078 420.384 173.387L421.605 174.645C421.26 175.78 420.68 176.742 419.866 177.531C419.077 178.296 418.115 178.875 416.98 179.27C415.87 179.64 414.649 179.825 413.317 179.825C411.615 179.825 410.098 179.504 408.766 178.863C407.434 178.222 406.386 177.321 405.621 176.162C404.857 174.978 404.474 173.584 404.474 171.981C404.474 170.304 404.869 168.861 405.658 167.652C406.472 166.419 407.57 165.469 408.951 164.803C410.357 164.137 411.911 163.804 413.613 163.804ZM413.761 166.801C412.651 166.801 411.665 167.011 410.801 167.43C409.938 167.849 409.26 168.429 408.766 169.169C408.298 169.909 408.063 170.797 408.063 171.833C408.063 173.362 408.594 174.583 409.654 175.496C410.715 176.384 412.146 176.828 413.946 176.828C415.13 176.828 416.166 176.606 417.054 176.162C417.967 175.718 418.67 175.114 419.163 174.349C419.681 173.584 419.94 172.733 419.94 171.796C419.94 170.883 419.706 170.057 419.237 169.317C418.769 168.577 418.078 167.973 417.165 167.504C416.253 167.035 415.118 166.801 413.761 166.801Z" fill="#292C33"/>
<path d="M387.355 249V246.484L397.9 236.309C398.838 235.421 399.528 234.644 399.972 233.978C400.441 233.287 400.749 232.658 400.897 232.091C401.07 231.499 401.156 230.932 401.156 230.389C401.156 229.057 400.688 228.009 399.75 227.244C398.813 226.479 397.444 226.097 395.643 226.097C394.262 226.097 393.016 226.331 391.906 226.8C390.796 227.244 389.834 227.947 389.02 228.909L386.504 226.726C387.491 225.468 388.811 224.506 390.463 223.84C392.141 223.149 393.978 222.804 395.976 222.804C397.777 222.804 399.343 223.1 400.675 223.692C402.007 224.259 403.031 225.086 403.746 226.171C404.486 227.256 404.856 228.539 404.856 230.019C404.856 230.858 404.745 231.684 404.523 232.498C404.301 233.312 403.882 234.175 403.265 235.088C402.649 236.001 401.761 237.024 400.601 238.159L391.203 247.224L390.315 245.781H405.966V249H387.355ZM419.85 249.296C417.556 249.296 415.595 248.79 413.967 247.779C412.339 246.768 411.094 245.312 410.23 243.413C409.392 241.489 408.972 239.146 408.972 236.383C408.972 233.448 409.49 230.969 410.526 228.946C411.562 226.923 413.005 225.394 414.855 224.358C416.705 223.322 418.827 222.804 421.219 222.804C422.453 222.804 423.624 222.927 424.734 223.174C425.869 223.421 426.843 223.803 427.657 224.321L426.251 227.207C425.585 226.738 424.821 226.418 423.957 226.245C423.119 226.072 422.231 225.986 421.293 225.986C418.654 225.986 416.557 226.812 415.003 228.465C413.449 230.093 412.672 232.523 412.672 235.754C412.672 236.272 412.697 236.889 412.746 237.604C412.796 238.319 412.919 239.022 413.116 239.713L411.858 238.455C412.228 237.32 412.808 236.371 413.597 235.606C414.411 234.817 415.373 234.237 416.483 233.867C417.618 233.472 418.839 233.275 420.146 233.275C421.873 233.275 423.402 233.596 424.734 234.237C426.066 234.878 427.115 235.791 427.879 236.975C428.644 238.134 429.026 239.516 429.026 241.119C429.026 242.772 428.619 244.215 427.805 245.448C426.991 246.681 425.894 247.631 424.512 248.297C423.131 248.963 421.577 249.296 419.85 249.296ZM419.702 246.299C420.837 246.299 421.824 246.089 422.662 245.67C423.526 245.251 424.204 244.671 424.697 243.931C425.191 243.166 425.437 242.278 425.437 241.267C425.437 239.738 424.907 238.529 423.846 237.641C422.786 236.728 421.343 236.272 419.517 236.272C418.333 236.272 417.297 236.494 416.409 236.938C415.521 237.382 414.818 237.986 414.3 238.751C413.807 239.491 413.56 240.342 413.56 241.304C413.56 242.192 413.795 243.018 414.263 243.783C414.732 244.523 415.423 245.127 416.335 245.596C417.248 246.065 418.37 246.299 419.702 246.299Z" fill="#292C33"/>
<path d="M24.0413 115.275C29.1843 115.275 32.9213 118.346 32.9213 123.119C32.9213 128.114 28.8883 131.296 23.7453 131.296C16.7893 131.296 12.8673 126.634 12.8673 118.383C12.8673 109.54 17.8623 104.804 25.1143 104.804C27.5563 104.804 29.8873 105.285 31.5523 106.321L30.1463 109.207C28.8143 108.319 27.0383 107.986 25.1883 107.986C19.9343 107.986 16.5673 111.279 16.5673 117.754C16.5673 118.05 16.5673 118.346 16.6043 118.679C18.0843 116.459 20.8223 115.275 24.0413 115.275ZM23.5973 128.299C26.9643 128.299 29.3323 126.338 29.3323 123.267C29.3323 120.233 27.0383 118.272 23.4123 118.272C19.8973 118.272 17.4553 120.455 17.4553 123.304C17.4553 125.968 19.6013 128.299 23.5973 128.299Z" fill="#292C33"/>
<path d="M5.3712 164.1H14.8802V190H11.2172V167.319H5.3712V164.1ZM30.4615 174.978C35.6415 175.459 38.2685 178.382 38.2685 182.378C38.2685 186.744 35.0495 190.296 28.4635 190.296C24.7635 190.296 21.1375 189.112 18.9545 187.151L20.6565 184.228C22.3955 185.856 25.2815 187.003 28.4635 187.003C32.3485 187.003 34.5685 185.227 34.5685 182.415C34.5685 179.677 32.6075 177.901 28.1675 177.901H26.0955V175.311L32.6075 167.319H20.1385V164.1H37.2325V166.616L30.4615 174.978Z" fill="#292C33"/>
<path d="M6.29807 245.781H19.5811V249H0.970074V246.484L11.5151 236.309C14.2531 233.645 14.7711 232.017 14.7711 230.389C14.7711 227.725 12.8841 226.097 9.25807 226.097C6.48307 226.097 4.22607 226.985 2.63507 228.909L0.119074 226.726C2.11707 224.247 5.55807 222.804 9.59107 222.804C14.9931 222.804 18.4711 225.579 18.4711 230.019C18.4711 232.535 17.7311 234.792 14.2161 238.159L6.29807 245.781ZM33.0968 249.296C27.0288 249.296 22.5148 244.486 22.5148 236.05C22.5148 227.614 27.0288 222.804 33.0968 222.804C39.1278 222.804 43.6418 227.614 43.6418 236.05C43.6418 244.486 39.1278 249.296 33.0968 249.296ZM33.0968 246.003C37.1298 246.003 39.9418 242.673 39.9418 236.05C39.9418 229.427 37.1298 226.097 33.0968 226.097C29.0268 226.097 26.2148 229.427 26.2148 236.05C26.2148 242.673 29.0268 246.003 33.0968 246.003Z" fill="#292C33"/>
<path d="M77.5626 105.1H97.0986V107.616L86.6276 131H82.7056L92.9546 108.319H81.1146V112.944H77.5626V105.1Z" fill="#292C33"/>
<path d="M68.5826 164.1H78.0916V190H74.4286V167.319H68.5826V164.1ZM106.29 180.454V183.636H101.369V190H97.78V183.636H83.387V181.046L96.633 164.1H100.629L87.938 180.454H97.891V174.83H101.369V180.454H106.29Z" fill="#292C33"/>
<path d="M76.7361 245.781H90.0191V249H71.4081V246.484L81.9531 236.309C84.6911 233.645 85.2091 232.017 85.2091 230.389C85.2091 227.725 83.3221 226.097 79.6961 226.097C76.9211 226.097 74.6641 226.985 73.0731 228.909L70.5571 226.726C72.5551 224.247 75.9961 222.804 80.0291 222.804C85.4311 222.804 88.9091 225.579 88.9091 230.019C88.9091 232.535 88.1691 234.792 84.6541 238.159L76.7361 245.781ZM91.5812 223.1H101.09V249H97.4272V226.319H91.5812V223.1Z" fill="#292C33"/>
<path d="M145.263 53.1H154.772V79H151.109V56.319H145.263V53.1Z" fill="#292C33"/>
<path d="M157.716 117.421C160.676 118.568 162.304 120.714 162.304 123.674C162.304 128.373 158.308 131.296 151.981 131.296C145.691 131.296 141.732 128.373 141.732 123.674C141.732 120.714 143.36 118.531 146.283 117.421C143.915 116.311 142.657 114.387 142.657 111.834C142.657 107.505 146.394 104.804 151.981 104.804C157.605 104.804 161.379 107.505 161.379 111.834C161.379 114.387 160.084 116.311 157.716 117.421ZM151.981 107.801C148.503 107.801 146.32 109.392 146.32 111.982C146.32 114.535 148.429 116.126 151.981 116.126C155.57 116.126 157.753 114.535 157.753 111.982C157.753 109.392 155.459 107.801 151.981 107.801ZM151.981 128.299C156.088 128.299 158.604 126.486 158.604 123.563C158.604 120.714 156.088 118.938 151.981 118.938C147.874 118.938 145.432 120.714 145.432 123.563C145.432 126.486 147.874 128.299 151.981 128.299Z" fill="#292C33"/>
<path d="M134.835 164.1H144.344V190H140.681V167.319H134.835V164.1ZM157.409 174.423C165.142 174.423 168.176 177.642 168.176 182.23C168.176 186.707 164.994 190.296 158.371 190.296C154.708 190.296 151.082 189.112 148.862 187.151L150.564 184.228C152.303 185.856 155.189 187.003 158.334 187.003C162.256 187.003 164.476 185.19 164.476 182.378C164.476 179.455 162.626 177.642 156.632 177.642H150.749L152.118 164.1H166.733V167.319H155.226L154.523 174.423H157.409Z" fill="#292C33"/>
<path d="M137.46 245.781H150.743V249H132.132V246.484L142.677 236.309C145.415 233.645 145.933 232.017 145.933 230.389C145.933 227.725 144.046 226.097 140.42 226.097C137.645 226.097 135.388 226.985 133.797 228.909L131.281 226.726C133.279 224.247 136.72 222.804 140.753 222.804C146.155 222.804 149.633 225.579 149.633 230.019C149.633 232.535 148.893 234.792 145.378 238.159L137.46 245.781ZM158.706 245.781H171.989V249H153.378V246.484L163.923 236.309C166.661 233.645 167.179 232.017 167.179 230.389C167.179 227.725 165.292 226.097 161.666 226.097C158.891 226.097 156.634 226.985 155.043 228.909L152.527 226.726C154.525 224.247 157.966 222.804 161.999 222.804C167.401 222.804 170.879 225.579 170.879 230.019C170.879 232.535 170.139 234.792 166.624 238.159L158.706 245.781Z" fill="#292C33"/>
<path d="M215.266 104.804C222.222 104.804 226.144 109.466 226.144 117.717C226.144 126.56 221.149 131.296 213.897 131.296C211.455 131.296 209.124 130.815 207.459 129.779L208.865 126.893C210.234 127.781 211.973 128.114 213.86 128.114C219.114 128.114 222.444 124.821 222.444 118.346V117.421C220.927 119.678 218.189 120.825 214.97 120.825C209.827 120.825 206.127 117.754 206.127 112.981C206.127 107.986 210.123 104.804 215.266 104.804ZM215.599 117.828C219.151 117.828 221.593 115.645 221.593 112.796C221.593 110.132 219.447 107.801 215.414 107.801C212.047 107.801 209.716 109.762 209.716 112.833C209.716 115.867 211.973 117.828 215.599 117.828Z" fill="#292C33"/>
<path d="M198.54 164.1H208.049V190H204.386V167.319H198.54V164.1ZM224.888 174.275C230.031 174.275 233.768 177.346 233.768 182.119C233.768 187.114 229.735 190.296 224.592 190.296C217.636 190.296 213.714 185.634 213.714 177.383C213.714 168.54 218.709 163.804 225.961 163.804C228.403 163.804 230.734 164.285 232.399 165.321L230.993 168.207C229.661 167.319 227.885 166.986 226.035 166.986C220.781 166.986 217.414 170.279 217.414 176.754C217.414 177.05 217.414 177.346 217.451 177.679C218.931 175.459 221.669 174.275 224.888 174.275ZM224.444 187.299C227.811 187.299 230.179 185.338 230.179 182.267C230.179 179.233 227.885 177.272 224.259 177.272C220.744 177.272 218.302 179.455 218.302 182.304C218.302 184.968 220.448 187.299 224.444 187.299Z" fill="#292C33"/>
<path d="M201.996 245.781H215.279V249H196.668V246.484L207.213 236.309C209.951 233.645 210.469 232.017 210.469 230.389C210.469 227.725 208.582 226.097 204.956 226.097C202.181 226.097 199.924 226.985 198.333 228.909L195.817 226.726C197.815 224.247 201.256 222.804 205.289 222.804C210.691 222.804 214.169 225.579 214.169 230.019C214.169 232.535 213.429 234.792 209.914 238.159L201.996 245.781ZM228.237 233.978C233.417 234.459 236.044 237.382 236.044 241.378C236.044 245.744 232.825 249.296 226.239 249.296C222.539 249.296 218.913 248.112 216.73 246.151L218.432 243.228C220.171 244.856 223.057 246.003 226.239 246.003C230.124 246.003 232.344 244.227 232.344 241.415C232.344 238.677 230.383 236.901 225.943 236.901H223.871V234.311L230.383 226.319H217.914V223.1H235.008V225.616L228.237 233.978Z" fill="#292C33"/>
<path d="M213.833 75.781H227.116V79H208.505V76.484L219.05 66.309C221.788 63.645 222.306 62.017 222.306 60.389C222.306 57.725 220.419 56.097 216.793 56.097C214.018 56.097 211.761 56.985 210.17 58.909L207.654 56.726C209.652 54.247 213.093 52.804 217.126 52.804C222.528 52.804 226.006 55.579 226.006 60.019C226.006 62.535 225.266 64.792 221.751 68.159L213.833 75.781Z" fill="#292C33"/>
</g>
<defs>
<clipPath id="clip0_532_3271">
<rect width="431" height="317" fill="white"/>
</clipPath>
</defs>
</svg>
