<svg width="432" height="366" viewBox="0 0 432 366" fill="none" xmlns="http://www.w3.org/2000/svg">
<path d="M58.8672 152.121H1.86719V199.121H58.8672V152.121Z" fill="#41A05C"/>
<path d="M306.57 96.4307H249.57V143.431H306.57V96.4307Z" fill="#41A05C"/>
<path d="M120.793 152.121H63.793V199.121H120.793V152.121Z" fill="#41A05C"/>
<path d="M244.645 152.121H187.645V199.121H244.645V152.121Z" fill="#41A05C"/>
<path d="M306.57 152.121H249.57V199.121H306.57V152.121Z" fill="#41A05C"/>
<path d="M182.719 152.121H125.719V199.121H182.719V152.121Z" fill="#41A05C"/>
<mask id="mask0_3949_8547" style="mask-type:luminance" maskUnits="userSpaceOnUse" x="0" y="0" width="432" height="366">
<path d="M431.5 0H0.5V366H431.5V0Z" fill="white"/>
</mask>
<g mask="url(#mask0_3949_8547)">
<mask id="mask1_3949_8547" style="mask-type:luminance" maskUnits="userSpaceOnUse" x="0" y="0" width="432" height="366">
<path d="M431.5 0H0.5V366H431.5V0Z" fill="white"/>
</mask>
<g mask="url(#mask1_3949_8547)">
<mask id="mask2_3949_8547" style="mask-type:luminance" maskUnits="userSpaceOnUse" x="0" y="0" width="432" height="366">
<path d="M431.5 0H0.5V366H431.5V0Z" fill="white"/>
</mask>
<g mask="url(#mask2_3949_8547)">
<path d="M23.4574 20.7264H20.8486V3.36139H11.3916V20.7264H8.70117V1.32324H23.3759V20.7264H23.4574Z" fill="#B3B3B3"/>
<path d="M39.2734 20.726H36.6645V14.6116H30.224V20.726H27.6152V6.2959H30.224V12.5735H36.6645V6.2959H39.2734V20.726Z" fill="#B3B3B3"/>
<path d="M73.5 20.7264V1.32324H79.859C81.8972 1.32324 83.4462 1.73087 84.5875 2.62766C85.7289 3.52444 86.2996 4.82886 86.2996 6.5409C86.2996 7.35616 86.055 8.08989 85.5658 8.82363C85.0767 9.55736 84.3429 9.96499 83.5277 10.2911C84.8321 10.4541 85.8104 11.0248 86.5441 11.9216C87.2779 12.8184 87.6855 13.9598 87.6855 15.1826C87.6855 16.9762 87.1148 18.2806 85.9735 19.2589C84.8321 20.2373 83.2831 20.6449 81.245 20.6449H73.5V20.7264ZM76.1904 9.55736H80.4297C81.408 9.55736 82.2233 9.31278 82.794 8.7421C83.4462 8.17142 83.6907 7.43769 83.6907 6.45937C83.6907 5.39954 83.3646 4.6658 82.7124 4.09512C82.0602 3.60597 81.0819 3.27986 79.859 3.27986H76.1904V9.55736ZM76.1904 11.5955V18.6067H81.245C82.4678 18.6067 83.3646 18.2806 84.0168 17.7099C84.6691 17.1393 84.9952 16.2425 84.9952 15.1826C84.9952 14.1228 84.6691 13.226 84.0168 12.5738C83.3646 11.9216 82.4678 11.5955 81.245 11.514H81.0819H76.1904V11.5955Z" fill="#B3B3B3"/>
<path d="M101.626 8.33405H96.8978V20.726H94.289V8.33405H89.5605V6.2959H101.626V8.33405Z" fill="#B3B3B3"/>
<path d="M151.012 14.5304C151.093 16.4055 150.441 17.9545 149.137 19.1773C147.832 20.4002 146.12 21.0524 143.919 21.0524C141.718 21.0524 139.924 20.2372 138.538 18.6882C137.152 17.1392 136.5 15.1826 136.5 12.7368V9.31271C136.5 6.94846 137.152 4.91031 138.538 3.36132C139.924 1.81233 141.718 0.99707 143.919 0.99707C146.12 0.99707 147.832 1.56775 149.137 2.70911C150.441 3.85048 151.093 5.39947 151.012 7.35609V7.43762H148.484C148.484 6.05168 148.077 4.99184 147.261 4.17658C146.446 3.36132 145.305 2.95369 143.837 2.95369C142.37 2.95369 141.229 3.52437 140.332 4.74726C139.435 5.88862 139.027 7.35609 139.027 9.14966V12.6553C139.027 14.4488 139.435 15.9163 140.332 17.0577C141.229 18.199 142.37 18.8512 143.837 18.8512C145.305 18.8512 146.446 18.4436 147.261 17.7099C148.077 16.8946 148.484 15.8348 148.484 14.4488H151.012V14.5304Z" fill="#B3B3B3"/>
<path d="M166.421 14.0413C166.421 16.161 165.932 17.7915 164.954 19.0959C163.975 20.4003 162.589 20.971 160.796 20.971C159.899 20.971 159.165 20.8079 158.431 20.5634C157.779 20.2373 157.209 19.8296 156.719 19.259V26.2702H154.111V6.29634H156.149L156.556 8.17143C157.046 7.4377 157.616 6.94854 158.35 6.62244C159.084 6.29634 159.899 6.05176 160.796 6.05176C162.589 6.05176 163.975 6.78549 164.954 8.17143C165.932 9.55737 166.421 11.4325 166.421 13.7967V14.0413ZM163.812 13.7967C163.812 12.1662 163.486 10.7803 162.834 9.80195C162.182 8.82364 161.203 8.25296 159.98 8.25296C159.247 8.25296 158.595 8.41601 158.024 8.74211C157.453 9.06822 157.046 9.55737 156.719 10.1281V17.1393C157.046 17.71 157.453 18.1991 158.024 18.5252C158.595 18.8513 159.247 19.0144 159.98 19.0144C161.203 19.0144 162.182 18.5252 162.834 17.6284C163.486 16.7317 163.812 15.5088 163.812 14.1228V13.7967Z" fill="#B3B3B3"/>
<path d="M215.93 1.32324V20.7264H213.321V12.6553C212.506 12.8999 211.691 13.063 210.875 13.226C210.06 13.3076 209.163 13.3891 208.022 13.3891C205.902 13.3891 204.272 12.8999 203.131 12.0031C201.989 11.1064 201.5 9.55736 201.5 7.43769V1.32324H204.109V7.43769C204.109 8.90515 204.435 9.88346 205.006 10.4541C205.658 11.0248 206.636 11.2694 207.941 11.2694C208.837 11.2694 209.734 11.1879 210.631 11.1064C211.446 10.9433 212.343 10.7802 213.24 10.5357V1.32324H215.93Z" fill="#B3B3B3"/>
<path d="M231.176 8.33405H226.448V20.726H223.839V8.33405H219.111V6.2959H231.176V8.33405Z" fill="#B3B3B3"/>
<path d="M280.175 20.7264H277.566V3.36139H268.109V20.7264H265.5V1.32324H280.175V20.7264Z" fill="#B3B3B3"/>
<path d="M295.42 8.33453H290.691V20.7265H288.083V8.33453H283.354V6.29639H295.42V8.33453Z" fill="#B3B3B3"/>
<path d="M345.012 14.5299C345.093 16.405 344.441 17.954 343.137 19.1769C341.832 20.3998 340.12 21.052 337.919 21.052C335.718 21.052 333.924 20.2367 332.538 18.6877C331.152 17.1387 330.5 15.1821 330.5 12.7363V9.31223C330.5 6.94798 331.152 4.90983 332.538 3.36084C333.924 1.81185 335.718 0.996582 337.919 0.996582C340.12 0.996582 341.832 1.56727 343.137 2.70863C344.441 3.84999 345.093 5.39899 345.012 7.35561V7.43713H342.484C342.484 6.05119 342.077 4.99136 341.261 4.1761C340.446 3.36084 339.305 2.95321 337.837 2.95321C336.37 2.95321 335.229 3.52389 334.332 4.74678C333.435 5.88814 333.027 7.35561 333.027 9.14918V12.6548C333.027 14.4484 333.435 15.9158 334.332 17.0572C335.229 18.1986 336.37 18.8508 337.837 18.8508C339.305 18.8508 340.446 18.4431 341.261 17.7094C342.077 16.8941 342.484 15.8343 342.484 14.4484H345.012V14.5299Z" fill="#B3B3B3"/>
<path d="M354.387 6.05149C356.262 6.05149 357.648 6.7037 358.708 8.08964C359.768 9.47558 360.338 11.1876 360.338 13.3888V13.7149C360.338 15.8346 359.768 17.6282 358.626 19.0141C357.485 20.4 355.936 21.0523 353.898 21.0523C351.86 21.0523 350.311 20.4 349.169 19.0141C348.028 17.6282 347.457 15.9161 347.457 13.7149V13.3888C347.457 13.3073 347.457 13.2258 347.457 13.2258C347.457 13.1442 347.457 13.1442 347.457 13.0627V9.96473C347.457 7.19285 348.028 5.23623 349.088 3.93182C350.148 2.6274 351.778 1.97519 353.898 1.81214C355.121 1.73062 356.099 1.56756 356.751 1.32299C357.403 1.07841 357.73 0.670779 357.73 0.100098H359.768V0.181624C359.849 1.56756 359.36 2.54587 358.382 3.11656C357.403 3.68724 356.017 4.01334 354.142 4.01334C352.756 4.01334 351.697 4.42097 350.881 5.1547C350.066 5.88844 349.658 6.94827 349.658 8.33421V8.41574C350.148 7.76353 350.881 7.19285 351.697 6.78522C352.512 6.37759 353.49 6.05149 354.387 6.05149ZM353.898 8.08964C352.675 8.08964 351.697 8.57879 351.044 9.5571C350.392 10.5354 350.066 11.8398 350.066 13.3073V13.6334C350.066 15.1824 350.392 16.4053 351.044 17.3836C351.697 18.3619 352.675 18.8511 353.898 18.8511C355.121 18.8511 356.099 18.3619 356.751 17.3836C357.403 16.4053 357.73 15.1009 357.73 13.6334V13.3073C357.73 11.7583 357.403 10.5354 356.751 9.5571C356.099 8.57879 355.121 8.08964 353.898 8.08964Z" fill="#B3B3B3"/>
<path d="M394.5 20.7264V1.32324H400.859C402.897 1.32324 404.446 1.73087 405.588 2.62766C406.729 3.52444 407.3 4.82886 407.3 6.5409C407.3 7.35616 407.055 8.08989 406.566 8.82363C406.077 9.55736 405.343 9.96499 404.528 10.3726C405.832 10.5357 406.81 11.1064 407.544 12.0031C408.278 12.8999 408.686 14.0413 408.686 15.2642C408.686 17.0577 408.115 18.3622 406.973 19.3405C405.832 20.3188 404.283 20.7264 402.245 20.7264H394.5ZM397.19 9.55736H401.43C402.408 9.55736 403.223 9.31278 403.794 8.7421C404.446 8.17142 404.691 7.43769 404.691 6.45937C404.691 5.39954 404.365 4.6658 403.712 4.09512C403.06 3.60597 402.082 3.27986 400.859 3.27986H397.19V9.55736ZM397.19 11.5955V18.6067H402.245C403.468 18.6067 404.365 18.2806 405.017 17.7099C405.669 17.1393 405.995 16.2425 405.995 15.1826C405.995 14.1228 405.669 13.226 405.017 12.5738C404.365 11.9216 403.468 11.5955 402.245 11.514H402.082H397.19V11.5955Z" fill="#B3B3B3"/>
<path d="M417.245 18.9329C418.061 18.9329 418.794 18.6883 419.365 18.1176C419.936 17.5469 420.262 16.8947 420.262 16.161H422.626V16.2425C422.626 17.4654 422.137 18.6068 420.996 19.5851C419.854 20.5634 418.631 21.0525 417.164 21.0525C415.126 21.0525 413.577 20.4003 412.435 19.0144C411.294 17.6284 410.805 15.9164 410.805 13.8783V13.3076C410.805 11.2694 411.376 9.55738 412.435 8.17144C413.577 6.7855 415.126 6.1333 417.082 6.1333C418.713 6.1333 420.017 6.62245 420.996 7.60076C421.974 8.57907 422.545 9.80196 422.463 11.2694V11.351H420.099C420.099 10.4542 419.773 9.72044 419.202 9.06823C418.631 8.41602 417.898 8.17144 417.001 8.17144C415.696 8.17144 414.8 8.6606 414.147 9.63891C413.577 10.6172 413.251 11.8401 413.251 13.3076V13.8783C413.251 15.3457 413.577 16.5686 414.147 17.5469C415.044 18.4437 415.941 18.9329 417.245 18.9329Z" fill="#B3B3B3"/>
<path d="M406.95 132.296C404.853 132.296 403.04 131.988 401.511 131.371C399.982 130.754 398.798 129.879 397.959 128.744C397.12 127.585 396.701 126.228 396.701 124.674C396.701 123.145 397.096 121.85 397.885 120.789C398.699 119.704 399.871 118.89 401.4 118.347C402.929 117.78 404.779 117.496 406.95 117.496C409.121 117.496 410.971 117.78 412.5 118.347C414.054 118.89 415.238 119.704 416.052 120.789C416.866 121.874 417.273 123.169 417.273 124.674C417.273 126.228 416.854 127.585 416.015 128.744C415.176 129.879 413.98 130.754 412.426 131.371C410.872 131.988 409.047 132.296 406.95 132.296ZM406.95 129.299C409.022 129.299 410.638 128.88 411.797 128.041C412.981 127.178 413.573 126.018 413.573 124.563C413.573 123.132 412.981 122.01 411.797 121.196C410.638 120.357 409.022 119.938 406.95 119.938C404.903 119.938 403.299 120.357 402.14 121.196C400.981 122.01 400.401 123.132 400.401 124.563C400.401 126.018 400.981 127.178 402.14 128.041C403.299 128.88 404.903 129.299 406.95 129.299ZM406.95 119.494C404.977 119.494 403.299 119.235 401.918 118.717C400.537 118.174 399.476 117.41 398.736 116.423C397.996 115.412 397.626 114.215 397.626 112.834C397.626 111.379 398.008 110.133 398.773 109.097C399.562 108.036 400.66 107.222 402.066 106.655C403.472 106.088 405.1 105.804 406.95 105.804C408.825 105.804 410.465 106.088 411.871 106.655C413.277 107.222 414.375 108.036 415.164 109.097C415.953 110.133 416.348 111.379 416.348 112.834C416.348 114.215 415.978 115.412 415.238 116.423C414.498 117.41 413.425 118.174 412.019 118.717C410.613 119.235 408.923 119.494 406.95 119.494ZM406.95 117.126C408.751 117.126 410.157 116.756 411.168 116.016C412.204 115.276 412.722 114.265 412.722 112.982C412.722 111.675 412.192 110.651 411.131 109.911C410.07 109.171 408.677 108.801 406.95 108.801C405.223 108.801 403.842 109.171 402.806 109.911C401.795 110.651 401.289 111.675 401.289 112.982C401.289 114.265 401.782 115.276 402.769 116.016C403.78 116.756 405.174 117.126 406.95 117.126Z" fill="#292C33"/>
<path d="M395.651 189V164.58L397.242 166.319H389.805V163.1H399.314V189H395.651ZM413.341 189.296C411.516 189.296 409.74 189.012 408.013 188.445C406.311 187.878 404.917 187.113 403.832 186.151L405.534 183.228C406.397 184.042 407.52 184.708 408.901 185.226C410.282 185.744 411.75 186.003 413.304 186.003C415.277 186.003 416.794 185.584 417.855 184.745C418.916 183.906 419.446 182.784 419.446 181.378C419.446 180.416 419.212 179.577 418.743 178.862C418.274 178.147 417.46 177.604 416.301 177.234C415.166 176.839 413.6 176.642 411.602 176.642H405.719L407.088 163.1H421.703V166.319H408.457L410.381 164.506L409.308 175.199L407.384 173.423H412.379C414.969 173.423 417.053 173.756 418.632 174.422C420.211 175.088 421.358 176.013 422.073 177.197C422.788 178.356 423.146 179.701 423.146 181.23C423.146 182.71 422.788 184.067 422.073 185.3C421.358 186.509 420.272 187.483 418.817 188.223C417.386 188.938 415.561 189.296 413.341 189.296Z" fill="#292C33"/>
<path d="M387.103 246V243.484L397.648 233.309C398.585 232.421 399.276 231.644 399.72 230.978C400.188 230.287 400.497 229.658 400.645 229.091C400.817 228.499 400.904 227.932 400.904 227.389C400.904 226.057 400.435 225.009 399.498 224.244C398.56 223.479 397.191 223.097 395.391 223.097C394.009 223.097 392.764 223.331 391.654 223.8C390.544 224.244 389.582 224.947 388.768 225.909L386.252 223.726C387.238 222.468 388.558 221.506 390.211 220.84C391.888 220.149 393.726 219.804 395.724 219.804C397.524 219.804 399.091 220.1 400.423 220.692C401.755 221.259 402.778 222.086 403.494 223.171C404.234 224.256 404.604 225.539 404.604 227.019C404.604 227.858 404.493 228.684 404.271 229.498C404.049 230.312 403.629 231.175 403.013 232.088C402.396 233.001 401.508 234.024 400.349 235.159L390.951 244.224L390.063 242.781H405.714V246H387.103ZM408.349 246V243.484L418.894 233.309C419.831 232.421 420.522 231.644 420.966 230.978C421.434 230.287 421.743 229.658 421.891 229.091C422.063 228.499 422.15 227.932 422.15 227.389C422.15 226.057 421.681 225.009 420.744 224.244C419.806 223.479 418.437 223.097 416.637 223.097C415.255 223.097 414.01 223.331 412.9 223.8C411.79 224.244 410.828 224.947 410.014 225.909L407.498 223.726C408.484 222.468 409.804 221.506 411.457 220.84C413.134 220.149 414.972 219.804 416.97 219.804C418.77 219.804 420.337 220.1 421.669 220.692C423.001 221.259 424.024 222.086 424.74 223.171C425.48 224.256 425.85 225.539 425.85 227.019C425.85 227.858 425.739 228.684 425.517 229.498C425.295 230.312 424.875 231.175 424.259 232.088C423.642 233.001 422.754 234.024 421.595 235.159L412.197 244.224L411.309 242.781H426.96V246H408.349Z" fill="#292C33"/>
<path d="M386.308 303V300.484L396.853 290.309C397.79 289.421 398.481 288.644 398.925 287.978C399.394 287.287 399.702 286.658 399.85 286.091C400.023 285.499 400.109 284.932 400.109 284.389C400.109 283.057 399.64 282.009 398.703 281.244C397.766 280.479 396.397 280.097 394.596 280.097C393.215 280.097 391.969 280.331 390.859 280.8C389.749 281.244 388.787 281.947 387.973 282.909L385.457 280.726C386.444 279.468 387.763 278.506 389.416 277.84C391.093 277.149 392.931 276.804 394.929 276.804C396.73 276.804 398.296 277.1 399.628 277.692C400.96 278.259 401.984 279.086 402.699 280.171C403.439 281.256 403.809 282.539 403.809 284.019C403.809 284.858 403.698 285.684 403.476 286.498C403.254 287.312 402.835 288.175 402.218 289.088C401.601 290.001 400.713 291.024 399.554 292.159L390.156 301.224L389.268 299.781H404.919V303H386.308ZM416.36 276.804C418.703 276.804 420.677 277.31 422.28 278.321C423.908 279.332 425.141 280.8 425.98 282.724C426.819 284.623 427.238 286.954 427.238 289.717C427.238 292.652 426.72 295.131 425.684 297.154C424.648 299.177 423.217 300.706 421.392 301.742C419.567 302.778 417.433 303.296 414.991 303.296C413.782 303.296 412.611 303.173 411.476 302.926C410.366 302.679 409.392 302.297 408.553 301.779L409.959 298.893C410.65 299.337 411.414 299.658 412.253 299.855C413.116 300.028 414.017 300.114 414.954 300.114C417.569 300.114 419.653 299.3 421.207 297.672C422.761 296.019 423.538 293.577 423.538 290.346C423.538 289.828 423.513 289.211 423.464 288.496C423.415 287.781 423.304 287.078 423.131 286.387L424.352 287.645C424.007 288.78 423.427 289.742 422.613 290.531C421.824 291.296 420.862 291.875 419.727 292.27C418.617 292.64 417.396 292.825 416.064 292.825C414.362 292.825 412.845 292.504 411.513 291.863C410.181 291.222 409.133 290.321 408.368 289.162C407.603 287.978 407.221 286.584 407.221 284.981C407.221 283.304 407.616 281.861 408.405 280.652C409.219 279.419 410.317 278.469 411.698 277.803C413.104 277.137 414.658 276.804 416.36 276.804ZM416.508 279.801C415.398 279.801 414.411 280.011 413.548 280.43C412.685 280.849 412.006 281.429 411.513 282.169C411.044 282.909 410.81 283.797 410.81 284.833C410.81 286.362 411.34 287.583 412.401 288.496C413.462 289.384 414.892 289.828 416.693 289.828C417.877 289.828 418.913 289.606 419.801 289.162C420.714 288.718 421.417 288.114 421.91 287.349C422.428 286.584 422.687 285.733 422.687 284.796C422.687 283.883 422.453 283.057 421.984 282.317C421.515 281.577 420.825 280.973 419.912 280.504C418.999 280.035 417.865 279.801 416.508 279.801Z" fill="#292C33"/>
<path d="M19.4897 132V129.484L30.0347 119.309C30.972 118.421 31.6627 117.644 32.1067 116.978C32.5753 116.287 32.8837 115.658 33.0317 115.091C33.2043 114.499 33.2907 113.932 33.2907 113.389C33.2907 112.057 32.822 111.009 31.8847 110.244C30.9473 109.479 29.5783 109.097 27.7777 109.097C26.3963 109.097 25.1507 109.331 24.0407 109.8C22.9307 110.244 21.9687 110.947 21.1547 111.909L18.6387 109.726C19.6253 108.468 20.945 107.506 22.5977 106.84C24.275 106.149 26.1127 105.804 28.1107 105.804C29.9113 105.804 31.4777 106.1 32.8097 106.692C34.1417 107.259 35.1653 108.086 35.8807 109.171C36.6207 110.256 36.9907 111.539 36.9907 113.019C36.9907 113.858 36.8797 114.684 36.6577 115.498C36.4357 116.312 36.0163 117.175 35.3997 118.088C34.783 119.001 33.895 120.024 32.7357 121.159L23.3377 130.224L22.4497 128.781H38.1007V132H19.4897Z" fill="#292C33"/>
<path d="M27.5003 162.804C29.8436 162.804 31.8169 163.31 33.4203 164.321C35.0483 165.332 36.2816 166.8 37.1203 168.724C37.9589 170.623 38.3783 172.954 38.3783 175.717C38.3783 178.652 37.8603 181.131 36.8243 183.154C35.7883 185.177 34.3576 186.706 32.5323 187.742C30.7069 188.778 28.5733 189.296 26.1313 189.296C24.9226 189.296 23.7509 189.173 22.6163 188.926C21.5063 188.679 20.5319 188.297 19.6933 187.779L21.0993 184.893C21.7899 185.337 22.5546 185.658 23.3933 185.855C24.2566 186.028 25.1569 186.114 26.0943 186.114C28.7089 186.114 30.7933 185.3 32.3473 183.672C33.9013 182.019 34.6783 179.577 34.6783 176.346C34.6783 175.828 34.6536 175.211 34.6043 174.496C34.5549 173.781 34.4439 173.078 34.2713 172.387L35.4923 173.645C35.1469 174.78 34.5673 175.742 33.7533 176.531C32.9639 177.296 32.0019 177.875 30.8673 178.27C29.7573 178.64 28.5363 178.825 27.2043 178.825C25.5023 178.825 23.9853 178.504 22.6533 177.863C21.3213 177.222 20.2729 176.321 19.5083 175.162C18.7436 173.978 18.3613 172.584 18.3613 170.981C18.3613 169.304 18.7559 167.861 19.5453 166.652C20.3593 165.419 21.4569 164.469 22.8383 163.803C24.2443 163.137 25.7983 162.804 27.5003 162.804ZM27.6483 165.801C26.5383 165.801 25.5516 166.011 24.6883 166.43C23.8249 166.849 23.1466 167.429 22.6533 168.169C22.1846 168.909 21.9503 169.797 21.9503 170.833C21.9503 172.362 22.4806 173.583 23.5413 174.496C24.6019 175.384 26.0326 175.828 27.8333 175.828C29.0173 175.828 30.0533 175.606 30.9413 175.162C31.8539 174.718 32.5569 174.114 33.0503 173.349C33.5683 172.584 33.8273 171.733 33.8273 170.796C33.8273 169.883 33.5929 169.057 33.1243 168.317C32.6556 167.577 31.9649 166.973 31.0523 166.504C30.1396 166.035 29.0049 165.801 27.6483 165.801Z" fill="white"/>
<path d="M16.6194 246V221.58L18.2104 223.319H10.7734V220.1H20.2824V246H16.6194ZM36.8258 246.296C34.5318 246.296 32.5708 245.79 30.9428 244.779C29.3148 243.768 28.0691 242.312 27.2058 240.413C26.3671 238.489 25.9478 236.146 25.9478 233.383C25.9478 230.448 26.4658 227.969 27.5018 225.946C28.5378 223.923 29.9808 222.394 31.8308 221.358C33.6808 220.322 35.8021 219.804 38.1948 219.804C39.4281 219.804 40.5998 219.927 41.7098 220.174C42.8444 220.421 43.8188 220.803 44.6328 221.321L43.2268 224.207C42.5608 223.738 41.7961 223.418 40.9328 223.245C40.0941 223.072 39.2061 222.986 38.2688 222.986C35.6294 222.986 33.5328 223.812 31.9788 225.465C30.4248 227.093 29.6478 229.523 29.6478 232.754C29.6478 233.272 29.6724 233.889 29.7218 234.604C29.7711 235.319 29.8944 236.022 30.0918 236.713L28.8338 235.455C29.2038 234.32 29.7834 233.371 30.5728 232.606C31.3868 231.817 32.3488 231.237 33.4588 230.867C34.5934 230.472 35.8144 230.275 37.1218 230.275C38.8484 230.275 40.3778 230.596 41.7098 231.237C43.0418 231.878 44.0901 232.791 44.8548 233.975C45.6194 235.134 46.0018 236.516 46.0018 238.119C46.0018 239.772 45.5948 241.215 44.7808 242.448C43.9668 243.681 42.8691 244.631 41.4878 245.297C40.1064 245.963 38.5524 246.296 36.8258 246.296ZM36.6778 243.299C37.8124 243.299 38.7991 243.089 39.6378 242.67C40.5011 242.251 41.1794 241.671 41.6728 240.931C42.1661 240.166 42.4128 239.278 42.4128 238.267C42.4128 236.738 41.8824 235.529 40.8218 234.641C39.7611 233.728 38.3181 233.272 36.4928 233.272C35.3088 233.272 34.2728 233.494 33.3848 233.938C32.4968 234.382 31.7938 234.986 31.2758 235.751C30.7824 236.491 30.5358 237.342 30.5358 238.304C30.5358 239.192 30.7701 240.018 31.2388 240.783C31.7074 241.523 32.3981 242.127 33.3108 242.596C34.2234 243.065 35.3458 243.299 36.6778 243.299Z" fill="#292C33"/>
<path d="M8.90178 303V300.484L19.4468 290.309C20.3841 289.421 21.0748 288.644 21.5188 287.978C21.9874 287.287 22.2958 286.658 22.4438 286.091C22.6164 285.499 22.7028 284.932 22.7028 284.389C22.7028 283.057 22.2341 282.009 21.2968 281.244C20.3594 280.479 18.9904 280.097 17.1898 280.097C15.8084 280.097 14.5628 280.331 13.4528 280.8C12.3428 281.244 11.3808 281.947 10.5668 282.909L8.05078 280.726C9.03744 279.468 10.3571 278.506 12.0098 277.84C13.6871 277.149 15.5248 276.804 17.5228 276.804C19.3234 276.804 20.8898 277.1 22.2218 277.692C23.5538 278.259 24.5774 279.086 25.2928 280.171C26.0328 281.256 26.4028 282.539 26.4028 284.019C26.4028 284.858 26.2918 285.684 26.0698 286.498C25.8478 287.312 25.4284 288.175 24.8118 289.088C24.1951 290.001 23.3071 291.024 22.1478 292.159L12.7498 301.224L11.8618 299.781H27.5128V303H8.90178ZM38.4729 303.296C36.6475 303.296 34.8715 303.012 33.1449 302.445C31.4429 301.878 30.0492 301.113 28.9639 300.151L30.6659 297.228C31.5292 298.042 32.6515 298.708 34.0329 299.226C35.4142 299.744 36.8942 300.003 38.4729 300.003C40.3969 300.003 41.8892 299.596 42.9499 298.782C44.0352 297.943 44.5779 296.821 44.5779 295.415C44.5779 294.058 44.0599 292.973 43.0239 292.159C42.0125 291.32 40.3969 290.901 38.1769 290.901H36.1049V288.311L43.8009 278.839L44.3189 280.319H30.1479V277.1H47.2419V279.616L39.5829 289.051L37.6589 287.904H38.8799C42.0125 287.904 44.3559 288.607 45.9099 290.013C47.4885 291.419 48.2779 293.207 48.2779 295.378C48.2779 296.833 47.9202 298.165 47.2049 299.374C46.4895 300.583 45.4042 301.545 43.9489 302.26C42.5182 302.951 40.6929 303.296 38.4729 303.296Z" fill="#292C33"/>
<path d="M15.511 360.296C13.6856 360.296 11.9096 360.012 10.183 359.445C8.48095 358.878 7.08729 358.113 6.00195 357.151L7.70395 354.228C8.56729 355.042 9.68962 355.708 11.071 356.226C12.4523 356.744 13.9323 357.003 15.511 357.003C17.435 357.003 18.9273 356.596 19.988 355.782C21.0733 354.943 21.616 353.821 21.616 352.415C21.616 351.058 21.098 349.973 20.062 349.159C19.0506 348.32 17.435 347.901 15.215 347.901H13.143V345.311L20.839 335.839L21.357 337.319H7.18595V334.1H24.28V336.616L16.621 346.051L14.697 344.904H15.918C19.0506 344.904 21.394 345.607 22.948 347.013C24.5266 348.419 25.316 350.207 25.316 352.378C25.316 353.833 24.9583 355.165 24.243 356.374C23.5276 357.583 22.4423 358.545 20.987 359.26C19.5563 359.951 17.731 360.296 15.511 360.296ZM39.3488 360.296C37.3261 360.296 35.5131 359.778 33.9098 358.742C32.3311 357.706 31.0731 356.201 30.1358 354.228C29.2231 352.255 28.7668 349.862 28.7668 347.05C28.7668 344.238 29.2231 341.845 30.1358 339.872C31.0731 337.899 32.3311 336.394 33.9098 335.358C35.5131 334.322 37.3261 333.804 39.3488 333.804C41.3468 333.804 43.1474 334.322 44.7508 335.358C46.3541 336.394 47.6121 337.899 48.5248 339.872C49.4374 341.845 49.8938 344.238 49.8938 347.05C49.8938 349.862 49.4374 352.255 48.5248 354.228C47.6121 356.201 46.3541 357.706 44.7508 358.742C43.1474 359.778 41.3468 360.296 39.3488 360.296ZM39.3488 357.003C40.7054 357.003 41.8894 356.633 42.9008 355.893C43.9368 355.153 44.7384 354.043 45.3058 352.563C45.8978 351.083 46.1938 349.245 46.1938 347.05C46.1938 344.855 45.8978 343.017 45.3058 341.537C44.7384 340.057 43.9368 338.947 42.9008 338.207C41.8894 337.467 40.7054 337.097 39.3488 337.097C37.9921 337.097 36.7958 337.467 35.7598 338.207C34.7238 338.947 33.9098 340.057 33.3178 341.537C32.7504 343.017 32.4668 344.855 32.4668 347.05C32.4668 349.245 32.7504 351.083 33.3178 352.563C33.9098 354.043 34.7238 355.153 35.7598 355.893C36.7958 356.633 37.9921 357.003 39.3488 357.003Z" fill="#292C33"/>
<path d="M91.3352 132.296C89.5099 132.296 87.7339 132.012 86.0072 131.445C84.3052 130.878 82.9116 130.113 81.8262 129.151L83.5282 126.228C84.3916 127.042 85.5139 127.708 86.8952 128.226C88.2766 128.744 89.7566 129.003 91.3352 129.003C93.2592 129.003 94.7516 128.596 95.8122 127.782C96.8976 126.943 97.4402 125.821 97.4402 124.415C97.4402 123.058 96.9222 121.973 95.8862 121.159C94.8749 120.32 93.2592 119.901 91.0392 119.901H88.9672V117.311L96.6632 107.839L97.1812 109.319H83.0102V106.1H100.104V108.616L92.4452 118.051L90.5212 116.904H91.7422C94.8749 116.904 97.2182 117.607 98.7722 119.013C100.35 120.419 101.14 122.207 101.14 124.378C101.14 125.833 100.782 127.165 100.067 128.374C99.3519 129.583 98.2666 130.545 96.8112 131.26C95.3806 131.951 93.5552 132.296 91.3352 132.296Z" fill="#292C33"/>
<path d="M79.1839 189V164.58L80.7749 166.319H73.3379V163.1H82.8469V189H79.1839ZM99.0942 189.296C97.0716 189.296 95.2586 188.778 93.6552 187.742C92.0766 186.706 90.8186 185.201 89.8812 183.228C88.9686 181.255 88.5122 178.862 88.5122 176.05C88.5122 173.238 88.9686 170.845 89.8812 168.872C90.8186 166.899 92.0766 165.394 93.6552 164.358C95.2586 163.322 97.0716 162.804 99.0942 162.804C101.092 162.804 102.893 163.322 104.496 164.358C106.1 165.394 107.358 166.899 108.27 168.872C109.183 170.845 109.639 173.238 109.639 176.05C109.639 178.862 109.183 181.255 108.27 183.228C107.358 185.201 106.1 186.706 104.496 187.742C102.893 188.778 101.092 189.296 99.0942 189.296ZM99.0942 186.003C100.451 186.003 101.635 185.633 102.646 184.893C103.682 184.153 104.484 183.043 105.051 181.563C105.643 180.083 105.939 178.245 105.939 176.05C105.939 173.855 105.643 172.017 105.051 170.537C104.484 169.057 103.682 167.947 102.646 167.207C101.635 166.467 100.451 166.097 99.0942 166.097C97.7376 166.097 96.5412 166.467 95.5052 167.207C94.4692 167.947 93.6552 169.057 93.0632 170.537C92.4959 172.017 92.2122 173.855 92.2122 176.05C92.2122 178.245 92.4959 180.083 93.0632 181.563C93.6552 183.043 94.4692 184.153 95.5052 184.893C96.5412 185.633 97.7376 186.003 99.0942 186.003Z" fill="white"/>
<path d="M80.4671 246V221.58L82.0581 223.319H74.6211V220.1H84.1301V246H80.4671ZM94.2725 246L105.261 221.654L106.223 223.319H90.8315L92.6815 221.506V227.944H89.1295V220.1H108.665V222.616L98.1945 246H94.2725Z" fill="#292C33"/>
<path d="M70.9604 303V300.484L81.5054 290.309C82.4427 289.421 83.1334 288.644 83.5774 287.978C84.0461 287.287 84.3544 286.658 84.5024 286.091C84.6751 285.499 84.7614 284.932 84.7614 284.389C84.7614 283.057 84.2927 282.009 83.3554 281.244C82.4181 280.479 81.0491 280.097 79.2484 280.097C77.8671 280.097 76.6214 280.331 75.5114 280.8C74.4014 281.244 73.4394 281.947 72.6254 282.909L70.1094 280.726C71.0961 279.468 72.4157 278.506 74.0684 277.84C75.7457 277.149 77.5834 276.804 79.5814 276.804C81.3821 276.804 82.9484 277.1 84.2804 277.692C85.6124 278.259 86.636 279.086 87.3513 280.171C88.0913 281.256 88.4614 282.539 88.4614 284.019C88.4614 284.858 88.3504 285.684 88.1284 286.498C87.9064 287.312 87.4871 288.175 86.8704 289.088C86.2537 290.001 85.3657 291.024 84.2064 292.159L74.8084 301.224L73.9203 299.781H89.5714V303H70.9604ZM91.5208 296.636V294.046L104.767 277.1H108.763L95.6278 294.046L93.7408 293.454H114.424V296.636H91.5208ZM105.914 303V296.636L106.025 293.454V287.83H109.503V303H105.914Z" fill="#292C33"/>
<path d="M84.4895 360.296C82.6642 360.296 80.8882 360.012 79.1615 359.445C77.4595 358.878 76.0659 358.113 74.9805 357.151L76.6825 354.228C77.5459 355.042 78.6682 355.708 80.0495 356.226C81.4309 356.744 82.9109 357.003 84.4895 357.003C86.4135 357.003 87.9059 356.596 88.9665 355.782C90.0519 354.943 90.5945 353.821 90.5945 352.415C90.5945 351.058 90.0765 349.973 89.0405 349.159C88.0292 348.32 86.4135 347.901 84.1935 347.901H82.1215V345.311L89.8175 335.839L90.3355 337.319H76.1645V334.1H93.2585V336.616L85.5995 346.051L83.6755 344.904H84.8965C88.0292 344.904 90.3725 345.607 91.9265 347.013C93.5052 348.419 94.2945 350.207 94.2945 352.378C94.2945 353.833 93.9369 355.165 93.2215 356.374C92.5062 357.583 91.4209 358.545 89.9655 359.26C88.5349 359.951 86.7095 360.296 84.4895 360.296ZM102.111 360V335.58L103.702 337.319H96.2654V334.1H105.774V360H102.111Z" fill="#292C33"/>
<path d="M143.197 125.636V123.046L156.443 106.1H160.439L147.304 123.046L145.417 122.454H166.1V125.636H143.197ZM157.59 132V125.636L157.701 122.454V116.83H161.179V132H157.59Z" fill="#292C33"/>
<path d="M146.614 189V164.58L148.205 166.319H140.768V163.1H150.277V189H146.614ZM160.309 189V164.58L161.9 166.319H154.463V163.1H163.972V189H160.309Z" fill="white"/>
<path d="M141.555 246V221.58L143.146 223.319H135.709V220.1H145.218V246H141.555ZM160.984 246.296C158.887 246.296 157.074 245.988 155.545 245.371C154.016 244.754 152.832 243.879 151.993 242.744C151.154 241.585 150.735 240.228 150.735 238.674C150.735 237.145 151.13 235.85 151.919 234.789C152.733 233.704 153.905 232.89 155.434 232.347C156.963 231.78 158.813 231.496 160.984 231.496C163.155 231.496 165.005 231.78 166.534 232.347C168.088 232.89 169.272 233.704 170.086 234.789C170.9 235.874 171.307 237.169 171.307 238.674C171.307 240.228 170.888 241.585 170.049 242.744C169.21 243.879 168.014 244.754 166.46 245.371C164.906 245.988 163.081 246.296 160.984 246.296ZM160.984 243.299C163.056 243.299 164.672 242.88 165.831 242.041C167.015 241.178 167.607 240.018 167.607 238.563C167.607 237.132 167.015 236.01 165.831 235.196C164.672 234.357 163.056 233.938 160.984 233.938C158.937 233.938 157.333 234.357 156.174 235.196C155.015 236.01 154.435 237.132 154.435 238.563C154.435 240.018 155.015 241.178 156.174 242.041C157.333 242.88 158.937 243.299 160.984 243.299ZM160.984 233.494C159.011 233.494 157.333 233.235 155.952 232.717C154.571 232.174 153.51 231.41 152.77 230.423C152.03 229.412 151.66 228.215 151.66 226.834C151.66 225.379 152.042 224.133 152.807 223.097C153.596 222.036 154.694 221.222 156.1 220.655C157.506 220.088 159.134 219.804 160.984 219.804C162.859 219.804 164.499 220.088 165.905 220.655C167.311 221.222 168.409 222.036 169.198 223.097C169.987 224.133 170.382 225.379 170.382 226.834C170.382 228.215 170.012 229.412 169.272 230.423C168.532 231.41 167.459 232.174 166.053 232.717C164.647 233.235 162.957 233.494 160.984 233.494ZM160.984 231.126C162.785 231.126 164.191 230.756 165.202 230.016C166.238 229.276 166.756 228.265 166.756 226.982C166.756 225.675 166.226 224.651 165.165 223.911C164.104 223.171 162.711 222.801 160.984 222.801C159.257 222.801 157.876 223.171 156.84 223.911C155.829 224.651 155.323 225.675 155.323 226.982C155.323 228.265 155.816 229.276 156.803 230.016C157.814 230.756 159.208 231.126 160.984 231.126Z" fill="#292C33"/>
<path d="M134.288 303V300.484L144.833 290.309C145.771 289.421 146.462 288.644 146.906 287.978C147.375 287.287 147.683 286.658 147.831 286.091C148.004 285.499 148.09 284.932 148.09 284.389C148.09 283.057 147.622 282.009 146.684 281.244C145.747 280.479 144.378 280.097 142.577 280.097C141.196 280.097 139.95 280.331 138.84 280.8C137.73 281.244 136.768 281.947 135.954 282.909L133.438 280.726C134.424 279.468 135.744 278.506 137.396 277.84C139.074 277.149 140.911 276.804 142.91 276.804C144.71 276.804 146.277 277.1 147.609 277.692C148.941 278.259 149.965 279.086 150.68 280.171C151.42 281.256 151.79 282.539 151.79 284.019C151.79 284.858 151.678 285.684 151.456 286.498C151.234 287.312 150.816 288.175 150.199 289.088C149.583 290.001 148.694 291.024 147.535 292.159L138.137 301.224L137.249 299.781H152.9V303H134.288ZM164.305 303.296C162.479 303.296 160.703 303.012 158.977 302.445C157.275 301.878 155.881 301.113 154.796 300.151L156.497 297.228C157.36 298.042 158.483 298.708 159.865 299.226C161.246 299.744 162.714 300.003 164.268 300.003C166.241 300.003 167.757 299.584 168.818 298.745C169.878 297.906 170.41 296.784 170.41 295.378C170.41 294.416 170.174 293.577 169.706 292.862C169.237 292.147 168.424 291.604 167.265 291.234C166.13 290.839 164.564 290.642 162.566 290.642H156.683L158.051 277.1H172.667V280.319H159.421L161.344 278.506L160.271 289.199L158.348 287.423H163.342C165.932 287.423 168.017 287.756 169.596 288.422C171.174 289.088 172.32 290.013 173.036 291.197C173.751 292.356 174.109 293.701 174.109 295.23C174.109 296.71 173.751 298.067 173.036 299.3C172.32 300.509 171.236 301.483 169.781 302.223C168.35 302.938 166.525 303.296 164.305 303.296Z" fill="#292C33"/>
<path d="M214.587 132.296C212.761 132.296 210.985 132.012 209.259 131.445C207.557 130.878 206.163 130.113 205.078 129.151L206.78 126.228C207.643 127.042 208.765 127.708 210.147 128.226C211.528 128.744 212.996 129.003 214.55 129.003C216.523 129.003 218.04 128.584 219.101 127.745C220.161 126.906 220.692 125.784 220.692 124.378C220.692 123.416 220.457 122.577 219.989 121.862C219.52 121.147 218.706 120.604 217.547 120.234C216.412 119.839 214.846 119.642 212.848 119.642H206.965L208.334 106.1H222.949V109.319H209.703L211.627 107.506L210.554 118.199L208.63 116.423H213.625C216.215 116.423 218.299 116.756 219.878 117.422C221.456 118.088 222.603 119.013 223.319 120.197C224.034 121.356 224.392 122.701 224.392 124.23C224.392 125.71 224.034 127.067 223.319 128.3C222.603 129.509 221.518 130.483 220.063 131.223C218.632 131.938 216.807 132.296 214.587 132.296Z" fill="#292C33"/>
<path d="M203.742 189V164.58L205.333 166.319H197.896V163.1H207.405V189H203.742ZM212.664 189V186.484L223.209 176.309C224.146 175.421 224.837 174.644 225.281 173.978C225.749 173.287 226.058 172.658 226.206 172.091C226.378 171.499 226.465 170.932 226.465 170.389C226.465 169.057 225.996 168.009 225.059 167.244C224.121 166.479 222.752 166.097 220.952 166.097C219.57 166.097 218.325 166.331 217.215 166.8C216.105 167.244 215.143 167.947 214.329 168.909L211.813 166.726C212.799 165.468 214.119 164.506 215.772 163.84C217.449 163.149 219.287 162.804 221.285 162.804C223.085 162.804 224.652 163.1 225.984 163.692C227.316 164.259 228.339 165.086 229.055 166.171C229.795 167.256 230.165 168.539 230.165 170.019C230.165 170.858 230.054 171.684 229.832 172.498C229.61 173.312 229.19 174.175 228.574 175.088C227.957 176.001 227.069 177.024 225.91 178.159L216.512 187.224L215.624 185.781H231.275V189H212.664Z" fill="white"/>
<path d="M202.948 246V221.58L204.539 223.319H197.102V220.1H206.611V246H202.948ZM220.676 219.804C223.019 219.804 224.992 220.31 226.596 221.321C228.224 222.332 229.457 223.8 230.296 225.724C231.134 227.623 231.554 229.954 231.554 232.717C231.554 235.652 231.036 238.131 230 240.154C228.964 242.177 227.533 243.706 225.708 244.742C223.882 245.778 221.749 246.296 219.307 246.296C218.098 246.296 216.926 246.173 215.792 245.926C214.682 245.679 213.707 245.297 212.869 244.779L214.275 241.893C214.965 242.337 215.73 242.658 216.569 242.855C217.432 243.028 218.332 243.114 219.27 243.114C221.884 243.114 223.969 242.3 225.523 240.672C227.077 239.019 227.854 236.577 227.854 233.346C227.854 232.828 227.829 232.211 227.78 231.496C227.73 230.781 227.619 230.078 227.447 229.387L228.668 230.645C228.322 231.78 227.743 232.742 226.929 233.531C226.139 234.296 225.177 234.875 224.043 235.27C222.933 235.64 221.712 235.825 220.38 235.825C218.678 235.825 217.161 235.504 215.829 234.863C214.497 234.222 213.448 233.321 212.684 232.162C211.919 230.978 211.537 229.584 211.537 227.981C211.537 226.304 211.931 224.861 212.721 223.652C213.535 222.419 214.632 221.469 216.014 220.803C217.42 220.137 218.974 219.804 220.676 219.804ZM220.824 222.801C219.714 222.801 218.727 223.011 217.864 223.43C217 223.849 216.322 224.429 215.829 225.169C215.36 225.909 215.126 226.797 215.126 227.833C215.126 229.362 215.656 230.583 216.717 231.496C217.777 232.384 219.208 232.828 221.009 232.828C222.193 232.828 223.229 232.606 224.117 232.162C225.029 231.718 225.732 231.114 226.226 230.349C226.744 229.584 227.003 228.733 227.003 227.796C227.003 226.883 226.768 226.057 226.3 225.317C225.831 224.577 225.14 223.973 224.228 223.504C223.315 223.035 222.18 222.801 220.824 222.801Z" fill="#292C33"/>
<path d="M194.415 303V300.484L204.96 290.309C205.898 289.421 206.588 288.644 207.032 287.978C207.501 287.287 207.809 286.658 207.957 286.091C208.13 285.499 208.216 284.932 208.216 284.389C208.216 283.057 207.748 282.009 206.81 281.244C205.873 280.479 204.504 280.097 202.703 280.097C201.322 280.097 200.076 280.331 198.966 280.8C197.856 281.244 196.894 281.947 196.08 282.909L193.564 280.726C194.551 279.468 195.871 278.506 197.523 277.84C199.201 277.149 201.038 276.804 203.036 276.804C204.837 276.804 206.403 277.1 207.735 277.692C209.067 278.259 210.091 279.086 210.806 280.171C211.546 281.256 211.916 282.539 211.916 284.019C211.916 284.858 211.805 285.684 211.583 286.498C211.361 287.312 210.942 288.175 210.325 289.088C209.709 290.001 208.821 291.024 207.661 292.159L198.263 301.224L197.375 299.781H213.026V303H194.415ZM226.91 303.296C224.616 303.296 222.655 302.79 221.027 301.779C219.399 300.768 218.154 299.312 217.29 297.413C216.452 295.489 216.032 293.146 216.032 290.383C216.032 287.448 216.55 284.969 217.586 282.946C218.622 280.923 220.065 279.394 221.915 278.358C223.765 277.322 225.887 276.804 228.279 276.804C229.513 276.804 230.684 276.927 231.794 277.174C232.929 277.421 233.903 277.803 234.717 278.321L233.311 281.207C232.645 280.738 231.881 280.418 231.017 280.245C230.179 280.072 229.291 279.986 228.353 279.986C225.714 279.986 223.617 280.812 222.063 282.465C220.509 284.093 219.732 286.523 219.732 289.754C219.732 290.272 219.757 290.889 219.806 291.604C219.856 292.319 219.979 293.022 220.176 293.713L218.918 292.455C219.288 291.32 219.868 290.371 220.657 289.606C221.471 288.817 222.433 288.237 223.543 287.867C224.678 287.472 225.899 287.275 227.206 287.275C228.933 287.275 230.462 287.596 231.794 288.237C233.126 288.878 234.175 289.791 234.939 290.975C235.704 292.134 236.086 293.516 236.086 295.119C236.086 296.772 235.679 298.215 234.865 299.448C234.051 300.681 232.954 301.631 231.572 302.297C230.191 302.963 228.637 303.296 226.91 303.296ZM226.762 300.299C227.897 300.299 228.884 300.089 229.722 299.67C230.586 299.251 231.264 298.671 231.757 297.931C232.251 297.166 232.497 296.278 232.497 295.267C232.497 293.738 231.967 292.529 230.906 291.641C229.846 290.728 228.403 290.272 226.577 290.272C225.393 290.272 224.357 290.494 223.469 290.938C222.581 291.382 221.878 291.986 221.36 292.751C220.867 293.491 220.62 294.342 220.62 295.304C220.62 296.192 220.855 297.018 221.323 297.783C221.792 298.523 222.483 299.127 223.395 299.596C224.308 300.065 225.43 300.299 226.762 300.299Z" fill="#292C33"/>
<path d="M278.761 132.296C276.467 132.296 274.506 131.79 272.878 130.779C271.25 129.768 270.004 128.312 269.141 126.413C268.302 124.489 267.883 122.146 267.883 119.383C267.883 116.448 268.401 113.969 269.437 111.946C270.473 109.923 271.916 108.394 273.766 107.358C275.616 106.322 277.737 105.804 280.13 105.804C281.363 105.804 282.535 105.927 283.645 106.174C284.78 106.421 285.754 106.803 286.568 107.321L285.162 110.207C284.496 109.738 283.731 109.418 282.868 109.245C282.029 109.072 281.141 108.986 280.204 108.986C277.565 108.986 275.468 109.812 273.914 111.465C272.36 113.093 271.583 115.523 271.583 118.754C271.583 119.272 271.608 119.889 271.657 120.604C271.706 121.319 271.83 122.022 272.027 122.713L270.769 121.455C271.139 120.32 271.719 119.371 272.508 118.606C273.322 117.817 274.284 117.237 275.394 116.867C276.529 116.472 277.75 116.275 279.057 116.275C280.784 116.275 282.313 116.596 283.645 117.237C284.977 117.878 286.025 118.791 286.79 119.975C287.555 121.134 287.937 122.516 287.937 124.119C287.937 125.772 287.53 127.215 286.716 128.448C285.902 129.681 284.804 130.631 283.423 131.297C282.042 131.963 280.488 132.296 278.761 132.296ZM278.613 129.299C279.748 129.299 280.734 129.089 281.573 128.67C282.436 128.251 283.115 127.671 283.608 126.931C284.101 126.166 284.348 125.278 284.348 124.267C284.348 122.738 283.818 121.529 282.757 120.641C281.696 119.728 280.253 119.272 278.428 119.272C277.244 119.272 276.208 119.494 275.32 119.938C274.432 120.382 273.729 120.986 273.211 121.751C272.718 122.491 272.471 123.342 272.471 124.304C272.471 125.192 272.705 126.018 273.174 126.783C273.643 127.523 274.333 128.127 275.246 128.596C276.159 129.065 277.281 129.299 278.613 129.299Z" fill="white"/>
<path d="M266.233 189V164.58L267.824 166.319H260.387V163.1H269.896V189H266.233ZM283.479 189.296C281.654 189.296 279.878 189.012 278.151 188.445C276.449 187.878 275.056 187.113 273.97 186.151L275.672 183.228C276.536 184.042 277.658 184.708 279.039 185.226C280.421 185.744 281.901 186.003 283.479 186.003C285.403 186.003 286.896 185.596 287.956 184.782C289.042 183.943 289.584 182.821 289.584 181.415C289.584 180.058 289.066 178.973 288.03 178.159C287.019 177.32 285.403 176.901 283.183 176.901H281.111V174.311L288.807 164.839L289.325 166.319H275.154V163.1H292.248V165.616L284.589 175.051L282.665 173.904H283.886C287.019 173.904 289.362 174.607 290.916 176.013C292.495 177.419 293.284 179.207 293.284 181.378C293.284 182.833 292.927 184.165 292.211 185.374C291.496 186.583 290.411 187.545 288.955 188.26C287.525 188.951 285.699 189.296 283.479 189.296Z" fill="white"/>
<path d="M255.949 246V243.484L266.494 233.309C267.432 232.421 268.122 231.644 268.566 230.978C269.035 230.287 269.343 229.658 269.491 229.091C269.664 228.499 269.75 227.932 269.75 227.389C269.75 226.057 269.282 225.009 268.344 224.244C267.407 223.479 266.038 223.097 264.237 223.097C262.856 223.097 261.61 223.331 260.5 223.8C259.39 224.244 258.428 224.947 257.614 225.909L255.098 223.726C256.085 222.468 257.405 221.506 259.057 220.84C260.735 220.149 262.572 219.804 264.57 219.804C266.371 219.804 267.937 220.1 269.269 220.692C270.601 221.259 271.625 222.086 272.34 223.171C273.08 224.256 273.45 225.539 273.45 227.019C273.45 227.858 273.339 228.684 273.117 229.498C272.895 230.312 272.476 231.175 271.859 232.088C271.243 233.001 270.355 234.024 269.195 235.159L259.797 244.224L258.909 242.781H274.56V246H255.949ZM288.148 246.296C286.126 246.296 284.313 245.778 282.709 244.742C281.131 243.706 279.873 242.201 278.935 240.228C278.023 238.255 277.566 235.862 277.566 233.05C277.566 230.238 278.023 227.845 278.935 225.872C279.873 223.899 281.131 222.394 282.709 221.358C284.313 220.322 286.126 219.804 288.148 219.804C290.146 219.804 291.947 220.322 293.55 221.358C295.154 222.394 296.412 223.899 297.324 225.872C298.237 227.845 298.693 230.238 298.693 233.05C298.693 235.862 298.237 238.255 297.324 240.228C296.412 242.201 295.154 243.706 293.55 244.742C291.947 245.778 290.146 246.296 288.148 246.296ZM288.148 243.003C289.505 243.003 290.689 242.633 291.7 241.893C292.736 241.153 293.538 240.043 294.105 238.563C294.697 237.083 294.993 235.245 294.993 233.05C294.993 230.855 294.697 229.017 294.105 227.537C293.538 226.057 292.736 224.947 291.7 224.207C290.689 223.467 289.505 223.097 288.148 223.097C286.792 223.097 285.595 223.467 284.559 224.207C283.523 224.947 282.709 226.057 282.117 227.537C281.55 229.017 281.266 230.855 281.266 233.05C281.266 235.245 281.55 237.083 282.117 238.563C282.709 240.043 283.523 241.153 284.559 241.893C285.595 242.633 286.792 243.003 288.148 243.003Z" fill="#292C33"/>
<path d="M257.232 303V300.484L267.777 290.309C268.715 289.421 269.405 288.644 269.849 287.978C270.318 287.287 270.626 286.658 270.774 286.091C270.947 285.499 271.033 284.932 271.033 284.389C271.033 283.057 270.565 282.009 269.627 281.244C268.69 280.479 267.321 280.097 265.52 280.097C264.139 280.097 262.893 280.331 261.783 280.8C260.673 281.244 259.711 281.947 258.897 282.909L256.381 280.726C257.368 279.468 258.688 278.506 260.34 277.84C262.018 277.149 263.855 276.804 265.853 276.804C267.654 276.804 269.22 277.1 270.552 277.692C271.884 278.259 272.908 279.086 273.623 280.171C274.363 281.256 274.733 282.539 274.733 284.019C274.733 284.858 274.622 285.684 274.4 286.498C274.178 287.312 273.759 288.175 273.142 289.088C272.526 290.001 271.638 291.024 270.478 292.159L261.08 301.224L260.192 299.781H275.843V303H257.232ZM283.326 303L294.315 278.654L295.277 280.319H279.885L281.735 278.506V284.944H278.183V277.1H297.719V279.616L287.248 303H283.326Z" fill="#292C33"/>
<path d="M327.93 189V164.58L329.521 166.319H322.084V163.1H331.593V189H327.93ZM336.888 182.636V180.046L350.134 163.1H354.13L340.995 180.046L339.108 179.454H359.791V182.636H336.888ZM351.281 189V182.636L351.392 179.454V173.83H354.87V189H351.281Z" fill="#292C33"/>
<path d="M324.908 246V243.484L335.453 233.309C336.391 232.421 337.081 231.644 337.525 230.978C337.994 230.287 338.302 229.658 338.45 229.091C338.623 228.499 338.709 227.932 338.709 227.389C338.709 226.057 338.241 225.009 337.303 224.244C336.366 223.479 334.997 223.097 333.196 223.097C331.815 223.097 330.569 223.331 329.459 223.8C328.349 224.244 327.387 224.947 326.573 225.909L324.057 223.726C325.044 222.468 326.364 221.506 328.016 220.84C329.694 220.149 331.531 219.804 333.529 219.804C335.33 219.804 336.896 220.1 338.228 220.692C339.56 221.259 340.584 222.086 341.299 223.171C342.039 224.256 342.409 225.539 342.409 227.019C342.409 227.858 342.298 228.684 342.076 229.498C341.854 230.312 341.435 231.175 340.818 232.088C340.202 233.001 339.314 234.024 338.154 235.159L328.756 244.224L327.868 242.781H343.519V246H324.908ZM350.927 246V221.58L352.518 223.319H345.081V220.1H354.59V246H350.927Z" fill="#292C33"/>
<path d="M319.851 303V300.484L330.396 290.309C331.333 289.421 332.024 288.644 332.468 287.978C332.936 287.287 333.245 286.658 333.393 286.091C333.565 285.499 333.652 284.932 333.652 284.389C333.652 283.057 333.183 282.009 332.246 281.244C331.308 280.479 329.939 280.097 328.139 280.097C326.757 280.097 325.512 280.331 324.402 280.8C323.292 281.244 322.33 281.947 321.516 282.909L319 280.726C319.986 279.468 321.306 278.506 322.959 277.84C324.636 277.149 326.474 276.804 328.472 276.804C330.272 276.804 331.839 277.1 333.171 277.692C334.503 278.259 335.526 279.086 336.242 280.171C336.982 281.256 337.352 282.539 337.352 284.019C337.352 284.858 337.241 285.684 337.019 286.498C336.797 287.312 336.377 288.175 335.761 289.088C335.144 290.001 334.256 291.024 333.097 292.159L323.699 301.224L322.811 299.781H338.462V303H319.851ZM351.605 303.296C349.508 303.296 347.695 302.988 346.166 302.371C344.636 301.754 343.452 300.879 342.614 299.744C341.775 298.585 341.356 297.228 341.356 295.674C341.356 294.145 341.75 292.85 342.54 291.789C343.354 290.704 344.525 289.89 346.055 289.347C347.584 288.78 349.434 288.496 351.605 288.496C353.775 288.496 355.625 288.78 357.155 289.347C358.709 289.89 359.893 290.704 360.707 291.789C361.521 292.874 361.928 294.169 361.928 295.674C361.928 297.228 361.508 298.585 360.67 299.744C359.831 300.879 358.635 301.754 357.081 302.371C355.527 302.988 353.701 303.296 351.605 303.296ZM351.605 300.299C353.677 300.299 355.292 299.88 356.452 299.041C357.636 298.178 358.228 297.018 358.228 295.563C358.228 294.132 357.636 293.01 356.452 292.196C355.292 291.357 353.677 290.938 351.605 290.938C349.557 290.938 347.954 291.357 346.795 292.196C345.635 293.01 345.056 294.132 345.056 295.563C345.056 297.018 345.635 298.178 346.795 299.041C347.954 299.88 349.557 300.299 351.605 300.299ZM351.605 290.494C349.631 290.494 347.954 290.235 346.573 289.717C345.191 289.174 344.131 288.41 343.391 287.423C342.651 286.412 342.281 285.215 342.281 283.834C342.281 282.379 342.663 281.133 343.428 280.097C344.217 279.036 345.315 278.222 346.721 277.655C348.127 277.088 349.755 276.804 351.605 276.804C353.479 276.804 355.12 277.088 356.526 277.655C357.932 278.222 359.029 279.036 359.819 280.097C360.608 281.133 361.003 282.379 361.003 283.834C361.003 285.215 360.633 286.412 359.893 287.423C359.153 288.41 358.08 289.174 356.674 289.717C355.268 290.235 353.578 290.494 351.605 290.494ZM351.605 288.126C353.405 288.126 354.811 287.756 355.823 287.016C356.859 286.276 357.377 285.265 357.377 283.982C357.377 282.675 356.846 281.651 355.786 280.911C354.725 280.171 353.331 279.801 351.605 279.801C349.878 279.801 348.497 280.171 347.461 280.911C346.449 281.651 345.944 282.675 345.944 283.982C345.944 285.265 346.437 286.276 347.424 287.016C348.435 287.756 349.829 288.126 351.605 288.126Z" fill="#292C33"/>
<path d="M336.206 132L347.195 107.654L348.157 109.319H332.765L334.615 107.506V113.944H331.062V106.1H350.599V108.616L340.128 132H336.206Z" fill="#292C33"/>
<path d="M407.569 78.1349V53.7149L409.16 55.4539H401.723V52.2349H411.232V78.1349H407.569Z" fill="#292C33"/>
</g>
</g>
</g>
</svg>
