<svg width="431" height="325" viewBox="0 0 431 325" fill="none" xmlns="http://www.w3.org/2000/svg">
<path d="M22.9554 21.0686H20.3466V3.417H10.8896V21.0686H8.19922V1.34521H22.8739V21.0686H22.9554Z" fill="#B3B3B3"/>
<path d="M38.7715 21.0686H36.1626V14.8532H29.7221V21.0686H27.1133V6.40039H29.7221V12.7815H36.1626V6.40039H38.7715V21.0686Z" fill="#B3B3B3"/>
<path d="M73 21.0686V1.34521H79.359C81.3972 1.34521 82.9462 1.75957 84.0875 2.67116C85.2289 3.58274 85.7996 4.90868 85.7996 6.64897C85.7996 7.47769 85.555 8.22353 85.0658 8.96937C84.5767 9.71521 83.8429 10.1296 83.0277 10.4611C84.3321 10.6267 85.3104 11.2069 86.0441 12.1185C86.7779 13.0301 87.1855 14.1903 87.1855 15.4333C87.1855 17.2565 86.6148 18.5824 85.4735 19.5768C84.3321 20.5714 82.7831 20.9857 80.745 20.9857H73V21.0686ZM75.6904 9.71521H79.9297C80.908 9.71521 81.7233 9.4666 82.294 8.8865C82.9462 8.3064 83.1907 7.56056 83.1907 6.5661C83.1907 5.48878 82.8646 4.74293 82.2124 4.16284C81.5602 3.66561 80.5819 3.33412 79.359 3.33412H75.6904V9.71521ZM75.6904 11.787V18.9139H80.745C81.9678 18.9139 82.8646 18.5824 83.5168 18.0024C84.1691 17.4223 84.4952 16.5107 84.4952 15.4333C84.4952 14.356 84.1691 13.4444 83.5168 12.7814C82.8646 12.1185 81.9678 11.787 80.745 11.7041H80.5819H75.6904V11.787Z" fill="#B3B3B3"/>
<path d="M101.124 8.47216H96.3959V21.0686H93.7871V8.47216H89.0586V6.40039H101.124V8.47216Z" fill="#B3B3B3"/>
<path d="M150.512 14.7703C150.593 16.6764 149.941 18.2509 148.637 19.4939C147.332 20.737 145.62 21.3999 143.419 21.3999C141.218 21.3999 139.424 20.5713 138.038 18.9967C136.652 17.4222 136 15.4333 136 12.9471V9.46653C136 7.06327 136.652 4.99149 138.038 3.41694C139.424 1.84238 141.218 1.01367 143.419 1.01367C145.62 1.01367 147.332 1.59377 148.637 2.75396C149.941 3.91417 150.593 5.48872 150.512 7.47763V7.5605H147.984C147.984 6.15169 147.577 5.07436 146.761 4.24565C145.946 3.41694 144.805 3.00258 143.337 3.00258C141.87 3.00258 140.729 3.58268 139.832 4.82575C138.935 5.98594 138.527 7.47763 138.527 9.30079V12.8643C138.527 14.6874 138.935 16.1791 139.832 17.3393C140.729 18.4995 141.87 19.1624 143.337 19.1624C144.805 19.1624 145.946 18.7481 146.761 18.0023C147.577 17.1735 147.984 16.0962 147.984 14.6874H150.512V14.7703Z" fill="#B3B3B3"/>
<path d="M165.919 14.2732C165.919 16.4279 165.43 18.0853 164.452 19.4112C163.473 20.7372 162.087 21.3173 160.294 21.3173C159.397 21.3173 158.663 21.1515 157.929 20.903C157.277 20.5715 156.707 20.1571 156.217 19.577V26.7039H153.609V6.40047H155.647L156.054 8.3065C156.544 7.56067 157.114 7.06343 157.848 6.73195C158.582 6.40047 159.397 6.15186 160.294 6.15186C162.087 6.15186 163.473 6.89769 164.452 8.3065C165.43 9.71531 165.919 11.6214 165.919 14.0246V14.2732ZM163.31 14.0246C163.31 12.3672 162.984 10.9584 162.332 9.96393C161.68 8.96948 160.701 8.38938 159.478 8.38938C158.745 8.38938 158.093 8.55512 157.522 8.8866C156.951 9.21809 156.544 9.71531 156.217 10.2955V17.4224C156.544 18.0025 156.951 18.4996 157.522 18.8311C158.093 19.1626 158.745 19.3284 159.478 19.3284C160.701 19.3284 161.68 18.8311 162.332 17.9195C162.984 17.008 163.31 15.765 163.31 14.3561V14.0246Z" fill="#B3B3B3"/>
<path d="M215.43 1.34521V21.0686H212.821V12.8643C212.006 13.1129 211.191 13.2787 210.375 13.4444C209.56 13.5273 208.663 13.6102 207.522 13.6102C205.402 13.6102 203.772 13.1129 202.631 12.2013C201.489 11.2898 201 9.71521 201 7.56056V1.34521H203.609V7.56056C203.609 9.05224 203.935 10.0467 204.506 10.6267C205.158 11.2069 206.136 11.4555 207.441 11.4555C208.337 11.4555 209.234 11.3727 210.131 11.2898C210.946 11.124 211.843 10.9582 212.74 10.7097V1.34521H215.43Z" fill="#B3B3B3"/>
<path d="M230.674 8.47216H225.946V21.0686H223.337V8.47216H218.609V6.40039H230.674V8.47216Z" fill="#B3B3B3"/>
<path d="M279.675 21.0686H277.066V3.417H267.609V21.0686H265V1.34521H279.675V21.0686Z" fill="#B3B3B3"/>
<path d="M294.921 8.47216H290.193V21.0686H287.584V8.47216H282.855V6.40039H294.921V8.47216Z" fill="#B3B3B3"/>
<path d="M344.512 14.7698C344.593 16.6758 343.941 18.2504 342.637 19.4935C341.332 20.7365 339.62 21.3995 337.419 21.3995C335.218 21.3995 333.424 20.5708 332.038 18.9962C330.652 17.4217 330 15.4327 330 12.9467V9.46605C330 7.06279 330.652 4.991 332.038 3.41645C333.424 1.8419 335.218 1.01318 337.419 1.01318C339.62 1.01318 341.332 1.59328 342.637 2.75348C343.941 3.91367 344.593 5.48822 344.512 7.47714V7.56001H341.984C341.984 6.1512 341.577 5.07388 340.761 4.24517C339.946 3.41645 338.805 3.0021 337.337 3.0021C335.87 3.0021 334.729 3.58219 333.832 4.82526C332.935 5.98546 332.527 7.47714 332.527 9.30031V12.8637C332.527 14.6869 332.935 16.1787 333.832 17.3388C334.729 18.499 335.87 19.162 337.337 19.162C338.805 19.162 339.946 18.7477 340.761 18.0017C341.577 17.1731 341.984 16.0957 341.984 14.6869H344.512V14.7698Z" fill="#B3B3B3"/>
<path d="M353.887 6.15116C355.762 6.15116 357.148 6.81413 358.208 8.22294C359.268 9.63176 359.838 11.372 359.838 13.6096V13.941C359.838 16.0957 359.268 17.9189 358.126 19.3277C356.985 20.7364 355.436 21.3995 353.398 21.3995C351.36 21.3995 349.811 20.7364 348.669 19.3277C347.528 17.9189 346.957 16.1786 346.957 13.941V13.6096C346.957 13.5267 346.957 13.4439 346.957 13.4439C346.957 13.3609 346.957 13.3609 346.957 13.2781V10.129C346.957 7.31136 347.528 5.32245 348.588 3.99651C349.648 2.67057 351.278 2.0076 353.398 1.84186C354.621 1.75899 355.599 1.59324 356.251 1.34463C356.903 1.09602 357.23 0.681661 357.23 0.101562H359.268V0.184434C359.349 1.59324 358.86 2.58769 357.882 3.1678C356.903 3.7479 355.517 4.07938 353.642 4.07938C352.256 4.07938 351.197 4.49374 350.381 5.23957C349.566 5.98542 349.158 7.06274 349.158 8.47155V8.55443C349.648 7.89145 350.381 7.31136 351.197 6.897C352.012 6.48264 352.99 6.15116 353.887 6.15116ZM353.398 8.22294C352.175 8.22294 351.197 8.72017 350.544 9.71462C349.892 10.7091 349.566 12.035 349.566 13.5267V13.8582C349.566 15.4327 349.892 16.6758 350.544 17.6703C351.197 18.6647 352.175 19.162 353.398 19.162C354.621 19.162 355.599 18.6647 356.251 17.6703C356.903 16.6758 357.23 15.3499 357.23 13.8582V13.5267C357.23 11.9521 356.903 10.7091 356.251 9.71462C355.599 8.72017 354.621 8.22294 353.398 8.22294Z" fill="#B3B3B3"/>
<path d="M394 21.0686V1.34521H400.359C402.397 1.34521 403.946 1.75957 405.088 2.67116C406.229 3.58274 406.8 4.90868 406.8 6.64897C406.8 7.47769 406.555 8.22353 406.066 8.96937C405.577 9.71521 404.843 10.1296 404.028 10.5439C405.332 10.7097 406.31 11.2898 407.044 12.2013C407.778 13.1129 408.186 14.2731 408.186 15.5162C408.186 17.3393 407.615 18.6653 406.473 19.6598C405.332 20.6542 403.783 21.0686 401.745 21.0686H394ZM396.69 9.71521H400.93C401.908 9.71521 402.723 9.4666 403.294 8.8865C403.946 8.3064 404.191 7.56056 404.191 6.5661C404.191 5.48878 403.865 4.74293 403.212 4.16284C402.56 3.66561 401.582 3.33412 400.359 3.33412H396.69V9.71521ZM396.69 11.787V18.9139H401.745C402.968 18.9139 403.865 18.5824 404.517 18.0024C405.169 17.4223 405.495 16.5107 405.495 15.4333C405.495 14.356 405.169 13.4444 404.517 12.7814C403.865 12.1185 402.968 11.787 401.745 11.7041H401.582H396.69V11.787Z" fill="#B3B3B3"/>
<path d="M416.745 19.2451C417.561 19.2451 418.294 18.9965 418.865 18.4165C419.436 17.8364 419.762 17.1734 419.762 16.4275H422.126V16.5104C422.126 17.7535 421.637 18.9136 420.496 19.9081C419.354 20.9025 418.131 21.3998 416.664 21.3998C414.626 21.3998 413.077 20.7368 411.935 19.328C410.794 17.9192 410.305 16.179 410.305 14.1071V13.527C410.305 11.4553 410.876 9.71496 411.935 8.30615C413.077 6.89734 414.626 6.23438 416.582 6.23438C418.213 6.23438 419.517 6.7316 420.496 7.72605C421.474 8.7205 422.045 9.96357 421.963 11.4553V11.5381H419.599C419.599 10.6265 419.273 9.88071 418.702 9.21774C418.131 8.55476 417.398 8.30615 416.501 8.30615C415.196 8.30615 414.3 8.80338 413.647 9.79783C413.077 10.7923 412.751 12.0354 412.751 13.527V14.1071C412.751 15.5988 413.077 16.8419 413.647 17.8364C414.544 18.748 415.441 19.2451 416.745 19.2451Z" fill="#B3B3B3"/>
<path d="M20.4492 52.96H29.9582V79.2874H26.2952V56.2321H20.4492V52.96Z" fill="#292C33"/>
<path d="M32.7067 118.342C35.6667 119.508 37.2947 121.69 37.2947 124.698C37.2947 129.475 33.2987 132.446 26.9717 132.446C20.6817 132.446 16.7227 129.475 16.7227 124.698C16.7227 121.69 18.3507 119.471 21.2737 118.342C18.9057 117.214 17.6477 115.258 17.6477 112.663C17.6477 108.263 21.3847 105.517 26.9717 105.517C32.5957 105.517 36.3697 108.263 36.3697 112.663C36.3697 115.258 35.0747 117.214 32.7067 118.342ZM26.9717 108.564C23.4937 108.564 21.3107 110.181 21.3107 112.814C21.3107 115.409 23.4197 117.026 26.9717 117.026C30.5607 117.026 32.7437 115.409 32.7437 112.814C32.7437 110.181 30.4497 108.564 26.9717 108.564ZM26.9717 129.4C31.0787 129.4 33.5947 127.557 33.5947 124.586C33.5947 121.69 31.0787 119.884 26.9717 119.884C22.8647 119.884 20.4227 121.69 20.4227 124.586C20.4227 127.557 22.8647 129.4 26.9717 129.4Z" fill="#292C33"/>
<path d="M9.55078 162.993H19.0598V189.321H15.3968V166.265H9.55078V162.993ZM32.1251 173.487C39.8581 173.487 42.8921 176.759 42.8921 181.422C42.8921 185.973 39.7101 189.621 33.0871 189.621C29.4241 189.621 25.7981 188.418 23.5781 186.425L25.2801 183.453C27.0191 185.108 29.9051 186.274 33.0501 186.274C36.9721 186.274 39.1921 184.431 39.1921 181.573C39.1921 178.602 37.3421 176.759 31.3481 176.759H25.4651L26.8341 162.993H41.4491V166.265H29.9421L29.2391 173.487H32.1251Z" fill="#292C33"/>
<path d="M11.9524 242.622H25.2354V245.894H6.62444V243.337L17.1694 232.994C19.9074 230.286 20.4254 228.631 20.4254 226.976C20.4254 224.268 18.5384 222.613 14.9124 222.613C12.1374 222.613 9.88044 223.516 8.28944 225.472L5.77344 223.253C7.77144 220.733 11.2124 219.266 15.2454 219.266C20.6474 219.266 24.1254 222.087 24.1254 226.6C24.1254 229.158 23.3854 231.452 19.8704 234.874L11.9524 242.622ZM33.1985 242.622H46.4815V245.894H27.8705V243.337L38.4155 232.994C41.1535 230.286 41.6715 228.631 41.6715 226.976C41.6715 224.268 39.7845 222.613 36.1585 222.613C33.3835 222.613 31.1265 223.516 29.5355 225.472L27.0195 223.253C29.0175 220.733 32.4585 219.266 36.4915 219.266C41.8935 219.266 45.3715 222.087 45.3715 226.6C45.3715 229.158 44.6315 231.452 41.1165 234.874L33.1985 242.622Z" fill="#292C33"/>
<path d="M11.1556 297.579H24.4386V300.851H5.82756V298.294L16.3726 287.951C19.1106 285.243 19.6286 283.588 19.6286 281.933C19.6286 279.225 17.7416 277.57 14.1156 277.57C11.3406 277.57 9.08356 278.473 7.49256 280.429L4.97656 278.21C6.97456 275.69 10.4156 274.223 14.4486 274.223C19.8506 274.223 23.3286 277.044 23.3286 281.557C23.3286 284.115 22.5886 286.409 19.0736 289.832L11.1556 297.579ZM35.8797 274.223C42.8357 274.223 46.7577 278.962 46.7577 287.349C46.7577 296.338 41.7627 301.152 34.5107 301.152C32.0687 301.152 29.7377 300.663 28.0727 299.61L29.4787 296.677C30.8477 297.579 32.5867 297.918 34.4737 297.918C39.7277 297.918 43.0577 294.57 43.0577 287.989V287.048C41.5407 289.343 38.8027 290.509 35.5837 290.509C30.4407 290.509 26.7407 287.387 26.7407 282.535C26.7407 277.458 30.7367 274.223 35.8797 274.223ZM36.2127 287.462C39.7647 287.462 42.2067 285.243 42.2067 282.347C42.2067 279.639 40.0607 277.27 36.0277 277.27C32.6607 277.27 30.3297 279.263 30.3297 282.385C30.3297 285.469 32.5867 287.462 36.2127 287.462Z" fill="#292C33"/>
<path d="M86.0735 76.0148H99.3565V79.287H80.7455V76.7295L91.2905 66.3865C94.0285 63.6786 94.5465 62.0237 94.5465 60.3689C94.5465 57.6609 92.6595 56.006 89.0335 56.006C86.2585 56.006 84.0015 56.9087 82.4105 58.8644L79.8945 56.6454C81.8925 54.1255 85.3335 52.6587 89.3665 52.6587C94.7685 52.6587 98.2465 55.4795 98.2465 59.9928C98.2465 62.5503 97.5065 64.8445 93.9915 68.2671L86.0735 76.0148Z" fill="#292C33"/>
<path d="M89.2562 105.517C96.2122 105.517 100.134 110.256 100.134 118.643C100.134 127.632 95.1392 132.446 87.8872 132.446C85.4452 132.446 83.1142 131.957 81.4492 130.904L82.8552 127.971C84.2242 128.873 85.9632 129.212 87.8502 129.212C93.1042 129.212 96.4342 125.864 96.4342 119.283V118.342C94.9172 120.637 92.1792 121.802 88.9602 121.802C83.8172 121.802 80.1172 118.681 80.1172 113.829C80.1172 108.752 84.1132 105.517 89.2562 105.517ZM89.5892 118.756C93.1412 118.756 95.5832 116.537 95.5832 113.641C95.5832 110.933 93.4372 108.564 89.4042 108.564C86.0372 108.564 83.7062 110.557 83.7062 113.679C83.7062 116.763 85.9632 118.756 89.5892 118.756Z" fill="#292C33"/>
<path d="M78.6038 189.321V164.498L80.1948 166.265H72.7578V162.993H82.2668V189.321H78.6038ZM98.8101 189.622C96.5161 189.622 94.5551 189.107 92.9271 188.08C91.2991 187.052 90.0534 185.572 89.1901 183.641C88.3514 181.686 87.9321 179.304 87.9321 176.495C87.9321 173.512 88.4501 170.992 89.4861 168.936C90.5221 166.879 91.9651 165.325 93.8151 164.272C95.6651 163.219 97.7864 162.692 100.179 162.692C101.413 162.692 102.584 162.817 103.694 163.068C104.829 163.32 105.803 163.708 106.617 164.234L105.211 167.168C104.545 166.691 103.781 166.366 102.917 166.19C102.079 166.014 101.191 165.927 100.253 165.927C97.6138 165.927 95.5171 166.767 93.9631 168.447C92.4091 170.102 91.6321 172.572 91.6321 175.856C91.6321 176.383 91.6568 177.01 91.7061 177.737C91.7554 178.463 91.8788 179.178 92.0761 179.88L90.8181 178.602C91.1881 177.448 91.7678 176.483 92.5571 175.706C93.3711 174.904 94.3331 174.314 95.4431 173.938C96.5778 173.536 97.7988 173.336 99.1061 173.336C100.833 173.336 102.362 173.662 103.694 174.314C105.026 174.966 106.075 175.894 106.839 177.097C107.604 178.275 107.986 179.68 107.986 181.31C107.986 182.99 107.579 184.457 106.765 185.71C105.951 186.963 104.854 187.929 103.472 188.606C102.091 189.283 100.537 189.622 98.8101 189.622ZM98.6621 186.575C99.7968 186.575 100.784 186.362 101.622 185.936C102.486 185.51 103.164 184.92 103.657 184.168C104.151 183.39 104.397 182.488 104.397 181.46C104.397 179.906 103.867 178.677 102.806 177.774C101.746 176.846 100.303 176.383 98.4771 176.383C97.2931 176.383 96.2571 176.608 95.3691 177.06C94.4811 177.511 93.7781 178.125 93.2601 178.903C92.7668 179.655 92.5201 180.52 92.5201 181.498C92.5201 182.4 92.7544 183.24 93.2231 184.018C93.6918 184.77 94.3824 185.384 95.2951 185.86C96.2078 186.337 97.3301 186.575 98.6621 186.575Z" fill="#292C33"/>
<path d="M75.9876 242.622H89.2706V245.894H70.6596V243.337L81.2046 232.994C83.9426 230.286 84.4606 228.631 84.4606 226.976C84.4606 224.268 82.5736 222.613 78.9476 222.613C76.1726 222.613 73.9156 223.516 72.3246 225.472L69.8086 223.253C71.8066 220.733 75.2476 219.266 79.2806 219.266C84.6826 219.266 88.1606 222.087 88.1606 226.6C88.1606 229.158 87.4206 231.452 83.9056 234.874L75.9876 242.622ZM102.229 230.624C107.409 231.113 110.036 234.085 110.036 238.147C110.036 242.585 106.817 246.195 100.231 246.195C96.5307 246.195 92.9047 244.992 90.7217 242.998L92.4237 240.027C94.1627 241.682 97.0487 242.848 100.231 242.848C104.116 242.848 106.336 241.043 106.336 238.184C106.336 235.401 104.375 233.596 99.9347 233.596H97.8627V230.963L104.375 222.839H91.9057V219.567H109V222.125L102.229 230.624Z" fill="#292C33"/>
<path d="M78.7648 285.582C83.9448 286.07 86.5718 289.042 86.5718 293.104C86.5718 297.542 83.3528 301.152 76.7668 301.152C73.0668 301.152 69.4408 299.949 67.2578 297.955L68.9598 294.984C70.6988 296.639 73.5848 297.805 76.7668 297.805C80.6518 297.805 82.8718 296 82.8718 293.141C82.8718 290.358 80.9108 288.553 76.4708 288.553H74.3988V285.92L80.9108 277.796H68.4418V274.524H85.5358V277.082L78.7648 285.582ZM100.605 301.152C94.5367 301.152 90.0227 296.263 90.0227 287.688C90.0227 279.113 94.5367 274.223 100.605 274.223C106.636 274.223 111.15 279.113 111.15 287.688C111.15 296.263 106.636 301.152 100.605 301.152ZM100.605 297.805C104.638 297.805 107.45 294.42 107.45 287.688C107.45 280.955 104.638 277.57 100.605 277.57C96.5347 277.57 93.7227 280.955 93.7227 287.688C93.7227 294.42 96.5347 297.805 100.605 297.805Z" fill="#292C33"/>
<path d="M155.105 64.0175C160.285 64.5064 162.912 67.4776 162.912 71.5396C162.912 75.9776 159.693 79.5882 153.107 79.5882C149.407 79.5882 145.781 78.3847 143.598 76.3913L145.3 73.4201C147.039 75.075 149.925 76.2409 153.107 76.2409C156.992 76.2409 159.212 74.4356 159.212 71.5772C159.212 68.794 157.251 66.9887 152.811 66.9887H150.739V64.356L157.251 56.2321H144.782V52.96H161.876V55.5175L155.105 64.0175Z" fill="#292C33"/>
<path d="M135.609 105.818H145.118V132.145H141.455V109.09H135.609V105.818ZM161.366 132.446C155.298 132.446 150.784 127.557 150.784 118.982C150.784 110.406 155.298 105.517 161.366 105.517C167.397 105.517 171.911 110.406 171.911 118.982C171.911 127.557 167.397 132.446 161.366 132.446ZM161.366 129.099C165.399 129.099 168.211 125.714 168.211 118.982C168.211 112.249 165.399 108.864 161.366 108.864C157.296 108.864 154.484 112.249 154.484 118.982C154.484 125.714 157.296 129.099 161.366 129.099Z" fill="#292C33"/>
<path d="M142.463 189.321V164.498L144.054 166.265H136.617V162.993H146.126V189.321H142.463ZM156.269 189.321L167.258 164.573L168.22 166.265H152.828L154.678 164.422V170.967H151.126V162.993H170.662V165.551L160.191 189.321H156.269Z" fill="#292C33"/>
<path d="M138.042 242.622H151.325V245.894H132.714V243.337L143.259 232.994C145.997 230.286 146.515 228.631 146.515 226.976C146.515 224.268 144.628 222.613 141.002 222.613C138.227 222.613 135.97 223.516 134.379 225.472L131.863 223.253C133.861 220.733 137.302 219.266 141.335 219.266C146.737 219.266 150.215 222.087 150.215 226.6C150.215 229.158 149.475 231.452 145.96 234.874L138.042 242.622ZM176.213 236.191V239.425H171.292V245.894H167.703V239.425H153.31V236.793L166.556 219.567H170.552L157.861 236.191H167.814V230.474H171.292V236.191H176.213Z" fill="#292C33"/>
<path d="M146.759 301.152C144.934 301.152 143.158 300.864 141.431 300.287C139.729 299.711 138.335 298.933 137.25 297.955L138.952 294.984C139.815 295.811 140.938 296.489 142.319 297.015C143.7 297.542 145.18 297.805 146.759 297.805C148.683 297.805 150.175 297.391 151.236 296.564C152.321 295.711 152.864 294.57 152.864 293.141C152.864 291.762 152.346 290.659 151.31 289.831C150.299 288.979 148.683 288.553 146.463 288.553H144.391V285.92L152.087 276.292L152.605 277.796H138.434V274.524H155.528V277.081L147.869 286.672L145.945 285.506H147.166C150.299 285.506 152.642 286.221 154.196 287.65C155.775 289.079 156.564 290.897 156.564 293.104C156.564 294.583 156.206 295.937 155.491 297.165C154.776 298.394 153.69 299.372 152.235 300.099C150.804 300.802 148.979 301.152 146.759 301.152ZM164.381 300.851V276.028L165.972 277.796H158.535V274.524H168.044V300.851H164.381Z" fill="#292C33"/>
<path d="M230.434 69.5838V72.8183H225.513V79.2874H221.924V72.8183H207.531V70.1856L220.777 52.96H224.773L212.082 69.5838H222.035V63.867H225.513V69.5838H230.434Z" fill="#292C33"/>
<path d="M205.602 105.818H215.111V132.145H211.448V109.09H205.602V105.818ZM219.296 105.818H228.805V132.145H225.142V109.09H219.296V105.818Z" fill="#292C33"/>
<path d="M206.616 189.321V164.498L208.207 166.265H200.77V162.993H210.279V189.321H206.616ZM226.045 189.622C223.949 189.622 222.136 189.308 220.606 188.681C219.077 188.054 217.893 187.165 217.054 186.011C216.216 184.833 215.796 183.453 215.796 181.874C215.796 180.32 216.191 179.003 216.98 177.925C217.794 176.822 218.966 175.994 220.495 175.442C222.025 174.866 223.875 174.577 226.045 174.577C228.216 174.577 230.066 174.866 231.595 175.442C233.149 175.994 234.333 176.822 235.147 177.925C235.961 179.028 236.368 180.344 236.368 181.874C236.368 183.453 235.949 184.833 235.11 186.011C234.272 187.165 233.075 188.054 231.521 188.681C229.967 189.308 228.142 189.622 226.045 189.622ZM226.045 186.575C228.117 186.575 229.733 186.149 230.892 185.296C232.076 184.419 232.668 183.24 232.668 181.761C232.668 180.306 232.076 179.166 230.892 178.338C229.733 177.486 228.117 177.06 226.045 177.06C223.998 177.06 222.395 177.486 221.235 178.338C220.076 179.166 219.496 180.306 219.496 181.761C219.496 183.24 220.076 184.419 221.235 185.296C222.395 186.149 223.998 186.575 226.045 186.575ZM226.045 176.608C224.072 176.608 222.395 176.345 221.013 175.818C219.632 175.267 218.571 174.49 217.831 173.487C217.091 172.459 216.721 171.242 216.721 169.838C216.721 168.359 217.104 167.093 217.868 166.04C218.658 164.961 219.755 164.134 221.161 163.557C222.567 162.981 224.195 162.692 226.045 162.692C227.92 162.692 229.56 162.981 230.966 163.557C232.372 164.134 233.47 164.961 234.259 166.04C235.049 167.093 235.443 168.359 235.443 169.838C235.443 171.242 235.073 172.459 234.333 173.487C233.593 174.49 232.52 175.267 231.114 175.818C229.708 176.345 228.019 176.608 226.045 176.608ZM226.045 174.201C227.846 174.201 229.252 173.825 230.263 173.073C231.299 172.321 231.817 171.293 231.817 169.989C231.817 168.66 231.287 167.619 230.226 166.867C229.166 166.115 227.772 165.739 226.045 165.739C224.319 165.739 222.937 166.115 221.901 166.867C220.89 167.619 220.384 168.66 220.384 169.989C220.384 171.293 220.878 172.321 221.864 173.073C222.876 173.825 224.269 174.201 226.045 174.201Z" fill="#292C33"/>
<path d="M203.952 242.622H217.235V245.894H198.624V243.337L209.169 232.994C211.907 230.286 212.425 228.631 212.425 226.976C212.425 224.268 210.538 222.613 206.912 222.613C204.137 222.613 201.88 223.516 200.289 225.472L197.773 223.253C199.771 220.733 203.212 219.266 207.245 219.266C212.647 219.266 216.125 222.087 216.125 226.6C216.125 229.158 215.385 231.452 211.87 234.874L203.952 242.622ZM227.677 230.06C235.41 230.06 238.444 233.332 238.444 237.996C238.444 242.547 235.262 246.195 228.639 246.195C224.976 246.195 221.35 244.992 219.13 242.998L220.832 240.027C222.571 241.682 225.457 242.848 228.602 242.848C232.524 242.848 234.744 241.005 234.744 238.147C234.744 235.175 232.894 233.332 226.9 233.332H221.017L222.386 219.567H237.001V222.839H225.494L224.791 230.06H227.677Z" fill="#292C33"/>
<path d="M280.555 63.4533C288.288 63.4533 291.322 66.7254 291.322 71.3891C291.322 75.94 288.14 79.5882 281.517 79.5882C277.854 79.5882 274.228 78.3847 272.008 76.3913L273.71 73.4201C275.449 75.075 278.335 76.2409 281.48 76.2409C285.402 76.2409 287.622 74.398 287.622 71.5396C287.622 68.5683 285.772 66.7254 279.778 66.7254H273.895L275.264 52.96H289.879V56.2321H278.372L277.669 63.4533H280.555Z" fill="#292C33"/>
<path d="M265.324 105.818H274.833V132.145H271.17V109.09H265.324V105.818ZM285.419 128.873H298.702V132.145H280.091V129.588L290.636 119.245C293.374 116.537 293.892 114.882 293.892 113.227C293.892 110.519 292.005 108.864 288.379 108.864C285.604 108.864 283.347 109.767 281.756 111.723L279.24 109.504C281.238 106.984 284.679 105.517 288.712 105.517C294.114 105.517 297.592 108.338 297.592 112.851C297.592 115.409 296.852 117.703 293.337 121.125L285.419 128.873Z" fill="#292C33"/>
<path d="M270.604 189.321V164.498L272.195 166.265H264.758V162.993H274.267V189.321H270.604ZM288.331 162.692C290.675 162.692 292.648 163.207 294.251 164.234C295.879 165.262 297.113 166.754 297.951 168.71C298.79 170.64 299.209 173.01 299.209 175.818C299.209 178.802 298.691 181.322 297.655 183.378C296.619 185.435 295.189 186.989 293.363 188.042C291.538 189.095 289.404 189.622 286.962 189.622C285.754 189.622 284.582 189.497 283.447 189.245C282.337 188.994 281.363 188.606 280.524 188.08L281.93 185.146C282.621 185.597 283.386 185.924 284.224 186.124C285.088 186.3 285.988 186.387 286.925 186.387C289.54 186.387 291.624 185.56 293.178 183.905C294.732 182.224 295.509 179.742 295.509 176.458C295.509 175.931 295.485 175.304 295.435 174.577C295.386 173.851 295.275 173.136 295.102 172.434L296.323 173.712C295.978 174.866 295.398 175.844 294.584 176.646C293.795 177.424 292.833 178.012 291.698 178.414C290.588 178.79 289.367 178.978 288.035 178.978C286.333 178.978 284.816 178.651 283.484 178C282.152 177.348 281.104 176.432 280.339 175.254C279.575 174.051 279.192 172.634 279.192 171.004C279.192 169.3 279.587 167.833 280.376 166.604C281.19 165.351 282.288 164.385 283.669 163.708C285.075 163.031 286.629 162.692 288.331 162.692ZM288.479 165.739C287.369 165.739 286.383 165.952 285.519 166.378C284.656 166.804 283.978 167.394 283.484 168.146C283.016 168.898 282.781 169.801 282.781 170.854C282.781 172.408 283.312 173.649 284.372 174.577C285.433 175.48 286.864 175.931 288.664 175.931C289.848 175.931 290.884 175.706 291.772 175.254C292.685 174.803 293.388 174.189 293.881 173.411C294.399 172.634 294.658 171.769 294.658 170.816C294.658 169.888 294.424 169.049 293.955 168.296C293.487 167.544 292.796 166.93 291.883 166.453C290.971 165.977 289.836 165.739 288.479 165.739Z" fill="#292C33"/>
<path d="M266.71 242.622H279.993V245.894H261.382V243.337L271.927 232.994C274.665 230.286 275.183 228.631 275.183 226.976C275.183 224.268 273.296 222.613 269.67 222.613C266.895 222.613 264.638 223.516 263.047 225.472L260.531 223.253C262.529 220.733 265.97 219.266 270.003 219.266C275.405 219.266 278.883 222.087 278.883 226.6C278.883 229.158 278.143 231.452 274.628 234.874L266.71 242.622ZM294.101 229.91C299.244 229.91 302.981 233.032 302.981 237.883C302.981 242.961 298.948 246.195 293.805 246.195C286.849 246.195 282.927 241.456 282.927 233.069C282.927 224.08 287.922 219.266 295.174 219.266C297.616 219.266 299.947 219.755 301.612 220.808L300.206 223.742C298.874 222.839 297.098 222.501 295.248 222.501C289.994 222.501 286.627 225.848 286.627 232.43C286.627 232.731 286.627 233.032 286.664 233.37C288.144 231.113 290.882 229.91 294.101 229.91ZM293.657 243.149C297.024 243.149 299.392 241.155 299.392 238.034C299.392 234.95 297.098 232.956 293.472 232.956C289.957 232.956 287.515 235.175 287.515 238.071C287.515 240.779 289.661 243.149 293.657 243.149Z" fill="#292C33"/>
<path d="M348.033 63.3025C353.176 63.3025 356.913 66.4242 356.913 71.2759C356.913 76.3533 352.88 79.5879 347.737 79.5879C340.781 79.5879 336.859 74.8489 336.859 66.4618C336.859 57.4728 341.854 52.6587 349.106 52.6587C351.548 52.6587 353.879 53.1476 355.544 54.2007L354.138 57.1343C352.806 56.2317 351.03 55.8932 349.18 55.8932C343.926 55.8932 340.559 59.2405 340.559 65.8224C340.559 66.1233 340.559 66.4242 340.596 66.7627C342.076 64.506 344.814 63.3025 348.033 63.3025ZM347.589 76.5414C350.956 76.5414 353.324 74.548 353.324 71.4264C353.324 68.3423 351.03 66.3489 347.404 66.3489C343.889 66.3489 341.447 68.568 341.447 71.464C341.447 74.1719 343.593 76.5414 347.589 76.5414Z" fill="#292C33"/>
<path d="M329.363 105.818H338.872V132.145H335.209V109.09H329.363V105.818ZM354.453 116.875C359.633 117.364 362.26 120.336 362.26 124.397C362.26 128.836 359.041 132.446 352.455 132.446C348.755 132.446 345.129 131.243 342.946 129.249L344.648 126.278C346.387 127.933 349.273 129.099 352.455 129.099C356.34 129.099 358.56 127.294 358.56 124.435C358.56 121.652 356.599 119.847 352.159 119.847H350.087V117.214L356.599 109.09H344.13V105.818H361.224V108.375L354.453 116.875Z" fill="#292C33"/>
<path d="M330.015 186.049H343.298V189.321H324.687V186.763L335.232 176.42C337.97 173.712 338.488 172.057 338.488 170.403C338.488 167.695 336.601 166.04 332.975 166.04C330.2 166.04 327.943 166.942 326.352 168.898L323.836 166.679C325.834 164.159 329.275 162.692 333.308 162.692C338.71 162.692 342.188 165.513 342.188 170.026C342.188 172.584 341.448 174.878 337.933 178.301L330.015 186.049ZM356.813 189.622C350.745 189.622 346.231 184.732 346.231 176.157C346.231 167.582 350.745 162.692 356.813 162.692C362.844 162.692 367.358 167.582 367.358 176.157C367.358 184.732 362.844 189.622 356.813 189.622ZM356.813 186.274C360.846 186.274 363.658 182.889 363.658 176.157C363.658 169.425 360.846 166.04 356.813 166.04C352.743 166.04 349.931 169.425 349.931 176.157C349.931 182.889 352.743 186.274 356.813 186.274Z" fill="#292C33"/>
<path d="M331.074 242.622H344.357V245.894H325.746V243.337L336.291 232.994C339.029 230.286 339.547 228.631 339.547 226.976C339.547 224.268 337.66 222.613 334.034 222.613C331.259 222.613 329.002 223.516 327.411 225.472L324.895 223.253C326.893 220.733 330.334 219.266 334.367 219.266C339.769 219.266 343.247 222.087 343.247 226.6C343.247 229.158 342.507 231.452 338.992 234.874L331.074 242.622ZM346.624 219.567H366.16V222.125L355.689 245.894H351.767L362.016 222.839H350.176V227.54H346.624V219.567Z" fill="#292C33"/>
<path d="M388.574 105.818H398.083V132.145H394.42V109.09H388.574V105.818ZM426.282 122.442V125.676H421.361V132.145H417.772V125.676H403.379V123.044L416.625 105.818H420.621L407.93 122.442H417.883V116.725H421.361V122.442H426.282Z" fill="#292C33"/>
<path d="M396.952 186.049H410.235V189.321H391.624V186.763L402.169 176.42C404.907 173.712 405.425 172.057 405.425 170.403C405.425 167.695 403.538 166.04 399.912 166.04C397.137 166.04 394.88 166.942 393.289 168.898L390.773 166.679C392.771 164.159 396.212 162.692 400.245 162.692C405.647 162.692 409.125 165.513 409.125 170.026C409.125 172.584 408.385 174.878 404.87 178.301L396.952 186.049ZM411.797 162.993H421.306V189.321H417.643V166.265H411.797V162.993Z" fill="#292C33"/>
<path d="M391.167 242.622H404.45V245.894H385.839V243.337L396.384 232.994C399.122 230.286 399.64 228.631 399.64 226.976C399.64 224.268 397.753 222.613 394.127 222.613C391.352 222.613 389.095 223.516 387.504 225.472L384.988 223.253C386.986 220.733 390.427 219.266 394.46 219.266C399.862 219.266 403.34 222.087 403.34 226.6C403.34 229.158 402.6 231.452 399.085 234.874L391.167 242.622ZM423.328 232.091C426.288 233.257 427.916 235.439 427.916 238.447C427.916 243.224 423.92 246.195 417.593 246.195C411.303 246.195 407.344 243.224 407.344 238.447C407.344 235.439 408.972 233.22 411.895 232.091C409.527 230.963 408.269 229.007 408.269 226.412C408.269 222.012 412.006 219.266 417.593 219.266C423.217 219.266 426.991 222.012 426.991 226.412C426.991 229.007 425.696 230.963 423.328 232.091ZM417.593 222.313C414.115 222.313 411.932 223.93 411.932 226.563C411.932 229.158 414.041 230.775 417.593 230.775C421.182 230.775 423.365 229.158 423.365 226.563C423.365 223.93 421.071 222.313 417.593 222.313ZM417.593 243.149C421.7 243.149 424.216 241.306 424.216 238.335C424.216 235.439 421.7 233.633 417.593 233.633C413.486 233.633 411.044 235.439 411.044 238.335C411.044 241.306 413.486 243.149 417.593 243.149Z" fill="#292C33"/>
<path d="M398.238 51.9434H417.774V54.5009L407.303 78.2708H403.381L413.63 55.2155H401.79V59.9168H398.238V51.9434Z" fill="#292C33"/>
</svg>
