<svg width="1920" height="2261" viewBox="0 0 1920 2261" fill="none" xmlns="http://www.w3.org/2000/svg">
<path d="M2029.8 974.76L2062.63 917.828L2029.55 860.927L1969.09 860.976L1938.84 808.632L1878.39 808.681L1848.14 756.337L1787.68 756.386L1757.43 704.042L1696.98 704.092L1666.73 651.747L1606.27 651.797L1576.03 599.452L1510.35 599.42L1479.64 652.692L1421.15 652.707L1391.37 704.369L1334.24 704.39L1303.99 652.045L1244.14 652.055L1214.17 600.256L1148.49 600.224L1117.78 653.496L1065.2 653.407L1035.22 601.608L975.375 601.618L945.396 549.819L879.724 549.787L849.686 601.889L788.476 601.894L755.653 658.825L786.318 711.799L756.279 763.901L785.571 814.524L756.882 864.284L704.303 864.195L674.325 812.396L608.653 812.364L578.614 864.465L517.404 864.47L486.691 917.743L428.204 917.758L395.465 974.543L424.757 1025.17L396.068 1074.93L343.489 1074.84L313.511 1023.04L253.662 1023.05L223.684 971.249L158.012 971.217L125.273 1028L154.565 1078.62L125.876 1128.38L67.3896 1128.4L34.6509 1185.18L63.9427 1235.81L35.2542 1285.57L-17.3249 1285.48L-47.3035 1233.68L-112.975 1233.65L-143.014 1285.75L-204.894 1285.56L-237.632 1342.35L-204.699 1399.16L-144.851 1399.15L-114.872 1450.95L-55.0239 1450.94L-25.0453 1502.74L34.8031 1502.73L64.7816 1554.53L124.63 1554.52L154.609 1606.32L214.457 1606.31L244.436 1658.11L304.284 1658.1L334.263 1709.9L394.111 1709.89L424.09 1761.69L483.938 1761.68L513.917 1813.48L573.765 1813.47L603.743 1865.26L664.199 1865.21L694.448 1917.56L754.904 1917.51L785.153 1969.85L845.609 1969.8L875.858 2022.15L936.314 2022.1L966.563 2074.44L1027.02 2074.39L1057.27 2126.74L1117.72 2126.69L1147.97 2179.03L1208.43 2178.98L1238.68 2231.33L1304.35 2231.36L1337.09 2174.58L1307.8 2123.95L1336.48 2074.19L1394.97 2074.18L1427.71 2017.39L1398.42 1966.77L1427.11 1917.01L1485.59 1917L1518.33 1860.21L1489.04 1809.59L1517.73 1759.83L1576.22 1759.81L1608.95 1703.03L1579.66 1652.41L1608.35 1602.65L1666.84 1602.63L1699.58 1545.85L1670.28 1495.22L1698.97 1445.46L1757.46 1445.45L1790.2 1388.66L1760.91 1338.04L1789.6 1288.28L1848.08 1288.26L1880.82 1231.48L1851.53 1180.86L1880.22 1131.1L1938.7 1131.08L1971.44 1074.3L1942.15 1023.67L1970.84 973.914L2029.8 974.76Z" fill="#42C66E"/>
<path d="M1282.68 569.178L1261.05 627.038L1267.8 629.579L1289.43 571.719L1282.68 569.178Z" fill="#42C66E"/>
<path d="M1299.25 599.712L1287.39 611.609L1292.48 616.715L1309.46 599.712L1292.48 582.683L1287.39 587.789L1299.25 599.712Z" fill="#42C66E"/>
<path d="M1263.63 611.609L1251.75 599.687L1263.63 587.789L1258.52 582.683L1241.56 599.687L1258.52 616.715L1263.63 611.609Z" fill="#42C66E"/>
<path d="M1302.86 644.476L1328.81 599.414L1302.86 554.353H1250.96L1225 599.414L1250.96 644.476H1302.86ZM1255.63 562.433H1298.19L1319.49 599.414L1298.19 636.395H1255.63L1234.35 599.414L1255.63 562.433Z" fill="#42C66E"/>
<path d="M1367.86 519.878L1346.23 577.738L1352.99 580.279L1374.62 522.419L1367.86 519.878Z" fill="#42C66E"/>
<path d="M1384.43 550.411L1372.57 562.309L1377.66 567.415L1394.64 550.411L1377.66 533.383L1372.57 538.489L1384.43 550.411Z" fill="#42C66E"/>
<path d="M1348.82 562.309L1336.93 550.387L1348.82 538.489L1343.7 533.383L1326.75 550.387L1343.7 567.415L1348.82 562.309Z" fill="#42C66E"/>
<path d="M1388.04 595.175L1413.99 550.114L1388.04 505.053H1336.14L1310.19 550.114L1336.14 595.175H1388.04ZM1340.81 513.133H1383.37L1404.68 550.114L1383.37 587.095H1340.81L1319.53 550.114L1340.81 513.133Z" fill="#42C66E"/>
<path d="M1367.86 620.956L1346.23 678.816L1352.99 681.357L1374.62 623.497L1367.86 620.956Z" fill="#42C66E"/>
<path d="M1384.43 651.49L1372.57 663.387L1377.66 668.493L1394.64 651.49L1377.66 634.462L1372.57 639.568L1384.43 651.49Z" fill="#42C66E"/>
<path d="M1348.82 663.387L1336.93 651.465L1348.82 639.568L1343.7 634.462L1326.75 651.465L1343.7 668.493L1348.82 663.387Z" fill="#42C66E"/>
<path d="M1388.04 696.254L1413.99 651.193L1388.04 606.131H1336.14L1310.19 651.193L1336.14 696.254H1388.04ZM1340.81 614.211H1383.37L1404.68 651.193L1383.37 688.174H1340.81L1319.53 651.193L1340.81 614.211Z" fill="#42C66E"/>
<path d="M1454.68 471.673L1433.05 529.533L1439.81 532.074L1461.44 474.214L1454.68 471.673Z" fill="#42C66E"/>
<path d="M1471.25 502.207L1459.39 514.104L1464.48 519.21L1481.46 502.207L1464.48 485.179L1459.39 490.285L1471.25 502.207Z" fill="#42C66E"/>
<path d="M1435.64 514.104L1423.75 502.182L1435.64 490.285L1430.52 485.179L1413.57 502.182L1430.52 519.21L1435.64 514.104Z" fill="#42C66E"/>
<path d="M1474.86 546.971L1500.81 501.91L1474.86 456.848H1422.96L1397.01 501.91L1422.96 546.971H1474.86ZM1427.63 464.928H1470.19L1491.5 501.91L1470.19 538.891H1427.63L1406.35 501.91L1427.63 464.928Z" fill="#42C66E"/>
<path d="M1454.68 569.465L1433.05 627.325L1439.81 629.866L1461.44 572.006L1454.68 569.465Z" fill="#42C66E"/>
<path d="M1471.25 599.999L1459.39 611.896L1464.48 617.002L1481.46 599.999L1464.48 582.97L1459.39 588.076L1471.25 599.999Z" fill="#42C66E"/>
<path d="M1435.64 611.896L1423.75 599.974L1435.64 588.076L1430.52 582.97L1413.57 599.974L1430.52 617.002L1435.64 611.896Z" fill="#42C66E"/>
<path d="M1474.86 644.763L1500.81 599.701L1474.86 554.64H1422.96L1397.01 599.701L1422.96 644.763H1474.86ZM1427.63 562.72H1470.19L1491.5 599.701L1470.19 636.682H1427.63L1406.35 599.701L1427.63 562.72Z" fill="#42C66E"/>
<g opacity="0.3">
<path d="M1097.7 677.025L1075.33 736.875L1082.32 739.503L1104.69 679.653L1097.7 677.025Z" fill="#2E8049"/>
<path d="M1114.85 708.609L1102.58 720.915L1107.84 726.197L1125.41 708.609L1107.84 690.995L1102.58 696.277L1114.85 708.609Z" fill="#2E8049"/>
<path d="M1078.01 720.915L1065.71 708.583L1078.01 696.277L1072.72 690.995L1055.18 708.583L1072.72 726.197L1078.01 720.915Z" fill="#2E8049"/>
<path d="M1118.58 754.912L1145.43 708.301L1118.58 661.69H1064.89L1038.05 708.301L1064.89 754.912H1118.58ZM1069.73 670.048H1113.75L1135.79 708.301L1113.75 746.554H1069.73L1047.71 708.301L1069.73 670.048Z" fill="#2E8049"/>
<path d="M1186.24 729.287L1163.87 789.137L1170.86 791.765L1193.23 731.915L1186.24 729.287Z" fill="#2E8049"/>
<path d="M1203.39 760.871L1191.12 773.177L1196.38 778.459L1213.95 760.871L1196.38 743.257L1191.12 748.539L1203.39 760.871Z" fill="#2E8049"/>
<path d="M1166.55 773.177L1154.25 760.845L1166.55 748.539L1161.26 743.257L1143.72 760.845L1161.26 778.459L1166.55 773.177Z" fill="#2E8049"/>
<path d="M1207.12 807.174L1233.97 760.563L1207.12 713.952H1153.43L1126.59 760.563L1153.43 807.174H1207.12ZM1158.27 722.31H1202.29L1224.33 760.563L1202.29 798.816H1158.27L1136.25 760.563L1158.27 722.31Z" fill="#2E8049"/>
<path d="M1276.63 676.541L1254.26 736.39L1261.25 739.018L1283.62 679.169L1276.63 676.541Z" fill="#2E8049"/>
<path d="M1293.78 708.124L1281.5 720.431L1286.77 725.713L1304.33 708.124L1286.77 690.511L1281.5 695.792L1293.78 708.124Z" fill="#2E8049"/>
<path d="M1256.94 720.431L1244.64 708.099L1256.94 695.792L1251.64 690.511L1234.11 708.099L1251.64 725.713L1256.94 720.431Z" fill="#2E8049"/>
<path d="M1297.51 754.428L1324.35 707.817L1297.51 661.206H1243.82L1216.98 707.817L1243.82 754.428H1297.51ZM1248.65 669.564H1292.68L1314.71 707.817L1292.68 746.07H1248.65L1226.64 707.817L1248.65 669.564Z" fill="#2E8049"/>
<path d="M1365.17 729.287L1342.8 789.137L1349.79 791.765L1372.16 731.915L1365.17 729.287Z" fill="#2E8049"/>
<path d="M1382.31 760.871L1370.04 773.177L1375.31 778.459L1392.87 760.871L1375.31 743.257L1370.04 748.539L1382.31 760.871Z" fill="#2E8049"/>
<path d="M1345.47 773.177L1333.18 760.845L1345.47 748.539L1340.18 743.257L1322.64 760.845L1340.18 778.459L1345.47 773.177Z" fill="#2E8049"/>
<path d="M1386.05 807.174L1412.89 760.563L1386.05 713.952H1332.36L1305.52 760.563L1332.36 807.174H1386.05ZM1337.19 722.31H1381.22L1403.25 760.563L1381.22 798.816H1337.19L1315.18 760.563L1337.19 722.31Z" fill="#2E8049"/>
<path d="M1097.7 780.124L1075.33 839.973L1082.32 842.601L1104.69 782.752L1097.7 780.124Z" fill="#2E8049"/>
<path d="M1114.85 811.707L1102.58 824.014L1107.84 829.295L1125.41 811.707L1107.84 794.093L1102.58 799.375L1114.85 811.707Z" fill="#2E8049"/>
<path d="M1078.01 824.014L1065.71 811.681L1078.01 799.375L1072.72 794.093L1055.18 811.681L1072.72 829.295L1078.01 824.014Z" fill="#2E8049"/>
<path d="M1118.58 858.01L1145.43 811.4L1118.58 764.788H1064.89L1038.05 811.4L1064.89 858.01H1118.58ZM1069.73 773.147H1113.75L1135.79 811.4L1113.75 849.652H1069.73L1047.71 811.4L1069.73 773.147Z" fill="#2E8049"/>
<path d="M1276.63 780.123L1254.26 839.973L1261.25 842.601L1283.62 782.751L1276.63 780.123Z" fill="#2E8049"/>
<path d="M1293.78 811.707L1281.5 824.013L1286.77 829.295L1304.33 811.707L1286.77 794.093L1281.5 799.375L1293.78 811.707Z" fill="#2E8049"/>
<path d="M1256.94 824.013L1244.64 811.681L1256.94 799.375L1251.64 794.093L1234.11 811.681L1251.64 829.295L1256.94 824.013Z" fill="#2E8049"/>
<path d="M1297.51 858.01L1324.35 811.399L1297.51 764.788H1243.82L1216.98 811.399L1243.82 858.01H1297.51ZM1248.65 773.147H1292.68L1314.71 811.399L1292.68 849.652H1248.65L1226.64 811.399L1248.65 773.147Z" fill="#2E8049"/>
<path d="M1186.97 625.399L1164.6 685.249L1171.59 687.877L1193.96 628.027L1186.97 625.399Z" fill="#2E8049"/>
<path d="M1204.12 656.983L1191.84 669.289L1197.11 674.571L1214.67 656.983L1197.11 639.369L1191.84 644.65L1204.12 656.983Z" fill="#2E8049"/>
<path d="M1167.28 669.289L1154.98 656.957L1167.28 644.65L1161.98 639.369L1144.45 656.957L1161.98 674.571L1167.28 669.289Z" fill="#2E8049"/>
<path d="M1207.85 703.286L1234.69 656.675L1207.85 610.064H1154.16L1127.32 656.675L1154.16 703.286H1207.85ZM1158.99 618.422H1203.02L1225.05 656.675L1203.02 694.928H1158.99L1136.98 656.675L1158.99 618.422Z" fill="#2E8049"/>
<path d="M1007.28 729.065L984.906 788.915L991.897 791.543L1014.27 731.693L1007.28 729.065Z" fill="#2E8049"/>
<path d="M1024.42 760.649L1012.15 772.955L1017.42 778.237L1034.98 760.649L1017.42 743.035L1012.15 748.316L1024.42 760.649Z" fill="#2E8049"/>
<path d="M987.584 772.955L975.287 760.623L987.584 748.316L982.292 743.035L964.754 760.623L982.292 778.237L987.584 772.955Z" fill="#2E8049"/>
<path d="M1028.16 806.952L1055 760.341L1028.16 713.73H974.469L947.625 760.341L974.469 806.952H1028.16ZM979.301 722.088H1023.33L1045.36 760.341L1023.33 798.594H979.301L957.289 760.341L979.301 722.088Z" fill="#2E8049"/>
<path d="M917.435 677.025L895.062 736.875L902.053 739.503L924.425 679.653L917.435 677.025Z" fill="#2E8049"/>
<path d="M934.58 708.609L922.309 720.915L927.575 726.197L945.139 708.609L927.575 690.995L922.309 696.277L934.58 708.609Z" fill="#2E8049"/>
<path d="M897.74 720.915L885.443 708.583L897.74 696.277L892.448 690.995L874.91 708.583L892.448 726.197L897.74 720.915Z" fill="#2E8049"/>
<path d="M938.313 754.912L965.157 708.301L938.313 661.69H884.625L857.781 708.301L884.625 754.912H938.313ZM889.457 670.048H933.482L955.519 708.301L933.482 746.554H889.457L867.445 708.301L889.457 670.048Z" fill="#2E8049"/>
<path d="M826.544 626.126L804.172 685.976L811.162 688.604L833.535 628.754L826.544 626.126Z" fill="#2E8049"/>
<path d="M843.69 657.71L831.418 670.016L836.685 675.298L854.248 657.71L836.685 640.096L831.418 645.378L843.69 657.71Z" fill="#2E8049"/>
<path d="M806.85 670.016L794.553 657.684L806.85 645.378L801.558 640.096L784.02 657.684L801.558 675.298L806.85 670.016Z" fill="#2E8049"/>
<path d="M847.423 704.013L874.267 657.402L847.423 610.791H793.735L766.891 657.402L793.735 704.013H847.423ZM798.567 619.149H842.591L864.629 657.402L842.591 695.655H798.567L776.555 657.402L798.567 619.149Z" fill="#2E8049"/>
<path d="M917.435 575.227L895.062 635.076L902.053 637.704L924.425 577.855L917.435 575.227Z" fill="#2E8049"/>
<path d="M934.58 606.81L922.309 619.117L927.575 624.399L945.139 606.81L927.575 589.197L922.309 594.478L934.58 606.81Z" fill="#2E8049"/>
<path d="M897.74 619.117L885.443 606.785L897.74 594.478L892.448 589.197L874.91 606.785L892.448 624.399L897.74 619.117Z" fill="#2E8049"/>
<path d="M938.313 653.114L965.157 606.503L938.313 559.892H884.625L857.781 606.503L884.625 653.114H938.313ZM889.457 568.25H933.482L955.519 606.503L933.482 644.755H889.457L867.445 606.503L889.457 568.25Z" fill="#2E8049"/>
<path d="M1007.28 626.126L984.906 685.976L991.897 688.604L1014.27 628.754L1007.28 626.126Z" fill="#2E8049"/>
<path d="M1024.42 657.71L1012.15 670.016L1017.42 675.298L1034.98 657.71L1017.42 640.096L1012.15 645.377L1024.42 657.71Z" fill="#2E8049"/>
<path d="M987.584 670.016L975.287 657.684L987.584 645.377L982.292 640.096L964.754 657.684L982.292 675.298L987.584 670.016Z" fill="#2E8049"/>
<path d="M1028.16 704.013L1055 657.402L1028.16 610.791H974.469L947.625 657.402L974.469 704.013H1028.16ZM979.301 619.149H1023.33L1045.36 657.402L1023.33 695.655H979.301L957.289 657.402L979.301 619.149Z" fill="#2E8049"/>
<path d="M917.439 780.207L895.066 840.056L902.057 842.684L924.429 782.835L917.439 780.207Z" fill="#2E8049"/>
<path d="M934.58 811.791L922.309 824.097L927.575 829.379L945.139 811.791L927.575 794.177L922.309 799.458L934.58 811.791Z" fill="#2E8049"/>
<path d="M897.74 824.097L885.443 811.765L897.74 799.458L892.448 794.177L874.91 811.765L892.448 829.379L897.74 824.097Z" fill="#2E8049"/>
<path d="M938.313 858.094L965.157 811.483L938.313 764.872H884.625L857.781 811.483L884.625 858.094H938.313ZM889.457 773.23H933.482L955.519 811.483L933.482 849.736H889.457L867.445 811.483L889.457 773.23Z" fill="#2E8049"/>
</g>
</svg>
