<svg width="1505" height="1340" viewBox="0 0 1505 1340" fill="none" xmlns="http://www.w3.org/2000/svg">
<path d="M27.274 1049.15L0.0758057 1096.71L27.274 1144.3L0 1191.74L27.1226 1238.92L0.101074 1286.17L30.0773 1339.29L89.3606 1339.68L117.102 1291.48H171.802L198.798 1244.75H252.98L280.494 1196.56H335.282L362.19 1149.87H411.233L438.267 1196.56H498.548L525.582 1149.87L574.625 1149.91L601.381 1196.56H662.167L688.974 1149.91L742.878 1149.87L770.67 1101.71L825.357 1101.67L852.366 1055.02H906.523L936.663 1001.96L909.541 954.525L934.062 911.925L988.762 911.9L1015.77 865.246L1069.62 865.208L1097.47 817.038L1152.23 817L1179.16 770.346L1233.41 770.321L1263.56 717.062L1236.34 669.852L1263.7 622.504L1236.34 574.965L1263.47 527.314L1236.34 480.079L1260.99 437.492L1314.71 437.454L1342.55 389.297L1397.33 389.259L1424.25 342.605L1474.71 342.567L1504.87 289.32L1477.64 242.111L1505 194.762L1472.38 146.719L1419.3 146.15L1391.64 193.878L1342.23 192.464L1312.3 143.119L1342.23 100.254L1309.89 48.1947H1260.86L1233.14 0.126221L1173.78 0L1146.32 48.1947L1091.49 48.0432L1061.93 99.4712L1089.34 147.224L1064.81 189.773H1016.1L988.636 143.094L928.355 143.372L901.422 189.811L847.189 190.102L819.713 238.006L764.811 237.968L738.017 284.698H683.784L656.321 332.893H607.278L579.6 284.66L520.519 284.698L490.378 337.768L517.299 384.927L492.929 427.741L443.886 427.779L416.41 379.585H356.899L329.537 427.779H274.812L245.164 479.536L272.362 526.771L245.101 574.347L272.362 621.392L245.164 668.955L272.362 716.544L245.101 763.981L245.631 764.916L245.29 765.522L271.781 811.923L246.868 855.496L198.798 855.533L171.309 807.339H111.811L84.436 855.533H29.7238L0.0758057 907.277L27.274 954.525L0 1002.1L27.274 1049.15Z" fill="#42C66E"/>
</svg>
