<svg width="1505" height="1389" viewBox="0 0 1505 1389" fill="none" xmlns="http://www.w3.org/2000/svg">
<path d="M1477.73 290.533L1504.92 242.969L1477.73 195.381L1505 147.944L1477.88 100.759L1504.9 53.5119L1474.92 0.39152L1415.64 0L1387.9 48.1948H1333.2L1306.2 94.9246H1252.02L1224.51 143.119H1169.72L1142.81 189.811H1093.77L1066.73 143.119H1006.45L979.418 189.811L930.375 189.773L903.619 143.119H842.833L816.026 189.773L762.122 189.811L734.33 237.968L679.643 238.006L652.634 284.66H598.477L568.337 337.717L595.459 385.154L570.938 427.754L516.238 427.779L489.229 474.433L435.375 474.471L407.533 522.641L352.77 522.679L325.837 569.333L271.592 569.358L241.439 622.617L268.663 669.827L241.3 717.175L268.663 764.714L241.527 812.365L268.663 859.6L244.015 902.187L190.287 902.225L162.445 950.382L107.67 950.42L80.749 997.074L30.2919 997.112L0.126269 1050.36L27.3625 1097.57L0 1144.92L32.6153 1192.96L85.6988 1193.53L113.364 1145.8L162.773 1147.22L192.699 1196.56L162.773 1239.42L195.111 1291.48H244.141L271.857 1339.55L331.216 1339.68L358.68 1291.48L413.506 1291.64L443.065 1240.21L415.665 1192.45L440.186 1149.91H488.901L516.364 1196.58L576.645 1196.31L603.578 1149.87L657.811 1149.58L685.287 1101.67L740.189 1101.71L766.983 1054.98H821.216L848.679 1006.79H897.722L925.4 1055.02L984.481 1054.98L1014.62 1001.91L987.701 954.752L1012.07 911.938L1061.11 911.9L1088.59 960.094H1148.1L1175.46 911.9H1230.19L1259.84 860.143L1232.64 812.908L1259.9 765.332L1232.64 718.287L1259.84 670.724L1232.64 623.135L1259.9 575.698L1259.37 574.763L1259.71 574.157L1233.22 527.756L1258.13 484.183L1306.2 484.146L1333.69 532.34H1393.19L1420.56 484.146H1475.28L1504.92 432.402L1477.73 385.154L1505 337.578L1477.73 290.533Z" fill="#42C66E"/>
<path d="M558.094 1222.93L537.664 1277.62L543.978 1280.02L564.42 1225.33L558.094 1222.93Z" fill="#DCDEE0"/>
<path d="M573.767 1251.79L562.555 1263.03L567.366 1267.87L583.402 1251.79L567.366 1235.7L562.555 1240.53L573.767 1251.79Z" fill="#DCDEE0"/>
<path d="M540.105 1263.03L528.88 1251.77L540.105 1240.53L535.269 1235.7L519.258 1251.77L535.269 1267.87L540.105 1263.03Z" fill="#DCDEE0"/>
<path d="M577.175 1294.1L601.696 1251.51L577.175 1208.93H528.119L503.598 1251.51L528.119 1294.1H577.175ZM532.538 1216.55H572.755L592.882 1251.51L572.755 1286.46H532.538L512.424 1251.51L532.538 1216.55Z" fill="#DCDEE0"/>
<path d="M558.094 1317.82L537.664 1372.51L543.978 1374.91L564.42 1320.22L558.094 1317.82Z" fill="#DCDEE0"/>
<path d="M573.767 1346.68L562.555 1357.93L567.366 1362.76L583.402 1346.68L567.366 1330.59L562.555 1335.41L573.767 1346.68Z" fill="#DCDEE0"/>
<path d="M540.105 1357.93L528.88 1346.65L540.105 1335.41L535.269 1330.59L519.258 1346.65L535.269 1362.73L540.105 1357.93Z" fill="#DCDEE0"/>
<path d="M577.175 1388.99L601.696 1346.4L577.175 1303.81H528.119L503.598 1346.4L528.119 1388.99H577.175ZM532.538 1311.44H572.755L592.882 1346.4L572.755 1381.35H532.538L512.424 1346.4L532.538 1311.44Z" fill="#DCDEE0"/>
<path d="M639.794 1174.74L619.363 1229.42L625.677 1231.82L646.12 1177.14L639.794 1174.74Z" fill="#DCDEE0"/>
<path d="M655.463 1203.6L644.25 1214.84L649.061 1219.67L665.11 1203.6L649.061 1187.51L644.25 1192.33L655.463 1203.6Z" fill="#DCDEE0"/>
<path d="M621.825 1214.84L610.6 1203.57L621.825 1192.33L616.989 1187.51L600.953 1203.6L616.964 1219.7L621.825 1214.84Z" fill="#DCDEE0"/>
<path d="M658.87 1245.91L683.391 1203.32L658.87 1160.73H609.814L585.293 1203.32L609.814 1245.91H658.87ZM614.246 1168.36H654.463L674.666 1203.32L654.463 1238.26H614.246L594.144 1203.32L614.246 1168.36Z" fill="#DCDEE0"/>
<path d="M639.794 1269.62L619.363 1324.31L625.677 1326.71L646.12 1272.02L639.794 1269.62Z" fill="#DCDEE0"/>
<path d="M655.463 1298.48L644.25 1309.74L649.061 1314.56L665.11 1298.48L649.061 1282.39L644.25 1287.22L655.463 1298.48Z" fill="#DCDEE0"/>
<path d="M621.824 1309.69L610.598 1298.41L621.824 1287.17L616.988 1282.34L600.977 1298.41L616.988 1314.51L621.824 1309.69Z" fill="#DCDEE0"/>
<path d="M658.87 1340.79L683.391 1298.21L658.87 1255.62H609.814L585.293 1298.21L609.814 1340.79H658.87ZM614.234 1263.25H654.45L674.653 1298.21L654.45 1333.15H614.246L594.144 1298.21L614.234 1263.25Z" fill="#DCDEE0"/>
<path d="M721.489 1125.52L701.059 1180.21L707.372 1182.61L727.815 1127.92L721.489 1125.52Z" fill="#DCDEE0"/>
<path d="M737.158 1154.34L725.945 1165.58L730.756 1170.41L746.83 1154.34L730.782 1138.25L725.971 1143.08L737.158 1154.34Z" fill="#DCDEE0"/>
<path d="M703.495 1165.62L692.27 1154.35L703.495 1143.11L698.659 1138.29L682.648 1154.34L698.659 1170.43L703.495 1165.62Z" fill="#DCDEE0"/>
<path d="M740.519 1196.69L765.04 1154.1L740.519 1111.51H691.526L666.992 1154.1L691.526 1196.69H740.519ZM695.883 1119.14H736.099L756.302 1154.1L736.099 1189.05H695.883L675.78 1154.1L695.883 1119.14Z" fill="#DCDEE0"/>
<path d="M721.489 1222.93L701.059 1277.62L707.372 1280.02L727.815 1225.33L721.489 1222.93Z" fill="#DCDEE0"/>
<path d="M737.158 1251.79L725.945 1263.03L730.756 1267.87L746.805 1251.79L730.756 1235.7L725.945 1240.53L737.158 1251.79Z" fill="#DCDEE0"/>
<path d="M703.495 1263.03L692.27 1251.77L703.495 1240.53L698.659 1235.7L682.648 1251.77L698.659 1267.87L703.495 1263.03Z" fill="#DCDEE0"/>
<path d="M740.519 1294.1L765.04 1251.51L740.519 1208.93H691.526L666.992 1251.51L691.526 1294.1H740.519ZM695.883 1216.55H736.099L756.302 1251.51L736.099 1286.46H695.883L675.78 1251.51L695.883 1216.55Z" fill="#DCDEE0"/>
<path d="M721.489 1317.82L701.059 1372.51L707.372 1374.91L727.815 1320.22L721.489 1317.82Z" fill="#DCDEE0"/>
<path d="M737.158 1346.68L725.945 1357.93L730.756 1362.76L746.805 1346.68L730.756 1330.59L725.945 1335.41L737.158 1346.68Z" fill="#DCDEE0"/>
<path d="M703.495 1357.93L692.27 1346.65L703.495 1335.41L698.659 1330.59L682.648 1346.65L698.659 1362.76L703.495 1357.93Z" fill="#DCDEE0"/>
<path d="M740.519 1388.99L765.04 1346.4L740.519 1303.81H691.526L666.992 1346.4L691.526 1388.99H740.519ZM695.883 1311.44H736.099L756.302 1346.4L736.099 1381.35H695.883L675.78 1346.4L695.883 1311.44Z" fill="#DCDEE0"/>
<path d="M803.184 1076.04L782.754 1130.72L789.067 1133.12L809.51 1078.44L803.184 1076.04Z" fill="#DCDEE0"/>
<path d="M818.803 1104.92L807.59 1116.16L812.401 1120.99L828.45 1104.92L812.489 1088.83L807.678 1093.66L818.803 1104.92Z" fill="#DCDEE0"/>
<path d="M785.191 1116.16L773.965 1104.9L785.191 1093.66L780.367 1088.83L764.344 1104.9L780.367 1120.99L785.191 1116.16Z" fill="#DCDEE0"/>
<path d="M822.264 1147.23L846.785 1104.64L822.264 1062.04H773.221L748.699 1104.64L773.221 1147.23H822.264ZM777.627 1069.68H817.844L838.047 1104.64L817.844 1139.59H777.627L757.525 1104.64L777.627 1069.68Z" fill="#DCDEE0"/>
<path d="M803.184 1174.74L782.754 1229.42L789.067 1231.82L809.51 1177.14L803.184 1174.74Z" fill="#DCDEE0"/>
<path d="M818.803 1203.6L807.59 1214.84L812.401 1219.67L828.45 1203.6L812.489 1187.51L807.678 1192.33L818.803 1203.6Z" fill="#DCDEE0"/>
<path d="M785.191 1214.84L773.965 1203.57L785.191 1192.33L780.367 1187.51L764.344 1203.6L780.367 1219.7L785.191 1214.84Z" fill="#DCDEE0"/>
<path d="M822.264 1245.91L846.785 1203.32L822.264 1160.73H773.221L748.699 1203.32L773.221 1245.91H822.264ZM777.627 1168.36H817.844L838.047 1203.32L817.844 1238.26H777.627L757.525 1203.32L777.627 1168.36Z" fill="#DCDEE0"/>
<path d="M803.184 1269.62L782.754 1324.31L789.067 1326.71L809.51 1272.02L803.184 1269.62Z" fill="#DCDEE0"/>
<path d="M818.803 1298.48L807.59 1309.74L812.401 1314.56L828.45 1298.48L812.489 1282.39L807.678 1287.22L818.803 1298.48Z" fill="#DCDEE0"/>
<path d="M785.191 1309.69L773.965 1298.41L785.191 1287.17L780.367 1282.34L764.344 1298.41L780.367 1314.51L785.191 1309.69Z" fill="#DCDEE0"/>
<path d="M822.264 1340.79L846.785 1298.21L822.264 1255.62H773.221L748.699 1298.21L773.221 1340.79H822.264ZM777.627 1263.25H817.844L838.047 1298.21L817.844 1333.15H777.627L757.525 1298.21L777.627 1263.25Z" fill="#DCDEE0"/>
<path d="M884.879 1125.52L864.449 1180.21L870.838 1182.61L891.269 1127.92L884.879 1125.52Z" fill="#DCDEE0"/>
<path d="M900.549 1154.34L889.336 1165.58L894.147 1170.41L910.196 1154.34L894.147 1138.25L889.336 1143.08L900.549 1154.34Z" fill="#DCDEE0"/>
<path d="M866.899 1165.62L855.661 1154.35L866.899 1143.11L862.063 1138.29L846.039 1154.34L862.063 1170.43L866.899 1165.62Z" fill="#DCDEE0"/>
<path d="M903.959 1196.69L928.48 1154.1L903.959 1111.51H854.916L830.395 1154.1L854.916 1196.69H903.959ZM859.323 1119.14H899.539L919.742 1154.1L899.539 1189.05H859.323L839.221 1154.1L859.323 1119.14Z" fill="#DCDEE0"/>
<path d="M964.013 1077.3L943.57 1131.99L949.959 1134.39L970.39 1079.7L964.013 1077.3Z" fill="#DCDEE0"/>
<path d="M979.72 1106.18L968.508 1117.42L973.319 1122.25L989.367 1106.18L973.319 1090.09L968.508 1094.92L979.72 1106.18Z" fill="#DCDEE0"/>
<path d="M946.071 1117.42L934.833 1106.16L946.071 1094.92L941.234 1090.09L925.211 1106.16L941.234 1122.25L946.071 1117.42Z" fill="#DCDEE0"/>
<path d="M983.131 1148.49L1007.65 1105.91L983.131 1063.31H934.088L909.566 1105.91L934.088 1148.49H983.131ZM938.495 1070.95H978.711L998.851 1105.91L978.711 1140.85H938.495L918.393 1105.91L938.495 1070.95Z" fill="#DCDEE0"/>
<g opacity="0.2">
<path d="M227.525 1116.68L207.082 1171.37L213.471 1173.77L233.914 1119.08L227.525 1116.68Z" fill="#2E8049"/>
<path d="M243.181 1145.5L231.969 1156.74L236.78 1161.56L252.828 1145.5L236.78 1129.41L231.969 1134.23L243.181 1145.5Z" fill="#2E8049"/>
<path d="M209.532 1156.78L198.294 1145.51L209.532 1134.27L204.696 1129.45L188.723 1145.5L204.746 1161.59L209.532 1156.78Z" fill="#2E8049"/>
<path d="M246.591 1187.85L271.112 1145.26L246.591 1102.67H197.56L173.039 1145.26L197.56 1187.85H246.591ZM201.967 1110.3H242.184L262.311 1145.26L242.184 1180.21H201.967L181.853 1145.26L201.967 1110.3Z" fill="#2E8049"/>
<path d="M227.525 1211.57L207.082 1266.25L213.471 1268.65L233.914 1213.97L227.525 1211.57Z" fill="#2E8049"/>
<path d="M243.181 1240.42L231.969 1251.67L236.78 1256.5L252.828 1240.42L236.78 1224.33L231.969 1229.16L243.181 1240.42Z" fill="#2E8049"/>
<path d="M209.532 1251.67L198.294 1240.4L209.532 1229.16L204.696 1224.33L188.723 1240.4L204.746 1256.5L209.532 1251.67Z" fill="#2E8049"/>
<path d="M246.591 1282.73L271.112 1240.15L246.591 1197.56H197.56L173.039 1240.15L197.56 1282.73H246.591ZM201.967 1205.19H242.184L262.311 1240.15L242.184 1275.09H201.967L181.853 1240.15L201.967 1205.19Z" fill="#2E8049"/>
<path d="M309.22 1163.37L288.777 1218.06L295.167 1220.46L315.61 1165.77L309.22 1163.37Z" fill="#2E8049"/>
<path d="M324.877 1192.23L313.664 1203.47L318.475 1208.31L334.524 1192.23L318.475 1176.14L313.664 1180.96L324.877 1192.23Z" fill="#2E8049"/>
<path d="M291.227 1203.47L279.989 1192.2L291.227 1180.96L286.391 1176.14L270.367 1192.23L286.391 1208.33L291.227 1203.47Z" fill="#2E8049"/>
<path d="M328.287 1234.54L352.872 1191.95L328.35 1149.36H279.244L254.723 1191.95L279.244 1234.54H328.287ZM283.663 1156.99H323.83L344.033 1191.95L323.83 1226.9H283.663L263.549 1191.95L283.663 1156.99Z" fill="#2E8049"/>
<path d="M309.22 1258.26L288.777 1312.94L295.167 1315.34L315.61 1260.66L309.22 1258.26Z" fill="#2E8049"/>
<path d="M324.876 1287.12L313.727 1298.32L318.537 1303.14L334.586 1287.07L318.537 1270.98L313.727 1275.8L324.876 1287.12Z" fill="#2E8049"/>
<path d="M291.227 1298.32L279.989 1287.04L291.227 1275.8L286.391 1270.98L270.367 1287.04L286.391 1303.14L291.227 1298.32Z" fill="#2E8049"/>
<path d="M328.287 1329.43L352.872 1286.84L328.35 1244.25H279.244L254.723 1286.84L279.244 1329.43H328.287ZM283.663 1251.88H323.83L344.033 1286.84L323.83 1321.78H283.663L263.549 1286.84L283.663 1251.88Z" fill="#2E8049"/>
<path d="M390.916 1116.68L370.473 1171.37L376.862 1173.77L397.305 1119.08L390.916 1116.68Z" fill="#2E8049"/>
<path d="M406.575 1145.5L395.375 1156.74L400.186 1161.56L416.222 1145.5L400.186 1129.41L395.375 1134.23L406.575 1145.5Z" fill="#2E8049"/>
<path d="M372.922 1156.78L361.709 1145.5L372.947 1134.26L368.111 1129.44L352.062 1145.5L368.086 1161.59L372.922 1156.78Z" fill="#2E8049"/>
<path d="M409.983 1187.85L434.505 1145.26L409.983 1102.67H360.941L336.457 1145.26L360.978 1187.85H409.983ZM365.36 1110.3H405.577L425.704 1145.26L405.577 1180.21H365.36L345.296 1145.26L365.36 1110.3Z" fill="#2E8049"/>
<path d="M390.916 1211.57L370.473 1266.25L376.862 1268.65L397.305 1213.97L390.916 1211.57Z" fill="#2E8049"/>
<path d="M406.575 1240.42L395.375 1251.67L400.186 1256.5L416.222 1240.42L400.186 1224.33L395.375 1229.16L406.575 1240.42Z" fill="#2E8049"/>
<path d="M372.922 1251.67L361.684 1240.4L372.922 1229.16L368.086 1224.33L352.062 1240.4L368.086 1256.5L372.922 1251.67Z" fill="#2E8049"/>
<path d="M409.983 1282.73L434.505 1240.15L409.983 1197.56H360.941L336.457 1240.15L360.978 1282.73H409.983ZM365.36 1205.19H405.577L425.704 1240.15L405.577 1275.09H365.36L345.296 1240.15L365.36 1205.19Z" fill="#2E8049"/>
<path d="M472.611 973.598L452.168 1028.28L458.557 1030.68L479 975.997L472.611 973.598Z" fill="#2E8049"/>
<path d="M488.27 1002.46L477.07 1013.7L481.881 1018.52L497.917 1002.46L481.881 986.366L477.07 991.191L488.27 1002.46Z" fill="#2E8049"/>
<path d="M454.617 1013.7L443.38 1002.43L454.617 991.191L449.781 986.366L433.758 1002.43L449.781 1018.52L454.617 1013.7Z" fill="#2E8049"/>
<path d="M491.678 1044.77L516.212 1002.18L491.678 959.579H442.635L418.113 1002.18L442.635 1044.77H491.678ZM447.054 967.22H487.271L507.398 1002.18L487.271 1037.12H447.054L426.939 1002.18L447.054 967.22Z" fill="#2E8049"/>
<path d="M472.611 1068.46L452.168 1123.15L458.557 1125.55L479 1070.86L472.611 1068.46Z" fill="#2E8049"/>
<path d="M488.27 1097.34L477.07 1108.58L481.881 1113.41L497.917 1097.34L481.881 1081.25L477.07 1086.08L488.27 1097.34Z" fill="#2E8049"/>
<path d="M454.617 1108.58L443.38 1097.32L454.617 1086.08L449.781 1081.25L433.758 1097.32L449.781 1113.41L454.617 1108.58Z" fill="#2E8049"/>
<path d="M491.678 1139.65L516.212 1097.07L491.678 1054.47H442.635L418.113 1097.07L442.635 1139.65H491.678ZM447.054 1062.14H487.271L507.398 1097.1L487.271 1132.05H447.054L426.939 1097.1L447.054 1062.14Z" fill="#2E8049"/>
<path d="M554.309 926.906L533.879 981.592L540.192 983.992L560.635 929.306L554.309 926.906Z" fill="#2E8049"/>
<path d="M569.978 955.765L558.766 967.005L563.576 971.83L579.613 955.765L563.576 939.637L558.766 944.461L569.978 955.765Z" fill="#2E8049"/>
<path d="M536.316 967.005L525.09 955.739L536.316 944.499L531.48 939.675L515.469 955.739L531.48 971.83L536.316 967.005Z" fill="#2E8049"/>
<path d="M573.389 998.074L597.911 955.487L573.389 912.887H524.334L499.812 955.487L524.334 998.074H573.389ZM528.753 920.528H568.97L589.097 955.487L568.97 990.433H528.753L508.639 955.487L528.753 920.528Z" fill="#2E8049"/>
<path d="M554.309 1021.79L533.879 1076.48L540.192 1078.88L560.635 1024.19L554.309 1021.79Z" fill="#2E8049"/>
<path d="M569.978 1050.65L558.766 1061.89L563.576 1066.72L579.613 1050.65L563.576 1034.56L558.766 1039.39L569.978 1050.65Z" fill="#2E8049"/>
<path d="M536.316 1061.89L525.09 1050.63L536.316 1039.39L531.48 1034.56L515.469 1050.63L531.48 1066.72L536.316 1061.89Z" fill="#2E8049"/>
<path d="M573.389 1092.96L597.911 1050.37L573.389 1007.84H524.334L499.812 1050.44L524.334 1093.02L573.389 1092.96ZM528.753 1015.41H568.97L589.097 1050.37L568.97 1085.32H528.753L508.639 1050.37L528.753 1015.41Z" fill="#2E8049"/>
<path d="M554.309 1116.68L533.879 1171.37L540.192 1173.77L560.635 1119.08L554.309 1116.68Z" fill="#2E8049"/>
<path d="M569.978 1145.5L558.766 1156.74L563.576 1161.56L579.613 1145.5L563.576 1129.41L558.766 1134.23L569.978 1145.5Z" fill="#2E8049"/>
<path d="M536.316 1156.78L525.09 1145.51L536.316 1134.27L531.48 1129.45L515.469 1145.5L531.48 1161.59L536.316 1156.78Z" fill="#2E8049"/>
<path d="M573.389 1187.85L597.911 1145.26L573.389 1102.67H524.334L499.812 1145.26L524.334 1187.85H573.389ZM528.753 1110.3H568.97L589.097 1145.26L568.97 1180.21H528.753L508.639 1145.26L528.753 1110.3Z" fill="#2E8049"/>
<path d="M636.004 688.938L615.574 743.624L621.888 746.024L642.331 691.337L636.004 688.938Z" fill="#2E8049"/>
<path d="M651.674 717.797L640.461 729.037L645.272 733.862L661.321 717.797L645.272 701.694L640.461 706.518L651.674 717.797Z" fill="#2E8049"/>
<path d="M618.035 729.037L606.809 717.771L618.035 706.518L613.198 701.694L597.188 717.771L613.198 733.862L618.035 729.037Z" fill="#2E8049"/>
<path d="M655.085 760.093L679.606 717.506L655.085 674.919H606.029L581.508 717.506L606.029 760.093H655.085ZM610.461 682.56H650.678L670.881 717.506L650.678 752.465H610.461L590.359 717.506L610.461 682.56Z" fill="#2E8049"/>
<path d="M636.004 783.824L615.574 838.511L621.888 840.91L642.331 786.224L636.004 783.824Z" fill="#2E8049"/>
<path d="M651.674 812.683L640.461 823.924L645.272 828.748L661.321 812.683L645.272 796.58L640.461 801.405L651.674 812.683Z" fill="#2E8049"/>
<path d="M618.035 823.924L606.809 812.658L618.035 801.405L613.198 796.58L597.188 812.658L613.198 828.748L618.035 823.924Z" fill="#2E8049"/>
<path d="M655.085 855.018L679.606 812.418L655.085 769.831H606.029L581.508 812.418L606.029 855.018H655.085ZM610.449 777.472H650.665L670.868 812.418L650.665 847.377H610.461L590.359 812.418L610.449 777.472Z" fill="#2E8049"/>
<path d="M636.004 878.711L615.574 933.398L621.888 935.797L642.331 881.111L636.004 878.711Z" fill="#2E8049"/>
<path d="M651.674 907.57L640.461 918.81L645.272 923.635L661.321 907.57L645.272 891.467L640.461 896.304L651.674 907.57Z" fill="#2E8049"/>
<path d="M618.035 918.81L606.809 907.545L618.035 896.304L613.198 891.467L597.188 907.545L613.198 923.635L618.035 918.81Z" fill="#2E8049"/>
<path d="M655.085 949.879L679.606 907.279L655.085 864.692H606.029L581.508 907.279L606.029 949.879H655.085ZM610.449 872.333H650.665L670.868 907.279L650.665 942.238H610.461L590.359 907.279L610.449 872.333Z" fill="#2E8049"/>
<path d="M636.004 973.598L615.574 1028.28L621.888 1030.68L642.331 975.997L636.004 973.598Z" fill="#2E8049"/>
<path d="M651.674 1002.46L640.461 1013.7L645.272 1018.52L661.321 1002.46L645.272 986.366L640.461 991.191L651.674 1002.46Z" fill="#2E8049"/>
<path d="M618.035 1013.7L606.809 1002.43L618.035 991.191L613.198 986.366L597.188 1002.43L613.198 1018.52L618.035 1013.7Z" fill="#2E8049"/>
<path d="M655.085 1044.77L679.606 1002.18L655.085 959.579H606.029L581.508 1002.18L606.029 1044.77H655.085ZM610.449 967.22H650.665L670.868 1002.18L650.665 1037.12H610.461L590.359 1002.18L610.449 967.22Z" fill="#2E8049"/>
<path d="M636.004 1068.46L615.574 1123.15L621.888 1125.55L642.331 1070.86L636.004 1068.46Z" fill="#2E8049"/>
<path d="M651.674 1097.34L640.461 1108.58L645.272 1113.41L661.321 1097.34L645.272 1081.25L640.461 1086.08L651.674 1097.34Z" fill="#2E8049"/>
<path d="M618.035 1108.58L606.809 1097.32L618.035 1086.08L613.198 1081.25L597.188 1097.32L613.198 1113.41L618.035 1108.58Z" fill="#2E8049"/>
<path d="M655.085 1139.65L679.606 1097.07L655.085 1054.47H606.029L581.508 1097.07L606.029 1139.65H655.085ZM610.461 1062.14H650.678L670.881 1097.1L650.678 1132.05H610.461L590.359 1097.1L610.461 1062.14Z" fill="#2E8049"/>
<path d="M717.7 737.133L697.27 791.819L703.583 794.219L724.026 739.532L717.7 737.133Z" fill="#2E8049"/>
<path d="M733.369 765.991L722.156 777.232L726.967 782.056L743.041 765.991L726.992 749.889L722.182 754.713L733.369 765.991Z" fill="#2E8049"/>
<path d="M699.706 777.232L688.481 765.966L699.706 754.713L694.87 749.889L678.859 765.966L694.87 782.056L699.706 777.232Z" fill="#2E8049"/>
<path d="M736.73 808.288L761.251 765.688L736.73 723.114H687.737L663.203 765.701L687.737 808.288H736.73ZM692.093 730.742H732.31L752.513 765.688L732.31 800.647H692.093L671.991 765.688L692.093 730.742Z" fill="#2E8049"/>
<path d="M717.7 832.019L697.27 886.706L703.583 889.105L724.026 834.419L717.7 832.019Z" fill="#2E8049"/>
<path d="M733.369 860.878L722.156 872.118L726.967 876.943L743.016 860.878L726.967 844.775L722.156 849.612L733.369 860.878Z" fill="#2E8049"/>
<path d="M699.706 872.118L688.481 860.853L699.706 849.612L694.87 844.775L678.859 860.853L694.87 876.943L699.706 872.118Z" fill="#2E8049"/>
<path d="M736.73 903.187L761.251 860.588L736.73 818H687.737L663.203 860.588L687.737 903.187H736.73ZM692.093 825.641H732.31L752.513 860.588L732.31 895.546H692.093L671.991 860.588L692.093 825.641Z" fill="#2E8049"/>
<path d="M717.7 926.906L697.27 981.592L703.583 983.992L724.026 929.306L717.7 926.906Z" fill="#2E8049"/>
<path d="M733.369 955.765L722.156 967.005L726.967 971.83L743.016 955.765L726.967 939.637L722.156 944.461L733.369 955.765Z" fill="#2E8049"/>
<path d="M699.706 967.005L688.481 955.739L699.706 944.499L694.87 939.675L678.859 955.739L694.87 971.83L699.706 967.005Z" fill="#2E8049"/>
<path d="M736.73 998.074L761.251 955.487L736.73 912.887H687.737L663.203 955.487L687.737 998.074H736.73ZM692.093 920.528H732.31L752.513 955.487L732.31 990.433H692.093L671.991 955.487L692.093 920.528Z" fill="#2E8049"/>
<path d="M717.7 1021.79L697.27 1076.48L703.583 1078.88L724.102 1024.26L717.7 1021.79Z" fill="#2E8049"/>
<path d="M733.369 1050.65L722.156 1061.89L726.967 1066.72L743.041 1050.65L726.992 1034.56L722.182 1039.39L733.369 1050.65Z" fill="#2E8049"/>
<path d="M699.706 1061.89L688.481 1050.63L699.706 1039.39L694.87 1034.56L678.859 1050.63L694.87 1066.72L699.706 1061.89Z" fill="#2E8049"/>
<path d="M736.73 1092.96L761.251 1050.37L736.73 1007.84H687.737L663.203 1050.44L687.737 1093.02L736.73 1092.96ZM692.093 1015.41H732.31L752.513 1050.37L732.31 1085.32H692.093L671.991 1050.37L692.093 1015.41Z" fill="#2E8049"/>
<path d="M799.395 783.824L778.965 838.511L785.278 840.91L805.721 786.224L799.395 783.824Z" fill="#2E8049"/>
<path d="M815.017 812.683L803.805 823.924L808.616 828.748L824.664 812.683L808.704 796.58L803.893 801.405L815.017 812.683Z" fill="#2E8049"/>
<path d="M781.402 823.924L770.176 812.658L781.402 801.405L776.578 796.58L760.555 812.658L776.578 828.748L781.402 823.924Z" fill="#2E8049"/>
<path d="M818.474 855.018L842.996 812.418L818.474 769.831H769.432L744.91 812.418L769.432 855.018H818.474ZM773.838 777.472H814.055L834.258 812.418L814.055 847.377H773.838L753.736 812.418L773.838 777.472Z" fill="#2E8049"/>
<path d="M799.395 878.711L778.965 933.398L785.278 935.797L805.721 881.111L799.395 878.711Z" fill="#2E8049"/>
<path d="M815.017 907.57L803.805 918.81L808.616 923.635L824.664 907.57L808.704 891.467L803.893 896.304L815.017 907.57Z" fill="#2E8049"/>
<path d="M781.402 918.81L770.176 907.545L781.402 896.304L776.578 891.467L760.555 907.545L776.578 923.635L781.402 918.81Z" fill="#2E8049"/>
<path d="M818.474 949.879L842.996 907.279L818.474 864.692H769.432L744.91 907.279L769.432 949.879H818.474ZM773.838 872.333H814.055L834.258 907.279L814.055 942.238H773.838L753.736 907.279L773.838 872.333Z" fill="#2E8049"/>
<path d="M799.395 973.598L778.965 1028.28L785.278 1030.68L805.721 975.997L799.395 973.598Z" fill="#2E8049"/>
<path d="M815.017 1002.46L803.805 1013.7L808.616 1018.52L824.664 1002.46L808.704 986.366L803.893 991.191L815.017 1002.46Z" fill="#2E8049"/>
<path d="M781.402 1013.7L770.176 1002.43L781.402 991.191L776.578 986.366L760.555 1002.43L776.578 1018.52L781.402 1013.7Z" fill="#2E8049"/>
<path d="M818.474 1044.77L842.996 1002.18L818.474 959.579H769.432L744.91 1002.18L769.432 1044.77H818.474ZM773.838 967.22H814.055L834.258 1002.18L814.055 1037.12H773.838L753.736 1002.18L773.838 967.22Z" fill="#2E8049"/>
<path d="M881.094 737.133L860.664 791.819L867.053 794.219L887.484 739.532L881.094 737.133Z" fill="#2E8049"/>
<path d="M896.763 765.991L885.551 777.232L890.362 782.056L906.41 765.991L890.362 749.889L885.551 754.713L896.763 765.991Z" fill="#2E8049"/>
<path d="M863.11 777.232L851.872 765.966L863.11 754.713L858.274 749.889L842.25 765.966L858.274 782.056L863.11 777.232Z" fill="#2E8049"/>
<path d="M900.174 808.288L924.695 765.688L900.174 723.101H851.131L826.609 765.688L851.131 808.288H900.174ZM855.537 730.742H895.754L915.957 765.688L895.754 800.647H855.537L835.436 765.688L855.537 730.742Z" fill="#2E8049"/>
<path d="M881.094 832.019L860.664 886.706L867.053 889.105L887.484 834.419L881.094 832.019Z" fill="#2E8049"/>
<path d="M896.763 860.878L885.551 872.118L890.362 876.943L906.41 860.878L890.362 844.775L885.551 849.612L896.763 860.878Z" fill="#2E8049"/>
<path d="M863.11 872.118L851.872 860.853L863.11 849.612L858.274 844.775L842.25 860.853L858.274 876.943L863.11 872.118Z" fill="#2E8049"/>
<path d="M900.174 903.187L924.695 860.588L900.174 818H851.131L826.609 860.588L851.131 903.187H900.174ZM855.537 825.641H895.754L915.957 860.588L895.754 895.546H855.537L835.436 860.588L855.537 825.641Z" fill="#2E8049"/>
<path d="M881.094 926.906L860.664 981.592L867.053 983.992L887.484 929.306L881.094 926.906Z" fill="#2E8049"/>
<path d="M896.763 955.765L885.551 967.005L890.362 971.83L906.41 955.765L890.362 939.637L885.551 944.461L896.763 955.765Z" fill="#2E8049"/>
<path d="M863.11 967.005L851.872 955.739L863.11 944.499L858.274 939.675L842.25 955.739L858.274 971.83L863.11 967.005Z" fill="#2E8049"/>
<path d="M900.174 998.074L924.695 955.487L900.174 912.887H851.131L826.609 955.487L851.131 998.074H900.174ZM855.537 920.528H895.754L915.957 955.487L895.754 990.433H855.537L835.436 955.487L855.537 920.528Z" fill="#2E8049"/>
<path d="M962.751 688.938L942.309 743.624L948.698 746.024L969.128 691.337L962.751 688.938Z" fill="#2E8049"/>
<path d="M978.459 717.797L967.246 729.037L972.057 733.862L988.106 717.797L972.057 701.694L967.246 706.518L978.459 717.797Z" fill="#2E8049"/>
<path d="M944.809 729.037L933.571 717.771L944.809 706.518L940.023 701.694L924 717.771L940.023 733.862L944.809 729.037Z" fill="#2E8049"/>
<path d="M981.869 760.093L1006.39 717.506L981.869 674.919H932.826L908.305 717.506L932.826 760.093H981.869ZM937.233 682.56H977.45L997.589 717.506L977.45 752.465H937.233L917.131 717.506L937.233 682.56Z" fill="#2E8049"/>
<path d="M962.751 783.824L942.309 838.511L948.698 840.91L969.128 786.224L962.751 783.824Z" fill="#2E8049"/>
<path d="M978.459 812.683L967.246 823.924L972.057 828.748L988.106 812.683L972.057 796.58L967.246 801.405L978.459 812.683Z" fill="#2E8049"/>
<path d="M944.809 823.924L933.571 812.658L944.809 801.405L939.973 796.58L923.949 812.658L940.023 828.748L944.809 823.924Z" fill="#2E8049"/>
<path d="M981.869 855.018L1006.39 812.418L981.869 769.831H932.826L908.305 812.418L932.826 855.018H981.869ZM937.233 777.472H977.45L997.589 812.418L977.45 847.377H937.233L917.131 812.418L937.233 777.472Z" fill="#2E8049"/>
<path d="M962.751 878.711L942.309 933.398L948.698 935.797L969.128 881.111L962.751 878.711Z" fill="#2E8049"/>
<path d="M978.459 907.57L967.246 918.81L972.057 923.635L988.106 907.57L972.057 891.467L967.246 896.304L978.459 907.57Z" fill="#2E8049"/>
<path d="M944.809 918.81L933.571 907.545L944.809 896.304L939.973 891.467L923.949 907.545L939.973 923.635L944.809 918.81Z" fill="#2E8049"/>
<path d="M981.869 949.879L1006.39 907.279L981.869 864.692H932.826L908.305 907.279L932.826 949.879H981.869ZM937.233 872.333H977.45L997.589 907.279L977.45 942.238H937.233L917.131 907.279L937.233 872.333Z" fill="#2E8049"/>
<path d="M962.751 973.598L942.309 1028.28L948.698 1030.68L969.128 975.997L962.751 973.598Z" fill="#2E8049"/>
<path d="M978.459 1002.46L967.246 1013.7L972.057 1018.52L988.106 1002.46L972.057 986.366L967.246 991.191L978.459 1002.46Z" fill="#2E8049"/>
<path d="M944.809 1013.7L933.571 1002.43L944.809 991.191L940.023 986.366L924 1002.43L940.023 1018.52L944.809 1013.7Z" fill="#2E8049"/>
<path d="M981.869 1044.77L1006.39 1002.18L981.869 959.579H932.826L908.305 1002.18L932.826 1044.77H981.869ZM937.233 967.22H977.45L997.589 1002.18L977.45 1037.12H937.233L917.131 1002.18L937.233 967.22Z" fill="#2E8049"/>
<path d="M1044.5 737.133L1024.05 791.819L1030.44 794.219L1050.87 739.532L1044.5 737.133Z" fill="#2E8049"/>
<path d="M1060.15 765.991L1048.94 777.232L1053.75 782.056L1069.8 765.991L1053.75 749.889L1048.94 754.713L1060.15 765.991Z" fill="#2E8049"/>
<path d="M1026.51 777.232L1015.27 765.966L1026.51 754.713L1021.67 749.889L1005.68 765.966L1021.71 782.056L1026.51 777.232Z" fill="#2E8049"/>
<path d="M1063.56 808.288L1088.09 765.688L1063.56 723.101H1014.52L990 765.688L1014.52 808.288H1063.56ZM1018.94 730.742H1059.16L1079.28 765.688L1059.16 800.71H1018.94L998.826 765.751L1018.94 730.742Z" fill="#2E8049"/>
<path d="M1044.5 832.019L1024.05 886.706L1030.44 889.105L1050.87 834.419L1044.5 832.019Z" fill="#2E8049"/>
<path d="M1060.15 860.878L1048.94 872.118L1053.75 876.943L1069.8 860.878L1053.75 844.775L1048.94 849.612L1060.15 860.878Z" fill="#2E8049"/>
<path d="M1026.51 872.118L1015.27 860.853L1026.51 849.612L1021.67 844.775L1005.68 860.853L1021.71 876.943L1026.51 872.118Z" fill="#2E8049"/>
<path d="M1063.56 903.187L1088.09 860.588L1063.56 818H1014.52L990 860.588L1014.52 903.187H1063.56ZM1018.94 825.641H1059.16L1079.28 860.588L1059.16 895.546H1018.94L998.826 860.588L1018.94 825.641Z" fill="#2E8049"/>
<path d="M1126.19 594.039L1105.75 648.725L1112.14 651.137L1132.58 596.451L1126.19 594.039Z" fill="#2E8049"/>
<path d="M1141.85 622.897L1130.64 634.15L1135.45 638.975L1151.5 622.897L1135.45 606.807L1130.64 611.632L1141.85 622.897Z" fill="#2E8049"/>
<path d="M1108.2 634.15L1096.96 622.885L1108.2 611.632L1103.36 606.807L1087.34 622.885L1103.36 638.975L1108.2 634.15Z" fill="#2E8049"/>
<path d="M1145.26 665.207L1169.83 622.632L1145.31 580.045H1096.22L1071.7 622.632L1096.22 665.219L1145.26 665.207ZM1100.64 587.673H1140.85L1160.99 622.632L1140.87 657.591H1100.64L1080.52 622.632L1100.64 587.673Z" fill="#2E8049"/>
<path d="M1126.19 688.938L1105.75 743.624L1112.14 746.024L1132.58 691.337L1126.19 688.938Z" fill="#2E8049"/>
<path d="M1141.85 717.797L1130.64 729.037L1135.45 733.862L1151.5 717.797L1135.45 701.694L1130.64 706.518L1141.85 717.797Z" fill="#2E8049"/>
<path d="M1108.2 729.037L1096.96 717.771L1108.2 706.518L1103.36 701.694L1087.34 717.771L1103.36 733.862L1108.2 729.037Z" fill="#2E8049"/>
<path d="M1145.26 760.093L1169.83 717.506L1145.31 674.919H1096.22L1071.7 717.506L1096.22 760.093H1145.26ZM1100.64 682.56H1140.85L1160.99 717.506L1140.87 752.465H1100.64L1080.52 717.506L1100.64 682.56Z" fill="#2E8049"/>
<path d="M1126.19 783.824L1105.75 838.511L1112.14 840.91L1132.58 786.224L1126.19 783.824Z" fill="#2E8049"/>
<path d="M1141.85 812.683L1130.64 823.924L1135.45 828.748L1151.5 812.683L1135.45 796.58L1130.64 801.405L1141.85 812.683Z" fill="#2E8049"/>
<path d="M1108.2 823.924L1096.96 812.658L1108.2 801.405L1103.36 796.58L1087.34 812.658L1103.36 828.748L1108.2 823.924Z" fill="#2E8049"/>
<path d="M1145.26 855.018L1169.78 812.418L1145.26 769.831H1096.22L1071.7 812.418L1096.22 855.018H1145.26ZM1100.64 777.472H1140.85L1160.98 812.418L1140.85 847.377H1100.64L1080.52 812.418L1100.64 777.472Z" fill="#2E8049"/>
<path d="M1126.19 878.711L1105.75 933.398L1112.14 935.797L1132.58 881.111L1126.19 878.711Z" fill="#2E8049"/>
<path d="M1141.85 907.57L1130.64 918.81L1135.45 923.635L1151.5 907.57L1135.45 891.467L1130.64 896.304L1141.85 907.57Z" fill="#2E8049"/>
<path d="M1108.2 918.81L1096.96 907.545L1108.2 896.304L1103.36 891.467L1087.34 907.545L1103.36 923.635L1108.2 918.81Z" fill="#2E8049"/>
<path d="M1145.26 949.879L1169.78 907.279L1145.26 864.692H1096.22L1071.7 907.279L1096.22 949.879H1145.26ZM1100.64 872.333H1140.85L1160.98 907.279L1140.85 942.238H1100.64L1080.52 907.279L1100.64 872.333Z" fill="#2E8049"/>
<path d="M1207.89 167.8L1187.51 222.486L1193.9 224.886L1214.34 170.199L1207.89 167.8Z" fill="#2E8049"/>
<path d="M1223.55 196.659L1212.35 207.899L1217.16 212.724L1233.19 196.659L1217.16 180.594L1212.35 185.418L1223.55 196.659Z" fill="#2E8049"/>
<path d="M1189.89 207.899L1178.66 196.633L1189.89 185.393L1185.06 180.568L1169.04 196.633L1185.06 212.724L1189.89 207.899Z" fill="#2E8049"/>
<path d="M1226.96 238.968L1251.48 196.381L1226.96 153.794H1177.91L1153.42 196.381L1177.94 238.968H1226.96ZM1182.33 161.422H1222.55L1242.68 196.381L1222.55 231.327H1182.33L1162.26 196.381L1182.33 161.422Z" fill="#2E8049"/>
<path d="M1207.89 262.687L1187.51 317.373L1193.9 319.773L1214.34 265.086L1207.89 262.687Z" fill="#2E8049"/>
<path d="M1223.55 291.545L1212.35 302.786L1217.16 307.623L1233.19 291.545L1217.16 275.455L1212.35 280.28L1223.55 291.545Z" fill="#2E8049"/>
<path d="M1189.89 302.786L1178.66 291.52L1189.89 280.28L1185.06 275.455L1169.04 291.52L1185.06 307.623L1189.89 302.786Z" fill="#2E8049"/>
<path d="M1226.96 333.855L1251.48 291.267L1226.96 248.68H1177.91L1153.42 291.267L1177.94 333.855H1226.96ZM1182.33 256.372H1222.55L1242.68 291.331L1222.55 326.277H1182.33L1162.26 291.267L1182.33 256.372Z" fill="#2E8049"/>
<path d="M1207.89 357.573L1187.51 412.26L1193.9 414.659L1214.28 359.935L1207.89 357.573Z" fill="#2E8049"/>
<path d="M1223.55 386.457L1212.35 397.71L1217.16 402.535L1233.19 386.457L1217.16 370.367L1212.35 375.192L1223.55 386.457Z" fill="#2E8049"/>
<path d="M1207.89 452.46L1187.51 507.146L1193.9 509.546L1214.34 454.86L1207.89 452.46Z" fill="#2E8049"/>
<path d="M1223.55 481.319L1212.35 492.572L1217.16 497.396L1233.19 481.319L1217.16 465.229L1212.35 470.053L1223.55 481.319Z" fill="#2E8049"/>
<path d="M1207.89 547.347L1187.51 602.033L1193.9 604.445L1214.34 549.759L1207.89 547.347Z" fill="#2E8049"/>
<path d="M1223.55 576.205L1212.35 587.458L1217.16 592.283L1233.19 576.205L1217.16 560.115L1212.35 564.94L1223.55 576.205Z" fill="#2E8049"/>
<path d="M1189.89 587.458L1178.66 576.193L1189.89 564.94L1185.06 560.115L1169.04 576.193L1185.06 592.321L1189.89 587.458Z" fill="#2E8049"/>
<path d="M1226.96 618.515L1251.48 575.902L1226.96 533.315H1177.91L1153.42 575.902L1177.94 618.49L1226.96 618.515ZM1182.33 540.981H1222.55L1242.68 575.902L1222.55 610.861H1182.33L1162.26 575.902L1182.33 540.981Z" fill="#2E8049"/>
<path d="M1207.89 642.246L1187.51 696.92L1193.9 699.332L1214.34 644.646L1207.89 642.246Z" fill="#2E8049"/>
<path d="M1223.55 671.105L1212.35 682.345L1217.16 687.17L1233.19 671.105L1217.16 655.002L1212.35 659.826L1223.55 671.105Z" fill="#2E8049"/>
<path d="M1189.89 682.345L1178.66 671.079L1189.89 659.826L1185.06 655.002L1169.04 671.079L1185.06 687.17L1189.89 682.345Z" fill="#2E8049"/>
<path d="M1226.96 713.402L1251.48 670.814L1226.96 628.227H1177.91L1153.42 670.814L1177.94 713.402H1226.96ZM1182.33 635.868H1222.55L1242.68 670.814L1222.55 705.773H1182.33L1162.26 670.814L1182.33 635.868Z" fill="#2E8049"/>
<path d="M1207.89 737.133L1187.51 791.87L1193.9 794.269L1214.34 739.583L1207.89 737.133Z" fill="#2E8049"/>
<path d="M1223.55 765.991L1212.35 777.232L1217.16 782.056L1233.19 765.991L1217.16 749.889L1212.35 754.713L1223.55 765.991Z" fill="#2E8049"/>
<path d="M1189.89 777.232L1178.66 765.966L1189.89 754.713L1185.06 749.889L1169.04 765.966L1185.06 782.056L1189.89 777.232Z" fill="#2E8049"/>
<path d="M1226.96 808.288L1251.48 765.688L1226.96 723.101H1177.91L1153.42 765.701L1177.91 808.288H1226.96ZM1182.33 730.742H1222.55L1242.68 765.688L1222.55 800.71H1182.33L1162.26 765.701L1182.33 730.742Z" fill="#2E8049"/>
<path d="M1207.89 832.019L1187.45 886.706L1193.83 889.105L1214.28 834.419L1207.89 832.019Z" fill="#2E8049"/>
<path d="M1223.55 860.878L1212.35 872.118L1217.16 876.943L1233.19 860.878L1217.16 844.775L1212.35 849.612L1223.55 860.878Z" fill="#2E8049"/>
<path d="M1189.89 872.118L1178.66 860.853L1189.89 849.612L1185.06 844.775L1169.04 860.853L1185.06 876.943L1189.89 872.118Z" fill="#2E8049"/>
<path d="M1226.96 903.187L1251.48 860.588L1226.96 818H1177.91L1153.42 860.588L1177.94 903.187H1226.96ZM1182.33 825.641H1222.55L1242.68 860.588L1222.55 895.546H1182.33L1162.26 860.588L1182.33 825.641Z" fill="#2E8049"/>
<path d="M1289.58 119.605L1269.14 174.279L1275.53 176.679L1295.97 121.992L1289.58 119.605Z" fill="#2E8049"/>
<path d="M1305.24 148.464L1294.04 159.705L1298.85 164.529L1314.89 148.464L1298.85 132.374L1294.04 137.199L1305.24 148.464Z" fill="#2E8049"/>
<path d="M1271.59 159.705L1260.35 148.439L1271.59 137.199L1266.75 132.374L1250.73 148.439L1266.75 164.529L1271.59 159.705Z" fill="#2E8049"/>
<path d="M1308.65 190.773L1333.18 148.186L1308.65 105.586H1259.61L1235.09 148.186L1259.61 190.773H1308.65ZM1264.03 113.227H1304.24L1324.37 148.186L1304.24 183.119H1264.03L1243.91 148.173L1264.03 113.227Z" fill="#2E8049"/>
<path d="M1289.58 214.492L1269.14 269.179L1275.53 271.578L1295.97 216.892L1289.58 214.492Z" fill="#2E8049"/>
<path d="M1305.24 243.35L1294.04 254.591L1298.85 259.415L1314.89 243.35L1298.85 227.323L1294.04 232.148L1305.24 243.35Z" fill="#2E8049"/>
<path d="M1271.59 254.591L1260.35 243.326L1271.59 232.085L1266.75 227.261L1250.73 243.326L1266.75 259.416L1271.59 254.591Z" fill="#2E8049"/>
<path d="M1308.65 285.66L1333.18 243.073L1308.65 200.485H1259.61L1235.09 243.073L1259.61 285.66H1308.65ZM1264.03 208.114H1304.24L1324.37 243.073L1304.24 278.019H1264.03L1243.91 243.073L1264.03 208.114Z" fill="#2E8049"/>
<path d="M1289.58 309.417L1269.14 364.103L1275.53 366.503L1295.97 311.816L1289.58 309.417Z" fill="#2E8049"/>
<path d="M1305.24 338.237L1294.04 349.478L1298.85 354.315L1314.89 338.237L1298.85 322.147L1294.04 326.972L1305.24 338.237Z" fill="#2E8049"/>
<path d="M1271.59 349.478L1260.35 338.212L1271.59 326.972L1266.75 322.147L1250.73 338.212L1266.75 354.315L1271.59 349.478Z" fill="#2E8049"/>
<path d="M1308.65 380.547L1333.18 337.959L1308.65 295.372H1259.61L1235.09 337.959L1259.61 380.547H1308.65ZM1264.03 303H1304.24L1324.37 337.959L1304.24 372.906H1264.03L1243.91 337.959L1264.03 303Z" fill="#2E8049"/>
<path d="M1371.28 72.9131L1350.85 127.549L1357.23 129.949L1377.66 75.2622L1371.28 72.9131Z" fill="#2E8049"/>
<path d="M1386.94 101.772L1375.73 113.012L1380.54 117.837L1396.59 101.772L1380.54 85.6816L1375.73 90.5062L1386.94 101.772Z" fill="#2E8049"/>
<path d="M1353.29 113.012L1342.06 101.747L1353.29 90.5062L1348.45 85.6816L1332.44 101.747L1348.45 117.837L1353.29 113.012Z" fill="#2E8049"/>
<path d="M1390.35 144.082L1414.87 101.494L1390.35 58.8945H1341.3L1316.78 101.494L1341.3 144.082H1390.35ZM1345.72 66.5355H1385.94L1406.07 101.494L1385.94 136.39H1345.72L1325.61 101.444L1345.72 66.5355Z" fill="#2E8049"/>
</g>
</svg>
