<svg width="256" height="221" viewBox="0 0 256 221" fill="none" xmlns="http://www.w3.org/2000/svg">
<path d="M229 94L256 47.0002L229 0H175L148 47.0002L175 94H229Z" fill="#42C66E"/>
<path d="M161 218.695H162.221L162.831 217.636L214.831 127.346L215.438 126.291L214.831 125.237L162.831 34.9456L162.221 33.8872H161H57H55.7786L55.1691 34.9456L3.16911 125.237L2.56185 126.291L3.16912 127.346L55.1691 217.636L55.7786 218.695H57H161Z" stroke="#1D2332" stroke-width="4.22562"/>
<g clip-path="url(#clip0_2275_3101)">
<path d="M166.375 154.822C165.016 153.734 163.476 153.643 161.303 154.187C161.393 153.734 161.484 153.19 161.484 152.737C161.393 151.65 160.941 149.927 159.039 148.477C157.861 147.571 156.322 147.48 154.42 147.933V139.051C154.42 131.166 148.805 124.459 141.016 123.1L129.061 121.015C125.982 120.471 123.537 118.205 122.812 115.214L121.907 111.589C127.884 106.785 131.778 98.6284 131.778 89.293C131.778 75.6072 122.812 66.4531 109.499 66.4531C96.1859 66.4531 87.2199 75.6072 87.2199 89.293C87.2199 98.5377 91.1142 106.695 97.0916 111.498L96.1859 115.124C95.4614 118.115 93.0161 120.381 89.9369 120.924L77.9821 123.009C70.1935 124.369 64.5784 131.075 64.5784 138.961V143.946H51.1746C50.1784 143.946 49.3633 144.761 49.3633 145.758V178.296C49.3633 179.293 50.1784 180.109 51.1746 180.109H66.118C68.3821 180.834 83.7784 185.637 103.703 185.637C122.269 185.637 144.82 181.468 164.201 166.06C164.654 165.788 168.458 163.069 168.639 159.444C168.729 158.266 168.367 156.453 166.375 154.822ZM64.5784 176.483H52.9859V147.571H64.5784V176.483ZM156.865 151.287C157.861 152.012 157.861 152.646 157.861 152.828C157.861 153.734 157.137 155.003 155.869 156.181C155.507 156.362 155.054 156.544 154.692 156.725C149.801 158.81 142.918 161.71 133.318 164.157C133.499 163.523 133.59 162.979 133.68 162.435C133.771 161.438 133.68 160.532 133.59 159.625C139.295 157.994 144.276 155.909 148.261 154.187C151.522 152.737 156.05 150.743 156.865 151.287ZM130.058 124.822L140.473 126.634C146.541 127.722 150.888 132.888 150.888 139.051V149.112C149.62 149.565 148.261 150.199 146.812 150.834C142.827 152.556 137.937 154.64 132.322 156.181C132.05 155.637 131.688 155.184 131.235 154.822C128.699 152.284 125.167 152.465 125.076 152.465C118.737 152.556 114.39 152.375 111.31 152.012V130.985L118.827 137.601C119.19 137.873 119.552 138.054 120.005 138.054C120.095 138.054 120.186 138.054 120.186 138.054C120.729 137.964 121.182 137.692 121.454 137.239L130.058 124.822ZM109.59 124.822L99.1746 117.843C99.4463 117.299 99.6274 116.665 99.8086 116.03L100.443 113.583C103.25 115.124 106.329 116.03 109.68 116.03C112.941 116.03 116.02 115.124 118.827 113.583L119.461 116.03C119.643 116.665 119.824 117.208 120.095 117.843L109.59 124.822ZM121.907 120.924C123.084 122.284 124.624 123.281 126.254 123.915L119.643 133.613L112.397 127.269L121.907 120.924ZM90.8425 89.293C90.8425 86.3927 91.2954 83.7643 92.1105 81.4078C94.8274 82.858 100.171 85.0332 107.869 85.0332C111.854 85.0332 116.473 84.3987 121.726 82.858C122.722 82.5861 123.175 81.5891 122.903 80.5921C122.631 79.5951 121.635 79.0513 120.639 79.4139C106.148 83.8549 96.9104 79.9577 93.5595 78.145C96.7293 72.9788 102.254 69.9879 109.409 69.9879C120.729 69.9879 128.065 77.5105 128.065 89.293C128.065 102.072 119.643 112.495 109.409 112.495C99.2652 112.405 90.8425 102.072 90.8425 89.293ZM97.0916 120.924L106.51 127.269L99.2652 133.613L92.6538 123.915C94.4652 123.281 95.9142 122.193 97.0916 120.924ZM68.201 138.961C68.201 132.798 72.5482 127.631 78.6161 126.544L89.0312 124.731L97.5444 137.239C97.8161 137.692 98.2689 137.964 98.8123 138.054C98.9029 138.054 98.9935 138.054 99.084 138.054C99.5369 138.054 99.8991 137.873 100.261 137.601L107.778 130.985V151.378C105.243 150.743 103.884 150.018 102.435 149.112C98.4501 146.755 93.8312 144.127 68.201 143.946V138.961ZM162.118 163.16C125.167 192.435 76.5331 179.474 68.201 176.937V147.571C92.835 147.752 97.001 150.109 100.624 152.284C104.337 154.459 107.597 156.362 125.258 156.091C125.258 156.091 127.341 156 128.699 157.359C129.695 158.356 130.148 159.988 129.967 162.163C129.967 162.707 129.876 164.338 126.616 165.607C126.616 165.607 126.526 165.607 126.526 165.698C123.175 167.057 115.658 168.145 99.3557 166.06C98.3595 165.879 97.4538 166.604 97.3633 167.601C97.2727 168.598 97.9067 169.504 98.9029 169.595C105.061 170.411 110.495 170.773 115.024 170.773C120.367 170.773 124.624 170.23 127.612 169.051C141.016 166.423 149.982 162.526 155.96 159.988C159.673 158.447 163.114 156.906 163.929 157.541C164.835 158.266 164.926 158.9 164.926 159.263C164.926 160.804 162.843 162.616 162.118 163.16Z" fill="#1D2332" stroke="#1D2332" stroke-width="0.8504" stroke-miterlimit="10"/>
<path d="M58.784 155.365C59.7802 155.365 60.5953 154.55 60.5953 153.553C60.5953 152.556 59.7802 151.74 58.784 151.74C57.7878 151.74 56.9727 152.556 56.9727 153.553C56.9727 154.55 57.7878 155.365 58.784 155.365Z" fill="#1D2332" stroke="#1D2332" stroke-width="0.8504" stroke-miterlimit="10"/>
</g>
<defs>
<clipPath id="clip0_2275_3101">
<rect width="120" height="120" fill="white" transform="translate(49 66)"/>
</clipPath>
</defs>
</svg>
