<svg width="234" height="229" viewBox="0 0 234 229" fill="none" xmlns="http://www.w3.org/2000/svg">
<path d="M81 229L108 182L81 135H27L0 182L27 229H81Z" fill="#42C66E"/>
<path d="M177 187.695H178.221L178.831 186.636L230.831 96.3457L231.438 95.2912L230.831 94.2368L178.831 3.94557L178.221 2.88719H177H73H71.7786L71.1691 3.94557L19.1691 94.2368L18.5619 95.2912L19.1691 96.3457L71.1691 186.636L71.7786 187.695H73H177Z" stroke="#1D2332" stroke-width="4.22562"/>
<g clip-path="url(#clip0_2275_3102)">
<path d="M146.385 107.271C145.589 106.74 144.527 106.917 143.996 107.802C140.544 113.023 134.88 116.563 128.685 117.449L128.95 113.997L119.48 118.688L128.242 124.529L128.508 120.989C135.942 120.104 142.845 116.032 147.005 109.749C147.447 108.952 147.27 107.802 146.385 107.271Z" fill="#1D2332" stroke="#1D2332" stroke-width="0.5669" stroke-miterlimit="10" stroke-linecap="round" stroke-linejoin="round"/>
<path d="M150.985 92.5794C150.1 85.1452 146.029 78.242 139.746 74.0824C138.949 73.5514 137.798 73.7284 137.267 74.6134C136.736 75.4099 136.913 76.5604 137.798 77.0915C143.02 80.5431 146.56 86.2072 147.445 92.4024L143.994 92.1368L148.684 101.607L154.525 92.8449L150.985 92.5794Z" fill="#1D2332" stroke="#1D2332" stroke-width="0.5669" stroke-miterlimit="10" stroke-linecap="round" stroke-linejoin="round"/>
<path d="M104.612 83.7291C104.877 83.9061 105.231 83.9946 105.585 83.9946C106.117 83.9946 106.736 83.7291 107.09 83.1981C110.542 77.9765 116.206 74.4364 122.401 73.5514L122.135 77.003L131.605 72.4008L122.843 66.5597L122.578 70.0998C115.144 70.9848 108.241 75.0559 104.081 81.3396C103.55 82.1361 103.815 83.1981 104.612 83.7291Z" fill="#1D2332" stroke="#1D2332" stroke-width="0.5669" stroke-miterlimit="10" stroke-linecap="round" stroke-linejoin="round"/>
<path d="M113.286 113.997C108.064 110.545 104.524 104.881 103.639 98.686L107.09 98.9516L102.4 89.3933L96.5586 98.155L100.099 98.4205C100.984 105.855 105.055 112.758 111.338 116.918C111.604 117.095 111.958 117.183 112.312 117.183C112.843 117.183 113.463 116.918 113.817 116.386C114.259 115.59 114.082 114.528 113.286 113.997Z" fill="#1D2332" stroke="#1D2332" stroke-width="0.5669" stroke-miterlimit="10" stroke-linecap="round" stroke-linejoin="round"/>
<path d="M179.662 134.441C176.476 131.255 172.847 130.016 169.396 130.635L168.865 129.396C168.068 127.892 168.068 126.21 168.953 125.06L171.785 121.166C174.086 117.891 173.555 113.289 170.369 110.103L162.669 102.403C163.112 100.191 163.289 97.8895 163.289 95.5885C163.289 93.2874 163.023 90.9864 162.669 88.7738L170.369 81.0741C173.555 77.888 174.086 73.2859 171.785 70.0113L168.953 66.1172C168.156 64.9667 168.068 63.2852 168.953 61.6921L169.484 60.5416C170.104 60.6301 170.635 60.7186 171.254 60.7186C171.254 60.7186 171.254 60.7186 171.343 60.7186C174.263 60.7186 177.184 59.3026 179.75 56.736C185.68 50.8063 184.529 44.3457 180.724 40.5401C176.918 36.7345 170.369 35.4954 164.439 41.4251C161.253 44.6112 160.014 48.2398 160.634 51.6914L159.395 52.2224C157.89 53.0189 156.209 53.0189 155.058 52.1339L151.164 49.3903C147.889 47.0892 143.287 47.6203 140.101 50.8063L132.402 58.506C130.189 58.0635 127.888 57.8865 125.587 57.8865C123.286 57.8865 120.985 58.152 118.772 58.506L111.073 50.8063C107.886 47.6203 103.284 47.0892 100.01 49.3903L96.1156 52.2224C94.9651 53.0189 93.2836 53.1074 91.6905 52.2224L90.54 51.6914C90.6285 51.0718 90.717 50.4523 90.717 49.8328C90.717 46.9122 89.301 43.9917 86.7344 41.4251C84.1678 38.8585 81.1588 37.354 78.2382 37.2655C75.2291 37.177 72.4855 38.239 70.3615 40.3631C68.2374 42.4871 67.0869 45.2307 67.2639 48.0628C67.3524 51.0718 68.7684 53.9924 71.4235 56.6475C74.0786 59.3026 77.0877 60.6301 79.9197 60.6301C80.5392 60.6301 81.0703 60.5416 81.6898 60.4531L82.2208 61.6921C83.0173 63.1967 83.0173 64.8782 82.1323 66.0287L79.3887 69.9228C77.0877 73.1974 77.6187 77.7995 80.8047 80.9856L88.5044 88.6853C88.0619 90.8979 87.8849 93.1989 87.8849 95.5C87.8849 97.801 88.1504 100.102 88.5044 102.315L80.8047 110.014C77.6187 113.2 77.0877 117.803 79.3887 121.077L82.2208 124.971C83.0173 126.122 83.1058 127.803 82.2208 129.396L81.6898 130.547C81.0703 130.458 80.4507 130.37 79.8312 130.37C76.9106 130.37 73.9901 131.786 71.4235 134.352C68.8569 136.919 67.3524 139.928 67.2639 142.849C67.1754 145.681 68.2374 148.424 70.3615 150.548C72.3085 152.495 74.8751 153.734 77.7072 153.734C80.5392 153.734 83.6368 152.495 86.5574 149.575C89.7435 146.389 90.9825 142.76 90.363 139.309L91.602 138.778C93.1066 137.981 94.7881 137.981 95.9386 138.866L99.8327 141.698C101.16 142.672 102.753 143.114 104.346 143.114C106.647 143.114 109.037 142.141 110.896 140.282L118.595 132.582C120.808 133.025 123.109 133.202 125.41 133.202C127.711 133.202 130.012 132.936 132.225 132.582L139.924 140.282C141.783 142.141 144.172 143.114 146.473 143.114C148.066 143.114 149.66 142.672 150.987 141.698L154.881 138.866C156.032 138.07 157.713 137.981 159.306 138.866L160.457 139.397C160.368 140.017 160.28 140.636 160.28 141.256C160.28 144.176 161.696 147.097 164.262 149.663C167.183 152.584 170.281 153.823 173.113 153.823C175.945 153.823 178.6 152.584 180.458 150.637C184.441 146.831 185.591 140.371 179.662 134.441ZM166.917 43.9032C168.953 41.8676 171.254 40.8056 173.378 40.8056C175.148 40.8056 176.741 41.5136 178.157 42.9296C181.343 46.1157 180.901 50.3638 177.184 54.1694C175.237 56.1165 173.201 57.09 171.254 57.09C169.484 57.09 167.802 56.2935 166.298 54.7889C162.935 51.6029 163.2 47.6203 166.917 43.9032ZM160.988 55.4085L161.961 54.9659C162.492 55.7625 163.023 56.559 163.731 57.267C164.439 57.975 165.236 58.5945 166.032 59.037L165.59 59.9221C164.705 61.6921 164.439 63.6392 164.793 65.4092C160.191 64.2587 156.651 60.7186 155.501 56.1165C157.359 56.559 159.218 56.2935 160.988 55.4085ZM142.579 53.2844C144.438 51.4258 147.27 50.9833 149.04 52.2224L151.695 54.0809C152.138 62.3116 158.775 68.8608 166.917 69.3033L168.776 71.9584C170.104 73.7284 169.661 76.5605 167.714 78.419L161.519 84.6142C157.89 72.5779 148.42 63.1081 136.384 59.4796L142.579 53.2844ZM89.124 54.9659L90.009 55.4085C91.779 56.2935 93.7261 56.559 95.4961 56.205C94.3456 60.8071 90.8055 64.3472 86.2034 65.4977C86.5574 63.7277 86.3804 61.8691 85.4954 60.0991L84.9644 59.1255C85.7609 58.5945 86.5574 58.0635 87.2654 57.3555C88.0619 56.559 88.5929 55.7625 89.124 54.9659ZM73.9016 54.0809C71.9545 52.1339 70.8925 50.0098 70.804 47.8858C70.7155 46.1157 71.4235 44.3457 72.928 42.9296C74.3441 41.5136 75.9371 40.8056 77.7072 40.8056C77.7957 40.8056 77.8842 40.8056 77.9727 40.8056C80.0082 40.8941 82.2208 41.9561 84.1678 43.9032C86.1149 45.8502 87.0884 47.8858 87.0884 49.8328C87.0884 51.6029 86.2919 53.2844 84.7874 54.7889C81.6013 58.0635 77.6187 57.798 73.9016 54.0809ZM83.2828 78.419C81.4243 76.5605 80.9818 73.7284 82.2208 71.9584L84.0793 69.3033C92.31 68.8608 98.8592 62.2231 99.3017 54.0809L101.957 52.2224C103.727 50.8948 106.559 51.3373 108.417 53.2844L114.613 59.4796C102.576 63.1081 93.1066 72.5779 89.478 84.6142L83.2828 78.419ZM84.0793 147.097C80.2737 150.902 76.0256 151.256 72.8395 148.07C71.4235 146.654 70.627 144.884 70.7155 143.026C70.804 140.99 71.866 138.778 73.8131 136.831C75.7601 134.883 77.7957 133.91 79.7427 133.91C81.5128 133.91 83.1943 134.706 84.6988 136.211C88.0619 139.486 87.7964 143.468 84.0793 147.097ZM90.0975 135.592L89.124 136.034C88.5929 135.237 88.0619 134.441 87.3539 133.733C86.6459 133.025 85.8494 132.405 85.0529 131.963L85.4954 131.078C86.3804 129.308 86.6459 127.361 86.2919 125.591C90.894 126.741 94.4341 130.281 95.5846 134.883C93.7261 134.441 91.779 134.706 90.0975 135.592ZM108.417 137.716C106.559 139.574 103.727 140.017 101.957 138.778L99.3017 136.919C98.8592 128.688 92.2215 122.139 84.0793 121.697L82.2208 119.042C80.8933 117.272 81.3358 114.439 83.2828 112.581L89.478 106.386C93.1066 118.422 102.576 127.892 114.613 131.52L108.417 137.716ZM125.498 129.662C106.647 129.662 91.3365 114.351 91.3365 95.5C91.3365 76.649 106.647 61.3381 125.498 61.3381C144.349 61.3381 159.66 76.649 159.66 95.5C159.66 114.351 144.349 129.662 125.498 129.662ZM151.695 136.919L149.04 138.778C147.27 140.105 144.438 139.663 142.579 137.716L136.384 131.52C148.42 127.892 157.89 118.422 161.519 106.386L167.714 112.581C169.573 114.439 170.015 117.272 168.776 119.042L166.917 121.697C158.775 122.139 152.138 128.777 151.695 136.919ZM161.961 136.034L161.076 135.592C159.306 134.706 157.359 134.441 155.589 134.795C156.74 130.193 160.28 126.653 164.882 125.502C164.528 127.272 164.705 129.131 165.59 130.901L166.032 131.874C165.236 132.405 164.439 132.936 163.731 133.644C163.023 134.441 162.404 135.237 161.961 136.034ZM178.157 148.159C174.971 151.345 170.723 150.902 166.917 147.185C164.97 145.238 163.997 143.203 163.997 141.256C163.997 139.486 164.793 137.804 166.298 136.3C167.802 134.795 169.484 133.998 171.166 133.998C173.113 133.998 175.237 134.972 177.184 136.919C180.901 140.725 181.255 144.973 178.157 148.159Z" fill="#1D2332" stroke="#1D2332" stroke-width="0.5669" stroke-miterlimit="10" stroke-linecap="round" stroke-linejoin="round"/>
</g>
<defs>
<clipPath id="clip0_2275_3102">
<rect width="117" height="117" fill="white" transform="translate(67 37)"/>
</clipPath>
</defs>
</svg>
