<svg width="19" height="19" viewBox="0 0 19 19" fill="none" xmlns="http://www.w3.org/2000/svg">
<path d="M1.12856 0C0.845911 0.02092 0.580211 0.14214 0.379791 0.34159C0.179381 0.54104 0.0575812 0.80546 0.0365612 1.08675C0.0392512 1.22686 0.0733313 1.3646 0.136301 1.48993C0.199271 1.61527 0.289551 1.72505 0.400561 1.81125L8.0445 9.4185L0.400561 17.0258C0.293011 17.109 0.202981 17.2126 0.135631 17.3304C0.0682813 17.4483 0.0249111 17.5782 0.0080111 17.7128C-0.0088889 17.8473 0.00101107 17.9839 0.0371311 18.1146C0.0732611 18.2454 0.134911 18.3678 0.218561 18.4748C0.302211 18.5818 0.406231 18.6714 0.524671 18.7384C0.643111 18.8055 0.773661 18.8486 0.908861 18.8655C1.04407 18.8823 1.18127 18.8724 1.31265 18.8365C1.44403 18.8005 1.567 18.7392 1.67456 18.6559L1.85656 18.4748L9.5005 10.8675L17.1445 18.4748C17.2349 18.5901 17.3489 18.6851 17.4789 18.7533C17.609 18.8215 17.7521 18.8614 17.8988 18.8704C18.0455 18.8794 18.1924 18.8573 18.3299 18.8055C18.4674 18.7537 18.5922 18.6734 18.6962 18.57C18.8001 18.4665 18.8808 18.3423 18.9328 18.2055C18.9848 18.0687 19.0071 17.9224 18.998 17.7764C18.989 17.6304 18.9489 17.488 18.8803 17.3586C18.8118 17.2292 18.7164 17.1157 18.6005 17.0258L10.9565 9.4185L18.6005 1.81125C18.7759 1.61026 18.8725 1.35298 18.8725 1.08675C18.8725 0.82052 18.7759 0.56325 18.6005 0.36225C18.3998 0.17157 18.1462 0.04536 17.8725 0C17.5988 0.04536 17.3452 0.17157 17.1445 0.36225L9.5005 7.9695L1.85656 0.36225C1.65589 0.17157 1.40224 0.04536 1.12856 0Z" fill="#3C78EC"/>
</svg>
