<svg width="52" height="67" viewBox="0 0 52 67" fill="none" xmlns="http://www.w3.org/2000/svg">
<path d="M52 18.1444C52 17.6502 51.7883 17.2972 51.4356 17.0148L34.8548 0.423604C34.7843 0.353003 34.6432 0.282403 34.5726 0.211802C34.5726 0.211802 34.502 0.211802 34.502 0.141201C34.3609 0.0706006 34.2904 0.0706006 34.1493 0C34.0787 0 34.0081 0 33.867 0H1.41113C0.635007 0 0 0.635406 0 1.41201V65.588C0 66.3646 0.635007 67 1.41113 67H50.5889C51.365 67 52 66.3646 52 65.588V18.2856C52 18.2856 52 18.215 52 18.1444ZM47.2022 16.7323H35.2782V4.80084L47.2022 16.7323ZM2.82225 64.176V2.82403H32.4559V18.1444C32.4559 18.921 33.0909 19.5564 33.867 19.5564H49.1777V64.176H2.82225Z" fill="#333333"/>
<path d="M44.0271 42.431H37.4654C36.6893 42.431 36.0543 41.7956 36.0543 41.019C36.0543 40.2424 36.6893 39.607 37.4654 39.607H44.0271C44.8033 39.607 45.4383 40.2424 45.4383 41.019C45.4383 41.7956 44.8033 42.431 44.0271 42.431Z" fill="#333333"/>
<path d="M44.0271 52.5975H37.4654C36.6893 52.5975 36.0543 51.9621 36.0543 51.1855C36.0543 50.4088 36.6893 49.7734 37.4654 49.7734H44.0271C44.8033 49.7734 45.4383 50.4088 45.4383 51.1855C45.4383 52.0327 44.8033 52.5975 44.0271 52.5975Z" fill="#333333"/>
<path d="M12.4179 36.0064H10.019C9.24288 36.0064 8.60787 35.3709 8.60787 34.5943C8.60787 33.8177 9.24288 33.1823 10.019 33.1823H12.4179C13.194 33.1823 13.829 33.8177 13.829 34.5943C13.829 35.3709 13.194 36.0064 12.4179 36.0064Z" fill="#333333"/>
<path d="M21.0963 36.0064H16.6513C15.8752 36.0064 15.2402 35.3709 15.2402 34.5943C15.2402 33.8177 15.8752 33.1823 16.6513 33.1823H21.0963C21.8725 33.1823 22.5075 33.8177 22.5075 34.5943C22.5075 35.3709 21.8725 36.0064 21.0963 36.0064Z" fill="#333333"/>
<path d="M44.3094 36.0064H25.3297C24.5536 36.0064 23.9186 35.3709 23.9186 34.5943C23.9186 33.8177 24.5536 33.1823 25.3297 33.1823H44.2388C45.0149 33.1823 45.6499 33.8177 45.6499 34.5943C45.7205 35.3709 45.0855 36.0064 44.3094 36.0064Z" fill="#333333"/>
<path d="M33.0909 42.431H14.8168C14.0407 42.431 13.4057 41.7956 13.4057 41.019C13.4057 40.2424 14.0407 39.607 14.8168 39.607H33.0204C33.7965 39.607 34.4315 40.2424 34.4315 41.019C34.502 41.7956 33.867 42.431 33.0909 42.431Z" fill="#333333"/>
</svg>
