<svg width="22" height="14" viewBox="0 0 22 14" fill="none" xmlns="http://www.w3.org/2000/svg">
<path d="M19.0844 0H2.24843C1.6959 0.00180437 1.1665 0.228016 0.775805 0.62928C0.385108 1.03054 0.164843 1.57425 0.163086 2.14172V11.8583C0.163086 12.4263 0.382786 12.971 0.773863 13.3727C1.16494 13.7744 1.69536 14 2.24843 14H19.0844C19.6375 14 20.1679 13.7744 20.559 13.3727C20.95 12.971 21.1697 12.4263 21.1697 11.8583V2.14172C21.168 1.57425 20.9477 1.03054 20.557 0.62928C20.1663 0.228016 19.6369 0.00180437 19.0844 0ZM14.3874 6.50732L20.297 1.53959C20.3855 1.72726 20.431 1.9332 20.4302 2.14172V11.8583C20.429 12.0563 20.3882 12.2519 20.3103 12.433L14.3874 6.50732ZM19.0844 0.759521C19.3391 0.758158 19.5888 0.831768 19.8039 0.97164L10.6698 8.65591L1.52889 0.97164C1.74407 0.831768 1.99378 0.758158 2.24843 0.759521H19.0844ZM1.0292 12.433C0.946869 12.2532 0.90367 12.057 0.902617 11.8583V2.14172C0.901786 1.9332 0.94736 1.72726 1.03586 1.53959L6.94544 6.50732L1.0292 12.433ZM2.24843 13.2405C1.98376 13.2403 1.72471 13.1619 1.50223 13.0147L7.49842 6.98631L10.6498 9.6344L13.7944 6.98631L19.7906 13.0147C19.5693 13.1645 19.3095 13.2431 19.0444 13.2405H2.24843Z" fill="white"/>
</svg>
