<svg width="20" height="19" viewBox="0 0 20 19" fill="none" xmlns="http://www.w3.org/2000/svg">
<path d="M3.80798 0C3.55302 0.00738326 3.30248 0.0684083 3.07268 0.179096C2.84288 0.289785 2.63898 0.44765 2.47428 0.64241L0.7705 2.59059C0.328244 3.17449 0.112429 3.89882 0.162995 4.62955C0.162995 7.08049 1.9017 10.7045 5.1766 13.9794C8.4515 17.2543 12.0755 19 14.5334 19C15.2606 19.0471 15.9801 18.8287 16.5584 18.3855L18.5066 16.6817C18.7053 16.5195 18.8668 16.3165 18.98 16.0863C19.0933 15.8562 19.1557 15.6044 19.163 15.348C19.1538 15.0951 19.0927 14.8468 18.9834 14.6185C18.874 14.3903 18.7189 14.187 18.5276 14.0213L15.8532 11.3399C15.6927 11.1454 15.4911 10.9887 15.263 10.8811C15.0348 10.7736 14.7857 10.7178 14.5334 10.7178C14.2812 10.7178 14.0321 10.7736 13.8039 10.8811C13.5758 10.9887 13.3742 11.1454 13.2137 11.3399L12.1733 12.3804C11.9708 12.5689 11.8172 12.5899 11.6356 12.4781L6.6709 7.5204C6.49633 7.34583 6.63598 7.16428 6.74072 7.02462L7.81607 5.9423C8.01289 5.78324 8.17164 5.58217 8.2807 5.35382C8.38976 5.12547 8.44636 4.87562 8.44636 4.62256C8.44636 4.3695 8.38976 4.11965 8.2807 3.8913C8.17164 3.66295 8.01289 3.46188 7.81607 3.30283L5.1347 0.621462C4.96832 0.43205 4.76457 0.279072 4.53627 0.172128C4.30796 0.065184 4.06001 0.00658167 3.80798 0V0ZM4.45039 1.31276L7.12478 3.99412C7.40408 4.26645 7.46693 4.35722 7.46693 4.62955C7.46693 4.90188 7.36917 5.00662 7.12478 5.25101L6.04944 6.33333C5.8475 6.54707 5.7096 6.8132 5.65142 7.10143C5.61569 7.28209 5.62033 7.4684 5.66499 7.64705C5.70966 7.82571 5.79325 7.99228 5.90979 8.13487L11.0281 13.2532C11.3249 13.4725 11.6965 13.5654 12.0616 13.5116C12.3409 13.4498 12.5987 13.3148 12.8087 13.1205L13.905 12.0312C14.1424 11.7868 14.2681 11.6891 14.5334 11.6891C14.7988 11.6891 14.8896 11.7589 15.1689 12.0312L17.8433 14.7126C18.0329 14.8651 18.1556 15.0856 18.1854 15.3271C18.1854 15.7111 18.1854 15.6832 17.8712 15.9416L15.916 17.6523C15.505 17.9284 15.0133 18.0587 14.5195 18.0224C12.5504 18.0224 8.98916 16.4234 5.84694 13.2881C2.70471 10.1529 1.12662 6.5917 1.12662 4.62955C1.09093 4.13679 1.21854 3.64599 1.48972 3.23301L3.19351 1.28482C3.26568 1.19071 3.35732 1.1133 3.46217 1.05786C3.56701 1.00243 3.68259 0.970285 3.801 0.96362C4.05408 0.992894 4.28639 1.1178 4.45039 1.31276V1.31276Z" fill="white"/>
</svg>
