<svg width="179" height="149" viewBox="0 0 179 149" fill="none" xmlns="http://www.w3.org/2000/svg">
<path d="M89.2 16.6H86C85.7 16.6 85.5 16.6 85.5 16.4C85.6 16.2 85.7 15.9 85.8 15.7C85.8 15.6 86 15.5 86.3 15.5H88.9C89 15.5 89.1 15.5 89.2 15.5C89.3 15.5 89.3 15.6 89.4 15.7C89.5 15.9 89.6 16.2 89.7 16.4C89.6 16.5 89.4 16.6 89.2 16.6ZM95.9 13.1C95.7 12.8 95.3 12.5 94.9 12.3C94.5 12.1 94.1 12 93.7 12.1H81.6C80.4 12.1 79.8 12.4 79.4 13.1C78.8 14.1 78.3 15.2 78 16.3C78 17 79 17.3 80.2 17.3H95.2C96.4 17.3 97.3 16.8 97.4 16.3C97 15.2 96.5 14.1 95.9 13.1Z" fill="#535B6E"/>
<path d="M93.4999 3.4H86.5999V2.6H93.4999V3.4ZM93.4999 5.1H86.5999V4.3H93.4999V5.1ZM93.4999 6.7H86.5999V5.9H93.4999V6.7ZM93.4999 8.3H81.8999V7.6H93.3999V8.3H93.4999ZM81.8999 2.6H85.5999V6.6H81.8999V2.6ZM93.7999 0H81.5999C81.2999 0 80.9999 0.1 80.7999 0.2C80.4999 0.3 80.2999 0.5 80.0999 0.7C79.8999 0.9 79.6999 1.1 79.5999 1.4C79.4999 1.7 79.3999 1.9 79.3999 2.2V9C79.3999 9.6 79.5999 10.1 79.9999 10.5C80.3999 10.9 80.9999 11.1 81.4999 11.1H93.6999C93.9999 11.1 94.2999 11 94.4999 10.9C94.7999 10.8 94.9999 10.6 95.1999 10.4C95.3999 10.2 95.5999 10 95.6999 9.7C95.7999 9.4 95.8999 9.2 95.8999 8.9V2.2C95.8999 1.9 95.7999 1.6 95.6999 1.4C95.5999 1.1 95.3999 0.9 95.1999 0.7C94.9999 0.5 94.7999 0.3 94.4999 0.2C94.2999 0.1 94.0999 0 93.7999 0Z" fill="#535B6E"/>
<path d="M89.2 109H86C85.7 109 85.5 109 85.5 108.8C85.6 108.6 85.7 108.3 85.8 108.1C85.8 108 86 107.9 86.3 107.9H88.9C89 107.9 89.1 107.9 89.2 107.9C89.3 107.9 89.3 108 89.4 108.1C89.5 108.3 89.6 108.6 89.7 108.8C89.6 108.9 89.4 109 89.2 109ZM95.9 105.5C95.7 105.2 95.3 104.9 95 104.7C94.6 104.5 94.2 104.4 93.8 104.5H81.6C80.4 104.5 79.8 104.9 79.4 105.5C78.8 106.5 78.3 107.6 78 108.7C78 109.4 79 109.7 80.2 109.7H95.2C96.4 109.7 97.3 109.2 97.4 108.7C97 107.6 96.5 106.5 95.9 105.5Z" fill="#535B6E"/>
<path d="M93.5 95.8H86.6V95H93.5V95.8ZM93.5 97.5H86.6V96.7H93.5V97.5ZM93.5 99.1H86.6V98.3H93.5V99.1ZM93.5 100.7H81.9V100H93.4V100.7H93.5ZM81.9 95H85.6V99H81.9V95ZM93.8 92.4H81.6C81 92.4 80.5 92.6 80.1 93C79.7 93.4 79.5 94 79.5 94.5V101.3C79.5 101.6 79.6 101.9 79.7 102.1C79.8 102.4 80 102.6 80.2 102.8C80.4 103 80.6 103.2 80.9 103.3C81.2 103.4 81.4 103.5 81.7 103.5H93.9C94.2 103.5 94.5 103.4 94.7 103.3C95 103.2 95.2 103 95.4 102.8C95.6 102.6 95.8 102.4 95.9 102.1C96 101.8 96.1 101.6 96.1 101.3V94.5C96.1 94.2 96 93.9 95.9 93.7C95.8 93.4 95.6 93.2 95.4 93C95.2 92.8 95 92.6 94.7 92.5C94.3 92.5 94.1 92.4 93.8 92.4Z" fill="#535B6E"/>
<path d="M11.3 62H8C7.7 62 7.5 62 7.5 61.8C7.6 61.6 7.7 61.3 7.8 61.1C7.8 61 8 60.9 8.3 60.9H10.9C11 60.9 11.1 60.9 11.2 60.9C11.3 60.9 11.3 61 11.4 61.1C11.5 61.3 11.6 61.5 11.7 61.8C11.8 61.9 11.6 62 11.3 62ZM18.1 58.5C17.9 58.2 17.5 57.9 17.2 57.7C16.8 57.5 16.4 57.4 16 57.5H3.7C2.5 57.5 1.9 57.9 1.5 58.5C0.9 59.5 0.4 60.6 0 61.7C0 62.4 1 62.7 2.2 62.7H17.3C18.5 62.7 19.4 62.2 19.5 61.7C19.2 60.6 18.7 59.5 18.1 58.5Z" fill="#535B6E"/>
<path d="M15.6 48.8H8.7V48H15.6V48.8ZM15.6 50.5H8.7V49.8H15.6V50.5ZM15.6 52.1H8.7V51.4H15.6V52.1ZM15.6 53.7H4.1V53H15.6V53.7ZM4 48.1H7.6V52.1H4V48.1ZM15.9 45.4H3.7C3.4 45.4 3.1 45.5 2.9 45.6C2.6 45.7 2.4 45.9 2.2 46.1C2 46.3 1.8 46.5 1.7 46.8C1.6 47.1 1.5 47.3 1.5 47.6V54.4C1.5 54.7 1.6 55 1.7 55.2C1.8 55.5 2 55.7 2.2 55.9C2.4 56.1 2.6 56.3 2.9 56.4C3.2 56.5 3.4 56.6 3.7 56.6H15.9C16.5 56.6 17 56.4 17.4 56C17.8 55.6 18 55 18 54.5V47.7C18 47.4 17.9 47.1 17.8 46.9C17.7 46.6 17.5 46.4 17.3 46.2C17.1 46 16.9 45.8 16.6 45.7C16.5 45.5 16.2 45.4 15.9 45.4Z" fill="#535B6E"/>
<path d="M170.3 61H167C166.7 61 166.5 61 166.5 60.8C166.6 60.6 166.7 60.3 166.8 60.1C166.8 60 167 59.9 167.3 59.9H169.9C170 59.9 170.1 59.9 170.2 59.9C170.3 59.9 170.3 60 170.4 60.1C170.5 60.3 170.6 60.5 170.7 60.8C170.8 60.9 170.6 61 170.3 61ZM177.1 57.5C176.9 57.2 176.5 56.9 176.2 56.7C175.8 56.5 175.4 56.4 175 56.5H162.7C161.5 56.5 160.9 56.9 160.5 57.5C159.9 58.5 159.4 59.6 159 60.7C159 61.4 160 61.7 161.2 61.7H176.3C177.5 61.7 178.4 61.2 178.5 60.7C178.2 59.6 177.7 58.5 177.1 57.5Z" fill="#535B6E"/>
<path d="M174.6 47.8H167.7V47H174.6V47.8ZM174.6 49.5H167.7V48.8H174.6V49.5ZM174.6 51.1H167.7V50.4H174.6V51.1ZM174.6 52.7H163.1V52H174.6V52.7ZM163 47.1H166.6V51.1H163V47.1ZM174.9 44.4H162.7C162.4 44.4 162.1 44.5 161.9 44.6C161.6 44.7 161.4 44.9 161.2 45.1C161 45.3 160.8 45.5 160.7 45.8C160.6 46.1 160.5 46.3 160.5 46.6V53.4C160.5 53.7 160.6 54 160.7 54.2C160.8 54.5 161 54.7 161.2 54.9C161.4 55.1 161.6 55.3 161.9 55.4C162.2 55.5 162.4 55.6 162.7 55.6H174.9C175.5 55.6 176 55.4 176.4 55C176.8 54.6 177 54 177 53.5V46.7C177 46.4 176.9 46.1 176.8 45.9C176.7 45.6 176.5 45.4 176.3 45.2C176.1 45 175.9 44.8 175.6 44.7C175.5 44.5 175.2 44.4 174.9 44.4Z" fill="#535B6E"/>
<path d="M11.3 145.5H8C7.7 145.5 7.5 145.4 7.5 145.3C7.6 145.1 7.7 144.8 7.8 144.6C7.8 144.5 8 144.4 8.3 144.4H10.9C11 144.4 11.1 144.4 11.2 144.4C11.3 144.4 11.3 144.5 11.4 144.6C11.5 144.8 11.6 145 11.7 145.3C11.8 145.4 11.6 145.5 11.3 145.5ZM18.1 142C17.9 141.7 17.5 141.4 17.2 141.2C16.8 141 16.4 140.9 16 141H3.7C2.5 141 1.9 141.3 1.5 142C0.9 143 0.4 144.1 0 145.2C0 145.9 1 146.2 2.2 146.2H17.3C18.5 146.2 19.4 145.7 19.5 145.2C19.2 144 18.7 143 18.1 142Z" fill="#535B6E"/>
<path d="M15.6 132.4H8.7V131.6H15.6V132.4ZM15.6 134H8.7V133.2H15.6V134ZM15.6 135.6H8.7V134.8H15.6V135.6ZM15.6 137.3H4.1V136.5H15.6V137.3ZM4 131.6H7.6V135.6H4V131.6ZM15.9 129H3.7C3.4 129 3.1 129.1 2.9 129.2C2.6 129.3 2.4 129.5 2.2 129.7C2 129.9 1.8 130.1 1.7 130.4C1.6 130.7 1.5 130.9 1.5 131.2V138C1.5 138.3 1.6 138.6 1.7 138.8C1.8 139.1 2 139.3 2.2 139.5C2.4 139.7 2.6 139.9 2.9 140C3.2 140.1 3.4 140.2 3.7 140.2H15.9C16.2 140.2 16.5 140.1 16.7 140C17 139.9 17.2 139.7 17.4 139.5C17.6 139.3 17.8 139.1 17.9 138.8C18 138.5 18.1 138.3 18.1 138V131.2C18.1 130.6 17.9 130.1 17.5 129.7C17 129.2 16.5 129 15.9 129Z" fill="#535B6E"/>
<path d="M170.3 147.5H167C166.7 147.5 166.5 147.4 166.5 147.3C166.6 147.1 166.7 146.8 166.8 146.6C166.8 146.5 167 146.4 167.3 146.4H169.9C170 146.4 170.1 146.4 170.2 146.4C170.3 146.4 170.3 146.5 170.4 146.6C170.5 146.8 170.6 147 170.7 147.3C170.8 147.4 170.6 147.5 170.3 147.5ZM177.1 144C176.9 143.7 176.5 143.4 176.2 143.2C175.8 143 175.4 142.9 175 143H162.7C161.5 143 160.9 143.3 160.5 144C159.9 145 159.4 146.1 159 147.2C159 147.9 160 148.2 161.2 148.2H176.3C177.5 148.2 178.4 147.7 178.5 147.2C178.2 146 177.7 145 177.1 144Z" fill="#535B6E"/>
<path d="M174.6 134.4H167.7V133.6H174.6V134.4ZM174.6 136H167.7V135.2H174.6V136ZM174.6 137.6H167.7V136.8H174.6V137.6ZM174.6 139.3H163.1V138.5H174.6V139.3ZM163 133.6H166.6V137.6H163V133.6ZM174.9 131H162.7C162.4 131 162.1 131.1 161.9 131.2C161.6 131.3 161.4 131.5 161.2 131.7C161 131.9 160.8 132.1 160.7 132.4C160.6 132.7 160.5 132.9 160.5 133.2V140C160.5 140.3 160.6 140.6 160.7 140.8C160.8 141.1 161 141.3 161.2 141.5C161.4 141.7 161.6 141.9 161.9 142C162.2 142.1 162.4 142.2 162.7 142.2H174.9C175.2 142.2 175.5 142.1 175.7 142C176 141.9 176.2 141.7 176.4 141.5C176.6 141.3 176.8 141.1 176.9 140.8C177 140.5 177.1 140.3 177.1 140V133.2C177.1 132.6 176.9 132.1 176.5 131.7C176 131.2 175.5 131 174.9 131Z" fill="#535B6E"/>
<path d="M10.5 68H9V122H10.5V68Z" fill="#7B8AAD"/>
<path d="M169.5 68H168V122H169.5V68Z" fill="#7B8AAD"/>
<path d="M88.5 23H87V84H88.5V23Z" fill="#7B8AAD"/>
<path d="M104.555 10.5241L103.711 12L155.801 41.7767L156.645 40.3008L104.555 10.5241Z" fill="#7B8AAD"/>
<path d="M71.0095 11.0832L19 41L19.8476 42.4736L71.8571 12.5567L71.0095 11.0832Z" fill="#7B8AAD"/>
<path d="M104.555 106L103.711 107.476L153.197 135.764L154.04 134.288L104.555 106Z" fill="#7B8AAD"/>
<path d="M71.409 105.579L22 134L22.8476 135.474L72.2566 107.053L71.409 105.579Z" fill="#7B8AAD"/>
<path d="M52.7002 53.2V38L39.2002 45.5L52.7002 53.2Z" fill="#3C77E7"/>
<path d="M38.0001 47.2V110.3L52.7001 102.1V55.6L38.0001 47.2Z" fill="#3C77E7"/>
<path d="M38.0001 47.2L52.7001 55.6V52.1875L41.0001 44.5L38 46.1732L38.0001 47.2Z" fill="#3C77E7"/>
<path d="M120.6 103.3L133.9 110.9V65.6L120.6 73.1V103.3Z" fill="#3C77E7"/>
<path d="M105.8 34.1V47.1L120.6 55.6V70.9L133.9 63.3L139.8 66.6L151.2 60.1L105.8 34.1Z" fill="#3C77E7"/>
<path d="M151.2 60.1L139.8 66.6L142.897 68.3642L151.395 63.2617L151.414 60.2344L151.2 60.1Z" fill="#3C77E7"/>
<path d="M133.9 63.3L120.6 70.9V74.7188L133.9 68.0938V63.3Z" fill="#3C77E7"/>
<path d="M141.7 67.7L151.4 73.2V62.3L141.7 67.7Z" fill="#3C77E7"/>
</svg>
