<svg width="192" height="191" viewBox="0 0 192 191" fill="none" xmlns="http://www.w3.org/2000/svg">
<path d="M96 191L54.935 166.627L13.2946 143.25L13.87 95.5L13.2946 47.75L54.935 24.3733L96 -8.34888e-06L137.065 24.3733L178.705 47.75L178.13 95.5L178.705 143.25L137.065 166.627L96 191Z" fill="#1F59C9"/>
<path fill-rule="evenodd" clip-rule="evenodd" d="M94.732 71.5H110.514C111.472 71.5 112.25 70.7185 112.25 69.7519C112.25 68.7852 111.476 68 110.514 68H94.732C93.7742 68 93 68.7815 93 69.7519C93 70.7222 93.7742 71.5 94.732 71.5Z" fill="white"/>
<path fill-rule="evenodd" clip-rule="evenodd" d="M94.732 80.25H110.514C111.472 80.25 112.25 79.0778 112.25 77.6278C112.25 76.1778 111.476 75 110.514 75H94.732C93.7742 75 93 76.1722 93 77.6278C93 79.0833 93.7742 80.25 94.732 80.25Z" fill="white"/>
<path fill-rule="evenodd" clip-rule="evenodd" d="M62.8597 51H122.144C123.168 51 124 51.8056 124 52.802V61.3235C124 62.3162 123.172 63.1217 122.144 63.1217H120.787V99.7541C120.787 100.747 119.959 101.552 118.935 101.552H106.007C105.293 103.751 103.17 105.405 100.592 105.405H90.6501C90.1204 105.405 89.6024 105.328 89.1238 105.187V110.448C89.1238 111.441 88.2998 112.25 87.2758 112.25H62.8597C61.8357 112.25 61.0039 111.444 61.0039 110.448V94.5886C61.0039 92.0115 62.2673 89.7132 64.2173 88.2471V63.1217H62.8558C61.8318 63.1217 61 62.3162 61 61.3235V52.802C61 51.8056 61.8279 51 62.8558 51H62.8597ZM112.057 84.3643L105.316 96.7953C105.563 97.1504 105.767 97.5398 105.924 97.9483H117.083V63.1217H67.925V86.678C68.3526 86.613 68.796 86.5787 69.2433 86.5787H72.9707C72.3586 85.5402 72.0094 84.3414 72.0094 83.0586V79.9509C72.0094 76.0223 75.2934 72.8306 79.3307 72.8306C83.368 72.8306 86.652 76.0223 86.652 79.9509V83.0586C86.652 84.3414 86.2988 85.5402 85.6907 86.5787H88.2214C92.6746 86.5787 96.3157 90.0415 96.4569 94.3442H100.596C101.196 94.3442 101.773 94.4358 102.319 94.6038L108.777 82.6883C109.255 81.8102 110.377 81.4742 111.28 81.9323C112.182 82.3981 112.528 83.4862 112.057 84.3681V84.3643ZM75.7171 79.9509V83.0586C75.7171 85.0019 77.3375 86.5787 79.3346 86.5787C81.3317 86.5787 82.9482 85.0019 82.9482 83.0586V79.9509C82.9482 78.0114 81.3278 76.4346 79.3346 76.4346C77.3415 76.4346 75.7171 78.0114 75.7171 79.9509ZM64.7156 108.642H69.5376V97.8528C69.5376 96.8602 70.3654 96.0546 71.3855 96.0546C72.4057 96.0546 73.2414 96.8602 73.2414 97.8528V108.642H85.4239V97.8528C85.4239 96.8602 86.2518 96.0546 87.2797 96.0546C88.3077 96.0546 89.1277 96.8602 89.1277 97.8528V100.315C89.1277 101.132 89.8144 101.801 90.654 101.801H100.596C101.695 101.801 102.578 100.934 102.578 99.8763C102.578 98.8187 101.687 97.9483 100.596 97.9483H94.6049C93.5809 97.9483 92.7491 97.1427 92.7491 96.1424V94.5886C92.7491 92.1566 90.7207 90.1789 88.2214 90.1789H69.2394C66.744 90.1789 64.7116 92.1566 64.7116 94.5886V108.642H64.7156ZM64.7156 59.5177H120.3V54.6041H64.7156V59.5177Z" fill="white"/>
<path fill-rule="evenodd" clip-rule="evenodd" d="M144.463 93.3096C142.715 91.5635 139.869 91.5635 138.121 93.3096C137.004 94.4293 111.56 119.85 110.032 121.376C109.995 121.413 109.961 121.453 109.927 121.494C109.626 121.869 109.852 121.447 105.06 134.998C104.867 135.541 105.004 136.146 105.41 136.552C105.814 136.955 106.419 137.098 106.966 136.905C120.94 131.968 120.251 132.281 120.599 131.934C121.545 130.988 146.533 106.02 148.687 103.867C150.438 102.115 150.438 99.2833 148.687 97.534L144.46 93.3096H144.463ZM130.727 104.922L132.841 107.034L115.319 124.543L113.205 122.43L130.73 104.919L130.727 104.922ZM108.921 133.047L111.709 125.163L116.812 130.259L108.921 133.047ZM119.543 128.767L117.432 126.655L134.958 109.143L137.069 111.252L119.543 128.764V128.767ZM139.183 109.146L132.841 102.813L134.955 100.701L141.293 107.037L139.183 109.149V109.146ZM146.577 101.758L143.407 104.925L137.066 98.5916L140.235 95.4218C140.815 94.8418 141.765 94.8418 142.349 95.4218L146.577 99.6462C147.16 100.229 147.16 101.175 146.577 101.758Z" fill="white"/>
<path fill-rule="evenodd" clip-rule="evenodd" d="M148.507 139.976H38.9999C38.1742 139.976 37.5068 140.643 37.5068 141.468C37.5068 142.293 38.1742 142.96 38.9999 142.96H148.507C149.333 142.96 150 142.29 150 141.468C150 140.646 149.33 139.976 148.507 139.976Z" fill="white"/>
</svg>
