<svg width="192" height="191" viewBox="0 0 192 191" fill="none" xmlns="http://www.w3.org/2000/svg">
<path d="M96 191L54.935 166.627L13.2946 143.25L13.87 95.5L13.2946 47.75L54.935 24.3733L96 -8.34888e-06L137.065 24.3733L178.705 47.75L178.13 95.5L178.705 143.25L137.065 166.627L96 191Z" fill="#1F59C9"/>
<g clip-path="url(#clip0_801_3704)">
<path d="M122.161 141L57.9212 140.716C57.0685 140.716 56.5 140.147 56.5 139.293L56.7842 55.9551C56.7842 55.3863 57.3527 54.533 58.2055 54.533L122.445 54.8174C123.298 54.8174 123.866 55.3863 123.866 56.2395L123.582 139.578C123.298 140.431 122.729 141 122.161 141ZM59.3425 137.871L120.74 138.156L121.024 57.6617L59.6267 57.3773L59.3425 137.871Z" fill="white"/>
<path d="M81.2297 103.455H65.3119C64.4591 103.455 63.8906 102.886 63.8906 102.033V86.1048C63.8906 85.2515 64.4591 84.6826 65.3119 84.6826H81.2297C82.0824 84.6826 82.6509 85.2515 82.6509 86.1048V102.033C82.6509 102.886 81.7982 103.455 81.2297 103.455ZM66.7331 100.611H79.8084V87.5269H66.7331V100.611Z" fill="white"/>
<path d="M80.9455 132.183H65.0277C64.1749 132.183 63.6064 131.614 63.6064 130.76V114.832C63.6064 113.979 64.1749 113.41 65.0277 113.41H80.9455C81.7982 113.41 82.3667 113.979 82.3667 114.832V130.76C82.3667 131.614 81.7982 132.183 80.9455 132.183ZM66.4489 129.338H79.5243V116.254H66.4489V129.338Z" fill="white"/>
<path d="M114.202 98.9042H88.0511C87.1984 98.9042 86.6299 98.3353 86.6299 97.482V90.6557C86.6299 89.8024 87.1984 89.2335 88.0511 89.2335H114.202C115.055 89.2335 115.623 89.8024 115.623 90.6557V97.482C115.623 98.3353 115.055 98.9042 114.202 98.9042ZM89.4723 96.0599H113.065V92.0778H89.4723V96.0599Z" fill="white"/>
<path d="M112.213 73.8743L68.4388 73.5898C67.5861 73.5898 67.0176 73.021 67.0176 72.1677V65.3413C67.0176 64.4881 67.5861 63.9192 68.4388 63.9192L112.213 64.2036C113.066 64.2036 113.634 64.7725 113.634 65.6258V72.4521C113.35 73.3054 112.781 73.8743 112.213 73.8743ZM69.5758 71.03L110.507 71.3144V67.3324L69.5758 66.7635V71.03Z" fill="white"/>
<path d="M114.202 127.632H88.0511C87.1984 127.632 86.6299 127.063 86.6299 126.21V119.383C86.6299 118.53 87.1984 117.961 88.0511 117.961H114.202C115.055 117.961 115.623 118.53 115.623 119.383V126.21C115.623 127.063 114.77 127.632 114.202 127.632ZM89.1881 124.787H112.781V120.805H89.1881V124.787Z" fill="white"/>
<path d="M72.7016 98.9042C72.4174 98.9042 71.8489 98.6197 71.5647 98.3353L67.8694 93.7844C67.301 93.2155 67.5852 92.3623 68.1537 91.7934C68.7222 91.2245 69.5749 91.509 70.1434 92.0778L72.7016 95.2066L76.1126 90.6557C76.6811 90.0868 77.5338 89.8024 78.1023 90.3712C78.6708 90.9401 78.9551 91.7934 78.3866 92.3623L73.8386 98.6197C73.5544 98.6197 73.2701 98.9042 72.7016 98.9042Z" fill="white"/>
<path d="M130.404 132.183H121.877C121.024 132.183 120.455 131.614 120.455 130.76L120.74 57.3772H66.7328C65.88 57.3772 65.3115 56.8084 65.3115 55.9551V47.4222C65.3115 46.5689 65.88 46 66.7328 46L130.972 46.2844C131.825 46.2844 132.394 46.8533 132.394 47.7066L132.109 131.045C131.825 131.614 131.257 132.183 130.404 132.183ZM123.298 129.623H128.983L129.551 48.8443H68.154V54.8174L122.445 55.1018C123.298 55.1018 123.866 55.6707 123.866 56.524L123.298 129.623Z" fill="white"/>
<path d="M137.794 132.467C136.942 132.467 136.373 131.898 136.373 131.045V128.769C136.373 127.916 136.942 127.347 137.794 127.347C138.647 127.347 139.216 127.916 139.216 128.769V131.045C139.216 131.614 138.647 132.467 137.794 132.467Z" fill="white"/>
<path d="M137.794 125.641C136.942 125.641 136.373 125.072 136.373 124.219V119.668C136.373 118.814 136.942 118.246 137.794 118.246C138.647 118.246 139.216 118.814 139.216 119.668V124.219C139.216 124.787 138.647 125.641 137.794 125.641ZM138.079 116.539C137.226 116.539 136.657 115.97 136.657 115.117V110.566C136.657 109.713 137.226 109.144 138.079 109.144C138.931 109.144 139.5 109.713 139.5 110.566V115.117C139.216 115.686 138.647 116.539 138.079 116.539ZM138.079 107.437C137.226 107.437 136.657 106.868 136.657 106.015V101.464C136.657 100.611 137.226 100.042 138.079 100.042C138.931 100.042 139.5 100.611 139.5 101.464V106.015C139.216 106.868 138.647 107.437 138.079 107.437ZM138.079 98.3354C137.226 98.3354 136.657 97.7665 136.657 96.9132V92.3623C136.657 91.509 137.226 90.9402 138.079 90.9402C138.931 90.9402 139.5 91.509 139.5 92.3623V96.9132C139.5 97.7665 138.647 98.3354 138.079 98.3354ZM138.079 89.2336C137.226 89.2336 136.657 88.6647 136.657 87.8114V83.2605C136.657 82.4072 137.226 81.8384 138.079 81.8384C138.931 81.8384 139.5 82.4072 139.5 83.2605V87.8114C139.5 88.6647 138.931 89.2336 138.079 89.2336Z" fill="white"/>
<path d="M138.078 80.1317C137.226 80.1317 136.657 79.5629 136.657 78.7096V76.4341C136.657 75.5808 137.226 75.012 138.078 75.012C138.931 75.012 139.5 75.5808 139.5 76.4341V78.7096C139.5 79.5629 138.931 80.1317 138.078 80.1317Z" fill="white"/>
</g>
<defs>
<clipPath id="clip0_801_3704">
<rect width="83" height="95" fill="white" transform="translate(56.5 46)"/>
</clipPath>
</defs>
</svg>
