<svg width="192" height="191" viewBox="0 0 192 191" fill="none" xmlns="http://www.w3.org/2000/svg">
<path d="M96 191L54.935 166.627L13.2946 143.25L13.87 95.5L13.2946 47.75L54.935 24.3733L96 -8.34888e-06L137.065 24.3733L178.705 47.75L178.13 95.5L178.705 143.25L137.065 166.627L96 191Z" fill="#1F59C9"/>
<g clip-path="url(#clip0_801_3705)">
<path d="M88.7119 73.5076C84.5972 73.5076 81.3643 70.3034 81.3643 66.2253C81.3643 62.1472 84.5972 58.943 88.7119 58.943C92.8266 58.943 96.0596 62.1472 96.0596 66.2253C96.0596 70.0121 92.8266 73.5076 88.7119 73.5076ZM88.7119 62.1472C86.3607 62.1472 84.5972 63.8949 84.5972 66.2253C84.5972 68.5556 86.3607 70.3034 88.7119 70.3034C91.0632 70.3034 92.8266 68.5556 92.8266 66.2253C92.8266 63.8949 91.0632 62.1472 88.7119 62.1472Z" fill="white"/>
<path d="M101.055 90.6938C100.173 90.6938 99.2917 89.8199 99.2917 88.946V82.5376C99.2917 80.2073 97.2344 78.1682 94.8831 78.1682H82.8329C80.4817 78.1682 78.4243 80.2073 78.4243 82.5376V88.946C78.4243 89.8199 77.5426 90.6938 76.6609 90.6938C75.7792 90.6938 74.8975 89.8199 74.8975 88.946V82.5376C74.8975 78.1682 78.4243 74.6727 82.8329 74.6727H94.8831C99.2917 74.6727 102.819 78.1682 102.819 82.5376V88.946C102.525 89.8199 101.937 90.6938 101.055 90.6938Z" fill="white"/>
<path d="M83.7146 90.6937C82.539 90.6937 81.9512 89.8199 81.9512 88.946V86.6157C81.9512 85.7418 82.8329 84.8679 83.7146 84.8679C84.5963 84.8679 85.4781 85.7418 85.4781 86.6157V88.946C85.1841 89.8199 84.5963 90.6937 83.7146 90.6937Z" fill="white"/>
<path d="M94.0017 90.6937C93.12 90.6937 92.2383 89.8199 92.2383 88.946V86.6157C92.2383 85.7418 93.12 84.8679 94.0017 84.8679C94.8834 84.8679 95.7652 85.7418 95.7652 86.6157V88.946C95.7652 89.8199 94.8834 90.6937 94.0017 90.6937Z" fill="white"/>
<path d="M111.049 96.8108H66.6687C65.787 96.8108 64.9053 95.9369 64.9053 95.063C64.9053 94.1891 65.787 93.6066 66.6687 93.6066H111.049C111.93 93.6066 112.812 94.4804 112.812 95.3543C112.812 96.2282 111.93 96.8108 111.049 96.8108Z" fill="white"/>
<path d="M111.049 105.55H66.6687C65.787 105.55 64.9053 104.676 64.9053 103.802C64.9053 102.928 65.787 102.054 66.6687 102.054H111.049C111.93 102.054 112.812 102.928 112.812 103.802C112.518 104.967 111.93 105.55 111.049 105.55Z" fill="white"/>
<path d="M116.045 114.288H66.6687C65.787 114.288 64.9053 113.414 64.9053 112.541C64.9053 111.667 65.787 110.793 66.6687 110.793H116.045C116.927 110.793 117.808 111.667 117.808 112.541C117.515 113.706 116.927 114.288 116.045 114.288Z" fill="white"/>
<path d="M106.346 123.027H66.6687C65.787 123.027 64.9053 122.153 64.9053 121.279C64.9053 120.405 65.787 119.823 66.6687 119.823H106.346C107.228 119.823 108.11 120.697 108.11 121.571C108.11 122.444 107.228 123.027 106.346 123.027Z" fill="white"/>
<path d="M105.464 131.766H66.6687C65.787 131.766 64.9053 130.892 64.9053 130.018C64.9053 129.144 65.787 128.27 66.6687 128.27H105.464C106.346 128.27 107.228 129.144 107.228 130.018C107.228 130.892 106.346 131.766 105.464 131.766Z" fill="white"/>
<path d="M114.869 142.835H57.2634C56.3817 142.835 55.5 141.961 55.5 141.087V54.8648C55.5 53.9909 56.3817 53.1171 57.2634 53.1171H120.453C121.335 53.1171 122.217 53.9909 122.217 54.8648V111.958C122.217 112.832 121.335 113.706 120.453 113.706C112.812 113.706 106.934 119.823 106.934 127.105C106.934 132.64 110.461 137.592 115.457 139.631C116.339 139.922 116.633 140.796 116.633 141.378C116.339 142.543 115.751 142.835 114.869 142.835ZM58.733 139.631H108.991C105.464 136.426 103.407 132.057 103.407 127.105C103.407 118.366 110.167 111.084 118.69 110.21V56.3213H58.733V139.631Z" fill="white"/>
<path d="M120.454 144C111.049 144 103.407 136.426 103.407 127.105C103.407 117.784 111.049 110.21 120.454 110.21C129.859 110.21 137.5 117.784 137.5 127.105C137.5 136.426 129.859 144 120.454 144ZM120.454 113.706C112.812 113.706 106.934 119.823 106.934 127.105C106.934 134.679 113.106 140.504 120.454 140.504C128.095 140.504 133.974 134.387 133.974 127.105C134.267 119.823 128.095 113.706 120.454 113.706Z" fill="white"/>
<path d="M118.984 135.261C118.396 135.261 117.808 134.97 117.514 134.679L111.636 126.522C111.048 125.649 111.342 124.775 111.93 124.192C112.811 123.61 113.693 123.901 114.281 124.483L118.984 130.892L126.037 121.571C126.625 120.988 127.507 120.697 128.389 121.279C128.976 121.862 129.27 122.736 128.682 123.61L120.159 134.387C119.865 134.97 119.571 135.261 118.984 135.261Z" fill="white"/>
<path d="M127.507 115.453C127.213 115.453 126.919 115.453 126.625 115.162C124.568 114.288 122.511 113.706 120.453 113.706C119.572 113.706 118.69 112.832 118.69 111.958V56.3213H64.0232C63.1415 56.3213 62.5537 55.7387 62.5537 54.8649V48.7477C62.5537 47.8739 63.1415 47 64.0232 47H127.213C128.095 47 128.977 47.8739 128.977 48.7477V113.706C128.977 114.288 128.683 114.871 128.095 115.162C128.095 115.162 127.801 115.453 127.507 115.453ZM122.217 110.501C123.392 110.501 124.568 110.793 125.744 111.375V50.2042H65.7867V53.1171H120.453C121.335 53.1171 122.217 53.991 122.217 54.8649V110.501Z" fill="white"/>
</g>
<defs>
<clipPath id="clip0_801_3705">
<rect width="82" height="97" fill="white" transform="translate(55.5 47)"/>
</clipPath>
</defs>
</svg>
