<svg width="522" height="69" viewBox="0 0 522 69" fill="none" xmlns="http://www.w3.org/2000/svg">
<g clip-path="url(#clip0_5492_6967)">
<path d="M0 0.10498H5.04703C7.10322 0.10498 8.97248 0.478385 10.281 1.78529C11.2156 2.90549 11.7764 4.58579 11.7764 6.0794C11.7764 7.3863 11.5895 8.69321 11.0287 9.62672C10.6548 10.3735 9.90712 11.1203 8.78556 11.4937C9.90712 11.8671 11.0287 12.6139 11.5895 13.5474C12.3372 14.6676 12.711 16.1612 12.711 17.6549C12.711 20.2687 11.9633 21.949 11.0287 23.0692C9.34633 24.5628 7.29014 24.5628 5.42087 24.5628H0V0.10498ZM5.04703 10.5602C5.98166 10.5602 7.29014 10.5602 8.03785 9.62672C8.78556 8.87991 8.97248 7.38631 8.97248 6.82621C8.97248 4.5858 8.22477 3.65229 7.66399 3.27889C6.91628 2.71879 5.79472 2.53208 4.86009 2.53208H2.61698V10.5602H5.04703ZM5.42087 22.1357C6.16858 22.1357 7.66399 22.1357 8.59862 21.2022C9.34633 20.4554 9.72019 18.5883 9.72019 17.4681C9.72019 16.1612 9.34633 14.4809 8.4117 13.7341C7.47706 12.9873 6.16858 12.9873 5.42087 12.9873H2.8039V22.1357H5.42087Z" fill="#606060"/>
<path d="M23.3657 12.4269C23.3657 11.3067 22.8049 9.81311 22.2441 9.06631C21.8702 8.69291 21.1225 8.13281 20.3748 8.13281C19.4402 8.13281 18.6925 8.50622 18.3186 9.25302C17.9448 9.81312 17.384 11.3067 17.384 15.0407C17.384 18.7748 17.5709 20.8285 18.3186 21.762C18.6925 22.3221 19.4402 22.8822 20.3748 22.8822C21.1225 22.8822 22.0571 22.5088 22.6179 21.762C22.9918 21.0152 23.3656 19.895 23.5526 18.7748L25.9826 19.1482C25.7957 20.8285 25.048 22.8822 24.1133 23.8157C23.5526 24.3758 22.431 25.1226 20.5618 25.1226C18.8794 25.1226 17.384 24.3758 16.4493 23.4423C15.5147 22.5088 14.5801 20.6418 14.5801 15.9742C14.5801 10.7466 15.8886 8.69292 16.8232 7.57271C18.1317 6.26581 19.4402 6.0791 20.5618 6.0791C21.6833 6.0791 22.8048 6.2658 23.9264 7.1993C25.048 8.13281 25.6087 9.99981 25.7957 11.8668L23.3657 12.4269Z" fill="#606060"/>
<path d="M30.4695 15.7877C30.4695 17.2813 30.6564 20.0818 31.4041 21.3887C31.9649 22.3223 33.0865 22.6956 34.0211 22.6956C34.7688 22.6956 35.5165 22.3222 35.8904 21.7621C36.4512 21.202 36.825 19.7084 37.0119 18.9616L39.2551 19.5217C39.0681 20.0818 38.8812 21.202 38.3204 22.1355C37.1989 24.1892 35.5165 24.7494 33.8342 24.7494C31.9649 24.7494 30.4695 24.1893 29.348 22.5089C28.0395 20.4552 27.8525 17.468 27.8525 15.601C27.8525 12.8005 28.2264 9.81329 29.7218 7.94628C31.0303 6.07928 32.5257 5.89258 33.6473 5.89258C34.9558 5.89258 36.4512 6.07928 37.7597 7.75959C38.8812 9.25319 39.6289 11.4936 39.6289 15.7877H30.4695ZM36.825 13.734C36.825 11.3069 36.4512 10.1867 36.0773 9.4399C35.7034 8.69309 34.7688 8.13298 33.8342 8.13298C33.0865 8.13298 32.1519 8.50639 31.5911 9.4399C31.0303 10.3734 30.8434 11.6803 30.6564 13.5473H36.825V13.734Z" fill="#606060"/>
<path d="M42.433 6.45251H44.8631V9.43972C45.05 8.69292 45.4238 7.75941 45.9846 7.1993C46.9193 6.2658 47.8539 6.0791 48.6016 6.0791C50.284 6.0791 51.4055 6.8259 52.3401 8.13281C53.6486 9.99981 54.0225 13.1737 54.0225 15.2274C54.0225 17.2811 53.6486 20.2684 52.714 22.1354C51.5924 24.1891 50.097 24.9359 48.4147 24.9359C46.9193 24.9359 46.1716 24.3758 45.9846 24.1891C45.6108 23.8157 45.2369 23.4423 44.8631 22.8822V30.9103H42.2461V6.45251H42.433ZM45.05 17.2811C45.05 18.7748 45.05 20.2684 45.9846 21.3886C46.5454 22.3221 47.2931 22.5088 48.2277 22.5088C49.3493 22.5088 50.2839 21.762 50.6578 21.0152C51.2186 20.0817 51.4055 16.9077 51.4055 15.2274C51.4055 13.9205 51.4055 10.9333 50.4709 9.43972C49.9101 8.50622 49.3493 8.13281 48.4147 8.13281C47.2931 8.13281 46.5454 8.87962 46.1716 9.25302C45.4239 10.1865 45.05 12.2402 45.05 13.9205V17.2811Z" fill="#606060"/>
<path d="M66.5459 7.75941C68.2283 9.81312 68.6021 13.1737 68.6021 15.6008C68.6021 18.4013 68.0413 21.762 66.5459 23.4423C65.6113 24.3758 64.3028 25.1226 62.8074 25.1226C61.312 25.1226 59.8166 24.3758 59.0689 23.4423C57.5735 21.762 57.0127 18.588 57.0127 15.6008C57.0127 13.3604 57.3865 9.81312 59.0689 7.75941C60.0035 6.63921 61.312 6.0791 62.8074 6.0791C64.3028 6.0791 65.6113 6.63921 66.5459 7.75941ZM60.0035 20.6418C60.5643 22.5088 61.8728 22.8822 62.6205 22.8822C63.3682 22.8822 64.6767 22.5088 65.2375 20.6418C65.6113 19.3349 65.7982 17.0944 65.7982 15.6008C65.7982 14.1072 65.6113 11.6801 65.2375 10.5599C64.6767 8.50621 63.1813 8.31952 62.6205 8.31952C62.2466 8.31952 60.5643 8.50621 60.0035 10.5599C59.6297 11.6801 59.4427 14.1072 59.4427 15.6008C59.4427 16.9077 59.6297 19.3349 60.0035 20.6418Z" fill="#606060"/>
<path d="M80.0053 12.4269C80.0053 11.3067 79.4445 9.81311 78.8837 9.06631C78.5099 8.69291 77.7622 8.13281 77.0145 8.13281C76.0798 8.13281 75.3321 8.50622 74.9583 9.25302C74.5844 9.81312 74.0236 11.3067 74.0236 15.0407C74.0236 18.7748 74.2106 20.8285 74.9583 21.762C75.3321 22.3221 76.0798 22.8822 77.0145 22.8822C77.7622 22.8822 78.6968 22.5088 79.2576 21.762C79.6314 21.0152 80.0053 19.895 80.1922 18.7748L82.6223 19.1482C82.4353 20.8285 81.6876 22.8822 80.753 23.8157C80.1922 24.3758 79.0706 25.1226 77.2014 25.1226C75.519 25.1226 74.0236 24.3758 73.089 23.4423C72.1544 22.5088 71.2197 20.6418 71.2197 15.9742C71.2197 10.7466 72.5282 8.69292 73.4628 7.57271C74.7713 6.26581 76.0798 6.0791 77.2014 6.0791C78.3229 6.0791 79.4445 6.2658 80.5661 7.1993C81.6876 8.13281 82.2484 9.99981 82.4353 11.8668L80.0053 12.4269Z" fill="#606060"/>
<path d="M93.0893 12.4269C93.0893 11.3067 92.5285 9.81311 91.9677 9.06631C91.5939 8.69291 90.8462 8.13281 90.0984 8.13281C89.1638 8.13281 88.4161 8.50622 88.0422 9.25302C87.6684 9.81312 87.1076 11.3067 87.1076 15.0407C87.1076 18.7748 87.2945 20.8285 88.0422 21.762C88.4161 22.3221 89.1638 22.8822 90.0984 22.8822C90.8462 22.8822 91.7808 22.5088 92.3416 21.762C92.7154 21.0152 93.0893 19.895 93.2762 18.7748L95.7062 19.1482C95.5193 20.8285 94.7716 22.8822 93.837 23.8157C93.2762 24.3758 92.1546 25.1226 90.2854 25.1226C88.603 25.1226 87.1076 24.3758 86.173 23.4423C85.2383 22.5088 84.3037 20.6418 84.3037 15.9742C84.3037 10.7466 85.6122 8.69292 86.5468 7.57271C87.8553 6.26581 89.1638 6.0791 90.2854 6.0791C91.4069 6.0791 92.5285 6.2658 93.65 7.1993C94.7716 8.13281 95.3324 9.99981 95.5193 11.8668L93.0893 12.4269Z" fill="#606060"/>
<path d="M98.5107 6.45312H100.941V17.8419V19.7089L101.688 17.8419L106.362 7.57333V6.45312H108.979V24.5631H106.362V13.361L106.549 11.3073L105.801 13.361L100.941 23.4429V24.5631H98.5107V6.45312Z" fill="#606060"/>
<path d="M113.465 6.45295H116.082V17.8417L115.895 19.7087L116.643 17.8417L121.503 7.38645V6.26624H124.12V24.5629H121.503V13.3609L121.69 11.3072L120.942 13.3609L116.082 23.4427V24.5629H113.465V6.45295ZM122.811 0.478516C122.811 1.59872 122.437 2.53222 121.69 3.27903C120.755 4.21253 119.633 4.39923 118.699 4.39923C117.764 4.39923 116.456 4.21253 115.521 3.27903C114.773 2.53222 114.399 1.41202 114.399 0.478516H116.643C116.643 1.22532 116.83 1.78542 117.016 2.15883C117.39 2.71893 117.951 2.90563 118.512 2.90563C119.073 2.90563 119.633 2.71893 120.007 2.15883C120.194 1.78542 120.568 1.22532 120.381 0.478516H122.811Z" fill="#606060"/>
<path d="M136.27 12.4269C136.27 11.3067 135.709 9.81311 135.148 9.06631C134.774 8.69291 134.027 8.13281 133.279 8.13281C132.344 8.13281 131.597 8.50622 131.223 9.25302C130.849 9.81312 130.288 11.3067 130.288 15.0407C130.288 18.7748 130.475 20.8285 131.223 21.762C131.597 22.3221 132.344 22.8822 133.279 22.8822C134.027 22.8822 134.961 22.5088 135.522 21.762C135.896 21.0152 136.27 19.895 136.457 18.7748L138.887 19.1482C138.7 20.8285 137.952 22.8822 137.018 23.8157C136.457 24.3758 135.335 25.1226 133.466 25.1226C131.784 25.1226 130.288 24.3758 129.354 23.4423C128.419 22.5088 127.484 20.6418 127.484 15.9742C127.484 10.7466 128.793 8.69292 129.727 7.57271C131.036 6.26581 132.344 6.0791 133.466 6.0791C134.588 6.0791 135.709 6.2658 136.831 7.1993C137.952 8.13281 138.513 9.99981 138.7 11.8668L136.27 12.4269Z" fill="#606060"/>
<path d="M141.504 24.5625V6.45251H144.121V13.9205H145.803C146.551 13.9205 147.299 13.7338 147.672 12.4269C147.859 11.8668 147.859 11.12 148.046 10.1865C148.046 9.43972 148.233 8.69291 148.42 7.94611C148.981 6.2658 150.103 6.0791 150.663 6.0791C150.85 6.0791 151.411 6.2658 151.598 6.2658V8.31952C151.224 8.31952 150.85 8.50622 150.85 8.50622C150.663 8.69292 150.476 9.25302 150.476 10.1865C150.289 11.8668 150.289 12.4269 150.103 12.987C149.729 14.1072 149.168 14.4806 148.233 14.854C149.729 15.2274 150.103 16.5343 150.289 17.4678C150.663 18.9615 150.663 20.8285 150.85 21.762C151.037 21.9487 151.224 22.6955 152.159 22.3221V24.5625C151.785 24.7492 151.598 24.7492 151.037 24.7492C149.168 24.7492 148.794 23.4423 148.42 22.6955C148.233 22.1354 148.046 21.0152 147.859 18.9615C147.672 18.2147 147.672 17.2812 147.299 16.7211C146.925 16.3477 146.551 16.1609 145.99 16.1609H144.308V24.5625H141.504Z" fill="#606060"/>
<path d="M154.401 6.45312H157.018V17.8419L156.831 19.7089L157.579 17.8419L162.439 7.57333V6.45312H165.056V24.5631H162.439V13.361L162.626 11.3073L161.692 13.361L157.018 23.4429V24.5631H154.401V6.45312Z" fill="#606060"/>
<path d="M169.355 6.45295H171.972V17.8417L171.786 19.7087L172.533 17.8417L177.393 7.38645V6.26624H180.01V24.5629H177.393V13.3609L177.58 11.3072L176.833 13.3609L171.972 23.4427V24.5629H169.355V6.45295ZM178.702 0.478516C178.702 1.59872 178.328 2.53222 177.58 3.27903C176.646 4.21253 175.524 4.39923 174.589 4.39923C173.655 4.39923 172.346 4.21253 171.412 3.27903C170.664 2.53222 170.29 1.41202 170.29 0.478516H172.533C172.533 1.22532 172.72 1.78542 172.907 2.15883C173.281 2.71893 173.842 2.90563 174.402 2.90563C174.963 2.90563 175.524 2.71893 175.898 2.15883C176.085 1.78542 176.459 1.22532 176.272 0.478516H178.702Z" fill="#606060"/>
<path d="M192.722 24.5625V6.45251H195.339V13.9205H197.021C197.769 13.9205 198.516 13.7338 198.89 12.4269C199.077 11.8668 199.077 11.12 199.264 10.1865C199.264 9.43972 199.451 8.69291 199.638 7.94611C200.199 6.2658 201.32 6.0791 201.881 6.0791C202.068 6.0791 202.629 6.2658 202.816 6.2658V8.31952C202.442 8.31952 202.068 8.50622 202.068 8.50622C201.881 8.69292 201.694 9.25302 201.694 10.1865C201.507 11.8668 201.507 12.4269 201.32 12.987C200.946 14.1072 200.386 14.4806 199.451 14.854C200.946 15.2274 201.32 16.5343 201.507 17.4678C201.881 18.9615 201.881 20.8285 202.068 21.762C202.255 21.9487 202.442 22.6955 203.376 22.3221V24.5625C203.003 24.7492 202.816 24.7492 202.255 24.7492C200.386 24.7492 200.012 23.4423 199.638 22.6955C199.451 22.1354 199.264 21.0152 199.077 18.9615C198.89 18.2147 198.89 17.2812 198.516 16.7211C198.143 16.3477 197.769 16.1609 197.208 16.1609H195.526V24.5625H192.722Z" fill="#606060"/>
<path d="M214.779 7.75941C216.462 9.81312 216.836 13.1737 216.836 15.6008C216.836 18.4013 216.275 21.762 214.779 23.4423C213.845 24.3758 212.536 25.1226 211.041 25.1226C209.545 25.1226 208.05 24.3758 207.302 23.4423C205.807 21.762 205.246 18.588 205.246 15.6008C205.246 13.3604 205.62 9.81312 207.302 7.75941C208.237 6.63921 209.545 6.0791 211.041 6.0791C212.536 6.0791 213.845 6.63921 214.779 7.75941ZM208.424 20.6418C208.985 22.5088 210.293 22.8822 211.041 22.8822C211.789 22.8822 213.097 22.5088 213.658 20.6418C214.032 19.3349 214.219 17.0944 214.219 15.6008C214.219 14.1072 214.032 11.6801 213.658 10.5599C213.097 8.50621 211.602 8.31952 211.041 8.31952C210.667 8.31952 209.172 8.50621 208.424 10.5599C208.05 11.6801 207.863 14.1072 207.863 15.6008C207.863 16.9077 207.863 19.3349 208.424 20.6418Z" fill="#606060"/>
<path d="M220.387 6.45312H223.004V13.9212H228.238V6.45312H230.855V24.5631H228.238V16.1616H223.004V24.5631H220.387V6.45312Z" fill="#606060"/>
<path d="M235.154 24.5625V6.45251H237.771V13.9205H239.454C240.201 13.9205 240.949 13.7338 241.323 12.4269C241.51 11.8668 241.51 11.12 241.697 10.1865C241.697 9.43972 241.884 8.69291 242.071 7.94611C242.631 6.2658 243.753 6.0791 244.314 6.0791C244.501 6.0791 245.061 6.2658 245.248 6.2658V8.31952C244.874 8.31952 244.501 8.50622 244.501 8.50622C244.314 8.69292 244.127 9.25302 244.127 10.1865C243.94 11.8668 243.94 12.4269 243.753 12.987C243.379 14.1072 242.818 14.4806 241.884 14.854C243.379 15.2274 243.753 16.5343 243.94 17.4678C244.314 18.9615 244.314 20.8285 244.501 21.762C244.688 21.9487 244.875 22.6955 245.809 22.3221V24.5625C245.435 24.7492 245.248 24.7492 244.688 24.7492C242.818 24.7492 242.444 23.4423 242.071 22.6955C241.884 22.1354 241.697 21.0152 241.51 18.9615C241.323 18.2147 241.323 17.2812 240.949 16.7211C240.575 16.3477 240.201 16.1609 239.641 16.1609H237.958V24.5625H235.154Z" fill="#606060"/>
<path d="M248.8 6.45312L251.791 18.9621L254.969 6.45312H257.399L252.165 26.2434C251.791 27.3636 251.23 29.0439 250.482 29.9774C249.548 30.9109 248.613 31.0976 247.865 31.0976C247.305 31.0976 246.744 30.9109 246.37 30.9109V28.6705C246.744 28.8572 247.118 29.0439 247.678 29.0439C248.613 29.0439 248.8 28.6705 249.174 27.9237C249.361 27.3636 249.735 26.2434 249.735 25.87L250.295 23.6296L245.996 6.82652H248.8V6.45312Z" fill="#606060"/>
<path d="M258.52 6.45251H260.95V9.43972C261.137 8.69292 261.511 7.75941 262.072 7.1993C263.006 6.2658 263.941 6.0791 264.689 6.0791C266.371 6.0791 267.492 6.8259 268.427 8.13281C269.736 9.99981 270.109 13.1737 270.109 15.2274C270.109 17.2811 269.736 20.2684 268.801 22.1354C267.679 24.1891 266.184 24.9359 264.502 24.9359C263.006 24.9359 262.258 24.3758 262.072 24.1891C261.698 23.8157 261.324 23.4423 260.95 22.8822V30.9103H258.333V6.45251H258.52ZM261.137 17.2811C261.137 18.7748 261.137 20.2684 262.072 21.3886C262.632 22.3221 263.38 22.5088 264.315 22.5088C265.436 22.5088 266.371 21.762 266.745 21.0152C267.305 20.0817 267.492 16.9077 267.492 15.2274C267.492 13.9205 267.492 10.9333 266.558 9.43972C265.997 8.50622 265.436 8.13281 264.502 8.13281C263.38 8.13281 262.632 8.87962 262.258 9.25302C261.511 10.1865 261.137 12.2402 261.137 13.9205V17.2811Z" fill="#606060"/>
<path d="M281.512 12.4271C281.512 11.3069 280.951 9.81329 280.39 9.06649C280.016 8.69308 279.268 8.13298 278.521 8.13298C277.586 8.13298 276.838 8.50639 276.465 9.2532C276.091 9.8133 275.53 11.3069 275.53 15.0409C275.53 18.7749 275.717 20.8286 276.465 21.7621C276.838 22.3222 277.586 22.8823 278.521 22.8823C279.268 22.8823 280.203 22.5089 280.764 21.7621C281.138 21.0153 281.512 19.8951 281.698 18.7749L283.942 18.9616C283.755 20.6419 283.007 22.6956 282.072 23.6291C281.512 24.1893 280.39 24.936 278.521 24.936C276.838 24.936 275.343 24.1893 274.408 23.2558C273.474 22.3223 272.539 20.4552 272.539 15.7877C272.539 10.5601 273.848 8.50639 274.782 7.38619C276.091 6.07928 277.399 5.89258 278.521 5.89258C279.642 5.89258 280.764 6.07928 281.885 7.01278C283.007 7.94628 283.568 9.81329 283.755 11.6803L281.512 12.4271Z" fill="#606060"/>
<path d="M295.157 6.45312H305.625V24.5631H303.008V8.50683H297.774V24.5631H295.157V6.45312Z" fill="#606060"/>
<path d="M311.794 15.7877C311.794 17.2813 311.981 20.0818 312.728 21.3887C313.289 22.3223 314.411 22.6956 315.345 22.6956C316.093 22.6956 316.841 22.3222 317.215 21.7621C317.775 21.202 318.149 19.7084 318.336 18.9616L320.579 19.5217C320.392 20.0818 320.205 21.202 319.645 22.1355C318.523 24.1892 316.841 24.7494 315.158 24.7494C313.289 24.7494 311.794 24.1893 310.672 22.5089C309.364 20.4552 309.177 17.468 309.177 15.601C309.177 12.8005 309.551 9.81329 311.046 7.94628C312.355 6.07928 313.85 5.89258 314.971 5.89258C316.28 5.89258 317.775 6.07928 319.084 7.75959C320.205 9.25319 320.953 11.4936 320.953 15.7877H311.794ZM318.149 13.734C318.149 11.3069 317.775 10.1867 317.402 9.4399C317.028 8.69309 316.093 8.13298 315.158 8.13298C314.411 8.13298 313.476 8.50639 312.915 9.4399C312.355 10.3734 312.168 11.6803 311.981 13.5473H318.149V13.734Z" fill="#606060"/>
<path d="M333.477 24.5631H323.757V29.0439H321.514V22.5094H323.009C323.944 20.8291 324.504 18.9621 324.878 16.9084C325.252 14.4813 325.626 9.44035 325.626 6.45312H334.038V22.5094H335.72V29.0439H333.477V24.5631ZM331.608 22.5094V8.69353H327.869C327.682 10.7472 327.495 14.2945 327.308 16.535C326.935 18.5887 326.561 20.4557 325.813 22.5094H331.608Z" fill="#606060"/>
<path d="M346.75 24.5625C346.376 23.4423 346.376 22.5088 346.376 21.9487C346.189 22.6955 345.628 23.629 345.067 24.0024C344.133 24.7492 343.198 24.9359 342.263 24.9359C340.394 24.9359 339.273 24.0024 338.712 23.629C337.964 22.8822 337.403 21.5753 337.403 19.7083C337.403 16.1609 339.273 14.6673 340.581 14.1072C342.263 13.3604 344.507 13.1737 346.002 13.3604C346.002 11.12 346.002 9.81311 345.441 9.06631C345.067 8.69291 344.506 8.13281 343.385 8.13281C342.637 8.13281 341.703 8.31952 340.955 9.43972C340.581 9.99982 340.394 11.12 340.394 11.4934L337.964 10.9333C338.151 9.62641 338.899 8.31952 339.646 7.57271C340.955 6.26581 342.45 6.0791 343.759 6.0791C344.507 6.0791 345.815 6.26581 346.937 6.82591C348.806 8.13281 348.806 10.1865 348.806 12.987V20.2684C348.806 21.3886 348.806 22.8822 348.993 24.5625H346.75ZM341.142 16.7211C340.581 17.4679 340.207 18.7748 340.207 19.7083C340.207 20.4551 340.394 21.5753 340.955 22.1354C341.329 22.5088 342.076 22.8822 342.637 22.8822C343.385 22.8822 344.506 22.5088 345.254 21.2019C346.002 19.7083 346.189 17.8412 346.189 15.4141C344.133 15.2274 342.263 15.4141 341.142 16.7211Z" fill="#606060"/>
<path d="M352.918 6.45312H362.077V8.50683H355.535V24.5631H352.918V6.45312Z" fill="#606060"/>
<path d="M372.171 7.75941C373.853 9.81312 374.227 13.1737 374.227 15.6008C374.227 18.4013 373.666 21.762 372.171 23.4423C371.236 24.3758 369.928 25.1226 368.432 25.1226C366.937 25.1226 365.442 24.3758 364.694 23.4423C363.198 21.762 362.638 18.588 362.638 15.6008C362.638 13.3604 363.012 9.81312 364.694 7.75941C365.629 6.63921 366.937 6.0791 368.432 6.0791C369.928 6.0791 371.236 6.63921 372.171 7.75941ZM365.815 20.6418C366.376 22.5088 367.685 22.8822 368.432 22.8822C369.18 22.8822 370.489 22.5088 371.049 20.6418C371.423 19.3349 371.61 17.0944 371.61 15.6008C371.61 14.1072 371.423 11.6801 371.049 10.5599C370.489 8.50621 368.993 8.31952 368.432 8.31952C368.059 8.31952 366.563 8.50621 365.815 10.5599C365.442 11.6801 365.255 14.1072 365.255 15.6008C365.255 16.9077 365.442 19.3349 365.815 20.6418Z" fill="#606060"/>
<path d="M377.779 6.45312H386.939V8.50683H380.396V24.5631H377.779V6.45312Z" fill="#606060"/>
<path d="M397.032 7.75941C398.715 9.81312 399.088 13.1737 399.088 15.6008C399.088 18.4013 398.528 21.762 397.032 23.4423C396.098 24.3758 394.789 25.1226 393.294 25.1226C391.798 25.1226 390.303 24.3758 389.555 23.4423C388.06 21.762 387.499 18.588 387.499 15.6008C387.499 13.3604 387.873 9.81312 389.555 7.75941C390.49 6.63921 391.798 6.0791 393.294 6.0791C394.976 6.0791 396.098 6.63921 397.032 7.75941ZM390.677 20.6418C391.238 22.5088 392.546 22.8822 393.294 22.8822C394.041 22.8822 395.35 22.5088 395.911 20.6418C396.285 19.3349 396.472 17.0944 396.472 15.6008C396.472 14.1072 396.285 11.6801 395.911 10.5599C395.35 8.50621 393.855 8.31952 393.294 8.31952C392.92 8.31952 391.425 8.50621 390.677 10.5599C390.303 11.6801 390.116 14.1072 390.116 15.6008C390.116 16.9077 390.303 19.3349 390.677 20.6418Z" fill="#606060"/>
<path d="M402.64 6.45312H408.809C410.491 6.45312 411.426 7.01322 411.799 7.57333C412.547 8.32013 412.921 9.62703 412.921 10.9339C412.921 11.6807 412.734 12.6142 412.36 13.361C411.799 14.2946 411.239 14.8547 410.491 15.0414C411.613 15.4148 412.173 16.1616 412.547 16.535C413.108 17.2818 413.295 18.5887 413.295 19.5222C413.295 21.0158 412.921 22.3227 411.986 23.2562C411.426 23.8163 410.491 24.5631 408.809 24.5631H402.453V6.45312H402.64ZM407.5 13.9212C408.622 13.9212 409.183 13.5478 409.556 13.1743C410.117 12.6142 410.304 11.6807 410.304 10.9339C410.304 10.0004 410.117 9.44033 409.556 8.88023C408.996 8.50682 408.435 8.32014 407.687 8.32014H405.257V13.9212H407.5ZM407.5 22.5094C408.061 22.5094 408.996 22.5094 409.743 21.9493C410.304 21.3892 410.678 20.4557 410.678 19.3355C410.678 18.402 410.304 17.2818 409.743 16.7217C409.182 16.1616 408.061 15.9749 407.5 15.9749H405.07V22.5094H407.5Z" fill="#606060"/>
<path d="M425.445 6.45312H428.249V23.8312H435.352V6.45312H438.156V23.8312H440.213V30.1638H437.596V25.7457H425.445V6.45312Z" fill="#606060"/>
<path d="M444.325 15.7877C444.325 17.2813 444.512 20.0818 445.26 21.3887C445.82 22.3223 446.942 22.6956 447.877 22.6956C448.624 22.6956 449.372 22.3222 449.746 21.7621C450.307 21.202 450.68 19.7084 450.867 18.9616L453.111 19.5217C452.924 20.0818 452.737 21.202 452.176 22.1355C451.054 24.1892 449.372 24.7494 447.69 24.7494C445.82 24.7494 444.325 24.1893 443.203 22.5089C441.895 20.4552 441.708 17.468 441.708 15.601C441.708 12.8005 442.082 9.81329 443.577 7.94628C444.886 6.07928 446.381 5.89258 447.503 5.89258C448.811 5.89258 450.307 6.07928 451.615 7.75959C452.737 9.25319 453.484 11.4936 453.484 15.7877H444.325ZM450.681 13.734C450.681 11.3069 450.307 10.1867 449.933 9.4399C449.559 8.69309 448.624 8.13298 447.69 8.13298C446.942 8.13298 446.007 8.50639 445.447 9.4399C444.886 10.3734 444.699 11.6803 444.512 13.5473H450.681V13.734Z" fill="#606060"/>
<path d="M456.475 6.45312H459.092V13.9212H464.326V6.45312H466.943V24.5631H464.326V16.1616H459.092V24.5631H456.475V6.45312Z" fill="#606060"/>
<path d="M472.924 8.50683H468.438V6.45312H479.841V8.50683H475.355V24.5631H472.924V8.50683Z" fill="#606060"/>
<path d="M481.336 6.45251H483.766V9.43972C483.953 8.69292 484.327 7.75941 484.888 7.1993C485.823 6.2658 486.757 6.0791 487.505 6.0791C489.187 6.0791 490.309 6.8259 491.243 8.13281C492.552 9.99981 492.926 13.1737 492.926 15.2274C492.926 17.2811 492.552 20.2684 491.617 22.1354C490.496 24.1891 489 24.9359 487.318 24.9359C485.823 24.9359 485.075 24.3758 484.888 24.1891C484.514 23.8157 484.14 23.4423 483.766 22.8822V30.9103H481.149V6.45251H481.336ZM483.953 17.2811C483.953 18.7748 483.953 20.2684 484.888 21.3886C485.449 22.3221 486.196 22.5088 487.131 22.5088C488.253 22.5088 489.187 21.762 489.561 21.0152C490.122 20.0817 490.309 16.9077 490.309 15.2274C490.309 13.9205 490.309 10.9333 489.374 9.43972C488.813 8.50622 488.253 8.13281 487.318 8.13281C486.196 8.13281 485.449 8.87962 485.075 9.25302C484.327 10.1865 483.953 12.2402 483.953 13.9205V17.2811Z" fill="#606060"/>
<path d="M505.45 7.75941C507.133 9.81312 507.506 13.1737 507.506 15.6008C507.506 18.4013 506.946 21.762 505.45 23.4423C504.516 24.3758 503.207 25.1226 501.712 25.1226C500.216 25.1226 498.721 24.3758 497.973 23.4423C496.478 21.762 495.917 18.588 495.917 15.6008C495.917 13.3604 496.291 9.81312 497.973 7.75941C498.908 6.63921 500.216 6.0791 501.712 6.0791C503.207 6.0791 504.516 6.63921 505.45 7.75941ZM498.908 20.6418C499.469 22.5088 500.777 22.8822 501.525 22.8822C502.272 22.8822 503.581 22.5088 504.142 20.6418C504.516 19.3349 504.703 17.0944 504.703 15.6008C504.703 14.1072 504.516 11.6801 504.142 10.5599C503.581 8.50621 502.086 8.31952 501.525 8.31952C501.151 8.31952 499.656 8.50621 498.908 10.5599C498.534 11.6801 498.347 14.1072 498.347 15.6008C498.347 16.9077 498.534 19.3349 498.908 20.6418Z" fill="#606060"/>
<path d="M511.058 6.45312H517.227C518.909 6.45312 519.844 7.01322 520.217 7.57333C520.965 8.32013 521.339 9.62703 521.339 10.9339C521.339 11.6807 521.152 12.6142 520.778 13.361C520.217 14.2946 519.657 14.8547 518.909 15.0414C520.031 15.4148 520.591 16.1616 520.965 16.535C521.526 17.2818 521.713 18.5887 521.713 19.5222C521.713 21.0158 521.339 22.3227 520.404 23.2562C519.844 23.8163 518.909 24.5631 517.227 24.5631H510.871V6.45312H511.058ZM515.918 13.9212C517.04 13.9212 517.6 13.5478 517.974 13.1743C518.535 12.6142 518.722 11.6807 518.722 10.9339C518.722 10.0004 518.535 9.44033 517.974 8.88023C517.414 8.50682 516.853 8.32014 516.105 8.32014H513.675V13.9212H515.918ZM515.918 22.5094C516.479 22.5094 517.414 22.5094 518.161 21.9493C518.722 21.3892 519.096 20.4557 519.096 19.3355C519.096 18.402 518.722 17.2818 518.161 16.7217C517.6 16.1616 516.479 15.9749 515.918 15.9749H513.488V22.5094H515.918Z" fill="#606060"/>
<path d="M0 44.353H2.61698V60.4093H7.85091V44.353H10.281V60.4093H12.1502V66.7571H9.90712V62.463H0V44.353Z" fill="#606060"/>
<path d="M14.3936 44.353H17.0105V55.7418L16.8236 57.7955L17.7582 55.9285L22.4314 45.4732V44.353H25.0484V62.463H22.4314V51.261L22.6183 49.394L21.8706 51.261L17.0105 61.3428V62.463H14.3936V44.353Z" fill="#606060"/>
<path d="M38.3198 38.0054V43.9798C40.7498 43.9798 42.4322 45.2867 43.3668 46.2202C45.423 48.4606 45.6099 51.4478 45.6099 53.5015C45.6099 56.1154 45.0491 58.7292 43.7406 60.4095C42.9929 61.343 41.3106 63.0233 38.3198 63.0233V68.811H35.8897V63.0233C32.8989 63.0233 31.2166 61.343 30.4689 60.4095C29.1604 58.7292 28.5996 56.1154 28.5996 53.5015C28.5996 52.3813 28.5996 48.6473 30.8427 46.2202C31.7774 45.2867 33.2728 43.9798 35.8897 43.9798V38.0054H38.3198ZM35.8897 46.2202C33.4597 46.4069 32.5251 47.9005 32.1512 48.834C31.7774 49.3941 31.4035 50.701 31.4035 53.5015C31.4035 56.8622 31.9643 58.3558 32.3381 58.7292C33.2728 60.5962 34.9551 60.9696 35.8897 60.9696V46.2202ZM38.1328 60.7829C39.2544 60.7829 40.7498 60.4095 41.6845 58.5425C41.8714 58.1691 42.6191 56.6755 42.6191 53.3148C42.6191 50.5143 42.2452 49.2074 41.8714 48.6473C41.4975 47.9005 40.5629 46.4069 38.1328 46.0335V60.7829Z" fill="#606060"/>
<path d="M48.975 44.3529H51.405V47.3401C51.592 46.5933 51.9658 45.6598 52.5266 45.0997C53.4613 44.1662 54.3959 43.9795 55.1436 43.9795C56.8259 43.9795 57.9475 44.7263 58.8821 46.0332C60.1906 47.9002 60.5644 51.0741 60.5644 53.1278C60.5644 55.1815 60.1906 58.1687 59.256 60.0358C58.1344 62.0895 56.639 62.8363 54.9566 62.8363C53.4612 62.8363 52.7135 62.2762 52.5266 62.0895C52.1528 61.7161 51.7789 61.3427 51.405 60.7826V68.8107H48.7881V44.3529H48.975ZM51.592 55.3682C51.592 56.8618 51.592 58.3554 52.5266 59.4756C53.0874 60.4092 53.8351 60.5959 54.7697 60.5959C55.8913 60.5959 56.8259 59.8491 57.1998 59.1023C57.7606 58.1687 57.9475 54.9948 57.9475 53.3145C57.9475 52.0076 57.9475 49.0204 57.0128 47.5268C56.4521 46.5933 55.8913 46.2199 54.9566 46.2199C53.8351 46.2199 53.0874 46.9667 52.7135 47.3401C51.9658 48.2736 51.592 50.3273 51.592 52.0076V55.3682Z" fill="#606060"/>
<path d="M72.9014 45.6598C74.5838 47.7135 74.9576 51.0741 74.9576 53.5012C74.9576 56.3017 74.3968 59.6623 72.9014 61.3427C71.9668 62.2762 70.6583 63.023 69.1629 63.023C67.6675 63.023 66.1721 62.2762 65.4244 61.3427C63.929 59.6623 63.3682 56.4884 63.3682 53.5012C63.3682 51.2608 63.742 47.7135 65.4244 45.6598C66.359 44.5396 67.6675 43.9795 69.1629 43.9795C70.6583 43.9795 71.9668 44.7263 72.9014 45.6598ZM66.5459 58.5421C67.1067 60.4091 68.4152 60.7826 69.1629 60.7826C69.9106 60.7826 71.2191 60.4091 71.7799 58.5421C72.1537 57.2352 72.3406 54.9948 72.3406 53.5012C72.3406 52.0076 72.1537 49.5805 71.7799 48.4603C71.2191 46.4066 69.7237 46.2199 69.1629 46.2199C68.789 46.2199 67.2936 46.4066 66.5459 48.4603C66.1721 49.5805 65.9852 52.0076 65.9852 53.5012C65.9852 54.9948 66.1721 57.2352 66.5459 58.5421Z" fill="#606060"/>
<path d="M78.5092 44.353H84.6778C86.3601 44.353 87.2947 44.9131 87.6686 45.4732C88.4163 46.22 88.7902 47.5269 88.7902 48.8338C88.7902 49.5807 88.6032 50.5142 88.2294 51.261C87.6686 52.1945 87.1078 52.7546 86.3601 52.9413C87.4817 53.3147 88.0425 54.0615 88.4163 54.4349C88.9771 55.1817 89.164 56.4886 89.164 57.4221C89.164 58.9157 88.7902 60.2226 87.8555 61.1561C87.2948 61.7162 86.3601 62.463 84.6778 62.463H78.3223V44.353H78.5092ZM83.3693 52.0078C84.4909 52.0078 85.0516 51.6344 85.4255 51.261C85.9863 50.7009 86.1732 49.7673 86.1732 49.0205C86.1732 48.087 85.9863 47.5269 85.4255 46.9668C84.8647 46.5934 84.3039 46.4067 83.5562 46.4067H81.1262V52.0078H83.3693ZM83.3693 60.596C83.9301 60.596 84.8647 60.596 85.6124 60.0359C86.1732 59.4758 86.5471 58.5423 86.5471 57.4221C86.5471 56.4886 86.1732 55.3684 85.6124 54.8083C85.0516 54.2482 83.9301 54.0615 83.3693 54.0615H80.9393V60.596H83.3693Z" fill="#606060"/>
<path d="M101.689 45.6598C103.371 47.7135 103.745 51.0741 103.745 53.5012C103.745 56.3017 103.184 59.6623 101.689 61.3427C100.754 62.2762 99.4454 63.023 97.95 63.023C96.4546 63.023 94.9592 62.2762 94.2114 61.3427C92.716 59.6623 92.1553 56.4884 92.1553 53.5012C92.1553 51.2608 92.5291 47.7135 94.2114 45.6598C95.1461 44.5396 96.4546 43.9795 97.95 43.9795C99.4454 43.9795 100.754 44.7263 101.689 45.6598ZM95.333 58.5421C95.8938 60.4091 97.2023 60.7826 97.95 60.7826C98.6977 60.7826 100.006 60.4091 100.567 58.5421C100.941 57.2352 101.128 54.9948 101.128 53.5012C101.128 52.0076 100.941 49.5805 100.567 48.4603C100.006 46.4066 98.5108 46.2199 97.95 46.2199C97.5761 46.2199 96.0807 46.4066 95.333 48.4603C94.9592 49.5805 94.7722 52.0076 94.7722 53.5012C94.7722 54.9948 94.9592 57.2352 95.333 58.5421Z" fill="#606060"/>
<path d="M107.296 44.353H116.455V46.5934H109.913V62.463H107.296V44.353Z" fill="#606060"/>
<path d="M126.549 45.6598C128.231 47.7135 128.605 51.0741 128.605 53.5012C128.605 56.3017 128.044 59.6623 126.549 61.3427C125.614 62.2762 124.306 63.023 122.81 63.023C121.315 63.023 119.82 62.2762 119.072 61.3427C117.576 59.6623 117.016 56.4884 117.016 53.5012C117.016 51.2608 117.389 47.7135 119.072 45.6598C120.006 44.5396 121.315 43.9795 122.81 43.9795C124.306 43.9795 125.614 44.7263 126.549 45.6598ZM120.193 58.5421C120.754 60.4091 122.063 60.7826 122.81 60.7826C123.558 60.7826 124.867 60.4091 125.427 58.5421C125.801 57.2352 125.988 54.9948 125.988 53.5012C125.988 52.0076 125.801 49.5805 125.427 48.4603C124.867 46.4066 123.371 46.2199 122.81 46.2199C122.436 46.2199 120.941 46.4066 120.193 48.4603C119.82 49.5805 119.633 52.0076 119.633 53.5012C119.633 54.9948 119.82 57.2352 120.193 58.5421Z" fill="#606060"/>
<path d="M149.355 45.6598C151.037 47.7135 151.411 51.0741 151.411 53.5012C151.411 56.3017 150.85 59.6623 149.355 61.3427C148.42 62.2762 147.111 63.023 145.616 63.023C144.121 63.023 142.625 62.2762 141.877 61.3427C140.382 59.6623 139.821 56.4884 139.821 53.5012C139.821 51.2608 140.195 47.7135 141.877 45.6598C142.812 44.5396 144.121 43.9795 145.616 43.9795C147.111 43.9795 148.42 44.7263 149.355 45.6598ZM142.999 58.5421C143.56 60.4091 144.868 60.7826 145.616 60.7826C146.364 60.7826 147.672 60.4091 148.233 58.5421C148.607 57.2352 148.794 54.9948 148.794 53.5012C148.794 52.0076 148.607 49.5805 148.233 48.4603C147.672 46.4066 146.177 46.2199 145.616 46.2199C145.242 46.2199 143.747 46.4066 142.999 48.4603C142.625 49.5805 142.438 52.0076 142.438 53.5012C142.438 54.9948 142.625 57.2352 142.999 58.5421Z" fill="#606060"/>
<path d="M156.645 46.7802C157.58 45.4733 158.888 44.5398 160.57 44.5398C162.627 44.5398 163.935 45.66 164.87 47.3403C165.43 48.6472 165.991 50.5142 165.991 53.3148C165.991 58.169 164.496 60.4094 164.309 60.7828C163.187 62.4631 161.318 63.0232 160.01 63.0232C158.514 63.0232 157.206 62.2764 156.458 61.5296C154.402 59.4759 154.215 55.5552 154.215 52.5679C154.215 50.7009 154.402 48.0871 154.776 45.2866C155.149 42.8595 155.71 40.6191 157.953 39.3122C159.075 38.5654 160.383 38.3787 161.318 38.0053C164.122 37.4452 163.561 37.6319 165.617 37.0718V39.3122C164.683 39.4989 163.935 39.6856 163.187 39.8723C161.692 40.2457 160.757 40.4324 159.823 40.8058C159.075 41.1792 158.327 41.5526 157.766 42.2994C157.019 43.4196 156.645 45.4733 156.645 46.7802ZM162.627 58.5424C163 57.4222 163.187 55.1818 163.187 53.6881C163.187 52.1945 163 49.7674 162.627 48.6472C162.066 47.1536 160.944 46.5935 160.196 46.5935C159.636 46.5935 158.14 46.7802 157.393 49.0206C157.019 50.1408 157.019 52.0078 157.019 53.3148C157.019 54.8084 157.206 57.4222 157.58 58.3557C158.14 60.2227 159.449 60.5961 160.196 60.5961C160.757 60.7828 162.066 60.4094 162.627 58.5424Z" fill="#606060"/>
<path d="M169.542 44.3529H171.972V47.3401C172.159 46.5933 172.533 45.6598 173.094 45.0997C174.029 44.1662 174.963 43.9795 175.711 43.9795C177.393 43.9795 178.515 44.7263 179.449 46.0332C180.758 47.9002 181.132 51.0741 181.132 53.1278C181.132 55.1815 180.758 58.1687 179.823 60.0358C178.702 62.0895 177.206 62.8363 175.524 62.8363C174.029 62.8363 173.281 62.2762 173.094 62.0895C172.72 61.7161 172.346 61.3427 171.972 60.7826V68.8107H169.355V44.3529H169.542ZM172.159 55.3682C172.159 56.8618 172.159 58.3554 173.094 59.4756C173.655 60.4092 174.402 60.5959 175.337 60.5959C176.459 60.5959 177.393 59.8491 177.767 59.1023C178.328 58.1687 178.515 54.9948 178.515 53.3145C178.515 52.0076 178.515 49.0204 177.58 47.5268C177.019 46.5933 176.459 46.2199 175.524 46.2199C174.402 46.2199 173.655 46.9667 173.281 47.3401C172.533 48.2736 172.159 50.3273 172.159 52.0076V55.3682Z" fill="#606060"/>
<path d="M192.908 62.4629C192.534 61.3427 192.534 60.4092 192.534 59.8491C192.347 60.5959 191.786 61.5294 191.226 61.9028C190.291 62.6496 189.356 62.8363 188.422 62.8363C186.552 62.8363 185.431 61.9028 184.87 61.5294C184.122 60.7826 183.562 59.4756 183.562 57.6086C183.562 54.0613 185.431 52.5677 186.739 52.0076C188.422 51.2608 190.665 51.0741 192.16 51.2608C192.16 49.0204 192.16 47.7135 191.599 46.9667C191.226 46.5933 190.665 46.0332 189.543 46.0332C188.795 46.0332 187.861 46.2199 187.113 47.3401C186.739 47.9002 186.552 49.0204 186.552 49.3938L184.122 48.8337C184.309 47.5268 185.057 46.2199 185.805 45.4731C187.113 44.1662 188.609 43.9795 189.917 43.9795C190.665 43.9795 191.973 44.1662 193.095 44.7263C194.964 46.0332 194.964 48.0869 194.964 50.8874V58.1687C194.964 59.289 194.964 60.7826 195.151 62.4629H192.908ZM187.3 54.6214C186.739 55.3682 186.365 56.6751 186.365 57.6086C186.365 58.3554 186.552 59.4757 187.113 60.0358C187.487 60.4092 188.235 60.7826 188.795 60.7826C189.543 60.7826 190.665 60.4092 191.412 59.1023C192.16 57.6086 192.347 55.7416 192.347 53.3145C190.291 53.3145 188.422 53.5012 187.3 54.6214Z" fill="#606060"/>
<path d="M200.759 57.0485C200.759 57.7953 200.946 59.1023 201.32 59.6624C201.88 60.7826 203.002 60.7826 203.75 60.7826C204.497 60.7826 205.432 60.5959 205.993 59.8491C206.554 59.1023 206.554 58.1687 206.554 57.4219C206.554 56.6751 206.367 55.5549 205.619 54.8081C205.058 54.4347 204.124 53.8746 203.002 53.8746H201.88V51.6342H203.002C204.124 51.6342 205.058 51.2608 205.432 50.8874C206.18 50.3273 206.18 49.3938 206.18 48.647C206.18 48.0869 206.18 47.3401 205.619 46.78C205.245 46.4066 204.497 46.0332 203.75 46.0332C202.441 46.0332 201.693 46.78 201.32 47.1534C200.946 47.7135 200.759 48.647 200.572 49.3938L198.329 49.0204C198.516 47.5268 199.263 46.0332 200.198 45.0997C201.32 44.1662 202.815 43.9795 203.75 43.9795C204.871 43.9795 206.367 44.1662 207.488 45.2864C208.236 46.0332 208.61 47.1534 208.61 48.647C208.61 49.5805 208.423 50.514 207.862 51.0741C207.301 51.8209 206.554 52.381 205.432 52.7544C206.367 52.9411 207.114 53.3145 207.675 53.8746C208.423 54.6214 208.797 55.7416 208.797 57.4219C208.797 59.1022 208.236 60.4092 207.488 61.156C206.18 62.4629 204.684 62.8363 203.189 62.8363C201.693 62.8363 200.011 62.6496 198.703 60.9693C197.955 59.8491 197.581 58.1687 197.581 57.0485H200.759Z" fill="#606060"/>
<path d="M221.882 45.6598C223.564 47.7135 223.938 51.0741 223.938 53.5012C223.938 56.3017 223.377 59.6623 221.882 61.3427C220.947 62.2762 219.639 63.023 218.143 63.023C216.648 63.023 215.153 62.2762 214.405 61.3427C212.909 59.6623 212.349 56.4884 212.349 53.5012C212.349 51.2608 212.722 47.7135 214.405 45.6598C215.339 44.5396 216.648 43.9795 218.143 43.9795C219.639 43.9795 220.947 44.7263 221.882 45.6598ZM215.339 58.5421C215.9 60.4091 217.209 60.7826 217.956 60.7826C218.704 60.7826 220.013 60.4091 220.573 58.5421C220.947 57.2352 221.134 54.9948 221.134 53.5012C221.134 52.0076 220.947 49.5805 220.573 48.4603C220.013 46.4066 218.517 46.2199 217.956 46.2199C217.583 46.2199 216.087 46.4066 215.339 48.4603C214.966 49.5805 214.779 52.0076 214.779 53.5012C214.779 54.9948 214.966 57.2352 215.339 58.5421Z" fill="#606060"/>
<path d="M227.49 44.353H233.658C235.341 44.353 236.275 44.9131 236.649 45.4732C237.397 46.22 237.771 47.5269 237.771 48.8338C237.771 49.5807 237.584 50.5142 237.21 51.261C236.649 52.1945 236.088 52.7546 235.341 52.9413C236.462 53.3147 237.023 54.0615 237.397 54.4349C237.958 55.1817 238.144 56.4886 238.144 57.4221C238.144 58.9157 237.771 60.2226 236.836 61.1561C236.275 61.7162 235.341 62.463 233.658 62.463H227.303V44.353H227.49ZM232.35 52.0078C233.471 52.0078 234.032 51.6344 234.406 51.261C234.967 50.7009 235.154 49.7673 235.154 49.0205C235.154 48.087 234.967 47.5269 234.406 46.9668C233.845 46.5934 233.284 46.4067 232.537 46.4067H230.107V52.0078H232.35ZM232.35 60.596C232.911 60.596 233.845 60.596 234.593 60.0359C235.154 59.4758 235.527 58.5423 235.527 57.4221C235.527 56.4886 235.154 55.3684 234.593 54.8083C234.032 54.2482 232.911 54.0615 232.35 54.0615H229.92V60.596H232.35Z" fill="#606060"/>
<path d="M249.921 62.4629C249.547 61.3427 249.547 60.4092 249.547 59.8491C249.36 60.5959 248.799 61.5294 248.238 61.9028C247.304 62.6496 246.369 62.8363 245.434 62.8363C243.565 62.8363 242.443 61.9028 241.883 61.5294C241.135 60.7826 240.574 59.4756 240.574 57.6086C240.574 54.0613 242.443 52.5677 243.752 52.0076C245.434 51.2608 247.677 51.0741 249.173 51.2608C249.173 49.0204 249.173 47.7135 248.612 46.9667C248.238 46.5933 247.677 46.0332 246.556 46.0332C245.808 46.0332 244.874 46.2199 244.126 47.3401C243.752 47.9002 243.565 49.0204 243.565 49.3938L241.135 48.8337C241.322 47.5268 242.07 46.2199 242.817 45.4731C244.126 44.1662 245.621 43.9795 246.93 43.9795C247.677 43.9795 248.986 44.1662 250.107 44.7263C251.977 46.0332 251.977 48.0869 251.977 50.8874V58.1687C251.977 59.289 251.977 60.7826 252.164 62.4629H249.921ZM244.313 54.6214C243.752 55.3682 243.378 56.6751 243.378 57.6086C243.378 58.3554 243.565 59.4757 244.126 60.0358C244.5 60.4092 245.247 60.7826 245.808 60.7826C246.556 60.7826 247.677 60.4092 248.425 59.1023C249.173 57.6086 249.36 55.7416 249.36 53.3145C247.304 53.3145 245.434 53.5012 244.313 54.6214Z" fill="#606060"/>
<path d="M256.09 44.353H258.707V52.0078H263.941V44.353H266.558V62.463H263.941V54.0615H258.707V62.463H256.09V44.353Z" fill="#606060"/>
<path d="M271.044 44.353H273.661V55.7418L273.474 57.7955L274.222 55.9285L279.082 45.4732V44.353H281.512V62.463H279.082V51.261V49.394L278.334 51.261L273.661 61.3428V62.463H271.044V44.353Z" fill="#606060"/>
<path d="M293.475 54.6216H290.671L287.306 62.6497H284.315L288.054 54.4349C287.306 54.2482 286.559 53.6881 286.185 53.128C285.063 52.0078 285.063 50.5142 285.063 49.394C285.063 48.0871 285.25 46.4067 286.932 45.2865C288.241 44.353 289.549 44.353 290.858 44.353H296.279V62.463H293.662V54.6216H293.475ZM293.475 46.5934H290.671C289.923 46.5934 288.802 46.5934 288.241 47.3402C287.867 47.7136 287.493 48.4605 287.493 49.5807C287.493 50.3275 287.68 51.0743 288.054 51.6344C288.802 52.5679 289.736 52.5679 290.671 52.5679H293.475V46.5934Z" fill="#606060"/>
<path d="M318.336 62.463H308.616V66.9438H306.373V60.4093H307.868C308.803 58.729 309.364 56.862 309.738 54.8083C310.112 52.3812 310.485 47.3402 310.485 44.353H318.897V60.4093H320.579V66.9438H318.336V62.463ZM316.467 60.4093V46.5934H312.729C312.542 48.6472 312.355 52.1945 312.168 54.4349C311.794 56.4886 311.42 58.3556 310.672 60.4093H316.467Z" fill="#606060"/>
<path d="M325.065 53.8746C325.065 55.3682 325.252 58.1687 326 59.4756C326.561 60.4091 327.682 60.7826 328.617 60.7826C329.365 60.7826 330.112 60.4092 330.486 59.8491C331.047 59.289 331.421 57.7953 331.608 57.0485L333.851 57.6086C333.664 58.1687 333.477 59.2889 332.916 60.2225C331.795 62.2762 330.112 62.8363 328.43 62.8363C326.561 62.8363 325.065 62.2762 323.944 60.5959C322.635 58.5422 322.448 55.5549 322.448 53.6879C322.448 50.8874 322.822 47.9002 324.318 46.0332C325.626 44.1662 327.121 43.9795 328.243 43.9795C329.551 43.9795 331.047 44.1662 332.355 45.8465C333.477 47.3401 334.225 49.5805 334.225 53.8746H325.065ZM331.421 51.6342C331.421 49.2071 331.047 48.0869 330.673 47.3401C330.299 46.5933 329.365 46.0332 328.43 46.0332C327.682 46.0332 326.748 46.4066 326.187 47.3401C325.626 48.2736 325.439 49.5805 325.252 51.4475H331.421V51.6342Z" fill="#606060"/>
<path d="M339.459 46.5934H334.973V44.353H346.375V46.5934H341.889V62.463H339.459V46.5934Z" fill="#606060"/>
<path d="M349.74 53.8746C349.74 55.3682 349.927 58.1687 350.675 59.4756C351.235 60.4091 352.357 60.7826 353.292 60.7826C354.039 60.7826 354.787 60.4092 355.161 59.8491C355.722 59.289 356.096 57.7953 356.282 57.0485L358.526 57.6086C358.339 58.1687 358.152 59.2889 357.591 60.2225C356.469 62.2762 354.787 62.8363 353.105 62.8363C351.235 62.8363 349.74 62.2762 348.618 60.5959C347.31 58.5422 347.123 55.5549 347.123 53.6879C347.123 50.8874 347.497 47.9002 348.992 46.0332C350.301 44.1662 351.796 43.9795 352.918 43.9795C354.226 43.9795 355.722 44.1662 357.03 45.8465C358.152 47.3401 358.899 49.5805 358.899 53.8746H349.74ZM356.096 51.6342C356.096 49.2071 355.722 48.0869 355.348 47.3401C354.974 46.5933 354.039 46.0332 353.105 46.0332C352.357 46.0332 351.422 46.4066 350.862 47.3401C350.301 48.2736 350.114 49.5805 349.927 51.4475H356.096V51.6342Z" fill="#606060"/>
<path d="M361.703 44.3533H364.32V55.7421L364.133 57.6091L364.881 55.7421L369.741 45.2868V44.1666H372.358V62.2766H369.741V51.0745L369.928 49.0208L369.18 51.0745L364.32 61.1564V62.2766H361.703V44.3533ZM371.049 38.3789C371.049 39.4991 370.676 40.4326 369.928 41.1794C368.993 42.1129 367.872 42.2996 366.937 42.2996C366.002 42.2996 364.694 42.1129 363.759 41.1794C363.012 40.4326 362.638 39.3124 362.638 38.3789H364.881C364.881 39.1257 365.068 39.6858 365.255 40.0592C365.629 40.6193 366.189 40.806 366.75 40.806C367.311 40.806 367.872 40.6193 368.246 40.0592C368.432 39.6858 368.806 39.1257 368.619 38.3789H371.049Z" fill="#606060"/>
<path d="M388.62 58.5425H387.125L384.134 53.3149L387.125 47.7139H388.62L386.938 53.3149L388.62 58.5425ZM392.919 58.5425H391.424L388.433 53.3149L391.424 47.7139H392.919L391.237 53.3149L392.919 58.5425Z" fill="#606060"/>
<path d="M399.276 38.0054H396.472V62.4632H399.276V38.0054Z" fill="#606060"/>
<path d="M405.818 40.4325H401.145V38.0054H413.482V40.4325H408.622V62.4632H405.818V40.4325Z" fill="#606060"/>
<path d="M420.585 52.1943H414.416V54.4347H420.585V52.1943Z" fill="#606060"/>
<path d="M424.137 62.4629V44.3529H426.754V51.8209H428.436C429.184 51.8209 429.931 51.6342 430.305 50.3273C430.492 49.7672 430.492 49.0204 430.679 48.0869C430.679 47.3401 430.866 46.5933 431.053 45.8465C431.614 44.1662 432.735 43.9795 433.296 43.9795C433.483 43.9795 434.044 44.1662 434.231 44.1662V46.2199C433.857 46.2199 433.483 46.4066 433.483 46.4066C433.296 46.5933 433.109 47.1534 433.109 48.0869C432.922 49.7672 432.922 50.3273 432.735 50.8874C432.362 52.0076 431.801 52.381 430.866 52.7544C432.362 53.1278 432.735 54.4347 432.922 55.3682C433.296 56.8618 433.296 58.7289 433.483 59.6624C433.67 59.8491 433.857 60.5959 434.792 60.2225V62.2762C434.418 62.4629 434.231 62.4629 433.67 62.4629C431.801 62.4629 431.427 61.156 431.053 60.4092C430.866 59.849 430.679 58.7288 430.492 56.6751C430.305 55.9283 430.305 54.9948 429.931 54.4347C429.558 54.0613 429.184 53.8746 428.623 53.8746H426.941V62.2762H424.137V62.4629Z" fill="#606060"/>
<path d="M437.782 44.353L440.773 56.862L443.951 44.353H446.381L441.147 64.1433C440.773 65.2635 440.212 66.9438 439.465 67.8773C438.53 68.8108 437.595 68.9975 436.848 68.9975C436.287 68.9975 435.726 68.8108 435.352 68.8108V66.5704C435.726 66.7571 436.1 66.9438 436.661 66.9438C437.595 66.9438 437.782 66.5704 438.156 65.8236C438.343 65.2635 438.717 64.1433 438.717 63.7699L439.278 61.5295L434.979 44.7264H437.782V44.353Z" fill="#606060"/>
<path d="M449.932 46.7802C450.867 45.4733 452.175 44.5398 453.857 44.5398C455.914 44.5398 457.222 45.66 458.157 47.3403C458.718 48.6472 459.278 50.5142 459.278 53.3148C459.278 58.169 457.783 60.4094 457.596 60.7828C456.474 62.4631 454.605 63.0232 453.297 63.0232C451.801 63.0232 450.493 62.2764 449.745 61.5296C447.689 59.4759 447.502 55.5552 447.502 52.5679C447.502 50.7009 447.689 48.0871 448.063 45.2866C448.437 42.8595 448.997 40.6191 451.24 39.3122C452.362 38.5654 453.671 38.3787 454.605 38.0053C457.409 37.4452 456.848 37.6319 458.904 37.0718V39.3122C457.97 39.4989 457.222 39.6856 456.474 39.8723C454.979 40.2457 454.044 40.4324 453.11 40.8058C452.362 41.1792 451.614 41.5526 451.054 42.2994C450.306 43.4196 449.932 45.4733 449.932 46.7802ZM455.914 58.5424C456.288 57.4222 456.474 55.1818 456.474 53.6881C456.474 52.1945 456.288 49.7674 455.914 48.6472C455.353 47.1536 454.231 46.5935 453.484 46.5935C452.923 46.5935 451.427 46.7802 450.68 49.0206C450.306 50.1408 450.306 52.0078 450.306 53.3148C450.306 54.8084 450.493 57.4222 450.867 58.3557C451.427 60.2227 452.736 60.5961 453.484 60.5961C454.044 60.7828 455.353 60.4094 455.914 58.5424Z" fill="#606060"/>
<path d="M461.709 47.7139H463.204L466.195 53.3149L463.204 58.5425H461.709L463.391 53.3149L461.709 47.7139ZM466.195 47.7139H467.691L470.681 53.3149L467.691 58.5425H466.195L467.878 53.3149L466.195 47.7139Z" fill="#606060"/>
</g>
<defs>
<clipPath id="clip0_5492_6967">
<rect width="522" height="69" fill="white"/>
</clipPath>
</defs>
</svg>
