<svg width="522" height="103" viewBox="0 0 522 103" fill="none" xmlns="http://www.w3.org/2000/svg">
<path d="M20.724 1.40405V37.2506H13.4339V7.75188H7.63917V37.2506H0.162109V1.40405H20.724Z" fill="#FF722C"/>
<path d="M44.8376 5.13804C45.9592 7.00505 47.8285 10.7391 47.8285 19.3273C47.8285 27.9155 46.1461 31.6496 44.8376 33.5166C42.2207 37.2506 38.856 37.9974 36.4259 37.9974C33.9959 37.9974 30.6312 37.4373 28.0142 33.5166C26.8927 31.6496 25.0234 27.9155 25.0234 19.3273C25.0234 10.7391 26.7058 7.00505 28.0142 5.13804C30.6312 1.40403 33.9959 0.657227 36.4259 0.657227C38.856 0.657227 42.4076 1.40403 44.8376 5.13804ZM34.1828 30.1559C34.5567 30.7161 35.3044 31.4629 36.4259 31.4629C37.5475 31.4629 38.2952 30.7161 38.6691 30.1559C39.4168 28.849 39.7906 26.4219 39.7906 19.3273C39.7906 12.2327 39.4168 9.80556 38.6691 8.49866C38.2952 7.93856 37.5475 7.19175 36.4259 7.19175C35.3044 7.19175 34.5567 7.93856 34.1828 8.49866C33.4351 9.80556 33.0613 12.2327 33.0613 19.3273C33.0613 26.4219 33.4351 28.849 34.1828 30.1559Z" fill="#FF722C"/>
<path d="M52.3145 1.40405H62.4085L65.2124 16.5268C65.7732 19.1406 66.147 24.5549 66.3339 26.7954C66.7078 21.381 67.2686 18.3938 67.8294 15.78L70.8202 1.40405H80.7273V37.2506H73.6241V16.9002C73.6241 11.1125 73.811 14.0997 73.998 6.07157C73.6241 9.24549 72.6895 15.2199 72.5025 16.5268L68.2032 37.2506H63.5301L59.4177 16.1534C59.0438 14.2864 58.8569 12.046 57.9223 5.88487C58.1092 8.31198 58.1092 13.5396 58.1092 15.78V37.0639H52.3145V1.40405Z" fill="#FF722C"/>
<path d="M104.841 5.13804C105.962 7.00505 107.831 10.7391 107.831 19.3273C107.831 27.9155 106.149 31.6496 104.841 33.5166C102.224 37.2506 98.8589 37.9974 96.4289 37.9974C93.9989 37.9974 90.6342 37.4373 88.0172 33.5166C86.8956 31.6496 85.0264 27.9155 85.0264 19.3273C85.0264 10.7391 86.7087 7.00505 88.0172 5.13804C90.6342 1.40403 93.9989 0.657227 96.4289 0.657227C98.8589 0.843927 102.224 1.40403 104.841 5.13804ZM94.1858 30.1559C94.5596 30.7161 95.3073 31.4629 96.4289 31.4629C97.5505 31.4629 98.2982 30.7161 98.672 30.1559C99.4197 28.849 99.7936 26.4219 99.7936 19.3273C99.7936 12.2327 99.4197 9.80556 98.672 8.49866C98.2982 7.93856 97.5505 7.19175 96.4289 7.19175C95.3073 7.19175 94.5596 7.93856 94.1858 8.49866C93.4381 9.80556 93.0642 12.2327 93.0642 19.3273C93.0642 26.4219 93.2512 28.849 94.1858 30.1559Z" fill="#FF722C"/>
<path d="M112.318 1.40405H130.637V7.75188H119.608V37.2506H112.318V1.40405Z" fill="#FF722C"/>
<path d="M143.348 1.40405L151.386 37.2506H143.909L142.414 29.5959H135.31L133.815 37.2506H127.272L135.684 1.40405H143.348ZM139.797 14.0997C139.236 11.2992 139.049 9.43219 139.049 8.12528C139.049 8.68538 138.862 10.5524 138.301 13.913L136.432 23.8081H142.04L139.797 14.0997Z" fill="#FF722C"/>
<path d="M160.919 1.40403V15.4066H164.658C164.844 11.8593 165.779 7.56516 167.275 5.13804C168.77 2.89764 171.2 0.657227 175.312 0.657227C177.555 0.657227 180.733 1.21733 183.35 5.13804C185.033 7.56516 186.154 11.6726 186.154 19.3273C186.154 26.982 185.033 30.9028 183.35 33.5166C180.92 37.2506 177.555 37.9974 175.312 37.9974C172.882 37.9974 169.705 37.4373 167.275 33.5166C165.405 30.5294 164.471 25.4884 164.658 21.9411H160.919V37.4373H153.629V1.40403H160.919ZM173.069 30.1559C173.817 31.2762 174.752 31.4629 175.499 31.4629C176.434 31.4629 177.369 30.9028 177.742 30.1559C178.303 29.2224 178.864 27.1687 178.864 19.3273C178.864 11.6726 178.303 9.43216 177.742 8.49866C177.182 7.75186 176.434 7.19175 175.499 7.19175C174.939 7.19175 174.004 7.37845 173.256 8.49866C172.135 9.99227 171.948 12.9795 171.948 19.3273C171.761 25.6751 171.948 28.4756 173.069 30.1559Z" fill="#FF722C"/>
<path d="M198.492 29.4092H191.575V37.2506H198.492V29.4092Z" fill="#FF722C"/>
<path d="M236.624 1.40405V37.2506H229.147V7.75188H223.353V37.2506H216.062V1.40405H236.624Z" fill="black"/>
<path d="M242.045 1.40405H251.017C254.943 1.40405 258.121 1.59075 260.364 4.76467C261.859 6.81837 262.607 10.179 262.607 12.6061C262.607 15.0332 262.046 18.7672 260.177 21.0076C257.747 24.1815 254.195 24.1815 251.391 24.1815H249.335V37.4373H242.045V1.40405ZM251.204 17.647C251.952 17.647 253.074 17.647 254.008 16.7135C254.569 16.1534 255.13 14.8465 255.13 12.046C255.13 10.9258 254.943 9.05878 254.008 7.93858C253.261 7.00507 252.139 6.81837 251.204 6.81837H249.335V17.4603H251.204V17.647Z" fill="black"/>
<path d="M284.665 5.13804C285.786 7.00505 287.656 10.7391 287.656 19.3273C287.656 27.9155 285.973 31.6496 284.665 33.5166C282.048 37.2506 278.683 37.9974 276.253 37.9974C273.823 37.9974 270.458 37.4373 267.841 33.5166C266.72 31.6496 264.851 27.9155 264.851 19.3273C264.851 10.7391 266.533 7.00505 267.841 5.13804C270.458 1.40403 273.823 0.657227 276.253 0.657227C278.683 0.843927 282.048 1.40403 284.665 5.13804ZM274.01 30.1559C274.384 30.7161 275.132 31.4629 276.253 31.4629C277.562 31.4629 278.122 30.7161 278.496 30.1559C279.244 28.849 279.618 26.4219 279.618 19.3273C279.618 12.2327 279.244 9.80556 278.496 8.49866C278.122 7.93856 277.375 7.19175 276.253 7.19175C274.945 7.19175 274.384 7.93856 274.01 8.49866C273.262 9.80556 272.888 12.2327 272.888 19.3273C272.701 26.4219 273.075 28.849 274.01 30.1559Z" fill="black"/>
<path d="M299.431 15.9667H308.03V21.9411H299.431V30.9028H310.647V37.2506H291.954V1.40405H310.647V7.75188H299.431V15.9667Z" fill="black"/>
<path d="M321.676 15.5932H324.106C326.536 15.5932 326.91 14.0996 327.097 13.3528C327.284 12.606 327.284 12.2326 327.471 9.80552C327.658 7.37841 327.845 6.0715 328.219 4.9513C328.593 3.8311 329.34 2.71089 330.275 2.15079C331.396 1.40399 333.079 1.21729 334.387 1.21729C335.322 1.21729 335.696 1.21729 336.443 1.59069V7.19171H336.07C335.509 7.19171 334.574 7.37841 334.387 9.43212C334.2 10.739 334.2 11.4858 333.827 13.5395C333.64 14.6597 333.266 15.7799 332.331 16.7134C331.77 17.2736 330.836 17.8337 329.714 18.2071C331.396 18.3938 332.892 19.3273 333.827 21.0076C334.574 22.5012 334.761 24.1815 334.948 26.4219C335.135 29.2224 335.322 29.9692 335.696 30.5293C336.07 31.0894 336.443 31.2761 337.191 31.0894V37.2505C336.443 37.6239 335.883 37.6239 335.135 37.6239C333.266 37.6239 330.649 37.4372 329.34 34.8234C328.406 33.1431 328.219 31.0894 327.845 26.6086C327.658 24.7416 327.471 23.4347 326.723 22.5012C325.976 21.381 324.667 21.381 323.919 21.381H321.489V37.2505H314.199V1.40399H321.489V15.5932H321.676Z" fill="black"/>
<path d="M351.211 37.2506H343.734V8.12528H337.752V1.40405H357.192V8.12528H351.211V37.2506Z" fill="black"/>
<path d="M359.809 1.40405H366.538V17.2736C366.538 18.2071 366.351 20.8209 365.79 23.248H365.977C366.538 21.1943 367.099 20.0741 367.473 19.1406L374.202 3.08436V1.40405H380.931V37.2506H374.202V20.2608C374.202 18.2071 374.202 18.0204 374.763 14.2864H374.95C373.828 17.4603 373.828 18.0204 373.454 18.7672L366.725 34.8235V37.2506H359.996V1.40405H359.809Z" fill="black"/>
<path d="M386.727 1.40405H395.699C399.625 1.40405 402.802 1.59075 405.045 4.76467C406.541 6.81837 407.288 10.179 407.288 12.6061C407.288 15.0332 406.728 18.7672 404.858 21.0076C402.428 24.1815 398.877 24.1815 396.073 24.1815H394.017V37.4373H386.727V1.40405ZM395.886 17.647C396.634 17.647 397.755 17.647 398.69 16.7135C399.251 16.1534 399.811 14.8465 399.811 12.046C399.811 10.9258 399.625 9.05878 398.69 7.93858C397.942 7.00507 396.821 6.81837 395.886 6.81837H394.017V17.4603H395.886V17.647Z" fill="black"/>
<path d="M410.279 31.2762C411.026 31.4629 411.961 31.4629 412.709 31.4629C413.643 31.4629 414.952 31.2762 415.886 30.7161C416.821 29.9693 417.195 29.0358 417.382 28.4757L417.569 27.9156L407.849 1.40405H416.073L419.812 14.6598C419.999 15.5933 420.56 17.8337 420.56 18.5805H420.747C420.933 16.3401 421.307 15.4066 421.494 14.6598L424.859 1.40405H431.028L423.55 28.6624C422.803 31.2762 422.242 34.0767 420.186 35.757C418.503 37.2506 416.447 37.8107 414.017 37.8107C412.709 37.8107 411.4 37.624 410.279 37.2506V31.2762Z" fill="black"/>
<path d="M440.748 1.40403V15.4066H444.487C444.674 11.8593 445.608 7.56516 447.104 5.13804C448.599 2.89764 451.029 0.657227 455.142 0.657227C457.385 0.657227 460.562 1.21733 463.179 5.13804C464.862 7.56516 465.983 11.6726 465.983 19.3273C465.983 26.982 464.862 30.9028 463.179 33.5166C460.749 37.2506 457.385 37.9974 455.142 37.9974C452.711 37.9974 449.534 37.4373 447.104 33.5166C445.234 30.5294 444.3 25.4884 444.487 21.9411H440.748V37.4373H433.458V1.40403H440.748ZM452.711 30.1559C453.459 31.2762 454.394 31.4629 455.142 31.4629C456.076 31.4629 457.011 30.9028 457.385 30.1559C457.945 29.2224 458.506 27.1687 458.506 19.3273C458.506 11.6726 457.945 9.43216 457.385 8.49866C456.824 7.75186 456.076 7.19175 455.142 7.19175C454.581 7.19175 453.646 7.37845 452.898 8.49866C451.777 9.99227 451.59 12.9795 451.59 19.3273C451.59 25.6751 451.777 28.4756 452.711 30.1559Z" fill="black"/>
<path d="M478.321 29.4092H471.404V37.2506H478.321V29.4092Z" fill="black"/>
<path d="M20.724 58.3479V94.3811H13.4339V64.6957H7.63917V94.3811H0.162109V58.3479H20.724Z" fill="black"/>
<path d="M26.332 58.3479H35.3045C39.23 58.3479 42.4077 58.5346 44.6508 61.7085C46.1463 63.7622 46.894 67.1228 46.894 69.5499C46.894 71.9771 46.3332 75.7111 44.4639 77.9515C42.0339 81.1254 38.4823 81.1254 35.6784 81.1254H33.6222V94.3811H26.332V58.3479ZM35.3045 74.7776C36.0522 74.7776 37.1738 74.7776 38.1084 73.8441C38.6692 73.284 39.23 71.9771 39.23 69.1765C39.23 68.0563 39.043 66.1893 38.1084 65.0691C37.3607 64.1356 36.2391 63.9489 35.3045 63.9489H33.4352V74.5909H35.3045V74.7776Z" fill="black"/>
<path d="M68.7644 62.2687C69.886 64.1357 71.7552 67.8697 71.7552 76.4579C71.7552 85.0462 70.0729 88.7802 68.7644 90.6472C66.1474 94.3812 62.7827 95.128 60.3527 95.128C57.9227 95.128 54.558 94.5679 51.941 90.6472C50.8194 88.7802 48.9502 85.0462 48.9502 76.4579C48.9502 67.8697 50.6325 64.1357 51.941 62.2687C54.558 58.5346 57.9227 57.7878 60.3527 57.7878C62.7827 57.7878 66.3344 58.5346 68.7644 62.2687ZM58.1096 87.0999C58.4834 87.66 59.2311 88.4068 60.3527 88.4068C61.4743 88.4068 62.222 87.66 62.5958 87.0999C63.3435 85.793 63.7174 83.3658 63.7174 76.2712C63.7174 69.1766 63.3435 66.7495 62.5958 65.4426C62.222 64.8825 61.4743 64.1357 60.3527 64.1357C59.2311 64.1357 58.4834 64.8825 58.1096 65.4426C57.3619 66.7495 56.988 69.1766 56.988 76.2712C56.988 83.3658 57.3619 85.793 58.1096 87.0999Z" fill="black"/>
<path d="M76.2412 58.3479H94.56V64.6957H83.5314V94.3811H76.2412V58.3479Z" fill="black"/>
<path d="M97.9248 58.3479H106.897C110.823 58.3479 114 58.5346 116.244 61.7085C117.739 63.7622 118.487 67.1228 118.487 69.5499C118.487 71.9771 117.926 75.7111 116.057 77.9515C113.627 81.1254 110.075 81.1254 107.271 81.1254H105.215V94.3811H97.9248V58.3479ZM106.897 74.7776C107.645 74.7776 108.767 74.7776 109.701 73.8441C110.262 73.284 110.823 71.9771 110.823 69.1765C110.823 68.0563 110.636 66.1893 109.701 65.0691C108.953 64.1356 107.832 63.9489 106.897 63.9489H105.028V74.5909H106.897V74.7776Z" fill="black"/>
<path d="M133.441 58.3479L141.479 94.1945H134.002L132.506 86.5397H125.403L123.908 94.1945H117.365L125.59 58.3479H133.441ZM129.889 71.2303C129.329 68.4297 129.142 66.5627 129.142 65.2558C129.142 65.8159 128.955 67.6829 128.394 71.0436L126.525 80.9387H132.132L129.889 71.2303Z" fill="black"/>
<path d="M143.722 58.3479H153.816L156.62 73.4707C157.18 76.0845 157.554 81.4988 157.741 83.7392C158.115 78.3249 158.676 75.3377 159.237 72.7239L162.227 58.3479H172.135V94.1945H165.031V73.8441C165.031 68.0563 165.218 71.0436 165.405 63.0154C165.031 66.1893 164.097 72.1638 163.91 73.4707L159.61 94.1945H154.937L150.825 73.0973C150.451 71.2303 150.264 68.9898 149.329 62.8287C149.516 65.2558 149.516 70.4835 149.516 72.7239V94.0077H143.722V58.3479Z" fill="black"/>
<path d="M177.742 58.3479H187.836L190.64 73.4707C191.201 76.0845 191.575 81.4988 191.762 83.7392C192.136 78.3249 192.696 75.3377 193.257 72.7239L196.248 58.3479H206.155V94.1944H199.239V73.8441C199.239 68.0563 199.426 71.0436 199.613 63.0154C199.239 66.1893 198.304 72.1638 198.117 73.4707L193.631 94.3811H188.958L184.845 73.284C184.472 71.417 184.285 69.1765 183.35 63.0154C183.537 65.4425 183.537 70.6701 183.537 72.9106V94.1944H177.742V58.3479Z" fill="black"/>
<path d="M211.763 58.3479H218.492V74.2175C218.492 75.151 218.306 77.7648 217.745 80.1919H217.932C218.492 78.1382 219.053 77.018 219.427 76.0845L226.156 60.0282V58.5346H232.886V94.3811H226.156V77.3914C226.156 75.3377 226.156 75.151 226.717 71.417H226.53C225.409 74.5909 225.409 75.151 225.035 75.8978L218.306 91.954V94.3811H211.576V58.3479H211.763Z" fill="black"/>
<path d="M238.681 58.3479H247.653C251.579 58.3479 254.756 58.5346 256.999 61.7085C258.495 63.7622 259.243 67.1228 259.243 69.5499C259.243 71.9771 258.682 75.7111 256.813 77.9515C254.382 81.1254 250.831 81.1254 248.027 81.1254H245.971V94.3811H238.681V58.3479ZM247.653 74.7776C248.401 74.7776 249.522 74.7776 250.457 73.8441C251.018 73.284 251.579 71.9771 251.579 69.1765C251.579 68.0563 251.392 66.1893 250.457 65.0691C249.709 64.1356 248.588 63.9489 247.653 63.9489H245.784V74.5909H247.653V74.7776Z" fill="black"/>
<path d="M262.233 88.2199C262.98 88.4067 263.915 88.4066 264.663 88.4066C265.597 88.4066 266.906 88.22 267.841 87.6598C268.775 86.913 269.149 85.9795 269.336 85.4194L269.523 84.8593L259.803 58.1611H268.027L271.766 71.4169C271.953 72.3504 272.514 74.5908 272.514 75.3376H272.701C272.888 73.0972 273.261 72.1637 273.448 71.4169L276.813 58.1611H282.982L275.505 85.4194C274.757 88.0332 274.196 90.8338 272.14 92.5141C270.458 94.0077 268.401 94.5678 265.971 94.5678C264.663 94.5678 263.354 94.3811 262.233 94.0077V88.2199Z" fill="black"/>
<path d="M292.702 58.3479V72.3504H296.441C296.628 68.8031 297.562 64.509 299.058 62.0819C300.553 59.8415 302.983 57.6011 307.096 57.6011C309.339 57.6011 312.516 58.1612 315.133 62.0819C316.816 64.509 317.937 68.6164 317.937 76.2712C317.937 83.9259 316.816 87.8466 315.133 90.4604C312.703 94.1944 309.339 94.9412 307.096 94.9412C304.666 94.9412 301.488 94.3811 299.058 90.4604C297.188 87.4732 296.254 82.4323 296.441 78.885H292.702V94.3811H285.412V58.3479H292.702ZM304.666 87.0998C305.413 88.22 306.348 88.4067 307.096 88.4067C308.03 88.4067 308.965 87.8466 309.339 87.0998C309.899 86.1663 310.46 84.1126 310.46 76.2712C310.46 68.6164 309.899 66.376 309.339 65.4425C308.778 64.6957 308.03 64.1356 307.096 64.1356C306.535 64.1356 305.6 64.3223 304.852 65.4425C303.731 66.9361 303.544 69.9233 303.544 76.2712C303.544 82.619 303.731 85.6062 304.666 87.0998Z" fill="black"/>
<path d="M330.275 86.353H323.358V94.1945H330.275V86.353Z" fill="black"/>
<path d="M347.658 58.3479H367.285V64.8824H354.761V72.7239H359.621C361.678 72.7239 364.855 73.0973 367.099 75.3377C368.968 77.2047 369.716 80.3786 369.716 83.3658C369.716 86.7264 368.594 90.087 366.725 91.954C364.295 94.3811 361.304 94.3811 358.687 94.3811H347.845V58.3479H347.658ZM357.939 88.22C358.874 88.22 360.369 88.22 361.491 86.9131C362.238 85.7929 362.425 84.2993 362.425 83.1791C362.425 82.2456 362.425 80.752 361.304 79.8185C360.182 78.6983 359.061 78.6983 358.126 78.6983H354.948V88.0333H357.939V88.22Z" fill="black"/>
<path d="M371.585 88.2199C372.333 88.4067 373.268 88.4066 374.015 88.4066C374.95 88.4066 376.259 88.22 377.193 87.6598C378.128 86.913 378.502 85.9795 378.689 85.4194L378.875 84.8593L369.155 58.1611H377.38L381.119 71.4169C381.305 72.3504 381.866 74.5908 381.866 75.3376H382.053C382.24 73.0972 382.614 72.1637 382.801 71.4169L386.166 58.1611H392.334L384.857 85.4194C384.109 88.0332 383.549 90.8338 381.492 92.5141C379.81 94.0077 377.754 94.5678 375.324 94.5678C374.015 94.5678 372.707 94.3811 371.585 94.0077V88.2199Z" fill="black"/>
<path d="M388.97 88.0334H391.587C393.082 85.6063 394.017 83.3659 394.764 80.9388C395.512 77.9515 395.886 74.7776 396.26 71.9771C396.447 70.4835 396.447 67.683 397.008 58.5347H414.392V88.0334H417.943V102.223H411.588V94.3812H395.512V102.223H389.157V88.0334H388.97ZM406.728 88.0334V64.6958H402.615C402.428 68.2431 402.055 74.0308 401.494 77.9516C400.933 81.6856 400.185 84.6728 398.503 87.8467H406.728V88.0334Z" fill="black"/>
<path d="M419.999 88.2199C420.747 88.4067 421.682 88.4066 422.429 88.4066C423.364 88.4066 424.673 88.22 425.607 87.6598C426.542 86.913 426.916 85.9795 427.103 85.4194L427.29 84.8593L417.569 58.1611H425.794L429.533 71.4169C429.72 72.3504 430.28 74.5908 430.28 75.3376H430.467C430.654 73.0972 431.028 72.1637 431.215 71.4169L434.58 58.1611H440.748L433.271 85.4194C432.524 88.0332 431.963 90.8338 429.907 92.5141C428.224 94.0077 426.168 94.5678 423.738 94.5678C422.429 94.5678 421.121 94.3811 419.999 94.0077V88.2199Z" fill="black"/>
<path d="M443.178 58.3479H450.281V88.0333H455.515V58.3479H462.618V88.0333H468.039V58.3479H475.142V88.0333H478.694V102.223H472.338V94.3811H443.178V58.3479Z" fill="black"/>
<path d="M488.602 73.0973H497.2V79.0717H488.602V88.0333H499.817V94.3811H481.312V58.3479H499.817V64.6957H488.602V73.0973Z" fill="black"/>
<path d="M510.659 73.0973H519.257V79.0717H510.659V88.0333H521.874V94.3811H503.182V58.3479H521.874V64.6957H510.659V73.0973Z" fill="black"/>
</svg>
