<svg width="358" height="437" viewBox="0 0 358 437" fill="none" xmlns="http://www.w3.org/2000/svg">
<path d="M345.824 213.999C344.735 214.918 343.535 215.936 342.236 217.043C335.696 222.615 326.627 230.466 316.502 239.589C296.329 257.767 271.679 281.25 254.566 301.887C235.078 325.387 214.529 358.262 198.966 385.002C191.155 398.423 184.545 410.394 179.887 419.013C179.593 419.556 179.308 420.085 179.03 420.601C178.729 420.065 178.42 419.514 178.102 418.948C173.275 410.358 166.436 398.422 158.388 385.028C142.347 358.331 121.294 325.497 101.687 301.884C84.7827 281.525 60.6885 258.067 40.9956 239.834C31.115 230.686 22.2783 222.794 15.9103 217.188C14.5864 216.023 13.3688 214.956 12.2704 213.997C13.3434 213.077 14.5292 212.058 15.816 210.948C22.1613 205.471 30.9704 197.763 40.8318 188.831C60.4888 171.026 84.5721 148.136 101.606 128.309C120.839 105.922 141.886 74.8666 158.015 49.6214C166.107 36.9566 173.012 25.6746 177.894 17.557C178.289 16.9013 178.67 16.2663 179.037 15.6528C179.379 16.2462 179.734 16.8595 180.1 17.4919C184.815 25.6381 191.493 36.9551 199.349 49.6464C215.003 74.9354 235.546 106.03 254.645 128.304C271.89 148.414 296.53 171.329 316.667 189.078C326.773 197.985 335.815 205.653 342.332 211.094C343.593 212.148 344.761 213.118 345.824 213.999Z" stroke="#3C78EC" stroke-width="15"/>
</svg>
