<svg width="231" height="220" viewBox="0 0 231 220" fill="none" xmlns="http://www.w3.org/2000/svg">
<path d="M112.206 1.94292C114.194 -0.279658 117.673 -0.279652 119.66 1.94293L164.598 52.1922C165.073 52.723 165.655 53.1463 166.307 53.4337L227.983 80.6443C230.711 81.8478 231.786 85.1563 230.287 87.7335L196.383 146C196.025 146.615 195.803 147.3 195.731 148.009L188.911 215.075C188.609 218.041 185.795 220.086 182.881 219.456L116.989 205.218C116.293 205.067 115.573 205.067 114.877 205.218L48.9859 219.456C46.0715 220.086 43.2571 218.041 42.9555 215.075L36.1358 148.009C36.0637 147.3 35.8412 146.615 35.4831 146L1.57973 87.7335C0.080147 85.1563 1.15513 81.8478 3.88315 80.6443L65.5596 53.4337C66.2111 53.1463 66.7937 52.723 67.2684 52.1922L112.206 1.94292Z" fill="#FF722C"/>
</svg>
