<svg width="179" height="219" viewBox="0 0 179 219" fill="none" xmlns="http://www.w3.org/2000/svg">
<path d="M115.4 20.6279L85.6699 99.8159L94.946 103.29L124.676 24.1021L115.4 20.6279Z" fill="#606060"/>
<path d="M121.315 45.7416L137.765 61.9846L121.315 78.2275L128.419 85.3222L151.598 61.9846L128.419 38.647L121.315 45.7416Z" fill="#606060"/>
<path d="M72.5273 61.9846L88.7899 45.7416L81.6867 38.647L58.5078 61.9846L81.6867 85.3222L88.7899 78.2275L72.5273 61.9846Z" fill="#606060"/>
<path d="M136.27 11.0153L165.43 61.6113L136.27 112.207H77.7616L48.6011 61.6113L77.7616 11.0153H136.27ZM142.625 0H71.4061L35.7031 61.6113L71.4061 123.223H142.625L178.328 61.6113L142.625 0Z" fill="#606060"/>
<path d="M0 178.859L38.133 219L60.7511 198.276L144.12 199.956L176.833 134.238L174.216 113.701L141.69 153.841L93.2764 155.148L85.2385 148.054L131.409 144.32L140.008 131.064H125.802C125.802 131.064 47.6663 131.064 47.1055 131.251" fill="#FF722C"/>
</svg>
