<svg width="373" height="18" viewBox="0 0 373 18" fill="none" xmlns="http://www.w3.org/2000/svg">
<path d="M85.1414 6.50696H76.4785V11.4334H85.1414V6.50696Z" fill="white"/>
<path d="M39.3543 6.50647H30.6914V11.433H39.3543V6.50647Z" fill="white"/>
<path d="M69.7976 6.50659L61.1348 6.50659V11.4331H69.7976V6.50659Z" fill="white"/>
<path d="M24.0066 6.50671H15.3438V11.4332H24.0066V6.50671Z" fill="white"/>
<path d="M54.4519 6.50696H45.7891V11.4334H54.4519V6.50696Z" fill="white"/>
<path d="M8.66286 6.50635L0 6.50635L0 11.4328H8.66286V6.50635Z" fill="white"/>
<path d="M173.628 8.97005L155.931 0.00012207V6.50681H91.9492V11.4798H155.931V17.9865L173.628 8.97005Z" fill="white"/>
<path d="M283.768 6.50696H275.105V11.4334H283.768V6.50696Z" fill="white"/>
<path d="M237.981 6.50647H229.318V11.433H237.981V6.50647Z" fill="white"/>
<path d="M268.425 6.50659L259.762 6.50659V11.4331H268.425V6.50659Z" fill="white"/>
<path d="M222.634 6.50671H213.971V11.4332H222.634V6.50671Z" fill="white"/>
<path d="M253.079 6.50696H244.416V11.4334H253.079V6.50696Z" fill="white"/>
<path d="M207.29 6.50635L198.627 6.50635V11.4328H207.29V6.50635Z" fill="white"/>
<path d="M372.255 8.97005L354.558 0.00012207V6.50681H290.576V11.4798H354.558V17.9865L372.255 8.97005Z" fill="white"/>
</svg>
