<svg width="167" height="241" viewBox="0 0 167 241" fill="none" xmlns="http://www.w3.org/2000/svg">
<g clip-path="url(#clip0_3878_5902)">
<rect x="82" y="192" width="4" height="51" fill="white"/>
<g clip-path="url(#clip1_3878_5902)">
<path d="M89.6344 118.99H29.5825C25.9486 118.99 23 116.05 23 112.428C23 108.806 25.9486 105.866 29.5825 105.866H89.6344C93.2682 105.866 96.2168 108.806 96.2168 112.428C96.2168 116.05 93.2682 118.99 89.6344 118.99ZM29.5825 109.716C28.0874 109.716 26.8415 110.938 26.8415 112.428C26.8415 113.918 28.0666 115.16 29.5825 115.16H89.6344C91.1294 115.16 92.3546 113.939 92.3546 112.428C92.3546 110.938 91.1294 109.716 89.6344 109.716H29.5825Z" fill="white"/>
<path d="M87.102 125.903H32.1167C31.0577 125.903 30.1855 125.034 30.1855 123.978V117.065C30.1855 116.009 31.0577 115.14 32.1167 115.14H87.102C88.161 115.14 89.0331 116.009 89.0331 117.065V123.978C89.0123 125.055 88.161 125.903 87.102 125.903ZM34.0478 122.074H85.1708V119.01H34.0478V122.074Z" fill="white"/>
<path d="M46.9634 140H39.3843C38.3252 140 37.4531 139.131 37.4531 138.075V123.999C37.4531 122.944 38.3252 122.074 39.3843 122.074H46.9634C48.0224 122.074 48.8946 122.944 48.8946 123.999V138.075C48.8738 139.131 48.0224 140 46.9634 140ZM41.2946 136.15H45.0115V125.904H41.2946V136.15Z" fill="white"/>
<path d="M79.8326 140H72.2534C71.1944 140 70.3223 139.131 70.3223 138.075V123.999C70.3223 122.944 71.1944 122.074 72.2534 122.074H79.8326C80.8916 122.074 81.7637 122.944 81.7637 123.999V138.075C81.7637 139.131 80.8916 140 79.8326 140ZM74.1845 136.15H77.9014V125.904H74.1845V136.15Z" fill="white"/>
<path d="M49.2046 109.717C48.1456 109.717 47.2734 108.847 47.2734 107.791V103.238C47.2734 102.182 48.1456 101.312 49.2046 101.312C50.2636 101.312 51.1357 102.182 51.1357 103.238V107.791C51.1357 108.847 50.2636 109.717 49.2046 109.717Z" fill="white"/>
<path d="M70.0112 109.717C68.9522 109.717 68.0801 108.847 68.0801 107.791V103.238C68.0801 102.182 68.9522 101.312 70.0112 101.312C71.0702 101.312 71.9423 102.182 71.9423 103.238V107.791C71.9423 108.847 71.0702 109.717 70.0112 109.717Z" fill="white"/>
<path d="M59.608 82.7861C53.2747 82.7861 48.125 77.4042 48.125 70.801C48.125 64.1978 53.2747 58.8159 59.608 58.8159C65.9412 58.8159 71.0909 64.1978 71.0909 70.801C71.0909 77.4042 65.9412 82.7861 59.608 82.7861ZM59.608 62.6247C55.3927 62.6247 51.9873 66.2885 51.9873 70.7803C51.9873 75.2721 55.4135 78.936 59.608 78.936C63.8232 78.936 67.2286 75.2721 67.2286 70.7803C67.2286 66.2885 63.8232 62.6247 59.608 62.6247Z" fill="white"/>
<path d="M79.6479 109.716H39.5718C38.5127 109.716 37.6406 108.847 37.6406 107.791V95.951C37.6406 89.886 42.5827 84.9595 48.6668 84.9595H70.5529C76.637 84.9595 81.579 89.886 81.579 95.951V107.791C81.579 108.847 80.7069 109.716 79.6479 109.716ZM41.5029 105.866H77.7375V95.951C77.7375 92.0181 74.519 88.8096 70.5737 88.8096H48.6668C44.7214 88.8096 41.5029 92.0181 41.5029 95.951V105.866Z" fill="white"/>
<path d="M136.895 121.164H98.646C97.587 121.164 96.7148 120.294 96.7148 119.239C96.7148 118.183 97.587 117.313 98.646 117.313H136.895C138.141 117.313 139.137 116.299 139.137 115.078C139.137 113.836 138.12 112.842 136.895 112.842H100.681C99.6219 112.842 98.7498 111.973 98.7498 110.917C98.7498 109.862 99.6219 108.992 100.681 108.992H136.916C140.279 108.992 143.02 111.725 143.02 115.078C143.02 118.431 140.259 121.164 136.895 121.164Z" fill="white"/>
<path d="M134.632 127.373H91.8569C90.7979 127.373 89.9258 126.504 89.9258 125.448C89.9258 124.392 90.7979 123.523 91.8569 123.523H132.701V121.163H98.647C97.588 121.163 96.7159 120.294 96.7159 119.238C96.7159 118.182 97.588 117.313 98.647 117.313H134.632C135.691 117.313 136.564 118.182 136.564 119.238V125.427C136.564 126.504 135.691 127.373 134.632 127.373Z" fill="white"/>
<path d="M98.647 140H91.8569C90.7979 140 89.9258 139.13 89.9258 138.075V125.448C89.9258 124.392 90.7979 123.523 91.8569 123.523H98.647C99.706 123.523 100.578 124.392 100.578 125.448V138.075C100.578 139.13 99.7268 140 98.647 140ZM93.788 136.15H96.7159V127.373H93.788V136.15Z" fill="white"/>
<path d="M128.131 140H121.341C120.282 140 119.41 139.13 119.41 138.075V125.448C119.41 124.392 120.282 123.523 121.341 123.523H128.131C129.19 123.523 130.063 124.392 130.063 125.448V138.075C130.063 139.13 129.19 140 128.131 140ZM123.252 136.15H126.2V127.373H123.252V136.15Z" fill="white"/>
<path d="M100.681 112.842C99.6221 112.842 98.75 111.973 98.75 110.917V106.839C98.75 105.783 99.6221 104.914 100.681 104.914C101.74 104.914 102.612 105.783 102.612 106.839V110.917C102.591 111.993 101.74 112.842 100.681 112.842Z" fill="white"/>
<path d="M119.308 112.842C118.249 112.842 117.377 111.973 117.377 110.917V106.839C117.377 105.783 118.249 104.914 119.308 104.914C120.367 104.914 121.239 105.783 121.239 106.839V110.917C121.239 111.993 120.388 112.842 119.308 112.842Z" fill="white"/>
<path d="M110.004 88.7064C104.21 88.7064 99.5176 83.8006 99.5176 77.7563C99.5176 71.712 104.231 66.8062 110.004 66.8062C115.797 66.8062 120.49 71.712 120.49 77.7563C120.49 83.8006 115.776 88.7064 110.004 88.7064ZM110.004 70.6563C106.349 70.6563 103.359 73.844 103.359 77.7563C103.359 81.6685 106.328 84.8562 110.004 84.8562C113.658 84.8562 116.649 81.6685 116.649 77.7563C116.649 73.844 113.658 70.6563 110.004 70.6563Z" fill="white"/>
<path d="M127.965 112.842H100.68C99.6209 112.842 98.7488 111.973 98.7488 110.917C98.7488 109.861 99.6209 108.992 100.68 108.992H126.034V100.298C126.034 96.8827 123.251 94.0882 119.804 94.0882H100.182C96.7554 94.0882 93.9521 96.862 93.9521 100.298C93.9521 101.354 93.08 102.223 92.021 102.223C90.962 102.223 90.0898 101.354 90.0898 100.298C90.0898 94.7506 94.6166 90.2588 100.161 90.2588H119.784C125.349 90.2588 129.855 94.7713 129.855 100.298V110.917C129.875 111.993 129.024 112.842 127.965 112.842Z" fill="white"/>
<path d="M83.5718 60.5132C82.5128 60.5132 81.6406 59.6438 81.6406 58.5881V56.4353C81.6406 55.3796 82.5128 54.5103 83.5718 54.5103C84.6308 54.5103 85.5029 55.3796 85.5029 56.4353V58.5881C85.4821 59.6438 84.6308 60.5132 83.5718 60.5132Z" fill="white"/>
<path d="M89.9657 64.7569H87.8061C86.7471 64.7569 85.875 63.8875 85.875 62.8318C85.875 61.7761 86.7471 60.9067 87.8061 60.9067H89.9657C91.0247 60.9067 91.8968 61.7761 91.8968 62.8318C91.8968 63.8875 91.0247 64.7569 89.9657 64.7569Z" fill="white"/>
<path d="M83.5718 71.1323C82.5128 71.1323 81.6406 70.2629 81.6406 69.2072V67.0545C81.6406 65.9988 82.5128 65.1294 83.5718 65.1294C84.6308 65.1294 85.5029 65.9988 85.5029 67.0545V69.2072C85.4821 70.2629 84.6308 71.1323 83.5718 71.1323Z" fill="white"/>
<path d="M79.3133 64.7569H77.1538C76.0948 64.7569 75.2227 63.8875 75.2227 62.8318C75.2227 61.7761 76.0948 60.9067 77.1538 60.9067H79.3133C80.3723 60.9067 81.2445 61.7761 81.2445 62.8318C81.2445 63.8875 80.3723 64.7569 79.3133 64.7569Z" fill="white"/>
<path d="M102.052 45.9822C100.993 45.9822 100.121 45.1128 100.121 44.0571V41.9251C100.121 40.8694 100.993 40 102.052 40C103.111 40 103.983 40.8694 103.983 41.9251V44.0778C103.983 45.1335 103.132 45.9822 102.052 45.9822Z" fill="white"/>
<path d="M108.468 50.2256H106.308C105.249 50.2256 104.377 49.3562 104.377 48.3006C104.377 47.2449 105.249 46.3755 106.308 46.3755H108.468C109.527 46.3755 110.399 47.2449 110.399 48.3006C110.399 49.3562 109.527 50.2256 108.468 50.2256Z" fill="white"/>
<path d="M102.052 56.6013C100.993 56.6013 100.121 55.732 100.121 54.6763V52.5442C100.121 51.4885 100.993 50.6191 102.052 50.6191C103.111 50.6191 103.983 51.4885 103.983 52.5442V54.697C103.983 55.7527 103.132 56.6013 102.052 56.6013Z" fill="white"/>
<path d="M97.8153 50.2256H95.6557C94.5967 50.2256 93.7246 49.3562 93.7246 48.3006C93.7246 47.2449 94.5967 46.3755 95.6557 46.3755H97.8153C98.8743 46.3755 99.7464 47.2449 99.7464 48.3006C99.7464 49.3562 98.8743 50.2256 97.8153 50.2256Z" fill="white"/>
</g>
<path d="M123.544 32.0932L123.565 32.1055L123.586 32.1173L164.191 54.9129L163.63 101.476L163.63 101.5L163.63 101.524L164.191 148.087L123.586 170.883L123.565 170.895L123.544 170.907L83.5 194.674L43.4558 170.907L43.4351 170.895L43.4141 170.883L2.80873 148.087L3.36985 101.524L3.37014 101.5L3.36985 101.476L2.80873 54.9129L43.4141 32.1173L43.4351 32.1055L43.4558 32.0932L83.5 8.32575L123.544 32.0932Z" stroke="white" stroke-width="4"/>
</g>
<defs>
<clipPath id="clip0_3878_5902">
<rect width="167" height="241" fill="white"/>
</clipPath>
<clipPath id="clip1_3878_5902">
<rect width="120" height="100" fill="white" transform="translate(24 40)"/>
</clipPath>
</defs>
</svg>
