<svg width="460" height="834" viewBox="0 0 460 834" fill="none" xmlns="http://www.w3.org/2000/svg">
<path d="M189.801 534.126C189.996 533.542 190.385 533.347 190.969 533.542L220.559 541.136C221.143 541.331 221.337 541.72 221.143 542.304C220.948 542.889 220.559 543.083 219.975 542.889L190.385 535.294C189.996 535.1 189.801 534.515 189.801 534.126Z" fill="#333333" fill-opacity="0.07"/>
<path d="M199.145 548.146C199.34 547.562 199.729 547.367 200.313 547.562L217.444 552.625C218.028 552.819 218.223 553.209 218.028 553.793C217.833 554.377 217.444 554.572 216.86 554.377L199.729 549.314C199.34 549.12 199.145 548.536 199.145 548.146Z" fill="#333333" fill-opacity="0.07"/>
<path d="M195.252 560.998C195.446 560.414 196.03 560.219 196.42 560.414L213.356 566.061C213.94 566.255 214.135 566.839 213.94 567.229C213.745 567.813 213.161 568.008 212.772 567.813L195.836 562.166C195.446 561.971 195.057 561.387 195.252 560.998Z" fill="#333333" fill-opacity="0.07"/>
<path d="M190.774 573.655C190.969 573.071 191.553 572.876 191.942 573.071L208.684 579.302C209.073 579.497 209.463 580.081 209.268 580.47C209.073 580.86 208.489 581.249 208.1 581.054L191.358 574.823C190.969 574.628 190.774 574.239 190.774 573.655Z" fill="#333333" fill-opacity="0.07"/>
<path d="M185.908 586.312C186.102 585.728 186.686 585.533 187.076 585.728L203.622 592.543C204.012 592.738 204.401 593.322 204.206 593.711C204.012 594.101 203.428 594.49 203.039 594.296L186.492 587.48C185.908 587.286 185.713 586.701 185.908 586.312Z" fill="#333333" fill-opacity="0.07"/>
<path d="M173.06 613.963V613.768C173.254 613.378 173.838 613.184 174.228 613.378L189.996 621.557C190.385 621.752 190.58 622.336 190.385 622.725C190.19 623.115 189.606 623.309 189.217 623.115L173.449 614.936C173.06 614.936 172.865 614.352 173.06 613.963Z" fill="#333333" fill-opacity="0.07"/>
<path d="M166.636 625.841V625.646C166.83 625.256 167.414 625.062 167.998 625.257L183.572 634.019C183.961 634.214 184.156 634.798 183.961 635.382C183.766 635.772 183.182 635.966 182.598 635.772L167.025 627.009C166.636 626.814 166.441 626.23 166.636 625.841Z" fill="#333333" fill-opacity="0.07"/>
<path d="M159.822 637.524C159.822 637.524 159.822 637.329 160.017 637.329C160.212 636.94 160.796 636.745 161.38 636.94L176.564 646.287C176.953 646.481 177.148 647.066 176.953 647.65C176.758 648.039 176.174 648.234 175.59 648.039L160.406 638.692C159.822 638.303 159.628 637.914 159.822 637.524Z" fill="#333333" fill-opacity="0.07"/>
<path d="M152.425 648.818C152.425 648.623 152.425 648.623 152.62 648.623C152.814 648.234 153.398 648.039 153.982 648.429L168.777 658.36C169.166 658.554 169.361 659.138 168.972 659.723C168.777 660.112 168.193 660.307 167.609 659.917L152.814 649.986C152.62 649.597 152.425 649.208 152.425 648.818Z" fill="#333333" fill-opacity="0.07"/>
<path d="M134.515 673.548C134.515 673.353 134.515 673.353 134.71 673.159C135.099 672.769 135.683 672.769 136.073 672.964L150.089 684.063C150.478 684.452 150.478 685.037 150.284 685.426C149.894 685.816 149.31 685.816 148.921 685.621L134.905 674.522C134.515 674.327 134.515 673.937 134.515 673.548Z" fill="#333333" fill-opacity="0.07"/>
<path d="M125.95 684.063C125.95 683.868 126.145 683.868 126.145 683.674C126.534 683.284 127.118 683.284 127.507 683.479L141.134 695.162C141.523 695.552 141.523 696.136 141.329 696.525C140.939 696.915 140.355 696.915 139.966 696.72L126.339 685.037C125.95 684.647 125.755 684.258 125.95 684.063Z" fill="#333333" fill-opacity="0.07"/>
<path d="M116.995 693.994C116.995 693.799 117.19 693.799 117.19 693.604C117.579 693.215 118.163 693.215 118.553 693.604L131.595 705.677C131.985 706.067 131.985 706.651 131.595 707.04C131.206 707.43 130.622 707.43 130.233 707.04L117.19 694.968C116.995 694.773 116.801 694.383 116.995 693.994Z" fill="#333333" fill-opacity="0.07"/>
<path d="M107.651 703.73C107.651 703.535 107.846 703.341 107.846 703.341C108.235 702.951 108.819 702.951 109.209 703.341L121.862 715.998C122.251 716.387 122.251 716.971 121.862 717.361C121.473 717.75 120.889 717.75 120.499 717.361L107.846 704.704C107.651 704.509 107.457 704.119 107.651 703.73Z" fill="#333333" fill-opacity="0.07"/>
<path d="M85.2645 724.565C85.2645 724.371 85.4592 724.176 85.6539 724.176C86.0432 723.787 86.6272 723.981 87.0166 724.371L98.502 738.001C98.8913 738.391 98.6966 738.975 98.3073 739.364C97.9179 739.754 97.334 739.559 96.9446 739.17L85.4592 725.539C85.2645 725.15 85.0699 724.76 85.2645 724.565Z" fill="#333333" fill-opacity="0.07"/>
<path d="M74.7524 733.133C74.7524 732.939 74.9471 732.744 75.1418 732.549C75.5311 732.16 76.1152 732.354 76.5045 732.744L87.6005 746.764C87.9899 747.153 87.7952 747.738 87.4058 748.127C87.0165 748.516 86.4325 748.322 86.0432 747.932L74.9471 733.912C74.7525 733.717 74.7524 733.328 74.7524 733.133Z" fill="#333333" fill-opacity="0.07"/>
<path d="M64.0457 741.117C64.0457 740.922 64.2404 740.727 64.4351 740.533C64.8244 740.143 65.4084 740.338 65.7978 740.727L76.3098 755.137C76.6992 755.526 76.5045 756.111 76.1151 756.5C75.7258 756.89 75.1418 756.695 74.7524 756.305L64.2404 741.896C63.8511 741.701 63.851 741.506 64.0457 741.117Z" fill="#333333" fill-opacity="0.07"/>
<path d="M52.9497 748.906C52.9497 748.711 53.1443 748.516 53.339 748.322C53.7283 748.127 54.3123 748.127 54.7017 748.516L64.6297 763.315C64.8244 763.705 64.8244 764.289 64.4351 764.678C64.0458 764.873 63.4617 764.873 63.0724 764.484L53.1444 749.685C52.9497 749.49 52.755 749.295 52.9497 748.906Z" fill="#333333" fill-opacity="0.07"/>
<path d="M167.22 597.022C167.414 596.437 167.998 596.243 168.582 596.437L196.225 609.484C196.614 609.679 196.809 610.263 196.614 610.652C196.42 611.042 195.836 611.236 195.446 611.042L167.804 597.995C167.22 597.995 167.025 597.606 167.22 597.022Z" fill="#333333" fill-opacity="0.07"/>
<path d="M132.958 654.66C132.958 654.465 132.958 654.465 133.153 654.27C133.542 653.881 134.126 653.686 134.515 654.076L159.238 672.185C159.628 672.574 159.822 673.158 159.433 673.548C159.044 673.937 158.46 674.132 158.07 673.743L133.347 655.633C132.958 655.439 132.763 655.049 132.958 654.66Z" fill="#333333" fill-opacity="0.07"/>
<path d="M88.3792 704.704C88.3792 704.509 88.5739 704.314 88.5739 704.314C88.9632 703.925 89.5472 703.925 89.9366 704.314L110.766 726.707C111.155 727.097 111.155 727.681 110.766 728.07C110.377 728.46 109.793 728.46 109.403 728.07L88.5739 705.677C88.1845 705.288 88.1845 705.093 88.3792 704.704Z" fill="#333333" fill-opacity="0.07"/>
<path d="M35.0402 745.401C35.0402 745.206 35.2349 745.011 35.4296 744.817C35.8189 744.622 36.4029 744.622 36.7922 745.206L52.755 771.104C52.9497 771.494 52.9496 772.078 52.3656 772.467C51.9763 772.662 51.3923 772.662 51.003 772.078L34.8455 745.985C35.0402 745.79 34.8456 745.596 35.0402 745.401Z" fill="#333333" fill-opacity="0.07"/>
<path d="M189.801 534.126C189.996 533.542 190.385 533.347 190.969 533.542L220.559 541.136C221.143 541.331 221.337 541.72 221.143 542.304C220.948 542.889 220.559 543.083 219.975 542.889L190.385 535.294C189.996 535.1 189.801 534.515 189.801 534.126Z" fill="#333333" fill-opacity="0.07"/>
<path d="M199.145 548.146C199.34 547.562 199.729 547.367 200.313 547.562L217.444 552.625C218.028 552.819 218.223 553.209 218.028 553.793C217.833 554.377 217.444 554.572 216.86 554.377L199.729 549.314C199.34 549.12 199.145 548.536 199.145 548.146Z" fill="#333333" fill-opacity="0.07"/>
<path d="M195.252 560.998C195.446 560.414 196.03 560.219 196.42 560.414L213.356 566.061C213.94 566.255 214.135 566.839 213.94 567.229C213.745 567.813 213.161 568.008 212.772 567.813L195.836 562.166C195.446 561.971 195.057 561.387 195.252 560.998Z" fill="#333333" fill-opacity="0.07"/>
<path d="M190.774 573.655C190.969 573.071 191.553 572.876 191.942 573.071L208.684 579.302C209.073 579.497 209.463 580.081 209.268 580.47C209.073 580.86 208.489 581.249 208.1 581.054L191.358 574.823C190.969 574.628 190.774 574.239 190.774 573.655Z" fill="#333333" fill-opacity="0.07"/>
<path d="M185.908 586.312C186.102 585.728 186.686 585.533 187.076 585.728L203.622 592.543C204.012 592.738 204.401 593.322 204.206 593.711C204.012 594.101 203.428 594.49 203.039 594.296L186.492 587.48C185.908 587.286 185.713 586.701 185.908 586.312Z" fill="#333333" fill-opacity="0.07"/>
<path d="M173.06 613.963V613.768C173.254 613.378 173.838 613.184 174.228 613.378L189.996 621.557C190.385 621.752 190.58 622.336 190.385 622.725C190.19 623.115 189.606 623.309 189.217 623.115L173.449 614.936C173.06 614.936 172.865 614.352 173.06 613.963Z" fill="#333333" fill-opacity="0.07"/>
<path d="M166.636 625.841V625.646C166.83 625.256 167.414 625.062 167.998 625.257L183.572 634.019C183.961 634.214 184.156 634.798 183.961 635.382C183.766 635.772 183.182 635.966 182.598 635.772L167.025 627.009C166.636 626.814 166.441 626.23 166.636 625.841Z" fill="#333333" fill-opacity="0.07"/>
<path d="M159.822 637.524C159.822 637.524 159.822 637.329 160.017 637.329C160.212 636.94 160.796 636.745 161.38 636.94L176.564 646.287C176.953 646.481 177.148 647.066 176.953 647.65C176.758 648.039 176.174 648.234 175.59 648.039L160.406 638.692C159.822 638.303 159.628 637.914 159.822 637.524Z" fill="#333333" fill-opacity="0.07"/>
<path d="M152.425 648.818C152.425 648.623 152.425 648.623 152.62 648.623C152.814 648.234 153.398 648.039 153.982 648.429L168.777 658.36C169.166 658.554 169.361 659.138 168.972 659.723C168.777 660.112 168.193 660.307 167.609 659.917L152.814 649.986C152.62 649.597 152.425 649.208 152.425 648.818Z" fill="#333333" fill-opacity="0.07"/>
<path d="M134.515 673.548C134.515 673.353 134.515 673.353 134.71 673.159C135.099 672.769 135.683 672.769 136.073 672.964L150.089 684.063C150.478 684.452 150.478 685.037 150.284 685.426C149.894 685.816 149.31 685.816 148.921 685.621L134.905 674.522C134.515 674.327 134.515 673.937 134.515 673.548Z" fill="#333333" fill-opacity="0.07"/>
<path d="M125.95 684.063C125.95 683.868 126.145 683.868 126.145 683.674C126.534 683.284 127.118 683.284 127.507 683.479L141.134 695.162C141.523 695.552 141.523 696.136 141.329 696.525C140.939 696.915 140.355 696.915 139.966 696.72L126.339 685.037C125.95 684.647 125.755 684.258 125.95 684.063Z" fill="#333333" fill-opacity="0.07"/>
<path d="M116.995 693.994C116.995 693.799 117.19 693.799 117.19 693.604C117.579 693.215 118.163 693.215 118.553 693.604L131.595 705.677C131.985 706.067 131.985 706.651 131.595 707.04C131.206 707.43 130.622 707.43 130.233 707.04L117.19 694.968C116.995 694.773 116.801 694.383 116.995 693.994Z" fill="#333333" fill-opacity="0.07"/>
<path d="M107.651 703.73C107.651 703.535 107.846 703.341 107.846 703.341C108.235 702.951 108.819 702.951 109.209 703.341L121.862 715.998C122.251 716.387 122.251 716.971 121.862 717.361C121.473 717.75 120.889 717.75 120.499 717.361L107.846 704.704C107.651 704.509 107.457 704.119 107.651 703.73Z" fill="#333333" fill-opacity="0.07"/>
<path d="M85.2645 724.565C85.2645 724.371 85.4592 724.176 85.6539 724.176C86.0432 723.787 86.6272 723.981 87.0166 724.371L98.502 738.001C98.8913 738.391 98.6966 738.975 98.3073 739.364C97.9179 739.754 97.334 739.559 96.9446 739.17L85.4592 725.539C85.2645 725.15 85.0699 724.76 85.2645 724.565Z" fill="#333333" fill-opacity="0.07"/>
<path d="M74.7524 733.133C74.7524 732.939 74.9471 732.744 75.1418 732.549C75.5311 732.16 76.1152 732.354 76.5045 732.744L87.6005 746.764C87.9899 747.153 87.7952 747.738 87.4058 748.127C87.0165 748.516 86.4325 748.322 86.0432 747.932L74.9471 733.912C74.7525 733.717 74.7524 733.328 74.7524 733.133Z" fill="#333333" fill-opacity="0.07"/>
<path d="M64.0457 741.117C64.0457 740.922 64.2404 740.727 64.4351 740.533C64.8244 740.143 65.4084 740.338 65.7978 740.727L76.3098 755.137C76.6992 755.526 76.5045 756.111 76.1151 756.5C75.7258 756.89 75.1418 756.695 74.7524 756.305L64.2404 741.896C63.8511 741.701 63.851 741.506 64.0457 741.117Z" fill="#333333" fill-opacity="0.07"/>
<path d="M52.9497 748.906C52.9497 748.711 53.1443 748.516 53.339 748.322C53.7283 748.127 54.3123 748.127 54.7017 748.516L64.6297 763.315C64.8244 763.705 64.8244 764.289 64.4351 764.678C64.0458 764.873 63.4617 764.873 63.0724 764.484L53.1444 749.685C52.9497 749.49 52.755 749.295 52.9497 748.906Z" fill="#333333" fill-opacity="0.07"/>
<path d="M167.22 597.022C167.414 596.437 167.998 596.243 168.582 596.437L196.225 609.484C196.614 609.679 196.809 610.263 196.614 610.652C196.42 611.042 195.836 611.236 195.446 611.042L167.804 597.995C167.22 597.995 167.025 597.606 167.22 597.022Z" fill="#333333" fill-opacity="0.07"/>
<path d="M132.958 654.66C132.958 654.465 132.958 654.465 133.153 654.27C133.542 653.881 134.126 653.686 134.515 654.076L159.238 672.185C159.628 672.574 159.822 673.158 159.433 673.548C159.044 673.937 158.46 674.132 158.07 673.743L133.347 655.633C132.958 655.439 132.763 655.049 132.958 654.66Z" fill="#333333" fill-opacity="0.07"/>
<path d="M88.3792 704.704C88.3792 704.509 88.5739 704.314 88.5739 704.314C88.9632 703.925 89.5472 703.925 89.9366 704.314L110.766 726.707C111.155 727.097 111.155 727.681 110.766 728.07C110.377 728.46 109.793 728.46 109.403 728.07L88.5739 705.677C88.1845 705.288 88.1845 705.093 88.3792 704.704Z" fill="#333333" fill-opacity="0.07"/>
<path d="M35.0402 745.401C35.0402 745.206 35.2349 745.011 35.4296 744.817C35.8189 744.622 36.4029 744.622 36.7922 745.206L52.755 771.104C52.9497 771.494 52.9496 772.078 52.3656 772.467C51.9763 772.662 51.3923 772.662 51.003 772.078L34.8455 745.985C35.0402 745.79 34.8456 745.596 35.0402 745.401Z" fill="#333333" fill-opacity="0.07"/>
<path d="M412.306 232.305C412.696 233.279 412.306 234.447 411.333 234.642C410.36 235.031 409.386 234.642 408.997 233.668C408.608 232.694 408.997 231.526 409.97 231.331C410.165 231.331 410.36 231.137 410.554 231.137C411.333 231.137 412.112 231.721 412.306 232.305ZM419.509 235.81C419.898 236.784 419.314 237.757 418.536 238.147C417.562 238.536 416.394 237.952 416.2 237.173C415.81 236.199 416.394 235.031 417.173 234.836C417.368 234.836 417.562 234.642 417.757 234.642C418.536 234.642 419.12 235.031 419.509 235.81ZM401.989 236.589C402.378 237.562 401.989 238.536 401.016 238.925C400.042 239.315 399.069 238.925 398.68 237.952C398.29 236.978 398.68 236.005 399.653 235.615C399.848 235.615 400.042 235.42 400.237 235.42C401.016 235.226 401.6 235.81 401.989 236.589ZM391.672 240.678C392.061 241.652 391.477 242.82 390.698 243.015C389.725 243.404 388.557 242.82 388.362 242.041C387.973 241.067 388.557 239.899 389.336 239.704C389.53 239.704 389.725 239.51 389.92 239.51C390.504 239.51 391.282 239.899 391.672 240.678ZM381.16 244.767C381.549 245.741 380.965 246.714 380.186 247.104C379.213 247.493 378.045 247.104 377.85 246.13C377.461 245.157 378.045 244.183 378.824 243.794C379.018 243.794 379.213 243.599 379.602 243.599C380.186 243.599 380.965 243.988 381.16 244.767ZM423.403 246.325C423.792 247.299 423.208 248.272 422.234 248.662C421.261 249.051 420.288 248.467 419.898 247.493C419.509 246.52 420.093 245.546 421.066 245.157C421.261 245.157 421.456 244.962 421.65 244.962C422.429 245.157 423.208 245.546 423.403 246.325ZM370.842 248.856C371.231 249.83 370.647 250.998 369.869 251.193C368.895 251.583 367.728 251.193 367.533 250.219C367.144 249.246 367.728 248.077 368.506 247.883C368.701 247.883 368.895 247.688 369.09 247.688C369.869 247.688 370.453 248.077 370.842 248.856ZM360.33 252.946C360.719 253.919 360.33 254.893 359.357 255.282C358.383 255.672 357.215 255.282 357.021 254.309C356.631 253.335 357.215 252.361 357.994 251.972C358.189 251.972 358.383 251.777 358.578 251.777C359.357 251.777 360.135 252.167 360.33 252.946ZM350.013 257.035C350.402 258.008 350.013 259.177 349.039 259.371C348.066 259.761 347.093 259.177 346.703 258.398C346.314 257.424 346.703 256.256 347.677 256.061C347.871 256.061 348.066 255.866 348.261 255.866C349.039 255.866 349.818 256.451 350.013 257.035ZM427.101 257.035C427.49 258.008 426.907 258.982 425.933 259.371C424.96 259.761 423.986 259.177 423.597 258.203C423.208 257.23 423.792 256.256 424.765 255.866C424.96 255.866 425.154 255.866 425.349 255.866C426.128 255.672 426.906 256.256 427.101 257.035ZM339.695 261.319C340.085 262.292 339.501 263.266 338.722 263.655C337.749 264.045 336.775 263.655 336.386 262.682C335.997 261.708 336.386 260.735 337.359 260.345C337.554 260.345 337.749 260.15 337.943 260.15C338.722 260.15 339.306 260.54 339.695 261.319ZM329.183 265.408C329.573 266.381 328.989 267.55 328.21 267.745C327.237 268.134 326.263 267.745 325.874 266.771C325.485 265.797 325.874 264.629 326.847 264.434C327.042 264.434 327.237 264.24 327.626 264.24C328.21 264.24 328.989 264.629 329.183 265.408ZM430.605 267.55C430.994 268.523 430.41 269.497 429.437 269.887C428.464 270.276 427.49 269.692 427.101 268.718C426.712 267.745 427.296 266.771 428.269 266.382C428.464 266.382 428.659 266.381 428.853 266.187C429.632 266.187 430.41 266.771 430.605 267.55ZM318.866 269.497C319.255 270.471 318.866 271.444 317.893 271.834C316.919 272.223 315.751 271.834 315.556 270.86C315.167 269.886 315.751 268.913 316.53 268.523C316.725 268.523 316.919 268.329 317.114 268.329C317.892 268.329 318.477 268.718 318.866 269.497ZM308.548 273.586C308.938 274.56 308.548 275.728 307.575 275.923C306.602 276.312 305.629 275.923 305.239 274.949C304.85 273.976 305.434 272.807 306.212 272.613C306.407 272.613 306.602 272.418 306.796 272.418C307.38 272.418 308.159 272.807 308.548 273.586ZM298.036 277.675C298.426 278.649 298.036 279.623 297.063 280.012C296.09 280.402 295.116 280.012 294.727 279.039C294.338 278.065 294.727 277.091 295.7 276.702C295.895 276.702 296.09 276.507 296.284 276.507C297.063 276.507 297.842 277.091 298.036 277.675ZM434.109 278.26C434.499 279.233 433.915 280.207 432.941 280.596C431.968 280.986 430.994 280.402 430.605 279.428C430.41 278.454 430.8 277.481 431.773 277.091C431.968 277.091 432.163 277.091 432.357 277.091C433.136 276.897 433.72 277.481 434.109 278.26ZM287.719 281.765C288.108 282.738 287.719 283.907 286.746 284.101C285.772 284.491 284.799 283.907 284.41 283.128C284.02 282.154 284.41 280.986 285.383 280.791C285.578 280.791 285.772 280.596 285.967 280.596C286.746 280.596 287.33 281.18 287.719 281.765ZM277.207 286.049C277.596 287.022 277.012 287.996 276.234 288.385C275.26 288.775 274.287 288.385 273.898 287.412C273.508 286.438 273.898 285.464 274.871 285.075C275.066 285.075 275.26 284.88 275.455 284.88C276.234 284.88 277.012 285.27 277.207 286.049ZM437.224 288.969C437.419 289.943 436.834 290.917 435.861 291.306C434.888 291.501 433.914 290.917 433.525 289.943C433.33 288.969 433.72 287.996 434.888 287.606C435.082 287.606 435.277 287.606 435.277 287.606C436.25 287.606 437.029 288.19 437.224 288.969ZM266.89 290.138C267.279 291.111 266.89 292.28 265.916 292.474C264.943 292.864 263.775 292.474 263.58 291.501C263.191 290.527 263.775 289.359 264.553 289.164C264.748 289.164 264.943 288.969 265.332 288.969C265.916 288.969 266.695 289.359 266.89 290.138ZM256.572 294.227C256.962 295.201 256.572 296.174 255.599 296.564C254.625 296.953 253.457 296.564 253.263 295.59C252.873 294.616 253.457 293.643 254.236 293.253C254.431 293.253 254.625 293.059 254.82 293.059C255.599 293.059 256.183 293.448 256.572 294.227ZM246.06 298.316C246.449 299.29 246.06 300.458 245.087 300.653C244.113 301.042 242.945 300.458 242.751 299.679C242.361 298.706 242.751 297.537 243.724 297.342C243.919 297.342 244.113 297.148 244.308 297.148C245.087 297.148 245.865 297.537 246.06 298.316ZM440.144 299.874C440.339 300.847 439.755 301.821 438.781 302.211C437.808 302.405 436.834 301.821 436.445 300.848C436.25 299.874 436.835 298.9 437.808 298.511C438.003 298.511 438.197 298.511 438.197 298.511C439.171 298.511 439.949 299.095 440.144 299.874ZM235.743 302.405C236.132 303.379 235.743 304.353 234.769 304.742C233.796 305.131 232.823 304.742 232.433 303.768C232.044 302.795 232.433 301.821 233.407 301.432C233.601 301.432 233.796 301.237 233.991 301.237C234.769 301.237 235.353 301.821 235.743 302.405ZM225.425 306.689C225.815 307.663 225.231 308.831 224.452 309.026C223.479 309.415 222.505 309.026 222.116 308.052C221.727 307.079 222.116 305.91 223.089 305.716C223.284 305.716 223.479 305.521 223.868 305.521C224.257 305.521 225.036 305.91 225.425 306.689ZM214.913 310.778C215.303 311.752 214.719 312.726 213.94 313.115C212.967 313.505 211.799 313.115 211.604 312.141C211.215 311.168 211.604 310.194 212.577 309.805C212.772 309.805 212.967 309.61 213.356 309.61C213.94 309.61 214.719 309.999 214.913 310.778ZM442.869 310.778C443.064 311.752 442.48 312.726 441.507 313.115C440.533 313.31 439.56 312.726 439.171 311.752C438.976 310.778 439.56 309.805 440.533 309.415C440.728 309.415 440.923 309.415 440.923 309.415C441.896 309.415 442.675 309.805 442.869 310.778ZM204.596 314.868C204.985 315.841 204.401 317.01 203.623 317.204C202.649 317.594 201.481 317.204 201.286 316.231C200.897 315.257 201.481 314.089 202.26 313.894C202.454 313.894 202.649 313.699 202.844 313.699C203.623 313.699 204.207 314.089 204.596 314.868ZM194.084 318.957C194.473 319.93 194.084 320.904 193.11 321.293C192.137 321.683 191.164 321.293 190.774 320.32C190.385 319.346 190.969 318.373 191.748 317.983C191.942 317.983 192.137 317.788 192.332 317.788C193.11 317.788 193.889 318.178 194.084 318.957ZM183.766 323.046C184.156 324.02 183.766 325.188 182.793 325.383C181.82 325.772 180.846 325.188 180.457 324.409C180.068 323.435 180.457 322.267 181.43 322.072C181.625 322.072 181.82 321.878 182.014 321.878C182.793 321.878 183.572 322.267 183.766 323.046ZM445.4 321.683C445.595 322.657 445.011 323.63 444.037 323.825C443.064 324.02 442.091 323.435 441.896 322.462C441.701 321.488 442.285 320.515 443.258 320.32C443.453 320.32 443.453 320.32 443.648 320.32C444.427 320.125 445.205 320.904 445.4 321.683ZM173.449 327.135C173.838 328.109 173.449 329.082 172.476 329.472C171.502 329.861 170.529 329.472 170.14 328.498C169.75 327.525 170.14 326.551 171.113 326.162C171.308 326.162 171.502 325.967 171.697 325.967C172.476 325.967 173.06 326.551 173.449 327.135ZM162.937 331.419C163.326 332.393 162.742 333.561 161.964 333.756C160.99 334.145 159.822 333.756 159.628 332.782C159.238 331.808 159.822 330.64 160.601 330.445C160.796 330.445 160.99 330.251 161.38 330.251C161.964 330.251 162.742 330.64 162.937 331.419ZM447.736 332.587C447.931 333.561 447.347 334.535 446.373 334.729C445.4 334.924 444.427 334.34 444.232 333.366C444.037 332.393 444.621 331.419 445.595 331.224C445.789 331.224 445.789 331.224 445.984 331.224C446.763 331.224 447.541 331.809 447.736 332.587ZM449.877 343.687C450.072 344.66 449.488 345.634 448.32 345.829C447.347 346.023 446.373 345.439 446.179 344.271C445.984 343.297 446.763 342.324 447.736 342.129C447.931 342.129 447.931 342.129 448.125 342.129C448.904 342.129 449.683 342.713 449.877 343.687ZM451.824 354.786C452.019 355.759 451.24 356.733 450.267 356.928C449.293 357.123 448.32 356.344 448.125 355.37C447.931 354.396 448.709 353.423 449.683 353.228C449.877 353.228 449.877 353.228 450.072 353.228C450.851 353.228 451.629 353.812 451.824 354.786ZM453.576 365.69C453.771 366.664 452.992 367.638 452.019 367.832C451.045 368.027 450.072 367.248 449.877 366.275C449.683 365.301 450.461 364.327 451.435 364.133H451.629C452.603 364.133 453.381 364.911 453.576 365.69ZM455.133 376.984C455.328 377.958 454.549 378.932 453.576 379.126C452.603 379.321 451.629 378.542 451.435 377.569C451.24 376.595 452.019 375.621 452.992 375.427H453.187C454.16 375.232 454.939 376.011 455.133 376.984ZM456.496 388.084C456.691 389.057 455.912 390.031 454.939 390.226C453.965 390.42 452.992 389.641 452.992 388.668C452.797 387.694 453.576 386.721 454.549 386.526H454.744C455.523 386.331 456.301 387.11 456.496 388.084ZM457.469 399.183C457.469 400.156 456.885 401.13 455.717 401.13C454.744 401.13 453.771 400.546 453.771 399.378C453.771 398.404 454.355 397.43 455.523 397.43H455.717C456.691 397.43 457.469 398.209 457.469 399.183ZM458.443 410.477C458.443 411.45 457.664 412.424 456.691 412.424C455.717 412.424 454.744 411.645 454.744 410.671C454.744 409.698 455.523 408.724 456.496 408.724C456.496 408.724 456.496 408.724 456.691 408.724C457.469 408.724 458.248 409.308 458.443 410.477ZM459.027 421.576C459.027 422.55 458.248 423.523 457.275 423.523C456.301 423.523 455.328 422.744 455.328 421.771C455.328 420.797 456.107 419.823 457.08 419.823C458.248 419.823 459.027 420.602 459.027 421.576ZM459.611 432.87C459.611 433.844 458.832 434.817 457.859 434.817C456.885 434.817 455.912 434.038 455.912 433.065C455.912 432.091 456.691 431.117 457.664 431.117C458.637 430.923 459.611 431.702 459.611 432.87ZM459.805 443.969C459.805 444.943 459.027 445.916 458.053 445.916C457.08 445.916 456.107 445.137 456.107 444.164C456.107 443.19 456.885 442.217 457.859 442.217C459.027 442.217 459.805 442.996 459.805 443.969ZM458.053 453.316C459.027 453.316 460 454.095 460 455.263C460 456.237 459.221 457.21 458.053 457.21C457.08 457.21 456.107 456.431 456.107 455.263C456.107 454.095 457.08 453.316 458.053 453.316ZM457.859 464.61C458.832 464.61 459.805 465.583 459.611 466.557C459.611 467.531 458.832 468.504 457.664 468.31C456.691 468.31 455.912 467.531 455.912 466.362C456.107 465.389 456.885 464.61 457.859 464.61ZM457.664 475.709C458.637 475.709 459.416 476.683 459.416 477.656C459.416 478.63 458.443 479.409 457.469 479.409C456.496 479.409 455.717 478.435 455.717 477.462C455.717 476.488 456.496 475.709 457.664 475.709ZM457.08 486.808C458.053 486.808 458.832 487.782 458.832 488.755C458.832 489.729 457.859 490.508 456.885 490.508C455.912 490.508 455.133 489.534 455.133 488.561C455.133 487.587 456.107 486.808 457.08 486.808ZM456.301 498.102C457.275 498.102 458.053 499.076 458.053 500.049C458.053 501.023 457.08 501.802 456.107 501.802C455.133 501.802 454.355 500.828 454.355 499.855C454.355 498.686 455.328 498.102 456.301 498.102ZM455.328 509.201C456.301 509.201 457.08 510.175 457.08 511.149C456.885 512.122 456.107 512.901 455.133 512.901C454.16 512.706 453.381 511.928 453.381 510.954C453.576 509.786 454.355 509.201 455.328 509.201ZM454.355 520.301C455.328 520.495 456.107 521.274 455.912 522.443C455.717 523.416 454.939 524.195 453.771 524C452.797 523.806 452.019 523.027 452.213 521.858C452.408 520.885 453.187 520.301 454.16 520.301C454.16 520.301 454.16 520.301 454.355 520.301ZM452.992 531.4C453.965 531.595 454.744 532.568 454.549 533.542C454.355 534.515 453.381 535.294 452.408 535.1C451.435 534.905 450.656 534.126 450.851 532.958C451.045 531.984 451.824 531.4 452.603 531.4C452.797 531.4 452.797 531.4 452.992 531.4ZM451.435 542.499C452.408 542.694 453.187 543.668 452.992 544.641C452.797 545.615 451.824 546.394 450.851 546.199C449.877 546.004 449.099 545.031 449.293 544.057C449.488 543.083 450.267 542.499 451.045 542.499C451.045 542.499 451.24 542.499 451.435 542.499ZM449.488 553.404C450.461 553.598 451.24 554.572 451.045 555.546C450.851 556.519 449.877 557.298 448.904 557.103C447.931 556.909 447.152 555.935 447.347 554.961C447.541 553.988 448.32 553.404 449.099 553.404C449.293 553.404 449.488 553.404 449.488 553.404ZM447.541 564.503C448.515 564.698 449.293 565.671 449.099 566.645C448.904 567.618 447.931 568.397 446.957 568.203C445.984 568.008 445.205 567.034 445.4 566.061C445.595 565.087 446.373 564.503 447.152 564.503C447.346 564.503 447.541 564.503 447.541 564.503ZM445.4 575.407C446.373 575.602 446.957 576.576 446.763 577.549C446.568 578.523 445.595 579.107 444.621 578.912C443.648 578.718 442.869 577.744 443.258 576.771C443.453 575.992 444.232 575.407 445.011 575.213C445.205 575.407 445.205 575.407 445.4 575.407ZM443.064 586.312C444.037 586.507 444.621 587.48 444.427 588.649C444.232 589.622 443.259 590.206 442.091 590.012C441.117 589.817 440.533 588.843 440.728 587.675C440.922 586.896 441.701 586.312 442.48 586.312C442.675 586.312 442.869 586.312 443.064 586.312ZM440.339 597.216C441.312 597.411 441.896 598.385 441.701 599.553C441.507 600.527 440.533 601.111 439.365 600.916C438.392 600.721 437.808 599.748 438.003 598.579C438.197 597.801 438.976 597.216 439.755 597.216C440.144 597.216 440.144 597.216 440.339 597.216ZM149.505 602.669C150.478 603.058 150.673 604.226 150.284 605.2C149.894 606.174 148.726 606.563 147.753 605.979C146.78 605.589 146.585 604.421 146.974 603.448C147.364 602.863 147.948 602.474 148.532 602.474C148.921 602.474 149.31 602.669 149.505 602.669ZM159.433 607.926C160.406 608.316 160.601 609.484 160.212 610.458C159.822 611.431 158.654 611.626 157.681 611.236C156.708 610.847 156.513 609.679 156.902 608.705C157.292 608.121 157.876 607.731 158.46 607.731C158.849 607.731 159.044 607.731 159.433 607.926ZM437.613 608.121C438.587 608.316 439.171 609.484 438.976 610.458C438.781 611.431 437.613 612.015 436.64 611.821C435.666 611.626 435.082 610.458 435.277 609.484C435.472 608.705 436.251 608.121 437.029 608.121C437.224 607.926 437.419 607.926 437.613 608.121ZM169.361 613.184C170.334 613.573 170.529 614.742 170.14 615.715C169.75 616.689 168.582 616.883 167.609 616.494C166.636 616.105 166.246 614.936 166.83 613.963C167.22 613.378 167.804 612.989 168.388 612.989C168.777 612.989 168.972 612.989 169.361 613.184ZM179.289 618.247C180.262 618.636 180.457 619.804 180.068 620.778C179.678 621.752 178.51 621.946 177.537 621.557C176.564 621.167 176.369 619.999 176.758 619.025C177.148 618.441 177.732 618.052 178.316 618.052C178.705 618.052 178.9 618.247 179.289 618.247ZM434.693 618.831C435.667 619.025 436.25 620.194 435.861 621.167C435.666 622.141 434.498 622.725 433.525 622.336C432.552 622.141 431.968 620.973 432.357 619.999C432.552 619.22 433.331 618.636 434.109 618.636C434.304 618.831 434.499 618.831 434.693 618.831ZM189.022 623.504C189.996 623.894 190.19 625.062 189.801 626.035C189.412 627.009 188.244 627.204 187.27 626.814C186.297 626.425 186.102 625.257 186.492 624.283C186.881 623.699 187.465 623.309 188.049 623.309C188.438 623.309 188.828 623.309 189.022 623.504ZM198.951 628.762C199.924 629.151 200.313 630.319 199.729 631.293C199.34 632.267 198.172 632.461 197.198 632.072C196.225 631.682 196.03 630.514 196.42 629.54C196.809 628.956 197.393 628.567 197.977 628.567C198.367 628.567 198.756 628.567 198.951 628.762ZM431.384 629.54C432.357 629.93 432.941 630.904 432.552 631.877C432.162 632.851 431.189 633.435 430.216 633.046C429.242 632.656 428.658 631.682 429.048 630.709C429.242 629.93 430.021 629.346 430.8 629.346C430.995 629.54 431.189 629.54 431.384 629.54ZM208.879 633.824C209.852 634.409 210.047 635.382 209.657 636.356C209.268 637.329 208.1 637.524 207.127 637.135C206.153 636.745 205.959 635.577 206.348 634.603C206.737 634.019 207.321 633.63 207.905 633.63C208.295 633.63 208.684 633.824 208.879 633.824ZM218.807 639.082C219.78 639.471 219.975 640.64 219.585 641.613C219.196 642.587 218.028 642.976 217.055 642.392C216.081 642.003 215.887 640.834 216.276 639.861C216.665 639.277 217.249 638.887 217.833 638.887C218.223 638.887 218.612 638.887 218.807 639.082ZM428.074 640.25C429.048 640.64 429.632 641.613 429.243 642.587C428.853 643.561 427.88 644.145 426.906 643.755C425.933 643.366 425.349 642.392 425.738 641.419C425.933 640.64 426.712 640.056 427.491 640.056C427.685 640.056 427.88 640.056 428.074 640.25ZM228.735 644.339C229.708 644.729 230.097 645.897 229.513 646.871C229.124 647.844 227.956 648.039 226.983 647.65C226.009 647.26 225.815 646.092 226.204 645.118C226.593 644.534 227.177 644.145 227.761 644.145C228.151 644.145 228.345 644.145 228.735 644.339ZM238.663 649.597C239.636 649.986 239.831 651.155 239.441 652.128C239.052 653.102 237.884 653.491 236.911 652.907C235.937 652.518 235.743 651.349 236.132 650.376C236.521 649.792 237.105 649.402 237.689 649.402C238.079 649.207 238.273 649.402 238.663 649.597ZM424.376 650.765C425.349 651.155 425.933 652.128 425.544 653.102C425.154 654.076 424.181 654.66 423.208 654.27C422.234 653.881 421.65 652.907 422.04 651.934C422.234 651.155 423.013 650.765 423.792 650.765C423.986 650.571 424.181 650.765 424.376 650.765ZM248.396 654.66C249.369 655.049 249.564 656.218 249.175 657.191C248.785 658.165 247.617 658.36 246.644 657.97C245.671 657.581 245.476 656.412 245.865 655.439C246.255 654.854 246.839 654.465 247.423 654.465C248.007 654.465 248.201 654.66 248.396 654.66ZM258.324 659.917C259.297 660.307 259.492 661.475 259.103 662.449C258.714 663.422 257.546 663.617 256.572 663.228C255.599 662.838 255.404 661.67 255.793 660.696C256.183 660.112 256.767 659.723 257.351 659.723C257.74 659.723 258.129 659.723 258.324 659.917ZM420.677 661.28C421.65 661.67 422.04 662.643 421.845 663.617C421.456 664.591 420.482 664.98 419.509 664.785C418.536 664.396 418.146 663.422 418.341 662.449C418.536 661.67 419.314 661.28 420.093 661.28C420.093 661.086 420.288 661.28 420.677 661.28ZM268.252 665.175C269.226 665.564 269.42 666.733 269.031 667.706C268.642 668.68 267.474 668.875 266.5 668.485C265.527 668.096 265.332 666.927 265.722 665.954C266.111 665.37 266.695 664.98 267.279 664.98C267.668 664.98 268.058 664.98 268.252 665.175ZM278.18 670.238C279.154 670.627 279.348 671.795 278.959 672.769C278.57 673.743 277.402 673.937 276.428 673.548C275.455 673.158 275.26 671.99 275.65 671.017C276.039 670.432 276.623 670.043 277.207 670.043C277.596 670.043 277.986 670.238 278.18 670.238ZM416.589 671.795C417.562 672.185 417.952 673.353 417.562 674.132C417.173 675.106 416.005 675.495 415.226 675.106C414.253 674.716 413.864 673.548 414.253 672.769C414.642 671.99 415.226 671.601 416.005 671.601C416.2 671.601 416.394 671.601 416.589 671.795ZM288.108 675.495C289.082 675.885 289.276 677.053 288.887 678.027C288.498 679 287.33 679.195 286.356 678.805C285.383 678.416 285.188 677.248 285.578 676.274C285.967 675.69 286.551 675.3 287.135 675.3C287.524 675.3 287.719 675.3 288.108 675.495ZM298.036 680.753C299.01 681.142 299.204 682.31 298.815 683.284C298.426 684.258 297.258 684.452 296.284 684.063C295.311 683.673 295.116 682.505 295.506 681.532C295.895 680.947 296.479 680.558 297.063 680.558C297.452 680.558 297.647 680.558 298.036 680.753ZM412.501 682.116C413.474 682.505 413.864 683.674 413.474 684.647C413.085 685.621 411.917 686.01 411.138 685.621C410.165 685.231 409.776 684.063 410.165 683.284C410.554 682.505 411.138 682.116 411.917 682.116C411.917 681.921 412.112 681.921 412.501 682.116ZM307.964 685.815C308.938 686.205 309.132 687.373 308.743 688.347C308.354 689.321 307.186 689.71 306.212 689.126C305.239 688.542 304.85 687.568 305.434 686.594C305.823 686.01 306.407 685.621 306.991 685.621C307.38 685.621 307.575 685.815 307.964 685.815ZM317.698 691.073C318.671 691.463 318.866 692.631 318.476 693.604C318.087 694.578 316.919 694.773 315.946 694.383C314.973 693.994 314.778 692.826 315.167 691.852C315.556 691.268 316.141 690.878 316.725 690.878C317.114 690.878 317.503 690.878 317.698 691.073ZM408.024 692.436C408.997 692.826 409.386 693.994 408.997 694.967C408.608 695.941 407.44 696.331 406.466 695.941C405.493 695.552 405.104 694.383 405.493 693.41C405.882 692.631 406.466 692.241 407.245 692.241C407.44 692.241 407.829 692.241 408.024 692.436ZM327.626 696.331C328.599 696.72 328.989 697.888 328.405 698.862C328.015 699.836 326.847 700.225 325.874 699.641C324.901 699.251 324.706 698.083 325.095 697.109C325.485 696.525 326.069 696.136 326.653 696.136C327.042 696.136 327.431 696.136 327.626 696.331ZM337.554 701.588C338.527 701.978 338.722 703.146 338.333 704.12C337.943 705.093 336.775 705.288 335.802 704.898C334.829 704.509 334.439 703.341 335.023 702.367C335.413 701.783 335.997 701.393 336.581 701.393C336.97 701.199 337.359 701.393 337.554 701.588ZM403.546 702.562C404.52 702.951 404.909 704.12 404.52 705.093C404.13 706.067 402.962 706.456 401.989 706.067C401.016 705.677 400.626 704.509 401.016 703.535C401.405 702.756 401.989 702.367 402.768 702.367C402.962 702.367 403.157 702.367 403.546 702.562ZM347.482 706.651C348.455 707.04 348.65 708.209 348.261 709.182C347.871 710.156 346.703 710.351 345.73 709.961C344.757 709.572 344.562 708.403 344.951 707.43C345.341 706.846 345.925 706.456 346.509 706.456C346.898 706.456 347.093 706.456 347.482 706.651ZM357.41 711.908C358.383 712.298 358.773 713.466 358.189 714.44C357.799 715.413 356.631 715.608 355.658 715.219C354.685 714.829 354.49 713.661 354.879 712.687C355.269 712.103 355.853 711.714 356.437 711.714C356.826 711.714 357.021 711.714 357.41 711.908ZM398.68 712.687C399.653 713.077 400.042 714.245 399.458 715.219C399.069 716.192 397.901 716.582 396.928 715.998C395.954 715.608 395.565 714.44 396.149 713.466C396.538 712.882 397.122 712.493 397.901 712.493C398.096 712.493 398.485 712.493 398.68 712.687ZM367.338 717.166C368.311 717.555 368.506 718.724 368.117 719.697C367.727 720.671 366.559 720.866 365.586 720.476C364.613 720.087 364.418 718.918 364.807 717.945C365.197 717.361 365.781 716.971 366.365 716.971C366.56 716.971 366.949 716.971 367.338 717.166ZM377.072 722.229C378.045 722.618 378.24 723.787 377.85 724.76C377.461 725.734 376.293 725.928 375.32 725.539C374.346 725.15 374.151 723.981 374.541 723.008C374.93 722.423 375.514 722.034 376.098 722.034C376.488 722.034 376.877 722.229 377.072 722.229ZM393.813 722.618C394.786 723.008 395.176 724.176 394.592 725.15C394.202 726.123 393.034 726.513 392.061 725.928C391.088 725.539 390.698 724.371 391.282 723.397C391.672 722.813 392.256 722.423 392.84 722.423C393.229 722.423 393.424 722.618 393.813 722.618ZM387 727.486C387.973 727.876 388.168 729.044 387.778 730.018C387.389 730.991 386.221 731.186 385.248 730.797C384.274 730.407 384.08 729.239 384.469 728.265C384.858 727.681 385.442 727.292 386.026 727.292C386.416 727.292 386.805 727.292 387 727.486Z" fill="#333333" fill-opacity="0.07"/>
<path d="M412.306 232.305C412.696 233.279 412.306 234.447 411.333 234.642C410.36 235.031 409.386 234.642 408.997 233.668C408.608 232.694 408.997 231.526 409.97 231.331C410.165 231.331 410.36 231.137 410.554 231.137C411.333 231.137 412.112 231.721 412.306 232.305ZM419.509 235.81C419.898 236.784 419.314 237.757 418.536 238.147C417.562 238.536 416.394 237.952 416.2 237.173C415.81 236.199 416.394 235.031 417.173 234.836C417.368 234.836 417.562 234.642 417.757 234.642C418.536 234.642 419.12 235.031 419.509 235.81ZM401.989 236.589C402.378 237.562 401.989 238.536 401.016 238.925C400.042 239.315 399.069 238.925 398.68 237.952C398.29 236.978 398.68 236.005 399.653 235.615C399.848 235.615 400.042 235.42 400.237 235.42C401.016 235.226 401.6 235.81 401.989 236.589ZM391.672 240.678C392.061 241.652 391.477 242.82 390.698 243.015C389.725 243.404 388.557 242.82 388.362 242.041C387.973 241.067 388.557 239.899 389.336 239.704C389.53 239.704 389.725 239.51 389.92 239.51C390.504 239.51 391.282 239.899 391.672 240.678ZM381.16 244.767C381.549 245.741 380.965 246.714 380.186 247.104C379.213 247.493 378.045 247.104 377.85 246.13C377.461 245.157 378.045 244.183 378.824 243.794C379.018 243.794 379.213 243.599 379.602 243.599C380.186 243.599 380.965 243.988 381.16 244.767ZM423.403 246.325C423.792 247.299 423.208 248.272 422.234 248.662C421.261 249.051 420.288 248.467 419.898 247.493C419.509 246.52 420.093 245.546 421.066 245.157C421.261 245.157 421.456 244.962 421.65 244.962C422.429 245.157 423.208 245.546 423.403 246.325ZM370.842 248.856C371.231 249.83 370.647 250.998 369.869 251.193C368.895 251.583 367.728 251.193 367.533 250.219C367.144 249.246 367.728 248.077 368.506 247.883C368.701 247.883 368.895 247.688 369.09 247.688C369.869 247.688 370.453 248.077 370.842 248.856ZM360.33 252.946C360.719 253.919 360.33 254.893 359.357 255.282C358.383 255.672 357.215 255.282 357.021 254.309C356.631 253.335 357.215 252.361 357.994 251.972C358.189 251.972 358.383 251.777 358.578 251.777C359.357 251.777 360.135 252.167 360.33 252.946ZM350.013 257.035C350.402 258.008 350.013 259.177 349.039 259.371C348.066 259.761 347.093 259.177 346.703 258.398C346.314 257.424 346.703 256.256 347.677 256.061C347.871 256.061 348.066 255.866 348.261 255.866C349.039 255.866 349.818 256.451 350.013 257.035ZM427.101 257.035C427.49 258.008 426.907 258.982 425.933 259.371C424.96 259.761 423.986 259.177 423.597 258.203C423.208 257.23 423.792 256.256 424.765 255.866C424.96 255.866 425.154 255.866 425.349 255.866C426.128 255.672 426.906 256.256 427.101 257.035ZM339.695 261.319C340.085 262.292 339.501 263.266 338.722 263.655C337.749 264.045 336.775 263.655 336.386 262.682C335.997 261.708 336.386 260.735 337.359 260.345C337.554 260.345 337.749 260.15 337.943 260.15C338.722 260.15 339.306 260.54 339.695 261.319ZM329.183 265.408C329.573 266.381 328.989 267.55 328.21 267.745C327.237 268.134 326.263 267.745 325.874 266.771C325.485 265.797 325.874 264.629 326.847 264.434C327.042 264.434 327.237 264.24 327.626 264.24C328.21 264.24 328.989 264.629 329.183 265.408ZM430.605 267.55C430.994 268.523 430.41 269.497 429.437 269.887C428.464 270.276 427.49 269.692 427.101 268.718C426.712 267.745 427.296 266.771 428.269 266.382C428.464 266.382 428.659 266.381 428.853 266.187C429.632 266.187 430.41 266.771 430.605 267.55ZM318.866 269.497C319.255 270.471 318.866 271.444 317.893 271.834C316.919 272.223 315.751 271.834 315.556 270.86C315.167 269.886 315.751 268.913 316.53 268.523C316.725 268.523 316.919 268.329 317.114 268.329C317.892 268.329 318.477 268.718 318.866 269.497ZM308.548 273.586C308.938 274.56 308.548 275.728 307.575 275.923C306.602 276.312 305.629 275.923 305.239 274.949C304.85 273.976 305.434 272.807 306.212 272.613C306.407 272.613 306.602 272.418 306.796 272.418C307.38 272.418 308.159 272.807 308.548 273.586ZM298.036 277.675C298.426 278.649 298.036 279.623 297.063 280.012C296.09 280.402 295.116 280.012 294.727 279.039C294.338 278.065 294.727 277.091 295.7 276.702C295.895 276.702 296.09 276.507 296.284 276.507C297.063 276.507 297.842 277.091 298.036 277.675ZM434.109 278.26C434.499 279.233 433.915 280.207 432.941 280.596C431.968 280.986 430.994 280.402 430.605 279.428C430.41 278.454 430.8 277.481 431.773 277.091C431.968 277.091 432.163 277.091 432.357 277.091C433.136 276.897 433.72 277.481 434.109 278.26ZM287.719 281.765C288.108 282.738 287.719 283.907 286.746 284.101C285.772 284.491 284.799 283.907 284.41 283.128C284.02 282.154 284.41 280.986 285.383 280.791C285.578 280.791 285.772 280.596 285.967 280.596C286.746 280.596 287.33 281.18 287.719 281.765ZM277.207 286.049C277.596 287.022 277.012 287.996 276.234 288.385C275.26 288.775 274.287 288.385 273.898 287.412C273.508 286.438 273.898 285.464 274.871 285.075C275.066 285.075 275.26 284.88 275.455 284.88C276.234 284.88 277.012 285.27 277.207 286.049ZM437.224 288.969C437.419 289.943 436.834 290.917 435.861 291.306C434.888 291.501 433.914 290.917 433.525 289.943C433.33 288.969 433.72 287.996 434.888 287.606C435.082 287.606 435.277 287.606 435.277 287.606C436.25 287.606 437.029 288.19 437.224 288.969ZM266.89 290.138C267.279 291.111 266.89 292.28 265.916 292.474C264.943 292.864 263.775 292.474 263.58 291.501C263.191 290.527 263.775 289.359 264.553 289.164C264.748 289.164 264.943 288.969 265.332 288.969C265.916 288.969 266.695 289.359 266.89 290.138ZM256.572 294.227C256.962 295.201 256.572 296.174 255.599 296.564C254.625 296.953 253.457 296.564 253.263 295.59C252.873 294.616 253.457 293.643 254.236 293.253C254.431 293.253 254.625 293.059 254.82 293.059C255.599 293.059 256.183 293.448 256.572 294.227ZM246.06 298.316C246.449 299.29 246.06 300.458 245.087 300.653C244.113 301.042 242.945 300.458 242.751 299.679C242.361 298.706 242.751 297.537 243.724 297.342C243.919 297.342 244.113 297.148 244.308 297.148C245.087 297.148 245.865 297.537 246.06 298.316ZM440.144 299.874C440.339 300.847 439.755 301.821 438.781 302.211C437.808 302.405 436.834 301.821 436.445 300.848C436.25 299.874 436.835 298.9 437.808 298.511C438.003 298.511 438.197 298.511 438.197 298.511C439.171 298.511 439.949 299.095 440.144 299.874ZM235.743 302.405C236.132 303.379 235.743 304.353 234.769 304.742C233.796 305.131 232.823 304.742 232.433 303.768C232.044 302.795 232.433 301.821 233.407 301.432C233.601 301.432 233.796 301.237 233.991 301.237C234.769 301.237 235.353 301.821 235.743 302.405ZM225.425 306.689C225.815 307.663 225.231 308.831 224.452 309.026C223.479 309.415 222.505 309.026 222.116 308.052C221.727 307.079 222.116 305.91 223.089 305.716C223.284 305.716 223.479 305.521 223.868 305.521C224.257 305.521 225.036 305.91 225.425 306.689ZM214.913 310.778C215.303 311.752 214.719 312.726 213.94 313.115C212.967 313.505 211.799 313.115 211.604 312.141C211.215 311.168 211.604 310.194 212.577 309.805C212.772 309.805 212.967 309.61 213.356 309.61C213.94 309.61 214.719 309.999 214.913 310.778ZM442.869 310.778C443.064 311.752 442.48 312.726 441.507 313.115C440.533 313.31 439.56 312.726 439.171 311.752C438.976 310.778 439.56 309.805 440.533 309.415C440.728 309.415 440.923 309.415 440.923 309.415C441.896 309.415 442.675 309.805 442.869 310.778ZM204.596 314.868C204.985 315.841 204.401 317.01 203.623 317.204C202.649 317.594 201.481 317.204 201.286 316.231C200.897 315.257 201.481 314.089 202.26 313.894C202.454 313.894 202.649 313.699 202.844 313.699C203.623 313.699 204.207 314.089 204.596 314.868ZM194.084 318.957C194.473 319.93 194.084 320.904 193.11 321.293C192.137 321.683 191.164 321.293 190.774 320.32C190.385 319.346 190.969 318.373 191.748 317.983C191.942 317.983 192.137 317.788 192.332 317.788C193.11 317.788 193.889 318.178 194.084 318.957ZM183.766 323.046C184.156 324.02 183.766 325.188 182.793 325.383C181.82 325.772 180.846 325.188 180.457 324.409C180.068 323.435 180.457 322.267 181.43 322.072C181.625 322.072 181.82 321.878 182.014 321.878C182.793 321.878 183.572 322.267 183.766 323.046ZM445.4 321.683C445.595 322.657 445.011 323.63 444.037 323.825C443.064 324.02 442.091 323.435 441.896 322.462C441.701 321.488 442.285 320.515 443.258 320.32C443.453 320.32 443.453 320.32 443.648 320.32C444.427 320.125 445.205 320.904 445.4 321.683ZM173.449 327.135C173.838 328.109 173.449 329.082 172.476 329.472C171.502 329.861 170.529 329.472 170.14 328.498C169.75 327.525 170.14 326.551 171.113 326.162C171.308 326.162 171.502 325.967 171.697 325.967C172.476 325.967 173.06 326.551 173.449 327.135ZM162.937 331.419C163.326 332.393 162.742 333.561 161.964 333.756C160.99 334.145 159.822 333.756 159.628 332.782C159.238 331.808 159.822 330.64 160.601 330.445C160.796 330.445 160.99 330.251 161.38 330.251C161.964 330.251 162.742 330.64 162.937 331.419ZM447.736 332.587C447.931 333.561 447.347 334.535 446.373 334.729C445.4 334.924 444.427 334.34 444.232 333.366C444.037 332.393 444.621 331.419 445.595 331.224C445.789 331.224 445.789 331.224 445.984 331.224C446.763 331.224 447.541 331.809 447.736 332.587ZM449.877 343.687C450.072 344.66 449.488 345.634 448.32 345.829C447.347 346.023 446.373 345.439 446.179 344.271C445.984 343.297 446.763 342.324 447.736 342.129C447.931 342.129 447.931 342.129 448.125 342.129C448.904 342.129 449.683 342.713 449.877 343.687ZM451.824 354.786C452.019 355.759 451.24 356.733 450.267 356.928C449.293 357.123 448.32 356.344 448.125 355.37C447.931 354.396 448.709 353.423 449.683 353.228C449.877 353.228 449.877 353.228 450.072 353.228C450.851 353.228 451.629 353.812 451.824 354.786ZM453.576 365.69C453.771 366.664 452.992 367.638 452.019 367.832C451.045 368.027 450.072 367.248 449.877 366.275C449.683 365.301 450.461 364.327 451.435 364.133H451.629C452.603 364.133 453.381 364.911 453.576 365.69ZM455.133 376.984C455.328 377.958 454.549 378.932 453.576 379.126C452.603 379.321 451.629 378.542 451.435 377.569C451.24 376.595 452.019 375.621 452.992 375.427H453.187C454.16 375.232 454.939 376.011 455.133 376.984ZM456.496 388.084C456.691 389.057 455.912 390.031 454.939 390.226C453.965 390.42 452.992 389.641 452.992 388.668C452.797 387.694 453.576 386.721 454.549 386.526H454.744C455.523 386.331 456.301 387.11 456.496 388.084ZM457.469 399.183C457.469 400.156 456.885 401.13 455.717 401.13C454.744 401.13 453.771 400.546 453.771 399.378C453.771 398.404 454.355 397.43 455.523 397.43H455.717C456.691 397.43 457.469 398.209 457.469 399.183ZM458.443 410.477C458.443 411.45 457.664 412.424 456.691 412.424C455.717 412.424 454.744 411.645 454.744 410.671C454.744 409.698 455.523 408.724 456.496 408.724C456.496 408.724 456.496 408.724 456.691 408.724C457.469 408.724 458.248 409.308 458.443 410.477ZM459.027 421.576C459.027 422.55 458.248 423.523 457.275 423.523C456.301 423.523 455.328 422.744 455.328 421.771C455.328 420.797 456.107 419.823 457.08 419.823C458.248 419.823 459.027 420.602 459.027 421.576ZM459.611 432.87C459.611 433.844 458.832 434.817 457.859 434.817C456.885 434.817 455.912 434.038 455.912 433.065C455.912 432.091 456.691 431.117 457.664 431.117C458.637 430.923 459.611 431.702 459.611 432.87ZM459.805 443.969C459.805 444.943 459.027 445.916 458.053 445.916C457.08 445.916 456.107 445.137 456.107 444.164C456.107 443.19 456.885 442.217 457.859 442.217C459.027 442.217 459.805 442.996 459.805 443.969ZM458.053 453.316C459.027 453.316 460 454.095 460 455.263C460 456.237 459.221 457.21 458.053 457.21C457.08 457.21 456.107 456.431 456.107 455.263C456.107 454.095 457.08 453.316 458.053 453.316ZM457.859 464.61C458.832 464.61 459.805 465.583 459.611 466.557C459.611 467.531 458.832 468.504 457.664 468.31C456.691 468.31 455.912 467.531 455.912 466.362C456.107 465.389 456.885 464.61 457.859 464.61ZM457.664 475.709C458.637 475.709 459.416 476.683 459.416 477.656C459.416 478.63 458.443 479.409 457.469 479.409C456.496 479.409 455.717 478.435 455.717 477.462C455.717 476.488 456.496 475.709 457.664 475.709ZM457.08 486.808C458.053 486.808 458.832 487.782 458.832 488.755C458.832 489.729 457.859 490.508 456.885 490.508C455.912 490.508 455.133 489.534 455.133 488.561C455.133 487.587 456.107 486.808 457.08 486.808ZM456.301 498.102C457.275 498.102 458.053 499.076 458.053 500.049C458.053 501.023 457.08 501.802 456.107 501.802C455.133 501.802 454.355 500.828 454.355 499.855C454.355 498.686 455.328 498.102 456.301 498.102ZM455.328 509.201C456.301 509.201 457.08 510.175 457.08 511.149C456.885 512.122 456.107 512.901 455.133 512.901C454.16 512.706 453.381 511.928 453.381 510.954C453.576 509.786 454.355 509.201 455.328 509.201ZM454.355 520.301C455.328 520.495 456.107 521.274 455.912 522.443C455.717 523.416 454.939 524.195 453.771 524C452.797 523.806 452.019 523.027 452.213 521.858C452.408 520.885 453.187 520.301 454.16 520.301C454.16 520.301 454.16 520.301 454.355 520.301ZM452.992 531.4C453.965 531.595 454.744 532.568 454.549 533.542C454.355 534.515 453.381 535.294 452.408 535.1C451.435 534.905 450.656 534.126 450.851 532.958C451.045 531.984 451.824 531.4 452.603 531.4C452.797 531.4 452.797 531.4 452.992 531.4ZM451.435 542.499C452.408 542.694 453.187 543.668 452.992 544.641C452.797 545.615 451.824 546.394 450.851 546.199C449.877 546.004 449.099 545.031 449.293 544.057C449.488 543.083 450.267 542.499 451.045 542.499C451.045 542.499 451.24 542.499 451.435 542.499ZM449.488 553.404C450.461 553.598 451.24 554.572 451.045 555.546C450.851 556.519 449.877 557.298 448.904 557.103C447.931 556.909 447.152 555.935 447.347 554.961C447.541 553.988 448.32 553.404 449.099 553.404C449.293 553.404 449.488 553.404 449.488 553.404ZM447.541 564.503C448.515 564.698 449.293 565.671 449.099 566.645C448.904 567.618 447.931 568.397 446.957 568.203C445.984 568.008 445.205 567.034 445.4 566.061C445.595 565.087 446.373 564.503 447.152 564.503C447.346 564.503 447.541 564.503 447.541 564.503ZM445.4 575.407C446.373 575.602 446.957 576.576 446.763 577.549C446.568 578.523 445.595 579.107 444.621 578.912C443.648 578.718 442.869 577.744 443.258 576.771C443.453 575.992 444.232 575.407 445.011 575.213C445.205 575.407 445.205 575.407 445.4 575.407ZM443.064 586.312C444.037 586.507 444.621 587.48 444.427 588.649C444.232 589.622 443.259 590.206 442.091 590.012C441.117 589.817 440.533 588.843 440.728 587.675C440.922 586.896 441.701 586.312 442.48 586.312C442.675 586.312 442.869 586.312 443.064 586.312ZM440.339 597.216C441.312 597.411 441.896 598.385 441.701 599.553C441.507 600.527 440.533 601.111 439.365 600.916C438.392 600.721 437.808 599.748 438.003 598.579C438.197 597.801 438.976 597.216 439.755 597.216C440.144 597.216 440.144 597.216 440.339 597.216ZM149.505 602.669C150.478 603.058 150.673 604.226 150.284 605.2C149.894 606.174 148.726 606.563 147.753 605.979C146.78 605.589 146.585 604.421 146.974 603.448C147.364 602.863 147.948 602.474 148.532 602.474C148.921 602.474 149.31 602.669 149.505 602.669ZM159.433 607.926C160.406 608.316 160.601 609.484 160.212 610.458C159.822 611.431 158.654 611.626 157.681 611.236C156.708 610.847 156.513 609.679 156.902 608.705C157.292 608.121 157.876 607.731 158.46 607.731C158.849 607.731 159.044 607.731 159.433 607.926ZM437.613 608.121C438.587 608.316 439.171 609.484 438.976 610.458C438.781 611.431 437.613 612.015 436.64 611.821C435.666 611.626 435.082 610.458 435.277 609.484C435.472 608.705 436.251 608.121 437.029 608.121C437.224 607.926 437.419 607.926 437.613 608.121ZM169.361 613.184C170.334 613.573 170.529 614.742 170.14 615.715C169.75 616.689 168.582 616.883 167.609 616.494C166.636 616.105 166.246 614.936 166.83 613.963C167.22 613.378 167.804 612.989 168.388 612.989C168.777 612.989 168.972 612.989 169.361 613.184ZM179.289 618.247C180.262 618.636 180.457 619.804 180.068 620.778C179.678 621.752 178.51 621.946 177.537 621.557C176.564 621.167 176.369 619.999 176.758 619.025C177.148 618.441 177.732 618.052 178.316 618.052C178.705 618.052 178.9 618.247 179.289 618.247ZM434.693 618.831C435.667 619.025 436.25 620.194 435.861 621.167C435.666 622.141 434.498 622.725 433.525 622.336C432.552 622.141 431.968 620.973 432.357 619.999C432.552 619.22 433.331 618.636 434.109 618.636C434.304 618.831 434.499 618.831 434.693 618.831ZM189.022 623.504C189.996 623.894 190.19 625.062 189.801 626.035C189.412 627.009 188.244 627.204 187.27 626.814C186.297 626.425 186.102 625.257 186.492 624.283C186.881 623.699 187.465 623.309 188.049 623.309C188.438 623.309 188.828 623.309 189.022 623.504ZM198.951 628.762C199.924 629.151 200.313 630.319 199.729 631.293C199.34 632.267 198.172 632.461 197.198 632.072C196.225 631.682 196.03 630.514 196.42 629.54C196.809 628.956 197.393 628.567 197.977 628.567C198.367 628.567 198.756 628.567 198.951 628.762ZM431.384 629.54C432.357 629.93 432.941 630.904 432.552 631.877C432.162 632.851 431.189 633.435 430.216 633.046C429.242 632.656 428.658 631.682 429.048 630.709C429.242 629.93 430.021 629.346 430.8 629.346C430.995 629.54 431.189 629.54 431.384 629.54ZM208.879 633.824C209.852 634.409 210.047 635.382 209.657 636.356C209.268 637.329 208.1 637.524 207.127 637.135C206.153 636.745 205.959 635.577 206.348 634.603C206.737 634.019 207.321 633.63 207.905 633.63C208.295 633.63 208.684 633.824 208.879 633.824ZM218.807 639.082C219.78 639.471 219.975 640.64 219.585 641.613C219.196 642.587 218.028 642.976 217.055 642.392C216.081 642.003 215.887 640.834 216.276 639.861C216.665 639.277 217.249 638.887 217.833 638.887C218.223 638.887 218.612 638.887 218.807 639.082ZM428.074 640.25C429.048 640.64 429.632 641.613 429.243 642.587C428.853 643.561 427.88 644.145 426.906 643.755C425.933 643.366 425.349 642.392 425.738 641.419C425.933 640.64 426.712 640.056 427.491 640.056C427.685 640.056 427.88 640.056 428.074 640.25ZM228.735 644.339C229.708 644.729 230.097 645.897 229.513 646.871C229.124 647.844 227.956 648.039 226.983 647.65C226.009 647.26 225.815 646.092 226.204 645.118C226.593 644.534 227.177 644.145 227.761 644.145C228.151 644.145 228.345 644.145 228.735 644.339ZM238.663 649.597C239.636 649.986 239.831 651.155 239.441 652.128C239.052 653.102 237.884 653.491 236.911 652.907C235.937 652.518 235.743 651.349 236.132 650.376C236.521 649.792 237.105 649.402 237.689 649.402C238.079 649.207 238.273 649.402 238.663 649.597ZM424.376 650.765C425.349 651.155 425.933 652.128 425.544 653.102C425.154 654.076 424.181 654.66 423.208 654.27C422.234 653.881 421.65 652.907 422.04 651.934C422.234 651.155 423.013 650.765 423.792 650.765C423.986 650.571 424.181 650.765 424.376 650.765ZM248.396 654.66C249.369 655.049 249.564 656.218 249.175 657.191C248.785 658.165 247.617 658.36 246.644 657.97C245.671 657.581 245.476 656.412 245.865 655.439C246.255 654.854 246.839 654.465 247.423 654.465C248.007 654.465 248.201 654.66 248.396 654.66ZM258.324 659.917C259.297 660.307 259.492 661.475 259.103 662.449C258.714 663.422 257.546 663.617 256.572 663.228C255.599 662.838 255.404 661.67 255.793 660.696C256.183 660.112 256.767 659.723 257.351 659.723C257.74 659.723 258.129 659.723 258.324 659.917ZM420.677 661.28C421.65 661.67 422.04 662.643 421.845 663.617C421.456 664.591 420.482 664.98 419.509 664.785C418.536 664.396 418.146 663.422 418.341 662.449C418.536 661.67 419.314 661.28 420.093 661.28C420.093 661.086 420.288 661.28 420.677 661.28ZM268.252 665.175C269.226 665.564 269.42 666.733 269.031 667.706C268.642 668.68 267.474 668.875 266.5 668.485C265.527 668.096 265.332 666.927 265.722 665.954C266.111 665.37 266.695 664.98 267.279 664.98C267.668 664.98 268.058 664.98 268.252 665.175ZM278.18 670.238C279.154 670.627 279.348 671.795 278.959 672.769C278.57 673.743 277.402 673.937 276.428 673.548C275.455 673.158 275.26 671.99 275.65 671.017C276.039 670.432 276.623 670.043 277.207 670.043C277.596 670.043 277.986 670.238 278.18 670.238ZM416.589 671.795C417.562 672.185 417.952 673.353 417.562 674.132C417.173 675.106 416.005 675.495 415.226 675.106C414.253 674.716 413.864 673.548 414.253 672.769C414.642 671.99 415.226 671.601 416.005 671.601C416.2 671.601 416.394 671.601 416.589 671.795ZM288.108 675.495C289.082 675.885 289.276 677.053 288.887 678.027C288.498 679 287.33 679.195 286.356 678.805C285.383 678.416 285.188 677.248 285.578 676.274C285.967 675.69 286.551 675.3 287.135 675.3C287.524 675.3 287.719 675.3 288.108 675.495ZM298.036 680.753C299.01 681.142 299.204 682.31 298.815 683.284C298.426 684.258 297.258 684.452 296.284 684.063C295.311 683.673 295.116 682.505 295.506 681.532C295.895 680.947 296.479 680.558 297.063 680.558C297.452 680.558 297.647 680.558 298.036 680.753ZM412.501 682.116C413.474 682.505 413.864 683.674 413.474 684.647C413.085 685.621 411.917 686.01 411.138 685.621C410.165 685.231 409.776 684.063 410.165 683.284C410.554 682.505 411.138 682.116 411.917 682.116C411.917 681.921 412.112 681.921 412.501 682.116ZM307.964 685.815C308.938 686.205 309.132 687.373 308.743 688.347C308.354 689.321 307.186 689.71 306.212 689.126C305.239 688.542 304.85 687.568 305.434 686.594C305.823 686.01 306.407 685.621 306.991 685.621C307.38 685.621 307.575 685.815 307.964 685.815ZM317.698 691.073C318.671 691.463 318.866 692.631 318.476 693.604C318.087 694.578 316.919 694.773 315.946 694.383C314.973 693.994 314.778 692.826 315.167 691.852C315.556 691.268 316.141 690.878 316.725 690.878C317.114 690.878 317.503 690.878 317.698 691.073ZM408.024 692.436C408.997 692.826 409.386 693.994 408.997 694.967C408.608 695.941 407.44 696.331 406.466 695.941C405.493 695.552 405.104 694.383 405.493 693.41C405.882 692.631 406.466 692.241 407.245 692.241C407.44 692.241 407.829 692.241 408.024 692.436ZM327.626 696.331C328.599 696.72 328.989 697.888 328.405 698.862C328.015 699.836 326.847 700.225 325.874 699.641C324.901 699.251 324.706 698.083 325.095 697.109C325.485 696.525 326.069 696.136 326.653 696.136C327.042 696.136 327.431 696.136 327.626 696.331ZM337.554 701.588C338.527 701.978 338.722 703.146 338.333 704.12C337.943 705.093 336.775 705.288 335.802 704.898C334.829 704.509 334.439 703.341 335.023 702.367C335.413 701.783 335.997 701.393 336.581 701.393C336.97 701.199 337.359 701.393 337.554 701.588ZM403.546 702.562C404.52 702.951 404.909 704.12 404.52 705.093C404.13 706.067 402.962 706.456 401.989 706.067C401.016 705.677 400.626 704.509 401.016 703.535C401.405 702.756 401.989 702.367 402.768 702.367C402.962 702.367 403.157 702.367 403.546 702.562ZM347.482 706.651C348.455 707.04 348.65 708.209 348.261 709.182C347.871 710.156 346.703 710.351 345.73 709.961C344.757 709.572 344.562 708.403 344.951 707.43C345.341 706.846 345.925 706.456 346.509 706.456C346.898 706.456 347.093 706.456 347.482 706.651ZM357.41 711.908C358.383 712.298 358.773 713.466 358.189 714.44C357.799 715.413 356.631 715.608 355.658 715.219C354.685 714.829 354.49 713.661 354.879 712.687C355.269 712.103 355.853 711.714 356.437 711.714C356.826 711.714 357.021 711.714 357.41 711.908ZM398.68 712.687C399.653 713.077 400.042 714.245 399.458 715.219C399.069 716.192 397.901 716.582 396.928 715.998C395.954 715.608 395.565 714.44 396.149 713.466C396.538 712.882 397.122 712.493 397.901 712.493C398.096 712.493 398.485 712.493 398.68 712.687ZM367.338 717.166C368.311 717.555 368.506 718.724 368.117 719.697C367.727 720.671 366.559 720.866 365.586 720.476C364.613 720.087 364.418 718.918 364.807 717.945C365.197 717.361 365.781 716.971 366.365 716.971C366.56 716.971 366.949 716.971 367.338 717.166ZM377.072 722.229C378.045 722.618 378.24 723.787 377.85 724.76C377.461 725.734 376.293 725.928 375.32 725.539C374.346 725.15 374.151 723.981 374.541 723.008C374.93 722.423 375.514 722.034 376.098 722.034C376.488 722.034 376.877 722.229 377.072 722.229ZM393.813 722.618C394.786 723.008 395.176 724.176 394.592 725.15C394.202 726.123 393.034 726.513 392.061 725.928C391.088 725.539 390.698 724.371 391.282 723.397C391.672 722.813 392.256 722.423 392.84 722.423C393.229 722.423 393.424 722.618 393.813 722.618ZM387 727.486C387.973 727.876 388.168 729.044 387.778 730.018C387.389 730.991 386.221 731.186 385.248 730.797C384.274 730.407 384.08 729.239 384.469 728.265C384.858 727.681 385.442 727.292 386.026 727.292C386.416 727.292 386.805 727.292 387 727.486Z" fill="#333333" fill-opacity="0.07"/>
<path d="M51.7817 110.408L57.2323 101.256C60.931 103.398 64.6297 105.735 68.1337 108.071L62.2937 117.029C58.9843 114.887 55.4803 112.55 51.7817 110.408Z" fill="#333333" fill-opacity="0.07"/>
<path d="M35.0402 100.867L40.1016 91.52C43.8003 93.4672 47.6936 95.6091 51.3923 97.7511L46.1363 106.903C42.4376 104.761 38.7389 102.814 35.0402 100.867Z" fill="#333333" fill-opacity="0.07"/>
<path d="M17.7148 92.1041L22.3868 82.5627C26.2802 84.3152 30.1735 86.2624 33.8722 88.2097L29.0055 97.7511C25.3068 95.6091 21.4135 93.8566 17.7148 92.1041Z" fill="#333333" fill-opacity="0.07"/>
<path d="M0 84.1205L4.08803 74.1896C7.98139 75.7474 12.0694 77.4999 15.9628 79.2524L11.4854 88.9886C7.59204 87.4308 3.89336 85.6783 0 84.1205Z" fill="#333333" fill-opacity="0.07"/>
<path d="M248.396 597.801C251.511 589.622 254.431 581.249 256.961 572.876L265.527 575.602C262.802 584.17 259.882 592.738 256.767 601.111L248.396 597.801Z" fill="#333333" fill-opacity="0.07"/>
<path d="M35.0402 59.3906L38.9336 51.407C48.8617 56.275 58.7897 61.5326 68.5231 67.1795L64.0457 74.7738C54.507 69.3215 44.7736 64.064 35.0402 59.3906Z" fill="#333333" fill-opacity="0.07"/>
<path d="M262.217 693.215C275.844 670.627 287.524 646.871 297.258 622.336L282.463 616.494C273.119 640.056 261.828 663.228 248.591 685.037L262.217 693.215Z" fill="#333333" fill-opacity="0.07"/>
<path d="M314.194 469.088C313.805 475.709 313.415 482.524 312.831 489.145L328.794 490.703C329.378 483.887 329.962 476.877 330.351 470.062L314.194 469.088Z" fill="#333333" fill-opacity="0.07"/>
<path d="M193.889 131.244L205.764 120.534C204.596 119.171 203.233 117.808 202.065 116.445L190.385 127.349C191.359 128.517 192.527 129.88 193.889 131.244Z" fill="#333333" fill-opacity="0.07"/>
<path d="M187.66 124.428L199.34 113.524C198.172 112.355 197.004 111.187 195.836 109.824L184.35 120.923C185.324 122.092 186.492 123.26 187.66 124.428Z" fill="#333333" fill-opacity="0.07"/>
<path d="M110.766 39.7236L102.006 53.1595C110.961 59.0012 119.915 65.2323 128.481 71.6582L138.019 58.8064C129.259 52.1858 120.11 45.76 110.766 39.7236Z" fill="#333333" fill-opacity="0.07"/>
<path d="M134.126 834C151.841 820.954 168.582 806.739 184.35 791.356L173.254 779.867C158.07 794.666 141.718 808.491 124.587 820.954L134.126 834Z" fill="#333333" fill-opacity="0.07"/>
<path d="M200.702 750.853C198.95 752.995 197.004 755.137 195.057 757.084L206.932 767.794C208.879 765.652 210.825 763.51 212.772 761.173L200.702 750.853Z" fill="#333333" fill-opacity="0.07"/>
<path d="M363.055 445.332H397.512V444.359C397.512 381.658 387 319.93 366.365 261.319C347.093 206.991 319.645 156.168 284.41 110.213C285.578 109.045 286.162 107.682 286.162 105.929C286.162 102.619 283.436 99.8931 280.127 99.8931C276.818 99.8931 274.092 102.619 274.092 105.929C274.092 109.24 276.818 111.966 280.127 111.966C281.1 111.966 282.074 111.576 283.047 111.187C318.087 156.947 345.73 207.575 364.807 261.903C385.248 320.125 395.76 381.073 395.954 443.385H363.25C363.055 440.269 360.33 437.738 357.215 437.738C353.906 437.738 351.181 440.464 351.181 443.774C351.181 447.085 353.906 449.811 357.215 449.811C360.135 450.2 362.471 448.058 363.055 445.332Z" fill="#333333" fill-opacity="0.07"/>
<path d="M51.7817 110.408L57.2323 101.256C60.931 103.398 64.6297 105.735 68.1337 108.071L62.2937 117.029C58.9843 114.887 55.4803 112.55 51.7817 110.408Z" fill="#333333" fill-opacity="0.07"/>
<path d="M35.0402 100.867L40.1016 91.52C43.8003 93.4672 47.6936 95.6091 51.3923 97.7511L46.1363 106.903C42.4376 104.761 38.7389 102.814 35.0402 100.867Z" fill="#333333" fill-opacity="0.07"/>
<path d="M17.7148 92.1041L22.3868 82.5627C26.2802 84.3152 30.1735 86.2624 33.8722 88.2097L29.0055 97.7511C25.3068 95.6091 21.4135 93.8566 17.7148 92.1041Z" fill="#333333" fill-opacity="0.07"/>
<path d="M0 84.1205L4.08803 74.1896C7.98139 75.7474 12.0694 77.4999 15.9628 79.2524L11.4854 88.9886C7.59204 87.4308 3.89336 85.6783 0 84.1205Z" fill="#333333" fill-opacity="0.07"/>
<path d="M248.396 597.801C251.511 589.622 254.431 581.249 256.961 572.876L265.527 575.602C262.802 584.17 259.882 592.738 256.767 601.111L248.396 597.801Z" fill="#333333" fill-opacity="0.07"/>
<path d="M35.0402 59.3906L38.9336 51.407C48.8617 56.275 58.7897 61.5326 68.5231 67.1795L64.0457 74.7738C54.507 69.3215 44.7736 64.064 35.0402 59.3906Z" fill="#333333" fill-opacity="0.07"/>
<path d="M262.217 693.215C275.844 670.627 287.524 646.871 297.258 622.336L282.463 616.494C273.119 640.056 261.828 663.228 248.591 685.037L262.217 693.215Z" fill="#333333" fill-opacity="0.07"/>
<path d="M314.194 469.088C313.805 475.709 313.415 482.524 312.831 489.145L328.794 490.703C329.378 483.887 329.962 476.877 330.351 470.062L314.194 469.088Z" fill="#333333" fill-opacity="0.07"/>
<path d="M193.889 131.244L205.764 120.534C204.596 119.171 203.233 117.808 202.065 116.445L190.385 127.349C191.359 128.517 192.527 129.88 193.889 131.244Z" fill="#333333" fill-opacity="0.07"/>
<path d="M187.66 124.428L199.34 113.524C198.172 112.355 197.004 111.187 195.836 109.824L184.35 120.923C185.324 122.092 186.492 123.26 187.66 124.428Z" fill="#333333" fill-opacity="0.07"/>
<path d="M110.766 39.7236L102.006 53.1595C110.961 59.0012 119.915 65.2323 128.481 71.6582L138.019 58.8064C129.259 52.1858 120.11 45.76 110.766 39.7236Z" fill="#333333" fill-opacity="0.07"/>
<path d="M200.702 750.853C198.95 752.995 197.004 755.137 195.057 757.084L206.932 767.794C208.879 765.652 210.825 763.51 212.772 761.173L200.702 750.853Z" fill="#333333" fill-opacity="0.07"/>
<path d="M363.055 445.332H397.512V444.359C397.512 381.658 387 319.93 366.365 261.319C347.093 206.991 319.645 156.168 284.41 110.213C285.578 109.045 286.162 107.682 286.162 105.929C286.162 102.619 283.436 99.8931 280.127 99.8931C276.818 99.8931 274.092 102.619 274.092 105.929C274.092 109.24 276.818 111.966 280.127 111.966C281.1 111.966 282.074 111.576 283.047 111.187C318.087 156.947 345.73 207.575 364.807 261.903C385.248 320.125 395.76 381.073 395.954 443.385H363.25C363.055 440.269 360.33 437.738 357.215 437.738C353.906 437.738 351.181 440.464 351.181 443.774C351.181 447.085 353.906 449.811 357.215 449.811C360.135 450.2 362.471 448.058 363.055 445.332Z" fill="#333333" fill-opacity="0.07"/>
<path d="M312.053 578.718L296.674 574.239C293.17 586.312 289.276 598.19 284.799 609.873L299.788 615.52C304.46 603.448 308.549 591.18 312.053 578.718Z" fill="#333333" fill-opacity="0.07"/>
<path d="M312.052 496.739C310.69 509.007 308.938 521.274 306.602 533.347L322.37 536.268C324.706 523.806 326.653 511.149 328.015 498.492L312.052 496.739Z" fill="#333333" fill-opacity="0.07"/>
<path d="M314.194 469.088C313.805 475.709 313.415 482.524 312.831 489.145L328.794 490.703C329.378 483.887 329.962 476.877 330.351 470.062L314.194 469.088Z" fill="#333333" fill-opacity="0.07"/>
<path d="M193.889 131.244L205.764 120.534C204.596 119.171 203.233 117.808 202.065 116.445L190.385 127.349C191.359 128.517 192.527 129.88 193.889 131.244Z" fill="#333333" fill-opacity="0.07"/>
<path d="M187.66 124.428L199.34 113.524C198.172 112.355 197.004 111.187 195.836 109.824L184.35 120.923C185.324 122.092 186.492 123.26 187.66 124.428Z" fill="#333333" fill-opacity="0.07"/>
<path d="M181.625 118.392L193.11 107.098C181.82 95.6092 169.75 84.5099 157.486 74.1896L147.169 86.4572C159.238 96.5828 170.724 107.293 181.625 118.392Z" fill="#333333" fill-opacity="0.07"/>
<path d="M110.766 39.7236L102.006 53.1595C110.961 59.0012 119.915 65.2323 128.481 71.6582L138.019 58.8064C129.259 52.1858 120.11 45.76 110.766 39.7236Z" fill="#333333" fill-opacity="0.07"/>
<path d="M200.702 750.853C198.95 752.995 197.004 755.137 195.057 757.084L206.932 767.794C208.879 765.652 210.825 763.51 212.772 761.173L200.702 750.853Z" fill="#333333" fill-opacity="0.07"/>
<path d="M205.18 512.706C205.764 510.175 206.153 507.644 206.543 504.918L225.62 507.838C225.036 510.759 224.647 513.68 224.063 516.601L205.18 512.706Z" fill="#333333" fill-opacity="0.07"/>
<path d="M208.489 493.039C208.879 490.508 209.073 487.782 209.463 485.251L228.735 487.003C228.345 489.924 227.956 492.845 227.567 495.766L208.489 493.039Z" fill="#333333" fill-opacity="0.07"/>
<path d="M208.489 493.039C208.879 490.508 209.073 487.782 209.463 485.251L228.735 487.003C228.345 489.924 227.956 492.845 227.567 495.766L208.489 493.039Z" fill="#333333" fill-opacity="0.07"/>
<path d="M210.631 473.178C210.825 470.646 211.02 467.92 211.215 465.389L230.487 466.168C230.292 469.088 230.097 472.009 229.903 475.125L210.631 473.178Z" fill="#333333" fill-opacity="0.07"/>
<path d="M200.119 354.396C199.535 351.865 198.756 349.334 198.172 346.802L216.665 341.35C217.444 344.271 218.223 346.997 219.001 349.918L200.119 354.396Z" fill="#333333" fill-opacity="0.07"/>
<path d="M194.473 335.119C193.694 332.587 192.916 330.056 191.942 327.719L210.241 321.099C211.215 323.825 212.188 326.746 212.967 329.472L194.473 335.119Z" fill="#333333" fill-opacity="0.07"/>
<path d="M204.596 373.869C204.012 371.337 203.623 368.806 203.039 366.275L221.921 361.796C222.505 364.717 223.284 367.638 223.868 370.558L204.596 373.869Z" fill="#333333" fill-opacity="0.07"/>
<path d="M207.905 393.536C207.516 391.004 207.127 388.278 206.737 385.747L225.815 382.242C226.399 385.163 226.788 388.084 227.177 391.004L207.905 393.536Z" fill="#333333" fill-opacity="0.07"/>
<path d="M206.153 309.805L187.854 316.425C186.881 313.894 185.908 311.557 184.934 309.221L202.844 301.626C204.012 304.158 205.18 307.079 206.153 309.805Z" fill="#333333" fill-opacity="0.07"/>
<path d="M115.049 198.034C113.297 196.086 111.545 194.139 109.598 192.387L123.419 178.756C125.561 180.898 127.507 183.04 129.454 185.182L115.049 198.034Z" fill="#333333" fill-opacity="0.07"/>
<path d="M101.227 183.819C99.2806 182.066 97.5286 180.119 95.5819 178.367L108.625 163.957C110.766 165.904 112.907 168.046 115.049 170.188L101.227 183.819Z" fill="#333333" fill-opacity="0.07"/>
<path d="M140.55 228.995C138.993 226.853 137.435 224.711 135.878 222.763L151.062 210.691C152.814 213.027 154.761 215.364 156.513 217.895L140.55 228.995Z" fill="#333333" fill-opacity="0.07"/>
<path d="M151.841 245.351C150.478 243.209 148.921 241.067 147.558 238.925L163.326 227.632C165.078 230.163 166.636 232.5 168.193 235.031L151.841 245.351Z" fill="#333333" fill-opacity="0.07"/>
<path d="M180.457 297.927C180.262 297.537 180.068 296.953 179.873 296.564C179.094 294.616 178.121 292.669 177.148 290.917L194.473 282.349C195.446 284.491 196.42 286.633 197.393 288.58C197.588 289.164 197.977 289.748 198.172 290.332L180.457 297.927Z" fill="#333333" fill-opacity="0.07"/>
<path d="M204.596 373.869C204.012 371.337 203.623 368.806 203.039 366.275L221.921 361.796C222.505 364.717 223.284 367.638 223.868 370.558L204.596 373.869Z" fill="#333333" fill-opacity="0.07"/>
<path d="M206.153 309.805L187.854 316.425C186.881 313.894 185.908 311.557 184.934 309.221L202.844 301.626C204.012 304.158 205.18 307.079 206.153 309.805Z" fill="#333333" fill-opacity="0.07"/>
<path d="M115.049 198.034C113.297 196.086 111.545 194.139 109.598 192.387L123.419 178.756C125.561 180.898 127.507 183.04 129.454 185.182L115.049 198.034Z" fill="#333333" fill-opacity="0.07"/>
<path d="M140.55 228.995C138.993 226.853 137.435 224.711 135.878 222.763L151.062 210.691C152.814 213.027 154.761 215.364 156.513 217.895L140.55 228.995Z" fill="#333333" fill-opacity="0.07"/>
<path d="M180.457 297.927C180.262 297.537 180.068 296.953 179.873 296.564C179.094 294.616 178.121 292.669 177.148 290.917L194.473 282.349C195.446 284.491 196.42 286.633 197.393 288.58C197.588 289.164 197.977 289.748 198.172 290.332L180.457 297.927Z" fill="#333333" fill-opacity="0.07"/>
<path d="M59.763 181.093C163.132 265.408 207.126 403.077 171.502 531.789L180.846 534.321C217.444 401.909 172.281 260.345 65.9923 173.498L59.763 181.093Z" fill="#333333" fill-opacity="0.07"/>
<path d="M253.457 350.113L241.388 353.228C258.713 419.629 257.545 489.34 237.689 554.767L249.564 558.272C270.199 490.703 271.562 418.655 253.457 350.113Z" fill="#333333" fill-opacity="0.07"/>
<path d="M257.156 712.103C255.015 715.219 252.679 718.334 250.343 721.45L260.271 728.849C262.607 725.734 264.943 722.423 267.279 719.308L257.156 712.103Z" fill="#333333" fill-opacity="0.07"/>
<path d="M67.3551 41.2813C70.6644 43.0339 73.9738 44.9811 77.2831 46.9283L83.3178 36.4133C80.0085 34.466 76.5045 32.5188 73.1951 30.7663L67.3551 41.2813Z" fill="#333333" fill-opacity="0.07"/>
<path d="M51.1976 32.7135C54.507 34.466 58.011 36.0238 61.3203 37.7763L66.9657 26.8718C63.4617 25.1193 59.9576 23.3668 56.6483 21.6143L51.1976 32.7135Z" fill="#333333" fill-opacity="0.07"/>
<path d="M34.6509 25.1193C38.1549 26.6771 41.6589 28.2349 44.9683 29.7927L50.2243 18.6934C46.7203 16.9409 43.2162 15.3831 39.7122 13.8254L34.6509 25.1193Z" fill="#333333" fill-opacity="0.07"/>
<path d="M17.7148 17.9145C21.2188 19.2776 24.7228 20.8354 28.2268 22.1985L33.0935 10.9045C29.5895 9.34672 25.8908 7.98366 22.3868 6.42587L17.7148 17.9145Z" fill="#333333" fill-opacity="0.07"/>
<path d="M0.778658 11.6834C4.28268 12.8517 7.98137 14.2148 11.4854 15.5779L15.7681 4.08919C12.0694 2.72613 8.37071 1.36306 4.86669 0L0.778658 11.6834Z" fill="#333333" fill-opacity="0.07"/>
<path d="M315.751 410.671C314.583 391.783 312.247 372.895 308.743 354.396L296.674 356.733C299.983 374.842 302.319 393.146 303.487 411.45L315.751 410.671Z" fill="#333333" fill-opacity="0.07"/>
<path d="M305.628 339.792C301.54 321.293 296.284 302.989 290.055 285.27L278.57 289.359C284.604 306.689 289.666 324.604 293.754 342.518L305.628 339.792Z" fill="#333333" fill-opacity="0.07"/>
<path d="M284.799 271.055C277.986 253.53 270.004 236.199 261.049 219.648L250.343 225.49C258.908 241.652 266.695 258.593 273.508 275.728L284.799 271.055Z" fill="#333333" fill-opacity="0.07"/>
<path d="M176.564 704.509C174.617 707.235 172.67 709.766 170.529 712.298L178.9 718.724C181.041 715.998 182.988 713.271 184.934 710.545L176.564 704.509Z" fill="#333333" fill-opacity="0.07"/>
<path d="M185.713 691.657C183.961 694.383 182.014 697.109 180.068 699.836L188.828 706.067C190.774 703.341 192.721 700.614 194.668 697.694L185.713 691.657Z" fill="#333333" fill-opacity="0.07"/>
<path d="M194.279 678.221C192.526 680.947 190.774 683.868 189.022 686.594L197.977 692.436C199.729 689.71 201.676 686.789 203.428 683.868L194.279 678.221Z" fill="#333333" fill-opacity="0.07"/>
<path d="M202.454 664.591C200.897 667.511 199.145 670.238 197.588 673.159L206.737 678.611C208.489 675.69 210.241 672.769 211.799 669.848L202.454 664.591Z" fill="#333333" fill-opacity="0.07"/>
<path d="M209.852 650.571C208.295 653.491 206.737 656.412 205.18 659.333L214.524 664.396C216.081 661.475 217.639 658.36 219.196 655.439L209.852 650.571Z" fill="#333333" fill-opacity="0.07"/>
<path d="M216.86 636.356C215.497 639.277 214.135 642.392 212.577 645.313L222.116 649.986C223.673 647.066 225.036 643.95 226.399 640.834L216.86 636.356Z" fill="#333333" fill-opacity="0.07"/>
<path d="M223.284 621.946C222.116 625.062 220.753 627.983 219.391 631.098L229.124 635.382C230.487 632.267 231.849 629.151 233.212 626.035L223.284 621.946Z" fill="#333333" fill-opacity="0.07"/>
<path d="M86.6272 793.108C83.9018 795.055 81.1765 796.808 78.4512 798.755L84.4858 807.518C87.2112 805.57 90.1312 803.623 92.8565 801.676L86.6272 793.108Z" fill="#333333" fill-opacity="0.07"/>
<path d="M99.4752 783.761C96.9445 785.709 94.2192 787.851 91.4939 789.603L97.7233 798.171C100.449 796.224 103.174 794.082 105.899 792.134L99.4752 783.761Z" fill="#333333" fill-opacity="0.07"/>
<path d="M111.739 773.831C109.209 775.972 106.678 778.114 104.147 780.062L110.766 788.435C113.491 786.293 116.022 784.151 118.553 782.009L111.739 773.831Z" fill="#333333" fill-opacity="0.07"/>
<path d="M123.614 763.315C121.278 765.457 118.747 767.794 116.217 769.936L123.225 777.92C125.755 775.778 128.286 773.441 130.817 771.299L123.614 763.315Z" fill="#333333" fill-opacity="0.07"/>
<path d="M135.294 752.411C132.958 754.748 130.622 757.084 128.091 759.226L135.294 767.015C137.825 764.678 140.161 762.342 142.692 760.005L135.294 752.411Z" fill="#333333" fill-opacity="0.07"/>
<path d="M146.39 741.117C144.054 743.454 141.913 745.985 139.577 748.322L147.169 755.721C149.505 753.385 151.841 750.853 154.177 748.516L146.39 741.117Z" fill="#333333" fill-opacity="0.07"/>
<path d="M156.902 729.434C154.761 731.965 152.62 734.302 150.284 736.833L158.07 744.038C160.406 741.506 162.548 738.975 164.884 736.444L156.902 729.434Z" fill="#333333" fill-opacity="0.07"/>
<path d="M167.025 717.166C165.078 719.697 162.937 722.229 160.796 724.76L168.972 731.576C171.113 729.044 173.254 726.318 175.396 723.787L167.025 717.166Z" fill="#333333" fill-opacity="0.07"/>
</svg>
