<svg width="52" height="52" viewBox="0 0 52 52" fill="none" xmlns="http://www.w3.org/2000/svg">
<circle cx="26" cy="26" r="26" fill="#00A7E4"/>
<path d="M25.6132 51.1902C12.1913 51.1902 1.26111 40.3144 1.26111 26.9594C1.26111 13.6043 12.1913 2.72852 25.6132 2.72852C39.0351 2.72852 49.9653 13.6043 49.9653 26.9594C49.9653 40.3144 39.0683 51.1902 25.6132 51.1902ZM25.6132 3.15826C12.4239 3.15826 1.693 13.8357 1.693 26.9594C1.693 40.083 12.4239 50.7605 25.6132 50.7605C38.8026 50.7605 49.5334 40.083 49.5334 26.9594C49.5334 13.8357 38.8358 3.15826 25.6132 3.15826Z" fill="#00A7E4"/>
<path d="M38.979 17.8029C38.979 13.5385 36.3877 10.1006 32.5671 10.1006C28.7465 10.1006 26.1552 13.5716 26.1552 17.8029C26.1552 21.1747 28.1153 24.0507 30.8395 25.1085C31.3711 25.3068 31.7365 25.8027 31.7365 26.3647L31.205 42.4965C31.205 43.2238 31.803 43.8519 32.5671 43.8519C33.298 43.8519 33.9292 43.2569 33.9292 42.4965L33.3644 26.3647C33.3644 25.8027 33.7299 25.3068 34.2615 25.1085C37.0189 24.0507 38.979 21.1747 38.979 17.8029Z" fill="white"/>
<path d="M22.9311 10.1014C22.2002 10.1014 21.569 10.6964 21.569 11.4568V18.9938C21.569 19.3574 21.3032 19.721 20.8713 19.7541C20.4394 19.7541 20.0407 19.3243 20.0407 18.8946V11.4568C20.0407 10.7295 19.4427 10.1014 18.6786 10.1014C17.9477 10.1014 17.3165 10.6964 17.3165 11.4568V18.8946C17.3165 19.3574 16.951 19.7541 16.4859 19.721C16.054 19.688 15.7882 19.3574 15.7882 18.9607V11.4237C15.7882 10.6964 15.1902 10.0684 14.4261 10.0684C13.6952 10.0684 13.064 10.6634 13.064 11.4237V22.7953C13.064 24.2168 17.8148 24.6465 17.8148 26.068L17.2833 42.3982C17.2833 43.1255 17.7816 43.7535 18.5125 43.8197C19.3098 43.8858 19.9743 43.2577 19.9743 42.4974C19.9743 42.4974 19.4427 28.1836 19.4427 26.068C19.4427 24.6465 24.1935 24.2168 24.1935 22.7953V11.4237C24.2932 10.6964 23.662 10.1014 22.9311 10.1014Z" fill="white"/>
</svg>
