<svg width="411" height="452" viewBox="0 0 411 452" fill="none" xmlns="http://www.w3.org/2000/svg">
<path d="M338.582 299.214C339.111 299.214 339.625 298.954 339.909 298.487C340.333 297.789 340.082 296.896 339.35 296.492L274.867 260.963L274.871 190.907L338.583 155.799L402.297 190.907V261.804C402.297 262.609 402.984 263.263 403.83 263.263C404.675 263.263 405.361 262.609 405.361 261.804V190.064C405.361 189.544 405.069 189.063 404.596 188.801L339.349 152.85C338.874 152.59 338.291 152.59 337.817 152.85L272.574 188.802C272.102 189.064 271.81 189.545 271.81 190.065L271.807 261.805C271.807 262.325 272.099 262.808 272.571 263.068L337.818 299.019C338.058 299.151 338.322 299.214 338.582 299.214Z" fill="#7DDCFF"/>
<path d="M338.582 299.214C339.111 299.214 339.625 298.954 339.909 298.487C340.333 297.789 340.082 296.896 339.35 296.492L274.867 260.963L274.871 190.907L338.583 155.799L402.297 190.907V261.804C402.297 262.609 402.984 263.263 403.83 263.263C404.675 263.263 405.361 262.609 405.361 261.804V190.064C405.361 189.544 405.069 189.063 404.596 188.801L339.349 152.85C338.874 152.59 338.291 152.59 337.817 152.85L272.574 188.802C272.102 189.064 271.81 189.545 271.81 190.065L271.807 261.805C271.807 262.325 272.099 262.808 272.571 263.068L337.818 299.019C338.058 299.151 338.322 299.214 338.582 299.214Z" fill="#1D2332"/>
<path d="M338.585 227.395C338.845 227.395 339.107 227.331 339.348 227.198L404.595 191.329C405.327 190.927 405.578 190.034 405.156 189.336C404.734 188.639 403.796 188.397 403.065 188.802L337.819 224.672C337.087 225.074 336.834 225.967 337.257 226.665C337.541 227.133 338.056 227.395 338.585 227.395Z" fill="#7DDCFF"/>
<path d="M338.585 227.395C338.845 227.395 339.107 227.331 339.348 227.198L404.595 191.329C405.327 190.927 405.578 190.034 405.156 189.336C404.734 188.639 403.796 188.397 403.065 188.802L337.819 224.672C337.087 225.074 336.834 225.967 337.257 226.665C337.541 227.133 338.056 227.395 338.585 227.395Z" fill="#1D2332"/>
<path d="M338.584 299.213C339.429 299.213 340.115 298.561 340.115 297.754V225.934C340.115 225.129 339.429 224.475 338.584 224.475C337.737 224.475 337.052 225.129 337.052 225.934V297.754C337.053 298.561 337.737 299.213 338.584 299.213Z" fill="#7DDCFF"/>
<path d="M338.584 299.213C339.429 299.213 340.115 298.561 340.115 297.754V225.934C340.115 225.129 339.429 224.475 338.584 224.475C337.737 224.475 337.052 225.129 337.052 225.934V297.754C337.053 298.561 337.737 299.213 338.584 299.213Z" fill="#1D2332"/>
<path d="M208.084 299.213C208.349 299.213 208.613 299.149 208.85 299.018L274.096 263.067C274.568 262.807 274.859 262.324 274.859 261.804L274.863 190.064C274.863 189.544 274.571 189.063 274.099 188.801L208.85 152.85C208.375 152.59 207.792 152.59 207.317 152.85L142.072 188.801C141.599 189.063 141.308 189.544 141.308 190.064V261.804C141.308 262.324 141.599 262.807 142.071 263.067L207.317 299.018C207.553 299.149 207.818 299.213 208.084 299.213ZM271.798 260.963L208.084 296.069L144.369 260.963V190.907L208.084 155.799L271.801 190.907L271.798 260.963Z" fill="#7DDCFF"/>
<path d="M208.084 299.213C208.349 299.213 208.613 299.149 208.85 299.018L274.096 263.067C274.568 262.807 274.859 262.324 274.859 261.804L274.863 190.064C274.863 189.544 274.571 189.063 274.099 188.801L208.85 152.85C208.375 152.59 207.792 152.59 207.317 152.85L142.072 188.801C141.599 189.063 141.308 189.544 141.308 190.064V261.804C141.308 262.324 141.599 262.807 142.071 263.067L207.317 299.018C207.553 299.149 207.818 299.213 208.084 299.213ZM271.798 260.963L208.084 296.069L144.369 260.963V190.907L208.084 155.799L271.801 190.907L271.798 260.963Z" fill="#1D2332"/>
<path d="M208.083 227.394C208.345 227.394 208.607 227.33 208.847 227.197L274.096 191.327C274.828 190.925 275.081 190.032 274.657 189.334C274.235 188.637 273.3 188.395 272.567 188.8L207.316 224.67C206.583 225.072 206.332 225.965 206.754 226.663C207.039 227.132 207.556 227.394 208.083 227.394Z" fill="#7DDCFF"/>
<path d="M208.083 227.394C208.345 227.394 208.607 227.33 208.847 227.197L274.096 191.327C274.828 190.925 275.081 190.032 274.657 189.334C274.235 188.637 273.3 188.395 272.567 188.8L207.316 224.67C206.583 225.072 206.332 225.965 206.754 226.663C207.039 227.132 207.556 227.394 208.083 227.394Z" fill="#1D2332"/>
<path d="M208.082 299.213C208.927 299.213 209.613 298.561 209.613 297.754V225.934C209.613 225.129 208.927 224.475 208.082 224.475C207.234 224.475 206.549 225.129 206.549 225.934V297.754C206.548 298.561 207.234 299.213 208.082 299.213Z" fill="#7DDCFF"/>
<path d="M208.082 299.213C208.927 299.213 209.613 298.561 209.613 297.754V225.934C209.613 225.129 208.927 224.475 208.082 224.475C207.234 224.475 206.549 225.129 206.549 225.934V297.754C206.548 298.561 207.234 299.213 208.082 299.213Z" fill="#1D2332"/>
<path d="M77.6016 299.212C77.8647 299.212 78.131 299.149 78.3678 299.018L143.612 263.066C144.085 262.806 144.377 262.324 144.377 261.804V190.063C144.377 189.543 144.086 189.063 143.612 188.8L78.3678 152.85C77.8932 152.59 77.3078 152.59 76.8354 152.85L11.5886 188.8C11.1162 189.063 10.8246 189.543 10.8246 190.063L10.8224 261.804C10.8224 262.324 11.114 262.806 11.5864 263.066L76.8354 299.018C77.0711 299.149 77.3363 299.212 77.6016 299.212ZM141.316 260.963L77.6016 296.068L13.8839 260.963L13.885 190.906L77.6016 155.798L141.316 190.906V260.963Z" fill="#7DDCFF"/>
<path d="M77.6016 299.212C77.8647 299.212 78.131 299.149 78.3678 299.018L143.612 263.066C144.085 262.806 144.377 262.324 144.377 261.804V190.063C144.377 189.543 144.086 189.063 143.612 188.8L78.3678 152.85C77.8932 152.59 77.3078 152.59 76.8354 152.85L11.5886 188.8C11.1162 189.063 10.8246 189.543 10.8246 190.063L10.8224 261.804C10.8224 262.324 11.114 262.806 11.5864 263.066L76.8354 299.018C77.0711 299.149 77.3363 299.212 77.6016 299.212ZM141.316 260.963L77.6016 296.068L13.8839 260.963L13.885 190.906L77.6016 155.798L141.316 190.906V260.963Z" fill="#1D2332"/>
<path d="M77.6043 227.393C78.1337 227.393 78.6489 227.131 78.9317 226.663C79.3537 225.966 79.1038 225.073 78.3705 224.67L13.1237 188.8C12.3926 188.396 11.4543 188.636 11.0323 189.335C10.6103 190.034 10.8603 190.926 11.5936 191.328L76.8403 227.198C77.0815 227.33 77.3445 227.393 77.6043 227.393Z" fill="#7DDCFF"/>
<path d="M77.6043 227.393C78.1337 227.393 78.6489 227.131 78.9317 226.663C79.3537 225.966 79.1038 225.073 78.3705 224.67L13.1237 188.8C12.3926 188.396 11.4543 188.636 11.0323 189.335C10.6103 190.034 10.8603 190.926 11.5936 191.328L76.8403 227.198C77.0815 227.33 77.3445 227.393 77.6043 227.393Z" fill="#1D2332"/>
<path d="M77.6055 299.212C78.4506 299.212 79.1367 298.56 79.1367 297.753V225.933C79.1367 225.127 78.4506 224.474 77.6055 224.474C76.7582 224.474 76.0731 225.127 76.0731 225.933V297.753C76.0731 298.56 76.7593 299.212 77.6055 299.212Z" fill="#7DDCFF"/>
<path d="M77.6055 299.212C78.4506 299.212 79.1367 298.56 79.1367 297.753V225.933C79.1367 225.127 78.4506 224.474 77.6055 224.474C76.7582 224.474 76.0731 225.127 76.0731 225.933V297.753C76.0731 298.56 76.7593 299.212 77.6055 299.212Z" fill="#1D2332"/>
<path d="M273.334 406.905C273.596 406.905 273.858 406.842 274.101 406.709L339.345 370.757C339.818 370.497 340.109 370.015 340.109 369.495V297.754C340.109 297.234 339.818 296.754 339.345 296.491L274.101 260.541C273.626 260.279 273.041 260.279 272.566 260.541L207.321 296.491C206.847 296.754 206.555 297.234 206.555 297.754V369.495C206.555 370.3 207.241 370.954 208.088 370.954C208.933 370.954 209.619 370.3 209.619 369.495V298.597L273.334 263.489L337.049 298.597V368.653L272.566 404.182C271.835 404.587 271.585 405.477 272.007 406.175C272.292 406.643 272.805 406.905 273.334 406.905Z" fill="#7DDCFF"/>
<path d="M273.334 406.905C273.596 406.905 273.858 406.842 274.101 406.709L339.345 370.757C339.818 370.497 340.109 370.015 340.109 369.495V297.754C340.109 297.234 339.818 296.754 339.345 296.491L274.101 260.541C273.626 260.279 273.041 260.279 272.566 260.541L207.321 296.491C206.847 296.754 206.555 297.234 206.555 297.754V369.495C206.555 370.3 207.241 370.954 208.088 370.954C208.933 370.954 209.619 370.3 209.619 369.495V298.597L273.334 263.489L337.049 298.597V368.653L272.566 404.182C271.835 404.587 271.585 405.477 272.007 406.175C272.292 406.643 272.805 406.905 273.334 406.905Z" fill="#1D2332"/>
<path d="M273.339 335.084C273.599 335.084 273.863 335.022 274.104 334.888L339.349 299.018C340.081 298.616 340.334 297.723 339.91 297.025C339.488 296.327 338.551 296.088 337.82 296.49L272.573 332.36C271.839 332.762 271.59 333.655 272.012 334.353C272.297 334.823 272.81 335.084 273.339 335.084Z" fill="#7DDCFF"/>
<path d="M273.339 335.084C273.599 335.084 273.863 335.022 274.104 334.888L339.349 299.018C340.081 298.616 340.334 297.723 339.91 297.025C339.488 296.327 338.551 296.088 337.82 296.49L272.573 332.36C271.839 332.762 271.59 333.655 272.012 334.353C272.297 334.823 272.81 335.084 273.339 335.084Z" fill="#1D2332"/>
<path d="M273.334 406.905C274.179 406.905 274.863 406.251 274.863 405.444V333.626C274.863 332.818 274.179 332.166 273.334 332.166C272.488 332.166 271.802 332.819 271.802 333.626V405.444C271.802 406.251 272.488 406.905 273.334 406.905Z" fill="#7DDCFF"/>
<path d="M273.334 406.905C274.179 406.905 274.863 406.251 274.863 405.444V333.626C274.863 332.818 274.179 332.166 273.334 332.166C272.488 332.166 271.802 332.819 271.802 333.626V405.444C271.802 406.251 272.488 406.905 273.334 406.905Z" fill="#1D2332"/>
<path d="M142.844 406.905C143.107 406.905 143.373 406.84 143.61 406.709L208.856 370.757C209.328 370.497 209.62 370.015 209.62 369.495V297.754C209.62 297.234 209.328 296.754 208.856 296.491L143.61 260.541C143.135 260.279 142.55 260.279 142.075 260.541L76.8318 296.491C76.3572 296.754 76.0656 297.234 76.0656 297.754V369.495C76.0656 370.015 76.3572 370.497 76.8296 370.757L142.075 406.709C142.314 406.84 142.577 406.905 142.844 406.905ZM206.555 368.652L142.844 403.759L79.1282 368.652L79.1304 298.596L142.844 263.489L206.556 298.597V368.652H206.555Z" fill="#7DDCFF"/>
<path d="M142.844 406.905C143.107 406.905 143.373 406.84 143.61 406.709L208.856 370.757C209.328 370.497 209.62 370.015 209.62 369.495V297.754C209.62 297.234 209.328 296.754 208.856 296.491L143.61 260.541C143.135 260.279 142.55 260.279 142.075 260.541L76.8318 296.491C76.3572 296.754 76.0656 297.234 76.0656 297.754V369.495C76.0656 370.015 76.3572 370.497 76.8296 370.757L142.075 406.709C142.314 406.84 142.577 406.905 142.844 406.905ZM206.555 368.652L142.844 403.759L79.1282 368.652L79.1304 298.596L142.844 263.489L206.556 298.597V368.652H206.555Z" fill="#1D2332"/>
<path d="M142.843 335.084C143.101 335.084 143.365 335.021 143.606 334.887L208.852 299.017C209.585 298.615 209.837 297.722 209.414 297.024C208.99 296.327 208.053 296.087 207.321 296.49L142.077 332.36C141.345 332.762 141.092 333.655 141.515 334.353C141.799 334.823 142.313 335.084 142.843 335.084Z" fill="#7DDCFF"/>
<path d="M142.843 335.084C143.101 335.084 143.365 335.021 143.606 334.887L208.852 299.017C209.585 298.615 209.837 297.722 209.414 297.024C208.99 296.327 208.053 296.087 207.321 296.49L142.077 332.36C141.345 332.762 141.092 333.655 141.515 334.353C141.799 334.823 142.313 335.084 142.843 335.084Z" fill="#1D2332"/>
<path d="M142.84 406.905C143.685 406.905 144.371 406.251 144.371 405.444V333.626C144.371 332.818 143.685 332.166 142.84 332.166C141.993 332.166 141.309 332.819 141.309 333.626V405.444C141.309 406.251 141.993 406.905 142.84 406.905Z" fill="#7DDCFF"/>
<path d="M142.84 406.905C143.685 406.905 144.371 406.251 144.371 405.444V333.626C144.371 332.818 143.685 332.166 142.84 332.166C141.993 332.166 141.309 332.819 141.309 333.626V405.444C141.309 406.251 141.993 406.905 142.84 406.905Z" fill="#1D2332"/>
<path d="M273.334 191.525C273.597 191.525 273.862 191.459 274.101 191.329L339.345 155.377C339.818 155.117 340.109 154.634 340.109 154.114V82.3739C340.109 81.8537 339.818 81.3732 339.345 81.1111L274.101 45.1605C273.626 44.8983 273.041 44.8983 272.566 45.1605L207.321 81.1111C206.847 81.3732 206.555 81.8537 206.555 82.3739V154.114C206.555 154.634 206.847 155.117 207.321 155.377L272.566 191.329C272.804 191.459 273.069 191.525 273.334 191.525ZM337.049 153.272L273.334 188.38L209.619 153.272V83.2168L273.334 48.1091L337.049 83.2168V153.272Z" fill="#7DDCFF"/>
<path d="M273.334 191.525C273.597 191.525 273.862 191.459 274.101 191.329L339.345 155.377C339.818 155.117 340.109 154.634 340.109 154.114V82.3739C340.109 81.8537 339.818 81.3732 339.345 81.1111L274.101 45.1605C273.626 44.8983 273.041 44.8983 272.566 45.1605L207.321 81.1111C206.847 81.3732 206.555 81.8537 206.555 82.3739V154.114C206.555 154.634 206.847 155.117 207.321 155.377L272.566 191.329C272.804 191.459 273.069 191.525 273.334 191.525ZM337.049 153.272L273.334 188.38L209.619 153.272V83.2168L273.334 48.1091L337.049 83.2168V153.272Z" fill="#1D2332"/>
<path d="M273.339 119.703C273.599 119.703 273.863 119.641 274.104 119.509L339.349 83.6388C340.081 83.2367 340.334 82.3436 339.91 81.6459C339.488 80.9482 338.551 80.7069 337.82 81.1111L272.573 116.981C271.839 117.383 271.59 118.276 272.012 118.974C272.297 119.443 272.81 119.703 273.339 119.703Z" fill="#7DDCFF"/>
<path d="M273.339 119.703C273.599 119.703 273.863 119.641 274.104 119.509L339.349 83.6388C340.081 83.2367 340.334 82.3436 339.91 81.6459C339.488 80.9482 338.551 80.7069 337.82 81.1111L272.573 116.981C271.839 117.383 271.59 118.276 272.012 118.974C272.297 119.443 272.81 119.703 273.339 119.703Z" fill="#1D2332"/>
<path d="M273.334 191.524C274.179 191.524 274.863 190.87 274.863 190.064V118.245C274.863 117.439 274.179 116.785 273.334 116.785C272.488 116.785 271.802 117.439 271.802 118.245V190.064C271.802 190.87 272.488 191.524 273.334 191.524Z" fill="#7DDCFF"/>
<path d="M273.334 191.524C274.179 191.524 274.863 190.87 274.863 190.064V118.245C274.863 117.439 274.179 116.785 273.334 116.785C272.488 116.785 271.802 117.439 271.802 118.245V190.064C271.802 190.87 272.488 191.524 273.334 191.524Z" fill="#1D2332"/>
<path d="M142.844 191.524C143.107 191.524 143.373 191.458 143.61 191.328L208.856 155.376C209.328 155.116 209.62 154.633 209.62 154.113V82.3728C209.62 81.5675 208.933 80.9137 208.088 80.9137C207.241 80.9137 206.556 81.5675 206.556 82.3728V153.27L142.844 188.379L79.1282 153.271L79.1304 83.2157L143.611 47.6861C144.342 47.2819 144.592 46.3888 144.17 45.6932C143.746 44.9955 142.809 44.7563 142.076 45.1605L76.8329 81.1111C76.3583 81.3732 76.0667 81.8537 76.0667 82.3739V154.114C76.0667 154.634 76.3583 155.117 76.8307 155.377L142.076 191.329C142.314 191.458 142.577 191.524 142.844 191.524Z" fill="#7DDCFF"/>
<path d="M142.844 191.524C143.107 191.524 143.373 191.458 143.61 191.328L208.856 155.376C209.328 155.116 209.62 154.633 209.62 154.113V82.3728C209.62 81.5675 208.933 80.9137 208.088 80.9137C207.241 80.9137 206.556 81.5675 206.556 82.3728V153.27L142.844 188.379L79.1282 153.271L79.1304 83.2157L143.611 47.6861C144.342 47.2819 144.592 46.3888 144.17 45.6932C143.746 44.9955 142.809 44.7563 142.076 45.1605L76.8329 81.1111C76.3583 81.3732 76.0667 81.8537 76.0667 82.3739V154.114C76.0667 154.634 76.3583 155.117 76.8307 155.377L142.076 191.329C142.314 191.458 142.577 191.524 142.844 191.524Z" fill="#1D2332"/>
<path d="M142.843 119.703C143.101 119.703 143.365 119.64 143.606 119.508L208.852 83.6383C209.585 83.2362 209.837 82.3431 209.414 81.6454C208.99 80.9477 208.053 80.7064 207.321 81.1106L142.077 116.981C141.345 117.383 141.092 118.276 141.515 118.974C141.799 119.443 142.313 119.703 142.843 119.703Z" fill="#7DDCFF"/>
<path d="M142.843 119.703C143.101 119.703 143.365 119.64 143.606 119.508L208.852 83.6383C209.585 83.2362 209.837 82.3431 209.414 81.6454C208.99 80.9477 208.053 80.7064 207.321 81.1106L142.077 116.981C141.345 117.383 141.092 118.276 141.515 118.974C141.799 119.443 142.313 119.703 142.843 119.703Z" fill="#1D2332"/>
<path d="M142.839 119.703C143.368 119.703 143.882 119.443 144.166 118.975C144.588 118.276 144.338 117.384 143.605 116.982L78.3602 81.1118C77.628 80.7076 76.6909 80.9479 76.2689 81.6466C75.8469 82.3454 76.0968 83.2374 76.8301 83.6395L142.077 119.51C142.315 119.64 142.579 119.703 142.839 119.703Z" fill="#7DDCFF"/>
<path d="M142.839 119.703C143.368 119.703 143.882 119.443 144.166 118.975C144.588 118.276 144.338 117.384 143.605 116.982L78.3602 81.1118C77.628 80.7076 76.6909 80.9479 76.2689 81.6466C75.8469 82.3454 76.0968 83.2374 76.8301 83.6395L142.077 119.51C142.315 119.64 142.579 119.703 142.839 119.703Z" fill="#1D2332"/>
<path d="M142.84 191.524C143.685 191.524 144.371 190.87 144.371 190.064V118.245C144.371 117.439 143.685 116.785 142.84 116.785C141.993 116.785 141.309 117.439 141.309 118.245V190.064C141.309 190.87 141.993 191.524 142.84 191.524Z" fill="#7DDCFF"/>
<path d="M142.84 191.524C143.685 191.524 144.371 190.87 144.371 190.064V118.245C144.371 117.439 143.685 116.785 142.84 116.785C141.993 116.785 141.309 117.439 141.309 118.245V190.064C141.309 190.87 141.993 191.524 142.84 191.524Z" fill="#1D2332"/>
<path d="M12.3556 335.003C13.2007 335.003 13.8857 334.349 13.8857 333.544L13.8879 118.327C13.8879 117.522 13.2039 116.868 12.3577 116.868C11.5115 116.868 10.8265 117.522 10.8265 118.327L10.8243 333.544C10.8243 334.349 11.5105 335.003 12.3556 335.003Z" fill="#7DDCFF"/>
<path d="M12.3556 335.003C13.2007 335.003 13.8857 334.349 13.8857 333.544L13.8879 118.327C13.8879 117.522 13.2039 116.868 12.3577 116.868C11.5115 116.868 10.8265 117.522 10.8265 118.327L10.8243 333.544C10.8243 334.349 11.5105 335.003 12.3556 335.003Z" fill="#1D2332"/>
<path d="M208.088 442.857C208.348 442.857 208.612 442.793 208.853 442.661L404.59 334.809C405.064 334.547 405.355 334.064 405.355 333.544L405.359 118.327C405.359 117.807 405.067 117.324 404.594 117.062L208.853 9.21053C208.122 8.80839 207.184 9.04654 206.762 9.74531C206.338 10.442 206.588 11.334 207.321 11.7382L402.296 119.168L402.291 332.703L207.32 440.133C206.587 440.537 206.337 441.43 206.761 442.126C207.046 442.595 207.56 442.857 208.088 442.857Z" fill="#7DDCFF"/>
<path d="M208.088 442.857C208.348 442.857 208.612 442.793 208.853 442.661L404.59 334.809C405.064 334.547 405.355 334.064 405.355 333.544L405.359 118.327C405.359 117.807 405.067 117.324 404.594 117.062L208.853 9.21053C208.122 8.80839 207.184 9.04654 206.762 9.74531C206.338 10.442 206.588 11.334 207.321 11.7382L402.296 119.168L402.291 332.703L207.32 440.133C206.587 440.537 206.337 441.43 206.761 442.126C207.046 442.595 207.56 442.857 208.088 442.857Z" fill="#1D2332"/>
<path d="M208.094 449.207C208.272 449.207 208.444 449.12 208.537 448.965C208.68 448.733 208.595 448.435 208.352 448.301L6.21242 336.922L6.2168 114.669C6.2168 114.4 5.98878 114.183 5.70599 114.183C5.4232 114.183 5.19519 114.4 5.19519 114.669L5.19193 337.203C5.19193 337.377 5.28946 337.538 5.44621 337.623L207.84 449.142C207.92 449.188 208.009 449.207 208.094 449.207Z" fill="#7DDCFF"/>
<path d="M208.094 449.207C208.272 449.207 208.444 449.12 208.537 448.965C208.68 448.733 208.595 448.435 208.352 448.301L6.21242 336.922L6.2168 114.669C6.2168 114.4 5.98878 114.183 5.70599 114.183C5.4232 114.183 5.19519 114.4 5.19519 114.669L5.19193 337.203C5.19193 337.377 5.28946 337.538 5.44621 337.623L207.84 449.142C207.92 449.188 208.009 449.207 208.094 449.207Z" fill="#1D2332"/>
<path d="M410.484 337.689C410.767 337.689 410.995 337.471 410.995 337.202L411 114.669C411 114.494 410.903 114.333 410.744 114.248L208.35 2.72964C208.103 2.59281 207.793 2.67219 207.651 2.90616C207.51 3.13804 207.595 3.43676 207.838 3.57046L409.979 114.948L409.973 337.203C409.973 337.471 410.201 337.689 410.484 337.689Z" fill="#7DDCFF"/>
<path d="M410.484 337.689C410.767 337.689 410.995 337.471 410.995 337.202L411 114.669C411 114.494 410.903 114.333 410.744 114.248L208.35 2.72964C208.103 2.59281 207.793 2.67219 207.651 2.90616C207.51 3.13804 207.595 3.43676 207.838 3.57046L409.979 114.948L409.973 337.203C409.973 337.471 410.201 337.689 410.484 337.689Z" fill="#1D2332"/>
<path d="M26.1187 326.463C26.4004 326.463 26.6306 326.246 26.6306 325.977L26.6339 125.891C26.6339 125.623 26.4059 125.406 26.122 125.406C25.8414 125.406 25.6134 125.623 25.6134 125.891L25.6079 325.977C25.6079 326.246 25.8381 326.463 26.1187 326.463Z" fill="#7DDCFF"/>
<path d="M26.1187 326.463C26.4004 326.463 26.6306 326.246 26.6306 325.977L26.6339 125.891C26.6339 125.623 26.4059 125.406 26.122 125.406C25.8414 125.406 25.6134 125.623 25.6134 125.891L25.6079 325.977C25.6079 326.246 25.8381 326.463 26.1187 326.463Z" fill="#1D2332"/>
<path d="M390.071 126.379C390.246 126.379 390.419 126.291 390.513 126.137C390.655 125.905 390.571 125.606 390.328 125.472L208.35 25.2028C208.103 25.067 207.793 25.1474 207.651 25.3814C207.51 25.6132 207.595 25.912 207.838 26.0457L389.815 126.314C389.897 126.357 389.985 126.379 390.071 126.379Z" fill="#7DDCFF"/>
<path d="M390.071 126.379C390.246 126.379 390.419 126.291 390.513 126.137C390.655 125.905 390.571 125.606 390.328 125.472L208.35 25.2028C208.103 25.067 207.793 25.1474 207.651 25.3814C207.51 25.6132 207.595 25.912 207.838 26.0457L389.815 126.314C389.897 126.357 389.985 126.379 390.071 126.379Z" fill="#1D2332"/>
<path d="M208.092 315.489C208.18 315.489 208.267 315.468 208.348 315.425L289.263 270.84C289.422 270.753 289.519 270.592 289.519 270.42L289.522 181.451C289.522 181.181 289.294 180.964 289.011 180.964C288.729 180.964 288.5 181.181 288.5 181.451L288.497 270.139L208.092 314.443L127.432 269.999C127.187 269.863 126.875 269.946 126.735 270.177C126.593 270.409 126.676 270.707 126.92 270.841L207.836 315.426C207.914 315.468 208.004 315.489 208.092 315.489Z" fill="#7DDCFF"/>
<path d="M208.092 315.489C208.18 315.489 208.267 315.468 208.348 315.425L289.263 270.84C289.422 270.753 289.519 270.592 289.519 270.42L289.522 181.451C289.522 181.181 289.294 180.964 289.011 180.964C288.729 180.964 288.5 181.181 288.5 181.451L288.497 270.139L208.092 314.443L127.432 269.999C127.187 269.863 126.875 269.946 126.735 270.177C126.593 270.409 126.676 270.707 126.92 270.841L207.836 315.426C207.914 315.468 208.004 315.489 208.092 315.489Z" fill="#1D2332"/>
<path d="M127.181 181.936C127.267 181.936 127.354 181.916 127.436 181.87L208.352 137.287C208.596 137.151 208.679 136.856 208.538 136.623C208.397 136.39 208.085 136.307 207.84 136.444L126.926 181.03C126.681 181.163 126.597 181.461 126.738 181.694C126.833 181.85 127.003 181.936 127.181 181.936Z" fill="#7DDCFF"/>
<path d="M127.181 181.936C127.267 181.936 127.354 181.916 127.436 181.87L208.352 137.287C208.596 137.151 208.679 136.856 208.538 136.623C208.397 136.39 208.085 136.307 207.84 136.444L126.926 181.03C126.681 181.163 126.597 181.461 126.738 181.694C126.833 181.85 127.003 181.936 127.181 181.936Z" fill="#1D2332"/>
<path d="M208.094 289.646C208.272 289.646 208.444 289.558 208.537 289.402C208.68 289.17 208.595 288.872 208.352 288.739L151.169 257.23V194.356C151.169 194.089 150.941 193.87 150.658 193.87C150.376 193.87 150.148 194.089 150.148 194.356V257.511C150.148 257.685 150.245 257.846 150.402 257.931L207.839 289.579C207.92 289.625 208.009 289.646 208.094 289.646Z" fill="#7DDCFF"/>
<path d="M208.094 289.646C208.272 289.646 208.444 289.558 208.537 289.402C208.68 289.17 208.595 288.872 208.352 288.739L151.169 257.23V194.356C151.169 194.089 150.941 193.87 150.658 193.87C150.376 193.87 150.148 194.089 150.148 194.356V257.511C150.148 257.685 150.245 257.846 150.402 257.931L207.839 289.579C207.92 289.625 208.009 289.646 208.094 289.646Z" fill="#1D2332"/>
<path d="M265.532 257.997C265.815 257.997 266.043 257.78 266.043 257.51L266.045 194.356C266.045 194.184 265.947 194.023 265.791 193.936L208.351 162.289C208.105 162.152 207.794 162.233 207.652 162.465C207.512 162.698 207.596 162.996 207.839 163.13L265.024 194.638L265.022 257.511C265.021 257.78 265.249 257.997 265.532 257.997Z" fill="#7DDCFF"/>
<path d="M265.532 257.997C265.815 257.997 266.043 257.78 266.043 257.51L266.045 194.356C266.045 194.184 265.947 194.023 265.791 193.936L208.351 162.289C208.105 162.152 207.794 162.233 207.652 162.465C207.512 162.698 207.596 162.996 207.839 163.13L265.024 194.638L265.022 257.511C265.021 257.78 265.249 257.997 265.532 257.997Z" fill="#1D2332"/>
<path d="M12.3501 119.786H403.828C404.674 119.786 405.359 119.133 405.359 118.327C405.359 117.522 404.675 116.868 403.828 116.868H12.3501C11.5039 116.868 10.8189 117.522 10.8189 118.327C10.8189 119.133 11.5028 119.786 12.3501 119.786Z" fill="#7DDCFF"/>
<path d="M12.3501 119.786H403.828C404.674 119.786 405.359 119.133 405.359 118.327C405.359 117.522 404.675 116.868 403.828 116.868H12.3501C11.5039 116.868 10.8189 117.522 10.8189 118.327C10.8189 119.133 11.5028 119.786 12.3501 119.786Z" fill="#1D2332"/>
<path d="M208.096 442.857C208.625 442.857 209.139 442.595 209.423 442.127L405.166 119.056C405.588 118.358 405.338 117.468 404.604 117.064C403.872 116.661 402.933 116.902 402.513 117.598L206.773 440.669C206.348 441.368 206.601 442.26 207.332 442.662C207.572 442.793 207.836 442.857 208.096 442.857Z" fill="#7DDCFF"/>
<path d="M208.096 442.857C208.625 442.857 209.139 442.595 209.423 442.127L405.166 119.056C405.588 118.358 405.338 117.468 404.604 117.064C403.872 116.661 402.933 116.902 402.513 117.598L206.773 440.669C206.348 441.368 206.601 442.26 207.332 442.662C207.572 442.793 207.836 442.857 208.096 442.857Z" fill="#1D2332"/>
<path d="M77.6006 82.8591H338.582C338.865 82.8591 339.093 82.6419 339.093 82.3734C339.093 82.104 338.865 81.8867 338.582 81.8867H77.6006C77.3167 81.8867 77.0887 82.104 77.0887 82.3734C77.0887 82.6419 77.3167 82.8591 77.6006 82.8591Z" fill="#7DDCFF"/>
<path d="M77.6006 82.8591H338.582C338.865 82.8591 339.093 82.6419 339.093 82.3734C339.093 82.104 338.865 81.8867 338.582 81.8867H77.6006C77.3167 81.8867 77.0887 82.104 77.0887 82.3734C77.0887 82.6419 77.3167 82.8591 77.6006 82.8591Z" fill="#1D2332"/>
<path d="M67.0932 82.3726C67.0932 87.9032 71.7999 92.3904 77.606 92.3904C83.4099 92.3904 88.1165 87.9032 88.1165 82.3726C88.1165 76.8399 83.4099 72.3569 77.606 72.3569C71.7999 72.3559 67.0932 76.8399 67.0932 82.3726Z" fill="#7DDCFF"/>
<path d="M67.0932 82.3726C67.0932 87.9032 71.7999 92.3904 77.606 92.3904C83.4099 92.3904 88.1165 87.9032 88.1165 82.3726C88.1165 76.8399 83.4099 72.3569 77.606 72.3569C71.7999 72.3559 67.0932 76.8399 67.0932 82.3726Z" fill="#1D2332"/>
<path d="M197.583 10.4743C197.583 16.0029 202.287 20.49 208.093 20.49C213.897 20.49 218.604 16.0029 218.604 10.4743C218.604 4.94162 213.897 0.456543 208.093 0.456543C202.287 0.456543 197.583 4.94162 197.583 10.4743Z" fill="#7DDCFF"/>
<path d="M197.583 10.4743C197.583 16.0029 202.287 20.49 208.093 20.49C213.897 20.49 218.604 16.0029 218.604 10.4743C218.604 4.94162 213.897 0.456543 208.093 0.456543C202.287 0.456543 197.583 4.94162 197.583 10.4743Z" fill="#1D2332"/>
<path d="M1.83628 190.063C1.83628 195.594 6.54297 200.081 12.349 200.081C18.1551 200.081 22.8596 195.594 22.8596 190.063C22.8596 184.53 18.1551 180.047 12.349 180.047C6.54297 180.047 1.83628 184.53 1.83628 190.063Z" fill="#7DDCFF"/>
<path d="M1.83628 190.063C1.83628 195.594 6.54297 200.081 12.349 200.081C18.1551 200.081 22.8596 195.594 22.8596 190.063C22.8596 184.53 18.1551 180.047 12.349 180.047C6.54297 180.047 1.83628 184.53 1.83628 190.063Z" fill="#1D2332"/>
<path d="M197.583 441.396C197.583 446.926 202.287 451.413 208.093 451.413C213.897 451.413 218.604 446.926 218.604 441.396C218.604 435.863 213.897 431.38 208.093 431.38C202.287 431.38 197.583 435.863 197.583 441.396Z" fill="#7DDCFF"/>
<path d="M197.583 441.396C197.583 446.926 202.287 451.413 208.093 451.413C213.897 451.413 218.604 446.926 218.604 441.396C218.604 435.863 213.897 431.38 208.093 431.38C202.287 431.38 197.583 435.863 197.583 441.396Z" fill="#1D2332"/>
<path d="M197.578 225.933C197.578 231.463 202.285 235.95 208.091 235.95C213.895 235.95 218.602 231.463 218.602 225.933C218.602 220.4 213.895 215.917 208.091 215.917C202.285 215.917 197.578 220.4 197.578 225.933Z" fill="#7DDCFF"/>
<path d="M197.578 225.933C197.578 231.463 202.285 235.95 208.091 235.95C213.895 235.95 218.602 231.463 218.602 225.933C218.602 220.4 213.895 215.917 208.091 215.917C202.285 215.917 197.578 220.4 197.578 225.933Z" fill="#1D2332"/>
<path d="M262.821 190.063C262.821 195.594 267.527 200.081 273.333 200.081C279.137 200.081 283.844 195.594 283.844 190.063C283.844 184.53 279.137 180.047 273.333 180.047C267.527 180.047 262.821 184.53 262.821 190.063Z" fill="#7DDCFF"/>
<path d="M262.821 190.063C262.821 195.594 267.527 200.081 273.333 200.081C279.137 200.081 283.844 195.594 283.844 190.063C283.844 184.53 279.137 180.047 273.333 180.047C267.527 180.047 262.821 184.53 262.821 190.063Z" fill="#1D2332"/>
<path d="M6.68338 118.326C6.68338 121.31 9.22199 123.73 12.3525 123.73C15.4851 123.73 18.0259 121.31 18.0259 118.326C18.0259 115.343 15.4862 112.921 12.3525 112.921C9.22089 112.922 6.68338 115.343 6.68338 118.326Z" fill="#7DDCFF"/>
<path d="M6.68338 118.326C6.68338 121.31 9.22199 123.73 12.3525 123.73C15.4851 123.73 18.0259 121.31 18.0259 118.326C18.0259 115.343 15.4862 112.921 12.3525 112.921C9.22089 112.922 6.68338 115.343 6.68338 118.326Z" fill="#1D2332"/>
<path d="M398.164 118.326C398.164 121.31 400.702 123.73 403.835 123.73C406.966 123.73 409.506 121.31 409.506 118.326C409.506 115.343 406.966 112.922 403.835 112.922C400.702 112.923 398.164 115.343 398.164 118.326Z" fill="#7DDCFF"/>
<path d="M398.164 118.326C398.164 121.31 400.702 123.73 403.835 123.73C406.966 123.73 409.506 121.31 409.506 118.326C409.506 115.343 406.966 112.922 403.835 112.922C400.702 112.923 398.164 115.343 398.164 118.326Z" fill="#1D2332"/>
<path d="M332.906 82.3746C332.906 85.3566 335.444 87.7767 338.575 87.7767C341.708 87.7767 344.248 85.3566 344.248 82.3746C344.248 79.3894 341.708 76.9683 338.575 76.9683C335.444 76.9693 332.906 79.3894 332.906 82.3746Z" fill="#7DDCFF"/>
<path d="M332.906 82.3746C332.906 85.3566 335.444 87.7767 338.575 87.7767C341.708 87.7767 344.248 85.3566 344.248 82.3746C344.248 79.3894 341.708 76.9683 338.575 76.9683C335.444 76.9693 332.906 79.3894 332.906 82.3746Z" fill="#1D2332"/>
<path d="M267.665 118.244C267.665 121.226 270.201 123.648 273.334 123.648C276.464 123.648 279.005 121.226 279.005 118.244C279.005 115.259 276.465 112.838 273.334 112.838C270.201 112.838 267.665 115.259 267.665 118.244Z" fill="#7DDCFF"/>
<path d="M267.665 118.244C267.665 121.226 270.201 123.648 273.334 123.648C276.464 123.648 279.005 121.226 279.005 118.244C279.005 115.259 276.465 112.838 273.334 112.838C270.201 112.838 267.665 115.259 267.665 118.244Z" fill="#1D2332"/>
<path d="M137.174 46.4223C137.174 49.4054 139.713 51.8265 142.845 51.8265C145.978 51.8265 148.519 49.4054 148.519 46.4223C148.519 43.4392 145.979 41.0181 142.845 41.0181C139.713 41.0181 137.174 43.4392 137.174 46.4223Z" fill="#7DDCFF"/>
<path d="M137.174 46.4223C137.174 49.4054 139.713 51.8265 142.845 51.8265C145.978 51.8265 148.519 49.4054 148.519 46.4223C148.519 43.4392 145.979 41.0181 142.845 41.0181C139.713 41.0181 137.174 43.4392 137.174 46.4223Z" fill="#1D2332"/>
<path d="M137.174 118.244C137.174 121.226 139.713 123.646 142.845 123.646C145.978 123.646 148.519 121.226 148.519 118.244C148.519 115.259 145.979 112.838 142.845 112.838C139.713 112.838 137.174 115.259 137.174 118.244Z" fill="#7DDCFF"/>
<path d="M137.174 118.244C137.174 121.226 139.713 123.646 142.845 123.646C145.978 123.646 148.519 121.226 148.519 118.244C148.519 115.259 145.979 112.838 142.845 112.838C139.713 112.838 137.174 115.259 137.174 118.244Z" fill="#1D2332"/>
<path d="M202.419 154.115C202.419 157.097 204.957 159.517 208.088 159.517C211.22 159.517 213.761 157.097 213.761 154.115C213.761 151.13 211.22 148.708 208.088 148.708C204.957 148.708 202.419 151.13 202.419 154.115Z" fill="#7DDCFF"/>
<path d="M202.419 154.115C202.419 157.097 204.957 159.517 208.088 159.517C211.22 159.517 213.761 157.097 213.761 154.115C213.761 151.13 211.22 148.708 208.088 148.708C204.957 148.708 202.419 151.13 202.419 154.115Z" fill="#1D2332"/>
<path d="M398.162 333.545C398.162 336.527 400.7 338.947 403.833 338.947C406.966 338.947 409.506 336.526 409.506 333.545C409.506 330.56 406.966 328.139 403.833 328.139C400.7 328.139 398.162 330.56 398.162 333.545Z" fill="#7DDCFF"/>
<path d="M398.162 333.545C398.162 336.527 400.7 338.947 403.833 338.947C406.966 338.947 409.506 336.526 409.506 333.545C409.506 330.56 406.966 328.139 403.833 328.139C400.7 328.139 398.162 330.56 398.162 333.545Z" fill="#1D2332"/>
<path d="M332.906 297.755C332.906 300.737 335.444 303.16 338.575 303.16C341.708 303.16 344.248 300.737 344.248 297.755C344.248 294.77 341.708 292.349 338.575 292.349C335.444 292.349 332.906 294.77 332.906 297.755Z" fill="#7DDCFF"/>
<path d="M332.906 297.755C332.906 300.737 335.444 303.16 338.575 303.16C341.708 303.16 344.248 300.737 344.248 297.755C344.248 294.77 341.708 292.349 338.575 292.349C335.444 292.349 332.906 294.77 332.906 297.755Z" fill="#1D2332"/>
<path d="M202.419 297.755C202.419 300.737 204.957 303.16 208.088 303.16C211.22 303.16 213.761 300.737 213.761 297.755C213.761 294.77 211.22 292.349 208.088 292.349C204.957 292.349 202.419 294.77 202.419 297.755Z" fill="#7DDCFF"/>
<path d="M202.419 297.755C202.419 300.737 204.957 303.16 208.088 303.16C211.22 303.16 213.761 300.737 213.761 297.755C213.761 294.77 211.22 292.349 208.088 292.349C204.957 292.349 202.419 294.77 202.419 297.755Z" fill="#1D2332"/>
<path d="M137.174 333.627C137.174 336.61 139.713 339.031 142.845 339.031C145.978 339.031 148.519 336.61 148.519 333.627C148.519 330.642 145.979 328.221 142.845 328.221C139.713 328.221 137.174 330.642 137.174 333.627Z" fill="#7DDCFF"/>
<path d="M137.174 333.627C137.174 336.61 139.713 339.031 142.845 339.031C145.978 339.031 148.519 336.61 148.519 333.627C148.519 330.642 145.979 328.221 142.845 328.221C139.713 328.221 137.174 330.642 137.174 333.627Z" fill="#1D2332"/>
<path d="M6.68338 333.545C6.68338 336.527 9.22199 338.947 12.3547 338.947C15.4851 338.947 18.0259 336.526 18.0259 333.545C18.0259 330.56 15.4851 328.139 12.3547 328.139C9.22199 328.139 6.68338 330.56 6.68338 333.545Z" fill="#7DDCFF"/>
<path d="M6.68338 333.545C6.68338 336.527 9.22199 338.947 12.3547 338.947C15.4851 338.947 18.0259 336.526 18.0259 333.545C18.0259 330.56 15.4851 328.139 12.3547 328.139C9.22199 328.139 6.68338 330.56 6.68338 333.545Z" fill="#1D2332"/>
<path d="M71.9264 225.935C71.9264 228.918 74.465 231.337 77.5955 231.337C80.7281 231.337 83.2689 228.918 83.2689 225.935C83.2689 222.949 80.7281 220.528 77.5955 220.528C74.465 220.529 71.9264 222.949 71.9264 225.935Z" fill="#7DDCFF"/>
<path d="M71.9264 225.935C71.9264 228.918 74.465 231.337 77.5955 231.337C80.7281 231.337 83.2689 228.918 83.2689 225.935C83.2689 222.949 80.7281 220.528 77.5955 220.528C74.465 220.529 71.9264 222.949 71.9264 225.935Z" fill="#1D2332"/>
<path d="M71.9264 297.755C71.9264 300.737 74.465 303.16 77.5955 303.16C80.7281 303.16 83.2689 300.737 83.2689 297.755C83.2689 294.77 80.7281 292.349 77.5955 292.349C74.465 292.349 71.9264 294.77 71.9264 297.755Z" fill="#7DDCFF"/>
<path d="M71.9264 297.755C71.9264 300.737 74.465 303.16 77.5955 303.16C80.7281 303.16 83.2689 300.737 83.2689 297.755C83.2689 294.77 80.7281 292.349 77.5955 292.349C74.465 292.349 71.9264 294.77 71.9264 297.755Z" fill="#1D2332"/>
<path d="M208.086 250.931C222.548 250.931 234.317 239.716 234.317 225.935C234.317 212.152 222.548 200.939 208.086 200.939C193.624 200.939 181.859 212.152 181.859 225.935C181.859 239.717 193.624 250.931 208.086 250.931ZM208.086 201.912C221.988 201.912 233.294 212.689 233.294 225.936C233.294 239.183 221.988 249.959 208.086 249.959C194.188 249.959 182.88 239.183 182.88 225.936C182.88 212.689 194.188 201.912 208.086 201.912Z" fill="#7DDCFF"/>
<path d="M208.086 250.931C222.548 250.931 234.317 239.716 234.317 225.935C234.317 212.152 222.548 200.939 208.086 200.939C193.624 200.939 181.859 212.152 181.859 225.935C181.859 239.717 193.624 250.931 208.086 250.931ZM208.086 201.912C221.988 201.912 233.294 212.689 233.294 225.936C233.294 239.183 221.988 249.959 208.086 249.959C194.188 249.959 182.88 239.183 182.88 225.936C182.88 212.689 194.188 201.912 208.086 201.912Z" fill="#1D2332"/>
<path d="M142.849 57.7897C149.374 57.7897 154.724 52.7312 154.776 46.5133C154.803 43.478 153.587 40.614 151.352 38.4498C149.116 36.2856 146.129 35.0792 142.944 35.0552C136.319 35.0552 130.97 40.1137 130.92 46.3305C130.893 49.3679 132.11 52.2319 134.346 54.3961C136.58 56.5603 139.565 57.7657 142.75 57.7908C142.751 57.7897 142.846 57.7897 142.849 57.7897ZM142.842 36.0276C145.848 36.0506 148.579 37.1536 150.622 39.1319C152.668 41.1112 153.779 43.7297 153.755 46.506C153.709 52.1912 148.815 56.8173 142.849 56.8173V57.3019L142.759 56.8173C139.844 56.7943 137.115 55.6913 135.073 53.713C133.03 51.7327 131.916 49.1141 131.94 46.3368C131.986 40.6516 136.878 36.0276 142.842 36.0276Z" fill="#7DDCFF"/>
<path d="M142.849 57.7897C149.374 57.7897 154.724 52.7312 154.776 46.5133C154.803 43.478 153.587 40.614 151.352 38.4498C149.116 36.2856 146.129 35.0792 142.944 35.0552C136.319 35.0552 130.97 40.1137 130.92 46.3305C130.893 49.3679 132.11 52.2319 134.346 54.3961C136.58 56.5603 139.565 57.7657 142.75 57.7908C142.751 57.7897 142.846 57.7897 142.849 57.7897ZM142.842 36.0276C145.848 36.0506 148.579 37.1536 150.622 39.1319C152.668 41.1112 153.779 43.7297 153.755 46.506C153.709 52.1912 148.815 56.8173 142.849 56.8173V57.3019L142.759 56.8173C139.844 56.7943 137.115 55.6913 135.073 53.713C133.03 51.7327 131.916 49.1141 131.94 46.3368C131.986 40.6516 136.878 36.0276 142.842 36.0276Z" fill="#1D2332"/>
<path d="M273.338 129.611C279.863 129.611 285.213 124.552 285.266 118.335C285.292 115.298 284.075 112.434 281.839 110.27C279.605 108.105 276.621 106.901 273.431 106.876C266.808 106.876 261.458 111.933 261.408 118.151C261.381 121.187 262.597 124.051 264.832 126.215C267.068 128.379 270.053 129.584 273.238 129.609C273.24 129.611 273.336 129.611 273.338 129.611ZM273.332 107.849C276.338 107.872 279.069 108.973 281.112 110.953C283.156 112.932 284.269 115.552 284.245 118.327C284.197 124.012 279.305 128.638 273.338 128.638V129.125L273.248 128.638C270.333 128.615 267.605 127.514 265.562 125.534C263.517 123.555 262.405 120.935 262.429 118.16C262.475 112.473 267.367 107.849 273.332 107.849Z" fill="#7DDCFF"/>
<path d="M273.338 129.611C279.863 129.611 285.213 124.552 285.266 118.335C285.292 115.298 284.075 112.434 281.839 110.27C279.605 108.105 276.621 106.901 273.431 106.876C266.808 106.876 261.458 111.933 261.408 118.151C261.381 121.187 262.597 124.051 264.832 126.215C267.068 128.379 270.053 129.584 273.238 129.609C273.24 129.611 273.336 129.611 273.338 129.611ZM273.332 107.849C276.338 107.872 279.069 108.973 281.112 110.953C283.156 112.932 284.269 115.552 284.245 118.327C284.197 124.012 279.305 128.638 273.338 128.638V129.125L273.248 128.638C270.333 128.615 267.605 127.514 265.562 125.534C263.517 123.555 262.405 120.935 262.429 118.16C262.475 112.473 267.367 107.849 273.332 107.849Z" fill="#1D2332"/>
<path d="M77.5994 237.3C84.1245 237.3 89.4768 232.242 89.5272 226.025C89.5557 222.989 88.3368 220.124 86.1008 217.959C83.8669 215.795 80.8822 214.591 77.6947 214.566C71.0721 214.566 65.722 219.623 65.6693 225.841C65.643 228.877 66.8597 231.741 69.0936 233.905C71.3296 236.071 74.3143 237.274 77.4996 237.299C77.5018 237.3 77.5972 237.3 77.5994 237.3ZM77.5961 215.539C80.6016 215.562 83.3309 216.663 85.3762 218.643C87.4194 220.622 88.5319 223.24 88.5067 226.017C88.4607 231.702 83.5666 236.328 77.6005 236.328V236.815L77.5106 236.328C74.596 236.305 71.8667 235.202 69.8247 233.224C67.7794 231.244 66.6679 228.625 66.692 225.85C66.7391 220.163 71.6289 215.539 77.5961 215.539Z" fill="#7DDCFF"/>
<path d="M77.5994 237.3C84.1245 237.3 89.4768 232.242 89.5272 226.025C89.5557 222.989 88.3368 220.124 86.1008 217.959C83.8669 215.795 80.8822 214.591 77.6947 214.566C71.0721 214.566 65.722 219.623 65.6693 225.841C65.643 228.877 66.8597 231.741 69.0936 233.905C71.3296 236.071 74.3143 237.274 77.4996 237.299C77.5018 237.3 77.5972 237.3 77.5994 237.3ZM77.5961 215.539C80.6016 215.562 83.3309 216.663 85.3762 218.643C87.4194 220.622 88.5319 223.24 88.5067 226.017C88.4607 231.702 83.5666 236.328 77.6005 236.328V236.815L77.5106 236.328C74.596 236.305 71.8667 235.202 69.8247 233.224C67.7794 231.244 66.6679 228.625 66.692 225.85C66.7391 220.163 71.6289 215.539 77.5961 215.539Z" fill="#1D2332"/>
<path d="M142.849 344.989C149.374 344.989 154.724 339.931 154.776 333.714C154.803 330.677 153.587 327.813 151.352 325.648C149.116 323.484 146.129 322.28 142.944 322.255C136.319 322.255 130.97 327.312 130.92 333.53C130.893 336.566 132.11 339.43 134.346 341.594C136.58 343.758 139.565 344.963 142.75 344.988C142.751 344.989 142.846 344.989 142.849 344.989ZM142.842 323.228C145.848 323.251 148.579 324.352 150.622 326.332C152.668 328.311 153.779 330.93 153.755 333.706C153.709 339.391 148.815 344.017 142.849 344.017V344.504L142.759 344.017C139.844 343.994 137.115 342.893 135.073 340.913C133.03 338.933 131.916 336.314 131.94 333.539C131.986 327.853 136.878 323.228 142.842 323.228Z" fill="#7DDCFF"/>
<path d="M142.849 344.989C149.374 344.989 154.724 339.931 154.776 333.714C154.803 330.677 153.587 327.813 151.352 325.648C149.116 323.484 146.129 322.28 142.944 322.255C136.319 322.255 130.97 327.312 130.92 333.53C130.893 336.566 132.11 339.43 134.346 341.594C136.58 343.758 139.565 344.963 142.75 344.988C142.751 344.989 142.846 344.989 142.849 344.989ZM142.842 323.228C145.848 323.251 148.579 324.352 150.622 326.332C152.668 328.311 153.779 330.93 153.755 333.706C153.709 339.391 148.815 344.017 142.849 344.017V344.504L142.759 344.017C139.844 343.994 137.115 342.893 135.073 340.913C133.03 338.933 131.916 336.314 131.94 333.539C131.986 327.853 136.878 323.228 142.842 323.228Z" fill="#1D2332"/>
<path d="M12.3587 129.695C18.8838 129.695 24.2361 124.636 24.2876 118.418C24.3139 115.381 23.0973 112.517 20.8612 110.355C18.6262 108.19 15.6405 106.984 12.453 106.96C5.83032 106.96 0.4813 112.018 0.428686 118.235C0.40238 121.271 1.61909 124.135 3.85514 126.301C6.0912 128.465 9.07369 129.67 12.2612 129.696C12.2612 129.695 12.3565 129.695 12.3587 129.695ZM12.3543 107.931C15.3599 107.954 18.0891 109.057 20.1334 111.035C22.1765 113.015 23.2902 115.633 23.2639 118.411C23.2167 124.096 18.3259 128.721 12.3565 128.721V129.208L12.2666 128.721C9.35208 128.698 6.62386 127.597 4.58072 125.617C2.53758 123.637 1.42398 121.02 1.45029 118.243C1.49852 112.555 6.39044 107.931 12.3543 107.931Z" fill="#7DDCFF"/>
<path d="M12.3587 129.695C18.8838 129.695 24.2361 124.636 24.2876 118.418C24.3139 115.381 23.0973 112.517 20.8612 110.355C18.6262 108.19 15.6405 106.984 12.453 106.96C5.83032 106.96 0.4813 112.018 0.428686 118.235C0.40238 121.271 1.61909 124.135 3.85514 126.301C6.0912 128.465 9.07369 129.67 12.2612 129.696C12.2612 129.695 12.3565 129.695 12.3587 129.695ZM12.3543 107.931C15.3599 107.954 18.0891 109.057 20.1334 111.035C22.1765 113.015 23.2902 115.633 23.2639 118.411C23.2167 124.096 18.3259 128.721 12.3565 128.721V129.208L12.2666 128.721C9.35208 128.698 6.62386 127.597 4.58072 125.617C2.53758 123.637 1.42398 121.02 1.45029 118.243C1.49852 112.555 6.39044 107.931 12.3543 107.931Z" fill="#1D2332"/>
</svg>
