<svg width="783" height="248" viewBox="0 0 783 248" fill="none" xmlns="http://www.w3.org/2000/svg">
<path d="M770.969 218.003L774.721 211.357L770.969 204.71H773.113L776.937 211.357L773.113 218.003H770.969ZM776.043 218.003L779.831 211.357L776.043 204.71H778.223L782.047 211.357L778.223 218.003H776.043Z" fill="#1D2332"/>
<path d="M763.237 204.532C761.999 204.532 761.105 205.128 760.557 206.319C760.248 206.914 760.081 207.712 760.057 208.713C760.033 209.166 760.009 209.642 759.986 210.142C759.986 210.619 759.998 211.286 760.021 212.144C760.045 213.073 760.069 213.859 760.093 214.502C760.117 215.145 760.188 215.669 760.307 216.074C760.712 217.313 761.641 217.933 763.095 217.933C763.857 217.933 764.464 217.73 764.917 217.325C765.393 216.896 765.715 216.336 765.882 215.646C765.977 215.241 766.037 214.657 766.061 213.895C766.084 213.132 766.096 212.31 766.096 211.429C766.096 211.048 766.096 210.619 766.096 210.142C766.096 209.666 766.084 209.201 766.061 208.749C766.037 208.272 766.001 207.843 765.953 207.462C765.93 207.057 765.882 206.736 765.81 206.497C765.644 205.878 765.358 205.402 764.953 205.068C764.548 204.711 763.976 204.532 763.237 204.532ZM763.595 202.567C764.881 202.567 765.834 202.841 766.454 203.388C767.073 203.936 767.514 204.592 767.776 205.354C767.871 205.664 767.943 206.069 767.99 206.569C768.062 207.045 768.109 207.581 768.133 208.177C768.181 208.749 768.205 209.356 768.205 209.999C768.205 210.619 768.205 211.226 768.205 211.822C768.205 212.465 768.193 213.061 768.169 213.609C768.169 214.157 768.133 214.788 768.062 215.503C767.966 216.384 767.74 217.111 767.383 217.682C767.049 218.254 766.632 218.707 766.132 219.04C765.656 219.35 765.131 219.564 764.56 219.684C764.012 219.826 763.464 219.898 762.916 219.898C762.177 219.898 761.534 219.815 760.986 219.648C760.462 219.481 760.009 219.255 759.628 218.969C759.271 218.659 758.973 218.314 758.735 217.933C758.497 217.528 758.318 217.099 758.199 216.646C758.127 216.36 758.068 216.015 758.02 215.61C757.973 215.205 757.937 214.764 757.913 214.288C757.913 213.787 757.901 213.287 757.877 212.787C757.877 212.286 757.877 211.798 757.877 211.322V207.427C757.901 205.64 757.984 204.115 758.127 202.852C758.27 201.566 758.497 200.482 758.806 199.601C759.14 198.719 759.557 198.004 760.057 197.457C760.581 196.885 761.236 196.396 762.023 195.991C762.451 195.777 762.844 195.598 763.202 195.455C763.583 195.289 763.964 195.134 764.345 194.991C764.726 194.848 765.12 194.705 765.525 194.562C765.93 194.395 766.37 194.205 766.847 193.99C766.99 194.252 767.121 194.526 767.24 194.812C767.383 195.074 767.514 195.336 767.633 195.598C767.156 195.86 766.728 196.063 766.346 196.206C765.989 196.349 765.632 196.492 765.274 196.635C764.917 196.778 764.536 196.932 764.131 197.099C763.726 197.266 763.261 197.492 762.737 197.778C761.999 198.183 761.391 198.826 760.915 199.708C760.581 200.303 760.367 201.03 760.271 201.888C760.176 202.721 760.117 203.591 760.093 204.496H760.164C760.403 204.091 760.676 203.77 760.986 203.531C761.32 203.269 761.641 203.067 761.951 202.924C762.261 202.781 762.559 202.686 762.844 202.638C763.13 202.59 763.38 202.567 763.595 202.567Z" fill="#1D2332"/>
<path d="M750.939 216.36C751.201 215.216 751.463 214.025 751.725 212.786C751.987 211.524 752.249 210.321 752.511 209.177L754.226 202.102H756.442L751.153 222.721C751.01 223.245 750.832 223.745 750.617 224.221C750.427 224.698 750.176 225.115 749.867 225.472C749.557 225.829 749.176 226.115 748.723 226.33C748.271 226.544 747.723 226.651 747.079 226.651H746.257V224.757H746.829C747.544 224.757 748.08 224.507 748.437 224.007C748.795 223.507 749.092 222.721 749.331 221.649L749.831 219.683L745.15 202.102H747.472C747.806 203.388 748.116 204.674 748.402 205.961C748.687 207.224 748.985 208.498 749.295 209.785C749.414 210.285 749.545 210.845 749.688 211.464C749.831 212.06 749.974 212.667 750.117 213.287C750.26 213.882 750.391 214.454 750.51 215.002C750.653 215.55 750.76 216.002 750.832 216.36H750.939Z" fill="#1D2332"/>
<path d="M733.416 219.647V202.102H735.632V209.856H737.383C737.692 209.856 738.014 209.832 738.348 209.785C738.681 209.713 739.003 209.594 739.312 209.427C739.622 209.237 739.896 208.975 740.134 208.641C740.396 208.308 740.599 207.855 740.742 207.283L742.135 202.102H744.244L742.886 207.176C742.648 208.034 742.338 208.76 741.957 209.356C741.576 209.927 741.063 210.309 740.42 210.499C741.23 210.69 741.814 211.095 742.171 211.714C742.529 212.334 742.826 213.072 743.065 213.93L744.565 219.647H742.386L741.099 214.502C740.956 213.93 740.766 213.465 740.527 213.108C740.313 212.727 740.063 212.441 739.777 212.25C739.491 212.036 739.169 211.893 738.812 211.821C738.479 211.75 738.121 211.714 737.74 211.714H735.632V219.647H733.416Z" fill="#1D2332"/>
<path d="M721.91 210.392V208.427H730.736V210.392H721.91Z" fill="#1D2332"/>
<path d="M717.318 196.778V219.648H715.066V196.778H710.6V194.776H721.785V196.778H717.318Z" fill="#1D2332"/>
<path d="M706.111 219.648V194.776H708.362V219.648H706.111Z" fill="#1D2332"/>
<path d="M700.545 218.003L696.721 211.357L700.545 204.71H702.725L698.973 211.357L702.725 218.003H700.545ZM695.471 218.003L691.647 211.357L695.471 204.71H697.651L693.863 211.357L697.651 218.003H695.471Z" fill="#1D2332"/>
<path d="M673.984 195.348C674.079 195.967 674.365 196.539 674.842 197.063C675.342 197.587 675.949 197.849 676.664 197.849C677.427 197.849 678.046 197.599 678.522 197.099C679.023 196.598 679.309 196.015 679.38 195.348H681.167C681.119 195.8 681 196.277 680.809 196.777C680.619 197.254 680.333 197.706 679.952 198.135C679.594 198.54 679.142 198.873 678.594 199.136C678.046 199.398 677.403 199.529 676.664 199.529C675.878 199.529 675.199 199.398 674.627 199.136C674.079 198.873 673.627 198.54 673.269 198.135C672.912 197.706 672.638 197.254 672.447 196.777C672.281 196.277 672.185 195.8 672.162 195.348H673.984ZM679.845 219.647V206.104H679.809L673.412 219.647H671.304V202.102H673.448V215.609H673.484C674.556 213.37 675.616 211.119 676.664 208.855C677.712 206.568 678.773 204.317 679.845 202.102H682.06V219.647H679.845Z" fill="#1D2332"/>
<path d="M663.635 201.852C665.064 201.852 666.172 202.209 666.958 202.924C667.768 203.614 668.244 204.603 668.387 205.89C668.411 206.152 668.423 206.414 668.423 206.676C668.447 206.938 668.459 207.2 668.459 207.462V211.393H660.597C660.597 211.631 660.597 211.857 660.597 212.072C660.621 212.286 660.633 212.512 660.633 212.751C660.633 213.37 660.645 214.001 660.669 214.645C660.716 215.288 660.8 215.776 660.919 216.11C661.3 217.301 662.158 217.896 663.492 217.896C664.397 217.896 665.064 217.634 665.493 217.11C665.922 216.562 666.16 215.848 666.208 214.966L668.423 215.395C668.304 216.848 667.816 217.968 666.958 218.754C666.124 219.516 664.933 219.898 663.384 219.898C662.646 219.898 662.003 219.802 661.455 219.612C660.931 219.421 660.478 219.183 660.097 218.897C659.74 218.587 659.442 218.242 659.204 217.861C658.989 217.456 658.834 217.051 658.739 216.646C658.667 216.36 658.608 216.003 658.56 215.574C658.513 215.121 658.477 214.645 658.453 214.144C658.453 213.62 658.441 213.096 658.417 212.572C658.417 212.048 658.417 211.548 658.417 211.071C658.417 210.452 658.417 209.832 658.417 209.213C658.441 208.594 658.477 207.998 658.525 207.426C658.572 206.854 658.62 206.342 658.667 205.89C658.739 205.413 658.834 205.02 658.953 204.71C659.287 203.829 659.823 203.138 660.561 202.638C661.3 202.114 662.324 201.852 663.635 201.852ZM660.99 205.532C660.847 205.913 660.752 206.449 660.704 207.14C660.681 207.807 660.657 208.629 660.633 209.606H666.279V207.748C666.279 207.248 666.243 206.771 666.172 206.318C666.124 205.842 665.993 205.425 665.779 205.068C665.588 204.71 665.314 204.424 664.957 204.21C664.599 203.996 664.123 203.888 663.527 203.888C663.003 203.888 662.515 204.008 662.062 204.246C661.61 204.484 661.252 204.913 660.99 205.532Z" fill="#1D2332"/>
<path d="M654.347 204.032V219.648H652.167V204.032H648.272V202.066H658.278V204.032H654.347Z" fill="#1D2332"/>
<path d="M642.069 201.852C643.499 201.852 644.606 202.209 645.393 202.924C646.202 203.614 646.679 204.603 646.822 205.89C646.846 206.152 646.858 206.414 646.858 206.676C646.881 206.938 646.893 207.2 646.893 207.462V211.393H639.032C639.032 211.631 639.032 211.857 639.032 212.072C639.056 212.286 639.067 212.512 639.067 212.751C639.067 213.37 639.079 214.001 639.103 214.645C639.151 215.288 639.234 215.776 639.353 216.11C639.734 217.301 640.592 217.896 641.926 217.896C642.832 217.896 643.499 217.634 643.927 217.11C644.356 216.562 644.594 215.848 644.642 214.966L646.858 215.395C646.739 216.848 646.25 217.968 645.393 218.754C644.559 219.516 643.368 219.898 641.819 219.898C641.081 219.898 640.437 219.802 639.889 219.612C639.365 219.421 638.913 219.183 638.531 218.897C638.174 218.587 637.876 218.242 637.638 217.861C637.424 217.456 637.269 217.051 637.173 216.646C637.102 216.36 637.042 216.003 636.995 215.574C636.947 215.121 636.911 214.645 636.888 214.144C636.888 213.62 636.876 213.096 636.852 212.572C636.852 212.048 636.852 211.548 636.852 211.071C636.852 210.452 636.852 209.832 636.852 209.213C636.876 208.594 636.911 207.998 636.959 207.426C637.007 206.854 637.054 206.342 637.102 205.89C637.174 205.413 637.269 205.02 637.388 204.71C637.721 203.829 638.257 203.138 638.996 202.638C639.734 202.114 640.759 201.852 642.069 201.852ZM639.425 205.532C639.282 205.913 639.187 206.449 639.139 207.14C639.115 207.807 639.091 208.629 639.067 209.606H644.714V207.748C644.714 207.248 644.678 206.771 644.606 206.318C644.559 205.842 644.428 205.425 644.213 205.068C644.023 204.71 643.749 204.424 643.391 204.21C643.034 203.996 642.558 203.888 641.962 203.888C641.438 203.888 640.949 204.008 640.497 204.246C640.044 204.484 639.687 204.913 639.425 205.532Z" fill="#1D2332"/>
<path d="M623.414 224.151H621.377V217.861L622.485 217.683C622.795 217.349 623.045 217.015 623.235 216.682C623.426 216.348 623.581 215.955 623.7 215.503C623.843 215.026 623.938 214.454 623.986 213.787C624.057 213.12 624.105 212.263 624.129 211.215L624.379 202.066H633.813V217.683H635.064V224.151H633.027V219.648H623.414V224.151ZM631.597 204.032H626.452L626.201 211.393C626.154 212.894 626.035 214.169 625.844 215.217C625.677 216.241 625.391 217.063 624.986 217.683H631.597V204.032Z" fill="#1D2332"/>
<path d="M602.586 207.176C602.586 205.628 603.015 204.389 603.873 203.46C604.754 202.531 606.172 202.066 608.125 202.066H612.771V219.648H610.555V211.893H608.375C607.637 211.893 607.029 212.084 606.553 212.465C606.1 212.823 605.743 213.561 605.481 214.681L604.302 219.648H602.086L603.515 214.109C603.658 213.49 603.873 212.918 604.159 212.394C604.445 211.87 604.85 211.488 605.374 211.25C604.373 210.917 603.658 210.405 603.23 209.714C602.801 208.999 602.586 208.153 602.586 207.176ZM608.411 204.032C607.077 204.032 606.148 204.342 605.624 204.961C605.1 205.557 604.838 206.331 604.838 207.284C604.838 208.189 605.123 208.868 605.695 209.321C606.291 209.773 607.148 210 608.268 210H610.555V204.032H608.411Z" fill="#1D2332"/>
<path d="M597.486 219.647V206.104H597.45L591.054 219.647H588.945V202.102H591.09V215.609H591.125C592.197 213.37 593.258 211.119 594.306 208.855C595.354 206.568 596.414 204.317 597.486 202.102H599.702V219.647H597.486Z" fill="#1D2332"/>
<path d="M583.548 219.648V211.608H577.973V219.648H575.757V202.066H577.973V209.678H583.548V202.066H585.835V219.648H583.548Z" fill="#1D2332"/>
<path d="M562.874 205.175C563.184 204.151 563.755 203.341 564.589 202.745C565.423 202.149 566.483 201.852 567.77 201.852C569.318 201.852 570.509 202.209 571.343 202.924C572.201 203.614 572.63 204.841 572.63 206.604V219.647H570.414V218.075H570.378C569.854 218.814 569.259 219.302 568.591 219.54C567.948 219.755 567.257 219.862 566.519 219.862C565.757 219.862 565.113 219.719 564.589 219.433C564.089 219.147 563.672 218.778 563.338 218.325C563.029 217.849 562.802 217.313 562.659 216.717C562.517 216.122 562.445 215.502 562.445 214.859C562.445 214.192 562.517 213.525 562.659 212.858C562.802 212.191 563.064 211.595 563.446 211.071C563.827 210.523 564.327 210.082 564.947 209.749C565.566 209.392 566.364 209.213 567.341 209.213H570.45V206.64C570.45 205.806 570.259 205.139 569.878 204.639C569.497 204.139 568.758 203.888 567.662 203.888C567.138 203.888 566.59 204.043 566.019 204.353C565.471 204.639 565.113 205.127 564.947 205.818L562.874 205.175ZM567.841 211.143C566.936 211.143 566.162 211.417 565.518 211.965C564.899 212.489 564.589 213.418 564.589 214.752C564.589 215.657 564.792 216.396 565.197 216.967C565.625 217.515 566.34 217.789 567.341 217.789C568.294 217.789 569.044 217.527 569.592 217.003C570.164 216.479 570.45 215.717 570.45 214.716V211.143H567.841Z" fill="#1D2332"/>
<path d="M552.147 204.031V209.499H554.685C555.828 209.499 556.638 209.26 557.115 208.784C557.591 208.308 557.829 207.617 557.829 206.711C557.829 205.83 557.567 205.163 557.043 204.71C556.519 204.258 555.649 204.031 554.435 204.031H552.147ZM552.147 211.321V217.61H554.72C555.435 217.61 556.007 217.527 556.436 217.36C556.888 217.194 557.234 216.955 557.472 216.646C557.734 216.336 557.901 215.979 557.972 215.574C558.068 215.169 558.115 214.728 558.115 214.251C558.115 213.322 557.877 212.608 557.4 212.107C556.924 211.583 556.09 211.321 554.899 211.321H552.147ZM549.932 219.647V202.102H554.577C556.507 202.102 557.889 202.507 558.723 203.317C559.58 204.127 560.009 205.27 560.009 206.747C560.009 207.581 559.866 208.296 559.58 208.891C559.318 209.487 558.854 209.975 558.187 210.356H558.222C558.985 210.69 559.509 211.226 559.795 211.964C560.081 212.703 560.224 213.513 560.224 214.394C560.224 216.276 559.735 217.622 558.758 218.432C557.805 219.242 556.4 219.647 554.542 219.647H549.932Z" fill="#1D2332"/>
<path d="M542.019 201.852C543.353 201.852 544.377 202.114 545.092 202.638C545.83 203.162 546.343 203.817 546.629 204.603C546.843 205.223 546.974 206.009 547.022 206.962C547.093 207.915 547.129 208.867 547.129 209.82V211.571C547.129 212.215 547.117 212.858 547.093 213.501C547.069 214.121 547.022 214.788 546.95 215.502C546.855 216.384 546.629 217.11 546.271 217.682C545.938 218.254 545.521 218.706 545.021 219.04C544.544 219.35 544.02 219.564 543.448 219.683C542.876 219.826 542.317 219.898 541.769 219.898C540.315 219.898 539.231 219.588 538.517 218.969C537.802 218.325 537.326 217.551 537.087 216.646C537.016 216.36 536.956 216.003 536.909 215.574C536.861 215.121 536.825 214.645 536.802 214.144C536.778 213.62 536.766 213.096 536.766 212.572C536.766 212.048 536.766 211.548 536.766 211.071C536.766 210.452 536.766 209.832 536.766 209.213C536.79 208.57 536.825 207.962 536.873 207.39C536.921 206.819 536.968 206.307 537.016 205.854C537.087 205.377 537.183 204.996 537.302 204.71C537.612 203.853 538.148 203.162 538.91 202.638C539.696 202.114 540.732 201.852 542.019 201.852ZM541.983 203.817C541.435 203.817 540.923 203.936 540.446 204.174C539.97 204.413 539.601 204.841 539.339 205.461C539.172 205.89 539.065 206.545 539.017 207.426C538.969 208.308 538.946 209.356 538.946 210.571V211.714C538.946 212.691 538.958 213.561 538.981 214.323C539.005 215.085 539.089 215.669 539.231 216.074C539.589 217.289 540.506 217.896 541.983 217.896C542.674 217.896 543.258 217.694 543.734 217.289C544.234 216.884 544.568 216.336 544.735 215.645C544.806 215.216 544.866 214.585 544.913 213.751C544.961 212.917 544.985 212.048 544.985 211.143C544.985 210.642 544.973 210.118 544.949 209.57C544.949 209.022 544.937 208.498 544.913 207.998C544.913 207.498 544.889 207.045 544.842 206.64C544.794 206.235 544.735 205.925 544.663 205.711C544.473 205.092 544.139 204.627 543.663 204.317C543.186 203.984 542.626 203.817 541.983 203.817Z" fill="#1D2332"/>
<path d="M532.298 210.499C533.108 210.785 533.608 211.309 533.799 212.072C534.013 212.81 534.121 213.656 534.121 214.609C534.121 215.586 533.978 216.407 533.692 217.074C533.406 217.742 533.013 218.278 532.513 218.683C532.036 219.088 531.488 219.385 530.869 219.576C530.249 219.743 529.606 219.826 528.939 219.826C528.296 219.826 527.688 219.755 527.117 219.612C526.545 219.445 526.033 219.195 525.58 218.861C525.151 218.504 524.794 218.051 524.508 217.503C524.246 216.955 524.079 216.288 524.008 215.502L526.152 215.181C526.199 216.133 526.473 216.824 526.974 217.253C527.498 217.658 528.177 217.861 529.011 217.861C529.368 217.861 529.713 217.813 530.047 217.718C530.404 217.599 530.714 217.408 530.976 217.146C531.262 216.884 531.488 216.55 531.655 216.145C531.822 215.717 531.905 215.192 531.905 214.573C531.905 212.477 531.167 211.428 529.69 211.428H527.939V209.499H529.797C530.464 209.499 530.976 209.284 531.333 208.855C531.715 208.403 531.905 207.676 531.905 206.676C531.905 205.77 531.655 205.08 531.155 204.603C530.654 204.127 529.987 203.888 529.154 203.888C528.32 203.888 527.653 204.103 527.152 204.532C526.676 204.96 526.402 205.627 526.33 206.533C526.259 206.509 526.116 206.485 525.902 206.461C525.711 206.414 525.497 206.366 525.258 206.318C525.044 206.247 524.83 206.199 524.615 206.175C524.425 206.128 524.306 206.092 524.258 206.068C524.377 204.663 524.889 203.614 525.794 202.924C526.7 202.233 527.819 201.887 529.154 201.887C529.892 201.887 530.559 201.982 531.155 202.173C531.774 202.34 532.298 202.614 532.727 202.995C533.18 203.352 533.525 203.829 533.763 204.424C534.002 205.02 534.121 205.735 534.121 206.568C534.121 207.355 534.002 208.117 533.763 208.855C533.549 209.594 533.061 210.118 532.298 210.428V210.499Z" fill="#1D2332"/>
<path d="M512.481 205.175C512.791 204.151 513.363 203.341 514.197 202.745C515.03 202.149 516.091 201.852 517.377 201.852C518.925 201.852 520.117 202.209 520.95 202.924C521.808 203.614 522.237 204.841 522.237 206.604V219.647H520.021V218.075H519.986C519.461 218.814 518.866 219.302 518.199 219.54C517.556 219.755 516.865 219.862 516.126 219.862C515.364 219.862 514.721 219.719 514.197 219.433C513.696 219.147 513.279 218.778 512.946 218.325C512.636 217.849 512.41 217.313 512.267 216.717C512.124 216.122 512.052 215.502 512.052 214.859C512.052 214.192 512.124 213.525 512.267 212.858C512.41 212.191 512.672 211.595 513.053 211.071C513.434 210.523 513.935 210.082 514.554 209.749C515.173 209.392 515.971 209.213 516.948 209.213H520.057V206.64C520.057 205.806 519.866 205.139 519.485 204.639C519.104 204.139 518.366 203.888 517.27 203.888C516.746 203.888 516.198 204.043 515.626 204.353C515.078 204.639 514.721 205.127 514.554 205.818L512.481 205.175ZM517.448 211.143C516.543 211.143 515.769 211.417 515.126 211.965C514.506 212.489 514.197 213.418 514.197 214.752C514.197 215.657 514.399 216.396 514.804 216.967C515.233 217.515 515.948 217.789 516.948 217.789C517.901 217.789 518.652 217.527 519.199 217.003C519.771 216.479 520.057 215.717 520.057 214.716V211.143H517.448Z" fill="#1D2332"/>
<path d="M504.748 203.96C503.819 203.96 503.092 204.27 502.568 204.889C502.044 205.485 501.782 206.271 501.782 207.248V214.359C501.782 215.312 502.008 216.122 502.461 216.789C502.937 217.432 503.676 217.754 504.677 217.754C506.058 217.754 506.928 217.075 507.285 215.717C507.404 215.216 507.476 214.514 507.5 213.608C507.547 212.679 507.571 211.679 507.571 210.607C507.571 209.487 507.547 208.522 507.5 207.712C507.476 206.902 507.392 206.259 507.249 205.782C507.059 205.115 506.761 204.651 506.356 204.389C505.951 204.103 505.415 203.96 504.748 203.96ZM505.391 201.852C505.772 201.852 506.189 201.911 506.642 202.03C507.118 202.126 507.559 202.328 507.964 202.638C508.369 202.924 508.726 203.352 509.036 203.924C509.37 204.472 509.584 205.199 509.679 206.104C509.751 206.843 509.787 207.593 509.787 208.355C509.787 209.094 509.787 209.88 509.787 210.714C509.787 212.024 509.763 213.239 509.715 214.359C509.668 215.455 509.501 216.396 509.215 217.182C508.929 217.968 508.476 218.611 507.857 219.111C507.261 219.612 506.368 219.862 505.177 219.862C504.343 219.862 503.64 219.695 503.068 219.362C502.521 219.004 502.116 218.599 501.853 218.147H501.782V226.544H499.638V202.102H501.782V203.603H501.853C502.258 203.055 502.711 202.626 503.211 202.316C503.712 202.006 504.438 201.852 505.391 201.852Z" fill="#1D2332"/>
<path d="M492.156 204.532C490.917 204.532 490.024 205.128 489.476 206.319C489.166 206.914 488.999 207.712 488.976 208.713C488.952 209.166 488.928 209.642 488.904 210.142C488.904 210.619 488.916 211.286 488.94 212.144C488.964 213.073 488.988 213.859 489.011 214.502C489.035 215.145 489.107 215.669 489.226 216.074C489.631 217.313 490.56 217.933 492.013 217.933C492.775 217.933 493.383 217.73 493.836 217.325C494.312 216.896 494.634 216.336 494.8 215.646C494.896 215.241 494.955 214.657 494.979 213.895C495.003 213.132 495.015 212.31 495.015 211.429C495.015 211.048 495.015 210.619 495.015 210.142C495.015 209.666 495.003 209.201 494.979 208.749C494.955 208.272 494.92 207.843 494.872 207.462C494.848 207.057 494.8 206.736 494.729 206.497C494.562 205.878 494.276 205.402 493.871 205.068C493.466 204.711 492.895 204.532 492.156 204.532ZM492.513 202.567C493.8 202.567 494.753 202.841 495.372 203.388C495.992 203.936 496.432 204.592 496.694 205.354C496.79 205.664 496.861 206.069 496.909 206.569C496.98 207.045 497.028 207.581 497.052 208.177C497.099 208.749 497.123 209.356 497.123 209.999C497.123 210.619 497.123 211.226 497.123 211.822C497.123 212.465 497.111 213.061 497.087 213.609C497.087 214.157 497.052 214.788 496.98 215.503C496.885 216.384 496.659 217.111 496.301 217.682C495.968 218.254 495.551 218.707 495.051 219.04C494.574 219.35 494.05 219.564 493.478 219.684C492.93 219.826 492.382 219.898 491.834 219.898C491.096 219.898 490.453 219.815 489.905 219.648C489.381 219.481 488.928 219.255 488.547 218.969C488.189 218.659 487.892 218.314 487.653 217.933C487.415 217.528 487.237 217.099 487.117 216.646C487.046 216.36 486.986 216.015 486.939 215.61C486.891 215.205 486.855 214.764 486.832 214.288C486.832 213.787 486.82 213.287 486.796 212.787C486.796 212.286 486.796 211.798 486.796 211.322V207.427C486.82 205.64 486.903 204.115 487.046 202.852C487.189 201.566 487.415 200.482 487.725 199.601C488.058 198.719 488.475 198.004 488.976 197.457C489.5 196.885 490.155 196.396 490.941 195.991C491.37 195.777 491.763 195.598 492.12 195.455C492.501 195.289 492.883 195.134 493.264 194.991C493.645 194.848 494.038 194.705 494.443 194.562C494.848 194.395 495.289 194.205 495.765 193.99C495.908 194.252 496.039 194.526 496.158 194.812C496.301 195.074 496.432 195.336 496.551 195.598C496.075 195.86 495.646 196.063 495.265 196.206C494.908 196.349 494.55 196.492 494.193 196.635C493.836 196.778 493.454 196.932 493.049 197.099C492.644 197.266 492.18 197.492 491.656 197.778C490.917 198.183 490.31 198.826 489.833 199.708C489.5 200.303 489.285 201.03 489.19 201.888C489.095 202.721 489.035 203.591 489.011 204.496H489.083C489.321 204.091 489.595 203.77 489.905 203.531C490.238 203.269 490.56 203.067 490.87 202.924C491.179 202.781 491.477 202.686 491.763 202.638C492.049 202.59 492.299 202.567 492.513 202.567Z" fill="#1D2332"/>
<path d="M479.238 201.852C480.573 201.852 481.597 202.114 482.312 202.638C483.05 203.162 483.562 203.817 483.848 204.603C484.063 205.223 484.194 206.009 484.241 206.962C484.313 207.915 484.349 208.867 484.349 209.82V211.571C484.349 212.215 484.337 212.858 484.313 213.501C484.289 214.121 484.241 214.788 484.17 215.502C484.075 216.384 483.848 217.11 483.491 217.682C483.157 218.254 482.74 218.706 482.24 219.04C481.764 219.35 481.24 219.564 480.668 219.683C480.096 219.826 479.536 219.898 478.988 219.898C477.535 219.898 476.451 219.588 475.736 218.969C475.022 218.325 474.545 217.551 474.307 216.646C474.236 216.36 474.176 216.003 474.128 215.574C474.081 215.121 474.045 214.645 474.021 214.144C473.997 213.62 473.985 213.096 473.985 212.572C473.985 212.048 473.985 211.548 473.985 211.071C473.985 210.452 473.985 209.832 473.985 209.213C474.009 208.57 474.045 207.962 474.093 207.39C474.14 206.819 474.188 206.307 474.236 205.854C474.307 205.377 474.402 204.996 474.521 204.71C474.831 203.853 475.367 203.162 476.13 202.638C476.916 202.114 477.952 201.852 479.238 201.852ZM479.203 203.817C478.655 203.817 478.143 203.936 477.666 204.174C477.19 204.413 476.82 204.841 476.558 205.461C476.392 205.89 476.284 206.545 476.237 207.426C476.189 208.308 476.165 209.356 476.165 210.571V211.714C476.165 212.691 476.177 213.561 476.201 214.323C476.225 215.085 476.308 215.669 476.451 216.074C476.808 217.289 477.726 217.896 479.203 217.896C479.894 217.896 480.477 217.694 480.954 217.289C481.454 216.884 481.788 216.336 481.954 215.645C482.026 215.216 482.085 214.585 482.133 213.751C482.181 212.917 482.204 212.048 482.204 211.143C482.204 210.642 482.193 210.118 482.169 209.57C482.169 209.022 482.157 208.498 482.133 207.998C482.133 207.498 482.109 207.045 482.061 206.64C482.014 206.235 481.954 205.925 481.883 205.711C481.692 205.092 481.359 204.627 480.882 204.317C480.406 203.984 479.846 203.817 479.203 203.817Z" fill="#1D2332"/>
<path d="M459.941 201.852C461.275 201.852 462.3 202.114 463.014 202.638C463.753 203.162 464.265 203.817 464.551 204.603C464.765 205.223 464.896 206.009 464.944 206.962C465.015 207.915 465.051 208.867 465.051 209.82V211.571C465.051 212.215 465.039 212.858 465.016 213.501C464.992 214.121 464.944 214.788 464.873 215.502C464.777 216.384 464.551 217.11 464.194 217.682C463.86 218.254 463.443 218.706 462.943 219.04C462.466 219.35 461.942 219.564 461.371 219.683C460.799 219.826 460.239 219.898 459.691 219.898C458.238 219.898 457.154 219.588 456.439 218.969C455.724 218.325 455.248 217.551 455.01 216.646C454.938 216.36 454.879 216.003 454.831 215.574C454.783 215.121 454.748 214.645 454.724 214.144C454.7 213.62 454.688 213.096 454.688 212.572C454.688 212.048 454.688 211.548 454.688 211.071C454.688 210.452 454.688 209.832 454.688 209.213C454.712 208.57 454.748 207.962 454.795 207.39C454.843 206.819 454.891 206.307 454.938 205.854C455.01 205.377 455.105 204.996 455.224 204.71C455.534 203.853 456.07 203.162 456.832 202.638C457.618 202.114 458.655 201.852 459.941 201.852ZM459.905 203.817C459.357 203.817 458.845 203.936 458.369 204.174C457.892 204.413 457.523 204.841 457.261 205.461C457.094 205.89 456.987 206.545 456.939 207.426C456.892 208.308 456.868 209.356 456.868 210.571V211.714C456.868 212.691 456.88 213.561 456.904 214.323C456.928 215.085 457.011 215.669 457.154 216.074C457.511 217.289 458.428 217.896 459.905 217.896C460.596 217.896 461.18 217.694 461.656 217.289C462.157 216.884 462.49 216.336 462.657 215.645C462.728 215.216 462.788 214.585 462.836 213.751C462.883 212.917 462.907 212.048 462.907 211.143C462.907 210.642 462.895 210.118 462.871 209.57C462.871 209.022 462.86 208.498 462.836 207.998C462.836 207.498 462.812 207.045 462.764 206.64C462.717 206.235 462.657 205.925 462.586 205.711C462.395 205.092 462.061 204.627 461.585 204.317C461.108 203.984 460.549 203.817 459.905 203.817Z" fill="#1D2332"/>
<path d="M447.178 204.032V219.648H444.962V202.066H453.932V204.032H447.178Z" fill="#1D2332"/>
<path d="M437.014 201.852C438.348 201.852 439.372 202.114 440.087 202.638C440.825 203.162 441.338 203.817 441.623 204.603C441.838 205.223 441.969 206.009 442.017 206.962C442.088 207.915 442.124 208.867 442.124 209.82V211.571C442.124 212.215 442.112 212.858 442.088 213.501C442.064 214.121 442.017 214.788 441.945 215.502C441.85 216.384 441.623 217.11 441.266 217.682C440.933 218.254 440.516 218.706 440.015 219.04C439.539 219.35 439.015 219.564 438.443 219.683C437.871 219.826 437.311 219.898 436.764 219.898C435.31 219.898 434.226 219.588 433.512 218.969C432.797 218.325 432.321 217.551 432.082 216.646C432.011 216.36 431.951 216.003 431.904 215.574C431.856 215.121 431.82 214.645 431.796 214.144C431.773 213.62 431.761 213.096 431.761 212.572C431.761 212.048 431.761 211.548 431.761 211.071C431.761 210.452 431.761 209.832 431.761 209.213C431.785 208.57 431.82 207.962 431.868 207.39C431.916 206.819 431.963 206.307 432.011 205.854C432.082 205.377 432.178 204.996 432.297 204.71C432.606 203.853 433.142 203.162 433.905 202.638C434.691 202.114 435.727 201.852 437.014 201.852ZM436.978 203.817C436.43 203.817 435.918 203.936 435.441 204.174C434.965 204.413 434.596 204.841 434.334 205.461C434.167 205.89 434.06 206.545 434.012 207.426C433.964 208.308 433.941 209.356 433.941 210.571V211.714C433.941 212.691 433.952 213.561 433.976 214.323C434 215.085 434.083 215.669 434.226 216.074C434.584 217.289 435.501 217.896 436.978 217.896C437.669 217.896 438.253 217.694 438.729 217.289C439.229 216.884 439.563 216.336 439.73 215.645C439.801 215.216 439.861 214.585 439.908 213.751C439.956 212.917 439.98 212.048 439.98 211.143C439.98 210.642 439.968 210.118 439.944 209.57C439.944 209.022 439.932 208.498 439.908 207.998C439.908 207.498 439.884 207.045 439.837 206.64C439.789 206.235 439.73 205.925 439.658 205.711C439.467 205.092 439.134 204.627 438.657 204.317C438.181 203.984 437.621 203.817 436.978 203.817Z" fill="#1D2332"/>
<path d="M421.179 204.031V209.499H423.716C424.86 209.499 425.67 209.26 426.146 208.784C426.623 208.308 426.861 207.617 426.861 206.711C426.861 205.83 426.599 205.163 426.075 204.71C425.551 204.258 424.681 204.031 423.466 204.031H421.179ZM421.179 211.321V217.61H423.752C424.467 217.61 425.039 217.527 425.467 217.36C425.92 217.194 426.266 216.955 426.504 216.646C426.766 216.336 426.933 215.979 427.004 215.574C427.099 215.169 427.147 214.728 427.147 214.251C427.147 213.322 426.909 212.608 426.432 212.107C425.956 211.583 425.122 211.321 423.931 211.321H421.179ZM418.964 219.647V202.102H423.609C425.539 202.102 426.921 202.507 427.754 203.317C428.612 204.127 429.041 205.27 429.041 206.747C429.041 207.581 428.898 208.296 428.612 208.891C428.35 209.487 427.885 209.975 427.218 210.356H427.254C428.017 210.69 428.541 211.226 428.827 211.964C429.112 212.703 429.255 213.513 429.255 214.394C429.255 216.276 428.767 217.622 427.79 218.432C426.837 219.242 425.432 219.647 423.573 219.647H418.964Z" fill="#1D2332"/>
<path d="M411.051 201.852C412.385 201.852 413.409 202.114 414.124 202.638C414.862 203.162 415.374 203.817 415.66 204.603C415.875 205.223 416.006 206.009 416.053 206.962C416.125 207.915 416.161 208.867 416.161 209.82V211.571C416.161 212.215 416.149 212.858 416.125 213.501C416.101 214.121 416.053 214.788 415.982 215.502C415.887 216.384 415.66 217.11 415.303 217.682C414.969 218.254 414.553 218.706 414.052 219.04C413.576 219.35 413.052 219.564 412.48 219.683C411.908 219.826 411.348 219.898 410.8 219.898C409.347 219.898 408.263 219.588 407.549 218.969C406.834 218.325 406.357 217.551 406.119 216.646C406.048 216.36 405.988 216.003 405.94 215.574C405.893 215.121 405.857 214.645 405.833 214.144C405.809 213.62 405.798 213.096 405.798 212.572C405.798 212.048 405.798 211.548 405.798 211.071C405.798 210.452 405.798 209.832 405.798 209.213C405.821 208.57 405.857 207.962 405.905 207.39C405.952 206.819 406 206.307 406.048 205.854C406.119 205.377 406.214 204.996 406.334 204.71C406.643 203.853 407.179 203.162 407.942 202.638C408.728 202.114 409.764 201.852 411.051 201.852ZM411.015 203.817C410.467 203.817 409.955 203.936 409.478 204.174C409.002 204.413 408.633 204.841 408.37 205.461C408.204 205.89 408.096 206.545 408.049 207.426C408.001 208.308 407.977 209.356 407.977 210.571V211.714C407.977 212.691 407.989 213.561 408.013 214.323C408.037 215.085 408.12 215.669 408.263 216.074C408.621 217.289 409.538 217.896 411.015 217.896C411.706 217.896 412.289 217.694 412.766 217.289C413.266 216.884 413.6 216.336 413.766 215.645C413.838 215.216 413.897 214.585 413.945 213.751C413.993 212.917 414.017 212.048 414.017 211.143C414.017 210.642 414.005 210.118 413.981 209.57C413.981 209.022 413.969 208.498 413.945 207.998C413.945 207.498 413.921 207.045 413.874 206.64C413.826 206.235 413.766 205.925 413.695 205.711C413.504 205.092 413.171 204.627 412.694 204.317C412.218 203.984 411.658 203.817 411.015 203.817Z" fill="#1D2332"/>
<path d="M398.206 203.96C397.276 203.96 396.55 204.27 396.026 204.889C395.502 205.485 395.24 206.271 395.24 207.248V214.359C395.24 215.312 395.466 216.122 395.919 216.789C396.395 217.432 397.134 217.754 398.134 217.754C399.516 217.754 400.385 217.075 400.743 215.717C400.862 215.216 400.933 214.514 400.957 213.608C401.005 212.679 401.029 211.679 401.029 210.607C401.029 209.487 401.005 208.522 400.957 207.712C400.933 206.902 400.85 206.259 400.707 205.782C400.516 205.115 400.219 204.651 399.814 204.389C399.409 204.103 398.873 203.96 398.206 203.96ZM398.849 201.852C399.23 201.852 399.647 201.911 400.1 202.03C400.576 202.126 401.017 202.328 401.422 202.638C401.827 202.924 402.184 203.352 402.494 203.924C402.827 204.472 403.042 205.199 403.137 206.104C403.208 206.843 403.244 207.593 403.244 208.355C403.244 209.094 403.244 209.88 403.244 210.714C403.244 212.024 403.22 213.239 403.173 214.359C403.125 215.455 402.958 216.396 402.672 217.182C402.387 217.968 401.934 218.611 401.315 219.111C400.719 219.612 399.826 219.862 398.634 219.862C397.801 219.862 397.098 219.695 396.526 219.362C395.978 219.004 395.573 218.599 395.311 218.147H395.24V226.544H393.096V202.102H395.24V203.603H395.311C395.716 203.055 396.169 202.626 396.669 202.316C397.169 202.006 397.896 201.852 398.849 201.852Z" fill="#1D2332"/>
<path d="M384.835 195.027C384.835 196.17 384.835 197.302 384.835 198.422C384.858 199.541 384.87 200.673 384.87 201.816C386.514 201.888 387.777 202.293 388.658 203.031C389.563 203.746 390.123 204.711 390.338 205.926C390.457 206.569 390.528 207.26 390.552 207.999C390.576 208.737 390.588 209.499 390.588 210.286C390.588 211.024 390.588 211.775 390.588 212.537C390.588 213.275 390.564 213.99 390.516 214.681C390.469 215.396 390.35 216.039 390.159 216.611C389.968 217.182 389.671 217.695 389.266 218.147C388.432 219.148 386.967 219.755 384.87 219.97C384.87 221.089 384.858 222.197 384.835 223.293C384.835 224.389 384.835 225.497 384.835 226.616H382.726V219.97C381.487 219.827 380.463 219.589 379.653 219.255C378.843 218.898 378.2 218.254 377.723 217.325C377.461 216.849 377.283 216.337 377.187 215.789C377.092 215.217 377.032 214.61 377.009 213.966C376.985 213.561 376.973 213.109 376.973 212.608C376.973 212.108 376.973 211.405 376.973 210.5C376.973 210 376.985 209.476 377.009 208.928C377.032 208.356 377.068 207.808 377.116 207.284C377.163 206.736 377.223 206.248 377.294 205.819C377.39 205.366 377.497 205.009 377.616 204.747C378.021 203.889 378.629 203.198 379.439 202.674C380.272 202.15 381.356 201.864 382.69 201.816V195.027H384.835ZM384.835 218.004C385.597 217.957 386.24 217.79 386.764 217.504C387.312 217.194 387.717 216.801 387.979 216.325C388.146 216.039 388.253 215.717 388.301 215.36C388.372 215.003 388.42 214.621 388.444 214.216L388.408 209.106C388.408 208.392 388.384 207.713 388.337 207.069C388.289 206.426 388.146 205.878 387.908 205.426C387.669 204.949 387.312 204.58 386.836 204.318C386.359 204.032 385.692 203.901 384.835 203.925V218.004ZM382.69 203.925C381.618 203.996 380.785 204.294 380.189 204.818C379.593 205.318 379.272 206.057 379.224 207.034C379.176 207.725 379.141 208.487 379.117 209.321C379.117 210.155 379.117 211 379.117 211.858C379.117 212.263 379.117 212.692 379.117 213.144C379.141 213.597 379.153 214.026 379.153 214.431C379.176 214.836 379.212 215.205 379.26 215.539C379.331 215.848 379.427 216.11 379.546 216.325C379.808 216.825 380.189 217.218 380.689 217.504C381.19 217.766 381.857 217.933 382.69 218.004V203.925Z" fill="#1D2332"/>
<path d="M371.981 219.647V206.104H371.945L365.548 219.647H363.44V202.102H365.584V215.609H365.62C366.692 213.37 367.752 211.119 368.8 208.855C369.848 206.568 370.909 204.317 371.981 202.102H374.196V219.647H371.981Z" fill="#1D2332"/>
<path d="M360.189 202.066V217.575H361.368V224.151H359.331V219.648H350.147V202.066H352.363V217.575H357.937V202.066H360.189Z" fill="#1D2332"/>
<path d="M332.54 204.031V209.499H335.078C336.221 209.499 337.031 209.26 337.508 208.784C337.984 208.308 338.222 207.617 338.222 206.711C338.222 205.83 337.96 205.163 337.436 204.71C336.912 204.258 336.042 204.031 334.827 204.031H332.54ZM332.54 211.321V217.61H335.113C335.828 217.61 336.4 217.527 336.829 217.36C337.281 217.194 337.627 216.955 337.865 216.646C338.127 216.336 338.294 215.979 338.365 215.574C338.461 215.169 338.508 214.728 338.508 214.251C338.508 213.322 338.27 212.608 337.793 212.107C337.317 211.583 336.483 211.321 335.292 211.321H332.54ZM330.325 219.647V202.102H334.97C336.9 202.102 338.282 202.507 339.116 203.317C339.973 204.127 340.402 205.27 340.402 206.747C340.402 207.581 340.259 208.296 339.973 208.891C339.711 209.487 339.247 209.975 338.58 210.356H338.615C339.378 210.69 339.902 211.226 340.188 211.964C340.474 212.703 340.617 213.513 340.617 214.394C340.617 216.276 340.128 217.622 339.151 218.432C338.198 219.242 336.793 219.647 334.935 219.647H330.325Z" fill="#1D2332"/>
<path d="M322.411 201.852C323.745 201.852 324.769 202.114 325.484 202.638C326.222 203.162 326.734 203.817 327.02 204.603C327.235 205.223 327.366 206.009 327.413 206.962C327.485 207.915 327.521 208.867 327.521 209.82V211.571C327.521 212.215 327.509 212.858 327.485 213.501C327.461 214.121 327.413 214.788 327.342 215.502C327.247 216.384 327.02 217.11 326.663 217.682C326.329 218.254 325.913 218.706 325.412 219.04C324.936 219.35 324.412 219.564 323.84 219.683C323.268 219.826 322.708 219.898 322.16 219.898C320.707 219.898 319.623 219.588 318.909 218.969C318.194 218.325 317.717 217.551 317.479 216.646C317.408 216.36 317.348 216.003 317.3 215.574C317.253 215.121 317.217 214.645 317.193 214.144C317.169 213.62 317.158 213.096 317.158 212.572C317.158 212.048 317.158 211.548 317.158 211.071C317.158 210.452 317.158 209.832 317.158 209.213C317.181 208.57 317.217 207.962 317.265 207.39C317.312 206.819 317.36 206.307 317.408 205.854C317.479 205.377 317.574 204.996 317.694 204.71C318.003 203.853 318.539 203.162 319.302 202.638C320.088 202.114 321.124 201.852 322.411 201.852ZM322.375 203.817C321.827 203.817 321.315 203.936 320.838 204.174C320.362 204.413 319.992 204.841 319.73 205.461C319.564 205.89 319.456 206.545 319.409 207.426C319.361 208.308 319.337 209.356 319.337 210.571V211.714C319.337 212.691 319.349 213.561 319.373 214.323C319.397 215.085 319.48 215.669 319.623 216.074C319.981 217.289 320.898 217.896 322.375 217.896C323.066 217.896 323.649 217.694 324.126 217.289C324.626 216.884 324.96 216.336 325.126 215.645C325.198 215.216 325.257 214.585 325.305 213.751C325.353 212.917 325.377 212.048 325.377 211.143C325.377 210.642 325.365 210.118 325.341 209.57C325.341 209.022 325.329 208.498 325.305 207.998C325.305 207.498 325.281 207.045 325.234 206.64C325.186 206.235 325.126 205.925 325.055 205.711C324.864 205.092 324.531 204.627 324.054 204.317C323.578 203.984 323.018 203.817 322.375 203.817Z" fill="#1D2332"/>
<path d="M309.567 203.96C308.638 203.96 307.911 204.27 307.387 204.889C306.863 205.485 306.601 206.271 306.601 207.248V214.359C306.601 215.312 306.827 216.122 307.28 216.789C307.756 217.432 308.495 217.754 309.495 217.754C310.877 217.754 311.747 217.075 312.104 215.717C312.223 215.216 312.295 214.514 312.318 213.608C312.366 212.679 312.39 211.679 312.39 210.607C312.39 209.487 312.366 208.522 312.318 207.712C312.295 206.902 312.211 206.259 312.068 205.782C311.878 205.115 311.58 204.651 311.175 204.389C310.77 204.103 310.234 203.96 309.567 203.96ZM310.21 201.852C310.591 201.852 311.008 201.911 311.461 202.03C311.937 202.126 312.378 202.328 312.783 202.638C313.188 202.924 313.545 203.352 313.855 203.924C314.189 204.472 314.403 205.199 314.498 206.104C314.57 206.843 314.605 207.593 314.605 208.355C314.605 209.094 314.605 209.88 314.605 210.714C314.605 212.024 314.582 213.239 314.534 214.359C314.486 215.455 314.32 216.396 314.034 217.182C313.748 217.968 313.295 218.611 312.676 219.111C312.08 219.612 311.187 219.862 309.996 219.862C309.162 219.862 308.459 219.695 307.887 219.362C307.339 219.004 306.934 218.599 306.672 218.147H306.601V226.544H304.457V202.102H306.601V203.603H306.672C307.077 203.055 307.53 202.626 308.03 202.316C308.53 202.006 309.257 201.852 310.21 201.852Z" fill="#1D2332"/>
<path d="M299.198 204.032V219.648H297.018V204.032H293.123V202.066H303.128V204.032H299.198Z" fill="#1D2332"/>
<path d="M289.189 219.648V211.608H283.614V219.648H281.399V202.066H283.614V209.678H289.189V202.066H291.476V219.648H289.189Z" fill="#1D2332"/>
<path d="M273.623 201.852C275.052 201.852 276.16 202.209 276.946 202.924C277.756 203.614 278.233 204.603 278.376 205.89C278.4 206.152 278.412 206.414 278.412 206.676C278.435 206.938 278.447 207.2 278.447 207.462V211.393H270.586C270.586 211.631 270.586 211.857 270.586 212.072C270.609 212.286 270.621 212.512 270.621 212.751C270.621 213.37 270.633 214.001 270.657 214.645C270.705 215.288 270.788 215.776 270.907 216.11C271.288 217.301 272.146 217.896 273.48 217.896C274.385 217.896 275.052 217.634 275.481 217.11C275.91 216.562 276.148 215.848 276.196 214.966L278.412 215.395C278.292 216.848 277.804 217.968 276.946 218.754C276.113 219.516 274.921 219.898 273.373 219.898C272.634 219.898 271.991 219.802 271.443 219.612C270.919 219.421 270.466 219.183 270.085 218.897C269.728 218.587 269.43 218.242 269.192 217.861C268.978 217.456 268.823 217.051 268.727 216.646C268.656 216.36 268.596 216.003 268.549 215.574C268.501 215.121 268.465 214.645 268.442 214.144C268.442 213.62 268.43 213.096 268.406 212.572C268.406 212.048 268.406 211.548 268.406 211.071C268.406 210.452 268.406 209.832 268.406 209.213C268.43 208.594 268.465 207.998 268.513 207.426C268.561 206.854 268.608 206.342 268.656 205.89C268.727 205.413 268.823 205.02 268.942 204.71C269.275 203.829 269.811 203.138 270.55 202.638C271.288 202.114 272.313 201.852 273.623 201.852ZM270.979 205.532C270.836 205.913 270.74 206.449 270.693 207.14C270.669 207.807 270.645 208.629 270.621 209.606H276.267V207.748C276.267 207.248 276.232 206.771 276.16 206.318C276.113 205.842 275.982 205.425 275.767 205.068C275.577 204.71 275.303 204.424 274.945 204.21C274.588 203.996 274.111 203.888 273.516 203.888C272.992 203.888 272.503 204.008 272.051 204.246C271.598 204.484 271.241 204.913 270.979 205.532Z" fill="#1D2332"/>
<path d="M265.334 194.776V217.575H266.584V224.329H264.619V219.648H254.22V194.776H256.4V217.575H263.118V194.776H265.334Z" fill="#1D2332"/>
<path d="M659.711 158.063C659.807 158.682 660.092 159.254 660.569 159.778C661.069 160.302 661.677 160.564 662.391 160.564C663.154 160.564 663.773 160.314 664.25 159.814C664.75 159.314 665.036 158.73 665.107 158.063H666.894C666.846 158.516 666.727 158.992 666.537 159.492C666.346 159.969 666.06 160.421 665.679 160.85C665.322 161.255 664.869 161.589 664.321 161.851C663.773 162.113 663.13 162.244 662.391 162.244C661.605 162.244 660.926 162.113 660.354 161.851C659.807 161.589 659.354 161.255 658.997 160.85C658.639 160.421 658.365 159.969 658.175 159.492C658.008 158.992 657.913 158.516 657.889 158.063H659.711ZM665.572 182.363V168.819H665.536L659.139 182.363H657.031V164.817H659.175V178.325H659.211C660.283 176.085 661.343 173.834 662.391 171.571C663.44 169.284 664.5 167.032 665.572 164.817H667.787V182.363H665.572Z" fill="#1D2332"/>
<path d="M649.361 164.567C650.791 164.567 651.898 164.925 652.684 165.639C653.494 166.33 653.971 167.319 654.114 168.605C654.138 168.867 654.15 169.13 654.15 169.392C654.173 169.654 654.185 169.916 654.185 170.178V174.109H646.324C646.324 174.347 646.324 174.573 646.324 174.788C646.348 175.002 646.359 175.228 646.359 175.466C646.359 176.086 646.371 176.717 646.395 177.36C646.443 178.004 646.526 178.492 646.645 178.826C647.026 180.017 647.884 180.612 649.218 180.612C650.124 180.612 650.791 180.35 651.219 179.826C651.648 179.278 651.886 178.564 651.934 177.682L654.15 178.111C654.03 179.564 653.542 180.684 652.684 181.47C651.851 182.232 650.66 182.613 649.111 182.613C648.373 182.613 647.729 182.518 647.181 182.328C646.657 182.137 646.205 181.899 645.823 181.613C645.466 181.303 645.168 180.958 644.93 180.577C644.716 180.172 644.561 179.767 644.465 179.362C644.394 179.076 644.334 178.718 644.287 178.29C644.239 177.837 644.203 177.36 644.18 176.86C644.18 176.336 644.168 175.812 644.144 175.288C644.144 174.764 644.144 174.263 644.144 173.787C644.144 173.168 644.144 172.548 644.144 171.929C644.168 171.309 644.203 170.714 644.251 170.142C644.299 169.57 644.346 169.058 644.394 168.605C644.465 168.129 644.561 167.736 644.68 167.426C645.013 166.545 645.549 165.854 646.288 165.354C647.026 164.829 648.051 164.567 649.361 164.567ZM646.717 168.248C646.574 168.629 646.479 169.165 646.431 169.856C646.407 170.523 646.383 171.345 646.359 172.322H652.006V170.464C652.006 169.963 651.97 169.487 651.898 169.034C651.851 168.558 651.72 168.141 651.505 167.784C651.315 167.426 651.041 167.14 650.683 166.926C650.326 166.711 649.85 166.604 649.254 166.604C648.73 166.604 648.241 166.723 647.789 166.962C647.336 167.2 646.979 167.629 646.717 168.248Z" fill="#1D2332"/>
<path d="M629.989 181.327C630.489 180.994 630.906 180.648 631.239 180.291C631.597 179.934 631.871 179.517 632.061 179.04C632.276 178.54 632.419 177.945 632.49 177.254C632.585 176.563 632.633 175.693 632.633 174.645V164.782H641.674V182.364H639.423V166.748H634.634V174.824C634.634 175.967 634.575 176.98 634.455 177.861C634.336 178.719 634.134 179.469 633.848 180.112C633.562 180.756 633.181 181.316 632.704 181.792C632.252 182.245 631.68 182.638 630.989 182.971L629.989 181.327Z" fill="#1D2332"/>
<path d="M623.678 164.567C625.108 164.567 626.215 164.925 627.002 165.639C627.812 166.33 628.288 167.319 628.431 168.605C628.455 168.867 628.467 169.13 628.467 169.392C628.49 169.654 628.502 169.916 628.502 170.178V174.109H620.641C620.641 174.347 620.641 174.573 620.641 174.788C620.665 175.002 620.677 175.228 620.677 175.466C620.677 176.086 620.688 176.717 620.712 177.36C620.76 178.004 620.843 178.492 620.962 178.826C621.344 180.017 622.201 180.612 623.535 180.612C624.441 180.612 625.108 180.35 625.536 179.826C625.965 179.278 626.203 178.564 626.251 177.682L628.467 178.111C628.348 179.564 627.859 180.684 627.002 181.47C626.168 182.232 624.977 182.613 623.428 182.613C622.69 182.613 622.046 182.518 621.498 182.328C620.974 182.137 620.522 181.899 620.14 181.613C619.783 181.303 619.485 180.958 619.247 180.577C619.033 180.172 618.878 179.767 618.783 179.362C618.711 179.076 618.652 178.718 618.604 178.29C618.556 177.837 618.521 177.36 618.497 176.86C618.497 176.336 618.485 175.812 618.461 175.288C618.461 174.764 618.461 174.263 618.461 173.787C618.461 173.168 618.461 172.548 618.461 171.929C618.485 171.309 618.521 170.714 618.568 170.142C618.616 169.57 618.663 169.058 618.711 168.605C618.783 168.129 618.878 167.736 618.997 167.426C619.33 166.545 619.866 165.854 620.605 165.354C621.344 164.829 622.368 164.567 623.678 164.567ZM621.034 168.248C620.891 168.629 620.796 169.165 620.748 169.856C620.724 170.523 620.7 171.345 620.677 172.322H626.323V170.464C626.323 169.963 626.287 169.487 626.215 169.034C626.168 168.558 626.037 168.141 625.822 167.784C625.632 167.426 625.358 167.14 625 166.926C624.643 166.711 624.167 166.604 623.571 166.604C623.047 166.604 622.559 166.723 622.106 166.962C621.653 167.2 621.296 167.629 621.034 168.248Z" fill="#1D2332"/>
<path d="M614.39 166.748V182.364H612.21V166.748H608.315V164.782H618.32V166.748H614.39Z" fill="#1D2332"/>
<path d="M604.466 182.363V168.82H604.431L598.034 182.363H595.926V164.817H598.07V178.325H598.106C599.178 176.086 600.238 173.834 601.286 171.571C602.334 169.284 603.394 167.033 604.466 164.817H606.682V182.363H604.466Z" fill="#1D2332"/>
<path d="M582.095 186.866H580.058V180.577L581.165 180.398C581.475 180.065 581.725 179.731 581.916 179.398C582.106 179.064 582.261 178.671 582.38 178.219C582.523 177.742 582.619 177.17 582.666 176.503C582.738 175.836 582.785 174.979 582.809 173.93L583.059 164.782H592.493V180.398H593.744V186.866H591.707V182.364H582.095V186.866ZM590.278 166.748H585.132L584.882 174.109C584.834 175.61 584.715 176.884 584.525 177.933C584.358 178.957 584.072 179.779 583.667 180.398H590.278V166.748Z" fill="#1D2332"/>
<path d="M573.601 164.567C574.936 164.567 575.96 164.829 576.675 165.354C577.413 165.878 577.925 166.533 578.211 167.319C578.426 167.938 578.557 168.725 578.604 169.677C578.676 170.63 578.712 171.583 578.712 172.536V174.287C578.712 174.93 578.7 175.574 578.676 176.217C578.652 176.836 578.604 177.503 578.533 178.218C578.438 179.1 578.211 179.826 577.854 180.398C577.52 180.97 577.103 181.422 576.603 181.756C576.127 182.066 575.603 182.28 575.031 182.399C574.459 182.542 573.899 182.613 573.351 182.613C571.898 182.613 570.814 182.304 570.099 181.684C569.385 181.041 568.908 180.267 568.67 179.362C568.599 179.076 568.539 178.718 568.491 178.29C568.444 177.837 568.408 177.36 568.384 176.86C568.36 176.336 568.348 175.812 568.348 175.288C568.348 174.764 568.348 174.263 568.348 173.787C568.348 173.168 568.348 172.548 568.348 171.929C568.372 171.286 568.408 170.678 568.456 170.106C568.503 169.535 568.551 169.022 568.599 168.57C568.67 168.093 568.765 167.712 568.884 167.426C569.194 166.569 569.73 165.878 570.493 165.354C571.279 164.829 572.315 164.567 573.601 164.567ZM573.566 166.533C573.018 166.533 572.506 166.652 572.029 166.89C571.553 167.128 571.183 167.557 570.921 168.177C570.755 168.605 570.647 169.261 570.6 170.142C570.552 171.023 570.528 172.072 570.528 173.287V174.43C570.528 175.407 570.54 176.276 570.564 177.039C570.588 177.801 570.671 178.385 570.814 178.79C571.171 180.005 572.089 180.612 573.566 180.612C574.257 180.612 574.84 180.41 575.317 180.005C575.817 179.6 576.151 179.052 576.317 178.361C576.389 177.932 576.448 177.301 576.496 176.467C576.544 175.633 576.567 174.764 576.567 173.858C576.567 173.358 576.556 172.834 576.532 172.286C576.532 171.738 576.52 171.214 576.496 170.714C576.496 170.213 576.472 169.761 576.424 169.356C576.377 168.951 576.317 168.641 576.246 168.427C576.055 167.807 575.722 167.343 575.245 167.033C574.769 166.7 574.209 166.533 573.566 166.533Z" fill="#1D2332"/>
<path d="M557.767 166.747V172.214H560.304C561.448 172.214 562.258 171.976 562.734 171.5C563.211 171.023 563.449 170.332 563.449 169.427C563.449 168.546 563.187 167.879 562.663 167.426C562.139 166.973 561.269 166.747 560.054 166.747H557.767ZM557.767 174.037V180.326H560.34C561.055 180.326 561.626 180.243 562.055 180.076C562.508 179.909 562.853 179.671 563.091 179.361C563.354 179.052 563.52 178.694 563.592 178.289C563.687 177.884 563.735 177.444 563.735 176.967C563.735 176.038 563.496 175.323 563.02 174.823C562.544 174.299 561.71 174.037 560.519 174.037H557.767ZM555.551 182.363V164.817H560.197C562.127 164.817 563.508 165.222 564.342 166.032C565.2 166.842 565.629 167.986 565.629 169.463C565.629 170.297 565.486 171.011 565.2 171.607C564.938 172.203 564.473 172.691 563.806 173.072H563.842C564.604 173.406 565.128 173.942 565.414 174.68C565.7 175.419 565.843 176.229 565.843 177.11C565.843 178.992 565.355 180.338 564.378 181.148C563.425 181.958 562.019 182.363 560.161 182.363H555.551Z" fill="#1D2332"/>
<path d="M547.638 164.567C548.972 164.567 549.997 164.829 550.711 165.354C551.45 165.878 551.962 166.533 552.248 167.319C552.462 167.938 552.593 168.725 552.641 169.677C552.713 170.63 552.748 171.583 552.748 172.536V174.287C552.748 174.93 552.736 175.574 552.713 176.217C552.689 176.836 552.641 177.503 552.57 178.218C552.474 179.1 552.248 179.826 551.891 180.398C551.557 180.97 551.14 181.422 550.64 181.756C550.164 182.066 549.639 182.28 549.068 182.399C548.496 182.542 547.936 182.613 547.388 182.613C545.935 182.613 544.851 182.304 544.136 181.684C543.422 181.041 542.945 180.267 542.707 179.362C542.635 179.076 542.576 178.718 542.528 178.29C542.481 177.837 542.445 177.36 542.421 176.86C542.397 176.336 542.385 175.812 542.385 175.288C542.385 174.764 542.385 174.263 542.385 173.787C542.385 173.168 542.385 172.548 542.385 171.929C542.409 171.286 542.445 170.678 542.492 170.106C542.54 169.535 542.588 169.022 542.635 168.57C542.707 168.093 542.802 167.712 542.921 167.426C543.231 166.569 543.767 165.878 544.529 165.354C545.316 164.829 546.352 164.567 547.638 164.567ZM547.603 166.533C547.055 166.533 546.542 166.652 546.066 166.89C545.589 167.128 545.22 167.557 544.958 168.177C544.791 168.605 544.684 169.261 544.637 170.142C544.589 171.023 544.565 172.072 544.565 173.287V174.43C544.565 175.407 544.577 176.276 544.601 177.039C544.625 177.801 544.708 178.385 544.851 178.79C545.208 180.005 546.126 180.612 547.603 180.612C548.293 180.612 548.877 180.41 549.354 180.005C549.854 179.6 550.187 179.052 550.354 178.361C550.426 177.932 550.485 177.301 550.533 176.467C550.58 175.633 550.604 174.764 550.604 173.858C550.604 173.358 550.592 172.834 550.569 172.286C550.569 171.738 550.557 171.214 550.533 170.714C550.533 170.213 550.509 169.761 550.461 169.356C550.414 168.951 550.354 168.641 550.283 168.427C550.092 167.807 549.759 167.343 549.282 167.033C548.806 166.7 548.246 166.533 547.603 166.533Z" fill="#1D2332"/>
<path d="M529.65 182.363V164.817H531.866V172.572H533.617C533.927 172.572 534.248 172.548 534.582 172.5C534.915 172.429 535.237 172.31 535.547 172.143C535.856 171.952 536.13 171.69 536.368 171.357C536.631 171.023 536.833 170.571 536.976 169.999L538.37 164.817H540.478L539.12 169.892C538.882 170.749 538.572 171.476 538.191 172.072C537.81 172.643 537.298 173.024 536.654 173.215C537.464 173.406 538.048 173.811 538.405 174.43C538.763 175.049 539.061 175.788 539.299 176.646L540.8 182.363H538.62L537.333 177.217C537.19 176.646 537 176.181 536.762 175.824C536.547 175.443 536.297 175.157 536.011 174.966C535.725 174.752 535.404 174.609 535.046 174.537C534.713 174.466 534.355 174.43 533.974 174.43H531.866V182.363H529.65Z" fill="#1D2332"/>
<path d="M522.641 179.076C522.903 177.932 523.165 176.741 523.427 175.502C523.689 174.239 523.951 173.036 524.213 171.893L525.929 164.817H528.144L522.856 185.436C522.713 185.96 522.534 186.461 522.32 186.937C522.129 187.414 521.879 187.831 521.569 188.188C521.259 188.545 520.878 188.831 520.426 189.046C519.973 189.26 519.425 189.367 518.782 189.367H517.96V187.473H518.532C519.246 187.473 519.782 187.223 520.14 186.723C520.497 186.223 520.795 185.436 521.033 184.364L521.533 182.399L516.852 164.817H519.175C519.508 166.104 519.818 167.39 520.104 168.677C520.39 169.939 520.688 171.214 520.997 172.5C521.116 173.001 521.247 173.56 521.39 174.18C521.533 174.775 521.676 175.383 521.819 176.002C521.962 176.598 522.093 177.17 522.212 177.718C522.355 178.266 522.462 178.718 522.534 179.076H522.641Z" fill="#1D2332"/>
<path d="M510.262 166.676C509.332 166.676 508.606 166.985 508.082 167.605C507.558 168.2 507.296 168.987 507.296 169.963V177.075C507.296 178.027 507.522 178.837 507.975 179.505C508.451 180.148 509.189 180.469 510.19 180.469C511.572 180.469 512.441 179.79 512.799 178.432C512.918 177.932 512.989 177.229 513.013 176.324C513.061 175.395 513.085 174.394 513.085 173.322C513.085 172.203 513.061 171.238 513.013 170.428C512.989 169.618 512.906 168.975 512.763 168.498C512.572 167.831 512.275 167.367 511.87 167.105C511.465 166.819 510.929 166.676 510.262 166.676ZM510.905 164.567C511.286 164.567 511.703 164.627 512.155 164.746C512.632 164.841 513.073 165.044 513.478 165.354C513.883 165.639 514.24 166.068 514.55 166.64C514.883 167.188 515.098 167.915 515.193 168.82C515.264 169.558 515.3 170.309 515.3 171.071C515.3 171.81 515.3 172.596 515.3 173.43C515.3 174.74 515.276 175.955 515.229 177.075C515.181 178.17 515.014 179.111 514.728 179.898C514.443 180.684 513.99 181.327 513.37 181.827C512.775 182.328 511.882 182.578 510.69 182.578C509.857 182.578 509.154 182.411 508.582 182.077C508.034 181.72 507.629 181.315 507.367 180.862H507.296V189.26H505.151V164.818H507.296V166.318H507.367C507.772 165.77 508.225 165.342 508.725 165.032C509.225 164.722 509.952 164.567 510.905 164.567Z" fill="#1D2332"/>
<path d="M485.61 169.892C485.61 168.344 486.039 167.105 486.897 166.176C487.778 165.247 489.196 164.782 491.149 164.782H495.795V182.364H493.579V174.609H491.399C490.661 174.609 490.053 174.8 489.577 175.181C489.124 175.538 488.767 176.277 488.505 177.397L487.325 182.364H485.11L486.539 176.825C486.682 176.205 486.897 175.634 487.183 175.11C487.468 174.585 487.873 174.204 488.397 173.966C487.397 173.633 486.682 173.12 486.253 172.429C485.825 171.715 485.61 170.869 485.61 169.892ZM491.435 166.748C490.101 166.748 489.172 167.057 488.648 167.677C488.124 168.272 487.861 169.047 487.861 170C487.861 170.905 488.147 171.584 488.719 172.036C489.315 172.489 490.172 172.715 491.292 172.715H493.579V166.748H491.435Z" fill="#1D2332"/>
<path d="M480.511 182.363V168.82H480.475L474.079 182.363H471.971V164.817H474.115V178.325H474.15C475.222 176.086 476.283 173.834 477.331 171.571C478.379 169.284 479.439 167.033 480.511 164.817H482.727V182.363H480.511Z" fill="#1D2332"/>
<path d="M466.571 182.364V174.323H460.997V182.364H458.781V164.782H460.997V172.394H466.571V164.782H468.858V182.364H466.571Z" fill="#1D2332"/>
<path d="M445.898 167.891C446.207 166.866 446.779 166.056 447.613 165.461C448.447 164.865 449.507 164.567 450.793 164.567C452.342 164.567 453.533 164.925 454.367 165.639C455.225 166.33 455.653 167.557 455.653 169.32V182.363H453.438V180.791H453.402C452.878 181.53 452.282 182.018 451.615 182.256C450.972 182.471 450.281 182.578 449.543 182.578C448.78 182.578 448.137 182.435 447.613 182.149C447.113 181.863 446.696 181.494 446.362 181.041C446.053 180.565 445.826 180.029 445.683 179.433C445.54 178.837 445.469 178.218 445.469 177.575C445.469 176.908 445.54 176.241 445.683 175.574C445.826 174.907 446.088 174.311 446.469 173.787C446.851 173.239 447.351 172.798 447.97 172.465C448.59 172.107 449.388 171.929 450.365 171.929H453.473V169.356C453.473 168.522 453.283 167.855 452.902 167.355C452.521 166.854 451.782 166.604 450.686 166.604C450.162 166.604 449.614 166.759 449.042 167.069C448.494 167.355 448.137 167.843 447.97 168.534L445.898 167.891ZM450.865 173.858C449.96 173.858 449.185 174.132 448.542 174.68C447.923 175.204 447.613 176.134 447.613 177.468C447.613 178.373 447.816 179.111 448.22 179.683C448.649 180.231 449.364 180.505 450.365 180.505C451.318 180.505 452.068 180.243 452.616 179.719C453.188 179.195 453.473 178.432 453.473 177.432V173.858H450.865Z" fill="#1D2332"/>
<path d="M442.415 164.782V180.291H443.594V186.473H441.629V182.364H426.049V164.782H428.193V180.291H433.088V164.782H435.304V180.291H440.2V164.782H442.415Z" fill="#1D2332"/>
<path d="M418.237 164.567C419.667 164.567 420.775 164.925 421.561 165.639C422.371 166.33 422.847 167.319 422.99 168.605C423.014 168.867 423.026 169.13 423.026 169.392C423.05 169.654 423.062 169.916 423.062 170.178V174.109H415.2C415.2 174.347 415.2 174.573 415.2 174.788C415.224 175.002 415.236 175.228 415.236 175.466C415.236 176.086 415.248 176.717 415.271 177.36C415.319 178.004 415.402 178.492 415.522 178.826C415.903 180.017 416.76 180.612 418.094 180.612C419 180.612 419.667 180.35 420.096 179.826C420.524 179.278 420.763 178.564 420.81 177.682L423.026 178.111C422.907 179.564 422.418 180.684 421.561 181.47C420.727 182.232 419.536 182.613 417.987 182.613C417.249 182.613 416.606 182.518 416.058 182.328C415.533 182.137 415.081 181.899 414.7 181.613C414.342 181.303 414.045 180.958 413.806 180.577C413.592 180.172 413.437 179.767 413.342 179.362C413.27 179.076 413.211 178.718 413.163 178.29C413.115 177.837 413.08 177.36 413.056 176.86C413.056 176.336 413.044 175.812 413.02 175.288C413.02 174.764 413.02 174.263 413.02 173.787C413.02 173.168 413.02 172.548 413.02 171.929C413.044 171.309 413.08 170.714 413.127 170.142C413.175 169.57 413.223 169.058 413.27 168.605C413.342 168.129 413.437 167.736 413.556 167.426C413.89 166.545 414.426 165.854 415.164 165.354C415.903 164.829 416.927 164.567 418.237 164.567ZM415.593 168.248C415.45 168.629 415.355 169.165 415.307 169.856C415.283 170.523 415.26 171.345 415.236 172.322H420.882V170.464C420.882 169.963 420.846 169.487 420.775 169.034C420.727 168.558 420.596 168.141 420.382 167.784C420.191 167.426 419.917 167.14 419.56 166.926C419.202 166.711 418.726 166.604 418.13 166.604C417.606 166.604 417.118 166.723 416.665 166.962C416.212 167.2 415.855 167.629 415.593 168.248Z" fill="#1D2332"/>
<path d="M402.474 166.747V172.214H405.011C406.155 172.214 406.965 171.976 407.441 171.5C407.918 171.023 408.156 170.332 408.156 169.427C408.156 168.546 407.894 167.879 407.37 167.426C406.846 166.973 405.976 166.747 404.761 166.747H402.474ZM402.474 174.037V180.326H405.047C405.762 180.326 406.333 180.243 406.762 180.076C407.215 179.909 407.56 179.671 407.798 179.361C408.061 179.052 408.227 178.694 408.299 178.289C408.394 177.884 408.442 177.444 408.442 176.967C408.442 176.038 408.203 175.323 407.727 174.823C407.251 174.299 406.417 174.037 405.226 174.037H402.474ZM400.258 182.363V164.817H404.904C406.834 164.817 408.215 165.222 409.049 166.032C409.907 166.842 410.336 167.986 410.336 169.463C410.336 170.297 410.193 171.011 409.907 171.607C409.645 172.203 409.18 172.691 408.513 173.072H408.549C409.311 173.406 409.835 173.942 410.121 174.68C410.407 175.419 410.55 176.229 410.55 177.11C410.55 178.992 410.062 180.338 409.085 181.148C408.132 181.958 406.726 182.363 404.868 182.363H400.258Z" fill="#1D2332"/>
<path d="M392.345 164.567C393.679 164.567 394.704 164.829 395.419 165.354C396.157 165.878 396.669 166.533 396.955 167.319C397.17 167.938 397.301 168.725 397.348 169.677C397.42 170.63 397.455 171.583 397.455 172.536V174.287C397.455 174.93 397.443 175.574 397.42 176.217C397.396 176.836 397.348 177.503 397.277 178.218C397.181 179.1 396.955 179.826 396.598 180.398C396.264 180.97 395.847 181.422 395.347 181.756C394.871 182.066 394.346 182.28 393.775 182.399C393.203 182.542 392.643 182.613 392.095 182.613C390.642 182.613 389.558 182.304 388.843 181.684C388.129 181.041 387.652 180.267 387.414 179.362C387.342 179.076 387.283 178.718 387.235 178.29C387.188 177.837 387.152 177.36 387.128 176.86C387.104 176.336 387.092 175.812 387.092 175.288C387.092 174.764 387.092 174.263 387.092 173.787C387.092 173.168 387.092 172.548 387.092 171.929C387.116 171.286 387.152 170.678 387.2 170.106C387.247 169.535 387.295 169.022 387.342 168.57C387.414 168.093 387.509 167.712 387.628 167.426C387.938 166.569 388.474 165.878 389.236 165.354C390.023 164.829 391.059 164.567 392.345 164.567ZM392.31 166.533C391.762 166.533 391.249 166.652 390.773 166.89C390.297 167.128 389.927 167.557 389.665 168.177C389.498 168.605 389.391 169.261 389.344 170.142C389.296 171.023 389.272 172.072 389.272 173.287V174.43C389.272 175.407 389.284 176.276 389.308 177.039C389.332 177.801 389.415 178.385 389.558 178.79C389.915 180.005 390.833 180.612 392.31 180.612C393 180.612 393.584 180.41 394.061 180.005C394.561 179.6 394.894 179.052 395.061 178.361C395.133 177.932 395.192 177.301 395.24 176.467C395.287 175.633 395.311 174.764 395.311 173.858C395.311 173.358 395.299 172.834 395.276 172.286C395.276 171.738 395.264 171.214 395.24 170.714C395.24 170.213 395.216 169.761 395.168 169.356C395.121 168.951 395.061 168.641 394.99 168.427C394.799 167.807 394.466 167.343 393.989 167.033C393.513 166.7 392.953 166.533 392.31 166.533Z" fill="#1D2332"/>
<path d="M380.409 164.567C382.053 164.567 383.256 164.996 384.018 165.854C384.78 166.711 385.161 167.915 385.161 169.463L382.91 169.785V169.749C383.005 168.82 382.803 168.057 382.303 167.462C381.826 166.842 381.159 166.533 380.302 166.533C379.754 166.533 379.253 166.664 378.801 166.926C378.372 167.188 378.038 167.617 377.8 168.212C377.609 168.665 377.49 169.415 377.443 170.464C377.419 171.512 377.395 172.751 377.371 174.18C377.395 175.109 377.419 176.003 377.443 176.86C377.467 177.718 377.538 178.361 377.657 178.79C377.848 179.362 378.157 179.814 378.586 180.148C379.015 180.481 379.575 180.648 380.266 180.648C381.123 180.648 381.779 180.386 382.231 179.862C382.708 179.338 382.934 178.54 382.91 177.468L385.161 177.861C385.09 181.029 383.422 182.613 380.159 182.613C379.444 182.613 378.813 182.53 378.265 182.363C377.741 182.173 377.288 181.923 376.907 181.613C376.549 181.303 376.252 180.958 376.013 180.577C375.799 180.195 375.644 179.79 375.549 179.362C375.477 179.076 375.418 178.718 375.37 178.29C375.322 177.837 375.287 177.36 375.263 176.86C375.263 176.336 375.251 175.812 375.227 175.288C375.227 174.764 375.227 174.263 375.227 173.787C375.227 173.168 375.227 172.536 375.227 171.893C375.251 171.25 375.287 170.642 375.334 170.071C375.382 169.499 375.43 168.987 375.477 168.534C375.549 168.057 375.644 167.676 375.763 167.39C376.073 166.533 376.597 165.854 377.336 165.354C378.098 164.829 379.122 164.567 380.409 164.567Z" fill="#1D2332"/>
<path d="M361.354 164.567C362.784 164.567 363.891 164.925 364.678 165.639C365.488 166.33 365.964 167.319 366.107 168.605C366.131 168.867 366.143 169.13 366.143 169.392C366.167 169.654 366.178 169.916 366.178 170.178V174.109H358.317C358.317 174.347 358.317 174.573 358.317 174.788C358.341 175.002 358.353 175.228 358.353 175.466C358.353 176.086 358.364 176.717 358.388 177.36C358.436 178.004 358.519 178.492 358.638 178.826C359.02 180.017 359.877 180.612 361.211 180.612C362.117 180.612 362.784 180.35 363.213 179.826C363.641 179.278 363.88 178.564 363.927 177.682L366.143 178.111C366.024 179.564 365.535 180.684 364.678 181.47C363.844 182.232 362.653 182.613 361.104 182.613C360.366 182.613 359.722 182.518 359.174 182.328C358.65 182.137 358.198 181.899 357.817 181.613C357.459 181.303 357.161 180.958 356.923 180.577C356.709 180.172 356.554 179.767 356.459 179.362C356.387 179.076 356.328 178.718 356.28 178.29C356.232 177.837 356.197 177.36 356.173 176.86C356.173 176.336 356.161 175.812 356.137 175.288C356.137 174.764 356.137 174.263 356.137 173.787C356.137 173.168 356.137 172.548 356.137 171.929C356.161 171.309 356.197 170.714 356.244 170.142C356.292 169.57 356.34 169.058 356.387 168.605C356.459 168.129 356.554 167.736 356.673 167.426C357.007 166.545 357.543 165.854 358.281 165.354C359.02 164.829 360.044 164.567 361.354 164.567ZM358.71 168.248C358.567 168.629 358.472 169.165 358.424 169.856C358.4 170.523 358.376 171.345 358.353 172.322H363.999V170.464C363.999 169.963 363.963 169.487 363.891 169.034C363.844 168.558 363.713 168.141 363.498 167.784C363.308 167.426 363.034 167.14 362.676 166.926C362.319 166.711 361.843 166.604 361.247 166.604C360.723 166.604 360.235 166.723 359.782 166.962C359.329 167.2 358.972 167.629 358.71 168.248Z" fill="#1D2332"/>
<path d="M341.579 180.291H343.651C344.39 180.291 344.985 180.196 345.438 180.005C345.914 179.815 346.284 179.565 346.546 179.255C346.808 178.945 346.986 178.6 347.082 178.219C347.177 177.814 347.225 177.409 347.225 177.004C347.225 176.551 347.165 176.146 347.046 175.789C346.927 175.407 346.724 175.086 346.438 174.824C346.176 174.538 345.807 174.323 345.331 174.18C344.878 174.014 344.294 173.93 343.58 173.93H341.579V180.291ZM350.977 182.364V164.782H353.228V182.364H350.977ZM339.327 182.364V164.782H341.579V171.858H343.687C344.854 171.858 345.807 172.001 346.546 172.287C347.284 172.549 347.868 172.918 348.297 173.394C348.726 173.847 349.023 174.383 349.19 175.002C349.357 175.598 349.44 176.241 349.44 176.932C349.44 177.718 349.357 178.445 349.19 179.112C349.023 179.779 348.726 180.363 348.297 180.863C347.892 181.339 347.32 181.709 346.581 181.971C345.867 182.233 344.938 182.364 343.794 182.364H339.327Z" fill="#1D2332"/>
<path d="M333.893 182.364V174.323H328.318V182.364H326.103V164.782H328.318V172.394H333.893V164.782H336.18V182.364H333.893Z" fill="#1D2332"/>
<path d="M313.258 182.363V174.43H311.615C311.21 174.43 310.828 174.466 310.471 174.537C310.138 174.609 309.828 174.752 309.542 174.966C309.256 175.157 309.006 175.443 308.792 175.824C308.577 176.181 308.398 176.646 308.256 177.217L306.969 182.363H304.789L306.29 176.646C306.528 175.788 306.826 175.049 307.184 174.43C307.541 173.811 308.125 173.406 308.935 173.215C308.291 173.024 307.779 172.643 307.398 172.072C307.017 171.476 306.707 170.749 306.469 169.892L305.111 164.817H307.219L308.613 169.999C308.756 170.571 308.946 171.023 309.185 171.357C309.447 171.69 309.733 171.952 310.042 172.143C310.352 172.31 310.662 172.429 310.971 172.5C311.305 172.548 311.638 172.572 311.972 172.572H313.258V164.817H315.438V172.572H316.725C317.034 172.572 317.356 172.548 317.69 172.5C318.023 172.429 318.345 172.31 318.654 172.143C318.964 171.952 319.238 171.69 319.476 171.357C319.738 171.023 319.941 170.571 320.084 169.999L321.477 164.817H323.586L322.228 169.892C321.99 170.749 321.68 171.476 321.299 172.072C320.918 172.643 320.405 173.024 319.762 173.215C320.572 173.406 321.156 173.811 321.513 174.43C321.871 175.049 322.168 175.788 322.407 176.646L323.907 182.363H321.728L320.441 177.217C320.298 176.646 320.108 176.181 319.869 175.824C319.655 175.443 319.405 175.157 319.119 174.966C318.833 174.752 318.511 174.609 318.154 174.537C317.821 174.466 317.463 174.43 317.082 174.43H315.438V182.363H313.258Z" fill="#1D2332"/>
<path d="M298.565 179.076C298.827 177.932 299.089 176.741 299.351 175.502C299.613 174.239 299.875 173.036 300.137 171.893L301.852 164.817H304.068L298.779 185.436C298.636 185.96 298.457 186.461 298.243 186.937C298.052 187.414 297.802 187.831 297.493 188.188C297.183 188.545 296.802 188.831 296.349 189.046C295.896 189.26 295.348 189.367 294.705 189.367H293.883V187.473H294.455C295.17 187.473 295.706 187.223 296.063 186.723C296.42 186.223 296.718 185.436 296.957 184.364L297.457 182.399L292.776 164.817H295.098C295.432 166.104 295.742 167.39 296.027 168.677C296.313 169.939 296.611 171.214 296.921 172.5C297.04 173.001 297.171 173.56 297.314 174.18C297.457 174.775 297.6 175.383 297.743 176.002C297.886 176.598 298.017 177.17 298.136 177.718C298.279 178.266 298.386 178.718 298.457 179.076H298.565Z" fill="#1D2332"/>
<path d="M286.186 166.676C285.257 166.676 284.53 166.985 284.006 167.605C283.482 168.2 283.22 168.987 283.22 169.963V177.075C283.22 178.027 283.447 178.837 283.899 179.505C284.376 180.148 285.114 180.469 286.115 180.469C287.496 180.469 288.366 179.79 288.723 178.432C288.842 177.932 288.914 177.229 288.938 176.324C288.985 175.395 289.009 174.394 289.009 173.322C289.009 172.203 288.985 171.238 288.938 170.428C288.914 169.618 288.831 168.975 288.688 168.498C288.497 167.831 288.199 167.367 287.794 167.105C287.389 166.819 286.853 166.676 286.186 166.676ZM286.829 164.567C287.211 164.567 287.627 164.627 288.08 164.746C288.557 164.841 288.997 165.044 289.402 165.354C289.807 165.639 290.165 166.068 290.474 166.64C290.808 167.188 291.022 167.915 291.118 168.82C291.189 169.558 291.225 170.309 291.225 171.071C291.225 171.81 291.225 172.596 291.225 173.43C291.225 174.74 291.201 175.955 291.153 177.075C291.106 178.17 290.939 179.111 290.653 179.898C290.367 180.684 289.915 181.327 289.295 181.827C288.7 182.328 287.806 182.578 286.615 182.578C285.781 182.578 285.078 182.411 284.507 182.077C283.959 181.72 283.554 181.315 283.292 180.862H283.22V189.26H281.076V164.818H283.22V166.318H283.292C283.697 165.77 284.149 165.342 284.65 165.032C285.15 164.722 285.876 164.567 286.829 164.567Z" fill="#1D2332"/>
<path d="M268.271 182.363V164.817H270.486V172.572H272.237C272.547 172.572 272.868 172.548 273.202 172.5C273.535 172.429 273.857 172.31 274.167 172.143C274.477 171.952 274.75 171.69 274.989 171.357C275.251 171.023 275.453 170.571 275.596 169.999L276.99 164.817H279.098L277.74 169.892C277.502 170.749 277.192 171.476 276.811 172.072C276.43 172.643 275.918 173.024 275.275 173.215C276.085 173.406 276.668 173.811 277.026 174.43C277.383 175.049 277.681 175.788 277.919 176.646L279.42 182.363H277.24L275.954 177.217C275.811 176.646 275.62 176.181 275.382 175.824C275.167 175.443 274.917 175.157 274.631 174.966C274.345 174.752 274.024 174.609 273.667 174.537C273.333 174.466 272.976 174.43 272.594 174.43H270.486V182.363H268.271Z" fill="#1D2332"/>
<path d="M265.298 176.217C265.298 178.313 264.821 179.909 263.868 181.005C262.939 182.077 261.522 182.613 259.616 182.613C257.71 182.613 256.293 182.101 255.363 181.077C254.458 180.052 254.006 178.623 254.006 176.789V163.71C254.006 162.828 254.101 161.994 254.291 161.208C254.482 160.422 254.792 159.743 255.221 159.171C255.673 158.576 256.257 158.111 256.972 157.778C257.71 157.444 258.603 157.277 259.652 157.277C260.724 157.277 261.617 157.432 262.332 157.742C263.07 158.028 263.654 158.457 264.083 159.028C264.512 159.576 264.821 160.243 265.012 161.029C265.202 161.792 265.298 162.649 265.298 163.602V176.217ZM263.082 163.281C263.082 162.757 263.023 162.256 262.904 161.78C262.784 161.303 262.594 160.887 262.332 160.529C262.07 160.148 261.712 159.85 261.26 159.636C260.831 159.398 260.295 159.278 259.652 159.278C258.961 159.278 258.389 159.433 257.936 159.743C257.484 160.029 257.126 160.398 256.864 160.851C256.602 161.303 256.412 161.804 256.293 162.352C256.197 162.876 256.15 163.376 256.15 163.853V176.824C256.15 177.301 256.209 177.765 256.328 178.218C256.471 178.671 256.674 179.076 256.936 179.433C257.222 179.79 257.579 180.076 258.008 180.291C258.46 180.505 258.997 180.612 259.616 180.612C260.879 180.612 261.772 180.207 262.296 179.397C262.82 178.587 263.082 177.61 263.082 176.467V163.281Z" fill="#1D2332"/>
<path d="M267.147 77.7179H273.929V136.583H286.742V63.8232H254.334V136.583H267.147V77.7179Z" fill="#1D2332"/>
<path d="M312.457 63.189C307.233 63.189 303.164 64.6591 300.22 67.6283C297.277 70.5975 295.805 75.2099 295.805 81.4654V118.797C295.805 131.048 301.375 137.188 312.485 137.188C317.997 137.188 322.182 135.689 325.01 132.691C327.838 129.693 329.252 125.052 329.252 118.797V81.4654C329.252 75.1811 327.896 70.5687 325.154 67.6283C322.413 64.688 318.199 63.189 312.485 63.189H312.457ZM316.208 119.431C316.208 121.103 315.833 122.285 315.112 122.948C314.39 123.611 313.495 123.928 312.428 123.928C311.36 123.928 310.436 123.611 309.686 122.948C308.936 122.285 308.561 121.132 308.561 119.431V80.9465C308.561 79.3322 308.936 78.1791 309.686 77.4872C310.436 76.7954 311.36 76.4495 312.428 76.4495C313.495 76.4495 314.39 76.7954 315.112 77.4872C315.833 78.1791 316.208 79.3322 316.208 80.9465V119.431Z" fill="#1D2332"/>
<path d="M360.391 98.5312H360.68V136.583H373.493V63.8232H360.68L350.695 102.394H350.406V63.8232H337.795V136.583H350.319L360.391 98.5312Z" fill="#1D2332"/>
<path d="M411.153 131.913C413.981 128.396 415.424 123.755 415.482 117.961L402.813 116.087C402.755 118.595 402.323 120.469 401.543 121.737C400.764 122.977 399.754 123.611 398.484 123.611C396.868 123.611 395.829 123.15 395.397 122.256C394.964 121.363 394.733 120.411 394.733 119.431V82.3307C394.733 81.8406 394.79 81.264 394.906 80.601C395.021 79.938 395.252 79.3326 395.57 78.7849C395.887 78.2372 396.291 77.7471 396.839 77.3724C397.359 76.9976 398.052 76.7958 398.946 76.7958C400.245 76.7958 401.284 77.5165 402.063 78.929C402.842 80.3416 403.246 82.1577 403.333 84.3197L415.684 81.9271C415.742 81.5811 415.771 81.2352 415.771 80.947V79.9668C415.771 75.0086 414.414 71.0016 411.673 67.8882C408.931 64.7749 404.718 63.2471 399.004 63.2471C393.29 63.2471 388.932 64.9767 386.133 68.4648C383.334 71.9529 381.948 76.594 381.948 82.3595V118.855C381.948 124.995 383.305 129.578 385.989 132.663C388.701 135.719 393.001 137.275 398.888 137.275C404.227 137.275 408.296 135.517 411.124 132L411.153 131.913Z" fill="#1D2332"/>
<path d="M435.567 106.142H437.27C438.395 106.142 439.319 106.372 440.011 106.862C440.704 107.352 441.281 108.015 441.743 108.851C442.205 109.687 442.58 110.696 442.811 111.878C443.07 113.06 443.301 114.357 443.561 115.741L447.053 136.554H459.866L455.451 111.475C454.816 107.987 453.806 105.306 452.449 103.432C451.064 101.558 449.246 100.117 446.995 99.1366V98.733C448.756 97.897 450.372 96.4557 451.843 94.4089C453.315 92.3622 454.354 89.6236 454.902 86.1932L458.856 64.0251H446.707L443.215 84.2041C442.724 87.2021 441.916 89.5083 440.819 91.1515C439.723 92.7946 438.424 93.6018 436.923 93.6018H435.596V63.708H422.783V136.583H435.596V106.17L435.567 106.142Z" fill="#1D2332"/>
<path d="M512.126 68.3815C510.539 66.6807 508.606 65.4411 506.383 64.7204C504.161 63.9998 501.651 63.625 498.909 63.625H483.354V136.385H496.167V109.72H499.169C505.518 109.72 510.106 107.644 512.934 103.493C515.762 99.3419 517.177 93.5476 517.177 86.0814C517.177 81.7573 516.744 78.1539 515.849 75.2712C514.983 72.3885 513.742 70.0823 512.126 68.3815ZM504.363 91.1838C503.988 92.5098 503.498 93.5476 502.863 94.2971C502.228 95.0466 501.535 95.5367 500.756 95.7673C499.977 95.9979 499.169 96.142 498.361 96.142H496.196V77.2314H498.563C500.496 77.2314 502.055 77.8944 503.209 79.2205C504.363 80.5465 504.94 82.8239 504.94 86.0525C504.94 88.1569 504.738 89.8865 504.363 91.2126V91.1838Z" fill="#1D2332"/>
<path d="M523.671 136.385H553.713V122.807H536.484V106.289H551.549V92.6828H536.484V77.2314H553.713V63.625H523.671V136.385Z" fill="#1D2332"/>
<path d="M599.857 123.326H593.076V63.625H580.291V123.326H573.596V63.625H560.783V136.385H612.671V63.625H599.857V123.326Z" fill="#1D2332"/>
<path d="M622.108 136.385H652.15V122.807H634.921V106.289H649.985V92.6828H634.921V77.2314H652.15V63.625H622.108V136.385Z" fill="#1D2332"/>
<path d="M680.2 92.481H672.033V63.625H659.219V136.385H672.033V106.289H680.2V136.385H693.013V63.625H680.2V92.481Z" fill="#1D2332"/>
<path d="M714.888 102.196H714.6V63.625H701.96V136.385H714.484L724.585 98.3329H724.845V136.385H737.658V63.625H724.845L714.888 102.196Z" fill="#1D2332"/>
<path d="M769.114 63.625L759.157 102.196H758.869V63.625H746.229V136.385H758.782L768.854 98.3329H769.114V136.385H781.927V63.625H769.114Z" fill="#1D2332"/>
<path d="M753.731 56.2163C754.886 57.8306 756.358 59.1566 758.147 60.1944C759.936 61.2322 762.158 61.7511 764.784 61.7511C767.237 61.7511 769.344 61.2322 771.104 60.1944C772.865 59.1566 774.337 57.8306 775.491 56.2163C776.645 54.6019 777.54 52.8723 778.117 50.9986C778.723 49.1248 779.069 47.3375 779.214 45.6655H770.267C770.21 46.4439 770.065 47.251 769.835 48.1158C769.604 48.9807 769.257 49.7878 768.796 50.5085C768.334 51.2292 767.757 51.8634 767.093 52.3246C766.429 52.8147 765.679 53.0453 764.784 53.0453C764.034 53.0453 763.313 52.8147 762.62 52.3246C761.927 51.8345 761.321 51.2292 760.773 50.5085C760.225 49.7878 759.821 48.9807 759.503 48.1158C759.186 47.251 759.013 46.415 758.926 45.6655H750.153C750.211 47.3375 750.528 49.1248 751.105 50.9986C751.682 52.8723 752.519 54.6308 753.703 56.2163H753.731Z" fill="#1D2332"/>
<path d="M122.797 31.344L77.9803 150.698L92.058 155.973L136.874 36.6184L122.797 31.344Z" fill="#00A7E4"/>
<path d="M132.134 69.0703L156.722 93.6311L132.134 118.192L142.783 128.858L177.788 93.6311L142.783 58.4043L132.134 69.0703Z" fill="#00A7E4"/>
<path d="M58.3416 93.6311L82.9581 69.0703L72.2804 58.4043L37.3036 93.6311L72.2804 128.858L82.9581 118.192L58.3416 93.6311Z" fill="#00A7E4"/>
<path d="M117.57 0H53.8503L0 93.0829L53.8503 186.166H161.233L213.872 95.1585L215.084 93.0829L161.233 0H117.57ZM175.894 58.7209L181.175 67.9168L186.369 76.9397L190.323 83.8294L195.662 93.0829L190.323 102.336L189.255 104.181L184.061 113.204L151.652 169.504H63.4025L19.393 93.0829L53.9946 32.9783L63.0274 17.2963L63.4025 16.6621H151.681L170.699 49.7269L175.894 58.7498V58.7209Z" fill="#1D2332"/>
<path d="M163.368 192.277L159.069 200.522L188.476 248H197.797L201.981 239.9L172.978 192.277H163.368Z" fill="#1D2332"/>
</svg>
