<svg width="213" height="186" viewBox="0 0 213 186" fill="none" xmlns="http://www.w3.org/2000/svg">
<path d="M156.967 182.972H158.157L158.751 181.941L209.406 93.9841L209.998 92.957L209.406 91.9298L158.751 3.97283L158.157 2.94181H156.967H55.6557H54.4659L53.8721 3.97283L3.21645 91.9298L2.62488 92.957L3.21645 93.9841L53.8721 181.941L54.4659 182.972H55.6557H156.967Z" fill="#00AF9D" stroke="#1D2332" stroke-width="4.11638"/>
<g clip-path="url(#clip0_3979_1281)">
<path d="M114.547 131.53H97.4541C96.4888 131.53 95.7118 130.75 95.7118 129.782V95.4221C95.0761 95.6821 94.3934 95.8239 93.6635 95.8239H93.3103C90.2495 95.8239 87.7773 93.319 87.7773 90.2706V71.4367C87.7773 66.3324 91.9212 62.1733 97.0068 62.1733H115.018C120.104 62.1733 124.248 66.3324 124.248 71.4367V90.2706C124.248 93.3426 121.752 95.8239 118.715 95.8239H118.338C117.608 95.8239 116.925 95.6821 116.29 95.4221V129.782C116.29 130.75 115.513 131.53 114.547 131.53ZM99.1964 128.033H112.805V90.247C112.805 89.2781 113.582 88.4983 114.547 88.4983C115.513 88.4983 116.29 89.2781 116.29 90.247C116.29 91.3812 117.208 92.3029 118.338 92.3029H118.691C119.821 92.3029 120.74 91.3812 120.74 90.247V71.4131C120.74 68.2465 118.173 65.6707 115.018 65.6707H97.0068C93.8518 65.6707 91.2855 68.2465 91.2855 71.4131V90.247C91.2855 91.3812 92.2037 92.3029 93.3339 92.3029H93.687C94.8172 92.3029 95.7354 91.3812 95.7354 90.247C95.7354 89.2781 96.5124 88.4983 97.4777 88.4983C98.443 88.4983 99.22 89.2781 99.22 90.247V128.033H99.1964Z" fill="white"/>
<path d="M97.4532 92.0193C96.4879 92.0193 95.7109 91.2394 95.7109 90.2706V77.4626C95.7109 76.4937 96.4879 75.7139 97.4532 75.7139C98.4186 75.7139 99.1955 76.4937 99.1955 77.4626V90.2706C99.1955 91.2158 98.4186 92.0193 97.4532 92.0193Z" fill="white"/>
<path d="M114.547 92.0193C113.582 92.0193 112.805 91.2394 112.805 90.2706V77.4626C112.805 76.4937 113.582 75.7139 114.547 75.7139C115.512 75.7139 116.289 76.4937 116.289 77.4626V90.2706C116.289 91.2158 115.512 92.0193 114.547 92.0193Z" fill="white"/>
<path d="M106.001 61.1809C100.703 61.1809 96.3945 56.6437 96.3945 51.0904C96.3945 45.5372 100.703 41 106.001 41C111.298 41 115.607 45.5372 115.607 51.0904C115.607 56.6437 111.298 61.1809 106.001 61.1809ZM106.001 44.4974C102.634 44.4974 99.9027 47.4513 99.9027 51.0904C99.9027 54.7296 102.634 57.6835 106.001 57.6835C109.368 57.6835 112.099 54.7296 112.099 51.0904C112.099 47.4513 109.368 44.4974 106.001 44.4974Z" fill="white"/>
<path d="M106 131.53C105.035 131.53 104.258 130.75 104.258 129.782V100.692C104.258 99.7229 105.035 98.9431 106 98.9431C106.965 98.9431 107.742 99.7229 107.742 100.692V129.782C107.742 130.75 106.965 131.53 106 131.53Z" fill="white"/>
<path d="M142.448 131.53H127.851C126.885 131.53 126.108 130.75 126.108 129.782V100.834C125.638 100.975 125.143 101.07 124.625 101.07C123.66 101.07 122.883 100.29 122.883 99.3212C122.883 98.3524 123.66 97.5725 124.625 97.5725C125.449 97.5725 126.108 96.9109 126.108 96.0838C126.108 95.1149 126.885 94.3351 127.851 94.3351C128.816 94.3351 129.593 95.1149 129.593 96.0838V128.057H140.682V96.0601C140.682 95.0913 141.459 94.3115 142.425 94.3115C143.39 94.3115 144.167 95.0913 144.167 96.0601C144.167 96.8872 144.826 97.5489 145.65 97.5489H145.956C146.781 97.5489 147.44 96.8872 147.44 96.0601V79.9911C147.44 77.4389 145.368 75.3358 142.801 75.3358H127.427C126.462 75.3358 125.685 74.5559 125.685 73.5871C125.685 72.6182 126.462 71.8384 127.427 71.8384H142.825C147.298 71.8384 150.948 75.5012 150.948 79.9911V96.0601C150.948 98.825 148.711 101.07 145.956 101.07H145.65C145.132 101.07 144.638 100.999 144.167 100.834V129.782C144.191 130.75 143.414 131.53 142.448 131.53Z" fill="white"/>
<path d="M127.852 97.8089C126.886 97.8089 126.109 97.0291 126.109 96.0603V85.1427C126.109 84.1739 126.886 83.394 127.852 83.394C128.817 83.394 129.594 84.1739 129.594 85.1427V96.0603C129.594 97.0291 128.817 97.8089 127.852 97.8089Z" fill="white"/>
<path d="M142.445 97.8089C141.48 97.8089 140.703 97.0291 140.703 96.0603V85.1427C140.703 84.1739 141.48 83.394 142.445 83.394C143.411 83.394 144.188 84.1739 144.188 85.1427V96.0603C144.188 97.0291 143.411 97.8089 142.445 97.8089Z" fill="white"/>
<path d="M135.148 70.6805C130.486 70.6805 126.695 66.7105 126.695 61.8189C126.695 56.9273 130.486 52.9573 135.148 52.9573C139.81 52.9573 143.6 56.9273 143.6 61.8189C143.6 66.7105 139.81 70.6805 135.148 70.6805ZM135.148 56.4547C132.417 56.4547 130.203 58.865 130.203 61.8189C130.203 64.7728 132.417 67.1831 135.148 67.1831C137.879 67.1831 140.092 64.7728 140.092 61.8189C140.092 58.865 137.879 56.4547 135.148 56.4547Z" fill="white"/>
<path d="M135.149 131.53C134.183 131.53 133.406 130.751 133.406 129.782V104.945C133.406 103.977 134.183 103.197 135.149 103.197C136.114 103.197 136.891 103.977 136.891 104.945V129.782C136.891 130.751 136.114 131.53 135.149 131.53Z" fill="white"/>
<path d="M84.152 131.53H69.5544C68.589 131.53 67.8121 130.75 67.8121 129.782V100.834C67.3412 100.975 66.8467 101.07 66.3288 101.07H66.0227C63.268 101.07 61.0312 98.825 61.0312 96.0601V79.9911C61.0312 75.5012 64.6807 71.8384 69.1541 71.8384H84.5287C85.494 71.8384 86.271 72.6182 86.271 73.5871C86.271 74.5559 85.494 75.3358 84.5287 75.3358H69.1777C66.6348 75.3358 64.5394 77.4153 64.5394 79.9911V96.0601C64.5394 96.8872 65.1986 97.5489 66.0227 97.5489H66.3288C67.1528 97.5489 67.8121 96.8872 67.8121 96.0601C67.8121 95.0913 68.589 94.3115 69.5544 94.3115C70.5197 94.3115 71.2967 95.0913 71.2967 96.0601V128.033H82.3861V96.0601C82.3861 95.0913 83.1631 94.3115 84.1284 94.3115C85.0938 94.3115 85.8707 95.0913 85.8707 96.0601C85.8707 96.8872 86.53 97.5489 87.354 97.5489C88.3193 97.5489 89.0963 98.3287 89.0963 99.2976C89.0963 100.266 88.3193 101.046 87.354 101.046C86.836 101.046 86.3416 100.975 85.8707 100.81V129.758C85.8943 130.75 85.1173 131.53 84.152 131.53Z" fill="white"/>
<path d="M84.1525 97.8089C83.1871 97.8089 82.4102 97.0291 82.4102 96.0603V85.1427C82.4102 84.1739 83.1871 83.394 84.1525 83.394C85.1178 83.394 85.8947 84.1739 85.8947 85.1427V96.0603C85.8947 97.0291 85.1178 97.8089 84.1525 97.8089Z" fill="white"/>
<path d="M69.5548 97.8089C68.5895 97.8089 67.8125 97.0291 67.8125 96.0603V85.1427C67.8125 84.1739 68.5895 83.394 69.5548 83.394C70.5201 83.394 71.2971 84.1739 71.2971 85.1427V96.0603C71.2971 97.0291 70.5201 97.8089 69.5548 97.8089Z" fill="white"/>
<path d="M76.8509 70.6805C72.1891 70.6805 68.3984 66.7105 68.3984 61.8188C68.3984 56.9272 72.1891 52.9336 76.8509 52.9336C81.5127 52.9336 85.3034 56.9036 85.3034 61.7952C85.3034 66.6868 81.5127 70.6805 76.8509 70.6805ZM76.8509 56.4546C74.1198 56.4546 71.9066 58.865 71.9066 61.8188C71.9066 64.7727 74.1198 67.1831 76.8509 67.1831C79.5821 67.1831 81.7953 64.7727 81.7953 61.8188C81.7953 58.865 79.5821 56.4546 76.8509 56.4546Z" fill="white"/>
<path d="M76.8519 131.53C75.8866 131.53 75.1096 130.751 75.1096 129.782V104.945C75.1096 103.977 75.8866 103.197 76.8519 103.197C77.8172 103.197 78.5942 103.977 78.5942 104.945V129.782C78.5942 130.751 77.8172 131.53 76.8519 131.53Z" fill="white"/>
<path d="M154.598 145H57.4064C56.441 145 55.6641 144.22 55.6641 143.251V134.957C55.6641 133.988 56.441 133.208 57.4064 133.208H61.0558V129.805C61.0558 128.836 61.8327 128.057 62.7981 128.057H149.206C150.172 128.057 150.949 128.836 150.949 129.805V133.208H154.598C155.563 133.208 156.34 133.988 156.34 134.957V143.251C156.34 144.22 155.563 145 154.598 145ZM59.1487 141.503H152.832V136.706H149.183C148.218 136.706 147.441 135.926 147.441 134.957V131.554H64.5403V134.957C64.5403 135.926 63.7634 136.706 62.7981 136.706H59.1487V141.503Z" fill="white"/>
<path d="M159.258 145H52.7423C51.777 145 51 144.22 51 143.251C51 142.283 51.777 141.503 52.7423 141.503H159.234C160.199 141.503 160.976 142.283 160.976 143.251C161 144.22 160.223 145 159.258 145Z" fill="white"/>
<path d="M136.915 136.705H62.797C61.8317 136.705 61.0547 135.926 61.0547 134.957C61.0547 133.988 61.8317 133.208 62.797 133.208H136.915C137.88 133.208 138.657 133.988 138.657 134.957C138.657 135.926 137.88 136.705 136.915 136.705Z" fill="white"/>
</g>
<defs>
<clipPath id="clip0_3979_1281">
<rect width="110" height="104" fill="white" transform="translate(51 41)"/>
</clipPath>
</defs>
</svg>
