<svg width="71" height="47" viewBox="0 0 71 47" fill="none" xmlns="http://www.w3.org/2000/svg">
<g clip-path="url(#clip0_1678_3245)">
<path d="M40.0423 0H15.5389C11.5945 0 8.36719 3.23312 8.36719 7.18471V28.7389C8.36719 32.6904 11.5945 35.9236 15.5389 35.9236H63.948C67.8924 35.9236 71.0002 32.6904 71.0002 28.7389C71.0002 28.7389 71.3588 24.9669 70.283 22.7516C68.9084 19.9975 64.6054 18.6803 61.3184 15.2675C52.8916 6.58599 52.5928 1.49682 40.0423 0Z" fill="#A39BFF"/>
<path d="M21.5115 14.6091C21.5115 15.5071 20.7943 16.1657 19.9576 16.1657H12.9054C12.009 16.1657 11.3516 15.4473 11.3516 14.6091V6.94536C11.3516 6.04727 12.0687 5.38867 12.9054 5.38867H19.8979C20.7943 5.38867 21.4517 6.10714 21.4517 6.94536V14.6091H21.5115Z" fill="#F8F9FA"/>
<path d="M38.2536 14.4893C38.2536 15.3874 38.0743 16.1657 37.1181 16.1657H25.5238C24.5676 16.1657 23.3125 15.3874 23.3125 14.4893V6.94536C23.3125 6.04727 24.5676 5.38867 25.5238 5.38867H37.1181C38.0743 5.38867 38.2536 6.10714 38.2536 6.94536V14.4893Z" fill="#F8F9FA"/>
<path d="M42.075 5.38841C41.2383 5.38841 40.6406 6.10688 40.6406 6.9451V14.489C40.6406 15.3871 41.2383 16.1655 42.075 16.1655H56.0598C56.9563 16.1655 57.3746 15.3871 57.3746 14.489C57.3746 14.489 53.1314 9.57949 49.2467 6.2865C47.4538 4.72981 44.9437 5.20879 42.075 5.38841Z" fill="#F8F9FA"/>
<path d="M20.3182 47C25.4342 47 29.5816 42.8451 29.5816 37.7197C29.5816 32.5944 25.4342 28.4395 20.3182 28.4395C15.2021 28.4395 11.0547 32.5944 11.0547 37.7197C11.0547 42.8451 15.2021 47 20.3182 47Z" fill="#F8F9FA"/>
<path d="M27.0692 37.7197C27.0692 41.4917 24.0213 44.4853 20.3159 44.4853C16.5507 44.4853 13.5625 41.4318 13.5625 37.7197C13.5625 33.9477 16.6105 30.9541 20.3159 30.9541C24.081 30.9541 27.0692 33.9477 27.0692 37.7197Z" fill="#A39BFF"/>
<path d="M52.5994 47C57.7155 47 61.8629 42.8451 61.8629 37.7197C61.8629 32.5944 57.7155 28.4395 52.5994 28.4395C47.4833 28.4395 43.3359 32.5944 43.3359 37.7197C43.3359 42.8451 47.4833 47 52.5994 47Z" fill="#F8F9FA"/>
<path d="M52.5971 44.4853C56.3269 44.4853 59.3505 41.4562 59.3505 37.7197C59.3505 33.9832 56.3269 30.9541 52.5971 30.9541C48.8673 30.9541 45.8438 33.9832 45.8438 37.7197C45.8438 41.4562 48.8673 44.4853 52.5971 44.4853Z" fill="#A39BFF"/>
<path d="M5.97643 25.7452C5.97643 27.4216 4.66162 28.7388 2.98822 28.7388C1.31481 28.7388 0 27.4216 0 25.7452V12.5732C0 10.8968 1.31481 9.57959 2.98822 9.57959C4.66162 9.57959 5.97643 10.8968 5.97643 12.5732V25.7452Z" fill="#A39BFF"/>
</g>
<defs>
<clipPath id="clip0_1678_3245">
<rect width="70.9355" height="47" fill="white"/>
</clipPath>
</defs>
</svg>
