<svg width="64" height="64" viewBox="0 0 64 64" fill="none" xmlns="http://www.w3.org/2000/svg">
<path d="M10.4761 31.5675C10.4761 30.2127 10.6116 29.1966 10.8826 27.1643H5.53098H2.82131H2.21164C2.21164 27.232 2.1439 27.232 2.1439 27.2998C1.39874 27.5708 0.789062 28.3159 0.789062 29.1966V33.9385C0.789062 34.8191 1.331 35.5643 2.1439 35.8352C2.1439 35.903 2.21164 35.903 2.21164 35.9707H2.82131H5.53098H10.8826C10.6116 33.9385 10.4761 32.9224 10.4761 31.5675Z" fill="#A39BFF"/>
<path d="M32.1494 49.316C42.0264 49.316 50.0332 41.3091 50.0332 31.4322C50.0332 21.5552 42.0264 13.5483 32.1494 13.5483C22.2725 13.5483 14.2656 21.5552 14.2656 31.4322C14.2656 41.3091 22.2725 49.316 32.1494 49.316Z" fill="#A39BFF"/>
<path d="M36.6892 10.0935V4.40321V1.82903V1.42258C36.6892 1.42258 36.6892 1.55806 36.6215 1.55806C36.486 0.609675 35.6054 0 34.5892 0H29.9151C28.8989 0 28.0183 0.541934 27.8828 1.55806C27.8828 1.6258 27.8828 1.42258 27.8828 1.42258V1.76128V4.40321V10.0935C29.9151 9.82255 30.9312 9.68706 32.286 9.68706C33.6409 9.75481 34.657 9.89029 36.6892 10.0935Z" fill="#A39BFF"/>
<path d="M14.2729 43.5579L10.2761 47.5546C10.0729 47.6224 9.93744 47.7578 9.73422 47.8933L7.97293 49.6546C7.22777 50.3998 7.22777 51.6191 7.97293 52.3643L11.0213 55.4127C11.7665 56.1578 12.9858 56.1578 13.731 55.4127L15.4923 53.6514C15.6955 53.4482 15.831 53.2449 15.8987 52.974L19.6922 49.1804C17.66 47.6901 15.7632 45.7933 14.2729 43.5579Z" fill="#A39BFF"/>
<path d="M50.0366 19.1032L54.1011 15.1065C54.2366 15.0387 54.3043 14.971 54.4398 14.8355L56.2011 13.0742C56.9463 12.3291 56.9463 11.1097 56.2011 10.3646L53.1527 7.31617C52.4076 6.57102 51.256 6.57102 50.5108 7.24843L44.4141 13.3452C46.5141 14.971 48.4786 16.8678 50.0366 19.1032Z" fill="#A39BFF"/>
<path d="M27.8828 52.7031V58.3257V61.0354V61.3741C27.8828 61.3741 27.8828 61.3741 27.9506 61.3741C28.086 62.3224 28.9667 63.0676 29.9151 63.0676H34.657C35.6731 63.0676 36.486 62.3224 36.6215 61.3741C36.6215 61.3741 36.6215 61.3741 36.6892 61.3741V61.0354V58.3257V52.7031C34.657 52.9741 33.6409 53.1096 32.286 53.1096C30.9312 53.1096 29.9151 52.9741 27.8828 52.7031Z" fill="#A39BFF"/>
<path d="M62.1631 27.232C62.1631 27.1643 62.1631 27.1643 62.1631 27.232L61.7567 27.1643H59.047H53.4922C53.7632 29.1966 53.8986 30.2127 53.8986 31.5675C53.8986 32.9224 53.7632 33.9385 53.4922 35.9707H59.047H61.7567H62.1631C62.1631 35.9707 62.1631 35.9707 62.1631 35.903C63.1115 35.7675 63.7889 34.9546 63.7889 33.9385V29.1966C63.7889 28.1804 63.1115 27.3675 62.1631 27.232Z" fill="#A39BFF"/>
<path d="M54.3043 47.7579C54.2365 47.6901 54.1688 47.6901 54.1688 47.6224L50.172 43.5579C48.6817 45.7933 46.7849 47.6901 44.6172 49.1804L48.6139 53.1772C48.6817 53.2449 48.6817 53.2449 48.7494 53.3127L50.5107 55.074C50.5785 55.1417 50.5785 55.1417 50.6462 55.2094L50.7817 55.3449C51.5268 55.8191 52.4752 55.7514 53.0849 55.1417L56.1333 52.0933C56.8784 51.3482 56.8784 50.1966 56.1333 49.5191L54.3043 47.7579Z" fill="#A39BFF"/>
<path d="M9.8696 14.7677C9.93734 14.8354 9.93734 14.8354 10.0051 14.9031L14.3406 19.1709C15.8986 16.9354 17.8631 14.9709 20.0986 13.4806L15.8309 9.21283C15.7631 9.14509 15.7631 9.07735 15.6954 9.00961L13.9341 7.24832C13.1889 6.50316 11.9696 6.50316 11.2922 7.24832L8.17606 10.3644C7.4309 11.1096 7.4309 12.329 8.17606 13.0064L9.8696 14.7677Z" fill="#A39BFF"/>
</svg>
