<svg width="106" height="125" viewBox="0 0 106 125" fill="none" xmlns="http://www.w3.org/2000/svg">
<path d="M45.6496 65.7886L28.5898 111.315L33.9478 113.326L51.0076 67.7992L45.6496 65.7886Z" fill="#1D2332"/>
<path d="M49.2148 80.173L58.579 89.5438L49.2148 98.9146L53.2726 102.975L66.5905 89.5438L53.2726 76.1123L49.2148 80.173Z" fill="#1D2332"/>
<path d="M21.1326 89.5438L30.4968 80.173L26.439 76.1123L13.1211 89.5438L26.439 102.975L30.4968 98.9146L21.1326 89.5438Z" fill="#1D2332"/>
<path d="M57.7455 60.1819L74.497 89.3356L57.7455 118.489H24.1387L7.38727 89.3356L24.1387 60.1819H57.7455ZM61.3872 53.8306H20.4971L0 89.3356L20.4971 124.841H61.3872L81.8842 89.3356L61.3872 53.8306Z" fill="#1D2332"/>
<path d="M89.6876 74.3419L105.294 48.6242L93.2252 0L44.7397 11.9738L29.1328 37.6916L63.364 29.2578L51.6068 48.8324L63.572 49.2489L69.7108 59.2445L81.2599 40.0863L89.6876 74.3419Z" fill="#3973B9"/>
</svg>
