<svg width="73" height="50" viewBox="0 0 73 50" fill="none" xmlns="http://www.w3.org/2000/svg">
<path d="M26.9014 20.9414C21.8552 20.9414 17.7266 25.0609 17.7266 30.0959C17.7266 35.1309 21.8552 39.2505 26.9014 39.2505C31.9475 39.2505 36.0761 35.1309 36.0761 30.0959C36.0761 25.0609 32.0048 20.9414 26.9014 20.9414Z" fill="#A39BFF"/>
<path d="M59.5257 5.14943H20.7622V0.858238C20.7622 0.286079 20.1314 0 19.73 0H13.7664C13.365 0 12.7342 0.343295 12.7342 0.858238V5.14943C9.52307 5.26386 7 7.89579 7 11.0999V43.8273C7 47.0886 9.6951 49.7778 12.9636 49.7778H59.5257C62.7942 49.7778 65.4893 47.0886 65.4893 43.8273V11.0999C65.4893 7.83857 62.7942 5.14943 59.5257 5.14943ZM26.8978 42.5114C20.0167 42.5114 14.4545 36.9614 14.4545 30.0955C14.4545 23.2296 20.0741 17.7369 26.8978 17.7369C33.7789 17.7369 39.3412 23.2868 39.3412 30.1527C39.3412 37.0187 33.7789 42.5114 26.8978 42.5114ZM56.8879 16.2493C56.8879 16.8215 55.9131 17.1648 55.225 17.1648H44.7887C44.0432 17.1648 43.1258 16.7642 43.1258 16.2493V10.8138C43.1258 10.2416 44.1006 9.78391 44.7887 9.78391H55.1677C55.9131 9.78391 56.8306 10.2989 56.8306 10.8138V16.2493H56.8879Z" fill="#A39BFF"/>
</svg>
