<svg width="81" height="81" viewBox="0 0 81 81" fill="none" xmlns="http://www.w3.org/2000/svg">
<path d="M79.1416 0.412231H2.40451C1.47997 0.412231 0.6875 1.20656 0.6875 2.13327V65.0175C0.6875 65.9442 1.47997 66.7385 2.40451 66.7385H32.3861V76.6676H29.0842C28.1596 76.6676 27.3672 77.462 27.3672 78.3887C27.3672 79.3154 28.1596 80.1097 29.0842 80.1097C33.839 80.1097 43.4807 80.1097 52.4619 80.1097C53.3865 80.1097 54.1789 79.3154 54.1789 78.3887C54.1789 77.462 53.3865 76.6676 52.4619 76.6676H49.16V66.7385H79.1416C80.0662 66.7385 80.8586 65.9442 80.8586 65.0175V2.13327C80.7265 1.20656 80.0662 0.412231 79.1416 0.412231ZM77.4246 3.72193V56.6771H3.98944V3.72193H77.4246ZM45.726 76.5352H35.6881V66.6062H45.726V76.5352ZM3.98944 63.2965V59.9868H77.2925V63.2965C63.1602 63.2965 18.3859 63.2965 3.98944 63.2965Z" fill="#42C66E"/>
<path d="M9.12985 40.1287H35.8095C36.7341 40.1287 37.5266 39.3344 37.5266 38.4077C37.5266 33.9065 37.5266 16.4313 37.5266 8.62045C37.5266 7.69374 36.7341 6.89941 35.8095 6.89941H9.12985C8.20531 6.89941 7.41284 7.69374 7.41284 8.62045C7.41284 11.2682 7.41284 30.8616 7.41284 38.4077C7.28076 39.4668 8.07323 40.1287 9.12985 40.1287ZM10.7148 36.8191V20.2706H34.0925V36.8191H10.7148ZM10.7148 10.3415H34.0925V16.9609H10.7148V10.3415Z" fill="#42C66E"/>
<path d="M18.5184 24.1101C17.858 23.4482 16.8014 23.4482 16.141 24.1101L12.839 27.4198C12.1787 28.0817 12.1787 29.1408 12.839 29.8028L16.141 33.1125C16.8014 33.7744 17.858 33.7744 18.5184 33.1125C19.1788 32.4505 19.1788 31.3914 18.5184 30.7295L16.4051 28.6113L18.5184 26.4931C19.1788 25.8311 19.1788 24.772 18.5184 24.1101Z" fill="#42C66E"/>
<path d="M28.5524 24.1101C27.892 23.4482 26.8354 23.4482 26.175 24.1101C25.5146 24.772 25.5146 25.8311 26.175 26.4931L28.2882 28.6113L26.3071 30.7295C25.2504 31.7886 26.0429 33.5096 27.4958 33.5096C27.892 33.5096 28.2882 33.3772 28.6845 32.9801L31.9864 29.6704C32.6468 29.0085 32.6468 27.9494 31.9864 27.2874L28.5524 24.1101Z" fill="#42C66E"/>
<path d="M15.7394 12.0638H12.4375V15.3735H15.7394V12.0638Z" fill="#42C66E"/>
<path d="M22.3488 12.0638H19.0469V15.3735H22.3488V12.0638Z" fill="#42C66E"/>
<path d="M45.7248 53.3681H72.4045C73.3291 53.3681 74.1215 52.5738 74.1215 51.6471C74.1215 47.1459 74.1215 29.6707 74.1215 21.8598C74.1215 20.9331 73.3291 20.1388 72.4045 20.1388H45.7248C44.8003 20.1388 44.0078 20.9331 44.0078 21.8598C44.0078 24.5076 44.0078 44.101 44.0078 51.6471C44.0078 52.7062 44.8003 53.3681 45.7248 53.3681ZM47.3098 50.0584V33.51H70.6875V50.0584H47.3098ZM47.3098 23.5809H70.6875V30.2003H47.3098V23.5809Z" fill="#42C66E"/>
<path d="M55.2371 37.3489C54.5767 36.6869 53.5201 36.6869 52.8597 37.3489L49.5578 40.6586C48.8974 41.3205 48.8974 42.3796 49.5578 43.0415L52.8597 46.3512C53.5201 47.0132 54.5767 47.0132 55.2371 46.3512C55.8975 45.6893 55.8975 44.6302 55.2371 43.9683L53.1239 41.8501L55.2371 39.7319C55.8975 39.0699 55.8975 38.0108 55.2371 37.3489Z" fill="#42C66E"/>
<path d="M65.2789 37.3489C64.6185 36.6869 63.5619 36.6869 62.9015 37.3489C62.2412 38.0108 62.2412 39.0699 62.9015 39.7319L65.0148 41.8501L62.9015 43.9683C62.2412 44.6302 62.2412 45.6893 62.9015 46.3512C63.5619 47.0132 64.6185 47.0132 65.2789 46.3512L68.5809 43.0415C69.2413 42.3796 69.2413 41.3205 68.5809 40.6586L65.2789 37.3489Z" fill="#42C66E"/>
<path d="M52.4582 25.3016H49.1562V28.6113H52.4582V25.3016Z" fill="#42C66E"/>
<path d="M59.0676 25.3016H55.7656V28.6113H59.0676V25.3016Z" fill="#42C66E"/>
</svg>
