<svg width="114" height="140" viewBox="0 0 114 140" fill="none" xmlns="http://www.w3.org/2000/svg">
<path d="M56.9856 140C56.6124 140 56.2392 139.914 55.9234 139.713L42.8899 132.253C29.8565 124.821 19.0048 114.032 11.4833 101.062C3.96172 88.0918 0 73.3142 0 58.307V12.9986C0 12.3099 0.315789 11.6786 0.889952 11.2769C1.43541 10.8752 2.15311 10.7604 2.8134 10.9613L6.57416 12.1377C13.5789 14.3185 21.1005 14.8637 28.3349 13.7159C35.5694 12.5681 42.5742 9.7274 48.5455 5.50933L55.7512 0.401722C56.4976 -0.114778 57.5024 -0.114778 58.2488 0.401722L65.4545 5.50933C71.4258 9.7561 78.4306 12.5968 85.6651 13.7159C92.8995 14.8637 100.421 14.3185 107.426 12.1377L111.187 10.9613C111.847 10.7604 112.565 10.8752 113.11 11.2769C113.656 11.6786 114 12.3386 114 12.9986V58.307C114 73.2855 110.038 88.0631 102.517 101.033C94.9952 114.003 84.1435 124.792 71.1388 132.253L58.1053 139.713C57.7321 139.914 57.3589 140 56.9856 140ZM4.30622 15.9254V58.307C4.30622 72.5395 8.06699 86.571 15.2153 98.8809C22.3636 111.191 32.6699 121.435 45.0144 128.522L56.9856 135.38L68.9569 128.522C81.3014 121.435 91.6077 111.191 98.756 98.8809C105.904 86.571 109.665 72.5395 109.665 58.307V15.9254L108.689 16.241C101.053 18.6227 92.8708 19.2253 84.9761 17.9627C77.0813 16.7288 69.4737 13.6298 62.9569 9.01004L56.9856 4.79197L51.0144 9.01004C44.4976 13.6298 36.8899 16.7288 28.9952 17.9627C21.1005 19.1966 12.9187 18.6227 5.2823 16.241L4.30622 15.9254Z" fill="#252B42"/>
<path d="M35.4545 87.8049C34.9091 87.8049 34.3636 87.604 33.933 87.1736L18.4593 71.736C17.6268 70.9039 17.6268 69.5265 18.4593 68.6944L34.3062 52.8551C35.1388 52.0229 36.5167 52.0229 37.3493 52.8551C38.1818 53.6872 38.1818 55.0646 37.3493 55.8967L23.0239 70.2152L36.9761 84.1607C37.8086 84.9928 37.8086 86.3702 36.9761 87.2023C36.5455 87.604 36 87.8049 35.4545 87.8049Z" fill="#252B42"/>
<path d="M78.5167 87.8049C77.9713 87.8049 77.4258 87.604 76.9952 87.1736C76.1627 86.3415 76.1627 84.9641 76.9952 84.132L90.9474 70.1865L76.622 55.868C75.7895 55.0359 75.7895 53.6585 76.622 52.8264C77.4545 51.9943 78.8325 51.9943 79.6651 52.8264L95.512 68.6657C96.3445 69.4978 96.3445 70.8752 95.512 71.7073L80.0383 87.1736C79.6077 87.604 79.0622 87.8049 78.5167 87.8049Z" fill="#252B42"/>
<path d="M56.9856 140C55.8086 140 54.8325 139.024 54.8325 137.848V102.554C54.8325 101.377 55.8086 100.402 56.9856 100.402C58.1627 100.402 59.1388 101.377 59.1388 102.554V137.848C59.1388 139.053 58.1627 140 56.9856 140Z" fill="#252B42"/>
<path d="M38.4115 104.735C38.067 104.735 37.6938 104.648 37.378 104.476C36.3445 103.902 35.9426 102.611 36.5167 101.549L45.7895 84.6485C45.7895 84.6198 45.8182 84.6198 45.8182 84.5911L64.3636 53.2855L73.9809 36.3845C74.555 35.3515 75.8756 34.9785 76.9091 35.5811C77.9426 36.1549 78.3158 37.4749 77.7129 38.5079L68.0957 55.4089C68.0957 55.4089 68.0957 55.4376 68.067 55.4376L49.5215 86.7145L40.2488 103.587C39.9043 104.333 39.1866 104.735 38.4115 104.735Z" fill="#252B42"/>
<path d="M56.9856 39.5983C55.8086 39.5983 54.8325 38.6227 54.8325 37.4462V2.15208C54.8325 0.97561 55.8086 0 56.9856 0C58.1627 0 59.1388 0.97561 59.1388 2.15208V37.4462C59.1388 38.6227 58.1627 39.5983 56.9856 39.5983Z" fill="#252B42"/>
</svg>
