<svg width="172" height="169" viewBox="0 0 172 169" fill="none" xmlns="http://www.w3.org/2000/svg">
<path d="M85.9342 140.187H84.9521C78.6386 140.187 73.4825 135.003 73.4825 128.654C73.4825 125.586 71.5183 123.646 69.6593 122.871C67.8004 122.095 65.0645 122.059 62.8898 124.211C58.4002 128.725 51.1396 128.725 46.65 124.211L45.9485 123.505C41.4589 118.991 41.4589 111.691 45.9485 107.177C48.1232 104.99 48.053 102.239 47.2814 100.37C46.5097 98.501 44.6157 96.5261 41.529 96.5261C35.2155 96.5261 30.0594 91.3418 30.0594 84.9937V84.0063C30.0594 77.6582 35.2155 72.4739 41.529 72.4739C44.5806 72.4739 46.5097 70.499 47.2814 68.6298C48.053 66.7606 48.0881 64.0098 45.9485 61.8232C41.4589 57.3091 41.4589 50.0088 45.9485 45.4946L46.65 44.7892C51.1396 40.275 58.4002 40.275 62.8898 44.7892C65.0645 46.9758 67.8004 46.9053 69.6593 46.1294C71.5183 45.3535 73.4825 43.4491 73.4825 40.3456C73.4825 33.9975 78.6386 28.8132 84.9521 28.8132H85.9342C92.2478 28.8132 97.4038 33.9975 97.4038 40.3456C97.4038 43.4138 99.368 45.3535 101.227 46.1294C103.086 46.9053 105.822 46.9405 107.997 44.7892C112.486 40.275 119.747 40.275 124.236 44.7892L124.938 45.4946C129.427 50.0088 129.427 57.3091 124.938 61.8232C122.763 64.0098 122.833 66.7606 123.605 68.6298C124.377 70.499 126.271 72.4739 129.357 72.4739C135.671 72.4739 140.827 77.6582 140.827 84.0063V84.9937C140.827 91.3418 135.671 96.5261 129.357 96.5261C126.306 96.5261 124.377 98.501 123.605 100.37C122.833 102.239 122.798 104.99 124.938 107.177C129.427 111.691 129.427 118.991 124.938 123.505L124.236 124.211C119.747 128.725 112.486 128.725 107.997 124.211C105.822 122.024 103.086 122.095 101.227 122.871C99.368 123.646 97.4038 125.551 97.4038 128.654C97.4038 135.003 92.2478 140.187 85.9342 140.187ZM67.169 117.087C68.6422 117.087 70.1855 117.369 71.6236 118.004C76.0079 119.838 78.7087 123.893 78.7087 128.654C78.7087 132.111 81.4797 134.897 84.9171 134.897H85.8992C89.3365 134.897 92.1075 132.111 92.1075 128.654C92.1075 123.893 94.8083 119.802 99.1926 118.004C103.577 116.17 108.347 117.157 111.679 120.508C114.1 122.941 118.028 122.941 120.448 120.508L121.15 119.802C123.57 117.369 123.57 113.419 121.15 110.986C117.818 107.635 116.835 102.804 118.659 98.4305C120.483 94.0221 124.517 91.3065 129.252 91.3065C132.689 91.3065 135.46 88.5204 135.46 85.0643V84.0768C135.46 80.6206 132.689 77.8345 129.252 77.8345C124.517 77.8345 120.448 75.1189 118.659 70.7106C116.835 66.3022 117.818 61.5058 121.15 58.1555C123.57 55.722 123.57 51.7721 121.15 49.3387L120.448 48.6333C118.028 46.1999 114.1 46.1999 111.679 48.6333C108.347 51.9837 103.542 52.9712 99.1926 51.1373C94.8083 49.3034 92.1075 45.2477 92.1075 40.4866C92.1075 37.0305 89.3365 34.2444 85.8992 34.2444H84.9171C81.4797 34.2444 78.7087 37.0305 78.7087 40.4866C78.7087 45.2477 76.0079 49.3387 71.6236 51.1373C67.2392 52.9712 62.4689 51.9837 59.1368 48.6333C56.7166 46.1999 52.7882 46.1999 50.368 48.6333L49.6665 49.3387C47.2463 51.7721 47.2463 55.722 49.6665 58.1555C52.9986 61.5058 53.9807 66.3374 52.1568 70.7106C50.3329 75.1189 46.2993 77.8345 41.5641 77.8345C38.1267 77.8345 35.3558 80.6206 35.3558 84.0768V85.0643C35.3558 88.5204 38.1267 91.3065 41.5641 91.3065C46.2993 91.3065 50.368 94.0221 52.1568 98.4305C53.9807 102.839 52.9986 107.635 49.6665 110.986C47.2463 113.419 47.2463 117.369 49.6665 119.802L50.368 120.508C52.7882 122.941 56.7166 122.941 59.1368 120.508C61.3816 118.251 64.2227 117.087 67.169 117.087Z" fill="#252B42"/>
<path d="M99.333 66.4785C98.8068 66.4785 98.2807 66.3022 97.8247 65.9848C94.212 63.375 89.9328 61.9996 85.4432 61.9996C81.1991 61.9996 77.0602 63.2692 73.5527 65.6321C72.3601 66.4432 70.7116 66.1258 69.9049 64.9268C69.0981 63.7277 69.4138 62.0701 70.6064 61.259C74.9908 58.2965 80.1117 56.7095 85.4432 56.7095C91.0201 56.7095 96.3516 58.4376 100.876 61.6822C102.069 62.5286 102.349 64.1861 101.508 65.3852C100.981 66.0906 100.14 66.4785 99.333 66.4785Z" fill="#252B42"/>
<path d="M85.4432 112.361C80.1117 112.361 74.9557 110.774 70.5362 107.776C69.3437 106.965 69.028 105.308 69.8347 104.109C70.6414 102.909 72.29 102.592 73.4825 103.403C77.0251 105.801 81.1289 107.071 85.4432 107.071C89.7224 107.071 93.8261 105.801 97.3337 103.438C98.5262 102.627 100.175 102.945 100.981 104.144C101.788 105.343 101.473 107 100.28 107.812C95.8956 110.774 90.7395 112.361 85.4432 112.361Z" fill="#252B42"/>
<path d="M73.0266 91.9061C72.3251 91.9061 71.6236 91.624 71.0974 91.0597L66.8183 86.475C65.9063 85.4875 65.8712 83.9357 66.7832 82.913L71.0623 78.0461C72.0094 76.9528 73.693 76.847 74.7803 77.7992C75.8677 78.7515 75.9729 80.4443 75.0258 81.5376L72.3251 84.6058L74.9557 87.4624C75.9378 88.5204 75.9027 90.2133 74.8154 91.2008C74.2893 91.6945 73.6579 91.9061 73.0266 91.9061Z" fill="#252B42"/>
<path d="M97.1583 91.9061C96.5269 91.9061 95.8605 91.6592 95.3695 91.2008C94.3172 90.2133 94.2471 88.5204 95.2292 87.4624L97.8598 84.6058L95.159 81.5376C94.212 80.4443 94.3172 78.7867 95.4045 77.7992C96.4919 76.847 98.1404 76.9528 99.1225 78.0461L103.402 82.913C104.279 83.9357 104.279 85.4875 103.332 86.475L99.0524 91.0597C98.5613 91.624 97.8598 91.9061 97.1583 91.9061Z" fill="#252B42"/>
<path d="M82.1812 91.9061C81.7252 91.9061 81.2342 91.765 80.8132 91.5182C79.5856 90.7423 79.1998 89.12 79.9364 87.8856L85.7238 78.3988C86.4954 77.1644 88.1089 76.7765 89.3365 77.5171C90.5642 78.293 90.95 79.9153 90.2134 81.1496L84.426 90.6365C83.9349 91.4829 83.0581 91.9061 82.1812 91.9061Z" fill="#252B42"/>
<path d="M103.542 99.5238H66.9585C61.3114 99.5238 56.7166 94.9038 56.7166 89.2258V79.8095C56.7166 74.1315 61.3114 69.5115 66.9585 69.5115H103.542C109.189 69.5115 113.784 74.1315 113.784 79.8095V89.2258C113.784 94.9038 109.189 99.5238 103.542 99.5238ZM66.9585 74.8368C64.2227 74.8368 61.9779 77.0939 61.9779 79.8447V89.2258C61.9779 91.9766 64.2227 94.2337 66.9585 94.2337H103.542C106.278 94.2337 108.523 91.9766 108.523 89.2258V79.8095C108.523 77.0586 106.278 74.8015 103.542 74.8015H66.9585V74.8368Z" fill="#252B42"/>
<path d="M85.3029 25.7803C83.8648 25.7803 82.6722 24.5812 82.6722 23.1352V17.0693C82.6722 10.827 87.7231 5.71327 93.9664 5.71327H108.593C110.031 5.71327 111.223 6.91235 111.223 8.35831C111.223 9.80426 110.031 11.0033 108.593 11.0033H93.9664C90.6343 11.0033 87.9335 13.7189 87.9335 17.0693V23.1705C87.9335 24.6164 86.741 25.7803 85.3029 25.7803Z" fill="#252B42"/>
<path d="M76.5692 162.969H61.9428C60.5047 162.969 59.3122 161.77 59.3122 160.324C59.3122 158.878 60.5047 157.679 61.9428 157.679H76.5692C79.9013 157.679 82.6021 154.964 82.6021 151.613V145.512C82.6021 144.066 83.7946 142.867 85.2327 142.867C86.6708 142.867 87.8634 144.066 87.8634 145.512V151.613C87.8634 157.891 82.7775 162.969 76.5692 162.969Z" fill="#252B42"/>
<path d="M161.03 110.245C159.592 110.245 158.4 109.046 158.4 107.6V92.8936C158.4 89.5432 155.699 86.8276 152.367 86.8276H146.299C144.861 86.8276 143.668 85.6285 143.668 84.1826C143.668 82.7366 144.861 81.5376 146.299 81.5376H152.367C158.575 81.5376 163.661 86.616 163.661 92.8936V107.6C163.661 109.081 162.503 110.245 161.03 110.245Z" fill="#252B42"/>
<path d="M24.6228 86.616H18.5548C12.3465 86.616 7.26057 81.5376 7.26057 75.26V60.5536C7.26057 59.1077 8.45312 57.9086 9.89121 57.9086C11.3293 57.9086 12.5218 59.1077 12.5218 60.5536V75.26C12.5218 78.6104 15.2226 81.326 18.5548 81.326H24.6228C26.0609 81.326 27.2534 82.525 27.2534 83.971C27.2534 85.4169 26.0609 86.616 24.6228 86.616Z" fill="#252B42"/>
<path d="M130.164 18.092H117.432C115.994 18.092 114.801 16.8929 114.801 15.447V2.64503C114.801 1.19908 115.994 0 117.432 0H130.164C131.602 0 132.795 1.19908 132.795 2.64503V15.447C132.795 16.9282 131.602 18.092 130.164 18.092ZM120.027 12.802H127.498V5.29007H120.027V12.802Z" fill="#252B42"/>
<path d="M160.364 136.59C159.697 136.59 159.031 136.343 158.505 135.814L149.49 126.75C148.473 125.727 148.473 124.034 149.49 123.012L158.505 113.948C158.996 113.454 159.662 113.172 160.364 113.172C161.065 113.172 161.732 113.454 162.223 113.948L171.237 123.012C172.254 124.034 172.254 125.727 171.237 126.75L162.223 135.814C161.732 136.343 161.03 136.59 160.364 136.59ZM155.103 124.881L160.399 130.206L165.695 124.881L160.399 119.556L155.103 124.881Z" fill="#252B42"/>
<path d="M10.1017 55.0167C4.5247 55.0167 0 50.4672 0 44.8598C0 39.2523 4.5247 34.7028 10.1017 34.7028C15.6786 34.7028 20.2033 39.2523 20.2033 44.8598C20.2384 50.4672 15.7137 55.0167 10.1017 55.0167ZM10.1017 39.9576C7.43594 39.9576 5.26128 42.1442 5.26128 44.8245C5.26128 47.5048 7.43594 49.6914 10.1017 49.6914C12.7674 49.6914 14.942 47.5048 14.942 44.8245C14.9771 42.1795 12.8024 39.9576 10.1017 39.9576Z" fill="#252B42"/>
<path d="M54.3666 169H34.97C33.9879 169 33.0759 168.436 32.6199 167.554C32.164 166.672 32.2692 165.579 32.8655 164.803L42.5462 151.613C43.0373 150.943 43.844 150.555 44.6507 150.555C45.4575 150.555 46.2642 150.943 46.7552 151.613L56.436 164.803C57.0323 165.614 57.1024 166.672 56.6815 167.554C56.2606 168.436 55.3837 169 54.3666 169ZM40.1962 163.71H49.1754L44.6858 157.609L40.1962 163.71Z" fill="#252B42"/>
</svg>
