<svg width="400" height="395" viewBox="0 0 400 395" fill="none" xmlns="http://www.w3.org/2000/svg">
<g clip-path="url(#clip0_73_25710)">
<mask id="mask0_73_25710" style="mask-type:luminance" maskUnits="userSpaceOnUse" x="0" y="-1" width="396" height="395">
<path d="M301.197 371.019C218.031 419.369 116.596 384.057 61.0804 328.498C-11.6469 255.736 -17.6643 136.178 33.6891 65.2938C55.0414 35.8307 99.6224 -5.00758 147.245 0.496514C187.598 5.15881 192.969 38.723 260.153 91.3249C336.31 150.985 369.244 139.006 387.016 176.649C413.501 232.705 373.363 329.059 301.197 371.019Z" fill="white"/>
</mask>
<g mask="url(#mask0_73_25710)">
<path d="M399.526 200.004L260.002 288.954C255.926 291.544 254.718 296.962 257.328 301.042L302.772 372.422C305.36 376.502 310.773 377.711 314.85 375.099L399.526 321.116V200.004Z" fill="white"/>
<path d="M310.169 376.934C307.128 376.934 304.13 375.423 302.383 372.66L256.94 301.279C254.2 296.984 255.473 291.264 259.765 288.544L399.288 199.594C399.439 199.507 399.612 199.486 399.763 199.572C399.914 199.658 400 199.809 400 199.982V321.094C400 321.267 399.914 321.396 399.784 321.504L315.108 375.487C313.577 376.48 311.852 376.934 310.169 376.934ZM399.051 200.867L260.261 289.343C256.422 291.803 255.279 296.919 257.738 300.783L303.181 372.163C305.64 376.005 310.752 377.149 314.612 374.689L399.073 320.835V200.867H399.051Z" fill="#292C33"/>
<path d="M266.214 302.509C266.063 302.509 265.912 302.423 265.804 302.294C265.653 302.078 265.718 301.775 265.955 301.646C272.986 297.156 280.039 292.624 287.092 288.112C303.893 277.342 321.277 266.182 338.445 255.433C338.661 255.304 338.963 255.368 339.092 255.584C339.221 255.8 339.157 256.102 338.941 256.232C321.773 266.981 304.389 278.14 287.588 288.911C280.535 293.444 273.482 297.955 266.429 302.466C266.386 302.488 266.3 302.509 266.214 302.509Z" fill="#292C33"/>
<path d="M268.715 294.034C269.76 293.368 270.067 291.98 269.402 290.934C268.736 289.889 267.349 289.581 266.305 290.247C265.26 290.913 264.952 292.301 265.618 293.347C266.284 294.392 267.67 294.7 268.715 294.034Z" fill="#292C33"/>
<path d="M276.291 289.216C277.336 288.55 277.644 287.162 276.978 286.116C276.312 285.071 274.926 284.763 273.881 285.429C272.836 286.095 272.529 287.483 273.194 288.529C273.86 289.574 275.247 289.882 276.291 289.216Z" fill="#292C33"/>
<path d="M283.857 284.378C284.901 283.711 285.209 282.324 284.543 281.278C283.878 280.232 282.491 279.925 281.446 280.591C280.401 281.257 280.094 282.645 280.76 283.69C281.425 284.736 282.812 285.044 283.857 284.378Z" fill="#292C33"/>
<path d="M310.083 265.492C309.911 265.492 309.76 265.405 309.673 265.254C309.544 265.038 309.609 264.736 309.846 264.607C315.238 261.455 320.414 258.045 325.418 254.721C329.688 251.893 334.088 248.979 338.574 246.281C338.79 246.152 339.092 246.217 339.221 246.454C339.351 246.67 339.286 246.972 339.049 247.102C334.584 249.778 330.184 252.692 325.936 255.52C320.91 258.844 315.734 262.276 310.32 265.427C310.234 265.47 310.148 265.492 310.083 265.492Z" fill="#292C33"/>
<path d="M289.076 278.874C288.925 278.874 288.774 278.788 288.666 278.658C288.515 278.442 288.601 278.14 288.817 278.011L298.221 272.01C298.436 271.859 298.738 271.924 298.868 272.161C299.019 272.377 298.932 272.679 298.717 272.809L289.313 278.809C289.248 278.853 289.162 278.874 289.076 278.874Z" fill="#292C33"/>
<path d="M309.566 358.91C309.522 358.91 309.501 358.91 309.458 358.889C309.328 358.867 309.22 358.781 309.156 358.673L278.249 310.129C278.119 309.913 278.184 309.611 278.4 309.481L326.906 278.551C327.014 278.486 327.143 278.464 327.273 278.486C327.402 278.507 327.51 278.594 327.575 278.702L358.482 327.246C358.611 327.461 358.546 327.764 358.331 327.893L309.824 358.824C309.738 358.889 309.652 358.91 309.566 358.91ZM279.327 310.043L309.716 357.788L357.425 327.375L327.036 279.63L279.327 310.043Z" fill="#292C33"/>
<path d="M346.692 266.522L336.105 273.272L342.849 283.867L353.436 277.117L346.692 266.522Z" fill="#292C33"/>
<path d="M399.526 232.834L353.931 261.909L360.682 272.507L399.526 247.749V232.834Z" fill="#292C33"/>
<path d="M358.771 285.492L348.184 292.242L354.929 302.837L365.515 296.087L358.771 285.492Z" fill="#292C33"/>
<path d="M399.526 259.513L366.009 280.882L372.76 291.48L399.526 274.406V259.513Z" fill="#292C33"/>
<path d="M370.85 304.464L360.263 311.214L367.008 321.809L377.595 315.059L370.85 304.464Z" fill="#292C33"/>
<path d="M399.526 286.17L378.087 299.855L384.838 310.453L399.526 301.085V286.17Z" fill="white"/>
</g>
<path d="M106.783 357.119L105.683 353.104L101.154 353.32C100.744 352.435 100.248 351.593 99.7088 350.816L102.103 346.974L99.1481 344.06L95.3305 346.499C94.5325 345.96 93.6914 345.485 92.8287 345.075L92.9796 340.542L88.968 339.484L86.8759 343.499C85.9269 343.434 84.9563 343.434 83.9858 343.52L81.8505 339.527L77.8389 340.628L78.0546 345.161C77.1703 345.571 76.3291 346.067 75.5527 346.607L71.7136 344.211L68.8019 347.168L71.2391 350.989C70.6999 351.787 70.2254 352.629 69.8156 353.493L65.2863 353.341L64.2295 357.356L68.2411 359.45C68.1764 360.4 68.1764 361.371 68.2627 362.342L64.2726 364.479L65.3726 368.494L69.9019 368.278C70.3117 369.163 70.8077 370.005 71.3469 370.782L68.9529 374.624L71.9077 377.538L75.7252 375.099C76.5233 375.639 77.3644 376.113 78.2271 376.523L78.0761 381.056L82.0878 382.114L84.1799 378.099C85.1289 378.164 86.0994 378.164 87.07 378.078L89.2052 382.071L93.2169 380.97L93.0012 376.437C93.8855 376.027 94.7266 375.531 95.5031 374.991L99.3422 377.387L102.254 374.43L99.8167 370.609C100.356 369.811 100.83 368.969 101.24 368.105L105.769 368.257L106.826 364.242L102.815 362.148C102.879 361.198 102.879 360.227 102.793 359.256L106.783 357.119ZM88.3641 371.106C82.6701 372.66 76.8036 369.314 75.2507 363.616C73.6978 357.917 77.0409 352.046 82.7348 350.492C88.4288 348.938 94.2953 352.284 95.8482 357.982C97.4011 363.659 94.058 369.552 88.3641 371.106Z" fill="#292C33"/>
<path d="M173.126 315.633L171.25 308.791L163.507 309.136C162.795 307.625 161.954 306.201 161.027 304.862L165.125 298.279L160.078 293.293L153.543 297.48C152.184 296.552 150.739 295.732 149.251 295.041L149.509 287.292L142.651 285.501L139.092 292.386C137.453 292.257 135.814 292.278 134.153 292.43L130.508 285.587L123.671 287.465L124.016 295.214C122.506 295.926 121.083 296.768 119.746 297.696L113.167 293.595L108.185 298.646L112.369 305.186C111.442 306.546 110.622 307.992 109.932 309.481L102.189 309.222L100.399 316.086L107.279 319.648C107.15 321.288 107.171 322.929 107.322 324.591L100.485 328.239L102.362 335.081L110.105 334.736C110.816 336.247 111.658 337.671 112.585 339.009L108.487 345.593L113.534 350.579L120.069 346.391C121.428 347.319 122.873 348.14 124.361 348.83L124.102 356.579L130.961 358.371L134.52 351.485C136.159 351.615 137.798 351.593 139.459 351.442L143.104 358.284L149.941 356.407L149.596 348.658C151.105 347.945 152.529 347.104 153.866 346.175L160.444 350.277L165.427 345.226L161.242 338.686C162.17 337.326 162.989 335.88 163.68 334.39L171.422 334.649L173.213 327.785L166.332 324.224C166.462 322.583 166.44 320.943 166.289 319.281L173.126 315.633ZM141.594 339.571C131.867 342.247 121.816 336.506 119.142 326.771C116.467 317.036 122.204 306.978 131.931 304.301C141.659 301.625 151.709 307.366 154.384 317.101C157.058 326.836 151.343 336.894 141.594 339.571Z" fill="#292C33"/>
<path d="M3.90367 169.116L85.1719 326.792C77.2348 311.424 97.9186 283.623 135.663 254.311C140.192 250.793 141.551 244.533 138.919 239.439L68.7802 103.348C65.3509 96.6778 56.659 94.7784 50.7925 99.4623C15.3347 127.738 -3.77454 154.223 3.90367 169.116Z" fill="white"/>
<path d="M85.1719 327.246C84.9994 327.246 84.8268 327.159 84.7406 326.987L3.47237 169.332C-0.30203 161.993 2.22143 151.525 10.7839 139.049C19.0013 127.069 32.7401 113.276 50.4906 99.1169C53.3807 96.8073 57.1335 95.9224 60.757 96.6994C64.402 97.4765 67.4862 99.8292 69.19 103.153L139.329 239.223C142.068 244.533 140.645 251.03 135.943 254.678C117.114 269.291 102.491 283.601 93.6697 296.034C84.6543 308.747 81.8505 319.281 85.5817 326.533V326.555C85.7111 326.792 85.6033 327.073 85.3876 327.202C85.3229 327.246 85.2582 327.246 85.1719 327.246ZM4.31352 168.9L83.1661 321.893C81.1387 306.179 99.9891 281.4 135.361 253.944C139.696 250.577 141.011 244.576 138.488 239.676L68.3489 103.563C66.7744 100.498 63.9275 98.3183 60.5628 97.606C57.2198 96.8937 53.7474 97.6923 51.0729 99.8292C14.5368 128.969 -2.95489 154.784 4.31352 168.9Z" fill="#292C33"/>
<path d="M2.63128 177.923L83.8995 335.577C75.9625 320.209 96.6461 292.408 134.39 263.096C138.919 259.578 140.278 253.318 137.647 248.224L67.4862 112.154C64.0569 105.484 55.365 103.585 49.4985 108.269C14.0623 136.545 -5.04693 163.029 2.63128 177.923Z" fill="white"/>
<path d="M83.8995 336.052C83.7269 336.052 83.5544 335.966 83.4681 335.793L2.19991 178.139C-1.57449 170.8 0.948963 160.331 9.51146 147.855C17.7289 135.876 31.4677 122.083 49.2181 107.924C52.1082 105.614 55.8611 104.729 59.4845 105.506C63.1295 106.283 66.2137 108.636 67.9176 111.96L138.057 248.051C140.796 253.361 139.372 259.858 134.671 263.506C115.842 278.119 101.219 292.43 92.3973 304.862C83.3818 317.576 80.578 328.131 84.3093 335.383C84.4387 335.621 84.3308 335.901 84.1151 336.031C84.0504 336.052 83.9642 336.052 83.8995 336.052ZM3.04106 177.707L81.8936 330.699C79.8663 314.986 98.7167 290.206 134.088 262.751C138.423 259.383 139.739 253.383 137.216 248.483L67.0764 112.37C65.502 109.305 62.655 107.146 59.2904 106.413C55.9473 105.7 52.4749 106.499 49.8005 108.636C13.2643 137.775 -4.22735 163.59 3.04106 177.707Z" fill="#292C33"/>
<path d="M189.238 36.2192L259.506 172.527C262.267 177.88 268.608 180.34 274.237 178.246C332.169 156.683 378.475 152.431 387.793 170.541L306.546 12.8645C297.358 -4.94286 252.389 -1.12236 195.773 19.5342C189.022 22.0164 185.959 29.8301 189.238 36.2192Z" fill="white"/>
<path d="M270.096 179.477C265.567 179.477 261.253 176.995 259.075 172.764L188.828 36.435C187.189 33.262 186.995 29.5494 188.289 26.247C189.583 22.9229 192.257 20.3112 195.6 19.1024C223.854 8.78495 249.197 2.63331 268.91 1.31665C289.27 -0.0647749 302.426 3.86364 306.956 12.6702L388.224 170.325C388.353 170.562 388.245 170.843 388.03 170.972C387.793 171.102 387.512 170.994 387.383 170.778C382.961 162.209 369.783 158.475 349.272 160.007C329.106 161.518 303.203 167.972 274.388 178.7C273.008 179.218 271.541 179.477 270.096 179.477ZM189.669 36.0033L259.937 172.311C262.59 177.448 268.673 179.801 274.086 177.793C328.933 157.374 371.013 153.143 384.989 166.073L306.115 13.0803C297.336 -3.95002 254.071 -1.23035 195.924 19.9874C192.839 21.1098 190.381 23.5273 189.173 26.5923C187.987 29.6574 188.159 33.0893 189.669 36.0033Z" fill="#292C33"/>
<path d="M187.965 45.0257L258.233 181.333C260.994 186.686 267.335 189.147 272.964 187.053C330.896 165.49 377.203 161.238 386.52 179.347L305.252 21.671C296.064 3.86366 251.094 7.68415 194.478 28.3407C187.749 30.823 184.687 38.6366 187.965 45.0257Z" fill="white"/>
<path d="M268.823 188.283C264.294 188.283 259.981 185.801 257.802 181.57L187.555 45.2415C185.916 42.0685 185.722 38.3559 187.016 35.0535C188.31 31.7294 190.985 29.1177 194.328 27.909C222.582 17.5915 247.924 11.4398 267.637 10.1232C287.997 8.74174 301.154 12.6702 305.683 21.4767L386.951 179.153C387.081 179.39 386.973 179.671 386.757 179.8C386.52 179.93 386.24 179.822 386.11 179.606C381.689 171.037 368.511 167.303 347.999 168.835C327.833 170.346 301.93 176.8 273.115 187.528C271.714 188.024 270.268 188.283 268.823 188.283ZM188.396 44.8098L258.665 181.117C261.318 186.254 267.4 188.607 272.813 186.6C327.661 166.181 369.74 161.95 383.716 174.879L304.842 21.8868C296.064 4.8565 252.82 7.57617 194.651 28.7939C191.567 29.9163 189.108 32.3338 187.9 35.3988C186.714 38.4639 186.887 41.8958 188.396 44.8098Z" fill="#292C33"/>
<path d="M270.894 96.7642C269.233 97.3254 267.529 97.8218 265.761 98.2319C254.502 100.952 252.216 98.2319 222.797 97.2174C186.843 95.9655 174.701 99.4838 166.224 103.196C161.393 105.312 157.576 107.578 150.868 111.55C128.049 125.062 122.204 133.588 116.251 131.645C114.893 131.213 113.534 130.199 112.304 128.299C103.181 135.185 92.7639 133.652 87.0699 131.99C87.0699 133.285 87.1346 134.581 87.2425 135.919C87.5876 139.782 88.1699 146.538 92.3325 152.258C101.283 164.54 123.326 167.26 146.878 159.23C145.39 162.468 133.376 189.665 147.525 214.984C162.17 241.123 194.177 246.389 215.227 242.785C249.542 236.935 276.998 203.76 272.296 184.01C271.498 180.621 267.939 175.699 260.865 166.029C252.496 154.59 244.926 145.675 239.577 139.675C245.336 139.329 265.178 137.408 282.476 121.457C284.05 120.011 285.495 118.543 286.854 117.032C277.019 113.751 272.706 103.585 270.894 96.7642Z" fill="white"/>
<path d="M202.976 244.296C194.759 244.296 186.369 243.001 178.842 240.518C164.736 235.834 153.78 227.093 147.137 215.243C134.002 191.78 143.039 166.914 146.015 160.051C122.506 167.778 100.873 164.821 91.9443 152.561C87.717 146.754 87.1131 140.02 86.768 135.984C86.6602 134.688 86.5955 133.35 86.5955 132.012C86.5955 131.861 86.6602 131.731 86.7896 131.623C86.919 131.537 87.07 131.516 87.1994 131.537C92.5914 133.113 102.966 134.732 112.003 127.911C112.11 127.825 112.24 127.803 112.369 127.825C112.499 127.846 112.606 127.932 112.693 128.04C113.75 129.681 115.001 130.738 116.402 131.192C119.681 132.249 123.11 129.789 129.926 124.846C134.714 121.392 141.249 116.665 150.609 111.118C157.425 107.082 161.156 104.858 166.03 102.743C174.205 99.1601 186.002 95.4475 222.819 96.721C234.617 97.1311 242.036 97.8218 247.45 98.3183C255.602 99.0737 258.988 99.3759 265.653 97.7571C267.335 97.347 269.039 96.8505 270.743 96.2893C270.872 96.2461 271.002 96.2677 271.11 96.3325C271.217 96.3972 271.304 96.5052 271.347 96.6347C273.31 103.995 277.623 113.449 287.027 116.601C287.178 116.644 287.286 116.773 287.329 116.924C287.372 117.075 287.329 117.248 287.221 117.356C285.819 118.91 284.331 120.421 282.821 121.802C267.486 135.94 250.146 139.351 240.591 140.085C247.795 148.222 254.761 156.856 261.253 165.77C268.651 175.894 271.951 180.513 272.77 183.923C274.517 191.262 271.994 200.565 265.696 210.127C254.589 226.941 234.811 239.957 215.313 243.281C211.345 243.95 207.182 244.296 202.976 244.296ZM146.9 158.777C147.029 158.777 147.158 158.842 147.245 158.928C147.374 159.079 147.396 159.273 147.331 159.446C145.045 164.411 134.325 190.399 147.978 214.768C161.674 239.245 192.43 246.217 215.184 242.331C234.422 239.05 253.963 226.186 264.941 209.587C271.11 200.263 273.568 191.219 271.886 184.139C271.088 180.772 267.335 175.635 260.52 166.332C253.834 157.201 246.695 148.33 239.275 139.998C239.146 139.869 239.124 139.675 239.189 139.502C239.254 139.329 239.426 139.221 239.599 139.2C248.787 138.638 266.537 135.552 282.196 121.112C283.511 119.903 284.805 118.608 286.056 117.248C276.933 113.838 272.619 104.686 270.57 97.347C268.996 97.865 267.422 98.2967 265.89 98.6852C259.075 100.347 255.408 100.002 247.363 99.268C241.95 98.7715 234.552 98.0808 222.776 97.6707C186.175 96.3972 174.485 100.067 166.397 103.607C161.587 105.722 157.856 107.923 151.084 111.938C141.766 117.442 135.253 122.169 130.486 125.623C123.412 130.738 119.853 133.307 116.1 132.098C114.612 131.623 113.297 130.566 112.175 128.969C103.224 135.444 93.1737 134.149 87.5444 132.616C87.566 133.717 87.6092 134.818 87.717 135.876C88.0621 139.804 88.6444 146.366 92.7208 151.978C101.521 164.065 123.239 166.807 146.749 158.777C146.792 158.777 146.856 158.777 146.9 158.777Z" fill="#292C33"/>
<path d="M314.763 72.2224L311.679 74.1866L316.381 65.7254C316.618 65.3153 316.618 64.8189 316.424 64.3872C315.971 63.4159 314.655 63.2648 313.965 64.085L307.711 71.7476L312.003 60.9336C312.348 60.0486 312.024 59.0342 311.205 58.5161C310.169 57.8902 308.832 58.3219 308.358 59.4227L304.238 69.179L305.662 60.6746C305.834 59.6601 305.079 58.6672 304.044 58.6888C303.397 58.6888 302.793 59.0557 302.556 60.3077C301.973 63.3079 298.932 75.309 298.932 75.309C298.932 75.309 297.617 74.8342 295.913 72.5246C294.209 70.215 293.519 71.4885 293.519 71.4885C292.484 75.0068 295.007 78.8705 296.84 81.0721C290.607 86.7489 281.98 93.0301 270.851 96.7211C272.684 103.563 276.998 113.708 286.833 117.011C297.617 105.096 301.585 92.253 303.073 85.7776C307.409 83.9861 314.763 75.9566 316.402 74.1219C316.618 73.8844 316.726 73.5823 316.726 73.2585C316.769 72.2872 315.626 71.6612 314.763 72.2224Z" fill="white"/>
<path d="M286.876 117.529C286.833 117.529 286.768 117.529 286.725 117.507C276.933 114.226 272.468 104.492 270.441 96.8937C270.376 96.6563 270.506 96.3973 270.743 96.3109C279.78 93.3107 288.342 88.1735 296.236 81.0506C294.166 78.482 292.095 74.8126 293.109 71.3806C293.109 71.359 293.131 71.3159 293.152 71.2943C293.174 71.2295 293.476 70.7331 294.101 70.6899C294.791 70.6467 295.525 71.1648 296.344 72.2656C297.336 73.6038 298.177 74.2945 298.674 74.6183C299.299 72.1577 301.65 62.7899 302.146 60.2213C302.491 58.4945 303.526 58.2139 304.109 58.2139H304.13C304.734 58.2139 305.295 58.473 305.683 58.9478C306.115 59.4443 306.287 60.1134 306.179 60.7609L305.424 65.2721L307.969 59.25C308.25 58.5809 308.789 58.0844 309.479 57.8686C310.169 57.6527 310.903 57.7391 311.507 58.106C312.52 58.732 312.93 59.9839 312.499 61.0847L309.328 69.0495L313.62 63.7828C314.052 63.2648 314.699 63.0057 315.346 63.0921C316.014 63.1784 316.575 63.5885 316.855 64.1929C317.114 64.7541 317.093 65.4232 316.791 65.9628L312.995 72.7836L314.483 71.8339C315.044 71.4885 315.712 71.4669 316.273 71.7691C316.855 72.0929 317.2 72.6541 317.2 73.3232C317.2 73.7549 317.049 74.1866 316.748 74.5104C314.72 76.7768 307.84 84.2235 303.462 86.1877C301.564 94.3683 297.185 106.326 287.178 117.399C287.135 117.464 287.005 117.529 286.876 117.529ZM271.455 97.0664C273.461 104.297 277.709 113.32 286.725 116.493C296.538 105.528 300.787 93.7208 302.642 85.7128C302.685 85.5618 302.771 85.4322 302.922 85.3891C307.193 83.6191 314.634 75.4817 316.079 73.8629C316.208 73.7118 316.295 73.5175 316.295 73.3232C316.295 73.021 316.144 72.7404 315.863 72.6109C315.604 72.4598 315.281 72.4814 315.022 72.6325L311.938 74.5967C311.765 74.7047 311.506 74.6831 311.356 74.532C311.205 74.3809 311.161 74.1435 311.269 73.9492L315.971 65.488C316.122 65.2074 316.144 64.8836 315.993 64.5814C315.842 64.2792 315.561 64.0634 315.216 64.0202C314.871 63.9771 314.548 64.1066 314.332 64.3656L308.077 72.0282C307.926 72.2008 307.667 72.2656 307.473 72.1361C307.279 72.0282 307.193 71.7691 307.279 71.5533L311.571 60.7393C311.83 60.0702 311.593 59.2932 310.967 58.9047C310.601 58.6672 310.148 58.6241 309.716 58.7536C309.307 58.8831 308.961 59.1853 308.789 59.5954L304.669 69.3516C304.583 69.5675 304.324 69.697 304.109 69.6322C303.871 69.5675 303.742 69.3301 303.764 69.0926L305.187 60.5883C305.252 60.2213 305.144 59.8328 304.907 59.5522C304.691 59.2932 304.367 59.1421 304.066 59.1637C303.85 59.1637 303.268 59.1637 303.03 60.4156C302.448 63.3943 299.536 74.9637 299.407 75.4601C299.364 75.5896 299.277 75.6975 299.17 75.7623C299.062 75.8271 298.911 75.8271 298.781 75.7839C298.717 75.7623 297.315 75.2443 295.525 72.8268C294.683 71.6828 294.209 71.618 294.101 71.6396C294.015 71.6396 293.972 71.6828 293.929 71.726C292.98 75.0932 295.568 78.8489 297.185 80.8131C297.358 81.0074 297.336 81.288 297.142 81.4607C289.248 88.6915 280.578 93.9582 271.455 97.0664Z" fill="#292C33"/>
<path d="M107.559 101.103C109.587 97.8003 109.005 89.8572 106.74 86.0151C104.454 82.1083 96.5814 70.949 96.5814 70.949C92.6991 73.9924 98.4794 82.9501 98.4794 82.9501C91.7502 87.267 95.5246 91.8214 95.5246 91.8214C92.807 97.455 96.2579 99.376 98.3284 100.024C93.8423 106.046 87.0268 117.464 87.0699 132.012C92.7639 133.674 103.16 135.207 112.304 128.321C109.738 124.328 107.754 116.385 107.559 101.103Z" fill="white"/>
<path d="M96.603 133.89C92.7639 133.89 89.3777 133.178 86.9405 132.465C86.7464 132.401 86.5954 132.228 86.5954 132.012C86.5523 118.349 92.4619 107.298 97.5736 100.261C96.4089 99.8077 95.0932 98.9875 94.4462 97.4981C93.7776 95.9872 93.9717 94.0878 94.9854 91.8645C94.5972 91.2817 93.7776 89.7924 94.0795 87.8714C94.3815 86.0151 95.6324 84.2883 97.8539 82.799C96.754 80.9643 92.5698 73.4744 96.301 70.5604C96.4089 70.4741 96.5383 70.4525 96.6677 70.4741C96.7971 70.4957 96.905 70.5604 96.9912 70.6684C97.0775 70.7763 104.885 81.8924 107.171 85.7561C109.35 89.4902 110.148 97.5845 108.056 101.211C108.228 114.485 109.803 123.508 112.736 128.04C112.865 128.256 112.822 128.537 112.628 128.666C107.301 132.681 101.585 133.89 96.603 133.89ZM87.5444 131.645C92.9364 133.156 102.901 134.559 111.657 128.192C108.789 123.4 107.236 114.291 107.063 101.103C107.063 101.016 107.085 100.93 107.128 100.844C108.983 97.8219 108.53 90.0514 106.309 86.2309C104.324 82.8205 97.9833 73.755 96.4952 71.6397C93.7776 74.6831 98.8245 82.5831 98.8676 82.6694C98.9323 82.7774 98.9539 82.9069 98.9323 83.0364C98.9108 83.1659 98.8245 83.2738 98.7167 83.3386C96.4952 84.7632 95.2442 86.3388 94.9854 88.0225C94.6619 90.0298 95.8697 91.4976 95.8697 91.5192C95.9775 91.6703 96.0207 91.8645 95.9344 92.0156C94.9423 94.0878 94.7266 95.7929 95.2873 97.1096C95.9128 98.5342 97.3579 99.2249 98.4363 99.5487C98.5873 99.5919 98.6951 99.6998 98.7382 99.8509C98.7814 100.002 98.7598 100.153 98.6735 100.283C93.6482 107.125 87.6307 118.068 87.5444 131.645Z" fill="#292C33"/>
<path d="M102.685 98.1673C102.577 98.1673 102.47 98.1241 102.383 98.0593C102.254 97.9514 99.1049 95.167 100.55 92.0372C101.715 89.555 101.542 89.2528 100.55 87.6555L100.421 87.4397C99.1696 85.3675 100.377 83.5329 100.442 83.4681C100.528 83.3602 100.636 83.2738 100.787 83.2738C100.917 83.2522 101.068 83.2954 101.154 83.4033L105.683 87.5908C105.877 87.7634 105.877 88.0656 105.705 88.2599C105.532 88.4542 105.23 88.4542 105.036 88.2815L100.96 84.5257C100.766 85.0654 100.615 85.9719 101.219 86.9648L101.348 87.1807C102.448 88.9938 102.707 89.6413 101.391 92.4689C100.248 94.9296 102.966 97.3471 102.987 97.3686C103.181 97.5413 103.203 97.8435 103.03 98.0378C102.944 98.1025 102.815 98.1673 102.685 98.1673Z" fill="#292C33"/>
<path d="M98.2853 94.4546C97.7461 94.4546 97.2285 94.2388 96.8403 93.8503L95.2227 92.1667C95.0501 91.9724 95.0501 91.6702 95.2442 91.4975C95.4383 91.3249 95.7403 91.3249 95.9128 91.5191L97.5304 93.2027C97.9187 93.5912 98.5441 93.6344 98.9755 93.2891C99.1696 93.1164 99.4716 93.1596 99.6441 93.3538C99.8166 93.5481 99.7735 93.8503 99.5794 94.0229C99.1912 94.3035 98.7382 94.4546 98.2853 94.4546Z" fill="#292C33"/>
<path d="M253.791 338.944C253.898 339.484 270.571 363.594 270.571 363.594L257.112 367.112L243.848 346.348L253.791 338.944Z" fill="white"/>
<path d="M257.09 367.609C256.94 367.609 256.789 367.523 256.681 367.393L243.416 346.629C243.287 346.413 243.33 346.132 243.524 346.003L253.489 338.599C253.618 338.491 253.791 338.47 253.942 338.534C254.071 338.578 254.179 338.685 254.222 338.815C254.675 339.743 264.445 353.967 270.937 363.357C271.023 363.486 271.045 363.637 271.002 363.788C270.959 363.94 270.829 364.047 270.678 364.091L257.22 367.609C257.177 367.587 257.134 367.609 257.09 367.609ZM244.473 346.478L257.328 366.594L269.816 363.335C263.086 353.622 255.365 342.376 253.683 339.657L244.473 346.478Z" fill="#292C33"/>
<path d="M257.026 360.378C257.026 360.378 258.6 353.32 266.278 355.349C266.278 355.349 282.67 371.883 290.284 386.582C292.44 390.748 288.623 395.518 284.094 394.352C273.482 391.654 256.422 385.071 244.538 369.357C244.538 369.357 246.005 361.76 249.801 357.702L257.026 360.378Z" fill="white"/>
<path d="M285.452 395C284.956 395 284.46 394.935 283.964 394.806C272.231 391.827 255.796 385.049 244.15 369.638C244.063 369.53 244.042 369.401 244.063 369.271C244.128 368.947 245.595 361.501 249.434 357.378C249.563 357.248 249.757 357.184 249.952 357.248L256.724 359.731C257.047 358.781 257.932 356.709 259.959 355.478C261.706 354.399 263.884 354.205 266.408 354.874C266.494 354.896 266.559 354.939 266.624 355.004C266.796 355.176 283.145 371.753 290.715 386.345C291.793 388.438 291.556 390.877 290.09 392.734C288.925 394.201 287.221 395 285.452 395ZM245.034 369.249C256.508 384.316 272.663 390.964 284.201 393.899C286.121 394.396 288.084 393.726 289.335 392.151C290.564 390.597 290.78 388.546 289.874 386.798C282.67 372.897 267.378 357.119 266.041 355.781C263.841 355.219 261.965 355.414 260.455 356.32C258.126 357.723 257.5 360.464 257.479 360.486C257.457 360.616 257.371 360.723 257.241 360.788C257.112 360.853 256.983 360.875 256.853 360.81L249.908 358.263C246.759 361.846 245.293 368.041 245.034 369.249Z" fill="#292C33"/>
<path d="M283.964 389.69C278.184 389.69 265.675 387.122 247.579 369.66C247.385 369.487 247.385 369.185 247.557 368.99C247.73 368.796 248.032 368.796 248.226 368.969C272.835 392.734 287.156 388.395 287.286 388.352C287.523 388.266 287.803 388.395 287.89 388.654C287.976 388.892 287.847 389.172 287.588 389.258C287.437 389.323 286.186 389.69 283.964 389.69Z" fill="#292C33"/>
<path d="M272.792 376.653C272.663 376.653 272.533 376.588 272.425 376.48C272.253 376.286 272.274 375.984 272.49 375.811L278.378 370.825C278.572 370.652 278.874 370.674 279.047 370.89C279.219 371.084 279.198 371.386 278.982 371.559L273.094 376.545C273.029 376.61 272.921 376.653 272.792 376.653Z" fill="#292C33"/>
<path d="M268.651 372.314C268.522 372.314 268.371 372.25 268.284 372.142C268.112 371.926 268.155 371.645 268.371 371.473L274.798 366.379C275.014 366.206 275.294 366.249 275.466 366.465C275.639 366.681 275.596 366.961 275.38 367.134L268.953 372.228C268.845 372.293 268.759 372.314 268.651 372.314Z" fill="#292C33"/>
<path d="M212.574 284.033L201.402 292.624L211.215 305.985L221.676 295.991L212.574 284.033Z" fill="white"/>
<path d="M211.215 306.438C211.194 306.438 211.194 306.438 211.172 306.438C211.043 306.416 210.913 306.352 210.827 306.244L201.014 292.904C200.863 292.689 200.906 292.408 201.1 292.257L212.272 283.666C212.38 283.58 212.509 283.558 212.617 283.58C212.747 283.601 212.855 283.666 212.941 283.752L222.043 295.71C222.194 295.905 222.172 296.164 221.999 296.336L211.539 306.33C211.453 306.395 211.323 306.438 211.215 306.438ZM202.049 292.732L211.259 305.272L221.029 295.948L212.466 284.724L202.049 292.732Z" fill="#292C33"/>
<path d="M217.858 304.409L207.463 295.991L205.5 288.933C200.043 288.803 193.918 292.861 190.553 295.473C189 296.682 188.483 298.819 189.367 300.589C194.91 311.856 207.398 329.426 213.458 337.714C214.99 339.808 218.29 339.117 218.807 336.592C221.503 323.922 217.858 304.409 217.858 304.409Z" fill="white"/>
<path d="M215.874 339.419C214.774 339.419 213.739 338.901 213.07 337.995C206.406 328.865 194.392 311.899 188.936 300.804C187.965 298.862 188.526 296.466 190.273 295.106C193.486 292.602 199.655 288.458 205.241 288.458C205.327 288.458 205.414 288.458 205.521 288.458C205.737 288.458 205.91 288.609 205.974 288.803L207.894 295.71L218.16 304.042C218.247 304.107 218.311 304.215 218.333 304.323C218.376 304.517 221.956 324.073 219.303 336.7C219.023 338.038 218.009 339.053 216.65 339.355C216.392 339.398 216.133 339.419 215.874 339.419ZM205.155 289.408C199.892 289.451 193.961 293.444 190.877 295.862C189.496 296.941 189.065 298.84 189.82 300.394C195.233 311.424 207.204 328.347 213.868 337.434C214.472 338.254 215.464 338.642 216.456 338.427C217.427 338.211 218.182 337.477 218.376 336.506C220.856 324.699 217.794 306.632 217.427 304.69L207.182 296.38C207.096 296.315 207.053 296.228 207.031 296.142L205.155 289.408Z" fill="#292C33"/>
<path d="M214.364 333.138C214.213 333.138 214.062 333.074 213.976 332.944L197.433 309.071C196.29 307.431 195.794 305.38 196.01 303.287C196.42 299.315 194.824 295.236 194.802 295.192C194.716 294.955 194.824 294.674 195.061 294.566C195.298 294.459 195.579 294.588 195.686 294.825C195.751 294.998 197.39 299.164 196.959 303.373C196.765 305.251 197.218 307.064 198.21 308.532L214.752 332.404C214.903 332.62 214.839 332.922 214.623 333.074C214.558 333.117 214.472 333.138 214.364 333.138Z" fill="#292C33"/>
<path d="M223.703 170.713C223.703 170.713 255.624 195.924 272.49 219.538C277.213 226.143 277.882 234.82 274.302 242.094C266.537 257.894 249.714 286.235 223.703 300.373L201.855 272.42C201.855 272.42 220.964 251.267 235.005 241.641L199.18 201.472L190.273 181.29L223.703 170.713Z" fill="#292C33"/>
<path d="M239.06 359.061C240.203 361.047 265.933 342.225 265.933 342.225C265.933 342.225 246.242 319.151 214.947 201.925C214.58 200.565 208.821 171.879 208.821 171.879L166.052 194.327C166.052 194.327 173.558 243.648 239.06 359.061Z" fill="#292C33"/>
<path d="M220.08 221.2C219.864 221.2 219.692 221.071 219.627 220.855L215.615 206.134C214.86 203.393 215.356 200.479 216.952 198.148L219.411 194.543C219.562 194.327 219.843 194.262 220.08 194.413C220.295 194.564 220.36 194.867 220.209 195.083L217.75 198.687C216.305 200.802 215.874 203.414 216.543 205.896L220.554 220.596C220.619 220.855 220.468 221.114 220.231 221.178C220.166 221.2 220.123 221.2 220.08 221.2Z" fill="white"/>
<path d="M246.199 298.149C246.005 298.149 245.832 298.041 245.767 297.869C245.659 297.631 235.954 274.838 232.352 263.376C232.266 263.117 232.417 262.858 232.654 262.772C232.913 262.686 233.172 262.837 233.258 263.074C236.86 274.493 246.544 297.243 246.652 297.48C246.759 297.718 246.652 297.998 246.393 298.106C246.328 298.128 246.263 298.149 246.199 298.149Z" fill="white"/>
<path d="M155.98 118.392C156.799 135.466 159.215 178.095 163.658 195.212C164.24 197.414 166.656 198.558 168.726 197.63C178.906 193.032 207.851 180.75 229.872 179.088C233.021 178.851 235.091 175.721 234.12 172.742C229.893 159.835 220.468 129.551 217.815 108.852C217.06 102.959 212.38 98.4263 206.578 97.973C195.859 97.1312 178.54 97.7572 162.234 106.909C158.18 109.197 155.764 113.665 155.98 118.392Z" fill="white"/>
<path d="M167.217 198.428C166.613 198.428 165.987 198.299 165.426 198.018C164.326 197.5 163.507 196.507 163.205 195.342C158.74 178.225 156.325 135.854 155.505 118.414C155.268 113.514 157.834 108.852 162.019 106.477C178.13 97.4118 195.169 96.5916 206.621 97.4766C212.596 97.9514 217.513 102.678 218.29 108.765C220.964 129.573 230.562 160.31 234.573 172.57C235.091 174.145 234.854 175.829 233.948 177.189C233.042 178.549 231.575 179.412 229.936 179.542C208.239 181.182 180.05 193.032 168.942 198.061C168.381 198.299 167.799 198.428 167.217 198.428ZM156.454 118.371C157.274 135.768 159.689 178.074 164.132 195.104C164.37 196.011 164.995 196.766 165.836 197.176C166.699 197.586 167.691 197.608 168.554 197.198C179.704 192.147 208.023 180.254 229.872 178.613C231.209 178.506 232.417 177.815 233.171 176.692C233.926 175.57 234.12 174.167 233.689 172.894C229.677 160.612 220.037 129.81 217.362 108.916C216.65 103.283 212.1 98.8796 206.557 98.4479C195.233 97.5629 178.389 98.3831 162.493 107.319C158.611 109.499 156.238 113.838 156.454 118.371Z" fill="#292C33"/>
<path d="M175.413 75.9998C175.413 75.9998 172.091 69.2438 170.926 68.035C169.762 66.8479 168.856 65.596 172.307 63.2864C175.758 60.9768 184.773 54.8036 190.294 54.8468C195.816 54.89 199.677 58.3651 197.994 60.8905C196.29 63.4159 195.514 64.4736 196.83 64.6247C198.145 64.7973 198.857 66.2435 195.147 68.402C191.394 70.5604 178.454 79.9066 175.413 75.9998Z" fill="#292C33"/>
<path d="M194.306 99.5056L192.387 89.2528C198.188 86.3389 195.859 82.3025 194.975 79.0648C194.047 75.5897 191.157 68.0566 191.157 68.0566C186.391 70.8627 177.052 70.0208 177.052 70.0208C177.052 70.0208 178.389 72.1577 177.612 73.2154C176.836 74.273 177.332 78.3094 177.332 78.3094C177.332 78.3094 175.671 76.7337 173.881 77.9424C172.868 78.6116 174.032 81.5039 174.852 83.1228C175.671 84.7416 177.44 85.0654 177.44 85.0654C177.44 85.0654 177.742 84.8927 178.324 86.3173L175.154 103.024L168.942 105.614L182.789 107.492C187.146 108.075 191.589 106.909 195.083 104.233L200.043 100.434L194.306 99.5056Z" fill="white"/>
<path d="M184.989 108.053C184.234 108.053 183.5 108.01 182.746 107.902L168.899 106.024C168.683 106.003 168.511 105.83 168.489 105.614C168.468 105.398 168.575 105.204 168.77 105.118L174.744 102.635L177.828 86.3173C177.591 85.7777 177.44 85.5619 177.354 85.4755C177.354 85.4755 177.354 85.4755 177.332 85.4755C177.246 85.4539 175.326 85.087 174.399 83.2955C173.687 81.8709 172.156 78.4821 173.601 77.5108C174.744 76.7337 175.909 76.928 176.75 77.3381C176.642 75.9783 176.599 73.755 177.224 72.9132C177.699 72.2657 176.944 70.7332 176.642 70.2583C176.556 70.1072 176.556 69.913 176.642 69.7619C176.728 69.6108 176.901 69.5244 177.095 69.546C177.181 69.546 186.347 70.3446 190.92 67.6466C191.049 67.5818 191.179 67.5602 191.308 67.6034C191.438 67.6466 191.545 67.7545 191.588 67.884C191.696 68.1862 194.479 75.4818 195.406 78.9569C195.514 79.3886 195.665 79.8203 195.816 80.2736C196.743 83.2091 197.908 86.8354 192.883 89.5334L194.694 99.1171L200.086 99.9373C200.28 99.9589 200.431 100.11 200.475 100.283C200.518 100.477 200.453 100.671 200.302 100.779L195.341 104.578C192.408 106.823 188.698 108.053 184.989 108.053ZM170.754 105.312L182.853 106.952C187.059 107.513 191.416 106.37 194.781 103.779L198.857 100.65L194.22 99.9589C194.026 99.9373 193.853 99.7862 193.832 99.5703L191.912 89.3176C191.869 89.1017 191.977 88.9075 192.171 88.7996C196.83 86.4684 195.859 83.4466 194.932 80.511C194.781 80.0362 194.63 79.5829 194.522 79.1512C193.745 76.2589 191.567 70.431 190.92 68.6826C186.822 70.7763 180.244 70.6252 177.893 70.4957C178.259 71.316 178.648 72.5895 178.022 73.4313C177.569 74.0572 177.634 76.5826 177.828 78.1799C177.85 78.3742 177.742 78.5684 177.569 78.6548C177.397 78.7411 177.181 78.7195 177.03 78.5684C176.965 78.5252 175.607 77.2733 174.162 78.2446C173.73 78.5252 174.032 80.3599 175.283 82.799C175.909 84.0078 177.181 84.3963 177.483 84.461C177.548 84.461 177.612 84.461 177.699 84.4826C177.958 84.569 178.303 84.8064 178.799 85.9936C178.842 86.0799 178.842 86.1662 178.82 86.2742L175.65 102.981C175.628 103.132 175.52 103.261 175.369 103.326L170.754 105.312ZM177.699 85.4323C177.677 85.4539 177.656 85.4539 177.634 85.4539C177.656 85.4539 177.677 85.4323 177.699 85.4323Z" fill="#292C33"/>
<path d="M187.038 90.9364C181.732 90.9364 179.769 86.8353 179.748 86.7922C179.64 86.5547 179.748 86.2741 179.985 86.1662C180.222 86.0583 180.503 86.1662 180.61 86.4036C180.718 86.6626 183.565 92.4473 192.192 88.8211C192.43 88.7132 192.71 88.8427 192.818 89.0801C192.926 89.3176 192.796 89.5982 192.559 89.7061C190.424 90.5695 188.591 90.9364 187.038 90.9364Z" fill="#292C33"/>
<path d="M173.191 72.6973L174.96 77.8776C174.96 77.8776 186.24 84.6336 199.677 81.8924C201.51 81.5254 202.696 79.6908 202.265 77.8561L201.229 68.7257C200.82 66.9126 199.008 65.7686 197.196 66.2003L173.191 72.6973Z" fill="white"/>
<path d="M193.185 83.0148C182.767 83.0148 174.83 78.3525 174.722 78.2877C174.636 78.223 174.55 78.1366 174.507 78.0287L172.738 72.8484C172.695 72.7189 172.717 72.5894 172.76 72.4814C172.824 72.3735 172.932 72.2872 173.062 72.244L197.067 65.7686C198.081 65.5312 199.116 65.7038 199.978 66.2435C200.841 66.7831 201.445 67.6465 201.682 68.6394C201.682 68.6609 201.682 68.6825 201.682 68.6825L202.718 77.7697C202.933 78.7842 202.761 79.7986 202.2 80.662C201.639 81.5254 200.777 82.1298 199.763 82.3456C197.52 82.8421 195.298 83.0148 193.185 83.0148ZM175.369 77.5754C176.728 78.3309 187.318 83.9429 199.59 81.4607C200.345 81.3096 201.014 80.8563 201.424 80.2088C201.855 79.5612 201.984 78.7626 201.812 78.0071C201.812 77.9855 201.812 77.964 201.812 77.964L200.777 68.8768C200.604 68.1429 200.151 67.4954 199.504 67.1068C198.857 66.6967 198.081 66.5672 197.326 66.7399L173.817 73.0858L175.369 77.5754Z" fill="#292C33"/>
<path d="M185.959 78.8922C185.83 78.8922 185.722 78.849 185.614 78.7626C185.42 78.5684 185.42 78.2878 185.614 78.0935L189.906 73.7982C190.1 73.6039 190.381 73.6039 190.575 73.7982C190.769 73.9924 190.769 74.273 190.575 74.4673L186.283 78.7626C186.197 78.8274 186.089 78.8922 185.959 78.8922Z" fill="#292C33"/>
<path d="M192.387 78.0503C192.257 78.0503 192.149 78.0071 192.041 77.9207C191.847 77.7265 191.847 77.4459 192.041 77.2516L198.49 70.7978C198.684 70.6035 198.965 70.6035 199.159 70.7978C199.353 70.9921 199.353 71.2727 199.159 71.4669L192.71 77.9207C192.624 78.0071 192.516 78.0503 192.387 78.0503Z" fill="#292C33"/>
<path d="M112.757 338.578C112.736 338.578 112.736 338.578 112.757 338.578C97.9402 338.189 88.515 334.282 84.7622 326.987L3.47241 169.332C3.34301 169.095 3.45085 168.814 3.66653 168.684C3.90377 168.555 4.18416 168.663 4.31357 168.879C8.75657 177.491 22.0209 181.204 42.6615 179.628C62.9785 178.074 89.0326 171.512 117.998 160.677C123.865 158.475 130.465 161.022 133.333 166.612L203.602 302.941C205.219 306.093 205.414 309.805 204.141 313.129C202.847 316.453 200.194 319.065 196.851 320.274C188.461 323.36 180.201 326.102 172.285 328.454C172.026 328.519 171.767 328.39 171.703 328.131C171.638 327.872 171.767 327.613 172.026 327.548C179.92 325.195 188.159 322.454 196.528 319.389C199.612 318.266 202.071 315.849 203.257 312.784C204.443 309.719 204.27 306.287 202.761 303.373L132.514 167.066C129.861 161.907 123.757 159.554 118.344 161.583C84.072 174.404 54.7395 180.945 34.0774 180.945C21.4601 180.945 12.0565 178.506 6.72918 173.584L85.5818 326.577C89.1189 333.44 98.5226 337.261 112.757 337.65C113.016 337.65 113.232 337.865 113.21 338.146C113.21 338.383 113.016 338.578 112.757 338.578Z" fill="#292C33"/>
<path d="M152.162 333.764C151.946 333.764 151.752 333.613 151.709 333.397C151.644 333.138 151.817 332.879 152.076 332.836C158.417 331.39 165.146 329.62 172.026 327.569C172.285 327.505 172.544 327.634 172.609 327.893C172.673 328.152 172.544 328.411 172.285 328.476C165.383 330.527 158.633 332.318 152.27 333.764C152.248 333.743 152.205 333.764 152.162 333.764Z" fill="white"/>
<path d="M127.208 337.973C126.971 337.973 126.755 337.801 126.733 337.542C126.712 337.283 126.906 337.045 127.165 337.024C134.714 336.268 143.082 334.865 152.076 332.815C152.335 332.75 152.593 332.922 152.637 333.181C152.701 333.441 152.529 333.7 152.27 333.743C143.233 335.793 134.821 337.218 127.251 337.973C127.23 337.973 127.208 337.973 127.208 337.973Z" fill="#292C33"/>
<path d="M115.195 338.621C114.353 338.621 113.555 338.621 112.757 338.599C112.499 338.599 112.283 338.383 112.304 338.103C112.304 337.844 112.52 337.628 112.801 337.649C117.157 337.757 121.988 337.563 127.186 337.045C127.445 337.024 127.682 337.218 127.704 337.477C127.726 337.736 127.531 337.973 127.273 337.995C122.959 338.405 118.926 338.621 115.195 338.621Z" fill="white"/>
<path d="M244.452 298.646C239.944 298.646 235.566 296.185 233.387 291.955C233.258 291.717 233.366 291.437 233.581 291.307C233.819 291.178 234.099 291.286 234.228 291.501C237.075 297.027 243.912 299.272 249.477 296.509C252.561 294.977 255.667 293.422 258.73 291.825C299.105 270.974 334.735 246.843 359.042 223.898C383.22 201.061 393.271 182.196 387.383 170.757L308.552 17.7858C310.105 29.7222 299.666 46.8604 278.443 66.9126C254.071 89.9219 218.376 114.118 177.914 134.991C174.96 136.523 171.94 138.034 168.964 139.502C166.203 140.862 164.154 143.236 163.183 146.172C162.213 149.107 162.472 152.258 163.895 155L187.102 200.047C187.232 200.284 187.124 200.565 186.908 200.695C186.671 200.824 186.391 200.716 186.261 200.5L163.054 155.475C161.523 152.496 161.242 149.107 162.299 145.913C163.334 142.74 165.577 140.171 168.554 138.682C171.53 137.214 174.528 135.703 177.483 134.17C217.858 113.32 253.489 89.188 277.796 66.2435C301.952 43.4284 312.003 24.5634 306.136 13.1235L306.114 13.1019C305.985 12.8645 306.093 12.5839 306.309 12.4544C306.546 12.3249 306.826 12.4328 306.956 12.6487L388.224 170.325C394.328 182.175 384.191 201.45 359.689 224.589C335.318 247.598 299.622 271.795 259.161 292.667C256.098 294.243 252.971 295.818 249.887 297.351C248.161 298.236 246.306 298.646 244.452 298.646Z" fill="#292C33"/>
<path d="M233.819 292.192C233.646 292.192 233.473 292.106 233.387 291.933L217.492 261.089C217.362 260.851 217.47 260.57 217.686 260.441C217.923 260.311 218.203 260.419 218.333 260.635L234.228 291.48C234.358 291.717 234.25 291.998 234.034 292.127C233.97 292.17 233.883 292.192 233.819 292.192Z" fill="white"/>
<path d="M217.923 261.347C217.75 261.347 217.578 261.261 217.492 261.088L210.719 247.965C210.59 247.728 210.698 247.447 210.913 247.317C211.151 247.188 211.431 247.296 211.56 247.512L218.333 260.635C218.462 260.873 218.354 261.153 218.139 261.283C218.052 261.326 217.988 261.347 217.923 261.347Z" fill="#292C33"/>
<path d="M211.151 248.224C210.978 248.224 210.806 248.138 210.719 247.965L186.261 200.5C186.132 200.263 186.24 199.982 186.455 199.853C186.693 199.723 186.973 199.831 187.102 200.047L211.56 247.512C211.69 247.749 211.582 248.03 211.366 248.159C211.302 248.202 211.215 248.224 211.151 248.224Z" fill="white"/>
<path d="M186.973 155C186.8 155 186.628 154.913 186.542 154.741C186.412 154.503 186.52 154.223 186.736 154.093C250.771 121.025 302.038 79.7987 314.289 51.4796C314.397 51.2421 314.677 51.1342 314.914 51.2421C315.151 51.3501 315.259 51.6307 315.151 51.8681C302.815 80.3599 251.396 121.781 187.167 154.935C187.124 154.978 187.059 155 186.973 155Z" fill="#292C33"/>
<path d="M194.694 171.361C194.522 171.361 194.349 171.275 194.263 171.102C194.134 170.865 194.241 170.584 194.457 170.454C258.492 137.387 309.76 96.1599 322.01 67.8408C322.118 67.6033 322.398 67.4954 322.636 67.6033C322.873 67.7113 322.981 67.9919 322.873 68.2293C310.536 96.7211 259.118 138.142 194.888 171.296C194.845 171.361 194.781 171.361 194.694 171.361Z" fill="#292C33"/>
<path d="M222.927 176.628C222.754 176.628 222.603 176.541 222.517 176.39C222.388 176.153 222.474 175.872 222.69 175.743C238.671 166.677 253.704 157.137 267.335 147.424C267.551 147.272 267.853 147.316 268.004 147.531C268.155 147.747 268.112 148.05 267.896 148.201C254.243 157.935 239.189 167.476 223.164 176.563C223.078 176.628 223.013 176.628 222.927 176.628Z" fill="#292C33"/>
<path d="M278.637 140.15C278.486 140.15 278.356 140.085 278.27 139.955C278.119 139.739 278.141 139.459 278.356 139.286C304.95 118.953 323.196 99.3976 329.753 84.2236C329.861 83.9861 330.141 83.8782 330.378 83.9861C330.616 84.0941 330.724 84.3747 330.616 84.6121C323.994 99.9157 305.618 119.622 278.917 140.042C278.853 140.106 278.745 140.15 278.637 140.15Z" fill="#292C33"/>
<path d="M250.857 180.966C250.706 180.966 250.555 180.88 250.447 180.75C250.318 180.534 250.383 180.232 250.598 180.103C266.473 170.174 280.923 159.986 293.519 149.819C293.713 149.647 294.015 149.69 294.187 149.884C294.36 150.078 294.317 150.381 294.123 150.553C281.505 160.741 267.033 170.972 251.116 180.901C251.03 180.944 250.944 180.966 250.857 180.966Z" fill="#292C33"/>
<path d="M302.491 143.409C302.362 143.409 302.232 143.344 302.124 143.236C301.952 143.042 301.973 142.74 302.168 142.567C320.155 126.94 332.363 112.435 337.474 100.585C337.582 100.347 337.863 100.239 338.1 100.347C338.337 100.455 338.445 100.736 338.337 100.973C333.161 112.931 320.867 127.566 302.771 143.279C302.707 143.366 302.599 143.409 302.491 143.409Z" fill="#292C33"/>
<path d="M225.601 236.827C225.429 236.827 225.256 236.741 225.17 236.568C225.04 236.331 225.148 236.05 225.364 235.921C228.276 234.41 231.23 232.856 234.142 231.302C234.379 231.172 234.66 231.258 234.789 231.496C234.919 231.733 234.832 232.014 234.595 232.143C231.683 233.698 228.729 235.252 225.817 236.763C225.752 236.806 225.666 236.827 225.601 236.827Z" fill="#292C33"/>
<path d="M234.379 232.208C234.207 232.208 234.056 232.122 233.97 231.949C233.84 231.712 233.926 231.431 234.164 231.302C243.481 226.294 252.626 221.049 261.361 215.718C261.577 215.588 261.879 215.653 262.008 215.869C262.137 216.085 262.073 216.387 261.857 216.516C253.1 221.869 243.934 227.114 234.617 232.122C234.53 232.187 234.466 232.208 234.379 232.208Z" fill="white"/>
<path d="M261.598 216.602C261.447 216.602 261.275 216.516 261.188 216.365C261.059 216.149 261.124 215.847 261.339 215.717C284.633 201.493 305.403 186.341 321.406 171.922C337.28 157.59 348.194 144.251 352.917 133.307C353.025 133.07 353.305 132.962 353.542 133.07C353.78 133.178 353.888 133.458 353.78 133.696C343.945 156.403 309.565 187.377 261.814 216.538C261.771 216.581 261.684 216.602 261.598 216.602Z" fill="#292C33"/>
<path d="M233.322 253.189C233.15 253.189 232.977 253.102 232.891 252.93C232.762 252.692 232.87 252.412 233.085 252.282C243.179 247.059 253.122 241.576 262.655 235.921C262.871 235.791 263.173 235.856 263.302 236.093C263.431 236.309 263.367 236.612 263.129 236.741C253.596 242.396 243.632 247.9 233.517 253.124C233.473 253.167 233.409 253.189 233.322 253.189Z" fill="white"/>
<path d="M262.914 236.827C262.741 236.827 262.59 236.741 262.504 236.59C262.375 236.374 262.439 236.072 262.677 235.942C312.973 206.155 350.523 173.109 360.66 149.69C360.768 149.452 361.048 149.345 361.285 149.452C361.523 149.56 361.63 149.841 361.523 150.078C351.299 173.67 313.62 206.889 263.151 236.763C263.086 236.806 263 236.827 262.914 236.827Z" fill="#292C33"/>
<path d="M241.044 269.55C240.871 269.55 240.699 269.463 240.612 269.291C240.483 269.053 240.591 268.773 240.807 268.643C246.716 265.6 252.604 262.427 258.32 259.232C258.557 259.103 258.837 259.189 258.967 259.405C259.096 259.642 259.01 259.923 258.794 260.052C253.057 263.269 247.169 266.442 241.238 269.485C241.195 269.528 241.13 269.55 241.044 269.55Z" fill="#292C33"/>
<path d="M258.579 260.139C258.406 260.139 258.255 260.052 258.169 259.901C258.039 259.664 258.126 259.383 258.341 259.254C314.202 227.999 357.403 191.413 368.381 166.073C368.489 165.835 368.77 165.727 369.007 165.835C369.244 165.943 369.352 166.224 369.244 166.461C363.852 178.937 350.739 194.262 331.371 210.753C311.765 227.438 286.682 244.49 258.816 260.074C258.751 260.117 258.665 260.139 258.579 260.139Z" fill="#292C33"/>
<path d="M296.452 305.639C296.301 305.639 296.128 305.553 296.042 305.402C295.913 305.186 295.978 304.884 296.193 304.754C297.811 303.761 299.428 302.769 301.024 301.776C301.24 301.646 301.542 301.711 301.671 301.927C301.801 302.143 301.736 302.445 301.52 302.574C299.924 303.567 298.307 304.56 296.668 305.553C296.603 305.618 296.517 305.639 296.452 305.639ZM306.093 299.639C305.942 299.639 305.791 299.552 305.683 299.423C305.554 299.207 305.618 298.905 305.834 298.775C307.452 297.761 309.026 296.725 310.622 295.71C310.838 295.559 311.14 295.624 311.269 295.84C311.42 296.056 311.356 296.358 311.118 296.487C309.544 297.502 307.948 298.538 306.33 299.552C306.265 299.617 306.179 299.639 306.093 299.639ZM315.626 293.466C315.475 293.466 315.324 293.401 315.238 293.25C315.087 293.034 315.151 292.732 315.367 292.602C316.963 291.545 318.538 290.487 320.091 289.451C320.306 289.3 320.608 289.364 320.738 289.58C320.889 289.796 320.824 290.098 320.608 290.228C319.055 291.286 317.481 292.343 315.885 293.401C315.82 293.444 315.712 293.466 315.626 293.466ZM325.03 287.077C324.879 287.077 324.728 287.012 324.641 286.882C324.49 286.666 324.555 286.364 324.771 286.213C326.324 285.134 327.877 284.033 329.408 282.954C329.624 282.803 329.926 282.846 330.077 283.062C330.228 283.278 330.184 283.58 329.969 283.731C328.437 284.832 326.863 285.933 325.31 287.012C325.224 287.055 325.137 287.077 325.03 287.077ZM334.304 280.493C334.153 280.493 334.023 280.428 333.916 280.299C333.765 280.083 333.808 279.781 334.023 279.63C335.555 278.507 337.108 277.363 338.574 276.241C338.79 276.09 339.07 276.133 339.243 276.327C339.394 276.543 339.351 276.824 339.157 276.996C337.668 278.119 336.137 279.263 334.584 280.385C334.498 280.45 334.39 280.493 334.304 280.493Z" fill="#292C33"/>
<path d="M338.855 277.104C338.704 277.104 338.574 277.04 338.467 276.91C338.316 276.694 338.359 276.414 338.553 276.241L338.661 276.155C338.876 276.004 339.157 276.047 339.329 276.241C339.48 276.457 339.437 276.738 339.243 276.91L339.135 276.997C339.07 277.061 338.963 277.104 338.855 277.104ZM343.492 273.565C343.341 273.565 343.211 273.5 343.125 273.37C342.974 273.154 342.996 272.874 343.211 272.701C344.721 271.536 346.209 270.348 347.676 269.183C347.87 269.01 348.172 269.053 348.345 269.248C348.517 269.442 348.474 269.744 348.28 269.917C346.813 271.082 345.304 272.27 343.815 273.435C343.708 273.543 343.6 273.565 343.492 273.565Z" fill="white"/>
<path d="M351.645 267.068C351.515 267.068 351.364 267.003 351.278 266.895C351.105 266.701 351.148 266.398 351.343 266.226C352.831 264.995 354.297 263.787 355.699 262.578C355.893 262.405 356.195 262.427 356.368 262.643C356.54 262.837 356.519 263.139 356.303 263.312C354.901 264.499 353.435 265.729 351.925 266.96C351.86 267.046 351.752 267.068 351.645 267.068Z" fill="#292C33"/>
<path d="M359.819 260.139C359.689 260.139 359.56 260.074 359.474 259.988C359.301 259.794 359.323 259.491 359.517 259.319C360.962 258.045 362.385 256.772 363.744 255.52C363.938 255.347 364.24 255.347 364.413 255.541C364.585 255.736 364.585 256.038 364.391 256.21C363.011 257.462 361.587 258.736 360.142 260.009C360.056 260.096 359.948 260.139 359.819 260.139Z" fill="white"/>
<path d="M364.068 256.34C363.938 256.34 363.809 256.297 363.723 256.189C363.55 255.995 363.55 255.692 363.744 255.52C364.672 254.678 365.577 253.836 366.462 252.994C366.656 252.822 366.958 252.822 367.13 253.016C367.303 253.21 367.303 253.512 367.109 253.685C366.203 254.527 365.297 255.369 364.37 256.232C364.283 256.297 364.176 256.34 364.068 256.34ZM370.883 249.843C370.754 249.843 370.646 249.8 370.538 249.692C370.344 249.498 370.366 249.195 370.538 249.023C371.897 247.684 373.234 246.325 374.528 244.986C374.701 244.792 375.003 244.792 375.197 244.965C375.391 245.137 375.391 245.44 375.218 245.634C373.924 246.972 372.587 248.332 371.228 249.692C371.12 249.8 371.013 249.843 370.883 249.843ZM378.734 241.619C378.626 241.619 378.518 241.576 378.41 241.49C378.216 241.317 378.195 241.015 378.367 240.821C379.661 239.396 380.912 237.95 382.077 236.547C382.25 236.353 382.552 236.309 382.746 236.482C382.94 236.655 382.983 236.957 382.81 237.151C381.624 238.576 380.373 240.022 379.079 241.468C378.993 241.576 378.863 241.619 378.734 241.619ZM386.024 232.899C385.916 232.899 385.83 232.877 385.744 232.791C385.528 232.64 385.506 232.338 385.657 232.122C386.844 230.568 387.965 229.035 388.979 227.546C389.13 227.33 389.432 227.265 389.647 227.416C389.863 227.568 389.928 227.87 389.777 228.086C388.742 229.596 387.62 231.151 386.434 232.705C386.304 232.834 386.175 232.899 386.024 232.899ZM392.43 223.51C392.343 223.51 392.257 223.488 392.192 223.445C391.977 223.315 391.89 223.013 392.02 222.797C393.012 221.114 393.918 219.43 394.694 217.833C394.802 217.595 395.083 217.509 395.32 217.617C395.557 217.725 395.643 218.006 395.535 218.243C394.737 219.883 393.832 221.567 392.818 223.272C392.753 223.423 392.581 223.51 392.43 223.51Z" fill="#292C33"/>
<path d="M48.7005 392.906C47.1476 392.906 45.5948 392.885 44.1066 392.842C43.8477 392.842 43.6321 392.604 43.6536 392.345C43.6536 392.086 43.8693 391.87 44.1497 391.892C45.983 391.957 47.881 391.978 49.8221 391.957C50.0809 391.935 50.2966 392.172 50.2966 392.431C50.2966 392.69 50.0809 392.906 49.8221 392.906C49.4339 392.906 49.0456 392.906 48.7005 392.906ZM55.4729 392.755C55.2141 392.755 55.02 392.561 54.9984 392.302C54.9768 392.043 55.1925 391.827 55.4513 391.806C57.2846 391.719 59.1826 391.611 61.1021 391.482C61.361 391.46 61.5982 391.654 61.5982 391.913C61.6198 392.172 61.4257 392.41 61.1668 392.41C59.2473 392.561 57.3493 392.669 55.4729 392.755ZM38.4342 392.496C38.4126 392.496 38.4126 392.496 38.391 392.496C36.4284 392.324 34.5304 392.129 32.7187 391.849C32.4598 391.806 32.2873 391.568 32.3089 391.309C32.352 391.05 32.5893 390.877 32.8481 390.899C34.6382 391.158 36.5146 391.374 38.4557 391.525C38.7146 391.547 38.9087 391.784 38.8871 392.043C38.8871 392.302 38.6714 392.496 38.4342 392.496ZM66.8177 391.935C66.5804 391.935 66.3647 391.762 66.3432 391.503C66.3216 391.244 66.5157 391.007 66.7745 390.985C68.6078 390.813 70.5058 390.597 72.4038 390.359C72.6626 390.338 72.8998 390.51 72.9214 390.769C72.943 391.028 72.7704 391.266 72.5116 391.287C70.5921 391.525 68.6941 391.741 66.8608 391.913C66.8392 391.935 66.8177 391.935 66.8177 391.935ZM27.1973 390.834C27.1541 390.834 27.1325 390.834 27.0894 390.813C25.1483 390.381 23.2934 389.863 21.568 389.28C21.3092 389.194 21.1798 388.935 21.2661 388.676C21.3523 388.438 21.6111 388.287 21.87 388.374C23.5523 388.935 25.3855 389.453 27.3051 389.884C27.5639 389.949 27.7149 390.187 27.6717 390.446C27.607 390.683 27.4129 390.834 27.1973 390.834ZM78.0977 390.554C77.8605 390.554 77.6664 390.381 77.6232 390.144C77.5801 389.884 77.7742 389.647 78.033 389.604C79.8663 389.345 81.7643 389.043 83.6407 388.74C83.8995 388.697 84.1368 388.87 84.1799 389.129C84.223 389.388 84.0505 389.625 83.7917 389.669C81.8937 389.971 80.0173 390.273 78.1624 390.532C78.1409 390.554 78.1193 390.554 78.0977 390.554ZM89.3131 388.74C89.0974 388.74 88.8817 388.589 88.8386 388.352C88.7954 388.093 88.968 387.856 89.2268 387.791C91.0601 387.467 92.9365 387.1 94.8129 386.733C95.0717 386.69 95.309 386.841 95.3737 387.1C95.4168 387.359 95.2658 387.597 95.007 387.661C93.1306 388.028 91.2542 388.395 89.4209 388.719C89.3778 388.741 89.3346 388.74 89.3131 388.74ZM16.478 387.165C16.4133 387.165 16.327 387.143 16.2623 387.122C14.4506 386.215 12.8114 385.179 11.3663 384.078C11.1507 383.927 11.1291 383.625 11.2801 383.409C11.431 383.193 11.733 383.172 11.9487 383.323C13.329 384.402 14.9251 385.395 16.6936 386.28C16.9309 386.388 17.0172 386.69 16.9093 386.906C16.823 387.078 16.6505 387.165 16.478 387.165ZM100.464 386.517C100.248 386.517 100.054 386.366 100.011 386.15C99.9461 385.891 100.119 385.632 100.377 385.589C102.189 385.201 104.066 384.79 105.92 384.359C106.179 384.294 106.438 384.467 106.481 384.726C106.546 384.985 106.373 385.244 106.115 385.287C104.26 385.719 102.383 386.129 100.55 386.517C100.528 386.517 100.507 386.517 100.464 386.517ZM111.55 383.992C111.334 383.992 111.14 383.841 111.097 383.625C111.032 383.366 111.183 383.107 111.442 383.042C113.254 382.61 115.108 382.136 116.942 381.661C117.2 381.596 117.459 381.747 117.524 382.006C117.589 382.265 117.438 382.524 117.179 382.589C115.324 383.064 113.469 383.517 111.658 383.97C111.614 383.992 111.593 383.992 111.55 383.992ZM122.549 381.164C122.334 381.164 122.14 381.035 122.096 380.819C122.032 380.56 122.183 380.301 122.442 380.236C124.253 379.761 126.086 379.243 127.92 378.725C128.179 378.66 128.437 378.812 128.502 379.049C128.567 379.308 128.416 379.567 128.179 379.632C126.345 380.15 124.512 380.646 122.7 381.143C122.636 381.164 122.592 381.164 122.549 381.164ZM7.65665 380.15C7.50567 380.15 7.37626 380.085 7.26842 379.956C6.47041 378.876 5.78023 377.732 5.21947 376.545C4.96065 375.984 4.7234 375.423 4.52929 374.84C4.44302 374.603 4.57242 374.322 4.80967 374.236C5.04692 374.149 5.3273 374.279 5.41358 374.516C5.60769 375.056 5.82337 375.617 6.06062 376.135C6.57825 377.279 7.24686 378.358 8.00174 379.373C8.15271 379.589 8.10958 379.869 7.91546 380.042C7.87233 380.107 7.76449 380.15 7.65665 380.15ZM133.506 378.099C133.312 378.099 133.118 377.97 133.053 377.754C132.988 377.495 133.118 377.236 133.376 377.171C135.188 376.653 137 376.092 138.812 375.552C139.07 375.466 139.329 375.617 139.394 375.876C139.48 376.135 139.329 376.394 139.07 376.459C137.237 377.02 135.425 377.56 133.614 378.078C133.592 378.099 133.549 378.099 133.506 378.099ZM144.376 374.797C144.182 374.797 143.988 374.667 143.923 374.473C143.837 374.214 143.988 373.955 144.225 373.869C146.015 373.307 147.827 372.725 149.639 372.142C149.898 372.056 150.156 372.207 150.243 372.444C150.329 372.703 150.178 372.962 149.941 373.048C148.129 373.631 146.317 374.214 144.527 374.775C144.484 374.797 144.441 374.797 144.376 374.797ZM155.203 371.278C155.009 371.278 154.815 371.149 154.75 370.955C154.664 370.717 154.794 370.437 155.052 370.35C156.842 369.746 158.633 369.142 160.423 368.516C160.66 368.429 160.94 368.559 161.027 368.818C161.113 369.055 160.984 369.336 160.725 369.422C158.913 370.048 157.123 370.653 155.333 371.257C155.29 371.278 155.246 371.278 155.203 371.278ZM3.92539 369.595C3.66657 369.595 3.47246 369.401 3.45089 369.142C3.42932 368.753 3.42932 368.365 3.42932 367.976C3.42932 366.508 3.55873 364.954 3.83911 363.378C3.88225 363.119 4.1195 362.947 4.37831 362.99C4.63713 363.033 4.80967 363.271 4.76654 363.53C4.50772 365.062 4.37831 366.551 4.37831 367.976C4.37831 368.343 4.37831 368.731 4.39988 369.098C4.42145 369.357 4.20577 369.573 3.94695 369.595H3.92539ZM5.7371 358.436C5.69396 358.436 5.62926 358.436 5.58612 358.414C5.34887 358.328 5.1979 358.069 5.28417 357.81C5.8665 356.104 6.59982 354.313 7.46254 352.5C7.57038 352.262 7.85076 352.154 8.08801 352.284C8.32526 352.392 8.4331 352.672 8.30369 352.91C7.46254 354.68 6.72922 356.428 6.16846 358.112C6.12532 358.306 5.93121 358.436 5.7371 358.436ZM10.5683 348.161C10.4821 348.161 10.3958 348.14 10.3311 348.096C10.1154 347.967 10.0291 347.665 10.1585 347.449C11.086 345.873 12.0997 344.254 13.2212 342.614C13.3722 342.398 13.6526 342.333 13.8898 342.484C14.1055 342.636 14.1702 342.916 14.0192 343.154C12.9192 344.772 11.9055 346.37 10.9997 347.924C10.8918 348.075 10.7409 348.161 10.5683 348.161ZM16.9309 338.75C16.823 338.75 16.7368 338.729 16.6505 338.664C16.4348 338.513 16.3917 338.211 16.5642 337.995C17.6858 336.527 18.872 335.038 20.1229 333.527C20.2955 333.333 20.5974 333.289 20.7916 333.462C20.9857 333.635 21.0288 333.937 20.8563 334.131C19.6269 335.621 18.4406 337.11 17.3191 338.556C17.2328 338.686 17.0819 338.75 16.9309 338.75ZM24.1993 330.009C24.0915 330.009 23.9836 329.965 23.8758 329.879C23.6817 329.706 23.6601 329.404 23.8326 329.21C25.062 327.828 26.3561 326.425 27.6933 325.022C27.8659 324.828 28.1678 324.828 28.3619 325.001C28.556 325.174 28.556 325.476 28.3835 325.67C27.0463 327.073 25.7522 328.476 24.5444 329.836C24.4581 329.944 24.3287 330.009 24.1993 330.009ZM32.0285 321.763C31.8991 321.763 31.7912 321.72 31.6834 321.634C31.4893 321.439 31.5108 321.137 31.6834 320.965C32.999 319.648 34.3794 318.331 35.7813 316.993C35.9754 316.82 36.2774 316.82 36.4499 317.015C36.6225 317.209 36.6225 317.511 36.4284 317.684C35.0264 319 33.6677 320.339 32.352 321.634C32.2657 321.72 32.1579 321.763 32.0285 321.763ZM40.289 313.95C40.1596 313.95 40.0302 313.906 39.9439 313.798C39.7714 313.604 39.793 313.302 39.9871 313.129C41.3674 311.877 42.8125 310.604 44.2575 309.352C44.4516 309.179 44.7536 309.201 44.9261 309.395C45.0987 309.589 45.0771 309.892 44.883 310.064C43.438 311.316 42.0145 312.59 40.6341 313.82C40.5263 313.906 40.4184 313.95 40.289 313.95ZM48.8731 306.481C48.7437 306.481 48.5927 306.416 48.5064 306.309C48.3339 306.114 48.3555 305.812 48.5711 305.639C49.4554 304.906 50.3397 304.172 51.2456 303.416C51.4397 303.243 51.7416 303.287 51.9142 303.481C52.0867 303.675 52.0436 303.977 51.8495 304.15C50.9436 304.884 50.0593 305.618 49.1966 306.352C49.0888 306.438 48.9809 306.481 48.8731 306.481Z" fill="#292C33"/>
<path d="M92.0306 33.5857C88.1052 26.7002 79.4565 24.3906 72.8782 28.578C66.4725 32.6575 64.5314 41.2051 68.4783 47.9179C70.3763 51.1556 73.3096 53.3573 76.5879 54.307C79.1114 55.0409 81.2682 56.7245 82.6054 59.0556L83.4034 60.437C84.0504 61.581 85.4739 61.9696 86.5739 61.322L94.6188 56.5086C95.7187 55.8611 96.0854 54.3933 95.4383 53.2493L94.6619 51.8679C93.3462 49.5799 92.9149 46.8387 93.5404 44.2917C94.4031 40.795 93.9502 36.9745 92.0306 33.5857Z" fill="#292C33"/>
<path d="M95.3736 67.2577C92.6344 68.8982 89.0973 67.9269 87.4581 65.0777L85.5386 61.7321L95.4814 55.7963L97.401 59.1419C99.0401 61.9911 98.1343 65.6173 95.3736 67.2577Z" fill="white"/>
<path d="M92.5267 68.5313C92.009 68.5313 91.4914 68.4665 90.9738 68.337C89.3346 67.9053 87.9327 66.8261 87.07 65.3151L85.1504 61.9695C85.021 61.7537 85.1073 61.4515 85.3229 61.322L95.2658 55.3862C95.3736 55.3214 95.503 55.2998 95.6324 55.343C95.7619 55.3646 95.8697 55.4509 95.9128 55.5589L97.8324 58.9045C99.5794 61.9695 98.5873 65.8979 95.6324 67.6679C94.6619 68.2291 93.6051 68.5313 92.5267 68.5313ZM86.2072 61.9048L87.8895 64.8403C88.6229 66.1354 89.8091 67.0419 91.211 67.4089C92.5482 67.7542 93.9501 67.56 95.158 66.8477C97.6814 65.3367 98.501 61.9911 97.0128 59.3794L95.3521 56.4438L86.2072 61.9048Z" fill="#292C33"/>
<path d="M68.349 19.901C68.1765 19.901 68.0255 19.8146 67.9392 19.6636L60.9728 7.51137C60.8434 7.27394 60.9297 6.99334 61.1453 6.86383C61.3826 6.73432 61.663 6.82066 61.7924 7.0365L68.7588 19.1887C68.8882 19.4261 68.802 19.7067 68.5863 19.8362C68.5 19.8794 68.4137 19.901 68.349 19.901Z" fill="#292C33"/>
<path d="M45.3576 65.0131C45.185 65.0131 45.034 64.9268 44.9478 64.7757C44.8184 64.5382 44.9046 64.2576 45.1203 64.1281L60.9512 55.0626C61.1885 54.9331 61.4688 55.0194 61.5983 55.2352C61.7277 55.4727 61.6414 55.7533 61.4257 55.8828L45.5948 64.9483C45.5085 64.9915 45.4223 65.0131 45.3576 65.0131Z" fill="#292C33"/>
<path d="M101.974 33.0029C101.801 33.0029 101.65 32.9166 101.564 32.7655C101.434 32.528 101.521 32.2474 101.736 32.1179L118.106 22.9876C118.344 22.8581 118.624 22.9444 118.753 23.1603C118.883 23.3977 118.797 23.6783 118.581 23.8078L102.211 32.9382C102.124 32.9813 102.038 33.0029 101.974 33.0029Z" fill="#292C33"/>
<path d="M56.5944 37.2767C56.5513 37.2767 56.5082 37.2767 56.465 37.2551L41.0655 32.9166C40.8067 32.8518 40.6772 32.5928 40.742 32.3338C40.8067 32.0748 41.0655 31.9453 41.3243 32.01L56.7238 36.3486C56.9827 36.4133 57.1121 36.6723 57.0474 36.9313C56.9827 37.1472 56.8101 37.2767 56.5944 37.2767Z" fill="#292C33"/>
<path d="M88.7954 19.8579C88.7523 19.8579 88.7091 19.8579 88.666 19.8363C88.4072 19.7715 88.2562 19.5125 88.3425 19.2535L92.8286 2.95705C92.8933 2.69803 93.1521 2.54694 93.411 2.63328C93.6698 2.69803 93.8208 2.95705 93.7345 3.21606L89.2483 19.5125C89.1836 19.7068 88.9895 19.8579 88.7954 19.8579Z" fill="#292C33"/>
<path d="M366.807 74.5752C366.699 74.5752 366.57 74.532 366.483 74.4457C366.289 74.273 366.268 73.9708 366.462 73.7766C367.066 73.129 367.648 72.4599 368.23 71.8124C368.403 71.6181 368.705 71.5965 368.899 71.7692C369.093 71.9419 369.115 72.244 368.942 72.4383C368.36 73.0859 367.777 73.755 367.173 74.4025C367.066 74.532 366.936 74.5752 366.807 74.5752ZM372.285 68.3156C372.177 68.3156 372.069 68.2725 371.983 68.2077C371.789 68.035 371.746 67.7328 371.918 67.5386C373.148 66.0492 374.356 64.5815 375.477 63.1353C375.628 62.9195 375.93 62.8979 376.146 63.049C376.361 63.2001 376.383 63.5022 376.232 63.7181C375.111 65.1643 373.903 66.6752 372.652 68.1645C372.565 68.2509 372.436 68.3156 372.285 68.3156ZM379.252 59.3364C379.165 59.3364 379.057 59.3148 378.971 59.2501C378.755 59.099 378.712 58.7968 378.863 58.5809C379.985 57.0052 381.063 55.4296 382.034 53.8971C382.185 53.6812 382.465 53.6165 382.681 53.746C382.897 53.8971 382.961 54.1777 382.832 54.3935C381.84 55.9476 380.761 57.5233 379.64 59.1205C379.553 59.2501 379.403 59.3364 379.252 59.3364ZM385.355 49.7312C385.269 49.7312 385.204 49.7096 385.118 49.6665C384.881 49.5369 384.816 49.2563 384.924 49.0189C385.873 47.3137 386.736 45.6085 387.469 43.9681C387.577 43.7307 387.857 43.6227 388.094 43.7307C388.332 43.8386 388.44 44.1192 388.332 44.3566C387.577 46.0186 386.714 47.7238 385.744 49.4722C385.679 49.6449 385.528 49.7312 385.355 49.7312ZM389.992 39.3705C389.949 39.3705 389.885 39.3705 389.841 39.349C389.583 39.2626 389.453 39.0036 389.539 38.7446C390.165 36.8667 390.618 35.032 390.92 33.3052C390.963 33.0462 391.2 32.8736 391.459 32.9167C391.718 32.9599 391.89 33.1973 391.847 33.4563C391.545 35.2479 391.049 37.1042 390.424 39.0252C390.381 39.241 390.208 39.3705 389.992 39.3705ZM391.826 28.2113C391.567 28.2113 391.351 28.017 391.351 27.758C391.286 25.8369 390.985 24.0022 390.445 22.2971C390.359 22.038 390.51 21.779 390.747 21.6927C391.006 21.6063 391.265 21.7574 391.351 21.9949C391.912 23.7864 392.235 25.7074 392.3 27.7148C392.322 27.9738 392.106 28.1897 391.826 28.2113ZM274.043 19.6421C273.849 19.6421 273.655 19.5126 273.59 19.3184C273.504 19.0593 273.655 18.8003 273.892 18.7356C275.704 18.1744 277.537 17.6132 279.327 17.0951C279.586 17.0304 279.845 17.1599 279.909 17.4189C279.974 17.6779 279.845 17.9369 279.586 18.0017C277.796 18.5413 275.962 19.0809 274.151 19.6421C274.129 19.6421 274.086 19.6421 274.043 19.6421ZM388.396 17.5268C388.245 17.5268 388.094 17.4621 388.008 17.3326C386.973 15.8648 385.7 14.5266 384.212 13.3178C384.018 13.1451 383.975 12.8645 384.147 12.6487C384.32 12.4544 384.6 12.4113 384.816 12.5839C386.369 13.8358 387.728 15.2604 388.806 16.793C388.957 17.0088 388.914 17.311 388.698 17.4621C388.59 17.5052 388.483 17.5268 388.396 17.5268ZM284.935 16.426C284.719 16.426 284.546 16.2965 284.482 16.0807C284.417 15.8216 284.546 15.5626 284.805 15.4979C286.639 14.9798 288.493 14.4618 290.284 13.9869C290.542 13.9222 290.801 14.0733 290.866 14.3323C290.931 14.5913 290.78 14.8503 290.521 14.9151C288.709 15.3899 286.876 15.908 285.043 16.426C285.021 16.4044 284.978 16.426 284.935 16.426ZM295.913 13.4689C295.697 13.4689 295.503 13.3178 295.46 13.102C295.395 12.843 295.546 12.5839 295.805 12.5192C297.66 12.0443 299.515 11.591 301.326 11.1593C301.585 11.0946 301.844 11.2673 301.887 11.5047C301.952 11.7637 301.779 12.0227 301.542 12.0659C299.73 12.4976 297.876 12.9509 296.021 13.4257C295.999 13.4689 295.956 13.4689 295.913 13.4689ZM306.977 10.8572C306.762 10.8572 306.567 10.7061 306.524 10.4902C306.46 10.2312 306.632 9.97219 306.891 9.92902C308.767 9.51891 310.644 9.13038 312.455 8.76344C312.714 8.72027 312.952 8.87137 313.016 9.13038C313.059 9.3894 312.908 9.62683 312.65 9.69159C310.838 10.0585 308.961 10.447 307.085 10.8572C307.042 10.8572 307.02 10.8572 306.977 10.8572ZM379.726 10.3823C379.661 10.3823 379.575 10.3607 379.51 10.3391C377.936 9.54049 376.189 8.84978 374.312 8.22383C374.054 8.13749 373.924 7.87847 374.011 7.61945C374.097 7.36044 374.356 7.23093 374.614 7.31727C376.534 7.94322 378.324 8.6771 379.942 9.47574C380.179 9.58366 380.265 9.88585 380.157 10.1017C380.05 10.2744 379.899 10.3823 379.726 10.3823ZM318.128 8.63393C317.912 8.63393 317.697 8.48284 317.653 8.24541C317.61 7.98639 317.783 7.74896 318.042 7.68421C319.94 7.33885 321.816 7.01508 323.649 6.73448C323.908 6.69131 324.145 6.86399 324.188 7.12301C324.232 7.38202 324.059 7.61945 323.8 7.66262C321.967 7.94322 320.091 8.267 318.214 8.61235C318.171 8.63394 318.149 8.63393 318.128 8.63393ZM329.343 6.86399C329.106 6.86399 328.912 6.69131 328.869 6.45388C328.826 6.19486 329.02 5.95743 329.278 5.91426C331.198 5.65525 333.096 5.4394 334.929 5.24514C335.188 5.22355 335.425 5.39623 335.447 5.67683C335.469 5.93585 335.296 6.17328 335.016 6.19486C333.182 6.38913 331.284 6.62656 329.386 6.86399C329.386 6.86399 329.365 6.86399 329.343 6.86399ZM368.964 6.79924C368.942 6.79924 368.899 6.79924 368.877 6.79924C367.13 6.4323 365.254 6.13011 363.313 5.89268C363.054 5.87109 362.86 5.63366 362.903 5.37465C362.925 5.11563 363.162 4.92137 363.421 4.96454C365.383 5.20197 367.281 5.50415 369.071 5.87109C369.33 5.91426 369.503 6.17328 369.438 6.4323C369.373 6.64814 369.179 6.79924 368.964 6.79924ZM340.645 5.67683C340.408 5.67683 340.192 5.48257 340.17 5.24514C340.149 4.98612 340.343 4.74869 340.602 4.7271C342.543 4.57601 344.462 4.46809 346.296 4.40333C346.554 4.40333 346.77 4.5976 346.792 4.85661C346.792 5.11563 346.598 5.33148 346.339 5.35306C344.506 5.41781 342.608 5.52574 340.688 5.67683C340.688 5.67683 340.666 5.67683 340.645 5.67683ZM357.684 5.41781H357.662C355.85 5.30989 353.952 5.26672 352.011 5.24514C351.752 5.24514 351.537 5.02929 351.537 4.77027C351.537 4.51126 351.752 4.29541 352.011 4.29541C353.974 4.29541 355.893 4.36016 357.727 4.46809C357.986 4.48967 358.18 4.70552 358.18 4.96454C358.158 5.22355 357.942 5.41781 357.684 5.41781Z" fill="#292C33"/>
<path d="M40.6125 232.942C38.6498 232.899 36.7303 232.813 34.897 232.683C34.6382 232.662 34.4441 232.446 34.4657 232.165C34.4872 231.906 34.7029 231.712 34.9833 231.733C36.795 231.863 38.693 231.949 40.6341 231.992C40.8929 231.992 41.1086 232.208 41.1086 232.467C41.0655 232.748 40.8713 232.942 40.6125 232.942ZM46.2849 232.921C46.0261 232.921 45.8104 232.726 45.8104 232.467C45.8104 232.208 46.0045 231.992 46.2633 231.971C48.0966 231.928 49.9946 231.841 51.9142 231.712C52.173 231.69 52.4102 231.884 52.4102 232.165C52.4318 232.424 52.2377 232.662 51.9573 232.662C50.0593 232.769 48.1398 232.877 46.2849 232.921ZM57.6297 232.187C57.3924 232.187 57.1767 232.014 57.1552 231.755C57.1336 231.496 57.3277 231.259 57.5865 231.237C59.4198 231.064 61.3178 230.848 63.2158 230.611C63.4746 230.568 63.7118 230.762 63.755 231.021C63.7981 231.28 63.604 231.518 63.3452 231.561C61.4256 231.798 59.5277 232.014 57.6728 232.187C57.6512 232.187 57.6512 232.187 57.6297 232.187ZM29.2893 232.079C29.2678 232.079 29.2462 232.079 29.2246 232.079C27.2619 231.798 25.364 231.431 23.5954 231.021C23.3366 230.956 23.1856 230.697 23.2503 230.46C23.315 230.201 23.5738 230.05 23.8111 230.115C25.5581 230.525 27.4129 230.87 29.354 231.151C29.6129 231.194 29.7854 231.431 29.7638 231.69C29.7207 231.906 29.505 232.079 29.2893 232.079ZM68.9097 230.784C68.6725 230.784 68.4784 230.611 68.4352 230.374C68.3921 230.115 68.5646 229.877 68.8235 229.834C70.6567 229.553 72.5332 229.251 74.4311 228.927C74.69 228.884 74.9272 229.057 74.9703 229.316C75.0135 229.575 74.8409 229.812 74.5821 229.855C72.6841 230.179 70.7861 230.503 68.9529 230.762C68.9529 230.784 68.9313 230.784 68.9097 230.784ZM18.2465 229.424C18.1818 229.424 18.1387 229.424 18.074 229.402C16.176 228.712 14.429 227.891 12.8545 226.985C12.6173 226.855 12.5526 226.575 12.682 226.337C12.8114 226.1 13.1133 226.035 13.329 226.165C14.8603 227.049 16.5642 227.827 18.4191 228.517C18.6563 228.604 18.7857 228.884 18.6994 229.122C18.6347 229.294 18.4406 229.424 18.2465 229.424ZM80.1035 228.841C79.8878 228.841 79.6937 228.69 79.629 228.452C79.5859 228.193 79.7369 227.956 79.9957 227.891C81.8074 227.546 83.6838 227.157 85.5602 226.747C85.819 226.683 86.0779 226.855 86.121 227.114C86.1857 227.373 86.0132 227.632 85.7543 227.675C83.8779 228.086 82.0015 228.452 80.1682 228.819C80.1682 228.841 80.1467 228.841 80.1035 228.841ZM91.2326 226.467C91.0169 226.467 90.8228 226.316 90.7797 226.1C90.715 225.841 90.8875 225.582 91.1248 225.539C92.9365 225.128 94.7913 224.675 96.6462 224.222C96.905 224.157 97.1638 224.308 97.2285 224.567C97.2932 224.826 97.1422 225.085 96.8834 225.15C95.0286 225.603 93.1737 226.057 91.3404 226.488C91.2973 226.467 91.2542 226.467 91.2326 226.467ZM102.254 223.725C102.038 223.725 101.844 223.574 101.801 223.38C101.736 223.121 101.887 222.862 102.146 222.797C103.958 222.322 105.791 221.826 107.624 221.308C107.883 221.243 108.142 221.394 108.207 221.632C108.271 221.891 108.12 222.15 107.883 222.215C106.05 222.733 104.195 223.229 102.383 223.704C102.34 223.725 102.297 223.725 102.254 223.725ZM8.51935 223.682C8.41151 223.682 8.28211 223.639 8.19583 223.553C6.75078 222.193 5.5214 220.66 4.59398 219.02C4.46457 218.783 4.55084 218.502 4.76652 218.372C5.00377 218.243 5.28416 218.329 5.41356 218.545C6.31942 220.121 7.46252 221.567 8.84287 222.862C9.03699 223.035 9.03699 223.337 8.86444 223.531C8.77817 223.639 8.64876 223.682 8.51935 223.682ZM113.21 220.682C112.995 220.682 112.822 220.552 112.757 220.337C112.693 220.078 112.822 219.819 113.081 219.754C114.871 219.236 116.704 218.675 118.516 218.135C118.775 218.049 119.034 218.2 119.098 218.459C119.185 218.718 119.034 218.977 118.775 219.042C116.963 219.603 115.13 220.142 113.318 220.682C113.297 220.682 113.254 220.682 113.21 220.682ZM124.081 217.358C123.887 217.358 123.692 217.228 123.628 217.034C123.541 216.775 123.692 216.516 123.93 216.43C125.72 215.869 127.51 215.286 129.322 214.681C129.559 214.595 129.839 214.725 129.926 214.984C130.012 215.243 129.882 215.502 129.624 215.588C127.812 216.192 126 216.775 124.21 217.336C124.188 217.358 124.124 217.358 124.081 217.358ZM2.95481 213.969C2.73913 213.969 2.54502 213.818 2.50188 213.602C2.1568 212.07 1.98425 210.429 1.98425 208.746C1.98425 208.443 1.98425 208.141 2.00582 207.839C2.00582 207.58 2.2215 207.364 2.50188 207.386C2.7607 207.386 2.97638 207.623 2.95481 207.882C2.95481 208.184 2.93324 208.465 2.93324 208.767C2.93324 210.386 3.10579 211.962 3.42931 213.43C3.49401 213.689 3.32147 213.948 3.06265 213.991C3.04108 213.969 2.99795 213.969 2.95481 213.969ZM134.886 213.796C134.692 213.796 134.498 213.667 134.433 213.473C134.347 213.235 134.476 212.955 134.735 212.868C136.504 212.264 138.294 211.638 140.106 210.99C140.343 210.904 140.623 211.034 140.71 211.271C140.796 211.508 140.666 211.789 140.429 211.875C138.617 212.523 136.827 213.127 135.059 213.753C134.973 213.796 134.929 213.796 134.886 213.796ZM3.2352 202.702C3.19206 202.702 3.17049 202.702 3.12736 202.68C2.86854 202.616 2.71756 202.378 2.7607 202.119C3.14892 200.349 3.70969 198.493 4.39987 196.615C4.48614 196.378 4.76652 196.248 5.00377 196.334C5.24102 196.421 5.37043 196.701 5.28416 196.939C4.59398 198.795 4.05478 200.587 3.66656 202.313C3.64499 202.551 3.45088 202.702 3.2352 202.702ZM7.09587 192.018C7.03116 192.018 6.96646 191.996 6.88019 191.974C6.64294 191.866 6.55667 191.586 6.66451 191.348C7.46252 189.708 8.36838 188.003 9.36051 186.298C9.48991 186.082 9.79187 185.995 10.0075 186.125C10.2232 186.254 10.3095 186.557 10.1801 186.772C9.20953 188.456 8.30368 190.14 7.52723 191.759C7.44096 191.931 7.26841 192.018 7.09587 192.018ZM12.7682 182.175C12.682 182.175 12.5957 182.153 12.5094 182.089C12.2938 181.937 12.229 181.657 12.38 181.441C13.3937 179.908 14.4937 178.333 15.6368 176.757C15.7878 176.541 16.0897 176.498 16.3054 176.649C16.5211 176.8 16.5642 177.102 16.4132 177.318C15.2701 178.894 14.1702 180.448 13.178 181.959C13.0918 182.11 12.9408 182.175 12.7682 182.175ZM19.4759 173.001C19.3681 173.001 19.2602 172.958 19.1739 172.893C18.9798 172.721 18.9367 172.44 19.0877 172.224C20.2308 170.778 21.4602 169.31 22.7111 167.821C22.8836 167.627 23.1856 167.605 23.3797 167.778C23.5738 167.951 23.5954 168.253 23.4228 168.447C22.215 169.915 20.9857 171.383 19.8426 172.829C19.7563 172.937 19.6269 173.001 19.4759 173.001ZM26.8521 164.346C26.7443 164.346 26.6149 164.303 26.5286 164.216C26.3345 164.044 26.313 163.742 26.4855 163.547C27.7364 162.166 29.0305 160.763 30.3677 159.36C30.5403 159.166 30.8422 159.166 31.0363 159.338C31.2304 159.511 31.2305 159.813 31.0579 160.007C29.7423 161.389 28.4266 162.792 27.1972 164.173C27.111 164.281 26.9816 164.346 26.8521 164.346ZM34.6813 156.101C34.5519 156.101 34.4441 156.057 34.3362 155.971C34.1421 155.777 34.1421 155.496 34.3362 155.302C35.6519 153.985 37.0107 152.647 38.391 151.309C38.5851 151.136 38.8871 151.136 39.0596 151.33C39.2322 151.525 39.2322 151.827 39.0381 151.999C37.6577 153.338 36.2989 154.676 34.9833 155.971C34.9186 156.057 34.8107 156.101 34.6813 156.101ZM42.8772 148.201C42.7478 148.201 42.6184 148.157 42.5321 148.049C42.3595 147.855 42.3595 147.553 42.5536 147.38C43.9124 146.107 45.3359 144.833 46.7594 143.538C46.9535 143.366 47.2555 143.387 47.428 143.581C47.6006 143.776 47.579 144.078 47.3849 144.251C45.9614 145.524 44.5595 146.819 43.1791 148.071C43.1144 148.157 42.985 148.201 42.8772 148.201ZM51.3534 140.624C51.224 140.624 51.0946 140.56 50.9867 140.452C50.8142 140.257 50.8358 139.955 51.0299 139.783C52.4318 138.552 53.8984 137.322 55.365 136.092C55.5592 135.919 55.8611 135.94 56.0336 136.156C56.2062 136.351 56.1846 136.653 55.9689 136.825C54.5023 138.056 53.0573 139.286 51.6553 140.516C51.5691 140.581 51.4612 140.624 51.3534 140.624Z" fill="#292C33"/>
<path d="M276.523 314.316C276.264 314.316 276.049 314.101 276.049 313.863L275.984 311.338C275.984 311.079 276.178 310.863 276.437 310.863C276.696 310.863 276.911 311.057 276.911 311.316L276.976 313.841C276.998 314.101 276.782 314.316 276.523 314.316Z" fill="#292C33"/>
<path d="M276.717 323.144C276.458 323.144 276.243 322.929 276.243 322.691L276.178 320.166C276.178 319.907 276.372 319.691 276.631 319.691C276.89 319.691 277.106 319.885 277.106 320.144L277.17 322.67C277.192 322.929 276.976 323.144 276.717 323.144Z" fill="#292C33"/>
<path d="M271.002 317.511C270.743 317.511 270.527 317.295 270.527 317.036C270.527 316.777 270.743 316.561 271.002 316.561L273.482 316.54C273.741 316.561 273.957 316.755 273.957 317.014C273.957 317.273 273.741 317.489 273.482 317.489L271.002 317.511Z" fill="#292C33"/>
<path d="M279.694 317.446C279.435 317.446 279.219 317.23 279.219 316.971C279.219 316.712 279.435 316.496 279.694 316.496L282.174 316.475C282.433 316.475 282.649 316.691 282.649 316.95C282.649 317.209 282.433 317.424 282.174 317.424L279.694 317.446Z" fill="#292C33"/>
<path d="M169.87 46.0186C169.352 46.0186 168.834 45.9107 168.317 45.7164C167.217 45.2847 166.375 44.4645 165.901 43.3637C164.952 41.1405 165.944 38.5287 168.122 37.5574C169.179 37.0826 170.344 37.061 171.422 37.4711C172.522 37.9028 173.364 38.723 173.838 39.8238C174.787 42.047 173.795 44.6588 171.617 45.6301C171.056 45.9107 170.452 46.0186 169.87 46.0186ZM168.511 38.4424C166.807 39.2194 166.03 41.27 166.785 43.0184C167.152 43.8817 167.821 44.5293 168.683 44.853C169.524 45.1768 170.43 45.1552 171.25 44.7883C172.954 44.0112 173.73 41.9607 172.975 40.2123C172.609 39.349 171.94 38.7014 171.077 38.3776C170.236 38.0539 169.33 38.0755 168.511 38.4424Z" fill="#292C33"/>
</g>
<defs>
<clipPath id="clip0_73_25710">
<rect width="400" height="395" fill="white"/>
</clipPath>
</defs>
</svg>
