<svg width="471" height="469" viewBox="0 0 471 469" fill="none" xmlns="http://www.w3.org/2000/svg">
<g clip-path="url(#clip0_73_25984)">
<path d="M96.345 127.783L96.4477 132.653L101.684 133.729C101.916 134.857 102.224 135.933 102.634 136.984L98.7837 140.674L101.325 144.852L106.382 143.16C107.127 144.006 107.948 144.801 108.847 145.518L107.358 150.644L111.645 153.002L115.187 149.029C116.265 149.388 117.369 149.644 118.499 149.824L119.782 155.001L124.66 154.898L125.738 149.67C126.867 149.439 127.971 149.132 129.024 148.722L132.72 152.566L136.905 150.054L135.21 145.006C136.058 144.262 136.853 143.442 137.572 142.571L142.706 144.057L145.068 139.777L141.063 136.241C141.423 135.164 141.679 134.062 141.859 132.935L147.045 131.653L146.942 126.784L141.705 125.707C141.474 124.58 141.166 123.503 140.755 122.453L144.606 118.762L142.065 114.585L137.007 116.276C136.263 115.43 135.441 114.636 134.543 113.918L136.032 108.793L131.745 106.435L128.202 110.407C127.124 110.048 126.02 109.792 124.891 109.613L123.607 104.436L118.73 104.538L117.652 109.766C116.522 109.997 115.418 110.305 114.366 110.715L110.669 106.87L106.485 109.382L108.179 114.431C107.332 115.174 106.536 115.994 105.817 116.891L100.683 115.405L98.3473 119.685L102.352 123.221C101.993 124.298 101.736 125.4 101.556 126.527L96.345 127.783ZM121.425 117.147C128.382 116.994 134.132 122.504 134.261 129.449C134.415 136.369 128.895 142.11 121.939 142.263C114.982 142.417 109.232 136.907 109.103 129.962C108.949 123.016 114.469 117.301 121.425 117.147Z" fill="white"/>
<path d="M119.757 155.539C119.5 155.539 119.269 155.359 119.218 155.103L118.037 150.285C117.138 150.131 116.24 149.901 115.367 149.644L112.081 153.36C111.901 153.565 111.619 153.617 111.388 153.489L107.101 151.131C106.87 151.003 106.767 150.721 106.819 150.49L108.205 145.723C107.512 145.134 106.844 144.493 106.228 143.827L101.505 145.39C101.248 145.467 100.966 145.364 100.837 145.134L98.2959 140.956C98.1676 140.726 98.1932 140.444 98.3986 140.264L101.967 136.83C101.659 135.984 101.402 135.087 101.197 134.19L96.3193 133.191C96.0626 133.14 95.8829 132.909 95.8572 132.653L95.7545 127.783C95.7545 127.527 95.9342 127.296 96.1909 127.219L101.017 126.041C101.171 125.144 101.402 124.247 101.659 123.375L97.9365 120.095C97.7312 119.915 97.6798 119.633 97.8082 119.403L100.17 115.123C100.298 114.892 100.581 114.79 100.812 114.841L105.586 116.225C106.177 115.533 106.819 114.867 107.486 114.251L105.92 109.561C105.843 109.305 105.946 109.023 106.177 108.895L110.361 106.384C110.592 106.255 110.875 106.281 111.054 106.486L114.494 110.048C115.341 109.741 116.24 109.485 117.138 109.28L118.139 104.436C118.191 104.179 118.422 104 118.678 103.974L123.556 103.872C123.838 103.872 124.044 104.051 124.121 104.308L125.302 109.126C126.226 109.28 127.098 109.51 127.971 109.766L131.257 106.05C131.437 105.845 131.719 105.794 131.95 105.922L136.237 108.28C136.468 108.408 136.571 108.69 136.52 108.921L135.133 113.688C135.827 114.277 136.494 114.918 137.11 115.584L141.833 114.021C142.09 113.944 142.373 114.046 142.501 114.277L145.042 118.455C145.171 118.685 145.145 118.967 144.94 119.146L141.371 122.581C141.679 123.426 141.936 124.323 142.142 125.22L147.019 126.22C147.276 126.271 147.455 126.502 147.481 126.758L147.584 131.628C147.584 131.884 147.404 132.114 147.147 132.191L142.321 133.37C142.167 134.267 141.936 135.164 141.679 136.036L145.402 139.316C145.607 139.495 145.658 139.777 145.53 140.008L143.168 144.288C143.04 144.519 142.783 144.621 142.527 144.57L137.752 143.186C137.161 143.878 136.52 144.544 135.852 145.159L137.418 149.849C137.495 150.106 137.392 150.388 137.161 150.516L132.977 153.027C132.746 153.155 132.464 153.13 132.284 152.925L128.844 149.362C127.997 149.67 127.098 149.926 126.2 150.131L125.199 154.975C125.148 155.231 124.916 155.411 124.66 155.436L119.757 155.539ZM115.162 148.44C115.213 148.44 115.29 148.44 115.341 148.465C116.368 148.824 117.446 149.08 118.55 149.26C118.781 149.286 118.961 149.465 119.012 149.696L120.193 154.437L124.172 154.36L125.148 149.593C125.199 149.362 125.379 149.209 125.584 149.157C126.688 148.927 127.74 148.619 128.767 148.235C128.972 148.158 129.229 148.209 129.383 148.363L132.772 151.874L136.186 149.824L134.646 145.211C134.569 145.006 134.646 144.749 134.8 144.596C135.621 143.878 136.391 143.058 137.084 142.212C137.238 142.033 137.469 141.956 137.675 142.033L142.373 143.391L144.298 139.906L140.653 136.676C140.473 136.523 140.422 136.292 140.499 136.061C140.858 135.036 141.115 133.96 141.294 132.858C141.32 132.627 141.5 132.448 141.731 132.396L146.48 131.217L146.403 127.245L141.602 126.271C141.371 126.22 141.217 126.041 141.166 125.836C140.935 124.733 140.627 123.683 140.242 122.658C140.165 122.453 140.216 122.196 140.37 122.043L143.887 118.66L141.833 115.251L137.187 116.789C136.982 116.866 136.725 116.789 136.571 116.635C135.852 115.815 135.031 115.046 134.184 114.354C134.004 114.2 133.927 113.97 134.004 113.765L135.364 109.075L131.873 107.152L128.639 110.792C128.485 110.971 128.254 111.022 128.023 110.945C126.996 110.587 125.918 110.33 124.814 110.151C124.583 110.125 124.403 109.946 124.352 109.741L123.171 105L119.192 105.076L118.216 109.843C118.165 110.074 117.985 110.228 117.78 110.279C116.676 110.51 115.624 110.817 114.597 111.202C114.391 111.279 114.135 111.227 113.981 111.074L110.592 107.562L107.178 109.613L108.718 114.226C108.795 114.431 108.718 114.687 108.564 114.841C107.743 115.559 106.973 116.379 106.28 117.224C106.125 117.404 105.894 117.481 105.689 117.404L100.991 116.045L99.066 119.531L102.711 122.76C102.891 122.914 102.942 123.145 102.865 123.375C102.506 124.4 102.249 125.477 102.07 126.579C102.044 126.809 101.864 126.989 101.633 127.04L96.884 128.219L96.961 132.191L101.761 133.165C101.993 133.216 102.147 133.396 102.198 133.601C102.429 134.703 102.737 135.754 103.122 136.779C103.199 136.984 103.148 137.24 102.994 137.394L99.4768 140.777L101.53 144.185L106.177 142.648C106.382 142.571 106.639 142.648 106.793 142.802C107.512 143.622 108.333 144.39 109.18 145.082C109.36 145.236 109.437 145.467 109.36 145.672L107.999 150.362L111.491 152.284L114.725 148.645C114.854 148.491 115.008 148.44 115.162 148.44ZM121.682 142.827C114.545 142.827 108.667 137.112 108.539 129.987C108.462 126.476 109.771 123.17 112.209 120.633C114.648 118.096 117.908 116.686 121.425 116.609C128.69 116.481 134.697 122.222 134.851 129.449C134.928 132.96 133.619 136.266 131.18 138.803C128.741 141.341 125.481 142.75 121.964 142.827C121.862 142.827 121.759 142.827 121.682 142.827ZM121.425 117.711C118.216 117.788 115.213 119.095 113.005 121.402C110.772 123.708 109.591 126.758 109.668 129.936C109.796 136.471 115.162 141.674 121.682 141.674C121.759 141.674 121.836 141.674 121.939 141.674C125.148 141.597 128.151 140.29 130.359 137.983C132.592 135.677 133.773 132.627 133.696 129.449C133.568 122.863 128.048 117.558 121.425 117.711Z" fill="#292C33"/>
<path d="M327.741 86.6497L327.818 90.699L332.156 91.596C332.336 92.5187 332.618 93.4413 332.952 94.3126L329.769 97.3881L331.874 100.848L336.084 99.4383C336.7 100.156 337.393 100.797 338.112 101.386L336.88 105.64L340.448 107.588L343.374 104.282C344.273 104.59 345.171 104.795 346.121 104.948L347.199 109.254L351.255 109.177L352.154 104.846C353.078 104.667 354.002 104.41 354.875 104.077L357.955 107.255L361.421 105.153L360.009 100.95C360.728 100.335 361.37 99.6434 361.96 98.9258L366.221 100.156L368.172 96.6192L364.861 93.6976C365.169 92.8262 365.374 91.9036 365.528 90.9553L369.841 89.9046L369.764 85.8553L365.426 84.9583C365.246 84.0356 364.964 83.113 364.63 82.2417L367.813 79.1662L365.708 75.7064L361.498 77.116C360.882 76.3984 360.189 75.7577 359.47 75.1682L360.702 70.9139L357.134 68.9661L354.207 72.2722C353.309 71.9647 352.411 71.7596 351.461 71.6059L350.383 67.3003L346.327 67.3772L345.428 71.7084C344.478 71.8878 343.58 72.1441 342.707 72.4772L339.627 69.2993L336.161 71.4008L337.573 75.6039C336.854 76.219 336.212 76.9109 335.622 77.6285L331.361 76.3984L329.41 79.9351L332.721 82.8567C332.413 83.7281 332.208 84.6507 332.054 85.599L327.741 86.6497ZM348.586 77.8336C354.362 77.7054 359.136 82.2929 359.265 88.0593C359.393 93.8257 354.798 98.5926 349.022 98.6951C343.246 98.8232 338.471 94.2358 338.343 88.4694C338.215 82.703 342.81 77.9361 348.586 77.8336Z" fill="white"/>
<path d="M347.199 109.818C346.943 109.818 346.712 109.638 346.66 109.382L345.685 105.435C344.966 105.307 344.247 105.128 343.58 104.923L340.884 107.947C340.705 108.152 340.422 108.203 340.191 108.075L336.623 106.127C336.392 105.999 336.289 105.717 336.341 105.487L337.47 101.591C336.931 101.13 336.392 100.617 335.904 100.105L332.054 101.386C331.797 101.463 331.515 101.36 331.386 101.13L329.281 97.6699C329.153 97.4393 329.179 97.1574 329.384 96.978L332.31 94.1588C332.079 93.4925 331.874 92.8005 331.72 92.0829L327.741 91.2628C327.484 91.2116 327.305 90.9809 327.279 90.7246L327.202 86.6754C327.202 86.4191 327.382 86.1884 327.638 86.1115L331.592 85.1377C331.72 84.4201 331.9 83.7281 332.105 83.0361L329.076 80.3451C328.871 80.1657 328.819 79.8838 328.948 79.6532L330.898 76.1164C331.027 75.8858 331.309 75.7833 331.54 75.8345L335.442 76.9622C335.904 76.424 336.418 75.8858 336.931 75.3989L335.648 71.5546C335.571 71.2983 335.673 71.0164 335.904 70.8883L339.37 68.7867C339.601 68.6586 339.883 68.6842 340.063 68.8892L342.887 71.8109C343.554 71.5802 344.273 71.3752 344.966 71.2214L345.788 67.249C345.839 66.9927 346.07 66.8133 346.327 66.7877L350.383 66.7108C350.665 66.7108 350.87 66.8902 350.947 67.1465L351.923 71.0933C352.642 71.2214 353.36 71.4008 354.028 71.6058L356.723 68.5817C356.903 68.3767 357.185 68.3254 357.416 68.4536L360.985 70.4013C361.216 70.5295 361.318 70.8114 361.267 71.042L360.137 74.9375C360.677 75.3988 361.216 75.9114 361.703 76.424L365.554 75.1426C365.811 75.0657 366.093 75.1682 366.221 75.3989L368.326 78.8587C368.455 79.0893 368.429 79.3713 368.224 79.5507L365.297 82.3698C365.528 83.0361 365.734 83.7281 365.888 84.4457L369.867 85.2658C370.123 85.3171 370.303 85.5477 370.329 85.804L370.406 89.8533C370.406 90.1096 370.226 90.3402 369.969 90.4171L366.016 91.391C365.888 92.1086 365.708 92.8005 365.503 93.4925L368.532 96.1835C368.737 96.3629 368.788 96.6448 368.66 96.8755L366.709 100.412C366.581 100.643 366.298 100.745 366.067 100.694L362.165 99.5664C361.703 100.105 361.19 100.643 360.677 101.13L361.96 104.974C362.037 105.23 361.934 105.512 361.703 105.64L358.238 107.742C358.007 107.87 357.724 107.844 357.545 107.639L354.721 104.718C354.053 104.948 353.335 105.153 352.642 105.307L351.82 109.28C351.769 109.536 351.538 109.715 351.281 109.741L347.199 109.818ZM343.374 103.718C343.426 103.718 343.503 103.718 343.554 103.744C344.401 104.026 345.3 104.256 346.224 104.385C346.455 104.41 346.635 104.59 346.686 104.82L347.636 108.665L350.793 108.588L351.589 104.692C351.64 104.461 351.82 104.308 352.025 104.256C352.924 104.077 353.822 103.821 354.644 103.513C354.849 103.436 355.106 103.488 355.26 103.641L358.007 106.512L360.702 104.872L359.444 101.104C359.367 100.899 359.444 100.643 359.598 100.489C360.291 99.8996 360.908 99.2333 361.498 98.5157C361.652 98.3363 361.883 98.2594 362.088 98.3363L365.913 99.4383L367.428 96.6704L364.45 94.0307C364.27 93.8769 364.219 93.6463 364.296 93.4156C364.578 92.5699 364.81 91.6729 364.938 90.7759C364.964 90.5452 365.143 90.3658 365.374 90.3146L369.251 89.3663L369.174 86.214L365.272 85.4196C365.041 85.3683 364.887 85.1889 364.835 84.9839C364.655 84.0869 364.399 83.1899 364.065 82.3698C363.988 82.1648 364.039 81.9085 364.193 81.7547L367.069 79.0125L365.426 76.3215L361.652 77.5773C361.447 77.6542 361.19 77.5773 361.036 77.4235C360.446 76.7315 359.778 76.1165 359.059 75.527C358.88 75.3732 358.803 75.1426 358.88 74.9375L359.983 71.1189L357.211 69.6068L354.567 72.5797C354.413 72.7591 354.182 72.8104 353.951 72.7335C353.104 72.4516 352.205 72.2209 351.307 72.0928C351.076 72.0672 350.896 71.8878 350.845 71.6827L349.895 67.8385L346.737 67.9154L345.942 71.8109C345.89 72.0415 345.711 72.1953 345.505 72.2466C344.607 72.426 343.708 72.6822 342.887 72.9898C342.681 73.0667 342.425 73.0154 342.271 72.8616L339.524 69.9913L336.828 71.6315L338.086 75.3989C338.163 75.6039 338.086 75.8602 337.932 76.0139C337.239 76.6034 336.623 77.2697 336.033 77.9873C335.879 78.1667 335.648 78.2436 335.442 78.1667L331.617 77.0647L330.103 79.8326L333.081 82.4723C333.26 82.6261 333.312 82.8567 333.235 83.0874C332.952 83.9331 332.721 84.8301 332.593 85.7271C332.567 85.9578 332.387 86.1372 332.156 86.1884L328.28 87.1367L328.357 90.289L332.259 91.0834C332.49 91.1347 332.644 91.3141 332.695 91.5191C332.875 92.4161 333.132 93.3131 333.466 94.1332C333.543 94.3382 333.491 94.5945 333.337 94.7483L330.462 97.4905L332.105 100.182L335.879 98.9257C336.084 98.8489 336.341 98.9257 336.495 99.0795C337.111 99.7715 337.753 100.387 338.471 100.976C338.651 101.13 338.728 101.36 338.651 101.565L337.547 105.384L340.32 106.896L342.964 103.923C343.066 103.77 343.22 103.718 343.374 103.718ZM348.791 99.2333C342.81 99.2333 337.881 94.4408 337.778 88.4693C337.727 85.5221 338.805 82.7542 340.833 80.627C342.861 78.4999 345.608 77.321 348.56 77.2441C348.637 77.2441 348.714 77.2441 348.791 77.2441C354.772 77.2441 359.701 82.0366 359.804 88.008C359.855 90.9553 358.777 93.7232 356.749 95.8503C354.721 97.9775 351.974 99.1564 349.022 99.2333C348.945 99.2333 348.868 99.2333 348.791 99.2333ZM348.586 78.3974C345.942 78.4486 343.477 79.525 341.655 81.4215C339.832 83.318 338.856 85.8296 338.908 88.4437C339.01 93.8001 343.426 98.1056 348.791 98.1056C348.868 98.1056 348.919 98.1056 348.996 98.1056C351.64 98.0544 354.105 96.978 355.927 95.0815C357.75 93.185 358.726 90.6734 358.674 88.0593C358.572 82.6004 354.054 78.2692 348.586 78.3974Z" fill="#292C33"/>
<path d="M373.871 83.4718L375.976 89.4945L382.907 88.7C383.652 90.007 384.473 91.2372 385.423 92.3905L382.137 98.5413L386.989 102.719L392.611 98.5669C393.894 99.3102 395.229 99.9765 396.616 100.489L396.847 107.46L403.136 108.639L405.908 102.257C407.372 102.283 408.86 102.155 410.349 101.924L414.046 107.844L420.079 105.743L419.283 98.8232C420.592 98.08 421.824 97.2599 422.979 96.3116L429.14 99.5921L433.325 94.7483L429.166 89.1357C429.91 87.8543 430.578 86.5216 431.091 85.1376L438.074 84.907L439.255 78.628L432.837 75.8602C432.863 74.3993 432.734 72.9129 432.503 71.4264L438.433 67.7359L436.328 61.7133L429.397 62.5078C428.653 61.2007 427.831 59.9705 426.881 58.8173L430.167 52.6664L425.315 48.489L419.694 52.6408C418.41 51.8976 417.075 51.2312 415.689 50.7187L415.458 43.7478L409.169 42.5688L406.396 48.9503C404.933 48.9247 403.444 49.0528 401.955 49.2835L398.258 43.3633L392.226 45.4649L393.022 52.3845C391.712 53.1278 390.48 53.9479 389.325 54.8961L383.164 51.6157L378.98 56.4594L383.138 62.0721C382.394 63.3535 381.727 64.6862 381.213 66.0701L374.231 66.3008L373.05 72.5797L379.467 75.3476C379.442 76.8084 379.57 78.2949 379.801 79.7813L373.871 83.4718ZM400.723 60.0474C409.323 57.0489 418.718 61.5595 421.722 70.145C424.725 78.7305 420.207 88.1105 411.607 91.0834C403.008 94.082 393.612 89.5714 390.609 80.9858C387.605 72.4003 392.149 63.0459 400.723 60.0474Z" fill="white"/>
<path d="M403.162 109.203C403.136 109.203 403.085 109.203 403.059 109.203L396.77 108.024C396.513 107.973 396.307 107.742 396.307 107.486L396.076 100.873C394.896 100.412 393.766 99.8483 392.662 99.2332L387.348 103.18C387.143 103.334 386.835 103.334 386.63 103.154L381.778 98.977C381.572 98.7976 381.521 98.5156 381.649 98.285L384.756 92.4673C383.986 91.4935 383.267 90.4427 382.625 89.315L376.053 90.0583C375.797 90.0839 375.54 89.9301 375.463 89.6738L373.358 83.6512C373.281 83.3949 373.358 83.113 373.589 82.9848L379.211 79.4737C379.031 78.2179 378.928 76.9365 378.928 75.6807L372.87 73.0666C372.639 72.9641 372.485 72.7078 372.536 72.4515L373.717 66.1726C373.769 65.9163 374 65.7113 374.256 65.7113L380.879 65.4806C381.341 64.3017 381.906 63.1741 382.522 62.072L378.569 56.767C378.415 56.5619 378.415 56.2544 378.595 56.0494L382.779 51.2056C382.959 51.0006 383.241 50.9493 383.472 51.0774L389.299 54.1785C390.275 53.4096 391.327 52.692 392.457 52.0513L391.712 45.4905C391.687 45.2342 391.841 44.9779 392.097 44.901L398.13 42.7995C398.387 42.7226 398.669 42.7995 398.798 43.0301L402.314 48.6427C403.572 48.4633 404.856 48.3608 406.114 48.3608L408.732 42.3125C408.835 42.0819 409.092 41.9281 409.348 41.9794L415.638 43.1583C415.894 43.2095 416.1 43.4402 416.1 43.6965L416.331 50.3086C417.512 50.7699 418.641 51.3337 419.745 51.9488L425.059 48.002C425.264 47.8483 425.572 47.8483 425.777 48.0277L430.629 52.2051C430.835 52.3845 430.886 52.6664 430.758 52.8971L427.651 58.7147C428.422 59.6886 429.14 60.7394 429.782 61.867L436.354 61.1238C436.611 61.0982 436.867 61.2519 436.944 61.5082L439.049 67.5309C439.126 67.7872 439.049 68.0691 438.818 68.1972L433.196 71.6827C433.376 72.9385 433.479 74.2199 433.479 75.4757L439.537 78.0898C439.768 78.1923 439.922 78.4486 439.871 78.7049L438.69 84.9838C438.639 85.2401 438.407 85.4451 438.151 85.4451L431.528 85.6758C431.066 86.8547 430.501 87.9824 429.885 89.0844L433.838 94.3895C433.992 94.5945 433.992 94.902 433.812 95.1071L429.628 99.9508C429.448 100.156 429.166 100.207 428.935 100.079L423.108 96.9779C422.132 97.7468 421.08 98.4644 419.95 99.1051L420.695 105.666C420.72 105.922 420.566 106.179 420.31 106.255L414.277 108.357C414.02 108.434 413.738 108.357 413.61 108.126L410.093 102.514C408.835 102.693 407.551 102.796 406.293 102.796L403.675 108.844C403.572 109.075 403.367 109.203 403.162 109.203ZM397.411 106.973L402.802 107.998L405.395 102.027C405.498 101.822 405.677 101.668 405.908 101.694C407.346 101.719 408.809 101.591 410.247 101.36C410.478 101.335 410.709 101.437 410.811 101.617L414.277 107.152L419.462 105.333L418.718 98.8488C418.692 98.6182 418.795 98.4131 419 98.285C420.284 97.5674 421.49 96.7473 422.62 95.8503C422.8 95.6965 423.031 95.6709 423.236 95.799L429.012 98.8488L432.606 94.697L428.73 89.4432C428.601 89.2638 428.576 89.0075 428.704 88.8281C429.448 87.5723 430.09 86.2653 430.604 84.907C430.681 84.7019 430.886 84.5482 431.117 84.5482L437.663 84.3175L438.69 78.9355L432.709 76.3471C432.503 76.2445 432.375 76.0395 432.375 75.8345C432.375 74.3993 432.272 72.9385 432.041 71.5033C432.015 71.2726 432.118 71.042 432.298 70.9395L437.843 67.4796L436.02 62.3027L429.525 63.0459C429.294 63.0715 429.089 62.969 428.961 62.764C428.242 61.4826 427.42 60.278 426.522 59.1504C426.368 58.971 426.342 58.7403 426.471 58.5353L429.525 52.7945L425.367 49.2066L420.104 53.1021C419.925 53.2302 419.668 53.2559 419.488 53.1277C418.23 52.3845 416.921 51.7694 415.561 51.2312C415.355 51.1543 415.201 50.9493 415.201 50.7186L414.97 44.209L409.579 43.1839L406.987 49.1553C406.884 49.3603 406.704 49.4885 406.473 49.4885C406.396 49.4885 406.319 49.4885 406.242 49.4885C404.882 49.4885 403.495 49.591 402.109 49.8217C401.878 49.8473 401.647 49.7448 401.544 49.5654L398.079 44.0296L392.893 45.8492L393.638 52.3332C393.663 52.5639 393.561 52.7689 393.355 52.8971C392.072 53.6147 390.865 54.4348 389.736 55.3318C389.556 55.4855 389.325 55.5112 389.12 55.383L383.344 52.3332L379.75 56.485L383.652 61.7389C383.78 61.9183 383.806 62.1745 383.677 62.3539C382.933 63.6097 382.317 64.9168 381.778 66.2751C381.701 66.4801 381.495 66.6339 381.264 66.6339L374.718 66.8645L373.692 72.2465L379.673 74.835C379.878 74.9375 380.007 75.1425 380.007 75.3476C380.007 76.7827 380.109 78.2436 380.34 79.6788C380.366 79.9094 380.263 80.1401 380.084 80.2426L374.539 83.7024L376.361 88.8794L382.856 88.1361C383.087 88.1105 383.292 88.213 383.421 88.418C384.14 89.6995 384.961 90.904 385.859 92.0317C386.014 92.2111 386.039 92.4417 385.911 92.6467L382.856 98.3875L387.015 101.975L392.277 98.08C392.457 97.9518 392.714 97.9262 392.893 98.0543C394.151 98.7976 395.46 99.4126 396.821 99.9508C397.026 100.028 397.18 100.233 397.18 100.463L397.411 106.973ZM406.191 92.5955C399.157 92.5955 392.534 88.213 390.095 81.1908C388.581 76.9109 388.863 72.2978 390.84 68.1972C392.816 64.0967 396.282 61.0213 400.569 59.5348C409.451 56.4338 419.18 61.1238 422.286 69.9656C423.801 74.2455 423.518 78.8587 421.542 82.9592C419.565 87.0597 416.1 90.1352 411.813 91.6216C409.939 92.2879 408.039 92.5955 406.191 92.5955ZM400.928 60.5856C396.924 61.9951 393.689 64.8655 391.841 68.6842C389.993 72.5028 389.761 76.8084 391.148 80.8064C394.048 89.0588 403.136 93.4412 411.428 90.5452C415.432 89.1356 418.667 86.2653 420.515 82.4466C422.363 78.628 422.594 74.3224 421.208 70.3244C418.282 62.072 409.194 57.6896 400.928 60.5856Z" fill="#292C33"/>
<path d="M98.5783 297.93C98.4242 297.93 98.2959 297.879 98.1675 297.777C97.9365 297.546 97.9365 297.187 98.1675 296.982L147.173 248.057C147.404 247.827 147.763 247.827 147.969 248.057C148.2 248.288 148.2 248.647 147.969 248.852L98.9633 297.777C98.8607 297.879 98.7066 297.93 98.5783 297.93Z" fill="#292C33"/>
<path d="M110.181 265.715C110.027 265.715 109.899 265.664 109.771 265.562C109.54 265.331 109.54 264.972 109.771 264.767L148.97 225.633C149.201 225.402 149.56 225.402 149.766 225.633C149.997 225.863 149.997 226.222 149.766 226.427L110.566 265.562C110.464 265.639 110.31 265.715 110.181 265.715Z" fill="#292C33"/>
<path d="M55.6567 144.109C55.5541 144.109 55.4514 144.083 55.3744 144.032C55.1177 143.878 55.015 143.519 55.1947 143.263C73.8573 112.56 100.991 88.1618 133.67 72.7591C147.276 66.352 161.574 61.6107 176.181 58.6891C176.489 58.6379 176.797 58.8173 176.848 59.1248C176.9 59.4323 176.72 59.7399 176.412 59.7911C161.882 62.6871 147.661 67.4028 134.158 73.7842C101.684 89.11 74.7044 113.329 56.1702 143.852C56.0418 144.006 55.8621 144.109 55.6567 144.109Z" fill="#292C33"/>
<path d="M32.5275 149.183C32.4248 149.183 32.3478 149.157 32.2451 149.106C31.9627 148.952 31.86 148.619 32.014 148.337C43.1295 128.168 57.4537 110.1 74.6275 94.6201C92.4173 78.6023 112.774 65.7625 135.185 56.4594C135.467 56.3312 135.801 56.485 135.929 56.7669C136.058 57.0488 135.904 57.382 135.621 57.5101C91.9552 75.6294 55.5028 108.101 33.0152 148.901C32.9125 149.08 32.7328 149.183 32.5275 149.183Z" fill="#292C33"/>
<path d="M156.389 53.8709C156.363 53.8709 156.337 53.8709 156.312 53.8709C156.106 53.8453 155.927 53.6915 155.85 53.4865L153.206 45.106C153.154 44.9266 153.18 44.7472 153.308 44.5934C153.411 44.4397 153.591 44.3628 153.796 44.3628L161.626 44.7985C161.831 44.7985 162.011 44.9266 162.088 45.106C162.19 45.2854 162.165 45.4904 162.062 45.6698L156.876 53.6146C156.774 53.7684 156.594 53.8709 156.389 53.8709ZM154.54 45.5417L156.568 51.9744L160.547 45.8492L154.54 45.5417Z" fill="#292C33"/>
<path d="M323.172 18.7857C320.373 18.7857 317.96 16.6329 317.729 13.7881C317.601 12.3273 318.063 10.9177 318.987 9.79009C319.937 8.66244 321.246 7.9961 322.709 7.86796C325.713 7.61167 328.383 9.84135 328.639 12.8399C328.768 14.3007 328.306 15.7103 327.382 16.8379C326.432 17.9656 325.123 18.6319 323.659 18.76C323.48 18.7857 323.326 18.7857 323.172 18.7857ZM318.859 13.6856C319.064 16.0691 321.169 17.8374 323.557 17.6324C324.712 17.5299 325.764 16.9917 326.509 16.0947C327.253 15.1977 327.613 14.0957 327.51 12.9424C327.305 10.5589 325.2 8.79058 322.812 8.99561C321.657 9.09812 320.604 9.63632 319.86 10.5333C319.116 11.4303 318.756 12.558 318.859 13.6856Z" fill="#292C33"/>
<path d="M368.018 21.0665H367.993L364.989 20.9127C364.681 20.8871 364.424 20.6308 364.45 20.3233C364.476 20.0158 364.732 19.7595 365.04 19.7851L368.044 19.9389C368.352 19.9645 368.609 20.2208 368.583 20.5283C368.557 20.8359 368.301 21.0665 368.018 21.0665Z" fill="#292C33"/>
<path d="M357.493 20.554H357.468L354.464 20.4002C354.156 20.3746 353.899 20.1183 353.925 19.8108C353.951 19.5032 354.207 19.2726 354.515 19.2726L357.519 19.4264C357.827 19.452 358.084 19.7083 358.058 20.0158C358.032 20.3233 357.776 20.554 357.493 20.554Z" fill="#292C33"/>
<path d="M361.472 17.0429H361.447C361.139 17.0172 360.907 16.761 360.907 16.4534L361.087 13.5062C361.113 13.1986 361.37 12.9423 361.678 12.968C361.986 12.9936 362.217 13.2499 362.217 13.5574L362.037 16.5047C362.011 16.8122 361.755 17.0429 361.472 17.0429Z" fill="#292C33"/>
<path d="M360.83 27.3711H360.805C360.497 27.3455 360.266 27.0892 360.266 26.7817L360.445 23.8344C360.471 23.5269 360.728 23.2706 361.036 23.2962C361.344 23.3218 361.575 23.5781 361.575 23.8857L361.395 26.8329C361.395 27.1405 361.139 27.3711 360.83 27.3711Z" fill="#292C33"/>
<path d="M89.1827 332.349C90.1325 339.961 87.8992 347.649 83.0217 353.595C78.1443 359.541 71.0592 363.232 63.3836 363.821C55.6567 364.41 48.0325 361.796 42.308 356.594C36.5834 351.391 33.2462 344.061 33.0922 336.347L34.9148 189.83C34.7094 179.271 42.77 170.403 53.3207 169.583C63.9484 168.763 73.3182 176.426 74.6274 186.985L89.1827 332.349Z" fill="#292C33"/>
<path d="M61.253 364.462C54.1422 364.462 47.2111 361.796 41.923 357.029C36.0957 351.75 32.6815 344.215 32.5275 336.373L34.3501 189.83C34.1447 179.014 42.4364 169.865 53.2694 169.045C64.2308 168.199 73.8317 176.067 75.1666 186.959L89.7219 332.324C90.6717 340.063 88.387 347.957 83.4325 353.98C78.4781 360.002 71.1876 363.821 63.4094 364.41C62.6906 364.436 61.9718 364.462 61.253 364.462ZM54.861 170.096C54.3733 170.096 53.8598 170.121 53.3464 170.147C43.1295 170.942 35.2742 179.553 35.4796 189.804L33.657 336.347C33.811 343.882 37.0969 351.109 42.6931 356.184C48.2893 361.258 55.8108 363.821 63.358 363.257C70.8282 362.693 77.8363 359.028 82.5854 353.236C87.3345 347.444 89.5422 339.858 88.618 332.426L74.0627 187.087C72.8562 177.297 64.5645 170.096 54.861 170.096Z" fill="#292C33"/>
<path d="M117.677 356.824C112.209 356.824 107.409 353.236 105.894 348.008L100.273 328.864C99.1687 325.148 95.7545 322.585 91.8782 322.585H21.0783C15.9955 322.585 11.8882 326.685 11.8882 331.76V395.011H132.746V366.025C132.746 360.951 128.639 356.85 123.556 356.85H117.677V356.824Z" fill="#292C33"/>
<path d="M132.72 395.575H11.8882C11.5802 395.575 11.3235 395.318 11.3235 395.011V331.76C11.3235 326.378 15.7132 322.021 21.0784 322.021H91.8526C95.9599 322.021 99.6565 324.763 100.812 328.71L106.434 347.854C107.897 352.801 112.518 356.261 117.677 356.261H123.556C128.947 356.261 133.311 360.643 133.311 365.999V394.985C133.311 395.318 133.054 395.575 132.72 395.575ZM12.453 394.447H132.156V366.025C132.156 361.284 128.279 357.414 123.53 357.414H117.652C111.978 357.414 106.921 353.621 105.33 348.188L99.7078 329.043C98.681 325.583 95.4721 323.174 91.8526 323.174H21.0784C16.3293 323.174 12.453 327.044 12.453 331.785V394.447Z" fill="#292C33"/>
<path d="M128.1 356.824C122.632 356.824 117.831 353.236 116.317 348.008L110.695 328.864C109.591 325.148 106.177 322.585 102.301 322.585H31.5263C26.4435 322.585 22.3362 326.685 22.3362 331.76V395.011H143.194V366.025C143.194 360.951 139.087 356.85 134.004 356.85H128.1V356.824Z" fill="white"/>
<path d="M143.168 395.575H22.3105C22.0024 395.575 21.7457 395.318 21.7457 395.011V331.76C21.7457 326.378 26.1354 322.021 31.5006 322.021H102.275C106.382 322.021 110.079 324.763 111.234 328.71L116.856 347.854C118.319 352.801 122.94 356.261 128.1 356.261H133.978C139.369 356.261 143.733 360.643 143.733 365.999V394.985C143.733 395.318 143.476 395.575 143.168 395.575ZM22.9009 394.447H142.604V366.025C142.604 361.284 138.727 357.414 133.978 357.414H128.1C122.426 357.414 117.369 353.621 115.778 348.188L110.156 329.043C109.129 325.583 105.92 323.174 102.3 323.174H31.5263C26.7772 323.174 22.9009 327.044 22.9009 331.785V394.447Z" fill="#292C33"/>
<path d="M133.593 372.15C136.358 372.15 138.599 369.913 138.599 367.153C138.599 364.393 136.358 362.155 133.593 362.155C130.829 362.155 128.587 364.393 128.587 367.153C128.587 369.913 130.829 372.15 133.593 372.15Z" fill="white"/>
<path d="M155.362 389.783H0.0283203V396.702H155.362V389.783Z" fill="#292C33"/>
<path d="M459.303 354.287L181.726 315.768C174.769 314.871 169.532 308.951 169.532 301.954L165.733 108.664C165.733 108.664 172.048 104.103 175.642 102.36C177.464 101.463 179.569 101.078 181.751 101.36L458.508 136.574C465.464 137.471 470.701 143.391 470.701 150.388V340.243C470.701 343.651 469.135 346.624 466.748 348.598C464.515 350.443 459.303 354.287 459.303 354.287Z" fill="#292C33"/>
<path d="M450.832 356.876L174.076 321.637C167.119 320.74 161.882 314.819 161.882 307.823V117.942C161.882 111.407 167.607 106.384 174.102 107.204L450.858 142.443C457.84 143.34 463.051 149.26 463.051 156.256V346.112C463.051 352.647 457.327 357.696 450.832 356.876Z" fill="white"/>
<path d="M444.953 349.033L180.699 315.383C175.642 314.743 171.843 310.437 171.843 305.337V122.222C171.843 117.865 175.667 114.508 180.006 115.046L444.26 148.696C449.317 149.337 453.117 153.642 453.117 158.742V341.883C453.117 346.214 449.292 349.597 444.953 349.033Z" fill="white"/>
<path d="M445.878 349.674C445.544 349.674 445.21 349.648 444.902 349.623L180.622 315.947C175.282 315.255 171.252 310.693 171.252 305.337V122.222C171.252 119.992 172.228 117.839 173.896 116.379C175.59 114.892 177.824 114.226 180.057 114.508L444.312 148.132C449.651 148.824 453.681 153.386 453.681 158.742V341.883C453.681 344.113 452.706 346.266 451.037 347.726C449.6 348.982 447.752 349.674 445.878 349.674ZM445.03 348.47C446.93 348.7 448.855 348.136 450.293 346.855C451.73 345.599 452.552 343.754 452.552 341.857V158.742C452.552 153.95 448.958 149.849 444.183 149.26L179.929 115.61C178.029 115.379 176.104 115.943 174.666 117.224C173.229 118.48 172.407 120.325 172.407 122.222V305.363C172.407 310.155 176.001 314.256 180.776 314.845L445.03 348.47Z" fill="#292C33"/>
<path d="M452.218 357.516C451.73 357.516 451.268 357.491 450.781 357.414L173.999 322.2C166.76 321.278 161.318 315.101 161.318 307.823V229.989C161.318 229.682 161.574 229.426 161.882 229.426C162.19 229.426 162.447 229.682 162.447 229.989V307.797C162.447 314.512 167.478 320.201 174.153 321.047L450.909 356.286C453.836 356.671 456.788 355.748 458.995 353.8C461.203 351.852 462.487 349.033 462.487 346.086V156.282C462.487 149.567 457.455 143.878 450.781 143.032L308.154 124.862C307.846 124.81 307.615 124.528 307.666 124.221C307.718 123.913 308 123.683 308.308 123.734L450.935 141.905C458.174 142.827 463.616 149.004 463.616 156.282V346.137C463.616 349.418 462.204 352.519 459.74 354.697C457.66 356.517 454.965 357.516 452.218 357.516Z" fill="#292C33"/>
<path d="M161.882 166.892C161.574 166.892 161.318 166.636 161.318 166.328V117.942C161.318 114.662 162.729 111.56 165.194 109.382C167.658 107.229 170.918 106.23 174.179 106.64L239.357 114.943C239.665 114.995 239.896 115.277 239.844 115.584C239.793 115.892 239.536 116.122 239.203 116.071L174.025 107.767C171.098 107.383 168.146 108.306 165.938 110.253C163.731 112.201 162.447 115.02 162.447 117.968V166.328C162.447 166.636 162.19 166.892 161.882 166.892Z" fill="#292C33"/>
<path d="M289.389 468.667L4.7517 432.018C2.51835 431.736 1.26048 429.865 1.28615 428.02C1.31182 426.739 1.41451 417.692 1.41451 417.692L151.922 331.785C159.469 327.48 169.224 325.814 177.824 326.916L458.867 363.103C460.561 363.334 461.999 364.41 462.692 365.974L463.154 367.025C463.154 367.025 462.923 374.559 463 376.328C463.077 377.712 462.461 379.121 460.998 379.941L314.264 463.695C306.742 468.052 297.988 469.769 289.389 468.667Z" fill="#292C33"/>
<path d="M289.389 458.62L5.75287 422.023C1.97927 421.536 1.00379 416.564 4.28964 414.668L150.228 331.452C157.775 327.147 166.503 325.43 175.128 326.532L458.739 363.103C462.512 363.59 463.488 368.562 460.202 370.459L314.264 453.674C306.742 457.98 297.988 459.722 289.389 458.62Z" fill="white"/>
<path d="M294.395 459.492C292.7 459.492 291.006 459.389 289.312 459.159L5.70151 422.587C3.75054 422.331 2.23596 420.921 1.8509 418.999C1.46584 417.051 2.33865 415.18 4.03291 414.206L149.971 330.991C157.57 326.66 166.529 324.891 175.205 325.993L458.816 362.565C460.767 362.821 462.281 364.231 462.666 366.153C463.051 368.075 462.178 369.972 460.484 370.946L314.546 454.161C308.436 457.672 301.428 459.492 294.395 459.492ZM289.44 458.057C297.886 459.133 306.588 457.416 313.981 453.187L459.919 369.972C461.485 369.075 461.793 367.537 461.562 366.384C461.331 365.231 460.459 363.923 458.662 363.693L175.051 327.121C166.606 326.045 157.903 327.762 150.51 331.99L4.59767 415.18C3.03176 416.077 2.72371 417.615 2.95474 418.768C3.18578 419.922 4.05859 421.229 5.85554 421.459L289.44 458.057Z" fill="#292C33"/>
<path d="M344.915 412.412L98.989 380.454C95.6004 380.018 94.702 375.508 97.6798 373.816L155.516 341.165C162.319 337.27 170.225 335.732 178.003 336.706L423.929 368.665C427.318 369.1 428.216 373.611 425.238 375.302L367.402 407.953C360.574 411.849 352.693 413.412 344.915 412.412Z" fill="white"/>
<path d="M349.433 413.284C347.892 413.284 346.352 413.181 344.838 413.002L98.912 381.043C97.115 380.813 95.7288 379.531 95.3694 377.737C95.01 375.969 95.8058 374.252 97.3717 373.355L155.208 340.704C162.088 336.783 170.2 335.168 178.029 336.194L423.955 368.152C425.752 368.383 427.138 369.664 427.497 371.458C427.857 373.227 427.061 374.944 425.495 375.841L367.659 408.491C362.14 411.618 355.799 413.284 349.433 413.284ZM344.992 411.849C352.59 412.822 360.471 411.259 367.12 407.466L424.956 374.816C426.342 374.021 426.625 372.663 426.419 371.638C426.214 370.612 425.444 369.459 423.852 369.254L177.927 337.296C170.328 336.322 162.447 337.885 155.798 341.678L97.9622 374.329C96.576 375.123 96.2936 376.481 96.4989 377.507C96.7043 378.532 97.4744 379.685 99.066 379.89L344.992 411.849Z" fill="#292C33"/>
<path d="M418.872 174.35C418.846 174.35 418.82 174.35 418.82 174.35L304.817 161.51C304.534 161.485 304.303 161.228 304.303 160.946L304.329 155.026C304.329 154.872 304.406 154.719 304.509 154.616C304.637 154.514 304.791 154.462 304.945 154.488L418.949 167.328C419.231 167.354 419.462 167.61 419.462 167.892L419.437 173.812C419.437 173.966 419.36 174.119 419.257 174.222C419.129 174.299 419 174.35 418.872 174.35ZM305.433 160.434L418.307 173.146L418.333 168.353L305.459 155.641L305.433 160.434Z" fill="#292C33"/>
<path d="M444.697 187.062C444.671 187.062 444.645 187.062 444.645 187.062L328.485 173.966C328.203 173.94 327.972 173.684 327.972 173.402L327.997 167.482C327.997 167.328 328.074 167.174 328.177 167.072C328.306 166.969 328.46 166.918 328.614 166.943L444.774 180.04C445.056 180.065 445.287 180.322 445.287 180.603L445.261 186.524C445.261 186.677 445.184 186.831 445.082 186.934C444.979 187.011 444.825 187.062 444.697 187.062ZM329.101 172.889L444.132 185.857L444.158 181.065L329.127 168.097L329.101 172.889Z" fill="#292C33"/>
<path d="M430.655 195.263C430.629 195.263 430.603 195.263 430.603 195.263L370.56 188.497C370.277 188.471 370.046 188.215 370.046 187.933L370.072 182.013C370.072 181.859 370.149 181.705 370.251 181.603C370.38 181.5 370.534 181.449 370.688 181.475L430.732 188.241C431.014 188.266 431.245 188.523 431.245 188.804L431.219 194.725C431.219 194.878 431.142 195.032 431.04 195.135C430.937 195.212 430.783 195.263 430.655 195.263ZM371.176 187.421L430.09 194.058L430.116 189.266L371.201 182.628L371.176 187.421Z" fill="#292C33"/>
<path d="M418.589 252.594C418.564 252.594 418.538 252.594 418.538 252.594L304.534 239.754C304.252 239.728 304.021 239.472 304.021 239.19L304.047 233.27C304.047 233.116 304.124 232.962 304.226 232.86C304.355 232.757 304.509 232.706 304.663 232.732L418.667 245.571C418.949 245.597 419.18 245.853 419.18 246.135L419.154 252.055C419.154 252.209 419.077 252.363 418.975 252.465C418.846 252.542 418.718 252.594 418.589 252.594ZM305.151 238.677L418.025 251.389L418.05 246.597L305.176 233.885L305.151 238.677Z" fill="#292C33"/>
<path d="M444.414 265.305C444.389 265.305 444.363 265.305 444.363 265.305L328.203 252.235C327.92 252.209 327.689 251.953 327.689 251.671L327.715 245.751C327.715 245.597 327.792 245.443 327.895 245.341C328.023 245.238 328.177 245.187 328.331 245.213L444.491 258.283C444.774 258.309 445.005 258.565 445.005 258.847L444.979 264.767C444.979 264.921 444.902 265.075 444.799 265.177C444.697 265.254 444.543 265.305 444.414 265.305ZM328.819 251.133L443.85 264.101L443.875 259.308L328.845 246.34L328.819 251.133Z" fill="#292C33"/>
<path d="M444.363 275.07C444.337 275.07 444.312 275.07 444.312 275.07L370.277 266.741C369.995 266.715 369.764 266.459 369.764 266.177L369.789 260.257C369.789 260.103 369.866 259.949 369.969 259.846C370.097 259.744 370.252 259.693 370.406 259.718L444.44 268.048C444.722 268.073 444.953 268.329 444.953 268.611L444.928 274.532C444.928 274.685 444.851 274.839 444.748 274.942C444.645 275.018 444.517 275.07 444.363 275.07ZM370.893 265.664L443.798 273.865L443.824 269.073L370.919 260.872L370.893 265.664Z" fill="#292C33"/>
<path d="M396.846 279.093C396.821 279.093 396.795 279.093 396.795 279.093L327.715 271.302C327.433 271.277 327.202 271.02 327.202 270.739L327.227 264.818C327.227 264.665 327.304 264.511 327.407 264.408C327.535 264.306 327.689 264.255 327.843 264.28L396.923 272.071C397.206 272.097 397.437 272.353 397.437 272.635L397.411 278.555C397.411 278.709 397.334 278.863 397.231 278.965C397.103 279.042 396.975 279.093 396.846 279.093ZM328.331 270.252L396.282 277.914L396.307 273.122L328.357 265.459L328.331 270.252Z" fill="#292C33"/>
<path d="M418.769 203.695C418.743 203.695 418.718 203.695 418.718 203.695L304.714 190.855C304.432 190.829 304.201 190.573 304.201 190.291L304.226 184.371C304.226 184.217 304.303 184.063 304.406 183.961C304.534 183.858 304.688 183.807 304.842 183.833L418.846 196.672C419.129 196.698 419.36 196.954 419.36 197.236L419.334 203.156C419.334 203.31 419.257 203.464 419.154 203.566C419.026 203.643 418.897 203.695 418.769 203.695ZM305.33 189.778L418.204 202.49L418.23 197.698L305.356 184.986L305.33 189.778Z" fill="#292C33"/>
<path d="M444.594 216.406C444.568 216.406 444.543 216.406 444.543 216.406L328.383 203.336C328.1 203.31 327.869 203.054 327.869 202.772L327.895 196.852C327.895 196.698 327.972 196.544 328.075 196.442C328.203 196.339 328.357 196.288 328.511 196.314L444.671 209.384C444.953 209.41 445.184 209.666 445.184 209.948L445.159 215.868C445.159 216.022 445.082 216.176 444.979 216.278C444.876 216.355 444.722 216.406 444.594 216.406ZM328.999 202.234L444.029 215.202L444.055 210.409L329.024 197.441L328.999 202.234Z" fill="#292C33"/>
<path d="M416.51 232.809C416.484 232.809 416.459 232.809 416.459 232.809L370.431 227.632C370.149 227.606 369.918 227.35 369.918 227.068L369.943 221.148C369.943 220.994 370.02 220.84 370.123 220.738C370.251 220.635 370.405 220.584 370.559 220.609L416.587 225.786C416.869 225.812 417.101 226.068 417.101 226.35L417.075 232.27C417.075 232.424 416.998 232.578 416.895 232.68C416.792 232.757 416.638 232.809 416.51 232.809ZM371.047 226.555L415.945 231.604L415.971 226.811L371.073 221.763L371.047 226.555Z" fill="#292C33"/>
<path d="M430.244 244.111C430.218 244.111 430.193 244.111 430.193 244.111L384.165 238.934C383.883 238.908 383.652 238.652 383.652 238.37L383.677 232.45C383.677 232.296 383.754 232.142 383.857 232.04C383.985 231.937 384.139 231.886 384.293 231.911L430.321 237.088C430.603 237.114 430.834 237.37 430.834 237.652L430.809 243.572C430.809 243.726 430.732 243.88 430.629 243.982C430.501 244.085 430.372 244.111 430.244 244.111ZM384.781 237.857L429.679 242.906L429.705 238.114L384.807 233.065L384.781 237.857Z" fill="#292C33"/>
<path d="M444.568 226.171C444.543 226.171 444.517 226.171 444.517 226.171L370.457 217.841C370.175 217.816 369.943 217.56 369.943 217.278L369.969 211.357C369.969 211.204 370.046 211.05 370.149 210.947C370.277 210.845 370.431 210.794 370.585 210.819L444.645 219.123C444.928 219.149 445.159 219.405 445.159 219.687L445.133 225.607C445.133 225.761 445.056 225.914 444.953 226.017C444.825 226.119 444.697 226.171 444.568 226.171ZM371.073 216.765L443.978 224.966L444.004 220.174L371.099 211.973L371.073 216.765Z" fill="#292C33"/>
<path d="M418.435 291.728C418.41 291.728 418.384 291.728 418.384 291.728L304.38 278.888C304.098 278.863 303.867 278.606 303.867 278.325L303.893 272.404C303.893 272.251 303.97 272.097 304.072 271.994C304.201 271.892 304.355 271.841 304.509 271.866L418.512 284.706C418.795 284.732 419.026 284.988 419.026 285.27L419 291.19C419 291.344 418.923 291.498 418.82 291.6C418.718 291.677 418.564 291.728 418.435 291.728ZM304.996 277.812L417.871 290.524L417.896 285.731L305.022 273.019L304.996 277.812Z" fill="#292C33"/>
<path d="M440.538 304.004C440.512 304.004 440.487 304.004 440.487 304.004L328.074 291.344C327.792 291.318 327.561 291.062 327.561 290.78L327.587 284.86C327.587 284.706 327.664 284.552 327.766 284.45C327.895 284.347 328.049 284.296 328.203 284.322L440.615 296.982C440.897 297.008 441.128 297.264 441.128 297.546L441.103 303.466C441.103 303.62 441.026 303.774 440.923 303.876C440.795 303.953 440.666 304.004 440.538 304.004ZM328.691 290.267L439.973 302.8L439.999 298.007L328.716 285.475L328.691 290.267Z" fill="#292C33"/>
<path d="M444.235 314.204C444.209 314.204 444.183 314.204 444.183 314.204L370.149 305.875C369.866 305.849 369.635 305.593 369.635 305.311L369.661 299.391C369.661 299.237 369.738 299.084 369.841 298.981C369.969 298.879 370.123 298.827 370.277 298.853L444.312 307.182C444.594 307.208 444.825 307.464 444.825 307.746L444.799 313.666C444.799 313.82 444.722 313.974 444.62 314.076C444.517 314.153 444.363 314.204 444.235 314.204ZM370.765 304.799L443.67 313L443.695 308.207L370.791 300.006L370.765 304.799Z" fill="#292C33"/>
<path d="M418.333 321.073C418.307 321.073 418.281 321.073 418.281 321.073L304.278 308.233C303.995 308.207 303.764 307.951 303.764 307.669L303.79 301.749C303.79 301.595 303.867 301.441 303.97 301.339C304.098 301.236 304.252 301.185 304.406 301.211L418.41 314.051C418.692 314.076 418.923 314.332 418.923 314.614L418.898 320.535C418.898 320.688 418.821 320.842 418.718 320.945C418.589 321.022 418.461 321.073 418.333 321.073ZM304.894 307.157L417.768 319.868L417.794 315.076L304.919 302.364L304.894 307.157Z" fill="#292C33"/>
<path d="M444.158 333.759C444.132 333.759 444.106 333.759 444.106 333.759L327.946 320.663C327.664 320.637 327.433 320.381 327.433 320.099L327.458 314.179C327.458 314.025 327.535 313.871 327.638 313.769C327.766 313.666 327.92 313.615 328.075 313.641L444.235 326.737C444.517 326.762 444.748 327.019 444.748 327.3L444.722 333.221C444.722 333.374 444.645 333.528 444.543 333.631C444.44 333.708 444.312 333.759 444.158 333.759ZM328.562 319.612L443.593 332.58L443.618 327.787L328.588 314.819L328.562 319.612Z" fill="#292C33"/>
<path d="M295.113 228.785C295.088 228.785 295.062 228.785 295.062 228.785L283.947 227.529C283.664 227.503 283.433 227.247 283.433 226.965L283.459 221.276C283.459 221.122 283.536 220.968 283.638 220.866C283.767 220.763 283.921 220.712 284.075 220.737L295.19 221.993C295.473 222.019 295.704 222.275 295.704 222.557L295.678 228.247C295.678 228.4 295.601 228.554 295.498 228.657C295.396 228.734 295.267 228.785 295.113 228.785ZM284.588 226.478L294.549 227.606L294.574 223.044L284.614 221.916L284.588 226.478Z" fill="#292C33"/>
<path d="M295.781 160.485C295.755 160.485 295.729 160.485 295.729 160.485L284.152 159.178C283.87 159.152 283.639 158.896 283.639 158.614L283.664 152.694C283.664 152.54 283.741 152.387 283.844 152.284C283.972 152.182 284.126 152.13 284.28 152.156L295.858 153.463C296.14 153.489 296.371 153.745 296.371 154.027L296.346 159.947C296.346 160.101 296.269 160.254 296.166 160.357C296.063 160.434 295.935 160.485 295.781 160.485ZM284.768 158.127L295.216 159.306L295.242 154.514L284.794 153.335L284.768 158.127Z" fill="#292C33"/>
<path d="M295.832 151.515C295.806 151.515 295.781 151.515 295.781 151.515L284.203 150.208C283.921 150.182 283.69 149.926 283.69 149.644L283.715 143.724C283.715 143.57 283.793 143.417 283.895 143.314C284.024 143.212 284.178 143.16 284.332 143.186L295.909 144.493C296.191 144.519 296.422 144.775 296.422 145.057L296.397 150.977C296.397 151.131 296.32 151.284 296.217 151.387C296.089 151.464 295.96 151.515 295.832 151.515ZM284.819 149.132L295.267 150.311L295.293 145.518L284.845 144.339L284.819 149.132Z" fill="#292C33"/>
<path d="M295.652 170.275C295.627 170.275 295.601 170.275 295.601 170.275L284.126 168.994C283.844 168.968 283.613 168.712 283.613 168.43L283.638 162.51C283.638 162.356 283.715 162.202 283.818 162.1C283.947 161.997 284.101 161.946 284.255 161.972L295.729 163.253C296.012 163.279 296.243 163.535 296.243 163.817L296.217 169.737C296.217 169.891 296.14 170.045 296.037 170.147C295.935 170.224 295.806 170.275 295.652 170.275ZM284.742 167.892L295.088 169.071L295.113 164.278L284.768 163.099L284.742 167.892Z" fill="#292C33"/>
<path d="M295.242 180.014C295.216 180.014 295.19 180.014 295.19 180.014L284.28 178.784C283.998 178.758 283.767 178.502 283.767 178.22L283.793 172.3C283.793 172.146 283.87 171.992 283.972 171.89C284.101 171.787 284.255 171.736 284.409 171.762L295.319 172.992C295.601 173.017 295.832 173.274 295.832 173.556L295.806 179.476C295.806 179.63 295.729 179.783 295.627 179.886C295.498 179.963 295.37 180.014 295.242 180.014ZM284.896 177.707L294.677 178.809L294.703 174.017L284.922 172.915L284.896 177.707Z" fill="#292C33"/>
<path d="M295.267 189.778C295.242 189.778 295.216 189.778 295.216 189.778L284.126 188.523C283.844 188.497 283.613 188.241 283.613 187.959L283.638 182.039C283.638 181.885 283.715 181.731 283.818 181.629C283.947 181.526 284.101 181.475 284.255 181.5L295.344 182.756C295.627 182.782 295.858 183.038 295.858 183.32L295.832 189.24C295.832 189.394 295.755 189.548 295.652 189.65C295.524 189.727 295.396 189.778 295.267 189.778ZM284.742 187.472L294.703 188.599L294.728 183.807L284.768 182.679L284.742 187.472Z" fill="#292C33"/>
<path d="M295.165 199.568C295.139 199.568 295.113 199.568 295.113 199.568L284.024 198.313C283.741 198.287 283.51 198.031 283.51 197.749L283.536 191.829C283.536 191.675 283.613 191.521 283.715 191.419C283.844 191.316 283.998 191.265 284.152 191.29L295.242 192.546C295.524 192.572 295.755 192.828 295.755 193.11L295.729 199.03C295.729 199.184 295.652 199.338 295.55 199.44C295.447 199.517 295.293 199.568 295.165 199.568ZM284.64 197.236L294.6 198.364L294.626 193.571L284.665 192.444L284.64 197.236Z" fill="#292C33"/>
<path d="M295.37 218.764C295.344 218.764 295.319 218.764 295.319 218.764L284.332 217.534C284.049 217.508 283.818 217.252 283.818 216.97L283.844 211.05C283.844 210.896 283.921 210.742 284.024 210.64C284.152 210.537 284.306 210.486 284.46 210.512L295.447 211.742C295.729 211.768 295.961 212.024 295.961 212.306L295.935 218.226C295.935 218.38 295.858 218.533 295.755 218.636C295.652 218.713 295.498 218.764 295.37 218.764ZM284.948 216.458L294.805 217.56L294.831 212.767L284.973 211.665L284.948 216.458Z" fill="#292C33"/>
<path d="M295.139 208.948C295.113 208.948 295.088 208.948 295.088 208.948L284.588 207.77C284.306 207.744 284.075 207.488 284.075 207.206L284.101 201.286C284.101 201.132 284.178 200.978 284.28 200.875C284.409 200.773 284.563 200.722 284.717 200.747L295.242 201.926C295.524 201.952 295.755 202.208 295.755 202.49L295.729 208.41C295.729 208.564 295.652 208.718 295.55 208.82C295.396 208.897 295.267 208.948 295.139 208.948ZM285.179 206.693L294.549 207.744L294.574 202.951L285.204 201.901L285.179 206.693Z" fill="#292C33"/>
<path d="M295.011 258.514C294.985 258.514 294.959 258.514 294.959 258.514L283.844 257.258C283.561 257.232 283.33 256.976 283.33 256.694L283.356 251.005C283.356 250.851 283.433 250.697 283.536 250.595C283.664 250.492 283.818 250.441 283.972 250.466L295.088 251.722C295.37 251.748 295.601 252.004 295.601 252.286L295.575 257.976C295.575 258.129 295.498 258.283 295.396 258.386C295.293 258.463 295.139 258.514 295.011 258.514ZM284.486 256.182L294.446 257.309L294.472 252.747L284.511 251.62L284.486 256.182Z" fill="#292C33"/>
<path d="M295.267 248.467C295.242 248.467 295.216 248.467 295.216 248.467L284.229 247.237C283.947 247.212 283.716 246.955 283.716 246.673L283.741 240.753C283.741 240.6 283.818 240.446 283.921 240.343C284.049 240.241 284.203 240.189 284.357 240.215L295.344 241.445C295.627 241.471 295.858 241.727 295.858 242.009L295.832 247.929C295.832 248.083 295.755 248.237 295.652 248.339C295.524 248.416 295.396 248.467 295.267 248.467ZM284.845 246.161L294.703 247.263L294.728 242.47L284.871 241.368L284.845 246.161Z" fill="#292C33"/>
<path d="M295.011 238.652C294.985 238.652 294.959 238.652 294.959 238.652L284.434 237.473C284.152 237.447 283.921 237.191 283.921 236.909L283.947 230.989C283.947 230.835 284.024 230.681 284.126 230.579C284.255 230.476 284.409 230.425 284.563 230.451L295.088 231.63C295.37 231.655 295.601 231.912 295.601 232.193L295.575 238.114C295.575 238.267 295.498 238.421 295.396 238.524C295.293 238.601 295.165 238.652 295.011 238.652ZM285.076 236.396L294.446 237.447L294.472 232.655L285.102 231.604L285.076 236.396Z" fill="#292C33"/>
<path d="M294.805 316.357C294.78 316.357 294.754 316.357 294.754 316.357L283.639 315.101C283.356 315.076 283.125 314.819 283.125 314.538L283.151 308.848C283.151 308.694 283.228 308.54 283.33 308.438C283.459 308.335 283.613 308.284 283.767 308.31L294.882 309.566C295.165 309.591 295.396 309.848 295.396 310.129L295.37 315.819C295.37 315.973 295.293 316.126 295.19 316.229C295.062 316.306 294.934 316.357 294.805 316.357ZM284.255 314.051L294.215 315.178L294.241 310.616L284.28 309.489L284.255 314.051Z" fill="#292C33"/>
<path d="M294.908 267.561C294.882 267.561 294.857 267.561 294.857 267.561L283.947 266.33C283.664 266.305 283.433 266.049 283.433 265.767L283.459 259.846C283.459 259.693 283.536 259.539 283.638 259.436C283.767 259.334 283.921 259.283 284.075 259.308L294.985 260.538C295.267 260.564 295.498 260.82 295.498 261.102L295.473 267.022C295.473 267.176 295.396 267.33 295.293 267.432C295.19 267.509 295.062 267.561 294.908 267.561ZM284.588 265.28L294.369 266.382L294.394 261.589L284.614 260.487L284.588 265.28Z" fill="#292C33"/>
<path d="M294.934 277.351C294.908 277.351 294.882 277.351 294.882 277.351L283.793 276.095C283.51 276.069 283.279 275.813 283.279 275.531L283.305 269.611C283.305 269.457 283.382 269.303 283.485 269.201C283.613 269.098 283.767 269.047 283.921 269.073L295.011 270.328C295.293 270.354 295.524 270.61 295.524 270.892L295.498 276.812C295.498 276.966 295.421 277.12 295.319 277.223C295.216 277.299 295.088 277.351 294.934 277.351ZM284.409 275.044L294.369 276.172L294.395 271.379L284.434 270.252L284.409 275.044Z" fill="#292C33"/>
<path d="M294.857 287.141C294.831 287.141 294.805 287.141 294.805 287.141L283.716 285.885C283.433 285.859 283.202 285.603 283.202 285.321L283.228 279.401C283.228 279.247 283.305 279.093 283.408 278.991C283.536 278.888 283.69 278.837 283.844 278.863L294.934 280.119C295.216 280.144 295.447 280.4 295.447 280.682L295.421 286.603C295.421 286.756 295.344 286.91 295.242 287.013C295.113 287.089 294.985 287.141 294.857 287.141ZM284.306 284.809L294.266 285.936L294.292 281.144L284.332 280.016L284.306 284.809Z" fill="#292C33"/>
<path d="M295.062 306.336C295.036 306.336 295.011 306.336 295.011 306.336L284.024 305.106C283.741 305.081 283.51 304.824 283.51 304.542L283.536 298.622C283.536 298.468 283.613 298.315 283.715 298.212C283.844 298.11 283.998 298.058 284.152 298.084L295.139 299.314C295.421 299.34 295.652 299.596 295.652 299.878L295.627 305.798C295.627 305.952 295.55 306.106 295.447 306.208C295.319 306.285 295.19 306.336 295.062 306.336ZM284.614 304.03L294.472 305.132L294.497 300.339L284.64 299.237L284.614 304.03Z" fill="#292C33"/>
<path d="M294.805 296.521C294.78 296.521 294.754 296.521 294.754 296.521L284.229 295.342C283.947 295.316 283.716 295.06 283.716 294.778L283.741 288.858C283.741 288.704 283.818 288.55 283.921 288.448C284.049 288.345 284.203 288.294 284.357 288.32L294.882 289.499C295.165 289.524 295.396 289.78 295.396 290.062L295.37 295.983C295.37 296.136 295.293 296.29 295.19 296.393C295.088 296.469 294.959 296.521 294.805 296.521ZM284.871 294.265L294.241 295.316L294.266 290.524L284.896 289.473L284.871 294.265Z" fill="#292C33"/>
<path d="M235.634 143.417C235.609 143.417 235.583 143.417 235.583 143.417L180.699 137.24C180.416 137.215 180.185 136.958 180.185 136.676L180.211 130.987C180.211 130.833 180.288 130.679 180.391 130.577C180.519 130.474 180.673 130.423 180.827 130.449L235.711 136.599C235.994 136.625 236.225 136.881 236.225 137.163L236.199 142.853C236.199 143.007 236.122 143.16 236.019 143.263C235.891 143.365 235.763 143.417 235.634 143.417ZM181.315 136.164L235.069 142.238L235.095 137.676L181.341 131.628L181.315 136.164Z" fill="#292C33"/>
<path d="M246.519 154.565C246.493 154.565 246.467 154.565 246.467 154.565L188.631 148.055C188.349 148.03 188.118 147.773 188.118 147.492L188.143 141.571C188.143 141.418 188.22 141.264 188.323 141.161C188.451 141.059 188.605 141.008 188.759 141.033L246.596 147.543C246.878 147.568 247.109 147.825 247.109 148.107L247.083 154.027C247.083 154.181 247.006 154.334 246.904 154.437C246.775 154.514 246.647 154.565 246.519 154.565ZM189.247 146.953L245.954 153.36L245.979 148.568L189.273 142.186L189.247 146.953Z" fill="#292C33"/>
<path d="M262.871 166.175C262.845 166.175 262.819 166.175 262.819 166.175L195.434 158.589C195.151 158.563 194.92 158.307 194.92 158.025L194.946 152.105C194.946 151.951 195.023 151.797 195.126 151.695C195.254 151.592 195.408 151.541 195.562 151.566L262.948 159.152C263.23 159.178 263.461 159.434 263.461 159.716L263.436 165.636C263.436 165.79 263.359 165.944 263.256 166.046C263.153 166.123 262.999 166.175 262.871 166.175ZM196.05 157.512L262.306 164.97L262.332 160.178L196.076 152.72L196.05 157.512Z" fill="#292C33"/>
<path d="M272.728 177.067C272.703 177.067 272.677 177.067 272.677 177.067L216.432 170.736C216.15 170.711 215.919 170.455 215.919 170.173L215.945 164.253C215.945 164.099 216.022 163.945 216.124 163.842C216.253 163.74 216.407 163.689 216.561 163.714L272.805 170.045C273.088 170.07 273.319 170.326 273.319 170.608L273.293 176.529C273.293 176.682 273.216 176.836 273.113 176.939C273.011 177.015 272.882 177.067 272.728 177.067ZM217.074 169.66L272.189 175.862L272.215 171.07L217.1 164.868L217.074 169.66Z" fill="#292C33"/>
<path d="M224.904 220.507C224.878 220.507 224.853 220.507 224.853 220.507L180.391 215.509C180.108 215.484 179.877 215.227 179.877 214.945L179.903 209.256C179.903 209.102 179.98 208.948 180.083 208.846C180.211 208.743 180.365 208.692 180.519 208.718L224.981 213.715C225.263 213.741 225.494 213.997 225.494 214.279L225.469 219.969C225.469 220.122 225.392 220.276 225.289 220.379C225.186 220.456 225.058 220.507 224.904 220.507ZM181.033 214.407L224.339 219.277L224.365 214.715L181.058 209.845L181.033 214.407Z" fill="#292C33"/>
<path d="M226.855 230.604C226.829 230.604 226.803 230.604 226.803 230.604L194.304 226.94C194.022 226.914 193.791 226.658 193.791 226.376L193.817 220.456C193.817 220.302 193.894 220.148 193.996 220.046C194.125 219.943 194.279 219.892 194.433 219.917L226.932 223.582C227.214 223.608 227.445 223.864 227.445 224.146L227.42 230.066C227.42 230.22 227.343 230.374 227.24 230.476C227.111 230.553 226.983 230.604 226.855 230.604ZM194.92 225.889L226.29 229.426L226.316 224.633L194.946 221.096L194.92 225.889Z" fill="#292C33"/>
<path d="M239.716 241.855C239.69 241.855 239.665 241.855 239.665 241.855L208.552 238.344C208.269 238.319 208.038 238.062 208.038 237.78L208.064 231.86C208.064 231.706 208.141 231.553 208.244 231.45C208.372 231.348 208.526 231.296 208.68 231.322L239.793 234.782C240.075 234.807 240.306 235.064 240.306 235.346L240.281 241.266C240.281 241.42 240.204 241.573 240.101 241.676C239.998 241.804 239.87 241.855 239.716 241.855ZM209.168 237.268L239.151 240.651L239.177 235.858L209.193 232.475L209.168 237.268Z" fill="#292C33"/>
<path d="M261.562 254.106C261.536 254.106 261.51 254.106 261.51 254.106L222.131 249.672C221.849 249.646 221.618 249.39 221.618 249.108L221.644 243.188C221.644 243.034 221.721 242.88 221.823 242.778C221.952 242.675 222.106 242.624 222.26 242.65L261.639 247.083C261.921 247.109 262.152 247.365 262.152 247.647L262.126 253.567C262.126 253.721 262.049 253.875 261.947 253.978C261.818 254.054 261.69 254.106 261.562 254.106ZM222.748 248.596L260.997 252.901L261.023 248.109L222.773 243.803L222.748 248.596Z" fill="#292C33"/>
<path d="M221.053 181.039C221.028 181.039 221.002 181.039 221.002 181.039L181.264 176.554C180.981 176.528 180.75 176.272 180.75 175.99L180.776 170.07C180.776 169.916 180.853 169.763 180.956 169.66C181.084 169.558 181.238 169.506 181.392 169.532L221.13 174.017C221.413 174.043 221.644 174.299 221.644 174.581L221.618 180.501C221.618 180.655 221.541 180.808 221.438 180.911C221.336 180.988 221.207 181.039 221.053 181.039ZM181.88 175.503L220.489 179.86L220.514 175.068L181.905 170.711L181.88 175.503Z" fill="#292C33"/>
<path d="M271.676 196.519C271.65 196.519 271.625 196.519 271.625 196.519L210.22 189.599C209.938 189.573 209.707 189.317 209.707 189.035L209.732 183.115C209.732 182.961 209.809 182.807 209.912 182.705C210.041 182.602 210.195 182.551 210.349 182.577L271.753 189.496C272.035 189.522 272.266 189.778 272.266 190.06L272.241 195.98C272.241 196.134 272.164 196.288 272.061 196.39C271.958 196.467 271.83 196.519 271.676 196.519ZM210.836 188.548L271.111 195.34L271.137 190.547L210.862 183.756L210.836 188.548Z" fill="#292C33"/>
<path d="M221.49 200.645C221.464 200.645 221.438 200.645 221.438 200.645L181.7 196.16C181.418 196.134 181.187 195.878 181.187 195.596L181.212 189.676C181.212 189.522 181.289 189.368 181.392 189.266C181.52 189.163 181.674 189.112 181.828 189.138L221.567 193.571C221.849 193.597 222.08 193.853 222.08 194.135L222.054 200.055C222.054 200.209 221.977 200.363 221.875 200.465C221.746 200.594 221.618 200.645 221.49 200.645ZM182.316 195.083L220.925 199.44L220.951 194.648L182.342 190.291L182.316 195.083Z" fill="#292C33"/>
<path d="M272.112 216.124C272.087 216.124 272.061 216.124 272.061 216.124L210.657 209.205C210.374 209.179 210.143 208.923 210.143 208.641L210.169 202.721C210.169 202.567 210.246 202.413 210.349 202.311C210.477 202.208 210.631 202.157 210.785 202.183L272.189 209.102C272.472 209.128 272.703 209.384 272.703 209.666L272.677 215.586C272.677 215.74 272.6 215.894 272.497 215.996C272.369 216.073 272.241 216.124 272.112 216.124ZM211.273 208.128L271.548 214.92L271.573 210.127L211.298 203.336L211.273 208.128Z" fill="#292C33"/>
<path d="M229.73 260.18C229.704 260.18 229.679 260.18 229.679 260.18L180.262 254.618C179.98 254.593 179.749 254.336 179.749 254.054L179.775 248.365C179.775 248.211 179.852 248.057 179.954 247.955C180.083 247.852 180.237 247.801 180.391 247.827L229.807 253.388C230.089 253.414 230.32 253.67 230.32 253.952L230.295 259.616C230.295 259.77 230.218 259.923 230.115 260.026C230.012 260.128 229.858 260.18 229.73 260.18ZM180.879 253.542L229.165 258.975L229.191 254.413L180.904 248.98L180.879 253.542Z" fill="#292C33"/>
<path d="M262.974 273.814C262.948 273.814 262.922 273.814 262.922 273.814L182.213 264.741C181.931 264.716 181.7 264.46 181.7 264.178L181.726 258.258C181.726 258.104 181.803 257.95 181.905 257.847C182.034 257.745 182.188 257.694 182.342 257.719L263.025 266.817C263.307 266.843 263.538 267.099 263.538 267.381L263.513 273.301C263.513 273.455 263.436 273.609 263.333 273.711C263.23 273.763 263.102 273.814 262.974 273.814ZM182.855 263.665L262.409 272.635L262.435 267.843L182.881 258.873L182.855 263.665Z" fill="#292C33"/>
<path d="M263.923 283.707C263.898 283.707 263.872 283.707 263.872 283.707L217.536 278.478C217.254 278.453 217.023 278.196 217.023 277.914L217.049 271.994C217.049 271.841 217.126 271.687 217.228 271.584C217.357 271.482 217.511 271.43 217.665 271.456L264 276.684C264.283 276.71 264.514 276.966 264.514 277.248L264.488 283.168C264.488 283.322 264.411 283.476 264.308 283.578C264.206 283.655 264.077 283.707 263.923 283.707ZM218.178 277.428L263.384 282.528L263.41 277.735L218.204 272.635L218.178 277.428Z" fill="#292C33"/>
<path d="M246.955 301.365C246.929 301.365 246.904 301.365 246.904 301.365L193.534 295.342C193.252 295.316 193.021 295.06 193.021 294.778L193.046 288.858C193.046 288.704 193.123 288.55 193.226 288.448C193.354 288.345 193.508 288.294 193.663 288.32L247.032 294.342C247.314 294.368 247.545 294.624 247.545 294.906L247.52 300.826C247.52 300.98 247.443 301.134 247.34 301.236C247.237 301.313 247.109 301.365 246.955 301.365ZM194.176 294.291L246.416 300.186L246.442 295.393L194.202 289.499L194.176 294.291Z" fill="#292C33"/>
<path d="M274.32 293.907C274.294 293.907 274.269 293.907 274.269 293.907L229.833 288.909C229.55 288.883 229.319 288.627 229.319 288.345L229.345 282.425C229.345 282.271 229.422 282.118 229.525 282.015C229.653 281.913 229.807 281.861 229.961 281.887L274.397 286.884C274.679 286.91 274.91 287.166 274.91 287.448L274.885 293.368C274.885 293.522 274.808 293.676 274.705 293.778C274.602 293.855 274.448 293.907 274.32 293.907ZM230.449 287.833L273.755 292.702L273.781 287.91L230.474 283.04L230.449 287.833Z" fill="#292C33"/>
<path d="M257.352 312.333C257.326 312.333 257.3 312.333 257.3 312.333L215.252 307.592C214.969 307.567 214.738 307.31 214.738 307.028L214.764 301.108C214.764 300.954 214.841 300.801 214.944 300.698C215.072 300.596 215.226 300.544 215.38 300.57L257.429 305.311C257.711 305.337 257.942 305.593 257.942 305.875L257.916 311.795C257.916 311.949 257.839 312.103 257.737 312.205C257.634 312.282 257.48 312.333 257.352 312.333ZM215.868 306.516L256.787 311.129L256.813 306.336L215.893 301.723L215.868 306.516Z" fill="#292C33"/>
<path d="M184.729 190.163C191.25 191.521 195.639 197.006 194.715 202.67C193.791 208.385 187.784 212.229 181.11 211.358L56.0418 195.289C46.3383 194.033 39.1761 186.344 39.8949 177.938C40.28 173.504 42.8214 169.506 46.903 166.969C50.9847 164.432 56.2215 163.561 61.253 164.611L184.729 190.163Z" fill="white"/>
<path d="M183.009 212.05C182.368 212.05 181.726 211.998 181.058 211.921L55.9905 195.827C45.9019 194.52 38.5857 186.652 39.3302 177.861C39.7152 173.248 42.385 169.096 46.6207 166.457C50.8307 163.842 56.2215 162.945 61.407 164.022L184.883 189.573C191.712 190.983 196.281 196.749 195.306 202.721C194.381 208.231 189.17 212.05 183.009 212.05ZM57.0173 164.739C53.4747 164.739 50.0349 165.662 47.1854 167.456C43.2578 169.916 40.7934 173.735 40.434 177.989C39.7409 186.165 46.6207 193.495 56.0932 194.725L181.161 210.819C187.553 211.639 193.252 208.026 194.125 202.593C194.997 197.236 190.813 192.034 184.575 190.727L61.099 165.175C59.7897 164.893 58.4035 164.739 57.0173 164.739Z" fill="#292C33"/>
<path d="M91.5188 324.456C92.4686 332.067 90.2352 339.756 85.3578 345.702C80.4804 351.647 73.3952 355.338 65.7197 355.927C57.9928 356.517 50.3686 353.903 44.644 348.7C38.9194 343.498 35.5822 336.168 35.4282 328.454L36.5834 182.372C36.378 171.813 44.4387 162.945 54.9893 162.125C65.617 161.305 74.9868 168.968 76.296 179.527L91.5188 324.456Z" fill="white"/>
<path d="M63.6147 356.568C56.5039 356.568 49.5728 353.903 44.2846 349.136C38.4574 343.856 35.0432 336.322 34.8892 328.479L36.0443 182.372C35.839 171.557 44.1306 162.407 54.9637 161.587C65.9251 160.741 75.5259 168.609 76.8608 179.501L92.1092 324.43C93.059 332.17 90.7743 340.063 85.8199 346.086C80.8654 352.109 73.575 355.927 65.7967 356.517C65.0523 356.542 64.3335 356.568 63.6147 356.568ZM56.5296 162.638C56.0418 162.638 55.5284 162.664 55.015 162.689C44.7981 163.484 36.9428 172.095 37.1482 182.346L35.993 328.454C36.147 335.988 39.4329 343.216 45.0291 348.29C50.6253 353.365 58.1468 355.927 65.694 355.364C73.1642 354.8 80.1723 351.135 84.9214 345.343C89.6705 339.551 91.8782 331.965 90.954 324.533L75.7056 179.604C74.5248 169.839 66.2331 162.638 56.5296 162.638Z" fill="#292C33"/>
<path d="M79.1476 329.943C81.1856 320.826 75.4343 311.785 66.3017 309.75C57.1691 307.716 48.1135 313.458 46.0755 322.575C44.0375 331.693 49.7888 340.733 58.9214 342.768C68.0541 344.803 77.1096 339.061 79.1476 329.943Z" fill="#292C33"/>
<path d="M67.7526 184.038C69.1175 177.932 65.2658 171.878 59.1497 170.515C53.0336 169.153 46.9692 172.998 45.6043 179.104C44.2395 185.21 48.0911 191.264 54.2072 192.627C60.3233 193.99 66.3878 190.144 67.7526 184.038Z" fill="#292C33"/>
<path d="M63.2296 350.11C61.5867 350.11 59.9181 349.93 58.2495 349.572C56.4526 349.161 54.707 348.546 53.064 347.752C52.7817 347.624 52.679 347.265 52.8073 346.983C52.9357 346.701 53.2951 346.599 53.5774 346.727C55.1434 347.496 56.7863 348.085 58.5062 348.469C68.0557 350.597 77.9646 346.06 82.5597 337.449C82.7137 337.167 83.0474 337.065 83.3298 337.219C83.6122 337.372 83.7149 337.706 83.5609 337.988C79.5049 345.522 71.5726 350.11 63.2296 350.11Z" fill="#292C33"/>
<path d="M85.1011 332.349C85.0754 332.349 85.0497 332.349 85.0241 332.349C84.716 332.298 84.485 332.016 84.5363 331.709C85.0497 327.864 84.5106 323.943 82.9961 320.355C82.8677 320.073 82.9961 319.74 83.3041 319.612C83.5865 319.484 83.9202 319.612 84.0486 319.92C85.6401 323.687 86.2306 327.813 85.6915 331.862C85.6145 332.119 85.3834 332.349 85.1011 332.349Z" fill="#292C33"/>
<path d="M63.7944 195.34C63.589 195.34 63.4093 195.237 63.3067 195.032C63.1526 194.75 63.2553 194.417 63.5377 194.263C66.5412 192.649 68.8772 190.035 70.1094 186.882C70.2121 186.6 70.5458 186.447 70.8538 186.575C71.1362 186.677 71.2903 187.011 71.1619 187.318C69.827 190.701 67.3113 193.546 64.0768 195.263C63.9741 195.314 63.8971 195.34 63.7944 195.34Z" fill="#292C33"/>
<path d="M70.9566 177.528C70.7255 177.528 70.4945 177.374 70.4175 177.144C68.8516 172.3 64.7956 168.609 59.8155 167.507C55.9135 166.636 51.7805 167.43 48.4947 169.686C48.238 169.865 47.8786 169.788 47.6989 169.532C47.5192 169.276 47.5962 168.917 47.8529 168.737C51.4211 166.303 55.8622 165.431 60.0722 166.38C65.4117 167.584 69.8014 171.557 71.4957 176.759C71.5983 177.067 71.4186 177.374 71.1363 177.477C71.0849 177.502 71.0079 177.528 70.9566 177.528Z" fill="#292C33"/>
<path d="M206.934 275.429L229.91 263.127L236.379 269.739L245.261 286.295L247.366 295.598L224.391 307.925L206.934 275.429Z" fill="#292C33"/>
<path d="M224.391 308.489C224.339 308.489 224.288 308.489 224.236 308.464C224.082 308.412 223.98 308.31 223.903 308.182L206.447 275.71C206.293 275.429 206.395 275.095 206.678 274.942L229.653 262.614C229.884 262.486 230.141 262.537 230.32 262.717L236.789 269.355C236.815 269.38 236.866 269.432 236.892 269.483L245.774 286.013C245.8 286.064 245.826 286.116 245.826 286.167L247.931 295.496C247.982 295.752 247.879 296.008 247.648 296.111L224.673 308.438C224.57 308.464 224.468 308.489 224.391 308.489ZM207.705 275.659L224.622 307.131L246.724 295.291L244.722 286.474L235.917 270.072L229.807 263.819L207.705 275.659Z" fill="#292C33"/>
<path d="M312.724 164.304C280.404 181.629 268.287 221.814 285.615 254.08C302.969 286.346 343.22 298.468 375.54 281.144C407.859 263.819 419.976 223.634 402.648 191.367C385.269 159.101 345.017 146.979 312.724 164.304ZM397.386 194.186C413.173 223.582 402.135 260.18 372.716 275.941C343.297 291.703 306.64 280.682 290.826 251.287C275.039 221.891 286.077 185.293 315.496 169.532C344.94 153.745 381.598 164.791 397.386 194.186Z" fill="#292C33"/>
<path d="M206.344 304.594C203.289 306.234 199.49 305.081 197.847 302.031L197.18 300.775C195.537 297.725 196.692 293.932 199.747 292.292L279.249 249.672L285.872 261.974L206.344 304.594Z" fill="#292C33"/>
<path d="M239.819 276.197C239.613 276.197 239.434 276.095 239.331 275.89C239.177 275.608 239.279 275.275 239.562 275.121L246.211 271.559C246.493 271.405 246.827 271.507 246.981 271.789C247.135 272.071 247.032 272.404 246.75 272.558L240.101 276.121C239.998 276.197 239.896 276.197 239.819 276.197Z" fill="white"/>
<path d="M265.13 273.506L258.507 261.179C257.608 259.488 258.225 257.386 259.919 256.489L264.283 254.157C265.977 253.26 268.082 253.875 268.981 255.566L275.604 267.894C276.502 269.585 275.886 271.687 274.192 272.584L269.828 274.916C268.159 275.839 266.054 275.198 265.13 273.506Z" fill="#292C33"/>
<path d="M268.21 275.915C267.825 275.915 267.415 275.864 267.03 275.736C266.003 275.429 265.156 274.737 264.642 273.788L258.019 261.461C256.967 259.488 257.711 257.053 259.662 256.002L264.026 253.67C264.976 253.157 266.08 253.055 267.107 253.362C268.133 253.67 268.981 254.362 269.494 255.31L276.117 267.637C277.17 269.611 276.425 272.046 274.474 273.096L270.11 275.429C269.52 275.736 268.852 275.915 268.21 275.915ZM265.643 273.25C266.003 273.942 266.619 274.429 267.363 274.66C268.108 274.89 268.904 274.813 269.571 274.429L273.935 272.097C275.347 271.328 275.886 269.585 275.116 268.15L268.493 255.823C268.133 255.131 267.517 254.644 266.773 254.413C266.028 254.183 265.233 254.259 264.565 254.644L260.201 256.976C258.789 257.745 258.25 259.488 259.02 260.923L265.643 273.25Z" fill="white"/>
<path d="M391.25 197.954C391.045 197.954 390.839 197.851 390.762 197.646C388.221 192.931 385.012 188.625 381.213 184.909C380.982 184.678 380.982 184.32 381.213 184.115C381.444 183.884 381.778 183.884 382.009 184.115C385.885 187.908 389.171 192.29 391.764 197.108C391.918 197.39 391.815 197.723 391.533 197.877C391.43 197.928 391.353 197.954 391.25 197.954Z" fill="#292C33"/>
<path d="M319.141 270.508C319.064 270.508 318.961 270.482 318.884 270.431C309.335 265.408 301.557 257.719 296.448 248.186C282.329 221.942 292.238 189.138 318.525 175.042C337.496 164.868 360.702 166.892 377.619 180.219C377.876 180.424 377.901 180.757 377.722 181.013C377.516 181.27 377.183 181.295 376.926 181.116C360.368 168.071 337.65 166.098 319.064 176.042C293.342 189.83 283.638 221.968 297.449 247.647C302.481 256.976 310.079 264.511 319.423 269.432C319.706 269.585 319.809 269.918 319.655 270.2C319.552 270.405 319.346 270.508 319.141 270.508Z" fill="#292C33"/>
<path d="M171.303 202.029C169.661 199.158 169.275 195.75 170.251 192.597C171.201 189.445 173.434 186.831 176.386 185.345C179.646 183.73 183.42 183.499 186.834 184.704C190.248 185.934 193.021 188.497 194.51 191.803L231.116 273.916L216.484 281.246L171.303 202.029Z" fill="#292C33"/>
<path d="M216.484 281.836C216.279 281.836 216.099 281.733 215.996 281.554L170.816 202.311C169.121 199.312 168.711 195.724 169.712 192.444C170.713 189.163 173.049 186.395 176.13 184.858C179.492 183.166 183.471 182.936 187.014 184.191C190.557 185.473 193.483 188.164 195.023 191.598L231.63 273.711C231.758 273.993 231.63 274.301 231.373 274.455L216.741 281.784C216.638 281.81 216.561 281.836 216.484 281.836ZM171.817 201.747L216.689 280.503L230.372 273.66L193.971 192.059C192.559 188.907 189.889 186.421 186.629 185.242C183.369 184.089 179.723 184.294 176.617 185.832C173.819 187.241 171.689 189.753 170.79 192.751C169.892 195.75 170.251 199.03 171.817 201.747Z" fill="#292C33"/>
<path d="M170.764 203.669C169.121 200.799 168.736 197.39 169.712 194.238C170.662 191.085 172.895 188.471 175.847 186.985C179.107 185.37 182.881 185.14 186.295 186.344C189.709 187.574 192.482 190.137 193.971 193.443L230.552 275.582L215.919 282.912L170.764 203.669Z" fill="white"/>
<path d="M215.919 283.476C215.714 283.476 215.534 283.373 215.431 283.194L170.277 203.951C168.582 200.952 168.172 197.364 169.173 194.084C170.174 190.803 172.51 188.036 175.591 186.498C178.953 184.806 182.932 184.576 186.475 185.832C190.017 187.113 192.944 189.804 194.484 193.238L231.065 275.352C231.193 275.634 231.065 275.941 230.808 276.095L216.176 283.425C216.099 283.45 216.022 283.476 215.919 283.476ZM171.252 203.387L216.15 282.169L229.833 275.326L193.432 193.699C192.02 190.547 189.35 188.061 186.09 186.882C182.83 185.729 179.184 185.934 176.078 187.472C173.28 188.881 171.149 191.393 170.251 194.391C169.353 197.416 169.712 200.67 171.252 203.387Z" fill="#292C33"/>
<path d="M206.806 274.66L230.141 262.999L231.553 272.02L239.716 288.294L246.673 295.957L223.338 307.618L216.997 301.159L208.013 283.22L206.806 274.66Z" fill="white"/>
<path d="M223.338 308.182C223.184 308.182 223.03 308.13 222.927 308.002L216.587 301.544C216.535 301.493 216.51 301.441 216.484 301.39L207.499 283.45C207.474 283.399 207.448 283.348 207.448 283.271L206.267 274.685C206.241 274.455 206.37 274.198 206.575 274.096L229.884 262.435C230.038 262.358 230.244 262.358 230.398 262.435C230.552 262.512 230.68 262.666 230.706 262.845L232.117 271.789L240.204 287.91L247.109 295.521C247.238 295.649 247.289 295.829 247.238 296.008C247.212 296.188 247.084 296.341 246.929 296.418L223.62 308.079C223.518 308.156 223.441 308.182 223.338 308.182ZM217.459 300.826L223.466 306.926L245.749 295.777L239.28 288.653C239.254 288.627 239.228 288.576 239.203 288.525L231.039 272.276C231.014 272.225 230.988 272.174 230.988 272.122L229.679 263.844L207.422 274.967L208.552 283.04L217.459 300.826Z" fill="#292C33"/>
<path d="M187.18 200.349C188.025 197.811 186.65 195.069 184.107 194.224C181.565 193.38 178.818 194.754 177.972 197.292C177.126 199.831 178.502 202.573 181.045 203.417C183.587 204.261 186.334 202.888 187.18 200.349Z" fill="#292C33"/>
<path d="M225.212 299.852C225.007 299.852 224.801 299.75 224.699 299.545C224.57 299.263 224.673 298.93 224.955 298.776L235.506 293.497C235.788 293.368 236.122 293.471 236.276 293.753C236.404 294.035 236.302 294.368 236.019 294.522L225.469 299.801C225.366 299.827 225.289 299.852 225.212 299.852Z" fill="#292C33"/>
<path d="M215.252 280.682C215.046 280.682 214.841 280.58 214.738 280.375C214.61 280.093 214.713 279.76 214.995 279.606L225.546 274.327C225.828 274.198 226.162 274.301 226.316 274.583C226.444 274.865 226.342 275.198 226.059 275.352L215.508 280.631C215.431 280.682 215.329 280.682 215.252 280.682Z" fill="#292C33"/>
<path d="M182.599 207.231C181.7 207.231 180.802 207.078 179.929 206.796C179.313 206.591 178.697 206.309 178.158 205.976C177.901 205.822 177.798 205.463 177.978 205.207C178.132 204.95 178.491 204.848 178.748 205.027C179.236 205.335 179.749 205.565 180.288 205.745C181.854 206.257 183.497 206.257 185.063 205.694C185.345 205.591 185.679 205.745 185.782 206.027C185.884 206.309 185.73 206.642 185.448 206.744C184.498 207.078 183.548 207.231 182.599 207.231Z" fill="#292C33"/>
<path d="M174.82 200.645C174.538 200.645 174.307 200.44 174.256 200.183C174.025 198.851 174.153 197.441 174.564 196.16C175.616 193.008 178.44 190.752 181.751 190.419C182.059 190.393 182.342 190.624 182.368 190.932C182.393 191.239 182.162 191.521 181.854 191.547C178.979 191.829 176.54 193.776 175.642 196.519C175.257 197.646 175.18 198.851 175.359 200.004C175.411 200.312 175.205 200.594 174.897 200.645C174.872 200.645 174.846 200.645 174.82 200.645Z" fill="#292C33"/>
<path d="M264.026 160.28C262.358 154.796 262.64 151.31 264.155 147.697L266.696 142.648L259.046 139.572L256.71 145.339C255.966 147.184 254.862 148.901 253.476 150.336L252.218 151.669L264.026 160.28Z" fill="white"/>
<path d="M264.026 160.87C263.898 160.87 263.795 160.844 263.692 160.767L251.858 152.156C251.73 152.053 251.653 151.925 251.627 151.746C251.601 151.592 251.679 151.413 251.781 151.31L253.039 149.978C254.374 148.568 255.426 146.928 256.145 145.134L258.481 139.367C258.61 139.085 258.918 138.932 259.226 139.06L266.876 142.135C267.03 142.187 267.132 142.315 267.184 142.468C267.235 142.622 267.235 142.776 267.158 142.93L264.617 147.979C263.307 151.105 262.794 154.386 264.514 160.126C264.591 160.357 264.488 160.613 264.309 160.741C264.257 160.818 264.129 160.87 264.026 160.87ZM253.065 151.618L263.051 158.871C261.921 154.437 262.127 151.131 263.641 147.492L265.926 142.955L259.354 140.316L257.223 145.544C256.428 147.466 255.324 149.209 253.886 150.721L253.065 151.618Z" fill="#292C33"/>
<path d="M255.657 148.901C255.478 148.312 254.682 148.158 254.246 148.619C253.039 149.901 250.908 152.053 249.291 153.181C247.802 154.206 247.314 156.205 248.162 157.82C250.575 162.33 256.659 172.146 263.051 179.63C263.487 180.142 264.591 180.834 266.157 180.117C271.419 177.759 266.414 167.046 263.564 155.923C263.461 155.488 263.102 155.154 262.666 155.078L261.074 154.796C258.148 154.181 256.915 152.797 255.657 148.901Z" fill="#292C33"/>
<path d="M249.676 152.925C249.676 152.925 249.445 153.079 249.317 153.181C247.828 154.206 247.34 156.205 248.187 157.82C250.6 162.33 256.684 172.146 263.076 179.63C263.513 180.142 264.617 180.834 266.182 180.117C266.67 179.912 267.389 179.322 267.389 179.322L266.953 178.784C260.817 170.967 255.247 162.741 250.318 154.104L249.676 152.925Z" fill="white"/>
<path d="M264.899 180.962C263.898 180.962 263.128 180.501 262.666 179.963C256.248 172.479 250.215 162.741 247.7 158.051C246.698 156.18 247.263 153.873 249.009 152.694L249.368 152.438C249.496 152.361 249.65 152.31 249.805 152.361C249.959 152.387 250.087 152.489 250.164 152.643L250.831 153.822C255.734 162.382 261.305 170.66 267.415 178.425L267.851 178.963C268.031 179.194 268.005 179.553 267.774 179.758C267.697 179.835 266.978 180.399 266.439 180.629C265.874 180.86 265.361 180.962 264.899 180.962ZM249.496 153.719C248.367 154.616 248.008 156.205 248.701 157.512C251.191 162.177 257.172 171.813 263.513 179.22C263.667 179.399 264.488 180.219 265.951 179.553C266.131 179.476 266.362 179.322 266.593 179.168L266.516 179.066C260.381 171.275 254.759 162.946 249.856 154.334L249.496 153.719Z" fill="#292C33"/>
<path d="M265.772 164.791C265.746 164.791 265.72 164.791 265.669 164.791L260.381 163.919C260.073 163.868 259.867 163.586 259.919 163.279C259.97 162.971 260.252 162.766 260.561 162.817L265.849 163.689C266.157 163.74 266.362 164.022 266.311 164.329C266.285 164.611 266.054 164.791 265.772 164.791Z" fill="white"/>
<path d="M266.619 167.815C266.593 167.815 266.568 167.815 266.542 167.815L262.229 167.174C261.921 167.123 261.716 166.841 261.741 166.534C261.793 166.226 262.075 166.021 262.383 166.047L266.696 166.687C267.004 166.739 267.209 167.02 267.184 167.328C267.158 167.61 266.901 167.815 266.619 167.815Z" fill="white"/>
<path d="M220.874 80.5501C220.874 80.5501 274.038 68.9148 290.236 78.1154C292.675 79.4994 294.985 82.421 295.498 85.1633C297.064 93.5694 292.367 111.842 266.773 146.236C266.413 146.723 265.772 146.902 265.207 146.697L257.095 143.622C256.428 143.365 256.068 142.648 256.274 141.981L267.107 104.077C267.389 103.103 266.568 102.129 265.541 102.257L214.892 108.485L220.874 80.5501Z" fill="white"/>
<path d="M265.669 147.363C265.438 147.363 265.207 147.312 265.002 147.235L256.89 144.16C255.966 143.801 255.452 142.802 255.735 141.828L266.568 103.923C266.645 103.641 266.593 103.359 266.388 103.129C266.182 102.898 265.926 102.796 265.618 102.821L214.969 109.023C214.79 109.049 214.61 108.972 214.482 108.844C214.353 108.716 214.302 108.511 214.353 108.331L220.36 80.3707C220.412 80.1657 220.566 79.9863 220.797 79.9351C222.979 79.4481 274.346 68.351 290.544 77.5772C293.239 79.115 295.576 82.2416 296.089 85.0095C297.347 91.8266 295.293 108.895 267.261 146.543C266.85 147.082 266.26 147.363 265.669 147.363ZM265.695 101.719C266.285 101.719 266.824 101.975 267.209 102.411C267.646 102.924 267.8 103.616 267.62 104.256L256.787 142.161C256.684 142.545 256.89 142.981 257.275 143.109L265.387 146.185C265.72 146.313 266.08 146.21 266.311 145.928C294.087 108.613 296.166 91.9292 294.934 85.2914C294.472 82.8054 292.367 80.0119 289.954 78.628C274.808 70.0169 226.033 80.0376 221.361 81.0371L215.611 107.87L265.464 101.745C265.541 101.719 265.618 101.719 265.695 101.719Z" fill="#292C33"/>
<path d="M236.559 180.475L237.611 185.422C238.997 192.623 233.735 196.288 233.735 196.288L249.291 198.185C249.291 198.185 245.903 196.134 246.596 186.139L247.494 177.784L236.559 180.475Z" fill="white"/>
<path d="M249.291 198.748C249.265 198.748 249.24 198.748 249.214 198.748L233.658 196.852C233.427 196.826 233.221 196.647 233.17 196.416C233.119 196.186 233.196 195.955 233.401 195.827C233.606 195.673 238.355 192.264 237.046 185.524L235.994 180.603C235.942 180.296 236.122 180.014 236.404 179.937L247.315 177.221C247.494 177.169 247.674 177.221 247.828 177.349C247.956 177.477 248.033 177.656 248.008 177.836L247.109 186.19C246.467 195.57 249.522 197.672 249.548 197.698C249.779 197.851 249.856 198.108 249.779 198.364C249.753 198.595 249.548 198.748 249.291 198.748ZM235.044 195.878L247.879 197.441C246.852 195.904 245.569 192.623 246.031 186.088L246.827 178.502L237.226 180.885L238.15 185.293C239.228 190.752 236.584 194.34 235.044 195.878Z" fill="#292C33"/>
<path d="M236.25 189.625C234.967 191.111 232.631 193.879 230.86 196.544C229.73 198.236 230.397 200.158 231.604 201.773C234.043 205.053 237.406 207.59 241.359 210.204C244.799 212.485 248.675 214.869 253.321 216.996C254.579 217.56 257.429 218.354 259.328 217.406C265.079 214.561 255.503 205.591 247.982 195.289C247.7 194.878 247.186 194.673 246.698 194.776L244.927 195.135C243.156 195.494 241.359 194.75 240.358 193.264L237.996 189.727C237.585 189.138 236.713 189.086 236.25 189.625Z" fill="#292C33"/>
<path d="M231.784 195.314C231.784 195.314 230.937 196.442 230.86 196.57C230.577 196.98 230.423 197.493 230.32 197.98C230.038 199.594 230.603 201.26 231.732 202.439C232.015 202.721 232.374 203.105 232.811 203.515C237.329 207.795 242.411 211.46 247.879 214.459C250.652 215.971 256.813 219.072 259.328 217.431C260.099 216.919 260.586 215.381 260.586 215.381C260.586 215.381 259.123 216.253 254.682 214.074C247.212 210.358 242.129 206.206 235.968 201.209C234.762 200.235 233.914 199.338 233.042 198.261C232.348 197.416 231.912 196.391 231.784 195.314Z" fill="white"/>
<path d="M257.429 218.457C255.17 218.457 251.884 217.278 247.597 214.946C242.001 211.896 236.892 208.18 232.425 203.925C231.989 203.515 231.604 203.131 231.322 202.849C230.038 201.491 229.448 199.645 229.756 197.877C229.858 197.236 230.089 196.698 230.372 196.262C230.474 196.134 231.168 195.186 231.322 194.981C231.45 194.802 231.707 194.725 231.912 194.776C232.143 194.827 232.297 195.032 232.323 195.263C232.451 196.237 232.836 197.159 233.452 197.903C234.402 199.082 235.224 199.927 236.276 200.773L236.866 201.26C242.694 205.95 247.7 209.999 254.887 213.562C258.866 215.535 260.253 214.894 260.253 214.894C260.458 214.792 260.715 214.817 260.869 214.971C261.048 215.125 261.125 215.356 261.048 215.561C260.997 215.74 260.484 217.329 259.559 217.918C259.072 218.277 258.327 218.457 257.429 218.457ZM231.501 196.621C231.399 196.749 231.347 196.852 231.322 196.877C231.116 197.185 230.962 197.595 230.86 198.082C230.603 199.492 231.065 200.978 232.117 202.054C232.4 202.336 232.759 202.695 233.17 203.105C237.585 207.308 242.617 210.947 248.11 213.946C255.452 217.944 258.071 217.534 258.969 216.945C259.2 216.791 259.431 216.458 259.611 216.099C258.61 216.124 256.967 215.843 254.374 214.561C247.083 210.947 242.001 206.847 236.148 202.106L235.557 201.619C234.428 200.722 233.555 199.825 232.554 198.595C232.117 198.005 231.758 197.339 231.501 196.621Z" fill="#292C33"/>
<path d="M246.57 203.054C246.313 203.054 246.082 202.875 246.005 202.618C245.928 202.311 246.134 202.003 246.442 201.952L252.243 200.696C252.551 200.619 252.859 200.824 252.911 201.132C252.988 201.439 252.782 201.747 252.474 201.798L246.673 203.054C246.647 203.054 246.596 203.054 246.57 203.054Z" fill="white"/>
<path d="M249.779 205.642C249.522 205.642 249.291 205.463 249.24 205.207C249.163 204.899 249.368 204.592 249.651 204.515L254.348 203.413C254.656 203.336 254.964 203.541 255.041 203.823C255.118 204.13 254.913 204.438 254.631 204.515L249.933 205.617C249.856 205.642 249.83 205.642 249.779 205.642Z" fill="white"/>
<path d="M255.272 95.7222C239.793 82.4979 189.94 82.0879 189.94 82.0879C189.94 82.0879 183.728 89.4945 186.68 104.41C187.656 109.331 191.147 113.739 196.64 113.739L227.214 113.995C229.448 114.021 231.245 115.866 231.142 118.121C230.577 132.883 230.064 163.381 234.299 184.166C234.479 185.012 235.095 185.678 235.942 185.909C237.893 186.447 241.718 187.293 245.877 187.241C247.16 187.216 248.264 186.242 248.418 184.96L258.558 109.382C258.866 107.101 258.866 104.795 258.481 102.514C258.096 100.053 257.198 97.3624 255.272 95.7222Z" fill="white"/>
<path d="M245.492 187.779C241.41 187.779 237.688 186.934 235.814 186.421C234.761 186.139 233.991 185.294 233.76 184.243C229.576 163.689 229.987 133.96 230.603 118.07C230.629 117.148 230.295 116.251 229.653 115.584C229.011 114.918 228.138 114.533 227.214 114.533L196.64 114.277C190.325 114.277 187.014 108.998 186.115 104.487C183.138 89.4945 189.222 82.011 189.478 81.7034C189.581 81.5753 189.761 81.524 189.915 81.4984C191.968 81.524 240.127 82.0622 255.606 95.2609C257.326 96.7217 258.481 99.1308 259.02 102.36C259.405 104.59 259.431 106.947 259.097 109.382L248.957 184.96C248.752 186.524 247.417 187.703 245.851 187.728C245.749 187.779 245.62 187.779 245.492 187.779ZM190.223 82.6517C189.299 83.9331 184.627 91.186 187.245 104.282C188.066 108.383 191.019 113.15 196.64 113.15L227.214 113.406C228.446 113.406 229.602 113.918 230.449 114.815C231.296 115.712 231.758 116.891 231.707 118.121C231.091 133.96 230.68 163.586 234.839 184.038C234.967 184.678 235.429 185.165 236.071 185.345C237.97 185.857 241.744 186.703 245.851 186.652C246.852 186.626 247.7 185.883 247.854 184.883L257.994 109.305C258.302 106.973 258.276 104.718 257.916 102.616C257.429 99.6433 256.402 97.4905 254.887 96.1835C240.332 83.7281 194.279 82.7029 190.223 82.6517Z" fill="#292C33"/>
<path d="M244.722 47.1562L248.829 54.9985C252.808 62.1489 259.2 66.8901 266.285 70.9907L269.16 72.6565C271.009 73.7329 273.139 74.143 275.244 73.8611L275.578 73.8098C278.813 73.3741 282.073 74.143 284.768 75.9626L277.632 78.7048C273.268 80.3707 268.442 80.2938 264.155 78.4229C260.073 76.6289 250.857 74.4249 246.493 69.3761C237.38 58.7916 237.739 56.4337 237.739 56.4337L244.722 47.1562Z" fill="white"/>
<path d="M271.188 80.4732C268.698 80.4732 266.234 79.9606 263.923 78.9355C262.974 78.5254 261.741 78.0897 260.33 77.5772C255.76 75.9369 249.496 73.7073 246.082 69.7349C237.252 59.4835 237.123 56.7669 237.2 56.3312C237.226 56.2287 237.252 56.1518 237.303 56.0749L244.285 46.7974C244.414 46.6437 244.593 46.5668 244.773 46.5668C244.978 46.5924 245.132 46.6949 245.235 46.8743L249.342 54.7166C253.527 62.2257 260.407 66.8901 266.593 70.4781L269.468 72.1439C271.188 73.1434 273.242 73.5535 275.193 73.2716L275.527 73.2203C278.889 72.759 282.304 73.5791 285.102 75.4756C285.281 75.6038 285.384 75.8088 285.359 76.0138C285.333 76.2189 285.204 76.3982 284.999 76.4751L277.863 79.2174C275.655 80.0631 273.422 80.4732 271.188 80.4732ZM238.304 56.6131C238.407 57.1513 239.228 60.073 246.904 68.9916C250.113 72.7334 256.222 74.9118 260.689 76.5008C262.127 77.0133 263.384 77.449 264.36 77.8847C268.493 79.7043 273.114 79.7812 277.401 78.141L283.459 75.8088C281.071 74.5017 278.35 73.9635 275.629 74.3223L275.296 74.3736C273.062 74.6811 270.778 74.2198 268.852 73.0922L265.977 71.4263C259.662 67.7615 252.628 62.9946 248.29 55.2292L244.593 48.1557L238.304 56.6131Z" fill="#292C33"/>
<path d="M223.954 85.0607C223.954 85.0607 224.468 86.1115 210.657 88.1105C200.696 89.5457 191.635 88.9049 187.373 88.4436C185.987 88.2899 185.037 86.9572 185.371 85.5989C186.501 81.1139 187.322 76.9621 191.635 65.5831C194.638 57.6895 190.069 43.312 199.387 34.7521C215.098 20.3233 236.764 38.7245 236.764 38.7245L243.567 48.7196C235.763 57.8689 229.627 68.2997 225.443 79.5506L223.954 85.0607Z" fill="#292C33"/>
<path d="M218.127 57.5614C217.844 57.5614 217.588 57.3564 217.562 57.0489L216.407 46.1824C216.381 45.8749 216.587 45.593 216.92 45.5673C217.228 45.5417 217.511 45.7467 217.536 46.0799L218.692 56.9464C218.717 57.2539 218.512 57.5358 218.178 57.5614C218.178 57.5614 218.153 57.5614 218.127 57.5614Z" fill="white"/>
<path d="M203.726 63.5328C203.52 63.5328 203.315 63.4303 203.212 63.2252C200.671 58.3815 197.462 45.6698 197.385 42.9532C197.385 42.6456 197.616 42.3893 197.95 42.3637C198.283 42.3381 198.514 42.5944 198.54 42.9275C198.591 45.4904 201.8 58.0739 204.239 62.687C204.393 62.969 204.265 63.3021 204.008 63.4559C203.905 63.5072 203.828 63.5328 203.726 63.5328Z" fill="white"/>
<path d="M291.751 76.9622L254.836 79.7813L275.116 43.1839C275.86 41.8 277.298 40.903 278.89 40.7748L308.847 38.4939C310.747 38.3401 312.056 40.2879 311.158 41.9281L291.751 76.9622Z" fill="#292C33"/>
<path d="M286.95 59.6886C286.231 61.0212 284.537 62.1745 283.202 62.277C281.842 62.3796 281.328 61.4057 282.073 60.073C282.792 58.7403 284.486 57.587 285.821 57.4845C287.181 57.382 287.669 58.3815 286.95 59.6886Z" fill="white"/>
<path d="M289.954 79.3457L232.066 83.7537C230.86 83.8562 229.833 82.9593 229.73 81.7547L229.627 81.4216L291.853 76.6803L291.956 77.0135C292.059 78.218 291.16 79.2431 289.954 79.3457Z" fill="#292C33"/>
<path d="M260.407 72.6822L252.885 70.0681C251.756 69.6837 250.523 69.9143 249.599 70.6576L246.108 73.5536C245.441 74.1174 244.593 74.3737 243.721 74.3224C239.947 74.0661 222.388 69.2736 221.028 66.0957C219.898 63.4047 219 60.2012 219 60.2012L205.394 64.9681C205.394 64.9681 205.625 69.1711 211.144 74.8094C215.868 79.6019 228.01 81.2165 244.747 80.217C244.747 80.217 248.239 79.8325 251.165 76.3214C253.039 74.0918 257.608 75.2451 260.304 74.5787C261.279 74.3481 261.356 73.0154 260.407 72.6822Z" fill="white"/>
<path d="M235.891 81.0626C223.158 81.0626 214.533 79.0636 210.734 75.1937C205.112 69.4786 204.829 65.173 204.804 64.9936C204.778 64.7373 204.932 64.5067 205.189 64.4298L218.82 59.6629C218.974 59.6117 219.128 59.6117 219.282 59.6885C219.41 59.7654 219.513 59.8936 219.564 60.0473C219.564 60.073 220.463 63.2509 221.567 65.865C222.722 68.6072 239.819 73.4766 243.772 73.7585C244.491 73.8098 245.21 73.5791 245.749 73.1178L249.24 70.2218C250.292 69.3505 251.756 69.0942 253.065 69.5299L260.612 72.144C261.279 72.3746 261.69 72.9897 261.664 73.6817C261.639 74.3736 261.151 74.9631 260.484 75.1169C259.482 75.3731 258.276 75.3731 257.044 75.3731C254.913 75.3988 252.705 75.3988 251.653 76.6546C248.624 80.2682 245.004 80.7295 244.85 80.7551C241.667 80.9601 238.663 81.0626 235.891 81.0626ZM206.01 65.3524C206.241 66.5057 207.217 70.0168 211.555 74.4249C215.945 78.8842 227.42 80.7038 244.722 79.6531C244.722 79.6531 248.008 79.2174 250.754 75.9626C252.141 74.3224 254.605 74.2967 256.992 74.2711C258.173 74.2711 259.303 74.2455 260.176 74.0405C260.458 73.9636 260.484 73.7329 260.509 73.656C260.509 73.5791 260.509 73.3229 260.227 73.246L252.68 70.6319C251.756 70.2987 250.703 70.5037 249.959 71.1188L246.467 73.9892C245.697 74.6299 244.696 74.9631 243.695 74.8862C240.204 74.6555 222.055 69.9399 220.514 66.3007C219.667 64.276 218.948 61.9695 218.64 60.9187L206.01 65.3524Z" fill="#292C33"/>
<path d="M234.864 37.7506C244.157 42.7225 247.931 50.0266 252.808 56.5619C249.368 59.6629 245.287 63.866 242.617 66.8389C240.101 64.9167 236.944 62.969 234.633 60.2011L234.864 37.7506Z" fill="#292C33"/>
<path d="M223.287 19.657L223.261 29.8315C223.312 31.1642 224.185 32.3175 225.443 32.7531L227.394 33.5733C227.882 33.7783 226.085 36.4949 218.127 35.2904C215.046 34.829 212.146 33.6245 209.578 31.8561L207.704 30.5491C208.988 30.3697 212.556 29.4214 212.864 28.14L215.816 14.8901L223.287 19.657Z" fill="white"/>
<path d="M221.849 36.1618C220.745 36.1618 219.487 36.0592 218.05 35.8542C214.944 35.3673 211.915 34.1627 209.27 32.3431L207.396 31.0361C207.217 30.9079 207.114 30.6773 207.165 30.4466C207.217 30.216 207.396 30.0622 207.628 30.0109C209.347 29.7546 212.146 28.7808 212.325 28.0375L215.252 14.8133C215.303 14.6339 215.406 14.4801 215.585 14.4032C215.765 14.3263 215.945 14.352 216.099 14.4545L223.569 19.1957C223.723 19.2983 223.826 19.4777 223.826 19.6827L223.8 29.8572C223.851 30.9336 224.57 31.8818 225.623 32.2406L227.599 33.0863C227.933 33.2401 228.087 33.5989 227.984 33.9833C227.728 34.9572 225.828 36.1618 221.849 36.1618ZM209.116 30.831L209.912 31.3949C212.402 33.112 215.277 34.2652 218.204 34.7266C223.672 35.5723 226.008 34.4703 226.701 33.9065L225.238 33.2657C223.8 32.7788 222.773 31.4205 222.696 29.8572L222.722 19.9646L216.202 15.8128L213.429 28.2682C213.095 29.6265 210.657 30.4466 209.116 30.831Z" fill="#292C33"/>
<path d="M236.866 8.20109C234.659 6.53525 235.968 10.8152 229.114 2.69099C226.393 -0.538195 225.469 4.53623 224.75 3.69049C222.131 0.589455 222.234 0.691969 220.36 0.051259C219.128 -0.358796 217.151 1.10202 216.381 2.66536C215.354 4.74126 216.612 6.27896 215.303 11.2252C214.379 14.7107 212.993 16.2484 213.865 17.4273C214.738 18.6062 216.612 17.6324 217.665 18.8369C219.025 20.4002 216.766 23.0656 217.588 25.3465C218.101 26.7817 220.257 28.7038 225.289 29.3958C226.11 29.4983 226.906 29.0114 227.163 28.2425C227.497 27.243 227.907 25.9616 228.215 24.7058C229.627 18.76 228.652 16.556 230.089 15.7102C232.297 14.4544 235.172 17.9143 236.789 16.761C238.509 15.5821 239.896 10.482 236.866 8.20109Z" fill="#292C33"/>
<path d="M224.339 9.66201L224.185 11.3279C224.108 12.1223 223.98 12.8912 223.8 13.66C223.466 15.0952 222.876 17.5812 222.671 18.9651C222.363 21.041 228.678 22.4506 228.678 22.4506L229.627 21.6817L230.372 21.8355C230.526 21.8611 230.68 21.8611 230.808 21.8099C231.168 21.6817 231.373 21.3742 231.373 21.041C231.373 19.1701 231.476 15.044 232.554 12.0198C232.554 12.0198 229.448 8.55999 224.339 9.66201Z" fill="white"/>
<path d="M228.652 23.0144C228.6 23.0144 228.575 23.0144 228.523 22.9887C227.368 22.7325 221.695 21.3229 222.08 18.8626C222.311 17.4274 222.902 14.8902 223.235 13.5062C223.415 12.763 223.543 12.0198 223.62 11.2509L223.774 9.58508C223.8 9.32879 223.98 9.14939 224.211 9.09814C229.602 7.94486 232.836 11.4816 232.965 11.6097C233.093 11.7635 233.144 11.9941 233.067 12.1735C231.989 15.1721 231.886 19.3495 231.912 21.0154C231.912 21.6048 231.527 22.143 230.962 22.3224C230.731 22.3993 230.474 22.3993 230.243 22.348L229.756 22.2455L229.011 22.8606C228.909 22.9887 228.78 23.0144 228.652 23.0144ZM224.853 10.1233L224.724 11.3534C224.647 12.1479 224.519 12.968 224.313 13.7625C223.98 15.1208 223.389 17.6324 223.184 19.042C223.03 20.0158 226.085 21.246 228.498 21.8355L229.242 21.246C229.371 21.1435 229.55 21.0922 229.704 21.1435L230.449 21.2973C230.5 21.2973 230.551 21.2973 230.603 21.2973C230.705 21.2716 230.782 21.1691 230.782 21.0666C230.782 19.0163 230.911 15.1977 231.886 12.1735C231.142 11.456 228.652 9.48256 224.853 10.1233Z" fill="#292C33"/>
<path d="M222.388 14.5569C222.388 14.5569 222.773 10.5589 220.925 10.7895C219.077 10.9945 218.743 15.4026 222.388 14.5569Z" fill="white"/>
</g>
<defs>
<clipPath id="clip0_73_25984">
<rect width="470.673" height="469" fill="white" transform="translate(0.0283203)"/>
</clipPath>
</defs>
</svg>
