<svg width="80" height="91" viewBox="0 0 80 91" fill="none" xmlns="http://www.w3.org/2000/svg">
<path d="M76.895 67.6071L39.9439 45.6065L2.57573 66.1231L39.9093 88.3966L76.895 67.6071Z" fill="#3C78EC"/>
<path d="M39.8956 89.651C39.6644 89.6463 39.4726 89.5666 39.2422 89.4861L1.9069 67.1699C1.52404 66.9348 1.29733 66.5135 1.3022 66.0591C1.30707 65.6047 1.54271 65.1929 1.93043 64.9735L39.2999 44.5282C39.6877 44.3089 40.1885 44.3192 40.5714 44.5543L77.5247 66.5597C77.9075 66.7948 78.1342 67.2161 78.1298 67.6326C78.1249 68.087 77.8893 68.4989 77.5015 68.7182L40.5137 89.5122C40.3588 89.5848 40.1268 89.6558 39.8956 89.651ZM5.1162 66.1751L39.9244 86.9624L74.392 67.594L39.9277 47.0788L5.1162 66.1751Z" fill="black"/>
<path d="M40.4082 1.9646L39.9433 45.4418L77.2321 67.4738L77.6917 24.492L40.4082 1.9646Z" fill="#FF722C"/>
<path d="M77.2154 68.7281C76.9832 68.7234 76.79 68.6813 76.5977 68.563L39.3162 46.533C38.9316 46.2965 38.6651 45.8718 38.67 45.4146L39.1348 1.94142C39.1397 1.48421 39.3764 1.06986 39.8047 0.849996C40.1942 0.629333 40.6974 0.639658 41.082 0.876207L78.3582 23.4015C78.7429 23.6381 78.9706 24.0619 78.9662 24.481L78.5067 67.4589C78.5018 67.9161 78.265 68.3305 77.8755 68.5511C77.6416 68.6988 77.4477 68.7329 77.2154 68.7281ZM41.2325 44.7431L75.9747 65.2728L76.4032 25.1906L41.6659 4.2037L41.2325 44.7431Z" fill="black"/>
<path d="M40.685 2.17934L40.2201 45.658L2.82194 66.1965L3.28279 23.0989L40.685 2.17934Z" fill="white"/>
<path d="M2.81213 67.4507C2.57986 67.446 2.38672 67.4039 2.19438 67.2856C1.80971 67.049 1.54322 66.6244 1.54811 66.1671L2.00886 23.0737C2.01375 22.6165 2.2505 22.2021 2.64005 21.9814L40.0341 1.10195C40.4237 0.881281 40.9269 0.891607 41.3116 1.12816C41.6963 1.36472 41.9628 1.7894 41.9579 2.24663L41.4931 45.7211C41.4882 46.1783 41.2514 46.5927 40.8619 46.8134L3.47144 67.3499C3.23877 67.3833 3.0444 67.4555 2.81213 67.4507ZM4.55606 23.85L4.12626 64.0477L38.9463 44.9066L39.3797 4.36602L4.55606 23.85Z" fill="black"/>
</svg>
