<svg width="337" height="148" viewBox="0 0 337 148" fill="none" xmlns="http://www.w3.org/2000/svg">
<path d="M83.4704 110.91L75.4033 114.067L73.6079 109.48L81.6749 106.323L83.4704 110.91Z" fill="white"/>
<path d="M40.8307 127.598L32.7637 130.755L30.9682 126.168L39.0353 123.011L40.8307 127.598Z" fill="white"/>
<path d="M69.1803 116.503L61.1133 119.66L59.3178 115.072L67.3849 111.915L69.1803 116.503Z" fill="white"/>
<path d="M26.5407 133.191L18.4736 136.348L16.6782 131.76L24.7452 128.603L26.5407 133.191Z" fill="white"/>
<path d="M54.8903 122.096L46.8232 125.253L45.0278 120.665L53.0948 117.508L54.8903 122.096Z" fill="white"/>
<path d="M12.2506 138.784L4.18359 141.941L2.38813 137.353L10.4552 134.196L12.2506 138.784Z" fill="white"/>
<path d="M164.972 76.3679L151.762 91.1705L149.39 85.1114L89.8093 108.429L87.9969 103.799L147.578 80.4804L145.206 74.4213L164.972 76.3679Z" fill="white"/>
<path d="M252.041 42.9385L243.974 46.0957L242.178 41.508L250.245 38.3509L252.041 42.9385Z" fill="white"/>
<path d="M209.401 59.6265L201.334 62.7837L199.539 58.196L207.606 55.0388L209.401 59.6265Z" fill="white"/>
<path d="M237.751 48.5313L229.684 51.6885L227.888 47.1008L235.955 43.9436L237.751 48.5313Z" fill="white"/>
<path d="M195.111 65.2193L187.044 68.3765L185.248 63.7888L193.316 60.6316L195.111 65.2193Z" fill="white"/>
<path d="M223.461 54.1239L215.394 57.2811L213.598 52.6935L221.665 49.5363L223.461 54.1239Z" fill="white"/>
<path d="M180.821 70.8119L172.754 73.9691L170.958 69.3815L179.025 66.2243L180.821 70.8119Z" fill="white"/>
<path d="M333.542 8.39618L320.331 23.1989L317.96 17.1397L258.379 40.4578L256.566 35.8269L316.147 12.5088L313.776 6.44958L333.542 8.39618Z" fill="white"/>
</svg>
