<svg width="397" height="255" viewBox="0 0 397 255" fill="none" xmlns="http://www.w3.org/2000/svg">
<path d="M109.909 59.0359C111.041 56.1265 109.6 52.8367 106.688 51.7058C106.472 51.6235 106.256 51.5516 106.03 51.5002C106.328 49.1768 106.277 46.8533 105.886 44.6122C106.102 44.5505 106.318 44.4682 106.534 44.3757C109.405 43.1215 110.701 39.7803 109.446 36.912C108.191 34.0539 104.847 32.7483 101.976 34.0025C101.76 34.0951 101.564 34.2082 101.369 34.3212C99.98 32.5119 98.3029 30.8978 96.3892 29.551C96.4921 29.3557 96.595 29.1398 96.6773 28.9239C97.8091 26.0145 96.3686 22.7247 93.4569 21.5938C90.5451 20.463 87.2527 21.9022 86.1209 24.8117C86.0386 25.0276 85.9666 25.2434 85.9151 25.4696C83.5898 25.1715 81.2645 25.2229 79.0216 25.6136C78.9598 25.3977 78.8775 25.1818 78.7849 24.9659C77.5297 22.1079 74.1858 20.8022 71.3152 22.0565C68.4446 23.3107 67.1482 26.6519 68.4034 29.5202C68.496 29.7361 68.6092 29.9314 68.7224 30.1267C66.9115 31.5146 65.2962 33.1904 63.9484 35.1026C63.7529 34.9998 63.5368 34.897 63.3207 34.8147C60.409 33.6838 57.1165 35.1231 55.9848 38.0326C54.853 40.942 56.2934 44.2318 59.2052 45.3626C59.4212 45.4449 59.6373 45.5169 59.8637 45.5683C59.5653 47.8917 59.6167 50.2151 60.0077 52.4563C59.7916 52.518 59.5756 52.6002 59.3595 52.6927C56.4889 53.947 55.1925 57.2882 56.4478 60.1565C57.703 63.0145 61.0469 64.3201 63.9175 63.0659C64.1335 62.9734 64.329 62.8603 64.5245 62.7472C65.9135 64.5566 67.5906 66.1706 69.5043 67.5174C69.4015 67.7127 69.2986 67.9286 69.2163 68.1445C68.0845 71.0539 69.5249 74.3437 72.4367 75.4746C75.3484 76.6055 78.6409 75.1662 79.7726 72.2568C79.855 72.0409 79.927 71.825 79.9784 71.5988C82.3037 71.897 84.629 71.8456 86.872 71.4549C86.9337 71.6708 87.016 71.8867 87.1086 72.1026C88.3639 74.9606 91.7078 76.2662 94.5783 75.012C97.4489 73.7578 98.7453 70.4165 97.4901 67.5482C97.3975 67.3324 97.2843 67.137 97.1711 66.9417C98.982 65.5538 100.597 63.8781 101.945 61.9659C102.141 62.0687 102.357 62.1715 102.573 62.2537C105.485 63.3949 108.777 61.9556 109.909 59.0359ZM92.7469 52.3535C90.6377 57.7611 84.5364 60.4443 79.1142 58.3265C73.7022 56.219 71.0168 50.1226 73.126 44.715C75.2353 39.3074 81.3366 36.6241 86.7588 38.7419C92.181 40.8494 94.8664 46.9459 92.7469 52.3535Z" fill="white"/>
<path d="M74.4943 76.0915C73.7844 76.0915 73.0642 75.9578 72.3645 75.6905C69.3396 74.5082 67.8374 71.0951 69.0103 68.0623C69.0721 67.9081 69.1441 67.7539 69.2264 67.5894C67.4361 66.3043 65.8414 64.7725 64.4832 63.0453C64.3186 63.1379 64.1643 63.2098 64.0202 63.2715C61.0468 64.5771 57.5588 63.2201 56.2521 60.249C55.6142 58.8097 55.5834 57.2059 56.1595 55.7461C56.7357 54.276 57.8366 53.1245 59.2771 52.4974C59.4211 52.4357 59.5857 52.374 59.7606 52.3124C59.4005 50.1431 59.3594 47.9328 59.6166 45.743C59.4417 45.6916 59.2771 45.6402 59.1227 45.5785C57.6514 45.0028 56.4991 43.9028 55.8612 42.4635C55.2232 41.0242 55.1924 39.4204 55.7686 37.9606C56.9518 34.9381 60.3677 33.4371 63.4029 34.6091C63.5572 34.6708 63.7116 34.7325 63.8762 34.825C65.1623 33.0362 66.6953 31.4427 68.4239 30.0856C68.3313 29.9211 68.2593 29.7669 68.1975 29.623C67.5596 28.1837 67.5287 26.5799 68.1049 25.1201C68.6811 23.6499 69.782 22.4985 71.2225 21.8714C74.1959 20.5658 77.6839 21.9228 78.9906 24.8939C79.0523 25.0378 79.114 25.2023 79.1758 25.3771C81.3467 25.0173 83.5588 24.9761 85.7503 25.2434C85.8018 25.0687 85.8532 24.9042 85.915 24.75C87.0982 21.7275 90.5141 20.2265 93.5493 21.3985C96.5743 22.5808 98.0764 25.9939 96.9035 29.0267C96.8418 29.1809 96.78 29.3351 96.6874 29.4996C98.4777 30.7847 100.072 32.3165 101.431 34.0437C101.595 33.9511 101.75 33.8792 101.894 33.8175C104.867 32.5119 108.355 33.8689 109.662 36.84C110.3 38.2793 110.33 39.8831 109.754 41.3429C109.178 42.813 108.077 43.9645 106.637 44.5916C106.493 44.6533 106.328 44.715 106.153 44.7766C106.513 46.9459 106.554 49.1562 106.297 51.346C106.472 51.3974 106.637 51.4488 106.791 51.5105C109.816 52.6927 111.318 56.1059 110.145 59.1387C108.962 62.1612 105.546 63.6622 102.511 62.4902C102.357 62.4285 102.202 62.3668 102.038 62.2743C100.752 64.0631 99.2185 65.6566 97.49 67.0137C97.5826 67.1781 97.6546 67.3221 97.7163 67.4763C98.3542 68.9156 98.3851 70.5194 97.8089 71.9792C97.2327 73.4493 96.1318 74.6008 94.6914 75.2279C91.7179 76.5335 88.23 75.1765 86.9233 72.2054C86.8616 72.0614 86.7998 71.897 86.7381 71.7222C84.5671 72.082 82.355 72.1231 80.1635 71.8558C80.112 72.0306 80.0606 72.1951 79.9989 72.3493C79.0832 74.6624 76.8505 76.0915 74.4943 76.0915ZM64.5244 62.521C64.5964 62.521 64.6581 62.5519 64.6993 62.6135C66.0986 64.4229 67.7551 66.0164 69.6277 67.3324C69.7203 67.394 69.7511 67.5277 69.6997 67.6202C69.5865 67.8361 69.4939 68.0314 69.4219 68.2165C68.3313 71.0128 69.7203 74.169 72.5189 75.2587C75.3174 76.3485 78.4761 74.9606 79.5667 72.1643C79.6388 71.9792 79.7005 71.7736 79.7622 71.5371C79.7931 71.424 79.896 71.3521 80.0092 71.3726C82.283 71.6708 84.5774 71.6194 86.841 71.2287C86.9542 71.2082 87.0673 71.2801 87.0982 71.3829C87.1702 71.6194 87.2422 71.825 87.3246 71.9998C88.5284 74.7447 91.7488 75.9989 94.4959 74.7961C95.8232 74.2101 96.8521 73.1512 97.3768 71.7942C97.9015 70.4371 97.8707 68.967 97.2842 67.6305C97.2019 67.4454 97.099 67.2501 96.9755 67.0445C96.9138 66.9417 96.9447 66.8183 97.027 66.7464C98.8378 65.3482 100.433 63.693 101.75 61.8219C101.811 61.7294 101.945 61.6986 102.038 61.75C102.254 61.8733 102.449 61.9556 102.634 62.0275C105.433 63.1173 108.592 61.7294 109.682 58.9331C110.773 56.1367 109.384 52.9806 106.585 51.8908C106.4 51.8189 106.194 51.7572 105.958 51.6955C105.845 51.6647 105.773 51.5619 105.793 51.4488C106.091 49.1768 106.04 46.8842 105.649 44.6224C105.628 44.5093 105.7 44.3963 105.803 44.3654C106.04 44.2935 106.246 44.2215 106.431 44.1392C107.758 43.5533 108.787 42.4943 109.312 41.1373C109.837 39.7803 109.806 38.3101 109.219 36.9736C108.015 34.2287 104.795 32.9745 102.048 34.1773C101.863 34.2596 101.678 34.3624 101.461 34.4857C101.359 34.5474 101.235 34.5166 101.163 34.4343C99.7844 32.6558 98.1279 31.0623 96.2553 29.7464C96.1627 29.6847 96.1318 29.551 96.1833 29.4585C96.2965 29.2426 96.3891 29.0473 96.4611 28.8622C97.5517 26.0659 96.1627 22.9097 93.3641 21.82C90.5655 20.7302 87.4069 22.1181 86.3162 24.9145C86.2442 25.0995 86.1825 25.3051 86.1208 25.5416C86.0899 25.6547 85.987 25.7266 85.8738 25.7061C83.6 25.4079 81.3056 25.4593 79.042 25.85C78.9288 25.8706 78.8157 25.7986 78.7848 25.6958C78.7128 25.4593 78.6407 25.2537 78.5584 25.079C77.3546 22.3237 74.1445 21.0695 71.3974 22.2723C70.0701 22.8583 69.0412 23.9172 68.5165 25.2743C67.9917 26.6313 68.0226 28.1015 68.6091 29.4379C68.6914 29.623 68.784 29.808 68.9177 30.0239C68.9795 30.1267 68.9486 30.2501 68.8663 30.3221C67.0555 31.7202 65.4607 33.3754 64.1437 35.2465C64.082 35.339 63.9482 35.3699 63.8556 35.3185C63.6395 35.2054 63.4441 35.1129 63.2589 35.0409C60.4603 33.9511 57.3016 35.339 56.211 38.1354C55.6862 39.4924 55.7171 40.9625 56.3036 42.299C56.89 43.6252 57.9601 44.6533 59.3079 45.1776C59.4931 45.2496 59.6989 45.3112 59.9356 45.3729C60.0487 45.4038 60.1208 45.5066 60.1002 45.6197C59.8018 47.8917 59.8532 50.1843 60.2442 52.446C60.2648 52.5591 60.1928 52.6722 60.0899 52.703C59.8532 52.775 59.6475 52.8469 59.4726 52.9292C58.1453 53.5152 57.1164 54.5741 56.5917 55.9311C56.0669 57.2882 56.0978 58.7583 56.6843 60.0948C57.8881 62.8397 61.1085 64.094 63.8556 62.8911C64.0408 62.8089 64.226 62.7061 64.4421 62.5827C64.4524 62.5313 64.4832 62.521 64.5244 62.521ZM82.9518 59.2826C81.6348 59.2826 80.3075 59.0359 79.042 58.5424C76.3669 57.5041 74.2577 55.4788 73.1053 52.8572C71.953 50.2254 71.8912 47.316 72.9304 44.643C73.9696 41.97 75.9965 39.8625 78.6202 38.7111C81.2541 37.5596 84.1762 37.498 86.8513 38.5363C89.5264 39.5746 91.6356 41.5999 92.7879 44.2215C93.9403 46.8533 94.002 49.7628 92.9629 52.4357C91.9237 55.1087 89.8968 57.2162 87.2731 58.3676C85.8841 58.9742 84.4128 59.2826 82.9518 59.2826ZM82.9415 38.2484C81.5319 38.2484 80.1326 38.5363 78.8054 39.1223C76.2846 40.2223 74.3503 42.2476 73.3523 44.8075C72.3542 47.3674 72.416 50.1637 73.5169 52.6825C74.6281 55.2012 76.6447 57.134 79.2066 58.1312C81.7686 59.1284 84.5671 59.0667 87.0879 57.9667C89.6087 56.8667 91.543 54.8414 92.541 52.2815C93.539 49.7216 93.4773 46.9253 92.3764 44.4065C91.2652 41.8878 89.2486 39.955 86.6866 38.9578C85.4726 38.4746 84.207 38.2484 82.9415 38.2484Z" fill="black"/>
<path d="M62.5696 90.5563C63.259 88.7983 62.3845 86.8039 60.6251 86.1254C60.4913 86.0739 60.3575 86.0328 60.2238 86.002C60.409 84.5935 60.3678 83.1954 60.1312 81.8383C60.2649 81.7972 60.3987 81.7561 60.5222 81.6944C62.2507 80.9336 63.0429 78.9186 62.2816 77.1812C61.5202 75.4541 59.4933 74.6624 57.7647 75.4232C57.631 75.4849 57.5178 75.5466 57.3943 75.6186C56.5507 74.5288 55.5424 73.5521 54.3797 72.7297C54.4414 72.6063 54.5032 72.483 54.5546 72.3493C55.244 70.5913 54.3694 68.5969 52.5997 67.9184C50.8403 67.2296 48.8443 68.1034 48.1652 69.8614C48.1138 69.995 48.0726 70.1287 48.0418 70.2623C46.6322 70.0773 45.2329 70.1184 43.8748 70.3446C43.8336 70.2109 43.7925 70.0773 43.7307 69.9539C42.9693 68.2268 40.9424 67.4352 39.2139 68.1959C37.4854 68.9567 36.6931 70.9717 37.4545 72.7091C37.5162 72.8428 37.578 72.9559 37.65 73.0792C36.5594 73.9222 35.5819 74.9297 34.7588 76.0915C34.6354 76.0298 34.5119 75.9681 34.3781 75.9167C32.6187 75.2279 30.6227 76.1017 29.9436 77.8597C29.2543 79.6177 30.1288 81.6122 31.8985 82.2907C32.0323 82.3421 32.166 82.3832 32.2998 82.414C32.1146 83.8225 32.1557 85.2207 32.3924 86.5777C32.2586 86.6188 32.1249 86.66 32.0014 86.7216C30.2729 87.4824 29.4806 89.4974 30.242 91.2348C31.0034 92.962 33.0303 93.7536 34.7588 92.9928C34.8926 92.9311 35.0058 92.8695 35.1292 92.7975C35.9729 93.8872 36.9812 94.8639 38.1439 95.6863C38.0821 95.8097 38.0204 95.9331 37.9689 96.0667C37.2796 97.8247 38.1541 99.8192 39.9238 100.498C41.6832 101.186 43.6793 100.313 44.3583 98.5546C44.4098 98.421 44.4509 98.2873 44.4818 98.1537C45.8914 98.3387 47.2907 98.2976 48.6488 98.0714C48.69 98.2051 48.7311 98.3387 48.7928 98.4621C49.5542 100.189 51.5811 100.981 53.3097 100.22C55.0382 99.4593 55.8304 97.4443 55.0691 95.7069C55.0073 95.5733 54.9456 95.4602 54.8736 95.3368C55.9642 94.4938 56.9416 93.4863 57.7647 92.3246C57.8882 92.3863 58.0117 92.4479 58.1454 92.4993C59.8945 93.1984 61.8906 92.3246 62.5696 90.5563ZM52.1985 86.516C50.9226 89.7853 47.2289 91.4096 43.9571 90.1348C40.6852 88.86 39.0596 85.1693 40.3354 81.9C41.6112 78.6308 45.3049 77.0064 48.5768 78.2812C51.8486 79.556 53.4743 83.2468 52.1985 86.516Z" fill="white"/>
<path d="M41.1588 100.96C40.7061 100.96 40.2637 100.878 39.8315 100.714C38.9261 100.364 38.2059 99.6752 37.8149 98.7808C37.4239 97.8864 37.4033 96.8994 37.7532 95.9845C37.784 95.9125 37.8149 95.8405 37.8561 95.7583C36.8066 94.9975 35.8806 94.1031 35.0781 93.0956C35.006 93.1367 34.934 93.1676 34.862 93.1984C33.0203 94.0106 30.8596 93.1676 30.0468 91.3273C29.6558 90.4329 29.6352 89.446 29.9851 88.531C30.3349 87.6263 31.0242 86.9067 31.9194 86.516C31.9914 86.4852 32.0634 86.4543 32.1457 86.4235C31.94 85.1487 31.9194 83.8533 32.0634 82.5785C31.9811 82.558 31.9091 82.5271 31.8268 82.4963C29.9542 81.7664 29.0179 79.6485 29.7484 77.7672C30.4789 75.8961 32.5984 74.9606 34.4813 75.6905C34.5533 75.7213 34.6254 75.7522 34.7077 75.7933C35.469 74.7447 36.3642 73.8194 37.3725 73.0175C37.3313 72.9456 37.3005 72.8736 37.2696 72.8016C36.8786 71.9072 36.858 70.9203 37.2079 70.0053C37.5577 69.1006 38.247 68.381 39.1422 67.9903C40.9839 67.1781 43.1445 68.0211 43.9574 69.8614C43.9882 69.9333 44.0191 70.0053 44.05 70.0876C45.3258 69.8819 46.6222 69.8614 47.898 70.0053C47.9186 69.9231 47.9494 69.8511 47.9803 69.7791C48.7108 67.9081 50.8303 66.9725 52.7132 67.7024C54.5858 68.4324 55.5221 70.5502 54.7916 72.4315C54.7607 72.5035 54.7298 72.5755 54.6887 72.6577C55.7381 73.4185 56.6641 74.3129 57.4667 75.3204C57.5387 75.2793 57.6107 75.2484 57.6827 75.2176C59.5244 74.4054 61.6851 75.2484 62.4979 77.0887C62.8889 77.9831 62.9095 78.97 62.5597 79.885C62.2098 80.7897 61.5205 81.5093 60.6253 81.9C60.5533 81.9308 60.4813 81.9617 60.399 81.9925C60.6048 83.2673 60.6253 84.5627 60.4813 85.8375C60.5636 85.858 60.6356 85.8889 60.7179 85.9197C61.6234 86.2693 62.3436 86.9581 62.7346 87.8525C63.1255 88.7469 63.1461 89.7338 62.7963 90.6488C62.4465 91.5535 61.7571 92.2732 60.862 92.6638C59.9669 93.0545 58.9791 93.075 58.0634 92.7255C57.9914 92.6947 57.9194 92.6638 57.8371 92.633C57.0757 93.6713 56.1805 94.6069 55.1722 95.4088C55.2134 95.4807 55.2443 95.5527 55.2751 95.6246C55.6661 96.5191 55.6867 97.506 55.3369 98.421C54.987 99.3257 54.2977 100.045 53.4026 100.436C51.5608 101.248 49.4002 100.405 48.5874 98.5649C48.5565 98.4929 48.5256 98.421 48.4948 98.3387C47.2189 98.5443 45.9328 98.5649 44.6467 98.421C44.6261 98.5032 44.5953 98.5752 44.5644 98.6574C44.2146 99.5621 43.5252 100.282 42.6301 100.672C42.1568 100.857 41.6527 100.96 41.1588 100.96ZM35.1192 92.5816C35.1912 92.5816 35.253 92.6124 35.2941 92.6741C36.1378 93.7639 37.1358 94.72 38.2573 95.5116C38.3499 95.5732 38.3808 95.7069 38.3293 95.7994C38.2573 95.9331 38.2059 96.0461 38.1647 96.149C37.8561 96.9406 37.8766 97.8144 38.2162 98.5958C38.5557 99.3771 39.1936 99.9836 39.9859 100.292C40.7781 100.6 41.6527 100.58 42.4346 100.241C43.2166 99.9014 43.8236 99.2743 44.1323 98.4724C44.1734 98.3593 44.2146 98.2462 44.2455 98.1023C44.2763 97.9892 44.3792 97.9172 44.4924 97.9378C45.8608 98.1126 47.2395 98.0817 48.5976 97.8555C48.7108 97.835 48.824 97.9069 48.8549 98.0098C48.896 98.1434 48.9372 98.2668 48.9886 98.3799C49.6986 99.9939 51.5917 100.734 53.2071 100.025C53.989 99.6855 54.5961 99.0584 54.9047 98.2565C55.2134 97.4649 55.1928 96.591 54.8533 95.8097C54.8018 95.7069 54.7504 95.5938 54.6681 95.4602C54.6064 95.3574 54.6372 95.234 54.7195 95.162C55.8102 94.319 56.767 93.3218 57.5593 92.2012C57.621 92.1087 57.7547 92.0778 57.8473 92.1292C57.9811 92.2012 58.0943 92.2526 58.1972 92.2937C58.9894 92.6021 59.864 92.5816 60.6459 92.2423C61.4279 91.9031 62.0349 91.2759 62.3436 90.4741C62.6523 89.6824 62.6317 88.8086 62.2921 88.0273C61.9526 87.2459 61.3147 86.6394 60.5225 86.331C60.4093 86.2898 60.2961 86.2487 60.1521 86.2179C60.0389 86.187 59.9669 86.0842 59.9874 85.9711C60.1623 84.6038 60.1315 83.2262 59.9051 81.8692C59.8845 81.7561 59.9566 81.643 60.0595 81.6121C60.1932 81.571 60.3167 81.5299 60.4299 81.4785C61.2118 81.1392 61.8189 80.5121 62.1275 79.7102C62.4362 78.9186 62.4156 78.0448 62.0761 77.2634C61.3661 75.6494 59.473 74.9092 57.8576 75.6185C57.7445 75.6699 57.6313 75.7213 57.5078 75.7933C57.4049 75.855 57.2815 75.8241 57.2094 75.7419C56.3658 74.6522 55.3677 73.6961 54.2462 72.9044C54.1536 72.8428 54.1228 72.7091 54.1742 72.6166C54.2462 72.4932 54.2977 72.3699 54.3388 72.267C54.9768 70.6221 54.1639 68.7614 52.5177 68.124C50.8715 67.4866 49.0092 68.2987 48.3713 69.9436C48.3301 70.0567 48.289 70.1801 48.2581 70.3137C48.2272 70.4268 48.1244 70.4988 48.0112 70.4782C46.6428 70.3034 45.2641 70.3343 43.9059 70.5605C43.7927 70.581 43.6796 70.5091 43.6487 70.4063C43.6075 70.2726 43.5664 70.1492 43.5149 70.0362C42.805 68.4221 40.9119 67.6819 39.2965 68.3913C38.5145 68.7305 37.9075 69.3576 37.5988 70.1595C37.2902 70.9511 37.3107 71.825 37.6503 72.6063C37.7017 72.7194 37.7532 72.8325 37.8355 72.9559C37.8972 73.0587 37.8663 73.182 37.784 73.254C36.6934 74.097 35.7365 75.0839 34.9443 76.2148C34.8826 76.3073 34.7488 76.3382 34.6562 76.2868C34.5225 76.2148 34.4093 76.1634 34.3064 76.1223C32.6602 75.4849 30.7979 76.2971 30.16 77.942C29.5221 79.5869 30.3349 81.4477 31.9811 82.0851C32.0943 82.1262 32.2075 82.1673 32.3515 82.1981C32.4647 82.229 32.5367 82.3318 32.5161 82.4449C32.3412 83.8122 32.3721 85.1898 32.5984 86.5468C32.619 86.6599 32.547 86.773 32.4441 86.8039C32.3001 86.845 32.1869 86.8861 32.0737 86.9375C31.2918 87.2768 30.6847 87.9039 30.376 88.7058C30.0674 89.4974 30.088 90.3712 30.4275 91.1526C31.1374 92.7666 33.0306 93.5068 34.6459 92.7975C34.7488 92.7461 34.862 92.6947 34.9958 92.6227C35.0472 92.5919 35.0883 92.5816 35.1192 92.5816ZM46.2621 90.803C45.4492 90.803 44.6467 90.6488 43.8648 90.3507C40.4797 89.0348 38.7923 85.2104 40.1196 81.8178C40.7575 80.1831 42.0025 78.8878 43.6075 78.1784C45.2229 77.469 47.0132 77.4382 48.6491 78.0756C50.285 78.713 51.5814 79.957 52.2914 81.5607C53.0013 83.1748 53.0424 84.9636 52.3942 86.5983C51.7563 88.2329 50.5114 89.5282 48.9063 90.2376C48.0626 90.6077 47.1675 90.803 46.2621 90.803ZM46.2621 78.0756C45.4287 78.0756 44.585 78.2504 43.7927 78.5999C42.2906 79.2579 41.1382 80.4607 40.5415 81.9925C39.3171 85.1384 40.881 88.7058 44.0294 89.9395C45.5521 90.5357 47.2292 90.4946 48.7314 89.8367C50.2336 89.1787 51.3859 87.9759 51.9827 86.444C52.5794 84.9225 52.5383 83.2468 51.8798 81.7458C51.2213 80.2448 50.0175 79.0934 48.4845 78.4971C47.7642 78.2093 47.0132 78.0756 46.2621 78.0756Z" fill="black"/>
<path d="M292.837 245.736C299.016 245.736 304.026 241.209 304.026 235.624C304.026 230.038 299.016 225.511 292.837 225.511C286.657 225.511 281.647 230.038 281.647 235.624C281.647 241.209 286.657 245.736 292.837 245.736Z" fill="white"/>
<path d="M292.837 246.054C286.499 246.054 281.33 241.38 281.33 235.624C281.33 229.868 286.484 225.193 292.837 225.193C299.175 225.193 304.344 229.868 304.344 235.624C304.344 241.38 299.175 246.054 292.837 246.054ZM292.837 225.828C286.845 225.828 281.965 230.228 281.965 235.624C281.965 241.019 286.845 245.419 292.837 245.419C298.829 245.419 303.709 241.019 303.709 235.624C303.709 230.228 298.829 225.828 292.837 225.828Z" fill="black"/>
<path d="M307.39 217.432H278.269V235.537H307.39V217.432Z" fill="white"/>
<path d="M307.39 235.854H278.269C278.096 235.854 277.951 235.71 277.951 235.537V217.432C277.951 217.259 278.096 217.115 278.269 217.115H307.39C307.563 217.115 307.707 217.259 307.707 217.432V235.537C307.707 235.725 307.563 235.854 307.39 235.854ZM278.586 235.22H307.072V217.75H278.586V235.22Z" fill="black"/>
<path d="M333.811 167.532C333.811 144.911 315.461 126.59 292.837 126.59C270.213 126.59 251.862 144.926 251.862 167.532C251.862 184.973 262.792 199.861 278.168 205.761V217.432H307.506V205.761C322.882 199.875 333.811 184.988 333.811 167.532Z" fill="white"/>
<path d="M307.506 217.749H278.168C277.995 217.749 277.85 217.605 277.85 217.432V205.978C270.227 203.006 263.701 197.885 258.98 191.162C254.115 184.208 251.53 176.043 251.53 167.532C251.53 144.782 270.054 126.273 292.822 126.273C315.591 126.273 334.114 144.782 334.114 167.532C334.114 176.043 331.545 184.208 326.679 191.162C321.958 197.885 315.446 203.006 307.809 205.978V217.432C307.823 217.605 307.679 217.749 307.506 217.749ZM278.486 217.115H307.188V205.761C307.188 205.631 307.275 205.516 307.39 205.458C322.997 199.471 333.494 184.223 333.494 167.517C333.494 145.113 315.259 126.893 292.837 126.893C270.415 126.893 252.18 145.113 252.18 167.517C252.18 184.223 262.676 199.471 278.284 205.458C278.413 205.502 278.486 205.617 278.486 205.761V217.115Z" fill="black"/>
<path d="M307.289 226.376H278.385C278.212 226.376 278.067 226.232 278.067 226.059C278.067 225.886 278.212 225.742 278.385 225.742H307.289C307.463 225.742 307.607 225.886 307.607 226.059C307.607 226.232 307.463 226.376 307.289 226.376Z" fill="black"/>
<path d="M290.497 212.614C290.353 212.614 290.223 212.513 290.18 212.354L278.673 155.976C278.644 155.803 278.745 155.63 278.918 155.601C279.092 155.572 279.25 155.673 279.294 155.847L290.801 212.224C290.829 212.397 290.728 212.57 290.555 212.599C290.541 212.614 290.526 212.614 290.497 212.614Z" fill="black"/>
<path d="M295.161 212.614C295.147 212.614 295.118 212.614 295.103 212.614C294.93 212.585 294.814 212.412 294.858 212.239L306.365 155.861C306.394 155.688 306.567 155.572 306.74 155.616C306.913 155.645 307.029 155.818 306.986 155.991L295.479 212.368C295.435 212.513 295.305 212.614 295.161 212.614Z" fill="black"/>
<path d="M291.523 161.112C291.509 161.112 291.494 161.112 291.48 161.112C291.335 161.098 291.22 160.982 291.205 160.852L289.559 150.812L286.585 156.784C286.528 156.885 286.426 156.957 286.297 156.957H282.976C282.803 156.957 282.658 156.813 282.658 156.64C282.658 156.467 282.803 156.323 282.976 156.323H286.094L289.415 149.643C289.473 149.513 289.603 149.441 289.747 149.47C289.877 149.485 289.993 149.6 290.007 149.73L291.639 159.655L295.363 150.841C295.421 150.725 295.522 150.639 295.667 150.653C295.797 150.653 295.912 150.74 295.955 150.869L297.89 156.337H302.294C302.467 156.337 302.611 156.481 302.611 156.654C302.611 156.828 302.467 156.972 302.294 156.972H297.674C297.544 156.972 297.414 156.885 297.37 156.755L295.638 151.85L291.797 160.925C291.754 161.04 291.639 161.112 291.523 161.112Z" fill="black"/>
<path d="M214.482 106.538C214.367 103.148 213.443 99.7718 211.551 96.9299C209.674 94.1023 206.83 92.1548 204.549 89.659C203.322 88.3174 202.311 86.7882 201.835 85.0282C201.3 83.0807 201.401 81.0177 201.676 79.0413C202.195 75.1895 204.26 66.3751 200.42 59.8833C197.056 54.1849 190.27 51.141 183.816 51.5161C180.163 51.7325 176.612 52.9299 173.45 54.7476C170.245 56.5941 167.574 59.0754 165.134 61.8309C162.679 64.5863 160.268 67.5725 156.947 69.3469C153.915 70.9627 150.421 71.3954 147.043 71.7272C143.708 72.0446 140.272 72.2466 137.095 73.4151C134.294 74.4394 131.97 76.2571 130.353 78.7528C127.162 83.6433 126.7 89.7168 124.708 95.0977C123.712 97.8243 122.268 100.421 119.972 102.282C117.229 104.504 113.721 105.297 110.299 105.744C106.805 106.206 103.253 106.321 99.8026 107.172C96.7418 107.923 93.8831 109.351 91.4142 111.298C86.4765 115.193 83.0547 121.079 82.304 127.355C81.481 134.164 84.1231 140.872 88.4833 146.051C93.3489 151.836 100.091 155.529 107.267 157.664C114.544 159.843 122.253 160.651 129.833 160.708C137.023 160.752 144.228 160.016 151.273 158.53C158.319 157.044 165.206 154.822 171.789 151.908C178.373 148.994 184.654 145.402 190.458 141.175C196.334 136.905 201.907 131.971 206.541 126.359C211.161 120.748 214.756 113.982 214.482 106.538Z" fill="black"/>
<path d="M144.012 189.46C144.012 189.46 129.473 223.52 129.661 263.683H248.614L203.842 182.91L144.012 189.46Z" fill="white"/>
<path d="M248.628 264C248.513 264 248.412 263.942 248.354 263.841L203.683 183.256L144.243 189.777C143.146 192.446 129.805 225.511 129.993 263.697C129.993 263.87 129.848 264.014 129.675 264.014C129.502 264.014 129.358 263.87 129.358 263.697C129.155 223.924 143.579 189.69 143.738 189.359C143.781 189.258 143.882 189.186 143.998 189.171L203.842 182.607C203.972 182.593 204.088 182.65 204.16 182.766L248.931 263.538C249.018 263.697 248.96 263.885 248.802 263.971C248.729 263.986 248.672 264 248.628 264Z" fill="black"/>
<path d="M185.549 262.384C185.535 262.384 185.52 262.384 185.506 262.384C185.333 262.37 185.203 262.211 185.232 262.024L187.036 247.352C187.585 242.894 190.516 239.071 194.688 237.384L196.392 236.691C196.551 236.619 196.738 236.706 196.811 236.864C196.883 237.023 196.796 237.21 196.637 237.283L194.934 237.975C190.978 239.576 188.206 243.197 187.686 247.424L185.881 262.096C185.852 262.269 185.708 262.384 185.549 262.384Z" fill="black"/>
<path d="M250.794 94.2177C250.794 94.2177 268.683 95.04 279.323 87.798L266.243 56.7672C266.243 56.7672 267.744 54.7475 266.806 52.0065C265.882 49.2656 263.788 45.8754 260.872 48.0249C260.872 48.0249 258.562 44.8944 256.642 48.977C256.642 48.977 253.263 44.6203 250.289 50.8813L246.261 43.0479C245.611 41.7784 244.081 41.2157 242.752 41.7639C241.482 42.2977 240.789 43.697 241.164 45.0243L245.308 60.1718C245.308 60.1718 242.305 64.9613 243.431 68.6977C244.557 72.4629 250.794 94.2177 250.794 94.2177Z" fill="white"/>
<path d="M250.794 94.5351C250.649 94.5351 250.534 94.4485 250.491 94.3043C250.433 94.0879 244.239 72.5062 243.127 68.8131C242.059 65.2643 244.499 60.9364 244.961 60.143L240.861 45.1252C240.456 43.6393 241.222 42.0813 242.636 41.4898C244.095 40.8839 245.813 41.5043 246.549 42.918L250.303 50.2033C251.285 48.3567 252.425 47.3613 253.681 47.217C254.995 47.0728 256.078 47.9239 256.583 48.4433C257.204 47.2892 257.941 46.6689 258.763 46.5823C259.76 46.4813 260.583 47.217 260.944 47.621C261.81 47.0584 262.662 46.9141 263.499 47.1738C265.535 47.8229 266.719 50.7082 267.123 51.92C267.96 54.3725 266.95 56.2623 266.618 56.8105L279.626 87.6826C279.698 87.8413 279.612 88.0289 279.453 88.101C279.294 88.1731 279.106 88.0866 279.034 87.9279L265.953 56.897C265.91 56.7961 265.925 56.6807 265.997 56.5797C266.055 56.5075 267.383 54.6466 266.517 52.1075C265.722 49.7705 264.524 48.1403 263.297 47.7508C262.589 47.5344 261.839 47.7075 261.059 48.2702C260.915 48.3711 260.727 48.3423 260.611 48.198C260.597 48.1836 259.774 47.0872 258.807 47.1882C258.128 47.2603 257.493 47.8951 256.93 49.1069C256.887 49.2079 256.785 49.28 256.684 49.2944C256.583 49.3089 256.468 49.2656 256.396 49.179C256.381 49.1646 255.197 47.6787 253.739 47.8374C252.599 47.9672 251.53 49.0348 250.592 51.0256C250.534 51.141 250.433 51.1987 250.303 51.2131C250.173 51.2131 250.072 51.141 250.014 51.04L245.986 43.2066C245.408 42.0957 244.051 41.5908 242.896 42.0813C241.77 42.543 241.164 43.7836 241.481 44.9666L245.625 60.1141C245.654 60.2007 245.639 60.2872 245.582 60.3593C245.553 60.4026 242.665 65.0623 243.748 68.6256C244.86 72.3331 251.054 93.9148 251.111 94.1311C251.155 94.3043 251.068 94.4774 250.895 94.5207C250.852 94.5207 250.823 94.5351 250.794 94.5351Z" fill="black"/>
<path d="M254.158 73.5017C254.043 73.5017 253.927 73.4295 253.869 73.3141C253.797 73.1554 253.869 72.9679 254.028 72.8958C254.938 72.4918 255.212 71.28 255.082 70.3279C254.995 69.7364 254.808 69.1738 254.606 68.5823C254.447 68.1062 254.274 67.6158 254.172 67.1108C253.653 64.6872 254.692 61.9607 256.685 60.4892C256.973 60.2728 257.277 60.0853 257.58 59.9122C258.027 59.6381 258.432 59.3784 258.793 59.0466C259.283 58.5994 259.774 57.8059 259.529 57.0702C259.37 56.5941 258.894 56.1902 258.287 56.0315C257.739 55.8728 257.147 55.9017 256.425 56.0026C252.642 56.4643 249.061 57.9502 246.044 60.2728C245.9 60.3738 245.712 60.3594 245.596 60.2151C245.495 60.0708 245.51 59.8833 245.654 59.7679C248.758 57.3731 252.454 55.844 256.338 55.3679C257.017 55.2813 257.753 55.2381 258.446 55.4256C259.255 55.642 259.89 56.2046 260.121 56.8826C260.453 57.9069 259.832 58.9456 259.211 59.5226C258.807 59.8977 258.345 60.1718 257.897 60.4604C257.609 60.6335 257.32 60.821 257.06 61.0085C255.255 62.3358 254.331 64.7882 254.793 66.981C254.894 67.4571 255.053 67.9331 255.212 68.3803C255.414 68.9862 255.631 69.5922 255.717 70.2558C255.891 71.4387 255.515 72.9535 254.302 73.4872C254.245 73.4872 254.201 73.5017 254.158 73.5017Z" fill="black"/>
<path d="M252.007 56.8826C251.862 56.8826 251.732 56.7816 251.703 56.6373C251.299 54.7619 250.707 52.901 249.957 51.141C249.884 50.9823 249.956 50.7947 250.13 50.7226C250.289 50.6505 250.476 50.7226 250.548 50.8957C251.314 52.699 251.92 54.5888 252.339 56.5075C252.382 56.6806 252.267 56.8537 252.093 56.8826C252.05 56.8826 252.021 56.8826 252.007 56.8826Z" fill="black"/>
<path d="M258.778 56.0315C258.648 56.0315 258.518 55.9449 258.475 55.8151L256.266 49.3954C256.208 49.2367 256.295 49.0492 256.468 48.9915C256.641 48.9338 256.814 49.0203 256.872 49.1935L259.081 55.6131C259.139 55.7718 259.052 55.9594 258.879 56.0171C258.85 56.0315 258.821 56.0315 258.778 56.0315Z" fill="black"/>
<path d="M261.463 60.7921C260.958 60.7921 260.452 60.5902 260.062 60.2439C259.673 59.8977 259.456 59.4361 259.456 58.96C259.456 58.7869 259.6 58.6426 259.774 58.6426C259.947 58.6426 260.091 58.7869 260.091 58.96C260.091 59.2485 260.221 59.537 260.481 59.7679C260.784 60.042 261.217 60.1862 261.607 60.1429C262.315 60.0564 262.979 59.4793 263.297 58.657C263.614 57.8203 263.571 56.8682 263.484 56.1325C263.21 53.4925 262.3 50.939 260.857 48.7174C260.755 48.5731 260.799 48.3711 260.943 48.2846C261.088 48.1836 261.29 48.2269 261.376 48.3711C262.878 50.6793 263.816 53.3338 264.105 56.0748C264.192 56.8826 264.235 57.9357 263.874 58.8879C263.484 59.9266 262.618 60.6623 261.665 60.7777C261.607 60.7777 261.535 60.7921 261.463 60.7921Z" fill="black"/>
<path d="M263.831 58.7869C263.658 58.7869 263.514 58.6426 263.514 58.4839C263.514 58.3108 263.644 58.1665 263.817 58.1665C264.539 58.1521 265.246 57.7337 265.593 57.099C265.679 56.9403 265.867 56.897 266.026 56.9836C266.185 57.0701 266.228 57.2577 266.141 57.4164C265.694 58.2098 264.784 58.758 263.831 58.7869Z" fill="black"/>
<mask id="path-26-inside-1_821_825" fill="white">
<path fill-rule="evenodd" clip-rule="evenodd" d="M250.794 94.2177L279.323 87.798C287.524 106.018 294.771 125.811 283.496 135.967C276.156 142.583 249.172 143.68 231.805 143.668C229.809 152.807 226.495 160.333 226.495 160.333C226.495 160.333 219.608 179.708 213.861 188.334C208.13 196.961 181.102 199.342 150.711 195.677C120.319 191.999 141.225 157.102 141.225 157.102C133.703 168.383 127.134 178.077 122.586 184.728C117.908 191.58 109.029 194.249 101.405 190.96C89.3354 185.752 83.0406 173.028 90.2306 140.483C91.2289 135.973 95.419 135.685 100.002 135.369C103.438 135.133 107.096 134.881 109.794 132.822C122.99 122.738 137.745 116.376 146.191 113.231C150.407 111.659 154.84 110.765 159.344 110.577C166.147 110.29 177.634 109.993 189.257 110.101C189.22 110.053 189.182 110.005 189.145 109.957C214.887 110.332 253.118 109.005 253.118 109.005L250.794 94.2177Z"/>
</mask>
<path fill-rule="evenodd" clip-rule="evenodd" d="M250.794 94.2177L279.323 87.798C287.524 106.018 294.771 125.811 283.496 135.967C276.156 142.583 249.172 143.68 231.805 143.668C229.809 152.807 226.495 160.333 226.495 160.333C226.495 160.333 219.608 179.708 213.861 188.334C208.13 196.961 181.102 199.342 150.711 195.677C120.319 191.999 141.225 157.102 141.225 157.102C133.703 168.383 127.134 178.077 122.586 184.728C117.908 191.58 109.029 194.249 101.405 190.96C89.3354 185.752 83.0406 173.028 90.2306 140.483C91.2289 135.973 95.419 135.685 100.002 135.369C103.438 135.133 107.096 134.881 109.794 132.822C122.99 122.738 137.745 116.376 146.191 113.231C150.407 111.659 154.84 110.765 159.344 110.577C166.147 110.29 177.634 109.993 189.257 110.101C189.22 110.053 189.182 110.005 189.145 109.957C214.887 110.332 253.118 109.005 253.118 109.005L250.794 94.2177Z" fill="#FF722C"/>
<path d="M279.323 87.798L280.235 87.3876L279.9 86.6432L279.104 86.8224L279.323 87.798ZM250.794 94.2177L250.574 93.2421L249.661 93.4477L249.806 94.373L250.794 94.2177ZM283.496 135.967L282.826 135.224L282.826 135.224L283.496 135.967ZM231.805 143.668L231.805 142.668L230.999 142.667L230.828 143.455L231.805 143.668ZM226.495 160.333L225.579 159.93L225.565 159.964L225.552 159.998L226.495 160.333ZM213.861 188.334L213.029 187.78L213.029 187.781L213.861 188.334ZM150.711 195.677L150.59 196.67L150.591 196.67L150.711 195.677ZM141.225 157.102L142.083 157.616L140.393 156.547L141.225 157.102ZM122.586 184.728L121.76 184.163L121.76 184.164L122.586 184.728ZM101.405 190.96L101.009 191.878H101.009L101.405 190.96ZM90.2306 140.483L89.2542 140.266L89.2541 140.267L90.2306 140.483ZM100.002 135.369L100.07 136.367H100.07L100.002 135.369ZM109.794 132.822L110.4 133.617L110.401 133.617L109.794 132.822ZM146.191 113.231L146.54 114.169L146.541 114.168L146.191 113.231ZM159.344 110.577L159.386 111.576L159.386 111.576L159.344 110.577ZM189.257 110.101L189.248 111.101L191.319 111.12L190.046 109.487L189.257 110.101ZM189.145 109.957L189.159 108.957L187.072 108.926L188.356 110.572L189.145 109.957ZM253.118 109.005L253.153 110.004L254.282 109.965L254.106 108.849L253.118 109.005ZM279.104 86.8224L250.574 93.2421L251.013 95.1933L279.543 88.7736L279.104 86.8224ZM284.165 136.71C290.178 131.294 291.15 123.373 289.699 114.741C288.248 106.106 284.335 96.4982 280.235 87.3876L278.411 88.2085C282.511 97.3182 286.323 106.717 287.727 115.072C289.131 123.431 288.089 130.484 282.826 135.224L284.165 136.71ZM231.804 144.668C240.502 144.674 251.633 144.403 261.522 143.297C266.465 142.744 271.124 141.98 275.025 140.929C278.895 139.886 282.149 138.528 284.165 136.71L282.826 135.224C281.173 136.715 278.302 137.975 274.505 138.998C270.739 140.013 266.191 140.763 261.299 141.31C251.519 142.403 240.474 142.674 231.805 142.668L231.804 144.668ZM226.495 160.333C227.41 160.736 227.41 160.736 227.41 160.736C227.41 160.736 227.41 160.736 227.41 160.735C227.41 160.735 227.41 160.735 227.411 160.734C227.411 160.733 227.412 160.731 227.413 160.729C227.415 160.725 227.417 160.719 227.421 160.711C227.428 160.695 227.437 160.673 227.45 160.643C227.476 160.583 227.514 160.496 227.562 160.381C227.659 160.153 227.798 159.818 227.971 159.388C228.317 158.529 228.799 157.29 229.343 155.764C230.431 152.713 231.772 148.505 232.782 143.881L230.828 143.455C229.842 147.971 228.528 152.095 227.459 155.092C226.925 156.59 226.454 157.803 226.116 158.641C225.947 159.059 225.812 159.384 225.72 159.603C225.674 159.712 225.638 159.795 225.614 159.85C225.602 159.877 225.593 159.898 225.588 159.911C225.585 159.918 225.582 159.923 225.581 159.926C225.58 159.928 225.58 159.929 225.58 159.929C225.579 159.93 225.579 159.93 225.579 159.93C225.579 159.93 225.579 159.93 225.579 159.93C225.579 159.93 225.579 159.93 226.495 160.333ZM214.694 188.889C217.628 184.484 220.818 177.4 223.257 171.48C224.482 168.507 225.526 165.806 226.264 163.848C226.633 162.869 226.926 162.075 227.127 161.525C227.227 161.251 227.304 161.037 227.357 160.892C227.383 160.819 227.403 160.763 227.416 160.726C227.423 160.707 227.428 160.693 227.431 160.683C227.433 160.678 227.434 160.675 227.435 160.672C227.436 160.671 227.436 160.67 227.436 160.669C227.437 160.669 227.437 160.669 227.437 160.668C227.437 160.668 227.437 160.668 226.495 160.333C225.552 159.998 225.552 159.998 225.552 159.998C225.552 159.998 225.552 159.999 225.552 159.999C225.552 159.999 225.552 160 225.551 160.001C225.55 160.003 225.549 160.007 225.548 160.011C225.544 160.02 225.54 160.034 225.533 160.052C225.52 160.088 225.501 160.143 225.475 160.214C225.424 160.357 225.347 160.568 225.248 160.84C225.05 161.383 224.759 162.171 224.393 163.142C223.66 165.087 222.623 167.768 221.408 170.718C218.967 176.642 215.841 183.558 213.029 187.78L214.694 188.889ZM150.591 196.67C165.838 198.509 180.272 198.835 191.641 197.609C197.323 196.997 202.274 195.993 206.19 194.577C210.079 193.171 213.085 191.31 214.694 188.888L213.029 187.781C211.772 189.673 209.25 191.344 205.51 192.696C201.797 194.038 197.017 195.018 191.426 195.621C180.25 196.826 165.974 196.51 150.83 194.685L150.591 196.67ZM141.225 157.102C140.367 156.588 140.367 156.588 140.366 156.589C140.366 156.589 140.366 156.59 140.365 156.59C140.365 156.592 140.363 156.594 140.362 156.596C140.359 156.601 140.355 156.609 140.349 156.618C140.338 156.636 140.323 156.663 140.302 156.698C140.262 156.767 140.203 156.869 140.128 157.001C139.978 157.264 139.764 157.649 139.503 158.138C138.982 159.116 138.274 160.515 137.52 162.204C136.017 165.574 134.316 170.142 133.583 174.856C132.852 179.556 133.063 184.541 135.554 188.619C138.071 192.742 142.785 195.725 150.59 196.67L150.831 194.685C143.44 193.79 139.37 191.032 137.26 187.577C135.123 184.077 134.862 179.648 135.559 175.164C136.254 170.694 137.88 166.308 139.346 163.019C140.078 161.38 140.765 160.023 141.268 159.079C141.52 158.606 141.725 158.238 141.867 157.988C141.938 157.864 141.993 157.769 142.029 157.706C142.048 157.675 142.062 157.651 142.07 157.636C142.075 157.629 142.078 157.623 142.08 157.62C142.081 157.618 142.082 157.617 142.082 157.616C142.083 157.616 142.083 157.616 142.083 157.615C142.083 157.615 142.083 157.616 141.225 157.102ZM123.411 185.292C127.961 178.639 134.533 168.941 142.057 157.656L140.393 156.547C132.873 167.825 126.306 177.516 121.76 184.163L123.411 185.292ZM101.009 191.878C109.081 195.361 118.469 192.532 123.412 185.292L121.76 184.164C117.346 190.629 108.976 193.137 101.802 190.042L101.009 191.878ZM89.2541 140.267C85.646 156.599 85.3836 168.106 87.6317 176.239C89.9011 184.45 94.7137 189.162 101.009 191.878L101.802 190.042C96.0272 187.55 91.6574 183.297 89.5594 175.707C87.44 168.039 87.6252 156.912 91.207 140.698L89.2541 140.267ZM99.933 134.372C97.6879 134.526 95.3266 134.68 93.4111 135.421C92.4298 135.8 91.5264 136.347 90.7937 137.153C90.0578 137.964 89.5366 138.991 89.2542 140.266L91.2069 140.699C91.4237 139.72 91.8007 139.02 92.2744 138.498C92.7513 137.973 93.369 137.581 94.1328 137.286C95.7076 136.677 97.7327 136.528 100.07 136.367L99.933 134.372ZM109.187 132.027C106.772 133.871 103.445 134.13 99.933 134.372L100.07 136.367C103.432 136.136 107.42 135.891 110.4 133.617L109.187 132.027ZM145.843 112.294C137.353 115.455 122.494 121.859 109.187 132.028L110.401 133.617C123.486 123.618 138.138 117.297 146.54 114.169L145.843 112.294ZM159.303 109.578C154.693 109.77 150.157 110.685 145.842 112.295L146.541 114.168C150.658 112.633 154.986 111.759 159.386 111.576L159.303 109.578ZM189.266 109.101C177.623 108.992 166.119 109.291 159.302 109.578L159.386 111.576C166.176 111.29 177.644 110.993 189.248 111.101L189.266 109.101ZM188.356 110.572C188.394 110.62 188.431 110.668 188.468 110.716L190.046 109.487C190.008 109.438 189.971 109.39 189.933 109.341L188.356 110.572ZM253.118 109.005C253.084 108.005 253.084 108.005 253.083 108.005C253.083 108.005 253.083 108.005 253.082 108.005C253.081 108.005 253.079 108.005 253.077 108.005C253.072 108.006 253.065 108.006 253.056 108.006C253.038 108.007 253.01 108.008 252.974 108.009C252.901 108.011 252.792 108.015 252.649 108.02C252.363 108.03 251.94 108.044 251.393 108.061C250.298 108.097 248.705 108.147 246.713 108.207C242.728 108.325 237.147 108.479 230.763 108.622C217.99 108.906 202.011 109.144 189.159 108.957L189.13 110.957C202.02 111.144 218.029 110.906 230.807 110.621C237.198 110.479 242.784 110.324 246.772 110.206C248.766 110.146 250.361 110.096 251.458 110.06C252.006 110.043 252.43 110.028 252.716 110.019C252.86 110.014 252.969 110.01 253.042 110.008C253.079 110.007 253.106 110.006 253.125 110.005C253.134 110.005 253.141 110.004 253.146 110.004C253.148 110.004 253.15 110.004 253.151 110.004C253.152 110.004 253.152 110.004 253.153 110.004C253.153 110.004 253.153 110.004 253.118 109.005ZM249.806 94.373L252.131 109.16L254.106 108.849L251.782 94.0624L249.806 94.373Z" fill="black" mask="url(#path-26-inside-1_821_825)"/>
<path d="M100.496 92.6163C96.5687 89.4714 92.9015 85.3455 90.8658 87.3941C88.8445 89.4426 94.2443 94.9534 94.2443 94.9534C88.0504 94.0157 84.2822 86.2977 81.8566 87.2209C79.4311 88.1442 81.1925 92.0249 81.1925 92.0249C81.1925 92.0249 78.7958 87.1632 75.9227 88.9521C73.0496 90.7409 77.2076 95.8767 77.2076 95.8767C77.2076 95.8767 73.5116 91.5632 71.1149 94.9245C68.7182 98.2859 80.0952 104.864 80.0952 104.864C77.814 103.71 74.0891 103.176 73.5116 104.907C72.9341 106.639 77.1066 108.485 81.308 111.067C85.5238 113.65 92.1508 115.352 92.1508 115.352C91.3711 123.878 90.4904 131.322 90.1439 137.583C89.9707 140.569 91.992 143.267 94.9084 143.945C95.4859 144.075 96.049 144.19 96.6265 144.306C101.579 145.214 106.675 145.214 111.656 144.594L111.714 144.58C115.02 144.161 117.316 141.088 116.767 137.814C115.482 130.052 112.855 117.53 111.743 109.784C110.314 99.5121 104.423 95.7613 100.496 92.6163Z" fill="white"/>
<path d="M90.2307 140.786C90.0575 140.786 89.9131 140.641 89.9131 140.468C89.9997 133.5 90.5773 125.826 91.8045 115.597C90.5051 115.251 84.8599 113.635 81.1349 111.356C80.2398 110.808 79.3591 110.303 78.4928 109.798C75.0999 107.85 72.6599 106.437 73.1941 104.821C73.353 104.345 73.7139 103.984 74.2625 103.753C75.1288 103.393 76.3705 103.436 77.5832 103.681C74.97 101.936 71.0285 98.9639 70.5087 96.5259C70.3643 95.8623 70.4798 95.2564 70.8408 94.7515C71.476 93.857 72.2701 93.381 73.1941 93.3377C74.0748 93.2944 74.9267 93.6695 75.6486 94.1311C75.0133 92.9915 74.4214 91.5488 74.6235 90.3515C74.739 89.6446 75.1144 89.082 75.7496 88.6924C76.4571 88.2452 77.1934 88.1443 77.9442 88.3462C78.8826 88.6203 79.7056 89.3705 80.312 90.1062C80.2254 89.457 80.2254 88.7501 80.4708 88.1442C80.7018 87.5672 81.1349 87.1488 81.7413 86.918C83.0119 86.4275 84.4268 87.798 86.2315 89.5436C88.1373 91.3902 90.4618 93.6406 93.3349 94.4341C91.8622 92.7751 88.8592 88.981 90.6495 87.1777C92.483 85.3311 95.2118 87.697 98.3881 90.4236C99.1389 91.0728 99.9185 91.7508 100.713 92.3711C101.045 92.6452 101.406 92.9193 101.767 93.1934C105.564 96.1508 110.761 100.219 112.118 109.726C112.205 110.361 112.884 114.01 113.663 118.237C114.818 124.513 116.262 132.332 116.435 133.717C116.45 133.89 116.334 134.049 116.161 134.063C115.988 134.077 115.829 133.962 115.815 133.789C115.656 132.433 114.212 124.628 113.057 118.353C112.277 114.126 111.599 110.462 111.512 109.812C110.198 100.551 105.318 96.7423 101.406 93.6839C101.045 93.3954 100.684 93.1213 100.352 92.8472C99.5576 92.2124 98.7779 91.5344 98.0127 90.8852C95.0819 88.3606 92.5552 86.1823 91.1403 87.6105C89.6532 89.1108 93.075 93.2511 94.5188 94.7226C94.6198 94.8236 94.6343 94.9678 94.5765 95.0833C94.5188 95.1987 94.3744 95.2708 94.2445 95.2564C90.7216 94.7226 88.0073 92.097 85.8272 89.9908C84.2535 88.476 82.9108 87.1633 82.0156 87.5095C81.5681 87.6826 81.2793 87.9567 81.1061 88.3751C80.5574 89.7167 81.5248 91.8518 81.5248 91.8806C81.5969 92.0393 81.5248 92.2269 81.3659 92.299C81.2071 92.3711 81.0194 92.3134 80.9472 92.1547C80.9328 92.1259 79.5901 89.457 77.8142 88.9521C77.2367 88.7934 76.6737 88.88 76.125 89.2262C75.663 89.5147 75.3887 89.9187 75.3021 90.4524C74.9556 92.5154 77.4677 95.6603 77.4966 95.6892C77.6121 95.819 77.5832 96.021 77.4533 96.1364C77.3234 96.2518 77.1212 96.2374 77.0057 96.0931C76.9913 96.0642 75.0855 93.8859 73.2663 93.9724C72.5589 94.0013 71.9236 94.3908 71.4039 95.1265C71.144 95.4872 71.0718 95.9056 71.1729 96.3961C71.8947 99.7285 80.1965 104.547 80.2831 104.59C80.4275 104.677 80.4852 104.864 80.3986 105.023C80.312 105.167 80.1243 105.239 79.9799 105.153C78.3773 104.345 75.8507 103.811 74.5513 104.33C74.1759 104.489 73.9449 104.706 73.8438 105.009C73.4685 106.119 75.9662 107.562 78.8538 109.235C79.72 109.726 80.6007 110.245 81.5103 110.793C85.6251 113.318 92.2087 115.02 92.2665 115.035C92.4253 115.078 92.5264 115.222 92.4975 115.381C91.2558 125.725 90.6639 133.457 90.5773 140.468C90.5484 140.641 90.4184 140.786 90.2307 140.786Z" fill="black"/>
<path d="M83.9652 106.985C83.9219 106.985 83.8641 106.97 83.8208 106.956L80.3557 105.153C80.1969 105.066 80.1392 104.879 80.2258 104.72C80.3124 104.561 80.5001 104.504 80.6589 104.59L84.124 106.393C84.2828 106.48 84.3406 106.668 84.2539 106.826C84.1817 106.913 84.0807 106.985 83.9652 106.985Z" fill="black"/>
<path d="M86.5487 101.618C86.5054 101.618 86.4621 101.604 86.4332 101.589C83.2714 100.291 80.2972 98.56 77.5829 96.4538C77.4385 96.3528 77.4241 96.1508 77.5251 96.0065C77.6262 95.8623 77.8283 95.8479 77.9727 95.9488C80.6292 98.0118 83.5601 99.7141 86.6642 100.998C86.8231 101.07 86.9097 101.243 86.8375 101.416C86.7942 101.546 86.6787 101.618 86.5487 101.618Z" fill="black"/>
<path d="M89.6098 97.5502C89.5809 97.5502 89.5376 97.5502 89.5087 97.5358C86.5201 96.5692 83.7047 94.9535 81.3513 92.8472C81.2214 92.7318 81.207 92.5299 81.3225 92.4C81.438 92.2702 81.6401 92.2558 81.77 92.3712C84.0512 94.4053 86.7944 95.9777 89.6964 96.9299C89.8696 96.9876 89.9563 97.1607 89.8985 97.3338C89.8696 97.4636 89.7397 97.5502 89.6098 97.5502Z" fill="black"/>
<path d="M95.6016 104.908C95.4428 104.908 95.2984 104.792 95.284 104.619C95.1685 103.537 95.3562 102.47 95.5439 101.445C95.6305 100.998 95.7171 100.522 95.7749 100.06C95.9048 99.0361 95.9193 97.1751 94.7065 96.1797C94.5766 96.0643 94.5477 95.8623 94.6632 95.7325C94.7787 95.6026 94.9808 95.5738 95.1107 95.6892C96.569 96.8866 96.5401 98.9928 96.4101 100.132C96.3524 100.609 96.2658 101.085 96.1791 101.546C95.9915 102.585 95.8182 103.551 95.9193 104.532C95.9337 104.706 95.8182 104.864 95.6449 104.879C95.6305 104.908 95.6161 104.908 95.6016 104.908Z" fill="black"/>
<path d="M95.7022 117.516C95.63 117.516 95.5578 117.487 95.5001 117.444C94.706 116.766 93.8108 116.218 92.8435 115.828C92.6847 115.77 92.5981 115.583 92.6703 115.41C92.7425 115.251 92.9157 115.165 93.089 115.237C94.1285 115.655 95.0814 116.232 95.9332 116.953C96.0631 117.069 96.0776 117.271 95.9621 117.401C95.8755 117.473 95.7888 117.516 95.7022 117.516Z" fill="black"/>
<path d="M119.439 164.171C119.265 164.171 119.135 164.041 119.121 163.868L117.836 142.748C117.822 142.574 117.952 142.416 118.139 142.416C118.312 142.401 118.471 142.531 118.471 142.719L119.756 163.839C119.771 164.012 119.641 164.171 119.453 164.171H119.439Z" fill="black"/>
<path d="M177.983 84.682L174.186 106.033C173.883 107.721 172.511 109.005 170.808 109.192L156.558 110.765C156.558 110.765 167.242 119.536 187.657 119.132C208.072 118.728 212.591 110.995 212.591 110.995L196.825 109.264C194.818 109.048 193.316 107.346 193.331 105.326L193.49 92.5731C193.49 92.5731 182.401 82.2295 177.983 84.682Z" fill="white"/>
<path d="M176.699 83.6144C175.775 84.177 175.356 85.3744 175.573 86.4131C175.804 87.4662 176.598 88.3318 177.579 88.779C178.561 89.2262 179.687 89.2839 180.741 89.0675C181.738 92.4433 193.418 98.6033 197.2 94.4052C199.857 91.4623 199.424 83.9174 198.457 80.0511C197.489 76.1993 195.814 72.5207 195.179 68.6111C190.747 69.6643 186.343 71.1502 182.604 73.7469C181.781 74.3239 180.972 74.9587 180.38 75.781C179.788 76.6033 179.442 77.6275 179.586 78.6229C179.745 79.6472 180.409 80.5128 180.712 81.4938C180.943 82.2295 180.886 83.9751 179.803 84.0328C179.312 84.0616 178.821 83.4846 178.33 83.3692C177.796 83.2393 177.19 83.3115 176.699 83.6144Z" fill="white"/>
<path d="M193.403 96.1508C192.595 96.1508 191.7 96.0354 190.732 95.819C186.387 94.8236 181.507 91.7508 180.539 89.4426C179.702 89.5724 178.561 89.5869 177.45 89.082C176.338 88.577 175.5 87.5816 175.269 86.4852C175.01 85.2734 175.544 83.9462 176.54 83.3403C177.089 83.0085 177.782 82.9075 178.431 83.0662C178.691 83.1239 178.922 83.2826 179.153 83.4269C179.384 83.5711 179.63 83.7298 179.803 83.7298C179.991 83.7154 180.135 83.6433 180.25 83.4701C180.568 83.0085 180.568 82.0708 180.424 81.6092C180.308 81.2197 180.121 80.8446 179.933 80.4551C179.659 79.8924 179.384 79.3298 179.283 78.6806C179.124 77.6708 179.428 76.5744 180.135 75.6079C180.785 74.699 181.665 74.0354 182.431 73.5016C185.708 71.2367 189.736 69.5921 195.121 68.3226C195.208 68.3082 195.295 68.3226 195.367 68.3659C195.439 68.4092 195.497 68.4957 195.497 68.5823C195.872 70.8761 196.623 73.141 197.345 75.3193C197.85 76.8485 198.37 78.421 198.774 80.0079C199.814 84.1626 200.102 91.6931 197.446 94.6505C196.536 95.6315 195.15 96.1508 193.403 96.1508ZM180.741 88.7646C180.886 88.7646 181.001 88.8511 181.045 88.9954C181.608 90.9141 186.257 94.1456 190.877 95.1987C192.84 95.6459 195.497 95.8334 196.969 94.2033C199.482 91.419 199.164 84.177 198.153 80.1521C197.764 78.5941 197.244 77.0216 196.738 75.5213C196.045 73.4151 195.324 71.2511 194.934 69.0295C189.794 70.2702 185.925 71.8715 182.792 74.0354C182.055 74.5403 181.232 75.1751 180.64 75.9974C180.048 76.8197 179.774 77.7718 179.904 78.6085C179.991 79.1567 180.236 79.6616 180.496 80.1954C180.684 80.5849 180.886 81.0033 181.016 81.4361C181.189 82.0131 181.232 83.1672 180.756 83.8452C180.525 84.177 180.207 84.3646 179.817 84.379C179.442 84.3934 179.095 84.177 178.792 83.9751C178.605 83.8597 178.417 83.7298 178.258 83.701C177.767 83.5856 177.247 83.6577 176.843 83.9029C176.064 84.379 175.659 85.4033 175.861 86.3698C176.049 87.2642 176.757 88.0865 177.695 88.5193C178.763 89.0098 179.904 88.9377 180.655 88.7934C180.698 88.7646 180.727 88.7646 180.741 88.7646Z" fill="black"/>
<path d="M181.622 87.1633C181.564 87.1633 181.506 87.1488 181.463 87.12C180.496 86.5429 179.442 86.139 178.344 85.937C178.171 85.9082 178.056 85.7351 178.085 85.5619C178.113 85.3888 178.287 85.2734 178.46 85.3023C179.644 85.5187 180.77 85.9514 181.795 86.5718C181.939 86.6583 181.997 86.8603 181.896 87.0046C181.824 87.12 181.723 87.1633 181.622 87.1633Z" fill="black"/>
<path d="M202.859 65.9279L178.445 72.6505C176.164 73.2853 174.835 75.6367 175.456 77.9016L177.261 84.4512C177.896 86.7305 180.25 88.0577 182.516 87.4374L190.89 85.1292C190.63 83.1672 191.843 81.2774 193.792 80.7292C195.756 80.1954 197.763 81.2053 198.542 83.0085L206.916 80.7003C209.197 80.08 210.526 77.7141 209.905 75.4492L208.1 68.8997C207.479 66.6348 205.126 65.3075 202.859 65.9279Z" fill="#5479F7"/>
<path d="M178.373 76.9928C178.228 76.9928 178.113 76.9062 178.07 76.762C178.026 76.5888 178.127 76.4157 178.286 76.3725L204.866 69.0439C205.039 69.0006 205.213 69.1016 205.256 69.2603C205.299 69.4334 205.198 69.6065 205.039 69.6498L178.459 76.9783C178.431 76.9928 178.402 76.9928 178.373 76.9928Z" fill="black"/>
<path d="M179.398 80.6715C179.254 80.6715 179.138 80.5849 179.095 80.4407C179.052 80.2676 179.153 80.0944 179.312 80.0512L205.892 72.7226C206.065 72.6794 206.238 72.7803 206.281 72.939C206.325 73.1121 206.224 73.2853 206.065 73.3285L179.485 80.6571C179.456 80.6715 179.427 80.6715 179.398 80.6715Z" fill="black"/>
<path d="M342.906 106.783C372.33 106.783 396.182 82.9498 396.182 53.5502C396.182 24.1505 372.33 0.317383 342.906 0.317383C313.483 0.317383 289.631 24.1505 289.631 53.5502C289.631 82.9498 313.483 106.783 342.906 106.783Z" fill="white"/>
<path d="M342.907 107.086C313.352 107.086 289.313 83.0662 289.313 53.5357C289.328 24.0197 313.367 0 342.907 0C372.461 0 396.5 24.0197 396.5 53.5502C396.5 83.0662 372.461 107.086 342.907 107.086ZM342.907 0.634754C313.713 0.634754 289.949 24.3659 289.949 53.5502C289.949 82.7344 313.699 106.466 342.907 106.466C372.1 106.466 395.864 82.7344 395.864 53.5502C395.864 24.3659 372.114 0.634754 342.907 0.634754Z" fill="black"/>
<path d="M330.924 84.4367C330.851 84.4367 330.794 84.4223 330.736 84.379L309.209 68.3515C309.122 68.2937 309.079 68.1928 309.079 68.0918V25.0872C309.079 24.9718 309.151 24.8564 309.252 24.7987C309.353 24.741 309.483 24.7554 309.584 24.8275L331.111 40.8551C331.198 40.9128 331.241 41.0137 331.241 41.1147V84.1193C331.241 84.2347 331.169 84.3501 331.068 84.4078C331.025 84.4223 330.967 84.4367 330.924 84.4367ZM309.714 67.9331L330.606 83.4846V41.2734L309.714 25.7219V67.9331Z" fill="black"/>
<path d="M378.553 84.4367C378.481 84.4367 378.423 84.4223 378.366 84.379L356.839 68.3515C356.752 68.2937 356.709 68.1928 356.709 68.0918V25.0872C356.709 24.9718 356.781 24.8564 356.882 24.7987C356.983 24.741 357.113 24.7554 357.214 24.8275L378.741 40.8551C378.828 40.9128 378.871 41.0137 378.871 41.1147V84.1193C378.871 84.2347 378.799 84.3501 378.698 84.4078C378.64 84.4223 378.597 84.4367 378.553 84.4367ZM357.344 67.9331L378.236 83.4846V41.2734L357.344 25.7219V67.9331Z" fill="black"/>
<path d="M378.553 84.379H330.923C330.75 84.379 330.605 84.2347 330.605 84.0616V41.1147C330.605 40.9416 330.75 40.7974 330.923 40.7974H378.553C378.727 40.7974 378.871 40.9416 378.871 41.1147V84.0616C378.871 84.2347 378.727 84.379 378.553 84.379ZM331.241 83.7443H378.236V41.4321H331.241V83.7443Z" fill="black"/>
<path d="M357.027 68.4092H309.397C309.223 68.4092 309.079 68.2649 309.079 68.0918C309.079 67.9187 309.223 67.7744 309.397 67.7744H357.027C357.2 67.7744 357.345 67.9187 357.345 68.0918C357.345 68.2793 357.2 68.4092 357.027 68.4092Z" fill="black"/>
<path d="M357.027 25.405H309.397C309.223 25.405 309.079 25.2607 309.079 25.0876C309.079 24.9145 309.223 24.7702 309.397 24.7702H357.027C357.2 24.7702 357.345 24.9145 357.345 25.0876C357.345 25.2607 357.2 25.405 357.027 25.405Z" fill="black"/>
<path d="M335.556 45.748C338.116 43.1902 338.116 39.0434 335.556 36.4857C332.996 33.9279 328.846 33.9279 326.286 36.4856C323.726 39.0434 323.726 43.1903 326.286 45.748C328.846 48.3057 332.996 48.3057 335.556 45.748Z" fill="#5479F7"/>
<path d="M337.318 85.5838C338.15 82.0636 335.968 78.536 332.445 77.7048C328.922 76.8736 325.392 79.0534 324.56 82.5737C323.728 86.0939 325.91 89.6215 329.433 90.4528C332.956 91.284 336.486 89.1041 337.318 85.5838Z" fill="#5479F7"/>
<path d="M242.636 37.2918C242.463 37.2918 242.318 37.1475 242.318 36.9744V25.0872C242.318 24.9141 242.463 24.7698 242.636 24.7698H309.411C309.584 24.7698 309.728 24.9141 309.728 25.0872C309.728 25.2603 309.584 25.4046 309.411 25.4046H242.954V36.9744C242.954 37.1475 242.809 37.2918 242.636 37.2918Z" fill="black"/>
<path d="M249.639 42.7259C250.527 38.8589 248.11 35.0042 244.24 34.1162C240.37 33.2283 236.512 35.6432 235.624 39.5102C234.735 43.3772 237.152 47.2318 241.022 48.1198C244.892 49.0078 248.75 46.5928 249.639 42.7259Z" fill="#5479F7"/>
<path d="M357.027 170.734H340.582C340.409 170.734 340.265 170.59 340.265 170.417C340.265 170.244 340.409 170.1 340.582 170.1H356.709V110.058C356.709 109.885 356.854 109.74 357.027 109.74C357.2 109.74 357.345 109.885 357.345 110.058V170.417C357.345 170.59 357.2 170.734 357.027 170.734Z" fill="black"/>
<path d="M42.3261 242.043C65.2507 242.043 83.8347 223.474 83.8347 200.568C83.8347 177.662 65.2507 159.092 42.3261 159.092C19.4015 159.092 0.817383 177.662 0.817383 200.568C0.817383 223.474 19.4015 242.043 42.3261 242.043Z" fill="white"/>
<path d="M42.3263 242.361C19.2547 242.361 0.5 223.607 0.5 200.568C0.5 177.529 19.2547 158.775 42.3263 158.775C65.3979 158.775 84.1526 177.515 84.1526 200.568C84.1382 223.607 65.3835 242.361 42.3263 242.361ZM42.3263 159.41C19.6157 159.41 1.13526 177.875 1.13526 200.568C1.13526 223.26 19.6157 241.726 42.3263 241.726C65.037 241.726 83.5174 223.26 83.5174 200.568C83.5174 177.875 65.037 159.41 42.3263 159.41Z" fill="black"/>
<path d="M25.5067 220.563C25.3768 220.563 25.2613 220.491 25.218 220.361L15.5013 196.63C15.4291 196.471 15.5158 196.283 15.6746 196.211C15.8334 196.139 16.0211 196.226 16.0933 196.384L25.5067 219.409L40.883 180.761C40.9263 180.645 41.0418 180.559 41.1717 180.559H65.5283C65.7016 180.559 65.8459 180.703 65.8459 180.876C65.8459 181.049 65.7016 181.193 65.5283 181.193H41.3883L25.7955 220.361C25.7522 220.491 25.6367 220.563 25.5067 220.563Z" fill="black"/>
<path d="M58.5978 220.563C58.4823 220.563 58.3812 220.505 58.3234 220.39L44.3332 194.48C44.2466 194.321 44.3043 194.134 44.4631 194.047C44.622 193.961 44.8097 194.018 44.8963 194.177L58.8865 220.087C58.9731 220.245 58.9154 220.433 58.7566 220.519C58.6988 220.563 58.6411 220.563 58.5978 220.563Z" fill="black"/>
<path d="M44.6075 220.563C44.5498 220.563 44.5065 220.548 44.4631 220.519C44.3043 220.433 44.2466 220.245 44.3332 220.087L58.3234 194.177C58.4101 194.018 58.5978 193.961 58.7566 194.047C58.9154 194.134 58.9731 194.321 58.8865 194.48L44.8963 220.39C44.8241 220.505 44.723 220.563 44.6075 220.563Z" fill="black"/>
<path d="M118.154 264H42.3264C42.1532 264 42.0088 263.856 42.0088 263.683V249.531C42.0088 249.357 42.1532 249.213 42.3264 249.213C42.4997 249.213 42.6441 249.357 42.6441 249.531V263.365H118.154C118.327 263.365 118.471 263.51 118.471 263.683C118.471 263.856 118.327 264 118.154 264Z" fill="black"/>
<path d="M42.3264 152.658C42.1532 152.658 42.0088 152.514 42.0088 152.341V117.199C42.0088 117.026 42.1532 116.881 42.3264 116.881C42.4997 116.881 42.6441 117.026 42.6441 117.199V152.341C42.6441 152.514 42.4997 152.658 42.3264 152.658Z" fill="black"/>
</svg>
