<svg width="285" height="341" viewBox="0 0 285 341" fill="none" xmlns="http://www.w3.org/2000/svg">
<g clip-path="url(#clip0_821_428)">
<path d="M296.288 104.595C296.24 104.436 296.177 104.277 296.113 104.134C297.545 103.245 298.834 102.165 299.916 100.926C300.059 101.021 300.186 101.101 300.345 101.18C302.35 102.212 304.817 101.434 305.851 99.4329C306.885 97.4316 306.105 94.9698 304.101 93.9374C303.957 93.858 303.798 93.7944 303.639 93.7468C304.021 92.1426 304.164 90.4749 304.053 88.7913C304.212 88.7596 304.371 88.7278 304.53 88.6801C306.678 87.9972 307.872 85.71 307.187 83.55C306.503 81.4058 304.212 80.2145 302.048 80.8975C301.889 80.9452 301.73 81.0087 301.587 81.0722C300.696 79.6269 299.614 78.3562 298.372 77.2762C298.468 77.1333 298.547 77.0062 298.627 76.8474C299.661 74.8461 298.882 72.3843 296.877 71.3519C294.872 70.3195 292.406 71.0978 291.371 73.099C291.292 73.2419 291.228 73.4008 291.181 73.5596C289.573 73.1784 287.903 73.0355 286.216 73.1467C286.184 72.9878 286.152 72.829 286.105 72.6702C285.421 70.526 283.129 69.3347 280.965 70.0177C278.817 70.7007 277.624 72.9878 278.308 75.1479C278.356 75.3067 278.42 75.4656 278.483 75.6085C277.051 76.4979 275.762 77.578 274.68 78.8169C274.537 78.7216 274.41 78.6421 274.251 78.5627C272.246 77.5303 269.78 78.3086 268.745 80.3098C267.711 82.3111 268.491 84.7729 270.496 85.8053C270.639 85.8847 270.798 85.9483 270.957 85.9959C270.575 87.6001 270.432 89.2678 270.543 90.9514C270.384 90.9832 270.225 91.0149 270.066 91.0626C267.918 91.7455 266.725 94.0327 267.409 96.1927C268.093 98.3369 270.384 99.5282 272.548 98.8452C272.707 98.7975 272.866 98.734 273.01 98.6705C273.901 100.116 274.983 101.386 276.224 102.466C276.128 102.609 276.049 102.737 275.969 102.895C274.935 104.897 275.715 107.358 277.719 108.391C279.724 109.423 282.191 108.645 283.225 106.644C283.304 106.501 283.368 106.342 283.416 106.183C285.023 106.564 286.693 106.707 288.364 106.596C288.396 106.755 288.428 106.914 288.476 107.073C289.16 109.217 291.451 110.408 293.615 109.725C295.779 109.042 296.972 106.739 296.288 104.595ZM280.074 92.1585C278.801 88.1719 281.013 83.9153 285.007 82.6446C289.001 81.374 293.265 83.5817 294.538 87.5683C295.811 91.5549 293.599 95.8116 289.605 97.0822C285.611 98.3528 281.347 96.161 280.074 92.1585Z" fill="white"/>
<path d="M292.39 110.265C291.69 110.265 290.99 110.09 290.353 109.773C289.303 109.233 288.523 108.311 288.157 107.184C288.141 107.12 288.11 107.041 288.094 106.961C286.598 107.025 285.086 106.898 283.623 106.58C283.591 106.66 283.559 106.723 283.527 106.787C282.986 107.835 282.063 108.613 280.934 108.978C279.804 109.344 278.61 109.233 277.544 108.693C275.364 107.565 274.521 104.897 275.635 102.721C275.667 102.657 275.699 102.594 275.746 102.514C274.633 101.514 273.662 100.354 272.85 99.0993C272.771 99.1311 272.707 99.147 272.628 99.1787C270.305 99.9252 267.791 98.6228 267.059 96.3039C266.311 93.9691 267.616 91.4755 269.939 90.7449C270.002 90.729 270.082 90.6973 270.161 90.6814C270.098 89.1884 270.225 87.6795 270.543 86.2183C270.464 86.1865 270.4 86.1548 270.337 86.123C268.157 84.9953 267.313 82.327 268.427 80.151C268.968 79.1027 269.891 78.3245 271.021 77.9592C272.15 77.5939 273.344 77.705 274.41 78.2451C274.473 78.2768 274.537 78.3086 274.617 78.3562C275.619 77.2444 276.781 76.2756 278.038 75.4656C278.006 75.3861 277.99 75.3226 277.958 75.2432C277.21 72.9084 278.515 70.4148 280.838 69.6842C283.177 68.9377 285.675 70.2401 286.407 72.559C286.423 72.6384 286.455 72.7019 286.471 72.7813C287.966 72.7019 289.478 72.8449 290.942 73.1625C290.974 73.0831 291.005 73.0196 291.037 72.9561C291.578 71.9078 292.501 71.1295 293.631 70.7642C294.761 70.3989 295.954 70.5101 297.02 71.0501C299.2 72.1778 300.043 74.8461 298.929 77.0221C298.898 77.0856 298.85 77.1491 298.818 77.2286C299.932 78.2292 300.902 79.3886 301.714 80.6434C301.793 80.6116 301.857 80.5957 301.937 80.564C304.26 79.8175 306.774 81.1199 307.506 83.4388C308.253 85.7736 306.949 88.2672 304.626 88.9978C304.546 89.0137 304.482 89.0454 304.403 89.0613C304.467 90.5543 304.339 92.0632 304.021 93.5244C304.101 93.5562 304.164 93.588 304.228 93.6197C306.408 94.7474 307.251 97.4157 306.137 99.5917C305.596 100.64 304.673 101.418 303.544 101.784C302.414 102.149 301.205 102.038 300.155 101.498C300.091 101.466 300.027 101.434 299.948 101.386C298.945 102.498 297.784 103.467 296.527 104.277C296.559 104.357 296.574 104.42 296.606 104.5C296.972 105.627 296.861 106.834 296.32 107.883C295.779 108.931 294.856 109.709 293.726 110.074C293.297 110.201 292.835 110.265 292.39 110.265ZM288.38 106.247C288.539 106.247 288.698 106.358 288.73 106.533C288.762 106.707 288.794 106.85 288.841 106.977C289.144 107.93 289.796 108.708 290.687 109.153C291.578 109.614 292.581 109.693 293.535 109.391C294.49 109.09 295.27 108.438 295.715 107.549C296.177 106.66 296.256 105.659 295.954 104.706C295.906 104.579 295.858 104.436 295.795 104.277C295.715 104.118 295.779 103.928 295.922 103.832C297.322 102.975 298.563 101.926 299.645 100.704C299.757 100.576 299.964 100.545 300.107 100.64C300.25 100.735 300.377 100.815 300.489 100.878C301.38 101.339 302.382 101.418 303.337 101.116C304.292 100.815 305.071 100.163 305.517 99.274C306.455 97.4475 305.739 95.1921 303.91 94.2392C303.782 94.1756 303.655 94.1121 303.496 94.0644C303.337 94.0009 303.241 93.8262 303.273 93.6515C303.655 92.0632 303.782 90.4431 303.687 88.8072C303.671 88.6325 303.798 88.4737 303.973 88.4419C304.148 88.4101 304.292 88.3784 304.419 88.3307C306.376 87.7113 307.474 85.5989 306.853 83.6453C306.233 81.6917 304.116 80.5957 302.159 81.2152C302.032 81.2628 301.889 81.3105 301.73 81.374C301.571 81.4534 301.38 81.3899 301.284 81.2469C300.425 79.8492 299.375 78.6104 298.15 77.5303C298.022 77.4192 297.991 77.2127 298.086 77.0697C298.182 76.9268 298.261 76.7997 298.325 76.6885C299.263 74.862 298.547 72.6066 296.718 71.6537C295.827 71.1931 294.824 71.1136 293.87 71.4154C292.915 71.7172 292.135 72.3684 291.69 73.2578C291.626 73.3849 291.562 73.512 291.515 73.6708C291.451 73.8296 291.276 73.9249 291.101 73.8932C289.51 73.512 287.887 73.369 286.248 73.4802C286.073 73.4802 285.914 73.369 285.882 73.1943C285.85 73.0196 285.818 72.8766 285.771 72.7496C285.15 70.796 283.034 69.7001 281.077 70.3195C279.12 70.9389 278.022 73.0514 278.642 75.005C278.69 75.132 278.738 75.275 278.801 75.4338C278.881 75.5926 278.817 75.7832 278.674 75.8785C277.274 76.7362 276.033 77.7845 274.951 79.0074C274.839 79.1345 274.633 79.1663 274.489 79.071C274.346 78.9757 274.219 78.8963 274.108 78.8327C273.216 78.3721 272.214 78.2927 271.259 78.5945C270.305 78.8963 269.525 79.5475 269.079 80.4369C268.141 82.2634 268.857 84.5188 270.687 85.4718C270.814 85.5353 270.941 85.5989 271.1 85.6465C271.259 85.71 271.355 85.8847 271.323 86.0595C270.941 87.6477 270.814 89.2678 270.909 90.9037C270.925 91.0785 270.798 91.2373 270.623 91.269C270.464 91.3008 270.321 91.3326 270.177 91.3802C268.22 91.9997 267.122 94.1121 267.743 96.0657C268.363 98.0193 270.48 99.1152 272.437 98.4958C272.564 98.4481 272.707 98.4005 272.866 98.3369C273.026 98.2575 273.216 98.3211 273.312 98.4799C274.171 99.8776 275.221 101.116 276.446 102.196C276.574 102.308 276.606 102.514 276.51 102.657C276.415 102.8 276.335 102.927 276.271 103.038C275.333 104.865 276.049 107.12 277.879 108.073C278.77 108.534 279.772 108.613 280.727 108.311C281.681 108.01 282.461 107.358 282.907 106.469C282.97 106.342 283.034 106.215 283.082 106.056C283.145 105.897 283.32 105.802 283.495 105.834C285.086 106.215 286.709 106.358 288.348 106.247C288.364 106.247 288.38 106.247 288.38 106.247ZM287.298 97.7969C286.041 97.7969 284.8 97.4951 283.654 96.9075C281.777 95.9386 280.377 94.2868 279.74 92.2697C279.104 90.2526 279.279 88.1084 280.249 86.2183C281.22 84.3441 282.875 82.9464 284.895 82.3111C289.064 80.9928 293.535 83.2958 294.872 87.4571C295.508 89.4743 295.333 91.6185 294.363 93.5085C293.392 95.3827 291.737 96.7804 289.717 97.4157C288.921 97.6699 288.11 97.7969 287.298 97.7969ZM287.298 82.6446C286.566 82.6446 285.834 82.7558 285.102 82.9782C283.257 83.5658 281.761 84.8365 280.87 86.5518C279.979 88.2672 279.82 90.2208 280.408 92.0632C280.997 93.9056 282.27 95.3986 283.988 96.2881C285.707 97.1775 287.664 97.3363 289.51 96.7487C291.356 96.161 292.851 94.8904 293.742 93.175C294.633 91.4596 294.792 89.5061 294.204 87.6636C293.217 84.5982 290.369 82.6446 287.298 82.6446Z" fill="black"/>
<path d="M129.917 289.837H247.582C253.947 289.837 259.15 284.644 259.15 278.29V45.304C259.15 38.9509 253.947 33.7571 247.582 33.7571H129.917C123.553 33.7571 118.35 38.9509 118.35 45.304V278.275C118.35 284.644 123.553 289.837 129.917 289.837Z" fill="white"/>
<path d="M247.583 290.187H129.918C123.346 290.187 118 284.85 118 278.29V45.304C118 38.7444 123.346 33.4077 129.918 33.4077H247.583C254.154 33.4077 259.5 38.7444 259.5 45.304V278.275C259.5 284.85 254.154 290.187 247.583 290.187ZM129.918 34.1066C123.728 34.1066 118.7 39.1256 118.7 45.304V278.275C118.7 284.453 123.728 289.472 129.918 289.472H247.583C253.772 289.472 258.8 284.453 258.8 278.275V45.304C258.8 39.1256 253.772 34.1066 247.583 34.1066H129.918Z" fill="black"/>
<path d="M134.023 281.705H243.478C248.299 281.705 252.245 277.766 252.245 272.954V49.9418C252.245 45.1293 248.299 41.1903 243.478 41.1903H134.023C129.202 41.1903 125.256 45.1293 125.256 49.9418V272.97C125.256 277.766 129.202 281.705 134.023 281.705Z" fill="white"/>
<path d="M243.478 282.055H134.024C128.995 282.055 124.906 277.973 124.906 272.954V49.9259C124.906 44.9069 128.995 40.825 134.024 40.825H243.478C248.506 40.825 252.596 44.9069 252.596 49.9259V272.954C252.596 277.973 248.506 282.055 243.478 282.055ZM134.024 41.5239C129.377 41.5239 125.606 45.2881 125.606 49.9259V272.954C125.606 277.592 129.377 281.356 134.024 281.356H243.478C248.124 281.356 251.895 277.592 251.895 272.954V49.9259C251.895 45.2881 248.124 41.5239 243.478 41.5239H134.024Z" fill="black"/>
<path d="M201.949 48.7824H173.96C173.769 48.7824 173.61 48.6236 173.61 48.433C173.61 48.2424 173.769 48.0836 173.96 48.0836H201.949C202.14 48.0836 202.299 48.2424 202.299 48.433C202.299 48.6236 202.14 48.7824 201.949 48.7824Z" fill="black"/>
<path d="M221.139 246.54C221.139 239.234 215.204 233.31 207.885 233.31H169.602C162.283 233.31 156.348 239.234 156.348 246.54C156.348 253.847 162.283 259.771 169.602 259.771H207.885C215.204 259.771 221.139 253.847 221.139 246.54Z" fill="#5479F7"/>
<path d="M140.234 199.726V81.0164H237.249V199.726H140.234Z" stroke="black"/>
<path d="M196.777 68.0007H139.75C139.56 68.0007 139.4 67.8419 139.4 67.6513C139.4 67.4607 139.56 67.3018 139.75 67.3018H196.777C196.968 67.3018 197.127 67.4607 197.127 67.6513C197.111 67.8419 196.968 68.0007 196.777 68.0007Z" fill="black"/>
<path d="M237.765 216.792H215.187C214.996 216.792 214.837 216.633 214.837 216.442C214.837 216.252 214.996 216.093 215.187 216.093H237.765C237.956 216.093 238.115 216.252 238.115 216.442C238.115 216.633 237.956 216.792 237.765 216.792Z" fill="black"/>
<path d="M318.532 16H239.293C231.003 16 224.272 22.7185 224.272 30.9935C224.272 39.2685 231.003 45.9869 239.293 45.9869H318.532C326.822 45.9869 333.552 39.2685 333.552 30.9935C333.552 22.7185 326.822 16 318.532 16Z" fill="#5479F7"/>
<path d="M237.717 76.8474C237.685 76.8474 237.654 76.8474 237.622 76.8474C237.335 76.8474 237.097 76.6092 237.097 76.3233C237.097 76.0374 237.335 75.7992 237.622 75.7992C237.654 75.7992 237.685 75.7992 237.701 75.7992C243.684 75.7992 249.587 72.829 253.151 68.0483C256.731 63.2358 257.861 56.692 256.111 50.9583C256.031 50.6883 256.174 50.3865 256.461 50.3071C256.731 50.2277 257.034 50.3706 257.113 50.6565C258.975 56.692 257.782 63.6011 253.995 68.6836C250.255 73.7185 244.018 76.8474 237.717 76.8474Z" fill="#5479F7"/>
<path d="M293.121 27.3563H238.338C238.051 27.3563 237.812 27.118 237.812 26.8321C237.812 26.5463 238.051 26.308 238.338 26.308H293.121C293.407 26.308 293.646 26.5463 293.646 26.8321C293.646 27.118 293.407 27.3563 293.121 27.3563Z" fill="white"/>
<path d="M318.325 34.3607H267.409C267.122 34.3607 266.884 34.1224 266.884 33.8365C266.884 33.5506 267.122 33.3124 267.409 33.3124H318.325C318.612 33.3124 318.851 33.5506 318.851 33.8365C318.851 34.1224 318.612 34.3607 318.325 34.3607Z" fill="white"/>
<path d="M255.936 34.3607H238.338C238.051 34.3607 237.812 34.1224 237.812 33.8365C237.812 33.5506 238.051 33.3124 238.338 33.3124H255.92C256.206 33.3124 256.445 33.5506 256.445 33.8365C256.445 34.1224 256.222 34.3607 255.936 34.3607Z" fill="white"/>
<path d="M211.663 218.658V189.878H302.934V218.658H211.663Z" fill="white" stroke="black"/>
<path d="M263.799 210.852C263.703 210.852 263.623 210.82 263.544 210.756C263.401 210.613 263.401 210.391 263.544 210.264L269.527 204.292L263.544 198.32C263.401 198.177 263.401 197.955 263.544 197.828C263.687 197.685 263.91 197.685 264.037 197.828L270.274 204.054C270.418 204.197 270.418 204.419 270.274 204.546L264.037 210.772C263.989 210.82 263.894 210.852 263.799 210.852Z" fill="black"/>
<path d="M250.783 210.852C250.687 210.852 250.608 210.82 250.528 210.756L244.291 204.53C244.148 204.387 244.148 204.165 244.291 204.038L250.528 197.812C250.672 197.669 250.894 197.669 251.022 197.812C251.165 197.955 251.165 198.177 251.022 198.304L245.039 204.276L251.022 210.248C251.165 210.391 251.165 210.613 251.022 210.74C250.974 210.82 250.878 210.852 250.783 210.852Z" fill="black"/>
<path d="M253.98 210.995C253.932 210.995 253.869 210.979 253.821 210.963C253.646 210.867 253.582 210.661 253.662 210.486L260.17 197.732C260.249 197.558 260.472 197.494 260.647 197.573C260.822 197.669 260.886 197.875 260.806 198.05L254.298 210.804C254.219 210.931 254.107 210.995 253.98 210.995Z" fill="black"/>
<path d="M150.303 100.925H173.482C174.675 100.925 175.636 99.7844 175.636 98.3694C175.636 96.9544 174.675 95.8138 173.482 95.8138H150.303C149.11 95.8138 148.148 96.9544 148.148 98.3694C148.161 99.7844 149.122 100.925 150.303 100.925Z" fill="white"/>
<path d="M173.481 101.243H150.302C148.963 101.243 147.88 99.9576 147.88 98.3694C147.88 96.7811 148.963 95.4961 150.302 95.4961H173.481C174.82 95.4961 175.904 96.7811 175.904 98.3694C175.904 99.9576 174.82 101.243 173.481 101.243ZM150.302 96.1458C149.268 96.1458 148.416 97.1421 148.416 98.3838C148.416 99.6255 149.255 100.622 150.302 100.622H173.481C174.516 100.622 175.368 99.6255 175.368 98.3838C175.368 97.1421 174.528 96.1458 173.481 96.1458H150.302Z" fill="black"/>
<path d="M150.303 118.992H167.991C169.184 118.992 170.146 117.851 170.146 116.436C170.146 115.021 169.184 113.881 167.991 113.881H150.303C149.11 113.881 148.148 115.021 148.148 116.436C148.161 117.851 149.122 118.992 150.303 118.992Z" fill="white"/>
<path d="M168.003 119.31H150.302C148.963 119.31 147.88 118.025 147.88 116.436C147.88 114.848 148.963 113.563 150.302 113.563H167.991C169.33 113.563 170.413 114.848 170.413 116.436C170.413 118.025 169.33 119.31 168.003 119.31ZM150.302 114.213C149.268 114.213 148.416 115.209 148.416 116.451C148.416 117.678 149.255 118.689 150.302 118.689H167.991C169.025 118.689 169.878 117.692 169.878 116.451C169.878 115.223 169.038 114.213 167.991 114.213H150.302Z" fill="black"/>
<path d="M150.303 139.317H163.524C164.717 139.317 165.678 138.177 165.678 136.762C165.678 135.347 164.717 134.206 163.524 134.206H150.303C149.11 134.206 148.148 135.347 148.148 136.762C148.148 138.177 149.11 139.317 150.303 139.317Z" fill="white"/>
<path d="M163.523 139.635H150.302C148.963 139.635 147.88 138.35 147.88 136.762C147.88 135.173 148.963 133.888 150.302 133.888H163.523C164.862 133.888 165.946 135.173 165.946 136.762C165.933 138.35 164.85 139.635 163.523 139.635ZM150.302 134.538C149.268 134.538 148.416 135.534 148.416 136.776C148.416 138.018 149.255 139.014 150.302 139.014H163.523C164.558 139.014 165.41 138.018 165.41 136.776C165.41 135.534 164.57 134.538 163.523 134.538H150.302Z" fill="black"/>
<path d="M150.303 158.527H163.524C164.717 158.527 165.678 157.386 165.678 155.971C165.678 154.556 164.717 153.415 163.524 153.415H150.303C149.11 153.415 148.148 154.556 148.148 155.971C148.148 157.386 149.11 158.527 150.303 158.527Z" fill="white"/>
<path d="M163.523 158.844H150.302C148.963 158.844 147.88 157.559 147.88 155.971C147.88 154.383 148.963 153.098 150.302 153.098H163.523C164.862 153.098 165.946 154.383 165.946 155.971C165.933 157.559 164.85 158.844 163.523 158.844ZM150.302 153.733C149.268 153.733 148.416 154.729 148.416 155.971C148.416 157.198 149.255 158.209 150.302 158.209H163.523C164.558 158.209 165.41 157.213 165.41 155.971C165.41 154.744 164.57 153.733 163.523 153.733H150.302Z" fill="black"/>
<path d="M181.406 100.925H199.094C200.287 100.925 201.249 99.7844 201.249 98.3694C201.249 96.9544 200.287 95.8137 199.094 95.8137H181.406C180.213 95.8137 179.251 96.9544 179.251 98.3694C179.251 99.7844 180.225 100.925 181.406 100.925Z" fill="#5479F7"/>
<path d="M181.465 118.992H224.767C225.96 118.992 226.922 117.851 226.922 116.436C226.922 115.021 225.96 113.881 224.767 113.881H181.465C180.272 113.881 179.311 115.021 179.311 116.436C179.323 117.851 180.284 118.992 181.465 118.992Z" fill="#5479F7"/>
<path d="M177.657 139.317H188.029C189.222 139.317 190.183 138.177 190.183 136.762C190.183 135.347 189.222 134.206 188.029 134.206H177.657C176.464 134.206 175.502 135.347 175.502 136.762C175.514 138.177 176.476 139.317 177.657 139.317Z" fill="#5479F7"/>
<path d="M171.435 158.527H189.123C190.316 158.527 191.278 157.386 191.278 155.971C191.278 154.556 190.316 153.415 189.123 153.415H171.435C170.242 153.415 169.28 154.556 169.28 155.971C169.292 157.386 170.254 158.527 171.435 158.527Z" fill="#5479F7"/>
<path d="M207.02 100.925H224.708C225.901 100.925 226.863 99.7844 226.863 98.3694C226.863 96.9544 225.901 95.8137 224.708 95.8137H207.02C205.827 95.8137 204.865 96.9544 204.865 98.3694C204.865 99.7844 205.827 100.925 207.02 100.925Z" fill="white"/>
<path d="M224.707 101.243H207.019C205.68 101.243 204.597 99.9576 204.597 98.3694C204.597 96.7811 205.68 95.496 207.019 95.496H224.707C226.047 95.496 227.13 96.7811 227.13 98.3694C227.13 99.9576 226.047 101.243 224.707 101.243ZM207.019 96.1458C205.984 96.1458 205.132 97.1421 205.132 98.3838C205.132 99.6255 205.972 100.622 207.019 100.622H224.707C225.742 100.622 226.594 99.6255 226.594 98.3838C226.594 97.1421 225.754 96.1458 224.707 96.1458H207.019Z" fill="black"/>
<path d="M199.831 139.317H224.835C226.028 139.317 226.99 138.177 226.99 136.762C226.99 135.347 226.028 134.206 224.835 134.206H199.831C198.637 134.206 197.676 135.347 197.676 136.762C197.676 138.177 198.65 139.317 199.831 139.317Z" fill="white"/>
<path d="M224.835 139.635H199.831C198.492 139.635 197.408 138.35 197.408 136.762C197.408 135.173 198.492 133.888 199.831 133.888H224.835C226.174 133.888 227.258 135.173 227.258 136.762C227.258 138.35 226.174 139.635 224.835 139.635ZM199.831 134.538C198.796 134.538 197.944 135.534 197.944 136.776C197.944 138.018 198.784 139.014 199.831 139.014H224.835C225.87 139.014 226.722 138.018 226.722 136.776C226.722 135.534 225.882 134.538 224.835 134.538H199.831Z" fill="black"/>
<path d="M200.726 158.73H225.521C226.303 158.73 226.934 157.47 226.934 155.907C226.934 154.344 226.303 153.084 225.521 153.084H200.726C199.943 153.084 199.312 154.344 199.312 155.907C199.32 157.47 199.951 158.73 200.726 158.73Z" fill="#5479F7"/>
<path d="M123.005 366.373C146.386 343.034 146.386 305.193 123.005 281.854C99.6243 258.515 61.7162 258.515 38.3351 281.854C14.9541 305.193 14.9541 343.034 38.3351 366.373C61.7162 389.712 99.6243 389.712 123.005 366.373Z" fill="white"/>
<path d="M80.6684 384.31C47.4157 384.31 20.3408 357.304 20.3408 324.09C20.3408 290.877 47.3949 263.871 80.6684 263.871C113.921 263.871 140.996 290.877 140.996 324.09C140.996 357.304 113.942 384.31 80.6684 384.31ZM80.6684 264.802C47.9132 264.802 21.253 291.394 21.253 324.111C21.253 356.828 47.8925 383.42 80.6684 383.42C113.444 383.42 140.084 356.828 140.084 324.111C140.084 291.394 113.424 264.802 80.6684 264.802Z" fill="black"/>
<path d="M199.601 454.09H131.167C122.004 454.09 115.702 444.901 118.998 436.376L157.475 337.127H228.437L190.085 436.106L201.964 448.709C203.85 450.737 202.42 454.09 199.601 454.09Z" fill="white"/>
<path d="M199.602 454.545H131.169C126.711 454.545 122.544 452.351 120.036 448.688C117.528 445.026 116.968 440.349 118.585 436.21L157.062 336.962C157.124 336.796 157.29 336.672 157.497 336.672H228.46C228.605 336.672 228.75 336.755 228.833 336.879C228.916 337.003 228.937 337.169 228.874 337.293L190.625 436.003L202.297 448.399C203.313 449.475 203.582 450.985 202.981 452.351C202.38 453.696 201.095 454.545 199.602 454.545ZM157.787 337.562L119.435 436.52C117.921 440.452 118.398 444.674 120.782 448.15C123.166 451.627 126.939 453.614 131.169 453.614H199.623C200.742 453.614 201.696 452.972 202.131 451.958C202.567 450.944 202.38 449.806 201.613 448.999L189.734 436.417C189.61 436.293 189.568 436.107 189.651 435.941L227.776 337.583H157.787V337.562Z" fill="black"/>
<path d="M62.4453 305.155L68.6646 322.476C75.8998 342.57 94.9932 355.98 116.388 355.98H176.591L220.707 446.143C223.298 451.441 228.667 454.793 234.576 454.793H306.451C308.482 454.793 309.332 452.206 307.694 451.006L288.477 437.038L246.455 338.679C237.768 318.337 217.763 305.155 195.601 305.155H62.4453Z" fill="white"/>
<path d="M306.45 455.248H234.555C228.522 455.248 222.925 451.751 220.292 446.35L176.321 356.435H116.408C94.8893 356.435 75.5265 342.839 68.2498 322.621L62.0305 305.3C61.989 305.155 62.0098 305.01 62.0927 304.886C62.1756 304.762 62.3207 304.7 62.4659 304.7H195.622C217.991 304.7 238.121 317.965 246.89 338.514L288.87 436.748L307.984 450.634C308.897 451.296 309.27 452.413 308.917 453.489C308.544 454.566 307.591 455.248 306.45 455.248ZM63.0878 305.611L69.0998 322.311C76.252 342.177 95.2418 355.524 116.387 355.524H176.591C176.756 355.524 176.922 355.628 177.005 355.773L221.121 445.936C223.609 451.027 228.895 454.317 234.576 454.317H306.45C307.321 454.317 307.839 453.738 308.005 453.179C308.192 452.641 308.13 451.855 307.404 451.337L288.186 437.369C288.124 437.327 288.062 437.265 288.041 437.183L246.019 338.824C237.395 318.627 217.597 305.569 195.58 305.569H63.0878V305.611Z" fill="black"/>
<path d="M118.295 196.698C119.974 191.546 122.773 186.496 120.721 180.619C118.647 174.639 115.994 170.231 110.065 167.996C102.871 165.306 94.7445 168.451 88.4423 172.838C82.14 177.225 76.667 182.916 69.7428 186.248C64.8295 188.607 59.398 189.683 54.1323 191.09C48.8666 192.518 43.5387 194.401 39.4754 198.064C35.4328 201.727 32.9243 207.521 34.4999 212.736C24.9429 214.95 16.3809 222.028 13.4785 231.381C10.5762 240.735 14.0798 252.013 22.3722 257.249C28.2391 260.953 35.5779 261.429 42.5021 261.16C49.447 260.891 56.4542 259.96 63.2747 261.284C69.6184 262.505 75.589 265.609 82.0571 265.878C92.8373 266.333 102.291 258.822 109.484 250.792C113.112 246.757 116.595 242.101 116.989 236.7C117.321 232.064 122.69 227.181 119.829 223.414C120.182 218.427 112.262 215.199 118.295 196.698Z" fill="black"/>
<path d="M145.412 228.526L156.483 218.261L177.981 216.461C177.981 216.461 191.103 191.277 194.503 184.158C197.903 177.039 201.469 168.762 207.751 171.886C207.751 171.886 213.721 169.507 215.815 174.949C215.815 174.949 219.256 174.287 222.718 178.964C226.181 183.641 225.745 186.351 223.983 188.048C222.221 189.745 216.955 184.613 216.955 184.613L214.26 187.572C213.576 188.317 213.41 189.414 213.866 190.325C214.509 191.566 215.711 193.036 217.867 192.787C220.77 192.456 223.527 191.463 225.103 193.056C225.87 193.843 225.724 195.126 224.812 195.746C222.615 197.216 217.888 200.175 213.244 201.872C213.244 201.872 210.985 210.977 208.207 221.055C203.998 236.369 191.021 247.709 175.244 249.84L161.997 251.641L145.412 228.526Z" fill="white"/>
<path d="M161.997 252.096C161.852 252.096 161.707 252.034 161.624 251.91L145.039 228.774C144.915 228.588 144.935 228.339 145.101 228.174L156.172 217.91C156.254 217.848 156.337 217.806 156.441 217.785L177.67 216.006C178.976 213.502 190.875 190.614 194.068 183.93L194.566 182.895C197.053 177.701 199.603 172.321 203.376 171.017C204.765 170.541 206.237 170.665 207.751 171.369C208.455 171.121 210.922 170.417 213.161 171.39C214.467 171.948 215.442 172.983 216.064 174.452C217.1 174.411 220.086 174.68 223.029 178.695C226.181 182.958 226.574 186.124 224.232 188.379C222.428 190.118 218.323 186.6 216.893 185.275L214.53 187.883C213.97 188.504 213.846 189.393 214.219 190.118C215.069 191.773 216.25 192.518 217.764 192.353C218.406 192.27 219.049 192.166 219.671 192.063C221.889 191.69 223.983 191.339 225.372 192.746C225.828 193.222 226.056 193.863 225.994 194.505C225.932 195.167 225.579 195.746 225.02 196.119C222.677 197.671 218.116 200.506 213.597 202.203C213.224 203.693 211.109 212.095 208.621 221.159C204.351 236.679 191.269 248.102 175.286 250.275L162.038 252.075C162.038 252.096 162.018 252.096 161.997 252.096ZM146.013 228.588L162.204 251.165L175.182 249.406C190.813 247.274 203.604 236.1 207.771 220.931C210.508 210.977 212.788 201.851 212.809 201.748C212.85 201.603 212.954 201.479 213.099 201.437C217.619 199.782 222.221 196.926 224.564 195.374C224.895 195.167 225.103 194.815 225.144 194.422C225.185 194.029 225.061 193.656 224.792 193.387C223.734 192.311 221.951 192.622 219.878 192.953C219.256 193.056 218.593 193.16 217.93 193.242C216.064 193.449 214.467 192.497 213.472 190.532C212.933 189.476 213.12 188.172 213.928 187.283L216.623 184.323C216.706 184.241 216.831 184.178 216.955 184.178C217.08 184.158 217.204 184.22 217.287 184.303C219.339 186.31 222.698 188.69 223.693 187.738C225.642 185.855 225.206 183.082 222.387 179.253C219.132 174.846 215.96 175.404 215.939 175.404C215.711 175.446 215.504 175.321 215.421 175.115C214.882 173.707 214.011 172.755 212.871 172.238C210.632 171.265 207.999 172.279 207.958 172.3C207.834 172.342 207.709 172.342 207.585 172.279C206.216 171.597 204.952 171.472 203.729 171.886C200.329 173.066 197.841 178.26 195.457 183.309L194.959 184.344C191.58 191.38 178.561 216.399 178.416 216.668C178.354 216.813 178.209 216.896 178.043 216.916L156.711 218.696L146.013 228.588Z" fill="black"/>
<path d="M204.931 180.867C204.807 180.867 204.683 180.805 204.6 180.723C204.434 180.536 204.455 180.247 204.641 180.081C207.689 177.391 211.4 175.487 215.38 174.618C215.629 174.556 215.877 174.721 215.919 174.97C215.981 175.218 215.815 175.466 215.567 175.508C211.731 176.356 208.166 178.157 205.222 180.764C205.16 180.826 205.056 180.867 204.931 180.867Z" fill="black"/>
<path d="M199.396 181.033C199.313 181.033 199.23 181.012 199.147 180.971C198.94 180.826 198.878 180.557 199.002 180.35C201.158 176.998 203.874 174.101 207.087 171.762C207.295 171.617 207.585 171.659 207.73 171.866C207.875 172.073 207.834 172.362 207.626 172.507C204.496 174.783 201.863 177.598 199.769 180.868C199.707 180.95 199.562 181.033 199.396 181.033Z" fill="black"/>
<path d="M156.482 218.261L163.241 253.731L127.438 259.235L127.583 284.854L137.161 301.327L59.813 299.34L58.0716 277.55L29.9395 278.191C29.9395 278.191 32.2406 265.899 35.2259 253.027C38.8331 237.486 51.8108 225.856 67.6908 224.014C73.2675 223.373 79.7149 222.855 86.9293 222.607C115.58 221.676 156.482 218.261 156.482 218.261Z" fill="#FF722C"/>
<path d="M137.141 301.782L59.772 299.796C59.5439 299.796 59.3573 299.609 59.3366 299.382L57.6367 278.026L29.9399 278.646C29.7948 278.646 29.6704 278.584 29.5875 278.481C29.5045 278.377 29.4631 278.232 29.4838 278.108C29.5045 277.984 31.8264 265.671 34.7702 252.924C38.4189 237.217 51.6246 225.401 67.6083 223.559C73.8069 222.835 80.2958 222.379 86.8883 222.152C115.207 221.221 156.027 217.827 156.441 217.785C156.669 217.765 156.877 217.93 156.918 218.158L163.676 253.627C163.697 253.752 163.676 253.876 163.593 253.979C163.531 254.083 163.407 254.145 163.282 254.165L127.874 259.608L128.019 284.71L137.534 301.079C137.617 301.223 137.617 301.389 137.534 301.534C137.451 301.699 137.306 301.782 137.141 301.782ZM60.2073 298.906L136.332 300.851L127.169 285.082C127.127 285.02 127.107 284.937 127.107 284.855L126.962 259.235C126.962 259.008 127.127 258.822 127.355 258.78L162.702 253.338L156.109 218.737C151.756 219.089 113.735 222.193 86.9297 223.062C80.358 223.269 73.8899 223.745 67.7327 224.47C52.1222 226.27 39.2274 237.796 35.6617 253.131C33.0703 264.326 30.9557 275.19 30.4789 277.736L58.0513 277.115C58.2793 277.115 58.5074 277.301 58.5074 277.529L60.2073 298.906Z" fill="black"/>
<path d="M78.2425 243.57C77.9937 243.57 77.7864 243.384 77.7864 243.135C77.5376 236.348 76.273 229.664 73.9926 223.269C73.9096 223.042 74.034 222.773 74.2621 222.69C74.4901 222.607 74.7596 222.731 74.8425 222.959C77.1644 229.436 78.4498 236.224 78.6985 243.094C78.7193 243.363 78.512 243.57 78.2425 243.57Z" fill="black"/>
<path d="M116.511 238.997C116.491 238.997 116.491 238.997 116.47 238.997C116.221 238.976 116.035 238.769 116.055 238.5C116.491 232.623 115.641 226.622 113.588 221.096C113.505 220.869 113.63 220.6 113.858 220.517C114.086 220.434 114.355 220.558 114.438 220.786C116.532 226.415 117.403 232.582 116.947 238.562C116.947 238.811 116.739 238.997 116.511 238.997Z" fill="black"/>
<path d="M29.9181 278.191L27.7828 292.656C26.7048 299.94 32.4473 306.459 39.8483 306.314L129.469 304.493C129.469 304.493 127.541 282.764 109.111 281.833C90.0798 280.861 60.8697 282.889 60.8697 282.889L60.8282 277.55L29.9181 278.191Z" fill="white"/>
<path d="M29.919 278.646C29.6702 278.646 29.4629 278.439 29.4629 278.191C29.4629 277.943 29.6495 277.736 29.919 277.736L60.8291 277.094C61.0778 277.094 61.2852 277.301 61.2852 277.55C61.2852 277.798 61.0986 278.005 60.8291 278.005L29.919 278.646Z" fill="black"/>
<path d="M39.6 306.769C36.0343 306.769 32.6551 305.259 30.3125 302.569C27.887 299.837 26.8089 296.195 27.3479 292.594L29.4832 278.129C29.5247 277.881 29.7528 277.715 30.0015 277.736C30.2503 277.777 30.4161 278.005 30.3954 278.253L28.2601 292.718C27.7626 296.071 28.7784 299.423 31.0173 301.968C33.2563 304.493 36.4904 305.921 39.8695 305.859L128.993 304.059C128.702 301.865 127.148 292.76 120.928 287.069C120.742 286.903 120.721 286.614 120.907 286.427C121.073 286.241 121.364 286.22 121.55 286.407C128.868 293.132 129.926 304.017 129.967 304.472C129.988 304.597 129.946 304.721 129.843 304.824C129.76 304.928 129.635 304.969 129.511 304.969L39.8903 306.79C39.7659 306.769 39.683 306.769 39.6 306.769Z" fill="black"/>
<path d="M53.0748 283.882C52.8468 283.882 52.6395 283.696 52.6188 283.468C52.598 283.22 52.7846 282.992 53.0334 282.992L60.8283 282.454C61.0771 282.433 61.3051 282.62 61.3051 282.868C61.3258 283.116 61.1392 283.344 60.8905 283.344L53.0956 283.882H53.0748Z" fill="black"/>
<path d="M115.538 304.245H115.517C115.268 304.224 115.082 304.017 115.082 303.769C115.227 300.913 113.672 298.057 111.184 296.65C109.36 295.615 107.225 295.367 105.193 295.181C101.461 294.85 97.6676 294.746 93.9153 294.891C93.6665 294.912 93.4592 294.705 93.4385 294.456C93.4385 294.208 93.6251 294.001 93.8738 293.981C97.6676 293.836 101.482 293.918 105.255 294.27C107.308 294.456 109.65 294.746 111.62 295.864C114.398 297.436 116.16 300.644 115.994 303.831C115.973 304.058 115.766 304.245 115.538 304.245Z" fill="black"/>
<path d="M121.861 303.5C121.592 303.5 121.405 303.293 121.405 303.024C121.488 299.485 120.265 295.884 118.026 293.132C115.787 290.38 112.512 288.435 109.029 287.793C108.78 287.752 108.614 287.503 108.656 287.255C108.697 287.007 108.946 286.841 109.195 286.882C112.885 287.565 116.368 289.635 118.731 292.532C121.094 295.45 122.4 299.257 122.297 303.003C122.318 303.293 122.11 303.5 121.861 303.5Z" fill="black"/>
<path d="M94.7218 201.23L83.9416 222.028L78.0332 223.145C78.0332 223.145 85.1232 231.257 97.6863 230.119C110.249 229.002 109.545 221.572 109.545 221.572L101.19 220.952L106.435 208.784L94.7218 201.23Z" fill="white"/>
<path d="M95.3239 230.678C84.1498 230.678 77.7439 223.518 77.661 223.435C77.5573 223.311 77.5159 223.145 77.578 222.98C77.6402 222.835 77.7646 222.711 77.9305 222.69L83.6315 221.614L94.3288 201.023C94.391 200.92 94.4946 200.816 94.619 200.796C94.7434 200.754 94.8678 200.775 94.9922 200.858L106.705 208.39C106.892 208.515 106.975 208.742 106.871 208.949L101.875 220.538L109.587 221.117C109.815 221.138 109.981 221.303 110.002 221.531C110.002 221.634 110.209 223.931 108.281 226.229C106.249 228.67 102.683 230.14 97.7287 230.574C96.8995 230.636 96.1117 230.678 95.3239 230.678ZM78.9463 223.435C80.8743 225.256 87.4668 230.574 97.625 229.664C102.352 229.25 105.689 227.884 107.555 225.649C108.799 224.159 109.027 222.669 109.069 221.986L101.149 221.386C101.004 221.365 100.88 221.303 100.797 221.159C100.714 221.034 100.714 220.869 100.776 220.745L105.876 208.928L94.9093 201.872L84.3364 222.235C84.2742 222.359 84.1498 222.442 84.0254 222.462L78.9463 223.435Z" fill="black"/>
<path d="M93.7886 205.307C93.7886 205.307 98.7641 213.253 106.497 211.432C114.209 209.611 113.151 201.768 112.364 195.539C111.576 189.311 110.249 180.619 110.249 180.619C110.249 180.619 97.997 181.136 95.9861 185.896C93.9752 190.656 99.4482 195.312 95.9861 197.712C92.524 200.113 92.9594 191.608 88.4815 195.146C84.6877 198.147 86.6986 205.431 93.7886 205.307Z" fill="white"/>
<path d="M104.196 212.157C98.288 212.157 94.3283 206.9 93.5405 205.762C89.5394 205.742 87.3005 203.424 86.5127 201.251C85.6627 198.871 86.3261 196.264 88.1919 194.794C89.1663 194.029 90.0163 193.718 90.7833 193.843C91.9028 194.029 92.5869 195.105 93.1881 196.078C93.6649 196.843 94.121 197.567 94.6808 197.692C94.971 197.754 95.3234 197.65 95.7173 197.361C97.1685 196.347 96.7953 194.96 96.0076 192.58C95.3234 190.511 94.5356 188.172 95.5722 185.731C97.6868 180.764 109.732 180.205 110.25 180.185C110.478 180.164 110.685 180.35 110.727 180.578C110.747 180.661 112.074 189.331 112.841 195.498L112.862 195.684C113.629 201.727 114.666 209.984 106.622 211.888C105.751 212.074 104.963 212.157 104.196 212.157ZM93.7893 204.852C93.9552 204.852 94.1003 204.935 94.1832 205.059C94.2247 205.141 99.0965 212.695 106.394 210.977C113.629 209.26 112.738 202.099 111.929 195.767L111.908 195.581C111.224 190.2 110.125 182.895 109.856 181.095C107.741 181.24 98.0807 182.109 96.4014 186.062C95.51 188.172 96.2356 190.345 96.8783 192.27C97.6246 194.505 98.3294 196.636 96.2563 198.085C95.6344 198.519 95.0539 198.685 94.5149 198.561C93.582 198.375 93.0015 197.443 92.4418 196.553C91.9235 195.726 91.3845 194.877 90.6589 194.753C90.1614 194.67 89.5187 194.919 88.7931 195.519C87.2176 196.76 86.6785 198.913 87.4041 200.961C88.2541 203.445 90.6797 204.914 93.7893 204.852C93.7686 204.852 93.7686 204.852 93.7893 204.852Z" fill="black"/>
<path d="M93.8726 203.32C93.7068 203.32 93.5616 203.238 93.4787 203.093C93.0434 202.327 92.5665 201.541 91.9446 200.92C91.3019 200.278 90.5142 199.927 89.8093 199.968C89.5605 199.989 89.3532 199.782 89.3325 199.533C89.3118 199.285 89.5191 199.078 89.7678 199.057C90.7215 199.016 91.758 199.451 92.5873 200.258C93.2921 200.961 93.7897 201.789 94.2665 202.617C94.3909 202.844 94.3287 203.113 94.1006 203.238C94.0384 203.3 93.9555 203.32 93.8726 203.32Z" fill="black"/>
<path d="M198.67 299.796H146.655L163.945 252.344H215.939L198.67 299.796Z" fill="black"/>
<path d="M130.941 294.125H200.93L198.67 300.209H128.309L130.941 294.125Z" fill="black"/>
<path d="M278.236 298.533H81.3945V305.859H278.236V298.533Z" fill="black"/>
<path d="M323.037 445.026C322.871 445.026 322.705 444.922 322.622 444.757L259.517 307.908C259.413 307.68 259.517 307.411 259.745 307.307C259.973 307.204 260.242 307.307 260.346 307.535L323.452 444.384C323.555 444.612 323.452 444.881 323.224 444.984C323.161 445.005 323.099 445.026 323.037 445.026Z" fill="black"/>
<path d="M58.4666 445.026C58.4044 445.026 58.3422 445.005 58.28 444.984C58.052 444.881 57.9483 444.612 58.052 444.384L121.158 307.535C121.261 307.307 121.531 307.204 121.759 307.307C121.987 307.411 122.09 307.68 121.987 307.908L58.8812 444.757C58.7983 444.922 58.6325 445.026 58.4666 445.026Z" fill="black"/>
</g>
<defs>
<clipPath id="clip0_821_428">
<rect width="401" height="377" fill="white"/>
</clipPath>
</defs>
</svg>
