<svg width="41" height="41" viewBox="0 0 41 41" fill="none" xmlns="http://www.w3.org/2000/svg">
<path d="M20.4927 0.0905762C9.49268 0.0905762 0.492676 9.09058 0.492676 20.0906C0.492676 31.0906 9.49268 40.0906 20.4927 40.0906C31.4927 40.0906 40.4927 31.0906 40.4927 20.0906C40.4927 9.09058 31.4927 0.0905762 20.4927 0.0905762ZM30.2927 12.2906L26.8927 28.6906C26.6927 29.8906 25.8927 30.0906 25.0927 29.4906L19.8927 25.4906C18.6927 26.6906 17.4927 27.6906 17.2927 28.0906C16.8927 28.2906 16.6927 28.6906 16.2927 28.6906C15.6927 28.6906 15.6927 28.2906 15.4927 27.8906L13.6927 21.8906L8.29268 20.0906C7.09268 19.6906 7.09268 18.8906 8.49268 18.2906L28.8927 10.4906C29.6927 10.2906 30.6927 10.6906 30.2927 12.2906ZM25.4927 14.0906L14.0927 21.2906L15.8927 27.2906L16.2927 23.2906L26.0927 14.4906C26.6927 13.8906 26.2927 13.8906 25.4927 14.0906Z" fill="#2F73F7"/>
</svg>
