<svg width="41" height="41" viewBox="0 0 41 41" fill="none" xmlns="http://www.w3.org/2000/svg">
<path d="M20.1631 0.5C9.16309 0.5 0.163086 9.5 0.163086 20.5C0.163086 31.5 9.16309 40.5 20.1631 40.5C31.1631 40.5 40.1631 31.5 40.1631 20.5C40.1631 9.5 31.1631 0.5 20.1631 0.5ZM29.9631 12.7L26.5631 29.1C26.3631 30.3 25.5631 30.5 24.7631 29.9L19.5631 25.9C18.3631 27.1 17.1631 28.1 16.9631 28.5C16.5631 28.7 16.3631 29.1 15.9631 29.1C15.3631 29.1 15.3631 28.7 15.1631 28.3L13.3631 22.3L7.96309 20.5C6.76309 20.1 6.76309 19.3 8.16309 18.7L28.5631 10.9C29.3631 10.7 30.3631 11.1 29.9631 12.7ZM25.1631 14.5L13.7631 21.7L15.5631 27.7L15.9631 23.7L25.7631 14.9C26.3631 14.3 25.9631 14.3 25.1631 14.5Z" fill="white"/>
</svg>
