<svg width="335" height="334" viewBox="0 0 335 334" fill="none" xmlns="http://www.w3.org/2000/svg">
<path d="M6.95654 185.008C-1.76797 173.788 -1.0848 158.021 8.34726 147.389L73.1641 74.3271L148.02 7.74696C158.697 -1.75013 174.575 -2.39812 185.823 6.41676C207.615 23.496 242.826 51.9296 265.263 74.3279C287.626 96.6512 313.429 129.479 328.296 149.092C335.807 159 336.116 172.483 329.019 182.691C314.309 203.845 288.095 239.908 265.263 262.726C242.178 285.799 205.16 312.9 183.566 328.058C173.294 335.269 159.669 334.972 149.689 327.362C129.522 311.983 95.5216 285.157 73.1653 262.726C50.83 240.316 23.4793 206.257 6.95654 185.008Z" fill="#3C78EC"/>
</svg>
