<svg width="112" height="129" viewBox="0 0 112 129" fill="none" xmlns="http://www.w3.org/2000/svg">
<g clip-path="url(#clip0_844_7861)">
<path d="M60.0678 76.4588H19.8244C17.3892 76.4588 15.4132 74.479 15.4132 72.0393C15.4132 69.5995 17.3892 67.6198 19.8244 67.6198H60.0678C62.503 67.6198 64.479 69.5995 64.479 72.0393C64.479 74.479 62.503 76.4588 60.0678 76.4588ZM19.8244 70.2129C18.8225 70.2129 17.9876 71.0355 17.9876 72.0393C17.9876 73.0431 18.8086 73.8796 19.8244 73.8796H60.0678C61.0697 73.8796 61.8907 73.057 61.8907 72.0393C61.8907 71.0355 61.0697 70.2129 60.0678 70.2129H19.8244Z" fill="white"/>
<path d="M58.3701 81.1153H21.5221C20.8124 81.1153 20.228 80.5297 20.228 79.8187V75.1622C20.228 74.4512 20.8124 73.8656 21.5221 73.8656H58.3701C59.0798 73.8656 59.6642 74.4512 59.6642 75.1622V79.8187C59.6503 80.5437 59.0798 81.1153 58.3701 81.1153ZM22.8162 78.5361H57.076V76.4727H22.8162V78.5361Z" fill="white"/>
<path d="M31.4716 90.6095H26.3925C25.6828 90.6095 25.0984 90.0239 25.0984 89.3129V79.8326C25.0984 79.1216 25.6828 78.5361 26.3925 78.5361H31.4716C32.1813 78.5361 32.7657 79.1216 32.7657 79.8326V89.3129C32.7518 90.0239 32.1813 90.6095 31.4716 90.6095ZM27.6727 88.0163H30.1636V81.1153H27.6727V88.0163Z" fill="white"/>
<path d="M53.4997 90.6095H48.4206C47.7109 90.6095 47.1265 90.0239 47.1265 89.3129V79.8326C47.1265 79.1216 47.7109 78.5361 48.4206 78.5361H53.4997C54.2094 78.5361 54.7939 79.1216 54.7939 79.8326V89.3129C54.7939 90.0239 54.2094 90.6095 53.4997 90.6095ZM49.7147 88.0163H52.2056V81.1153H49.7147V88.0163Z" fill="white"/>
<path d="M32.9747 70.2129C32.265 70.2129 31.6806 69.6274 31.6806 68.9164V65.8492C31.6806 65.1382 32.265 64.5527 32.9747 64.5527C33.6844 64.5527 34.2688 65.1382 34.2688 65.8492V68.9164C34.2688 69.6274 33.6844 70.2129 32.9747 70.2129Z" fill="white"/>
<path d="M46.9175 70.2129C46.2078 70.2129 45.6233 69.6274 45.6233 68.9164V65.8492C45.6233 65.1382 46.2078 64.5527 46.9175 64.5527C47.6272 64.5527 48.2116 65.1382 48.2116 65.8492V68.9164C48.2116 69.6274 47.6272 70.2129 46.9175 70.2129Z" fill="white"/>
<path d="M39.9458 52.0749C35.7016 52.0749 32.2506 48.4501 32.2506 44.0027C32.2506 39.5554 35.7016 35.9306 39.9458 35.9306C44.19 35.9306 47.641 39.5554 47.641 44.0027C47.641 48.4501 44.19 52.0749 39.9458 52.0749ZM39.9458 38.4958C37.121 38.4958 34.8388 40.9635 34.8388 43.9888C34.8388 47.0141 37.1349 49.4818 39.9458 49.4818C42.7706 49.4818 45.0528 47.0141 45.0528 43.9888C45.0528 40.9635 42.7706 38.4958 39.9458 38.4958Z" fill="white"/>
<path d="M53.3748 70.2129H26.518C25.8083 70.2129 25.2239 69.6274 25.2239 68.9164V60.9418C25.2239 56.8569 28.5358 53.5388 32.613 53.5388H47.2798C51.357 53.5388 54.6689 56.8569 54.6689 60.9418V68.9164C54.6689 69.6274 54.0845 70.2129 53.3748 70.2129ZM27.8122 67.6198H52.0946V60.9418C52.0946 58.2929 49.9377 56.1319 47.2937 56.1319H32.613C29.969 56.1319 27.8122 58.2929 27.8122 60.9418V67.6198Z" fill="white"/>
<path d="M91.739 77.9226H66.1069C65.3972 77.9226 64.8127 77.3371 64.8127 76.6261C64.8127 75.9151 65.3972 75.3295 66.1069 75.3295H91.739C92.574 75.3295 93.2419 74.6464 93.2419 73.8238C93.2419 72.9873 92.5601 72.3181 91.739 72.3181H67.4706C66.7609 72.3181 66.1764 71.7326 66.1764 71.0216C66.1764 70.3105 66.7609 69.725 67.4706 69.725H91.753C94.0073 69.725 95.8441 71.5653 95.8441 73.8238C95.8441 76.0824 93.9933 77.9226 91.739 77.9226Z" fill="white"/>
<path d="M90.2223 82.1051H61.5566C60.8469 82.1051 60.2624 81.5195 60.2624 80.8085C60.2624 80.0975 60.8469 79.512 61.5566 79.512H88.9282V77.9226L66.1069 77.9226C65.3972 77.9226 64.8127 77.3371 64.8127 76.6261C64.8127 75.9151 65.3972 75.3295 66.1069 75.3295L90.2223 75.3295C90.932 75.3295 91.5165 75.915 91.5165 76.6261V80.7946C91.5165 81.5196 90.932 82.1051 90.2223 82.1051Z" fill="white"/>
<path d="M66.1069 90.6095H61.5566C60.8469 90.6095 60.2624 90.0239 60.2624 89.3129V80.8085C60.2624 80.0975 60.8469 79.512 61.5566 79.512H66.1069C66.8166 79.512 67.401 80.0975 67.401 80.8085V89.3129C67.401 90.0239 66.8305 90.6095 66.1069 90.6095ZM62.8507 88.0163H64.8128V82.1051H62.8507V88.0163Z" fill="white"/>
<path d="M85.867 90.6095H81.3166C80.6069 90.6095 80.0225 90.0239 80.0225 89.3129V80.8085C80.0225 80.0975 80.6069 79.512 81.3166 79.512H85.867C86.5767 79.512 87.1611 80.0975 87.1611 80.8085V89.3129C87.1611 90.0239 86.5767 90.6095 85.867 90.6095ZM82.5968 88.0163H84.5728V82.1051H82.5968V88.0163Z" fill="white"/>
<path d="M67.4706 72.3181C66.7609 72.3181 66.1764 71.7326 66.1764 71.0216L66.1767 68.2751C66.1767 67.564 66.7611 66.9785 67.4708 66.9785C68.1805 66.9785 68.7649 67.564 68.7649 68.2751V71.0215C68.751 71.7465 68.1803 72.3181 67.4706 72.3181Z" fill="white"/>
<path d="M79.9529 72.3181C79.2432 72.3181 78.6588 71.7326 78.6588 71.0215V68.2751C78.6588 67.564 79.2432 66.9785 79.9529 66.9785C80.6626 66.9785 81.2471 67.564 81.2471 68.2751V71.0215C81.2471 71.7465 80.6765 72.3181 79.9529 72.3181Z" fill="white"/>
<path d="M73.7188 56.0622C69.8364 56.0622 66.6915 52.7581 66.6915 48.6871C66.6915 44.6162 69.8503 41.312 73.7188 41.312C77.6012 41.312 80.7461 44.6162 80.7461 48.6871C80.7461 52.7581 77.5873 56.0622 73.7188 56.0622ZM73.7188 43.9052C71.2697 43.9052 69.2659 46.0522 69.2659 48.6871C69.2659 51.3221 71.2558 53.4691 73.7188 53.4691C76.1679 53.4691 78.1717 51.3221 78.1717 48.6871C78.1717 46.0522 76.1679 43.9052 73.7188 43.9052Z" fill="white"/>
<path d="M85.7554 72.3181L67.4706 72.3181C66.7609 72.3181 66.1764 71.7326 66.1764 71.0216C66.1764 70.3105 66.7609 69.725 67.4706 69.725L84.4613 69.725V63.8695C84.4613 61.5691 82.5966 59.687 80.2866 59.687H67.1366C64.8405 59.687 62.962 61.5552 62.962 63.8695C62.962 64.5805 62.3775 65.1661 61.6678 65.1661C60.9581 65.1661 60.3737 64.5805 60.3737 63.8695C60.3737 60.1331 63.4072 57.1078 67.1227 57.1078H80.2727C84.0021 57.1078 87.0217 60.1471 87.0217 63.8695V71.0215C87.0356 71.7465 86.4651 72.3181 85.7554 72.3181Z" fill="white"/>
<path d="M56.0043 37.0738C55.2946 37.0738 54.7102 36.4882 54.7102 35.7772V34.3273C54.7102 33.6162 55.2946 33.0307 56.0043 33.0307C56.714 33.0307 57.2985 33.6162 57.2985 34.3273V35.7772C57.2845 36.4882 56.714 37.0738 56.0043 37.0738Z" fill="white"/>
<path d="M60.2904 39.9318H58.8432C58.1336 39.9318 57.5491 39.3462 57.5491 38.6352C57.5491 37.9242 58.1336 37.3387 58.8432 37.3387H60.2904C61.0001 37.3387 61.5846 37.9242 61.5846 38.6352C61.5846 39.3462 61.0001 39.9318 60.2904 39.9318Z" fill="white"/>
<path d="M56.0043 44.2258C55.2946 44.2258 54.7102 43.6403 54.7102 42.9293V41.4793C54.7102 40.7683 55.2946 40.1828 56.0043 40.1828C56.714 40.1828 57.2985 40.7683 57.2985 41.4793V42.9293C57.2845 43.6403 56.714 44.2258 56.0043 44.2258Z" fill="white"/>
<path d="M53.1518 39.9318H51.7046C50.9949 39.9318 50.4105 39.3462 50.4105 38.6352C50.4105 37.9242 50.9949 37.3387 51.7046 37.3387H53.1518C53.8615 37.3387 54.446 37.9242 54.446 38.6352C54.446 39.3462 53.8615 39.9318 53.1518 39.9318Z" fill="white"/>
<path d="M68.3895 27.2868C67.6799 27.2868 67.0954 26.7012 67.0954 25.9902V24.5542C67.0954 23.8432 67.6799 23.2577 68.3895 23.2577C69.0992 23.2577 69.6837 23.8432 69.6837 24.5542V26.0041C69.6837 26.7152 69.1131 27.2868 68.3895 27.2868Z" fill="white"/>
<path d="M72.6888 30.1448H71.2416C70.5319 30.1448 69.9474 29.5592 69.9474 28.8482C69.9474 28.1372 70.5319 27.5517 71.2416 27.5517H72.6888C73.3985 27.5517 73.9829 28.1372 73.9829 28.8482C73.9829 29.5592 73.3985 30.1448 72.6888 30.1448Z" fill="white"/>
<path d="M68.3895 34.4388C67.6799 34.4388 67.0954 33.8532 67.0954 33.1422V31.7062C67.0954 30.9952 67.6799 30.4097 68.3895 30.4097C69.0992 30.4097 69.6837 30.9952 69.6837 31.7062V33.1562C69.6837 33.8672 69.1131 34.4388 68.3895 34.4388Z" fill="white"/>
<path d="M65.5502 30.1448H64.103C63.3933 30.1448 62.8088 29.5592 62.8088 28.8482C62.8088 28.1372 63.3933 27.5517 64.103 27.5517H65.5502C66.2599 27.5517 66.8443 28.1372 66.8443 28.8482C66.8443 29.5592 66.2599 30.1448 65.5502 30.1448Z" fill="white"/>
<path fill-rule="evenodd" clip-rule="evenodd" d="M83.4763 16.7739L55.9569 0.358032L28.4375 16.7739L0.53241 32.5185L0.918026 64.679L0.53241 96.8395L28.4375 112.584L55.9569 129L83.4763 112.584L111.381 96.8395L110.996 64.679L111.381 32.5185L83.4763 16.7739ZM108.682 34.085L82.1359 19.1072L55.9569 3.4909L29.7778 19.1072L3.23196 34.085L3.59879 64.679L3.23196 95.2731L29.7778 110.251L55.9569 125.867L82.1359 110.251L108.682 95.2731L108.315 64.679L108.682 34.085Z" fill="white"/>
</g>
<defs>
<clipPath id="clip0_844_7861">
<rect width="111.914" height="129" fill="white"/>
</clipPath>
</defs>
</svg>
