<svg width="596" height="470" viewBox="0 0 596 470" fill="none" xmlns="http://www.w3.org/2000/svg">
<g clip-path="url(#clip0_3749_3633)">
<path d="M127.279 0.781494H474.207C476.883 0.781494 479.449 1.84281 481.341 3.73197C483.233 5.62113 484.296 8.18338 484.296 10.8551V251.89H117.291V10.8173C117.3 8.16952 118.354 5.63207 120.223 3.75392C122.093 1.87577 124.627 0.807954 127.279 0.781494Z" fill="#263238" stroke="#263238" stroke-linecap="round" stroke-linejoin="round"/>
<path d="M539.347 362.888H62.1765L117.227 251.89H484.284L539.347 362.888Z" fill="#4F5865" stroke="#263238" stroke-linecap="round" stroke-linejoin="round"/>
<path d="M462.049 20.6643H139.462V232.008H462.049V20.6643Z" fill="#00AF9D" stroke="#263238" stroke-linecap="round" stroke-linejoin="round"/>
<path d="M285.445 287.022L286.088 273.498H266.691L265.405 287.022H285.445Z" fill="#263238" stroke="white" stroke-linecap="round" stroke-linejoin="round"/>
<path d="M325.538 287.022L324.869 273.498H305.472L305.485 287.022H325.538Z" fill="#263238" stroke="white" stroke-linecap="round" stroke-linejoin="round"/>
<path d="M429.927 301.49H450.66L445.792 287.022H425.752L429.927 301.49Z" fill="#263238" stroke="white" stroke-linecap="round" stroke-linejoin="round"/>
<path d="M265.405 287.022L266.691 273.498H247.294L245.364 287.022H265.405Z" fill="#263238" stroke="white" stroke-linecap="round" stroke-linejoin="round"/>
<path d="M225.324 287.022L227.897 273.498H208.5L205.271 287.022H225.324Z" fill="#263238" stroke="white" stroke-linecap="round" stroke-linejoin="round"/>
<path d="M405.712 287.022L402.445 273.498H383.061L385.659 287.022H405.712Z" fill="#263238" stroke="white" stroke-linecap="round" stroke-linejoin="round"/>
<path d="M425.752 287.022L421.842 273.498H402.445L405.712 287.022H425.752Z" fill="#263238" stroke="white" stroke-linecap="round" stroke-linejoin="round"/>
<path d="M205.271 287.022L208.5 273.498H189.115L185.231 287.022H205.271Z" fill="#263238" stroke="white" stroke-linecap="round" stroke-linejoin="round"/>
<path d="M345.578 287.022L344.267 273.498H324.87L325.538 287.022H345.578Z" fill="#263238" stroke="white" stroke-linecap="round" stroke-linejoin="round"/>
<path d="M445.792 287.022L441.239 273.498H421.842L425.752 287.022H445.792Z" fill="#263238" stroke="white" stroke-linecap="round" stroke-linejoin="round"/>
<path d="M385.659 287.022L383.061 273.498H363.664L365.618 287.022H385.659Z" fill="#263238" stroke="white" stroke-linecap="round" stroke-linejoin="round"/>
<path d="M365.619 287.022L363.664 273.498H344.267L345.578 287.022H365.619Z" fill="#263238" stroke="white" stroke-linecap="round" stroke-linejoin="round"/>
<path d="M305.485 287.022L305.473 273.498H286.088L285.445 287.022H305.485Z" fill="#263238" stroke="white" stroke-linecap="round" stroke-linejoin="round"/>
<path d="M165.19 287.022H145.15L139.614 301.49H160.347L165.19 287.022Z" fill="#263238" stroke="white" stroke-linecap="round" stroke-linejoin="round"/>
<path d="M169.718 273.498H150.321L145.15 287.022H165.19L169.718 273.498Z" fill="#263238" stroke="white" stroke-linecap="round" stroke-linejoin="round"/>
<path d="M185.231 287.022L189.115 273.498H169.718L165.19 287.022H185.231Z" fill="#263238" stroke="white" stroke-linecap="round" stroke-linejoin="round"/>
<path d="M133.686 316.991L127.304 333.637H149.589L155.164 316.991H133.686Z" fill="#263238" stroke="white" stroke-linecap="round" stroke-linejoin="round"/>
<path d="M160.348 301.49H139.614L133.686 316.991H155.164L160.348 301.49Z" fill="#263238" stroke="white" stroke-linecap="round" stroke-linejoin="round"/>
<path d="M155.164 316.991L149.59 333.637H171.862L176.642 316.991H155.164Z" fill="#263238" stroke="white" stroke-linecap="round" stroke-linejoin="round"/>
<path d="M245.364 287.022L247.294 273.498H227.897L225.324 287.022H245.364Z" fill="#263238" stroke="white" stroke-linecap="round" stroke-linejoin="round"/>
<path d="M243.296 301.49L245.364 287.022H225.324L222.562 301.49H243.296Z" fill="#263238" stroke="white" stroke-linecap="round" stroke-linejoin="round"/>
<path d="M222.562 301.49L225.324 287.022H205.271L201.815 301.49H222.562Z" fill="#263238" stroke="white" stroke-linecap="round" stroke-linejoin="round"/>
<path d="M264.03 301.49L265.405 287.022H245.364L243.296 301.49H264.03Z" fill="#263238" stroke="white" stroke-linecap="round" stroke-linejoin="round"/>
<path d="M185.231 287.022H165.19L160.347 301.49H181.081L185.231 287.022Z" fill="#263238" stroke="white" stroke-linecap="round" stroke-linejoin="round"/>
<path d="M434.391 316.991H455.869L450.66 301.49H429.927L434.391 316.991Z" fill="#263238" stroke="white" stroke-linecap="round" stroke-linejoin="round"/>
<path d="M201.815 301.49L205.271 287.022H185.231L181.081 301.49H201.815Z" fill="#263238" stroke="white" stroke-linecap="round" stroke-linejoin="round"/>
<path d="M160.348 301.49L155.164 316.991H176.642L181.081 301.49H160.348Z" fill="#263238" stroke="white" stroke-linecap="round" stroke-linejoin="round"/>
<path d="M388.446 301.49L385.659 287.022H365.619L367.712 301.49H388.446Z" fill="#263238" stroke="white" stroke-linecap="round" stroke-linejoin="round"/>
<path d="M367.712 301.49L365.618 287.022H345.578L346.978 301.49H367.712Z" fill="#263238" stroke="white" stroke-linecap="round" stroke-linejoin="round"/>
<path d="M429.927 301.49L425.752 287.022H405.712L409.18 301.49H429.927Z" fill="#263238" stroke="white" stroke-linecap="round" stroke-linejoin="round"/>
<path d="M305.498 301.49L305.485 287.022H285.445L284.764 301.49H305.498Z" fill="#263238" stroke="white" stroke-linecap="round" stroke-linejoin="round"/>
<path d="M346.978 301.49L345.578 287.022H325.538L326.244 301.49H346.978Z" fill="#263238" stroke="white" stroke-linecap="round" stroke-linejoin="round"/>
<path d="M326.244 301.49L325.538 287.022H305.485L305.498 301.49H326.244Z" fill="#263238" stroke="white" stroke-linecap="round" stroke-linejoin="round"/>
<path d="M284.764 301.49L285.445 287.022H265.404L264.03 301.49H284.764Z" fill="#263238" stroke="white" stroke-linecap="round" stroke-linejoin="round"/>
<path d="M346.978 301.49L348.479 316.991H369.957L367.712 301.49H346.978Z" fill="#263238" stroke="white" stroke-linecap="round" stroke-linejoin="round"/>
<path d="M367.712 301.49L369.957 316.991H391.435L388.446 301.49H367.712Z" fill="#263238" stroke="white" stroke-linecap="round" stroke-linejoin="round"/>
<path d="M181.081 301.49L176.642 316.991H198.12L201.815 301.49H181.081Z" fill="#263238" stroke="white" stroke-linecap="round" stroke-linejoin="round"/>
<path d="M388.446 301.49L391.435 316.991H412.913L409.18 301.49H388.446Z" fill="#263238" stroke="white" stroke-linecap="round" stroke-linejoin="round"/>
<path d="M305.498 301.49L305.523 316.991H327.001L326.244 301.49H305.498Z" fill="#263238" stroke="white" stroke-linecap="round" stroke-linejoin="round"/>
<path d="M409.18 301.49L412.913 316.991H434.391L429.927 301.49H409.18Z" fill="#263238" stroke="white" stroke-linecap="round" stroke-linejoin="round"/>
<path d="M326.244 301.49L327.001 316.991H348.479L346.978 301.49H326.244Z" fill="#263238" stroke="white" stroke-linecap="round" stroke-linejoin="round"/>
<path d="M222.562 301.49L219.598 316.991H241.076L243.296 301.49H222.562Z" fill="#263238" stroke="white" stroke-linecap="round" stroke-linejoin="round"/>
<path d="M201.815 301.49L198.12 316.991H219.598L222.562 301.49H201.815Z" fill="#263238" stroke="white" stroke-linecap="round" stroke-linejoin="round"/>
<path d="M284.764 301.49L284.032 316.991H305.523L305.498 301.49H284.764Z" fill="#263238" stroke="white" stroke-linecap="round" stroke-linejoin="round"/>
<path d="M264.03 301.49L262.554 316.991H284.032L284.764 301.49H264.03Z" fill="#263238" stroke="white" stroke-linecap="round" stroke-linejoin="round"/>
<path d="M243.296 301.49L241.076 316.991H262.554L264.03 301.49H243.296Z" fill="#263238" stroke="white" stroke-linecap="round" stroke-linejoin="round"/>
<path d="M409.18 301.49L405.712 287.022H385.659L388.446 301.49H409.18Z" fill="#263238" stroke="white" stroke-linecap="round" stroke-linejoin="round"/>
<path d="M169.718 273.498L174.347 259.647H155.618L150.321 273.498H169.718Z" fill="#263238" stroke="white" stroke-linecap="round" stroke-linejoin="round"/>
<path d="M150.321 273.498H132.425L126.648 287.022H145.15L150.321 273.498Z" fill="#263238" stroke="white" stroke-linecap="round" stroke-linejoin="round"/>
<path d="M155.618 259.647H138.327L132.425 273.498H150.321L155.618 259.647Z" fill="#263238" stroke="white" stroke-linecap="round" stroke-linejoin="round"/>
<path d="M145.15 287.022H126.649L120.469 301.49H139.614L145.15 287.022Z" fill="#263238" stroke="white" stroke-linecap="round" stroke-linejoin="round"/>
<path d="M139.614 301.49H120.469L113.847 316.991H133.686L139.614 301.49Z" fill="#263238" stroke="white" stroke-linecap="round" stroke-linejoin="round"/>
<path d="M133.686 316.991H113.847L106.747 333.637H127.304L133.686 316.991Z" fill="#263238" stroke="white" stroke-linecap="round" stroke-linejoin="round"/>
<path d="M465.833 287.022L471.394 301.49H489.745L483.565 287.022H465.833Z" fill="#263238" stroke="white" stroke-linecap="round" stroke-linejoin="round"/>
<path d="M477.36 316.991H496.353L489.745 301.49H471.395L477.36 316.991Z" fill="#263238" stroke="white" stroke-linecap="round" stroke-linejoin="round"/>
<path d="M483.754 333.637H503.466L496.353 316.991H477.36L483.754 333.637Z" fill="#263238" stroke="white" stroke-linecap="round" stroke-linejoin="round"/>
<path d="M324.87 273.498L324.201 259.647H305.46L305.473 273.498H324.87Z" fill="#263238" stroke="white" stroke-linecap="round" stroke-linejoin="round"/>
<path d="M465.833 287.022H483.565L477.789 273.498H460.636L465.833 287.022Z" fill="#263238" stroke="white" stroke-linecap="round" stroke-linejoin="round"/>
<path d="M455.869 316.991H477.36L471.395 301.49H450.661L455.869 316.991Z" fill="#263238" stroke="white" stroke-linecap="round" stroke-linejoin="round"/>
<path d="M189.115 273.498L193.075 259.647H174.347L169.718 273.498H189.115Z" fill="#263238" stroke="white" stroke-linecap="round" stroke-linejoin="round"/>
<path d="M441.24 273.498L445.792 287.022H465.833L460.637 273.498H441.24Z" fill="#263238" stroke="white" stroke-linecap="round" stroke-linejoin="round"/>
<path d="M477.789 273.498L471.874 259.647H455.314L460.636 273.498H477.789Z" fill="#263238" stroke="white" stroke-linecap="round" stroke-linejoin="round"/>
<path d="M460.637 273.498L455.314 259.647H436.586L441.239 273.498H460.637Z" fill="#263238" stroke="white" stroke-linecap="round" stroke-linejoin="round"/>
<path d="M391.435 316.991L394.651 333.637H416.924L412.913 316.991H391.435Z" fill="#263238" stroke="white" stroke-linecap="round" stroke-linejoin="round"/>
<path d="M461.481 333.637H483.754L477.36 316.991H455.869L461.481 333.637Z" fill="#263238" stroke="white" stroke-linecap="round" stroke-linejoin="round"/>
<path d="M441.24 273.498L436.586 259.647H417.844L421.842 273.498H441.24Z" fill="#263238" stroke="white" stroke-linecap="round" stroke-linejoin="round"/>
<path d="M434.391 316.991L439.196 333.637H461.481L455.869 316.991H434.391Z" fill="#263238" stroke="white" stroke-linecap="round" stroke-linejoin="round"/>
<path d="M412.913 316.991L416.924 333.637H439.196L434.391 316.991H412.913Z" fill="#263238" stroke="white" stroke-linecap="round" stroke-linejoin="round"/>
<path d="M450.66 301.49H471.394L465.833 287.022H445.792L450.66 301.49Z" fill="#263238" stroke="white" stroke-linecap="round" stroke-linejoin="round"/>
<path d="M266.691 273.498L268.002 259.647H249.274L247.294 273.498H266.691Z" fill="#263238" stroke="white" stroke-linecap="round" stroke-linejoin="round"/>
<path d="M421.842 273.498L417.844 259.647H399.116L402.445 273.498H421.842Z" fill="#263238" stroke="white" stroke-linecap="round" stroke-linejoin="round"/>
<path d="M247.294 273.498L249.274 259.647H230.545L227.897 273.498H247.294Z" fill="#263238" stroke="white" stroke-linecap="round" stroke-linejoin="round"/>
<path d="M305.472 273.498L305.46 259.647H286.731L286.088 273.498H305.472Z" fill="#263238" stroke="white" stroke-linecap="round" stroke-linejoin="round"/>
<path d="M227.897 273.498L230.545 259.647H211.817L208.5 273.498H227.897Z" fill="#263238" stroke="white" stroke-linecap="round" stroke-linejoin="round"/>
<path d="M208.5 273.498L211.817 259.647H193.075L189.115 273.498H208.5Z" fill="#263238" stroke="white" stroke-linecap="round" stroke-linejoin="round"/>
<path d="M286.088 273.498L286.731 259.647H268.003L266.691 273.498H286.088Z" fill="#263238" stroke="white" stroke-linecap="round" stroke-linejoin="round"/>
<path d="M402.445 273.498L399.116 259.647H380.387L383.061 273.498H402.445Z" fill="#263238" stroke="white" stroke-linecap="round" stroke-linejoin="round"/>
<path d="M383.061 273.498L380.387 259.647H361.658L363.664 273.498H383.061Z" fill="#263238" stroke="white" stroke-linecap="round" stroke-linejoin="round"/>
<path d="M344.267 273.498L342.93 259.647H324.201L324.87 273.498H344.267Z" fill="#263238" stroke="white" stroke-linecap="round" stroke-linejoin="round"/>
<path d="M391.435 316.991H369.957H348.479H327.001H305.523H284.032H262.554H241.076H219.598H198.12H176.642L171.862 333.637H194.147H216.42H238.692H260.978H283.25H305.535H327.808H350.093H372.366H394.651L391.435 316.991Z" fill="#263238" stroke="white" stroke-linecap="round" stroke-linejoin="round"/>
<path d="M363.664 273.498L361.658 259.647H342.93L344.267 273.498H363.664Z" fill="#263238" stroke="white" stroke-linecap="round" stroke-linejoin="round"/>
<path d="M539.562 362.888H62.1765V369.65H539.562V362.888Z" fill="#263238" stroke="#263238" stroke-linecap="round" stroke-linejoin="round"/>
<path d="M160.259 37.3359H181.056" stroke="#263238" stroke-width="3" stroke-linecap="round" stroke-linejoin="round"/>
<path d="M160.259 47.9888H238.39" stroke="white" stroke-width="3" stroke-linecap="round" stroke-linejoin="round"/>
<path d="M281.106 47.9888H359.237" stroke="white" stroke-width="3" stroke-linecap="round" stroke-linejoin="round"/>
<path d="M243.447 47.9888H274.372" stroke="#263238" stroke-width="3" stroke-linecap="round" stroke-linejoin="round"/>
<path d="M160.259 58.6541H205.233" stroke="#263238" stroke-width="3" stroke-linecap="round" stroke-linejoin="round"/>
<path d="M210.845 58.6541H255.819" stroke="#263238" stroke-width="3" stroke-linecap="round" stroke-linejoin="round"/>
<path d="M261.432 58.6541H306.406" stroke="#263238" stroke-width="3" stroke-linecap="round" stroke-linejoin="round"/>
<path d="M312.031 58.6541H331.138" stroke="#263238" stroke-width="3" stroke-linecap="round" stroke-linejoin="round"/>
<path d="M186.681 37.3359H207.478" stroke="#263238" stroke-width="3" stroke-linecap="round" stroke-linejoin="round"/>
<path d="M310.341 37.3359H331.138" stroke="#263238" stroke-width="3" stroke-linecap="round" stroke-linejoin="round"/>
<path d="M282.796 37.3359H303.593" stroke="white" stroke-width="3" stroke-linecap="round" stroke-linejoin="round"/>
<path d="M213.103 37.3359H273.804" stroke="#263238" stroke-width="3" stroke-linecap="round" stroke-linejoin="round"/>
<path d="M160.259 102.424H181.056" stroke="#263238" stroke-width="3" stroke-linecap="round" stroke-linejoin="round"/>
<path d="M160.259 113.089H238.39" stroke="white" stroke-width="3" stroke-linecap="round" stroke-linejoin="round"/>
<path d="M281.106 113.089H359.237" stroke="#263238" stroke-width="3" stroke-linecap="round" stroke-linejoin="round"/>
<path d="M243.447 113.089H274.372" stroke="#263238" stroke-width="3" stroke-linecap="round" stroke-linejoin="round"/>
<path d="M160.259 123.755H205.233" stroke="#263238" stroke-width="3" stroke-linecap="round" stroke-linejoin="round"/>
<path d="M210.845 123.755H255.819" stroke="#263238" stroke-width="3" stroke-linecap="round" stroke-linejoin="round"/>
<path d="M261.432 123.755H306.406" stroke="white" stroke-width="3" stroke-linecap="round" stroke-linejoin="round"/>
<path d="M312.031 123.755H331.138" stroke="#263238" stroke-width="3" stroke-linecap="round" stroke-linejoin="round"/>
<path d="M186.681 102.424H207.478" stroke="#263238" stroke-width="3" stroke-linecap="round" stroke-linejoin="round"/>
<path d="M310.341 102.424H331.138" stroke="#263238" stroke-width="3" stroke-linecap="round" stroke-linejoin="round"/>
<path d="M282.796 102.424H303.593" stroke="white" stroke-width="3" stroke-linecap="round" stroke-linejoin="round"/>
<path d="M213.103 102.424H273.804" stroke="#263238" stroke-width="3" stroke-linecap="round" stroke-linejoin="round"/>
<path d="M160.259 198.4H181.056" stroke="#263238" stroke-width="3" stroke-linecap="round" stroke-linejoin="round"/>
<path d="M160.259 209.065H238.39" stroke="white" stroke-width="3" stroke-linecap="round" stroke-linejoin="round"/>
<path d="M281.106 209.065H359.237" stroke="#263238" stroke-width="3" stroke-linecap="round" stroke-linejoin="round"/>
<path d="M243.447 209.065H274.372" stroke="#263238" stroke-width="3" stroke-linecap="round" stroke-linejoin="round"/>
<path d="M160.259 219.718H205.233" stroke="#263238" stroke-width="3" stroke-linecap="round" stroke-linejoin="round"/>
<path d="M210.845 219.718H255.819" stroke="#263238" stroke-width="3" stroke-linecap="round" stroke-linejoin="round"/>
<path d="M261.432 219.718H306.406" stroke="white" stroke-width="3" stroke-linecap="round" stroke-linejoin="round"/>
<path d="M312.031 219.718H331.138" stroke="#263238" stroke-width="3" stroke-linecap="round" stroke-linejoin="round"/>
<path d="M186.681 198.4H207.478" stroke="#263238" stroke-width="3" stroke-linecap="round" stroke-linejoin="round"/>
<path d="M310.341 198.4H331.138" stroke="#263238" stroke-width="3" stroke-linecap="round" stroke-linejoin="round"/>
<path d="M282.796 198.4H303.593" stroke="white" stroke-width="3" stroke-linecap="round" stroke-linejoin="round"/>
<path d="M213.103 198.4H273.804" stroke="#263238" stroke-width="3" stroke-linecap="round" stroke-linejoin="round"/>
<path d="M277.171 69.8862H297.968" stroke="#263238" stroke-width="3" stroke-linecap="round" stroke-linejoin="round"/>
<path d="M249.627 69.8862H270.437" stroke="#263238" stroke-width="3" stroke-linecap="round" stroke-linejoin="round"/>
<path d="M179.934 69.8862H240.635" stroke="#263238" stroke-width="3" stroke-linecap="round" stroke-linejoin="round"/>
<path d="M277.171 88.9629H297.968" stroke="#263238" stroke-width="3" stroke-linecap="round" stroke-linejoin="round"/>
<path d="M249.627 88.9629H270.437" stroke="#263238" stroke-width="3" stroke-linecap="round" stroke-linejoin="round"/>
<path d="M179.934 88.9629H240.635" stroke="white" stroke-width="3" stroke-linecap="round" stroke-linejoin="round"/>
<path d="M200.731 79.4182H179.934" stroke="#263238" stroke-width="3" stroke-linecap="round" stroke-linejoin="round"/>
<path d="M228.275 79.4182H207.478" stroke="#263238" stroke-width="3" stroke-linecap="round" stroke-linejoin="round"/>
<path d="M297.969 79.4182H237.268" stroke="white" stroke-width="3" stroke-linecap="round" stroke-linejoin="round"/>
<path d="M277.171 136.661H297.968" stroke="#263238" stroke-width="3" stroke-linecap="round" stroke-linejoin="round"/>
<path d="M249.627 136.661H270.437" stroke="#263238" stroke-width="3" stroke-linecap="round" stroke-linejoin="round"/>
<path d="M179.934 136.661H240.635" stroke="#263238" stroke-width="3" stroke-linecap="round" stroke-linejoin="round"/>
<path d="M277.171 155.751H297.968" stroke="#263238" stroke-width="3" stroke-linecap="round" stroke-linejoin="round"/>
<path d="M249.627 155.751H270.437" stroke="#263238" stroke-width="3" stroke-linecap="round" stroke-linejoin="round"/>
<path d="M179.934 155.751H240.635" stroke="white" stroke-width="3" stroke-linecap="round" stroke-linejoin="round"/>
<path d="M200.731 146.206H179.934" stroke="#263238" stroke-width="3" stroke-linecap="round" stroke-linejoin="round"/>
<path d="M228.275 146.206H207.478" stroke="#263238" stroke-width="3" stroke-linecap="round" stroke-linejoin="round"/>
<path d="M297.969 146.206H237.268" stroke="white" stroke-width="3" stroke-linecap="round" stroke-linejoin="round"/>
<path d="M200.731 166.97H179.934" stroke="#263238" stroke-width="3" stroke-linecap="round" stroke-linejoin="round"/>
<path d="M228.275 166.97H207.478" stroke="#263238" stroke-width="3" stroke-linecap="round" stroke-linejoin="round"/>
<path d="M297.969 166.97H237.268" stroke="white" stroke-width="3" stroke-linecap="round" stroke-linejoin="round"/>
<path d="M200.731 186.047H179.934" stroke="#263238" stroke-width="3" stroke-linecap="round" stroke-linejoin="round"/>
<path d="M228.275 186.047H207.478" stroke="#263238" stroke-width="3" stroke-linecap="round" stroke-linejoin="round"/>
<path d="M297.969 186.047H237.268" stroke="white" stroke-width="3" stroke-linecap="round" stroke-linejoin="round"/>
<path d="M277.171 176.515H297.968" stroke="#263238" stroke-width="3" stroke-linecap="round" stroke-linejoin="round"/>
<path d="M249.627 176.515H270.437" stroke="#263238" stroke-width="3" stroke-linecap="round" stroke-linejoin="round"/>
<path d="M179.934 176.515H240.635" stroke="white" stroke-width="3" stroke-linecap="round" stroke-linejoin="round"/>
<path d="M152.553 33.6213H145.907V40.1692H152.553V33.6213Z" fill="#263238"/>
<path d="M152.553 44.3875H145.907V50.9353H152.553V44.3875Z" fill="#263238"/>
<path d="M152.553 55.1409H145.907V61.6887H152.553V55.1409Z" fill="#263238"/>
<path d="M152.553 65.8945H145.907V72.4423H152.553V65.8945Z" fill="#263238"/>
<path d="M152.553 76.6606H145.907V83.2085H152.553V76.6606Z" fill="#263238"/>
<path d="M152.553 87.4141H145.907V93.9619H152.553V87.4141Z" fill="#263238"/>
<path d="M152.553 98.1677H145.907V104.716H152.553V98.1677Z" fill="#263238"/>
<path d="M152.553 108.934H145.907V115.482H152.553V108.934Z" fill="#263238"/>
<path d="M152.553 119.687H145.907V126.235H152.553V119.687Z" fill="#263238"/>
<path d="M152.553 130.441H145.907V136.989H152.553V130.441Z" fill="#263238"/>
<path d="M152.553 141.207H145.907V147.755H152.553V141.207Z" fill="#263238"/>
<path d="M152.553 151.96H145.907V158.508H152.553V151.96Z" fill="#263238"/>
<path d="M152.553 162.714H145.907V169.262H152.553V162.714Z" fill="#263238"/>
<path d="M152.553 173.48H145.907V180.028H152.553V173.48Z" fill="#263238"/>
<path d="M152.553 184.234H145.907V190.781H152.553V184.234Z" fill="#263238"/>
<path d="M152.553 194.987H145.907V201.535H152.553V194.987Z" fill="#263238"/>
<path d="M152.553 205.753H145.907V212.301H152.553V205.753Z" fill="#263238"/>
<path d="M152.553 216.507H145.907V223.055H152.553V216.507Z" fill="#263238"/>
<path d="M403.391 370.393L447.066 406.394C449.254 411.616 452.144 416.517 455.655 420.963C461.671 428.681 532.083 457.832 532.083 457.832L544.102 461.257L412.724 362.662L403.391 370.393Z" fill="#263238" stroke="#263238" stroke-linecap="round" stroke-linejoin="round"/>
<path d="M488.458 341.797C488.458 341.797 476.742 327.492 471.533 318.401C466.325 309.31 458.921 288.067 453.296 275.5C447.672 262.934 439.423 259.043 429.435 255.139C419.446 251.236 415.562 252.104 415.562 254.711C415.562 257.317 419.471 262.077 419.471 262.077L402.546 265.112C402.546 265.112 395.597 261.208 391.259 262.505C386.92 263.802 378.647 272.037 378.647 272.037C378.647 272.037 369.97 269.003 364.774 270.3C359.577 271.597 345.25 278.535 339.171 281.57C333.093 284.604 326.56 285.032 327.014 287.639C327.468 290.245 333.534 294.564 339.171 293.708C344.809 292.852 354.306 289.364 360.435 289.364C366.564 289.364 369.541 290.623 372.58 292.839C375.62 295.056 388.207 312.772 389.947 314.938C391.687 317.104 393.415 325.767 393.415 325.767C393.415 325.767 385.76 322.506 380.993 318.212C376.225 313.918 369.39 303.719 361.57 302.863C353.751 302.006 345.25 308.919 349.589 312.382C353.927 315.845 358.266 318.011 361.305 321.914C364.345 325.818 369.112 337.516 377.36 350.082C385.608 362.649 403.391 370.444 403.391 370.444L440.281 385.554C440.281 385.554 449.828 363.027 467.624 356.958C485.419 350.888 490.628 348.32 490.628 348.32L488.458 341.797Z" fill="white" stroke="#263238" stroke-linecap="round" stroke-linejoin="round"/>
<path d="M327.014 287.639C327.014 287.639 331.251 286.556 332.475 286.153C333.432 285.751 334.322 285.203 335.111 284.529" stroke="#263238" stroke-linecap="round" stroke-linejoin="round"/>
<path d="M378.659 272.037C378.659 272.037 398.649 283.206 404.287 286.228C406.607 287.488 412.106 290.006 413.796 295.723C414.908 299.631 416.99 303.196 419.85 306.086" stroke="#263238" stroke-linecap="round" stroke-linejoin="round"/>
<path d="M402.534 265.112C402.534 265.112 422.057 280.222 423.356 280.701C424.655 281.179 429.435 281.569 431.604 285.473C433.773 289.376 435.943 293.708 435.943 293.708" stroke="#263238" stroke-linecap="round" stroke-linejoin="round"/>
<path d="M419.459 262.077C419.459 262.077 426.395 260.818 429.006 265.968C431.617 271.118 442.879 283.735 442.879 283.735" stroke="#263238" stroke-linecap="round" stroke-linejoin="round"/>
<path d="M357.396 317.96C357.396 317.96 362.604 315.366 359.994 311.463C357.383 307.559 352.187 307.572 352.187 307.572" stroke="#263238" stroke-linecap="round" stroke-linejoin="round"/>
<path d="M487.588 336.168C487.588 336.168 464.155 342.225 449.399 358.695C434.643 375.165 434.643 389.029 435.942 391.195C437.242 393.361 465.404 408.522 465.404 408.522C465.404 408.522 482.758 375.153 494.916 366.968C507.074 358.783 515.851 356.529 515.851 356.529C515.851 356.529 494.159 342.678 493.289 340.928C492.418 339.178 490.628 334.859 487.588 336.168Z" fill="#00AF9D" stroke="#263238" stroke-linecap="round" stroke-linejoin="round"/>
<path d="M553.548 466.583C553.548 466.583 529.674 454.445 524.036 451.41L479.769 427.649C477.248 426.968 474.782 426.101 472.391 425.055C469.793 423.796 465.883 424.186 464.155 415.082C462.427 405.978 466.753 387.783 486.289 369.587C505.825 351.392 517.957 352.261 517.957 352.261C517.957 352.261 526.206 351.392 528.375 353.13C530.544 354.867 530.986 360.055 533.155 360.924C535.324 361.793 595.369 379.812 595.369 379.812" fill="#00AF9D"/>
<path d="M553.548 466.583C553.548 466.583 529.674 454.445 524.036 451.41L479.769 427.649C477.248 426.968 474.782 426.101 472.391 425.055C469.793 423.796 465.883 424.186 464.155 415.082C462.427 405.978 466.753 387.783 486.289 369.587C505.825 351.392 517.957 352.261 517.957 352.261C517.957 352.261 526.206 351.392 528.375 353.13C530.544 354.867 530.986 360.055 533.155 360.924C535.324 361.793 595.369 379.812 595.369 379.812" stroke="#263238" stroke-linecap="round" stroke-linejoin="round"/>
<path d="M485.419 399.858C485.419 399.858 482.808 412.853 488.887 423.682" stroke="#263238" stroke-linecap="round" stroke-linejoin="round"/>
<path d="M491.485 416.757C491.485 416.757 488.887 417.626 495.836 428.883" stroke="#263238" stroke-linecap="round" stroke-linejoin="round"/>
<path d="M224.075 332.151C224.075 332.151 195.472 366.15 186.883 372.949C181.732 377.07 176.277 380.795 170.563 384.093L139.651 414.969C139.651 414.969 140.509 419.25 131.933 424.4C123.357 429.55 106.167 435.544 101.879 437.256C97.5908 438.969 50.3467 460.388 50.3467 460.388L224.075 332.151Z" fill="#263238" stroke="#263238" stroke-linecap="round" stroke-linejoin="round"/>
<path d="M265.569 280.21C262.567 281.116 251.696 280.512 251.696 280.512C251.696 280.512 245.087 275.475 241.783 272.403C238.478 269.33 230.054 251.689 225.841 250.782C221.629 249.876 203.884 260.1 203.884 260.1C203.884 260.1 189.456 253.804 185.849 254.396C182.242 254.988 170.5 265.502 170.5 265.502C170.5 265.502 154.269 263.097 151.254 267.907C148.24 272.717 143.435 288.054 138.643 297.624C133.85 307.194 116.383 332.756 116.383 332.756L113.986 336.055C113.986 336.055 117.593 337.314 128.717 342.968C139.841 348.622 157.586 375.707 157.586 375.707C157.586 375.707 182.242 364.299 196.077 357.99C209.912 351.682 221.036 337.843 224.05 332.164C227.065 326.485 232.172 321.058 238.478 315.958C244.784 310.858 256.526 308.743 259.237 305.142C261.949 301.54 257.421 296.138 257.421 296.138C259.091 295.24 260.7 294.235 262.239 293.129C263.74 291.87 269.806 288.634 270.361 285.032C270.916 281.431 268.583 279.316 265.569 280.21ZM219.258 309.033L224.971 291.656C227.38 293.456 237.911 297.36 237.911 297.36C230.987 299.123 219.258 309.033 219.258 309.033Z" fill="white" stroke="#263238" stroke-linecap="round" stroke-linejoin="round"/>
<path d="M159.111 285.36C159.111 285.36 158.216 280.247 158.821 278.447C159.427 276.646 170.538 265.54 170.538 265.54" stroke="#263238" stroke-linecap="round" stroke-linejoin="round"/>
<path d="M168.734 291.328L171.143 283.521L203.922 260.1" stroke="#263238" stroke-linecap="round" stroke-linejoin="round"/>
<path d="M184.979 297.02C184.979 297.02 186.177 289.465 187.69 288.319C189.204 287.173 200.617 284.415 200.617 284.415C200.617 284.415 218.059 269.406 221.061 269.406C224.063 269.406 246.02 281.116 251.733 280.512" stroke="#263238" stroke-linecap="round" stroke-linejoin="round"/>
<path d="M261.356 281.708C261.356 281.708 257.446 281.708 259.553 284.126C261.659 286.543 266.161 285.385 268.267 284.73" stroke="#263238" stroke-linecap="round" stroke-linejoin="round"/>
<path d="M237.911 297.322C237.911 297.322 248.732 291.026 257.446 296.126" stroke="#263238" stroke-linecap="round" stroke-linejoin="round"/>
<path d="M254.785 297.952L248.77 300.055C249.866 302.17 250.773 304.378 251.481 306.653L251.771 308.466" stroke="#263238" stroke-linecap="round" stroke-linejoin="round"/>
<path d="M219.258 309.045L213.847 321.045" stroke="#263238" stroke-linecap="round" stroke-linejoin="round"/>
<path d="M76.4155 355.573C76.4155 355.573 95.3334 343.27 102.283 338.158C109.232 333.045 112.801 333.952 116.408 332.756C120.015 331.56 138.062 336.987 150.107 351.971C162.151 366.956 160.928 378.087 159.427 381.096C157.926 384.106 120.04 406.923 120.04 406.923C120.04 406.923 114.617 385.302 98.6881 372.383C82.7593 359.463 76.4155 355.573 76.4155 355.573Z" fill="#00AF9D" stroke="#263238" stroke-linecap="round" stroke-linejoin="round"/>
<path d="M0.630615 391.497C0.630615 391.497 35.7295 370.091 41.5814 366.565C47.4333 363.039 54.1933 358.255 54.1933 358.255C54.1933 358.255 56.0346 348.987 64.9639 348.672C73.8931 348.357 82.5196 351.87 94.2108 358.255C105.902 364.639 120.38 387.984 121.957 397.29C123.533 406.595 126.573 409.428 124.114 415.498C121.654 421.567 112.41 421.894 110.568 421.894C108.727 421.894 104.414 425.735 104.414 425.735L38.5293 468.548" fill="#00AF9D"/>
<path d="M0.630615 391.497C0.630615 391.497 35.7295 370.091 41.5814 366.565C47.4333 363.039 54.1933 358.255 54.1933 358.255C54.1933 358.255 56.0346 348.987 64.9639 348.672C73.8931 348.357 82.5196 351.87 94.2108 358.255C105.902 364.639 120.38 387.984 121.957 397.29C123.533 406.595 126.573 409.428 124.114 415.498C121.654 421.567 112.41 421.894 110.568 421.894C108.727 421.894 104.414 425.735 104.414 425.735L38.5293 468.548" stroke="#263238" stroke-linecap="round" stroke-linejoin="round"/>
<path d="M109.534 405.588C109.534 405.588 112.284 407.628 106.785 416.203" stroke="#263238" stroke-linecap="round" stroke-linejoin="round"/>
<path d="M105.599 409.667C105.599 409.667 105.208 418.658 96.9475 426.818" stroke="#263238" stroke-linecap="round" stroke-linejoin="round"/>
</g>
<defs>
<clipPath id="clip0_3749_3633">
<rect width="596" height="469" fill="white" transform="translate(0 0.151855)"/>
</clipPath>
</defs>
</svg>
