<svg width="344" height="346" viewBox="0 0 344 346" fill="none" xmlns="http://www.w3.org/2000/svg">
<path d="M310.75 406L414 228.501L310.75 51H104.25L1 228.501L104.25 406H310.75Z" fill="#E3E3E3"/>
<path d="M324.002 142.361C324.002 116.274 309.753 65.1168 262.13 67.4792C251.793 16.0553 229.937 1.01583 191.036 0.633184C153.05 0.267178 146.059 30.4627 143.13 29.165C102.248 10.898 59.052 51.5413 67.3416 99.4714C46.1183 102 34.8491 123.694 34.8491 149.265C34.8491 149.381 34.8491 149.498 34.8491 149.614C34.949 166.334 46.6343 179.776 60.883 179.776H291.942C309.171 179.776 323.536 163.822 323.985 143.625C323.985 143.192 324.002 142.777 324.002 142.361Z" fill="#00AF9D"/>
<path d="M232.835 144.431L207.74 132.121C187.33 122.099 168.286 109.522 151.053 94.6577L149.828 87.0303C149.828 87.0303 141.327 87.119 139.499 87.0125C137.174 86.8884 134.813 87.6866 133.021 89.4427C114.332 107.749 93.0526 123.181 69.856 135.278L53.457 143.828C49.6412 145.815 48.2391 149.327 49.3927 154.365L70.8322 244.901C80.1676 270.231 117.758 304.111 138.913 321.76C142.765 324.971 147.468 326.532 152.153 326.514C154.23 326.496 162.837 326.78 162.837 326.78C162.837 326.78 164.665 323.162 167.061 320.714C186.069 301.397 219.436 264.235 226.197 234.967L237.414 154.045C238.302 150.161 236.403 146.17 232.835 144.431Z" fill="white"/>
<path d="M242.348 144.91L217.448 132.689C197.18 122.755 178.278 110.267 161.187 95.527L154.78 89.9927C151.443 87.1191 146.456 87.2787 143.297 90.3474C124.75 108.511 103.63 123.837 80.6289 135.828L64.3541 144.325C60.5738 146.294 58.8522 150.764 60.3253 154.773L81.6051 244.599C90.8695 269.734 128.566 303.668 149.562 321.175C157.69 327.951 169.653 327.348 177.089 319.809C195.955 300.652 229.055 263.774 235.764 234.737L246.909 154.453C247.761 150.586 245.88 146.649 242.348 144.91Z" fill="white"/>
<path d="M227.049 155.588L206.426 145.478C189.655 137.247 174.001 126.906 159.856 114.702L154.549 110.125C151.781 107.748 147.663 107.872 145.054 110.427C129.684 125.433 112.203 138.116 93.1591 148.05L79.6707 155.092C76.5471 156.724 75.1095 160.431 76.3341 163.748L93.9578 238.124C101.625 258.931 132.844 287.029 150.219 301.521C156.945 307.126 166.849 306.629 173.007 300.386C188.625 284.528 216.028 253.982 221.583 229.947L230.812 163.464C231.54 160.289 229.978 157.025 227.049 155.588Z" fill="#4F5865"/>
<path d="M139.197 177.264L139.57 153.442C139.747 145.744 145.853 139.447 153.537 139.092C162.021 138.702 169.067 145.637 168.854 154.116L168.676 161.513C168.623 164.085 170.753 166.178 173.326 166.072C175.705 165.983 177.586 164.05 177.621 161.673L177.728 154.648C178.047 141.025 167.132 129.832 153.058 130.4V130.418C141.433 130.897 130.785 141.114 130.501 153.566L130.199 177.619L139.197 177.264Z" fill="white"/>
<path d="M130.217 178.222C130.057 178.222 129.915 178.169 129.809 178.063C129.684 177.956 129.631 177.797 129.631 177.637L129.933 153.584C130.217 141.256 140.741 130.418 152.934 129.868C152.97 129.85 153.005 129.85 153.058 129.85C159.909 129.566 166.334 132.014 171.108 136.697C175.935 141.433 178.491 147.819 178.331 154.684L178.225 161.69C178.189 164.369 176.06 166.551 173.38 166.675C171.978 166.728 170.629 166.214 169.635 165.238C168.623 164.245 168.091 162.932 168.126 161.513L168.304 154.116C168.393 150.214 166.849 146.418 164.044 143.686C161.222 140.937 157.513 139.518 153.591 139.695C146.243 140.032 140.351 146.081 140.173 153.478L139.801 177.3C139.801 177.619 139.552 177.868 139.233 177.885L130.252 178.258C130.235 178.222 130.235 178.222 130.217 178.222ZM153.218 131.003C153.183 131.021 153.147 131.021 153.112 131.021C141.469 131.5 131.388 141.824 131.122 153.602L130.838 177.034L138.647 176.715L139.02 153.442C139.197 145.442 145.586 138.879 153.555 138.507C157.815 138.311 161.826 139.855 164.878 142.835C167.913 145.797 169.582 149.912 169.493 154.134L169.315 161.531C169.298 162.613 169.706 163.624 170.469 164.387C171.25 165.149 172.262 165.54 173.344 165.504C175.403 165.415 177.036 163.748 177.071 161.69L177.178 154.666C177.338 148.121 174.888 142.036 170.309 137.531C165.766 133.079 159.696 130.773 153.218 131.003Z" fill="#1D2332"/>
<path d="M149.154 242.772L159.217 243.162C173.131 242.807 185.448 226.187 184.135 206.639L182.023 175.367L122.851 174.888C117.598 174.87 113.196 179.553 113.569 184.786L115.397 211.198C116.569 228.972 131.335 242.772 149.154 242.772Z" fill="#00AF9D"/>
<path d="M158.862 242.275C178.473 242.275 193.967 225.69 192.654 206.143L191.502 184.5L190.002 177.5L186.502 175.846H128.016C125.141 175.846 122.869 178.276 123.047 181.149L125.052 210.719C126.259 228.493 141.043 242.275 158.862 242.275Z" fill="white"/>
<path d="M158.862 242.878C140.812 242.878 125.709 228.777 124.484 210.772L122.479 181.043C122.372 179.535 122.887 178.098 123.916 176.981C124.946 175.881 126.348 175.26 127.874 175.26H185.697C188.749 175.26 191.305 177.655 191.518 180.688L191.802 184.839C191.82 185.158 191.571 185.442 191.252 185.46C190.915 185.495 190.648 185.229 190.631 184.91L190.347 180.759C190.187 178.329 188.146 176.413 185.697 176.413H127.874C126.685 176.413 125.584 176.892 124.768 177.761C123.952 178.631 123.561 179.766 123.632 180.936L125.638 210.666C126.809 228.067 141.398 241.69 158.844 241.69C175.261 241.69 189.424 229.468 191.784 213.256C191.837 212.936 192.139 212.706 192.441 212.759C192.76 212.812 192.991 213.096 192.938 213.415C191.766 221.486 187.702 228.918 181.526 234.329C175.261 239.845 167.203 242.878 158.862 242.878Z" fill="#1D2332"/>
<path d="M159.625 223.1C161.222 223.1 162.482 221.752 162.394 220.155L160.885 196.599C160.796 195.145 159.589 194.009 158.116 194.009C156.519 194.009 155.259 195.357 155.348 196.954L156.856 220.528C156.963 221.965 158.17 223.1 159.625 223.1Z" fill="#1D2332"/>
<path d="M161.009 208.638C166.484 207.345 169.875 201.862 168.582 196.389C167.289 190.916 161.802 187.528 156.327 188.82C150.851 190.112 147.46 195.596 148.753 201.069C150.046 206.541 155.533 209.93 161.009 208.638Z" fill="#1D2332"/>
<path d="M197.287 133.022C197.287 133.022 194.552 142.395 235.407 144.689C276.262 146.983 269.424 135.365 269.424 135.365L226.542 122.869L197.287 133.022Z" fill="#1D2332"/>
<path d="M243.837 279.391C242.738 279.342 247.574 303.651 247.574 303.651L237.219 304.871L231.603 277.511L243.837 279.391Z" fill="white"/>
<path d="M237.241 305.677C236.85 305.677 236.533 305.408 236.46 305.042L230.843 277.682C230.794 277.414 230.867 277.145 231.038 276.974C231.209 276.779 231.478 276.681 231.747 276.73L243.981 278.585C244.396 278.658 244.714 279.024 244.665 279.464C244.64 279.61 244.592 279.757 244.518 279.879C244.347 281.709 246.374 293.254 248.401 303.505C248.45 303.724 248.401 303.944 248.255 304.139C248.132 304.31 247.913 304.432 247.693 304.456L237.339 305.677C237.29 305.677 237.265 305.677 237.241 305.677ZM232.626 278.487L237.876 303.968L246.618 302.919C246.252 301.088 245.373 296.549 244.567 292.009C243.224 284.467 242.858 281.392 242.882 280.025L232.626 278.487Z" fill="#1D2332"/>
<path d="M252.184 312.218C251.305 306.995 249.962 299.966 248.814 298.526C246.958 296.207 241.927 301.284 241.927 301.284C241.927 301.284 239.632 293.766 234.65 294.767C230.914 295.524 218.313 304.652 211.671 311.925C209.497 314.293 211.207 318.124 214.43 318.124H247.178C250.328 318.124 252.697 315.318 252.184 312.218Z" fill="#00AF9D"/>
<path d="M248.813 313.292H216.285C215.846 313.292 215.479 312.925 215.479 312.486C215.479 312.047 215.846 311.681 216.285 311.681H248.813C249.253 311.681 249.619 312.047 249.619 312.486C249.619 312.925 249.253 313.292 248.813 313.292Z" fill="white"/>
<path d="M287.038 281.075L298.857 304.53L305.475 303.846L299.59 278.731L287.038 281.075Z" fill="white"/>
<path d="M298.858 305.335C298.565 305.335 298.272 305.164 298.126 304.896L286.282 281.441C286.16 281.221 286.16 280.953 286.282 280.708C286.404 280.489 286.599 280.318 286.868 280.269L299.445 277.926C299.884 277.853 300.275 278.121 300.372 278.536L306.258 303.651C306.307 303.871 306.258 304.115 306.136 304.31C305.989 304.505 305.794 304.627 305.55 304.652L298.932 305.335C298.907 305.335 298.883 305.335 298.858 305.335ZM288.236 281.66L299.347 303.651L304.499 303.114L299.005 279.635L288.236 281.66Z" fill="#1D2332"/>
<path d="M299.807 301.039C299.807 301.039 303.177 295.914 308.671 299.819C308.671 299.819 316.73 317.88 318.366 331.841C318.83 335.795 314.361 338.431 311.113 336.161C303.494 330.84 291.894 320.467 287.181 304.432C287.181 304.432 290.625 298.843 294.874 296.768L299.807 301.039Z" fill="#00AF9D"/>
<path d="M315.438 333.574H315.413C314.876 333.549 301.909 332.744 289.137 305.75C288.942 305.335 289.113 304.871 289.528 304.676C289.943 304.481 290.407 304.651 290.602 305.066C302.959 331.182 315.364 331.963 315.486 331.963C315.926 331.987 316.268 332.353 316.268 332.793C316.219 333.232 315.877 333.574 315.438 333.574Z" fill="white"/>
<path d="M284.888 285.004L304.742 284.345L277.66 177.37C273.313 160.236 266.28 143.908 256.805 128.995L215.315 128.971C215.315 128.971 200.003 187.376 228.062 283.466H248.819C248.819 283.466 240.736 195.797 241.396 170.584C241.396 170.56 260.907 242.585 284.888 285.004Z" fill="#1D2332"/>
<path d="M243.218 180C242.889 180 242.56 179.784 242.466 179.481L235.531 156.796L230.548 155.39C230.148 155.282 229.913 154.871 230.031 154.504C230.148 154.136 230.595 153.92 230.995 154.028L236.401 155.542C236.66 155.607 236.848 155.801 236.918 156.039L244 179.5C244 180 243.853 179.87 243.43 179.978C243.359 180 243.289 180 243.218 180Z" fill="white"/>
<path d="M137.019 59.9238L152.355 68.1978C152.355 68.1978 161.757 92.7023 175.212 94.1667C188.668 95.6311 201.977 77.0331 201.977 77.0331L210.915 96.1437C210.915 96.1437 197.801 116.401 176.995 113.155C156.189 109.885 150.523 78.6683 150.523 78.6683C150.523 78.6927 145.591 79.1565 143.735 74.3483C142.147 70.2724 142.807 67.8561 142.807 67.8561C142.807 67.8561 135.432 63.9022 137.019 59.9238Z" fill="white"/>
<path d="M181.462 114.302C179.973 114.302 178.434 114.18 176.871 113.936C157.237 110.861 150.864 84.2574 149.863 79.4736C149.643 79.4736 149.399 79.4492 149.13 79.4004C147.445 79.1807 144.417 78.2777 143 74.6166C141.804 71.517 141.828 69.2959 141.95 68.2464C140.192 67.1969 134.698 63.5603 136.285 59.6064C136.358 59.3867 136.554 59.2159 136.749 59.1427C136.969 59.0695 137.213 59.0938 137.408 59.1915L152.744 67.4654C152.915 67.563 153.037 67.7095 153.11 67.8803C153.208 68.1244 162.488 91.9455 175.308 93.3367C188.129 94.7523 201.194 76.7156 201.34 76.5448C201.511 76.3007 201.78 76.1787 202.073 76.2031C202.366 76.2275 202.61 76.3983 202.732 76.6668L211.67 95.7774C211.792 96.0215 211.768 96.3144 211.621 96.5584C211.45 96.7781 199.875 114.302 181.462 114.302ZM150.522 77.8384C150.571 77.8384 150.62 77.8384 150.644 77.8384C150.986 77.8872 151.255 78.1556 151.303 78.4973C151.352 78.8146 157.115 109.201 177.091 112.325C195.626 115.23 208.056 98.7306 209.961 96.0459L201.804 78.5706C198.654 82.6221 187.103 96.2411 175.113 94.9476C161.951 93.5076 152.842 71.639 151.694 68.7346L137.604 61.1196C137.701 63.5847 141.535 66.1963 143.196 67.0993C143.538 67.2702 143.684 67.6607 143.587 68.0268C143.587 68.0512 143.025 70.2722 144.49 74.0065C146.053 78.058 150.107 77.8384 150.375 77.814C150.424 77.8384 150.473 77.8384 150.522 77.8384Z" fill="#1D2332"/>
<path d="M150.964 76.862C150.891 76.862 150.793 76.862 150.72 76.8376C150.573 76.7888 147.35 75.7637 146.959 72.9081C146.812 71.8342 146.177 71.0044 145.64 70.4918C144.786 69.6376 144.322 68.5149 144.322 67.3189V66.7332C144.322 66.4647 144.444 66.2206 144.688 66.0742C144.908 65.9277 145.201 65.9033 145.445 66.001L150.622 68.0511C151.037 68.222 151.232 68.6857 151.062 69.1006C150.891 69.5156 150.427 69.7108 150.011 69.54L146.007 67.9535C146.129 68.4905 146.397 68.9786 146.788 69.3691C147.472 70.0525 148.351 71.1996 148.546 72.7129C148.815 74.5678 151.159 75.3244 151.184 75.3244C151.599 75.4464 151.843 75.9102 151.721 76.3251C151.623 76.618 151.306 76.862 150.964 76.862Z" fill="#1D2332"/>
<path d="M254.431 97.2661C254.431 97.2661 263.881 118.524 279.315 122.869C294.724 127.213 305.469 114.082 305.396 100.537L300.145 98.8037C300.145 98.8037 294.773 112.691 282.758 109.079C270.768 105.467 265.2 77.228 265.2 77.228L254.431 97.2661Z" fill="white"/>
<path d="M285.253 124.553C283.373 124.553 281.322 124.285 279.099 123.675C263.495 119.281 254.093 98.5111 253.702 97.6324C253.605 97.4128 253.605 97.1443 253.727 96.9246L264.52 76.8866C264.691 76.5937 265.009 76.4228 265.351 76.4717C265.693 76.5205 265.961 76.7889 266.035 77.1062C266.083 77.3747 271.651 104.906 283.031 108.347C294.167 111.691 299.222 99.0968 299.417 98.5599C299.563 98.1694 300.003 97.9497 300.418 98.0962L305.669 99.829C305.986 99.9267 306.23 100.244 306.23 100.586C306.279 108.542 302.689 116.206 296.902 120.624C294.289 122.552 290.406 124.553 285.253 124.553ZM255.338 97.2907C256.657 100.073 265.741 118.207 279.539 122.088C287.182 124.236 292.677 121.746 295.9 119.281C301.151 115.279 304.448 108.371 304.594 101.123L300.614 99.8046C299.27 102.685 293.507 113.155 282.567 109.86C272.091 106.712 266.499 86.3076 264.911 79.5469L255.338 97.2907Z" fill="#1D2332"/>
<path d="M197.297 76.765C197.297 76.765 206.772 64.3907 233.561 66.7093C265.552 69.4673 267.994 75.7887 267.994 75.7887L259.642 92.7027L269.435 135.39C269.435 135.39 262.744 140.931 247.066 137.831C231.388 134.731 204.428 130.899 197.297 133.047L207.236 92.3122L197.297 76.765Z" fill="#4F5865"/>
<path d="M300.145 116.742H258.948L285.957 67.8311H327.178L300.145 116.742Z" fill="#00AF9D"/>
<path d="M300.148 117.548H258.927C258.634 117.548 258.365 117.402 258.243 117.158C258.096 116.914 258.096 116.596 258.243 116.352L285.276 67.4408C285.423 67.1723 285.691 67.0259 285.984 67.0259H327.206C327.499 67.0259 327.767 67.1723 327.889 67.4164C328.036 67.6605 328.036 67.9777 327.889 68.2218L300.856 117.133C300.71 117.402 300.441 117.548 300.148 117.548ZM260.319 115.937H299.684L325.814 68.6367H286.448L260.319 115.937Z" fill="#1D2332"/>
<path d="M301.092 115.205C301.092 115.205 300.311 111.154 301.092 108.445C301.874 105.736 306.66 97.6813 308.052 95.9973C309.42 94.3132 310.567 112.301 301.092 115.205Z" fill="white"/>
<path d="M301.097 116.011C300.95 116.011 300.804 115.962 300.681 115.889C300.486 115.767 300.34 115.572 300.315 115.352C300.291 115.181 299.509 111.081 300.34 108.225C301.121 105.467 305.981 97.2908 307.446 95.5091C307.812 95.0698 308.276 95.0453 308.594 95.1674C309.693 95.5823 309.863 98.3403 309.79 100.586C309.595 106.834 307.299 114.18 301.365 115.986C301.268 116.011 301.17 116.011 301.097 116.011ZM308.008 97.4372C306.176 100.122 302.513 106.443 301.878 108.664C301.39 110.397 301.585 112.789 301.756 114.107C303.954 113.106 305.639 111.056 306.787 108.005C308.301 103.856 308.276 99.3898 308.008 97.4372Z" fill="#1D2332"/>
<path d="M156.486 28.4388C151.284 31.6117 150.478 37.6402 150.405 38.1527C149.599 45.0111 154.459 52.0891 159.807 53.163C164.373 54.066 165.936 49.8924 171.651 50.1853C178.024 50.4782 178.659 55.7989 184.74 57.1169C193.702 59.0938 197.365 48.6721 207.67 49.3799C215.607 49.9413 216.633 56.3358 225.277 56.4335C226.254 56.4335 233.995 56.3847 239.148 50.405C244.325 44.4009 244.447 35.2727 240.613 29.1954C240.223 28.5608 235.998 22.0686 230.43 22.2394C226.938 22.337 226.23 24.9486 222.909 24.8998C217.78 24.8021 216.755 18.554 212.261 18.3099C207.06 18.017 205.912 26.2177 198.928 27.3649C193.653 28.2435 192.164 23.9235 186.498 24.9242C180.637 25.9493 180.344 30.9283 175.363 31.0747C170.601 31.2212 169.282 26.7303 163.104 26.6815C161.809 26.6327 159.123 26.8279 156.486 28.4388Z" fill="#1D2332"/>
<path d="M250.55 52.9434C250.916 52.382 249.207 49.3312 249.158 48.2084C249.109 47.0857 249.964 46.1583 250.33 45.0112C250.697 43.8396 250.281 41.765 250.281 41.765C249.793 27.8531 234.628 31.148 234.628 31.148C231.136 32.1975 229.085 36.1026 228.425 38.7142C227.131 43.742 229.524 49.8437 229.524 49.8437C229.427 50.0634 226.936 66.3672 226.814 66.5868C225.226 69.6133 235.8 71.5903 239.121 68.5394C240.245 67.5143 238.804 59.9482 239.121 59.9238C240.367 59.8993 241.881 61.2173 243.468 60.8024C245.788 60.1922 247.522 54.4078 247.839 53.9685C247.986 53.7732 248.523 53.6512 249.085 53.5292C249.72 53.3827 250.379 53.2363 250.55 52.9434Z" fill="white"/>
<path d="M233.798 70.8579C231.112 70.8579 228.353 70.1501 226.985 69.1006C225.935 68.2952 225.618 67.2701 226.082 66.2939C226.204 65.6349 226.912 61.2172 227.474 57.6538C228.304 52.3087 228.597 50.5514 228.719 49.9168C228.279 48.7209 226.448 43.2537 227.669 38.5188C228.304 36.0537 230.428 31.5872 234.433 30.3913C234.458 30.3913 234.482 30.3913 234.507 30.3669C234.824 30.2937 242.15 28.7561 247.034 32.5391C249.598 34.5405 250.99 37.6157 251.137 41.6673C251.21 42.0822 251.528 44.0104 251.137 45.2307C250.966 45.7433 250.746 46.207 250.526 46.6219C250.233 47.2077 249.965 47.6958 249.989 48.1595C250.014 48.5256 250.38 49.4287 250.673 50.1609C251.357 51.8694 251.674 52.7236 251.259 53.3582C250.893 53.944 250.087 54.1148 249.305 54.3101C249.012 54.3833 248.67 54.4565 248.499 54.5297C248.426 54.6762 248.329 54.969 248.231 55.2131C247.425 57.2389 245.911 60.9976 243.713 61.5833C242.541 61.9006 241.442 61.4613 240.563 61.1196C240.368 61.0464 240.172 60.9731 240.001 60.8999C240.026 61.1928 240.074 61.5345 240.099 61.8762C240.563 66.1474 240.612 68.3196 239.733 69.125C238.341 70.3454 236.094 70.8579 233.798 70.8579ZM230.306 50.0633C230.209 50.4782 229.598 54.4077 229.061 57.8979C227.669 66.7332 227.669 66.7576 227.547 66.9528C227.474 67.0993 227.327 67.3678 227.962 67.8315C229.989 69.3935 236.363 70.0037 238.609 67.9291C239.024 67.2945 238.609 63.4871 238.463 62.0226C238.243 60.0457 238.219 59.7284 238.536 59.3867C238.683 59.2159 238.902 59.1182 239.147 59.0938C239.83 59.0694 240.49 59.3379 241.149 59.582C241.906 59.8748 242.639 60.1677 243.298 59.9969C244.714 59.6308 246.18 55.9697 246.741 54.5785C247.034 53.8707 247.132 53.6267 247.254 53.4558C247.596 53.0165 248.182 52.8945 248.915 52.7236C249.159 52.6748 249.574 52.5772 249.794 52.4795C249.696 52.0646 249.379 51.2592 249.159 50.7467C248.768 49.7704 248.402 48.8673 248.377 48.2328C248.328 47.3297 248.719 46.5731 249.086 45.8653C249.281 45.4748 249.476 45.1087 249.598 44.7426C249.843 43.9615 249.623 42.3751 249.525 41.887C249.525 41.8381 249.501 41.8137 249.501 41.7649C249.379 38.1771 248.206 35.4924 246.033 33.7839C241.906 30.5622 235.337 31.8069 234.849 31.9045C231.576 32.9296 229.769 36.7615 229.232 38.8849C228.011 43.5954 230.282 49.4531 230.306 49.5019C230.355 49.6972 230.355 49.8924 230.306 50.0633Z" fill="#1D2332"/>
<path d="M256.635 32.0754C255.121 30.5378 253.559 32.0754 247.502 31.2211C242.472 30.5133 241.007 29.0978 237.197 29.7323C236.122 29.9032 234.218 30.2205 232.313 31.6116C229.505 33.6618 228.479 36.5418 227.917 38.6896C226.843 42.8876 228.186 47.769 228.796 49.5995C228.943 50.0633 229.383 50.3317 229.871 50.3073C231.141 50.2097 232.264 50.0389 233.265 49.8192C233.754 49.7216 234.022 49.209 233.827 48.7697C233.778 48.6477 233.729 48.5256 233.705 48.3792C233.192 46.6219 234.047 44.8158 235.585 44.3765C237.124 43.9371 238.784 45.011 239.297 46.7683C239.322 46.8904 239.37 47.0124 239.37 47.1344C241.593 45.4504 242.74 43.5466 244.792 42.5215C245.036 42.3995 246.11 41.9114 247.771 41.8381C251.336 41.7161 252.533 43.8395 254.218 43.4246C257.222 42.6924 259.395 34.8334 256.635 32.0754Z" fill="#1D2332"/>
<path d="M239.513 60.729C239.44 60.729 239.342 60.729 239.269 60.6802C233.652 58.9229 232.798 55.1642 232.749 55.0178C232.651 54.5785 232.92 54.1635 233.359 54.0659C233.799 53.9683 234.214 54.2368 234.312 54.6761C234.336 54.8225 235.093 57.6781 239.733 59.1426C240.148 59.2646 240.392 59.7283 240.27 60.1432C240.173 60.5093 239.855 60.729 239.513 60.729Z" fill="#1D2332"/>
</svg>
