<svg width="356" height="360" viewBox="0 0 356 360" fill="none" xmlns="http://www.w3.org/2000/svg">
<g clip-path="url(#clip0_3749_4241)">
<path d="M323.5 439L431 253.501L323.5 68H108.5L1 253.501L108.5 439H323.5Z" fill="#E3E3E3"/>
<mask id="mask0_3749_4241" style="mask-type:luminance" maskUnits="userSpaceOnUse" x="-202" y="0" width="636" height="360">
<path d="M433.743 0H-201.738V360H433.743V0Z" fill="white"/>
</mask>
<g mask="url(#mask0_3749_4241)">
<g opacity="0.7">
<path d="M333.656 190.569L332.656 187.197C337.028 183.075 340.526 178.953 342.899 175.205L343.898 178.578C341.525 182.45 338.152 186.447 333.656 190.569ZM331.157 182.2L330.158 178.828C336.903 172.457 341.275 166.462 343.274 160.966L344.273 164.338C342.399 169.834 337.903 175.83 331.157 182.2ZM302.053 214.677L295.683 193.317C297.681 192.193 299.555 191.069 301.429 189.945L307.799 211.304C305.926 212.304 304.052 213.428 302.053 214.677ZM328.659 173.831L327.66 170.459C336.529 162.09 341.4 154.345 341.9 147.725L342.899 151.098C342.399 157.718 337.528 165.462 328.659 173.831ZM292.935 219.673L284.691 192.193C286.814 191.069 288.938 189.945 290.936 188.696L299.18 216.176C297.182 217.425 295.058 218.549 292.935 219.673ZM326.161 165.337L325.162 161.965C331.282 156.219 335.529 150.723 337.653 145.726L338.652 149.099C336.529 154.095 332.282 159.592 326.161 165.337ZM317.917 204.559L308.549 173.207C310.173 172.083 311.671 170.958 313.17 169.834L322.539 201.187C321.04 202.436 319.541 203.435 317.917 204.559ZM324.537 199.813L313.295 162.34C314.669 161.215 316.043 160.091 317.417 159.092L328.659 196.565C327.285 197.564 325.911 198.688 324.537 199.813ZM323.663 156.968L322.664 153.596C330.783 145.976 335.529 138.856 336.653 132.611L337.653 135.983C336.529 142.229 331.782 149.349 323.663 156.968ZM310.422 209.556L298.181 168.46C299.93 167.336 301.679 166.212 303.427 165.088L315.669 206.183C313.92 207.307 312.171 208.431 310.422 209.556ZM351.143 175.08L332.531 113L332.656 113.375C332.531 120.994 329.908 128.489 325.037 134.36C313.295 148.474 288.813 164.838 253.713 180.826C249.716 182.575 245.719 184.324 241.722 186.072L260.333 248.153C264.455 246.404 268.452 244.655 272.325 242.907C298.681 230.915 318.916 218.799 332.407 207.557L330.533 201.436C337.653 195.441 342.899 189.695 346.147 184.324L348.02 190.444C351.393 184.698 352.517 179.577 351.143 175.08Z" fill="white"/>
<path d="M346.271 184.199C343.024 189.57 337.777 195.316 330.657 201.311L332.531 207.432L340.026 232.414C347.146 226.418 352.392 220.673 355.64 215.301L348.145 190.319L346.271 184.199Z" fill="white"/>
<path d="M291.06 188.82C289.061 189.945 286.938 191.069 284.814 192.318L293.058 219.798C295.182 218.674 297.305 217.55 299.304 216.301L291.06 188.82Z" fill="#00AF9D"/>
<path d="M301.428 189.82C299.554 190.944 297.681 192.068 295.682 193.192L302.053 214.552C304.051 213.428 305.925 212.304 307.798 211.179L301.428 189.82Z" fill="#00AF9D"/>
<path d="M303.296 165.212C301.672 166.337 299.924 167.461 298.05 168.585L310.291 209.68C312.04 208.556 313.789 207.432 315.537 206.308L303.296 165.212Z" fill="#00AF9D"/>
<path d="M313.171 169.834C311.672 170.958 310.173 172.082 308.549 173.207L317.917 204.559C319.541 203.435 321.04 202.311 322.539 201.186L313.171 169.834Z" fill="#00AF9D"/>
<path d="M317.416 159.092C316.167 160.216 314.793 161.215 313.294 162.339L324.536 199.813C325.91 198.688 327.284 197.564 328.658 196.565L317.416 159.092Z" fill="#00AF9D"/>
<path d="M336.655 132.611C335.405 138.856 330.659 145.976 322.665 153.596L323.664 156.968C331.783 149.349 336.53 142.229 337.654 135.983L336.655 132.611Z" fill="#00AF9D"/>
<path d="M337.653 145.727C335.404 150.723 331.282 156.219 325.162 161.965L326.161 165.337C332.281 159.592 336.528 154.096 338.652 149.099L337.653 145.727Z" fill="#00AF9D"/>
<path d="M341.898 147.6C341.399 154.22 336.527 161.965 327.658 170.334L328.658 173.706C337.526 165.337 342.398 157.593 342.898 150.973L341.898 147.6Z" fill="#00AF9D"/>
<path d="M343.271 160.966C341.272 166.462 336.9 172.458 330.155 178.828L331.155 182.201C337.9 175.83 342.272 169.834 344.27 164.338L343.271 160.966Z" fill="#00AF9D"/>
<path d="M342.9 175.206C340.526 179.078 337.029 183.075 332.657 187.197L333.656 190.57C338.028 186.447 341.526 182.325 343.899 178.578L342.9 175.206Z" fill="#00AF9D"/>
<path d="M66.4702 239.659C53.7294 239.784 42.4874 238.909 33.369 236.786C29.8715 236.037 26.7488 235.037 24.0007 233.913L25.8744 240.159C25.2498 239.909 24.6253 239.659 24.0007 239.284L34.4932 274.634C37.6159 276.133 41.3632 277.382 45.7351 278.381C52.1055 279.88 59.4752 280.754 67.5944 281.004C59.4752 280.63 52.1055 279.755 45.7351 278.381C41.3632 277.382 37.6159 276.133 34.4932 274.634L32.7444 268.888C33.9935 269.887 34.3683 269.887 34.743 270.012C35.1177 268.263 35.3675 267.389 32.3697 255.398C29.6217 244.655 29.122 241.782 29.9964 240.034C32.4946 239.784 34.3683 244.905 38.1156 256.522C41.8629 268.388 43.6116 273.135 46.2347 272.76C46.9842 271.511 47.1091 270.262 45.2355 261.643C43.4867 253.524 43.3618 251.9 44.1113 250.401C46.3597 249.902 47.8586 253.399 50.9813 262.393C54.1041 271.386 55.7279 275.133 57.9763 274.259C58.8507 272.261 58.6009 270.512 56.4774 260.269C51.9806 238.16 59.2254 245.904 62.598 254.149C64.5965 259.02 66.0955 264.016 68.2189 268.888C70.4673 268.888 72.8406 268.888 75.2139 268.888L66.4702 239.659Z" fill="white"/>
<path d="M30.7443 240.034C30.4945 240.034 30.2447 240.034 30.1198 240.159C29.2454 241.782 29.745 244.78 32.4931 255.523C34.9913 265.39 35.2411 267.639 35.1162 270.012C34.9913 270.012 34.9913 270.137 34.8663 270.137C34.6165 270.137 34.1169 270.012 32.8678 269.013L34.6165 274.759C37.7393 276.258 41.4866 277.507 45.8585 278.506C52.2289 280.005 59.5986 280.879 67.7178 281.129L64.0954 269.013C65.4694 269.013 66.9683 269.138 68.3423 269.138C65.5943 262.767 64.2203 255.897 60.5979 249.902C56.8506 243.781 55.2267 247.403 55.2267 247.528C54.3524 249.777 55.8513 256.897 56.6008 260.644C58.7242 270.887 58.8491 272.76 58.0997 274.634C55.8513 275.508 54.2274 271.636 51.1047 262.767C47.9819 253.774 46.483 250.151 44.2346 250.776C43.4852 252.275 43.6101 253.774 45.3588 262.018C47.2325 270.637 47.1076 271.886 46.3581 273.135C43.8599 273.51 41.9862 268.763 38.2389 256.897C35.7407 249.277 32.8678 240.284 30.7443 240.034Z" fill="#00AF9D"/>
<path d="M152.533 207.058C151.409 207.307 150.16 207.682 149.036 207.932L159.528 243.157C160.653 242.907 161.777 242.657 163.026 242.282L152.533 207.058Z" fill="#00AF9D"/>
<path d="M163.779 213.178C162.655 213.428 161.405 213.802 160.281 214.052L168.275 241.033C169.4 240.783 170.649 240.408 171.773 240.158L163.779 213.178Z" fill="#00AF9D"/>
<path d="M168.897 198.813C167.773 199.188 166.524 199.438 165.4 199.813L177.016 238.785C178.141 238.41 179.39 238.16 180.514 237.785L168.897 198.813Z" fill="#00AF9D"/>
<path d="M176.393 191.693C175.268 192.068 174.019 192.318 172.895 192.693L185.886 236.161C187.01 235.787 188.259 235.537 189.383 235.162L176.393 191.693Z" fill="#00AF9D"/>
<path d="M192.507 214.052C191.383 214.427 190.134 214.802 189.01 215.176L194.506 233.663C195.63 233.288 196.879 232.914 198.003 232.539L192.507 214.052Z" fill="#00AF9D"/>
<path d="M195.751 192.693C194.626 193.068 193.377 193.442 192.253 193.817L203.37 230.915C204.494 230.541 205.743 230.166 206.868 229.791L195.751 192.693Z" fill="#00AF9D"/>
<path d="M207.24 199.063C206.116 199.438 204.867 199.812 203.743 200.187L211.987 227.917C213.111 227.543 214.36 227.168 215.484 226.793L207.24 199.063Z" fill="#00AF9D"/>
<path d="M221.733 215.801C220.609 216.176 219.485 216.676 218.236 217.05L220.609 225.045C221.733 224.67 222.857 224.17 224.107 223.796L221.733 215.801Z" fill="#00AF9D"/>
<path d="M84.0805 268.763C81.0827 268.888 78.0848 269.013 75.2119 269.013C72.8386 269.013 70.4653 269.013 68.2169 269.013C66.718 269.013 65.344 268.888 63.97 268.888L67.5924 281.004L69.3411 286.875C72.3389 287 75.3368 287 78.4596 287L76.5859 280.755C80.0834 280.755 83.8307 280.63 87.578 280.505L84.0805 268.763Z" fill="white"/>
</g>
<path d="M238.007 78.4086C120.414 74.1488 164.694 39.0614 118.284 36.5952C36.0029 32.2233 26.4744 -7.57224 36.0029 -22.8179" stroke="#4F5865" stroke-width="2.11683" stroke-miterlimit="10" stroke-linecap="round"/>
<path d="M217.608 182.326C192.498 204.521 174.561 180.98 172.207 168.649C169.853 156.318 152.366 165.623 141.38 150.825C130.394 136.14 139.362 117.307 149.563 111.702C159.876 106.097 162.903 104.64 164.248 89.1703C164.36 87.3767 164.697 85.6952 165.257 84.2379C169.069 72.8037 182.409 69.2165 189.359 68.9923C197.206 68.656 199.672 53.9709 215.814 55.9887C231.957 58.0065 232.742 69.3286 232.742 69.3286C233.19 69.5528 233.526 69.777 233.863 70.1133C239.131 74.8215 240.925 89.8429 236.217 98.3625C236.217 98.3625 224.894 96.2326 234.871 105.873C244.848 115.626 242.831 160.13 217.608 182.326Z" fill="#1D2332"/>
<path opacity="0.28" d="M217.608 182.326C192.498 204.521 174.561 180.98 172.207 168.649C169.853 156.318 152.366 165.623 141.38 150.825C130.394 136.14 139.362 117.307 149.563 111.702C159.876 106.097 162.903 104.64 164.248 89.1703C164.36 87.3767 164.697 85.6952 165.257 84.2379C165.93 84.9105 166.49 85.8073 166.939 87.1525C172.319 104.64 153.038 109.797 157.971 111.702C162.903 113.608 160.101 119.774 147.545 128.742C134.99 137.71 144.294 149.144 160.101 151.274C175.795 153.404 156.177 137.261 179.83 129.526C203.483 121.791 184.426 115.065 195.076 98.5867L211.667 84.4621C211.667 84.4621 223.549 74.1489 233.863 70.1133C239.131 74.8215 240.925 89.8429 236.217 98.3625C236.217 98.3625 224.894 96.2326 234.871 105.873C244.848 115.626 242.831 160.13 217.608 182.326Z" fill="#1D2332"/>
<path d="M208.165 309.662L208.158 309.674L208.153 309.687C207.847 310.402 207.327 311.136 206.654 312.034C205.096 313.92 204.253 316.283 203.788 318.737C203.322 321.195 203.227 323.784 203.192 326.142C203.185 326.593 203.181 327.034 203.176 327.463C203.157 329.304 203.14 330.932 202.967 332.217C202.861 333.007 202.701 333.613 202.476 334.035C202.259 334.441 202.003 334.643 201.687 334.713C199.886 335.113 197.944 334.619 195.976 332.399C193.983 330.149 191.992 326.152 190.207 319.626C189.649 317.397 189.208 315.296 188.988 313.203L188.988 313.203L188.987 313.197C188.377 307.927 188.682 303.04 189.141 299.467C189.37 297.682 189.637 296.228 189.847 295.222C189.951 294.719 190.042 294.328 190.105 294.064C190.108 294.052 190.111 294.039 190.114 294.028C190.136 294.026 190.159 294.025 190.183 294.023C190.472 294.006 190.894 293.987 191.424 293.979C192.484 293.963 193.972 293.995 195.676 294.181C199.075 294.552 203.284 295.536 206.698 297.949C206.698 297.949 206.698 297.949 206.698 297.95C206.729 297.99 206.775 298.053 206.833 298.136C206.949 298.301 207.114 298.548 207.302 298.864C207.681 299.497 208.154 300.406 208.531 301.506C209.287 303.705 209.652 306.633 208.165 309.662Z" fill="#00AF9D" stroke="#1D2332" stroke-width="1.05841"/>
<path opacity="0.28" d="M203.357 305.876L207.991 310.027C207.677 310.637 207.219 311.278 206.652 312.034C205.094 313.921 204.251 316.283 203.786 318.737C203.319 321.195 203.225 323.785 203.19 326.142C203.183 326.593 203.178 327.034 203.174 327.464C203.155 329.304 203.138 330.932 202.965 332.217C202.858 333.007 202.699 333.613 202.474 334.035C202.257 334.441 202.001 334.643 201.684 334.714C199.884 335.114 197.942 334.62 195.974 332.399C193.98 330.15 191.99 326.152 190.204 319.626C189.722 317.697 189.327 315.864 189.086 314.049C193.168 315.277 198.373 313.199 203.357 305.876Z" fill="#1D2332" stroke="#1D2332" stroke-width="1.05841"/>
<path d="M296.549 285.697C297.627 288.157 305.483 306.076 307.774 318.62C308.331 321.854 308.543 324.696 308.221 326.737C307.29 332.209 304.572 336.971 298.765 339.712C292.919 342.471 283.861 343.222 270.175 340.429L270.174 340.429C256.455 337.64 240.223 330.687 227.395 324.414C220.987 321.28 215.439 318.32 211.493 316.144C209.52 315.056 207.948 314.165 206.87 313.545C206.331 313.235 205.915 312.994 205.634 312.83C205.498 312.75 205.393 312.688 205.322 312.646C203.415 309.461 203.4 305.385 203.907 302.015C204.161 300.322 204.543 298.834 204.862 297.769C205.022 297.237 205.165 296.812 205.268 296.52C205.285 296.472 205.301 296.427 205.316 296.386C210.219 296.061 220.41 296.878 229.52 297.797C234.168 298.266 238.516 298.76 241.701 299.136C243.294 299.324 244.597 299.483 245.5 299.595C245.952 299.651 246.305 299.695 246.544 299.725L246.816 299.759L246.886 299.768L246.903 299.77L246.908 299.771L246.909 299.771C246.909 299.771 246.909 299.771 246.976 299.246L246.909 299.771L248.051 299.917L247.418 298.955C234.92 279.956 226.101 264.847 221.473 250.502C216.856 236.194 216.406 222.632 220.685 206.714L220.685 206.714C220.695 206.691 220.711 206.656 220.732 206.609C220.775 206.516 220.841 206.376 220.932 206.196C221.113 205.835 221.392 205.312 221.781 204.669C222.559 203.385 223.774 201.628 225.518 199.753C229.004 196.006 234.602 191.783 243.054 189.905C251.542 188.074 259.85 188.627 266.046 189.644C269.142 190.152 271.705 190.774 273.492 191.269C274.386 191.517 275.085 191.732 275.559 191.886C275.797 191.962 275.978 192.023 276.099 192.065C276.122 192.073 276.143 192.08 276.162 192.087L276.177 192.103C276.245 192.174 276.346 192.282 276.479 192.423C276.744 192.706 277.136 193.125 277.639 193.67C278.646 194.761 280.101 196.356 281.892 198.371L281.895 198.375C294.683 212.508 325.249 247.109 338.895 269.367C345.063 279.46 354.034 293.701 363.228 307.828C371.636 320.945 380.072 333.977 386.405 343.73C389.572 348.607 392.214 352.663 394.064 355.501C394.989 356.92 395.716 358.034 396.211 358.794L396.777 359.66L396.802 359.699C395.972 361.234 394.525 362.95 392.769 364.687C390.918 366.517 388.756 368.339 386.691 369.957C384.627 371.575 382.667 372.984 381.222 373.989C380.5 374.491 379.907 374.892 379.496 375.167C379.424 375.215 379.358 375.259 379.298 375.299C379.261 375.324 379.226 375.347 379.194 375.368C363.186 360.913 341.117 339.823 330.45 326.934L330.449 326.932C319.808 314.163 298.067 285.811 297.396 284.916L296.444 283.646V285.234V285.346V285.456L296.488 285.558C296.505 285.597 296.525 285.643 296.549 285.697Z" fill="#4F5865" stroke="#1D2332" stroke-width="1.05841"/>
<path d="M263.793 193.087L279.935 226.493L282.29 241.963L258.749 193.76" stroke="white" stroke-width="0.79381" stroke-miterlimit="10"/>
<path d="M328.695 129.638C328.231 129.892 328.231 129.892 328.231 129.893L328.231 129.893L328.232 129.894L328.234 129.899L328.242 129.913C328.244 129.917 328.247 129.922 328.25 129.926C328.256 129.938 328.264 129.951 328.273 129.967C328.299 130.014 328.338 130.08 328.388 130.164C328.489 130.331 328.635 130.567 328.823 130.846C329.198 131.403 329.742 132.14 330.413 132.847C331.717 134.222 333.678 135.668 335.892 135.082C336.318 134.969 336.59 134.978 336.746 135.02C336.882 135.057 336.929 135.116 336.954 135.173C336.987 135.25 337.009 135.396 336.953 135.621C336.899 135.843 336.78 136.106 336.585 136.382C335.807 137.489 333.987 138.59 331.533 137.874C326.033 136.27 320.207 136.955 316.76 138.103C316.46 138.199 316.241 138.161 316.053 138.052C315.843 137.929 315.625 137.689 315.415 137.303C314.994 136.527 314.707 135.35 314.519 134.073C314.334 132.811 314.254 131.509 314.222 130.517C314.205 130.023 314.2 129.608 314.2 129.317C314.199 129.197 314.2 129.098 314.2 129.024C317.829 123.888 320.87 121.398 323.473 120.243C326.083 119.084 328.318 119.237 330.418 119.513C332.093 119.74 333.889 120.583 335.71 121.439C336.034 121.591 336.36 121.744 336.685 121.894C337.738 122.378 338.792 122.827 339.785 123.08C340.776 123.332 341.767 123.406 342.667 123.072C342.996 122.95 343.149 122.972 343.189 122.985C343.19 122.985 343.192 122.986 343.193 122.986C343.195 122.992 343.2 123.004 343.204 123.024C343.221 123.11 343.213 123.281 343.121 123.534C343.032 123.778 342.877 124.062 342.651 124.356C341.75 125.533 339.85 126.714 337.223 126.096C334.202 125.386 331.952 126.186 330.461 127.18C329.721 127.673 329.172 128.211 328.807 128.627C328.624 128.835 328.486 129.014 328.393 129.142C328.346 129.207 328.311 129.259 328.286 129.296C328.273 129.315 328.264 129.33 328.257 129.341L328.248 129.354L328.246 129.358L328.245 129.36L328.244 129.36C328.244 129.361 328.244 129.361 328.695 129.638ZM328.695 129.638L328.244 129.361L328.083 129.623L328.231 129.892L328.695 129.638Z" fill="white" stroke="#1D2332" stroke-width="1.05841"/>
<path d="M142.834 266.401C142.346 266.195 142.346 266.195 142.346 266.196L142.346 266.196L142.346 266.197L142.344 266.2L142.34 266.211L142.324 266.25C142.31 266.284 142.291 266.333 142.267 266.395C142.219 266.519 142.153 266.696 142.081 266.91C141.991 267.174 141.89 267.499 141.797 267.854C141.498 268.699 141.088 269.767 140.603 270.8C140.084 271.908 139.497 272.938 138.892 273.615C138.264 274.318 137.793 274.462 137.429 274.318C136.963 274.123 136.669 273.724 136.523 273.075C136.372 272.408 136.397 271.535 136.547 270.529C136.591 270.234 136.646 269.932 136.708 269.626C136.98 269.092 137.21 268.447 137.4 267.814C137.658 266.951 137.858 266.058 137.993 265.384C138.061 265.046 138.112 264.761 138.147 264.56C138.165 264.46 138.178 264.38 138.187 264.325L138.197 264.262L138.2 264.246L138.2 264.241L138.2 264.24L138.2 264.239C138.2 264.239 138.201 264.239 137.677 264.159L138.201 264.239L137.171 264.005C137.095 264.257 137.014 264.519 136.93 264.791C136.51 266.156 136.02 267.75 135.702 269.265C135.648 269.364 135.593 269.455 135.537 269.536C135.381 269.766 135.257 269.866 135.184 269.899C135.151 269.914 135.124 269.926 135.043 269.875C134.81 269.729 134.613 269.384 134.562 268.719C134.512 268.073 134.611 267.247 134.829 266.342C135.13 265.089 135.642 263.753 136.211 262.642C136.429 262.332 136.617 262.019 136.756 261.772C136.842 261.621 136.91 261.492 136.957 261.4C136.981 261.355 136.999 261.318 137.012 261.292L137.027 261.262L137.031 261.254L137.032 261.251L137.033 261.25L137.033 261.25C137.033 261.25 137.033 261.25 136.556 261.02L137.033 261.25L136.122 260.718C135.844 261.117 135.568 261.582 135.305 262.089C135.278 262.127 135.251 262.164 135.223 262.2C134.974 262.53 134.737 262.769 134.547 262.876C134.494 262.906 134.457 262.919 134.434 262.924C134.435 262.918 134.436 262.912 134.436 262.905C134.454 262.754 134.509 262.525 134.613 262.212C134.818 261.594 135.183 260.742 135.681 259.708C136.674 257.646 138.165 254.92 139.871 252.011C143.287 246.188 147.529 239.689 150.303 236.36C151.658 234.734 152.881 233.974 153.922 233.695C154.954 233.419 155.867 233.6 156.644 233.976C157.43 234.356 158.071 234.934 158.521 235.431C158.745 235.678 158.917 235.899 159.032 236.057C159.046 236.077 159.06 236.095 159.072 236.113C157.509 241.701 159.059 247.239 160.753 251.639C161.183 252.759 161.626 253.811 162.032 254.773L162.057 254.833C162.454 255.775 162.813 256.625 163.094 257.378C163.384 258.152 163.581 258.794 163.659 259.307C163.74 259.833 163.68 260.125 163.578 260.282C163.417 260.528 163.282 260.601 163.191 260.624C163.093 260.649 162.947 260.642 162.721 260.539C162.245 260.321 161.665 259.794 160.984 259.084C160.769 258.86 160.544 258.619 160.314 258.371C159.853 257.875 159.369 257.355 158.9 256.909C158.204 256.249 157.424 255.633 156.623 255.458L156.331 255.395L156.126 255.612L156.51 255.975C156.126 255.612 156.126 255.612 156.126 255.612L156.125 255.612L156.125 255.613L156.121 255.617L156.108 255.63L156.058 255.683C156.015 255.73 155.951 255.799 155.868 255.887C155.704 256.064 155.467 256.32 155.177 256.638C154.596 257.275 153.801 258.162 152.942 259.162C151.235 261.148 149.242 263.621 148.204 265.466C147.191 267.21 146.206 268.846 145.264 269.936C144.792 270.483 144.364 270.852 143.984 271.039C143.626 271.215 143.34 271.219 143.071 271.084C142.832 270.965 142.669 270.722 142.6 270.29C142.53 269.852 142.574 269.306 142.681 268.742C142.719 268.545 142.763 268.35 142.811 268.164C142.825 268.124 142.838 268.085 142.852 268.047C143.007 267.603 143.129 267.231 143.213 266.968C143.254 266.837 143.286 266.733 143.308 266.662L143.333 266.58L143.339 266.558L143.341 266.552L143.342 266.551L143.342 266.55C143.342 266.55 143.342 266.55 142.834 266.401ZM142.834 266.401L142.346 266.195L143.342 266.55L142.834 266.401Z" fill="white" stroke="#1D2332" stroke-width="1.05841"/>
<path d="M271.275 183.566C266.602 174.015 262.112 161.436 261.049 158.458C260.936 158.142 260.862 157.934 260.831 157.849L261.675 157.265C261.723 157.308 261.811 157.388 261.934 157.501C262.982 158.457 266.615 161.774 271.132 164.761C273.656 166.43 276.437 167.981 279.175 168.957C281.92 169.934 284.569 170.313 286.862 169.707L286.866 169.706C288.2 169.366 289.825 168.486 291.653 167.18C293.473 165.88 295.458 164.184 297.508 162.253C301.607 158.39 305.937 153.615 309.687 149.249C312.541 145.892 315.031 142.814 316.808 140.576C317.696 139.456 318.406 138.547 318.893 137.918C319.137 137.604 319.325 137.359 319.452 137.193C319.463 137.18 319.472 137.167 319.482 137.155C318.696 134.626 317.192 132.069 315.885 130.115C315.213 129.11 314.599 128.273 314.17 127.691L314.142 127.653C314.023 127.49 313.916 127.345 313.827 127.222L284.462 144.444L284.192 144.602L283.924 144.442L284.194 143.987C283.924 144.442 283.924 144.442 283.924 144.442L283.923 144.442L283.922 144.441L283.919 144.439L283.907 144.432L283.862 144.405C283.823 144.381 283.765 144.345 283.687 144.296C283.532 144.198 283.298 144.048 282.982 143.838C282.35 143.419 281.388 142.759 280.058 141.796C277.4 139.868 273.271 136.722 267.379 131.84C261.468 126.989 255.228 123.059 248.194 121.096C241.17 119.137 233.319 119.13 224.164 122.181L224.063 122.215L271.275 183.566ZM271.275 183.566C272.761 186.636 274.255 189.376 275.605 191.389C275.339 191.409 275.019 191.433 274.65 191.461C273.441 191.556 271.7 191.706 269.571 191.923C265.313 192.359 259.499 193.068 253.275 194.164C247.054 195.259 240.411 196.743 234.502 198.73C228.868 200.625 223.847 202.995 220.501 205.961L197.417 172.274L196.954 171.598L196.528 172.298L196.981 172.573C196.528 172.298 196.528 172.298 196.528 172.298L196.528 172.299L196.526 172.302L196.519 172.314L196.491 172.359L196.384 172.536C196.29 172.691 196.152 172.92 195.975 173.215C195.62 173.805 195.109 174.658 194.483 175.711C193.232 177.818 191.52 180.729 189.683 183.941C186.014 190.355 181.822 198.005 179.789 202.86C177.773 207.678 173.598 217.456 169.926 226.033C168.091 230.32 166.381 234.307 165.131 237.221C164.505 238.678 163.995 239.868 163.641 240.693L163.244 241.615M271.275 183.566L163.244 241.615M163.244 241.615C163.188 241.608 163.126 241.601 163.059 241.592C162.689 241.546 162.154 241.475 161.497 241.378C160.184 241.185 158.388 240.889 156.454 240.478C154.519 240.068 152.454 239.544 150.602 238.897C148.896 238.302 147.407 237.614 146.363 236.838C146.38 236.784 146.398 236.724 146.418 236.658C146.523 236.312 146.678 235.803 146.874 235.151C147.267 233.848 147.827 231.97 148.5 229.672M163.244 241.615L148.5 229.672M148.5 229.672C151.863 218.684 158.249 198.07 162.953 184.744C166.307 175.296 171.423 163.472 177.512 152.997C183.615 142.498 190.646 133.445 197.8 129.427L197.802 129.427C204.97 125.37 211.523 123.566 216.278 122.776C218.656 122.381 220.584 122.239 221.914 122.196C222.578 122.175 223.094 122.178 223.44 122.186C223.614 122.19 223.745 122.196 223.832 122.2C223.875 122.202 223.908 122.204 223.929 122.205L223.952 122.207L223.957 122.207L223.957 122.207L223.957 122.207L148.5 229.672Z" fill="#00AF9D" stroke="#1D2332" stroke-width="1.05841"/>
<path d="M206.729 123.697C203.815 137.709 214.689 144.099 214.689 144.099L222.424 133.338L237.109 133.786C237.109 133.786 235.427 122.464 223.769 121.567C212.11 120.558 206.729 123.697 206.729 123.697Z" fill="#1D2332"/>
<path d="M215.205 130.743L215.204 130.742L212.334 119.368L222.562 118.772C222.521 119.132 222.497 119.632 222.528 120.302C222.601 121.871 222.976 124.38 224.16 128.218C224.408 129.115 224.357 130.145 224.02 131.017C223.684 131.888 223.084 132.56 222.261 132.835C220.455 133.418 218.783 133.357 217.516 132.909C216.239 132.457 215.429 131.64 215.205 130.743Z" fill="white" stroke="#1D2332" stroke-width="1.05841"/>
<path d="M212.571 120.295L212.521 120.208L212.442 120.145L212.308 120.037L222.751 118.792L223.723 126.473C223.52 126.449 223.274 126.417 222.992 126.373C222.139 126.239 220.967 126 219.691 125.577C217.126 124.726 214.215 123.159 212.571 120.295Z" fill="#DBDBDB" stroke="#1D2332" stroke-width="1.05841"/>
<path d="M235.704 98.6121L235.705 98.6138C237.343 104.62 236.365 111.055 232.891 116.184L232.702 116.373L232.67 116.405L232.644 116.442C230.057 120.107 225.865 122.142 221.47 121.713L221.465 121.713L217.653 121.376L217.651 121.376C215.071 121.161 212.485 120.084 210.55 118.473L205.733 114.328L205.517 114.142L205.246 114.219C205.246 114.219 205.245 114.219 205.245 114.22C205.244 114.22 205.245 114.22 205.244 114.22L205.244 114.22L205.229 114.224C205.212 114.228 205.184 114.234 205.146 114.241C205.068 114.256 204.946 114.275 204.783 114.289C204.458 114.318 203.971 114.325 203.349 114.234C202.11 114.051 200.316 113.471 198.2 111.843C197.186 111.064 196.43 110 196.014 108.963C195.591 107.903 195.56 106.975 195.832 106.411C195.96 106.145 196.157 105.95 196.444 105.836C196.742 105.717 197.174 105.67 197.78 105.784C199 106.013 200.793 106.868 203.255 108.746L205.816 111.084L207.146 112.299L206.684 110.558L202.385 94.3534C202.467 94.2612 202.576 94.1403 202.709 93.9936C203.041 93.628 203.524 93.103 204.128 92.467C205.338 91.1946 207.032 89.4803 208.968 87.7113C210.905 85.9412 213.078 84.1232 215.247 82.6393C217.424 81.1497 219.559 80.0235 221.424 79.5971C225.363 78.6968 227.799 78.5904 229.463 79.5532C231.106 80.5049 232.166 82.6083 233.006 86.6935L233.008 86.7065L233.018 86.759C233.027 86.8052 233.039 86.8736 233.056 86.9625C233.09 87.1404 233.14 87.4006 233.205 87.7311C233.336 88.3918 233.525 89.3333 233.764 90.4573C234.242 92.7043 234.916 95.685 235.704 98.6121Z" fill="white" stroke="#1D2332" stroke-width="1.05841"/>
<path d="M228.531 98.9686C228.528 98.975 228.524 98.9805 228.522 98.985C228.491 98.978 228.401 98.9401 228.244 98.7524C228.022 98.4861 227.798 98.0518 227.644 97.5379C227.492 97.0327 227.447 96.5415 227.482 96.1855C227.498 96.0154 227.53 95.9017 227.559 95.8383C227.599 95.8522 227.685 95.9011 227.823 96.067C228.045 96.3333 228.269 96.7676 228.424 97.2815L228.43 97.3041L228.439 97.326C228.631 97.8065 228.674 98.2762 228.63 98.6171C228.608 98.789 228.567 98.9052 228.531 98.9686ZM228.506 99.0057C228.506 99.0056 228.507 99.0046 228.509 99.003C228.507 99.005 228.506 99.0058 228.506 99.0057ZM227.581 95.7987C227.581 95.7988 227.58 95.7996 227.579 95.8011C227.58 95.7994 227.581 95.7986 227.581 95.7987ZM227.535 95.8328C227.535 95.833 227.535 95.8331 227.534 95.8332C227.534 95.8332 227.534 95.8331 227.534 95.833C227.534 95.833 227.534 95.8329 227.535 95.8328ZM228.534 98.9865C228.534 98.9864 228.534 98.9864 228.534 98.9863C228.534 98.9864 228.534 98.9864 228.534 98.9864C228.534 98.9864 228.534 98.9865 228.534 98.9865Z" fill="#1D2332" stroke="#1D2332" stroke-width="1.05841"/>
<path d="M216.369 102.318C216.365 102.324 216.362 102.329 216.36 102.333L216.338 102.337L216.308 102.349C216.282 102.344 216.191 102.312 216.027 102.115C215.805 101.849 215.581 101.415 215.427 100.901C215.275 100.395 215.23 99.9043 215.264 99.5483C215.281 99.3782 215.313 99.2645 215.342 99.201C215.381 99.215 215.468 99.2639 215.606 99.4298C215.828 99.6961 216.052 100.13 216.206 100.644L216.213 100.667L216.222 100.689C216.421 101.186 216.485 101.662 216.453 101.997C216.436 102.165 216.399 102.268 216.369 102.318ZM216.317 102.349C216.317 102.349 216.315 102.349 216.313 102.349C216.315 102.349 216.317 102.349 216.317 102.349ZM215.364 99.1615C215.364 99.1616 215.363 99.1624 215.362 99.1639C215.363 99.1622 215.364 99.1614 215.364 99.1615ZM215.318 99.1956C215.317 99.1957 215.317 99.1959 215.317 99.196C215.317 99.1959 215.316 99.1959 215.316 99.1958C215.316 99.1957 215.317 99.1957 215.318 99.1956Z" fill="#1D2332" stroke="#1D2332" stroke-width="1.05841"/>
<path d="M223.402 102.474L223.391 102.306C223.657 102.592 223.948 102.902 224.227 103.196C224.499 103.484 224.764 103.763 224.989 103.999C224.198 103.967 223.466 103.361 223.402 102.474Z" fill="#DBDBDB" stroke="#1D2332" stroke-width="1.05841"/>
<path d="M197.884 108.857C197.797 108.709 197.801 108.542 197.905 108.376C198.014 108.202 198.243 108.026 198.597 107.964C199.278 107.846 200.518 108.169 201.903 110.069L203.007 112.355C202.169 112.121 201.241 111.664 200.377 111.104C199.166 110.319 198.213 109.422 197.884 108.857Z" fill="#DBDBDB" stroke="#1D2332" stroke-width="1.05841"/>
<path d="M231.279 76.1668C236.211 90.0672 220.517 84.238 214.688 94.327C208.747 104.416 204.039 107.106 195.071 102.959C186.103 98.6989 190.25 79.4177 199.443 74.8216C208.523 70.2255 227.468 65.181 231.279 76.1668Z" fill="#1D2332"/>
<path d="M231.506 101.053L204.49 108.9C203.481 109.236 202.36 108.564 202.023 107.555L199.109 97.578C198.772 96.569 199.445 95.448 200.454 95.1117L227.47 87.2647C228.479 86.9284 229.6 87.601 229.936 88.6099L232.851 98.5869C233.187 99.5958 232.627 100.717 231.506 101.053Z" fill="white"/>
<path d="M235.992 99.7078L208.975 107.555C207.966 107.891 206.845 107.219 206.509 106.21L203.595 96.2327C203.258 95.2238 203.931 94.1028 204.94 93.7665L231.956 85.9195C232.965 85.5832 234.086 86.2558 234.422 87.2647L237.337 97.2416C237.561 98.3626 237 99.4836 235.992 99.7078Z" fill="#4F5865"/>
<path d="M232.292 91.1879L217.495 95.5598C217.047 95.6719 216.598 95.4477 216.486 94.9993L216.15 93.9904C216.038 93.542 216.262 93.0936 216.71 92.9815L231.508 88.6096C231.956 88.4975 232.404 88.7217 232.517 89.1701L232.853 90.179C232.965 90.6274 232.741 91.0758 232.292 91.1879Z" fill="#00AF9D"/>
<path d="M196.975 99.5956C158.076 111.702 151.014 58.1185 105.053 64.284C75.3464 68.2075 -9.40136 24.04 79.7183 -22.8179" stroke="#4F5865" stroke-width="2.11683" stroke-miterlimit="10" stroke-linecap="round"/>
<path d="M86.4419 84.0198L64.6945 159.015C64.3582 160.024 65.255 160.921 66.2639 160.696L121.305 149.374C122.202 149.15 122.65 148.253 122.202 147.469L88.2355 83.7956C87.8992 83.123 86.7782 83.2351 86.4419 84.0198Z" stroke="#1D2332" stroke-width="2.11683" stroke-miterlimit="10" stroke-linecap="round"/>
<path d="M65.5901 159.688L87.1133 139.061L130.945 125.161" stroke="#1D2332" stroke-width="2.11683" stroke-miterlimit="10" stroke-linecap="round"/>
<path d="M87.1138 139.061V84.0199C87.1138 83.1231 88.1227 82.6747 88.7953 83.3473L130.945 125.161L122.313 148.029" stroke="#1D2332" stroke-width="2.11683" stroke-miterlimit="10" stroke-linecap="round"/>
<path d="M210.967 223.272L185.969 261.722C185.072 263.068 185.521 264.749 186.866 265.534L216.909 283.358C218.03 284.03 219.487 283.806 220.384 282.797L248.857 250.512C249.978 249.279 249.754 247.374 248.409 246.477L214.779 222.487C213.546 221.591 211.752 221.927 210.967 223.272Z" stroke="#1D2332" stroke-width="2.11683" stroke-miterlimit="10" stroke-linecap="round"/>
<path d="M210.969 223.272L206.597 205C206.037 203.542 204.131 203.206 203.234 204.439L174.424 241.32C173.976 241.881 173.864 242.777 174.2 243.45L185.522 263.516" stroke="#1D2332" stroke-width="2.11683" stroke-miterlimit="10" stroke-linecap="round"/>
<path d="M206.15 204.215L243.255 232.913L249.196 247.373" stroke="#1D2332" stroke-width="2.11683" stroke-miterlimit="10" stroke-linecap="round"/>
<path d="M173.641 242.217L217.584 271.699L218.817 284.591" stroke="#1D2332" stroke-width="2.11683" stroke-miterlimit="10" stroke-linecap="round"/>
<path d="M217.581 271.699L243.252 232.913" stroke="#1D2332" stroke-width="2.11683" stroke-miterlimit="10" stroke-linecap="round"/>
</g>
</g>
<defs>
<clipPath id="clip0_3749_4241">
<rect width="434" height="360" fill="white"/>
</clipPath>
</defs>
</svg>
