<svg width="218" height="190" viewBox="0 0 218 190" fill="none" xmlns="http://www.w3.org/2000/svg">
<path d="M161 187.695H162.221L162.831 186.636L214.831 96.3457L215.438 95.2912L214.831 94.2368L162.831 3.94557L162.221 2.88719H161H57H55.7786L55.1691 3.94557L3.16911 94.2368L2.56185 95.2912L3.16912 96.3457L55.1691 186.636L55.7786 187.695H57H161Z" stroke="#1D2332" stroke-width="4.22562"/>
<g clip-path="url(#clip0_2183_4718)">
<path d="M130.385 107.271C129.589 106.74 128.527 106.917 127.996 107.802C124.544 113.023 118.88 116.563 112.685 117.449L112.95 113.997L103.48 118.688L112.242 124.529L112.508 120.989C119.942 120.104 126.845 116.032 131.005 109.749C131.447 108.952 131.27 107.802 130.385 107.271Z" fill="#1D2332" stroke="#1D2332" stroke-width="0.5669" stroke-miterlimit="10" stroke-linecap="round" stroke-linejoin="round"/>
<path d="M134.985 92.5794C134.1 85.1452 130.029 78.242 123.746 74.0824C122.949 73.5514 121.798 73.7284 121.267 74.6134C120.736 75.4099 120.913 76.5604 121.798 77.0915C127.02 80.5431 130.56 86.2072 131.445 92.4024L127.994 92.1368L132.684 101.607L138.525 92.8449L134.985 92.5794Z" fill="#1D2332" stroke="#1D2332" stroke-width="0.5669" stroke-miterlimit="10" stroke-linecap="round" stroke-linejoin="round"/>
<path d="M88.612 83.7291C88.8775 83.9061 89.2315 83.9946 89.5855 83.9946C90.1165 83.9946 90.736 83.7291 91.09 83.1981C94.5416 77.9765 100.206 74.4364 106.401 73.5514L106.135 77.003L115.605 72.4008L106.843 66.5597L106.578 70.0998C99.1437 70.9848 92.2406 75.0559 88.081 81.3396C87.5499 82.1361 87.8154 83.1981 88.612 83.7291Z" fill="#1D2332" stroke="#1D2332" stroke-width="0.5669" stroke-miterlimit="10" stroke-linecap="round" stroke-linejoin="round"/>
<path d="M97.2855 113.997C92.0639 110.545 88.5238 104.881 87.6388 98.686L91.0904 98.9516L86.3997 89.3933L80.5586 98.155L84.0987 98.4205C84.9837 105.855 89.0548 112.758 95.3385 116.918C95.604 117.095 95.958 117.183 96.312 117.183C96.843 117.183 97.4625 116.918 97.8165 116.386C98.259 115.59 98.082 114.528 97.2855 113.997Z" fill="#1D2332" stroke="#1D2332" stroke-width="0.5669" stroke-miterlimit="10" stroke-linecap="round" stroke-linejoin="round"/>
<path d="M163.662 134.441C160.476 131.255 156.847 130.016 153.396 130.635L152.865 129.396C152.068 127.892 152.068 126.21 152.953 125.06L155.785 121.166C158.086 117.891 157.555 113.289 154.369 110.103L146.669 102.403C147.112 100.191 147.289 97.8895 147.289 95.5885C147.289 93.2874 147.023 90.9864 146.669 88.7738L154.369 81.0741C157.555 77.888 158.086 73.2859 155.785 70.0113L152.953 66.1172C152.156 64.9667 152.068 63.2852 152.953 61.6921L153.484 60.5416C154.104 60.6301 154.635 60.7186 155.254 60.7186C155.254 60.7186 155.254 60.7186 155.343 60.7186C158.263 60.7186 161.184 59.3026 163.75 56.736C169.68 50.8063 168.529 44.3457 164.724 40.5401C160.918 36.7345 154.369 35.4954 148.439 41.4251C145.253 44.6112 144.014 48.2398 144.634 51.6914L143.395 52.2224C141.89 53.0189 140.209 53.0189 139.058 52.1339L135.164 49.3903C131.889 47.0892 127.287 47.6203 124.101 50.8063L116.402 58.506C114.189 58.0635 111.888 57.8865 109.587 57.8865C107.286 57.8865 104.985 58.152 102.772 58.506L95.0725 50.8063C91.8864 47.6203 87.2843 47.0892 84.0097 49.3903L80.1156 52.2224C78.9651 53.0189 77.2836 53.1074 75.6905 52.2224L74.54 51.6914C74.6285 51.0718 74.717 50.4523 74.717 49.8328C74.717 46.9122 73.301 43.9917 70.7344 41.4251C68.1678 38.8585 65.1588 37.354 62.2382 37.2655C59.2291 37.177 56.4855 38.239 54.3615 40.3631C52.2374 42.4871 51.0869 45.2307 51.2639 48.0628C51.3524 51.0718 52.7684 53.9924 55.4235 56.6475C58.0786 59.3026 61.0877 60.6301 63.9197 60.6301C64.5392 60.6301 65.0703 60.5416 65.6898 60.4531L66.2208 61.6921C67.0173 63.1967 67.0173 64.8782 66.1323 66.0287L63.3887 69.9228C61.0877 73.1974 61.6187 77.7995 64.8047 80.9856L72.5044 88.6853C72.0619 90.8979 71.8849 93.1989 71.8849 95.5C71.8849 97.801 72.1504 100.102 72.5044 102.315L64.8047 110.014C61.6187 113.2 61.0877 117.803 63.3887 121.077L66.2208 124.971C67.0173 126.122 67.1058 127.803 66.2208 129.396L65.6898 130.547C65.0703 130.458 64.4507 130.37 63.8312 130.37C60.9106 130.37 57.9901 131.786 55.4235 134.352C52.8569 136.919 51.3524 139.928 51.2639 142.849C51.1754 145.681 52.2374 148.424 54.3615 150.548C56.3085 152.495 58.8751 153.734 61.7072 153.734C64.5392 153.734 67.6368 152.495 70.5574 149.575C73.7435 146.389 74.9825 142.76 74.363 139.309L75.602 138.778C77.1066 137.981 78.7881 137.981 79.9386 138.866L83.8327 141.698C85.1603 142.672 86.7533 143.114 88.3464 143.114C90.6474 143.114 93.037 142.141 94.8955 140.282L102.595 132.582C104.808 133.025 107.109 133.202 109.41 133.202C111.711 133.202 114.012 132.936 116.225 132.582L123.924 140.282C125.783 142.141 128.172 143.114 130.473 143.114C132.066 143.114 133.66 142.672 134.987 141.698L138.881 138.866C140.032 138.07 141.713 137.981 143.306 138.866L144.457 139.397C144.368 140.017 144.28 140.636 144.28 141.256C144.28 144.176 145.696 147.097 148.262 149.663C151.183 152.584 154.281 153.823 157.113 153.823C159.945 153.823 162.6 152.584 164.458 150.637C168.441 146.831 169.591 140.371 163.662 134.441ZM150.917 43.9032C152.953 41.8676 155.254 40.8056 157.378 40.8056C159.148 40.8056 160.741 41.5136 162.157 42.9296C165.343 46.1157 164.901 50.3638 161.184 54.1694C159.237 56.1165 157.201 57.09 155.254 57.09C153.484 57.09 151.802 56.2935 150.298 54.7889C146.935 51.6029 147.2 47.6203 150.917 43.9032ZM144.988 55.4085L145.961 54.9659C146.492 55.7625 147.023 56.559 147.731 57.267C148.439 57.975 149.236 58.5945 150.032 59.037L149.59 59.9221C148.705 61.6921 148.439 63.6392 148.793 65.4092C144.191 64.2587 140.651 60.7186 139.501 56.1165C141.359 56.559 143.218 56.2935 144.988 55.4085ZM126.579 53.2844C128.438 51.4258 131.27 50.9833 133.04 52.2224L135.695 54.0809C136.138 62.3116 142.775 68.8608 150.917 69.3033L152.776 71.9584C154.104 73.7284 153.661 76.5605 151.714 78.419L145.519 84.6142C141.89 72.5779 132.42 63.1081 120.384 59.4796L126.579 53.2844ZM73.124 54.9659L74.009 55.4085C75.779 56.2935 77.7261 56.559 79.4961 56.205C78.3456 60.8071 74.8055 64.3472 70.2034 65.4977C70.5574 63.7277 70.3804 61.8691 69.4954 60.0991L68.9644 59.1255C69.7609 58.5945 70.5574 58.0635 71.2654 57.3555C72.0619 56.559 72.5929 55.7625 73.124 54.9659ZM57.9016 54.0809C55.9545 52.1339 54.8925 50.0098 54.804 47.8858C54.7155 46.1157 55.4235 44.3457 56.928 42.9296C58.3441 41.5136 59.9371 40.8056 61.7072 40.8056C61.7957 40.8056 61.8842 40.8056 61.9727 40.8056C64.0082 40.8941 66.2208 41.9561 68.1678 43.9032C70.1149 45.8502 71.0884 47.8858 71.0884 49.8328C71.0884 51.6029 70.2919 53.2844 68.7874 54.7889C65.6013 58.0635 61.6187 57.798 57.9016 54.0809ZM67.2828 78.419C65.4243 76.5605 64.9818 73.7284 66.2208 71.9584L68.0793 69.3033C76.31 68.8608 82.8592 62.2231 83.3017 54.0809L85.9568 52.2224C87.7268 50.8948 90.5589 51.3373 92.4175 53.2844L98.6126 59.4796C86.5763 63.1081 77.1066 72.5779 73.478 84.6142L67.2828 78.419ZM68.0793 147.097C64.2737 150.902 60.0256 151.256 56.8395 148.07C55.4235 146.654 54.627 144.884 54.7155 143.026C54.804 140.99 55.866 138.778 57.8131 136.831C59.7601 134.883 61.7957 133.91 63.7427 133.91C65.5128 133.91 67.1943 134.706 68.6988 136.211C72.0619 139.486 71.7964 143.468 68.0793 147.097ZM74.0975 135.592L73.124 136.034C72.5929 135.237 72.0619 134.441 71.3539 133.733C70.6459 133.025 69.8494 132.405 69.0529 131.963L69.4954 131.078C70.3804 129.308 70.6459 127.361 70.2919 125.591C74.894 126.741 78.4341 130.281 79.5846 134.883C77.7261 134.441 75.779 134.706 74.0975 135.592ZM92.4175 137.716C90.5589 139.574 87.7268 140.017 85.9568 138.778L83.3017 136.919C82.8592 128.688 76.2215 122.139 68.0793 121.697L66.2208 119.042C64.8933 117.272 65.3358 114.439 67.2828 112.581L73.478 106.386C77.1066 118.422 86.5763 127.892 98.6126 131.52L92.4175 137.716ZM109.498 129.662C90.6474 129.662 75.3365 114.351 75.3365 95.5C75.3365 76.649 90.6474 61.3381 109.498 61.3381C128.349 61.3381 143.66 76.649 143.66 95.5C143.66 114.351 128.349 129.662 109.498 129.662ZM135.695 136.919L133.04 138.778C131.27 140.105 128.438 139.663 126.579 137.716L120.384 131.52C132.42 127.892 141.89 118.422 145.519 106.386L151.714 112.581C153.573 114.439 154.015 117.272 152.776 119.042L150.917 121.697C142.775 122.139 136.138 128.777 135.695 136.919ZM145.961 136.034L145.076 135.592C143.306 134.706 141.359 134.441 139.589 134.795C140.74 130.193 144.28 126.653 148.882 125.502C148.528 127.272 148.705 129.131 149.59 130.901L150.032 131.874C149.236 132.405 148.439 132.936 147.731 133.644C147.023 134.441 146.404 135.237 145.961 136.034ZM162.157 148.159C158.971 151.345 154.723 150.902 150.917 147.185C148.97 145.238 147.997 143.203 147.997 141.256C147.997 139.486 148.793 137.804 150.298 136.3C151.802 134.795 153.484 133.998 155.166 133.998C157.113 133.998 159.237 134.972 161.184 136.919C164.901 140.725 165.255 144.973 162.157 148.159Z" fill="#1D2332" stroke="#1D2332" stroke-width="0.5669" stroke-miterlimit="10" stroke-linecap="round" stroke-linejoin="round"/>
</g>
<defs>
<clipPath id="clip0_2183_4718">
<rect width="117" height="117" fill="white" transform="translate(51 37)"/>
</clipPath>
</defs>
</svg>
