<svg width="431" height="313" viewBox="0 0 431 313" fill="none" xmlns="http://www.w3.org/2000/svg">
<g clip-path="url(#clip0_3947_7965)">
<path d="M371 264H314V311H371V264Z" fill="#E4793D"/>
<mask id="mask0_3947_7965" style="mask-type:luminance" maskUnits="userSpaceOnUse" x="0" y="0" width="431" height="313">
<path d="M431 0H0V313H431V0Z" fill="white"/>
</mask>
<g mask="url(#mask0_3947_7965)">
<path d="M22.9554 20.7264H20.3466V3.36139H10.8896V20.7264H8.19922V1.32324H22.8739V20.7264H22.9554Z" fill="#B3B3B3"/>
<path d="M38.7715 20.7265H36.1626V14.612H29.7221V20.7265H27.1133V6.29639H29.7221V12.5739H36.1626V6.29639H38.7715V20.7265Z" fill="#B3B3B3"/>
<path d="M73 20.7264V1.32324H79.359C81.3972 1.32324 82.9462 1.73087 84.0875 2.62766C85.2289 3.52444 85.7996 4.82886 85.7996 6.5409C85.7996 7.35616 85.555 8.08989 85.0658 8.82363C84.5767 9.55736 83.8429 9.96499 83.0277 10.2911C84.3321 10.4541 85.3104 11.0248 86.0441 11.9216C86.7779 12.8184 87.1855 13.9598 87.1855 15.1826C87.1855 16.9762 86.6148 18.2806 85.4735 19.2589C84.3321 20.2373 82.7831 20.6449 80.745 20.6449H73V20.7264ZM75.6904 9.55736H79.9297C80.908 9.55736 81.7233 9.31278 82.294 8.7421C82.9462 8.17142 83.1907 7.43769 83.1907 6.45937C83.1907 5.39954 82.8646 4.6658 82.2124 4.09512C81.5602 3.60597 80.5819 3.27986 79.359 3.27986H75.6904V9.55736ZM75.6904 11.5955V18.6067H80.745C81.9678 18.6067 82.8646 18.2806 83.5168 17.71C84.1691 17.1393 84.4952 16.2425 84.4952 15.1826C84.4952 14.1228 84.1691 13.226 83.5168 12.5738C82.8646 11.9216 81.9678 11.5955 80.745 11.514H80.5819H75.6904V11.5955Z" fill="#B3B3B3"/>
<path d="M101.124 8.33453H96.3959V20.7265H93.7871V8.33453H89.0586V6.29639H101.124V8.33453Z" fill="#B3B3B3"/>
<path d="M150.512 14.5304C150.593 16.4055 149.941 17.9545 148.637 19.1773C147.332 20.4002 145.62 21.0524 143.419 21.0524C141.218 21.0524 139.424 20.2372 138.038 18.6882C136.652 17.1392 136 15.1826 136 12.7368V9.31271C136 6.94846 136.652 4.91031 138.038 3.36132C139.424 1.81233 141.218 0.99707 143.419 0.99707C145.62 0.99707 147.332 1.56775 148.637 2.70911C149.941 3.85048 150.593 5.39947 150.512 7.35609V7.43762H147.984C147.984 6.05168 147.577 4.99184 146.761 4.17658C145.946 3.36132 144.805 2.95369 143.337 2.95369C141.87 2.95369 140.729 3.52437 139.832 4.74726C138.935 5.88862 138.527 7.35609 138.527 9.14966V12.6553C138.527 14.4488 138.935 15.9163 139.832 17.0577C140.729 18.199 141.87 18.8512 143.337 18.8512C144.805 18.8512 145.946 18.4436 146.761 17.7099C147.577 16.8946 147.984 15.8348 147.984 14.4488H150.512V14.5304Z" fill="#B3B3B3"/>
<path d="M165.919 14.0413C165.919 16.161 165.43 17.7915 164.452 19.0959C163.473 20.4003 162.087 20.971 160.294 20.971C159.397 20.971 158.663 20.8079 157.929 20.5634C157.277 20.2373 156.707 19.8296 156.217 19.259V26.2702H153.609V6.29634H155.647L156.054 8.17143C156.544 7.4377 157.114 6.94854 157.848 6.62244C158.582 6.29634 159.397 6.05176 160.294 6.05176C162.087 6.05176 163.473 6.78549 164.452 8.17143C165.43 9.55737 165.919 11.4325 165.919 13.7967V14.0413ZM163.31 13.7967C163.31 12.1662 162.984 10.7803 162.332 9.80195C161.68 8.82364 160.701 8.25296 159.478 8.25296C158.745 8.25296 158.093 8.41601 157.522 8.74211C156.951 9.06822 156.544 9.55737 156.217 10.1281V17.1393C156.544 17.71 156.951 18.1991 157.522 18.5252C158.093 18.8513 158.745 19.0144 159.478 19.0144C160.701 19.0144 161.68 18.5252 162.332 17.6284C162.984 16.7317 163.31 15.5088 163.31 14.1228V13.7967Z" fill="#B3B3B3"/>
<path d="M215.43 1.32324V20.7264H212.821V12.6553C212.006 12.8999 211.191 13.063 210.375 13.226C209.56 13.3076 208.663 13.3891 207.522 13.3891C205.402 13.3891 203.772 12.8999 202.631 12.0031C201.489 11.1064 201 9.55736 201 7.43769V1.32324H203.609V7.43769C203.609 8.90515 203.935 9.88346 204.506 10.4541C205.158 11.0248 206.136 11.2694 207.441 11.2694C208.337 11.2694 209.234 11.1879 210.131 11.1064C210.946 10.9433 211.843 10.7802 212.74 10.5357V1.32324H215.43Z" fill="#B3B3B3"/>
<path d="M230.674 8.33453H225.946V20.7265H223.337V8.33453H218.609V6.29639H230.674V8.33453Z" fill="#B3B3B3"/>
<path d="M279.673 20.7264H277.064V3.36139H267.607V20.7264H264.998V1.32324H279.673V20.7264Z" fill="#B3B3B3"/>
<path d="M294.92 8.33453H290.191V20.7265H287.583V8.33453H282.854V6.29639H294.92V8.33453Z" fill="#B3B3B3"/>
<path d="M344.51 14.5299C344.591 16.405 343.939 17.954 342.635 19.1769C341.33 20.3998 339.618 21.052 337.417 21.052C335.216 21.052 333.422 20.2367 332.036 18.6877C330.65 17.1388 329.998 15.1821 329.998 12.7364V9.31223C329.998 6.94798 330.65 4.90983 332.036 3.36084C333.422 1.81185 335.216 0.996582 337.417 0.996582C339.618 0.996582 341.33 1.56727 342.635 2.70863C343.939 3.84999 344.591 5.39898 344.51 7.35561V7.43713H341.982C341.982 6.05119 341.575 4.99136 340.759 4.1761C339.944 3.36084 338.803 2.95321 337.335 2.95321C335.868 2.95321 334.727 3.52389 333.83 4.74678C332.933 5.88814 332.525 7.35561 332.525 9.14918V12.6548C332.525 14.4484 332.933 15.9159 333.83 17.0572C334.727 18.1986 335.868 18.8508 337.335 18.8508C338.803 18.8508 339.944 18.4432 340.759 17.7094C341.575 16.8942 341.982 15.8343 341.982 14.4484H344.51V14.5299Z" fill="#B3B3B3"/>
<path d="M353.885 6.05149C355.76 6.05149 357.146 6.7037 358.206 8.08964C359.266 9.47558 359.836 11.1876 359.836 13.3888V13.7149C359.836 15.8346 359.266 17.6282 358.124 19.0141C356.983 20.4 355.434 21.0523 353.396 21.0523C351.358 21.0523 349.809 20.4 348.667 19.0141C347.526 17.6282 346.955 15.9161 346.955 13.7149V13.3888C346.955 13.3073 346.955 13.2258 346.955 13.2258C346.955 13.1442 346.955 13.1442 346.955 13.0627V9.96473C346.955 7.19285 347.526 5.23623 348.586 3.93182C349.646 2.6274 351.276 1.97519 353.396 1.81214C354.619 1.73062 355.597 1.56756 356.249 1.32299C356.901 1.07841 357.228 0.670779 357.228 0.100098H359.266V0.181624C359.347 1.56756 358.858 2.54587 357.88 3.11656C356.901 3.68724 355.515 4.01334 353.64 4.01334C352.254 4.01334 351.195 4.42097 350.379 5.1547C349.564 5.88844 349.156 6.94827 349.156 8.33421V8.41574C349.646 7.76353 350.379 7.19285 351.195 6.78522C352.01 6.37759 352.988 6.05149 353.885 6.05149ZM353.396 8.08964C352.173 8.08964 351.195 8.57879 350.542 9.5571C349.89 10.5354 349.564 11.8398 349.564 13.3073V13.6334C349.564 15.1824 349.89 16.4053 350.542 17.3836C351.195 18.3619 352.173 18.8511 353.396 18.8511C354.619 18.8511 355.597 18.3619 356.249 17.3836C356.901 16.4053 357.228 15.1009 357.228 13.6334V13.3073C357.228 11.7583 356.901 10.5354 356.249 9.5571C355.597 8.57879 354.619 8.08964 353.396 8.08964Z" fill="#B3B3B3"/>
<path d="M393.998 20.7264V1.32324H400.357C402.395 1.32324 403.944 1.73087 405.086 2.62766C406.227 3.52444 406.798 4.82886 406.798 6.5409C406.798 7.35616 406.553 8.08989 406.064 8.82363C405.575 9.55736 404.841 9.96499 404.026 10.3726C405.33 10.5357 406.308 11.1064 407.042 12.0031C407.776 12.8999 408.184 14.0413 408.184 15.2642C408.184 17.0577 407.613 18.3622 406.471 19.3405C405.33 20.3188 403.781 20.7264 401.743 20.7264H393.998ZM396.688 9.55736H400.928C401.906 9.55736 402.721 9.31278 403.292 8.7421C403.944 8.17142 404.189 7.43769 404.189 6.45937C404.189 5.39954 403.863 4.6658 403.21 4.09512C402.558 3.60597 401.58 3.27986 400.357 3.27986H396.688V9.55736ZM396.688 11.5955V18.6067H401.743C402.966 18.6067 403.863 18.2806 404.515 17.71C405.167 17.1393 405.493 16.2425 405.493 15.1826C405.493 14.1228 405.167 13.226 404.515 12.5738C403.863 11.9216 402.966 11.5955 401.743 11.514H401.58H396.688V11.5955Z" fill="#B3B3B3"/>
<path d="M416.743 18.9328C417.559 18.9328 418.292 18.6882 418.863 18.1176C419.434 17.5469 419.76 16.8947 419.76 16.1609H422.124V16.2425C422.124 17.4654 421.635 18.6067 420.494 19.585C419.352 20.5633 418.129 21.0525 416.662 21.0525C414.624 21.0525 413.075 20.4003 411.933 19.0143C410.792 17.6284 410.303 15.9164 410.303 13.8782V13.3075C410.303 11.2694 410.874 9.55738 411.933 8.17144C413.075 6.7855 414.624 6.1333 416.58 6.1333C418.211 6.1333 419.515 6.62245 420.494 7.60076C421.472 8.57907 422.043 9.80196 421.961 11.2694V11.3509H419.597C419.597 10.4541 419.271 9.72044 418.7 9.06823C418.129 8.41602 417.396 8.17144 416.499 8.17144C415.194 8.17144 414.298 8.6606 413.645 9.63891C413.075 10.6172 412.749 11.8401 412.749 13.3075V13.8782C412.749 15.3457 413.075 16.5686 413.645 17.5469C414.542 18.4437 415.439 18.9328 416.743 18.9328Z" fill="#B3B3B3"/>
<path d="M278.911 130.296C276.814 130.296 275.001 129.988 273.472 129.371C271.942 128.754 270.758 127.879 269.92 126.744C269.081 125.585 268.662 124.228 268.662 122.674C268.662 121.145 269.056 119.85 269.846 118.789C270.66 117.704 271.831 116.89 273.361 116.347C274.89 115.78 276.74 115.496 278.911 115.496C281.081 115.496 282.931 115.78 284.461 116.347C286.015 116.89 287.199 117.704 288.013 118.789C288.827 119.874 289.234 121.169 289.234 122.674C289.234 124.228 288.814 125.585 287.976 126.744C287.137 127.879 285.941 128.754 284.387 129.371C282.833 129.988 281.007 130.296 278.911 130.296ZM278.911 127.299C280.983 127.299 282.598 126.88 283.758 126.041C284.942 125.178 285.534 124.018 285.534 122.563C285.534 121.132 284.942 120.01 283.758 119.196C282.598 118.357 280.983 117.938 278.911 117.938C276.863 117.938 275.26 118.357 274.101 119.196C272.941 120.01 272.362 121.132 272.362 122.563C272.362 124.018 272.941 125.178 274.101 126.041C275.26 126.88 276.863 127.299 278.911 127.299ZM278.911 117.494C276.937 117.494 275.26 117.235 273.879 116.717C272.497 116.174 271.437 115.41 270.697 114.423C269.957 113.412 269.587 112.215 269.587 110.834C269.587 109.379 269.969 108.133 270.734 107.097C271.523 106.036 272.621 105.222 274.027 104.655C275.433 104.088 277.061 103.804 278.911 103.804C280.785 103.804 282.426 104.088 283.832 104.655C285.238 105.222 286.335 106.036 287.125 107.097C287.914 108.133 288.309 109.379 288.309 110.834C288.309 112.215 287.939 113.412 287.199 114.423C286.459 115.41 285.386 116.174 283.98 116.717C282.574 117.235 280.884 117.494 278.911 117.494ZM278.911 115.126C280.711 115.126 282.117 114.756 283.129 114.016C284.165 113.276 284.683 112.265 284.683 110.982C284.683 109.675 284.152 108.651 283.092 107.911C282.031 107.171 280.637 106.801 278.911 106.801C277.184 106.801 275.803 107.171 274.767 107.911C273.755 108.651 273.25 109.675 273.25 110.982C273.25 112.265 273.743 113.276 274.73 114.016C275.741 114.756 277.135 115.126 278.911 115.126Z" fill="#292C33"/>
<path d="M267.61 187V162.58L269.201 164.319H261.764V161.1H271.273V187H267.61ZM285.301 187.296C283.475 187.296 281.699 187.012 279.973 186.445C278.271 185.878 276.877 185.113 275.792 184.151L277.494 181.228C278.357 182.042 279.479 182.708 280.861 183.226C282.242 183.744 283.71 184.003 285.264 184.003C287.237 184.003 288.754 183.584 289.815 182.745C290.875 181.906 291.406 180.784 291.406 179.378C291.406 178.416 291.171 177.577 290.703 176.862C290.234 176.147 289.42 175.604 288.261 175.234C287.126 174.839 285.56 174.642 283.562 174.642H277.679L279.048 161.1H293.663V164.319H280.417L282.341 162.506L281.268 173.199L279.344 171.423H284.339C286.929 171.423 289.013 171.756 290.592 172.422C292.17 173.088 293.317 174.013 294.033 175.197C294.748 176.356 295.106 177.701 295.106 179.23C295.106 180.71 294.748 182.067 294.033 183.3C293.317 184.509 292.232 185.483 290.777 186.223C289.346 186.938 287.521 187.296 285.301 187.296Z" fill="#292C33"/>
<path d="M259.062 244V241.484L269.607 231.309C270.545 230.421 271.235 229.644 271.679 228.978C272.148 228.287 272.456 227.658 272.604 227.091C272.777 226.499 272.863 225.932 272.863 225.389C272.863 224.057 272.395 223.009 271.457 222.244C270.52 221.479 269.151 221.097 267.35 221.097C265.969 221.097 264.723 221.331 263.613 221.8C262.503 222.244 261.541 222.947 260.727 223.909L258.211 221.726C259.198 220.468 260.518 219.506 262.17 218.84C263.848 218.149 265.685 217.804 267.683 217.804C269.484 217.804 271.05 218.1 272.382 218.692C273.714 219.259 274.738 220.086 275.453 221.171C276.193 222.256 276.563 223.539 276.563 225.019C276.563 225.858 276.452 226.684 276.23 227.498C276.008 228.312 275.589 229.175 274.972 230.088C274.356 231.001 273.468 232.024 272.308 233.159L262.91 242.224L262.022 240.781H277.673V244H259.062ZM280.308 244V241.484L290.853 231.309C291.791 230.421 292.481 229.644 292.925 228.978C293.394 228.287 293.702 227.658 293.85 227.091C294.023 226.499 294.109 225.932 294.109 225.389C294.109 224.057 293.641 223.009 292.703 222.244C291.766 221.479 290.397 221.097 288.596 221.097C287.215 221.097 285.969 221.331 284.859 221.8C283.749 222.244 282.787 222.947 281.973 223.909L279.457 221.726C280.444 220.468 281.764 219.506 283.416 218.84C285.094 218.149 286.931 217.804 288.929 217.804C290.73 217.804 292.296 218.1 293.628 218.692C294.96 219.259 295.984 220.086 296.699 221.171C297.439 222.256 297.809 223.539 297.809 225.019C297.809 225.858 297.698 226.684 297.476 227.498C297.254 228.312 296.835 229.175 296.218 230.088C295.602 231.001 294.714 232.024 293.554 233.159L284.156 242.224L283.268 240.781H298.919V244H280.308Z" fill="#292C33"/>
<path d="M258.267 301V298.484L268.812 288.309C269.75 287.421 270.44 286.644 270.884 285.978C271.353 285.287 271.661 284.658 271.809 284.091C271.982 283.499 272.068 282.932 272.068 282.389C272.068 281.057 271.6 280.009 270.662 279.244C269.725 278.479 268.356 278.097 266.555 278.097C265.174 278.097 263.928 278.331 262.818 278.8C261.708 279.244 260.746 279.947 259.932 280.909L257.416 278.726C258.403 277.468 259.723 276.506 261.375 275.84C263.053 275.149 264.89 274.804 266.888 274.804C268.689 274.804 270.255 275.1 271.587 275.692C272.919 276.259 273.943 277.086 274.658 278.171C275.398 279.256 275.768 280.539 275.768 282.019C275.768 282.858 275.657 283.684 275.435 284.498C275.213 285.312 274.794 286.175 274.177 287.088C273.561 288.001 272.673 289.024 271.513 290.159L262.115 299.224L261.227 297.781H276.878V301H258.267ZM288.32 274.804C290.663 274.804 292.636 275.31 294.24 276.321C295.868 277.332 297.101 278.8 297.94 280.724C298.778 282.623 299.198 284.954 299.198 287.717C299.198 290.652 298.68 293.131 297.644 295.154C296.608 297.177 295.177 298.706 293.352 299.742C291.526 300.778 289.393 301.296 286.951 301.296C285.742 301.296 284.57 301.173 283.436 300.926C282.326 300.679 281.351 300.297 280.513 299.779L281.919 296.893C282.609 297.337 283.374 297.658 284.213 297.855C285.076 298.028 285.976 298.114 286.914 298.114C289.528 298.114 291.613 297.3 293.167 295.672C294.721 294.019 295.498 291.577 295.498 288.346C295.498 287.828 295.473 287.211 295.424 286.496C295.374 285.781 295.263 285.078 295.091 284.387L296.312 285.645C295.966 286.78 295.387 287.742 294.573 288.531C293.783 289.296 292.821 289.875 291.687 290.27C290.577 290.64 289.356 290.825 288.024 290.825C286.322 290.825 284.805 290.504 283.473 289.863C282.141 289.222 281.092 288.321 280.328 287.162C279.563 285.978 279.181 284.584 279.181 282.981C279.181 281.304 279.575 279.861 280.365 278.652C281.179 277.419 282.276 276.469 283.658 275.803C285.064 275.137 286.618 274.804 288.32 274.804ZM288.468 277.801C287.358 277.801 286.371 278.011 285.508 278.43C284.644 278.849 283.966 279.429 283.473 280.169C283.004 280.909 282.77 281.797 282.77 282.833C282.77 284.362 283.3 285.583 284.361 286.496C285.421 287.384 286.852 287.828 288.653 287.828C289.837 287.828 290.873 287.606 291.761 287.162C292.673 286.718 293.376 286.114 293.87 285.349C294.388 284.584 294.647 283.733 294.647 282.796C294.647 281.883 294.412 281.057 293.944 280.317C293.475 279.577 292.784 278.973 291.872 278.504C290.959 278.035 289.824 277.801 288.468 277.801Z" fill="#292C33"/>
<path d="M334.185 78.1355V75.6195L344.73 65.4445C345.668 64.5565 346.358 63.7795 346.802 63.1135C347.271 62.4228 347.579 61.7938 347.727 61.2265C347.9 60.6345 347.986 60.0671 347.986 59.5245C347.986 58.1925 347.518 57.1441 346.58 56.3795C345.643 55.6148 344.274 55.2325 342.473 55.2325C341.092 55.2325 339.846 55.4668 338.736 55.9355C337.626 56.3795 336.664 57.0825 335.85 58.0445L333.334 55.8615C334.321 54.6035 335.641 53.6415 337.293 52.9755C338.971 52.2848 340.808 51.9395 342.806 51.9395C344.607 51.9395 346.173 52.2355 347.505 52.8275C348.837 53.3948 349.861 54.2211 350.576 55.3065C351.316 56.3918 351.686 57.6745 351.686 59.1545C351.686 59.9931 351.575 60.8195 351.353 61.6335C351.131 62.4475 350.712 63.3107 350.095 64.2234C349.479 65.136 348.591 66.1597 347.431 67.2944L338.033 76.3595L337.145 74.9165H352.796V78.1355H334.185Z" fill="#292C33"/>
<path d="M342.196 103.804C344.54 103.804 346.513 104.31 348.116 105.321C349.744 106.332 350.978 107.8 351.816 109.724C352.655 111.623 353.074 113.954 353.074 116.717C353.074 119.652 352.556 122.131 351.52 124.154C350.484 126.177 349.054 127.706 347.228 128.742C345.403 129.778 343.269 130.296 340.827 130.296C339.619 130.296 338.447 130.173 337.312 129.926C336.202 129.679 335.228 129.297 334.389 128.779L335.795 125.893C336.486 126.337 337.251 126.658 338.089 126.855C338.953 127.028 339.853 127.114 340.79 127.114C343.405 127.114 345.489 126.3 347.043 124.672C348.597 123.019 349.374 120.577 349.374 117.346C349.374 116.828 349.35 116.211 349.3 115.496C349.251 114.781 349.14 114.078 348.967 113.387L350.188 114.645C349.843 115.78 349.263 116.742 348.449 117.531C347.66 118.296 346.698 118.875 345.563 119.27C344.453 119.64 343.232 119.825 341.9 119.825C340.198 119.825 338.681 119.504 337.349 118.863C336.017 118.222 334.969 117.321 334.204 116.162C333.44 114.978 333.057 113.584 333.057 111.981C333.057 110.304 333.452 108.861 334.241 107.652C335.055 106.419 336.153 105.469 337.534 104.803C338.94 104.137 340.494 103.804 342.196 103.804ZM342.344 106.801C341.234 106.801 340.248 107.011 339.384 107.43C338.521 107.849 337.843 108.429 337.349 109.169C336.881 109.909 336.646 110.797 336.646 111.833C336.646 113.362 337.177 114.583 338.237 115.496C339.298 116.384 340.729 116.828 342.529 116.828C343.713 116.828 344.749 116.606 345.637 116.162C346.55 115.718 347.253 115.114 347.746 114.349C348.264 113.584 348.523 112.733 348.523 111.796C348.523 110.883 348.289 110.057 347.82 109.317C347.352 108.577 346.661 107.973 345.748 107.504C344.836 107.035 343.701 106.801 342.344 106.801Z" fill="#292C33"/>
<path d="M331.315 187V162.58L332.906 164.319H325.469V161.1H334.978V187H331.315ZM351.522 187.296C349.228 187.296 347.267 186.79 345.639 185.779C344.011 184.768 342.765 183.312 341.902 181.413C341.063 179.489 340.644 177.146 340.644 174.383C340.644 171.448 341.162 168.969 342.198 166.946C343.234 164.923 344.677 163.394 346.527 162.358C348.377 161.322 350.498 160.804 352.891 160.804C354.124 160.804 355.296 160.927 356.406 161.174C357.54 161.421 358.515 161.803 359.329 162.321L357.923 165.207C357.257 164.738 356.492 164.418 355.629 164.245C354.79 164.072 353.902 163.986 352.965 163.986C350.325 163.986 348.229 164.812 346.675 166.465C345.121 168.093 344.344 170.523 344.344 173.754C344.344 174.272 344.368 174.889 344.418 175.604C344.467 176.319 344.59 177.022 344.788 177.713L343.53 176.455C343.9 175.32 344.479 174.371 345.269 173.606C346.083 172.817 347.045 172.237 348.155 171.867C349.289 171.472 350.51 171.275 351.818 171.275C353.544 171.275 355.074 171.596 356.406 172.237C357.738 172.878 358.786 173.791 359.551 174.975C360.315 176.134 360.698 177.516 360.698 179.119C360.698 180.772 360.291 182.215 359.477 183.448C358.663 184.681 357.565 185.631 356.184 186.297C354.802 186.963 353.248 187.296 351.522 187.296ZM351.374 184.299C352.508 184.299 353.495 184.089 354.334 183.67C355.197 183.251 355.875 182.671 356.369 181.931C356.862 181.166 357.109 180.278 357.109 179.267C357.109 177.738 356.578 176.529 355.518 175.641C354.457 174.728 353.014 174.272 351.189 174.272C350.005 174.272 348.969 174.494 348.081 174.938C347.193 175.382 346.49 175.986 345.972 176.751C345.478 177.491 345.232 178.342 345.232 179.304C345.232 180.192 345.466 181.018 345.935 181.783C346.403 182.523 347.094 183.127 348.007 183.596C348.919 184.065 350.042 184.299 351.374 184.299Z" fill="#292C33"/>
<path d="M323.597 244V241.484L334.142 231.309C335.08 230.421 335.77 229.644 336.214 228.978C336.683 228.287 336.991 227.658 337.139 227.091C337.312 226.499 337.398 225.932 337.398 225.389C337.398 224.057 336.93 223.009 335.992 222.244C335.055 221.479 333.686 221.097 331.885 221.097C330.504 221.097 329.258 221.331 328.148 221.8C327.038 222.244 326.076 222.947 325.262 223.909L322.746 221.726C323.733 220.468 325.053 219.506 326.705 218.84C328.383 218.149 330.22 217.804 332.218 217.804C334.019 217.804 335.585 218.1 336.917 218.692C338.249 219.259 339.273 220.086 339.988 221.171C340.728 222.256 341.098 223.539 341.098 225.019C341.098 225.858 340.987 226.684 340.765 227.498C340.543 228.312 340.124 229.175 339.507 230.088C338.891 231.001 338.003 232.024 336.843 233.159L327.445 242.224L326.557 240.781H342.208V244H323.597ZM353.169 244.296C351.343 244.296 349.567 244.012 347.841 243.445C346.139 242.878 344.745 242.113 343.66 241.151L345.362 238.228C346.225 239.042 347.347 239.708 348.729 240.226C350.11 240.744 351.59 241.003 353.169 241.003C355.093 241.003 356.585 240.596 357.646 239.782C358.731 238.943 359.274 237.821 359.274 236.415C359.274 235.058 358.756 233.973 357.72 233.159C356.708 232.32 355.093 231.901 352.873 231.901H350.801V229.311L358.497 219.839L359.015 221.319H344.844V218.1H361.938V220.616L354.279 230.051L352.355 228.904H353.576C356.708 228.904 359.052 229.607 360.606 231.013C362.184 232.419 362.974 234.207 362.974 236.378C362.974 237.833 362.616 239.165 361.901 240.374C361.185 241.583 360.1 242.545 358.645 243.26C357.214 243.951 355.389 244.296 353.169 244.296Z" fill="#292C33"/>
<path d="M330.206 301.296C328.381 301.296 326.605 301.012 324.878 300.445C323.176 299.878 321.782 299.113 320.697 298.151L322.399 295.228C323.262 296.042 324.385 296.708 325.766 297.226C327.147 297.744 328.627 298.003 330.206 298.003C332.13 298.003 333.622 297.596 334.683 296.782C335.768 295.943 336.311 294.821 336.311 293.415C336.311 292.058 335.793 290.973 334.757 290.159C333.746 289.32 332.13 288.901 329.91 288.901H327.838V286.311L335.534 276.839L336.052 278.319H321.881V275.1H338.975V277.616L331.316 287.051L329.392 285.904H330.613C333.746 285.904 336.089 286.607 337.643 288.013C339.222 289.419 340.011 291.207 340.011 293.378C340.011 294.833 339.653 296.165 338.938 297.374C338.223 298.583 337.137 299.545 335.682 300.26C334.251 300.951 332.426 301.296 330.206 301.296ZM354.044 301.296C352.021 301.296 350.208 300.778 348.605 299.742C347.026 298.706 345.768 297.201 344.831 295.228C343.918 293.255 343.462 290.862 343.462 288.05C343.462 285.238 343.918 282.845 344.831 280.872C345.768 278.899 347.026 277.394 348.605 276.358C350.208 275.322 352.021 274.804 354.044 274.804C356.042 274.804 357.843 275.322 359.446 276.358C361.049 277.394 362.307 278.899 363.22 280.872C364.133 282.845 364.589 285.238 364.589 288.05C364.589 290.862 364.133 293.255 363.22 295.228C362.307 297.201 361.049 298.706 359.446 299.742C357.843 300.778 356.042 301.296 354.044 301.296ZM354.044 298.003C355.401 298.003 356.585 297.633 357.596 296.893C358.632 296.153 359.434 295.043 360.001 293.563C360.593 292.083 360.889 290.245 360.889 288.05C360.889 285.855 360.593 284.017 360.001 282.537C359.434 281.057 358.632 279.947 357.596 279.207C356.585 278.467 355.401 278.097 354.044 278.097C352.687 278.097 351.491 278.467 350.455 279.207C349.419 279.947 348.605 281.057 348.013 282.537C347.446 284.017 347.162 285.855 347.162 288.05C347.162 290.245 347.446 292.083 348.013 293.563C348.605 295.043 349.419 296.153 350.455 296.893C351.491 297.633 352.687 298.003 354.044 298.003Z" fill="white"/>
<path d="M407.546 78.4314C405.72 78.4314 403.944 78.1477 402.218 77.5804C400.516 77.013 399.122 76.2484 398.037 75.2864L399.739 72.3633C400.602 73.1773 401.724 73.8434 403.106 74.3614C404.487 74.8794 405.967 75.1384 407.546 75.1384C409.47 75.1384 410.962 74.7314 412.023 73.9174C413.108 73.0787 413.651 71.9564 413.651 70.5504C413.651 69.1937 413.133 68.1083 412.097 67.2943C411.085 66.4556 409.47 66.0364 407.25 66.0364H405.178V63.4464L412.874 53.9744L413.392 55.4544H399.221V52.2354H416.315V54.7514L408.656 64.1864L406.732 63.0394H407.953C411.085 63.0394 413.429 63.7424 414.983 65.1484C416.561 66.5544 417.351 68.3427 417.351 70.5134C417.351 71.9687 416.993 73.3007 416.278 74.5094C415.562 75.718 414.477 76.68 413.022 77.3954C411.591 78.086 409.766 78.4314 407.546 78.4314Z" fill="#292C33"/>
<path d="M395.395 130V105.58L396.986 107.319H389.549V104.1H399.058V130H395.395ZM415.305 130.296C413.283 130.296 411.47 129.778 409.866 128.742C408.288 127.706 407.03 126.201 406.092 124.228C405.18 122.255 404.723 119.862 404.723 117.05C404.723 114.238 405.18 111.845 406.092 109.872C407.03 107.899 408.288 106.394 409.866 105.358C411.47 104.322 413.283 103.804 415.305 103.804C417.303 103.804 419.104 104.322 420.707 105.358C422.311 106.394 423.569 107.899 424.481 109.872C425.394 111.845 425.85 114.238 425.85 117.05C425.85 119.862 425.394 122.255 424.481 124.228C423.569 126.201 422.311 127.706 420.707 128.742C419.104 129.778 417.303 130.296 415.305 130.296ZM415.305 127.003C416.662 127.003 417.846 126.633 418.857 125.893C419.893 125.153 420.695 124.043 421.262 122.563C421.854 121.083 422.15 119.245 422.15 117.05C422.15 114.855 421.854 113.017 421.262 111.537C420.695 110.057 419.893 108.947 418.857 108.207C417.846 107.467 416.662 107.097 415.305 107.097C413.949 107.097 412.752 107.467 411.716 108.207C410.68 108.947 409.866 110.057 409.274 111.537C408.707 113.017 408.423 114.855 408.423 117.05C408.423 119.245 408.707 121.083 409.274 122.563C409.866 124.043 410.68 125.153 411.716 125.893C412.752 126.633 413.949 127.003 415.305 127.003Z" fill="#292C33"/>
<path d="M387.171 244V241.484L397.716 231.309C398.654 230.421 399.344 229.644 399.788 228.978C400.257 228.287 400.565 227.658 400.713 227.091C400.886 226.499 400.972 225.932 400.972 225.389C400.972 224.057 400.504 223.009 399.566 222.244C398.629 221.479 397.26 221.097 395.459 221.097C394.078 221.097 392.832 221.331 391.722 221.8C390.612 222.244 389.65 222.947 388.836 223.909L386.32 221.726C387.307 220.468 388.627 219.506 390.279 218.84C391.957 218.149 393.794 217.804 395.792 217.804C397.593 217.804 399.159 218.1 400.491 218.692C401.823 219.259 402.847 220.086 403.562 221.171C404.302 222.256 404.672 223.539 404.672 225.019C404.672 225.858 404.561 226.684 404.339 227.498C404.117 228.312 403.698 229.175 403.081 230.088C402.465 231.001 401.577 232.024 400.417 233.159L391.019 242.224L390.131 240.781H405.782V244H387.171ZM407.732 237.636V235.046L420.978 218.1H424.974L411.839 235.046L409.952 234.454H430.635V237.636H407.732ZM422.125 244V237.636L422.236 234.454V228.83H425.714V244H422.125Z" fill="#292C33"/>
<path d="M10.9688 123.636V121.046L24.2148 104.1H28.2108L15.0758 121.046L13.1888 120.454H33.8718V123.636H10.9688ZM25.3617 130V123.636L25.4727 120.454V114.83H28.9508V130H25.3617Z" fill="#292C33"/>
<path d="M14.3851 187V162.58L15.9761 164.319H8.53906V161.1H18.0481V187H14.3851ZM28.0794 187V162.58L29.6704 164.319H22.2334V161.1H31.7424V187H28.0794Z" fill="#292C33"/>
<path d="M9.32647 244V219.58L10.9175 221.319H3.48047V218.1H12.9895V244H9.32647ZM28.7558 244.296C26.6592 244.296 24.8462 243.988 23.3168 243.371C21.7875 242.754 20.6035 241.879 19.7648 240.744C18.9262 239.585 18.5068 238.228 18.5068 236.674C18.5068 235.145 18.9015 233.85 19.6908 232.789C20.5048 231.704 21.6765 230.89 23.2058 230.347C24.7352 229.78 26.5852 229.496 28.7558 229.496C30.9265 229.496 32.7765 229.78 34.3058 230.347C35.8598 230.89 37.0438 231.704 37.8578 232.789C38.6718 233.874 39.0788 235.169 39.0788 236.674C39.0788 238.228 38.6595 239.585 37.8208 240.744C36.9822 241.879 35.7858 242.754 34.2318 243.371C32.6778 243.988 30.8525 244.296 28.7558 244.296ZM28.7558 241.299C30.8278 241.299 32.4435 240.88 33.6028 240.041C34.7868 239.178 35.3788 238.018 35.3788 236.563C35.3788 235.132 34.7868 234.01 33.6028 233.196C32.4435 232.357 30.8278 231.938 28.7558 231.938C26.7085 231.938 25.1052 232.357 23.9458 233.196C22.7865 234.01 22.2068 235.132 22.2068 236.563C22.2068 238.018 22.7865 239.178 23.9458 240.041C25.1052 240.88 26.7085 241.299 28.7558 241.299ZM28.7558 231.494C26.7825 231.494 25.1052 231.235 23.7238 230.717C22.3425 230.174 21.2818 229.41 20.5418 228.423C19.8018 227.412 19.4318 226.215 19.4318 224.834C19.4318 223.379 19.8142 222.133 20.5788 221.097C21.3682 220.036 22.4658 219.222 23.8718 218.655C25.2778 218.088 26.9058 217.804 28.7558 217.804C30.6305 217.804 32.2708 218.088 33.6768 218.655C35.0828 219.222 36.1805 220.036 36.9698 221.097C37.7592 222.133 38.1538 223.379 38.1538 224.834C38.1538 226.215 37.7838 227.412 37.0438 228.423C36.3038 229.41 35.2308 230.174 33.8248 230.717C32.4188 231.235 30.7292 231.494 28.7558 231.494ZM28.7558 229.126C30.5565 229.126 31.9625 228.756 32.9738 228.016C34.0098 227.276 34.5278 226.265 34.5278 224.982C34.5278 223.675 33.9975 222.651 32.9368 221.911C31.8762 221.171 30.4825 220.801 28.7558 220.801C27.0292 220.801 25.6478 221.171 24.6118 221.911C23.6005 222.651 23.0948 223.675 23.0948 224.982C23.0948 226.265 23.5882 227.276 24.5748 228.016C25.5862 228.756 26.9798 229.126 28.7558 229.126Z" fill="#292C33"/>
<path d="M2.06194 301V298.484L12.6069 288.309C13.5443 287.421 14.2349 286.644 14.6789 285.978C15.1476 285.287 15.4559 284.658 15.6039 284.091C15.7766 283.499 15.8629 282.932 15.8629 282.389C15.8629 281.057 15.3943 280.009 14.4569 279.244C13.5196 278.479 12.1506 278.097 10.3499 278.097C8.9686 278.097 7.72294 278.331 6.61294 278.8C5.50294 279.244 4.54094 279.947 3.72694 280.909L1.21094 278.726C2.1976 277.468 3.51727 276.506 5.16994 275.84C6.84727 275.149 8.68494 274.804 10.6829 274.804C12.4836 274.804 14.0499 275.1 15.3819 275.692C16.7139 276.259 17.7376 277.086 18.4529 278.171C19.1929 279.256 19.5629 280.539 19.5629 282.019C19.5629 282.858 19.4519 283.684 19.2299 284.498C19.0079 285.312 18.5886 286.175 17.9719 287.088C17.3553 288.001 16.4673 289.024 15.3079 290.159L5.90994 299.224L5.02194 297.781H20.6729V301H2.06194ZM32.077 301.296C30.2517 301.296 28.4757 301.012 26.749 300.445C25.047 299.878 23.6534 299.113 22.568 298.151L24.27 295.228C25.1334 296.042 26.2557 296.708 27.637 297.226C29.0184 297.744 30.486 298.003 32.04 298.003C34.0134 298.003 35.5304 297.584 36.591 296.745C37.6517 295.906 38.182 294.784 38.182 293.378C38.182 292.416 37.9477 291.577 37.479 290.862C37.0104 290.147 36.1964 289.604 35.037 289.234C33.9024 288.839 32.336 288.642 30.338 288.642H24.455L25.824 275.1H40.439V278.319H27.193L29.117 276.506L28.044 287.199L26.12 285.423H31.115C33.705 285.423 35.7894 285.756 37.368 286.422C38.9467 287.088 40.0937 288.013 40.809 289.197C41.5244 290.356 41.882 291.701 41.882 293.23C41.882 294.71 41.5244 296.067 40.809 297.3C40.0937 298.509 39.0084 299.483 37.553 300.223C36.1224 300.938 34.297 301.296 32.077 301.296Z" fill="#292C33"/>
<path d="M84.4543 130.296C82.6289 130.296 80.8529 130.012 79.1263 129.445C77.4243 128.878 76.0306 128.113 74.9453 127.151L76.6473 124.228C77.5106 125.042 78.6329 125.708 80.0143 126.226C81.3956 126.744 82.8633 127.003 84.4173 127.003C86.3906 127.003 87.9076 126.584 88.9683 125.745C90.029 124.906 90.5593 123.784 90.5593 122.378C90.5593 121.416 90.3249 120.577 89.8563 119.862C89.3876 119.147 88.5736 118.604 87.4143 118.234C86.2796 117.839 84.7133 117.642 82.7153 117.642H76.8323L78.2013 104.1H92.8163V107.319H79.5703L81.4943 105.506L80.4213 116.199L78.4973 114.423H83.4923C86.0823 114.423 88.1666 114.756 89.7453 115.422C91.324 116.088 92.471 117.013 93.1863 118.197C93.9016 119.356 94.2593 120.701 94.2593 122.23C94.2593 123.71 93.9016 125.067 93.1863 126.3C92.471 127.509 91.3856 128.483 89.9303 129.223C88.4996 129.938 86.6743 130.296 84.4543 130.296Z" fill="#292C33"/>
<path d="M73.6116 187V162.58L75.2026 164.319H67.7656V161.1H77.2746V187H73.6116ZM82.533 187V184.484L93.078 174.309C94.0153 173.421 94.706 172.644 95.15 171.978C95.6186 171.287 95.927 170.658 96.075 170.091C96.2476 169.499 96.334 168.932 96.334 168.389C96.334 167.057 95.8653 166.009 94.928 165.244C93.9906 164.479 92.6216 164.097 90.821 164.097C89.4396 164.097 88.194 164.331 87.084 164.8C85.974 165.244 85.012 165.947 84.198 166.909L81.682 164.726C82.6686 163.468 83.9883 162.506 85.641 161.84C87.3183 161.149 89.156 160.804 91.154 160.804C92.9546 160.804 94.521 161.1 95.853 161.692C97.185 162.259 98.2086 163.086 98.924 164.171C99.664 165.256 100.034 166.539 100.034 168.019C100.034 168.858 99.923 169.684 99.701 170.498C99.479 171.312 99.0596 172.175 98.443 173.088C97.8263 174.001 96.9383 175.024 95.779 176.159L86.381 185.224L85.493 183.781H101.144V187H82.533Z" fill="#292C33"/>
<path d="M72.8148 244V219.58L74.4058 221.319H66.9688V218.1H76.4778V244H72.8148ZM90.5421 217.804C92.8855 217.804 94.8588 218.31 96.4621 219.321C98.0901 220.332 99.3235 221.8 100.162 223.724C101 225.623 101.42 227.954 101.42 230.717C101.42 233.652 100.902 236.131 99.8661 238.154C98.8301 240.177 97.3995 241.706 95.5741 242.742C93.7488 243.778 91.615 244.296 89.173 244.296C87.9644 244.296 86.7928 244.173 85.6581 243.926C84.5481 243.679 83.5738 243.297 82.7351 242.779L84.1411 239.893C84.8318 240.337 85.5965 240.658 86.4351 240.855C87.2985 241.028 88.1988 241.114 89.1361 241.114C91.7508 241.114 93.8351 240.3 95.3891 238.672C96.9431 237.019 97.7201 234.577 97.7201 231.346C97.7201 230.828 97.6954 230.211 97.646 229.496C97.5967 228.781 97.4857 228.078 97.313 227.387L98.534 228.645C98.1887 229.78 97.6091 230.742 96.7951 231.531C96.0058 232.296 95.0437 232.875 93.909 233.27C92.799 233.64 91.578 233.825 90.246 233.825C88.544 233.825 87.0271 233.504 85.6951 232.863C84.3631 232.222 83.3147 231.321 82.55 230.162C81.7854 228.978 81.4031 227.584 81.4031 225.981C81.4031 224.304 81.7978 222.861 82.5871 221.652C83.4011 220.419 84.4988 219.469 85.8801 218.803C87.2861 218.137 88.8401 217.804 90.5421 217.804ZM90.69 220.801C89.58 220.801 88.5934 221.011 87.73 221.43C86.8667 221.849 86.1885 222.429 85.6951 223.169C85.2265 223.909 84.9921 224.797 84.9921 225.833C84.9921 227.362 85.5225 228.583 86.5831 229.496C87.6438 230.384 89.0745 230.828 90.8751 230.828C92.0591 230.828 93.0951 230.606 93.9831 230.162C94.8958 229.718 95.5987 229.114 96.092 228.349C96.61 227.584 96.869 226.733 96.869 225.796C96.869 224.883 96.6348 224.057 96.1661 223.317C95.6975 222.577 95.0068 221.973 94.0941 221.504C93.1815 221.035 92.0467 220.801 90.69 220.801Z" fill="#292C33"/>
<path d="M64.2846 301V298.484L74.8296 288.309C75.7669 287.421 76.4576 286.644 76.9016 285.978C77.3702 285.287 77.6786 284.658 77.8266 284.091C77.9992 283.499 78.0856 282.932 78.0856 282.389C78.0856 281.057 77.6169 280.009 76.6796 279.244C75.7422 278.479 74.3732 278.097 72.5726 278.097C71.1912 278.097 69.9456 278.331 68.8356 278.8C67.7256 279.244 66.7636 279.947 65.9496 280.909L63.4336 278.726C64.4202 277.468 65.7399 276.506 67.3926 275.84C69.0699 275.149 70.9076 274.804 72.9056 274.804C74.7062 274.804 76.2726 275.1 77.6046 275.692C78.9366 276.259 79.9602 277.086 80.6756 278.171C81.4156 279.256 81.7856 280.539 81.7856 282.019C81.7856 282.858 81.6746 283.684 81.4526 284.498C81.2306 285.312 80.8112 286.175 80.1946 287.088C79.5779 288.001 78.6899 289.024 77.5306 290.159L68.1326 299.224L67.2446 297.781H82.8956V301H64.2846ZM96.7795 301.296C94.4855 301.296 92.5245 300.79 90.8965 299.779C89.2685 298.768 88.0229 297.312 87.1595 295.413C86.3209 293.489 85.9015 291.146 85.9015 288.383C85.9015 285.448 86.4195 282.969 87.4555 280.946C88.4915 278.923 89.9345 277.394 91.7845 276.358C93.6345 275.322 95.7559 274.804 98.1485 274.804C99.3819 274.804 100.553 274.927 101.663 275.174C102.798 275.421 103.772 275.803 104.586 276.321L103.18 279.207C102.514 278.738 101.75 278.418 100.886 278.245C100.048 278.072 99.1599 277.986 98.2225 277.986C95.5832 277.986 93.4865 278.812 91.9325 280.465C90.3785 282.093 89.6015 284.523 89.6015 287.754C89.6015 288.272 89.6262 288.889 89.6755 289.604C89.7249 290.319 89.8482 291.022 90.0455 291.713L88.7875 290.455C89.1575 289.32 89.7372 288.371 90.5265 287.606C91.3405 286.817 92.3025 286.237 93.4125 285.867C94.5472 285.472 95.7682 285.275 97.0755 285.275C98.8022 285.275 100.331 285.596 101.663 286.237C102.995 286.878 104.044 287.791 104.808 288.975C105.573 290.134 105.955 291.516 105.955 293.119C105.955 294.772 105.548 296.215 104.734 297.448C103.92 298.681 102.823 299.631 101.441 300.297C100.06 300.963 98.5062 301.296 96.7795 301.296ZM96.6315 298.299C97.7662 298.299 98.7529 298.089 99.5915 297.67C100.455 297.251 101.133 296.671 101.626 295.931C102.12 295.166 102.366 294.278 102.366 293.267C102.366 291.738 101.836 290.529 100.775 289.641C99.7149 288.728 98.2719 288.272 96.4465 288.272C95.2625 288.272 94.2265 288.494 93.3385 288.938C92.4505 289.382 91.7475 289.986 91.2295 290.751C90.7362 291.491 90.4895 292.342 90.4895 293.304C90.4895 294.192 90.7239 295.018 91.1925 295.783C91.6612 296.523 92.3519 297.127 93.2645 297.596C94.1772 298.065 95.2995 298.299 96.6315 298.299Z" fill="#292C33"/>
<path d="M150.675 130.296C148.381 130.296 146.42 129.79 144.792 128.779C143.164 127.768 141.919 126.312 141.055 124.413C140.217 122.489 139.797 120.146 139.797 117.383C139.797 114.448 140.315 111.969 141.351 109.946C142.387 107.923 143.83 106.394 145.68 105.358C147.53 104.322 149.652 103.804 152.044 103.804C153.278 103.804 154.449 103.927 155.559 104.174C156.694 104.421 157.668 104.803 158.482 105.321L157.076 108.207C156.41 107.738 155.646 107.418 154.782 107.245C153.944 107.072 153.056 106.986 152.118 106.986C149.479 106.986 147.382 107.812 145.828 109.465C144.274 111.093 143.497 113.523 143.497 116.754C143.497 117.272 143.522 117.889 143.571 118.604C143.621 119.319 143.744 120.022 143.941 120.713L142.683 119.455C143.053 118.32 143.633 117.371 144.422 116.606C145.236 115.817 146.198 115.237 147.308 114.867C148.443 114.472 149.664 114.275 150.971 114.275C152.698 114.275 154.227 114.596 155.559 115.237C156.891 115.878 157.94 116.791 158.704 117.975C159.469 119.134 159.851 120.516 159.851 122.119C159.851 123.772 159.444 125.215 158.63 126.448C157.816 127.681 156.719 128.631 155.337 129.297C153.956 129.963 152.402 130.296 150.675 130.296ZM150.527 127.299C151.662 127.299 152.649 127.089 153.487 126.67C154.351 126.251 155.029 125.671 155.522 124.931C156.016 124.166 156.262 123.278 156.262 122.267C156.262 120.738 155.732 119.529 154.671 118.641C153.611 117.728 152.168 117.272 150.342 117.272C149.158 117.272 148.122 117.494 147.234 117.938C146.346 118.382 145.643 118.986 145.125 119.751C144.632 120.491 144.385 121.342 144.385 122.304C144.385 123.192 144.62 124.018 145.088 124.783C145.557 125.523 146.248 126.127 147.16 126.596C148.073 127.065 149.195 127.299 150.527 127.299Z" fill="#292C33"/>
<path d="M138.147 187V162.58L139.738 164.319H132.301V161.1H141.81V187H138.147ZM155.394 187.296C153.568 187.296 151.792 187.012 150.066 186.445C148.364 185.878 146.97 185.113 145.885 184.151L147.587 181.228C148.45 182.042 149.572 182.708 150.954 183.226C152.335 183.744 153.815 184.003 155.394 184.003C157.318 184.003 158.81 183.596 159.871 182.782C160.956 181.943 161.499 180.821 161.499 179.415C161.499 178.058 160.981 176.973 159.945 176.159C158.933 175.32 157.318 174.901 155.098 174.901H153.026V172.311L160.722 162.839L161.24 164.319H147.069V161.1H164.163V163.616L156.504 173.051L154.58 171.904H155.801C158.933 171.904 161.277 172.607 162.831 174.013C164.409 175.419 165.199 177.207 165.199 179.378C165.199 180.833 164.841 182.165 164.126 183.374C163.41 184.583 162.325 185.545 160.87 186.26C159.439 186.951 157.614 187.296 155.394 187.296Z" fill="#292C33"/>
<path d="M127.863 244V241.484L138.408 231.309C139.345 230.421 140.036 229.644 140.48 228.978C140.949 228.287 141.257 227.658 141.405 227.091C141.578 226.499 141.664 225.932 141.664 225.389C141.664 224.057 141.195 223.009 140.258 222.244C139.321 221.479 137.952 221.097 136.151 221.097C134.77 221.097 133.524 221.331 132.414 221.8C131.304 222.244 130.342 222.947 129.528 223.909L127.012 221.726C127.999 220.468 129.318 219.506 130.971 218.84C132.648 218.149 134.486 217.804 136.484 217.804C138.285 217.804 139.851 218.1 141.183 218.692C142.515 219.259 143.539 220.086 144.254 221.171C144.994 222.256 145.364 223.539 145.364 225.019C145.364 225.858 145.253 226.684 145.031 227.498C144.809 228.312 144.39 229.175 143.773 230.088C143.156 231.001 142.268 232.024 141.109 233.159L131.711 242.224L130.823 240.781H146.474V244H127.863ZM160.062 244.296C158.039 244.296 156.226 243.778 154.623 242.742C153.044 241.706 151.786 240.201 150.849 238.228C149.936 236.255 149.48 233.862 149.48 231.05C149.48 228.238 149.936 225.845 150.849 223.872C151.786 221.899 153.044 220.394 154.623 219.358C156.226 218.322 158.039 217.804 160.062 217.804C162.06 217.804 163.861 218.322 165.464 219.358C167.067 220.394 168.325 221.899 169.238 223.872C170.151 225.845 170.607 228.238 170.607 231.05C170.607 233.862 170.151 236.255 169.238 238.228C168.325 240.201 167.067 241.706 165.464 242.742C163.861 243.778 162.06 244.296 160.062 244.296ZM160.062 241.003C161.419 241.003 162.603 240.633 163.614 239.893C164.65 239.153 165.452 238.043 166.019 236.563C166.611 235.083 166.907 233.245 166.907 231.05C166.907 228.855 166.611 227.017 166.019 225.537C165.452 224.057 164.65 222.947 163.614 222.207C162.603 221.467 161.419 221.097 160.062 221.097C158.705 221.097 157.509 221.467 156.473 222.207C155.437 222.947 154.623 224.057 154.031 225.537C153.464 227.017 153.18 228.855 153.18 231.05C153.18 233.245 153.464 235.083 154.031 236.563C154.623 238.043 155.437 239.153 156.473 239.893C157.509 240.633 158.705 241.003 160.062 241.003Z" fill="#292C33"/>
<path d="M129.148 301V298.484L139.693 288.309C140.63 287.421 141.321 286.644 141.765 285.978C142.233 285.287 142.542 284.658 142.69 284.091C142.862 283.499 142.949 282.932 142.949 282.389C142.949 281.057 142.48 280.009 141.543 279.244C140.605 278.479 139.236 278.097 137.436 278.097C136.054 278.097 134.809 278.331 133.699 278.8C132.589 279.244 131.627 279.947 130.813 280.909L128.297 278.726C129.283 277.468 130.603 276.506 132.256 275.84C133.933 275.149 135.771 274.804 137.769 274.804C139.569 274.804 141.136 275.1 142.468 275.692C143.8 276.259 144.823 277.086 145.539 278.171C146.279 279.256 146.649 280.539 146.649 282.019C146.649 282.858 146.538 283.684 146.316 284.498C146.094 285.312 145.674 286.175 145.058 287.088C144.441 288.001 143.553 289.024 142.394 290.159L132.996 299.224L132.108 297.781H147.759V301H129.148ZM155.242 301L166.231 276.654L167.193 278.319H151.801L153.651 276.506V282.944H150.099V275.1H169.635V277.616L159.164 301H155.242Z" fill="#292C33"/>
<path d="M201.358 187V162.58L202.949 164.319H195.512V161.1H205.021V187H201.358ZM210.316 180.636V178.046L223.562 161.1H227.558L214.423 178.046L212.536 177.454H233.219V180.636H210.316ZM224.709 187V180.636L224.82 177.454V171.83H228.298V187H224.709Z" fill="#292C33"/>
<path d="M198.339 244V241.484L208.884 231.309C209.822 230.421 210.512 229.644 210.956 228.978C211.425 228.287 211.733 227.658 211.881 227.091C212.054 226.499 212.14 225.932 212.14 225.389C212.14 224.057 211.672 223.009 210.734 222.244C209.797 221.479 208.428 221.097 206.627 221.097C205.246 221.097 204 221.331 202.89 221.8C201.78 222.244 200.818 222.947 200.004 223.909L197.488 221.726C198.475 220.468 199.795 219.506 201.447 218.84C203.125 218.149 204.962 217.804 206.96 217.804C208.761 217.804 210.327 218.1 211.659 218.692C212.991 219.259 214.015 220.086 214.73 221.171C215.47 222.256 215.84 223.539 215.84 225.019C215.84 225.858 215.729 226.684 215.507 227.498C215.285 228.312 214.866 229.175 214.249 230.088C213.633 231.001 212.745 232.024 211.585 233.159L202.187 242.224L201.299 240.781H216.95V244H198.339ZM224.358 244V219.58L225.949 221.319H218.512V218.1H228.021V244H224.358Z" fill="#292C33"/>
<path d="M193.281 301V298.484L203.826 288.309C204.763 287.421 205.454 286.644 205.898 285.978C206.366 285.287 206.675 284.658 206.823 284.091C206.995 283.499 207.082 282.932 207.082 282.389C207.082 281.057 206.613 280.009 205.676 279.244C204.738 278.479 203.369 278.097 201.569 278.097C200.187 278.097 198.942 278.331 197.832 278.8C196.722 279.244 195.76 279.947 194.946 280.909L192.43 278.726C193.416 277.468 194.736 276.506 196.389 275.84C198.066 275.149 199.904 274.804 201.902 274.804C203.702 274.804 205.269 275.1 206.601 275.692C207.933 276.259 208.956 277.086 209.672 278.171C210.412 279.256 210.782 280.539 210.782 282.019C210.782 282.858 210.671 283.684 210.449 284.498C210.227 285.312 209.807 286.175 209.191 287.088C208.574 288.001 207.686 289.024 206.527 290.159L197.129 299.224L196.241 297.781H211.892V301H193.281ZM225.035 301.296C222.938 301.296 221.125 300.988 219.596 300.371C218.066 299.754 216.882 298.879 216.044 297.744C215.205 296.585 214.786 295.228 214.786 293.674C214.786 292.145 215.18 290.85 215.97 289.789C216.784 288.704 217.955 287.89 219.485 287.347C221.014 286.78 222.864 286.496 225.035 286.496C227.205 286.496 229.055 286.78 230.585 287.347C232.139 287.89 233.323 288.704 234.137 289.789C234.951 290.874 235.358 292.169 235.358 293.674C235.358 295.228 234.938 296.585 234.1 297.744C233.261 298.879 232.065 299.754 230.511 300.371C228.957 300.988 227.131 301.296 225.035 301.296ZM225.035 298.299C227.107 298.299 228.722 297.88 229.882 297.041C231.066 296.178 231.658 295.018 231.658 293.563C231.658 292.132 231.066 291.01 229.882 290.196C228.722 289.357 227.107 288.938 225.035 288.938C222.987 288.938 221.384 289.357 220.225 290.196C219.065 291.01 218.486 292.132 218.486 293.563C218.486 295.018 219.065 296.178 220.225 297.041C221.384 297.88 222.987 298.299 225.035 298.299ZM225.035 288.494C223.061 288.494 221.384 288.235 220.003 287.717C218.621 287.174 217.561 286.41 216.821 285.423C216.081 284.412 215.711 283.215 215.711 281.834C215.711 280.379 216.093 279.133 216.858 278.097C217.647 277.036 218.745 276.222 220.151 275.655C221.557 275.088 223.185 274.804 225.035 274.804C226.909 274.804 228.55 275.088 229.956 275.655C231.362 276.222 232.459 277.036 233.249 278.097C234.038 279.133 234.433 280.379 234.433 281.834C234.433 283.215 234.063 284.412 233.323 285.423C232.583 286.41 231.51 287.174 230.104 287.717C228.698 288.235 227.008 288.494 225.035 288.494ZM225.035 286.126C226.835 286.126 228.241 285.756 229.253 285.016C230.289 284.276 230.807 283.265 230.807 281.982C230.807 280.675 230.276 279.651 229.216 278.911C228.155 278.171 226.761 277.801 225.035 277.801C223.308 277.801 221.927 278.171 220.891 278.911C219.879 279.651 219.374 280.675 219.374 281.982C219.374 283.265 219.867 284.276 220.854 285.016C221.865 285.756 223.259 286.126 225.035 286.126Z" fill="#292C33"/>
<path d="M209.635 130L220.624 105.654L221.586 107.319H206.194L208.044 105.506V111.944H204.492V104.1H224.028V106.616L213.557 130H209.635Z" fill="#292C33"/>
<path d="M396.678 187V162.58L398.269 164.319H390.832V161.1H400.341V187H396.678ZM410.483 187L421.472 162.654L422.434 164.319H407.042L408.892 162.506V168.944H405.34V161.1H424.876V163.616L414.405 187H410.483Z" fill="#292C33"/>
<path d="M278.233 78.1354V53.7154L279.824 55.4544H272.387V52.2354H281.896V78.1354H278.233Z" fill="#292C33"/>
<path d="M400.698 301.296C398.873 301.296 397.097 301.012 395.37 300.445C393.668 299.878 392.275 299.113 391.189 298.151L392.891 295.228C393.755 296.042 394.877 296.708 396.258 297.226C397.64 297.744 399.12 298.003 400.698 298.003C402.622 298.003 404.115 297.596 405.175 296.782C406.261 295.943 406.803 294.821 406.803 293.415C406.803 292.058 406.285 290.973 405.249 290.159C404.238 289.32 402.622 288.901 400.402 288.901H398.33V286.311L406.026 276.839L406.544 278.319H392.373V275.1H409.467V277.616L401.808 287.051L399.884 285.904H401.105C404.238 285.904 406.581 286.607 408.135 288.013C409.714 289.419 410.503 291.207 410.503 293.378C410.503 294.833 410.146 296.165 409.43 297.374C408.715 298.583 407.63 299.545 406.174 300.26C404.744 300.951 402.918 301.296 400.698 301.296ZM418.32 301V276.58L419.911 278.319H412.474V275.1H421.983V301H418.32Z" fill="#292C33"/>
</g>
</g>
<defs>
<clipPath id="clip0_3947_7965">
<rect width="431" height="313" fill="white"/>
</clipPath>
</defs>
</svg>
