<svg width="104" height="90" viewBox="0 0 104 90" fill="none" xmlns="http://www.w3.org/2000/svg">
<g clip-path="url(#clip0_43_10)">
<mask id="mask0_43_10" style="mask-type:luminance" maskUnits="userSpaceOnUse" x="0" y="0" width="104" height="90">
<path d="M104 0H0V90H104V0Z" fill="white"/>
</mask>
<g mask="url(#mask0_43_10)">
<mask id="mask1_43_10" style="mask-type:luminance" maskUnits="userSpaceOnUse" x="0" y="0" width="104" height="90">
<path d="M104 0.332031H0.867188V89.9871H104V0.332031Z" fill="white"/>
</mask>
<g mask="url(#mask1_43_10)">
<path d="M101.601 45.1598L77.0141 87.908H27.8533L3.26611 45.1598L27.8533 2.41138H77.0141L101.601 45.1598Z" fill="#FF722C" stroke="#292C33" stroke-width="4.15858"/>
<path d="M51.0769 65.4663C48.3392 65.4663 45.6203 65.11 42.9201 64.3975C40.2199 63.6474 37.9322 62.5973 36.0571 61.2472L39.6011 54.2717C41.1012 55.3593 42.8451 56.2219 44.8327 56.8594C46.8204 57.497 48.8268 57.8157 50.8519 57.8157C53.1396 57.8157 54.9397 57.3657 56.2523 56.4656C57.5649 55.5656 58.2212 54.328 58.2212 52.7529C58.2212 51.2528 57.6399 50.0714 56.4773 49.2088C55.3147 48.3463 53.4396 47.915 50.8519 47.915H46.6891V41.8958L57.6587 29.4636L58.6712 32.7264H38.026V25.4133H65.5905V31.32L54.6772 43.7522L50.0644 41.1082H52.7083C57.5462 41.1082 61.2027 42.1958 63.6779 44.371C66.1531 46.5461 67.3906 49.3401 67.3906 52.7529C67.3906 54.9655 66.8094 57.0469 65.6468 58.9971C64.4842 60.9097 62.7028 62.4661 60.3026 63.6662C57.9024 64.8663 54.8272 65.4663 51.0769 65.4663Z" fill="#292C33"/>
</g>
</g>
</g>
<defs>
<clipPath id="clip0_43_10">
<rect width="104" height="90" fill="white"/>
</clipPath>
</defs>
</svg>
