<svg width="104" height="90" viewBox="0 0 104 90" fill="none" xmlns="http://www.w3.org/2000/svg">
<g clip-path="url(#clip0_5209_6939)">
<mask id="mask0_5209_6939" style="mask-type:luminance" maskUnits="userSpaceOnUse" x="0" y="0" width="104" height="90">
<path d="M103.133 0.332031H0V89.9871H103.133V0.332031Z" fill="white"/>
</mask>
<g mask="url(#mask0_5209_6939)">
<path d="M100.734 45.1598L76.1466 87.908H26.9857L2.39844 45.1598L26.9857 2.41138H76.1466L100.734 45.1598Z" fill="#00AF9D" stroke="white" stroke-width="4.15858"/>
<path d="M37.1571 64.7914V58.8847L52.3457 44.5398C53.5458 43.4523 54.4271 42.4772 54.9896 41.6146C55.5522 40.7521 55.9272 39.9645 56.1147 39.252C56.3397 38.5394 56.4522 37.8831 56.4522 37.2831C56.4522 35.7079 55.9084 34.5079 54.8209 33.6828C53.7708 32.8202 52.2144 32.3889 50.1518 32.3889C48.5016 32.3889 46.964 32.7077 45.5389 33.3453C44.1513 33.9828 42.97 34.9766 41.9949 36.3267L35.3569 32.0514C36.857 29.8013 38.9572 28.0199 41.6574 26.7073C44.3576 25.3947 47.4703 24.7384 50.9956 24.7384C53.9208 24.7384 56.471 25.2259 58.6462 26.201C60.8588 27.1386 62.5652 28.4699 63.7653 30.195C65.0029 31.9202 65.6217 33.9828 65.6217 36.383C65.6217 37.6581 65.4529 38.9332 65.1154 40.2083C64.8154 41.4459 64.1778 42.7585 63.2027 44.1461C62.2652 45.5337 60.8776 47.09 59.0399 48.8152L46.439 60.6848L44.6951 57.3658H66.9155V64.7914H37.1571Z" fill="white"/>
</g>
</g>
<defs>
<clipPath id="clip0_5209_6939">
<rect width="104" height="90" fill="white"/>
</clipPath>
</defs>
</svg>
