<svg width="95" height="94" viewBox="0 0 95 94" fill="none" xmlns="http://www.w3.org/2000/svg">
<g clip-path="url(#clip0_5209_6927)">
<mask id="mask0_5209_6927" style="mask-type:luminance" maskUnits="userSpaceOnUse" x="0" y="0" width="95" height="94">
<path d="M94.3477 0H0.5V93.8478H94.3477V0Z" fill="white"/>
</mask>
<g mask="url(#mask0_5209_6927)">
<path d="M70.3397 26.7051C70.3397 26.7051 67.707 27.6312 64.1451 27.6312C58.1054 27.6312 53.6144 24.8528 51.1365 19.4504C50.0525 17.2894 48.6587 16.0546 48.5038 15.9002C47.5747 15.2828 46.3357 15.4372 45.7163 16.3633L43.7031 19.1417C38.7474 25.9333 32.7077 27.3225 28.5264 27.3225C26.0485 27.3225 24.345 26.7051 24.345 26.7051C23.1061 26.242 21.8672 27.1681 21.8672 28.5573V57.8848C21.8672 65.6025 26.2034 72.5485 34.5661 77.7965C40.6058 81.6554 46.8003 83.3533 46.9552 83.3533C47.2649 83.5077 47.5747 83.5077 48.0393 83.3533C48.349 83.3533 54.2338 81.6554 60.4284 77.7965C68.6362 72.5485 73.1273 65.4481 73.1273 57.8848V28.5573C72.9724 27.3225 71.5786 26.3964 70.3397 26.7051ZM69.1008 58.0391C69.1008 72.2398 50.6719 78.7227 47.4198 79.6488C44.1676 78.5683 25.7388 72.2398 25.7388 58.0391V31.027C26.5131 31.1814 27.5972 31.1814 28.6812 31.1814C41.3801 31.1814 47.1101 20.8396 47.5747 20.5309C47.5747 20.6852 47.7295 20.8396 47.7295 20.9939C51.756 29.6378 59.0346 31.6444 64.3 31.6444C66.1584 31.6444 67.8619 31.3357 69.2557 31.1814L69.1008 58.0391Z" fill="#00AF9D"/>
<path d="M54.2451 45.0728C53.3159 44.4554 52.077 44.7641 51.6124 45.5359L45.263 55.2603L43.0949 53.0993C42.3205 52.3275 41.0816 52.3275 40.3073 53.0993C39.533 53.8711 39.533 55.1059 40.3073 55.8777L44.1789 59.7365C45.1081 60.6627 46.5019 60.5083 47.1213 59.4278L54.8645 47.6969C55.484 46.7707 55.1743 45.5359 54.2451 45.0728Z" fill="#00AF9D"/>
<path d="M92.3345 33.188H80.5648V17.5982C80.5648 16.209 79.171 15.2828 77.9321 15.7459C77.9321 15.7459 74.2154 17.1351 69.5695 17.1351C61.3617 17.1351 55.3219 13.1219 51.9149 5.09541C50.676 2.16267 48.8176 0.619118 48.6628 0.464764C47.7336 -0.307011 46.4947 0.00169909 45.8752 0.927828L43.2425 4.7867C36.5834 14.5111 28.3756 16.672 22.8005 16.672C19.3934 16.672 17.0705 15.9002 17.0705 15.9002C15.8316 15.4372 14.4378 16.3633 14.4378 17.7525V33.3423H2.51324C1.42919 33.3423 0.5 34.2685 0.5 35.349C0.5 36.4294 1.42919 37.3556 2.51324 37.3556H14.2829V42.758H6.53971C5.45566 42.758 4.52647 43.6841 4.52647 44.7646C4.52647 45.8451 5.45566 46.7712 6.53971 46.7712H14.2829V52.6367H8.24321C7.15916 52.6367 6.22998 53.5628 6.22998 54.6433C6.22998 55.7238 7.15916 56.6499 8.24321 56.6499H14.1281C14.4378 57.7304 11.6502 73.0115 30.5437 85.823C38.4417 91.2254 46.3398 93.3864 46.8044 93.5407C47.1141 93.6951 47.5787 93.6951 47.8885 93.5407C48.1982 93.3864 55.9414 91.0711 64.1492 85.823C83.1975 73.0115 80.41 57.8848 80.5648 56.6499H86.4497C87.5337 56.6499 88.4629 55.7238 88.4629 54.6433C88.4629 53.5628 87.5337 52.6367 86.4497 52.6367H80.5648V46.7712H88.308C89.3921 46.7712 90.3213 45.8451 90.3213 44.7646C90.3213 43.6841 89.3921 42.758 88.308 42.758H80.5648V36.8925H92.3345C93.4186 36.8925 94.3477 35.9664 94.3477 34.8859C94.1929 33.9598 93.2637 33.188 92.3345 33.188ZM76.6932 58.3478C76.6932 67.4548 71.7376 75.6356 61.9811 82.1185C55.7865 86.2861 49.2822 88.6014 47.269 89.2188C45.4106 88.6014 39.0612 86.4404 32.7118 82.1185C22.8005 75.6356 17.8448 67.4548 17.8448 58.1935V19.9135C19.0837 20.0678 20.6324 20.3765 22.3359 20.3765C28.8402 20.3765 38.2869 18.0612 45.8752 6.94767L47.1141 5.09541C47.4239 5.55847 47.5787 6.02154 47.8885 6.4846C52.999 18.3699 62.2908 20.8396 69.1049 20.8396C71.8924 20.8396 74.3703 20.3765 76.2286 19.9135V58.3478H76.6932Z" fill="#00AF9D"/>
</g>
</g>
<defs>
<clipPath id="clip0_5209_6927">
<rect width="94" height="94" fill="white" transform="translate(0.5)"/>
</clipPath>
</defs>
</svg>
