<svg width="101" height="100" viewBox="0 0 101 100" fill="none" xmlns="http://www.w3.org/2000/svg">
<g clip-path="url(#clip0_5209_6921)">
<path d="M15.1033 82.6403L15.0928 82.6293L15.082 82.6185C15.0562 82.5928 15.0294 82.5496 15.033 82.4596C15.0349 82.4131 15.0455 82.3678 15.0607 82.3312C15.0723 82.3034 15.0823 82.2902 15.0839 82.2882C15.1098 82.263 15.1531 82.2375 15.2409 82.241C15.2874 82.2429 15.3327 82.2535 15.3693 82.2687C15.3927 82.2785 15.4057 82.2871 15.4105 82.2906C24.5354 91.8308 36.6678 97.1096 49.931 97.1096C76.199 97.1096 97.4711 75.8375 97.4711 49.5695C97.4711 23.3071 76.3431 2.02939 50.0695 2.02939C23.8015 2.02939 2.52939 23.3015 2.52939 49.5695C2.52939 57.8213 4.65705 66.0806 8.78361 73.2185C8.81639 73.2999 8.83096 73.4226 8.79973 73.5527C8.78847 73.5996 8.77374 73.636 8.76054 73.6615C8.70952 73.6711 8.66317 73.6669 8.62025 73.6544C8.55205 73.6345 8.45104 73.5801 8.35434 73.4453C4.07626 66.2091 1.93213 58.0316 1.93213 49.5695C1.93213 23.0834 23.5834 1.43213 50.0695 1.43213C76.5556 1.43213 98.2068 23.0834 98.2068 49.5695C98.2068 76.0556 76.5556 97.7068 50.0695 97.7068C36.761 97.7068 24.3933 92.3342 15.1033 82.6403Z" fill="#00AF9D" stroke="#00AF9D" stroke-width="2.8643"/>
<path d="M31.2498 15.9087L31.2598 15.8902L31.2692 15.8713C31.2702 15.8694 31.2921 15.8255 31.3956 15.7965C31.5053 15.7658 31.6221 15.7797 31.7016 15.8195C31.7034 15.8204 31.7475 15.8424 31.7765 15.9458C31.8057 16.0503 31.7945 16.1611 31.7591 16.2401C26.9249 25.2118 24.2638 37.0759 24.2638 49.5695C24.2638 62.4939 27.0352 74.261 31.5965 82.8491C36.1252 91.3757 42.6311 97.1096 50.2037 97.1096C57.7094 97.1096 64.2144 91.3725 68.758 82.8512C73.3364 74.2643 76.1437 62.497 76.1437 49.5695C76.1437 36.6391 73.3007 24.8706 68.6865 16.2837C64.1078 7.76271 57.568 2.02939 50.0653 2.02939C44.7883 2.02939 39.7064 4.97858 35.5146 10.3226C35.4976 10.3424 35.4414 10.387 35.3388 10.3993C35.2337 10.4119 35.1816 10.3791 35.1752 10.374C35.1566 10.3591 35.1095 10.3026 35.0968 10.1967C35.0842 10.0917 35.1169 10.0395 35.122 10.0332L35.136 10.0157L35.1494 9.99778C39.5115 4.18162 44.7967 1.43213 50.0653 1.43213C56.9989 1.43213 63.5726 6.477 68.495 15.2563C73.3912 23.9885 76.4641 36.1306 76.4641 49.5695C76.4641 63.0083 73.3912 75.1504 68.495 83.8827C63.5726 92.6619 56.9989 97.7068 50.0653 97.7068C43.1317 97.7068 36.558 92.6619 31.6355 83.8827C26.7394 75.1504 23.6665 63.0083 23.6665 49.5695C23.6665 36.8794 26.3985 24.9375 31.2498 15.9087Z" fill="#00AF9D" stroke="#00AF9D" stroke-width="2.8643"/>
<path d="M89.2058 65.0535L89.1981 65.0595L89.1904 65.0656C89.1841 65.0707 89.1319 65.1034 89.0268 65.0908C88.921 65.0781 88.8645 65.031 88.8495 65.0123C88.8445 65.006 88.8117 64.9539 88.8243 64.8488C88.8363 64.7491 88.8787 64.6932 88.8992 64.6745C94.4829 60.3739 97.748 55.2974 97.748 49.7069C97.748 42.2012 92.0109 35.6962 83.4896 31.1527C74.9027 26.5742 63.1354 23.767 50.2079 23.767C37.2865 23.767 25.4869 26.5026 16.8654 31.0272C8.30736 35.5183 2.52939 41.9885 2.52939 49.5685C2.52939 57.0741 8.26647 63.5791 16.7878 68.1227C25.3747 72.7011 37.142 75.5084 50.0695 75.5084C60.8883 75.5084 71.4814 73.5438 80.0112 69.7053L80.0378 69.6933L80.0639 69.6803C80.0834 69.6705 80.0957 69.6688 80.1051 69.6686C80.1164 69.6682 80.1366 69.6699 80.1651 69.6811C80.2261 69.7049 80.3054 69.7655 80.3579 69.8706C80.3677 69.8901 80.3694 69.9024 80.3696 69.9117C80.3698 69.9164 80.3696 69.9228 80.3684 69.9306C80.3669 69.9414 80.3636 69.9551 80.3571 69.9717C80.3349 70.0284 80.2811 70.1008 80.1893 70.153C71.5426 73.9272 61.0978 75.9672 50.0695 75.9672C36.6306 75.9672 24.4885 72.8943 15.7563 67.9982C6.977 63.0758 1.93213 56.5021 1.93213 49.5685C1.93213 42.6348 6.977 36.0612 15.7563 31.1387C24.4885 26.2426 36.6306 23.1697 50.0695 23.1697C63.5083 23.1697 75.6504 26.2426 84.3827 31.1387C93.1619 36.0612 98.2068 42.6348 98.2068 49.5685C98.2068 55.0827 95.2115 60.3824 89.2058 65.0535Z" fill="#00AF9D" stroke="#00AF9D" stroke-width="2.8643"/>
<path d="M41.8993 55.085L46.745 38.0556C46.7449 38.0559 46.7451 38.0553 46.745 38.0556C46.7697 37.9696 46.8132 37.9199 46.8846 37.881C46.9518 37.8443 47.0379 37.8231 47.1229 37.8222C47.1679 37.8478 47.1994 37.8835 47.2261 37.9326C47.2677 38.0089 47.2894 38.1093 47.2842 38.205L40.8324 60.9921C40.7898 61.0746 40.7211 61.1595 40.6384 61.2227C40.5657 61.2783 40.5203 61.2896 40.5127 61.2916C40.4727 61.2907 40.4503 61.2843 40.4387 61.2801C40.4255 61.2753 40.4086 61.2669 40.3864 61.2489C40.3431 61.2137 40.2762 61.1375 40.214 61.0017L33.7305 38.1028L33.7296 38.0995C33.7104 38.0324 33.7128 37.9948 33.7146 37.9813C33.7163 37.968 33.7196 37.959 33.726 37.9487C33.7374 37.9303 33.7996 37.8481 33.9921 37.7931L34.0221 37.7845L34.0442 37.7771C34.0536 37.7776 34.0776 37.7819 34.1163 37.8048C34.1858 37.8458 34.2621 37.9283 34.2984 38.0551C34.2983 38.0549 34.2985 38.0553 34.2984 38.0551L39.1443 55.085L40.5218 59.9258L41.8993 55.085Z" fill="#00AF9D"/>
<path d="M46.745 38.0556L41.8993 55.085L40.5218 59.9258L39.1443 55.085L34.2984 38.0551M46.745 38.0556C46.7451 38.0553 46.7449 38.0559 46.745 38.0556ZM46.745 38.0556C46.7697 37.9696 46.8132 37.9199 46.8846 37.881C46.9518 37.8443 47.0379 37.8231 47.1229 37.8222C47.1679 37.8478 47.1994 37.8835 47.2261 37.9326C47.2677 38.0089 47.2894 38.1093 47.2842 38.205L40.8324 60.9921C40.7898 61.0746 40.7211 61.1595 40.6384 61.2227C40.5657 61.2783 40.5203 61.2896 40.5127 61.2916C40.4727 61.2907 40.4503 61.2843 40.4387 61.2801C40.4255 61.2753 40.4086 61.2669 40.3864 61.2489C40.3431 61.2137 40.2762 61.1375 40.214 61.0017L33.7305 38.1028L33.7296 38.0995C33.7104 38.0324 33.7128 37.9948 33.7146 37.9813C33.7163 37.968 33.7196 37.959 33.726 37.9487C33.7374 37.9303 33.7996 37.8481 33.9921 37.7931L34.0221 37.7845L34.0442 37.7771C34.0536 37.7776 34.0776 37.7819 34.1163 37.8048C34.1858 37.8458 34.2621 37.9283 34.2984 38.0551M34.2984 38.0551C34.2985 38.0553 34.2983 38.0549 34.2984 38.0551ZM34.0395 37.7773C34.0395 37.7772 34.0405 37.7771 34.0424 37.7771" stroke="#00AF9D" stroke-width="2.8643"/>
<path d="M57.2685 48.6877H53.7765L56.263 51.1396L66.2274 60.9656C66.3009 61.0403 66.3249 61.1239 66.3249 61.1795C66.3249 61.1891 66.3242 61.1965 66.3234 61.202L66.2812 61.2357L66.2251 61.2918C66.1499 61.3671 66.0651 61.3916 66.009 61.3916C65.9994 61.3916 65.992 61.3909 65.9865 61.3901L65.9527 61.3479L65.8966 61.2918L55.9274 51.3225L53.4825 48.8777V52.3352V61.0395C53.4814 61.0424 53.4798 61.0463 53.4775 61.0511C53.4648 61.0776 53.4383 61.1183 53.3932 61.161C53.2966 61.2525 53.1888 61.2877 53.1147 61.2877C53.0592 61.2877 53.0104 61.2689 52.9616 61.2173C52.9018 61.154 52.8853 61.0845 52.8853 61.0584V48.3198V38.2121C52.8853 38.1566 52.9041 38.1078 52.9557 38.059C53.019 37.9992 53.0885 37.9827 53.1147 37.9827H64.1917C65.3775 37.9827 66.2211 38.9023 66.2211 39.8736V46.7967C66.2211 47.768 65.3775 48.6877 64.1917 48.6877H57.2685ZM64.3301 47.952V46.5198H65.7623V39.8736H64.3301V38.4415H64.329H64.3279H64.3268H64.3257H64.3246H64.3235H64.3225H64.3214H64.3203H64.3191H64.318H64.3169H64.3157H64.3146H64.3136H64.3124H64.3113H64.31H64.3089H64.3077H64.3065H64.3052H64.3039H64.3028H64.3017H64.3006H64.2994H64.2982H64.2969H64.2957H64.2944H64.293H64.2917H64.2906H64.2892H64.2881H64.287H64.2859H64.2847H64.2836H64.2824H64.2812H64.2799H64.2787H64.2774H64.2761H64.2748H64.2735H64.2722H64.2712H64.2699H64.2684H64.267H64.2656H64.2641H64.2626H64.2611H64.26H64.2585H64.2574H64.2558H64.2542H64.2531H64.252H64.2509H64.2498H64.2487H64.2475H64.2464H64.2452H64.244H64.2428H64.2416H64.2404H64.2392H64.238H64.2367H64.2355H64.2342H64.2329H64.2317H64.2304H64.229H64.2277H64.2264H64.225H64.2237H64.2223H64.2209H64.2196H64.2182H64.2167H64.2153H64.2139H64.2124H64.211H64.2095H64.208H64.2065H64.205H64.2035H64.2019H64.2004H64.1988H64.1973H64.1957H64.1941H64.1925H62.898H54.7762H53.3441V39.8736V46.5198V47.952H54.7762H54.9147H62.898H64.1917H64.1933H64.1949H64.1965H64.198H64.1996H64.2012H64.2027H64.2042H64.2057H64.2073H64.2087H64.2102H64.2117H64.2131H64.2146H64.216H64.2174H64.2189H64.2203H64.2216H64.223H64.2244H64.2257H64.2271H64.2284H64.2297H64.231H64.2323H64.2336H64.2348H64.2361H64.2374H64.2386H64.2398H64.241H64.2422H64.2434H64.2446H64.2458H64.2469H64.2481H64.2492H64.2504H64.2515H64.2526H64.2537H64.2548H64.2564H64.258H64.2595H64.2606H64.2621H64.2636H64.2651H64.2661H64.2675H64.2689H64.2703H64.2717H64.2731H64.2744H64.2757H64.277H64.2783H64.2795H64.2808H64.282H64.2832H64.2843H64.2855H64.2866H64.2878H64.2892H64.2903H64.2913H64.2924H64.2937H64.295H64.296H64.2973H64.2985H64.2997H64.3008H64.302H64.3031H64.3042H64.3055H64.3067H64.308H64.3091H64.3103H64.3116H64.3128H64.314H64.3151H64.3162H64.3174H64.3185H64.3196H64.3207H64.3219H64.323H64.3241H64.3252H64.3263H64.3274H64.3285H64.3301Z" fill="#00AF9D" stroke="#00AF9D" stroke-width="2.8643"/>
</g>
<defs>
<clipPath id="clip0_5209_6921">
<rect width="100" height="100" fill="white" transform="translate(0.5)"/>
</clipPath>
</defs>
</svg>
