<svg width="603" height="69" viewBox="0 0 603 69" fill="none" xmlns="http://www.w3.org/2000/svg">
<path d="M3.15253 0.104736H0.348633V24.5625H3.15253V0.104736Z" fill="#606060"/>
<path d="M16.2373 0.104736H21.2843C23.3405 0.104736 25.2098 0.478141 26.5183 1.78505C27.4529 2.90525 28.0137 4.58555 28.0137 6.07916C28.0137 7.38606 27.8268 8.69297 27.266 9.62647C26.8921 10.3733 26.1444 11.1201 25.0229 11.4935C26.1444 11.8669 27.266 12.6137 27.8268 13.5472C28.5745 14.6674 28.9483 16.161 28.9483 17.6546C28.9483 20.2684 28.2006 21.9487 27.266 23.0689C25.5836 24.5625 23.5274 24.5625 21.6582 24.5625H16.2373V0.104736ZM21.2843 10.56C22.219 10.56 23.5274 10.56 24.2752 9.62647C25.0229 8.87967 25.2098 7.38606 25.2098 6.82596C25.2098 4.58555 24.4621 3.65205 23.9013 3.27864C23.1536 2.71854 22.032 2.53184 21.0974 2.53184H18.8543V10.56H21.2843ZM21.6582 22.1354C22.4059 22.1354 23.9013 22.1354 24.8359 21.2019C25.5836 20.4551 25.9575 18.5881 25.9575 17.4679C25.9575 16.161 25.5836 14.4807 24.649 13.7339C23.7144 12.9871 22.4059 12.9871 21.6582 12.9871H19.0412V22.1354H21.6582Z" fill="#606060"/>
<path d="M39.603 12.4269C39.603 11.3067 39.0422 9.81311 38.4814 9.06631C38.1075 8.69291 37.3598 8.13281 36.6121 8.13281C35.6775 8.13281 34.9298 8.50622 34.5559 9.25302C34.1821 9.81312 33.6213 11.3067 33.6213 15.0407C33.6213 18.7748 33.8082 20.8285 34.5559 21.762C34.9298 22.3221 35.6775 22.8822 36.6121 22.8822C37.3598 22.8822 38.2945 22.5088 38.8552 21.762C39.2291 21.0152 39.6029 19.895 39.7899 18.7748L42.2199 19.1482C42.033 20.8285 41.2853 22.8822 40.3507 23.8157C39.7899 24.3758 38.6683 25.1226 36.7991 25.1226C35.1167 25.1226 33.6213 24.3758 32.6866 23.4423C31.752 22.5088 30.8174 20.6418 30.8174 15.9742C30.8174 10.7466 32.1259 8.69292 33.0605 7.57271C34.369 6.26581 35.6775 6.0791 36.7991 6.0791C37.9206 6.0791 39.0422 6.2658 40.1637 7.1993C41.2853 8.13281 41.8461 9.99981 42.033 11.8668L39.603 12.4269Z" fill="#606060"/>
<path d="M46.7068 15.7877C46.7068 17.2813 46.8937 20.0818 47.6414 21.3887C48.2022 22.3223 49.3238 22.6956 50.2584 22.6956C51.0061 22.6956 51.7538 22.3222 52.1277 21.7621C52.6885 21.202 53.0623 19.7084 53.2492 18.9616L55.4924 19.5217C55.3055 20.0818 55.1185 21.202 54.5577 22.1355C53.4362 24.1892 51.7538 24.7494 50.0715 24.7494C48.2022 24.7494 46.7068 24.1893 45.5853 22.5089C44.2768 20.4552 44.0898 17.468 44.0898 15.601C44.0898 12.8005 44.4637 9.81329 45.9591 7.94628C47.2676 6.07928 48.763 5.89258 49.8846 5.89258C51.1931 5.89258 52.6885 6.07928 53.997 7.75959C55.1185 9.25319 55.8662 11.4936 55.8662 15.7877H46.7068ZM53.0623 13.734C53.0623 11.3069 52.6885 10.1867 52.3146 9.4399C51.9408 8.69309 51.0061 8.13298 50.0715 8.13298C49.3238 8.13298 48.3892 8.50639 47.8284 9.4399C47.2676 10.3734 47.0807 11.6803 46.8937 13.5473H53.0623V13.734Z" fill="#606060"/>
<path d="M58.6703 6.45251H61.1004V9.43972C61.2873 8.69292 61.6612 7.75941 62.2219 7.1993C63.1566 6.2658 64.0912 6.0791 64.8389 6.0791C66.5213 6.0791 67.6428 6.8259 68.5775 8.13281C69.8859 9.99981 70.2598 13.1737 70.2598 15.2274C70.2598 17.2811 69.8859 20.2684 68.9513 22.1354C67.8297 24.1891 66.3343 24.9359 64.652 24.9359C63.1566 24.9359 62.4089 24.3758 62.2219 24.1891C61.8481 23.8157 61.4742 23.4423 61.1004 22.8822V30.9103H58.4834V6.45251H58.6703ZM61.2873 17.2811C61.2873 18.7748 61.2873 20.2684 62.2219 21.3886C62.7827 22.3221 63.5304 22.5088 64.465 22.5088C65.5866 22.5088 66.5212 21.762 66.8951 21.0152C67.4559 20.0817 67.6428 16.9077 67.6428 15.2274C67.6428 13.9205 67.6428 10.9333 66.7082 9.43972C66.1474 8.50622 65.5866 8.13281 64.652 8.13281C63.5304 8.13281 62.7827 8.87962 62.4089 9.25302C61.6612 10.1865 61.2873 12.2402 61.2873 13.9205V17.2811Z" fill="#606060"/>
<path d="M82.7832 7.75941C84.4656 9.81312 84.8394 13.1737 84.8394 15.6008C84.8394 18.4013 84.2787 21.762 82.7832 23.4423C81.8486 24.3758 80.5401 25.1226 79.0447 25.1226C77.5493 25.1226 76.0539 24.3758 75.3062 23.4423C73.8108 21.762 73.25 18.588 73.25 15.6008C73.25 13.3604 73.6238 9.81312 75.3062 7.75941C76.2408 6.63921 77.5493 6.0791 79.0447 6.0791C80.5401 6.0791 81.8486 6.63921 82.7832 7.75941ZM76.2408 20.6418C76.8016 22.5088 78.1101 22.8822 78.8578 22.8822C79.6055 22.8822 80.914 22.5088 81.4748 20.6418C81.8486 19.3349 82.0355 17.0944 82.0355 15.6008C82.0355 14.1072 81.8486 11.6801 81.4748 10.5599C80.914 8.50621 79.4186 8.31952 78.8578 8.31952C78.4839 8.31952 76.8016 8.50621 76.2408 10.5599C75.867 11.6801 75.68 14.1072 75.68 15.6008C75.68 16.9077 75.867 19.3349 76.2408 20.6418Z" fill="#606060"/>
<path d="M96.2426 12.4269C96.2426 11.3067 95.6818 9.81311 95.121 9.06631C94.7472 8.69291 93.9995 8.13281 93.2518 8.13281C92.3171 8.13281 91.5694 8.50622 91.1956 9.25302C90.8217 9.81312 90.2609 11.3067 90.2609 15.0407C90.2609 18.7748 90.4479 20.8285 91.1956 21.762C91.5694 22.3221 92.3171 22.8822 93.2518 22.8822C93.9995 22.8822 94.9341 22.5088 95.4949 21.762C95.8687 21.0152 96.2426 19.895 96.4295 18.7748L98.8596 19.1482C98.6726 20.8285 97.9249 22.8822 96.9903 23.8157C96.4295 24.3758 95.3079 25.1226 93.4387 25.1226C91.7563 25.1226 90.2609 24.3758 89.3263 23.4423C88.3917 22.5088 87.457 20.6418 87.457 15.9742C87.457 10.7466 88.7655 8.69292 89.7001 7.57271C91.0086 6.26581 92.3171 6.0791 93.4387 6.0791C94.5602 6.0791 95.6818 6.2658 96.8034 7.1993C97.9249 8.13281 98.4857 9.99981 98.6726 11.8668L96.2426 12.4269Z" fill="#606060"/>
<path d="M109.327 12.4269C109.327 11.3067 108.766 9.81311 108.205 9.06631C107.831 8.69291 107.083 8.13281 106.336 8.13281C105.401 8.13281 104.653 8.50622 104.28 9.25302C103.906 9.81312 103.345 11.3067 103.345 15.0407C103.345 18.7748 103.532 20.8285 104.28 21.762C104.653 22.3221 105.401 22.8822 106.336 22.8822C107.083 22.8822 108.018 22.5088 108.579 21.762C108.953 21.0152 109.327 19.895 109.513 18.7748L111.944 19.1482C111.757 20.8285 111.009 22.8822 110.074 23.8157C109.514 24.3758 108.392 25.1226 106.523 25.1226C104.84 25.1226 103.345 24.3758 102.41 23.4423C101.476 22.5088 100.541 20.6418 100.541 15.9742C100.541 10.7466 101.849 8.69292 102.784 7.57271C104.093 6.26581 105.401 6.0791 106.523 6.0791C107.644 6.0791 108.766 6.2658 109.887 7.1993C111.009 8.13281 111.57 9.99981 111.757 11.8668L109.327 12.4269Z" fill="#606060"/>
<path d="M114.748 6.45264H117.178V17.8414V19.7084L117.926 17.8414L122.599 7.57284V6.45264H125.216V24.5626H122.599V13.3606L122.786 11.3069L122.038 13.3606L117.178 23.4424V24.5626H114.748V6.45264Z" fill="#606060"/>
<path d="M129.702 6.45246H132.319V17.8412L132.132 19.7082L132.88 17.8412L137.74 7.38596V6.26575H140.357V24.5624H137.74V13.3604L137.927 11.3067L137.179 13.3604L132.319 23.4422V24.5624H129.702V6.45246ZM139.048 0.478027C139.048 1.59823 138.675 2.53174 137.927 3.27854C136.992 4.21204 135.871 4.39874 134.936 4.39874C134.001 4.39874 132.693 4.21204 131.758 3.27854C131.011 2.53174 130.637 1.41153 130.637 0.478027H132.88C132.88 1.22483 133.067 1.78494 133.254 2.15834C133.628 2.71844 134.188 2.90514 134.749 2.90514C135.31 2.90514 135.871 2.71844 136.245 2.15834C136.432 1.78494 136.805 1.22483 136.618 0.478027H139.048Z" fill="#606060"/>
<path d="M152.507 12.4269C152.507 11.3067 151.946 9.81311 151.386 9.06631C151.012 8.69291 150.264 8.13281 149.516 8.13281C148.582 8.13281 147.834 8.50622 147.46 9.25302C147.086 9.81312 146.526 11.3067 146.526 15.0407C146.526 18.7748 146.713 20.8285 147.46 21.762C147.834 22.3221 148.582 22.8822 149.516 22.8822C150.264 22.8822 151.199 22.5088 151.76 21.762C152.133 21.0152 152.507 19.895 152.694 18.7748L155.124 19.1482C154.937 20.8285 154.19 22.8822 153.255 23.8157C152.694 24.3758 151.573 25.1226 149.703 25.1226C148.021 25.1226 146.526 24.3758 145.591 23.4423C144.656 22.5088 143.722 20.6418 143.722 15.9742C143.722 10.7466 145.03 8.69292 145.965 7.57271C147.273 6.26581 148.582 6.0791 149.703 6.0791C150.825 6.0791 151.946 6.2658 153.068 7.1993C154.19 8.13281 154.75 9.99981 154.937 11.8668L152.507 12.4269Z" fill="#606060"/>
<path d="M157.741 24.5625V6.45251H160.358V13.9205H162.041C162.788 13.9205 163.536 13.7338 163.91 12.4269C164.097 11.8668 164.097 11.12 164.284 10.1865C164.284 9.43972 164.471 8.69291 164.657 7.94611C165.218 6.2658 166.34 6.0791 166.901 6.0791C167.088 6.0791 167.648 6.2658 167.835 6.2658V8.31952C167.461 8.31952 167.088 8.50622 167.088 8.50622C166.901 8.69292 166.714 9.25302 166.714 10.1865C166.527 11.8668 166.527 12.4269 166.34 12.987C165.966 14.1072 165.405 14.4806 164.471 14.854C165.966 15.2274 166.34 16.5343 166.527 17.4678C166.901 18.9615 166.901 20.8285 167.088 21.762C167.274 21.9487 167.461 22.6955 168.396 22.3221V24.5625C168.022 24.7492 167.835 24.7492 167.274 24.7492C165.405 24.7492 165.031 23.4423 164.657 22.6955C164.471 22.1354 164.284 21.0152 164.097 18.9615C163.91 18.2147 163.91 17.2812 163.536 16.7211C163.162 16.3477 162.788 16.1609 162.227 16.1609H160.545V24.5625H157.741Z" fill="#606060"/>
<path d="M170.639 6.45264H173.256V17.8414L173.069 19.7084L173.816 17.8414L178.677 7.57284V6.45264H181.293V24.5626H178.677V13.3606L178.863 11.3069L177.929 13.3606L173.256 23.4424V24.5626H170.639V6.45264Z" fill="#606060"/>
<path d="M185.593 6.45246H188.21V17.8412L188.023 19.7082L188.771 17.8412L193.631 7.38596V6.26575H196.248V24.5624H193.631V13.3604L193.818 11.3067L193.07 13.3604L188.21 23.4422V24.5624H185.593V6.45246ZM194.939 0.478027C194.939 1.59823 194.565 2.53174 193.818 3.27854C192.883 4.21204 191.761 4.39874 190.827 4.39874C189.892 4.39874 188.584 4.21204 187.649 3.27854C186.901 2.53174 186.527 1.41153 186.527 0.478027H188.771C188.771 1.22483 188.957 1.78494 189.144 2.15834C189.518 2.71844 190.079 2.90514 190.64 2.90514C191.201 2.90514 191.761 2.71844 192.135 2.15834C192.322 1.78494 192.696 1.22483 192.509 0.478027H194.939Z" fill="#606060"/>
<path d="M208.959 24.5625V6.45251H211.576V13.9205H213.258C214.006 13.9205 214.754 13.7338 215.128 12.4269C215.314 11.8668 215.314 11.12 215.501 10.1865C215.501 9.43972 215.688 8.69291 215.875 7.94611C216.436 6.2658 217.558 6.0791 218.118 6.0791C218.305 6.0791 218.866 6.2658 219.053 6.2658V8.31952C218.679 8.31952 218.305 8.50622 218.305 8.50622C218.118 8.69292 217.931 9.25302 217.931 10.1865C217.745 11.8668 217.745 12.4269 217.558 12.987C217.184 14.1072 216.623 14.4806 215.688 14.854C217.184 15.2274 217.558 16.5343 217.745 17.4678C218.118 18.9615 218.118 20.8285 218.305 21.762C218.492 21.9487 218.679 22.6955 219.614 22.3221V24.5625C219.24 24.7492 219.053 24.7492 218.492 24.7492C216.623 24.7492 216.249 23.4423 215.875 22.6955C215.688 22.1354 215.501 21.0152 215.315 18.9615C215.128 18.2147 215.128 17.2812 214.754 16.7211C214.38 16.3477 214.006 16.1609 213.445 16.1609H211.763V24.5625H208.959Z" fill="#606060"/>
<path d="M231.017 7.75941C232.699 9.81312 233.073 13.1737 233.073 15.6008C233.073 18.4013 232.512 21.762 231.017 23.4423C230.082 24.3758 228.774 25.1226 227.278 25.1226C225.783 25.1226 224.287 24.3758 223.54 23.4423C222.044 21.762 221.483 18.588 221.483 15.6008C221.483 13.3604 221.857 9.81312 223.54 7.75941C224.474 6.63921 225.783 6.0791 227.278 6.0791C228.774 6.0791 230.082 6.63921 231.017 7.75941ZM224.661 20.6418C225.222 22.5088 226.53 22.8822 227.278 22.8822C228.026 22.8822 229.334 22.5088 229.895 20.6418C230.269 19.3349 230.456 17.0944 230.456 15.6008C230.456 14.1072 230.269 11.6801 229.895 10.5599C229.334 8.50621 227.839 8.31952 227.278 8.31952C226.904 8.31952 225.409 8.50621 224.661 10.5599C224.287 11.6801 224.1 14.1072 224.1 15.6008C224.1 16.9077 224.1 19.3349 224.661 20.6418Z" fill="#606060"/>
<path d="M236.624 6.45264H239.241V13.9207H244.475V6.45264H247.092V24.5626H244.475V16.1611H239.241V24.5626H236.624V6.45264Z" fill="#606060"/>
<path d="M251.392 24.5625V6.45251H254.009V13.9205H255.691C256.439 13.9205 257.186 13.7338 257.56 12.4269C257.747 11.8668 257.747 11.12 257.934 10.1865C257.934 9.43972 258.121 8.69291 258.308 7.94611C258.869 6.2658 259.99 6.0791 260.551 6.0791C260.738 6.0791 261.299 6.2658 261.486 6.2658V8.31952C261.112 8.31952 260.738 8.50622 260.738 8.50622C260.551 8.69292 260.364 9.25302 260.364 10.1865C260.177 11.8668 260.177 12.4269 259.99 12.987C259.616 14.1072 259.056 14.4806 258.121 14.854C259.616 15.2274 259.99 16.5343 260.177 17.4678C260.551 18.9615 260.551 20.8285 260.738 21.762C260.925 21.9487 261.112 22.6955 262.046 22.3221V24.5625C261.673 24.7492 261.486 24.7492 260.925 24.7492C259.056 24.7492 258.682 23.4423 258.308 22.6955C258.121 22.1354 257.934 21.0152 257.747 18.9615C257.56 18.2147 257.56 17.2812 257.186 16.7211C256.812 16.3477 256.439 16.1609 255.878 16.1609H254.196V24.5625H251.392Z" fill="#606060"/>
<path d="M265.037 6.45264L268.028 18.9616L271.206 6.45264H273.636L268.402 26.2429C268.028 27.3631 267.467 29.0434 266.72 29.9769C265.785 30.9104 264.85 31.0971 264.103 31.0971C263.542 31.0971 262.981 30.9104 262.607 30.9104V28.67C262.981 28.8567 263.355 29.0434 263.916 29.0434C264.85 29.0434 265.037 28.67 265.411 27.9232C265.598 27.3631 265.972 26.2429 265.972 25.8695L266.533 23.6291L262.233 6.82603H265.037V6.45264Z" fill="#606060"/>
<path d="M274.757 6.45251H277.187V9.43972C277.374 8.69292 277.748 7.75941 278.309 7.1993C279.243 6.2658 280.178 6.0791 280.926 6.0791C282.608 6.0791 283.73 6.8259 284.664 8.13281C285.973 9.99981 286.347 13.1737 286.347 15.2274C286.347 17.2811 285.973 20.2684 285.038 22.1354C283.917 24.1891 282.421 24.9359 280.739 24.9359C279.244 24.9359 278.496 24.3758 278.309 24.1891C277.935 23.8157 277.561 23.4423 277.187 22.8822V30.9103H274.57V6.45251H274.757ZM277.374 17.2811C277.374 18.7748 277.374 20.2684 278.309 21.3886C278.87 22.3221 279.617 22.5088 280.552 22.5088C281.674 22.5088 282.608 21.762 282.982 21.0152C283.543 20.0817 283.73 16.9077 283.73 15.2274C283.73 13.9205 283.73 10.9333 282.795 9.43972C282.234 8.50622 281.674 8.13281 280.739 8.13281C279.617 8.13281 278.87 8.87962 278.496 9.25302C277.748 10.1865 277.374 12.2402 277.374 13.9205V17.2811Z" fill="#606060"/>
<path d="M297.749 12.4271C297.749 11.3069 297.188 9.81329 296.627 9.06649C296.253 8.69308 295.506 8.13298 294.758 8.13298C293.823 8.13298 293.076 8.50639 292.702 9.2532C292.328 9.8133 291.767 11.3069 291.767 15.0409C291.767 18.7749 291.954 20.8286 292.702 21.7621C293.076 22.3222 293.823 22.8823 294.758 22.8823C295.506 22.8823 296.44 22.5089 297.001 21.7621C297.375 21.0153 297.749 19.8951 297.936 18.7749L300.179 18.9616C299.992 20.6419 299.244 22.6956 298.31 23.6291C297.749 24.1893 296.627 24.936 294.758 24.936C293.076 24.936 291.58 24.1893 290.646 23.2558C289.711 22.3223 288.776 20.4552 288.776 15.7877C288.776 10.5601 290.085 8.50639 291.02 7.38619C292.328 6.07928 293.636 5.89258 294.758 5.89258C295.88 5.89258 297.001 6.07928 298.123 7.01278C299.244 7.94628 299.805 9.81329 299.992 11.6803L297.749 12.4271Z" fill="#606060"/>
<path d="M311.395 6.45264H321.862V24.5626H319.245V8.50634H314.011V24.5626H311.395V6.45264Z" fill="#606060"/>
<path d="M328.031 15.7877C328.031 17.2813 328.218 20.0818 328.966 21.3887C329.526 22.3223 330.648 22.6956 331.583 22.6956C332.33 22.6956 333.078 22.3222 333.452 21.7621C334.013 21.202 334.387 19.7084 334.573 18.9616L336.817 19.5217C336.63 20.0818 336.443 21.202 335.882 22.1355C334.76 24.1892 333.078 24.7494 331.396 24.7494C329.526 24.7494 328.031 24.1893 326.909 22.5089C325.601 20.4552 325.414 17.468 325.414 15.601C325.414 12.8005 325.788 9.81329 327.283 7.94628C328.592 6.07928 330.087 5.89258 331.209 5.89258C332.517 5.89258 334.013 6.07928 335.321 7.75959C336.443 9.25319 337.19 11.4936 337.19 15.7877H328.031ZM334.387 13.734C334.387 11.3069 334.013 10.1867 333.639 9.4399C333.265 8.69309 332.33 8.13298 331.396 8.13298C330.648 8.13298 329.713 8.50639 329.153 9.4399C328.592 10.3734 328.405 11.6803 328.218 13.5473H334.387V13.734Z" fill="#606060"/>
<path d="M349.714 24.5626H339.994V29.0434H337.751V22.5089H339.246C340.181 20.8286 340.742 18.9616 341.116 16.9079C341.489 14.4808 341.863 9.43985 341.863 6.45264H350.275V22.5089H351.957V29.0434H349.714V24.5626ZM347.845 22.5089V8.69304H344.106C343.92 10.7467 343.733 14.2941 343.546 16.5345C343.172 18.5882 342.798 20.4552 342.05 22.5089H347.845Z" fill="#606060"/>
<path d="M362.987 24.5625C362.613 23.4423 362.613 22.5088 362.613 21.9487C362.426 22.6955 361.865 23.629 361.305 24.0024C360.37 24.7492 359.435 24.9359 358.501 24.9359C356.631 24.9359 355.51 24.0024 354.949 23.629C354.201 22.8822 353.641 21.5753 353.641 19.7083C353.641 16.1609 355.51 14.6673 356.818 14.1072C358.501 13.3604 360.744 13.1737 362.239 13.3604C362.239 11.12 362.239 9.81311 361.678 9.06631C361.305 8.69291 360.744 8.13281 359.622 8.13281C358.875 8.13281 357.94 8.31952 357.192 9.43972C356.818 9.99982 356.631 11.12 356.631 11.4934L354.201 10.9333C354.388 9.62641 355.136 8.31952 355.884 7.57271C357.192 6.26581 358.688 6.0791 359.996 6.0791C360.744 6.0791 362.052 6.26581 363.174 6.82591C365.043 8.13281 365.043 10.1865 365.043 12.987V20.2684C365.043 21.3886 365.043 22.8822 365.23 24.5625H362.987ZM357.379 16.7211C356.818 17.4679 356.445 18.7748 356.445 19.7083C356.445 20.4551 356.631 21.5753 357.192 22.1354C357.566 22.5088 358.314 22.8822 358.875 22.8822C359.622 22.8822 360.744 22.5088 361.492 21.2019C362.239 19.7083 362.426 17.8412 362.426 15.4141C360.37 15.2274 358.501 15.4141 357.379 16.7211Z" fill="#606060"/>
<path d="M369.155 6.45264H378.315V8.50634H371.772V24.5626H369.155V6.45264Z" fill="#606060"/>
<path d="M388.408 7.75941C390.091 9.81312 390.464 13.1737 390.464 15.6008C390.464 18.4013 389.904 21.762 388.408 23.4423C387.474 24.3758 386.165 25.1226 384.67 25.1226C383.174 25.1226 381.679 24.3758 380.931 23.4423C379.436 21.762 378.875 18.588 378.875 15.6008C378.875 13.3604 379.249 9.81312 380.931 7.75941C381.866 6.63921 383.174 6.0791 384.67 6.0791C386.165 6.0791 387.474 6.63921 388.408 7.75941ZM382.053 20.6418C382.613 22.5088 383.922 22.8822 384.67 22.8822C385.417 22.8822 386.726 22.5088 387.287 20.6418C387.661 19.3349 387.847 17.0944 387.847 15.6008C387.847 14.1072 387.661 11.6801 387.287 10.5599C386.726 8.50621 385.231 8.31952 384.67 8.31952C384.296 8.31952 382.8 8.50621 382.053 10.5599C381.679 11.6801 381.492 14.1072 381.492 15.6008C381.492 16.9077 381.679 19.3349 382.053 20.6418Z" fill="#606060"/>
<path d="M394.017 6.45264H403.176V8.50634H396.634V24.5626H394.017V6.45264Z" fill="#606060"/>
<path d="M413.27 7.75941C414.952 9.81312 415.326 13.1737 415.326 15.6008C415.326 18.4013 414.765 21.762 413.27 23.4423C412.335 24.3758 411.026 25.1226 409.531 25.1226C408.036 25.1226 406.54 24.3758 405.793 23.4423C404.297 21.762 403.736 18.588 403.736 15.6008C403.736 13.3604 404.11 9.81312 405.793 7.75941C406.727 6.63921 408.036 6.0791 409.531 6.0791C411.213 6.0791 412.335 6.63921 413.27 7.75941ZM406.914 20.6418C407.475 22.5088 408.783 22.8822 409.531 22.8822C410.279 22.8822 411.587 22.5088 412.148 20.6418C412.522 19.3349 412.709 17.0944 412.709 15.6008C412.709 14.1072 412.522 11.6801 412.148 10.5599C411.587 8.50621 410.092 8.31952 409.531 8.31952C409.157 8.31952 407.662 8.50621 406.914 10.5599C406.54 11.6801 406.353 14.1072 406.353 15.6008C406.353 16.9077 406.54 19.3349 406.914 20.6418Z" fill="#606060"/>
<path d="M418.877 6.45264H425.046C426.728 6.45264 427.663 7.01274 428.037 7.57284C428.784 8.31964 429.158 9.62654 429.158 10.9334C429.158 11.6802 428.971 12.6138 428.598 13.3606C428.037 14.2941 427.476 14.8542 426.728 15.0409C427.85 15.4143 428.411 16.1611 428.784 16.5345C429.345 17.2813 429.532 18.5882 429.532 19.5217C429.532 21.0153 429.158 22.3222 428.224 23.2557C427.663 23.8158 426.728 24.5626 425.046 24.5626H418.69V6.45264H418.877ZM423.737 13.9207C424.859 13.9207 425.42 13.5473 425.794 13.1739C426.354 12.6138 426.541 11.6802 426.541 10.9334C426.541 9.99994 426.354 9.43984 425.794 8.87974C425.233 8.50634 424.672 8.31964 423.924 8.31964H421.494V13.9207H423.737ZM423.737 22.5089C424.298 22.5089 425.233 22.5089 425.981 21.9488C426.541 21.3887 426.915 20.4552 426.915 19.335C426.915 18.4015 426.541 17.2813 425.981 16.7212C425.42 16.1611 424.298 15.9744 423.737 15.9744H421.307V22.5089H423.737Z" fill="#606060"/>
<path d="M441.683 0.104736H444.487V22.1354H451.59V0.104736H454.394V22.1354H456.45V30.1636H453.833V24.5625H441.683V0.104736Z" fill="#606060"/>
<path d="M460.562 15.7877C460.562 17.2813 460.749 20.0818 461.497 21.3887C462.058 22.3223 463.179 22.6956 464.114 22.6956C464.862 22.6956 465.609 22.3222 465.983 21.7621C466.544 21.202 466.918 19.7084 467.105 18.9616L469.348 19.5217C469.161 20.0818 468.974 21.202 468.413 22.1355C467.292 24.1892 465.609 24.7494 463.927 24.7494C462.058 24.7494 460.562 24.1893 459.441 22.5089C458.132 20.4552 457.945 17.468 457.945 15.601C457.945 12.8005 458.319 9.81329 459.815 7.94628C461.123 6.07928 462.618 5.89258 463.74 5.89258C465.049 5.89258 466.544 6.07928 467.852 7.75959C468.974 9.25319 469.722 11.4936 469.722 15.7877H460.562ZM466.918 13.734C466.918 11.3069 466.544 10.1867 466.17 9.4399C465.796 8.69309 464.862 8.13298 463.927 8.13298C463.179 8.13298 462.245 8.50639 461.684 9.4399C461.123 10.3734 460.936 11.6803 460.749 13.5473H466.918V13.734Z" fill="#606060"/>
<path d="M472.712 6.45264H475.329V13.9207H480.563V6.45264H483.18V24.5626H480.563V16.1611H475.329V24.5626H472.712V6.45264Z" fill="#606060"/>
<path d="M489.162 8.50634H484.676V6.45264H496.078V8.50634H491.592V24.5626H489.162V8.50634Z" fill="#606060"/>
<path d="M497.574 6.45251H500.004V9.43972C500.191 8.69292 500.564 7.75941 501.125 7.1993C502.06 6.2658 502.995 6.0791 503.742 6.0791C505.425 6.0791 506.546 6.8259 507.481 8.13281C508.789 9.99981 509.163 13.1737 509.163 15.2274C509.163 17.2811 508.789 20.2684 507.855 22.1354C506.733 24.1891 505.238 24.9359 503.555 24.9359C502.06 24.9359 501.312 24.3758 501.125 24.1891C500.751 23.8157 500.378 23.4423 500.004 22.8822V30.9103H497.387V6.45251H497.574ZM500.191 17.2811C500.191 18.7748 500.191 20.2684 501.125 21.3886C501.686 22.3221 502.434 22.5088 503.368 22.5088C504.49 22.5088 505.425 21.762 505.798 21.0152C506.359 20.0817 506.546 16.9077 506.546 15.2274C506.546 13.9205 506.546 10.9333 505.611 9.43972C505.051 8.50622 504.49 8.13281 503.555 8.13281C502.434 8.13281 501.686 8.87962 501.312 9.25302C500.564 10.1865 500.191 12.2402 500.191 13.9205V17.2811Z" fill="#606060"/>
<path d="M521.688 7.75941C523.37 9.81312 523.744 13.1737 523.744 15.6008C523.744 18.4013 523.183 21.762 521.688 23.4423C520.753 24.3758 519.444 25.1226 517.949 25.1226C516.454 25.1226 514.958 24.3758 514.211 23.4423C512.715 21.762 512.154 18.588 512.154 15.6008C512.154 13.3604 512.528 9.81312 514.211 7.75941C515.145 6.63921 516.454 6.0791 517.949 6.0791C519.444 6.0791 520.753 6.63921 521.688 7.75941ZM515.145 20.6418C515.706 22.5088 517.014 22.8822 517.762 22.8822C518.51 22.8822 519.818 22.5088 520.379 20.6418C520.753 19.3349 520.94 17.0944 520.94 15.6008C520.94 14.1072 520.753 11.6801 520.379 10.5599C519.818 8.50621 518.323 8.31952 517.762 8.31952C517.388 8.31952 515.893 8.50621 515.145 10.5599C514.771 11.6801 514.584 14.1072 514.584 15.6008C514.584 16.9077 514.771 19.3349 515.145 20.6418Z" fill="#606060"/>
<path d="M527.295 6.45264H533.464C535.146 6.45264 536.081 7.01274 536.455 7.57284C537.202 8.31964 537.576 9.62654 537.576 10.9334C537.576 11.6802 537.389 12.6138 537.016 13.3606C536.455 14.2941 535.894 14.8542 535.146 15.0409C536.268 15.4143 536.829 16.1611 537.202 16.5345C537.763 17.2813 537.95 18.5882 537.95 19.5217C537.95 21.0153 537.576 22.3222 536.642 23.2557C536.081 23.8158 535.146 24.5626 533.464 24.5626H527.108V6.45264H527.295ZM532.155 13.9207C533.277 13.9207 533.838 13.5473 534.212 13.1739C534.772 12.6138 534.959 11.6802 534.959 10.9334C534.959 9.99994 534.772 9.43984 534.212 8.87974C533.651 8.50634 533.09 8.31964 532.342 8.31964H529.912V13.9207H532.155ZM532.155 22.5089C532.716 22.5089 533.651 22.5089 534.399 21.9488C534.959 21.3887 535.333 20.4552 535.333 19.335C535.333 18.4015 534.959 17.2813 534.399 16.7212C533.838 16.1611 532.716 15.9744 532.155 15.9744H529.725V22.5089H532.155Z" fill="#606060"/>
<path d="M0.162109 44.3528H2.77908V60.409H8.01302V44.3528H10.4431V60.409H12.3123V66.7569H10.0692V62.4628H0.162109V44.3528Z" fill="#606060"/>
<path d="M14.5557 44.3528H17.1726V55.7415L16.9857 57.7952L17.9203 55.9282L22.5935 45.473V44.3528H25.2105V62.4628H22.5935V51.2607L22.7804 49.3937L22.0327 51.2607L17.1726 61.3425V62.4628H14.5557V44.3528Z" fill="#606060"/>
<path d="M38.4819 38.0051V43.9796C40.9119 43.9796 42.5943 45.2865 43.5289 46.22C45.5851 48.4604 45.772 51.4476 45.772 53.5013C45.772 56.1151 45.2112 58.7289 43.9028 60.4092C43.1551 61.3427 41.4727 63.023 38.4819 63.023V68.8108H36.0518V63.023C33.061 63.023 31.3787 61.3427 30.631 60.4092C29.3225 58.7289 28.7617 56.1151 28.7617 53.5013C28.7617 52.3811 28.7617 48.6471 31.0048 46.22C31.9395 45.2865 33.4349 43.9796 36.0518 43.9796V38.0051H38.4819ZM36.0518 46.22C33.6218 46.4067 32.6872 47.9003 32.3133 48.8338C31.9395 49.3939 31.5656 50.7008 31.5656 53.5013C31.5656 56.8619 32.1264 58.3555 32.5003 58.7289C33.4349 60.5959 35.1172 60.9693 36.0518 60.9693V46.22ZM38.295 60.7826C39.4165 60.7826 40.9119 60.4092 41.8466 58.5422C42.0335 58.1688 42.7812 56.6752 42.7812 53.3146C42.7812 50.5141 42.4073 49.2072 42.0335 48.6471C41.6596 47.9003 40.725 46.4067 38.295 46.0333V60.7826Z" fill="#606060"/>
<path d="M49.1371 44.3529H51.5672V47.3401C51.7541 46.5933 52.1279 45.6598 52.6887 45.0997C53.6234 44.1662 54.558 43.9795 55.3057 43.9795C56.988 43.9795 58.1096 44.7263 59.0442 46.0332C60.3527 47.9002 60.7265 51.0741 60.7265 53.1278C60.7265 55.1815 60.3527 58.1687 59.4181 60.0358C58.2965 62.0895 56.8011 62.8363 55.1188 62.8363C53.6233 62.8363 52.8757 62.2762 52.6887 62.0895C52.3149 61.7161 51.941 61.3427 51.5672 60.7826V68.8107H48.9502V44.3529H49.1371ZM51.7541 55.3682C51.7541 56.8618 51.7541 58.3554 52.6887 59.4756C53.2495 60.4092 53.9972 60.5959 54.9318 60.5959C56.0534 60.5959 56.988 59.8491 57.3619 59.1023C57.9227 58.1687 58.1096 54.9948 58.1096 53.3145C58.1096 52.0076 58.1096 49.0204 57.175 47.5268C56.6142 46.5933 56.0534 46.2199 55.1188 46.2199C53.9972 46.2199 53.2495 46.9667 52.8756 47.3401C52.1279 48.2736 51.7541 50.3273 51.7541 52.0076V55.3682Z" fill="#606060"/>
<path d="M73.0635 45.6598C74.7459 47.7135 75.1197 51.0741 75.1197 53.5012C75.1197 56.3017 74.559 59.6623 73.0635 61.3427C72.1289 62.2762 70.8204 63.023 69.325 63.023C67.8296 63.023 66.3342 62.2762 65.5865 61.3427C64.0911 59.6623 63.5303 56.4884 63.5303 53.5012C63.5303 51.2608 63.9041 47.7135 65.5865 45.6598C66.5211 44.5396 67.8296 43.9795 69.325 43.9795C70.8204 43.9795 72.1289 44.7263 73.0635 45.6598ZM66.708 58.5421C67.2688 60.4091 68.5773 60.7826 69.325 60.7826C70.0727 60.7826 71.3812 60.4091 71.942 58.5421C72.3158 57.2352 72.5028 54.9948 72.5028 53.5012C72.5028 52.0076 72.3158 49.5805 71.942 48.4603C71.3812 46.4066 69.8858 46.2199 69.325 46.2199C68.9512 46.2199 67.4558 46.4066 66.708 48.4603C66.3342 49.5805 66.1473 52.0076 66.1473 53.5012C66.1473 54.9948 66.3342 57.2352 66.708 58.5421Z" fill="#606060"/>
<path d="M78.6713 44.3528H84.8399C86.5222 44.3528 87.4569 44.9129 87.8307 45.473C88.5784 46.2198 88.9523 47.5267 88.9523 48.8336C88.9523 49.5804 88.7653 50.5139 88.3915 51.2607C87.8307 52.1942 87.2699 52.7543 86.5222 52.941C87.6438 53.3144 88.2046 54.0612 88.5784 54.4346C89.1392 55.1814 89.3261 56.4883 89.3261 57.4218C89.3261 58.9154 88.9523 60.2223 88.0176 61.1559C87.4569 61.716 86.5222 62.4628 84.8399 62.4628H78.4844V44.3528H78.6713ZM83.5314 52.0075C84.653 52.0075 85.2137 51.6341 85.5876 51.2607C86.1484 50.7006 86.3353 49.7671 86.3353 49.0203C86.3353 48.0868 86.1484 47.5267 85.5876 46.9666C85.0268 46.5932 84.466 46.4065 83.7183 46.4065H81.2883V52.0075H83.5314ZM83.5314 60.5958C84.0922 60.5958 85.0268 60.5958 85.7745 60.0356C86.3353 59.4755 86.7092 58.542 86.7092 57.4218C86.7092 56.4883 86.3353 55.3681 85.7745 54.808C85.2138 54.2479 84.0922 54.0612 83.5314 54.0612H81.1014V60.5958H83.5314Z" fill="#606060"/>
<path d="M101.851 45.6598C103.533 47.7135 103.907 51.0741 103.907 53.5012C103.907 56.3017 103.346 59.6623 101.851 61.3427C100.916 62.2762 99.6075 63.023 98.1121 63.023C96.6167 63.023 95.1213 62.2762 94.3736 61.3427C92.8781 59.6623 92.3174 56.4884 92.3174 53.5012C92.3174 51.2608 92.6912 47.7135 94.3736 45.6598C95.3082 44.5396 96.6167 43.9795 98.1121 43.9795C99.6075 43.9795 100.916 44.7263 101.851 45.6598ZM95.4951 58.5421C96.0559 60.4091 97.3644 60.7826 98.1121 60.7826C98.8598 60.7826 100.168 60.4091 100.729 58.5421C101.103 57.2352 101.29 54.9948 101.29 53.5012C101.29 52.0076 101.103 49.5805 100.729 48.4603C100.168 46.4066 98.6729 46.2199 98.1121 46.2199C97.7382 46.2199 96.2428 46.4066 95.4951 48.4603C95.1213 49.5805 94.9343 52.0076 94.9343 53.5012C94.9343 54.9948 95.1213 57.2352 95.4951 58.5421Z" fill="#606060"/>
<path d="M107.458 44.3528H116.617V46.5932H110.075V62.4628H107.458V44.3528Z" fill="#606060"/>
<path d="M126.711 45.6598C128.393 47.7135 128.767 51.0741 128.767 53.5012C128.767 56.3017 128.206 59.6623 126.711 61.3427C125.776 62.2762 124.468 63.023 122.972 63.023C121.477 63.023 119.982 62.2762 119.234 61.3427C117.738 59.6623 117.178 56.4884 117.178 53.5012C117.178 51.2608 117.552 47.7135 119.234 45.6598C120.169 44.5396 121.477 43.9795 122.972 43.9795C124.468 43.9795 125.776 44.7263 126.711 45.6598ZM120.355 58.5421C120.916 60.4091 122.225 60.7826 122.972 60.7826C123.72 60.7826 125.029 60.4091 125.589 58.5421C125.963 57.2352 126.15 54.9948 126.15 53.5012C126.15 52.0076 125.963 49.5805 125.589 48.4603C125.029 46.4066 123.533 46.2199 122.972 46.2199C122.599 46.2199 121.103 46.4066 120.355 48.4603C119.982 49.5805 119.795 52.0076 119.795 53.5012C119.795 54.9948 119.982 57.2352 120.355 58.5421Z" fill="#606060"/>
<path d="M149.517 45.6598C151.199 47.7135 151.573 51.0741 151.573 53.5012C151.573 56.3017 151.012 59.6623 149.517 61.3427C148.582 62.2762 147.274 63.023 145.778 63.023C144.283 63.023 142.787 62.2762 142.04 61.3427C140.544 59.6623 139.983 56.4884 139.983 53.5012C139.983 51.2608 140.357 47.7135 142.04 45.6598C142.974 44.5396 144.283 43.9795 145.778 43.9795C147.274 43.9795 148.582 44.7263 149.517 45.6598ZM143.161 58.5421C143.722 60.4091 145.03 60.7826 145.778 60.7826C146.526 60.7826 147.834 60.4091 148.395 58.5421C148.769 57.2352 148.956 54.9948 148.956 53.5012C148.956 52.0076 148.769 49.5805 148.395 48.4603C147.834 46.4066 146.339 46.2199 145.778 46.2199C145.404 46.2199 143.909 46.4066 143.161 48.4603C142.787 49.5805 142.6 52.0076 142.6 53.5012C142.6 54.9948 142.787 57.2352 143.161 58.5421Z" fill="#606060"/>
<path d="M156.807 46.78C157.742 45.4731 159.05 44.5396 160.732 44.5396C162.789 44.5396 164.097 45.6598 165.032 47.3401C165.593 48.647 166.153 50.514 166.153 53.3145C166.153 58.1687 164.658 60.4091 164.471 60.7825C163.349 62.4628 161.48 63.0229 160.172 63.0229C158.676 63.0229 157.368 62.2761 156.62 61.5293C154.564 59.4756 154.377 55.5549 154.377 52.5677C154.377 50.7007 154.564 48.0869 154.938 45.2864C155.312 42.8593 155.872 40.6189 158.115 39.312C159.237 38.5651 160.546 38.3784 161.48 38.005C164.284 37.4449 163.723 37.6316 165.779 37.0715V39.312C164.845 39.4987 164.097 39.6853 163.349 39.872C161.854 40.2454 160.919 40.4321 159.985 40.8055C159.237 41.1789 158.489 41.5524 157.929 42.2992C157.181 43.4194 156.807 45.4731 156.807 46.78ZM162.789 58.5421C163.163 57.4219 163.349 55.1815 163.349 53.6879C163.349 52.1943 163.163 49.7672 162.789 48.647C162.228 47.1534 161.106 46.5933 160.359 46.5933C159.798 46.5933 158.302 46.78 157.555 49.0204C157.181 50.1406 157.181 52.0076 157.181 53.3145C157.181 54.8081 157.368 57.4219 157.742 58.3554C158.302 60.2224 159.611 60.5958 160.359 60.5958C160.919 60.7825 162.228 60.4091 162.789 58.5421Z" fill="#606060"/>
<path d="M169.704 44.3529H172.135V47.3401C172.321 46.5933 172.695 45.6598 173.256 45.0997C174.191 44.1662 175.125 43.9795 175.873 43.9795C177.555 43.9795 178.677 44.7263 179.612 46.0332C180.92 47.9002 181.294 51.0741 181.294 53.1278C181.294 55.1815 180.92 58.1687 179.985 60.0358C178.864 62.0895 177.368 62.8363 175.686 62.8363C174.191 62.8363 173.443 62.2762 173.256 62.0895C172.882 61.7161 172.508 61.3427 172.135 60.7826V68.8107H169.518V44.3529H169.704ZM172.321 55.3682C172.321 56.8618 172.321 58.3554 173.256 59.4756C173.817 60.4092 174.565 60.5959 175.499 60.5959C176.621 60.5959 177.555 59.8491 177.929 59.1023C178.49 58.1687 178.677 54.9948 178.677 53.3145C178.677 52.0076 178.677 49.0204 177.742 47.5268C177.182 46.5933 176.621 46.2199 175.686 46.2199C174.565 46.2199 173.817 46.9667 173.443 47.3401C172.695 48.2736 172.321 50.3273 172.321 52.0076V55.3682Z" fill="#606060"/>
<path d="M193.07 62.4629C192.696 61.3427 192.696 60.4092 192.696 59.8491C192.509 60.5959 191.948 61.5294 191.388 61.9028C190.453 62.6496 189.518 62.8363 188.584 62.8363C186.714 62.8363 185.593 61.9028 185.032 61.5294C184.284 60.7826 183.724 59.4756 183.724 57.6086C183.724 54.0613 185.593 52.5677 186.901 52.0076C188.584 51.2608 190.827 51.0741 192.322 51.2608C192.322 49.0204 192.322 47.7135 191.761 46.9667C191.388 46.5933 190.827 46.0332 189.705 46.0332C188.958 46.0332 188.023 46.2199 187.275 47.3401C186.901 47.9002 186.714 49.0204 186.714 49.3938L184.284 48.8337C184.471 47.5268 185.219 46.2199 185.967 45.4731C187.275 44.1662 188.771 43.9795 190.079 43.9795C190.827 43.9795 192.135 44.1662 193.257 44.7263C195.126 46.0332 195.126 48.0869 195.126 50.8874V58.1687C195.126 59.289 195.126 60.7826 195.313 62.4629H193.07ZM187.462 54.6214C186.901 55.3682 186.528 56.6751 186.528 57.6086C186.528 58.3554 186.714 59.4757 187.275 60.0358C187.649 60.4092 188.397 60.7826 188.958 60.7826C189.705 60.7826 190.827 60.4092 191.575 59.1023C192.322 57.6086 192.509 55.7416 192.509 53.3145C190.453 53.3145 188.584 53.5012 187.462 54.6214Z" fill="#606060"/>
<path d="M200.921 57.0485C200.921 57.7953 201.108 59.1023 201.482 59.6624C202.042 60.7826 203.164 60.7826 203.912 60.7826C204.659 60.7826 205.594 60.5959 206.155 59.8491C206.716 59.1023 206.716 58.1687 206.716 57.4219C206.716 56.6751 206.529 55.5549 205.781 54.8081C205.22 54.4347 204.286 53.8746 203.164 53.8746H202.042V51.6342H203.164C204.286 51.6342 205.22 51.2608 205.594 50.8874C206.342 50.3273 206.342 49.3938 206.342 48.647C206.342 48.0869 206.342 47.3401 205.781 46.78C205.407 46.4066 204.659 46.0332 203.912 46.0332C202.603 46.0332 201.856 46.78 201.482 47.1534C201.108 47.7135 200.921 48.647 200.734 49.3938L198.491 49.0204C198.678 47.5268 199.426 46.0332 200.36 45.0997C201.482 44.1662 202.977 43.9795 203.912 43.9795C205.033 43.9795 206.529 44.1662 207.65 45.2864C208.398 46.0332 208.772 47.1534 208.772 48.647C208.772 49.5805 208.585 50.514 208.024 51.0741C207.463 51.8209 206.716 52.381 205.594 52.7544C206.529 52.9411 207.276 53.3145 207.837 53.8746C208.585 54.6214 208.959 55.7416 208.959 57.4219C208.959 59.1022 208.398 60.4092 207.65 61.156C206.342 62.4629 204.846 62.8363 203.351 62.8363C201.856 62.8363 200.173 62.6496 198.865 60.9693C198.117 59.8491 197.743 58.1687 197.743 57.0485H200.921Z" fill="#606060"/>
<path d="M222.044 45.6598C223.726 47.7135 224.1 51.0741 224.1 53.5012C224.1 56.3017 223.539 59.6623 222.044 61.3427C221.109 62.2762 219.801 63.023 218.305 63.023C216.81 63.023 215.315 62.2762 214.567 61.3427C213.072 59.6623 212.511 56.4884 212.511 53.5012C212.511 51.2608 212.885 47.7135 214.567 45.6598C215.502 44.5396 216.81 43.9795 218.305 43.9795C219.801 43.9795 221.109 44.7263 222.044 45.6598ZM215.502 58.5421C216.062 60.4091 217.371 60.7826 218.119 60.7826C218.866 60.7826 220.175 60.4091 220.736 58.5421C221.109 57.2352 221.296 54.9948 221.296 53.5012C221.296 52.0076 221.109 49.5805 220.736 48.4603C220.175 46.4066 218.679 46.2199 218.119 46.2199C217.745 46.2199 216.249 46.4066 215.502 48.4603C215.128 49.5805 214.941 52.0076 214.941 53.5012C214.941 54.9948 215.128 57.2352 215.502 58.5421Z" fill="#606060"/>
<path d="M227.652 44.3528H233.82C235.503 44.3528 236.437 44.9129 236.811 45.473C237.559 46.2198 237.933 47.5267 237.933 48.8336C237.933 49.5804 237.746 50.5139 237.372 51.2607C236.811 52.1942 236.25 52.7543 235.503 52.941C236.624 53.3144 237.185 54.0612 237.559 54.4346C238.12 55.1814 238.307 56.4883 238.307 57.4218C238.307 58.9154 237.933 60.2223 236.998 61.1559C236.437 61.716 235.503 62.4628 233.82 62.4628H227.465V44.3528H227.652ZM232.512 52.0075C233.633 52.0075 234.194 51.6341 234.568 51.2607C235.129 50.7006 235.316 49.7671 235.316 49.0203C235.316 48.0868 235.129 47.5267 234.568 46.9666C234.007 46.5932 233.446 46.4065 232.699 46.4065H230.269V52.0075H232.512ZM232.512 60.5958C233.073 60.5958 234.007 60.5958 234.755 60.0356C235.316 59.4755 235.69 58.542 235.69 57.4218C235.69 56.4883 235.316 55.3681 234.755 54.808C234.194 54.2479 233.073 54.0612 232.512 54.0612H230.082V60.5958H232.512Z" fill="#606060"/>
<path d="M250.083 62.4629C249.709 61.3427 249.709 60.4092 249.709 59.8491C249.522 60.5959 248.961 61.5294 248.4 61.9028C247.466 62.6496 246.531 62.8363 245.596 62.8363C243.727 62.8363 242.606 61.9028 242.045 61.5294C241.297 60.7826 240.736 59.4756 240.736 57.6086C240.736 54.0613 242.606 52.5677 243.914 52.0076C245.596 51.2608 247.84 51.0741 249.335 51.2608C249.335 49.0204 249.335 47.7135 248.774 46.9667C248.4 46.5933 247.84 46.0332 246.718 46.0332C245.97 46.0332 245.036 46.2199 244.288 47.3401C243.914 47.9002 243.727 49.0204 243.727 49.3938L241.297 48.8337C241.484 47.5268 242.232 46.2199 242.979 45.4731C244.288 44.1662 245.783 43.9795 247.092 43.9795C247.84 43.9795 249.148 44.1662 250.27 44.7263C252.139 46.0332 252.139 48.0869 252.139 50.8874V58.1687C252.139 59.289 252.139 60.7826 252.326 62.4629H250.083ZM244.475 54.6214C243.914 55.3682 243.54 56.6751 243.54 57.6086C243.54 58.3554 243.727 59.4757 244.288 60.0358C244.662 60.4092 245.409 60.7826 245.97 60.7826C246.718 60.7826 247.84 60.4092 248.587 59.1023C249.335 57.6086 249.522 55.7416 249.522 53.3145C247.466 53.3145 245.596 53.5012 244.475 54.6214Z" fill="#606060"/>
<path d="M256.252 44.3528H258.869V52.0075H264.103V44.3528H266.72V62.4628H264.103V54.0612H258.869V62.4628H256.252V44.3528Z" fill="#606060"/>
<path d="M271.206 44.3528H273.823V55.7415L273.636 57.7952L274.384 55.9282L279.244 45.473V44.3528H281.674V62.4628H279.244V51.2607V49.3937L278.496 51.2607L273.823 61.3425V62.4628H271.206V44.3528Z" fill="#606060"/>
<path d="M293.637 54.6213H290.833L287.468 62.6495H284.478L288.216 54.4346C287.468 54.2479 286.721 53.6878 286.347 53.1277C285.225 52.0075 285.225 50.5139 285.225 49.3937C285.225 48.0868 285.412 46.4065 287.095 45.2863C288.403 44.3528 289.711 44.3528 291.02 44.3528H296.441V62.4628H293.824V54.6213H293.637ZM293.637 46.5932H290.833C290.085 46.5932 288.964 46.5932 288.403 47.34C288.029 47.7134 287.655 48.4602 287.655 49.5804C287.655 50.3272 287.842 51.074 288.216 51.6341C288.964 52.5676 289.898 52.5676 290.833 52.5676H293.637V46.5932Z" fill="#606060"/>
<path d="M318.498 62.4628H308.778V66.9436H306.535V60.409H308.031C308.965 58.7287 309.526 56.8617 309.9 54.808C310.274 52.3809 310.648 47.34 310.648 44.3528H319.059V60.409H320.742V66.9436H318.498V62.4628ZM316.629 60.409V46.5932H312.891C312.704 48.6469 312.517 52.1942 312.33 54.4346C311.956 56.4883 311.582 58.3553 310.835 60.409H316.629Z" fill="#606060"/>
<path d="M325.227 53.8746C325.227 55.3682 325.414 58.1687 326.162 59.4756C326.723 60.4091 327.844 60.7826 328.779 60.7826C329.527 60.7826 330.274 60.4092 330.648 59.8491C331.209 59.289 331.583 57.7953 331.77 57.0485L334.013 57.6086C333.826 58.1687 333.639 59.2889 333.078 60.2225C331.957 62.2762 330.274 62.8363 328.592 62.8363C326.723 62.8363 325.227 62.2762 324.106 60.5959C322.797 58.5422 322.61 55.5549 322.61 53.6879C322.61 50.8874 322.984 47.9002 324.48 46.0332C325.788 44.1662 327.284 43.9795 328.405 43.9795C329.714 43.9795 331.209 44.1662 332.517 45.8465C333.639 47.3401 334.387 49.5805 334.387 53.8746H325.227ZM331.583 51.6342C331.583 49.2071 331.209 48.0869 330.835 47.3401C330.461 46.5933 329.527 46.0332 328.592 46.0332C327.844 46.0332 326.91 46.4066 326.349 47.3401C325.788 48.2736 325.601 49.5805 325.414 51.4475H331.583V51.6342Z" fill="#606060"/>
<path d="M339.621 46.5932H335.135V44.3528H346.537V46.5932H342.051V62.4628H339.621V46.5932Z" fill="#606060"/>
<path d="M349.902 53.8746C349.902 55.3682 350.089 58.1687 350.837 59.4756C351.398 60.4091 352.519 60.7826 353.454 60.7826C354.201 60.7826 354.949 60.4092 355.323 59.8491C355.884 59.289 356.258 57.7953 356.445 57.0485L358.688 57.6086C358.501 58.1687 358.314 59.2889 357.753 60.2225C356.631 62.2762 354.949 62.8363 353.267 62.8363C351.398 62.8363 349.902 62.2762 348.781 60.5959C347.472 58.5422 347.285 55.5549 347.285 53.6879C347.285 50.8874 347.659 47.9002 349.154 46.0332C350.463 44.1662 351.958 43.9795 353.08 43.9795C354.388 43.9795 355.884 44.1662 357.192 45.8465C358.314 47.3401 359.062 49.5805 359.062 53.8746H349.902ZM356.258 51.6342C356.258 49.2071 355.884 48.0869 355.51 47.3401C355.136 46.5933 354.201 46.0332 353.267 46.0332C352.519 46.0332 351.584 46.4066 351.024 47.3401C350.463 48.2736 350.276 49.5805 350.089 51.4475H356.258V51.6342Z" fill="#606060"/>
<path d="M361.865 44.3528H364.482V55.7416L364.295 57.6086L365.043 55.7416L369.903 45.2863V44.1661H372.52V62.2761H369.903V51.0741L370.09 49.0204L369.342 51.0741L364.482 61.1559V62.2761H361.865V44.3528ZM371.212 38.3784C371.212 39.4986 370.838 40.4321 370.09 41.1789C369.155 42.1124 368.034 42.2991 367.099 42.2991C366.165 42.2991 364.856 42.1124 363.921 41.1789C363.174 40.4321 362.8 39.3119 362.8 38.3784H365.043C365.043 39.1252 365.23 39.6853 365.417 40.0587C365.791 40.6188 366.351 40.8055 366.912 40.8055C367.473 40.8055 368.034 40.6188 368.408 40.0587C368.595 39.6853 368.968 39.1252 368.782 38.3784H371.212Z" fill="#606060"/>
<path d="M388.782 58.542H387.287L384.296 53.3144L387.287 47.7134H388.782L387.1 53.3144L388.782 58.542ZM393.081 58.542H391.586L388.595 53.3144L391.586 47.7134H393.081L391.399 53.3144L393.081 58.542Z" fill="#606060"/>
<path d="M399.438 38.0051H396.634V62.4629H399.438V38.0051Z" fill="#606060"/>
<path d="M405.98 40.4322H401.307V38.0051H413.644V40.4322H408.784V62.4629H405.98V40.4322Z" fill="#606060"/>
<path d="M420.747 52.1943H414.578V54.4347H420.747V52.1943Z" fill="#606060"/>
<path d="M424.299 62.4629V44.3529H426.916V51.8209H428.598C429.346 51.8209 430.094 51.6342 430.467 50.3273C430.654 49.7672 430.654 49.0204 430.841 48.0869C430.841 47.3401 431.028 46.5933 431.215 45.8465C431.776 44.1662 432.897 43.9795 433.458 43.9795C433.645 43.9795 434.206 44.1662 434.393 44.1662V46.2199C434.019 46.2199 433.645 46.4066 433.645 46.4066C433.458 46.5933 433.271 47.1534 433.271 48.0869C433.084 49.7672 433.084 50.3273 432.897 50.8874C432.524 52.0076 431.963 52.381 431.028 52.7544C432.524 53.1278 432.897 54.4347 433.084 55.3682C433.458 56.8618 433.458 58.7289 433.645 59.6624C433.832 59.8491 434.019 60.5959 434.954 60.2225V62.2762C434.58 62.4629 434.393 62.4629 433.832 62.4629C431.963 62.4629 431.589 61.156 431.215 60.4092C431.028 59.849 430.841 58.7288 430.654 56.6751C430.467 55.9283 430.467 54.9948 430.094 54.4347C429.72 54.0613 429.346 53.8746 428.785 53.8746H427.103V62.2762H424.299V62.4629Z" fill="#606060"/>
<path d="M437.945 44.3528L440.935 56.8617L444.113 44.3528H446.543L441.309 64.1431C440.935 65.2633 440.375 66.9436 439.627 67.8771C438.692 68.8106 437.758 68.9973 437.01 68.9973C436.449 68.9973 435.888 68.8106 435.514 68.8106V66.5702C435.888 66.7569 436.262 66.9436 436.823 66.9436C437.758 66.9436 437.944 66.5702 438.318 65.8234C438.505 65.2633 438.879 64.1431 438.879 63.7697L439.44 61.5293L435.141 44.7262H437.945V44.3528Z" fill="#606060"/>
<path d="M450.094 46.78C451.029 45.4731 452.337 44.5396 454.02 44.5396C456.076 44.5396 457.384 45.6598 458.319 47.3401C458.88 48.647 459.44 50.514 459.44 53.3145C459.44 58.1687 457.945 60.4091 457.758 60.7825C456.637 62.4628 454.767 63.0229 453.459 63.0229C451.963 63.0229 450.655 62.2761 449.907 61.5293C447.851 59.4756 447.664 55.5549 447.664 52.5677C447.664 50.7007 447.851 48.0869 448.225 45.2864C448.599 42.8593 449.159 40.6189 451.403 39.312C452.524 38.5651 453.833 38.3784 454.767 38.005C457.571 37.4449 457.01 37.6316 459.067 37.0715V39.312C458.132 39.4987 457.384 39.6853 456.637 39.872C455.141 40.2454 454.206 40.4321 453.272 40.8055C452.524 41.1789 451.776 41.5524 451.216 42.2992C450.468 43.4194 450.094 45.4731 450.094 46.78ZM456.076 58.5421C456.45 57.4219 456.637 55.1815 456.637 53.6879C456.637 52.1943 456.45 49.7672 456.076 48.647C455.515 47.1534 454.393 46.5933 453.646 46.5933C453.085 46.5933 451.59 46.78 450.842 49.0204C450.468 50.1406 450.468 52.0076 450.468 53.3145C450.468 54.8081 450.655 57.4219 451.029 58.3554C451.59 60.2224 452.898 60.5958 453.646 60.5958C454.207 60.7825 455.515 60.4091 456.076 58.5421Z" fill="#606060"/>
<path d="M461.871 47.7134H463.366L466.357 53.3144L463.366 58.542H461.871L463.553 53.3144L461.871 47.7134ZM466.357 47.7134H467.853L470.844 53.3144L467.853 58.542H466.357L468.04 53.3144L466.357 47.7134Z" fill="#606060"/>
<path d="M494.21 59.849V62.4628H481.686V59.849C484.116 57.4219 485.05 56.6751 485.798 55.7416C488.415 52.941 489.536 50.7006 490.097 50.1405C490.845 48.6469 491.593 46.9666 491.593 44.9129C491.593 43.606 491.219 41.9257 490.471 40.9922C489.723 40.0587 488.789 40.0587 488.228 40.0587C487.106 40.0587 486.359 40.4321 485.798 41.1789C484.863 42.2991 484.489 44.5395 484.489 45.473L482.059 44.7262C482.246 42.6725 482.994 40.4321 484.489 39.1252C485.237 38.3784 486.546 37.6316 488.602 37.6316C489.723 37.6316 491.406 37.8183 492.714 39.3119C494.397 40.9922 494.583 43.2326 494.583 44.7262C494.583 47.1533 494.023 49.0203 492.714 51.074C491.219 53.8746 489.723 55.1815 488.415 56.6751C487.293 57.982 486.546 58.7288 484.863 60.0357H494.21V59.849Z" fill="#606060"/>
<path d="M510.659 50.1405C510.659 60.0357 507.668 63.0229 503.93 63.0229C499.63 63.0229 497.2 59.2889 497.2 50.1405C497.2 43.2326 498.509 37.6316 503.93 37.6316C509.537 37.6316 510.659 45.0996 510.659 50.1405ZM500.004 49.7671C500.004 57.4219 500.939 60.7825 503.93 60.7825C505.986 60.7825 507.855 58.9155 507.855 51.4475C507.855 46.9666 507.668 40.0587 503.743 40.0587C499.817 39.872 500.004 46.4065 500.004 49.7671Z" fill="#606060"/>
<path d="M525.613 59.849V62.4628H513.089V59.849C515.519 57.4219 516.454 56.6751 517.201 55.7416C519.818 52.941 520.94 50.7006 521.501 50.1405C522.248 48.6469 522.996 46.9666 522.996 44.9129C522.996 43.606 522.622 41.9257 521.874 40.9922C521.127 40.0587 520.192 40.0587 519.631 40.0587C518.51 40.0587 517.762 40.4321 517.201 41.1789C516.267 42.2991 515.893 44.5395 515.893 45.473L513.463 44.7262C513.65 42.6725 514.397 40.4321 515.893 39.1252C516.64 38.3784 517.949 37.6316 520.005 37.6316C521.127 37.6316 522.809 37.8183 524.118 39.3119C525.8 40.9922 525.987 43.2326 525.987 44.7262C525.987 47.1533 525.426 49.0203 524.118 51.074C522.622 53.8746 521.127 55.1815 519.818 56.6751C518.697 57.982 517.949 58.7288 516.267 60.0357H525.613V59.849Z" fill="#606060"/>
<path d="M532.903 48.647H534.772C536.641 48.647 537.389 47.9002 537.576 47.7135C538.324 46.9667 538.511 45.2864 538.511 44.3529C538.511 43.2327 538.137 41.9258 537.576 41.179C537.202 40.6189 536.454 40.2455 535.146 40.2455C534.024 40.2455 533.277 40.6189 532.903 40.9923C532.155 41.5524 531.594 42.8593 531.407 43.9795L529.164 43.4194C529.351 41.7391 530.286 40.0588 531.594 38.9386C533.09 37.8184 535.146 37.8184 535.333 37.8184C537.015 37.8184 538.511 38.5652 539.445 39.4987C540.567 40.8056 541.128 42.8593 541.128 44.3529C541.128 45.4731 540.754 46.9667 540.193 47.9002C539.445 49.0204 538.698 49.3938 537.763 49.7672C539.071 50.1406 540.006 50.8874 540.567 51.4475C541.501 52.5677 541.875 54.248 541.875 55.9283C541.875 58.1688 541.128 60.0358 540.006 61.156C538.698 62.4629 536.641 63.2097 534.959 63.2097C533.651 63.2097 532.155 62.8363 531.22 62.0895C529.164 60.7826 528.604 58.3554 528.604 57.2352L531.034 56.4884C531.034 57.7953 531.781 59.289 532.716 60.0358C533.277 60.4092 534.585 60.7826 535.333 60.7826C536.641 60.7826 537.576 60.2225 538.137 59.4756C539.071 58.3554 539.258 56.4884 539.258 56.115C539.258 54.8081 538.884 53.8746 538.324 52.9411C537.95 52.1943 537.015 51.2608 534.772 51.2608H533.09V48.647H532.903Z" fill="#606060"/>
<path d="M553.651 44.3528H562.811V46.5932H556.268V62.4628H553.651V44.3528Z" fill="#606060"/>
<path d="M572.905 45.6598C574.588 47.7135 574.962 51.0741 574.962 53.5012C574.962 56.3017 574.401 59.6623 572.905 61.3427C571.971 62.2762 570.662 63.023 569.167 63.023C567.671 63.023 566.176 62.2762 565.428 61.3427C563.933 59.6623 563.372 56.4884 563.372 53.5012C563.372 51.2608 563.746 47.7135 565.428 45.6598C566.363 44.5396 567.671 43.9795 569.167 43.9795C570.662 43.9795 571.971 44.7263 572.905 45.6598ZM566.55 58.5421C567.111 60.4091 568.419 60.7826 569.167 60.7826C569.915 60.7826 571.223 60.4091 571.784 58.5421C572.158 57.2352 572.345 54.9948 572.345 53.5012C572.345 52.0076 572.158 49.5805 571.784 48.4603C571.223 46.4066 569.728 46.2199 569.167 46.2199C568.793 46.2199 567.298 46.4066 566.55 48.4603C566.176 49.5805 565.989 52.0076 565.989 53.5012C565.989 54.9948 566.176 57.2352 566.55 58.5421Z" fill="#606060"/>
<path d="M587.298 62.4628H577.578V66.9436H575.335V60.409H576.83C577.765 58.7287 578.326 56.8617 578.7 54.808C579.073 52.3809 579.447 47.34 579.447 44.3528H587.859V60.409H589.541V66.9436H587.298V62.4628ZM585.616 60.409V46.5932H581.877C581.69 48.6469 581.504 52.1942 581.317 54.4346C580.943 56.4883 580.569 58.3553 579.821 60.409H585.616Z" fill="#606060"/>
<path d="M600.757 62.4629C600.384 61.3427 600.384 60.4092 600.384 59.8491C600.197 60.5959 599.636 61.5294 599.075 61.9028C598.141 62.6496 597.206 62.8363 596.271 62.8363C594.402 62.8363 593.28 61.9028 592.72 61.5294C591.972 60.7826 591.411 59.4756 591.411 57.6086C591.411 54.0613 593.28 52.5677 594.589 52.0076C596.271 51.2608 598.514 51.0741 600.01 51.2608C600.01 49.0204 600.01 47.7135 599.449 46.9667C599.075 46.5933 598.514 46.0332 597.393 46.0332C596.645 46.0332 595.71 46.2199 594.963 47.3401C594.589 47.9002 594.402 49.0204 594.402 49.3938L591.972 48.8337C592.159 47.5268 592.907 46.2199 593.654 45.4731C594.963 44.1662 596.458 43.9795 597.767 43.9795C598.514 43.9795 599.823 44.1662 600.944 44.7263C602.814 46.0332 602.814 48.0869 602.814 50.8874V58.1687C602.814 59.289 602.814 60.7826 603.001 62.4629H600.757ZM595.15 54.6214C594.589 55.3682 594.215 56.6751 594.215 57.6086C594.215 58.3554 594.402 59.4757 594.963 60.0358C595.337 60.4092 596.084 60.7826 596.645 60.7826C597.393 60.7826 598.514 60.4092 599.262 59.1023C600.01 57.6086 600.197 55.7416 600.197 53.3145C597.954 53.3145 596.084 53.5012 595.15 54.6214Z" fill="#606060"/>
</svg>
