<svg width="407" height="234" viewBox="0 0 407 234" fill="none" xmlns="http://www.w3.org/2000/svg">
<g clip-path="url(#clip0_2948_3871)">
<path d="M256.573 127.663L256.517 127.831L256.607 127.985L256.944 127.787L256.607 127.985L256.607 127.985L256.608 127.986L256.611 127.992L256.624 128.013L256.673 128.1C256.717 128.176 256.781 128.288 256.861 128.432C257.023 128.719 257.25 129.133 257.513 129.635C258.042 130.639 258.714 131.995 259.297 133.405C259.882 134.821 260.366 136.267 260.532 137.459C260.615 138.055 260.614 138.564 260.522 138.962C260.432 139.354 260.26 139.619 260.009 139.78L260.008 139.781C259.446 140.145 258.76 140.133 257.932 139.72C257.095 139.302 256.17 138.496 255.22 137.382C253.326 135.16 251.42 131.814 250.015 128.277C248.622 124.772 247.348 117.224 246.883 109.352C246.652 105.424 246.623 101.431 246.879 97.8412C247.135 94.2452 247.675 91.0797 248.569 88.7915C248.998 87.692 249.933 86.41 251.295 84.9923C252.653 83.5804 254.411 82.0585 256.454 80.4772C260.541 77.3148 265.744 73.935 271.104 70.745C281.831 64.3616 293.139 58.7681 297.327 57.2169C299.387 56.4538 302.883 55.8183 307.279 55.4084C311.665 54.9995 316.918 54.8178 322.474 54.9494C333.596 55.2129 345.889 56.7311 354.873 60.1692C363.808 63.5963 372.866 72.6255 380.082 81.6831C387.291 90.7312 392.6 99.7283 394.053 103C394.787 104.653 395.821 107.072 396.31 109.772C396.799 112.47 396.737 115.416 395.313 118.141C392.47 123.581 384.047 128.388 362.763 128.272H362.761H329.118C329.1 128.232 329.079 128.186 329.057 128.136C328.949 127.895 328.789 127.541 328.582 127.087C328.167 126.179 327.564 124.872 326.807 123.276C325.294 120.083 323.168 115.732 320.716 111.095C318.264 106.46 315.484 101.536 312.662 97.1997C309.845 92.8706 306.969 89.1008 304.323 86.7964L304.133 86.6308L303.903 86.7355L304.066 87.0915C303.903 86.7355 303.903 86.7356 303.903 86.7357L303.902 86.7361L303.899 86.7376L303.885 86.7438L303.832 86.7682L303.623 86.8638C303.441 86.9478 303.172 87.0714 302.828 87.2304C302.14 87.5482 301.152 88.0072 299.95 88.5719C297.545 89.7011 294.282 91.2534 290.851 92.9452C287.42 94.6367 283.818 96.469 280.735 98.1581C277.662 99.8419 275.075 101.399 273.697 102.54L273.568 102.647L273.556 102.814L273.947 102.841C273.556 102.814 273.556 102.815 273.556 102.815L273.556 102.815L273.556 102.816L273.556 102.82L273.556 102.829L273.554 102.858C273.553 102.883 273.553 102.918 273.552 102.964C273.552 103.055 273.555 103.188 273.565 103.365C273.587 103.717 273.641 104.241 273.77 104.945C274.028 106.354 274.586 108.483 275.785 111.401L275.785 111.402C276.05 112.042 276.345 112.723 276.649 113.424C276.691 113.519 276.733 113.615 276.774 113.712C277.123 114.515 277.479 115.342 277.814 116.171C278.486 117.832 279.061 119.478 279.312 120.925C279.566 122.386 279.473 123.555 278.918 124.341C278.378 125.105 277.315 125.623 275.332 125.572C274.676 125.556 274.013 125.199 273.315 124.586C272.621 123.977 271.944 123.16 271.255 122.305C271.191 122.226 271.126 122.146 271.062 122.066C270.444 121.298 269.815 120.517 269.177 119.894C268.48 119.214 267.712 118.659 266.866 118.56L266.866 118.56C264.435 118.278 262.126 119.778 260.33 121.666C258.523 123.566 257.143 125.954 256.573 127.663Z" fill="#5479F7" stroke="black" stroke-width="0.782692"/>
<path d="M259.133 140.698C258.858 140.698 258.572 140.652 258.285 140.56C255.092 139.579 251.445 133.625 249.413 128.514C249.365 128.387 249.425 128.237 249.568 128.191C249.7 128.144 249.855 128.202 249.903 128.341C252.294 134.364 255.893 139.302 258.44 140.086C259.074 140.283 259.612 140.225 260.09 139.913C262.278 138.506 258.404 130.775 256.73 127.925C256.694 127.868 256.682 127.787 256.706 127.718C257.878 124.198 262.278 118.164 266.857 118.718C268.316 118.891 269.608 120.483 270.959 122.179C272.346 123.91 273.792 125.698 275.323 125.733C275.466 125.733 275.586 125.848 275.574 125.998C275.574 126.137 275.442 126.252 275.299 126.241C273.517 126.194 271.999 124.314 270.528 122.491C269.297 120.956 268.017 119.375 266.774 119.225C262.589 118.729 258.38 124.464 257.232 127.775C258.093 129.252 263.282 138.46 260.365 140.34C259.994 140.571 259.576 140.698 259.133 140.698Z" fill="black"/>
<path d="M390.968 123.529C390.884 123.529 390.8 123.494 390.753 123.414C390.669 123.298 390.705 123.137 390.824 123.056C400.354 116.825 395.858 106.741 394.172 102.933C393.598 101.653 392.498 99.622 391.147 97.3605C391.075 97.2336 391.123 97.0836 391.243 97.0143C391.374 96.9451 391.53 96.9913 391.602 97.1066C392.965 99.3797 394.077 101.433 394.651 102.726C396.384 106.626 401.011 117.01 391.111 123.471C391.064 123.518 391.016 123.529 390.968 123.529Z" fill="black"/>
<path d="M362.509 103.36C362.413 103.36 362.33 103.314 362.282 103.233C359.161 98.0181 355.646 92.9529 351.82 88.1645C351.736 88.0491 351.748 87.8991 351.867 87.8068C351.987 87.7261 352.142 87.7376 352.238 87.853C356.076 92.6529 359.603 97.7412 362.736 102.968C362.808 103.095 362.76 103.245 362.64 103.314C362.593 103.349 362.557 103.36 362.509 103.36Z" fill="black"/>
<path d="M343.308 104.572C343.165 104.572 343.045 104.468 343.045 104.329C343.045 104.191 343.153 104.076 343.296 104.064L365.882 103.522C366.026 103.51 366.145 103.626 366.157 103.764C366.157 103.903 366.05 104.018 365.906 104.029L343.308 104.572Z" fill="black"/>
<path d="M273.468 102.126C273.36 102.126 273.253 102.057 273.217 101.941L270.467 93.2414C270.419 93.103 270.503 92.9645 270.646 92.9299C270.789 92.8838 270.933 92.9645 270.969 93.103L273.719 101.803C273.767 101.941 273.683 102.08 273.539 102.114C273.516 102.114 273.492 102.126 273.468 102.126Z" fill="black"/>
<path d="M246.648 106.072C246.565 106.072 246.493 106.037 246.433 105.968C246.349 105.853 246.373 105.703 246.481 105.61C253.966 100.118 264.966 99.3104 273.228 103.637C273.36 103.706 273.407 103.856 273.336 103.983C273.264 104.11 273.109 104.156 272.977 104.087C264.894 99.8527 254.133 100.649 246.804 106.026C246.756 106.06 246.708 106.072 246.648 106.072Z" fill="black"/>
<path d="M276.542 123.668C276.434 123.668 276.339 123.679 276.243 123.691C275.992 122.733 275.597 121.821 275.083 120.991C275.167 120.933 275.239 120.864 275.31 120.795C276.279 119.86 276.279 118.337 275.31 117.402C274.342 116.468 272.764 116.468 271.795 117.402C271.723 117.472 271.652 117.541 271.592 117.622C270.731 117.125 269.798 116.745 268.794 116.502C268.806 116.41 268.818 116.306 268.818 116.214C268.818 114.887 267.706 113.814 266.331 113.814C264.956 113.814 263.844 114.887 263.844 116.214C263.844 116.318 263.856 116.41 263.868 116.502C262.875 116.745 261.931 117.125 261.07 117.622C261.01 117.541 260.938 117.472 260.867 117.402C259.898 116.468 258.32 116.468 257.351 117.402C256.383 118.337 256.383 119.86 257.351 120.795C257.423 120.864 257.495 120.921 257.579 120.991C257.064 121.821 256.67 122.721 256.419 123.691C256.323 123.679 256.215 123.668 256.12 123.668C254.745 123.668 253.633 124.741 253.633 126.068C253.633 127.394 254.745 128.467 256.12 128.467C256.227 128.467 256.323 128.456 256.419 128.444C256.67 129.402 257.064 130.314 257.579 131.144C257.495 131.202 257.423 131.271 257.351 131.34C256.383 132.275 256.383 133.798 257.351 134.733C258.32 135.667 259.898 135.667 260.867 134.733C260.938 134.663 261.01 134.594 261.07 134.513C261.931 135.01 262.863 135.39 263.868 135.633C263.856 135.725 263.844 135.829 263.844 135.921C263.844 137.248 264.956 138.321 266.331 138.321C267.706 138.321 268.818 137.248 268.818 135.921C268.818 135.817 268.806 135.725 268.794 135.633C269.786 135.39 270.731 135.01 271.592 134.513C271.652 134.594 271.723 134.663 271.795 134.733C272.764 135.667 274.342 135.667 275.31 134.733C276.279 133.798 276.279 132.275 275.31 131.34C275.239 131.271 275.167 131.202 275.083 131.144C275.597 130.314 275.992 129.414 276.243 128.444C276.339 128.456 276.446 128.467 276.542 128.467C277.917 128.467 279.029 127.394 279.029 126.068C279.029 124.741 277.917 123.668 276.542 123.668ZM266.343 130.521C263.796 130.521 261.727 128.525 261.727 126.068C261.727 123.61 263.796 121.614 266.343 121.614C268.89 121.614 270.958 123.61 270.958 126.068C270.958 128.525 268.89 130.521 266.343 130.521Z" fill="#5479F7"/>
<path d="M342.616 39.2542C343.417 38.4811 343.811 37.3273 343.716 36.1966C343.548 34.3505 342.377 32.7121 341.061 31.4429C338.539 29.0083 334.976 27.7852 331.544 27.1391C327.586 26.4007 323.33 26.4468 319.551 27.9237C316.383 29.1583 313.537 31.3852 311.995 34.362C310.476 37.3042 310.321 41.0426 311.995 43.9618C311.947 44.0541 311.923 44.1695 311.971 44.2964C313.071 47.7578 315.486 50.6539 318.535 52.7193C321.967 55.05 326.128 56.1807 330.277 56.5499C334.354 56.9192 344.397 60.0114 348.068 58.073C351.225 56.4115 352.851 53.0308 352.851 49.4424C352.839 43.1772 345.904 39.9811 342.616 39.2542Z" fill="black"/>
<path d="M320.855 64.3035C320.855 64.3035 316.372 70.1073 322.661 73.1187C328.938 76.1302 339.532 66.0689 337.487 58.8806C336.268 54.6115 330.098 53.7807 330.098 53.7807L325.279 51.7269L317.029 61.269L320.855 64.3035Z" fill="white"/>
<path d="M324.012 66.5881C323.964 66.5881 323.916 66.5766 323.868 66.5419L321.477 64.9958C321.357 64.9151 321.321 64.7651 321.405 64.6381C321.489 64.5228 321.644 64.4882 321.776 64.5689L324.167 66.115C324.287 66.1958 324.322 66.3458 324.239 66.4727C324.179 66.5535 324.095 66.5881 324.012 66.5881Z" fill="black"/>
<path d="M327.121 51.9346C327.121 51.9346 324.466 50.0077 324.67 45.0924C324.67 45.0924 320.473 40.3156 313.179 39.681C313.179 39.681 307.165 52.3038 307.966 58.1998C308.767 64.0958 317.603 69.1842 327.121 58.5575C327.121 58.5575 333.637 59.1921 335.144 54.1384C336.65 49.0846 330.887 47.1924 327.121 51.9346Z" fill="white"/>
<path d="M315.989 64.9959C314.985 64.9959 314.136 64.8344 313.466 64.6497C310.417 63.7728 308.11 61.1883 307.703 58.2345C306.902 52.3385 312.689 40.0965 312.94 39.5773C312.988 39.485 313.095 39.4157 313.203 39.4273C320.521 40.0619 324.837 44.8733 324.873 44.931C324.921 44.9771 324.933 45.0464 324.933 45.1041C324.765 49.0501 326.499 51.0116 327.085 51.5655C329.321 48.9001 332.083 48.5194 333.745 49.327C335.419 50.1347 336.052 52.0039 335.395 54.1962C333.972 58.973 328.209 58.8576 327.24 58.8114C322.744 63.7844 318.775 64.9844 315.989 64.9959ZM313.335 39.958C312.641 41.458 307.488 52.777 308.217 58.1653C308.6 60.9229 310.764 63.3344 313.61 64.1536C316.025 64.8459 320.963 65.0305 326.917 58.3845C326.977 58.3268 327.061 58.2922 327.145 58.2922C327.408 58.3153 333.458 58.8345 334.881 54.0577C335.454 52.1193 334.928 50.4809 333.506 49.7886C331.987 49.0501 329.416 49.4655 327.324 52.0962C327.24 52.2116 327.073 52.2231 326.953 52.1424C326.846 52.0616 324.227 50.1001 324.395 45.1848C323.845 44.5964 319.839 40.5811 313.335 39.958Z" fill="black"/>
<path d="M327.92 55.9961C327.861 55.9961 327.801 55.973 327.741 55.9269C327.634 55.8346 327.622 55.673 327.717 55.5692C328.698 54.4962 330.109 53.7808 331.567 53.6077C331.711 53.5846 331.842 53.6885 331.866 53.8269C331.89 53.9654 331.782 54.0923 331.639 54.1154C330.3 54.2769 329.009 54.9346 328.112 55.9153C328.064 55.9615 327.992 55.9961 327.92 55.9961Z" fill="black"/>
<path d="M318.273 56.3076C317.759 56.3076 317.245 56.1922 316.766 55.9499C315.929 55.523 315.331 54.7846 315.08 53.8615C314.829 52.9385 314.961 51.9577 315.427 51.0693C315.905 50.1924 316.671 49.5232 317.591 49.1886C318.524 48.8539 319.492 48.9001 320.341 49.327C321.178 49.7539 321.776 50.4924 322.027 51.4154C322.278 52.3385 322.147 53.3192 321.68 54.2077C320.963 55.5346 319.612 56.3076 318.273 56.3076ZM318.823 49.4885C318.476 49.4885 318.117 49.5462 317.771 49.6732C316.97 49.9616 316.3 50.5385 315.893 51.3116C315.475 52.0846 315.367 52.9385 315.583 53.7346C315.798 54.5192 316.3 55.1538 317.005 55.4999C318.476 56.2384 320.353 55.5576 321.202 53.9769C321.621 53.2038 321.728 52.35 321.513 51.5539C321.298 50.7693 320.796 50.1347 320.09 49.7885C319.696 49.5924 319.265 49.4885 318.823 49.4885Z" fill="black"/>
<path d="M310.956 53.1347C310.43 53.1347 309.916 53.0193 309.449 52.777C307.727 51.9116 307.13 49.7194 308.11 47.8963C309.091 46.0733 311.303 45.2887 313.024 46.1541C313.861 46.581 314.459 47.3194 314.71 48.2425C314.961 49.1655 314.83 50.1463 314.363 51.0347C313.885 51.9116 313.12 52.5808 312.199 52.9154C311.793 53.0539 311.374 53.1347 310.956 53.1347ZM311.518 46.3156C310.37 46.3156 309.198 46.9848 308.576 48.1386C307.727 49.7194 308.23 51.6001 309.688 52.3385C310.394 52.6962 311.219 52.7308 312.008 52.4539C312.809 52.1655 313.479 51.5886 313.885 50.8155C314.304 50.0424 314.411 49.1886 314.196 48.3925C313.981 47.6079 313.479 46.9733 312.773 46.6271C312.379 46.4079 311.948 46.3156 311.518 46.3156Z" fill="black"/>
<path d="M321.442 54.3578C321.347 54.3578 321.251 54.3116 321.203 54.2193C321.143 54.0924 321.191 53.9424 321.323 53.8732L327.253 50.9771C327.385 50.9194 327.54 50.9655 327.612 51.0925C327.672 51.2194 327.624 51.3694 327.492 51.4386L321.562 54.3347C321.526 54.3462 321.478 54.3578 321.442 54.3578Z" fill="black"/>
<path d="M315.441 51.9232C315.297 51.9232 315.178 51.8078 315.178 51.6694C315.178 51.4271 315.106 51.254 314.986 51.1732C314.759 51.0233 314.341 51.1156 314.209 51.1617C314.077 51.2079 313.922 51.1386 313.874 51.0117C313.826 50.8848 313.898 50.7348 314.03 50.6886C314.101 50.6656 314.795 50.4348 315.285 50.7579C315.56 50.9425 315.704 51.254 315.704 51.6694C315.704 51.8078 315.596 51.9232 315.441 51.9232Z" fill="black"/>
<path d="M86.1237 139.161H187.636C191.833 139.161 195.229 135.884 195.229 131.835V113.339C195.229 109.289 191.833 106.012 187.636 106.012H86.1237C81.9269 106.012 78.5312 109.289 78.5312 113.339V131.835C78.5312 135.884 81.9269 139.161 86.1237 139.161Z" fill="white"/>
<path d="M187.635 139.415H86.1231C81.7948 139.415 78.2676 136.011 78.2676 131.835V113.339C78.2676 109.162 81.7948 105.758 86.1231 105.758H187.635C191.964 105.758 195.491 109.162 195.491 113.339V131.835C195.491 136.011 191.964 139.415 187.635 139.415ZM86.1231 106.278C82.0818 106.278 78.7937 109.451 78.7937 113.35V131.846C78.7937 135.746 82.0818 138.919 86.1231 138.919H187.635C191.677 138.919 194.965 135.746 194.965 131.846V113.339C194.965 109.439 191.677 106.266 187.635 106.266H86.1231V106.278Z" fill="black" stroke="black" stroke-width="0.782692"/>
<path d="M177.41 127.704C180.335 127.704 182.707 125.415 182.707 122.592C182.707 119.77 180.335 117.481 177.41 117.481C174.485 117.481 172.113 119.77 172.113 122.592C172.113 125.415 174.485 127.704 177.41 127.704Z" fill="#E2EAFF"/>
<path d="M96.3456 127.704H158.807C161.737 127.704 164.104 125.419 164.104 122.592C164.104 119.766 161.737 117.481 158.807 117.481H96.3456C93.4163 117.481 91.0488 119.766 91.0488 122.592C91.0488 125.419 93.4163 127.704 96.3456 127.704Z" stroke="black" stroke-width="0.782692"/>
<path d="M86.1237 176.822H187.636C191.833 176.822 195.229 173.545 195.229 169.495V151.011C195.229 146.961 191.833 143.684 187.636 143.684H86.1237C81.9269 143.684 78.5312 146.961 78.5312 151.011V169.507C78.5312 173.545 81.9269 176.822 86.1237 176.822Z" fill="white"/>
<path d="M187.635 177.076H86.1231C81.7948 177.076 78.2676 173.672 78.2676 169.495V151.011C78.2676 146.834 81.7948 143.43 86.1231 143.43H187.635C191.964 143.43 195.491 146.834 195.491 151.011V169.507C195.491 173.684 191.964 177.076 187.635 177.076ZM86.1231 143.938C82.0818 143.938 78.7937 147.111 78.7937 151.011V169.507C78.7937 173.407 82.0818 176.58 86.1231 176.58H187.635C191.677 176.58 194.965 173.407 194.965 169.507V151.011C194.965 147.111 191.677 143.938 187.635 143.938H86.1231Z" fill="black" stroke="black" stroke-width="0.782692"/>
<path d="M177.412 165.365C180.337 165.365 182.709 163.076 182.709 160.253C182.709 157.43 180.337 155.142 177.412 155.142C174.487 155.142 172.115 157.43 172.115 160.253C172.115 163.076 174.487 165.365 177.412 165.365Z" fill="white"/>
<path d="M177.411 165.618C174.351 165.618 171.852 163.207 171.852 160.253C171.852 157.299 174.351 154.888 177.411 154.888C180.472 154.888 182.971 157.299 182.971 160.253C182.971 163.207 180.472 165.618 177.411 165.618ZM177.411 155.396C174.637 155.396 172.378 157.576 172.378 160.253C172.378 162.93 174.637 165.111 177.411 165.111C180.185 165.111 182.445 162.93 182.445 160.253C182.445 157.576 180.185 155.396 177.411 155.396Z" fill="black"/>
<path d="M96.3476 165.365H158.809C161.739 165.365 164.106 163.08 164.106 160.253C164.106 157.426 161.739 155.142 158.809 155.142H96.3476C93.4182 155.142 91.0508 157.426 91.0508 160.253C91.0508 163.08 93.4182 165.365 96.3476 165.365Z" fill="white"/>
<path d="M158.797 165.618H96.347C93.2861 165.618 90.7871 163.207 90.7871 160.253C90.7871 157.299 93.2861 154.888 96.347 154.888H158.809C161.87 154.888 164.369 157.299 164.369 160.253C164.357 163.207 161.87 165.618 158.797 165.618ZM96.347 155.396C93.573 155.396 91.3132 157.576 91.3132 160.253C91.3132 162.93 93.573 165.111 96.347 165.111H158.809C161.583 165.111 163.842 162.93 163.842 160.253C163.842 157.576 161.583 155.396 158.809 155.396H96.347Z" fill="black"/>
<path d="M86.1237 214.482H187.636C191.833 214.482 195.229 211.206 195.229 207.156V188.66C195.229 184.61 191.833 181.333 187.636 181.333H86.1237C81.9269 181.333 78.5312 184.61 78.5312 188.66V207.167C78.5312 211.206 81.9269 214.482 86.1237 214.482Z" fill="white"/>
<path d="M187.635 214.736H86.1231C81.7948 214.736 78.2676 211.333 78.2676 207.156V188.66C78.2676 184.483 81.7948 181.079 86.1231 181.079H187.635C191.964 181.079 195.491 184.483 195.491 188.66V207.167C195.491 211.344 191.964 214.736 187.635 214.736ZM86.1231 181.599C82.0818 181.599 78.7937 184.772 78.7937 188.672V207.167C78.7937 211.067 82.0818 214.24 86.1231 214.24H187.635C191.677 214.24 194.965 211.067 194.965 207.167V188.672C194.965 184.772 191.677 181.599 187.635 181.599H86.1231Z" fill="black" stroke="black" stroke-width="0.782692"/>
<path d="M177.412 203.025C180.337 203.025 182.709 200.737 182.709 197.914C182.709 195.091 180.337 192.802 177.412 192.802C174.487 192.802 172.115 195.091 172.115 197.914C172.115 200.737 174.487 203.025 177.412 203.025Z" fill="white"/>
<path d="M177.411 203.279C174.351 203.279 171.852 200.867 171.852 197.914C171.852 194.96 174.351 192.548 177.411 192.548C180.472 192.548 182.971 194.96 182.971 197.914C182.971 200.879 180.472 203.279 177.411 203.279ZM177.411 193.056C174.637 193.056 172.378 195.237 172.378 197.914C172.378 200.591 174.637 202.771 177.411 202.771C180.185 202.771 182.445 200.591 182.445 197.914C182.445 195.237 180.185 193.056 177.411 193.056Z" fill="black"/>
<path d="M96.3476 203.025H158.809C161.739 203.025 164.106 200.741 164.106 197.914C164.106 195.087 161.739 192.802 158.809 192.802H96.3476C93.4182 192.802 91.0508 195.087 91.0508 197.914C91.0508 200.741 93.4182 203.025 96.3476 203.025Z" fill="white"/>
<path d="M158.797 203.279H96.347C93.2861 203.279 90.7871 200.867 90.7871 197.914C90.7871 194.96 93.2861 192.548 96.347 192.548H158.809C161.87 192.548 164.369 194.96 164.369 197.914C164.357 200.879 161.87 203.279 158.797 203.279ZM96.347 193.056C93.573 193.056 91.3132 195.237 91.3132 197.914C91.3132 200.591 93.573 202.771 96.347 202.771H158.809C161.583 202.771 163.842 200.591 163.842 197.914C163.842 195.237 161.583 193.056 158.809 193.056H96.347Z" fill="black"/>
<path d="M86.1237 252.143H187.636C191.833 252.143 195.229 248.866 195.229 244.816V226.321C195.229 222.271 191.833 218.994 187.636 218.994H86.1237C81.9269 218.994 78.5312 222.271 78.5312 226.321V244.816C78.5312 248.866 81.9269 252.143 86.1237 252.143Z" fill="white"/>
<path d="M187.635 252.397H86.1231C81.7948 252.397 78.2676 248.993 78.2676 244.817V226.321C78.2676 222.144 81.7948 218.74 86.1231 218.74H187.635C191.964 218.74 195.491 222.144 195.491 226.321V244.817C195.491 249.005 191.964 252.397 187.635 252.397ZM86.1231 219.259C82.0818 219.259 78.7937 222.432 78.7937 226.332V244.828C78.7937 248.728 82.0818 251.901 86.1231 251.901H187.635C191.677 251.901 194.965 248.728 194.965 244.828V226.332C194.965 222.432 191.677 219.259 187.635 219.259H86.1231Z" fill="black"/>
<path d="M177.412 240.686C180.337 240.686 182.709 238.397 182.709 235.575C182.709 232.752 180.337 230.463 177.412 230.463C174.487 230.463 172.115 232.752 172.115 235.575C172.115 238.397 174.487 240.686 177.412 240.686Z" fill="white"/>
<path d="M177.411 240.94C174.351 240.94 171.852 238.528 171.852 235.574C171.852 232.621 174.351 230.209 177.411 230.209C180.472 230.209 182.971 232.621 182.971 235.574C182.971 238.528 180.472 240.94 177.411 240.94ZM177.411 230.717C174.637 230.717 172.378 232.898 172.378 235.574C172.378 238.251 174.637 240.432 177.411 240.432C180.185 240.432 182.445 238.251 182.445 235.574C182.445 232.898 180.185 230.717 177.411 230.717Z" fill="black"/>
<path d="M96.3476 240.686H158.809C161.739 240.686 164.106 238.401 164.106 235.575C164.106 232.748 161.739 230.463 158.809 230.463H96.3476C93.4182 230.463 91.0508 232.748 91.0508 235.575C91.0508 238.401 93.4182 240.686 96.3476 240.686Z" fill="white"/>
<path d="M158.797 240.94H96.347C93.2861 240.94 90.7871 238.528 90.7871 235.574C90.7871 232.621 93.2861 230.209 96.347 230.209H158.809C161.87 230.209 164.369 232.621 164.369 235.574C164.369 238.528 161.87 240.94 158.797 240.94ZM96.347 230.717C93.573 230.717 91.3132 232.898 91.3132 235.574C91.3132 238.251 93.573 240.432 96.347 240.432H158.809C161.583 240.432 163.842 238.251 163.842 235.574C163.842 232.898 161.583 230.717 158.809 230.717H96.347Z" fill="black"/>
<path d="M324.917 118.441H195.438C190.607 118.441 186.686 122.225 186.686 126.887V218.292C186.686 222.954 190.607 226.738 195.438 226.738H324.905C329.735 226.738 333.657 222.954 333.657 218.292V126.887C333.657 122.214 329.747 118.441 324.917 118.441Z" fill="white"/>
<path d="M324.916 226.98H195.437C190.463 226.98 186.422 223.08 186.422 218.281V126.887C186.422 122.087 190.463 118.187 195.437 118.187H324.904C329.878 118.187 333.92 122.087 333.92 126.887V218.292C333.92 223.08 329.878 226.98 324.916 226.98ZM195.437 118.695C190.762 118.695 186.948 122.364 186.948 126.887V218.292C186.948 222.804 190.75 226.484 195.437 226.484H324.904C329.579 226.484 333.393 222.815 333.393 218.292V126.887C333.393 122.375 329.591 118.695 324.904 118.695H195.437Z" fill="black"/>
<path d="M195.437 222.434C193.07 222.434 191.145 220.577 191.145 218.292V126.887C191.145 124.602 193.07 122.745 195.437 122.745H324.904C327.271 122.745 329.196 124.602 329.196 126.887V218.292C329.196 220.577 327.271 222.434 324.904 222.434H195.437Z" fill="white"/>
<path d="M324.915 222.688H195.436C192.925 222.688 190.881 220.715 190.881 218.292V126.887C190.881 124.464 192.925 122.491 195.436 122.491H324.903C327.414 122.491 329.459 124.464 329.459 126.887V218.292C329.471 220.715 327.426 222.688 324.915 222.688ZM195.436 122.987C193.212 122.987 191.407 124.729 191.407 126.875V218.292C191.407 220.438 193.212 222.192 195.436 222.192H324.903C327.127 222.192 328.933 220.45 328.933 218.292V126.887C328.933 124.741 327.127 122.998 324.903 122.998H195.436V122.987Z" fill="black"/>
<path d="M342.014 237.192H178.339C172.516 237.192 167.781 232.634 167.781 227.004V226.588H352.56V227.004C352.56 232.634 347.837 237.192 342.014 237.192Z" fill="white"/>
<path d="M342.013 237.446H178.338C172.372 237.446 167.518 232.761 167.518 227.003V226.588C167.518 226.45 167.637 226.334 167.781 226.334H352.559C352.703 226.334 352.822 226.45 352.822 226.588V227.003C352.822 232.761 347.968 237.446 342.013 237.446ZM168.044 226.842V227.003C168.044 232.484 172.659 236.938 178.338 236.938H342.013C347.693 236.938 352.308 232.484 352.308 227.003V226.842H168.044Z" fill="black"/>
<path d="M310.629 115.383H266.939V192.008H310.629V115.383Z" fill="white"/>
<path d="M238.088 105.264L220.715 122.029V163.947H298.039V105.264H238.088Z" fill="white"/>
<path d="M298.301 164.201H220.439V121.925L237.968 105.01H298.289V164.201H298.301ZM220.978 163.693H297.787V105.518H238.195L220.978 122.144V163.693Z" fill="black"/>
<path d="M238.351 122.283H220.715V121.775H237.825V105.264H238.351V122.283Z" fill="black"/>
<path d="M295.491 148.336V144.782C295.491 142.971 293.973 141.505 292.095 141.505H271.948C270.071 141.505 268.553 142.971 268.553 144.782V148.336H213.791V203.662C213.791 207.065 216.649 209.835 220.188 209.835H304.997V148.336H295.491Z" fill="#5479F7"/>
<path d="M310.89 192.25H306.92V191.743H310.364V115.637H299.639V115.129H310.89V192.25Z" fill="black"/>
<path d="M341.44 104.641C341.44 104.641 353.349 116.075 351.902 128.883C351.902 128.883 322.369 131.11 319.045 125.975C319.045 125.975 312.086 128.11 313.557 123.275C313.557 123.275 306.538 123.495 308.93 119.572C308.93 119.572 302.569 121.591 304.195 116.837C304.195 116.837 295.55 125.41 293.793 124.729C292.035 124.048 292.716 120.183 295.861 116.699C299.006 113.214 307.22 106.406 311.871 105.772C316.51 105.126 341.44 104.641 341.44 104.641Z" fill="white"/>
<path d="M338.392 129.621C330.225 129.621 321.031 128.987 318.938 126.275C318.125 126.494 315.005 127.244 313.689 125.998C313.115 125.456 312.96 124.625 313.223 123.541C312.207 123.529 309.301 123.368 308.428 121.948C308.094 121.395 308.094 120.737 308.428 119.975C307.376 120.229 305.224 120.587 304.208 119.606C303.753 119.168 303.586 118.51 303.717 117.668C301.386 119.929 295.324 125.583 293.698 124.96C293.184 124.764 292.825 124.325 292.669 123.702C292.227 121.914 293.459 118.972 295.659 116.525C298.911 112.914 307.101 106.153 311.836 105.518C312.924 105.368 315.196 105.218 318.592 105.068C318.735 105.057 318.855 105.172 318.867 105.31C318.879 105.449 318.759 105.564 318.615 105.576C315.232 105.726 312.984 105.876 311.908 106.014C307.364 106.626 299.174 113.399 296.053 116.86C293.602 119.572 292.849 122.248 293.184 123.587C293.303 124.048 293.542 124.348 293.889 124.487C295.049 124.937 300.716 119.918 304.004 116.652C304.088 116.572 304.22 116.549 304.327 116.618C304.435 116.675 304.483 116.802 304.435 116.918C304.052 118.014 304.1 118.798 304.566 119.248C305.487 120.137 307.962 119.618 308.835 119.329C308.943 119.295 309.05 119.329 309.122 119.41C309.194 119.491 309.194 119.606 309.146 119.698C308.644 120.518 308.548 121.175 308.859 121.683C309.588 122.883 312.482 123.056 313.534 123.021C313.63 123.021 313.701 123.056 313.749 123.125C313.797 123.195 313.821 123.275 313.797 123.356C313.474 124.418 313.558 125.179 314.036 125.641C315.303 126.841 318.914 125.756 318.95 125.744C319.07 125.71 319.189 125.756 319.249 125.848C322.454 130.787 351.568 128.652 351.867 128.629C352.011 128.617 352.142 128.721 352.154 128.86C352.166 128.998 352.058 129.125 351.915 129.137C351.365 129.171 345.243 129.621 338.392 129.621Z" fill="black"/>
<path d="M273.468 102.126C273.36 102.126 273.253 102.056 273.217 101.941L270.467 93.2413C270.419 93.1029 270.503 92.9644 270.646 92.9298C270.789 92.8836 270.933 92.9644 270.969 93.1029L273.719 101.803C273.767 101.941 273.683 102.08 273.539 102.114C273.516 102.114 273.492 102.126 273.468 102.126Z" fill="black"/>
<path d="M273.957 103.533C273.921 103.072 273.933 102.853 273.933 102.853C275.739 101.364 279.708 99.1027 284.192 96.7605C282.721 94.3144 281.083 91.9606 279.206 89.7914C278.058 88.4645 276.827 87.1953 275.523 86.0069C274.172 84.7723 272.725 83.6646 271.267 82.5454C268.23 80.2032 265.061 77.9879 261.57 76.3148C254.814 80.8955 249.47 85.3838 248.202 88.6607C246.684 92.5375 246.194 98.8027 246.325 105.322C254.551 100.453 265.169 99.7489 273.957 103.533Z" fill="#5479F7"/>
<path d="M273.956 103.533C265.168 99.7488 254.562 100.453 246.324 105.31C246.516 114.529 247.986 124.244 249.648 128.421C252.482 135.552 257.348 141.967 260.23 140.109C263.099 138.252 256.954 127.787 256.954 127.787C258.054 124.487 262.346 118.429 266.818 118.96C269.664 119.295 272.139 125.894 275.319 125.975C283.486 126.183 278.524 117.056 276.144 111.264C274.446 107.156 274.04 104.653 273.956 103.533Z" fill="white"/>
<path d="M259.131 140.698C258.856 140.698 258.569 140.652 258.282 140.559C255.09 139.579 251.443 133.625 249.41 128.514C247.688 124.198 246.254 114.229 246.074 105.31C246.074 105.172 246.182 105.056 246.337 105.056C246.493 105.056 246.6 105.16 246.6 105.31C246.792 114.172 248.214 124.071 249.9 128.34C252.292 134.363 255.891 139.302 258.437 140.086C259.071 140.283 259.609 140.225 260.087 139.913C262.276 138.506 258.402 130.775 256.728 127.925C256.692 127.867 256.68 127.787 256.704 127.717C257.875 124.198 262.276 118.164 266.855 118.718C268.314 118.891 269.605 120.483 270.956 122.179C272.343 123.91 273.79 125.698 275.32 125.733C277.15 125.779 278.357 125.364 279.003 124.452C280.581 122.225 278.465 117.333 276.767 113.399C276.456 112.683 276.157 112.002 275.894 111.356C274.196 107.237 273.79 104.699 273.694 103.556C273.682 103.418 273.79 103.291 273.933 103.28C274.077 103.268 274.208 103.372 274.22 103.51C274.316 104.63 274.71 107.11 276.384 111.172C276.647 111.818 276.946 112.487 277.245 113.202C279.087 117.46 281.179 122.283 279.433 124.729C278.692 125.779 277.305 126.275 275.308 126.229C273.527 126.183 272.008 124.302 270.538 122.479C269.306 120.945 268.027 119.364 266.783 119.214C262.598 118.718 258.39 124.452 257.242 127.764C258.103 129.24 263.292 138.448 260.374 140.329C259.992 140.571 259.573 140.698 259.131 140.698Z" fill="black"/>
<path d="M275.862 123.79L275.949 124.12L276.288 124.079C276.385 124.067 276.459 124.059 276.54 124.059C277.712 124.059 278.636 124.97 278.636 126.068C278.636 127.165 277.712 128.076 276.54 128.076C276.47 128.076 276.384 128.067 276.288 128.056L275.948 128.015L275.862 128.346C275.621 129.276 275.243 130.139 274.748 130.938L274.552 131.255L274.859 131.467C274.912 131.503 274.961 131.549 275.037 131.622C275.846 132.403 275.846 133.67 275.037 134.451C274.22 135.239 272.882 135.239 272.065 134.451C271.989 134.378 271.942 134.331 271.904 134.281L271.697 134L271.394 134.174C270.566 134.652 269.656 135.019 268.699 135.252L268.359 135.336L268.404 135.683C268.416 135.777 268.425 135.846 268.425 135.921C268.425 137.019 267.501 137.93 266.329 137.93C265.157 137.93 264.233 137.019 264.233 135.921C264.233 135.857 264.242 135.775 264.254 135.683L264.299 135.335L263.958 135.252C262.991 135.019 262.093 134.653 261.263 134.174L260.961 134L260.753 134.281C260.716 134.331 260.669 134.378 260.593 134.451C259.776 135.239 258.438 135.239 257.621 134.451C256.812 133.67 256.812 132.403 257.621 131.622C257.696 131.549 257.746 131.503 257.799 131.467L258.105 131.255L257.909 130.938C257.415 130.14 257.036 129.265 256.795 128.345L256.709 128.015L256.37 128.056C256.272 128.068 256.199 128.076 256.118 128.076C254.946 128.076 254.022 127.165 254.022 126.068C254.022 124.97 254.946 124.059 256.118 124.059C256.188 124.059 256.274 124.068 256.37 124.079L256.71 124.12L256.796 123.789C257.036 122.86 257.415 121.996 257.909 121.197L258.089 120.907L257.826 120.689C257.815 120.68 257.804 120.671 257.794 120.663C257.722 120.603 257.672 120.562 257.621 120.513C256.812 119.732 256.812 118.465 257.621 117.684C258.438 116.896 259.776 116.896 260.593 117.684C260.668 117.757 260.716 117.804 260.753 117.854L260.961 118.135L261.263 117.961C262.092 117.483 263.002 117.116 263.959 116.883L264.299 116.799L264.254 116.452C264.242 116.358 264.233 116.289 264.233 116.214C264.233 115.116 265.157 114.205 266.329 114.205C267.501 114.205 268.425 115.116 268.425 116.214C268.425 116.278 268.416 116.36 268.404 116.452L268.359 116.8L268.7 116.883C269.667 117.116 270.565 117.482 271.394 117.961L271.697 118.135L271.904 117.854C271.942 117.804 271.989 117.757 272.065 117.684C272.882 116.896 274.22 116.896 275.037 117.684C275.846 118.465 275.846 119.732 275.037 120.513C274.961 120.586 274.912 120.632 274.859 120.668L274.552 120.88L274.748 121.197C275.242 121.995 275.621 122.87 275.862 123.79ZM261.334 126.068C261.334 128.754 263.591 130.913 266.341 130.913C269.09 130.913 271.347 128.754 271.347 126.068C271.347 123.381 269.09 121.222 266.341 121.222C263.591 121.222 261.334 123.381 261.334 126.068Z" fill="white" stroke="black" stroke-width="0.782692"/>
<path d="M369.753 148.336H351.268V209.835H369.753V148.336Z" fill="black"/>
<path d="M369.752 210.077H351.267C351.123 210.077 351.004 209.961 351.004 209.823V148.325C351.004 148.186 351.123 148.071 351.267 148.071H369.752C369.895 148.071 370.015 148.186 370.015 148.325V209.823C370.015 209.961 369.895 210.077 369.752 210.077ZM351.53 209.569H369.489V148.578H351.53V209.569Z" fill="black"/>
<path d="M360.512 163.936C363.444 163.936 365.821 161.642 365.821 158.813C365.821 155.983 363.444 153.69 360.512 153.69C357.58 153.69 355.203 155.983 355.203 158.813C355.203 161.642 357.58 163.936 360.512 163.936Z" fill="white"/>
<path d="M360.511 164.201C357.438 164.201 354.939 161.79 354.939 158.824C354.939 155.859 357.438 153.448 360.511 153.448C363.584 153.448 366.083 155.859 366.083 158.824C366.083 161.79 363.584 164.201 360.511 164.201ZM360.511 153.944C357.725 153.944 355.466 156.124 355.466 158.813C355.466 161.501 357.725 163.682 360.511 163.682C363.297 163.682 365.557 161.501 365.557 158.813C365.557 156.124 363.297 153.944 360.511 153.944Z" fill="black"/>
<path d="M363.583 188.604H357.438V202.831H363.583V188.604Z" fill="#E2EAFF"/>
<path d="M388.239 148.336H369.754V209.835H388.239V148.336Z" fill="black"/>
<path d="M388.252 210.077H369.767C369.623 210.077 369.504 209.962 369.504 209.823V148.325C369.504 148.186 369.623 148.071 369.767 148.071H388.252C388.395 148.071 388.515 148.186 388.515 148.325V209.823C388.515 209.962 388.395 210.077 388.252 210.077ZM370.018 209.569H387.977V148.578H370.018V209.569Z" fill="black"/>
<path d="M378.996 163.936C381.928 163.936 384.305 161.642 384.305 158.813C384.305 155.984 381.928 153.69 378.996 153.69C376.064 153.69 373.688 155.984 373.688 158.813C373.688 161.642 376.064 163.936 378.996 163.936Z" fill="white"/>
<path d="M378.996 164.201C375.923 164.201 373.424 161.79 373.424 158.824C373.424 155.859 375.923 153.448 378.996 153.448C382.069 153.448 384.567 155.859 384.567 158.824C384.567 161.79 382.08 164.201 378.996 164.201ZM378.996 153.944C376.21 153.944 373.95 156.124 373.95 158.813C373.95 161.501 376.21 163.682 378.996 163.682C381.782 163.682 384.041 161.501 384.041 158.813C384.041 156.124 381.782 153.944 378.996 153.944Z" fill="black"/>
<path d="M382.07 188.604H375.924V202.831H382.07V188.604Z" fill="#E2EAFF"/>
<path d="M406.739 148.336H388.254V209.835H406.739V148.336Z" fill="white"/>
<path d="M406.738 210.077H388.253C388.11 210.077 387.99 209.961 387.99 209.823V148.325C387.99 148.186 388.11 148.071 388.253 148.071H406.738C406.882 148.071 407.001 148.186 407.001 148.325V209.823C407.001 209.961 406.882 210.077 406.738 210.077ZM388.516 209.569H406.475V148.578H388.516V209.569Z" fill="black"/>
<path d="M397.496 163.936C400.428 163.936 402.805 161.642 402.805 158.813C402.805 155.983 400.428 153.69 397.496 153.69C394.564 153.69 392.188 155.983 392.188 158.813C392.188 161.642 394.564 163.936 397.496 163.936Z" fill="white"/>
<path d="M397.496 164.201C394.423 164.201 391.924 161.79 391.924 158.824C391.924 155.859 394.423 153.448 397.496 153.448C400.569 153.448 403.067 155.859 403.067 158.824C403.067 161.79 400.569 164.201 397.496 164.201ZM397.496 153.944C394.71 153.944 392.45 156.124 392.45 158.813C392.45 161.501 394.71 163.682 397.496 163.682C400.282 163.682 402.541 161.501 402.541 158.813C402.541 156.124 400.282 153.944 397.496 153.944Z" fill="black"/>
<path d="M400.568 188.604H394.422V202.831H400.568V188.604Z" fill="#E2EAFF"/>
<path d="M346.762 200.57H309.41C309.266 200.57 309.146 200.454 309.146 200.316C309.146 200.177 309.266 200.062 309.41 200.062H346.762C346.906 200.062 347.025 200.177 347.025 200.316C347.025 200.454 346.906 200.57 346.762 200.57Z" fill="black"/>
<path d="M40.7042 161.585C40.6564 161.354 40.5847 161.135 40.5129 160.915C42.7129 159.889 44.7097 158.562 46.4554 156.992C46.6347 157.142 46.826 157.281 47.0293 157.408C49.7674 159.127 53.4261 158.389 55.2077 155.746C56.9892 153.104 56.224 149.573 53.4859 147.854C53.2827 147.727 53.0674 147.612 52.8642 147.52C53.6414 145.35 54.1077 143.054 54.1914 140.701C54.4305 140.677 54.6696 140.654 54.9088 140.608C58.1012 139.962 60.1458 136.939 59.4762 133.847C58.8066 130.766 55.674 128.793 52.4816 129.439C52.2424 129.485 52.0153 129.555 51.7881 129.624C50.7239 127.501 49.3489 125.574 47.7228 123.889C47.8782 123.716 48.0217 123.532 48.1532 123.336C49.9348 120.693 49.1696 117.163 46.4315 115.443C43.6934 113.724 40.0347 114.463 38.2531 117.105C38.1216 117.301 38.002 117.509 37.9064 117.705C35.6585 116.943 33.2791 116.505 30.84 116.424C30.816 116.193 30.7921 115.963 30.7443 115.732C30.0747 112.651 26.9421 110.678 23.7496 111.324C20.5572 111.97 18.5126 114.993 19.1822 118.086C19.23 118.316 19.3018 118.536 19.3735 118.755C17.1735 119.782 15.1767 121.109 13.431 122.678C13.2517 122.528 13.0604 122.389 12.8571 122.263C10.119 120.543 6.46028 121.282 4.67873 123.924C2.89719 126.566 3.66242 130.097 6.4005 131.816C6.60376 131.943 6.81898 132.058 7.02224 132.151C6.24506 134.32 5.77875 136.616 5.69505 138.97C5.45592 138.993 5.21678 139.016 4.97765 139.062C1.78522 139.708 -0.259377 142.731 0.410198 145.823C1.07977 148.904 4.21242 150.877 7.40486 150.231C7.64399 150.185 7.87117 150.116 8.09835 150.046C9.16249 152.169 10.5375 154.096 12.1636 155.781C12.0082 155.954 11.8647 156.139 11.7332 156.335C9.95163 158.977 10.7169 162.508 13.4549 164.227C16.193 165.946 19.8518 165.208 21.6333 162.565C21.7648 162.369 21.8844 162.162 21.9801 161.965C24.2279 162.727 26.6073 163.165 29.0465 163.246C29.0704 163.477 29.0943 163.708 29.1421 163.938C29.8117 167.019 32.9443 168.992 36.1368 168.346C39.3292 167.688 41.3738 164.665 40.7042 161.585ZM19.1822 142.004C17.9387 136.281 21.729 130.662 27.6595 129.462C33.59 128.262 39.4129 131.92 40.6564 137.654C41.8999 143.377 38.1096 148.996 32.1791 150.196C26.2486 151.396 20.4376 147.727 19.1822 142.004Z" fill="white"/>
<path d="M34.9045 168.715C33.7208 168.715 32.561 168.381 31.5447 167.746C30.1697 166.881 29.2131 165.542 28.8784 163.985C28.8425 163.835 28.8186 163.673 28.7947 163.488C26.5109 163.385 24.2631 162.981 22.0989 162.277C22.0152 162.438 21.9315 162.577 21.8359 162.704C20.9391 164.042 19.5521 164.954 17.938 165.277C16.3238 165.6 14.6738 165.3 13.2988 164.435C10.4531 162.635 9.64005 158.942 11.5053 156.185C11.589 156.058 11.6966 155.919 11.8042 155.781C10.2618 154.154 8.97048 152.331 7.95416 150.346C7.77481 150.404 7.60741 150.439 7.45198 150.473C5.83782 150.796 4.1878 150.496 2.81278 149.631C1.42581 148.766 0.469271 147.427 0.134484 145.87C-0.57096 142.651 1.56929 139.489 4.9052 138.808C5.06064 138.774 5.22803 138.751 5.41934 138.728C5.52695 136.524 5.94543 134.343 6.67479 132.255C6.5074 132.174 6.36392 132.093 6.23239 132.001C3.3867 130.201 2.57365 126.509 4.43889 123.751C5.33564 122.413 6.72262 121.501 8.33677 121.178C9.95092 120.855 11.6009 121.155 12.976 122.02C13.1075 122.101 13.251 122.205 13.3945 122.309C15.0803 120.82 16.9695 119.574 19.0261 118.593C18.9663 118.42 18.9304 118.259 18.8945 118.109C18.1891 114.89 20.3293 111.728 23.6652 111.047C25.2794 110.724 26.9294 111.024 28.3044 111.89C29.6795 112.755 30.636 114.094 30.9708 115.651C31.0066 115.801 31.0306 115.963 31.0545 116.147C33.3382 116.251 35.5861 116.655 37.7502 117.359C37.8339 117.197 37.9176 117.059 38.0133 116.932C38.91 115.593 40.297 114.682 41.9111 114.359C43.5253 114.036 45.1753 114.336 46.5503 115.201C49.396 117.001 50.2091 120.693 48.3438 123.451C48.2601 123.578 48.1525 123.716 48.0449 123.855C49.5873 125.482 50.8787 127.305 51.895 129.289C52.0743 129.232 52.2417 129.197 52.3972 129.162C54.0113 128.839 55.6613 129.139 57.0364 130.005C58.4114 130.87 59.3679 132.208 59.7027 133.766C60.4081 136.985 58.2679 140.147 54.932 140.827C54.7765 140.862 54.6091 140.885 54.4178 140.908C54.3102 143.112 53.8918 145.293 53.1624 147.381C53.3298 147.462 53.4733 147.554 53.6048 147.635C56.4505 149.435 57.2635 153.127 55.3983 155.885C54.5015 157.223 53.1146 158.135 51.5004 158.458C49.8863 158.781 48.2362 158.481 46.8612 157.616C46.7297 157.535 46.5862 157.431 46.4427 157.327C44.7568 158.816 42.8677 160.062 40.8111 161.042C40.8709 161.215 40.9068 161.377 40.9427 161.527C41.2774 163.085 40.9785 164.677 40.0698 166.004C39.1731 167.342 37.7861 168.254 36.1719 168.577C35.7654 168.669 35.335 168.715 34.9045 168.715ZM21.9674 161.7C21.9913 161.7 22.0272 161.7 22.0511 161.712C24.2989 162.473 26.6544 162.9 29.0458 162.981C29.1773 162.981 29.2849 163.085 29.2968 163.212C29.3208 163.454 29.3447 163.673 29.3925 163.869C29.7034 165.288 30.5643 166.511 31.8317 167.308C33.0991 168.104 34.6056 168.381 36.0763 168.081C37.547 167.781 38.8144 166.95 39.6394 165.727C40.4644 164.504 40.7514 163.05 40.4405 161.631C40.3927 161.435 40.3329 161.227 40.2492 160.996C40.2013 160.869 40.2611 160.742 40.3807 160.685C42.5329 159.681 44.5057 158.377 46.2514 156.808C46.3471 156.716 46.5025 156.716 46.5982 156.796C46.7895 156.958 46.9688 157.085 47.1482 157.2C48.4156 157.996 49.9221 158.273 51.3928 157.973C52.8635 157.673 54.1309 156.842 54.9559 155.619C56.6537 153.104 55.9244 149.723 53.3178 148.073C53.1504 147.97 52.9472 147.854 52.72 147.75C52.6004 147.693 52.5406 147.566 52.5885 147.439C53.3776 145.27 53.82 142.997 53.9037 140.689C53.9037 140.562 54.0113 140.458 54.1428 140.447C54.3939 140.424 54.6211 140.401 54.8244 140.354C57.8733 139.731 59.8342 136.835 59.1886 133.905C58.8777 132.485 58.0168 131.262 56.7494 130.466C55.482 129.67 53.9754 129.393 52.5048 129.693C52.3015 129.739 52.0863 129.797 51.8472 129.878C51.7276 129.924 51.5841 129.866 51.5243 129.751C50.4841 127.674 49.133 125.77 47.5069 124.086C47.4112 123.993 47.4112 123.843 47.4949 123.751C47.6623 123.566 47.7938 123.393 47.9134 123.22C49.6113 120.705 48.8819 117.324 46.2753 115.674C45.0079 114.878 43.5014 114.601 42.0307 114.901C40.56 115.201 39.2926 116.032 38.4676 117.255C38.36 117.428 38.2404 117.613 38.1328 117.832C38.0731 117.947 37.9296 118.005 37.81 117.959C35.5621 117.197 33.2067 116.77 30.8153 116.69C30.6838 116.69 30.5762 116.586 30.5643 116.459C30.5403 116.217 30.5164 115.997 30.4686 115.801C30.1577 114.382 29.2968 113.159 28.0294 112.363C26.762 111.567 25.2555 111.29 23.7848 111.59C20.7359 112.213 18.775 115.109 19.4206 118.04C19.4684 118.236 19.5282 118.443 19.6119 118.674C19.6598 118.801 19.6 118.928 19.4804 118.986C17.3282 119.99 15.3553 121.293 13.6097 122.863C13.514 122.955 13.3586 122.955 13.2629 122.874C13.0716 122.713 12.8923 122.586 12.7129 122.47C11.4455 121.674 9.93897 121.397 8.4683 121.697C6.99762 121.997 5.73021 122.828 4.9052 124.051C3.20735 126.566 3.93671 129.947 6.54327 131.597C6.72262 131.712 6.91393 131.816 7.1411 131.92C7.26067 131.978 7.32045 132.105 7.27263 132.232C6.48349 134.401 6.04109 136.674 5.95739 138.981C5.95739 139.108 5.84978 139.212 5.71826 139.224C5.46717 139.247 5.23999 139.27 5.03673 139.316C1.98777 139.939 0.0268739 142.835 0.672535 145.766C0.983409 147.185 1.84429 148.408 3.1117 149.204C4.37911 150 5.88565 150.277 7.35632 149.977C7.55959 149.931 7.77481 149.873 8.01394 149.793C8.14546 149.746 8.27699 149.804 8.33677 149.92C9.377 151.996 10.7281 153.9 12.3542 155.585C12.4499 155.677 12.4499 155.827 12.3662 155.919C12.1988 156.104 12.0673 156.277 11.9477 156.45C10.2498 158.966 10.9792 162.346 13.5858 163.996C14.8532 164.792 16.3597 165.069 17.8304 164.769C19.3011 164.469 20.5685 163.638 21.3935 162.415C21.5011 162.242 21.6207 162.058 21.7283 161.839C21.7761 161.758 21.8717 161.7 21.9674 161.7ZM29.9066 150.681C27.7544 150.681 25.6381 150.081 23.7848 148.916C21.2739 147.335 19.5521 144.9 18.9304 142.062C17.651 136.212 21.5489 130.443 27.611 129.22C33.673 127.985 39.6513 131.747 40.9187 137.608C41.5405 140.447 40.9785 143.343 39.3285 145.766C37.6904 148.189 35.1676 149.862 32.2262 150.45C31.461 150.6 30.6838 150.681 29.9066 150.681ZM29.9305 129.485C29.2012 129.485 28.4599 129.555 27.7305 129.705C21.9554 130.882 18.2369 136.374 19.4565 141.947C20.0424 144.647 21.6924 146.966 24.0837 148.477C26.4751 149.989 29.3447 150.508 32.1425 149.943C34.9404 149.377 37.3437 147.785 38.91 145.477C40.4763 143.17 41.0144 140.401 40.4166 137.701C39.3524 132.832 34.8806 129.485 29.9305 129.485Z" fill="black"/>
<path d="M75.8552 122.216C75.8313 122.089 75.7954 121.974 75.7476 121.847C76.9552 121.282 78.0432 120.555 78.9998 119.701C79.0954 119.782 79.203 119.863 79.3106 119.932C80.8052 120.878 82.814 120.463 83.7824 119.02C84.7629 117.578 84.3325 115.64 82.8379 114.705C82.7303 114.636 82.6107 114.578 82.4911 114.52C82.9216 113.332 83.1727 112.074 83.2205 110.794C83.352 110.782 83.4835 110.77 83.6151 110.736C85.3607 110.378 86.4847 108.728 86.114 107.044C85.7433 105.359 84.0335 104.274 82.2879 104.632C82.1563 104.655 82.0368 104.69 81.9052 104.736C81.3194 103.571 80.5661 102.521 79.6813 101.598C79.765 101.505 79.8487 101.401 79.9204 101.298C80.9009 99.8554 80.4704 97.917 78.9759 96.9824C77.4813 96.0362 75.4725 96.4516 74.5041 97.8939C74.4323 97.9977 74.3725 98.1131 74.3128 98.2285C73.0812 97.8131 71.7779 97.5708 70.4507 97.5247C70.4388 97.3977 70.4268 97.2708 70.391 97.1439C70.0203 95.4593 68.3105 94.3747 66.5648 94.7324C64.8191 95.0901 63.6952 96.7401 64.0659 98.4246C64.0898 98.5516 64.1257 98.6669 64.1735 98.7939C62.9659 99.3592 61.8778 100.086 60.9213 100.94C60.8256 100.859 60.718 100.778 60.6104 100.709C59.1158 99.7631 57.1071 100.178 56.1386 101.621C55.1581 103.063 55.5886 105.001 57.0832 105.936C57.1908 106.005 57.3103 106.063 57.4299 106.121C56.9995 107.309 56.7484 108.567 56.7006 109.847C56.569 109.859 56.4375 109.871 56.306 109.905C54.5603 110.263 53.4364 111.913 53.807 113.597C54.1777 115.282 55.8875 116.367 57.6332 116.009C57.7647 115.986 57.8843 115.951 58.0158 115.905C58.6017 117.07 59.3549 118.12 60.2397 119.043C60.156 119.136 60.0723 119.24 60.0006 119.343C59.0201 120.786 59.4506 122.724 60.9452 123.659C62.4398 124.605 64.4485 124.189 65.417 122.747C65.4887 122.643 65.5485 122.528 65.6083 122.413C66.8398 122.828 68.1431 123.07 69.4703 123.116C69.4822 123.243 69.4942 123.37 69.5301 123.497C69.9007 125.182 71.6105 126.266 73.3562 125.909C75.1019 125.562 76.2139 123.901 75.8552 122.216ZM64.0778 111.509C63.3963 108.382 65.4768 105.301 68.717 104.644C71.9573 103.986 75.1378 105.994 75.8313 109.121C76.5247 112.247 74.4323 115.328 71.1921 115.986C67.9518 116.655 64.7594 114.647 64.0778 111.509Z" fill="white"/>
<path d="M72.6761 126.232C72.0065 126.232 71.3489 126.047 70.775 125.678C69.9978 125.182 69.4597 124.432 69.2684 123.543C69.2565 123.486 69.2445 123.428 69.2326 123.359C68.0369 123.301 66.8651 123.082 65.7293 122.724C65.6934 122.782 65.6575 122.828 65.6336 122.886C65.1195 123.636 64.3423 124.155 63.4216 124.339C62.5129 124.524 61.5683 124.351 60.7912 123.866C59.177 122.851 58.7226 120.751 59.7748 119.193C59.8107 119.147 59.8466 119.089 59.8824 119.043C59.0813 118.189 58.4118 117.232 57.8737 116.205C57.8139 116.216 57.7422 116.24 57.6824 116.251C55.7933 116.632 53.94 115.466 53.5454 113.643C53.1508 111.82 54.3585 110.032 56.2476 109.651C56.3074 109.64 56.3672 109.628 56.4389 109.617C56.4987 108.463 56.7259 107.332 57.0965 106.236C57.0368 106.201 56.9889 106.167 56.9291 106.144C55.315 105.128 54.8606 103.028 55.9128 101.471C56.427 100.721 57.2041 100.201 58.1248 100.017C59.0335 99.8322 59.9781 100.005 60.7553 100.49C60.8031 100.525 60.8629 100.559 60.9107 100.594C61.7955 99.8207 62.7879 99.1746 63.8521 98.6553C63.8401 98.5977 63.8162 98.5284 63.8042 98.4707C63.6129 97.5938 63.7923 96.6823 64.2945 95.9323C64.8086 95.1824 65.5858 94.6631 66.5064 94.4785C67.4152 94.2939 68.3478 94.467 69.1369 94.9516C69.9141 95.4477 70.4522 96.1977 70.6435 97.0862C70.6554 97.1438 70.6674 97.2015 70.6793 97.2708C71.875 97.3285 73.0468 97.5477 74.1826 97.9054C74.2185 97.8477 74.2544 97.8015 74.2783 97.7438C74.7924 96.9938 75.5696 96.4746 76.4903 96.29C77.399 96.1054 78.3316 96.2785 79.1208 96.7631C80.7349 97.7784 81.1893 99.8784 80.1371 101.436C80.1012 101.482 80.0653 101.54 80.0295 101.586C80.8306 102.44 81.5001 103.398 82.0382 104.424C82.098 104.401 82.1697 104.39 82.2295 104.378C83.1382 104.194 84.0708 104.367 84.86 104.851C85.6371 105.347 86.1752 106.097 86.3665 106.986C86.7611 108.809 85.5534 110.597 83.6643 110.978C83.6045 110.99 83.5447 111.001 83.473 111.013C83.4132 112.167 83.186 113.297 82.8154 114.393C82.8751 114.428 82.923 114.463 82.9828 114.486C84.5969 115.501 85.0513 117.601 83.9991 119.159C83.4849 119.909 82.7078 120.428 81.7871 120.613C80.8784 120.797 79.9338 120.624 79.1566 120.139C79.1088 120.105 79.049 120.07 79.0012 120.036C78.1164 120.809 77.124 121.455 76.0598 121.974C76.0718 122.032 76.0957 122.101 76.1077 122.159C76.299 123.036 76.1196 123.947 75.6174 124.697C75.1033 125.447 74.3261 125.966 73.4055 126.151C73.1663 126.209 72.9272 126.232 72.6761 126.232ZM65.5977 122.17C65.6216 122.17 65.6575 122.17 65.6814 122.182C66.901 122.597 68.1804 122.828 69.4717 122.874C69.6032 122.874 69.7108 122.978 69.7228 123.105C69.7347 123.243 69.7467 123.347 69.7706 123.451C69.938 124.201 70.3924 124.847 71.05 125.262C71.7196 125.678 72.5087 125.828 73.2859 125.666C74.0631 125.505 74.7326 125.066 75.1631 124.432C75.5935 123.786 75.749 123.024 75.5816 122.274C75.5577 122.17 75.5337 122.066 75.4859 121.939C75.4381 121.812 75.4979 121.686 75.6174 121.628C76.7772 121.086 77.8533 120.382 78.7979 119.528C78.8936 119.436 79.049 119.436 79.1447 119.516C79.2523 119.597 79.3479 119.666 79.4316 119.724C80.1012 120.139 80.8903 120.289 81.6675 120.128C82.4447 119.966 83.1143 119.528 83.5447 118.893C84.4415 117.566 84.0469 115.79 82.6838 114.924C82.5882 114.866 82.4925 114.809 82.373 114.751C82.2534 114.693 82.1936 114.566 82.2414 114.44C82.6719 113.263 82.911 112.028 82.9469 110.782C82.9469 110.655 83.0545 110.551 83.186 110.54C83.3175 110.528 83.4371 110.517 83.5447 110.494C85.1469 110.17 86.1752 108.647 85.8404 107.101C85.673 106.351 85.2187 105.705 84.561 105.29C83.8915 104.874 83.1023 104.724 82.3251 104.886C82.2175 104.909 82.1099 104.944 81.9784 104.978C81.8588 105.024 81.7154 104.967 81.6556 104.851C81.0936 103.721 80.3642 102.694 79.4795 101.782C79.3838 101.69 79.3838 101.54 79.4675 101.448C79.5512 101.344 79.6229 101.251 79.6827 101.171C80.5795 99.8438 80.1849 98.0669 78.8218 97.2015C78.1523 96.7862 77.3631 96.6362 76.5859 96.7977C75.8087 96.9592 75.1392 97.3977 74.7087 98.0323C74.6489 98.1246 74.5892 98.2169 74.5294 98.3323C74.4696 98.4477 74.3261 98.5054 74.2065 98.4592C72.987 98.0438 71.7076 97.8131 70.4163 97.7669C70.2848 97.7669 70.1771 97.6631 70.1652 97.5361C70.1532 97.4092 70.1413 97.2938 70.1174 97.19C69.95 96.44 69.4956 95.7939 68.838 95.3785C68.1684 94.9631 67.3793 94.8131 66.6021 94.9747C65.8249 95.1362 65.1553 95.5747 64.7249 96.2093C64.2945 96.8554 64.139 97.6169 64.3064 98.3669C64.3303 98.4707 64.3542 98.5746 64.4021 98.7015C64.4499 98.8284 64.3901 98.9553 64.2705 99.013C63.1107 99.5553 62.0346 100.259 61.0901 101.113C60.9944 101.205 60.839 101.205 60.7433 101.125C60.6357 101.044 60.5401 100.975 60.4564 100.917C59.7868 100.501 58.9976 100.351 58.2205 100.513C57.4433 100.675 56.7737 101.113 56.3433 101.748C55.4465 103.074 55.8411 104.851 57.2041 105.717C57.2998 105.774 57.3955 105.832 57.515 105.89C57.6346 105.947 57.6944 106.074 57.6465 106.201C57.2161 107.378 56.977 108.613 56.9411 109.859C56.9411 109.986 56.8335 110.09 56.702 110.101C56.5704 110.113 56.4509 110.124 56.3433 110.147C54.7411 110.47 53.7128 111.993 54.0476 113.54C54.3824 115.086 55.9606 116.078 57.5628 115.755C57.6705 115.732 57.7781 115.697 57.9096 115.663C58.0292 115.616 58.1726 115.674 58.2324 115.79C58.7944 116.92 59.5237 117.947 60.4085 118.859C60.5042 118.951 60.5042 119.101 60.4205 119.193C60.3368 119.297 60.2651 119.378 60.2053 119.47C59.3085 120.797 59.7031 122.574 61.0662 123.439C61.7357 123.855 62.5249 124.005 63.3021 123.843C64.0792 123.682 64.7488 123.243 65.1793 122.609C65.239 122.516 65.2988 122.424 65.3586 122.309C65.4184 122.228 65.5021 122.17 65.5977 122.17ZM69.9619 116.366C67.0565 116.366 64.4499 114.405 63.8281 111.567C63.1227 108.301 65.2869 105.094 68.6706 104.401C70.3087 104.067 71.9826 104.367 73.3815 105.255C74.7805 106.144 75.749 107.494 76.0837 109.074C76.4305 110.655 76.1196 112.27 75.199 113.62C74.2903 114.97 72.8794 115.905 71.2413 116.228C70.8109 116.332 70.3804 116.366 69.9619 116.366ZM64.3423 111.463C64.9879 114.451 68.0489 116.378 71.1456 115.743C72.6402 115.443 73.9315 114.59 74.7685 113.355C75.6055 112.12 75.8924 110.632 75.5816 109.19C75.2707 107.736 74.3859 106.501 73.1065 105.694C71.8272 104.886 70.2848 104.609 68.7902 104.909C65.6814 105.532 63.6847 108.474 64.3423 111.463Z" fill="black"/>
</g>
<defs>
<clipPath id="clip0_2948_3871">
<rect width="407" height="252" fill="white"/>
</clipPath>
</defs>
</svg>
