<svg width="253" height="331" viewBox="0 0 253 331" fill="none" xmlns="http://www.w3.org/2000/svg">
<path d="M148.066 162.052V208.585L188.669 232.489V186.432L148.066 162.052Z" fill="#FF722C"/>
<path d="M188.669 233.801C188.431 233.801 188.192 233.721 187.994 233.602L147.392 209.699C146.994 209.46 146.756 209.023 146.756 208.585V162.052C146.756 161.575 146.994 161.137 147.431 160.898C147.829 160.66 148.345 160.66 148.742 160.898L189.384 185.319C189.782 185.557 190.02 185.995 190.02 186.432V232.449C190.02 232.926 189.782 233.363 189.345 233.602C189.146 233.721 188.908 233.801 188.669 233.801ZM149.378 207.83L187.398 230.182V187.188L149.378 164.359V207.83Z" fill="black"/>
<path d="M115.053 96.0298L155.219 119.018L115.609 143.08L75.0469 119.217L115.053 96.0298Z" fill="#3C78EC"/>
<path d="M188.59 138.387L228.795 161.376L189.147 185.438L148.584 161.574L188.59 138.387Z" fill="#3C78EC"/>
<path d="M189.147 186.75C188.909 186.75 188.67 186.67 188.472 186.551L147.909 162.728C147.512 162.489 147.273 162.051 147.273 161.574C147.273 161.097 147.512 160.659 147.909 160.461L187.915 137.234C188.313 136.995 188.829 136.995 189.226 137.234L229.432 160.222C229.829 160.461 230.067 160.898 230.107 161.336C230.107 161.813 229.869 162.25 229.471 162.489L189.862 186.551C189.624 186.67 189.385 186.75 189.147 186.75ZM151.207 161.614L189.147 183.926L226.214 161.455L188.631 139.938L151.207 161.614Z" fill="black"/>
<path d="M153.67 211.767L193.835 188.142L155.537 165.87L115.173 189.494L74.7694 165.671L1.35156 208.506L41.9936 232.21L76.5969 211.767L80.5698 214.153L80.4903 254.641L116.246 275.482L188.67 232.289L153.67 211.767Z" fill="#3C78EC"/>
<path d="M80.5684 214.153L114.854 234.278L80.6081 254.084L80.5684 214.153Z" fill="white"/>
<path d="M116.246 276.795C116.008 276.795 115.809 276.715 115.571 276.636L79.8154 255.795C79.4181 255.556 79.1797 255.119 79.1797 254.642L79.2592 214.909L76.5974 213.318L42.6695 233.363C42.2722 233.602 41.7557 233.602 41.3584 233.363L0.676668 209.659C0.279385 209.421 0.0410156 208.983 0.0410156 208.506C0.0410156 208.029 0.279385 207.591 0.676668 207.352L74.0945 164.518C74.4918 164.279 75.0083 164.279 75.4056 164.518L115.174 187.944L154.862 164.677C155.259 164.438 155.776 164.438 156.173 164.677L194.471 186.989C194.868 187.228 195.107 187.665 195.107 188.103C195.107 188.58 194.868 189.017 194.471 189.256L156.213 211.767L189.267 231.136C189.664 231.375 189.902 231.812 189.902 232.25C189.902 232.727 189.664 233.165 189.267 233.363L116.922 276.636C116.723 276.755 116.485 276.795 116.246 276.795ZM81.8018 253.886L116.246 273.971L186.089 232.29L152.995 212.921C152.598 212.682 152.359 212.244 152.359 211.807C152.359 211.33 152.598 210.892 152.995 210.693L191.253 188.222L155.538 167.381L115.849 190.648C115.452 190.887 114.935 190.887 114.538 190.648L74.7699 167.222L3.97412 208.506L42.0338 230.699L75.9618 210.654C76.359 210.415 76.8755 210.415 77.3125 210.654L81.2853 213.04C81.6826 213.279 81.921 213.716 81.921 214.153L81.8018 253.886Z" fill="black"/>
<path d="M114.855 1.33252V95.1551L155.815 119.018L155.537 165.79L193.835 188.142L194.113 141.49L228.637 161.296V67.6327L114.855 1.33252Z" fill="#FF722C"/>
<path d="M193.836 189.455C193.597 189.455 193.399 189.375 193.16 189.296L154.862 166.984C154.465 166.745 154.227 166.308 154.227 165.83L154.505 119.814L114.181 96.3085C113.783 96.0699 113.545 95.6324 113.545 95.1551V1.33261C113.545 0.855345 113.783 0.417852 114.22 0.179219C114.618 -0.0594141 115.134 -0.0594141 115.531 0.179219L229.313 66.4794C229.71 66.718 229.949 67.1555 229.949 67.6328V161.256C229.949 161.734 229.71 162.171 229.313 162.41C228.916 162.648 228.399 162.648 228.002 162.41L195.425 143.717L195.147 188.103C195.147 188.58 194.908 189.017 194.471 189.216C194.313 189.375 194.074 189.455 193.836 189.455ZM156.849 165.075L192.525 185.875L192.803 141.49C192.803 141.012 193.041 140.575 193.478 140.376C193.875 140.137 194.392 140.137 194.789 140.376L227.366 159.029V68.3885L116.167 3.59962V94.3597L156.491 117.865C156.888 118.104 157.127 118.541 157.127 119.018L156.849 165.075Z" fill="black"/>
<path d="M114.775 1.49146V95.314V95.5526L74.4106 119.058L74.4503 166.108L74.2914 166.228L1.31055 208.744V67.6326L114.775 1.49146Z" fill="white"/>
<path d="M1.31103 210.057C1.07266 210.057 0.874022 210.017 0.675381 209.898C0.278098 209.659 0 209.222 0 208.745V67.6329C0 67.1556 0.23837 66.7181 0.635653 66.4795L114.139 0.338399C114.537 0.0997656 115.053 0.0997656 115.45 0.338399C115.848 0.577032 116.126 1.01453 116.126 1.49179V95.5529C116.126 96.0302 115.887 96.4677 115.49 96.7063L75.7618 119.854L75.8016 166.149C75.8016 166.626 75.5632 167.063 75.1659 167.302L1.98641 209.898C1.74804 210.017 1.5494 210.057 1.31103 210.057ZM2.62207 68.3886V206.478L73.1398 165.353L73.1 119.058C73.1 118.581 73.3384 118.144 73.7357 117.905L113.464 94.7575V3.7588L2.62207 68.3886Z" fill="black"/>
<path d="M74.5312 119.058V165.592L115.173 189.495V143.478L74.5312 119.058Z" fill="#FF722C"/>
<path d="M115.173 190.807C114.935 190.807 114.696 190.728 114.498 190.609L73.8954 166.745C73.4981 166.507 73.2598 166.069 73.2598 165.632V119.098C73.2598 118.621 73.4981 118.183 73.9352 117.945C74.3324 117.706 74.8489 117.706 75.2462 117.945L115.888 142.365C116.285 142.604 116.524 143.041 116.524 143.479V189.495C116.524 189.972 116.285 190.41 115.848 190.648C115.65 190.768 115.411 190.807 115.173 190.807ZM75.8421 164.876L113.862 187.228V144.234L75.8421 121.405V164.876Z" fill="black"/>
<path d="M155.693 119.019V165.552L115.369 189.137V143.001L155.693 119.019Z" fill="white"/>
<path d="M115.37 190.449C115.131 190.449 114.933 190.409 114.734 190.29C114.337 190.052 114.059 189.614 114.059 189.137V143.001C114.059 142.524 114.297 142.126 114.694 141.887L155.018 117.905C155.416 117.666 155.932 117.666 156.329 117.905C156.727 118.143 157.005 118.581 157.005 119.058V165.592C157.005 166.069 156.766 166.506 156.369 166.705L116.045 190.29C115.807 190.409 115.608 190.449 115.37 190.449ZM116.681 143.757V186.87L154.383 164.796V121.325L116.681 143.757Z" fill="black"/>
<path d="M1.35017 115.359C0.913163 115.359 0.476152 115.121 0.198054 114.723C-0.1595 114.087 0.0391416 113.291 0.674794 112.933L113.463 47.2693C114.099 46.9113 114.894 47.1102 115.251 47.7466C115.609 48.3829 115.41 49.1784 114.774 49.5363L1.98583 115.16C1.78719 115.319 1.54882 115.359 1.35017 115.359Z" fill="black"/>
<path d="M1.35017 162.767C0.913163 162.767 0.476152 162.529 0.198054 162.131C-0.1595 161.495 0.0391416 160.699 0.674794 160.341L114.059 94.3594C114.695 94.0014 115.49 94.2003 115.847 94.8367C116.205 95.473 116.006 96.2684 115.37 96.6264L1.98583 162.569C1.78719 162.688 1.54882 162.767 1.35017 162.767Z" fill="black"/>
<path d="M74.4087 167.301C73.6936 167.301 73.0977 166.705 73.0977 165.989V26.0307C73.0977 25.3148 73.6936 24.7183 74.4087 24.7183C75.1238 24.7183 75.7197 25.3148 75.7197 26.0307V165.989C75.7197 166.705 75.1238 167.301 74.4087 167.301Z" fill="black"/>
<path d="M35.9126 189.932C35.1975 189.932 34.6016 189.335 34.6016 188.62V48.1841C34.6016 47.4682 35.1975 46.8716 35.9126 46.8716C36.6277 46.8716 37.2236 47.4682 37.2236 48.1841V188.659C37.2236 189.335 36.6674 189.932 35.9126 189.932Z" fill="black"/>
<path d="M228.557 115.439C228.319 115.439 228.12 115.399 227.882 115.279L115.173 49.4963C114.537 49.1383 114.339 48.3429 114.696 47.7065C115.054 47.0702 115.848 46.8713 116.484 47.2293L229.233 112.973C229.868 113.331 230.067 114.126 229.709 114.762C229.431 115.2 228.994 115.439 228.557 115.439Z" fill="black"/>
<path d="M228.557 162.768C228.319 162.768 228.12 162.728 227.882 162.608L114.259 96.3083C113.623 95.9503 113.424 95.1549 113.782 94.5185C114.14 93.8822 114.934 93.6833 115.57 94.0413L229.193 160.341C229.828 160.699 230.027 161.495 229.669 162.131C229.431 162.529 228.994 162.768 228.557 162.768Z" fill="black"/>
<path d="M155.657 166.546C154.942 166.546 154.346 165.949 154.346 165.233V26.0307C154.346 25.3148 154.942 24.7183 155.657 24.7183C156.372 24.7183 156.968 25.3148 156.968 26.0307V165.233C156.968 165.949 156.372 166.546 155.657 166.546Z" fill="black"/>
<path d="M194.114 189.256C193.399 189.256 192.803 188.659 192.803 187.943V48.1841C192.803 47.4682 193.399 46.8716 194.114 46.8716C194.829 46.8716 195.425 47.4682 195.425 48.1841V187.983C195.425 188.699 194.869 189.256 194.114 189.256Z" fill="black"/>
<path d="M42.149 233.244C41.712 233.244 41.275 233.005 40.9969 232.608C40.6393 231.971 40.838 231.176 41.4736 230.818L154.461 164.995C155.097 164.637 155.891 164.836 156.249 165.472C156.606 166.109 156.408 166.904 155.772 167.262L42.8244 233.085C42.6257 233.204 42.3874 233.244 42.149 233.244Z" fill="black"/>
<path d="M188.311 233.244C188.073 233.244 187.874 233.204 187.636 233.085L74.6885 167.262C74.0528 166.904 73.8542 166.109 74.2117 165.472C74.5693 164.836 75.3638 164.637 75.9995 164.995L188.987 230.818C189.622 231.176 189.821 231.971 189.463 232.608C189.185 233.005 188.748 233.244 188.311 233.244Z" fill="black"/>
<path d="M149.853 255.874C149.615 255.874 149.416 255.835 149.178 255.715L36.1904 189.892C35.5548 189.534 35.3561 188.739 35.7137 188.103C36.0712 187.466 36.8658 187.267 37.5015 187.625L150.489 253.448C151.124 253.806 151.323 254.602 150.965 255.238C150.727 255.636 150.29 255.874 149.853 255.874Z" fill="black"/>
<path d="M80.6099 255.397C80.1729 255.397 79.7359 255.158 79.4578 254.761C79.1003 254.124 79.2989 253.329 79.9346 252.971L192.922 187.148C193.557 186.79 194.352 186.989 194.71 187.625C195.067 188.262 194.868 189.057 194.233 189.415L81.2853 255.238C81.0867 255.357 80.8483 255.397 80.6099 255.397Z" fill="black"/>
<path d="M163.284 150.358L123.595 127.251L83.9863 150.398L124.072 173.744L163.284 150.358Z" fill="#3C78EC"/>
<path d="M124.073 175.057C123.834 175.057 123.636 174.977 123.397 174.898L83.3114 151.552C82.9141 151.313 82.6758 150.876 82.6758 150.398C82.6758 149.921 82.9141 149.483 83.3114 149.245L122.921 126.137C123.318 125.899 123.834 125.899 124.232 126.137L163.88 149.205C164.278 149.444 164.516 149.881 164.516 150.319C164.516 150.796 164.278 151.233 163.88 151.472L124.748 174.858C124.51 175.017 124.311 175.057 124.073 175.057ZM86.6089 150.398L124.073 172.233L160.702 150.358L123.596 128.802L86.6089 150.398Z" fill="black"/>
<path d="M123.633 80.5183V127.449L163.441 150.438V104.024L123.633 80.5183Z" fill="#FF722C"/>
<path d="M163.441 151.75C163.203 151.75 163.004 151.711 162.805 151.591L122.998 128.603C122.6 128.364 122.322 127.927 122.322 127.45V80.5184C122.322 80.0411 122.561 79.6036 122.998 79.365C123.395 79.1264 123.911 79.1264 124.309 79.365L164.077 102.91C164.474 103.149 164.712 103.586 164.712 104.024V150.438C164.712 150.915 164.474 151.353 164.077 151.591C163.878 151.671 163.64 151.75 163.441 151.75ZM124.944 126.694L162.13 148.171V104.779L124.944 82.8252V126.694Z" fill="black"/>
<path d="M123.636 80.5183V127.449L84.1465 150.478V103.904L123.636 80.5183Z" fill="white"/>
<path d="M84.147 151.79C83.9086 151.79 83.71 151.75 83.5113 151.631C83.114 151.392 82.8359 150.955 82.8359 150.478V103.944C82.8359 103.467 83.0743 103.069 83.4716 102.831L122.922 79.4446C123.319 79.206 123.836 79.206 124.233 79.4446C124.63 79.6832 124.908 80.1207 124.908 80.598V127.529C124.908 128.006 124.67 128.444 124.273 128.683L84.8224 151.671C84.6237 151.711 84.3853 151.79 84.147 151.79ZM85.458 104.66V148.171L122.286 126.694V82.8252L85.458 104.66Z" fill="black"/>
<path d="M106.868 306.265L68.5305 283.953L30.2324 306.305L68.9675 328.896L106.868 306.265Z" fill="#3C78EC"/>
<path d="M68.968 330.208C68.7296 330.208 68.531 330.129 68.2926 330.049L29.5575 307.459C29.1602 307.22 28.9219 306.782 28.9219 306.305C28.9219 305.828 29.1602 305.39 29.5575 305.152L67.8556 282.8C68.2529 282.561 68.7693 282.561 69.1666 282.8L107.504 305.112C107.902 305.351 108.14 305.788 108.14 306.226C108.14 306.703 107.902 307.14 107.504 307.379L69.6036 330.009C69.4447 330.129 69.2064 330.208 68.968 330.208ZM32.855 306.305L68.968 327.384L104.286 306.305L68.531 285.504L32.855 306.305Z" fill="black"/>
<path d="M68.5312 238.772V284.152L107.028 306.345V261.482L68.5312 238.772Z" fill="#FF722C"/>
<path d="M107.028 307.658C106.79 307.658 106.591 307.618 106.393 307.499L67.8961 285.306C67.4988 285.067 67.2207 284.63 67.2207 284.152V238.772C67.2207 238.295 67.4591 237.858 67.8961 237.619C68.2934 237.38 68.8098 237.38 69.2071 237.619L107.704 260.329C108.101 260.567 108.339 261.005 108.339 261.442V306.305C108.339 306.783 108.101 307.22 107.704 307.459C107.465 307.618 107.267 307.658 107.028 307.658ZM69.8428 283.397L105.717 304.078V262.238L69.8428 241.039V283.397Z" fill="black"/>
<path d="M68.5298 238.772V284.152L30.3906 306.385V261.403L68.5298 238.772Z" fill="white"/>
<path d="M30.3911 307.697C30.1527 307.697 29.9541 307.658 29.7555 307.538C29.3582 307.3 29.0801 306.862 29.0801 306.385V261.403C29.0801 260.925 29.3185 260.528 29.7157 260.289L67.8549 237.659C68.2522 237.42 68.7686 237.42 69.1659 237.659C69.5632 237.897 69.8413 238.335 69.8413 238.812V284.192C69.8413 284.669 69.6029 285.107 69.2056 285.346L31.0665 307.578C30.8281 307.618 30.6295 307.697 30.3911 307.697ZM31.7021 262.119V304.078L67.2192 283.357V241.079L31.7021 262.119Z" fill="black"/>
<path d="M250.964 274.408L212.626 252.096L174.328 274.448L213.063 296.998L250.964 274.408Z" fill="#3C78EC"/>
<path d="M213.063 298.311C212.825 298.311 212.626 298.231 212.388 298.152L173.692 275.561C173.295 275.323 173.057 274.885 173.057 274.408C173.057 273.931 173.295 273.493 173.692 273.255L211.99 250.903C212.388 250.664 212.904 250.664 213.301 250.903L251.639 273.215C252.036 273.453 252.275 273.891 252.275 274.328C252.275 274.806 252.036 275.243 251.639 275.482L213.738 298.152C213.54 298.271 213.301 298.311 213.063 298.311ZM176.95 274.448L213.063 295.527L248.381 274.448L212.626 253.647L176.95 274.448Z" fill="black"/>
<path d="M212.668 206.915V252.255L251.125 274.487V229.624L212.668 206.915Z" fill="#FF722C"/>
<path d="M251.124 275.8C250.886 275.8 250.687 275.76 250.488 275.641L211.992 253.448C211.594 253.209 211.316 252.772 211.316 252.295V206.915C211.316 206.437 211.555 206 211.992 205.761C212.389 205.523 212.906 205.523 213.303 205.761L251.8 228.471C252.197 228.71 252.435 229.147 252.435 229.585V274.448C252.435 274.925 252.197 275.363 251.8 275.601C251.601 275.72 251.362 275.8 251.124 275.8ZM213.978 251.499L249.853 272.181V230.38L213.978 209.182V251.499Z" fill="black"/>
<path d="M212.667 206.915V252.255L174.488 274.527V229.505L212.667 206.915Z" fill="white"/>
<path d="M174.489 275.84C174.25 275.84 174.052 275.8 173.853 275.681C173.456 275.442 173.178 275.005 173.178 274.527V229.505C173.178 229.028 173.416 228.63 173.813 228.392L211.953 205.761C212.35 205.523 212.866 205.523 213.264 205.761C213.661 206 213.939 206.437 213.939 206.915V252.295C213.939 252.772 213.701 253.209 213.303 253.448L175.164 275.681C174.966 275.76 174.727 275.84 174.489 275.84ZM175.8 230.261V272.221L211.317 251.499V209.221L175.8 230.261Z" fill="black"/>
</svg>
