<svg width="516" height="418" viewBox="0 0 516 418" fill="none" xmlns="http://www.w3.org/2000/svg">
<g clip-path="url(#clip0_3154_3513)">
<path d="M170.575 270.767L133.404 249.116L96.2715 270.806L133.828 292.727L170.575 270.767Z" fill="#3C78EC"/>
<path d="M133.827 294C133.596 294 133.404 293.923 133.173 293.846L95.6163 271.886C95.2311 271.654 95 271.23 95 270.767C95 270.304 95.2311 269.879 95.6163 269.648L132.749 248.035C133.134 247.804 133.635 247.804 134.02 248.035L171.191 269.686C171.576 269.918 171.807 270.342 171.807 270.767C171.807 271.23 171.576 271.654 171.191 271.886L134.444 293.846C134.29 293.923 134.059 294 133.827 294ZM98.8134 270.805L133.827 291.26L168.071 270.805L133.404 250.621L98.8134 270.805Z" fill="black"/>
<path d="M133.404 205.274V249.309L170.729 270.844V227.311L133.404 205.274Z" fill="#FF722C"/>
<path d="M170.729 272.118C170.498 272.118 170.305 272.079 170.113 271.963L132.788 250.428C132.402 250.196 132.133 249.772 132.133 249.309V205.274C132.133 204.81 132.364 204.386 132.788 204.154C133.173 203.923 133.674 203.923 134.059 204.154L171.384 226.191C171.769 226.423 172 226.847 172 227.272V270.805C172 271.268 171.769 271.693 171.384 271.925C171.153 272.079 170.96 272.118 170.729 272.118ZM134.675 248.575L169.458 268.644V228.044L134.675 207.512V248.575Z" fill="black"/>
<path d="M133.404 205.274V249.309L96.4258 270.883V227.233L133.404 205.274Z" fill="white"/>
<path d="M96.4254 272.156C96.1943 272.156 96.0017 272.117 95.8091 272.002C95.4239 271.77 95.1543 271.346 95.1543 270.882V227.233C95.1543 226.77 95.3854 226.346 95.7706 226.114L132.749 204.193C133.134 203.961 133.635 203.961 134.02 204.193C134.405 204.425 134.675 204.849 134.675 205.312V249.347C134.675 249.81 134.444 250.235 134.059 250.467L97.0803 272.04C96.8491 272.079 96.6565 272.156 96.4254 272.156ZM97.6966 227.967V268.683L132.133 248.575V207.512L97.6966 227.967Z" fill="black"/>
</g>
<g clip-path="url(#clip1_3154_3513)">
<path d="M181.575 131.767L144.404 110.116L107.271 131.806L144.828 153.727L181.575 131.767Z" fill="#3C78EC"/>
<path d="M144.827 155C144.596 155 144.404 154.923 144.173 154.846L106.616 132.886C106.231 132.654 106 132.23 106 131.767C106 131.304 106.231 130.879 106.616 130.648L143.749 109.035C144.134 108.804 144.635 108.804 145.02 109.035L182.191 130.686C182.576 130.918 182.807 131.342 182.807 131.767C182.807 132.23 182.576 132.654 182.191 132.886L145.444 154.846C145.29 154.923 145.059 155 144.827 155ZM109.813 131.805L144.827 152.26L179.071 131.805L144.404 111.621L109.813 131.805Z" fill="black"/>
<path d="M144.404 66.2737V110.309L181.729 131.844V88.3106L144.404 66.2737Z" fill="#FF722C"/>
<path d="M181.729 133.118C181.498 133.118 181.305 133.079 181.113 132.963L143.788 111.428C143.402 111.196 143.133 110.772 143.133 110.309V66.2736C143.133 65.8105 143.364 65.3859 143.788 65.1544C144.173 64.9228 144.674 64.9228 145.059 65.1544L182.384 87.1913C182.769 87.4228 183 87.8474 183 88.2719V131.805C183 132.268 182.769 132.693 182.384 132.925C182.153 133.079 181.96 133.118 181.729 133.118ZM145.675 109.575L180.458 129.644V89.0437L145.675 68.512V109.575Z" fill="black"/>
<path d="M144.404 66.2737V110.309L107.426 131.883V88.2334L144.404 66.2737Z" fill="white"/>
<path d="M107.425 133.156C107.194 133.156 107.002 133.117 106.809 133.002C106.424 132.77 106.154 132.346 106.154 131.882V88.2333C106.154 87.7701 106.385 87.3456 106.771 87.1141L143.749 65.193C144.134 64.9614 144.635 64.9614 145.02 65.193C145.405 65.4245 145.675 65.849 145.675 66.3122V110.347C145.675 110.81 145.444 111.235 145.059 111.467L108.08 133.04C107.849 133.079 107.657 133.156 107.425 133.156ZM108.697 88.9665V129.683L143.133 109.575V68.512L108.697 88.9665Z" fill="black"/>
</g>
<g clip-path="url(#clip2_3154_3513)">
<path d="M218.575 66.7669L181.404 45.116L144.271 66.8055L181.828 88.7266L218.575 66.7669Z" fill="#3C78EC"/>
<path d="M181.827 90.0001C181.596 90.0001 181.404 89.9229 181.173 89.8457L143.616 67.886C143.231 67.6545 143 67.2299 143 66.7668C143 66.3037 143.231 65.8792 143.616 65.6476L180.749 44.0352C181.134 43.8037 181.635 43.8037 182.02 44.0352L219.191 65.6862C219.576 65.9177 219.807 66.3423 219.807 66.7668C219.807 67.2299 219.576 67.6545 219.191 67.886L182.444 89.8457C182.29 89.9229 182.059 90.0001 181.827 90.0001ZM146.813 66.8054L181.827 87.2599L216.071 66.8054L181.404 46.621L146.813 66.8054Z" fill="black"/>
<path d="M181.404 1.27368V45.3088L218.729 66.844V23.3106L181.404 1.27368Z" fill="#FF722C"/>
<path d="M218.729 68.1175C218.498 68.1175 218.305 68.0789 218.113 67.9631L180.788 46.428C180.402 46.1964 180.133 45.7719 180.133 45.3088V1.27359C180.133 0.810473 180.364 0.385944 180.788 0.154384C181.173 -0.0771773 181.674 -0.0771773 182.059 0.154384L219.384 22.1913C219.769 22.4228 220 22.8474 220 23.2719V66.8053C220 67.2685 219.769 67.693 219.384 67.9245C219.153 68.0789 218.96 68.1175 218.729 68.1175ZM182.675 44.5755L217.458 64.6441V24.0437L182.675 3.51202V44.5755Z" fill="black"/>
<path d="M181.404 1.27368V45.3088L144.426 66.8826V23.2334L181.404 1.27368Z" fill="white"/>
<path d="M144.425 68.1561C144.194 68.1561 144.002 68.1175 143.809 68.0017C143.424 67.7701 143.154 67.3456 143.154 66.8825V23.2333C143.154 22.7701 143.385 22.3456 143.771 22.1141L180.749 0.192958C181.134 -0.0386031 181.635 -0.0386031 182.02 0.192958C182.405 0.424519 182.675 0.849047 182.675 1.31217V45.3473C182.675 45.8105 182.444 46.235 182.059 46.4665L145.08 68.0403C144.849 68.0789 144.657 68.1561 144.425 68.1561ZM145.697 23.9665V64.6827L180.133 44.5755V3.512L145.697 23.9665Z" fill="black"/>
</g>
<g clip-path="url(#clip3_3154_3513)">
<path d="M329.575 394.767L292.404 373.116L255.271 394.806L292.828 416.727L329.575 394.767Z" fill="#3C78EC"/>
<path d="M292.827 418C292.596 418 292.404 417.923 292.173 417.846L254.616 395.886C254.231 395.654 254 395.23 254 394.767C254 394.304 254.231 393.879 254.616 393.648L291.749 372.035C292.134 371.804 292.635 371.804 293.02 372.035L330.191 393.686C330.576 393.918 330.807 394.342 330.807 394.767C330.807 395.23 330.576 395.654 330.191 395.886L293.444 417.846C293.29 417.923 293.059 418 292.827 418ZM257.813 394.805L292.827 415.26L327.071 394.805L292.404 374.621L257.813 394.805Z" fill="black"/>
<path d="M292.404 329.274V373.309L329.729 394.844V351.311L292.404 329.274Z" fill="#FF722C"/>
<path d="M329.729 396.118C329.498 396.118 329.305 396.079 329.113 395.963L291.788 374.428C291.402 374.196 291.133 373.772 291.133 373.309V329.274C291.133 328.81 291.364 328.386 291.788 328.154C292.173 327.923 292.674 327.923 293.059 328.154L330.384 350.191C330.769 350.423 331 350.847 331 351.272V394.805C331 395.268 330.769 395.693 330.384 395.925C330.153 396.079 329.96 396.118 329.729 396.118ZM293.675 372.575L328.458 392.644V352.044L293.675 331.512V372.575Z" fill="black"/>
<path d="M292.404 329.274V373.309L255.426 394.883V351.233L292.404 329.274Z" fill="white"/>
<path d="M255.425 396.156C255.194 396.156 255.002 396.117 254.809 396.002C254.424 395.77 254.154 395.346 254.154 394.882V351.233C254.154 350.77 254.385 350.346 254.771 350.114L291.749 328.193C292.134 327.961 292.635 327.961 293.02 328.193C293.405 328.425 293.675 328.849 293.675 329.312V373.347C293.675 373.81 293.444 374.235 293.059 374.467L256.08 396.04C255.849 396.079 255.657 396.156 255.425 396.156ZM256.697 351.967V392.683L291.133 372.575V331.512L256.697 351.967Z" fill="black"/>
</g>
<g clip-path="url(#clip4_3154_3513)">
<path d="M329.575 131.767L292.404 110.116L255.271 131.806L292.828 153.727L329.575 131.767Z" fill="#3C78EC"/>
<path d="M292.827 155C292.596 155 292.404 154.923 292.173 154.846L254.616 132.886C254.231 132.654 254 132.23 254 131.767C254 131.304 254.231 130.879 254.616 130.648L291.749 109.035C292.134 108.804 292.635 108.804 293.02 109.035L330.191 130.686C330.576 130.918 330.807 131.342 330.807 131.767C330.807 132.23 330.576 132.654 330.191 132.886L293.444 154.846C293.29 154.923 293.059 155 292.827 155ZM257.813 131.805L292.827 152.26L327.071 131.805L292.404 111.621L257.813 131.805Z" fill="black"/>
<path d="M292.404 66.2737V110.309L329.729 131.844V88.3106L292.404 66.2737Z" fill="#FF722C"/>
<path d="M329.729 133.118C329.498 133.118 329.305 133.079 329.113 132.963L291.788 111.428C291.402 111.196 291.133 110.772 291.133 110.309V66.2736C291.133 65.8105 291.364 65.3859 291.788 65.1544C292.173 64.9228 292.674 64.9228 293.059 65.1544L330.384 87.1913C330.769 87.4228 331 87.8474 331 88.2719V131.805C331 132.268 330.769 132.693 330.384 132.925C330.153 133.079 329.96 133.118 329.729 133.118ZM293.675 109.575L328.458 129.644V89.0437L293.675 68.512V109.575Z" fill="black"/>
<path d="M292.404 66.2737V110.309L255.426 131.883V88.2334L292.404 66.2737Z" fill="white"/>
<path d="M255.425 133.156C255.194 133.156 255.002 133.117 254.809 133.002C254.424 132.77 254.154 132.346 254.154 131.882V88.2333C254.154 87.7701 254.385 87.3456 254.771 87.1141L291.749 65.193C292.134 64.9614 292.635 64.9614 293.02 65.193C293.405 65.4245 293.675 65.849 293.675 66.3122V110.347C293.675 110.81 293.444 111.235 293.059 111.467L256.08 133.04C255.849 133.079 255.657 133.156 255.425 133.156ZM256.697 88.9665V129.683L291.133 109.575V68.512L256.697 88.9665Z" fill="black"/>
</g>
<g clip-path="url(#clip5_3154_3513)">
<path d="M366.575 66.7669L329.404 45.116L292.271 66.8055L329.828 88.7266L366.575 66.7669Z" fill="#3C78EC"/>
<path d="M329.827 90.0001C329.596 90.0001 329.404 89.9229 329.173 89.8457L291.616 67.886C291.231 67.6545 291 67.2299 291 66.7668C291 66.3037 291.231 65.8792 291.616 65.6476L328.749 44.0352C329.134 43.8037 329.635 43.8037 330.02 44.0352L367.191 65.6862C367.576 65.9177 367.807 66.3423 367.807 66.7668C367.807 67.2299 367.576 67.6545 367.191 67.886L330.444 89.8457C330.29 89.9229 330.059 90.0001 329.827 90.0001ZM294.813 66.8054L329.827 87.2599L364.071 66.8054L329.404 46.621L294.813 66.8054Z" fill="black"/>
<path d="M329.404 1.27368V45.3088L366.729 66.844V23.3106L329.404 1.27368Z" fill="#FF722C"/>
<path d="M366.729 68.1175C366.498 68.1175 366.305 68.0789 366.113 67.9631L328.788 46.428C328.402 46.1964 328.133 45.7719 328.133 45.3088V1.27359C328.133 0.810473 328.364 0.385944 328.788 0.154384C329.173 -0.0771773 329.674 -0.0771773 330.059 0.154384L367.384 22.1913C367.769 22.4228 368 22.8474 368 23.2719V66.8053C368 67.2685 367.769 67.693 367.384 67.9245C367.153 68.0789 366.96 68.1175 366.729 68.1175ZM330.675 44.5755L365.458 64.6441V24.0437L330.675 3.51202V44.5755Z" fill="black"/>
<path d="M329.404 1.27368V45.3088L292.426 66.8826V23.2334L329.404 1.27368Z" fill="white"/>
<path d="M292.425 68.1561C292.194 68.1561 292.002 68.1175 291.809 68.0017C291.424 67.7701 291.154 67.3456 291.154 66.8825V23.2333C291.154 22.7701 291.385 22.3456 291.771 22.1141L328.749 0.192958C329.134 -0.0386031 329.635 -0.0386031 330.02 0.192958C330.405 0.424519 330.675 0.849047 330.675 1.31217V45.3473C330.675 45.8105 330.444 46.235 330.059 46.4665L293.08 68.0403C292.849 68.0789 292.657 68.1561 292.425 68.1561ZM293.697 23.9665V64.6827L328.133 44.5755V3.512L293.697 23.9665Z" fill="black"/>
</g>
<g clip-path="url(#clip6_3154_3513)">
<path d="M477.575 394.767L440.404 373.116L403.271 394.806L440.828 416.727L477.575 394.767Z" fill="#3C78EC"/>
<path d="M440.827 418C440.596 418 440.404 417.923 440.173 417.846L402.616 395.886C402.231 395.654 402 395.23 402 394.767C402 394.304 402.231 393.879 402.616 393.648L439.749 372.035C440.134 371.804 440.635 371.804 441.02 372.035L478.191 393.686C478.576 393.918 478.807 394.342 478.807 394.767C478.807 395.23 478.576 395.654 478.191 395.886L441.444 417.846C441.29 417.923 441.059 418 440.827 418ZM405.813 394.805L440.827 415.26L475.071 394.805L440.404 374.621L405.813 394.805Z" fill="black"/>
<path d="M440.404 329.274V373.309L477.729 394.844V351.311L440.404 329.274Z" fill="#FF722C"/>
<path d="M477.729 396.118C477.498 396.118 477.305 396.079 477.113 395.963L439.788 374.428C439.402 374.196 439.133 373.772 439.133 373.309V329.274C439.133 328.81 439.364 328.386 439.788 328.154C440.173 327.923 440.674 327.923 441.059 328.154L478.384 350.191C478.769 350.423 479 350.847 479 351.272V394.805C479 395.268 478.769 395.693 478.384 395.925C478.153 396.079 477.96 396.118 477.729 396.118ZM441.675 372.575L476.458 392.644V352.044L441.675 331.512V372.575Z" fill="black"/>
<path d="M440.404 329.274V373.309L403.426 394.883V351.233L440.404 329.274Z" fill="white"/>
<path d="M403.425 396.156C403.194 396.156 403.002 396.117 402.809 396.002C402.424 395.77 402.154 395.346 402.154 394.882V351.233C402.154 350.77 402.385 350.346 402.771 350.114L439.749 328.193C440.134 327.961 440.635 327.961 441.02 328.193C441.405 328.425 441.675 328.849 441.675 329.312V373.347C441.675 373.81 441.444 374.235 441.059 374.467L404.08 396.04C403.849 396.079 403.657 396.156 403.425 396.156ZM404.697 351.967V392.683L439.133 372.575V331.512L404.697 351.967Z" fill="black"/>
</g>
<g clip-path="url(#clip7_3154_3513)">
<path d="M255.575 131.767L218.404 110.116L181.271 131.806L218.828 153.727L255.575 131.767Z" fill="#3C78EC"/>
<path d="M218.827 155C218.596 155 218.404 154.923 218.173 154.846L180.616 132.886C180.231 132.654 180 132.23 180 131.767C180 131.304 180.231 130.879 180.616 130.648L217.749 109.035C218.134 108.804 218.635 108.804 219.02 109.035L256.191 130.686C256.576 130.918 256.807 131.342 256.807 131.767C256.807 132.23 256.576 132.654 256.191 132.886L219.444 154.846C219.29 154.923 219.059 155 218.827 155ZM183.813 131.805L218.827 152.26L253.071 131.805L218.404 111.621L183.813 131.805Z" fill="black"/>
<path d="M218.404 66.2737V110.309L255.729 131.844V88.3106L218.404 66.2737Z" fill="#FF722C"/>
<path d="M255.729 133.118C255.498 133.118 255.305 133.079 255.113 132.963L217.788 111.428C217.402 111.196 217.133 110.772 217.133 110.309V66.2736C217.133 65.8105 217.364 65.3859 217.788 65.1544C218.173 64.9228 218.674 64.9228 219.059 65.1544L256.384 87.1913C256.769 87.4228 257 87.8474 257 88.2719V131.805C257 132.268 256.769 132.693 256.384 132.925C256.153 133.079 255.96 133.118 255.729 133.118ZM219.675 109.575L254.458 129.644V89.0437L219.675 68.512V109.575Z" fill="black"/>
<path d="M218.404 66.2737V110.309L181.426 131.883V88.2334L218.404 66.2737Z" fill="white"/>
<path d="M181.425 133.156C181.194 133.156 181.002 133.117 180.809 133.002C180.424 132.77 180.154 132.346 180.154 131.882V88.2333C180.154 87.7701 180.385 87.3456 180.771 87.1141L217.749 65.193C218.134 64.9614 218.635 64.9614 219.02 65.193C219.405 65.4245 219.675 65.849 219.675 66.3122V110.347C219.675 110.81 219.444 111.235 219.059 111.467L182.08 133.04C181.849 133.079 181.657 133.156 181.425 133.156ZM182.697 88.9665V129.683L217.133 109.575V68.512L182.697 88.9665Z" fill="black"/>
</g>
<g clip-path="url(#clip8_3154_3513)">
<path d="M292.575 66.7669L255.404 45.116L218.271 66.8055L255.828 88.7266L292.575 66.7669Z" fill="#3C78EC"/>
<path d="M255.827 90.0001C255.596 90.0001 255.404 89.9229 255.173 89.8457L217.616 67.886C217.231 67.6545 217 67.2299 217 66.7668C217 66.3037 217.231 65.8792 217.616 65.6476L254.749 44.0352C255.134 43.8037 255.635 43.8037 256.02 44.0352L293.191 65.6862C293.576 65.9177 293.807 66.3423 293.807 66.7668C293.807 67.2299 293.576 67.6545 293.191 67.886L256.444 89.8457C256.29 89.9229 256.059 90.0001 255.827 90.0001ZM220.813 66.8054L255.827 87.2599L290.071 66.8054L255.404 46.621L220.813 66.8054Z" fill="black"/>
<path d="M255.404 1.27368V45.3088L292.729 66.844V23.3106L255.404 1.27368Z" fill="#FF722C"/>
<path d="M292.729 68.1175C292.498 68.1175 292.305 68.0789 292.113 67.9631L254.788 46.428C254.402 46.1964 254.133 45.7719 254.133 45.3088V1.27359C254.133 0.810473 254.364 0.385944 254.788 0.154384C255.173 -0.0771773 255.674 -0.0771773 256.059 0.154384L293.384 22.1913C293.769 22.4228 294 22.8474 294 23.2719V66.8053C294 67.2685 293.769 67.693 293.384 67.9245C293.153 68.0789 292.96 68.1175 292.729 68.1175ZM256.675 44.5755L291.458 64.6441V24.0437L256.675 3.51202V44.5755Z" fill="black"/>
<path d="M255.404 1.27368V45.3088L218.426 66.8826V23.2334L255.404 1.27368Z" fill="white"/>
<path d="M218.425 68.1561C218.194 68.1561 218.002 68.1175 217.809 68.0017C217.424 67.7701 217.154 67.3456 217.154 66.8825V23.2333C217.154 22.7701 217.385 22.3456 217.771 22.1141L254.749 0.192958C255.134 -0.0386031 255.635 -0.0386031 256.02 0.192958C256.405 0.424519 256.675 0.849047 256.675 1.31217V45.3473C256.675 45.8105 256.444 46.235 256.059 46.4665L219.08 68.0403C218.849 68.0789 218.657 68.1561 218.425 68.1561ZM219.697 23.9665V64.6827L254.133 44.5755V3.512L219.697 23.9665Z" fill="black"/>
</g>
<g clip-path="url(#clip9_3154_3513)">
<path d="M403.575 394.767L366.404 373.116L329.271 394.806L366.828 416.727L403.575 394.767Z" fill="#3C78EC"/>
<path d="M366.827 418C366.596 418 366.404 417.923 366.173 417.846L328.616 395.886C328.231 395.654 328 395.23 328 394.767C328 394.304 328.231 393.879 328.616 393.648L365.749 372.035C366.134 371.804 366.635 371.804 367.02 372.035L404.191 393.686C404.576 393.918 404.807 394.342 404.807 394.767C404.807 395.23 404.576 395.654 404.191 395.886L367.444 417.846C367.29 417.923 367.059 418 366.827 418ZM331.813 394.805L366.827 415.26L401.071 394.805L366.404 374.621L331.813 394.805Z" fill="black"/>
<path d="M366.404 329.274V373.309L403.729 394.844V351.311L366.404 329.274Z" fill="#FF722C"/>
<path d="M403.729 396.118C403.498 396.118 403.305 396.079 403.113 395.963L365.788 374.428C365.402 374.196 365.133 373.772 365.133 373.309V329.274C365.133 328.81 365.364 328.386 365.788 328.154C366.173 327.923 366.674 327.923 367.059 328.154L404.384 350.191C404.769 350.423 405 350.847 405 351.272V394.805C405 395.268 404.769 395.693 404.384 395.925C404.153 396.079 403.96 396.118 403.729 396.118ZM367.675 372.575L402.458 392.644V352.044L367.675 331.512V372.575Z" fill="black"/>
<path d="M366.404 329.274V373.309L329.426 394.883V351.233L366.404 329.274Z" fill="white"/>
<path d="M329.425 396.156C329.194 396.156 329.002 396.117 328.809 396.002C328.424 395.77 328.154 395.346 328.154 394.882V351.233C328.154 350.77 328.385 350.346 328.771 350.114L365.749 328.193C366.134 327.961 366.635 327.961 367.02 328.193C367.405 328.425 367.675 328.849 367.675 329.312V373.347C367.675 373.81 367.444 374.235 367.059 374.467L330.08 396.04C329.849 396.079 329.657 396.156 329.425 396.156ZM330.697 351.967V392.683L365.133 372.575V331.512L330.697 351.967Z" fill="black"/>
</g>
<g clip-path="url(#clip10_3154_3513)">
<path d="M403.575 131.767L366.404 110.116L329.271 131.806L366.828 153.727L403.575 131.767Z" fill="#3C78EC"/>
<path d="M366.827 155C366.596 155 366.404 154.923 366.173 154.846L328.616 132.886C328.231 132.654 328 132.23 328 131.767C328 131.304 328.231 130.879 328.616 130.648L365.749 109.035C366.134 108.804 366.635 108.804 367.02 109.035L404.191 130.686C404.576 130.918 404.807 131.342 404.807 131.767C404.807 132.23 404.576 132.654 404.191 132.886L367.444 154.846C367.29 154.923 367.059 155 366.827 155ZM331.813 131.805L366.827 152.26L401.071 131.805L366.404 111.621L331.813 131.805Z" fill="black"/>
<path d="M366.404 66.2737V110.309L403.729 131.844V88.3106L366.404 66.2737Z" fill="#FF722C"/>
<path d="M403.729 133.118C403.498 133.118 403.305 133.079 403.113 132.963L365.788 111.428C365.402 111.196 365.133 110.772 365.133 110.309V66.2736C365.133 65.8105 365.364 65.3859 365.788 65.1544C366.173 64.9228 366.674 64.9228 367.059 65.1544L404.384 87.1913C404.769 87.4228 405 87.8474 405 88.2719V131.805C405 132.268 404.769 132.693 404.384 132.925C404.153 133.079 403.96 133.118 403.729 133.118ZM367.675 109.575L402.458 129.644V89.0437L367.675 68.512V109.575Z" fill="black"/>
<path d="M366.404 66.2737V110.309L329.426 131.883V88.2334L366.404 66.2737Z" fill="white"/>
<path d="M329.425 133.156C329.194 133.156 329.002 133.117 328.809 133.002C328.424 132.77 328.154 132.346 328.154 131.882V88.2333C328.154 87.7701 328.385 87.3456 328.771 87.1141L365.749 65.193C366.134 64.9614 366.635 64.9614 367.02 65.193C367.405 65.4245 367.675 65.849 367.675 66.3122V110.347C367.675 110.81 367.444 111.235 367.059 111.467L330.08 133.04C329.849 133.079 329.657 133.156 329.425 133.156ZM330.697 88.9665V129.683L365.133 109.575V68.512L330.697 88.9665Z" fill="black"/>
</g>
<g clip-path="url(#clip11_3154_3513)">
<path d="M218.575 197.767L181.404 176.116L144.271 197.806L181.828 219.727L218.575 197.767Z" fill="#3C78EC"/>
<path d="M181.827 221C181.596 221 181.404 220.923 181.173 220.846L143.616 198.886C143.231 198.654 143 198.23 143 197.767C143 197.304 143.231 196.879 143.616 196.648L180.749 175.035C181.134 174.804 181.635 174.804 182.02 175.035L219.191 196.686C219.576 196.918 219.807 197.342 219.807 197.767C219.807 198.23 219.576 198.654 219.191 198.886L182.444 220.846C182.29 220.923 182.059 221 181.827 221ZM146.813 197.805L181.827 218.26L216.071 197.805L181.404 177.621L146.813 197.805Z" fill="black"/>
<path d="M181.404 132.274V176.309L218.729 197.844V154.311L181.404 132.274Z" fill="#FF722C"/>
<path d="M218.729 199.118C218.498 199.118 218.305 199.079 218.113 198.963L180.788 177.428C180.402 177.196 180.133 176.772 180.133 176.309V132.274C180.133 131.81 180.364 131.386 180.788 131.154C181.173 130.923 181.674 130.923 182.059 131.154L219.384 153.191C219.769 153.423 220 153.847 220 154.272V197.805C220 198.268 219.769 198.693 219.384 198.925C219.153 199.079 218.96 199.118 218.729 199.118ZM182.675 175.575L217.458 195.644V155.044L182.675 134.512V175.575Z" fill="black"/>
<path d="M181.404 132.274V176.309L144.426 197.883V154.233L181.404 132.274Z" fill="white"/>
<path d="M144.425 199.156C144.194 199.156 144.002 199.117 143.809 199.002C143.424 198.77 143.154 198.346 143.154 197.882V154.233C143.154 153.77 143.385 153.346 143.771 153.114L180.749 131.193C181.134 130.961 181.635 130.961 182.02 131.193C182.405 131.425 182.675 131.849 182.675 132.312V176.347C182.675 176.81 182.444 177.235 182.059 177.467L145.08 199.04C144.849 199.079 144.657 199.156 144.425 199.156ZM145.697 154.967V195.683L180.133 175.575V134.512L145.697 154.967Z" fill="black"/>
</g>
<g clip-path="url(#clip12_3154_3513)">
<path d="M366.575 197.767L329.404 176.116L292.271 197.806L329.828 219.727L366.575 197.767Z" fill="#3C78EC"/>
<path d="M329.827 221C329.596 221 329.404 220.923 329.173 220.846L291.616 198.886C291.231 198.654 291 198.23 291 197.767C291 197.304 291.231 196.879 291.616 196.648L328.749 175.035C329.134 174.804 329.635 174.804 330.02 175.035L367.191 196.686C367.576 196.918 367.807 197.342 367.807 197.767C367.807 198.23 367.576 198.654 367.191 198.886L330.444 220.846C330.29 220.923 330.059 221 329.827 221ZM294.813 197.805L329.827 218.26L364.071 197.805L329.404 177.621L294.813 197.805Z" fill="black"/>
<path d="M329.404 132.274V176.309L366.729 197.844V154.311L329.404 132.274Z" fill="#FF722C"/>
<path d="M366.729 199.118C366.498 199.118 366.305 199.079 366.113 198.963L328.788 177.428C328.402 177.196 328.133 176.772 328.133 176.309V132.274C328.133 131.81 328.364 131.386 328.788 131.154C329.173 130.923 329.674 130.923 330.059 131.154L367.384 153.191C367.769 153.423 368 153.847 368 154.272V197.805C368 198.268 367.769 198.693 367.384 198.925C367.153 199.079 366.96 199.118 366.729 199.118ZM330.675 175.575L365.458 195.644V155.044L330.675 134.512V175.575Z" fill="black"/>
<path d="M329.404 132.274V176.309L292.426 197.883V154.233L329.404 132.274Z" fill="white"/>
<path d="M292.425 199.156C292.194 199.156 292.002 199.117 291.809 199.002C291.424 198.77 291.154 198.346 291.154 197.882V154.233C291.154 153.77 291.385 153.346 291.771 153.114L328.749 131.193C329.134 130.961 329.635 130.961 330.02 131.193C330.405 131.425 330.675 131.849 330.675 132.312V176.347C330.675 176.81 330.444 177.235 330.059 177.467L293.08 199.04C292.849 199.079 292.657 199.156 292.425 199.156ZM293.697 154.967V195.683L328.133 175.575V134.512L293.697 154.967Z" fill="black"/>
</g>
<g clip-path="url(#clip13_3154_3513)">
<path d="M292.575 197.767L255.404 176.116L218.271 197.806L255.828 219.727L292.575 197.767Z" fill="#3C78EC"/>
<path d="M255.827 221C255.596 221 255.404 220.923 255.173 220.846L217.616 198.886C217.231 198.654 217 198.23 217 197.767C217 197.304 217.231 196.879 217.616 196.648L254.749 175.035C255.134 174.804 255.635 174.804 256.02 175.035L293.191 196.686C293.576 196.918 293.807 197.342 293.807 197.767C293.807 198.23 293.576 198.654 293.191 198.886L256.444 220.846C256.29 220.923 256.059 221 255.827 221ZM220.813 197.805L255.827 218.26L290.071 197.805L255.404 177.621L220.813 197.805Z" fill="black"/>
<path d="M255.404 132.274V176.309L292.729 197.844V154.311L255.404 132.274Z" fill="#FF722C"/>
<path d="M292.729 199.118C292.498 199.118 292.305 199.079 292.113 198.963L254.788 177.428C254.402 177.196 254.133 176.772 254.133 176.309V132.274C254.133 131.81 254.364 131.386 254.788 131.154C255.173 130.923 255.674 130.923 256.059 131.154L293.384 153.191C293.769 153.423 294 153.847 294 154.272V197.805C294 198.268 293.769 198.693 293.384 198.925C293.153 199.079 292.96 199.118 292.729 199.118ZM256.675 175.575L291.458 195.644V155.044L256.675 134.512V175.575Z" fill="black"/>
<path d="M255.404 132.274V176.309L218.426 197.883V154.233L255.404 132.274Z" fill="white"/>
<path d="M218.425 199.156C218.194 199.156 218.002 199.117 217.809 199.002C217.424 198.77 217.154 198.346 217.154 197.882V154.233C217.154 153.77 217.385 153.346 217.771 153.114L254.749 131.193C255.134 130.961 255.635 130.961 256.02 131.193C256.405 131.425 256.675 131.849 256.675 132.312V176.347C256.675 176.81 256.444 177.235 256.059 177.467L219.08 199.04C218.849 199.079 218.657 199.156 218.425 199.156ZM219.697 154.967V195.683L254.133 175.575V134.512L219.697 154.967Z" fill="black"/>
</g>
<g clip-path="url(#clip14_3154_3513)">
<path d="M440.575 197.767L403.404 176.116L366.271 197.806L403.828 219.727L440.575 197.767Z" fill="#3C78EC"/>
<path d="M403.827 221C403.596 221 403.404 220.923 403.173 220.846L365.616 198.886C365.231 198.654 365 198.23 365 197.767C365 197.304 365.231 196.879 365.616 196.648L402.749 175.035C403.134 174.804 403.635 174.804 404.02 175.035L441.191 196.686C441.576 196.918 441.807 197.342 441.807 197.767C441.807 198.23 441.576 198.654 441.191 198.886L404.444 220.846C404.29 220.923 404.059 221 403.827 221ZM368.813 197.805L403.827 218.26L438.071 197.805L403.404 177.621L368.813 197.805Z" fill="black"/>
<path d="M403.404 132.274V176.309L440.729 197.844V154.311L403.404 132.274Z" fill="#FF722C"/>
<path d="M440.729 199.118C440.498 199.118 440.305 199.079 440.113 198.963L402.788 177.428C402.402 177.196 402.133 176.772 402.133 176.309V132.274C402.133 131.81 402.364 131.386 402.788 131.154C403.173 130.923 403.674 130.923 404.059 131.154L441.384 153.191C441.769 153.423 442 153.847 442 154.272V197.805C442 198.268 441.769 198.693 441.384 198.925C441.153 199.079 440.96 199.118 440.729 199.118ZM404.675 175.575L439.458 195.644V155.044L404.675 134.512V175.575Z" fill="black"/>
<path d="M403.404 132.274V176.309L366.426 197.883V154.233L403.404 132.274Z" fill="white"/>
<path d="M366.425 199.156C366.194 199.156 366.002 199.117 365.809 199.002C365.424 198.77 365.154 198.346 365.154 197.882V154.233C365.154 153.77 365.385 153.346 365.771 153.114L402.749 131.193C403.134 130.961 403.635 130.961 404.02 131.193C404.405 131.425 404.675 131.849 404.675 132.312V176.347C404.675 176.81 404.444 177.235 404.059 177.467L367.08 199.04C366.849 199.079 366.657 199.156 366.425 199.156ZM367.697 154.967V195.683L402.133 175.575V134.512L367.697 154.967Z" fill="black"/>
</g>
<g clip-path="url(#clip15_3154_3513)">
<path d="M255.575 263.767L218.404 242.116L181.271 263.806L218.828 285.727L255.575 263.767Z" fill="#3C78EC"/>
<path d="M218.827 287C218.596 287 218.404 286.923 218.173 286.846L180.616 264.886C180.231 264.654 180 264.23 180 263.767C180 263.304 180.231 262.879 180.616 262.648L217.749 241.035C218.134 240.804 218.635 240.804 219.02 241.035L256.191 262.686C256.576 262.918 256.807 263.342 256.807 263.767C256.807 264.23 256.576 264.654 256.191 264.886L219.444 286.846C219.29 286.923 219.059 287 218.827 287ZM183.813 263.805L218.827 284.26L253.071 263.805L218.404 243.621L183.813 263.805Z" fill="black"/>
<path d="M218.404 198.274V242.309L255.729 263.844V220.311L218.404 198.274Z" fill="#FF722C"/>
<path d="M255.729 265.118C255.498 265.118 255.305 265.079 255.113 264.963L217.788 243.428C217.402 243.196 217.133 242.772 217.133 242.309V198.274C217.133 197.81 217.364 197.386 217.788 197.154C218.173 196.923 218.674 196.923 219.059 197.154L256.384 219.191C256.769 219.423 257 219.847 257 220.272V263.805C257 264.268 256.769 264.693 256.384 264.925C256.153 265.079 255.96 265.118 255.729 265.118ZM219.675 241.575L254.458 261.644V221.044L219.675 200.512V241.575Z" fill="black"/>
<path d="M218.404 198.274V242.309L181.426 263.883V220.233L218.404 198.274Z" fill="white"/>
<path d="M181.425 265.156C181.194 265.156 181.002 265.117 180.809 265.002C180.424 264.77 180.154 264.346 180.154 263.882V220.233C180.154 219.77 180.385 219.346 180.771 219.114L217.749 197.193C218.134 196.961 218.635 196.961 219.02 197.193C219.405 197.425 219.675 197.849 219.675 198.312V242.347C219.675 242.81 219.444 243.235 219.059 243.467L182.08 265.04C181.849 265.079 181.657 265.156 181.425 265.156ZM182.697 220.967V261.683L217.133 241.575V200.512L182.697 220.967Z" fill="black"/>
</g>
<g clip-path="url(#clip16_3154_3513)">
<path d="M403.575 263.767L366.404 242.116L329.271 263.806L366.828 285.727L403.575 263.767Z" fill="#3C78EC"/>
<path d="M366.827 287C366.596 287 366.404 286.923 366.173 286.846L328.616 264.886C328.231 264.654 328 264.23 328 263.767C328 263.304 328.231 262.879 328.616 262.648L365.749 241.035C366.134 240.804 366.635 240.804 367.02 241.035L404.191 262.686C404.576 262.918 404.807 263.342 404.807 263.767C404.807 264.23 404.576 264.654 404.191 264.886L367.444 286.846C367.29 286.923 367.059 287 366.827 287ZM331.813 263.805L366.827 284.26L401.071 263.805L366.404 243.621L331.813 263.805Z" fill="black"/>
<path d="M366.404 198.274V242.309L403.729 263.844V220.311L366.404 198.274Z" fill="#FF722C"/>
<path d="M403.729 265.118C403.498 265.118 403.305 265.079 403.113 264.963L365.788 243.428C365.402 243.196 365.133 242.772 365.133 242.309V198.274C365.133 197.81 365.364 197.386 365.788 197.154C366.173 196.923 366.674 196.923 367.059 197.154L404.384 219.191C404.769 219.423 405 219.847 405 220.272V263.805C405 264.268 404.769 264.693 404.384 264.925C404.153 265.079 403.96 265.118 403.729 265.118ZM367.675 241.575L402.458 261.644V221.044L367.675 200.512V241.575Z" fill="black"/>
<path d="M366.404 198.274V242.309L329.426 263.883V220.233L366.404 198.274Z" fill="white"/>
<path d="M329.425 265.156C329.194 265.156 329.002 265.117 328.809 265.002C328.424 264.77 328.154 264.346 328.154 263.882V220.233C328.154 219.77 328.385 219.346 328.771 219.114L365.749 197.193C366.134 196.961 366.635 196.961 367.02 197.193C367.405 197.425 367.675 197.849 367.675 198.312V242.347C367.675 242.81 367.444 243.235 367.059 243.467L330.08 265.04C329.849 265.079 329.657 265.156 329.425 265.156ZM330.697 220.967V261.683L365.133 241.575V200.512L330.697 220.967Z" fill="black"/>
</g>
<g clip-path="url(#clip17_3154_3513)">
<path d="M329.575 263.767L292.404 242.116L255.271 263.806L292.828 285.727L329.575 263.767Z" fill="#3C78EC"/>
<path d="M292.827 287C292.596 287 292.404 286.923 292.173 286.846L254.616 264.886C254.231 264.654 254 264.23 254 263.767C254 263.304 254.231 262.879 254.616 262.648L291.749 241.035C292.134 240.804 292.635 240.804 293.02 241.035L330.191 262.686C330.576 262.918 330.807 263.342 330.807 263.767C330.807 264.23 330.576 264.654 330.191 264.886L293.444 286.846C293.29 286.923 293.059 287 292.827 287ZM257.813 263.805L292.827 284.26L327.071 263.805L292.404 243.621L257.813 263.805Z" fill="black"/>
<path d="M292.404 198.274V242.309L329.729 263.844V220.311L292.404 198.274Z" fill="#FF722C"/>
<path d="M329.729 265.118C329.498 265.118 329.305 265.079 329.113 264.963L291.788 243.428C291.402 243.196 291.133 242.772 291.133 242.309V198.274C291.133 197.81 291.364 197.386 291.788 197.154C292.173 196.923 292.674 196.923 293.059 197.154L330.384 219.191C330.769 219.423 331 219.847 331 220.272V263.805C331 264.268 330.769 264.693 330.384 264.925C330.153 265.079 329.96 265.118 329.729 265.118ZM293.675 241.575L328.458 261.644V221.044L293.675 200.512V241.575Z" fill="black"/>
<path d="M292.404 198.274V242.309L255.426 263.883V220.233L292.404 198.274Z" fill="white"/>
<path d="M255.425 265.156C255.194 265.156 255.002 265.117 254.809 265.002C254.424 264.77 254.154 264.346 254.154 263.882V220.233C254.154 219.77 254.385 219.346 254.771 219.114L291.749 197.193C292.134 196.961 292.635 196.961 293.02 197.193C293.405 197.425 293.675 197.849 293.675 198.312V242.347C293.675 242.81 293.444 243.235 293.059 243.467L256.08 265.04C255.849 265.079 255.657 265.156 255.425 265.156ZM256.697 220.967V261.683L291.133 241.575V200.512L256.697 220.967Z" fill="black"/>
</g>
<g clip-path="url(#clip18_3154_3513)">
<path d="M477.575 263.767L440.404 242.116L403.271 263.806L440.828 285.727L477.575 263.767Z" fill="#3C78EC"/>
<path d="M440.827 287C440.596 287 440.404 286.923 440.173 286.846L402.616 264.886C402.231 264.654 402 264.23 402 263.767C402 263.304 402.231 262.879 402.616 262.648L439.749 241.035C440.134 240.804 440.635 240.804 441.02 241.035L478.191 262.686C478.576 262.918 478.807 263.342 478.807 263.767C478.807 264.23 478.576 264.654 478.191 264.886L441.444 286.846C441.29 286.923 441.059 287 440.827 287ZM405.813 263.805L440.827 284.26L475.071 263.805L440.404 243.621L405.813 263.805Z" fill="black"/>
<path d="M440.404 198.274V242.309L477.729 263.844V220.311L440.404 198.274Z" fill="#FF722C"/>
<path d="M477.729 265.118C477.498 265.118 477.305 265.079 477.113 264.963L439.788 243.428C439.402 243.196 439.133 242.772 439.133 242.309V198.274C439.133 197.81 439.364 197.386 439.788 197.154C440.173 196.923 440.674 196.923 441.059 197.154L478.384 219.191C478.769 219.423 479 219.847 479 220.272V263.805C479 264.268 478.769 264.693 478.384 264.925C478.153 265.079 477.96 265.118 477.729 265.118ZM441.675 241.575L476.458 261.644V221.044L441.675 200.512V241.575Z" fill="black"/>
<path d="M440.404 198.274V242.309L403.426 263.883V220.233L440.404 198.274Z" fill="white"/>
<path d="M403.425 265.156C403.194 265.156 403.002 265.117 402.809 265.002C402.424 264.77 402.154 264.346 402.154 263.882V220.233C402.154 219.77 402.385 219.346 402.771 219.114L439.749 197.193C440.134 196.961 440.635 196.961 441.02 197.193C441.405 197.425 441.675 197.849 441.675 198.312V242.347C441.675 242.81 441.444 243.235 441.059 243.467L404.08 265.04C403.849 265.079 403.657 265.156 403.425 265.156ZM404.697 220.967V261.683L439.133 241.575V200.512L404.697 220.967Z" fill="black"/>
</g>
<g clip-path="url(#clip19_3154_3513)">
<path d="M292.575 329.767L255.404 308.116L218.271 329.806L255.828 351.727L292.575 329.767Z" fill="#3C78EC"/>
<path d="M255.827 353C255.596 353 255.404 352.923 255.173 352.846L217.616 330.886C217.231 330.654 217 330.23 217 329.767C217 329.304 217.231 328.879 217.616 328.648L254.749 307.035C255.134 306.804 255.635 306.804 256.02 307.035L293.191 328.686C293.576 328.918 293.807 329.342 293.807 329.767C293.807 330.23 293.576 330.654 293.191 330.886L256.444 352.846C256.29 352.923 256.059 353 255.827 353ZM220.813 329.805L255.827 350.26L290.071 329.805L255.404 309.621L220.813 329.805Z" fill="black"/>
<path d="M255.404 264.274V308.309L292.729 329.844V286.311L255.404 264.274Z" fill="#FF722C"/>
<path d="M292.729 331.118C292.498 331.118 292.305 331.079 292.113 330.963L254.788 309.428C254.402 309.196 254.133 308.772 254.133 308.309V264.274C254.133 263.81 254.364 263.386 254.788 263.154C255.173 262.923 255.674 262.923 256.059 263.154L293.384 285.191C293.769 285.423 294 285.847 294 286.272V329.805C294 330.268 293.769 330.693 293.384 330.925C293.153 331.079 292.96 331.118 292.729 331.118ZM256.675 307.575L291.458 327.644V287.044L256.675 266.512V307.575Z" fill="black"/>
<path d="M255.404 264.274V308.309L218.426 329.883V286.233L255.404 264.274Z" fill="white"/>
<path d="M218.425 331.156C218.194 331.156 218.002 331.117 217.809 331.002C217.424 330.77 217.154 330.346 217.154 329.882V286.233C217.154 285.77 217.385 285.346 217.771 285.114L254.749 263.193C255.134 262.961 255.635 262.961 256.02 263.193C256.405 263.425 256.675 263.849 256.675 264.312V308.347C256.675 308.81 256.444 309.235 256.059 309.467L219.08 331.04C218.849 331.079 218.657 331.156 218.425 331.156ZM219.697 286.967V327.683L254.133 307.575V266.512L219.697 286.967Z" fill="black"/>
</g>
<g clip-path="url(#clip20_3154_3513)">
<path d="M440.575 329.767L403.404 308.116L366.271 329.806L403.828 351.727L440.575 329.767Z" fill="#3C78EC"/>
<path d="M403.827 353C403.596 353 403.404 352.923 403.173 352.846L365.616 330.886C365.231 330.654 365 330.23 365 329.767C365 329.304 365.231 328.879 365.616 328.648L402.749 307.035C403.134 306.804 403.635 306.804 404.02 307.035L441.191 328.686C441.576 328.918 441.807 329.342 441.807 329.767C441.807 330.23 441.576 330.654 441.191 330.886L404.444 352.846C404.29 352.923 404.059 353 403.827 353ZM368.813 329.805L403.827 350.26L438.071 329.805L403.404 309.621L368.813 329.805Z" fill="black"/>
<path d="M403.404 264.274V308.309L440.729 329.844V286.311L403.404 264.274Z" fill="#FF722C"/>
<path d="M440.729 331.118C440.498 331.118 440.305 331.079 440.113 330.963L402.788 309.428C402.402 309.196 402.133 308.772 402.133 308.309V264.274C402.133 263.81 402.364 263.386 402.788 263.154C403.173 262.923 403.674 262.923 404.059 263.154L441.384 285.191C441.769 285.423 442 285.847 442 286.272V329.805C442 330.268 441.769 330.693 441.384 330.925C441.153 331.079 440.96 331.118 440.729 331.118ZM404.675 307.575L439.458 327.644V287.044L404.675 266.512V307.575Z" fill="black"/>
<path d="M403.404 264.274V308.309L366.426 329.883V286.233L403.404 264.274Z" fill="white"/>
<path d="M366.425 331.156C366.194 331.156 366.002 331.117 365.809 331.002C365.424 330.77 365.154 330.346 365.154 329.882V286.233C365.154 285.77 365.385 285.346 365.771 285.114L402.749 263.193C403.134 262.961 403.635 262.961 404.02 263.193C404.405 263.425 404.675 263.849 404.675 264.312V308.347C404.675 308.81 404.444 309.235 404.059 309.467L367.08 331.04C366.849 331.079 366.657 331.156 366.425 331.156ZM367.697 286.967V327.683L402.133 307.575V266.512L367.697 286.967Z" fill="black"/>
</g>
<g clip-path="url(#clip21_3154_3513)">
<path d="M366.575 329.767L329.404 308.116L292.271 329.806L329.828 351.727L366.575 329.767Z" fill="#3C78EC"/>
<path d="M329.827 353C329.596 353 329.404 352.923 329.173 352.846L291.616 330.886C291.231 330.654 291 330.23 291 329.767C291 329.304 291.231 328.879 291.616 328.648L328.749 307.035C329.134 306.804 329.635 306.804 330.02 307.035L367.191 328.686C367.576 328.918 367.807 329.342 367.807 329.767C367.807 330.23 367.576 330.654 367.191 330.886L330.444 352.846C330.29 352.923 330.059 353 329.827 353ZM294.813 329.805L329.827 350.26L364.071 329.805L329.404 309.621L294.813 329.805Z" fill="black"/>
<path d="M329.404 264.274V308.309L366.729 329.844V286.311L329.404 264.274Z" fill="#FF722C"/>
<path d="M366.729 331.118C366.498 331.118 366.305 331.079 366.113 330.963L328.788 309.428C328.402 309.196 328.133 308.772 328.133 308.309V264.274C328.133 263.81 328.364 263.386 328.788 263.154C329.173 262.923 329.674 262.923 330.059 263.154L367.384 285.191C367.769 285.423 368 285.847 368 286.272V329.805C368 330.268 367.769 330.693 367.384 330.925C367.153 331.079 366.96 331.118 366.729 331.118ZM330.675 307.575L365.458 327.644V287.044L330.675 266.512V307.575Z" fill="black"/>
<path d="M329.404 264.274V308.309L292.426 329.883V286.233L329.404 264.274Z" fill="white"/>
<path d="M292.425 331.156C292.194 331.156 292.002 331.117 291.809 331.002C291.424 330.77 291.154 330.346 291.154 329.882V286.233C291.154 285.77 291.385 285.346 291.771 285.114L328.749 263.193C329.134 262.961 329.635 262.961 330.02 263.193C330.405 263.425 330.675 263.849 330.675 264.312V308.347C330.675 308.81 330.444 309.235 330.059 309.467L293.08 331.04C292.849 331.079 292.657 331.156 292.425 331.156ZM293.697 286.967V327.683L328.133 307.575V266.512L293.697 286.967Z" fill="black"/>
</g>
<g clip-path="url(#clip22_3154_3513)">
<path d="M514.575 329.767L477.404 308.116L440.271 329.806L477.828 351.727L514.575 329.767Z" fill="#3C78EC"/>
<path d="M477.827 353C477.596 353 477.404 352.923 477.173 352.846L439.616 330.886C439.231 330.654 439 330.23 439 329.767C439 329.304 439.231 328.879 439.616 328.648L476.749 307.035C477.134 306.804 477.635 306.804 478.02 307.035L515.191 328.686C515.576 328.918 515.807 329.342 515.807 329.767C515.807 330.23 515.576 330.654 515.191 330.886L478.444 352.846C478.29 352.923 478.059 353 477.827 353ZM442.813 329.805L477.827 350.26L512.071 329.805L477.404 309.621L442.813 329.805Z" fill="black"/>
<path d="M477.404 264.274V308.309L514.729 329.844V286.311L477.404 264.274Z" fill="#FF722C"/>
<path d="M514.729 331.118C514.498 331.118 514.305 331.079 514.113 330.963L476.788 309.428C476.402 309.196 476.133 308.772 476.133 308.309V264.274C476.133 263.81 476.364 263.386 476.788 263.154C477.173 262.923 477.674 262.923 478.059 263.154L515.384 285.191C515.769 285.423 516 285.847 516 286.272V329.805C516 330.268 515.769 330.693 515.384 330.925C515.153 331.079 514.96 331.118 514.729 331.118ZM478.675 307.575L513.458 327.644V287.044L478.675 266.512V307.575Z" fill="black"/>
<path d="M477.404 264.274V308.309L440.426 329.883V286.233L477.404 264.274Z" fill="white"/>
<path d="M440.425 331.156C440.194 331.156 440.002 331.117 439.809 331.002C439.424 330.77 439.154 330.346 439.154 329.882V286.233C439.154 285.77 439.385 285.346 439.771 285.114L476.749 263.193C477.134 262.961 477.635 262.961 478.02 263.193C478.405 263.425 478.675 263.849 478.675 264.312V308.347C478.675 308.81 478.444 309.235 478.059 309.467L441.08 331.04C440.849 331.079 440.657 331.156 440.425 331.156ZM441.697 286.967V327.683L476.133 307.575V266.512L441.697 286.967Z" fill="black"/>
</g>
<g clip-path="url(#clip23_3154_3513)">
<path d="M75.5751 358.767L38.404 337.116L1.27148 358.806L38.8278 380.727L75.5751 358.767Z" fill="#3C78EC"/>
<path d="M38.8274 382C38.5963 382 38.4037 381.923 38.1726 381.846L0.616308 359.886C0.231116 359.654 0 359.23 0 358.767C0 358.304 0.231116 357.879 0.616308 357.648L37.7489 336.035C38.1341 335.804 38.6348 335.804 39.02 336.035L76.1911 357.686C76.5763 357.918 76.8074 358.342 76.8074 358.767C76.8074 359.23 76.5763 359.654 76.1911 359.886L39.4437 381.846C39.2896 381.923 39.0585 382 38.8274 382ZM3.81341 358.805L38.8274 379.26L73.071 358.805L38.4037 338.621L3.81341 358.805Z" fill="black"/>
<path d="M38.4043 293.274V337.309L75.7295 358.844V315.311L38.4043 293.274Z" fill="#FF722C"/>
<path d="M75.7291 360.118C75.498 360.118 75.3054 360.079 75.1128 359.963L37.7876 338.428C37.4024 338.196 37.1328 337.772 37.1328 337.309V293.274C37.1328 292.81 37.3639 292.386 37.7876 292.154C38.1728 291.923 38.6736 291.923 39.0588 292.154L76.3839 314.191C76.7691 314.423 77.0002 314.847 77.0002 315.272V358.805C77.0002 359.268 76.7691 359.693 76.3839 359.925C76.1528 360.079 75.9602 360.118 75.7291 360.118ZM39.6751 336.575L74.458 356.644V316.044L39.6751 295.512V336.575Z" fill="black"/>
<path d="M38.4043 293.274V337.309L1.42578 358.883V315.233L38.4043 293.274Z" fill="white"/>
<path d="M1.42543 360.156C1.19432 360.156 1.00172 360.117 0.809124 360.002C0.423932 359.77 0.154297 359.346 0.154297 358.882V315.233C0.154297 314.77 0.385412 314.346 0.770605 314.114L37.7491 292.193C38.1343 291.961 38.635 291.961 39.0202 292.193C39.4054 292.425 39.6751 292.849 39.6751 293.312V337.347C39.6751 337.81 39.4439 338.235 39.0588 338.467L2.08026 360.04C1.84914 360.079 1.65655 360.156 1.42543 360.156ZM2.69657 315.967V356.683L37.1328 336.575V295.512L2.69657 315.967Z" fill="black"/>
</g>
<defs>
<clipPath id="clip0_3154_3513">
<rect width="77" height="90" fill="white" transform="translate(95 204)"/>
</clipPath>
<clipPath id="clip1_3154_3513">
<rect width="77" height="90" fill="white" transform="translate(106 65)"/>
</clipPath>
<clipPath id="clip2_3154_3513">
<rect width="77" height="90" fill="white" transform="translate(143)"/>
</clipPath>
<clipPath id="clip3_3154_3513">
<rect width="77" height="90" fill="white" transform="translate(254 328)"/>
</clipPath>
<clipPath id="clip4_3154_3513">
<rect width="77" height="90" fill="white" transform="translate(254 65)"/>
</clipPath>
<clipPath id="clip5_3154_3513">
<rect width="77" height="90" fill="white" transform="translate(291)"/>
</clipPath>
<clipPath id="clip6_3154_3513">
<rect width="77" height="90" fill="white" transform="translate(402 328)"/>
</clipPath>
<clipPath id="clip7_3154_3513">
<rect width="77" height="90" fill="white" transform="translate(180 65)"/>
</clipPath>
<clipPath id="clip8_3154_3513">
<rect width="77" height="90" fill="white" transform="translate(217)"/>
</clipPath>
<clipPath id="clip9_3154_3513">
<rect width="77" height="90" fill="white" transform="translate(328 328)"/>
</clipPath>
<clipPath id="clip10_3154_3513">
<rect width="77" height="90" fill="white" transform="translate(328 65)"/>
</clipPath>
<clipPath id="clip11_3154_3513">
<rect width="77" height="90" fill="white" transform="translate(143 131)"/>
</clipPath>
<clipPath id="clip12_3154_3513">
<rect width="77" height="90" fill="white" transform="translate(291 131)"/>
</clipPath>
<clipPath id="clip13_3154_3513">
<rect width="77" height="90" fill="white" transform="translate(217 131)"/>
</clipPath>
<clipPath id="clip14_3154_3513">
<rect width="77" height="90" fill="white" transform="translate(365 131)"/>
</clipPath>
<clipPath id="clip15_3154_3513">
<rect width="77" height="90" fill="white" transform="translate(180 197)"/>
</clipPath>
<clipPath id="clip16_3154_3513">
<rect width="77" height="90" fill="white" transform="translate(328 197)"/>
</clipPath>
<clipPath id="clip17_3154_3513">
<rect width="77" height="90" fill="white" transform="translate(254 197)"/>
</clipPath>
<clipPath id="clip18_3154_3513">
<rect width="77" height="90" fill="white" transform="translate(402 197)"/>
</clipPath>
<clipPath id="clip19_3154_3513">
<rect width="77" height="90" fill="white" transform="translate(217 263)"/>
</clipPath>
<clipPath id="clip20_3154_3513">
<rect width="77" height="90" fill="white" transform="translate(365 263)"/>
</clipPath>
<clipPath id="clip21_3154_3513">
<rect width="77" height="90" fill="white" transform="translate(291 263)"/>
</clipPath>
<clipPath id="clip22_3154_3513">
<rect width="77" height="90" fill="white" transform="translate(439 263)"/>
</clipPath>
<clipPath id="clip23_3154_3513">
<rect width="77" height="90" fill="white" transform="translate(0 292)"/>
</clipPath>
</defs>
</svg>
