<svg width="247" height="200" viewBox="0 0 247 200" fill="none" xmlns="http://www.w3.org/2000/svg">
<rect width="247" height="200" rx="25" fill="#F7F5F5"/>
<path d="M142.423 144.212H138.199L137.171 148.547H133.885L138.266 132.385H142.423L147.027 148.547H143.608L142.423 144.212ZM138.668 141.38H141.931L140.97 137.947C140.814 137.321 140.568 136.369 140.255 135.016H140.21C140.143 135.291 140.054 135.742 139.898 136.419C139.763 137.095 139.652 137.597 139.562 137.947L138.668 141.38Z" fill="#292C33"/>
<path d="M148.861 148.497V132.56C150.09 132.31 151.565 132.209 153.308 132.209C155.119 132.209 156.505 132.635 157.466 133.537C158.449 134.439 158.941 135.717 158.941 137.346C158.941 139 158.538 140.278 157.711 141.13C156.661 142.308 155.119 142.909 153.085 142.909C152.638 142.909 152.258 142.884 151.923 142.809V148.522H148.838V148.497H148.861ZM151.923 135.166V139.877C152.169 139.952 152.571 139.977 153.085 139.977C153.957 139.977 154.627 139.752 155.119 139.301C155.611 138.85 155.856 138.198 155.856 137.371C155.856 136.62 155.633 136.043 155.186 135.642C154.739 135.241 154.113 135.041 153.308 135.041C152.66 135.066 152.169 135.091 151.923 135.166Z" fill="#292C33"/>
<path d="M160.952 132.36H172.507V148.522H169.401V135.467H164.037V148.522H160.952V132.36Z" fill="#292C33"/>
<path d="M175.19 132.36H186.745V148.522H183.638V135.467H178.274V148.522H175.19V132.36Z" fill="#292C33"/>
<path d="M69.5819 160.174C69.5819 161.001 69.4925 161.728 69.3137 162.404C69.1125 163.056 68.8666 163.607 68.509 164.083C68.1514 164.534 67.7044 164.885 67.168 165.135C66.6316 165.386 66.0281 165.486 65.2906 165.486C64.5977 165.486 63.9943 165.386 63.4802 165.186C62.9438 164.96 62.5191 164.684 62.1839 164.233C61.8486 163.807 61.5804 163.281 61.424 162.655C61.2675 162.003 61.1558 161.251 61.1558 160.374C61.1558 159.573 61.2452 158.846 61.424 158.194C61.6028 157.543 61.871 157.017 62.2286 156.566C62.5862 156.115 63.0332 155.764 63.5696 155.513C64.106 155.263 64.7095 155.137 65.447 155.137C66.1176 155.137 66.721 155.238 67.2351 155.438C67.7268 155.638 68.1961 155.939 68.5314 156.39C68.889 156.816 69.1349 157.342 69.3137 157.969C69.4925 158.57 69.5819 159.322 69.5819 160.174ZM67.6821 160.274C67.6821 159.748 67.6374 159.272 67.5703 158.846C67.5033 158.42 67.3692 158.044 67.1904 157.743C67.0339 157.443 66.7881 157.217 66.4975 157.042C66.207 156.891 65.827 156.791 65.4023 156.791C64.9553 156.791 64.5977 156.891 64.3072 157.067C64.0166 157.267 63.7484 157.493 63.592 157.819C63.3908 158.144 63.2791 158.495 63.212 158.921C63.145 159.347 63.1002 159.773 63.1002 160.274C63.1002 160.8 63.145 161.327 63.212 161.753C63.2791 162.179 63.4132 162.554 63.592 162.88C63.7484 163.181 63.9943 163.406 64.2848 163.582C64.5754 163.732 64.9553 163.832 65.38 163.832C65.827 163.832 66.1846 163.757 66.4752 163.557C66.7657 163.356 67.0339 163.131 67.1904 162.805C67.3915 162.479 67.5033 162.103 67.5703 161.677C67.6374 161.226 67.6821 160.75 67.6821 160.274Z" fill="#292C33"/>
<path d="M75.5506 158.721C75.5506 158.871 75.5506 159.046 75.5283 159.147C75.5283 159.247 75.5059 159.372 75.4836 159.422C75.4612 159.472 75.4389 159.523 75.3942 159.548C75.3718 159.573 75.3271 159.573 75.2824 159.573H73.7179V165.01C73.7179 165.06 73.6955 165.11 73.6732 165.135C73.6508 165.161 73.6061 165.211 73.5391 165.236C73.472 165.261 73.405 165.286 73.2709 165.286C73.1591 165.286 73.0027 165.311 72.8462 165.311C72.6898 165.311 72.5333 165.311 72.4439 165.286C72.3322 165.286 72.2428 165.261 72.1757 165.236C72.1087 165.211 72.064 165.186 72.0416 165.135C72.0193 165.11 71.9969 165.06 71.9969 165.01V159.573H70.4547C70.41 159.573 70.3653 159.573 70.343 159.523C70.3206 159.497 70.2759 159.447 70.2536 159.397C70.2312 159.347 70.2089 159.247 70.2089 159.122C70.2089 159.021 70.1865 158.846 70.1865 158.696C70.1865 158.545 70.1865 158.42 70.2089 158.32C70.2312 158.22 70.2312 158.119 70.2536 158.044C70.2759 157.994 70.2983 157.944 70.3206 157.919C70.343 157.894 70.3877 157.869 70.4324 157.869H75.2377C75.2824 157.869 75.3048 157.869 75.3495 157.919C75.3718 157.944 75.4165 157.994 75.4389 158.044C75.4612 158.094 75.4836 158.194 75.4836 158.32C75.5506 158.445 75.5506 158.595 75.5506 158.721Z" fill="#292C33"/>
<path d="M82.0784 161.376C82.0784 161.627 82.0337 161.777 81.9443 161.903C81.8549 162.003 81.7208 162.053 81.5644 162.053H77.8319C77.8319 162.354 77.8542 162.629 77.9213 162.855C77.9883 163.105 78.0777 163.281 78.2118 163.481C78.3459 163.632 78.5247 163.782 78.7482 163.857C78.9717 163.932 79.2176 163.982 79.5081 163.982C79.8211 163.982 80.0893 163.957 80.2904 163.907C80.5363 163.857 80.7151 163.807 80.8939 163.757C81.0727 163.707 81.2068 163.657 81.2962 163.607C81.4079 163.556 81.4973 163.531 81.5644 163.531C81.6091 163.531 81.6314 163.531 81.6538 163.557C81.6761 163.582 81.6985 163.607 81.7208 163.657C81.7432 163.707 81.7432 163.757 81.7655 163.857C81.7655 163.932 81.7655 164.058 81.7655 164.183C81.7655 164.283 81.7655 164.408 81.7655 164.484C81.7655 164.559 81.7655 164.609 81.7432 164.709C81.7432 164.759 81.7208 164.809 81.6985 164.835C81.6761 164.86 81.6538 164.91 81.6314 164.935C81.6091 164.96 81.5197 165.01 81.3856 165.06C81.2738 165.11 81.0727 165.185 80.8939 165.26C80.6704 165.311 80.4692 165.361 80.1787 165.411C79.9105 165.461 79.6199 165.486 79.307 165.486C78.7482 165.486 78.2789 165.411 77.8766 165.235C77.4743 165.085 77.139 164.86 76.8485 164.534C76.5802 164.208 76.3791 163.832 76.2226 163.356C76.0885 162.88 76.0215 162.304 76.0215 161.652C76.0215 161.026 76.0885 160.499 76.245 159.998C76.3791 159.522 76.6026 159.096 76.8708 158.745C77.139 158.395 77.4743 158.144 77.8542 157.969C78.2342 157.768 78.6812 157.693 79.1729 157.693C79.6646 157.693 80.134 157.768 80.4916 157.969C80.8492 158.119 81.1621 158.37 81.4079 158.67C81.6538 158.971 81.8102 159.347 81.9443 159.748C82.0561 160.149 82.1008 160.6 82.1008 161.101V161.376H82.0784ZM80.4022 160.85C80.4245 160.324 80.3128 159.873 80.1116 159.572C79.8881 159.247 79.5752 159.121 79.1505 159.121C78.927 159.121 78.7482 159.171 78.5694 159.247C78.3906 159.322 78.2565 159.472 78.1671 159.622C78.0554 159.773 77.966 159.973 77.9213 160.199C77.8766 160.424 77.8319 160.625 77.8319 160.9H80.4022V160.85Z" fill="#292C33"/>
<path d="M88.6489 165.035C88.6489 165.085 88.6266 165.136 88.6042 165.161C88.5819 165.186 88.5371 165.236 88.4701 165.261C88.403 165.286 88.336 165.311 88.2019 165.311C88.0901 165.311 87.956 165.336 87.7996 165.336C87.6431 165.336 87.4867 165.336 87.3749 165.311C87.2632 165.311 87.1514 165.286 87.1067 165.261C87.0397 165.236 86.995 165.211 86.9726 165.161C86.9503 165.136 86.9279 165.085 86.9279 165.035V162.68C86.7044 162.78 86.4809 162.88 86.2127 162.93C85.9445 162.981 85.6763 163.006 85.3857 163.006C84.9387 163.006 84.5588 162.956 84.2459 162.805C83.933 162.655 83.6871 162.504 83.5083 162.304C83.3072 162.079 83.1954 161.828 83.1284 161.527C83.0613 161.227 83.0166 160.851 83.0166 160.375V158.144C83.0166 158.094 83.0166 158.044 83.0613 158.019C83.0836 157.994 83.1284 157.944 83.1954 157.919C83.2625 157.894 83.3295 157.869 83.4636 157.869C83.5754 157.869 83.7095 157.844 83.8883 157.844C84.0447 157.844 84.2012 157.844 84.3129 157.869C84.4247 157.869 84.5141 157.894 84.5811 157.919C84.6482 157.944 84.6929 157.969 84.7152 158.019C84.7376 158.044 84.7599 158.094 84.7599 158.144V160.074C84.7599 160.425 84.7823 160.675 84.827 160.826C84.8717 160.976 84.9387 161.126 85.0281 161.201C85.0952 161.302 85.2293 161.352 85.341 161.402C85.4528 161.427 85.6092 161.452 85.7433 161.452C85.9669 161.452 86.168 161.427 86.3915 161.377C86.615 161.327 86.7938 161.252 87.0173 161.101V158.144C87.0173 158.094 87.0173 158.044 87.062 158.019C87.0844 157.994 87.1291 157.944 87.1961 157.919C87.2632 157.894 87.3526 157.869 87.4643 157.869C87.5761 157.869 87.7325 157.844 87.889 157.844C88.0454 157.844 88.2019 157.844 88.2913 157.869C88.403 157.869 88.4924 157.894 88.5595 157.919C88.6265 157.944 88.6713 157.969 88.6936 158.019C88.716 158.044 88.7383 158.094 88.7383 158.144V165.06H88.6489V165.035Z" fill="#292C33"/>
<path d="M96.0477 161.376C96.0477 161.627 96.003 161.777 95.9136 161.903C95.8242 162.003 95.6901 162.053 95.5336 162.053H91.8011C91.8011 162.354 91.8235 162.629 91.8905 162.855C91.9576 163.105 92.047 163.281 92.1811 163.481C92.3152 163.632 92.494 163.782 92.7175 163.857C92.941 163.932 93.1868 163.982 93.4774 163.982C93.7903 163.982 94.0585 163.957 94.2597 163.907C94.5055 163.857 94.6843 163.807 94.8631 163.757C95.0196 163.707 95.176 163.657 95.2654 163.607C95.3772 163.556 95.4666 163.531 95.5336 163.531C95.5783 163.531 95.6007 163.531 95.623 163.557C95.6454 163.582 95.6677 163.607 95.6901 163.657C95.7124 163.707 95.7124 163.757 95.7348 163.857C95.7348 163.932 95.7348 164.058 95.7348 164.183C95.7348 164.283 95.7348 164.408 95.7348 164.484C95.7348 164.559 95.7348 164.609 95.7124 164.709C95.7124 164.759 95.6901 164.809 95.6677 164.835C95.6454 164.86 95.623 164.91 95.6007 164.935C95.5783 164.96 95.4889 165.01 95.3548 165.06C95.2431 165.11 95.0419 165.185 94.8631 165.26C94.6396 165.311 94.4385 165.361 94.1479 165.411C93.8797 165.461 93.5891 165.486 93.2762 165.486C92.7175 165.486 92.2481 165.411 91.8458 165.235C91.4435 165.085 91.1082 164.86 90.8177 164.534C90.5495 164.208 90.3483 163.832 90.1919 163.356C90.0578 162.88 89.9907 162.304 89.9907 161.652C89.9907 161.026 90.0578 160.499 90.2142 159.998C90.3483 159.522 90.5718 159.096 90.84 158.745C91.1082 158.395 91.4435 158.144 91.8235 157.969C92.2034 157.768 92.6504 157.693 93.1421 157.693C93.6338 157.693 94.1032 157.768 94.4608 157.969C94.8184 158.119 95.1313 158.37 95.3772 158.67C95.623 158.971 95.7795 159.347 95.9136 159.748C96.0253 160.149 96.0924 160.6 96.0924 161.101V161.376H96.0477ZM94.3714 160.85C94.3938 160.324 94.282 159.873 94.0809 159.572C93.8573 159.247 93.5444 159.121 93.1198 159.121C92.8963 159.121 92.7175 159.171 92.5387 159.247C92.3822 159.322 92.2258 159.472 92.1364 159.622C92.0246 159.773 91.9352 159.973 91.8905 160.199C91.8458 160.424 91.8011 160.625 91.8011 160.9H94.3714V160.85Z" fill="#292C33"/>
<path d="M102.125 163.933C102.125 164.058 102.125 164.183 102.125 164.283C102.125 164.359 102.102 164.434 102.102 164.534C102.102 164.584 102.08 164.634 102.058 164.684C102.035 164.709 102.013 164.76 101.968 164.81C101.924 164.86 101.834 164.935 101.678 165.035C101.544 165.11 101.387 165.185 101.231 165.286C101.074 165.336 100.873 165.411 100.672 165.436C100.471 165.486 100.27 165.486 100.046 165.486C99.5767 165.486 99.1521 165.411 98.7944 165.236C98.4368 165.085 98.1239 164.835 97.8781 164.509C97.6322 164.183 97.4534 163.782 97.3193 163.331C97.2076 162.88 97.1182 162.329 97.1182 161.753C97.1182 161.051 97.1852 160.475 97.364 159.948C97.4981 159.447 97.7216 159.046 98.0122 158.695C98.2804 158.37 98.6156 158.119 98.9956 157.969C99.3756 157.818 99.7779 157.718 100.247 157.718C100.448 157.718 100.605 157.743 100.806 157.768C100.962 157.793 101.141 157.843 101.298 157.894C101.432 157.944 101.588 158.019 101.7 158.119C101.812 158.194 101.924 158.244 101.968 158.345C102.013 158.395 102.058 158.445 102.08 158.47C102.102 158.495 102.102 158.545 102.125 158.62C102.125 158.67 102.147 158.746 102.147 158.871C102.147 158.946 102.147 159.071 102.147 159.197C102.147 159.497 102.125 159.698 102.08 159.848C102.035 159.973 101.991 160.049 101.923 160.049C101.856 160.049 101.767 160.024 101.678 159.948C101.611 159.873 101.476 159.798 101.365 159.698C101.253 159.623 101.097 159.547 100.94 159.447C100.761 159.372 100.582 159.347 100.337 159.347C99.8896 159.347 99.5544 159.522 99.3085 159.948C99.0626 160.349 98.9509 160.926 98.9509 161.677C98.9509 162.053 98.9733 162.379 99.0403 162.68C99.1074 162.98 99.1744 163.181 99.3085 163.381C99.4203 163.582 99.5767 163.707 99.7332 163.807C99.8896 163.908 100.113 163.933 100.359 163.933C100.605 163.933 100.806 163.908 100.985 163.807C101.141 163.732 101.298 163.657 101.432 163.532C101.544 163.431 101.678 163.331 101.767 163.256C101.856 163.181 101.923 163.131 101.991 163.131C102.058 163.131 102.058 163.131 102.08 163.156C102.102 163.181 102.125 163.231 102.147 163.281C102.169 163.356 102.169 163.431 102.192 163.557C102.236 163.632 102.125 163.782 102.125 163.933Z" fill="#292C33"/>
<path d="M107.937 158.721C107.937 158.871 107.937 159.046 107.915 159.147C107.915 159.247 107.893 159.372 107.87 159.422C107.848 159.472 107.826 159.523 107.781 159.548C107.759 159.573 107.714 159.573 107.669 159.573H106.105V165.01C106.105 165.06 106.082 165.11 106.06 165.135C106.038 165.161 105.993 165.211 105.926 165.236C105.859 165.261 105.792 165.286 105.658 165.286C105.546 165.286 105.389 165.311 105.233 165.311C105.076 165.311 104.92 165.311 104.831 165.286C104.719 165.286 104.629 165.261 104.562 165.236C104.495 165.211 104.451 165.186 104.428 165.135C104.406 165.11 104.384 165.06 104.384 165.01V159.573H102.841C102.797 159.573 102.752 159.573 102.73 159.523C102.707 159.497 102.663 159.447 102.64 159.397C102.618 159.347 102.596 159.247 102.596 159.122C102.596 159.021 102.573 158.846 102.573 158.696C102.573 158.545 102.573 158.42 102.596 158.32C102.618 158.22 102.618 158.119 102.64 158.044C102.663 157.994 102.685 157.944 102.707 157.919C102.73 157.894 102.774 157.869 102.819 157.869H107.624C107.669 157.869 107.691 157.869 107.736 157.919C107.759 157.944 107.803 157.994 107.826 158.044C107.848 158.094 107.87 158.194 107.87 158.32C107.937 158.445 107.937 158.595 107.937 158.721Z" fill="#292C33"/>
<path d="M114.508 163.031C114.508 163.431 114.441 163.782 114.307 164.083C114.195 164.384 113.971 164.609 113.703 164.835C113.435 165.035 113.1 165.186 112.698 165.286C112.295 165.386 111.826 165.436 111.289 165.436C111.133 165.436 110.954 165.436 110.798 165.436C110.664 165.436 110.485 165.436 110.351 165.436C110.217 165.436 110.06 165.436 109.926 165.411C109.792 165.411 109.636 165.386 109.479 165.361C109.256 165.336 109.121 165.286 109.032 165.135C108.943 165.01 108.898 164.835 108.898 164.559V158.645C108.898 158.395 108.943 158.244 109.01 158.119C109.099 157.994 109.233 157.919 109.412 157.894C109.524 157.894 109.658 157.869 109.814 157.869C109.948 157.869 110.127 157.844 110.284 157.844C110.44 157.844 110.641 157.844 110.842 157.819C111.044 157.819 111.222 157.819 111.424 157.819C111.915 157.819 112.34 157.844 112.698 157.919C113.055 157.994 113.346 158.119 113.592 158.27C113.837 158.42 113.994 158.62 114.083 158.871C114.195 159.096 114.24 159.347 114.24 159.673C114.24 160.099 114.15 160.424 113.949 160.725C113.748 161.001 113.48 161.176 113.077 161.302C113.524 161.377 113.882 161.602 114.15 161.903C114.374 162.128 114.508 162.529 114.508 163.031ZM112.608 159.948C112.608 159.823 112.586 159.673 112.541 159.573C112.496 159.472 112.429 159.372 112.318 159.297C112.228 159.222 112.094 159.172 111.938 159.147C111.781 159.122 111.58 159.096 111.356 159.096C111.178 159.096 111.021 159.096 110.865 159.121C110.731 159.121 110.574 159.147 110.462 159.147V160.901H111.401C111.781 160.901 112.094 160.825 112.295 160.65C112.496 160.5 112.608 160.249 112.608 159.948ZM112.787 162.98C112.787 162.83 112.765 162.68 112.72 162.554C112.675 162.429 112.608 162.329 112.474 162.254C112.362 162.179 112.206 162.128 112.049 162.053C111.848 162.028 111.647 162.003 111.401 162.003H110.507V163.983C110.574 163.983 110.641 164.008 110.753 164.008C110.82 164.008 110.909 164.008 110.999 164.033C111.066 164.058 111.178 164.033 111.245 164.033C111.312 164.033 111.379 164.033 111.468 164.033C111.714 164.033 111.915 164.008 112.094 163.958C112.251 163.908 112.407 163.857 112.519 163.732C112.63 163.632 112.72 163.507 112.765 163.381C112.765 163.306 112.787 163.156 112.787 162.98Z" fill="#292C33"/>
<path d="M121.502 161.376C121.502 161.627 121.458 161.777 121.368 161.903C121.279 162.003 121.145 162.053 120.988 162.053H117.256C117.256 162.354 117.278 162.629 117.345 162.855C117.412 163.105 117.502 163.281 117.636 163.481C117.77 163.632 117.949 163.782 118.172 163.857C118.396 163.932 118.641 163.982 118.932 163.982C119.245 163.982 119.513 163.957 119.714 163.907C119.96 163.857 120.139 163.807 120.318 163.757C120.474 163.707 120.631 163.657 120.72 163.607C120.832 163.556 120.921 163.531 120.988 163.531C121.033 163.531 121.055 163.531 121.078 163.557C121.1 163.582 121.122 163.607 121.145 163.657C121.167 163.707 121.167 163.757 121.189 163.857C121.189 163.932 121.189 164.058 121.189 164.183C121.189 164.283 121.189 164.408 121.189 164.484C121.189 164.559 121.189 164.609 121.167 164.709C121.167 164.759 121.145 164.809 121.122 164.835C121.1 164.86 121.078 164.91 121.055 164.935C121.033 164.96 120.944 165.01 120.809 165.06C120.698 165.11 120.497 165.185 120.318 165.26C120.094 165.311 119.893 165.361 119.602 165.411C119.334 165.461 119.044 165.486 118.731 165.486C118.172 165.486 117.703 165.411 117.3 165.235C116.898 165.085 116.563 164.86 116.272 164.534C116.004 164.208 115.803 163.832 115.646 163.356C115.512 162.88 115.445 162.304 115.445 161.652C115.445 161.026 115.512 160.499 115.669 159.998C115.803 159.522 116.026 159.096 116.295 158.745C116.563 158.395 116.898 158.144 117.278 157.969C117.658 157.768 118.105 157.693 118.597 157.693C119.088 157.693 119.558 157.768 119.915 157.969C120.273 158.119 120.586 158.37 120.832 158.67C121.078 158.971 121.234 159.347 121.368 159.748C121.48 160.149 121.525 160.6 121.525 161.101V161.376H121.502ZM119.826 160.85C119.848 160.324 119.737 159.873 119.535 159.572C119.312 159.247 118.999 159.121 118.574 159.121C118.351 159.121 118.172 159.171 117.993 159.247C117.837 159.322 117.68 159.472 117.591 159.622C117.479 159.773 117.39 159.973 117.345 160.199C117.3 160.424 117.256 160.625 117.256 160.9H119.826V160.85Z" fill="#292C33"/>
<path d="M128.878 165.035C128.878 165.085 128.855 165.135 128.833 165.16C128.811 165.186 128.766 165.236 128.699 165.261C128.632 165.286 128.565 165.311 128.431 165.311C128.319 165.311 128.163 165.336 128.029 165.336C127.872 165.336 127.716 165.336 127.604 165.311C127.492 165.311 127.403 165.286 127.336 165.261C127.269 165.236 127.224 165.211 127.202 165.16C127.179 165.135 127.157 165.085 127.157 165.035V162.329H124.676V165.035C124.676 165.085 124.654 165.135 124.631 165.16C124.609 165.186 124.564 165.236 124.497 165.261C124.43 165.286 124.363 165.311 124.229 165.311C124.117 165.311 123.983 165.336 123.804 165.336C123.625 165.336 123.491 165.336 123.38 165.311C123.268 165.311 123.178 165.286 123.111 165.261C123.044 165.236 123 165.211 122.977 165.16C122.955 165.135 122.933 165.085 122.933 165.035V158.119C122.933 158.069 122.955 158.019 122.977 157.994C123 157.969 123.044 157.919 123.111 157.894C123.178 157.869 123.246 157.844 123.38 157.844C123.491 157.844 123.648 157.819 123.804 157.819C123.961 157.819 124.117 157.818 124.229 157.844C124.341 157.844 124.43 157.869 124.497 157.894C124.564 157.919 124.609 157.944 124.631 157.994C124.654 158.019 124.676 158.069 124.676 158.119V160.7H127.157V158.119C127.157 158.069 127.179 158.019 127.202 157.994C127.224 157.969 127.269 157.919 127.336 157.894C127.403 157.869 127.47 157.844 127.604 157.844C127.716 157.844 127.872 157.819 128.029 157.819C128.185 157.819 128.341 157.818 128.431 157.844C128.543 157.844 128.632 157.869 128.699 157.894C128.766 157.919 128.811 157.944 128.833 157.994C128.855 158.019 128.878 158.069 128.878 158.119V165.035Z" fill="#292C33"/>
<path d="M136.545 165.035C136.545 165.085 136.522 165.135 136.5 165.16C136.478 165.186 136.433 165.236 136.366 165.261C136.299 165.286 136.232 165.311 136.098 165.311C135.986 165.311 135.83 165.336 135.696 165.336C135.539 165.336 135.383 165.336 135.271 165.311C135.159 165.311 135.07 165.286 135.003 165.261C134.936 165.236 134.891 165.211 134.869 165.16C134.846 165.135 134.824 165.085 134.824 165.035V162.329H132.343V165.035C132.343 165.085 132.321 165.135 132.298 165.16C132.276 165.186 132.231 165.236 132.164 165.261C132.097 165.286 132.03 165.311 131.896 165.311C131.784 165.311 131.65 165.336 131.471 165.336C131.315 165.336 131.158 165.336 131.047 165.311C130.935 165.311 130.845 165.286 130.778 165.261C130.711 165.236 130.667 165.211 130.644 165.16C130.622 165.135 130.6 165.085 130.6 165.035V158.119C130.6 158.069 130.622 158.019 130.644 157.994C130.667 157.969 130.711 157.919 130.778 157.894C130.845 157.869 130.913 157.844 131.047 157.844C131.158 157.844 131.315 157.819 131.471 157.819C131.628 157.819 131.784 157.818 131.896 157.844C132.008 157.844 132.097 157.869 132.164 157.894C132.231 157.919 132.276 157.944 132.298 157.994C132.321 158.019 132.343 158.069 132.343 158.119V160.7H134.824V158.119C134.824 158.069 134.846 158.019 134.869 157.994C134.891 157.969 134.936 157.919 135.003 157.894C135.07 157.869 135.137 157.844 135.271 157.844C135.383 157.844 135.539 157.819 135.696 157.819C135.852 157.819 136.008 157.818 136.098 157.844C136.21 157.844 136.299 157.869 136.366 157.894C136.433 157.919 136.478 157.944 136.5 157.994C136.522 158.019 136.545 158.069 136.545 158.119V165.035Z" fill="#292C33"/>
<path d="M146.581 165.035C146.581 165.085 146.559 165.135 146.536 165.16C146.514 165.186 146.469 165.236 146.402 165.261C146.335 165.286 146.268 165.311 146.134 165.311C146.022 165.311 145.866 165.336 145.709 165.336C145.553 165.336 145.396 165.336 145.307 165.311C145.195 165.311 145.106 165.286 145.039 165.261C144.972 165.236 144.927 165.211 144.905 165.16C144.882 165.135 144.86 165.085 144.86 165.035V158.119C144.86 158.069 144.882 158.019 144.905 157.994C144.927 157.969 144.972 157.919 145.039 157.894C145.106 157.869 145.173 157.844 145.307 157.844C145.419 157.844 145.553 157.819 145.709 157.819C145.866 157.819 146.022 157.818 146.134 157.844C146.246 157.844 146.335 157.869 146.402 157.894C146.469 157.919 146.514 157.944 146.536 157.994C146.559 158.019 146.581 158.069 146.581 158.119V165.035ZM140.032 160.274C140.166 160.249 140.345 160.249 140.502 160.249C140.658 160.249 140.837 160.224 141.038 160.224C141.53 160.224 141.977 160.274 142.357 160.374C142.714 160.475 143.027 160.675 143.273 160.876C143.519 161.101 143.675 161.352 143.809 161.652C143.921 161.953 143.966 162.304 143.966 162.705C143.966 163.106 143.899 163.482 143.765 163.832C143.653 164.183 143.429 164.459 143.161 164.684C142.893 164.935 142.558 165.11 142.133 165.261C141.731 165.386 141.217 165.461 140.68 165.461C140.546 165.461 140.367 165.461 140.233 165.461C140.077 165.461 139.92 165.461 139.786 165.436C139.652 165.436 139.496 165.411 139.362 165.411C139.228 165.411 139.071 165.386 138.959 165.386C138.736 165.361 138.579 165.286 138.49 165.16C138.401 165.035 138.356 164.835 138.356 164.584V158.144C138.356 158.094 138.378 158.044 138.401 158.019C138.423 157.994 138.468 157.944 138.535 157.919C138.602 157.894 138.669 157.869 138.803 157.869C138.892 157.869 139.049 157.844 139.183 157.844C139.518 157.844 139.764 157.869 139.876 157.919C140.01 157.969 140.099 158.044 140.099 158.169V160.299H140.032V160.274ZM142.2 162.83C142.2 162.63 142.178 162.479 142.133 162.354C142.088 162.229 142.021 162.078 141.887 161.978C141.798 161.878 141.641 161.778 141.463 161.727C141.306 161.677 141.083 161.652 140.815 161.652C140.68 161.652 140.524 161.652 140.39 161.652C140.278 161.652 140.144 161.677 140.032 161.677V163.908C140.144 163.933 140.3 163.933 140.412 163.933C140.524 163.933 140.703 163.958 140.859 163.958C141.306 163.958 141.641 163.857 141.865 163.632C142.088 163.482 142.2 163.206 142.2 162.83Z" fill="#292C33"/>
<path d="M154.448 165.06C154.448 165.11 154.448 165.16 154.403 165.185C154.381 165.21 154.336 165.235 154.269 165.261C154.202 165.286 154.135 165.286 154.001 165.311C153.889 165.311 153.755 165.336 153.598 165.336C153.442 165.336 153.285 165.336 153.196 165.311C153.084 165.311 152.972 165.286 152.928 165.261C152.861 165.235 152.816 165.21 152.794 165.185C152.771 165.16 152.749 165.11 152.749 165.06V161.978C152.749 161.752 152.749 161.552 152.771 161.301C152.771 161.051 152.794 160.85 152.816 160.625C152.704 160.85 152.57 161.051 152.458 161.276C152.347 161.502 152.19 161.702 152.078 161.903L150 165.085C149.955 165.135 149.933 165.185 149.888 165.21C149.866 165.236 149.821 165.286 149.754 165.286C149.709 165.311 149.642 165.311 149.53 165.336C149.441 165.336 149.329 165.336 149.195 165.336C149.039 165.336 148.905 165.336 148.793 165.311C148.704 165.311 148.592 165.286 148.547 165.261C148.48 165.235 148.458 165.21 148.435 165.185C148.413 165.16 148.391 165.11 148.391 165.06V158.119C148.391 158.069 148.391 158.044 148.435 157.994C148.458 157.969 148.502 157.919 148.569 157.894C148.636 157.868 148.704 157.843 148.838 157.843C148.972 157.843 149.083 157.818 149.24 157.818C149.575 157.818 149.799 157.843 149.933 157.894C150.067 157.944 150.134 158.019 150.134 158.119V161.176C150.134 161.402 150.134 161.602 150.112 161.853C150.089 162.078 150.089 162.304 150.067 162.504C150.179 162.279 150.29 162.103 150.402 161.878C150.514 161.652 150.648 161.477 150.76 161.276L152.838 158.094C152.883 158.044 152.905 157.994 152.95 157.969C152.995 157.944 153.04 157.894 153.084 157.894C153.151 157.868 153.218 157.868 153.33 157.843C153.419 157.843 153.554 157.818 153.688 157.818C153.844 157.818 153.978 157.818 154.09 157.843C154.179 157.843 154.291 157.868 154.358 157.894C154.425 157.919 154.448 157.944 154.47 157.994C154.492 158.019 154.492 158.069 154.492 158.119V165.085H154.448V165.06ZM153.956 154.836C153.956 155.137 153.911 155.438 153.844 155.688C153.755 155.964 153.598 156.19 153.419 156.39C153.218 156.616 152.972 156.766 152.66 156.866C152.347 156.966 151.944 157.067 151.497 157.067C151.05 157.067 150.67 157.016 150.357 156.916C150.045 156.816 149.776 156.641 149.598 156.465C149.396 156.265 149.262 156.039 149.173 155.764C149.083 155.488 149.039 155.162 149.039 154.861C149.039 154.786 149.039 154.736 149.083 154.686C149.106 154.636 149.151 154.611 149.195 154.561C149.262 154.536 149.329 154.511 149.441 154.511C149.53 154.511 149.687 154.486 149.821 154.486C149.955 154.486 150.089 154.486 150.179 154.511C150.268 154.536 150.335 154.536 150.402 154.586C150.447 154.611 150.492 154.661 150.514 154.711C150.536 154.761 150.536 154.811 150.536 154.861C150.536 154.987 150.559 155.137 150.603 155.237C150.648 155.338 150.715 155.463 150.804 155.538C150.894 155.613 151.006 155.688 151.117 155.738C151.229 155.789 151.386 155.814 151.52 155.814C151.654 155.814 151.81 155.789 151.922 155.738C152.034 155.688 152.145 155.638 152.235 155.513C152.324 155.438 152.369 155.313 152.436 155.187C152.481 155.062 152.503 154.912 152.503 154.786C152.503 154.736 152.503 154.686 152.525 154.636C152.548 154.586 152.57 154.561 152.615 154.536C152.66 154.511 152.727 154.486 152.838 154.461C152.928 154.435 153.062 154.436 153.174 154.436C153.33 154.436 153.487 154.435 153.576 154.461C153.665 154.461 153.777 154.486 153.844 154.511C153.911 154.536 153.956 154.586 153.978 154.636C153.934 154.686 153.956 154.761 153.956 154.836Z" fill="#292C33"/>
<path d="M163.993 163.933C163.993 164.058 163.993 164.183 163.993 164.283C163.993 164.359 163.97 164.434 163.97 164.534C163.97 164.584 163.948 164.634 163.926 164.684C163.903 164.709 163.881 164.76 163.836 164.81C163.792 164.86 163.702 164.935 163.546 165.035C163.412 165.11 163.255 165.185 163.099 165.286C162.942 165.336 162.741 165.411 162.54 165.436C162.339 165.486 162.138 165.486 161.914 165.486C161.445 165.486 161.02 165.411 160.663 165.236C160.305 165.085 159.992 164.835 159.746 164.509C159.5 164.183 159.322 163.782 159.187 163.331C159.076 162.88 158.986 162.329 158.986 161.753C158.986 161.051 159.053 160.475 159.232 159.948C159.366 159.447 159.59 159.046 159.88 158.695C160.149 158.37 160.484 158.119 160.864 157.969C161.244 157.818 161.646 157.718 162.115 157.718C162.317 157.718 162.473 157.743 162.674 157.768C162.831 157.793 163.009 157.843 163.166 157.894C163.3 157.944 163.456 158.019 163.568 158.119C163.68 158.194 163.792 158.244 163.836 158.345C163.881 158.395 163.926 158.445 163.948 158.47C163.97 158.495 163.97 158.545 163.993 158.62C163.993 158.67 164.015 158.746 164.015 158.871C164.015 158.946 164.015 159.071 164.015 159.197C164.015 159.497 163.993 159.698 163.948 159.848C163.903 159.973 163.859 160.049 163.769 160.049C163.702 160.049 163.613 160.024 163.523 159.948C163.456 159.873 163.322 159.798 163.211 159.698C163.099 159.623 162.942 159.547 162.786 159.447C162.629 159.372 162.428 159.347 162.182 159.347C161.735 159.347 161.4 159.522 161.154 159.948C160.908 160.349 160.797 160.926 160.797 161.677C160.797 162.053 160.819 162.379 160.886 162.68C160.953 162.98 161.02 163.181 161.154 163.381C161.266 163.582 161.423 163.707 161.579 163.807C161.735 163.908 161.959 163.933 162.205 163.933C162.451 163.933 162.652 163.908 162.831 163.807C162.987 163.732 163.144 163.657 163.278 163.532C163.389 163.431 163.523 163.331 163.613 163.256C163.702 163.181 163.769 163.131 163.836 163.131C163.881 163.131 163.903 163.131 163.926 163.156C163.948 163.181 163.97 163.231 163.993 163.281C164.015 163.356 164.015 163.431 164.038 163.557C164.127 163.632 163.993 163.782 163.993 163.933Z" fill="#292C33"/>
<path d="M171.458 161.502C171.458 162.103 171.391 162.629 171.235 163.106C171.1 163.582 170.899 163.983 170.609 164.358C170.318 164.709 169.983 164.985 169.558 165.16C169.134 165.361 168.642 165.461 168.083 165.461C167.524 165.461 167.055 165.386 166.653 165.185C166.25 165.035 165.915 164.759 165.647 164.434C165.379 164.108 165.2 163.707 165.043 163.231C164.932 162.755 164.842 162.203 164.842 161.627C164.842 161.051 164.909 160.5 165.066 160.023C165.2 159.547 165.423 159.121 165.692 158.771C165.982 158.42 166.317 158.144 166.742 157.969C167.144 157.768 167.658 157.668 168.217 157.668C168.776 157.668 169.245 157.743 169.648 157.919C170.05 158.069 170.385 158.32 170.653 158.645C170.922 158.971 171.1 159.372 171.257 159.848C171.391 160.349 171.458 160.9 171.458 161.502ZM169.67 161.602C169.67 161.251 169.648 160.951 169.603 160.65C169.558 160.349 169.491 160.124 169.357 159.898C169.245 159.673 169.089 159.522 168.91 159.422C168.709 159.322 168.485 159.222 168.195 159.222C167.927 159.222 167.725 159.272 167.524 159.372C167.323 159.472 167.167 159.648 167.055 159.823C166.943 160.049 166.831 160.274 166.764 160.55C166.697 160.85 166.675 161.176 166.675 161.527C166.675 161.878 166.697 162.178 166.742 162.479C166.787 162.78 166.876 163.005 166.988 163.231C167.1 163.456 167.256 163.607 167.435 163.707C167.636 163.807 167.86 163.857 168.15 163.857C168.418 163.857 168.642 163.807 168.843 163.707C169.044 163.607 169.201 163.431 169.312 163.256C169.424 163.03 169.536 162.805 169.603 162.529C169.648 162.304 169.67 161.978 169.67 161.602Z" fill="#292C33"/>
<path d="M181.023 161.552C181.023 162.129 180.956 162.63 180.777 163.106C180.643 163.557 180.397 163.958 180.107 164.309C179.816 164.659 179.458 164.935 179.034 165.135C178.609 165.361 178.117 165.461 177.581 165.486V167.767C177.581 167.817 177.559 167.867 177.536 167.892C177.514 167.917 177.469 167.967 177.402 167.992C177.335 168.017 177.268 168.042 177.134 168.042C177.022 168.067 176.866 168.067 176.732 168.067C176.575 168.067 176.419 168.067 176.307 168.042C176.195 168.017 176.106 168.017 176.039 167.992C175.972 167.967 175.927 167.942 175.905 167.892C175.882 167.842 175.86 167.817 175.86 167.767V165.486C175.301 165.461 174.81 165.361 174.385 165.161C173.96 164.96 173.603 164.735 173.312 164.409C173.022 164.083 172.82 163.682 172.664 163.231C172.53 162.78 172.44 162.229 172.44 161.677C172.44 161.101 172.507 160.6 172.686 160.124C172.82 159.673 173.066 159.247 173.357 158.921C173.647 158.57 174.005 158.295 174.43 158.094C174.854 157.869 175.346 157.768 175.882 157.743V155.263C175.882 155.212 175.905 155.162 175.927 155.137C175.949 155.112 175.994 155.062 176.061 155.037C176.128 155.012 176.195 154.987 176.329 154.987C176.441 154.962 176.575 154.962 176.754 154.962C176.911 154.962 177.067 154.962 177.156 154.987C177.268 155.012 177.358 155.012 177.425 155.037C177.492 155.062 177.536 155.087 177.559 155.137C177.581 155.187 177.603 155.212 177.603 155.263V157.743C178.184 157.768 178.654 157.869 179.079 158.069C179.503 158.27 179.861 158.495 180.151 158.821C180.442 159.147 180.643 159.547 180.799 159.999C180.934 160.45 181.023 160.951 181.023 161.552ZM179.257 161.627C179.257 160.926 179.146 160.399 178.877 159.999C178.609 159.598 178.184 159.347 177.581 159.272V163.958C178.117 163.908 178.542 163.682 178.833 163.306C179.123 162.88 179.257 162.354 179.257 161.627ZM175.838 159.247C175.301 159.297 174.877 159.522 174.586 159.898C174.296 160.274 174.161 160.85 174.161 161.602C174.161 161.953 174.184 162.254 174.251 162.504C174.318 162.78 174.43 163.006 174.541 163.206C174.653 163.406 174.854 163.557 175.078 163.682C175.301 163.807 175.547 163.908 175.838 163.933V159.247Z" fill="#292C33"/>
<path d="M186.766 158.721C186.766 158.871 186.766 159.046 186.744 159.147C186.744 159.247 186.722 159.372 186.699 159.422C186.677 159.472 186.655 159.523 186.61 159.548C186.588 159.573 186.543 159.573 186.498 159.573H184.934V165.01C184.934 165.06 184.911 165.11 184.889 165.135C184.867 165.161 184.822 165.211 184.755 165.236C184.688 165.261 184.621 165.286 184.487 165.286C184.353 165.286 184.218 165.311 184.062 165.311C183.906 165.311 183.749 165.311 183.66 165.286C183.548 165.286 183.459 165.261 183.392 165.236C183.324 165.211 183.28 165.186 183.257 165.135C183.235 165.11 183.213 165.06 183.213 165.01V159.573H181.671C181.626 159.573 181.581 159.573 181.559 159.523C181.536 159.497 181.492 159.447 181.469 159.397C181.447 159.347 181.425 159.247 181.425 159.122C181.425 159.021 181.402 158.846 181.402 158.696C181.402 158.545 181.402 158.42 181.425 158.32C181.447 158.22 181.447 158.119 181.469 158.044C181.492 157.994 181.514 157.944 181.536 157.919C181.559 157.894 181.603 157.869 181.648 157.869H186.454C186.498 157.869 186.521 157.869 186.565 157.919C186.588 157.944 186.632 157.994 186.655 158.044C186.677 158.094 186.699 158.194 186.699 158.32C186.722 158.445 186.766 158.595 186.766 158.721Z" fill="#292C33"/>
<path d="M110.663 31.8269H135.762C135.762 41.4241 135.762 51.0464 135.762 60.6687H110.663C110.663 51.0464 110.663 41.4492 110.663 31.8269Z" fill="#108FCE"/>
<path d="M136.523 31.8269H161.69C161.578 41.4492 161.69 51.0715 161.645 60.6687C153.286 60.6687 144.927 60.6687 136.546 60.6687C136.434 58.4886 136.546 56.3337 136.501 54.1536C136.501 46.7114 136.501 39.2691 136.501 31.8269H136.523Z" fill="#ECECEC"/>
<path d="M162.314 31.8269H187.458C187.458 41.4492 187.525 51.0715 187.458 60.6687C179.099 60.6687 170.74 60.6687 162.359 60.6687C162.359 51.0464 162.359 41.4241 162.359 31.8269H162.314Z" fill="#ECECEC"/>
<path d="M84.7351 90.4127C84.7351 80.7654 84.6904 71.143 84.7351 61.4957C93.1389 61.4957 101.52 61.4957 109.924 61.4957C109.924 71.1179 109.924 80.7403 109.924 90.3625C101.52 90.3625 93.0942 90.3625 84.6904 90.3625L84.7351 90.4127Z" fill="#E31E27"/>
<path d="M110.64 61.5706C119.021 61.5706 127.38 61.5706 135.739 61.5706C135.739 71.1678 135.739 80.7901 135.739 90.4123C127.38 90.4123 119.021 90.4123 110.64 90.4123C110.64 80.7901 110.64 71.1678 110.64 61.5706Z" fill="#108FCE"/>
<path d="M136.478 61.5709C144.747 61.5709 152.995 61.5709 161.264 61.5709C161.756 61.4456 161.577 62.1973 161.622 62.498C161.622 71.7945 161.622 81.1162 161.622 90.4127C153.263 90.4127 144.881 90.4127 136.522 90.4127C136.411 80.7904 136.522 71.1681 136.522 61.5709H136.478Z" fill="#108FCE"/>
<path d="M162.316 61.6707C168.842 61.5203 175.391 61.6706 181.939 61.6205C183.772 61.6205 185.605 61.5454 187.438 61.6957C187.527 70.1654 187.438 78.66 187.438 87.1296C187.438 88.2322 187.438 89.3597 187.37 90.4623C179.011 90.4623 170.652 90.4623 162.271 90.4623C162.271 80.8651 162.271 71.293 162.271 61.6957L162.316 61.6707Z" fill="#ECECEC"/>
<path d="M58.9892 91.2142C67.3483 91.2142 75.7073 91.2142 84.0887 91.2142C84.0887 100.511 84.0887 109.832 84.0887 119.129C84.0217 119.455 84.2005 120.181 83.7088 120.056C75.4615 120.056 67.2142 120.056 58.9669 120.056C58.8104 118.703 58.7657 117.325 58.8551 115.972C58.8551 108.254 58.8551 100.536 58.8551 92.793C58.8775 92.2417 58.9445 91.7155 59.0116 91.1642L58.9892 91.2142Z" fill="#E31E27"/>
<path d="M84.7808 91.2393C93.1845 91.2393 101.566 91.2393 109.947 91.2393C109.947 100.761 109.947 110.258 109.947 119.78C109.701 120.231 109.232 120.056 108.875 120.106C102.058 120.106 95.2407 120.106 88.4239 120.106C87.217 120.106 85.9877 120.106 84.8031 120.031C84.8031 110.409 84.8031 100.811 84.7808 91.2393Z" fill="#E31E27"/>
<path d="M110.663 91.2142C119.022 91.2142 127.381 91.2142 135.762 91.2142C135.762 100.862 135.829 110.484 135.762 120.106C127.425 120.106 119.066 120.106 110.73 120.106C110.73 110.484 110.73 100.862 110.73 91.2393L110.663 91.2142Z" fill="#E31E27"/>
<path d="M136.499 91.2142C144.88 91.2142 153.239 91.2142 161.598 91.2142C161.598 100.536 161.598 109.832 161.598 119.154C161.553 119.455 161.71 120.206 161.24 120.081C153.15 120.081 145.059 120.081 136.99 120.081C136.499 120.206 136.364 119.555 136.431 119.154C136.431 109.857 136.387 100.536 136.431 91.2142H136.499Z" fill="#108FCE"/>
<path d="M162.337 91.2396C170.696 91.1644 179.033 91.2396 187.392 91.2396C187.548 96.3765 187.392 101.488 187.459 106.625C187.459 111.111 187.526 115.571 187.459 120.056C179.077 120.056 170.718 120.131 162.359 120.056C162.359 110.484 162.359 100.887 162.359 91.3147L162.337 91.2396Z" fill="#ECECEC"/>
</svg>
