<svg width="374" height="54" viewBox="0 0 374 54" fill="none" xmlns="http://www.w3.org/2000/svg">
<path d="M66.0048 14.072C65.2795 14.008 64.6822 13.8533 64.2128 13.608C63.7435 13.3627 63.3702 13.0373 63.0928 12.632C62.8155 12.216 62.6182 11.7253 62.5008 11.16C62.3942 10.5947 62.3408 9.96 62.3408 9.256C62.3408 8.59467 62.3995 7.98667 62.5168 7.432C62.6448 6.86667 62.8528 6.376 63.1408 5.96C63.4288 5.53333 63.8075 5.192 64.2768 4.936C64.7462 4.68 65.3222 4.52 66.0048 4.456V3.864H67.7808V4.456C68.4635 4.52 69.0395 4.68 69.5088 4.936C69.9782 5.18133 70.3568 5.50667 70.6448 5.912C70.9328 6.31733 71.1408 6.79733 71.2688 7.352C71.3968 7.90667 71.4608 8.52533 71.4608 9.208C71.4608 9.912 71.4022 10.552 71.2848 11.128C71.1675 11.6933 70.9702 12.184 70.6928 12.6C70.4155 13.016 70.0368 13.352 69.5568 13.608C69.0875 13.8533 68.4955 14.008 67.7808 14.072V15H66.0048V14.072ZM65.9888 6.12C65.2955 6.17333 64.8155 6.47733 64.5488 7.032C64.2822 7.58667 64.1488 8.312 64.1488 9.208C64.1488 9.70933 64.1755 10.1573 64.2288 10.552C64.2928 10.936 64.3942 11.2667 64.5328 11.544C64.6715 11.8107 64.8582 12.0187 65.0928 12.168C65.3382 12.3173 65.6368 12.408 65.9888 12.44V6.12ZM67.7968 12.44C68.5115 12.3867 68.9968 12.0933 69.2528 11.56C69.5195 11.016 69.6528 10.2267 69.6528 9.192C69.6528 8.28533 69.5142 7.56 69.2368 7.016C68.9702 6.472 68.4902 6.17333 67.7968 6.12V12.44ZM73.9608 15V3.864H80.1528V5.56H75.7848V8.536H79.5448V10.2H75.7848V13.256H80.1528V15H73.9608ZM83.1233 17.288H81.5393V13.496C81.678 13.4747 81.8113 13.4533 81.9393 13.432C82.0673 13.4 82.2007 13.368 82.3393 13.336C82.574 13.1333 82.7553 12.8987 82.8833 12.632C83.022 12.3653 83.1287 12.04 83.2033 11.656C83.2887 11.2613 83.3473 10.8027 83.3793 10.28C83.4113 9.74667 83.438 9.12267 83.4593 8.408L83.6193 3.864H89.7633C89.7633 5.45333 89.7633 7.03733 89.7633 8.616C89.774 10.1947 89.7793 11.7787 89.7793 13.368H90.6593V17.288H89.0753V15H83.1233V17.288ZM87.9713 13.368V5.528H85.2193L85.0913 8.872C85.07 9.352 85.0487 9.816 85.0273 10.264C85.006 10.712 84.9687 11.128 84.9153 11.512C84.8727 11.896 84.8087 12.248 84.7233 12.568C84.638 12.8773 84.5207 13.144 84.3713 13.368H87.9713ZM92.8577 15V3.864H99.0497V5.56H94.6817V8.536H98.4417V10.2H94.6817V13.256H99.0497V15H92.8577ZM107.988 7.304C107.988 7.784 107.919 8.232 107.78 8.648C107.642 9.064 107.434 9.42667 107.156 9.736C106.89 10.0453 106.548 10.2907 106.132 10.472C105.716 10.6427 105.231 10.728 104.676 10.728H103.044V15H101.22V3.864H104.58C105.103 3.864 105.572 3.93333 105.988 4.072C106.404 4.21067 106.762 4.424 107.06 4.712C107.359 4.98933 107.588 5.34667 107.748 5.784C107.908 6.21067 107.988 6.71733 107.988 7.304ZM106.18 7.272C106.18 6.71733 106.047 6.296 105.78 6.008C105.514 5.70933 105.108 5.56 104.564 5.56H103.044V9.016H104.58C105.124 9.016 105.524 8.86133 105.78 8.552C106.047 8.232 106.18 7.80533 106.18 7.272ZM114.147 12.6H111.059C111.037 12.696 110.995 12.856 110.931 13.08C110.867 13.304 110.797 13.544 110.723 13.8C110.659 14.056 110.595 14.296 110.531 14.52C110.477 14.744 110.435 14.904 110.403 15H108.499L111.715 3.864H113.475L116.707 15H114.771L114.147 12.6ZM112.035 8.728L111.459 10.968H113.731L113.171 8.744C113.149 8.648 113.112 8.488 113.059 8.264C113.016 8.04 112.963 7.80533 112.899 7.56C112.845 7.31467 112.792 7.08533 112.739 6.872C112.685 6.648 112.653 6.488 112.643 6.392H112.563L112.035 8.728ZM121.193 9.688C121.193 10.5733 121.145 11.3413 121.049 11.992C120.963 12.632 120.803 13.176 120.569 13.624C120.345 14.0613 120.041 14.4133 119.657 14.68C119.273 14.936 118.793 15.1227 118.217 15.24L117.721 13.816C118.062 13.6773 118.345 13.5173 118.569 13.336C118.803 13.144 118.99 12.904 119.129 12.616C119.267 12.328 119.363 11.9707 119.417 11.544C119.481 11.1173 119.513 10.584 119.513 9.944V3.864H125.529V15H123.721V5.56H121.193V9.688ZM135.201 11.56C135.201 12.6907 134.897 13.5493 134.289 14.136C133.692 14.712 132.871 15 131.825 15H128.385V3.864H130.225V8.264H131.825C132.412 8.264 132.913 8.34933 133.329 8.52C133.756 8.68 134.108 8.904 134.385 9.192C134.663 9.48 134.865 9.82667 134.993 10.232C135.132 10.6373 135.201 11.08 135.201 11.56ZM133.361 11.608C133.361 11.096 133.233 10.696 132.977 10.408C132.732 10.12 132.321 9.976 131.745 9.976H130.209V13.304H131.761C132.316 13.304 132.721 13.1493 132.977 12.84C133.233 12.5307 133.361 12.12 133.361 11.608ZM142.224 15V10.184H139.088V15H137.248V3.864H139.088V8.536H142.224V3.864H144.048V15H142.224ZM146.877 15V3.864H148.701V8.28H150.333C150.919 8.28 151.421 8.36 151.837 8.52C152.263 8.68 152.61 8.90933 152.877 9.208C153.154 9.496 153.357 9.84267 153.485 10.248C153.613 10.6427 153.677 11.08 153.677 11.56C153.677 12.7013 153.378 13.56 152.781 14.136C152.183 14.712 151.362 15 150.317 15H146.877ZM150.253 13.304C150.807 13.304 151.213 13.1547 151.469 12.856C151.725 12.5467 151.853 12.1307 151.853 11.608C151.853 11.1067 151.725 10.712 151.469 10.424C151.223 10.1253 150.813 9.976 150.237 9.976H148.701V13.304H150.253ZM154.621 15V3.864H156.445V15H154.621ZM159.207 15V3.864H161.015V11.32C161.026 11.32 161.031 11.3253 161.031 11.336C161.042 11.336 161.052 11.336 161.063 11.336C161.308 10.8773 161.538 10.4187 161.751 9.96C161.975 9.50133 162.199 9.04267 162.423 8.584C162.828 7.79467 163.228 7.01067 163.623 6.232C164.018 5.45333 164.412 4.664 164.807 3.864H166.503V15H164.679V7.736H164.647C164.466 8.088 164.284 8.44533 164.103 8.808C163.922 9.17067 163.74 9.528 163.559 9.88L160.935 15H159.207ZM162.887 3.16C162.439 3.16 162.06 3.08 161.751 2.92C161.452 2.76 161.207 2.56267 161.015 2.328C160.834 2.09333 160.7 1.83733 160.615 1.56C160.53 1.28267 160.482 1.02667 160.471 0.791999H161.847C161.858 0.909333 161.884 1.032 161.927 1.16C161.98 1.27733 162.05 1.38933 162.135 1.496C162.231 1.60267 162.338 1.69333 162.455 1.768C162.583 1.832 162.727 1.864 162.887 1.864C163.058 1.864 163.207 1.832 163.335 1.768C163.463 1.69333 163.57 1.60267 163.655 1.496C163.74 1.38933 163.804 1.27733 163.847 1.16C163.89 1.032 163.911 0.909333 163.911 0.791999H165.271C165.25 1.02667 165.191 1.28267 165.095 1.56C165.01 1.83733 164.876 2.09333 164.695 2.328C164.514 2.56267 164.274 2.76 163.975 2.92C163.676 3.08 163.314 3.16 162.887 3.16ZM173.682 15V3.864H175.49V11.32C175.501 11.32 175.506 11.3253 175.506 11.336C175.517 11.336 175.527 11.336 175.538 11.336C175.783 10.8773 176.013 10.4187 176.226 9.96C176.45 9.50133 176.674 9.04267 176.898 8.584C177.303 7.79467 177.703 7.01067 178.098 6.232C178.493 5.45333 178.887 4.664 179.282 3.864H180.978V15H179.154V7.736H179.122C178.941 8.088 178.759 8.44533 178.578 8.808C178.397 9.17067 178.215 9.528 178.034 9.88L175.41 15H173.682ZM188.693 15V10.184H185.557V15H183.717V3.864H185.557V8.536H188.693V3.864H190.517V15H188.693ZM199.778 12.632C199.596 13.4107 199.212 14.0187 198.626 14.456C198.039 14.8827 197.33 15.096 196.498 15.096C195.922 15.096 195.42 15.0053 194.994 14.824C194.567 14.6427 194.21 14.392 193.922 14.072C193.634 13.752 193.42 13.3787 193.282 12.952C193.143 12.5147 193.074 12.0453 193.074 11.544V7.224C193.074 6.78667 193.143 6.36 193.282 5.944C193.42 5.528 193.628 5.16 193.906 4.84C194.194 4.52 194.551 4.264 194.978 4.072C195.404 3.88 195.911 3.784 196.498 3.784C197.394 3.784 198.119 4.01867 198.674 4.488C199.239 4.95733 199.612 5.544 199.794 6.248L198.05 6.824C198.018 6.664 197.964 6.50933 197.89 6.36C197.815 6.21067 197.714 6.07733 197.586 5.96C197.458 5.832 197.303 5.73067 197.122 5.656C196.94 5.58133 196.732 5.544 196.498 5.544C196.22 5.544 195.98 5.592 195.778 5.688C195.586 5.784 195.426 5.912 195.298 6.072C195.17 6.22133 195.074 6.392 195.01 6.584C194.946 6.776 194.914 6.968 194.914 7.16V11.592C194.914 11.8267 194.946 12.0507 195.01 12.264C195.074 12.4773 195.17 12.664 195.298 12.824C195.436 12.984 195.602 13.112 195.794 13.208C195.996 13.2933 196.231 13.336 196.498 13.336C196.892 13.336 197.228 13.224 197.506 13C197.783 12.776 197.959 12.4667 198.034 12.072L199.778 12.632ZM205.333 5.528V15H203.509V5.528H201.061V3.864H207.797V5.528H205.333ZM209.663 15V3.864H211.471V11.32C211.482 11.32 211.487 11.3253 211.487 11.336C211.498 11.336 211.509 11.336 211.519 11.336C211.765 10.8773 211.994 10.4187 212.207 9.96C212.431 9.50133 212.655 9.04267 212.879 8.584C213.285 7.79467 213.685 7.01067 214.079 6.232C214.474 5.45333 214.869 4.664 215.263 3.864H216.959V15H215.135V7.736H215.103C214.922 8.088 214.741 8.44533 214.559 8.808C214.378 9.17067 214.197 9.528 214.015 9.88L211.391 15H209.663ZM223.042 5.528V15H221.218V5.528H218.77V3.864H225.506V5.528H223.042ZM233.901 3.88C233.431 5.352 232.973 6.81867 232.525 8.28C232.077 9.73067 231.613 11.192 231.133 12.664C230.962 13.1867 230.781 13.608 230.589 13.928C230.397 14.2373 230.194 14.4773 229.981 14.648C229.767 14.808 229.538 14.9147 229.293 14.968C229.047 15.0213 228.781 15.0533 228.493 15.064H227.597V13.56H228.253C228.477 13.56 228.669 13.5013 228.829 13.384C228.999 13.2667 229.159 13.0373 229.309 12.696C229.33 12.632 229.357 12.568 229.389 12.504C229.421 12.4293 229.447 12.3493 229.469 12.264L226.573 3.88H228.461L229.517 7.32L230.317 9.944H230.397C230.482 9.64533 230.599 9.224 230.749 8.68C230.909 8.136 231.074 7.56533 231.245 6.968C231.415 6.36 231.581 5.77867 231.741 5.224C231.901 4.65867 232.023 4.21067 232.109 3.88H233.901ZM239.22 5.528V15H237.396V5.528H234.948V3.864H241.684V5.528H239.22ZM254.247 15H248.023V3.864H249.863V13.304H252.967V3.864H254.791V13.32H255.815V17.304H254.247V15ZM257.885 15V3.864H259.693V11.32C259.704 11.32 259.709 11.3253 259.709 11.336C259.72 11.336 259.73 11.336 259.741 11.336C259.986 10.8773 260.216 10.4187 260.429 9.96C260.653 9.50133 260.877 9.04267 261.101 8.584C261.506 7.79467 261.906 7.01067 262.301 6.232C262.696 5.45333 263.09 4.664 263.485 3.864H265.181V15H263.357V7.736H263.325C263.144 8.088 262.962 8.44533 262.781 8.808C262.6 9.17067 262.418 9.528 262.237 9.88L259.613 15H257.885ZM271.28 14.072C270.554 14.008 269.957 13.8533 269.488 13.608C269.018 13.3627 268.645 13.0373 268.368 12.632C268.09 12.216 267.893 11.7253 267.776 11.16C267.669 10.5947 267.616 9.96 267.616 9.256C267.616 8.59467 267.674 7.98667 267.792 7.432C267.92 6.86667 268.128 6.376 268.416 5.96C268.704 5.53333 269.082 5.192 269.552 4.936C270.021 4.68 270.597 4.52 271.28 4.456V3.864H273.056V4.456C273.738 4.52 274.314 4.68 274.784 4.936C275.253 5.18133 275.632 5.50667 275.92 5.912C276.208 6.31733 276.416 6.79733 276.544 7.352C276.672 7.90667 276.736 8.52533 276.736 9.208C276.736 9.912 276.677 10.552 276.56 11.128C276.442 11.6933 276.245 12.184 275.968 12.6C275.69 13.016 275.312 13.352 274.832 13.608C274.362 13.8533 273.77 14.008 273.056 14.072V15H271.28V14.072ZM271.264 6.12C270.57 6.17333 270.09 6.47733 269.824 7.032C269.557 7.58667 269.424 8.312 269.424 9.208C269.424 9.70933 269.45 10.1573 269.504 10.552C269.568 10.936 269.669 11.2667 269.808 11.544C269.946 11.8107 270.133 12.0187 270.368 12.168C270.613 12.3173 270.912 12.408 271.264 12.44V6.12ZM273.072 12.44C273.786 12.3867 274.272 12.0933 274.528 11.56C274.794 11.016 274.928 10.2267 274.928 9.192C274.928 8.28533 274.789 7.56 274.512 7.016C274.245 6.472 273.765 6.17333 273.072 6.12V12.44ZM286.004 7.304C286.004 7.784 285.934 8.232 285.796 8.648C285.657 9.064 285.449 9.42667 285.172 9.736C284.905 10.0453 284.564 10.2907 284.148 10.472C283.732 10.6427 283.246 10.728 282.692 10.728H281.06V15H279.236V3.864H282.596C283.118 3.864 283.588 3.93333 284.004 4.072C284.42 4.21067 284.777 4.424 285.076 4.712C285.374 4.98933 285.604 5.34667 285.764 5.784C285.924 6.21067 286.004 6.71733 286.004 7.304ZM284.196 7.272C284.196 6.71733 284.062 6.296 283.796 6.008C283.529 5.70933 283.124 5.56 282.58 5.56H281.06V9.016H282.596C283.14 9.016 283.54 8.86133 283.796 8.552C284.062 8.232 284.196 7.80533 284.196 7.272ZM294.595 11.624C294.595 12.1573 294.51 12.6373 294.339 13.064C294.179 13.4907 293.944 13.8587 293.635 14.168C293.336 14.4667 292.979 14.696 292.563 14.856C292.147 15.016 291.688 15.096 291.187 15.096C290.579 15.096 290.056 15 289.619 14.808C289.182 14.6053 288.824 14.3387 288.547 14.008C288.28 13.6667 288.083 13.2773 287.955 12.84C287.827 12.392 287.763 11.9227 287.763 11.432V7.224C287.763 6.82933 287.822 6.42933 287.939 6.024C288.067 5.61867 288.264 5.25067 288.531 4.92C288.808 4.58933 289.16 4.31733 289.587 4.104C290.024 3.89067 290.558 3.784 291.187 3.784C291.774 3.784 292.28 3.88533 292.707 4.088C293.134 4.29067 293.486 4.55733 293.763 4.888C294.051 5.208 294.259 5.576 294.387 5.992C294.526 6.39733 294.595 6.808 294.595 7.224V11.624ZM292.739 7.192C292.739 7.05333 292.712 6.89333 292.659 6.712C292.616 6.52 292.536 6.33867 292.419 6.168C292.302 5.99733 292.142 5.85333 291.939 5.736C291.747 5.608 291.496 5.544 291.187 5.544C290.878 5.544 290.616 5.60267 290.403 5.72C290.2 5.82667 290.035 5.96533 289.907 6.136C289.79 6.296 289.704 6.472 289.651 6.664C289.598 6.856 289.571 7.03733 289.571 7.208L289.587 11.464C289.587 11.9973 289.71 12.4453 289.955 12.808C290.2 13.1707 290.616 13.352 291.203 13.352C291.619 13.352 291.976 13.2133 292.275 12.936C292.584 12.648 292.739 12.2587 292.739 11.768V7.192ZM303.853 11.704C303.853 12.7707 303.565 13.5867 302.989 14.152C302.424 14.7173 301.661 15 300.701 15H297.117V3.864H300.525C301.581 3.864 302.37 4.136 302.893 4.68C303.426 5.224 303.693 5.96533 303.693 6.904C303.693 7.37333 303.592 7.80533 303.389 8.2C303.197 8.59467 302.845 8.90933 302.333 9.144V9.224C302.6 9.30933 302.829 9.43733 303.021 9.608C303.213 9.768 303.368 9.96 303.485 10.184C303.613 10.408 303.704 10.6533 303.757 10.92C303.821 11.176 303.853 11.4373 303.853 11.704ZM301.901 6.968C301.901 6.52 301.778 6.168 301.533 5.912C301.298 5.656 300.914 5.528 300.381 5.528H298.941V8.44H300.397C300.92 8.44 301.298 8.30667 301.533 8.04C301.778 7.76267 301.901 7.40533 301.901 6.968ZM302.061 11.592C302.061 11.1227 301.944 10.744 301.709 10.456C301.474 10.168 301.085 10.024 300.541 10.024H298.941V13.256H300.557C300.845 13.256 301.085 13.2133 301.277 13.128C301.469 13.0427 301.624 12.9253 301.741 12.776C301.858 12.616 301.938 12.4347 301.981 12.232C302.034 12.0293 302.061 11.816 302.061 11.592ZM312.836 11.624C312.836 12.1573 312.75 12.6373 312.58 13.064C312.42 13.4907 312.185 13.8587 311.876 14.168C311.577 14.4667 311.22 14.696 310.804 14.856C310.388 15.016 309.929 15.096 309.428 15.096C308.82 15.096 308.297 15 307.86 14.808C307.422 14.6053 307.065 14.3387 306.788 14.008C306.521 13.6667 306.324 13.2773 306.196 12.84C306.068 12.392 306.004 11.9227 306.004 11.432V7.224C306.004 6.82933 306.062 6.42933 306.18 6.024C306.308 5.61867 306.505 5.25067 306.772 4.92C307.049 4.58933 307.401 4.31733 307.828 4.104C308.265 3.89067 308.798 3.784 309.428 3.784C310.014 3.784 310.521 3.88533 310.948 4.088C311.374 4.29067 311.726 4.55733 312.004 4.888C312.292 5.208 312.5 5.576 312.628 5.992C312.766 6.39733 312.836 6.808 312.836 7.224V11.624ZM310.98 7.192C310.98 7.05333 310.953 6.89333 310.9 6.712C310.857 6.52 310.777 6.33867 310.66 6.168C310.542 5.99733 310.382 5.85333 310.18 5.736C309.988 5.608 309.737 5.544 309.428 5.544C309.118 5.544 308.857 5.60267 308.644 5.72C308.441 5.82667 308.276 5.96533 308.148 6.136C308.03 6.296 307.945 6.472 307.892 6.664C307.838 6.856 307.812 7.03733 307.812 7.208L307.828 11.464C307.828 11.9973 307.95 12.4453 308.196 12.808C308.441 13.1707 308.857 13.352 309.444 13.352C309.86 13.352 310.217 13.2133 310.516 12.936C310.825 12.648 310.98 12.2587 310.98 11.768V7.192ZM315.326 15V3.864H317.134V11.32C317.144 11.32 317.15 11.3253 317.15 11.336C317.16 11.336 317.171 11.336 317.182 11.336C317.427 10.8773 317.656 10.4187 317.87 9.96C318.094 9.50133 318.318 9.04267 318.542 8.584C318.947 7.79467 319.347 7.01067 319.742 6.232C320.136 5.45333 320.531 4.664 320.926 3.864H322.622V15H320.798V7.736H320.766C320.584 8.088 320.403 8.44533 320.222 8.808C320.04 9.17067 319.859 9.528 319.678 9.88L317.054 15H315.326ZM319.006 3.16C318.558 3.16 318.179 3.08 317.87 2.92C317.571 2.76 317.326 2.56267 317.134 2.328C316.952 2.09333 316.819 1.83733 316.734 1.56C316.648 1.28267 316.6 1.02667 316.59 0.791999H317.966C317.976 0.909333 318.003 1.032 318.046 1.16C318.099 1.27733 318.168 1.38933 318.254 1.496C318.35 1.60267 318.456 1.69333 318.574 1.768C318.702 1.832 318.846 1.864 319.006 1.864C319.176 1.864 319.326 1.832 319.454 1.768C319.582 1.69333 319.688 1.60267 319.774 1.496C319.859 1.38933 319.923 1.27733 319.966 1.16C320.008 1.032 320.03 0.909333 320.03 0.791999H321.39C321.368 1.02667 321.31 1.28267 321.214 1.56C321.128 1.83733 320.995 2.09333 320.814 2.328C320.632 2.56267 320.392 2.76 320.094 2.92C319.795 3.08 319.432 3.16 319.006 3.16ZM65.9888 24.528V34H64.1648V24.528H61.7168V22.864H68.4528V24.528H65.9888ZM77.1195 26.304C77.1195 26.784 77.0501 27.232 76.9115 27.648C76.7728 28.064 76.5648 28.4267 76.2875 28.736C76.0208 29.0453 75.6795 29.2907 75.2635 29.472C74.8475 29.6427 74.3621 29.728 73.8075 29.728H72.1755V34H70.3515V22.864H73.7115C74.2341 22.864 74.7035 22.9333 75.1195 23.072C75.5355 23.2107 75.8928 23.424 76.1915 23.712C76.4901 23.9893 76.7195 24.3467 76.8795 24.784C77.0395 25.2107 77.1195 25.7173 77.1195 26.304ZM75.3115 26.272C75.3115 25.7173 75.1781 25.296 74.9115 25.008C74.6448 24.7093 74.2395 24.56 73.6955 24.56H72.1755V28.016H73.7115C74.2555 28.016 74.6555 27.8613 74.9115 27.552C75.1781 27.232 75.3115 26.8053 75.3115 26.272ZM83.2781 31.6H80.1901C80.1687 31.696 80.1261 31.856 80.0621 32.08C79.9981 32.304 79.9287 32.544 79.8541 32.8C79.7901 33.056 79.7261 33.296 79.6621 33.52C79.6087 33.744 79.5661 33.904 79.5341 34H77.6301L80.8461 22.864H82.6061L85.8381 34H83.9021L83.2781 31.6ZM81.1661 27.728L80.5901 29.968H82.8621L82.3021 27.744C82.2807 27.648 82.2434 27.488 82.1901 27.264C82.1474 27.04 82.0941 26.8053 82.0301 26.56C81.9767 26.3147 81.9234 26.0853 81.8701 25.872C81.8167 25.648 81.7847 25.488 81.7741 25.392H81.6941L81.1661 27.728ZM92.724 34V29.184H89.588V34H87.748V22.864H89.588V27.536H92.724V22.864H94.548V34H92.724ZM103.809 31.632C103.627 32.4107 103.243 33.0187 102.657 33.456C102.07 33.8827 101.361 34.096 100.529 34.096C99.9528 34.096 99.4515 34.0053 99.0248 33.824C98.5982 33.6427 98.2408 33.392 97.9528 33.072C97.6648 32.752 97.4515 32.3787 97.3128 31.952C97.1742 31.5147 97.1048 31.0453 97.1048 30.544V26.224C97.1048 25.7867 97.1742 25.36 97.3128 24.944C97.4515 24.528 97.6595 24.16 97.9368 23.84C98.2248 23.52 98.5822 23.264 99.0088 23.072C99.4355 22.88 99.9422 22.784 100.529 22.784C101.425 22.784 102.15 23.0187 102.705 23.488C103.27 23.9573 103.643 24.544 103.825 25.248L102.081 25.824C102.049 25.664 101.995 25.5093 101.921 25.36C101.846 25.2107 101.745 25.0773 101.617 24.96C101.489 24.832 101.334 24.7307 101.153 24.656C100.971 24.5813 100.763 24.544 100.529 24.544C100.251 24.544 100.011 24.592 99.8088 24.688C99.6168 24.784 99.4568 24.912 99.3288 25.072C99.2008 25.2213 99.1048 25.392 99.0408 25.584C98.9768 25.776 98.9448 25.968 98.9448 26.16V30.592C98.9448 30.8267 98.9768 31.0507 99.0408 31.264C99.1048 31.4773 99.2008 31.664 99.3288 31.824C99.4675 31.984 99.6328 32.112 99.8248 32.208C100.027 32.2933 100.262 32.336 100.529 32.336C100.923 32.336 101.259 32.224 101.537 32C101.814 31.776 101.99 31.4667 102.065 31.072L103.809 31.632ZM109.38 33.072C108.654 33.008 108.057 32.8533 107.588 32.608C107.118 32.3627 106.745 32.0373 106.468 31.632C106.19 31.216 105.993 30.7253 105.876 30.16C105.769 29.5947 105.716 28.96 105.716 28.256C105.716 27.5947 105.774 26.9867 105.892 26.432C106.02 25.8667 106.228 25.376 106.516 24.96C106.804 24.5333 107.182 24.192 107.652 23.936C108.121 23.68 108.697 23.52 109.38 23.456V22.864H111.156V23.456C111.838 23.52 112.414 23.68 112.884 23.936C113.353 24.1813 113.732 24.5067 114.02 24.912C114.308 25.3173 114.516 25.7973 114.644 26.352C114.772 26.9067 114.836 27.5253 114.836 28.208C114.836 28.912 114.777 29.552 114.66 30.128C114.542 30.6933 114.345 31.184 114.068 31.6C113.79 32.016 113.412 32.352 112.932 32.608C112.462 32.8533 111.87 33.008 111.156 33.072V34H109.38V33.072ZM109.364 25.12C108.67 25.1733 108.19 25.4773 107.924 26.032C107.657 26.5867 107.524 27.312 107.524 28.208C107.524 28.7093 107.55 29.1573 107.604 29.552C107.668 29.936 107.769 30.2667 107.908 30.544C108.046 30.8107 108.233 31.0187 108.468 31.168C108.713 31.3173 109.012 31.408 109.364 31.44V25.12ZM111.172 31.44C111.886 31.3867 112.372 31.0933 112.628 30.56C112.894 30.016 113.028 29.2267 113.028 28.192C113.028 27.2853 112.889 26.56 112.612 26.016C112.345 25.472 111.865 25.1733 111.172 25.12V31.44ZM123.864 30.624C123.864 31.1573 123.778 31.6373 123.608 32.064C123.448 32.4907 123.213 32.8587 122.904 33.168C122.605 33.4667 122.248 33.696 121.832 33.856C121.416 34.016 120.957 34.096 120.456 34.096C119.848 34.096 119.325 34 118.888 33.808C118.45 33.6053 118.093 33.3387 117.816 33.008C117.549 32.6667 117.352 32.2773 117.224 31.84C117.096 31.392 117.032 30.9227 117.032 30.432V26.224C117.032 25.8293 117.09 25.4293 117.208 25.024C117.336 24.6187 117.533 24.2507 117.8 23.92C118.077 23.5893 118.429 23.3173 118.856 23.104C119.293 22.8907 119.826 22.784 120.456 22.784C121.042 22.784 121.549 22.8853 121.976 23.088C122.402 23.2907 122.754 23.5573 123.032 23.888C123.32 24.208 123.528 24.576 123.656 24.992C123.794 25.3973 123.864 25.808 123.864 26.224V30.624ZM122.008 26.192C122.008 26.0533 121.981 25.8933 121.928 25.712C121.885 25.52 121.805 25.3387 121.688 25.168C121.57 24.9973 121.41 24.8533 121.208 24.736C121.016 24.608 120.765 24.544 120.456 24.544C120.146 24.544 119.885 24.6027 119.672 24.72C119.469 24.8267 119.304 24.9653 119.176 25.136C119.058 25.296 118.973 25.472 118.92 25.664C118.866 25.856 118.84 26.0373 118.84 26.208L118.856 30.464C118.856 30.9973 118.978 31.4453 119.224 31.808C119.469 32.1707 119.885 32.352 120.472 32.352C120.888 32.352 121.245 32.2133 121.544 31.936C121.853 31.648 122.008 31.2587 122.008 30.768V26.192ZM133.154 26.304C133.154 26.784 133.084 27.232 132.946 27.648C132.807 28.064 132.599 28.4267 132.322 28.736C132.055 29.0453 131.714 29.2907 131.298 29.472C130.882 29.6427 130.396 29.728 129.842 29.728H128.21V34H126.386V22.864H129.746C130.268 22.864 130.738 22.9333 131.154 23.072C131.57 23.2107 131.927 23.424 132.226 23.712C132.524 23.9893 132.754 24.3467 132.914 24.784C133.074 25.2107 133.154 25.7173 133.154 26.304ZM131.346 26.272C131.346 25.7173 131.212 25.296 130.946 25.008C130.679 24.7093 130.274 24.56 129.73 24.56H128.21V28.016H129.746C130.29 28.016 130.69 27.8613 130.946 27.552C131.212 27.232 131.346 26.8053 131.346 26.272ZM142.193 34V27.488H142.129L141.313 29.568L140.257 32H138.961L137.873 29.488L137.073 27.472L137.009 27.488V34H135.185V22.864H136.929L138.497 26.512L139.585 29.2H139.649L140.721 26.496L142.257 22.864H144.017V34H142.193ZM151.456 31.6H148.368C148.347 31.696 148.304 31.856 148.24 32.08C148.176 32.304 148.107 32.544 148.032 32.8C147.968 33.056 147.904 33.296 147.84 33.52C147.787 33.744 147.744 33.904 147.712 34H145.808L149.024 22.864H150.784L154.016 34H152.08L151.456 31.6ZM149.344 27.728L148.768 29.968H151.04L150.48 27.744C150.459 27.648 150.422 27.488 150.368 27.264C150.326 27.04 150.272 26.8053 150.208 26.56C150.155 26.3147 150.102 26.0853 150.048 25.872C149.995 25.648 149.963 25.488 149.952 25.392H149.872L149.344 27.728ZM162.15 34H155.926V22.864H157.766V32.304H160.87V22.864H162.694V32.32H163.718V36.304H162.15V34ZM165.788 34V22.864H167.596V30.32C167.607 30.32 167.612 30.3253 167.612 30.336C167.623 30.336 167.634 30.336 167.644 30.336C167.89 29.8773 168.119 29.4187 168.332 28.96C168.556 28.5013 168.78 28.0427 169.004 27.584C169.41 26.7947 169.81 26.0107 170.204 25.232C170.599 24.4533 170.994 23.664 171.388 22.864H173.084V34H171.26V26.736H171.228C171.047 27.088 170.866 27.4453 170.684 27.808C170.503 28.1707 170.322 28.528 170.14 28.88L167.516 34H165.788ZM175.807 34V22.864H177.615V30.32C177.626 30.32 177.631 30.3253 177.631 30.336C177.642 30.336 177.652 30.336 177.663 30.336C177.908 29.8773 178.138 29.4187 178.351 28.96C178.575 28.5013 178.799 28.0427 179.023 27.584C179.428 26.7947 179.828 26.0107 180.223 25.232C180.618 24.4533 181.012 23.664 181.407 22.864H183.103V34H181.279V26.736H181.247C181.066 27.088 180.884 27.4453 180.703 27.808C180.522 28.1707 180.34 28.528 180.159 28.88L177.535 34H175.807ZM197.05 30.704C197.05 31.7707 196.762 32.5867 196.186 33.152C195.621 33.7173 194.858 34 193.898 34H190.314V22.864H193.722C194.778 22.864 195.567 23.136 196.09 23.68C196.623 24.224 196.89 24.9653 196.89 25.904C196.89 26.3733 196.789 26.8053 196.586 27.2C196.394 27.5947 196.042 27.9093 195.53 28.144V28.224C195.797 28.3093 196.026 28.4373 196.218 28.608C196.41 28.768 196.565 28.96 196.682 29.184C196.81 29.408 196.901 29.6533 196.954 29.92C197.018 30.176 197.05 30.4373 197.05 30.704ZM195.098 25.968C195.098 25.52 194.975 25.168 194.73 24.912C194.495 24.656 194.111 24.528 193.578 24.528H192.138V27.44H193.594C194.117 27.44 194.495 27.3067 194.73 27.04C194.975 26.7627 195.098 26.4053 195.098 25.968ZM195.258 30.592C195.258 30.1227 195.141 29.744 194.906 29.456C194.671 29.168 194.282 29.024 193.738 29.024H192.138V32.256H193.754C194.042 32.256 194.282 32.2133 194.474 32.128C194.666 32.0427 194.821 31.9253 194.938 31.776C195.055 31.616 195.135 31.4347 195.178 31.232C195.231 31.0293 195.258 30.816 195.258 30.592ZM210.409 31.632C210.228 32.4107 209.844 33.0187 209.257 33.456C208.67 33.8827 207.961 34.096 207.129 34.096C206.553 34.096 206.052 34.0053 205.625 33.824C205.198 33.6427 204.841 33.392 204.553 33.072C204.265 32.752 204.052 32.3787 203.913 31.952C203.774 31.5147 203.705 31.0453 203.705 30.544V26.224C203.705 25.7867 203.774 25.36 203.913 24.944C204.052 24.528 204.26 24.16 204.537 23.84C204.825 23.52 205.182 23.264 205.609 23.072C206.036 22.88 206.542 22.784 207.129 22.784C208.025 22.784 208.75 23.0187 209.305 23.488C209.87 23.9573 210.244 24.544 210.425 25.248L208.681 25.824C208.649 25.664 208.596 25.5093 208.521 25.36C208.446 25.2107 208.345 25.0773 208.217 24.96C208.089 24.832 207.934 24.7307 207.753 24.656C207.572 24.5813 207.364 24.544 207.129 24.544C206.852 24.544 206.612 24.592 206.409 24.688C206.217 24.784 206.057 24.912 205.929 25.072C205.801 25.2213 205.705 25.392 205.641 25.584C205.577 25.776 205.545 25.968 205.545 26.16V30.592C205.545 30.8267 205.577 31.0507 205.641 31.264C205.705 31.4773 205.801 31.664 205.929 31.824C206.068 31.984 206.233 32.112 206.425 32.208C206.628 32.2933 206.862 32.336 207.129 32.336C207.524 32.336 207.86 32.224 208.137 32C208.414 31.776 208.59 31.4667 208.665 31.072L210.409 31.632ZM215.98 33.072C215.255 33.008 214.657 32.8533 214.188 32.608C213.719 32.3627 213.345 32.0373 213.068 31.632C212.791 31.216 212.593 30.7253 212.476 30.16C212.369 29.5947 212.316 28.96 212.316 28.256C212.316 27.5947 212.375 26.9867 212.492 26.432C212.62 25.8667 212.828 25.376 213.116 24.96C213.404 24.5333 213.783 24.192 214.252 23.936C214.721 23.68 215.297 23.52 215.98 23.456V22.864H217.756V23.456C218.439 23.52 219.015 23.68 219.484 23.936C219.953 24.1813 220.332 24.5067 220.62 24.912C220.908 25.3173 221.116 25.7973 221.244 26.352C221.372 26.9067 221.436 27.5253 221.436 28.208C221.436 28.912 221.377 29.552 221.26 30.128C221.143 30.6933 220.945 31.184 220.668 31.6C220.391 32.016 220.012 32.352 219.532 32.608C219.063 32.8533 218.471 33.008 217.756 33.072V34H215.98V33.072ZM215.964 25.12C215.271 25.1733 214.791 25.4773 214.524 26.032C214.257 26.5867 214.124 27.312 214.124 28.208C214.124 28.7093 214.151 29.1573 214.204 29.552C214.268 29.936 214.369 30.2667 214.508 30.544C214.647 30.8107 214.833 31.0187 215.068 31.168C215.313 31.3173 215.612 31.408 215.964 31.44V25.12ZM217.772 31.44C218.487 31.3867 218.972 31.0933 219.228 30.56C219.495 30.016 219.628 29.2267 219.628 28.192C219.628 27.2853 219.489 26.56 219.212 26.016C218.945 25.472 218.465 25.1733 217.772 25.12V31.44ZM223.936 34V22.864H230.128V24.56H225.76V27.536H229.52V29.2H225.76V32.256H230.128V34H223.936ZM239.066 26.304C239.066 26.784 238.997 27.232 238.858 27.648C238.72 28.064 238.512 28.4267 238.234 28.736C237.968 29.0453 237.626 29.2907 237.21 29.472C236.794 29.6427 236.309 29.728 235.754 29.728H234.122V34H232.298V22.864H235.658C236.181 22.864 236.65 22.9333 237.066 23.072C237.482 23.2107 237.84 23.424 238.138 23.712C238.437 23.9893 238.666 24.3467 238.826 24.784C238.986 25.2107 239.066 25.7173 239.066 26.304ZM237.258 26.272C237.258 25.7173 237.125 25.296 236.858 25.008C236.592 24.7093 236.186 24.56 235.642 24.56H234.122V28.016H235.658C236.202 28.016 236.602 27.8613 236.858 27.552C237.125 27.232 237.258 26.8053 237.258 26.272ZM241.13 34V22.864H247.322V24.56H242.954V27.536H246.714V29.2H242.954V32.256H247.322V34H241.13ZM260.476 30.624C260.476 31.1573 260.391 31.6373 260.22 32.064C260.06 32.4907 259.826 32.8587 259.516 33.168C259.218 33.4667 258.86 33.696 258.444 33.856C258.028 34.016 257.57 34.096 257.068 34.096C256.46 34.096 255.938 34 255.5 33.808C255.063 33.6053 254.706 33.3387 254.428 33.008C254.162 32.6667 253.964 32.2773 253.836 31.84C253.708 31.392 253.644 30.9227 253.644 30.432V26.224C253.644 25.8293 253.703 25.4293 253.82 25.024C253.948 24.6187 254.146 24.2507 254.412 23.92C254.69 23.5893 255.042 23.3173 255.468 23.104C255.906 22.8907 256.439 22.784 257.068 22.784C257.655 22.784 258.162 22.8853 258.588 23.088C259.015 23.2907 259.367 23.5573 259.644 23.888C259.932 24.208 260.14 24.576 260.268 24.992C260.407 25.3973 260.476 25.808 260.476 26.224V30.624ZM258.62 26.192C258.62 26.0533 258.594 25.8933 258.54 25.712C258.498 25.52 258.418 25.3387 258.3 25.168C258.183 24.9973 258.023 24.8533 257.82 24.736C257.628 24.608 257.378 24.544 257.068 24.544C256.759 24.544 256.498 24.6027 256.284 24.72C256.082 24.8267 255.916 24.9653 255.788 25.136C255.671 25.296 255.586 25.472 255.532 25.664C255.479 25.856 255.452 26.0373 255.452 26.208L255.468 30.464C255.468 30.9973 255.591 31.4453 255.836 31.808C256.082 32.1707 256.498 32.352 257.084 32.352C257.5 32.352 257.858 32.2133 258.156 31.936C258.466 31.648 258.62 31.2587 258.62 30.768V26.192ZM264.742 32.304H266.278C266.844 32.304 267.249 32.1547 267.494 31.856C267.75 31.5467 267.878 31.1307 267.878 30.608C267.878 30.1067 267.75 29.712 267.494 29.424C267.249 29.1253 266.838 28.976 266.262 28.976H264.742V32.304ZM264.742 27.28H266.342C266.929 27.28 267.43 27.3653 267.846 27.536C268.273 27.696 268.625 27.92 268.902 28.208C269.18 28.496 269.382 28.8427 269.51 29.248C269.649 29.6427 269.718 30.08 269.718 30.56C269.718 31.7013 269.414 32.56 268.806 33.136C268.209 33.712 267.393 34 266.358 34H262.902V22.864H268.822V24.56H264.742V27.28ZM278.676 26.304C278.676 26.784 278.606 27.232 278.468 27.648C278.329 28.064 278.121 28.4267 277.844 28.736C277.577 29.0453 277.236 29.2907 276.82 29.472C276.404 29.6427 275.918 29.728 275.364 29.728H273.732V34H271.908V22.864H275.268C275.79 22.864 276.26 22.9333 276.676 23.072C277.092 23.2107 277.449 23.424 277.748 23.712C278.046 23.9893 278.276 24.3467 278.436 24.784C278.596 25.2107 278.676 25.7173 278.676 26.304ZM276.868 26.272C276.868 25.7173 276.734 25.296 276.468 25.008C276.201 24.7093 275.796 24.56 275.252 24.56H273.732V28.016H275.268C275.812 28.016 276.212 27.8613 276.468 27.552C276.734 27.232 276.868 26.8053 276.868 26.272ZM284.834 31.6H281.746C281.725 31.696 281.682 31.856 281.618 32.08C281.554 32.304 281.485 32.544 281.41 32.8C281.346 33.056 281.282 33.296 281.218 33.52C281.165 33.744 281.122 33.904 281.09 34H279.186L282.402 22.864H284.162L287.394 34H285.458L284.834 31.6ZM282.722 27.728L282.146 29.968H284.418L283.858 27.744C283.837 27.648 283.8 27.488 283.746 27.264C283.704 27.04 283.65 26.8053 283.586 26.56C283.533 26.3147 283.48 26.0853 283.426 25.872C283.373 25.648 283.341 25.488 283.33 25.392H283.25L282.722 27.728ZM288.664 31.52C288.76 31.488 288.883 31.4507 289.032 31.408C289.192 31.3547 289.358 31.3013 289.528 31.248C289.699 31.184 289.859 31.1253 290.008 31.072C290.168 31.0187 290.296 30.976 290.392 30.944C290.478 31.4027 290.675 31.76 290.984 32.016C291.294 32.2613 291.662 32.384 292.088 32.384C292.568 32.384 292.942 32.2293 293.208 31.92C293.486 31.6107 293.624 31.1947 293.624 30.672C293.624 30.4373 293.598 30.2187 293.544 30.016C293.502 29.8133 293.422 29.6373 293.304 29.488C293.187 29.328 293.032 29.2053 292.84 29.12C292.648 29.024 292.408 28.976 292.12 28.976H291.256V27.424H292.136C292.584 27.424 292.936 27.2907 293.192 27.024C293.448 26.7573 293.576 26.3733 293.576 25.872C293.576 25.4667 293.454 25.1413 293.208 24.896C292.963 24.64 292.616 24.512 292.168 24.512C291.731 24.512 291.368 24.64 291.08 24.896C290.803 25.152 290.611 25.4827 290.504 25.888L288.824 25.28C289.006 24.512 289.384 23.904 289.96 23.456C290.547 22.9973 291.294 22.768 292.2 22.768C293.235 22.768 294.03 23.0187 294.584 23.52C295.139 24.0213 295.416 24.7573 295.416 25.728C295.416 25.9093 295.395 26.1173 295.352 26.352C295.32 26.5867 295.256 26.8213 295.16 27.056C295.075 27.28 294.947 27.4933 294.776 27.696C294.616 27.888 294.408 28.0373 294.152 28.144V28.208C294.419 28.3147 294.638 28.464 294.808 28.656C294.99 28.8373 295.134 29.0453 295.24 29.28C295.347 29.5147 295.416 29.76 295.448 30.016C295.491 30.2613 295.512 30.5013 295.512 30.736C295.512 31.2907 295.427 31.776 295.256 32.192C295.096 32.608 294.862 32.96 294.552 33.248C294.254 33.5253 293.891 33.7387 293.464 33.888C293.048 34.0267 292.584 34.096 292.072 34.096C291.155 34.096 290.392 33.872 289.784 33.424C289.187 32.976 288.814 32.3413 288.664 31.52ZM304.476 30.624C304.476 31.1573 304.391 31.6373 304.22 32.064C304.06 32.4907 303.826 32.8587 303.516 33.168C303.218 33.4667 302.86 33.696 302.444 33.856C302.028 34.016 301.57 34.096 301.068 34.096C300.46 34.096 299.938 34 299.5 33.808C299.063 33.6053 298.706 33.3387 298.428 33.008C298.162 32.6667 297.964 32.2773 297.836 31.84C297.708 31.392 297.644 30.9227 297.644 30.432V26.224C297.644 25.8293 297.703 25.4293 297.82 25.024C297.948 24.6187 298.146 24.2507 298.412 23.92C298.69 23.5893 299.042 23.3173 299.468 23.104C299.906 22.8907 300.439 22.784 301.068 22.784C301.655 22.784 302.162 22.8853 302.588 23.088C303.015 23.2907 303.367 23.5573 303.644 23.888C303.932 24.208 304.14 24.576 304.268 24.992C304.407 25.3973 304.476 25.808 304.476 26.224V30.624ZM302.62 26.192C302.62 26.0533 302.594 25.8933 302.54 25.712C302.498 25.52 302.418 25.3387 302.3 25.168C302.183 24.9973 302.023 24.8533 301.82 24.736C301.628 24.608 301.378 24.544 301.068 24.544C300.759 24.544 300.498 24.6027 300.284 24.72C300.082 24.8267 299.916 24.9653 299.788 25.136C299.671 25.296 299.586 25.472 299.532 25.664C299.479 25.856 299.452 26.0373 299.452 26.208L299.468 30.464C299.468 30.9973 299.591 31.4453 299.836 31.808C300.082 32.1707 300.498 32.352 301.084 32.352C301.5 32.352 301.858 32.2133 302.156 31.936C302.466 31.648 302.62 31.2587 302.62 30.768V26.192ZM313.734 30.704C313.734 31.7707 313.446 32.5867 312.87 33.152C312.305 33.7173 311.542 34 310.582 34H306.998V22.864H310.406C311.462 22.864 312.252 23.136 312.774 23.68C313.308 24.224 313.574 24.9653 313.574 25.904C313.574 26.3733 313.473 26.8053 313.27 27.2C313.078 27.5947 312.726 27.9093 312.214 28.144V28.224C312.481 28.3093 312.71 28.4373 312.902 28.608C313.094 28.768 313.249 28.96 313.366 29.184C313.494 29.408 313.585 29.6533 313.638 29.92C313.702 30.176 313.734 30.4373 313.734 30.704ZM311.782 25.968C311.782 25.52 311.66 25.168 311.414 24.912C311.18 24.656 310.796 24.528 310.262 24.528H308.822V27.44H310.278C310.801 27.44 311.18 27.3067 311.414 27.04C311.66 26.7627 311.782 26.4053 311.782 25.968ZM311.942 30.592C311.942 30.1227 311.825 29.744 311.59 29.456C311.356 29.168 310.966 29.024 310.422 29.024H308.822V32.256H310.438C310.726 32.256 310.966 32.2133 311.158 32.128C311.35 32.0427 311.505 31.9253 311.622 31.776C311.74 31.616 311.82 31.4347 311.862 31.232C311.916 31.0293 311.942 30.816 311.942 30.592ZM320.925 31.6H317.837C317.816 31.696 317.773 31.856 317.709 32.08C317.645 32.304 317.576 32.544 317.501 32.8C317.437 33.056 317.373 33.296 317.309 33.52C317.256 33.744 317.213 33.904 317.181 34H315.277L318.493 22.864H320.253L323.485 34H321.549L320.925 31.6ZM318.813 27.728L318.237 29.968H320.509L319.949 27.744C319.928 27.648 319.89 27.488 319.837 27.264C319.794 27.04 319.741 26.8053 319.677 26.56C319.624 26.3147 319.57 26.0853 319.517 25.872C319.464 25.648 319.432 25.488 319.421 25.392H319.341L318.813 27.728ZM330.371 34V29.184H327.235V34H325.395V22.864H327.235V27.536H330.371V22.864H332.195V34H330.371ZM334.976 34V22.864H336.784V30.32C336.794 30.32 336.8 30.3253 336.8 30.336C336.81 30.336 336.821 30.336 336.832 30.336C337.077 29.8773 337.306 29.4187 337.52 28.96C337.744 28.5013 337.968 28.0427 338.192 27.584C338.597 26.7947 338.997 26.0107 339.392 25.232C339.786 24.4533 340.181 23.664 340.576 22.864H342.272V34H340.448V26.736H340.416C340.234 27.088 340.053 27.4453 339.872 27.808C339.69 28.1707 339.509 28.528 339.328 28.88L336.704 34H334.976ZM351.618 22.864V34H349.778V29.28H348.786C348.424 29.28 348.088 29.4027 347.778 29.648C347.469 29.8827 347.229 30.3307 347.058 30.992L346.386 34H344.482L345.234 30.672C345.341 30.2453 345.485 29.872 345.666 29.552C345.848 29.232 346.125 28.9973 346.498 28.848C345.901 28.6453 345.48 28.2987 345.234 27.808C344.989 27.3067 344.866 26.7627 344.866 26.176C344.866 25.664 344.941 25.2053 345.09 24.8C345.25 24.384 345.469 24.032 345.746 23.744C346.034 23.456 346.376 23.2373 346.77 23.088C347.165 22.9387 347.602 22.864 348.082 22.864H351.618ZM346.706 26.208C346.706 26.7413 346.861 27.1147 347.17 27.328C347.49 27.5307 347.885 27.632 348.354 27.632H349.778V24.544H348.306C347.762 24.544 347.357 24.6933 347.09 24.992C346.834 25.2907 346.706 25.696 346.706 26.208Z" fill="white"/>
<path d="M66.76 49V45.032L66.736 45.048L66.304 46.096L65.344 48.176H64.728L63.752 46.032L63.336 45.032L63.312 45.048V49H62.608V43.432H63.312L64.488 46.032L65.04 47.328H65.064L65.616 46.04L66.776 43.432H67.464V49H66.76ZM69.7844 49V43.432H70.4804V47.816L70.5044 47.832L73.3764 43.432H73.9684V49H73.2644V44.816L73.2404 44.808L70.4724 49H69.7844ZM79.5432 49V46.496H77.0792V49H76.3752V43.432H77.0792V45.88H79.5432V43.432H80.2472V49H79.5432ZM82.6531 49V43.432H83.3491V47.816L83.3731 47.832L86.2451 43.432H86.8371V49H86.1331V44.816L86.1091 44.808L83.3411 49H82.6531ZM92.8599 47.864C92.7213 48.2373 92.4946 48.528 92.1799 48.736C91.8653 48.944 91.4813 49.048 91.0279 49.048C90.6973 49.048 90.4066 48.992 90.1559 48.88C89.9106 48.768 89.7053 48.6187 89.5399 48.432C89.3746 48.2453 89.2519 48.0267 89.1719 47.776C89.0919 47.5253 89.0519 47.2613 89.0519 46.984V45.448C89.0519 45.176 89.0919 44.9173 89.1719 44.672C89.2519 44.4213 89.3746 44.2027 89.5399 44.016C89.7053 43.824 89.9106 43.672 90.1559 43.56C90.4066 43.448 90.6973 43.392 91.0279 43.392C91.4813 43.392 91.8626 43.4987 92.1719 43.712C92.4813 43.9253 92.7079 44.2107 92.8519 44.568L92.1959 44.864C92.1053 44.624 91.9613 44.432 91.7639 44.288C91.5666 44.144 91.3239 44.072 91.0359 44.072C90.8173 44.072 90.6279 44.112 90.4679 44.192C90.3079 44.272 90.1746 44.3787 90.0679 44.512C89.9613 44.64 89.8813 44.7893 89.8279 44.96C89.7746 45.1307 89.7479 45.304 89.7479 45.48V46.928C89.7479 47.1147 89.7746 47.296 89.8279 47.472C89.8813 47.6427 89.9613 47.7947 90.0679 47.928C90.1746 48.0613 90.3079 48.1707 90.4679 48.256C90.6279 48.336 90.8173 48.376 91.0359 48.376C91.3239 48.376 91.5666 48.3013 91.7639 48.152C91.9666 47.9973 92.1133 47.7947 92.2039 47.544L92.8599 47.864ZM96.4757 44.048V49H95.7717V44.048H94.1877V43.432H98.0597V44.048H96.4757ZM99.8783 49V43.432H103.398V44.08H100.582V45.88H102.982V46.496H100.582V48.352H103.398V49H99.8783ZM109.302 45.12C109.302 45.312 109.262 45.5067 109.182 45.704C109.107 45.9013 108.995 46.0773 108.846 46.232C108.702 46.3867 108.521 46.5147 108.302 46.616C108.089 46.712 107.846 46.76 107.574 46.76H106.126V49H105.422V43.432H107.462C107.691 43.432 107.915 43.464 108.134 43.528C108.358 43.592 108.555 43.6933 108.726 43.832C108.897 43.9653 109.035 44.1387 109.142 44.352C109.249 44.5653 109.302 44.8213 109.302 45.12ZM108.566 45.096C108.566 44.7547 108.462 44.5013 108.254 44.336C108.051 44.1653 107.793 44.08 107.478 44.08H106.126V46.112H107.51C107.686 46.112 107.841 46.0827 107.974 46.024C108.107 45.96 108.217 45.88 108.302 45.784C108.393 45.688 108.459 45.5813 108.502 45.464C108.545 45.3413 108.566 45.2187 108.566 45.096ZM114.816 47.864C114.678 48.2373 114.451 48.528 114.136 48.736C113.822 48.944 113.438 49.048 112.984 49.048C112.654 49.048 112.363 48.992 112.112 48.88C111.867 48.768 111.662 48.6187 111.496 48.432C111.331 48.2453 111.208 48.0267 111.128 47.776C111.048 47.5253 111.008 47.2613 111.008 46.984V45.448C111.008 45.176 111.048 44.9173 111.128 44.672C111.208 44.4213 111.331 44.2027 111.496 44.016C111.662 43.824 111.867 43.672 112.112 43.56C112.363 43.448 112.654 43.392 112.984 43.392C113.438 43.392 113.819 43.4987 114.128 43.712C114.438 43.9253 114.664 44.2107 114.808 44.568L114.152 44.864C114.062 44.624 113.918 44.432 113.72 44.288C113.523 44.144 113.28 44.072 112.992 44.072C112.774 44.072 112.584 44.112 112.424 44.192C112.264 44.272 112.131 44.3787 112.024 44.512C111.918 44.64 111.838 44.7893 111.784 44.96C111.731 45.1307 111.704 45.304 111.704 45.48V46.928C111.704 47.1147 111.731 47.296 111.784 47.472C111.838 47.6427 111.918 47.7947 112.024 47.928C112.131 48.0613 112.264 48.1707 112.424 48.256C112.584 48.336 112.774 48.376 112.992 48.376C113.28 48.376 113.523 48.3013 113.72 48.152C113.923 47.9973 114.07 47.7947 114.16 47.544L114.816 47.864ZM118.432 44.048V49H117.728V44.048H116.144V43.432H120.016V44.048H118.432ZM125.707 47.456C125.707 47.6907 125.664 47.904 125.579 48.096C125.499 48.288 125.387 48.4507 125.243 48.584C125.104 48.7173 124.941 48.8213 124.755 48.896C124.573 48.9653 124.379 49 124.171 49H121.835V43.432H123.939C124.211 43.432 124.448 43.4693 124.651 43.544C124.853 43.6133 125.024 43.712 125.163 43.84C125.301 43.968 125.405 44.1227 125.475 44.304C125.544 44.48 125.579 44.6747 125.579 44.888C125.579 45 125.563 45.1173 125.531 45.24C125.504 45.3573 125.456 45.472 125.387 45.584C125.317 45.6907 125.229 45.792 125.123 45.888C125.016 45.9787 124.888 46.0507 124.739 46.104V46.128C124.899 46.1653 125.04 46.2293 125.163 46.32C125.285 46.4107 125.387 46.5173 125.467 46.64C125.547 46.7627 125.605 46.896 125.643 47.04C125.685 47.1787 125.707 47.3173 125.707 47.456ZM122.539 44.048V45.848H123.851C124.192 45.848 124.448 45.7627 124.619 45.592C124.789 45.416 124.875 45.2 124.875 44.944C124.875 44.6933 124.789 44.4827 124.619 44.312C124.448 44.136 124.192 44.048 123.851 44.048H122.539ZM122.539 46.456V48.352H123.971C124.147 48.352 124.299 48.3253 124.427 48.272C124.56 48.2187 124.667 48.1493 124.747 48.064C124.832 47.9733 124.896 47.872 124.939 47.76C124.981 47.6427 125.003 47.5227 125.003 47.4C125.003 47.2773 124.981 47.16 124.939 47.048C124.896 46.9307 124.832 46.8293 124.747 46.744C124.667 46.6533 124.56 46.584 124.427 46.536C124.299 46.4827 124.147 46.456 123.971 46.456H122.539ZM129.584 43.392C129.888 43.392 130.162 43.4453 130.408 43.552C130.653 43.6533 130.861 43.7947 131.032 43.976C131.208 44.1573 131.341 44.376 131.432 44.632C131.522 44.8827 131.568 45.1547 131.568 45.448V46.984C131.568 47.2987 131.52 47.584 131.424 47.84C131.333 48.096 131.2 48.3147 131.024 48.496C130.853 48.672 130.645 48.808 130.4 48.904C130.16 49 129.888 49.048 129.584 49.048C129.253 49.048 128.962 48.992 128.712 48.88C128.466 48.768 128.261 48.6187 128.096 48.432C127.93 48.2453 127.808 48.0267 127.728 47.776C127.648 47.5253 127.608 47.2613 127.608 46.984V45.448C127.608 45.176 127.648 44.9173 127.728 44.672C127.808 44.4213 127.93 44.2027 128.096 44.016C128.261 43.824 128.466 43.672 128.712 43.56C128.962 43.448 129.253 43.392 129.584 43.392ZM129.592 44.056C129.373 44.056 129.184 44.096 129.024 44.176C128.864 44.256 128.73 44.3627 128.624 44.496C128.517 44.624 128.437 44.7733 128.384 44.944C128.33 45.1147 128.304 45.288 128.304 45.464V46.944C128.304 47.1307 128.33 47.312 128.384 47.488C128.437 47.6587 128.517 47.8107 128.624 47.944C128.73 48.0773 128.864 48.1867 129.024 48.272C129.184 48.352 129.373 48.392 129.592 48.392C129.789 48.392 129.965 48.3547 130.12 48.28C130.28 48.2053 130.413 48.104 130.52 47.976C130.632 47.848 130.717 47.696 130.776 47.52C130.834 47.344 130.864 47.152 130.864 46.944V45.464C130.864 45.272 130.834 45.0907 130.776 44.92C130.717 44.7493 130.632 44.6 130.52 44.472C130.413 44.344 130.28 44.2427 130.12 44.168C129.965 44.0933 129.789 44.056 129.592 44.056ZM139.931 49V44.048H137.467V49H136.763V43.432H140.635V49H139.931ZM146.929 45.12C146.929 45.312 146.889 45.5067 146.809 45.704C146.734 45.9013 146.622 46.0773 146.473 46.232C146.329 46.3867 146.147 46.5147 145.929 46.616C145.715 46.712 145.473 46.76 145.201 46.76H143.753V49H143.049V43.432H145.089C145.318 43.432 145.542 43.464 145.761 43.528C145.985 43.592 146.182 43.6933 146.353 43.832C146.523 43.9653 146.662 44.1387 146.769 44.352C146.875 44.5653 146.929 44.8213 146.929 45.12ZM146.193 45.096C146.193 44.7547 146.089 44.5013 145.881 44.336C145.678 44.1653 145.419 44.08 145.105 44.08H143.753V46.112H145.137C145.313 46.112 145.467 46.0827 145.601 46.024C145.734 45.96 145.843 45.88 145.929 45.784C146.019 45.688 146.086 45.5813 146.129 45.464C146.171 45.3413 146.193 45.2187 146.193 45.096ZM150.595 43.392C150.899 43.392 151.173 43.4453 151.419 43.552C151.664 43.6533 151.872 43.7947 152.043 43.976C152.219 44.1573 152.352 44.376 152.443 44.632C152.533 44.8827 152.579 45.1547 152.579 45.448V46.984C152.579 47.2987 152.531 47.584 152.435 47.84C152.344 48.096 152.211 48.3147 152.035 48.496C151.864 48.672 151.656 48.808 151.411 48.904C151.171 49 150.899 49.048 150.595 49.048C150.264 49.048 149.973 48.992 149.723 48.88C149.477 48.768 149.272 48.6187 149.107 48.432C148.941 48.2453 148.819 48.0267 148.739 47.776C148.659 47.5253 148.619 47.2613 148.619 46.984V45.448C148.619 45.176 148.659 44.9173 148.739 44.672C148.819 44.4213 148.941 44.2027 149.107 44.016C149.272 43.824 149.477 43.672 149.723 43.56C149.973 43.448 150.264 43.392 150.595 43.392ZM150.603 44.056C150.384 44.056 150.195 44.096 150.035 44.176C149.875 44.256 149.741 44.3627 149.635 44.496C149.528 44.624 149.448 44.7733 149.395 44.944C149.341 45.1147 149.315 45.288 149.315 45.464V46.944C149.315 47.1307 149.341 47.312 149.395 47.488C149.448 47.6587 149.528 47.8107 149.635 47.944C149.741 48.0773 149.875 48.1867 150.035 48.272C150.195 48.352 150.384 48.392 150.603 48.392C150.8 48.392 150.976 48.3547 151.131 48.28C151.291 48.2053 151.424 48.104 151.531 47.976C151.643 47.848 151.728 47.696 151.787 47.52C151.845 47.344 151.875 47.152 151.875 46.944V45.464C151.875 45.272 151.845 45.0907 151.787 44.92C151.728 44.7493 151.643 44.6 151.531 44.472C151.424 44.344 151.291 44.2427 151.131 44.168C150.976 44.0933 150.8 44.056 150.603 44.056ZM158.401 47.864C158.262 48.2373 158.035 48.528 157.721 48.736C157.406 48.944 157.022 49.048 156.569 49.048C156.238 49.048 155.947 48.992 155.697 48.88C155.451 48.768 155.246 48.6187 155.081 48.432C154.915 48.2453 154.793 48.0267 154.713 47.776C154.633 47.5253 154.593 47.2613 154.593 46.984V45.448C154.593 45.176 154.633 44.9173 154.713 44.672C154.793 44.4213 154.915 44.2027 155.081 44.016C155.246 43.824 155.451 43.672 155.697 43.56C155.947 43.448 156.238 43.392 156.569 43.392C157.022 43.392 157.403 43.4987 157.713 43.712C158.022 43.9253 158.249 44.2107 158.393 44.568L157.737 44.864C157.646 44.624 157.502 44.432 157.305 44.288C157.107 44.144 156.865 44.072 156.577 44.072C156.358 44.072 156.169 44.112 156.009 44.192C155.849 44.272 155.715 44.3787 155.609 44.512C155.502 44.64 155.422 44.7893 155.369 44.96C155.315 45.1307 155.289 45.304 155.289 45.48V46.928C155.289 47.1147 155.315 47.296 155.369 47.472C155.422 47.6427 155.502 47.7947 155.609 47.928C155.715 48.0613 155.849 48.1707 156.009 48.256C156.169 48.336 156.358 48.376 156.577 48.376C156.865 48.376 157.107 48.3013 157.305 48.152C157.507 47.9973 157.654 47.7947 157.745 47.544L158.401 47.864ZM164.2 47.456C164.2 47.6907 164.158 47.904 164.072 48.096C163.992 48.288 163.88 48.4507 163.736 48.584C163.598 48.7173 163.435 48.8213 163.248 48.896C163.067 48.9653 162.872 49 162.664 49H160.328V43.432H162.432C162.704 43.432 162.942 43.4693 163.144 43.544C163.347 43.6133 163.518 43.712 163.656 43.84C163.795 43.968 163.899 44.1227 163.968 44.304C164.038 44.48 164.072 44.6747 164.072 44.888C164.072 45 164.056 45.1173 164.024 45.24C163.998 45.3573 163.95 45.472 163.88 45.584C163.811 45.6907 163.723 45.792 163.616 45.888C163.51 45.9787 163.382 46.0507 163.232 46.104V46.128C163.392 46.1653 163.534 46.2293 163.656 46.32C163.779 46.4107 163.88 46.5173 163.96 46.64C164.04 46.7627 164.099 46.896 164.136 47.04C164.179 47.1787 164.2 47.3173 164.2 47.456ZM161.032 44.048V45.848H162.344C162.686 45.848 162.942 45.7627 163.112 45.592C163.283 45.416 163.368 45.2 163.368 44.944C163.368 44.6933 163.283 44.4827 163.112 44.312C162.942 44.136 162.686 44.048 162.344 44.048H161.032ZM161.032 46.456V48.352H162.464C162.64 48.352 162.792 48.3253 162.92 48.272C163.054 48.2187 163.16 48.1493 163.24 48.064C163.326 47.9733 163.39 47.872 163.432 47.76C163.475 47.6427 163.496 47.5227 163.496 47.4C163.496 47.2773 163.475 47.16 163.432 47.048C163.39 46.9307 163.326 46.8293 163.24 46.744C163.16 46.6533 163.054 46.584 162.92 46.536C162.792 46.4827 162.64 46.456 162.464 46.456H161.032ZM166.31 49V43.432H169.83V44.08H167.014V45.88H169.414V46.496H167.014V48.352H169.83V49H166.31ZM177.773 49H171.789V43.432H172.493V48.352H174.469V43.432H175.173V48.352H177.165V43.432H177.869V48.368H178.461V50.192H177.773V49ZM180.475 49V43.432H183.995V44.08H181.179V45.88H183.579V46.496H181.179V48.352H183.995V49H180.475ZM189.187 49V46.496H186.723V49H186.019V43.432H186.723V45.88H189.187V43.432H189.891V49H189.187ZM192.297 49V43.432H192.993V47.816L193.017 47.832L195.889 43.432H196.481V49H195.777V44.816L195.753 44.808L192.985 49H192.297ZM199.464 45.056C199.464 45.216 199.493 45.352 199.552 45.464C199.61 45.5707 199.69 45.6613 199.792 45.736C199.898 45.8053 200.021 45.856 200.16 45.888C200.298 45.92 200.448 45.936 200.608 45.936H201.84V44.048H200.536C200.205 44.048 199.944 44.1387 199.752 44.32C199.56 44.496 199.464 44.7413 199.464 45.056ZM201.84 46.536H200.848C200.741 46.536 200.632 46.552 200.52 46.584C200.408 46.6107 200.301 46.6587 200.2 46.728C200.098 46.7973 200.002 46.8933 199.912 47.016C199.826 47.1387 199.757 47.2907 199.704 47.472L199.264 49H198.504L198.96 47.392C199.04 47.12 199.133 46.9013 199.24 46.736C199.352 46.5707 199.512 46.4507 199.72 46.376C199.528 46.328 199.37 46.256 199.248 46.16C199.125 46.0587 199.026 45.9467 198.952 45.824C198.882 45.7013 198.832 45.5733 198.8 45.44C198.773 45.3067 198.76 45.1813 198.76 45.064C198.76 44.84 198.797 44.6293 198.872 44.432C198.946 44.2293 199.056 44.056 199.2 43.912C199.344 43.7627 199.52 43.6453 199.728 43.56C199.936 43.4747 200.173 43.432 200.44 43.432H202.544V49H201.84V46.536ZM211.824 45.12C211.824 45.312 211.784 45.5067 211.704 45.704C211.629 45.9013 211.517 46.0773 211.368 46.232C211.224 46.3867 211.043 46.5147 210.824 46.616C210.611 46.712 210.368 46.76 210.096 46.76H208.648V49H207.944V43.432H209.984C210.213 43.432 210.437 43.464 210.656 43.528C210.88 43.592 211.077 43.6933 211.248 43.832C211.419 43.9653 211.557 44.1387 211.664 44.352C211.771 44.5653 211.824 44.8213 211.824 45.12ZM211.088 45.096C211.088 44.7547 210.984 44.5013 210.776 44.336C210.573 44.1653 210.315 44.08 210 44.08H208.648V46.112H210.032C210.208 46.112 210.363 46.0827 210.496 46.024C210.629 45.96 210.739 45.88 210.824 45.784C210.915 45.688 210.981 45.5813 211.024 45.464C211.067 45.3413 211.088 45.2187 211.088 45.096ZM215.49 43.392C215.794 43.392 216.069 43.4453 216.314 43.552C216.559 43.6533 216.767 43.7947 216.938 43.976C217.114 44.1573 217.247 44.376 217.338 44.632C217.429 44.8827 217.474 45.1547 217.474 45.448V46.984C217.474 47.2987 217.426 47.584 217.33 47.84C217.239 48.096 217.106 48.3147 216.93 48.496C216.759 48.672 216.551 48.808 216.306 48.904C216.066 49 215.794 49.048 215.49 49.048C215.159 49.048 214.869 48.992 214.618 48.88C214.373 48.768 214.167 48.6187 214.002 48.432C213.837 48.2453 213.714 48.0267 213.634 47.776C213.554 47.5253 213.514 47.2613 213.514 46.984V45.448C213.514 45.176 213.554 44.9173 213.634 44.672C213.714 44.4213 213.837 44.2027 214.002 44.016C214.167 43.824 214.373 43.672 214.618 43.56C214.869 43.448 215.159 43.392 215.49 43.392ZM215.498 44.056C215.279 44.056 215.09 44.096 214.93 44.176C214.77 44.256 214.637 44.3627 214.53 44.496C214.423 44.624 214.343 44.7733 214.29 44.944C214.237 45.1147 214.21 45.288 214.21 45.464V46.944C214.21 47.1307 214.237 47.312 214.29 47.488C214.343 47.6587 214.423 47.8107 214.53 47.944C214.637 48.0773 214.77 48.1867 214.93 48.272C215.09 48.352 215.279 48.392 215.498 48.392C215.695 48.392 215.871 48.3547 216.026 48.28C216.186 48.2053 216.319 48.104 216.426 47.976C216.538 47.848 216.623 47.696 216.682 47.52C216.741 47.344 216.77 47.152 216.77 46.944V45.464C216.77 45.272 216.741 45.0907 216.682 44.92C216.623 44.7493 216.538 44.6 216.426 44.472C216.319 44.344 216.186 44.2427 216.026 44.168C215.871 44.0933 215.695 44.056 215.498 44.056ZM223.296 47.864C223.157 48.2373 222.931 48.528 222.616 48.736C222.301 48.944 221.917 49.048 221.464 49.048C221.133 49.048 220.843 48.992 220.592 48.88C220.347 48.768 220.141 48.6187 219.976 48.432C219.811 48.2453 219.688 48.0267 219.608 47.776C219.528 47.5253 219.488 47.2613 219.488 46.984V45.448C219.488 45.176 219.528 44.9173 219.608 44.672C219.688 44.4213 219.811 44.2027 219.976 44.016C220.141 43.824 220.347 43.672 220.592 43.56C220.843 43.448 221.133 43.392 221.464 43.392C221.917 43.392 222.299 43.4987 222.608 43.712C222.917 43.9253 223.144 44.2107 223.288 44.568L222.632 44.864C222.541 44.624 222.397 44.432 222.2 44.288C222.003 44.144 221.76 44.072 221.472 44.072C221.253 44.072 221.064 44.112 220.904 44.192C220.744 44.272 220.611 44.3787 220.504 44.512C220.397 44.64 220.317 44.7893 220.264 44.96C220.211 45.1307 220.184 45.304 220.184 45.48V46.928C220.184 47.1147 220.211 47.296 220.264 47.472C220.317 47.6427 220.397 47.7947 220.504 47.928C220.611 48.0613 220.744 48.1707 220.904 48.256C221.064 48.336 221.253 48.376 221.472 48.376C221.76 48.376 222.003 48.3013 222.2 48.152C222.403 47.9973 222.549 47.7947 222.64 47.544L223.296 47.864ZM228.84 47.864C228.701 48.2373 228.474 48.528 228.16 48.736C227.845 48.944 227.461 49.048 227.008 49.048C226.677 49.048 226.386 48.992 226.136 48.88C225.89 48.768 225.685 48.6187 225.52 48.432C225.354 48.2453 225.232 48.0267 225.152 47.776C225.072 47.5253 225.032 47.2613 225.032 46.984V45.448C225.032 45.176 225.072 44.9173 225.152 44.672C225.232 44.4213 225.354 44.2027 225.52 44.016C225.685 43.824 225.89 43.672 226.136 43.56C226.386 43.448 226.677 43.392 227.008 43.392C227.461 43.392 227.842 43.4987 228.152 43.712C228.461 43.9253 228.688 44.2107 228.832 44.568L228.176 44.864C228.085 44.624 227.941 44.432 227.744 44.288C227.546 44.144 227.304 44.072 227.016 44.072C226.797 44.072 226.608 44.112 226.448 44.192C226.288 44.272 226.154 44.3787 226.048 44.512C225.941 44.64 225.861 44.7893 225.808 44.96C225.754 45.1307 225.728 45.304 225.728 45.48V46.928C225.728 47.1147 225.754 47.296 225.808 47.472C225.861 47.6427 225.941 47.7947 226.048 47.928C226.154 48.0613 226.288 48.1707 226.448 48.256C226.608 48.336 226.797 48.376 227.016 48.376C227.304 48.376 227.546 48.3013 227.744 48.152C227.946 47.9973 228.093 47.7947 228.184 47.544L228.84 47.864ZM230.759 49V43.432H231.455V47.816L231.479 47.832L234.351 43.432H234.943V49H234.239V44.816L234.215 44.808L231.447 49H230.759ZM238.846 42.216C238.852 42.2693 238.868 42.3253 238.894 42.384C238.921 42.4427 238.958 42.4987 239.006 42.552C239.054 42.6 239.113 42.64 239.182 42.672C239.252 42.704 239.329 42.72 239.414 42.72C239.51 42.72 239.593 42.704 239.662 42.672C239.737 42.64 239.798 42.6 239.846 42.552C239.894 42.4987 239.929 42.4427 239.95 42.384C239.977 42.3253 239.99 42.2693 239.99 42.216H240.558C240.548 42.3227 240.524 42.4373 240.486 42.56C240.449 42.6773 240.385 42.7867 240.294 42.888C240.209 42.9893 240.094 43.0747 239.95 43.144C239.812 43.2133 239.633 43.248 239.414 43.248C239.196 43.248 239.012 43.2133 238.862 43.144C238.718 43.0747 238.601 42.9893 238.51 42.888C238.425 42.7867 238.361 42.6773 238.318 42.56C238.281 42.4373 238.262 42.3227 238.262 42.216H238.846ZM237.342 49V43.432H238.038V47.816L238.062 47.832L240.934 43.432H241.526V49H240.822V44.816L240.798 44.808L238.03 49H237.342ZM247.549 47.864C247.41 48.2373 247.184 48.528 246.869 48.736C246.554 48.944 246.17 49.048 245.717 49.048C245.386 49.048 245.096 48.992 244.845 48.88C244.6 48.768 244.394 48.6187 244.229 48.432C244.064 48.2453 243.941 48.0267 243.861 47.776C243.781 47.5253 243.741 47.2613 243.741 46.984V45.448C243.741 45.176 243.781 44.9173 243.861 44.672C243.941 44.4213 244.064 44.2027 244.229 44.016C244.394 43.824 244.6 43.672 244.845 43.56C245.096 43.448 245.386 43.392 245.717 43.392C246.17 43.392 246.552 43.4987 246.861 43.712C247.17 43.9253 247.397 44.2107 247.541 44.568L246.885 44.864C246.794 44.624 246.65 44.432 246.453 44.288C246.256 44.144 246.013 44.072 245.725 44.072C245.506 44.072 245.317 44.112 245.157 44.192C244.997 44.272 244.864 44.3787 244.757 44.512C244.65 44.64 244.57 44.7893 244.517 44.96C244.464 45.1307 244.437 45.304 244.437 45.48V46.928C244.437 47.1147 244.464 47.296 244.517 47.472C244.57 47.6427 244.65 47.7947 244.757 47.928C244.864 48.0613 244.997 48.1707 245.157 48.256C245.317 48.336 245.506 48.376 245.725 48.376C246.013 48.376 246.256 48.3013 246.453 48.152C246.656 47.9973 246.802 47.7947 246.893 47.544L247.549 47.864ZM249.437 49V43.448H250.141V45.864H251.045C251.13 45.864 251.221 45.856 251.317 45.84C251.413 45.824 251.506 45.7893 251.597 45.736C251.687 45.6773 251.773 45.5947 251.853 45.488C251.933 45.376 252.002 45.2293 252.061 45.048L252.573 43.448H253.269L252.765 45.072C252.679 45.344 252.57 45.5733 252.437 45.76C252.303 45.9413 252.149 46.0613 251.973 46.12C252.207 46.1947 252.389 46.328 252.517 46.52C252.645 46.712 252.749 46.944 252.829 47.216L253.365 49H252.605L252.117 47.328C252.063 47.1413 251.999 46.992 251.925 46.88C251.85 46.768 251.767 46.6827 251.677 46.624C251.591 46.56 251.498 46.5173 251.397 46.496C251.295 46.4747 251.191 46.464 251.085 46.464H250.141V49H249.437ZM257.07 43.392C257.374 43.392 257.648 43.4453 257.894 43.552C258.139 43.6533 258.347 43.7947 258.518 43.976C258.694 44.1573 258.827 44.376 258.918 44.632C259.008 44.8827 259.054 45.1547 259.054 45.448V46.984C259.054 47.2987 259.006 47.584 258.91 47.84C258.819 48.096 258.686 48.3147 258.51 48.496C258.339 48.672 258.131 48.808 257.886 48.904C257.646 49 257.374 49.048 257.07 49.048C256.739 49.048 256.448 48.992 256.198 48.88C255.952 48.768 255.747 48.6187 255.582 48.432C255.416 48.2453 255.294 48.0267 255.214 47.776C255.134 47.5253 255.094 47.2613 255.094 46.984V45.448C255.094 45.176 255.134 44.9173 255.214 44.672C255.294 44.4213 255.416 44.2027 255.582 44.016C255.747 43.824 255.952 43.672 256.198 43.56C256.448 43.448 256.739 43.392 257.07 43.392ZM257.078 44.056C256.859 44.056 256.67 44.096 256.51 44.176C256.35 44.256 256.216 44.3627 256.11 44.496C256.003 44.624 255.923 44.7733 255.87 44.944C255.816 45.1147 255.79 45.288 255.79 45.464V46.944C255.79 47.1307 255.816 47.312 255.87 47.488C255.923 47.6587 256.003 47.8107 256.11 47.944C256.216 48.0773 256.35 48.1867 256.51 48.272C256.67 48.352 256.859 48.392 257.078 48.392C257.275 48.392 257.451 48.3547 257.606 48.28C257.766 48.2053 257.899 48.104 258.006 47.976C258.118 47.848 258.203 47.696 258.262 47.52C258.32 47.344 258.35 47.152 258.35 46.944V45.464C258.35 45.272 258.32 45.0907 258.262 44.92C258.203 44.7493 258.118 44.6 258.006 44.472C257.899 44.344 257.766 44.2427 257.606 44.168C257.451 44.0933 257.275 44.056 257.078 44.056ZM262.756 42.216C262.761 42.2693 262.777 42.3253 262.804 42.384C262.83 42.4427 262.868 42.4987 262.916 42.552C262.964 42.6 263.022 42.64 263.092 42.672C263.161 42.704 263.238 42.72 263.324 42.72C263.42 42.72 263.502 42.704 263.572 42.672C263.646 42.64 263.708 42.6 263.756 42.552C263.804 42.4987 263.838 42.4427 263.86 42.384C263.886 42.3253 263.9 42.2693 263.9 42.216H264.468C264.457 42.3227 264.433 42.4373 264.396 42.56C264.358 42.6773 264.294 42.7867 264.204 42.888C264.118 42.9893 264.004 43.0747 263.86 43.144C263.721 43.2133 263.542 43.248 263.324 43.248C263.105 43.248 262.921 43.2133 262.772 43.144C262.628 43.0747 262.51 42.9893 262.42 42.888C262.334 42.7867 262.27 42.6773 262.228 42.56C262.19 42.4373 262.172 42.3227 262.172 42.216H262.756ZM261.252 49V43.432H261.948V47.816L261.972 47.832L264.844 43.432H265.436V49H264.732V44.816L264.708 44.808L261.94 49H261.252ZM275.759 46.16C275.759 46.496 275.711 46.808 275.615 47.096C275.519 47.3787 275.375 47.6267 275.183 47.84C274.991 48.048 274.754 48.216 274.471 48.344C274.189 48.472 273.861 48.544 273.487 48.56V49H272.791V48.56C272.434 48.5387 272.114 48.4667 271.831 48.344C271.554 48.2213 271.317 48.056 271.119 47.848C270.927 47.64 270.781 47.3947 270.679 47.112C270.578 46.824 270.527 46.5067 270.527 46.16C270.527 45.824 270.575 45.512 270.671 45.224C270.767 44.9307 270.911 44.6773 271.103 44.464C271.295 44.2453 271.533 44.0693 271.815 43.936C272.098 43.8027 272.423 43.7227 272.791 43.696V43.432H273.487V43.696C273.893 43.7173 274.239 43.7947 274.527 43.928C274.815 44.056 275.05 44.2293 275.231 44.448C275.413 44.6613 275.546 44.9147 275.631 45.208C275.717 45.5013 275.759 45.8187 275.759 46.16ZM273.487 47.968C273.749 47.9627 273.978 47.912 274.175 47.816C274.373 47.72 274.538 47.592 274.671 47.432C274.805 47.2667 274.903 47.0747 274.967 46.856C275.037 46.6373 275.071 46.4053 275.071 46.16C275.071 45.8987 275.039 45.656 274.975 45.432C274.917 45.2027 274.821 45.0053 274.687 44.84C274.559 44.6693 274.394 44.536 274.191 44.44C273.994 44.3387 273.759 44.2827 273.487 44.272V47.968ZM272.791 44.264C272.514 44.28 272.274 44.344 272.071 44.456C271.874 44.568 271.711 44.712 271.583 44.888C271.455 45.064 271.362 45.264 271.303 45.488C271.245 45.7067 271.215 45.9307 271.215 46.16C271.215 46.416 271.25 46.6507 271.319 46.864C271.394 47.0773 271.498 47.2613 271.631 47.416C271.77 47.5707 271.935 47.696 272.127 47.792C272.325 47.888 272.546 47.9467 272.791 47.968V44.264ZM277.891 49V43.432H281.411V44.08H278.595V45.88H280.995V46.496H278.595V48.352H281.411V49H277.891ZM283.419 48.376C283.573 48.2747 283.696 48.1547 283.787 48.016C283.877 47.872 283.947 47.6987 283.995 47.496C284.043 47.2933 284.075 47.0533 284.091 46.776C284.107 46.4933 284.123 46.16 284.139 45.776L284.211 43.432H287.771L287.779 48.384H288.291V50.192H287.603V49H283.683V50.192H282.987V48.472L283.419 48.376ZM284.859 44.048L284.803 45.744C284.792 46.064 284.779 46.3573 284.763 46.624C284.752 46.8907 284.731 47.1333 284.699 47.352C284.667 47.5707 284.624 47.7653 284.571 47.936C284.517 48.1067 284.445 48.256 284.355 48.384H287.067V44.048H284.859ZM290.299 49V43.432H293.819V44.08H291.003V45.88H293.403V46.496H291.003V48.352H293.819V49H290.299ZM299.722 45.12C299.722 45.312 299.682 45.5067 299.602 45.704C299.528 45.9013 299.416 46.0773 299.266 46.232C299.122 46.3867 298.941 46.5147 298.722 46.616C298.509 46.712 298.266 46.76 297.994 46.76H296.546V49H295.842V43.432H297.882C298.112 43.432 298.336 43.464 298.554 43.528C298.778 43.592 298.976 43.6933 299.146 43.832C299.317 43.9653 299.456 44.1387 299.562 44.352C299.669 44.5653 299.722 44.8213 299.722 45.12ZM298.986 45.096C298.986 44.7547 298.882 44.5013 298.674 44.336C298.472 44.1653 298.213 44.08 297.898 44.08H296.546V46.112H297.93C298.106 46.112 298.261 46.0827 298.394 46.024C298.528 45.96 298.637 45.88 298.722 45.784C298.813 45.688 298.88 45.5813 298.922 45.464C298.965 45.3413 298.986 45.2187 298.986 45.096ZM304.762 49L304.314 47.72H302.002L301.554 49H300.818L302.858 43.432H303.466L305.506 49H304.762ZM303.578 45.552L303.17 44.368H303.146L302.754 45.52L302.202 47.112H304.114L303.578 45.552ZM311.136 49H307.36V43.432H308.064V48.352H310.528V43.432H311.232V48.368H311.824V50.192H311.136V49ZM313.833 49V43.432H314.529V47.816L314.553 47.832L317.425 43.432H318.017V49H317.313V44.816L317.289 44.808L314.521 49H313.833ZM320.416 49V43.432H321.112V47.816L321.136 47.832L324.008 43.432H324.6V49H323.896V44.816L323.872 44.808L321.104 49H320.416Z" fill="white"/>
<g clip-path="url(#clip0_73_14482)">
<path d="M49.7551 38.2975H37.373V50.6796H49.7551V38.2975Z" fill="white"/>
<path d="M12.3821 30.4454C12.3821 27.0478 13.5147 25.9153 16.9122 25.9153H24.8398V13.4577H12.3821V21.3852C12.3821 24.7828 11.2496 25.9153 7.8521 25.9153H0V50.7551H24.8398V38.222H13.2882C12.7597 38.222 12.4577 37.8444 12.4577 37.3914L12.3821 30.4454Z" fill="white"/>
<path d="M10.2681 13.4577H2.18953C0.981512 13.4577 0 12.4761 0 11.2681V3.18953C0 1.98151 0.981512 1 2.18953 1H10.2681C11.4761 1 12.4577 1.98151 12.4577 3.18953V11.2681C12.3821 12.4761 11.4761 13.4577 10.2681 13.4577Z" fill="white"/>
<path d="M49.7551 13.4577C49.7551 5.53005 45.1495 0.924499 37.2974 1.0755H24.8398V13.4577L35.0324 13.4577C36.1649 13.4577 37.2974 14.5902 37.2974 15.7227C37.2974 16.8552 37.2974 17.9877 37.2974 21.3852C37.2974 24.7828 36.1649 25.9153 32.7674 25.9153H28.2373C25.9723 25.9153 24.8398 27.0478 24.8398 29.3128V34.9754C24.8398 37.2404 25.9723 38.373 28.2373 38.373H33.8999C36.1649 38.373 37.2974 37.2404 37.2974 34.9754V30.4454C37.2974 27.0478 38.43 25.9153 41.8275 25.9153H49.7551V13.4577Z" fill="white"/>
</g>
<defs>
<clipPath id="clip0_73_14482">
<rect width="49.7551" height="49.7551" fill="white" transform="translate(0 1)"/>
</clipPath>
</defs>
</svg>
