<svg width="1400" height="1210" viewBox="0 0 1400 1210" fill="none" xmlns="http://www.w3.org/2000/svg">
<path d="M-148.215 858.808C-146.573 861.712 -142.845 862.722 -139.94 861.018C-137.034 859.313 -136.023 855.651 -137.729 852.747C-138.108 852.115 -138.55 851.547 -139.118 851.105L-26.9912 657.965L105.603 658.217L61.0048 731.9L15.2695 731.773L-42.8471 831.911L-42.4049 832.163C-43.9209 831.785 -45.5634 831.911 -46.9532 832.732C-49.8589 834.373 -50.8697 838.098 -49.1641 841.003C-47.5216 843.907 -43.7946 844.917 -40.8887 843.213C-37.9828 841.571 -36.9722 837.846 -38.6778 834.942C-39.2463 833.931 -40.1307 833.11 -41.0783 832.605L16.4066 733.541L96.3801 733.731L164.73 852.62L150.327 877.37C147.043 875.603 142.936 875.476 139.462 877.497C134.093 880.591 132.261 887.41 135.356 892.713C138.451 898.08 145.274 899.911 150.58 896.817C155.949 893.723 157.781 886.904 154.686 881.601C153.928 880.338 152.981 879.265 151.907 878.381L165.804 854.451L198.653 911.592L112.425 1060.09C110.846 1059.78 109.14 1060.03 107.624 1060.85C104.276 1062.74 103.139 1066.97 105.034 1070.32C106.93 1073.67 111.162 1074.8 114.51 1072.91C117.858 1071.02 118.995 1066.79 117.1 1063.44C116.405 1062.24 115.394 1061.29 114.257 1060.72L200.232 912.854L261.444 915.759L227.711 973.846C223.478 970.942 217.793 970.563 212.992 973.278C206.359 977.066 204.085 985.59 207.875 992.219C211.666 998.849 220.194 1001.12 226.826 997.333C233.459 993.545 235.733 985.021 231.943 978.392C231.185 977.066 230.301 975.993 229.227 974.982L263.086 916.706L330.931 1034.71L317.728 1057.5L203.327 1057.25C203.201 1056.81 203.011 1056.37 202.759 1055.93C201.116 1053.02 197.389 1052.01 194.483 1053.72C191.577 1055.36 190.567 1059.08 192.272 1061.99C193.915 1064.89 197.642 1065.9 200.548 1064.2C202.443 1063.12 203.517 1061.17 203.58 1059.15L318.865 1059.4L319.118 1058.96L376.161 960.713L413.052 1024.92L386.142 1071.33L460.872 1201.33L426.381 1201.27C426.255 1200.39 426.002 1199.57 425.497 1198.74C423.602 1195.4 419.369 1194.26 416.021 1196.16C412.673 1198.05 411.536 1202.28 413.431 1205.63C415.326 1208.97 419.559 1210.11 422.907 1208.22C424.865 1207.08 426.002 1205.18 426.318 1203.16L504.08 1203.35C504.017 1204.49 504.27 1205.63 504.902 1206.7C506.544 1209.6 510.271 1210.61 513.177 1208.91C516.083 1207.27 517.093 1203.54 515.388 1200.64C513.745 1197.73 510.018 1196.72 507.113 1198.43C505.912 1199.12 505.028 1200.2 504.523 1201.46L463.083 1201.4L388.353 1071.39L414.189 1026.88L424.044 1044.06L424.612 1044.06L521.515 1044.25L585.696 1155.87L586.265 1155.87L715.637 1156.13L715.89 1155.68L780.829 1043.87L718.227 935.016L959.158 935.521L959.411 935.079L1051.77 776.033L1126.56 906.225C1121.82 909.508 1120.31 915.885 1123.21 920.936C1126.31 926.303 1133.13 928.134 1138.44 925.04C1143.8 921.946 1145.64 915.127 1142.54 909.824C1139.64 904.773 1133.32 902.878 1128.14 905.278L1052.78 774.139L1081.08 725.397L1000.6 585.419L1053.91 584.661L1113.04 687.514L1112.91 687.703L1113.29 687.892L1113.48 688.208L1113.67 688.082L1114.56 688.587L1158.52 612.631L1275.83 614.273L1233.82 686.63C1230.41 684.483 1225.99 684.23 1222.26 686.314C1216.89 689.408 1215.06 696.227 1218.16 701.53C1221.25 706.897 1228.07 708.728 1233.38 705.634C1238.75 702.54 1240.58 695.721 1237.49 690.418C1236.85 689.281 1235.97 688.334 1235.02 687.514L1235.34 687.703L1277.41 615.22L1358.2 755.766L1326.3 810.76L1195.54 810.507C1195.29 808.739 1194.72 807.034 1193.84 805.393C1190.05 798.763 1181.52 796.49 1174.88 800.279C1168.25 804.067 1165.98 812.591 1169.77 819.22C1173.56 825.85 1182.09 828.123 1188.72 824.334C1193.14 821.809 1195.6 817.2 1195.67 812.401L1327.38 812.654L1327.63 812.212L1399.33 688.713L1327.88 564.394L1327.31 564.394L1184.42 564.078L1184.17 564.52L1157.13 611.179L1098.95 509.968L1115.13 482.124L1231.86 482.377C1231.86 483.324 1232.18 484.334 1232.69 485.218C1234.33 488.123 1238.05 489.133 1240.96 487.428C1243.87 485.786 1244.88 482.061 1243.17 479.157C1241.53 476.253 1237.8 475.242 1234.9 476.947C1233.51 477.768 1232.56 479.031 1232.12 480.483L1114.05 480.23L1113.8 480.672L1097.88 508.074L1074.95 468.171L987.838 468.171L1052.71 356.416L961.748 198.128L1018.92 99.8217L961.685 0.252535L961.117 0.252535L846.779 -2.34956e-05L789.483 98.6852C787.778 97.9907 785.819 97.9907 784.051 99.0009C781.145 100.643 780.134 104.368 781.84 107.272C783.482 110.176 787.209 111.187 790.115 109.482C793.021 107.84 794.032 104.115 792.326 101.211C792.01 100.643 791.568 100.137 791.063 99.6954L816.71 55.4986L898.136 197.181L861.371 197.118C861.118 195.603 860.55 194.087 859.729 192.635C855.938 186.006 847.41 183.733 840.777 187.521C834.145 191.309 831.87 199.833 835.661 206.462C839.451 213.092 847.979 215.365 854.612 211.577C859.223 208.925 861.75 204 861.56 199.012L899.21 199.075L933.764 259.183L913.423 293.909L781.587 293.656L781.334 293.278L780.892 293.53L780.955 293.72L764.468 293.656C764.341 292.773 764.089 291.952 763.584 291.131C761.688 287.785 757.456 286.648 754.108 288.542C750.76 290.436 749.623 294.667 751.518 298.013C753.413 301.359 757.645 302.496 760.993 300.602C762.952 299.465 764.089 297.571 764.405 295.551L782.029 295.614L820.563 362.667L788.22 418.797L720.628 418.67L687.653 361.341C690.369 359.257 691.19 355.469 689.422 352.375C687.527 349.029 683.294 347.892 679.946 349.786C676.598 351.681 675.461 355.911 677.356 359.257C679.125 362.288 682.789 363.487 685.947 362.225L718.354 418.607L646.908 418.481L610.775 355.595L647.098 292.962C650.067 293.972 653.415 293.783 656.321 292.078C661.69 288.984 663.522 282.165 660.427 276.862C657.331 271.495 650.509 269.664 645.203 272.758C639.833 275.851 638.001 282.67 641.096 287.974C642.17 289.805 643.686 291.257 645.392 292.204L609.701 353.701L576.537 296.056L647.413 173.946L787.02 174.262L733.894 265.812C729.661 263.161 724.165 262.845 719.554 265.497C712.921 269.285 710.647 277.809 714.437 284.438C718.227 291.068 726.755 293.341 733.388 289.552C740.021 285.764 742.295 277.24 738.505 270.611C737.684 269.159 736.673 267.959 735.473 266.949L789.799 173.378L789.231 173.062L789.231 172.431L646.34 172.115L574.389 296.119L608.627 355.658L576.031 411.851L516.525 308.305L529.601 285.827L494.794 225.278L424.928 225.151L390.185 285.006C388.542 284.375 386.647 284.438 384.941 285.385C382.036 287.027 381.025 290.752 382.73 293.656C384.373 296.561 388.1 297.571 391.006 295.866C393.912 294.225 394.922 290.5 393.217 287.595C392.838 286.964 392.332 286.396 391.827 285.954L409.009 256.405L487.34 258.299L515.261 306.915L493.531 344.357L432.13 344.23C432.003 343.346 431.751 342.526 431.245 341.705C429.35 338.358 425.118 337.222 421.77 339.116C418.422 341.01 417.285 345.24 419.18 348.587C421.075 351.933 425.307 353.07 428.655 351.175C430.614 350.039 431.751 348.145 432.066 346.124L474.896 346.188L417.537 440.201L387.658 440.137L302.252 291.573C306.989 288.29 308.506 281.913 305.6 276.862C302.504 271.495 295.682 269.664 290.376 272.758C285.006 275.851 283.174 282.67 286.27 287.974C289.175 293.025 295.492 294.919 300.672 292.52L385.7 440.074L300.357 439.885L256.453 515.588L298.904 589.46L128.218 589.081L42.8117 440.453C45.0859 438.622 45.7809 435.339 44.2648 432.75C42.6223 429.846 38.8952 428.836 35.9894 430.54C33.0836 432.182 32.0729 435.907 33.7784 438.811C35.2945 441.4 38.453 442.474 41.1693 441.463L59.615 473.538L30.3673 525.374L105.666 656.386L-28.0021 656.134L-140.635 850.221C-142.277 849.59 -144.235 849.653 -145.877 850.6C-148.846 852.178 -149.857 855.903 -148.215 858.808ZM391.764 288.353C392.901 290.373 392.206 292.899 390.248 294.035C388.226 295.172 385.7 294.477 384.562 292.52C383.425 290.5 384.12 287.974 386.078 286.837C388.037 285.701 390.627 286.332 391.764 288.353ZM643.055 286.964C640.528 282.544 642.044 276.862 646.466 274.336C650.888 271.811 656.573 273.326 659.1 277.746C661.627 282.165 660.111 287.848 655.689 290.373C651.267 292.899 645.582 291.383 643.055 286.964ZM790.747 102.158C791.884 104.178 791.189 106.704 789.231 107.84C787.209 108.977 784.682 108.282 783.545 106.325C782.408 104.305 783.103 101.779 785.061 100.643C787.02 99.4429 789.546 100.137 790.747 102.158ZM1234.39 484.271C1234.07 483.703 1233.89 483.008 1233.82 482.377L1233.89 482.377L1233.89 481.367C1234.14 480.23 1234.83 479.22 1235.91 478.589C1237.93 477.452 1240.46 478.147 1241.59 480.104C1242.73 482.124 1242.03 484.65 1240.08 485.786C1238.05 486.986 1235.53 486.292 1234.39 484.271ZM1235.84 691.428C1238.37 695.848 1236.85 701.53 1232.43 704.056C1228.01 706.581 1222.33 705.066 1219.8 700.646C1217.27 696.227 1218.79 690.544 1223.21 688.019C1227.63 685.493 1233.32 687.008 1235.84 691.428ZM1158.84 612.189L1185.62 566.035L1326.87 566.351L1397.24 688.776L1358.58 755.387L1277.79 614.841L1294.84 585.482C1296.3 585.798 1297.81 585.608 1299.2 584.851C1302.11 583.209 1303.12 579.484 1301.41 576.579C1299.77 573.675 1296.04 572.665 1293.14 574.37C1290.23 576.011 1289.22 579.736 1290.93 582.641C1291.43 583.588 1292.19 584.282 1293.08 584.787L1276.21 613.894L1158.84 612.189ZM1294.09 575.948C1296.11 574.812 1298.63 575.506 1299.77 577.463C1300.91 579.484 1300.21 582.009 1298.26 583.146C1296.23 584.282 1293.71 583.588 1292.57 581.63C1291.37 579.673 1292.07 577.085 1294.09 575.948ZM506.418 1205.82C505.281 1203.8 505.976 1201.27 507.934 1200.13C509.955 1199 512.482 1199.69 513.619 1201.65C514.756 1203.67 514.061 1206.2 512.103 1207.33C510.145 1208.47 507.618 1207.77 506.418 1205.82ZM201.053 1057C202.19 1059.02 201.495 1061.55 199.537 1062.68C197.515 1063.82 194.989 1063.12 193.852 1061.17C192.715 1059.15 193.409 1056.62 195.368 1055.48C197.326 1054.35 199.916 1054.98 201.053 1057ZM153.044 882.8C155.571 887.22 154.054 892.903 149.632 895.428C145.211 897.954 139.525 896.438 136.998 892.019C134.472 887.599 135.988 881.917 140.41 879.391C144.768 876.802 150.454 878.318 153.044 882.8ZM-40.3202 836.078C-39.1831 838.098 -39.878 840.624 -41.8362 841.76C-43.7946 842.897 -46.3846 842.202 -47.5215 840.245C-48.6586 838.225 -47.9638 835.699 -46.0055 834.563C-44.0473 833.363 -41.4573 834.058 -40.3202 836.078ZM41.0429 439.38C39.0847 440.516 36.4947 439.822 35.3576 437.864C34.2206 435.844 34.9154 433.318 36.8738 432.182C38.8951 431.045 41.422 431.74 42.5591 433.697C43.7593 435.718 43.0644 438.243 41.0429 439.38ZM300.609 591.417L328.404 591.48L272.814 689.913L294.798 728.175L238.197 728.048L197.137 656.576L196.568 656.576L106.171 656.386L30.8725 525.374L59.8678 474.043L127.081 590.975L127.649 590.975L299.978 591.354L300.041 591.417L300.609 591.417ZM295.871 730.069L365.169 850.6L308.695 850.789L239.271 730.006L295.871 730.069ZM314.191 564.962L300.483 588.513L258.538 515.588L272.246 492.037L314.191 564.962ZM328.404 589.586L302.125 589.523L315.328 566.793L328.404 589.586ZM385.573 441.968L314.444 564.457L272.499 491.532L301.367 441.779L385.573 441.968ZM300.672 290.31C296.25 292.836 290.565 291.32 288.038 286.901C285.512 282.481 287.028 276.799 291.45 274.273C295.871 271.747 301.557 273.263 304.084 277.682C306.674 282.039 305.157 287.721 300.672 290.31ZM463.209 521.081L342.933 728.301L295.366 728.175L273.383 689.913L328.973 591.48L387.595 591.606L427.771 522.344C429.666 523.101 431.94 523.038 433.835 521.965C437.183 520.071 438.32 515.84 436.425 512.494C434.53 509.148 430.298 508.011 426.95 509.905C423.602 511.799 422.465 516.03 424.36 519.376C424.802 520.197 425.434 520.828 426.128 521.397L386.458 589.712L328.909 589.586L315.581 566.351L387.847 441.905L417.727 441.968L463.209 521.081ZM365.738 850.6L296.44 730.069L341.796 730.195L341.291 731.016L409.957 850.474L365.738 850.6ZM411.094 852.305L461.883 940.698L439.584 979.086L366.748 852.431L411.094 852.305ZM452.66 800.784L509.829 798.953L590.939 940.067L463.525 939.814L413.242 852.368L479.634 852.178L479.634 851.61L495.363 878.949C490.625 882.232 489.109 888.609 492.015 893.66C495.11 899.027 501.933 900.858 507.239 897.764C512.608 894.67 514.44 887.852 511.345 882.548C508.439 877.497 502.122 875.603 496.942 878.002L452.66 800.784ZM509.766 883.432C512.293 887.851 510.776 893.534 506.355 896.059C501.933 898.585 496.247 897.07 493.721 892.65C491.194 888.23 492.71 882.548 497.132 880.022C501.554 877.497 507.239 879.012 509.766 883.432ZM412.168 850.41L384.878 802.93L450.512 800.847L478.876 850.221L412.168 850.41ZM384.626 802.488L343.502 730.953L344.007 730.132L409.957 730.258L450.259 800.342L384.626 802.488ZM496.626 579.168L410.02 728.364L345.144 728.238L464.283 522.975L496.626 579.168ZM560.428 442.284L605.784 521.144L463.588 520.828L418.295 441.968L560.428 442.284ZM572.304 579.105L607.869 523.796L607.427 523.038L705.341 523.228L728.461 563.447L694.854 621.281L670.723 579.231L670.155 579.231L572.304 579.105ZM769.395 734.362C771.922 738.782 770.406 744.464 765.984 746.99C761.562 749.515 755.877 748 753.35 743.58C750.823 739.161 752.339 733.478 756.761 730.953C761.183 728.427 766.868 729.879 769.395 734.362ZM571.736 579.105L497.005 578.916L464.662 522.722L606.858 523.038L607.3 523.733L571.736 579.105ZM516.462 308.557L575.968 412.104L559.607 440.327L418.295 440.011L475.654 345.998L494.731 346.061L516.462 308.557ZM515.641 306.221L487.719 257.604L409.388 255.71L426.192 226.793L493.91 226.919L527.643 285.575L515.641 306.221ZM724.923 488.754L706.162 521.333L705.909 521.333L606.353 521.144L560.87 442.032L610.017 357.363L646.15 420.249L646.719 420.249L685.631 420.312L724.923 488.754ZM958.779 516.535L998.64 585.861L911.149 731.079L873.752 665.983C876.469 663.9 877.29 660.111 875.521 657.018C873.626 653.671 869.394 652.535 866.046 654.429C862.697 656.323 861.56 660.553 863.456 663.9C865.224 666.93 868.888 668.13 872.047 666.867L909.064 731.268L827.006 731.079L731.177 564.457L907.548 564.836C907.422 566.225 907.675 567.677 908.433 568.94C910.328 572.286 914.56 573.423 917.908 571.528C921.256 569.634 922.393 565.404 920.498 562.058C918.603 558.711 914.371 557.575 911.023 559.469C909.633 560.29 908.622 561.489 908.054 562.942L730.103 562.563L706.541 521.586L725.429 488.754L686.074 420.312L719.68 420.375L774.701 516.093L775.27 516.093L958.779 516.535ZM859.349 295.614L821.068 362.035L782.787 295.487L859.349 295.614ZM912.412 295.74L872.363 364.182L822.711 362.982L861.56 295.614L912.412 295.74ZM959.537 197.244L898.704 197.118L817.025 54.9935L847.852 1.89413L960.548 2.14669L1016.71 99.8217L960.422 196.739L959.537 197.244ZM986.637 466.656L948.04 399.539L977.73 348.397C980.068 348.65 982.468 348.271 984.616 347.008C989.985 343.915 991.817 337.096 988.722 331.792C985.627 326.425 978.804 324.594 973.498 327.688C968.128 330.782 966.297 337.601 969.392 342.904C970.845 345.43 973.182 347.198 975.835 348.019L919.298 445.441L872.805 364.561L913.044 295.866L960.422 295.993C960.548 296.561 960.801 297.129 961.053 297.697C962.696 300.602 966.423 301.612 969.329 299.907C972.235 298.266 973.245 294.54 971.54 291.636C969.897 288.732 966.17 287.721 963.264 289.426C961.496 290.436 960.422 292.204 960.232 294.098L914.055 293.972L934.396 259.246L899.842 199.138L960.169 199.265L1050.63 356.605L986.637 466.656ZM964.149 290.942C966.17 289.805 968.697 290.5 969.834 292.457C970.971 294.477 970.276 297.003 968.318 298.139C966.297 299.276 963.77 298.581 962.633 296.624C961.496 294.667 962.191 292.078 964.149 290.942ZM971.034 341.957C968.507 337.538 970.024 331.855 974.446 329.33C978.867 326.804 984.553 328.319 987.08 332.739C989.606 337.159 988.09 342.841 983.668 345.367C979.246 347.892 973.561 346.377 971.034 341.957ZM1055.87 584.345L1098.76 510.474L1156.94 611.684L1114.05 685.556L1055.87 584.345ZM960.422 515.588L987.648 468.676L1074.76 468.676L1097.69 508.579L1053.85 584.093L1000.28 584.851L960.422 515.588ZM958.779 514.641L775.838 514.262L721.891 420.438L789.483 420.565L789.736 420.059L822.332 363.487L872.236 364.687L918.729 445.567L804.455 445.315C804.328 444.683 804.139 444.115 803.76 443.547C802.117 440.643 798.39 439.632 795.484 441.337C792.579 442.979 791.568 446.704 793.273 449.608C794.916 452.513 798.643 453.523 801.549 451.818C803.317 450.808 804.328 449.103 804.518 447.209L920.056 447.461L947.661 399.981L986.258 467.098L958.779 514.641ZM800.664 450.176C798.643 451.313 796.116 450.618 794.979 448.661C793.842 446.641 794.537 444.115 796.495 442.979C798.517 441.842 801.043 442.537 802.18 444.494C803.381 446.514 802.686 449.04 800.664 450.176ZM1128.14 907.235C1132.56 904.709 1138.25 906.225 1140.77 910.645C1143.3 915.064 1141.78 920.747 1137.36 923.272C1132.94 925.798 1127.25 924.282 1124.73 919.863C1122.2 915.443 1123.72 909.761 1128.14 907.235ZM911.528 731.268L998.892 586.303L1078.8 725.333L1051.64 772.182L1028.27 731.584L1027.7 731.584L911.528 731.268ZM902.495 836.709L937.365 776.665L912.349 733.099L1027.19 733.352L1050.57 773.95L958.084 933.248L902.495 836.709ZM787.02 801.794L826.943 732.973L910.075 733.163L935.091 776.728L901.358 834.878L884.239 805.077L884.112 805.077L787.02 801.794ZM883.986 805.456L901.105 835.257L868.383 891.64L735.346 891.387L735.157 891.072L786.767 802.173L883.986 805.456ZM542.741 731.395L599.467 630.247L639.96 630.31C639.896 631.447 640.149 632.583 640.781 633.593C642.423 636.498 646.15 637.508 649.056 635.803C651.962 634.162 652.973 630.436 651.267 627.532C649.624 624.628 645.897 623.618 642.992 625.322C641.728 626.017 640.844 627.153 640.338 628.416L599.467 628.353L572.241 581.062L669.65 581.252L693.78 623.302L636.801 721.482C635.159 720.85 633.263 720.977 631.684 721.924C628.778 723.566 627.768 727.291 629.473 730.195C631.116 733.099 634.843 734.11 637.749 732.405C640.654 730.763 641.665 727.038 639.96 724.134C639.58 723.439 639.075 722.871 638.443 722.429L694.918 625.196L755.056 729.879C750.318 733.163 748.802 739.54 751.707 744.591C754.803 749.957 761.625 751.788 766.932 748.695C772.301 745.601 774.133 738.782 771.038 733.478C768.132 728.427 761.815 726.533 756.635 728.932L695.928 623.302L729.535 565.467L825.301 732.089L734.083 889.304L672.239 781.716C674.956 779.632 675.777 775.844 674.008 772.75C672.113 769.404 667.881 768.267 664.533 770.162C661.185 772.056 660.047 776.286 661.943 779.632C663.711 782.663 667.375 783.863 670.534 782.6L732.946 891.135L724.923 904.899C723.091 903.825 720.754 903.699 718.733 904.836C715.827 906.477 714.816 910.202 716.522 913.107C718.227 916.011 721.891 917.021 724.797 915.317C727.703 913.675 728.713 909.95 727.008 907.046C726.818 906.73 726.629 906.414 726.376 906.162L734.02 893.029L734.209 893.345L734.778 893.345L869.457 893.66L869.709 893.218L902.179 837.278L957.579 933.627L716.964 933.122L716.206 931.796L600.099 729.753C602.815 727.67 603.637 723.881 601.868 720.787C599.973 717.441 595.74 716.305 592.392 718.199C589.044 720.093 587.907 724.323 589.802 727.67C591.571 730.7 595.235 731.9 598.393 730.637L714.5 932.617L715.827 934.89L778.428 1043.74L750.191 1092.36L542.741 731.395ZM723.913 913.675C721.891 914.812 719.364 914.117 718.227 912.16C717.09 910.139 717.785 907.614 719.743 906.477C721.765 905.341 724.292 906.035 725.429 907.993C726.629 910.013 725.934 912.539 723.913 913.675ZM636.738 730.7C634.716 731.837 632.189 731.142 631.052 729.185C629.915 727.164 630.61 724.639 632.568 723.502C634.59 722.366 637.117 723.06 638.254 725.018C639.391 727.038 638.696 729.564 636.738 730.7ZM643.876 626.964C645.897 625.827 648.424 626.522 649.561 628.479C650.698 630.5 650.003 633.025 648.045 634.162C646.024 635.298 643.497 634.604 642.36 632.646C641.223 630.689 641.918 628.1 643.876 626.964ZM547.794 1000.62L571.23 960.208C572.62 960.524 574.136 960.271 575.463 959.514C578.368 957.872 579.379 954.147 577.674 951.242C576.031 948.338 572.304 947.328 569.398 949.033C566.492 950.674 565.482 954.399 567.187 957.304C567.756 958.251 568.514 959.008 569.398 959.514L546.089 999.606L430.677 998.091L463.462 941.645L613.491 941.961L688.032 1071.65C683.294 1074.93 681.778 1081.31 684.684 1086.36C687.779 1091.73 694.602 1093.56 699.908 1090.46C705.277 1087.37 707.109 1080.55 704.014 1075.25C701.108 1070.2 694.791 1068.3 689.611 1070.7L614.691 940.13L614.123 940.13L591.508 940.067L510.145 798.511L510.018 798.511L452.47 800.342L411.662 729.374L497.827 580.873L571.672 580.999L598.899 628.29L525.053 628.163L474.58 715.105C470.727 713.527 466.241 713.653 462.388 715.863C455.755 719.651 453.481 728.175 457.271 734.804C461.061 741.434 469.589 743.707 476.222 739.918C482.855 736.13 485.129 727.606 481.339 720.977C480.076 718.83 478.37 717.125 476.349 715.926L526.19 630.058L598.962 630.184L542.235 731.395L750.002 1092.86L714.374 1154.23L636.043 1154.04L547.794 1000.62ZM702.498 1076.26C705.025 1080.68 703.509 1086.36 699.087 1088.88C694.665 1091.41 688.979 1089.89 686.453 1085.47C683.926 1081.05 685.442 1075.37 689.864 1072.85C694.286 1070.32 699.971 1071.84 702.498 1076.26ZM570.409 950.674C572.43 949.538 574.957 950.232 576.094 952.189C577.231 954.21 576.537 956.735 574.578 957.872C572.557 959.008 570.03 958.314 568.893 956.357C567.693 954.336 568.388 951.811 570.409 950.674ZM523.031 1043.3L547.541 1001.06L635.474 1154.04L586.644 1153.92L523.031 1043.3ZM415.2 1024.99L430.487 998.596L545.899 1000.11L521.389 1042.35L425.054 1042.16L415.2 1024.99ZM200.484 912.412L271.551 789.924L307.305 852.115L308.127 851.673L308.127 852.62L366.18 852.431L439.268 979.592L414 1023.09L376.666 958.188L375.719 958.756L375.15 958.44L331.057 1034.4L263.212 916.39L283.364 881.727C285.259 883.053 287.722 883.242 289.87 882.043C292.776 880.401 293.787 876.676 292.081 873.772C290.376 870.867 286.712 869.857 283.806 871.562C280.9 873.203 279.889 876.929 281.595 879.833C281.721 880.022 281.848 880.212 281.974 880.401L261.633 915.443L200.484 912.412ZM284.88 873.077C286.901 871.941 289.428 872.635 290.565 874.592C291.702 876.613 291.007 879.138 289.049 880.275C287.091 881.411 284.501 880.717 283.364 878.76C282.164 876.739 282.858 874.214 284.88 873.077ZM166.057 854.262L237.692 730.89L270.54 788.03L198.905 911.402L166.057 854.262ZM106.171 658.28L195.999 658.47L236.555 728.995L164.92 852.368L96.8853 733.983L130.366 734.046C130.366 734.994 130.681 736.004 131.187 736.888C132.829 739.792 136.556 740.802 139.462 739.097C142.368 737.456 143.379 733.731 141.673 730.826C140.031 727.922 136.304 726.912 133.398 728.617C132.008 729.437 131.061 730.7 130.618 732.152L61.5733 732.026L106.171 658.28ZM134.345 730.195C136.367 729.059 138.894 729.753 140.031 731.71C141.168 733.731 140.473 736.256 138.515 737.393C136.493 738.529 133.966 737.835 132.829 735.877C131.692 733.92 132.387 731.395 134.345 730.195ZM-146.572 857.861C-147.71 855.84 -147.015 853.315 -145.056 852.178C-143.035 851.042 -140.508 851.736 -139.371 853.694C-138.234 855.714 -138.929 858.24 -140.887 859.376C-142.845 860.513 -145.435 859.818 -146.572 857.861Z" fill="#333333" fill-opacity="0.1"/>
</svg>
