<svg width="63" height="73" viewBox="0 0 63 73" fill="none" xmlns="http://www.w3.org/2000/svg">
<path d="M45.7729 72.6496H10.6643C5.1514 72.6496 0.726562 68.8718 0.726562 64.2222H55.7469C55.7469 68.8718 51.2858 72.6496 45.7729 72.6496Z" fill="#A39BFF"/>
<path d="M0 36.0347C0 53.9429 12.6217 68.4366 28.2174 68.4366C43.8132 68.4366 56.4349 53.9429 56.4349 36.0347H0Z" fill="#A39BFF"/>
<path d="M48.0883 61.0985C46.42 61.0985 44.8241 60.8079 43.5547 60.2631L45.2593 56.5216C47.3992 57.5024 52.1505 57.0301 55.5235 54.8506C57.0468 53.8699 58.8603 52.1626 58.8603 49.5109C58.8603 46.3506 56.3214 43.8078 53.166 43.8078C52.622 43.8078 52.0417 43.8805 51.5339 44.0621L50.3733 40.1027C51.28 39.8121 52.223 39.7031 53.2023 39.7031C58.6064 39.7031 62.995 44.0984 62.995 49.5109C62.995 52.9981 61.1452 56.122 57.7722 58.3015C54.9432 60.1178 51.3163 61.0985 48.0883 61.0985Z" fill="#A39BFF"/>
<path d="M25.2734 9.33552C24.5117 10.8612 23.2786 12.1325 22.3718 13.5492C20.2319 16.8911 19.7242 21.2501 21.1749 24.9553C22.6257 28.6604 25.9987 31.5301 29.9158 32.2929C27.8122 31.3485 26.1438 29.5322 25.3822 27.3527C24.6205 25.1732 24.8019 22.7031 25.8537 20.6326C26.8692 18.671 28.6101 17.1817 29.8433 15.3655C30.9676 13.6582 31.6567 11.624 31.8381 9.55347C32.0557 7.19235 31.5117 4.61327 29.6982 3.08762C28.1024 1.70727 25.9988 1.3077 24.4029 0C26.1438 2.83335 26.8692 6.17525 25.2734 9.33552Z" fill="#A39BFF"/>
<path d="M32.0198 30.1134C31.0405 29.1689 29.9887 28.1518 29.7711 26.8078C29.5535 25.4638 30.1701 24.1561 30.8229 22.9937C31.4758 21.8313 32.2011 20.7052 32.9628 19.5792C34.0146 18.0535 35.284 16.3099 34.8488 14.4937C36.2996 16.3826 36.4809 19.1796 35.284 21.2501C34.8851 21.9403 34.3773 22.5215 33.9421 23.1753C32.9991 24.6283 32.4913 26.3719 32.6726 28.0792C32.854 29.6775 33.6882 30.9489 34.8125 31.966C33.7607 32.0386 32.7452 30.8399 32.0198 30.1134Z" fill="#A39BFF"/>
</svg>
