<svg width="1142" height="156" viewBox="0 0 1142 156" fill="none" xmlns="http://www.w3.org/2000/svg">
<path d="M92.5044 0.524414L110.409 79.3038H94.0391L90.9698 62.1667H75.3674L72.0423 79.3038H57.7188L75.6232 0.524414H92.5044ZM84.5754 28.6599C83.2965 22.5213 83.0407 18.173 82.7849 15.3595C82.7849 16.6384 82.2733 20.7308 80.9945 27.8926L76.6463 49.6336H88.9236L84.5754 28.6599Z" fill="#1D2332"/>
<path d="M132.671 32.2408H137.786C143.158 32.2408 144.181 28.9157 144.436 27.381C144.692 25.8464 144.692 24.8233 145.46 19.7077C145.971 14.5922 146.483 11.5228 147.25 8.96506C148.273 6.40729 149.808 4.1053 151.854 2.57063C154.412 0.780191 157.737 0.524414 160.806 0.524414C162.852 0.524414 163.876 0.524414 165.41 1.29175V13.8248H164.387C163.108 13.8248 161.062 14.0806 160.55 18.6846C160.295 21.4981 160.039 23.2886 159.272 27.8926C158.76 30.1946 158.248 32.7523 155.946 35.0543C154.668 36.3332 152.621 37.6121 150.319 38.1237C154.156 38.6352 157.481 40.6814 159.527 44.5181C161.062 47.5874 161.574 51.4241 162.085 56.2839C162.597 62.4225 162.852 63.9572 163.62 65.2361C164.387 66.5149 165.41 67.0265 166.945 66.5149V80.0711C165.41 80.8385 164.131 80.8385 162.341 80.8385C157.993 80.8385 152.621 80.3269 149.808 74.6998C147.762 71.1189 147.506 66.2592 146.738 56.5396C146.483 52.4472 145.971 49.6336 144.436 47.5874C142.646 45.2854 139.832 45.2854 138.042 45.2854H132.926V80.0711H116.812V1.29175H132.926V32.2408H132.671Z" fill="#1D2332"/>
<path d="M16.5301 32.2409H21.6456C27.0169 32.2409 28.04 28.9158 28.2958 27.3811C28.5516 25.8465 28.5516 24.8234 29.3189 19.7078C29.8305 14.5923 30.342 11.523 31.1093 8.96519C32.1325 6.40741 33.6671 4.10542 35.7133 2.57075C38.2711 0.780313 41.5962 0.524536 44.6656 0.524536C46.7118 0.524536 47.7349 0.524536 49.2695 1.29187V13.825H48.2465C46.9676 13.825 44.9213 14.0807 44.4098 18.6847C44.154 21.4983 43.8982 23.2887 43.1309 27.8927C42.6194 30.1947 42.1078 32.7525 39.8058 35.0545C38.5269 36.3334 36.4807 37.6122 34.1787 38.1238C38.0154 38.6353 41.3404 40.6816 43.3867 44.5182C44.9213 47.5876 45.4329 51.4242 45.9444 56.284C46.456 62.4226 46.7118 63.9573 47.4791 65.2362C48.2464 66.5151 49.2696 67.0266 50.8042 66.5151V80.0713C49.2696 80.8386 47.9907 80.8386 46.2002 80.8386C41.852 80.8386 36.4807 80.327 33.6671 74.6999C31.6209 71.1191 31.3651 66.2593 30.5978 56.5398C30.342 52.4473 29.8305 49.6338 28.2958 47.5876C26.5054 45.2856 23.6918 45.2856 21.9014 45.2856H16.7858V80.0713H0.671875V1.29187H16.7858V32.2409H16.5301Z" fill="#4E75D8"/>
<path d="M209.418 66.2606C211.209 66.5164 212.999 66.7721 214.79 66.7721C216.836 66.7721 219.649 66.5164 221.696 65.2375C223.742 63.7028 224.509 61.4008 225.021 60.3777L225.276 59.3546L204.047 0.781616H222.207L230.648 30.196C231.159 32.2422 232.182 37.102 232.438 38.8924H232.694C233.205 34.0327 233.973 31.9864 234.484 30.196L241.902 0.781616H255.458L238.833 60.8893C237.298 66.7721 235.763 72.655 231.415 76.7475C227.834 80.0726 223.23 81.0957 217.859 81.0957C215.045 81.0957 211.976 80.5841 209.674 79.8168V66.2606H209.418Z" fill="#4E75D8"/>
<path d="M310.71 0.781616V79.561H294.34V14.5936H281.551V79.561H265.438V0.781616H310.71Z" fill="#1D2332"/>
<path d="M322.711 0.781616H342.406C351.102 0.781616 357.752 1.29317 362.868 8.19916C366.193 12.8032 367.728 19.9649 367.728 25.3362C367.728 30.4518 366.449 38.8924 362.356 43.7522C356.985 50.6582 349.056 50.6582 343.173 50.6582H338.569V79.8168H322.711V0.781616ZM342.406 36.5904C344.196 36.5904 346.498 36.5904 348.289 34.5442C349.312 33.2653 350.846 30.7076 350.846 24.3131C350.846 22.0111 350.591 17.9187 348.544 15.3609C346.754 13.3147 344.452 13.0589 342.406 13.0589H338.569V36.5904H342.406Z" fill="#1D2332"/>
<path d="M398.19 0.781616L416.094 79.561H399.725L396.655 62.4239H380.797L377.472 79.561H363.148L381.053 0.781616H398.19ZM390.261 28.9171C388.982 22.7785 388.726 18.4302 388.47 15.6167C388.47 16.8956 387.959 20.988 386.68 28.1498L382.332 49.8909H394.609L390.261 28.9171Z" fill="#1D2332"/>
<path d="M420.68 0.781788H442.165C449.071 0.781788 456.488 0.526013 461.86 6.40889C465.185 9.98977 466.72 15.6169 466.72 21.244C466.72 25.5922 465.696 30.452 463.906 33.0097C463.65 33.5213 461.604 36.5906 457 38.6368C460.581 39.6599 463.65 41.9619 465.441 44.2639C467.998 47.8448 469.022 53.9835 469.022 58.3317C469.022 62.9357 467.998 67.5396 465.441 71.6321C460.325 79.5612 452.396 79.5612 445.234 79.5612H420.935V0.781788H420.68ZM442.165 32.4982C445.49 32.4982 448.048 31.4751 449.071 29.9404C450.35 28.15 450.861 25.0806 450.861 23.0344C450.861 20.4766 450.094 17.4073 448.559 15.6169C446.769 13.5706 443.955 13.3149 442.165 13.3149H436.282V32.4982H442.165ZM442.677 66.2608C445.234 66.2608 448.304 66.2608 450.35 63.703C451.884 61.9126 452.652 58.3317 452.652 55.7739C452.652 51.4257 451.373 48.3564 449.327 46.8217C447.025 45.0313 444.467 45.287 442.165 45.287H436.282V66.2608H442.677Z" fill="#1D2332"/>
<path d="M471.842 66.2606C473.888 66.2606 476.957 66.0048 478.748 64.9817C481.817 63.1913 482.584 59.3546 482.84 56.2853C482.84 55.518 483.607 49.8909 484.119 32.7538C484.375 23.8016 484.886 4.10672 484.886 0.781616H524.276V79.561H508.162V14.5936H497.931C497.931 19.1976 497.675 23.8016 497.419 28.6613C497.419 32.7538 497.164 37.102 497.164 41.1944C496.396 57.3084 495.373 68.5626 490.258 74.957C487.7 78.2821 483.352 80.8399 476.701 80.8399C474.911 80.8399 473.376 80.5841 471.586 79.8168V66.2606H471.842Z" fill="#1D2332"/>
<path d="M544.23 44.7739C542.184 44.0065 539.371 42.2161 537.069 38.6352C533.999 34.0312 533.744 28.9157 533.744 24.3117C533.744 18.4288 534.767 10.2439 539.882 5.38418C544.998 0.780186 552.671 0.524414 557.019 0.524414H580.295V79.3038H564.181V48.099H558.554L550.113 79.5596H531.953L544.23 44.7739ZM564.181 13.3133H559.577C555.485 13.3133 553.183 15.1037 552.415 16.1268C550.881 17.9173 550.113 20.9866 550.113 24.5675C550.113 29.1715 551.392 31.2177 551.904 31.985C553.183 33.7755 555.74 35.3101 559.577 35.3101H564.181V13.3133Z" fill="#1D2332"/>
<path d="M616.87 79.561H600.5V15.6167H587.711V0.781616H630.17V15.6167H616.87V79.561Z" fill="#1D2332"/>
<path d="M636.836 79.561H656.531C665.227 79.561 671.877 79.0494 676.993 72.1435C680.318 67.5395 681.853 60.3777 681.853 55.0064C681.853 49.8909 680.574 41.4502 676.481 36.5904C671.11 29.6844 663.181 29.6844 657.298 29.6844H652.694V0.781616H636.836V79.561ZM656.531 43.7522C658.321 43.7522 660.623 43.7522 662.414 45.7984C663.437 47.0773 664.971 49.6351 664.971 56.0295C664.971 58.3315 664.716 62.4239 662.669 64.9817C660.879 67.0279 658.577 67.2837 656.531 67.2837H652.694V43.7522H656.531Z" fill="#1D2332"/>
<path d="M1079.12 0.524414H1101.37L1107.51 33.7755C1108.53 39.4026 1109.55 51.4241 1109.81 56.2839C1110.83 44.5181 1112.11 37.8679 1113.14 31.985L1119.79 0.524414H1141.53V79.3038H1126.18V34.7986C1126.18 22.2655 1126.44 28.9157 1126.95 11.0113C1125.92 17.9173 1124.13 31.2177 1123.62 34.0312L1114.16 79.5596H1103.93L1094.72 33.2639C1093.95 29.1715 1093.44 24.0559 1091.39 10.7555C1091.65 16.1268 1091.91 27.6368 1091.91 32.7523V79.5596H1079.12V0.524414Z" fill="#1D2332"/>
<path d="M1020.02 0.524414H1034.86V35.3101C1034.86 37.6121 1034.6 43.2392 1033.32 48.3548H1033.58C1034.86 43.7508 1035.88 41.4488 1036.9 39.1468L1052 4.1053V0.780187H1066.83V79.5596H1052V42.2161C1052 37.8679 1052 37.3563 1053.02 29.1715H1052.76C1050.46 36.3332 1050.21 37.3563 1049.69 38.891L1034.86 74.1883V79.5596H1020.02V0.524414Z" fill="#1D2332"/>
<path d="M718.977 0.524536H761.947V14.5923H734.579V32.2409H745.066C749.67 32.2409 756.576 33.0082 761.436 37.868C765.272 41.9604 767.063 48.8664 767.063 55.5166C767.063 62.9342 764.761 70.096 760.412 74.1884C755.041 79.3039 748.647 79.5597 742.764 79.5597H718.977V0.524536ZM741.485 66.2593C743.531 66.2593 747.112 66.2593 749.158 63.4457C750.949 61.1437 751.204 57.8186 751.204 55.5166C751.204 53.2146 751.204 50.4011 748.902 47.8433C746.601 45.5413 744.043 45.5413 741.741 45.5413H734.835V66.2593H741.485Z" fill="#4E75D8"/>
<path d="M776.77 66.2606C778.56 66.5164 780.351 66.7721 782.141 66.7721C784.187 66.7721 787.001 66.5164 789.047 65.2375C791.093 63.7028 791.861 61.4008 792.372 60.3777L792.628 59.3546L771.398 0.781616H789.559L797.999 30.196C798.511 32.2422 799.534 37.102 799.79 38.8924H800.045C800.557 34.0327 801.324 31.9864 801.836 30.196L809.253 0.781616H822.81L806.184 60.8893C804.649 66.7721 803.115 72.655 798.767 76.7475C795.186 80.0726 790.582 81.0957 785.21 81.0957C782.397 81.0957 779.328 80.5841 777.026 79.8168V66.2606H776.77Z" fill="#1D2332"/>
<path d="M814.648 65.7476H820.276C823.601 60.3763 825.647 55.5165 827.182 49.8894C828.972 43.2392 829.739 36.3332 830.251 29.9388C830.507 26.6137 830.762 20.475 831.786 0.524414H870.152V65.2361H877.825V96.6967H864.013V79.5596H828.716V96.9525H814.904V65.7476H814.648ZM853.782 65.4919V14.3364H844.574C844.319 22.0097 843.551 34.7986 842.272 43.495C840.994 51.6799 839.203 58.0743 835.878 65.2361H853.782V65.4919Z" fill="#1D2332"/>
<path d="M882.926 66.2606C884.716 66.5164 886.507 66.7721 888.297 66.7721C890.344 66.7721 893.157 66.5164 895.203 65.2375C897.25 63.7028 898.017 61.4008 898.528 60.3777L898.784 59.3546L877.555 0.781616H895.715L904.156 30.196C904.667 32.2422 905.69 37.102 905.946 38.8924H906.202C906.713 34.0327 907.481 31.9864 907.992 30.196L915.41 0.781616H928.966L912.34 60.8893C910.806 66.7721 909.271 72.655 904.923 76.7475C901.342 80.0726 896.738 81.0957 891.367 81.0957C888.553 81.0957 885.484 80.5841 883.182 79.8168V66.2606H882.926Z" fill="#1D2332"/>
<path d="M933.828 0.524414H949.431V65.4919H960.94V0.524414H976.543V65.4919H988.309V0.524414H1003.91V65.4919H1011.84V96.6967H997.772V79.5596H933.828V0.524414Z" fill="#1D2332"/>
<path d="M0.671875 120.156H6.21884C8.47871 120.156 10.5331 120.563 11.9712 121.984C12.9985 123.203 13.6148 125.031 13.6148 126.656C13.6148 128.078 13.4094 129.5 12.793 130.516C12.3821 131.328 11.5604 132.141 10.3277 132.547C11.5604 132.954 12.793 133.766 13.4094 134.782C14.2311 136.001 14.642 137.626 14.642 139.251C14.642 142.094 13.8202 143.923 12.793 145.141C11.1495 146.767 8.8896 146.767 6.83517 146.767H0.671875V120.156ZM6.21884 131.532C7.24606 131.532 8.68416 131.532 9.50593 130.516C10.3277 129.703 10.5331 128.078 10.5331 127.469C10.5331 125.031 9.71138 124.016 9.09505 123.609C8.27327 123 7.04061 122.797 6.0134 122.797H3.75352V131.532H6.21884ZM6.62973 144.126C7.4515 144.126 9.09505 144.126 10.1223 143.11C10.944 142.298 11.3549 140.266 11.3549 139.048C11.3549 137.626 10.944 135.797 9.91682 134.985C8.8896 134.172 7.4515 134.172 6.62973 134.172H3.75352V144.126H6.62973Z" fill="#535762"/>
<path d="M26.359 133.563C26.359 132.344 25.7426 130.719 25.1263 129.907C24.7154 129.5 23.8936 128.891 23.0719 128.891C22.0446 128.891 21.2229 129.297 20.812 130.11C20.4011 130.719 19.7848 132.344 19.7848 136.407C19.7848 140.47 19.9902 142.704 20.812 143.72C21.2229 144.329 22.0446 144.938 23.0719 144.938C23.8936 144.938 24.9209 144.532 25.5372 143.72C25.9481 142.907 26.359 141.688 26.5644 140.47L29.2352 140.876C29.0297 142.704 28.2079 144.938 27.1807 145.954C26.5644 146.564 25.3317 147.376 23.2773 147.376C21.4283 147.376 19.7848 146.564 18.7576 145.548C17.7303 144.532 16.7031 142.501 16.7031 137.423C16.7031 131.735 18.1412 129.5 19.1684 128.282C20.6065 126.86 22.0446 126.657 23.2773 126.657C24.51 126.657 25.7426 126.86 26.9753 127.875C28.2079 128.891 28.8243 130.922 29.0297 132.954L26.359 133.563Z" fill="#535762"/>
<path d="M34.1708 137.219C34.1708 138.845 34.3762 141.892 35.198 143.313C35.8143 144.329 37.047 144.735 38.0742 144.735C38.896 144.735 39.7177 144.329 40.3341 143.72C40.9504 143.11 41.3613 141.485 41.5667 140.673L44.032 141.282C43.8266 141.892 43.6211 143.11 43.0048 144.126C41.7722 146.36 39.9232 146.97 38.0742 146.97C36.0198 146.97 34.3762 146.36 33.1435 144.532C31.7054 142.298 31.5 139.048 31.5 137.016C31.5 133.969 31.9109 130.719 33.5544 128.688C34.9925 126.657 36.6361 126.453 37.8687 126.453C39.3068 126.453 40.9504 126.657 42.3885 128.485C43.6211 130.11 44.4429 132.547 44.4429 137.219H34.1708ZM41.1558 134.985C40.9504 132.344 40.7449 131.126 40.1286 130.313C39.7177 129.5 38.6905 128.891 37.6633 128.891C36.8415 128.891 35.8143 129.297 35.198 130.313C34.5816 131.329 34.3762 132.751 34.1708 134.782H41.1558V134.985Z" fill="#535762"/>
<path d="M47.3226 127.063H49.9934V130.313C50.1988 129.5 50.6097 128.485 51.226 127.875C52.2533 126.86 53.2805 126.657 54.1023 126.657C55.9512 126.657 57.1839 127.469 58.2111 128.891C59.6492 130.922 60.0601 134.376 60.0601 136.61C60.0601 138.845 59.6492 142.095 58.622 144.126C57.3893 146.36 55.7458 147.173 53.8968 147.173C52.2533 147.173 51.4315 146.564 51.226 146.36C50.8152 145.954 50.4043 145.548 49.9934 144.938V153.673H47.1172V127.063H47.3226ZM50.1988 138.845C50.1988 140.47 50.1988 142.095 51.226 143.313C51.8424 144.329 52.6642 144.532 53.6914 144.532C54.924 144.532 55.9512 143.72 56.3621 142.907C56.9785 141.891 57.1839 138.438 57.1839 136.61C57.1839 135.188 57.1839 131.938 56.1567 130.313C55.5404 129.297 54.924 128.891 53.8968 128.891C52.6642 128.891 51.8424 129.704 51.4315 130.11C50.6097 131.126 50.1988 133.36 50.1988 135.188V138.845Z" fill="#535762"/>
<path d="M73.7979 128.485C75.6469 130.516 76.0578 134.376 76.0578 137.016C76.0578 140.063 75.4415 143.72 73.7979 145.548C72.7707 146.564 71.3326 147.376 69.689 147.376C68.0455 147.376 66.402 146.564 65.5802 145.548C63.9366 143.72 63.3203 140.266 63.3203 137.016C63.3203 134.579 63.7312 130.719 65.5802 128.485C66.6074 127.266 68.0455 126.657 69.689 126.657C71.3326 126.657 72.7707 127.266 73.7979 128.485ZM66.6074 142.501C67.2237 144.532 68.6618 144.938 69.4836 144.938C70.3054 144.938 71.7435 144.532 72.3598 142.501C72.7707 141.079 72.9761 138.641 72.9761 137.016C72.9761 135.391 72.7707 132.751 72.3598 131.532C71.7435 129.297 70.0999 129.094 69.4836 129.094C68.8673 129.094 67.4292 129.094 66.6074 131.329C66.1965 132.547 65.9911 135.188 65.9911 136.813C65.9911 138.438 66.1965 141.079 66.6074 142.501Z" fill="#535762"/>
<path d="M88.5933 133.563C88.5933 132.344 87.977 130.719 87.3607 129.907C86.9498 129.5 86.128 128.891 85.3062 128.891C84.279 128.891 83.4572 129.297 83.0464 130.11C82.6355 130.719 82.0191 132.344 82.0191 136.407C82.0191 140.47 82.2246 142.704 83.0464 143.72C83.4572 144.329 84.279 144.938 85.3062 144.938C86.128 144.938 87.1552 144.532 87.7716 143.72C88.1824 142.907 88.5933 141.688 88.7988 140.47L91.4695 140.876C91.2641 142.704 90.4423 144.938 89.4151 145.954C88.7988 146.564 87.5661 147.376 85.5117 147.376C83.6627 147.376 82.0191 146.564 80.9919 145.548C79.9647 144.532 78.9375 142.501 78.9375 137.423C78.9375 131.735 80.3756 129.5 81.4028 128.282C82.8409 126.86 84.279 126.657 85.5117 126.657C86.7443 126.657 87.977 126.86 89.2097 127.875C90.4423 128.891 91.0586 130.922 91.2641 132.954L88.5933 133.563Z" fill="#535762"/>
<path d="M102.992 133.563C102.992 132.344 102.375 130.719 101.759 129.907C101.348 129.5 100.526 128.891 99.7047 128.891C98.6775 128.891 97.8557 129.297 97.4448 130.11C97.0339 130.719 96.4176 132.344 96.4176 136.407C96.4176 140.47 96.623 142.704 97.4448 143.72C97.8557 144.329 98.6775 144.938 99.7047 144.938C100.526 144.938 101.554 144.532 102.17 143.72C102.581 142.907 102.992 141.688 103.197 140.47L105.868 140.876C105.663 142.704 104.841 144.938 103.814 145.954C103.197 146.564 101.965 147.376 99.9101 147.376C98.0611 147.376 96.4176 146.564 95.3904 145.548C94.3632 144.532 93.3359 142.501 93.3359 137.423C93.3359 131.735 94.774 129.5 95.8013 128.282C97.2394 126.86 98.6775 126.657 99.9101 126.657C101.143 126.657 102.375 126.86 103.608 127.875C104.841 128.891 105.457 130.922 105.663 132.954L102.992 133.563Z" fill="#535762"/>
<path d="M108.953 127.063H111.624V139.454V141.485L112.446 139.454L117.582 128.282V127.063H120.458V146.767H117.582V134.579L117.787 132.344L116.965 134.579L111.624 145.548V146.767H108.953V127.063Z" fill="#535762"/>
<path d="M125.37 127.063H128.246V139.454L128.04 141.689L128.862 139.658L133.998 128.282V127.063H136.874V146.767H133.998V134.579L134.204 132.345L133.382 134.579L128.04 145.548V146.767H125.164V127.063H125.37ZM135.642 120.563C135.642 121.782 135.231 122.798 134.409 123.61C133.382 124.626 132.149 124.829 131.122 124.829C130.095 124.829 128.657 124.626 127.629 123.61C126.808 122.798 126.397 121.579 126.397 120.563H128.862C128.862 121.376 129.067 121.985 129.273 122.391C129.684 123.001 130.3 123.204 130.916 123.204C131.533 123.204 132.149 123.001 132.56 122.391C132.765 121.985 133.176 121.376 132.971 120.563H135.642Z" fill="#535762"/>
<path d="M150.429 133.563C150.429 132.344 149.813 130.719 149.197 129.907C148.786 129.5 147.964 128.891 147.142 128.891C146.115 128.891 145.293 129.297 144.882 130.11C144.471 130.719 143.855 132.344 143.855 136.407C143.855 140.47 144.061 142.704 144.882 143.72C145.293 144.329 146.115 144.938 147.142 144.938C147.964 144.938 148.991 144.532 149.608 143.72C150.018 142.907 150.429 141.688 150.635 140.47L153.305 140.876C153.1 142.704 152.278 144.938 151.251 145.954C150.635 146.564 149.402 147.376 147.348 147.376C145.499 147.376 143.855 146.564 142.828 145.548C141.801 144.532 140.773 142.501 140.773 137.423C140.773 131.735 142.212 129.5 143.239 128.282C144.677 126.86 146.115 126.657 147.348 126.657C148.58 126.657 149.813 126.86 151.046 127.875C152.278 128.891 152.895 130.922 153.1 132.954L150.429 133.563Z" fill="#535762"/>
<path d="M156.18 146.767V127.063H159.056V135.188H160.905C161.727 135.188 162.548 134.985 162.959 133.563C163.165 132.954 163.165 132.141 163.37 131.126C163.37 130.313 163.576 129.5 163.781 128.688C164.397 126.86 165.63 126.657 166.246 126.657C166.452 126.657 167.068 126.86 167.274 126.86V129.094C166.863 129.094 166.452 129.297 166.452 129.297C166.041 129.907 166.041 130.313 165.836 131.329C165.63 133.157 165.63 133.766 165.425 134.376C165.014 135.594 164.397 136.001 163.37 136.407C165.014 136.813 165.425 138.235 165.63 139.251C166.041 140.876 166.041 142.907 166.246 143.923C166.452 144.126 166.657 144.938 167.685 144.532V146.767C167.274 146.97 167.068 146.97 166.452 146.97C164.397 146.97 163.987 145.548 163.576 144.735C163.37 144.126 163.165 142.907 162.959 140.673C162.754 139.86 162.754 138.845 162.343 138.235C161.932 137.829 161.521 137.626 160.905 137.626H159.056V146.767H156.18Z" fill="#535762"/>
<path d="M170.359 127.063H173.236V139.454L173.03 141.485L173.852 139.454L179.193 128.282V127.063H182.07V146.767H179.193V134.579L179.399 132.344L178.372 134.579L173.236 145.548V146.767H170.359V127.063Z" fill="#535762"/>
<path d="M186.812 127.063H189.689V139.454L189.483 141.689L190.305 139.658L195.647 128.282V127.063H198.523V146.767H195.647V134.579L195.852 132.345L195.03 134.579L189.689 145.548V146.767H186.812V127.063ZM197.085 120.563C197.085 121.782 196.674 122.798 195.852 123.61C194.825 124.626 193.592 124.829 192.565 124.829C191.538 124.829 190.1 124.626 189.072 123.61C188.251 122.798 187.84 121.579 187.84 120.563H190.305C190.305 121.376 190.51 121.985 190.716 122.391C191.127 123.001 191.743 123.204 192.359 123.204C192.976 123.204 193.592 123.001 194.003 122.391C194.208 121.985 194.619 121.376 194.414 120.563H197.085Z" fill="#535762"/>
<path d="M221.117 133.563C221.117 132.344 220.5 130.719 219.884 129.907C219.473 129.5 218.651 128.891 217.83 128.891C216.802 128.891 215.981 129.297 215.57 130.11C215.159 130.719 214.543 132.344 214.543 136.407C214.543 140.47 214.748 142.704 215.57 143.72C215.981 144.329 216.802 144.938 217.83 144.938C218.651 144.938 219.679 144.532 220.295 143.72C220.706 142.907 221.117 141.688 221.322 140.47L223.993 140.876C223.788 142.704 222.966 144.938 221.939 145.954C221.322 146.564 220.09 147.376 218.035 147.376C216.186 147.376 214.543 146.564 213.515 145.548C212.488 144.532 211.461 142.501 211.461 137.423C211.461 131.735 212.899 129.5 213.926 128.282C215.364 126.86 216.802 126.657 218.035 126.657C219.268 126.657 220.5 126.86 221.733 127.875C222.966 128.891 223.582 130.922 223.788 132.954L221.117 133.563Z" fill="#535762"/>
<path d="M229.116 129.297H224.391V127.063H231.992V134.985H235.074C236.512 134.985 238.566 135.188 239.799 136.61C241.032 137.829 241.237 139.657 241.237 140.876C241.237 142.095 241.032 143.517 240.415 144.532C240.004 145.142 238.566 146.767 235.074 146.767H229.321V129.297H229.116ZM234.046 144.532C235.074 144.532 236.512 144.532 237.334 143.517C237.95 142.907 238.155 141.688 238.155 140.876C238.155 139.454 237.744 138.438 237.128 138.032C236.306 137.423 234.868 137.423 234.252 137.423H231.787V144.532H234.046Z" fill="#535762"/>
<path d="M246.79 137.219C246.79 138.845 246.996 141.892 247.817 143.313C248.434 144.329 249.666 144.735 250.694 144.735C251.515 144.735 252.337 144.329 252.748 143.72C253.364 143.11 253.775 141.485 253.981 140.673L256.446 141.282C256.241 141.892 256.035 143.11 255.419 144.126C254.186 146.36 252.337 146.97 250.488 146.97C248.434 146.97 246.79 146.36 245.558 144.532C244.119 142.298 243.914 139.048 243.914 137.016C243.914 133.969 244.325 130.719 245.968 128.688C247.407 126.657 249.05 126.453 250.283 126.453C251.721 126.453 253.364 126.657 254.803 128.485C256.035 130.11 256.857 132.547 256.857 137.219H246.79ZM253.775 134.985C253.775 132.344 253.364 131.126 252.954 130.313C252.543 129.5 251.515 128.891 250.488 128.891C249.666 128.891 248.639 129.297 248.023 130.313C247.407 131.329 247.201 132.751 246.996 134.782H253.775V134.985Z" fill="#535762"/>
<path d="M262.003 140.673C262.003 141.485 262.208 142.907 262.619 143.517C263.235 144.735 264.468 144.735 265.29 144.735C266.112 144.735 267.139 144.532 267.755 143.72C268.371 142.907 268.371 141.891 268.371 141.079C268.371 140.266 268.166 139.048 267.344 138.235C266.728 137.829 265.701 137.219 264.468 137.219H263.235V135.188H264.468C265.701 135.188 266.728 134.782 267.139 134.376C267.961 133.766 267.961 132.751 267.961 131.938C267.961 131.329 267.961 130.516 267.344 129.907C266.933 129.5 266.112 129.094 265.084 129.094C263.646 129.094 262.824 129.907 262.414 130.313C262.003 130.922 261.797 131.938 261.592 132.751L259.126 132.344C259.332 130.719 260.154 129.094 261.181 128.079C262.414 127.063 264.057 126.86 265.084 126.86C266.317 126.86 267.961 127.063 269.193 128.282C270.015 129.094 270.426 130.313 270.426 131.938C270.426 132.954 270.22 133.969 269.604 134.579C268.988 135.391 268.166 136.001 266.933 136.407C267.961 136.61 268.782 137.016 269.399 137.626C270.22 138.438 270.631 139.657 270.631 141.485C270.631 143.313 270.015 144.735 269.193 145.548C267.755 146.97 266.112 147.376 264.468 147.376C262.824 147.376 260.975 147.173 259.537 145.345C258.716 144.126 258.305 142.298 258.305 141.079L262.003 140.673Z" fill="#535762"/>
<path d="M285.82 146.767H275.137V151.642H272.672V144.532H274.315C275.343 142.704 275.959 140.673 276.37 138.438C276.781 135.798 277.192 130.313 277.192 127.063H286.437V144.532H288.286V151.642H285.82V146.767ZM283.971 144.532V129.5H279.862C279.657 131.735 279.452 135.594 279.246 138.032C278.835 140.266 278.424 142.298 277.603 144.532H283.971Z" fill="#535762"/>
<path d="M300.424 127.063H303.095V130.313C303.3 129.5 303.711 128.485 304.328 127.875C305.355 126.86 306.382 126.657 307.204 126.657C309.053 126.657 310.285 127.469 311.313 128.891C312.751 130.922 313.162 134.376 313.162 136.61C313.162 138.845 312.751 142.095 311.724 144.126C310.491 146.36 308.847 147.173 306.998 147.173C305.355 147.173 304.533 146.564 304.328 146.36C303.917 145.954 303.506 145.548 303.095 144.938V153.673H300.219V127.063H300.424ZM303.3 138.845C303.3 140.47 303.3 142.095 304.328 143.313C304.944 144.329 305.766 144.532 306.793 144.532C308.026 144.532 309.053 143.72 309.464 142.907C310.08 141.891 310.285 138.438 310.285 136.61C310.285 135.188 310.285 131.938 309.258 130.313C308.642 129.297 308.026 128.891 306.998 128.891C305.766 128.891 304.944 129.704 304.533 130.11C303.711 131.126 303.3 133.36 303.3 135.188V138.845Z" fill="#535762"/>
<path d="M317.464 127.063L320.752 140.673L324.244 127.063H326.915L321.162 148.595C320.752 149.814 320.135 151.642 319.313 152.657C318.286 153.673 317.259 153.876 316.437 153.876C315.821 153.876 315.205 153.673 314.794 153.673V151.236C315.205 151.439 315.615 151.642 316.232 151.642C317.259 151.642 317.464 151.236 317.875 150.423C318.081 149.814 318.492 148.595 318.492 148.189L319.108 145.751L314.383 127.469H317.464V127.063Z" fill="#535762"/>
<path d="M329.18 146.767V127.063H332.056V135.188H333.905C334.727 135.188 335.548 134.985 335.959 133.563C336.165 132.954 336.165 132.141 336.37 131.126C336.37 130.313 336.576 129.5 336.781 128.688C337.397 126.86 338.63 126.657 339.246 126.657C339.452 126.657 340.068 126.86 340.274 126.86V129.094C339.863 129.094 339.452 129.297 339.452 129.297C339.246 129.5 339.041 130.11 339.041 131.126C338.836 132.954 338.836 133.563 338.63 134.172C338.219 135.391 337.603 135.798 336.576 136.204C338.219 136.61 338.63 138.032 338.836 139.048C339.246 140.673 339.246 142.704 339.452 143.72C339.657 143.923 339.863 144.735 340.89 144.329V146.564C340.479 146.767 340.274 146.767 339.657 146.767C337.603 146.767 337.192 145.345 336.781 144.532C336.576 143.923 336.37 142.704 336.165 140.47C335.959 139.657 335.959 138.641 335.548 138.032C335.138 137.626 334.727 137.423 334.11 137.423H332.261V146.564H329.18V146.767Z" fill="#535762"/>
<path d="M353.22 128.485C355.069 130.516 355.48 134.376 355.48 137.016C355.48 140.063 354.863 143.72 353.22 145.548C352.193 146.564 350.754 147.376 349.111 147.376C347.467 147.376 345.824 146.564 345.002 145.548C343.359 143.72 342.742 140.266 342.742 137.016C342.742 134.579 343.153 130.719 345.002 128.485C346.029 127.266 347.467 126.657 349.111 126.657C350.96 126.657 352.398 127.266 353.22 128.485ZM346.235 142.501C346.851 144.532 348.289 144.938 349.111 144.938C349.933 144.938 351.371 144.532 351.987 142.501C352.398 141.079 352.603 138.641 352.603 137.016C352.603 135.391 352.398 132.751 351.987 131.532C351.371 129.297 349.727 129.094 349.111 129.094C348.7 129.094 347.056 129.297 346.235 131.532C345.824 132.751 345.618 135.391 345.618 137.016C345.618 138.438 345.824 141.079 346.235 142.501Z" fill="#535762"/>
<path d="M359.588 127.063H366.368C368.217 127.063 369.244 127.672 369.655 128.282C370.477 129.094 370.888 130.516 370.888 131.938C370.888 132.751 370.682 133.766 370.271 134.579C369.655 135.594 369.039 136.204 368.217 136.407C369.45 136.813 370.066 137.626 370.477 138.032C371.093 138.845 371.298 140.266 371.298 141.282C371.298 142.907 370.888 144.329 369.86 145.345C369.244 145.954 368.217 146.767 366.368 146.767H359.383V127.063H359.588ZM364.724 135.188C365.957 135.188 366.573 134.782 366.984 134.376C367.601 133.766 367.806 132.751 367.806 131.938C367.806 130.922 367.601 130.313 366.984 129.704C366.368 129.297 365.752 129.094 364.93 129.094H362.259V135.188H364.724ZM364.724 144.532C365.341 144.532 366.368 144.532 367.19 143.923C367.806 143.313 368.217 142.298 368.217 141.079C368.217 140.063 367.806 138.845 367.19 138.235C366.573 137.626 365.341 137.423 364.724 137.423H362.054V144.532H364.724Z" fill="#535762"/>
<path d="M384.845 128.485C386.694 130.516 387.105 134.376 387.105 137.016C387.105 140.063 386.488 143.72 384.845 145.548C383.818 146.564 382.379 147.376 380.736 147.376C379.092 147.376 377.449 146.564 376.627 145.548C374.984 143.72 374.367 140.266 374.367 137.016C374.367 134.579 374.778 130.719 376.627 128.485C377.654 127.266 379.092 126.657 380.736 126.657C382.585 126.657 383.818 127.266 384.845 128.485ZM377.86 142.501C378.476 144.532 379.914 144.938 380.736 144.938C381.558 144.938 382.996 144.532 383.612 142.501C384.023 141.079 384.228 138.641 384.228 137.016C384.228 135.391 384.023 132.751 383.612 131.532C382.996 129.297 381.352 129.094 380.736 129.094C380.325 129.094 378.682 129.297 377.86 131.532C377.449 132.751 377.243 135.391 377.243 137.016C377.243 138.438 377.449 141.079 377.86 142.501Z" fill="#535762"/>
<path d="M400.883 146.767H390.2V151.642H387.734V144.532H389.378C390.405 142.704 391.021 140.673 391.432 138.438C391.843 135.798 392.254 130.313 392.254 127.063H401.499V144.532H403.348V151.642H400.883V146.767ZM398.828 144.532V129.5H394.719C394.514 131.735 394.309 135.594 394.103 138.032C393.692 140.266 393.281 142.298 392.46 144.532H398.828Z" fill="#535762"/>
<path d="M406.414 127.063H409.085V139.454V141.485L409.907 139.454L415.043 128.282V127.063H417.919V146.767H415.043V134.579L415.248 132.344L414.426 134.579L409.085 145.548V146.767H406.414V127.063Z" fill="#535762"/>
<path d="M424.514 129.297H419.789V127.063H432.116V129.297H427.39V146.767H424.514V129.297Z" fill="#535762"/>
<path d="M435.806 137.219C435.806 138.845 436.011 141.892 436.833 143.313C437.449 144.329 438.682 144.735 439.709 144.735C440.531 144.735 441.353 144.329 441.764 143.72C442.38 143.11 442.791 141.485 442.996 140.673L445.462 141.282C445.256 141.892 445.051 143.11 444.435 144.126C443.202 146.36 441.353 146.97 439.504 146.97C437.449 146.97 435.806 146.36 434.573 144.532C433.135 142.298 432.93 139.048 432.93 137.016C432.93 133.969 433.341 130.719 434.984 128.688C436.422 126.657 438.066 126.453 439.298 126.453C440.737 126.453 442.38 126.657 443.818 128.485C445.051 130.11 445.873 132.547 445.873 137.219H435.806ZM442.791 134.985C442.791 132.344 442.38 131.126 441.969 130.313C441.558 129.5 440.531 128.891 439.504 128.891C438.682 128.891 437.655 129.297 437.039 130.313C436.422 131.329 436.217 132.751 436.011 134.782H442.791V134.985Z" fill="#535762"/>
<path d="M446.901 144.532C448.133 144.532 448.955 143.923 449.366 142.907C449.777 142.095 450.188 140.266 450.393 133.766C450.393 131.938 450.599 128.079 450.599 127.063H459.844V146.767H456.967V129.5H452.859C452.859 132.954 452.859 134.172 452.653 135.391C452.653 137.423 452.448 138.641 452.242 140.673C452.037 142.298 451.831 143.72 450.804 145.142C449.366 146.767 447.517 146.767 446.695 146.564V144.532H446.901Z" fill="#535762"/>
<path d="M466.603 137.219C466.603 138.845 466.808 141.892 467.63 143.313C468.246 144.329 469.479 144.735 470.506 144.735C471.328 144.735 472.15 144.329 472.561 143.72C473.177 143.11 473.588 141.485 473.793 140.673L476.259 141.282C476.053 141.892 475.848 143.11 475.231 144.126C473.999 146.36 472.15 146.97 470.301 146.97C468.246 146.97 466.603 146.36 465.37 144.532C463.932 142.298 463.727 139.048 463.727 137.016C463.727 133.969 464.137 130.719 465.781 128.688C467.219 126.657 468.863 126.453 470.095 126.453C471.533 126.453 473.177 126.657 474.615 128.485C475.848 130.11 476.669 132.547 476.669 137.219H466.603ZM473.588 134.985C473.588 132.344 473.177 131.126 472.766 130.313C472.355 129.5 471.328 128.891 470.301 128.891C469.479 128.891 468.452 129.297 467.835 130.313C467.219 131.329 467.014 132.751 466.808 134.782H473.588V134.985Z" fill="#535762"/>
<path d="M479.773 127.063H482.65V139.454L482.444 141.689L483.266 139.658L488.608 128.282V127.063H491.484V146.767H488.608V134.579L488.813 132.345L487.991 134.579L482.65 145.548V146.767H479.773V127.063ZM490.046 120.563C490.046 121.782 489.635 122.798 488.813 123.61C487.786 124.626 486.553 124.829 485.526 124.829C484.499 124.829 483.061 124.626 482.033 123.61C481.212 122.798 480.801 121.579 480.801 120.563H483.266C483.266 121.376 483.471 121.985 483.677 122.391C484.088 123.001 484.704 123.204 485.32 123.204C485.937 123.204 486.553 123.001 486.964 122.391C487.169 121.985 487.58 121.376 487.375 120.563H490.046Z" fill="#535762"/>
<path d="M505.766 121.374H508.847V145.343H516.654V121.374H519.736V145.343H521.996V154.078H519.119V147.984H505.766V121.374Z" fill="#535762"/>
<path d="M526.522 138.437C526.522 140.062 526.728 143.109 527.55 144.531C528.166 145.547 529.399 145.953 530.426 145.953C531.248 145.953 532.069 145.547 532.686 144.938C533.302 144.328 533.713 142.703 533.918 141.891L536.384 142.5C536.178 143.109 535.973 144.328 535.356 145.344C534.124 147.578 532.275 148.188 530.426 148.188C528.371 148.188 526.728 147.578 525.495 145.75C524.057 143.516 523.852 140.266 523.852 138.234C523.852 135.187 524.262 131.937 525.906 129.906C527.344 127.875 528.988 127.671 530.22 127.671C531.658 127.671 533.302 127.875 534.74 129.703C535.973 131.328 536.794 133.765 536.794 138.437H526.522ZM533.507 136.203C533.507 133.562 533.097 132.343 532.686 131.531C532.275 130.718 531.248 130.109 530.22 130.109C529.399 130.109 528.371 130.515 527.755 131.531C527.139 132.547 526.933 133.968 526.728 136H533.507V136.203Z" fill="#535762"/>
<path d="M539.875 128.281H542.546V136.406H548.504V128.281H551.174V147.985H548.504V138.64H542.546V147.985H539.875V128.281Z" fill="#535762"/>
<path d="M557.741 130.515H553.016V128.281H565.342V130.515H560.617V147.985H557.741V130.515Z" fill="#535762"/>
<path d="M567.198 128.281H569.868V131.531C570.074 130.718 570.485 129.703 571.101 129.093C572.128 128.078 573.155 127.875 573.977 127.875C575.826 127.875 577.059 128.687 578.086 130.109C579.524 132.14 579.935 135.594 579.935 137.828C579.935 140.062 579.524 143.313 578.497 145.344C577.264 147.578 575.621 148.391 573.772 148.391C572.128 148.391 571.306 147.781 571.101 147.578C570.69 147.172 570.279 146.766 569.868 146.156V154.891H566.992V128.281H567.198ZM570.074 140.062C570.074 141.687 570.074 143.313 571.101 144.531C571.717 145.547 572.539 145.75 573.566 145.75C574.799 145.75 575.826 144.938 576.237 144.125C576.853 143.109 577.059 139.656 577.059 137.828C577.059 136.406 577.059 133.156 576.032 131.531C575.415 130.515 574.799 130.109 573.772 130.109C572.539 130.109 571.717 130.921 571.306 131.328C570.485 132.343 570.074 134.578 570.074 136.406V140.062Z" fill="#535762"/>
<path d="M593.485 129.5C595.334 131.531 595.745 135.39 595.745 138.031C595.745 141.078 595.129 144.734 593.485 146.563C592.458 147.578 591.02 148.391 589.377 148.391C587.733 148.391 586.089 147.578 585.268 146.563C583.624 144.734 583.008 141.281 583.008 138.031C583.008 135.594 583.419 131.734 585.268 129.5C586.295 128.281 587.733 127.671 589.377 127.671C591.226 127.671 592.458 128.484 593.485 129.5ZM586.5 143.516C587.117 145.547 588.555 145.953 589.377 145.953C590.198 145.953 591.636 145.547 592.253 143.516C592.664 142.094 592.869 139.656 592.869 138.031C592.869 136.406 592.664 133.765 592.253 132.547C591.636 130.312 589.993 130.109 589.377 130.109C588.76 130.109 587.117 130.312 586.5 132.547C586.089 133.765 585.884 136.406 585.884 138.031C585.884 139.656 586.089 142.094 586.5 143.516Z" fill="#535762"/>
<path d="M599.854 128.281H606.634C608.482 128.281 609.51 128.89 609.921 129.5C610.742 130.312 611.153 131.734 611.153 133.156C611.153 133.968 610.948 134.984 610.537 135.797C609.921 136.812 609.304 137.422 608.482 137.625C609.715 138.031 610.331 138.844 610.742 139.25C611.359 140.062 611.564 141.484 611.564 142.5C611.564 144.125 611.153 145.547 610.126 146.563C609.51 147.172 608.482 147.985 606.634 147.985H599.648V128.281H599.854ZM604.99 136.406C606.223 136.406 606.839 136 607.25 135.594C607.866 134.984 608.072 133.968 608.072 133.156C608.072 132.14 607.866 131.531 607.25 130.921C606.634 130.515 606.017 130.312 605.195 130.312H602.525V136.406H604.99ZM604.99 145.75C605.606 145.75 606.634 145.75 607.455 145.141C608.072 144.531 608.482 143.516 608.482 142.297C608.482 141.281 608.072 140.062 607.455 139.453C606.839 138.844 605.606 138.64 604.99 138.64H602.319V145.75H604.99Z" fill="#535762"/>
<path d="M624.508 128.281H627.384V145.547H633.136V128.281H636.013V145.547H637.862V152.453H635.396V147.985H624.508V128.281Z" fill="#535762"/>
<path d="M640.531 128.281H643.202V140.469V142.703L644.024 140.672L649.16 129.296V128.281H652.036V147.985H649.16V135.594L649.365 133.562L648.544 135.594L643.202 146.563V147.985H640.531V128.281Z" fill="#535762"/>
<path d="M666.613 121.374V127.874C669.284 127.874 671.132 129.296 672.16 130.311C674.214 132.749 674.625 135.999 674.625 138.233C674.625 141.077 674.009 143.921 672.571 145.749C671.749 146.765 669.9 148.593 666.613 148.593V154.89H663.942V148.593C660.655 148.593 658.806 146.765 657.984 145.749C656.546 143.921 655.93 141.077 655.93 138.233C655.93 137.015 655.93 132.952 658.395 130.311C659.422 129.296 661.066 127.874 663.942 127.874V121.374H666.613ZM663.942 130.108C661.271 130.311 660.244 131.936 659.833 132.952C659.422 133.561 659.011 134.983 659.011 138.03C659.011 141.687 659.628 143.312 660.039 143.718C661.066 145.749 662.915 146.156 663.942 146.156V130.108ZM666.407 145.952C667.64 145.952 669.283 145.546 670.311 143.515C670.516 143.109 671.338 141.484 671.338 137.827C671.338 134.78 670.927 133.358 670.516 132.749C670.105 131.936 669.078 130.311 666.407 129.905V145.952Z" fill="#535762"/>
<path d="M678.336 128.281H681.007V131.531C681.212 130.718 681.623 129.703 682.239 129.093C683.267 128.078 684.294 127.875 685.116 127.875C686.965 127.875 688.197 128.687 689.224 130.109C690.663 132.14 691.073 135.594 691.073 137.828C691.073 140.062 690.663 143.313 689.635 145.344C688.403 147.578 686.759 148.391 684.91 148.391C683.267 148.391 682.445 147.781 682.239 147.578C681.828 147.172 681.418 146.766 681.007 146.156V154.891H678.336V128.281ZM681.212 140.062C681.212 141.687 681.212 143.313 682.239 144.531C682.856 145.547 683.677 145.75 684.705 145.75C685.937 145.75 686.965 144.938 687.375 144.125C687.992 143.109 688.197 139.656 688.197 137.828C688.197 136.406 688.197 133.156 687.17 131.531C686.554 130.515 685.937 130.109 684.91 130.109C683.677 130.109 682.856 130.921 682.445 131.328C681.623 132.343 681.212 134.578 681.212 136.406V140.062Z" fill="#535762"/>
<path d="M704.634 129.5C706.483 131.531 706.894 135.39 706.894 138.031C706.894 141.078 706.277 144.734 704.634 146.563C703.607 147.578 702.169 148.391 700.525 148.391C698.881 148.391 697.238 147.578 696.416 146.563C694.773 144.734 694.156 141.281 694.156 138.031C694.156 135.594 694.567 131.734 696.416 129.5C697.443 128.281 698.881 127.671 700.525 127.671C702.169 127.671 703.607 128.484 704.634 129.5ZM697.649 143.516C698.265 145.547 699.703 145.953 700.525 145.953C701.347 145.953 702.785 145.547 703.401 143.516C703.812 142.094 704.018 139.656 704.018 138.031C704.018 136.406 703.812 133.765 703.401 132.547C702.785 130.312 701.141 130.109 700.525 130.109C700.114 130.109 698.471 130.312 697.649 132.547C697.238 133.765 697.032 136.406 697.032 138.031C697.032 139.656 697.238 142.094 697.649 143.516Z" fill="#535762"/>
<path d="M710.791 128.281H717.571C719.42 128.281 720.447 128.89 720.858 129.5C721.68 130.312 722.091 131.734 722.091 133.156C722.091 133.968 721.885 134.984 721.474 135.797C720.858 136.812 720.242 137.422 719.42 137.625C720.653 138.031 721.269 138.844 721.68 139.25C722.296 140.062 722.502 141.484 722.502 142.5C722.502 144.125 722.091 145.547 721.064 146.563C720.447 147.172 719.42 147.985 717.571 147.985H710.586V128.281H710.791ZM716.133 136.406C717.366 136.406 717.982 136 718.393 135.594C719.009 134.984 719.215 133.968 719.215 133.156C719.215 132.14 719.009 131.531 718.393 130.921C717.776 130.515 717.16 130.312 716.338 130.312H713.668V136.406H716.133ZM716.133 145.75C716.749 145.75 717.776 145.75 718.598 145.141C719.215 144.531 719.625 143.516 719.625 142.297C719.625 141.281 719.215 140.062 718.598 139.453C717.982 138.844 716.749 138.64 716.133 138.64H713.462V145.75H716.133Z" fill="#535762"/>
<path d="M736.274 129.5C738.123 131.531 738.534 135.39 738.534 138.031C738.534 141.078 737.918 144.734 736.274 146.563C735.247 147.578 733.809 148.391 732.166 148.391C730.522 148.391 728.879 147.578 728.057 146.563C726.413 144.734 725.797 141.281 725.797 138.031C725.797 135.594 726.208 131.734 728.057 129.5C729.084 128.281 730.522 127.671 732.166 127.671C733.809 127.671 735.247 128.484 736.274 129.5ZM729.289 143.516C729.906 145.547 731.344 145.953 732.166 145.953C732.987 145.953 734.425 145.547 735.042 143.516C735.453 142.094 735.658 139.656 735.658 138.031C735.658 136.406 735.453 133.765 735.042 132.547C734.425 130.312 732.782 130.109 732.166 130.109C731.755 130.109 730.111 130.312 729.289 132.547C728.879 133.765 728.673 136.406 728.673 138.031C728.673 139.656 728.879 142.094 729.289 143.516Z" fill="#535762"/>
<path d="M742.445 128.281H752.512V130.515H745.322V147.985H742.445V128.281Z" fill="#535762"/>
<path d="M763.603 129.5C765.452 131.531 765.862 135.39 765.862 138.031C765.862 141.078 765.246 144.734 763.603 146.563C762.575 147.578 761.137 148.391 759.494 148.391C757.85 148.391 756.207 147.578 755.385 146.563C753.741 144.734 753.125 141.281 753.125 138.031C753.125 135.594 753.536 131.734 755.385 129.5C756.412 128.281 757.85 127.671 759.494 127.671C761.137 127.671 762.575 128.484 763.603 129.5ZM756.618 143.516C757.234 145.547 758.672 145.953 759.494 145.953C760.316 145.953 761.754 145.547 762.37 143.516C762.781 142.094 762.986 139.656 762.986 138.031C762.986 136.406 762.781 133.765 762.37 132.547C761.754 130.312 760.11 130.109 759.494 130.109C759.083 130.109 757.439 130.312 756.618 132.547C756.207 133.765 756.001 136.406 756.001 138.031C756.001 139.656 756.207 142.094 756.618 143.516Z" fill="#535762"/>
<path d="M788.657 129.5C790.506 131.531 790.917 135.39 790.917 138.031C790.917 141.078 790.301 144.734 788.657 146.563C787.63 147.578 786.192 148.391 784.548 148.391C782.905 148.391 781.261 147.578 780.44 146.563C778.796 144.734 778.18 141.281 778.18 138.031C778.18 135.594 778.591 131.734 780.44 129.5C781.467 128.281 782.905 127.671 784.548 127.671C786.397 127.671 787.63 128.484 788.657 129.5ZM781.672 143.516C782.289 145.547 783.727 145.953 784.548 145.953C785.37 145.953 786.808 145.547 787.425 143.516C787.836 142.094 788.041 139.656 788.041 138.031C788.041 136.406 787.836 133.765 787.425 132.547C786.808 130.312 785.165 130.109 784.548 130.109C784.138 130.109 782.494 130.312 781.672 132.547C781.261 133.765 781.056 136.406 781.056 138.031C781.056 139.656 781.261 142.094 781.672 143.516Z" fill="#535762"/>
<path d="M796.671 130.718C797.698 129.296 799.136 128.28 800.985 128.28C803.245 128.28 804.683 129.499 805.71 131.327C806.327 132.749 806.943 134.78 806.943 137.827C806.943 143.109 805.299 145.546 805.094 145.953C803.861 147.781 801.807 148.39 800.369 148.39C798.725 148.39 797.287 147.578 796.465 146.765C794.205 144.531 794 140.265 794 137.015C794 134.984 794.205 132.14 794.616 129.093C795.027 126.452 795.644 124.014 798.109 122.592C799.342 121.78 800.78 121.577 801.807 121.171C804.888 120.561 804.272 120.764 806.532 120.155V122.592C805.505 122.796 804.683 122.999 803.861 123.202C802.218 123.608 801.191 123.811 800.163 124.218C799.342 124.624 798.52 125.03 797.903 125.843C797.082 127.061 796.671 129.296 796.671 130.718ZM803.45 143.515C803.861 142.296 804.067 139.859 804.067 138.234C804.067 136.609 803.861 133.968 803.45 132.749C802.834 131.124 801.601 130.718 800.78 130.718C800.163 130.718 798.52 130.921 797.698 133.358C797.287 134.577 797.287 136.609 797.287 138.031C797.287 139.656 797.493 142.499 797.903 143.515C798.52 145.546 799.958 145.953 800.78 145.953C801.191 145.953 802.629 145.546 803.45 143.515Z" fill="#535762"/>
<path d="M810.862 128.281H813.532V131.531C813.738 130.718 814.149 129.703 814.765 129.093C815.792 128.078 816.82 127.875 817.641 127.875C819.49 127.875 820.723 128.687 821.75 130.109C823.188 132.14 823.599 135.594 823.599 137.828C823.599 140.062 823.188 143.313 822.161 145.344C820.928 147.578 819.285 148.391 817.436 148.391C815.792 148.391 814.971 147.781 814.765 147.578C814.354 147.172 813.943 146.766 813.532 146.156V154.891H810.656V128.281H810.862ZM813.738 140.062C813.738 141.687 813.738 143.313 814.765 144.531C815.381 145.547 816.203 145.75 817.23 145.75C818.463 145.75 819.49 144.938 819.901 144.125C820.518 143.109 820.723 139.656 820.723 137.828C820.723 136.406 820.723 133.156 819.696 131.531C819.079 130.515 818.463 130.109 817.436 130.109C816.203 130.109 815.381 130.921 814.971 131.328C814.149 132.343 813.738 134.578 813.738 136.406V140.062Z" fill="#535762"/>
<path d="M836.522 147.985C836.111 146.766 836.111 145.75 836.111 145.141C835.906 145.953 835.29 146.969 834.673 147.375C833.646 148.188 832.619 148.391 831.592 148.391C829.537 148.391 828.304 147.375 827.688 146.969C826.866 146.156 826.25 144.734 826.25 142.703C826.25 138.844 828.304 137.219 829.743 136.609C831.592 135.797 834.057 135.594 835.7 135.797C835.7 133.359 835.7 131.937 835.084 131.125C834.673 130.718 834.057 130.109 832.824 130.109C832.002 130.109 830.975 130.312 830.153 131.531C829.743 132.14 829.537 133.359 829.537 133.765L826.866 133.156C827.072 131.734 827.894 130.312 828.715 129.5C830.153 128.078 831.797 127.875 833.235 127.875C834.057 127.875 835.495 128.078 836.728 128.687C838.782 130.109 838.782 132.343 838.782 135.39V143.313C838.782 144.531 838.782 146.156 838.987 147.985H836.522ZM830.359 139.25C829.743 140.062 829.332 141.484 829.332 142.5C829.332 143.313 829.537 144.531 830.153 145.141C830.564 145.547 831.386 145.953 832.002 145.953C832.824 145.953 834.057 145.547 834.879 144.125C835.7 142.5 835.906 140.469 835.906 137.828C833.646 137.828 831.592 138.031 830.359 139.25Z" fill="#535762"/>
<path d="M845.151 141.891C845.151 142.703 845.357 144.125 845.767 144.734C846.384 145.953 847.616 145.953 848.438 145.953C849.26 145.953 850.287 145.75 850.904 144.938C851.52 144.125 851.52 143.109 851.52 142.297C851.52 141.484 851.314 140.266 850.493 139.453C849.876 139.047 848.849 138.437 847.616 138.437H846.384V136H847.616C848.849 136 849.876 135.594 850.287 135.187C851.109 134.578 851.109 133.562 851.109 132.75C851.109 132.14 851.109 131.328 850.493 130.718C850.082 130.312 849.26 129.906 848.233 129.906C846.795 129.906 845.973 130.718 845.562 131.125C845.151 131.734 844.946 132.75 844.74 133.562L842.275 133.156C842.48 131.531 843.302 129.906 844.329 128.89C845.562 127.875 847.206 127.671 848.233 127.671C849.465 127.671 851.109 127.875 852.342 129.093C853.163 129.906 853.574 131.125 853.574 132.75C853.574 133.765 853.369 134.781 852.753 135.39C852.136 136.203 851.314 136.812 850.082 137.219C851.109 137.422 851.931 137.828 852.547 138.437C853.369 139.25 853.78 140.469 853.78 142.297C853.78 144.125 853.163 145.547 852.342 146.36C850.904 147.781 849.26 148.188 847.616 148.188C845.973 148.188 844.124 147.985 842.686 146.156C841.864 144.938 841.453 143.109 841.453 141.891H845.151Z" fill="#535762"/>
<path d="M868.36 129.5C870.209 131.531 870.62 135.39 870.62 138.031C870.62 141.078 870.004 144.734 868.36 146.563C867.333 147.578 865.895 148.391 864.252 148.391C862.608 148.391 860.964 147.578 860.143 146.563C858.499 144.734 857.883 141.281 857.883 138.031C857.883 135.594 858.294 131.734 860.143 129.5C861.17 128.281 862.608 127.671 864.252 127.671C865.895 127.671 867.333 128.484 868.36 129.5ZM861.375 143.516C861.992 145.547 863.43 145.953 864.252 145.953C865.073 145.953 866.511 145.547 867.128 143.516C867.539 142.094 867.744 139.656 867.744 138.031C867.744 136.406 867.539 133.765 867.128 132.547C866.511 130.312 864.868 130.109 864.252 130.109C863.841 130.109 862.197 130.312 861.375 132.547C860.964 133.765 860.759 136.406 860.759 138.031C860.759 139.656 860.759 142.094 861.375 143.516Z" fill="#535762"/>
<path d="M874.541 128.281H881.321C883.17 128.281 884.197 128.89 884.608 129.5C885.43 130.312 885.841 131.734 885.841 133.156C885.841 133.968 885.635 134.984 885.224 135.797C884.608 136.812 883.992 137.422 883.17 137.625C884.403 138.031 885.019 138.844 885.43 139.25C886.046 140.062 886.252 141.484 886.252 142.5C886.252 144.125 885.841 145.547 884.814 146.563C884.197 147.172 883.17 147.985 881.321 147.985H874.336V128.281H874.541ZM879.883 136.406C881.116 136.406 881.732 136 882.143 135.594C882.759 134.984 882.965 133.968 882.965 133.156C882.965 132.14 882.759 131.531 882.143 130.921C881.526 130.515 880.91 130.312 880.088 130.312H877.418V136.406H879.883ZM879.883 145.75C880.499 145.75 881.526 145.75 882.348 145.141C882.965 144.531 883.375 143.516 883.375 142.297C883.375 141.281 882.965 140.062 882.348 139.453C881.732 138.844 880.499 138.64 879.883 138.64H877.212V145.75H879.883Z" fill="#535762"/>
<path d="M899.382 147.985C898.971 146.766 898.971 145.75 898.971 145.141C898.765 145.953 898.149 146.969 897.533 147.375C896.505 148.188 895.478 148.391 894.451 148.391C892.396 148.391 891.164 147.375 890.547 146.969C889.726 146.156 889.109 144.734 889.109 142.703C889.109 138.844 891.164 137.219 892.602 136.609C894.451 135.797 896.916 135.594 898.56 135.797C898.56 133.359 898.56 131.937 897.943 131.125C897.533 130.718 896.916 130.109 895.684 130.109C894.862 130.109 893.835 130.312 893.013 131.531C892.602 132.14 892.396 133.359 892.396 133.765L889.726 133.156C889.931 131.734 890.753 130.312 891.575 129.5C893.013 128.078 894.656 127.875 896.094 127.875C896.916 127.875 898.354 128.078 899.587 128.687C901.641 130.109 901.641 132.343 901.641 135.39V143.313C901.641 144.531 901.641 146.156 901.847 147.985H899.382ZM893.218 139.25C892.602 140.062 892.191 141.484 892.191 142.5C892.191 143.313 892.396 144.531 893.013 145.141C893.424 145.547 894.245 145.953 894.862 145.953C895.684 145.953 896.916 145.547 897.738 144.125C898.56 142.5 898.765 140.469 898.765 137.828C896.3 137.828 894.245 138.031 893.218 139.25Z" fill="#535762"/>
<path d="M906.172 128.281H908.843V136.406H914.801V128.281H917.471V147.985H914.801V138.64H908.843V147.985H906.172V128.281Z" fill="#535762"/>
<path d="M922.406 128.281H925.282V140.469L925.077 142.703L925.899 140.672L931.24 129.296V128.281H934.117V147.985H931.24V135.594L931.446 133.562L930.419 135.594L925.282 146.563V147.985H922.406V128.281Z" fill="#535762"/>
<path d="M947.067 139.25H943.985L940.287 147.985H937L941.109 139.047C940.287 138.844 939.465 138.234 939.054 137.625C937.822 136.406 937.822 134.781 937.822 133.562C937.822 132.14 938.027 130.312 939.876 129.093C941.314 128.078 942.752 128.078 944.191 128.078H950.148V147.781H947.272V139.25H947.067ZM947.067 130.515H943.985C943.163 130.515 941.931 130.515 941.314 131.328C940.903 131.734 940.493 132.547 940.493 133.765C940.493 134.578 940.698 135.39 941.109 136C941.931 137.015 942.958 137.015 943.985 137.015H947.067V130.515Z" fill="#535762"/>
<path d="M974.383 147.985H963.7V152.86H961.234V145.75H962.878C963.905 143.922 964.521 141.891 964.932 139.656C965.343 137.015 965.754 131.531 965.754 128.281H974.999V145.75H976.848V152.86H974.383V147.985ZM972.328 145.547V130.515H968.219C968.014 132.75 967.809 136.609 967.603 139.047C967.192 141.281 966.781 143.313 965.96 145.547H972.328Z" fill="#535762"/>
<path d="M981.79 138.437C981.79 140.062 981.996 143.109 982.817 144.531C983.434 145.547 984.666 145.953 985.694 145.953C986.515 145.953 987.337 145.547 987.748 144.938C988.364 144.328 988.775 142.703 988.981 141.891L991.446 142.5C991.241 143.109 991.035 144.328 990.419 145.344C989.186 147.578 987.337 148.188 985.488 148.188C983.434 148.188 981.79 147.578 980.558 145.75C979.12 143.516 978.914 140.266 978.914 138.234C978.914 135.187 979.325 131.937 980.968 129.906C982.407 127.875 984.05 127.671 985.283 127.671C986.721 127.671 988.364 127.875 989.803 129.703C991.035 131.328 991.857 133.765 991.857 138.437H981.79ZM988.775 136.203C988.775 133.562 988.364 132.343 987.954 131.531C987.543 130.718 986.515 130.109 985.488 130.109C984.666 130.109 983.639 130.515 983.023 131.531C982.407 132.547 982.201 133.968 981.996 136H988.775V136.203Z" fill="#535762"/>
<path d="M997.585 130.515H992.859V128.281H1005.19V130.515H1000.46V147.985H997.585V130.515Z" fill="#535762"/>
<path d="M1008.89 138.437C1008.89 140.062 1009.1 143.109 1009.92 144.531C1010.54 145.547 1011.77 145.953 1012.8 145.953C1013.62 145.953 1014.44 145.547 1014.85 144.938C1015.47 144.328 1015.88 142.703 1016.08 141.891L1018.55 142.5C1018.34 143.109 1018.14 144.328 1017.52 145.344C1016.29 147.578 1014.44 148.188 1012.59 148.188C1010.54 148.188 1008.89 147.578 1007.66 145.75C1006.22 143.516 1006.02 140.266 1006.02 138.234C1006.02 135.187 1006.43 131.937 1008.07 129.906C1009.51 127.875 1011.15 127.671 1012.38 127.671C1013.82 127.671 1015.47 127.875 1016.9 129.703C1018.14 131.328 1018.96 133.765 1018.96 138.437H1008.89ZM1015.88 136.203C1015.88 133.562 1015.47 132.343 1015.06 131.531C1014.64 130.718 1013.62 130.109 1012.59 130.109C1011.77 130.109 1010.74 130.515 1010.12 131.531C1009.51 132.547 1009.3 133.968 1009.1 136H1015.88V136.203Z" fill="#535762"/>
<path d="M1022.25 128.28H1025.13V140.671L1024.92 142.702L1025.74 140.671L1031.08 129.296V128.077H1033.96V147.781H1031.08V135.593L1031.29 133.358L1030.47 135.593L1025.13 146.562V147.781H1022.25V128.28ZM1032.52 121.78C1032.52 122.999 1032.11 124.014 1031.29 124.827C1030.26 125.842 1029.03 126.046 1028 126.046C1026.98 126.046 1025.54 125.842 1024.51 124.827C1023.69 124.014 1023.28 122.795 1023.28 121.78H1025.74C1025.74 122.592 1025.95 123.202 1026.15 123.608C1026.56 124.217 1027.18 124.42 1027.8 124.42C1028.41 124.42 1029.03 124.217 1029.44 123.608C1029.65 123.202 1030.06 122.592 1029.85 121.78H1032.52Z" fill="#535762"/>
<path d="M1051.63 143.515H1049.98L1046.7 137.828L1049.98 131.734H1051.63L1049.78 137.828L1051.63 143.515ZM1056.35 143.515H1054.71L1051.42 137.828L1054.71 131.734H1056.35L1054.5 137.828L1056.35 143.515Z" fill="#535762"/>
<path d="M1063.53 121.374H1060.45V147.984H1063.53V121.374Z" fill="#535762"/>
<path d="M1070.52 123.811H1065.38V121.374H1078.94V123.811H1073.6V147.984H1070.52V123.811Z" fill="#535762"/>
<path d="M1086.97 136.608H1080.2V139.046H1086.97V136.608Z" fill="#535762"/>
<path d="M1090.88 147.985V128.281H1093.75V136.406H1095.6C1096.42 136.406 1097.24 136.203 1097.65 134.781C1097.86 134.172 1097.86 133.359 1098.07 132.343C1098.07 131.531 1098.27 130.718 1098.48 129.906C1099.09 128.078 1100.33 127.875 1100.94 127.875C1101.15 127.875 1101.76 128.078 1101.97 128.078V130.312C1101.56 130.312 1101.15 130.515 1101.15 130.515C1100.94 130.718 1100.74 131.328 1100.74 132.343C1100.53 134.172 1100.53 134.781 1100.33 135.39C1099.91 136.609 1099.3 137.015 1098.27 137.422C1099.91 137.828 1100.33 139.25 1100.53 140.266C1100.94 141.891 1100.94 143.922 1101.15 144.938C1101.35 145.141 1101.56 145.953 1102.59 145.547V147.781C1102.17 147.985 1101.97 147.985 1101.35 147.985C1099.3 147.985 1098.89 146.563 1098.48 145.75C1098.27 145.141 1098.07 143.922 1097.86 141.687C1097.65 140.875 1097.65 139.859 1097.24 139.25C1096.83 138.844 1096.42 138.64 1095.81 138.64H1093.96V147.781H1090.88V147.985Z" fill="#535762"/>
<path d="M1105.67 128.281L1108.95 141.891L1112.45 128.281H1115.12L1109.37 149.813C1108.95 151.032 1108.34 152.86 1107.52 153.875C1106.49 154.891 1105.46 155.094 1104.64 155.094C1104.02 155.094 1103.41 154.891 1103 154.891V152.453C1103.41 152.657 1103.82 152.86 1104.43 152.86C1105.46 152.86 1105.67 152.453 1106.08 151.641C1106.28 151.032 1106.69 149.813 1106.69 149.406L1107.31 146.969L1102.59 128.687H1105.67V128.281Z" fill="#535762"/>
<path d="M1119.01 130.718C1120.03 129.296 1121.47 128.28 1123.32 128.28C1125.58 128.28 1127.02 129.499 1128.05 131.327C1128.66 132.749 1129.28 134.78 1129.28 137.827C1129.28 143.109 1127.64 145.546 1127.43 145.953C1126.2 147.781 1124.14 148.39 1122.7 148.39C1121.06 148.39 1119.62 147.578 1118.8 146.765C1116.54 144.531 1116.34 140.265 1116.34 137.015C1116.34 134.984 1116.54 132.14 1116.95 129.093C1117.36 126.452 1117.98 124.014 1120.44 122.592C1121.68 121.78 1123.12 121.577 1124.14 121.171C1127.22 120.561 1126.61 120.764 1128.87 120.155V122.592C1127.84 122.796 1127.02 122.999 1126.2 123.202C1124.55 123.608 1123.53 123.811 1122.5 124.218C1121.68 124.624 1120.86 125.03 1120.24 125.843C1119.42 127.061 1119.01 129.296 1119.01 130.718ZM1125.79 143.515C1126.2 142.296 1126.4 139.859 1126.4 138.234C1126.4 136.609 1126.2 133.968 1125.79 132.749C1125.17 131.124 1123.94 130.718 1123.12 130.718C1122.5 130.718 1120.86 130.921 1120.03 133.358C1119.62 134.577 1119.62 136.609 1119.62 138.031C1119.62 139.656 1119.83 142.499 1120.24 143.515C1120.86 145.546 1122.29 145.953 1123.12 145.953C1123.53 145.953 1124.96 145.546 1125.79 143.515Z" fill="#535762"/>
<path d="M1132.16 131.734H1133.81L1137.09 137.828L1133.81 143.515H1132.16L1134.01 137.828L1132.16 131.734ZM1136.89 131.734H1138.53L1141.82 137.828L1138.53 143.515H1136.89L1138.74 137.828L1136.89 131.734Z" fill="#535762"/>
</svg>
