<svg width="66" height="66" viewBox="0 0 66 66" fill="none" xmlns="http://www.w3.org/2000/svg">
<g clip-path="url(#clip0_5081_1510)">
<mask id="mask0_5081_1510" style="mask-type:luminance" maskUnits="userSpaceOnUse" x="0" y="0" width="66" height="66">
<path d="M66 0H0V66H66V0Z" fill="white"/>
</mask>
<g mask="url(#mask0_5081_1510)">
<path d="M33 0C14.8072 0 0 14.8072 0 33C0 51.1928 14.8072 66 33 66C51.1928 66 66 51.1928 66 33C66 14.8072 51.1928 0 33 0ZM33 63.7306C16.0722 63.7306 2.26945 49.9278 2.26945 33C2.26945 16.0722 16.0349 2.26945 33 2.26945C49.9278 2.26945 63.7306 16.0722 63.7306 33C63.7306 49.9278 49.9278 63.7306 33 63.7306Z" fill="#3973B9"/>
<path d="M32.9982 6.06445C18.1538 6.06445 6.0625 18.1558 6.0625 33.0002C6.0625 47.8446 18.1538 59.9359 32.9982 59.9359C47.8427 59.9359 59.934 47.8446 59.934 33.0002C59.8968 18.1558 47.8427 6.06445 32.9982 6.06445ZM32.9982 57.6665C19.4188 57.6665 8.33195 46.6169 8.33195 33.0002C8.33195 19.4207 19.3816 8.3339 32.9982 8.3339C46.5777 8.3339 57.6645 19.3835 57.6645 33.0002C57.6645 46.5797 46.5777 57.6665 32.9982 57.6665Z" fill="#3973B9"/>
<path d="M33 60C47.9117 60 60 47.9117 60 33C60 18.0883 47.9117 6 33 6C18.0883 6 6 18.0883 6 33C6 47.9117 18.0883 60 33 60Z" fill="#3973B9"/>
<path d="M33.0008 15.2165C33.6333 15.2165 34.1169 14.6957 34.1169 14.1004V10.8637C34.1169 10.2312 33.5961 9.74756 33.0008 9.74756C32.3683 9.74756 31.8847 10.2684 31.8847 10.8637V14.1004C31.8475 14.6957 32.3683 15.2165 33.0008 15.2165Z" fill="white"/>
<path d="M32.9989 50.7837C32.3665 50.7837 31.8828 51.3045 31.8828 51.8998V55.1365C31.8828 55.769 32.4037 56.2527 32.9989 56.2527C33.6314 56.2527 34.1151 55.7318 34.1151 55.1365V51.8998C34.1151 51.3045 33.6314 50.7837 32.9989 50.7837Z" fill="white"/>
<path d="M22.5478 17.151C22.8454 17.7091 23.5523 17.8951 24.1104 17.5602C24.6684 17.2626 24.8544 16.5557 24.5196 15.9977L22.9198 13.2074C22.6222 12.6493 21.9153 12.4633 21.3573 12.7981C20.7992 13.0958 20.6132 13.8026 20.948 14.3607L22.5478 17.151Z" fill="white"/>
<path d="M43.4511 48.8118C43.1534 48.2538 42.4466 48.0677 41.8885 48.4026C41.3304 48.7002 41.1444 49.4071 41.4793 49.9651L43.079 52.7554C43.3767 53.3135 44.0835 53.4995 44.6416 53.1647C45.1997 52.8671 45.3857 52.1602 45.0508 51.6021L43.4511 48.8118Z" fill="white"/>
<path d="M17.1512 22.5456L14.3609 20.9458C13.8028 20.6481 13.1331 20.8342 12.7983 21.355C12.5007 21.9131 12.6867 22.5828 13.2075 22.9176L15.9978 24.5174C16.5187 24.815 17.2256 24.629 17.5604 24.1081C17.8953 23.5501 17.7092 22.8804 17.1512 22.5456Z" fill="white"/>
<path d="M52.7527 43.0822L49.9624 41.4824C49.4044 41.1848 48.7347 41.3708 48.3999 41.8916C48.1022 42.4497 48.2882 43.1194 48.8091 43.4542L51.5994 45.054C52.1203 45.3516 52.8271 45.2028 53.162 44.6447C53.4968 44.0867 53.3108 43.417 52.7527 43.0822Z" fill="white"/>
<path d="M15.219 32.9999C15.219 32.3675 14.6981 31.8838 14.1029 31.8838H10.8661C10.2337 31.8838 9.75 32.4047 9.75 32.9999C9.75 33.6324 10.2709 34.1161 10.8661 34.1161H14.1029C14.6981 34.1161 15.219 33.6324 15.219 32.9999Z" fill="white"/>
<path d="M55.1732 31.8467H51.9364C51.304 31.8467 50.8203 32.3675 50.8203 32.9628C50.8203 33.5953 51.3412 34.0789 51.9364 34.0789H55.1732C55.8057 34.0789 56.2893 33.5581 56.2893 32.9628C56.2893 32.3675 55.7685 31.8467 55.1732 31.8467Z" fill="white"/>
<path d="M16.0382 41.4824L13.2479 43.0822C12.6898 43.3798 12.5038 44.0867 12.8386 44.6447C13.1735 45.2028 13.8431 45.3516 14.4012 45.054L17.1915 43.4542C17.7496 43.1566 17.9356 42.4497 17.6008 41.8916C17.2659 41.3708 16.559 41.1848 16.0382 41.4824Z" fill="white"/>
<path d="M49.9637 24.5177L52.754 22.9179C53.3121 22.6203 53.4981 21.9134 53.1632 21.3553C52.8656 20.7973 52.1587 20.6112 51.6007 20.9461L48.8104 22.5458C48.2523 22.8435 48.0663 23.5504 48.4011 24.1084C48.736 24.6293 49.4056 24.8153 49.9637 24.5177Z" fill="white"/>
<path d="M24.1091 48.4023C23.551 48.1046 22.8813 48.2907 22.5465 48.8115L20.9467 51.6018C20.6491 52.1599 20.8351 52.8296 21.356 53.1644C21.8768 53.462 22.5837 53.276 22.9185 52.7552L24.5183 49.9649C24.816 49.4068 24.6299 48.7371 24.1091 48.4023Z" fill="white"/>
<path d="M44.6481 12.8354C44.0901 12.5378 43.4204 12.7238 43.0856 13.2446L41.4858 16.035C41.1882 16.593 41.3742 17.2627 41.895 17.5975C42.4159 17.8952 43.1228 17.7091 43.4576 17.1883L45.0574 14.398C45.3922 13.8399 45.2062 13.133 44.6481 12.8354Z" fill="white"/>
<path d="M34.1148 28.4983V18.7881C34.1148 18.1556 33.5939 17.6719 32.9986 17.6719C32.3662 17.6719 31.8825 18.1928 31.8825 18.7881V28.4983C30.2455 28.9076 28.9434 30.2097 28.4969 31.8839H23.1396C22.5071 31.8839 22.0234 32.4047 22.0234 33C22.0234 33.6325 22.5443 34.1161 23.1396 34.1161H28.4969C29.0178 36.1251 30.8408 37.6505 32.9986 37.6505C35.5657 37.6505 37.6491 35.5671 37.6491 33C37.6491 30.805 36.161 29.0192 34.1148 28.4983ZM32.9986 35.3811C31.6965 35.3811 30.6176 34.3021 30.6176 33C30.6176 31.6979 31.6965 30.6189 32.9986 30.6189C34.3008 30.6189 35.3797 31.6979 35.3797 33C35.3797 34.3021 34.3008 35.3811 32.9986 35.3811Z" fill="white"/>
</g>
</g>
<defs>
<clipPath id="clip0_5081_1510">
<rect width="66" height="66" fill="white"/>
</clipPath>
</defs>
</svg>
