<svg width="192" height="191" viewBox="0 0 192 191" fill="none" xmlns="http://www.w3.org/2000/svg">
<path d="M96 191L54.935 166.627L13.2946 143.25L13.87 95.5L13.2946 47.75L54.935 24.3733L96 -8.34888e-06L137.065 24.3733L178.705 47.75L178.13 95.5L178.705 143.25L137.065 166.627L96 191Z" fill="#1F59C9"/>
<g clip-path="url(#clip0_1000_4833)">
<path d="M143.358 138H48.642C43.8889 138 40 134.127 40 129.393V124.316C40 122.939 41.1235 121.734 42.5926 121.734H149.407C150.79 121.734 152 122.852 152 124.316V129.393C152 134.213 148.111 138 143.358 138ZM43.1111 124.832V129.393C43.1111 132.406 45.6173 134.902 48.642 134.902H143.358C146.383 134.902 148.889 132.406 148.889 129.393V124.832H43.1111Z" fill="white"/>
<path d="M146.987 124.832H45.0985C44.2343 124.832 43.543 124.143 43.543 123.283V55.5492C43.543 54.6885 44.2343 54 45.0985 54H146.987C147.852 54 148.543 54.6885 148.543 55.5492V123.369C148.457 124.143 147.765 124.832 146.987 124.832ZM46.5677 121.82H145.432V57.0984H46.5677V121.82Z" fill="white"/>
<path d="M139.469 117.775H52.5311C51.6669 117.775 50.9756 117.086 50.9756 116.225V62.6066C50.9756 61.7459 51.6669 61.0574 52.5311 61.0574H139.556C140.42 61.0574 141.111 61.7459 141.111 62.6066V116.225C141.025 117.086 140.334 117.775 139.469 117.775ZM54.0867 114.676H138V64.1557H54.0867V114.676Z" fill="white"/>
<path d="M103.864 112.008C103 112.008 102.309 111.32 102.309 110.459V102.025C102.309 101.164 103 100.475 103.864 100.475C104.728 100.475 105.42 101.164 105.42 102.025V110.459C105.42 111.32 104.728 112.008 103.864 112.008Z" fill="white"/>
<path d="M96.0004 84.2951C91.4202 84.2951 87.7041 80.5943 87.7041 76.0328C87.7041 71.4713 91.4202 67.7705 96.0004 67.7705C100.581 67.7705 104.297 71.4713 104.297 76.0328C104.297 80.5943 100.581 84.2951 96.0004 84.2951ZM96.0004 70.8689C93.1485 70.8689 90.8152 73.1926 90.8152 76.0328C90.8152 78.873 93.1485 81.1967 96.0004 81.1967C98.8523 81.1967 101.186 78.873 101.186 76.0328C101.186 73.1926 98.8523 70.8689 96.0004 70.8689Z" fill="white"/>
<path d="M88.1356 112.008C87.2714 112.008 86.5801 111.32 86.5801 110.459V102.025C86.5801 101.164 87.2714 100.475 88.1356 100.475C88.9998 100.475 89.6912 101.164 89.6912 102.025V110.459C89.6912 111.32 88.9998 112.008 88.1356 112.008Z" fill="white"/>
<path d="M111.383 112.008H80.6171C79.7529 112.008 79.0615 111.32 79.0615 110.459V97.1189C79.0615 91.6107 83.2097 87.0492 88.6541 86.3607C89.5183 86.2747 90.2961 86.8771 90.3825 87.7378C90.4689 88.5984 89.864 89.373 88.9998 89.4591C85.1109 89.8894 82.0862 93.246 82.0862 97.1189V108.91H109.741V97.1189C109.741 93.1599 106.802 89.8894 102.827 89.4591C101.963 89.373 101.358 88.5984 101.444 87.7378C101.531 86.8771 102.308 86.2747 103.173 86.3607C108.617 86.9632 112.765 91.6107 112.765 97.1189V110.459C112.938 111.32 112.247 112.008 111.383 112.008Z" fill="white"/>
<path d="M108.445 133.008H83.5557C79.9261 133.008 76.9014 129.996 76.9014 126.381V123.369C76.9014 122.508 77.5927 121.82 78.4569 121.82H113.457C114.321 121.82 115.012 122.508 115.012 123.369V126.381C115.099 129.996 112.074 133.008 108.445 133.008ZM80.0125 124.832V126.381C80.0125 128.361 81.568 129.91 83.5557 129.91H108.358C110.346 129.91 111.901 128.361 111.901 126.381V124.832H80.0125Z" fill="white"/>
</g>
<defs>
<clipPath id="clip0_1000_4833">
<rect width="112" height="84" fill="white" transform="translate(40 54)"/>
</clipPath>
</defs>
</svg>
