<svg width="167" height="241" viewBox="0 0 167 241" fill="none" xmlns="http://www.w3.org/2000/svg">
<g clip-path="url(#clip0_779_2577)">
<rect x="85" y="241" width="4" height="51" transform="rotate(-180 85 241)" fill="white"/>
<path d="M43.4558 164.907L43.4351 164.895L43.414 164.883L2.80872 142.087L3.36985 95.5243L3.37016 95.5002L3.36985 95.4761L2.80873 48.9131L43.4141 26.1175L43.4351 26.1057L43.4558 26.0934L83.5 2.326L123.544 26.0934L123.565 26.1057L123.586 26.1175L164.191 48.9131L163.63 95.4761L163.63 95.5002L163.63 95.5243L164.191 142.087L123.586 164.883L123.565 164.895L123.544 164.907L83.5 188.674L43.4558 164.907Z" stroke="white" stroke-width="4"/>
<g clip-path="url(#clip1_779_2577)">
<path d="M93.2594 92.9395C92.8528 92.9395 92.4223 92.7961 92.0875 92.5095C90.7004 91.2673 89.5764 89.4517 88.7394 87.0868C85.0564 88.4245 80.9429 88.4245 77.2599 87.0868C76.4229 89.4756 75.2989 91.2911 73.9118 92.5095C73.1943 93.1544 72.0942 93.0828 71.4485 92.3661C70.8028 91.6495 70.8745 90.5506 71.592 89.9056C72.8117 88.8306 73.7683 86.9434 74.4618 84.2679C74.5814 83.7663 74.9401 83.3363 75.4424 83.1213C75.9207 82.9063 76.4707 82.9063 76.949 83.1452C80.7755 85.0562 85.2477 85.0562 89.0742 83.1452C89.5525 82.9063 90.1025 82.9063 90.5809 83.1213C91.0592 83.3363 91.4179 83.7663 91.5614 84.2679C92.2549 86.9195 93.2116 88.8306 94.4312 89.9056C95.1487 90.5506 95.2205 91.6495 94.5747 92.3661C94.216 92.7245 93.7377 92.9395 93.2594 92.9395Z" fill="white"/>
<path d="M100.267 70.9382C99.3103 70.9382 98.3776 70.6993 97.4928 70.2215C96.9427 69.911 96.584 69.3377 96.584 68.6927V58.2056C96.584 57.5606 96.9427 56.9873 97.4928 56.6767C98.3776 56.199 99.3103 55.9601 100.243 55.9601C103.806 55.9601 106.7 59.3284 106.7 63.4611C106.724 67.5699 103.83 70.9382 100.267 70.9382ZM100.1 67.4505C101.75 67.5699 103.232 65.7066 103.232 63.4372C103.232 61.1917 101.75 59.3045 100.1 59.4239V67.4505Z" fill="white"/>
<path d="M65.757 70.9381C62.1936 70.9381 59.2998 67.5699 59.2998 63.4372C59.2998 59.3044 62.1936 55.9362 65.757 55.9362C66.7136 55.9362 67.6463 56.175 68.5073 56.6528C69.0573 56.9634 69.416 57.5367 69.416 58.1817V68.6687C69.416 69.3137 69.0573 69.8871 68.5073 70.1976C67.6224 70.6993 66.7136 70.9381 65.757 70.9381ZM65.757 59.4239C64.1546 59.4239 62.7915 61.2633 62.7915 63.4372C62.7915 65.6827 64.2503 67.546 65.9244 67.4504V59.4478C65.8526 59.4239 65.8048 59.4239 65.757 59.4239Z" fill="white"/>
<path d="M82.9999 88.0662C73.5773 88.0662 65.9004 80.398 65.9004 70.986V54.6223C65.9004 54.0729 66.1635 53.5712 66.5939 53.2368C67.0244 52.9023 67.5984 52.8068 68.1245 52.9501C68.1963 52.974 74.6774 54.7418 78.8147 56.0317C85.6785 58.1578 95.8186 54.5268 97.1818 53.3323C97.708 52.8785 98.4254 52.759 99.0711 53.0457C99.6929 53.3323 100.1 53.9534 100.1 54.6462V71.0337C100.1 80.398 92.4226 88.0662 82.9999 88.0662ZM69.416 56.9156V70.986C69.416 78.4631 75.5144 84.5546 82.9999 84.5546C90.4855 84.5546 96.5839 78.4631 96.5839 70.986V57.5128C92.1835 59.3761 84.1718 61.3111 77.7625 59.3284C75.2035 58.54 71.664 57.5367 69.416 56.9156Z" fill="white"/>
<path d="M104.954 65.181C103.997 65.181 103.208 64.3927 103.208 63.4372C103.208 60.7855 101.127 58.6595 99.1664 59.7106C98.6163 59.9972 97.9706 59.9972 97.4445 59.6867C96.9183 59.3761 96.5835 58.8028 96.5835 58.1817V57.5128C92.1831 59.3761 84.1714 61.3111 77.762 59.3283C75.1792 58.5161 71.6636 57.5367 69.3916 56.8917V58.1578C69.3916 58.7789 69.0568 59.3522 68.5307 59.6628C68.0045 59.9733 67.3349 59.9972 66.8088 59.6867C64.8477 58.6117 62.767 60.7378 62.767 63.4133C62.767 64.3688 61.9778 65.1571 61.0212 65.1571C60.0646 65.1571 59.2754 64.3688 59.2754 63.4133V46.0224C59.2754 45.8074 59.3232 45.5924 59.395 45.4013C60.0885 41.9614 64.2259 39.4292 69.2242 39.4292C69.6069 39.4292 70.0134 39.4531 70.3961 39.477C71.281 35.2248 74.94 31.9999 79.3165 31.9999C83.0713 31.9999 86.252 34.3171 87.6391 37.6853C88.9306 36.8731 90.4372 36.4193 92.0396 36.4193C94.7659 36.4193 97.2531 37.7331 98.7359 39.8831C99.286 39.7398 99.8599 39.6681 100.458 39.6681C103.926 39.6681 106.748 42.2719 106.748 45.4491V63.4372C106.724 64.4166 105.934 65.181 104.954 65.181ZM100.266 55.9362C101.343 55.9362 102.347 56.2467 103.232 56.7723V45.4491C103.232 44.183 101.988 43.1558 100.458 43.1558C99.8838 43.1558 99.3338 43.2991 98.8555 43.5858C98.425 43.8486 97.8989 43.8964 97.3966 43.7291C96.9183 43.5619 96.5357 43.2036 96.3444 42.7258C95.6508 41.0059 93.9767 39.907 92.0635 39.907C90.4372 39.907 88.9784 40.7192 88.1414 42.0569C87.7348 42.7019 86.9456 43.0125 86.2042 42.8214C85.4628 42.6303 84.9367 41.9614 84.9128 41.197C84.8171 37.9959 82.3777 35.4876 79.3644 35.4876C76.3032 35.4876 73.816 38.0915 73.7921 41.3164C73.7921 41.3881 73.7921 41.4358 73.7921 41.4836C73.7921 42.0092 73.5529 42.5108 73.1224 42.8453C72.7159 43.1797 72.1658 43.2991 71.6397 43.1797C70.8744 43.0125 70.0852 42.9169 69.2721 42.9169C65.6847 42.9169 63.054 44.6369 62.8388 46.2135C62.8388 46.2613 62.8388 46.2852 62.8149 46.333V56.7245C63.7476 56.1512 64.8238 55.8645 65.9478 55.8884V54.5745C65.9478 54.0251 66.2109 53.5234 66.6414 53.189C67.0718 52.8546 67.6458 52.759 68.1719 52.9023C68.2437 52.9262 74.7248 54.694 78.8622 55.984C85.7259 58.11 95.866 54.479 97.2292 53.2845C97.7554 52.8307 98.4728 52.7112 99.1185 52.9979C99.7404 53.2845 100.147 53.9056 100.147 54.5984V55.9123C100.147 55.9362 100.195 55.9362 100.266 55.9362Z" fill="white"/>
<path d="M107.896 133.932H59.6823C58.7735 133.932 58.0321 133.239 57.9365 132.356L55.0188 101.372C54.9709 100.87 55.1384 100.393 55.4732 100.034C55.808 99.6761 56.2863 99.4611 56.7646 99.4611H110.79C111.292 99.4611 111.746 99.6761 112.081 100.034C112.416 100.393 112.583 100.894 112.535 101.372L109.618 132.356C109.57 133.263 108.805 133.932 107.896 133.932ZM61.2846 130.444H106.317L108.876 102.973H58.7018L61.2846 130.444Z" fill="white"/>
<path d="M109.762 140H57.8175C55.9043 140 54.2063 138.734 53.6562 136.894L53.3931 135.987C53.0105 134.673 53.2496 133.287 54.0867 132.164C54.9237 131.066 56.1673 130.421 57.5544 130.421H110.025C111.412 130.421 112.68 131.042 113.493 132.164C114.33 133.263 114.569 134.649 114.186 135.987L113.923 136.894C113.373 138.71 111.651 140 109.762 140ZM57.5544 133.932C57.1957 133.932 56.9804 134.147 56.8848 134.267C56.7891 134.386 56.6456 134.649 56.7652 134.983L57.0283 135.891C57.1239 136.249 57.4588 136.488 57.8175 136.488H109.738C110.097 136.488 110.431 136.249 110.527 135.891L110.79 134.983C110.886 134.625 110.742 134.386 110.671 134.243C110.575 134.123 110.36 133.908 110.001 133.908H57.5544V133.932Z" fill="white"/>
<path d="M124.254 140H41.7458C40.7892 140 40 139.212 40 138.256V115.18C40 100.99 51.5512 89.4518 65.757 89.4518H72.7642C73.4577 89.4518 74.1034 89.8579 74.3665 90.5029C74.6535 91.1479 74.51 91.8884 74.0317 92.3901C73.386 93.0828 73.0751 93.7756 73.0751 94.4923C73.0751 96.7617 76.5189 98.9594 80.8954 99.485C81.8521 99.6044 82.5456 100.464 82.426 101.42C82.3065 102.375 81.4216 103.068 80.4889 102.949C74.0795 102.184 69.5834 98.6966 69.5834 94.4923C69.5834 93.9667 69.6552 93.4412 69.7987 92.9395H65.7809C53.5122 92.9395 43.5395 102.901 43.5395 115.156V136.488H122.508V115.156C122.508 102.901 112.536 92.9395 100.243 92.9395H96.2253C96.3687 93.4412 96.4405 93.9667 96.4405 94.4923C96.4405 98.7205 91.9444 102.208 85.535 102.949C84.5784 103.068 83.6936 102.375 83.5979 101.42C83.4783 100.464 84.1719 99.5805 85.1285 99.485C89.505 98.9594 92.9488 96.7617 92.9488 94.4923C92.9488 93.7756 92.614 93.0828 91.9922 92.3901C91.5139 91.8884 91.3943 91.1479 91.6574 90.5029C91.9444 89.8579 92.5662 89.4518 93.2597 89.4518H100.267C114.473 89.4518 126.024 100.99 126.024 115.18V138.256C126 139.212 125.211 140 124.254 140Z" fill="white"/>
</g>
</g>
<defs>
<clipPath id="clip0_779_2577">
<rect width="167" height="241" fill="white"/>
</clipPath>
<clipPath id="clip1_779_2577">
<rect width="86" height="108" fill="white" transform="translate(40 31.9999)"/>
</clipPath>
</defs>
</svg>
