<svg width="113" height="129" viewBox="0 0 113 129" fill="none" xmlns="http://www.w3.org/2000/svg">
<g clip-path="url(#clip0_844_7872)">
<path fill-rule="evenodd" clip-rule="evenodd" d="M29.1553 112.226L56.7197 128.642L84.2842 112.226L112.235 96.4815L111.849 64.321L112.235 32.1605L84.2842 16.4159L56.7197 0L29.1553 16.4159L1.2046 32.1605L1.59084 64.321L1.20459 96.4815L29.1553 112.226ZM3.90856 94.915L30.4979 109.893L56.7197 125.509L82.9416 109.893L109.531 94.9151L109.163 64.321L109.531 33.7269L82.9416 18.7492L56.7197 3.13287L30.4979 18.7492L3.90856 33.7269L4.27599 64.321L3.90856 94.915Z" fill="white"/>
<path d="M63.4634 85.2205H51.9897C51.3418 85.2205 50.8202 84.6953 50.8202 84.0427V60.901C50.3935 61.0761 49.9352 61.1715 49.4453 61.1715H49.2082C47.1537 61.1715 45.4943 59.4845 45.4943 57.4313V44.7463C45.4943 41.3085 48.2758 38.5073 51.6894 38.5073H63.7795C67.1932 38.5073 69.9747 41.3085 69.9747 44.7463V57.4313C69.9747 59.5004 68.2995 61.1715 66.2607 61.1715H66.0079C65.518 61.1715 65.0596 61.0761 64.6329 60.901V84.0427C64.6329 84.6953 64.1114 85.2205 63.4634 85.2205ZM53.1592 82.8649H62.2939V57.4154C62.2939 56.7628 62.8155 56.2376 63.4634 56.2376C64.1114 56.2376 64.6329 56.7628 64.6329 57.4154C64.6329 58.1794 65.2493 58.8001 66.0079 58.8001H66.2449C67.0035 58.8001 67.6199 58.1794 67.6199 57.4154V44.7304C67.6199 42.5977 65.8973 40.8629 63.7795 40.8629H51.6894C49.5717 40.8629 47.8491 42.5977 47.8491 44.7304V57.4154C47.8491 58.1794 48.4654 58.8001 49.224 58.8001H49.4611C50.2197 58.8001 50.836 58.1794 50.836 57.4154C50.836 56.7628 51.3576 56.2376 52.0055 56.2376C52.6535 56.2376 53.175 56.7628 53.175 57.4154V82.8649H53.1592Z" fill="white"/>
<path d="M51.9897 58.6091C51.3418 58.6091 50.8202 58.0839 50.8202 57.4313V48.8049C50.8202 48.1523 51.3418 47.6271 51.9897 47.6271C52.6377 47.6271 53.1592 48.1523 53.1592 48.8049V57.4313C53.1592 58.068 52.6377 58.6091 51.9897 58.6091Z" fill="white"/>
<path d="M63.4637 58.609C62.8157 58.609 62.2942 58.0838 62.2942 57.4313V48.8048C62.2942 48.1523 62.8157 47.6271 63.4637 47.6271C64.1116 47.6271 64.6332 48.1523 64.6332 48.8048V57.4313C64.6332 58.0679 64.1116 58.609 63.4637 58.609Z" fill="white"/>
<path d="M57.7264 37.8388C54.1705 37.8388 51.2784 34.783 51.2784 31.0427C51.2784 27.3025 54.1705 24.2467 57.7264 24.2467C61.2823 24.2467 64.1744 27.3025 64.1744 31.0427C64.1744 34.783 61.2823 37.8388 57.7264 37.8388ZM57.7264 26.6022C55.4664 26.6022 53.6332 28.5917 53.6332 31.0427C53.6332 33.4938 55.4664 35.4833 57.7264 35.4833C59.9864 35.4833 61.8196 33.4938 61.8196 31.0427C61.8196 28.5917 59.9864 26.6022 57.7264 26.6022Z" fill="white"/>
<path d="M57.7266 85.2205C57.0786 85.2205 56.5571 84.6953 56.5571 84.0427V64.4502C56.5571 63.7977 57.0786 63.2724 57.7266 63.2724C58.3745 63.2724 58.8961 63.7977 58.8961 64.4502V84.0427C58.8961 84.6953 58.3745 85.2205 57.7266 85.2205Z" fill="white"/>
<path d="M82.1915 85.2205H72.393C71.745 85.2205 71.2235 84.6953 71.2235 84.0427V64.5458C70.9074 64.6412 70.5755 64.7049 70.2278 64.7049C69.5799 64.7049 69.0583 64.1797 69.0583 63.5271C69.0583 62.8746 69.5799 62.3494 70.2278 62.3494C70.781 62.3494 71.2235 61.9037 71.2235 61.3467C71.2235 60.6941 71.745 60.1689 72.393 60.1689C73.0409 60.1689 73.5625 60.6941 73.5625 61.3467V82.8809H81.0062V61.3307C81.0062 60.6782 81.5277 60.153 82.1757 60.153C82.8236 60.153 83.3452 60.6782 83.3452 61.3307C83.3452 61.8878 83.7877 62.3334 84.3408 62.3334H84.5463C85.0994 62.3334 85.5419 61.8878 85.5419 61.3307V50.5079C85.5419 48.789 84.1512 47.3725 82.4285 47.3725H72.1085C71.4605 47.3725 70.939 46.8473 70.939 46.1947C70.939 45.5422 71.4605 45.0169 72.1085 45.0169H82.4443C85.4471 45.0169 87.8967 47.4839 87.8967 50.5079V61.3307C87.8967 63.1929 86.3953 64.7049 84.5463 64.7049H84.3408C83.9931 64.7049 83.6612 64.6572 83.3452 64.5458V84.0427C83.361 84.6953 82.8394 85.2205 82.1915 85.2205Z" fill="white"/>
<path d="M72.393 62.5085C71.745 62.5085 71.2235 61.9833 71.2235 61.3307V53.9776C71.2235 53.325 71.745 52.7998 72.393 52.7998C73.0409 52.7998 73.5625 53.325 73.5625 53.9776V61.3307C73.5625 61.9833 73.0409 62.5085 72.393 62.5085Z" fill="white"/>
<path d="M82.1915 62.5085C81.5435 62.5085 81.022 61.9833 81.022 61.3307V53.9776C81.022 53.325 81.5435 52.7998 82.1915 52.7998C82.8395 52.7998 83.361 53.325 83.361 53.9776V61.3307C83.361 61.9833 82.8395 62.5085 82.1915 62.5085Z" fill="white"/>
<path d="M77.2917 44.237C74.1625 44.237 71.6181 41.5631 71.6181 38.2686C71.6181 34.974 74.1625 32.3001 77.2917 32.3001C80.4209 32.3001 82.9654 34.974 82.9654 38.2686C82.9654 41.5631 80.4209 44.237 77.2917 44.237ZM77.2917 34.6556C75.4585 34.6556 73.9729 36.2791 73.9729 38.2686C73.9729 40.258 75.4585 41.8815 77.2917 41.8815C79.125 41.8815 80.6106 40.258 80.6106 38.2686C80.6106 36.2791 79.125 34.6556 77.2917 34.6556Z" fill="white"/>
<path d="M77.2922 85.2205C76.6443 85.2205 76.1227 84.6953 76.1227 84.0427V67.3151C76.1227 66.6625 76.6443 66.1373 77.2922 66.1373C77.9402 66.1373 78.4617 66.6625 78.4617 67.3151V84.0427C78.4617 84.6953 77.9402 85.2205 77.2922 85.2205Z" fill="white"/>
<path d="M43.0607 85.2205H33.2622C32.6142 85.2205 32.0927 84.6953 32.0927 84.0427V64.5458C31.7766 64.6412 31.4447 64.7049 31.097 64.7049H30.8916C29.0425 64.7049 27.5411 63.1929 27.5411 61.3307V50.5079C27.5411 47.4839 29.9908 45.0169 32.9935 45.0169H43.3135C43.9615 45.0169 44.483 45.5422 44.483 46.1947C44.483 46.8473 43.9615 47.3725 43.3135 47.3725H33.0093C31.3025 47.3725 29.8959 48.7731 29.8959 50.5079V61.3307C29.8959 61.8878 30.3384 62.3334 30.8916 62.3334H31.097C31.6502 62.3334 32.0927 61.8878 32.0927 61.3307C32.0927 60.6782 32.6142 60.153 33.2622 60.153C33.9101 60.153 34.4317 60.6782 34.4317 61.3307V82.865H41.8754V61.3307C41.8754 60.6782 42.3969 60.153 43.0449 60.153C43.6928 60.153 44.2144 60.6782 44.2144 61.3307C44.2144 61.8878 44.6569 62.3334 45.21 62.3334C45.858 62.3334 46.3795 62.8587 46.3795 63.5112C46.3795 64.1638 45.858 64.689 45.21 64.689C44.8623 64.689 44.5304 64.6413 44.2144 64.5298V84.0268C44.2302 84.6953 43.7086 85.2205 43.0607 85.2205Z" fill="white"/>
<path d="M43.0605 62.5085C42.4125 62.5085 41.891 61.9833 41.891 61.3307V53.9776C41.891 53.325 42.4125 52.7998 43.0605 52.7998C43.7084 52.7998 44.23 53.325 44.23 53.9776V61.3307C44.23 61.9833 43.7084 62.5085 43.0605 62.5085Z" fill="white"/>
<path d="M33.262 62.5085C32.614 62.5085 32.0927 61.9833 32.0927 61.3307L32.0925 53.9776C32.0925 53.325 32.614 52.7998 33.262 52.7998C33.9099 52.7998 34.4315 53.325 34.4315 53.9776L34.4317 61.3307C34.4317 61.9833 33.9099 62.5085 33.262 62.5085Z" fill="white"/>
<path d="M38.1612 44.237C35.032 44.237 32.4876 41.5632 32.4876 38.2686C32.4876 34.974 35.032 32.2842 38.1612 32.2842C41.2904 32.2842 43.8349 34.9581 43.8349 38.2526C43.8349 41.5472 41.2904 44.237 38.1612 44.237ZM38.1612 34.6557C36.328 34.6557 34.8424 36.2791 34.8424 38.2686C34.8424 40.2581 36.328 41.8815 38.1612 41.8815C39.9945 41.8815 41.4801 40.2581 41.4801 38.2686C41.4801 36.2791 39.9945 34.6557 38.1612 34.6557Z" fill="white"/>
<path d="M38.1612 85.2205C37.5133 85.2205 36.9917 84.6953 36.9917 84.0427V67.3151C36.9917 66.6625 37.5133 66.1373 38.1612 66.1373C38.8092 66.1373 39.3307 66.6625 39.3307 67.3151V84.0427C39.3307 84.6953 38.8092 85.2205 38.1612 85.2205Z" fill="white"/>
<path d="M90.3463 94.2925H25.1073C24.4593 94.2925 23.9378 93.7673 23.9378 93.1147V87.5282C23.9378 86.8757 24.4593 86.3505 25.1073 86.3505H27.5569V84.0586C27.5569 83.406 28.0785 82.8808 28.7264 82.8808H86.7271C87.3751 82.8808 87.8966 83.406 87.8966 84.0586V86.3505H90.3463C90.9942 86.3505 91.5157 86.8757 91.5157 87.5282V93.1147C91.5157 93.7673 90.9942 94.2925 90.3463 94.2925ZM26.2768 91.9369H89.161V88.706H86.7113C86.0634 88.706 85.5418 88.1808 85.5418 87.5282V85.2364H29.8959V87.5282C29.8959 88.1808 29.3744 88.706 28.7264 88.706H26.2768V91.9369Z" fill="white"/>
<path d="M93.4753 94.2925H21.9779C21.33 94.2925 20.8084 93.7673 20.8084 93.1148C20.8084 92.4622 21.33 91.937 21.9779 91.937H93.4594C94.1074 91.937 94.6289 92.4622 94.6289 93.1148C94.6447 93.7673 94.1232 94.2925 93.4753 94.2925Z" fill="white"/>
<path d="M78.4772 88.7061L28.7264 88.706C28.0785 88.706 27.5567 88.1808 27.5567 87.5283C27.5567 86.8757 28.0783 86.3505 28.7262 86.3505H78.4772C79.1252 86.3505 79.6467 86.8757 79.6467 87.5283C79.6467 88.1808 79.1252 88.7061 78.4772 88.7061Z" fill="white"/>
</g>
<defs>
<clipPath id="clip0_844_7872">
<rect width="112.768" height="129" fill="white"/>
</clipPath>
</defs>
</svg>
