<svg width="168" height="241" viewBox="0 0 168 241" fill="none" xmlns="http://www.w3.org/2000/svg">
<g clip-path="url(#clip0_779_2610)">
<rect x="86" y="241" width="4" height="51" transform="rotate(-180 86 241)" fill="white"/>
<path d="M44.4558 164.907L44.4351 164.894L44.414 164.883L3.80872 142.087L4.36985 95.5241L4.37016 95.5L4.36985 95.4759L3.80873 48.9129L44.4141 26.1173L44.4351 26.1055L44.4558 26.0932L84.5 2.32575L124.544 26.0932L124.565 26.1055L124.586 26.1173L165.191 48.9129L164.63 95.4759L164.63 95.5L164.63 95.5241L165.191 142.087L124.586 164.883L124.565 164.894L124.544 164.907L84.5 188.674L44.4558 164.907Z" stroke="white" stroke-width="4"/>
<g clip-path="url(#clip1_779_2610)">
<path d="M94.5465 126.53H77.4532C76.4878 126.53 75.7109 125.75 75.7109 124.782V90.4221C75.0752 90.6821 74.3924 90.8239 73.6625 90.8239H73.3093C70.2485 90.8239 67.7764 88.319 67.7764 85.2706V66.4367C67.7764 61.3324 71.9202 57.1733 77.0058 57.1733H95.0174C100.103 57.1733 104.247 61.3324 104.247 66.4367V85.2706C104.247 88.3426 101.751 90.8239 98.7139 90.8239H98.3372C97.6073 90.8239 96.9245 90.6821 96.2888 90.4221V124.782C96.2888 125.75 95.5118 126.53 94.5465 126.53ZM79.1955 123.033H92.8042V85.247C92.8042 84.2781 93.5812 83.4983 94.5465 83.4983C95.5118 83.4983 96.2888 84.2781 96.2888 85.247C96.2888 86.3812 97.207 87.3029 98.3372 87.3029H98.6903C99.8205 87.3029 100.739 86.3812 100.739 85.247V66.4131C100.739 63.2465 98.1723 60.6707 95.0174 60.6707H77.0058C73.8509 60.6707 71.2845 63.2465 71.2845 66.4131V85.247C71.2845 86.3812 72.2027 87.3029 73.3329 87.3029H73.686C74.8162 87.3029 75.7344 86.3812 75.7344 85.247C75.7344 84.2781 76.5114 83.4983 77.4767 83.4983C78.442 83.4983 79.219 84.2781 79.219 85.247V123.033H79.1955Z" fill="white"/>
<path d="M77.4532 87.0193C76.4879 87.0193 75.7109 86.2394 75.7109 85.2706V72.4626C75.7109 71.4937 76.4879 70.7139 77.4532 70.7139C78.4186 70.7139 79.1955 71.4937 79.1955 72.4626V85.2706C79.1955 86.2158 78.4186 87.0193 77.4532 87.0193Z" fill="white"/>
<path d="M94.547 87.0193C93.5817 87.0193 92.8047 86.2394 92.8047 85.2706V72.4626C92.8047 71.4937 93.5817 70.7139 94.547 70.7139C95.5123 70.7139 96.2893 71.4937 96.2893 72.4626V85.2706C96.2893 86.2158 95.5123 87.0193 94.547 87.0193Z" fill="white"/>
<path d="M85.9997 56.1809C80.7022 56.1809 76.3936 51.6437 76.3936 46.0904C76.3936 40.5372 80.7022 36 85.9997 36C91.2972 36 95.6059 40.5372 95.6059 46.0904C95.6059 51.6437 91.2972 56.1809 85.9997 56.1809ZM85.9997 39.4974C82.6329 39.4974 79.9017 42.4513 79.9017 46.0904C79.9017 49.7296 82.6329 52.6835 85.9997 52.6835C89.3666 52.6835 92.0977 49.7296 92.0977 46.0904C92.0977 42.4513 89.3666 39.4974 85.9997 39.4974Z" fill="white"/>
<path d="M86.0001 126.53C85.0348 126.53 84.2578 125.751 84.2578 124.782V95.6919C84.2578 94.7231 85.0348 93.9432 86.0001 93.9432C86.9654 93.9432 87.7424 94.7231 87.7424 95.6919V124.782C87.7424 125.751 86.9654 126.53 86.0001 126.53Z" fill="white"/>
<path d="M122.447 126.53H107.85C106.884 126.53 106.107 125.751 106.107 124.782V95.8337C105.637 95.9755 105.142 96.07 104.624 96.07C103.659 96.07 102.882 95.2902 102.882 94.3213C102.882 93.3525 103.659 92.5727 104.624 92.5727C105.448 92.5727 106.107 91.911 106.107 91.0839C106.107 90.115 106.884 89.3352 107.85 89.3352C108.815 89.3352 109.592 90.115 109.592 91.0839V123.057H120.681V91.0603C120.681 90.0914 121.458 89.3116 122.424 89.3116C123.389 89.3116 124.166 90.0914 124.166 91.0603C124.166 91.8874 124.825 92.549 125.649 92.549H125.955C126.78 92.549 127.439 91.8874 127.439 91.0603V74.9912C127.439 72.439 125.367 70.3359 122.801 70.3359H107.426C106.461 70.3359 105.684 69.5561 105.684 68.5872C105.684 67.6183 106.461 66.8385 107.426 66.8385H122.824C127.298 66.8385 130.947 70.5013 130.947 74.9912V91.0603C130.947 93.8251 128.71 96.07 125.955 96.07H125.649C125.131 96.07 124.637 95.9991 124.166 95.8337V124.782C124.19 125.751 123.413 126.53 122.447 126.53Z" fill="white"/>
<path d="M107.85 92.8089C106.884 92.8089 106.107 92.0291 106.107 91.0603V80.1427C106.107 79.1739 106.884 78.394 107.85 78.394C108.815 78.394 109.592 79.1739 109.592 80.1427V91.0603C109.592 92.0291 108.815 92.8089 107.85 92.8089Z" fill="white"/>
<path d="M122.447 92.8089C121.482 92.8089 120.705 92.0291 120.705 91.0603V80.1427C120.705 79.1739 121.482 78.394 122.447 78.394C123.413 78.394 124.19 79.1739 124.19 80.1427V91.0603C124.19 92.0291 123.413 92.8089 122.447 92.8089Z" fill="white"/>
<path d="M115.148 65.6805C110.486 65.6805 106.695 61.7105 106.695 56.8189C106.695 51.9273 110.486 47.9573 115.148 47.9573C119.81 47.9573 123.6 51.9273 123.6 56.8189C123.6 61.7105 119.81 65.6805 115.148 65.6805ZM115.148 51.4547C112.417 51.4547 110.203 53.865 110.203 56.8189C110.203 59.7728 112.417 62.1831 115.148 62.1831C117.879 62.1831 120.092 59.7728 120.092 56.8189C120.092 53.865 117.879 51.4547 115.148 51.4547Z" fill="white"/>
<path d="M115.149 126.53C114.183 126.53 113.406 125.751 113.406 124.782V99.9455C113.406 98.9766 114.183 98.1968 115.149 98.1968C116.114 98.1968 116.891 98.9766 116.891 99.9455V124.782C116.891 125.751 116.114 126.53 115.149 126.53Z" fill="white"/>
<path d="M64.151 126.53H49.5534C48.5881 126.53 47.8111 125.751 47.8111 124.782V95.8337C47.3402 95.9755 46.8458 96.07 46.3278 96.07H46.0217C43.267 96.07 41.0303 93.8251 41.0303 91.0603V74.9912C41.0303 70.5013 44.6797 66.8385 49.1531 66.8385H64.5277C65.493 66.8385 66.27 67.6183 66.27 68.5872C66.27 69.5561 65.493 70.3359 64.5277 70.3359H49.1767C46.6339 70.3359 44.5384 72.4154 44.5384 74.9912V91.0603C44.5384 91.8874 45.1977 92.549 46.0217 92.549H46.3278C47.1518 92.549 47.8111 91.8874 47.8111 91.0603C47.8111 90.0914 48.5881 89.3116 49.5534 89.3116C50.5187 89.3116 51.2957 90.0914 51.2957 91.0603V123.033H62.3852V91.0603C62.3852 90.0914 63.1621 89.3116 64.1274 89.3116C65.0928 89.3116 65.8697 90.0914 65.8697 91.0603C65.8697 91.8874 66.529 92.549 67.353 92.549C68.3184 92.549 69.0953 93.3288 69.0953 94.2977C69.0953 95.2666 68.3184 96.0464 67.353 96.0464C66.8351 96.0464 66.3406 95.9755 65.8697 95.8101V124.758C65.8933 125.751 65.1163 126.53 64.151 126.53Z" fill="white"/>
<path d="M64.1505 92.8089C63.1852 92.8089 62.4082 92.0291 62.4082 91.0603V80.1427C62.4082 79.1739 63.1852 78.394 64.1505 78.394C65.1158 78.394 65.8928 79.1739 65.8928 80.1427V91.0603C65.8928 92.0291 65.1158 92.8089 64.1505 92.8089Z" fill="white"/>
<path d="M49.5528 92.8089C48.5875 92.8089 47.8105 92.0291 47.8105 91.0603V80.1427C47.8105 79.1739 48.5875 78.394 49.5528 78.394C50.5182 78.394 51.2951 79.1739 51.2951 80.1427V91.0603C51.2951 92.0291 50.5182 92.8089 49.5528 92.8089Z" fill="white"/>
<path d="M56.8519 65.6805C52.1901 65.6805 48.3994 61.7105 48.3994 56.8188C48.3994 51.9272 52.1901 47.9336 56.8519 47.9336C61.5137 47.9336 65.3044 51.9036 65.3044 56.7952C65.3044 61.6868 61.5137 65.6805 56.8519 65.6805ZM56.8519 51.4546C54.1207 51.4546 51.9075 53.865 51.9075 56.8188C51.9075 59.7727 54.1207 62.1831 56.8519 62.1831C59.5831 62.1831 61.7962 59.7727 61.7962 56.8188C61.7962 53.865 59.5831 51.4546 56.8519 51.4546Z" fill="white"/>
<path d="M56.8517 126.53C55.8863 126.53 55.1094 125.751 55.1094 124.782V99.9455C55.1094 98.9766 55.8863 98.1968 56.8517 98.1968C57.817 98.1968 58.594 98.9766 58.594 99.9455V124.782C58.594 125.751 57.817 126.53 56.8517 126.53Z" fill="white"/>
<path d="M134.596 140H37.4044C36.4391 140 35.6621 139.22 35.6621 138.251V129.957C35.6621 128.988 36.4391 128.208 37.4044 128.208H41.0538V124.805C41.0538 123.836 41.8308 123.057 42.7961 123.057H129.204C130.17 123.057 130.947 123.836 130.947 124.805V128.208H134.596C135.562 128.208 136.338 128.988 136.338 129.957V138.251C136.338 139.22 135.562 140 134.596 140ZM39.1467 136.503H132.83V131.705H129.181C128.216 131.705 127.439 130.926 127.439 129.957V126.554H44.5384V129.957C44.5384 130.926 43.7614 131.705 42.7961 131.705H39.1467V136.503Z" fill="white"/>
<path d="M139.258 140H32.7423C31.777 140 31 139.22 31 138.251C31 137.282 31.777 136.503 32.7423 136.503H139.234C140.199 136.503 140.976 137.282 140.976 138.251C141 139.22 140.223 140 139.258 140Z" fill="white"/>
<path d="M116.914 131.706H42.796C41.8307 131.706 41.0537 130.926 41.0537 129.957C41.0537 128.988 41.8307 128.208 42.796 128.208H116.914C117.879 128.208 118.656 128.988 118.656 129.957C118.656 130.926 117.879 131.706 116.914 131.706Z" fill="white"/>
</g>
</g>
<defs>
<clipPath id="clip0_779_2610">
<rect width="168" height="241" fill="white"/>
</clipPath>
<clipPath id="clip1_779_2610">
<rect width="110" height="104" fill="white" transform="translate(31 36)"/>
</clipPath>
</defs>
</svg>
