<svg width="467" height="462" viewBox="0 0 467 462" fill="none" xmlns="http://www.w3.org/2000/svg">
<g clip-path="url(#clip0_770_2800)">
<path d="M239.723 175.484H221.667V223.804H239.723V175.484Z" fill="#5479F7"/>
<path d="M239.722 224.649H221.667C221.208 224.649 220.825 224.265 220.825 223.804V175.484C220.825 175.023 221.208 174.639 221.667 174.639H239.722C240.182 174.639 240.564 175.023 240.564 175.484V223.804C240.564 224.265 240.207 224.649 239.722 224.649ZM222.534 222.959H238.906V176.329H222.534V222.959Z" fill="black"/>
<path d="M243.574 224.547H217.638C215.751 224.547 214.195 223.011 214.195 221.09V214.458C214.195 212.563 215.725 211.001 217.638 211.001H243.574C245.461 211.001 247.017 212.537 247.017 214.458V221.09C247.017 222.985 245.487 224.547 243.574 224.547Z" fill="#5479F7"/>
<path d="M243.574 225.392H217.638C215.266 225.392 213.354 223.472 213.354 221.09V214.458C213.354 212.077 215.266 210.156 217.638 210.156H243.574C245.946 210.156 247.858 212.077 247.858 214.458V221.09C247.858 223.446 245.946 225.392 243.574 225.392ZM217.638 211.846C216.21 211.846 215.037 213.024 215.037 214.458V221.09C215.037 222.524 216.21 223.702 217.638 223.702H243.574C245.002 223.702 246.175 222.524 246.175 221.09V214.458C246.175 213.024 245.002 211.846 243.574 211.846H217.638Z" fill="black"/>
<path d="M264.894 232.946H196.344V227.748C196.344 224.752 198.766 222.345 201.725 222.345H259.488C262.471 222.345 264.869 224.778 264.869 227.748V232.946H264.894Z" fill="#5479F7"/>
<path d="M264.894 233.791H196.344C195.885 233.791 195.502 233.407 195.502 232.946V227.748C195.502 224.291 198.307 221.5 201.725 221.5H259.487C262.93 221.5 265.71 224.317 265.71 227.748V232.946C265.736 233.433 265.353 233.791 264.894 233.791ZM197.185 232.101H264.052V227.748C264.052 225.239 262.012 223.19 259.513 223.19H201.725C199.225 223.19 197.185 225.239 197.185 227.748V232.101Z" fill="black"/>
<path d="M216.77 173.128C197.822 162.45 178.899 146.344 164.822 128.931C156.176 118.227 142.405 98.2281 147.174 84.3492C148.551 80.3545 152.071 75.3099 160.945 74.0808C167.398 73.1846 176.119 74.4137 186.881 77.717L184.535 87.2428C174.895 84.2724 167.321 83.1457 162.042 83.8627C158.395 84.3748 156.176 85.7064 155.437 87.8573C153.677 92.9787 157.936 105.577 171.401 122.247C184.765 138.789 202.769 154.102 220.774 164.268L216.77 173.128Z" fill="#5479F7"/>
<path d="M216.771 173.973C216.618 173.973 216.49 173.948 216.363 173.871C197.338 163.116 178.313 146.933 164.159 129.443C155.412 118.611 141.462 98.305 146.358 84.0676C147.812 79.8424 151.51 74.5418 160.818 73.2358C167.398 72.3396 176.247 73.5687 187.111 76.9232C187.545 77.0513 187.8 77.4866 187.672 77.9475L185.326 87.4733C185.275 87.7038 185.122 87.883 184.918 88.011C184.714 88.1135 184.485 88.1647 184.255 88.0879C174.743 85.1687 167.296 84.042 162.119 84.759C158.804 85.2199 156.814 86.3722 156.202 88.1903C154.57 92.9276 158.829 105.449 172.014 121.787C185.326 138.252 203.229 153.488 221.132 163.603C221.514 163.808 221.667 164.294 221.489 164.678L217.536 173.461C217.434 173.666 217.255 173.845 217.026 173.922C216.949 173.948 216.847 173.973 216.771 173.973ZM165.332 74.6442C163.802 74.6442 162.399 74.7467 161.073 74.9259C152.607 76.1038 149.266 80.8411 147.965 84.6309C143.324 98.1258 156.942 117.843 165.46 128.393C179.282 145.499 197.771 161.324 216.363 171.951L219.652 164.678C201.801 154.487 184 139.276 170.713 122.836C156.1 104.758 152.913 92.5691 154.621 87.6269C155.488 85.1431 157.937 83.6066 161.915 83.0689C167.168 82.3519 174.564 83.4018 183.924 86.2186L185.862 78.3316C177.803 75.8734 170.917 74.6442 165.332 74.6442Z" fill="black"/>
<path d="M245.027 172.565C263.644 161.887 282.286 145.78 296.134 128.368C304.626 117.664 318.193 97.6649 313.501 83.786C312.149 79.7913 308.681 74.7467 299.934 73.5176C293.584 72.6213 285.015 73.8505 274.431 77.1538L276.726 86.6795C286.213 83.7091 293.66 82.5824 298.863 83.2994C302.458 83.8116 304.626 85.1431 305.366 87.2941C307.1 92.4155 302.917 105.014 289.656 121.684C276.497 138.226 258.798 153.539 241.1 163.705L245.027 172.565Z" fill="#5479F7"/>
<path d="M245.027 173.41C244.951 173.41 244.849 173.385 244.772 173.359C244.543 173.282 244.364 173.129 244.262 172.898L240.335 164.064C240.156 163.654 240.309 163.193 240.692 162.988C258.314 152.899 275.911 137.663 289.019 121.198C302 104.861 306.182 92.3387 304.576 87.6014C303.963 85.7834 302 84.631 298.761 84.1701C293.686 83.4531 286.341 84.5798 276.982 87.499C276.752 87.5758 276.523 87.5502 276.319 87.4222C276.115 87.3198 275.962 87.1149 275.911 86.8844L273.616 77.3587C273.514 76.9234 273.769 76.488 274.177 76.36C284.888 73.0055 293.584 71.7764 300.062 72.6726C309.242 73.953 312.864 79.2792 314.292 83.5043C319.112 97.7674 305.392 118.048 296.797 128.88C282.898 146.369 264.18 162.579 245.461 173.308C245.308 173.385 245.18 173.41 245.027 173.41ZM242.197 164.089L245.435 171.362C263.695 160.735 281.904 144.91 295.497 127.83C303.887 117.28 317.301 97.5369 312.711 84.0421C311.436 80.2523 308.146 75.515 299.832 74.3371C293.762 73.492 285.551 74.6187 275.452 77.7172L277.364 85.6041C286.571 82.8129 293.839 81.7375 299.016 82.4801C302.943 83.0178 305.366 84.5542 306.208 87.0381C307.891 91.9802 304.729 104.169 290.371 122.222C277.262 138.687 259.768 153.898 242.197 164.089Z" fill="black"/>
<path d="M230.746 181.707C278.92 182.244 279.456 113.515 289.809 58.7678L171.3 58.3325C180.889 114.642 182.648 182.603 230.746 181.707Z" fill="#5479F7"/>
<path d="M229.802 182.552C211.466 182.552 198.256 172.437 189.457 151.695C181.552 133.079 177.879 107.805 174.309 83.3505C173.11 75.1051 171.861 66.6036 170.484 58.4606C170.433 58.2045 170.509 57.9741 170.662 57.7692C170.815 57.59 171.07 57.4619 171.3 57.4619L289.809 57.8972C290.064 57.8972 290.294 57.9997 290.447 58.2045C290.6 58.4094 290.676 58.6654 290.625 58.8959C288.866 68.2168 287.361 78.1267 285.907 87.6781C282.363 111.006 278.69 135.102 270.963 152.873C262.292 172.821 249.311 182.526 231.281 182.526C231.103 182.526 230.924 182.526 230.72 182.526C230.44 182.552 230.108 182.552 229.802 182.552ZM172.32 59.1776C173.646 67.0389 174.819 75.2075 175.992 83.12C179.537 107.472 183.209 132.644 191.013 151.055C199.786 171.746 212.409 181.22 230.746 180.862H230.771C248.572 181.067 260.864 171.976 269.433 152.233C277.084 134.667 280.73 110.673 284.25 87.4732C285.652 78.2291 287.106 68.6777 288.789 59.6129L172.32 59.1776Z" fill="black"/>
<path d="M272.646 122.555C272.595 122.555 272.544 122.555 272.468 122.529C272.009 122.427 271.728 121.991 271.805 121.531C273.998 110.801 275.502 99.0733 276.93 87.7294C277.9 80.201 278.869 72.3909 280.067 64.9392C280.144 64.4783 280.577 64.171 281.036 64.2478C281.495 64.3247 281.801 64.76 281.725 65.2209C280.526 72.6469 279.557 80.4314 278.588 87.9599C277.135 99.3293 275.655 111.083 273.437 121.863C273.386 122.273 273.054 122.555 272.646 122.555Z" fill="black"/>
<path d="M231.792 176.355C231.409 176.355 231.052 176.073 230.976 175.689C230.874 175.228 231.18 174.793 231.613 174.691C249.848 170.798 261.579 158.174 268.541 134.897C268.668 134.462 269.153 134.206 269.586 134.334C270.02 134.462 270.275 134.949 270.147 135.384C262.981 159.301 250.842 172.335 231.97 176.355C231.894 176.355 231.843 176.355 231.792 176.355Z" fill="black"/>
<path d="M292.793 64.8624H169.489C167.296 64.8624 165.511 63.0699 165.511 60.8677V53.1856C165.511 50.9834 167.296 49.1909 169.489 49.1909H292.793C294.986 49.1909 296.772 50.9834 296.772 53.1856V60.8677C296.772 63.0699 294.986 64.8624 292.793 64.8624Z" fill="#5479F7"/>
<path d="M292.793 65.7074H169.489C166.837 65.7074 164.669 63.5308 164.669 60.8677V53.1857C164.669 50.5225 166.837 48.3459 169.489 48.3459H292.793C295.445 48.3459 297.613 50.5225 297.613 53.1857V60.8677C297.613 63.5308 295.445 65.7074 292.793 65.7074ZM169.489 50.0616C167.755 50.0616 166.352 51.47 166.352 53.2113V60.8933C166.352 62.6346 167.755 64.043 169.489 64.043H292.793C294.527 64.043 295.93 62.6346 295.93 60.8933V53.2113C295.93 51.47 294.527 50.0616 292.793 50.0616H169.489Z" fill="black"/>
<path d="M256.35 56.5145C255.891 56.5145 255.509 56.1304 255.509 55.6694C255.509 55.2085 255.866 54.8244 256.35 54.8244L280.935 54.5427C281.394 54.5427 281.776 54.9268 281.776 55.3878C281.776 55.8487 281.419 56.2328 280.935 56.2328L256.35 56.5145Z" fill="black"/>
<path d="M236.229 56.7451C235.77 56.7451 235.388 56.361 235.388 55.9C235.388 55.4391 235.745 55.055 236.229 55.055L249.924 54.9014C250.383 54.9014 250.766 55.2855 250.766 55.7464C250.766 56.2073 250.409 56.5914 249.924 56.5914L236.229 56.7451Z" fill="black"/>
<path d="M184.46 54.3892C184.001 54.3892 183.618 54.0051 183.618 53.5441V49.1653C183.618 48.7044 184.001 48.3203 184.46 48.3203C184.919 48.3203 185.301 48.7044 185.301 49.1653V53.5185C185.301 54.005 184.919 54.3892 184.46 54.3892Z" fill="white"/>
<path d="M184.46 64.5552C184.001 64.5552 183.618 64.1711 183.618 63.7101V59.3314C183.618 58.8704 184.001 58.4863 184.46 58.4863C184.919 58.4863 185.301 58.8704 185.301 59.3314V63.7101C185.301 64.1967 184.919 64.5552 184.46 64.5552Z" fill="white"/>
<path d="M181.552 57.2828H177.191C176.732 57.2828 176.35 56.8987 176.35 56.4378C176.35 55.9769 176.732 55.5928 177.191 55.5928H181.552C182.011 55.5928 182.394 55.9769 182.394 56.4378C182.394 56.8987 182.011 57.2828 181.552 57.2828Z" fill="white"/>
<path d="M191.702 57.2828H187.342C186.883 57.2828 186.5 56.8987 186.5 56.4378C186.5 55.9769 186.883 55.5928 187.342 55.5928H191.702C192.162 55.5928 192.544 55.9769 192.544 56.4378C192.544 56.8987 192.162 57.2828 191.702 57.2828Z" fill="white"/>
<path d="M320.794 300.267L328.445 378.957L333.902 378.726L331.173 295.99L320.794 300.267Z" fill="white"/>
<path d="M423.441 297.424L415.969 379.136L410.308 378.726L413.036 293.02L423.441 297.424Z" fill="white"/>
<path d="M449.428 278.194L447.235 364.003L442.823 363.055L438.794 274.122L449.428 278.194Z" fill="white"/>
<path d="M363.28 276.299L361.087 362.082L356.496 362.108L352.646 272.202L363.28 276.299Z" fill="white"/>
<path d="M385.416 209.285V229.259C385.416 248.771 370.09 264.622 351.167 264.622C332.244 264.622 316.917 280.447 316.917 299.985C316.917 301.726 318.32 303.135 320.054 303.135H410.74C439.099 303.135 462.102 279.397 462.102 250.128V207.493C462.102 195.842 452.947 186.418 441.675 186.418H407.604C395.337 186.418 385.416 196.661 385.416 209.285Z" fill="white"/>
<path d="M377.69 216.686C377.69 216.686 373.023 259.194 341.757 261.959L377.69 262.471C377.69 262.471 391.002 235.379 391.538 224.829C392.073 214.279 377.69 216.686 377.69 216.686Z" fill="white"/>
<path d="M377.69 263.316L341.757 262.804C341.298 262.804 340.941 262.446 340.915 261.985C340.89 261.524 341.247 261.14 341.68 261.114C371.901 258.425 376.797 216.993 376.848 216.584C376.899 216.2 377.18 215.892 377.537 215.841C377.868 215.79 385.749 214.535 389.905 218.248C391.665 219.836 392.507 222.064 392.354 224.88C391.818 235.482 378.965 261.754 378.429 262.855C378.302 263.137 378.021 263.316 377.69 263.316ZM349.459 261.216L377.18 261.601C378.939 257.939 390.211 234.252 390.696 224.752C390.824 222.448 390.186 220.732 388.809 219.477C385.851 216.84 380.291 217.198 378.455 217.403C378.098 219.913 376.593 229.182 372.232 238.606C366.8 250.334 359.022 258.016 349.459 261.216Z" fill="black"/>
<path d="M425.812 213.767C430.504 215.764 436.013 218.12 440.883 220.22C440.883 220.271 440.883 220.348 440.883 220.399L425.812 213.87V213.767Z" fill="white"/>
<path d="M441.752 221.705L424.997 214.458L424.895 212.487L426.119 213.024C431.984 215.508 437.059 217.685 441.191 219.477L441.675 219.682L441.752 221.705Z" fill="black"/>
<path d="M443.512 226.698C443.512 226.698 442.517 209.619 441.038 203.038C437.952 189.159 420.049 189.005 420.049 189.005L420.075 189.184C415.204 188.237 410.894 188.288 391.563 189.005C390.212 189.056 388.809 189.517 387.432 190.26V190.234C377.154 192.692 373.584 221.423 373.584 221.423L382.867 226.775C382.535 234.944 380.521 243.906 374.936 251.947C372.972 254.764 370.32 257.862 366.673 260.832C368.739 262.497 371.926 264.673 376.211 265.954C383.326 268.079 386.896 265.774 392.634 265.954C407.808 266.415 413.368 283.392 423.161 281.267C425.787 280.703 426.859 277.733 430.123 270.87C431.959 265.16 435.988 259.373 436.906 251.819C438.054 242.37 437.799 233.638 436.855 225.93L443.512 226.698Z" fill="white"/>
<path d="M421.452 282.317C417.218 282.317 413.674 279.141 409.95 275.787C405.385 271.69 400.208 267.055 392.583 266.824C390.594 266.773 388.809 267.029 387.1 267.26C383.938 267.721 380.674 268.182 375.93 266.773C372.436 265.723 369.121 263.957 366.112 261.498C365.908 261.345 365.806 261.089 365.806 260.832C365.806 260.576 365.908 260.346 366.112 260.167C369.248 257.606 371.977 254.661 374.221 251.435C378.914 244.649 381.541 236.506 381.974 227.211L373.125 222.115C372.819 221.936 372.666 221.603 372.717 221.27C372.87 220.066 376.466 191.95 387.177 189.364C388.656 188.57 390.109 188.16 391.487 188.109C410.282 187.417 414.949 187.341 419.641 188.211C419.769 188.16 419.896 188.109 420.024 188.109C420.202 188.109 438.615 188.416 441.828 202.782C443.282 209.363 444.277 225.879 444.328 226.596C444.353 226.852 444.251 227.083 444.073 227.262C443.894 227.441 443.639 227.518 443.409 227.492L437.773 226.826C438.717 235.2 438.692 243.625 437.697 251.87C437.085 256.889 435.121 261.217 433.387 265.032C432.418 267.132 431.525 269.129 430.888 271.101C430.888 271.126 430.862 271.178 430.837 271.203C430.48 271.971 430.148 272.688 429.817 273.354C427.215 278.937 426.017 281.472 423.288 282.061C422.676 282.265 422.038 282.317 421.452 282.317ZM391.997 265.134C392.201 265.134 392.43 265.134 392.634 265.134C400.871 265.391 406.303 270.23 411.072 274.532C415.178 278.22 418.698 281.395 422.957 280.447C424.869 280.038 425.94 277.733 428.312 272.663C428.618 271.997 428.95 271.306 429.307 270.563C429.97 268.515 430.888 266.517 431.857 264.366C433.617 260.474 435.453 256.479 436.014 251.691C437.034 243.241 437.008 234.585 435.963 226.007C435.937 225.751 436.014 225.495 436.192 225.316C436.371 225.136 436.626 225.034 436.881 225.06L442.593 225.725C442.364 221.961 441.446 208.748 440.196 203.191C437.569 191.412 423.441 190.004 420.559 189.85C420.381 189.978 420.126 190.055 419.896 190.004C415.178 189.082 410.97 189.133 391.563 189.824C390.39 189.876 389.14 190.26 387.814 190.977C387.687 191.054 387.559 191.079 387.406 191.079C378.71 193.486 375.038 217.019 374.476 220.937L383.275 226.007C383.555 226.161 383.708 226.468 383.708 226.775C383.326 236.608 380.597 245.238 375.624 252.408C373.482 255.481 370.932 258.297 367.999 260.807C370.626 262.804 373.456 264.238 376.415 265.134C380.776 266.44 383.734 266.005 386.845 265.57C388.452 265.365 390.109 265.134 391.997 265.134Z" fill="black"/>
<path d="M354.966 262.164L340.965 220.732C340.124 219.426 338.67 218.658 337.089 218.658H299.779C298.096 218.658 296.999 220.297 297.56 221.756C297.79 222.345 298.019 222.908 298.198 223.497L310.847 262.215C310.898 264.468 312.734 266.312 314.978 266.312H383.835C386.13 266.312 387.966 264.443 387.966 262.138H354.966V262.164Z" fill="white"/>
<path d="M383.835 267.157H314.979C312.326 267.157 310.133 265.032 310.006 262.394L297.382 223.754C297.255 223.344 297.102 222.934 296.923 222.55L296.744 222.064C296.387 221.116 296.515 220.041 297.102 219.196C297.714 218.325 298.683 217.813 299.754 217.813H337.064C338.925 217.813 340.634 218.735 341.654 220.297C341.705 220.348 341.731 220.425 341.756 220.476L355.553 261.319H387.967C388.426 261.319 388.808 261.703 388.808 262.164C388.834 264.929 386.589 267.157 383.835 267.157ZM311.638 261.882C311.689 261.985 311.714 262.087 311.714 262.215C311.74 264.008 313.219 265.467 315.004 265.467H383.861C385.391 265.467 386.666 264.417 387.048 263.009H354.966C354.609 263.009 354.278 262.778 354.176 262.446L340.201 221.116C339.512 220.092 338.339 219.503 337.089 219.503H299.779C299.269 219.503 298.785 219.733 298.504 220.169C298.224 220.553 298.173 221.039 298.326 221.475L298.504 221.961C298.657 222.371 298.836 222.806 298.989 223.267L311.638 261.882Z" fill="black"/>
<path d="M327.221 239.886C327.757 241.653 326.94 243.445 325.436 243.906C323.931 244.367 322.274 243.317 321.738 241.576C321.202 239.809 322.018 238.017 323.523 237.556C325.053 237.069 326.711 238.119 327.221 239.886Z" fill="black"/>
<path d="M426.986 223.241C421.835 242.114 408.242 252.971 386.004 259.321L387.687 264.392C418.596 263.29 436.244 252.484 442.721 226.621L426.986 223.241Z" fill="white"/>
<path d="M387.075 265.262L384.907 258.758L385.749 258.528C408.777 251.947 421.248 241.013 426.145 223.037L426.349 222.268L443.69 226.007L443.486 226.852C437.111 252.28 419.897 264.136 387.661 265.262H387.075ZM387.075 259.885L388.274 263.521C418.876 262.292 435.376 251.076 441.676 227.262L427.573 224.24C422.472 241.934 409.568 253.278 387.075 259.885Z" fill="black"/>
<path d="M390.747 260.09C390.441 259.475 389.905 258.989 389.242 258.758C388.783 258.579 388.324 258.374 387.89 258.144L381.846 254.917C380.724 254.354 379.092 255.66 377.919 256.044C374.374 257.222 367.004 259.962 367.616 262.574C368.279 265.365 374.578 264.059 376.822 263.47C377.332 263.342 381.974 265.032 383.453 265.134C385.493 265.288 385.952 264.776 386.947 264.238C387.406 264.008 387.89 263.879 388.451 263.879C389.293 263.879 390.084 263.521 390.594 262.855V262.83C391.18 262.113 391.282 261.114 390.849 260.295L390.747 260.09Z" fill="white"/>
<path d="M384.117 266.03C383.887 266.03 383.657 266.03 383.377 266.005C382.535 265.928 380.929 265.467 379.373 265.006C378.48 264.75 377.282 264.392 376.925 264.34C374.477 264.955 370.141 265.749 368.025 264.443C367.387 264.059 366.953 263.47 366.775 262.778C366.214 260.346 369.861 257.811 377.639 255.25C377.919 255.148 378.302 254.968 378.685 254.789C379.73 254.251 381.056 253.611 382.204 254.174L388.273 257.401C388.758 257.657 389.166 257.836 389.523 257.964C390.365 258.272 391.053 258.886 391.487 259.706L391.614 259.936C392.175 261.063 392.048 262.42 391.257 263.393C390.569 264.238 389.549 264.725 388.452 264.75C388.018 264.75 387.661 264.827 387.33 265.006C387.177 265.083 387.049 265.16 386.922 265.237C386.233 265.646 385.57 266.03 384.117 266.03ZM376.899 262.625C377.333 262.625 378.047 262.83 379.883 263.367C381.209 263.751 382.867 264.264 383.53 264.315C384.984 264.417 385.417 264.161 386.106 263.777C386.259 263.7 386.412 263.598 386.565 263.521C387.126 263.239 387.763 263.086 388.452 263.086C389.064 263.086 389.6 262.83 389.957 262.394C390.339 261.908 390.39 261.268 390.135 260.755L390.008 260.525C389.778 260.09 389.421 259.757 388.987 259.603C388.554 259.449 388.069 259.219 387.508 258.937L381.464 255.711C381.082 255.506 380.164 255.967 379.45 256.325C379.016 256.556 378.608 256.761 378.174 256.889C371.136 259.219 368.203 261.37 368.433 262.42C368.484 262.676 368.637 262.881 368.917 263.034C370.065 263.726 373.023 263.598 376.644 262.702C376.695 262.625 376.797 262.625 376.899 262.625Z" fill="black"/>
<path d="M362.44 358.881C361.573 357.985 356.523 342.211 356.523 342.211L346.552 349.356L357.492 364.131L362.44 358.881Z" fill="white"/>
<path d="M357.493 364.976C357.467 364.976 357.467 364.976 357.442 364.976C357.187 364.95 356.957 364.848 356.804 364.643L345.863 349.868C345.736 349.688 345.685 349.458 345.71 349.227C345.736 348.997 345.864 348.792 346.042 348.664L356.013 341.52C356.243 341.366 356.524 341.315 356.779 341.417C357.034 341.494 357.238 341.699 357.314 341.955C359.66 349.279 362.466 357.524 363.078 358.343C363.409 358.676 363.358 359.163 363.052 359.496L358.079 364.745C357.926 364.873 357.722 364.976 357.493 364.976ZM347.725 349.535L357.544 362.825L361.394 358.753C360.221 356.321 357.748 348.818 356.064 343.568L347.725 349.535Z" fill="black"/>
<path d="M344.461 378.829L351.091 378.778C355.478 378.752 359.558 376.499 361.955 372.812L368.509 362.364C370.32 359.47 369.3 355.655 366.316 354.042C363.588 352.582 360.706 351.148 360.043 351.225C358.666 351.353 358.13 357.857 358.13 357.857L352.213 358.088C352.213 358.088 349.281 370.302 346.73 371.685C344.869 372.683 343.543 374.169 342.676 375.526C341.757 376.96 342.778 378.855 344.461 378.829Z" fill="black"/>
<path d="M345.124 377.088C344.716 377.088 344.359 376.781 344.282 376.371C344.206 375.91 344.538 375.475 344.997 375.398L354.075 374.015C355.861 373.734 357.442 372.684 358.36 371.122L366.368 357.653C366.597 357.243 367.133 357.115 367.515 357.371C367.923 357.601 368.051 358.139 367.796 358.523L359.788 371.992C358.589 373.99 356.6 375.347 354.305 375.68L345.226 377.063C345.226 377.088 345.175 377.088 345.124 377.088Z" fill="white"/>
<path d="M356.345 366.948C356.268 366.948 356.192 366.948 356.115 366.922L351.066 365.539C350.607 365.411 350.352 364.95 350.479 364.489C350.607 364.028 351.066 363.772 351.525 363.9L356.574 365.283C357.033 365.411 357.288 365.872 357.161 366.333C357.033 366.717 356.702 366.948 356.345 366.948Z" fill="white"/>
<path d="M353.693 369.559C353.616 369.559 353.565 369.559 353.489 369.534L350.097 368.689C349.638 368.586 349.357 368.125 349.485 367.665C349.587 367.204 350.046 366.922 350.505 367.05L353.897 367.895C354.356 367.997 354.636 368.458 354.509 368.919C354.432 369.303 354.075 369.559 353.693 369.559Z" fill="white"/>
<path d="M328.394 355.859L316.816 367.562L310.67 365.283L321.355 350.328L328.394 355.859Z" fill="white"/>
<path d="M316.817 368.407C316.715 368.407 316.613 368.381 316.536 368.356L310.39 366.077C310.135 365.974 309.956 365.795 309.88 365.539C309.803 365.283 309.854 365.001 310.007 364.796L320.693 349.816C320.82 349.637 321.024 349.509 321.254 349.483C321.483 349.458 321.713 349.509 321.892 349.663L328.93 355.194C329.109 355.347 329.236 355.578 329.262 355.808C329.287 356.039 329.185 356.295 329.007 356.448L317.429 368.151C317.25 368.33 317.046 368.407 316.817 368.407ZM311.997 364.873L316.587 366.563L327.119 355.936L321.509 351.532L311.997 364.873Z" fill="black"/>
<path d="M389.728 269.487C389.728 269.487 336.785 262.958 321.05 277.4C305.315 291.817 345.889 353.862 345.889 353.862L358.717 343.773L346.552 299.934L395.491 285.21L389.728 269.487Z" fill="#5479F7"/>
<path d="M418.852 298.039C411.151 300.625 397.405 303.954 378.176 303.673C372.719 303.596 367.669 306.797 365.195 311.944C359.508 323.774 347.165 345.053 327.095 358.856L317.506 353.376L341.988 295.043C344.232 289.717 348.415 285.569 353.566 283.571L402.097 264.75C402.097 264.75 417.144 260.295 424.514 274.506C425.84 277.041 428.288 272.509 428.849 274.558C430.839 281.599 425.458 295.811 418.852 298.039Z" fill="#5479F7"/>
<path d="M330.893 324.158C330.791 324.158 330.664 324.133 330.562 324.081C330.128 323.902 329.95 323.39 330.128 322.955L341.196 297.911C343.517 292.662 347.903 288.539 353.259 286.567L376.492 278.015C376.925 277.861 377.41 278.066 377.563 278.527C377.716 278.962 377.512 279.449 377.053 279.602L353.82 288.155C348.898 289.973 344.843 293.788 342.726 298.603L331.658 323.646C331.531 323.979 331.225 324.158 330.893 324.158Z" fill="white"/>
<path d="M343.824 345.694C343.62 345.694 343.416 345.617 343.237 345.463C342.906 345.13 342.88 344.592 343.212 344.26C345.405 341.955 347.573 339.497 349.638 336.91C349.919 336.552 350.455 336.501 350.812 336.782C351.169 337.064 351.22 337.602 350.939 337.96C348.848 340.572 346.629 343.082 344.41 345.412C344.257 345.591 344.028 345.694 343.824 345.694Z" fill="white"/>
<path d="M350.301 338.293C350.123 338.293 349.919 338.242 349.766 338.114C349.408 337.832 349.357 337.295 349.638 336.936C350.658 335.681 351.678 334.35 352.647 333.018C352.928 332.634 353.463 332.557 353.82 332.839C354.203 333.121 354.279 333.658 353.999 334.017C353.004 335.374 351.984 336.706 350.939 337.986C350.786 338.165 350.556 338.293 350.301 338.293Z" fill="white"/>
<path d="M320.488 365.744C320.488 365.744 321.049 370.712 320.106 375.116C319.596 377.472 317.505 379.111 315.107 379.111H286.672C284.632 379.111 283.714 376.55 285.27 375.244C290.319 370.993 299.627 364.489 311.053 362.569L314.24 367.05L320.488 365.744Z" fill="black"/>
<path d="M317.479 376.012H288.023C287.564 376.012 287.182 375.628 287.182 375.167C287.182 374.706 287.564 374.322 288.023 374.322H317.479C317.938 374.322 318.32 374.706 318.32 375.167C318.32 375.628 317.938 376.012 317.479 376.012Z" fill="white"/>
<path d="M304.447 370.763C304.115 370.763 303.809 370.558 303.656 370.251L302.101 366.435C301.922 366 302.126 365.513 302.56 365.334C302.993 365.155 303.478 365.36 303.656 365.795L305.212 369.61C305.391 370.046 305.187 370.532 304.753 370.712C304.676 370.737 304.574 370.763 304.447 370.763Z" fill="white"/>
<path d="M299.321 371.761C298.964 371.761 298.632 371.531 298.53 371.173L297.408 367.741C297.255 367.306 297.51 366.819 297.944 366.666C298.377 366.512 298.862 366.768 299.015 367.203L300.137 370.635C300.29 371.07 300.035 371.557 299.601 371.71C299.499 371.736 299.423 371.761 299.321 371.761Z" fill="white"/>
<path d="M284.02 265.416H460.649C463.939 265.416 466.489 268.514 466.132 272.074L453.942 388.15H445.144L452.769 279.193C452.897 277.272 451.494 275.633 449.734 275.633H298.123C295.47 275.633 293.379 278.091 293.583 280.959L301.132 388.816H292.334L279.939 270.409C279.608 267.746 281.546 265.416 284.02 265.416Z" fill="white"/>
<path d="M416.325 186.88L413.622 173.846L403.931 180.939L405.333 188.621C405.741 190.669 407.654 191.566 407.654 191.566C410.077 192.82 413.035 192.052 414.999 190.157L415.458 189.722C416.223 189.005 416.554 187.929 416.325 186.88Z" fill="white"/>
<path d="M410.255 193.051C409.235 193.051 408.215 192.82 407.297 192.334C407.246 192.308 405.027 191.258 404.517 188.825L403.115 181.118C403.064 180.811 403.191 180.478 403.446 180.273L413.137 173.18C413.367 173 413.673 172.975 413.928 173.077C414.183 173.18 414.387 173.41 414.438 173.692L417.141 186.726C417.421 188.057 417.013 189.414 416.044 190.362L415.585 190.797C414.081 192.257 412.142 193.051 410.255 193.051ZM404.874 181.323L406.175 188.493C406.481 190.08 408.011 190.797 408.037 190.823C410 191.847 412.627 191.335 414.438 189.594L414.897 189.158C415.458 188.621 415.687 187.852 415.534 187.084L413.086 175.331L404.874 181.323Z" fill="black"/>
<path d="M396.025 159.506C398.805 158.891 395.745 162.374 405.665 157.662C409.618 155.793 408.292 160.991 409.312 160.504C413.112 158.712 412.959 158.789 414.999 158.968C416.351 159.096 417.549 161.349 417.6 163.167C417.651 165.575 415.815 166.471 414.923 171.695C414.285 175.356 414.923 177.431 413.596 178.173C412.27 178.916 410.944 177.174 409.44 177.866C407.501 178.762 408.47 182.245 406.711 184.037C405.614 185.164 402.758 186.06 397.734 184.524C396.918 184.268 396.382 183.474 396.484 182.629C396.612 181.528 396.765 180.145 397.02 178.839C398.27 172.616 400.131 170.952 399.137 169.544C397.606 167.393 393.424 169.441 392.378 167.623C391.307 165.754 392.225 160.325 396.025 159.506Z" fill="black"/>
<path d="M407.477 168.084L406.916 169.723C406.661 170.491 406.431 171.285 406.278 172.079C405.972 173.59 405.462 176.176 405.054 177.584C404.468 179.684 397.888 178.276 397.888 178.276L397.327 177.123L396.562 176.944C396.409 176.918 396.281 176.842 396.154 176.739C395.873 176.483 395.822 176.073 395.95 175.766C396.766 173.999 398.449 170.056 398.73 166.727C398.755 166.727 403.142 164.806 407.477 168.084Z" fill="white"/>
<path d="M401.891 179.582C400.234 179.582 398.551 179.274 397.734 179.095C397.479 179.044 397.275 178.865 397.148 178.634L396.765 177.84L396.383 177.764C396.077 177.687 395.796 177.559 395.592 177.354C395.057 176.842 394.904 176.073 395.21 175.408C395.924 173.871 397.632 169.902 397.913 166.65C397.938 166.343 398.142 166.061 398.423 165.959C398.627 165.882 403.319 163.885 407.986 167.393C408.267 167.623 408.394 168.007 408.267 168.34L407.706 169.979C407.451 170.722 407.247 171.464 407.094 172.232C406.813 173.692 406.278 176.33 405.844 177.815C405.462 179.198 403.702 179.582 401.891 179.582ZM398.474 177.533C401.279 178.071 404.059 177.994 404.238 177.354C404.646 175.945 405.181 173.334 405.462 171.925C405.615 171.08 405.844 170.261 406.125 169.441L406.482 168.417C403.498 166.471 400.616 167.034 399.545 167.367C399.137 170.619 397.632 174.23 396.74 176.15L397.53 176.33C397.785 176.381 397.989 176.56 398.091 176.79L398.474 177.533Z" fill="black"/>
<path d="M407.171 173.538C407.171 173.538 408.523 169.595 410.18 170.594C411.838 171.592 410.231 175.894 407.171 173.538Z" fill="white"/>
<path d="M399.241 183.499C398.833 183.499 398.476 183.218 398.425 182.808C398.348 182.347 398.654 181.912 399.088 181.835L405.03 180.734C407.784 180.222 409.748 177.789 409.697 174.972L409.646 171.874C409.646 171.413 410.003 171.029 410.487 171.003C410.487 171.003 410.487 171.003 410.513 171.003C410.972 171.003 411.355 171.362 411.355 171.848L411.406 174.947C411.457 178.608 408.906 181.732 405.361 182.398L399.419 183.499C399.343 183.499 399.292 183.499 399.241 183.499Z" fill="#5479F7"/>
<path d="M412.604 171.823C412.222 171.823 411.865 171.541 411.788 171.157C411.763 171.029 409.085 158.353 403.118 159.301C402.658 159.378 402.225 159.07 402.148 158.609C402.072 158.148 402.378 157.713 402.837 157.636C410.437 156.433 413.318 170.235 413.42 170.824C413.522 171.285 413.216 171.72 412.757 171.823C412.732 171.823 412.655 171.823 412.604 171.823Z" fill="#5479F7"/>
<path d="M398.577 183.218C398.016 182.398 398.271 181.272 399.087 180.708C399.929 180.145 401.051 180.35 401.586 181.195C402.147 182.014 401.892 183.141 401.076 183.704C400.235 184.242 399.113 184.037 398.577 183.218Z" fill="#5479F7"/>
<path d="M404.851 173.564C403.422 170.67 404.391 167.264 407.018 165.933C407.299 165.779 408.421 165.37 408.727 165.267C411.175 164.576 413.113 166.189 414.388 168.75C415.766 171.515 415.613 174.639 413.215 176.048C413.113 176.099 412.374 176.432 412.272 176.483C409.237 177.584 406.279 176.457 404.851 173.564Z" fill="white"/>
<path d="M406.024 173.052C404.647 170.133 405.693 166.727 408.345 165.472C410.997 164.192 414.262 165.523 415.639 168.443C417.016 171.362 415.97 174.767 413.318 176.022C410.666 177.303 407.376 175.971 406.024 173.052Z" fill="#5479F7"/>
<path d="M284.02 265.416H460.649C463.939 265.416 466.489 268.514 466.132 272.074L453.942 388.15H445.144L452.769 279.193C452.897 277.272 451.494 275.633 449.734 275.633H298.123C295.47 275.633 293.379 278.091 293.583 280.959L301.132 388.816H292.334L279.939 270.409C279.608 267.746 281.546 265.416 284.02 265.416Z" fill="white"/>
<path d="M284.02 265.416H460.649C463.939 265.416 466.489 268.514 466.132 272.074L453.942 388.15H445.144L452.769 279.193C452.897 277.272 451.494 275.633 449.734 275.633H298.123C295.47 275.633 293.379 278.091 293.583 280.959L301.132 388.816H292.334L279.939 270.409C279.608 267.746 281.546 265.416 284.02 265.416Z" fill="white"/>
<path d="M457.716 352.889C457.691 352.889 457.665 352.889 457.614 352.889C457.155 352.838 456.824 352.428 456.875 351.967L465.291 271.971C465.444 270.435 464.985 268.898 463.99 267.797C463.097 266.799 461.924 266.261 460.675 266.261H284.045C283.152 266.261 282.311 266.645 281.699 267.336C280.985 268.13 280.653 269.231 280.755 270.332L287.564 335.374C287.615 335.835 287.284 336.245 286.825 336.296C286.366 336.347 285.958 336.014 285.907 335.553L279.098 270.512C278.919 268.924 279.429 267.362 280.449 266.21C281.393 265.16 282.668 264.571 284.045 264.571H460.675C462.409 264.571 464.041 265.313 465.24 266.671C466.566 268.13 467.178 270.153 466.974 272.176L458.558 352.172C458.507 352.582 458.15 352.889 457.716 352.889Z" fill="black"/>
<path d="M447.822 350.354C447.797 350.354 447.771 350.354 447.771 350.354C447.312 350.328 446.955 349.919 446.981 349.458L451.903 279.167C451.954 278.424 451.699 277.707 451.24 277.195C450.831 276.76 450.27 276.504 449.709 276.504H298.098C297.128 276.504 296.185 276.913 295.496 277.682C294.706 278.527 294.298 279.73 294.374 280.934L298.531 340.188C298.557 340.649 298.225 341.059 297.741 341.084C297.281 341.11 296.873 340.777 296.848 340.291L292.691 281.036C292.564 279.346 293.15 277.707 294.247 276.504C295.267 275.403 296.618 274.788 298.072 274.788H449.684C450.729 274.788 451.724 275.223 452.438 276.017C453.229 276.862 453.637 278.04 453.56 279.244L448.638 349.535C448.638 349.996 448.256 350.354 447.822 350.354Z" fill="black"/>
<mask id="mask0_770_2800" style="mask-type:luminance" maskUnits="userSpaceOnUse" x="0" y="150" width="422" height="311">
<path d="M421.096 150.492H0V460.336H421.096V150.492Z" fill="white"/>
</mask>
<g mask="url(#mask0_770_2800)">
<path d="M310.44 462C297.434 439.517 273.615 424.46 246.378 424.46C205.192 424.46 171.835 390.045 171.835 347.614V304.21C171.835 276.76 150.26 254.533 123.635 254.533H49.4487C24.8899 254.533 4.99805 275.044 4.99805 300.369V392.964C4.99805 418.878 13.2863 442.769 27.2871 462.026H310.44V462Z" fill="#DDDEDF"/>
<path d="M166.939 429.94H149.062V462H166.939V429.94Z" fill="#5479F7"/>
<path d="M298.99 462C298.174 455.777 295.904 450.631 291.722 446.994C258.645 418.263 147.454 431.246 147.454 431.246L135.57 462H298.99Z" fill="black"/>
<path d="M229.215 462C227.353 460.976 225.415 460.079 223.4 459.362L121.493 421.848C121.493 421.848 89.8952 412.988 74.3898 441.31C71.6355 446.38 66.484 437.315 65.2599 441.412C63.6277 446.866 64.3418 454.497 66.637 462.026H229.215V462Z" fill="black"/>
<path d="M174.334 442.18L223.145 460.156C224.599 460.694 226.027 461.308 227.404 462H230.898C228.628 460.643 226.231 459.49 223.732 458.569L174.92 440.592C174.487 440.439 174.002 440.644 173.849 441.105C173.67 441.54 173.9 442.026 174.334 442.18Z" fill="white"/>
<path d="M172.702 341.058C172.702 341.058 182.495 430.222 248.163 436.06L172.702 437.136C172.702 437.136 144.777 380.288 143.629 358.164C142.507 336.039 172.702 341.058 172.702 341.058Z" fill="white"/>
<path d="M172.702 437.981C172.371 437.981 172.09 437.801 171.937 437.52C170.789 435.189 143.91 380.263 142.788 358.215C142.507 352.633 144.139 348.203 147.633 345.079C156.023 337.55 172.166 340.137 172.855 340.239C173.238 340.29 173.518 340.597 173.544 340.982C173.569 341.212 176.094 363.439 186.575 386.075C196.215 406.868 214.704 432.27 248.215 435.241C248.674 435.292 249.005 435.676 248.98 436.111C248.954 436.572 248.597 436.931 248.138 436.931L172.702 437.981C172.728 437.981 172.728 437.981 172.702 437.981ZM165.765 341.442C160.461 341.442 153.269 342.313 148.755 346.333C145.669 349.099 144.216 353.068 144.496 358.138C145.542 378.777 170.56 430.759 173.238 436.316L238.345 435.394C227.124 432.782 216.974 427.431 208.125 419.416C199.046 411.221 191.293 400.236 185.071 386.767C175.482 366.076 172.473 345.719 171.988 341.852C170.917 341.673 168.596 341.442 165.765 341.442Z" fill="black"/>
<path d="M57.6858 456.699C58.6038 458.645 59.5474 460.412 60.4655 462H105.783C115.092 453.703 125.828 444.997 141.385 444.51C153.422 444.152 160.945 448.966 175.889 444.51C184.892 441.822 191.599 437.264 195.909 433.755C188.233 427.533 182.648 421.029 178.542 415.088C166.913 398.341 162.628 379.699 161.889 362.671C162.322 362.978 162.909 363.055 163.444 362.722L181.372 351.02C181.372 351.02 173.875 290.715 152.3 285.568C152.3 285.594 152.325 285.619 152.325 285.645C149.443 284.057 146.485 283.084 143.629 282.982C97.3165 281.292 92.012 281.343 79.2608 284.339C64.2399 287.873 61.6131 306.259 59.3689 313.352C51.7692 335.835 43.2769 371.684 48.4794 414.73C50.3666 430.683 53.8094 444.715 57.6858 456.699Z" fill="#FF722C"/>
<path d="M327.782 345.207H249.413C246.123 345.207 243.037 346.846 241.278 349.586L211.873 436.47H142.507V437.776C142.507 441.873 145.822 445.202 149.903 445.202H297.102C301.183 445.202 304.498 441.873 304.498 437.776V436.623L331.072 355.373C331.48 354.144 331.964 352.94 332.423 351.711C333.622 348.689 331.327 345.207 327.782 345.207Z" fill="black"/>
<path d="M270.121 389.763C269.024 393.45 270.708 397.214 273.895 398.162C277.083 399.135 280.552 396.933 281.674 393.245C282.77 389.558 281.087 385.794 277.899 384.846C274.712 383.873 271.243 386.075 270.121 389.763Z" fill="white"/>
<path d="M279.047 437.494H227.966C227.507 437.494 227.124 437.11 227.124 436.649C227.124 436.188 227.507 435.804 227.966 435.804H279.021C279.48 435.804 279.863 436.188 279.863 436.649C279.863 437.11 279.506 437.494 279.047 437.494Z" fill="white"/>
<path d="M305.034 437.494H295.98C295.521 437.494 295.139 437.11 295.139 436.649C295.139 436.188 295.521 435.804 295.98 435.804H305.034C305.493 435.804 305.875 436.188 305.875 436.649C305.875 437.11 305.493 437.494 305.034 437.494Z" fill="white"/>
<path d="M188.105 428.865C183.616 421.823 175.379 418.238 170.865 418.494C150.285 419.672 110.577 398.751 81.0456 388.636C75.9196 381.159 79.6429 364.822 77.3222 345.232L39.6552 348.51C35.9063 367.203 37.3345 398.93 40.5733 403.13C42.7155 408.277 54.4466 423.231 78.2403 434.882C115.423 453.089 165.203 441.182 165.203 441.182C165.203 441.182 190.425 454.574 201.34 440.029C201.366 440.004 192.593 435.907 188.105 428.865Z" fill="white"/>
<path d="M186.243 447.66C176.629 447.66 166.963 442.974 165.127 442.027C160.843 442.974 113.408 452.961 77.909 435.599C52.8402 423.334 41.8486 408.072 39.8849 403.514C36.3401 398.546 35.167 366.665 38.8648 348.305C38.9413 347.947 39.2474 347.665 39.6299 347.64L77.297 344.362C77.756 344.311 78.164 344.644 78.215 345.104C79.1841 353.171 79.1076 360.673 79.0566 367.254C78.9801 376.422 78.9291 383.669 81.6324 387.894C90.9662 391.095 101.499 395.448 111.7 399.673C133.096 408.533 155.207 417.649 169.208 417.649C169.769 417.649 170.33 417.623 170.865 417.598C176.042 417.316 184.407 421.336 188.87 428.353C193.154 435.113 201.698 439.133 201.774 439.184C202.004 439.287 202.182 439.492 202.233 439.748C202.284 440.004 202.233 440.26 202.08 440.465C197.974 445.919 192.109 447.66 186.243 447.66ZM165.229 440.311C165.357 440.311 165.51 440.337 165.612 440.413C165.841 440.541 189.38 452.782 200.04 440.285C197.592 439.005 191.114 435.19 187.391 429.326C183.03 422.463 175.022 419.108 170.891 419.365C170.33 419.39 169.743 419.416 169.157 419.416C154.824 419.416 132.561 410.223 110.986 401.312C100.734 397.061 90.0992 392.682 80.7653 389.481C80.5868 389.43 80.4338 389.302 80.3317 389.148C77.1694 384.514 77.2205 376.908 77.297 367.306C77.348 360.981 77.399 353.836 76.5574 346.18L40.344 349.33C36.7736 367.895 38.3038 398.853 41.2366 402.643C41.2876 402.694 41.3131 402.771 41.3386 402.822C43.5828 408.2 55.6454 422.898 78.5976 434.14C115.092 452.013 164.515 440.49 165 440.388C165.102 440.311 165.178 440.311 165.229 440.311Z" fill="black"/>
<path d="M196.877 441.489C195.219 441.489 188.665 440.874 179.076 432.142C178.719 431.835 178.719 431.297 179.025 430.939C179.331 430.58 179.867 430.58 180.224 430.888C190.501 440.26 197.055 439.799 197.132 439.799C197.591 439.748 197.999 440.106 198.05 440.567C198.101 441.028 197.77 441.438 197.31 441.489C197.259 441.463 197.106 441.489 196.877 441.489Z" fill="black"/>
<path d="M190.323 444.92C188.359 444.92 182.749 444.229 174.818 437.289C174.461 436.982 174.435 436.444 174.741 436.086C175.047 435.727 175.583 435.702 175.94 436.009C184.993 443.921 190.782 443.204 190.833 443.179C191.292 443.128 191.726 443.435 191.777 443.896C191.853 444.357 191.547 444.792 191.088 444.869C191.012 444.869 190.757 444.92 190.323 444.92Z" fill="black"/>
<path d="M34.963 362.056C34.7079 362.082 34.5039 361.877 34.5039 361.621C34.7589 357.344 36.7991 325.336 39.6554 312.43C46.133 283.315 86.1463 283.264 86.1463 283.264C78.7761 308.205 76.4044 332.122 78.7506 355.091C78.9036 356.499 77.8835 357.754 76.4809 357.908L34.963 362.056Z" fill="#FF722C"/>
<path d="M108.512 274.788L81.5557 283.801C133.759 299.498 146.332 283.801 146.332 283.801L138.86 279.397L142.226 271.561C145.669 273.2 148.908 274.993 151.33 273.994C156.966 271.664 160.052 262.24 160.052 262.24L162.602 262.573C162.985 262.625 163.367 262.496 163.648 262.266C163.928 262.01 164.107 261.651 164.107 261.267C164.26 256.146 164.056 252.305 165.51 247.952C166.938 243.65 168.034 243.701 169.36 233.253L146.153 217.505L134.346 234.995C134.346 234.995 132.331 230.257 127.97 231.871C124.808 233.049 123.38 243.138 126.338 245.135L108.512 274.788Z" fill="white"/>
<path d="M121.671 291.688C111.98 291.688 98.8716 289.921 81.3259 284.646C80.9689 284.544 80.7394 284.211 80.7139 283.853C80.7139 283.494 80.9434 283.161 81.3004 283.033L107.976 274.096L125.292 245.289C123.609 243.368 123.889 239.527 124.042 238.298C124.374 235.481 125.547 231.896 127.715 231.077C130.928 229.873 133.223 231.666 134.447 233.381L145.49 217.019C145.745 216.634 146.281 216.532 146.663 216.788L169.87 232.536C170.125 232.716 170.278 233.023 170.227 233.356C169.233 241.166 168.34 243.291 167.397 245.519C167.065 246.313 166.708 247.107 166.351 248.208C165.178 251.742 165.127 254.866 165.05 258.835C165.025 259.628 165.025 260.422 164.999 261.267C164.974 261.882 164.693 262.471 164.234 262.881C163.775 263.29 163.138 263.47 162.526 263.393L160.638 263.162C159.797 265.416 156.788 272.688 151.687 274.788C149.137 275.838 146.077 274.352 142.838 272.79L142.685 272.714L139.956 279.064L146.791 283.11C146.995 283.238 147.148 283.443 147.199 283.699C147.25 283.929 147.173 284.186 147.02 284.39C146.638 284.8 140.798 291.688 121.671 291.688ZM84.3607 283.776C126.899 296.042 141.716 286.721 144.929 283.981L138.426 280.14C138.069 279.935 137.916 279.474 138.069 279.064L141.435 271.228C141.537 271.024 141.69 270.844 141.92 270.768C142.124 270.691 142.379 270.691 142.583 270.793C142.914 270.947 143.22 271.1 143.526 271.254C146.408 272.662 149.137 273.968 150.998 273.226C156.201 271.075 159.21 262.061 159.236 261.984C159.363 261.6 159.746 261.37 160.128 261.421L162.679 261.754C162.832 261.779 162.959 261.728 163.061 261.626C163.163 261.523 163.24 261.395 163.24 261.242C163.265 260.397 163.291 259.603 163.291 258.835C163.367 254.866 163.444 251.46 164.693 247.696C165.076 246.543 165.433 245.698 165.79 244.879C166.708 242.702 167.524 240.833 168.442 233.689L146.383 218.683L135.059 235.456C134.881 235.712 134.6 235.865 134.294 235.814C133.988 235.788 133.733 235.584 133.606 235.302C133.529 235.148 131.846 231.333 128.301 232.639C127.179 233.049 126.057 235.558 125.7 238.477C125.369 241.294 125.828 243.727 126.822 244.418C127.205 244.674 127.307 245.161 127.077 245.545L109.226 275.223C109.124 275.402 108.971 275.53 108.767 275.582L84.3607 283.776Z" fill="black"/>
<path d="M126.542 232.204C126.542 232.204 133.912 231.563 133.402 234.918C132.662 239.604 131.744 240.551 132.611 242.395C133.07 243.394 134.295 244.085 135.34 244.085C137.508 244.111 138.222 240.475 142.073 236.429C143.705 234.713 145.414 233.433 146.383 232.869C153.829 228.414 162.296 238.477 171.35 235.584C177.368 233.663 182.137 226.468 180.964 221.628C180.479 219.605 178.771 217.352 163.928 212.435C148.907 207.467 141.384 205.009 136.896 207.262C126.287 212.665 126.491 230.872 126.542 232.204Z" fill="black"/>
<path d="M142.226 272.406C142.047 272.406 141.894 272.355 141.741 272.253L135.799 268.053C133.02 266.107 131.617 262.778 132.076 259.398L132.306 257.759C132.382 257.298 132.79 256.965 133.249 257.042C133.708 257.119 134.04 257.529 133.963 257.99L133.734 259.629C133.351 262.369 134.499 265.057 136.743 266.645L142.685 270.844C143.068 271.1 143.144 271.638 142.889 272.022C142.762 272.278 142.507 272.406 142.226 272.406Z" fill="black"/>
<path d="M150.948 268.54C150.795 268.54 150.642 268.489 150.515 268.412L138.988 261.191C132.51 257.119 129.934 249.027 132.842 241.909L135.494 235.43C135.672 234.995 136.157 234.79 136.591 234.969C137.024 235.148 137.228 235.635 137.05 236.07L134.397 242.549C131.796 248.899 134.091 256.12 139.855 259.757L151.382 266.978C151.765 267.234 151.892 267.746 151.663 268.13C151.509 268.412 151.229 268.54 150.948 268.54Z" fill="#5479F7"/>
<path d="M127.307 237.146C127.23 237.146 127.128 237.12 127.052 237.094C126.618 236.941 126.363 236.48 126.516 236.019C126.95 234.662 137.457 202.96 154.467 207.749C154.926 207.877 155.181 208.338 155.054 208.799C154.926 209.26 154.467 209.516 154.008 209.388C138.528 205.06 128.2 236.249 128.098 236.557C127.995 236.941 127.664 237.146 127.307 237.146Z" fill="#5479F7"/>
<path d="M151.892 269.41C153.728 268.13 154.162 265.595 152.886 263.7C151.611 261.831 149.087 261.344 147.25 262.624C145.414 263.905 144.981 266.44 146.256 268.335C147.556 270.204 150.056 270.691 151.892 269.41Z" fill="#5479F7"/>
<path d="M145.439 244.776C149.724 238.144 148.321 229.566 142.277 225.597C141.614 225.162 139.038 223.83 138.324 223.523C132.561 221.167 127.409 224.521 123.609 230.411C119.503 236.787 119.019 244.367 124.451 248.515C124.68 248.694 126.389 249.693 126.644 249.821C133.683 253.329 141.155 251.409 145.439 244.776Z" fill="white"/>
<path d="M142.787 243.189C146.944 236.48 145.363 227.927 139.268 224.061C133.173 220.22 124.859 222.55 120.702 229.259C116.545 235.968 118.127 244.52 124.222 248.387C130.317 252.228 138.63 249.898 142.787 243.189Z" fill="#5479F7"/>
<path d="M75.4102 358.881C74.9767 358.881 74.6197 358.548 74.5686 358.113C74.5176 357.652 74.8492 357.242 75.3337 357.191L76.4048 357.089C76.8639 357.037 77.2464 356.832 77.5524 356.474C77.833 356.115 77.986 355.655 77.935 355.194C77.2974 348.92 77.0169 342.493 77.0679 336.091C77.0679 335.63 77.4504 335.246 77.9095 335.246C78.3685 335.246 78.751 335.63 78.751 336.091C78.6745 342.416 78.9551 348.792 79.5926 355.014C79.6946 355.936 79.4141 356.832 78.8531 357.524C78.292 358.215 77.4759 358.651 76.5833 358.753L75.5122 358.855C75.4612 358.881 75.4357 358.881 75.4102 358.881Z" fill="black"/>
<path d="M117.336 462L116.035 456.494H103.769L102.442 462H117.336Z" fill="white"/>
<path d="M103.309 462L104.431 457.339H115.372L116.469 462H118.203L116.851 456.29L116.698 455.649H103.105L101.575 462H103.309Z" fill="black"/>
<path d="M364.812 462L363.358 455.854L351.091 455.88L349.612 462H364.812Z" fill="white"/>
<path d="M350.479 462L351.754 456.725L362.695 456.699L363.945 462H365.679L364.174 455.675L364.021 455.009L350.403 455.035L348.745 462H350.479Z" fill="black"/>
<path d="M63.1364 459.984L406.552 459.984V443.57L63.1364 443.57V459.984Z" fill="white"/>
<path d="M406.559 460.822H63.1433C62.6843 460.822 62.3018 460.438 62.3018 459.977V443.563C62.3018 443.102 62.6843 442.718 63.1433 442.718H406.559C407.018 442.718 407.4 443.102 407.4 443.563V459.977C407.4 460.464 407.018 460.822 406.559 460.822ZM63.9849 459.132H405.717V444.408H63.9849V459.132Z" fill="black"/>
<path d="M167.117 456.981C166.658 456.981 166.275 456.597 166.275 456.136V446.994C166.275 446.533 166.658 446.149 167.117 446.149C167.576 446.149 167.959 446.533 167.959 446.994V456.136C167.959 456.597 167.576 456.981 167.117 456.981Z" fill="#5479F7"/>
</g>
<path d="M454.427 418.904H398.602C395.262 418.904 392.737 415.805 393.425 412.527L401.892 371.172C402.606 367.69 405.641 365.206 409.186 365.206H457.079L454.427 418.904Z" fill="white"/>
<path d="M454.427 419.749H398.603C396.741 419.749 395.007 418.929 393.859 417.47C392.686 416.036 392.227 414.166 392.609 412.348L401.076 370.993C401.867 367.152 405.284 364.335 409.186 364.335H457.08C457.309 364.335 457.539 364.438 457.692 364.591C457.845 364.771 457.947 364.975 457.921 365.206L455.269 418.904C455.243 419.39 454.861 419.749 454.427 419.749ZM409.186 366.051C406.075 366.051 403.346 368.279 402.708 371.351L394.242 412.681C393.961 414.013 394.293 415.37 395.16 416.394C396.001 417.444 397.276 418.033 398.603 418.033H453.637L456.187 366.025H409.186V366.051Z" fill="black"/>
<path d="M461.569 418.903H450.73C447.389 418.903 444.865 415.805 445.553 412.527L454.887 366.998C455.091 365.974 456.009 365.231 457.055 365.231H459.835C460.982 365.231 461.951 366.127 462.053 367.28L465.879 414.243C466.083 416.727 464.094 418.903 461.569 418.903Z" fill="#5479F7"/>
<path d="M461.569 419.748H450.73C448.869 419.748 447.135 418.929 445.987 417.469C444.814 416.035 444.355 414.166 444.737 412.348L454.071 366.819C454.352 365.385 455.627 364.361 457.081 364.361H459.86C461.441 364.361 462.793 365.59 462.921 367.177L466.746 414.14C466.873 415.574 466.363 417.008 465.394 418.058C464.4 419.134 462.997 419.748 461.569 419.748ZM457.055 366.051C456.417 366.051 455.831 366.512 455.703 367.152L446.37 412.681C446.089 414.012 446.421 415.37 447.288 416.394C448.129 417.444 449.404 418.033 450.73 418.033H461.569C462.538 418.033 463.456 417.623 464.119 416.906C464.782 416.189 465.114 415.242 465.037 414.268L461.212 367.305C461.161 366.588 460.549 366.025 459.835 366.025H457.055V366.051Z" fill="black"/>
<path d="M443.691 387.74H404.391C403.932 387.74 403.55 387.356 403.55 386.895C403.55 386.434 403.932 386.05 404.391 386.05H443.691C444.609 386.05 445.374 385.435 445.603 384.539L449.454 368.202C449.556 367.741 450.015 367.459 450.474 367.562C450.933 367.664 451.214 368.125 451.112 368.586L447.261 384.923C446.827 386.587 445.374 387.74 443.691 387.74Z" fill="black"/>
<path d="M429.947 386.895L428.723 391.863C428.519 392.708 427.779 393.297 426.912 393.297H418.267C417.323 393.297 416.634 392.4 416.889 391.478L418.165 386.895H429.947Z" fill="white"/>
<path d="M426.912 394.142H418.266C417.552 394.142 416.889 393.809 416.456 393.245C416.022 392.682 415.895 391.939 416.073 391.248L417.348 386.664C417.45 386.306 417.782 386.05 418.164 386.05H429.947C430.202 386.05 430.457 386.178 430.61 386.383C430.763 386.588 430.814 386.844 430.763 387.1L429.539 392.067C429.258 393.271 428.161 394.142 426.912 394.142ZM418.802 387.74L417.705 391.709C417.629 391.939 417.731 392.144 417.807 392.221C417.909 392.375 418.088 392.452 418.266 392.452H426.912C427.371 392.452 427.779 392.119 427.906 391.683L428.875 387.765H418.802V387.74Z" fill="black"/>
<path d="M448.307 364.924L449.301 359.751C449.761 356.499 448.052 354.681 445.604 354.681H423.034C420.586 354.681 418.24 357.267 417.832 359.751L416.837 364.924H420.458L421.325 360.52C421.657 358.599 422.83 357.626 424.743 357.626H443.767C445.68 357.626 445.91 358.599 445.578 360.52L444.711 364.924H448.307Z" fill="white"/>
<path d="M448.307 365.769H444.686C444.431 365.769 444.201 365.667 444.022 365.462C443.869 365.257 443.793 365.001 443.844 364.77L444.711 360.366C444.89 359.239 444.813 358.83 444.686 358.702C444.558 358.574 444.227 358.471 443.716 358.471H424.692C423.187 358.471 422.371 359.162 422.116 360.673L421.223 365.103C421.147 365.487 420.79 365.795 420.407 365.795H416.786C416.531 365.795 416.301 365.692 416.148 365.487C415.995 365.283 415.919 365.026 415.97 364.796L416.964 359.623C417.423 356.909 419.999 353.887 423.008 353.887H445.578C447.006 353.887 448.23 354.425 449.072 355.373C449.735 356.141 450.449 357.549 450.118 359.905L449.097 365.129C449.072 365.487 448.715 365.769 448.307 365.769ZM445.706 364.079H447.618L448.485 359.572C448.664 358.241 448.46 357.14 447.822 356.423C447.312 355.834 446.547 355.526 445.604 355.526H423.034C420.968 355.526 419.005 357.857 418.648 359.879L417.832 364.079H419.744L420.484 360.34C420.866 358.036 422.371 356.755 424.717 356.755H443.742C444.788 356.755 445.527 357.012 445.986 357.575C446.649 358.369 446.573 359.521 446.394 360.648L445.706 364.079Z" fill="black"/>
<path d="M444.099 353.811H424.998C424.233 353.811 423.493 354.425 423.365 355.219L423.085 356.883C422.957 357.652 423.467 358.292 424.233 358.292H443.334C444.099 358.292 444.839 357.677 444.966 356.883L445.247 355.219C445.4 354.451 444.89 353.811 444.099 353.811Z" fill="white"/>
<path d="M443.36 359.137H424.258C423.646 359.137 423.085 358.881 422.703 358.445C422.32 357.985 422.167 357.37 422.269 356.755L422.55 355.091C422.754 353.913 423.825 352.991 424.998 352.991H444.099C444.711 352.991 445.272 353.247 445.655 353.683C446.037 354.144 446.19 354.758 446.088 355.373L445.808 357.037C445.629 358.215 444.533 359.137 443.36 359.137ZM425.023 354.656C424.666 354.656 424.284 354.989 424.233 355.347L423.952 357.011C423.927 357.14 423.952 357.242 424.003 357.319C424.08 357.396 424.182 357.421 424.258 357.421H443.36C443.717 357.421 444.099 357.088 444.15 356.73L444.431 355.065C444.456 354.937 444.431 354.835 444.38 354.758C444.303 354.681 444.201 354.656 444.125 354.656H425.023Z" fill="black"/>
<path d="M450.628 413.193C450.347 413.193 450.041 413.04 449.888 412.758C449.659 412.348 449.812 411.836 450.194 411.606L457.258 407.56V371.223C457.258 370.763 457.641 370.378 458.1 370.378C458.559 370.378 458.941 370.763 458.941 371.223V408.046C458.941 408.353 458.788 408.635 458.508 408.789L451.036 413.065C450.908 413.168 450.781 413.193 450.628 413.193Z" fill="white"/>
<path d="M272.646 6.06884C272.187 6.06884 271.805 5.68474 271.805 5.22381V0.845028C271.805 0.384104 272.187 0 272.646 0C273.105 0 273.488 0.384104 273.488 0.845028V5.22381C273.488 5.68474 273.131 6.06884 272.646 6.06884Z" fill="black"/>
<path d="M272.646 16.2605C272.187 16.2605 271.805 15.8764 271.805 15.4155V11.0367C271.805 10.5758 272.187 10.1917 272.646 10.1917C273.105 10.1917 273.488 10.5758 273.488 11.0367V15.4155C273.488 15.8764 273.131 16.2605 272.646 16.2605Z" fill="black"/>
<path d="M269.764 8.96252H265.403C264.944 8.96252 264.562 8.57841 264.562 8.11749C264.562 7.65656 264.944 7.27246 265.403 7.27246H269.764C270.223 7.27246 270.606 7.65656 270.606 8.11749C270.606 8.60402 270.223 8.96252 269.764 8.96252Z" fill="black"/>
<path d="M279.913 8.96252H275.553C275.093 8.96252 274.711 8.57841 274.711 8.11749C274.711 7.65656 275.093 7.27246 275.553 7.27246H279.913C280.372 7.27246 280.755 7.65656 280.755 8.11749C280.755 8.60402 280.372 8.96252 279.913 8.96252Z" fill="black"/>
<path d="M402.784 68.9593C402.554 68.9593 402.35 68.8825 402.172 68.7032C382.05 48.1408 356.778 33.212 329.133 25.5812C328.674 25.4531 328.419 24.9922 328.546 24.5313C328.674 24.0704 329.133 23.8143 329.592 23.9423C357.543 31.65 383.045 46.7325 403.396 67.4997C403.728 67.8326 403.728 68.3703 403.396 68.7032C403.217 68.8825 402.988 68.9593 402.784 68.9593Z" fill="black"/>
<path d="M417.958 71.7762C417.729 71.7762 417.499 71.6737 417.321 71.4945C391.257 41.6368 357.339 21.2025 319.264 12.4193C318.805 12.3169 318.524 11.856 318.626 11.3951C318.728 10.9341 319.187 10.6525 319.646 10.7549C358.079 19.6149 392.303 40.2284 418.596 70.3678C418.902 70.7263 418.876 71.264 418.519 71.5713C418.341 71.6994 418.137 71.7762 417.958 71.7762Z" fill="black"/>
<path d="M313.144 15.313C312.991 15.313 312.838 15.2618 312.685 15.1849L306.743 11.3951C306.488 11.2415 306.335 10.9598 306.36 10.6525C306.36 10.3452 306.539 10.0892 306.819 9.93552L314.368 5.96645C314.648 5.8128 315.005 5.83841 315.26 6.04327C315.516 6.24812 315.643 6.58101 315.567 6.88829L313.96 14.6472C313.909 14.9289 313.73 15.1337 313.475 15.2618C313.348 15.2874 313.246 15.313 313.144 15.313ZM308.885 10.7549L312.557 13.0852L313.552 8.27107L308.885 10.7549Z" fill="black"/>
<path d="M73.4978 118.458C73.3448 118.458 73.1663 118.406 73.0388 118.33C72.6563 118.073 72.5542 117.536 72.8093 117.152C92.3951 87.4732 114.327 65.7841 138.019 52.699C138.427 52.4685 138.937 52.6222 139.167 53.0319C139.396 53.4416 139.243 53.9537 138.835 54.1842C115.373 67.1413 93.6447 88.6511 74.2119 118.099C74.0589 118.33 73.7784 118.458 73.4978 118.458Z" fill="black"/>
<path d="M77.782 95.949C77.629 95.949 77.4505 95.8978 77.323 95.821C76.9404 95.5649 76.8384 95.0272 77.0934 94.6431C102.851 55.3621 136.208 38.8968 149.367 33.6474C149.801 33.4682 150.285 33.6986 150.464 34.1083C150.642 34.5437 150.413 35.0302 150.005 35.2094C136.999 40.4076 104.024 56.668 78.5216 95.5649C78.3431 95.821 78.0625 95.949 77.782 95.949Z" fill="black"/>
<path d="M410.716 109.162C410.487 109.162 410.283 109.085 410.104 108.906C408.574 107.293 406.993 105.68 405.386 104.118C405.055 103.785 405.055 103.247 405.361 102.914C405.693 102.581 406.228 102.581 406.56 102.889C408.166 104.476 409.773 106.089 411.303 107.728C411.635 108.061 411.609 108.599 411.278 108.932C411.125 109.085 410.921 109.162 410.716 109.162ZM401.077 99.6877C400.873 99.6877 400.669 99.6109 400.516 99.4573C398.858 97.9465 397.175 96.4613 395.466 95.0273C395.109 94.72 395.058 94.1823 395.364 93.8238C395.67 93.4653 396.206 93.4141 396.563 93.7213C398.271 95.1809 399.98 96.6917 401.638 98.2026C401.995 98.5098 401.995 99.0476 401.689 99.4061C401.536 99.6109 401.306 99.6877 401.077 99.6877ZM390.799 90.9558C390.621 90.9558 390.442 90.9046 390.289 90.7765C388.529 89.3938 386.744 88.0366 384.934 86.705C384.551 86.4234 384.474 85.9112 384.755 85.5271C385.036 85.143 385.546 85.0662 385.928 85.3479C387.739 86.6794 389.549 88.0622 391.335 89.445C391.692 89.7267 391.768 90.2644 391.488 90.6229C391.284 90.8534 391.029 90.9558 390.799 90.9558ZM379.91 82.992C379.757 82.992 379.578 82.9408 379.451 82.8384C377.614 81.5837 375.727 80.3545 373.815 79.1766C373.432 78.9205 373.304 78.4084 373.534 78.0243C373.789 77.6146 374.299 77.5122 374.682 77.7426C376.594 78.9461 378.507 80.1753 380.369 81.4556C380.751 81.7117 380.853 82.2494 380.598 82.6335C380.445 82.864 380.165 82.992 379.91 82.992ZM368.459 75.8221C368.306 75.8221 368.178 75.7965 368.051 75.7197C366.113 74.6186 364.149 73.5175 362.185 72.4676C361.777 72.2627 361.624 71.7506 361.828 71.3153C362.058 70.9056 362.542 70.7519 362.976 70.9568C364.965 72.0067 366.954 73.1078 368.893 74.2345C369.301 74.4649 369.428 74.9771 369.199 75.3868C369.046 75.6685 368.765 75.8221 368.459 75.8221ZM356.549 69.5228C356.422 69.5228 356.294 69.4972 356.192 69.446C354.178 68.4729 352.137 67.5255 350.097 66.6292C349.664 66.45 349.485 65.9378 349.664 65.5281C349.842 65.0928 350.352 64.9136 350.76 65.0928C352.801 65.989 354.892 66.9621 356.906 67.9352C357.314 68.14 357.493 68.6522 357.289 69.0619C357.161 69.3436 356.881 69.5228 356.549 69.5228ZM344.206 64.0941C344.104 64.0941 344.002 64.0685 343.9 64.0429C341.834 63.2235 339.718 62.4297 337.627 61.6871C337.193 61.5334 336.964 61.0469 337.117 60.6116C337.27 60.1763 337.754 59.9458 338.188 60.0995C340.304 60.8421 342.447 61.6615 344.538 62.4809C344.971 62.6601 345.175 63.1467 345.022 63.582C344.869 63.8893 344.538 64.0941 344.206 64.0941ZM331.506 59.5617C331.43 59.5617 331.328 59.5617 331.251 59.5105C329.134 58.8447 326.967 58.2045 324.824 57.6156C324.365 57.4875 324.11 57.0266 324.238 56.5657C324.365 56.1048 324.824 55.8487 325.283 55.9767C327.451 56.5657 329.644 57.2059 331.787 57.8973C332.22 58.0253 332.475 58.5118 332.348 58.9471C332.195 59.3312 331.863 59.5617 331.506 59.5617Z" fill="white"/>
<path d="M85.9939 144.064C85.8918 144.064 85.7643 144.039 85.6623 143.988C85.2288 143.808 85.0503 143.296 85.2288 142.886C86.1214 140.812 87.065 138.738 88.0341 136.69C88.2381 136.28 88.7481 136.101 89.1562 136.28C89.5642 136.485 89.7427 136.997 89.5642 137.407C88.5951 139.43 87.677 141.478 86.7844 143.527C86.6314 143.885 86.3254 144.064 85.9939 144.064ZM91.8084 131.85C91.6809 131.85 91.5534 131.824 91.4259 131.747C91.0178 131.543 90.8648 131.03 91.0688 130.595C92.1144 128.598 93.1855 126.6 94.3076 124.629C94.5372 124.219 95.0472 124.091 95.4552 124.321C95.8633 124.552 95.9908 125.064 95.7613 125.474C94.6647 127.42 93.5681 129.417 92.548 131.389C92.395 131.696 92.1144 131.85 91.8084 131.85ZM98.4645 120.096C98.3115 120.096 98.1585 120.045 98.031 119.968C97.623 119.712 97.5209 119.2 97.7505 118.816C98.9236 116.895 100.148 114.975 101.423 113.106C101.678 112.722 102.213 112.619 102.596 112.875C102.978 113.131 103.08 113.669 102.825 114.053C101.576 115.922 100.377 117.817 99.2041 119.712C99.0256 119.943 98.7451 120.096 98.4645 120.096ZM105.937 108.855C105.758 108.855 105.605 108.804 105.452 108.701C105.07 108.42 104.993 107.907 105.274 107.523C106.6 105.705 107.951 103.862 109.329 102.095C109.609 101.736 110.145 101.659 110.502 101.941C110.859 102.223 110.935 102.76 110.655 103.119C109.278 104.886 107.926 106.704 106.625 108.496C106.472 108.727 106.217 108.855 105.937 108.855ZM114.225 98.1768C114.046 98.1768 113.842 98.1 113.689 97.9719C113.332 97.6647 113.281 97.1269 113.587 96.7684C115.016 95.0528 116.52 93.3115 118.025 91.647C118.331 91.2885 118.866 91.2629 119.223 91.5958C119.581 91.9031 119.606 92.4408 119.274 92.7993C117.77 94.4638 116.291 96.1795 114.888 97.8951C114.71 98.0744 114.455 98.1768 114.225 98.1768ZM123.227 88.1133C123.023 88.1133 122.794 88.0365 122.641 87.8828C122.309 87.5499 122.309 87.0122 122.615 86.6793C124.171 85.0661 125.778 83.4528 127.41 81.8908C127.741 81.5579 128.277 81.5835 128.608 81.9164C128.94 82.2493 128.914 82.787 128.583 83.1199C126.976 84.6563 125.37 86.2696 123.839 87.8828C123.686 88.0365 123.457 88.1133 123.227 88.1133Z" fill="white"/>
</g>
<defs>
<clipPath id="clip0_770_2800">
<rect width="467" height="462" fill="white"/>
</clipPath>
</defs>
</svg>
