<svg width="163" height="124" viewBox="0 0 163 124" fill="none" xmlns="http://www.w3.org/2000/svg">
<g clip-path="url(#clip0_951_4926)">
<path d="M81.3564 59.5471H75.2987V75.6683H81.3564V59.5471Z" fill="#5479F7"/>
<path d="M81.3564 75.9501H75.2987C75.1447 75.9501 75.0164 75.822 75.0164 75.6682V59.5471C75.0164 59.3933 75.1447 59.2651 75.2987 59.2651H81.3564C81.5104 59.2651 81.6387 59.3933 81.6387 59.5471V75.6682C81.6387 75.822 81.519 75.9501 81.3564 75.9501ZM75.5896 75.3863H81.0826V59.829H75.5896V75.3863Z" fill="black"/>
<path d="M82.6483 75.916H73.9468C73.3137 75.916 72.7917 75.4034 72.7917 74.7627V72.5499C72.7917 71.9177 73.3051 71.3966 73.9468 71.3966H82.6483C83.2815 71.3966 83.8034 71.9092 83.8034 72.5499V74.7627C83.8034 75.3949 83.29 75.916 82.6483 75.916Z" fill="#5479F7"/>
<path d="M82.6483 76.198H73.9468C73.1511 76.198 72.5094 75.5572 72.5094 74.7627V72.55C72.5094 71.7555 73.1511 71.1147 73.9468 71.1147H82.6483C83.444 71.1147 84.0857 71.7555 84.0857 72.55V74.7627C84.0857 75.5487 83.444 76.198 82.6483 76.198ZM73.9468 71.6786C73.4677 71.6786 73.0741 72.0716 73.0741 72.55V74.7627C73.0741 75.2411 73.4677 75.6341 73.9468 75.6341H82.6483C83.1275 75.6341 83.521 75.2411 83.521 74.7627V72.55C83.521 72.0716 83.1275 71.6786 82.6483 71.6786H73.9468Z" fill="black"/>
<path d="M89.8013 78.7183H66.8026V76.984C66.8026 75.9845 67.6154 75.1814 68.6079 75.1814H87.9874C88.9884 75.1814 89.7927 75.993 89.7927 76.984V78.7183H89.8013Z" fill="#5479F7"/>
<path d="M89.8011 78.9999H66.8025C66.6485 78.9999 66.5201 78.8718 66.5201 78.718V76.9837C66.5201 75.8304 67.4613 74.8992 68.6078 74.8992H87.9873C89.1423 74.8992 90.0749 75.8389 90.0749 76.9837V78.718C90.0835 78.8803 89.9552 78.9999 89.8011 78.9999ZM67.0848 78.4361H89.5188V76.9837C89.5188 76.1465 88.8343 75.463 87.9958 75.463H68.6078C67.7693 75.463 67.0848 76.1465 67.0848 76.9837V78.4361Z" fill="black"/>
<path d="M73.6559 58.761C67.2988 55.1985 60.9502 49.8248 56.2272 44.0154C53.3267 40.4443 48.7065 33.772 50.3065 29.1415C50.7685 27.8088 51.9492 26.1258 54.9267 25.7157C57.0914 25.4167 60.0176 25.8268 63.6282 26.9288L62.8411 30.1069C59.6069 29.1159 57.0657 28.74 55.2946 28.9792C54.0711 29.1501 53.3267 29.5943 53.0786 30.312C52.4882 32.0206 53.9171 36.2239 58.4347 41.7856C62.9181 47.3045 68.9586 52.4134 74.9992 55.8051L73.6559 58.761Z" fill="#5479F7"/>
<path d="M73.6558 59.0431C73.6045 59.0431 73.5617 59.0346 73.5189 59.009C67.1361 55.4208 60.7533 50.0214 56.0047 44.1864C53.07 40.5726 48.3898 33.7978 50.0326 29.0477C50.5203 27.6381 51.7609 25.8696 54.8839 25.4339C57.0913 25.1349 60.0603 25.545 63.7051 26.6642C63.8506 26.7069 63.9362 26.8521 63.8934 27.0059L63.1062 30.184C63.0891 30.2609 63.0378 30.3207 62.9693 30.3634C62.9009 30.3976 62.8239 30.4146 62.7469 30.389C59.5555 29.4151 57.0571 29.0392 55.3202 29.2784C54.2079 29.4322 53.5406 29.8166 53.3352 30.4232C52.7876 32.0037 54.2165 36.1814 58.64 41.632C63.1062 47.1253 69.1126 52.2085 75.1189 55.5831C75.2473 55.6515 75.2986 55.8138 75.2387 55.9419L73.9125 58.8723C73.8783 58.9406 73.8184 59.0004 73.7414 59.026C73.7157 59.0346 73.6815 59.0431 73.6558 59.0431ZM56.3983 25.9038C55.8849 25.9038 55.4143 25.938 54.9694 25.9978C52.1288 26.3908 51.008 27.9713 50.5716 29.2357C49.0144 33.738 53.5833 40.3163 56.4411 43.8361C61.0784 49.543 67.2816 54.8228 73.5189 58.3682L74.6227 55.9419C68.6334 52.5417 62.6613 47.467 58.2036 41.9822C53.301 35.9507 52.2315 31.8841 52.8047 30.2352C53.0956 29.4065 53.917 28.8939 55.2518 28.7145C57.0143 28.4753 59.4956 28.8256 62.6356 29.7654L63.2859 27.134C60.5822 26.3139 58.2721 25.9038 56.3983 25.9038Z" fill="black"/>
<path d="M83.136 58.5728C89.3819 55.0103 95.6364 49.6366 100.282 43.8271C103.131 40.2561 107.683 33.5838 106.109 28.9533C105.656 27.6206 104.492 25.9375 101.557 25.5275C99.4267 25.2285 96.5519 25.6385 93.0011 26.7406L93.7712 29.9187C96.954 28.9277 99.4524 28.5518 101.198 28.791C102.404 28.9619 103.131 29.4061 103.38 30.1237C103.961 31.8324 102.558 36.0357 98.1091 41.5974C93.6942 47.1163 87.7563 52.2252 81.8184 55.6169L83.136 58.5728Z" fill="#5479F7"/>
<path d="M83.1361 58.855C83.1104 58.855 83.0762 58.8465 83.0505 58.8379C82.9735 58.8123 82.9136 58.761 82.8794 58.6842L81.5618 55.7367C81.5019 55.6 81.5532 55.4463 81.6815 55.3779C87.5938 52.0119 93.4975 46.9286 97.8953 41.4353C102.25 35.9847 103.653 31.807 103.114 30.2265C102.909 29.62 102.25 29.2355 101.164 29.0817C99.461 28.8425 96.9969 29.2184 93.8568 30.1924C93.7798 30.218 93.7028 30.2095 93.6343 30.1667C93.5659 30.1326 93.5146 30.0642 93.4975 29.9873L92.7274 26.8092C92.6932 26.664 92.7787 26.5188 92.9156 26.476C96.5092 25.3569 99.4268 24.9468 101.6 25.2458C104.68 25.673 105.895 27.45 106.374 28.8596C107.991 33.6182 103.388 40.3845 100.505 43.9983C95.8418 49.8333 89.5617 55.2412 83.2815 58.8209C83.2302 58.8465 83.1874 58.855 83.1361 58.855ZM82.1864 55.7453L83.273 58.1716C89.3991 54.6261 95.5081 49.3464 100.068 43.648C102.883 40.1282 107.384 33.5413 105.844 29.039C105.416 27.7746 104.312 26.1941 101.523 25.8011C99.4867 25.5192 96.7316 25.8951 93.3434 26.9288L93.9851 29.5602C97.0739 28.6289 99.5124 28.2701 101.249 28.5179C102.567 28.6973 103.38 29.2099 103.662 30.0386C104.227 31.6874 103.166 35.754 98.3487 41.777C93.9509 47.2704 88.0815 52.3451 82.1864 55.7453Z" fill="black"/>
<path d="M78.3448 61.6231C94.5072 61.8025 94.6868 38.8724 98.1606 20.6069L58.4006 20.4617C61.6177 39.2483 62.2081 61.9221 78.3448 61.6231Z" fill="#5479F7"/>
<path d="M78.0281 61.905C71.8763 61.905 67.4443 58.5304 64.4924 51.6104C61.8401 45.3994 60.608 36.9672 59.4101 28.8084C59.008 26.0575 58.5888 23.2211 58.1267 20.5043C58.1096 20.4189 58.1353 20.342 58.1866 20.2737C58.238 20.2139 58.3235 20.1711 58.4005 20.1711L98.1605 20.3164C98.246 20.3164 98.3231 20.3506 98.3744 20.4189C98.4257 20.4872 98.4514 20.5727 98.4343 20.6496C97.8439 23.7593 97.3391 27.0656 96.8514 30.2522C95.6621 38.0351 94.4301 46.0743 91.8376 52.0034C88.9285 58.6586 84.5735 61.8965 78.5244 61.8965C78.4645 61.8965 78.4046 61.8965 78.3361 61.8965C78.242 61.905 78.1308 61.905 78.0281 61.905ZM58.7428 20.7435C59.1877 23.3663 59.5813 26.0916 59.9748 28.7315C61.1641 36.8561 62.3962 45.2542 65.0144 51.3968C67.9576 58.2997 72.1929 61.4607 78.3447 61.3411H78.3532C84.3254 61.4095 88.4494 58.3766 91.3242 51.7898C93.891 45.9291 95.1145 37.9241 96.2953 30.1839C96.7658 27.0997 97.2535 23.9131 97.8182 20.8888L58.7428 20.7435Z" fill="black"/>
<path d="M92.4021 41.8881C92.385 41.8881 92.3679 41.8881 92.3423 41.8796C92.1882 41.8454 92.0941 41.7001 92.1198 41.5464C92.8556 37.9667 93.3604 34.0539 93.8396 30.2693C94.1647 27.7575 94.4898 25.1518 94.892 22.6657C94.9176 22.512 95.0631 22.4094 95.2171 22.4351C95.3711 22.4607 95.4738 22.6059 95.4481 22.7597C95.046 25.2373 94.7208 27.8344 94.3957 30.3461C93.908 34.1394 93.4118 38.0607 92.6674 41.6574C92.6503 41.7941 92.539 41.8881 92.4021 41.8881Z" fill="black"/>
<path d="M78.6954 59.8375C78.5671 59.8375 78.4473 59.7436 78.4217 59.6154C78.3874 59.4616 78.4901 59.3164 78.6356 59.2822C84.7531 57.9836 88.6889 53.7718 91.0247 46.006C91.0675 45.8607 91.2301 45.7753 91.3755 45.818C91.521 45.8607 91.6065 46.0231 91.5637 46.1683C89.1595 54.1477 85.0868 58.4962 78.7553 59.8375C78.7297 59.8375 78.7126 59.8375 78.6954 59.8375Z" fill="black"/>
<path d="M99.1615 22.6403H57.793C57.0572 22.6403 56.4583 22.0423 56.4583 21.3076V18.7446C56.4583 18.0099 57.0572 17.4119 57.793 17.4119H99.1615C99.8973 17.4119 100.496 18.0099 100.496 18.7446V21.3076C100.496 22.0423 99.8973 22.6403 99.1615 22.6403Z" fill="#5479F7"/>
<path d="M99.1616 22.922H57.7931C56.9033 22.922 56.176 22.1958 56.176 21.3073V18.7443C56.176 17.8558 56.9033 17.1296 57.7931 17.1296H99.1616C100.051 17.1296 100.779 17.8558 100.779 18.7443V21.3073C100.779 22.1958 100.051 22.922 99.1616 22.922ZM57.7931 17.702C57.2113 17.702 56.7407 18.1719 56.7407 18.7529V21.3158C56.7407 21.8968 57.2113 22.3667 57.7931 22.3667H99.1616C99.7434 22.3667 100.214 21.8968 100.214 21.3158V18.7529C100.214 18.1719 99.7434 17.702 99.1616 17.702H57.7931Z" fill="black"/>
<path d="M86.9347 19.8551C86.7807 19.8551 86.6523 19.7269 86.6523 19.5732C86.6523 19.4194 86.7721 19.2912 86.9347 19.2912L95.1827 19.1973C95.3367 19.1973 95.4651 19.3254 95.4651 19.4792C95.4651 19.633 95.3453 19.7611 95.1827 19.7611L86.9347 19.8551Z" fill="black"/>
<path d="M80.1842 19.9319C80.0302 19.9319 79.9019 19.8037 79.9019 19.65C79.9019 19.4962 80.0216 19.368 80.1842 19.368L84.7788 19.3168C84.9328 19.3168 85.0612 19.4449 85.0612 19.5987C85.0612 19.7525 84.9414 19.8806 84.7788 19.8806L80.1842 19.9319Z" fill="black"/>
<path d="M62.8154 19.1461C62.6614 19.1461 62.5331 19.0179 62.5331 18.8642V17.4033C62.5331 17.2495 62.6614 17.1213 62.8154 17.1213C62.9694 17.1213 63.0978 17.2495 63.0978 17.4033V18.8556C63.0978 19.0179 62.9694 19.1461 62.8154 19.1461Z" fill="white"/>
<path d="M62.8154 22.5376C62.6614 22.5376 62.5331 22.4094 62.5331 22.2556V20.7947C62.5331 20.641 62.6614 20.5128 62.8154 20.5128C62.9694 20.5128 63.0978 20.641 63.0978 20.7947V22.2556C63.0978 22.418 62.9694 22.5376 62.8154 22.5376Z" fill="white"/>
<path d="M61.8399 20.1113H60.3768C60.2228 20.1113 60.0945 19.9832 60.0945 19.8294C60.0945 19.6756 60.2228 19.5475 60.3768 19.5475H61.8399C61.9939 19.5475 62.1223 19.6756 62.1223 19.8294C62.1223 19.9832 61.9939 20.1113 61.8399 20.1113Z" fill="white"/>
<path d="M65.2453 20.1113H63.7822C63.6282 20.1113 63.4999 19.9832 63.4999 19.8294C63.4999 19.6756 63.6282 19.5475 63.7822 19.5475H65.2453C65.3993 19.5475 65.5277 19.6756 65.5277 19.8294C65.5277 19.9832 65.3993 20.1113 65.2453 20.1113Z" fill="white"/>
<path d="M92.4023 3.02475C92.2483 3.02475 92.12 2.89661 92.12 2.74283V1.28193C92.12 1.12815 92.2483 1 92.4023 1C92.5563 1 92.6847 1.12815 92.6847 1.28193V2.74283C92.6847 2.89661 92.5649 3.02475 92.4023 3.02475Z" fill="black"/>
<path d="M92.4023 6.4249C92.2483 6.4249 92.12 6.29675 92.12 6.14297V4.68207C92.12 4.5283 92.2483 4.40015 92.4023 4.40015C92.5563 4.40015 92.6847 4.5283 92.6847 4.68207V6.14297C92.6847 6.29675 92.5649 6.4249 92.4023 6.4249Z" fill="black"/>
<path d="M91.4354 3.99H89.9723C89.8183 3.99 89.6899 3.86185 89.6899 3.70808C89.6899 3.5543 89.8183 3.42615 89.9723 3.42615H91.4354C91.5894 3.42615 91.7177 3.5543 91.7177 3.70808C91.7177 3.8704 91.5894 3.99 91.4354 3.99Z" fill="black"/>
<path d="M94.8404 3.99H93.3773C93.2233 3.99 93.095 3.86185 93.095 3.70808C93.095 3.5543 93.2233 3.42615 93.3773 3.42615H94.8404C94.9944 3.42615 95.1228 3.5543 95.1228 3.70808C95.1228 3.8704 94.9944 3.99 94.8404 3.99Z" fill="black"/>
<path d="M136.064 24.007C135.987 24.007 135.918 23.9813 135.858 23.9215C129.108 17.0613 120.629 12.0806 111.354 9.53467C111.2 9.49196 111.114 9.33818 111.157 9.1844C111.2 9.03062 111.354 8.94519 111.508 8.9879C120.885 11.5594 129.441 16.5914 136.269 23.52C136.38 23.6311 136.38 23.8105 136.269 23.9215C136.209 23.9813 136.132 24.007 136.064 24.007Z" fill="black"/>
<path d="M141.155 24.9467C141.078 24.9467 141.001 24.9125 140.941 24.8527C132.197 14.8912 120.817 8.07371 108.043 5.14337C107.889 5.1092 107.795 4.95542 107.829 4.80164C107.863 4.64786 108.017 4.55389 108.171 4.58806C121.065 7.54403 132.547 14.4214 141.369 24.4768C141.471 24.5964 141.463 24.7758 141.343 24.8783C141.283 24.921 141.215 24.9467 141.155 24.9467Z" fill="black"/>
<path d="M105.989 6.10913C105.938 6.10913 105.887 6.09204 105.835 6.06641L103.842 4.80201C103.756 4.75075 103.705 4.65678 103.713 4.55426C103.713 4.45174 103.773 4.3663 103.867 4.31504L106.4 2.99084C106.494 2.93958 106.614 2.94812 106.7 3.01647C106.785 3.08481 106.828 3.19588 106.802 3.2984L106.263 5.88701C106.246 5.98098 106.186 6.04933 106.101 6.09204C106.058 6.10059 106.024 6.10913 105.989 6.10913ZM104.56 4.58843L105.793 5.36587L106.126 3.75973L104.56 4.58843Z" fill="black"/>
<path d="M25.588 40.5211C25.5367 40.5211 25.4768 40.504 25.434 40.4784C25.3057 40.393 25.2715 40.2135 25.357 40.0854C31.9281 30.1837 39.2863 22.9476 47.2348 18.582C47.3717 18.5051 47.5428 18.5564 47.6198 18.6931C47.6969 18.8297 47.6455 19.0006 47.5086 19.0775C39.6371 23.4004 32.3473 30.5767 25.8276 40.4015C25.7763 40.4784 25.6821 40.5211 25.588 40.5211Z" fill="black"/>
<path d="M27.0255 33.0114C26.9742 33.0114 26.9143 32.9943 26.8715 32.9686C26.7432 32.8832 26.709 32.7038 26.7945 32.5756C35.4361 19.4703 46.6274 13.977 51.0424 12.2256C51.1878 12.1658 51.3504 12.2427 51.4103 12.3794C51.4702 12.5246 51.3931 12.6869 51.2563 12.7467C46.8927 14.481 35.8297 19.906 27.2737 32.8832C27.2138 32.9686 27.1196 33.0114 27.0255 33.0114Z" fill="black"/>
<path d="M138.725 37.42C138.648 37.42 138.579 37.3944 138.52 37.3346C138.006 36.7964 137.476 36.2581 136.937 35.737C136.825 35.6259 136.825 35.4465 136.928 35.3355C137.039 35.2244 137.219 35.2244 137.33 35.3269C137.869 35.8566 138.408 36.3948 138.922 36.9416C139.033 37.0527 139.024 37.2321 138.913 37.3431C138.862 37.3944 138.793 37.42 138.725 37.42ZM135.491 34.259C135.422 34.259 135.354 34.2334 135.302 34.1821C134.746 33.6781 134.182 33.1826 133.608 32.7041C133.489 32.6016 133.471 32.4222 133.574 32.3026C133.677 32.183 133.856 32.1659 133.976 32.2684C134.55 32.7554 135.123 33.2594 135.679 33.7635C135.799 33.866 135.799 34.0454 135.696 34.165C135.645 34.2334 135.568 34.259 135.491 34.259ZM132.043 31.3457C131.983 31.3457 131.923 31.3287 131.871 31.2859C131.281 30.8246 130.682 30.3718 130.075 29.9276C129.946 29.8336 129.921 29.6627 130.015 29.5346C130.109 29.4064 130.28 29.3808 130.408 29.4748C131.016 29.919 131.623 30.3804 132.222 30.8417C132.342 30.9357 132.368 31.1151 132.274 31.2347C132.205 31.3116 132.12 31.3457 132.043 31.3457ZM128.389 28.6888C128.338 28.6888 128.278 28.6717 128.235 28.6375C127.619 28.2189 126.986 27.8088 126.344 27.4158C126.216 27.3304 126.173 27.1595 126.25 27.0314C126.336 26.8947 126.507 26.8605 126.635 26.9374C127.277 27.339 127.919 27.749 128.543 28.1762C128.672 28.2616 128.706 28.441 128.62 28.5692C128.569 28.6461 128.475 28.6888 128.389 28.6888ZM124.547 26.2967C124.496 26.2967 124.453 26.2881 124.411 26.2625C123.76 25.8951 123.102 25.5278 122.443 25.1775C122.306 25.1092 122.254 24.9383 122.323 24.7931C122.4 24.6564 122.562 24.6051 122.708 24.6735C123.375 25.0237 124.043 25.3911 124.693 25.767C124.83 25.8439 124.873 26.0147 124.796 26.1514C124.744 26.2454 124.65 26.2967 124.547 26.2967ZM120.552 24.195C120.509 24.195 120.466 24.1865 120.432 24.1694C119.756 23.8448 119.072 23.5287 118.387 23.2296C118.242 23.1698 118.182 22.999 118.242 22.8623C118.302 22.717 118.473 22.6572 118.61 22.717C119.294 23.0161 119.996 23.3407 120.672 23.6654C120.808 23.7337 120.868 23.9046 120.8 24.0413C120.757 24.1352 120.663 24.195 120.552 24.195ZM116.411 22.3839C116.376 22.3839 116.342 22.3753 116.308 22.3668C115.615 22.0934 114.905 21.8285 114.203 21.5808C114.058 21.5295 113.981 21.3672 114.032 21.222C114.083 21.0767 114.246 20.9999 114.391 21.0511C115.102 21.2989 115.82 21.5723 116.522 21.8456C116.667 21.9054 116.736 22.0678 116.684 22.213C116.633 22.3155 116.522 22.3839 116.411 22.3839ZM112.15 20.8717C112.124 20.8717 112.09 20.8717 112.064 20.8546C111.354 20.6325 110.627 20.4189 109.908 20.2224C109.754 20.1797 109.669 20.0259 109.711 19.8721C109.754 19.7184 109.908 19.6329 110.062 19.6756C110.789 19.8721 111.525 20.0857 112.244 20.3164C112.389 20.3591 112.475 20.5214 112.432 20.6667C112.381 20.7948 112.27 20.8717 112.15 20.8717Z" fill="white"/>
<path d="M29.7806 49.0646C29.7463 49.0646 29.7036 49.0561 29.6693 49.039C29.5239 48.9792 29.464 48.8083 29.5239 48.6716C29.8233 47.9796 30.1399 47.2876 30.465 46.6042C30.5335 46.4675 30.7046 46.4077 30.8415 46.4675C30.9784 46.5358 31.0383 46.7067 30.9784 46.8434C30.6533 47.5183 30.3453 48.2018 30.0458 48.8852C29.9945 49.0048 29.8918 49.0646 29.7806 49.0646ZM31.7313 44.9895C31.6886 44.9895 31.6458 44.981 31.603 44.9553C31.4661 44.887 31.4148 44.7161 31.4832 44.5709C31.834 43.9045 32.1934 43.2381 32.5698 42.5803C32.6468 42.4436 32.818 42.4009 32.9549 42.4778C33.0918 42.5547 33.1345 42.7255 33.0575 42.8622C32.6896 43.5115 32.3217 44.1779 31.9795 44.8357C31.9281 44.9382 31.834 44.9895 31.7313 44.9895ZM33.9645 41.0681C33.9131 41.0681 33.8618 41.051 33.819 41.0254C33.6821 40.94 33.6479 40.7691 33.7249 40.641C34.1185 40.0002 34.5292 39.3595 34.957 38.7358C35.0425 38.6077 35.2222 38.5735 35.3505 38.6589C35.4789 38.7444 35.5131 38.9238 35.4276 39.0519C35.0083 39.6756 34.6062 40.3078 34.2126 40.94C34.1527 41.0169 34.0586 41.0681 33.9645 41.0681ZM36.4714 37.3176C36.4115 37.3176 36.3602 37.3006 36.3088 37.2664C36.1805 37.1724 36.1548 37.0015 36.2489 36.8734C36.6938 36.2668 37.1473 35.6517 37.6093 35.0622C37.7035 34.9426 37.8831 34.917 38.0029 35.011C38.1227 35.1049 38.1484 35.2843 38.0543 35.404C37.5922 35.9934 37.1388 36.6 36.7024 37.198C36.6511 37.2749 36.5655 37.3176 36.4714 37.3176ZM39.2521 33.7551C39.1922 33.7551 39.1238 33.7295 39.0724 33.6868C38.9526 33.5842 38.9355 33.4048 39.0382 33.2852C39.5173 32.7128 40.0221 32.1319 40.527 31.5766C40.6296 31.457 40.8093 31.4484 40.9291 31.5595C41.0489 31.662 41.0574 31.8414 40.9462 31.961C40.4414 32.5163 39.9451 33.0887 39.4746 33.6611C39.4147 33.7209 39.3291 33.7551 39.2521 33.7551ZM42.2724 30.3976C42.2039 30.3976 42.1269 30.372 42.0756 30.3207C41.9644 30.2096 41.9644 30.0302 42.067 29.9192C42.589 29.3809 43.128 28.8427 43.6756 28.3216C43.7868 28.2105 43.9665 28.2191 44.0777 28.3301C44.1889 28.4412 44.1804 28.6206 44.0692 28.7317C43.5301 29.2443 42.9911 29.7825 42.4777 30.3207C42.4264 30.372 42.3494 30.3976 42.2724 30.3976Z" fill="white"/>
<mask id="mask0_951_4926" style="mask-type:luminance" maskUnits="userSpaceOnUse" x="0" y="1" width="167" height="123">
<path d="M166.815 1.28467H0V123.344H166.815V1.28467Z" fill="white"/>
</mask>
<g mask="url(#mask0_951_4926)">
<path d="M122.98 124C117.827 115.143 108.391 109.212 97.6018 109.212C81.286 109.212 68.0717 95.6538 68.0717 78.9387V61.8403C68.0717 51.0264 59.5249 42.2704 48.9777 42.2704H19.589C9.86018 42.2704 1.9801 50.3505 1.9801 60.3271V96.8038C1.9801 107.012 5.26347 116.424 10.8098 124.01H122.98V124Z" fill="#DDDEDF"/>
<path d="M66.132 111.37H59.05V124H66.132V111.37Z" fill="#5479F7"/>
<path d="M118.444 124C118.12 121.549 117.221 119.521 115.564 118.089C102.461 106.77 58.4135 111.885 58.4135 111.885L53.7057 124H118.444Z" fill="black"/>
<path d="M90.8027 124C90.0652 123.596 89.2974 123.243 88.4993 122.961L48.129 108.183C48.129 108.183 35.6118 104.692 29.4694 115.849C28.3783 117.847 26.3376 114.276 25.8527 115.89C25.2061 118.038 25.489 121.044 26.3982 124.01H90.8027V124Z" fill="black"/>
<path d="M69.0618 116.192L88.3983 123.274C88.9741 123.485 89.5399 123.728 90.0854 124H91.4695C90.5704 123.465 89.6207 123.011 88.6306 122.648L69.2941 115.567C69.1224 115.506 68.9304 115.587 68.8698 115.768C68.7991 115.94 68.89 116.132 69.0618 116.192Z" fill="white"/>
<path d="M68.4152 76.3564C68.4152 76.3564 72.2947 111.481 98.309 113.781L68.4152 114.205C68.4152 114.205 57.3528 91.8106 56.8982 83.0949C56.4537 74.3792 68.4152 76.3564 68.4152 76.3564Z" fill="white"/>
<path d="M68.4153 114.538C68.2839 114.538 68.1728 114.467 68.1122 114.356C67.6576 113.438 57.0094 91.8005 56.5648 83.1151C56.4537 80.916 57.1003 79.1708 58.4844 77.9401C61.8081 74.9744 68.2031 75.9932 68.4759 76.0336C68.6274 76.0538 68.7386 76.1748 68.7487 76.3261C68.7588 76.4169 69.7589 85.1729 73.9111 94.0903C77.7299 102.281 85.0544 112.288 98.3293 113.458C98.5111 113.479 98.6424 113.63 98.6323 113.801C98.6222 113.983 98.4808 114.124 98.2989 114.124L68.4153 114.538C68.4254 114.538 68.4254 114.538 68.4153 114.538ZM65.6673 76.5077C63.566 76.5077 60.717 76.8507 58.9289 78.4344C57.7064 79.5239 57.1306 81.0875 57.2417 83.0848C57.6559 91.2154 67.5666 111.693 68.6274 113.882L94.4195 113.519C89.9744 112.49 85.9535 110.382 82.4479 107.224C78.8513 103.996 75.7801 99.6688 73.3151 94.3627C69.5165 86.212 68.3243 78.1923 68.1324 76.6691C67.7081 76.5985 66.7887 76.5077 65.6673 76.5077Z" fill="black"/>
<path d="M22.8522 121.912C23.2159 122.679 23.5897 123.375 23.9534 124H41.9058C45.5933 120.732 49.8465 117.302 56.0092 117.11C60.7776 116.969 63.7579 118.865 69.6781 117.11C73.2443 116.051 75.9013 114.255 77.6087 112.873C74.5678 110.422 72.3553 107.86 70.7287 105.52C66.1219 98.9223 64.4247 91.5785 64.1317 84.8703C64.3034 84.9914 64.5358 85.0216 64.748 84.8905L71.8501 80.2805C71.8501 80.2805 68.88 56.5242 60.3331 54.4966C60.3331 54.5067 60.3432 54.5168 60.3432 54.5269C59.2016 53.9014 58.0297 53.5181 56.8982 53.4778C38.5518 52.812 36.4504 52.8322 31.3991 54.0124C25.4486 55.4045 24.408 62.6474 23.519 65.4416C20.5084 74.2985 17.1442 88.4211 19.2052 105.378C19.9528 111.663 21.3166 117.191 22.8522 121.912Z" fill="#FF722C"/>
<path d="M129.849 77.9905H98.804C97.5007 77.9905 96.2783 78.6361 95.5812 79.7155L83.9329 113.943H56.4536V114.457C56.4536 116.071 57.767 117.382 59.3834 117.382H117.696C119.312 117.382 120.626 116.071 120.626 114.457V114.003L131.153 81.9953C131.314 81.511 131.506 81.0369 131.688 80.5527C132.163 79.3624 131.254 77.9905 129.849 77.9905Z" fill="black"/>
<path d="M107.007 95.5428C106.573 96.9955 107.24 98.4783 108.503 98.8516C109.765 99.2349 111.139 98.3674 111.584 96.9148C112.018 95.4621 111.351 93.9793 110.089 93.606C108.826 93.2227 107.452 94.0902 107.007 95.5428Z" fill="white"/>
<path d="M110.543 114.346H90.3076C90.1258 114.346 89.9742 114.195 89.9742 114.013C89.9742 113.832 90.1258 113.68 90.3076 113.68H110.533C110.715 113.68 110.867 113.832 110.867 114.013C110.867 114.195 110.725 114.346 110.543 114.346Z" fill="white"/>
<path d="M120.838 114.346H117.251C117.069 114.346 116.918 114.195 116.918 114.013C116.918 113.832 117.069 113.68 117.251 113.68H120.838C121.02 113.68 121.171 113.832 121.171 114.013C121.171 114.195 121.02 114.346 120.838 114.346Z" fill="white"/>
<path d="M74.5172 110.947C72.7391 108.173 69.476 106.76 67.6878 106.861C59.535 107.325 43.8051 99.0836 32.1062 95.099C30.0756 92.1535 31.5506 85.7176 30.6312 78.0006L15.7096 79.2918C14.2245 86.6558 14.7903 99.1543 16.0733 100.809C16.9219 102.836 21.5691 108.727 30.9949 113.317C45.7246 120.489 65.445 115.799 65.445 115.799C65.445 115.799 75.4366 121.075 79.7605 115.345C79.7706 115.335 76.2953 113.721 74.5172 110.947Z" fill="white"/>
<path d="M73.7797 118.351C69.971 118.351 66.1421 116.505 65.4147 116.132C63.7175 116.505 44.9265 120.439 30.8636 113.6C20.9327 108.768 16.5784 102.756 15.8005 100.96C14.3963 99.003 13.9315 86.444 15.3964 79.2112C15.4267 79.0699 15.548 78.959 15.6995 78.9489L30.6211 77.6577C30.803 77.6375 30.9646 77.7686 30.9848 77.9502C31.3687 81.1278 31.3384 84.0835 31.3182 86.676C31.2879 90.2873 31.2677 93.1421 32.3386 94.8066C36.0362 96.0675 40.2086 97.7824 44.2496 99.4468C52.7258 102.937 61.4848 106.528 67.0311 106.528C67.2534 106.528 67.4757 106.518 67.6878 106.508C69.7387 106.397 73.0523 107.981 74.8203 110.745C76.5175 113.408 79.9019 114.992 79.9322 115.012C80.0232 115.052 80.0939 115.133 80.1141 115.234C80.1343 115.335 80.1141 115.436 80.0535 115.516C78.427 117.665 76.1033 118.351 73.7797 118.351ZM65.4551 115.456C65.5056 115.456 65.5663 115.466 65.6067 115.496C65.6976 115.547 75.0224 120.368 79.2453 115.446C78.2754 114.941 75.7093 113.438 74.2343 111.128C72.5068 108.425 69.3345 107.103 67.6979 107.204C67.4757 107.214 67.2433 107.224 67.0109 107.224C61.3332 107.224 52.5136 103.603 43.9668 100.092C39.9055 98.4179 35.6927 96.6929 31.9951 95.432C31.9244 95.4118 31.8638 95.3614 31.8234 95.3008C30.5706 93.475 30.5908 90.479 30.6211 86.6962C30.6413 84.2045 30.6616 81.3901 30.3282 78.3739L15.9824 79.6147C14.568 86.9282 15.1742 99.124 16.336 100.617C16.3562 100.637 16.3663 100.667 16.3764 100.688C17.2654 102.806 22.044 108.596 31.1364 113.025C45.5933 120.066 65.1723 115.526 65.3642 115.486C65.4046 115.456 65.4349 115.456 65.4551 115.456Z" fill="black"/>
<path d="M77.9926 115.92C77.3359 115.92 74.7395 115.678 70.9409 112.238C70.7995 112.117 70.7995 111.905 70.9207 111.764C71.0419 111.623 71.2541 111.623 71.3955 111.744C75.4669 115.436 78.0633 115.254 78.0936 115.254C78.2754 115.234 78.4371 115.375 78.4573 115.557C78.4775 115.738 78.3462 115.9 78.1643 115.92C78.1441 115.91 78.0835 115.92 77.9926 115.92Z" fill="black"/>
<path d="M75.3962 117.272C74.6183 117.272 72.3957 116.999 69.2538 114.265C69.1123 114.144 69.1022 113.933 69.2235 113.791C69.3447 113.65 69.5568 113.64 69.6983 113.761C73.2847 116.878 75.578 116.596 75.5982 116.586C75.7801 116.565 75.9518 116.686 75.972 116.868C76.0023 117.05 75.8811 117.221 75.6993 117.251C75.669 117.251 75.5679 117.272 75.3962 117.272Z" fill="black"/>
<path d="M13.8507 84.6282C13.7497 84.6383 13.6689 84.5576 13.6689 84.4567C13.7699 82.7721 14.5781 70.1626 15.7096 65.0785C18.2757 53.6089 34.1268 53.5887 34.1268 53.5887C31.2071 63.414 30.2676 72.8358 31.197 81.8844C31.2576 82.4392 30.8535 82.9335 30.2979 82.994L13.8507 84.6282Z" fill="#FF722C"/>
<path d="M42.9867 50.2497L32.3082 53.8006C52.9884 59.9843 57.969 53.8006 57.969 53.8006L55.0089 52.0655L56.3425 48.9787C57.7063 49.6243 58.9894 50.3304 59.9491 49.937C62.1818 49.0191 63.4042 45.3068 63.4042 45.3068L64.4145 45.438C64.566 45.4581 64.7176 45.4077 64.8287 45.3169C64.9398 45.216 65.0106 45.0748 65.0106 44.9235C65.0712 42.906 64.9903 41.3928 65.5662 39.678C66.132 37.9832 66.5664 38.0034 67.0917 33.8877L57.8983 27.6838L53.2207 34.5736C53.2207 34.5736 52.4226 32.7074 50.6951 33.343C49.4423 33.807 48.8766 37.7815 50.0485 38.5683L42.9867 50.2497Z" fill="white"/>
<path d="M48.1997 56.9075C44.3607 56.9075 39.168 56.2114 32.2173 54.1334C32.0759 54.093 31.985 53.9619 31.9749 53.8207C31.9749 53.6795 32.0658 53.5483 32.2072 53.4979L42.7746 49.9773L49.6343 38.6288C48.9675 37.8722 49.0787 36.3591 49.1393 35.8749C49.2706 34.7653 49.7353 33.353 50.5941 33.0302C51.867 32.5561 52.7762 33.2622 53.2612 33.9381L57.6356 27.4921C57.7366 27.3408 57.9488 27.3005 58.1003 27.4013L67.2938 33.6052C67.3948 33.6758 67.4554 33.7969 67.4352 33.928C67.0412 37.0047 66.6876 37.842 66.3138 38.7196C66.1825 39.0323 66.041 39.345 65.8996 39.7788C65.4349 41.1709 65.4147 42.4016 65.3844 43.9651C65.3743 44.2778 65.3743 44.5906 65.3642 44.9234C65.3541 45.1655 65.2429 45.3976 65.0611 45.559C64.8792 45.7204 64.6267 45.791 64.3842 45.7607L63.6366 45.6699C63.3032 46.5576 62.1111 49.4225 60.0906 50.2497C59.0803 50.6633 57.868 50.0782 56.5849 49.4629L56.5243 49.4326L55.4433 51.9343L58.1509 53.5281C58.2317 53.5786 58.2923 53.6593 58.3125 53.7602C58.3327 53.851 58.3024 53.9518 58.2418 54.0325C58.0902 54.1939 55.7767 56.9075 48.1997 56.9075ZM33.4195 53.7904C50.2708 58.6224 56.1404 54.9505 57.4134 53.8711L54.8372 52.358C54.6957 52.2773 54.6351 52.0957 54.6957 51.9343L56.0293 48.8475C56.0697 48.7668 56.1303 48.6962 56.2212 48.6659C56.3021 48.6357 56.4031 48.6357 56.4839 48.676C56.6153 48.7365 56.7365 48.7971 56.8577 48.8576C57.9993 49.4124 59.0803 49.9269 59.8178 49.6343C61.8787 48.787 63.0709 45.2362 63.081 45.2059C63.1315 45.0546 63.283 44.9638 63.4346 44.984L64.4448 45.1151C64.5054 45.1252 64.5559 45.105 64.5964 45.0647C64.6368 45.0243 64.6671 44.9739 64.6671 44.9134C64.6772 44.5805 64.6873 44.2678 64.6873 43.9651C64.7176 42.4016 64.7479 41.0599 65.2429 39.577C65.3945 39.1231 65.5359 38.7902 65.6773 38.4674C66.041 37.61 66.3643 36.8736 66.728 34.0591L57.9892 28.1478L53.5036 34.7552C53.4329 34.856 53.3218 34.9166 53.2005 34.8964C53.0793 34.8863 52.9783 34.8056 52.9278 34.6947C52.8975 34.6341 52.2307 33.1311 50.8264 33.6455C50.3819 33.8069 49.9374 34.7955 49.796 35.9455C49.6646 37.0551 49.8465 38.0135 50.2405 38.2858C50.392 38.3867 50.4324 38.5784 50.3415 38.7297L43.2696 50.4212C43.2292 50.4918 43.1686 50.5422 43.0878 50.5624L33.4195 53.7904Z" fill="black"/>
<path d="M50.1293 33.4741C50.1293 33.4741 53.049 33.2219 52.8469 34.5434C52.5539 36.3894 52.1902 36.7626 52.5337 37.4889C52.7156 37.8823 53.2005 38.1547 53.6147 38.1547C54.4734 38.1648 54.7563 36.7324 56.2818 35.1385C56.9284 34.4627 57.6053 33.9583 57.9892 33.7364C60.9391 31.9811 64.2932 35.9455 67.8797 34.8056C70.2639 34.0491 72.1531 31.2145 71.6884 29.3079C71.4964 28.511 70.8195 27.6233 64.9398 25.6865C58.9893 23.7295 56.009 22.7611 54.231 23.6488C50.0283 25.7773 50.1091 32.9495 50.1293 33.4741Z" fill="black"/>
<path d="M56.3425 49.3115C56.2717 49.3115 56.2111 49.2914 56.1505 49.251L53.7966 47.5967C52.6954 46.83 52.1397 45.5186 52.3216 44.187L52.4125 43.5414C52.4428 43.3599 52.6045 43.2287 52.7863 43.259C52.9682 43.2893 53.0995 43.4507 53.0692 43.6322L52.9783 44.2778C52.8267 45.3572 53.2813 46.4164 54.1704 47.0418L56.5243 48.6962C56.6758 48.7971 56.7061 49.0089 56.6051 49.1602C56.5546 49.2611 56.4536 49.3115 56.3425 49.3115Z" fill="black"/>
<path d="M59.7976 47.7883C59.737 47.7883 59.6764 47.7681 59.6258 47.7379L55.0594 44.8932C52.4934 43.2893 51.473 40.1016 52.6247 37.2972L53.6754 34.7451C53.7461 34.5736 53.938 34.4929 54.1098 34.5635C54.2815 34.6341 54.3624 34.8258 54.2916 34.9973L53.241 37.5494C52.2105 40.0511 53.1197 42.8958 55.4029 44.3283L59.9693 47.173C60.1209 47.2738 60.1714 47.4756 60.0805 47.6269C60.0198 47.7379 59.9087 47.7883 59.7976 47.7883Z" fill="#5479F7"/>
<path d="M50.4324 35.421C50.4021 35.421 50.3617 35.4109 50.3314 35.4008C50.1597 35.3403 50.0586 35.1587 50.1193 34.9771C50.291 34.4425 54.4533 21.9541 61.1918 23.8405C61.3736 23.8909 61.4747 24.0725 61.4241 24.2541C61.3736 24.4356 61.1918 24.5365 61.0099 24.4861C54.8776 22.7813 50.786 35.0679 50.7456 35.189C50.7052 35.3403 50.5739 35.421 50.4324 35.421Z" fill="#5479F7"/>
<path d="M60.1713 48.1314C60.8987 47.627 61.0705 46.6283 60.5653 45.8819C60.0602 45.1455 59.0601 44.9538 58.3327 45.4582C57.6053 45.9625 57.4335 46.9612 57.9387 47.7077C58.4539 48.4441 59.4439 48.6358 60.1713 48.1314Z" fill="#5479F7"/>
<path d="M57.6154 38.4271C59.3126 35.8145 58.757 32.4351 56.3627 30.8715C56.1 30.7001 55.0796 30.1755 54.7967 30.0545C52.5135 29.1264 50.4728 30.4479 48.9675 32.768C47.341 35.2798 47.149 38.2657 49.3009 39.8999C49.3918 39.9705 50.0687 40.364 50.1697 40.4144C52.9581 41.7964 55.9181 41.0398 57.6154 38.4271Z" fill="white"/>
<path d="M56.5647 37.8016C58.2115 35.1587 57.5851 31.7894 55.1706 30.2662C52.756 28.7531 49.4626 29.671 47.8158 32.314C46.1691 34.9569 46.7955 38.3262 49.21 39.8494C51.6245 41.3625 54.918 40.4446 56.5647 37.8016Z" fill="#FF722C"/>
<path d="M29.8735 83.3772C29.7018 83.3772 29.5603 83.2461 29.5401 83.0746C29.5199 82.893 29.6513 82.7316 29.8432 82.7115L30.2675 82.6711C30.4494 82.6509 30.6009 82.5702 30.7221 82.429C30.8333 82.2878 30.8939 82.1062 30.8737 81.9246C30.6211 79.4532 30.51 76.9212 30.5302 74.3993C30.5302 74.2177 30.6817 74.0664 30.8636 74.0664C31.0454 74.0664 31.197 74.2177 31.197 74.3993C31.1667 76.8909 31.2778 79.4027 31.5304 81.854C31.5708 82.2172 31.4596 82.5702 31.2374 82.8426C31.0151 83.115 30.6918 83.2865 30.3382 83.3268L29.9139 83.3672C29.8937 83.3772 29.8836 83.3772 29.8735 83.3772Z" fill="black"/>
<path d="M46.4824 124L45.9671 121.831H41.1077L40.5824 124H46.4824Z" fill="white"/>
<path d="M40.9259 124L41.3704 122.164H45.7044L46.1389 124H46.8258L46.2904 121.75L46.2298 121.498H40.8451L40.2389 124H40.9259Z" fill="black"/>
<path d="M144.519 124L143.943 121.579L139.084 121.589L138.498 124H144.519Z" fill="white"/>
<path d="M138.841 124L139.346 121.922L143.68 121.912L144.175 124H144.862L144.266 121.508L144.205 121.246L138.811 121.256L138.154 124H138.841Z" fill="black"/>
<path d="M25.0115 123.206L161.054 123.206V116.74L25.0115 116.74V123.206Z" fill="white"/>
<path d="M161.057 123.536H25.0142C24.8323 123.536 24.6808 123.385 24.6808 123.203V116.737C24.6808 116.555 24.8323 116.404 25.0142 116.404H161.057C161.239 116.404 161.39 116.555 161.39 116.737V123.203C161.39 123.395 161.239 123.536 161.057 123.536ZM25.3476 122.87H160.723V117.07H25.3476V122.87Z" fill="black"/>
<path d="M66.2028 122.023C66.0209 122.023 65.8694 121.871 65.8694 121.69V118.089C65.8694 117.907 66.0209 117.756 66.2028 117.756C66.3846 117.756 66.5362 117.907 66.5362 118.089V121.69C66.5362 121.871 66.3846 122.023 66.2028 122.023Z" fill="#5479F7"/>
</g>
</g>
<defs>
<clipPath id="clip0_951_4926">
<rect width="163" height="124" fill="white"/>
</clipPath>
</defs>
</svg>
