<svg width="580" height="844" viewBox="0 0 580 844" fill="none" xmlns="http://www.w3.org/2000/svg">
<path d="M198.323 206.526V265.83L250.069 296.293V237.597L198.323 206.526Z" fill="#FF722C"/>
<path d="M250.069 297.965C249.766 297.965 249.462 297.864 249.209 297.712L197.463 267.249C196.957 266.945 196.653 266.387 196.653 265.83V206.525C196.653 205.917 196.957 205.36 197.514 205.055C198.02 204.751 198.679 204.751 199.185 205.055L250.981 236.178C251.487 236.482 251.791 237.039 251.791 237.597V296.242C251.791 296.85 251.487 297.408 250.93 297.712C250.677 297.864 250.373 297.965 250.069 297.965ZM199.995 264.867L248.449 293.353V238.56L199.995 209.465V264.867Z" fill="black"/>
<path d="M156.25 122.385L207.438 151.682L156.958 182.348L105.264 151.935L156.25 122.385Z" fill="#3C78EC"/>
<path d="M249.966 176.367L301.205 205.664L250.675 236.33L198.98 205.917L249.966 176.367Z" fill="#3C78EC"/>
<path d="M250.676 238.002C250.372 238.002 250.068 237.901 249.815 237.749L198.121 207.387C197.614 207.083 197.311 206.525 197.311 205.917C197.311 205.309 197.614 204.751 198.121 204.498L249.106 174.897C249.613 174.592 250.271 174.592 250.777 174.897L302.016 204.194C302.523 204.498 302.826 205.056 302.877 205.613C302.877 206.221 302.573 206.779 302.067 207.083L251.587 237.749C251.284 237.901 250.98 238.002 250.676 238.002ZM202.323 205.968L250.676 234.403L297.915 205.765L250.018 178.343L202.323 205.968Z" fill="black"/>
<path d="M205.464 269.885L256.652 239.776L207.843 211.391L156.402 241.5L104.91 211.138L11.3428 265.728L63.1387 295.938L107.239 269.885L112.302 272.926L112.201 324.526L157.769 351.086L250.07 296.039L205.464 269.885Z" fill="#3C78EC"/>
<path d="M112.302 272.926L155.997 298.574L112.352 323.816L112.302 272.926Z" fill="white"/>
<path d="M157.768 352.759C157.464 352.759 157.211 352.657 156.907 352.556L111.339 325.996C110.832 325.692 110.529 325.134 110.529 324.526L110.63 273.889L107.238 271.862L63.9984 297.408C63.4921 297.712 62.8339 297.712 62.3276 297.408L10.481 267.198C9.97469 266.894 9.6709 266.337 9.6709 265.728C9.6709 265.12 9.97469 264.563 10.481 264.259L104.048 209.668C104.554 209.364 105.212 209.364 105.719 209.668L156.401 239.523L206.981 209.871C207.488 209.567 208.146 209.567 208.652 209.871L257.461 238.307C257.967 238.611 258.271 239.168 258.271 239.726C258.271 240.334 257.967 240.892 257.461 241.196L208.703 269.885L250.828 294.57C251.335 294.874 251.638 295.431 251.638 295.989C251.638 296.597 251.335 297.155 250.828 297.408L158.628 352.556C158.375 352.708 158.072 352.759 157.768 352.759ZM113.87 323.563L157.768 349.16L246.778 296.04L204.602 271.355C204.095 271.051 203.792 270.493 203.792 269.936C203.792 269.327 204.095 268.77 204.602 268.516L253.36 239.878L207.842 213.318L157.261 242.97C156.755 243.274 156.097 243.274 155.591 242.97L104.909 213.115L14.6834 265.728L63.1883 294.012L106.428 268.466C106.934 268.161 107.592 268.161 108.149 268.466L113.212 271.507C113.718 271.811 114.022 272.368 114.022 272.926L113.87 323.563Z" fill="black"/>
<path d="M155.996 1.698V121.269L208.197 151.682L207.843 211.29L256.651 239.776L257.006 180.32L301.004 205.562V86.1938L155.996 1.698Z" fill="#FF722C"/>
<path d="M256.651 241.449C256.347 241.449 256.094 241.348 255.791 241.246L206.982 212.811C206.476 212.507 206.172 211.949 206.172 211.341L206.526 152.696L155.135 122.739C154.629 122.435 154.325 121.878 154.325 121.269V1.69803C154.325 1.08978 154.629 0.532217 155.186 0.228093C155.692 -0.076031 156.35 -0.076031 156.857 0.228093L301.865 84.7239C302.371 85.028 302.675 85.5856 302.675 86.1938V205.512C302.675 206.12 302.371 206.678 301.865 206.982C301.359 207.286 300.701 207.286 300.194 206.982L258.677 183.159L258.322 239.726C258.322 240.334 258.018 240.892 257.461 241.145C257.259 241.348 256.955 241.449 256.651 241.449ZM209.513 210.378L254.98 236.887L255.335 180.32C255.335 179.712 255.639 179.154 256.196 178.901C256.702 178.597 257.36 178.597 257.866 178.901L299.384 202.673V87.1569L157.667 4.5872V120.256L209.058 150.212C209.564 150.516 209.868 151.074 209.868 151.682L209.513 210.378Z" fill="black"/>
<path d="M155.894 1.90063V121.472V121.776L104.453 151.732L104.503 211.695L104.301 211.848L11.291 266.032V86.1937L155.894 1.90063Z" fill="white"/>
<path d="M11.2919 267.705C10.9881 267.705 10.735 267.655 10.4818 267.503C9.97551 267.198 9.62109 266.641 9.62109 266.033V86.1939C9.62109 85.5857 9.92488 85.0281 10.4312 84.724L155.085 0.430974C155.591 0.12685 156.25 0.12685 156.756 0.430974C157.262 0.735098 157.617 1.29266 157.617 1.90091V121.776C157.617 122.385 157.313 122.942 156.807 123.246L106.175 152.746L106.226 211.746C106.226 212.355 105.922 212.912 105.416 213.216L12.1527 267.503C11.8489 267.655 11.5957 267.705 11.2919 267.705ZM12.9628 87.157V263.143L102.834 210.733L102.783 151.733C102.783 151.124 103.087 150.567 103.593 150.263L154.224 120.763V4.79008L12.9628 87.157Z" fill="black"/>
<path d="M104.606 151.733V211.037L156.402 241.5V182.855L104.606 151.733Z" fill="#FF722C"/>
<path d="M156.402 243.173C156.099 243.173 155.795 243.071 155.542 242.919L103.796 212.507C103.29 212.203 102.986 211.645 102.986 211.088V151.783C102.986 151.175 103.29 150.618 103.847 150.314C104.353 150.009 105.012 150.009 105.518 150.314L157.314 181.436C157.82 181.74 158.124 182.297 158.124 182.855V241.5C158.124 242.108 157.82 242.666 157.263 242.97C157.01 243.122 156.706 243.173 156.402 243.173ZM106.277 210.125L154.732 238.611V183.818L106.277 154.723V210.125Z" fill="black"/>
<path d="M208.044 151.682V210.986L156.653 241.044V182.246L208.044 151.682Z" fill="white"/>
<path d="M156.654 242.716C156.35 242.716 156.097 242.666 155.844 242.513C155.338 242.209 154.983 241.652 154.983 241.044V182.246C154.983 181.638 155.287 181.131 155.794 180.827L207.184 150.263C207.691 149.958 208.349 149.958 208.855 150.263C209.362 150.567 209.716 151.124 209.716 151.732V211.037C209.716 211.645 209.412 212.202 208.906 212.456L157.515 242.513C157.211 242.666 156.958 242.716 156.654 242.716ZM158.325 183.209V238.154L206.374 210.023V154.622L158.325 183.209Z" fill="black"/>
<path d="M11.3428 147.019C10.7858 147.019 10.2289 146.714 9.87444 146.208C9.41876 145.397 9.67192 144.383 10.482 143.927L154.225 60.2419C155.035 59.7857 156.047 60.0391 156.503 60.8501C156.959 61.6611 156.706 62.6749 155.895 63.1311L12.1529 146.765C11.8997 146.968 11.5959 147.019 11.3428 147.019Z" fill="black"/>
<path d="M11.3428 207.438C10.7858 207.438 10.2289 207.134 9.87444 206.627C9.41876 205.816 9.67192 204.802 10.482 204.346L154.984 120.256C155.794 119.799 156.807 120.053 157.262 120.864C157.718 121.675 157.465 122.689 156.655 123.145L12.1529 207.184C11.8997 207.336 11.5959 207.438 11.3428 207.438Z" fill="black"/>
<path d="M104.454 213.216C103.543 213.216 102.783 212.456 102.783 211.543V33.1746C102.783 32.2623 103.543 31.502 104.454 31.502C105.365 31.502 106.125 32.2623 106.125 33.1746V211.543C106.125 212.456 105.365 213.216 104.454 213.216Z" fill="black"/>
<path d="M55.3925 242.057C54.4812 242.057 53.7217 241.297 53.7217 240.385V61.4075C53.7217 60.4952 54.4812 59.7349 55.3925 59.7349C56.3039 59.7349 57.0634 60.4952 57.0634 61.4075V240.435C57.0634 241.297 56.3545 242.057 55.3925 242.057Z" fill="black"/>
<path d="M300.904 147.12C300.6 147.12 300.347 147.069 300.043 146.917L156.402 63.08C155.592 62.6239 155.339 61.6101 155.794 60.7991C156.25 59.9881 157.263 59.7347 158.073 60.1909L301.765 143.977C302.575 144.433 302.828 145.447 302.372 146.258C302.018 146.816 301.461 147.12 300.904 147.12Z" fill="black"/>
<path d="M300.904 207.438C300.601 207.438 300.347 207.387 300.044 207.235L155.238 122.739C154.428 122.283 154.175 121.269 154.63 120.458C155.086 119.647 156.099 119.394 156.909 119.85L301.715 204.346C302.525 204.802 302.778 205.816 302.322 206.627C302.018 207.134 301.461 207.438 300.904 207.438Z" fill="black"/>
<path d="M207.995 212.253C207.084 212.253 206.324 211.493 206.324 210.58V33.1746C206.324 32.2623 207.084 31.502 207.995 31.502C208.906 31.502 209.666 32.2623 209.666 33.1746V210.58C209.666 211.493 208.906 212.253 207.995 212.253Z" fill="black"/>
<path d="M257.007 241.196C256.095 241.196 255.336 240.435 255.336 239.523V61.4075C255.336 60.4952 256.095 59.7349 257.007 59.7349C257.918 59.7349 258.678 60.4952 258.678 61.4075V239.574C258.678 240.486 257.969 241.196 257.007 241.196Z" fill="black"/>
<path d="M63.3418 297.256C62.7848 297.256 62.2279 296.952 61.8735 296.445C61.4178 295.634 61.6709 294.62 62.481 294.164L206.477 210.276C207.287 209.82 208.299 210.074 208.755 210.885C209.211 211.696 208.958 212.709 208.148 213.165L64.2025 297.053C63.9494 297.205 63.6456 297.256 63.3418 297.256Z" fill="black"/>
<path d="M249.614 297.256C249.31 297.256 249.057 297.205 248.753 297.053L104.808 213.165C103.998 212.709 103.745 211.696 104.201 210.885C104.656 210.074 105.669 209.82 106.479 210.276L250.475 294.164C251.285 294.62 251.538 295.634 251.082 296.445C250.728 296.952 250.171 297.256 249.614 297.256Z" fill="black"/>
<path d="M200.602 326.097C200.298 326.097 200.045 326.046 199.741 325.894L55.7457 242.007C54.9356 241.55 54.6824 240.537 55.1381 239.726C55.5938 238.915 56.6064 238.661 57.4165 239.117L201.412 323.005C202.222 323.461 202.476 324.475 202.02 325.286C201.716 325.793 201.159 326.097 200.602 326.097Z" fill="black"/>
<path d="M112.353 325.488C111.796 325.488 111.239 325.184 110.884 324.677C110.429 323.866 110.682 322.853 111.492 322.396L255.488 238.509C256.298 238.053 257.31 238.306 257.766 239.117C258.222 239.928 257.968 240.942 257.158 241.398L113.213 325.286C112.96 325.438 112.656 325.488 112.353 325.488Z" fill="black"/>
<path d="M217.716 191.623L167.135 162.174L116.655 191.674L167.742 221.427L217.716 191.623Z" fill="#3C78EC"/>
<path d="M167.743 223.1C167.439 223.1 167.186 222.999 166.883 222.897L115.795 193.144C115.289 192.84 114.985 192.282 114.985 191.674C114.985 191.066 115.289 190.508 115.795 190.204L166.275 160.755C166.781 160.451 167.439 160.451 167.946 160.755L218.476 190.153C218.982 190.457 219.286 191.015 219.286 191.573C219.286 192.181 218.982 192.738 218.476 193.043L168.604 222.847C168.3 223.049 168.047 223.1 167.743 223.1ZM119.998 191.674L167.743 219.501L214.425 191.623L167.136 164.151L119.998 191.674Z" fill="black"/>
<path d="M167.186 102.616V162.428L217.918 191.725V132.573L167.186 102.616Z" fill="#FF722C"/>
<path d="M217.918 193.398C217.614 193.398 217.361 193.347 217.108 193.195L166.375 163.897C165.869 163.593 165.515 163.036 165.515 162.428V102.616C165.515 102.008 165.818 101.451 166.375 101.147C166.882 100.842 167.54 100.842 168.046 101.147L218.728 131.153C219.235 131.458 219.538 132.015 219.538 132.573V191.725C219.538 192.333 219.235 192.891 218.728 193.195C218.475 193.296 218.171 193.398 217.918 193.398ZM168.856 161.464L216.247 188.836V133.536L168.856 105.556V161.464Z" fill="black"/>
<path d="M167.185 102.616V162.428L116.857 191.775V132.421L167.185 102.616Z" fill="white"/>
<path d="M116.858 193.448C116.555 193.448 116.301 193.397 116.048 193.245C115.542 192.941 115.188 192.384 115.188 191.775V132.471C115.188 131.863 115.491 131.356 115.998 131.052L166.275 101.248C166.781 100.944 167.439 100.944 167.945 101.248C168.452 101.552 168.806 102.11 168.806 102.718V162.529C168.806 163.137 168.502 163.695 167.996 163.999L117.719 193.296C117.466 193.347 117.162 193.448 116.858 193.448ZM118.529 133.384V188.836L165.464 161.464V105.556L118.529 133.384Z" fill="black"/>
<path d="M145.819 390.317L96.96 361.882L48.1514 390.368L97.517 419.159L145.819 390.317Z" fill="#3C78EC"/>
<path d="M97.5179 420.831C97.2141 420.831 96.961 420.73 96.6572 420.628L47.2915 391.838C46.7852 391.534 46.4814 390.976 46.4814 390.368C46.4814 389.76 46.7852 389.202 47.2915 388.898L96.1002 360.412C96.6065 360.108 97.2648 360.108 97.7711 360.412L146.63 388.848C147.137 389.152 147.44 389.709 147.44 390.267C147.44 390.875 147.137 391.433 146.63 391.737L98.328 420.578C98.1255 420.73 97.8217 420.831 97.5179 420.831ZM51.494 390.368L97.5179 417.232L142.529 390.368L96.961 363.859L51.494 390.368Z" fill="black"/>
<path d="M96.96 304.302V362.136L146.022 390.419V333.244L96.96 304.302Z" fill="#FF722C"/>
<path d="M146.023 392.092C145.719 392.092 145.466 392.041 145.213 391.889L96.1508 363.605C95.6445 363.301 95.29 362.744 95.29 362.136V304.301C95.29 303.693 95.5938 303.135 96.1508 302.831C96.6571 302.527 97.3153 302.527 97.8216 302.831L146.883 331.774C147.39 332.078 147.694 332.636 147.694 333.193V390.368C147.694 390.977 147.39 391.534 146.883 391.838C146.58 392.041 146.326 392.092 146.023 392.092ZM98.6317 361.173L144.352 387.53V334.207L98.6317 307.19V361.173Z" fill="black"/>
<path d="M96.9587 304.301V362.136L48.3525 390.47V333.142L96.9587 304.301Z" fill="white"/>
<path d="M48.3535 392.143C48.0497 392.143 47.7965 392.092 47.5434 391.94C47.037 391.636 46.6826 391.078 46.6826 390.47V333.142C46.6826 332.534 46.9864 332.027 47.4927 331.723L96.0989 302.882C96.6052 302.578 97.2634 302.578 97.7697 302.882C98.276 303.186 98.6304 303.744 98.6304 304.352V362.186C98.6304 362.795 98.3266 363.352 97.8203 363.656L49.2142 391.99C48.9104 392.041 48.6572 392.143 48.3535 392.143ZM50.0243 334.055V387.53L95.2888 361.122V307.241L50.0243 334.055Z" fill="black"/>
<path d="M329.46 349.717L280.601 321.282L231.792 349.768L281.158 378.508L329.46 349.717Z" fill="#3C78EC"/>
<path d="M281.158 380.18C280.854 380.18 280.601 380.079 280.297 379.978L230.982 351.187C230.476 350.883 230.172 350.326 230.172 349.717C230.172 349.109 230.476 348.551 230.982 348.247L279.791 319.761C280.297 319.457 280.955 319.457 281.462 319.761L330.321 348.197C330.827 348.501 331.131 349.058 331.131 349.616C331.131 350.224 330.827 350.782 330.321 351.086L282.018 379.978C281.765 380.13 281.461 380.18 281.158 380.18ZM235.134 349.768L281.158 376.632L326.169 349.768L280.601 323.258L235.134 349.768Z" fill="black"/>
<path d="M280.651 263.701V321.484L329.663 349.818V292.643L280.651 263.701Z" fill="#FF722C"/>
<path d="M329.662 351.491C329.359 351.491 329.105 351.44 328.852 351.288L279.79 323.005C279.284 322.701 278.93 322.143 278.93 321.535V263.701C278.93 263.092 279.233 262.535 279.79 262.231C280.297 261.927 280.955 261.927 281.461 262.231L330.523 291.173C331.029 291.477 331.333 292.035 331.333 292.593V349.768C331.333 350.376 331.029 350.934 330.523 351.238C330.27 351.39 329.966 351.491 329.662 351.491ZM282.322 320.521L328.042 346.879V293.606L282.322 266.59V320.521Z" fill="black"/>
<path d="M280.65 263.701V321.484L231.993 349.869V292.491L280.65 263.701Z" fill="white"/>
<path d="M231.994 351.542C231.69 351.542 231.437 351.491 231.184 351.339C230.678 351.035 230.323 350.477 230.323 349.869V292.491C230.323 291.883 230.627 291.376 231.133 291.072L279.739 262.231C280.246 261.927 280.904 261.927 281.41 262.231C281.917 262.535 282.271 263.092 282.271 263.701V321.535C282.271 322.143 281.967 322.701 281.461 323.005L232.855 351.339C232.602 351.44 232.298 351.542 231.994 351.542ZM233.665 293.454V346.929L278.929 320.521V266.641L233.665 293.454Z" fill="black"/>
<path d="M135.137 497.116L162.63 469.644L155.946 457.529L136.149 437.711L123.745 430.665L96.252 458.188L135.137 497.116Z" fill="black"/>
<path d="M135.137 498.789C134.732 498.789 134.276 498.637 133.972 498.282L95.0874 459.354C94.4292 458.695 94.4292 457.631 95.0874 456.972L122.58 429.449C123.087 428.942 123.947 428.79 124.606 429.195L137.01 436.241C137.162 436.291 137.263 436.393 137.365 436.494L157.162 456.313C157.263 456.414 157.364 456.566 157.465 456.668L164.149 468.782C164.503 469.441 164.402 470.252 163.845 470.759L136.352 498.282C135.998 498.637 135.542 498.789 135.137 498.789ZM98.581 458.188L135.086 494.734L160.503 469.289L154.529 458.492L135.036 438.978L123.998 432.794L98.581 458.188Z" fill="black"/>
<path d="M339.384 253.867C300.752 215.193 238.07 215.193 199.439 253.867C160.807 292.542 160.807 355.293 199.439 393.967C238.07 432.642 300.752 432.642 339.384 393.967C378.016 355.293 378.016 292.542 339.384 253.867ZM333.156 387.682C297.967 422.91 240.906 422.91 205.717 387.682C170.528 352.454 170.528 295.33 205.717 260.102C240.906 224.874 297.967 224.874 333.156 260.102C368.345 295.38 368.345 352.454 333.156 387.682Z" fill="white"/>
<path d="M269.411 424.633C242.526 424.633 217.261 414.141 198.274 395.133C179.287 376.125 168.807 350.832 168.807 323.917C168.807 297.002 179.287 271.709 198.274 252.702C217.261 233.694 242.526 223.202 269.411 223.202C296.297 223.202 321.562 233.694 340.548 252.702C359.535 271.709 370.016 297.002 370.016 323.917C370.016 350.832 359.535 376.125 340.548 395.133C321.562 414.192 296.297 424.633 269.411 424.633ZM269.411 226.547C243.437 226.547 218.982 236.685 200.603 255.084C182.275 273.433 172.148 297.915 172.148 323.917C172.148 349.92 182.275 374.402 200.654 392.801C219.033 411.201 243.437 421.339 269.462 421.339C295.436 421.339 319.891 411.201 338.27 392.801C356.649 374.402 366.775 349.971 366.775 323.917C366.775 297.915 356.649 273.433 338.27 255.033C319.84 236.684 295.436 226.547 269.411 226.547ZM269.411 415.763C245.918 415.763 222.425 406.791 204.502 388.899C168.705 353.063 168.705 294.772 204.502 258.987C221.818 241.652 244.906 232.072 269.411 232.072C293.917 232.072 316.954 241.652 334.321 258.987C351.637 276.322 361.206 299.435 361.206 323.968C361.206 348.501 351.637 371.564 334.321 388.949C316.448 406.791 292.955 415.763 269.411 415.763ZM269.411 235.367C245.766 235.367 223.59 244.592 206.881 261.319C172.401 295.837 172.401 351.998 206.881 386.516C224.096 403.75 246.779 412.418 269.411 412.418C292.043 412.418 314.676 403.801 331.941 386.516C348.649 369.789 357.864 347.538 357.864 323.917C357.864 300.246 348.649 278.045 331.941 261.319C315.283 244.592 293.056 235.367 269.411 235.367Z" fill="black"/>
<path d="M93.2155 485.407C89.5701 489.057 89.5701 494.987 93.2155 498.637L94.7345 500.157C98.3799 503.807 104.304 503.807 107.949 500.157L203.035 404.966L188.301 390.216L93.2155 485.407Z" fill="white"/>
<path d="M101.366 504.567C98.5308 504.567 95.7461 503.503 93.569 501.323L92.05 499.802C87.7463 495.494 87.7463 488.499 92.05 484.191L187.136 389C187.743 388.392 188.857 388.392 189.515 389L204.249 403.75C204.907 404.409 204.907 405.473 204.249 406.132L109.163 501.323C106.986 503.503 104.151 504.567 101.366 504.567ZM94.4297 486.573C91.4424 489.564 91.4424 494.43 94.4297 497.42L95.9486 498.941C98.9359 501.931 103.797 501.931 106.784 498.941L200.654 404.966L188.3 392.599L94.4297 486.573Z" fill="black"/>
<path d="M149.011 451.751C148.606 451.751 148.15 451.599 147.846 451.244C147.188 450.585 147.188 449.521 147.846 448.862L155.795 440.904C156.454 440.245 157.517 440.245 158.175 440.904C158.833 441.563 158.833 442.627 158.175 443.286L150.226 451.244C149.821 451.599 149.416 451.751 149.011 451.751Z" fill="black"/>
<path d="M169.668 411.201L182.073 423.619C184.756 426.306 189.06 426.306 191.743 423.619L194.629 420.73C197.313 418.044 197.313 413.735 194.629 411.049L182.224 398.631C179.541 395.944 175.237 395.944 172.554 398.631L169.668 401.52C166.984 404.206 166.984 408.515 169.668 411.201Z" fill="white"/>
<path d="M186.933 427.319C184.756 427.319 182.579 426.508 180.908 424.836L168.503 412.417C165.162 409.072 165.162 403.699 168.503 400.354L171.389 397.465C173.01 395.843 175.136 394.981 177.414 394.981C179.693 394.981 181.819 395.843 183.44 397.465L195.844 409.883C197.464 411.505 198.325 413.634 198.325 415.915C198.325 418.196 197.464 420.325 195.844 421.947L192.958 424.836C191.287 426.458 189.11 427.319 186.933 427.319ZM170.832 410.035L183.237 422.453C185.262 424.481 188.553 424.481 190.528 422.453L193.414 419.564C194.376 418.601 194.933 417.283 194.933 415.915C194.933 414.546 194.376 413.228 193.414 412.265L181.009 399.847C180.047 398.884 178.731 398.326 177.364 398.326C175.997 398.326 174.68 398.884 173.718 399.847L170.832 402.736C168.807 404.713 168.807 408.008 170.832 410.035Z" fill="black"/>
<path d="M154.022 426.864L166.427 439.282C169.111 441.968 173.414 441.968 176.098 439.282L178.984 436.393C181.667 433.706 181.667 429.398 178.984 426.712L166.579 414.293C163.895 411.607 159.592 411.607 156.908 414.293L154.022 417.182C151.339 419.869 151.339 424.177 154.022 426.864Z" fill="white"/>
<path d="M171.288 442.982C169.111 442.982 166.933 442.171 165.263 440.498L152.858 428.08C151.238 426.458 150.377 424.329 150.377 422.048C150.377 419.767 151.238 417.638 152.858 416.016L155.744 413.127C157.364 411.505 159.491 410.644 161.769 410.644C164.047 410.644 166.174 411.505 167.794 413.127L180.199 425.546C181.819 427.168 182.68 429.296 182.68 431.577C182.68 433.858 181.819 435.987 180.199 437.609L177.313 440.498C175.642 442.12 173.465 442.982 171.288 442.982ZM161.769 413.938C160.402 413.938 159.086 414.496 158.124 415.459L155.238 418.348C153.212 420.376 153.212 423.67 155.238 425.647L167.642 438.065C169.668 440.093 172.959 440.093 174.933 438.065L177.819 435.176C179.844 433.149 179.844 429.854 177.819 427.877L165.414 415.459C164.402 414.496 163.136 413.938 161.769 413.938Z" fill="black"/>
<path d="M304.196 253.715C303.942 253.715 303.689 253.665 303.487 253.563C296.55 250.218 289.158 247.937 281.513 246.721C280.601 246.569 279.994 245.707 280.095 244.795C280.247 243.882 281.108 243.274 282.019 243.375C290.019 244.592 297.715 246.974 304.955 250.471C305.765 250.877 306.12 251.891 305.714 252.702C305.411 253.361 304.803 253.715 304.196 253.715Z" fill="black"/>
<path d="M269.513 405.473C248.653 405.473 227.793 397.516 211.945 381.65C200.401 370.094 192.654 355.546 189.566 339.58C189.414 338.668 189.971 337.806 190.882 337.603C191.794 337.451 192.654 338.009 192.857 338.921C195.844 354.229 203.236 368.168 214.274 379.268C244.703 409.731 294.272 409.731 324.701 379.268C355.131 348.805 355.131 299.182 324.701 268.719C324.043 268.06 324.043 266.996 324.701 266.337C325.359 265.678 326.423 265.678 327.081 266.337C358.827 298.118 358.827 349.819 327.081 381.6C311.233 397.516 290.373 405.473 269.513 405.473Z" fill="black"/>
<path d="M218.881 583.994C222.172 587.644 226.83 589.823 231.742 589.925C236.653 590.077 241.412 588.151 244.906 584.653C248.754 580.801 250.83 575.58 250.728 570.157C250.627 564.733 248.298 559.614 244.298 555.964L145.162 465.487L127.896 482.772L218.881 583.994Z" fill="black"/>
<path d="M232.197 591.648C232.045 591.648 231.843 591.648 231.691 591.648C226.324 591.496 221.21 589.114 217.615 585.16L126.681 483.836C126.074 483.177 126.124 482.164 126.732 481.555L143.997 464.271C144.605 463.663 145.668 463.612 146.326 464.22L245.361 554.748C249.665 558.701 252.247 564.328 252.348 570.157C252.5 575.986 250.171 581.713 246.07 585.87C242.425 589.57 237.361 591.648 232.197 591.648ZM220.096 582.879C223.083 586.174 227.336 588.151 231.741 588.252C236.146 588.353 240.551 586.63 243.69 583.488C247.184 579.99 249.108 575.175 249.007 570.207C248.905 565.291 246.728 560.526 243.083 557.181L145.212 467.768L130.225 482.772L220.096 582.879Z" fill="black"/>
<path d="M258.374 775.643C269.158 779.495 281.057 778.735 291.284 773.565C301.512 768.395 309.208 759.271 312.549 748.323C315.891 737.273 314.575 725.311 308.904 715.275C303.183 705.238 293.613 697.99 282.424 695.253L49.823 638.432C34.5323 634.682 18.9885 643.552 14.381 658.657C9.77357 673.863 17.8746 689.982 32.8109 695.354L258.374 775.643Z" fill="black"/>
<path d="M272.398 779.698C267.436 779.698 262.525 778.887 257.816 777.164L32.304 696.875C16.4564 691.249 7.8997 674.218 12.811 658.15C17.6716 642.234 34.0761 632.857 50.2276 636.811L282.778 693.631C294.372 696.47 304.448 704.073 310.321 714.464C316.245 724.855 317.612 737.374 314.118 748.83C310.676 760.184 302.625 769.764 291.993 775.086C285.917 778.178 279.183 779.698 272.398 779.698ZM42.7847 639.244C30.7345 639.244 19.6462 647.1 16.0007 659.113C11.6464 673.508 19.2918 688.664 33.4179 693.733L258.93 774.072C269.259 777.721 280.752 777.012 290.524 772.095C300.296 767.178 307.739 758.308 310.929 747.867C314.169 737.324 312.853 725.767 307.384 716.136C301.916 706.556 292.651 699.511 281.917 696.926L49.4681 640.055C47.2403 639.497 45.0125 639.244 42.7847 639.244Z" fill="black"/>
<path d="M180.045 783.702C188.196 783.702 195.335 778.33 197.614 770.524L205.968 741.936C207.588 736.36 212.702 732.559 218.474 732.559H323.889C331.433 732.559 337.61 738.692 337.61 746.295V840.776H157.564V797.439C157.564 789.886 163.691 783.702 171.286 783.702H180.045Z" fill="black"/>
<path d="M337.611 842.398H157.565C156.654 842.398 155.895 841.638 155.895 840.726V797.388C155.895 788.923 162.78 781.979 171.286 781.979H180.046C187.387 781.979 193.969 777.062 195.995 770.017L204.349 741.429C206.172 735.195 211.994 730.835 218.475 730.835H323.89C332.345 730.835 339.281 737.729 339.281 746.244V840.726C339.281 841.638 338.522 842.398 337.611 842.398ZM159.236 839.053H335.94V746.244C335.94 739.604 330.522 734.181 323.89 734.181H218.475C213.462 734.181 208.956 737.526 207.539 742.341L199.184 770.929C196.703 779.394 188.805 785.324 179.995 785.324H171.236C164.603 785.324 159.186 790.748 159.186 797.388V839.053H159.236Z" fill="black"/>
<path d="M164.452 783.702C172.604 783.702 179.743 778.33 182.021 770.524L190.375 741.936C191.996 736.36 197.109 732.559 202.881 732.559H308.347C315.891 732.559 322.068 738.692 322.068 746.295V840.776H142.022V797.439C142.022 789.886 148.149 783.702 155.744 783.702H164.452Z" fill="#3C78EC"/>
<path d="M322.068 842.398H142.022C141.111 842.398 140.352 841.638 140.352 840.726V797.388C140.352 788.923 147.237 781.979 155.744 781.979H164.503C171.844 781.979 178.426 777.062 180.452 770.017L188.806 741.429C190.629 735.195 196.451 730.835 202.932 730.835H308.347C316.802 730.835 323.739 737.729 323.739 746.244V840.726C323.739 841.638 322.979 842.398 322.068 842.398ZM143.693 839.053H320.397V746.244C320.397 739.604 314.979 734.181 308.347 734.181H202.932C197.919 734.181 193.413 737.526 191.996 742.341L183.641 770.929C181.16 779.394 173.262 785.324 164.452 785.324H155.693C149.06 785.324 143.643 790.748 143.643 797.388V839.053H143.693Z" fill="black"/>
<path d="M236.5 588.962C246.475 583.437 250.323 571.018 245.31 560.78C240.247 550.439 227.893 545.979 217.412 550.642L20.0005 638.534C4.65918 645.377 -2.42922 663.168 3.95034 678.678C7.34264 686.839 14.026 693.226 22.3802 696.115C30.7344 699.004 39.8986 698.244 47.6452 693.935L236.5 588.962Z" fill="black"/>
<path d="M246.931 775.643C257.715 779.495 269.613 778.735 279.841 773.565C290.069 768.395 297.764 759.271 301.106 748.323C304.448 737.273 303.131 725.311 297.461 715.275C291.739 705.238 282.17 697.99 270.98 695.253L38.4304 638.432C23.1398 634.682 7.59591 643.552 2.98846 658.657C-1.619 673.863 6.48202 689.982 21.4183 695.354L246.931 775.643Z" fill="#3C78EC"/>
<path d="M261.006 779.698C256.045 779.698 251.133 778.887 246.425 777.164L20.8617 696.875C5.01403 691.249 -3.54268 674.218 1.36857 658.15C6.22918 642.234 22.6338 632.857 38.7852 636.811L271.335 693.631C282.93 696.47 293.005 704.073 298.879 714.464C304.803 724.855 306.17 737.374 302.676 748.83C299.233 760.184 291.183 769.764 280.55 775.086C274.525 778.178 267.74 779.698 261.006 779.698ZM31.393 639.244C19.3427 639.244 8.25444 647.1 4.60898 659.113C0.254676 673.508 7.90002 688.664 22.0262 693.733L247.538 774.072C257.867 777.721 269.361 777.012 279.132 772.095C288.904 767.178 296.347 758.308 299.537 747.867C302.777 737.324 301.461 725.767 295.993 716.136C290.525 706.556 281.259 699.511 270.525 696.926L38.0257 640.055C35.7979 639.497 33.5701 639.244 31.393 639.244Z" fill="black"/>
<path d="M216.298 583.994C219.589 587.644 224.247 589.823 229.159 589.925C234.07 590.077 238.829 588.151 242.323 584.653C246.171 580.801 248.247 575.58 248.145 570.157C248.044 564.733 245.715 559.614 241.715 555.964L142.579 465.487L125.313 482.772L216.298 583.994Z" fill="#3C78EC"/>
<path d="M229.614 591.648C229.462 591.648 229.26 591.648 229.108 591.648C223.741 591.496 218.627 589.114 215.032 585.16L124.098 483.836C123.491 483.177 123.541 482.164 124.149 481.555L141.414 464.271C142.022 463.663 143.085 463.612 143.743 464.22L242.778 554.748C247.082 558.701 249.664 564.328 249.765 570.157C249.917 575.986 247.588 581.713 243.487 585.87C239.791 589.57 234.778 591.648 229.614 591.648ZM217.513 582.879C220.5 586.174 224.753 588.151 229.158 588.252C233.563 588.353 237.968 586.63 241.107 583.488C244.601 579.99 246.525 575.175 246.424 570.207C246.322 565.24 244.145 560.526 240.5 557.181L142.629 467.768L127.642 482.772L217.513 582.879Z" fill="black"/>
<path d="M132.757 499.549L160.199 472.026L148.098 465.741L128.909 446.53L121.314 433.098L93.8721 460.571L99.9985 472.634L121.162 493.822L132.757 499.549Z" fill="#3C78EC"/>
<path d="M132.757 501.222C132.504 501.222 132.251 501.171 131.998 501.07L120.403 495.342C120.251 495.241 120.099 495.139 119.947 495.038L98.7835 473.851C98.6822 473.749 98.581 473.597 98.4797 473.445L92.3533 461.432C91.9989 460.773 92.1508 460.013 92.6571 459.506L120.15 431.983C120.504 431.628 121.061 431.425 121.568 431.527C122.074 431.578 122.53 431.932 122.783 432.389L130.276 445.669L149.111 464.524L161.009 470.657C161.465 470.911 161.82 471.367 161.87 471.874C161.972 472.381 161.769 472.938 161.415 473.293L133.922 500.816C133.618 501.019 133.162 501.222 132.757 501.222ZM122.125 492.402L132.403 497.471L157.415 472.432L147.339 467.211C147.187 467.109 147.035 467.008 146.934 466.907L127.745 447.696C127.643 447.595 127.542 447.443 127.492 447.341L120.96 435.835L95.8975 460.925L101.366 471.62L122.125 492.402Z" fill="black"/>
<path d="M260.652 760.589C274.605 760.589 285.917 749.265 285.917 735.296C285.917 721.327 274.605 710.003 260.652 710.003C246.698 710.003 235.387 721.327 235.387 735.296C235.387 749.265 246.698 760.589 260.652 760.589Z" fill="#FF722C"/>
<path d="M156.3 806.562C160.411 806.562 163.743 803.227 163.743 799.111C163.743 794.996 160.411 791.66 156.3 791.66C152.19 791.66 148.857 794.996 148.857 799.111C148.857 803.227 152.19 806.562 156.3 806.562Z" fill="#FF722C"/>
<path d="M30.7859 684.355C40.1255 684.355 47.6968 676.776 47.6968 667.426C47.6968 658.076 40.1255 650.496 30.7859 650.496C21.4463 650.496 13.875 658.076 13.875 667.426C13.875 676.776 21.4463 684.355 30.7859 684.355Z" fill="#FF722C"/>
<path d="M228.754 576.847C232.753 576.847 235.994 573.602 235.994 569.599C235.994 565.596 232.753 562.351 228.754 562.351C224.755 562.351 221.514 565.596 221.514 569.599C221.514 573.602 224.755 576.847 228.754 576.847Z" fill="#FF722C"/>
<path d="M106.53 463.561C106.125 463.561 105.67 463.409 105.366 463.054C104.708 462.395 104.708 461.331 105.366 460.672L117.77 448.254C118.429 447.595 119.492 447.595 120.15 448.254C120.808 448.913 120.808 449.977 120.15 450.636L107.745 463.054C107.391 463.409 106.935 463.561 106.53 463.561Z" fill="black"/>
<path d="M128.959 486.675C128.554 486.675 128.098 486.523 127.794 486.168C127.136 485.509 127.136 484.444 127.794 483.785L140.199 471.367C140.857 470.708 141.921 470.708 142.579 471.367C143.237 472.026 143.237 473.09 142.579 473.749L130.174 486.168C129.82 486.523 129.415 486.675 128.959 486.675Z" fill="black"/>
<path d="M123.904 843.274H355.289V832.934H123.904V843.274Z" fill="black"/>
<path d="M269.614 769.257C268.905 769.257 268.196 768.75 267.994 768.04C267.741 767.128 268.247 766.215 269.158 765.962C282.829 762.16 292.398 749.539 292.398 735.296C292.398 732.762 292.094 730.227 291.487 727.744C291.284 726.831 291.841 725.919 292.702 725.716C293.613 725.514 294.525 726.071 294.727 726.933C295.385 729.67 295.74 732.458 295.74 735.296C295.74 751.06 285.158 764.948 270.019 769.155C269.918 769.206 269.766 769.257 269.614 769.257Z" fill="black"/>
<path d="M255.639 770.067C255.538 770.067 255.487 770.067 255.386 770.067C249.209 769.155 243.386 766.57 238.526 762.616C237.817 762.008 237.715 760.994 238.272 760.285C238.829 759.575 239.893 759.474 240.601 760.031C245.006 763.63 250.272 765.962 255.842 766.773C256.753 766.925 257.36 767.787 257.259 768.699C257.158 769.51 256.449 770.067 255.639 770.067Z" fill="black"/>
<path d="M34.2791 691.198C33.469 691.198 32.7601 690.59 32.6082 689.779C32.4563 688.866 33.0639 688.005 33.9753 687.853C38.7853 687.092 43.1396 684.659 46.38 680.959C46.9875 680.249 48.0508 680.199 48.7596 680.807C49.4685 681.415 49.5191 682.48 48.9115 683.189C45.2154 687.498 40.1017 690.336 34.5322 691.198C34.4816 691.198 34.3803 691.198 34.2791 691.198Z" fill="black"/>
<path d="M19.3932 688.359C19.0894 688.359 18.8363 688.309 18.5325 688.106C11.2415 683.798 6.73535 675.84 6.73535 667.375C6.73535 660.735 9.52008 654.298 14.3807 649.736C15.0389 649.128 16.1022 649.127 16.7604 649.837C17.3679 650.496 17.3679 651.561 16.6591 652.219C12.4567 656.122 10.077 661.647 10.077 667.375C10.077 674.674 13.9756 681.517 20.2539 685.217C21.064 685.673 21.3172 686.738 20.8615 687.498C20.5071 688.106 19.9501 688.359 19.3932 688.359Z" fill="black"/>
<path d="M217.312 573.958C216.552 573.958 215.894 573.451 215.691 572.691C215.438 571.677 215.337 570.613 215.337 569.599C215.337 566.558 216.35 563.719 218.223 561.337C218.78 560.627 219.843 560.475 220.552 561.033C221.261 561.59 221.413 562.655 220.856 563.364C219.438 565.138 218.729 567.318 218.729 569.599C218.729 570.41 218.83 571.17 218.982 571.931C219.185 572.843 218.628 573.755 217.717 573.958C217.565 573.958 217.463 573.958 217.312 573.958Z" fill="black"/>
<path d="M228.754 582.981C226.577 582.981 224.4 582.423 222.526 581.46C221.716 581.004 221.412 580.041 221.817 579.179C222.222 578.368 223.235 578.064 224.096 578.469C225.564 579.23 227.134 579.635 228.804 579.635C232.754 579.635 236.399 577.304 238.019 573.654C238.374 572.792 239.386 572.438 240.247 572.792C241.108 573.147 241.462 574.161 241.108 575.023C238.829 579.889 234.019 582.981 228.754 582.981Z" fill="black"/>
<path d="M379.889 90.9582L329.358 61.5596L278.879 91.0089L329.915 120.813L379.889 90.9582Z" fill="#3C78EC"/>
<path d="M329.915 122.486C329.611 122.486 329.358 122.384 329.054 122.283L277.967 92.5296C277.461 92.2255 277.157 91.668 277.157 91.0597C277.157 90.4515 277.461 89.8939 277.967 89.5898L328.447 60.1404C328.953 59.8363 329.611 59.8363 330.118 60.1404L380.648 89.5391C381.154 89.8432 381.458 90.4008 381.458 90.9583C381.458 91.5666 381.154 92.1241 380.648 92.4283L330.675 122.232C330.523 122.384 330.219 122.486 329.915 122.486ZM282.17 91.009L329.915 118.836L376.597 90.9583L329.358 63.4351L282.17 91.009Z" fill="black"/>
<path d="M329.358 2.0022V61.8133L380.091 91.0599V31.9584L329.358 2.0022Z" fill="#FF722C"/>
<path d="M380.091 92.7325C379.787 92.7325 379.534 92.6818 379.281 92.5297L328.548 63.2324C328.042 62.9283 327.688 62.3708 327.688 61.7625V1.95144C327.688 1.3432 327.991 0.785635 328.548 0.481511C329.055 0.177387 329.713 0.177387 330.219 0.481511L380.952 30.4377C381.458 30.7418 381.762 31.2994 381.762 31.857V91.0091C381.762 91.6173 381.458 92.1749 380.952 92.479C380.699 92.6818 380.395 92.7325 380.091 92.7325ZM331.029 60.8501L378.42 88.2213V32.9214L331.029 4.942V60.8501Z" fill="black"/>
<path d="M329.358 2.00195V61.813L279.081 91.1103V31.8061L329.358 2.00195Z" fill="white"/>
<path d="M279.082 92.7831C278.778 92.7831 278.525 92.7324 278.272 92.5803C277.766 92.2762 277.411 91.7187 277.411 91.1104V31.8062C277.411 31.198 277.715 30.6911 278.221 30.387L328.498 0.582829C329.005 0.278705 329.663 0.278705 330.169 0.582829C330.675 0.886953 331.03 1.44451 331.03 2.05276V61.8638C331.03 62.4721 330.726 63.0296 330.22 63.3338L279.943 92.631C279.639 92.7324 279.335 92.7831 279.082 92.7831ZM280.753 32.7693V88.2212L327.688 60.8501V4.89125L280.753 32.7693Z" fill="black"/>
<path d="M430.318 120.762L379.788 91.3638L329.258 120.813L380.345 150.567L430.318 120.762Z" fill="#3C78EC"/>
<path d="M380.345 152.239C380.041 152.239 379.788 152.138 379.484 152.037L328.397 122.283C327.891 121.979 327.587 121.421 327.587 120.813C327.587 120.205 327.891 119.647 328.397 119.343L378.877 89.8939C379.383 89.5897 380.041 89.5897 380.547 89.8939L431.078 119.293C431.584 119.597 431.888 120.154 431.888 120.712C431.888 121.32 431.584 121.878 431.078 122.182L381.104 151.986C380.952 152.189 380.649 152.239 380.345 152.239ZM332.599 120.813L380.345 148.64L427.027 120.762L379.788 93.2392L332.599 120.813Z" fill="black"/>
<path d="M379.787 31.7556V91.5667L430.52 120.864V61.7118L379.787 31.7556Z" fill="#FF722C"/>
<path d="M430.521 122.537C430.217 122.537 429.964 122.486 429.711 122.334L378.978 93.0366C378.472 92.7325 378.117 92.1749 378.117 91.5667V31.7556C378.117 31.1474 378.421 30.5898 378.978 30.2857C379.484 29.9816 380.142 29.9816 380.649 30.2857L431.381 60.2926C431.888 60.5967 432.192 61.1543 432.192 61.7119V120.864C432.192 121.472 431.888 122.03 431.381 122.334C431.078 122.486 430.824 122.537 430.521 122.537ZM381.459 90.6036L428.85 117.975V62.6749L381.459 34.6955V90.6036Z" fill="black"/>
<path d="M379.788 31.7554V91.5664L329.46 120.914V61.6102L379.788 31.7554Z" fill="white"/>
<path d="M329.46 122.587C329.156 122.587 328.903 122.537 328.65 122.384C328.143 122.08 327.789 121.523 327.789 120.915V61.6103C327.789 61.0021 328.093 60.4952 328.599 60.1911L378.927 30.3362C379.433 30.0321 380.091 30.0321 380.598 30.3362C381.104 30.6404 381.458 31.1979 381.458 31.8062V91.6172C381.458 92.2255 381.155 92.783 380.648 93.0872L330.371 122.384C330.067 122.486 329.764 122.587 329.46 122.587ZM331.131 62.5227V117.975L378.066 90.6035V34.6954L331.131 62.5227Z" fill="black"/>
<path d="M481.05 150.06L430.519 120.61L379.989 150.06L431.076 179.864L481.05 150.06Z" fill="#3C78EC"/>
<path d="M431.077 181.537C430.773 181.537 430.52 181.435 430.217 181.334L379.129 151.58C378.623 151.276 378.319 150.719 378.319 150.111C378.319 149.502 378.623 148.945 379.129 148.641L429.609 119.191C430.115 118.887 430.773 118.887 431.28 119.191L481.81 148.59C482.316 148.894 482.62 149.452 482.62 150.009C482.62 150.617 482.316 151.175 481.81 151.479L431.837 181.283C431.685 181.435 431.381 181.537 431.077 181.537ZM383.332 150.06L431.077 177.887L477.759 150.009L430.52 122.486L383.332 150.06Z" fill="black"/>
<path d="M430.52 61.053V120.864L481.252 150.161V91.0092L430.52 61.053Z" fill="#FF722C"/>
<path d="M481.253 151.834C480.949 151.834 480.696 151.783 480.443 151.631L429.71 122.334C429.204 122.03 428.85 121.472 428.85 120.864V61.053C428.85 60.4448 429.153 59.8872 429.71 59.5831C430.217 59.2789 430.875 59.2789 431.381 59.5831L482.114 89.5393C482.62 89.8434 482.924 90.401 482.924 90.9585V150.111C482.924 150.719 482.62 151.276 482.114 151.581C481.861 151.733 481.557 151.834 481.253 151.834ZM432.191 119.901L479.582 147.272V91.9723L432.191 63.9929V119.901Z" fill="black"/>
<path d="M430.52 61.0527V120.864L380.243 150.161V90.8569L430.52 61.0527Z" fill="white"/>
<path d="M380.244 151.834C379.94 151.834 379.687 151.783 379.434 151.631C378.928 151.327 378.573 150.769 378.573 150.161V90.857C378.573 90.2488 378.877 89.7419 379.383 89.4378L429.66 59.6336C430.167 59.3295 430.825 59.3295 431.331 59.6336C431.837 59.9377 432.192 60.4953 432.192 61.1035V120.915C432.192 121.523 431.888 122.08 431.382 122.385L381.105 151.682C380.801 151.783 380.497 151.834 380.244 151.834ZM381.915 91.8201V147.272L428.85 119.901V63.9927L381.915 91.8201Z" fill="black"/>
<path d="M480.747 205.917L430.166 176.519L379.687 205.968L430.774 235.772L480.747 205.917Z" fill="#3C78EC"/>
<path d="M430.775 237.445C430.471 237.445 430.218 237.344 429.914 237.242L378.827 207.489C378.32 207.185 378.017 206.627 378.017 206.019C378.017 205.411 378.32 204.853 378.827 204.549L429.306 175.1C429.813 174.796 430.471 174.796 430.977 175.1L481.507 204.498C482.014 204.802 482.317 205.36 482.317 205.918C482.317 206.526 482.014 207.083 481.507 207.388L431.534 237.192C431.331 237.344 431.078 237.445 430.775 237.445ZM383.029 205.968L430.775 233.796L477.457 205.918L430.218 178.394L383.029 205.968Z" fill="black"/>
<path d="M430.218 116.961V176.772L480.95 206.019V146.918L430.218 116.961Z" fill="#FF722C"/>
<path d="M480.95 207.692C480.646 207.692 480.393 207.641 480.14 207.489L429.357 178.192C428.851 177.888 428.496 177.33 428.496 176.722V116.911C428.496 116.302 428.8 115.745 429.357 115.441C429.863 115.137 430.521 115.137 431.028 115.441L481.76 145.397C482.267 145.701 482.57 146.259 482.57 146.816V205.968C482.57 206.577 482.267 207.134 481.76 207.438C481.507 207.641 481.203 207.692 480.95 207.692ZM431.888 175.809L479.279 203.181V147.881L431.888 119.851V175.809Z" fill="black"/>
<path d="M430.215 116.961V176.772L379.888 206.07V146.765L430.215 116.961Z" fill="white"/>
<path d="M379.889 207.742C379.585 207.742 379.332 207.691 379.079 207.539C378.572 207.235 378.218 206.678 378.218 206.069V146.765C378.218 146.157 378.522 145.65 379.028 145.346L429.355 115.491C429.862 115.187 430.52 115.187 431.026 115.491C431.533 115.795 431.887 116.353 431.887 116.961V176.772C431.887 177.38 431.583 177.938 431.077 178.242L380.749 207.539C380.496 207.691 380.192 207.742 379.889 207.742ZM381.559 147.728V203.18L428.495 175.809V119.85L381.559 147.728Z" fill="black"/>
<path d="M578.313 262.484C577.858 262.484 577.402 262.282 577.047 261.927L568.238 251.891C567.63 251.181 567.681 250.117 568.389 249.509C569.098 248.9 570.162 248.951 570.769 249.661L579.579 259.697C580.187 260.406 580.136 261.471 579.427 262.079C579.123 262.332 578.718 262.484 578.313 262.484ZM560.694 242.362C560.238 242.362 559.782 242.159 559.428 241.804L550.618 231.768C550.01 231.058 550.061 229.994 550.77 229.386C551.479 228.777 552.542 228.828 553.149 229.538L561.959 239.574C562.567 240.283 562.516 241.348 561.807 241.956C561.453 242.21 561.048 242.362 560.694 242.362ZM543.023 222.239C542.567 222.239 542.112 222.036 541.757 221.681L532.947 211.645C532.34 210.935 532.391 209.871 533.099 209.263C533.808 208.655 534.871 208.705 535.479 209.415L544.289 219.451C544.897 220.161 544.846 221.225 544.137 221.833C543.833 222.087 543.428 222.239 543.023 222.239ZM525.353 202.116C524.897 202.116 524.441 201.913 524.087 201.558L515.277 191.522C514.67 190.813 514.72 189.748 515.429 189.14C516.138 188.532 517.201 188.582 517.809 189.292L526.619 199.328C527.226 200.038 527.176 201.102 526.467 201.71C526.163 201.964 525.758 202.116 525.353 202.116ZM507.733 181.993C507.277 181.993 506.822 181.79 506.467 181.435L497.657 171.399C497.05 170.69 497.1 169.625 497.809 169.017C498.518 168.409 499.581 168.459 500.189 169.169L508.999 179.205C509.606 179.915 509.556 180.979 508.847 181.587C508.493 181.841 508.138 181.993 507.733 181.993ZM490.063 161.87C489.607 161.87 489.151 161.667 488.797 161.313L479.987 151.226C479.379 150.516 479.43 149.452 480.139 148.843C480.848 148.235 481.911 148.286 482.519 148.996L491.328 159.032C491.936 159.741 491.885 160.806 491.177 161.414C490.873 161.718 490.468 161.87 490.063 161.87Z" fill="black"/>
<path d="M577.807 318.241C577.352 318.241 576.896 318.038 576.542 317.683L567.732 307.647C567.124 306.937 567.175 305.873 567.884 305.265C568.592 304.656 569.656 304.707 570.263 305.417L579.073 315.453C579.681 316.162 579.63 317.227 578.921 317.835C578.567 318.139 578.162 318.241 577.807 318.241ZM560.137 298.118C559.681 298.118 559.226 297.915 558.871 297.56L550.061 287.524C549.454 286.815 549.504 285.75 550.213 285.142C550.922 284.534 551.985 284.584 552.593 285.294L561.403 295.33C562.01 296.04 561.96 297.104 561.251 297.712C560.947 298.016 560.542 298.118 560.137 298.118ZM542.467 278.046C542.011 278.046 541.555 277.843 541.201 277.488L532.391 267.452C531.783 266.742 531.834 265.678 532.543 265.07C533.252 264.461 534.315 264.512 534.923 265.222L543.732 275.258C544.34 275.967 544.289 277.032 543.581 277.64C543.277 277.894 542.872 278.046 542.467 278.046ZM524.847 257.923C524.391 257.923 523.936 257.72 523.581 257.365L514.771 247.329C514.164 246.619 514.214 245.555 514.923 244.947C515.632 244.339 516.695 244.389 517.303 245.099L526.113 255.135C526.72 255.845 526.67 256.909 525.961 257.517C525.606 257.771 525.252 257.923 524.847 257.923ZM507.177 237.8C506.721 237.8 506.265 237.597 505.911 237.242L497.101 227.206C496.493 226.497 496.544 225.432 497.253 224.824C497.962 224.216 499.025 224.266 499.632 224.976L508.442 235.012C509.05 235.722 508.999 236.786 508.29 237.394C507.987 237.648 507.582 237.8 507.177 237.8ZM489.557 217.677C489.101 217.677 488.645 217.474 488.291 217.119L479.481 207.033C478.874 206.323 478.924 205.259 479.633 204.65C480.342 204.042 481.405 204.093 482.013 204.802L490.823 214.838C491.43 215.548 491.38 216.613 490.671 217.221C490.316 217.525 489.962 217.677 489.557 217.677Z" fill="black"/>
</svg>
