<svg width="338" height="311" viewBox="0 0 338 311" fill="none" xmlns="http://www.w3.org/2000/svg">
<path d="M134.667 311L67.802 271.314L0 233.25L0.936936 155.5L1.35942e-05 77.75L67.802 39.6864L134.667 0L201.532 39.6864L269.334 77.75L268.397 155.5L269.334 233.25L201.532 271.314L134.667 311Z" fill="#1F59C9"/>
<path d="M175.286 49.0231H302.828V208.339H175.286V49.0231Z" fill="white"/>
<path d="M175.273 208.63H302.828C302.987 208.63 303.119 208.498 303.119 208.339V49.023C303.119 48.8644 302.987 48.7322 302.828 48.7322H175.273C175.114 48.7322 174.982 48.8644 174.982 49.023V208.339C174.982 208.498 175.114 208.63 175.273 208.63ZM302.537 208.048H175.577V49.3138H302.537V208.048Z" fill="black"/>
<path d="M191.019 125.423H287.096V135.812H191.019V125.423Z" fill="white"/>
<path d="M191.019 136.116H287.096C287.254 136.116 287.387 135.984 287.387 135.825V125.436C287.387 125.277 287.254 125.145 287.096 125.145H191.019C190.86 125.145 190.728 125.277 190.728 125.436V135.825C190.728 135.984 190.847 136.116 191.019 136.116ZM286.805 135.535H191.31V125.714H286.805V135.535Z" fill="black"/>
<path d="M191.019 149.771H287.096V188.076H191.019V149.771Z" fill="white"/>
<path d="M191.019 188.367H287.096C287.254 188.367 287.387 188.235 287.387 188.076V149.77C287.387 149.612 287.254 149.48 287.096 149.48H191.019C190.86 149.48 190.728 149.612 190.728 149.77V188.076C190.728 188.235 190.847 188.367 191.019 188.367ZM286.805 187.785H191.31V150.061H286.805V187.785Z" fill="black"/>
<path d="M239.25 110.949C226.227 110.949 215.671 100.457 215.671 87.5137C215.671 74.5707 226.227 64.0782 239.25 64.0782C252.272 64.0782 262.829 74.5707 262.829 87.5137C262.829 100.457 252.272 110.949 239.25 110.949Z" fill="#1F59C9"/>
<mask id="mask0_819_4302" style="mask-type:luminance" maskUnits="userSpaceOnUse" x="218" y="66" width="42" height="43">
<path d="M239.248 108.041C227.841 108.041 218.593 98.8509 218.593 87.5138C218.593 76.1768 227.841 66.9863 239.248 66.9863C250.656 66.9863 259.903 76.1768 259.903 87.5138C259.903 98.8509 250.656 108.041 239.248 108.041Z" fill="white"/>
</mask>
<g mask="url(#mask0_819_4302)">
<path d="M226.347 109.998H252.176C252.255 109.998 252.334 109.971 252.387 109.905C252.44 109.852 252.467 109.773 252.467 109.694L251.183 84.1697C250.773 76.067 245.547 69.7224 239.261 69.7224C232.989 69.7224 227.75 76.067 227.339 84.1697L226.056 109.694C226.056 109.773 226.082 109.852 226.135 109.905C226.188 109.971 226.254 109.998 226.347 109.998ZM251.858 109.416H226.651L227.922 84.1961C228.319 76.3975 233.294 70.304 239.261 70.304C245.229 70.304 250.204 76.4107 250.601 84.1961L251.858 109.416Z" fill="white"/>
<path d="M227.565 97.4141L239.249 94.744L250.933 97.4141C254.069 98.1278 256.583 100.494 257.469 103.56L260.01 116.871H218.488L221.029 103.56C221.928 100.481 224.429 98.1278 227.565 97.4141Z" fill="white"/>
<path d="M239.249 101.921C242.027 101.921 244.29 99.6744 244.29 96.8986V87.5535H234.221V96.8986C234.221 99.6744 236.47 101.921 239.249 101.921Z" fill="white"/>
<path d="M230.821 81.0504C231.191 80.9579 231.562 80.9975 231.906 81.1297C232.197 76.4902 235.372 73.3575 239.263 73.3575C243.14 73.3575 246.328 76.5034 246.62 81.1297C246.964 80.9975 247.334 80.9579 247.705 81.0504C248.79 81.3148 249.425 82.5705 249.094 83.8526C248.776 85.1348 247.638 85.9411 246.54 85.6767C246.368 85.637 246.196 85.5577 246.051 85.4652C244.926 88.8887 242.306 91.5058 239.263 91.5058C236.206 91.5058 233.586 88.8887 232.475 85.4652C232.329 85.5577 232.157 85.6238 231.985 85.6767C230.9 85.9411 229.749 85.1348 229.431 83.8526C229.101 82.5705 229.722 81.328 230.821 81.0504Z" fill="white"/>
<path d="M239.249 91.8097C242.173 91.8097 244.925 89.4437 246.209 85.8881C246.288 85.9145 246.381 85.941 246.46 85.9674C247.704 86.2714 249.001 85.3594 249.358 83.9318C249.543 83.1784 249.437 82.3985 249.067 81.7773C248.763 81.2618 248.286 80.9181 247.744 80.7727C247.453 80.7066 247.148 80.6934 246.857 80.7595C246.421 76.2786 243.271 73.0667 239.236 73.0667C235.2 73.0667 232.051 76.2786 231.614 80.7595C231.31 80.7066 231.019 80.7066 230.728 80.7727C230.185 80.9049 229.709 81.2618 229.404 81.7773C229.034 82.3985 228.928 83.1784 229.113 83.9318C229.47 85.3594 230.767 86.2714 232.011 85.9674C232.09 85.941 232.183 85.9145 232.262 85.8881C233.572 89.4305 236.338 91.8097 239.249 91.8097ZM246.05 85.1875C246.01 85.1875 245.984 85.1875 245.944 85.2007C245.865 85.2272 245.799 85.2933 245.772 85.3858C244.621 88.8753 242.001 91.2281 239.249 91.2281C236.497 91.2281 233.877 88.8753 232.726 85.3858C232.699 85.3065 232.633 85.2404 232.554 85.2007C232.474 85.1743 232.381 85.1743 232.302 85.2272C232.17 85.3065 232.037 85.3594 231.892 85.399C230.966 85.6237 229.973 84.91 229.695 83.7864C229.55 83.1784 229.629 82.5572 229.92 82.0681C230.145 81.698 230.489 81.4336 230.886 81.3279C231.177 81.2618 231.495 81.275 231.799 81.394C231.892 81.4204 231.985 81.4204 232.064 81.3675C232.143 81.3147 232.196 81.2354 232.196 81.1428C232.474 76.7941 235.438 73.635 239.262 73.635C243.086 73.635 246.05 76.7941 246.328 81.1428C246.328 81.2354 246.381 81.3147 246.46 81.3675C246.54 81.4204 246.632 81.4336 246.725 81.394C247.029 81.275 247.347 81.2618 247.638 81.3279C248.035 81.4204 248.366 81.6848 248.604 82.0681C248.895 82.5572 248.974 83.1784 248.829 83.7732C248.551 84.8967 247.558 85.6105 246.632 85.3858C246.487 85.3461 246.354 85.2933 246.222 85.214C246.156 85.2007 246.103 85.1875 246.05 85.1875Z" fill="#5479F7"/>
<path d="M246.725 82.2927C243.047 81.6053 239.21 78.3537 236.907 75.4193C236.457 78.0233 234.142 81.0634 231.707 82.1341C231.707 82.1341 230.543 71.7712 239.249 72.1016C247.956 72.4321 246.725 82.2927 246.725 82.2927Z" fill="#1F59C9"/>
</g>
<path d="M196.696 158.772H220.156C220.315 158.772 220.447 158.64 220.447 158.481C220.447 158.322 220.315 158.19 220.156 158.19H196.696C196.537 158.19 196.405 158.322 196.405 158.481C196.405 158.64 196.537 158.772 196.696 158.772Z" fill="black"/>
<path d="M238.363 158.772H253.5C253.659 158.772 253.791 158.64 253.791 158.481C253.791 158.322 253.659 158.19 253.5 158.19H238.363C238.204 158.19 238.072 158.322 238.072 158.481C238.072 158.64 238.204 158.772 238.363 158.772Z" fill="black"/>
<path d="M258.58 158.772H276.324C276.483 158.772 276.615 158.64 276.615 158.481C276.615 158.322 276.483 158.19 276.324 158.19H258.567C258.408 158.19 258.276 158.322 258.276 158.481C258.289 158.64 258.408 158.772 258.58 158.772Z" fill="black"/>
<path d="M204.821 165.725H225.356C225.515 165.725 225.647 165.592 225.647 165.434C225.647 165.275 225.515 165.143 225.356 165.143H204.821C204.662 165.143 204.529 165.275 204.529 165.434C204.529 165.606 204.662 165.725 204.821 165.725Z" fill="black"/>
<path d="M242.107 165.725H260.341C260.5 165.725 260.632 165.592 260.632 165.434C260.632 165.275 260.5 165.143 260.341 165.143H242.107C241.948 165.143 241.816 165.275 241.816 165.434C241.816 165.606 241.948 165.725 242.107 165.725Z" fill="black"/>
<path d="M265.409 165.725H281.406C281.565 165.725 281.697 165.592 281.697 165.434C281.697 165.275 281.565 165.143 281.406 165.143H265.409C265.25 165.143 265.118 165.275 265.118 165.434C265.118 165.606 265.25 165.725 265.409 165.725Z" fill="black"/>
<path d="M244.013 172.69H281.406C281.565 172.69 281.697 172.558 281.697 172.399C281.697 172.241 281.565 172.109 281.406 172.109H244.013C243.854 172.109 243.722 172.241 243.722 172.399C243.722 172.558 243.854 172.69 244.013 172.69Z" fill="black"/>
<path d="M214.043 184.824C215.3 184.824 216.848 184.454 218.687 183.318C223.318 180.463 223.715 174.739 223.755 173.616C223.755 173.457 223.636 173.325 223.477 173.312C223.331 173.312 223.186 173.431 223.173 173.589C223.146 174.66 222.762 180.106 218.383 182.815C215.538 184.573 213.434 184.375 212.177 183.899C211.568 183.675 210.999 183.318 210.497 182.868C211.41 182.022 211.952 181.097 212.256 180.582C212.958 179.392 214.612 176.603 213.328 174.951C212.693 174.144 211.304 173.669 209.954 173.774C208.935 173.867 208.155 174.277 207.81 174.924C207.162 176.127 207.215 178.123 207.93 180.04C208.34 181.123 208.922 182.075 209.636 182.842C209.16 183.199 208.604 183.529 207.956 183.767C207.321 183.992 205.627 184.6 204.158 183.78C203.656 183.503 203.325 183.119 202.941 182.458C203.656 181.48 204.092 180.304 204.37 179.564C204.754 178.546 205.098 177.581 204.608 176.762C204.238 176.14 203.431 175.731 202.478 175.651C201.605 175.585 200.837 175.823 200.44 176.286C199.541 177.343 200.599 179.326 201.816 181.626C201.962 181.917 202.108 182.181 202.24 182.419C201.724 183.027 201.089 183.489 200.282 183.582C199.17 183.701 198.191 183.106 197.556 182.577C197.437 182.472 197.251 182.485 197.146 182.617C197.04 182.736 197.053 182.921 197.185 183.027C197.9 183.622 199.038 184.309 200.348 184.15C201.261 184.045 201.975 183.569 202.557 182.948C202.928 183.542 203.312 183.979 203.894 184.296C205.588 185.234 207.453 184.573 208.168 184.322C208.922 184.058 209.544 183.675 210.073 183.265C210.655 183.78 211.304 184.19 212.005 184.454C212.521 184.666 213.209 184.824 214.043 184.824ZM210.338 174.369C211.383 174.369 212.402 174.752 212.865 175.334C213.897 176.669 212.336 179.313 211.754 180.304C211.436 180.833 210.933 181.705 210.073 182.485C209.398 181.784 208.843 180.886 208.459 179.855C207.81 178.123 207.744 176.259 208.313 175.228C208.565 174.752 209.173 174.448 209.994 174.382C210.113 174.369 210.232 174.369 210.338 174.369ZM202.174 176.246C202.253 176.246 202.332 176.246 202.412 176.259C203.179 176.325 203.814 176.643 204.092 177.092C204.423 177.634 204.198 178.321 203.801 179.392C203.563 180.04 203.179 181.057 202.597 181.93C202.505 181.758 202.412 181.573 202.306 181.375C201.274 179.445 200.215 177.449 200.864 176.695C201.115 176.418 201.605 176.246 202.174 176.246Z" fill="#5479F7"/>
<mask id="mask1_819_4302" style="mask-type:alpha" maskUnits="userSpaceOnUse" x="0" y="0" width="270" height="311">
<path d="M134.667 311L67.802 271.314L0 233.25L0.936936 155.5L1.35942e-05 77.75L67.802 39.6864L134.667 0L201.532 39.6864L269.334 77.75L268.397 155.5L269.334 233.25L201.532 271.314L134.667 311Z" fill="#1F59C9"/>
</mask>
<g mask="url(#mask1_819_4302)">
<path d="M115.398 295.436V180.361L57.8505 182.313L6.947 295.279L115.398 295.436Z" fill="white"/>
<path d="M115.398 295.749C115.569 295.749 115.712 295.607 115.712 295.436V180.361C115.712 180.276 115.683 180.19 115.612 180.133C115.555 180.076 115.469 180.034 115.384 180.048L57.8216 182.013C57.7076 182.013 57.5935 182.085 57.5507 182.199L6.66149 295.151C6.5902 295.308 6.66147 295.493 6.81832 295.564C6.97516 295.635 7.16055 295.564 7.23184 295.408L58.0497 182.626L115.084 180.674V295.436C115.084 295.607 115.227 295.749 115.398 295.749Z" fill="black"/>
<path d="M59.96 295.75C60.0883 295.75 60.2024 295.678 60.2594 295.55L91.0724 214.09C92.2274 211.512 94.3092 209.433 96.89 208.25L99.7559 206.94C99.9128 206.869 99.9841 206.684 99.9128 206.527C99.8415 206.37 99.6561 206.299 99.4993 206.37L96.6333 207.681C93.9099 208.934 91.7283 211.128 90.5021 213.848L59.6748 295.322C59.6178 295.479 59.6891 295.664 59.8602 295.721C59.8744 295.75 59.9172 295.75 59.96 295.75Z" fill="black"/>
<path d="M37.8588 121.022C35.7486 109.057 55.6822 103.046 90.3308 72.8211C92.384 71.0264 97.9592 66.1266 106.258 64.9301C108.396 64.6168 116.267 63.4773 123.126 68.2774C129.428 72.7072 131.125 79.5442 132.351 84.501C135.117 95.6823 132.337 105.211 131.125 108.715C123.796 129.81 102.009 137.844 99.6987 138.656C73.862 147.715 40.4397 135.622 37.8588 121.022Z" fill="black"/>
<path d="M116.98 115.125C118.063 115.424 119.66 115.937 121.443 116.849C127.731 120.082 129.228 124.611 135.673 134.952C145.255 150.364 150.046 158.07 151.814 159.865C152.527 160.591 149.317 155.748 149.46 157.771C149.759 162.272 145.742 167.462 142.075 174.806C134.047 177.555 126.519 178.965 123.453 174.707C122.056 172.755 120.716 170.704 119.589 168.596C118.491 166.559 117.949 166.032 116.096 166.388C116.381 149.282 116.68 132.203 116.98 115.125Z" fill="white"/>
<path d="M130.027 177.726C133.763 177.726 138.183 176.444 142.147 175.091C145.956 167.704 150.045 162.4 149.746 157.742C149.603 155.62 152.741 160.377 152.028 159.651C150.274 157.87 145.483 150.15 135.916 134.781C134.547 132.588 133.406 130.651 132.394 128.942C128.658 122.632 126.605 119.142 121.557 116.564C120.131 115.837 118.606 115.239 117.037 114.812C116.937 114.783 116.838 114.812 116.766 114.869C116.695 114.926 116.638 115.011 116.638 115.111L115.74 166.36C115.74 166.459 115.782 166.545 115.854 166.602C115.925 166.659 116.025 166.687 116.11 166.673C117.707 166.36 118.149 166.659 119.262 168.724C120.317 170.69 121.629 172.755 123.154 174.877C124.68 176.957 127.147 177.726 130.027 177.726ZM117.28 115.538C118.663 115.937 120.017 116.478 121.286 117.133C126.163 119.64 128.073 122.859 131.866 129.269C132.879 130.978 134.019 132.916 135.388 135.123C144.97 150.535 149.789 158.269 151.572 160.092C152.285 160.833 149.004 155.905 149.118 157.799C149.403 162.129 145.529 167.191 141.947 174.507C135.659 176.658 126.919 179.008 123.682 174.521C122.17 172.428 120.887 170.391 119.832 168.439C118.82 166.573 118.192 165.761 116.396 166.004L117.28 115.538Z" fill="black"/>
<path d="M119.561 168.582L168.026 125.566C168.026 125.566 175.041 116.549 181.187 118.444C187.503 120.395 176.61 124.711 175.868 131.192C175.612 133.471 175.797 136.604 172.432 139.425C172.175 139.482 171.027 139.8 170.443 139.957L167.042 148.792C167.042 148.792 153.529 166.673 133.32 181.415C125.991 181.828 119.561 168.582 119.561 168.582Z" fill="white"/>
<path d="M132.537 177.954C132.58 177.954 132.637 177.954 132.68 177.954C142.889 177.726 152.455 166.939 167.042 149.105C167.085 149.048 167.113 148.977 167.113 148.906L170.665 139.838C170.665 139.667 170.522 139.524 170.351 139.524C170.18 139.524 170.037 139.667 170.037 139.838L166.486 148.792C152.042 166.426 142.675 177.114 132.665 177.327C132.623 177.327 132.58 177.327 132.537 177.327C125.507 177.327 119.234 164.793 119.177 164.665C119.105 164.508 118.906 164.451 118.763 164.522C118.606 164.593 118.549 164.793 118.62 164.935C118.877 165.476 125.137 177.954 132.537 177.954Z" fill="black"/>
<path d="M170.736 140.165C170.75 140.165 170.779 140.165 170.793 140.165C171.691 139.98 172.504 139.638 173.174 139.14C175.498 137.431 175.755 135.066 176.126 131.79L176.183 131.235C176.568 127.802 179.163 125.224 181.059 123.344C182.77 121.649 184.111 120.31 182.998 119.156C181.401 117.504 178.892 117.603 175.099 119.455C174.942 119.526 174.885 119.726 174.957 119.868C175.028 120.025 175.213 120.082 175.37 120.011C179.976 117.76 181.672 118.686 182.542 119.583C183.198 120.253 182.285 121.221 180.617 122.888C178.65 124.839 175.969 127.503 175.555 131.149L175.498 131.705C175.142 134.938 174.899 137.075 172.803 138.613C172.205 139.054 171.477 139.368 170.665 139.524C170.494 139.553 170.38 139.724 170.422 139.895C170.465 140.066 170.593 140.165 170.736 140.165Z" fill="black"/>
<path d="M136.957 153.768C137.029 153.768 137.114 153.74 137.171 153.683L168.255 125.794C168.269 125.779 168.269 125.779 168.284 125.765C168.312 125.737 171.349 122.304 175.413 120.011C175.57 119.925 175.613 119.74 175.527 119.583C175.441 119.427 175.256 119.384 175.099 119.469C171.064 121.748 168.041 125.096 167.813 125.352L136.743 153.227C136.615 153.341 136.601 153.54 136.715 153.669C136.786 153.74 136.872 153.768 136.957 153.768Z" fill="black"/>
<path d="M59.9611 195.474L73.1218 111.578C77.984 110.752 83.7017 110.168 90.0754 110.268C103.507 110.482 114.5 113.629 122.072 116.549C122.899 126.306 123.455 136.647 123.626 147.515C123.911 165.548 123.084 182.27 121.63 197.468L59.9611 195.474Z" fill="#FF722C"/>
<path d="M66.719 173.624C65.5212 174.35 64.8368 174.778 64.8368 174.778C64.8368 174.778 78.1829 123.97 73.4776 111.393C73.4776 111.393 54.2426 118.088 42.7216 155.264C31.2006 192.44 48.3823 205.074 60.5735 205.302C62.2988 205.33 64.3948 204.718 66.719 203.635V173.624Z" fill="white"/>
<path d="M59.8609 205.587C61.4294 205.587 62.9836 205.359 64.495 204.917C64.6661 204.875 64.7516 204.689 64.7089 204.533C64.6661 204.362 64.4807 204.276 64.3239 204.319C54.2002 207.31 44.1051 199.419 41.0252 190.189C37.6744 179.578 38.644 167.328 43.9197 153.782C43.9197 153.768 43.934 153.754 43.934 153.74C47.3561 140.08 53.3162 128.998 62.1851 119.84C62.7269 119.37 63.283 118.857 63.8248 118.373C65.4076 116.905 67.0473 115.396 69.1718 114.456C69.2004 114.441 69.2431 114.413 69.2716 114.384L70.1985 113.459C70.6833 113.216 71.1253 112.974 71.5388 112.732C72.2232 112.347 72.8648 111.991 73.6205 111.692C73.7774 111.621 73.863 111.436 73.7917 111.279C73.7204 111.123 73.5493 111.037 73.3782 111.108C72.6082 111.436 71.938 111.792 71.2393 112.177C70.8116 112.419 70.3553 112.661 69.8705 112.903C69.842 112.917 69.8135 112.931 69.785 112.96L68.8582 113.886C66.6623 114.869 65.0083 116.407 63.3971 117.888C62.8695 118.373 62.3134 118.885 61.7573 119.37C52.917 128.5 46.7287 139.995 43.3351 153.555C38.0166 167.228 37.047 179.606 40.4406 190.36C42.0661 195.232 45.4739 199.633 49.7943 202.439C52.974 204.519 56.4388 205.587 59.8609 205.587Z" fill="black"/>
<path d="M170.109 186.785L190.87 202.368L164.89 199.861L20.9632 142.501C16.6285 140.778 14.2759 136.448 15.716 132.844C17.1561 129.24 21.8472 127.716 26.1818 129.44L170.109 186.785Z" fill="white"/>
<path d="M190.869 202.681C190.998 202.681 191.112 202.596 191.169 202.482C191.226 202.353 191.183 202.197 191.069 202.111L170.308 186.529C170.28 186.514 170.266 186.5 170.237 186.486L26.3101 129.127C21.8186 127.332 16.9421 128.941 15.4307 132.702C14.7035 134.539 14.8604 136.59 15.9012 138.499C16.9279 140.393 18.6817 141.903 20.849 142.772L164.776 200.131C164.805 200.146 164.833 200.146 164.862 200.146L190.841 202.653C190.855 202.681 190.855 202.681 190.869 202.681ZM169.966 187.07L189.8 201.955L164.976 199.547L21.0914 142.202C19.0667 141.39 17.4126 139.98 16.4573 138.214C15.5162 136.476 15.3594 134.596 16.0153 132.944C17.3841 129.497 21.9041 128.058 26.0676 129.725L169.966 187.07Z" fill="black"/>
<path d="M190.869 202.681C190.998 202.681 191.112 202.596 191.169 202.482C191.226 202.353 191.183 202.197 191.069 202.111L181.53 194.947C181.387 194.847 181.202 194.875 181.088 195.004C180.988 195.146 181.017 195.345 181.145 195.445L189.786 201.94L179.035 200.9C178.864 200.886 178.707 201.014 178.693 201.185C178.678 201.356 178.807 201.513 178.978 201.527L190.841 202.681C190.855 202.681 190.855 202.681 190.869 202.681Z" fill="#5479F7"/>
<path d="M178.75 201.185L190.87 202.368L181.174 195.089L178.75 201.185Z" fill="#5479F7"/>
<path d="M38.5013 134.212L33.2398 147.373C32.8405 148.356 31.7284 148.84 30.7445 148.441L30.1742 148.213C29.1903 147.814 28.7055 146.703 29.1048 145.721L34.3662 132.559C34.7655 131.577 35.8777 131.092 36.8615 131.491L37.4319 131.719C38.4157 132.118 38.9005 133.229 38.5013 134.212Z" fill="white"/>
<path d="M31.457 148.897C31.7564 148.897 32.0558 148.84 32.341 148.712C32.8828 148.469 33.3106 148.042 33.5387 147.487L38.8002 134.326C39.2565 133.186 38.7004 131.876 37.5597 131.42L36.9893 131.192C36.4332 130.978 35.8344 130.978 35.2783 131.22C34.7365 131.463 34.3087 131.89 34.0806 132.445L28.8191 145.607C28.591 146.162 28.6052 146.76 28.8476 147.316C29.09 147.857 29.5178 148.284 30.0739 148.512L30.6442 148.74C30.9009 148.854 31.186 148.897 31.457 148.897ZM38.2156 134.098L32.9541 147.259C32.7973 147.658 32.4836 147.971 32.0986 148.142C31.6994 148.313 31.2716 148.313 30.8724 148.156L30.302 147.928C29.9028 147.772 29.5891 147.458 29.418 147.074C29.2469 146.675 29.2469 146.247 29.4037 145.849L34.6652 132.687C34.822 132.289 35.1357 131.975 35.5207 131.804C35.9199 131.633 36.3477 131.633 36.7469 131.79L37.3173 132.018C38.1443 132.346 38.5435 133.271 38.2156 134.098Z" fill="black"/>
<path d="M42.6933 135.878L37.4319 149.039C37.0326 150.022 35.9205 150.506 34.9366 150.108L34.3663 149.88C33.3824 149.481 32.8976 148.37 33.2969 147.387L38.5583 134.226C38.9576 133.243 40.0697 132.759 41.0536 133.158L41.6239 133.385C42.6078 133.784 43.0783 134.895 42.6933 135.878Z" fill="white"/>
<path d="M35.6491 150.578C36.5332 150.578 37.3744 150.051 37.7309 149.167L42.9923 136.006C43.4486 134.867 42.8925 133.556 41.7518 133.101L41.1815 132.873C40.6254 132.645 40.0265 132.659 39.4704 132.901C38.9286 133.143 38.5009 133.571 38.2727 134.126L33.0113 147.287C32.555 148.427 33.1111 149.737 34.2518 150.193L34.8221 150.421C35.093 150.521 35.3782 150.578 35.6491 150.578ZM40.3402 133.343C40.5398 133.343 40.7395 133.385 40.9391 133.457L41.5094 133.685C42.3364 134.012 42.7357 134.952 42.4077 135.764L37.1463 148.925C36.9894 149.324 36.6758 149.637 36.2908 149.808C35.8915 149.979 35.4638 149.979 35.0645 149.823L34.4942 149.595C33.6672 149.267 33.2679 148.327 33.5959 147.515L38.8573 134.354C39.0142 133.955 39.3279 133.642 39.7129 133.471C39.9125 133.385 40.1263 133.343 40.3402 133.343Z" fill="black"/>
<path d="M165.118 199.12C165.175 199.12 165.246 199.106 165.303 199.063C165.446 198.964 165.474 198.764 165.375 198.622C164.918 197.981 164.804 197.24 165.075 196.599C165.332 195.944 165.931 195.488 166.686 195.346C166.857 195.317 166.972 195.146 166.929 194.975C166.886 194.804 166.729 194.69 166.558 194.733C165.574 194.933 164.819 195.531 164.476 196.371C164.134 197.212 164.277 198.18 164.847 198.992C164.918 199.077 165.018 199.12 165.118 199.12Z" fill="black"/>
<path d="M166.63 195.317C166.687 195.317 166.758 195.303 166.815 195.26C166.958 195.16 166.986 194.961 166.886 194.819C166.43 194.178 166.316 193.437 166.587 192.796C166.844 192.141 167.442 191.685 168.198 191.543C168.369 191.514 168.483 191.343 168.44 191.172C168.412 191.001 168.241 190.887 168.07 190.93C167.086 191.129 166.33 191.728 165.988 192.568C165.646 193.423 165.788 194.377 166.359 195.189C166.444 195.26 166.53 195.317 166.63 195.317Z" fill="black"/>
<path d="M168.155 191.5C168.212 191.5 168.283 191.485 168.34 191.443C168.483 191.343 168.512 191.144 168.412 191.001C167.955 190.36 167.841 189.62 168.112 188.979C168.369 188.323 168.968 187.868 169.724 187.725C169.895 187.697 170.009 187.526 169.966 187.355C169.937 187.184 169.766 187.07 169.595 187.113C168.611 187.312 167.856 187.91 167.513 188.751C167.171 189.605 167.314 190.56 167.884 191.372C167.97 191.457 168.055 191.5 168.155 191.5Z" fill="black"/>
<path d="M166.516 195.288C166.644 195.288 166.758 195.217 166.801 195.089C166.872 194.932 166.786 194.747 166.63 194.676L45.5877 146.447C45.4309 146.39 45.2455 146.461 45.1742 146.618C45.1029 146.774 45.1885 146.96 45.3453 147.031L166.387 195.26C166.43 195.288 166.473 195.288 166.516 195.288Z" fill="black"/>
<path d="M168.041 191.457C168.169 191.457 168.283 191.386 168.326 191.258C168.397 191.101 168.312 190.916 168.155 190.844L47.1132 142.63C46.9563 142.558 46.771 142.644 46.6997 142.8C46.6284 142.957 46.7139 143.142 46.8708 143.214L167.913 191.443C167.955 191.457 167.998 191.457 168.041 191.457Z" fill="black"/>
<path d="M60.5735 205.302C72.7646 205.516 103.322 173.396 108.141 173.41C108.141 173.41 114.572 177.997 114.572 171.786C115.955 172.897 120.033 173.652 119.89 169.507C121.901 170.334 124.196 170.405 124.482 168.282C124.981 164.508 114.329 151.218 99.8853 156.574C85.4413 161.93 64.8517 174.792 64.8517 174.792L60.5735 205.302Z" fill="white"/>
<path d="M78.6966 167.015C78.7536 167.015 78.7964 167 78.8534 166.972C85.6834 163.212 91.6862 160.249 96.691 158.155C96.8479 158.084 96.9334 157.899 96.8621 157.742C96.7908 157.585 96.6055 157.5 96.4486 157.571C91.4296 159.665 85.3982 162.642 78.554 166.416C78.3972 166.502 78.3401 166.687 78.4257 166.844C78.4827 166.958 78.5825 167.015 78.6966 167.015Z" fill="black"/>
<path d="M112.276 175.347C112.704 175.347 113.103 175.276 113.459 175.091C114.286 174.664 114.757 173.738 114.857 172.356C115.869 172.912 117.495 173.268 118.707 172.655C119.362 172.328 120.132 171.587 120.204 169.963C121.644 170.476 122.913 170.49 123.74 170.02C124.324 169.678 124.681 169.109 124.781 168.339C124.923 167.3 124.324 165.704 123.141 163.967C123.041 163.824 122.856 163.781 122.699 163.881C122.556 163.981 122.514 164.18 122.613 164.323C123.697 165.918 124.267 167.385 124.153 168.268C124.082 168.852 123.84 169.251 123.412 169.493C122.685 169.92 121.401 169.821 119.99 169.237C119.89 169.194 119.776 169.208 119.69 169.265C119.605 169.322 119.548 169.422 119.562 169.536C119.605 170.846 119.22 171.701 118.407 172.114C117.224 172.712 115.498 172.157 114.743 171.558C114.643 171.487 114.514 171.473 114.415 171.516C114.301 171.573 114.244 171.672 114.244 171.801C114.244 173.253 113.887 174.179 113.16 174.55C111.477 175.419 108.34 173.196 108.312 173.168C108.169 173.068 107.97 173.097 107.87 173.239C107.77 173.382 107.799 173.581 107.941 173.681C108.07 173.752 110.351 175.347 112.276 175.347Z" fill="black"/>
<path d="M60.6879 205.615C64.5805 205.615 70.6548 202.482 79.2385 196.043C79.3811 195.944 79.4096 195.744 79.2955 195.602C79.1957 195.46 78.9961 195.431 78.8535 195.545C70.3839 201.898 64.438 204.989 60.6879 204.989C60.6452 204.989 60.6024 204.989 60.5739 204.989C60.4027 204.989 60.2602 205.131 60.2602 205.302C60.2602 205.473 60.3885 205.615 60.5739 205.615C60.6024 205.615 60.6452 205.615 60.6879 205.615Z" fill="black"/>
<path d="M114.629 172.157C114.658 172.157 114.701 172.157 114.729 172.142C114.886 172.085 114.986 171.9 114.929 171.744C113.874 168.724 109.767 166.217 106.402 165.533C106.231 165.505 106.06 165.605 106.031 165.775C106.003 165.946 106.103 166.117 106.274 166.146C109.396 166.787 113.375 169.18 114.33 171.943C114.387 172.085 114.501 172.157 114.629 172.157Z" fill="black"/>
<path d="M119.89 169.75C119.947 169.75 120.004 169.735 120.047 169.707C120.189 169.621 120.246 169.422 120.161 169.28C117.523 164.864 114.728 162.656 110.536 161.688C110.365 161.645 110.194 161.759 110.165 161.916C110.123 162.086 110.237 162.257 110.393 162.286C114.4 163.226 117.067 165.348 119.619 169.593C119.676 169.693 119.776 169.75 119.89 169.75Z" fill="black"/>
<path d="M102.326 90.376L93.999 111.457C93.999 111.457 97.6601 116.891 108.14 118.287C118.606 119.683 109.709 110.937 109.709 110.937L108.971 100.635L108.085 100.534L104.541 97.6558L102.326 94.5156L101.409 92.691L102.326 90.376Z" fill="white"/>
<path d="M125.164 87.9621C124.865 91.1669 123.967 94.3718 122.099 97.0068C120.245 99.6419 117.336 101.622 114.114 101.907C111.333 102.149 108.524 101.109 106.343 99.3713C104.161 97.6336 102.55 95.2406 101.409 92.691C98.8912 92.6579 95.5775 90.8678 94.722 88.076C94.2229 86.4665 94.4368 84.5721 95.5632 83.3186C96.6897 82.0652 98.8285 81.7376 100.098 82.8486C100.825 83.4753 101.181 84.4581 101.937 85.0564C102.778 85.7258 103.976 85.8113 104.988 85.4837C106.001 85.1561 106.87 84.4581 107.612 83.689C109.965 81.2818 111.39 77.9915 111.561 74.63C111.547 74.9433 113.002 75.8407 113.258 76.0259C113.9 76.4674 114.584 76.852 115.297 77.1796C116.695 77.8206 118.206 78.2336 119.732 78.3903C120.502 78.4758 121.286 78.49 122.07 78.4331C122.683 78.3903 123.567 78.0627 124.166 78.2336C125.421 78.5755 125.15 80.9684 125.193 81.9228C125.335 83.9311 125.364 85.9537 125.164 87.9621Z" fill="white"/>
<path d="M113.315 102.249C113.6 102.249 113.871 102.234 114.142 102.206C117.25 101.935 120.316 100.055 122.355 97.1777C124.08 94.7421 125.121 91.6512 125.478 87.9763C125.649 86.2243 125.663 84.2872 125.535 81.8943C125.521 81.7376 125.521 81.5239 125.535 81.296C125.535 80.0853 125.549 78.2621 124.28 77.9203C123.824 77.7921 123.282 77.906 122.754 78.0057C122.498 78.0485 122.27 78.1054 122.07 78.1197C121.314 78.1624 120.544 78.1482 119.789 78.0769C118.277 77.9203 116.823 77.5214 115.454 76.8947C114.755 76.5814 114.085 76.1968 113.472 75.7695C113.429 75.741 113.372 75.6982 113.301 75.6555C112.288 74.9861 111.975 74.7154 111.918 74.6015C111.903 74.459 111.775 74.3308 111.618 74.3308C111.461 74.3166 111.305 74.459 111.29 74.63C111.134 77.906 109.722 81.1393 107.426 83.4895C106.556 84.3869 105.758 84.9282 104.931 85.1988C103.919 85.5264 102.863 85.384 102.165 84.8285C101.808 84.5436 101.552 84.159 101.267 83.7602C100.996 83.3614 100.71 82.9625 100.34 82.6349C98.9994 81.4527 96.6609 81.6948 95.3634 83.1335C94.2227 84.3869 93.8805 86.324 94.4509 88.19C95.3206 91.0245 98.2722 93.1183 101.238 93.0328C102.507 95.8246 104.175 98.0466 106.171 99.6277C108.296 101.308 110.863 102.249 113.315 102.249ZM124.85 87.9336C124.508 91.4945 123.496 94.4857 121.842 96.8217C119.917 99.5422 117.008 101.337 114.085 101.593C111.547 101.821 108.795 100.924 106.528 99.1291C104.56 97.5623 102.935 95.3688 101.694 92.577C101.637 92.4631 101.523 92.3776 101.381 92.3919C98.6144 92.577 95.8197 90.6399 95.0212 88.0048C94.5221 86.3668 94.8216 84.629 95.7912 83.5465C96.8606 82.3643 98.814 82.1649 99.8977 83.105C100.211 83.3898 100.468 83.7459 100.725 84.1163C101.024 84.5436 101.324 84.9851 101.751 85.3127C102.607 85.9964 103.89 86.1816 105.102 85.7828C106.029 85.4837 106.913 84.8854 107.854 83.9169C110.078 81.6379 111.504 78.5755 111.832 75.3991C112.089 75.5985 112.445 75.8549 112.93 76.1683C113.001 76.211 113.058 76.2537 113.101 76.2822C113.757 76.7238 114.456 77.1226 115.183 77.4645C116.623 78.1197 118.135 78.5327 119.717 78.7037C120.516 78.7891 121.328 78.8034 122.113 78.7606C122.355 78.7464 122.612 78.6894 122.883 78.6467C123.339 78.5612 123.795 78.4615 124.123 78.547C124.922 78.7606 124.922 80.299 124.922 81.3245C124.922 81.5666 124.922 81.7803 124.936 81.9655C125.036 84.3014 125.021 86.2101 124.85 87.9336Z" fill="black"/>
<path d="M98.3586 86.4951C99.8557 86.837 101.082 88.1474 101.339 89.6572L98.3586 86.4951Z" fill="white"/>
<path d="M101.325 89.9705C101.339 89.9705 101.353 89.9705 101.382 89.9705C101.553 89.942 101.667 89.7853 101.638 89.6144C101.367 87.9764 100.041 86.5663 98.43 86.1959C98.2589 86.1532 98.0878 86.2672 98.0593 86.4381C98.0165 86.609 98.1306 86.7799 98.3017 86.8084C99.6848 87.1218 100.811 88.3182 101.039 89.7284C101.039 89.8566 101.182 89.9705 101.325 89.9705Z" fill="black"/>
</g>
<path d="M326.629 256.661H214.952C209.196 256.661 204.499 251.955 204.499 246.219V25.7958C204.499 20.046 209.209 15.3536 214.952 15.3536H326.629C332.385 15.3536 337.082 20.0592 337.082 25.7958V246.219C337.095 251.955 332.385 256.661 326.629 256.661Z" fill="black"/>
<path d="M214.965 256.952H326.642C332.57 256.952 337.387 252.14 337.387 246.219V25.7957C337.387 19.8741 332.57 15.0627 326.642 15.0627H214.965C209.038 15.0627 204.221 19.8741 204.221 25.7957V246.219C204.208 252.14 209.038 256.952 214.965 256.952ZM326.629 15.6443C332.24 15.6443 336.791 20.2045 336.791 25.7957V246.219C336.791 251.823 332.226 256.37 326.629 256.37H214.952C209.342 256.37 204.79 251.81 204.79 246.219V25.7957C204.79 20.1913 209.355 15.6443 214.952 15.6443H326.629Z" fill="black"/>
<path d="M320.966 248.995H220.629C215.336 248.995 211.01 244.672 211.01 239.385V31.9554C211.01 26.6682 215.336 22.3459 220.629 22.3459H320.966C326.259 22.3459 330.586 26.6682 330.586 31.9554V239.385C330.586 244.672 326.259 248.995 320.966 248.995Z" fill="white"/>
<path d="M220.629 249.285H320.966C326.431 249.285 330.877 244.844 330.877 239.385V31.9553C330.877 26.4963 326.431 22.0551 320.966 22.0551H220.629C215.164 22.0551 210.718 26.4963 210.718 31.9553V239.385C210.718 244.844 215.164 249.285 220.629 249.285ZM320.966 22.6366C326.113 22.6366 330.295 26.8135 330.295 31.9553V239.385C330.295 244.527 326.113 248.704 320.966 248.704H220.629C215.482 248.704 211.301 244.527 211.301 239.385V31.9553C211.301 26.8135 215.482 22.6366 220.629 22.6366H320.966Z" fill="black"/>
<path d="M258.366 29.4704H284.724C284.882 29.4704 285.015 29.3382 285.015 29.1796C285.015 29.021 284.882 28.8888 284.724 28.8888H258.379C258.22 28.8888 258.088 29.021 258.088 29.1796C258.075 29.3382 258.207 29.4704 258.366 29.4704Z" fill="black"/>
<path d="M169.97 49.0231H297.512V208.339H169.97V49.0231Z" fill="white"/>
<path d="M169.956 208.63H297.512C297.67 208.63 297.803 208.498 297.803 208.339V49.023C297.803 48.8644 297.67 48.7322 297.512 48.7322H169.956C169.798 48.7322 169.665 48.8644 169.665 49.023V208.339C169.665 208.498 169.798 208.63 169.956 208.63ZM297.221 208.048H170.261V49.3138H297.221V208.048Z" fill="black"/>
<path d="M185.703 125.423H281.779V135.812H185.703V125.423Z" fill="white"/>
<path d="M185.703 136.116H281.779C281.938 136.116 282.07 135.984 282.07 135.825V125.436C282.07 125.277 281.938 125.145 281.779 125.145H185.703C185.544 125.145 185.412 125.277 185.412 125.436V135.825C185.412 135.984 185.531 136.116 185.703 136.116ZM281.488 135.535H185.994V125.714H281.488V135.535Z" fill="black"/>
<path d="M185.703 149.771H281.779V188.076H185.703V149.771Z" fill="white"/>
<path d="M185.703 188.367H281.779C281.938 188.367 282.07 188.235 282.07 188.076V149.77C282.07 149.612 281.938 149.48 281.779 149.48H185.703C185.544 149.48 185.412 149.612 185.412 149.77V188.076C185.412 188.235 185.531 188.367 185.703 188.367ZM281.488 187.785H185.994V150.061H281.488V187.785Z" fill="black"/>
<path d="M233.933 110.949C220.91 110.949 210.353 100.457 210.353 87.5137C210.353 74.5707 220.91 64.0782 233.933 64.0782C246.955 64.0782 257.512 74.5707 257.512 87.5137C257.512 100.457 246.955 110.949 233.933 110.949Z" fill="#1F59C9"/>
<mask id="mask2_819_4302" style="mask-type:luminance" maskUnits="userSpaceOnUse" x="213" y="66" width="42" height="43">
<path d="M233.932 108.041C222.525 108.041 213.277 98.8507 213.277 87.5137C213.277 76.1767 222.525 66.9862 233.932 66.9862C245.339 66.9862 254.587 76.1767 254.587 87.5137C254.587 98.8507 245.339 108.041 233.932 108.041Z" fill="white"/>
</mask>
<g mask="url(#mask2_819_4302)">
<path d="M221.03 109.998H246.858C246.938 109.998 247.017 109.971 247.07 109.905C247.123 109.852 247.149 109.773 247.149 109.694L245.866 84.1697C245.456 76.067 240.229 69.7224 233.944 69.7224C227.672 69.7224 222.432 76.067 222.022 84.1697L220.739 109.694C220.739 109.773 220.765 109.852 220.818 109.905C220.871 109.971 220.937 109.998 221.03 109.998ZM246.541 109.416H221.334L222.604 84.1961C223.001 76.3975 227.976 70.304 233.944 70.304C239.912 70.304 244.887 76.4107 245.284 84.1961L246.541 109.416Z" fill="white"/>
<path d="M222.248 97.4141L233.932 94.744L245.615 97.4141C248.751 98.1278 251.265 100.494 252.152 103.56L254.692 116.871H213.171L215.711 103.56C216.611 100.481 219.112 98.1278 222.248 97.4141Z" fill="white"/>
<path d="M233.931 101.921C236.71 101.921 238.973 99.6744 238.973 96.8986V87.5535H228.903V96.8986C228.903 99.6744 231.153 101.921 233.931 101.921Z" fill="white"/>
<path d="M225.503 81.0503C225.874 80.9578 226.244 80.9974 226.588 81.1296C226.879 76.4901 230.055 73.3574 233.945 73.3574C237.822 73.3574 241.011 76.5033 241.302 81.1296C241.646 80.9974 242.017 80.9578 242.387 81.0503C243.472 81.3146 244.107 82.5703 243.777 83.8525C243.459 85.1346 242.321 85.9409 241.223 85.6766C241.051 85.6369 240.879 85.5576 240.733 85.4651C239.608 88.8885 236.989 91.5057 233.945 91.5057C230.889 91.5057 228.269 88.8885 227.157 85.4651C227.012 85.5576 226.84 85.6237 226.668 85.6766C225.583 85.9409 224.432 85.1346 224.114 83.8525C223.783 82.5703 224.405 81.3279 225.503 81.0503Z" fill="white"/>
<path d="M233.931 91.8097C236.856 91.8097 239.608 89.4437 240.891 85.8881C240.971 85.9145 241.063 85.941 241.143 85.9674C242.387 86.2714 243.683 85.3594 244.041 83.9318C244.226 83.1784 244.12 82.3985 243.749 81.7773C243.445 81.2618 242.969 80.9181 242.426 80.7727C242.135 80.7066 241.831 80.6934 241.54 80.7595C241.103 76.2786 237.954 73.0667 233.918 73.0667C229.883 73.0667 226.733 76.2786 226.297 80.7595C225.992 80.7066 225.701 80.7066 225.41 80.7727C224.868 80.9049 224.391 81.2618 224.087 81.7773C223.716 82.3985 223.611 83.1784 223.796 83.9318C224.153 85.3594 225.45 86.2714 226.694 85.9674C226.773 85.941 226.866 85.9145 226.945 85.8881C228.255 89.4305 231.02 91.8097 233.931 91.8097ZM240.733 85.1875C240.693 85.1875 240.666 85.1875 240.627 85.2007C240.547 85.2272 240.481 85.2933 240.455 85.3858C239.304 88.8753 236.684 91.2281 233.931 91.2281C231.179 91.2281 228.559 88.8753 227.408 85.3858C227.382 85.3065 227.316 85.2404 227.236 85.2007C227.157 85.1743 227.064 85.1743 226.985 85.2272C226.852 85.3065 226.72 85.3594 226.575 85.399C225.648 85.6237 224.656 84.91 224.378 83.7864C224.233 83.1784 224.312 82.5572 224.603 82.0681C224.828 81.698 225.172 81.4336 225.569 81.3279C225.86 81.2618 226.178 81.275 226.482 81.394C226.575 81.4204 226.667 81.4204 226.747 81.3675C226.826 81.3147 226.879 81.2354 226.879 81.1428C227.157 76.7941 230.121 73.635 233.945 73.635C237.769 73.635 240.733 76.7941 241.011 81.1428C241.011 81.2354 241.063 81.3147 241.143 81.3675C241.222 81.4204 241.315 81.4336 241.407 81.394C241.712 81.275 242.029 81.2618 242.32 81.3279C242.717 81.4204 243.048 81.6848 243.286 82.0681C243.577 82.5572 243.657 83.1784 243.511 83.7732C243.233 84.8967 242.241 85.6105 241.315 85.3858C241.169 85.3461 241.037 85.2933 240.905 85.214C240.838 85.2007 240.786 85.1875 240.733 85.1875Z" fill="#5479F7"/>
<path d="M241.408 82.2927C237.73 81.6053 233.892 78.3537 231.59 75.4193C231.14 78.0233 228.825 81.0634 226.39 82.1341C226.39 82.1341 225.225 71.7712 233.932 72.1016C242.639 72.4321 241.408 82.2927 241.408 82.2927Z" fill="#1F59C9"/>
</g>
<path d="M191.378 158.772H214.838C214.997 158.772 215.129 158.639 215.129 158.481C215.129 158.322 214.997 158.19 214.838 158.19H191.378C191.219 158.19 191.087 158.322 191.087 158.481C191.087 158.639 191.219 158.772 191.378 158.772Z" fill="black" stroke="black"/>
<path d="M233.044 158.772H248.182C248.34 158.772 248.473 158.639 248.473 158.481C248.473 158.322 248.34 158.19 248.182 158.19H233.044C232.886 158.19 232.753 158.322 232.753 158.481C232.753 158.639 232.886 158.772 233.044 158.772Z" fill="black" stroke="black"/>
<path d="M253.263 158.772H271.007C271.166 158.772 271.298 158.639 271.298 158.481C271.298 158.322 271.166 158.19 271.007 158.19H253.25C253.091 158.19 252.958 158.322 252.958 158.481C252.972 158.639 253.091 158.772 253.263 158.772Z" fill="black" stroke="black"/>
<path d="M199.502 165.724H220.038C220.197 165.724 220.329 165.592 220.329 165.433C220.329 165.275 220.197 165.143 220.038 165.143H199.502C199.343 165.143 199.211 165.275 199.211 165.433C199.211 165.605 199.343 165.724 199.502 165.724Z" fill="black" stroke="black"/>
<path d="M236.789 165.724H255.022C255.181 165.724 255.313 165.592 255.313 165.433C255.313 165.275 255.181 165.143 255.022 165.143H236.789C236.63 165.143 236.498 165.275 236.498 165.433C236.498 165.605 236.63 165.724 236.789 165.724Z" fill="black" stroke="black"/>
<path d="M260.09 165.724H276.088C276.247 165.724 276.379 165.592 276.379 165.433C276.379 165.275 276.247 165.143 276.088 165.143H260.09C259.932 165.143 259.799 165.275 259.799 165.433C259.799 165.605 259.932 165.724 260.09 165.724Z" fill="black" stroke="black"/>
<path d="M238.695 172.69H276.088C276.247 172.69 276.379 172.558 276.379 172.399C276.379 172.241 276.247 172.109 276.088 172.109H238.695C238.536 172.109 238.403 172.241 238.403 172.399C238.403 172.558 238.536 172.69 238.695 172.69Z" fill="black" stroke="black"/>
<path d="M208.726 184.824C209.983 184.824 211.531 184.454 213.371 183.318C218.002 180.463 218.399 174.739 218.438 173.616C218.438 173.457 218.319 173.325 218.161 173.312C218.015 173.312 217.87 173.431 217.856 173.589C217.83 174.66 217.446 180.106 213.066 182.815C210.221 184.573 208.118 184.375 206.861 183.899C206.252 183.675 205.683 183.318 205.18 182.868C206.093 182.022 206.636 181.097 206.94 180.582C207.641 179.392 209.295 176.603 208.012 174.951C207.377 174.144 205.987 173.669 204.638 173.774C203.619 173.867 202.838 174.277 202.494 174.924C201.846 176.127 201.899 178.123 202.613 180.04C203.023 181.123 203.606 182.075 204.32 182.842C203.844 183.199 203.288 183.529 202.64 183.767C202.004 183.992 200.311 184.6 198.842 183.78C198.339 183.503 198.008 183.119 197.625 182.458C198.339 181.48 198.776 180.304 199.054 179.564C199.438 178.546 199.782 177.581 199.292 176.762C198.921 176.14 198.114 175.731 197.162 175.651C196.288 175.585 195.521 175.823 195.124 176.286C194.224 177.343 195.283 179.326 196.5 181.626C196.646 181.917 196.791 182.181 196.923 182.419C196.407 183.027 195.772 183.489 194.965 183.582C193.854 183.701 192.875 183.106 192.239 182.577C192.12 182.472 191.935 182.485 191.829 182.617C191.723 182.736 191.737 182.921 191.869 183.027C192.583 183.622 193.721 184.309 195.031 184.15C195.944 184.045 196.659 183.569 197.241 182.948C197.612 183.542 197.995 183.979 198.577 184.296C200.271 185.234 202.137 184.573 202.851 184.322C203.606 184.058 204.227 183.675 204.757 183.265C205.339 183.78 205.987 184.19 206.689 184.454C207.205 184.666 207.893 184.824 208.726 184.824ZM205.021 174.369C206.067 174.369 207.086 174.752 207.549 175.334C208.581 176.669 207.019 179.313 206.437 180.304C206.12 180.833 205.617 181.705 204.757 182.485C204.082 181.784 203.526 180.886 203.142 179.855C202.494 178.123 202.428 176.259 202.997 175.228C203.248 174.752 203.857 174.448 204.677 174.382C204.796 174.369 204.916 174.369 205.021 174.369ZM196.857 176.246C196.937 176.246 197.016 176.246 197.095 176.259C197.863 176.325 198.498 176.643 198.776 177.092C199.107 177.634 198.882 178.321 198.485 179.392C198.247 180.04 197.863 181.057 197.281 181.93C197.188 181.758 197.095 181.573 196.99 181.375C195.958 179.445 194.899 177.449 195.547 176.695C195.799 176.418 196.288 176.246 196.857 176.246Z" fill="black"/>
<path d="M116.756 115.493C117.832 115.79 119.417 116.3 121.187 117.205C127.429 120.415 128.915 124.912 135.314 135.179C144.812 150.481 149.582 158.132 151.323 159.928C152.031 160.649 153.418 162.063 153.56 164.072C153.857 168.541 147.756 172.67 141.655 174.763C133.686 177.493 126.212 178.893 123.168 174.664C121.781 172.727 120.45 170.69 119.332 168.597C118.242 166.575 117.704 166.052 115.864 166.405C116.161 149.42 116.459 132.464 116.756 115.493Z" fill="white"/>
<path d="M129.708 177.662C133.417 177.662 137.805 176.389 141.74 175.046C147.982 172.91 154.154 168.668 153.857 164.043C153.715 161.936 152.257 160.437 151.55 159.716C149.808 157.948 145.052 150.283 135.554 135.024C134.195 132.846 133.063 130.922 132.058 129.225C128.349 122.96 126.311 119.496 121.3 116.936C119.884 116.215 118.369 115.621 116.812 115.196C116.713 115.168 116.614 115.196 116.543 115.253C116.473 115.31 116.416 115.394 116.416 115.493L115.524 166.377C115.524 166.476 115.567 166.561 115.637 166.617C115.708 166.674 115.807 166.702 115.892 166.688C117.478 166.377 117.916 166.674 119.021 168.724C120.068 170.676 121.37 172.727 122.885 174.834C124.4 176.899 126.848 177.662 129.708 177.662ZM117.053 115.904C118.426 116.299 119.771 116.837 121.031 117.487C125.872 119.976 127.769 123.173 131.534 129.537C132.539 131.234 133.671 133.157 135.03 135.349C144.543 150.651 149.327 158.33 151.097 160.14C151.804 160.875 153.121 162.205 153.234 164.086C153.517 168.385 147.558 172.387 141.542 174.452C135.299 176.587 126.622 178.921 123.409 174.466C121.908 172.387 120.634 170.365 119.587 168.427C118.582 166.575 117.959 165.769 116.175 166.009L117.053 115.904Z" fill="black"/>
<path d="M119.316 168.583L167.43 125.874C167.43 125.874 174.395 116.922 180.496 118.803C186.767 120.74 175.952 125.025 175.216 131.46C174.961 133.723 175.145 136.834 171.804 139.634C171.55 139.69 171.394 139.903 170.814 140.058L171.139 152.942C171.139 152.942 150.784 180.335 132.976 181.325C125.7 181.721 119.316 168.583 119.316 168.583Z" fill="white"/>
<path d="M132.862 181.636C132.905 181.636 132.962 181.636 133.004 181.636C143.139 181.41 156.162 171.934 170.643 154.228C170.686 154.172 170.714 154.101 170.714 154.03V143.792C170.714 143.622 170.572 143.48 170.402 143.48C170.233 143.48 170.091 143.622 170.091 143.792V153.917C155.752 171.425 142.927 180.802 132.99 181.014C132.947 181.014 132.905 181.014 132.862 181.014C125.884 181.014 119.656 168.569 119.599 168.441C119.528 168.286 119.33 168.229 119.188 168.3C119.033 168.371 118.976 168.569 119.047 168.71C119.302 169.247 125.502 181.636 132.862 181.636Z" fill="black"/>
<path d="M170.12 140.369C170.134 140.369 170.162 140.369 170.176 140.369C171.068 140.185 171.875 139.846 172.54 139.351C174.848 137.654 175.102 135.306 175.47 132.054L175.527 131.502C175.909 128.094 178.486 125.534 180.368 123.667C182.067 121.984 183.397 120.655 182.293 119.51C180.708 117.869 178.217 117.968 174.451 119.807C174.296 119.877 174.239 120.075 174.31 120.217C174.38 120.372 174.564 120.429 174.72 120.358C179.292 118.124 180.977 119.043 181.84 119.934C182.491 120.599 181.586 121.56 179.929 123.215C177.976 125.152 175.315 127.797 174.904 131.417L174.848 131.969C174.494 135.179 174.253 137.3 172.172 138.828C171.578 139.266 170.856 139.577 170.049 139.733C169.879 139.761 169.766 139.931 169.808 140.101C169.851 140.27 169.978 140.369 170.12 140.369Z" fill="black"/>
<path d="M136.586 153.875C136.656 153.875 136.741 153.847 136.798 153.79L167.657 126.1C167.671 126.086 167.671 126.086 167.685 126.071C167.713 126.043 170.728 122.635 174.763 120.358C174.918 120.273 174.961 120.089 174.876 119.934C174.791 119.778 174.607 119.736 174.451 119.821C170.445 122.083 167.444 125.407 167.218 125.661L136.373 153.338C136.246 153.451 136.232 153.649 136.345 153.776C136.402 153.832 136.501 153.875 136.586 153.875Z" fill="black"/>
<path d="M169.496 186.656L190.106 202.114L164.315 199.625L21.4454 142.674C17.1421 140.963 14.8065 136.664 16.2362 133.086C17.6659 129.508 22.323 127.995 26.6262 129.706L169.496 186.656Z" fill="white"/>
<path d="M190.106 202.425C190.234 202.425 190.347 202.34 190.404 202.227C190.46 202.1 190.418 201.944 190.305 201.859L169.694 186.388C169.666 186.374 169.652 186.359 169.624 186.345L26.7395 129.395C22.2806 127.613 17.4395 129.211 15.939 132.945C15.2171 134.769 15.3728 136.805 16.4061 138.7C17.4253 140.581 19.1664 142.08 21.318 142.943L164.202 199.908C164.23 199.922 164.259 199.922 164.287 199.922L190.078 202.425C190.092 202.425 190.092 202.425 190.106 202.425ZM169.341 186.925L189.031 201.704L164.386 199.314L21.5587 142.392C19.5486 141.585 17.9066 140.185 16.9582 138.432C16.0239 136.706 15.8682 134.84 16.5194 133.199C17.8783 129.777 22.3655 128.348 26.4989 130.003L169.341 186.925Z" fill="black"/>
<path d="M190.106 202.425C190.234 202.425 190.347 202.34 190.404 202.227C190.46 202.1 190.418 201.944 190.305 201.859L180.835 194.746C180.693 194.647 180.509 194.675 180.396 194.802C180.297 194.944 180.325 195.142 180.453 195.241L189.031 201.704L178.358 200.671C178.188 200.657 178.032 200.784 178.018 200.954C178.004 201.124 178.131 201.279 178.301 201.294L190.078 202.439C190.092 202.425 190.092 202.425 190.106 202.425Z" fill="#5479F7"/>
<path d="M178.074 200.954L190.106 202.114L180.481 194.901L178.074 200.954Z" fill="#5479F7"/>
<path d="M38.8424 134.458L33.6191 147.525C33.2228 148.501 32.1187 148.982 31.1419 148.586L30.5757 148.359C29.599 147.963 29.1177 146.86 29.5141 145.885L34.7374 132.817C35.1337 131.841 36.2379 131.361 37.2146 131.757L37.7808 131.983C38.7575 132.365 39.2388 133.482 38.8424 134.458Z" fill="white"/>
<path d="M31.8495 149.038C32.1467 149.038 32.444 148.982 32.7271 148.854C33.265 148.614 33.6897 148.19 33.9162 147.638L39.1395 134.571C39.5925 133.439 39.0404 132.138 37.908 131.686L37.3418 131.46C36.7897 131.247 36.1952 131.247 35.6431 131.488C35.1052 131.728 34.6805 132.153 34.4541 132.704L29.2307 145.771C29.0043 146.323 29.0184 146.917 29.259 147.468C29.4997 148.006 29.9243 148.43 30.4764 148.656L31.0426 148.883C31.2974 148.982 31.5805 149.038 31.8495 149.038ZM38.5591 134.345L33.3358 147.412C33.1801 147.808 32.8687 148.119 32.4865 148.289C32.0901 148.458 31.6655 148.458 31.2691 148.303L30.7029 148.077C30.3065 147.921 29.9951 147.61 29.8253 147.228C29.6554 146.832 29.6554 146.408 29.8111 146.012L35.0344 132.944C35.1901 132.549 35.5016 132.237 35.8838 132.068C36.2801 131.898 36.7048 131.898 37.1011 132.054L37.6673 132.28C38.4742 132.591 38.8847 133.524 38.5591 134.345Z" fill="black"/>
<path d="M43.0036 136.112L37.7802 149.18C37.3839 150.156 36.2798 150.636 35.3031 150.24L34.7368 150.014C33.7601 149.618 33.2788 148.515 33.6752 147.539L38.8985 134.472C39.2949 133.496 40.399 133.015 41.3757 133.411L41.9419 133.638C42.9186 134.034 43.3858 135.137 43.0036 136.112Z" fill="white"/>
<path d="M36.0106 150.693C36.8882 150.693 37.7234 150.17 38.0773 149.293L43.3006 136.225C43.7536 135.094 43.2015 133.793 42.0691 133.341L41.5029 133.114C40.9508 132.888 40.3563 132.902 39.8043 133.143C39.2664 133.383 38.8417 133.807 38.6152 134.359L33.3919 147.426C32.9389 148.557 33.491 149.859 34.6234 150.311L35.1896 150.537C35.4586 150.65 35.7275 150.693 36.0106 150.693ZM40.6677 133.595C40.8659 133.595 41.0641 133.637 41.2623 133.708L41.8285 133.934C42.6495 134.26 43.0458 135.193 42.7203 135.999L37.4969 149.067C37.3412 149.463 37.0298 149.774 36.6476 149.943C36.2513 150.113 35.8266 150.113 35.4302 149.958L34.864 149.731C34.043 149.406 33.6467 148.473 33.9723 147.666L39.1956 134.599C39.3513 134.203 39.6627 133.892 40.0449 133.722C40.2431 133.637 40.4554 133.595 40.6677 133.595Z" fill="black"/>
<path d="M164.529 198.904C164.586 198.904 164.657 198.89 164.713 198.847C164.855 198.748 164.883 198.55 164.784 198.409C164.331 197.772 164.218 197.037 164.487 196.401C164.742 195.75 165.336 195.297 166.086 195.156C166.256 195.128 166.369 194.958 166.327 194.788C166.299 194.619 166.129 194.505 165.959 194.548C164.982 194.746 164.232 195.34 163.892 196.174C163.553 197.023 163.694 197.97 164.26 198.776C164.345 198.861 164.444 198.904 164.529 198.904Z" fill="black"/>
<path d="M166.042 195.114C166.099 195.114 166.169 195.099 166.226 195.057C166.368 194.958 166.396 194.76 166.297 194.619C165.844 193.982 165.731 193.247 165.999 192.61C166.254 191.96 166.849 191.507 167.599 191.366C167.769 191.338 167.882 191.168 167.84 190.998C167.811 190.828 167.642 190.715 167.472 190.758C166.495 190.956 165.745 191.55 165.405 192.384C165.065 193.233 165.207 194.18 165.773 194.986C165.858 195.071 165.943 195.114 166.042 195.114Z" fill="black"/>
<path d="M167.558 191.338C167.614 191.338 167.685 191.323 167.742 191.281C167.883 191.182 167.911 190.984 167.812 190.843C167.359 190.206 167.246 189.471 167.515 188.834C167.77 188.184 168.364 187.731 169.115 187.59C169.285 187.562 169.398 187.392 169.355 187.222C169.327 187.052 169.157 186.939 168.987 186.982C168.011 187.18 167.26 187.774 166.921 188.608C166.581 189.457 166.722 190.404 167.289 191.21C167.359 191.281 167.458 191.338 167.558 191.338Z" fill="black"/>
<path d="M165.915 195.099C166.043 195.099 166.156 195.029 166.198 194.901C166.269 194.746 166.184 194.562 166.029 194.491L45.8637 146.606C45.708 146.549 45.524 146.62 45.4532 146.776C45.3824 146.931 45.4673 147.115 45.6231 147.186L165.802 195.085C165.845 195.099 165.887 195.099 165.915 195.099Z" fill="black"/>
<path d="M167.445 191.295C167.572 191.295 167.685 191.224 167.728 191.097C167.798 190.942 167.714 190.758 167.558 190.687L47.393 142.802C47.2373 142.731 47.0533 142.816 46.9825 142.971C46.9117 143.127 46.9967 143.311 47.1524 143.382L167.331 191.281C167.36 191.295 167.402 191.295 167.445 191.295Z" fill="black"/>
<path d="M60.7548 205.041C72.8576 205.253 103.193 173.363 107.977 173.377C107.977 173.377 114.361 177.931 114.361 171.765C115.734 172.868 119.783 173.618 119.641 169.502C121.637 170.322 123.916 170.393 124.199 168.286C124.695 164.538 114.12 151.344 99.7811 156.661C85.4417 161.979 65.0014 174.749 65.0014 174.749L60.7548 205.041Z" fill="white"/>
<path d="M78.7465 167.027C78.8031 167.027 78.8456 167.013 78.9022 166.985C85.6826 163.251 91.642 160.31 96.6106 158.231C96.7663 158.16 96.8512 157.976 96.7804 157.821C96.7097 157.665 96.5256 157.58 96.3699 157.651C91.3872 159.73 85.3995 162.686 78.605 166.433C78.4492 166.518 78.3926 166.702 78.4776 166.858C78.52 166.971 78.6333 167.027 78.7465 167.027Z" fill="black"/>
<path d="M112.082 175.3C112.506 175.3 112.903 175.23 113.257 175.046C114.078 174.622 114.545 173.702 114.644 172.331C115.649 172.882 117.263 173.236 118.466 172.628C119.117 172.302 119.881 171.567 119.952 169.955C121.382 170.464 122.642 170.478 123.463 170.011C124.043 169.672 124.397 169.106 124.496 168.342C124.638 167.31 124.043 165.726 122.868 164.001C122.769 163.859 122.585 163.817 122.429 163.916C122.288 164.015 122.245 164.213 122.344 164.354C123.42 165.938 123.986 167.395 123.873 168.272C123.802 168.852 123.562 169.248 123.137 169.488C122.415 169.912 121.141 169.813 119.74 169.233C119.641 169.191 119.528 169.205 119.443 169.262C119.358 169.318 119.301 169.417 119.315 169.53C119.358 170.832 118.975 171.68 118.169 172.09C116.994 172.684 115.281 172.133 114.531 171.539C114.432 171.468 114.304 171.454 114.205 171.496C114.092 171.553 114.035 171.652 114.035 171.779C114.035 173.222 113.681 174.141 112.959 174.508C111.289 175.371 108.175 173.165 108.147 173.137C108.005 173.038 107.807 173.066 107.708 173.207C107.609 173.349 107.637 173.547 107.779 173.646C107.906 173.702 110.157 175.3 112.082 175.3Z" fill="black"/>
<path d="M60.8685 205.352C64.7329 205.352 70.7631 202.241 79.2846 195.849C79.4262 195.75 79.4545 195.552 79.3413 195.41C79.2422 195.269 79.044 195.241 78.9024 195.354C70.4942 201.661 64.5914 204.73 60.8685 204.73C60.826 204.73 60.7836 204.73 60.7553 204.73C60.5854 204.73 60.4439 204.872 60.4439 205.041C60.4439 205.211 60.5713 205.352 60.7553 205.352C60.7836 205.352 60.826 205.352 60.8685 205.352Z" fill="black"/>
<path d="M114.417 172.133C114.445 172.133 114.488 172.133 114.516 172.118C114.672 172.062 114.771 171.878 114.714 171.722C113.667 168.724 109.59 166.235 106.249 165.556C106.08 165.528 105.91 165.627 105.881 165.797C105.853 165.967 105.952 166.136 106.122 166.165C109.222 166.801 113.171 169.177 114.12 171.92C114.176 172.048 114.29 172.133 114.417 172.133Z" fill="black"/>
<path d="M119.64 169.728C119.697 169.728 119.754 169.714 119.796 169.686C119.938 169.601 119.994 169.403 119.909 169.262C117.291 164.878 114.516 162.686 110.354 161.724C110.185 161.682 110.015 161.795 109.986 161.95C109.944 162.12 110.057 162.29 110.213 162.318C114.191 163.251 116.838 165.358 119.371 169.573C119.428 169.686 119.527 169.728 119.64 169.728Z" fill="black"/>
</svg>
