<svg width="385" height="399" viewBox="0 0 385 399" fill="none" xmlns="http://www.w3.org/2000/svg">
<path d="M86.0083 368.65C93.3518 363.395 100.979 358.49 108.693 353.824C124.382 344.339 140.66 335.858 157.046 327.638C165.676 323.321 174.523 319.396 183.282 315.384C192.108 311.329 200.933 307.317 209.758 303.327C217.821 299.664 225.905 296.001 233.968 292.317C260.814 235.301 290.45 170.654 286.811 170.654L11.7888 162.827C5.29517 162.827 0 168.125 0 174.644V365.728C0 372.247 5.29517 377.524 11.7888 377.524L92.8724 378.047C97.0563 374.995 81.8027 371.659 86.0083 368.65Z" fill="#292C33"/>
<path d="M295.963 163.503H17.411C11.266 163.503 6.27588 168.496 6.27588 174.644V365.728C6.27588 371.877 11.266 376.87 17.411 376.87H295.963C302.108 376.87 307.098 371.877 307.098 365.728V174.644C307.098 168.496 302.108 163.503 295.963 163.503Z" fill="white"/>
<path d="M295.963 377.349H17.4109C11.0044 377.349 5.79639 372.138 5.79639 365.728V174.644C5.79639 168.234 11.0044 163.023 17.4109 163.023H295.963C302.369 163.023 307.577 168.234 307.577 174.644V365.728C307.577 372.138 302.369 377.349 295.963 377.349ZM17.4109 163.983C11.5492 163.983 6.77697 168.757 6.77697 174.644V365.728C6.77697 371.593 11.5492 376.39 17.4327 376.39H295.985C301.846 376.39 306.64 371.615 306.64 365.728V174.644C306.64 168.779 301.868 163.983 295.985 163.983H17.4109Z" fill="#292C33"/>
<path d="M130.069 377.72H16.3431C11.7671 377.72 8.01904 381.448 8.01904 386.049C8.01904 390.628 11.7453 394.378 16.3431 394.378H133.447C138.045 394.356 130.069 377.72 130.069 377.72Z" fill="#292C33"/>
<path d="M360.355 377.72H91.9354C87.3376 377.72 83.6113 381.448 83.6113 386.049C83.6113 390.649 87.3376 394.378 91.9354 394.378H360.355C364.952 394.378 368.679 390.649 368.679 386.049C368.679 381.448 364.952 377.72 360.355 377.72Z" fill="white"/>
<path d="M360.354 394.836H91.9353C87.076 394.836 83.1318 390.889 83.1318 386.027C83.1318 381.165 87.076 377.219 91.9353 377.219H360.354C365.214 377.219 369.158 381.165 369.158 386.027C369.158 390.889 365.214 394.836 360.354 394.836ZM91.9353 378.2C87.6207 378.2 84.1124 381.71 84.1124 386.027C84.1124 390.344 87.6207 393.854 91.9353 393.854H360.354C364.669 393.854 368.177 390.344 368.177 386.027C368.177 381.71 364.669 378.2 360.354 378.2H91.9353Z" fill="#292C33"/>
<path d="M286.615 179.463H26.7373C24.0353 179.463 21.8562 181.643 21.8562 184.347V187.944C21.8562 190.648 24.0353 192.828 26.7373 192.828H286.615C289.317 192.828 291.496 190.648 291.496 187.944V184.347C291.517 181.643 289.317 179.463 286.615 179.463Z" fill="#292C33"/>
<path d="M282.147 189.383C283.929 189.383 285.372 187.938 285.372 186.156C285.372 184.374 283.929 182.929 282.147 182.929C280.366 182.929 278.922 184.374 278.922 186.156C278.922 187.938 280.366 189.383 282.147 189.383Z" fill="white"/>
<path d="M291.496 199.107H21.9653V361.367H291.496V199.107Z" fill="white"/>
<path d="M291.518 361.847H21.9652C21.7037 361.847 21.4858 361.629 21.4858 361.367V199.107C21.4858 198.846 21.7037 198.628 21.9652 198.628H291.496C291.757 198.628 291.975 198.846 291.975 199.107V361.367C291.997 361.629 291.779 361.847 291.518 361.847ZM22.4664 360.866H291.016V199.587H22.4664V360.866Z" fill="#292C33"/>
<path d="M351.747 315.537H283.695L294.198 396.471C309.8 399.807 325.468 399.894 341.244 396.471L351.747 315.537Z" fill="#292C33"/>
<path d="M356.781 295.543H278.661L290.711 388.447C308.623 392.263 326.6 392.372 344.709 388.447L356.781 295.543Z" fill="white"/>
<path d="M317.841 391.827C308.776 391.827 299.689 390.867 290.602 388.927C290.406 388.883 290.253 388.709 290.232 388.513L278.181 295.609C278.16 295.478 278.203 295.325 278.29 295.216C278.377 295.107 278.508 295.042 278.661 295.042H356.781C356.912 295.042 357.064 295.107 357.151 295.216C357.238 295.325 357.282 295.456 357.26 295.609L345.21 388.513C345.188 388.709 345.036 388.883 344.839 388.927C335.927 390.867 326.906 391.827 317.841 391.827ZM291.169 388.033C308.972 391.783 326.84 391.783 344.295 388.033L356.236 296.023H279.227L291.169 388.033Z" fill="#292C33"/>
<path d="M351.856 286.146H283.586L281.123 294.213H354.319L351.856 286.146Z" fill="#292C33"/>
<path d="M354.319 294.715H281.123C280.971 294.715 280.818 294.65 280.731 294.519C280.644 294.388 280.622 294.235 280.666 294.083L283.128 285.994C283.193 285.797 283.389 285.645 283.586 285.645H351.856C352.074 285.645 352.27 285.776 352.314 285.994L354.776 294.083C354.82 294.235 354.798 294.388 354.711 294.519C354.624 294.628 354.471 294.715 354.319 294.715ZM281.777 293.734H353.665L351.507 286.626H283.956L281.777 293.734Z" fill="white"/>
<path d="M360.703 294.214H274.739V302.957H360.703V294.214Z" fill="#292C33"/>
<path d="M360.703 303.436H274.738C274.477 303.436 274.259 303.218 274.259 302.957V294.213C274.259 293.952 274.477 293.734 274.738 293.734H360.703C360.965 293.734 361.183 293.952 361.183 294.213V302.957C361.183 303.218 360.965 303.436 360.703 303.436ZM275.218 302.477H360.202V294.715H275.218V302.477Z" fill="white"/>
<path d="M281.515 326.046L287.682 373.468C287.682 373.468 318.494 382.866 347.89 373.468C351.268 350.51 353.883 326.046 353.883 326.046C353.883 326.046 318.168 330.908 281.515 326.046Z" fill="#292C33"/>
<path d="M325.293 365.379C325.271 365.379 325.228 365.379 325.206 365.379C323.79 365.314 323.005 363.94 322.264 362.632C321.589 361.411 320.935 360.277 319.911 360.168C318.734 360.038 317.623 361.368 316.533 362.632C315.357 364.028 314.245 365.336 312.872 364.987C311.826 364.725 311.456 363.722 311.107 362.741C310.759 361.782 310.432 360.888 309.56 360.539C308.732 360.212 307.991 360.583 306.749 361.28C305.725 361.847 304.592 362.501 303.088 362.698C300.43 363.046 297.532 361.782 294.481 358.947C294.285 358.773 294.263 358.446 294.459 358.25C294.633 358.053 294.939 358.032 295.156 358.228C297.989 360.866 300.626 362.043 302.979 361.738C304.287 361.564 305.355 360.975 306.292 360.452C307.512 359.776 308.645 359.122 309.952 359.645C311.216 360.147 311.674 361.411 312.044 362.414C312.393 363.352 312.633 363.94 313.134 364.049C313.918 364.246 314.877 363.112 315.814 362C316.991 360.604 318.342 359.013 320.02 359.209C321.545 359.362 322.373 360.844 323.114 362.174C323.768 363.308 324.356 364.398 325.25 364.442C326.143 364.464 326.862 363.461 327.647 362.371C328.584 361.062 329.651 359.58 331.373 359.427C332.985 359.296 334.641 360.408 336.363 362.741C336.515 362.959 336.472 363.264 336.254 363.417C336.036 363.57 335.731 363.526 335.578 363.308C334.075 361.259 332.702 360.277 331.46 360.386C330.196 360.495 329.303 361.716 328.453 362.916C327.538 364.115 326.622 365.379 325.293 365.379Z" fill="white"/>
<path d="M326.426 231.594C325.554 232.488 324.639 233.339 323.811 234.254C323.375 234.691 322.961 235.17 322.569 235.628L321.959 236.326L321.371 237.045C319.824 238.964 318.407 241.035 317.448 243.259C316.468 245.483 316.01 247.947 316.555 250.28C317.034 252.635 318.516 254.662 320.238 256.385C321.981 258.129 323.964 259.655 325.772 261.421C326.688 262.293 327.537 263.253 328.278 264.321C329.019 265.368 329.586 266.567 329.934 267.81C330.654 270.317 330.283 273.021 329.281 275.354C328.278 277.708 326.753 279.758 325.031 281.589C324.966 281.655 324.857 281.655 324.814 281.589C324.748 281.524 324.748 281.437 324.792 281.371C326.404 279.496 327.864 277.425 328.736 275.136C329.172 274.002 329.477 272.803 329.564 271.582C329.651 270.382 329.542 269.162 329.194 268.006C328.845 266.85 328.3 265.76 327.581 264.779C326.862 263.798 326.034 262.904 325.14 262.054C323.354 260.353 321.371 258.827 319.562 257.039C318.669 256.145 317.819 255.164 317.1 254.074C316.381 252.983 315.858 251.763 315.574 250.476C315.291 249.19 315.269 247.86 315.465 246.573C315.661 245.287 316.054 244.044 316.598 242.889C316.729 242.583 316.86 242.3 317.012 242.016C317.165 241.733 317.296 241.45 317.448 241.166C317.775 240.621 318.102 240.076 318.472 239.553L319.017 238.768C319.213 238.506 319.409 238.266 319.606 238.026L320.194 237.285L320.804 236.566L321.436 235.846L322.09 235.17C322.526 234.712 322.961 234.276 323.419 233.84C324.312 232.968 325.271 232.14 326.208 231.333C326.274 231.267 326.383 231.289 326.426 231.355C326.491 231.42 326.491 231.529 326.426 231.594Z" fill="#292C33"/>
<path d="M330.043 242.235C329.368 243.979 328.976 245.832 329.041 247.685C329.041 248.601 329.259 249.517 329.455 250.411C329.608 250.847 329.717 251.283 329.913 251.697L330.196 252.308C330.283 252.526 330.392 252.722 330.523 252.918C331.438 254.51 332.724 255.862 334.053 257.192C335.382 258.5 336.82 259.764 338.019 261.334C339.217 262.86 340.154 264.779 340.176 266.785C340.263 268.791 339.631 270.731 338.738 272.454C336.929 275.921 334.227 278.69 331.394 281.219C331.329 281.284 331.22 281.262 331.177 281.197C331.111 281.132 331.133 281.044 331.177 280.979C332.484 279.605 333.748 278.21 334.925 276.749C336.101 275.288 337.147 273.718 337.932 272.061C338.346 271.233 338.651 270.361 338.891 269.489C339.13 268.616 339.239 267.701 339.196 266.807C339.152 265.019 338.368 263.318 337.256 261.879C336.145 260.418 334.75 259.154 333.399 257.802C332.048 256.472 330.741 254.989 329.826 253.267C328.889 251.566 328.387 249.582 328.409 247.664C328.431 245.723 328.91 243.804 329.717 242.082C329.76 241.995 329.847 241.973 329.934 241.995C330.022 242.082 330.065 242.169 330.043 242.235Z" fill="#292C33"/>
<path d="M354.188 89.8295H236.256C232.813 89.8295 230.046 87.0387 230.046 83.6156V6.7154C230.046 3.27048 232.835 0.501465 236.256 0.501465H354.188C357.631 0.501465 360.398 3.29228 360.398 6.7154V83.6156C360.42 87.0387 357.631 89.8295 354.188 89.8295Z" fill="white"/>
<path d="M354.188 90.331H236.256C232.552 90.331 229.544 87.3221 229.544 83.6156V6.71541C229.544 3.00885 232.552 0 236.256 0H354.188C357.892 0 360.899 3.00885 360.899 6.71541V83.6156C360.899 87.3221 357.892 90.331 354.188 90.331ZM236.278 0.981148C233.118 0.981148 230.547 3.55393 230.547 6.71541V83.6156C230.547 86.7771 233.118 89.3498 236.278 89.3498H354.21C357.369 89.3498 359.941 86.7771 359.941 83.6156V6.71541C359.941 3.55393 357.369 0.981148 354.21 0.981148H236.278Z" fill="#292C33"/>
<path d="M295.222 78.8625C294.96 78.8625 294.742 78.6445 294.742 78.3828V11.5776C294.742 11.3159 294.96 11.0979 295.222 11.0979C295.483 11.0979 295.701 11.3159 295.701 11.5776V78.361C295.723 78.6445 295.505 78.8625 295.222 78.8625Z" fill="#292C33"/>
<path d="M293.588 13.518L295.222 11.8828L296.878 13.518V12.1226L295.222 10.4656L293.588 12.1226V13.518Z" fill="#292C33"/>
<path d="M345.777 52.6113H243.6C243.338 52.6113 243.12 52.3933 243.12 52.1317C243.12 51.87 243.338 51.652 243.6 51.652H345.777C346.038 51.652 346.256 51.87 346.256 52.1317C346.256 52.3933 346.038 52.6113 345.777 52.6113Z" fill="#292C33"/>
<path d="M343.837 53.7669L345.471 52.1099L343.837 50.4746H345.232L346.888 52.1099L345.232 53.7669H343.837Z" fill="#292C33"/>
<path d="M295.462 74.371C283.782 74.371 274.281 64.8648 274.281 53.1782V40.903C274.281 29.7397 265.216 20.6695 254.059 20.6695H243.578C243.316 20.6695 243.098 20.4515 243.098 20.1899C243.098 19.9282 243.316 19.7102 243.578 19.7102H254.059C265.739 19.7102 275.24 29.2164 275.24 40.903V53.1782C275.24 64.3415 284.305 73.4117 295.462 73.4117C306.619 73.4117 315.684 64.3415 315.684 53.1782V40.903C315.684 29.2164 325.184 19.7102 336.864 19.7102H343.009C343.271 19.7102 343.489 19.9282 343.489 20.1899C343.489 20.4515 343.271 20.6695 343.009 20.6695H336.864C325.707 20.6695 316.642 29.7397 316.642 40.903V53.1782C316.642 64.8648 307.142 74.371 295.462 74.371Z" fill="#292C33"/>
<path d="M173.041 139.824C168.203 141.329 165.763 134.417 156.829 133.327C148.134 132.28 146.086 138.32 136.716 138.516C126.038 138.756 114.075 131.234 113.356 123.581C112.746 116.909 120.939 113.115 119.152 108.58C117.496 104.416 110.24 106.945 102.962 101.538C96.7078 96.8938 92.3714 87.8672 94.5505 81.3916C96.2066 76.4641 100.281 76.9874 102.33 71.3185C104.531 65.3008 100.783 62.8152 102.504 56.6885C104.291 50.3874 110.763 44.3043 117.039 44.2388C123.118 44.1734 124.099 49.8205 130.876 50.2129C138.633 50.6708 141.771 43.5411 146.456 45.3508C151.49 47.2913 149.376 56.1652 156.066 59.959C158.855 61.5288 159.64 60.2861 165.283 61.8995C168.16 62.728 173.673 64.2979 177.05 67.9172C183.544 74.8725 177.508 84.3133 183.108 88.8484C187.292 92.2279 191.846 87.9544 198.035 91.77C201.848 94.1247 205.836 99.2921 204.986 103.784C203.635 110.87 191.759 108.711 183.435 118.719C175.787 127.876 178.837 138.015 173.041 139.824Z" fill="#292C33"/>
<path d="M92.2188 217.706C92.1971 217.706 92.1971 217.706 92.1753 217.706C91.9138 217.684 91.7177 217.444 91.7394 217.182L93.1341 202.989C93.1558 202.727 93.3955 202.531 93.657 202.552C93.9185 202.574 94.1146 202.814 94.0929 203.076L92.6982 217.27C92.6765 217.531 92.4585 217.706 92.2188 217.706Z" fill="#292C33"/>
<path d="M340.918 88.4995C338.738 86.45 336.211 86.3846 333.247 86.7552L332.201 86.1011C329.913 84.6621 327.124 84.2261 324.509 84.8584L303.808 89.9385C302.936 90.1565 302.152 89.3716 302.348 88.4995C302.74 86.7552 303.328 84.1606 303.786 82.0893C304.265 79.9744 303.416 78.7316 302.718 78.0993C302.326 77.7287 301.694 77.7723 301.345 78.1865C299.057 80.8029 290.603 90.8761 290.864 95.8472C291.169 101.603 295.113 118.326 295.113 118.326H312.698L309.256 107.054C309.016 106.269 309.43 105.419 310.214 105.157L335.339 96.2615C335.797 96.1088 335.949 95.542 335.622 95.1713C335.056 94.5172 334.184 93.5797 333.225 92.9256L340.373 90.0911C341.005 89.8731 341.266 89.0882 340.918 88.4995Z" fill="white"/>
<path d="M312.698 118.828H295.113C294.895 118.828 294.699 118.675 294.634 118.457C294.481 117.781 290.668 101.603 290.363 95.8908C290.079 90.7888 298.404 80.8247 300.953 77.8813C301.215 77.576 301.563 77.4016 301.977 77.3798C302.37 77.358 302.74 77.4888 303.023 77.7504C303.699 78.3827 304.766 79.7781 304.244 82.1983C303.786 84.2696 303.198 86.8642 302.805 88.6085C302.74 88.8483 302.827 89.0881 303.001 89.2626C303.176 89.437 303.437 89.5024 303.677 89.437L324.378 84.3568C327.124 83.6809 330.066 84.1606 332.441 85.6432L333.334 86.2101C336.494 85.8395 339.043 86.0357 341.244 88.107C341.266 88.1288 341.31 88.1724 341.331 88.216C341.571 88.6303 341.615 89.1099 341.462 89.5678C341.31 90.0257 340.961 90.3745 340.525 90.549L334.184 93.0563C334.903 93.645 335.535 94.3209 335.971 94.8442C336.232 95.1277 336.32 95.5419 336.211 95.9126C336.102 96.2832 335.84 96.5885 335.47 96.7193L310.345 105.615C309.8 105.811 309.517 106.378 309.691 106.923L313.134 118.196C313.178 118.348 313.156 118.501 313.069 118.632C313.003 118.762 312.851 118.828 312.698 118.828ZM295.505 117.847H312.045L308.798 107.207C308.471 106.16 309.037 105.07 310.062 104.699L335.186 95.8036C335.274 95.7818 335.295 95.7163 335.317 95.6727C335.317 95.6291 335.339 95.5637 335.274 95.4983C334.729 94.866 333.879 93.9721 332.964 93.3398C332.811 93.2308 332.724 93.0563 332.746 92.8819C332.768 92.7075 332.877 92.5549 333.051 92.4895L340.198 89.655C340.373 89.5896 340.503 89.437 340.569 89.2626C340.634 89.11 340.612 88.9355 340.547 88.7829C338.608 86.9732 336.341 86.8424 333.312 87.2131C333.203 87.2349 333.095 87.1913 332.986 87.1477L331.94 86.4936C329.761 85.1418 327.102 84.7057 324.618 85.3162L303.917 90.3963C303.35 90.549 302.74 90.3745 302.326 89.9603C301.912 89.546 301.738 88.9573 301.868 88.3904C302.261 86.6462 302.849 84.0516 303.307 81.9803C303.721 80.127 303.023 79.0368 302.391 78.4699C302.304 78.3827 302.173 78.3391 302.043 78.3391C301.912 78.3391 301.803 78.4045 301.716 78.5136C296.573 84.4004 291.147 92.0534 291.343 95.8254C291.627 100.993 294.917 115.339 295.505 117.847Z" fill="#292C33"/>
<path d="M311.74 98.6815C311.522 98.6815 311.326 98.5289 311.26 98.3109C311.195 98.0493 311.347 97.7876 311.609 97.7222L329.456 93.2525C329.717 93.1871 329.979 93.3397 330.044 93.6014C330.109 93.863 329.957 94.1247 329.695 94.1901L311.849 98.6597C311.805 98.6815 311.783 98.6815 311.74 98.6815Z" fill="#292C33"/>
<path d="M309.909 93.4488C309.691 93.4488 309.495 93.2961 309.43 93.0781C309.364 92.8165 309.517 92.5548 309.778 92.4894L327.625 88.0197C327.886 87.9543 328.148 88.107 328.213 88.3686C328.279 88.6302 328.126 88.8919 327.865 88.9573L310.018 93.427C309.996 93.4488 309.953 93.4488 309.909 93.4488Z" fill="#292C33"/>
<path d="M74.7209 166.424C79.711 166.73 88.1005 167.144 93.1777 167.384C95.5311 167.493 97.318 169.586 97.0565 171.919L93.6135 203.01C93.6135 203.01 101.48 199.478 110.087 189.209C118.695 178.961 126.452 157.878 145.497 157.114C157.635 156.635 188.055 158.575 208.582 160.058C219.129 160.821 229.348 164.048 238.348 169.586C244.885 173.62 254.604 177.217 266.894 174.971C289.448 170.872 299.646 151.555 290.254 120.354C289.404 117.498 291.518 114.62 294.503 114.62H313.635C315.705 114.62 317.536 115.993 318.124 117.978C322.482 132.847 337.039 192.785 295.113 211.644C270.359 222.786 244.362 221.5 244.362 221.5L254.626 315.406C255.715 325.436 250.791 335.182 242.031 340.218C232.835 345.495 218.475 350.335 197.12 349.616C179.295 349.027 165.414 345.865 155.194 342.268C141.183 337.34 131.116 325.043 128.958 310.348C126.648 294.519 123.968 269.99 123.532 239.182C123.532 239.182 109.041 255.077 81.4543 249.931C47.3952 243.586 63.8909 186.091 69.1642 170.153C69.9487 167.82 72.2368 166.272 74.7209 166.424Z" fill="white"/>
<path d="M201.325 350.226C199.931 350.226 198.536 350.204 197.12 350.161C181.67 349.659 167.506 347.174 155.042 342.791C140.834 337.798 130.658 325.414 128.479 310.479C126.278 295.391 123.554 271.058 123.075 240.381C119.588 243.564 105.272 254.924 81.3889 250.476C74.1325 249.124 68.663 245.374 65.0893 239.335C53.6274 219.908 64.9586 181.403 68.7066 170.066C69.5564 167.493 72.0406 165.814 74.7427 165.967C79.8199 166.272 88.4927 166.708 93.1995 166.926C94.4851 166.991 95.64 167.558 96.4681 168.518C97.2961 169.499 97.6666 170.72 97.5358 172.006L94.2018 202.204C96.3809 201.026 102.831 197.123 109.717 188.947C111.787 186.462 113.835 183.344 115.993 180.03C122.595 169.891 130.81 157.267 145.497 156.7C157.373 156.242 186.377 158.052 208.625 159.644C219.281 160.407 229.653 163.721 238.631 169.259C244.602 172.944 254.364 176.846 266.829 174.579C276.569 172.813 284.043 168.06 288.467 160.865C294.372 151.206 294.83 137.273 289.818 120.572C289.36 119.068 289.644 117.454 290.581 116.19C291.518 114.925 292.956 114.206 294.525 114.206H313.657C315.923 114.206 317.972 115.732 318.604 117.912C320.717 125.151 325.533 144.054 324.487 163.416C323.158 187.661 313.352 204.057 295.331 212.168C272.778 222.328 248.895 222.175 244.929 222.088L255.149 315.428C256.26 325.676 251.226 335.596 242.314 340.698C231.244 347.021 217.472 350.226 201.325 350.226ZM123.532 238.746C123.598 238.746 123.641 238.746 123.707 238.768C123.903 238.833 124.012 239.008 124.012 239.226C124.447 270.382 127.215 295.086 129.438 310.326C131.573 324.912 141.488 336.992 155.347 341.854C167.724 346.192 181.779 348.656 197.142 349.179C214.945 349.768 229.959 346.628 241.791 339.848C250.377 334.92 255.214 325.37 254.146 315.515L243.883 221.609C243.861 221.478 243.905 221.325 244.014 221.216C244.101 221.107 244.253 221.063 244.384 221.063C244.646 221.085 270.555 222.219 294.917 211.252C312.568 203.316 322.177 187.181 323.485 163.328C324.531 144.12 319.758 125.347 317.645 118.152C317.122 116.386 315.466 115.143 313.635 115.143H294.503C293.239 115.143 292.084 115.732 291.343 116.735C290.581 117.76 290.363 119.024 290.733 120.245C295.832 137.208 295.331 151.424 289.295 161.322C284.741 168.757 277.027 173.663 267.003 175.495C254.234 177.828 244.253 173.816 238.13 170.044C229.305 164.615 219.085 161.322 208.582 160.581C186.355 158.99 157.373 157.18 145.541 157.638C131.377 158.183 123.641 170.066 116.821 180.531C114.642 183.867 112.593 187.029 110.48 189.558C101.894 199.783 94.1583 203.337 93.8314 203.49C93.6789 203.555 93.4827 203.534 93.352 203.446C93.2213 203.337 93.1341 203.163 93.1559 202.989L96.5988 171.897C96.7078 170.894 96.4027 169.913 95.749 169.15C95.0953 168.387 94.1801 167.929 93.1777 167.885C88.4491 167.667 79.7763 167.231 74.6991 166.926C72.4328 166.773 70.3627 168.19 69.6436 170.349C65.9174 181.578 54.6733 219.733 65.9392 238.811C69.3603 244.611 74.6119 248.187 81.585 249.495C108.584 254.531 123.053 239.051 123.205 238.899C123.271 238.789 123.402 238.746 123.532 238.746Z" fill="#292C33"/>
<path d="M92.9598 146.78L90.7154 144.294V127.593C90.7154 125.957 89.4079 124.649 87.7736 124.649C86.1611 124.649 84.8318 125.957 84.8318 127.593V145.559L69.186 148.96V158.139C69.186 162.129 71.4959 165.77 75.1349 167.449L75.9194 167.82C80.6044 170 86.0957 169.586 90.4103 166.751C92.5022 165.378 93.875 163.154 94.1801 160.69L95.0735 153.539C95.4004 151.097 94.6159 148.633 92.9598 146.78Z" fill="white"/>
<path d="M82.2386 169.717C80.0377 169.717 77.815 169.237 75.7449 168.278L74.9604 167.907C71.1688 166.163 68.7283 162.325 68.7283 158.161V148.982C68.7283 148.742 68.8808 148.546 69.1205 148.502L84.3741 145.188V127.615C84.3741 125.718 85.9212 124.191 87.7952 124.191C89.691 124.191 91.2164 125.739 91.2164 127.615V144.12L93.3301 146.453C95.0951 148.393 95.9014 151.009 95.5745 153.604L94.6811 160.756C94.3543 163.372 92.8943 165.727 90.6934 167.166C88.1221 168.866 85.1803 169.717 82.2386 169.717ZM69.6871 149.396V158.183C69.6871 161.976 71.9097 165.465 75.3527 167.057L76.1371 167.427C80.7132 169.542 85.943 169.15 90.1704 166.381C92.1316 165.094 93.439 163.001 93.7223 160.668L94.6158 153.517C94.899 151.206 94.1799 148.873 92.611 147.128L90.3665 144.643C90.2794 144.556 90.2358 144.447 90.2358 144.316V127.615C90.2358 126.263 89.1463 125.151 87.7734 125.151C86.4224 125.151 85.3111 126.241 85.3111 127.615V145.58C85.3111 145.82 85.1585 146.016 84.9188 146.06L69.6871 149.396Z" fill="#292C33"/>
<path d="M82.4348 150.312H80.5172C79.3187 150.312 78.3381 149.331 78.3381 148.131V141.416C78.3381 140.217 79.3187 139.236 80.5172 139.236H81.8465C83.3718 139.236 84.6139 140.479 84.6139 142.005V148.131C84.6139 149.331 83.6333 150.312 82.4348 150.312Z" fill="white"/>
<path d="M82.4348 150.791H80.5172C79.0354 150.791 77.8369 149.592 77.8369 148.11V141.394C77.8369 139.912 79.0354 138.712 80.5172 138.712H81.8464C83.6333 138.712 85.0933 140.173 85.0933 141.961V148.088C85.0933 149.592 83.8948 150.791 82.4348 150.791ZM80.5172 139.715C79.5802 139.715 78.8175 140.478 78.8175 141.416V148.131C78.8175 149.069 79.5802 149.832 80.5172 149.832H82.4348C83.3718 149.832 84.1345 149.069 84.1345 148.131V142.005C84.1345 140.74 83.1103 139.715 81.8464 139.715H80.5172Z" fill="#292C33"/>
<path d="M76.1372 151.685H75.745C74.5465 151.685 73.5659 150.704 73.5659 149.505V142.964C73.5659 141.765 74.5465 140.784 75.745 140.784H76.1372C77.3357 140.784 78.3163 141.765 78.3163 142.964V149.505C78.3381 150.704 77.3575 151.685 76.1372 151.685Z" fill="white"/>
<path d="M76.1372 152.187H75.745C74.2632 152.187 73.0647 150.988 73.0647 149.505V142.964C73.0647 141.481 74.2632 140.282 75.745 140.282H76.1372C77.619 140.282 78.8175 141.481 78.8175 142.964V149.505C78.8175 150.988 77.619 152.187 76.1372 152.187ZM75.7668 141.263C74.8298 141.263 74.0671 142.026 74.0671 142.964V149.505C74.0671 150.443 74.8298 151.206 75.7668 151.206H76.159C77.096 151.206 77.8587 150.443 77.8587 149.505V142.964C77.8587 142.026 77.096 141.263 76.159 141.263H75.7668Z" fill="#292C33"/>
<path d="M71.3868 153.408C70.1883 153.408 69.2078 152.427 69.2078 151.227V144.752C69.2078 143.553 70.1883 142.572 71.3868 142.572C72.5853 142.572 73.5659 143.553 73.5659 144.752V151.227C73.5659 152.427 72.6071 153.408 71.3868 153.408Z" fill="white"/>
<path d="M71.3868 153.909C69.905 153.909 68.7065 152.71 68.7065 151.227V144.752C68.7065 143.269 69.905 142.07 71.3868 142.07C72.8686 142.07 74.0671 143.269 74.0671 144.752V151.227C74.0671 152.71 72.8686 153.909 71.3868 153.909ZM71.3868 143.051C70.4498 143.051 69.6871 143.814 69.6871 144.752V151.227C69.6871 152.165 70.4498 152.928 71.3868 152.928C72.3238 152.928 73.0865 152.165 73.0865 151.227V144.752C73.0865 143.814 72.3238 143.051 71.3868 143.051Z" fill="#292C33"/>
<path d="M92.2189 150.791C92.11 150.791 92.0228 150.77 91.9357 150.704L85.2459 145.886C85.028 145.733 84.9844 145.428 85.1369 145.21C85.2895 144.992 85.5945 144.948 85.8124 145.101L92.5022 149.919C92.7201 150.072 92.7637 150.377 92.6112 150.595C92.524 150.726 92.3715 150.791 92.2189 150.791Z" fill="#292C33"/>
<path d="M80.3427 162.107C80.0812 162.107 79.8633 161.911 79.8633 161.649C79.6236 156.199 83.1102 153.953 84.6791 153.233L82.086 150.661C81.8899 150.464 81.8899 150.159 82.086 149.963C82.2821 149.767 82.5872 149.767 82.7833 149.963L85.8994 153.059C86.0301 153.19 86.0737 153.364 86.0301 153.517C85.9865 153.691 85.8558 153.822 85.6815 153.866C85.4636 153.931 80.5824 155.392 80.8439 161.584C80.8657 161.846 80.6478 162.085 80.3863 162.085C80.3645 162.107 80.3645 162.107 80.3427 162.107Z" fill="#292C33"/>
<path d="M152.492 361.869C152.492 361.869 146.5 285.972 163.823 261.77L220.305 259.394C220.305 259.394 240.81 285.274 238.588 361.389L152.492 361.869Z" fill="#292C33"/>
<path d="M148.526 157.005L141.27 259.633C140.943 264.277 144.168 268.398 148.744 269.205C163.279 271.712 195.464 275.572 228.063 268.158C231.745 267.33 234.099 263.732 233.336 260.026L212.94 160.537C212.94 160.537 176.179 155.348 148.526 157.005Z" fill="white"/>
<path d="M187.205 272.977C171.232 272.977 157.526 271.211 148.657 269.685C143.819 268.856 140.42 264.517 140.769 259.612L148.047 156.984C148.069 156.744 148.265 156.547 148.504 156.526C175.874 154.869 212.657 160.014 213.027 160.058C213.223 160.08 213.397 160.232 213.441 160.45L233.837 259.939C234.643 263.907 232.181 267.744 228.193 268.638C213.942 271.865 199.865 272.977 187.205 272.977ZM148.984 157.463L141.749 259.655C141.444 264.059 144.473 267.962 148.831 268.704C164.651 271.429 195.987 274.917 227.954 267.679C231.418 266.894 233.576 263.58 232.857 260.113L212.526 160.974C208.778 160.472 174.806 155.981 148.984 157.463Z" fill="#292C33"/>
<path d="M169.228 257.475C169.01 257.475 168.835 257.344 168.77 257.126C168.683 256.864 168.835 256.603 169.097 256.515C197.512 247.729 210.979 215.111 211.11 214.784C211.218 214.544 211.502 214.413 211.741 214.522C211.981 214.631 212.112 214.915 212.003 215.155C211.872 215.482 198.209 248.536 169.38 257.453C169.315 257.475 169.271 257.475 169.228 257.475Z" fill="#292C33"/>
<path d="M196.009 121.684C194.331 119.656 193.198 117.236 192.696 114.663C191.825 110.063 190.909 105.986 190.909 105.986C184.045 111.698 176.288 107.774 176.288 107.774C169.816 112.81 170.993 119.896 170.993 119.896C170.993 119.896 164.978 119.242 165.392 123.123C165.806 126.982 171.603 127.942 171.712 127.963L164.652 156.526C164.216 158.314 165.327 160.123 167.114 160.516C177.988 162.892 184.808 161.998 188.251 161.083C189.253 160.821 189.558 159.556 188.818 158.837C185.026 155.087 184.372 144.359 184.394 137.339C187.902 138.124 191.149 137.426 192.762 134.199C193.917 131.888 194.222 129.468 194.091 125.805C194.069 125.107 196.423 122.425 196.009 121.684Z" fill="white"/>
<path d="M179.949 162.5C176.462 162.5 172.191 162.086 166.983 160.952C165.981 160.734 165.153 160.145 164.608 159.273C164.063 158.401 163.911 157.376 164.15 156.373L171.102 128.312C169.576 127.963 165.284 126.677 164.913 123.145C164.804 122.12 165.066 121.292 165.719 120.638C166.983 119.373 169.337 119.308 170.448 119.351C170.317 117.476 170.404 111.72 176.005 107.381C176.157 107.272 176.353 107.25 176.528 107.338C176.593 107.381 184.089 111.044 190.626 105.615C190.757 105.506 190.931 105.484 191.084 105.528C191.236 105.571 191.367 105.724 191.411 105.877C191.411 105.92 192.369 110.019 193.219 114.576C193.677 117.084 194.788 119.438 196.423 121.379C196.444 121.401 196.466 121.422 196.466 121.444C196.837 122.098 196.292 123.014 195.355 124.475C195.05 124.933 194.636 125.587 194.614 125.783C194.766 129.686 194.374 132.106 193.241 134.374C191.759 137.361 188.818 138.582 184.939 137.906C184.961 144.294 185.571 154.869 189.21 158.466C189.689 158.946 189.885 159.6 189.711 160.254C189.537 160.886 189.057 161.366 188.425 161.541C186.399 162.042 183.631 162.5 179.949 162.5ZM170.034 120.311C168.988 120.311 167.288 120.463 166.417 121.335C165.981 121.771 165.828 122.316 165.894 123.036C166.264 126.524 171.734 127.44 171.799 127.44C171.93 127.462 172.06 127.549 172.126 127.658C172.191 127.767 172.235 127.92 172.191 128.051L165.131 156.613C164.957 157.354 165.066 158.117 165.48 158.772C165.872 159.404 166.504 159.862 167.245 160.014C178.271 162.413 185.091 161.41 188.164 160.581C188.469 160.494 188.687 160.298 188.752 159.992C188.839 159.687 188.752 159.382 188.513 159.142C184.699 155.392 183.936 145.188 183.936 137.295C183.936 137.143 184.002 137.012 184.111 136.925C184.22 136.837 184.372 136.794 184.525 136.837C187.14 137.426 190.626 137.404 192.348 133.959C193.394 131.844 193.764 129.555 193.612 125.805C193.59 125.412 193.917 124.911 194.505 123.973C194.875 123.385 195.573 122.316 195.573 121.946C193.873 119.874 192.718 117.411 192.239 114.772C191.607 111.393 190.931 108.253 190.604 106.858C184.481 111.415 177.813 108.973 176.353 108.341C170.448 113.137 171.45 119.744 171.472 119.809C171.494 119.962 171.45 120.114 171.341 120.223C171.232 120.332 171.08 120.398 170.927 120.376C170.927 120.354 170.557 120.311 170.034 120.311Z" fill="#292C33"/>
<path d="M184.416 137.775C184.394 137.775 184.35 137.775 184.329 137.775C181.539 137.252 177.726 134.679 177.574 134.57C177.356 134.417 177.29 134.112 177.443 133.894C177.595 133.676 177.9 133.61 178.118 133.763C178.162 133.785 181.932 136.336 184.503 136.816C184.764 136.859 184.939 137.121 184.895 137.382C184.852 137.6 184.634 137.775 184.416 137.775Z" fill="#292C33"/>
<path d="M59.0968 152.645H22.7279C19.0235 152.645 16.0164 149.636 16.0164 145.929V68.9201C16.0164 65.2136 19.0235 62.2047 22.7279 62.2047H45.9787C46.2402 62.2047 46.4581 62.4227 46.4581 62.6844C46.4581 62.946 46.2402 63.1641 45.9787 63.1641H22.7279C19.5683 63.1641 16.9969 65.7368 16.9969 68.8983V145.908C16.9969 149.069 19.5683 151.642 22.7279 151.642H59.0968C59.3583 151.642 59.5762 151.86 59.5762 152.121C59.5762 152.383 59.3583 152.645 59.0968 152.645Z" fill="#292C33"/>
<path d="M140.66 152.645H102.984C102.722 152.645 102.504 152.427 102.504 152.165C102.504 151.903 102.722 151.685 102.984 151.685H140.66C143.82 151.685 146.391 149.113 146.391 145.951V134.177C146.391 133.916 146.609 133.698 146.87 133.698C147.132 133.698 147.35 133.916 147.35 134.177V145.951C147.35 149.636 144.343 152.645 140.66 152.645Z" fill="#292C33"/>
<path d="M146.87 134.635C146.609 134.635 146.391 134.417 146.391 134.156V68.9202C146.391 65.7587 143.82 63.1859 140.66 63.1859H102.984C102.722 63.1859 102.504 62.9679 102.504 62.7062C102.504 62.4446 102.722 62.2266 102.984 62.2266H140.66C144.364 62.2266 147.371 65.2354 147.371 68.942V134.156C147.35 134.417 147.132 134.635 146.87 134.635Z" fill="white"/>
<path d="M102.983 63.1859H61.6681C61.4066 63.1859 61.1887 62.9679 61.1887 62.7062C61.1887 62.4446 61.4066 62.2266 61.6681 62.2266H102.983C103.245 62.2266 103.463 62.4446 103.463 62.7062C103.463 62.9679 103.245 63.1859 102.983 63.1859Z" fill="#292C33"/>
<path d="M120.808 140.413H105.402C105.141 140.413 104.923 140.195 104.923 139.933C104.923 139.672 105.141 139.454 105.402 139.454H120.808C121.07 139.454 121.288 139.672 121.288 139.933C121.31 140.195 121.092 140.413 120.808 140.413Z" fill="#292C33"/>
<path d="M67.0723 140.413H35.8678C35.6063 140.413 35.3884 140.195 35.3884 139.933C35.3884 139.672 35.6063 139.454 35.8678 139.454H67.0723C67.3337 139.454 67.5517 139.672 67.5517 139.933C67.5517 140.195 67.3337 140.413 67.0723 140.413Z" fill="#292C33"/>
<path d="M86.2045 125.892H38.7877C38.5263 125.892 38.3083 125.674 38.3083 125.412V76.4641C38.3083 76.2679 38.4391 76.0935 38.6134 76.0062C38.7877 75.9408 39.0057 75.9844 39.1364 76.1153L86.5532 125.064C86.6839 125.194 86.7275 125.412 86.6622 125.587C86.575 125.783 86.4007 125.892 86.2045 125.892ZM39.2671 124.933H85.0496L39.2671 77.6633V124.933Z" fill="#292C33"/>
<path d="M38.7877 129.882C41.2548 129.882 43.2548 127.881 43.2548 125.412C43.2548 122.944 41.2548 120.943 38.7877 120.943C36.3206 120.943 34.3206 122.944 34.3206 125.412C34.3206 127.881 36.3206 129.882 38.7877 129.882Z" fill="#292C33"/>
<path d="M86.2044 129.882C88.6715 129.882 90.6715 127.881 90.6715 125.412C90.6715 122.944 88.6715 120.943 86.2044 120.943C83.7373 120.943 81.7373 122.944 81.7373 125.412C81.7373 127.881 83.7373 129.882 86.2044 129.882Z" fill="#292C33"/>
<path d="M38.7877 80.9337C41.2548 80.9337 43.2548 78.9326 43.2548 76.4641C43.2548 73.9955 41.2548 71.9944 38.7877 71.9944C36.3206 71.9944 34.3206 73.9955 34.3206 76.4641C34.3206 78.9326 36.3206 80.9337 38.7877 80.9337Z" fill="#292C33"/>
<path d="M104.509 356.767H51.2084C44.6711 356.767 39.376 351.447 39.376 344.928V270.382C39.376 263.842 44.6929 258.543 51.2084 258.543H104.509C111.046 258.543 116.341 263.863 116.341 270.382V344.928C116.363 351.447 111.046 356.767 104.509 356.767ZM51.2084 259.503C45.2159 259.503 40.3348 264.387 40.3348 270.382V344.928C40.3348 350.924 45.2159 355.808 51.2084 355.808H104.509C110.501 355.808 115.382 350.924 115.382 344.928V270.382C115.382 264.387 110.501 259.503 104.509 259.503H51.2084Z" fill="#292C33"/>
<path d="M65.4595 286.822H48.8984V341.265H65.4595V286.822Z" fill="#292C33"/>
<path d="M86.1389 271.778H69.5779V341.243H86.1389V271.778Z" fill="#292C33"/>
<path d="M106.84 308.8H90.2793V341.265H106.84V308.8Z" fill="#292C33"/>
<path d="M318.843 216.681C318.712 216.681 318.603 216.637 318.495 216.528C318.298 216.332 318.298 216.027 318.495 215.831L359.766 174.557C359.962 174.361 360.267 174.361 360.464 174.557C360.66 174.753 360.66 175.058 360.464 175.255L319.192 216.55C319.083 216.615 318.974 216.681 318.843 216.681Z" fill="#292C33"/>
<path d="M274.738 260.789C274.608 260.789 274.499 260.745 274.39 260.636C274.194 260.44 274.194 260.135 274.39 259.939L301.127 233.186C301.323 232.99 301.628 232.99 301.824 233.186C302.021 233.382 302.021 233.687 301.824 233.884L275.087 260.636C274.978 260.745 274.869 260.789 274.738 260.789Z" fill="#292C33"/>
<path d="M342.944 171.156C342.813 171.156 342.704 171.112 342.595 171.003C342.399 170.807 342.399 170.502 342.595 170.305L360.115 152.775C363.405 149.483 363.405 144.12 360.115 140.827C358.328 139.039 357.347 136.685 357.347 134.155C357.347 131.648 358.328 129.272 360.115 127.484L384.172 103.435C384.368 103.238 384.673 103.238 384.869 103.435C385.065 103.631 385.065 103.936 384.869 104.132L360.79 128.203C359.2 129.795 358.306 131.932 358.306 134.177C358.306 136.423 359.178 138.56 360.79 140.151C364.473 143.836 364.473 149.81 360.79 153.473L343.271 171.003C343.183 171.09 343.053 171.156 342.944 171.156Z" fill="#292C33"/>
<path d="M232.987 146.91C232.856 146.91 232.747 146.867 232.639 146.758C232.442 146.562 232.442 146.256 232.639 146.06L274.085 104.59C274.281 104.394 274.586 104.394 274.782 104.59C274.978 104.787 274.978 105.092 274.782 105.288L233.336 146.758C233.227 146.867 233.118 146.91 232.987 146.91Z" fill="#292C33"/>
<path d="M167.615 47.6837C167.484 47.6837 167.375 47.6401 167.266 47.5311C167.07 47.3348 167.07 47.0296 167.266 46.8334L200.846 13.2563C201.042 13.0601 201.347 13.0601 201.543 13.2563C201.739 13.4525 201.739 13.7578 201.543 13.954L167.964 47.5311C167.876 47.6401 167.746 47.6837 167.615 47.6837Z" fill="#292C33"/>
<path d="M334.227 184.587C331.394 184.587 329.106 182.297 329.106 179.463C329.106 176.628 331.416 174.339 334.227 174.339C334.489 174.339 334.707 174.557 334.707 174.819C334.707 175.08 334.489 175.298 334.227 175.298C331.939 175.298 330.065 177.152 330.065 179.441C330.065 181.73 331.939 183.584 334.227 183.584C336.515 183.584 338.389 181.73 338.389 179.441C338.389 179.179 338.607 178.961 338.869 178.961C339.13 178.961 339.348 179.179 339.348 179.441C339.348 182.297 337.06 184.587 334.227 184.587Z" fill="#292C33"/>
<path d="M267.787 138.603C267.656 138.603 267.548 138.56 267.439 138.451L265.325 136.336C265.129 136.14 265.129 135.834 265.325 135.638C265.521 135.442 265.826 135.442 266.022 135.638L268.136 137.753C268.332 137.949 268.332 138.255 268.136 138.451C268.027 138.56 267.918 138.603 267.787 138.603Z" fill="#292C33"/>
<path d="M275.218 146.038C275.087 146.038 274.978 145.995 274.869 145.886L272.755 143.771C272.559 143.575 272.559 143.269 272.755 143.073C272.952 142.877 273.257 142.877 273.453 143.073L275.567 145.188C275.763 145.384 275.763 145.689 275.567 145.886C275.458 145.995 275.327 146.038 275.218 146.038Z" fill="#292C33"/>
<path d="M265.673 146.038C265.543 146.038 265.434 145.995 265.325 145.886C265.129 145.689 265.129 145.384 265.325 145.188L267.439 143.073C267.635 142.877 267.94 142.877 268.136 143.073C268.332 143.269 268.332 143.575 268.136 143.771L266.022 145.886C265.913 145.995 265.782 146.038 265.673 146.038Z" fill="#292C33"/>
<path d="M273.082 138.603C272.952 138.603 272.843 138.56 272.734 138.451C272.538 138.255 272.538 137.949 272.734 137.753L274.847 135.638C275.044 135.442 275.349 135.442 275.545 135.638C275.741 135.834 275.741 136.14 275.545 136.336L273.431 138.451C273.344 138.56 273.213 138.603 273.082 138.603Z" fill="#292C33"/>
<path d="M192.718 33.5552C192.587 33.5552 192.478 33.5116 192.369 33.4026C192.173 33.2063 192.173 32.9011 192.369 32.7049L217.603 7.47847C217.799 7.28224 218.104 7.28224 218.3 7.47847C218.496 7.6747 218.496 7.97995 218.3 8.17618L193.067 33.4026C192.979 33.5116 192.849 33.5552 192.718 33.5552Z" fill="#292C33"/>
</svg>
